<svg version="1.1" xmlns="http://www.w3.org/2000/svg" xmlns:xlink="http://www.w3.org/1999/xlink" width="197.39609" height="69.42593" viewBox="0,0,197.39609,69.42593"><g transform="translate(12.56049,-8.14319)"><g data-paper-data="{&quot;isPaintingLayer&quot;:true}" fill-rule="nonzero" stroke-linecap="butt" stroke-linejoin="miter" stroke-miterlimit="10" stroke-dasharray="" stroke-dashoffset="0" style="mix-blend-mode: normal"><g stroke="none"><g fill="#fbfbfb"><path d="M-12.56049,77.56912v-24.88788h106.92241v24.88788z" stroke-width="NaN"/><path d="M90.9465,65.08788c0,-6.86573 1.75924,-12.43151 3.92937,-12.43151c2.17014,0 3.92938,5.56578 3.92938,12.43151c0,6.86573 -1.75924,12.43151 -3.92938,12.43151c-2.17014,0 -3.92937,-5.56578 -3.92937,-12.43151z" stroke-width="0"/></g><g fill="#f6f6f6"><path d="M-9.66626,77.24471v-13.37957h103.03085v13.37957z" stroke-width="NaN"/><path d="M90.07349,70.53487c0,-3.69097 1.69521,-6.6831 3.78636,-6.6831c2.09115,0 3.78636,2.99213 3.78636,6.6831c0,3.69097 -1.69521,6.6831 -3.78636,6.6831c-2.09115,0 -3.78636,-2.99213 -3.78636,-6.6831z" stroke-width="0"/></g></g><g fill="#188f0f"><g stroke="none" stroke-width="0"><path d="M12.75938,63.20522l-8.37479,-0.96903l0.13364,-1.15496l8.37479,0.96903z"/><path d="M12.87715,62.38238l-8.37479,-0.96903l0.0385,-0.33271l8.37479,0.96903z"/><path d="M12.78613,63.35157l-4.64759,-0.53776l0.16257,-1.40502l4.64759,0.53776z"/><path d="M12.87432,62.60224l-4.64759,-0.53776l0.07364,-0.63645l4.64759,0.53776z"/></g><g><g stroke="#000000" stroke-width="0"><path d="M19.29525,60.83987c1.54975,0.40765 2.33521,0.96118 2.76736,2.56794c0.09953,0.37006 0.33229,0.74406 0.28861,1.14405c-0.02023,0.18526 -0.07375,0.33615 -0.15497,0.45736c0.21602,0.00779 0.40436,0.05479 0.50542,0.19455c0.7724,1.06818 -0.96952,1.11455 -1.6252,1.00918c-3.67336,-0.5903 -4.434,-0.86514 -6.8682,-1.30146c-0.44935,-0.08054 -0.85694,-0.29595 -1.30481,-0.20759c-0.19214,0.03791 -1.06464,0.16433 -1.25937,-0.04878c-0.2321,-0.06194 -0.38086,-0.23593 -0.268,-0.58225c0.00073,-0.021 0.00276,-0.04213 0.00617,-0.06332c0.01397,-0.08695 0.04955,-0.16578 0.10135,-0.23316c0.50899,-1.10978 1.32881,-2.07351 2.13897,-3.01833c0.12029,-0.14028 0.51754,-0.8885 0.77118,-1.02024c0.54568,-0.28342 1.29603,-0.08498 1.88498,-0.08877c0.52408,-0.00337 1.89343,-0.06194 2.29179,0.41469c0.16816,0.2012 0.23314,0.43959 0.1914,0.63616c0.18837,0.04838 0.36739,0.09631 0.53334,0.13996z"/><path d="M23.19151,65.63619c0.02809,0.08022 0.03717,0.16622 0.0232,0.25317c-0.0034,0.02119 -0.00809,0.04189 -0.01398,0.06207c-0.0018,0.49396 -0.36123,0.5362 -0.70311,0.40881c-0.26766,-0.09974 -0.52455,-0.30345 -0.59067,-0.47577c-0.50988,-1.32905 -0.45317,-3.05086 -1.32487,-4.28092c-0.08497,-0.1199 -0.73933,-0.19017 -0.78065,-0.1987c-0.69552,-0.14355 -1.1154,-0.21133 -2.01995,-0.38922c-0.72375,-0.14233 -0.66491,-0.80989 -0.15688,-1.12553c0.52763,-0.32782 1.80969,0.15682 2.30632,0.32422c0.55811,0.18812 1.33286,0.23476 1.76226,0.67487c0.1996,0.20458 0.34242,1.03958 0.4127,1.21049c0.47335,1.15108 0.94994,2.32313 1.08562,3.53651z" data-paper-data="{&quot;index&quot;:null}"/></g><g stroke="none"><path d="M7.20926,67.13275c0.30258,-1.88292 1.88282,-3.1948 3.52957,-2.93017c1.64675,0.26463 2.73641,2.00556 2.43382,3.88848c-0.30258,1.88292 -1.88283,3.1948 -3.52957,2.93017c-1.64675,-0.26463 -2.7364,-2.00556 -2.43382,-3.88848z" stroke-width="NaN"/><path d="M20.89973,69.3512c0.30258,-1.88292 1.88283,-3.1948 3.52957,-2.93017c1.64675,0.26463 2.73641,2.00556 2.43382,3.88848c-0.30258,1.88292 -1.88282,3.1948 -3.52957,2.93017c-1.64675,-0.26463 -2.73641,-2.00556 -2.43382,-3.88848z" stroke-width="NaN"/><path d="M9.33654,70.97197l1.09575,-6.81866l14.04462,2.25695l-1.09575,6.81866z" stroke-width="0"/></g><g stroke="none"><path d="M8.06702,67.26643c0.2382,-1.48231 1.63296,-2.49085 3.11526,-2.25264c1.48231,0.2382 2.49085,1.63296 2.25265,3.11526c-0.2382,1.48231 -1.63296,2.49085 -3.11526,2.25264c-1.48231,-0.2382 -2.49085,-1.63296 -2.25265,-3.11526z" stroke-width="NaN"/><path d="M20.38665,69.28661c0.2382,-1.48231 1.63296,-2.49085 3.11526,-2.25264c1.4823,0.2382 2.49085,1.63295 2.25264,3.11526c-0.2382,1.48231 -1.63295,2.49085 -3.11526,2.25264c-1.48231,-0.2382 -2.49085,-1.63296 -2.25265,-3.11526z" stroke-width="NaN"/><path d="M10.04374,70.33735l0.86261,-5.3679l12.64216,2.03158l-0.86261,5.36791z" stroke-width="0"/></g><g stroke="none"><path d="M8.72968,69.3608c0.06955,-0.43281 1.20651,-0.61002 2.53947,-0.39582c1.33296,0.21421 2.35715,0.73871 2.2876,1.17152c-0.06955,0.43281 -1.20651,0.61002 -2.53947,0.39582c-1.33296,-0.21421 -2.35715,-0.73871 -2.2876,-1.17152z" stroke-width="NaN"/><path d="M19.81191,71.1535c0.06955,-0.43281 1.20651,-0.61002 2.53947,-0.39582c1.33296,0.21421 2.35715,0.73871 2.2876,1.17152c-0.06955,0.43281 -1.20651,0.61002 -2.53947,0.39582c-1.33296,-0.21421 -2.35715,-0.73871 -2.2876,-1.17152z" stroke-width="NaN"/><path d="M10.76916,70.49244l0.25187,-1.56734l11.36842,1.82689l-0.25187,1.56734z" stroke-width="0"/></g><path d="M9.17736,67.45808c0.20973,-1.30514 1.43778,-2.19314 2.74292,-1.98341c1.30514,0.20973 2.19314,1.43778 1.98341,2.74292c-0.20973,1.30514 -1.43778,2.19314 -2.74292,1.98341c-1.30514,-0.20973 -2.19314,-1.43778 -1.9834,-2.74292z" stroke="none" stroke-width="0"/><path d="M19.53278,69.09182c0.20973,-1.30514 1.43778,-2.19314 2.74292,-1.98341c1.30514,0.20973 2.19314,1.43778 1.98341,2.74292c-0.20973,1.30514 -1.43778,2.19314 -2.74292,1.98341c-1.30514,-0.20973 -2.19314,-1.43778 -1.98341,-2.74292z" stroke="none" stroke-width="0"/><path d="M14.33277,68.27114c0.20973,-1.30514 1.43778,-2.19314 2.74292,-1.98341c1.30514,0.20973 2.19314,1.43778 1.98341,2.74292c-0.20973,1.30514 -1.43778,2.19314 -2.74292,1.98341c-1.30514,-0.20973 -2.19314,-1.43778 -1.9834,-2.74292z" stroke="none" stroke-width="0"/><path d="M10.17235,67.59474c0.12274,-0.76379 0.84142,-1.28347 1.60521,-1.16073c0.76379,0.12274 1.28347,0.84142 1.16073,1.60521c-0.12274,0.76379 -0.84142,1.28347 -1.60521,1.16073c-0.76379,-0.12274 -1.28347,-0.84142 -1.16073,-1.60522z" stroke="none" stroke-width="0"/><path d="M15.34221,68.50632c0.12274,-0.76379 0.84142,-1.28347 1.60521,-1.16073c0.76379,0.12274 1.28347,0.84142 1.16073,1.60521c-0.12274,0.76379 -0.84142,1.28347 -1.60521,1.16073c-0.76379,-0.12274 -1.28347,-0.84142 -1.16073,-1.60521z" stroke="none" stroke-width="0"/><path d="M20.59053,69.36116c0.12274,-0.76379 0.84142,-1.28347 1.60521,-1.16073c0.76379,0.12274 1.28347,0.84141 1.16073,1.60521c-0.12274,0.76379 -0.84142,1.28347 -1.60521,1.16073c-0.76379,-0.12274 -1.28347,-0.84142 -1.16073,-1.60522z" stroke="none" stroke-width="0"/><path d="M12.50289,68.62027c-0.32388,-0.05205 -0.27184,-0.37593 -0.27184,-0.37593l0.01071,-0.06663c0.11579,-0.71818 0.08773,-0.95646 -0.67967,-1.07567c0,0 -0.32388,-0.05205 -0.27184,-0.37593c0.05205,-0.32388 0.37593,-0.27184 0.37593,-0.27184c1.11311,0.18381 1.39366,0.76435 1.22334,1.82754l-0.01071,0.06663c0,0 -0.05205,0.32389 -0.37593,0.27184z" stroke="none" stroke-width="0.5"/><path d="M17.70789,69.46478c-0.32388,-0.05205 -0.27184,-0.37593 -0.27184,-0.37593l0.01071,-0.06663c0.11579,-0.71818 0.08773,-0.95646 -0.67967,-1.07567c0,0 -0.32388,-0.05205 -0.27184,-0.37593c0.05205,-0.32388 0.37593,-0.27184 0.37593,-0.27184c1.11311,0.18381 1.39366,0.76435 1.22334,1.82754l-0.01071,0.06663c0,0 -0.05205,0.32388 -0.37593,0.27184z" stroke="none" stroke-width="0.5"/><path d="M22.9214,70.4085c-0.32388,-0.05205 -0.27184,-0.37594 -0.27184,-0.37594l0.01071,-0.06663c0.11579,-0.71818 0.08773,-0.95646 -0.67967,-1.07567c0,0 -0.32389,-0.05205 -0.27184,-0.37593c0.05205,-0.32388 0.37593,-0.27184 0.37593,-0.27184c1.11311,0.18381 1.39366,0.76435 1.22334,1.82754l-0.01071,0.06663c0,0 -0.05205,0.32389 -0.37593,0.27184z" stroke="none" stroke-width="0.5"/><g stroke="none"><path d="M11.59638,63.59385c0.06955,-0.43281 0.92338,-0.65552 1.90707,-0.49744c0.9837,0.15808 1.72475,0.63709 1.6552,1.0699c-0.06955,0.43281 -0.92337,0.65552 -1.90707,0.49744c-0.9837,-0.15808 -1.72476,-0.63709 -1.6552,-1.0699z" stroke-width="NaN"/><path d="M19.77435,64.91984c0.06955,-0.43281 0.92337,-0.65552 1.90707,-0.49744c0.98369,0.15808 1.72475,0.63709 1.6552,1.06989c-0.06955,0.43281 -0.92337,0.65552 -1.90707,0.49744c-0.9837,-0.15808 -1.72475,-0.63709 -1.6552,-1.06989z" stroke-width="NaN"/><path d="M13.06847,64.63432l0.25187,-1.56734l8.38965,1.34821l-0.25187,1.56734z" stroke-width="0"/></g><path d="M12.52972,62.10923c0.23176,-0.12499 0.48388,-0.8918 0.68118,-1.15772c0.93526,-1.26054 1.86149,-1.76535 3.45814,-1.54752c0.00215,0.00029 0.00432,0.00058 0.00648,0.00086c0.01877,0.00704 0.03846,0.01244 0.0589,0.01601c0.00152,0.00025 0.00303,0.00051 0.00452,0.00076c0.49687,0.08457 0.99403,0.16752 1.49148,0.24872c0.29958,0.42588 0.25411,0.66108 -0.17969,0.97475c-0.25959,0.18771 -0.64052,-0.03531 -0.95765,-0.08054c-0.90464,-0.12902 -1.63633,-0.19074 -2.34686,0.34287c-0.6777,0.50895 -2.08013,2.89824 -2.49698,3.57504c-0.13637,0.22141 -1.00202,0.76013 -1.19051,0.25908c-0.15262,-0.12661 -0.23624,-0.32833 -0.2025,-0.53829c0.03281,-0.20419 0.16859,-0.36619 0.34581,-0.44156c0.47899,-0.61503 1.2563,-1.61397 1.32769,-1.65246z" stroke="none" stroke-width="0.5"/><path d="M23.52781,65.67011c0.1447,0.1271 0.22287,0.32348 0.19006,0.52767c-0.03374,0.20996 -0.17635,0.37533 -0.36095,0.44774c-0.33598,0.41677 -0.98927,-0.36605 -1.0494,-0.61903c-0.18381,-0.77332 -0.76706,-3.48171 -1.25118,-4.17736c-0.50757,-0.72936 -1.22176,-0.89999 -2.12128,-1.06089c-0.31534,-0.05641 -0.74696,0.03603 -0.93467,-0.22356c-0.29335,-0.40568 -0.28569,-0.63977 0.05837,-0.92243c0.79963,0.13119 1.6,0.2579 2.40111,0.37966c0.01357,0.00407 0.02708,0.00804 0.04052,0.01189c1.04609,0.38993 1.5987,1.12543 2.00015,2.33822c0.10405,0.31435 0.10323,1.12154 0.28416,1.31285c0.05573,0.05893 0.48093,1.25111 0.74312,1.98524z" data-paper-data="{&quot;index&quot;:null}" stroke="none" stroke-width="0.5"/><path d="M21.58321,61.93651c-0.07656,0.10657 -0.18313,0.03001 -0.18313,0.03001l-0.04306,-0.0315c-0.6754,-0.40704 -1.34195,-0.6253 -2.03855,-0.96169c-0.40842,-0.07509 -0.82516,-0.12927 -1.24737,-0.19712c-1.11048,-0.17845 -2.14318,-0.11553 -3.25169,-0.05974c0,0 -0.13107,0.00632 -0.13738,-0.12475c-0.00632,-0.13106 0.12475,-0.13738 0.12475,-0.13738c0.10346,-0.00475 0.20629,-0.00962 0.30859,-0.01442c-0.01779,-0.09375 0.07685,-0.137 0.07685,-0.137c0.88307,-0.40055 1.96294,0.02107 2.87661,0.09082c1.13603,0.18175 2.31534,0.49064 3.42875,0.78436l0.01558,0.00184c0,0 0.12956,0.02082 0.10873,0.15037c-0.02082,0.12956 -0.15038,0.10873 -0.15038,0.10873l-0.04116,-0.00727c-0.06255,-0.01665 -0.12532,-0.03334 -0.18829,-0.05003c0.01646,0.02997 0.02334,0.07126 -0.00582,0.12243c-0.01059,0.01857 -0.02248,0.03239 -0.03496,0.04252c0.09683,0.05136 0.19367,0.10548 0.29062,0.16319l0.06129,0.04348c0,0 0.10657,0.07656 0.03001,0.18313zM15.73662,60.4132c0.21009,-0.0076 0.41898,-0.01305 0.62773,-0.0145c-0.21435,-0.01737 -0.42542,-0.01709 -0.62773,0.0145z" stroke="none" stroke-width="0.5"/><path d="M18.76997,63.14122c0.61507,-0.21844 0.29696,-0.77321 0.04845,-1.21268c-0.56069,-0.42783 -1.62606,-0.64437 -2.32015,-0.32461c-0.33994,0.15661 -0.61471,0.98294 -0.51242,1.32466c0.07439,0.24851 0.38732,0.36935 0.58663,0.48262c0,0 0.16158,0.09211 0.14311,0.25771c0.02039,0.07071 0.01013,0.13453 0.01013,0.13453c-0.01135,0.07064 -0.17602,0.77635 -0.11053,0.8003c0.07554,0.02762 0.18641,0.09552 0.23881,0.0345c0.07049,-0.08206 0.01942,-0.26503 0.12147,-0.30095c0.16671,-0.05868 0.35711,0.01846 0.52511,0.07337c0.11604,0.03792 0.1938,0.32025 0.28105,0.23485c0.086,-0.08417 0.08443,-0.28514 0.2041,-0.29777c0.17847,-0.01883 0.4988,0.40275 0.48978,0.22351c-0.01908,-0.37905 -0.13885,-0.69927 -0.07632,-1.10528l0.00559,-0.03477c0,0 0.03678,-0.22889 0.25301,-0.23242zM15.45504,63.07108c-0.1923,-0.59898 0.24478,-1.68932 0.80019,-1.96009c0.92203,-0.44952 2.24541,-0.13205 2.97644,0.4552c0.46377,0.7569 0.76374,1.68573 -0.26818,2.08945l-0.02953,0.0161c0.00263,0.33097 0.1583,0.87569 0.06075,1.07983c-0.18643,0.39013 -0.55274,0.49729 -0.91629,0.31658c0.00037,0.02748 -0.00663,0.04928 -0.03156,0.05874c-0.16097,0.06108 -0.34986,0.01542 -0.51556,-0.03135c-0.12886,-0.03637 -0.24582,-0.40224 -0.29149,-0.27638c-0.19432,0.53557 -1.02506,0.43469 -1.18946,-0.17341c-0.05215,-0.1929 0.06083,-0.58487 0.11441,-0.83438c-0.30926,-0.17774 -0.58771,-0.36029 -0.7097,-0.7403zM18.0631,64.95075c0.00863,-0.04818 0.02106,-0.08688 0.00814,-0.0601c-0.00824,0.01707 -0.00969,0.03791 -0.00814,0.0601z" stroke="none" stroke-width="0.5"/><path d="M17.28136,62.94366c0.01389,0.0626 0.00476,0.13881 -0.06164,0.22117c-0.17247,0.21394 -0.38641,0.04147 -0.38641,0.04147c-0.03367,-0.02721 -0.08475,-0.06696 -0.14209,-0.1133c-0.01046,-0.00717 -0.01998,-0.01501 -0.02866,-0.0233c-0.15209,-0.12439 -0.33356,-0.28594 -0.3545,-0.38315c-0.08582,-0.39838 0.12308,-0.83978 0.61331,-0.77074c0.53349,0.07514 0.64015,0.73883 0.36,1.02783z" stroke="none" stroke-width="0.5"/><path d="M18.34727,61.97415c0.48718,0.08802 0.54727,0.57264 0.34095,0.92409c-0.05035,0.08575 -0.2733,0.18231 -0.4567,0.25279c-0.01084,0.00516 -0.02234,0.00961 -0.03451,0.01314c-0.06897,0.02604 -0.12993,0.04778 -0.17043,0.06308c0,0 -0.25721,0.09676 -0.35396,-0.16045c-0.03725,-0.09902 -0.02204,-0.17426 0.01076,-0.22935c-0.17551,-0.36222 0.13373,-0.95908 0.6639,-0.86329z" data-paper-data="{&quot;index&quot;:null}" stroke="none" stroke-width="0.5"/><path d="M9.08834,65.3107c-0.08763,0.82285 -0.16662,0.8202 -0.16662,0.8202l-0.10111,-0.00338c-0.46628,-0.02263 -0.92376,-0.14837 -1.39187,-0.16403c0,0 -0.07899,-0.00264 0.00865,-0.82549c0.08763,-0.82285 0.16662,-0.8202 0.16662,-0.8202c0.46799,0.01566 0.92417,0.15612 1.39187,0.16402l0.10111,0.00338c0,0 0.07899,0.00265 -0.00865,0.8255z" stroke="none" stroke-width="0.5"/><path d="M27.14462,68.48528c-0.11752,0.82082 -0.19543,0.81155 -0.19543,0.81155l-0.09974,-0.01186c-0.4597,-0.06179 -0.90683,-0.2266 -1.36859,-0.28153c0,0 -0.07792,-0.00926 0.0396,-0.83008c0.11752,-0.82082 0.19544,-0.81155 0.19544,-0.81155c0.46165,0.05491 0.90694,0.23445 1.36859,0.28153l0.09974,0.01186c0,0 0.07792,0.00926 -0.0396,0.83008z" stroke="none" stroke-width="0.5"/><path d="M8.84876,71.40527l0.15582,-0.96963l15.06157,2.42037l-0.15582,0.96963z" stroke="none" stroke-width="0"/><g data-paper-data="{&quot;index&quot;:null}" stroke="#000000" stroke-width="0"><path d="M14.59102,58.71729c0.36647,-0.12739 0.59906,-0.12225 0.90291,0.14225c0.06998,0.06092 0.16726,0.10463 0.21251,0.19091c0.02095,0.03996 0.03058,0.07751 0.03063,0.11283c0.04446,-0.02761 0.08865,-0.0436 0.12784,-0.02917c0.29948,0.11032 -0.04429,0.35491 -0.19027,0.42229c-0.81787,0.37751 -1.00783,0.42501 -1.5559,0.6661c-0.10117,0.04451 -0.21217,0.05627 -0.29023,0.13451c-0.03349,0.03357 -0.19173,0.17681 -0.25965,0.16029c-0.055,0.0189 -0.1084,0.00404 -0.1325,-0.0808c-0.00269,-0.00432 -0.00514,-0.00884 -0.00731,-0.01355c-0.00893,-0.01936 -0.01244,-0.04001 -0.01112,-0.06054c-0.04761,-0.29175 -0.01303,-0.59613 0.02216,-0.89541c0.00523,-0.04443 -0.016,-0.24844 0.01717,-0.30917c0.07137,-0.13065 0.24895,-0.19212 0.36678,-0.27242c0.10485,-0.07146 0.37211,-0.26817 0.51653,-0.2262c0.06096,0.01772 0.10621,0.05684 0.12438,0.10198c0.04438,-0.01572 0.08683,-0.03027 0.12608,-0.04391z"/><path d="M16.02176,59.15485c0.01647,0.01233 0.02992,0.02837 0.03886,0.04774c0.00218,0.00472 0.00403,0.00951 0.00557,0.01436c0.06635,0.0995 -0.00017,0.15653 -0.08607,0.17711c-0.06725,0.01611 -0.14639,0.00987 -0.18295,-0.01583c-0.28196,-0.1982 -0.50311,-0.55185 -0.8444,-0.68129c-0.03327,-0.01262 -0.17425,0.06164 -0.1837,0.06551c-0.15915,0.06509 -0.25267,0.10818 -0.45846,0.1946c-0.16465,0.06915 -0.24299,-0.07294 -0.18354,-0.20498c0.06175,-0.13714 0.38483,-0.21291 0.50723,-0.24634c0.13756,-0.03758 0.29954,-0.13284 0.44526,-0.1024c0.06774,0.01415 0.20921,0.16265 0.24642,0.1875c0.25058,0.16737 0.50464,0.33853 0.69579,0.56402z" data-paper-data="{&quot;index&quot;:null}"/></g><g data-paper-data="{&quot;index&quot;:null}" stroke="#000000" stroke-width="0"><path d="M21.92136,59.87506c0.033,0.02526 0.06875,0.05237 0.10597,0.0812c0.03139,-0.03718 0.08662,-0.06015 0.15007,-0.05788c0.1503,0.00538 0.34247,0.27593 0.41965,0.37664c0.08674,0.11318 0.23612,0.22719 0.26297,0.37363c0.01248,0.06806 -0.0716,0.25514 -0.08056,0.29898c-0.06035,0.29524 -0.12288,0.59513 -0.2595,0.85727c-0.00519,0.01991 -0.01498,0.03842 -0.02953,0.054c-0.00354,0.00379 -0.00728,0.00732 -0.01119,0.01058c-0.04946,0.07302 -0.10482,0.07041 -0.15114,0.03522c-0.06967,-0.00559 -0.17507,-0.19119 -0.19636,-0.23356c-0.04962,-0.09876 -0.15134,-0.14471 -0.23347,-0.21867c-0.44494,-0.40066 -0.61045,-0.5053 -1.26886,-1.12004c-0.11753,-0.10973 -0.36735,-0.4497 -0.04839,-0.46064c0.04173,-0.00143 0.07869,0.0276 0.11226,0.06776c0.01112,-0.03353 0.03202,-0.06617 0.06444,-0.09755c0.07,-0.06776 0.17608,-0.07879 0.26162,-0.11471c0.37142,-0.15598 0.59391,-0.088 0.90202,0.1478z"/><path d="M20.42557,59.84235c0.25217,-0.15425 0.54707,-0.23719 0.83747,-0.31763c0.04312,-0.01194 0.224,-0.10864 0.29276,-0.10086c0.14793,0.01675 0.2719,0.15796 0.39077,0.23675c0.10576,0.07011 0.38884,0.24328 0.40451,0.39286c0.01509,0.14402 -0.10382,0.25441 -0.23852,0.13716c-0.16835,-0.14654 -0.24366,-0.21677 -0.37441,-0.32844c-0.00776,-0.00663 -0.11838,-0.12133 -0.15392,-0.11977c-0.36467,0.01599 -0.68549,0.28255 -1.01534,0.38243c-0.04277,0.01295 -0.11987,-0.00592 -0.17869,-0.04229c-0.07513,-0.04646 -0.12043,-0.12146 -0.02625,-0.19516c0.00298,-0.00412 0.00625,-0.00809 0.00979,-0.01189c0.01455,-0.01558 0.03235,-0.02661 0.05185,-0.03316z" data-paper-data="{&quot;index&quot;:null}"/></g></g></g><g fill="#188f0f"><g stroke="none" stroke-width="0"><path d="M40.9166,63.31285l-8.37479,-0.96903l0.13364,-1.15496l8.37479,0.96903z"/><path d="M41.03436,62.49002l-8.37479,-0.96903l0.0385,-0.33271l8.37479,0.96903z"/><path d="M40.94335,63.4592l-4.64759,-0.53777l0.16257,-1.40501l4.64759,0.53776z"/><path d="M41.03152,62.70987l-4.64759,-0.53776l0.07364,-0.63645l4.64759,0.53777z"/></g><g><g stroke="#000000" stroke-width="0"><path d="M47.45246,60.9475c1.54975,0.40765 2.33521,0.96119 2.76736,2.56794c0.09953,0.37005 0.33228,0.74405 0.28861,1.14405c-0.02023,0.18526 -0.07375,0.33615 -0.15497,0.45736c0.21602,0.00779 0.40435,0.05479 0.50541,0.19455c0.7724,1.06818 -0.96952,1.11455 -1.6252,1.00918c-3.67336,-0.59031 -4.434,-0.86514 -6.86819,-1.30145c-0.44935,-0.08054 -0.85695,-0.29596 -1.30481,-0.20759c-0.19214,0.03791 -1.06464,0.16434 -1.25937,-0.04878c-0.2321,-0.06194 -0.38086,-0.23593 -0.26801,-0.58225c0.00073,-0.02101 0.00277,-0.04214 0.00617,-0.06332c0.01397,-0.08695 0.04955,-0.16578 0.10135,-0.23315c0.50899,-1.10979 1.32881,-2.07351 2.13897,-3.01833c0.12029,-0.14029 0.51754,-0.8885 0.77118,-1.02024c0.54568,-0.28342 1.29603,-0.08498 1.88498,-0.08877c0.52407,-0.00337 1.89342,-0.06194 2.29178,0.41469c0.16817,0.2012 0.23314,0.43959 0.1914,0.63616c0.18837,0.04837 0.36738,0.09631 0.53334,0.13996z"/><path d="M51.34872,65.74382c0.02809,0.08021 0.03717,0.16622 0.0232,0.25317c-0.00341,0.02119 -0.0081,0.04189 -0.01398,0.06206c-0.0018,0.49397 -0.36123,0.5362 -0.70311,0.40881c-0.26765,-0.09973 -0.52455,-0.30344 -0.59067,-0.47577c-0.50988,-1.32905 -0.45316,-3.05087 -1.32487,-4.28092c-0.08496,-0.11989 -0.73933,-0.19018 -0.78065,-0.19871c-0.69552,-0.14355 -1.1154,-0.21132 -2.01995,-0.38921c-0.72375,-0.14233 -0.66491,-0.80989 -0.15688,-1.12553c0.52764,-0.32782 1.80969,0.15682 2.30632,0.32422c0.55811,0.18812 1.33286,0.23476 1.76226,0.67488c0.1996,0.20458 0.34243,1.03958 0.41271,1.21049c0.47335,1.15108 0.94994,2.32314 1.08562,3.53651z" data-paper-data="{&quot;index&quot;:null}"/></g><g stroke="none"><path d="M35.36647,67.24038c0.30259,-1.88292 1.88283,-3.1948 3.52957,-2.93017c1.64674,0.26463 2.7364,2.00557 2.43382,3.88849c-0.30259,1.88292 -1.88282,3.1948 -3.52957,2.93017c-1.64675,-0.26463 -2.7364,-2.00556 -2.43382,-3.88848z" stroke-width="NaN"/><path d="M49.05695,69.45884c0.30258,-1.88292 1.88282,-3.1948 3.52957,-2.93017c1.64675,0.26463 2.73641,2.00556 2.43382,3.88848c-0.30258,1.88292 -1.88282,3.1948 -3.52956,2.93017c-1.64674,-0.26463 -2.73641,-2.00557 -2.43382,-3.88848z" stroke-width="NaN"/><path d="M37.49374,71.07961l1.09575,-6.81865l14.04462,2.25695l-1.09575,6.81865z" stroke-width="0"/></g><g stroke="none"><path d="M36.22422,67.37406c0.23821,-1.48231 1.63296,-2.49085 3.11526,-2.25265c1.4823,0.2382 2.49086,1.63295 2.25265,3.11526c-0.23821,1.4823 -1.63296,2.49085 -3.11526,2.25265c-1.4823,-0.2382 -2.49085,-1.63295 -2.25265,-3.11526z" stroke-width="NaN"/><path d="M48.54388,69.39424c0.2382,-1.48231 1.63295,-2.49085 3.11526,-2.25265c1.48231,0.2382 2.49085,1.63295 2.25265,3.11526c-0.2382,1.48231 -1.63295,2.49085 -3.11526,2.25265c-1.4823,-0.2382 -2.49085,-1.63296 -2.25265,-3.11526z" stroke-width="NaN"/><path d="M38.20094,70.44498l0.86261,-5.3679l12.64217,2.03158l-0.86262,5.3679z" stroke-width="0"/></g><g stroke="none"><path d="M36.88685,69.46843c0.06955,-0.43281 1.20652,-0.61003 2.53947,-0.39582c1.33296,0.21421 2.35715,0.73871 2.2876,1.17152c-0.06955,0.43281 -1.2065,0.61003 -2.53947,0.39582c-1.33296,-0.21421 -2.35715,-0.73871 -2.2876,-1.17152z" stroke-width="NaN"/><path d="M47.96912,71.26113c0.06955,-0.43281 1.20651,-0.61002 2.53947,-0.39581c1.33295,0.21421 2.35715,0.73871 2.28759,1.17152c-0.06955,0.43281 -1.20651,0.61003 -2.53947,0.39582c-1.33296,-0.21421 -2.35715,-0.73871 -2.2876,-1.17153z" stroke-width="NaN"/><path d="M38.92636,70.60008l0.25187,-1.56734l11.36842,1.82689l-0.25187,1.56734z" stroke-width="0"/></g><path d="M37.33458,67.56571c0.20973,-1.30514 1.43778,-2.19315 2.74292,-1.98341c1.30514,0.20973 2.19315,1.43778 1.98341,2.74292c-0.20974,1.30514 -1.43778,2.19314 -2.74292,1.98341c-1.30514,-0.20973 -2.19314,-1.43778 -1.9834,-2.74292z" stroke="none" stroke-width="0"/><path d="M47.69001,69.19945c0.20973,-1.30514 1.43778,-2.19315 2.74292,-1.98341c1.30514,0.20973 2.19315,1.43778 1.98341,2.74292c-0.20973,1.30514 -1.43778,2.19314 -2.74292,1.98341c-1.30514,-0.20973 -2.19314,-1.43778 -1.98341,-2.74291z" stroke="none" stroke-width="0"/><path d="M42.49002,68.37878c0.20973,-1.30514 1.43778,-2.19314 2.74292,-1.98341c1.30514,0.20973 2.19314,1.43778 1.98341,2.74292c-0.20974,1.30514 -1.43778,2.19314 -2.74292,1.98341c-1.30514,-0.20973 -2.19314,-1.43778 -1.9834,-2.74292z" stroke="none" stroke-width="0"/><path d="M38.32956,67.70237c0.12274,-0.7638 0.84142,-1.28346 1.60522,-1.16072c0.76379,0.12274 1.28346,0.84141 1.16073,1.60521c-0.12274,0.7638 -0.84142,1.28347 -1.60521,1.16073c-0.7638,-0.12274 -1.28347,-0.84142 -1.16074,-1.60522z" stroke="none" stroke-width="0"/><path d="M43.49942,68.61395c0.12274,-0.7638 0.84141,-1.28347 1.60521,-1.16073c0.76379,0.12274 1.28346,0.84142 1.16073,1.60521c-0.12274,0.7638 -0.84142,1.28347 -1.60521,1.16073c-0.7638,-0.12274 -1.28347,-0.84141 -1.16073,-1.60521z" stroke="none" stroke-width="0"/><path d="M48.74775,69.46879c0.12274,-0.7638 0.84141,-1.28347 1.60521,-1.16073c0.7638,0.12274 1.28347,0.84141 1.16073,1.60521c-0.12274,0.7638 -0.84142,1.28347 -1.60522,1.16073c-0.7638,-0.12274 -1.28346,-0.84141 -1.16073,-1.60522z" stroke="none" stroke-width="0"/><path d="M40.6601,68.7279c-0.32389,-0.05205 -0.27184,-0.37593 -0.27184,-0.37593l0.01071,-0.06663c0.1158,-0.71819 0.08773,-0.95647 -0.67967,-1.07567c0,0 -0.32388,-0.05205 -0.27184,-0.37593c0.05205,-0.32389 0.37593,-0.27184 0.37593,-0.27184c1.11311,0.18381 1.39367,0.76435 1.22335,1.82754l-0.01071,0.06663c0,0 -0.05205,0.32389 -0.37593,0.27184z" stroke="none" stroke-width="0.5"/><path d="M45.86511,69.57241c-0.32389,-0.05205 -0.27184,-0.37593 -0.27184,-0.37593l0.01071,-0.06663c0.11579,-0.71818 0.08773,-0.95646 -0.67966,-1.07567c0,0 -0.32389,-0.05205 -0.27184,-0.37593c0.05205,-0.32389 0.37593,-0.27184 0.37593,-0.27184c1.11311,0.18381 1.39366,0.76435 1.22334,1.82754l-0.01071,0.06663c0,0 -0.05205,0.32389 -0.37593,0.27184z" stroke="none" stroke-width="0.5"/><path d="M51.07862,70.51613c-0.32389,-0.05205 -0.27184,-0.37593 -0.27184,-0.37593l0.01071,-0.06663c0.1158,-0.71818 0.08773,-0.95646 -0.67966,-1.07567c0,0 -0.32389,-0.05205 -0.27184,-0.37594c0.05205,-0.32389 0.37594,-0.27183 0.37594,-0.27183c1.11311,0.18381 1.39366,0.76435 1.22334,1.82754l-0.01071,0.06663c0,0 -0.05205,0.32389 -0.37593,0.27184z" stroke="none" stroke-width="0.5"/><g stroke="none"><path d="M39.75359,63.70148c0.06955,-0.43281 0.92337,-0.65552 1.90707,-0.49744c0.9837,0.15807 1.72476,0.63708 1.65521,1.0699c-0.06955,0.43281 -0.92338,0.65552 -1.90707,0.49744c-0.98369,-0.15807 -1.72476,-0.63708 -1.6552,-1.0699z" stroke-width="NaN"/><path d="M47.93155,65.02748c0.06955,-0.43281 0.92338,-0.65552 1.90707,-0.49744c0.98369,0.15807 1.72476,0.63709 1.65521,1.0699c-0.06955,0.43281 -0.92338,0.65551 -1.90707,0.49744c-0.98369,-0.15807 -1.72476,-0.63708 -1.65521,-1.06989z" stroke-width="NaN"/><path d="M41.22569,64.74195l0.25187,-1.56734l8.38965,1.34821l-0.25187,1.56734z" stroke-width="0"/></g><path d="M40.68692,62.21687c0.23175,-0.12499 0.48388,-0.8918 0.68118,-1.15772c0.93526,-1.26054 1.86149,-1.76534 3.45813,-1.54752c0.00215,0.00029 0.00432,0.00058 0.00648,0.00086c0.01877,0.00704 0.03845,0.01243 0.0589,0.01601c0.00152,0.00025 0.00303,0.00051 0.00452,0.00076c0.49687,0.08458 0.99403,0.16752 1.49147,0.24872c0.29959,0.42588 0.25411,0.66107 -0.17969,0.97475c-0.25959,0.18771 -0.64052,-0.0353 -0.95765,-0.08053c-0.90464,-0.12902 -1.63633,-0.19074 -2.34686,0.34287c-0.67769,0.50894 -2.08013,2.89824 -2.49698,3.57504c-0.13637,0.22141 -1.00203,0.76013 -1.19052,0.25908c-0.15262,-0.12661 -0.23624,-0.32832 -0.20249,-0.53828c0.03281,-0.20419 0.16859,-0.3662 0.34582,-0.44156c0.47899,-0.61503 1.2563,-1.61396 1.32769,-1.65246z" stroke="none" stroke-width="0.5"/><path d="M51.68501,65.77775c0.14469,0.12709 0.22287,0.32348 0.19006,0.52767c-0.03374,0.20996 -0.17635,0.37533 -0.36096,0.44774c-0.33597,0.41677 -0.98926,-0.36605 -1.04939,-0.61903c-0.18382,-0.77332 -0.76707,-3.48171 -1.25119,-4.17736c-0.50758,-0.72935 -1.22176,-0.89999 -2.12127,-1.0609c-0.31534,-0.05641 -0.74697,0.03604 -0.93467,-0.22355c-0.29335,-0.40568 -0.28568,-0.63977 0.05837,-0.92244c0.79963,0.13119 1.6,0.2579 2.40111,0.37965c0.01356,0.00407 0.02707,0.00804 0.04052,0.0119c1.04609,0.38993 1.5987,1.12542 2.00015,2.33822c0.10405,0.31435 0.10323,1.12154 0.28416,1.31285c0.05573,0.05893 0.48093,1.25111 0.74311,1.98524z" data-paper-data="{&quot;index&quot;:null}" stroke="none" stroke-width="0.5"/><path d="M49.74042,62.04414c-0.07656,0.10657 -0.18313,0.03001 -0.18313,0.03001l-0.04306,-0.0315c-0.6754,-0.40704 -1.34195,-0.6253 -2.03855,-0.96169c-0.40842,-0.07509 -0.82516,-0.12927 -1.24737,-0.19712c-1.11048,-0.17845 -2.14318,-0.11553 -3.25168,-0.05974c0,0 -0.13106,0.00632 -0.13738,-0.12475c-0.00632,-0.13106 0.12474,-0.13738 0.12474,-0.13738c0.10346,-0.00475 0.20629,-0.00961 0.30859,-0.01441c-0.01779,-0.09374 0.07685,-0.13701 0.07685,-0.13701c0.88307,-0.40054 1.96294,0.02107 2.87662,0.09082c1.13603,0.18175 2.31534,0.49065 3.42875,0.78436l0.01558,0.00184c0,0 0.12956,0.02083 0.10874,0.15038c-0.02082,0.12955 -0.15038,0.10873 -0.15038,0.10873l-0.04115,-0.00728c-0.06255,-0.01665 -0.12532,-0.03333 -0.18829,-0.05003c0.01646,0.02997 0.02335,0.07126 -0.00582,0.12243c-0.01058,0.01857 -0.02248,0.03239 -0.03496,0.04252c0.09682,0.05137 0.19367,0.10548 0.29062,0.16319l0.0613,0.04348c0,0 0.10657,0.07656 0.03001,0.18313zM43.89385,60.52083c0.2101,-0.0076 0.41897,-0.01305 0.62773,-0.0145c-0.21435,-0.01736 -0.42542,-0.01709 -0.62773,0.0145z" stroke="none" stroke-width="0.5"/><path d="M46.92718,63.24886c0.61507,-0.21844 0.29696,-0.77321 0.04845,-1.21268c-0.56069,-0.42783 -1.62605,-0.64437 -2.32015,-0.32461c-0.33995,0.15661 -0.61471,0.98294 -0.51241,1.32466c0.07439,0.24851 0.38732,0.36935 0.58663,0.48262c0,0 0.16159,0.09211 0.14311,0.25771c0.02039,0.07072 0.01013,0.13453 0.01013,0.13453c-0.01136,0.07063 -0.17602,0.77634 -0.11053,0.80029c0.07554,0.02763 0.18641,0.09552 0.23881,0.0345c0.07049,-0.08207 0.01942,-0.26503 0.12147,-0.30096c0.16671,-0.05867 0.35711,0.01846 0.5251,0.07336c0.11604,0.03793 0.19381,0.32025 0.28105,0.23485c0.08599,-0.08417 0.08443,-0.28514 0.2041,-0.29777c0.17847,-0.01883 0.49881,0.40275 0.48978,0.22352c-0.01908,-0.37905 -0.13885,-0.69928 -0.07632,-1.10528l0.00558,-0.03477c0,0 0.03678,-0.2289 0.25301,-0.23243zM43.61224,63.17872c-0.1923,-0.59898 0.24478,-1.68933 0.80019,-1.9601c0.92203,-0.44952 2.24541,-0.13204 2.97643,0.4552c0.46377,0.7569 0.76374,1.68573 -0.26817,2.08945l-0.02953,0.0161c0.00262,0.33097 0.1583,0.87569 0.06076,1.07983c-0.18643,0.39013 -0.55275,0.49729 -0.9163,0.31658c0.00037,0.02748 -0.00663,0.04928 -0.03156,0.05874c-0.16097,0.06109 -0.34987,0.01542 -0.51556,-0.03135c-0.12886,-0.03637 -0.24583,-0.40224 -0.29149,-0.27637c-0.19432,0.53557 -1.02505,0.43468 -1.18946,-0.17342c-0.05215,-0.1929 0.06083,-0.58487 0.11441,-0.83437c-0.30926,-0.17775 -0.5877,-0.36029 -0.7097,-0.7403zM46.22032,65.05839c0.00863,-0.04818 0.02106,-0.08687 0.00814,-0.0601c-0.00824,0.01708 -0.00968,0.0379 -0.00814,0.0601z" stroke="none" stroke-width="0.5"/><path d="M45.43858,63.0513c0.01389,0.0626 0.00476,0.13882 -0.06164,0.22118c-0.17247,0.21394 -0.38641,0.04147 -0.38641,0.04147c-0.03367,-0.02721 -0.08475,-0.06696 -0.14209,-0.1133c-0.01045,-0.00718 -0.01998,-0.01501 -0.02866,-0.0233c-0.15208,-0.1244 -0.33356,-0.28593 -0.3545,-0.38315c-0.08582,-0.39839 0.12308,-0.83978 0.61331,-0.77074c0.53348,0.07514 0.64015,0.73883 0.36,1.02783z" stroke="none" stroke-width="0.5"/><path d="M46.50448,62.08179c0.48718,0.08803 0.54727,0.57264 0.34095,0.92408c-0.05035,0.08576 -0.27329,0.18232 -0.4567,0.2528c-0.01084,0.00516 -0.02234,0.00961 -0.03451,0.01314c-0.06898,0.02604 -0.12993,0.04778 -0.17043,0.06307c0,0 -0.25721,0.09675 -0.35396,-0.16045c-0.03725,-0.09902 -0.02204,-0.17425 0.01076,-0.22935c-0.17551,-0.36222 0.13373,-0.95908 0.6639,-0.86329z" data-paper-data="{&quot;index&quot;:null}" stroke="none" stroke-width="0.5"/><path d="M37.24551,65.41833c-0.08763,0.82285 -0.16662,0.82021 -0.16662,0.82021l-0.10112,-0.00339c-0.46628,-0.02263 -0.92376,-0.14836 -1.39187,-0.16402c0,0 -0.07899,-0.00265 0.00865,-0.8255c0.08763,-0.82285 0.16662,-0.82021 0.16662,-0.82021c0.46798,0.01566 0.92417,0.15613 1.39187,0.16403l0.10111,0.00338c0,0 0.07899,0.00265 -0.00865,0.8255z" stroke="none" stroke-width="0.5"/><path d="M55.30185,68.59291c-0.11752,0.82081 -0.19544,0.81155 -0.19544,0.81155l-0.09974,-0.01187c-0.4597,-0.06179 -0.90682,-0.2266 -1.36859,-0.28153c0,0 -0.07792,-0.00926 0.03959,-0.83008c0.11752,-0.82081 0.19544,-0.81155 0.19544,-0.81155c0.46165,0.05491 0.90694,0.23445 1.36859,0.28153l0.09974,0.01187c0,0 0.07792,0.00926 -0.0396,0.83008z" stroke="none" stroke-width="0.5"/><path d="M37.00594,71.5129l0.15582,-0.96963l15.06158,2.42038l-0.15582,0.96963z" stroke="none" stroke-width="0"/><g data-paper-data="{&quot;index&quot;:null}" stroke="#000000" stroke-width="0"><path d="M42.74826,58.82492c0.36647,-0.12739 0.59906,-0.12225 0.90291,0.14225c0.06998,0.06092 0.16726,0.10464 0.21251,0.19091c0.02096,0.03996 0.03058,0.07751 0.03063,0.11283c0.04446,-0.02761 0.08865,-0.0436 0.12783,-0.02917c0.29948,0.11033 -0.04428,0.35491 -0.19027,0.4223c-0.81786,0.3775 -1.00783,0.425 -1.5559,0.6661c-0.10117,0.04451 -0.21216,0.05627 -0.29023,0.13451c-0.03348,0.03356 -0.19173,0.17681 -0.25964,0.16029c-0.05501,0.0189 -0.10841,0.00404 -0.1325,-0.0808c-0.00269,-0.00432 -0.00513,-0.00884 -0.00731,-0.01355c-0.00894,-0.01936 -0.01244,-0.04001 -0.01112,-0.06054c-0.04761,-0.29175 -0.01303,-0.59613 0.02215,-0.8954c0.00523,-0.04443 -0.016,-0.24844 0.01717,-0.30917c0.07137,-0.13065 0.24895,-0.19212 0.36679,-0.27242c0.10486,-0.07146 0.37211,-0.26817 0.51653,-0.2262c0.06096,0.01772 0.10621,0.05684 0.12438,0.10198c0.04438,-0.01572 0.08683,-0.03027 0.12608,-0.04391z"/><path d="M44.17897,59.26248c0.01647,0.01233 0.02992,0.02837 0.03886,0.04774c0.00218,0.00472 0.00403,0.00951 0.00557,0.01436c0.06636,0.0995 -0.00016,0.15653 -0.08607,0.17711c-0.06725,0.01611 -0.14639,0.00987 -0.18295,-0.01583c-0.28196,-0.19821 -0.50311,-0.55185 -0.84441,-0.68129c-0.03327,-0.01261 -0.17424,0.06164 -0.1837,0.06551c-0.15915,0.06509 -0.25267,0.10819 -0.45846,0.1946c-0.16466,0.06915 -0.243,-0.07294 -0.18354,-0.20499c0.06175,-0.13714 0.38483,-0.2129 0.50723,-0.24634c0.13756,-0.03758 0.29954,-0.13284 0.44526,-0.1024c0.06773,0.01415 0.2092,0.16265 0.24641,0.1875c0.25058,0.16737 0.50465,0.33853 0.6958,0.56403z" data-paper-data="{&quot;index&quot;:null}"/></g><g data-paper-data="{&quot;index&quot;:null}" stroke="#000000" stroke-width="0"><path d="M50.07858,59.98269c0.03299,0.02526 0.06875,0.05237 0.10597,0.0812c0.0314,-0.03718 0.08662,-0.06015 0.15007,-0.05788c0.1503,0.00539 0.34247,0.27593 0.41965,0.37664c0.08674,0.11318 0.23612,0.22719 0.26297,0.37363c0.01247,0.06807 -0.07161,0.25514 -0.08056,0.29897c-0.06035,0.29524 -0.12288,0.59513 -0.2595,0.85727c-0.00518,0.01991 -0.01497,0.03842 -0.02952,0.054c-0.00355,0.00379 -0.00728,0.00732 -0.0112,0.01058c-0.04946,0.07302 -0.10483,0.07041 -0.15114,0.03522c-0.06968,-0.00559 -0.17507,-0.19119 -0.19635,-0.23356c-0.04962,-0.09876 -0.15134,-0.14471 -0.23347,-0.21867c-0.44494,-0.40067 -0.61045,-0.5053 -1.26886,-1.12004c-0.11753,-0.10973 -0.36735,-0.4497 -0.04839,-0.46064c0.04173,-0.00143 0.07869,0.02761 0.11226,0.06776c0.01112,-0.03353 0.03202,-0.06618 0.06444,-0.09755c0.07,-0.06776 0.17608,-0.07879 0.26162,-0.11472c0.37142,-0.15599 0.59391,-0.08799 0.90202,0.1478z"/><path d="M48.58279,59.94998c0.25217,-0.15426 0.54706,-0.23719 0.83746,-0.31763c0.04312,-0.01194 0.22401,-0.10864 0.29276,-0.10085c0.14793,0.01675 0.2719,0.15797 0.39077,0.23674c0.10576,0.07011 0.38884,0.24328 0.40451,0.39285c0.01509,0.14402 -0.10382,0.25441 -0.23852,0.13716c-0.16835,-0.14654 -0.24366,-0.21677 -0.37441,-0.32844c-0.00777,-0.00663 -0.11838,-0.12133 -0.15393,-0.11977c-0.36467,0.01599 -0.68548,0.28255 -1.01534,0.38243c-0.04277,0.01296 -0.11988,-0.00592 -0.1787,-0.04228c-0.07513,-0.04645 -0.12044,-0.12146 -0.02625,-0.19516c0.00298,-0.00412 0.00625,-0.0081 0.00979,-0.01189c0.01455,-0.01559 0.03235,-0.02661 0.05185,-0.03316z" data-paper-data="{&quot;index&quot;:null}"/></g></g></g><g fill="#188f0f"><g stroke="none" stroke-width="0"><path d="M68.42148,63.42048l-8.37479,-0.96903l0.13364,-1.15496l8.37479,0.96903z"/><path d="M68.53923,62.59765l-8.37479,-0.96903l0.0385,-0.33271l8.37478,0.96903z"/><path d="M68.44821,63.56683l-4.64759,-0.53777l0.16257,-1.40501l4.64759,0.53776z"/><path d="M68.53641,62.8175l-4.64758,-0.53777l0.07364,-0.63645l4.64759,0.53777z"/></g><g><g stroke="#000000" stroke-width="0"><path d="M74.95734,61.05513c1.54975,0.40765 2.33521,0.96119 2.76736,2.56794c0.09953,0.37005 0.33228,0.74405 0.28861,1.14405c-0.02023,0.18526 -0.07375,0.33615 -0.15497,0.45736c0.21602,0.00779 0.40435,0.05479 0.50541,0.19455c0.7724,1.06818 -0.96952,1.11455 -1.6252,1.00918c-3.67336,-0.59031 -4.434,-0.86514 -6.86819,-1.30146c-0.44934,-0.08054 -0.85694,-0.29595 -1.30481,-0.20759c-0.19214,0.03791 -1.06464,0.16434 -1.25937,-0.04878c-0.2321,-0.06194 -0.38086,-0.23593 -0.26801,-0.58225c0.00073,-0.02101 0.00277,-0.04214 0.00617,-0.06332c0.01398,-0.08695 0.04955,-0.16578 0.10135,-0.23315c0.50899,-1.10979 1.32881,-2.07351 2.13897,-3.01833c0.12029,-0.14029 0.51754,-0.8885 0.77118,-1.02024c0.54568,-0.28342 1.29603,-0.08498 1.88498,-0.08877c0.52407,-0.00337 1.89343,-0.06194 2.29179,0.41469c0.16816,0.2012 0.23314,0.43958 0.1914,0.63616c0.18837,0.04837 0.36739,0.09631 0.53334,0.13996z"/><path d="M78.85361,65.85145c0.02809,0.08021 0.03717,0.16622 0.0232,0.25317c-0.00341,0.02119 -0.00809,0.04189 -0.01398,0.06206c-0.0018,0.49397 -0.36122,0.5362 -0.7031,0.40881c-0.26766,-0.09973 -0.52455,-0.30344 -0.59067,-0.47577c-0.50988,-1.32905 -0.45317,-3.05087 -1.32487,-4.28092c-0.08496,-0.11989 -0.73933,-0.19018 -0.78066,-0.19871c-0.69552,-0.14355 -1.11539,-0.21133 -2.01994,-0.38922c-0.72375,-0.14233 -0.66491,-0.80989 -0.15688,-1.12553c0.52763,-0.32782 1.80969,0.15682 2.30632,0.32422c0.55811,0.18812 1.33286,0.23476 1.76226,0.67488c0.1996,0.20458 0.34243,1.03958 0.41271,1.21049c0.47335,1.15108 0.94995,2.32314 1.08562,3.53651z" data-paper-data="{&quot;index&quot;:null}"/></g><g stroke="none"><path d="M62.87134,67.34801c0.30258,-1.88292 1.88282,-3.1948 3.52957,-2.93017c1.64674,0.26463 2.73641,2.00556 2.43382,3.88848c-0.30259,1.88292 -1.88282,3.1948 -3.52957,2.93017c-1.64675,-0.26463 -2.7364,-2.00557 -2.43382,-3.88849z" stroke-width="NaN"/><path d="M76.56184,69.56647c0.30258,-1.88292 1.88282,-3.1948 3.52957,-2.93017c1.64675,0.26463 2.7364,2.00556 2.43382,3.88848c-0.30258,1.88292 -1.88282,3.1948 -3.52956,2.93017c-1.64674,-0.26463 -2.73641,-2.00557 -2.43382,-3.88848z" stroke-width="NaN"/><path d="M64.99866,71.18724l1.09575,-6.81865l14.04462,2.25695l-1.09575,6.81865z" stroke-width="0"/></g><g stroke="none"><path d="M63.7291,67.48169c0.23821,-1.48231 1.63296,-2.49085 3.11526,-2.25265c1.4823,0.2382 2.49086,1.63296 2.25265,3.11526c-0.23821,1.4823 -1.63295,2.49085 -3.11526,2.25265c-1.4823,-0.2382 -2.49086,-1.63296 -2.25265,-3.11526z" stroke-width="NaN"/><path d="M76.04876,69.50187c0.2382,-1.48231 1.63295,-2.49085 3.11526,-2.25265c1.4823,0.2382 2.49085,1.63295 2.25265,3.11526c-0.2382,1.48231 -1.63296,2.49085 -3.11526,2.25265c-1.4823,-0.2382 -2.49085,-1.63296 -2.25265,-3.11526z" stroke-width="NaN"/><path d="M65.70582,70.55261l0.86261,-5.3679l12.64217,2.03158l-0.86262,5.3679z" stroke-width="0"/></g><g stroke="none"><path d="M64.39175,69.57606c0.06955,-0.43281 1.20651,-0.61003 2.53947,-0.39582c1.33296,0.21421 2.35715,0.73871 2.2876,1.17152c-0.06955,0.43281 -1.20651,0.61003 -2.53947,0.39582c-1.33296,-0.21421 -2.35715,-0.73871 -2.2876,-1.17152z" stroke-width="NaN"/><path d="M75.474,71.36876c0.06955,-0.43281 1.2065,-0.61002 2.53947,-0.39581c1.33295,0.21421 2.35714,0.73871 2.28759,1.17152c-0.06955,0.43281 -1.2065,0.61003 -2.53947,0.39582c-1.33296,-0.21421 -2.35715,-0.73871 -2.2876,-1.17153z" stroke-width="NaN"/><path d="M66.43124,70.70771l0.25187,-1.56734l11.36842,1.82689l-0.25186,1.56734z" stroke-width="0"/></g><path d="M64.83946,67.67334c0.20974,-1.30514 1.43778,-2.19315 2.74292,-1.98341c1.30514,0.20973 2.19315,1.43778 1.98341,2.74292c-0.20974,1.30514 -1.43779,2.19314 -2.74293,1.98341c-1.30514,-0.20973 -2.19314,-1.43778 -1.9834,-2.74292z" stroke="none" stroke-width="0"/><path d="M75.19485,69.30708c0.20973,-1.30514 1.43778,-2.19314 2.74292,-1.98341c1.30514,0.20973 2.19315,1.43778 1.98341,2.74292c-0.20973,1.30514 -1.43778,2.19314 -2.74292,1.98341c-1.30514,-0.20973 -2.19314,-1.43778 -1.98341,-2.74292z" stroke="none" stroke-width="0"/><path d="M69.99491,68.48641c0.20973,-1.30514 1.43778,-2.19314 2.74292,-1.98341c1.30514,0.20973 2.19314,1.43778 1.98341,2.74292c-0.20974,1.30514 -1.43779,2.19314 -2.74293,1.98341c-1.30514,-0.20973 -2.19314,-1.43778 -1.9834,-2.74292z" stroke="none" stroke-width="0"/><path d="M65.83445,67.81c0.12274,-0.7638 0.84142,-1.28346 1.60522,-1.16072c0.7638,0.12274 1.28346,0.84141 1.16073,1.60521c-0.12274,0.7638 -0.84141,1.28347 -1.60521,1.16073c-0.7638,-0.12274 -1.28347,-0.84142 -1.16074,-1.60522z" stroke="none" stroke-width="0"/><path d="M71.00431,68.72158c0.12274,-0.7638 0.84141,-1.28347 1.60521,-1.16074c0.7638,0.12274 1.28347,0.84142 1.16073,1.60522c-0.12274,0.7638 -0.84142,1.28347 -1.60521,1.16073c-0.7638,-0.12274 -1.28347,-0.84141 -1.16073,-1.60521z" stroke="none" stroke-width="0"/><path d="M76.25262,69.57642c0.12274,-0.7638 0.84141,-1.28347 1.60521,-1.16073c0.7638,0.12274 1.28347,0.84141 1.16073,1.60521c-0.12274,0.7638 -0.84142,1.28347 -1.60521,1.16073c-0.7638,-0.12274 -1.28347,-0.84141 -1.16073,-1.60522z" stroke="none" stroke-width="0"/><path d="M68.16499,68.83553c-0.32388,-0.05205 -0.27184,-0.37593 -0.27184,-0.37593l0.01071,-0.06663c0.11579,-0.71819 0.08772,-0.95647 -0.67967,-1.07567c0,0 -0.32388,-0.05205 -0.27184,-0.37593c0.05205,-0.32389 0.37593,-0.27184 0.37593,-0.27184c1.11311,0.18381 1.39366,0.76435 1.22335,1.82754l-0.01071,0.06663c0,0 -0.05205,0.32389 -0.37593,0.27184z" stroke="none" stroke-width="0.5"/><path d="M73.36999,69.68004c-0.32388,-0.05205 -0.27184,-0.37593 -0.27184,-0.37593l0.01071,-0.06663c0.11579,-0.71818 0.08773,-0.95646 -0.67966,-1.07567c0,0 -0.32389,-0.05205 -0.27184,-0.37593c0.05205,-0.32389 0.37593,-0.27184 0.37593,-0.27184c1.11311,0.18381 1.39366,0.76435 1.22334,1.82754l-0.01071,0.06663c0,0 -0.05205,0.32389 -0.37593,0.27184z" stroke="none" stroke-width="0.5"/><path d="M78.58351,70.62376c-0.32389,-0.05205 -0.27184,-0.37593 -0.27184,-0.37593l0.01071,-0.06663c0.1158,-0.71818 0.08773,-0.95647 -0.67966,-1.07567c0,0 -0.32389,-0.05205 -0.27184,-0.37593c0.05205,-0.32389 0.37594,-0.27183 0.37594,-0.27183c1.11311,0.18381 1.39366,0.76435 1.22334,1.82754l-0.01071,0.06663c0,0 -0.05205,0.32389 -0.37594,0.27184z" stroke="none" stroke-width="0.5"/><g stroke="none"><path d="M67.25847,63.80911c0.06955,-0.43281 0.92337,-0.65552 1.90707,-0.49744c0.98369,0.15807 1.72475,0.63708 1.6552,1.0699c-0.06955,0.43281 -0.92337,0.65552 -1.90707,0.49744c-0.98369,-0.15807 -1.72476,-0.63708 -1.6552,-1.0699z" stroke-width="NaN"/><path d="M75.43645,65.13511c0.06955,-0.43281 0.92338,-0.65552 1.90707,-0.49744c0.98369,0.15807 1.72476,0.63709 1.65521,1.06989c-0.06955,0.43281 -0.92338,0.65552 -1.90707,0.49744c-0.98369,-0.15807 -1.72476,-0.63708 -1.65521,-1.06989z" stroke-width="NaN"/><path d="M68.73058,64.84958l0.25187,-1.56734l8.38965,1.34821l-0.25187,1.56734z" stroke-width="0"/></g><path d="M68.19181,62.3245c0.23175,-0.12499 0.48388,-0.8918 0.68118,-1.15772c0.93526,-1.26054 1.86149,-1.76534 3.45813,-1.54752c0.00215,0.00029 0.00432,0.00058 0.00648,0.00086c0.01877,0.00704 0.03845,0.01243 0.0589,0.01601c0.00152,0.00025 0.00303,0.00051 0.00451,0.00076c0.49687,0.08458 0.99403,0.16752 1.49148,0.24872c0.29959,0.42588 0.25411,0.66107 -0.17969,0.97475c-0.25959,0.18771 -0.64052,-0.03531 -0.95766,-0.08054c-0.90464,-0.12902 -1.63633,-0.19074 -2.34686,0.34287c-0.67769,0.50894 -2.08014,2.89824 -2.49698,3.57504c-0.13637,0.22141 -1.00203,0.76013 -1.19052,0.25908c-0.15262,-0.12661 -0.23623,-0.32833 -0.20249,-0.53829c0.03281,-0.20419 0.16859,-0.36619 0.34582,-0.44156c0.47899,-0.61503 1.2563,-1.61396 1.32769,-1.65246z" stroke="none" stroke-width="0.5"/><path d="M79.18988,65.88538c0.1447,0.12709 0.22287,0.32348 0.19006,0.52767c-0.03374,0.20996 -0.17635,0.37533 -0.36096,0.44774c-0.33597,0.41677 -0.98926,-0.36605 -1.04939,-0.61903c-0.18381,-0.77332 -0.76707,-3.48171 -1.25118,-4.17736c-0.50758,-0.72935 -1.22176,-0.89999 -2.12128,-1.0609c-0.31534,-0.05641 -0.74697,0.03604 -0.93467,-0.22355c-0.29335,-0.40568 -0.28568,-0.63977 0.05837,-0.92244c0.79963,0.13119 1.6,0.2579 2.40111,0.37965c0.01356,0.00407 0.02708,0.00803 0.04052,0.01189c1.04609,0.38993 1.5987,1.12543 2.00015,2.33822c0.10405,0.31435 0.10323,1.12154 0.28416,1.31285c0.05573,0.05893 0.48094,1.25111 0.74312,1.98524z" data-paper-data="{&quot;index&quot;:null}" stroke="none" stroke-width="0.5"/><path d="M77.24531,62.15177c-0.07656,0.10657 -0.18313,0.03001 -0.18313,0.03001l-0.04306,-0.0315c-0.6754,-0.40704 -1.34195,-0.6253 -2.03855,-0.96169c-0.40842,-0.07509 -0.82516,-0.12927 -1.24737,-0.19712c-1.11048,-0.17845 -2.14318,-0.11553 -3.25169,-0.05974c0,0 -0.13106,0.00632 -0.13738,-0.12475c-0.00632,-0.13106 0.12474,-0.13739 0.12474,-0.13739c0.10346,-0.00475 0.20629,-0.00961 0.30859,-0.01441c-0.01779,-0.09374 0.07685,-0.137 0.07685,-0.137c0.88307,-0.40054 1.96294,0.02107 2.87662,0.09082c1.13603,0.18175 2.31534,0.49065 3.42875,0.78436l0.01558,0.00184c0,0 0.12956,0.02083 0.10873,0.15037c-0.02082,0.12955 -0.15037,0.10874 -0.15037,0.10874l-0.04116,-0.00728c-0.06255,-0.01665 -0.12532,-0.03333 -0.18829,-0.05003c0.01646,0.02997 0.02335,0.07126 -0.00582,0.12243c-0.01058,0.01857 -0.02248,0.03239 -0.03496,0.04252c0.09683,0.05137 0.19368,0.10548 0.29062,0.16318l0.0613,0.04348c0,0 0.10657,0.07656 0.03001,0.18313zM71.39869,60.62846c0.2101,-0.0076 0.41897,-0.01305 0.62772,-0.0145c-0.21435,-0.01736 -0.42542,-0.01709 -0.62772,0.0145z" stroke="none" stroke-width="0.5"/><path d="M74.43205,63.35649c0.61506,-0.21844 0.29696,-0.77321 0.04844,-1.21268c-0.56069,-0.42783 -1.62606,-0.64437 -2.32015,-0.32461c-0.33995,0.15661 -0.61472,0.98294 -0.51241,1.32466c0.07439,0.24851 0.38732,0.36935 0.58664,0.48262c0,0 0.16158,0.09211 0.1431,0.25771c0.02039,0.07072 0.01013,0.13453 0.01013,0.13453c-0.01136,0.07063 -0.17602,0.77635 -0.11052,0.8003c0.07554,0.02763 0.1864,0.09551 0.23881,0.0345c0.07049,-0.08207 0.01942,-0.26503 0.12147,-0.30095c0.16671,-0.05867 0.35711,0.01846 0.52511,0.07336c0.11604,0.03793 0.1938,0.32025 0.28105,0.23485c0.08599,-0.08417 0.08443,-0.28514 0.2041,-0.29777c0.17847,-0.01883 0.49881,0.40275 0.48978,0.22352c-0.01908,-0.37905 -0.13885,-0.69928 -0.07632,-1.10528l0.00558,-0.03477c0,0 0.03678,-0.2289 0.25301,-0.23243zM71.11713,63.28635c-0.1923,-0.59898 0.24478,-1.68933 0.80019,-1.9601c0.92203,-0.44952 2.24541,-0.13204 2.97643,0.4552c0.46377,0.7569 0.76374,1.68573 -0.26817,2.08945l-0.02954,0.0161c0.00263,0.33097 0.15831,0.87569 0.06076,1.07984c-0.18643,0.39013 -0.55274,0.49729 -0.91629,0.31658c0.00037,0.02748 -0.00663,0.04928 -0.03156,0.05874c-0.16097,0.06109 -0.34987,0.01542 -0.51556,-0.03135c-0.12885,-0.03637 -0.24582,-0.40224 -0.29149,-0.27638c-0.19432,0.53557 -1.02506,0.43469 -1.18946,-0.17341c-0.05215,-0.1929 0.06083,-0.58487 0.11441,-0.83438c-0.30926,-0.17775 -0.5877,-0.36029 -0.70971,-0.7403zM73.7252,65.16602c0.00863,-0.04818 0.02106,-0.08687 0.00814,-0.0601c-0.00824,0.01708 -0.00969,0.0379 -0.00814,0.0601z" stroke="none" stroke-width="0.5"/><path d="M72.94346,63.15893c0.01389,0.0626 0.00476,0.13882 -0.06164,0.22118c-0.17247,0.21394 -0.38641,0.04147 -0.38641,0.04147c-0.03367,-0.02721 -0.08475,-0.06696 -0.14209,-0.1133c-0.01045,-0.00718 -0.01998,-0.01501 -0.02866,-0.0233c-0.15208,-0.1244 -0.33356,-0.28593 -0.3545,-0.38315c-0.08582,-0.39839 0.12308,-0.83978 0.61331,-0.77074c0.53348,0.07514 0.64015,0.73883 0.36,1.02783z" stroke="none" stroke-width="0.5"/><path d="M74.00938,62.18942c0.48718,0.08803 0.54727,0.57264 0.34095,0.92408c-0.05035,0.08576 -0.2733,0.18232 -0.4567,0.2528c-0.01084,0.00516 -0.02234,0.0096 -0.03451,0.01314c-0.06897,0.02604 -0.12993,0.04778 -0.17043,0.06308c0,0 -0.25721,0.09675 -0.35396,-0.16045c-0.03725,-0.09902 -0.02204,-0.17425 0.01076,-0.22935c-0.17551,-0.36222 0.13374,-0.95908 0.6639,-0.86329z" data-paper-data="{&quot;index&quot;:null}" stroke="none" stroke-width="0.5"/><path d="M64.75041,65.52596c-0.08764,0.82285 -0.16662,0.82021 -0.16662,0.82021l-0.10112,-0.00339c-0.46627,-0.02263 -0.92376,-0.14836 -1.39186,-0.16402c0,0 -0.07898,-0.00265 0.00865,-0.8255c0.08763,-0.82285 0.16661,-0.82021 0.16661,-0.82021c0.46798,0.01566 0.92418,0.15613 1.39187,0.16403l0.10111,0.00338c0,0 0.07899,0.00265 -0.00865,0.8255z" stroke="none" stroke-width="0.5"/><path d="M82.80672,68.70054c-0.11752,0.82081 -0.19544,0.81155 -0.19544,0.81155l-0.09974,-0.01187c-0.4597,-0.06179 -0.90683,-0.2266 -1.36859,-0.28153c0,0 -0.07792,-0.00927 0.03959,-0.83008c0.11752,-0.82081 0.19544,-0.81155 0.19544,-0.81155c0.46165,0.05491 0.90694,0.23445 1.36859,0.28153l0.09974,0.01187c0,0 0.07792,0.00926 -0.03959,0.83008z" stroke="none" stroke-width="0.5"/><path d="M64.51084,71.62053l0.15582,-0.96963l15.06158,2.42037l-0.15582,0.96963z" stroke="none" stroke-width="0"/><g data-paper-data="{&quot;index&quot;:null}" stroke="#000000" stroke-width="0"><path d="M70.25314,58.93255c0.36647,-0.12739 0.59906,-0.12225 0.90291,0.14225c0.06998,0.06092 0.16726,0.10464 0.21251,0.19091c0.02096,0.03996 0.03058,0.07751 0.03063,0.11283c0.04447,-0.02761 0.08865,-0.0436 0.12784,-0.02917c0.29948,0.11033 -0.04429,0.35491 -0.19027,0.4223c-0.81786,0.3775 -1.00783,0.425 -1.5559,0.6661c-0.10117,0.04451 -0.21216,0.05627 -0.29022,0.13451c-0.03349,0.03356 -0.19173,0.17681 -0.25965,0.16029c-0.05501,0.0189 -0.10841,0.00404 -0.1325,-0.0808c-0.00269,-0.00432 -0.00513,-0.00884 -0.00731,-0.01356c-0.00893,-0.01936 -0.01243,-0.04 -0.01112,-0.06054c-0.04761,-0.29175 -0.01303,-0.59613 0.02215,-0.89541c0.00523,-0.04443 -0.01601,-0.24844 0.01717,-0.30916c0.07137,-0.13065 0.24895,-0.19212 0.36679,-0.27242c0.10486,-0.07146 0.37211,-0.26817 0.51653,-0.2262c0.06097,0.01772 0.10621,0.05684 0.12438,0.10198c0.04439,-0.01572 0.08683,-0.03027 0.12608,-0.04391z"/><path d="M71.68384,59.37011c0.01648,0.01233 0.02992,0.02837 0.03886,0.04774c0.00217,0.00472 0.00403,0.00951 0.00557,0.01436c0.06636,0.0995 -0.00016,0.15653 -0.08607,0.17711c-0.06726,0.01611 -0.14639,0.00987 -0.18295,-0.01583c-0.28196,-0.19821 -0.50311,-0.55185 -0.8444,-0.68129c-0.03327,-0.01261 -0.17424,0.06164 -0.1837,0.06551c-0.15915,0.06509 -0.25267,0.10819 -0.45846,0.1946c-0.16465,0.06915 -0.24299,-0.07294 -0.18354,-0.20499c0.06175,-0.13714 0.38483,-0.2129 0.50723,-0.24634c0.13756,-0.03758 0.29954,-0.13284 0.44527,-0.1024c0.06773,0.01415 0.2092,0.16265 0.24641,0.1875c0.25058,0.16737 0.50465,0.33853 0.6958,0.56403z" data-paper-data="{&quot;index&quot;:null}"/></g><g data-paper-data="{&quot;index&quot;:null}" stroke="#000000" stroke-width="0"><path d="M77.58346,60.09032c0.03299,0.02526 0.06875,0.05237 0.10597,0.0812c0.0314,-0.03718 0.08662,-0.06015 0.15007,-0.05788c0.1503,0.00539 0.34247,0.27593 0.41966,0.37664c0.08674,0.11318 0.23612,0.22719 0.26296,0.37363c0.01248,0.06807 -0.0716,0.25514 -0.08056,0.29897c-0.06035,0.29524 -0.12288,0.59513 -0.2595,0.85727c-0.00518,0.01991 -0.01497,0.03842 -0.02952,0.054c-0.00355,0.00379 -0.00729,0.00732 -0.0112,0.01058c-0.04946,0.07302 -0.10483,0.07041 -0.15114,0.03522c-0.06967,-0.00559 -0.17507,-0.19119 -0.19635,-0.23356c-0.04962,-0.09876 -0.15134,-0.14471 -0.23347,-0.21867c-0.44494,-0.40067 -0.61045,-0.5053 -1.26887,-1.12004c-0.11753,-0.10973 -0.36735,-0.4497 -0.04839,-0.46064c0.04173,-0.00143 0.07869,0.02761 0.11226,0.06776c0.01112,-0.03353 0.03202,-0.06618 0.06444,-0.09755c0.07,-0.06776 0.17608,-0.07879 0.26162,-0.11472c0.37142,-0.15599 0.59392,-0.08799 0.90202,0.1478z"/><path d="M76.08767,60.05761c0.25217,-0.15426 0.54707,-0.23719 0.83746,-0.31763c0.04312,-0.01194 0.224,-0.10864 0.29276,-0.10085c0.14793,0.01675 0.2719,0.15797 0.39077,0.23674c0.10576,0.07011 0.38884,0.24328 0.40451,0.39285c0.01509,0.14402 -0.10381,0.25441 -0.23852,0.13716c-0.16835,-0.14654 -0.24366,-0.21677 -0.37441,-0.32844c-0.00777,-0.00663 -0.11838,-0.12133 -0.15393,-0.11977c-0.36467,0.01599 -0.68548,0.28255 -1.01534,0.38243c-0.04277,0.01296 -0.11988,-0.00592 -0.1787,-0.04229c-0.07513,-0.04645 -0.12043,-0.12146 -0.02624,-0.19516c0.00298,-0.00412 0.00624,-0.0081 0.00979,-0.01189c0.01455,-0.01559 0.03235,-0.02661 0.05186,-0.03316z" data-paper-data="{&quot;index&quot;:null}"/></g></g></g><path d="M24.17068,71.81943c0.03549,0.26054 -1.72376,1.55995 -2.10926,1.55239c-2.06507,-0.04046 -8.84253,-1.17931 -11.00663,-1.58711c-0.19194,-0.03617 -0.46099,-0.15705 -0.73074,-0.32722c-0.14707,-0.08649 -0.2831,-0.18584 -0.40562,-0.29621c-0.34635,-0.29251 -0.61899,-0.64454 -0.61564,-0.9623c-0.03233,-0.11393 -0.05385,-0.23152 -0.06356,-0.35203c-0.03231,-0.4009 0.07039,-0.78161 0.27533,-1.11091c2.1032,-5.36705 13.94837,-2.11264 14.65612,3.08339z" fill="#15800d" stroke="none" stroke-width="0.5"/><path d="M52.40525,71.92795c0.03549,0.26054 -1.72377,1.55994 -2.10926,1.55239c-2.06507,-0.04046 -8.84253,-1.1793 -11.00662,-1.58711c-0.19194,-0.03617 -0.46099,-0.15705 -0.73074,-0.32722c-0.14707,-0.08649 -0.2831,-0.18584 -0.40562,-0.29621c-0.34634,-0.29251 -0.61899,-0.64454 -0.61564,-0.9623c-0.03233,-0.11392 -0.05385,-0.23153 -0.06356,-0.35203c-0.03231,-0.4009 0.07039,-0.78161 0.27532,-1.11091c2.1032,-5.36705 13.94837,-2.11264 14.65613,3.08339z" fill="#15800d" stroke="none" stroke-width="0.5"/><path d="M79.65275,72.04478c0.03549,0.26054 -1.72376,1.55994 -2.10926,1.55239c-2.06507,-0.04046 -8.84252,-1.1793 -11.00662,-1.58711c-0.19195,-0.03617 -0.46099,-0.15705 -0.73074,-0.32722c-0.14707,-0.08649 -0.2831,-0.18584 -0.40562,-0.29621c-0.34635,-0.29251 -0.61899,-0.64454 -0.61564,-0.9623c-0.03232,-0.11392 -0.05385,-0.23153 -0.06356,-0.35203c-0.03231,-0.4009 0.07038,-0.78161 0.27532,-1.11091c2.1032,-5.36705 13.94837,-2.11264 14.65612,3.08339z" fill="#15800d" stroke="none" stroke-width="0.5"/><g fill="#fbfbfb" stroke="none"><path d="M-11.05832,46.68166v-38.5h188.07804v38.5z" stroke-width="NaN"/><path d="M171.01195,27.37396c0,-10.62086 3.09453,-19.23077 6.91182,-19.23077c3.8173,0 6.91183,8.60991 6.91183,19.23077c0,10.62086 -3.09454,19.23077 -6.91183,19.23077c-3.8173,0 -6.91182,-8.60991 -6.91182,-19.23077z" stroke-width="0"/></g><g fill="#f6f6f6" stroke="none"><path d="M-5.96733,46.17983v-20.69737h181.23274v20.69737z" stroke-width="NaN"/><path d="M169.4763,35.80013c0,-5.70971 2.9819,-10.33834 6.66027,-10.33834c3.67837,0 6.66026,4.62863 6.66026,10.33835c0,5.70971 -2.98189,10.33834 -6.66026,10.33834c-3.67837,0 -6.66027,-4.62863 -6.66027,-10.33834z" stroke-width="0"/></g></g></g></svg>