<svg version="1.1" xmlns="http://www.w3.org/2000/svg" xmlns:xlink="http://www.w3.org/1999/xlink" width="227.16326" height="22.28429" viewBox="0,0,227.16326,22.28429"><g transform="translate(100.44295,-148.09689)"><g data-paper-data="{&quot;isPaintingLayer&quot;:true}" fill-rule="nonzero" stroke="none" stroke-linecap="butt" stroke-linejoin="miter" stroke-miterlimit="10" stroke-dasharray="" stroke-dashoffset="0" style="mix-blend-mode: normal"><g><g data-paper-data="{&quot;index&quot;:null}" fill="#fbfbfb"><path d="M-100.44295,170.38118v-22.26206h218.0998v22.26206z" stroke-width="NaN"/><path d="M110.69008,159.2168c0,-6.14136 3.58849,-11.11991 8.01511,-11.11991c4.42664,0 8.01512,4.97855 8.01512,11.11991c0,6.14136 -3.5885,11.11991 -8.01512,11.11991c-4.42664,0 -8.01511,-4.97855 -8.01511,-11.11991z" stroke-width="0"/></g><g data-paper-data="{&quot;index&quot;:null}" fill="#f6f6f6"><path d="M-94.53933,170.09101v-11.96794h210.16182v11.96795z" stroke-width="NaN"/><path d="M108.90929,164.0891c0,-3.30155 3.45788,-5.97799 7.72341,-5.97799c4.26553,0 7.7234,2.67643 7.7234,5.978c0,3.30155 -3.45787,5.978 -7.7234,5.978c-4.26553,0 -7.72341,-2.67644 -7.72341,-5.978z" stroke-width="0"/></g></g><path d="M-21.91259,170.32843v-12.06382h141.01125v12.06382z" fill="#f6f6f6" stroke-width="NaN"/><text transform="translate(4.76779,163.36227) scale(0.24518,0.24518)" font-size="40" xml:space="preserve" fill="#2f2c33" fill-rule="nonzero" stroke="none" stroke-width="1" stroke-linecap="butt" stroke-linejoin="miter" stroke-miterlimit="10" stroke-dasharray="" stroke-dashoffset="0" font-family="Pixel" font-weight="normal" text-anchor="start" style="mix-blend-mode: normal"><tspan x="0" dy="0">Dica: Siga em frente.</tspan></text></g></g></svg>