<svg version="1.1" xmlns="http://www.w3.org/2000/svg" xmlns:xlink="http://www.w3.org/1999/xlink" width="46.90322" height="46.90322" viewBox="0,0,46.90322,46.90322"><g transform="translate(-216.54839,-156.54839)"><g data-paper-data="{&quot;isPaintingLayer&quot;:true}" fill="none" fill-rule="nonzero" stroke-opacity="0.4" stroke="#ffffff" stroke-width="1" stroke-linejoin="miter" stroke-miterlimit="10" stroke-dasharray="" stroke-dashoffset="0" style="mix-blend-mode: normal"><path d="M240,202.95161c-12.67582,0 -22.95161,-10.27578 -22.95161,-22.95161c0,-12.67582 10.27578,-22.95161 22.95161,-22.95161c12.67582,0 22.95161,10.27578 22.95161,22.95161c0,12.67582 -10.27578,22.95161 -22.95161,22.95161z" data-paper-data="{&quot;index&quot;:null}" stroke-linecap="butt"/><path d="M236.88176,171.98093c0,0 2.39356,-0.6901 4.05579,-0.37512c1.66222,0.31498 2.7107,0.809 3.77931,1.37869c1.06861,0.56969 2.09793,0.80845 3.18109,2.38534c1.08316,1.57688 1.22812,1.54483 1.70057,2.7986c0.47245,1.25377 1.31253,3.44384 1.21472,4.93793c-0.09781,1.49409 0.10153,2.53168 -0.39448,3.74557c-0.496,1.21389 -2.03234,3.25111 -2.03234,3.25111c0,0 -0.81103,1.40659 -3.70652,2.55315c-2.89549,1.14655 -6.91759,1.54766 -7.81835,1.58566c-0.90076,0.03799 0.52824,-0.14597 1.87382,-1.33492c1.34558,-1.18895 2.48409,-2.06139 3.27681,-3.21614c0.79272,-1.15476 1.24252,-3.3671 1.24252,-3.3671c0,0 -0.07569,-1.54819 -0.47612,-2.50195c-0.40042,-0.95376 -0.78629,-1.38123 -1.49221,-2.18631c-0.70592,-0.80508 -2.03669,-1.8383 -2.03669,-1.8383l0.72475,7.66423l-10.73998,-8.49764l5.44514,-11.35755l2.20217,4.37473z" stroke-linecap="round"/></g></g></svg>