<svg version="1.1" xmlns="http://www.w3.org/2000/svg" xmlns:xlink="http://www.w3.org/1999/xlink" width="275.41963" height="189.02703" viewBox="0,0,275.41963,189.02703"><g transform="translate(-110.82063,-74.63221)"><g data-paper-data="{&quot;isPaintingLayer&quot;:true}" fill-rule="nonzero" stroke="none" stroke-width="0.5" stroke-linecap="butt" stroke-linejoin="miter" stroke-miterlimit="10" stroke-dasharray="" stroke-dashoffset="0" style="mix-blend-mode: normal"><g data-paper-data="{&quot;index&quot;:null}" fill="#aa0000"><path d="M179.95833,257.82203c-1.34744,0.77617 -3.495,2.23648 -5.16078,2.23834c-1.27734,0.00143 -2.56579,-0.35767 -3.72432,-0.88597c-2.34636,-1.06996 -2.33173,-2.02091 -3.73628,-3.71247c-1.96855,-2.37083 -4.51629,-4.74043 -4.79484,-8.04934c-0.17327,-2.05816 0.33949,-3.85799 1.46549,-5.3456c-0.57265,-0.32225 -1.18045,-0.85607 -2.13943,-1.56341c-0.67491,-0.49781 -1.50248,-0.86797 -1.97767,-1.55305c-2.90699,-4.19109 -1.21437,-7.96776 0.79224,-11.76979c-1.64239,0.52739 -3.60029,0.79173 -4.88755,0.22132c-3.09565,-1.37176 -4.37517,-6.27174 -3.24796,-9.12019c0.06674,-0.16864 2.58559,-2.83223 3.12561,-3.40652c0.77768,-0.71684 1.86257,-1.86881 3.01168,-2.50889c-0.11424,-0.12911 -0.21808,-0.26763 -0.30931,-0.41756c-2.73038,-4.48752 2.62835,-10.54237 6.85922,-11.49841c0.68543,-0.15489 1.4079,0.10193 2.10939,0.05176c0.78402,-0.05607 1.54521,-0.43824 2.32817,-0.3691c0.65114,0.0575 1.17086,0.61405 1.81295,0.73479c0.84717,0.15932 1.80661,-0.27051 2.58597,0.09248c0.05223,0.02432 0.10287,0.05076 0.15207,0.07912c0.21479,-0.83261 0.79898,-1.39939 1.29556,-1.74638c-0.43496,-0.69952 -0.86681,-2.09452 -0.81414,-2.51396c0.25539,-2.03354 2.79213,-5.63549 4.66751,-6.70353c1.16208,-0.66182 2.41773,-1.60117 3.75169,-1.44538c0.11536,0.01347 4.83733,2.9092 5.83323,3.54431c0.61498,0.39218 1.10449,1.28451 1.83213,1.19565c0.48584,-0.05934 0.78497,-0.57653 1.15202,-0.8947c0.90711,-0.78632 1.988,-1.36122 2.91059,-2.12998c0.56372,-0.46973 0.84719,-1.22869 1.45159,-1.64679c0.90064,-0.62304 3.93617,-1.48652 4.92433,-1.79622c2.32885,0.43233 7.71147,0.48178 9.1186,2.93421c0.19785,-0.10923 0.45116,-0.15423 0.66344,-0.23705c1.49262,-0.58241 2.68059,-2.31976 4.27982,-2.1738c3.93223,0.35886 6.81953,4.39343 7.30881,7.76679c0.22093,1.52315 -0.51922,2.48007 0.30855,3.90399c0.51348,0.88326 1.07095,1.75353 1.75152,2.52016c0.67567,0.7611 1.93741,1.16115 2.18096,2.14216c0.98791,3.9794 -2.26111,6.57075 -4.89447,8.81717c0.36643,0.33041 0.66183,0.74774 0.84979,1.23588l0.31063,0.80671c0.51712,0.2314 1.01165,0.50509 1.48833,0.80981l0.06047,-0.25772l1.68453,0.38119c1.05557,0.22302 1.97788,0.95122 2.3882,2.01681c0.11191,0.29064 0.17836,0.5872 0.2028,0.88215c1.01014,-1.09531 2.20675,-2.18435 2.69175,-2.30038c2.94632,-0.70488 6.23596,0.68406 7.62106,3.37708c0.66427,1.29153 -0.36825,2.88226 -0.32976,4.3287c0.02396,0.90066 0.78115,1.63256 1.10425,2.4758c1.15554,3.01578 1.95257,5.68749 0.09765,8.58565c0.58393,1.43195 1.22735,2.77373 1.21622,4.38976c-0.00516,0.74929 -0.49275,1.43475 -0.55085,2.1819c-0.0584,0.75088 0.3349,1.50771 0.20621,2.2501c-0.07564,0.43635 -0.20373,0.87234 -0.3704,1.30456c0.2103,0.66929 0.38014,1.34625 0.50184,2.03102c0.21906,1.23244 0.55001,2.55581 0.16881,3.74957c-0.63029,1.97383 -3.02387,3.46172 -4.84749,4.12943c-1.54797,0.56678 -3.24518,0.73634 -4.96559,0.61708c-2.7634,1.50727 -5.94155,1.92832 -9.39667,0.25983c-0.46218,-0.22319 -1.59149,-1.04951 -2.57701,-1.85724c-0.24966,0.37749 -0.5855,0.72795 -0.70625,1.1555c-0.2642,0.93543 0.21076,2.08817 -0.34226,2.89279c-2.68296,3.90359 -10.53711,3.88156 -14.07045,1.37887c-1.57526,-1.11577 -2.45021,-2.27959 -3.04473,-3.65268c-0.26645,-0.39791 -0.52018,-0.80625 -0.76736,-1.21464c-1.82353,3.43608 -6.80792,5.36652 -10.66903,4.79473c-2.36417,1.1037 -5.02502,1.046 -7.38419,-1.34217c-0.61482,-0.62237 -0.65403,-1.58733 -0.85997,-2.45468c-0.46564,0.80564 -1.18582,1.50401 -1.69694,2.29048zM178.93254,221.61281c0.08553,-0.09631 0.17722,-0.18797 0.27474,-0.27434c-0.13945,0.04319 -0.23398,0.09845 -0.25636,0.18029c-0.00728,0.02661 -0.01337,0.0581 -0.01839,0.09404z"/><path d="M210.75082,211.52007l0.73882,-0.27437c0.17517,-0.06505 4.59292,-1.73836 4.94932,-1.74936c1.23292,-0.03808 3.02316,0.85165 4.16598,1.35806c2.9417,1.30354 6.34668,2.86455 7.67555,5.82997c0.53326,-0.51447 0.92389,-1.23953 1.61753,-1.49379c0.76185,-0.27926 1.62559,0.04985 2.43838,0.07536c1.62019,0.05085 3.38618,-0.20551 4.68071,1.15173c0.87073,0.91291 1.30513,2.15205 1.85989,3.27802c1.69951,3.44938 2.71412,7.59957 3.07448,11.38739c0.12989,1.36532 0.75043,2.8402 0.21878,4.10817c-0.22837,0.54466 -0.74325,0.86332 -1.31137,1.13998c1.4456,1.95138 2.70416,4.03203 2.56098,6.62504c-0.08034,1.45505 -1.12688,2.70395 -1.51723,4.10982c-0.69387,2.49908 -1.21433,5.71237 -3.29186,7.59605c-1.21044,1.09751 -2.96974,1.67101 -4.48218,2.21842c-0.86282,0.3123 -1.68085,0.83169 -2.59646,0.91533c-4.18195,0.38198 -8.32924,-2.36872 -12.37189,-1.61003c0,0 -0.66219,0.1077 -1.21063,-0.22988c-0.66788,1.98996 -1.61464,3.92524 -3.24918,5.17421c-0.63522,0.48537 -1.48776,0.60367 -2.23663,0.89327c-0.53507,0.20691 -4.24565,1.57632 -4.43256,1.59989c-3.15343,0.39766 -6.72419,-2.58387 -8.00232,-5.22964c-1.0525,0.4873 -2.23447,0.78778 -3.28829,1.17562c-1.71594,0.63152 -3.5701,0.82113 -5.37412,1.13707c-3.79055,0.66383 -7.21907,2.30249 -10.47135,-0.83599c-0.22864,-0.22064 -0.41359,-0.47636 -0.58134,-0.74586c-0.98282,0.79072 -2.26189,1.38253 -3.92408,1.77408c-0.8832,0.20805 -1.81612,0.55569 -2.70083,0.3539c-1.93277,-0.44086 -4.22559,-2.52427 -5.87253,-3.53057c-1.00309,-0.61291 -2.21314,-0.91466 -3.10914,-1.67083c-2.2634,-1.91014 -3.0456,-4.99973 -3.99815,-7.63417c-0.42285,-1.16948 -1.26354,-2.28359 -1.22306,-3.52396c0.0271,-0.83058 0.24726,-1.53815 0.58806,-2.16748c-1.54051,-1.38004 -2.51724,-3.60167 -3.18633,-5.32915c-0.19073,-0.49241 -1.51604,-3.87362 -1.50278,-4.16014c0.05357,-1.15739 0.44759,-2.32782 1.06635,-3.31427c0.14295,-0.2279 0.32881,-0.41858 0.53655,-0.59069c-0.46918,0.03345 -0.93214,0.03049 -1.37446,-0.10869c-0.77683,-0.24445 -1.29102,-0.98428 -1.88002,-1.53851c-2.29325,-2.15785 -5.21345,-6.26249 -3.791,-9.66245c0.28984,-0.69277 0.9811,-1.14724 1.48914,-1.70584c0.64465,-0.70879 2.80009,-3.07546 3.71124,-3.60267c0.70222,-0.40633 1.51596,-0.74874 2.36718,-1.05849c-0.54829,-1.40181 -1.12688,-3.07897 -1.0392,-4.24811c0.37304,-4.97424 5.67291,-7.8188 9.86717,-9.24842c1.09139,-0.372 2.14367,-1.17076 3.2934,-1.05999c1.26124,0.12151 2.26986,1.10878 3.38327,1.7032c2.4454,1.30554 3.79299,1.87464 5.3421,4.16028l0.56306,1.37357c0,0 0.58182,1.51098 -0.95678,2.08236c-1.53859,0.57137 -2.12042,-0.93961 -2.12042,-0.93961l-0.2751,-0.80311c-1.05073,-1.83166 -2.29621,-1.9158 -4.20045,-3.07704c-0.67269,-0.41022 -1.20004,-1.19325 -1.98712,-1.27831c-0.68676,-0.07421 -1.24201,0.5963 -1.87833,0.8606c-2.71314,1.1269 -7.55886,2.78994 -7.74656,6.41508c-0.03051,0.58929 0.44339,1.93919 0.86698,3.02704c0.37296,-0.12358 0.73556,-0.24816 1.08123,-0.37652l1.10823,-0.41155c0,0 1.5386,-0.57137 2.12042,0.93961c0.58182,1.51098 -0.95677,2.08236 -0.95677,2.08236l-1.10823,0.41155c-0.74086,0.27513 -1.50677,0.53945 -2.27413,0.81681c-0.09273,0.05244 -0.19627,0.1006 -0.31173,0.14349c-0.12114,0.04498 -0.23635,0.07707 -0.34581,0.09799c-2.77368,1.03795 -5.4781,2.33592 -6.99406,5.02451c-0.37823,0.67081 0.39384,1.88188 0.55765,2.30362c0.54175,1.39485 1.49041,2.6388 2.53661,3.72187c0.25132,0.26018 0.35959,0.73332 0.71516,0.81499c0.64546,0.14825 1.31569,-0.19293 1.97855,-0.19633c0.88106,-0.00451 1.62089,-0.02775 2.33433,-0.11107c0.83168,-0.61886 1.74988,-1.11683 3.08284,-1.61746l1.47765,-0.54873c0,0 1.53859,-0.57138 2.12041,0.9396c0.58182,1.51098 -0.95677,2.08236 -0.95677,2.08236l-0.49425,0.18355c-0.12994,0.87757 -1.07342,1.22794 -1.07342,1.22794c-1.0072,0.37104 -1.91965,0.63879 -2.83029,0.8158c-0.41232,0.38304 -0.85023,0.84583 -1.47238,1.45336c-0.99787,0.97442 -2.30478,1.09297 -2.2433,2.7383c0.04163,1.11427 0.89172,2.05167 1.29106,3.09544c0.23913,0.62502 1.09,3.02907 2.14676,4.07775c0.39926,-0.36779 0.80676,-0.72845 1.19299,-1.10022c0,0 1.185,-1.12038 2.32586,0.04336c0.20873,0.21292 0.33961,0.42439 0.41413,0.6278c0.20556,0.12025 0.40567,0.30719 0.58396,0.58713c0.87227,1.36959 -0.52235,2.22619 -0.52235,2.22619c-0.78418,0.42635 -1.46046,1.19356 -2.35257,1.27906c-0.21587,0.02069 -0.42564,0.02724 -0.62955,0.02066c-0.22335,0.34282 -0.36241,0.67888 -0.34988,0.97834c0.03467,0.82853 0.69326,1.51265 1.01201,2.28052c0.82667,1.99152 1.24929,4.89401 3.06716,6.32829c0.7889,0.62244 1.83244,0.85293 2.69499,1.37268c0.32664,0.19682 3.96888,2.88088 4.71393,3.09602c0.38678,0.11168 2.72932,-0.82862 2.85765,-0.88507c2.5474,-1.12061 2.65449,-2.47821 2.91791,-5.10913l-0.32131,-0.3523c0,0 -0.58181,-1.51098 0.95678,-2.08236c1.53859,-0.57137 2.12041,0.93961 2.12041,0.93961l0.51684,1.82439c-0.1572,1.45663 -0.42954,2.73924 -0.88948,3.84673c0.26245,0.45203 0.44544,0.96279 0.80826,1.34065c2.04255,2.12726 5.26499,0.33254 7.55831,-0.06772c2.62497,-0.45814 4.18699,-0.78866 6.63635,-1.66454c0.6148,-0.21984 1.82882,-0.3675 2.15483,-1.16967c0.65425,-1.60978 -0.10845,-3.22355 -0.68404,-4.69864l-0.41908,-1.08833c0,0 -0.58182,-1.51099 0.95677,-2.08236c1.53859,-0.57138 2.12042,0.93961 2.12042,0.93961l0.41907,1.08834c0.73622,1.93381 1.44824,3.91772 1.01247,5.94705c0.22899,0.42688 0.22041,0.87101 0.22041,0.87101c-0.04579,0.50343 -0.35428,1.05193 -0.13736,1.51028c0.5105,1.07871 3.07486,3.57655 4.53819,3.24095c1.24549,-0.28566 4.11541,-1.14053 5.15191,-1.89676c0.78883,-0.57554 1.21227,-1.80596 1.58918,-2.63492c1.0295,-2.26422 2.32074,-4.82582 1.79501,-7.2479l-0.19515,-0.41814c0,0 -0.58182,-1.51098 0.95677,-2.08236c1.53859,-0.57137 2.12041,0.9396 2.12041,0.9396l0.36361,1.03298c0.11244,0.80807 0.4148,1.6122 0.33731,2.42423c-0.05876,0.61581 -0.57303,1.11215 -0.73186,1.71066c-0.06286,0.23684 -0.12602,0.47968 -0.19043,0.72711c4.2172,-0.5271 8.11696,1.98423 12.32604,1.61531c0.6579,-0.05767 1.22118,-0.49496 1.83645,-0.73089c0.91388,-0.35042 2.60892,-0.8518 3.36545,-1.5252c1.57972,-1.40616 1.88664,-4.28979 2.40143,-6.12859c0.34866,-1.24535 1.33916,-2.32609 1.41944,-3.61524c0.08181,-1.31378 -0.90959,-2.89625 -1.27732,-4.14869l-1.04141,0.44439c0,0 -1.62282,0.26395 -1.8916,-1.32974c-0.18849,-1.11768 0.55337,-1.58133 1.01336,-1.75859c-0.1324,-0.98298 0.84118,-1.53892 0.84118,-1.53892c0.47749,-0.17067 1.2783,-0.03654 1.43245,-0.51203c0.2375,-0.73261 -0.39845,-1.48862 -0.53866,-2.24504c-0.18973,-1.02361 -0.24272,-2.06953 -0.45021,-3.08981c-0.60023,-2.95141 -1.62463,-7.14384 -3.47497,-9.63923c-0.51847,-0.69922 -1.75014,-0.19719 -2.62675,-0.2811c-0.36904,-0.03532 -0.73022,-0.41059 -1.07567,-0.27829c-0.36013,0.13793 -0.37725,0.67535 -0.65375,0.94063c-0.72005,0.69079 -1.50995,1.30629 -2.28801,1.93495c-0.03796,0.0788 -0.07337,0.15804 -0.10489,0.23793c0,0 -0.40604,0.88371 -1.28612,0.97299l-0.34271,0.37006c0,0 -1.11597,1.18679 -2.32443,0.09085c-1.20847,-1.09593 -0.09251,-2.28272 -0.09251,-2.28272l0.69598,-0.73192c0.23261,-0.20929 0.46826,-0.41522 0.70592,-0.61892c0.52152,-2.62876 -4.14202,-4.45093 -6.11928,-5.32709c-0.18286,-0.08103 -2.34246,-1.09323 -2.68207,-1.0747c-1.40449,0.07662 -2.6008,1.05446 -3.91652,1.54307l-0.73882,0.27437c0,0 -1.53859,0.57138 -2.12041,-0.9396c-0.58182,-1.51098 0.95678,-2.08236 0.95678,-2.08236z"/><path d="M190.90889,195.80639l0.0187,0.56437c0,0 -0.03122,1.61512 -1.67585,1.58446c-1.64463,-0.03066 -1.61341,-1.64576 -1.61341,-1.64576l0.1719,-1.42394c-1.39614,-0.93432 -4.22613,-3.05366 -5.82831,-2.90344c-0.52702,0.04941 -3.59251,1.71184 -3.71393,1.80393c-0.59044,0.44786 -1.01845,1.07135 -1.50769,1.6245c-0.26027,0.29426 -0.74213,0.5266 -0.7396,0.91636c0.0059,0.90794 0.66314,1.71622 0.76256,2.61892c0.11605,1.05375 -0.08281,2.11823 -0.12421,3.17734c0,0 -0.07131,1.61388 -1.71469,1.54385c-1.64338,-0.07003 -1.57207,-1.68391 -1.57207,-1.68391c0.04552,-0.90823 0.22396,-1.81941 0.13655,-2.72468c-0.11323,-1.1728 -0.86329,-2.28877 -0.73369,-3.45994c0.13013,-1.17579 2.68898,-3.96284 3.46461,-4.55619c0.8976,-0.68666 4.37756,-2.41907 5.61133,-2.48843c2.62682,-0.14766 5.809,2.01207 7.94512,3.89307l0.81224,-0.86244c2.86344,-2.57816 5.21067,-5.45111 9.34539,-6.06383c0.63482,-0.09408 1.27698,0.18001 1.91878,0.16403c0.82112,-0.02044 1.65845,-0.49359 2.44846,-0.27275c0.88815,0.24828 1.46229,1.11409 2.25064,1.58634c0.60226,0.36078 1.21686,0.70587 1.81907,1.06848c1.25055,-0.96587 2.65186,-1.67607 4.46134,-1.9455c0.62609,-0.09323 1.26037,0.20519 1.89229,0.16504c0.88495,-0.05621 1.74245,-0.57486 2.62034,-0.45168c3.67025,0.51496 4.32964,5.29298 5.34756,8.1207c0.43567,1.21025 1.22703,2.3607 1.26916,3.64368c0.00469,0.14295 -0.00852,0.28282 -0.03555,0.4203c0.77264,0.49957 1.15376,1.50421 1.63152,2.30248c1.22481,2.0465 2.5788,6.20837 1.98328,8.44784c-0.23693,0.89096 -1.2986,1.32868 -1.94834,1.99262c-1.179,1.20475 -2.78046,1.98842 -4.36336,2.60127c0,0 -1.53859,0.57137 -2.12041,-0.93961c-0.58182,-1.51098 0.95677,-2.08236 0.95677,-2.08236c1.16987,-0.4104 2.28474,-1.04831 3.20489,-1.86792c0.35983,-0.3205 1.07309,-0.36659 1.18699,-0.83035c0.22367,-0.91073 -0.90356,-3.41583 -1.21373,-4.21874c-0.21433,-0.55479 -0.43764,-1.10651 -0.63364,-1.6678c-0.09998,-0.28631 0.0204,-0.75694 -0.22541,-0.90064c-0.22024,0.17943 -0.51369,0.32844 -0.88483,0.33668c-0.066,0.03811 -0.1331,0.06918 -0.20182,0.08659c-0.64998,0.16475 -1.32451,0.21543 -1.98675,0.32315l-1.1646,0.46603c0,0 -1.53859,0.57138 -2.12041,-0.9396c-0.58182,-1.51098 0.95677,-2.08236 0.95677,-2.08236l1.79068,-0.63146c0.30503,-0.04961 0.95046,-0.16259 1.67887,-0.276c0.13872,-0.1997 0.23828,-0.40778 0.2208,-0.64084c-0.11036,-1.47122 -1.17914,-2.71458 -1.71046,-4.09441c-0.53132,-1.37984 -0.7139,-2.91029 -1.47622,-4.1814c-0.44388,-0.74012 -1.73507,0.2252 -2.60714,0.29104c-0.54277,0.04098 -1.08218,-0.25934 -1.62176,-0.1886c-1.01374,0.13294 -1.83034,0.49933 -2.55095,1.00011c0.03522,0.33232 -0.05093,0.71904 -0.38513,1.13429c-0.50745,0.6305 -1.08184,0.6994 -1.53098,0.60945c-0.20784,0.22056 -0.41589,0.44531 -0.62782,0.67069l-0.16855,0.56839c0,0 -0.67655,1.47245 -2.1759,0.80805c-1.49936,-0.6644 -0.82281,-2.13684 -0.82281,-2.13684l0.75032,-1.43146c0.04904,-0.05215 0.098,-0.10409 0.14693,-0.15581c-0.35559,-0.20315 -0.70917,-0.40931 -1.05035,-0.63305c-0.51086,-0.335 -0.77401,-1.04612 -1.36273,-1.21834c-0.50211,-0.14689 -1.00205,0.3427 -1.52503,0.37353c-0.53467,0.03151 -1.0644,-0.25965 -1.59527,-0.18962c-3.26907,0.4313 -5.20177,3.12561 -7.4488,5.14877l-1.15083,1.22593c0,0 -0.35027,0.37249 -0.87082,0.5074z"/></g><g data-paper-data="{&quot;index&quot;:null}" fill="#aa0000"><path d="M269.81364,187.97744c-1.34744,0.77617 -3.495,2.23648 -5.16078,2.23834c-1.27734,0.00143 -2.56578,-0.35767 -3.72431,-0.88597c-2.34636,-1.06996 -2.33174,-2.0209 -3.73629,-3.71247c-1.96855,-2.37083 -4.51629,-4.74043 -4.79484,-8.04934c-0.17326,-2.05815 0.33949,-3.85799 1.46549,-5.3456c-0.57265,-0.32224 -1.18045,-0.85607 -2.13943,-1.56341c-0.67491,-0.49781 -1.50248,-0.86797 -1.97767,-1.55305c-2.907,-4.19109 -1.21437,-7.96775 0.79225,-11.76978c-1.6424,0.52738 -3.60029,0.79173 -4.88756,0.22131c-3.09565,-1.37175 -4.37517,-6.27174 -3.24796,-9.12019c0.06674,-0.16865 2.58558,-2.83223 3.12561,-3.40652c0.77768,-0.71683 1.86257,-1.86881 3.01168,-2.50888c-0.11424,-0.12911 -0.21808,-0.26763 -0.30931,-0.41757c-2.73038,-4.48752 2.62836,-10.54237 6.85922,-11.49841c0.68543,-0.15489 1.4079,0.10193 2.10939,0.05176c0.78403,-0.05607 1.54522,-0.43824 2.32817,-0.3691c0.65114,0.0575 1.17086,0.61405 1.81295,0.73479c0.84717,0.15932 1.80662,-0.27051 2.58598,0.09248c0.05222,0.02432 0.10286,0.05076 0.15206,0.07912c0.21478,-0.8326 0.79899,-1.3994 1.29556,-1.74639c-0.43495,-0.69952 -0.86682,-2.09452 -0.81415,-2.51396c0.25539,-2.03354 2.79213,-5.63548 4.66751,-6.70353c1.16208,-0.66182 2.41773,-1.60117 3.75169,-1.44538c0.11536,0.01347 4.83732,2.9092 5.83322,3.54431c0.61497,0.39218 1.10449,1.28451 1.83214,1.19564c0.48583,-0.05934 0.78497,-0.57653 1.15202,-0.89469c0.90711,-0.78632 1.988,-1.36122 2.91059,-2.12998c0.56372,-0.46973 0.84719,-1.22869 1.45159,-1.64679c0.90063,-0.62303 3.93618,-1.48652 4.92434,-1.79621c2.32885,0.43233 7.71147,0.48178 9.1186,2.93421c0.19785,-0.10923 0.45116,-0.15423 0.66343,-0.23706c1.49262,-0.58241 2.68059,-2.31976 4.27982,-2.1738c3.93223,0.35886 6.81952,4.39344 7.30881,7.76679c0.22093,1.52315 -0.51922,2.48007 0.30855,3.90399c0.51347,0.88326 1.07094,1.75353 1.75152,2.52016c0.67567,0.76111 1.93741,1.16115 2.18096,2.14216c0.98792,3.9794 -2.26111,6.57075 -4.89447,8.81717c0.36643,0.33041 0.66183,0.74774 0.84979,1.23588l0.31063,0.80671c0.51712,0.23141 1.01165,0.50509 1.48833,0.80982l0.06047,-0.25772l1.68453,0.3812c1.05558,0.22302 1.97788,0.95122 2.38819,2.01681c0.11191,0.29064 0.17836,0.5872 0.2028,0.88215c1.01014,-1.09531 2.20675,-2.18435 2.69175,-2.30037c2.94632,-0.70488 6.23597,0.68405 7.62106,3.37708c0.66427,1.29153 -0.36824,2.88225 -0.32975,4.32869c0.02397,0.90065 0.78115,1.63257 1.10425,2.4758c1.15555,3.01578 1.95257,5.68749 0.09765,8.58565c0.58393,1.43194 1.22734,2.77373 1.21622,4.38976c-0.00516,0.7493 -0.49275,1.43475 -0.55085,2.1819c-0.05839,0.75088 0.3349,1.50772 0.20621,2.25011c-0.07564,0.43635 -0.20373,0.87234 -0.3704,1.30456c0.2103,0.66929 0.38013,1.34625 0.50183,2.03102c0.21906,1.23244 0.55001,2.55581 0.1688,3.74957c-0.63029,1.97383 -3.02387,3.46172 -4.84749,4.12943c-1.54797,0.56678 -3.24518,0.73634 -4.96559,0.61708c-2.7634,1.50727 -5.94155,1.92832 -9.39668,0.25983c-0.46219,-0.2232 -1.59148,-1.0495 -2.577,-1.85725c-0.24966,0.3775 -0.5855,0.72796 -0.70625,1.1555c-0.26421,0.93543 0.21076,2.08817 -0.34226,2.89279c-2.68296,3.9036 -10.53711,3.88156 -14.07045,1.37887c-1.57526,-1.11577 -2.45021,-2.27959 -3.04473,-3.65268c-0.26645,-0.39791 -0.52018,-0.80625 -0.76736,-1.21464c-1.82353,3.43607 -6.80791,5.36652 -10.66903,4.79473c-2.36417,1.1037 -5.02502,1.046 -7.38419,-1.34217c-0.61482,-0.62237 -0.65403,-1.58733 -0.85997,-2.45468c-0.46565,0.80564 -1.18581,1.50401 -1.69694,2.29047zM268.78785,151.76822c0.08553,-0.09631 0.17722,-0.18797 0.27474,-0.27434c-0.13946,0.04319 -0.23398,0.09845 -0.25636,0.18029c-0.00728,0.02661 -0.01338,0.05809 -0.01839,0.09404z"/><path d="M300.60613,141.67548l0.73882,-0.27437c0.17517,-0.06505 4.59292,-1.73836 4.94932,-1.74936c1.23291,-0.03809 3.02316,0.85165 4.16598,1.35806c2.9417,1.30353 6.34668,2.86456 7.67554,5.82997c0.53326,-0.51447 0.92389,-1.23953 1.61753,-1.49379c0.76185,-0.27926 1.62559,0.04985 2.43838,0.07536c1.62019,0.05085 3.38619,-0.20552 4.68072,1.15173c0.87073,0.91292 1.30513,2.15205 1.85989,3.27803c1.69951,3.44938 2.71412,7.59957 3.07448,11.38739c0.12989,1.36532 0.75042,2.8402 0.21877,4.10817c-0.22837,0.54466 -0.74325,0.86332 -1.31137,1.13998c1.44559,1.95138 2.70416,4.03204 2.56099,6.62504c-0.08035,1.45506 -1.12689,2.70395 -1.51723,4.10982c-0.69387,2.49908 -1.21433,5.71237 -3.29186,7.59605c-1.21044,1.09751 -2.96975,1.67101 -4.48219,2.21842c-0.86282,0.3123 -1.68085,0.8317 -2.59646,0.91533c-4.18195,0.38198 -8.32924,-2.36872 -12.37189,-1.61003c0,0 -0.66218,0.1077 -1.21062,-0.22988c-0.66788,1.98996 -1.61464,3.92524 -3.24918,5.17421c-0.63521,0.48537 -1.48777,0.60367 -2.23664,0.89327c-0.53507,0.20691 -4.24566,1.57632 -4.43256,1.59989c-3.15343,0.39767 -6.72419,-2.58386 -8.00232,-5.22963c-1.0525,0.4873 -2.23447,0.78778 -3.28829,1.17562c-1.71593,0.63152 -3.5701,0.82113 -5.37412,1.13707c-3.79055,0.66383 -7.21907,2.30248 -10.47135,-0.83599c-0.22864,-0.22064 -0.41359,-0.47635 -0.58134,-0.74586c-0.98281,0.79072 -2.26188,1.38253 -3.92408,1.77408c-0.8832,0.20805 -1.81613,0.55569 -2.70083,0.3539c-1.93276,-0.44085 -4.2256,-2.52427 -5.87253,-3.53057c-1.0031,-0.61291 -2.21314,-0.91466 -3.10914,-1.67083c-2.2634,-1.91014 -3.0456,-4.99972 -3.99816,-7.63417c-0.42286,-1.16948 -1.26354,-2.28359 -1.22306,-3.52396c0.0271,-0.83057 0.24726,-1.53815 0.58806,-2.16747c-1.54052,-1.38004 -2.51724,-3.60167 -3.18634,-5.32915c-0.19073,-0.49241 -1.51604,-3.87362 -1.50277,-4.16015c0.05358,-1.1574 0.44758,-2.32782 1.06635,-3.31427c0.14295,-0.2279 0.32881,-0.41858 0.53656,-0.59069c-0.46918,0.03345 -0.93214,0.03049 -1.37447,-0.10869c-0.77683,-0.24445 -1.29101,-0.98428 -1.88001,-1.53851c-2.29325,-2.15784 -5.21345,-6.26249 -3.79101,-9.66245c0.28984,-0.69277 0.9811,-1.14724 1.48914,-1.70583c0.64465,-0.70879 2.80009,-3.07546 3.71124,-3.60267c0.70223,-0.40632 1.51596,-0.74874 2.36718,-1.05849c-0.54829,-1.40182 -1.12688,-3.07897 -1.0392,-4.24811c0.37304,-4.97424 5.67291,-7.81879 9.86717,-9.24842c1.09139,-0.372 2.14367,-1.17076 3.2934,-1.06c1.26125,0.12151 2.26987,1.10878 3.38327,1.70321c2.4454,1.30554 3.79299,1.87464 5.3421,4.16028l0.56306,1.37357c0,0 0.58182,1.51098 -0.95678,2.08236c-1.5386,0.57138 -2.12041,-0.9396 -2.12041,-0.9396l-0.2751,-0.80311c-1.05073,-1.83166 -2.29621,-1.9158 -4.20045,-3.07704c-0.67269,-0.41022 -1.20004,-1.19325 -1.98713,-1.2783c-0.68676,-0.07421 -1.24201,0.5963 -1.87833,0.8606c-2.71315,1.1269 -7.55886,2.78994 -7.74656,6.41508c-0.03051,0.58929 0.44339,1.93919 0.86698,3.02704c0.37295,-0.12358 0.73556,-0.24816 1.08123,-0.37652l1.10822,-0.41155c0,0 1.5386,-0.57138 2.12041,0.9396c0.58182,1.51098 -0.95678,2.08236 -0.95678,2.08236l-1.10822,0.41155c-0.74086,0.27512 -1.50677,0.53945 -2.27413,0.81681c-0.09273,0.05243 -0.19627,0.1006 -0.31174,0.14349c-0.12114,0.04499 -0.23635,0.07707 -0.3458,0.09799c-2.77368,1.03795 -5.4781,2.33592 -6.99406,5.02451c-0.37823,0.67081 0.39384,1.88188 0.55765,2.30361c0.54176,1.39485 1.49041,2.6388 2.53661,3.72188c0.25131,0.26018 0.35958,0.73332 0.71516,0.81498c0.64546,0.14824 1.31569,-0.19293 1.97856,-0.19633c0.88105,-0.00452 1.62089,-0.02775 2.33433,-0.11107c0.83169,-0.61886 1.74988,-1.11683 3.08284,-1.61746l1.47764,-0.54874c0,0 1.5386,-0.57138 2.12041,0.9396c0.58182,1.51098 -0.95678,2.08236 -0.95678,2.08236l-0.49425,0.18354c-0.12994,0.87756 -1.07342,1.22794 -1.07342,1.22794c-1.00721,0.37104 -1.91966,0.63879 -2.83029,0.8158c-0.41232,0.38304 -0.85022,0.84583 -1.47238,1.45336c-0.99787,0.97442 -2.30478,1.09297 -2.24331,2.7383c0.04163,1.11427 0.89172,2.05167 1.29106,3.09544c0.23914,0.62501 1.09,3.02907 2.14676,4.07775c0.39926,-0.36779 0.80675,-0.72845 1.19299,-1.10022c0,0 1.185,-1.12038 2.32585,0.04336c0.20873,0.21292 0.3396,0.42439 0.41412,0.6278c0.20557,0.12025 0.40568,0.30719 0.58397,0.58713c0.87227,1.36958 -0.52235,2.22618 -0.52235,2.22618c-0.78419,0.42636 -1.46046,1.19356 -2.35256,1.27906c-0.21587,0.02069 -0.42564,0.02724 -0.62956,0.02066c-0.22336,0.34282 -0.36241,0.67888 -0.34989,0.97834c0.03467,0.82852 0.69326,1.51265 1.01201,2.28052c0.82667,1.99152 1.24929,4.894 3.06716,6.32828c0.7889,0.62244 1.83244,0.85293 2.69498,1.37268c0.32664,0.19682 3.96888,2.88088 4.71393,3.09602c0.38677,0.11169 2.72932,-0.82861 2.85765,-0.88506c2.5474,-1.12062 2.65449,-2.47821 2.91791,-5.10913l-0.32131,-0.35229c0,0 -0.58182,-1.51098 0.95678,-2.08236c1.5386,-0.57138 2.12041,0.9396 2.12041,0.9396l0.51684,1.82439c-0.1572,1.45663 -0.42954,2.73924 -0.88948,3.84673c0.26246,0.45203 0.44544,0.96279 0.80826,1.34065c2.04255,2.12726 5.26499,0.33254 7.55831,-0.06772c2.62497,-0.45814 4.187,-0.78866 6.63636,-1.66454c0.6148,-0.21985 1.82882,-0.3675 2.15483,-1.16966c0.65424,-1.60978 -0.10845,-3.22356 -0.68404,-4.69864l-0.41908,-1.08833c0,0 -0.58182,-1.51098 0.95678,-2.08236c1.5386,-0.57138 2.12041,0.9396 2.12041,0.9396l0.41908,1.08833c0.73621,1.93381 1.44824,3.91773 1.01247,5.94705c0.22899,0.42688 0.2204,0.87101 0.2204,0.87101c-0.04579,0.50343 -0.35428,1.05193 -0.13736,1.51028c0.5105,1.07871 3.07486,3.57655 4.53819,3.24095c1.24549,-0.28566 4.11541,-1.14052 5.1519,-1.89676c0.78883,-0.57554 1.21227,-1.80596 1.58918,-2.63492c1.0295,-2.26422 2.32073,-4.82582 1.795,-7.2479l-0.19515,-0.41814c0,0 -0.58182,-1.51098 0.95678,-2.08236c1.5386,-0.57138 2.12041,0.9396 2.12041,0.9396l0.36361,1.03298c0.11243,0.80808 0.41479,1.6122 0.3373,2.42423c-0.05876,0.61581 -0.57303,1.11214 -0.73186,1.71065c-0.06286,0.23684 -0.12602,0.47968 -0.19044,0.7271c4.2172,-0.52709 8.11696,1.98424 12.32605,1.61532c0.6579,-0.05767 1.22118,-0.49497 1.83646,-0.73089c0.91387,-0.35042 2.60892,-0.8518 3.36545,-1.5252c1.57972,-1.40616 1.88663,-4.28979 2.40142,-6.12859c0.34866,-1.24535 1.33916,-2.3261 1.41944,-3.61524c0.0818,-1.31378 -0.90959,-2.89625 -1.27732,-4.14869l-1.04141,0.44439c0,0 -1.62282,0.26395 -1.89159,-1.32974c-0.18849,-1.11768 0.55337,-1.58134 1.01336,-1.75859c-0.1324,-0.98298 0.84118,-1.53892 0.84118,-1.53892c0.47749,-0.17068 1.2783,-0.03654 1.43244,-0.51203c0.2375,-0.73261 -0.39845,-1.48863 -0.53866,-2.24504c-0.18974,-1.0236 -0.24273,-2.06953 -0.45022,-3.08981c-0.60023,-2.95141 -1.62463,-7.14384 -3.47497,-9.63923c-0.51847,-0.69922 -1.75014,-0.19719 -2.62675,-0.2811c-0.36903,-0.03532 -0.73022,-0.41059 -1.07567,-0.27829c-0.36013,0.13793 -0.37725,0.67535 -0.65375,0.94063c-0.72005,0.69079 -1.50995,1.3063 -2.28801,1.93495c-0.03797,0.07881 -0.07336,0.15804 -0.10488,0.23792c0,0 -0.40604,0.88372 -1.28612,0.97299l-0.34271,0.37006c0,0 -1.11596,1.18679 -2.32443,0.09085c-1.20847,-1.09593 -0.09251,-2.28272 -0.09251,-2.28272l0.69598,-0.73192c0.23261,-0.2093 0.46826,-0.41522 0.70592,-0.61892c0.52152,-2.62876 -4.14203,-4.45093 -6.11928,-5.32709c-0.18286,-0.08103 -2.34247,-1.09323 -2.68207,-1.0747c-1.40449,0.07662 -2.60079,1.05446 -3.91652,1.54307l-0.73882,0.27437c0,0 -1.5386,0.57138 -2.12041,-0.9396c-0.58182,-1.51098 0.95678,-2.08236 0.95678,-2.08236z"/><path d="M280.7642,125.9618l0.0187,0.56437c0,0 -0.03122,1.61511 -1.67585,1.58445c-1.64463,-0.03066 -1.61341,-1.64576 -1.61341,-1.64576l0.1719,-1.42394c-1.39614,-0.93432 -4.22614,-3.05366 -5.82831,-2.90344c-0.52702,0.04941 -3.59251,1.71184 -3.71394,1.80393c-0.59045,0.44787 -1.01845,1.07135 -1.50769,1.6245c-0.26027,0.29426 -0.74213,0.5266 -0.7396,0.91636c0.0059,0.90794 0.66315,1.71622 0.76256,2.61892c0.11605,1.05375 -0.08281,2.11822 -0.12422,3.17734c0,0 -0.07131,1.61388 -1.71469,1.54385c-1.64338,-0.07003 -1.57207,-1.68391 -1.57207,-1.68391c0.04552,-0.90823 0.22396,-1.81941 0.13655,-2.72468c-0.11323,-1.1728 -0.8633,-2.28877 -0.73369,-3.45994c0.13012,-1.17579 2.68898,-3.96285 3.46461,-4.55619c0.8976,-0.68666 4.37756,-2.41907 5.61133,-2.48843c2.62681,-0.14765 5.809,2.01207 7.94512,3.89307l0.81223,-0.86244c2.86344,-2.57816 5.21067,-5.4511 9.34539,-6.06383c0.63482,-0.09408 1.27698,0.18001 1.91878,0.16403c0.82112,-0.02044 1.65845,-0.49359 2.44845,-0.27275c0.88816,0.24828 1.4623,1.1141 2.25064,1.58635c0.60227,0.36078 1.21685,0.70587 1.81907,1.06848c1.25055,-0.96587 2.65186,-1.67607 4.46134,-1.94551c0.62609,-0.09323 1.26036,0.20519 1.89229,0.16505c0.88495,-0.05621 1.74245,-0.57486 2.62034,-0.45169c3.67024,0.51496 4.32964,5.29298 5.34756,8.1207c0.43567,1.21025 1.22703,2.36069 1.26916,3.64368c0.0047,0.14295 -0.00852,0.28282 -0.03555,0.42031c0.77264,0.49957 1.15375,1.50421 1.63152,2.30248c1.22481,2.04651 2.57879,6.20837 1.98327,8.44784c-0.23693,0.89096 -1.2986,1.32868 -1.94834,1.99262c-1.179,1.20475 -2.78046,1.98842 -4.36336,2.60126c0,0 -1.5386,0.57138 -2.12041,-0.9396c-0.58182,-1.51098 0.95678,-2.08236 0.95678,-2.08236c1.16987,-0.4104 2.28473,-1.04831 3.20489,-1.86792c0.35983,-0.3205 1.07309,-0.36659 1.18699,-0.83035c0.22367,-0.91073 -0.90356,-3.41584 -1.21373,-4.21874c-0.21433,-0.55478 -0.43764,-1.10651 -0.63364,-1.6678c-0.09998,-0.28631 0.0204,-0.75694 -0.22541,-0.90064c-0.22024,0.17943 -0.51369,0.32844 -0.88483,0.33668c-0.06599,0.03811 -0.1331,0.06918 -0.20182,0.08659c-0.64997,0.16475 -1.3245,0.21543 -1.98674,0.32315l-1.1646,0.46603c0,0 -1.5386,0.57138 -2.12041,-0.9396c-0.58182,-1.51098 0.95678,-2.08236 0.95678,-2.08236l1.79068,-0.63146c0.30503,-0.04962 0.95046,-0.16259 1.67887,-0.276c0.13872,-0.19971 0.23828,-0.40778 0.22079,-0.64084c-0.11036,-1.47121 -1.17914,-2.71458 -1.71047,-4.09441c-0.53132,-1.37984 -0.7139,-2.91029 -1.47622,-4.18141c-0.44388,-0.74012 -1.73507,0.22521 -2.60714,0.29104c-0.54277,0.04097 -1.08218,-0.25935 -1.62176,-0.1886c-1.01374,0.13294 -1.83035,0.49933 -2.55096,1.00012c0.03522,0.33232 -0.05094,0.71904 -0.38514,1.13429c-0.50744,0.6305 -1.08184,0.6994 -1.53098,0.60945c-0.20784,0.22056 -0.41589,0.44531 -0.62782,0.67069l-0.16855,0.56839c0,0 -0.67655,1.47245 -2.1759,0.80805c-1.49936,-0.6644 -0.82281,-2.13684 -0.82281,-2.13684l0.75032,-1.43146c0.04904,-0.05215 0.09801,-0.10409 0.14693,-0.15581c-0.35558,-0.20314 -0.70917,-0.40931 -1.05035,-0.63304c-0.51087,-0.335 -0.77401,-1.04612 -1.36274,-1.21834c-0.50211,-0.14689 -1.00205,0.34271 -1.52503,0.37353c-0.53467,0.03152 -1.0644,-0.25965 -1.59527,-0.18962c-3.26907,0.43129 -5.20177,3.12561 -7.4488,5.14877l-1.15083,1.22592c0,0 -0.35027,0.37249 -0.87082,0.5074z"/></g><g data-paper-data="{&quot;index&quot;:null}" fill="#de0000"><path d="M209.30428,245.76603c-2.68799,1.54837 -6.97212,4.46152 -10.29515,4.46522c-2.54815,0.00285 -5.11844,-0.71352 -7.42957,-1.76741c-4.68071,-2.13445 -4.65155,-4.03146 -7.45346,-7.40594c-3.92702,-4.72954 -9.00947,-9.4566 -9.56515,-16.0575c-0.34564,-4.10578 0.67725,-7.69624 2.92349,-10.66386c-1.14237,-0.64284 -2.35487,-1.70777 -4.26792,-3.11882c-1.34637,-0.99307 -2.99728,-1.73149 -3.94522,-3.09816c-5.79912,-8.36073 -2.42252,-15.89474 1.58044,-23.47935c-3.27639,1.05207 -7.18217,1.5794 -9.75011,0.44149c-6.17547,-2.73649 -8.72795,-12.5114 -6.4793,-18.19373c0.13314,-0.33643 5.15794,-5.64997 6.23522,-6.79561c1.55138,-1.43 3.71562,-3.72805 6.00796,-5.00493c-0.22789,-0.25756 -0.43505,-0.53389 -0.61704,-0.833c-5.44679,-8.95208 5.24327,-21.0308 13.68335,-22.938c1.36736,-0.30898 2.8086,0.20333 4.20799,0.10326c1.56404,-0.11185 3.08253,-0.87424 4.64442,-0.73632c1.29894,0.11471 2.33573,1.22495 3.61663,1.46583c1.69001,0.31782 3.60399,-0.53963 5.15872,0.18448c0.10418,0.04852 0.2052,0.10127 0.30335,0.15784c0.42847,-1.66095 1.59389,-2.79164 2.5845,-3.48384c-0.86768,-1.39546 -1.7292,-4.17833 -1.62413,-5.01506c0.50947,-4.05667 5.56997,-11.24213 9.31115,-13.37276c2.31822,-1.32025 4.8231,-3.19414 7.48418,-2.88336c0.23013,0.02687 9.6499,5.80351 11.6366,7.07049c1.2268,0.78236 2.20332,2.56245 3.6549,2.38517c0.96918,-0.11837 1.56593,-1.15011 2.29814,-1.78481c1.80958,-1.56862 3.96582,-2.71547 5.80629,-4.24906c1.12455,-0.93705 1.69005,-2.45109 2.89576,-3.28516c1.79666,-1.24288 7.85222,-2.96543 9.82348,-3.58324c4.64579,0.86245 15.38349,0.9611 18.19055,5.8534c0.39469,-0.2179 0.90001,-0.30767 1.32347,-0.4729c2.9776,-1.16184 5.34747,-4.62765 8.53775,-4.33648c7.84435,0.71588 13.60416,8.7644 14.58023,15.49385c0.44073,3.03851 -1.03578,4.94746 0.61552,7.788c1.02432,1.76201 2.13641,3.49808 3.49408,5.02742c1.34788,1.51832 3.86491,2.31636 4.35076,4.27336c1.97078,7.93845 -4.51065,13.10788 -9.7639,17.58923c0.73098,0.65912 1.32027,1.49166 1.69523,2.46543l0.61967,1.6093c1.03159,0.46163 2.01812,1.0076 2.96905,1.61549l0.12063,-0.51413l3.36045,0.76044c2.10575,0.44489 3.94564,1.89758 4.76417,4.0233c0.22325,0.57979 0.3558,1.17139 0.40456,1.75978c2.01511,-2.18502 4.40222,-4.35752 5.36973,-4.58898c5.87757,-1.40616 12.44003,1.36461 15.20314,6.73688c1.32515,2.57645 -0.7346,5.74976 -0.65782,8.63524c0.04781,1.7967 1.5583,3.25678 2.20285,4.93894c2.30518,6.01614 3.89515,11.34588 0.1948,17.12737c1.16488,2.85656 2.44841,5.53326 2.42621,8.75706c-0.01029,1.49476 -0.98298,2.86216 -1.09888,4.35263c-0.11649,1.49792 0.66808,3.00772 0.41136,4.4887c-0.15089,0.87047 -0.40641,1.74021 -0.7389,2.60244c0.41952,1.33516 0.75832,2.68561 1.0011,4.05165c0.43699,2.45857 1.0972,5.09854 0.33674,7.47995c-1.25736,3.93756 -6.03227,6.90572 -9.67018,8.23773c-3.08802,1.13066 -6.47375,1.46891 -9.90578,1.23101c-5.51266,3.00683 -11.85271,3.84678 -18.74528,0.51833c-0.92201,-0.44525 -3.17482,-2.09364 -5.14082,-3.70499c-0.49804,0.75306 -1.16801,1.45219 -1.40889,2.30508c-0.52706,1.86607 0.42044,4.16566 -0.68276,5.77078c-5.35219,7.78722 -21.02032,7.74327 -28.06891,2.75068c-3.14246,-2.22584 -4.88788,-4.54751 -6.07388,-7.28667c-0.53154,-0.79378 -1.0377,-1.60838 -1.5308,-2.42307c-3.63773,6.85457 -13.581,10.70559 -21.28348,9.56493c-4.71625,2.20176 -10.02433,2.08664 -14.7306,-2.67748c-1.22649,-1.24155 -1.30471,-3.16654 -1.71555,-4.8968c-0.92891,1.60715 -2.36556,3.00032 -3.3852,4.56923zM207.25794,173.53284c0.17063,-0.19213 0.35353,-0.37498 0.54808,-0.54727c-0.2782,0.08616 -0.46676,0.19639 -0.5114,0.35966c-0.01452,0.05309 -0.02669,0.11589 -0.03668,0.1876z"/><path d="M270.73173,153.39899l1.47386,-0.54734c0.34944,-0.12977 9.16234,-3.46783 9.87331,-3.48978c2.45952,-0.07598 6.03085,1.69895 8.31064,2.70918c5.86835,2.6004 12.66089,5.71446 15.31182,11.63012c1.0638,-1.0263 1.84306,-2.47272 3.22679,-2.97994c1.51981,-0.55709 3.24287,0.09944 4.86428,0.15033c3.2321,0.10143 6.75505,-0.40998 9.33749,2.29757c1.73701,1.82116 2.60358,4.29309 3.71027,6.53928c3.39032,6.88111 5.41436,15.16026 6.13323,22.71652c0.25911,2.72365 1.49701,5.66587 0.43643,8.19533c-0.45557,1.08653 -1.4827,1.72223 -2.61604,2.27412c2.88379,3.89278 5.39449,8.04345 5.10887,13.21618c-0.16028,2.90267 -2.24801,5.39407 -3.0267,8.19861c-1.38419,4.98537 -2.42244,11.39551 -6.56687,15.15324c-2.41469,2.1894 -5.9243,3.33347 -8.94144,4.4255c-1.72123,0.623 -3.3531,1.65914 -5.17963,1.82598c-8.3425,0.76201 -16.61587,-4.72533 -24.68049,-3.21183c0,0 -1.32098,0.21485 -2.41505,-0.45859c-1.33234,3.96973 -3.22101,7.8304 -6.48174,10.32195c-1.26718,0.96826 -2.96792,1.20426 -4.46183,1.78197c-1.0674,0.41277 -8.46959,3.14458 -8.84245,3.19159c-6.29072,0.7933 -13.41398,-5.15451 -15.9637,-10.43251c-2.09961,0.9721 -4.4575,1.57152 -6.55975,2.34523c-3.42309,1.25981 -7.12193,1.63806 -10.72075,2.26832c-7.5617,1.32426 -14.40121,4.59319 -20.88913,-1.66771c-0.45612,-0.44015 -0.82507,-0.95027 -1.15971,-1.4879c-1.9606,1.5774 -4.51219,2.75798 -7.82809,3.53909c-1.76188,0.41504 -3.62296,1.10853 -5.38784,0.70598c-3.85564,-0.87945 -8.42958,-5.03562 -11.71502,-7.04308c-2.00106,-1.22268 -4.41495,-1.82464 -6.20237,-3.33311c-4.51522,-3.8105 -6.07562,-9.97387 -7.97586,-15.22929c-0.84355,-2.33297 -2.52062,-4.55549 -2.43987,-7.02989c0.05406,-1.6569 0.49326,-3.06843 1.17311,-4.32386c-3.07315,-2.75302 -5.0216,-7.18492 -6.35637,-10.63104c-0.38048,-0.98231 -3.02432,-7.72742 -2.99786,-8.29901c0.10688,-2.30887 0.89288,-4.64373 2.12724,-6.61159c0.28517,-0.45463 0.65594,-0.83502 1.07037,-1.17836c-0.93596,0.06673 -1.85952,0.06083 -2.7419,-0.21683c-1.54968,-0.48765 -2.57542,-1.96353 -3.75041,-3.06915c-4.57477,-4.30465 -10.40023,-12.49294 -7.56262,-19.27547c0.57819,-1.38199 1.95718,-2.28862 2.97066,-3.40294c1.286,-1.41395 5.58586,-6.13518 7.4035,-7.1869c1.40086,-0.81057 3.02416,-1.49364 4.72225,-2.11156c-1.09377,-2.79646 -2.248,-6.14219 -2.07308,-8.47448c0.74418,-9.92303 11.3168,-15.59758 19.68385,-18.44952c2.17719,-0.7421 4.27637,-2.33553 6.56995,-2.11457c2.51604,0.24239 4.52812,2.21188 6.74923,3.3977c4.87828,2.60441 7.56658,3.73968 10.65687,8.29927l1.12324,2.74012c0,0 1.16066,3.01423 -1.90866,4.15406c-3.06932,1.13983 -4.22998,-1.8744 -4.22998,-1.8744l-0.54879,-1.60211c-2.09609,-3.65394 -4.58067,-3.8218 -8.37941,-6.13834c-1.34194,-0.81835 -2.39395,-2.3804 -3.96409,-2.55007c-1.37,-0.14804 -2.47766,1.18954 -3.74706,1.71679c-5.41241,2.24803 -15.07904,5.56561 -15.45349,12.79734c-0.06086,1.17557 0.88452,3.86846 1.72953,6.0386c0.744,-0.24653 1.46736,-0.49505 2.15692,-0.75112l2.21078,-0.821c0,0 3.06932,-1.13983 4.22998,1.8744c1.16066,3.01423 -1.90866,4.15406 -1.90866,4.15406l-2.21078,0.821c-1.47792,0.54884 -3.00583,1.07614 -4.53663,1.62944c-0.18498,0.1046 -0.39153,0.20069 -0.62188,0.28624c-0.24166,0.08974 -0.47149,0.15374 -0.68984,0.19548c-5.53317,2.07059 -10.92818,4.65989 -13.95233,10.02332c-0.75453,1.33819 0.78567,3.75413 1.11244,4.59544c1.08074,2.78256 2.97319,5.2641 5.06024,7.42471c0.50134,0.51902 0.71733,1.46289 1.42666,1.6258c1.28762,0.29573 2.62465,-0.38487 3.94699,-0.39165c1.7576,-0.00901 3.23349,-0.05536 4.65671,-0.22158c1.65912,-1.23455 3.49081,-2.22794 6.14991,-3.22664l2.94773,-1.09467c0,0 3.06932,-1.13983 4.22998,1.8744c1.16066,3.01423 -1.90866,4.15406 -1.90866,4.15406l-0.98597,0.36615c-0.25922,1.75064 -2.14135,2.4496 -2.14135,2.4496c-2.00926,0.74018 -3.82949,1.27431 -5.6461,1.62742c-0.82253,0.76412 -1.69609,1.68734 -2.93722,2.89929c-1.99063,1.94385 -4.59777,2.18034 -4.47514,5.46259c0.08305,2.22283 1.77887,4.09285 2.57552,6.17505c0.47705,1.24683 2.17443,6.04264 4.28254,8.13463c0.79648,-0.73369 1.60938,-1.45318 2.37988,-2.19481c0,0 2.36393,-2.23503 4.63981,0.08649c0.4164,0.42475 0.67747,0.8466 0.82613,1.25239c0.41008,0.23988 0.80928,0.6128 1.16495,1.17125c1.74007,2.73216 -1.04203,4.44098 -1.04203,4.44098c-1.56436,0.85053 -2.91344,2.38102 -4.69309,2.55158c-0.43063,0.04127 -0.84911,0.05434 -1.25589,0.04122c-0.44557,0.68389 -0.72297,1.35428 -0.69798,1.95167c0.06916,1.65281 1.38297,3.01756 2.01884,4.54938c1.64911,3.97286 2.49219,9.76297 6.11863,12.62419c1.57376,1.24169 3.6555,1.70149 5.37618,2.73833c0.6516,0.39263 7.91745,5.74702 9.40374,6.1762c0.77157,0.2228 5.44468,-1.65299 5.70068,-1.7656c5.08177,-2.2355 5.2954,-4.94374 5.82089,-10.19213l-0.64097,-0.70278c0,0 -1.16066,-3.01423 1.90866,-4.15406c3.06932,-1.13983 4.22998,1.8744 4.22998,1.8744l1.03104,3.63945c-0.3136,2.9058 -0.85688,5.46446 -1.7744,7.67377c0.52357,0.90175 0.8886,1.92066 1.61238,2.67445c4.07466,4.24364 10.50304,0.66337 15.07796,-0.13509c5.23651,-0.91394 8.35257,-1.57329 13.23876,-3.32056c1.22645,-0.43857 3.64829,-0.73311 4.29864,-2.33334c1.30514,-3.21133 -0.21635,-6.43062 -1.36458,-9.37325l-0.83601,-2.1711c0,0 -1.16066,-3.01423 1.90866,-4.15406c3.06932,-1.13983 4.22998,1.8744 4.22998,1.8744l0.83601,2.1711c1.46866,3.85772 2.88908,7.81541 2.01977,11.86367c0.4568,0.85158 0.43968,1.73756 0.43968,1.73756c-0.09134,1.00428 -0.70674,2.09848 -0.27401,3.01283c1.01839,2.1519 6.13399,7.1348 9.05317,6.46531c2.48461,-0.56985 8.20976,-2.27521 10.27745,-3.78381c1.57362,-1.14813 2.41833,-3.60268 3.17023,-5.25636c2.05373,-4.51686 4.62959,-9.62696 3.58082,-14.45872l-0.38931,-0.83414c0,0 -1.16066,-3.01423 1.90866,-4.15406c3.06932,-1.13983 4.22998,1.8744 4.22998,1.8744l0.72536,2.06068c0.22429,1.61202 0.82746,3.21616 0.67288,4.83606c-0.11722,1.22846 -1.14312,2.2186 -1.45998,3.41255c-0.12539,0.47247 -0.2514,0.95691 -0.3799,1.45049c8.41282,-1.05149 16.1924,3.95832 24.58903,3.22237c1.31244,-0.11504 2.43612,-0.9874 3.66352,-1.45805c1.82307,-0.69905 5.2045,-1.69924 6.71369,-3.0426c3.15135,-2.80512 3.76361,-8.55764 4.79056,-12.22582c0.69553,-2.48433 2.67147,-4.64029 2.83162,-7.21199c0.16319,-2.62084 -1.81453,-5.77769 -2.5481,-8.27615l-2.0775,0.88651c0,0 -3.23734,0.52655 -3.77351,-2.65267c-0.37602,-2.22964 1.10391,-3.15458 2.02153,-3.50819c-0.26412,-1.96094 1.67805,-3.06996 1.67805,-3.06996c0.95253,-0.34048 2.55006,-0.07289 2.85756,-1.02145c0.47378,-1.46147 -0.79486,-2.96964 -1.07456,-4.47859c-0.3785,-2.04197 -0.48421,-4.12848 -0.89813,-6.16382c-1.19738,-5.88772 -3.24095,-14.25113 -6.93216,-19.22914c-1.03429,-1.39486 -3.49133,-0.39338 -5.24007,-0.56077c-0.73618,-0.07046 -1.45671,-0.81907 -2.14583,-0.55515c-0.71842,0.27515 -0.75256,1.34725 -1.30416,1.87644c-1.43642,1.37805 -3.01217,2.60592 -4.56431,3.86001c-0.07574,0.15721 -0.14635,0.31527 -0.20923,0.47463c0,0 -0.81,1.76291 -2.56567,1.94101l-0.68366,0.73822c0,0 -2.22622,2.3675 -4.63697,0.18124c-2.41076,-2.18626 -0.18455,-4.55376 -0.18455,-4.55376l1.3884,-1.46009c0.46403,-0.41752 0.93413,-0.82832 1.40822,-1.23467c1.04038,-5.24407 -8.26286,-8.87909 -12.20726,-10.62693c-0.36479,-0.16165 -4.67295,-2.18087 -5.35042,-2.14391c-2.80179,0.15284 -5.18828,2.10352 -7.813,3.07824l-1.47386,0.54734c0,0 -3.06932,1.13983 -4.22998,-1.8744c-1.16066,-3.01423 1.90866,-4.15406 1.90866,-4.15406z"/><path d="M231.14938,122.05202l0.0373,1.12585c0,0 -0.06228,3.22196 -3.34312,3.1608c-3.28084,-0.06116 -3.21856,-3.2831 -3.21856,-3.2831l0.34293,-2.84059c-2.78514,-1.86385 -8.43065,-6.0917 -11.6268,-5.79203c-1.05134,0.09857 -7.16664,3.41492 -7.40887,3.59864c-1.17787,0.89344 -2.03169,2.13722 -3.00766,3.24068c-0.5192,0.58702 -1.48047,1.05051 -1.47542,1.82804c0.01176,1.81124 1.3229,3.42366 1.52122,5.22444c0.23151,2.10211 -0.16519,4.22561 -0.2478,6.33842c0,0 -0.14225,3.2195 -3.4206,3.0798c-3.27835,-0.1397 -3.1361,-3.3592 -3.1361,-3.3592c0.09081,-1.81182 0.44678,-3.62952 0.27241,-5.43543c-0.22589,-2.33959 -1.72218,-4.56584 -1.46363,-6.90217c0.25958,-2.34556 5.36421,-7.90542 6.91149,-9.08907c1.7906,-1.3698 8.73272,-4.82576 11.19396,-4.96412c5.24019,-0.29455 11.58828,4.01385 15.8496,7.76622l1.62031,-1.72046c5.71223,-5.14313 10.39469,-10.87431 18.64297,-12.09663c1.2664,-0.18767 2.54742,0.3591 3.82775,0.32722c1.63804,-0.04078 3.30842,-0.98466 4.88438,-0.54411c1.77177,0.49528 2.91711,2.2225 4.48977,3.16458c1.20145,0.71971 2.42748,1.40813 3.62884,2.13149c2.4947,-1.9268 5.29016,-3.34357 8.89985,-3.88106c1.24898,-0.18598 2.51428,0.40933 3.77489,0.32925c1.76537,-0.11214 3.47599,-1.14678 5.22728,-0.90106c7.32171,1.02729 8.63713,10.55889 10.66776,16.19985c0.86911,2.41431 2.44779,4.7093 2.53183,7.26871c0.00937,0.28517 -0.017,0.56419 -0.07092,0.83846c1.54132,0.99659 2.3016,3.00072 3.25469,4.59319c2.44336,4.08254 5.14439,12.38498 3.9564,16.85246c-0.47264,1.77737 -2.59055,2.65057 -3.88671,3.97505c-2.35197,2.40334 -5.54669,3.96666 -8.70439,5.18922c0,0 -3.06932,1.13983 -4.22998,-1.8744c-1.16066,-3.01423 1.90866,-4.15406 1.90866,-4.15406c2.33375,-0.8187 4.55778,-2.09125 6.39338,-3.72629c0.71781,-0.63937 2.14069,-0.7313 2.36791,-1.65645c0.4462,-1.81681 -1.8025,-6.8142 -2.42125,-8.4159c-0.42756,-1.10673 -0.87304,-2.20736 -1.26404,-3.32706c-0.19945,-0.57116 0.0407,-1.51001 -0.44967,-1.79667c-0.43936,0.35794 -1.02476,0.65519 -1.76513,0.67164c-0.13165,0.07603 -0.26551,0.138 -0.40261,0.17274c-1.29662,0.32865 -2.64223,0.42976 -3.96332,0.64464l-2.32324,0.92967c0,0 -3.06932,1.13983 -4.22998,-1.8744c-1.16066,-3.01423 1.90866,-4.15406 1.90866,-4.15406l3.5722,-1.25969c0.60849,-0.09898 1.89605,-0.32435 3.34915,-0.55059c0.27673,-0.39839 0.47534,-0.81347 0.44046,-1.2784c-0.22015,-2.9349 -2.35225,-5.41527 -3.41218,-8.16788c-1.05992,-2.75262 -1.42414,-5.80569 -2.94489,-8.34142c-0.88548,-1.47645 -3.46126,0.44926 -5.20094,0.5806c-1.08276,0.08174 -2.15883,-0.51737 -3.23523,-0.37624c-2.0223,0.26519 -3.65133,0.99611 -5.08886,1.99512c0.07026,0.66294 -0.10161,1.4344 -0.7683,2.26277c-1.01229,1.25778 -2.15815,1.39523 -3.05412,1.21578c-0.41461,0.44 -0.82966,0.88835 -1.25243,1.33795l-0.33624,1.13387c0,0 -1.34963,2.93736 -4.34066,1.61196c-2.99105,-1.3254 -1.64141,-4.26275 -1.64141,-4.26275l1.4968,-2.8556c0.09782,-0.10404 0.19551,-0.20765 0.29311,-0.31082c-0.70935,-0.40525 -1.41471,-0.81653 -2.09533,-1.26285c-1.01912,-0.66829 -1.54406,-2.08688 -2.7185,-2.43045c-1.00165,-0.29303 -1.99898,0.68366 -3.04226,0.74515c-1.06661,0.06287 -2.12335,-0.51797 -3.18237,-0.37826c-6.52142,0.86038 -10.37693,6.23523 -14.85949,10.2712l-2.29578,2.44557c0,0 -0.69874,0.74308 -1.73718,1.01221z"/></g><g data-paper-data="{&quot;index&quot;:null}" fill="#ffa100"><path d="M254.39929,193.4601l0.66607,3.5077c-0.23374,1.27107 -1.65852,9.20857 -1.93969,9.79382c-3.51659,7.31976 -14.6733,9.05427 -21.1257,5.0036c-3.6567,-2.29559 -5.8812,-5.44735 -7.27581,-9.15438c-3.65422,0.87611 -7.8421,-0.11511 -10.5959,-2.70345c-4.51624,-4.24491 -7.093,-13.79455 -6.07676,-19.76775c0.71516,-4.20349 2.57319,-7.28477 7.65585,-7.20645c1.72002,0.02651 2.99873,1.68652 4.49809,2.52979c0,0 2.64715,1.75999 0.88717,4.40714c-1.76,2.64715 -4.40715,0.88716 -4.40715,0.88716c-3.37374,-3.24516 -2.65917,1.97882 -2.36011,4.78699c0.32557,3.05716 4.88392,14.89878 10.12066,10.37659c1.61439,-1.3941 2.16168,-3.04613 3.06714,-4.90765l0.15306,-1.50863c0,0 0.57492,-3.12642 3.70134,-2.55149c3.12642,0.57492 2.55149,3.70134 2.55149,3.70134l-0.70954,3.18216c-0.9703,1.9286 -1.70878,3.74078 -2.98862,5.31663c0.80399,2.88926 2.28044,5.40526 5.00466,7.13334c3.29565,2.09056 10.52892,1.74412 12.2488,-2.43744c1.03234,-2.50995 0.84735,-5.36198 1.3382,-8.03119l-0.52018,-0.58996c0,0 -0.88395,-3.05347 2.16952,-3.9374c3.05347,-0.88395 3.93741,2.16952 3.93741,2.16952z"/><path d="M246.62182,171.75633l3.34954,-1.15953c0.71658,-0.14132 1.84864,0.24146 2.1497,-0.42398c0.2694,-0.59542 -0.99882,-0.89138 -1.2898,-1.47654c-0.97433,-1.95944 -0.04713,-2.95239 -2.10631,-3.69467c-3.30213,-1.19033 -7.37834,-0.20282 -9.74709,1.98048c0,0 -1.56659,1.30405 -3.23507,0.56924l-0.02869,0.15601c0,0 -0.57492,3.12642 -3.70134,2.55149c-3.12642,-0.57492 -2.55149,-3.70134 -2.55149,-3.70134l0.69008,-3.75264c0.32042,-1.04919 0.9424,-2.05068 0.96125,-3.14753c0.02497,-1.45228 -2.80921,-0.75242 -4.2383,-1.01213c-0.9648,-0.17533 -1.89734,-0.78879 -2.86845,-0.65274c-1.33614,0.18719 -2.41341,1.27233 -3.72779,1.57687c-1.37298,0.31812 -2.86839,-0.13547 -4.21978,0.26457c-2.76844,0.81952 -0.18872,9.01505 0.29921,10.40582c0.60687,1.72974 1.98328,3.24943 3.55137,4.19884c0,0 2.64715,1.76 0.88716,4.40715c-1.76,2.64715 -4.40714,0.88715 -4.40714,0.88715c-2.56327,-1.80275 -4.84055,-4.33427 -5.98132,-7.25297c-1.29387,-3.31042 -2.9315,-10.16444 -1.28776,-13.66367c0.85835,-1.82728 2.1887,-3.60276 3.94811,-4.59281c1.66714,-0.93812 3.8226,-0.36436 5.67935,-0.8247c1.60261,-0.39733 2.99857,-1.55568 4.64007,-1.73376c1.55539,-0.16873 3.09849,0.44242 4.63681,0.72743c3.63714,0.67385 7.70516,0.72459 9.14398,5.32831c0.29103,0.93119 0.20023,1.89703 -0.00553,2.87329c7.16771,-4.04341 16.98973,-3.25754 19.66811,5.99838c0.5481,1.89407 2.03296,3.96874 1.25519,5.78063c-0.88895,2.07088 -3.63501,2.66489 -5.45251,3.99733l-3.90765,1.38546c0,0 -2.99973,1.05196 -4.05168,-1.94777c-1.05196,-2.99973 1.94777,-4.05168 1.94777,-4.05168z"/><path d="M261.94392,192.09094l3.71163,0.71379c1.5157,0.83993 3.46028,1.17009 4.54708,2.5198c3.79129,4.70851 0.54297,12.69066 -4.73836,14.67349c-4.13523,1.55255 -12.15639,-3.04312 -15.38229,-5.15649c0,0 -2.64715,-1.75999 -0.88717,-4.40714c1.76,-2.64715 4.40715,-0.88716 4.40715,-0.88716c2.81539,1.9067 5.28416,2.57838 8.45447,3.72622c0.53096,0.19223 1.02946,0.80506 1.56906,0.63862c2.77658,-0.8564 2.14528,-4.35996 0.02405,-5.07442l-2.85548,-0.49386c0,0 -3.12642,-0.57492 -2.55149,-3.70134c0.57492,-3.12642 3.70134,-2.55149 3.70134,-2.55149z"/><path d="M255.30078,171.95087c2.69142,0.46494 5.01378,0.82444 7.43535,2.69318c5.1646,3.98553 6.74553,12.81324 5.59999,19.04765l0.58025,4.12082c0.11606,0.70449 0.11451,1.44066 -0.02205,2.18328c-0.63504,3.45334 -3.94933,5.73802 -7.40267,5.10298c-1.05021,-0.19313 -1.99233,-0.63404 -2.77713,-1.2513l-2.09982,-1.58146c-0.45943,-0.22011 -1.19648,-0.51178 -1.60971,-0.8085c-0.82832,1.35948 -1.5587,2.91835 -2.89633,3.76573c-1.59372,1.00963 -3.44442,1.73646 -5.32654,2.00568c-0.65077,0.53459 -1.28044,1.07783 -1.78628,1.67199l-5.16991,1.23457c0,0 -4.0067,0.25323 -5.85346,-2.82671c-0.11304,-0.03034 -0.21888,-0.06415 -0.3169,-0.10155c-2.54114,-0.96916 -4.56506,-3.06089 -6.3784,-5.08782c-0.67382,-0.75318 -0.38731,-2.00042 -0.79157,-2.92663c-0.32334,-0.74084 -1.36089,-0.70857 -2.23041,-0.88236l-3.33906,-0.23815c-0.26164,-0.01517 -0.52526,-0.04668 -0.78968,-0.0953c-2.78239,-0.51166 -4.80612,-2.76261 -5.15532,-5.42421c-0.71925,-1.27216 -0.92593,-2.90077 -1.51036,-4.26587c-2.44986,-5.72218 -2.84653,-10.66701 -0.12143,-16.54163c0.37128,-0.80039 0.81813,-1.5614 1.32085,-2.2889c-1.20577,-0.30608 -2.45426,-1.0801 -3.5522,-2.67283c-3.60835,-5.23448 1.62613,-8.84284 1.62613,-8.84284c4.59223,-3.06968 13.466,-8.66308 18.66202,-1.88908c1.02609,1.33769 1.50617,2.99778 1.68032,4.74396c3.62939,-2.01829 9.41149,-3.09937 12.82391,-2.46375c2.64956,0.49353 5.976,0.17933 7.78737,2.17499c1.84679,2.03468 1.32053,5.35958 1.53769,8.09881c0.08715,1.09931 0.10594,2.21654 0.07536,3.34526z"/></g><path d="M236.94032,175.76507c0.62394,0.54177 1.13603,1.19992 1.50812,1.93363c6.13064,-2.29751 16.2618,3.98867 15.06916,10.92866c-0.499,2.90362 -1.56716,10.9047 -6.24585,11.20039c-4.86429,0.30744 -15.46816,-1.39273 -20.29113,-3.58621c-5.25616,-2.39051 -4.83334,-14.42779 -1.84601,-18.18443c1.74042,-2.18862 9.97663,-7.50779 11.80571,-2.29205z" data-paper-data="{&quot;index&quot;:null}" fill="#ffac1d"/><path d="M261.46643,185.1703l-0.02283,-0.20226c-0.48712,-1.06711 -0.97424,-2.13424 -1.46136,-3.20137c-2.11637,-4.4964 -4.90257,-2.49863 -7.9437,-7.0247c-1.5037,-2.23791 -0.33544,-7.13567 -3.00275,-8.82369c-4.11886,-2.60666 -9.75446,0.77437 -13.98829,-2.01909c-1.09298,-0.72114 -0.95273,-2.53587 -1.9033,-3.43647c-2.0635,-1.95505 -7.11011,1.53724 -8.60123,1.48704c-1.4268,-0.04803 -2.47416,-1.48759 -3.84479,-1.88683c-2.25834,-0.65782 -5.19648,2.34161 -6.61615,3.45791c0,0 -2.50678,1.95475 -4.46153,-0.55202c-1.95475,-2.50678 0.55203,-4.46154 0.55203,-4.46154c3.50003,-2.71002 7.00636,-5.55047 11.84856,-4.66287c1.07171,0.19645 1.67228,1.68001 2.75946,1.75212c0.92118,0.06109 1.48995,-1.17781 2.38319,-1.41107c2.98926,-0.78061 7.32558,-0.50832 9.9199,1.28717c1.01591,0.70309 0.80885,2.44263 1.7089,3.28897c1.33962,1.25971 3.67818,-0.30661 5.51336,-0.1901c1.39973,0.08887 7.16266,1.27256 8.26978,2.06574c4.51826,3.23702 2.68953,7.00073 4.90239,10.8136c0.69799,1.20265 4.99461,2.40104 5.38068,2.77497c1.30654,1.26544 1.86815,3.12145 2.80223,4.68218c0.52152,1.13876 1.04303,2.27752 1.56453,3.41628l0.34784,1.07814c0,0 0.88395,3.05347 -2.16952,3.9374c-3.05347,0.88395 -3.93741,-2.16951 -3.93741,-2.16951z" data-paper-data="{&quot;index&quot;:null}" fill="#ef9700"/><path d="M328.45712,202.80435l4.03916,1.87672c3.70083,4.32925 5.95339,10.23118 4.0033,16.0017c-0.84124,2.48932 -2.35785,3.94347 -4.10452,5.41025c-0.17764,2.57591 -1.13055,5.13834 -2.47531,7.35478c-1.02855,1.69527 -2.70249,5.63925 -4.15266,6.87388c-8.07883,6.87797 -19.41976,4.21837 -28.78601,3.86168c-3.85357,-0.14675 -6.02484,0.1781 -8.60091,-0.61047c-0.23352,1.6497 -0.63402,3.28543 -1.53847,4.6383c-3.42596,5.12452 -13.01321,8.23783 -18.83654,9.22189c-1.62146,0.27401 -3.28511,0.68503 -4.91391,0.45692c-6.82482,-0.9558 -11.38123,-6.49362 -13.68698,-12.12911c0,0 -1.16066,-3.01423 1.90866,-4.15406c3.06932,-1.13983 4.22998,1.8744 4.22998,1.8744c0.44002,1.25293 0.59842,2.63885 1.32007,3.75882c0.44463,0.69004 1.3248,0.99004 2.02431,1.43148c1.67192,1.05508 3.24073,2.57568 5.20845,2.84932c2.71377,0.3774 6.75895,-1.66839 9.13296,-2.54666c2.29269,-0.84819 6.5836,-2.03476 8.12345,-4.29511c0.59546,-0.87408 0.80013,-4.54781 0.86621,-5.21489l0.67568,-1.32392c0.10065,-0.33199 0.26878,-0.68255 0.52338,-1.04916c0.65363,-0.94121 1.41502,-1.32274 2.12626,-1.42269c0.70288,-0.1463 1.55142,-0.04511 2.49473,0.618c0.03986,0.02802 0.0787,0.05621 0.11654,0.08456c3.65336,2.57132 4.3773,1.19349 9.09943,1.37287c7.33678,0.27873 17.65607,3.16915 24.13399,-2.22302c1.59788,-1.33006 1.82815,-3.71102 2.94304,-5.45248c0.62091,-0.96986 1.20911,-2.06307 1.42782,-3.19298c-1.09722,-1.52493 -0.46917,-2.88066 0.07797,-3.62058c0.00546,-0.2567 0.13036,-3.01756 2.979,-3.20259c2.39644,-3.45391 2.104,-7.41309 -1.29568,-11.16856l-1.2959,-0.01857c0,0 -3.08574,-1.09621 -1.96949,-4.12657c1.11625,-3.03036 4.20199,-1.93415 4.20199,-1.93415z" data-paper-data="{&quot;index&quot;:null}" fill="#bf0000"/><path d="M169.22632,192.29523l-2.2993,2.63763c-3.89062,3.47316 -5.68361,10.26545 -1.84987,14.83069c1.71754,2.04525 5.564,3.67362 8.08462,5.03274c0.45487,0.16072 0.9246,0.45776 1.38564,0.95159c0.08202,0.08785 0.15769,0.17542 0.22738,0.26264c0.32736,0.39778 0.62693,0.92711 0.69314,1.57364c0.07083,0.64607 -0.11126,1.22464 -0.34815,1.68013c-0.0499,0.09944 -0.10557,0.20045 -0.1674,0.30302c-0.40823,0.67722 -0.8852,1.09112 -1.37295,1.32996c-4.73742,7.45333 6.78778,15.09216 11.79947,19.19273c1.48184,1.21244 3.13811,2.40292 5.0169,2.83116c0,0 3.16493,0.85107 2.2983,3.95919c-0.86663,3.10813 -4.03154,2.25705 -4.03154,2.25705c-8.47538,-2.50628 -16.77389,-10.12046 -20.58274,-18.12301c-1.46846,-3.08529 -3.17995,-5.7079 -2.38238,-9.36144c0.22189,-1.01646 0.81193,-1.89824 1.41648,-2.77472c-2.65248,-1.42473 -5.47455,-3.0378 -7.12635,-5.04567c-6.02143,-7.31949 -3.79764,-17.65459 2.43566,-23.58765l1.79269,-2.11241c0,0 2.1194,-2.46023 4.62457,-0.37887c2.50519,2.08137 0.38579,4.54157 0.38579,4.54157z" data-paper-data="{&quot;index&quot;:null}" fill="#bf0000"/><path d="M164.33598,200.64273l-0.24676,-0.19801c-0.13944,4.76221 3.48811,9.81612 6.33238,13.65489c0,0 1.92735,2.60811 -0.72843,4.50087c-2.65578,1.89276 -4.58312,-0.71535 -4.58312,-0.71535c-3.83521,-5.20232 -7.33236,-10.9319 -7.58316,-17.35819l0.82701,-2.53502c0,0 1.34963,-2.93736 4.34066,-1.61196c2.99105,1.3254 1.64142,4.26276 1.64142,4.26276z" data-paper-data="{&quot;index&quot;:null}" fill="#bf0000"/><path d="M294.5594,150.60082l1.3048,-0.38168c4.61597,-3.04619 8.39756,-7.90769 4.77693,-13.30867c-0.75861,-1.13162 -1.987,-1.90372 -2.77375,-3.01664c-2.30176,-3.25596 -1.93298,-4.57307 -6.11631,-5.0169c-0.71907,0.00735 -1.60955,-0.18054 -2.29846,-0.96038c-0.45597,-0.42309 -0.82577,-1.03176 -0.87894,-1.90245c-0.14483,-0.86059 0.07824,-1.53464 0.42727,-2.04654c0.17378,-0.3193 0.38819,-0.573 0.62366,-0.77432c1.53611,-3.77505 -0.17704,-5.10415 -2.49425,-8.6147c-1.83482,-2.77974 -4.31479,-7.54367 -8.32316,-8.19423c-3.22003,-0.52263 -7.68038,3.07936 -10.69894,4.85828l0.20904,0.53896c0,0 1.16066,3.01423 -1.90866,4.15406c-3.06932,1.13983 -4.22998,-1.8744 -4.22998,-1.8744l-1.2085,-3.16502c-1.59955,-3.09562 -5.63333,-5.23182 -9.39553,-5.11722c-2.1322,0.06494 -3.93213,1.62898 -5.93058,2.36178c-4.93817,1.81073 -9.50893,5.25571 -13.80661,8.34111l-0.00196,2.03659c0,0 -0.73682,3.14025 -3.93446,2.41665c-2.88234,-0.65225 -2.56786,-3.26807 -2.47783,-3.77758c-4.40054,-7.64535 -14.71044,-7.29565 -21.08821,-1.6557c-0.80686,0.71352 -3.87002,3.32049 -4.30311,4.33367c-0.48515,1.13498 -0.03238,2.5158 -0.49185,3.66102c-0.38344,0.95572 -1.08034,1.74854 -1.73212,2.5648c0.89686,1.11028 1.70136,2.27167 2.45805,3.26155c0,0 1.9592,2.5851 -0.67315,4.50916c-2.63237,1.92404 -4.59157,-0.66107 -4.59157,-0.66107c-0.13174,-0.17561 -3.08362,-4.45681 -4.1359,-4.9101c-1.64408,-0.70823 -3.56965,0.44995 -5.31101,0.87885c-7.06145,1.73929 -11.50523,4.31274 -15.77301,10.14843c-0.86396,1.18135 -2.90983,3.65401 -3.1523,5.17017c-0.36538,2.28458 0.53834,4.59911 0.63339,6.90981l0.47119,2.64163c0,0 0.53617,3.17924 -2.70115,3.70579c-3.23734,0.52655 -3.77351,-2.65268 -3.77351,-2.65268l-0.55422,-3.43843c-0.10851,-2.72165 -1.06349,-5.47387 -0.56127,-8.15257c0.60488,-3.22614 2.47596,-5.42382 4.3013,-7.93517c5.10831,-7.02811 11.03613,-10.61932 19.52639,-12.65171c2.2578,-0.54047 5.97354,-1.47895 8.54694,-0.86049c0.66774,-1.48714 0.77545,-3.26962 1.49354,-4.75513c0.77166,-1.59633 2.11615,-2.86578 3.31199,-4.18614c8.49207,-9.37624 23.0821,-11.16303 31.34639,-2.30989c7.79024,-5.59487 17.40555,-12.61224 27.13324,-10.43398c3.06436,0.68618 5.9496,1.10753 8.42456,3.40887c0.50168,0.46648 0.88675,1.02475 1.22441,1.62033c4.29347,-2.32318 9.20316,-6.14252 14.27099,-5.36617c6.11579,0.93688 9.9605,6.60436 12.90574,11.05772c1.47013,2.22291 3.51503,4.30193 4.01169,6.90727c0.51534,2.7034 0.53151,3.90514 0.13669,5.15251c0.08748,0.03633 0.17397,0.0756 0.25937,0.11809c2.84061,1.41341 4.46811,4.49769 6.2824,7.06773c3.45964,4.90078 7.18219,9.45735 4.63246,15.94744c-1.53755,3.91365 -5.02297,6.94361 -8.34652,9.26162l-2.72432,1.11457c0,0 -3.06932,1.13983 -4.22998,-1.8744c-1.16066,-3.01423 1.90866,-4.15406 1.90866,-4.15406z" data-paper-data="{&quot;index&quot;:null}" fill="#bf0000"/><path d="M278.11062,209.46419l-0.16657,3.91688c-1.8282,5.13487 -4.19439,11.4561 -9.70594,13.8666c-0.87248,0.3816 -1.81675,0.52924 -2.77231,0.64007l-0.4437,1.27284c-0.86677,1.34491 -1.41681,2.95794 -2.60029,4.03471c-2.44107,2.22096 -7.80397,3.36955 -10.93219,4.31201c-1.56417,0.47124 -3.12434,1.56225 -4.73234,1.27406c-1.8653,-0.33431 -3.22396,-1.99261 -4.83593,-2.98891c0,0 -2.59526,-1.83562 -0.75964,-4.4309c1.83562,-2.59527 4.43091,-0.75964 4.43091,-0.75964c0.68466,0.6281 1.14981,1.67031 2.05394,1.88428c0.65204,0.15432 1.13607,-0.72237 1.75322,-0.98327c4.13677,-1.74871 7.99408,-1.51849 10.17295,-5.61714l0.04814,-0.18181c-0.01045,-0.05265 -0.02012,-0.1064 -0.02899,-0.16125c-0.50728,-3.1381 2.63081,-3.64538 2.63081,-3.64538c5.80135,-0.7349 7.50653,-4.54103 9.47993,-9.72642l0.05363,-2.91163c0,0 0.10245,-3.17718 3.27963,-3.07473c3.17718,0.10245 3.07473,3.27962 3.07473,3.27962z" data-paper-data="{&quot;index&quot;:null}" fill="#bf0000"/><path d="M267.59884,134.83954l3.49549,-2.80928c1.56232,-0.35942 3.08927,-1.21029 4.68695,-1.07829c1.52514,0.12601 2.83008,1.16812 4.21745,1.81401c4.88476,2.27413 10.66463,5.18084 12.08559,11.08535c0.20145,0.83709 0.071,1.69868 -0.09407,2.56281c0.07508,0.01792 0.1503,0.03739 0.22566,0.05844c7.31765,2.04368 7.17813,10.8401 7.00528,16.95062c0,0 -0.01721,0.53343 -0.25608,1.15608c3.40079,5.70449 0.61825,12.23826 -1.9996,17.68042c0,0 -1.384,2.86174 -4.24574,1.47774c-2.86174,-1.384 -1.47774,-4.24574 -1.47774,-4.24574c1.49964,-3.08225 4.82868,-8.64354 2.00272,-12.05481c-0.34925,-0.42158 -2.13558,-1.53869 -3.38622,-2.29614c-0.91434,0.1438 -2.73711,0.12158 -3.50443,-2.08304c-1.04492,-3.00219 1.95726,-4.0471 1.95726,-4.0471l3.63331,-0.03011c0.23921,0.14721 0.51209,0.31122 0.80784,0.4889c-0.09377,-1.04977 -0.23172,-2.09637 -0.39429,-3.13499c-0.19129,-1.22202 0.34296,-3.49216 -1.53588,-3.65879c-1.29511,-0.11486 -3.252,1.00863 -4.21466,1.44451l0.23985,0.09046c0,0 -2.21794,2.27723 -4.49516,0.05929c-2.27723,-2.21794 -0.05928,-4.49515 -0.05928,-4.49515l1.77039,-1.48099c0.43159,-0.18338 0.86977,-0.38211 1.31446,-0.5812c-0.00114,-0.22713 0.0172,-0.36878 0.0172,-0.36878c1.18431,-5.70357 -7.86228,-10.90364 -12.61498,-9.18342l-0.79413,1.2806c0,0 -2.30071,2.19358 -4.49427,-0.10713c-2.19358,-2.30071 0.10713,-4.49427 0.10713,-4.49427z" data-paper-data="{&quot;index&quot;:null}" fill="#bf0000"/><path d="M243.66702,132.28707l-2.97693,-0.29636c-2.17026,-1.20929 -4.66549,-2.63736 -6.68883,0.21918c-1.04782,1.4793 -0.85728,3.77929 -2.23441,4.95818c-1.3574,1.16199 -3.40277,1.18291 -5.17789,1.38705c-0.69538,0.07997 -1.45907,-0.97181 -2.02418,-0.55879c-0.61848,0.45203 -0.97186,4.82085 -1.02931,5.32283c0,0 -0.40801,3.15254 -3.56054,2.74453c-3.15255,-0.40801 -2.74453,-3.56054 -2.74453,-3.56054c0.5177,-3.68672 0.53965,-7.19957 4.04362,-9.94655c1.26344,-0.99049 3.20045,-0.26823 4.80431,-0.3386c0.54319,-0.02383 1.30555,0.49242 1.63016,0.05625c0.85773,-1.15255 0.45646,-2.97736 1.36934,-4.08674c4.32306,-5.25359 9.1722,-4.21666 14.38025,-1.92026l0.12508,-0.33728c0,0 3.17856,-0.04192 3.22048,3.13663c0.04192,3.17856 -3.13662,3.22048 -3.13662,3.22048z" data-paper-data="{&quot;index&quot;:null}" fill="#bf0000"/><path d="M215.79752,213.27584l-0.38266,1.22185c1.45336,4.02309 4.08786,3.3885 6.61192,1.5927l1.66242,-2.85539c0.82043,-1.44155 2.63007,-2.01933 4.14526,-1.28655c0.87593,0.42362 1.46964,1.19634 1.69477,2.07013l0.66464,2.51701c1.16401,1.41713 1.60996,0.00651 2.78669,-1.50834c0,0 2.14794,-2.34335 4.4913,-0.1954c2.34335,2.14794 0.1954,4.4913 0.1954,4.4913c-2.81871,2.82127 -4.06849,5.5055 -9.07939,3.87986c-1.00239,-0.32519 -1.74848,-1.09197 -2.45941,-1.91933c-2.21291,2.30513 -7.43,3.07855 -10.2189,2.30399c-4.62824,-1.28542 -4.59833,-2.95109 -6.32111,-6.54574l-0.142,-4.05565c0,0 0.14479,-3.17553 3.32034,-3.03073c3.17554,0.14479 3.03073,3.32034 3.03073,3.32034z" data-paper-data="{&quot;index&quot;:null}" fill="#bf0000"/><path d="M196.39826,226.28617l-2.53577,-0.25128c-1.66834,-0.55114 -3.58844,-0.61395 -5.005,-1.65341c-5.26047,-3.86006 -4.35464,-11.59078 -2.96167,-17.05544c-0.12252,-0.16609 -0.2366,-0.34093 -0.34139,-0.52516c-1.277,-2.24511 -0.76835,-11.13795 0.99169,-14.39564c0.02652,-0.17512 0.05305,-0.35024 0.07957,-0.52536l0.34536,-0.11699c0.07876,-0.094 0.15947,-0.17725 0.24215,-0.24896c0.19156,-0.16615 0.39762,-0.19437 0.61297,-0.13406l-0.36359,-0.47169l3.01677,-2.32538c0.927,-0.74606 2.2368,-0.93858 3.37921,-0.38609c1.58049,0.76436 2.24211,2.66524 1.47774,4.24574c-0.21086,0.43601 -0.50821,0.80207 -0.86147,1.08758l-1.75049,1.48075c-0.2106,0.68518 -0.39805,1.37027 -0.56402,2.07814c-0.00225,0.2328 -0.00451,0.46559 -0.00676,0.69839c0,0 -0.0599,0.58708 -0.38105,1.22955c-0.12854,0.75902 -0.2374,1.56016 -0.32817,2.42571c-0.07807,0.74452 -0.64409,1.52249 -0.36292,2.21627c0.57445,1.41748 2.9433,0.83536 4.42833,1.20137l0.00701,-0.24269c0,0 3.14881,-0.43585 3.58466,2.71296c0.43585,3.14881 -2.71296,3.58466 -2.71296,3.58466l-2.47049,0.10024c-0.69887,-0.18725 -1.47179,-0.36397 -2.26341,-0.56979c-0.68379,2.97023 -1.32781,7.53895 0.90437,8.76683c0.92761,0.51026 2.06197,0.48121 3.09295,0.72183l1.19075,0.00981c0,0 3.17107,0.22219 2.94888,3.39324c-0.22218,3.17106 -3.39324,2.94888 -3.39324,2.94888z" data-paper-data="{&quot;index&quot;:null}" fill="#bf0000"/><path d="M205.38284,148.43451l-0.02063,-0.02751c-0.3293,-0.41223 -0.46107,-1.20835 -0.98793,-1.23667c-0.41222,-0.02216 0.34537,0.78907 0.30613,1.20003c-0.12691,1.32908 -0.40405,2.64914 -0.79556,3.92559c-0.56611,1.84568 -0.64314,4.1071 -2.06782,5.40991c-1.27115,1.1624 -3.33282,0.9557 -5.04938,1.09846c-0.61833,0.05142 -1.25975,-0.86153 -1.78431,-0.53013c-0.42197,0.26657 0.3724,0.97249 0.30192,1.46663c-0.18541,1.30003 -0.70169,2.53089 -1.05252,3.79633c0,0 -0.84974,3.06315 -3.91291,2.2134c-3.06315,-0.84974 -2.2134,-3.91291 -2.2134,-3.91291c0.35266,-1.27047 2.06779,-7.85593 2.79178,-8.43497c1.41281,-1.12994 3.54284,-0.79068 5.34622,-0.93445c0.50124,-0.03997 1.12559,0.7706 1.45666,0.39213c0.45288,-0.51773 -0.0946,-1.383 0.00539,-2.06355c0.38284,-2.60578 1.42699,-8.27091 4.28147,-9.51929c1.73426,-0.75846 3.70601,0.77266 5.55903,1.15902l0.60387,0.27452c0,0 2.86174,1.384 1.47774,4.24574c-1.384,2.86174 -4.24574,1.47774 -4.24574,1.47774z" data-paper-data="{&quot;index&quot;:null}" fill="#bf0000"/><g><path d="M148.15553,199.06622c0.29497,0.36496 0.50205,0.87739 0.50205,1.59691c0,2.5 -2.5,2.5 -2.5,2.5c-4.86048,-0.11411 -7.9659,2.46319 -11.28701,5.42548c-3.79647,3.38628 -9.44013,6.4074 -14.5106,6.73514c-2.21851,0.1434 -6.42764,0.20668 -8.1222,-1.66301c-2.70264,-2.98195 -1.20198,-9.61799 1.67075,-11.80418c2.29321,-1.74516 7.24698,-1.84564 9.94145,-2.44306c3.17004,-0.34293 5.98665,-1.40667 9.15391,-1.64959c4.10509,-0.31484 8.21507,-0.4118 12.34267,-0.4118h0.40551c0,0 1.9439,0 2.40347,1.71412z" fill="#bf0000"/><path d="M148.32741,198.44356c0,2.5 -2.5,2.5 -2.5,2.5h-2.75566c-3.73247,0 -8.1332,-0.63628 -11.80134,-0.04012c-2.61188,0.4245 -5.30018,1.39643 -7.97819,1.8402c-1.64321,0.2723 -4.8802,0.10911 -6.10016,1.81492c-0.87344,1.22128 -0.95222,2.84867 -1.47943,4.25454c0,0 -0.8778,2.34083 -3.21863,1.46302c-2.34082,-0.87781 -1.46302,-3.21864 -1.46302,-3.21864c0.26887,-0.71696 1.91833,-5.19615 2.19479,-5.54337c2.37602,-2.98409 5.85163,-3.13379 9.20908,-3.69642c2.65795,-0.4454 5.34287,-1.4333 7.94343,-1.83402c4.00326,-0.61686 8.63132,-0.04012 12.69346,-0.04012h2.75566c0,0 2.5,0 2.5,2.5z" fill="#d80000"/></g><g data-paper-data="{&quot;index&quot;:null}"><path d="M340.08805,203.19245l0.52047,0.08638c5.29762,0.87924 10.58297,1.83901 15.88531,2.98716c4.091,0.88584 7.81963,2.41054 11.92488,3.38392c3.52206,1.0933 9.89076,2.23588 13.02042,4.24146c3.92056,2.51241 6.55544,8.60082 3.40524,10.61736c-1.97518,1.26437 -7.38418,0.31276 -10.24687,-0.28447c-6.54275,-1.36499 -14.10887,-5.19347 -19.34321,-8.94589c-4.57894,-3.28259 -8.83992,-6.18455 -15.06597,-7.12071c0,0 -3.20865,-0.53254 -3.47569,-2.70581c-0.07686,-0.62548 0.13418,-1.02684 0.47378,-1.28126c0.40674,-1.3922 2.90166,-0.97813 2.90166,-0.97813z" fill="#bf0000"/><path d="M339.84089,201.95194l3.53678,0.587c5.21359,0.8653 11.09192,1.34977 16.29584,2.73877c3.38052,0.90231 6.93203,2.33302 10.39098,3.2864c4.36926,1.20428 8.84604,2.07477 12.21433,5.17499c0.39193,0.36074 2.9874,4.60589 3.40906,5.28642c0,0 1.37667,2.22189 -1.53392,2.48635c-2.91059,0.26445 -4.28725,-1.95743 -4.28725,-1.95743c-0.82682,-1.33444 -1.10177,-2.76593 -2.35325,-4.01365c-1.74797,-1.74274 -5.8851,-2.2904 -8.02318,-2.87714c-3.48453,-0.95623 -7.03867,-2.37378 -10.43625,-3.29917c-4.7716,-1.29961 -10.35179,-1.68391 -15.14226,-2.47898l-3.53678,-0.587c0,0 -3.20865,-0.53254 -3.47569,-2.70581c-0.26704,-2.17327 2.9416,-1.64073 2.9416,-1.64073z" fill="#d80000"/></g><g data-paper-data="{&quot;index&quot;:null}"><path d="M292.45049,101.13666l0.20742,-0.34625c2.11129,-3.52438 4.28001,-7.00097 6.59552,-10.39982c1.78653,-2.62237 3.95617,-4.66818 5.81265,-7.25915c1.78761,-2.09897 4.39034,-6.29485 6.75919,-7.66369c2.96749,-1.71475 8.2824,-0.75553 8.94335,2.55895c0.41442,2.07818 -1.78193,5.6508 -3.01498,7.49667c-2.81815,4.21878 -7.77512,8.01761 -12.03746,10.11591c-3.72866,1.83557 -7.08318,3.61696 -9.49114,7.80564c0,0 -1.27877,2.13463 -2.99187,1.29054c-0.49304,-0.24294 -0.73827,-0.59277 -0.83747,-0.96786c-0.93952,-0.97115 0.0548,-2.63096 0.0548,-2.63096z" fill="#bf0000"/><path d="M291.44676,100.72541l1.40954,-2.35294c2.07781,-3.46848 4.04986,-7.6149 6.52025,-10.82483c1.6048,-2.08521 3.65509,-4.04418 5.31986,-6.1633c2.10289,-2.67682 3.98326,-5.59393 7.24344,-6.61517c0.37935,-0.11883 4.29239,-0.01489 4.92121,-0.00239c0,0 2.05304,0.04083 1.45722,2.33593c-0.59583,2.29511 -2.64887,2.25428 -2.64887,2.25428c-1.23303,-0.02452 -2.3885,-0.50671 -3.67214,-0.17328c-1.79291,0.46572 -3.33682,3.28475 -4.36392,4.59587c-1.67391,2.1368 -3.71499,4.10406 -5.34187,6.1909c-2.28479,2.93078 -4.09978,6.90319 -6.00896,10.09018l-1.40954,2.35293c0,0 -1.27876,2.13464 -2.99187,1.29055c-1.71311,-0.84409 -0.43435,-2.97874 -0.43435,-2.97874z" fill="#d80000"/></g><g data-paper-data="{&quot;index&quot;:null}"><path d="M308.8746,108.53218l0.18414,-0.19575c1.87433,-1.99245 3.79579,-3.89343 5.83889,-5.60557c1.57635,-1.32099 3.4601,-1.77026 5.09457,-3.007c1.56318,-0.78938 3.86981,-3.09466 5.90328,-2.70811c2.54736,0.48424 7.00141,5.43897 7.4694,9.29554c0.29343,2.41807 -1.6539,4.39572 -2.74285,5.34391c-2.48881,2.16711 -6.7691,2.3059 -10.41818,1.24053c-3.19218,-0.93198 -6.06754,-1.6386 -8.2098,0.80528c0,0 -1.13525,1.20678 -2.5565,-0.93272c-0.40905,-0.61576 -0.60633,-1.15427 -0.67987,-1.60898c-0.76579,-1.68879 0.11693,-2.62713 0.11693,-2.62713z" fill="#bf0000"/><path d="M308.03963,107.36311l1.25134,-1.3302c1.84461,-1.96086 3.61831,-4.68846 5.78687,-6.09299c1.40872,-0.9124 3.18956,-1.363 4.64974,-2.26486c1.84447,-1.1392 3.50783,-2.68881 6.28324,-1.28196c0.32294,0.1637 3.61839,3.20076 4.14807,3.68456c0,0 1.72938,1.57955 1.16545,3.46073c-0.56393,1.88118 -2.2933,0.30163 -2.2933,0.30163c-1.03865,-0.94866 -1.9996,-2.30335 -3.09053,-2.9269c-1.52373,-0.87094 -2.90087,0.83126 -3.80185,1.39143c-1.46837,0.91293 -3.24166,1.37884 -4.66904,2.27635c-2.00461,1.26047 -3.64125,3.92929 -5.33615,5.73101l-1.25134,1.3302c0,0 -1.13524,1.20679 -2.5565,-0.93271c-1.42126,-2.1395 -0.28601,-3.34629 -0.28601,-3.34629z" fill="#d80000"/></g><g data-paper-data="{&quot;index&quot;:null}"><path d="M147.03031,228.87411c0.38995,0.24518 0.80873,0.63701 1.216,1.25395c1.41507,2.1436 -0.13909,2.71778 -0.13909,2.71778c-3.08619,1.01847 -3.55791,3.94157 -3.94579,7.24432c-0.44341,3.77547 -2.24184,7.66209 -5.20847,9.10764c-1.29801,0.63248 -3.87887,1.65346 -5.99061,0.43951c-3.36802,-1.93613 -6.19128,-7.97079 -5.64285,-10.50511c0.4378,-2.02306 3.46052,-3.24695 4.79742,-4.37804c1.7766,-1.0221 2.92548,-2.5811 4.75697,-3.51681c2.37378,-1.21278 4.87394,-2.23986 7.43993,-3.18785l0.2521,-0.09313c0,0 1.20846,-0.44646 2.46439,0.91774z" fill="#bf0000"/><path d="M146.78472,228.30075c1.41507,2.1436 -0.1391,2.71778 -0.1391,2.71778l-1.7131,0.63289c-2.32035,0.85724 -5.41628,1.32239 -7.35921,2.67603c-1.38344,0.96385 -2.50453,2.41464 -3.91818,3.41021c-0.8674,0.61088 -2.9721,1.2144 -2.76497,2.95721c0.1483,1.24778 1.02046,2.66127 1.48848,3.9878c0,0 0.77927,2.20872 -1.17281,1.99367c-1.95208,-0.21505 -2.73135,-2.42378 -2.73135,-2.42378c-0.23868,-0.6765 -1.74861,-4.89597 -1.77327,-5.25718c-0.21199,-3.10439 1.86395,-4.03099 3.6327,-5.28451c1.40025,-0.99236 2.51019,-2.45607 3.90006,-3.39693c2.13954,-1.44835 5.3431,-2.01675 7.8684,-2.94971l1.7131,-0.6329c0,0 1.55417,-0.57417 2.96924,1.56943z" fill="#d80000"/></g><g data-paper-data="{&quot;index&quot;:null}"><path d="M154.2212,142.50911c0.10513,0.28838 0.10581,0.64448 -0.09952,1.07596c-0.71343,1.49922 -2.4871,0.91003 -2.4871,0.91003c-3.4158,-1.21393 -6.35449,-0.40023 -9.55607,0.59351c-3.65983,1.13597 -8.52598,1.61763 -12.21685,0.61918c-1.61489,-0.43686 -4.6192,-1.3909 -5.28789,-2.91149c-1.06648,-2.42519 1.89191,-6.05105 4.55391,-6.68505c2.12498,-0.5061 5.66821,0.60113 7.75034,0.87788c2.34691,0.54145 4.64877,0.56734 6.96517,1.16812c3.00229,0.77866 5.94586,1.68914 8.87428,2.66191l0.2877,0.09557c0,0 1.37914,0.45813 1.21603,1.59437z" fill="#bf0000"/><path d="M154.52083,142.17621c-0.71343,1.49922 -2.4871,0.91003 -2.4871,0.91003l-1.95506,-0.64944c-2.64808,-0.87965 -5.58869,-2.29836 -8.36125,-2.80535c-1.97419,-0.36099 -4.15881,-0.41171 -6.18543,-0.77672c-1.24351,-0.22397 -3.4935,-1.08471 -4.84581,-0.34928c-0.9682,0.52654 -1.4885,1.4839 -2.26373,2.20273c0,0 -1.29078,1.19688 -2.70102,0.1188c-1.41025,-1.07809 -0.11946,-2.27497 -0.11946,-2.27497c0.39535,-0.36659 2.84382,-2.66396 3.13905,-2.80703c2.53729,-1.22955 5.04584,-0.50021 7.58841,-0.04633c2.01284,0.35931 4.19963,0.39965 6.15901,0.77223c3.01623,0.57355 6.13512,2.01014 9.01708,2.96749l1.95506,0.64944c0,0 1.77368,0.58919 1.06025,2.0884z" fill="#d80000"/></g></g></g></svg>