<svg version="1.1" xmlns="http://www.w3.org/2000/svg" xmlns:xlink="http://www.w3.org/1999/xlink" width="557.35514" height="157.28735" viewBox="0,0,557.35514,157.28735"><g transform="translate(34.03963,-256.49428)"><g data-paper-data="{&quot;isPaintingLayer&quot;:true}" fill-rule="nonzero" stroke="none" stroke-width="0.5" stroke-linecap="butt" stroke-linejoin="miter" stroke-miterlimit="10" stroke-dasharray="" stroke-dashoffset="0" style="mix-blend-mode: normal"><path d="M511.87988,312.22461c-0.35913,0.59197 -4.08501,4.43679 -5.07658,5.36032c-1.18012,1.09914 -2.16268,2.50788 -3.60806,3.2232c-5.18748,2.56729 -11.11832,2.07524 -16.69524,1.9735c-1.47321,-0.02687 -2.98132,0.19047 -4.41831,-0.13533c-1.75063,-0.3969 -3.258,-1.56679 -5,-2c-1.06926,-0.26591 -2.24457,0.23446 -3.30484,-0.06531c-1.43448,-0.40557 -2.56701,-1.58921 -4,-2c-2.61321,-0.74912 -5.5629,0.47386 -8.14698,-0.37027c-0.8962,-0.29276 -1.10624,-1.69986 -2,-2c-0.90909,-0.30529 -1.92006,0.59214 -2.85302,0.37027c-1.45027,-0.34489 -2.66667,-1.33333 -4,-2c-1.89839,0.02177 -3.82697,0.40325 -5.69516,0.06531c-1.76639,-0.31953 -3.258,-1.56679 -5,-2c-1.06926,-0.26591 -2.24457,0.23446 -3.30484,-0.06531c-1.43448,-0.40557 -2.53926,-1.70256 -4,-2c-1.63922,-0.33379 -3.35613,0.37305 -5.01589,0.16413c-3.7425,-0.47107 -7.44975,-1.24822 -11.10158,-2.19286c-4.15182,-1.07398 -8.05923,-3.06557 -12.27461,-3.85401c-2.5836,-0.48324 -5.25641,0.06958 -7.88478,0.08338c0,0 -12.83333,0 -14,0c-2.42654,0 -4.98017,-0.98379 -7.27685,-0.20063c-1.41094,0.48112 -2.55457,1.63536 -4,2c-2.68427,0.67717 -5.5996,-0.5225 -8.30484,0.06531c-1.75412,0.38114 -3.24685,1.61439 -5,2c-1.05813,0.23274 -2.20448,-0.48863 -3.24493,-0.18648c-1.15417,0.33517 -1.82217,1.76092 -3,2c-2.4341,0.49407 -5.00805,-0.33124 -7.45023,0.12118c-1.46577,0.27154 -2.55274,1.64271 -4,2c-1.46371,0.36135 -3.01452,0.06919 -4.52178,0.10379c-6.08937,2.30832 -12.58266,3.66153 -18.77528,5.69361c-2.03383,0.66739 -3.89879,1.90182 -6.00778,2.26791c-1.50056,0.26047 -3.06687,-0.78948 -4.54818,-0.43558c-0.917,0.21908 -1.10512,1.70322 -2,2c-1.63265,0.54146 -3.46679,0.00193 -5.14698,0.37027c-2.02065,0.44297 -3.37512,2.42562 -5.23153,3.3383c-0.59372,0.29189 -1.1955,0.56735 -1.80338,0.82934c0.63584,-1.48499 1.25968,-2.9617 2.14008,-4.20991c4.23563,-6.00519 10.51691,-10.79015 14.65244,-16.82564c3.39668,-4.95718 6.68173,-9.98999 10,-15c1.3564,-2.04793 0.76127,-2.82774 3.82886,-6.11395c6.66186,-7.13664 17.04307,-11.48273 25.01088,-16.7258c3.49977,-2.30296 6.68973,-5.15143 10.22631,-7.37721c10.26199,-0.05008 20.70078,-0.55925 30.91924,0.01837c12.25813,0.69291 23.25819,6.5372 35.35234,8.03029c5.88388,0.7264 11.94481,-0.08065 17.75028,1.1211c3.27399,0.67773 6.31296,2.2166 9.52825,3.13322c3.87286,1.10408 7.81474,1.94989 11.72211,2.92483c3.69912,0.94409 7.33705,2.17283 11.09736,2.83226c1.73524,0.3043 3.55556,-0.29508 5.28499,0.04065c6.76198,1.3127 7.79282,2.81122 13.66876,5.47406c1.47447,0.6682 2.96082,1.17175 4.45219,1.64811c1.63898,0.16233 2.98442,0.82899 3.55012,1.14911c1.16186,0.40373 2.32349,0.85678 3.48167,1.42367l-1.3541,-0.7918c0,0 5.07314,0 6.87464,4.17238c4.41357,5.64508 2.93062,14.90599 -0.49476,20.55223z" fill="#fffaae"/><path d="" fill="#fffaae"/><path d="M179.04451,323.63907c-5.81369,-1.22402 -11.80673,-1.59595 -17.54652,-3.12955c-1.7745,-0.47413 -3.38487,-1.53964 -5.19936,-1.82471c-3.94301,-0.61947 -8.10265,0.75438 -11.97201,-0.22497c-1.16511,-0.29489 -1.87125,-1.58725 -3,-2c-0.55196,-0.20184 -1.16438,0.36862 -1.74299,0.26562c-2.70619,-0.48174 -5.28111,-1.59606 -8,-2c-4.55753,-0.6771 -9.22816,0.36631 -13.82266,0.01969c-1.69486,-0.12786 -3.30777,-0.8411 -5,-1c-5.9409,-0.55785 -12.28805,0.0365 -18.26097,0.0365c-9,0 -18,0 -27,0c-2.52763,0 -5.1272,-0.73899 -7.58169,-0.13533c-1.74311,0.42871 -3.24937,1.6031 -5,2c-3.38653,0.7678 -7.1456,-0.56208 -10.50193,0.07913c-2.3057,0.44049 -4.55893,1.12443 -6.81947,1.75709c-5.51023,1.54218 -11.33945,3.43244 -16.33246,6.28592c-3.59702,2.05568 -6.47279,5.24302 -10.19217,7.10778c-4.31812,2.16495 -8.96307,3.70446 -13.65591,4.8492c-8.72123,0.09968 -21.13677,2.2144 -27.53896,-5.48029c-4.58714,-5.51321 -3.87741,-10.52089 -3.87741,-16.96352c0,-0.43631 -0.08488,-9.62701 0.20063,-10.72315c0.47611,-1.82785 1.64431,-3.40322 2.37027,-5.14698c1.052,-2.5269 0.99769,-4.51539 2.54922,-7.07286c0.70983,-1.17005 1.79012,-2.09702 2.8853,-2.9932c-0.00359,-0.11334 -0.00542,-0.22848 -0.00542,-0.34544c0,-4.88452 3.18114,-6.5879 5.39986,-7.18192c0.20587,-0.23749 0.44067,-0.44759 0.71481,-0.62077c2.11918,-1.33869 4.92355,-0.94379 7.38533,-1.41568c0,0 1.70281,0 3.48569,0.81137c6.30681,-1.18749 12.40994,-3.29966 18.70642,-4.87184c3.96655,-0.99041 8.01184,-1.67966 12.06886,-2.18466c0.76835,-0.09564 1.5707,0.29109 2.32073,0.09883c3.84947,-0.98677 7.30347,-3.3479 11.21694,-4.03848c1.96957,-0.34755 4.02721,0.3288 6,0c2.0795,-0.34658 3.92551,-1.62459 6,-2c1.46928,-0.26589 3.02108,0.42969 4.47822,0.10379c1.45477,-0.32537 2.53972,-1.70032 4,-2c5.7376,-1.17749 11.93875,0.66499 17.68289,-0.12814c2.4039,-0.33192 4.66667,-1.33333 7,-2c11.34676,-0.09099 22.6932,-0.07249 34.04026,-0.07249c5.48803,0 12.07713,-0.86352 17.41831,0.13533c1.76447,0.32997 3.24861,1.6065 5,2c1.17813,0.2647 2.43439,-0.28134 3.62195,-0.06283c0.31117,0.05725 0.62211,0.11618 0.93285,0.1767c0.50832,0.27241 1.017,0.53078 1.52688,0.76839c1.86933,0.87112 6.30921,0.85924 7.53947,1.875c4.51409,3.72702 10.98816,3.72728 15.3578,7.61048c6.81229,6.05392 7.22413,11.19264 12.49036,17.67416c2.27353,2.7982 5.75924,5.20029 7.51734,8.36446c0.4702,0.84626 0.5901,2.35057 1.0742,3.1113c0.9587,1.50652 2.66592,2.31084 3.20349,4.13189c1.95923,6.637 3.46465,13.57375 4.8057,20.52413c-5.34051,-1.25893 -10.57122,-3.03879 -15.94386,-4.16995z" fill="#fffaae"/><path d="M174.77591,324.8324c-4.47214,8.94427 -13.41641,4.47214 -13.41641,4.47214l-2.14439,-1.07219c-1.88791,-0.99208 -3.92966,-1.73472 -5.66374,-2.97624c-3.19441,-2.28704 -5.05729,-5.79528 -7.98776,-8.18347c-1.5135,-1.23342 -3.89355,-0.57551 -5.71751,-1.27205c-1.11937,-0.42747 -1.99581,-1.36765 -3.11684,-1.79075c-0.29851,-0.11266 -0.60041,0.25114 -0.91905,0.26751c-2.85542,0.14667 -5.71837,0 -8.57756,0c-13.22373,0 -26.44746,0 -39.67119,0c-6.05183,0 -13.205,-1.03956 -19.14986,-0.07492c-9.29936,1.50895 -18.4569,4.74478 -27.71188,6.41143c-1.02296,0.18422 -2.13874,-0.61083 -3.10911,-0.23835c-2.10909,0.8096 -3.71206,2.60139 -5.72395,3.62901c-6.36688,3.25203 -13.7151,4.72165 -20.48531,6.91477c-2.65864,0.86123 -5.25673,1.96314 -7.99362,2.52843c-1.30572,0.26969 -2.69837,-0.34226 -3.99952,-0.05131c-1.87826,0.41999 -3.4735,1.76795 -5.36097,2.14439c-1.61986,0.32306 -3.32875,-0.37896 -4.95452,-0.08707c-0.82408,0.14795 -1.40945,0.90411 -2.11417,1.35617c0,0 -8.94427,4.47214 -13.41641,-4.47214c-4.47214,-8.94427 4.47214,-13.41641 4.47214,-13.41641c2.15446,-0.97754 4.1665,-2.36552 6.46338,-2.93261c1.86665,-0.46086 3.88226,0.29094 5.76743,-0.08707c1.88708,-0.3784 3.48164,-1.72921 5.36097,-2.14439c1.49018,-0.32921 3.07921,0.236 4.57803,-0.05131c3.98687,-0.76426 7.6326,-2.77792 11.51271,-3.97119c4.29918,-1.32215 7.57121,-1.82737 11.47368,-3.74071c3.14947,-1.54416 5.97763,-3.78529 9.28677,-4.94855c1.72129,-0.60508 3.67385,0.09091 5.46844,-0.23835c2.26592,-0.41573 4.37353,-1.47635 6.62159,-1.97981c3.95339,-0.88538 7.991,-1.35237 11.9567,-2.18087c3.17742,-0.66381 6.25274,-1.82012 9.46395,-2.29422c6.82547,-1.00771 14.66532,-0.07492 21.59353,-0.07492c11.07934,0 22.15869,0 33.23803,0c6.13868,0 14.51774,-1.24621 20.52483,0.26751c1.94098,0.48911 3.58275,1.8053 5.46071,2.49803c3.05561,1.12714 6.54604,1.26738 9.29321,3.01673c4.76853,3.03652 6.94547,7.97079 12.08116,10.28418l2.14439,1.07219c0,0 8.94427,4.47214 4.47214,13.41641z" fill="#f5efa6"/><path d="M488.30512,320.54629c-5.547,8.3205 -13.8675,2.7735 -13.8675,2.7735l-4.00947,-2.73147c1.20888,-2.09538 -0.11683,0.62875 -3.92011,-0.63901c-0.959,-0.31967 -1.19819,-1.7886 -2.14439,-2.14439c-0.53434,-0.20092 -0.96381,0.73644 -1.53414,0.7612c-2.04123,0.08864 -4.15587,0.15276 -6.11442,-0.42908c-3.04841,-0.90561 -5.46546,-3.42191 -8.52918,-4.27426c-4.25804,-1.18462 -8.57957,-2.16256 -12.7715,-3.56322c-1.15287,-0.58377 -5.59518,-3.37983 -8.11694,-3.6025c-5.88886,-0.51999 -12.14179,0.07492 -18.07767,0.07492c-2.50179,0 -5.05548,0.50696 -7.50536,0c-0.01209,-0.0025 -0.02203,-0.00622 -0.02999,-0.01106c-0.43136,0.58811 -0.83861,1.20577 -1.50415,1.39424c-2.61427,0.74035 -5.40364,0.59478 -8.11561,0.7612c-1.73497,0.10647 -3.58098,-0.87973 -5.20783,-0.26751c-1.19455,0.44953 -2.13188,1.46175 -3.34094,1.87063c-1.72633,0.58381 -3.61376,0.5542 -5.36097,1.07219c-1.84926,0.54824 -4.62741,2.98858 -5.82292,3.90224c0,0 -8,6 -14,-2c-6,-8 2,-14 2,-14c4.35994,-3.22619 6.02222,-4.9215 11.33219,-6.8197c1.71603,-0.61344 3.63005,-0.50211 5.36097,-1.07219c1.82616,-0.60145 3.37128,-1.95216 5.23661,-2.41815c0.45117,-0.11271 8.71646,-0.44159 9.80289,-0.26751c0.29306,0.04696 0.19977,0.90034 0.46194,0.7612c0.89292,-0.47388 1.18056,-1.83958 2.14439,-2.14439c2.89273,-0.91481 8.05512,-0.7612 11.3322,-0.7612c6.0752,0 12.15231,-0.04187 18.22731,0c5.27712,0.03637 6.75502,-0.2822 12.04702,1.69334c2.3655,0.88306 4.52703,2.23776 6.79054,3.35664c6.07703,2.01845 12.17927,2.85381 17.98376,5.74954c0.60803,0.30333 0.86595,1.09191 1.45894,1.42369c0.15549,0.087 0.14068,-0.4353 0.31874,-0.42908c3.07122,0.1073 6.211,-0.00205 9.18781,0.7612c0.9792,0.25107 1.18539,1.82472 2.14439,2.14439c1.35623,0.45208 2.9651,-0.54002 4.28878,0c1.82625,0.74505 3.10496,2.43318 4.65744,3.64976l2.4237,1.55731c0,0 8.3205,5.547 2.7735,13.8675z" fill="#f5efa6"/><path d="M509.87626,358.80569c0.31795,1.18781 0.31795,2.09967 0.31795,2.09967v3.21658c-0.10727,1.79665 0.17398,3.65974 -0.32181,5.38996c-0.35497,1.23876 -1.8935,1.95262 -2.14439,3.21658c-0.40588,2.04477 0.45159,4.172 0.26562,6.24835c-0.31238,3.4878 -2.35837,10.71916 -4.28051,13.74855c-3.35694,5.29073 -9.60693,7.74754 -14.87888,10.29974c-1.51519,0.73351 -2.74561,2.04019 -4.33834,2.58521c-1.01444,0.34713 -2.18963,-0.30817 -3.21658,0c-0.69609,0.20888 -0.98988,1.10068 -1.62551,1.45302c-2.03688,1.12908 -4.08113,2.35199 -6.33008,2.95693c-1.69812,0.45677 -3.52617,-0.03895 -5.27289,0.16413c-1.81018,0.21045 -3.54922,0.8756 -5.36097,1.07219c-1.19659,0.12984 -2.436,-0.36643 -3.6095,-0.09883c-1.87648,0.4279 -3.47589,1.75612 -5.36097,2.14439c-4.31383,0.88853 -8.80807,0.13533 -13.21245,0.13533c-65.40386,0 -130.80772,0 -196.21158,0c-46.81916,0 -93.63831,0 -140.45747,0c-11.08292,0 -22.16583,0 -33.24875,0c-8.7985,0 -17.6357,0.79415 -26.39549,-0.03031c-4.10203,-0.38607 -8.08653,-1.60544 -12.1654,-2.18721c-6.55077,-0.93435 -13.16595,-1.344 -19.74165,-2.08274c-8.60637,-0.04806 -16.20935,-1.25387 -24.10156,-4.9355c-2.064,-0.96283 -4.28427,-1.75578 -6.02196,-3.22805c-1.68858,-1.43066 -6.84039,-8.70056 -7.73356,-11.09012c-0.29552,-0.79062 0.51619,-1.71918 0.24909,-2.51984c-0.15231,-0.45657 -1.04758,-0.21915 -1.29961,-0.62919c-1.34753,-2.19239 -2.65442,-4.47602 -3.35944,-6.95096c-0.50074,-1.75783 -0.00608,-3.66097 -0.18176,-5.48026c-0.48478,-5.02025 -2.07108,-9.08362 -0.52016,-14.12374c0.2973,-0.96617 1.60451,-1.28976 2.14439,-2.14439c0.11889,-0.1882 -0.55035,-0.12481 -0.5709,-0.34646c-0.16019,-1.72774 -0.4009,-3.53129 0.05619,-5.20515c0.88424,-3.2381 1.50508,-6.93243 3.90041,-9.28394c1.43951,-1.41318 4.19929,0.37109 6.03358,-0.46834c0.69539,-0.31823 -0.4627,-1.68767 0.00306,-2.29422c1.44543,-1.88237 3.22397,-3.65084 5.35858,-4.68816c1.28581,-0.62484 2.90663,0.36524 4.28878,0c0.46533,-0.12297 0.41946,-0.86641 0.62919,-1.29961c1.42959,-0.7148 2.94614,-1.27723 4.28878,-2.14439c1.32311,-0.85455 2.17767,-2.45552 3.65959,-2.98917c2.024,-0.72887 4.78308,0.85806 6.4325,-0.52298c1.65275,-1.38383 2.87283,-1.17317 4.69659,-2.26571c0.2129,-0.12755 6.99823,-2.64017 10.12416,-3.087c0.67004,-0.09578 4.69973,-1.2583 5.55161,-1.62968c2.57285,-1.12164 6.34954,-2.45184 8.84558,-3.38017c4.349,-1.61748 5.92896,-2.18136 10.32684,-3.37265c4.20373,-1.13869 6.22446,-2.04211 10.47627,-2.98559c1.65627,-0.36752 5.22417,-1.36765 6.91305,-1.52888c3.08629,-0.29463 6.60433,-0.83572 9.67518,-1.26218c3.75501,-0.52146 7.48909,-0.90776 11.31512,-0.90776c2.57573,0.04292 5.09966,-0.74245 7.66118,-1.016c10.74757,-1.14776 22.28476,-0.05619 33.08221,-0.05619c5.64705,0 10.50361,-1.07579 15.98859,0.32181c1.24871,0.31818 5.13577,1.73159 6.35648,2.14439c0.87436,0.29567 4.61931,1.69193 6.18293,2.02321c2.4748,0.52433 5.13098,-0.26306 7.58015,0.37027c0.97868,0.25308 9.02702,1.29117 11.0974,1.8953c1.25158,0.36521 6.76091,4.1205 8.42004,5.22659c2.06219,2.02339 6.85372,1.47056 9.59584,2.5981c1.58678,0.65247 8.99173,3.65668 10.55791,4.21854c1.31651,0.47228 7.69168,3.70986 9.65042,4.83799c2.77817,1.60008 5.16435,4.62199 8.50211,5.51368c0.93793,0.25057 6.38544,1.70163 8.27271,2.07908c1.75229,0.35046 5.87638,0.87061 7.62867,1.22107c1.88727,0.37746 8.6359,1.72265 10.0967,1.91638c3.46771,0.45988 7.36621,-0.05619 10.87776,-0.05619c8.57756,0 17.15511,0 25.73267,0c3.56329,0 7.16223,-0.12352 10.72194,0c0.50199,0.01742 1.01734,0.36068 1.49344,0.20063c1.51502,-0.50929 6.18077,-1.72753 7.05513,-2.02321c1.22071,-0.4128 9.32143,-1.54881 12.24437,-2.26557c1.55234,-0.38067 7.49818,-1.87454 8.57756,-2.14439c1.55061,-0.38765 6.98431,-2.09448 8.31214,-2.28883c3.50472,-0.51298 6.54542,-2.533 10.08735,-2.56471c2.01528,0.27074 4.29022,-0.00666 6.26098,-0.50744c1.01788,-0.25865 7.93319,-0.20063 9.22851,-0.20063c0.54926,0 9.93102,-0.01929 10.56612,0.05619c1.46329,0.17391 2.8324,0.84762 4.28878,1.07219c2.7162,0.41883 5.98158,-0.05619 8.73338,-0.05619c6.43317,0 12.86633,0 19.2995,0c5.00226,0 11.00022,-0.67367 15.9271,0.05619c2.91537,0.43188 5.66756,1.67775 8.57756,2.14439c3.58023,0.57412 7.25179,-0.05619 10.87776,-0.05619c2.0289,0.1903 4.15148,-0.0675 6.08671,0.5709c0.95999,0.31668 6.04833,0.08237 7.64551,0.48822c1.5491,0.39364 4.22917,0.7241 5.789,1.07281c1.57457,0.352 5.64841,1.47117 6.76987,1.61135c1.77319,0.22165 3.80424,0.619 5.57528,0.85726c2.48449,0.33425 4.0963,1.31681 6.57743,1.67511c1.47849,0.21351 4.11971,1.1048 5.54517,1.55152c1.22964,0.38536 5.79743,0.90625 6.84581,1.35019c1.91921,0.81271 4.60471,0.4037 6.42626,1.41652c2.36344,1.31411 6.38393,3.02617 8.48895,3.47998c2.34399,0.50533 4.4854,1.69699 6.7281,2.54549c0,0 6.56488,2.62595 4.39662,9.15268z" data-paper-data="{&quot;index&quot;:null}" fill="#d59213"/><path d="M-17.90739,345.80563c-2.16826,-6.52673 4.39662,-9.15268 4.39662,-9.15268c2.2427,-0.8485 4.38411,-2.04016 6.7281,-2.54549c2.10502,-0.45381 6.12551,-2.16587 8.48895,-3.47998c1.82155,-1.01282 4.50705,-0.60381 6.42626,-1.41652c1.04838,-0.44394 5.61617,-0.96483 6.84581,-1.35019c1.42546,-0.44672 4.06668,-1.33801 5.54517,-1.55152c2.48113,-0.3583 4.09294,-1.34086 6.57743,-1.67511c1.77104,-0.23826 3.80209,-0.63561 5.57528,-0.85726c1.12146,-0.14018 5.1953,-1.25935 6.76987,-1.61135c1.55983,-0.34871 4.2399,-0.67917 5.789,-1.07281c1.59718,-0.40585 6.68552,-0.17154 7.64551,-0.48822c1.93523,-0.6384 4.05781,-0.3806 6.08671,-0.5709c3.62597,0 7.29753,0.63031 10.87776,0.05619c2.91,-0.46664 5.66219,-1.71251 8.57756,-2.14439c4.92688,-0.72986 10.92484,-0.05619 15.9271,-0.05619c6.43317,0 12.86633,0 19.2995,0c2.7518,0 6.01718,0.47502 8.73338,0.05619c1.45638,-0.22457 2.82549,-0.89828 4.28878,-1.07219c0.6351,-0.07548 10.01686,-0.05619 10.56612,-0.05619c1.29532,0 8.21063,-0.05802 9.22851,0.20063c1.97076,0.50078 4.2457,0.77818 6.26098,0.50744c3.54193,0.03171 6.58263,2.05173 10.08735,2.56471c1.32783,0.19435 6.76153,1.90118 8.31214,2.28883c1.07938,0.26985 7.02522,1.76372 8.57756,2.14439c2.92294,0.71676 11.02366,1.85277 12.24437,2.26557c0.87436,0.29568 5.54011,1.51392 7.05513,2.02321c0.4761,0.16005 0.99145,-0.18321 1.49344,-0.20063c3.55971,-0.12352 7.15865,0 10.72194,0c8.57756,0 17.15511,0 25.73267,0c3.51155,0 7.41005,0.51607 10.87776,0.05619c1.4608,-0.19373 8.20943,-1.53892 10.0967,-1.91638c1.75229,-0.35046 5.87638,-0.87061 7.62867,-1.22107c1.88727,-0.37745 7.33478,-1.82851 8.27271,-2.07908c3.33776,-0.89169 5.72394,-3.9136 8.50211,-5.51368c1.95874,-1.12813 8.33391,-4.36571 9.65042,-4.83799c1.56618,-0.56186 8.97113,-3.56607 10.55791,-4.21854c2.74212,-1.12754 7.53365,-0.57471 9.59584,-2.5981c1.65913,-1.10609 7.16846,-4.86138 8.42004,-5.22659c2.07038,-0.60413 10.11872,-1.64222 11.0974,-1.8953c2.44917,-0.63333 5.10535,0.15406 7.58015,-0.37027c1.56362,-0.33128 5.30857,-1.72754 6.18293,-2.02321c1.22071,-0.4128 5.10777,-1.82621 6.35648,-2.14439c5.48498,-1.3976 10.34154,-0.32181 15.98859,-0.32181c10.79745,0 22.33464,-1.09157 33.08221,0.05619c2.56152,0.27355 5.08545,1.05892 7.66118,1.016c3.82603,0 7.56011,0.3863 11.31512,0.90776c3.07085,0.42646 6.58889,0.96755 9.67518,1.26218c1.68888,0.16123 5.25678,1.16136 6.91305,1.52888c4.25181,0.94348 6.27254,1.8469 10.47627,2.98559c4.39788,1.19129 5.97784,1.75517 10.32684,3.37265c2.49604,0.92833 6.27273,2.25853 8.84558,3.38017c0.85188,0.37138 4.88157,1.5339 5.55161,1.62968c3.12593,0.44683 9.91126,2.95945 10.12416,3.087c1.82376,1.09254 3.04384,0.88188 4.69659,2.26571c1.64942,1.38104 4.4085,-0.20589 6.4325,0.52298c1.48192,0.53365 2.33648,2.13462 3.65959,2.98917c1.34264,0.86716 2.85919,1.42959 4.28878,2.14439c0.20973,0.4332 0.16386,1.17664 0.62919,1.29961c1.38215,0.36524 3.00297,-0.62484 4.28878,0c2.13461,1.03732 3.91315,2.80579 5.35858,4.68816c0.46576,0.60655 -0.69233,1.97599 0.00306,2.29422c1.83429,0.83943 4.59407,-0.94484 6.03358,0.46834c2.39533,2.35151 3.01617,6.04584 3.90041,9.28394c0.45709,1.67386 0.21638,3.47741 0.05619,5.20515c-0.02055,0.22165 -0.68979,0.15826 -0.5709,0.34646c0.53988,0.85463 1.84709,1.17822 2.14439,2.14439c1.55092,5.04012 -0.03538,9.10349 -0.52016,14.12374c-0.17568,1.81929 0.31898,3.72243 -0.18176,5.48026c-0.70502,2.47494 -2.01191,4.75857 -3.35944,6.95096c-0.25203,0.41004 -1.1473,0.17262 -1.29961,0.62919c-0.2671,0.80066 0.54461,1.72922 0.24909,2.51984c-0.89317,2.38956 -6.04498,9.65946 -7.73356,11.09012c-1.73769,1.47227 -3.95796,2.26522 -6.02196,3.22805c-7.89221,3.68163 -15.49519,4.88744 -24.10156,4.9355c-6.5757,0.73874 -13.19088,1.14839 -19.74165,2.08274c-4.07887,0.58177 -8.06337,1.80114 -12.1654,2.18721c-8.75979,0.82446 -17.59699,0.03031 -26.39549,0.03031c-11.08292,0 -22.16583,0 -33.24875,0c-46.81916,0 -93.63831,0 -140.45747,0c-65.40386,0 -130.80772,0 -196.21158,0c-4.40438,0 -8.89862,0.7532 -13.21245,-0.13533c-1.88508,-0.38827 -3.48449,-1.71649 -5.36097,-2.14439c-1.1735,-0.2676 -2.41291,0.22867 -3.6095,0.09883c-1.81175,-0.19659 -3.55079,-0.86174 -5.36097,-1.07219c-1.74672,-0.20308 -3.57477,0.29264 -5.27289,-0.16413c-2.24895,-0.60494 -4.2932,-1.82785 -6.33008,-2.95693c-0.63563,-0.35234 -0.92942,-1.24414 -1.62551,-1.45302c-1.02695,-0.30817 -2.20214,0.34713 -3.21658,0c-1.59273,-0.54502 -2.82315,-1.8517 -4.33834,-2.58521c-5.27195,-2.5522 -11.52194,-5.00901 -14.87888,-10.29974c-1.92214,-3.02939 -3.96813,-10.26075 -4.28051,-13.74855c-0.18597,-2.07635 0.6715,-4.20358 0.26562,-6.24835c-0.25089,-1.26396 -1.78942,-1.97782 -2.14439,-3.21658c-0.49579,-1.73022 -0.21454,-3.59331 -0.32181,-5.38996v-3.21658c0,0 0,-0.91186 0.31795,-2.09967z" fill="#d59213"/><path d="M-0.82354,368.04597c-0.04498,-0.02342 -0.08994,-0.04739 -0.13485,-0.07192c-1.16184,0.0747 -2.34043,-0.03035 -3.50685,-0.00478c0,0 -7.5,0 -7.5,-7.5c0,-7.5 7.5,-7.5 7.5,-7.5c3.24792,0.15608 5.14357,-1.48179 8.44838,-2.04754c0.74116,-0.12688 4.22991,-1.53918 5.46115,-1.91942c1.48407,-0.45832 8.20241,-1.14112 10.0119,-1.3575c0.74089,-0.0886 4.95585,-1.65748 6.52125,-1.98026c2.80028,-0.5774 11.31724,-1.75075 12.86634,-2.14439c0.86365,-0.21946 14.51223,-1.84842 16.08292,-2.14439c1.25133,-0.23579 9.81768,-0.20063 12.44509,-0.20063c10.36455,0 20.72909,0 31.09364,0c2.50179,0 13.88287,-1.55012 15.43197,-1.94376c4.19816,-1.06678 10.2991,-0.20063 14.58948,-0.20063c11.43674,0 22.87348,0 34.31022,0c15.72552,0 31.45104,0 47.17656,0c8.98195,0 17.60749,-0.09319 26.4717,1.10869c1.53914,0.20869 3.16687,-0.17301 4.65093,0.28531c1.23124,0.38024 6.01204,0.76746 6.81027,0.96725c1.86705,0.46731 9.18265,2.68127 11.41703,3.32153c1.23876,0.35497 5.81288,1.71397 7.05512,2.02321c1.551,0.3861 6.79396,1.88323 7.9556,2.26557c1.22402,0.40287 4.01596,1.01659 4.37883,0.98918c2.85106,-0.21539 5.59931,0.8334 8.45851,0.8334c2.49443,0 4.00568,0.29025 6.40485,-0.39253c1.2394,-0.35272 3.06077,-1.03736 4.28809,-1.43005c1.33171,-0.42609 6.28438,-1.15182 7.40518,-1.29716c0.901,-0.11685 4.0855,-0.63913 4.54647,-0.98161c1.15909,-0.86114 2.3407,-1.70683 3.61238,-2.39084c2.05102,-1.10319 4.10434,-2.27152 6.33008,-2.95693c0.66978,-0.20626 3.49919,-1.05932 4.21399,-1.77412c5.95654,-0.50544 9.50537,-3.3645 15.60729,-4.76284c1.13778,-0.26074 8.23261,-1.84843 10.72195,-2.14439c0.88131,-0.10478 3.80442,-1.35365 4.76441,-1.67033c1.93523,-0.6384 4.05198,-0.45894 6.08671,-0.5709c5.31504,-0.29246 10.76366,0 16.08292,0c14.502,0 29.00451,-0.03642 43.50638,0.02555c3.73593,0.62266 7.55454,0.61329 11.30471,1.14348c1.11906,0.15821 15.47872,-0.19728 21.34371,1.29716c1.24872,0.31818 6.13593,1.73402 7.50536,2.14439c1.61255,0.48322 5.20773,1.83895 6.71668,2.58521c3.4183,1.69054 5.37027,1.71408 8.74371,3.42745c1.90854,0.96935 3.02321,3.16815 4.96087,4.07791c3.33097,1.56395 6.48719,-0.0392 9.22235,4.49643c5.33318,8.84385 -1.01051,16.40855 -6.69037,21.97953c-2.50927,1.67285 -4.36814,4.5155 -7.24576,5.41781c-7.06016,2.21378 -14.97719,-0.89124 -22.04045,0.47406c-2.2193,0.42898 -4.19408,1.83485 -6.43317,2.14439c-8.85986,1.22483 -19.06228,0.09684 -28.00623,0.09684c-40.02859,0 -80.05718,0 -120.08578,0c-71.12223,0 -142.24446,0 -213.36669,0c-5.77034,0 -11.58212,-0.74725 -17.31093,-0.05619c-2.92597,0.35296 -5.65476,1.76603 -8.57756,2.14439c-0.48935,0.06335 -9.05354,0.05619 -11.63832,0.05619c-6.79056,0 -13.58113,0 -20.37169,0c-6.68113,0 -14.62035,1.15567 -20.85035,-2.0457c-4.73374,-2.4325 -7.20164,-7.03284 -8.74598,-11.81613z" fill="#b97e11"/><g><g data-paper-data="{&quot;index&quot;:null}" fill="#d9d393"><path d="M138.94973,296.86232c-0.25353,-3.82184 1.23632,-8.07402 4.11637,-10.431l-0.28915,-0.34599l1.09539,-0.91544c0.14004,-0.12149 0.31365,-0.20796 0.50942,-0.24298c0.57857,-0.10349 1.1315,0.28164 1.23499,0.86022c0.04397,0.24581 -0.00027,0.48698 -0.11006,0.69103l-0.91064,1.73204c-1.03868,3.53969 -0.13772,7.11719 2.04091,10.03162c0,0 0.63609,0.8532 -0.21711,1.4893c-0.13884,0.10351 -0.27194,0.16759 -0.39748,0.20233c-0.25004,0.20986 -0.54939,0.26341 -0.54939,0.26341c-1.15343,0.20631 -3.01732,0.85888 -4.16207,0.38898c-0.7868,-0.32295 -1.30941,-1.13096 -2.0954,-1.45585l-0.66776,-0.66107c0,0 -0.6361,-0.8532 0.21711,-1.4893c0.06287,-0.04686 0.12455,-0.08566 0.1849,-0.11729z"/><path d="M137.84232,296.88561c0.91378,0.09244 2.26204,1.36283 3.10017,1.56119c0.47217,0.11176 0.98209,0.10429 1.51506,0.02479c0.00493,0.0044 0.0099,0.00882 0.01489,0.01326l-0.40352,0.07218c-0.28929,0.05174 -0.48186,0.3282 -0.43012,0.61749c0.02032,0.11359 0.07528,0.21227 0.15207,0.2871c-0.04608,0.09681 -0.06343,0.20843 -0.04311,0.32202c0.05174,0.28929 0.32822,0.48185 0.6175,0.43011c0.06221,-0.01113 0.11995,-0.03265 0.17174,-0.06244l0.37015,-0.20161c0.42154,-0.0129 0.82095,-0.07486 1.11248,-0.34725c0.05583,-0.05216 0.09739,-0.11286 0.12871,-0.17972l0.25826,-0.08027c0.25679,-0.07575 0.42084,-0.33426 0.37261,-0.60392c-0.04022,-0.22484 -0.21617,-0.39124 -0.42839,-0.42994l-0.01603,-0.00331c0.02906,-0.08264 0.07004,-0.15845 0.12906,-0.22379c0.23562,-0.26085 1.41553,-0.38392 2.51069,-0.43091c0.78204,0.63405 1.23271,0.75325 1.79164,0.52929l0.04924,0.10969l0.92086,-0.41341c0.05122,-0.02167 0.09788,-0.05094 0.13886,-0.08618c0.30337,0.33788 0.60291,0.69569 0.99774,0.85884c0.73104,0.30209 1.54541,0.43814 2.40395,0.48118l0.0374,0.14866c0.14292,0.06993 0.29688,0.11797 0.45552,0.14826l-0.03495,0.03579l0.32741,0.31975l-0.00971,0.01042l0.44809,0.41771c0.11857,0.11295 0.2875,0.16983 0.46106,0.13879c0.28929,-0.05174 0.48185,-0.32821 0.43011,-0.61749c-0.0207,-0.11575 -0.07737,-0.21601 -0.15645,-0.29133l-0.04847,-0.04733c0.14397,-0.06432 0.27582,-0.19098 0.39216,-0.31311c0.7941,-0.05549 1.59616,-0.13392 2.37978,-0.1861l-0.06461,-0.36124l1.70842,-0.30558c0.57857,-0.10349 1.1315,0.28164 1.23499,0.86022c0.08429,0.47125 -0.15558,0.92549 -0.5601,1.13371l-0.8929,0.48634c-0.37311,0.28037 -0.38803,0.6461 -0.19959,1.03228c-6.17308,1.02934 -12.51241,0.78967 -18.9344,0.78967c-0.01838,0 -0.0469,0 -0.08486,-0.00001c-0.79656,-1.70464 -2.5265,-2.88572 -4.5323,-2.88572h-0.74724c0.07873,-0.17641 0.14583,-0.35515 0.11414,-0.51115c-0.10587,-0.5212 -0.20882,-1.0583 -0.31915,-1.60023c1.05863,-0.47268 2.15386,-0.74859 3.16115,-0.6467z"/><path d=""/><path d=""/><path d=""/><path d=""/><path d=""/><path d=""/><path d=""/><path d="M157.24926,300.79612c0.88907,-0.5849 1.47398,0.30419 1.47398,0.30419l0.4247,0.6456c-0.76475,0.12688 -1.53204,0.23433 -2.30173,0.32522c-0.11736,-0.29592 -0.22554,-0.86148 0.40305,-1.27502z"/><path d=""/><path d=""/><path d="M142.60978,290.36348l-0.4286,0.9021c-0.62589,1.15693 -1.17971,3.86998 -0.7742,5.18425c0.15595,0.50545 1.13843,-0.30341 1.58669,-0.0226c2.44607,1.53235 1.41905,1.87328 0.29498,3.30488c0,0 -0.78905,0.71413 -1.50318,-0.07492c-0.38309,-0.42329 -0.33361,-0.82502 -0.2054,-1.1065c-0.52212,0.08493 -1.33613,-0.05884 -1.97908,-0.97451c-1.11374,-1.58613 -0.05927,-5.72835 0.67918,-7.26792l0.40686,-0.85764c0,0 0.45642,-0.96137 1.41781,-0.50495c0.96138,0.45643 0.50495,1.4178 0.50495,1.4178z"/><path d="M145.99009,297.60723l0.74589,-0.00575c2.93539,0.64108 5.66635,0.36889 7.92096,2.71462c0,0 0.36851,0.38386 -0.01535,0.75237c-0.38386,0.3685 -0.75238,-0.01535 -0.75238,-0.01535c-2.05664,-2.145 -4.54982,-1.86211 -7.25508,-2.39229l-0.63144,0.01057c0,0 -0.53207,0.00631 -0.53837,-0.52577c-0.0063,-0.53208 0.52577,-0.53837 0.52577,-0.53837z"/><path d="M138.92002,296.95243c0,0 0.43663,0.30413 0.1325,0.74076c-0.30413,0.43663 -0.74076,0.1325 -0.74076,0.1325c-1.03551,-0.87371 -2.33105,-0.34341 -3.46864,0.518c-0.06978,-0.35333 -0.14052,-0.71121 -0.21522,-1.07042c1.32532,-0.8444 2.82821,-1.23957 4.29212,-0.32084z"/><path d=""/><path d=""/><path d=""/></g><g data-paper-data="{&quot;index&quot;:null}"><path d="M137.94364,295.4995c-0.25353,-3.82184 1.23632,-8.07402 4.11636,-10.431l-0.28915,-0.34599l1.09539,-0.91544c0.14003,-0.1215 0.31365,-0.20796 0.50942,-0.24298c0.57858,-0.10349 1.1315,0.28164 1.23499,0.86022c0.04397,0.24581 -0.00027,0.48698 -0.11005,0.69103l-0.91064,1.73204c-1.03869,3.53968 -0.13773,7.11718 2.0409,10.03163c0,0 0.63609,0.8532 -0.21711,1.4893c-0.13884,0.10351 -0.27194,0.16759 -0.39748,0.20232c-0.25004,0.20987 -0.5494,0.26342 -0.5494,0.26342c-1.15343,0.20631 -3.01731,0.85887 -4.16208,0.38897c-0.7868,-0.32296 -1.3094,-1.13095 -2.0954,-1.45584l-0.66776,-0.66107c0,0 -0.63609,-0.8532 0.21711,-1.4893c0.06287,-0.04687 0.12456,-0.08565 0.1849,-0.11729z" fill="#ede3bf"/><path d="M136.83627,295.52279c0.91378,0.09243 2.26203,1.36282 3.10016,1.56118c0.47217,0.11175 0.98209,0.10429 1.51506,0.02479c0.00493,0.0044 0.0099,0.00883 0.01488,0.01325l-0.40353,0.07218c-0.28928,0.05174 -0.48186,0.32821 -0.43012,0.61749c0.02032,0.11359 0.07528,0.21227 0.15207,0.2871c-0.04608,0.09681 -0.06343,0.20843 -0.04311,0.32202c0.05174,0.28928 0.32821,0.48185 0.6175,0.43011c0.0622,-0.01113 0.11995,-0.03265 0.17174,-0.06245l0.37016,-0.20162c0.42154,-0.0129 0.82095,-0.07486 1.11247,-0.34725c0.05583,-0.05215 0.09739,-0.11286 0.12871,-0.17971l0.25826,-0.08028c0.25679,-0.07575 0.42084,-0.33426 0.37261,-0.60392c-0.04022,-0.22484 -0.21617,-0.39124 -0.42839,-0.42995l-0.01603,-0.00331c0.02908,-0.08263 0.07004,-0.15845 0.12905,-0.22379c0.23562,-0.26085 1.41552,-0.38392 2.51069,-0.43091c0.78203,0.63406 1.23271,0.75325 1.79164,0.52929l0.04924,0.10969l0.92086,-0.41341c0.05122,-0.02167 0.09788,-0.05093 0.13886,-0.08618c0.30336,0.33788 0.60291,0.69569 0.99774,0.85884c0.73104,0.30209 1.54541,0.43815 2.40395,0.48119l0.0374,0.14866c0.14291,0.06992 0.29688,0.11797 0.45553,0.14825l-0.03496,0.0358l0.32742,0.31974l-0.00971,0.01042l0.4481,0.41771c0.11857,0.11295 0.2875,0.16983 0.46105,0.13879c0.28928,-0.05174 0.48185,-0.32821 0.43011,-0.61749c-0.0207,-0.11574 -0.07737,-0.21601 -0.15645,-0.29133l-0.04846,-0.04734c0.14397,-0.06432 0.27582,-0.19098 0.39216,-0.31311c0.7941,-0.05548 1.59616,-0.13391 2.37978,-0.18609l-0.06461,-0.36124l1.70842,-0.30558c0.57858,-0.10349 1.1315,0.28164 1.23499,0.86022c0.08429,0.47125 -0.15559,0.92549 -0.5601,1.13371l-0.8929,0.48634c-0.75644,0.56843 -0.04058,1.4877 0.85721,2.21694c-0.01422,0.05787 -0.02638,0.11652 -0.03654,0.17584c-6.17755,1.03208 -12.52167,0.79204 -18.94858,0.79204c-0.01838,0 -0.0469,0 -0.08486,-0.00001c-0.79656,-1.70464 -2.5265,-2.88572 -4.5323,-2.88572h-0.74724c0.07873,-0.17641 0.14583,-0.35515 0.11414,-0.51115c-0.21137,-1.04052 -0.41105,-2.14441 -0.68121,-3.22357c0.85285,-0.3081 1.71302,-0.46752 2.51715,-0.38619z" fill="#eeeeee"/><path d="" fill="#eeeeee"/><path d="" fill="#e2e2e2"/><path d="" fill="#e2e2e2"/><path d="" fill="#e2e2e2"/><path d="" fill="#e2e2e2"/><path d="" fill="#e2e2e2"/><path d="" fill="#e2e2e2"/><path d="" fill="#e2e2e2"/><path d="M156.24317,299.43329c0.88907,-0.5849 1.47398,0.30419 1.47398,0.30419l0.60357,0.9175c0.27033,0.40613 0.55205,0.76839 0.84705,1.08764c-0.81131,0.13497 -1.62548,0.24804 -2.44234,0.34264c-0.05886,-0.08153 -0.11721,-0.16442 -0.17504,-0.24866l-0.61139,-0.92932c0,0 -0.5849,-0.88907 0.30418,-1.47399z" fill="#e2e2e2"/><path d="M127.1689,289.74309c0.29405,-0.0526 0.58147,0.02102 0.80664,0.18209c-0.32312,0.14283 -0.58967,0.32565 -0.79312,0.48762l-0.29009,-0.58018c0.08565,-0.04142 0.17832,-0.07195 0.27657,-0.08953z" fill="#ede3bf"/><path d="" fill="#e6ddba"/><path d="" fill="#e6ddba"/><path d="M141.60369,289.00067l-0.42859,0.90209c-0.62589,1.15693 -1.17971,3.86998 -0.77421,5.18425c0.15595,0.50544 1.13843,-0.30341 1.58669,-0.0226c2.44607,1.53235 1.41905,1.87328 0.29497,3.30489c0,0 -0.78905,0.71413 -1.50318,-0.07492c-0.38309,-0.42329 -0.33361,-0.82502 -0.2054,-1.1065c-0.52212,0.08493 -1.33613,-0.05884 -1.97908,-0.9745c-1.11373,-1.58613 -0.05927,-5.72835 0.67918,-7.26792l0.40686,-0.85764c0,0 0.45642,-0.96137 1.41781,-0.50495c0.96138,0.45643 0.50496,1.41781 0.50496,1.41781z" fill="#e6ddba"/><path d="M144.984,296.24441l0.74589,-0.00575c2.93539,0.64108 5.66635,0.36889 7.92096,2.71463c0,0 0.3685,0.38385 -0.01535,0.75237c-0.38385,0.3685 -0.75237,-0.01535 -0.75237,-0.01535c-2.05663,-2.14501 -4.54982,-1.8621 -7.25507,-2.39229l-0.63144,0.01057c0,0 -0.53207,0.0063 -0.53837,-0.52577c-0.0063,-0.53208 0.52577,-0.53837 0.52577,-0.53837z" fill="#f3f3f3"/><path d="M137.91394,295.58962c0,0 0.43663,0.30413 0.1325,0.74076c-0.30413,0.43663 -0.74076,0.1325 -0.74076,0.1325c-0.84702,-0.71468 -1.86803,-0.48994 -2.83426,0.087c-0.07472,-0.3303 -0.15446,-0.65991 -0.24154,-0.98637c1.16755,-0.58648 2.43988,-0.75472 3.68407,0.02611z" fill="#f3f3f3"/><path d="" fill="#f3f3f3"/><path d="M144.43926,302.54797c1.97076,-0.3576 3.35108,-0.47309 4.70092,-0.01465c-1.56,0.02539 -3.12739,0.02274 -4.70092,0.01465z" fill="#f3f3f3"/><path d="" fill="#f3f3f3"/></g></g><g><g fill="#d9d393"><path d="M352.40656,279.331c-0.83694,0.28342 -2.13594,-0.26542 -2.94868,-0.46431c0,0 -0.21093,-0.05162 -0.37969,-0.21242c-0.0879,-0.0304 -0.17988,-0.08205 -0.27418,-0.16205c-0.57945,-0.49168 -0.08777,-1.07114 -0.08777,-1.07114c1.68365,-1.97908 2.48655,-4.48813 1.90543,-7.05744l-0.57113,-1.2753c-0.06906,-0.15035 -0.08975,-0.32421 -0.04737,-0.49741c0.09976,-0.40767 0.51112,-0.6573 0.9188,-0.55754c0.13793,0.03375 0.25778,0.10318 0.35212,0.19607l0.73949,0.70164l-0.22162,0.23358c1.71015,1.58948 2.58982,4.1732 2.53925,6.61656c-0.53612,0.74267 -0.51985,1.70911 -0.53313,2.67501c-0.49065,0.23418 -0.87362,0.69937 -1.39152,0.87475z"/><path d="M336.98671,283.74596l0.01248,-0.01025c0.06292,-0.05051 0.11031,-0.12139 0.13098,-0.20583c0.00348,-0.01421 0.0061,-0.02843 0.00792,-0.04262c0.17402,-0.10141 0.33854,-0.22793 0.49109,-0.38201c0.66478,-0.67146 1.36274,-1.94827 1.18096,-2.95868c0.6726,-0.47934 1.2241,-1.1023 0.71056,-1.5414l-0.61448,-0.38673c-0.27893,-0.16657 -0.42946,-0.50108 -0.34821,-0.83313c0.09976,-0.40768 0.51112,-0.6573 0.9188,-0.55754l1.20379,0.29458l-0.06229,0.25454c0.55612,0.07241 1.12418,0.16437 1.68762,0.2396c0.07742,0.09227 0.16569,0.18846 0.2654,0.24076l-0.03667,0.03156c-0.05974,0.05013 -0.10463,0.11903 -0.12459,0.20058c-0.04988,0.20384 0.07493,0.40952 0.27876,0.4594c0.12229,0.02993 0.24524,-0.00303 0.33482,-0.07819l0.33812,-0.27755l-0.00645,-0.00786l0.24771,-0.21315l-0.02331,-0.02709c0.11442,-0.01445 0.22631,-0.04176 0.3313,-0.08517l0.03334,-0.10425c0.61379,0.00793 1.20027,-0.05244 1.73484,-0.23486c0.28871,-0.09853 0.51827,-0.34006 0.74966,-0.56722c0.02761,0.02696 0.05956,0.04991 0.09509,0.06765l0.63768,0.33602l0.04002,-0.07596c0.38827,0.18473 0.71481,0.12006 1.30064,-0.29666c0.77838,0.08272 1.61371,0.22346 1.76991,0.41996c0.03913,0.04922 0.06491,0.10509 0.08191,0.16529l-0.01158,0.00163c-0.15298,0.01804 -0.28586,0.12872 -0.32463,0.28715c-0.0465,0.19 0.0588,0.38162 0.2384,0.44714l0.18044,0.06882c0.01931,0.04906 0.04621,0.09418 0.08365,0.13386c0.19552,0.20723 0.47737,0.26934 0.77721,0.29748l0.25473,0.16032c0.03558,0.02356 0.07576,0.04151 0.11958,0.05223c0.20384,0.04988 0.40953,-0.07493 0.45941,-0.27876c0.01959,-0.08004 0.01224,-0.16037 -0.01626,-0.23143c0.05808,-0.04987 0.1017,-0.11773 0.12128,-0.19777c0.04988,-0.20384 -0.07493,-0.40952 -0.27877,-0.4594l-0.28433,-0.06958c0.00375,-0.00293 0.0075,-0.00586 0.01121,-0.00877c0.37626,0.08062 0.73932,0.10886 1.08085,0.05045c0.29043,-0.04968 0.67537,-0.26944 1.06967,-0.48765c-0.08091,0.9512 0.04463,1.99328 -0.24211,2.88776c-0.38673,1.20638 -1.12672,2.2855 -1.88615,3.29949c-0.08863,0.11835 -1.07047,0.14247 -2.24455,0.12773c0.21105,-0.26355 0.43544,-0.56262 0.68973,-0.89347c0.09019,-0.11736 0.42154,-0.02023 0.4111,-0.16787c-0.0289,-0.40842 -0.83979,-0.02235 -1.21367,-0.18925c-0.31354,-0.13996 -0.58119,-0.36579 -0.87179,-0.54868c-0.19959,-0.04642 -0.39918,-0.09284 -0.59877,-0.13926l-0.00001,-0.00003c-0.21169,0.32355 -0.64084,0.32569 -0.64084,0.32569c-1.436,-0.01408 -3.16605,0.73978 -2.99336,1.56139c-2.46442,0.22214 -4.78618,0.3725 -7.28123,0.43887c0.00274,-0.0994 0.00858,-0.19742 0.02339,-0.2919z"/><path d="M335.95742,283.81567c0.01207,0.07748 0.04839,0.16204 0.09112,0.24258c-0.04851,0.00088 -0.0971,0.00172 -0.14577,0.00253c-0.64734,0.01081 -1.3047,-0.03355 -1.94019,0.09022c-0.12383,0.02412 -0.1701,0.44933 -0.1934,0.32534c-0.07611,-0.40503 -0.05471,-0.82063 -0.0478,-1.23466c0.72806,0.37384 1.51058,0.60221 2.23604,0.574z"/><path d=""/><path d="M349.52696,283.55812c0.39394,-0.36613 0.8606,-0.93545 1.38685,-0.82451c0.49496,0.10436 0.83928,0.24967 1.06373,0.42274c-0.08962,0.12313 -0.18008,0.24522 -0.27083,0.36638c-0.08911,0.11899 -1.0811,0.14273 -2.26358,0.12749c0.02474,-0.03211 0.05245,-0.06293 0.08382,-0.0921z"/><path d="M344.10053,283.55471c0.02468,0.01684 0.04929,0.0337 0.07384,0.05058c-0.36596,0.03282 -0.72883,0.06405 -1.08966,0.09365c0.42626,-0.5465 1.01582,-0.14424 1.01582,-0.14424z"/><path d=""/><path d=""/><path d=""/><path d=""/><path d=""/><path d="M341.0384,278.76439c0.60734,0.45681 0.15053,1.06414 0.15053,1.06414l-0.4775,0.63482c-0.77813,0.99312 -1.64634,1.68989 -2.62087,2.0809c0.45139,-0.65004 0.80993,-1.5058 0.74008,-2.24683c0.23161,-0.21863 0.45519,-0.47036 0.67226,-0.75574l0.47138,-0.62674c0,0 0.45681,-0.60734 1.06413,-0.15053z"/><path d=""/><path d=""/><path d=""/><path d="M352.36403,270.9998c0.70567,-0.28206 0.98772,0.42359 0.98772,0.42359l0.2514,0.6295c0.33179,0.82058 0.7206,2.62605 0.57791,3.96734c-0.18337,0.33757 -0.27621,0.71204 -0.32449,1.10567c-0.02986,0.04855 -0.06186,0.09433 -0.09611,0.1371c-0.49937,0.62366 -1.08595,0.68952 -1.45423,0.60552c0.07871,0.20636 0.09593,0.49488 -0.19612,0.77934c-0.5444,0.53023 -1.07463,-0.01418 -1.07463,-0.01418c-0.73674,-1.07079 -1.45333,-1.35992 0.35878,-2.34201c0.33209,-0.17997 0.99591,0.44063 1.12977,0.08742c0.34807,-0.91841 0.07534,-2.87679 -0.3187,-3.72944l-0.26489,-0.66215c0,0 -0.28206,-0.70566 0.4236,-0.98772z"/><path d="M349.55626,277.40524c-0.02842,0.37891 -0.40732,0.3505 -0.40732,0.3505l-0.44953,-0.03592c-1.95177,0.25624 -3.71586,-0.05745 -5.27798,1.37877c0,0 -0.27989,0.257 -0.53688,-0.02288c-0.25699,-0.27988 0.02288,-0.53688 0.02288,-0.53688c1.71224,-1.57036 3.64626,-1.25362 5.76702,-1.57854l0.5313,0.03764c0,0 0.37892,0.02841 0.3505,0.40731z"/><path d=""/><path d="M339.42847,282.53095c0.11244,0.36296 -0.25051,0.4754 -0.25051,0.4754l-0.40682,0.12306c-0.30682,0.18839 -0.62544,0.51839 -0.6845,0.87254c-0.25553,0.00955 -0.51242,0.0182 -0.77104,0.02595c-0.06055,-0.99067 0.33198,-1.10417 1.14363,-1.59148l0.49383,-0.15597c0,0 0.36296,-0.11245 0.4754,0.25051z"/><path d="M334.41118,283.11285c0.41617,0.14672 1.10578,0.62352 1.71158,0.94404c-0.07315,0.00137 -0.14648,0.00267 -0.21998,0.0039c-0.52009,0.00868 -1.04665,-0.01824 -1.56314,0.03502c-0.22304,-0.11965 -0.43465,-0.23501 -0.62633,-0.33867c-0.00023,-0.27014 0.01321,-0.54177 0.00903,-0.81149c0.21375,0.02863 0.44129,0.07992 0.68885,0.1672z"/><path d="M349.95672,282.22228c-0.16095,0.3442 -0.50515,0.18325 -0.50515,0.18325l-0.33875,-0.16044c-2.1239,-0.5084 -2.99906,-0.58025 -4.75591,0.7722c0,0 -0.30108,0.23178 -0.53287,-0.06931c-0.23179,-0.30109 0.0693,-0.53287 0.0693,-0.53287c1.9534,-1.50377 3.13183,-1.46983 5.47197,-0.8868l0.40815,0.18881c0,0 0.3442,0.16095 0.18325,0.50515z"/><path d=""/></g><g><path d="M354.34147,275.7224c0.0069,0.00586 0.01366,0.01173 0.02026,0.01761c-0.00218,0.00286 -0.00435,0.00573 -0.00651,0.00861c-0.33056,0.44037 -0.46031,0.96202 -0.51391,1.51691c-0.5324,0.21792 -0.92904,0.72706 -1.47644,0.91242c-0.83695,0.28341 -2.13594,-0.26542 -2.94868,-0.46431c0,0 -0.21094,-0.05162 -0.3797,-0.21242c-0.0879,-0.0304 -0.17988,-0.08204 -0.27418,-0.16205c-0.57946,-0.49168 -0.08777,-1.07113 -0.08777,-1.07113c1.68365,-1.97908 2.48655,-4.48813 1.90543,-7.05744l-0.57113,-1.2753c-0.06907,-0.15036 -0.08975,-0.32422 -0.04736,-0.49742c0.09976,-0.40768 0.51112,-0.6573 0.9188,-0.55754c0.13794,0.03375 0.25777,0.10318 0.35212,0.19607l0.7395,0.70164l-0.22162,0.23359c1.94656,1.80921 2.81717,4.90656 2.46468,7.61885c0.04158,0.02526 0.0838,0.05567 0.1265,0.0919z" fill="#ede3bf"/><path d="M335.91571,282.66263c0.03956,0.25395 0.33961,0.5838 0.27223,0.59987l0.64817,0.42095c0,0 0.32484,-0.19712 0.12773,-0.52196c-0.01453,-0.02394 -0.02975,-0.04503 -0.04548,-0.06359c0.00223,-0.17146 0.0013,-0.34341 0.02665,-0.50499l0.01248,-0.01025c0.06292,-0.05051 0.11031,-0.12139 0.13097,-0.20582c0.00348,-0.01421 0.00612,-0.02844 0.00792,-0.04262c0.17403,-0.10141 0.33854,-0.22793 0.49109,-0.38201c0.66479,-0.67146 1.36275,-1.94828 1.18097,-2.95869c0.6726,-0.47934 1.2241,-1.10229 0.71056,-1.5414l-0.61448,-0.38673c-0.27893,-0.16657 -0.42946,-0.50108 -0.34821,-0.83313c0.09976,-0.40767 0.51112,-0.6573 0.9188,-0.55754l1.20379,0.29458l-0.06229,0.25453c0.55611,0.07242 1.12418,0.16436 1.68762,0.2396c0.07742,0.09227 0.16569,0.18846 0.2654,0.24077l-0.03666,0.03156c-0.05974,0.05013 -0.10464,0.11903 -0.1246,0.20058c-0.04988,0.20384 0.07493,0.40952 0.27876,0.4594c0.12229,0.02993 0.24524,-0.00302 0.33481,-0.07819l0.33812,-0.27754l-0.00646,-0.00786l0.24772,-0.21316l-0.02331,-0.02709c0.11442,-0.01445 0.22631,-0.04176 0.3313,-0.08517l0.03334,-0.10425c0.61379,0.00792 1.20027,-0.05244 1.73484,-0.23486c0.28871,-0.09852 0.51827,-0.34006 0.74966,-0.56722c0.02761,0.02696 0.05955,0.04992 0.09508,0.06766l0.63768,0.33601l0.04002,-0.07595c0.38827,0.18473 0.7148,0.12004 1.30063,-0.29667c0.77838,0.08272 1.61371,0.22346 1.7699,0.41996c0.03912,0.04922 0.06491,0.10509 0.08192,0.16529l-0.01158,0.00163c-0.15298,0.01803 -0.28586,0.12872 -0.32463,0.28715c-0.0465,0.19 0.0588,0.38162 0.2384,0.44715l0.18045,0.06881c0.01932,0.04905 0.04621,0.09417 0.08365,0.13386c0.19552,0.20723 0.47737,0.26934 0.77721,0.29748l0.25474,0.16033c0.03558,0.02357 0.07576,0.0415 0.11958,0.05222c0.20384,0.04988 0.40952,-0.07493 0.4594,-0.27876c0.01959,-0.08004 0.01224,-0.16037 -0.01625,-0.23142c0.05809,-0.04987 0.10169,-0.11773 0.12127,-0.19777c0.04988,-0.20384 -0.07493,-0.40952 -0.27876,-0.4594l-0.28433,-0.06958c0.00375,-0.00293 0.00749,-0.00586 0.0112,-0.00877c0.37626,0.08062 0.73932,0.10886 1.08085,0.05045c0.39461,-0.0675 0.96369,-0.44899 1.49366,-0.71394c-0.706,1.20431 -0.1882,2.90645 -0.62438,4.26709c-0.38673,1.20638 -1.12672,2.2855 -1.88615,3.29949c-0.11982,0.15999 -1.87207,0.14778 -3.52485,0.10015c0.67153,-0.31976 1.16541,-1.02628 1.92834,-2.01894c0.0902,-0.11736 0.42155,-0.02023 0.4111,-0.16787c-0.0289,-0.40842 -0.83979,-0.02235 -1.21368,-0.18926c-0.31354,-0.13996 -0.58119,-0.36579 -0.87178,-0.54868c-0.19959,-0.04642 -0.39918,-0.09284 -0.59877,-0.13926l-0.00001,-0.00002c-0.2117,0.32354 -0.64084,0.32569 -0.64084,0.32569c-2.077,-0.02037 -4.76914,1.56579 -1.42934,2.63987c0.00917,0.00295 0.0183,0.00587 0.02742,0.00877c-0.34915,-0.01554 -0.56522,-0.02593 -0.57274,-0.02521c-3.18736,0.30605 -6.07725,0.49869 -9.31878,0.55281c-0.64734,0.01081 -1.3047,-0.03355 -1.94019,0.09022c-0.12383,0.02412 -0.1701,0.44933 -0.1934,0.32534c-0.0994,-0.52894 -0.03249,-1.0759 -0.04873,-1.61385c0,0 -0.15112,-0.45336 -0.50008,-1.03304c0.84948,0.52342 1.81448,0.86745 2.69534,0.83319z" fill="#eeeeee"/><path d="" fill="#eeeeee"/><path d="M348.71048,283.52788c0.55492,-0.16605 0.39255,-0.76755 0.77479,-1.12281c0.39394,-0.36613 0.86061,-0.93546 1.38685,-0.82451c1.09644,0.23117 1.45365,0.66335 1.40616,1.15282c-0.18557,0.26804 -0.37794,0.53081 -0.57157,0.78935c-0.11725,0.15656 -1.79765,0.14823 -3.41837,0.10317c0.14241,-0.0257 0.28357,-0.05655 0.42214,-0.09801z" fill="#e2e2e2"/><path d="M343.2022,283.65716c0,0 -0.62774,-0.42832 -0.19943,-1.05606c0.42832,-0.62774 1.05606,-0.19943 1.05606,-0.19943c0.58397,0.39845 1.12845,0.80981 1.69642,1.12977c-0.32615,-0.01457 -0.52647,-0.02416 -0.5337,-0.02347c-0.67028,0.06436 -1.3274,0.1237 -1.9774,0.1778c-0.01399,-0.00954 -0.02798,-0.01907 -0.04196,-0.02861z" fill="#e2e2e2"/><path d="" fill="#e2e2e2"/><path d="" fill="#e2e2e2"/><path d="" fill="#e2e2e2"/><path d="" fill="#e2e2e2"/><path d="" fill="#e2e2e2"/><path d="M340.99671,277.61134c0.60733,0.45681 0.15053,1.06413 0.15053,1.06413l-0.4775,0.63482c-0.77813,0.99311 -1.64634,1.68988 -2.62088,2.08089c0.45139,-0.65004 0.80994,-1.50579 0.74009,-2.24683c0.23161,-0.21863 0.45518,-0.47037 0.67225,-0.75575l0.47138,-0.62674c0,0 0.45681,-0.60733 1.06413,-0.15053z" fill="#e2e2e2"/><path d="" fill="#ede3bf"/><path d="" fill="#e6ddba"/><path d="" fill="#e6ddba"/><path d="M352.32234,269.84675c0.70566,-0.28206 0.98772,0.42359 0.98772,0.42359l0.2514,0.6295c0.45705,1.13039 1.02233,4.12981 0.15731,5.21012c-0.49937,0.62366 -1.08595,0.68953 -1.45423,0.60552c0.07871,0.20636 0.09593,0.49489 -0.19612,0.77933c-0.5444,0.53023 -1.07463,-0.01418 -1.07463,-0.01418c-0.73673,-1.0708 -1.45333,-1.35992 0.35878,-2.34202c0.33208,-0.17998 0.9959,0.44063 1.12977,0.08742c0.34807,-0.91841 0.07534,-2.87679 -0.31869,-3.72943l-0.26489,-0.66215c0,0 -0.28206,-0.70566 0.42359,-0.98772z" fill="#e6ddba"/><path d="M349.51458,276.25219c-0.02841,0.37891 -0.40732,0.3505 -0.40732,0.3505l-0.44954,-0.03591c-1.95178,0.25623 -3.71587,-0.05745 -5.27798,1.37877c0,0 -0.27988,0.257 -0.53688,-0.02288c-0.257,-0.27988 0.02288,-0.53688 0.02288,-0.53688c1.71224,-1.57037 3.64626,-1.25362 5.76702,-1.57854l0.5313,0.03763c0,0 0.37891,0.02841 0.3505,0.40732z" fill="#f3f3f3"/><path d="M354.2321,275.69604c0.09659,-0.05245 0.19293,-0.09746 0.28894,-0.13547c-0.05915,0.0573 -0.11457,0.11978 -0.16582,0.18805c-0.1068,0.14228 -0.19263,0.29304 -0.26172,0.45066c-0.17381,-0.31368 0.13859,-0.50325 0.13859,-0.50325z" fill="#f3f3f3"/><path d="M339.38678,281.3779c0.11244,0.36295 -0.25051,0.4754 -0.25051,0.4754l-0.40682,0.12306c-0.35513,0.21805 -0.72607,0.62582 -0.69204,1.04116c-0.06036,0.25331 -0.14253,0.77316 -0.37273,0.99933c-0.31475,0.01048 -0.63183,0.01961 -0.95191,0.02737c-0.91842,-0.26731 -2.24115,-1.00868 -3.10992,-1.47727c-0.08771,-0.20059 -0.22674,-0.48681 -0.42455,-0.80643c0.35576,0.00072 0.74025,0.0403 1.19117,0.19928c0.81797,0.28838 2.69225,1.85187 2.91035,0.99765c-0.08747,-1.06738 0.30403,-1.17354 1.1377,-1.67408l0.49383,-0.15597c0,0 0.36295,-0.11244 0.4754,0.25051z" fill="#f3f3f3"/><path d="M349.91504,281.06922c-0.16095,0.3442 -0.50515,0.18326 -0.50515,0.18326l-0.33875,-0.16044c-2.1239,-0.5084 -2.99906,-0.58025 -4.75591,0.7722c0,0 -0.30109,0.23179 -0.53288,-0.06931c-0.23179,-0.30109 0.06931,-0.53288 0.06931,-0.53288c1.9534,-1.50377 3.13183,-1.46984 5.47197,-0.8868l0.40815,0.18881c0,0 0.3442,0.16095 0.18326,0.50515z" fill="#f3f3f3"/><path d="" fill="#f3f3f3"/></g></g><g><g><path d="M404.94706,275.13802c-0.39258,-0.8835 -1.53524,-1.45253 -1.60333,-2.41691c-0.05201,-0.73673 0.02122,-1.56105 0.43553,-2.17245c0.44246,-0.65293 1.68053,-0.38613 2.12727,-1.03614c0.18337,-0.2668 0.83811,-2.72255 0.56289,-2.84501c-0.83154,-0.36999 -2.05759,-0.47895 -2.95023,-0.72431c-2.59228,-0.71253 -5.18455,-1.42503 -7.77683,-2.13756c-0.8496,-0.23352 -2.28736,-0.9281 -3.17261,-0.92085c-1.48953,0.01221 -2.48667,2.17057 -4.22945,1.44334c-0.94795,-0.39556 -1.06117,-1.77067 -1.73114,-2.54926c-0.41283,-0.47976 -1.79604,-0.76847 -2.65643,-1.02289c-1.69616,-0.45807 -3.38675,-0.94328 -5.07733,-1.41572c-0.5923,-0.16552 -1.28317,-0.85965 -1.77762,-0.49396c-0.43909,0.32476 -0.6385,2.3638 -0.80079,2.82496c-0.65477,1.8606 -1.01253,3.68834 -1.53736,5.58345c-0.06532,0.13 -0.12891,0.26096 -0.19077,0.3928c-0.08618,-0.0175 -0.17256,-0.03321 -0.2591,-0.04708c-0.16059,-0.76773 -0.5393,-1.55963 -1.29184,-2.25892c0.49396,-1.81368 0.98893,-3.62336 1.49194,-5.43701c0.26489,-0.95505 0.54071,-2.37252 1.4714,-2.94711c0.96099,-0.59329 2.55386,0.01757 3.47561,0.26715c1.77239,0.47992 3.54148,0.97239 5.31182,1.45992c0.00153,0.02127 0.00323,0.04263 0.00511,0.06406c1.18949,0.43839 2.62168,0.70198 3.51092,1.61377c0.48031,0.49249 0.21279,1.54499 0.80077,1.90211c0.11104,0.06745 0.21583,-0.14494 0.32786,-0.21071c0.51587,-0.30285 1.00789,-0.65424 1.55552,-0.89493c0.49238,-0.21639 1.00694,-0.44515 1.54432,-0.46741c1.07682,-0.04459 2.76629,0.71153 3.81067,0.99859c2.59228,0.71253 5.18455,1.42503 7.77683,2.13756c0.89932,0.24719 3.0464,0.50482 3.71562,1.1079c1.37357,1.2378 0.95182,4.43649 -0.11843,5.84419c-0.51005,0.67088 -1.56688,0.66711 -2.23684,1.17836c-0.32973,0.25162 0.17553,0.83448 0.41515,1.17304c0.36882,0.52109 1.02977,0.87568 1.20325,1.49007c0.15305,0.54202 -0.19091,1.11058 -0.31371,1.66024c-0.09003,0.403 -0.18601,0.81116 -0.28773,1.22094l-1.71299,-0.56374c-0.13438,-0.06126 -0.26738,-0.12677 -0.39956,-0.19485c0.18857,-0.54817 0.81283,-1.08527 0.5816,-1.60563z" fill="#ad7943"/><path d="" fill="#ad7943"/><path d="" fill="#ad7943"/><path d="" fill="#ad7943"/><path d="" fill="#ad7943"/><path d="" fill="#ad7943"/><path d="M374.46201,265.70806c0.64826,-1.51805 0.85059,-3.32519 1.03423,-4.95377c0.06599,-0.58533 -0.20629,-1.31357 0.18042,-1.75789c1.9395,-2.22837 4.40238,-0.05093 6.40314,0.48538c0.27185,0.07472 2.31611,0.62829 2.45722,0.70583c0.21268,0.11687 0.39755,0.26047 0.56343,0.42125c0.23513,-0.11976 0.51393,-0.15557 0.78841,-0.08012c0.13936,0.0383 0.26502,0.10183 0.37341,0.18429l1.11833,0.81029c1.09956,0.48195 1.78349,1.27606 3.14797,1.20293c1.17702,-0.06307 2.19962,-1.00652 3.46546,-0.96347c0.17081,0.00581 2.67145,0.70386 2.7902,0.73649c2.22145,0.61059 4.45158,1.19615 6.66585,1.83219c1.93778,0.55663 4.49501,2.26614 3.21107,4.72072c-0.26788,0.5121 -0.91142,0.71087 -1.36712,1.06631c-0.3387,0.20123 -1.0737,0.40271 -0.90587,0.75914c0.17243,0.36622 0.61802,0.58695 0.71828,0.97911c0.06664,0.26072 -0.28311,1.54672 -0.01223,2.01718c0.6703,1.1642 1.37406,2.33564 1.35825,3.61991l-1.68743,-0.55533c-1.02441,-0.46705 -1.96918,-1.18063 -3.07323,-1.40114c-1.45604,-0.29081 -2.97704,-0.32383 -4.45353,-0.15286c-1.61416,-1.87943 -3.00448,-4.5883 -5.43408,-5.05879c-2.46826,-0.47798 -4.95668,1.27601 -7.06061,2.65234c-0.66195,0.43303 0.09586,1.82922 -0.52988,2.31312c-0.36121,0.27933 -0.83434,-0.11799 -1.30576,-0.33587c-1.48455,-2.779 -4.88706,-6.75998 -8.59816,-7.35485c-0.06498,-0.31064 -0.16567,-0.62524 -0.31238,-0.93606c0.18438,-0.35435 0.34538,-0.67706 0.46463,-0.95631z" fill="#ad7943"/><path d="M379.72543,270.57077c2.74548,-0.43586 5.1959,-0.00565 7.54411,0.82714c-0.88229,0.48689 -1.73154,1.06043 -2.52598,1.58013c-0.66195,0.43303 0.09586,1.82922 -0.52988,2.31312c-0.36121,0.27933 -0.83434,-0.11799 -1.30576,-0.33587c-0.71871,-1.34539 -1.88695,-2.9725 -3.32211,-4.36072c0.04611,-0.00841 0.09265,-0.01634 0.13962,-0.0238z" fill="#95693a"/><path d="M407.22488,265.31857c-0.08742,0.99617 -1.0836,0.90875 -1.0836,0.90875l-1.02557,-0.09c-1.86133,-0.16335 -3.73738,-0.1674 -5.50335,-0.81242c-1.93349,-0.7062 -4.0712,-2.44555 -6.36964,-1.89665c-0.71631,0.17106 -1.37182,0.57037 -2.09811,0.69224c-1.2011,0.37612 -3.1109,0.74431 -4.10156,-0.46573c-0.50866,-0.6213 -0.15177,-1.62597 -0.47251,-2.36209c-0.18871,-0.4331 -1.08502,-0.24693 -1.27127,-0.30824c-1.15108,-0.37893 -2.33542,-0.93636 -3.49413,-1.35616c-0.63692,-0.23076 -3.71947,-1.83883 -4.35042,-1.13088c-0.4563,0.51199 -0.78763,2.31356 -1.10901,2.98732c0,0 -0.43163,0.90205 -1.33368,0.47041c-0.90205,-0.43163 -0.47041,-1.33368 -0.47041,-1.33368c0.41083,-0.85561 0.84867,-2.96904 1.53358,-3.57212c1.9967,-1.7581 8.85986,1.13344 10.89622,2.13537c2.55199,1.25564 0.45857,4.11986 3.70285,2.99192c2.03495,-0.30175 3.43943,-0.79723 5.598,-0.44455c1.92871,0.31512 3.17303,1.65362 5.03708,2.07107c1.25456,0.28096 2.69847,0.2293 3.98123,0.34188l1.02557,0.09c0,0 0.99617,0.08742 0.90875,1.0836z" fill="#c48a4c"/><path d="M383.69864,270.99209c0.02208,-0.08552 0.05314,-0.1558 0.0902,-0.21345c0.06726,-0.73183 0.30615,-3.30721 0.70282,-3.67348c1.2792,-1.18119 4.25749,0.96376 5.43575,1.23438c0.09061,0.02081 -0.04532,-0.19641 -0.00243,-0.2789c0.1512,-0.29072 1.25351,-2.28556 1.42184,-2.30307c1.29412,-0.13461 1.89177,1.97057 2.39571,2.78458c0.46268,1.16364 0.76897,2.36775 1.20625,3.53565c0.10925,0.29178 0.37949,0.58084 0.40021,0.87611c-0.98791,-1.24215 -2.0766,-2.34388 -3.54482,-2.6282c-2.06433,-0.39976 -4.14276,0.76171 -5.99857,1.95772c-0.39764,-0.13864 -0.79844,-0.28595 -1.22385,-0.41989l-0.43504,-0.11141c0,0 -0.60407,-0.15597 -0.44809,-0.76003z" fill="#b10000"/><path d="M384.69447,272.35077c0,0 -0.99899,0.045 -1.04399,-0.95398c-0.045,-0.99899 0.95398,-1.04399 0.95398,-1.04399c0.93206,-0.04026 3.06662,-0.15138 4.61,0.1819c-1.19342,0.37659 -2.3575,1.06987 -3.44445,1.77169c-0.4976,0.01655 -0.90132,0.03617 -1.07554,0.04438z" fill="#950000"/></g><path d="" fill="#d9d393"/></g></g></g></svg>