<svg version="1.1" xmlns="http://www.w3.org/2000/svg" xmlns:xlink="http://www.w3.org/1999/xlink" width="784.90406" height="415.99171" viewBox="0,0,784.90406,415.99171"><defs><linearGradient x1="240.00002" y1="-13.15106" x2="240.00002" y2="373.15106" gradientUnits="userSpaceOnUse" id="color-1"><stop offset="0" stop-color="#3c3c3c"/><stop offset="1" stop-color="#1b1b1b"/></linearGradient></defs><g transform="translate(17.03563,13.15106)"><g data-paper-data="{&quot;isPaintingLayer&quot;:true}" fill-rule="nonzero" stroke-linejoin="miter" stroke-miterlimit="10" stroke-dasharray="" stroke-dashoffset="0" style="mix-blend-mode: normal"><path d="M-17.03563,373.15106v-386.30212h514.07129v386.30212z" fill="url(#color-1)" stroke="none" stroke-width="0" stroke-linecap="butt"/><path d="M23.19341,150.39397v-130.60436h293.94888v130.60436z" fill="#f5f5f5" stroke="#373737" stroke-width="3" stroke-linecap="butt"/><text transform="translate(33.42096,40.06837) scale(0.34192,0.34192)" font-size="40" xml:space="preserve" fill="#373737" fill-rule="nonzero" stroke="none" stroke-width="1" stroke-linecap="butt" stroke-linejoin="miter" stroke-miterlimit="10" stroke-dasharray="" stroke-dashoffset="0" font-family="Pixel" font-weight="normal" text-anchor="start" style="mix-blend-mode: normal"><tspan x="0" dy="0">Após derrotar o tenente e conquistar</tspan><tspan x="0" dy="46.15px">Greenheart, o Tanque T99 segue para</tspan><tspan x="0" dy="46.15px">o deserto Yellowdust, um lugar com</tspan><tspan x="0" dy="46.15px">tanques aprimorados. </tspan><tspan x="0" dy="46.15px"> </tspan><tspan x="0" dy="46.15px">A batalha fica ainda mais intensa</tspan><tspan x="0" dy="46.15px">contra os inimigos.</tspan></text><path d="M642.74285,96.7392c1.41509,13.98816 4.03812,27.89603 4.36996,41.95166c1.15401,48.88026 -6.56488,98.26497 0.25126,146.68141c3.94696,28.03611 7.97078,56.0614 12.01201,84.08408c1.61351,11.18833 4.4048,22.15256 7.31725,33.09422c-69.74788,0.18531 -139.49638,0.58137 -209.24029,-0.06819c-7.78749,-0.07253 -17.099,-2.99809 -25.58047,-3.003c-88.42245,-0.05126 -176.84741,0.66251 -265.26739,0c-2.47651,-0.01855 -4.74914,-1.40963 -7.14386,-2.0411c-0.99008,-0.26108 -2.03848,-0.4884 -3.11799,-0.68909c-8.10502,-16.40484 -6.9736,-36.53892 -5.77706,-54.21929c0.12303,-1.81797 1.84624,-3.14289 2.71209,-4.74615c4.40245,-8.15185 5.97952,-13.69799 12.73704,-22.00176c4.05382,-4.98142 9.7044,-9.62381 15.76859,-13.90599c11.06031,-6.70236 22.43233,-13.04737 32.75352,-20.81296c8.92013,-5.49853 18.03926,-10.89548 27.03026,-15.69808c6.84107,-3.6542 15.20224,-5.33228 22.4124,-8.36436c3.70317,-1.55729 7.08855,-4.0723 10.63488,-5.8008c2.74801,-1.33939 5.9775,-1.57792 8.73794,-3.06469c12.80028,-6.89423 24.50004,-13.93154 35.4939,-23.73979c6.03966,-5.38833 10.69929,-13.88005 14.88366,-19.88743c4.06788,-5.84012 11.98212,-15.41476 15.07896,-23.87236c2.55831,-6.98683 5.02947,-14.00532 7.50751,-21.02102c1.1344,-3.21165 1.44572,-6.65186 2.85924,-9.81678c3.79165,-8.48963 8.41874,-16.5821 12.47441,-24.94882c2.10847,-4.34969 1.59166,-9.01325 3.21465,-13.43094c1.17722,-3.20434 3.81222,-6.20528 5.1441,-9.48566c5.62214,-13.84722 11.44994,-27.61573 17.54943,-41.26079c0.53433,-0.56397 1.09573,-1.11284 1.68853,-1.64442c2.69664,-2.41819 5.63841,-5.07316 8.39513,-7.39476c2.94261,-2.47814 7.88313,-3.24778 11.47109,-5.15388c2.84151,-1.50955 5.2121,-3.82876 8.09416,-5.25937c10.9816,-5.45107 20.4559,-7.97181 32.09002,-11.94155c5.85953,-1.99937 11.23949,-6.77824 17.10474,-7.72609c9.2745,-1.49881 29.21099,-0.72836 40.286,2.21857c11.35807,3.02226 16.78726,8.85087 27.07991,15.85875c5.13087,3.49341 13.25601,6.78696 17.44427,9.00306c4.51458,2.38876 8.57657,5.87776 13.49341,7.26062c18.30177,5.14737 34.30336,-4.73044 34.30336,-25.38836c0,-1.57933 -0.1955,-3.07101 -0.55645,-4.48233c11.96867,0.46918 22.27548,-2.38788 31.46591,-7.85166c-0.74019,26.26273 0.19592,52.59152 2.8239,78.5691z" data-paper-data="{&quot;index&quot;:null}" fill="#fae880" stroke="none" stroke-width="0.5" stroke-linecap="butt"/><path d="" data-paper-data="{&quot;index&quot;:null}" fill="#fae880" stroke="none" stroke-width="0.5" stroke-linecap="butt"/><path d="M648.53368,380.9503c-38.62806,0 -77.25613,0 -115.8842,0c-94.55229,0 -189.10458,0 -283.65686,0c-30.55653,0 -61.11305,0 -91.66959,0c-1.96278,0 -3.98573,0.05008 -6.04249,0.11705c-2.35423,-12.63804 -1.55014,-26.18645 -0.71427,-38.53745c0.12303,-1.81797 1.84624,-3.14289 2.71209,-4.74615c4.40245,-8.15185 5.97952,-13.69799 12.73704,-22.00176c4.05382,-4.98142 9.7044,-9.62381 15.76859,-13.90599c11.06031,-6.70236 22.43233,-13.04737 32.75352,-20.81296c8.92013,-5.49853 18.03926,-10.89548 27.03026,-15.69808c6.84107,-3.6542 15.20224,-5.33228 22.4124,-8.36436c3.70317,-1.55729 7.08855,-4.0723 10.63488,-5.8008c2.74801,-1.33939 5.9775,-1.57792 8.73794,-3.06469c12.80028,-6.89423 24.50004,-13.93154 35.4939,-23.73979c6.03966,-5.38833 10.69929,-13.88005 14.88366,-19.88743c4.06788,-5.84012 11.98212,-15.41476 15.07896,-23.87236c2.55831,-6.98683 5.02947,-14.00532 7.50751,-21.02102c1.1344,-3.21165 1.44572,-6.65186 2.85924,-9.81678c1.39914,-3.13272 2.91204,-6.21136 4.46801,-9.26965c0.43133,0.01432 0.844,0.02307 1.23251,0.02307c8.07154,0 16.14306,0 24.21461,0c1.74412,0 10.05943,-0.12353 11.3801,0.44335c3.0636,1.31502 13.08926,5.98084 15.33809,6.84581c2.44279,0.93956 4.35877,2.92681 6.70735,4.08188c2.85726,1.40526 6.07584,2.02636 8.85867,3.57377c2.62339,1.45876 4.72915,3.70786 7.2278,5.37126c3.11635,2.07462 6.65246,3.52744 9.58335,5.85674c3.80857,3.02684 9.03451,8.11809 11.90906,12.00737c0.44133,0.59713 -0.06355,1.76724 0.57079,2.15318c3.5243,2.14424 8.10461,1.91762 11.78283,3.78552c1.45281,0.73779 2.34697,2.44801 3.89667,2.95143c1.64499,0.53438 3.54799,-0.54695 5.18884,0c1.97206,0.65735 3.25364,2.70017 5.18884,3.45923c1.91021,0.74926 4.09261,-0.3707 6.14451,-0.3707c2.71004,0 6.35009,0.64207 8.9938,0.11155c2.8474,-0.57139 5.21892,-2.67937 8.04703,-3.33967c1.76878,-0.41297 3.62824,-0.19164 5.44417,-0.23111c3.75613,-0.08164 8.33686,-0.46418 12.1073,0c0.65976,0.08122 1.29399,0.96639 1.88268,0.65763c1.44413,-0.75738 1.94655,-2.85015 3.45923,-3.45922c2.10179,-0.84626 4.49963,-0.65763 6.7654,-0.65763c0.22507,0 -0.02478,0.79557 0.15307,0.65763c1.28856,-0.99937 1.9174,-2.92825 3.45922,-3.45923c2.68537,-0.9248 5.65916,-0.50162 8.49501,-0.65763c1.15134,-0.06333 2.3248,-0.20653 3.45922,0c0.22144,0.0403 -0.02478,0.79556 0.15307,0.65763c1.28856,-0.99937 1.94654,-2.85016 3.45923,-3.45923c3.08542,-1.24232 6.72421,0.30328 9.96931,-0.42652c1.25776,-0.28286 2.30615,-1.15307 3.45923,-1.72961c1.81471,-0.07703 7.29552,-3.66146 8.80958,-4.26709c1.6059,-0.64236 7.38226,-1.61578 8.89495,-2.22485c5.12507,-2.06357 13.30321,-0.65763 18.8727,-0.65763c5.1659,0 11.2626,-0.71761 16.41785,0.04205c3.56729,0.52566 9.83994,-0.53076 13.31621,0.42706c0.60734,0.16734 4.40402,0.77357 8.36939,1.68572c-1.24294,38.45274 -4.83761,77.02037 0.50815,114.99241c3.94696,28.03611 7.97078,56.0614 12.01201,84.08408c0.55597,3.85517 1.25177,7.68374 2.04418,11.49394c-4.29553,0 -8.59106,0 -12.88659,0z" data-paper-data="{&quot;index&quot;:null}" fill="#e9d877" stroke="none" stroke-width="0.5" stroke-linecap="butt"/><path d="" data-paper-data="{&quot;index&quot;:null}" fill="#e9d877" stroke="none" stroke-width="0.5" stroke-linecap="butt"/><path d="M752.30191,237.40093c0,6.9111 0.19876,13.84911 0,20.75538c-0.05728,1.99061 0.27615,4.07934 -0.3707,5.9628c-0.67521,1.96601 -2.87992,3.19245 -3.45922,5.18884c-0.71773,2.47343 0.56965,5.29222 -0.28693,7.72106c-0.50039,1.41884 -1.84438,2.32394 -2.96691,3.38375c3.12923,-22.97719 5.17634,-46.26226 6.09369,-69.63154c0.10844,0.22962 0.205,0.45856 0.29099,0.68419c2.68973,0 6.53493,0 7.62617,0c0,0 8.63943,0 8.63943,8.63942c0,8.63942 -8.63943,8.63943 -8.63943,8.63943c-2.13293,0 -4.51063,0.17639 -6.92708,0.30572c0,2.78365 0,5.5673 0,8.35096z" data-paper-data="{&quot;index&quot;:null}" fill="#e9d877" stroke="none" stroke-width="0.5" stroke-linecap="butt"/><path d="M653.08948,361.92459c-16.14307,0 -32.28615,0 -48.42922,0c-1.9218,0 -17.29615,0 -17.29615,0c-2.79844,-0.03445 -5.65431,-0.80847 -8.39275,-0.23111c-2.52289,0.53191 -4.40141,2.90033 -6.91846,3.45923c-2.92853,0.65027 -6.0578,-0.51388 -8.99923,0.07524c-3.04431,0.60971 -5.61725,2.78571 -8.64808,3.45923c-2.25124,0.50028 -4.66722,-0.50028 -6.91846,0c-3.03083,0.6735 -5.60971,2.82063 -8.64808,3.45923c-2.79026,0.58646 -5.70111,0.13241 -8.55223,0.15589c-14.99,0 -50.73538,0 -65.72537,0c-95.12882,0 -190.25764,0 -285.38646,0c-7.48734,0 -15.00002,0.15355 -22.48499,0c-2.17014,-0.04451 -4.39346,0.20163 -6.55804,0.07785c-0.84041,-10.01592 -0.21256,-20.29166 0.43434,-29.85023c0.12303,-1.81797 1.84624,-3.14289 2.71209,-4.74615c4.40245,-8.15185 5.97952,-13.69799 12.73704,-22.00176c4.05382,-4.98142 9.7044,-9.62381 15.76859,-13.90599c11.06031,-6.70236 22.43233,-13.04737 32.75352,-20.81296c8.92013,-5.49853 18.03926,-10.89548 27.03026,-15.69808c6.84107,-3.6542 15.20224,-5.33228 22.4124,-8.36436c3.70317,-1.55729 7.08855,-4.0723 10.63488,-5.8008c2.74801,-1.33939 5.9775,-1.57792 8.73794,-3.06469c12.80028,-6.89423 24.50004,-13.93154 35.4939,-23.73979c6.03966,-5.38833 10.69929,-13.88005 14.88366,-19.88743c1.38924,-1.99449 3.2271,-4.42455 5.16847,-7.09693c1.89419,0.93106 3.72654,1.76815 5.97323,2.05867c3.3437,0.43239 7.32858,-0.11155 10.72342,-0.11155c6.91847,0 13.83691,0 20.75538,0c4.03577,0 8.07369,-0.13193 12.1073,0c2.05081,0.06707 4.16482,0.9102 6.14451,0.3707c2.00559,-0.54656 4.17297,-1.21358 6.14896,-1.85905c1.92093,-0.62748 3.13771,-1.32618 5.09851,-1.81499c2.6737,-0.66653 5.00415,-2.34131 7.62376,-3.19605c1.71697,-0.56023 8.25971,-3.64261 9.72961,-4.95028c1.15308,0 4.65469,-2.20983 5.68261,-2.82658c3.59301,-2.1558 8.14691,-2.47165 11.59776,-4.84838c3.67187,-2.52893 6.76996,-6.01893 10.37769,-8.64808c1.09796,-0.80013 8.93506,-4.5802 9.9851,-4.85888c0.70238,-0.18642 3.05653,-1.44264 3.85183,-2.05958c1.38342,-1.07316 3.07275,-1.68218 4.64712,-2.44828c6.7729,-3.29579 11.87084,-2.64171 19.43021,-2.64171c8.64806,0 17.29615,0 25.94423,0c2.43782,0 11.35446,-0.08324 12.88126,0.37071c1.99253,0.59241 7.84004,0.27139 9.69735,1.20496c0.30529,0.15345 7.94396,1.77878 9.32841,2.25426c1.96601,0.67521 8.37658,2.84225 9.85905,3.31963c3.52334,1.13458 6.89886,2.81526 9.9851,4.85887c2.03945,1.35046 7.04862,3.64503 8.94593,5.18884c4.39942,3.57972 7.14473,5.52594 11.80944,8.64808c1.50281,1.00585 2.47186,2.65823 3.88496,3.78666c4.52035,3.60972 9.31987,6.76405 13.83692,10.37769c6.80546,5.44436 12.751,11.99148 20.07037,16.78894c3.11289,2.08846 6.87126,3.30237 9.57338,5.9005c1.35824,1.30596 5.75992,5.07674 6.9401,5.74263c1.0843,0.61179 2.08782,1.34672 3.06822,2.11772c-0.31274,18.49726 0.18704,36.93572 2.76336,55.23584c3.59717,25.55148 7.25818,51.09396 10.93803,76.63367c-1.738,-0.03786 -3.47648,-0.08699 -5.21263,-0.08136z" data-paper-data="{&quot;index&quot;:null}" fill="#e5d15c" stroke="none" stroke-width="0.5" stroke-linecap="butt"/><path d="" data-paper-data="{&quot;index&quot;:null}" fill="#e5d15c" stroke="none" stroke-width="0.5" stroke-linecap="butt"/><path d="M578.70389,252.14338c-4.25965,0.00745 -9.55825,0.94186 -13.08439,-2.05955c-2.49604,-2.12458 -3.85329,-6.33469 -1.00221,-8.98511c0.96437,-0.89649 2.67204,-0.41458 3.79171,-1.10744c0.62663,-4.01928 3.10609,-7.4569 3.10609,-11.59313c0,-0.93016 0.24506,-2.14182 -0.37487,-3.00168c-0.94912,-1.31646 -3.73494,-0.79312 -5.01118,-0.79516c-3.78983,-0.00602 -9.05248,-0.47122 -11.47816,-4.06599c-1.26801,-1.87914 -1.19147,-5.98833 -0.87784,-8.15523c0.16872,-1.16568 0.02274,-2.59549 0.85558,-3.42834c2.28945,-2.28946 6.96853,-0.53257 9.16841,0.53108c2.66205,2.20628 3.18486,2.11217 6.52155,1.60697c0.3389,-0.05131 0.83716,0.27974 1.0283,-0.00481c0.19791,-0.29465 -0.25821,-0.66285 -0.3494,-1.00588c-0.19017,-0.7153 -0.33296,-1.44238 -0.49352,-2.1649c-0.57649,-2.59418 -0.91945,-5.43607 -0.56286,-8.10469c0.4865,-3.64085 1.48619,-8.65761 3.53213,-11.77847c2.29132,-3.49515 9.21288,-4.79361 12.87043,-3.04656c1.66928,0.79735 3.07998,3.32504 4.02591,4.73547c2.26462,3.97753 4.36815,8.35518 2.54061,12.9486c-0.84803,2.13148 -1.74547,2.72178 -3.20544,4.47605c-0.50202,0.60321 -1.41376,1.19242 -1.2926,1.96779c0.08092,0.5179 1.05613,0.14975 1.57159,0.05455c1.75284,-0.3237 1.86721,-0.48422 3.52794,-1.36418c3.23364,-1.71338 8.84297,-3.36337 10.58329,1.47033c0.37106,1.03058 -0.05638,2.19428 -0.20294,3.27977c-0.54894,4.06622 -2.21771,5.8348 -5.48986,8.06609c-2.95406,1.47866 -6.31234,2.97825 -9.48038,3.90813c-0.92385,0.27116 -2.36201,-0.17921 -3.02594,0.91711c-0.58403,0.96438 0.20382,2.246 0.27115,3.37143c0.20092,3.35856 0.52672,6.60296 1.50815,9.86352c1.03981,3.45448 3.26672,8.30926 0.73759,11.86149c-1.31006,1.84 -3.71084,1.86057 -5.61019,2.12071c0,0 -1.27194,0.159 -1.92078,-0.78637z" data-paper-data="{&quot;index&quot;:null}" fill="#e9d877" stroke="none" stroke-width="0.5" stroke-linecap="butt"/><path d="M642.03148,337.20343c-6.12708,-1.25968 -12.13475,-0.94411 -18.3581,-0.94411c-8.96438,0 -17.92876,0 -26.89315,0c-4.80234,0 -9.6047,0 -14.40705,0c-1.7802,0 -3.61206,-0.5572 -5.33941,-0.11467c-4.74581,1.2158 -9.77573,3.27636 -14.76647,2.83908c-7.81969,4.01918 -18.29493,2.21224 -26.95715,2.21224c-2.47727,0 -5.88071,-0.71587 -8.22082,-0.11467c-4.41551,1.13441 -8.21065,3.38592 -12.8144,3.99744c-3.21307,0.4268 -6.61504,-0.41802 -9.80899,0.02331c-7.03733,0.97243 -13.51783,1.15372 -20.64333,0.64949c-2.50014,-1.49559 -5.3798,-2.28062 -7.80127,-3.90728c-1.05063,-0.70577 -1.80888,-1.78384 -2.6673,-2.73112c-1.4017,0.13944 -4.77992,0.10819 -6.23726,0.10819c-1.41198,0 -2.94461,-1.00451 -4.21972,-0.38107c-1.04244,0.50969 -1.78096,1.61634 -2.88141,1.97465c-1.27409,0.41487 -2.68147,0.04878 -4.00109,0.26639c-1.99929,0.32969 -3.77005,1.60563 -5.76282,1.97465c-0.7491,0.13873 -1.55015,-0.34376 -2.28036,-0.12289c-1.37356,0.41546 -2.45191,1.62154 -3.84188,1.97465c-1.18102,0.30002 -7.15736,0.23757 -8.70822,0.23757c-5.76282,0 -11.52564,0 -17.28846,0c-0.33198,0 -9.28128,0.06813 -10.27801,-0.16025c-1.6828,-0.38557 -3.11097,-1.63106 -4.80235,-1.97465c-2.94167,-0.59762 -6.08439,0.66216 -8.99538,-0.07734c-1.38997,-0.3531 -2.46518,-1.57031 -3.84188,-1.97465c-0.92352,-0.27123 -1.9594,0.27657 -2.88141,0c-1.81488,-0.5444 -3.53891,-1.41847 -5.16312,-2.41309c-2.54725,-1.55987 -6.21132,-2.38665 -7.30258,-5.22059c-2.97895,-7.73615 2.69711,-13.59623 6.43746,-18.97437c1.92568,-2.76888 3.50675,-4.41179 4.96649,-7.4675c1.22962,-2.57398 1.87311,-5.45697 3.38131,-7.8693c1.87012,-2.99122 4.69859,-5.22388 7.17481,-7.70656c3.29035,-3.29892 6.18454,-8.55926 9.04569,-12.21467c1.442,-0.78697 3.01952,-1.35447 4.326,-2.36089c1.5436,-1.1891 2.53311,-3.05811 4.13752,-4.15888c1.43403,-0.98387 3.36726,-0.99239 4.80235,-1.97465c1.40958,-0.96483 2.1895,-2.69792 3.54624,-3.73972c1.30962,-1.00561 2.94897,-1.4614 4.35143,-2.32464c1.93636,-1.19186 3.58137,-2.90926 5.65186,-3.8326c0.95126,-0.4242 2.126,0.26186 3.10987,-0.07468c1.0953,-0.37465 1.76902,-1.65764 2.88141,-1.97465c3.94097,-1.12308 8.98602,-0.38107 13.06874,-0.38107c3.62133,0 9.88732,-0.70407 13.51058,0.23757c1.72591,0.44853 3.18402,1.65582 4.85437,2.28871c3.71312,1.40693 7.47994,2.50652 11.06287,4.15687c3.4168,1.57382 6.80941,4.50993 9.94141,6.65631c3.09729,2.12261 7.03723,5.53852 10.52909,7.31011c1.15934,0.58819 2.54543,0.68361 3.62769,1.41063c1.13704,0.76384 1.6977,2.27712 2.88141,2.96197c3.86853,2.23822 9.13306,2.62763 13.1712,4.28628c1.59173,0.65379 2.97432,1.76375 4.36754,2.79018c0.27868,0.20531 0.25499,0.80321 0.59269,0.86416c0.97831,0.17656 2.00189,-0.43968 2.97209,-0.22081c4.31051,0.97241 8.17714,2.96846 12.48612,3.9493c2.59462,0.59062 5.31344,-0.16024 7.97091,-0.16024c6.7233,0 13.44657,0 20.16987,0c4.48219,0 8.96439,0 13.44658,0c1.58132,0 3.2489,0.7836 4.73835,0.23757c1.34859,-0.49439 2.4443,-1.65488 3.84189,-1.97465c4.41693,-1.0106 9.75753,0.97615 14.04762,-0.1229c1.96475,-0.50333 3.78692,-1.51975 5.76282,-1.97465c0.74276,-0.171 1.55014,0.34377 2.28036,0.1229c1.37356,-0.41546 2.45192,-1.62154 3.84189,-1.97465c1.57652,-0.4005 3.24281,-0.27513 4.86635,-0.23757c0.46279,0.0107 0.90382,0.54515 1.33832,0.38106c1.08353,-0.40921 1.76111,-1.68863 2.88141,-1.97465c2.34323,-0.59827 4.96778,0.69021 7.24192,-0.1435c1.34859,-0.49439 2.4443,-1.65488 3.84189,-1.97465c1.89737,-0.43412 3.88454,-0.15837 5.82681,-0.23757c1.4146,0.37489 2.47184,-0.15699 3.31458,-1.054c0.06722,0.49941 0.13595,0.99873 0.20623,1.49794c2.50747,17.81109 5.04596,35.61781 7.60022,53.42227c-4.2805,-0.73278 -8.38863,-1.5911 -12.93282,-1.5911z" data-paper-data="{&quot;index&quot;:null}" fill="#b46000" stroke="none" stroke-width="0.5" stroke-linecap="butt"/><path d="M629.32433,232.49277c-2.69439,-1.28857 -5.58714,-2.5952 -8.62725,-2.61164c-11.60217,-0.06276 -23.20783,-0.27013 -34.80777,-0.06204c-0.24477,-0.08819 -0.4866,-0.18794 -0.72497,-0.30126c-1.55399,-0.73879 -2.49838,-2.20695 -3.2445,-3.90114c0.46983,-7.0496 4.12173,-11.25993 10.90252,-14.18613c4.18423,-1.80568 8.24281,-1.53897 12.60211,-1.53897c6.08298,0 12.16595,0 18.24892,0c7.16955,0 14.36942,-0.19696 21.53202,-0.0032c-0.39189,9.85067 -0.68436,19.69291 -0.68751,29.51478c-4.87871,-3.0614 -11.15772,-4.9803 -15.19357,-6.9104z" data-paper-data="{&quot;index&quot;:null}" fill="#b46000" stroke="none" stroke-width="0.5" stroke-linecap="butt"/><path d="M583.21389,225.18688c-7.72734,-3.86368 -3.86367,-11.59101 -3.86367,-11.59101l1.23996,-1.96314c0.53289,-2.07109 0.03411,-4.75535 1.59867,-6.21328c2.55624,-2.38203 6.26473,-3.16405 9.59593,-4.21836c3.58321,-1.13407 8.43012,0.37718 12.15781,0.04682c2.23005,-0.19763 3.95397,-2.2044 6.12225,-2.76185c2.05484,-0.5283 4.28098,0.28424 6.36387,-0.11955c6.58278,-1.27616 13.8088,-2.0325 20.59329,-2.0325c2.70207,0 5.75933,-0.2343 8.77996,-0.29099c-0.26508,5.8928 -0.52642,11.78458 -0.74342,17.6728c-2.67483,0.03928 -5.40945,-0.10297 -8.03653,-0.10297c-3.2362,0 -4.14183,0.38112 -7.26035,0.84891c-2.53291,0.37995 -5.14544,-0.34204 -7.68376,0c-1.00336,0.1352 -1.88019,0.81028 -2.88141,0.96048c-1.70201,0.2553 -3.5475,-0.71635 -5.16177,-0.11956c-0.91618,0.33871 -1.61679,1.12409 -2.52065,1.49442c-4.38576,1.79695 -8.2986,1.61811 -12.91086,1.61811c-0.82583,0 -1.65174,0.00976 -2.47753,0.0041l-1.32079,2.9039c0,0 -3.86367,7.72733 -11.59101,3.86366z" data-paper-data="{&quot;index&quot;:null}" fill="#fffaae" stroke="none" stroke-width="0.5" stroke-linecap="butt"/><path d="M432.32163,260.66559c0.73464,-0.55329 1.48552,-1.07846 2.31244,-1.47183c1.02042,-0.48542 2.28907,-0.21152 3.32414,-0.66483c1.26756,-0.55514 2.12419,-1.91956 3.45364,-2.30357c3.91184,-1.12994 9.26279,-0.44335 13.36926,-0.44335c1.95504,0 3.90592,0.01892 5.85381,0.05038c1.95702,-2.31698 6.50746,-2.11258 9.61857,-3.08478c2.26658,-0.70829 6.25468,0 8.64423,0c7.86691,0 19.93393,-2.09596 26.51532,2.29164c4.33868,-0.25632 7.27261,3.02312 11.36642,3.58273c1.64085,0.22431 3.36595,-0.18438 4.96156,0.25914c1.11217,0.30914 1.79788,1.52287 2.88141,1.92094c1.75517,0.64481 3.77286,-0.63963 5.6036,-0.25915c3.92826,0.8164 8.07999,3.24616 12.15782,3.79506c1.26009,0.16962 2.5841,-0.16819 3.81074,0.16638c1.38133,0.37676 2.45285,1.57368 3.84189,1.92094c1.24239,0.31059 2.60267,-0.32304 3.84189,0c2.88277,0.75149 5.92253,3.19661 9.00365,3.72233c2.09145,0.35685 4.31432,-0.4289 6.36387,0.11955c1.36514,0.3653 7.71461,3.59891 9.5625,4.52285c0.79159,0.49999 1.63762,0.81708 2.52204,1.00885c2.31573,0 4.63144,0 6.94716,0c1.59835,-0.12585 3.19443,-0.21006 4.71786,0c9.67075,0 19.34153,0 29.01229,0c3.52172,0 7.04356,-0.02931 10.56516,0c1.31246,0.01092 2.71037,-0.40223 3.937,0.06473c0.9022,0.34346 1.89399,0.63011 2.9003,0.92095c2.2023,-0.00808 5.51536,0.62698 7.36481,4.11179c0.18303,1.49286 0.37915,2.98485 0.58907,4.47591c0.27496,1.9531 0.55029,3.90614 0.82598,5.85913c-1.55845,2.51985 -5.29057,3.2087 -8.16052,5.60268c-1.71902,1.43392 -2.56541,3.90723 -4.55343,4.93628c-4.8344,2.50239 -10.89003,-0.0002 -15.92636,0.80053c-11.99792,1.90755 -24.66119,1.07202 -36.92127,1.07202c-8.06995,0 -17.68637,1.19913 -25.64553,-0.15589c-1.69964,-0.28935 -3.13043,-1.49999 -4.80234,-1.92093c-2.28692,-0.57579 -4.78505,0.49055 -7.07445,-0.07523c-1.38997,-0.34349 -2.44471,-1.60802 -3.84188,-1.92094c-1.36712,-0.30618 -2.82264,0.3688 -4.2013,0.11956c-1.99255,-0.36022 -3.77707,-1.52493 -5.76282,-1.92094c-1.33767,-0.26676 -2.75991,0.24997 -4.09178,-0.04432c-1.68349,-0.37198 -3.12911,-1.50525 -4.80235,-1.92094c-1.04602,-0.25988 -2.19526,0.21746 -3.23256,-0.07523c-1.37799,-0.38882 -2.46518,-1.5276 -3.84188,-1.92093c-0.92352,-0.26386 -1.96207,0.27808 -2.88141,0c-2.74092,-0.82907 -4.88336,-3.24372 -7.68375,-3.84189c-1.25239,-0.26751 -2.60127,0.31763 -3.84188,0c-3.16415,-0.8101 -6.03896,-2.54376 -9.19394,-3.38885c-5.85059,-3.7892 -12.62807,-6.72816 -19.02046,-9.52379c-1.14495,-0.50073 -4.7347,-2.21871 -7.27542,-3.84184c-3.54104,-0.08704 -7.08938,-0.14988 -10.65361,-0.14988c-2.4377,0 -4.88674,0.23482 -7.3131,0c-0.24541,-0.02375 -0.37206,-0.55458 -0.59211,-0.44335c-0.74779,0.378 -1.10173,1.3397 -1.86499,1.68539c-1.4096,0.63843 -3.2412,0.58049 -4.32614,1.68387l-6.51331,1.72789c0,0 -8.63942,0 -8.63942,-8.63943c0,-6.06054 4.25145,-7.86963 6.78958,-8.40964zM497.31216,269.56457c-0.10008,-0.03853 -0.20119,-0.07139 -0.30325,-0.09908c-0.03787,0.07126 -0.07662,0.14131 -0.1162,0.2102c0.27211,0.14331 0.54314,0.29342 0.81289,0.4522c-0.13382,-0.17831 -0.26577,-0.36618 -0.39344,-0.56332z" data-paper-data="{&quot;index&quot;:null}" fill="#fffaae" stroke="none" stroke-width="0.5" stroke-linecap="butt"/><path d="M644.25625,333.52858c-5.61113,-0.06292 -12.47559,-1.19178 -17.27595,-4.4459c-2.04314,0 -3.99807,-0.89262 -5.98345,-1.4008c-2.04516,-0.52348 -4.19594,-0.31612 -6.29889,-0.45671c-5.70876,0.5158 -11.22676,0.70018 -16.97961,0.70018c-7.65592,0 -15.75742,0.59255 -23.32941,-0.7004c-9.06583,0 -18.13163,0 -27.19745,0c-2.66753,0 -6.4161,-0.72758 -9.00345,-0.16423c-1.16871,0.25446 -2.14474,1.20878 -3.32414,1.40081c-2.99066,0.48696 -6.09216,-0.44104 -9.07823,0.07624c-2.81889,0.48834 -5.48283,1.84028 -8.32491,2.14489c-3.28296,0.35186 -6.46258,0.02212 -9.6916,1.06778c-4.75525,1.53989 -9.27303,4.70593 -14.12454,5.81632c-1.38347,0.31664 -2.83554,-0.00331 -4.24534,0.1332c-2.42122,0.23445 -4.75294,1.15563 -7.17437,1.38753c-4.18228,0.40053 -8.61483,0.04429 -12.81819,0.04429c-8.22267,0 -16.44535,0 -24.66802,0c-0.5251,0.2341 -1.06186,0.42586 -1.62095,0.53618c-1.60669,0.31703 -3.28823,-0.21625 -4.90369,0.0467c-1.38514,0.22548 -2.60371,1.17613 -3.98896,1.4008c-3.75346,0.60874 -8.18965,0.11752 -12.02112,0.11752c-7.97793,0 -15.95584,0 -23.93377,0c-2.67764,0 -5.35527,-0.0507 -8.03215,-0.11752l-1.0914,-1.161l-0.25675,0.81146l-3.79996,-1.33443c-3.53028,-1.14382 -6.0964,-4.60671 -6.0964,-8.70102c0,-5.02675 3.868,-9.10172 8.63943,-9.10172h3.98896c1.42894,-0.63612 3.10253,0 4.6538,0c4.8096,0 9.88348,0.46397 14.67858,0.0229c10.54402,-0.96988 21.22145,-1.09596 31.90303,-1.0107c1.18565,-0.64517 2.3543,-1.36521 3.64111,-1.64959c7.77486,-1.71815 16.06743,-0.70665 23.80318,-3.29904c2.79176,-0.93557 5.50631,-2.24261 8.40026,-2.72267c2.45893,-1.17835 5.26641,-1.2948 7.93608,-1.72943c2.77027,-0.451 5.21181,-2.32308 7.97793,-2.8016c1.33364,-0.23072 2.72268,0.37858 4.05274,0.12595c0.97535,-0.18525 1.69141,-1.17638 2.65931,-1.4008c4.58108,-1.06223 9.75972,-0.61532 14.28319,-2.00804c1.37156,-0.4223 2.61288,-1.3012 4.01829,-1.57322c4.19145,-0.8113 9.34478,-0.16423 13.60066,-0.16423c8.81145,0 17.28379,-0.17801 25.97602,1.43181c5.96434,0.18716 11.03119,2.93216 16.7265,4.1714c5.04581,0 10.09163,0 15.13744,0c8.09756,0 16.46646,-0.60854 24.54622,0.0229c0.57087,0.04462 1.14315,0.08113 1.716,0.11514c5.64552,-0.64693 11.16342,-1.99586 16.412,-4.78035c2.55427,-1.33795 5.5717,-2.18865 7.9644,-3.80397c2.30068,-1.5532 4.91768,-3.25937 7.10133,-4.9561c1.79059,12.66057 3.59538,25.31913 5.40889,37.97645c-3.32456,0.19914 -6.71702,-0.03058 -9.96267,-0.06698z" data-paper-data="{&quot;index&quot;:null}" fill="#9e5400" stroke="#9e5400" stroke-width="0.5" stroke-linecap="butt"/><path d="M629.32433,232.49275c-2.69439,-1.28857 -5.58714,-2.5952 -8.62725,-2.61164c-6.84633,-0.03702 -13.69387,-0.12441 -20.54074,-0.14708c1.6975,-0.45414 3.18079,-0.38162 3.18079,-0.38162c6.68748,-1.33658 13.51685,-0.87716 20.30948,-0.87716c6.51596,0 14.39734,-1.11105 20.98557,-0.0632c-0.07173,3.66611 -0.1131,7.33002 -0.11428,10.9911c-4.87871,-3.0614 -11.15772,-4.9803 -15.19357,-6.9104z" data-paper-data="{&quot;index&quot;:null}" fill="#9e5400" stroke="#9e5400" stroke-width="0.5" stroke-linecap="butt"/><path d="M506.77288,270.70076c-0.81725,0.57389 -1.79978,0.57389 -1.79978,0.57389l-2.06298,-0.14778c-4.96851,-1.72093 -9.77815,-0.45157 -14.92926,-1.01855c-4.31829,-0.4753 -7.17591,-3.18182 -10.80824,-5.38486c-0.2837,-3.70584 -1.25775,-6.15821 1.56569,-9.31187c1.31002,-1.46324 3.73032,-1.65496 4.95183,-3.19286c0.92061,-1.15905 1.27176,-2.9211 2.57947,-3.6145c4.14031,-2.19535 6.98693,1.25288 10.60578,1.98278c1.88261,0.37971 3.88359,-0.40206 5.76155,0c2.5007,0.53539 4.47919,2.47215 6.66687,3.7966c1.00831,0.61044 2.38715,0.59621 3.24534,1.4042c3.29096,3.0985 6.45307,10.82307 1.52846,14.41556c-0.72011,0.52533 -5.19485,0.50731 -7.30473,0.49741z" data-paper-data="{&quot;index&quot;:null}" fill="#9e5400" stroke="#9e5400" stroke-width="0.5" stroke-linecap="butt"/><path d="M643.9774,205.117c-2.06819,-4.01897 -0.66386,-6.23552 1.75228,-7.4642c-0.12785,2.85312 -0.25396,5.70594 -0.37373,8.55819c-0.59603,-0.21387 -1.09311,-0.5393 -1.37856,-1.09399z" data-paper-data="{&quot;index&quot;:null}" fill="#9e5400" stroke="#9e5400" stroke-width="0.5" stroke-linecap="butt"/><path d="M607.2386,198.38812c1.59743,2.39615 -0.79872,3.99358 -0.79872,3.99358l-0.44786,0.1693c-1.01901,1.0539 -1.71154,2.5797 -3.05705,3.16171c-2.14962,0.92983 -9.41038,0.21787 -10.16363,-2.76271c-1.91106,-7.56187 6.39447,-6.49738 10.46979,-5.35769l0.00388,-0.0029c0,0 2.39615,-1.59743 3.99358,0.79872z" data-paper-data="{&quot;index&quot;:null}" fill="#9e5400" stroke="#9e5400" stroke-width="0.5" stroke-linecap="butt"/><path d="M182.37538,301.58622c1.90789,-0.42336 6.01784,-1.57543 7.9633,-1.76115c3.55517,-0.33939 7.60769,-0.96269 11.14507,-1.45394c4.32548,-0.60068 8.62686,-1.04567 13.03415,-1.04567c2.96705,0.04944 5.87442,-0.85525 8.82509,-1.17036c12.38038,-1.32213 25.67034,-0.06473 38.10817,-0.06473c6.50497,0 12.09936,-1.23923 18.41764,0.3707c1.43842,0.36652 5.91602,1.99466 7.32218,2.47018c1.0072,0.34059 5.32109,1.94897 7.12226,2.33058c2.85078,0.60399 5.9105,-0.30303 8.73176,0.42652c1.12736,0.29153 10.39843,1.48733 12.78335,2.18324c1.44173,0.4207 7.78805,4.74651 9.69924,6.02064c2.37549,2.33079 7.89496,1.69397 11.05367,2.99281c1.82785,0.7516 10.35778,4.21222 12.1619,4.85944c1.51652,0.54403 8.86023,4.27348 11.11655,5.57299c3.20024,1.84317 5.94894,5.32418 9.79378,6.35134c1.08042,0.28863 7.35554,1.96015 9.52953,2.39494c2.01851,0.40371 6.76914,1.00287 8.78764,1.40658c2.17399,0.4348 9.9479,1.98437 11.63063,2.20753c3.99453,0.52974 8.48531,-0.06473 12.53035,-0.06473c9.8807,0 19.76137,0 29.64207,0c4.10464,0 8.25034,-0.14229 12.35085,0c0.57826,0.02006 1.1719,0.41548 1.72033,0.23111c1.74518,-0.58666 7.11977,-1.98998 8.12697,-2.33058c1.40616,-0.47551 10.73757,-1.78411 14.10458,-2.60977c1.78818,-0.43851 8.63733,-2.15933 9.8807,-2.47017c1.78618,-0.44655 8.04539,-2.41268 9.57495,-2.63655c4.03717,-0.59091 7.53982,-2.91783 11.61985,-2.95435c2.32145,0.31187 4.942,-0.00767 7.21217,-0.58453c1.17252,-0.29795 9.13843,-0.23111 10.63054,-0.23111c0.6327,0 11.43977,-0.02222 12.17136,0.06473c1.6856,0.20033 3.2627,0.97639 4.94034,1.23508c3.12886,0.48246 6.89033,-0.06473 10.06019,-0.06473c7.41052,0 14.82102,0 22.23154,0c5.76222,0 12.67142,-0.77602 18.34681,0.06473c3.35829,0.4975 6.52859,1.93264 9.88069,2.47017c4.12415,0.66134 8.35351,-0.06473 12.53035,-0.06473c2.33714,0.21921 4.78219,-0.07775 7.01143,0.65764c1.10583,0.36479 6.96721,0.09488 8.80704,0.56239c1.78445,0.45344 4.87168,0.83411 6.66849,1.23579c1.81379,0.40548 6.50654,1.69468 7.79837,1.85616c2.03855,0.25482 4.37296,0.71123 6.41021,0.98587c1.83411,12.80976 3.67753,25.61819 5.5246,38.42608c1.61351,11.18833 4.4048,22.15256 7.31725,33.09422c-69.74788,0.18531 -139.49638,0.58137 -209.24029,-0.06819c-7.78749,-0.07253 -17.099,-2.99809 -25.58047,-3.003c-88.42245,-0.05126 -176.84741,0.66251 -265.26739,0c-2.47651,-0.01855 -4.74914,-1.40963 -7.14386,-2.0411c-0.99008,-0.26108 -2.03848,-0.4884 -3.11799,-0.68909c-8.10502,-16.40484 -6.9736,-36.53892 -5.77706,-54.21929c0.12303,-1.81797 1.84624,-3.14289 2.71209,-4.74615c4.40245,-8.15185 5.97952,-13.69799 12.73704,-22.00176c4.05382,-4.98142 9.7044,-9.62381 15.76859,-13.90599c0.13756,-0.08336 0.27517,-0.16667 0.41284,-0.24992c0.05914,-0.01328 0.11866,-0.02657 0.17856,-0.03985z" data-paper-data="{&quot;index&quot;:null}" fill="#d59213" stroke="none" stroke-width="0.5" stroke-linecap="butt"/><path d="" data-paper-data="{&quot;index&quot;:null}" fill="#d59213" stroke="none" stroke-width="0.5" stroke-linecap="butt"/><path d="M651.93776,397.00677c-7.82221,0 -15.64442,0 -23.46663,0c-2.97747,0 -12.84276,0.00824 -13.40645,-0.06473c-3.36684,-0.43584 -6.5102,-2.06358 -9.88069,-2.47017c-6.59915,-0.79605 -13.29388,0.06473 -19.94087,0.06473c-81.92737,0 -163.85474,0 -245.78211,0c-46.10989,0 -92.21976,0 -138.32963,0c-10.30274,0 -22.05516,1.29935 -32.26104,-0.11156c-2.57926,-0.35656 -4.85405,-1.97602 -7.41052,-2.47017c-2.37279,-0.45865 -4.82922,-0.47935 -7.32042,-0.34178c-5.45388,-14.77202 -4.71546,-31.85524 -3.695,-47.2652c1.42068,-0.53936 2.83178,-1.03559 3.72033,-1.30185c1.57748,-0.47271 7.20717,-2.10366 8.6456,-2.47018c6.75602,-1.72148 23.29725,-1.31198 24.58632,-1.49423c4.31991,-0.61074 8.71866,-0.59994 13.02216,-1.3172c16.70505,-0.07139 33.41082,-0.02943 50.11602,-0.02943c6.12738,0 12.40377,-0.33689 18.52629,0c2.34386,0.12897 4.78219,-0.07776 7.01143,0.65763c1.10584,0.36479 4.47303,1.8034 5.48823,1.9241c2.86753,0.34093 11.04024,2.16981 12.35087,2.47017c7.02895,1.61078 11.11692,4.9042 17.9784,5.48643c0.8234,0.8234 4.08266,1.80606 4.8542,2.04365c2.56388,0.78954 4.92915,2.13537 7.29176,3.40616c1.46488,0.78792 2.826,1.7621 4.16119,2.75406c0.531,0.39451 4.1993,0.99614 5.23718,1.13074c1.29107,0.16742 6.99618,1.00341 8.53021,1.49423c1.41378,0.45235 3.51186,1.24101 4.93955,1.64731c2.76366,0.78651 4.5045,0.45216 7.3779,0.45216c3.29358,0 6.45935,-1.20813 9.74356,-0.96001c0.418,0.03157 3.6341,-0.67539 5.04407,-1.13946c1.33812,-0.44043 7.37761,-2.165 9.16424,-2.60976c1.43097,-0.35622 6.7,-1.92169 8.12696,-2.33059c2.57383,-0.73753 11.00085,-3.28785 13.15154,-3.82615c0.9195,-0.23014 6.42662,-0.67619 7.84491,-1.11419c1.70952,-0.52795 3.58454,-0.08827 5.35751,-0.32866c10.21089,-1.38448 20.14686,-1.27713 30.49338,-1.27713c18.1146,0 36.2292,0 54.34379,0c13.17425,0 26.3485,0 39.52275,0c4.94219,0 11.97001,-0.99774 16.80597,0.23111c1.78445,0.45344 14.89458,2.23907 17.77645,2.23907c11.93917,0 23.87833,0 35.8175,0c3.02657,0 12.89436,-0.0405 14.33579,0.23111c1.80931,0.34094 17.53143,2.21738 18.5263,2.47017c1.78445,0.45344 11.59533,1.80505 14.82104,2.47017c0.54258,0.11187 1.36149,0.35372 2.26455,0.63995c0.65063,4.51979 1.30196,9.03947 1.95375,13.55908c1.34887,9.35332 3.52087,18.55002 5.89866,27.70785c-4.50695,0.2389 -9.1377,-0.15744 -13.33699,-0.15744z" data-paper-data="{&quot;index&quot;:null}" fill="#b97e11" stroke="none" stroke-width="0.5" stroke-linecap="butt"/><path d="" data-paper-data="{&quot;index&quot;:null}" fill="#faf1be" stroke="none" stroke-width="0.5" stroke-linecap="butt"/><path d="M536.97949,182.09069c-3.13657,0.00548 -7.03817,0.69352 -9.63463,-1.51655c-1.83794,-1.56442 -2.83735,-4.66451 -0.73797,-6.61614c0.71011,-0.66013 1.96754,-0.30527 2.79201,-0.81546c0.46141,-2.95958 2.28715,-5.49085 2.28715,-8.53654c0,-0.68492 0.18045,-1.57713 -0.27603,-2.21028c-0.69889,-0.96937 -2.75021,-0.58401 -3.68996,-0.58551c-2.79062,-0.00444 -6.66575,-0.34698 -8.45189,-2.99398c-0.93369,-1.3837 -0.87734,-4.40948 -0.6464,-6.00507c0.12423,-0.85835 0.01674,-1.91118 0.63,-2.52444c1.68583,-1.68583 5.13126,-0.39216 6.75113,0.39105c1.96019,1.62458 2.34517,1.55529 4.80212,1.18329c0.24955,-0.03779 0.61644,0.20598 0.75718,-0.00355c0.14573,-0.21696 -0.19014,-0.48808 -0.25729,-0.74068c-0.14003,-0.5267 -0.24518,-1.06208 -0.36339,-1.59411c-0.42449,-1.91021 -0.67703,-4.00282 -0.41446,-5.96785c0.35824,-2.68092 1.09435,-6.37499 2.60087,-8.67302c1.6872,-2.57364 6.78386,-3.52976 9.47708,-2.24332c1.22917,0.58712 2.26793,2.44838 2.96447,3.48695c1.66754,2.92883 3.21647,6.1523 1.87077,9.53464c-0.62445,1.5695 -1.28527,2.00417 -2.36032,3.29592c-0.36967,0.44417 -1.04102,0.87803 -0.9518,1.44897c0.05959,0.38135 0.77768,0.11026 1.15724,0.04017c1.2907,-0.23836 1.37492,-0.35656 2.59779,-1.00451c2.38107,-1.26164 6.51148,-2.4766 7.79296,1.08267c0.27323,0.75886 -0.04152,1.61575 -0.14943,2.41504c-0.40421,2.99415 -1.633,4.29643 -4.04243,5.93943c-2.17521,1.0888 -4.64807,2.19302 -6.98084,2.87774c-0.68027,0.19968 -1.73925,-0.13197 -2.22814,0.67531c-0.43005,0.71012 0.15008,1.65383 0.19966,2.48254c0.14794,2.47306 0.38784,4.86207 1.11051,7.26296c0.76566,2.54369 2.40544,6.11848 0.54312,8.73416c-0.96465,1.35488 -2.73246,1.37002 -4.13104,1.56158c0,0 -0.9366,0.11709 -1.41437,-0.57904z" data-paper-data="{&quot;index&quot;:null}" fill="#e9d877" stroke="none" stroke-width="0.5" stroke-linecap="butt"/><path d="M409.58161,231.86333c-2.73281,0.00478 -6.13218,0.60425 -8.39441,-1.32133c-1.60134,-1.36305 -2.4721,-4.06406 -0.64297,-5.76447c0.61871,-0.57515 1.71427,-0.26598 2.43259,-0.71048c0.40202,-2.57861 1.99273,-4.78403 1.99273,-7.43767c0,-0.59676 0.15722,-1.37411 -0.24049,-1.92575c-0.60892,-0.84458 -2.39619,-0.50885 -3.21497,-0.51014c-2.4314,-0.00386 -5.8077,-0.30231 -7.36391,-2.60858c-0.8135,-1.20558 -0.76441,-3.84186 -0.5632,-5.23206c0.10825,-0.74785 0.01459,-1.66517 0.5489,-2.19949c1.46882,-1.46882 4.47073,-0.34168 5.88208,0.34072c1.70787,1.41545 2.04328,1.35509 4.18396,1.03097c0.21742,-0.03292 0.53708,0.17946 0.65972,-0.00308c0.12696,-0.18903 -0.16566,-0.42526 -0.22416,-0.64533c-0.122,-0.4589 -0.21362,-0.92536 -0.31662,-1.38891c-0.36985,-1.66432 -0.58988,-3.48756 -0.36111,-5.19964c0.31212,-2.33581 0.95349,-5.55435 2.26607,-7.55657c1.47001,-2.24235 5.9106,-3.07538 8.25712,-1.95455c1.07094,0.51155 1.97598,2.13321 2.58285,3.03808c1.45288,2.55181 2.80243,5.36034 1.62995,8.30729c-0.54406,1.36747 -1.11982,1.74618 -2.05649,2.87164c-0.32208,0.38699 -0.90701,0.76501 -0.82928,1.26245c0.05192,0.33226 0.67757,0.09607 1.00827,0.03499c1.12455,-0.20767 1.19792,-0.31066 2.26338,-0.87521c2.07457,-1.09923 5.67329,-2.15779 6.78979,0.9433c0.23805,0.66118 -0.03618,1.40776 -0.1302,2.10416c-0.35218,2.60872 -1.42278,3.74337 -3.52206,5.17487c-1.8952,0.94864 -4.04974,1.91072 -6.08223,2.5073c-0.5927,0.17398 -1.51536,-0.11497 -1.94132,0.58838c-0.37468,0.61871 0.13076,1.44094 0.17396,2.16297c0.1289,2.15472 0.33792,4.23618 0.96756,6.32802c0.6671,2.21624 2.09578,5.33088 0.47321,7.60984c-0.84048,1.18047 -2.38072,1.19367 -3.59927,1.36056c0,0 -0.81603,0.10201 -1.2323,-0.50449z" data-paper-data="{&quot;index&quot;:null}" fill="#e9d877" stroke="none" stroke-width="0.5" stroke-linecap="butt"/><path d="" data-paper-data="{&quot;index&quot;:null}" fill="#e9d877" stroke="none" stroke-width="0.5" stroke-linecap="butt"/><path d="" data-paper-data="{&quot;index&quot;:null}" fill="#e9d877" stroke="none" stroke-width="0.5" stroke-linecap="butt"/><path d="M333.89792,284.76044c-0.57011,0.83065 -1.6877,0.69093 -1.6877,0.69093c-1.66886,-0.22857 -3.7783,-0.24664 -4.92938,-1.86335c-2.2222,-3.12116 -0.26554,-7.38681 0.64809,-10.42207c0.86232,-2.86488 1.14859,-5.71557 1.32512,-8.66657c0.05916,-0.98885 0.7514,-2.11494 0.23825,-2.96229c-0.58337,-0.96328 -1.84701,-0.56755 -2.65874,-0.80582c-2.7836,-0.81705 -5.73435,-2.13466 -8.32993,-3.43388c-2.87507,-1.96051 -4.34133,-3.51447 -4.82366,-7.08725c-0.12876,-0.95377 -0.50433,-1.97624 -0.1783,-2.88175c1.52911,-4.24711 6.45774,-2.79736 9.29898,-1.2919c1.4592,0.77318 1.55968,0.91423 3.09982,1.19864c0.4529,0.08364 1.30978,0.40713 1.38088,-0.04792c0.10645,-0.68127 -0.69465,-1.199 -1.13575,-1.729c-1.28281,-1.54138 -2.07133,-2.06004 -2.81645,-3.93286c-1.60577,-4.03599 0.24251,-7.88241 2.2323,-11.37725c0.83114,-1.23926 2.07063,-3.46023 3.53735,-4.16082c3.21369,-1.53504 9.29531,-0.39415 11.30857,2.67686c1.79764,2.74214 2.67603,7.1501 3.1035,10.34912c0.31331,2.34479 0.01198,4.84179 -0.49455,7.12117c-0.14107,0.63485 -0.26654,1.2737 -0.43363,1.90219c-0.08013,0.3014 -0.48089,0.62493 -0.30701,0.88381c0.16796,0.25 0.60575,-0.04085 0.90353,0.00423c2.93176,0.44389 3.39114,0.52656 5.73015,-1.41198c1.93292,-0.93458 6.04419,-2.47825 8.05581,-0.46663c0.73178,0.73178 0.60351,1.98809 0.75176,3.01231c0.27556,1.90395 0.3428,5.51448 -0.77133,7.16558c-2.13132,3.15855 -6.75534,3.5673 -10.08526,3.57258c-1.12135,0.00178 -3.56911,-0.45803 -4.40306,0.69866c-0.54469,0.75551 -0.32937,1.82013 -0.32937,2.63742c0,3.6343 2.17856,6.65475 2.72915,10.18629c0.98379,0.60877 2.48421,0.18533 3.33157,0.97304c2.50511,2.32878 1.31255,6.02798 -0.88058,7.89475c-3.09825,2.63718 -7.75385,1.81617 -11.49658,1.80962z" data-paper-data="{&quot;index&quot;:null}" fill="#e9d877" stroke="none" stroke-width="0.5" stroke-linecap="butt"/><path d="M455.89701,245.83987c-0.30242,0.44063 -0.89528,0.36652 -0.89528,0.36652c-0.88528,-0.12125 -2.00428,-0.13084 -2.6149,-0.98846c-1.17881,-1.65569 -0.14086,-3.91849 0.34379,-5.52862c0.45744,-1.51974 0.60929,-3.03194 0.70294,-4.59736c0.03138,-0.52456 0.3986,-1.12191 0.12638,-1.57141c-0.30946,-0.51099 -0.97979,-0.30107 -1.41039,-0.42746c-1.47662,-0.43342 -3.04191,-1.13238 -4.41879,-1.82158c-1.52514,-1.03999 -2.30295,-1.86433 -2.55881,-3.75959c-0.06831,-0.50594 -0.26754,-1.04834 -0.09459,-1.52869c0.81115,-2.25297 3.42565,-1.48392 4.93285,-0.68532c0.77407,0.41015 0.82737,0.48497 1.64437,0.63585c0.24025,0.04437 0.6948,0.21597 0.73252,-0.02542c0.05647,-0.3614 -0.36849,-0.63603 -0.60248,-0.91718c-0.6805,-0.81766 -1.09879,-1.09279 -1.49405,-2.08627c-0.85181,-2.14098 0.12865,-4.1814 1.18417,-6.03532c0.4409,-0.6574 1.09842,-1.83555 1.87647,-2.20719c1.70477,-0.8143 4.93089,-0.20909 5.99887,1.42c0.9536,1.45463 1.41955,3.79292 1.64632,5.48991c0.1662,1.24384 0.00635,2.56844 -0.26235,3.77758c-0.07483,0.33677 -0.14139,0.67565 -0.23003,1.00905c-0.0425,0.15989 -0.2551,0.33151 -0.16286,0.46884c0.0891,0.13262 0.32133,-0.02168 0.47929,0.00224c1.55522,0.23547 1.7989,0.27933 3.03968,-0.74901c1.02536,-0.49577 3.20627,-1.31465 4.27338,-0.24754c0.38819,0.38819 0.32014,1.05463 0.39878,1.59795c0.14618,1.00999 0.18185,2.92527 -0.40917,3.80114c-1.1306,1.67552 -3.58351,1.89235 -5.34995,1.89515c-0.59485,0.00094 -1.89331,-0.24297 -2.3357,0.37062c-0.28894,0.40077 -0.17472,0.96553 -0.17472,1.39907c0,1.92789 1.15567,3.53015 1.44774,5.40353c0.52187,0.32294 1.3178,0.09832 1.7673,0.51617c1.32889,1.23536 0.69627,3.19767 -0.46712,4.18793c-1.64353,1.39895 -4.1132,0.96343 -6.09861,0.95995z" data-paper-data="{&quot;index&quot;:null}" fill="#e9d877" stroke="none" stroke-width="0.5" stroke-linecap="butt"/><g stroke="none" stroke-width="0" stroke-linecap="butt"><path d="M306.88481,275.92447l47.85272,-31.1255l4.2925,6.59935l-47.85272,31.1255z" fill="#7e7e7e"/><path d="M309.82527,280.7236l47.85272,-31.1255l1.23653,1.90104l-47.85272,31.1255z" fill="#747474"/><path d="M306.11306,275.27702l26.55587,-17.27309l5.22184,8.02811l-26.55587,17.27309z" fill="#646464"/><path d="M308.89033,279.56503l26.55585,-17.27309l2.36541,3.63661l-26.55587,17.27309z" fill="#515151"/></g><path d="M23.19341,277.52687v-86.73726h183.7999v86.73726z" fill="#f5f5f5" stroke="#373737" stroke-width="3" stroke-linecap="butt"/><text transform="translate(33.79596,211.06837) scale(0.34192,0.34192)" font-size="40" xml:space="preserve" fill="#373737" fill-rule="nonzero" stroke="none" stroke-width="1" stroke-linecap="butt" stroke-linejoin="miter" stroke-miterlimit="10" stroke-dasharray="" stroke-dashoffset="0" font-family="Pixel" font-weight="normal" text-anchor="start" style="mix-blend-mode: normal"><tspan x="0" dy="0">Você obteve:</tspan></text><text transform="translate(33.17096,236.60428) scale(0.34192,0.34192)" font-size="40" xml:space="preserve" fill="#373737" fill-rule="nonzero" stroke="none" stroke-width="1" stroke-linecap="butt" stroke-linejoin="miter" stroke-miterlimit="10" stroke-dasharray="" stroke-dashoffset="0" font-family="Pixel" font-weight="normal" text-anchor="start" style="mix-blend-mode: normal"><tspan x="0" dy="0">- Defesa melhorada</tspan></text><text transform="translate(33.79596,258.4766) scale(0.34192,0.34192)" font-size="40" xml:space="preserve" fill="#373737" fill-rule="nonzero" stroke="none" stroke-width="1" stroke-linecap="butt" stroke-linejoin="miter" stroke-miterlimit="10" stroke-dasharray="" stroke-dashoffset="0" font-family="Pixel" font-weight="normal" text-anchor="start" style="mix-blend-mode: normal"><tspan x="0" dy="0">- Relíquia Calliope</tspan></text><path d="M314.00824,280.8523l24.25273,-1.26117" data-paper-data="{&quot;index&quot;:null}" fill="#e0a00b" stroke="#cd920a" stroke-width="5" stroke-linecap="round"/><path d="M312.01318,284.09389l27.59357,-1.43492" data-paper-data="{&quot;index&quot;:null}" fill="#e0a00b" stroke="#9d7008" stroke-width="1.5" stroke-linecap="round"/><path d="M340.26608,282.71948l-0.32283,-6.86875" data-paper-data="{&quot;index&quot;:null}" fill="#e0a00b" stroke="#9d7008" stroke-width="1.5" stroke-linecap="round"/><path d="M274.61907,281.35758l-24.25273,-1.26117" fill="#e0a00b" stroke="#cd920a" stroke-width="5" stroke-linecap="round"/><path d="M276.61413,284.59916l-27.59356,-1.43491" fill="#e0a00b" stroke="#9d7008" stroke-width="1.5" stroke-linecap="round"/><path d="M248.68407,276.356l-0.32282,6.86874" fill="#e0a00b" stroke="#9d7008" stroke-width="1.5" stroke-linecap="round"/><path d="M269.94203,284.00741c-0.86644,0.6216 -1.64919,1.3364 -2.33833,2.12532c-0.12842,-0.08362 -0.21794,-0.15553 -0.2577,-0.21211c-0.87516,-1.24574 -0.55121,-9.89537 0.16094,-11.00065c0.06452,-0.10014 0.16515,-0.21001 0.29418,-0.32682c0.68824,0.84717 1.47013,1.60289 2.32479,2.25635c-0.36626,1.00642 0.32191,3.88487 0.28229,4.82095c-0.03352,0.79205 -1.02332,1.78299 -0.46617,2.33699z" data-paper-data="{&quot;index&quot;:null}" fill="#ffd268" stroke="none" stroke-width="0.5" stroke-linecap="butt"/><path d="M340.13262,272.68655l-22.72187,8.57335" fill="#e0a00b" stroke="#cd920a" stroke-width="5" stroke-linecap="round"/><path d="M316.68654,284.81862l25.85182,-9.75435" fill="#e0a00b" stroke="#9d7008" stroke-width="1.5" stroke-linecap="round"/><path d="M343.18488,274.92148l-2.39536,-6.44563" fill="#e0a00b" stroke="#9d7008" stroke-width="1.5" stroke-linecap="round"/><path d="M249.04769,273.19467l22.72187,8.57336" fill="#e0a00b" stroke="#cd920a" stroke-width="5" stroke-linecap="round"/><path d="M246.81243,275.57241l25.85182,9.75435" fill="#e0a00b" stroke="#9d7008" stroke-width="1.5" stroke-linecap="round"/><path d="M246.16591,275.42964l2.39538,-6.44563" fill="#e0a00b" stroke="#9d7008" stroke-width="1.5" stroke-linecap="round"/><path d="M300.54949,261.59765c7.42992,0.72956 11.45207,2.69514 14.62758,9.76651c0.73136,1.62861 2.07846,3.17691 2.17322,5.04909c0.0439,0.86712 -0.09077,1.60075 -0.37476,2.21832c0.99942,-0.12384 1.90049,-0.04686 2.46865,0.5213c4.34251,4.34251 -3.63575,5.84338 -6.72969,5.84338c-17.33319,0 -21.03519,-0.70196 -32.55457,-0.9096c-2.12644,-0.03833 -4.16055,-0.72789 -6.15536,0.00964c-0.85579,0.3164 -4.77569,1.54287 -5.82895,0.70652c-1.11341,-0.11334 -1.92631,-0.80369 -1.66316,-2.48016c-0.01219,-0.09715 -0.01844,-0.19584 -0.01844,-0.29581c0,-0.41028 0.10537,-0.79919 0.29386,-1.1474c1.52096,-5.48105 4.57957,-10.52004 7.60778,-15.4649c0.44963,-0.7342 1.72385,-4.46953 2.79318,-5.26299c2.30051,-1.70704 5.89869,-1.34889 8.60497,-1.80167c2.40816,-0.4029 8.66366,-1.6845 10.84837,0.21344c0.92224,0.80118 1.39732,1.8497 1.35063,2.78476c0.90222,0.08328 1.76111,0.17143 2.55674,0.24955z" fill="#ffc43a" stroke="#000000" stroke-width="0" stroke-linecap="butt"/><path d="M322.01704,280.77994c0.18851,0.34822 0.29385,0.7371 0.29385,1.14738c0,0.09997 -0.00628,0.19866 -0.01844,0.29583c0.35687,2.27349 -1.26523,2.73346 -2.932,2.40018c-1.30489,-0.26092 -2.63716,-1.00806 -3.06865,-1.75187c-3.32777,-5.73651 -4.33965,-13.69849 -9.25857,-18.71219c-0.47944,-0.4887 -3.54137,-0.32826 -3.73775,-0.33694c-3.30539,-0.14618 -5.28685,-0.14758 -9.57912,-0.29721c-3.43435,-0.11972 -3.65715,-3.2339 -1.55361,-5.06131c2.18471,-1.89794 8.44019,-0.61633 10.84837,-0.21344c2.70627,0.45278 6.30446,0.09461 8.60497,1.80166c1.06933,0.79348 2.34354,4.52879 2.79315,5.26299c3.02819,4.94486 6.08682,9.98386 7.60779,15.46491z" data-paper-data="{&quot;index&quot;:null}" fill="#ffc43a" stroke="#000000" stroke-width="0" stroke-linecap="butt"/><path d="M267.1717,279.95646c0,-2.04226 3.76282,-3.69784 8.40451,-3.69784c4.64169,0 8.40451,1.65558 8.40451,3.69784c0,2.04226 -3.76282,3.69783 -8.40451,3.69783c-4.64169,0 -8.40451,-1.65557 -8.40451,-3.69783z" fill="#f5bc38" stroke="none" stroke-width="NaN" stroke-linecap="butt"/><path d="M305.76912,280.01079c0,-2.04226 3.76282,-3.69783 8.4045,-3.69783c4.64168,0 8.40449,1.65558 8.40449,3.69783c0,2.04226 -3.76282,3.69784 -8.40449,3.69784c-4.64169,0 -8.4045,-1.65557 -8.4045,-3.69784z" fill="#f5bc38" stroke="none" stroke-width="NaN" stroke-linecap="butt"/><path d="M274.71218,283.65432v-7.39567h39.58756v7.39567z" fill="#f5bc38" stroke="none" stroke-width="0" stroke-linecap="butt"/><path d="M270.36748,272.43757c0.97364,-0.74624 1.56655,-4.45981 2.27753,-5.82883c3.37025,-6.48958 7.25763,-9.49628 14.76295,-9.67455c0.01013,-0.00025 0.02029,-0.00052 0.03046,-0.00083c0.09155,0.01848 0.18607,0.0288 0.28275,0.03012c0.00718,0.00004 0.0143,0.00009 0.02134,0.00015c2.34803,0.02174 4.69619,0.03577 7.04438,0.04158c1.69285,1.73755 1.65751,2.85299 -0.10602,4.61651c-1.05532,1.05532 -2.97237,0.31105 -4.46457,0.33742c-4.25657,0.07523 -7.66785,0.33219 -10.54173,3.31191c-2.74108,2.84202 -7.42593,14.86903 -8.84307,18.2903c-0.46361,1.11925 -4.04727,4.23716 -5.28464,2.07175c-0.79562,-0.46956 -1.32934,-1.33564 -1.32934,-2.32636c0,-0.96348 0.50477,-1.80903 1.26427,-2.2867c1.74867,-3.18309 4.58577,-8.35262 4.88568,-8.58247z" fill="#dd9e0b" stroke="none" stroke-width="0.5" stroke-linecap="butt"/><path d="M323.58902,280.68739c0.75952,0.47766 1.26428,1.32324 1.26428,2.28671c0,0.99072 -0.53373,1.8568 -1.32935,2.32636c-1.23737,2.16541 -4.82104,-0.95251 -5.28464,-2.07176c-1.41713,-3.42127 -6.10199,-15.44828 -8.84306,-18.29029c-2.87388,-2.97972 -6.28516,-3.23668 -10.54173,-3.31191c-1.49221,-0.02637 -3.40926,0.71788 -4.46458,-0.33742c-1.64923,-1.64923 -1.78702,-2.73166 -0.41337,-4.28618c3.77515,0.01238 7.55037,0.0036 11.32533,-0.02852c0.06541,0.00869 0.13048,0.01696 0.19517,0.02476c5.10004,1.02034 8.18566,3.99504 10.92874,9.27695c0.71098,1.36902 1.30388,5.0826 2.27753,5.82885c0.29992,0.22987 3.13701,5.39939 4.88567,8.58247z" data-paper-data="{&quot;index&quot;:null}" fill="#dd9e0b" stroke="none" stroke-width="0.5" stroke-linecap="butt"/><path d="M311.88435,264.95082c-0.27338,0.54678 -0.82018,0.27339 -0.82018,0.27339l-0.22138,-0.11306c-3.4076,-1.37308 -6.63494,-1.88432 -10.08783,-2.91674c-1.93416,-0.04348 -3.89114,0.01532 -5.88341,0.01532c-5.23994,0 -9.94367,1.0528 -15.00138,2.1288c0,0 -0.5982,0.12593 -0.72415,-0.47227c-0.12593,-0.5982 0.47227,-0.72414 0.47227,-0.72414c0.47242,-0.09831 0.94178,-0.19672 1.40879,-0.29441c-0.15114,-0.41808 0.25223,-0.68698 0.25223,-0.68698c3.7659,-2.49519 9.04474,-1.35406 13.29909,-1.70859c5.35987,-0.00371 11.01284,0.54541 16.35146,1.07346l0.07304,-0.00304c0,0 0.61132,0 0.61132,0.61131c0,0.61132 -0.61132,0.61132 -0.61132,0.61132l-0.19469,-0.00304c-0.30001,-0.03036 -0.60107,-0.0607 -0.90306,-0.09095c0.09785,0.12571 0.16007,0.31056 0.06373,0.56746c-0.03496,0.09326 -0.07945,0.16562 -0.1294,0.22143c0.48336,0.16467 0.96885,0.34205 1.45741,0.53583l0.31408,0.15467c0,0 0.54677,0.27339 0.27339,0.82017zM283.86501,262.26559c0.96078,-0.19024 1.91757,-0.36973 2.87673,-0.53072c-0.99881,0.07857 -1.96949,0.23586 -2.87673,0.53072z" fill="#dd9e0b" stroke="none" stroke-width="0.5" stroke-linecap="butt"/><path d="M316.09321,260.0376c0.18484,0.21524 0.38512,0.44707 0.59364,0.6918c0.17326,-0.1365 0.47986,-0.14008 0.83333,0.01567c0.83731,0.36898 1.91902,2.311 2.35314,3.04668c0.48789,0.82676 1.32468,1.79939 1.48038,2.67651c0.07239,0.4077 -0.38794,1.26134 -0.43599,1.48557c-0.32358,1.51027 -0.65909,3.0416 -1.40886,4.19533c-0.02805,0.09933 -0.08178,0.18048 -0.16216,0.23456c-0.01956,0.01318 -0.04025,0.0244 -0.06188,0.03375c-0.27239,0.29564 -0.58081,0.15623 -0.84026,-0.14441c-0.38826,-0.18827 -0.98314,-1.461 -1.10348,-1.74526c-0.28052,-0.66262 -0.84899,-1.14825 -1.30954,-1.74591c-2.49498,-3.23766 -3.42124,-4.1944 -7.11421,-9.10725c-0.6592,-0.87695 -2.06495,-3.33616 -0.28901,-2.67786c0.23236,0.08614 0.43943,0.33137 0.62808,0.63099c0.06051,-0.1619 0.17552,-0.2968 0.35475,-0.39871c0.38699,-0.21997 0.97731,-0.04228 1.4522,-0.04973c2.06194,-0.03226 3.30393,0.84861 5.02987,2.85834z" fill="#ff3b3b" stroke="#000000" stroke-width="0" stroke-linecap="butt"/><path d="M307.76137,256.48203c1.39789,-0.29152 3.03674,-0.089 4.65067,0.11735c0.23964,0.03064 1.24291,-0.10068 1.62618,0.09778c0.82457,0.42698 1.52102,1.49403 2.18631,2.2014c0.592,0.62946 2.17588,2.23352 2.26953,3.10298c0.09015,0.83718 -0.56741,1.18457 -1.32259,0.22696c-0.94381,-1.19682 -1.36625,-1.75829 -2.09912,-2.67588c-0.04352,-0.05449 -0.66445,-0.94352 -0.86235,-1.01499c-2.03025,-0.73318 -3.80569,0.02977 -5.63853,-0.1571c-0.23763,-0.02422 -0.66788,-0.30336 -0.997,-0.6388c-0.42041,-0.42849 -0.67589,-0.9489 -0.15446,-1.14748c0.01642,-0.01626 0.03441,-0.03106 0.05401,-0.04424c0.08038,-0.05409 0.17903,-0.07547 0.28739,-0.06797z" data-paper-data="{&quot;index&quot;:null}" fill="#ff3b3b" stroke="#000000" stroke-width="0" stroke-linecap="butt"/><path d="M272.39908,260.62519c1.72595,-2.00973 2.96795,-2.89058 5.02989,-2.85832c0.4749,0.00745 1.0652,-0.17025 1.45219,0.04972c0.17922,0.1019 0.29425,0.23679 0.35475,0.39871c0.18867,-0.29962 0.39573,-0.54485 0.62809,-0.63099c1.77594,-0.65828 0.37017,1.80091 -0.28901,2.67786c-3.69297,4.91287 -4.61922,5.86959 -7.11421,9.10726c-0.46055,0.59766 -1.02901,1.08328 -1.30953,1.7459c-0.12033,0.28427 -0.71523,1.557 -1.10349,1.74528c-0.25945,0.30063 -0.56788,0.44005 -0.84026,0.14441c-0.02164,-0.00934 -0.04232,-0.02058 -0.06188,-0.03376c-0.08038,-0.05409 -0.13411,-0.13523 -0.16216,-0.23456c-0.74975,-1.15373 -1.08527,-2.68505 -1.40885,-4.19533c-0.04804,-0.22423 -0.50837,-1.07787 -0.43598,-1.48557c0.15571,-0.87712 0.99249,-1.84974 1.48038,-2.67649c0.43412,-0.73568 1.51583,-2.67771 2.35314,-3.0467c0.35345,-0.15575 0.66006,-0.15218 0.83333,-0.01566c0.20852,-0.24473 0.40879,-0.47655 0.59364,-0.69179z" fill="#ff6e3b" stroke="#000000" stroke-width="0" stroke-linecap="butt"/><path d="M280.73091,257.06959c0.10838,-0.0075 0.207,0.01387 0.28738,0.06797c0.0196,0.01318 0.0376,0.02798 0.05401,0.04424c0.52142,0.1986 0.26594,0.71898 -0.15446,1.14748c-0.32912,0.33544 -0.75937,0.61458 -0.997,0.6388c-1.83284,0.18687 -3.60826,-0.57608 -5.63851,0.1571c-0.1979,0.07148 -0.81883,0.9605 -0.86235,1.01499c-0.73289,0.91759 -1.15531,1.47905 -2.09912,2.67588c-0.75518,0.95761 -1.41273,0.61021 -1.32259,-0.22696c0.09366,-0.86946 1.67753,-2.47352 2.26953,-3.10298c0.6653,-0.70736 1.36174,-1.77442 2.18632,-2.2014c0.38326,-0.19846 1.38654,-0.06714 1.62617,-0.09778c1.61393,-0.20635 3.2528,-0.40886 4.65067,-0.11735z" data-paper-data="{&quot;index&quot;:null}" fill="#ff6e3b" stroke="#000000" stroke-width="0" stroke-linecap="butt"/><path d="M321.99709,280.3967c-0.32226,-0.87973 -0.5416,-3.83118 -1.19645,-4.67865c0.61559,-0.88232 1.13077,-1.83993 1.52895,-2.85622c0.15844,0.07207 0.2877,0.14616 0.3796,0.22195c1.01441,0.83652 3.95219,8.97841 3.49708,10.43122c-0.02067,0.06599 -0.0841,0.16172 -0.18103,0.28041c-0.89634,-0.54212 -1.8593,-0.98518 -2.87371,-1.31401c0.36239,-0.69714 -0.88178,-1.34033 -1.15446,-2.0847z" data-paper-data="{&quot;index&quot;:null}" fill="#ffd268" stroke="none" stroke-width="0.5" stroke-linecap="butt"/><path d="M266.6144,282.33784c-1.01439,0.32883 -1.97737,0.77189 -2.87369,1.314c-0.09693,-0.1187 -0.16036,-0.21443 -0.18103,-0.28042c-0.4551,-1.45282 2.48267,-9.59471 3.49708,-10.43123c0.0919,-0.07578 0.22116,-0.14988 0.3796,-0.22195c0.39817,1.01629 0.91336,1.97392 1.52895,2.85624c-0.65485,0.84747 -0.87417,3.79891 -1.19643,4.67864c-0.27269,0.74437 -1.51685,1.38757 -1.15446,2.08472z" data-paper-data="{&quot;index&quot;:null}" fill="#ffd268" stroke="none" stroke-width="0.5" stroke-linecap="butt"/><path d="M304.76581,257.80832v-15.33427" fill="none" stroke="#e0a00b" stroke-width="1.5" stroke-linecap="round"/><path d="M298.10042,251.37527v6.73779" fill="none" stroke="#e0a00b" stroke-width="1.5" stroke-linecap="round"/><path d="M296.6582,250.30228c0,-0.84406 0.68423,-1.5283 1.52829,-1.5283c0.84406,0 1.5283,0.68424 1.5283,1.5283c0,0.84406 -0.68424,1.52829 -1.5283,1.52829c-0.84406,0 -1.52829,-0.68423 -1.52829,-1.52829z" fill="#ffd268" stroke="none" stroke-width="0.5" stroke-linecap="butt"/><path d="M303.00431,241.74884c0,-0.84406 0.68424,-1.5283 1.5283,-1.5283c0.84406,0 1.5283,0.68424 1.5283,1.5283c0,0.84406 -0.68424,1.52829 -1.5283,1.52829c-0.84406,0 -1.5283,-0.68423 -1.5283,-1.52829z" fill="#ffd268" stroke="none" stroke-width="0.5" stroke-linecap="butt"/><path d="M249.6076,299.47768c0,-8.88479 6.29912,-16.08732 14.06948,-16.08732c7.77037,0 14.0695,7.20254 14.0695,16.08732c0,8.88479 -6.29913,16.0873 -14.0695,16.0873c-7.77036,0 -14.06948,-7.20253 -14.06948,-16.0873z" fill="#dd9e0b" stroke="none" stroke-width="NaN" stroke-linecap="butt"/><path d="M314.22132,299.56239c0,-8.88479 6.29913,-16.08731 14.0695,-16.08731c7.77037,0 14.06948,7.20254 14.06948,16.08731c0,8.88479 -6.29912,16.08731 -14.06948,16.08731c-7.77037,0 -14.0695,-7.20254 -14.0695,-16.08731z" fill="#dd9e0b" stroke="none" stroke-width="NaN" stroke-linecap="butt"/><path d="M262.23068,315.56501v-32.17462h66.27123v32.17462z" fill="#dd9e0b" stroke="none" stroke-width="0" stroke-linecap="butt"/><path d="M253.65194,299.45853c0,-6.99444 5.67011,-12.66455 12.66455,-12.66455c6.99444,0 12.66455,5.67011 12.66455,12.66455c0,6.99444 -5.67011,12.66454 -12.66455,12.66454c-6.99444,0 -12.66455,-5.67011 -12.66455,-12.66454z" fill="#ffb80e" stroke="none" stroke-width="NaN" stroke-linecap="butt"/><path d="M311.81349,299.64453c0,-6.99444 5.67011,-12.66453 12.66456,-12.66453c6.99443,0 12.66454,5.67009 12.66454,12.66454c0,6.99444 -5.67011,12.66456 -12.66454,12.66456c-6.99444,0 -12.66456,-5.67011 -12.66456,-12.66456z" fill="#ffb80e" stroke="none" stroke-width="NaN" stroke-linecap="butt"/><path d="M265.01452,312.12309v-25.32909h59.65355v25.32909z" fill="#ffb80e" stroke="none" stroke-width="0" stroke-linecap="butt"/><path d="M258.2482,308.60244c0,-2.04226 5.09884,-3.69783 11.38855,-3.69783c6.28973,0 11.38855,1.65558 11.38855,3.69783c0,2.04226 -5.09882,3.69784 -11.38855,3.69784c-6.28973,0 -11.38855,-1.65557 -11.38855,-3.69784z" fill="#f3ae0c" stroke="none" stroke-width="NaN" stroke-linecap="butt"/><path d="M310.54976,308.65675c0,-2.04226 5.09882,-3.69783 11.38855,-3.69783c6.28972,0 11.38853,1.65558 11.38853,3.69783c0,2.04226 -5.09882,3.69784 -11.38853,3.69784c-6.28973,0 -11.38855,-1.65557 -11.38855,-3.69784z" fill="#f3ae0c" stroke="none" stroke-width="NaN" stroke-linecap="butt"/><path d="M268.46596,312.30029v-7.39568h53.64323v7.39568z" fill="#f3ae0c" stroke="none" stroke-width="0" stroke-linecap="butt"/><path d="M258.90101,299.51936c0,-6.15846 4.99241,-11.15087 11.15087,-11.15087c6.15846,0 11.15087,4.99241 11.15087,11.15087c0,6.15846 -4.99241,11.15088 -11.15087,11.15088c-6.15846,0 -11.15087,-4.99241 -11.15087,-11.15088z" fill="#dd9e0b" stroke="none" stroke-width="0" stroke-linecap="butt"/><path d="M307.74182,299.3797c0,-6.15846 4.99241,-11.15087 11.15088,-11.15087c6.15846,0 11.15087,4.99241 11.15087,11.15087c0,6.15846 -4.99241,11.15087 -11.15087,11.15087c-6.15846,0 -11.15088,-4.99241 -11.15088,-11.15087z" fill="#dd9e0b" stroke="none" stroke-width="0" stroke-linecap="butt"/><path d="M283.21616,299.44848c0,-6.15846 4.99241,-11.15087 11.15087,-11.15087c6.15846,0 11.15088,4.99241 11.15088,11.15087c0,6.15846 -4.99241,11.15088 -11.15088,11.15088c-6.15846,0 -11.15087,-4.99241 -11.15087,-11.15088z" fill="#dd9e0b" stroke="none" stroke-width="0" stroke-linecap="butt"/><path d="M263.57879,299.4125c0,-3.60406 2.92166,-6.52571 6.52571,-6.52571c3.60406,0 6.52571,2.92166 6.52571,6.52571c0,3.60406 -2.92166,6.52572 -6.52571,6.52572c-3.60406,0 -6.52571,-2.92167 -6.52571,-6.52572z" fill="#ffc43a" stroke="none" stroke-width="0" stroke-linecap="butt"/><path d="M288.0331,299.78409c0,-3.60406 2.92166,-6.52571 6.52571,-6.52571c3.60406,0 6.52571,2.92166 6.52571,6.52571c0,3.60406 -2.92166,6.52572 -6.52571,6.52572c-3.60406,0 -6.52571,-2.92167 -6.52571,-6.52572z" fill="#ffc43a" stroke="none" stroke-width="0" stroke-linecap="butt"/><path d="M312.80638,299.83673c0,-3.60406 2.92166,-6.52571 6.52571,-6.52571c3.60406,0 6.52571,2.92166 6.52571,6.52571c0,3.60406 -2.92166,6.52572 -6.52571,6.52572c-3.60406,0 -6.52571,-2.92166 -6.52571,-6.52572z" fill="#ffc43a" stroke="none" stroke-width="0" stroke-linecap="butt"/><path d="M275.05697,302.40706c-1.5283,0 -1.5283,-1.5283 -1.5283,-1.5283v-0.31441c0.00176,-3.38912 -0.30348,-4.46443 -3.92148,-4.44549c0,0 -1.5283,0 -1.5283,-1.5283c0,-1.5283 1.5283,-1.52829 1.5283,-1.52829c5.25599,0.02269 6.97562,2.4857 6.97807,7.50208v0.31441c0,0 0,1.5283 -1.5283,1.5283z" fill="#ffd268" stroke="none" stroke-width="0.5" stroke-linecap="butt"/><path d="M299.62333,302.44416c-1.5283,0 -1.5283,-1.5283 -1.5283,-1.5283v-0.3144c0.00176,-3.38911 -0.30349,-4.46443 -3.92147,-4.44551c0,0 -1.5283,0 -1.5283,-1.5283c0,-1.5283 1.5283,-1.52829 1.5283,-1.52829c5.25599,0.02269 6.9756,2.4857 6.97806,7.50209v0.3144c0,0 0,1.5283 -1.52829,1.5283z" fill="#ffd268" stroke="none" stroke-width="0.5" stroke-linecap="butt"/><path d="M324.30218,302.9314c-1.5283,0 -1.5283,-1.5283 -1.5283,-1.5283v-0.31441c0.00176,-3.38911 -0.30349,-4.46443 -3.92147,-4.4455c0,0 -1.5283,0 -1.5283,-1.5283c0,-1.5283 1.5283,-1.52829 1.5283,-1.52829c5.25599,0.02269 6.9756,2.4857 6.97806,7.50209v0.31441c0,0 0,1.5283 -1.52829,1.5283z" fill="#ffd268" stroke="none" stroke-width="0.5" stroke-linecap="butt"/><path d="M256.90419,289.5125c0.20513,3.84975 -0.16014,3.89596 -0.16014,3.89596l-0.4676,0.05918c-2.16153,0.24057 -4.35883,0.00038 -6.52361,0.27435c0,0 -0.36529,0.04622 -0.5704,-3.80352c-0.20514,-3.84975 0.16015,-3.89596 0.16015,-3.89596c2.16425,-0.27391 4.36645,0.03502 6.52362,-0.27437l0.46759,-0.05917c0,0 0.36528,-0.04622 0.57041,3.80353z" fill="#fc9b2d" stroke="none" stroke-width="0.5" stroke-linecap="butt"/><path d="M342.30666,290.76805c0.06617,3.86248 -0.29908,3.87744 -0.29908,3.87744l-0.46757,0.01915c-2.16021,0.05559 -4.33876,-0.372 -6.50339,-0.28334c0,0 -0.36526,0.01498 -0.43144,-3.8475c-0.06617,-3.86248 0.29908,-3.87744 0.29908,-3.87744c2.1641,-0.08866 4.34507,0.40802 6.5034,0.28333l0.46757,-0.01916c0,0 0.36525,-0.01498 0.43142,3.8475z" fill="#fcbb71" stroke="none" stroke-width="0.5" stroke-linecap="butt"/><path d="M260.23491,317.6912v-4.57531h71.06982v4.57531z" fill="#b07b00" stroke="none" stroke-width="0" stroke-linecap="butt"/><path d="M294.47569,268.74899c0.49883,-0.31047 1.05964,0.59058 1.05964,0.59058c1.53761,2.54099 3.62359,4.64851 5.42567,6.94602c0.14101,0.22069 0.28244,0.44106 0.42332,0.66163c0.28449,0.4454 0.74445,0.95495 1.2486,1.41399c0.07355,0.22169 0.08205,0.38792 0.08205,0.38792l-0.0184,0.1415c0.21816,0.85394 1.13435,3.46114 0.87222,3.97098c-0.24253,0.47172 -3.71219,-0.58835 -4.28708,-1.05086c-2.05806,-1.65578 -4.65015,-6.4505 -6.50386,-8.77581c-0.16841,-0.10725 -0.35723,-0.30025 -0.53427,-0.64212c-0.48463,-0.9359 0.08851,-1.11582 0.08851,-1.11582c0.83093,-0.24469 0.98617,-1.00022 1.49486,-1.64496c0.01038,-0.17074 0.07513,-0.5342 0.44213,-0.45913c-0.0028,-0.16888 0.04905,-0.32585 0.2066,-0.4239z" fill="#cfcfcf" stroke="none" stroke-width="0.5" stroke-linecap="butt"/><path d="M293.01837,271.14553c-0.12892,0.11068 -0.25538,0.18884 -0.37765,0.24126c-0.94128,0.86466 -1.5842,2.13261 -1.77011,3.86372c0,0 -0.14743,1.24334 -1.39078,1.09592c-1.24334,-0.14742 -1.09592,-1.39077 -1.09592,-1.39077c0.26049,-2.04905 1.00457,-3.6734 2.08733,-4.8815c-1.15767,-1.41273 -3.06909,-3.8523 -2.89015,-4.32822c1.79464,-4.77323 4.96462,0.76952 6.09004,2.10323l0.05864,0.091c1.83704,-0.63532 3.98733,-0.68813 6.2049,-0.17273l0.28625,0.06662c0,0 1.21947,0.28382 0.93563,1.50329c-0.28382,1.21947 -1.5033,0.93563 -1.5033,0.93563l-0.28624,-0.06662c-2.28814,-0.53337 -4.51923,-0.36755 -6.12855,0.71059c-0.05966,0.07677 -0.13235,0.15325 -0.2201,0.22857z" fill="#cfcfcf" stroke="none" stroke-width="0.5" stroke-linecap="butt"/><g fill="#ffc43a" stroke="#000000" stroke-width="0" stroke-linecap="butt"><path d="M317.37943,275.42944c2.23985,0.26415 3.45237,0.9758 4.40967,3.53607c0.22048,0.58965 0.62658,1.15025 0.65515,1.82808c0.01323,0.31395 -0.02736,0.57957 -0.11297,0.80316c0.30129,-0.04485 0.57292,-0.01697 0.74421,0.18874c1.30912,1.57225 -1.09605,2.11564 -2.02875,2.11564c-5.22532,0 -6.34133,-0.25414 -9.814,-0.32932c-0.64105,-0.01387 -1.25426,-0.26354 -1.85562,0.00349c-0.25799,0.11456 -1.4397,0.55861 -1.75722,0.25581c-0.33565,-0.04104 -0.5807,-0.29098 -0.50138,-0.89796c-0.00367,-0.03517 -0.00556,-0.07091 -0.00556,-0.1071c0,-0.14855 0.03177,-0.28935 0.08859,-0.41543c0.45851,-1.98447 1.38058,-3.80889 2.29345,-5.59922c0.13554,-0.26583 0.51967,-1.61824 0.84204,-1.90553c0.69351,-0.61806 1.77824,-0.48838 2.59408,-0.65231c0.72596,-0.14587 2.61177,-0.60989 3.27038,0.07727c0.27803,0.29008 0.42125,0.6697 0.40716,1.00826c0.27199,0.03015 0.53091,0.06207 0.77076,0.09035z"/><path d="M323.8511,282.37457c0.05683,0.12608 0.08858,0.26687 0.08858,0.41542c0,0.0362 -0.00189,0.07193 -0.00556,0.10711c0.10758,0.82314 -0.38141,0.98967 -0.88389,0.86901c-0.39337,-0.09447 -0.79501,-0.36497 -0.92509,-0.63428c-1.0032,-2.07696 -1.30824,-4.95967 -2.79111,-6.77494c-0.14453,-0.17694 -1.0676,-0.11886 -1.1268,-0.122c-0.99645,-0.05293 -1.59379,-0.05343 -2.88775,-0.1076c-1.03533,-0.04336 -1.1025,-1.17086 -0.46836,-1.8325c0.65861,-0.68717 2.54441,-0.22315 3.27038,-0.07728c0.81584,0.16393 1.90056,0.03425 2.59407,0.65231c0.32236,0.28728 0.70649,1.6397 0.84203,1.90553c0.91288,1.79034 1.83494,3.61475 2.29347,5.59922z" data-paper-data="{&quot;index&quot;:null}"/></g><g fill="#f5bc38" stroke="none" stroke-linecap="butt"><path d="M307.31726,282.07642c0,-0.73942 1.13436,-1.33884 2.53366,-1.33884c1.39929,0 2.53366,0.59942 2.53366,1.33884c0,0.73942 -1.13437,1.33884 -2.53366,1.33884c-1.39929,0 -2.53366,-0.59941 -2.53366,-1.33884z" stroke-width="NaN"/><path d="M318.95297,282.09609c0,-0.73942 1.13435,-1.33884 2.53364,-1.33884c1.39929,0 2.53364,0.59942 2.53364,1.33884c0,0.73942 -1.13434,1.33884 -2.53364,1.33884c-1.39929,0 -2.53364,-0.59941 -2.53364,-1.33884z" stroke-width="NaN"/><path d="M309.59044,283.41526v-2.67768h11.93419v2.67768z" stroke-width="0"/></g><path d="M308.28067,279.35413c0.29352,-0.27019 0.47226,-1.61472 0.6866,-2.11039c1.01601,-2.34961 2.18791,-3.43824 4.45048,-3.50278c0.00306,-0.00009 0.00611,-0.00018 0.00918,-0.00029c0.0276,0.00669 0.05609,0.01041 0.08523,0.01089c0.00216,0.00001 0.00432,0.00003 0.00644,0.00007c0.70785,0.00788 1.41574,0.01295 2.12362,0.01506c0.51033,0.6291 0.49966,1.03296 -0.03196,1.67145c-0.31814,0.38209 -0.89606,0.11262 -1.34591,0.12217c-1.28319,0.02724 -2.31158,0.12027 -3.17793,1.19911c-0.82633,1.02898 -2.23865,5.3835 -2.66586,6.6222c-0.13976,0.40524 -1.2201,1.5341 -1.59312,0.7501c-0.23985,-0.17001 -0.40074,-0.48358 -0.40074,-0.84229c0,-0.34883 0.15216,-0.65497 0.38113,-0.82793c0.52715,-1.15247 1.38245,-3.02416 1.47286,-3.10738z" fill="#dd9e0b" stroke="none" stroke-width="0.5" stroke-linecap="butt"/><path d="M324.325,282.34106c0.22897,0.17294 0.38113,0.4791 0.38113,0.82794c0,0.35871 -0.16089,0.67228 -0.40074,0.84229c-0.37302,0.784 -1.45336,-0.34487 -1.59312,-0.75011c-0.42721,-1.2387 -1.83953,-5.59321 -2.66586,-6.62219c-0.86637,-1.07884 -1.89474,-1.17187 -3.17793,-1.19911c-0.44984,-0.00955 -1.02778,0.25992 -1.34591,-0.12216c-0.49718,-0.59711 -0.53871,-0.98902 -0.12461,-1.55185c1.13806,0.00448 2.27616,0.00129 3.41418,-0.01033c0.01972,0.00315 0.03933,0.00615 0.05883,0.00897c1.53747,0.36942 2.46767,1.44644 3.29461,3.35881c0.21433,0.49567 0.39308,1.8402 0.68659,2.11039c0.09042,0.08323 0.94569,1.95491 1.47286,3.10738z" data-paper-data="{&quot;index&quot;:null}" fill="#dd9e0b" stroke="none" stroke-width="0.5" stroke-linecap="butt"/><path d="M320.79647,276.64348c-0.08242,0.19795 -0.24725,0.09898 -0.24725,0.09898l-0.06673,-0.04093c-1.02727,-0.49714 -2.0002,-0.68225 -3.04111,-1.05604c-0.58308,-0.01575 -1.17304,0.00555 -1.77363,0.00555c-1.57965,0 -2.99764,0.38118 -4.52236,0.77075c0,0 -0.18033,0.0456 -0.2183,-0.17098c-0.03796,-0.21658 0.14236,-0.26218 0.14236,-0.26218c0.14242,-0.03559 0.28391,-0.07124 0.42471,-0.10661c-0.04555,-0.15137 0.07604,-0.24873 0.07604,-0.24873c1.13528,-0.90341 2.72664,-0.49026 4.00918,-0.61862c1.6158,-0.00135 3.31997,0.19748 4.92936,0.38867l0.02202,-0.0011c0,0 0.1843,0 0.1843,0.22134c0,0.22134 -0.1843,0.22134 -0.1843,0.22134l-0.05869,-0.0011c-0.09045,-0.01099 -0.18121,-0.02198 -0.27224,-0.03293c0.0295,0.04552 0.04826,0.11245 0.01922,0.20545c-0.01054,0.03377 -0.02395,0.05997 -0.039,0.08017c0.14571,0.05963 0.29207,0.12385 0.43935,0.19401l0.09468,0.05601c0,0 0.16484,0.09898 0.08242,0.29694zM312.34968,275.67126c0.28964,-0.06887 0.57807,-0.13387 0.86723,-0.19215c-0.30111,0.02845 -0.59374,0.08539 -0.86723,0.19215z" fill="#dd9e0b" stroke="none" stroke-width="0.5" stroke-linecap="butt"/><g fill="#ffc43a" stroke="#000000" stroke-width="0" stroke-linecap="butt"><path d="M276.65711,275.15594c2.23985,0.26415 3.45237,0.9758 4.40967,3.53607c0.22048,0.58965 0.62658,1.15024 0.65515,1.82807c0.01323,0.31395 -0.02736,0.57957 -0.11297,0.80316c0.30129,-0.04485 0.57292,-0.01698 0.7442,0.18874c1.30912,1.57225 -1.09605,2.11565 -2.02875,2.11565c-5.22532,0 -6.34133,-0.25415 -9.814,-0.32933c-0.64105,-0.01387 -1.25426,-0.26354 -1.85562,0.0035c-0.25799,0.11456 -1.4397,0.55861 -1.75722,0.25581c-0.33565,-0.04104 -0.5807,-0.29098 -0.50138,-0.89796c-0.00367,-0.03517 -0.00556,-0.07092 -0.00556,-0.1071c0,-0.14855 0.03177,-0.28935 0.08859,-0.41543c0.45851,-1.98447 1.38058,-3.80889 2.29345,-5.59922c0.13554,-0.26583 0.51967,-1.61824 0.84204,-1.90552c0.69351,-0.61806 1.77824,-0.48839 2.59408,-0.65232c0.72596,-0.14587 2.61177,-0.60989 3.27038,0.07727c0.27803,0.29008 0.42125,0.6697 0.40717,1.00826c0.27199,0.03015 0.53091,0.06207 0.77076,0.09035z"/><path d="M283.12878,282.10107c0.05683,0.12608 0.08858,0.26688 0.08858,0.41543c0,0.0362 -0.00189,0.07193 -0.00556,0.1071c0.10758,0.82314 -0.38141,0.98967 -0.88389,0.86901c-0.39337,-0.09447 -0.79501,-0.36497 -0.92508,-0.63428c-1.0032,-2.07696 -1.30824,-4.95967 -2.79112,-6.77494c-0.14453,-0.17694 -1.06759,-0.11885 -1.12679,-0.12199c-0.99645,-0.05293 -1.59379,-0.05343 -2.88776,-0.10761c-1.03533,-0.04336 -1.1025,-1.17086 -0.46835,-1.8325c0.65861,-0.68717 2.5444,-0.22316 3.27038,-0.07729c0.81584,0.16393 1.90056,0.03426 2.59407,0.65232c0.32236,0.28728 0.70649,1.6397 0.84203,1.90552c0.91288,1.79034 1.83495,3.61475 2.29347,5.59922z" data-paper-data="{&quot;index&quot;:null}"/></g><g fill="#f5bc38" stroke="none" stroke-linecap="butt"><path d="M266.59494,281.80293c0,-0.73942 1.13436,-1.33884 2.53366,-1.33884c1.39929,0 2.53366,0.59942 2.53366,1.33884c0,0.73942 -1.13437,1.33883 -2.53366,1.33883c-1.39929,0 -2.53366,-0.59941 -2.53366,-1.33883z" stroke-width="NaN"/><path d="M278.23064,281.82259c0,-0.73942 1.13435,-1.33883 2.53365,-1.33883c1.39929,0 2.53364,0.59942 2.53364,1.33883c0,0.73942 -1.13434,1.33884 -2.53364,1.33884c-1.39929,0 -2.53365,-0.59941 -2.53365,-1.33884z" stroke-width="NaN"/><path d="M268.86812,283.14177v-2.67768h11.93419v2.67768z" stroke-width="0"/></g><path d="M267.55836,279.08064c0.29352,-0.27019 0.47226,-1.61472 0.6866,-2.11039c1.01601,-2.34962 2.1879,-3.43824 4.45048,-3.50278c0.00306,-0.00009 0.00611,-0.00018 0.00918,-0.00029c0.0276,0.00669 0.0561,0.01042 0.08523,0.0109c0.00216,0.00001 0.00432,0.00002 0.00643,0.00006c0.70785,0.00788 1.41574,0.01295 2.12362,0.01506c0.51033,0.6291 0.49967,1.03296 -0.03196,1.67145c-0.31814,0.38209 -0.89606,0.11262 -1.34591,0.12216c-1.28319,0.02724 -2.31158,0.12027 -3.17793,1.19911c-0.82633,1.02898 -2.23865,5.3835 -2.66586,6.6222c-0.13976,0.40524 -1.2201,1.53411 -1.59312,0.7501c-0.23985,-0.17001 -0.40074,-0.48358 -0.40074,-0.84229c0,-0.34883 0.15216,-0.65498 0.38113,-0.82794c0.52715,-1.15247 1.38244,-3.02416 1.47286,-3.10737z" fill="#dd9e0b" stroke="none" stroke-width="0.5" stroke-linecap="butt"/><path d="M283.60267,282.06757c0.22897,0.17294 0.38113,0.47909 0.38113,0.82793c0,0.35871 -0.1609,0.67228 -0.40074,0.84229c-0.37302,0.784 -1.45336,-0.34487 -1.59312,-0.75011c-0.42721,-1.2387 -1.83953,-5.5932 -2.66586,-6.62219c-0.86637,-1.07884 -1.89474,-1.17187 -3.17794,-1.19912c-0.44984,-0.00955 -1.02777,0.25992 -1.3459,-0.12216c-0.49718,-0.59711 -0.53872,-0.98902 -0.12461,-1.55185c1.13806,0.00448 2.27616,0.00129 3.41418,-0.01033c0.01972,0.00315 0.03933,0.00615 0.05883,0.00898c1.53747,0.36942 2.46768,1.44644 3.29462,3.35881c0.21433,0.49567 0.39308,1.8402 0.68658,2.11039c0.09042,0.08323 0.9457,1.9549 1.47286,3.10737z" data-paper-data="{&quot;index&quot;:null}" fill="#dd9e0b" stroke="none" stroke-width="0.5" stroke-linecap="butt"/><path d="M280.07415,276.36999c-0.08242,0.19795 -0.24725,0.09899 -0.24725,0.09899l-0.06673,-0.04093c-1.02727,-0.49714 -2.0002,-0.68225 -3.04111,-1.05604c-0.58308,-0.01575 -1.17303,0.00555 -1.77363,0.00555c-1.57965,0 -2.99764,0.38118 -4.52236,0.77075c0,0 -0.18033,0.04559 -0.2183,-0.17099c-0.03796,-0.21658 0.14236,-0.26218 0.14236,-0.26218c0.14242,-0.03559 0.28391,-0.07124 0.42471,-0.10661c-0.04555,-0.15137 0.07604,-0.24873 0.07604,-0.24873c1.13528,-0.90341 2.72665,-0.49026 4.00918,-0.61862c1.6158,-0.00135 3.31997,0.19748 4.92936,0.38867l0.02202,-0.0011c0,0 0.1843,0 0.1843,0.22134c0,0.22134 -0.1843,0.22133 -0.1843,0.22133l-0.05868,-0.0011c-0.09045,-0.01099 -0.18121,-0.02198 -0.27224,-0.03293c0.0295,0.04552 0.04826,0.11245 0.01922,0.20545c-0.01054,0.03377 -0.02395,0.05997 -0.039,0.08017c0.14571,0.05963 0.29207,0.12385 0.43935,0.19401l0.09468,0.056c0,0 0.16483,0.09899 0.08241,0.29694zM271.62736,275.39777c0.28964,-0.06887 0.57807,-0.13386 0.86722,-0.19215c-0.30111,0.02845 -0.59373,0.08539 -0.86722,0.19215z" fill="#dd9e0b" stroke="none" stroke-width="0.5" stroke-linecap="butt"/></g></g></svg>