<svg version="1.1" xmlns="http://www.w3.org/2000/svg" xmlns:xlink="http://www.w3.org/1999/xlink" width="96.88529" height="20.87682" viewBox="0,0,96.88529,20.87682"><g transform="translate(-151.06524,-167.15815)"><g data-paper-data="{&quot;isPaintingLayer&quot;:true}" fill-rule="nonzero" stroke="none" stroke-width="0" stroke-linecap="butt" stroke-linejoin="miter" stroke-miterlimit="10" stroke-dasharray="" stroke-dashoffset="0" style="mix-blend-mode: normal"><path d="M240.56815,186.13066l0.13149,-1.62608l7.25089,0.52017l-0.13149,1.62608z" fill="#9e5400"/><path d="M180.08064,179.08376l0.2785,-1.60956l7.1772,1.10175l-0.2785,1.60955z" fill="#9e5400"/><path d="M151.06524,168.5819l0.8443,-1.42375l6.3487,3.33998l-0.8443,1.42376z" fill="#9e5400"/><path d="M156.73963,174.26158l1.72662,-5.50165l22.91503,6.38001l-1.72661,5.50166z" fill="#fda824"/><path d="M210.38986,183.95616l0.13149,-1.62608l7.2509,0.52017l-0.13149,1.62607z" fill="#9e5400"/><path d="M186.8111,182.58094l0.82912,-5.68358l23.67279,3.06368l-0.82912,5.68357z" fill="#fda824"/><path d="M217.36966,186.38045l0.44776,-5.72146l23.83055,1.65452l-0.44776,5.72146z" fill="#fda824"/></g></g></svg>