<svg version="1.1" xmlns="http://www.w3.org/2000/svg" xmlns:xlink="http://www.w3.org/1999/xlink" width="105.17142" height="76.98586" viewBox="0,0,105.17142,76.98586"><g transform="translate(-187.41429,-141.50707)"><g data-paper-data="{&quot;isPaintingLayer&quot;:true}" fill-rule="nonzero" stroke-linecap="butt" stroke-linejoin="miter" stroke-miterlimit="10" stroke-dasharray="" stroke-dashoffset="0" style="mix-blend-mode: normal"><path d="M292.55175,186.26451c0,17.79927 -23.47795,32.22842 -52.43947,32.22842c-28.96152,0 -52.43947,-14.42916 -52.43947,-32.22842c0,-17.79927 23.47795,-32.22842 52.43947,-32.22842c28.96152,0 52.43947,14.42916 52.43947,32.22842z" fill="#4979e3" stroke="none" stroke-width="0"/><path d="M283.9335,168.46268c2.04808,-1.42132 3.48174,0.60914 3.48174,0.60914l1.4572,2.06601c1.24034,1.5462 2.93102,3.36129 3.42958,5.34673c0.80509,3.20612 -0.27834,7.11462 -1.07631,10.17942c-0.95115,3.6531 -2.02322,7.76039 -4.28256,10.87186c-2.73366,3.76468 -6.89583,7.7868 -10.32915,10.89492c-10.82668,7.42959 -23.02387,9.06346 -35.94079,9.06346c-4.97033,0 -10.14867,-0.00481 -15.01194,-0.88412c-4.0418,-0.73078 -8.10164,-2.62392 -12.1346,-3.55503c-2.88718,-1.69006 -6.03334,-2.35548 -8.74594,-4.37396c-2.15447,-1.60317 -3.93187,-3.56223 -6.25117,-4.97965c-4.88983,-2.98836 -9.22984,-6.21722 -10.76304,-12.1027c-0.94043,-3.61002 0.17623,-8.74127 1.31111,-12.24898c0.95504,-2.95186 2.64299,-5.69994 4.45002,-8.18416c0,0 1.47043,-2.00446 3.49227,-0.54667c2.02184,1.45779 0.55141,3.46223 0.55141,3.46223c-1.49088,2.01205 -2.93955,4.31764 -3.71522,6.72771c-0.797,2.47633 -2.01445,6.891 -1.26739,9.47974c1.35226,4.68588 4.67566,6.79703 8.5757,9.19997c2.45347,1.51165 4.38502,3.50933 6.64132,5.24564c2.29109,1.76308 5.11954,2.22832 7.58455,3.72104c3.70523,0.81208 7.38497,2.6257 11.07188,3.26183c4.62104,0.79731 9.48861,0.82011 14.21103,0.82011c11.61088,0 23.11592,-1.13448 32.81915,-7.97868c6.0904,-5.45757 10.80921,-11.20733 12.89226,-19.13435c0.58049,-2.20903 1.60609,-5.35543 1.07244,-7.71483c-0.1913,-0.84579 -2.25079,-3.18655 -2.58692,-3.60039l-1.55105,-2.19451c0,0 -1.43366,-2.03047 0.61442,-3.45179z" fill="#3f6ac6" stroke="none" stroke-width="0.5"/><path d="" fill="#d50000" stroke="none" stroke-width="0.5"/><path d="" fill="#4e4e4e" stroke="none" stroke-width="0.5"/><path d="" fill="#3a3a3a" stroke="none" stroke-width="0.5"/><path d="" fill="#7c7c7c" stroke="none" stroke-width="0.5"/><path d="M211.74816,174.87825c0,-15.03724 12.27191,-27.22734 27.41007,-27.22734c15.13816,0 27.41007,12.1901 27.41007,27.22734c0,15.03724 -12.27191,27.22734 -27.41007,27.22734c-15.13817,0 -27.41007,-12.1901 -27.41007,-27.22734z" fill="#b0efff" stroke="none" stroke-width="0"/><path d="M212.66158,189.25775c-2.40766,-4.32195 -3.77936,-9.30002 -3.77936,-14.59847c0,-16.59116 13.44978,-30.04095 30.04095,-30.04095c16.59116,0 30.04095,13.44979 30.04095,30.04095c0,6.12251 -1.83156,11.81723 -4.97665,16.56615" fill="none" stroke="#4ed2f3" stroke-width="5"/><path d="M214.58363,188.30054c-2.2511,-4.04092 -3.5336,-8.69529 -3.5336,-13.6492c0,-15.51231 12.57521,-28.08752 28.08752,-28.08752c15.51231,0 28.08752,12.57521 28.08752,28.08752c0,5.72438 -1.71246,11.04881 -4.65305,15.48893" fill="none" stroke="#48c3e2" stroke-width="5"/><path d="M231.21992,143.54245c0,-0.99148 0.99148,-0.99148 0.99148,-0.99148l0.03587,0.0296c6.4898,-1.61223 13.37372,-1.5106 19.66608,1.00455c4.29315,1.66109 7.87244,4.17323 11.01299,7.57891c0.95471,1.0353 2.1377,2.27014 2.77554,3.53265c0.51079,1.01104 0.3341,1.82418 1.32556,2.39045c0,0 0.82497,0.54998 0.27499,1.37494c-0.54998,0.82496 -1.37494,0.27499 -1.37494,0.27499c-1.60566,-1.15795 -1.84212,-3.08836 -3.11326,-4.61166c-3.24092,-3.88381 -6.84278,-6.97424 -11.61729,-8.69124c-5.90884,-2.36526 -12.38045,-2.46058 -18.46875,-0.92983l-0.51681,0.0296c0,0 -0.99148,0 -0.99148,-0.99148z" fill="#81e6ff" stroke="none" stroke-width="0.5"/><path d="M223.5645,146.69146c0.4434,0.8868 -0.4434,1.33021 -0.4434,1.33021l-0.72245,0.35267c-1.72249,1.14354 -4.56704,2.62884 -5.90274,4.13279c-1.4439,1.62579 -2.48288,3.687 -3.80227,5.44718c0,0 -0.59489,0.79318 -1.38807,0.1983c-0.79318,-0.59489 -0.1983,-1.38807 -0.1983,-1.38807c1.34478,-1.79198 2.4177,-3.98665 3.93523,-5.60639c1.54377,-1.64774 4.34435,-3.15444 6.2562,-4.43373l0.93558,-0.47635c0,0 0.88681,-0.44341 1.33021,0.4434z" fill="#81e6ff" stroke="none" stroke-width="0.5"/><path d="M226.24581,144.78598c0,-0.54758 0.4439,-0.99148 0.99148,-0.99148c0.54758,0 0.99148,0.4439 0.99148,0.99148c0,0.54758 -0.4439,0.99148 -0.99148,0.99148c-0.54758,0 -0.99148,-0.4439 -0.99148,-0.99148z" fill="#81e6ff" stroke="none" stroke-width="0.5"/><path d="M217.35868,187.52403c0,-8.12415 9.65391,-14.71007 21.56259,-14.71007c11.90869,0 21.56259,6.58593 21.56259,14.71007c0,8.12415 -9.6539,14.71007 -21.56259,14.71007c-11.90869,0 -21.56259,-6.58593 -21.56259,-14.71007z" fill="#a5e0ef" stroke="none" stroke-width="0"/></g></g></svg>