<svg version="1.1" xmlns="http://www.w3.org/2000/svg" xmlns:xlink="http://www.w3.org/1999/xlink" width="94.84455" height="54.51289" viewBox="0,0,94.84455,54.51289"><g transform="translate(-150.97869,-164.95516)"><g data-paper-data="{&quot;isPaintingLayer&quot;:true}" fill-rule="nonzero" stroke="none" stroke-width="0" stroke-linecap="butt" stroke-linejoin="miter" stroke-miterlimit="10" stroke-dasharray="" stroke-dashoffset="0" style="mix-blend-mode: normal"><path d="M240.30645,192.96272l-1.05111,-1.24763l5.51679,-4.73403l1.05111,1.24763z" fill="#9e5400"/><path d="M164.05754,193.317l1.33581,-0.94013l4.29131,5.85754l-1.33581,0.94013z" fill="#9e5400"/><path d="M150.98885,165.36361l1.60408,-0.40845l2.122,6.85263l-1.60409,0.40846z" fill="#9e5400"/><path d="M150.97869,173.39214l5.11329,-2.66526l11.67545,20.72407l-5.11329,2.66527z" fill="#fda824"/><path d="M217.33879,212.65902l-1.05111,-1.24763l5.5168,-4.73404l1.0511,1.24763z" fill="#9e5400"/><path d="M166.33803,200.55086l4.60792,-3.42894l14.55771,18.91719l-4.60791,3.42893z" fill="#fda824"/><path d="M224.00322,209.46839l-3.70898,-4.37939l18.09256,-15.59782l3.70898,4.37939z" fill="#fda824"/></g></g></svg>