<svg version="1.1" xmlns="http://www.w3.org/2000/svg" xmlns:xlink="http://www.w3.org/1999/xlink" width="93.18395" height="61.06298" viewBox="0,0,93.18395,61.06298"><g transform="translate(-194.90395,-146.75633)"><g data-paper-data="{&quot;isPaintingLayer&quot;:true}" fill-rule="nonzero" stroke-linejoin="miter" stroke-miterlimit="10" stroke-dasharray="" stroke-dashoffset="0" style="mix-blend-mode: normal"><path d="" fill="#bd2222" stroke="#bd2222" stroke-width="5" stroke-linecap="round"/><path d="" fill="#bd2222" stroke="#8a1919" stroke-width="1.5" stroke-linecap="round"/><g data-paper-data="{&quot;index&quot;:null}"><path d="M264.78468,181.92392l10.36384,0.03654" fill="none" stroke="#dd9e0b" stroke-width="2.5" stroke-linecap="round"/><path d="M265.06102,181.83822l-7.7449,6.88672" fill="none" stroke="#dd9e0b" stroke-width="2.5" stroke-linecap="round"/><g><path d="M284.65945,181.82425l-11.76079,5.6381l-0.10124,-11.40628l11.76079,5.6381" data-paper-data="{&quot;index&quot;:null}" fill="#989898" stroke="#989898" stroke-width="1" stroke-linecap="round"/><path d="M284.64198,181.617c0,0 0.11594,0.04283 0.06956,0.14991c-0.03079,0.07109 -0.09225,0.0761 -0.13008,0.07145c-0.23799,0.05487 -0.5207,0.11631 -0.76394,0.06088c-0.31182,-0.07104 -0.55851,-0.29741 -0.8423,-0.417c-0.68326,-0.28792 -1.37839,-0.53881 -2.09189,-0.75847c-0.3902,-0.12019 -0.78551,-0.28289 -1.18648,-0.36585c-0.42808,-0.08857 -0.88496,-0.13345 -1.30206,-0.25353c-0.41706,-0.12008 -0.81625,-0.29845 -1.24934,-0.38531c-0.23465,-0.04706 -0.48908,-0.02129 -0.72811,-0.05115c-0.64101,-0.08097 -1.25527,-0.09362 -1.90426,-0.09362c-0.18088,0 -0.44326,-0.04417 -0.61864,-0.00309c-0.18925,0.04434 -0.41034,0.06328 -0.6013,0.12268c-0.14199,0.04417 -0.17763,0.12847 -0.3585,0.10014c-0.3802,-0.05955 -0.28377,-0.32436 -0.28377,-0.58674c0,-0.40608 0.00682,-0.78342 0.06934,-1.18c0.08956,-0.56812 -0.04554,-1.1727 -0.0321,-1.74409l-0.09106,-0.1682c-0.00914,-0.01603 -0.01431,-0.03429 -0.01431,-0.05366c0,-0.06369 0.0559,-0.11532 0.12487,-0.11532c0.00927,0 0.01833,0.00093 0.02702,0.0027l0.16779,0.03099l-0.00675,0.03117c0.54542,0.09167 1.05647,0.47204 1.51492,0.74018c0.559,0.32695 1.24333,0.47851 1.83413,0.75204c0.35226,0.2169 0.68365,0.47005 1.0514,0.65833c0.3125,0.15999 0.69813,0.19714 1.02171,0.34597c0.16569,0.07621 0.29624,0.19729 0.44638,0.28493c0.31379,0.18316 0.70192,0.29471 1.03004,0.47655c0.43417,0.30124 1.01294,0.5463 1.50264,0.70986c0.10834,0.03618 0.16993,0.1456 0.26769,0.20189c0.48725,0.28049 0.97696,0.57787 1.48588,0.81107c0.45675,0.21167 0.93385,0.41224 1.41775,0.56114l0.17374,0.06413z" data-paper-data="{&quot;index&quot;:null}" fill="#a0a0a0" stroke="none" stroke-width="0.5" stroke-linecap="butt"/><path d="M284.72974,181.83462c0.04652,0.10709 -0.06978,0.14992 -0.06978,0.14992l-0.17426,0.06413c-0.48534,0.14889 -0.96386,0.34945 -1.42196,0.56112c-0.51043,0.2332 -1.0016,0.53058 -1.4903,0.81107c-0.09806,0.05627 -0.15983,0.16571 -0.26849,0.2019c-0.49116,0.16356 -1.07166,0.40861 -1.50711,0.70985c-0.32911,0.18183 -0.71837,0.29339 -1.0331,0.47655c-0.1506,0.08764 -0.28154,0.20873 -0.44772,0.28493c-0.32454,0.14883 -0.71131,0.18598 -1.02475,0.34596c-0.36884,0.18828 -0.70121,0.44143 -1.05454,0.65833c-0.59255,0.27353 -1.27892,0.42509 -1.83959,0.75204c-0.45981,0.26814 -0.97237,0.6485 -1.51941,0.74019l0.00677,0.03116l-0.16828,0.03099c-0.00873,0.00177 -0.0178,0.00271 -0.0271,0.00271c-0.06917,0 -0.12526,-0.05164 -0.12526,-0.11533c0,-0.01937 0.00519,-0.03763 0.01435,-0.05366l0.09133,-0.1682c-0.01347,-0.57139 0.12203,-1.17597 0.03219,-1.74409c-0.06271,-0.39656 -0.06954,-0.7739 -0.06954,-1.18c0,-0.26238 -0.09671,-0.5272 0.28462,-0.58674c0.18142,-0.02833 0.21716,0.05597 0.35957,0.10014c0.19152,0.0594 0.41328,0.07834 0.60309,0.12268c0.1759,0.04108 0.43906,-0.00308 0.62048,-0.00308c0.6509,0 1.26698,-0.01265 1.90991,-0.09362c0.23973,-0.02985 0.49491,-0.00407 0.73028,-0.05114c0.43437,-0.08686 0.83474,-0.26524 1.25305,-0.38532c0.41832,-0.12008 0.87659,-0.16497 1.30593,-0.25353c0.40217,-0.08296 0.79866,-0.24567 1.19002,-0.36585c0.71563,-0.21965 1.41283,-0.47053 2.09812,-0.75847c0.28462,-0.11959 0.53205,-0.34596 0.8448,-0.417c0.24396,-0.05541 0.52752,0.00602 0.7662,0.06088c0.03795,-0.00467 0.09959,0.00035 0.13047,0.07144z" fill="#878787" stroke="none" stroke-width="0.5" stroke-linecap="butt"/><path d="M283.26374,182.6648c-0.08856,0.09404 -0.17712,0 -0.17712,0l-0.11278,-0.12256c-0.19863,-0.43734 -0.24423,-0.75202 -0.16944,-1.22724c0.04501,-0.286 0.01421,-0.41659 0.29677,-0.50243c0,0 0.12281,-0.02608 0.14738,0.10433c0.02456,0.13041 -0.09825,0.15651 -0.09825,0.15651c-0.1331,-0.00374 -0.07777,0.15083 -0.09879,0.28519c-0.06338,0.4051 -0.03506,0.65345 0.12724,1.03062l0.085,0.08748c0,0 0.08856,0.09405 0,0.18809z" fill="#888888" stroke="none" stroke-width="0.5" stroke-linecap="butt"/><path d="M282.25266,183.18914c-0.08856,0.14317 -0.17712,0 -0.17712,0l-0.11278,-0.18657c-0.19863,-0.66578 -0.24423,-1.14479 -0.16944,-1.86823c0.04501,-0.43539 0.01421,-0.63417 0.29677,-0.76485c0,0 0.12281,-0.0397 0.14738,0.15883c0.02456,0.19854 -0.09825,0.23825 -0.09825,0.23825c-0.1331,-0.00569 -0.07777,0.2296 -0.09879,0.43415c-0.06338,0.61668 -0.03506,0.99473 0.12724,1.56891l0.085,0.13317c0,0 0.08856,0.14318 0,0.28635z" fill="#888888" stroke="none" stroke-width="0.5" stroke-linecap="butt"/><path d="M281.17367,183.65864c-0.08856,0.19431 -0.17712,0 -0.17712,0l-0.11278,-0.25321c-0.19862,-0.90359 -0.24423,-1.55371 -0.16944,-2.53555c0.04501,-0.5909 0.01421,-0.8607 0.29677,-1.03805c0,0 0.12281,-0.05389 0.14738,0.21556c0.02456,0.26945 -0.09825,0.32336 -0.09825,0.32336c-0.1331,-0.00772 -0.07777,0.31161 -0.09879,0.58923c-0.06339,0.83696 -0.03506,1.35004 0.12723,2.12932l0.08501,0.18072c0,0 0.08856,0.19431 0,0.38861z" fill="#888888" stroke="none" stroke-width="0.5" stroke-linecap="butt"/><path d="M280.07352,184.15315c-0.08856,0.24672 -0.17712,0 -0.17712,0l-0.11278,-0.32151c-0.19863,-1.14732 -0.24423,-1.97279 -0.16944,-3.21945c0.04501,-0.75028 0.01421,-1.09286 0.29677,-1.31804c0,0 0.12281,-0.06843 0.14738,0.27372c0.02456,0.34214 -0.09825,0.41057 -0.09825,0.41057c-0.13309,-0.00981 -0.07777,0.39566 -0.09879,0.74816c-0.06338,1.06271 -0.03506,1.71418 0.12724,2.70366l0.08501,0.22947c0,0 0.08856,0.24673 0,0.49345z" fill="#888888" stroke="none" stroke-width="0.5" stroke-linecap="butt"/><path d="M279.02281,184.60249c-0.08856,0.29443 -0.17712,0 -0.17712,0l-0.11278,-0.38369c-0.19863,-1.36921 -0.24423,-2.35435 -0.16944,-3.84215c0.04501,-0.8954 0.01421,-1.30424 0.29677,-1.57297c0,0 0.12281,-0.08166 0.14738,0.32665c0.02456,0.40831 -0.09825,0.48998 -0.09825,0.48998c-0.1331,-0.01171 -0.07777,0.47219 -0.09879,0.89286c-0.06338,1.26825 -0.03506,2.04573 0.12724,3.22659l0.085,0.27386c0,0 0.08856,0.29444 0,0.58888z" fill="#888888" stroke="none" stroke-width="0.5" stroke-linecap="butt"/><path d="M278.04249,185.07712c-0.08856,0.33992 -0.17712,0 -0.17712,0l-0.11278,-0.44297c-0.19863,-1.58073 -0.24423,-2.71804 -0.16944,-4.43565c0.04501,-1.03371 0.01422,-1.5057 0.29678,-1.81595c0,0 0.1228,-0.09427 0.14737,0.37711c0.02456,0.47138 -0.09825,0.56566 -0.09825,0.56566c-0.13309,-0.01353 -0.07777,0.54513 -0.09879,1.03079c-0.06338,1.46417 -0.03506,2.36174 0.12724,3.72502l0.08501,0.31617c0,0 0.08856,0.33992 0,0.67984z" fill="#888888" stroke="none" stroke-width="0.5" stroke-linecap="butt"/><path d="M276.97126,185.54859c-0.08856,0.39268 -0.17712,0 -0.17712,0l-0.11278,-0.51173c-0.19863,-1.82609 -0.24423,-3.13992 -0.16944,-5.12414c0.04501,-1.19415 0.01421,-1.73942 0.29677,-2.09783c0,0 0.12281,-0.10892 0.14738,0.43563c0.02456,0.54455 -0.09825,0.65347 -0.09825,0.65347c-0.1331,-0.01562 -0.07777,0.62974 -0.09879,1.19078c-0.06338,1.69143 -0.03506,2.72833 0.12724,4.30321l0.08501,0.36524c0,0 0.08856,0.39268 0,0.78537z" fill="#888888" stroke="none" stroke-width="0.5" stroke-linecap="butt"/><path d="M275.87865,186.07275c-0.08856,0.4456 -0.17712,0 -0.17712,0l-0.11278,-0.58068c-0.19863,-2.07216 -0.24423,-3.56305 -0.16944,-5.81466c0.04501,-1.35507 0.01421,-1.97381 0.29677,-2.38052c0,0 0.12281,-0.12359 0.14738,0.49435c0.02456,0.61793 -0.09825,0.74151 -0.09825,0.74151c-0.1331,-0.01772 -0.07777,0.71461 -0.09879,1.35124c-0.06338,1.91936 -0.03506,3.09598 0.12724,4.88308l0.08501,0.41446c0,0 0.08856,0.4456 0,0.8912z" fill="#888888" stroke="none" stroke-width="0.5" stroke-linecap="butt"/><path d="M274.60555,186.5374l-0.11278,-0.64208c-0.19863,-2.29126 -0.24423,-3.93981 -0.16944,-6.42948c0.04501,-1.49835 0.01421,-2.18252 0.29677,-2.63223c0,0 0.12281,-0.13665 0.14738,0.54663c0.02456,0.68327 -0.09825,0.81993 -0.09825,0.81993c-0.1331,-0.0196 -0.07777,0.79016 -0.09879,1.49412c-0.06338,2.1223 -0.03506,3.42335 0.12724,5.39941l0.08501,0.45828c0,0 0.08857,0.49272 0,0.98543c-0.08857,0.49271 -0.17712,0 -0.17712,0z" fill="#888888" stroke="none" stroke-width="0.5" stroke-linecap="butt"/><path d="M273.63729,187.03722c-0.08857,0.54917 -0.17712,0 -0.17712,0l-0.11278,-0.71566c-0.19862,-2.55381 -0.24424,-4.39123 -0.16944,-7.1662c0.04501,-1.67004 0.01421,-2.43259 0.29677,-2.93384c0,0 0.12281,-0.15231 0.14738,0.60925c0.02456,0.76157 -0.09825,0.91387 -0.09825,0.91387c-0.13309,-0.02185 -0.07777,0.88071 -0.09879,1.66533c-0.06338,2.36549 -0.03506,3.81561 0.12724,6.0181l0.085,0.51079c0,0 0.08857,0.54917 0,1.09835z" fill="#888888" stroke="none" stroke-width="0.5" stroke-linecap="butt"/><path d="M283.5069,182.56405c-0.08857,0.08155 -0.17712,0 -0.17712,0l-0.11278,-0.10627c-0.19862,-0.37924 -0.24423,-0.65208 -0.16943,-1.06417c0.04501,-0.248 0.01421,-0.36124 0.29677,-0.43567c0,0 0.12281,-0.02261 0.14738,0.09047c0.02456,0.11309 -0.09826,0.13571 -0.09826,0.13571c-0.13309,-0.00325 -0.07777,0.13078 -0.09879,0.2473c-0.06339,0.35127 -0.03506,0.5666 0.12723,0.89367l0.085,0.07585c0,0 0.08856,0.08155 0,0.1631z" fill="#b6b6b6" stroke="none" stroke-width="0.5" stroke-linecap="butt"/><path d="M282.50982,183.05182c-0.08857,0.12785 -0.17712,0 -0.17712,0l-0.11278,-0.16661c-0.19863,-0.59452 -0.24423,-1.02226 -0.16944,-1.66827c0.04501,-0.38878 0.01421,-0.5663 0.29677,-0.68299c0,0 0.12281,-0.03546 0.14738,0.14183c0.02456,0.17729 -0.09825,0.21274 -0.09825,0.21274c-0.1331,-0.00509 -0.07777,0.20503 -0.09879,0.38768c-0.06338,0.55068 -0.03506,0.88827 0.12724,1.401l0.08501,0.11892c0,0 0.08856,0.12785 0,0.25569z" fill="#b6b6b6" stroke="none" stroke-width="0.5" stroke-linecap="butt"/><path d="M281.43857,183.51433c-0.08856,0.17979 -0.17712,0 -0.17712,0l-0.11278,-0.23428c-0.19863,-0.83606 -0.24423,-1.43759 -0.16944,-2.34605c0.04501,-0.54674 0.01421,-0.79638 0.29677,-0.96048c0,0 0.12281,-0.04987 0.14738,0.19945c0.02456,0.24932 -0.09825,0.29918 -0.09825,0.29918c-0.1331,-0.00715 -0.07777,0.28832 -0.09879,0.5452c-0.06338,0.77441 -0.03507,1.24915 0.12723,1.97019l0.085,0.16722c0,0 0.08856,0.17979 0,0.35957z" fill="#b6b6b6" stroke="none" stroke-width="0.5" stroke-linecap="butt"/><path d="M280.36734,184.02183c-0.08856,0.23286 -0.17712,0 -0.17712,0l-0.11278,-0.30345c-0.19863,-1.08285 -0.24423,-1.86195 -0.16944,-3.03857c0.04501,-0.70812 0.01421,-1.03145 0.29677,-1.24398c0,0 0.12281,-0.06459 0.14738,0.25832c0.02456,0.32291 -0.09825,0.38749 -0.09825,0.38749c-0.1331,-0.00926 -0.07777,0.37344 -0.09879,0.70612c-0.06338,1.00301 -0.03507,1.61786 0.12723,2.55175l0.085,0.21658c0,0 0.08856,0.23286 0,0.46571z" fill="#b6b6b6" stroke="none" stroke-width="0.5" stroke-linecap="butt"/><path d="M279.34554,184.42056c-0.08856,0.27463 -0.17712,0 -0.17712,0l-0.11278,-0.35789c-0.19862,-1.27714 -0.24423,-2.19602 -0.16944,-3.58375c0.04501,-0.83516 0.01421,-1.21651 0.29677,-1.46718c0,0 0.12281,-0.07617 0.14738,0.30468c0.02456,0.38085 -0.09826,0.45702 -0.09826,0.45702c-0.1331,-0.01093 -0.07777,0.44043 -0.09878,0.83282c-0.06339,1.18295 -0.03507,1.90815 0.12723,3.00959l0.08501,0.25545c0,0 0.08856,0.27463 0,0.54927z" fill="#b6b6b6" stroke="none" stroke-width="0.5" stroke-linecap="butt"/><path d="M278.34846,184.86133c-0.08856,0.32432 -0.17713,0 -0.17713,0l-0.11278,-0.42263c-0.19862,-1.50817 -0.24423,-2.59328 -0.16944,-4.23205c0.04501,-0.98626 0.01421,-1.43659 0.29677,-1.73259c0,0 0.12281,-0.08995 0.14738,0.3598c0.02456,0.44974 -0.09825,0.5397 -0.09825,0.5397c-0.13309,-0.0129 -0.07776,0.52011 -0.09878,0.98347c-0.06339,1.39696 -0.03506,2.25334 0.12723,3.55404l0.08501,0.30166c0,0 0.08856,0.32432 0,0.64864z" fill="#b6b6b6" stroke="none" stroke-width="0.5" stroke-linecap="butt"/><path d="M277.2772,185.3926c-0.08856,0.37513 -0.17712,0 -0.17712,0l-0.11278,-0.48885c-0.19862,-1.74446 -0.24423,-2.99958 -0.16944,-4.8951c0.04501,-1.14078 0.01421,-1.66167 0.29677,-2.00405c0,0 0.12281,-0.10404 0.14738,0.41617c0.02456,0.52021 -0.09825,0.62425 -0.09825,0.62425c-0.13309,-0.01492 -0.07777,0.60159 -0.09879,1.13756c-0.06339,1.61583 -0.03506,2.60637 0.12723,4.11084l0.085,0.34892c0,0 0.08856,0.37513 0,0.75026z" fill="#b6b6b6" stroke="none" stroke-width="0.5" stroke-linecap="butt"/><path d="M276.20598,185.87788c-0.08856,0.42706 -0.17712,0 -0.17712,0l-0.11278,-0.55654c-0.19862,-1.986 -0.24423,-3.4149 -0.16944,-5.57288c0.04501,-1.29873 0.01421,-1.89173 0.29677,-2.28153c0,0 0.12281,-0.11845 0.14738,0.47379c0.02456,0.59224 -0.09825,0.71069 -0.09825,0.71069c-0.13309,-0.01699 -0.07777,0.68489 -0.09879,1.29506c-0.06338,1.83956 -0.03506,2.96725 0.12724,4.68004l0.08501,0.39723c0,0 0.08856,0.42707 0,0.85415z" fill="#b6b6b6" stroke="none" stroke-width="0.5" stroke-linecap="butt"/><path d="M275.11,186.34339c-0.08856,0.47223 -0.17712,0 -0.17712,0l-0.11278,-0.6154c-0.19863,-2.19603 -0.24423,-3.77605 -0.16944,-6.16225c0.04501,-1.43608 0.01422,-2.09181 0.29677,-2.52282c0,0 0.12282,-0.13098 0.14738,0.52389c0.02456,0.65487 -0.09825,0.78585 -0.09825,0.78585c-0.1331,-0.01878 -0.07777,0.75732 -0.09879,1.43203c-0.06338,2.0341 -0.03506,3.28107 0.12724,5.175l0.08501,0.43924c0,0 0.08857,0.47223 0,0.94447z" fill="#b6b6b6" stroke="none" stroke-width="0.5" stroke-linecap="butt"/><path d="M273.78747,186.80388l-0.11278,-0.68896c-0.19862,-2.45857 -0.24423,-4.22749 -0.16944,-6.89898c0.04501,-1.60776 0.01421,-2.34189 0.29677,-2.82444c0,0 0.12281,-0.14663 0.14738,0.58654c0.02456,0.73317 -0.09825,0.8798 -0.09825,0.8798c-0.13309,-0.02104 -0.07776,0.84786 -0.09878,1.60323c-0.06339,2.27729 -0.03506,3.67332 0.12723,5.79368l0.085,0.49176c0,0 0.08856,0.52869 0,1.05738c-0.08856,0.52869 -0.17712,0 -0.17712,0z" fill="#b6b6b6" stroke="none" stroke-width="0.5" stroke-linecap="butt"/></g><path d="M265.0223,183.46008c-0.69288,0 -1.25456,-0.56169 -1.25456,-1.25457c0,-0.69288 0.56168,-1.25456 1.25456,-1.25456c0.69288,0 1.25456,0.56168 1.25456,1.25456c0,0.69288 -0.56168,1.25457 -1.25456,1.25457z" fill="#c38c0a" stroke="none" stroke-width="0" stroke-linecap="butt"/></g><g><path d="M217.33401,182.25847l-10.36384,0.03654" fill="none" stroke="#dd9e0b" stroke-width="2.5" stroke-linecap="round"/><path d="M217.05767,182.17278l7.74491,6.88672" fill="none" stroke="#dd9e0b" stroke-width="2.5" stroke-linecap="round"/><g><path d="M197.56047,182.02876l11.76079,-5.6381l-0.10124,11.40628l-11.76079,-5.6381" data-paper-data="{&quot;index&quot;:null}" fill="#989898" stroke="#989898" stroke-width="1" stroke-linecap="round"/><path d="M197.47672,181.95154l0.17374,-0.06413c0.4839,-0.14888 0.961,-0.34945 1.41775,-0.56112c0.50892,-0.2332 0.99862,-0.53059 1.48588,-0.81107c0.09777,-0.05628 0.15936,-0.1657 0.26769,-0.20189c0.4897,-0.16356 1.06848,-0.40863 1.50264,-0.70986c0.32812,-0.18183 0.71624,-0.29339 1.03004,-0.47654c0.15016,-0.08764 0.2807,-0.20873 0.44639,-0.28493c0.32358,-0.14883 0.70922,-0.18598 1.0217,-0.34597c0.36774,-0.18828 0.69914,-0.44143 1.0514,-0.65832c0.5908,-0.27351 1.27514,-0.42509 1.83413,-0.75204c0.45844,-0.26814 0.96948,-0.6485 1.5149,-0.74019l-0.00675,-0.03117l0.16779,-0.03099c0.00869,-0.00177 0.01775,-0.00271 0.02702,-0.00271c0.06896,0 0.12488,0.05164 0.12488,0.11533c0,0.01937 -0.00517,0.03762 -0.01431,0.05365l-0.09106,0.1682c0.01344,0.57139 -0.12166,1.17597 -0.03209,1.74409c0.06252,0.39656 0.06933,0.77391 0.06933,1.18c0,0.26238 0.09643,0.5272 -0.28377,0.58674c-0.18088,0.02833 -0.21652,-0.05597 -0.35851,-0.10013c-0.19095,-0.0594 -0.41205,-0.07835 -0.60129,-0.12268c-0.17539,-0.04109 -0.43777,0.00308 -0.61865,0.00308c-0.64897,0 -1.26323,0.01265 -1.90426,0.09362c-0.23903,0.02985 -0.49345,0.00407 -0.72811,0.05115c-0.43308,0.08687 -0.83226,0.26524 -1.24934,0.38531c-0.41709,0.12008 -0.87399,0.16495 -1.30206,0.25353c-0.40098,0.08297 -0.79628,0.24567 -1.18648,0.36585c-0.7135,0.21965 -1.40863,0.47053 -2.09189,0.75847c-0.28377,0.11959 -0.53048,0.34596 -0.8423,0.417c-0.24324,0.05541 -0.52595,-0.00603 -0.76394,-0.06088c-0.03783,0.00467 -0.09929,-0.00035 -0.13008,-0.07144c-0.04637,-0.10708 0.06956,-0.14991 0.06956,-0.14991z" data-paper-data="{&quot;index&quot;:null}" fill="#a0a0a0" stroke="none" stroke-width="0.5" stroke-linecap="butt"/><path d="M197.38894,182.16917c0.03088,-0.07109 0.09253,-0.0761 0.13047,-0.07145c0.23869,-0.05487 0.52224,-0.11629 0.76621,-0.06088c0.31274,0.07104 0.56018,0.29741 0.8448,0.417c0.68529,0.28793 1.38248,0.5388 2.09812,0.75847c0.39136,0.12018 0.78784,0.28288 1.19002,0.36585c0.42935,0.08857 0.88761,0.13345 1.30593,0.25353c0.41831,0.12007 0.81868,0.29845 1.25305,0.38531c0.23536,0.04706 0.49053,0.02129 0.73028,0.05115c0.64293,0.08097 1.25901,0.09362 1.90991,0.09362c0.18142,0 0.44457,0.04417 0.62048,0.00308c0.18981,-0.04434 0.41157,-0.06328 0.60309,-0.12268c0.14242,-0.04417 0.17816,-0.12847 0.35957,-0.10013c0.38133,0.05954 0.28462,0.32436 0.28462,0.58674c0,0.40608 -0.00683,0.78342 -0.06954,1.18c-0.08984,0.56812 0.04566,1.1727 0.03219,1.74409l0.09133,0.1682c0.00916,0.01603 0.01435,0.03429 0.01435,0.05365c0,0.06369 -0.05607,0.11533 -0.12525,0.11533c-0.00931,0 -0.01837,-0.00094 -0.0271,-0.00271l-0.16828,-0.03099l0.00677,-0.03117c-0.54705,-0.09168 -1.05962,-0.47205 -1.51941,-0.74019c-0.56066,-0.32695 -1.24704,-0.47852 -1.83959,-0.75204c-0.35332,-0.2169 -0.68569,-0.47005 -1.05454,-0.65832c-0.31343,-0.15999 -0.70021,-0.19714 -1.02475,-0.34597c-0.16617,-0.07621 -0.29712,-0.19729 -0.44772,-0.28493c-0.31473,-0.18316 -0.704,-0.29472 -1.03311,-0.47654c-0.43546,-0.30124 -1.01596,-0.5463 -1.50711,-0.70986c-0.10866,-0.03618 -0.17043,-0.1456 -0.26849,-0.20189c-0.4887,-0.28048 -0.97986,-0.57787 -1.4903,-0.81107c-0.45811,-0.21167 -0.93663,-0.41224 -1.42197,-0.56112l-0.17426,-0.06413c0,0 -0.11629,-0.04283 -0.06978,-0.14991z" fill="#878787" stroke="none" stroke-width="0.5" stroke-linecap="butt"/><path d="M198.85495,182.99935c-0.08856,-0.09405 0,-0.18809 0,-0.18809l0.085,-0.08748c0.1623,-0.37719 0.19062,-0.62552 0.12723,-1.03062c-0.02103,-0.13437 0.0343,-0.28894 -0.09879,-0.28519c0,0 -0.12281,-0.02608 -0.09825,-0.15651c0.02456,-0.13042 0.14738,-0.10434 0.14738,-0.10434c0.28257,0.08584 0.25176,0.21643 0.29677,0.50243c0.07479,0.47522 0.02919,0.78989 -0.16944,1.22724l-0.11278,0.12256c0,0 -0.08856,0.09405 -0.17712,0z" fill="#888888" stroke="none" stroke-width="0.5" stroke-linecap="butt"/><path d="M199.86604,183.52369c-0.08856,-0.14317 0,-0.28634 0,-0.28634l0.085,-0.13317c0.1623,-0.57418 0.19062,-0.95224 0.12723,-1.56892c-0.02103,-0.20455 0.0343,-0.43985 -0.09879,-0.43415c0,0 -0.12281,-0.03971 -0.09825,-0.23825c0.02456,-0.19854 0.14738,-0.15883 0.14738,-0.15883c0.28257,0.13067 0.25176,0.32947 0.29677,0.76485c0.07479,0.72343 0.02919,1.20245 -0.16944,1.86823l-0.11278,0.18657c0,0 -0.08856,0.14317 -0.17712,0z" fill="#888888" stroke="none" stroke-width="0.5" stroke-linecap="butt"/><path d="M200.94503,183.99319c-0.08856,-0.19431 0,-0.38861 0,-0.38861l0.085,-0.18074c0.1623,-0.77928 0.19062,-1.29236 0.12723,-2.12932c-0.02103,-0.27761 0.0343,-0.59696 -0.09879,-0.58923c0,0 -0.12281,-0.05389 -0.09825,-0.32335c0.02456,-0.26945 0.14738,-0.21557 0.14738,-0.21557c0.28257,0.17735 0.25176,0.44716 0.29677,1.03805c0.07479,0.98184 0.02919,1.63196 -0.16944,2.53555l-0.11278,0.25321c0,0 -0.08856,0.19431 -0.17712,0z" fill="#888888" stroke="none" stroke-width="0.5" stroke-linecap="butt"/><path d="M202.04518,184.48773c-0.08856,-0.24672 0,-0.49344 0,-0.49344l0.085,-0.22947c0.1623,-0.98948 0.19062,-1.64095 0.12723,-2.70366c-0.02103,-0.3525 0.03431,-0.75798 -0.09879,-0.74816c0,0 -0.12281,-0.06843 -0.09825,-0.41057c0.02456,-0.34214 0.14738,-0.2737 0.14738,-0.2737c0.28257,0.22519 0.25176,0.56777 0.29677,1.31804c0.07479,1.24667 0.02919,2.07215 -0.16944,3.21945l-0.11278,0.32151c0,0 -0.08856,0.24672 -0.17712,0z" fill="#888888" stroke="none" stroke-width="0.5" stroke-linecap="butt"/><path d="M203.09588,184.93704c-0.08856,-0.29444 0,-0.58887 0,-0.58887l0.085,-0.27386c0.1623,-1.18085 0.19062,-1.95833 0.12723,-3.22659c-0.02103,-0.42068 0.03431,-0.90458 -0.09879,-0.89286c0,0 -0.12281,-0.08166 -0.09825,-0.48998c0.02456,-0.40831 0.14738,-0.32665 0.14738,-0.32665c0.28257,0.26874 0.25176,0.67759 0.29677,1.57297c0.07479,1.4878 0.02919,2.47293 -0.16944,3.84215l-0.11278,0.38369c0,0 -0.08856,0.29444 -0.17712,0z" fill="#888888" stroke="none" stroke-width="0.5" stroke-linecap="butt"/><path d="M204.07619,185.4117c-0.08856,-0.33992 0,-0.67984 0,-0.67984l0.085,-0.31617c0.1623,-1.36326 0.19062,-2.26084 0.12723,-3.72501c-0.02103,-0.48566 0.03431,-1.04432 -0.09879,-1.03079c0,0 -0.12281,-0.09427 -0.09825,-0.56566c0.02456,-0.47138 0.14738,-0.37711 0.14738,-0.37711c0.28257,0.31026 0.25176,0.78225 0.29677,1.81595c0.07479,1.71762 0.02919,2.85493 -0.16944,4.43565l-0.11278,0.44297c0,0 -0.08856,0.33992 -0.17712,0z" fill="#888888" stroke="none" stroke-width="0.5" stroke-linecap="butt"/><path d="M205.14743,185.88313c-0.08856,-0.39268 0,-0.78537 0,-0.78537l0.085,-0.36524c0.1623,-1.57487 0.19062,-2.61178 0.12723,-4.3032c-0.02103,-0.56104 0.03431,-1.2064 -0.09879,-1.19079c0,0 -0.12281,-0.10891 -0.09825,-0.65346c0.02456,-0.54455 0.14738,-0.43565 0.14738,-0.43565c0.28257,0.35841 0.25176,0.90367 0.29677,2.09783c0.07479,1.98422 0.02919,3.29807 -0.16944,5.12415l-0.11278,0.51173c0,0 -0.08856,0.39268 -0.17712,0z" fill="#888888" stroke="none" stroke-width="0.5" stroke-linecap="butt"/><path d="M206.24003,186.40729c-0.08856,-0.4456 0,-0.8912 0,-0.8912l0.085,-0.41446c0.1623,-1.7871 0.19062,-2.96372 0.12723,-4.88308c-0.02103,-0.63664 0.03431,-1.36898 -0.09879,-1.35124c0,0 -0.12281,-0.12358 -0.09825,-0.74151c0.02456,-0.61793 0.14738,-0.49435 0.14738,-0.49435c0.28257,0.40671 0.25176,1.02544 0.29677,2.38052c0.07479,2.25161 0.02919,3.7425 -0.16944,5.81465l-0.11278,0.58068c0,0 -0.08856,0.4456 -0.17712,0z" fill="#888888" stroke="none" stroke-width="0.5" stroke-linecap="butt"/><path d="M207.336,186.87195c-0.08856,-0.49271 0,-0.98543 0,-0.98543l0.085,-0.45829c0.1623,-1.97606 0.19062,-3.2771 0.12723,-5.39941c-0.02103,-0.70396 0.0343,-1.51373 -0.09879,-1.49412c0,0 -0.12281,-0.13665 -0.09825,-0.81993c0.02456,-0.68327 0.14738,-0.54662 0.14738,-0.54662c0.28257,0.44971 0.25176,1.13387 0.29677,2.63222c0.07479,2.48969 0.02919,4.13822 -0.16944,6.42948l-0.11278,0.64208c0,0 -0.08856,0.49271 -0.17712,0z" fill="#888888" stroke="none" stroke-width="0.5" stroke-linecap="butt"/><path d="M208.48141,187.37175c-0.08856,-0.54917 0,-1.09834 0,-1.09834l0.085,-0.5108c0.1623,-2.20249 0.19062,-3.6526 0.12723,-6.01809c-0.02103,-0.78463 0.03431,-1.68718 -0.09879,-1.66533c0,0 -0.12281,-0.15231 -0.09825,-0.91388c0.02456,-0.76156 0.14738,-0.60925 0.14738,-0.60925c0.28257,0.50124 0.25176,1.2638 0.29677,2.93384c0.07479,2.77497 0.02919,4.6124 -0.16944,7.1662l-0.11278,0.71566c0,0 -0.08856,0.54917 -0.17712,0z" fill="#888888" stroke="none" stroke-width="0.5" stroke-linecap="butt"/><path d="M198.61179,182.89859c-0.08856,-0.08155 0,-0.1631 0,-0.1631l0.085,-0.07585c0.1623,-0.32706 0.19062,-0.5424 0.12723,-0.89367c-0.02103,-0.11652 0.0343,-0.25055 -0.09879,-0.2473c0,0 -0.12281,-0.02262 -0.09825,-0.13571c0.02456,-0.11309 0.14738,-0.09047 0.14738,-0.09047c0.28257,0.07443 0.25176,0.18767 0.29677,0.43567c0.07479,0.41207 0.02919,0.68493 -0.16944,1.06416l-0.11278,0.10627c0,0 -0.08856,0.08155 -0.17712,0z" fill="#b6b6b6" stroke="none" stroke-width="0.5" stroke-linecap="butt"/><path d="M199.60886,183.38637c-0.08856,-0.12785 0,-0.25569 0,-0.25569l0.085,-0.11892c0.1623,-0.51273 0.19062,-0.85032 0.12723,-1.401c-0.02103,-0.18266 0.0343,-0.39277 -0.09879,-0.38769c0,0 -0.12281,-0.03546 -0.09825,-0.21274c0.02456,-0.17729 0.14738,-0.14183 0.14738,-0.14183c0.28257,0.11668 0.25176,0.29421 0.29677,0.68299c0.07479,0.646 0.02919,1.07376 -0.16944,1.66827l-0.11278,0.16661c0,0 -0.08856,0.12785 -0.17712,0z" fill="#b6b6b6" stroke="none" stroke-width="0.5" stroke-linecap="butt"/><path d="M200.68011,183.84887c-0.08856,-0.17979 0,-0.35957 0,-0.35957l0.085,-0.16722c0.1623,-0.72105 0.19062,-1.19578 0.12723,-1.97019c-0.02103,-0.25686 0.0343,-0.55234 -0.09879,-0.54519c0,0 -0.12281,-0.04987 -0.09825,-0.29918c0.02456,-0.24932 0.14738,-0.19945 0.14738,-0.19945c0.28257,0.1641 0.25176,0.41374 0.29677,0.96048c0.07479,0.90846 0.02919,1.50999 -0.16944,2.34605l-0.11278,0.23428c0,0 -0.08856,0.17979 -0.17712,0z" fill="#b6b6b6" stroke="none" stroke-width="0.5" stroke-linecap="butt"/><path d="M201.75135,184.35641c-0.08856,-0.23286 0,-0.46571 0,-0.46571l0.085,-0.21658c0.1623,-0.93388 0.19062,-1.54875 0.12723,-2.55175c-0.02103,-0.33269 0.03431,-0.71539 -0.09879,-0.70612c0,0 -0.12281,-0.06459 -0.09825,-0.3875c0.02456,-0.32291 0.14738,-0.25834 0.14738,-0.25834c0.28257,0.21253 0.25176,0.53587 0.29677,1.24399c0.07479,1.17662 0.02919,1.95572 -0.16944,3.03857l-0.11278,0.30345c0,0 -0.08856,0.23286 -0.17712,0z" fill="#b6b6b6" stroke="none" stroke-width="0.5" stroke-linecap="butt"/><path d="M202.77315,184.75514c-0.08856,-0.27463 0,-0.54927 0,-0.54927l0.085,-0.25545c0.1623,-1.10144 0.19062,-1.82662 0.12723,-3.00959c-0.02103,-0.39239 0.03431,-0.84374 -0.09879,-0.83281c0,0 -0.12281,-0.07617 -0.09825,-0.45702c0.02456,-0.38085 0.14738,-0.30468 0.14738,-0.30468c0.28257,0.25067 0.25176,0.63201 0.29677,1.46718c0.07479,1.38773 0.02919,2.30661 -0.16944,3.58375l-0.11278,0.35789c0,0 -0.08856,0.27463 -0.17712,0z" fill="#b6b6b6" stroke="none" stroke-width="0.5" stroke-linecap="butt"/><path d="M203.77023,185.19587c-0.08856,-0.32432 0,-0.64864 0,-0.64864l0.085,-0.30165c0.1623,-1.3007 0.19062,-2.15707 0.12723,-3.55403c-0.02103,-0.46337 0.03431,-0.99638 -0.09879,-0.98347c0,0 -0.12281,-0.08994 -0.09825,-0.5397c0.02456,-0.44975 0.14738,-0.3598 0.14738,-0.3598c0.28257,0.29601 0.25176,0.74635 0.29677,1.7326c0.07479,1.63878 0.02919,2.72388 -0.16944,4.23206l-0.11278,0.42263c0,0 -0.08856,0.32432 -0.17712,0z" fill="#b6b6b6" stroke="none" stroke-width="0.5" stroke-linecap="butt"/><path d="M204.84148,185.72715c-0.08856,-0.37513 0,-0.75026 0,-0.75026l0.085,-0.34892c0.1623,-1.50448 0.19062,-2.49502 0.12723,-4.11085c-0.02103,-0.53596 0.03431,-1.15248 -0.09879,-1.13755c0,0 -0.12281,-0.10404 -0.09825,-0.62425c0.02456,-0.52021 0.14738,-0.41617 0.14738,-0.41617c0.28257,0.34239 0.25176,0.86328 0.29677,2.00405c0.07479,1.89553 0.02919,3.15065 -0.16944,4.8951l-0.11278,0.48885c0,0 -0.08856,0.37513 -0.17712,0z" fill="#b6b6b6" stroke="none" stroke-width="0.5" stroke-linecap="butt"/><path d="M205.91271,186.21242c-0.08856,-0.42707 0,-0.85414 0,-0.85414l0.085,-0.39723c0.1623,-1.71279 0.19062,-2.84049 0.12723,-4.68004c-0.02103,-0.61018 0.03431,-1.31206 -0.09879,-1.29506c0,0 -0.12281,-0.11845 -0.09825,-0.71069c0.02456,-0.59224 0.14738,-0.47379 0.14738,-0.47379c0.28257,0.3898 0.25176,0.98281 0.29677,2.28153c0.07479,2.15798 0.02919,3.58688 -0.16944,5.57288l-0.11278,0.55654c0,0 -0.08856,0.42707 -0.17712,0z" fill="#b6b6b6" stroke="none" stroke-width="0.5" stroke-linecap="butt"/><path d="M207.00869,186.67796c-0.08856,-0.47223 0,-0.94447 0,-0.94447l0.085,-0.43924c0.1623,-1.89393 0.19062,-3.14089 0.12723,-5.17499c-0.02103,-0.67471 0.0343,-1.45082 -0.09879,-1.43203c0,0 -0.12281,-0.13097 -0.09825,-0.78585c0.02456,-0.65487 0.14738,-0.5239 0.14738,-0.5239c0.28257,0.43101 0.25176,1.08675 0.29677,2.52282c0.07479,2.38621 0.02919,3.96623 -0.16944,6.16226l-0.11278,0.61539c0,0 -0.08856,0.47223 -0.17712,0z" fill="#b6b6b6" stroke="none" stroke-width="0.5" stroke-linecap="butt"/><path d="M208.1541,187.13843c-0.08856,-0.52869 0,-1.05738 0,-1.05738l0.085,-0.49175c0.1623,-2.12036 0.19062,-3.51639 0.12723,-5.79368c-0.02103,-0.75537 0.0343,-1.62427 -0.09879,-1.60323c0,0 -0.12281,-0.14663 -0.09825,-0.8798c0.02456,-0.73317 0.14738,-0.58654 0.14738,-0.58654c0.28257,0.48255 0.25176,1.21667 0.29677,2.82444c0.07479,2.67148 0.02919,4.44041 -0.16944,6.89898l-0.11278,0.68897c0,0 -0.08856,0.52869 -0.17712,0z" fill="#b6b6b6" stroke="none" stroke-width="0.5" stroke-linecap="butt"/></g><path d="M215.84183,182.54007c0,-0.69288 0.56168,-1.25456 1.25456,-1.25456c0.69288,0 1.25456,0.56168 1.25456,1.25456c0,0.69288 -0.56168,1.25457 -1.25456,1.25457c-0.69288,0 -1.25456,-0.56169 -1.25456,-1.25457z" fill="#c38c0a" stroke="none" stroke-width="0" stroke-linecap="butt"/></g><path d="M257.19057,180.92965l20.19636,-9.14102" data-paper-data="{&quot;index&quot;:null}" fill="#e0a00b" stroke="#cd920a" stroke-width="5" stroke-linecap="round"/><path d="M280.06828,174.41494l-22.97842,10.4002" data-paper-data="{&quot;index&quot;:null}" fill="#e0a00b" stroke="#9d7008" stroke-width="1.5" stroke-linecap="round"/><path d="M278.08919,168.51564l2.55967,5.73135" data-paper-data="{&quot;index&quot;:null}" fill="#e0a00b" stroke="#9d7008" stroke-width="1.5" stroke-linecap="round"/><path d="M259.60444,180.38724l16.46227,-14.84738" data-paper-data="{&quot;index&quot;:null}" fill="#e0a00b" stroke="#cd920a" stroke-width="5" stroke-linecap="round"/><path d="M279.41947,167.22681l-18.72996,16.89263" data-paper-data="{&quot;index&quot;:null}" fill="#e0a00b" stroke="#9d7008" stroke-width="1.5" stroke-linecap="round"/><path d="M279.92152,166.89039l-4.18066,-4.68214" data-paper-data="{&quot;index&quot;:null}" fill="#e0a00b" stroke="#9d7008" stroke-width="1.5" stroke-linecap="round"/><path d="M223.7065,180.75766l-20.19636,-9.14102" fill="#e0a00b" stroke="#cd920a" stroke-width="5" stroke-linecap="round"/><path d="M200.8288,174.24291l22.97841,10.4002" fill="#e0a00b" stroke="#9d7008" stroke-width="1.5" stroke-linecap="round"/><path d="M200.24822,174.07497l2.55967,-5.73135" fill="#e0a00b" stroke="#9d7008" stroke-width="1.5" stroke-linecap="round"/><path d="M218.56259,182.79723c-0.79092,0.56742 -1.50544,1.21992 -2.13451,1.94007c-0.11723,-0.07633 -0.19895,-0.14197 -0.23524,-0.19363c-0.79888,-1.13716 -0.50316,-9.03285 0.14692,-10.0418c0.05889,-0.09141 0.15075,-0.19171 0.26854,-0.29834c0.62826,0.77333 1.34199,1.46317 2.12216,2.05968c-0.33434,0.91869 0.29385,3.54626 0.25769,4.40074c-0.0306,0.72301 -0.93413,1.62757 -0.42553,2.13328z" data-paper-data="{&quot;index&quot;:null}" fill="#ffd268" stroke="none" stroke-width="0.5" stroke-linecap="butt"/><path d="M221.29264,180.21521l-16.46227,-14.8474" fill="#e0a00b" stroke="#cd920a" stroke-width="5" stroke-linecap="round"/><path d="M201.4776,167.05485l18.72995,16.89263" fill="#e0a00b" stroke="#9d7008" stroke-width="1.5" stroke-linecap="round"/><path d="M205.15619,162.03618l-4.18066,4.68214" fill="#e0a00b" stroke="#9d7008" stroke-width="1.5" stroke-linecap="round"/><g fill="#ffc43a" stroke="#000000" stroke-width="0" stroke-linecap="butt"><path d="M246.50221,162.34077c6.78231,0.66597 10.45386,2.46021 13.35259,8.91522c0.66761,1.48666 1.89729,2.9 1.9838,4.609c0.04007,0.79154 -0.08286,1.46122 -0.3421,2.02497c0.91231,-0.11305 1.73484,-0.04278 2.25347,0.47586c3.964,3.964 -3.31884,5.33405 -6.1431,5.33405c-15.82237,0 -19.2017,-0.64078 -29.71701,-0.83032c-1.9411,-0.03499 -3.79791,-0.66444 -5.61884,0.00881c-0.78119,0.28883 -4.35942,1.40839 -5.32088,0.64494c-1.01636,-0.10346 -1.75841,-0.73364 -1.5182,-2.26398c-0.01113,-0.08868 -0.01683,-0.17877 -0.01683,-0.27003c0,-0.37452 0.09618,-0.72953 0.26825,-1.04738c1.38839,-5.00331 4.18041,-9.60308 6.94466,-14.11693c0.41043,-0.67021 1.57359,-4.07995 2.54971,-4.80424c2.09999,-1.55825 5.38454,-1.23132 7.85494,-1.64464c2.19826,-0.36778 7.90851,-1.53767 9.90278,0.19483c0.84186,0.73135 1.27553,1.68848 1.23291,2.54203c0.82358,0.07603 1.60761,0.15649 2.33389,0.2278z"/><path d="M266.09855,179.85106c0.17208,0.31787 0.26824,0.67285 0.26824,1.04737c0,0.09126 -0.00573,0.18135 -0.01683,0.27004c0.32576,2.07533 -1.15495,2.4952 -2.67644,2.19097c-1.19116,-0.23818 -2.4073,-0.9202 -2.80117,-1.59917c-3.03771,-5.2365 -3.96139,-12.50448 -8.45156,-17.08117c-0.43765,-0.4461 -3.23269,-0.29965 -3.41195,-0.30758c-3.01728,-0.13344 -4.82603,-0.13472 -8.74417,-0.2713c-3.135,-0.10929 -3.33838,-2.95202 -1.4182,-4.62015c1.99428,-1.7325 7.70451,-0.56261 9.90278,-0.19483c2.47038,0.41331 5.75494,0.08637 7.85494,1.64463c0.97612,0.72432 2.13927,4.13405 2.54969,4.80426c2.76424,4.51385 5.55627,9.11362 6.94467,14.11693z" data-paper-data="{&quot;index&quot;:null}"/></g><g fill="#f5bc38" stroke="none" stroke-linecap="butt"><path d="M216.03373,179.09936c0,-1.86426 3.43484,-3.37552 7.67194,-3.37552c4.2371,0 7.67194,1.51128 7.67194,3.37552c0,1.86426 -3.43484,3.37552 -7.67194,3.37552c-4.2371,0 -7.67194,-1.51127 -7.67194,-3.37552z" stroke-width="NaN"/><path d="M251.26688,179.14896c0,-1.86426 3.43484,-3.37552 7.67193,-3.37552c4.23709,0 7.67193,1.51128 7.67193,3.37552c0,1.86426 -3.43484,3.37552 -7.67193,3.37552c-4.2371,0 -7.67193,-1.51127 -7.67193,-3.37552z" stroke-width="NaN"/><path d="M222.91696,182.47494v-6.75104h36.13698v6.75104z" stroke-width="0"/></g><path d="M218.95096,172.23586c0.88878,-0.68119 1.42999,-4.07108 2.07901,-5.32077c3.07649,-5.92393 6.62503,-8.66856 13.47616,-8.83128c0.00924,-0.00022 0.01852,-0.00047 0.0278,-0.00076c0.08357,0.01687 0.16985,0.02628 0.25811,0.02749c0.00655,0.00003 0.01305,0.00008 0.01948,0.00013c2.14337,0.01984 4.28686,0.03266 6.43036,0.03796c1.5453,1.5861 1.51303,2.60432 -0.09677,4.21412c-0.96333,0.96333 -2.71329,0.28394 -4.07543,0.30801c-3.88555,0.06867 -6.99949,0.30324 -9.62287,3.02324c-2.50216,2.5943 -6.77867,13.573 -8.07228,16.69606c-0.4232,1.02169 -3.69449,3.86783 -4.82401,1.89116c-0.72627,-0.42863 -1.21348,-1.21921 -1.21348,-2.12359c0,-0.87949 0.46078,-1.65136 1.15408,-2.08739c1.59624,-2.90564 4.18605,-7.62458 4.45983,-7.8344z" fill="#dd9e0b" stroke="none" stroke-width="0.5" stroke-linecap="butt"/><path d="M267.53353,179.76662c0.69331,0.43603 1.15408,1.2079 1.15408,2.08739c0,0.90437 -0.48721,1.69496 -1.21348,2.12359c-1.12952,1.97667 -4.40082,-0.86948 -4.82401,-1.89118c-1.29361,-3.12306 -5.57012,-14.10175 -8.07228,-16.69605c-2.62338,-2.72 -5.73732,-2.95456 -9.62287,-3.02324c-1.36214,-0.02407 -3.1121,0.65531 -4.07543,-0.30801c-1.50547,-1.50547 -1.63125,-2.49356 -0.37734,-3.91258c3.44609,0.01129 6.89226,0.00329 10.33818,-0.02603c0.05971,0.00794 0.11911,0.01548 0.17816,0.0226c4.65551,0.9314 7.47217,3.64682 9.97615,8.46834c0.649,1.24969 1.19023,4.63958 2.07901,5.32078c0.27378,0.20983 2.86358,4.92876 4.45983,7.8344z" data-paper-data="{&quot;index&quot;:null}" fill="#dd9e0b" stroke="none" stroke-width="0.5" stroke-linecap="butt"/><path d="M256.84907,165.40166c-0.24955,0.49912 -0.74869,0.24956 -0.74869,0.24956l-0.20209,-0.1032c-3.11058,-1.2534 -6.05662,-1.72008 -9.20855,-2.66251c-1.76557,-0.03969 -3.55197,0.01398 -5.37059,0.01398c-4.78321,0 -9.07695,0.96103 -13.69382,1.94325c0,0 -0.54606,0.11495 -0.66102,-0.4311c-0.11495,-0.54606 0.4311,-0.66102 0.4311,-0.66102c0.43124,-0.08974 0.8597,-0.17958 1.286,-0.26875c-0.13797,-0.38164 0.23024,-0.62711 0.23024,-0.62711c3.43765,-2.2777 8.25637,-1.23603 12.1399,-1.55966c4.89269,-0.00339 10.05293,0.49788 14.92621,0.9799l0.06667,-0.00278c0,0 0.55803,0 0.55803,0.55803c0,0.55803 -0.55803,0.55803 -0.55803,0.55803l-0.17772,-0.00277c-0.27386,-0.02771 -0.54868,-0.05541 -0.82435,-0.08302c0.08932,0.11475 0.14612,0.28349 0.05817,0.518c-0.03192,0.08513 -0.07252,0.15118 -0.11811,0.20213c0.44123,0.15032 0.88439,0.31224 1.33037,0.48913l0.28671,0.14119c0,0 0.49912,0.24956 0.24956,0.74868zM231.27199,162.95048c0.87704,-0.17366 1.75043,-0.3375 2.62598,-0.48446c-0.91175,0.07172 -1.79783,0.2153 -2.62598,0.48446z" fill="#dd9e0b" stroke="none" stroke-width="0.5" stroke-linecap="butt"/><g data-paper-data="{&quot;index&quot;:null}" fill="#ff3b3b" stroke="#000000" stroke-width="0" stroke-linecap="butt"><path d="M260.69106,160.9167c0.16873,0.19647 0.35155,0.40811 0.5419,0.6315c0.15816,-0.12461 0.43803,-0.12788 0.76069,0.0143c0.76433,0.33682 1.75176,2.10957 2.14804,2.78113c0.44537,0.7547 1.20921,1.64255 1.35135,2.44322c0.06608,0.37216 -0.35413,1.15139 -0.39799,1.35608c-0.29538,1.37863 -0.60164,2.77648 -1.28606,3.82965c-0.0256,0.09067 -0.07465,0.16474 -0.14802,0.21412c-0.01786,0.01203 -0.03674,0.02228 -0.05648,0.03081c-0.24865,0.26988 -0.53019,0.14261 -0.76702,-0.13182c-0.35442,-0.17186 -0.89745,-1.33366 -1.0073,-1.59314c-0.25607,-0.60486 -0.77499,-1.04817 -1.1954,-1.59373c-2.27751,-2.95546 -3.12303,-3.8288 -6.49411,-8.31344c-0.60174,-0.80051 -1.88496,-3.04537 -0.26382,-2.44445c0.21211,0.07863 0.40113,0.30249 0.57333,0.57599c0.05523,-0.14779 0.16022,-0.27093 0.32383,-0.36395c0.35326,-0.20079 0.89212,-0.03859 1.32562,-0.04539c1.88221,-0.02944 3.01595,0.77464 4.59145,2.6092z"/><path d="M253.08548,157.67102c1.27604,-0.26612 2.77205,-0.08125 4.24531,0.10712c0.21875,0.02797 1.13457,-0.09191 1.48444,0.08925c0.7527,0.38976 1.38844,1.36381 1.99575,2.00952c0.5404,0.5746 1.98622,2.03884 2.07171,2.83251c0.0823,0.7642 -0.51796,1.08132 -1.20731,0.20718c-0.86155,-1.09251 -1.24716,-1.60503 -1.91615,-2.44264c-0.03973,-0.04974 -0.60654,-0.86128 -0.78718,-0.92653c-1.85329,-0.66927 -3.47397,0.02718 -5.14706,-0.1434c-0.21692,-0.02211 -0.60966,-0.27692 -0.9101,-0.58312c-0.38376,-0.39115 -0.61697,-0.86619 -0.14099,-1.04746c0.01499,-0.01484 0.03142,-0.02835 0.04931,-0.04038c0.07337,-0.04937 0.16341,-0.06889 0.26233,-0.06204z" data-paper-data="{&quot;index&quot;:null}"/></g><g data-paper-data="{&quot;index&quot;:null}" fill="#ff6e3b" stroke="#000000" stroke-width="0" stroke-linecap="butt"><path d="M220.80547,161.45306c1.57551,-1.83456 2.70925,-2.63863 4.59147,-2.60919c0.4335,0.0068 0.97235,-0.15541 1.32561,0.04539c0.1636,0.09302 0.2686,0.21615 0.32383,0.36395c0.17222,-0.2735 0.36124,-0.49736 0.57335,-0.57599c1.62114,-0.6009 0.33791,1.64394 -0.26382,2.44445c-3.37108,4.48465 -4.2166,5.35798 -6.49411,8.31345c-0.42041,0.54557 -0.93932,0.98886 -1.19539,1.59372c-0.10984,0.2595 -0.65289,1.42128 -1.00731,1.59315c-0.23683,0.27443 -0.51838,0.40169 -0.76702,0.13182c-0.01975,-0.00853 -0.03863,-0.01878 -0.05648,-0.03081c-0.07337,-0.04937 -0.12242,-0.12345 -0.14802,-0.21412c-0.68441,-1.05317 -0.99068,-2.45101 -1.28606,-3.82965c-0.04385,-0.20469 -0.46406,-0.98391 -0.39798,-1.35608c0.14213,-0.80067 0.90598,-1.68851 1.35135,-2.4432c0.39628,-0.67156 1.38371,-2.44431 2.14804,-2.78114c0.32264,-0.14218 0.60253,-0.13892 0.76069,-0.0143c0.19035,-0.22339 0.37316,-0.43502 0.5419,-0.63149z"/><path d="M228.41108,158.20738c0.09893,-0.00685 0.18896,0.01267 0.26233,0.06205c0.01789,0.01203 0.03432,0.02554 0.04931,0.04038c0.47597,0.18128 0.24276,0.65631 -0.141,1.04746c-0.30043,0.3062 -0.69318,0.56101 -0.9101,0.58312c-1.67308,0.17058 -3.29376,-0.52587 -5.14704,0.1434c-0.18065,0.06525 -0.74746,0.87678 -0.78718,0.92653c-0.669,0.83761 -1.05461,1.35013 -1.91615,2.44264c-0.68935,0.87415 -1.28959,0.55703 -1.20731,-0.20718c0.08549,-0.79367 1.53131,-2.25792 2.07171,-2.83251c0.60731,-0.6457 1.24304,-1.61976 1.99575,-2.00952c0.34985,-0.18116 1.26569,-0.06128 1.48442,-0.08925c1.47325,-0.18837 2.96927,-0.37322 4.24531,-0.10712z" data-paper-data="{&quot;index&quot;:null}"/></g><path d="M216.05933,179.39397c-0.97168,-0.05797 -1.93767,-0.00174 -2.87994,0.16088c-0.0429,-0.13315 -0.06498,-0.23562 -0.06059,-0.29859c0.09651,-1.38638 5.30258,-7.32996 6.44319,-7.70355c0.10334,-0.03384 0.23787,-0.05383 0.39653,-0.06237c0.00035,0.99637 0.11968,1.98179 0.34941,2.93662c-0.8386,0.50252 -2.007,2.93841 -2.57363,3.57901c-0.47945,0.54203 -1.75104,0.67484 -1.67494,1.38801z" data-paper-data="{&quot;index&quot;:null}" fill="#ffd268" stroke="none" stroke-width="0.5" stroke-linecap="butt"/><path d="M250.35101,162.81116v-13.99769" fill="none" stroke="#e0a00b" stroke-width="1.5" stroke-linecap="round"/><path d="M244.26661,159.15991v-6.1505" fill="none" stroke="#e0a00b" stroke-width="1.5" stroke-linecap="round"/><path d="M242.95009,152.02991c0,-0.77049 0.6246,-1.39508 1.39508,-1.39508c0.77049,0 1.39508,0.6246 1.39508,1.39508c0,0.77049 -0.6246,1.39508 -1.39508,1.39508c-0.77049,0 -1.39508,-0.6246 -1.39508,-1.39508z" fill="#ffd268" stroke="none" stroke-width="0.5" stroke-linecap="butt"/><path d="M248.74305,148.15141c0,-0.77049 0.6246,-1.39508 1.39508,-1.39508c0.77049,0 1.39508,0.6246 1.39508,1.39508c0,0.77049 -0.6246,1.39508 -1.39508,1.39508c-0.77049,0 -1.39508,-0.6246 -1.39508,-1.39508z" fill="#ffd268" stroke="none" stroke-width="0.5" stroke-linecap="butt"/><path d="M240.95781,168.86878c0.45536,-0.28341 0.96728,0.5391 0.96728,0.5391c1.40359,2.31951 3.30774,4.24333 4.95275,6.34058c0.12872,0.20145 0.25782,0.40262 0.38643,0.60396c0.2597,0.40658 0.67956,0.87172 1.13977,1.29074c0.06714,0.20237 0.0749,0.35411 0.0749,0.35411l-0.0168,0.12916c0.19914,0.77951 1.03548,3.15945 0.79619,3.62486c-0.22139,0.4306 -3.38862,-0.53706 -3.9134,-0.95926c-1.87868,-1.51146 -4.24483,-5.88826 -5.93696,-8.01088c-0.15373,-0.0979 -0.32609,-0.27407 -0.4877,-0.58615c-0.44239,-0.85433 0.08079,-1.01857 0.08079,-1.01857c0.7585,-0.22336 0.90022,-0.91303 1.36457,-1.50158c0.00948,-0.15586 0.06858,-0.48764 0.40359,-0.41912c-0.00256,-0.15416 0.04478,-0.29744 0.18859,-0.38695z" fill="#cfcfcf" stroke="none" stroke-width="0.5" stroke-linecap="butt"/><path d="M239.62752,171.05643c-0.11769,0.10103 -0.23311,0.17238 -0.34473,0.22023c-0.85924,0.78929 -1.44612,1.94672 -1.61582,3.52695c0,0 -0.13458,1.13497 -1.26955,1.0004c-1.13497,-0.13458 -1.0004,-1.26955 -1.0004,-1.26955c0.23779,-1.87045 0.91701,-3.35321 1.90539,-4.45601c-1.05676,-1.28959 -2.80157,-3.51653 -2.63824,-3.95097c1.63821,-4.35718 4.53189,0.70244 5.55922,1.9199l0.05353,0.08307c1.67691,-0.57994 3.63978,-0.62814 5.66406,-0.15768l0.26129,0.06081c0,0 1.11318,0.25908 0.85408,1.37226c-0.25908,1.11318 -1.37226,0.85408 -1.37226,0.85408l-0.26129,-0.06081c-2.0887,-0.48688 -4.12532,-0.33551 -5.59436,0.64866c-0.05446,0.07008 -0.12081,0.13989 -0.20091,0.20865z" fill="#cfcfcf" stroke="none" stroke-width="0.5" stroke-linecap="butt"/><g stroke-linecap="butt"><g fill="#ffc43a" stroke="#000000" stroke-width="0"><path d="M224.69236,174.71728c2.04462,0.24113 3.15145,0.89074 4.02531,3.22786c0.20126,0.53826 0.57196,1.04998 0.59804,1.66873c0.01208,0.28658 -0.02498,0.52905 -0.10312,0.73316c0.27503,-0.04094 0.52299,-0.01549 0.67934,0.17229c1.19501,1.43521 -1.00051,1.93124 -1.85192,1.93124c-4.76986,0 -5.78859,-0.232 -8.95858,-0.30062c-0.58518,-0.01267 -1.14493,-0.24057 -1.69388,0.00319c-0.2355,0.10458 -1.31421,0.50992 -1.60406,0.23351c-0.30639,-0.03747 -0.53009,-0.26562 -0.45768,-0.8197c-0.00335,-0.03211 -0.00508,-0.06473 -0.00508,-0.09777c0,-0.1356 0.029,-0.26413 0.08087,-0.37922c0.41855,-1.8115 1.26024,-3.47689 2.09355,-5.11117c0.12373,-0.24266 0.47437,-1.47719 0.76865,-1.73944c0.63307,-0.56418 1.62324,-0.44581 2.36797,-0.59546c0.66269,-0.13316 2.38412,-0.55673 2.98532,0.07054c0.25379,0.2648 0.38453,0.61133 0.37167,0.92038c0.24828,0.02752 0.48464,0.05666 0.70358,0.08248z"/><path d="M230.59994,181.05708c0.05187,0.11509 0.08086,0.24362 0.08086,0.37922c0,0.03305 -0.00173,0.06566 -0.00508,0.09777c0.0982,0.75139 -0.34817,0.90341 -0.80685,0.79327c-0.35908,-0.08624 -0.72571,-0.33316 -0.84445,-0.57899c-0.91576,-1.89593 -1.19421,-4.52737 -2.54784,-6.18442c-0.13193,-0.16152 -0.97454,-0.10849 -1.02858,-0.11136c-0.90959,-0.04831 -1.45487,-0.04877 -2.63605,-0.09823c-0.94509,-0.03958 -1.0064,-1.0688 -0.42753,-1.67277c0.6012,-0.62727 2.32262,-0.2037 2.98532,-0.07055c0.74473,0.14964 1.7349,0.03127 2.36797,0.59546c0.29426,0.26224 0.64491,1.49678 0.76864,1.73944c0.83331,1.63429 1.675,3.29967 2.09356,5.11117z" data-paper-data="{&quot;index&quot;:null}"/></g><g fill="#f5bc38" stroke="none"><path d="M215.50725,180.78489c0,-0.67497 1.03549,-1.22214 2.31281,-1.22214c1.27733,0 2.31281,0.54717 2.31281,1.22214c0,0.67497 -1.03549,1.22214 -2.31281,1.22214c-1.27733,0 -2.31281,-0.54716 -2.31281,-1.22214z" stroke-width="NaN"/><path d="M226.12874,180.80284c0,-0.67497 1.03548,-1.22214 2.3128,-1.22214c1.27733,0 2.3128,0.54717 2.3128,1.22214c0,0.67497 -1.03548,1.22214 -2.3128,1.22214c-1.27733,0 -2.3128,-0.54716 -2.3128,-1.22214z" stroke-width="NaN"/><path d="M217.58228,182.00705v-2.44429h10.89396v2.44429z" stroke-width="0"/></g><path d="M216.38668,178.29988c0.26793,-0.24664 0.43109,-1.47398 0.62675,-1.92644c0.92745,-2.14481 1.9972,-3.13855 4.06256,-3.19746c0.00279,-0.00008 0.00558,-0.00017 0.00838,-0.00027c0.02519,0.0061 0.05121,0.00951 0.0778,0.00994c0.00198,0.00001 0.00394,0.00002 0.00587,0.00006c0.64615,0.00719 1.29234,0.01182 1.93852,0.01375c0.46585,0.57426 0.45611,0.94292 -0.02917,1.52576c-0.29041,0.34878 -0.81795,0.1028 -1.22859,0.11152c-1.17135,0.02487 -2.11009,0.10979 -2.90094,1.09459c-0.75431,0.93929 -2.04352,4.91425 -2.43349,6.04499c-0.12758,0.36992 -1.11376,1.40039 -1.45426,0.68472c-0.21894,-0.15519 -0.36581,-0.44143 -0.36581,-0.76887c0,-0.31843 0.13891,-0.59789 0.34791,-0.75577c0.4812,-1.05202 1.26195,-2.76057 1.34448,-2.83653z" fill="#dd9e0b" stroke="none" stroke-width="0.5"/><path d="M231.03253,181.0265c0.20901,0.15787 0.34791,0.43733 0.34791,0.75577c0,0.32744 -0.14687,0.61368 -0.36581,0.76887c-0.34051,0.71567 -1.32668,-0.31481 -1.45426,-0.68473c-0.38998,-1.13073 -1.67919,-5.10568 -2.43349,-6.04498c-0.79086,-0.98481 -1.72959,-1.06973 -2.90094,-1.09459c-0.41063,-0.00872 -0.93819,0.23726 -1.22859,-0.11152c-0.45384,-0.54506 -0.49176,-0.90282 -0.11375,-1.41659c1.03887,0.0041 2.07776,0.00118 3.11658,-0.00943c0.018,0.00288 0.0359,0.00561 0.05371,0.00819c1.40347,0.33722 2.25258,1.32036 3.00744,3.06605c0.19565,0.45246 0.35882,1.6798 0.62674,1.92644c0.08254,0.07597 0.86327,1.78451 1.34448,2.83653z" data-paper-data="{&quot;index&quot;:null}" fill="#dd9e0b" stroke="none" stroke-width="0.5"/><path d="M227.81156,175.82551c-0.07523,0.1807 -0.2257,0.09036 -0.2257,0.09036l-0.06091,-0.03737c-0.93773,-0.4538 -1.82585,-0.62278 -2.77604,-0.96399c-0.53225,-0.01437 -1.07079,0.00507 -1.61903,0.00507c-1.44196,0 -2.73636,0.34796 -4.12818,0.70357c0,0 -0.16461,0.04162 -0.19927,-0.15608c-0.03465,-0.1977 0.12995,-0.23933 0.12995,-0.23933c0.13,-0.03249 0.25916,-0.06502 0.38769,-0.09731c-0.04158,-0.13818 0.06941,-0.22705 0.06941,-0.22705c1.03632,-0.82466 2.48899,-0.44752 3.65973,-0.5647c1.47496,-0.00123 3.03059,0.18027 4.4997,0.35479l0.0201,-0.001c0,0 0.16824,0 0.16824,0.20204c0,0.20204 -0.16824,0.20204 -0.16824,0.20204l-0.05357,-0.001c-0.08257,-0.01003 -0.16541,-0.02007 -0.24851,-0.03006c0.02693,0.04155 0.04405,0.10264 0.01754,0.18754c-0.00962,0.03083 -0.02186,0.05474 -0.0356,0.07318c0.13301,0.05443 0.26662,0.11305 0.40106,0.1771l0.08643,0.05113c0,0 0.15047,0.09036 0.07523,0.27106zM220.10102,174.93803c0.2644,-0.06287 0.52769,-0.1222 0.79164,-0.1754c-0.27486,0.02597 -0.54198,0.07795 -0.79164,0.1754z" fill="#dd9e0b" stroke="none" stroke-width="0.5"/></g><g fill="#dd9e0b" stroke="none" stroke-linecap="butt"><path d="M205.0335,191.62852c0,-4.95735 5.00492,-8.97605 11.17883,-8.97605c6.1739,0 11.17883,4.01871 11.17883,8.97605c0,4.95735 -5.00494,8.97605 -11.17883,8.97605c-6.1739,0 -11.17883,-4.01872 -11.17883,-8.97605z" stroke-width="NaN"/><path d="M256.37192,191.67579c0,-4.95735 5.00494,-8.97605 11.17884,-8.97605c6.1739,0 11.17882,4.01871 11.17882,8.97605c0,4.95735 -5.00491,8.97605 -11.17882,8.97605c-6.1739,0 -11.17884,-4.01871 -11.17884,-8.97605z" stroke-width="NaN"/><path d="M215.0631,200.60455v-17.9521h52.6554v17.9521z" stroke-width="0"/></g><g fill="#ffb80e" stroke="none" stroke-linecap="butt"><path d="M208.24691,191.61784c0,-3.90261 4.50514,-7.06629 10.06254,-7.06629c5.55739,0 10.06255,3.16368 10.06255,7.06629c0,3.90261 -4.50515,7.06628 -10.06255,7.06628c-5.55739,0 -10.06254,-3.16368 -10.06254,-7.06628z" stroke-width="NaN"/><path d="M254.45881,191.72158c0,-3.90261 4.50515,-7.06629 10.06254,-7.06629c5.55739,0 10.06254,3.16368 10.06254,7.06629c0,3.90261 -4.50515,7.06629 -10.06254,7.06629c-5.55739,0 -10.06254,-3.16368 -10.06254,-7.06629z" stroke-width="NaN"/><path d="M217.27497,198.6841v-14.13258h47.39737v14.13258z" stroke-width="0"/></g><g fill="#f3ae0c" stroke="none" stroke-linecap="butt"><path d="M211.89884,196.71976c0,-1.13949 4.05123,-2.06324 9.04869,-2.06324c4.99746,0 9.04869,0.92375 9.04869,2.06324c0,1.13949 -4.05123,2.06324 -9.04869,2.06324c-4.99746,0 -9.04869,-0.92374 -9.04869,-2.06324z" stroke-width="NaN"/><path d="M253.45473,196.75006c0,-1.13949 4.05123,-2.06324 9.04869,-2.06324c4.99746,0 9.0487,0.92375 9.0487,2.06324c0,1.13949 -4.05124,2.06324 -9.0487,2.06324c-4.99747,0 -9.04869,-0.92374 -9.04869,-2.06324z" stroke-width="NaN"/><path d="M220.01728,198.78301v-4.12648h42.62191v4.12648z" stroke-width="0"/></g><path d="M267.4754,190.44308h-51.50152" fill="none" stroke="#dd9e0b" stroke-width="2.5" stroke-linecap="round"/><path d="M217.15904,197.69234h51.50152" fill="none" stroke="#dd9e0b" stroke-width="2.5" stroke-linecap="round"/><path d="M209.27896,187.13995c0.16299,2.14799 -0.12723,2.17379 -0.12723,2.17379l-0.37154,0.03301c-1.71744,0.13422 -3.46329,0.00021 -5.18329,0.15308c0,0 -0.29024,0.02579 -0.45322,-2.1222c-0.16299,-2.14799 0.12725,-2.17379 0.12725,-2.17379c1.71959,-0.15282 3.46933,0.01953 5.18329,-0.15309l0.37153,-0.03301c0,0 0.29022,-0.02578 0.45321,2.12221z" fill="#fc9b2d" stroke="none" stroke-width="0.5" stroke-linecap="butt"/><path d="M279.98028,186.76892c0.05257,2.1551 -0.23763,2.16345 -0.23763,2.16345l-0.37151,0.01068c-1.71639,0.03102 -3.44733,-0.20755 -5.16721,-0.15809c0,0 -0.29022,0.00836 -0.34281,-2.14674c-0.05257,-2.1551 0.23763,-2.16346 0.23763,-2.16346c1.71948,-0.04946 3.45235,0.22766 5.16723,0.15809l0.37151,-0.01069c0,0 0.29021,-0.00836 0.34278,2.14675z" fill="#fcbb71" stroke="none" stroke-width="0.5" stroke-linecap="butt"/><path d="M210.95936,195.53656c0.44657,-0.3426 1.03844,-0.1453 1.03844,-0.1453c2.28,0.76049 3.65117,1.16811 6.10249,0.46969c0.85927,-0.24483 2.82789,-1.35005 3.62949,-1.0454c0.33831,0.12857 1.56486,3.21628 1.77842,3.67273c0.79928,1.70837 2.48481,2.79473 3.12499,4.66795c1.33743,3.91347 -3.21867,3.60712 -5.6578,3.20537c-3.88572,-0.22572 -7.88422,-0.36906 -11.76501,-0.36749c-0.80721,0.00032 -3.90705,0.27973 -4.34232,-0.33322c-0.62859,-0.8852 0.4158,-2.63574 0.81534,-3.43682c1.09093,-2.18736 2.17477,-4.42731 4.04616,-5.98998l0.02078,-0.17052c0,0 0.44677,-0.7446 1.209,-0.52698z" fill="#e6be5e" stroke="none" stroke-width="0.5" stroke-linecap="butt"/><path d="M225.35273,203.23661c0.07718,1.06065 -0.84904,1.14905 -0.84904,1.14905l-1.01409,0.09585c-5.36978,0.00488 -10.68566,0.46639 -16.05372,0.46639c0,0 -0.92943,0.00001 -0.92943,-1.06434c0,-1.06433 0.92943,-1.06434 0.92943,-1.06434c1.1854,0 2.3682,-0.02312 3.5496,-0.05906c0.08164,-0.05025 0.13995,-0.07251 0.13995,-0.07251l0.24868,-0.0484c1.16205,-0.93149 2.2446,-1.81493 3.26174,-2.92691c-0.00183,-1.86456 -0.03151,-3.72558 0.08374,-5.5864c0,0 0.06622,-1.06163 0.99329,-0.98579c0.92707,0.07584 0.86086,1.13745 0.86086,1.13745c-0.11724,1.86564 -0.07894,3.73309 -0.07894,5.6029l0.05441,0.19636c0.9388,0.6685 1.88125,1.28621 2.89643,1.81371l0.69542,0.22877c0,0 0.21704,0.07456 0.40464,0.27277c0.95419,-0.02411 1.90953,-0.0384 2.86663,-0.03746l0.93698,-0.09035c0,0 0.92622,-0.08839 1.00341,0.97227zM215.41716,201.77678c-0.29047,0.29368 -0.58559,0.57451 -0.88578,0.84723c0.66102,-0.02871 1.32196,-0.05819 1.98303,-0.08664c-0.36824,-0.24526 -0.7329,-0.49937 -1.09726,-0.76059z" fill="#ffd268" stroke="none" stroke-width="0.5" stroke-linecap="butt"/><g stroke="none" stroke-linecap="butt"><path d="M211.45408,194.34081c0,-2.3616 1.91445,-4.27604 4.27603,-4.27604c2.3616,0 4.27603,1.91445 4.27603,4.27604c0,2.3616 -1.91443,4.27605 -4.27603,4.27605c-2.3616,0 -4.27603,-1.91446 -4.27603,-4.27605z" fill="#dd9e0b" stroke-width="0"/><path d="M213.24788,194.29979c0,-1.38206 1.12036,-2.50242 2.50242,-2.50242c1.38206,0 2.50242,1.12037 2.50242,2.50242c0,1.38206 -1.12037,2.50242 -2.50242,2.50242c-1.38206,0 -2.50242,-1.12036 -2.50242,-2.50242z" fill="#ffc43a" stroke-width="0"/><path d="M217.64944,195.44812c-0.58605,0 -0.58606,-0.58606 -0.58606,-0.58606v-0.12057c0.00068,-1.29964 -0.11637,-1.71198 -1.50378,-1.70471c0,0 -0.58605,-0.00001 -0.58605,-0.58606c0,-0.58605 0.58605,-0.58605 0.58605,-0.58605c2.01553,0.00871 2.67494,0.95319 2.6759,2.87683v0.12057c0,0 -0.00001,0.58606 -0.58606,0.58606z" fill="#ffd268" stroke-width="0.5"/></g><path d="M205.10601,204.95803c0,0 -0.10616,0.14849 -0.29403,0.28397c0.265,0.0821 0.54471,0.1359 0.73868,0.14927c1.79652,0.12388 3.65121,-0.00669 5.45262,-0.00669c3.93972,0 7.87475,0.03794 11.80758,-0.13569c1.09585,-0.04837 3.2789,0.29127 4.21304,-0.39536c0.3373,-0.24793 -0.5255,-0.64636 -0.7754,-0.97903c-0.0666,-0.08866 -0.13056,-0.1781 -0.19231,-0.26818c0.26243,0.0774 0.523,0.13595 0.77977,0.17357c0.38309,0.30847 0.87011,0.4931 1.40024,0.4931c0.30556,0 0.59679,-0.06134 0.86205,-0.17237c0.23808,0.55419 0.2935,1.16323 -0.09521,1.86496c-0.73311,1.32344 -3.6051,1.51141 -4.89356,1.5168c-4.36401,0.01828 -8.73507,0.13653 -13.10621,0.13653c-2.24563,0 -7.10717,0.89217 -8.54192,-1.43854c-0.0398,-0.2626 -0.09566,-0.52609 -0.1671,-0.78695c0.57432,-0.36856 1.14621,-0.79465 1.6859,-1.24199c0.51683,0.08795 1.11388,0.05249 1.70774,-0.06045c-0.18918,0.2946 -0.38281,0.58396 -0.58188,0.86705z" fill="#9d7008" stroke="none" stroke-width="0.5" stroke-linecap="butt"/><path d="M217.20289,188.52076c0.00913,0.05125 0.01898,0.10331 0.02956,0.15619c0.1351,0.67545 1.51656,1.18202 1.83168,1.9319c0.19776,0.47059 0.47059,1.1165 0.80657,1.83682c-1.49846,-1.50141 -4.24753,-2.84275 -6.05691,-1.41429c-0.08693,-0.42568 -0.29491,-0.8073 -0.58642,-1.10735c0.08735,-0.23158 0.13733,-0.4815 0.1426,-0.7424c0.04537,-0.04368 0.08887,-0.08927 0.13042,-0.13664c1.11806,-0.54915 2.34386,-0.76942 3.70249,-0.52424z" fill="#9d7008" stroke="none" stroke-width="0.5" stroke-linecap="butt"/><g stroke="none" stroke-linecap="butt"><path d="M205.04193,202.69977c0,-1.9495 1.58038,-3.52984 3.52987,-3.52984c1.9495,0 3.52985,1.58037 3.52985,3.52984c0,1.9495 -1.58035,3.52988 -3.52985,3.52988c-1.9495,0 -3.52987,-1.58039 -3.52987,-3.52988z" fill="#dd9e0b" stroke-width="0"/><path d="M206.5227,202.66598c0,-1.14088 0.92486,-2.06574 2.06574,-2.06574c1.14088,0 2.06576,0.92487 2.06576,2.06574c0,1.14088 -0.92488,2.06574 -2.06576,2.06574c-1.14088,0 -2.06574,-0.92487 -2.06574,-2.06574z" fill="#ffc43a" stroke-width="0"/><path d="M210.15617,203.61392c-0.48379,0 -0.48379,-0.48379 -0.48379,-0.48379v-0.09954c0.00056,-1.07283 -0.09607,-1.41324 -1.24137,-1.40725c0,0 -0.48378,0 -0.48378,-0.48379c0,-0.48379 0.48378,-0.48379 0.48378,-0.48379c1.6638,0.00718 2.20817,0.78686 2.20895,2.37481v0.09951c0,0 0,0.4838 -0.48379,0.4838z" fill="#ffd268" stroke-width="0.5"/></g><g stroke="none" stroke-linecap="butt"><path d="M212.24013,202.52436c0,-1.9495 1.58038,-3.52985 3.52987,-3.52985c1.9495,0 3.52988,1.58038 3.52988,3.52985c0,1.9495 -1.58038,3.52987 -3.52988,3.52987c-1.9495,0 -3.52987,-1.58038 -3.52987,-3.52987z" fill="#dd9e0b" stroke-width="0"/><path d="M213.7209,202.49049c0,-1.14088 0.92486,-2.06575 2.06574,-2.06575c1.14088,0 2.06576,0.92487 2.06576,2.06575c0,1.14088 -0.92488,2.06575 -2.06576,2.06575c-1.14088,0 -2.06574,-0.92487 -2.06574,-2.06575z" fill="#ffc43a" stroke-width="0"/><path d="M217.35437,203.43842c-0.48379,0 -0.48379,-0.48379 -0.48379,-0.48379v-0.09954c0.00056,-1.07283 -0.09607,-1.41324 -1.24137,-1.40725c0,0 -0.48379,0 -0.48379,-0.48379c0,-0.48379 0.48379,-0.48379 0.48379,-0.48379c1.6638,0.00718 2.20816,0.78686 2.20895,2.37481v0.09954c0,0 0,0.48379 -0.48378,0.48379z" fill="#ffd268" stroke-width="0.5"/></g><g stroke="none" stroke-linecap="butt"><path d="M219.57197,202.5671c0,-1.9495 1.58039,-3.52984 3.52985,-3.52984c1.9495,0 3.52987,1.58037 3.52987,3.52984c0,1.9495 -1.58037,3.52988 -3.52987,3.52988c-1.9495,0 -3.52985,-1.58039 -3.52985,-3.52988z" fill="#dd9e0b" stroke-width="0"/><path d="M221.05274,202.53331c0,-1.14088 0.92487,-2.06575 2.06575,-2.06575c1.14088,0 2.06574,0.92486 2.06574,2.06575c0,1.14088 -0.92486,2.06576 -2.06574,2.06576c-1.14088,0 -2.06575,-0.92487 -2.06575,-2.06576z" fill="#ffc43a" stroke-width="0"/><path d="M224.68622,203.48127c-0.48379,0 -0.4838,-0.48379 -0.4838,-0.48379v-0.09953c0.00056,-1.07283 -0.09606,-1.41323 -1.24136,-1.40724c0,0 -0.4838,0 -0.4838,-0.48379c0,-0.48379 0.4838,-0.4838 0.4838,-0.4838c1.6638,0.00718 2.20816,0.78686 2.20895,2.37481v0.09953c0,0 0,0.48379 -0.48379,0.48379z" fill="#ffd268" stroke-width="0.5"/></g><path d="M228.43163,204.86778l-10.94406,-15.14581" fill="none" stroke="#bf890a" stroke-width="2.5" stroke-linecap="round"/><path d="M203.58583,204.84155l10.94406,-15.14581" data-paper-data="{&quot;index&quot;:null}" fill="none" stroke="#bf890a" stroke-width="2.5" stroke-linecap="round"/><path d="M236.02059,195.57362c0.44657,-0.3426 1.03844,-0.14531 1.03844,-0.14531c2.28,0.76049 3.65117,1.16811 6.10249,0.4697c0.85927,-0.24483 2.82789,-1.35005 3.62949,-1.04541c0.33831,0.12857 1.56486,3.21628 1.77842,3.67273c0.79928,1.70837 2.48481,2.79473 3.12499,4.66795c1.33743,3.91347 -3.21867,3.60712 -5.6578,3.20537c-3.88572,-0.22572 -7.88422,-0.36906 -11.765,-0.36749c-0.80721,0.00032 -3.90705,0.27973 -4.34233,-0.33322c-0.62859,-0.8852 0.4158,-2.63574 0.81534,-3.43682c1.09093,-2.18736 2.17477,-4.42731 4.04616,-5.98998l0.02078,-0.17051c0,0 0.44676,-0.74461 1.209,-0.527z" fill="#e6be5e" stroke="none" stroke-width="0.5" stroke-linecap="butt"/><path d="M250.41396,203.27368c0.07719,1.06065 -0.84904,1.14905 -0.84904,1.14905l-1.0141,0.09585c-5.36978,0.00488 -10.68566,0.46639 -16.05372,0.46639c0,0 -0.92943,0.00001 -0.92943,-1.06434c0,-1.06433 0.92943,-1.06434 0.92943,-1.06434c1.1854,0 2.3682,-0.02312 3.54958,-0.05906c0.08164,-0.05025 0.13997,-0.07251 0.13997,-0.07251l0.24868,-0.0484c1.16205,-0.93149 2.2446,-1.81493 3.26174,-2.92691c-0.00183,-1.86456 -0.03151,-3.72558 0.08374,-5.5864c0,0 0.06622,-1.06163 0.99329,-0.98579c0.92707,0.07584 0.86086,1.13745 0.86086,1.13745c-0.11724,1.86564 -0.07894,3.7331 -0.07894,5.60291l0.05442,0.19635c0.9388,0.6685 1.88125,1.28621 2.89643,1.81371l0.69542,0.22877c0,0 0.21704,0.07456 0.40463,0.27277c0.95419,-0.02411 1.90953,-0.03839 2.86663,-0.03746l0.93698,-0.09035c0,0 0.92622,-0.08839 1.00341,0.97227zM240.47838,201.81385c-0.29047,0.29368 -0.58559,0.57451 -0.88578,0.84723c0.66102,-0.02871 1.32196,-0.05819 1.98303,-0.08664c-0.36824,-0.24526 -0.7329,-0.49937 -1.09726,-0.76059z" fill="#ffd268" stroke="none" stroke-width="0.5" stroke-linecap="butt"/><g stroke="none" stroke-linecap="butt"><path d="M236.51531,194.37784c0,-2.3616 1.91445,-4.27603 4.27603,-4.27603c2.3616,0 4.27603,1.91443 4.27603,4.27603c0,2.3616 -1.91443,4.27605 -4.27603,4.27605c-2.3616,0 -4.27603,-1.91446 -4.27603,-4.27605z" fill="#dd9e0b" stroke-width="0"/><path d="M238.30911,194.33686c0,-1.38206 1.12037,-2.50242 2.50242,-2.50242c1.38206,0 2.50242,1.12036 2.50242,2.50242c0,1.38206 -1.12036,2.50242 -2.50242,2.50242c-1.38206,0 -2.50242,-1.12036 -2.50242,-2.50242z" fill="#ffc43a" stroke-width="0"/><path d="M242.71066,195.4852c-0.58605,0 -0.58606,-0.58606 -0.58606,-0.58606v-0.12057c0.00068,-1.29964 -0.11637,-1.71198 -1.50378,-1.70471c0,0 -0.58605,-0.00001 -0.58605,-0.58606c0,-0.58605 0.58605,-0.58606 0.58605,-0.58606c2.01553,0.00871 2.67494,0.95319 2.6759,2.87683v0.12057c0,0 -0.00001,0.58606 -0.58606,0.58606z" fill="#ffd268" stroke-width="0.5"/></g><path d="M230.16724,204.5996c0,0 -0.10615,0.14849 -0.29402,0.28397c0.265,0.0821 0.54471,0.1359 0.73868,0.14927c1.79652,0.12388 3.65121,-0.00667 5.45262,-0.00667c3.93972,0 7.87475,0.03792 11.80758,-0.13569c1.09585,-0.04837 3.2789,0.29127 4.21304,-0.39536c0.3373,-0.24793 -0.5255,-0.64635 -0.77541,-0.97903c-0.06661,-0.08866 -0.13056,-0.1781 -0.19231,-0.26818c0.26243,0.0774 0.523,0.13595 0.77976,0.17356c0.38309,0.30847 0.87011,0.4931 1.40024,0.4931c0.30556,0 0.59678,-0.06134 0.86205,-0.17237c0.23808,0.55419 0.2935,1.16323 -0.09521,1.86496c-0.73311,1.32344 -3.6051,1.51141 -4.89355,1.5168c-4.36401,0.01828 -8.73507,0.13654 -13.10621,0.13654c-2.24563,0 -7.10717,0.89217 -8.54192,-1.43855c-0.0398,-0.2626 -0.09566,-0.52609 -0.1671,-0.78696c0.57432,-0.36856 1.14621,-0.79465 1.6859,-1.24199c0.51683,0.08795 1.11388,0.05249 1.70774,-0.06045c-0.18918,0.2946 -0.38282,0.58396 -0.58189,0.86705z" fill="#9d7008" stroke="none" stroke-width="0.5" stroke-linecap="butt"/><path d="M242.26411,188.55783c0.00913,0.05125 0.01898,0.10331 0.02956,0.15619c0.1351,0.67545 1.51656,1.18202 1.83168,1.9319c0.19776,0.47059 0.47059,1.1165 0.80656,1.83682c-1.49846,-1.50141 -4.24753,-2.84275 -6.05691,-1.41429c-0.08693,-0.42568 -0.29491,-0.8073 -0.58642,-1.10734c0.08735,-0.23158 0.13733,-0.4815 0.1426,-0.74241c0.04537,-0.04368 0.08887,-0.08927 0.13042,-0.13664c1.11806,-0.54915 2.34386,-0.76942 3.70249,-0.52424z" fill="#bf890a" stroke="none" stroke-width="0.5" stroke-linecap="butt"/><path d="M261.96146,195.44222c0.44657,-0.3426 1.03844,-0.1453 1.03844,-0.1453c2.28,0.76049 3.65117,1.16811 6.10249,0.46969c0.85928,-0.24483 2.82789,-1.35005 3.62951,-1.0454c0.33831,0.12857 1.56485,3.21628 1.77841,3.67273c0.79928,1.70837 2.48481,2.79473 3.12499,4.66795c1.33743,3.91347 -3.21867,3.60711 -5.6578,3.20536c-3.88572,-0.22572 -7.88423,-0.36906 -11.76501,-0.36749c-0.80721,0.00032 -3.90704,0.27973 -4.34232,-0.33322c-0.62859,-0.8852 0.41581,-2.63574 0.81534,-3.43682c1.09093,-2.18736 2.17477,-4.42731 4.04614,-5.98998l0.02079,-0.17052c0,0 0.44676,-0.7446 1.209,-0.52698z" fill="#e6be5e" stroke="none" stroke-width="0.5" stroke-linecap="butt"/><path d="M276.35481,203.14227c0.07719,1.06065 -0.84904,1.14905 -0.84904,1.14905l-1.0141,0.09585c-5.36978,0.00488 -10.68566,0.46639 -16.05372,0.46639c0,0 -0.92943,0 -0.92943,-1.06434c0,-1.06433 0.92943,-1.06433 0.92943,-1.06433c1.1854,0 2.3682,-0.02312 3.54958,-0.05906c0.08164,-0.05025 0.13995,-0.07251 0.13995,-0.07251l0.24868,-0.0484c1.16205,-0.93149 2.2446,-1.81493 3.26175,-2.92691c-0.00183,-1.86456 -0.03151,-3.72558 0.08374,-5.5864c0,0 0.06622,-1.06163 0.99329,-0.98579c0.92707,0.07584 0.86087,1.13745 0.86087,1.13745c-0.11724,1.86564 -0.07894,3.7331 -0.07894,5.60291l0.05442,0.19635c0.93881,0.6685 1.88125,1.28621 2.89643,1.81371l0.69542,0.22877c0,0 0.21704,0.07456 0.40464,0.27277c0.95419,-0.02411 1.90955,-0.0384 2.86663,-0.03746l0.93698,-0.09033c0,0 0.92622,-0.08839 1.00341,0.97227zM266.41926,201.68248c-0.29046,0.29368 -0.58558,0.57451 -0.88577,0.84723c0.66101,-0.02871 1.32196,-0.05819 1.98304,-0.08664c-0.36824,-0.24526 -0.7329,-0.49937 -1.09727,-0.76059z" fill="#ffd268" stroke="none" stroke-width="0.5" stroke-linecap="butt"/><g stroke="none" stroke-linecap="butt"><path d="M262.45617,194.24648c0,-2.3616 1.91445,-4.27603 4.27603,-4.27603c2.3616,0 4.27603,1.91443 4.27603,4.27603c0,2.3616 -1.91445,4.27605 -4.27603,4.27605c-2.3616,0 -4.27603,-1.91446 -4.27603,-4.27605z" fill="#dd9e0b" stroke-width="0"/><path d="M264.24996,194.20551c0,-1.38206 1.12037,-2.50242 2.50242,-2.50242c1.38206,0 2.50242,1.12037 2.50242,2.50242c0,1.38206 -1.12037,2.50243 -2.50242,2.50243c-1.38206,0 -2.50242,-1.12037 -2.50242,-2.50243z" fill="#ffc43a" stroke-width="0"/><path d="M268.65154,195.35379c-0.58605,0 -0.58606,-0.58606 -0.58606,-0.58606v-0.12056c0.00068,-1.29964 -0.11637,-1.71198 -1.50378,-1.70471c0,0 -0.58605,-0.00001 -0.58605,-0.58606c0,-0.58605 0.58605,-0.58606 0.58605,-0.58606c2.01553,0.00871 2.67496,0.9532 2.6759,2.87684v0.12056c0,0 -0.00001,0.58606 -0.58607,0.58606z" fill="#ffd268" stroke-width="0.5"/></g><path d="M256.10812,204.4682c0,0 -0.10616,0.14849 -0.29402,0.28397c0.265,0.0821 0.54471,0.13589 0.73868,0.14926c1.79652,0.12388 3.6512,-0.00667 5.45261,-0.00667c3.93971,0 7.87476,0.03792 11.80759,-0.13569c1.09584,-0.04837 3.2789,0.29127 4.21304,-0.39536c0.3373,-0.24793 -0.5255,-0.64635 -0.77541,-0.97903c-0.06661,-0.08866 -0.13056,-0.17811 -0.19231,-0.26818c0.26243,0.0774 0.523,0.13596 0.77976,0.17357c0.38309,0.30847 0.87011,0.49309 1.40024,0.49309c0.30556,0 0.59678,-0.06134 0.86205,-0.17237c0.23808,0.55419 0.2935,1.16323 -0.09521,1.86496c-0.73311,1.32344 -3.6051,1.51141 -4.89355,1.5168c-4.36401,0.01828 -8.73508,0.13654 -13.10622,0.13654c-2.24563,0 -7.10717,0.89217 -8.54192,-1.43855c-0.0398,-0.2626 -0.09566,-0.52609 -0.1671,-0.78696c0.57432,-0.36856 1.1462,-0.79465 1.6859,-1.24199c0.51683,0.08795 1.11388,0.05249 1.70774,-0.06045c-0.18918,0.2946 -0.38282,0.58396 -0.58188,0.86705z" fill="#9d7008" stroke="none" stroke-width="0.5" stroke-linecap="butt"/><path d="M268.20499,188.42643c0.00914,0.05125 0.01898,0.10331 0.02956,0.15619c0.13509,0.67545 1.51656,1.18202 1.83168,1.9319c0.19776,0.47059 0.47059,1.11649 0.80657,1.83681c-1.49846,-1.50141 -4.24753,-2.84273 -6.05691,-1.41428c-0.08693,-0.42568 -0.29491,-0.8073 -0.58642,-1.10734c0.08735,-0.23158 0.13733,-0.4815 0.1426,-0.74241c0.04536,-0.04368 0.08887,-0.08927 0.13042,-0.13664c1.11805,-0.54915 2.34386,-0.76942 3.7025,-0.52424z" fill="#bf890a" stroke="none" stroke-width="0.5" stroke-linecap="butt"/><path d="M198.32044,194.37392l17.6739,-4.82244" fill="none" stroke="#dd9e0b" stroke-width="2.5" stroke-linecap="round"/><path d="M284.32398,194.75118l-16.59944,-4.80901" data-paper-data="{&quot;index&quot;:null}" fill="none" stroke="#dd9e0b" stroke-width="2.5" stroke-linecap="round"/><path d="M203.7421,191.22091c0.33492,0.16301 0.39322,0.57178 0.39322,0.57178c0.22428,1.57475 0.3886,2.50707 1.52724,3.75165c0.39914,0.43627 1.63581,1.27475 1.69259,1.83942c0.02397,0.23832 -1.44113,1.87787 -1.64817,2.13933c-0.77492,0.97857 -0.91942,2.29779 -1.83899,3.23094c-1.92114,1.94949 -3.08761,-0.83838 -3.57134,-2.40121c-1.01589,-2.36714 -2.11391,-4.77668 -3.26289,-7.07365c-0.23898,-0.47778 -1.32143,-2.23024 -1.08732,-2.66925c0.33808,-0.63399 1.68339,-0.53357 2.27582,-0.53403c1.61765,-0.00125 3.26435,-0.02227 4.74307,0.62332l0.10711,-0.03814c0,0 0.57298,0.04421 0.66964,0.55983z" fill="#e6be5e" stroke="none" stroke-width="0.5" stroke-linecap="butt"/><path d="M203.44162,202.01979c-0.60509,0.35946 -0.93141,-0.16271 -0.93141,-0.16271l-0.35674,-0.572c-1.59143,-3.1775 -3.43725,-6.18799 -5.02528,-9.36591c0,0 -0.27495,-0.55023 0.35514,-0.8651c0.63009,-0.31486 0.90504,0.23537 0.90504,0.23537c0.35067,0.70176 0.71428,1.39515 1.08505,2.0839c0.05389,0.03347 0.08433,0.06141 0.08433,0.06141l0.10222,0.1329c0.89522,0.41238 1.73846,0.79191 2.69767,1.06511c1.10328,-0.55268 2.19624,-1.12079 3.33194,-1.60305c0,0 0.64808,-0.27485 0.87744,0.29641c0.22936,0.57126 -0.41871,0.84614 -0.41871,0.84614c-1.13915,0.4825 -2.23336,1.05763 -3.3403,1.61077l-0.10014,0.09031c-0.11802,0.75355 -0.20491,1.4942 -0.21687,2.25124l0.07029,0.47937c0,0 0.02008,0.15055 -0.04177,0.32023c0.29655,0.55775 0.58763,1.1191 0.87021,1.68599l0.33067,0.52797c0,0 0.32633,0.52217 -0.27875,0.88165zM201.36659,195.70604c-0.25979,-0.08508 -0.51335,-0.17672 -0.7636,-0.27375c0.21254,0.38283 0.42552,0.76539 0.63793,1.14833c0.03626,-0.29055 0.07882,-0.5816 0.12567,-0.87458z" fill="#ffd268" stroke="none" stroke-width="0.5" stroke-linecap="butt"/><g stroke="none" stroke-linecap="butt"><path d="M204.59634,191.16005c1.39809,-0.69864 3.09779,-0.13162 3.79642,1.26646c0.69864,1.39809 0.13162,3.09779 -1.26647,3.79641c-1.39809,0.69864 -3.09779,0.13163 -3.79642,-1.26646c-0.69864,-1.39809 -0.13162,-3.09779 1.26647,-3.79641z" fill="#dd9e0b" stroke-width="0"/><path d="M205.15126,192.20985c0.81819,-0.40885 1.81288,-0.07702 2.22173,0.74116c0.40885,0.81819 0.07703,1.81288 -0.74116,2.22174c-0.81819,0.40885 -1.81288,0.07702 -2.22174,-0.74116c-0.40885,-0.81819 -0.07702,-1.81288 0.74116,-2.22174z" fill="#ffc43a" stroke-width="0"/><path d="M205.77356,195.15531c-0.17337,-0.34695 0.17357,-0.52033 0.17357,-0.52033l0.07138,-0.03566c0.7696,-0.38407 0.97907,-0.57535 0.56434,-1.39456c0,0 -0.17337,-0.34695 0.17358,-0.52032c0.34695,-0.17337 0.52032,0.17357 0.52032,0.17357c0.5911,1.19579 0.22704,1.86557 -0.91149,2.4352l-0.07137,0.03567c0,0 -0.34696,0.17337 -0.52033,-0.17358z" fill="#ffd268" stroke-width="0.5"/></g><path d="M196.66708,190.42589c0,0 -0.11932,-0.01892 -0.2551,-0.09006c0.02979,0.18117 0.08069,0.36267 0.13016,0.48146c0.45812,1.1002 1.0841,2.15956 1.61701,3.226c1.16549,2.33233 2.30712,4.67311 3.57336,6.95001c0.35282,0.63444 0.79756,2.02729 1.48041,2.37719c0.24655,0.12634 0.22719,-0.50231 0.3502,-0.74867c0.03279,-0.06566 0.06682,-0.12998 0.10187,-0.19318c0.03181,0.17826 0.07424,0.34983 0.12792,0.51297c-0.06929,0.31806 -0.03452,0.66098 0.12231,0.97483c0.09039,0.18089 0.21286,0.33515 0.35706,0.45934c-0.25764,0.30489 -0.60182,0.51788 -1.13224,0.49536c-1.00036,-0.04249 -1.96125,-1.68712 -2.34562,-2.4483c-1.30183,-2.5781 -2.66492,-5.13082 -3.95803,-7.71855c-0.66433,-1.32943 -2.63068,-3.94354 -1.67533,-5.48242c0.14368,-0.10125 0.28315,-0.21226 0.41644,-0.33173c0.38809,0.23096 0.80952,0.44348 1.23401,0.63064c0.10084,0.33199 0.29845,0.67495 0.54098,0.99311c-0.23037,-0.02485 -0.45896,-0.05387 -0.68544,-0.08798z" fill="#bf890a" stroke="none" stroke-width="0.5" stroke-linecap="butt"/><path d="M209.74251,192.84163c-0.02763,0.02057 -0.05555,0.0418 -0.08373,0.06372c-0.35991,0.2798 -0.25112,1.24748 -0.60183,1.65588c-0.22009,0.25629 -0.52176,0.60889 -0.8488,1.02088c0.44556,-1.33126 0.42637,-3.35552 -0.95455,-4.0041c0.22628,-0.17739 0.39068,-0.41341 0.48207,-0.67475c0.16295,-0.0168 0.32568,-0.06115 0.48168,-0.13521c0.03929,0.01393 0.07915,0.02621 0.11949,0.03679c0.65586,0.49944 1.14888,1.15996 1.40566,2.03681z" fill="#bf890a" stroke="none" stroke-width="0.5" stroke-linecap="butt"/><g stroke="none" stroke-linecap="butt"><path d="M201.45631,195.89203c1.54331,-0.7712 3.41957,-0.14528 4.19078,1.39802c0.7712,1.54331 0.14529,3.41957 -1.39801,4.19078c-1.54331,0.7712 -3.41957,0.1453 -4.19079,-1.39801c-0.7712,-1.54331 -0.14529,-3.41957 1.39802,-4.19079z" fill="#dd9e0b" stroke-width="0"/><path d="M202.06886,197.05094c0.90318,-0.45132 2.00121,-0.08503 2.45253,0.81814c0.45132,0.90318 0.08502,2.00122 -0.81814,2.45253c-0.90318,0.45132 -2.00121,0.08502 -2.45253,-0.81816c-0.45132,-0.90318 -0.08502,-2.00121 0.81814,-2.45252z" fill="#ffc43a" stroke-width="0"/><path d="M202.7558,200.30233c-0.19138,-0.38299 0.19161,-0.57438 0.19161,-0.57438l0.07878,-0.03937c0.84953,-0.42396 1.08078,-0.63512 0.62297,-1.53941c0,0 -0.19138,-0.38299 0.19161,-0.57437c0.38299,-0.19138 0.57437,0.19161 0.57437,0.19161c0.6525,1.31999 0.25061,2.05936 -1.00617,2.68816l-0.07878,0.03936c0,0 -0.38299,0.19138 -0.57438,-0.19161z" fill="#ffd268" stroke-width="0.5"/></g><g stroke="none" stroke-linecap="butt"><path d="M198.56164,190.14691c1.54331,-0.7712 3.41957,-0.14528 4.19078,1.39802c0.7712,1.54331 0.14529,3.41957 -1.39801,4.19078c-1.54331,0.7712 -3.41957,0.1453 -4.19079,-1.39801c-0.7712,-1.54331 -0.14529,-3.41957 1.39802,-4.19079z" fill="#dd9e0b" stroke-width="0"/><path d="M199.1742,191.30576c0.90318,-0.45132 2.00121,-0.08503 2.45253,0.81814c0.45132,0.90318 0.08502,2.00122 -0.81814,2.45253c-0.90318,0.45132 -2.00121,0.08502 -2.45253,-0.81816c-0.45132,-0.90318 -0.08502,-2.00121 0.81814,-2.45252z" fill="#ffc43a" stroke-width="0"/><path d="M199.86115,194.5572c-0.19138,-0.38299 0.19161,-0.57438 0.19161,-0.57438l0.07878,-0.03937c0.84953,-0.42396 1.08078,-0.63512 0.62297,-1.53941c0,0 -0.19138,-0.38299 0.19161,-0.57437c0.38299,-0.19138 0.57437,0.19161 0.57437,0.19161c0.6525,1.31999 0.25061,2.05936 -1.00617,2.68816l-0.07878,0.03936c0,0 -0.38299,0.19138 -0.57438,-0.19161z" fill="#ffd268" stroke-width="0.5"/></g><path d="M203.38679,204.32503l5.72882,-10.95953" fill="none" stroke="#bf890a" stroke-width="1.5" stroke-linecap="round"/><path d="M208.25617,191.60682l-12.20398,-1.99836" data-paper-data="{&quot;index&quot;:null}" fill="none" stroke="#bf890a" stroke-width="1.5" stroke-linecap="round"/><g stroke="none" stroke-linecap="butt"><g><path d="M230.03218,202.72762c0,-1.9495 1.58038,-3.52985 3.52987,-3.52985c1.9495,0 3.52985,1.58037 3.52985,3.52985c0,1.9495 -1.58035,3.52987 -3.52985,3.52987c-1.9495,0 -3.52987,-1.58038 -3.52987,-3.52987z" fill="#dd9e0b" stroke-width="0"/><path d="M231.51295,202.69382c0,-1.14088 0.92486,-2.06575 2.06574,-2.06575c1.14088,0 2.06576,0.92488 2.06576,2.06575c0,1.14088 -0.92488,2.06574 -2.06576,2.06574c-1.14088,0 -2.06574,-0.92487 -2.06574,-2.06574z" fill="#ffc43a" stroke-width="0"/><path d="M235.14642,203.64177c-0.48379,0 -0.48379,-0.48378 -0.48379,-0.48378v-0.09954c0.00056,-1.07283 -0.09607,-1.41324 -1.24137,-1.40725c0,0 -0.48378,0 -0.48378,-0.48379c0,-0.48379 0.48378,-0.48379 0.48378,-0.48379c1.6638,0.00718 2.20817,0.78686 2.20895,2.37481v0.09951c0,0 0,0.4838 -0.48379,0.4838z" fill="#ffd268" stroke-width="0.5"/></g><g><path d="M237.23038,202.55221c0,-1.9495 1.58038,-3.52985 3.52987,-3.52985c1.9495,0 3.52987,1.58038 3.52987,3.52985c0,1.9495 -1.58037,3.52987 -3.52987,3.52987c-1.9495,0 -3.52987,-1.58038 -3.52987,-3.52987z" fill="#dd9e0b" stroke-width="0"/><path d="M238.71115,202.51833c0,-1.14088 0.92486,-2.06575 2.06574,-2.06575c1.14088,0 2.06576,0.92487 2.06576,2.06575c0,1.14088 -0.92487,2.06575 -2.06576,2.06575c-1.14088,0 -2.06574,-0.92487 -2.06574,-2.06575z" fill="#ffc43a" stroke-width="0"/><path d="M242.34462,203.46627c-0.48379,0 -0.48378,-0.48378 -0.48378,-0.48378v-0.09954c0.00056,-1.07283 -0.09607,-1.41324 -1.24137,-1.40725c0,0 -0.48379,0 -0.48379,-0.48379c0,-0.48379 0.48379,-0.48379 0.48379,-0.48379c1.6638,0.00718 2.20816,0.78686 2.20895,2.37481v0.09954c0,0 0,0.48378 -0.48378,0.48378z" fill="#ffd268" stroke-width="0.5"/></g><g><path d="M244.56222,202.59495c0,-1.9495 1.58038,-3.52984 3.52985,-3.52984c1.9495,0 3.52987,1.58037 3.52987,3.52984c0,1.9495 -1.58037,3.52988 -3.52987,3.52988c-1.9495,0 -3.52985,-1.58039 -3.52985,-3.52988z" fill="#dd9e0b" stroke-width="0"/><path d="M246.04299,202.56115c0,-1.14088 0.92487,-2.06574 2.06575,-2.06574c1.14088,0 2.06574,0.92486 2.06574,2.06574c0,1.14088 -0.92486,2.06576 -2.06574,2.06576c-1.14088,0 -2.06575,-0.92488 -2.06575,-2.06576z" fill="#ffc43a" stroke-width="0"/><path d="M249.67647,203.50911c-0.48379,0 -0.4838,-0.48379 -0.4838,-0.48379v-0.09953c0.00056,-1.07283 -0.09606,-1.41323 -1.24136,-1.40724c0,0 -0.4838,-0.00001 -0.4838,-0.48379c0,-0.48379 0.4838,-0.4838 0.4838,-0.4838c1.6638,0.00718 2.20816,0.78686 2.20895,2.37481v0.09953c0,0 0,0.48379 -0.48379,0.48379z" fill="#ffd268" stroke-width="0.5"/></g></g><path d="M279.24977,190.46536c0.09666,-0.51562 0.66964,-0.55983 0.66964,-0.55983l0.10711,0.03814c1.47871,-0.64559 3.12541,-0.62457 4.74307,-0.62332c0.59243,0.00046 1.93774,-0.09997 2.27582,0.53403c0.23412,0.43902 -0.84833,2.19149 -1.08732,2.66926c-1.14898,2.29698 -2.247,4.70651 -3.26289,7.07365c-0.48373,1.56283 -1.65018,4.35069 -3.57134,2.40121c-0.91957,-0.93314 -1.06407,-2.25236 -1.83899,-3.23094c-0.20704,-0.26146 -1.67214,-1.90102 -1.64817,-2.13933c0.05679,-0.56469 1.29347,-1.40315 1.69259,-1.83942c1.13863,-1.24458 1.30295,-2.1769 1.52724,-3.75165c0,0 0.05829,-0.40876 0.39322,-0.57178z" fill="#e6be5e" stroke="none" stroke-width="0.5" stroke-linecap="butt"/><path d="M279.55021,201.26419c-0.60508,-0.35947 -0.27875,-0.88165 -0.27875,-0.88165l0.33067,-0.52797c0.28258,-0.56688 0.57366,-1.12822 0.87022,-1.68599c-0.06184,-0.16969 -0.04177,-0.32023 -0.04177,-0.32023l0.07029,-0.47937c-0.01196,-0.75704 -0.09885,-1.49771 -0.21687,-2.25125l-0.10014,-0.0903c-1.10694,-0.55315 -2.20115,-1.12828 -3.3403,-1.61077c0,0 -0.64807,-0.27486 -0.4187,-0.84612c0.22936,-0.57126 0.87744,-0.29641 0.87744,-0.29641c1.13571,0.48226 2.22866,1.05036 3.33194,1.60304c0.9592,-0.2732 1.80245,-0.65272 2.69767,-1.0651l0.10222,-0.1329c0,0 0.03042,-0.02794 0.08433,-0.06141c0.37076,-0.68875 0.73437,-1.38214 1.08505,-2.0839c0,0 0.27494,-0.55023 0.90504,-0.23538c0.6301,0.31486 0.35514,0.8651 0.35514,0.8651c-1.58804,3.17792 -3.43385,6.18841 -5.02528,9.36591l-0.35674,0.572c0,0 -0.32633,0.52217 -0.93141,0.16271zM281.75095,195.82504c0.21241,-0.38294 0.42538,-0.7655 0.63792,-1.14833c-0.25026,0.09703 -0.5038,0.18867 -0.7636,0.27375c0.04684,0.29298 0.08941,0.58403 0.12567,0.87458z" fill="#ffd268" stroke="none" stroke-width="0.5" stroke-linecap="butt"/><g stroke="none" stroke-linecap="butt"><path d="M279.66199,194.20093c-0.69862,1.39809 -2.39835,1.96508 -3.79642,1.26645c-1.39807,-0.69864 -1.96509,-2.39834 -1.26647,-3.79641c0.69862,-1.39807 2.39835,-1.96509 3.79642,-1.26646c1.39807,0.69864 1.96509,2.39834 1.26647,3.79642z" fill="#dd9e0b" stroke-width="0"/><path d="M278.58177,193.67605c-0.40885,0.81818 -1.40355,1.15002 -2.22174,0.74116c-0.81818,-0.40885 -1.15001,-1.40355 -0.74116,-2.22174c0.40885,-0.81818 1.40355,-1.15001 2.22173,-0.74115c0.81818,0.40885 1.15002,1.40354 0.74116,2.22173z" fill="#ffc43a" stroke-width="0"/><path d="M276.69795,194.57331l-0.07137,-0.03567c-1.13853,-0.56963 -1.50259,-1.23941 -0.91149,-2.4352c0,0 0.17338,-0.34694 0.52032,-0.17357c0.34694,0.17337 0.17358,0.52032 0.17358,0.52032c-0.41473,0.81919 -0.20524,1.01048 0.56434,1.39455l0.07138,0.03567c0,0 0.34695,0.17338 0.17358,0.52033c-0.17337,0.34695 -0.52033,0.17358 -0.52033,0.17358z" fill="#ffd268" stroke-width="0.5"/></g><path d="M286.32481,189.67031c-0.22648,0.03411 -0.45507,0.06314 -0.68543,0.08798c0.24253,-0.31816 0.44015,-0.66112 0.54098,-0.99311c0.42448,-0.18716 0.84592,-0.39967 1.23401,-0.63064c0.1333,0.11946 0.27276,0.23047 0.41644,0.33172c0.95535,1.53888 -1.01101,4.15301 -1.67533,5.48243c-1.29312,2.58774 -2.65621,5.14045 -3.95803,7.71856c-0.38435,0.76118 -1.34525,2.40581 -2.34562,2.44829c-0.53042,0.02252 -0.87459,-0.19046 -1.13224,-0.49534c0.14421,-0.1242 0.26667,-0.27845 0.35706,-0.45934c0.15683,-0.31384 0.1916,-0.65677 0.12232,-0.97483c0.05369,-0.16314 0.09612,-0.33472 0.12792,-0.51298c0.03506,0.0632 0.06907,0.12752 0.10186,0.19318c0.12301,0.24636 0.10365,0.87501 0.3502,0.74867c0.68284,-0.3499 1.12757,-1.74275 1.4804,-2.37719c1.26623,-2.2769 2.40788,-4.61768 3.57337,-6.95002c0.53291,-1.06645 1.15888,-2.12581 1.61701,-3.226c0.04948,-0.11879 0.10037,-0.30029 0.13016,-0.48146c-0.13578,0.07114 -0.2551,0.09006 -0.2551,0.09006z" fill="#bf890a" stroke="none" stroke-width="0.5" stroke-linecap="butt"/><g data-paper-data="{&quot;index&quot;:null}" stroke="none" stroke-linecap="butt"><path d="M283.34945,199.91325c-0.77121,1.54331 -2.64748,2.16921 -4.19079,1.39801c-1.5433,-0.7712 -2.16921,-2.64747 -1.39801,-4.19078c0.7712,-1.5433 2.64747,-2.16923 4.19078,-1.39802c1.54331,0.7712 2.16922,2.64748 1.39802,4.19079z" fill="#dd9e0b" stroke-width="0"/><path d="M282.15702,199.33386c-0.45132,0.90318 -1.54936,1.26947 -2.45252,0.81814c-0.90318,-0.45132 -1.26947,-1.54936 -0.81816,-2.45253c0.45133,-0.90318 1.54937,-1.26946 2.45253,-0.81814c0.90317,0.45132 1.26946,1.54936 0.81814,2.45252z" fill="#ffc43a" stroke-width="0"/><path d="M280.65193,200.13274c-0.19138,0.38299 -0.57438,0.19161 -0.57438,0.19161l-0.07878,-0.03936c-1.25678,-0.6288 -1.65868,-1.36818 -1.00618,-2.68816c0,0 0.19138,-0.38299 0.57437,-0.19161c0.38299,0.19138 0.19161,0.57437 0.19161,0.57437c-0.45781,0.90429 -0.22656,1.11545 0.62297,1.53941l0.07879,0.03937c0,0 0.38299,0.19138 0.19161,0.57438z" fill="#ffd268" stroke-width="0.5"/></g><g data-paper-data="{&quot;index&quot;:null}" stroke="none" stroke-linecap="butt"><path d="M286.24413,194.16807c-0.7712,1.54331 -2.64748,2.16921 -4.19079,1.39801c-1.5433,-0.7712 -2.16921,-2.64747 -1.39801,-4.19078c0.7712,-1.5433 2.64747,-2.16923 4.19078,-1.39802c1.54331,0.7712 2.16922,2.64748 1.39802,4.19079z" fill="#dd9e0b" stroke-width="0"/><path d="M285.0517,193.58872c-0.45132,0.90318 -1.54936,1.26947 -2.45252,0.81816c-0.90318,-0.45132 -1.26947,-1.54937 -0.81816,-2.45253c0.45133,-0.90318 1.54937,-1.26946 2.45253,-0.81814c0.90318,0.45132 1.26947,1.54936 0.81814,2.45252z" fill="#ffc43a" stroke-width="0"/><path d="M283.5466,194.38761c-0.19138,0.38299 -0.57438,0.19161 -0.57438,0.19161l-0.07878,-0.03937c-1.25678,-0.6288 -1.65868,-1.36818 -1.00618,-2.68816c0,0 0.19138,-0.38299 0.57437,-0.19161c0.38299,0.19138 0.19161,0.57437 0.19161,0.57437c-0.45781,0.90429 -0.22656,1.11545 0.62297,1.53941l0.07879,0.03936c0,0 0.38299,0.19138 0.19161,0.57438z" fill="#ffd268" stroke-width="0.5"/></g><path d="M274.65502,190.04926c0.04033,-0.01058 0.0802,-0.02286 0.11949,-0.03679c0.15602,0.07406 0.31874,0.11841 0.48168,0.13521c0.09139,0.26133 0.25578,0.49735 0.48207,0.67475c-1.38092,0.64858 -1.40011,2.67285 -0.95455,4.0041c-0.32704,-0.412 -0.6287,-0.7646 -0.8488,-1.02088c-0.35071,-0.40839 -0.24192,-1.37608 -0.60183,-1.65588c-0.02818,-0.02191 -0.05608,-0.04315 -0.08373,-0.06372c0.25677,-0.87685 0.74981,-1.53737 1.40566,-2.03681z" fill="#9d7008" stroke="none" stroke-width="0.5" stroke-linecap="butt"/><path d="M273.87626,192.60997l5.72882,10.95953" fill="none" stroke="#bf890a" stroke-width="1.5" stroke-linecap="round"/><path d="M274.7357,190.85122l12.20398,-1.99836" data-paper-data="{&quot;index&quot;:null}" fill="none" stroke="#bf890a" stroke-width="1.5" stroke-linecap="round"/><path d="M266.95403,179.56598c0.0761,-0.71318 -1.19549,-0.84597 -1.67494,-1.38801c-0.56663,-0.6406 -1.73503,-3.07649 -2.57363,-3.57901c0.22973,-0.95483 0.34906,-1.94025 0.34941,-2.93663c0.15866,0.00854 0.29319,0.02854 0.39653,0.06237c1.14061,0.37359 6.34669,6.31716 6.44319,7.70354c0.00437,0.06297 -0.01769,0.16545 -0.0606,0.29859c-0.94228,-0.16261 -1.90826,-0.21885 -2.87994,-0.16088z" data-paper-data="{&quot;index&quot;:null}" fill="#ffd268" stroke="none" stroke-width="0.5" stroke-linecap="butt"/><g stroke-linecap="butt"><g fill="#ffc43a" stroke="#000000" stroke-width="0"><path d="M261.8652,174.96692c2.04462,0.24113 3.15145,0.89074 4.02531,3.22786c0.20126,0.53826 0.57196,1.04998 0.59804,1.66873c0.01208,0.28658 -0.02498,0.52905 -0.10312,0.73316c0.27503,-0.04094 0.52299,-0.01549 0.67934,0.17229c1.19501,1.43521 -1.00051,1.93124 -1.85192,1.93124c-4.76986,0 -5.78859,-0.232 -8.95858,-0.30062c-0.58518,-0.01267 -1.14493,-0.24057 -1.69388,0.00319c-0.2355,0.10458 -1.31421,0.50992 -1.60406,0.23351c-0.30639,-0.03747 -0.53009,-0.26562 -0.45768,-0.8197c-0.00335,-0.03211 -0.00508,-0.06473 -0.00508,-0.09777c0,-0.1356 0.029,-0.26413 0.08087,-0.37922c0.41855,-1.8115 1.26024,-3.47689 2.09355,-5.11117c0.12373,-0.24266 0.47437,-1.47719 0.76865,-1.73944c0.63307,-0.56418 1.62324,-0.44581 2.36797,-0.59546c0.66269,-0.13316 2.38412,-0.55673 2.98532,0.07054c0.25379,0.2648 0.38453,0.61133 0.37167,0.92038c0.24828,0.02752 0.48464,0.05666 0.70358,0.08248z"/><path d="M267.77277,181.30671c0.05187,0.11509 0.08086,0.24362 0.08086,0.37922c0,0.03305 -0.00173,0.06566 -0.00508,0.09777c0.0982,0.75139 -0.34817,0.90341 -0.80685,0.79327c-0.35908,-0.08624 -0.72571,-0.33316 -0.84445,-0.57899c-0.91576,-1.89593 -1.19421,-4.52737 -2.54784,-6.18442c-0.13193,-0.16152 -0.97454,-0.10849 -1.02858,-0.11136c-0.90959,-0.04831 -1.45487,-0.04877 -2.63605,-0.09823c-0.94509,-0.03958 -1.0064,-1.0688 -0.42753,-1.67277c0.6012,-0.62727 2.32262,-0.2037 2.98532,-0.07055c0.74473,0.14964 1.7349,0.03127 2.36797,0.59546c0.29426,0.26224 0.64491,1.49678 0.76864,1.73944c0.83331,1.63429 1.675,3.29967 2.09356,5.11117z" data-paper-data="{&quot;index&quot;:null}"/></g><g fill="#f5bc38" stroke="none"><path d="M252.68008,181.03453c0,-0.67497 1.03549,-1.22214 2.31281,-1.22214c1.27733,0 2.31281,0.54717 2.31281,1.22214c0,0.67497 -1.03549,1.22214 -2.31281,1.22214c-1.27733,0 -2.31281,-0.54716 -2.31281,-1.22214z" stroke-width="NaN"/><path d="M263.30154,181.0525c0,-0.67497 1.03548,-1.22214 2.3128,-1.22214c1.27733,0 2.3128,0.54717 2.3128,1.22214c0,0.67497 -1.03548,1.22214 -2.3128,1.22214c-1.27733,0 -2.3128,-0.54716 -2.3128,-1.22214z" stroke-width="NaN"/><path d="M254.75511,182.25669v-2.44429h10.89396v2.44429z" stroke-width="0"/></g><path d="M253.55951,178.54954c0.26793,-0.24664 0.43109,-1.47398 0.62675,-1.92644c0.92745,-2.14481 1.9972,-3.13855 4.06256,-3.19746c0.00279,-0.00008 0.00558,-0.00017 0.00838,-0.00027c0.02519,0.0061 0.05121,0.00951 0.0778,0.00994c0.00198,0.00001 0.00394,0.00002 0.00587,0.00006c0.64615,0.00719 1.29234,0.01182 1.93852,0.01375c0.46585,0.57426 0.45611,0.94292 -0.02917,1.52576c-0.29041,0.34878 -0.81795,0.1028 -1.22859,0.11152c-1.17135,0.02487 -2.11009,0.10979 -2.90094,1.09459c-0.75431,0.93929 -2.04352,4.91425 -2.43349,6.04499c-0.12758,0.36992 -1.11376,1.40039 -1.45426,0.68472c-0.21894,-0.15519 -0.36581,-0.44143 -0.36581,-0.76887c0,-0.31843 0.13891,-0.59789 0.34791,-0.75577c0.4812,-1.05202 1.26195,-2.76057 1.34448,-2.83653z" fill="#dd9e0b" stroke="none" stroke-width="0.5"/><path d="M268.20536,181.27613c0.20901,0.15787 0.34791,0.43733 0.34791,0.75577c0,0.32744 -0.14687,0.61368 -0.36581,0.76887c-0.34051,0.71567 -1.32668,-0.31481 -1.45426,-0.68473c-0.38998,-1.13073 -1.67919,-5.10568 -2.43349,-6.04498c-0.79086,-0.98481 -1.72959,-1.06973 -2.90094,-1.09459c-0.41063,-0.00872 -0.93819,0.23726 -1.22859,-0.11152c-0.45384,-0.54506 -0.49176,-0.90282 -0.11375,-1.41659c1.03887,0.0041 2.07776,0.00118 3.11658,-0.00943c0.018,0.00288 0.0359,0.00561 0.05371,0.00819c1.40347,0.33722 2.25258,1.32036 3.00744,3.06605c0.19565,0.45246 0.35882,1.6798 0.62674,1.92644c0.08254,0.07597 0.86327,1.78451 1.34448,2.83653z" data-paper-data="{&quot;index&quot;:null}" fill="#dd9e0b" stroke="none" stroke-width="0.5"/><path d="M264.98438,176.07515c-0.07523,0.1807 -0.2257,0.09036 -0.2257,0.09036l-0.06091,-0.03737c-0.93773,-0.4538 -1.82585,-0.62278 -2.77604,-0.96399c-0.53225,-0.01437 -1.07079,0.00507 -1.61903,0.00507c-1.44196,0 -2.73636,0.34796 -4.12818,0.70357c0,0 -0.16461,0.04162 -0.19927,-0.15608c-0.03465,-0.1977 0.12995,-0.23933 0.12995,-0.23933c0.13,-0.03249 0.25916,-0.06502 0.38769,-0.09731c-0.04158,-0.13818 0.06941,-0.22705 0.06941,-0.22705c1.03632,-0.82466 2.48899,-0.44752 3.65973,-0.5647c1.47496,-0.00123 3.03059,0.18027 4.4997,0.35479l0.0201,-0.001c0,0 0.16824,0 0.16824,0.20204c0,0.20204 -0.16824,0.20204 -0.16824,0.20204l-0.05357,-0.001c-0.08257,-0.01003 -0.16541,-0.02007 -0.24851,-0.03006c0.02693,0.04155 0.04405,0.10264 0.01754,0.18754c-0.00962,0.03083 -0.02186,0.05474 -0.0356,0.07318c0.13301,0.05443 0.26662,0.11305 0.40106,0.1771l0.08643,0.05113c0,0 0.15047,0.09036 0.07523,0.27106zM257.27385,175.18767c0.2644,-0.06287 0.52769,-0.1222 0.79164,-0.1754c-0.27486,0.02597 -0.54198,0.07795 -0.79164,0.1754z" fill="#dd9e0b" stroke="none" stroke-width="0.5"/></g><path d="M253.49286,204.90484l-10.94406,-15.14582" fill="none" stroke="#bf890a" stroke-width="2.5" stroke-linecap="round"/><path d="M228.64706,204.87859l10.94406,-15.14581" data-paper-data="{&quot;index&quot;:null}" fill="none" stroke="#bf890a" stroke-width="2.5" stroke-linecap="round"/><g stroke="none" stroke-linecap="butt"><g><path d="M256.03452,202.56038c0,-1.9495 1.58038,-3.52984 3.52987,-3.52984c1.9495,0 3.52985,1.58037 3.52985,3.52984c0,1.9495 -1.58035,3.52988 -3.52985,3.52988c-1.9495,0 -3.52987,-1.58039 -3.52987,-3.52988z" fill="#dd9e0b" stroke-width="0"/><path d="M257.51527,202.52658c0,-1.14088 0.92486,-2.06574 2.06574,-2.06574c1.14089,0 2.06576,0.92487 2.06576,2.06574c0,1.14088 -0.92487,2.06575 -2.06576,2.06575c-1.14089,0 -2.06574,-0.92488 -2.06574,-2.06575z" fill="#ffc43a" stroke-width="0"/><path d="M261.14876,203.47453c-0.48379,0 -0.48379,-0.48378 -0.48379,-0.48378v-0.09954c0.00056,-1.07283 -0.09607,-1.41325 -1.24137,-1.40726c0,0 -0.48378,0 -0.48378,-0.48379c0,-0.48379 0.48378,-0.48378 0.48378,-0.48378c1.66381,0.00718 2.20817,0.78685 2.20895,2.3748v0.09951c0,0 0,0.4838 -0.48379,0.4838z" fill="#ffd268" stroke-width="0.5"/></g><g><path d="M263.23272,202.38497c0,-1.9495 1.58038,-3.52985 3.52987,-3.52985c1.9495,0 3.52987,1.58037 3.52987,3.52985c0,1.9495 -1.58037,3.52987 -3.52987,3.52987c-1.9495,0 -3.52987,-1.58038 -3.52987,-3.52987z" fill="#dd9e0b" stroke-width="0"/><path d="M264.71348,202.35109c0,-1.14088 0.92486,-2.06575 2.06575,-2.06575c1.14089,0 2.06576,0.92487 2.06576,2.06575c0,1.14088 -0.92487,2.06575 -2.06576,2.06575c-1.14089,0 -2.06575,-0.92487 -2.06575,-2.06575z" fill="#ffc43a" stroke-width="0"/><path d="M268.34695,203.29903c-0.48379,0 -0.48379,-0.48378 -0.48379,-0.48378v-0.09954c0.00056,-1.07283 -0.09606,-1.41325 -1.24136,-1.40726c0,0 -0.48379,0 -0.48379,-0.48379c0,-0.48379 0.48379,-0.48378 0.48379,-0.48378c1.66381,0.00718 2.20816,0.78685 2.20895,2.3748v0.09954c0,0 0,0.48379 -0.48378,0.48379z" fill="#ffd268" stroke-width="0.5"/></g><g><path d="M270.56455,202.42771c0,-1.9495 1.58038,-3.52984 3.52985,-3.52984c1.9495,0 3.52987,1.58037 3.52987,3.52984c0,1.9495 -1.58037,3.52988 -3.52987,3.52988c-1.9495,0 -3.52985,-1.58039 -3.52985,-3.52988z" fill="#dd9e0b" stroke-width="0"/><path d="M272.04532,202.39391c0,-1.14088 0.92487,-2.06574 2.06576,-2.06574c1.14089,0 2.06574,0.92486 2.06574,2.06574c0,1.14088 -0.92486,2.06576 -2.06574,2.06576c-1.14089,0 -2.06576,-0.92488 -2.06576,-2.06576z" fill="#ffc43a" stroke-width="0"/><path d="M275.67879,203.34187c-0.48379,0 -0.4838,-0.48379 -0.4838,-0.48379v-0.09953c0.00056,-1.07283 -0.09606,-1.41324 -1.24136,-1.40725c0,0 -0.4838,0 -0.4838,-0.48379c0,-0.48379 0.4838,-0.4838 0.4838,-0.4838c1.66381,0.00718 2.20816,0.78686 2.20894,2.37481v0.09953c0,0 0,0.48379 -0.48379,0.48379z" fill="#ffd268" stroke-width="0.5"/></g></g><path d="M279.43372,204.77347l-10.94407,-15.14581" fill="none" stroke="#bf890a" stroke-width="2.5" stroke-linecap="round"/><path d="M254.58794,204.74722l10.94406,-15.14581" data-paper-data="{&quot;index&quot;:null}" fill="none" stroke="#bf890a" stroke-width="2.5" stroke-linecap="round"/><path d="M202.89001,207.81932v-3.74217h77.15507v3.74217z" fill="#b07b00" stroke="none" stroke-width="0" stroke-linecap="butt"/></g></g></svg>