<svg version="1.1" xmlns="http://www.w3.org/2000/svg" xmlns:xlink="http://www.w3.org/1999/xlink" width="566.59418" height="142.33297" viewBox="0,0,566.59418,142.33297"><g transform="translate(32.29362,-283.12051)"><g data-paper-data="{&quot;isPaintingLayer&quot;:true}" fill-rule="nonzero" stroke="none" stroke-linecap="butt" stroke-linejoin="miter" stroke-miterlimit="10" stroke-dasharray="" stroke-dashoffset="0" style="mix-blend-mode: normal"><path d="M488.67732,372.57925c-9.40564,0 -19.70787,1.04512 -29.05896,-0.0574c-2.69684,-0.31797 -5.24525,-1.45142 -7.91045,-1.97872c-6.4755,-1.28117 -13.12886,-1.33306 -19.67102,-2.19114c-14.7465,-1.9342 -29.1737,-4.41217 -44.01025,-5.60407c-0.58315,-0.09005 -29.7506,-4.58933 -30.27815,-4.68903c-2.20065,-0.41591 -4.28375,-1.43824 -6.4923,-1.76699c-11.41622,0 -22.83243,0 -34.24866,0c-4.37773,0 -8.75547,0 -13.13321,0c-11.76956,0 -24.25006,1.15491 -35.98016,0c-13.96346,0 -27.92692,0 -41.89038,0c-9.20051,0 -18.42463,-0.69202 -27.60154,-0.01926c-19.82251,1.4532 -39.31602,6.59777 -59.06946,8.30137c-10.13868,0.85969 -16.4518,1.0482 -26.16257,3.03772c-2.41815,0.49543 -4.69926,1.59249 -7.12992,2.01926c-4.2837,0.75212 -9.862,0.07403 -14.17347,0.07403c-5.99808,0 -11.96338,0.80573 -17.67473,-1.45811c-4.68958,-1.85883 -18.86359,-7.17509 -15.81954,-15.91104c0.5771,-1.6562 1.17858,-2.92824 1.80319,-3.89972c-0.00326,-0.00076 -0.00653,-0.00152 -0.00979,-0.00229c-3.33222,-0.77985 -5.81789,-3.82669 -5.81789,-7.46644c0,-1.94034 0.7064,-3.71217 1.87087,-5.06187c-2.22152,-0.55003 -5.62321,-2.2345 -5.62321,-7.39316c0,-7.65985 7.5,-7.65985 7.5,-7.65985c5.21451,0 10.37228,-1.43338 15.17758,-3.85913c1.49896,-0.75669 2.49929,-2.27707 3.84768,-3.2869c3.22444,-2.41486 6.87517,-4.18932 10.13025,-6.56092c0.93975,-0.68468 1.56421,-1.779 2.54878,-2.39449c0.84338,-0.52722 1.98211,-0.41254 2.81426,-0.95808c1.44194,-0.9453 2.32958,-2.70585 3.88712,-3.43515c1.36595,-0.63961 3.00772,-0.19258 4.48302,-0.48416c2.0199,-0.39922 4.04944,-0.75843 6.09085,-1.01971c6.5814,-0.84237 12.98417,-2.13596 18.77483,-5.30997c6.69649,-1.77941 12.53192,-2.6073 19.48765,-2.39196c1.97724,0.06121 4.00731,-0.16406 5.92573,0.32867c1.09339,0.28083 1.70795,1.69429 2.81426,1.91616c1.83139,0.36728 3.73489,-0.39084 5.59459,-0.22975c0.9853,0.08534 1.83909,0.79081 2.81426,0.95808c9.19723,1.57758 18.74106,3.43769 27.4221,7.38654c3.36935,1.53266 3.26158,2.99272 6.87079,4.21641c0.63673,0.21587 1.34605,-0.2621 2.00749,-0.14752c1.93507,0.33522 3.89036,0.72265 5.7061,1.48376c1.68677,0.70705 3.05892,2.04287 4.69043,2.87424c1.63586,0.83359 5.23832,0.30045 6.35771,0.57991c1.50666,0.37615 2.80172,1.35994 4.20258,2.03992c6.19083,0.68795 12.24335,0.6294 18.46452,0.6294c1.56348,0 3.1293,-0.08755 4.69043,0c0.78231,0.04388 1.57545,0.64612 2.31873,0.39308c0.74328,-0.25304 1.01413,-1.23309 1.62405,-1.73535c2.32897,-1.91786 5.07738,-3.2568 7.77147,-4.5854c1.37099,-0.67611 2.49545,-1.86331 3.93601,-2.36638c0.94182,-0.32889 2.05439,0.30817 2.98564,-0.05073c1.48161,-0.571 2.52053,-2.02882 3.98795,-2.63684c1.42333,-0.58974 3.07073,-0.3848 4.52478,-0.89035c2.07924,-0.72292 3.45871,-2.84645 5.4645,-3.76058c1.17737,-0.53659 2.56602,-0.44246 3.75234,-0.95808c0.90807,-0.39468 1.52375,-1.32754 2.42913,-1.72861c3.12266,-1.38326 6.30425,-2.6706 9.58578,-3.59368c2.50642,-0.70505 5.25927,-0.07205 7.76004,-0.79769c1.81637,-0.52705 3.44355,-1.67249 5.29304,-2.06125c1.68875,-0.35498 3.44711,-0.09214 5.17066,-0.13821c6.5666,0 13.1332,0 19.69981,0c1.1217,0 10.99432,-0.04734 11.82694,0.15643c4.16116,1.01835 7.78687,3.6984 11.88614,4.95152c4.55698,1.39303 9.50279,1.48947 14.0713,2.87424c4.27883,1.29697 8.31507,3.46746 12.49204,4.88745c1.51283,0.51429 3.17968,0.43745 4.69043,0.95808c1.09602,0.3777 1.93639,1.3574 3.04147,1.70646c0.58515,0.18484 1.22675,-0.27507 1.83014,-0.16763c2.52886,0.45027 5.09983,0.8718 7.49034,1.82716c0.82362,0.32916 1.0684,1.5483 1.87617,1.91616c0.8921,0.40626 1.96619,0.04591 2.91859,0.26737c2.37119,0.55136 4.6774,1.3618 7.0161,2.04269c4.39486,1.74621 9.49075,0.754 14.0281,1.90265c1.09433,0.27703 1.78607,1.44375 2.81426,1.91616c0.218,0.10016 0.40227,-0.31396 0.64088,-0.32867c1.56063,-0.09621 3.12696,0 4.69043,0c4.06504,0 8.13009,0 12.19513,0c6.89494,0 13.83492,-0.0751 20.65961,-0.90069c2.56065,-0.30976 4.93991,-1.64439 7.50469,-1.91616c6.69822,-0.70977 13.86122,-0.0574 20.61619,-0.0574c7.07508,0 15.88745,-1.27732 22.81128,0.32867c1.09944,0.25501 1.75138,1.53209 2.81426,1.91616c1.57769,0.5701 3.3489,-0.49464 5.01182,-0.30257c1.34869,0.15578 2.69399,0.353 4.03169,0.59297c0.16867,1.77992 0.33818,3.55898 0.51352,5.33614c0.575,5.828 2.47256,12.7799 3.12591,17.6959c1.62341,12.2149 2.79555,24.49668 4.50047,36.69833c-15.20775,0 -30.4155,0 -45.62325,0zM117.13989,313.83031c-0.75614,0.12378 -1.28224,0.72553 -1.725,1.51193c0.57604,-0.4978 1.15013,-1.00231 1.725,-1.51193z" fill="#4670a3" stroke-width="0.5"/><path d="M505.34154,335.13628c0,0 5.5478,1.41651 5.74368,6.72331c0.9195,-0.13781 1.85164,-0.36488 2.75625,-0.24546c8.33498,1.10037 12.00464,0.17674 11.9898,12.29396c-0.00279,2.27777 -2.58149,3.71508 -3.87224,5.57262c-2.40749,2.42984 -4.62082,4.90693 -7.87055,6.36679c-6.82531,3.06611 -17.47353,1.6252 -24.64664,1.6252c-7.82364,0 -15.64728,0 -23.47092,0c-19.06504,0 -38.13008,0 -57.19512,0c-9.40564,0 -19.70787,1.04512 -29.05896,-0.05739c-2.69684,-0.31797 -5.24525,-1.45142 -7.91045,-1.97872c-6.47551,-1.28117 -13.12886,-1.33306 -19.67102,-2.19114c-14.7465,-1.9342 -29.1737,-4.41217 -44.01025,-5.60407c-0.58315,-0.09005 -29.7506,-4.58933 -30.27815,-4.68903c-2.20065,-0.41591 -4.28374,-1.43824 -6.4923,-1.76699c-11.41622,0 -22.83244,0 -34.24866,0c-4.37774,0 -8.75547,0 -13.13321,0c-11.76956,0 -24.25006,1.15492 -35.98017,0c-13.96346,0 -27.92692,0 -41.89038,0c-9.20052,0 -18.42464,-0.69203 -27.60154,-0.01927c-19.82251,1.4532 -39.31602,6.59778 -59.06946,8.30137c-10.13869,0.85969 -16.4518,1.0482 -26.16257,3.03771c-2.41815,0.49542 -4.69926,1.59249 -7.12993,2.01926c-4.2837,0.7521 -9.862,0.07403 -14.17347,0.07403c-5.99808,0 -11.96338,0.80573 -17.67474,-1.4581c-4.68958,-1.85883 -18.86359,-7.1751 -15.81954,-15.91105c0.5771,-1.6562 1.17857,-2.92824 1.80319,-3.89972c-0.00326,-0.00076 -0.00653,-0.00152 -0.00979,-0.00229c-3.33222,-0.77984 -5.81789,-3.82668 -5.81789,-7.46644c0,-1.94033 0.7064,-3.71217 1.87087,-5.06187c-2.22152,-0.55003 -5.62322,-2.2345 -5.62322,-7.39316c0,-7.65985 7.5,-7.65985 7.5,-7.65985c5.21451,0 10.37228,-1.43338 15.17759,-3.85913c1.49896,-0.75668 2.49929,-2.27707 3.84768,-3.28691c3.22444,-2.41486 6.87517,-4.18932 10.13025,-6.56092c0.93975,-0.68469 1.56421,-1.779 2.54878,-2.39448c0.84339,-0.52722 1.98211,-0.41255 2.81426,-0.95808c1.44193,-0.9453 2.32958,-2.70585 3.88712,-3.43515c1.36595,-0.63961 3.00772,-0.19258 4.48302,-0.48416c2.01991,-0.39922 4.04944,-0.75843 6.09085,-1.01971c6.58139,-0.84236 12.98417,-2.13595 18.77483,-5.30997c6.69648,-1.77941 12.53192,-2.6073 19.48765,-2.39195c1.97724,0.06122 4.00731,-0.16407 5.92573,0.32867c1.09339,0.28083 1.70795,1.69429 2.81426,1.91616c1.8314,0.36728 3.7349,-0.39084 5.59459,-0.22976c0.98529,0.08534 1.83909,0.79081 2.81426,0.95808c9.19723,1.57758 18.74105,3.43768 27.4221,7.38654c3.36934,1.53265 3.26158,2.99273 6.87079,4.21642c0.63672,0.21587 1.34604,-0.2621 2.00749,-0.14752c1.93507,0.33522 3.89037,0.72265 5.7061,1.48376c1.68677,0.70705 3.05892,2.04286 4.69043,2.87424c1.63586,0.8336 5.23832,0.30045 6.35771,0.57992c1.50666,0.37615 2.80172,1.35995 4.20258,2.03992c6.19083,0.68794 12.24334,0.62941 18.46452,0.62941c1.56348,0 3.12931,-0.08755 4.69043,0c0.7823,0.04388 1.57545,0.64611 2.31872,0.39308c0.74328,-0.25304 1.01413,-1.23309 1.62405,-1.73534c2.32897,-1.91785 5.07738,-3.2568 7.77147,-4.5854c1.37099,-0.67611 2.49545,-1.86332 3.93601,-2.36638c0.94182,-0.32889 2.05438,0.30817 2.98564,-0.05073c1.48161,-0.571 2.52054,-2.02883 3.98796,-2.63684c1.42333,-0.58975 3.07073,-0.3848 4.52478,-0.89035c2.07924,-0.72292 3.45871,-2.84646 5.46449,-3.76059c1.17737,-0.53658 2.56603,-0.44246 3.75235,-0.95808c0.90807,-0.39468 1.52375,-1.32754 2.42914,-1.72861c3.12266,-1.38326 6.30424,-2.6706 9.58578,-3.59368c2.50642,-0.70504 5.25927,-0.07204 7.76005,-0.79768c1.81637,-0.52704 3.44355,-1.6725 5.29304,-2.06126c1.68874,-0.35498 3.4471,-0.09214 5.17065,-0.13821c6.5666,0 13.13321,0 19.69981,0c1.1217,0 10.99432,-0.04734 11.82694,0.15643c4.16116,1.01835 7.78687,3.6984 11.88614,4.95152c4.55697,1.39303 9.50279,1.48947 14.07129,2.87424c4.27883,1.29697 8.31507,3.46746 12.49204,4.88745c1.51283,0.5143 3.17968,0.43745 4.69043,0.95808c1.09602,0.37771 1.93638,1.3574 3.04147,1.70646c0.58515,0.18484 1.22675,-0.27507 1.83014,-0.16763c2.52886,0.45027 5.09983,0.87179 7.49033,1.82716c0.82362,0.32916 1.0684,1.5483 1.87617,1.91616c0.8921,0.40626 1.96619,0.04592 2.91858,0.26737c2.37119,0.55136 4.6774,1.36179 7.0161,2.04269c4.39486,1.74621 9.49075,0.754 14.02809,1.90265c1.09432,0.27703 1.78607,1.44375 2.81426,1.91616c0.218,0.10016 0.40227,-0.31396 0.64088,-0.32867c1.56064,-0.09621 3.12695,0 4.69043,0c4.06504,0 8.13008,0 12.19512,0c6.89494,0 13.83492,-0.0751 20.65961,-0.90069c2.56065,-0.30976 4.93991,-1.64439 7.50469,-1.91616c6.69823,-0.70977 13.86122,-0.05739 20.61619,-0.05739c7.07507,0 15.88745,-1.27732 22.81128,0.32867c1.09944,0.25501 1.75138,1.53209 2.81426,1.91616c1.57769,0.5701 3.3489,-0.49463 5.01183,-0.30256c2.28921,0.26441 4.56869,0.64822 6.8178,1.15785c2.97166,0.67335 5.10069,2.02074 8.00432,3.01992c1.46601,0.50448 3.05868,0.61515 4.47898,1.24133c2.81417,1.24072 5.16709,3.44282 8.01072,4.61138c2.76252,1.13523 5.91597,0.97396 8.71081,2.02344c0.83547,0.31372 1.25395,1.44127 2.11751,1.66176c1.74397,0.44528 3.70899,-0.4037 5.38718,0.2544c1.5115,0.59274 2.22797,2.47515 3.63937,3.28542c1.12389,0.64521 2.61289,0.34201 3.75235,0.95808c1.44592,0.78177 2.59077,2.02825 3.84524,3.11353c2.0344,0.51186 5.02765,1.97487 5.51873,6.1564c0.94378,0.1898 1.88759,0.39016 2.8311,0.50339zM37.23839,308.72375c-0.75614,0.12379 -1.28224,0.72553 -1.725,1.51193c0.57604,-0.4978 1.15013,-1.00231 1.725,-1.51193z" fill="#5587c5" stroke-width="0.5"/><path d="M27.78146,375.52536c-1.98443,1.7487 -5.45439,3.36989 -8.92434,-1.88344c-0.31487,-0.4767 -0.59235,-0.95339 -0.83577,-1.42841c-0.17643,0.16312 -0.35402,0.3235 -0.5329,0.48085c-8.21506,7.22667 -18.45398,10.15823 -27.83817,8.47863c-1.58341,-0.28339 -3.10387,-1.18049 -4.69043,-1.42022c-2.72204,-0.41129 -5.58186,0.67651 -8.19928,-0.52742c-2.25573,-1.03758 -3.92042,-3.96593 -5.88064,-5.9489c0,0 -6,-6.81278 -1.5,-15.89647c4.5,-9.08371 10.5,-2.27093 10.5,-2.27093c0.54135,0.85747 0.85668,2.33312 1.62405,2.5724c1.61484,0.50356 3.28828,-0.68008 4.93393,-0.52742c6.278,0.58238 11.92796,3.03889 18.1716,-0.73427c5.32611,-3.21867 9.91283,-8.7402 14.77491,-13.34409c3.73455,-3.53622 7.8994,-6.09335 11.79981,-8.96598c2.20126,-1.62122 3.84645,-4.85379 6.16562,-6.03984c3.33445,-1.70527 6.96964,-1.49677 10.46178,-2.16059c2.74549,-0.52188 5.47682,-1.43245 8.24372,-1.47548c7.02852,0 14.7635,-1.24018 21.67816,0.10974c2.25776,0.44076 4.3167,2.31561 6.5666,2.84043c1.81349,0.423 3.68021,-0.32088 5.50463,-0.02468c7.03365,1.14197 13.99019,5.51695 20.92289,7.16262c3.40463,0.8082 8.78395,-0.14661 11.93184,-0.14661c10.00625,0 20.01251,0 30.01876,0c5.76273,0.00939 11.51593,-0.76355 17.26385,-1.38855c5.08508,-0.55292 10.17118,-1.19323 15.26819,-1.35807c0.71483,-0.02312 1.40285,1.14733 2.07936,0.79702c0.85011,-0.4402 1.04843,-2.52534 1.91809,-2.86695c2.25956,-0.88754 4.71991,0.18712 6.99065,-0.63243c2.3165,-0.83607 4.26873,-3.31408 6.5666,-4.26065c1.23576,-0.50905 2.59177,0.39315 3.84203,-0.02701c1.6439,-0.55246 3.05601,-2.22688 4.69043,-2.84044c0.98078,-0.36818 2.03286,0.17818 3.0312,-0.05825c3.1207,-0.73906 6.23183,-3.5383 9.38086,-4.26065c2.48559,-0.57018 5.10722,0.03768 7.50704,-1.09611c1.84088,-0.86971 3.52073,-2.51525 5.40923,-3.10628c5.48767,-1.71746 12.68062,-0.22186 18.28215,-0.1198c2.17707,0.93631 4.45893,1.43154 6.53121,2.80896c0.55244,0.36721 0.49681,1.87004 1.05106,2.23093c0.438,0.28519 0.89902,-0.8292 1.36244,-0.65944c4.24848,1.55638 8.42141,4.78053 12.67686,6.89619h0.91421c1.44566,0 2.79579,0.61924 3.94097,1.69208c1.45019,0.05827 2.947,-0.51828 4.34878,0.03188c2.12771,0.83508 4.08561,2.52483 5.97218,4.23248c0.86207,0.78033 1.22284,2.69178 2.18107,3.14754c1.12317,0.53418 2.3509,-0.64473 3.52009,-0.43606c2.02356,0.36115 4.20108,2.42365 6.28161,2.77889c1.97195,0.3367 4.02487,-0.34233 5.94744,0.40213c1.00025,0.38731 1.80349,1.46479 2.65843,2.38506c2.71955,0.14049 5.4226,0.7213 8.11816,1.4031c0.6009,-0.0461 1.16151,-0.05652 1.65299,0.01386c3.14257,0.4499 5.73911,1.23098 8.3459,1.85592c2.69052,-0.04576 5.47385,-0.46427 8.00798,-0.46427c4.1694,0 8.33881,0 12.50821,0c0.16526,-0.24235 0.34946,-0.43987 0.56913,-0.5559c4.91597,-2.59614 10.78816,-0.71336 15.74005,-2.13793c0.97145,-0.27945 1.83805,-1.18179 2.81426,-1.42021c2.85659,-0.69768 5.8451,-0.0788 8.64542,-1.18169c1.79944,-0.7087 3.38425,-2.47985 5.20894,-3.02069c1.82479,-0.54087 3.72461,0.06724 5.57707,-0.17631c2.2028,-0.28961 4.36141,-1.17584 6.5666,-1.42022c0.70886,-0.07857 1.43358,0.78609 2.11063,0.45864c1.07397,-0.51941 1.71482,-2.4624 2.81426,-2.84044c4.88359,-1.67914 9.51041,0.02461 14.39021,-1.82234c10.08719,-0.15305 20.54713,-1.20739 30.50072,1.54692c7.03435,1.94651 13.38208,7.99911 20.39751,9.87637c2.62768,0.70314 5.5521,-0.52465 7.96609,1.19693c1.3609,0.97055 1.71695,3.82174 2.88969,5.24814c0.45766,0.55665 1.33633,-0.25544 1.74261,0.38612c2.86065,4.51734 7.85111,8.3766 7.76866,14.63338c-0.07992,6.06475 -4.85323,9.91926 -8.13799,13.39281c-1.36581,1.4443 -3.32256,0.40338 -4.98764,0.48721c-1.85005,0.09314 -6.37585,-0.03844 -8.42106,-0.08507c-6.77664,-2.45058 -13.79022,-4.5259 -20.6379,-5.68086c-1.59491,-0.269 -3.23127,0.37385 -4.81432,-0.02468c-4.86959,-1.22591 -8.86484,-3.43139 -13.77007,-4.20616c-5.54614,-0.876 -11.49941,0.05526 -17.08461,0.05526c-12.82051,0 -25.64103,0 -38.46154,0c-4.79873,0 -9.59745,0 -14.39618,0c-0.15927,0.24867 -0.3386,0.44872 -0.55733,0.5559c-5.2168,2.55629 -12.4207,0.86432 -17.87951,0.86432c-0.93787,0 -6.94805,0.04565 -7.76797,-0.14661c-1.04764,-0.24567 -2.08212,-0.61464 -3.11395,-1.0049c-0.72218,-0.07216 -1.43414,-0.18064 -2.13157,-0.33651c-1.82047,-0.40684 -3.63578,-0.95603 -5.45355,-1.45833c-1.92197,0.09289 -3.39192,0.59017 -5.90148,0.02084c-1.33324,-0.30246 -2.66237,-0.72841 -3.95782,-1.31115c-9.04331,0.13369 -18.12012,0.56878 -26.99902,-1.5293c-3.25496,-0.76915 -6.62914,0.6619 -9.88279,-0.1198c-1.66311,-0.39956 -3.12695,-1.89362 -4.69043,-2.84044c-2.4476,0.03188 -4.86961,-0.78793 -7.28775,-1.36194c-3.39781,-0.80656 -7.20691,-0.42611 -10.89159,-0.1156c-0.86421,0.3438 -1.72095,0.73004 -2.568,1.17144c-2.41792,1.26004 -4.55863,3.82619 -7.07994,4.47213c-12.25876,3.14055 -24.50703,0.17253 -36.73993,1.68105c-8.04612,0.99221 -15.29003,6.77465 -23.15439,8.47492c-4.21047,0.91028 -10.0349,0.08507 -14.04958,0.08507c-7.50469,0 -15.00938,0 -22.51407,0c-31.58224,0 -63.16448,0 -94.74672,0c-2.81426,0 -5.62852,0 -8.44278,0c-0.93809,0 -1.88716,0.21678 -2.81426,0c-0.34617,-0.08094 -0.56262,-1.08135 -0.88222,-0.86432c-0.47177,0.32036 -0.34403,1.64939 -0.80332,2.00895c-3.7479,2.93408 -5.04218,3.09027 -7.82663,3.09399z" fill="#4c79b0" stroke-width="0.5"/><path d="M36.59945,353.22585l120.14066,-38.96746l1.36889,4.22043l-120.14066,38.96746z" fill="#9a4a00" stroke-width="0"/><path d="M506.58919,386.86637c0,0 5.5478,1.66723 5.74368,7.91332c0.9195,-0.1622 1.85164,-0.42946 2.75625,-0.28891c8.33498,1.29513 12.00464,0.20802 11.9898,14.46996c-0.00279,2.68093 -2.58149,4.37264 -3.87224,6.55896c-2.40749,2.85991 -4.62082,5.77544 -7.87055,7.49369c-6.82531,3.6088 -17.47353,1.91286 -24.64664,1.91286c-7.82364,0 -15.64728,0 -23.47092,0c-19.06504,0 -38.13008,0 -57.19512,0c-9.40564,0 -19.70787,1.2301 -29.05896,-0.06755c-2.69684,-0.37425 -5.24525,-1.70832 -7.91045,-2.32895c-6.47551,-1.50793 -13.12886,-1.56901 -19.67102,-2.57897c-14.7465,-2.27655 -29.1737,-5.19311 -44.01025,-6.59597c-0.58315,-0.10599 -29.7506,-5.40163 -30.27815,-5.51897c-2.20065,-0.48952 -4.28374,-1.6928 -6.4923,-2.07974c-11.41622,0 -22.83244,0 -34.24866,0c-4.37774,0 -8.75547,0 -13.13321,0c-11.76956,0 -24.25006,1.35934 -35.98017,0c-13.96346,0 -27.92692,0 -41.89038,0c-9.20052,0 -18.42464,-0.81452 -27.60154,-0.02268c-19.82251,1.71041 -39.31602,7.76557 -59.06946,9.77069c-10.13869,1.01185 -16.4518,1.23373 -26.16257,3.57538c-2.41815,0.58311 -4.69926,1.87436 -7.12993,2.37666c-4.2837,0.88522 -9.862,0.08713 -14.17347,0.08713c-5.99808,0 -11.96338,0.94834 -17.67474,-1.71618c-4.68958,-2.18784 -18.86359,-8.44507 -15.81954,-18.72726c0.5771,-1.94934 1.17857,-3.44653 1.80319,-4.58996c-0.00326,-0.00089 -0.00653,-0.00179 -0.00979,-0.0027c-3.33222,-0.91787 -5.81789,-4.50399 -5.81789,-8.78798c0,-2.28376 0.7064,-4.36921 1.87087,-5.95781c-2.22152,-0.64738 -5.62322,-2.63 -5.62322,-8.70173c0,-9.01562 7.5,-9.01562 7.5,-9.01562c5.21451,0 10.37228,-1.68708 15.17759,-4.54218c1.49896,-0.89061 2.49929,-2.6801 3.84768,-3.86868c3.22444,-2.84228 6.87517,-4.93082 10.13025,-7.72218c0.93975,-0.80588 1.56421,-2.09388 2.54878,-2.8183c0.84339,-0.62054 1.98211,-0.48557 2.81426,-1.12766c1.44193,-1.11262 2.32958,-3.18478 3.88712,-4.04316c1.36595,-0.75282 3.00772,-0.22667 4.48302,-0.56985c2.01991,-0.46988 4.04944,-0.89267 6.09085,-1.2002c6.58139,-0.99146 12.98417,-2.51401 18.77483,-6.24982c6.69648,-2.09436 12.53192,-3.06878 19.48765,-2.81532c1.97724,0.07206 4.00731,-0.19311 5.92573,0.38684c1.09339,0.33054 1.70795,1.99417 2.81426,2.25531c1.8314,0.43229 3.7349,-0.46002 5.59459,-0.27043c0.98529,0.10044 1.83909,0.93078 2.81426,1.12766c9.19723,1.85681 18.74105,4.04614 27.4221,8.69394c3.36934,1.80392 3.26158,3.52243 6.87079,4.96271c0.63672,0.25408 1.34604,-0.30849 2.00749,-0.17363c1.93507,0.39455 3.89037,0.85056 5.7061,1.74638c1.68677,0.8322 3.05892,2.40444 4.69043,3.38297c1.63586,0.98114 5.23832,0.35363 6.35771,0.68256c1.50666,0.44273 2.80172,1.60066 4.20258,2.40098c6.19083,0.8097 12.24334,0.74081 18.46452,0.74081c1.56348,0 3.12931,-0.10305 4.69043,0c0.7823,0.05165 1.57545,0.76047 2.31872,0.46265c0.74328,-0.29783 1.01413,-1.45134 1.62405,-2.04249c2.32897,-2.2573 5.07738,-3.83324 7.77147,-5.397c1.37099,-0.79578 2.49545,-2.19312 3.93601,-2.78522c0.94182,-0.3871 2.05438,0.36272 2.98564,-0.05971c1.48161,-0.67207 2.52054,-2.38793 3.98796,-3.10355c1.42333,-0.69413 3.07073,-0.45291 4.52478,-1.04794c2.07924,-0.85087 3.45871,-3.35028 5.46449,-4.4262c1.17737,-0.63155 2.56603,-0.52077 3.75235,-1.12766c0.90807,-0.46454 1.52375,-1.56251 2.42914,-2.03457c3.12266,-1.62809 6.30424,-3.14329 9.58578,-4.22975c2.50642,-0.82983 5.25927,-0.08479 7.76005,-0.93887c1.81637,-0.62032 3.44355,-1.96853 5.29304,-2.4261c1.68874,-0.41781 3.4471,-0.10845 5.17065,-0.16267c6.5666,0 13.13321,0 19.69981,0c1.1217,0 10.99432,-0.05572 11.82694,0.18412c4.16116,1.1986 7.78687,4.35301 11.88614,5.82792c4.55697,1.63959 9.50279,1.7531 14.07129,3.38297c4.27883,1.52653 8.31507,4.08119 12.49204,5.75251c1.51283,0.60533 3.17968,0.51488 4.69043,1.12766c1.09602,0.44456 1.93638,1.59766 3.04147,2.0085c0.58515,0.21756 1.22675,-0.32376 1.83014,-0.1973c2.52886,0.52997 5.09983,1.02609 7.49033,2.15056c0.82362,0.38742 1.0684,1.82234 1.87617,2.25531c0.8921,0.47817 1.96619,0.05405 2.91858,0.31469c2.37119,0.64895 4.6774,1.60282 7.0161,2.40424c4.39486,2.05528 9.49075,0.88746 14.02809,2.23941c1.09432,0.32606 1.78607,1.69929 2.81426,2.25531c0.218,0.11789 0.40227,-0.36953 0.64088,-0.38684c1.56064,-0.11324 3.12695,0 4.69043,0c4.06504,0 8.13008,0 12.19512,0c6.89494,0 13.83492,-0.08839 20.65961,-1.06011c2.56065,-0.36459 4.93991,-1.93544 7.50469,-2.25531c6.69823,-0.8354 13.86122,-0.06755 20.61619,-0.06755c7.07507,0 15.88745,-1.5034 22.81128,0.38684c1.09944,0.30015 1.75138,1.80327 2.81426,2.25531c1.57769,0.67101 3.3489,-0.58218 5.01183,-0.35611c2.28921,0.31121 4.56869,0.76295 6.8178,1.36279c2.97166,0.79253 5.10069,2.37841 8.00432,3.55444c1.46601,0.59377 3.05868,0.72403 4.47898,1.46104c2.81417,1.46032 5.16709,4.05219 8.01072,5.42758c2.76252,1.33616 5.91597,1.14635 8.71081,2.38158c0.83547,0.36925 1.25395,1.69637 2.11751,1.95589c1.74397,0.52409 3.70899,-0.47515 5.38718,0.29943c1.5115,0.69765 2.22797,2.91324 3.63937,3.86693c1.12389,0.75941 2.61289,0.40254 3.75235,1.12766c1.44592,0.92014 2.59077,2.38724 3.84524,3.66462c2.0344,0.60246 5.02765,2.32442 5.51873,7.24607c0.94378,0.22339 1.88759,0.45922 2.8311,0.59249zM38.48604,355.7789c-0.75614,0.1457 -1.28224,0.85395 -1.725,1.77954c0.57604,-0.58591 1.15013,-1.17972 1.725,-1.77954z" fill="#5587c5" stroke-width="0.5"/><g fill="#5d9c5d" stroke-width="0.5"><path d="M146.69401,301.95634c1.92739,-0.62515 2.55254,1.30224 2.55254,1.30224l0.39196,1.29781c0.25322,0.49176 1.18372,2.47522 1.72647,2.93064c1.12689,0.94559 3.73147,1.14288 4.78563,1.34175c3.32044,0.62638 5.60933,0.57656 8.82756,0.8702c1.87389,0.17098 3.73517,0.62606 5.61606,0.57135c0,0 2.02574,-0.04494 2.07069,1.98079c0.04495,2.02574 -1.98078,2.07069 -1.98078,2.07069c-2.04991,0.03357 -4.08042,-0.4044 -6.12202,-0.59178c-4.93208,-0.45267 -11.66727,0.24815 -15.81889,-3.15287c-1.17571,-0.96315 -2.01105,-2.83269 -2.7015,-4.15378l-0.64996,-1.91451c0,0 -0.62515,-1.92739 1.30224,-2.55254z"/><path d="M156.36647,333.96666c-1.92739,0.62515 -2.55254,-1.30224 -2.55254,-1.30224l-0.16684,-0.56512c-0.58582,-3.11466 -1.11445,-6.06925 0.64453,-9.01984c0.5495,-0.92176 1.40571,-1.65524 2.29093,-2.26186c0.5316,-0.36429 1.33698,-0.17856 1.84637,-0.57331c0.80273,-0.62206 1.14737,-1.71122 1.93263,-2.3552c1.14902,-0.94228 2.83566,-1.05977 3.98059,-2.00701c1.59148,-1.31668 3.19404,-2.88722 4.06672,-4.72389c0,0 0.92083,-1.80491 2.72575,-0.88409c1.80491,0.92082 0.88409,2.72575 0.88409,2.72575c-1.27652,2.38893 -3.05657,4.38264 -5.20542,6.09409c-1.15397,0.91908 -2.82838,1.0341 -3.95466,1.98689c-0.84632,0.71595 -1.28558,1.84953 -2.16516,2.52418c-1.42636,1.09403 -2.11922,0.01198 -2.94712,1.59282c-1.07266,2.04817 -0.53293,4.02391 -0.11915,6.13895l0.04154,0.07734c0,0 0.62515,1.92739 -1.30224,2.55254z"/><path d="M155.26912,315.2677c-0.54897,1.95046 -2.49943,1.40149 -2.49943,1.40149l-2.77759,-0.83808c-3.46669,-3.13154 -4.83108,-6.07695 -5.0278,-10.7037c0,0 -0.0716,-2.02497 1.95337,-2.09657c2.02497,-0.0716 2.09657,1.95337 2.09657,1.95337c0.07722,2.93002 0.72724,5.26112 2.94266,7.3026l1.91072,0.48147c0,0 1.95046,0.54897 1.40149,2.49943z"/><path d="M155.32947,316.97775c1.917,0.65632 1.26068,2.57332 1.26068,2.57332l-0.43896,0.86958c0.02044,0.95239 0.19992,1.9147 0.06132,2.85717c-0.09177,0.62401 -0.69345,1.11326 -0.73773,1.74242c-0.10903,1.54936 1.62563,4.32705 2.30319,5.70216c0,0 0.89144,1.81961 -0.92817,2.71105c-1.81961,0.89144 -2.71105,-0.92817 -2.71105,-0.92817c-1.0093,-2.07074 -2.74757,-5.2119 -2.7153,-7.58119c0.02003,-1.47074 0.75807,-2.89158 0.67779,-4.36025l0.6549,-2.32541c0,0 0.65632,-1.917 2.57332,-1.26068z"/><path d="M140.90056,322.4133c-0.54897,1.95046 -2.49943,1.40149 -2.49943,1.40149l-1.33898,-0.38478c-0.8043,-0.32056 -1.69062,-0.48421 -2.4129,-0.96168c-7.7916,-5.15064 -5.33933,-15.3258 -6.48977,-23.01615c0,0 -0.2472,-1.65246 1.20791,-2.18073c0.2122,-0.27584 0.53799,-0.52054 1.03038,-0.68024c1.92739,-0.62515 2.55254,1.30224 2.55254,1.30224l0.10419,0.32123c1.29467,3.99161 2.50173,8.79528 5.20671,12.10701c0.47574,0.58247 1.26081,0.83922 1.78948,1.37411c1.99016,2.0136 4.08486,4.45765 7.23727,4.80017c0.5443,0.05914 3.45932,-0.94209 4.1033,-1.15211c0,0 1.92739,-0.62515 2.55254,1.30224c0.62515,1.92739 -1.30224,2.55254 -1.30224,2.55254c-1.07299,0.3463 -2.65431,0.90244 -4.02572,1.17836c1.02289,1.06067 0.16607,2.42 0.16607,2.42c-1.14697,1.80084 -3.56568,3.61333 -4.41048,5.50791c-2.02074,4.53185 -0.06205,12.10103 2.74753,15.79809l0.58116,0.3686c0,0 1.58928,1.25692 0.33236,2.8462c-1.25692,1.58928 -2.8462,0.33236 -2.8462,0.33236l-1.32892,-1.14203c-3.61525,-5.0134 -5.8685,-13.96213 -3.15702,-19.91953c0.99316,-2.18207 3.37032,-3.89151 4.65328,-5.95252c0,0 0.12154,-0.19283 0.34778,-0.40837c-0.76162,-0.29564 -1.48918,-0.73555 -2.24811,-1.0373c-5.13196,-2.04049 -8.37466,-6.04109 -10.7142,-10.68317c0.08358,4.65711 0.92757,9.45764 5.75481,11.13161l1.00517,0.275c0,0 1.95046,0.54897 1.40149,2.49943z"/><path d="M137.2866,324.47821c-0.03856,-0.72587 -0.05299,-1.45354 -0.02598,-2.17947c0.01441,-0.38727 -0.001,-0.78771 0.02071,-1.1796c-0.30975,0.07272 -0.62723,0.1288 -0.94431,0.15879c0.0124,1.16589 -0.0515,2.32861 -0.09458,3.49483c0.26448,-0.17754 0.60556,-0.29721 1.04416,-0.29454zM132.2772,318.12127c-0.98883,-1.81655 -2.15146,-3.86904 -1.866,-5.91748c0.02318,-0.16631 0.05485,-0.33012 0.09388,-0.49178l-0.06319,-0.01187l0.5439,-2.8951c0.12105,-0.72148 0.62985,-1.3524 1.37385,-1.59372c1.00698,-0.32661 2.08409,0.17751 2.48977,1.13408l0.93328,2.12798c0.96156,1.85688 1.62849,4.08412 2.76908,5.70902c0.59853,-0.28759 1.18146,-0.45047 1.69088,-0.12793c0.71052,0.44986 0.95853,1.29964 1.0927,2.20652c0.45782,0.12137 0.96484,0.1803 1.53028,0.16513c0.97282,-0.02609 3.58674,-1.05254 4.21272,-1.19439c1.72775,-0.39152 3.48559,-0.63592 5.23041,-0.94248c0.45373,-0.07972 0.98787,0.13337 1.37749,-0.11246c0.02366,-0.01493 0.04684,-0.03032 0.06957,-0.04618c-0.03934,-0.8178 0.00843,-1.6396 0.00695,-2.3757c0,0 0.01628,-2.00767 2.01491,-2.00984c0.18175,-0.23862 0.40619,-0.43182 0.69345,-0.55888c0.85302,-0.3773 1.51005,0.93911 2.28991,1.58478l1.43556,0.06483c0.55458,0.01207 1.08047,0.25312 1.45186,0.65898c0.11401,0.00086 0.22816,0.00338 0.34244,0.00748l0.00284,-0.34998l4.00562,0.03248c0.86614,-0.01323 1.67647,0.53439 1.95768,1.40141c0.27314,0.84213 -0.03471,1.73329 -0.7023,2.23977l-1.49952,1.1939c-2.6399,2.47878 -7.28569,4.66146 -10.51253,1.71642c-1.44125,0.38512 -4.3949,1.05242 -4.71391,1.10979c-2.73634,0.49214 -5.99161,1.70966 -9.02302,1.61302c-0.09225,0.75778 -0.19649,1.51736 -0.14401,2.27115c0.15886,2.28159 1.0639,4.23567 1.36567,6.43861c0.18917,1.38101 -0.07467,2.78616 -0.11362,4.18018c0.1746,0.5383 0.58471,1.80273 0.58471,1.80273c0.34526,1.06447 -0.23778,2.20728 -1.30224,2.55254c-0.20791,0.06744 -0.4188,0.09945 -0.62616,0.0994c1.75263,2.11563 3.90981,3.8776 6.30232,5.0948c0,0 1.80491,0.92083 0.88409,2.72575c-0.92082,1.80491 -2.72575,0.88409 -2.72575,0.88409c-6.41595,-3.28169 -11.10168,-9.50843 -12.60601,-16.55715c-0.23993,-0.3276 -0.33866,-0.63196 -0.33866,-0.63196l-0.38912,-1.28907c-0.52212,-3.5584 0.3285,-7.11472 -0.23465,-10.57467c0,0 -0.09329,-0.62365 0.17212,-1.22717c-0.01894,-0.03599 -0.03802,-0.07167 -0.05725,-0.10701z"/><path d="M124.27938,327.30607c-0.58885,2.09216 -2.68101,1.50329 -2.68101,1.50329l-1.43625,-0.41273c-0.86273,-0.34384 -1.81345,-0.51939 -2.5882,-1.03154c-8.35765,-5.52482 -5.72723,-16.4392 -6.96124,-24.68823c0,0 -0.26516,-1.77251 1.29567,-2.33916c0.2276,-0.29588 0.57707,-0.55835 1.10524,-0.72966c2.06741,-0.67056 2.73797,1.39685 2.73797,1.39685l0.11176,0.34456c1.38873,4.2816 2.68348,9.43425 5.58497,12.98658c0.51031,0.62478 1.35241,0.90019 1.91949,1.47394c2.13474,2.15989 4.38162,4.78149 7.76305,5.1489c0.58384,0.06343 3.71063,-1.01053 4.4014,-1.23581c0,0 2.06742,-0.67056 2.73798,1.39685c0.67056,2.06741 -1.39686,2.73798 -1.39686,2.73798c-1.15094,0.37146 -2.84714,0.96801 -4.31818,1.26397c1.09719,1.13772 0.17813,2.59581 0.17813,2.59581c-1.23031,1.93167 -3.82473,3.87584 -4.7309,5.90806c-2.16755,4.86109 -0.06656,12.98015 2.94713,16.94581l0.62337,0.39538c0,0 1.70474,1.34823 0.35651,3.05296c-1.34824,1.70473 -3.05297,0.3565 -3.05297,0.3565l-1.42547,-1.22499c-3.8779,-5.37762 -6.29484,-14.97647 -3.38637,-21.36665c1.06532,-2.3406 3.61516,-4.17423 4.99134,-6.38496c0,0 0.13038,-0.20684 0.37304,-0.43804c-0.81694,-0.31711 -1.59736,-0.78898 -2.41143,-1.11266c-5.5048,-2.18872 -8.98308,-6.47997 -11.49258,-11.4593c0.08965,4.99546 0.99495,10.14472 6.17288,11.94031l1.0782,0.29498c0,0 2.09216,0.58885 1.5033,2.681z"/><path d="M120.40286,329.52097c-0.04135,-0.7786 -0.05685,-1.55914 -0.02787,-2.33781c0.01546,-0.41541 -0.00108,-0.84494 0.02221,-1.26529c-0.33224,0.07801 -0.67279,0.13816 -1.01291,0.17032c0.0133,1.25059 -0.05524,2.49779 -0.10146,3.74872c0.28369,-0.19044 0.64956,-0.3188 1.12002,-0.31594zM115.02953,322.70221c-1.06067,-1.94851 -2.30777,-4.15012 -2.00156,-6.34738c0.02486,-0.17839 0.05884,-0.35411 0.1007,-0.5275l-0.06778,-0.01274l0.58342,-3.10542c0.12984,-0.77389 0.67561,-1.45066 1.47366,-1.70951c1.08015,-0.35034 2.23549,0.1904 2.67065,1.21647l1.00107,2.28258c1.03142,1.99178 1.74679,4.38083 2.97025,6.12378c0.642,-0.30849 1.26729,-0.4832 1.81373,-0.13723c0.76214,0.48254 1.02817,1.39406 1.17208,2.36682c0.49107,0.13019 1.03493,0.1934 1.64145,0.17714c1.04349,-0.02798 3.84732,-1.12901 4.51877,-1.28117c1.85326,-0.41996 3.73881,-0.68212 5.61039,-1.01095c0.4867,-0.08551 1.05964,0.14306 1.47756,-0.12063c0.02538,-0.01601 0.05024,-0.03253 0.07463,-0.04954c-0.0422,-0.87721 0.00904,-1.75871 0.00745,-2.54829c0,0 0.01746,-2.15352 2.1613,-2.15585c0.19495,-0.25596 0.43569,-0.46319 0.74382,-0.59948c0.91499,-0.40471 1.61975,1.00733 2.45626,1.69992l1.53985,0.06953c0.59487,0.01295 1.15896,0.27151 1.55734,0.70686c0.1223,0.00092 0.24474,0.00363 0.36732,0.00801l0.00305,-0.3754l4.29662,0.03484c0.92907,-0.0142 1.79826,0.57321 2.0999,1.50321c0.29299,0.90331 -0.03724,1.8592 -0.75332,2.40249l-1.60845,1.28063c-2.83168,2.65886 -7.81498,5.00012 -11.27625,1.84111c-1.54596,0.4131 -4.71418,1.12889 -5.05637,1.19043c-2.93513,0.52788 -6.42691,1.83386 -9.67854,1.73021c-0.09895,0.81283 -0.21077,1.62759 -0.15447,2.43615c0.1704,2.44735 1.1412,4.54339 1.46489,6.90636c0.20291,1.48135 -0.0801,2.98857 -0.12188,4.48385c0.18728,0.57741 0.62719,1.9337 0.62719,1.9337c0.37034,1.1418 -0.25505,2.36764 -1.39685,2.73798c-0.22301,0.07233 -0.44923,0.10667 -0.67165,0.10661c1.87995,2.26933 4.19386,4.1593 6.76018,5.46494c0,0 1.93604,0.98773 0.94832,2.92377c-0.98772,1.93604 -2.92377,0.94832 -2.92377,0.94832c-6.88206,-3.5201 -11.9082,-10.19921 -13.52183,-17.76c-0.25736,-0.3514 -0.36325,-0.67788 -0.36325,-0.67788l-0.4174,-1.38271c-0.56005,-3.81691 0.35236,-7.6316 -0.25169,-11.34291c0,0 -0.10007,-0.66894 0.18462,-1.31632c-0.02032,-0.0386 -0.04078,-0.07689 -0.06141,-0.11478z"/><path d="M105.96705,334.18987c-0.49579,1.76153 -2.25732,1.26572 -2.25732,1.26572l-1.20928,-0.34751c-0.72639,-0.28951 -1.52686,-0.43731 -2.17917,-0.86852c-7.03686,-4.65172 -4.82214,-13.84126 -5.86114,-20.78668c0,0 -0.22326,-1.49239 1.09091,-1.96949c0.19164,-0.24912 0.48588,-0.47011 0.93057,-0.61435c1.74069,-0.56459 2.30528,1.17611 2.30528,1.17611l0.0941,0.29012c1.16927,3.60497 2.25941,7.94333 4.70236,10.93427c0.42966,0.52604 1.13868,0.75793 1.61614,1.24102c1.79737,1.81856 3.68917,4.02586 6.53623,4.33521c0.49157,0.05341 3.12422,-0.85082 3.70583,-1.04052c0,0 1.7407,-0.56459 2.30529,1.1761c0.56459,1.7407 -1.1761,2.30529 -1.1761,2.30529c-0.96905,0.31276 -2.3972,0.81504 -3.63577,1.06422c0.9238,0.95792 0.14998,2.18558 0.14998,2.18558c-1.03587,1.62641 -3.22029,3.26333 -3.98326,4.9744c-1.825,4.09287 -0.05605,10.92886 2.48139,14.26781l0.52486,0.3329c0,0 1.43533,1.13517 0.30017,2.5705c-1.13517,1.43533 -2.5705,0.30016 -2.5705,0.30016l-1.20019,-1.0314c-3.26507,-4.52777 -5.30004,-12.60969 -2.85121,-17.99002c0.89695,-1.97071 3.04384,-3.51456 4.20254,-5.37593c0,0 0.10977,-0.17415 0.31409,-0.36881c-0.68784,-0.26701 -1.34492,-0.6643 -2.03034,-0.93682c-4.63486,-1.84283 -7.56346,-5.45592 -9.67638,-9.64835c0.07549,4.20601 0.83771,8.54152 5.19737,10.05335l0.90781,0.24836c0,0 1.76153,0.49579 1.26574,2.25732z"/><path d="M102.70316,336.05476c-0.03483,-0.65555 -0.04786,-1.31274 -0.02347,-1.96836c0.01302,-0.34976 -0.0009,-0.71141 0.01871,-1.06533c-0.27974,0.06568 -0.56647,0.11632 -0.85284,0.1434c0.0112,1.05296 -0.04651,2.10306 -0.08543,3.1563c0.23886,-0.16034 0.54691,-0.26843 0.94303,-0.26601zM98.17899,330.31358c-0.89305,-1.64058 -1.94307,-3.49426 -1.68525,-5.34428c0.02093,-0.1502 0.04953,-0.29815 0.08478,-0.44415l-0.05706,-0.01072l0.49122,-2.61466c0.10932,-0.65159 0.56884,-1.22141 1.24077,-1.43935c0.90944,-0.29498 1.88221,0.16032 2.24859,1.02423l0.84288,1.92185c0.86842,1.67702 1.47074,3.68851 2.50085,5.15602c0.54055,-0.25974 1.06702,-0.40683 1.5271,-0.11554c0.6417,0.40628 0.86568,1.17376 0.98685,1.99278c0.41346,0.10962 0.87138,0.16283 1.38205,0.14914c0.87859,-0.02357 3.23932,-0.9506 3.80466,-1.07871c1.56038,-0.3536 3.14795,-0.57433 4.72376,-0.85119c0.40978,-0.072 0.89218,0.12046 1.24406,-0.10156c0.02136,-0.01348 0.0423,-0.02739 0.06282,-0.04171c-0.03553,-0.73859 0.00762,-1.48077 0.00628,-2.14557c0,0 0.01469,-1.81319 1.81973,-1.81515c0.16414,-0.21551 0.36684,-0.38999 0.62627,-0.50474c0.77039,-0.34075 1.36377,0.84814 2.06809,1.43127l1.2965,0.05854c0.50086,0.0109 0.97581,0.2286 1.31123,0.59515c0.10297,0.00078 0.20606,0.00306 0.30926,0.00675l0.00257,-0.31608l3.61761,0.02933c0.78225,-0.01195 1.51407,0.48262 1.76804,1.26565c0.24669,0.76056 -0.03135,1.56539 -0.63427,2.02282l-1.35426,1.07825c-2.38419,2.23868 -6.57995,4.20993 -9.49422,1.55016c-1.30165,0.34781 -3.96919,0.95049 -4.2573,1.0023c-2.47129,0.44447 -5.41124,1.54405 -8.149,1.45677c-0.08331,0.68438 -0.17746,1.37038 -0.13006,2.05116c0.14347,2.06058 0.96086,3.82538 1.23338,5.81493c0.17085,1.24724 -0.06744,2.51627 -0.10262,3.77525c0.15768,0.48616 0.52808,1.62811 0.52808,1.62811c0.31181,0.96135 -0.21474,1.99347 -1.1761,2.30529c-0.18777,0.0609 -0.37824,0.08982 -0.56551,0.08976c1.58285,1.9107 3.53109,3.502 5.69185,4.6013c0,0 1.63008,0.83164 0.79845,2.46172c-0.83163,1.63008 -2.46171,0.79845 -2.46171,0.79845c-5.79446,-2.96381 -10.02631,-8.58739 -11.38494,-14.95334c-0.21669,-0.29586 -0.30585,-0.57075 -0.30585,-0.57075l-0.35143,-1.1642c-0.47154,-3.21372 0.29667,-6.42556 -0.21192,-9.55036c0,0 -0.08425,-0.56323 0.15545,-1.1083c-0.01711,-0.0325 -0.03433,-0.06473 -0.05171,-0.09665z"/><path d="M87.95207,340.28119c-0.39806,2.06283 -2.22475,1.36616 -2.22475,1.36616l-1.25445,-0.48675c-0.75845,-0.38835 -1.5838,-0.61285 -2.27536,-1.16505c-7.46022,-5.95696 -5.76269,-16.74108 -7.24631,-25.05729c0,0 -0.31879,-1.78693 0.99227,-2.27361c0.18022,-0.28431 0.46679,-0.52894 0.9115,-0.67318c1.74069,-0.56459 2.42274,1.53823 2.42274,1.53823l0.11367,0.35047c1.41252,4.35493 2.78912,9.57648 5.46306,13.27957c0.47028,0.6513 1.20751,0.97012 1.72391,1.57329c1.944,2.2706 4.00802,5.0089 6.93034,5.55029c0.50456,0.09347 3.13414,-0.82024 3.71569,-1.01013c0,0 1.7407,-0.56459 2.42274,1.53823c0.68205,2.10282 -1.05865,2.66741 -1.05865,2.66741c-0.96915,0.31247 -2.39491,0.8221 -3.64279,1.04257c1.00058,1.19464 0.28639,2.60614 0.28639,2.60614c-0.95709,1.8693 -3.08483,3.68099 -3.75843,5.66756c-1.61126,4.75187 0.6101,12.98262 3.40163,17.105l0.55558,0.4276c0,0 1.53306,1.43648 0.46305,3.07268c-1.07001,1.6362 -2.60308,0.19973 -2.60308,0.19973l-1.28693,-1.29883c-3.60616,-5.5794 -6.17486,-15.30685 -4.00603,-21.55044c0.7944,-2.2869 2.88954,-3.99029 3.95755,-6.13128c0,0 0.10131,-0.20022 0.29779,-0.41906c-0.71776,-0.35925 -1.41211,-0.87146 -2.12774,-1.23712c-4.83914,-2.47269 -8.04634,-6.94469 -10.45706,-12.05528c0.33377,5.00234 1.37579,10.20047 5.91408,12.26305l0.94095,0.35054c0,0 1.82667,0.69667 1.42862,2.7595z"/><path d="M84.7374,342.29783c-0.07553,-0.78107 -0.12896,-1.56277 -0.14411,-2.3403c-0.00808,-0.41481 -0.04435,-0.84538 -0.04596,-1.26473c-0.28127,0.06096 -0.57059,0.10363 -0.86097,0.11833c0.07571,1.25185 0.08096,2.49608 0.10558,3.74521c0.23379,-0.17594 0.54136,-0.28556 0.94546,-0.25851zM79.77312,335.19975c-1.01089,-2.00392 -2.19487,-4.27063 -2.0449,-6.45315c0.01217,-0.1772 0.03232,-0.35124 0.05934,-0.52257l-0.05886,-0.01622l0.34131,-3.07684c0.07171,-0.76757 0.50554,-1.41659 1.17746,-1.63452c0.90945,-0.29498 1.92927,0.30541 2.35566,1.3543l0.9769,2.33508c0.988,2.0457 1.72506,4.4726 2.86517,6.27924c0.53539,-0.27563 1.06331,-0.41826 1.55028,-0.04406c0.67921,0.52194 0.9545,1.44755 1.12806,2.42814c0.42835,0.15549 0.89858,0.24668 1.41852,0.26159c0.89455,0.02565 3.24543,-0.93175 3.81414,-1.04946c1.5697,-0.32488 3.17523,-0.49024 4.76534,-0.72301c0.41351,-0.06053 0.9172,0.1976 1.26249,-0.04473c0.02096,-0.01471 0.04147,-0.02996 0.06153,-0.04573c-0.08132,-0.87978 -0.08264,-1.75904 -0.12459,-2.54906c0,0 -0.09571,-2.1536 1.74495,-2.04572c0.15424,-0.24606 0.3503,-0.441 0.60785,-0.56152c0.76484,-0.35786 1.44256,1.09105 2.19643,1.82694l1.32575,0.14872c0.51144,0.04353 1.00909,0.33121 1.37353,0.78724c0.10505,0.00721 0.21033,0.01621 0.31581,0.0269l-0.01668,-0.37542l3.69104,0.25572c0.797,0.03355 1.57352,0.66591 1.88033,1.61184c0.298,0.91878 0.0636,1.85813 -0.52333,2.36486l-1.31526,1.19853c-2.29472,2.5145 -6.45322,4.60065 -9.58759,1.26229c-1.30619,0.33381 -3.98976,0.88707 -4.28041,0.93104c-2.49309,0.37725 -5.42413,1.50431 -8.22143,1.23347c-0.04318,0.80811 -0.09731,1.61751 -0.0074,2.42932c0.27213,2.45722 1.21343,4.60411 1.61283,6.98479c0.25038,1.49245 0.08485,2.9858 0.12584,4.47963c0.19049,0.5873 0.63793,1.96682 0.63793,1.96682c0.37668,1.16135 -0.09729,2.3556 -1.05865,2.66741c-0.18777,0.0609 -0.38024,0.08363 -0.57122,0.07213c1.73085,2.367 3.81483,4.37678 6.08549,5.81493c0,0 1.71313,1.08769 0.96456,2.97384c-0.74858,1.88614 -2.46171,0.79845 -2.46171,0.79845c-6.09016,-3.87547 -10.74915,-10.81597 -12.52333,-18.46316c-0.23905,-0.36479 -0.34675,-0.69686 -0.34675,-0.69686l-0.42947,-1.40479c-0.67709,-3.84743 -0.08976,-7.61695 -0.7992,-11.36099c0,0 -0.12031,-0.67439 0.09086,-1.30743c-0.01943,-0.03967 -0.03896,-0.07902 -0.05864,-0.11799z"/><path d="M68.27563,346.30194c-0.24703,2.5285 -2.1744,1.52138 -2.1744,1.52138l-1.32424,-0.70194c-0.80799,-0.54111 -1.67179,-0.88414 -2.424,-1.62333c-8.11449,-7.97415 -7.21627,-21.22261 -9.38702,-31.65733c0,0 -0.46644,-2.24215 0.83982,-2.74361c0.16258,-0.3387 0.43731,-0.61986 0.88201,-0.76409c1.74069,-0.56459 2.60426,2.09788 2.60426,2.09788l0.14393,0.44375c1.78845,5.51397 3.60775,12.10044 6.63868,16.90412c0.53307,0.84487 1.31387,1.29804 1.89047,2.08679c2.1706,2.96923 4.50079,6.52816 7.53943,7.42817c0.52464,0.1554 3.14948,-0.77297 3.73093,-0.96315c0,0 1.7407,-0.56458 2.60427,2.09789c0.86357,2.66247 -0.87713,3.22707 -0.87713,3.22707c-0.96929,0.31202 -2.39137,0.833 -3.65365,1.0091c1.11924,1.56047 0.4972,3.25609 0.4972,3.25609c-0.83533,2.2447 -2.87547,4.32646 -3.41097,6.73881c-1.28093,5.77032 1.63958,16.15662 4.82382,21.48975l0.60305,0.57397c0,0 1.68409,1.90213 0.71478,3.84878c-0.96932,1.94664 -2.65342,0.04451 -2.65342,0.04451l-1.42097,-1.71211c-4.1333,-7.20464 -7.52686,-19.4752 -5.79075,-27.0529c0.6359,-2.77556 2.65109,-4.7255 3.57891,-7.29865c0,0 0.08824,-0.24053 0.2726,-0.49672c-0.764,-0.50183 -1.51596,-1.19161 -2.27827,-1.70122c-5.15487,-3.44611 -8.7926,-9.24551 -11.66357,-15.77507c0.73293,6.23301 2.20737,12.76431 7.02173,15.67805l0.99216,0.50844c0,0 1.92737,1.00711 1.68035,3.5356z"/><path d="M65.13702,348.55314c-0.13845,-0.97507 -0.25429,-1.94917 -0.33055,-2.91513c-0.04068,-0.51532 -0.11151,-1.05242 -0.14591,-1.57287c-0.28363,0.05368 -0.57695,0.08402 -0.87354,0.07957c0.1754,1.55922 0.27797,3.1035 0.40078,4.65534c0.22597,-0.20005 0.53277,-0.31204 0.94922,-0.24691zM59.49257,339.35802c-1.19302,-2.56545 -2.58404,-5.47049 -2.60074,-8.16687c-0.00136,-0.21891 0.0057,-0.4333 0.02003,-0.64377l-0.06161,-0.02472l0.10964,-3.79112c0.01357,-0.9468 0.4077,-1.71823 1.07962,-1.93617c0.90945,-0.29498 2.002,0.52964 2.52111,1.86443l1.18404,2.97369c1.17281,2.61549 2.11811,5.68439 3.4282,8.01514c0.52743,-0.30018 1.05757,-0.43594 1.58612,0.06642c0.73719,0.70068 1.09174,1.87068 1.34629,3.10098c0.45135,0.22639 0.94061,0.37627 1.47489,0.43538c0.91921,0.10169 3.25487,-0.90263 3.8288,-1.00427c1.58409,-0.28051 3.21738,-0.3603 4.82959,-0.52492c0.41925,-0.04281 0.95587,0.31683 1.29099,0.04311c0.02035,-0.01662 0.04017,-0.03395 0.05952,-0.05194c-0.1521,-1.09799 -0.22213,-2.18909 -0.32685,-3.17263c0,0 -0.26634,-2.67969 1.62937,-2.40207c0.13892,-0.29327 0.32473,-0.51984 0.5794,-0.64926c0.75627,-0.3843 1.56432,1.46646 2.39477,2.43845l1.37096,0.28809c0.5278,0.09395 1.06052,0.48979 1.46982,1.08409c0.10828,0.01715 0.21693,0.03655 0.3259,0.05805l-0.04643,-0.46713l3.80452,0.60559c0.81981,0.10389 1.66539,0.94917 2.05386,2.14686c0.37732,1.16331 0.21034,2.31055 -0.35188,2.89347l-1.25495,1.38442c-2.15646,2.94079 -6.25736,5.2045 -9.73189,0.81741c-1.3132,0.31218 -4.02155,0.78906 -4.31612,0.82093c-2.52678,0.27336 -5.44405,1.44291 -8.33337,0.88835c0.01885,0.99934 0.02656,1.99941 0.18215,3.01374c0.47094,3.07019 1.60379,5.8076 2.19925,8.79278c0.37329,1.8714 0.32022,3.71145 0.47892,5.5682c0.24119,0.7436 0.80772,2.49027 0.80772,2.49027c0.47694,1.47044 0.08423,2.91525 -0.87713,3.22707c-0.18777,0.0609 -0.38334,0.07407 -0.58006,0.04489c1.95958,3.07219 4.25333,5.72872 6.69384,7.69055c0,0 1.84149,1.48343 1.22127,3.7653c-0.62022,2.28188 -2.46171,0.79845 -2.46171,0.79845c-6.54714,-5.2844 -11.86626,-14.26015 -14.28269,-23.88743c-0.2736,-0.4713 -0.40997,-0.89175 -0.40997,-0.89175l-0.55007,-1.77663c-0.99475,-4.82681 -0.68696,-9.45819 -1.70682,-14.15926c0,0 -0.17603,-0.84619 -0.00895,-1.61517c-0.02303,-0.05074 -0.04612,-0.10109 -0.06934,-0.15098z"/><path d="M64.76614,390.76179c-0.53213,2.55345 -2.46171,0.79845 -2.46171,0.79845c-6.86076,-6.25132 -12.63291,-16.6238 -15.49009,-27.60996c-0.2973,-0.5444 -0.45335,-1.02551 -0.45335,-1.02551l-0.63284,-2.03181c-1.09844,-4.98063 -1.10686,-9.73476 -2.01478,-14.56785c-5.83206,-9.30841 -5.8366,-22.15733 -8.16555,-32.63598c0,0 -0.56776,-2.55455 0.7352,-3.06617c0.15047,-0.37603 0.41707,-0.68225 0.86177,-0.82649c1.74069,-0.56459 2.72883,2.48197 2.72883,2.48197l0.16469,0.50776c2.04644,6.30939 4.16957,13.83257 7.44547,19.39156c0.57616,0.97771 1.38686,1.52309 2.00478,2.4392c2.32611,3.44868 4.83896,7.57078 7.95743,8.7169c0.53843,0.19789 3.16,-0.74052 3.74138,-0.93092c0,0 1.41687,-0.45956 2.41966,1.68782c0.00835,-0.00815 0.0166,-0.01645 0.02476,-0.0249c-0.20067,-1.24775 -0.31785,-2.48422 -0.46565,-3.60056c0,0 -0.38345,-3.04073 1.55005,-2.64662c0.12842,-0.32566 0.30718,-0.57394 0.55987,-0.70947c0.75038,-0.40244 1.64789,1.7241 2.53089,2.85811l1.40198,0.38373c0.53902,0.12857 1.09582,0.59862 1.5359,1.28782c0.11049,0.02398 0.22145,0.05049 0.33284,0.07942l-0.06684,-0.53006l3.8824,0.84571c0.83546,0.15215 1.72845,1.14357 2.17295,2.51402c0.43175,1.33113 0.31105,2.62104 -0.23422,3.25624l-1.21358,1.51199c-2.06157,3.23333 -6.12295,5.61891 -9.83092,0.5121c-1.31802,0.29733 -4.04337,0.72179 -4.34064,0.74534c-0.44222,0.03504 -0.89521,0.10007 -1.35733,0.1797c0.38091,1.32815 0.05495,2.43099 0.05495,2.43099c-0.75177,2.50232 -2.73179,4.76944 -3.17251,7.47397c-1.05423,6.46926 2.34608,18.33485 5.79983,24.49889l0.63563,0.67441c0,0 0.74234,0.92254 1.02943,2.15655c0.33205,0.7265 0.55798,1.67636 0.32931,2.77366z"/><path d="M154.11433,311.45752c3.1934,-1.03578 6.62183,0.71333 7.65761,3.90673c1.03578,3.1934 -0.71333,6.62183 -3.90673,7.65761c-3.1934,1.03578 -6.62183,-0.71333 -7.65761,-3.90673c-1.03578,-3.1934 0.71333,-6.62183 3.90673,-7.65761z"/><path d="M106.6488,333.54066c-0.93772,-2.89109 1.95337,-3.8288 1.95337,-3.8288l1.614,-0.5235c3.14446,-1.0199 6.17118,-1.81333 9.41736,-2.43523c0,0 2.98507,-0.57188 3.55695,2.41319c0.57188,2.98507 -2.41319,3.55695 -2.41319,3.55695c-3.00539,0.57578 -5.77381,1.3028 -8.68569,2.24726l-1.614,0.5235c0,0 -2.89109,0.93772 -3.8288,-1.95337z"/></g><path d="M396.09105,355.2365l-67.96328,-50.04281c-0.0701,-2.06315 -0.15204,-3.98206 -0.21071,-5.66505l70.80473,52.13504z" fill="#9a4a00" stroke-width="0"/><g fill="#5d9c5d" stroke-width="0.5"><path d=""/><path d=""/><path d=""/><path d=""/><path d=""/><path d=""/><path d=""/><path d=""/><path d="M342.52579,311.07391l0.42273,1.18508c0.1883,0.75894 0.53493,1.49546 0.56492,2.27684c0.32351,8.42919 -8.43376,11.98772 -13.47074,16.8813c0,0 -1.08232,1.0515 -2.23614,0.26199c-0.15318,-0.00509 -0.31514,-0.03391 -0.48455,-0.09423c2.49909,-4.9416 5.90924,-10.73467 9.54514,-16.34741c-0.27566,2.81114 -1.2548,5.49264 -2.59175,8.05129c3.37313,-2.51359 6.45109,-5.66063 5.13752,-10.08407l-0.32751,-0.88234c0,0 -0.04653,-0.12822 -0.07917,-0.32734c0.47347,-0.70472 0.94846,-1.40321 1.42353,-2.09328c1.5323,-0.38131 2.09603,1.17218 2.09603,1.17218z"/><path d="M356.30394,295.1209c-1.7749,5.29255 -7.15454,11.65794 -12.95352,12.80534c-0.52196,0.10328 -1.06698,0.1302 -1.62468,0.1142c1.13741,-1.61479 2.26774,-3.16983 3.37112,-4.63518c2.84489,-1.55898 5.47409,-4.60194 6.91155,-7.43663c1.37208,-0.85573 2.85322,-1.47239 4.39369,-1.96735z"/><path d="M341.57282,318.56532c-0.8122,1.68208 -1.70601,3.61592 -3.35936,4.4851c-0.13423,0.07057 -0.27111,0.13359 -0.41028,0.19008l0.02456,0.05261l-2.41067,1.12537c-0.59312,0.29109 -1.32398,0.24998 -1.89281,-0.16886c-0.76989,-0.56689 -0.96716,-1.62266 -0.47889,-2.42402l1.06997,-1.80531c0.72395,-1.42338 1.75313,-2.83161 2.41144,-4.25588c1.54965,-2.40637 3.14457,-4.78561 4.73104,-7.05688c0.13082,-0.09091 0.25813,-0.1864 0.38071,-0.28798c1.59046,-1.31796 2.54769,-3.01099 4.00519,-4.39239c0.91371,-0.86599 2.08364,-1.41229 3.12701,-2.11774c0.30304,-0.41156 1.01486,-1.37829 1.01486,-1.37829c0.59924,-0.81384 1.74479,-0.98781 2.55863,-0.38856c0.15895,0.11704 0.2935,0.25494 0.40264,0.40711c0.45816,-1.74682 0.66598,-3.55224 0.60379,-5.32958c1.14102,-0.56823 2.34085,-1.00921 3.57458,-1.38175c0.57353,6.07891 -1.53047,12.29238 -5.65108,16.82278c-0.11403,0.34855 -0.28538,0.58126 -0.28538,0.58126l-0.74095,0.96429c-2.33604,2.25682 -5.39337,3.50532 -7.63557,5.74041c0,0 -0.40847,0.39684 -0.99107,0.51989c-0.01643,0.03285 -0.03257,0.06563 -0.04837,0.09836zM343.59944,311.54235c-0.51229,0.4105 -1.03862,0.80426 -1.5855,1.16669c-0.29175,0.19335 -0.57745,0.41552 -0.87643,0.60594c0.21646,0.18898 0.42478,0.39241 0.61374,0.60928c0.84894,-0.62302 1.73573,-1.18838 2.61413,-1.77084c-0.26953,-0.10057 -0.53695,-0.28784 -0.76594,-0.61106z"/><path d="M355.63365,321.06261c1.90802,-0.87931 2.40704,1.01096 2.40704,1.01096l0.33594,1.30296c0.12669,0.84262 0.42551,1.64406 0.38008,2.52788c-0.49009,9.53415 -10.24131,14.44257 -16.13276,20.4966c0,0 -1.26592,1.30085 -2.42571,0.51944c-0.33606,0.01935 -0.7019,-0.07085 -1.07837,-0.34805c-1.47359,-1.08504 -0.16282,-2.86518 -0.16282,-2.86518l0.21846,-0.29669c2.71459,-3.68668 6.15419,-7.84946 7.60373,-12.18093c0.25495,-0.76181 0.08414,-1.54665 0.2731,-2.31787c0.71131,-2.90324 1.73262,-6.17668 0.46864,-8.86655c-0.21824,-0.46443 -2.49373,-2.06809 -2.98707,-2.42985c0,0 -1.47359,-1.08504 -0.16283,-2.86519c1.31076,-1.78015 2.78436,-0.69512 2.78436,-0.69512c0.81891,0.6052 2.06423,1.46641 2.97092,2.3517c0.3872,-1.50944 1.95037,-1.75215 1.95037,-1.75215c2.07673,-0.3123 4.78917,0.36009 6.79589,-0.2509c4.80006,-1.46147 10.19194,-8.06504 11.91357,-12.73652l0.02348,-0.70069c0,0 0.27322,-2.08305 2.2264,-2.16769c1.95318,-0.08465 1.67996,1.9984 1.67996,1.9984l-0.3049,1.80282c-2.43042,6.18282 -8.83577,13.94123 -15.17285,15.81943c-2.32114,0.68795 -4.9266,-0.0211 -7.28873,0.35949c0,0 -0.22174,0.03442 -0.51408,0.00239c0.1266,0.7926 0.11531,1.65536 0.23546,2.44997c0.81249,5.37321 -0.95084,10.58622 -3.69736,15.52448c3.86952,-3.18772 7.48517,-7.06503 6.5149,-11.9547l-0.26382,-0.96884c0,0 -0.49901,-1.89026 1.409,-2.76957z"/><path d="M356.27391,330.67023c-1.03868,1.98966 -2.18996,4.27316 -4.05057,5.42381c-0.15106,0.09342 -0.3042,0.17853 -0.45916,0.25646l0.02114,0.05727l-2.69876,1.51663c-0.66541,0.38927 -1.44564,0.41521 -2.01447,-0.00363c-0.7699,-0.56689 -0.87671,-1.74549 -0.27315,-2.70345l1.32754,-2.15512c1.08597,-1.99542 2.62796,-4.00922 3.43103,-5.98883c-0.53609,-0.27427 -0.95976,-0.62002 -0.93967,-1.23383c0.02804,-0.85614 0.61954,-1.61946 1.31502,-2.33219c-0.12342,-0.43866 -0.32349,-0.87387 -0.61453,-1.30499c-0.50072,-0.74172 -2.6492,-2.09348 -3.07642,-2.4869c-1.17915,-1.08588 -2.24958,-2.29386 -3.36579,-3.45003c-0.29026,-0.30066 -0.37423,-0.86038 -0.77242,-0.99963c-0.02418,-0.00845 -0.04852,-0.01622 -0.07303,-0.02333c-0.66736,0.57902 -1.38094,1.09274 -1.99833,1.58742c0,0 -1.69388,1.33339 -2.67941,-0.22494c-0.28984,0.01816 -0.56252,-0.02747 -0.8106,-0.16646c-0.73668,-0.41274 0.04535,-1.80813 0.20369,-2.84966l-0.36712,-0.65516c1.65684,-2.49247 3.34025,-4.91979 4.98795,-7.18818c2.03529,1.11352 3.52734,3.03667 2.95971,5.91909c1.03276,0.86658 3.04688,2.72426 3.25207,2.93475c1.76006,1.80554 4.38465,3.52973 5.79554,5.9603c0.68172,-0.43608 1.37087,-0.86401 1.978,-1.41037c1.83769,-1.65374 3.0331,-3.67022 4.73441,-5.38274c1.06655,-1.07357 2.37633,-1.80978 3.56608,-2.71404c0.36609,-0.49718 1.22599,-1.66502 1.22599,-1.66502c0.72391,-0.98315 1.97051,-1.29437 2.78436,-0.69512c0.15895,0.11704 0.28965,0.26017 0.39165,0.42203c0.9139,-2.78628 1.3317,-5.65116 1.17623,-8.33445c0,0 -0.11513,-2.026 1.8537,-2.51752c1.96883,-0.49152 2.08397,1.53447 2.08397,1.53447c0.4022,7.20746 -2.52019,15.03922 -7.69869,20.93926c-0.157,0.4069 -0.36399,0.68802 -0.36399,0.68802l-0.89092,1.16796c-2.73106,2.7933 -6.13601,4.5139 -8.76421,7.27321c0,0 -0.47777,0.49094 -1.11519,0.68846c-0.02089,0.03892 -0.04147,0.07773 -0.06167,0.11643zM359.14633,322.49857c-0.59054,0.51676 -1.19447,1.01592 -1.81734,1.48156c-0.33229,0.24841 -0.66096,0.52893 -1.00072,0.77473c0.21352,0.19297 0.41686,0.40315 0.59811,0.6305c0.97292,-0.79139 1.98073,-1.52109 2.98122,-2.26939c-0.27925,-0.08737 -0.54763,-0.27333 -0.76127,-0.61741z"/><path d="M371.99731,333.53828c2.19829,-1.27352 2.50379,0.87956 2.50379,0.87956l0.2018,1.48513c0.03147,0.97194 0.25641,1.87372 0.09442,2.91584c-1.74748,11.24181 -13.03481,18.23643 -20.24681,26.08389c0,0 -1.54967,1.68621 -2.71868,0.91732c-0.36997,0.06539 -0.75856,0.00611 -1.13503,-0.27109c-1.47359,-1.08504 0.18603,-3.33896 0.18603,-3.33896l0.2766,-0.37566c3.43706,-4.66788 7.72747,-9.98613 9.86305,-15.24932c0.37561,-0.92568 0.28855,-1.82425 0.59318,-2.75259c1.14679,-3.49467 2.67962,-7.46281 1.63918,-10.45628c-0.17964,-0.51685 -2.46426,-2.10811 -2.95778,-2.46962c0,0 -1.47359,-1.08504 0.18603,-3.33897c1.65962,-2.25393 3.13321,-1.16889 3.13321,-1.16889c0.81864,0.60558 2.07103,1.45718 2.95005,2.38004c0.61523,-1.81913 2.35551,-2.30238 2.35551,-2.30238c2.31073,-0.63009 5.19152,-0.18634 7.46363,-1.15776c5.43489,-2.32364 12.17041,-10.75201 14.64675,-16.44845l0.11471,-0.82459c0,0 0.56348,-2.47725 2.71017,-2.8247c2.14669,-0.34745 1.58321,2.1298 1.58321,2.1298l-0.56251,2.15269c-3.44349,7.55867 -11.43405,17.46996 -18.60273,20.47756c-2.62574,1.10163 -5.38489,0.60129 -8.01639,1.34773c0,0 -0.24686,0.06855 -0.56249,0.06814c0.03774,0.91329 -0.08425,1.92639 -0.05382,2.84285c0.20572,6.19726 -2.38503,12.53399 -6.01605,18.67349c4.63665,-4.22956 9.0833,-9.23546 8.6436,-14.84568l-0.16539,-1.10251c0,0 -0.30551,-2.15307 1.89277,-3.42658z"/><path d="M375.65621,334.77567c-0.71147,0.68099 -1.43533,1.34304 -2.17565,1.96819c-0.39495,0.3335 -0.79002,0.70419 -1.1928,1.03559c0.20898,0.19914 0.40464,0.41975 0.57395,0.66331c1.16451,-1.05159 2.35935,-2.03529 3.54853,-3.03986c-0.29428,-0.06696 -0.56414,-0.25092 -0.75404,-0.62723zM371.47663,344.7226c-1.3887,2.46502 -2.93786,5.2889 -5.11878,6.87456c-0.17707,0.12874 -0.35536,0.248 -0.53471,0.35907l0.01584,0.06447l-3.144,2.1213c-0.77713,0.541 -1.63367,0.67057 -2.20249,0.25173c-0.7699,-0.56689 -0.73695,-1.93531 0.04483,-3.1353l1.72561,-2.69574c1.44115,-2.47778 3.38331,-5.03507 4.51308,-7.45836c-0.5514,-0.25349 -0.97078,-0.60505 -0.87081,-1.32736c0.13945,-1.00745 0.8833,-1.97766 1.73443,-2.90178c-0.07922,-0.49869 -0.24271,-0.98358 -0.50619,-1.45211c-0.45332,-0.8061 -2.63106,-2.11813 -3.04826,-2.52516c-1.15149,-1.12344 -2.16858,-2.40387 -3.24231,-3.61772c-0.27922,-0.31566 -0.2999,-0.96132 -0.71767,-1.07399c-0.02537,-0.00684 -0.051,-0.01284 -0.0769,-0.01807c-0.80338,0.76375 -1.649,1.45679 -2.38702,2.11531c0,0 -2.0218,1.77875 -2.90153,0.07672c-0.31926,0.05812 -0.61167,0.03927 -0.8653,-0.09218c-0.75315,-0.39036 0.27935,-2.12593 0.58486,-3.36733l-0.56526,-1.28179c-0.23139,-0.48358 -0.2204,-1.14718 0.0238,-1.82621c-0.0492,-0.09796 -0.09679,-0.19755 -0.14285,-0.29862l-0.35245,0.31008l-1.72618,-3.44405c-0.39358,-0.72662 -0.19984,-1.90644 0.54672,-2.92035c0.72513,-0.98481 1.75456,-1.51804 2.55594,-1.40112l1.85645,0.21241c3.64652,0.03741 7.87666,2.04933 6.33817,7.43003c1.01927,0.8849 2.98579,2.80723 3.18343,3.02798c1.6953,1.89349 4.34637,3.58171 5.58042,6.25245c0.80091,-0.59797 1.60893,-1.18732 2.3423,-1.90512c2.21978,-2.17266 3.78328,-4.68904 5.86139,-6.9133c1.30277,-1.39438 2.82865,-2.42408 4.24462,-3.63557c0.46352,-0.6295 1.55227,-2.10815 1.55227,-2.10815c0.91658,-1.24481 2.31937,-1.76813 3.13321,-1.16889c0.15895,0.11704 0.28368,0.26825 0.37466,0.4451c1.35347,-3.38325 2.17441,-6.79566 2.34537,-9.92226c0,0 0.13155,-2.36101 2.34705,-3.18753c2.21551,-0.82653 2.08397,1.53447 2.08397,1.53447c-0.47604,8.4002 -4.66707,17.9549 -11.07983,25.53119c-0.22339,0.49707 -0.48547,0.853 -0.48547,0.853l-1.1227,1.48275c-3.34154,3.62239 -7.28373,6.07261 -10.50847,9.6421c0,0 -0.58485,0.63638 -1.30702,0.94898c-0.02779,0.04829 -0.05524,0.09641 -0.08224,0.14436z"/><path d="M410.16461,310.46771c2.38479,-1.05643 2.08397,1.53447 2.08397,1.53447c-1.07876,9.21875 -6.14043,19.95586 -13.40022,28.68252c-0.26895,0.55895 -0.56885,0.96624 -0.56885,0.96624l-1.28176,1.69877c-3.40605,3.79632 -7.26361,6.57501 -10.66087,10.13052c-4.16224,10.16538 -14.59862,17.66051 -21.75407,25.66211c0,0 -1.74439,1.95067 -2.91974,1.19038c-0.39324,0.09699 -0.79746,0.05894 -1.17392,-0.21826c-1.47359,-1.08504 0.42544,-3.66411 0.42544,-3.66411l0.31651,-0.42985c3.93287,-5.34124 8.80717,-11.45247 11.41355,-17.35507c0.45842,-1.03814 0.42883,-2.01477 0.81285,-3.05091c1.44565,-3.90055 3.32953,-8.34544 2.4425,-11.54726c-0.15315,-0.55282 -2.44404,-2.13557 -2.93769,-2.49691c0,0 -1.19945,-0.88319 -0.03949,-2.94991c-0.01149,-0.00203 -0.02305,-0.00389 -0.03466,-0.00559c-0.89672,0.89052 -1.83297,1.70664 -2.65377,2.47758c0,0 -2.24686,2.08439 -3.05397,0.28375c-0.33945,0.08554 -0.64539,0.08506 -0.90283,-0.04121c-0.76446,-0.375 0.43995,-2.34403 0.84645,-3.72259l-0.50565,-1.36276c-0.20982,-0.51289 -0.15256,-1.23931 0.15079,-1.99868c-0.04494,-0.10375 -0.08809,-0.20935 -0.12953,-0.31671l-0.39168,0.36335l-1.5765,-3.64732c-0.36349,-0.76748 -0.07867,-2.07101 0.77559,-3.23118c0.82974,-1.12687 1.9481,-1.78088 2.78207,-1.70823l1.93596,0.10442c3.82888,-0.21025 8.13497,1.69851 6.14786,7.6885c1.01002,0.89746 2.94386,2.86418 3.13631,3.09196c0.28631,0.33885 0.60324,0.66897 0.93738,0.99799c0.85696,-1.08382 1.943,-1.46201 1.943,-1.46201c2.47131,-0.84818 5.46764,-0.56134 7.92189,-1.78013c5.87057,-2.91533 13.52817,-12.596 16.52244,-18.99585l0.17733,-0.90962c0,0 0.31669,-1.14099 1.15187,-2.09371c0.39664,-0.69335 1.03662,-1.43071 2.06145,-1.8847z"/><path d=""/><path d=""/></g><path d="M28.68869,396.21431c-1.98443,1.7487 -5.45439,3.36989 -8.92434,-1.88344c-0.31487,-0.4767 -0.59235,-0.95339 -0.83577,-1.42841c-0.17643,0.16312 -0.35402,0.3235 -0.5329,0.48085c-8.21506,7.22667 -18.45398,10.15823 -27.83817,8.47863c-1.58341,-0.28339 -3.10387,-1.18049 -4.69043,-1.42022c-2.72204,-0.41129 -5.58186,0.67651 -8.19928,-0.52742c-2.25573,-1.03758 -3.92042,-3.96593 -5.88064,-5.9489c0,0 -6,-6.81278 -1.5,-15.89647c4.5,-9.08371 10.5,-2.27093 10.5,-2.27093c0.54135,0.85747 0.85668,2.33312 1.62405,2.5724c1.61484,0.50356 3.28828,-0.68008 4.93393,-0.52742c6.278,0.58238 11.92796,3.03889 18.1716,-0.73427c5.32611,-3.21867 9.91283,-8.7402 14.77491,-13.34409c3.73455,-3.53622 7.8994,-6.09335 11.79981,-8.96598c2.20126,-1.62122 3.84645,-4.85379 6.16562,-6.03984c3.33445,-1.70527 6.96964,-1.49677 10.46178,-2.16059c2.74549,-0.52188 5.47682,-1.43245 8.24372,-1.47548c7.02852,0 14.7635,-1.24018 21.67816,0.10974c2.25776,0.44076 4.3167,2.31561 6.5666,2.84043c1.81349,0.423 3.68021,-0.32088 5.50463,-0.02468c7.03365,1.14197 13.99019,5.51695 20.92289,7.16262c3.40463,0.8082 8.78395,-0.14661 11.93184,-0.14661c10.00625,0 20.01251,0 30.01876,0c5.76273,0.00939 11.51593,-0.76355 17.26385,-1.38855c5.08508,-0.55292 10.17118,-1.19323 15.26819,-1.35807c0.71483,-0.02312 1.40285,1.14733 2.07936,0.79702c0.85011,-0.4402 1.04843,-2.52534 1.91809,-2.86695c2.25956,-0.88754 4.71991,0.18712 6.99065,-0.63243c2.3165,-0.83607 4.26873,-3.31408 6.5666,-4.26065c1.23576,-0.50905 2.59177,0.39315 3.84203,-0.02701c1.6439,-0.55246 3.05601,-2.22688 4.69043,-2.84044c0.98078,-0.36818 2.03286,0.17818 3.0312,-0.05825c3.1207,-0.73906 6.23183,-3.5383 9.38086,-4.26065c2.48559,-0.57018 5.10722,0.03768 7.50704,-1.09611c1.84088,-0.86971 3.52073,-2.51525 5.40923,-3.10628c5.48767,-1.71746 12.68062,-0.22186 18.28215,-0.1198c2.17707,0.93631 4.45893,1.43154 6.53121,2.80896c0.55244,0.36721 0.49681,1.87004 1.05106,2.23093c0.438,0.28519 0.89902,-0.8292 1.36244,-0.65944c4.24848,1.55638 8.42141,4.78053 12.67686,6.89619h0.91421c1.44566,0 2.79579,0.61924 3.94097,1.69208c1.45019,0.05827 2.947,-0.51828 4.34878,0.03188c2.12771,0.83508 4.08561,2.52483 5.97218,4.23248c0.86207,0.78033 1.22284,2.69178 2.18107,3.14754c1.12317,0.53418 2.3509,-0.64473 3.52009,-0.43606c2.02356,0.36115 4.20108,2.42365 6.28161,2.77889c1.97195,0.3367 4.02487,-0.34233 5.94744,0.40213c1.00025,0.38731 1.80349,1.46479 2.65843,2.38506c2.71955,0.14049 5.4226,0.7213 8.11816,1.4031c0.6009,-0.0461 1.16151,-0.05652 1.65299,0.01386c3.14257,0.4499 5.73911,1.23098 8.3459,1.85592c2.69052,-0.04576 5.47385,-0.46427 8.00798,-0.46427c4.1694,0 8.33881,0 12.50821,0c0.16526,-0.24235 0.34946,-0.43987 0.56913,-0.5559c4.91597,-2.59614 10.78816,-0.71336 15.74005,-2.13793c0.97145,-0.27945 1.83805,-1.18179 2.81426,-1.42021c2.85659,-0.69768 5.8451,-0.0788 8.64542,-1.18169c1.79944,-0.7087 3.38425,-2.47985 5.20894,-3.02069c1.82479,-0.54087 3.72461,0.06724 5.57707,-0.17631c2.2028,-0.28961 4.36141,-1.17584 6.5666,-1.42022c0.70886,-0.07857 1.43358,0.78609 2.11063,0.45864c1.07397,-0.51941 1.71482,-2.4624 2.81426,-2.84044c4.88359,-1.67914 9.51041,0.02461 14.39021,-1.82234c10.08719,-0.15305 20.54713,-1.20739 30.50072,1.54692c7.03435,1.94651 13.38208,7.99911 20.39751,9.87637c2.62768,0.70314 5.5521,-0.52465 7.96609,1.19693c1.3609,0.97055 1.71695,3.82174 2.88969,5.24814c0.45766,0.55665 1.33633,-0.25544 1.74261,0.38612c2.86065,4.51734 7.85111,8.3766 7.76866,14.63338c-0.07992,6.06475 -4.85323,9.91926 -8.13799,13.39281c-1.36581,1.4443 -3.32256,0.40338 -4.98764,0.48721c-1.85005,0.09314 -6.37585,-0.03844 -8.42106,-0.08507c-6.77664,-2.45058 -13.79022,-4.5259 -20.6379,-5.68086c-1.59491,-0.269 -3.23127,0.37385 -4.81432,-0.02468c-4.86959,-1.22591 -8.86484,-3.43139 -13.77007,-4.20616c-5.54614,-0.876 -11.49941,0.05526 -17.08461,0.05526c-12.82051,0 -25.64103,0 -38.46154,0c-4.79873,0 -9.59745,0 -14.39618,0c-0.15927,0.24867 -0.3386,0.44872 -0.55733,0.5559c-5.2168,2.55629 -12.4207,0.86432 -17.87951,0.86432c-0.93787,0 -6.94805,0.04565 -7.76797,-0.14661c-1.04764,-0.24567 -2.08212,-0.61464 -3.11395,-1.0049c-0.72218,-0.07216 -1.43414,-0.18064 -2.13157,-0.33651c-1.82047,-0.40684 -3.63578,-0.95603 -5.45355,-1.45833c-1.92197,0.09289 -3.39192,0.59017 -5.90148,0.02084c-1.33324,-0.30246 -2.66237,-0.72841 -3.95782,-1.31115c-9.04331,0.13369 -18.12012,0.56878 -26.99902,-1.5293c-3.25496,-0.76915 -6.62914,0.6619 -9.88279,-0.1198c-1.66311,-0.39956 -3.12695,-1.89362 -4.69043,-2.84044c-2.4476,0.03188 -4.86961,-0.78793 -7.28775,-1.36194c-3.39781,-0.80656 -7.20691,-0.42611 -10.89159,-0.1156c-0.86421,0.3438 -1.72095,0.73004 -2.568,1.17144c-2.41792,1.26004 -4.55863,3.82619 -7.07994,4.47213c-12.25876,3.14055 -24.50703,0.17253 -36.73993,1.68105c-8.04612,0.99221 -15.29003,6.77465 -23.15439,8.47492c-4.21047,0.91028 -10.0349,0.08507 -14.04958,0.08507c-7.50469,0 -15.00938,0 -22.51407,0c-31.58224,0 -63.16448,0 -94.74672,0c-2.81426,0 -5.62852,0 -8.44278,0c-0.93809,0 -1.88716,0.21678 -2.81426,0c-0.34617,-0.08094 -0.56262,-1.08135 -0.88222,-0.86432c-0.47177,0.32036 -0.34403,1.64939 -0.80332,2.00895c-3.7479,2.93408 -5.04218,3.09027 -7.82663,3.09399z" fill="#4c79b0" stroke-width="0.5"/><path d="M514.28732,397.96523c-2.20088,2.61356 -5.91489,2.61356 -5.91489,2.61356l-6.24139,-2.1967c-1.48002,-1.74914 -3.40715,-3.20218 -4.44005,-5.24743c-0.6774,-1.34132 -0.20289,-3.00502 -0.47406,-4.48302c-0.19593,-1.06791 -0.65557,-2.0632 -1.07537,-3.07127c-2.99626,0.54265 -5.97073,-2.79567 -8.57857,-4.63222c-1.25023,-0.88046 -1.81665,-2.47005 -2.56293,-3.80472c-1.98516,-3.55033 -3.51738,-7.38972 -4.54159,-11.3263c0,0 -1.81902,-7.27607 5.45705,-9.09509c1.39408,-0.34852 2.58783,-0.36316 3.60685,-0.15907c0.51542,-4.60886 2.40655,-8.61512 8.23391,-10.062c3.80836,-0.94558 8.21472,-0.91508 11.74488,0.79831c2.6208,1.27203 3.56911,4.65167 4.86229,7.2621c2.95353,5.96207 2.39838,7.86265 2.44708,14.12716c0.01458,1.87612 0.01401,3.7524 0,5.62852c-0.00715,0.95717 -0.54317,2.05994 -0.03541,2.87136c0.6249,0.99862 1.84352,1.60661 2.27877,2.70129c0.48998,1.23233 0.24685,2.64083 0.37027,3.96124c0.58967,5.80526 3.65407,14.83691 -5.13683,14.11427z" fill="#5587c5" stroke-width="0.5"/></g></g></svg>