<svg version="1.1" xmlns="http://www.w3.org/2000/svg" xmlns:xlink="http://www.w3.org/1999/xlink" width="96.00636" height="58.38008" viewBox="0,0,96.00636,58.38008"><g transform="translate(-150.97869,-164.95516)"><g data-paper-data="{&quot;isPaintingLayer&quot;:true}" fill-rule="nonzero" stroke="none" stroke-width="0" stroke-linecap="butt" stroke-linejoin="miter" stroke-miterlimit="10" stroke-dasharray="" stroke-dashoffset="0" style="mix-blend-mode: normal"><path d="M245.01428,193.70298l-1.59478,-0.34366l1.46684,-7.12l1.59478,0.34366z" fill="#9e5400"/><path d="M163.43274,190.38164l1.6331,-0.03481l0.29276,7.25537l-1.6331,0.03481z" fill="#9e5400"/><path d="M150.98885,165.36361l1.60408,-0.40845l2.122,6.85263l-1.60409,0.40846z" fill="#9e5400"/><path d="M150.97869,173.39214l5.11329,-2.66526l11.67545,20.72407l-5.11329,2.66527z" fill="#fda824"/><path d="M238.89979,223.33524l-1.59478,-0.34366l1.46685,-7.12001l1.59477,0.34367z" fill="#9e5400"/><path d="M161.28885,197.65715l5.73718,-0.27438l1.52531,23.82143l-5.73717,0.27438z" fill="#fda824"/><path d="M242.21874,216.73377l-5.61328,-1.19443l4.76631,-23.40759l5.61328,1.19443z" fill="#fda824"/></g></g></svg>