<svg version="1.1" xmlns="http://www.w3.org/2000/svg" xmlns:xlink="http://www.w3.org/1999/xlink" width="520.1366" height="423.57208" viewBox="0,0,520.1366,423.57208"><defs><linearGradient x1="240.00002" y1="-13.15106" x2="240.00002" y2="373.15106" gradientUnits="userSpaceOnUse" id="color-1"><stop offset="0" stop-color="#3c3c3c"/><stop offset="1" stop-color="#1b1b1b"/></linearGradient><linearGradient x1="240.93814" y1="25.31048" x2="240.93814" y2="411.6126" gradientUnits="userSpaceOnUse" id="color-2"><stop offset="0" stop-color="#3c3c3c"/><stop offset="1" stop-color="#1b1b1b"/></linearGradient><linearGradient x1="240.00006" y1="-13.15106" x2="240.00006" y2="373.15106" gradientUnits="userSpaceOnUse" id="color-3"><stop offset="0" stop-color="#3c3c3c"/><stop offset="1" stop-color="#1b1b1b"/></linearGradient></defs><g transform="translate(23.10094,13.15106)"><g data-paper-data="{&quot;isPaintingLayer&quot;:true}" fill-rule="nonzero" stroke-linejoin="miter" stroke-miterlimit="10" stroke-dasharray="" stroke-dashoffset="0" style="mix-blend-mode: normal"><path d="M-17.03563,373.15106v-386.30212h514.07129v386.30212z" fill="url(#color-1)" stroke="none" stroke-width="0" stroke-linecap="butt"/><path d="M-16.09753,410.41948v-359.24578c2.03899,0.03012 4.05709,0.07216 6.04834,0.12863c2.27944,0.06464 5.987,2.10013 8.59381,2.59975c5.49574,1.05331 10.99963,2.06673 16.51652,3.003c6.50977,1.10478 14.22626,-0.11645 20.23591,0.40325c11.2177,0.97009 24.39879,4.13163 35.2299,6.76107c5.29372,1.28514 10.4855,1.45507 16.02541,2.96758c4.97078,1.35712 9.66849,3.56777 14.52744,5.28271c7.14998,2.52355 15.62096,2.12561 22.5452,4.93436c2.80196,1.13659 5.17793,3.08387 7.85107,4.44199c10.37056,5.26888 16.03268,7.61596 25.28313,15.08544c8.162,6.59058 12.00013,17.76674 19.27059,25.27659c4.29392,4.43531 10.45023,11.28705 15.71426,15.29748c2.62136,1.9971 5.70842,3.32715 8.33226,5.32101c2.75737,2.09533 4.00337,4.4805 6.68276,6.691c6.61398,5.45653 16.28482,6.77803 24.4113,7.03987c2.40125,0.07737 6.33779,3.04954 9.02626,3.75807c15.90092,4.19056 24.142,7.07339 34.93227,18.94963c1.11757,1.23004 2.84538,1.98078 3.57727,3.47286c1.54776,3.15534 6.80909,14.57205 7.10951,15.91272c0.32555,1.45285 0.22127,4.82121 0.39953,5.88204c0.46635,2.77519 2.36219,5.51177 2.61238,8.21033c0.16259,1.75368 0.07575,3.55925 0.39063,5.30318c0.61821,3.42391 2.46343,6.62955 2.61238,10.10563c0.5778,13.4842 0.50819,27.00273 0,40.48973c-0.13687,3.63256 -3.53159,10.61561 -5.32941,13.5222c-4.80219,7.76382 -8.80868,16.68249 -14.2945,23.9889c-1.94381,2.5889 -8.69958,5.95334 -11.534,8.58568c-3.3567,3.11737 -4.94062,7.69089 -7.93199,10.71875c-5.07709,5.13903 -7.95387,10.04933 -12.79533,15.47272c-2.01196,2.25378 -6.25189,4.2151 -8.17958,6.81299c-1.6915,2.27958 -3.17966,4.72476 -4.42731,7.27448c-0.41789,0.85401 -0.06756,2.00268 -0.60408,2.78761c-3.34265,4.89042 -8.65834,7.48686 -11.59461,13.01526c-1.37439,2.58769 -1.86705,4.69966 -2.84448,7.29819c-1.23942,3.29502 -4.18668,6.10521 -5.35708,9.57266c-2.5521,7.56092 -4.39571,15.12195 -4.96712,22.86252c-72.68953,-0.00825 -145.37907,-0.00971 -218.0686,0.01589z" fill="url(#color-2)" stroke="none" stroke-width="0" stroke-linecap="butt"/><path d="" fill="url(#color-3)" stroke="none" stroke-width="0" stroke-linecap="butt"/><path d="" fill="#704900" stroke="none" stroke-width="0.5" stroke-linecap="butt"/><path d="M-20.33766,410.42101c1.38041,-5.11156 3.39849,-10.07278 3.39849,-15.42908c0,-75.71437 -0.08408,-158.62386 -0.15576,-234.33819c-0.00594,-6.27659 -2.80006,-12.79035 -3.003,-18.77077c-0.70444,-20.75816 0.06137,-41.5403 0,-62.31032c-0.01962,-6.63999 -2.387,-17.42732 -3.003,-21.43135v-7.02771c4.43429,0.01347 8.80408,0.06829 13.05174,0.18874c2.27944,0.06464 5.987,2.10013 8.59381,2.59975c5.49574,1.05331 10.99963,2.06673 16.51652,3.003c6.50977,1.10478 14.22626,-0.11645 20.23591,0.40325c11.2177,0.97009 24.39879,4.13163 35.2299,6.76107c5.29372,1.28514 10.4855,1.45507 16.02541,2.96758c4.97078,1.35712 9.66849,3.56777 14.52744,5.28271c7.14998,2.52355 15.62096,2.12561 22.5452,4.93436c2.80196,1.13659 5.17793,3.08387 7.85107,4.44199c10.37056,5.26888 16.03268,7.61596 25.28313,15.08544c8.162,6.59058 12.00013,17.76674 19.27059,25.27659c4.29392,4.43531 10.45023,11.28705 15.71426,15.29748c2.62136,1.9971 5.70842,3.32715 8.33226,5.32101c2.75737,2.09533 4.00337,4.4805 6.68276,6.691c6.61398,5.45653 16.28482,6.77803 24.4113,7.03987c2.40125,0.07737 6.33779,3.04954 9.02626,3.75807c15.90092,4.19056 24.142,7.07339 34.93227,18.94963c1.11757,1.23004 2.84538,1.98078 3.57727,3.47286c1.54776,3.15534 6.80909,14.57205 7.10951,15.91272c0.32555,1.45285 0.22127,4.82121 0.39953,5.88204c0.46635,2.77519 2.36219,5.51177 2.61238,8.21033c0.16259,1.75368 0.07575,3.55925 0.39063,5.30318c0.61821,3.42391 2.46343,6.62955 2.61238,10.10563c0.5778,13.4842 0.50819,27.00273 0,40.48973c-0.13687,3.63256 -3.53159,10.61561 -5.32941,13.5222c-4.80219,7.76382 -8.80868,16.68249 -14.2945,23.9889c-1.94381,2.5889 -8.69958,5.95334 -11.534,8.58568c-3.3567,3.11737 -4.94062,7.69089 -7.93199,10.71875c-5.07709,5.13903 -7.95387,10.04933 -12.79533,15.47272c-2.01196,2.25378 -6.25189,4.2151 -8.17958,6.81299c-1.6915,2.27958 -3.17966,4.72476 -4.42731,7.27448c-0.41789,0.85401 -0.06756,2.00268 -0.60408,2.78761c-3.34265,4.89042 -8.65834,7.48686 -11.59461,13.01526c-1.37439,2.58769 -1.86705,4.69966 -2.84448,7.29819c-1.23942,3.29502 -4.18668,6.10521 -5.35708,9.57266c-2.5521,7.56092 -4.39571,15.12195 -4.96712,22.86252c-74.10291,-0.00841 -148.20582,-0.00977 -222.30873,0.01742z" fill="#704900" stroke="none" stroke-width="0.5" stroke-linecap="butt"/><path d="" fill="#815400" stroke="none" stroke-width="0.5" stroke-linecap="butt"/><path d="M279.78966,241.10493l-1.7334,-1.49702l-1.26464,0.09252l-1.30995,0.32749h-3.16572l-2.05987,0.15073l-0.26237,-0.15073h-8.17612l-0.24283,-0.06072l-1.68625,0.21078l-5.90187,-2.10781l-6.07984,-1.51997l-1.28611,-1.11075l-0.23573,-0.08418l-1.45462,-0.96975l-1.02007,-0.34002l-0.62331,-0.39667l-4.38179,-1.11284l-3.44453,-3.86756l-3.64757,-2.32117l-3.17956,-5.34435l-0.80967,-0.90912l-0.1386,-0.68479l-2.33318,-3.92173l0.34225,-5.91587l-1.17543,-5.80801l1.75512,-4.21228l0.04035,-0.6975l0.67297,-1.01449l2.39179,-5.7403l3.28264,-2.8137l2.86295,-4.31582l3.46512,-1.42682l0.11848,-0.11848l1.15785,-0.69472l4.60418,-3.97635l3.46808,-0.86703l3.06538,-1.83923l6.06735,-0.44394l1.30995,-0.32749h1.12969l0.27904,-0.06975l0.3875,-5.29589l1.18441,-1.97401c4.52804,2.6034 8.71018,6.05387 13.36716,11.17955c1.11757,1.23004 2.84538,1.98078 3.57727,3.47286c1.54776,3.15534 6.80909,14.57205 7.10951,15.91272c0.32555,1.45285 0.22127,4.82121 0.39953,5.88204c0.46635,2.77519 2.36219,5.51177 2.61238,8.21033c0.16259,1.75368 0.07575,3.55925 0.39063,5.30318c0.61821,3.42391 2.46343,6.62955 2.61238,10.10563c0.23139,5.4 0.35895,10.8055 0.3961,16.21228z" fill="#815400" stroke="none" stroke-width="0.5" stroke-linecap="butt"/><path d="M-20.33764,410.42101c1.38041,-5.11156 3.39849,-10.07278 3.39849,-15.42908c0,-55.29918 -0.04485,-114.43648 -0.09697,-171.80543c73.3849,0.12755 146.77008,-0.19153 220.15491,-0.00948c9.15196,0.0227 17.84133,4.868 26.92161,5.52221c9.63257,0.69398 18.69479,-0.27546 28.0353,2.83119c5.9373,1.97473 19.55543,8.14905 25.71809,8.2132c2.79421,0.02909 5.58842,0.0568 8.38263,0.08318c0.15386,9.55517 0.01389,19.1179 -0.34584,28.66484c-0.13687,3.63256 -3.53159,10.61561 -5.32941,13.5222c-4.80219,7.76382 -8.80868,16.68249 -14.2945,23.9889c-1.94381,2.5889 -8.69958,5.95334 -11.534,8.58568c-3.3567,3.11737 -4.94062,7.69089 -7.93199,10.71875c-5.07709,5.13903 -7.95387,10.04933 -12.79533,15.47272c-2.01196,2.25378 -6.25189,4.2151 -8.17958,6.81299c-1.6915,2.27958 -3.17966,4.72476 -4.42731,7.27448c-0.41789,0.85401 -0.06756,2.00268 -0.60408,2.78761c-3.34265,4.89042 -8.65834,7.48686 -11.59461,13.01526c-1.37439,2.58769 -1.86705,4.69966 -2.84448,7.29819c-1.23942,3.29502 -4.18668,6.10521 -5.35708,9.57266c-2.5521,7.56092 -4.39571,15.12195 -4.96712,22.86252c-74.10291,-0.00841 -148.20582,-0.00977 -222.30872,0.01742z" fill="#fffaae" stroke="none" stroke-width="0.5" stroke-linecap="butt"/><path d="" fill="#fffaae" stroke="none" stroke-width="0.5" stroke-linecap="butt"/><path d="" fill="#b97e11" stroke="none" stroke-width="0.5" stroke-linecap="butt"/><path d="M12.22271,268.29708c1.89173,0.30176 3.25379,2.23688 5.14025,2.57011c2.53717,0.44819 5.14742,-0.26457 7.72365,-0.29771c11.13629,-0.14325 22.2744,0 33.4116,0c21.4177,0 42.83538,0 64.25307,0c8.20156,0 16.47075,1.10554 24.60465,0.05415c8.90128,-1.15057 17.82255,-2.58943 26.79781,-2.62429c12.85061,0 25.7014,-0.06775 38.55185,0c5.84204,0.0308 11.77875,-0.8519 17.52524,0.20081c7.0162,1.28531 19.48132,8.55816 26.76779,10.54104c6.95103,1.8916 14.18945,2.53993 21.19969,4.19874c2.25499,0.53359 4.50609,1.08632 6.75175,1.66088c-4.14578,7.10972 -7.85797,14.89515 -12.7434,21.40193c-1.94381,2.5889 -8.69958,5.95334 -11.534,8.58568c-3.3567,3.11737 -4.94062,7.69089 -7.93199,10.71875c-5.07709,5.13903 -7.95387,10.04933 -12.79533,15.47272c-2.01196,2.25378 -6.25189,4.2151 -8.17958,6.81299c-1.6915,2.27958 -3.17966,4.72476 -4.42731,7.27448c-0.41789,0.85401 -0.06756,2.00268 -0.60408,2.78761c-3.34265,4.89042 -8.65834,7.48686 -11.59461,13.01526c-1.37439,2.58769 -1.86705,4.69966 -2.84448,7.29819c-0.74954,1.99267 -2.12369,3.80803 -3.35171,5.69867c-11.88304,-0.08562 -24.27916,-0.88604 -34.78972,-0.88604c-46.26222,0 -92.52443,0 -138.78665,0c-12.85025,0 -28.04188,1.36973 -41.12197,0c-3.51617,-0.36821 -7.58143,0.23138 -11.18512,-0.11606c-0.0043,-37.38593 -0.02747,-76.30672 -0.05821,-115.07941c9.86532,-0.40387 19.96673,-0.76474 29.22081,0.71149z" fill="#f5efa6" stroke="none" stroke-width="0.5" stroke-linecap="butt"/><path d="" fill="#f5efa6" stroke="none" stroke-width="0.5" stroke-linecap="butt"/><path d="" fill="#b97e11" stroke="none" stroke-width="0.5" stroke-linecap="butt"/><path d="M44.50613,410.40397c3.79513,-1.17183 8.60266,-2.87449 8.77711,-3.04309c11.15487,-10.78126 47.78205,-20.28198 62.15393,-26.09117c6.25972,-2.53021 11.39456,-7.25883 17.73345,-9.65792c34.24479,-12.96067 69.6446,-21.34992 105.17017,-29.3758c-2.16241,1.69223 -5.07177,3.331 -6.57503,5.35688c-1.6915,2.27958 -3.17966,4.72476 -4.42731,7.27448c-0.41789,0.85401 -0.06756,2.00268 -0.60408,2.78761c-3.34265,4.89042 -8.65834,7.48686 -11.59461,13.01526c-1.37439,2.58769 -1.86705,4.69966 -2.84448,7.29819c-1.23942,3.29502 -4.18668,6.10521 -5.35708,9.57266c-2.5521,7.56092 -4.39571,15.12195 -4.96712,22.86252c-52.48832,-0.00596 -104.97663,-0.00838 -157.46495,0.00038z" fill="#b97e11" stroke="none" stroke-width="0.5" stroke-linecap="butt"/><path d="M-0.70235,381.22203c13.05776,-2.19425 26.15959,-1.5455 39.28852,-3.09514c9.40663,-1.1103 19.68143,-4.42793 29.50034,-4.45145c48.89333,-0.11715 97.92219,-2.9844 146.80009,-2.51449c-1.18622,2.369 -1.67639,4.37506 -2.59134,6.80746c-1.23942,3.29502 -4.18668,6.10521 -5.35708,9.57266c-2.5521,7.56092 -4.39571,15.12195 -4.96712,22.86252c-74.10291,-0.00841 -148.20582,-0.00977 -222.30873,0.01742c1.38041,-5.11156 3.39849,-10.07278 3.39849,-15.42908c0,-3.35554 -0.00017,-6.72521 -0.00049,-10.10776c5.59729,-1.55101 11.05857,-2.79189 16.23735,-3.66215z" fill="#d59213" stroke="none" stroke-width="0.5" stroke-linecap="butt"/><path d="" fill="#d59213" stroke="none" stroke-width="0.5" stroke-linecap="butt"/><path d="M123.79545,409.28704c-39.89635,-0.03403 -79.80452,-0.97011 -119.68909,0c-3.41105,0.08296 -6.79877,0.49529 -10.17031,1.12907c-4.7579,0.00152 -9.5158,0.00314 -14.2737,0.00489c1.38041,-5.11156 3.39849,-10.07278 3.39849,-15.42908c0,-31.04541 -0.01414,-63.30051 -0.03576,-95.77328c5.37092,-0.75178 10.7364,-1.19816 16.06394,-1.21793c42.15068,-0.15636 88.28211,-0.34668 130.43305,-0.34668c19.52799,0 41.78797,7.17445 60.15398,13.01819c6.3283,2.01355 12.09783,7.33911 17.94045,9.31324c12.67577,4.28293 25.23757,9.17285 37.86615,13.95798c-1.70265,2.22255 -3.4347,4.48111 -5.53731,6.83644c-2.01196,2.25378 -6.25189,4.2151 -8.17958,6.81299c-1.6915,2.27958 -3.17966,4.72476 -4.42731,7.27448c-0.41789,0.85401 -0.06756,2.00268 -0.60408,2.78761c-3.34265,4.89042 -8.65834,7.48686 -11.59461,13.01526c-1.37439,2.58769 -1.86705,4.69966 -2.84448,7.29819c-1.23942,3.29502 -4.18668,6.10521 -5.35708,9.57266c-2.55209,7.56092 -4.39571,15.12194 -4.96712,22.86251c-22.93147,-0.0026 -45.86294,-0.00453 -68.79441,-0.00514c-3.27449,-0.70742 -6.41997,-1.10888 -9.3812,-1.1114z" fill="#d59213" stroke="none" stroke-width="0.5" stroke-linecap="butt"/><path d="" fill="#d59213" stroke="none" stroke-width="0.5" stroke-linecap="butt"/><path d="" fill="#d59213" stroke="none" stroke-width="0.5" stroke-linecap="butt"/><path d="M8.85448,72.7683c-7.87088,30.61569 -7.72786,64.37687 -18.44253,94.34568c-1.38628,6.64464 -3.95775,12.85426 -7.48326,18.39774c-0.00794,-8.35832 -0.01586,-16.65043 -0.02363,-24.85798c-0.00594,-6.27659 -2.80006,-12.79035 -3.003,-18.77077c-0.70444,-20.75816 0.06137,-41.5403 0,-62.31032c-0.01962,-6.63999 -2.387,-17.42732 -3.003,-21.43135v-7.02771c4.43429,0.01347 8.80409,0.06828 13.05175,0.18874c2.27944,0.06464 5.987,2.10013 8.59381,2.59975c4.78422,0.91694 9.57461,1.80365 14.37438,2.63555c-1.76613,7.04825 -3.18829,12.82239 -4.06452,16.23067z" fill="#553800" stroke="none" stroke-width="0.5" stroke-linecap="butt"/><g fill="#884800" stroke="none" stroke-width="0.5" stroke-linecap="butt"><path d="M153.78501,144.26542c0,2.51694 1.12083,3.8954 -0.1262,4.65032c0,11.52904 0,23.05808 0,34.58714c-0.96623,-0.80905 -2.21128,-1.29611 -3.57009,-1.29611c-1.22655,0 -2.36041,0.39685 -3.28016,1.06917c-1.42248,-0.71361 -2.84421,-1.44485 -4.2784,-1.89093c0,-7.05055 0,-14.07732 0,-20.90316c-11.55949,11.23647 -26.08075,19.44502 -39.36814,28.65761h0.00002c-1.48062,1.02657 -2.96122,2.0531 -4.44184,3.07967c3.46067,3.82689 6.82877,7.75957 10.96057,10.80842c9.82977,7.25335 21.49369,12.18777 32.84939,16.61238c0,-5.47088 0,-11.15499 0,-16.94828c1.01471,1.35696 2.6343,2.23532 4.45904,2.23532c2.43161,0 4.49893,-1.55974 5.25603,-3.73332l0.56188,-1.49934c0.25625,0.57987 0.54328,1.14215 0.85167,1.67944c0,5.61468 0,11.22935 0,16.84403v4.77111c0,0 0,1.07153 -0.47021,2.27414c0.5969,1.10734 0.83621,2.58899 0.09564,4.50398c-2.00698,5.18975 -7.19673,3.18277 -7.19673,3.18277l-5.69216,-2.20127c-12.8531,-4.97278 -26.24327,-10.51687 -37.3817,-18.81053c-5.12723,-3.81772 -9.84766,-8.14994 -14.36586,-12.73532c-16.50138,11.44095 -33.00276,22.88192 -49.50414,34.32288c0,0 -4.27184,2.9618 -7.42042,-0.96888c-2.5071,-1.52636 -2.5071,-4.79664 -2.5071,-4.79664v-4.77113c0,-25.04074 -1.50784,-50.58073 0.9519,-75.51291c-0.86572,-1.1057 -1.45948,-2.71775 -0.69759,-4.89987c-0.16157,-0.54488 -0.25431,-1.17055 -0.25431,-1.889c0,-5.56432 5.56432,-5.56432 5.56432,-5.56432c23.01203,0.02339 46.07692,1.19279 69.18121,1.19279c13.07185,0 27.19885,-1.14322 39.4098,-0.02446l10.12107,0.4017c0,0 0.29246,2.00832 0.29246,7.57263zM103.96164,147.44416c-17.93437,0 -35.86193,-0.73427 -53.7482,-1.05077c15.32698,10.12995 27.87286,24.49276 40.68746,37.70525c1.97342,-1.36822 3.94684,-2.73646 5.92025,-4.10471c13.97856,-9.69181 30.07159,-18.24998 41.3112,-30.97043l0.3161,-0.55848c-10.82235,-2.89896 -23.37836,-1.02085 -34.48681,-1.02085zM80.93815,191.00619c-12.46325,-13.72065 -24.2423,-28.27234 -40.13998,-37.51809c-1.71928,21.7169 -0.59507,43.88247 -0.46524,65.67102c13.53507,-9.38433 27.07015,-18.76862 40.60522,-28.15293z"/><path d="M153.05407,123.74629v4.77111c0,0 0,1.07153 -0.47021,2.27414c0.5969,1.10734 0.83621,2.58899 0.09564,4.50398c-2.00698,5.18977 -7.19673,3.18279 -7.19673,3.18279l-5.69216,-2.20127c-12.8531,-4.97278 -26.24327,-10.51687 -37.3817,-18.81053c-3.7019,-2.75643 -7.19175,-5.78106 -10.54652,-8.97555c0.39342,-1.34612 0.53851,-2.70858 0.24819,-4.09959c-0.87887,-4.21105 -6.87186,-7.02159 -12.75121,-8.932c-12.10655,-13.40088 -23.68298,-27.43818 -39.16593,-36.44273c-1.71928,21.71693 -0.59509,43.88247 -0.46524,65.67102c7.95399,-5.51477 15.908,-11.02954 23.86199,-16.54431l4.36992,2.42172c1.84853,0.73427 3.72878,1.38427 5.63089,1.97024l-0.37098,2.47321c-11.56036,8.01518 -23.12071,16.03037 -34.68109,24.04555c0,0 -4.27184,2.9618 -7.42044,-0.96888c-2.5071,-1.52636 -2.5071,-4.79664 -2.5071,-4.79664v-4.77113c0,-23.63509 -1.34329,-47.71496 0.57421,-71.3087c2.14617,-0.05501 4.21389,-0.06448 6.11144,0.09961c8.72168,0.75424 18.63021,2.8332 27.69836,4.95683c9.6498,8.47603 18.4106,18.19585 27.30074,27.36202c1.97342,-1.36822 3.94684,-2.73649 5.92025,-4.10471c5.29516,-3.67131 10.89375,-7.17995 16.41701,-10.8138c2.107,0.30903 4.20386,0.63241 6.23302,1.0932c0.84043,0.62226 1.68086,1.24452 2.52129,1.86677l0.45344,-1.0607c0.00916,0.00296 0.01832,0.00591 0.02748,0.00888c0.59095,1.21213 1.43289,2.42183 2.35355,3.5639c-7.14859,4.95091 -14.58205,9.57639 -21.66491,14.48719c-1.4806,1.02657 -2.96122,2.0531 -4.44182,3.07967c3.46067,3.82689 6.82877,7.75957 10.96057,10.80842c9.82979,7.25335 21.49369,12.18777 32.84939,16.61238c0,-12.06149 0,-25.15945 0,-38.17856c3.7495,1.98362 7.17037,4.01292 11.12865,6.92759c0,9.94296 0,19.88591 0,29.82887z"/></g><path d="M194.99992,278.7937c-2.20574,1.25533 -4.66223,2.2734 -6.78691,3.33136c-3.48331,1.73449 -7.59883,1.69017 -11.42764,2.38447c-13.28605,2.40919 -26.23003,4.05532 -39.66485,4.11125c-34.43468,0 -69.11451,1.35905 -103.3635,-2.05811c-11.51822,-1.14923 -23.29844,-0.59752 -34.57915,-3.19289c-3.59497,-0.8271 -11.59041,-5.00645 -16.16939,-7.33253c-0.01364,-17.88138 -0.02906,-35.75727 -0.04517,-53.46275c10.42753,-5.00074 21.74461,-5.31233 33.67725,-5.32236c15.71559,-0.01322 31.43133,0 47.1469,0c34.13864,0 68.14478,-2.31765 101.50201,5.1508c5.79437,1.29733 11.89916,2.22096 17.03987,5.19264c10.73508,6.20555 12.98438,13.48821 19.47083,23.22056c2.50209,3.7542 6.02362,6.7476 8.60103,10.45048c1.69912,2.44104 2.03267,5.8176 4.1654,7.89058c1.57599,1.53183 4.20827,1.30477 6.21563,2.19962c8.70775,3.88185 16.69831,8.76651 25.39343,12.70202c0,0 10.13113,4.60507 5.52608,14.7362c-4.60505,10.13113 -14.7362,5.52608 -14.7362,5.52608c-8.83994,-4.03353 -16.99852,-8.52754 -25.68239,-12.83588c-3.81754,-1.894 -8.3162,-2.78599 -11.46447,-5.65818c-2.10843,-1.92356 -3.45914,-4.477 -4.8187,-7.03336zM38.28457,250.31395c-11.71382,0 -23.42766,0 -35.14151,0c0.69465,0.15596 1.39061,0.29631 2.08824,0.41732c6.97307,1.20977 14.15429,-0.08598 21.23149,-0.08338c3.9402,0.00145 7.88076,-0.1339 11.82177,-0.33395zM170.668,262.98198c-0.18888,-0.11945 -0.37833,-0.23933 -0.56829,-0.35959c-0.11843,0.03523 -0.23766,0.06855 -0.35772,0.09991l-3.47044,0.99154c1.46428,-0.23544 2.9295,-0.48031 4.39646,-0.73186z" fill="#f5efa6" stroke="none" stroke-width="0.5" stroke-linecap="butt"/><g fill="#b46000" stroke="none" stroke-width="0.5" stroke-linecap="butt"><path d="M95.5607,142.90642c0,2.51696 1.12085,3.8954 -0.1262,4.65032c0,23.10068 0,46.20134 0,69.30202v4.77111c0,0 0,1.07151 -0.47021,2.27411c0.5969,1.10734 0.83623,2.58899 0.09564,4.50398c-2.00698,5.18977 -7.19675,3.18277 -7.19675,3.18277l-5.69216,-2.20127c-12.8531,-4.97276 -26.2433,-10.51687 -37.3817,-18.81053c-5.12721,-3.81772 -9.84766,-8.14994 -14.36586,-12.73532c-15.81759,10.96685 -31.63519,21.93373 -47.45278,32.90059c-0.00404,-4.5214 -0.00814,-9.03338 -0.01227,-13.53324c13.25182,-9.18792 26.50363,-18.37587 39.75545,-27.56379h0.00002c-12.46325,-13.72062 -24.24228,-28.27234 -40.13998,-37.51807c-0.08234,1.04007 -0.15816,2.08117 -0.22788,3.1232c-0.82799,-4.54134 -2.2988,-9.09178 -2.44396,-13.36935c-0.09172,-2.70267 -0.15851,-5.40574 -0.20545,-8.10914c21.96986,0.11729 43.98731,1.1827 66.04069,1.1827c13.07185,0 27.19885,-1.14322 39.4098,-0.02444l10.12107,0.40168c0,0 0.29246,2.00832 0.29246,7.57263zM45.73738,146.08525c-17.93437,0 -35.86193,-0.73424 -53.7482,-1.05077c15.32698,10.12993 27.87286,24.49274 40.68746,37.70523c1.97342,-1.36824 3.94684,-2.73646 5.92025,-4.10471c1.41921,-0.98399 2.86021,-1.95628 4.31571,-2.92245c2.10478,1.14625 6.9481,2.45153 7.58345,3.52597c0.41681,0.70487 1.07739,2.0322 1.87395,3.53445c-2.50176,1.65191 -4.98788,3.31268 -7.43224,5.00744h-0.00002c-1.4806,1.02655 -2.96122,2.05312 -4.44182,3.07967c3.46067,3.82689 6.82877,7.75959 10.96057,10.80842c9.82977,7.25335 21.49369,12.18777 32.84941,16.61238c0,-18.61713 0,-39.70369 0,-59.15807c-5.74271,5.58226 -12.21643,10.41718 -18.90668,14.99917c-0.6439,-0.30263 -1.23114,-0.66327 -1.6855,-1.1489c-2.01771,-2.15662 -2.12199,-5.78709 -3.03841,-8.96073c7.03083,-4.86404 13.71633,-10.1046 19.23275,-16.34778l0.31612,-0.55848c-10.82235,-2.89896 -23.37836,-1.02087 -34.48681,-1.02087z"/><path d="M87.23957,73.50976c-0.38392,0.27416 -0.77003,0.54724 -1.159,0.8186c-0.80594,0.5023 -1.66885,0.97235 -2.32824,1.57408c-0.72565,0.4731 -1.46462,0.93699 -2.22065,1.38825l-0.12253,0.21049l-0.06074,-0.08502l-4.71004,3.36432c-1.44479,1.00507 -2.39047,2.67759 -2.39047,4.57097c0,0.1106 0.00323,0.22046 0.00959,0.32947c-9.07362,6.85056 -18.98273,12.80912 -28.28685,19.25999c-1.4806,1.02657 -2.96122,2.0531 -4.44184,3.07967c3.46067,3.82689 6.82877,7.75957 10.96057,10.80842c9.82979,7.25335 21.49369,12.18777 32.84941,16.61238c0,-10.80804 0,-22.44832 0,-34.11838l6.054,-4.45145c0.13268,-0.06488 2.38411,-1.72398 5.07463,-3.71356c0,13.62042 0,27.24082 0,40.86125v4.77111c0,0 0,1.07151 -0.47021,2.27414c0.5969,1.10734 0.83623,2.58899 0.09566,4.50398c-2.00698,5.18977 -7.19673,3.18277 -7.19673,3.18277l-5.69216,-2.20127c-12.8531,-4.97276 -26.2433,-10.51687 -37.3817,-18.81051c-5.12721,-3.81772 -9.84764,-8.14994 -14.36584,-12.73532c-16.50138,11.44097 -33.00276,22.88192 -49.50414,34.32286c0,0 -0.29781,0.20648 -0.79412,0.43805c-0.6118,-2.68452 -1.16955,-5.33179 -1.25609,-7.88208c-0.70444,-20.75816 0.06137,-41.5403 0,-62.31032c-0.01962,-6.63999 -2.387,-17.42732 -3.003,-21.43135v-7.02771c4.43429,0.01347 8.80408,0.06829 13.05174,0.18874c2.27944,0.06464 5.987,2.10013 8.59381,2.59975c5.49574,1.05331 10.99963,2.06673 16.51652,3.003c6.50977,1.10478 14.22626,-0.11645 20.23591,0.40325c9.262,0.80096 19.86247,3.09587 29.37357,5.35173c-6.06092,0.08637 -12.17305,0.58561 -17.90038,0.58561h-0.00002c-17.93437,0 -35.86189,-0.73424 -53.74818,-1.05077v0.00001c15.32698,10.12995 27.87284,24.49274 40.68746,37.70523c1.97342,-1.36822 3.94684,-2.73646 5.92025,-4.10471c13.647,-9.46191 29.30935,-17.84336 40.50332,-30.07221c2.10402,0.32961 4.23458,0.71729 6.41928,1.31375c2.15173,0.58747 4.25229,1.33486 6.33691,2.13276c-1.91628,1.38223 -3.80227,2.82078 -5.6497,4.34002zM23.74672,106.80767c-12.46325,-13.72065 -24.24228,-28.27234 -40.13995,-37.51809c-1.71928,21.71693 -0.59509,43.88247 -0.46524,65.67102c13.53507,-9.38431 27.07013,-18.76862 40.6052,-28.15293z"/><path d="M-18.56805,67.26398c0,0 -1.17101,0.8119 -2.73872,1.0214c-0.68846,-4.18771 -1.47556,-8.07317 -1.79416,-10.14408v-7.02771c1.91686,0.00582 3.82167,0.01937 5.70976,0.04261c0.0048,0.58071 0.00896,1.16118 0.01242,1.74137c0.81975,-0.56836 1.6395,-1.13672 2.45925,-1.70509c1.63883,0.0281 3.26331,0.06427 4.8703,0.10985c2.27944,0.06464 5.987,2.10013 8.59381,2.59975c0.56431,0.10816 1.12871,0.21589 1.69321,0.32317c-6.26863,4.34625 -12.53725,8.69249 -18.80588,13.03873z"/></g><path d="M88.8995,250.03671c-1.73587,0.65345 -4.82945,1.12862 -7.14276,-2.32962c-2.27601,-3.40247 -0.74442,-6.04961 0.51187,-7.4246c0.20145,-1.37103 0.96608,-2.83758 2.88817,-4.03546c1.04881,-0.65365 2.0176,-0.96265 2.89583,-1.03979c2.47757,-2.89965 3.78601,-5.92965 7.22807,-9.33899c9.47846,-9.38836 30.88176,-16.89478 42.89178,-8.37171c1.76349,1.2515 0.54334,4.89809 2.38369,6.03352c1.34859,0.83204 2.81314,-2.14569 4.37268,-1.86503c9.00829,1.62122 19.31468,6.04554 12.23217,18.82869c-1.76812,3.19125 -6.83552,2.58057 -10.35039,3.55834c-10.30767,2.86749 -22.16387,-2.1484 -31.54983,2.42273c-2.17934,1.87295 -3.81752,4.69337 -6.53798,5.61887c-1.5477,0.52654 -14.89494,0.00777 -17.72967,-0.07924z" fill="#9e5400" stroke="#9e5400" stroke-width="0.5" stroke-linecap="butt"/><path d="M59.108,248.07489c4.75342,-0.40357 12.80708,7.63179 10.04646,13.06228c-1.35965,2.67466 -5.47865,2.4483 -8.21794,3.67247l-5.56185,-1.96605c0,0 -0.09346,-0.03737 -0.24601,-0.11498c-0.07863,0.0043 -0.15783,0.00645 -0.23751,0.00645c-2.37238,0 -4.29561,-1.92321 -4.29561,-4.29561c0,-1.71481 1.0048,-3.19492 2.45778,-3.88371l3.03818,-1.5191c0.92799,-1.86055 1.08075,-4.79742 3.01648,-4.96177z" fill="#9e5400" stroke="#9e5400" stroke-width="0.5" stroke-linecap="butt"/><path d="M228.01489,309.37247c-0.93663,0.48245 -1.88742,0.48245 -1.88742,0.48245c-7.64891,0 -18.81576,-0.18865 -14.47684,-11.88371c0.69236,-1.86618 2.22628,-3.40921 3.84272,-4.57071c1.0868,-0.78092 2.76068,-0.27141 3.89164,-0.98686c2.5712,-1.62661 3.08076,-5.55359 5.66815,-7.15431c1.74886,-1.08197 3.93684,-1.24837 5.9704,-1.55463c2.84179,-0.42798 5.80523,0.19495 8.61258,0.45975c0.89837,0.08473 1.96712,0.69434 2.7017,0.17029c1.49304,-1.0651 1.43246,-4.39592 3.26619,-4.42766c2.69738,-0.0467 5.18852,2.1555 6.88644,4.25194c1.14847,1.41803 0.75352,3.57877 0.92697,5.39532c0.44187,4.62766 -0.63088,9.71527 -1.07095,14.28471c-8.21643,4.49252 -15.15464,5.50277 -24.33162,5.53347z" fill="#9e5400" stroke="#9e5400" stroke-width="0.5" stroke-linecap="butt"/><path d="M126.52552,267.96189c1.93574,0.16435 2.08849,3.10122 3.01648,4.96177l3.03818,1.5191c1.45298,0.6888 2.45778,2.1689 2.45778,3.88371c0,2.3724 -1.92323,4.29561 -4.29561,4.29561c-0.07968,0 -0.15887,-0.00216 -0.23751,-0.00645c-0.15255,0.07761 -0.24601,0.11498 -0.24601,0.11498l-5.56185,1.96605c-2.73929,-1.22417 -6.85829,-0.99782 -8.21794,-3.67247c-2.76061,-5.43048 5.29304,-13.46585 10.04646,-13.06228z" data-paper-data="{&quot;index&quot;:null}" fill="#9e5400" stroke="#9e5400" stroke-width="0.5" stroke-linecap="butt"/><g stroke="none" stroke-width="0" stroke-linecap="butt"><path d="M156.37416,210.72724l102.13096,-2.40995l0.33235,14.08483l-102.13096,2.40995z" fill="#7e7e7e"/><path d="M156.34008,220.79965l102.13096,-2.40995l0.09576,4.05735l-102.13096,2.40995z" fill="#747474"/><path d="M155.80763,209.01577l56.67757,-1.33739l0.40432,17.13421l-56.67758,1.33739z" fill="#646464"/><path d="M156.00556,218.15645l56.67754,-1.33741l0.18315,7.76154l-56.67757,1.33739z" fill="#515151"/></g><path d="M169.98538,221.95706l43.40283,-2.257" data-paper-data="{&quot;index&quot;:null}" fill="#e0a00b" stroke="#cd920a" stroke-width="9" stroke-linecap="round"/><path d="M215.79663,224.53797l-49.38162,2.56795" data-paper-data="{&quot;index&quot;:null}" fill="#e0a00b" stroke="#9d7008" stroke-width="1.5" stroke-linecap="round"/><path d="M216.39882,212.3539l0.57774,12.29236" data-paper-data="{&quot;index&quot;:null}" fill="#e0a00b" stroke="#9d7008" stroke-width="1.5" stroke-linecap="round"/><path d="M56.09144,220.60432l43.40283,2.25699" fill="#e0a00b" stroke="#cd920a" stroke-width="9" stroke-linecap="round"/><path d="M53.68304,225.44222l49.3816,2.56793" fill="#e0a00b" stroke="#9d7008" stroke-width="1.5" stroke-linecap="round"/><path d="M52.50311,225.55048l0.57772,-12.29234" fill="#e0a00b" stroke="#9d7008" stroke-width="1.5" stroke-linecap="round"/><path d="M91.12421,226.95115c-1.55058,1.11242 -2.9514,2.39163 -4.18469,3.80348c-0.22982,-0.14964 -0.39002,-0.27834 -0.46118,-0.37959c-1.56619,-2.22939 -0.98645,-17.70882 0.28802,-19.68683c0.11547,-0.17921 0.29555,-0.37583 0.52647,-0.58488c1.23168,1.5161 2.63096,2.86855 4.16046,4.03798c-0.65546,1.8011 0.57609,6.95238 0.50518,8.6276c-0.05999,1.41746 -1.83134,3.19085 -0.83426,4.18229z" data-paper-data="{&quot;index&quot;:null}" fill="#ffd268" stroke="none" stroke-width="0.5" stroke-linecap="butt"/><path d="M176.07455,222.03419l40.66319,-15.34292" fill="#e0a00b" stroke="#cd920a" stroke-width="9" stroke-linecap="round"/><path d="M174.77848,228.40289l46.26458,-17.45645" fill="#e0a00b" stroke="#9d7008" stroke-width="1.5" stroke-linecap="round"/><path d="M217.91331,199.15577l4.28675,11.53513" fill="#e0a00b" stroke="#9d7008" stroke-width="1.5" stroke-linecap="round"/><path d="M94.39478,222.94354l-40.66319,-15.34294" fill="#e0a00b" stroke="#cd920a" stroke-width="9" stroke-linecap="round"/><path d="M49.73134,211.85582l46.26458,17.45645" fill="#e0a00b" stroke="#9d7008" stroke-width="1.5" stroke-linecap="round"/><path d="M48.57432,211.60032l4.28679,-11.53514" fill="#e0a00b" stroke="#9d7008" stroke-width="1.5" stroke-linecap="round"/><path d="M145.8995,186.8465c13.29663,1.30562 20.4947,4.82324 26.17761,17.47821c1.30884,2.91457 3.71962,5.68542 3.88921,9.03588c0.07856,1.55181 -0.16245,2.86471 -0.67068,3.96992c1.78857,-0.22162 3.40113,-0.08386 4.41791,0.93292c7.77138,7.77138 -6.50656,10.45735 -12.0435,10.45735c-31.01959,0 -37.6447,-1.25623 -58.25985,-1.62783c-3.80549,-0.06859 -7.44575,-1.30263 -11.01567,0.01726c-1.53153,0.56623 -8.5466,2.76113 -10.43152,1.26439c-1.99256,-0.20283 -3.44734,-1.43829 -2.9764,-4.43851c-0.02182,-0.17386 -0.033,-0.35048 -0.033,-0.52938c0,-0.73424 0.18856,-1.43023 0.52589,-2.05339c2.72192,-9.80892 8.19563,-18.82673 13.61493,-27.67608c0.80466,-1.31393 3.08501,-7.9987 4.99869,-9.41868c4.11701,-3.05493 10.55633,-2.41398 15.39951,-3.22428c4.30966,-0.72103 15.50454,-3.01459 19.41431,0.38197c1.65044,1.4338 2.50065,3.31024 2.41709,4.98363c1.61462,0.14904 3.1517,0.30679 4.57556,0.4466z" fill="#ffc43a" stroke="#000000" stroke-width="0" stroke-linecap="butt"/><path d="M184.31797,221.17525c0.33736,0.62318 0.52588,1.31911 0.52588,2.05335c0,0.1789 -0.01124,0.35553 -0.033,0.52942c0.63866,4.06865 -2.26426,4.89182 -5.24712,4.29538c-2.33524,-0.46695 -4.71948,-1.80403 -5.49168,-3.13515c-5.9554,-10.2661 -7.76627,-24.5149 -16.5692,-33.48745c-0.85801,-0.87458 -6.33765,-0.58745 -6.6891,-0.60299c-5.91535,-0.26161 -9.46137,-0.26411 -17.14285,-0.53189c-6.14614,-0.21425 -6.54486,-5.78741 -2.78035,-9.05775c3.90977,-3.39657 15.10461,-1.10299 19.4143,-0.38198c4.84315,0.8103 11.2825,0.16932 15.39951,3.22427c1.91368,1.42002 4.19401,8.10475 4.99864,9.41868c5.41926,8.84935 10.89301,17.86718 13.61495,27.6761z" data-paper-data="{&quot;index&quot;:null}" fill="#ffc43a" stroke="#000000" stroke-width="0" stroke-linecap="butt"/><path d="M86.16641,219.70154c0,-3.65484 6.73397,-6.61768 15.04076,-6.61768c8.30679,0 15.04076,2.96284 15.04076,6.61768c0,3.65484 -6.73397,6.61765 -15.04076,6.61765c-8.30679,0 -15.04076,-2.96281 -15.04076,-6.61765z" fill="#f5bc38" stroke="none" stroke-width="NaN" stroke-linecap="butt"/><path d="M155.24057,219.79877c0,-3.65484 6.73397,-6.61766 15.04075,-6.61766c8.30678,0 15.04072,2.96284 15.04072,6.61766c0,3.65484 -6.73396,6.61767 -15.04072,6.61767c-8.30679,0 -15.04075,-2.96281 -15.04075,-6.61767z" fill="#f5bc38" stroke="none" stroke-width="NaN" stroke-linecap="butt"/><path d="M99.6609,226.31925v-13.23533h70.84614v13.23533z" fill="#f5bc38" stroke="none" stroke-width="0" stroke-linecap="butt"/><path d="M91.8856,206.24569c1.74243,-1.33548 2.80351,-7.9813 4.07588,-10.43131c6.03142,-11.61379 12.9883,-16.99459 26.41987,-17.31363c0.01813,-0.00045 0.03632,-0.00093 0.05451,-0.00149c0.16384,0.03307 0.33299,0.05154 0.50601,0.0539c0.01285,0.00007 0.02559,0.00017 0.03819,0.00027c4.20205,0.0389 8.40433,0.06401 12.60666,0.07441c3.02954,3.10953 2.96629,5.10573 -0.18973,8.26173c-1.88861,1.88861 -5.31937,0.55666 -7.98982,0.60385c-7.61759,0.13463 -13.72243,0.59449 -18.86554,5.92702c-4.90546,5.0861 -13.2895,26.6097 -15.82561,32.73243c-0.82968,2.00302 -7.24301,7.58285 -9.45742,3.70762c-1.42384,-0.84033 -2.379,-2.39027 -2.379,-4.16327c0,-1.72425 0.90334,-3.23745 2.26255,-4.09229c3.12943,-5.69647 8.20672,-14.94791 8.74344,-15.35925z" fill="#dd9e0b" stroke="none" stroke-width="0.5" stroke-linecap="butt"/><path d="M187.13119,221.00962c1.35924,0.85483 2.26256,2.36808 2.26256,4.09231c0,1.773 -0.95516,3.32294 -2.37901,4.16327c-2.2144,3.87523 -8.62777,-1.70462 -9.45743,-3.70763c-2.5361,-6.12273 -10.92016,-27.64633 -15.82559,-32.73242c-5.14311,-5.33253 -11.24796,-5.79239 -18.86554,-5.92702c-2.67047,-0.04719 -6.10124,1.28472 -7.98984,-0.60385c-2.95147,-2.95147 -3.19806,-4.8886 -0.73977,-7.67058c6.75603,0.02215 13.51219,0.00644 20.26788,-0.05104c0.11706,0.01555 0.23351,0.03036 0.34928,0.04432c9.12706,1.82601 14.6491,7.14954 19.55814,16.60208c1.27238,2.45001 2.33343,9.09585 4.07588,10.43135c0.53674,0.41137 5.61401,9.66278 8.74343,15.35924z" data-paper-data="{&quot;index&quot;:null}" fill="#dd9e0b" stroke="none" stroke-width="0.5" stroke-linecap="butt"/><path d="M166.18445,192.84736c-0.48925,0.97852 -1.4678,0.48926 -1.4678,0.48926l-0.39619,-0.20234c-6.09826,-2.45727 -11.87392,-3.37219 -18.05324,-5.21982c-3.46139,-0.07781 -6.96361,0.02742 -10.52899,0.02742c-9.37743,0 -17.79525,1.8841 -26.84656,3.80971c0,0 -1.07054,0.22537 -1.29594,-0.84517c-0.22536,-1.07054 0.84517,-1.29593 0.84517,-1.29593c0.84544,-0.17594 1.68542,-0.35206 2.52118,-0.52688c-0.27048,-0.7482 0.45139,-1.22942 0.45139,-1.22942c6.73948,-4.46541 16.18653,-2.42323 23.80014,-3.0577c9.59205,-0.00664 19.70864,0.97607 29.26267,1.92107l0.13072,-0.00544c0,0 1.09402,-0.00001 1.09402,1.094c0,1.09402 -1.09402,1.09402 -1.09402,1.09402l-0.34842,-0.00544c-0.5369,-0.05433 -1.07567,-0.10863 -1.61612,-0.16277c0.17512,0.22497 0.28646,0.55578 0.11405,1.01553c-0.06257,0.1669 -0.14218,0.29639 -0.23157,0.39627c0.86503,0.29469 1.73386,0.61213 2.60819,0.95892l0.56208,0.2768c0,0 0.97851,0.48926 0.48926,1.46778zM116.04087,188.04185c1.71942,-0.34045 3.43169,-0.66167 5.14821,-0.94978c-1.78748,0.14061 -3.52461,0.4221 -5.14821,0.94978z" fill="#dd9e0b" stroke="none" stroke-width="0.5" stroke-linecap="butt"/><path d="M173.71665,184.05463c0.33079,0.3852 0.68921,0.80008 1.06238,1.23805c0.31007,-0.24428 0.85877,-0.25069 1.49133,0.02804c1.49846,0.66033 3.43429,4.13578 4.2112,5.45236c0.87313,1.47958 2.37065,3.2202 2.64929,4.7899c0.12955,0.72962 -0.69426,2.2573 -0.78025,2.65858c-0.57908,2.70279 -1.17951,5.44326 -2.52131,7.50798c-0.0502,0.17776 -0.14635,0.32299 -0.2902,0.41977c-0.03501,0.02358 -0.07203,0.04367 -0.11075,0.0604c-0.48747,0.52908 -1.03941,0.27959 -1.50373,-0.25843c-0.69483,-0.33693 -1.75943,-2.61462 -1.9748,-3.12333c-0.50202,-1.18583 -1.51936,-2.05492 -2.34356,-3.12449c-4.46503,-5.79414 -6.12267,-7.50632 -12.73163,-16.29839c-1.17971,-1.56939 -3.69545,-5.97042 -0.51721,-4.79232c0.41583,0.15416 0.78641,0.59302 1.12402,1.12922c0.10829,-0.28974 0.31411,-0.53116 0.63486,-0.71354c0.69256,-0.39366 1.749,-0.07566 2.59886,-0.089c3.69006,-0.05774 5.91273,1.51868 9.00149,5.11531z" fill="#ff3b3b" stroke="#000000" stroke-width="0" stroke-linecap="butt"/><path d="M158.80593,177.69156c2.50167,-0.5217 5.43457,-0.15928 8.32287,0.21001c0.42886,0.05483 2.22432,-0.18017 2.91022,0.17499c1.47565,0.76413 2.72203,2.67372 3.91264,3.93964c1.05945,1.12649 3.89397,3.99712 4.06157,5.55311c0.16134,1.49822 -1.01544,2.11991 -2.36692,0.40617c-1.68905,-2.14183 -2.44504,-3.14665 -3.7566,-4.78878c-0.07789,-0.09751 -1.18911,-1.68852 -1.54327,-1.81643c-3.63335,-1.31211 -6.81069,0.05328 -10.09074,-0.28115c-0.42526,-0.04334 -1.19524,-0.5429 -1.78424,-1.1432c-0.75237,-0.76683 -1.20958,-1.69815 -0.27642,-2.05353c0.02938,-0.0291 0.06158,-0.05559 0.09665,-0.07917c0.14385,-0.0968 0.32039,-0.13506 0.51431,-0.12164z" data-paper-data="{&quot;index&quot;:null}" fill="#ff3b3b" stroke="#000000" stroke-width="0" stroke-linecap="butt"/><path d="M95.52136,185.10618c3.08877,-3.59662 5.31146,-5.17301 9.00152,-5.11527c0.84989,0.01334 1.90629,-0.30468 2.59885,0.08898c0.32073,0.18236 0.52659,0.42376 0.63486,0.71354c0.33764,-0.5362 0.7082,-0.97507 1.12404,-1.12922c3.17824,-1.17806 0.66246,3.22292 -0.51722,4.79232c-6.60896,8.7921 -8.26658,10.50426 -12.73163,16.29841c-0.82421,1.06957 -1.84152,1.93864 -2.34354,3.12447c-0.21534,0.50873 -1.27998,2.78642 -1.97481,3.12336c-0.46431,0.53801 -1.01628,0.78752 -1.50374,0.25844c-0.03872,-0.01672 -0.07573,-0.03683 -0.11074,-0.06042c-0.14385,-0.0968 -0.24,-0.24201 -0.2902,-0.41977c-1.34176,-2.06472 -1.94221,-4.80518 -2.52129,-7.50798c-0.08598,-0.40129 -0.90978,-1.92897 -0.78023,-2.65859c0.27866,-1.5697 1.77617,-3.31031 2.6493,-4.78986c0.7769,-1.31658 2.71274,-4.79205 4.2112,-5.45239c0.63254,-0.27873 1.18125,-0.27235 1.49133,-0.02803c0.37317,-0.43797 0.73157,-0.85283 1.06238,-1.23803z" fill="#ff6e3b" stroke="#000000" stroke-width="0" stroke-linecap="butt"/><path d="M110.43206,178.74306c0.19396,-0.01342 0.37045,0.02482 0.5143,0.12164c0.03508,0.02358 0.06729,0.05007 0.09665,0.07917c0.93313,0.35541 0.47593,1.28669 -0.27642,2.05354c-0.58899,0.6003 -1.35898,1.09986 -1.78424,1.1432c-3.28006,0.33443 -6.45736,-1.03096 -10.09071,0.28114c-0.35416,0.12792 -1.46539,1.71892 -1.54327,1.81644c-1.31158,1.64212 -2.06754,2.64692 -3.75659,4.78877c-1.35147,1.71374 -2.52823,1.09204 -2.36692,-0.40617c0.16761,-1.55599 3.00212,-4.42663 4.06157,-5.55311c1.19062,-1.2659 2.43698,-3.17551 3.91265,-3.93964c0.68588,-0.35516 2.48136,-0.12015 2.91021,-0.17498c2.8883,-0.36928 5.82123,-0.7317 8.32286,-0.21001z" data-paper-data="{&quot;index&quot;:null}" fill="#ff6e3b" stroke="#000000" stroke-width="0" stroke-linecap="butt"/><path d="M184.28226,220.4894c-0.57672,-1.57437 -0.96925,-6.8563 -2.14117,-8.37294c1.10166,-1.579 2.02363,-3.29275 2.73622,-5.11151c0.28355,0.12897 0.51487,0.26157 0.67934,0.3972c1.81539,1.49704 7.07287,16.06781 6.2584,18.66778c-0.03699,0.1181 -0.15051,0.28941 -0.32397,0.50182c-1.6041,-0.97018 -3.32741,-1.76309 -5.14281,-2.35156c0.64854,-1.2476 -1.57804,-2.39866 -2.06603,-3.73079z" data-paper-data="{&quot;index&quot;:null}" fill="#ffd268" stroke="none" stroke-width="0.5" stroke-linecap="butt"/><path d="M85.16906,223.96327c-1.81536,0.58847 -3.53871,1.38138 -5.14278,2.35154c-0.17346,-0.21242 -0.28698,-0.38375 -0.32397,-0.50185c-0.81445,-2.59998 4.443,-17.17075 6.2584,-18.66779c0.16447,-0.13562 0.39579,-0.26823 0.67933,-0.3972c0.71256,1.81876 1.63455,3.53254 2.73622,5.11154c-1.17193,1.51664 -1.56441,6.79856 -2.14113,8.37293c-0.48801,1.33213 -2.71457,2.4832 -2.06603,3.73083z" data-paper-data="{&quot;index&quot;:null}" fill="#ffd268" stroke="none" stroke-width="0.5" stroke-linecap="butt"/><path d="M153.44506,180.06509v-27.4423" fill="none" stroke="#e0a00b" stroke-width="1.5" stroke-linecap="round"/><path d="M141.51662,168.55247v12.05799" fill="none" stroke="#e0a00b" stroke-width="1.5" stroke-linecap="round"/><path d="M138.93563,166.63224c0,-1.51054 1.2245,-2.73505 2.73504,-2.73505c1.51054,0 2.73506,1.22452 2.73506,2.73505c0,1.51054 -1.22452,2.73504 -2.73506,2.73504c-1.51054,0 -2.73504,-1.2245 -2.73504,-2.73504z" fill="#ffd268" stroke="none" stroke-width="0.5" stroke-linecap="butt"/><path d="M150.29267,151.32495c0,-1.51054 1.22452,-2.73506 2.73505,-2.73506c1.51054,0 2.73506,1.22452 2.73506,2.73506c0,1.51054 -1.22452,2.73503 -2.73506,2.73503c-1.51054,0 -2.73505,-1.2245 -2.73505,-2.73503z" fill="#ffd268" stroke="none" stroke-width="0.5" stroke-linecap="butt"/><path d="M54.73359,254.63684c0,-15.90027 11.27295,-28.78997 25.17883,-28.78997c13.9059,0 25.17886,12.88972 25.17886,28.78997c0,15.90027 -11.27296,28.78993 -25.17886,28.78993c-13.90588,0 -25.17883,-12.88969 -25.17883,-28.78993z" fill="#dd9e0b" stroke="none" stroke-width="NaN" stroke-linecap="butt"/><path d="M170.3667,254.78843c0,-15.90027 11.27297,-28.78995 25.17887,-28.78995c13.9059,0 25.17882,12.88971 25.17882,28.78995c0,15.90027 -11.27294,28.78995 -25.17882,28.78995c-13.9059,0 -25.17886,-12.88971 -25.17886,-28.78995z" fill="#dd9e0b" stroke="none" stroke-width="NaN" stroke-linecap="butt"/><path d="M77.32393,283.42682v-57.57989h118.5994v57.57989z" fill="#dd9e0b" stroke="none" stroke-width="0" stroke-linecap="butt"/><path d="M61.97136,254.60256c0,-12.51729 10.14726,-22.66456 22.66456,-22.66456c12.5173,0 22.66456,10.14726 22.66456,22.66456c0,12.51729 -10.14726,22.66454 -22.66456,22.66454c-12.5173,0 -22.66456,-10.14727 -22.66456,-22.66454z" fill="#ffb80e" stroke="none" stroke-width="NaN" stroke-linecap="butt"/><path d="M166.05763,254.93543c0,-12.51729 10.14726,-22.66452 22.66457,-22.66452c12.51728,0 22.66454,10.14722 22.66454,22.66454c0,12.51729 -10.14727,22.66457 -22.66454,22.66457c-12.51729,0 -22.66457,-10.14726 -22.66457,-22.66457z" fill="#ffb80e" stroke="none" stroke-width="NaN" stroke-linecap="butt"/><path d="M82.3059,277.26714v-45.3291h106.75635v45.3291z" fill="#ffb80e" stroke="none" stroke-width="0" stroke-linecap="butt"/><path d="M70.19684,270.96656c0,-3.65484 9.12492,-6.61766 20.38102,-6.61766c11.25614,0 20.38102,2.96284 20.38102,6.61766c0,3.65484 -9.12488,6.61767 -20.38102,6.61767c-11.25614,0 -20.38102,-2.96281 -20.38102,-6.61767z" fill="#f3ae0c" stroke="none" stroke-width="NaN" stroke-linecap="butt"/><path d="M163.79605,271.06376c0,-3.65484 9.12488,-6.61766 20.38102,-6.61766c11.25612,0 20.38098,2.96284 20.38098,6.61766c0,3.65484 -9.12488,6.61767 -20.38098,6.61767c-11.25614,0 -20.38102,-2.96281 -20.38102,-6.61767z" fill="#f3ae0c" stroke="none" stroke-width="NaN" stroke-linecap="butt"/><path d="M88.48262,277.58426v-13.23535h96.00025v13.23535z" fill="#f3ae0c" stroke="none" stroke-width="0" stroke-linecap="butt"/><path d="M71.36513,254.71143c0,-11.02122 8.93444,-19.95567 19.95566,-19.95567c11.02122,0 19.95566,8.93445 19.95566,19.95567c0,11.02122 -8.93444,19.95568 -19.95566,19.95568c-11.02122,0 -19.95566,-8.93445 -19.95566,-19.95568z" fill="#dd9e0b" stroke="none" stroke-width="0" stroke-linecap="butt"/><path d="M158.77095,254.46149c0,-11.02122 8.93445,-19.95567 19.95568,-19.95567c11.02122,0 19.95567,8.93445 19.95567,19.95567c0,11.02122 -8.93445,19.95567 -19.95567,19.95567c-11.02122,0 -19.95568,-8.93445 -19.95568,-19.95567z" fill="#dd9e0b" stroke="none" stroke-width="0" stroke-linecap="butt"/><path d="M114.87967,254.58458c0,-11.02122 8.93444,-19.95566 19.95566,-19.95566c11.02122,0 19.95569,8.93444 19.95569,19.95566c0,11.02122 -8.93445,19.95569 -19.95569,19.95569c-11.02122,0 -19.95566,-8.93445 -19.95566,-19.95569z" fill="#dd9e0b" stroke="none" stroke-width="0" stroke-linecap="butt"/><path d="M79.73651,254.52019c0,-6.44985 5.22862,-11.67845 11.67845,-11.67845c6.44985,0 11.67845,5.22862 11.67845,11.67845c0,6.44985 -5.22862,11.67847 -11.67845,11.67847c-6.44985,0 -11.67845,-5.22864 -11.67845,-11.67847z" fill="#ffc43a" stroke="none" stroke-width="0" stroke-linecap="butt"/><path d="M123.5001,255.18519c0,-6.44985 5.22862,-11.67845 11.67845,-11.67845c6.44985,0 11.67845,5.22862 11.67845,11.67845c0,6.44985 -5.22862,11.67847 -11.67845,11.67847c-6.44985,0 -11.67845,-5.22864 -11.67845,-11.67847z" fill="#ffc43a" stroke="none" stroke-width="0" stroke-linecap="butt"/><path d="M167.8345,255.27939c0,-6.44985 5.22862,-11.67845 11.67845,-11.67845c6.44985,0 11.67845,5.22862 11.67845,11.67845c0,6.44985 -5.22862,11.67847 -11.67845,11.67847c-6.44985,0 -11.67845,-5.22862 -11.67845,-11.67847z" fill="#ffc43a" stroke="none" stroke-width="0" stroke-linecap="butt"/><path d="M100.27794,259.87927c-2.73506,0 -2.73505,-2.73506 -2.73505,-2.73506v-0.56267c0.00315,-6.06519 -0.54311,-7.98957 -7.0179,-7.95567c0,0 -2.73506,0 -2.73506,-2.73506c0,-2.73505 2.73506,-2.73504 2.73506,-2.73504c9.40615,0.0406 12.48361,4.44842 12.48799,13.42577v0.56267c0,0 0,2.73506 -2.73506,2.73506z" fill="#ffd268" stroke="none" stroke-width="0.5" stroke-linecap="butt"/><path d="M144.24204,259.94567c-2.73505,0 -2.73506,-2.73506 -2.73506,-2.73506v-0.56265c0.00315,-6.06517 -0.54313,-7.98957 -7.01789,-7.95571c0,0 -2.73505,0 -2.73505,-2.73505c0,-2.73505 2.73505,-2.73504 2.73505,-2.73504c9.40615,0.0406 12.48358,4.44843 12.48798,13.42579v0.56265c0,0 0,2.73505 -2.73504,2.73505z" fill="#ffd268" stroke="none" stroke-width="0.5" stroke-linecap="butt"/><path d="M188.40748,260.81763c-2.73505,0 -2.73506,-2.73505 -2.73506,-2.73505v-0.56267c0.00315,-6.06517 -0.54313,-7.98957 -7.01789,-7.9557c0,0 -2.73505,0 -2.73505,-2.73505c0,-2.73505 2.73505,-2.73504 2.73505,-2.73504c9.40615,0.0406 12.48358,4.44843 12.48798,13.42579v0.56267c0,0 0,2.73505 -2.73503,2.73505z" fill="#ffd268" stroke="none" stroke-width="0.5" stroke-linecap="butt"/><path d="M67.79161,236.80309c0.3671,6.88953 -0.28659,6.97224 -0.28659,6.97224l-0.83682,0.10591c-3.86828,0.43052 -7.80058,0.00068 -11.67469,0.49097c0,0 -0.65373,0.08272 -1.02079,-6.8068c-0.36712,-6.88953 0.28661,-6.97224 0.28661,-6.97224c3.87315,-0.49019 7.81423,0.06267 11.67471,-0.49102l0.8368,-0.10589c0,0 0.65371,-0.08272 1.02081,6.80682z" fill="#fc9b2d" stroke="none" stroke-width="0.5" stroke-linecap="butt"/><path d="M220.6284,239.05003c0.11842,6.91232 -0.53524,6.93909 -0.53524,6.93909l-0.83677,0.03427c-3.86593,0.09948 -7.76467,-0.66573 -11.63851,-0.50707c0,0 -0.65367,0.02681 -0.7721,-6.88551c-0.11842,-6.91232 0.53524,-6.93909 0.53524,-6.93909c3.87288,-0.15867 7.77596,0.7302 11.63852,0.50705l0.83677,-0.03429c0,0 0.65366,-0.02681 0.77208,6.88551z" fill="#fcbb71" stroke="none" stroke-width="0.5" stroke-linecap="butt"/><path d="M73.75227,287.23186v-8.18801h127.18699v8.18801z" fill="#b07b00" stroke="none" stroke-width="0" stroke-linecap="butt"/><path d="M135.02978,199.64457c0.89271,-0.55562 1.89634,1.05691 1.89634,1.05691c2.75171,4.54737 6.4848,8.319 9.70981,12.43064c0.25235,0.39495 0.50546,0.78933 0.75758,1.18406c0.50913,0.79709 1.33227,1.70899 2.2345,2.53048c0.13163,0.39674 0.14684,0.69422 0.14684,0.69422l-0.03293,0.25323c0.39042,1.52821 2.03004,6.19407 1.56093,7.10649c-0.43403,0.8442 -6.64336,-1.05291 -7.67218,-1.88062c-3.68311,-2.9632 -8.32193,-11.54385 -11.63934,-15.70524c-0.30139,-0.19194 -0.63931,-0.53733 -0.95614,-1.14915c-0.8673,-1.67489 0.1584,-1.99687 0.1584,-1.99687c1.48703,-0.4379 1.76485,-1.79 2.67521,-2.94383c0.01857,-0.30555 0.13446,-0.95601 0.79124,-0.82166c-0.00501,-0.30223 0.08778,-0.58315 0.36973,-0.75861z" fill="#cfcfcf" stroke="none" stroke-width="0.5" stroke-linecap="butt"/><path d="M132.42177,203.93345c-0.23072,0.19807 -0.45703,0.33795 -0.67585,0.43176c-1.68452,1.5474 -2.83509,3.81653 -3.1678,6.91454c0,0 -0.26384,2.22509 -2.48895,1.96126c-2.22509,-0.26382 -1.96127,-2.48893 -1.96127,-2.48893c0.46618,-3.66699 1.79778,-6.57394 3.7355,-8.73596c-2.07178,-2.52823 -5.49246,-6.8941 -5.17223,-7.74581c3.2117,-8.5422 8.88472,1.37714 10.89878,3.76396l0.10494,0.16285c3.28758,-1.13698 7.13576,-1.23148 11.10433,-0.30911l0.51227,0.11922c0,0 2.18237,0.50793 1.67441,2.6903c-0.50793,2.18237 -2.69031,1.67441 -2.69031,1.67441l-0.51226,-0.11923c-4.09487,-0.95452 -8.08764,-0.65777 -10.96769,1.27168c-0.10677,0.13739 -0.23685,0.27425 -0.39389,0.40905z" fill="#cfcfcf" stroke="none" stroke-width="0.5" stroke-linecap="butt"/><g fill="#ffc43a" stroke="#000000" stroke-width="0" stroke-linecap="butt"><path d="M176.01847,211.59996c4.00845,0.47272 6.17838,1.7463 7.89157,6.32817c0.39457,1.05524 1.12133,2.05849 1.17246,3.27154c0.02367,0.56185 -0.04896,1.0372 -0.20217,1.43734c0.53919,-0.08026 1.0253,-0.03037 1.33184,0.33777c2.34281,2.81371 -1.9615,3.78617 -3.63066,3.78617c-9.35127,0 -11.34848,-0.45481 -17.56319,-0.58936c-1.14722,-0.02482 -2.24463,-0.47163 -3.32083,0.00625c-0.4617,0.20502 -2.5765,0.9997 -3.14473,0.4578c-0.60068,-0.07344 -1.03923,-0.52074 -0.89728,-1.60699c-0.00657,-0.06294 -0.00995,-0.1269 -0.00995,-0.19167c0,-0.26585 0.05686,-0.51782 0.15854,-0.74346c0.82055,-3.55142 2.4707,-6.81642 4.10438,-10.0204c0.24257,-0.47573 0.93,-2.89602 1.50692,-3.41015c1.24111,-1.10609 3.18235,-0.874 4.64238,-1.16737c1.29918,-0.26105 4.67404,-1.09146 5.85269,0.13828c0.49757,0.51913 0.75388,1.1985 0.72866,1.80439c0.48675,0.05396 0.95012,0.11108 1.37936,0.16169z"/><path d="M187.60021,224.02901c0.10171,0.22564 0.15852,0.47759 0.15852,0.74344c0,0.06479 -0.00338,0.12873 -0.00995,0.19169c0.19252,1.4731 -0.68257,1.77112 -1.58181,1.55518c-0.70398,-0.16906 -1.42276,-0.65315 -1.65555,-1.13511c-1.79533,-3.71694 -2.34124,-8.87586 -4.99499,-12.12448c-0.25865,-0.31665 -1.91058,-0.21271 -2.01653,-0.21833c-1.78325,-0.09473 -2.85226,-0.09562 -5.16793,-0.19257c-1.85283,-0.0776 -1.97304,-2.09537 -0.83818,-3.27945c1.17865,-1.22976 4.55349,-0.39935 5.85269,-0.1383c1.46003,0.29337 3.40126,0.06129 4.64237,1.16737c0.5769,0.51412 1.26433,2.93442 1.5069,3.41015c1.63369,3.204 3.28382,6.46898 4.10441,10.0204z" data-paper-data="{&quot;index&quot;:null}"/></g><g fill="#f5bc38" stroke="none" stroke-linecap="butt"><path d="M158.01115,223.49543c0,-1.32327 2.03006,-2.396 4.53426,-2.396c2.50418,0 4.53426,1.07273 4.53426,2.396c0,1.32327 -2.03008,2.396 -4.53426,2.396c-2.50418,0 -4.53426,-1.07271 -4.53426,-2.396z" stroke-width="NaN"/><path d="M178.8345,223.53064c0,-1.32327 2.03003,-2.396 4.53421,-2.396c2.50418,0 4.53422,1.07273 4.53422,2.396c0,1.32327 -2.03002,2.39599 -4.53422,2.39599c-2.50418,0 -4.53421,-1.07271 -4.53421,-2.39599z" stroke-width="NaN"/><path d="M162.07926,225.89143v-4.792h21.3575v4.792z" stroke-width="0"/></g><path d="M159.73527,218.62361c0.52528,-0.48353 0.84516,-2.88971 1.22875,-3.77677c1.81826,-4.20487 3.91549,-6.1531 7.96461,-6.2686c0.00547,-0.00016 0.01093,-0.00032 0.01643,-0.00052c0.0494,0.01197 0.10037,0.01863 0.15252,0.01949c0.00386,0.00002 0.00773,0.00006 0.01153,0.00012c1.26677,0.0141 2.53362,0.02318 3.80044,0.02695c0.91329,1.12584 0.8942,1.84859 -0.05719,2.99124c-0.56934,0.68379 -1.6036,0.20155 -2.40865,0.21864c-2.2964,0.04875 -4.13681,0.21523 -5.68724,2.14593c-1.4788,1.84147 -4.0063,9.63435 -4.77084,11.85113c-0.25011,0.72522 -2.1835,2.74544 -2.85106,1.34239c-0.42924,-0.30425 -0.71716,-0.86542 -0.71716,-1.50737c0,-0.62427 0.2723,-1.17213 0.68207,-1.48166c0.94339,-2.06247 2.47404,-5.41206 2.63584,-5.56099z" fill="#dd9e0b" stroke="none" stroke-width="0.5" stroke-linecap="butt"/><path d="M188.44831,223.96904c0.40976,0.30949 0.68207,0.8574 0.68207,1.48168c0,0.64195 -0.28793,1.20311 -0.71716,1.50736c-0.66756,1.40305 -2.60094,-0.61718 -2.85106,-1.3424c-0.76454,-2.21678 -3.29204,-10.00964 -4.77084,-11.85111c-1.55046,-1.9307 -3.39084,-2.09718 -5.68724,-2.14593c-0.80504,-0.01709 -1.83933,0.46515 -2.40865,-0.21862c-0.88976,-1.06859 -0.96408,-1.76995 -0.22301,-2.7772c2.03668,0.00802 4.07343,0.00231 6.11004,-0.01848c0.03529,0.00564 0.07039,0.01101 0.10528,0.01605c2.75146,0.66111 4.41616,2.58856 5.89605,6.01095c0.38357,0.88706 0.70346,3.29323 1.22872,3.77677c0.16181,0.14895 1.69242,3.49852 2.63584,5.56098z" data-paper-data="{&quot;index&quot;:null}" fill="#dd9e0b" stroke="none" stroke-width="0.5" stroke-linecap="butt"/><path d="M182.13364,213.77261c-0.1475,0.35425 -0.44248,0.17713 -0.44248,0.17713l-0.11942,-0.07325c-1.83841,-0.88968 -3.57957,-1.22096 -5.44239,-1.88989c-1.04349,-0.02819 -2.09928,0.00993 -3.1741,0.00993c-2.82695,0 -5.3646,0.68217 -8.09324,1.37934c0,0 -0.32272,0.08161 -0.39067,-0.30598c-0.06794,-0.3876 0.25477,-0.4692 0.25477,-0.4692c0.25487,-0.06369 0.50808,-0.12749 0.76006,-0.19079c-0.08151,-0.27089 0.13609,-0.44513 0.13609,-0.44513c2.0317,-1.61675 4.87961,-0.87737 7.17485,-1.10708c2.89165,-0.00242 5.94144,0.35341 8.82162,0.69556l0.0394,-0.00196c0,0 0.32982,0 0.32982,0.39611c0,0.39611 -0.32982,0.39611 -0.32982,0.39611l-0.10503,-0.00196c-0.16187,-0.01967 -0.32429,-0.03934 -0.4872,-0.05894c0.0528,0.08147 0.08637,0.20124 0.0344,0.36768c-0.01886,0.06044 -0.04286,0.10733 -0.06979,0.14347c0.26076,0.10672 0.52268,0.22164 0.78626,0.3472l0.16944,0.10023c0,0 0.295,0.17713 0.1475,0.53141zM167.0172,212.03272c0.51834,-0.12325 1.03451,-0.23958 1.552,-0.34387c-0.53887,0.05092 -1.06256,0.15282 -1.552,0.34387z" fill="#dd9e0b" stroke="none" stroke-width="0.5" stroke-linecap="butt"/><g fill="#ffc43a" stroke="#000000" stroke-width="0" stroke-linecap="butt"><path d="M103.14156,211.1105c4.00845,0.47272 6.17838,1.7463 7.89157,6.32817c0.39457,1.05524 1.12133,2.05848 1.17246,3.27153c0.02367,0.56185 -0.04896,1.0372 -0.20217,1.43734c0.53919,-0.08026 1.0253,-0.03039 1.33182,0.33777c2.34281,2.81371 -1.9615,3.78618 -3.63066,3.78618c-9.35126,0 -11.34848,-0.45482 -17.56319,-0.58937c-1.14723,-0.02482 -2.24463,-0.47163 -3.32083,0.00627c-0.4617,0.20502 -2.5765,0.9997 -3.14473,0.4578c-0.60068,-0.07344 -1.03922,-0.52074 -0.89727,-1.607c-0.00657,-0.06294 -0.00995,-0.12692 -0.00995,-0.19167c0,-0.26585 0.05685,-0.51782 0.15854,-0.74346c0.82055,-3.55142 2.47069,-6.81642 4.10437,-10.0204c0.24256,-0.47573 0.93,-2.89601 1.50692,-3.41013c1.24111,-1.10609 3.18236,-0.87402 4.64239,-1.16739c1.29918,-0.26105 4.67404,-1.09146 5.85269,0.13829c0.49756,0.51913 0.75387,1.1985 0.72867,1.80438c0.48676,0.05396 0.95012,0.11108 1.37936,0.16169z"/><path d="M114.72331,223.53955c0.1017,0.22564 0.15852,0.47761 0.15852,0.74346c0,0.06479 -0.00338,0.12873 -0.00995,0.19167c0.19253,1.4731 -0.68257,1.77112 -1.58181,1.55519c-0.70397,-0.16906 -1.42275,-0.65315 -1.65553,-1.13511c-1.79533,-3.71694 -2.34124,-8.87586 -4.99501,-12.12447c-0.25865,-0.31665 -1.91056,-0.21269 -2.01651,-0.21831c-1.78325,-0.09473 -2.85226,-0.09562 -5.16796,-0.19258c-1.85283,-0.0776 -1.97304,-2.09538 -0.83816,-3.27945c1.17865,-1.22976 4.55347,-0.39937 5.85269,-0.13832c1.46003,0.29337 3.40125,0.06131 4.64236,1.16739c0.57689,0.51412 1.26434,2.93442 1.5069,3.41013c1.6337,3.204 3.28384,6.46898 4.10441,10.0204z" data-paper-data="{&quot;index&quot;:null}"/></g><g fill="#f5bc38" stroke="none" stroke-linecap="butt"><path d="M85.13424,223.00599c0,-1.32327 2.03006,-2.39599 4.53425,-2.39599c2.50418,0 4.53426,1.07272 4.53426,2.39599c0,1.32327 -2.03007,2.39598 -4.53426,2.39598c-2.50418,0 -4.53425,-1.07271 -4.53425,-2.39598z" stroke-width="NaN"/><path d="M105.95757,223.04118c0,-1.32327 2.03004,-2.39597 4.53424,-2.39597c2.50418,0 4.53422,1.07272 4.53422,2.39597c0,1.32327 -2.03002,2.39599 -4.53422,2.39599c-2.50418,0 -4.53424,-1.07271 -4.53424,-2.39599z" stroke-width="NaN"/><path d="M89.20233,225.40199v-4.79199h21.3575v4.79199z" stroke-width="0"/></g><path d="M86.85838,218.13417c0.52528,-0.48353 0.84516,-2.88971 1.22874,-3.77677c1.81826,-4.20489 3.91548,-6.1531 7.96461,-6.2686c0.00548,-0.00016 0.01094,-0.00032 0.01643,-0.00052c0.0494,0.01197 0.10039,0.01865 0.15252,0.01951c0.00387,0.00002 0.00773,0.00003 0.01151,0.0001c1.26677,0.0141 2.53362,0.02318 3.80044,0.02695c0.91329,1.12584 0.89421,1.84859 -0.0572,2.99124c-0.56934,0.68379 -1.60359,0.20154 -2.40864,0.21862c-2.2964,0.04875 -4.13682,0.21524 -5.68725,2.14594c-1.4788,1.84147 -4.0063,9.63435 -4.77084,11.85113c-0.25011,0.72522 -2.18349,2.74545 -2.85105,1.34238c-0.42924,-0.30425 -0.71717,-0.86541 -0.71717,-1.50736c0,-0.62427 0.27231,-1.17216 0.68207,-1.48168c0.94339,-2.06247 2.47402,-5.41206 2.63584,-5.56097z" fill="#dd9e0b" stroke="none" stroke-width="0.5" stroke-linecap="butt"/><path d="M115.57138,223.4796c0.40976,0.30949 0.68207,0.85738 0.68207,1.48166c0,0.64195 -0.28795,1.20312 -0.71717,1.50737c-0.66756,1.40305 -2.60094,-0.61718 -2.85106,-1.3424c-0.76454,-2.21678 -3.29203,-10.00963 -4.77084,-11.85112c-1.55046,-1.9307 -3.39084,-2.09718 -5.68726,-2.14595c-0.80504,-0.01709 -1.8393,0.46516 -2.40863,-0.21862c-0.88975,-1.06859 -0.9641,-1.76995 -0.22301,-2.7772c2.03668,0.00802 4.07343,0.00231 6.11004,-0.01848c0.03529,0.00564 0.07038,0.011 0.10528,0.01607c2.75146,0.66111 4.41618,2.58856 5.89608,6.01095c0.38357,0.88706 0.70345,3.29324 1.2287,3.77677c0.16182,0.14895 1.69243,3.4985 2.63584,5.56096z" data-paper-data="{&quot;index&quot;:null}" fill="#dd9e0b" stroke="none" stroke-width="0.5" stroke-linecap="butt"/><path d="M109.25672,213.28317c-0.1475,0.35425 -0.44248,0.17715 -0.44248,0.17715l-0.11942,-0.07325c-1.83841,-0.88968 -3.57957,-1.22096 -5.44239,-1.88989c-1.04349,-0.02819 -2.09927,0.00993 -3.1741,0.00993c-2.82695,0 -5.36459,0.68217 -8.09324,1.37934c0,0 -0.32273,0.08159 -0.39068,-0.306c-0.06794,-0.3876 0.25477,-0.4692 0.25477,-0.4692c0.25487,-0.06369 0.50809,-0.12749 0.76006,-0.19079c-0.08151,-0.27089 0.13608,-0.44513 0.13608,-0.44513c2.03171,-1.61675 4.87963,-0.87737 7.17485,-1.10709c2.89164,-0.00242 5.94144,0.35342 8.82161,0.69557l0.03941,-0.00197c0,0 0.32982,0 0.32982,0.39611c0,0.39611 -0.32982,0.3961 -0.32982,0.3961l-0.10502,-0.00197c-0.16187,-0.01967 -0.32429,-0.03933 -0.4872,-0.05893c0.0528,0.08147 0.08637,0.20124 0.0344,0.36767c-0.01886,0.06044 -0.04286,0.10732 -0.06979,0.14347c0.26077,0.10672 0.52269,0.22164 0.78627,0.3472l0.16944,0.10022c0,0 0.29498,0.17715 0.14748,0.53141zM94.1403,211.54328c0.51834,-0.12325 1.03451,-0.23956 1.55198,-0.34387c-0.53887,0.05092 -1.06254,0.15282 -1.55198,0.34387z" fill="#dd9e0b" stroke="none" stroke-width="0.5" stroke-linecap="butt"/><path d="M177.72218,156.15928v-98.7121h263.68464v98.7121z" fill="#f5f5f5" stroke="#373737" stroke-width="3" stroke-linecap="butt"/><text transform="translate(187.94973,77.72593) scale(0.34192,0.34192)" font-size="40" xml:space="preserve" fill="#373737" fill-rule="nonzero" stroke="none" stroke-width="1" stroke-linecap="butt" stroke-linejoin="miter" stroke-miterlimit="10" stroke-dasharray="" stroke-dashoffset="0" font-family="Pixel" font-weight="normal" text-anchor="start" style="mix-blend-mode: normal"><tspan x="0" dy="0">A investida do capito inimigo</tspan><tspan x="0" dy="46.150000000000006px">te derruba para uma caverna</tspan><tspan x="0" dy="46.150000000000006px">aparentemente abandonada...</tspan><tspan x="0" dy="46.150000000000006px"> </tspan><tspan x="0" dy="46.150000000000006px">Exceto pela presena do capito...</tspan></text></g></g></svg>