<svg version="1.1" xmlns="http://www.w3.org/2000/svg" xmlns:xlink="http://www.w3.org/1999/xlink" width="279.70272" height="78.94227" viewBox="0,0,279.70272,78.94227"><g transform="translate(95.1129,-98.55319)"><g data-paper-data="{&quot;isPaintingLayer&quot;:true}" fill-rule="nonzero" stroke="none" stroke-linecap="butt" stroke-linejoin="miter" stroke-miterlimit="10" stroke-dasharray="" stroke-dashoffset="0" style="mix-blend-mode: normal"><g><g data-paper-data="{&quot;index&quot;:null}" fill="#fbfbfb"><path d="M-95.11289,153.62948v-54.97136h268.54299v54.97136z" stroke-width="NaN"/><path d="M164.85204,126.06144c0,-15.16476 4.41845,-27.45822 9.86889,-27.45822c5.45045,0 9.8689,12.29347 9.8689,27.45822c0,15.16476 -4.41847,27.45822 -9.8689,27.45822c-5.45045,0 -9.86889,-12.29347 -9.86889,-27.45822z" stroke-width="0"/></g><g data-paper-data="{&quot;index&quot;:null}" fill="#f6f6f6"><path d="M-87.84384,152.91296v-29.55227h258.76908v29.55227z" stroke-width="NaN"/><path d="M162.65938,138.09255c0,-8.15248 4.25764,-14.76137 9.50972,-14.76137c5.25208,0 9.5097,6.60888 9.5097,14.76138c0,8.15248 -4.25762,14.76137 -9.5097,14.76137c-5.25208,0 -9.50972,-6.60888 -9.50972,-14.76137z" stroke-width="0"/></g></g><path d="M-4.98248,153.49921v-29.789h173.62503v29.789z" fill="#f6f6f6" stroke-width="NaN"/><text transform="translate(6.34755,107.81994) scale(0.1835,0.1835)" font-size="40" xml:space="preserve" fill="#2f2c33" fill-rule="nonzero" stroke="none" stroke-width="1" stroke-linecap="butt" stroke-linejoin="miter" stroke-miterlimit="10" stroke-dasharray="" stroke-dashoffset="0" font-family="Pixel" font-weight="normal" text-anchor="start" style="mix-blend-mode: normal"><tspan x="0" dy="0">Dica: Você desbloqueou a relíquia</tspan><tspan x="0" dy="46.15px">Talpa. Clique na caixa de relíquias</tspan><tspan x="0" dy="46.15px">acima para selecioná-la.</tspan><tspan x="0" dy="46.15px"> </tspan><tspan x="0" dy="46.15px">Enquanto se move, use a relíquia</tspan><tspan x="0" dy="46.15px">para se impulsionar para um lado.</tspan><tspan x="0" dy="46.15px"> </tspan><tspan x="0" dy="46.15px"> </tspan><tspan x="0" dy="46.15px"> </tspan></text></g></g></svg>