<svg version="1.1" xmlns="http://www.w3.org/2000/svg" xmlns:xlink="http://www.w3.org/1999/xlink" width="57.71626" height="79.91323" viewBox="0,0,57.71626,79.91323"><g transform="translate(-211.68677,-140.0434)"><g data-paper-data="{&quot;isPaintingLayer&quot;:true}" fill-rule="nonzero" stroke="none" stroke-width="0.5" stroke-linecap="butt" stroke-linejoin="miter" stroke-miterlimit="10" stroke-dasharray="" stroke-dashoffset="0" style="mix-blend-mode: normal"><path d="M257.42843,216.01933l-1.89075,0.48183l-0.04614,-0.29398l-0.33676,0.36675c-4.97828,0.05158 -10.22859,0.57878 -15.24106,0.16832c-1.1598,1.35601 -2.80391,1.35601 -2.80391,1.35601l-1.16198,-0.09709c-2.95562,-0.79965 -6.03792,-0.37358 -8.99785,-0.99312c-0.6658,-0.13936 -1.49071,-0.25021 -1.90924,-0.90978h-1.27276c-1.78777,0 -3.2963,-1.52333 -3.76973,-3.60686c-0.82501,-0.36211 -1.63878,-0.78372 -2.49354,-0.99023c0,0 -0.10016,-0.02553 -0.26492,-0.08893c-0.41369,-0.13883 -0.80492,-0.33253 -1.14581,-0.64919c-0.45037,-0.34805 -0.92017,-0.84478 -1.2624,-1.54128c-1.68924,-2.60956 -1.61385,-5.54364 -2.31194,-8.84017c-1.16947,-5.52247 -0.87144,-10.3818 -0.51628,-16.09403c0.63951,-10.28546 -1.08768,-21.37382 3.66646,-30.52398c-0.04746,-0.38844 -0.09492,-0.77689 -0.14238,-1.16533l1.54174,-4.03553c0,0 2.17195,-2.76747 4.59424,-0.95696c0.09109,-0.00751 0.14253,-0.0075 0.14253,-0.0075c5.69351,0.08794 11.2609,-2.33253 16.94223,-2.98296c7.07696,-0.81021 14.5731,-0.1825 21.49838,1.58006l1.77014,0.93077c0,0 2.80714,1.78841 2.14524,5.36523c0.44642,2.82817 1.89611,4.69908 2.3277,7.80599c0.17365,1.25005 -0.03994,2.54201 0.03157,3.80822c0.09411,1.66638 0.93959,3.7378 1.14565,5.19178c0.7244,5.11144 0.44308,10.6026 0.44308,15.80091c0,1.39747 0.02257,6.88791 -0.10497,7.64876c-0.18329,1.09337 -0.95625,1.918 -1.17722,3c-0.15458,0.75695 0.13806,1.5646 0.08587,2.34392c-0.20995,3.13539 -0.9102,6.32321 -1.68198,9.29065c-0.19948,1.21759 -0.27278,2.47292 -0.26095,3.71666v0.5c0,0 0,5 -3.92407,5c-1.15212,0 -1.96597,-0.43102 -2.54088,-1.03995c-0.33433,0.21653 -0.69627,0.37382 -1.07731,0.46102z" fill="#b33f3f"/><path d="M266.11963,149.66314c-2.73424,1.13619 -4.40345,-0.38301 -5.00763,-1.10987c-0.93031,-0.25885 -1.83875,-0.57075 -2.69406,-0.96252c-0.9343,0 -1.89085,0.16844 -2.80291,0c-0.81577,-0.15066 -1.43836,-0.74228 -2.24232,-0.93177c-1.59701,-0.37642 -4.7618,0.08724 -6.38599,0.08724c-4.45061,0 -9.21315,-0.42359 -13.62786,-0.01587c-2.85584,0.26375 -6.65907,0.87595 -9.21086,1.97035c-2.42987,1.04211 -4.32936,2.02301 -7.04151,2.60704c0,0 -3.80691,0.79097 -4.75863,-2.37289c-0.95173,-3.16386 2.85518,-3.95481 2.85518,-3.95481c2.19469,-0.43195 3.31424,-1.24826 5.29127,-2.05185c3.5148,-1.42863 8.182,-2.32759 12.09122,-2.68854c4.67976,-0.4321 9.68798,-0.01587 14.40119,-0.01587c2.45008,0 5.80437,-0.36393 8.18912,0.08724c0.81482,0.15416 1.42656,0.78112 2.24232,0.93178c0.91205,0.16844 1.86861,0 2.80291,0c1.46246,0.56671 2.96462,1.09876 4.53481,1.4078l3.11864,2.63717c0,0 1.7549,2.91693 -1.75489,4.37539z" fill="#685b4f"/><path d="M266.80034,215.23868l-2.89262,2.17848c-1.48322,0.27393 -2.89597,0.72695 -4.27008,1.20735c-0.8874,0.01446 -1.80037,-0.1068 -2.6622,0.04337c-0.77085,0.13432 -1.33535,0.65023 -2.10521,0.78736c-2.25315,0.40134 -5.44865,0.15928 -7.77574,0.19719c-4.47661,0.07294 -9.22247,0.48665 -13.67869,0.21003c-3.72249,-0.23108 -8.17908,-0.88501 -11.55507,-1.98462c-1.89896,-0.61853 -2.98381,-1.26059 -5.07971,-1.57555c0,0 -3.63664,-0.58001 -2.81604,-3.1504c0.8206,-2.57039 4.45725,-1.99038 4.45725,-1.99038c2.59138,0.42979 4.42136,1.19273 6.75671,1.99693c2.45253,0.84454 6.08097,1.2802 8.8004,1.44906c4.20383,0.26102 8.71614,-0.15483 12.94334,-0.2237c1.54265,-0.02514 4.5608,0.30042 6.06772,-0.02835c0.75861,-0.16551 1.33436,-0.65304 2.10521,-0.78736c0.86183,-0.15017 1.7748,-0.02891 2.6622,-0.04337c0.80205,-0.32969 1.65667,-0.59569 2.53346,-0.81918c0.5547,-0.59649 2.1001,-1.84948 4.72702,-0.97401c3.37202,1.12379 1.78206,3.50715 1.78206,3.50715z" data-paper-data="{&quot;index&quot;:null}" fill="#413932"/><path d="M214.06854,162.67828c-0.25634,0.29978 -0.64503,0.5112 -1.21943,0.32823c-1.33242,-0.42443 -0.99931,-2.12218 -0.99931,-2.12218c0.26481,-1.32471 0.5544,-3.58339 1.44614,-4.56037c1.29345,-1.41708 3.97145,-1.88426 5.5704,-2.6918c3.4303,-1.73243 6.82464,-1.2917 10.36485,-2.19793c1.4347,-0.36726 2.80458,-1.17478 4.26214,-1.34063c3.41032,-0.38805 6.85657,0.26314 10.25529,0.25464c3.51101,0 7.02202,0 10.53302,0c2.40898,0 4.95146,-0.37185 7.275,0.62717c2.31647,0.99597 4.93174,3.94748 5.03421,7.2248c0.03469,1.10946 0.26035,2.55717 -0.39198,3.29336c-0.73901,0.83401 -1.95471,0.56314 -2.93895,0.46575c-1.02473,-0.10139 -1.83302,-1.20846 -2.8078,-1.62371c-2.05903,-0.87712 -4.16552,-0.77982 -6.20902,-1.77861c-6.39544,0.14958 -13.30026,-1.05433 -19.63293,0.01684c-2.15848,0.3651 -4.23025,1.19259 -6.3584,1.57164c-2.45593,0.43744 -4.81873,-0.14267 -7.26369,0.74303c-1.37117,0.49671 -2.5365,1.81122 -3.94238,2.11163c-0.97955,0.20932 -1.98394,-0.12718 -2.97591,-0.19078c-0.00002,-0.04359 -0.00046,-0.08728 -0.00128,-0.13108z" fill="#f3eae0"/><path d="M214.72649,202.42346c0.98847,-0.11702 1.98044,-0.4472 2.96543,-0.35104c1.41368,0.138 2.6203,1.08133 4.00574,1.37441c2.4704,0.52259 4.81087,-0.0896 7.27759,0.08352c2.13749,0.15 4.23334,0.65272 6.40066,0.78981c6.35862,0.4022 13.21425,-1.00455 19.60544,-1.32361c2.00794,-0.91618 4.1146,-0.98391 6.14203,-1.80649c0.95982,-0.38942 1.73078,-1.30575 2.75074,-1.4544c0.97965,-0.14278 2.18476,-0.43628 2.94996,0.16225c0.67545,0.52833 0.49741,1.67001 0.49902,2.53552c0.00476,2.5567 -2.51035,5.03101 -4.79097,5.96358c-2.28758,0.93543 -4.83857,0.81924 -7.24412,0.98326c-3.50599,0.23905 -7.01198,0.47809 -10.51797,0.71714c-3.39414,0.2248 -6.81421,0.96605 -10.23233,0.89634c-1.4609,-0.0298 -2.85521,-0.56476 -4.29986,-0.75281c-3.56476,-0.464 -6.93985,0.10998 -10.42185,-1.00428c-1.62306,-0.51939 -4.31249,-0.70052 -5.65039,-1.71494c-0.92239,-0.69937 -1.28537,-2.43688 -1.59308,-3.44946c0,0 -0.3881,-1.29816 0.92854,-1.71908c0.5676,-0.18146 0.96264,-0.04344 1.22841,0.17234c-0.00061,-0.03413 -0.0016,-0.06815 -0.003,-0.10206z" data-paper-data="{&quot;index&quot;:null}" fill="#e3dad1"/><path d="M238.03613,175.98151c0.12383,0.26083 0.20936,0.62112 0.20936,1.11883c0,1.80275 -1.12214,1.80275 -1.12214,1.80275c-0.9967,-0.11681 -3.47413,0.2995 -2.90627,-3.49991c0.21084,-1.41065 1.44484,-1.7409 2.16725,-2.61134l1.41229,2.14519c0,0 0.21216,0.45445 0.2395,1.04448z" fill="#b33f3f"/><path d="M240.49224,174.93704l1.41229,-2.14519c0.72242,0.87044 1.95642,1.20069 2.16725,2.61134c0.56787,3.79941 -1.90956,3.3831 -2.90626,3.49991c0,0 -1.12214,0 -1.12214,-1.80275c0,-0.4977 0.08553,-0.858 0.20936,-1.11883c0.02733,-0.59002 0.2395,-1.04448 0.2395,-1.04448z" data-paper-data="{&quot;index&quot;:null}" fill="#b33f3f"/><path d="M238.1577,182.41249c-0.13358,0.03102 -0.29483,0.01956 -0.48373,-0.0749c-0.64497,-0.32249 -0.32248,-0.96746 -0.32248,-0.96746c0.48637,-0.87727 0.67486,-1.72257 2.1183,-1.52247c0.83571,0.11585 1.69344,1.74015 1.18245,2.4785c-0.41543,0.60027 -1.89656,0.17595 -2.41767,0.07356l-0.04834,0.014c0,0 -0.01033,0 -0.02852,-0.00124z" fill="#b33f3f"/><path d="M231.38781,171.72428c-0.25026,0.62566 -0.70098,0.78358 -1.06671,0.7949c-0.00126,0.0019 -0.00252,0.00381 -0.00379,0.00571c-0.69999,1.04999 -1.74998,0.34999 -1.74998,0.34999c-0.96105,-0.64244 -1.96768,-1.7873 -3.09202,-2.12262c-0.82276,-0.24538 -1.78704,0.1854 -2.57035,-0.16612c-0.80064,-0.3593 -2.02559,-0.72045 -2.09429,-1.59533c-0.07689,-0.97921 0.9662,-1.80191 1.78491,-2.34458c0.32696,-0.21672 0.77299,0.66491 1.0925,0.43735c0.29121,-0.20741 -0.50332,-0.80576 -0.23831,-1.04574c0.70034,-0.63422 1.7004,-1.35472 2.6111,-1.10303c3.09672,0.85585 1.0243,2.19843 1.02538,3.40323c0.00013,0.14212 2.76218,1.41043 2.88107,1.48804l0.71749,0.25784c0,0 1.17167,0.46867 0.70301,1.64034z" fill="#e4c8ad"/><path d="M246.66913,169.51465l0.7175,-0.25784c0.11889,-0.07761 2.88094,-1.34592 2.88107,-1.48804c0.00108,-1.2048 -2.07134,-2.54739 1.02538,-3.40324c0.9107,-0.25169 1.91075,0.46881 2.6111,1.10303c0.265,0.23998 -0.52952,0.83833 -0.23831,1.04574c0.31951,0.22757 0.76555,-0.65407 1.09251,-0.43735c0.81871,0.54267 1.8618,1.36537 1.78491,2.34458c-0.0687,0.87487 -1.29364,1.23602 -2.09429,1.59532c-0.78332,0.35152 -1.7476,-0.07926 -2.57036,0.16612c-1.12434,0.33532 -2.13097,1.48018 -3.09202,2.12262c0,0 -1.04998,0.7 -1.74998,-0.34999c-0.00127,-0.0019 -0.00254,-0.00381 -0.0038,-0.00571c-0.36573,-0.01132 -0.81645,-0.16925 -1.06671,-0.7949c-0.46867,-1.17167 0.703,-1.64034 0.703,-1.64034z" data-paper-data="{&quot;index&quot;:null}" fill="#e4c8ad"/><path d="M249.14115,187.56173l0.40721,0.64456c0.10153,0.09925 1.93829,2.52078 2.07706,2.49011c1.1764,-0.26005 2.03795,-2.57419 3.54458,0.26346c0.44307,0.83451 -0.04357,1.96695 -0.51094,2.7881c-0.17685,0.31071 -0.93316,-0.33525 -1.07253,-0.00602c-0.15291,0.36123 0.80443,0.6056 0.66372,0.97176c-0.35234,0.91686 -0.92943,2.11346 -1.90203,2.25061c-0.86897,0.12254 -1.48701,-0.99503 -2.01128,-1.69877c-0.51292,-0.68852 -0.30136,-1.72324 -0.71922,-2.47327c-0.57102,-1.02495 -1.90684,-1.75954 -2.74229,-2.55853c0,0 -0.91091,-0.87333 -0.03758,-1.78424c0.00158,-0.00165 0.00316,-0.0033 0.00475,-0.00494c-0.06821,-0.3595 -0.01171,-0.83372 0.54484,-1.21363c1.04225,-0.71145 1.75371,0.3308 1.75371,0.3308z" data-paper-data="{&quot;index&quot;:null}" fill="#e4c8ad"/><path d="M231.64447,186.8514c0.55655,0.3799 0.61304,0.85413 0.54483,1.21363c0.00159,0.00164 0.00317,0.00329 0.00475,0.00494c0.87333,0.91091 -0.03758,1.78424 -0.03758,1.78424c-0.83545,0.79898 -2.17125,1.53357 -2.74228,2.55853c-0.41786,0.75003 -0.2063,1.78475 -0.71922,2.47327c-0.52427,0.70374 -1.14231,1.82131 -2.01128,1.69877c-0.97261,-0.13715 -1.54969,-1.33375 -1.90203,-2.25061c-0.14071,-0.36616 0.81663,-0.61053 0.66372,-0.97176c-0.13937,-0.32923 -0.89569,0.31673 -1.07254,0.00602c-0.46737,-0.82115 -0.954,-1.95358 -0.51093,-2.78809c1.50662,-2.83765 2.36817,-0.52351 3.54457,-0.26346c0.13877,0.03068 1.97553,-2.39086 2.07706,-2.49011l0.40721,-0.64456c0,0 0.71146,-1.04225 1.75371,-0.3308z" data-paper-data="{&quot;index&quot;:null}" fill="#e4c8ad"/><g fill="#e4c8ad"><path d="M243.78546,179.49065c2.3142,-0.91117 1.03126,-2.9829 0.02818,-4.62453c-2.19044,-1.55703 -6.27559,-2.24434 -8.8777,-0.93712c-1.27442,0.64024 -2.21432,3.82258 -1.78068,5.11079c0.31534,0.93683 1.52263,1.35665 2.2963,1.76232c0,0 0.62723,0.32996 0.57821,0.96299c0.08676,0.26667 0.05593,0.51104 0.05593,0.51104c-0.03412,0.27047 -0.57026,2.97926 -0.31775,3.06203c0.29124,0.09547 0.72221,0.33972 0.91393,0.1006c0.25786,-0.32161 0.0398,-1.01184 0.4238,-1.16179c0.62731,-0.24496 1.36238,0.02427 2.00922,0.21171c0.44681,0.12947 0.77933,1.19462 1.10058,0.85816c0.31665,-0.33164 0.28479,-1.09679 0.73891,-1.16032c0.67722,-0.09473 1.95152,1.46948 1.89405,0.78808c-0.12151,-1.44109 -0.61893,-2.64514 -0.43315,-4.1994l0.0168,-0.13314c0,0 0.11057,-0.87642 0.93358,-0.91775zM231.15213,179.65087c-0.80954,-2.25632 0.71443,-6.46503 2.79468,-7.56782c3.45343,-1.83078 8.53422,-0.79234 11.39389,1.34984c1.86377,2.82271 3.12587,6.32133 -0.75194,7.99185l-0.1104,0.06513c0.05267,1.26011 0.71577,3.31448 0.37057,4.10452c-0.6597,1.50978 -2.04091,1.96509 -3.44872,1.32378c0.00495,0.10459 -0.01891,0.18852 -0.11262,0.22776c-0.60515,0.25338 -1.3304,0.10385 -1.96745,-0.05292c-0.49542,-0.12191 -0.98802,-1.50018 -1.14571,-1.01496c-0.67098,2.06468 -3.84769,1.78758 -4.5522,-0.50708c-0.22348,-0.72791 0.15627,-2.23521 0.32814,-3.19231c-1.20066,-0.63704 -2.28461,-1.29635 -2.79821,-2.72781zM241.32674,186.47305c0.02665,-0.18459 0.06902,-0.33357 0.02325,-0.22994c-0.02917,0.06608 -0.032,0.14561 -0.02325,0.22994z"/><path d="M238.09091,178.93018c0.06096,0.23659 0.03602,0.52803 -0.20623,0.85025c-0.62923,0.83698 -1.46622,0.20775 -1.46622,0.20775c-0.13174,-0.09928 -0.33138,-0.24408 -0.55574,-0.41315c-0.04074,-0.02597 -0.07802,-0.05458 -0.11215,-0.08503c-0.59523,-0.45412 -1.30718,-1.04594 -1.39944,-1.41345c-0.37818,-1.50611 0.36045,-3.21402 2.2363,-3.01428c2.04137,0.21738 2.53313,2.73117 1.50349,3.86789z"/><path d="M242.02526,175.10057c1.86669,0.27242 2.15798,2.11025 1.41758,3.47526c-0.18068,0.33306 -1.01729,0.72952 -1.70666,1.02158c-0.04061,0.02103 -0.08384,0.03947 -0.12974,0.0545c-0.25932,0.10806 -0.48867,0.19872 -0.64094,0.26218c0,0 -0.96705,0.40164 -1.36868,-0.5654c-0.15463,-0.37229 -0.1064,-0.66077 0.01141,-0.87483c-0.71508,-1.35684 0.38565,-3.66972 2.41703,-3.37327z" data-paper-data="{&quot;index&quot;:null}"/></g><path d="M251.78239,146.52772c0.44313,0.96595 -0.93643,1.96987 -0.98769,3.03138c-0.13974,2.89434 1.43949,7.24981 -0.96833,9.58504c-0.65445,0.63472 -1.53184,1.1926 -2.44275,1.23025c-0.63823,0.02638 -0.99816,-0.83373 -1.59423,-1.06339c-0.85818,-0.33065 -1.33408,1.37402 -2.21144,1.64977c-1.32999,0.418 -6.05139,-1.52485 -6.84471,-2.61819c-0.90016,-1.24058 0.27399,-2.85812 -0.62457,-4.16558c-1.72819,-0.90974 -1.06241,0.51102 -1.56889,1.79468c-0.80685,2.04492 -1.88961,3.54116 -4.22369,3.34896c-2.69433,-0.22186 -2.11615,-1.6633 -3.51361,-3.3049c-0.72478,-0.8514 -2.64554,-0.10657 -3.65877,-0.94159c-0.98131,-0.80871 -0.85417,-2.39685 -1.21411,-3.61645c-0.26833,-0.9092 -2.51026,-0.75695 -3.07236,-0.75171c0,0 -0.33597,0 -0.65955,-0.17418c-0.74555,0.47604 -1.4787,1.01672 -2.21152,1.33441c0,0 -1.14893,0.4924 -1.64133,-0.65653c-0.4924,-1.14893 0.65653,-1.64133 0.65653,-1.64133c1.61922,-0.68451 2.91272,-1.99067 4.65563,-2.38793c2.47781,-0.56477 5.08142,-1.08515 7.55966,-1.68003c5.03213,-1.20793 10.50963,1.62074 15.40512,-0.01109c1.91037,-0.0211 3.64776,0.10258 5.4925,-0.42449l1.43468,-0.01208c0,0 0.48368,0 0.84929,0.30087c0.57364,0.13981 1.06561,0.47977 1.38414,1.17411z" fill="#aef0ff"/><path d="M268.10299,182.35924c0.08398,0.44289 0.25809,0.87679 0.82897,1.38921c0,0 0.88388,0.88388 0,1.76777c-0.04733,0.04733 -0.09466,0.08959 -0.14185,0.12719c0.05649,0.14249 0.08754,0.29784 0.08754,0.46045c0,0.0674 -0.00533,0.13355 -0.0156,0.19806l-0.20718,1.45023l-0.00549,-0.00078l0.00335,0.01516c-0.04524,0.26698 -0.09063,0.53029 -0.13718,0.79006c0.01679,0.30029 -0.07074,0.6296 -0.1886,0.99051c-0.05237,0.25651 -0.1073,0.50951 -0.16586,0.75916c0.1372,0.01947 0.28588,0.06513 0.44602,0.14521c1.11803,0.55902 0.55902,1.67705 0.55902,1.67705l-0.52802,0.82169l-1.255,1.04583c-0.04764,0.04027 -0.09833,0.07704 -0.15168,0.10992l-0.36558,0.73115c-0.20043,0.42281 -0.63114,0.7152 -1.13014,0.7152c-0.54616,0 -1.0105,-0.35027 -1.18066,-0.83842l-0.39251,-1.0467c-0.3776,0.05762 -0.7936,0.21013 -1.04967,-0.03257c-0.60963,-0.57778 -2.16186,-5.36641 -1.94707,-6.17619c0.08964,-0.33792 0.28962,-0.73786 0.55597,-1.11652c-0.53755,0.19407 -1.03522,0.46569 -1.42306,0.87015c-1.44739,1.50947 -2.01482,3.26899 -4.61659,2.65229c-0.8672,-0.20555 -1.92061,-0.38827 -2.42705,-1.12163c-0.30671,-0.44414 0.61083,-0.95648 0.61926,-1.49617c0.00333,-0.21306 -0.39954,0.29637 -0.59936,0.22234c-0.67633,-0.25055 -1.43656,-0.53475 -1.84626,-1.12834c-0.32547,-0.47154 0.07113,-1.17347 -0.11622,-1.71493c-0.14672,-0.42402 -0.72081,-0.61877 -0.84087,-1.05109c-0.66605,-2.39829 1.08704,-3.74756 2.59312,-5.20835c1.37209,0.50838 2.43308,1.62852 3.68955,2.37844c0.97958,0.58466 5.19321,0.11657 6.45881,0.11507c0.26245,-0.00031 0.58815,0.06796 0.92766,0.15133c-1.33696,-1.73845 -0.13809,-3.72283 -1.01113,-5.52405c-0.66717,-1.37647 -1.42556,-2.36087 -1.8452,-3.87159l-0.91831,-1.10197c-0.18403,-0.21769 -0.29498,-0.49916 -0.29498,-0.80653c0,-0.69036 0.55964,-1.25 1.25,-1.25c0.0674,0 0.13355,0.00533 0.19806,0.0156l1.45023,0.20718l-0.00615,0.04307c0.13052,0.01425 0.26007,0.03887 0.38839,0.07633c0.75525,0.22045 1.27615,0.99684 1.64692,1.69077c0.48419,0.9062 0.28998,2.9768 0.49006,4.01093c0.37008,1.91283 4.1494,4.81435 3.11113,7.17374c-0.1146,0.26041 -0.28768,0.48637 -0.49678,0.68471z" fill="#aef0ff"/><path d="M215.95127,211.63973c0.00131,-0.01691 0.00246,-0.0261 0.00246,-0.0261c0.14246,-1.08115 0.48202,-2.8205 -0.43977,-3.73847c-1.46147,-1.45543 -4.77129,-4.2366 -1.56481,-6.52554c1.70184,-1.21485 4.50964,0.41551 6.20512,0.62163c1.84838,0.22471 4.69916,-1.32368 6.27673,-0.51411c2.67251,1.37146 2.21165,2.97067 0.73821,4.84883c0.31119,0.26804 0.77809,0.42398 0.93358,0.80413c0.25897,0.63316 -0.67833,1.84657 -0.02584,2.05206c0.93494,0.29445 2.37202,-0.8679 2.93981,-0.06889c0.58679,0.82574 0.3707,2.13588 -0.0908,3.03765c-1.03007,2.01276 -4.93163,0.52059 -5.88096,1.71599c-1.65849,2.0884 -2.92073,3.97102 -6.31073,3.32646c-2.07858,-0.39521 -6.32767,-0.702 -5.23358,-4.19635c0.2021,-0.64547 1.19318,-0.63738 1.78976,-0.95608z" fill="#aef0ff"/><path d="M250.52448,155.4802c0.88388,0.88388 0,1.76777 0,1.76777l-0.72298,0.63227c-1.07532,0.47524 -2.38282,0.58758 -3.51621,0.27519c-0.60308,-0.16623 -1.22907,-0.93932 -1.76971,-0.62461c-0.3796,0.22096 -0.3865,0.84699 -0.76183,1.07513c-1.68888,1.02656 -3.71784,0.38341 -5.51947,0.21487c-0.24829,-0.41302 -1.51525,-4.79616 -1.81177,-4.88492c-2.77564,-0.83092 -2.75322,4.79326 -5.60432,5.23723c-0.79705,0.12412 -1.71907,0.21132 -2.41149,-0.20251c-0.27277,-0.16302 -0.9256,-2.18384 -1.27846,-2.67187c-1.14982,-1.59028 -1.86534,-0.5515 -3.22616,-1.4591c-0.55497,-0.37013 -0.70536,-1.13243 -1.05805,-1.69865c0,0 -0.55902,-1.11803 0.55902,-1.67705c1.11803,-0.55902 1.67705,0.55902 1.67705,0.55902c0.19147,0.96933 1.78413,0.72883 2.85939,1.58292c1.30825,1.03915 1.18018,2.35928 1.92899,3.33662c0.53773,0.70184 1.83227,-2.07258 1.86537,-2.16805c0.60638,-1.74904 1.5729,-2.97885 3.57339,-3.22728c3.64871,-0.45311 3.90703,2.39473 4.24138,5.14701c0.87209,-0.19405 2.11343,0.35995 2.84098,-0.18325c0.48043,-0.3587 0.66228,-1.11715 1.22875,-1.31357c1.97357,-0.68432 3.40333,1.48806 5.06512,0.44681l0.07325,-0.16397c0,0 0.88388,-0.88388 1.76777,0z" fill="#a5e4f3"/><path d="M266.73641,190.28075c0.38251,0.59848 1.44518,1.0264 1.26625,1.71377c-0.39417,1.51426 -2.97582,2.1403 -4.21227,1.65586c-2.74684,-1.07622 -2.27645,-2.6464 -2.26194,-4.97248c0.00133,-0.21275 0.0786,-2.17409 -0.29838,-2.38423c-0.80535,-0.44894 -1.08685,1.51146 -1.78712,2.11126c-0.94092,0.80591 -2.2501,1.1389 -3.47651,1.31427c0,0 -1.24035,0.15504 -1.39539,-1.0853c-0.15504,-1.24035 1.0853,-1.39539 1.0853,-1.39539c2.42152,-0.24048 3.76147,-4.05778 6.28176,-3.34246c1.30329,0.3699 1.78803,1.17761 1.92795,2.14295c0.03518,-0.00297 0.07077,-0.00449 0.10672,-0.00449c0.5623,0 1.03788,0.37128 1.19497,0.88206l0.35958,1.07873c0.4277,0.74823 0.74492,1.55928 1.20906,2.28548z" fill="#a5e4f3"/><path d="M266.51579,187.38068c-0.58586,-0.8788 0.06583,-1.51008 0.28201,-1.68472c-0.20762,-0.47443 -0.65783,-0.90299 -0.91646,-1.36062c-0.84714,-1.49893 -0.55067,-2.07856 -0.35916,-3.5975c0,0 0.17678,-1.23744 1.41421,-1.06066c1.23744,0.17678 1.06066,1.41421 1.06066,1.41421c-0.38476,2.29848 1.28648,2.84726 1.40597,5.1978l-1.1538,1.43818c0,0 -1.04006,0.69338 -1.73344,-0.34669zM266.88134,185.94587l0.02169,0.34332c0.01227,-0.11801 0.00338,-0.23216 -0.02169,-0.34332z" fill="#a5e4f3"/><path d="M230.58664,211.37055c0,1.25 -1.25,1.25 -1.25,1.25h-1.59247c-0.94066,-0.00932 -2.44169,-0.00032 -3.26621,0.57158c-1.36567,0.94725 -1.21486,2.58889 -3.07625,3.33493c-1.61391,0.64685 -4.75553,0.06913 -6.34257,-0.37155c0,0 -1.2019,-0.3434 -0.8585,-1.54531c0.3434,-1.2019 1.54531,-0.8585 1.54531,-0.8585c1.16984,0.34626 3.62162,0.8391 4.8047,0.42468c1.10539,-0.3872 1.56332,-2.37803 2.49739,-3.03494c1.26303,-0.88826 3.23223,-1.0096 4.69613,-1.02089h1.59247c0,0 1.25,0 1.25,1.25z" fill="#a5e4f3"/><path d="M249.69625,146.94199c0,1.25 -1.25,1.25 -1.25,1.25c-0.92894,0 -2.85317,0 -3.78211,0c-8.86854,0 -18.50337,-1.3977 -26.76333,2.28097c0,0 -1.14226,0.50767 -1.64994,-0.63459c-0.50767,-1.14226 0.63459,-1.64994 0.63459,-1.64994c8.642,-3.83345 18.50874,-2.49644 27.77867,-2.49644c0.92894,0 1.85788,0 2.78682,0h0.99529c0,0 1.25,0 1.25,1.25z" fill="#d6f8ff"/><path d="M228.79512,203.40821c0,1.25 -1.25,1.25 -1.25,1.25l-0.50223,-0.03732c-2.41902,-0.62095 -4.79997,-0.00971 -7.23537,-0.37288c-0.95165,-0.14191 -1.77187,-0.76879 -2.70157,-1.01665c-1.19112,-0.31755 -1.48982,-0.03511 -1.46125,0.9508c0,0 -0.17678,1.23744 -1.41421,1.06066c-1.23744,-0.17678 -1.06066,-1.41421 -1.06066,-1.41421c0.42297,-1.94994 0.01563,-2.41372 2.34365,-3.03037c2.09444,-0.55478 2.80941,0.72824 4.64079,0.97394c2.54231,0.34108 4.95273,-0.19812 7.49495,0.42336l-0.10411,-0.03732c0,0 1.25,0 1.25,1.25z" fill="#d6f8ff"/><path d="M264.22751,181.71085c0,1.25 -1.25,1.25 -1.25,1.25h-0.99529c-3.02784,0 -5.40092,-0.99295 -8.33817,-1.40597c0,0 -1.23744,-0.17678 -1.06066,-1.41421c0.17678,-1.23744 1.41421,-1.06066 1.41421,-1.06066c2.83271,0.4103 5.0979,1.38085 7.98462,1.38085h0.99529c0,0 1.25,0 1.25,1.25z" fill="#d6f8ff"/><path d="M264.82469,169.9664c0,1.25 -1.25,1.25 -1.25,1.25c-0.46447,0 -1.32706,0 -1.79153,0c0,0 -1.25,0 -1.25,-1.25c0,-1.25 1.25,-1.25 1.25,-1.25c0.46447,0 0.92894,0 1.39341,0h0.39812c0,0 1.25,0 1.25,1.25z" fill="#d6f8ff"/></g></g></svg>