<svg version="1.1" xmlns="http://www.w3.org/2000/svg" xmlns:xlink="http://www.w3.org/1999/xlink" width="131.02669" height="55.55692" viewBox="0,0,131.02669,55.55692"><g transform="translate(-172.16181,-196.6053)"><g data-paper-data="{&quot;isPaintingLayer&quot;:true}" fill-rule="nonzero" stroke-linejoin="miter" stroke-miterlimit="10" stroke-dasharray="" stroke-dashoffset="0" style="mix-blend-mode: normal"><path d="M271.89647,200.54641l4.2048,-0.77579c5.03922,-0.02465 10.07825,-0.02083 15.11755,-0.02061c2.45813,-0.09072 4.97652,-0.00519 6.9932,0.00001c0.03772,0.0001 0.07585,0.00014 0.11438,0.00014c1.46368,2.58053 3.01816,4.68135 4.8621,6.50112c-1.60969,3.26621 -3.30121,6.11319 -5.175,9.4136c-1.42569,2.51114 -2.2903,5.30378 -3.55124,7.90155c-2.07825,4.28156 -5.55296,8.22177 -8.17418,12.19917c-0.60934,1.69938 -2.44305,2.65889 -3.64062,4.00983c-1.27517,1.43847 -1.96569,3.31734 -3.15665,4.82627c-0.8432,1.06832 -2.3687,1.34574 -3.50112,2.10069c-0.83753,0.55835 -1.75832,1.00851 -2.51259,1.67506c-0.11142,0.09846 0.28404,0.40569 0.13657,0.42464c-0.50459,0.06486 -1.01234,-0.37228 -1.50582,-0.24864c-1.45834,0.36537 -2.73429,1.29037 -4.18765,1.67506c-3.01352,0.79765 -7.43673,-0.62309 -10.59864,-0.05131c-1.73749,0.31419 -3.31651,1.23006 -5.02518,1.67506c-1.60403,0.41775 -5.1944,-0.12913 -6.77348,-0.12913c-0.83753,0 -1.6837,-0.11996 -2.51259,0c-0.20567,0.02976 -0.26269,0.51418 -0.45228,0.42908c-0.63142,-0.28343 -0.93464,-1.10235 -1.5836,-1.34294c-2.88126,-1.06813 -5.98201,-1.42402 -8.92525,-2.30714c-3.57693,-0.11226 -7.15464,-0.13933 -10.73273,-0.1414c-2.20601,-0.59542 -4.36805,-1.37633 -6.46345,-2.26492c-1.02391,-0.43421 -1.65846,-1.49876 -2.59918,-2.09203c-4.04321,-2.54982 -9.0739,-4.26755 -12.81069,-7.14369c-1.1512,-0.88606 -1.8957,-2.22877 -3.0431,-3.11975c-2.26015,-1.75506 -4.87073,-3.01952 -7.15844,-4.73851c-4.16713,-5.58047 -10.96801,-7.46598 -14.19894,-14.17133c-1.21878,-2.52941 -2.13448,-5.10855 -2.88084,-7.72098c0.59668,-0.43735 1.21159,-0.86266 1.85529,-1.2699l2.51259,-1.67506c0,0 2.01545,-1.34364 3.40119,-3.70026c2.37231,0 4.74462,0 7.11692,0c2.59768,0 5.24961,0.4511 7.79273,0.04962c3.05762,-0.4827 6.04166,-1.4434 9.16452,-1.47819h0.94207c0,0 3.59328,0 3.62673,2.71177c5.58917,-0.3115 11.59404,0.14536 17.0988,0.14536c11.30483,0 22.60967,0 33.9145,0c3.29836,0 6.67916,-0.11106 10.06217,-0.17855c0.80733,-0.89499 2.24712,-1.16791 2.24712,-1.16791z" fill="#815400" stroke="none" stroke-width="0.5" stroke-linecap="butt"/><path d="" fill="#815400" stroke="none" stroke-width="0.5" stroke-linecap="butt"/><path d="M179.99411,200.3553h118.68241" fill="none" stroke="#815400" stroke-width="7.5" stroke-linecap="round"/></g></g></svg>