<svg version="1.1" xmlns="http://www.w3.org/2000/svg" xmlns:xlink="http://www.w3.org/1999/xlink" width="105.17142" height="98.50401" viewBox="0,0,105.17142,98.50401"><g transform="translate(-187.30203,-137.3269)"><g data-paper-data="{&quot;isPaintingLayer&quot;:true}" fill-rule="nonzero" stroke="none" stroke-linecap="butt" stroke-linejoin="miter" stroke-miterlimit="10" stroke-dasharray="" stroke-dashoffset="0" style="mix-blend-mode: normal"><path d="M292.43948,203.6025c0,17.79927 -23.47795,32.22842 -52.43947,32.22842c-28.96152,0 -52.43947,-14.42916 -52.43947,-32.22842c0,-17.79927 23.47795,-32.22842 52.43947,-32.22842c28.96152,0 52.43947,14.42916 52.43947,32.22842z" fill="#b0d869" stroke-width="0"/><path d="M283.82124,185.80067c2.04808,-1.42132 3.48174,0.60914 3.48174,0.60914l1.4572,2.06601c1.24034,1.5462 2.93102,3.36129 3.42958,5.34673c0.80509,3.20612 -0.27834,7.11462 -1.07631,10.17942c-0.95115,3.6531 -2.02322,7.76039 -4.28256,10.87186c-2.73366,3.76468 -6.89583,7.7868 -10.32915,10.89492c-10.82668,7.42959 -23.02387,9.06346 -35.94079,9.06346c-4.97033,0 -10.14867,-0.00481 -15.01194,-0.88412c-4.0418,-0.73078 -8.10164,-2.62392 -12.1346,-3.55503c-2.88718,-1.69006 -6.03334,-2.35548 -8.74594,-4.37396c-2.15447,-1.60317 -3.93187,-3.56223 -6.25117,-4.97965c-4.88983,-2.98836 -9.22984,-6.21722 -10.76304,-12.1027c-0.94043,-3.61002 0.17623,-8.74127 1.31111,-12.24898c0.95504,-2.95186 2.64299,-5.69994 4.45002,-8.18416c0,0 1.47043,-2.00446 3.49227,-0.54667c2.02184,1.45779 0.55141,3.46223 0.55141,3.46223c-1.49088,2.01205 -2.93955,4.31764 -3.71522,6.72771c-0.797,2.47633 -2.01445,6.891 -1.26739,9.47974c1.35226,4.68588 4.67566,6.79703 8.5757,9.19997c2.45347,1.51165 4.38502,3.50933 6.64132,5.24564c2.29109,1.76308 5.11954,2.22832 7.58455,3.72104c3.70523,0.81208 7.38497,2.6257 11.07188,3.26183c4.62104,0.79731 9.48861,0.82011 14.21103,0.82011c11.61088,0 23.11592,-1.13448 32.81915,-7.97868c6.0904,-5.45757 10.80921,-11.20733 12.89226,-19.13435c0.58049,-2.20903 1.60609,-5.35543 1.07244,-7.71483c-0.1913,-0.84579 -2.25079,-3.18655 -2.58692,-3.60039l-1.55105,-2.19451c0,0 -1.43366,-2.03047 0.61442,-3.45179z" fill="#95b85a" stroke-width="0.5"/><path d="M254.26629,191.36196c0.60308,1.04385 1.23275,2.05689 1.53318,3.21289c0.57189,2.20054 0.0653,5.04587 -0.49787,7.18854c-0.33111,1.25978 -0.33635,2.74712 -1.20583,3.71702c-1.49773,1.6707 -3.49471,2.90554 -5.54604,3.81466c-0.46198,0.20473 -4.78253,0.17521 -5.73775,0.17185c-3.75919,-0.01322 -6.71311,-0.65784 -10.27407,-1.87616c-0.21378,-0.07314 -0.43565,-0.13319 -0.66134,-0.18715c-0.27481,0.56288 -0.64635,1.04913 -1.17225,1.4076c-3.46792,2.36381 -8.60654,-1.12775 -9.90113,-4.10523c-1.10223,-2.5351 -0.29244,-4.81238 0.29729,-7.1713c-0.07451,-4.46788 0.025,-8.13171 4.3657,-8.97388c0.06166,-0.62862 0.13187,-1.26015 0.21146,-1.89686c0.01947,-0.15578 0.03663,-0.31289 0.05216,-0.471c-0.52353,-0.84377 -0.99832,-1.73007 -1.62767,-2.46552c-3.13579,0.00198 -6.27158,-0.00138 -9.40712,-0.02573l-2.48447,0.49689c-0.27903,0.06155 -0.569,0.09399 -0.86654,0.09399c-2.21191,0 -4.00501,-1.7931 -4.00501,-4.00501c0,-1.41222 0.73093,-2.65373 1.83511,-3.36684l1.66475,-1.10983l0.10771,0.16156c0.60461,-0.86059 1.29005,-1.68648 2.14263,-2.52188c1.41463,-1.38613 3.25106,-2.27701 4.7381,-3.58515c2.36392,-2.07951 4.59359,-4.37846 6.99763,-6.40659c0.3654,-0.30826 0.94882,-0.32885 1.2531,-0.69757c0.37852,-0.45868 0.39571,-1.12745 0.68278,-1.64827c1.45441,-2.63864 3.62506,-4.83394 5.1493,-7.43788c0.54416,-0.92963 0.84059,-2.01975 1.5334,-2.84456c0.66571,-0.79254 1.72438,-1.1684 2.45398,-1.90255c1.42509,-1.43397 2.69491,-3.29261 4.60959,-3.94158c1.46261,-0.49574 5.92338,0.02555 7.2704,0.13302c1.22298,1.14777 2.7171,2.06235 3.66895,3.44331c0.96559,1.4009 0.62996,3.37574 1.32176,4.93018c1.66529,3.74181 3.28407,7.44792 5.46567,10.95758c1.5301,2.46157 2.37938,5.31858 4.26754,7.57645c1.99484,2.38544 7.17967,5.35472 5.01103,9.57824c-0.94281,1.83615 -3.81432,1.62655 -5.8197,2.11521c-0.92647,0.22575 -1.90715,0 -2.86073,0c-1.57788,0 -3.15577,0 -4.73365,0c0.16137,1.07845 -0.00562,2.40895 0.1565,3.43287c0.22964,1.45044 0.2026,2.84503 0.01141,4.20869z" fill="#8ac12b" stroke-width="0.5"/><path d="M253.89692,200.98653c4.10504,1.92151 4.6412,9.51611 0.5639,10.78834c-3.14698,0.98194 -15.75209,-0.56323 -18.95909,-0.54201c-3.6156,0.02392 -8.21554,1.95255 -11.72379,0.40953c-3.18379,-1.40032 -0.95021,-3.70217 -1.8304,-5.67803c-0.37506,-0.84194 -1.77103,-1.42912 -1.72115,-2.31833c0.15033,-2.67982 1.64092,-2.62772 3.72451,-3.02866c0.65931,-0.36734 1.46974,-0.58389 2.34589,-0.58389c0.64819,0 1.26042,0.11853 1.80211,0.32895c8.39504,1.12294 18.65144,-2.72115 25.79804,0.6241z" fill="#7fb127" stroke-width="0.5"/><path d="M257.68775,185.43683c4.00502,0 4.00502,4.00502 4.00502,4.00502v1.14429c0,5.14554 0.11858,10.3042 0,15.4479c-0.08053,3.49325 0.42792,5.7937 -3.25951,8.10828c-1.91782,1.20381 -6.99437,0.47389 -9.32768,0.47389c-7.6286,0 -15.25719,0 -22.88579,0c-2.07015,0 -6.06574,0.17035 -7.40913,-1.17305c-1.58916,-1.58916 -0.56785,-4.46844 -1.10078,-6.65175c-0.24354,-0.99774 -0.98244,-1.84653 -1.14429,-2.86073c-0.8182,-5.12696 0.2929,-10.38789 -0.58991,-15.54687c0,0 -0.65841,-3.95052 3.2921,-4.60894c3.95052,-0.65841 4.60893,3.29209 4.60893,3.29209c0.82504,5.06198 -0.31409,10.40044 0.55438,15.34895c0.25421,1.44846 1.24367,2.58557 1.4777,3.93924c1.09339,0.05083 2.29316,0.251 2.59958,0.251c6.86574,0 13.73147,0 20.59721,0c1.71643,0 3.45073,-0.24696 5.14931,0c1.09601,0.15935 -0.23443,1.3067 -0.4003,1.12799c-0.3875,-0.41747 -0.15279,-1.13086 -0.17185,-1.70014c-0.03829,-1.14365 0,-2.28857 0,-3.43286c0,-4.00501 0,-8.01003 0,-12.01504v-1.14428c0,0 0,-4.00502 4.00502,-4.00502z" fill="#73a123" stroke-width="0.5"/><path d="M270.96621,177.28098c2.86503,1.92153 3.23923,9.51611 0.39357,10.78833c-2.19637,0.98194 -10.99384,-0.56322 -13.2321,-0.542c-2.52343,0.02392 -5.73387,1.95255 -8.18238,0.40953c-2.22206,-1.40032 -0.66317,-3.70218 -1.27749,-5.67803c-0.26176,-0.84194 -1.23606,-1.42912 -1.20125,-2.31833c0.10492,-2.67982 1.14524,-2.62772 2.59945,-3.02866c0.46015,-0.36734 1.02578,-0.58389 1.63726,-0.58389c0.4524,0 0.87968,0.11853 1.25773,0.32895c5.85915,1.12295 13.01737,-2.72115 18.0052,0.6241z" fill="#7fb127" stroke-width="0.5"/><path d="M223.97575,177.21959c0.37805,-0.21042 0.80534,-0.32895 1.25773,-0.32895c0.61148,0 1.1771,0.21654 1.63726,0.58388c1.45421,0.40094 2.49453,0.34884 2.59945,3.02866c0.03481,0.88923 -0.93947,1.47641 -1.20123,2.31833c-0.61431,1.97586 0.94458,4.27771 -1.27748,5.67803c-2.44851,1.54302 -5.65895,-0.38561 -8.18238,-0.40953c-2.23825,-0.02122 -11.03573,1.52395 -13.2321,0.54201c-2.84567,-1.27222 -2.47146,-8.86683 0.39356,-10.78834c4.98783,-3.34525 12.14605,0.49885 18.0052,-0.6241z" data-paper-data="{&quot;index&quot;:null}" fill="#7fb127" stroke-width="0.5"/><path d="M231.36909,186.58112c0,4.00502 -4.00501,4.00502 -4.00501,4.00502c-3.8143,0 -8.77289,0 -12.58719,0c-0.60176,0 -6.29612,0.05694 -6.88204,-0.17185c-1.44964,-0.56606 -2.79299,-1.50965 -3.82961,-2.67038c-0.60715,-0.67983 -0.21702,-1.52063 -0.13942,-1.72004c-0.006,-0.00663 -0.01197,-0.01327 -0.0179,-0.01992c-0.05007,0.0528 -0.16827,0.19586 -0.40099,0.45759c0,0 -3.88544,-0.97135 -2.91408,-4.85679c0.40456,-1.61826 1.31462,-2.39402 2.23893,-2.74837c1.82727,-3.03187 7.15102,-8.41942 8.02182,-9.41741c5.45022,-6.24621 10.4253,-13.05383 16.74711,-18.49571c2.17352,-1.87097 3.49249,-3.53547 5.51358,-5.52782c1.07228,-1.05704 2.91001,-1.28741 3.72696,-2.55221c0.59999,-0.9289 0.48296,-2.31178 1.3071,-3.04909c1.33442,-1.19385 3.02597,-2.16241 4.79878,-2.41356c4.70834,-0.667 7.23291,3.33151 9.56533,6.4527c2.14169,4.25239 4.50881,8.45578 6.86574,12.58718c0.85204,1.49354 2.44959,2.45316 3.36955,3.90585c0.61921,0.9778 0.83137,2.16389 1.34527,3.20092c0.68761,1.38754 1.92689,2.43576 2.72307,3.76398c0.60949,1.01677 0.88173,2.22343 1.55861,3.19666c0.71515,1.02827 1.96407,1.64473 2.57066,2.74055c0.54828,0.99048 0.38193,2.24524 0.77659,3.30632c1.80593,4.85535 10.29016,7.17765 2.15924,12.98534c-1.44946,1.03531 -3.54441,0.37092 -5.32267,0.47389c-4.92255,0.28506 -9.93836,0 -14.87576,0c-0.76286,0 -1.52572,0 -2.28857,0h-0.57215c0,0 -4.00501,0 -4.00501,-4.00501c0,-4.00501 4.00501,-4.00501 4.00501,-4.00501c0.76286,0 2.09787,0 2.86073,0c3.87872,0 7.92502,-0.32788 11.84768,-0.2029c-0.60848,-0.98831 -1.08785,-1.90448 -1.27963,-2.35792c-0.3172,-0.75 0.02932,-1.70414 -0.3677,-2.41512c-0.44207,-0.79164 -1.48412,-1.09549 -2.0065,-1.8366c-0.79123,-1.12253 -1.1672,-2.49173 -1.87427,-3.66908c-0.89207,-1.48538 -2.21826,-2.69893 -2.99838,-4.24604c-0.40391,-0.80102 -0.47423,-1.75585 -0.94331,-2.52053c-0.93971,-1.53189 -2.5785,-2.559 -3.49619,-4.10417c-2.41148,-4.06038 -4.76394,-8.34996 -6.86574,-12.58718c-0.44505,-0.59001 -0.88742,-1.18207 -1.33517,-1.77005c-0.14509,-0.19054 -0.31003,-0.36746 -0.45767,-0.55607c-0.19695,0.76525 -0.37176,1.55459 -0.84457,2.17186c-1.02698,1.34079 -3.09953,1.96158 -4.28307,3.16923c-5.59352,5.70744 -11.51722,11.22609 -16.69186,17.41903c-3.83846,4.59381 -6.39586,7.8003 -10.55612,12.09981c-0.35509,0.36696 -0.91961,0.53482 -1.26185,0.89795c0.04832,0.17306 0.08774,0.3518 0.1235,0.53208c0.09775,0.04756 0.19715,0.09484 0.26041,0.14865c0,0 0.03831,0.15325 0.06929,0.4065c0.2054,-0.01608 0.42282,0.00023 0.62243,-0.00729c1.14348,-0.04308 2.28858,0 3.43287,0c3.8143,0 7.6286,0 11.4429,0h1.14429c0,0 4.00501,0 4.00501,4.00502z" fill="#73a123" stroke-width="0.5"/></g></g></svg>