<svg version="1.1" xmlns="http://www.w3.org/2000/svg" xmlns:xlink="http://www.w3.org/1999/xlink" width="76.26179" height="59.32643" viewBox="0,0,76.26179,59.32643"><g transform="translate(-202.70771,-147.61756)"><g data-paper-data="{&quot;isPaintingLayer&quot;:true}" fill-rule="nonzero" stroke-linejoin="miter" stroke-miterlimit="10" stroke-dasharray="" stroke-dashoffset="0" style="mix-blend-mode: normal"><path d="M263.97911,175.77197c0.79,-0.43218 0.23526,-1.11823 -0.19945,-1.66247c-0.8574,-0.46004 -2.35599,-0.52179 -3.23145,0.0657c-0.42878,0.28773 -0.62218,1.47347 -0.40803,1.91656c0.15573,0.32223 0.60843,0.41832 0.90473,0.52898c0,0 0.24026,0.0901 0.25134,0.31972c0.04325,0.09186 0.04325,0.18104 0.04325,0.18104c0,0.0987 -0.06983,1.09603 0.02463,1.11432c0.10894,0.0211 0.27482,0.0893 0.33285,-0.00529c0.07805,-0.12722 -0.03156,-0.36526 0.09958,-0.43653c0.21424,-0.11642 0.49048,-0.05302 0.73133,-0.01501c0.16636,0.02626 0.33408,0.3938 0.43423,0.25838c0.09871,-0.13348 0.05259,-0.40688 0.21284,-0.45028c0.23897,-0.06472 0.76761,0.43941 0.71609,0.19725c-0.10896,-0.51215 -0.3422,-0.92212 -0.34591,-1.48885v-0.04859c0,0 0,-0.31983 0.29376,-0.37197zM259.44832,176.40205c-0.39306,-0.77381 -0.03636,-2.3547 0.66092,-2.84511c1.15755,-0.81414 3.02969,-0.67138 4.154,-0.03148c0.79741,0.92949 1.40933,2.12904 0.09208,2.90485l-0.0367,0.0284c0.07602,0.45026 0.40732,1.15816 0.31912,1.4576c-0.16855,0.57223 -0.64406,0.79838 -1.17883,0.63181c0.00651,0.03734 0.00175,0.06857 -0.03014,0.08692c-0.20589,0.11844 -0.47319,0.0976 -0.70913,0.07015c-0.18349,-0.02134 -0.4229,-0.49411 -0.45755,-0.31266c-0.14746,0.77207 -1.30113,0.8165 -1.65819,0.02415c-0.11327,-0.25134 -0.04516,-0.80999 -0.0268,-1.16159c-0.46016,-0.17442 -0.87941,-0.36213 -1.12877,-0.85306zM263.41234,178.39156c0.00121,-0.06751 0.00968,-0.12295 -0.00206,-0.08365c-0.00749,0.02506 -0.0049,0.05375 0.00206,0.08365z" fill="#cfcfcf" stroke="none" stroke-width="0.5" stroke-linecap="butt"/><path d="M261.90816,175.82871c0.03262,0.08222 0.03687,0.18804 -0.03555,0.31476c-0.1881,0.32917 -0.51727,0.14108 -0.51727,0.14108c-0.05182,-0.0297 -0.13009,-0.07266 -0.21835,-0.12322c-0.01581,-0.00749 -0.0305,-0.01607 -0.04414,-0.02546c-0.2344,-0.13615 -0.51696,-0.31647 -0.56676,-0.44431c-0.2041,-0.52388 -0.01617,-1.17085 0.66671,-1.18411c0.74313,-0.01443 1.0337,0.86628 0.71536,1.32126z" fill="#cfcfcf" stroke="none" stroke-width="0.5" stroke-linecap="butt"/><path d="M263.14787,174.27477c0.68288,0.01326 0.87081,0.66023 0.66671,1.18411c-0.04981,0.12783 -0.33236,0.30815 -0.56676,0.44431c-0.01364,0.0094 -0.02833,0.01798 -0.04414,0.02545c-0.08825,0.05057 -0.16653,0.09353 -0.21835,0.12323c0,0 -0.32918,0.1881 -0.51727,-0.14108c-0.07242,-0.12672 -0.06817,-0.23254 -0.03555,-0.31477c-0.31835,-0.45498 -0.02777,-1.33569 0.71536,-1.32126z" data-paper-data="{&quot;index&quot;:null}" fill="#cfcfcf" stroke="none" stroke-width="0.5" stroke-linecap="butt"/><g fill="#db4747" stroke="#000000" stroke-width="0" stroke-linecap="butt"><path d="M263.86082,172.33035c1.83199,0.21605 2.82371,0.79811 3.60669,2.89217c0.18033,0.48228 0.51248,0.94079 0.53585,1.49519c0.01082,0.25678 -0.02238,0.47403 -0.0924,0.65691c0.24643,-0.03668 0.4686,-0.01388 0.60869,0.15437c1.07073,1.28595 -0.89646,1.7304 -1.65933,1.7304c-4.27381,0 -5.1866,-0.20787 -8.02692,-0.26936c-0.52432,-0.01135 -1.02586,-0.21555 -1.51772,0.00286c-0.21101,0.0937 -1.17754,0.45689 -1.43724,0.20923c-0.27453,-0.03357 -0.47496,-0.238 -0.41008,-0.73445c-0.003,-0.02877 -0.00455,-0.058 -0.00455,-0.0876c0,-0.1215 0.02598,-0.23666 0.07246,-0.33978c0.37502,-1.62311 1.12918,-3.11531 1.87583,-4.57963c0.11086,-0.21742 0.42504,-1.32357 0.68871,-1.55854c0.56723,-0.50551 1.45443,-0.39945 2.12171,-0.53353c0.59377,-0.11931 2.13618,-0.49883 2.67486,0.0632c0.2274,0.23726 0.34454,0.54775 0.33302,0.82466c0.22246,0.02466 0.43424,0.05077 0.63041,0.0739z"/><path d="M269.15403,178.01081c0.04648,0.10312 0.07245,0.21828 0.07245,0.33978c0,0.02961 -0.00155,0.05883 -0.00455,0.0876c0.08799,0.67325 -0.31196,0.80946 -0.72294,0.71077c-0.32174,-0.07727 -0.65024,-0.29851 -0.75663,-0.51878c-0.82052,-1.69876 -1.07002,-4.05654 -2.28287,-5.54126c-0.11821,-0.14472 -0.87319,-0.09721 -0.92161,-0.09978c-0.815,-0.04329 -1.30357,-0.0437 -2.36191,-0.08801c-0.8468,-0.03546 -0.90174,-0.95765 -0.38307,-1.49881c0.53868,-0.56204 2.08108,-0.18252 2.67486,-0.06321c0.66728,0.13408 1.55448,0.02802 2.12171,0.53353c0.26366,0.23497 0.57784,1.34112 0.6887,1.55854c0.74665,1.46433 1.50081,2.95652 1.87584,4.57963z" data-paper-data="{&quot;index&quot;:null}"/></g><g fill="#c74040" stroke="none" stroke-linecap="butt"><path d="M255.63092,177.76695c0,-0.60478 0.9278,-1.09504 2.07229,-1.09504c1.14449,0 2.07229,0.49027 2.07229,1.09504c0,0.60478 -0.9278,1.09504 -2.07229,1.09504c-1.14449,0 -2.07229,-0.49026 -2.07229,-1.09504z" stroke-width="NaN"/><path d="M265.14782,177.78304c0,-0.60478 0.92779,-1.09504 2.07228,-1.09504c1.14449,0 2.07228,0.49027 2.07228,1.09504c0,0.60478 -0.92779,1.09504 -2.07228,1.09504c-1.14449,0 -2.07228,-0.49026 -2.07228,-1.09504z" stroke-width="NaN"/><path d="M257.49016,178.862v-2.19009h9.76103v2.19009z" stroke-width="0"/></g><path d="M256.4189,175.54038c0.24007,-0.22099 0.38626,-1.32069 0.56157,-1.7261c0.831,-1.92176 1.7895,-2.81215 3.64007,-2.86494c0.0025,-0.00007 0.005,-0.00015 0.00751,-0.00024c0.02257,0.00547 0.04588,0.00852 0.06971,0.00891c0.00177,0.00001 0.00353,0.00002 0.00526,0.00005c0.57895,0.00644 1.15794,0.01059 1.73692,0.01232c0.4174,0.51454 0.40868,0.84486 -0.02614,1.36709c-0.26021,0.31251 -0.73289,0.09211 -1.10082,0.09992c-1.04953,0.02228 -1.89065,0.09837 -2.59925,0.98076c-0.67586,0.84161 -1.831,4.40319 -2.18042,5.41633c-0.11431,0.33145 -0.99793,1.25475 -1.30302,0.61351c-0.19617,-0.13905 -0.32777,-0.39552 -0.32777,-0.68891c0,-0.28531 0.12446,-0.53571 0.31173,-0.67717c0.43116,-0.94261 1.13071,-2.47348 1.20466,-2.54154z" fill="#bd2222" stroke="none" stroke-width="0.5" stroke-linecap="butt"/><path d="M269.54163,177.9834c0.18727,0.14145 0.31173,0.39185 0.31173,0.67717c0,0.29339 -0.1316,0.54986 -0.32777,0.68891c-0.3051,0.64124 -1.18871,-0.28207 -1.30302,-0.61352c-0.34942,-1.01314 -1.50456,-4.57471 -2.18042,-5.41632c-0.70861,-0.88239 -1.54972,-0.95848 -2.59925,-0.98076c-0.36793,-0.00781 -0.84062,0.21259 -1.10082,-0.09992c-0.40664,-0.48838 -0.44062,-0.80893 -0.10192,-1.26927c0.93083,0.00367 1.86168,0.00106 2.79247,-0.00845c0.01613,0.00258 0.03217,0.00503 0.04812,0.00734c1.25751,0.30215 2.01832,1.18305 2.69468,2.74719c0.1753,0.40541 0.3215,1.50511 0.56156,1.7261c0.07396,0.06807 0.77349,1.59893 1.20466,2.54154z" data-paper-data="{&quot;index&quot;:null}" fill="#bd2222" stroke="none" stroke-width="0.5" stroke-linecap="butt"/><path d="M266.65563,173.32332c-0.06741,0.16191 -0.20223,0.08096 -0.20223,0.08096l-0.05458,-0.03348c-0.84021,-0.40661 -1.63597,-0.55801 -2.48734,-0.86374c-0.4769,-0.01288 -0.95943,0.00454 -1.45066,0.00454c-1.292,0 -2.45179,0.31177 -3.69886,0.6304c0,0 -0.14749,0.03729 -0.17855,-0.13985c-0.03105,-0.17714 0.11644,-0.21444 0.11644,-0.21444c0.11648,-0.02911 0.23221,-0.05826 0.34737,-0.08719c-0.03726,-0.12381 0.06219,-0.20344 0.06219,-0.20344c0.92855,-0.7389 2.23014,-0.40098 3.27913,-0.50597c1.32157,-0.0011 2.71542,0.16152 4.03175,0.31789l0.01801,-0.0009c0,0 0.15074,0 0.15074,0.18103c0,0.18103 -0.15074,0.18103 -0.15074,0.18103l-0.048,-0.0009c-0.07398,-0.00899 -0.14821,-0.01798 -0.22267,-0.02693c0.02413,0.03723 0.03947,0.09197 0.01572,0.16804c-0.00862,0.02762 -0.01959,0.04905 -0.0319,0.06557c0.11918,0.04877 0.23889,0.10129 0.35935,0.15868l0.07744,0.04581c0,0 0.13482,0.08096 0.06741,0.24287zM259.74696,172.52814c0.2369,-0.05633 0.47281,-0.10949 0.70931,-0.15716c-0.24628,0.02327 -0.48562,0.06984 -0.70931,0.15716z" fill="#bd2222" stroke="none" stroke-width="0.5" stroke-linecap="butt"/><path d="M218.88958,176.24675c0.79,-0.43218 0.23526,-1.11823 -0.19946,-1.66247c-0.8574,-0.46004 -2.35598,-0.52179 -3.23145,0.0657c-0.42877,0.28774 -0.62218,1.47347 -0.40803,1.91656c0.15573,0.32223 0.60843,0.41832 0.90473,0.52898c0,0 0.24026,0.0901 0.25134,0.31971c0.04325,0.09186 0.04325,0.18104 0.04325,0.18104c0,0.0987 -0.06983,1.09603 0.02463,1.11432c0.10894,0.02109 0.27482,0.0893 0.33285,-0.00528c0.07805,-0.12721 -0.03156,-0.36527 0.09958,-0.43654c0.21424,-0.11642 0.49048,-0.05302 0.73133,-0.01501c0.16637,0.02626 0.33408,0.39381 0.43423,0.25838c0.09872,-0.13348 0.0526,-0.40689 0.21284,-0.45029c0.23897,-0.06472 0.76761,0.43941 0.71608,0.19725c-0.10896,-0.51215 -0.3422,-0.92212 -0.34591,-1.48885v-0.04859c0,0 0,-0.31983 0.29376,-0.37198zM214.35879,176.87683c-0.39305,-0.77381 -0.03635,-2.3547 0.66092,-2.84511c1.15755,-0.81415 3.02969,-0.67138 4.154,-0.03148c0.79741,0.92949 1.40933,2.12904 0.09208,2.90485l-0.03671,0.0284c0.07603,0.45026 0.40732,1.15817 0.31913,1.4576c-0.16855,0.57223 -0.64407,0.79838 -1.17883,0.63181c0.00652,0.03735 0.00175,0.06857 -0.03013,0.08692c-0.2059,0.11844 -0.47319,0.0976 -0.70913,0.07015c-0.18348,-0.02134 -0.4229,-0.49411 -0.45755,-0.31266c-0.14746,0.77207 -1.30113,0.8165 -1.65819,0.02415c-0.11326,-0.25135 -0.04516,-0.81 -0.0268,-1.16159c-0.46016,-0.17442 -0.87941,-0.36213 -1.12877,-0.85305zM218.32282,178.86634c0.00121,-0.06751 0.00967,-0.12295 -0.00207,-0.08365c-0.00748,0.02506 -0.0049,0.05376 0.00207,0.08365z" fill="#cfcfcf" stroke="none" stroke-width="0.5" stroke-linecap="butt"/><path d="M216.81863,176.30349c0.03262,0.08222 0.03687,0.18804 -0.03555,0.31477c-0.1881,0.32917 -0.51727,0.14107 -0.51727,0.14107c-0.05182,-0.02969 -0.1301,-0.07266 -0.21835,-0.12322c-0.01581,-0.00748 -0.0305,-0.01607 -0.04414,-0.02546c-0.23439,-0.13615 -0.51696,-0.31647 -0.56675,-0.44431c-0.2041,-0.52388 -0.01618,-1.17085 0.66671,-1.18411c0.74314,-0.01443 1.03371,0.86627 0.71536,1.32126z" fill="#cfcfcf" stroke="none" stroke-width="0.5" stroke-linecap="butt"/><path d="M218.05834,174.74955c0.68289,0.01326 0.87081,0.66023 0.66671,1.18411c-0.04981,0.12783 -0.33236,0.30816 -0.56676,0.44431c-0.01364,0.0094 -0.02833,0.01798 -0.04414,0.02546c-0.08825,0.05057 -0.16653,0.09353 -0.21835,0.12322c0,0 -0.32917,0.1881 -0.51727,-0.14107c-0.07242,-0.12672 -0.06817,-0.23254 -0.03555,-0.31477c-0.31836,-0.45499 -0.02778,-1.33569 0.71536,-1.32126z" data-paper-data="{&quot;index&quot;:null}" fill="#cfcfcf" stroke="none" stroke-width="0.5" stroke-linecap="butt"/><g fill="#db4747" stroke="#000000" stroke-width="0" stroke-linecap="butt"><path d="M218.77129,172.80514c1.83198,0.21604 2.82372,0.79811 3.6067,2.89216c0.18033,0.48228 0.51248,0.94078 0.53585,1.49519c0.01082,0.25678 -0.02238,0.47403 -0.09241,0.65691c0.24643,-0.03667 0.4686,-0.01388 0.60869,0.15437c1.07072,1.28595 -0.89646,1.73041 -1.65933,1.73041c-4.27381,0 -5.18661,-0.20787 -8.02692,-0.26936c-0.52431,-0.01135 -1.02586,-0.21555 -1.51772,0.00286c-0.21101,0.0937 -1.17753,0.45689 -1.43724,0.20922c-0.27453,-0.03356 -0.47497,-0.238 -0.41008,-0.73445c-0.00301,-0.02877 -0.00455,-0.05799 -0.00455,-0.0876c0,-0.1215 0.02598,-0.23666 0.07246,-0.33978c0.37502,-1.62311 1.12918,-3.11531 1.87584,-4.57964c0.11086,-0.21742 0.42504,-1.32357 0.68871,-1.55853c0.56723,-0.50551 1.45443,-0.39945 2.12171,-0.53353c0.59378,-0.11931 2.13618,-0.49883 2.67486,0.0632c0.2274,0.23725 0.34454,0.54775 0.33302,0.82465c0.22246,0.02466 0.43424,0.05077 0.63041,0.0739z"/><path d="M224.0645,178.48559c0.04648,0.10312 0.07245,0.21828 0.07245,0.33978c0,0.02961 -0.00155,0.05883 -0.00455,0.0876c0.08799,0.67325 -0.31197,0.80946 -0.72294,0.71077c-0.32174,-0.07727 -0.65024,-0.29852 -0.75663,-0.51878c-0.82052,-1.69876 -1.07002,-4.05655 -2.28287,-5.54126c-0.11822,-0.14472 -0.87319,-0.09721 -0.92161,-0.09978c-0.815,-0.04329 -1.30357,-0.0437 -2.36191,-0.08801c-0.8468,-0.03545 -0.90174,-0.95766 -0.38307,-1.49881c0.53868,-0.56204 2.08108,-0.18251 2.67486,-0.0632c0.66728,0.13408 1.55448,0.02802 2.12171,0.53353c0.26366,0.23497 0.57784,1.34111 0.6887,1.55854c0.74666,1.46433 1.50082,2.95653 1.87584,4.57964z" data-paper-data="{&quot;index&quot;:null}"/></g><g fill="#c74040" stroke="none" stroke-linecap="butt"><path d="M210.54139,178.24174c0,-0.60478 0.92779,-1.09504 2.07228,-1.09504c1.14449,0 2.07228,0.49027 2.07228,1.09504c0,0.60478 -0.92779,1.09504 -2.07228,1.09504c-1.14449,0 -2.07228,-0.49027 -2.07228,-1.09504z" stroke-width="NaN"/><path d="M220.05829,178.25782c0,-0.60478 0.92779,-1.09504 2.07228,-1.09504c1.14449,0 2.07228,0.49027 2.07228,1.09504c0,0.60478 -0.92779,1.09504 -2.07228,1.09504c-1.14449,0 -2.07228,-0.49027 -2.07228,-1.09504z" stroke-width="NaN"/><path d="M212.40063,179.33678v-2.19009h9.76103v2.19009z" stroke-width="0"/></g><path d="M211.32937,176.01516c0.24007,-0.22098 0.38626,-1.32069 0.56157,-1.7261c0.831,-1.92177 1.7895,-2.81214 3.64007,-2.86493c0.0025,-0.00007 0.005,-0.00015 0.00751,-0.00025c0.02257,0.00547 0.04588,0.00853 0.06972,0.00892c0.00177,0.00001 0.00352,0.00003 0.00526,0.00004c0.57895,0.00644 1.15793,0.01059 1.73692,0.01231c0.4174,0.51454 0.40869,0.84486 -0.02614,1.36709c-0.26021,0.31251 -0.73289,0.09211 -1.10082,0.09992c-1.04953,0.02228 -1.89065,0.09837 -2.59926,0.98076c-0.67586,0.84161 -1.831,4.40318 -2.18042,5.41632c-0.11431,0.33144 -0.99793,1.25475 -1.30302,0.61351c-0.19617,-0.13905 -0.32777,-0.39552 -0.32777,-0.68891c0,-0.28531 0.12446,-0.53571 0.31173,-0.67716c0.43116,-0.94261 1.1307,-2.47347 1.20465,-2.54154z" fill="#bd2222" stroke="none" stroke-width="0.5" stroke-linecap="butt"/><path d="M224.45211,178.45819c0.18727,0.14145 0.31173,0.39185 0.31173,0.67716c0,0.29338 -0.1316,0.54986 -0.32777,0.68891c-0.3051,0.64124 -1.18871,-0.28207 -1.30302,-0.61351c-0.34942,-1.01314 -1.50456,-4.57471 -2.18042,-5.41632c-0.70861,-0.88239 -1.54972,-0.95848 -2.59925,-0.98076c-0.36793,-0.00781 -0.84062,0.21259 -1.10082,-0.09992c-0.40665,-0.48839 -0.44062,-0.80893 -0.10193,-1.26927c0.93083,0.00366 1.86168,0.00107 2.79247,-0.00844c0.01613,0.00257 0.03217,0.00502 0.04812,0.00733c1.25751,0.30215 2.01832,1.18305 2.69468,2.74719c0.1753,0.40541 0.3215,1.50511 0.56156,1.7261c0.07395,0.06807 0.77349,1.59893 1.20465,2.54154z" data-paper-data="{&quot;index&quot;:null}" fill="#bd2222" stroke="none" stroke-width="0.5" stroke-linecap="butt"/><path d="M221.56611,173.7981c-0.06741,0.16192 -0.20223,0.08096 -0.20223,0.08096l-0.05458,-0.03348c-0.8402,-0.40661 -1.63597,-0.55801 -2.48734,-0.86374c-0.4769,-0.01287 -0.95943,0.00454 -1.45066,0.00454c-1.292,0 -2.45179,0.31177 -3.69887,0.6304c0,0 -0.1475,0.03729 -0.17855,-0.13985c-0.03105,-0.17715 0.11645,-0.21444 0.11645,-0.21444c0.11648,-0.02911 0.23221,-0.05826 0.34736,-0.08718c-0.03727,-0.12381 0.06219,-0.20344 0.06219,-0.20344c0.92855,-0.7389 2.23014,-0.40098 3.27913,-0.50596c1.32158,-0.0011 2.71542,0.16152 4.03175,0.31789l0.01801,-0.0009c0,0 0.15073,0 0.15073,0.18103c0,0.18103 -0.15073,0.18103 -0.15073,0.18103l-0.04801,-0.0009c-0.07397,-0.00899 -0.1482,-0.01798 -0.22267,-0.02693c0.02413,0.03723 0.03947,0.09197 0.01571,0.16804c-0.00862,0.02762 -0.01959,0.04904 -0.0319,0.06557c0.11918,0.04877 0.23888,0.10129 0.35935,0.15868l0.07744,0.0458c0,0 0.13482,0.08096 0.06741,0.24288zM214.65743,173.00292c0.2369,-0.05634 0.47281,-0.10949 0.70931,-0.15716c-0.24627,0.02327 -0.48562,0.06985 -0.70931,0.15716z" fill="#bd2222" stroke="none" stroke-width="0.5" stroke-linecap="butt"/><path d="M244.18737,170.56099c2.18195,-1.19367 0.64978,-3.08852 -0.55089,-4.59169c-2.36811,-1.27061 -6.50716,-1.44118 -8.92518,0.18147c-1.18426,0.79472 -1.71843,4.06968 -1.12696,5.29348c0.43012,0.88999 1.68047,1.15539 2.49883,1.46103c0,0 0.6636,0.24885 0.6942,0.88304c0.11946,0.25371 0.11946,0.50002 0.11946,0.50002c0,0.27261 -0.19286,3.02721 0.06802,3.07772c0.3009,0.05826 0.75905,0.24665 0.91933,-0.01459c0.21558,-0.35136 -0.08716,-1.00886 0.27505,-1.2057c0.59172,-0.32155 1.3547,-0.14645 2.01992,-0.04145c0.4595,0.07253 0.92273,1.08768 1.19934,0.71365c0.27265,-0.36867 0.14527,-1.12381 0.58786,-1.24368c0.66004,-0.17875 2.12011,1.21365 1.9778,0.5448c-0.30094,-1.41455 -0.94515,-2.54687 -0.95538,-4.11216v-0.1342c0,0 0,-0.88337 0.81136,-1.02739zM231.67345,172.30127c-1.0856,-2.13724 -0.10041,-6.50361 1.82544,-7.85811c3.19711,-2.24865 8.36792,-1.85433 11.47324,-0.08694c2.20243,2.56722 3.89252,5.88035 0.25431,8.02312l-0.10138,0.07844c0.20998,1.24361 1.12501,3.19882 0.88142,4.02585c-0.46553,1.58048 -1.77889,2.2051 -3.2559,1.74504c0.018,0.10315 0.00484,0.1894 -0.08323,0.24007c-0.56868,0.32713 -1.30694,0.26956 -1.9586,0.19376c-0.50678,-0.05894 -1.16803,-1.36471 -1.26374,-0.86357c-0.40727,2.13243 -3.59368,2.25514 -4.57987,0.06671c-0.31283,-0.69421 -0.12474,-2.23719 -0.07402,-3.20828c-1.27095,-0.48174 -2.42891,-1.00019 -3.11764,-2.35611zM242.62197,177.79624c0.00334,-0.18647 0.02672,-0.33959 -0.00571,-0.23104c-0.02067,0.06921 -0.01352,0.14847 0.00571,0.23104z" fill="#cfcfcf" stroke="none" stroke-width="0.5" stroke-linecap="butt"/><path d="M238.46745,170.71772c0.09009,0.2271 0.10183,0.51937 -0.09818,0.86938c-0.51952,0.90916 -1.42869,0.38964 -1.42869,0.38964c-0.14313,-0.08201 -0.35932,-0.20068 -0.60308,-0.34034c-0.04367,-0.02067 -0.08424,-0.04438 -0.12191,-0.07032c-0.64739,-0.37604 -1.42782,-0.87409 -1.56536,-1.22717c-0.56373,-1.44693 -0.04468,-3.23386 1.84142,-3.27049c2.05252,-0.03985 2.85507,2.39262 1.97581,3.64928z" fill="#cfcfcf" stroke="none" stroke-width="0.5" stroke-linecap="butt"/><path d="M241.89151,166.42577c1.88611,0.03662 2.40515,1.82354 1.84143,3.27049c-0.13757,0.35306 -0.91798,0.85112 -1.56537,1.22717c-0.03766,0.02595 -0.07824,0.04965 -0.1219,0.07031c-0.24375,0.13967 -0.45995,0.25832 -0.60308,0.34034c0,0 -0.90917,0.51953 -1.42869,-0.38964c-0.20001,-0.35001 -0.18827,-0.64226 -0.09818,-0.86938c-0.87929,-1.25666 -0.07672,-3.68913 1.97579,-3.64928z" data-paper-data="{&quot;index&quot;:null}" fill="#cfcfcf" stroke="none" stroke-width="0.5" stroke-linecap="butt"/><g fill="#db4747" stroke="#000000" stroke-width="0" stroke-linecap="butt"><path d="M243.86065,161.05536c5.05988,0.59671 7.79902,2.20436 9.96159,7.98807c0.49806,1.33205 1.41546,2.59841 1.48,4.12968c0.02989,0.70922 -0.06181,1.30926 -0.25522,1.81438c0.68062,-0.10129 1.29426,-0.03833 1.68118,0.42637c2.95731,3.55176 -2.47599,4.77933 -4.58301,4.77933c-11.80415,0 -14.32527,-0.57414 -22.17013,-0.74397c-1.44814,-0.03135 -2.8334,-0.59534 -4.19189,0.00789c-0.5828,0.25879 -3.25231,1.26192 -3.9696,0.57787c-0.75825,-0.0927 -1.31185,-0.65734 -1.13264,-2.02853c-0.0083,-0.07946 -0.01256,-0.16018 -0.01256,-0.24195c0,-0.33557 0.07176,-0.65366 0.20012,-0.93846c1.03579,-4.48298 3.11876,-8.60439 5.18101,-12.64882c0.3062,-0.60051 1.17396,-3.65565 1.90219,-4.30462c1.56668,-1.3962 4.01709,-1.10327 5.86011,-1.4736c1.63999,-0.32953 5.90008,-1.37776 7.38789,0.17457c0.62806,0.65529 0.9516,1.51288 0.9198,2.27767c0.61442,0.06812 1.19934,0.14022 1.74118,0.20411z"/><path d="M258.48035,176.74462c0.12838,0.28481 0.20011,0.60288 0.20011,0.93845c0,0.08177 -0.00427,0.16249 -0.01256,0.24196c0.24303,1.8595 -0.86164,2.23571 -1.99674,1.96312c-0.88865,-0.21341 -1.79595,-0.8245 -2.08979,-1.43286c-2.26626,-4.69192 -2.95536,-11.20406 -6.30522,-15.30479c-0.32651,-0.39971 -2.41172,-0.26849 -2.54546,-0.27559c-2.25101,-0.11956 -3.60042,-0.12071 -6.52352,-0.24309c-2.33884,-0.09792 -2.49057,-2.64502 -1.05803,-4.13967c1.48781,-1.55233 5.74789,-0.5041 7.38789,-0.17457c1.84301,0.37033 4.29343,0.07739 5.86011,1.47359c0.72823,0.64899 1.59598,3.70412 1.90217,4.30463c2.06224,4.04443 4.14521,8.16584 5.18101,12.64882z" data-paper-data="{&quot;index&quot;:null}"/></g><g fill="#c74040" stroke="none" stroke-linecap="butt"><path d="M221.12989,176.07109c0,-1.67038 2.56253,-3.02448 5.72359,-3.02448c3.16106,0 5.72359,1.35411 5.72359,3.02448c0,1.67038 -2.56253,3.02448 -5.72359,3.02448c-3.16106,0 -5.72359,-1.3541 -5.72359,-3.02448z" stroke-width="NaN"/><path d="M247.41529,176.11551c0,-1.67038 2.56253,-3.02448 5.72358,-3.02448c3.16105,0 5.72358,1.35411 5.72358,3.02448c0,1.67038 -2.56253,3.02448 -5.72358,3.02448c-3.16106,0 -5.72358,-1.3541 -5.72358,-3.02448z" stroke-width="NaN"/><path d="M226.26507,179.09558v-6.04896h26.95969v6.04896z" stroke-width="0"/></g><path d="M223.30627,169.92135c0.66307,-0.61035 1.06684,-3.6477 1.55103,-4.76743c2.29519,-5.30786 4.94255,-7.76706 10.05378,-7.91286c0.00689,-0.0002 0.01381,-0.00042 0.02074,-0.00068c0.06235,0.01512 0.12672,0.02355 0.19256,0.02463c0.00489,0.00003 0.00973,0.00007 0.01453,0.00012c1.59905,0.01778 3.19817,0.02926 4.79732,0.03401c1.15285,1.42115 1.12878,2.33348 -0.0722,3.77587c-0.71869,0.86315 -2.02423,0.25441 -3.04044,0.27598c-2.89879,0.06153 -5.22191,0.2717 -7.17907,2.70883c-1.86671,2.3245 -5.05717,12.16146 -6.02226,14.95973c-0.31573,0.91544 -2.75625,3.46559 -3.59891,1.69449c-0.54183,-0.38405 -0.9053,-1.09242 -0.9053,-1.90274c0,-0.78803 0.34376,-1.47962 0.86099,-1.87031c1.19086,-2.60346 3.12297,-6.83165 3.32722,-7.01965z" fill="#bd2222" stroke="none" stroke-width="0.5" stroke-linecap="butt"/><path d="M259.55089,176.66892c0.51724,0.39068 0.86099,1.08228 0.86099,1.87031c0,0.81032 -0.36348,1.51869 -0.9053,1.90274c-0.84267,1.7711 -3.28319,-0.77906 -3.59891,-1.6945c-0.96509,-2.79827 -4.15554,-12.63522 -6.02226,-14.95972c-1.95715,-2.43713 -4.28028,-2.6473 -7.17907,-2.70883c-1.01621,-0.02157 -2.32175,0.58716 -3.04044,-0.27598c-1.12315,-1.34891 -1.21698,-2.23424 -0.28151,-3.50569c2.57093,0.01012 5.14191,0.00295 7.71272,-0.02332c0.04455,0.00711 0.08886,0.01387 0.13291,0.02025c3.4732,0.83454 5.57455,3.26756 7.44263,7.58766c0.48418,1.11973 0.88796,4.15708 1.55103,4.76744c0.20425,0.18801 2.13635,4.41619 3.32722,7.01965z" data-paper-data="{&quot;index&quot;:null}" fill="#bd2222" stroke="none" stroke-width="0.5" stroke-linecap="butt"/><path d="M251.57985,163.7979c-0.18618,0.44721 -0.55855,0.22361 -0.55855,0.22361l-0.15076,-0.09247c-2.32062,-1.12305 -4.51849,-1.5412 -6.86996,-2.38562c-1.31719,-0.03556 -2.64992,0.01253 -4.00669,0.01253c-3.56847,0 -6.77178,0.86109 -10.21616,1.74116c0,0 -0.40738,0.103 -0.49315,-0.38627c-0.08576,-0.48927 0.32162,-0.59228 0.32162,-0.59228c0.32172,-0.08041 0.64137,-0.1609 0.95941,-0.2408c-0.10293,-0.34195 0.17177,-0.56189 0.17177,-0.56189c2.56463,-2.04083 6.1596,-1.10749 9.05687,-1.39746c3.65015,-0.00304 7.4999,0.4461 11.13558,0.87799l0.04974,-0.00249c0,0 0.41632,0 0.41632,0.5c0,0.5 -0.41632,0.5 -0.41632,0.5l-0.13259,-0.00248c-0.20431,-0.02483 -0.40934,-0.04965 -0.615,-0.07439c0.06664,0.10282 0.10901,0.25401 0.0434,0.46413c-0.02381,0.07628 -0.0541,0.13546 -0.08812,0.18111c0.32917,0.13469 0.65979,0.27977 0.99251,0.43826l0.21389,0.12651c0,0 0.37236,0.22361 0.18618,0.67082zM232.49828,161.60164c0.65431,-0.1556 1.30589,-0.3024 1.95909,-0.43408c-0.6802,0.06426 -1.34125,0.19291 -1.95909,0.43408z" fill="#bd2222" stroke="none" stroke-width="0.5" stroke-linecap="butt"/><g data-paper-data="{&quot;index&quot;:null}" fill="#ff3b3b" stroke="#000000" stroke-width="0" stroke-linecap="butt"><path d="M254.61901,159.93888c0.12588,0.17604 0.26227,0.36567 0.40428,0.56583c0.11799,-0.11166 0.3268,-0.11458 0.56751,0.01281c0.57022,0.30179 1.30687,1.89018 1.60253,2.4919c0.33226,0.67621 0.90212,1.47173 1.00816,2.18913c0.0493,0.33346 -0.26419,1.03165 -0.29692,1.21505c-0.22036,1.23526 -0.44886,2.48774 -0.95945,3.43138c-0.0191,0.08124 -0.05569,0.14761 -0.11043,0.19185c-0.01332,0.01078 -0.02741,0.01997 -0.04214,0.02761c-0.18549,0.2418 -0.39554,0.12777 -0.57223,-0.11812c-0.26441,-0.154 -0.66954,-1.19495 -0.75148,-1.42746c-0.19104,-0.54197 -0.57817,-0.93915 -0.89182,-1.42799c-1.69912,-2.6481 -2.32991,-3.43062 -4.84487,-7.44888c-0.44891,-0.71725 -1.40627,-2.72865 -0.19682,-2.19024c0.15823,0.07045 0.29926,0.27103 0.42774,0.51609c0.04121,-0.13243 0.11953,-0.24274 0.24159,-0.32609c0.26354,-0.17991 0.66556,-0.03458 0.98896,-0.04067c1.4042,-0.02638 2.25002,0.69407 3.42542,2.33784z"/><path d="M248.94492,157.0308c0.95198,-0.23844 2.06807,-0.0728 3.16718,0.09598c0.1632,0.02506 0.84644,-0.08235 1.10744,0.07997c0.56154,0.34923 1.03584,1.22198 1.48891,1.80054c0.40316,0.51484 1.48179,1.82681 1.54557,2.53794c0.06139,0.68473 -0.38642,0.96887 -0.9007,0.18563c-0.64275,-0.97889 -0.93043,-1.43811 -1.42953,-2.1886c-0.02964,-0.04457 -0.45249,-0.77171 -0.58727,-0.83017c-1.38263,-0.59967 -2.59173,0.02435 -3.83992,-0.12849c-0.16183,-0.01981 -0.45483,-0.24813 -0.67897,-0.52249c-0.2863,-0.35047 -0.46029,-0.7761 -0.10519,-0.93853c0.01118,-0.01331 0.02344,-0.0254 0.03679,-0.03619c0.05474,-0.04424 0.12191,-0.06173 0.19571,-0.05559z" data-paper-data="{&quot;index&quot;:null}"/></g><g data-paper-data="{&quot;index&quot;:null}" fill="#ff6e3b" stroke="#000000" stroke-width="0" stroke-linecap="butt"><path d="M224.86269,160.41951c1.17539,-1.64377 2.02122,-2.36422 3.42543,-2.33784c0.32341,0.00609 0.72542,-0.13924 0.98897,0.04067c0.12206,0.08335 0.20039,0.19367 0.24159,0.32609c0.12848,-0.24506 0.2695,-0.44564 0.42773,-0.51609c1.20944,-0.53841 0.2521,1.47298 -0.19682,2.19024c-2.51497,4.01826 -3.14576,4.80077 -4.84488,7.44888c-0.31364,0.48883 -0.70077,0.88602 -0.89182,1.42799c-0.08195,0.23251 -0.48708,1.27347 -0.75149,1.42746c-0.17668,0.24589 -0.38672,0.35992 -0.57223,0.11812c-0.01474,-0.00764 -0.02882,-0.01683 -0.04214,-0.02761c-0.05474,-0.04424 -0.09133,-0.11061 -0.11043,-0.19185c-0.5106,-0.94364 -0.73909,-2.19611 -0.95945,-3.43138c-0.03272,-0.1834 -0.34621,-0.88159 -0.29691,-1.21505c0.10604,-0.7174 0.6759,-1.51291 1.00816,-2.18912c0.29564,-0.60172 1.03231,-2.19011 1.60253,-2.49191c0.24071,-0.12739 0.44951,-0.12447 0.56751,-0.01281c0.14201,-0.20016 0.2784,-0.38978 0.40428,-0.56582z"/><path d="M230.53678,157.51136c0.0738,-0.00614 0.14098,0.01135 0.19572,0.05559c0.01335,0.01078 0.0256,0.02288 0.03679,0.03619c0.3551,0.16243 0.18111,0.58806 -0.10519,0.93853c-0.22414,0.27436 -0.51715,0.50267 -0.67898,0.52249c-1.24819,0.15284 -2.45728,-0.47118 -3.83991,0.12849c-0.13478,0.05846 -0.55763,0.7856 -0.58727,0.83017c-0.4991,0.7505 -0.78678,1.20972 -1.42953,2.18861c-0.51428,0.78324 -0.96209,0.4991 -0.9007,-0.18563c0.06378,-0.71113 1.14242,-2.0231 1.54558,-2.53794c0.45308,-0.57855 0.92736,-1.45131 1.48891,-1.80054c0.26101,-0.16232 0.94426,-0.05491 1.10745,-0.07997c1.09911,-0.16878 2.21519,-0.33441 3.16718,-0.09598z" data-paper-data="{&quot;index&quot;:null}"/></g><path d="M246.90489,162.00269v-12.54198" fill="#bd2222" stroke="#bd2222" stroke-width="1.5" stroke-linecap="round"/><path d="M242.36567,158.36486v-5.51087" fill="#bd2222" stroke="#bd2222" stroke-width="1.5" stroke-linecap="round"/><path d="M241.3835,151.97637c0,-0.69036 0.46597,-1.25 1.04079,-1.25c0.57482,0 1.04079,0.55964 1.04079,1.25c0,0.69036 -0.46597,1.25 -1.04079,1.25c-0.57482,0 -1.04079,-0.55964 -1.04079,-1.25z" fill="#fa6a6a" stroke="none" stroke-width="0.5" stroke-linecap="butt"/><path d="M245.70528,148.86756c0,-0.69036 0.46597,-1.25 1.04079,-1.25c0.57482,0 1.04079,0.55964 1.04079,1.25c0,0.69036 -0.46597,1.25 -1.04079,1.25c-0.57482,0 -1.04079,-0.55964 -1.04079,-1.25z" fill="#fa6a6a" stroke="none" stroke-width="0.5" stroke-linecap="butt"/><g fill="#bd2222" stroke="none" stroke-linecap="butt"><path d="M203.1066,191.86101c0,-7.26691 5.15208,-13.1579 11.5075,-13.1579c6.35542,0 11.50751,5.89099 11.50751,13.1579c0,7.26691 -5.15209,13.15789 -11.50751,13.15789c-6.35542,0 -11.5075,-5.89099 -11.5075,-13.15789z" stroke-width="NaN"/><path d="M255.95449,191.9303c0,-7.26691 5.15209,-13.15789 11.50751,-13.15789c6.35542,0 11.5075,5.89099 11.5075,13.15789c0,7.26691 -5.15208,13.15789 -11.5075,13.15789c-6.35542,0 -11.50751,-5.89099 -11.50751,-13.15789z" stroke-width="NaN"/><path d="M213.43108,205.01892v-26.31579h54.20357v26.31579z" stroke-width="0"/></g><g fill="#db4747" stroke="none" stroke-linecap="butt"><path d="M206.41448,191.84535c0,-5.72079 4.63761,-10.3584 10.3584,-10.3584c5.72079,0 10.3584,4.63761 10.3584,10.3584c0,5.72079 -4.63761,10.35839 -10.3584,10.35839c-5.72079,0 -10.3584,-4.63761 -10.3584,-10.35839z" stroke-width="NaN"/><path d="M253.98511,191.99748c0,-5.72079 4.63761,-10.35839 10.3584,-10.35839c5.72078,0 10.35839,4.6376 10.35839,10.35839c0,5.72079 -4.63761,10.3584 -10.35839,10.3584c-5.72079,0 -10.3584,-4.63761 -10.3584,-10.3584z" stroke-width="NaN"/><path d="M215.70799,202.20375v-20.71679h48.79094v20.71679z" stroke-width="0"/></g><g fill="#c74040" stroke="none" stroke-linecap="butt"><path d="M210.17379,199.3242c0,-1.67038 4.17036,-3.02448 9.31475,-3.02448c5.1444,0 9.31475,1.35411 9.31475,3.02448c0,1.67038 -4.17035,3.02448 -9.31475,3.02448c-5.1444,0 -9.31475,-1.3541 -9.31475,-3.02448z" stroke-width="NaN"/><path d="M252.9515,199.36862c0,-1.67038 4.17035,-3.02448 9.31475,-3.02448c5.14439,0 9.31474,1.35411 9.31474,3.02448c0,1.67038 -4.17035,3.02448 -9.31474,3.02448c-5.1444,0 -9.31475,-1.3541 -9.31475,-3.02448z" stroke-width="NaN"/><path d="M218.53094,202.34869v-6.04896h43.87507v6.04896z" stroke-width="0"/></g><path d="M210.70772,191.8951c0,-5.03704 4.08332,-9.12035 9.12035,-9.12035c5.03704,0 9.12035,4.08332 9.12035,9.12035c0,5.03704 -4.08331,9.12036 -9.12035,9.12036c-5.03704,0 -9.12035,-4.08332 -9.12035,-9.12036z" fill="#bd2222" stroke="none" stroke-width="0" stroke-linecap="butt"/><path d="M250.65487,191.78087c0,-5.03704 4.08332,-9.12035 9.12036,-9.12035c5.03703,0 9.12035,4.08332 9.12035,9.12035c0,5.03704 -4.08332,9.12035 -9.12035,9.12035c-5.03704,0 -9.12036,-4.08332 -9.12036,-9.12035z" fill="#bd2222" stroke="none" stroke-width="0" stroke-linecap="butt"/><path d="M230.59521,191.83713c0,-5.03704 4.08332,-9.12035 9.12035,-9.12035c5.03704,0 9.12036,4.08332 9.12036,9.12035c0,5.03704 -4.08332,9.12036 -9.12036,9.12036c-5.03704,0 -9.12035,-4.08332 -9.12035,-9.12036z" fill="#bd2222" stroke="none" stroke-width="0" stroke-linecap="butt"/><path d="M214.5337,191.8077c0,-2.94778 2.38964,-5.33741 5.33741,-5.33741c2.94778,0 5.33741,2.38964 5.33741,5.33741c0,2.94778 -2.38964,5.33742 -5.33741,5.33742c-2.94778,0 -5.33741,-2.38965 -5.33741,-5.33742z" fill="#fa5050" stroke="none" stroke-width="0" stroke-linecap="butt"/><path d="M234.53501,192.11163c0,-2.94778 2.38964,-5.33741 5.33741,-5.33741c2.94778,0 5.33741,2.38964 5.33741,5.33741c0,2.94778 -2.38964,5.33742 -5.33741,5.33742c-2.94778,0 -5.33741,-2.38965 -5.33741,-5.33742z" fill="#fa5050" stroke="none" stroke-width="0" stroke-linecap="butt"/><path d="M254.7972,192.15468c0,-2.94778 2.38964,-5.33741 5.33741,-5.33741c2.94778,0 5.33741,2.38964 5.33741,5.33741c0,2.94778 -2.38964,5.33742 -5.33741,5.33742c-2.94778,0 -5.33741,-2.38964 -5.33741,-5.33742z" fill="#fa5050" stroke="none" stroke-width="0" stroke-linecap="butt"/><path d="M223.92176,194.25695c-1.25,0 -1.25,-1.25 -1.25,-1.25v-0.25716c0.00144,-2.77198 -0.24822,-3.65148 -3.2074,-3.63599c0,0 -1.25,0 -1.25,-1.25c0,-1.25 1.25,-1.25 1.25,-1.25c4.2989,0.01856 5.70539,2.03307 5.7074,6.13599v0.25716c0,0 0,1.25 -1.25,1.25z" fill="#fa6a6a" stroke="none" stroke-width="0.5" stroke-linecap="butt"/><path d="M244.01471,194.28731c-1.25,0 -1.25,-1.25 -1.25,-1.25v-0.25715c0.00144,-2.77197 -0.24822,-3.65148 -3.20739,-3.636c0,0 -1.25,0 -1.25,-1.25c0,-1.25 1.25,-1.25 1.25,-1.25c4.2989,0.01856 5.70538,2.03307 5.70739,6.136v0.25715c0,0 0,1.25 -1.25,1.25z" fill="#fa6a6a" stroke="none" stroke-width="0.5" stroke-linecap="butt"/><path d="M264.19969,194.68582c-1.25,0 -1.25,-1.25 -1.25,-1.25v-0.25715c0.00144,-2.77197 -0.24822,-3.65148 -3.20739,-3.636c0,0 -1.25,0 -1.25,-1.25c0,-1.25 1.25,-1.25 1.25,-1.25c4.2989,0.01856 5.70538,2.03307 5.70739,6.136v0.25715c0,0 0,1.25 -1.25,1.25z" fill="#fa6a6a" stroke="none" stroke-width="0.5" stroke-linecap="butt"/><path d="M209.07452,183.86999c0.16778,3.14873 -0.13098,3.18653 -0.13098,3.18653l-0.38246,0.0484c-1.76793,0.19676 -3.56511,0.00031 -5.33569,0.22439c0,0 -0.29877,0.03781 -0.46654,-3.11092c-0.16778,-3.14873 0.13098,-3.18653 0.13098,-3.18653c1.77015,-0.22403 3.57134,0.02864 5.3357,-0.22441l0.38245,-0.0484c0,0 0.29876,-0.0378 0.46654,3.11093z" fill="#fc9b2d" stroke="none" stroke-width="0.5" stroke-linecap="butt"/><path d="M278.92562,184.89692c0.05412,3.15914 -0.24462,3.17138 -0.24462,3.17138l-0.38243,0.01566c-1.76684,0.04547 -3.54868,-0.30426 -5.31915,-0.23174c0,0 -0.29875,0.01225 -0.35288,-3.14689c-0.05412,-3.15914 0.24462,-3.17138 0.24462,-3.17138c1.77002,-0.07252 3.55385,0.33372 5.31915,0.23174l0.38243,-0.01567c0,0 0.29874,-0.01225 0.35287,3.14689z" fill="#fcbb71" stroke="none" stroke-width="0.5" stroke-linecap="butt"/><path d="M211.85786,206.94399v-3.74217h58.12836v3.74217z" fill="#7e1717" stroke="none" stroke-width="0" stroke-linecap="butt"/><path d="M244.54058,169.85456c2.18195,-1.19367 0.64978,-3.08852 -0.55089,-4.59169c-2.36811,-1.27061 -6.50716,-1.44118 -8.92518,0.18147c-1.18426,0.79472 -1.71843,4.06968 -1.12696,5.29348c0.43012,0.88999 1.68047,1.15539 2.49883,1.46103c0,0 0.6636,0.24885 0.6942,0.88304c0.11946,0.25371 0.11946,0.50002 0.11946,0.50002c0,0.27261 -0.19286,3.02721 0.06802,3.07772c0.3009,0.05826 0.75905,0.24665 0.91933,-0.01459c0.21558,-0.35136 -0.08716,-1.00886 0.27505,-1.2057c0.59172,-0.32155 1.3547,-0.14645 2.01992,-0.04145c0.4595,0.07253 0.92273,1.08768 1.19934,0.71365c0.27265,-0.36867 0.14527,-1.12381 0.58786,-1.24368c0.66004,-0.17875 2.12011,1.21365 1.9778,0.5448c-0.30094,-1.41455 -0.94515,-2.54687 -0.95538,-4.11216v-0.1342c0,0 0,-0.88337 0.81136,-1.02739zM232.02666,171.59485c-1.0856,-2.13724 -0.10041,-6.50361 1.82544,-7.85811c3.19711,-2.24865 8.36792,-1.85433 11.47324,-0.08694c2.20243,2.56722 3.89252,5.88035 0.25431,8.02312l-0.10138,0.07844c0.20998,1.24361 1.12501,3.19882 0.88142,4.02585c-0.46553,1.58048 -1.77889,2.2051 -3.2559,1.74504c0.018,0.10315 0.00484,0.1894 -0.08323,0.24007c-0.56868,0.32713 -1.30694,0.26956 -1.9586,0.19376c-0.50678,-0.05894 -1.16803,-1.36471 -1.26374,-0.86357c-0.40727,2.13243 -3.59368,2.25514 -4.57987,0.06671c-0.31283,-0.69421 -0.12474,-2.23719 -0.07402,-3.20828c-1.27095,-0.48174 -2.42891,-1.00019 -3.11764,-2.35611zM242.97518,177.08982c0.00334,-0.18647 0.02672,-0.33959 -0.00571,-0.23104c-0.02067,0.06921 -0.01352,0.14847 0.00571,0.23104z" fill="#cfcfcf" stroke="none" stroke-width="0.5" stroke-linecap="butt"/><path d="M238.82066,170.0113c0.09009,0.2271 0.10183,0.51937 -0.09818,0.86938c-0.51952,0.90916 -1.42869,0.38964 -1.42869,0.38964c-0.14313,-0.08201 -0.35932,-0.20068 -0.60308,-0.34034c-0.04367,-0.02067 -0.08424,-0.04438 -0.12191,-0.07032c-0.64739,-0.37604 -1.42782,-0.87409 -1.56536,-1.22717c-0.56373,-1.44693 -0.04468,-3.23386 1.84142,-3.27049c2.05252,-0.03985 2.85507,2.39262 1.97581,3.64928z" fill="#cfcfcf" stroke="none" stroke-width="0.5" stroke-linecap="butt"/><path d="M242.24472,165.71934c1.88611,0.03662 2.40515,1.82354 1.84143,3.27049c-0.13757,0.35306 -0.91798,0.85112 -1.56537,1.22717c-0.03766,0.02595 -0.07824,0.04965 -0.1219,0.07031c-0.24375,0.13967 -0.45995,0.25832 -0.60308,0.34034c0,0 -0.90917,0.51953 -1.42869,-0.38964c-0.20001,-0.35001 -0.18827,-0.64226 -0.09818,-0.86938c-0.87929,-1.25666 -0.07672,-3.68913 1.97579,-3.64928z" data-paper-data="{&quot;index&quot;:null}" fill="#cfcfcf" stroke="none" stroke-width="0.5" stroke-linecap="butt"/></g></g></svg>