<svg version="1.1" xmlns="http://www.w3.org/2000/svg" xmlns:xlink="http://www.w3.org/1999/xlink" width="423.65479" height="508.55489" viewBox="0,0,423.65479,508.55489"><defs><linearGradient x1="423.93395" y1="-13.15106" x2="423.93395" y2="373.15106" gradientUnits="userSpaceOnUse" id="color-1"><stop offset="0" stop-color="#3c3c3c"/><stop offset="1" stop-color="#1b1b1b"/></linearGradient></defs><g transform="translate(-152.96045,13.15106)"><g data-paper-data="{&quot;isPaintingLayer&quot;:true}" fill-rule="nonzero" stroke-linejoin="miter" stroke-miterlimit="10" stroke-dasharray="" stroke-dashoffset="0" style="mix-blend-mode: normal"><path d="M271.25266,373.15106v-386.30212h305.36258v386.30212z" fill="url(#color-1)" stroke="none" stroke-width="0" stroke-linecap="butt"/><path d="M251.55401,166.46407l-12.71905,-69.52562l249.88427,-45.71394l12.71905,69.52562z" fill="#f5f5f5" stroke="#373737" stroke-width="3" stroke-linecap="butt"/><text transform="translate(320.48141,134.66891) rotate(-10.36705) scale(0.95591,0.95591)" font-size="40" xml:space="preserve" fill="#373737" fill-rule="nonzero" stroke="none" stroke-width="1" stroke-linecap="butt" stroke-linejoin="miter" stroke-miterlimit="10" stroke-dasharray="" stroke-dashoffset="0" font-family="Pixel" font-weight="normal" text-anchor="start" style="mix-blend-mode: normal"><tspan x="0" dy="0">Talpa</tspan></text><path d="M315.47939,82.92805l-1.34887,-28.89183l103.84104,-4.84802l1.34887,28.89183z" fill="#f5f5f5" stroke="#373737" stroke-width="3" stroke-linecap="butt"/><text transform="translate(334.27103,73.84281) rotate(-2.67306) scale(0.40325,0.40325)" font-size="40" xml:space="preserve" fill="#373737" fill-rule="nonzero" stroke="none" stroke-width="1" stroke-linecap="butt" stroke-linejoin="miter" stroke-miterlimit="10" stroke-dasharray="" stroke-dashoffset="0" font-family="Pixel" font-weight="normal" text-anchor="start" style="mix-blend-mode: normal"><tspan x="0" dy="0">Capitão</tspan></text><g><path d="M557.59939,495.04043c0.02648,-0.17217 0.18752,-0.29027 0.35969,-0.26379c0.17217,0.02648 0.29027,0.18752 0.26379,0.35969c-0.02648,0.17217 -0.18752,0.29027 -0.35969,0.26379c-0.17217,-0.02648 -0.29027,-0.18752 -0.26379,-0.35969z" fill="#5f5f5f" stroke="none" stroke-width="0.5" stroke-linecap="butt"/><path d="M484.20778,452.5584c0.02648,-0.17217 0.18752,-0.29027 0.35969,-0.26379c0.17217,0.02648 0.29027,0.18752 0.26379,0.35969c-0.02648,0.17217 -0.18752,0.29027 -0.35969,0.26379c-0.17217,-0.02648 -0.29027,-0.18752 -0.26379,-0.35969z" fill="#5f5f5f" stroke="none" stroke-width="0.5" stroke-linecap="butt"/><g data-paper-data="{&quot;index&quot;:null}" stroke="none" stroke-width="0.5" stroke-linecap="butt"><path d="M503.52613,225.26398c9.91806,-2.45805 17.60893,1.31914 26.10796,-5.21709c0.16898,-0.80822 0.67729,-1.65323 1.86984,-2.29066c3.18939,-1.7048 4.89419,1.48458 4.89419,1.48458c1.78473,3.3389 5.77278,8.70429 6.7972,12.21424c-1.82412,-0.51599 -3.67868,-0.90012 -5.45453,-0.77729c-0.03767,-0.05105 -0.06908,-0.08453 -0.09368,-0.09579c-0.65128,-0.29772 -1.4191,0.11221 -2.13669,0.21705l-1.55796,-0.23964c-0.86085,-0.13241 -1.66603,0.4581 -1.79844,1.31894c-0.13241,0.86085 0.4581,1.66603 1.31894,1.79844l1.7538,0.26976l0.01292,-0.08398c0.0654,0.03861 0.13376,0.0729 0.20559,0.10217c0.37451,0.15265 0.7774,0.0437 1.18616,-0.07831c0.08775,0.38052 0.04943,0.86757 0.36904,1.03268c1.22463,0.63271 2.64898,1.03892 4.02455,0.95039c0.47921,-0.03084 0.22926,-1.2991 0.70742,-1.25494c0.51437,0.04751 0.35078,1.00033 0.69602,1.38457c0.25608,0.285 0.55287,0.52681 0.86188,0.75566c-0.94826,5.21538 -4.16171,10.77706 -3.76919,15.14488c0.20106,2.23725 3.6421,2.70127 5.08238,4.42501c8.39276,10.04432 12.44398,28.79673 -3.85193,32.06082c-3.51458,0.81224 -7.04707,1.06564 -10.57,1.10371c-0.03581,-0.59545 -0.01218,-1.18176 0.03218,-1.77693l0.29456,-1.91504l-0.00949,-0.00146c1.40528,-3.71591 3.61973,-6.97521 5.01417,-10.60672c0.43443,-1.13135 1.55179,-2.477 0.92711,-3.51547c-2.70422,-4.49549 -3.77343,0.03895 -5.36292,0.52373c-0.77007,0.23486 -1.81903,-0.89203 -2.393,-0.32746c-0.51025,0.50191 -0.48846,1.26244 -0.40889,2.05627c-0.273,0.90375 -0.5354,1.882 -0.75074,2.89576c-0.53141,0.18654 -1.22002,0.19835 -1.38071,0.68928c-0.41077,1.25494 0.27402,2.95878 0.86909,4.58786c0.04659,0.96546 0.19035,1.90362 0.46201,2.78163c-0.21253,0.66537 -0.42505,1.33075 -0.63759,1.99611l0.01488,0.03244c-0.01423,0.04358 -0.02627,0.08783 -0.03576,0.13288c-0.18515,0.87981 -0.24661,1.67799 -0.2058,2.42512c-2.52665,-0.04913 -5.04356,-0.14954 -7.54054,-0.17343l0.01495,-0.92711c-2.59423,-1.11073 -4.43648,-0.34433 -4.40039,-2.5854c0,0 -0.08476,-0.4053 -0.37509,-0.75712c0.2498,-1.20433 0.78911,-2.48293 0.236,-3.52677c-1.78745,-3.37338 -4.66535,-1.52989 -5.68351,0.57902c-0.61593,1.27576 -0.98958,2.76986 -0.80074,4.17388c0.05632,0.41869 0.29708,0.76773 0.60191,1.08458l-0.11621,0.75554c-0.01696,0.11024 -0.02205,0.21954 -0.01625,0.32665c-0.67663,0.31068 -1.02785,1.0074 -1.22156,1.87529c-3.44744,0.8624 -11.4128,3.66976 -13.7909,2.11284c-5.52401,-3.61649 -1.68342,-16.48718 -2.50552,-21.52034c-0.47196,-2.88952 -1.60015,-5.03737 -3.08854,-6.86422c0.69049,0.08266 1.23698,0.0735 1.54089,-0.07626c5.71585,-2.81634 0.02097,-6.71457 -2.71471,-7.63332c-0.99756,-0.33502 -2.14012,-0.64424 -3.14081,-0.31868c-0.79973,0.26019 -0.95949,1.44556 -1.67608,1.88576c-0.13293,0.08166 -0.27046,0.1563 -0.41112,0.22614c-1.12724,-0.97261 -2.25618,-2.00813 -3.32755,-3.19086c-2.29272,-6.93365 -2.10246,-11.31035 -1.01855,-18.35725l-0.84265,-0.37144c0,0 -1.52526,-3.27904 1.75378,-4.80432c1.08844,-0.5063 1.98366,-0.48322 2.69399,-0.22644c1.16865,-1.83639 3.57105,-1.46687 3.57105,-1.46687l0.11431,0.12682c6.80277,-0.62926 12.48209,-2.91974 19.05934,-4.54981zM499.18958,236.46176c1.69075,-0.27973 3.26189,-1.43064 4.97141,-1.31041c0.4633,0.03258 0.51536,0.96272 0.97889,0.99149c0.14181,0.0088 0.28333,0.01136 0.42459,0.00862l-0.01722,0.11193l2.0461,0.31472c0.86085,0.13241 1.66603,-0.4581 1.79844,-1.31894c0.11141,-0.72435 -0.289,-1.40927 -0.93164,-1.68717l-1.87053,-0.85995c-2.86066,-1.66463 -7.95884,-2.92856 -10.03008,0.37471c-0.41925,0.13517 -0.86804,0.46504 -0.98778,1.24355c-0.094,0.61115 0.08849,1.01952 0.34508,1.29019c-0.02763,0.38361 -0.05554,0.76713 -0.12015,1.13814c0,0 -0.23975,1.55869 1.31894,1.79844c1.55869,0.23975 1.79844,-1.31894 1.79844,-1.31894c0.02982,-0.23619 0.02952,-0.51712 0.02194,-0.8131z" fill="#d10000"/><path d="" fill="#d10000"/><path d="M491.72717,287.70776c-0.28465,-0.30919 -0.57227,-0.65446 -0.86317,-1.03861c-1.84466,-2.43578 1.05122,-12.07796 -0.18809,-15.86444c-0.81895,-2.50213 -2.14878,-4.7691 -3.69932,-6.93498c1.13155,0.21599 2.05592,0.28775 2.48859,0.07456c5.71585,-2.81634 0.02097,-6.71457 -2.71471,-7.63332c-0.99756,-0.33502 -2.14012,-0.64424 -3.14081,-0.31868c-0.7273,0.23661 -0.9253,1.23843 -1.49419,1.74906c-4.26949,-5.24511 -8.16164,-10.66979 -7.12733,-18.37529c0.87275,-6.50194 15.65358,-14.85223 22.05111,-11.93229c1.422,0.64903 2.12048,2.19584 2.90402,3.63714c-1.37243,0.16485 -2.59666,0.76058 -3.38374,2.01586c-0.41925,0.13517 -0.86804,0.46504 -0.98778,1.24355c-0.094,0.61115 0.08849,1.01952 0.34508,1.29019c-0.02763,0.38361 -0.05554,0.76713 -0.12015,1.13814c0,0 -0.23975,1.55869 1.31894,1.79844c1.55869,0.23975 1.79844,-1.31894 1.79844,-1.31894c0.02982,-0.23619 0.02952,-0.51712 0.02194,-0.8131l0.25356,0.03673c0.7852,-0.12991 1.54462,-0.44772 2.30406,-0.73884c1.01988,5.54855 1.49118,11.33119 3.51462,16.54732c2.59702,6.69461 6.92343,12.48958 9.92462,18.98021c1.78411,3.85844 4.75184,11.05158 1.80954,15.1661c-0.24556,0.34339 -0.62826,0.67258 -1.12099,0.98811c-0.60885,-0.2382 -0.95252,-0.64304 -0.93675,-1.62343c0,0 -0.08476,-0.4053 -0.37509,-0.75712c0.2498,-1.20433 0.78911,-2.48293 0.236,-3.52677c-1.78745,-3.37338 -4.66535,-1.52989 -5.68351,0.57902c-0.61593,1.27576 -0.98958,2.76986 -0.80074,4.17388c0.05632,0.41869 0.29708,0.76773 0.60191,1.08458l-0.11621,0.75554c-0.01696,0.11024 -0.02205,0.21954 -0.01625,0.32665c-0.67921,0.31186 -1.03052,1.01272 -1.22378,1.88525c-4.44603,1.06925 -9.17696,1.8729 -11.25883,2.46991c0,0 -3.48152,0.97859 -4.46009,-2.50291c-0.30331,-1.07921 -0.17814,-1.9179 0.13914,-2.5615z" fill="#c00000"/><path d="" fill="#c00000"/><path d="M536.00319,216.27346c1.28389,3.55269 -2.3532,4.77366 -2.3532,4.77366l-4.49868,1.50971c-9.47942,3.46979 -17.96408,2.53662 -27.64764,4.51664c-9.87452,2.01906 -20.79285,7.87083 -30.24641,11.44413c-9.45129,3.57242 -18.94492,8.88042 -28.56258,11.78854c-3.64875,1.10329 -7.63635,1.25339 -11.08761,2.84202c0,0 -3.4905,1.57006 -5.13158,-1.84276c-1.64107,-3.41283 1.84942,-4.98286 1.84942,-4.98286c3.78587,-1.67165 8.06474,-2.01446 12.04325,-3.19841c11.45707,-3.40946 22.68319,-9.71735 33.98815,-13.85946c8.03959,-2.94568 17.04975,-7.7807 25.38096,-9.5189c9.35176,-1.95112 17.66054,-0.8511 26.73275,-4.25522l4.61214,-1.54879c0,0 3.6371,-1.22099 4.92096,2.33169z" fill="#515151"/><path d="M512.38025,247.1621c0.33838,1.66418 -1.35476,2.33313 -1.35476,2.33313l-0.25725,0.10161c-3.00792,1.16573 -5.66603,0.78846 -8.60518,1.28284c-1.38973,0.23374 2.38471,1.9778 2.54192,3.37824c0.10542,0.9391 -1.4384,1.2668 -1.93857,2.06856c-0.50744,0.81339 1.78907,0.93251 2.27606,1.75832c0.70499,1.19553 1.61836,2.52529 1.45016,3.90294c-0.10299,0.8433 -1.59245,0.76095 -2.10263,1.44023c-0.37934,0.50504 0.32868,1.24047 0.66821,1.77311c0.29437,0.46176 5.42799,-1.99385 5.95053,-2.20029c0,0 0.4721,-0.18653 1.04882,-0.14969c1.2387,-0.4216 2.21818,0.66186 2.21818,0.66186c1.20555,1.33709 2.6611,3.53259 4.69261,3.68306c2.79352,0.20693 8.66607,-3.2969 9.2925,-6.1686c1.27902,-5.86335 -2.1823,-13.66741 -6.41092,-17.24411c-3.79032,-1.16302 -8.58239,-2.66479 -9.21797,2.42125zM518.77287,271.50747c-3.12042,-0.29327 -4.99101,-2.12008 -6.87679,-4.19131c-1.82288,0.83261 -4.63781,2.36154 -6.20531,2.28768c-4.94131,-0.23298 -7.11909,-6.43323 -3.34031,-8.82867c0.88804,-0.56294 -2.11546,-0.84154 -2.61219,-1.76822c-0.63876,-1.19159 -1.30816,-2.56302 -1.11179,-3.90074c0.03042,-0.20717 0.18575,-0.29773 0.39709,-0.34132c-2.00026,-2.48255 -1.79762,-5.47286 0.8791,-7.56197c1.40068,-1.09317 5.84115,-0.81998 8.38374,-1.35926l0.07355,-0.25371c1.35191,-8.59593 8.98197,-7.86549 15.57034,-5.58822c5.73907,4.61353 10.41054,14.22571 8.52168,22.05639c-1.13775,4.71694 -8.76063,9.91172 -13.67914,9.44948zM500.39694,254.51992c0.18349,-0.14436 -0.0923,0.01641 -0.44715,0.16403c0.17279,-0.02568 0.33013,-0.07198 0.44715,-0.16403z" fill="#cfcfcf"/><path d="M516.66316,257.28646c1.74279,-2.63687 7.01279,-2.9407 8.49074,1.02352c1.35808,3.64278 -1.67387,5.99084 -4.87405,6.00605c-0.78087,0.00378 -2.32646,-1.11496 -3.53746,-2.071c-0.07824,-0.05257 -0.1544,-0.11234 -0.22708,-0.1804c-0.45226,-0.36146 -0.84345,-0.68595 -1.10902,-0.8982c0,0 -1.68425,-1.34916 -0.33509,-3.03341c0.51941,-0.64839 1.08847,-0.84722 1.59197,-0.84652z" fill="#cfcfcf"/><path d="M522.29651,247.4735c1.63068,3.90383 -2.42383,7.28412 -5.49829,6.55045c-0.36709,0.34465 -0.91835,0.58848 -1.74066,0.47018c-2.136,-0.30725 -1.82874,-2.44329 -1.82874,-2.44329c0.04881,-0.33644 0.11251,-0.84068 0.19562,-1.41365c0.00652,-0.09934 0.02118,-0.19505 0.04243,-0.2869c0.2305,-1.5256 0.59414,-3.39859 1.16668,-3.92962c2.34646,-2.17621 6.16448,-2.53453 7.66295,1.05279z" data-paper-data="{&quot;index&quot;:null}" fill="#cfcfcf"/></g><path d="M271.29386,282.95379l67.10603,10.3218" fill="none" stroke="#8f1a1a" stroke-width="5" stroke-linecap="round"/><path d="M278.09302,245.97661l67.10603,10.3218" fill="none" stroke="#8f1a1a" stroke-width="5" stroke-linecap="round"/><path d="M279.91852,227.8017l67.10603,10.3218" fill="none" stroke="#8f1a1a" stroke-width="5" stroke-linecap="round"/><path d="M266.1754,304.51067l67.10603,10.3218" fill="none" stroke="#8f1a1a" stroke-width="5" stroke-linecap="round"/><path d="M457.26387,267.22788c2.42111,-0.87821 1.15125,-3.05874 0.15904,-4.78624c-2.22369,-1.67324 -6.43309,-2.49941 -9.16332,-1.21932c-1.3372,0.62692 -2.39947,3.89471 -1.98675,5.24037c0.30012,0.9786 1.53803,1.44707 2.32751,1.88871c0,0 0.63998,0.35917 0.57147,1.01307c0.08232,0.27849 0.04354,0.53058 0.04354,0.53058c-0.04291,0.279 -0.67395,3.06793 -0.41487,3.1607c0.29878,0.10701 0.73805,0.37193 0.94321,0.12978c0.27595,-0.3257 0.0696,-1.04624 0.47131,-1.1907c0.65624,-0.23596 1.40955,0.06338 2.07387,0.27555c0.45886,0.14656 0.77317,1.25847 1.11516,0.91921c0.33706,-0.33441 0.32558,-1.12731 0.79745,-1.18032c0.70366,-0.07905 1.97884,1.57589 1.93849,0.86895c-0.08532,-1.49513 -0.56639,-2.75547 -0.33048,-4.35912l0.02113,-0.13735c0,0 0.13906,-0.90411 0.99214,-0.92376zM444.18217,267.03902c-0.77467,-2.35834 0.92106,-6.67214 3.10538,-7.75527c3.62618,-1.79812 8.85632,-0.58055 11.75632,1.71719c1.85,2.97423 3.05822,6.63121 -1.00274,8.25154l-0.11608,0.06433c0.01911,1.30586 0.64785,3.45102 0.26833,4.25914c-0.72527,1.54431 -2.16779,1.97684 -3.60706,1.27347c0.00216,0.10838 -0.02487,0.19459 -0.12299,0.2326c-0.63351,0.24528 -1.38007,0.07015 -2.03509,-0.11003c-0.50941,-0.14011 -0.98062,-1.58064 -1.15747,-1.08277c-0.75254,2.11838 -4.03309,1.74236 -4.69792,-0.65273c-0.21091,-0.75974 0.22454,-2.30933 0.42931,-3.29526c-1.22496,-0.69314 -2.32849,-1.40606 -2.81992,-2.90225zM454.52271,274.38659c0.03278,-0.1903 0.08082,-0.34336 0.03055,-0.23736c-0.03207,0.06758 -0.03722,0.14981 -0.03055,0.23736z" fill="#cfcfcf" stroke="none" stroke-width="0.5" stroke-linecap="butt"/><path d="M451.38498,266.48782c0.05647,0.2466 0.02246,0.54759 -0.23735,0.87431c-0.67485,0.84873 -1.52357,0.1739 -1.52357,0.1739c-0.13358,-0.10649 -0.33616,-0.26196 -0.56366,-0.44326c-0.04144,-0.02804 -0.07922,-0.05868 -0.1137,-0.09116c-0.60341,-0.48679 -1.32376,-1.11939 -1.40895,-1.50242c-0.34917,-1.56966 0.46338,-3.31681 2.39954,-3.05738c2.10697,0.28233 2.54543,2.89827 1.4477,4.04602z" fill="#cfcfcf" stroke="none" stroke-width="0.5" stroke-linecap="butt"/><path d="M455.5651,262.63414c1.92461,0.3344 2.17456,2.24499 1.36983,3.63717c-0.19638,0.3397 -1.07351,0.72658 -1.79532,1.00955c-0.04265,0.02064 -0.0879,0.0385 -0.13583,0.05275c-0.27145,0.10458 -0.51141,0.19199 -0.67082,0.25341c0,0 -1.01231,0.38861 -1.40089,-0.62371c-0.14962,-0.3897 -0.09161,-0.68698 0.03636,-0.90526c-0.7021,-1.42457 0.50227,-3.78785 2.59668,-3.42394z" data-paper-data="{&quot;index&quot;:null}" fill="#cfcfcf" stroke="none" stroke-width="0.5" stroke-linecap="butt"/><g fill="#db4747" stroke="#000000" stroke-width="0" stroke-linecap="butt"><path d="M458.4259,257.44757c5.08477,1.4073 7.63511,3.48388 8.93797,9.74387c0.30005,1.44173 1.03963,2.88228 0.86463,4.45963c-0.08106,0.73058 -0.26938,1.33028 -0.54683,1.8168c0.71256,0.00345 1.33069,0.16452 1.65355,0.70103c2.46765,4.10072 -3.28651,4.50176 -5.44302,4.17006c-12.08132,-1.85827 -14.57124,-2.84277 -22.57361,-4.25157c-1.47723,-0.26006 -2.80621,-1.05537 -4.29157,-0.65183c-0.63723,0.17311 -3.52736,0.77955 -4.15379,-0.03346c-0.76145,-0.21428 -1.23914,-0.87931 -0.83989,-2.25447c0.00403,-0.08263 0.01236,-0.16592 0.02523,-0.24961c0.05283,-0.34346 0.17635,-0.65771 0.35258,-0.92898c1.76586,-4.42519 4.54653,-8.31546 7.29388,-12.13021c0.40792,-0.56641 1.77702,-3.55669 2.62452,-4.10627c1.82327,-1.18234 4.28509,-0.49678 6.22968,-0.58568c1.73036,-0.07911 6.25551,-0.48128 7.53388,1.34169c0.53966,0.76957 0.73579,1.69821 0.58282,2.47597c0.61814,0.16643 1.20545,0.33233 1.74994,0.48301z"/><path d="M470.91904,275.80678c0.08656,0.31171 0.10989,0.64854 0.05706,0.992c-0.01288,0.08371 -0.02996,0.16563 -0.05095,0.24566c-0.044,1.94142 -1.23381,2.15257 -2.35267,1.69489c-0.87591,-0.35832 -1.70832,-1.12656 -1.9133,-1.79549c-1.58084,-5.15886 -1.26096,-11.93238 -4.04391,-16.65678c-0.27124,-0.46049 -2.42609,-0.65447 -2.56184,-0.68278c-2.28504,-0.47674 -3.66597,-0.69032 -6.63844,-1.27574c-2.37834,-0.46843 -2.13268,-3.09919 -0.43119,-4.40345c1.76712,-1.35457 5.96222,0.38891 7.58885,0.98435c1.82799,0.66916 4.38207,0.7551 5.76572,2.43073c0.64315,0.77887 1.05031,4.04236 1.26917,4.70518c1.47395,4.46406 2.95703,9.01013 3.31144,13.76144z" data-paper-data="{&quot;index&quot;:null}"/></g><g fill="#c74040" stroke="none" stroke-linecap="butt"><path d="M432.79757,269.23753c0.26296,-1.70961 3.09886,-2.69207 6.33413,-2.19444c3.23527,0.49763 5.64484,2.28695 5.38188,3.99652c-0.26296,1.70961 -3.09886,2.69208 -6.33413,2.19445c-3.23527,-0.49763 -5.64484,-2.28693 -5.38188,-3.99653z" stroke-width="NaN"/><path d="M459.69318,273.421c0.26296,-1.70961 3.09884,-2.69208 6.33411,-2.19446c3.23527,0.49763 5.64481,2.28695 5.38186,3.99653c-0.26296,1.70961 -3.09883,2.69207 -6.33411,2.19445c-3.23527,-0.49763 -5.64482,-2.28691 -5.38186,-3.99652z" stroke-width="NaN"/><path d="M437.57718,273.14145l0.95226,-6.19101l27.59274,4.24413l-0.95226,6.19101z" stroke-width="0"/></g><path d="M435.99316,263.28602c0.77473,-0.52032 1.66614,-3.56541 2.33799,-4.63521c3.18469,-5.07117 6.28134,-7.17137 11.53553,-6.51598c0.0071,0.00089 0.0142,0.00175 0.02133,0.00259c0.06142,0.02528 0.126,0.04403 0.19318,0.0555c0.00499,0.00079 0.00998,0.0016 0.01486,0.00243c1.6338,0.26994 3.26869,0.53341 4.90462,0.79004c0.9562,1.636 0.78791,2.56597 -0.66831,3.85316c-0.87146,0.77026 -2.1118,-0.05829 -3.15526,-0.19618c-2.97653,-0.39335 -5.38732,-0.54399 -7.77406,1.64227c-2.27648,2.08522 -7.09045,11.65093 -8.51871,14.36297c-0.46725,0.88726 -3.36653,3.11306 -3.95016,1.16773c-0.49408,-0.47836 -0.75458,-1.26058 -0.62701,-2.08995c0.12405,-0.80652 0.58476,-1.46025 1.17564,-1.77871c1.62868,-2.47713 4.2718,-6.50046 4.51043,-6.66069z" fill="#bd2222" stroke="none" stroke-width="0.5" stroke-linecap="butt"/><path d="M472.02663,275.89782c0.46788,0.48128 0.71083,1.24324 0.58677,2.04979c-0.12757,0.82936 -0.61109,1.49713 -1.22609,1.80491c-1.14128,1.68002 -3.23763,-1.31421 -3.41667,-2.30087c-0.54723,-3.0159 -2.26403,-13.58611 -3.80863,-16.25906c-1.61945,-2.80247 -3.96403,-3.38328 -6.92119,-3.90259c-1.03668,-0.18206 -2.46872,0.23544 -3.06837,-0.7611c-0.93716,-1.55738 -0.89384,-2.47828 0.26376,-3.63232c2.6297,0.4151 5.26218,0.81247 7.8975,1.1903c0.04446,0.01431 0.08876,0.02821 0.13284,0.04166c3.42338,1.40089 5.19105,4.22185 6.4229,8.9375c0.31926,1.22224 0.25441,4.39448 0.83691,5.12356c0.17947,0.22457 1.4913,4.85621 2.30029,7.7083z" data-paper-data="{&quot;index&quot;:null}" fill="#bd2222" stroke="none" stroke-width="0.5" stroke-linecap="butt"/><path d="M465.89462,261.46974c-0.26096,0.42838 -0.60688,0.14094 -0.60688,0.14094l-0.13973,-0.11838c-2.19833,-1.51474 -4.38198,-2.28873 -6.65573,-3.52315c-1.3425,-0.24376 -2.71411,-0.40434 -4.10274,-0.61792c-3.65226,-0.56177 -7.06634,-0.18473 -10.73014,0.17375c0,0 -0.43314,0.04127 -0.44393,-0.47297c-0.01075,-0.51425 0.42239,-0.55555 0.42239,-0.55555c0.34193,-0.03164 0.68175,-0.06372 1.01988,-0.09543c-0.05149,-0.3662 0.26427,-0.54805 0.26427,-0.54805c2.94612,-1.68501 6.47857,-0.16384 9.48953,-0.00452c3.73633,0.57151 7.60579,1.63726 11.25883,2.65163l0.0513,0.00529c0,0 0.42611,0.06554 0.34739,0.57728c-0.07871,0.51174 -0.50482,0.4462 -0.50482,0.4462l-0.13529,-0.02341c-0.20522,-0.05758 -0.41114,-0.11526 -0.61774,-0.17295c0.05202,0.11573 0.07157,0.27713 -0.02864,0.48185c-0.03637,0.07433 -0.0767,0.13014 -0.11869,0.17148c0.31569,0.18969 0.63125,0.3902 0.94682,0.60481l0.199,0.16317c0,0 0.34591,0.28748 0.08496,0.71586zM446.71076,256.218c0.69417,-0.05623 1.38415,-0.10393 2.07343,-0.13586c-0.7063,-0.0413 -1.40312,-0.01373 -2.07343,0.13586z" fill="#bd2222" stroke="none" stroke-width="0.5" stroke-linecap="butt"/><path d="M329.59714,248.96493c2.42111,-0.87821 1.15125,-3.05876 0.15902,-4.78624c-2.22369,-1.67324 -6.43308,-2.49941 -9.16333,-1.21932c-1.33716,0.62697 -2.39945,3.89473 -1.98676,5.24038c0.30012,0.9786 1.53804,1.44705 2.32751,1.88871c0,0 0.64,0.35917 0.57149,1.01305c0.08232,0.27849 0.04353,0.53058 0.04353,0.53058c-0.04291,0.279 -0.67395,3.06793 -0.41487,3.1607c0.29878,0.10699 0.73805,0.37193 0.9432,0.1298c0.27595,-0.32567 0.0696,-1.04627 0.4713,-1.19072c0.65624,-0.23596 1.40956,0.06338 2.07387,0.27555c0.45888,0.14657 0.77316,1.25849 1.11516,0.91921c0.3371,-0.3344 0.3256,-1.12734 0.79744,-1.18034c0.70366,-0.07905 1.97884,1.57589 1.93848,0.86894c-0.08532,-1.49513 -0.56639,-2.75547 -0.33047,-4.35912l0.02113,-0.13735c0,0 0.13906,-0.90411 0.99215,-0.92381zM316.51544,248.77605c-0.77463,-2.35833 0.92107,-6.67214 3.10538,-7.75525c3.6262,-1.79815 8.85632,-0.58055 11.75632,1.71718c1.85,2.97423 3.05822,6.63121 -1.00274,8.25154l-0.11612,0.06432c0.01915,1.30587 0.64784,3.45105 0.26836,4.25915c-0.72527,1.54431 -2.16781,1.97683 -3.60706,1.27346c0.00219,0.10841 -0.02487,0.1946 -0.12297,0.23261c-0.63354,0.24528 -1.38006,0.07014 -2.03508,-0.11004c-0.50938,-0.1401 -0.98062,-1.58064 -1.15747,-1.08278c-0.75254,2.11838 -4.03309,1.74237 -4.69792,-0.65272c-0.21088,-0.75978 0.22454,-2.30936 0.4293,-3.29528c-1.22496,-0.69314 -2.32849,-1.40604 -2.81993,-2.90221zM326.856,256.12363c0.03278,-0.1903 0.08079,-0.34336 0.03053,-0.23737c-0.03203,0.06759 -0.03722,0.14985 -0.03053,0.23737z" fill="#cfcfcf" stroke="none" stroke-width="0.5" stroke-linecap="butt"/><path d="M323.71827,248.22486c0.05647,0.2466 0.02246,0.54759 -0.23736,0.87435c-0.67485,0.84873 -1.52358,0.17388 -1.52358,0.17388c-0.13358,-0.10646 -0.33619,-0.26196 -0.56366,-0.44326c-0.04144,-0.02801 -0.07922,-0.05869 -0.1137,-0.09116c-0.60338,-0.48679 -1.32376,-1.11938 -1.40892,-1.50241c-0.34917,-1.56966 0.46335,-3.31683 2.39954,-3.05739c2.10701,0.28233 2.54546,2.89825 1.4477,4.04602z" fill="#cfcfcf" stroke="none" stroke-width="0.5" stroke-linecap="butt"/><path d="M327.89836,244.37118c1.92464,0.33441 2.17457,2.24498 1.36983,3.63716c-0.19638,0.3397 -1.07352,0.72661 -1.79532,1.00957c-0.04265,0.02064 -0.0879,0.0385 -0.13585,0.05278c-0.27145,0.10458 -0.51142,0.192 -0.6708,0.25339c0,0 -1.0123,0.3886 -1.4009,-0.6237c-0.14962,-0.3897 -0.0916,-0.68698 0.03637,-0.90526c-0.70212,-1.4246 0.50224,-3.78785 2.59668,-3.42394z" data-paper-data="{&quot;index&quot;:null}" fill="#cfcfcf" stroke="none" stroke-width="0.5" stroke-linecap="butt"/><g fill="#db4747" stroke="#000000" stroke-width="0" stroke-linecap="butt"><path d="M330.75919,239.18466c5.08476,1.40726 7.63515,3.48388 8.93799,9.74384c0.30007,1.44173 1.03964,2.88225 0.86463,4.45963c-0.08106,0.73058 -0.26937,1.33028 -0.54685,1.81679c0.71255,0.00348 1.33069,0.16452 1.65355,0.70103c2.4676,4.10071 -3.28651,4.50178 -5.44302,4.17008c-12.08132,-1.85827 -14.57126,-2.84277 -22.5736,-4.25157c-1.47719,-0.26006 -2.80622,-1.05537 -4.29158,-0.65183c-0.63722,0.17312 -3.52732,0.77955 -4.15378,-0.03349c-0.76145,-0.21423 -1.23919,-0.87931 -0.83989,-2.25447c0.004,-0.08263 0.01235,-0.1659 0.02523,-0.24961c0.05283,-0.34346 0.17635,-0.65771 0.35258,-0.92899c1.76586,-4.42519 4.54655,-8.31548 7.29392,-12.13023c0.40792,-0.56641 1.77701,-3.55669 2.62452,-4.10624c1.82327,-1.18234 4.2851,-0.49678 6.22969,-0.58568c1.73038,-0.0791 6.25551,-0.48128 7.53388,1.34169c0.53966,0.76955 0.7358,1.6982 0.58282,2.47594c0.61813,0.16643 1.20545,0.33233 1.74994,0.48301z"/><path d="M343.25231,257.54381c0.08656,0.31171 0.10989,0.64854 0.05706,0.992c-0.01288,0.08371 -0.02996,0.16562 -0.05095,0.24564c-0.044,1.94142 -1.23384,2.15256 -2.35268,1.69488c-0.87591,-0.35832 -1.70832,-1.12658 -1.91329,-1.79549c-1.58084,-5.15886 -1.26096,-11.93242 -4.04391,-16.65678c-0.27126,-0.4605 -2.42609,-0.65447 -2.56184,-0.68278c-2.28504,-0.47674 -3.66597,-0.69032 -6.63844,-1.27574c-2.37833,-0.46841 -2.13268,-3.09922 -0.43119,-4.40344c1.76712,-1.35457 5.96222,0.38893 7.58884,0.98437c1.82798,0.66915 4.38207,0.7551 5.76573,2.43073c0.64315,0.77887 1.05034,4.04235 1.26917,4.70518c1.47399,4.46406 2.95705,9.01015 3.31144,13.76147z" data-paper-data="{&quot;index&quot;:null}"/></g><g fill="#c74040" stroke="none" stroke-linecap="butt"><path d="M305.13083,250.9746c0.26296,-1.70961 3.09883,-2.69207 6.33409,-2.19445c3.23528,0.49763 5.64479,2.28694 5.38184,3.99651c-0.26296,1.70961 -3.09883,2.69209 -6.33409,2.19446c-3.23528,-0.49763 -5.64479,-2.28694 -5.38184,-3.99652z" stroke-width="NaN"/><path d="M332.02646,255.15803c0.26296,-1.70961 3.09883,-2.69209 6.33409,-2.19446c3.23528,0.49763 5.64481,2.28695 5.38186,3.99653c-0.26296,1.70961 -3.09884,2.69207 -6.33411,2.19445c-3.23528,-0.49763 -5.64479,-2.28694 -5.38184,-3.99651z" stroke-width="NaN"/><path d="M309.91046,254.87848l0.95226,-6.19101l27.59275,4.24413l-0.95226,6.19101z" stroke-width="0"/></g><path d="M308.32644,245.02306c0.77471,-0.52029 1.66614,-3.56541 2.33799,-4.63521c3.18469,-5.07119 6.28132,-7.17135 11.53553,-6.51596c0.00709,0.00089 0.01421,0.00175 0.02134,0.00257c0.06141,0.02528 0.12599,0.04405 0.19321,0.05552c0.00501,0.00079 0.00994,0.00162 0.01484,0.00239c1.6338,0.26994 3.26866,0.53341 4.90462,0.79002c0.9562,1.636 0.78795,2.56597 -0.66831,3.85316c-0.87146,0.77026 -2.1118,-0.05829 -3.15527,-0.19618c-2.97653,-0.39335 -5.38732,-0.54399 -7.77411,1.64226c-2.27648,2.08522 -7.09044,11.6509 -8.5187,14.36295c-0.46725,0.88722 -3.36655,3.11305 -3.95016,1.16773c-0.49409,-0.47836 -0.75458,-1.26058 -0.62701,-2.08995c0.12405,-0.80652 0.58474,-1.46025 1.17563,-1.77869c1.62868,-2.47713 4.27177,-6.50043 4.5104,-6.6607z" fill="#bd2222" stroke="none" stroke-width="0.5" stroke-linecap="butt"/><path d="M344.35993,257.6349c0.46788,0.48128 0.71083,1.24323 0.58678,2.04977c-0.12756,0.82934 -0.61109,1.49713 -1.22609,1.80491c-1.14128,1.68002 -3.23763,-1.31421 -3.41665,-2.30085c-0.54723,-3.0159 -2.26403,-13.58611 -3.80863,-16.25906c-1.61945,-2.80247 -3.96404,-3.38329 -6.9212,-3.90261c-1.03668,-0.18206 -2.46873,0.23545 -3.06837,-0.7611c-0.93717,-1.55741 -0.89383,-2.47828 0.26373,-3.63233c2.6297,0.41508 5.26218,0.81248 7.8975,1.19031c0.04447,0.01427 0.08876,0.02817 0.13284,0.04165c3.42338,1.40089 5.19105,4.22185 6.4229,8.93749c0.31926,1.22224 0.25438,4.39447 0.83691,5.12356c0.17944,0.22457 1.4913,4.8562 2.30026,7.70827z" data-paper-data="{&quot;index&quot;:null}" fill="#bd2222" stroke="none" stroke-width="0.5" stroke-linecap="butt"/><path d="M338.22791,243.20678c-0.26096,0.42841 -0.60687,0.14094 -0.60687,0.14094l-0.13974,-0.11838c-2.19831,-1.51474 -4.38197,-2.28873 -6.65572,-3.52315c-1.34251,-0.24374 -2.71412,-0.40433 -4.10274,-0.61791c-3.65226,-0.56177 -7.06634,-0.18473 -10.73016,0.17375c0,0 -0.43317,0.04128 -0.44394,-0.47297c-0.01075,-0.51427 0.42244,-0.55555 0.42244,-0.55555c0.34193,-0.03164 0.68174,-0.06373 1.01983,-0.09542c-0.05152,-0.3662 0.26426,-0.54804 0.26426,-0.54804c2.94613,-1.685 6.47857,-0.16384 9.48953,-0.00449c3.73636,0.57151 7.60579,1.63726 11.25885,2.65163l0.0513,0.00529c0,0 0.42608,0.06554 0.34737,0.57729c-0.07871,0.51174 -0.5048,0.4462 -0.5048,0.4462l-0.13533,-0.02342c-0.20519,-0.05758 -0.41111,-0.11527 -0.61774,-0.17296c0.05202,0.11573 0.07159,0.27714 -0.02865,0.48185c-0.03637,0.07433 -0.0767,0.13012 -0.11869,0.17148c0.31569,0.18969 0.63123,0.39019 0.94683,0.6048l0.199,0.16314c0,0 0.34591,0.28749 0.08495,0.71589zM319.04402,237.95502c0.69418,-0.05626 1.38415,-0.10393 2.07343,-0.13586c-0.70628,-0.0413 -1.40314,-0.01369 -2.07343,0.13586z" fill="#bd2222" stroke="none" stroke-width="0.5" stroke-linecap="butt"/><path d="M403.5818,243.89183c6.68701,-2.42557 3.17972,-8.4482 0.43922,-13.21946c-6.14177,-4.62146 -17.76799,-6.9033 -25.30885,-3.36771c-3.69325,1.73161 -6.62721,10.7571 -5.48733,14.47374c0.82891,2.70286 4.24804,3.99676 6.42849,5.21658c0,0 1.76769,0.992 1.57844,2.79805c0.22738,0.76914 0.12028,1.46541 0.12028,1.46541c-0.11853,0.77063 -1.86142,8.47354 -1.14592,8.72976c0.82525,0.29552 2.03844,1.02728 2.60513,0.35849c0.76218,-0.8995 0.19227,-2.88976 1.30176,-3.28872c1.81249,-0.65168 3.8932,0.17503 5.728,0.76109c1.26738,0.40482 2.13547,3.47589 3.08002,2.53885c0.93103,-0.92361 0.8993,-3.11365 2.20253,-3.26006c1.94355,-0.21831 5.46549,4.3526 5.35401,2.40002c-0.23566,-4.12954 -1.56439,-7.61051 -0.91272,-12.03978l0.05835,-0.37936c0,0 0.38409,-2.49713 2.74029,-2.55147zM367.45045,243.37021c-2.13954,-6.51363 2.54396,-18.42823 8.57694,-21.41981c10.01541,-4.96643 24.46094,-1.60347 32.47068,4.74283c5.10966,8.21471 8.44668,18.31522 -2.76959,22.79055l-0.32069,0.17766c0.05285,3.60677 1.78934,9.53167 0.74117,11.76363c-2.00317,4.26533 -5.98739,5.45995 -9.96261,3.51724c0.00604,0.29941 -0.06868,0.53751 -0.33966,0.64245c-1.74979,0.67748 -3.8117,0.19375 -5.62087,-0.30387c-1.40696,-0.38696 -2.70844,-4.36566 -3.19689,-2.99065c-2.07846,5.85092 -11.13925,4.81235 -12.9755,-1.80276c-0.58247,-2.09844 0.62011,-6.37839 1.18572,-9.10143c-3.38329,-1.91441 -6.43122,-3.88348 -7.78859,-8.01588zM396.01079,263.66398c0.09052,-0.52567 0.2232,-0.94835 0.08432,-0.65559c-0.08853,0.18666 -0.10278,0.41382 -0.08432,0.65559z" fill="#cfcfcf" stroke="none" stroke-width="0.5" stroke-linecap="butt"/><path d="M387.34444,241.84783c0.15593,0.68115 0.06204,1.51243 -0.65555,2.4149c-1.86389,2.34416 -4.20809,0.48024 -4.20809,0.48024c-0.36895,-0.29406 -0.92848,-0.72352 -1.55681,-1.22431c-0.11446,-0.07742 -0.21885,-0.16208 -0.31405,-0.25179c-1.66654,-1.34449 -3.65614,-3.09172 -3.89142,-4.14962c-0.96443,-4.33534 1.27979,-9.16099 6.6274,-8.44445c5.81944,0.77979 7.03048,8.00491 3.99855,11.17497z" fill="#cfcfcf" stroke="none" stroke-width="0.5" stroke-linecap="butt"/><path d="M398.88981,231.20403c5.31578,0.9236 6.00607,6.20059 3.78338,10.04576c-0.5424,0.93824 -2.96504,2.00683 -4.95861,2.78837c-0.11774,0.05699 -0.24277,0.10634 -0.37516,0.14575c-0.74977,0.28884 -1.41252,0.53023 -1.85279,0.69986c0,0 -2.79596,1.07331 -3.86925,-1.72264c-0.41321,-1.07638 -0.25296,-1.89742 0.10047,-2.50028c-1.93919,-3.93469 1.38718,-10.46189 7.17195,-9.4568z" data-paper-data="{&quot;index&quot;:null}" fill="#cfcfcf" stroke="none" stroke-width="0.5" stroke-linecap="butt"/><g fill="#db4747" stroke="#000000" stroke-width="0" stroke-linecap="butt"><path d="M406.7913,216.87899c14.04394,3.88684 21.08802,9.62239 24.68645,26.91223c0.82875,3.98204 2.87146,7.96071 2.38809,12.31741c-0.22388,2.01784 -0.74399,3.67418 -1.51036,5.01797c1.96804,0.00961 3.67531,0.45439 4.56702,1.93625c6.81549,11.32607 -9.07726,12.43377 -15.03344,11.51763c-33.36828,-5.13248 -40.24543,-7.85167 -62.34765,-11.74272c-4.08001,-0.71828 -7.75066,-2.9149 -11.85317,-1.80034c-1.76,0.47816 -9.7424,2.15311 -11.47263,-0.09246c-2.10313,-0.59174 -3.42256,-2.42858 -2.31976,-6.22678c0.0111,-0.22824 0.03415,-0.45826 0.0697,-0.68941c0.14591,-0.94861 0.48707,-1.81658 0.97375,-2.56585c4.87722,-12.22224 12.55741,-22.96708 20.14556,-33.50331c1.12667,-1.5644 4.90808,-9.82345 7.24883,-11.34134c5.03581,-3.26561 11.83534,-1.3721 17.20625,-1.61761c4.77925,-0.21845 17.27756,-1.3293 20.80839,3.70576c1.49049,2.12547 2.03221,4.69041 1.60978,6.83851c1.70725,0.45972 3.32935,0.91785 4.83326,1.33406z"/><path d="M441.29692,267.58652c0.23908,0.86092 0.30354,1.79124 0.15764,2.73983c-0.03555,0.23115 -0.08272,0.45748 -0.14072,0.67851c-0.12151,5.36214 -3.4078,5.94532 -6.49801,4.6812c-2.41926,-0.98966 -4.71835,-3.1116 -5.28446,-4.9591c-4.36626,-14.24863 -3.48273,-32.95694 -11.16919,-46.00552c-0.74919,-1.27188 -6.70077,-1.80761 -7.07575,-1.88582c-6.31122,-1.31672 -10.12527,-1.90669 -18.33517,-3.52362c-6.56891,-1.29373 -5.89035,-8.55993 -1.19093,-12.16217c4.88073,-3.74125 16.46748,1.0742 20.9602,2.7188c5.04886,1.8482 12.10314,2.08556 15.9248,6.71357c1.77639,2.15122 2.90099,11.16484 3.50544,12.99552c4.07106,12.32957 8.16726,24.88577 9.14606,38.00876z" data-paper-data="{&quot;index&quot;:null}"/></g><g fill="#c74040" stroke="none" stroke-linecap="butt"><path d="M336.0065,249.44247c0.72629,-4.72187 8.55888,-7.43547 17.49466,-6.06103c8.93577,1.37444 15.59083,6.31647 14.86455,11.03831c-0.72629,4.72187 -8.55889,7.4355 -17.49466,6.06106c-8.93577,-1.37444 -15.59084,-6.31645 -14.86455,-11.03833z" stroke-width="NaN"/><path d="M410.29146,260.99701c0.72629,-4.72187 8.55889,-7.4355 17.49463,-6.06106c8.93574,1.37444 15.5908,6.31648 14.86452,11.03833c-0.72629,4.72187 -8.5589,7.43547 -17.49462,6.06104c-8.93577,-1.37444 -15.5908,-6.31644 -14.86452,-11.0383z" stroke-width="NaN"/><path d="M349.20771,260.22496l2.63011,-17.09936l76.21039,11.72217l-2.63011,17.09936z" stroke-width="0"/></g><path d="M344.83268,233.00451c2.13977,-1.43706 4.60181,-9.84755 6.45739,-12.80232c8.79598,-14.00644 17.34888,-19.80709 31.86083,-17.99687c0.01956,0.00242 0.03922,0.00482 0.05893,0.0071c0.16968,0.06984 0.34797,0.12167 0.53362,0.15336c0.01381,0.00221 0.02748,0.00443 0.04103,0.00666c4.5125,0.74554 9.02795,1.47329 13.5464,2.18203c2.64099,4.51861 2.17625,7.08715 -1.84586,10.64234c-2.40692,2.12749 -5.83277,-0.16098 -8.71479,-0.54185c-8.22114,-1.08647 -14.87958,-1.50246 -21.4718,4.53591c-6.28756,5.7593 -19.58359,32.17946 -23.52843,39.67007c-1.29056,2.45052 -9.2983,8.5982 -10.91027,3.22521c-1.36468,-1.32122 -2.08413,-3.48171 -1.7318,-5.77234c0.34264,-2.22762 1.6151,-4.03316 3.24708,-4.91268c4.49835,-6.84174 11.79853,-17.95402 12.45766,-18.39666z" fill="#bd2222" stroke="none" stroke-width="0.5" stroke-linecap="butt"/><path d="M444.35606,267.838c1.29228,1.32927 1.96329,3.43378 1.62066,5.6614c-0.35233,2.29063 -1.68783,4.13504 -3.38645,4.98509c-3.15217,4.64019 -8.94226,-3.62981 -9.43672,-6.35488c-1.51145,-8.32986 -6.25316,-37.52444 -10.51935,-44.90705c-4.47285,-7.74032 -10.94855,-9.34453 -19.11618,-10.77888c-2.86326,-0.50283 -6.81848,0.6503 -8.47479,-2.10214c-2.58845,-4.30148 -2.46873,-6.84495 0.7285,-10.03239c7.26317,1.14646 14.53401,2.24406 21.81267,3.28761c0.12285,0.03948 0.24516,0.07784 0.3669,0.11502c9.45527,3.86927 14.33754,11.66066 17.7399,24.68508c0.88183,3.3758 0.70259,12.13743 2.3116,14.15112c0.49563,0.62028 4.11892,13.41269 6.35331,21.29002z" data-paper-data="{&quot;index&quot;:null}" fill="#bd2222" stroke="none" stroke-width="0.5" stroke-linecap="butt"/><path d="M427.4197,227.98802c-0.72075,1.18323 -1.67615,0.38925 -1.67615,0.38925l-0.38596,-0.32695c-6.07168,-4.18368 -12.10286,-6.32136 -18.3829,-9.73081c-3.708,-0.67323 -7.49631,-1.11678 -11.33167,-1.70671c-10.08745,-1.55158 -19.51705,-0.51024 -29.63638,0.47993c0,0 -1.19639,0.11403 -1.2261,-1.30634c-0.02969,-1.42036 1.16669,-1.53443 1.16669,-1.53443c0.9444,-0.08742 1.883,-0.17598 2.81679,-0.26356c-0.14228,-1.01138 0.72987,-1.51367 0.72987,-1.51367c8.13712,-4.65396 17.89367,-0.45247 26.20983,-0.01243c10.31966,1.57851 21.00695,4.52203 31.0966,7.32372l0.14169,0.01458c0,0 1.17688,0.18102 0.95947,1.59444c-0.2174,1.41342 -1.39428,1.23241 -1.39428,1.23241l-0.37373,-0.06466c-0.56675,-0.15902 -1.13554,-0.31834 -1.70616,-0.47769c0.14367,0.31962 0.1977,0.76544 -0.07912,1.33089c-0.10047,0.20528 -0.21182,0.35941 -0.32785,0.47364c0.87194,0.52387 1.74348,1.07773 2.6151,1.67043l0.54963,0.45062c0,0 0.95537,0.79401 0.23463,1.97725zM374.43433,213.48285c1.91729,-0.15535 3.82301,-0.28703 5.72675,-0.37526c-1.95074,-0.1141 -3.87538,-0.03785 -5.72675,0.37526z" fill="#bd2222" stroke="none" stroke-width="0.5" stroke-linecap="butt"/><g data-paper-data="{&quot;index&quot;:null}" fill="#ff3b3b" stroke="#000000" stroke-width="0" stroke-linecap="butt"><path d="M437.68877,218.40068c0.2793,0.55236 0.58239,1.14772 0.8968,1.77529c0.38208,-0.26434 0.97362,-0.1818 1.59868,0.28297c1.4807,1.10105 2.87244,5.91144 3.44659,7.74096c0.64523,2.056 1.91023,4.55258 1.89805,6.62665c-0.00563,0.96407 -1.19537,2.80143 -1.36765,3.30562c-1.16002,3.39606 -2.35052,6.83725 -4.20418,9.28275c-0.08932,0.22134 -0.22161,0.39305 -0.39558,0.49431c-0.04233,0.02469 -0.08617,0.04453 -0.13112,0.05972c-0.62947,0.60288 -1.17367,0.18921 -1.56623,-0.58272c-0.68049,-0.55031 -1.37311,-3.66904 -1.50364,-4.36193c-0.30439,-1.61512 -1.22604,-2.9062 -1.90013,-4.42445c-3.6517,-8.2245 -5.09461,-10.71082 -10.45681,-23.16327c-0.95712,-2.22273 -2.78885,-8.32487 0.39594,-6.27701c0.41665,0.26795 0.7281,0.89627 0.98475,1.64487c0.17408,-0.35643 0.44344,-0.63419 0.82473,-0.81676c0.82321,-0.39398 1.89646,0.19162 2.81331,0.31503c3.98091,0.53599 6.05863,2.94033 8.66657,8.09806z"/><path d="M422.91352,207.71292c2.79476,-0.2601 5.87774,0.69341 8.91134,1.64842c0.45046,0.1418 2.42854,0.13525 3.09576,0.70758c1.43554,1.23137 2.39682,3.90472 3.42601,5.73721c0.91581,1.63067 3.39445,5.80836 3.26556,7.84634c-0.12419,1.96232 -1.51361,2.57081 -2.62684,0.13311c-1.39132,-3.04662 -2.00486,-4.46984 -3.08942,-6.80835c-0.06442,-0.13889 -0.94357,-2.37822 -1.29915,-2.6021c-3.64772,-2.29633 -7.33697,-1.05806 -10.79892,-2.03284c-0.44886,-0.12637 -1.17783,-0.89919 -1.69215,-1.77221c-0.65693,-1.1152 -0.9637,-2.39405 0.11073,-2.6988c0.03739,-0.03276 0.07731,-0.0616 0.11974,-0.0863c0.17398,-0.10126 0.37145,-0.12149 0.5774,-0.07204z" data-paper-data="{&quot;index&quot;:null}"/></g><g data-paper-data="{&quot;index&quot;:null}" fill="#ff6e3b" stroke="#000000" stroke-width="0" stroke-linecap="butt"><path d="M353.36385,206.82119c4.03733,-4.13559 6.74161,-5.8044 10.6996,-5.11928c0.91158,0.15784 2.11118,-0.0782 2.77796,0.54498c0.3088,0.2887 0.48225,0.6346 0.54115,1.02685c0.46976,-0.63688 0.95561,-1.14256 1.43351,-1.27291c3.65298,-0.99612 0.07219,4.27348 -1.5087,6.10585c-8.85654,10.26541 -10.97991,12.20315 -16.93444,18.95012c-1.09915,1.24547 -2.3662,2.19993 -3.14192,3.64891c-0.33275,0.62163 -1.93061,3.38809 -2.745,3.70842c-0.60636,0.61826 -1.24968,0.84929 -1.66895,0.0851c-0.03834,-0.028 -0.07415,-0.06012 -0.10711,-0.09639c-0.13551,-0.14886 -0.21008,-0.35239 -0.22875,-0.59034c-1.03307,-2.88952 -1.13441,-6.52937 -1.22023,-10.11709c-0.01275,-0.53266 -0.59535,-2.64265 -0.311,-3.56384c0.61168,-1.98186 2.56847,-3.98285 3.80173,-5.74991c1.09736,-1.57241 3.87042,-5.74222 5.61357,-6.34742c0.73582,-0.25545 1.32481,-0.15641 1.60982,0.21054c0.48846,-0.50407 0.95646,-0.98079 1.38885,-1.42368z"/><path d="M370.66798,201.06746c0.21128,0.01473 0.39359,0.0934 0.5291,0.24226c0.03306,0.03628 0.06241,0.0758 0.08827,0.11829c0.93318,0.61356 0.25626,1.7411 -0.70544,2.60732c-0.75291,0.67811 -1.68046,1.1961 -2.14654,1.18176c-3.59486,-0.11066 -6.74143,-2.40037 -10.91062,-1.30638c-0.40642,0.10666 -1.9179,1.97828 -2.02107,2.0914c-1.73718,1.90453 -2.75009,3.07757 -4.99265,5.56526c-1.79433,1.99048 -2.93668,0.99255 -2.46542,-0.91637c0.48949,-1.9825 4.10908,-5.22223 5.4726,-6.5023c1.53234,-1.43846 3.25251,-3.69938 4.99176,-4.44243c0.8084,-0.34537 2.69314,0.25534 3.16535,0.25546c3.18038,0.00079 6.40736,0.01784 8.9948,1.10579z" data-paper-data="{&quot;index&quot;:null}"/></g><path d="M416.67507,209.89246l5.45329,-35.45399" fill="#bd2222" stroke="#bd2222" stroke-width="1.5" stroke-linecap="round"/><path d="M406.13126,193.04514l-2.39614,15.57827" fill="#bd2222" stroke="#bd2222" stroke-width="1.5" stroke-linecap="round"/><path d="M403.73642,190.13719c0.30017,-1.95152 1.86072,-3.33092 3.48564,-3.08098c1.62491,0.24993 2.6988,2.03454 2.39863,3.98606c-0.30017,1.95152 -1.86073,3.33093 -3.48564,3.08099c-1.62491,-0.24993 -2.6988,-2.03455 -2.39863,-3.98607z" fill="#fa6a6a" stroke="none" stroke-width="0.5" stroke-linecap="butt"/><path d="M418.99517,172.24012c0.30017,-1.95152 1.86073,-3.33093 3.48564,-3.08099c1.62491,0.24993 2.6988,2.03455 2.39863,3.98607c-0.30017,1.95152 -1.86073,3.33093 -3.48564,3.08099c-1.62491,-0.24993 -2.6988,-2.03455 -2.39863,-3.98607z" fill="#fa6a6a" stroke="none" stroke-width="0.5" stroke-linecap="butt"/><g fill="#bd2222" stroke="none" stroke-linecap="butt"><path d="M278.19226,286.24124c3.15968,-20.5423 20.28515,-34.95496 38.25083,-32.1916c17.96567,2.76336 29.96832,21.65631 26.80864,42.19861c-3.15968,20.5423 -20.28516,34.95494 -38.25083,32.19158c-17.96567,-2.76336 -29.9683,-21.65632 -26.80863,-42.19859z" stroke-width="NaN"/><path d="M427.55398,309.41557c3.15968,-20.5423 20.28516,-34.95494 38.25083,-32.19158c17.96567,2.76336 29.9683,21.65631 26.80863,42.19859c-3.15968,20.5423 -20.28515,34.95494 -38.25082,32.19158c-17.96567,-2.76336 -29.96831,-21.65632 -26.80864,-42.19859z" stroke-width="NaN"/><path d="M301.65668,327.9255l11.4422,-74.39019l153.22413,23.5679l-11.4422,74.39019z" stroke-width="0"/></g><g fill="#db4747" stroke="none" stroke-linecap="butt"><path d="M287.54988,287.63526c2.48742,-16.17169 17.61358,-27.26495 33.78527,-24.77753c16.17169,2.48742 27.26496,17.61358 24.77754,33.78527c-2.48742,16.17169 -17.6136,27.26493 -33.78527,24.77751c-16.17169,-2.48742 -27.26495,-17.61358 -24.77754,-33.78525z" stroke-width="NaN"/><path d="M421.95767,308.74917c2.48742,-16.17169 17.6136,-27.26493 33.78527,-24.77751c16.17165,2.48741 27.26493,17.61356 24.77751,33.78524c-2.48742,16.17169 -17.61358,27.26495 -33.78525,24.77754c-16.17169,-2.48742 -27.26496,-17.61358 -24.77754,-33.78527z" stroke-width="NaN"/><path d="M309.31715,320.95751l9.00773,-58.56278l137.92355,21.21447l-9.00773,58.56278z" stroke-width="0"/></g><g fill="#c74040" stroke="none" stroke-linecap="butt"><path d="M294.92496,310.41123c0.72629,-4.72187 13.10394,-6.73641 27.64624,-4.49961c14.54233,2.2368 25.74241,7.87793 25.01613,12.59978c-0.72629,4.72187 -13.10392,6.73639 -27.64624,4.49959c-14.54233,-2.2368 -25.74242,-7.8779 -25.01613,-12.59976z" stroke-width="NaN"/><path d="M415.83083,329.13669c0.72629,-4.72187 13.10392,-6.73639 27.64624,-4.49959c14.5423,2.2368 25.74239,7.87791 25.01611,12.59975c-0.72629,4.72187 -13.10392,6.73641 -27.64622,4.49961c-14.54233,-2.2368 -25.74242,-7.8779 -25.01613,-12.59978z" stroke-width="NaN"/><path d="M317.23413,322.59466l2.63011,-17.09936l124.02723,19.07703l-2.63011,17.09936z" stroke-width="0"/></g><path d="M299.66448,289.6426c2.19012,-14.23883 15.5084,-24.00622 29.74722,-21.8161c14.23883,2.19012 24.00621,15.50841 21.8161,29.74722c-2.19012,14.23883 -15.50838,24.00624 -29.74722,21.81612c-14.23883,-2.19012 -24.00622,-15.5084 -21.81609,-29.74724z" fill="#bd2222" stroke="none" stroke-width="0" stroke-linecap="butt"/><path d="M412.63784,306.68885c2.19012,-14.23883 15.5084,-24.00622 29.74724,-21.81609c14.23882,2.19012 24.00621,15.50841 21.8161,29.74722c-2.19012,14.23883 -15.5084,24.00622 -29.74722,21.8161c-14.23884,-2.19012 -24.00624,-15.5084 -21.81612,-29.74722z" fill="#bd2222" stroke="none" stroke-width="0" stroke-linecap="butt"/><path d="M355.90819,298.12588c2.19012,-14.23883 15.5084,-24.00622 29.74722,-21.8161c14.23883,2.19012 24.00624,15.5084 21.81612,29.74722c-2.19012,14.23883 -15.5084,24.00624 -29.74724,21.81611c-14.23883,-2.19012 -24.00622,-15.5084 -21.81609,-29.74724z" fill="#bd2222" stroke="none" stroke-width="0" stroke-linecap="butt"/><path d="M310.51787,291.05909c1.2817,-8.33286 9.07581,-14.04891 17.40866,-12.76721c8.33286,1.2817 14.04891,9.07582 12.76721,17.40866c-1.2817,8.33286 -9.07583,14.04893 -17.40866,12.76723c-8.33286,-1.2817 -14.04891,-9.07586 -12.76721,-17.40868z" fill="#fa5050" stroke="none" stroke-width="0" stroke-linecap="butt"/><path d="M366.92596,300.61488c1.2817,-8.33286 9.07582,-14.04892 17.40866,-12.76722c8.33286,1.2817 14.04891,9.07582 12.76721,17.40867c-1.2817,8.33286 -9.07582,14.04894 -17.40866,12.76723c-8.33286,-1.2817 -14.04891,-9.07586 -12.76721,-17.40868z" fill="#fa5050" stroke="none" stroke-width="0" stroke-linecap="butt"/><path d="M424.18497,309.54666c1.2817,-8.33286 9.07581,-14.04891 17.40866,-12.76721c8.33287,1.28171 14.04891,9.07582 12.76721,17.40866c-1.2817,8.33286 -9.07583,14.04893 -17.40866,12.76723c-8.33287,-1.28171 -14.04891,-9.07582 -12.76721,-17.40868z" fill="#fa5050" stroke="none" stroke-width="0" stroke-linecap="butt"/><path d="M335.99136,302.06466c-3.53352,-0.5435 -2.99003,-4.07703 -2.99003,-4.07703l0.11182,-0.72695c1.20933,-7.83528 0.88601,-10.43002 -7.48582,-11.6729c0,0 -3.53353,-0.5435 -2.99003,-4.07703c0.5435,-3.53352 4.07704,-2.99003 4.07704,-2.99003c12.14417,1.92165 15.24417,8.22787 13.46588,19.82698l-0.11182,0.72695c0,0 -0.5435,3.53352 -4.07704,2.99002z" fill="#fa6a6a" stroke="none" stroke-width="0.5" stroke-linecap="butt"/><path d="M392.77745,310.88697c-3.53352,-0.5435 -2.99003,-4.07704 -2.99003,-4.07704l0.11181,-0.72691c1.20932,-7.83526 0.88601,-10.43003 -7.48579,-11.67292c0,0 -3.53353,-0.5435 -2.99003,-4.07704c0.5435,-3.53352 4.07704,-2.99003 4.07704,-2.99003c12.14417,1.92165 15.24414,8.22786 13.46585,19.82701l-0.11181,0.72691c0,0 -0.5435,3.53353 -4.07704,2.99003z" fill="#fa6a6a" stroke="none" stroke-width="0.5" stroke-linecap="butt"/><path d="M449.66362,320.78998c-3.53352,-0.5435 -2.99002,-4.07703 -2.99002,-4.07703l0.11181,-0.72691c1.20932,-7.83525 0.88601,-10.43003 -7.48579,-11.67293c0,0 -3.53353,-0.5435 -2.99003,-4.07704c0.5435,-3.53352 4.07704,-2.99003 4.07704,-2.99003c12.14417,1.92165 15.24414,8.22786 13.46585,19.82701l-0.11181,0.72691c0,0 -0.5435,3.53352 -4.07704,2.99002z" fill="#fa6a6a" stroke="none" stroke-width="0.5" stroke-linecap="butt"/><path d="M298.53705,266.24688c-0.89479,8.97387 -1.75577,8.95081 -1.75577,8.95081l-1.1022,-0.02948c-5.08318,-0.21248 -10.07807,-1.54923 -15.18064,-1.68566c0,0 -0.86101,-0.02303 0.0338,-8.99688c0.89479,-8.97387 1.75577,-8.95081 1.75577,-8.95081c5.10132,0.13636 10.08311,1.63378 15.18068,1.6856l1.10216,0.02948c0,0 0.86099,0.02306 -0.03381,8.99692z" fill="#fc9b2d" stroke="none" stroke-width="0.5" stroke-linecap="butt"/><path d="M495.54753,299.52134c-1.22062,8.95386 -2.07043,8.85857 -2.07043,8.85857l-1.08786,-0.12202c-5.01433,-0.63969 -9.89921,-2.40307 -14.93556,-2.96789c0,0 -0.84985,-0.09527 0.37074,-9.04914c1.22062,-8.95386 2.07043,-8.85857 2.07043,-8.85857c5.03507,0.56461 9.90103,2.4886 14.93556,2.96787l1.08787,0.12199c0,0 0.84981,0.09527 -0.37078,9.04914z" fill="#fcbb71" stroke="none" stroke-width="0.5" stroke-linecap="butt"/><path d="M296.37242,332.6833l1.62711,-10.57847l164.31883,25.27441l-1.62711,10.57847z" fill="#7e1717" stroke="none" stroke-width="0" stroke-linecap="butt"/><path d="M404.88744,242.04845c6.68701,-2.42557 3.17971,-8.44819 0.4392,-13.21943c-6.14177,-4.62146 -17.76798,-6.90331 -25.30883,-3.36771c-3.69325,1.73161 -6.62723,10.75709 -5.48734,14.47374c0.82891,2.70286 4.24804,3.99676 6.42851,5.21658c0,0 1.76767,0.99199 1.57843,2.79805c0.22738,0.76914 0.12028,1.46541 0.12028,1.46541c-0.11853,0.77063 -1.86142,8.47354 -1.14592,8.72976c0.82525,0.29552 2.03846,1.02727 2.60513,0.35847c0.76218,-0.8995 0.19227,-2.88976 1.30176,-3.28872c1.81249,-0.65168 3.89318,0.17502 5.728,0.76109c1.26738,0.40482 2.13548,3.47589 3.08004,2.53885c0.93103,-0.92361 0.8993,-3.11365 2.20253,-3.26006c1.94355,-0.21831 5.46547,4.3526 5.35401,2.40002c-0.23566,-4.12954 -1.56438,-7.61051 -0.91271,-12.03978l0.05835,-0.37936c0,0 0.38409,-2.49713 2.74029,-2.55147zM368.75606,241.52686c-2.13954,-6.51363 2.54397,-18.42824 8.57694,-21.41982c10.01541,-4.96643 24.46092,-1.60347 32.47066,4.74285c5.10966,8.21471 8.4467,18.31522 -2.76959,22.79055l-0.32069,0.17765c0.05285,3.60677 1.78934,9.53167 0.74117,11.76363c-2.00317,4.26533 -5.9874,5.45997 -9.96261,3.51725c0.00604,0.29941 -0.06865,0.5375 -0.33966,0.64244c-1.74979,0.67748 -3.8117,0.19374 -5.62087,-0.30388c-1.40696,-0.38696 -2.70844,-4.36566 -3.19689,-2.99065c-2.07846,5.85092 -11.13926,4.81235 -12.97551,-1.80276c-0.58247,-2.09844 0.62012,-6.37839 1.18573,-9.10144c-3.38329,-1.91441 -6.43123,-3.88346 -7.78859,-8.01587zM397.3164,261.82063c0.09052,-0.52567 0.2232,-0.94835 0.08432,-0.65559c-0.08853,0.18666 -0.10278,0.41382 -0.08432,0.65559z" fill="#cfcfcf" stroke="none" stroke-width="0.5" stroke-linecap="butt"/><path d="M388.65005,240.00448c0.15593,0.68115 0.06204,1.51243 -0.65555,2.4149c-1.86389,2.34416 -4.20809,0.48024 -4.20809,0.48024c-0.36895,-0.29406 -0.92849,-0.72352 -1.55683,-1.22431c-0.11446,-0.07742 -0.21884,-0.16208 -0.31403,-0.25179c-1.66654,-1.34449 -3.65614,-3.09172 -3.89142,-4.14962c-0.96443,-4.33534 1.27979,-9.16099 6.6274,-8.44445c5.81944,0.77979 7.03048,8.00491 3.99855,11.17497z" fill="#cfcfcf" stroke="none" stroke-width="0.5" stroke-linecap="butt"/><path d="M400.19545,229.36066c5.31578,0.9236 6.00606,6.20059 3.78338,10.04576c-0.5424,0.93824 -2.96504,2.00684 -4.95861,2.78838c-0.11774,0.05699 -0.24277,0.10634 -0.37516,0.14575c-0.74977,0.28884 -1.41253,0.53022 -1.85279,0.69985c0,0 -2.79596,1.07332 -3.86924,-1.72263c-0.41321,-1.07638 -0.25296,-1.89742 0.10047,-2.50028c-1.93919,-3.93469 1.38718,-10.46188 7.17194,-9.45679z" data-paper-data="{&quot;index&quot;:null}" fill="#cfcfcf" stroke="none" stroke-width="0.5" stroke-linecap="butt"/><path d="M155.41756,247.58623l125.72436,-38.12291l-18.4751,113.40581l-108.45637,-74.14301" data-paper-data="{&quot;index&quot;:null}" fill="#989898" stroke="#989898" stroke-width="2.5" stroke-linecap="round"/><path d="M154.70192,246.68946l1.82797,-0.37241c5.04569,-0.74128 10.10286,-2.00754 14.97439,-3.41552c5.42387,-1.54242 10.75481,-3.75329 16.03537,-5.79962c1.05954,-0.41059 1.84033,-1.40568 2.97432,-1.60002c5.1259,-0.87847 11.26345,-2.43201 16.04733,-4.76627c3.54527,-1.3078 7.58016,-1.82413 10.98483,-3.1671c1.62913,-0.64261 3.11435,-1.64823 4.88058,-2.15318c3.44947,-0.98618 7.34575,-0.76555 10.70191,-1.87983c3.94963,-1.31131 7.63658,-3.32424 11.47593,-4.9442c6.30086,-1.81841 13.34621,-2.2795 19.41226,-4.67857c4.97481,-1.9675 10.64526,-4.97186 16.2159,-5.04938l-0.01946,-0.32062l1.71794,-0.05162c0.08932,-0.00432 0.18078,0.00022 0.27314,0.01443c0.68663,0.10561 1.16417,0.70531 1.06663,1.33946c-0.02966,0.19285 -0.10909,0.36668 -0.2246,0.51226l-1.16417,1.53516c-0.74123,5.70936 -3.01213,11.52165 -2.99034,17.315c0.01521,4.04395 -0.49487,7.81123 -1.11672,11.85416c-0.4018,2.61223 0.15268,5.39638 -3.72374,5.407c-1.84419,0.00505 -2.06991,-0.88878 -3.41597,-1.54597c-1.8101,-0.88377 -3.98236,-1.41097 -5.79863,-2.1422c-1.68321,-0.67765 -4.36308,-0.63966 -6.16392,-0.91665c-6.46115,-0.99381 -12.59607,-1.80856 -19.10207,-1.98405c-2.42545,-0.06884 -4.919,-0.71507 -7.32736,-0.6058c-4.44476,0.20167 -8.69222,1.36624 -13.02843,1.92299c-4.33642,0.55678 -8.95402,0.30393 -13.35153,0.5302c-4.11917,0.21194 -8.30398,1.22642 -12.37284,1.82541c-7.44001,1.09425 -14.74488,2.52751 -21.98828,4.34781c-3.00838,0.75601 -5.81121,2.63205 -9.02445,2.86174c-2.50655,0.17918 -5.22712,-0.8654 -7.51249,-1.77604c-0.38377,-0.01152 -0.988,-0.1555 -1.18569,-0.9105c-0.29775,-1.13712 0.92217,-1.38601 0.92217,-1.38601z" data-paper-data="{&quot;index&quot;:null}" fill="#a0a0a0" stroke="none" stroke-width="0.5" stroke-linecap="butt"/><path d="M153.49483,248.72152c0.41636,-0.66055 1.03776,-0.61603 1.40836,-0.51152c2.46046,-0.18067 5.37755,-0.3581 7.72162,0.56716c3.00492,1.18612 5.12172,3.81887 7.77225,5.44529c6.38181,3.91604 12.93891,7.48146 19.72732,10.76423c3.71235,1.79583 7.41056,4.02285 11.28753,5.46469c4.13893,1.53927 8.63262,2.68787 12.61364,4.52396c3.98082,1.83602 7.6938,4.225 11.88533,5.75507c2.27115,0.82905 4.85118,0.9632 7.19228,1.62751c6.27701,1.79072 12.39141,2.86007 18.87178,3.85684c1.80621,0.27782 4.35855,1.12061 6.1728,0.9809c1.95766,-0.15075 4.1945,0.00023 6.19219,-0.29786c1.48555,-0.22166 1.97049,-1.00617 3.73329,-0.44632c3.70532,1.17677 2.33693,3.66518 1.93514,6.27741c-0.62186,4.04294 -1.2677,7.78934 -2.49933,11.6415c-1.76444,5.51861 -1.3412,11.74529 -2.35038,17.41343l0.65172,1.81447c0.06669,0.17359 0.09036,0.36329 0.0607,0.55613c-0.09754,0.63415 -0.7349,1.06236 -1.42356,0.95644c-0.09264,-0.01425 -0.18148,-0.03743 -0.26565,-0.06845l-1.62799,-0.56627l0.11512,-0.29992c-5.30601,-1.75049 -9.82662,-6.32237 -13.99381,-9.69604c-5.08127,-4.11369 -11.68267,-6.67382 -17.16332,-10.30438c-3.18551,-2.70048 -6.10693,-5.72988 -9.49082,-8.16919c-2.87544,-2.07277 -6.66934,-3.03499 -9.67259,-5.0137c-1.53775,-1.01315 -2.65598,-2.41922 -4.02113,-3.52238c-2.853,-2.30549 -6.55774,-4.01228 -9.55585,-6.32653c-3.87414,-3.66598 -9.27829,-6.99479 -13.91777,-9.3753c-1.02638,-0.52663 -1.47386,-1.71066 -2.36393,-2.42113c-4.43596,-3.54086 -8.8706,-7.25379 -13.59531,-10.35721c-4.23677,-2.80895 -8.69377,-5.53861 -13.29782,-7.76416l-1.6367,-0.90534c0,0 -1.09218,-0.60452 -0.46509,-1.59939z" fill="#878787" stroke="none" stroke-width="0.5" stroke-linecap="butt"/><path d="M166.81905,259.23194c-0.7377,-1.07195 0.28804,-1.87267 0.28804,-1.87267l0.98025,-0.74073c2.19339,-3.5067 2.85577,-5.93576 2.84502,-10.06598c-0.00356,-1.36998 0.78397,-2.8241 -0.54686,-2.99067c0,0 -1.18279,-0.44777 -0.73852,-1.70861c0.44427,-1.26085 1.62705,-0.81308 1.62705,-0.81308c2.68175,1.28732 2.17512,2.54031 2.18528,5.45666c0.01687,4.84584 -0.91908,7.90881 -3.56629,11.95887l-1.31052,1.04748c0,0 -1.02574,0.80071 -1.76345,-0.27124z" fill="#888888" stroke="none" stroke-width="0.5" stroke-linecap="butt"/><path d="M176.08247,266.0004c-0.66248,-1.56101 0.43849,-2.8508 0.43849,-2.8508l1.0502,-1.19561c2.49508,-5.46808 3.35608,-9.18852 3.66935,-15.42528c0.10391,-2.0687 1.01507,-4.32659 -0.31875,-4.4737c0,0 -1.16193,-0.58341 -0.61334,-2.52245c0.54859,-1.93904 1.71051,-1.35565 1.71051,-1.35565c2.61309,1.73369 2.00201,3.66576 1.78341,8.06935c-0.36324,7.31702 -1.55086,12.0163 -4.54788,18.34061l-1.40855,1.68479c0,0 -1.10097,1.28977 -1.76345,-0.27124z" fill="#888888" stroke="none" stroke-width="0.5" stroke-linecap="butt"/><path d="M186.10591,272.32726c-0.58416,-2.07016 0.59511,-3.86906 0.59511,-3.86906l1.12304,-1.66918c2.80916,-7.51003 3.87695,-12.57487 4.52754,-21.00471c0.2158,-2.79612 1.25566,-5.89079 -0.08127,-6.01764c0,0 -1.14021,-0.72462 -0.48302,-3.36972c0.65719,-2.64509 1.79739,-1.92049 1.79739,-1.92049c2.54161,2.19839 1.82179,4.83744 1.36504,10.78933c-0.75895,9.88971 -2.2086,16.29248 -5.56979,24.98444l-1.5106,2.34826c0,0 -1.17928,1.79892 -1.76345,-0.27124z" fill="#888888" stroke="none" stroke-width="0.5" stroke-linecap="butt"/><path d="M196.30173,278.9354c-0.50391,-2.59194 0.75563,-4.91266 0.75563,-4.91266l1.19771,-2.15452c3.13104,-9.6027 4.41075,-16.04536 5.40706,-26.72277c0.33047,-3.54164 1.50225,-7.49384 0.16212,-7.59993c0,0 -1.11795,-0.86933 -0.34946,-4.23803c0.76849,-3.3687 1.88643,-2.49937 1.88643,-2.49937c2.46835,2.67465 1.63709,6.03824 0.93628,13.57689c-1.1645,12.52632 -2.88268,20.67493 -6.6171,31.79338l-1.61519,3.02824c0,0 -1.25955,2.3207 -1.76345,-0.27124z" fill="#888888" stroke="none" stroke-width="0.5" stroke-linecap="butt"/><path d="M206.07445,285.01779c-0.43083,-3.06704 0.90178,-5.86284 0.90178,-5.86284l1.26568,-2.59641c3.42411,-11.5081 4.89678,-19.20525 6.20785,-31.92907c0.43488,-4.22042 1.72675,-8.95344 0.38372,-9.04063c0,0 -1.09768,-1.00109 -0.22786,-5.02862c0.86982,-4.02752 1.9675,-3.02643 1.9675,-3.02643c2.40166,3.10826 1.46892,7.13155 0.54589,16.11498c-1.53375,14.92697 -3.49642,24.66514 -7.57067,37.99291l-1.71042,3.64736c0,0 -1.33262,2.79579 -1.76345,-0.27124z" fill="#888888" stroke="none" stroke-width="0.5" stroke-linecap="butt"/><path d="M215.10756,291.24469c-0.36118,-3.51985 1.04108,-6.76849 1.04108,-6.76849l1.33046,-3.0176c3.70345,-13.32419 5.36003,-22.21704 6.97112,-36.89134c0.53439,-4.86739 1.94073,-10.34462 0.59492,-10.41378c0,0 -1.07837,-1.12668 -0.11195,-5.78217c0.96641,-4.65548 2.04477,-3.5288 2.04477,-3.5288c2.33809,3.52157 1.30864,8.17362 0.17379,18.5341c-1.88569,17.21509 -4.08141,28.46835 -8.47954,43.90187l-1.80118,4.23746c0,0 -1.40227,3.24861 -1.76345,-0.27124z" fill="#888888" stroke="none" stroke-width="0.5" stroke-linecap="butt"/><path d="M225.0509,297.57893c-0.28038,-4.04515 1.20268,-7.81909 1.20268,-7.81909l1.40561,-3.50619c4.0275,-15.43091 5.89743,-25.71086 7.85654,-42.64782c0.64983,-5.6179 2.18896,-11.95845 0.83994,-12.00671c0,0 -1.05596,-1.27238 0.0225,-6.65632c1.07846,-5.38395 2.1344,-4.11156 2.1344,-4.11156c2.26434,4.00102 1.1227,9.38248 -0.25785,21.3404c-2.29396,19.86943 -4.76001,32.88024 -9.53388,50.75654l-1.90647,4.922c0,0 -1.48307,3.77391 -1.76345,-0.27124z" fill="#888888" stroke="none" stroke-width="0.5" stroke-linecap="butt"/><path d="M235.1261,304.47059c-0.19935,-4.57198 1.36475,-8.87276 1.36475,-8.87276l1.48098,-3.99621c4.35249,-17.5438 6.4364,-29.21487 8.74455,-48.4211c0.7656,-6.37061 2.43792,-13.57699 1.08567,-13.60429c0,0 -1.03348,-1.41849 0.15735,-7.53303c1.19083,-6.11452 2.2243,-4.69603 2.2243,-4.69603c2.19038,4.48187 0.93622,10.59486 -0.69076,24.1549c-2.70341,22.53151 -5.4406,37.30501 -10.5913,57.63122l-2.01207,5.60854c0,0 -1.5641,4.30074 -1.76345,-0.27124z" fill="#888888" stroke="none" stroke-width="0.5" stroke-linecap="butt"/><path d="M245.326,310.77493c-0.12721,-5.04107 1.50905,-9.81093 1.50905,-9.81093l1.54809,-4.43252c4.64186,-19.42512 6.9163,-32.33485 9.53522,-53.5616c0.86868,-7.04082 2.65957,-15.01815 1.30445,-15.02678c0,0 -1.01347,-1.5486 0.27742,-8.31363c1.29088,-6.76504 2.30435,-5.21644 2.30435,-5.21644c2.12452,4.91003 0.77018,11.67436 -1.07622,26.66089c-3.068,24.90182 -6.04659,41.2448 -11.53282,63.75242l-2.1061,6.21983c0,0 -1.63624,4.76982 -1.76345,-0.27124z" fill="#888888" stroke="none" stroke-width="0.5" stroke-linecap="butt"/><path d="M255.96431,317.50516c-0.04075,-5.60316 1.68197,-10.93512 1.68197,-10.93512l1.62851,-4.95534c4.9886,-21.67942 7.49132,-36.07336 10.48266,-59.72126c0.99221,-7.8439 2.9252,-16.74501 1.56664,-16.73129c0,0 -0.98949,-1.70449 0.42128,-9.24901c1.41077,-7.54452 2.40028,-5.84003 2.40028,-5.84003c2.04562,5.42305 0.57121,12.96788 -1.53811,29.66376c-3.50486,27.74205 -6.77273,45.9657 -12.66101,71.08719l-2.21876,6.95232c0,0 -1.7227,5.33192 -1.76345,-0.27124z" fill="#888888" stroke="none" stroke-width="0.5" stroke-linecap="butt"/><path d="M164.55248,257.85628c-0.75684,-0.94753 0.24977,-1.62383 0.24977,-1.62383l0.96244,-0.62501c2.11664,-3.00772 2.72848,-5.10824 2.6353,-8.70253c-0.0309,-1.19221 0.72517,-2.44187 -0.60489,-2.61337c0,0 -1.1881,-0.41326 -0.77037,-1.50157c0.41773,-1.08831 1.60582,-0.67506 1.60582,-0.67506c2.69921,1.17376 2.21916,2.25398 2.28751,4.79198c0.11357,4.21714 -0.75834,6.86383 -3.31656,10.33531l-1.28558,0.88534c0,0 -1.0066,0.67629 -1.76345,-0.27124z" fill="#b6b6b6" stroke="none" stroke-width="0.5" stroke-linecap="butt"/><path d="M173.73238,264.23948c-0.68594,-1.40845 0.39156,-2.54566 0.39156,-2.54566l1.02838,-1.05373c2.40097,-4.85623 3.20001,-8.17381 3.4122,-13.75346c0.07039,-1.85074 0.94298,-3.85789 -0.38991,-4.01107c0,0 -1.16844,-0.5411 -0.65239,-2.26858c0.51605,-1.72748 1.68447,-1.1864 1.68447,-1.1864c2.63451,1.59444 2.05601,3.31468 1.90878,7.25431c-0.24466,6.54613 -1.35378,10.73496 -4.24168,16.34983l-1.37797,1.48597c0,0 -1.0775,1.13721 -1.76345,-0.27124z" fill="#b6b6b6" stroke="none" stroke-width="0.5" stroke-linecap="butt"/><path d="M183.68943,270.48463c-0.6064,-1.92557 0.55064,-3.57991 0.55064,-3.57991l1.10236,-1.53472c2.71997,-6.93019 3.72904,-11.61325 4.28385,-19.42034c0.18403,-2.58957 1.18734,-5.44661 -0.14871,-5.57921c0,0 -1.14638,-0.68452 -0.52003,-3.12911c0.62635,-2.4446 1.77272,-1.7601 1.77272,-1.7601c2.56191,2.06644 1.87296,4.50472 1.48385,10.01694c-0.64658,9.15916 -2.02182,15.07818 -5.2796,23.09781l-1.48162,2.15987c0,0 -1.15704,1.65433 -1.76345,-0.27124z" fill="#b6b6b6" stroke="none" stroke-width="0.5" stroke-linecap="butt"/><path d="M193.57751,277.17809c-0.52514,-2.45392 0.71318,-4.63664 0.71318,-4.63664l1.17796,-2.02616c3.04591,-9.04922 4.26956,-15.12747 5.17444,-25.21042c0.30014,-3.34447 1.43703,-7.06986 0.09775,-7.18144c0,0 -1.12384,-0.83105 -0.38479,-4.00837c0.73905,-3.17731 1.86288,-2.34626 1.86288,-2.34626c2.48773,2.54869 1.68594,5.72063 1.04968,12.83962c-1.05723,11.82898 -2.70439,19.51583 -6.3401,29.99251l-1.58753,2.84839c0,0 -1.23832,2.18268 -1.76345,-0.27124z" fill="#b6b6b6" stroke="none" stroke-width="0.5" stroke-linecap="butt"/><path d="M203.13995,282.71251c-0.46116,-2.86987 0.84113,-5.46853 0.84113,-5.46853l1.23747,-2.41304c3.3025,-10.71741 4.69509,-17.89397 5.87554,-29.76856c0.39155,-3.93874 1.63359,-8.34775 0.29176,-8.44277c0,0 -1.10609,-0.94642 -0.27832,-4.70055c0.82777,-3.75412 1.93385,-2.80771 1.93385,-2.80771c2.42934,2.92833 1.53871,6.67784 0.70789,15.06173c-1.38052,13.93075 -3.24173,23.00929 -7.17496,35.42024l-1.6709,3.39045c0,0 -1.3023,2.59863 -1.76345,-0.27124z" fill="#b6b6b6" stroke="none" stroke-width="0.5" stroke-linecap="butt"/><path d="M212.3919,288.62742c-0.38507,-3.36452 0.9933,-6.45781 0.9933,-6.45781l1.30824,-2.87312c3.60763,-12.70118 5.20112,-21.18386 6.70928,-35.18906c0.50025,-4.64546 1.86733,-9.86738 0.52247,-9.94273c0,0 -1.08499,-1.0836 -0.15171,-5.52367c0.93328,-4.44006 2.01826,-3.35646 2.01826,-3.35646c2.35989,3.3798 1.36362,7.81614 0.30144,17.70425c-1.76496,16.43018 -3.88073,27.16368 -8.16776,41.87484l-1.77005,4.03503c0,0 -1.37838,3.09327 -1.76345,-0.27124z" fill="#b6b6b6" stroke="none" stroke-width="0.5" stroke-linecap="butt"/><path d="M222.24359,295.55752c-0.30726,-3.87039 1.14892,-7.46958 1.14892,-7.46958l1.38061,-3.34365c3.91969,-14.73004 5.71865,-24.54854 7.56198,-40.73275c0.61143,-5.36823 2.10638,-11.42156 0.75843,-11.47678c0,0 -1.06341,-1.2239 -0.02223,-6.36551c1.04118,-5.1416 2.10458,-3.91769 2.10458,-3.91769c2.28887,3.84153 1.18456,8.98031 -0.11425,20.40679c-2.15814,18.98638 -4.53426,31.4125 -9.18313,48.47613l-1.87145,4.69427c0,0 -1.45619,3.59915 -1.76345,-0.27124z" fill="#b6b6b6" stroke="none" stroke-width="0.5" stroke-linecap="butt"/><path d="M232.16575,302.02931c-0.22772,-4.38752 1.308,-8.50382 1.308,-8.50382l1.45459,-3.82464c4.23869,-16.804 6.24768,-27.98798 8.43362,-46.39963c0.72507,-6.10706 2.35075,-13.01027 0.99963,-13.04492c0,0 -1.04135,-1.36733 0.11014,-7.22605c1.15149,-5.85872 2.19282,-4.49138 2.19282,-4.49138c2.21628,4.31351 1.00151,10.17036 -0.53918,23.16942c-2.56006,21.59941 -5.2023,35.75572 -10.22106,55.22413l-1.9751,5.36815c0,0 -1.53573,4.11627 -1.76345,-0.27124z" fill="#b6b6b6" stroke="none" stroke-width="0.5" stroke-linecap="butt"/><path d="M242.36435,308.3423c-0.15857,-4.83719 1.44633,-9.40317 1.44633,-9.40317l1.51893,-4.24289c4.51609,-18.60745 6.70771,-30.9788 9.19157,-51.32737c0.82388,-6.74953 2.56323,-14.39178 1.20937,-14.40852c0,0 -1.02217,-1.49204 0.22522,-7.97436c1.2474,-6.4823 2.26957,-4.99025 2.26957,-4.99025c2.15314,4.72393 0.84235,11.20517 -0.90868,25.57171c-2.90955,23.87159 -5.78321,39.53244 -11.12361,61.09195l-2.06523,5.95414c0,0 -1.6049,4.56595 -1.76345,-0.27124z" fill="#b6b6b6" stroke="none" stroke-width="0.5" stroke-linecap="butt"/><path d="M253.06286,314.68103c-0.0721,-5.39927 1.61925,-10.52735 1.61925,-10.52735l1.59934,-4.76569c4.86283,-20.86173 7.28274,-34.71732 10.13901,-57.48702c0.9474,-7.5526 2.82884,-16.11865 1.47154,-16.11302c0,0 -0.99819,-1.64794 0.36909,-8.90972c1.3673,-7.26179 2.36547,-5.61384 2.36547,-5.61384c2.07424,5.23696 0.64337,12.49869 -1.37056,28.57456c-3.34641,26.71184 -6.50935,44.25334 -12.25179,68.42672l-2.1779,6.68663c0,0 -1.69135,5.12803 -1.76345,-0.27124z" fill="#b6b6b6" stroke="none" stroke-width="0.5" stroke-linecap="butt"/></g></g></g></svg>