<svg version="1.1" xmlns="http://www.w3.org/2000/svg" xmlns:xlink="http://www.w3.org/1999/xlink" width="39.25361" height="34.00155" viewBox="0,0,39.25361,34.00155"><g transform="translate(-105.29731,-51.00144)"><g data-paper-data="{&quot;isPaintingLayer&quot;:true}" fill-rule="nonzero" stroke-linejoin="miter" stroke-miterlimit="10" stroke-dasharray="" stroke-dashoffset="0" style="mix-blend-mode: normal"><path d="M133.82695,67.97122c0,-9.3689 2.40064,-16.96391 5.36198,-16.96391c2.96135,0 5.36199,7.595 5.36199,16.96391c0,9.3689 -2.40064,16.96391 -5.36199,16.96391c-2.96135,0 -5.36198,-7.595 -5.36198,-16.96391z" fill="#fbfbfb" stroke="none" stroke-width="0" stroke-linecap="butt"/><path d="M110.76489,85.00299v-33.96174h27.72271v33.96174z" fill="#fbfbfb" stroke="none" stroke-width="NaN" stroke-linecap="butt"/><path d="M132.63565,75.40413c0,-5.03666 2.31327,-9.11969 5.16683,-9.11969c2.85356,0 5.16683,4.08303 5.16683,9.11969c0,5.03666 -2.31327,9.11969 -5.16683,9.11969c-2.85356,0 -5.16683,-4.08303 -5.16683,-9.11969z" fill="#f6f6f6" stroke="none" stroke-width="0" stroke-linecap="butt"/><path d="M110.6593,84.92926c-2.96135,0 -5.36199,-7.595 -5.36199,-16.96391c0,-9.3689 2.40064,-16.96391 5.36199,-16.96391c2.96134,0 5.36198,7.595 5.36198,16.96391c0,9.3689 -2.40063,16.96391 -5.36198,16.96391z" data-paper-data="{&quot;index&quot;:null}" fill="#fbfbfb" stroke="none" stroke-width="0" stroke-linecap="butt"/><path d="M112.16287,84.51795c-2.85356,0 -5.16683,-4.08303 -5.16683,-9.11969c0,-5.03666 2.31327,-9.11969 5.16683,-9.11969c2.85356,0 5.16683,4.08303 5.16683,9.11969c0,5.03666 -2.31327,9.11969 -5.16683,9.11969z" data-paper-data="{&quot;index&quot;:null}" fill="#f6f6f6" stroke="none" stroke-width="0" stroke-linecap="butt"/><path d="M111.24114,84.5603v-18.25762h26.96574v18.25762z" fill="#f6f6f6" stroke="none" stroke-width="NaN" stroke-linecap="butt"/><g fill="#dcdcdc" stroke="none" stroke-linecap="butt"><path d="M131.99812,67.89084c0,-7.48361 1.91757,-13.55029 4.283,-13.55029c2.36544,0 4.28301,6.06668 4.28301,13.55029c0,7.48361 -1.91756,13.55029 -4.28301,13.55029c-2.36544,0 -4.283,-6.06668 -4.283,-13.55029z" stroke-width="0"/><path d="M113.57679,81.49534v-27.12768h22.14412v27.12768z" stroke-width="NaN"/><path d="M113.49245,81.43645c-2.36544,0 -4.28301,-6.06668 -4.28301,-13.55029c0,-7.48361 1.91756,-13.55029 4.28301,-13.55029c2.36543,0 4.283,6.06668 4.283,13.55029c0,7.48361 -1.91756,13.55029 -4.283,13.55029z" data-paper-data="{&quot;index&quot;:null}" stroke-width="0"/></g><g><path d="M116.44577,81.36011v-3.38793h17.46678v3.38793z" fill="#5f5f5f" stroke="none" stroke-width="0" stroke-linecap="butt"/><path d="M116.13866,81.29036h18.04458" fill="none" stroke="#404040" stroke-width="2" stroke-linecap="round"/></g><path d="M138.50608,66.68988c0,4.557 -6.17456,8.25118 -13.79126,8.25118c-7.6167,0 -13.79126,-3.69418 -13.79126,-8.25118c0,-4.557 6.17456,-8.25118 13.79126,-8.25118c7.6167,0 13.79126,3.69418 13.79126,8.25118z" fill="#e8e8e8" stroke="none" stroke-width="NaN" stroke-linecap="butt"/><path d="M127.53982,80.74988c-0.14567,0.18909 -0.313,0.21124 -0.44415,0.18592c-0.33792,0.35003 -1.03918,0.38641 -1.40747,0.54366l-0.45215,0.18863c0,0 -0.23997,0.10011 -0.43996,-0.02411c-0.19573,-0.1069 -0.23854,-0.34683 -0.23854,-0.34683c-0.09754,-0.56533 -0.07392,-1.04469 -0.07593,-1.61282l-0.0014,-0.48546c0,0 -0.00138,-0.47864 0.47726,-0.48002c0.15756,-0.00045 0.2634,0.0511 0.3345,0.12048c0.15849,0.00689 0.28299,0.09579 0.28299,0.09579c0.56552,0.40458 1.18313,0.665 1.75576,1.05057l0.12203,0.09292c0,0 0.37917,0.29211 0.08706,0.67128z" fill="#ffffff" stroke="none" stroke-width="0.5" stroke-linecap="butt"/><path d="M122.63305,80.81572l0.05561,-0.04235c0.26097,-0.17572 0.54244,-0.2944 0.80017,-0.47878c0,0 0.05674,-0.04052 0.12897,-0.04366c0.0324,-0.03162 0.08064,-0.05511 0.15245,-0.05491c0.21813,0.00063 0.2175,0.21876 0.2175,0.21876l-0.00064,0.22124c-0.00092,0.25892 0.00985,0.47738 -0.0346,0.73502c0,0 -0.01951,0.10935 -0.10871,0.15806c-0.09114,0.05661 -0.20051,0.01099 -0.20051,0.01099l-0.20606,-0.08596c-0.16784,-0.07166 -0.48744,-0.08824 -0.64144,-0.24776c-0.05977,0.01154 -0.13603,0.00144 -0.20241,-0.08473c-0.13313,-0.1728 0.03968,-0.30593 0.03968,-0.30593z" data-paper-data="{&quot;index&quot;:null}" fill="#ffffff" stroke="none" stroke-width="0.5" stroke-linecap="butt"/><g><path d="M124.0085,67.95259l5.33655,1.17954" fill="none" stroke="#dd9e0b" stroke-width="2.5" stroke-linecap="round"/><path d="M132.40135,73.49492l-3.18856,-4.43883" fill="none" stroke="#dd9e0b" stroke-width="2.5" stroke-linecap="round"/><g><path d="M114.99878,65.12847l12.71083,-2.92219l-2.59975,11.10652l-10.23837,-8.07961" data-paper-data="{&quot;index&quot;:null}" fill="#989898" stroke="#989898" stroke-width="1" stroke-linecap="round"/><path d="M114.934,65.03476l0.18357,-0.02447c0.50477,-0.03916 1.01424,-0.13023 1.50628,-0.23661c0.54767,-0.11594 1.09066,-0.29872 1.62756,-0.46553c0.10773,-0.03347 0.19181,-0.12673 0.30544,-0.13828c0.51365,-0.05221 1.13208,-0.16441 1.62172,-0.36311c0.36,-0.10546 0.76314,-0.12921 1.10946,-0.23909c0.16572,-0.05258 0.31964,-0.1421 0.498,-0.18012c0.34834,-0.07426 0.73274,-0.02595 1.0727,-0.11353c0.40007,-0.10307 0.77892,-0.27739 1.17016,-0.41177c0.63639,-0.13731 1.33732,-0.13515 1.95439,-0.33158c0.50608,-0.1611 1.08808,-0.42015 1.64033,-0.39002l0.00025,-0.03189l0.1705,0.00655c0.00887,0.00018 0.01791,0.00125 0.02696,0.00328c0.06728,0.01512 0.11052,0.07776 0.09655,0.13991c-0.00425,0.0189 -0.01329,0.03557 -0.02573,0.04921l-0.12572,0.14414c-0.11217,0.56043 -0.37655,1.12068 -0.41372,1.69461c-0.02595,0.40062 -0.10205,0.77028 -0.19109,1.16649c-0.05753,0.256 -0.02151,0.53551 -0.40552,0.51024c-0.18269,-0.01202 -0.19898,-0.10208 -0.32783,-0.1763c-0.17328,-0.09982 -0.38484,-0.16679 -0.55976,-0.25154c-0.16211,-0.07855 -0.42779,-0.09298 -0.60427,-0.13264c-0.63318,-0.1423 -1.23526,-0.26464 -1.87845,-0.32619c-0.23976,-0.02329 -0.48233,-0.10422 -0.72161,-0.10974c-0.44159,-0.0102 -0.87016,0.0763 -1.30342,0.102c-0.43327,0.02571 -0.88889,-0.0307 -1.32597,-0.03813c-0.40941,-0.00697 -0.83077,0.0651 -1.23783,0.0968c-0.7443,0.05786 -1.47752,0.15022 -2.20729,0.28134c-0.30309,0.05446 -0.59343,0.22123 -0.91324,0.22217c-0.24947,0.00073 -0.51183,-0.1212 -0.732,-0.2269c-0.03793,-0.00374 -0.0968,-0.02211 -0.11125,-0.09822c-0.02176,-0.11464 0.10074,-0.13101 0.10074,-0.13101z" data-paper-data="{&quot;index&quot;:null}" fill="#a0a0a0" stroke="none" stroke-width="0.5" stroke-linecap="butt"/><path d="M114.80064,65.22785c0.04572,-0.06259 0.10696,-0.05396 0.14296,-0.0411c0.24491,-0.0012 0.53503,0.00105 0.76091,0.1086c0.28955,0.13788 0.48134,0.413 0.73281,0.59209c0.60548,0.43118 1.2307,0.82882 1.88076,1.20005c0.35549,0.20307 0.70664,0.44874 1.08084,0.61787c0.39948,0.18056 0.83675,0.32482 1.21856,0.5337c0.3818,0.20887 0.73332,0.47069 1.13807,0.65068c0.21931,0.09752 0.47393,0.12833 0.70129,0.21003c0.60953,0.21997 1.20785,0.3674 1.84291,0.51011c0.17701,0.03978 0.42407,0.14057 0.60471,0.13905c0.19491,-0.00164 0.41543,0.0285 0.61531,0.01254c0.14864,-0.01187 0.20199,-0.08628 0.37277,-0.01885c0.359,0.1417 0.20657,0.37887 0.14904,0.63487c-0.08904,0.3962 -0.17844,0.76286 -0.32658,1.13604c-0.21222,0.5346 -0.21258,1.15417 -0.35101,1.70871l0.05223,0.18413c0.00542,0.01765 0.00648,0.0366 0.00224,0.05549c-0.01396,0.06214 -0.07999,0.10023 -0.14749,0.08506c-0.00908,-0.00204 -0.01772,-0.00494 -0.02585,-0.00859l-0.15739,-0.06713l0.01344,-0.02893c-0.51364,-0.2094 -0.93033,-0.6929 -1.32014,-1.05533c-0.47533,-0.44193 -1.11177,-0.74031 -1.62993,-1.13709c-0.29716,-0.28909 -0.56594,-0.60896 -0.88453,-0.87352c-0.27072,-0.22482 -0.63995,-0.34587 -0.92396,-0.56224c-0.14542,-0.11079 -0.24663,-0.25764 -0.37435,-0.37616c-0.26691,-0.24771 -0.62225,-0.44191 -0.90348,-0.69147c-0.35881,-0.38939 -0.87145,-0.75577 -1.31479,-1.02304c-0.09808,-0.05912 -0.13436,-0.17943 -0.21769,-0.25585c-0.41531,-0.38081 -0.82931,-0.77866 -1.2762,-1.1181c-0.40055,-0.30697 -0.82345,-0.60758 -1.26433,-0.85925l-0.15596,-0.10078c0,0 -0.10407,-0.06729 -0.03521,-0.16156z" fill="#878787" stroke="none" stroke-width="0.5" stroke-linecap="butt"/><path d="M116.04895,66.35927c-0.06578,-0.11118 0.04124,-0.18351 0.04124,-0.18351l0.10211,-0.06671c0.24105,-0.33242 0.32313,-0.5685 0.35011,-0.97764c0.00894,-0.13571 0.09682,-0.27439 -0.03385,-0.29991c0,0 -0.1141,-0.05237 -0.06154,-0.17424c0.05256,-0.12186 0.16667,-0.06949 0.16667,-0.06949c0.25687,0.14571 0.19818,0.26637 0.17938,0.55527c-0.03123,0.48005 -0.14471,0.77707 -0.43441,1.16022l-0.13691,0.09485c0,0 -0.10703,0.07234 -0.17281,-0.03884z" fill="#888888" stroke="none" stroke-width="0.5" stroke-linecap="butt"/><path d="M116.92047,67.09254c-0.05501,-0.1591 0.06278,-0.27937 0.06278,-0.27937l0.11213,-0.11129c0.28425,-0.52462 0.39477,-0.88727 0.46814,-1.50284c0.02433,-0.20418 0.12991,-0.42163 -0.00119,-0.44525c0,0 -0.11111,-0.06567 -0.04362,-0.25399c0.06749,-0.18832 0.17862,-0.12265 0.17862,-0.12265c0.24704,0.18945 0.17339,0.37665 0.12184,0.81131c-0.08565,0.72222 -0.23517,1.17959 -0.57495,1.78562l-0.15094,0.1573c0,0 -0.1178,0.12027 -0.17281,-0.03884z" fill="#888888" stroke="none" stroke-width="0.5" stroke-linecap="butt"/><path d="M117.87026,67.7872c-0.0438,-0.209 0.08521,-0.37915 0.08521,-0.37915l0.12256,-0.1577c0.32922,-0.72473 0.46935,-1.21912 0.59102,-2.04961c0.04035,-0.27547 0.16436,-0.57491 0.03281,-0.59655c0,0 -0.10801,-0.07951 -0.02496,-0.33702c0.08304,-0.25751 0.19106,-0.17801 0.19106,-0.17801c0.23681,0.23499 0.14759,0.49148 0.06194,1.07786c-0.14231,0.97435 -0.32935,1.59865 -0.72127,2.4367l-0.16556,0.22232c0,0 -0.12901,0.17016 -0.17281,-0.03884z" fill="#888888" stroke="none" stroke-width="0.5" stroke-linecap="butt"/><path d="M118.8352,68.51093c-0.03231,-0.26013 0.10819,-0.48143 0.10819,-0.48143l0.13325,-0.20525c0.37531,-0.92982 0.54578,-1.55922 0.71695,-2.60997c0.05677,-0.34853 0.19967,-0.73201 0.06766,-0.75162c0,0 -0.10482,-0.09369 -0.00584,-0.42212c0.09898,-0.32843 0.20381,-0.23472 0.20381,-0.23472c0.22632,0.28167 0.12114,0.60916 0.00055,1.35104c-0.20038,1.23273 -0.42587,2.02813 -0.87122,3.10396l-0.18053,0.28896c0,0 -0.1405,0.2213 -0.17281,-0.03884z" fill="#888888" stroke="none" stroke-width="0.5" stroke-linecap="butt"/><path d="M119.76182,69.17969c-0.02185,-0.30669 0.12912,-0.57454 0.12912,-0.57454l0.14298,-0.24856c0.41727,-1.11653 0.61537,-1.86888 0.83161,-3.12018c0.07172,-0.41505 0.23182,-0.87504 0.09939,-0.89279c0,0 -0.10192,-0.1066 0.01158,-0.4996c0.11349,-0.39299 0.21542,-0.28639 0.21542,-0.28639c0.21677,0.32416 0.09706,0.7163 -0.05535,1.59976c-0.25325,1.46799 -0.51374,2.41915 -1.00776,3.7115l-0.19416,0.34962c0,0 -0.15096,0.26786 -0.17281,-0.03884z" fill="#888888" stroke="none" stroke-width="0.5" stroke-linecap="butt"/><path d="M120.6142,69.85774c-0.01187,-0.35107 0.14906,-0.6633 0.14906,-0.6633l0.15226,-0.28984c0.45726,-1.2945 0.6817,-2.16403 0.94089,-3.60647c0.08597,-0.47845 0.26246,-1.01138 0.12963,-1.02737c0,0 -0.09915,-0.1189 0.02817,-0.57344c0.12732,-0.45452 0.22648,-0.33562 0.22648,-0.33562c0.20767,0.36467 0.07412,0.81842 -0.10862,1.83683c-0.30364,1.69222 -0.5975,2.79186 -1.13789,4.29056l-0.20716,0.40746c0,0 -0.16094,0.31223 -0.17281,-0.03884z" fill="#888888" stroke="none" stroke-width="0.5" stroke-linecap="butt"/><path d="M121.556,70.55258c-0.0003,-0.40254 0.1722,-0.76626 0.1722,-0.76626l0.16302,-0.33771c0.50366,-1.50096 0.75865,-2.50643 1.06767,-4.17059c0.1025,-0.552 0.29799,-1.16952 0.16471,-1.18347c0,0 -0.09594,-0.13319 0.04742,-0.6591c0.14336,-0.52591 0.23932,-0.39273 0.23932,-0.39273c0.19711,0.41165 0.04749,0.93688 -0.17043,2.11185c-0.3621,1.95233 -0.69467,3.22421 -1.28885,4.96231l-0.22224,0.47455c0,0 -0.17251,0.36371 -0.17281,-0.03884z" fill="#888888" stroke="none" stroke-width="0.5" stroke-linecap="butt"/><path d="M122.50708,71.30355c0.0113,-0.45417 0.19541,-0.86951 0.19541,-0.86951l0.17381,-0.38574c0.5502,-1.70803 0.83582,-2.8498 1.19481,-4.73636c0.11907,-0.62576 0.33364,-1.32814 0.19989,-1.34002c0,0 -0.09272,-0.1475 0.06673,-0.74501c0.15945,-0.59751 0.25219,-0.45001 0.25219,-0.45001c0.18652,0.45877 0.02079,1.05569 -0.23241,2.38766c-0.42072,2.21322 -0.79211,3.65783 -1.44026,5.636l-0.23736,0.54182c0,0 -0.18411,0.41534 -0.17281,-0.03884z" fill="#888888" stroke="none" stroke-width="0.5" stroke-linecap="butt"/><path d="M123.4745,71.99721c0.02163,-0.50014 0.21607,-0.96145 0.21607,-0.96145l0.18342,-0.4285c0.59163,-1.89239 0.90453,-3.15556 1.30803,-5.24012c0.13383,-0.69144 0.36537,-1.46937 0.23122,-1.47942c0,0 -0.08986,-0.16025 0.08392,-0.82152c0.17378,-0.66126 0.26365,-0.501 0.26365,-0.501c0.17709,0.50072 -0.00298,1.16148 -0.2876,2.63324c-0.47293,2.4455 -0.87888,4.04392 -1.57506,6.23587l-0.25082,0.60173c0,0 -0.19444,0.4613 -0.17281,-0.03884z" fill="#888888" stroke="none" stroke-width="0.5" stroke-linecap="butt"/><path d="M124.48245,72.736c0.03401,-0.55522 0.24083,-1.07161 0.24083,-1.07161l0.19493,-0.47973c0.64128,-2.11331 0.98686,-3.52192 1.44368,-5.84375c0.15152,-0.77015 0.40341,-1.6386 0.26876,-1.64647c0,0 -0.08643,-0.17553 0.10452,-0.91318c0.19094,-0.73764 0.27738,-0.56211 0.27738,-0.56211c0.16579,0.551 -0.03147,1.28825 -0.35373,2.92752c-0.53548,2.72384 -0.98285,4.50656 -1.7366,6.95466l-0.26695,0.67352c0,0 -0.20682,0.51639 -0.17281,-0.03884z" fill="#888888" stroke="none" stroke-width="0.5" stroke-linecap="butt"/><path d="M115.8338,66.20764c-0.06852,-0.09898 0.03576,-0.15913 0.03576,-0.15913l0.09956,-0.05537c0.23006,-0.28351 0.30491,-0.48741 0.32008,-0.84403c0.00503,-0.1183 0.0884,-0.23693 -0.04216,-0.26294c0,0 -0.11486,-0.049 -0.0661,-0.15395c0.04876,-0.10495 0.16363,-0.05595 0.16363,-0.05595c0.25937,0.13458 0.20448,0.2383 0.19402,0.49014c-0.01738,0.41844 -0.1217,0.67466 -0.39865,1.00111l-0.13334,0.07896c0,0 -0.10429,0.06015 -0.17281,-0.03884z" fill="#b6b6b6" stroke="none" stroke-width="0.5" stroke-linecap="butt"/><path d="M116.69965,66.90218c-0.05837,-0.14416 0.05606,-0.24947 0.05606,-0.24947l0.10901,-0.09739c0.27077,-0.46467 0.37243,-0.78783 0.43132,-1.33901c0.01953,-0.18283 0.11959,-0.37569 -0.01138,-0.39992c0,0 -0.11205,-0.06152 -0.04921,-0.22911c0.06284,-0.16759 0.17489,-0.10606 0.17489,-0.10606c0.25011,0.1758 0.18112,0.34225 0.13979,0.73144c-0.06867,0.64668 -0.20696,1.05403 -0.53111,1.59052l-0.14657,0.13783c0,0 -0.11444,0.10532 -0.17281,-0.03884z" fill="#b6b6b6" stroke="none" stroke-width="0.5" stroke-linecap="butt"/><path d="M117.64343,67.58831c-0.04698,-0.19483 0.07884,-0.35082 0.07884,-0.35082l0.1196,-0.14451c0.31645,-0.66792 0.44817,-1.12489 0.55612,-1.89435c0.0358,-0.25522 0.15457,-0.53138 0.02315,-0.55358c0,0 -0.10889,-0.07558 -0.03026,-0.31344c0.07863,-0.23787 0.18753,-0.16228 0.18753,-0.16228c0.23971,0.22206 0.15492,0.45887 0.07895,1.00218c-0.12622,0.90275 -0.30261,1.47965 -0.67972,2.25181l-0.1614,0.20385c0,0 -0.12583,0.156 -0.17281,-0.03884z" fill="#b6b6b6" stroke="none" stroke-width="0.5" stroke-linecap="butt"/><path d="M118.57731,68.31838c-0.03535,-0.24661 0.10211,-0.45438 0.10211,-0.45438l0.13042,-0.19267c0.36312,-0.87557 0.52557,-1.46927 0.68364,-2.46176c0.05243,-0.32921 0.19033,-0.69046 0.05844,-0.7106c0,0 -0.10566,-0.08995 -0.01089,-0.39961c0.09476,-0.30967 0.20044,-0.21974 0.20044,-0.21974c0.22909,0.26932 0.12814,0.57803 0.01679,1.27879c-0.18502,1.16439 -0.40034,1.91453 -0.83156,2.92748l-0.17657,0.27134c0,0 -0.13746,0.20778 -0.17281,-0.03884z" fill="#b6b6b6" stroke="none" stroke-width="0.5" stroke-linecap="butt"/><path d="M119.48682,68.93145c-0.02619,-0.28737 0.12043,-0.5359 0.12043,-0.5359l0.13894,-0.2306c0.39986,-1.03905 0.58649,-1.74037 0.78403,-2.90846c0.06552,-0.38745 0.21848,-0.81569 0.08622,-0.83421c0,0 -0.10312,-0.10124 0.00435,-0.46744c0.10747,-0.3662 0.2106,-0.26495 0.2106,-0.26495c0.22073,0.30653 0.10706,0.67183 -0.03215,1.49655c-0.23131,1.37036 -0.47727,2.25688 -0.9511,3.45939l-0.18851,0.32445c0,0 -0.14662,0.24853 -0.17281,-0.03884z" fill="#b6b6b6" stroke="none" stroke-width="0.5" stroke-linecap="butt"/><path d="M120.363,69.58008c-0.01529,-0.33585 0.14222,-0.63286 0.14222,-0.63286l0.14907,-0.27567c0.44355,-1.23346 0.65895,-2.06278 0.9034,-3.43965c0.08108,-0.45671 0.25194,-0.96461 0.11925,-0.9812c0,0 -0.1001,-0.11468 0.02248,-0.54811c0.12258,-0.43342 0.22268,-0.31873 0.22268,-0.31873c0.21079,0.35076 0.08199,0.78339 -0.09035,1.75551c-0.28635,1.6153 -0.56877,2.664 -1.09325,4.09192l-0.2027,0.38762c0,0 -0.15752,0.29701 -0.17281,-0.03884z" fill="#b6b6b6" stroke="none" stroke-width="0.5" stroke-linecap="butt"/><path d="M121.2917,70.33331c-0.00415,-0.38542 0.1645,-0.732 0.1645,-0.732l0.15944,-0.32179c0.48823,-1.43228 0.73305,-2.39251 1.02549,-3.98292c0.097,-0.52753 0.28617,-1.11691 0.15304,-1.13153c0,0 -0.09701,-0.12844 0.04102,-0.6306c0.13803,-0.50217 0.23504,-0.37373 0.23504,-0.37373c0.20062,0.39602 0.05635,0.89747 -0.14987,2.02035c-0.34265,1.8658 -0.66234,3.08038 -1.23863,4.73883l-0.21722,0.45223c0,0 -0.16866,0.34658 -0.17281,-0.03884z" fill="#b6b6b6" stroke="none" stroke-width="0.5" stroke-linecap="butt"/><path d="M122.23046,71.04166c0.00724,-0.4361 0.18728,-0.83336 0.18728,-0.83336l0.17003,-0.36893c0.5339,-1.63552 0.8088,-2.72957 1.15029,-4.53826c0.11327,-0.59994 0.32116,-1.27261 0.18757,-1.28521c0,0 -0.09385,-0.1425 0.05997,-0.71494c0.15382,-0.57244 0.24768,-0.42995 0.24768,-0.42995c0.19023,0.44227 0.03014,1.0141 -0.21071,2.29108c-0.4002,2.12187 -0.75799,3.506 -1.38724,5.40012l-0.23206,0.51827c0,0 -0.18005,0.39726 -0.17281,-0.03884z" fill="#b6b6b6" stroke="none" stroke-width="0.5" stroke-linecap="butt"/><path d="M123.19769,71.73618c0.01714,-0.48016 0.20709,-0.92149 0.20709,-0.92149l0.17924,-0.40991c0.57362,-1.81226 0.87466,-3.02266 1.25882,-5.02116c0.12742,-0.6629 0.35158,-1.40799 0.21761,-1.41884c0,0 -0.0911,-0.15471 0.07645,-0.78827c0.16755,-0.63355 0.25867,-0.47884 0.25867,-0.47884c0.18119,0.48248 0.00735,1.11551 -0.26361,2.5265c-0.45024,2.34454 -0.84117,3.87612 -1.51647,5.97515l-0.24497,0.57569c0,0 -0.18995,0.44132 -0.17281,-0.03884z" fill="#b6b6b6" stroke="none" stroke-width="0.5" stroke-linecap="butt"/><path d="M124.21426,72.43659c0.02952,-0.53524 0.23184,-1.03165 0.23184,-1.03165l0.19075,-0.46115c0.62327,-2.03318 0.957,-3.38903 1.39447,-5.6248c0.14511,-0.7416 0.38961,-1.57722 0.25514,-1.58588c0,0 -0.08767,-0.16999 0.09705,-0.87993c0.18472,-0.70994 0.2724,-0.53995 0.2724,-0.53995c0.16989,0.53276 -0.02114,1.24226 -0.32975,2.82078c-0.51279,2.62287 -0.94514,4.33876 -1.67801,6.69395l-0.2611,0.64748c0,0 -0.20233,0.49641 -0.17281,-0.03884z" fill="#b6b6b6" stroke="none" stroke-width="0.5" stroke-linecap="butt"/></g></g></g></g></svg>