<svg version="1.1" xmlns="http://www.w3.org/2000/svg" xmlns:xlink="http://www.w3.org/1999/xlink" width="310.31609" height="114.09457" viewBox="0,0,310.31609,114.09457"><g transform="translate(-304.94089,-242.83064)"><g data-paper-data="{&quot;isPaintingLayer&quot;:true}" fill-rule="nonzero" stroke="none" stroke-linecap="butt" stroke-linejoin="miter" stroke-miterlimit="10" stroke-dasharray="" stroke-dashoffset="0" style="mix-blend-mode: normal"><path d="M438.23033,329.43856l-46.12475,-8.14853c-0.10314,-0.58115 -0.73586,-0.58115 -0.73586,-0.58115h-0.78958c-0.57793,0 -1.15534,0.00041 -1.73286,0.00553l-58.77288,-10.38299c-0.00358,-0.04428 -0.00728,-0.0886 -0.01106,-0.13297c0.4874,-1.22431 0.55738,-2.93939 0.03462,-4.32441c0.3798,-0.65868 0.38048,-1.51931 0.21791,-2.40128c0.32706,-1.0783 0.59601,-2.11512 0.14539,-3.4996c-0.21431,-0.40324 0.35019,-0.85649 0.39926,-1.3105c0.0457,-0.4228 -0.2529,-2.19359 -0.58667,-3.53918l110.56787,19.53324zM400.88225,308.23773l-0.36465,0.44569c-1.11932,-0.05433 -4.19346,-1.47383 -5.27152,-0.63485c-1.57551,1.22609 -0.26245,5.20067 1.19588,5.97072c0.34808,0.1838 -0.8726,-0.15152 -1.17677,0.09832c-0.41327,0.33945 -0.67317,0.83121 -1.00974,1.24681c0,0 -0.46023,0.59219 0.13196,1.05242c0.59219,0.46023 1.05242,-0.13196 1.05242,-0.13196c0.5993,-0.81654 2.35978,-0.80875 2.43407,-1.81889c0.06314,-0.85843 -1.50642,-2.52112 -1.54247,-3.69532c-0.01569,-0.51097 -0.67103,-1.36429 -0.1849,-1.52245c0.90101,-0.29315 3.81114,0.8463 4.94562,0.82079l0.85115,-0.77103c0,0 0.53013,-0.53053 -0.0004,-1.06066c-0.53053,-0.53013 -1.06066,0.0004 -1.06066,0.0004z" fill="#53322a" stroke-width="0"/><path d="M346.81796,309.23696c-0.13047,0.73857 -0.86904,0.60808 -0.86904,0.60808l-0.38881,-0.06868c-1.63729,-0.28925 -2.60698,-0.66788 -4.19478,0.02817c-1.41866,-0.22945 -2.95364,0.36035 -4.37502,-0.36877c-1.99219,-1.02193 -3.53562,-1.39703 -5.88522,-1.81211c-0.21897,-0.03869 -0.43937,-0.07588 -0.66097,-0.11198c-0.03829,-0.54445 -0.14454,-1.08565 -0.32686,-1.58566c0.02746,0.00479 0.0549,0.0096 0.08232,0.01444c2.75875,0.48736 5.08077,0.84761 7.44871,2.14732c1.10004,0.60378 2.42443,0.01177 3.53877,0.22739c1.6743,-0.73396 2.90736,-0.32098 4.63402,-0.01594l0.38882,0.06869c0,0 0.73856,0.13047 0.6081,0.86905z" fill="#724539" stroke-width="0.5"/><path d="M386.94007,306.36153c0.2136,0.71895 -0.50536,0.93253 -0.50536,0.93253l-1.01721,0.28128c-0.96734,-0.16134 -2.37464,-1.05971 -3.26479,-0.67014c-0.60287,0.26384 -0.89928,0.97591 -1.44122,1.34921c-5.08053,0.7867 -9.79712,-0.47918 -14.99141,-1.33187c-3.22022,-0.52862 -6.52878,-0.75239 -9.79795,-1.32993c-3.007,-0.53122 -6.01401,-1.06246 -9.02101,-1.59369c-0.83009,-0.14665 -2.86536,-0.27354 -3.62965,-0.6739c-2.01919,-1.05773 -4.8985,-2.45894 -7.29321,-2.85958c0,0 -0.73856,-0.13048 -0.60809,-0.86905c0.13047,-0.73857 0.86904,-0.60808 0.86904,-0.60808c2.46465,0.45431 5.65038,1.83739 7.71006,2.99859c0.57907,0.32647 2.64885,0.43527 3.21281,0.5349c3.007,0.53122 6.014,1.06247 9.02101,1.59369c3.27016,0.57772 6.55383,0.81393 9.78042,1.32694c4.88068,0.77599 9.43925,2.06904 14.1934,1.41827c2.25414,-1.61992 2.5045,-1.31244 5.17519,-0.78292l0.67545,-0.2216c0,0 0.71893,-0.21359 0.93253,0.50535z" fill="#724539" stroke-width="0.5"/><path d="M444.347,333.78039l-97.6936,-70.55558c0.72765,-0.26761 1.25238,-0.60642 1.13705,-1.02706c0.85238,0.12716 1.97542,0.03024 2.62638,-0.62071c0.23759,-0.23759 0.35567,-0.47738 0.41591,-0.71323c3.67884,-1.52516 7.22065,-3.34805 10.54308,-5.52242l91.75976,66.27009z" fill="#53322a" stroke-width="0"/><path d="M341.65515,259.5233c-0.00161,0.02908 -0.00313,0.05857 -0.00456,0.08841l-0.05944,-0.04293c0.02132,-0.01519 0.04265,-0.03035 0.064,-0.04548z" fill="#53322a" stroke-width="0"/><path d="M370.85796,275.78309c-0.43911,0.60802 -1.04713,0.1689 -1.04713,0.1689l-0.32009,-0.23117c-1.34788,-0.97346 -2.05587,-1.73662 -3.78831,-1.80158c-1.17712,-0.8244 -2.81574,-0.96201 -3.77768,-2.23738c-1.34826,-1.78757 -2.57425,-2.79742 -4.50853,-4.19437c-2.46109,-1.77743 -5.28321,-3.42161 -7.4872,-5.55903c0.18004,-0.09288 0.34524,-0.20887 0.4878,-0.35143c0.23759,-0.23759 0.35567,-0.47738 0.41591,-0.71323c0.0345,-0.0143 0.06899,-0.02863 0.10347,-0.04299c1.88078,1.83346 4.29133,3.23567 6.39798,4.75711c2.27111,1.64022 4.20443,2.9758 5.76994,5.17705c0.72726,1.0226 2.17729,1.0665 3.08649,1.74591c1.82681,0.0685 2.75692,0.97729 4.17837,2.00388l0.32008,0.23118c0,0 0.60802,0.43911 0.1689,1.04713z" fill="#724539" stroke-width="0.5"/><path d="M358.7259,258.30475c0.10593,0.08777 0.53392,0.4928 0.14639,1.02937c-0.43911,0.60802 -1.04713,0.1689 -1.04713,0.1689l-0.62117,-0.96003c0.07137,-0.31712 0.0613,-0.53945 -0.01019,-0.70585c0.43498,-0.23641 0.86707,-0.47794 1.29611,-0.7247c0.16913,0.28273 0.25653,0.65396 0.23599,1.1923z" fill="#724539" stroke-width="0.5"/><path d="M409.87398,333.94091c-2.09944,-1.35733 -0.74211,-3.45677 -0.74211,-3.45677l1.01279,-1.56651c0.07574,-0.11115 0.14949,-0.22415 0.22166,-0.33857c-0.63405,-0.39527 -1.2244,-0.81415 -1.75577,-1.25931c-0.86635,-0.7258 -1.17706,-1.97642 -2.03538,-2.71169c-0.79125,-0.67783 -2.06052,-0.66975 -2.78548,-1.41807c-1.25107,-1.29138 -2.24747,-2.85896 -2.9581,-4.51058c-2.38557,-5.54437 -1.47094,-5.7442 3.89207,-8.75816c1.26171,-0.70907 4.56152,-0.34927 4.00204,-1.68406c-0.98278,-2.34466 -3.82764,-3.36959 -5.56874,-4.76434c-0.92412,-0.74028 -1.89198,-1.4979 -2.52484,-2.49865c-0.51044,-0.80718 -0.17548,-2.02622 -0.79578,-2.75239c-0.65657,-0.76862 -2.06184,-0.58197 -2.71298,-1.35521c-0.83445,-0.99091 -0.70655,-2.79469 -1.83904,-3.42374c-0.24593,0.77304 -0.09512,1.82407 -0.73777,2.3191c-3.47168,2.67426 -5.56034,1.16963 -9.47695,1.33022c-0.91183,0.03738 -1.7919,0.51552 -2.6879,0.62073c-0.26259,0.23396 -0.56753,0.40211 -0.8968,0.53227c-0.4349,-0.35056 -0.92697,-0.13461 -1.12429,-0.71757l0.97341,-0.32488c0.3929,-0.13113 0.60512,-0.55596 0.47398,-0.94886c-0.08002,-0.23975 -0.26939,-0.41222 -0.49413,-0.48046c0.15338,-0.13493 0.31178,-0.26373 0.47554,-0.38513c0,0 0.59983,-0.45023 0.1496,-1.05005c-0.45023,-0.59983 -1.05005,-0.1496 -1.05005,-0.1496c-0.69535,0.52743 -1.32286,1.15531 -1.85848,1.84461l-1.16984,0.74507c-0.29282,0.17763 -0.43476,0.5399 -0.32176,0.87846c0.12978,0.38886 0.54724,0.60073 0.93672,0.47792l0.71964,-0.22474c0.15487,0.28278 0.36004,0.54421 0.56484,0.78891c-0.33528,0.07447 -0.6662,0.15523 -0.97828,0.2646c-3.39907,1.19136 -8.73232,3.72316 -12.33189,2.28368c-2.89678,-1.15843 -3.92521,-5.87535 -4.73401,-8.26612c-0.44914,-1.32767 -2.42288,-6.88972 -2.00094,-7.78511c0.79283,-1.68244 3.47708,-1.63368 4.65976,-3.0691c0.70836,-0.85974 0.38704,-2.19407 0.58056,-3.2911c-0.13363,-0.54538 0.00462,-1.24773 -0.40089,-1.63612c-0.6347,-0.60789 -1.772,-0.45989 -2.41408,-1.05999c-1.29292,-1.20837 -2.05226,-2.89247 -3.22905,-4.21419c-2.05576,-2.3089 -6.68784,-4.27052 -4.19129,-8.99216c2.60874,-4.93384 9.70809,-1.66438 13.46534,-4.0652c1.07308,-0.68568 1.86268,-1.74666 2.67577,-2.72674c0.94823,-1.14297 1.12315,-3.4071 2.5924,-3.62338c2.20554,-0.32465 4.18639,1.53423 6.27325,2.31836c2.54946,0.95796 5.27005,1.57482 7.61645,2.95754c1.21509,0.71605 2.40436,1.53535 3.35723,2.57517c0.47484,0.51818 0.41969,2.5493 0.79294,1.95376c0.54559,-0.87049 -0.25471,-2.06731 -0.08658,-3.08078c0.26185,-1.57827 0.50715,-3.24967 1.36129,-4.60241c2.08226,-3.29772 8.62028,-7.41152 12.84466,-7.0026c1.97734,0.19141 3.60926,1.66111 5.41389,2.49166c2.78972,1.39354 5.29129,3.55996 8.33098,4.25621c1.77199,0.40589 3.96429,-0.93319 5.45252,0.11078c2.33518,1.6381 1.91123,5.70302 3.18892,8.02863c1.94438,3.5391 2.55594,3.55003 6.21995,5.12438c1.26632,0.54411 2.50195,1.37655 3.87913,1.43142c1.49635,0.05961 2.8678,-0.92766 4.35499,-1.10336c1.65007,-0.19495 3.33472,0.19631 4.98462,-0.00007c3.16984,-0.37728 6.29047,-1.95934 9.36839,-2.6311c1.90471,-0.4157 3.8447,-0.95217 5.79011,-0.82525c2.11257,0.13782 4.10545,1.80538 6.18859,1.42792c3.46505,-0.62784 6.6741,-2.87385 10.17045,-3.39442c3.66066,-0.54503 6.10274,1.48764 9.41201,0.24971c2.7629,-1.75663 2.65333,-6.54537 2.78327,-9.71579c0.08813,-2.15025 -1.64033,-4.82873 -0.2276,-6.45216c1.63657,-1.88066 4.80044,-1.76746 7.29138,-1.66518c1.89312,0.07773 3.52435,1.39652 5.24944,2.1801c5.61972,2.55264 11.27129,6.83167 17.15071,8.64101c1.66658,0.51287 4.61246,-0.62991 5.86401,-1.20759c4.48404,-2.0697 6.70231,-6.23626 11.67427,-7.28503c5.17607,-1.09183 10.8333,-0.04729 15.52232,2.28093c3.11863,1.54847 5.50298,4.17105 8.54954,5.83666c5.02867,-0.49451 9.52514,-2.47287 14.32399,-3.99245c1.61464,-0.51128 3.16606,-1.54488 4.85869,-1.48636c4.88965,0.16907 5.92518,2.15978 9.44166,4.43129c1.05919,0.6842 2.47576,0.89584 3.2992,1.85081c0.59341,0.68819 -0.03604,2.00381 0.59131,2.6612c0.36598,0.3835 1.02443,-0.27513 1.52818,-0.44019c1.45699,-0.4774 2.89928,-0.99871 4.35274,-1.48677c2.60136,-0.87351 6.34749,-2.3265 8.95766,-0.84571c1.50167,0.85192 1.67072,3.06168 2.10381,4.73298c0.28351,1.09406 -0.1692,2.27331 0.00128,3.39057c0.59583,3.90464 5.63682,10.45202 2.61736,14.40638c-0.66431,0.87 -6.1608,2.54282 -7.98686,3.1291c-4.92895,3.75282 -10.15505,7.00769 -15.1886,10.59125c-1.75597,1.25013 -2.98127,3.77334 -5.13063,3.93613c-3.79876,0.2877 -2.08364,-3.98515 -4.99322,-4.09641c-3.4597,-0.13229 -5.43213,1.40084 -8.7742,2.12086c-3.26463,0.70334 -6.67899,0.50113 -9.949,1.17907c-1.72609,0.35786 -3.31889,1.34002 -5.07575,1.48457c-1.58152,0.13013 -3.13221,-0.83022 -4.71186,-0.67926c-1.64636,0.15734 -3.05904,1.40392 -4.7036,1.57907c-1.66194,0.177 -3.31896,-0.69176 -4.98404,-0.54734c-1.43965,0.12487 -2.68812,1.17264 -4.12376,1.33726c-1.6809,0.19275 -3.38018,-0.40342 -5.06782,-0.28324c-4.49101,0.31982 -9.91185,3.07253 -14.11557,4.47554c-6.89443,2.30104 -13.78887,4.60208 -20.6833,6.90312c-2.60239,0.86856 -5.09723,2.54187 -7.84047,2.5037c-1.28849,-0.01792 -2.442,-1.05479 -3.73003,-1.01576c-1.1881,0.036 -2.22431,0.83977 -3.34701,1.23016c-5.39956,1.8776 -10.84991,3.62119 -16.27271,5.43107c-0.7453,0.24875 -6.37936,2.15988 -6.82343,2.16426c-2.83122,0.02785 -5.50135,-1.94801 -8.32193,-1.70128c-1.33495,0.11676 -2.48438,1.05273 -3.79785,1.3183c-3.80947,0.77022 -7.97805,1.39919 -11.86638,1.69977c-4.3013,1.4664 -8.61527,2.89512 -12.92591,4.33381c-1.68568,0.5626 -3.61066,0.66826 -5.2953,1.2162c2.04084,0.72604 4.07845,1.32202 5.63551,1.83858c0,0 2.37201,0.78967 1.58233,3.16168c-0.78967,2.37201 -3.16168,1.58233 -3.16168,1.58233c-2.29122,-0.76525 -5.14977,-1.64111 -7.85684,-2.75221c-0.13897,0.29321 -0.28377,0.58143 -0.44708,0.85375l-1.01279,1.56651c0,0 -0.4635,0.71691 -1.26773,1.04201c-0.06048,0.01793 -0.11958,0.03884 -0.17725,0.06318c-0.54537,0.16867 -1.22669,0.1445 -2.0118,-0.36309z" fill="#aef0ff" stroke-width="0.5"/><path d="M476.79715,341.42253c-0.11129,2.49752 -2.60881,2.38624 -2.60881,2.38624l-2.55022,-0.11364c-1.64631,-0.07356 -3.29188,-0.1663 -4.93894,-0.2207c-1.91788,-0.06334 -4.04288,0.73353 -5.75526,-0.13251c-2.07702,-1.05045 -4.71131,-2.83084 -4.70624,-5.15839c0.00036,-0.16384 0.02436,-0.31547 0.06899,-0.45634c-0.16803,-0.15257 -0.3266,-0.31469 -0.47154,-0.49046c-0.80749,-0.97923 -0.7998,-2.6457 -1.88087,-3.31067c-1.17983,-0.72572 -2.79463,-0.04943 -4.13702,-0.39099c-0.92355,-0.23499 -1.61157,-1.10206 -2.54192,-1.30842c-1.15912,-0.25712 -2.46628,0.41266 -3.56163,-0.0455c-1.98731,-0.83124 -3.83428,-2.10924 -5.3197,-3.66933c-0.85746,-0.90056 -0.72984,-2.42269 -1.44756,-3.43812c-0.86067,-1.21768 -2.26221,-1.96759 -3.19532,-3.13067c-0.44991,-0.56079 -0.17855,-1.87395 -0.89187,-1.96385c-1.13285,-0.14276 -1.96207,1.34737 -3.09821,1.46101c-1.5904,0.15908 -3.14994,-0.73833 -4.74706,-0.67631c-2.82119,0.10955 -5.48523,1.71584 -8.30777,1.64959c-0.2372,-0.00557 -8.3288,-1.49294 -9.27168,-1.66537c-1.98237,-0.40798 -4.21985,-0.16904 -5.94709,-1.22396c-0.79264,-0.48411 0.36686,-2.51009 -0.53437,-2.73462c-1.18496,-0.29522 -2.01,1.48057 -3.18658,1.80758c-1.19946,0.33337 -2.50324,-0.07832 -3.73298,0.11555c-1.25586,0.19798 -2.3967,1.11494 -3.66647,1.05096c-1.08727,-0.05478 -1.87462,-1.27628 -2.95784,-1.38471c-1.46379,-0.14654 -2.8992,0.52635 -4.36497,0.65165c-1.19874,0.10247 -2.42455,-0.17992 -3.6092,0.03002c-4.78932,0.84875 -9.70939,4.70207 -14.58824,4.78672c-1.28842,0.02236 -2.44209,-0.97375 -3.73003,-1.01576c-1.4344,-0.0468 -2.94478,1.37681 -4.23863,0.75581c-1.22126,-0.58617 -0.88312,-2.64185 -1.78915,-3.64891c-0.67611,-0.7515 -2.06702,-0.57764 -2.71298,-1.35521c-2.00171,-2.40955 -0.36603,-3.7089 -2.76682,-5.48156c-1.32276,-0.97668 -3.31942,-1.03798 -4.35633,-2.31407c-1.03016,-1.26779 -3.20919,-9.69674 -3.63124,-11.21327c0.77886,-0.88408 2.26724,-1.47606 2.3366,-2.65224c0.07298,-1.23737 -2.48072,-1.99761 -1.9951,-3.13805c0.02332,-0.05477 0.04762,-0.10902 0.07286,-0.16277c0.04992,-0.01717 0.07954,-0.03199 0.07954,-0.03199c1.97034,-1.04884 3.31798,0.62552 5.34084,0.28625c0.03415,-0.00573 2.44284,-0.78212 2.74119,-0.51873c0.29184,0.25763 0.26147,0.77902 0.56597,1.02154c1.05668,0.8416 3.26629,-0.17608 2.20389,0.57624l-0.68581,0c-0.41421,0 -0.75,0.33579 -0.75,0.75c0,0.32193 0.20283,0.59649 0.48768,0.70285l1.05536,0.42214l0.08027,-0.20068c0.33805,0.15184 0.69016,0.24938 1.05554,0.25433h0.85727c0,0 0.75,0 0.75,-0.75c0,-0.75 -0.75,-0.75 -0.75,-0.75l-0.48099,0c1.50772,-2.60098 -1.87664,-1.2215 -2.9302,-2.21009c-0.32397,-0.30399 -0.34302,-0.88644 -0.71992,-1.12162c-0.93033,-0.58051 -2.81728,0.1707 -3.68829,0.33853c-1.46588,0.28245 -2.57898,-0.43684 -3.90492,-0.52347c2.29078,-2.15861 6.28653,-3.19242 8.75948,-3.96434c1.10327,-0.34437 2.19873,-1.06912 3.34424,-0.91553c0.72021,0.09656 0.90192,1.95654 1.5154,1.5671c0.66372,-0.42134 -0.51753,-1.58443 -0.29864,-2.33951c0.39345,-1.35726 0.98909,-2.77859 2.05218,-3.70961c0.46513,-0.40735 5.99129,-2.20023 6.94953,-2.52005c3.89476,-1.29989 7.53629,-2.74336 11.72359,-2.94457c1.64191,-0.07889 3.27807,0.45574 4.91872,0.3538c3.25574,-0.20229 5.57826,-2.16733 8.99909,-0.67387c0.93294,0.40729 0.71259,2.19617 1.6627,2.56161c0.73551,0.28291 1.29457,-1.07387 2.08116,-1.12158c1.75208,-0.10627 3.47463,0.51182 5.22198,0.67861c3.45372,0.32968 6.9231,0.47769 10.37729,0.80246c1.14737,2.76039 2.32905,5.51292 3.27544,8.34851c0.33944,1.01705 0.90953,1.98447 1.01833,3.05114c0.05326,0.52214 -0.97304,1.7926 -0.5569,1.47277c0.83636,-0.64276 1.16058,-1.7825 1.9168,-2.51788c1.90693,-1.85439 4.16519,-3.34038 6.46254,-4.68104c1.33478,-0.77893 3.02629,-0.89056 4.26833,-1.81021c1.20764,-0.89418 1.42846,-3.05392 2.8707,-3.47574c2.15312,-0.62974 4.58595,-0.08459 6.69578,0.67776c1.64022,0.59267 3.07091,1.83343 4.11666,3.22914c0.81095,1.08237 0.44529,2.75557 1.20548,3.87416c0.39058,0.57472 1.3123,0.46394 1.94215,0.75743c0.74302,0.34622 1.36691,0.9905 2.16925,1.15836c1.02721,0.21489 2.10964,-0.19806 3.148,-0.04595c1.14586,0.16786 2.17092,0.97347 3.32881,0.99476c2.2602,0.04156 4.25385,-1.53282 6.39816,-2.24849c3.62217,-1.20891 7.23758,-2.41202 10.8916,-3.52202c1.24334,0.33858 2.44168,0.98918 3.73002,1.01575c0.8313,0.01715 1.54636,-0.61272 2.32997,-0.89072c3.36639,-1.19429 6.78212,-2.26355 10.17045,-3.39442c0.4616,-0.15406 7.4927,-2.56937 8.08705,-2.49846c2.69521,0.32152 4.84373,3.21067 7.55289,3.04334c4.06156,-0.25087 4.22552,-3.8675 9.32386,-2.45302c1.13454,0.31477 0.45551,2.50778 1.36214,3.25897c0.52794,0.43743 1.31667,-0.45418 2.00206,-0.47157c1.56301,-0.03965 3.12137,0.41479 4.68081,0.30205c4.39689,-0.31791 9.29942,-2.86813 13.44093,-4.25038c1.35606,-0.45259 2.69459,-0.96155 4.06817,-1.35777c0.67741,-0.1954 1.61838,0.12387 2.07417,-0.41401c0.67912,-0.80144 0.56563,-2.02338 0.84845,-3.03506c-0.28461,-0.97537 -0.56919,-1.95074 -0.8538,-2.92612l-3.014,-3.01172c-0.28349,-0.27163 -0.50696,-0.61422 -0.63989,-1.01252c-0.43711,-1.30969 0.27025,-2.72576 1.57994,-3.16288c0.39829,-0.13293 0.80643,-0.16002 1.19388,-0.09651l4.69727,0.66923l-0.05517,0.38724c1.57091,0.02604 3.13959,0.11496 4.69908,0.27656c1.5075,0.15621 3.03578,0.08413 4.53765,0.28762c0.34551,0.04681 0.94693,0.80345 0.94196,0.45482c-0.03168,-2.21987 -2.70727,-4.3238 -3.87924,-5.55948c-2.22569,-2.34669 -6.83928,-6.30065 -6.52646,-10.07494c0.1527,-1.84251 2.18228,-3.09764 3.73637,-4.09911c4.00639,-2.58174 9.91636,-1.5446 13.91742,0.58948c1.49437,0.79706 2.92143,1.8384 3.97553,3.16404c1.22373,1.53898 1.1525,3.97283 2.61454,5.28755c1.50996,1.35782 4.43295,-0.08941 5.96342,1.24526c2.13707,1.86366 3.27416,8.27844 3.73386,11.18749c6.60958,-1.90389 13.3757,-5.48741 18.88867,1.25515c0.67868,0.83005 0.39897,2.17592 1.01833,3.05114c0.91436,1.29208 3.35009,1.68329 3.44997,3.26301c0.14936,2.36215 -1.38025,4.64203 -2.83195,6.51142c-0.62481,0.80459 -2.25785,0.12444 -2.92141,0.89741c-0.8024,0.93467 -0.65892,2.37529 -0.92134,3.57888c-0.71161,3.26385 -0.88132,7.6764 -3.39247,10.23071c-4.07599,4.14602 -9.86257,3.84185 -14.68103,6.35252c-2.27935,1.18766 -4.04794,3.23355 -6.35461,4.36725c-3.9945,1.96327 -5.63926,1.66735 -10.02173,2.02169c-4.63424,0.33356 -8.34684,2.77669 -12.84746,3.33679c-3.34917,0.4168 -6.71856,-1.1976 -10.0826,-0.9257c-1.57022,0.12691 -2.9742,1.079 -4.52131,1.37594c-3.16323,0.60715 -6.47167,0.21472 -9.62244,0.88352c-1.75436,0.37239 -3.33875,1.49078 -5.12655,1.63294c-1.38596,0.1102 -2.68209,-0.89968 -4.07242,-0.90147c-1.92236,-0.00249 -3.61761,1.30286 -5.44109,1.91145c-2.8696,0.95774 -6.06357,1.20762 -8.62974,2.8097c-3.91948,2.44696 -6.32931,7.5283 -10.16788,10.17558c-0.77846,0.53688 -2.009,0.16543 -2.72754,0.78021c-0.76809,0.65718 -0.56671,2.0804 -1.35521,2.71298c-0.53813,0.43171 -5.93507,2.18147 -6.94953,2.52005c-1.45808,0.48664 -2.91615,0.97328 -4.37424,1.45992c0.4827,0.22914 0.93876,0.67028 1.20968,1.48203c0.07565,0.22666 0.1224,0.43888 0.14509,0.63736l0.6472,0.02884c0,0 2.49753,0.11129 2.38624,2.60881zM400.88225,308.23773l-0.36465,0.44569c-1.11932,-0.05433 -4.19346,-1.47383 -5.27152,-0.63485c-1.57551,1.22609 -0.26245,5.20067 1.19588,5.97072c0.34808,0.1838 -0.8726,-0.15152 -1.17677,0.09832c-0.41327,0.33945 -0.67317,0.83121 -1.00974,1.24681c0,0 -0.46023,0.59219 0.13196,1.05242c0.59219,0.46023 1.05242,-0.13196 1.05242,-0.13196c0.5993,-0.81654 2.35978,-0.80875 2.43407,-1.81889c0.06314,-0.85843 -1.50642,-2.52112 -1.54247,-3.69532c-0.01569,-0.51097 -0.67103,-1.36429 -0.1849,-1.52245c0.90101,-0.29315 3.81114,0.8463 4.94562,0.82079l0.85115,-0.77103c0,0 0.53013,-0.53053 -0.0004,-1.06066c-0.53053,-0.53013 -1.06066,0.0004 -1.06066,0.0004zM378.05237,303.16365l0.40132,-0.13394c1.66536,-0.57812 4.62478,-2.18266 3.31222,-4.44608c-0.4794,-0.8267 -1.16355,-0.34182 -1.40528,-1.05601l0.97341,-0.32488c0.3929,-0.13113 0.60512,-0.55596 0.47398,-0.94886c-0.08002,-0.23975 -0.26939,-0.41222 -0.49413,-0.48046c0.15338,-0.13493 0.31178,-0.26373 0.47554,-0.38513c0,0 0.59983,-0.45023 0.1496,-1.05005c-0.45023,-0.59983 -1.05005,-0.1496 -1.05005,-0.1496c-0.69535,0.52743 -1.32286,1.15531 -1.85848,1.84461l-1.16984,0.74507c-0.29282,0.17763 -0.43476,0.5399 -0.32176,0.87846c0.12978,0.38886 0.54724,0.60073 0.93672,0.47792l0.71964,-0.22474c0.53918,0.9845 1.68802,1.71031 1.30852,2.37162c-0.32672,0.56933 -2.02995,1.16836 -2.52495,1.32529l-0.40132,0.13394c0,0 -0.71142,0.23744 -0.47398,0.94886c0.23744,0.71142 0.94886,0.47398 0.94886,0.47398z" fill="#a4e2f1" stroke-width="0.5"/><path d="M453.82864,336.15591l-43.35181,7.2481c0.00089,-0.18058 0.00284,-0.34202 0.0061,-0.47679c0.46754,-0.05961 0.87115,-0.18299 1.21614,-0.36087c0.1732,0.02459 0.34646,0.0443 0.51923,0.0443c0,0 0.75,0 0.75,-0.75c0,-0.17601 -0.04131,-0.31072 -0.10453,-0.41381c0.52241,-0.91119 0.63058,-2.1548 0.448,-3.51452c-0.10016,-0.74589 -1.02287,-1.25092 -1.04131,-2.00328c-0.01403,-0.57258 1.12044,-0.32621 1.69243,-0.29676h0.69784c0,0 0.75,0 0.75,-0.75c0,-0.75 -0.75,-0.75 -0.75,-0.75h-0.69784c-1.47177,0.04993 -2.65324,-0.32136 -3.19243,1.79676c-0.19933,0.78303 0.96808,1.38012 1.0522,2.18374c0.11472,1.09601 0.13304,2.38286 -0.49391,2.99657c-0.66444,0.0041 -1.45251,0.02585 -1.59827,0.11331c-0.60222,0.36137 -0.81393,1.34256 -0.86088,2.45006l-4.98345,0.8332c0.10654,-0.36796 -0.1703,-0.69094 -0.1703,-0.69094c-1.79538,-2.09461 -2.78771,-5.28781 -2.02496,-8.18949c0.1027,-0.39071 3.88681,0.50206 4.21029,-0.38932c0.35635,-0.98195 -1.04995,-2.14465 -1.64323,-2.71766c0.00985,-0.11984 -0.01369,-0.25786 -0.0918,-0.41407c-0.33541,-0.67082 -1.00623,-0.33541 -1.00623,-0.33541l-0.6833,0.34165c-0.25368,0.12026 -0.42912,0.37868 -0.42912,0.67809c0,0.33738 0.22277,0.62273 0.52924,0.71698l0.90291,0.30097c2.12813,2.22585 -1.46199,-1.37855 -3.06473,1.03018c-0.15726,0.23635 -0.11202,2.63084 -0.11201,2.7324c0.00023,3.21151 0.13747,4.70828 2.22449,7.16379l-23.02744,3.85002c-1.06686,-0.41684 -1.92796,-1.45739 -3.03912,-1.938c-0.48202,-0.20849 -0.99544,-0.34975 -1.51276,-0.44027c-0.17907,-0.03133 -0.60374,0.2512 -0.53931,0.0812c0.66281,-1.74861 3.09657,-3.37208 3.81403,-5.26904c1.06371,-2.81242 -3.4626,-4.62563 -5.49997,-5.23959c-0.53614,-0.53614 -1.03414,-0.83547 -1.55538,-1.00181l20.86388,-3.48829c0.04151,0.02796 0.0711,0.04817 0.08681,0.05939c0,0 0.6103,0.43593 1.04623,-0.17437c0.02015,-0.0282 0.03806,-0.05604 0.0539,-0.08347l57.91022,-9.68217z" fill="#53322a" stroke-width="0"/><path d="M400.26308,331.13488c0.43492,0.60659 -0.13324,1.04124 -0.13324,1.04124l-0.811,0.59529c-0.9171,0.16286 -2.47703,-0.22426 -3.13793,0.43153c-0.44761,0.44414 -0.4696,1.21012 -0.82568,1.73738c-4.26083,2.39193 -8.89541,2.73536 -13.81524,3.62269c-1.12142,0.20226 -2.23947,0.44715 -3.35962,0.70184c-0.21214,-0.47434 -0.57756,-0.90613 -1.02985,-1.29374c1.36785,-0.31277 2.73105,-0.62413 4.10299,-0.87909c4.61421,-0.85747 9.11719,-1.12397 13.13334,-3.28194c1.45818,-2.25631 1.78594,-2.04859 4.34649,-2.41915l0.52666,-0.42803c0,0 0.56816,-0.43465 1.00308,0.17194z" fill="#724539" stroke-width="0.5"/><path d="M423.5897,338.50726c-0.40147,0.60417 -0.99375,0.16614 -0.99375,0.16614l0.09543,-0.19335c-2.42051,0.40184 -4.43617,1.54137 -6.96095,1.9635c-0.94177,0.14212 -1.69908,0.86586 -2.58518,1.21158c-0.06153,0.02401 -0.12343,0.04771 -0.18569,0.07113c-0.0153,-0.11242 -0.04973,-0.2043 -0.09579,-0.27941c0.25532,-0.44533 0.41169,-0.97005 0.48354,-1.54893c0.61125,-0.36091 0.98482,-0.7249 2.11331,-0.92825c2.54105,-0.42484 4.50414,-1.55004 6.96095,-1.96349l0.97734,0.45888c0,0 0.59227,0.43801 0.19079,1.04218z" fill="#724539" stroke-width="0.5"/><path d="M403.61343,343.69324c-0.34705,-0.42023 -0.66232,-0.88195 -0.93855,-1.37456c2.93702,-0.44624 6.22489,-0.85903 8.99425,-1.73769c-0.08299,0.20544 -0.19412,0.38522 -0.34036,0.52837c-0.66444,0.0041 -1.45251,0.02585 -1.59827,0.11331c-0.44167,0.26504 -0.6733,0.86346 -0.78392,1.60061c-1.76555,0.35641 -3.60369,0.61425 -5.33314,0.86996z" fill="#724539" stroke-width="0.5"/><path d="M401.59063,344.00713c-2.14701,0.35897 -4.02218,1.02506 -6.1034,0.09322c0,0 -0.65951,-0.31103 -0.38199,-0.98937c0.27752,-0.67834 0.93703,-0.36729 0.93703,-0.36729c1.56227,0.7885 3.34224,0.15201 5.01958,-0.16424c0.21557,0.44564 0.49188,0.89581 0.84587,1.37548c-0.10643,0.01726 -0.21215,0.03465 -0.31709,0.0522z" fill="#724539" stroke-width="0.5"/><path d="M449.33555,329.82526l-45.52298,1.91597c-0.30692,-0.13675 -0.63394,0.0187 -0.65186,0.02744l-32.73672,1.37782c-0.00566,-0.02154 -0.01221,-0.04353 -0.01971,-0.06601c-0.23744,-0.71142 -0.94886,-0.47398 -0.94886,-0.47398c-0.9479,0.6744 -2.03301,-3.70222 -1.48237,-4.17074l0.81107,-0.00031c0.08421,0.00194 0.17017,-0.01039 0.25466,-0.03859c0.3929,-0.13113 0.60512,-0.55596 0.47398,-0.94886c-0.05432,-0.16275 -0.15902,-0.29449 -0.29098,-0.38367l-0.83733,-0.57922c-0.23059,-0.35294 -0.42514,-0.72462 -0.55593,-1.12194l-0.2933,-0.87905c0,0 -0.23744,-0.71142 -0.94886,-0.47398c-0.71142,0.23744 -0.47398,0.94886 -0.47398,0.94886l0.3003,0.89951c0.1838,0.46865 0.51427,0.95761 0.93347,1.2739c-0.49307,0.28843 -1.07544,0.501 -1.32666,0.99491c-0.37457,0.73639 1.13656,4.15244 1.47944,4.9345c0.02816,0.06421 0.05261,0.13312 0.07517,0.20462l-35.39378,1.48965c-0.12402,-0.4911 -0.5312,-1.01868 -0.94458,-1.86351c-0.22294,-0.45562 -0.22387,-1.00759 -0.4854,-1.4422c-0.09097,-0.15117 -0.62072,-0.06335 -0.49506,-0.18717c0.60281,-0.59398 2.3491,-0.2455 2.93324,-0.35042c0.64157,-0.11523 1.39051,-0.20362 1.83242,-0.68278c0.23108,-0.25054 -0.43227,-0.66223 -0.3016,-0.97703c0.19645,-0.47323 2.75564,0.44638 3.2674,-0.7391c0.24106,-0.55839 -0.28075,-1.18356 -0.42113,-1.77533l-1.07468,-0.60064c0,0 -0.67095,-0.33516 -1.0061,0.33579c-0.33516,0.67095 0.33579,1.0061 0.33579,1.0061l0.61219,0.24199c0.49538,0.28453 -1.06128,-0.01791 -1.24008,0.03366c-0.63891,0.18428 -1.38487,0.32035 -1.81528,0.82723c-0.21101,0.24851 0.44882,0.6159 0.33157,0.92009c-0.26447,0.68623 -1.46939,-0.24905 -2.20006,-0.16558c-0.77269,0.08827 -2.54184,1.22179 -2.73096,1.66587c-0.39633,0.93063 1.88513,2.7838 1.94021,3.81457l-9.93219,0.41803l-0.63121,-14.99744l10.83949,-0.45621c0.30369,0.30219 0.75805,0.15054 0.75805,0.15054l0.51624,-0.20419l0.73635,-0.03099c0.90316,0.46816 2.82394,1.31767 4.42856,1.72368c0.0035,0.01262 0.00734,0.02521 0.01153,0.03777c0.0895,0.26816 0.3158,0.45215 0.57539,0.50026l1.0158,0.20755l0.00596,-0.02918l0.06886,0.04056c1.81936,-0.00149 3.43044,0.43297 5.20794,0.82727c0,0 0.7322,0.16242 0.89462,-0.56978c0.16242,-0.7322 -0.56978,-0.89462 -0.56978,-0.89462c-1.15235,-0.25562 -2.24421,-0.52846 -3.36313,-0.69547c-0.11578,-0.30119 -0.40779,-0.48772 -0.71745,-0.48035l-1.00213,0.00038c-0.93253,-0.27191 -1.85397,-0.5392 -2.76622,-0.82759l111.90943,-4.71003zM391.36972,320.70888h-0.78958c-0.91329,0 -1.8253,0.00102 -2.73844,0.02006c-1.53653,1.13701 -1.28758,1.92485 -0.3857,2.44045c-0.00298,0.00185 -0.00595,0.00371 -0.00891,0.00557c-0.54979,0.34571 -0.34624,1.31952 -0.81381,1.77025c-1.35806,1.30912 -6.3463,0.10915 -7.11065,-1.54161c-0.00788,-0.01702 -0.03238,-1.70424 -0.03624,-1.95644l0.11831,-0.04766c0,0 0.33541,-0.67082 -0.33541,-1.00623c-0.67082,-0.33541 -1.00623,0.33541 -1.00623,0.33541l-0.27648,0.74191c0.06293,3.95167 3.2536,5.63093 6.96077,5.27274c0.53401,-0.0516 2.78591,-0.79999 2.86825,-0.875c0.354,-0.32252 -0.07008,-1.20051 0.37055,-1.38806c1.24086,-0.52816 3.01772,-0.49483 4.36794,-0.49483c0,0 0.13082,0 0.28319,-0.05464c0.22107,0.02397 0.38357,0.07815 0.40567,0.18383c0.58141,2.78096 -4.66789,2.36768 -4.56995,4.84805c0.00499,0.12641 3.215,2.21959 3.44517,2.38404c0,0 0.6103,0.43593 1.04623,-0.17437c0.43593,-0.6103 -0.17437,-1.04623 -0.17437,-1.04623c-0.03433,-0.02452 -1.28232,-0.99431 -2.12584,-1.48006c0.36373,-0.16699 0.77819,-0.45317 1.05699,-0.6045c1.42323,-0.77254 3.52131,-2.57938 2.7076,-4.50095c-0.76143,-1.79811 -3.63343,-0.93579 -5.14134,-1.04955c-0.10534,-0.00795 -0.42281,-0.152 -0.73482,-0.28867c0.60909,0.00992 1.21803,0.0065 1.82755,0.0065h0.78958c0,0 0.75,0 0.75,-0.75c0,-0.75 -0.75,-0.75 -0.75,-0.75z" fill="#653d33" stroke-width="0"/><path d="M355.71758,329.77128c0.03154,0.74934 -0.7178,0.78087 -0.7178,0.78087l-0.39449,0.01661c-1.66118,0.06991 -2.68963,-0.09114 -4.09041,0.93032c-1.43481,0.08126 -2.80688,0.9876 -4.35185,0.58149c-2.16545,-0.56921 -3.75344,-0.60333 -6.13731,-0.503c-2.95896,0.12454 -6.10925,0.56137 -9.09701,0.29094c-0.04464,-0.14612 -0.09972,-0.28744 -0.17837,-0.41815c-0.09097,-0.15117 -0.62072,-0.06335 -0.49506,-0.18717c0.60281,-0.59398 2.3491,-0.2455 2.93324,-0.35042c0.56681,-0.1018 1.21741,-0.18266 1.66608,-0.53053c1.32318,-0.07719 2.64393,-0.19965 3.92458,-0.25355c2.799,-0.1178 5.14411,-0.26575 7.73628,0.49385c1.20421,0.35288 2.37015,-0.51029 3.50477,-0.53957c1.47709,-1.07711 2.77015,-0.93919 4.52199,-1.01292l0.39449,-0.01659c0,0 0.74934,-0.03154 0.78087,0.7178z" fill="#724539" stroke-width="0.5"/><path d="M328.59168,330.73086c0.15114,-0.73462 0.88575,-0.58346 0.88575,-0.58346c0.07002,0.01462 0.14019,0.02862 0.21051,0.04201c-0.45818,0.30682 -0.82895,0.62344 -0.90994,0.81361c-0.04713,0.11068 -0.0564,0.23442 -0.03602,0.36827c-0.12478,-0.13482 -0.21247,-0.33826 -0.1503,-0.64043z" fill="#724539" stroke-width="0.5"/><path d="M373.67862,323.44291c-2.17113,0.11782 -4.35144,0.37626 -6.54597,0.57692c-0.13849,-0.06438 -0.31799,-0.0859 -0.54631,-0.00969c-0.06231,0.0208 -0.11734,0.04522 -0.16588,0.07249c-0.8631,0.07299 -1.72847,0.13375 -2.59642,0.17028c-3.05086,0.12841 -6.10173,0.2568 -9.15259,0.38521c-0.84221,0.03545 -2.85708,0.34956 -3.68964,0.12308c-2.19952,-0.59836 -5.31293,-1.34704 -7.73775,-1.22288c0,0 -0.74934,0.03154 -0.78087,-0.7178c-0.00356,-0.08459 0.00283,-0.16005 0.01697,-0.22734c0.60317,0.12837 1.2106,0.27274 1.83881,0.41209c0,0 0.7322,0.16242 0.89462,-0.56978c0.02788,-0.12569 0.0294,-0.2346 0.01278,-0.32877c2.11357,0.18489 4.4412,0.6862 6.12935,1.20183c0.63577,0.19418 2.68045,-0.14502 3.25264,-0.16911c3.05086,-0.12841 6.10173,-0.2568 9.15259,-0.38521c3.31787,-0.13964 6.57542,-0.61569 9.8368,-0.80915c1.4852,-0.0881 2.95198,-0.12415 4.39968,-0.17677c0.03108,0.54034 0.1229,1.03572 0.26817,1.48677c-1.50082,0.06313 -3.02728,0.10318 -4.58698,0.18783z" fill="#724539" stroke-width="0.5"/><path d="M394.28055,318.32798c0.36332,0.65612 -0.2928,1.01944 -0.2928,1.01944l-0.93284,0.49362c-0.97941,0.05063 -2.54706,-0.5238 -3.3325,0.04823c-0.27915,0.2033 -0.44931,0.50897 -0.61288,0.82312c-0.42253,0.00278 -0.84506,0.00773 -1.26783,0.01655c-0.74265,0.54955 -1.0682,1.01753 -1.10452,1.41262c-2.36578,0.67022 -4.76146,0.91942 -7.22148,1.05384c-0.00805,-0.3566 -0.01931,-1.08469 -0.02543,-1.49035c2.83494,-0.14277 5.59447,-0.44279 8.27351,-1.42971c1.85267,-2.0671 2.16336,-1.8207 4.8854,-1.8784l0.61192,-0.36178c0,0 0.65612,-0.36332 1.01943,0.2928z" fill="#724539" stroke-width="0.5"/><path d="M335.36963,323.55519c0.13753,0.00335 0.72438,0.0565 0.75221,0.71778c0.03154,0.74934 -0.7178,0.78087 -0.7178,0.78087l-1.08216,-0.3694c-0.5657,-1.18263 -1.2173,-0.33436 -2.50148,-0.27014c-3.35088,0.16754 -6.56952,1.414 -9.81248,1.59856c0,0 -0.74934,0.03154 -0.78087,-0.7178c-0.03154,-0.74934 0.7178,-0.78087 0.7178,-0.78087c3.18682,-0.0709 6.48418,-1.48892 9.81248,-1.59855c1.69743,-0.05591 2.55018,-0.819 3.61229,0.63957z" fill="#724539" stroke-width="0.5"/><path d="M321.27347,321.41366l-0.02566,0.00579c0.16179,0.26735 0.40983,0.48954 0.67279,0.65566c0.85912,0.5923 1.79978,1.15162 1.8835,2.33614c0.03642,0.5153 -0.61808,0.95418 -0.51738,1.46086c0.14689,0.73916 0.99748,1.44107 0.72193,2.1425c-0.25659,0.65318 -2.10052,0.81588 -2.20716,1.96217c-0.10206,1.09695 1.0174,2.00108 0.78534,3.23923c-0.17938,0.95709 -0.82965,0.91859 -0.90697,1.49182c0.10903,0.15665 0.17076,0.38035 0.04869,0.68194c-0.20619,0.50946 -0.63461,0.49449 -0.84884,0.45012c-0.18587,-0.00977 -0.32129,-0.07182 -0.41993,-0.15567c-5.03587,-2.07746 -9.65924,-4.98962 -14.61272,-7.25691c-0.14342,0.03496 -0.31397,0.02865 -0.49437,-0.07914c-0.13138,-0.0603 -0.26368,-0.16528 -0.33753,-0.3478c-0.0918,-0.17419 -0.08665,-0.34299 -0.04796,-0.48227c0.03691,-0.22479 0.15744,-0.36381 0.28878,-0.44971c3.57238,-3.56578 10.09024,-4.25971 14.15095,-7.24753l0.7892,-0.27852c0,0 0.71932,-0.21234 0.93165,0.50698c0.07043,0.23859 0.03836,0.4214 -0.03596,0.55919zM321.93085,327.09873c-0.00781,0.07537 -0.01637,0.15087 -0.02566,0.22652c0.04068,-0.02352 0.0806,-0.04812 0.11955,-0.07415c0.00558,-0.00374 -0.03398,-0.05992 -0.0939,-0.15237z" fill="#9c5f4e" stroke-width="0.5"/><path d="M312.75062,331.50062c-0.01789,0.0312 -0.03851,0.06291 -0.06209,0.09507c-0.44347,0.60484 -1.04832,0.16135 -1.04832,0.16135c-1.42456,-1.04457 -2.99312,-1.94875 -4.49031,-2.88124c-0.44656,-0.27813 -1.83802,-0.70465 -1.94606,-1.29074c-0.09188,-0.49847 0.33693,-0.98664 0.67923,-1.36047c0.85572,-0.93455 1.15707,-0.61021 2.09671,-0.92419c1.57534,-0.52639 5.04505,-3.93218 4.90295,0.14951c2.97455,0.28447 0.54281,3.7733 0.33608,5.3067l0.01224,0.00295c0,0 0.02442,0.58034 -0.48044,0.74107z" fill="#bc7f6d" stroke-width="0.5"/><path d="M436.70706,334.97034l-41.92892,-18.38211c0.39205,0.04361 0.66168,-0.30333 0.66168,-0.30333c0.5993,-0.81654 2.35978,-0.80875 2.43407,-1.81889c0.06314,-0.85843 -1.50642,-2.52112 -1.54247,-3.69532c-0.01569,-0.51097 -0.67103,-1.36429 -0.1849,-1.52245c0.90101,-0.29315 3.81114,0.8463 4.94562,0.82079l0.85115,-0.77103c0,0 0.53013,-0.53053 -0.0004,-1.06066c-0.53053,-0.53013 -1.06066,0.0004 -1.06066,0.0004l-0.36465,0.44569c-1.11932,-0.05433 -4.19346,-1.47383 -5.27152,-0.63485c-1.57551,1.22609 -0.26245,5.20067 1.19588,5.97072c0.34808,0.1838 -0.8726,-0.15152 -1.17677,0.09832c-0.41327,0.33945 -0.67317,0.83121 -1.00974,1.24681c0,0 -0.46023,0.59219 0.13196,1.05242c0.00007,0.00006 0.00015,0.00012 0.00022,0.00017l-52.17863,-22.87571c1.91987,-0.94817 3.25665,0.66809 5.24737,0.33421c0.03415,-0.00573 2.44284,-0.78212 2.74119,-0.51873c0.29184,0.25763 0.26147,0.77902 0.56597,1.02154c1.05668,0.8416 3.26629,-0.17608 2.20389,0.57624l-0.68581,0c-0.41421,0 -0.75,0.33579 -0.75,0.75c0,0.32193 0.20283,0.59649 0.48768,0.70285l1.05536,0.42214l0.08027,-0.20068c0.33805,0.15184 0.69016,0.24938 1.05554,0.25433h0.85727c0,0 0.75,0 0.75,-0.75c0,-0.75 -0.75,-0.75 -0.75,-0.75l-0.48099,0c1.50772,-2.60098 -1.87664,-1.2215 -2.9302,-2.21009c-0.32397,-0.30399 -0.34302,-0.88644 -0.71992,-1.12162c-0.93033,-0.58051 -2.81728,0.1707 -3.68829,0.33853c-2.10382,0.40537 -3.481,-1.25263 -5.80361,-0.14239c0,0 -0.51743,0.25871 -0.4162,0.77614l-15.83533,-6.94239c0.02584,-0.72309 -0.27451,-1.48193 -0.1347,-2.19855c0.09819,-0.50324 1.14188,0.30797 1.5381,-0.01746c0.29223,-0.24002 -0.00137,-0.7608 0.06877,-1.13241c0.05309,-0.28125 0.37914,0.45508 0.64037,0.57204c0.85134,0.38115 1.73257,1.10721 2.64499,0.91347c0.63447,-0.13472 1.11016,-0.89105 1.75653,-0.8372h0.42863c0,0 0.75,0 0.75,-0.75c0,-0.75 -0.75,-0.75 -0.75,-0.75h-0.42863c-0.75809,0.03702 -1.41245,0.55836 -2.10116,0.87733c-0.17762,0.08226 -1.97885,-1.22331 -2.39646,-1.27378c-0.53472,-0.06462 -1.18024,-0.14378 -1.60493,0.18749c-0.26627,0.2077 0.25013,0.72589 0.06877,1.01076c-0.108,0.16964 -0.28103,-0.41141 -0.47754,-0.36868c-0.52581,0.11433 -1.12986,0.32253 -1.41342,0.77986c-0.44893,0.72405 -0.06219,1.57411 -0.01983,2.36l-4.89199,-2.1447l6.02709,-13.74758l11.63389,5.10043c0.90439,1.44394 3.47449,2.11503 4.55011,2.66186c0.24555,0.12483 -2.3223,2.36039 -2.12767,3.31805c0.11845,0.58279 0.54603,1.1221 1.04456,1.44634c0.29939,0.19472 0.69434,0.14236 1.06511,0.09698c-0.26526,0.14692 -0.47267,0.34292 -0.8632,0.63489l-0.15567,1.15346c0,0 0.23744,0.71142 0.94886,0.47398c0.45429,-0.15162 0.52166,-0.49651 0.51103,-0.72602c0.76159,-0.56432 1.90096,-1.464 1.76754,-2.18163c-0.08063,-0.43367 -2.83579,-0.97071 -2.82435,-1.03329c0.22941,-1.25531 2.5419,-1.77204 2.35411,-3.09561l38.16137,16.73037c-0.04725,0.02638 -0.0745,0.04684 -0.0745,0.04684c-0.69535,0.52743 -1.32286,1.15531 -1.85848,1.84461l-1.16984,0.74507c-0.29282,0.17763 -0.43476,0.5399 -0.32176,0.87846c0.12978,0.38886 0.54724,0.60073 0.93672,0.47792l0.71964,-0.22474c0.53918,0.9845 1.68802,1.71031 1.30852,2.37162c-0.32672,0.56933 -2.02995,1.16836 -2.52495,1.32529l-0.40132,0.13394c0,0 -0.71142,0.23744 -0.47398,0.94886c0.23744,0.71142 0.94886,0.47398 0.94886,0.47398l0.40132,-0.13394c1.66536,-0.57812 4.62478,-2.18266 3.31222,-4.44608c-0.4794,-0.8267 -1.16355,-0.34182 -1.40528,-1.05601l0.97341,-0.32488c0.3929,-0.13113 0.60512,-0.55596 0.47398,-0.94886c-0.08002,-0.23975 -0.26939,-0.41222 -0.49413,-0.48046c0.15338,-0.13493 0.31178,-0.26373 0.47554,-0.38513c0,0 0.41039,-0.30804 0.29747,-0.75398l60.64728,26.58845z" fill="#653d33" stroke-width="0"/><path d="M343.05041,291.63347c-1.69464,-1.46334 -3.1059,-2.19218 -5.29112,-3.1502c-3.24962,-1.42467 -6.94302,-2.56748 -9.76269,-4.73564c0,0 -0.08277,-0.064 -0.16259,-0.17511c0.6863,0.37306 1.39165,0.79991 2.11668,0.64595c0.2947,-0.06258 0.55515,-0.25926 0.81435,-0.44658c2.05714,1.14685 4.39224,1.9328 6.51167,2.86199c2.56573,1.12484 4.73707,2.02306 6.73126,3.84502c0.92642,0.84639 2.35313,0.58377 3.38507,1.05635c1.07911,-0.1906 1.90689,-0.01816 2.74278,0.30221c-0.97067,-0.04178 -2.22395,0.42469 -2.88754,0.55255c-1.46045,0.28141 -2.57073,-0.43153 -3.89021,-0.52248c-0.10516,-0.07023 -0.20786,-0.14787 -0.30768,-0.23407z" fill="#724539" stroke-width="0.5"/><path d="M351.89986,292.61371l0.36161,0.15853c0,0 0.55422,0.24297 0.44875,0.79024c-0.4185,-0.0525 -0.80241,-0.15357 -1.05371,-0.38938c-0.24407,-0.22902 -0.31508,-0.61609 -0.49642,-0.89364c0.23688,0.10835 0.48181,0.22115 0.73977,0.33424z" fill="#724539" stroke-width="0.5"/><path d="M350.19754,293.35679c0.06272,0.05537 0.11056,0.12292 0.15004,0.19727c-0.19219,-0.08784 -0.37726,-0.17002 -0.56017,-0.24383c0.19951,-0.01771 0.34905,-0.00736 0.41013,0.04656z" fill="#724539" stroke-width="0.5"/><path d="M371.56147,295.97344c-3.00441,-1.27387 -6.16664,-2.27235 -9.20707,-3.60531c-2.79661,-1.22606 -5.59323,-2.45213 -8.38984,-3.67819c-0.77202,-0.33846 -2.7198,-0.94222 -3.36798,-1.5117c-1.71244,-1.5045 -4.17958,-3.54582 -6.41203,-4.50044c0,0 -0.68689,-0.30114 -0.38575,-0.98803c0.30114,-0.6869 0.98803,-0.38575 0.98803,-0.38575c2.28775,1.02329 5.05695,3.11933 6.78429,4.73392c0.48564,0.45394 2.47122,1.04827 2.99573,1.27822c2.79661,1.22606 5.59322,2.45213 8.38983,3.6782c3.04135,1.33336 6.17646,2.33807 9.19075,3.59827c1.87484,0.78383 3.67614,1.63975 5.47923,2.41c-0.12414,0.18608 -0.16409,0.42551 -0.08779,0.65413c0.12978,0.38886 0.54724,0.60073 0.93672,0.47792l0.71964,-0.22474c0.38235,0.69813 1.07127,1.26619 1.30436,1.77339c-2.99264,-0.97525 -5.85145,-2.40115 -8.93814,-3.7099z" fill="#724539" stroke-width="0.5"/><path d="M392.31415,300.43761c0.03784,0.74904 -0.71121,0.78688 -0.71121,0.78688l-1.05487,0.03319c-0.90192,-0.38514 -2.05736,-1.59033 -3.01431,-1.4219c-0.64812,0.11406 -1.10424,0.73604 -1.71899,0.97086c-1.30513,-0.11079 -2.55584,-0.34548 -3.7753,-0.66772c0.11458,-0.47427 0.05159,-0.99457 -0.27358,-1.55531c-0.01098,-0.01893 -0.02206,-0.03718 -0.03325,-0.05476c1.25586,0.37501 2.53873,0.65569 3.87224,0.79256c2.57283,-1.042 2.74355,-0.68411 5.21375,0.4609l0.70865,-0.0559c0,0 0.74904,-0.03783 0.78688,0.71121z" fill="#724539" stroke-width="0.5"/><path d="M386.14628,311.85225c-2.09876,-0.92012 -4.13281,-1.4317 -5.43758,-3.38367c0,0 -0.40449,-0.63159 0.22709,-1.03608c0.63158,-0.40448 1.03607,0.22711 1.03607,0.22711c0.97663,1.61844 3.06418,2.06807 4.77671,2.81886c2.62921,1.15267 5.59498,2.6445 8.47233,3.6766c-0.38788,0.3375 -0.64105,0.8088 -0.96544,1.20935c0,0 -0.0098,0.01261 -0.02471,0.03559c-2.76696,-1.03675 -5.59888,-2.45805 -8.08447,-3.54776z" fill="#724539" stroke-width="0.5"/><path d="M325.38566,271.10956l-0.02558,-0.00607c0.02777,0.31125 0.15285,0.61988 0.31598,0.88469c0.51121,0.90971 1.11015,1.82566 0.66453,2.92636c-0.19385,0.47883 -0.97466,0.58524 -1.10699,1.08459c-0.19306,0.72847 0.26229,1.73286 -0.29361,2.24172c-0.51764,0.47384 -2.24531,-0.19077 -2.8451,0.7919c-0.57397,0.94036 0.03395,2.24462 -0.71886,3.25464c-0.58191,0.78073 -1.14903,0.46026 -1.47051,0.94111c0.02905,0.18863 -0.01388,0.41669 -0.25611,0.6339c-0.40919,0.36692 -0.7874,0.16511 -0.9603,0.03108c-0.16265,-0.0905 -0.257,-0.20576 -0.30873,-0.32445c-3.6096,-4.08004 -6.48169,-8.7284 -9.93382,-12.9427c-0.14418,-0.03165 -0.29459,-0.1123 -0.40923,-0.28845c-0.09149,-0.11191 -0.16416,-0.26437 -0.15025,-0.46079c-0.00586,-0.19681 0.07298,-0.34616 0.16897,-0.45425c0.13198,-0.18566 0.30136,-0.25753 0.4571,-0.27693c4.77635,-1.63194 10.9355,0.61054 15.89633,-0.28758l0.83128,0.09684c0,0 0.73942,0.12555 0.61387,0.86496c-0.04165,0.24526 -0.15082,0.39535 -0.27815,0.48643zM323.47651,276.50468c-0.04014,0.06426 -0.08104,0.12831 -0.12264,0.19217c0.04687,-0.00325 0.09356,-0.00779 0.13999,-0.01404c0.00666,-0.0009 -0.00417,-0.06876 -0.01735,-0.17814z" fill="#9c5f4e" stroke-width="0.5"/><path d="M313.29583,276.42194c-0.02979,0.02016 -0.06224,0.03957 -0.09756,0.05807c-0.66423,0.34825 -1.01249,-0.316 -1.01249,-0.316c-0.82021,-1.56453 -1.83148,-3.06629 -2.76618,-4.56208c-0.27879,-0.44615 -1.34101,-1.44103 -1.18035,-2.01492c0.13663,-0.4881 0.73642,-0.73802 1.20823,-0.92328c1.17947,-0.46313 1.30752,-0.03934 2.28951,0.09181c1.64634,0.21986 6.26014,-1.31352 4.33788,2.29001c2.54653,1.56334 -1.17151,3.62767 -2.03138,4.91401l0.0097,0.00802c0,0 -0.23322,0.53198 -0.75734,0.45436z" fill="#bc7f6d" stroke-width="0.5"/><path d="M360.54821,284.98901c2.30172,1.0091 4.65046,2.03882 6.95218,3.04792c2.86528,1.25616 5.73055,2.51235 8.59584,3.76851c0.76991,0.33754 2.72636,0.89463 2.83704,1.91292c0.03663,0.33706 -1.49207,1.75509 -1.87683,1.85578c-1.79025,0.46848 -4.42574,-1.66425 -5.39415,-2.85488c-2.70955,-1.74638 -4.81631,-0.18998 -7.63963,-0.80389c-1.34752,-0.293 -1.95372,-1.80092 -2.99239,-2.57906c-1.93151,-1.447 -3.10867,-1.50943 -1.87428,-4.34876c0,0 0.30113,-0.68689 0.98803,-0.38575c0.22751,0.09974 0.34663,0.24181 0.40421,0.38721z" fill="#9c5f4e" stroke-width="0.5"/><path d="M440.77905,330.38944c-5.67712,-3.86388 -10.52886,-8.58137 -17.00421,-11.41834c-0.8497,-0.37227 -3.54457,-1.43962 -4.727,-0.97866c-1.20061,0.46805 -1.96231,1.84888 -3.21659,2.14439c-2.00206,0.4717 -4.14139,0.40544 -6.17027,0.0672c-3.49413,-0.58252 -7.2133,-2.8657 -9.90914,-5.04147c-1.46344,-1.18111 -3.33186,-2.17148 -4.07958,-3.89705c-1.08102,-2.49475 -0.12023,-10.02348 0.07524,-12.92836c2.59467,-1.96098 5.27284,-3.81476 7.79703,-5.86566c1.0801,-0.87757 1.78624,-2.37171 3.11762,-2.7769c6.30946,-1.9202 11.09082,2.72679 17.11333,3.03509c1.135,0.0581 2.3306,0.49098 3.40708,0.12663c2.91806,-0.98766 3.31838,-5.40031 5.85132,-7.1538c2.15332,-1.49068 7.7868,0.11688 9.78198,0.51761c1.37115,0.27539 3.39938,-0.36562 4.11097,0.83834c1.18733,2.00887 0.98197,4.69636 0.5111,6.98188c-0.81964,3.97845 -5.82009,2.86061 -3.69633,7.94952c0.45603,1.09275 2.34706,0.40482 3.53102,0.38791c3.09594,-0.04423 6.19252,0 9.28877,0c1.2556,0 6.07709,-0.03805 6.67865,0.1903c1.08745,0.41277 1.56055,1.77862 2.56391,2.36698c1.35534,0.79476 2.99482,0.99255 4.39171,1.71177c1.14828,0.59123 1.92734,1.94031 3.19377,2.1938c1.03983,0.20813 2.06021,-0.53436 3.03726,-0.9466c3.71202,-1.56617 9.81491,-5.51095 14.12328,-2.89997c0.88245,0.53479 -0.00264,2.28046 0.72845,3.00862c0.38205,0.38051 0.67996,-0.86759 1.14184,-1.14583c2.17142,-1.30807 7.28566,-3.81108 9.90222,-3.37966c2.01518,0.33227 3.62538,1.89322 5.34663,2.99262c0.58777,0.37542 0.87766,1.21046 1.546,1.40983c1.06887,0.31884 2.31009,-0.36447 3.34587,0.0494c0.93871,0.37509 1.22038,1.73443 2.14439,2.14439c0.691,0.30658 1.50408,-0.17469 2.25988,-0.19031c4.51404,-0.09325 6.15002,-0.72734 9.40761,-3.9154c1.53478,-0.48149 3.00014,-1.56256 4.60434,-1.44449c6.52493,0.48023 9.02995,6.78386 14.58956,8.68374c2.13913,0.731 4.52031,-0.10727 6.7809,-0.10727c4.28878,0 8.57755,0 12.86633,0c0.6147,0 7.79598,-0.06513 8.46207,0.1903c1.11807,0.42874 1.65076,1.76532 2.64946,2.42599c1.19371,0.78967 2.56546,1.26861 3.85432,1.89222c0.42598,-0.77031 1.24671,-1.29192 2.18926,-1.29192c0.57191,0 1.09896,0.19204 1.5202,0.51515l3.9798,2.98485l-0.08585,0.11445c0.27182,0.2054 0.53048,0.42896 0.77305,0.6747c0.78829,0.79861 0.60131,7.99574 0.60158,8.93279c0.00095,3.29766 0.98546,8.6125 -0.1903,11.67865c-0.42874,1.11807 -1.75706,1.65626 -2.42598,2.64945c-0.99688,1.48012 -1.21532,3.51383 -2.53449,4.71564c-4.0135,3.65645 -4.64545,0.28137 -8.98805,1.52857c-1.05655,0.30344 -1.44537,1.85325 -2.50536,2.14439c-6.85249,1.88206 -13.81974,-1.1097 -20.44872,-2.00544c-6.09492,-0.82358 -13.20785,-0.23248 -19.20017,0.87014c-4.70633,0.85543 -9.57683,1.27611 -14.24339,2.29332c-2.29603,0.50049 -4.05354,2.46537 -6.29268,3.17848c-1.2522,0.3988 -2.62697,0.0915 -3.94105,0.10727c-2.63511,0.03161 -5.32763,0.51338 -7.90581,-0.03228c-4.82119,-1.02039 -9.45503,-3.40769 -14.37374,-4.12508c-1.6388,-0.23901 -3.33569,0.12367 -4.96551,-0.17048c-1.65946,-0.29949 -3.14934,-1.25575 -4.80169,-1.59228c-1.66965,-0.34005 -3.44148,-0.00877 -5.09425,-0.42317c-1.60933,-0.4035 -2.94639,-1.60768 -4.55916,-1.99723c-2.946,-0.71159 -6.31079,-0.16662 -8.93511,-1.68261c-0.97014,-0.56042 -1.53841,-1.63998 -2.41503,-2.33766c-0.84554,-0.67295 -1.6581,-1.31649 -2.45076,-1.95773c-0.01287,0.00794 -0.02587,0.01585 -0.03899,0.02372c-2.14373,1.28624 -3.42997,-0.8575 -3.42997,-0.8575c-0.92723,-1.57629 -2.14892,-3.01304 -2.78167,-4.72886c-0.0676,-0.18331 -0.10281,-0.37646 -0.11724,-0.5756c-0.06311,-0.04131 -0.13044,-0.07678 -0.20284,-0.10524c-0.70358,-0.27651 -1.50659,0.12686 -2.25988,0.1903l-3.30826,-3.52636c0,0 -0.64925,-1.2985 0.03127,-2.41123z" fill="#9edbe8" stroke-width="0.5"/><path d="M429.34354,249.71707c0.61514,-0.49346 1.20886,-1.02621 1.94699,-1.25888c1.18486,-0.3735 2.48325,-0.09002 3.72546,-0.10727c3.48524,-0.04839 7.20229,-0.27838 10.68072,0.00629c2.15378,0.17626 4.16552,1.18677 6.29755,1.53932c3.44809,0.57017 4.9298,-1.00992 8.05746,-1.5005c3.86948,-0.60694 5.7886,0.82404 9.20417,1.46586c1.95604,0.36756 3.33467,-2.17596 5.04728,-3.18995c2.67022,-1.58098 3.04381,-1.27738 5.72532,-1.27097c0.82774,-0.36978 5.36632,-2.48221 6.2761,-2.54142c3.71928,-0.24206 3.94738,1.06163 6.65744,2.93778c3.29724,2.28265 6.51213,4.95529 9.37096,7.81514c0.5442,0.54439 0.75762,1.38699 1.35984,1.86641c1.94953,1.55199 4.03683,2.92998 6.15398,4.24414c1.19468,0.74156 2.77082,0.83405 3.83885,1.74864c3.30517,2.83034 3.25379,7.72601 3.8345,11.55216c0.22748,1.49882 1.03262,2.91592 1.02098,4.43186c-0.00949,1.23602 -0.74949,2.3563 -1.08224,3.54673c-0.29533,1.05655 -0.18474,2.28476 -0.8014,3.19209c-2.12936,3.13304 -6.76969,3.52047 -10.04347,4.60136c-2.26049,0.32293 -4.41498,1.21661 -6.67609,1.5351c-5.24235,0.73841 -11.80647,0.46195 -17.11216,0.02376c-3.36619,-0.27801 -6.17419,-1.76192 -9.41164,-2.5691c-4.48475,-1.11817 -8.71084,-2.28462 -13.23642,-2.94838c-9.82447,-1.44095 -20.02354,1.93001 -29.5721,-1.41128c-1.14739,-1.40494 -2.81536,-2.51263 -3.44217,-4.21482c-0.62799,-1.70541 0.12108,-3.64913 -0.11707,-5.45081c-0.13825,-1.04587 -0.8324,-1.96115 -1.00033,-3.00267c-0.65876,-4.08551 -0.04104,-8.74941 -0.03225,-12.90442c0.00103,-0.48452 -0.01674,-1.09267 -0.01919,-1.7554c-0.31496,0.05945 -0.62874,0.12266 -0.93982,0.19453c0,0 -2.44047,0.54233 -2.98279,-1.89814c-0.54233,-2.44047 1.89814,-2.98279 1.89814,-2.98279c0.99815,-0.21111 2.03463,-0.29649 3.02468,-0.53416c0.07773,-0.10546 0.16138,-0.20364 0.25138,-0.29364c0.54536,-0.54536 1.30285,-0.73681 2.09732,-0.86658z" fill="#aef0ff" stroke-width="0.5"/><path d="M446.35886,298.55513c0.53033,-0.53033 1.06066,0 1.06066,0l0.81099,0.81189c0.86155,0.75403 1.9541,0.91126 2.82086,1.4693l0.83705,-0.00086l0.00006,0.06151c0.05755,-0.01384 0.1151,-0.02769 0.17265,-0.04153l0.13099,0.12418l0.03249,-0.06497l0.8188,0.4094c0.25368,0.12026 0.42912,0.37868 0.42912,0.67809c0,0.39427 -0.30423,0.71749 -0.69075,0.74769c0.79534,2.59064 -0.10587,6.06082 -0.57591,8.57618c-0.20446,1.09413 -0.31595,2.62446 -1.34109,3.05806c-0.55472,0.23463 -2.08166,-1.46743 -2.58438,-1.68436c-0.73433,-0.31688 -1.59257,-0.1507 -2.38707,-0.24249c-2.1779,0.23161 -0.79222,2.57583 -2.31559,3.90334c-1.1529,1.00467 -2.95776,-0.83591 -3.85528,-1.21906c-0.47849,-0.20426 -1.48648,-1.0457 -1.46958,-0.52571c0.09328,2.87125 -2.54474,8.20156 -1.10951,10.80093c0,0 0.33541,0.67082 -0.33541,1.00623c-0.67082,0.33541 -1.00623,-0.33541 -1.00623,-0.33541c-1.47687,-3.15562 0.81003,-6.4469 1.17643,-9.59364c0.05114,-0.43919 -0.13686,-2.5733 0.21406,-2.93877c1.06956,-1.11388 3.59749,0.5127 4.46883,1.018c0.34196,0.19831 0.87768,0.93117 1.03964,0.57056c1.04572,-2.32827 0.12223,-3.43762 3.12615,-4.18501c0.02975,0.00308 2.85718,0.28293 3.00452,0.34586c0.52882,0.22585 0.9975,0.59909 1.39563,1.014c0.15274,0.15918 0.145,0.85162 0.18665,0.63497c0.45567,-2.37031 2.04554,-7.61588 0.9345,-9.99406l-1.11334,-0.74223c-0.02299,-0.01485 -0.04511,-0.03092 -0.06628,-0.04812c-1.01003,-0.29639 -1.95943,-0.87639 -2.95395,-1.69855l-0.85568,-0.85477c0,0 -0.53033,-0.53033 0,-1.06066z" fill="#70a9cc" stroke-width="0.5"/><path d="M429.42012,256.85054c0,0.75 -0.75,0.75 -0.75,0.75l-0.94499,-0.15838c-1.57362,-1.22807 -3.3833,-1.93443 -4.77685,-3.34384c-0.65158,-0.21919 -1.33429,-0.83551 -1.97628,-0.58967c-0.51183,0.196 0.28632,1.09823 0.17499,1.63487c-0.33403,1.61017 -0.93918,6.75482 -2.24713,7.6693c-0.20715,0.14483 -2.88711,0.11201 -3.20262,0.11201c-1.93611,0 -3.87222,0 -5.80833,0c-1.18952,0 -2.28686,-0.64059 -2.31536,0.20333c1.15486,0.56286 2.2976,1.17312 3.42643,1.89476c0.68031,0.67625 2.02791,2.45871 2.95794,2.78071c0.57006,0.19737 1.17794,0.40498 1.6986,0.72l0.1822,-0.11604c0.4332,-1.33613 1.38214,-3.18618 2.71732,-2.58679c1.94477,0.87305 1.89139,4.02073 1.67108,5.42776c-0.07357,0.4699 0.89366,0.32894 1.35178,0.45681l0.57687,-0.22528c0,0 0.71179,-0.23635 0.94814,0.47544c0.23635,0.71179 -0.47544,0.94814 -0.47544,0.94814l-1.00854,0.30115c-3.84289,-1.03162 -1.89318,-3.07031 -3.56524,-5.97026c-0.1537,-0.26656 -0.22743,0.57343 -0.37429,0.84382c-0.26912,0.49552 -0.39399,1.13936 -0.86013,1.45665c-0.04969,0.03382 -0.10048,0.06539 -0.15223,0.09495l0.0126,0.01979l-1.25101,0.79675c-0.05443,0.03636 -0.11455,0.06614 -0.17964,0.08786c-0.3929,0.13113 -0.81773,-0.08108 -0.94886,-0.47398c-0.09479,-0.284 -0.01019,-0.58468 0.19237,-0.77907l0.07636,-0.07641c-1.92025,0.10861 -3.21827,-1.71552 -4.50769,-3.01129c-2.33728,-1.47271 -4.89559,-2.36196 -7.24631,-3.60095c-0.65573,-0.34561 -0.75006,-1.40804 -1.43017,-1.70279c-1.16903,-0.50665 -2.51926,-0.44734 -3.81032,-0.66363c-1.97522,1.08825 -3.84688,2.16985 -5.67182,3.49985c1.56434,-0.14015 3.74256,0.25775 2.07451,2.36898c-0.3596,0.45515 -1.25565,0.78138 -2.20316,1.0422c1.20515,0.58528 2.15627,1.65277 2.11519,2.94293c-0.08549,2.68481 -4.88235,3.5022 -6.83568,4.15413c-0.72922,0.24338 -1.79302,-0.21565 -2.27408,0.38399c-0.36874,0.45963 1.11847,0.37171 1.68131,0.5462l0.85734,0.1192c0,0 0.7425,0.10579 0.63672,0.84829l-0.00001,0.00001c-0.10579,0.7425 -0.84829,0.63672 -0.84829,0.63672l-0.98741,-0.14363c-0.4672,-0.15993 -1.02343,-0.16222 -1.4016,-0.47977c-3.57073,-2.9983 3.7942,-3.78482 5.95528,-4.7486c2.24897,-1.00298 1.43929,-2.81302 -0.75893,-3.60415c-0.1211,-0.04358 -0.24547,-0.07279 -0.37205,-0.09237c-0.09025,0.0258 -0.17422,0.0514 -0.25077,0.07695l-0.8378,-0.11936c-0.28144,-0.00623 -0.55918,-0.02941 -0.82248,-0.11718c0.09508,-0.11663 0.19993,-0.22091 0.31311,-0.31334l0.8723,-0.87296c1.28696,-0.42953 2.79275,-0.68727 4.00902,-1.21994c0.3419,-0.14973 -0.75177,0.11171 -1.11887,0.04425c-0.79405,-0.14593 -1.46977,-0.66862 -2.20464,-1.00294l1.34262,-1.53351c1.5663,-1.15613 3.16617,-2.13165 4.83153,-3.07439c-0.31506,-0.19335 -0.61689,-0.43801 -0.90077,-0.75048c-1.81302,-1.9956 0.61894,-4.15389 -0.69381,-5.97635c0,0 -0.4029,-0.6326 0.2297,-1.03549c0.6326,-0.4029 1.03549,0.2297 1.03549,0.2297c0.30535,0.5216 0.83281,0.96615 0.91605,1.56479c0.19583,1.40834 -1.55281,2.93462 -0.28777,4.3169c0.35292,0.38563 0.78075,0.63531 1.25061,0.80193c0.18004,-0.06427 0.55937,-0.14063 0.83239,0.21269c1.36315,0.24071 2.89558,0.09708 3.95773,0.59737c0.68271,0.32157 0.78343,1.40839 1.46988,1.72191c0.87555,0.3999 1.74557,0.78484 2.60935,1.18091c0.00099,-0.30463 0.05487,-0.58349 0.26302,-0.78721c0.4865,-0.47614 1.35092,-0.17739 2.03033,-0.21967c2.41325,-0.15016 4.8898,0 7.30833,0c0.80554,0 1.73313,0.54245 2.41403,0.11201c0.76553,-0.48394 0.43984,-3.16081 0.58533,-3.84819c0.2845,-1.34413 0.85982,-2.38468 0.99516,-3.75371c0.04929,-0.4986 -0.18806,-1.19566 0.21958,-1.48696c1.15311,-0.82401 2.7801,0.00988 3.83204,0.37839c1.44425,1.42886 3.28639,2.1743 4.90369,3.43254l0.02306,-0.15838c0,0 0.75,0 0.75,0.75z" fill="#70a9cc" stroke-width="0.5"/><path d="M442.72731,256.74503c0.58954,-0.46363 1.05316,0.12591 1.05316,0.12591l0.64439,1.0791c-0.00058,3.44742 0.38673,7.19514 -0.27933,10.59037c-0.13448,0.68552 -0.34781,1.26887 -0.63351,1.6766c1.68602,0.67141 2.8789,2.01762 4.13679,3.58998c0,0 0.26503,0.33129 0.14726,0.69486c1.5001,0.29307 3.10254,0.78777 4.51712,0.87826c1.99722,0.12778 3.68877,0.20729 5.6204,-0.46001c0.14288,-0.04936 0.27028,-0.1022 0.38689,-0.15595c-1.36398,-0.06067 -3.37271,-0.4613 -3.42483,-1.70456c-0.03955,-0.94347 3.56666,-2.58759 4.27557,-2.90357c0.00972,-0.00433 0.01983,-0.00901 0.03031,-0.01403c-0.63004,0.05606 -1.26226,-0.30131 -1.83196,-0.77208l-0.01131,0.01635l-1.22738,-0.84904c-0.13195,-0.08918 -0.23667,-0.22093 -0.29098,-0.38367c-0.13113,-0.3929 0.08108,-0.81773 0.47398,-0.94886l1.10666,-0.36935c1.04667,-0.34933 3.04701,0.25509 3.20265,-0.83731c0.02526,-0.1773 -1.15689,-2.77032 -1.28044,-3.14261c-0.84676,-2.55165 -2.59405,-5.22479 -4.18541,-7.39967c-1.04265,-1.42496 -2.54204,-2.32295 -3.14487,-4.03447c0,0 -0.23744,-0.71142 0.47398,-0.94886c0.71142,-0.23744 0.94886,0.47398 0.94886,0.47398c0.45671,1.48684 2.01331,2.37157 2.91906,3.60541c1.69228,2.3053 3.50424,5.12583 4.41121,7.82872c0.27241,0.81182 1.59591,3.44055 1.19949,4.28781c-0.30959,0.66167 -2.35546,1.14071 -3.49015,1.42973c1.71538,0.09163 4.09178,0.33056 2.92392,2.331c-0.37702,0.6458 -3.28645,2.1477 -4.01025,2.51148c-0.29712,0.14933 -0.82838,-0.19472 -0.99316,0.09412c-0.25238,0.44241 0.98389,0.28192 1.49012,0.33814c0.58112,0.06453 2.89888,-0.82027 3.60477,0.01165c1.29199,-0.2018 2.39137,0.24661 2.25015,2.21166c-0.09994,1.39065 -2.55526,1.57114 -3.05515,2.45376c-0.36793,0.64961 -0.06317,3.39559 0.42484,4.0565c0.4485,0.60741 2.24005,-0.18762 2.54077,-0.18537c2.10326,0.01575 3.18266,0.97701 5.3751,0.39451c0.71983,0.09879 1.3523,0.62116 2.07792,0.65836c1.98095,0.10158 3.28519,-0.72605 5.4683,0.03928l0.61159,0.29923c0,0 0.67095,0.33516 0.33579,1.0061l-0.00001,-0.00001c-0.33516,0.67095 -1.0061,0.33579 -1.0061,0.33579l-0.44271,-0.22741c-1.99387,-0.71687 -3.18364,0.1641 -5.07263,0.04327c-0.66112,-0.04228 -1.22047,-0.55816 -1.87542,-0.65776c-2.1739,0.63288 -3.42398,-0.41306 -5.42965,-0.39198c-1.0887,0.01145 -2.5732,0.9252 -3.62568,-0.23574c-0.96711,-1.06678 -1.38017,-4.65326 -0.68688,-5.87477c0.50352,-0.88713 1.64937,-1.20075 2.47975,-1.79318c0.20143,-0.14371 0.54647,-0.60539 0.30901,-0.67497c-0.21667,-0.06347 -0.43071,-0.08639 -0.64018,-0.07686c-0.31674,0.47498 -1.14215,0.61211 -1.67438,0.91583c-0.18084,0.10319 -0.36252,0.1986 -0.54502,0.28672c-0.04001,0.0402 -0.07896,0.08033 -0.1168,0.12016c0,0 -0.30666,0.30689 -0.68692,0.22062c-2.01038,0.73957 -4.11484,0.70789 -6.28858,0.56882c-2.02841,-0.12977 -4.59982,-1.15798 -6.48304,-1.09188c-0.46445,0.01631 -0.88236,0.44056 -1.34256,0.37589c-0.27649,-0.03885 -0.26845,-0.57503 -0.5399,-0.64043c-0.57498,-0.13853 -0.36542,1.12759 -0.48419,1.70698c-0.23697,1.156 -0.90318,3.14312 0.08418,3.72598l0.00007,-0.00014l1.05429,0.52665c0.17171,0.08577 0.3107,0.23705 0.37627,0.43351c0.13113,0.3929 -0.08108,0.81773 -0.47398,0.94886c-0.11949,0.03988 -0.24193,0.048 -0.35817,0.02895l-0.90745,-0.12929l0.01948,-0.13676c-0.66024,0.03876 -1.28403,0.01172 -2.15341,0.01335l-1.31762,0.00049c0,0 -0.75,0.00028 -0.75028,-0.74971c-0.00028,-0.75 0.74971,-0.75028 0.74971,-0.75028l1.31762,-0.00049c0.12685,0.00013 0.25665,-0.00597 0.3871,-0.01454c-0.17343,-0.55686 0.266,-1.1592 0.29691,-1.7479c0.0973,-1.8529 -0.33892,-4.85737 2.26522,-5.35191c0.33772,-0.06414 0.43798,0.62753 0.77821,0.67669c0.36607,0.0529 0.65909,-0.40627 1.02884,-0.41557c0.11205,-0.00282 0.22577,-0.00222 0.34101,0.00145c-1.53793,-1.85452 -2.82523,-2.89329 -5.44209,-3.20563l-0.13336,-0.28224l-0.10214,0.07647l-0.73719,-0.9847c-0.09671,-0.12629 -0.15418,-0.28422 -0.15418,-0.45558c0,-0.41421 0.33579,-0.75 0.75,-0.75c0.08907,0 0.17452,0.01553 0.25378,0.04402l1.40642,0.46881l-0.13296,0.39887c0.34028,0.04628 0.64729,-0.00197 0.88738,-0.24586c0.57692,-0.58607 0.10053,-1.64179 0.16621,-2.46155c0.23627,-2.94924 0.05677,-5.98244 0.05727,-8.93974l-0.32346,-0.1516c0,0 -0.46363,-0.58954 0.12591,-1.05316z" fill="#70a9cc" stroke-width="0.5"/><path d="M455.28607,288.88682c-0.23744,-0.71142 0.47398,-0.94886 0.47398,-0.94886l0.79047,-0.26382c0.5861,-0.11842 1.19609,-0.55889 1.7583,-0.35526c0.68214,0.24708 0.15141,1.64777 0.7627,2.03852c1.36091,0.86992 2.00215,-0.7923 3.59998,1.22799c1.52044,1.92243 1.92244,3.92516 3.64394,5.55238l0.44757,0.06377c0.2787,0.03376 0.52693,0.22335 0.62172,0.50736c0.13113,0.3929 -0.08108,0.81773 -0.47398,0.94886c-0.08449,0.0282 -0.17046,0.04052 -0.25466,0.03859l-1.06626,0.0004c-0.16268,0.2854 0.25705,1.22143 0.48542,1.74243c0.20185,-0.10908 0.53379,-0.19283 0.86587,0.13901c0.12167,0.12158 0.18755,0.24317 0.21684,0.35838c1.52798,0.23991 2.91906,0.69529 3.60726,1.66708c0.74398,1.05058 -0.74781,3.31847 -1.32306,3.91406c-0.4022,0.41643 -1.97912,0.79859 -1.43084,0.98453c0.69224,0.23478 1.47159,0.01344 2.18672,0.16481c1.43222,0.20418 4.08302,0.24453 5.33075,0.78276c1.67884,0.72419 1.0702,2.30374 0.98926,3.64807c-0.14829,2.46276 -1.00497,5.92467 -0.59934,8.34076c0.20811,1.23958 1.36567,3.35238 2.80789,3.50263c0.84232,0.08776 1.3729,-0.88892 1.89259,-0.69184l0.97897,-0.32673v0c0.3929,-0.13113 0.81773,0.08108 0.94886,0.47398c0.05044,0.15112 0.05009,0.30696 0.00819,0.449c1.1227,0.3042 2.41199,0.73796 3.45684,0.72639c1.88128,-0.02084 3.46827,-1.14693 5.41646,-0.89347c0,0 0.7425,0.10579 0.63672,0.84829c-0.10579,0.7425 -0.84829,0.63672 -0.84829,0.63672c-1.80543,-0.28751 -3.39983,0.88855 -5.18828,0.90837c-1.41688,0.01569 -3.2287,-0.66748 -4.61827,-0.96448l-0.04539,-0.03273l-0.00587,0.01591l-0.89849,-0.33124c-2.66536,1.02671 -5.40632,-0.40972 -6.02125,-4.07244c-0.56981,-3.39392 1.31674,-7.19717 0.76888,-10.59833c-0.07315,-0.45413 -0.90806,-0.15071 -1.36543,-0.19978c-1.28214,-0.13757 -2.61984,-0.56161 -3.90587,-0.74472c-0.49738,-0.105 -1.00554,-0.16795 -1.49216,-0.31497c-0.60877,-0.18393 -1.5202,-0.09657 -1.78445,-0.67503c-0.66554,-1.45687 3.76421,-3.78044 2.77642,-4.85385c-0.57374,-0.62347 -1.78897,-0.89705 -3.11285,-1.03444c-0.67953,0.71266 -1.22786,1.34664 -2.05558,2.04548c-0.44144,0.37271 -1.6794,0.62089 -1.34559,1.09245c0.65564,0.9262 5.15727,3.07477 1.89066,4.91932c-1.54047,0.86985 -2.91278,-0.71983 -4.29696,-0.82672c-1.85948,-0.1436 -4.20313,-0.30321 -5.96075,0.31306c-2.35713,0.76412 -4.94093,0.22119 -7.37856,0.22574l-0.4079,-1.6123c0,0 0.33516,-0.67095 1.0061,-0.33579c0.25938,0.12957 0.3684,0.30932 0.40455,0.48109c1.96325,0.11333 4.08685,0.44614 5.90094,-0.18159c1.99953,-0.64079 4.53383,-0.57969 6.6354,-0.37686c1.04123,0.1005 2.26907,1.28613 3.34591,1.01505c0.38332,-0.0965 0.12597,-0.87273 -0.12345,-1.17937c-0.34546,-0.42471 -2.39058,-1.78525 -2.46887,-2.06882c-0.53394,-1.93389 2.42874,-2.67362 3.26432,-3.52095c0.03122,-0.03166 0.06124,-0.06432 0.09021,-0.09782c-1.10001,-0.05418 -2.13844,-0.0698 -2.81435,-0.16758l-1.26445,0.00237c0,0 -0.75,0.00028 -0.75028,-0.74971c-0.00028,-0.75 0.74971,-0.75028 0.74971,-0.75028l1.37078,0.00137c0.66491,0.09343 1.5359,0.13281 2.47554,0.19121c-0.46099,-1.26166 -0.75838,-1.81411 -0.03687,-2.81713c-1.28167,-1.12221 -2.56239,-4.62762 -3.10712,-5.41585c-1.00914,-1.46022 -2.00237,0.01632 -3.25241,-0.87761c-1.46315,-1.04633 0.16731,-2.42873 -1.16952,-1.47762l-0.79047,0.26382c0,0 -0.71142,0.23744 -0.94886,-0.47398z" fill="#70a9cc" stroke-width="0.5"/><path d="M396.20194,311.46515c0,-0.75 0.75,-0.75 0.75,-0.75h0.776c1.84745,0 2.51509,-0.24548 4.19711,-0.74878c0.48439,-0.14494 2.28881,-0.07658 2.71303,-0.51477c0.92376,-0.95418 -2.57031,-2.25922 -2.17771,-3.4302c0.29728,-0.88669 4.04579,-1.34542 5.09899,-1.48603c-0.59261,-1.90759 -1.48748,-4.17587 -0.09093,-5.27521c0.04356,-0.03429 0.08973,-0.06768 0.13828,-0.1002c-1.49777,-0.66477 -2.97302,-1.5068 -4.39736,-2.21288c-0.62078,-0.30773 -1.2666,-1.02599 -1.92017,-0.79595c-0.78464,0.27617 -1.3207,1.09852 -2.12609,1.30657c-1.04873,0.27091 -2.31087,0.12102 -3.4934,-0.05465c-0.23351,0.21383 -0.5234,0.40484 -0.8284,0.55333c-1.50952,0.73491 -3.15534,-0.37624 -4.71595,0.68221l0.33397,-0.10671c0,0 0,0.75 -0.75,0.75c-0.75,0 -0.75,-0.75 -0.75,-0.75l0.33397,-1.14137c1.07979,-0.70987 1.70313,-0.89682 3.00268,-0.90196c0.08588,-0.00034 0.17176,-0.0008 0.25765,-0.00128c-0.14275,-0.13654 -0.23165,-0.32891 -0.23165,-0.54205c0,-0.41421 0.33579,-0.75 0.75,-0.75h1.29333v0.00347c0.07904,0.00431 0.15809,0.01556 0.23717,0.03502c0.73681,0.18132 1.18109,0.42714 1.40935,0.70096c0.97746,0.14102 1.99977,0.25623 2.86762,0.05008c0.77353,-0.18374 1.23892,-1.09679 2.01255,-1.28009c2.44244,-0.57868 6.28142,2.76654 8.60285,3.59523c0.06385,0.01442 0.12245,0.03685 0.17403,0.06195c0.71908,-0.19316 1.43991,-0.35325 1.95482,-0.5251c0.50855,-0.16973 1.54187,0.19777 1.5726,-0.33748c0.16622,-2.89525 -1.27979,-5.56912 -0.59702,-8.65525c2.928,-1.20407 4.98423,-0.96673 8.06033,-0.52847l0.05201,-0.10083c0,0 0.71142,-0.23744 0.94886,0.47398l-0.00003,0.00001c0.23744,0.71142 -0.47398,0.94886 -0.47398,0.94886l-0.73846,0.16299c-2.48443,-0.35396 -4.27042,-0.46744 -6.69676,0.00415c0.16851,1.86033 0.13672,3.60669 0.43059,5.46333c0.10438,0.65943 0.44892,2.63948 0.29647,3.00993c-0.2282,0.55452 -2.06147,1.09749 -3.51128,1.47741c0.19226,0.19774 0.39434,0.32938 0.66531,0.44745c0.16904,-0.17959 0.39897,-0.23708 0.39897,-0.23708c2.23285,-0.53732 8.70025,-0.8197 10.41337,1.18676c0.89611,1.04956 0.73919,2.63083 1.77131,3.63871c1.35921,1.32728 3.87049,1.39916 4.99995,2.69974c1.70338,1.96145 -0.91084,3.89616 -1.81382,5.15987c-1.09461,1.97726 2.19866,0.56856 2.87444,2.21156c0.29383,0.71436 -0.16583,1.57676 -0.53685,2.25424c-0.28214,0.51518 -1.73078,0.67755 -1.3538,1.128c0.61853,0.73908 2.29088,0.01497 2.76165,0.85591c1.63539,2.9213 -0.53631,2.50358 -1.9934,2.67196l0.0463,0.26436c0,0 -0.53033,0.53033 -1.06066,0c-0.53033,-0.53033 0,-1.06066 0,-1.06066l1.01436,-0.7037c0.27115,0.06852 1.0332,-0.12629 0.79399,-0.27118c-0.87595,-0.53057 -2.35226,0.27666 -2.91052,-1.09933c-0.28955,-0.71368 0.1984,-1.56663 0.57696,-2.23736c0.28431,-0.50374 1.72274,-0.69605 1.32712,-1.11804c-0.60969,-0.65032 -2.99607,-0.14094 -3.37886,-1.53624c-0.18539,-0.67578 0.3354,-1.36077 0.50309,-2.04115c0.45976,-0.64057 3.02128,-2.57363 1.92938,-3.60643c-0.65335,-0.61798 -1.81049,-0.29172 -2.59886,-0.72441c-0.83081,-0.45598 -1.56096,-1.09387 -2.22471,-1.77033c-1.11984,-1.14128 -0.94907,-2.56551 -1.8289,-3.69772c-1.11375,-1.43322 -6.77586,-1.1877 -8.67824,-0.81023c-0.23862,0.70616 -0.94721,0.46997 -0.94721,0.46997c-1.10593,-0.37755 -1.67734,-0.76722 -2.32743,-1.6647c-0.02065,0.0061 -0.04001,0.01198 -0.05802,0.01762c-0.45471,0.14238 -1.33614,0.14533 -1.28827,0.6194c0.17923,1.77505 1.25504,3.44864 1.40586,5.33136c0,0 0.05781,0.74777 -0.68996,0.80558c-0.74777,0.05781 -0.80558,-0.68996 -0.80558,-0.68996c-0.00601,-0.08103 -0.01538,-0.16457 -0.02771,-0.25038c-0.00282,0.00047 -0.00429,0.00068 -0.00429,0.00068c-0.43081,0.06108 -1.97751,0.5817 -3.05064,0.70677c0.40733,0.30732 0.81708,0.65675 1.05083,1.10908c0.16916,0.32735 -0.02584,2.45779 -0.10176,2.55923c-0.65207,0.87129 -2.66668,0.78947 -3.49494,1.03722c-1.75321,0.52444 -2.69056,0.80321 -4.59751,0.80321h-0.776c0,0 -0.75,0 -0.75,-0.75z" fill="#70a9cc" stroke-width="0.5"/><path d="M486.99269,333.83553c0,0.75 -0.75,0.75 -0.75,0.75l-1.68269,-0.05709c-1.10599,-1.04611 -2.45027,-0.92711 -3.48918,-2.09351c-0.40716,0.0306 -2.14526,-0.14825 -2.25209,0.10445c-0.30156,0.71333 -0.15448,1.57721 -0.50496,2.26782c-0.67149,1.32313 -2.07108,2.25846 -2.80018,3.54462c-0.29812,0.52589 -0.20528,1.32125 -0.6956,1.67483c-1.59711,1.15172 -1.73514,-0.27872 -2.71816,-0.74549c-1.17715,-0.55895 -3.29221,-0.85754 -4.59441,-0.85754c-0.51995,0 -1.4987,-0.52313 -1.55985,-0.00678c-0.07434,0.62779 -0.00123,1.21067 0.15266,1.77812l0.43752,0.43752c0.13572,0.13572 0.21967,0.32322 0.21967,0.53033c0,0.41421 -0.33579,0.75 -0.75,0.75c-0.12597,0 -0.24468,-0.03106 -0.34891,-0.08593l-0.59344,-0.29672c-0.85634,-0.11221 -3.69856,-1.40499 -4.35128,-0.32197c-0.60232,0.99939 0.79076,4.02831 0.80985,5.1884c0,0 0,0.75 -0.75,0.75c-0.75,0 -0.75,-0.75 -0.75,-0.75c0.05597,-2.43953 -2.5455,-7.97846 2.62738,-7.01868c0.59968,0.11126 1.18034,0.31996 1.7682,0.48701c-0.2421,-1.02824 0.30666,-2.64561 1.41589,-2.92122c1.81223,-0.45029 3.564,0.28291 5.27946,0.63759c0.55452,0.11465 1.14523,0.1241 1.6603,0.35934c0.44146,0.20162 0.93456,1.29461 1.16807,0.86916c0.84752,-1.54415 2.21316,-3.08429 3.03696,-4.68481c0.39102,-0.7597 0.11682,-1.80582 0.63851,-2.48249c0.86716,-1.12476 2.86017,-0.64339 4.02844,-0.59338c1.1271,1.03813 2.48942,1.0251 3.48918,2.09351l1.10866,-0.05709c0,0 0.75,0 0.75,0.75z" fill="#70a9cc" stroke-width="0.5"/><path d="M363.52785,265.68673c0.45865,-0.59342 1.05206,-0.13477 1.05206,-0.13477l0.77161,0.59801c1.92266,1.18011 5.18493,4.7286 3.00214,7.26285c-0.28273,0.32825 -2.24233,-0.20818 -3.33284,-0.55501c2.00304,0.95889 3.81223,3.62216 6.09232,2.38647c0,0 0.267,-0.1335 0.54833,-0.06361c0.41369,-0.04865 0.84512,-0.01557 1.18276,-0.01557c0.52271,0 1.05909,-0.0993 1.56799,0.02006c0.14621,0.03429 0.16656,0.54057 0.21213,0.39747c0.21358,-0.67075 -0.08466,-1.40604 -0.08769,-2.10996v-1.04676c0,0 0,-0.75 0.75,-0.75c0.75,0 0.75,0.75 0.75,0.75v1.04676c-0.00402,1.06373 0.1695,2.65312 -0.78553,3.47273c-0.03056,0.02623 -3.46218,-0.64677 -3.51351,-0.28709c-0.35217,2.46777 1.13643,6.42533 0,8.72296c-0.86499,1.74885 -6.14331,-0.4009 -4.29468,1.16888c0,0 0.53033,0.53033 0,1.06066c-0.53033,0.53033 -1.06066,0 -1.06066,0c-0.28681,-0.31372 -0.75781,-0.52867 -0.86042,-0.94115c-0.70601,-2.8381 1.86257,-2.09699 3.58858,-2.08377c0.45039,0.00345 1.30311,0.45461 1.3512,0.00678c0.21151,-1.96978 -0.76145,-5.30804 -0.37762,-7.5741c-1.95515,0.0486 -3.45498,-1.50788 -5.29245,-2.5483c-0.31837,-0.18027 -3.04391,-1.13985 -2.0146,-2.42461c0.35813,-0.44702 2.99137,-0.37498 3.64645,-0.36974c0.41038,0.00328 1.33468,0.82309 1.14164,0.46093c-0.33228,-0.62339 -0.05316,-1.43773 -0.30727,-2.09686c-0.39115,-1.01461 -1.87232,-2.13738 -2.75225,-2.65133l-0.84293,-0.64985c0,0 -0.59342,-0.45865 -0.13477,-1.05206z" fill="#70a9cc" stroke-width="0.5"/></g></g></svg>