<svg version="1.1" xmlns="http://www.w3.org/2000/svg" xmlns:xlink="http://www.w3.org/1999/xlink" width="569.59503" height="434.21529" viewBox="0,0,569.59503,434.21529"><g transform="translate(56.78806,49.7669)"><g data-paper-data="{&quot;isPaintingLayer&quot;:true}" fill-rule="nonzero" stroke-linejoin="miter" stroke-miterlimit="10" stroke-dasharray="" stroke-dashoffset="0" style="mix-blend-mode: normal"><path d="M469.11134,318.42302c0.57903,-0.55036 1.15871,-0.50615 1.56903,-0.34943c1.00499,-0.45075 1.98172,-0.90649 2.83071,-1.41353c1.46421,-0.87447 7.98955,-3.33789 4.34134,-4.52948c-0.73166,-0.4709 -1.357,-1.14518 -2.19499,-1.41272c-0.838,-0.26754 -1.76646,-0.07977 -2.64881,-0.13371c-4.04489,-0.24726 -13.43103,-0.51539 -9.22427,-6.84633c0.25948,-0.39048 5.1478,-2.55628 5.81875,-2.93671c0.60411,-0.34254 4.62687,-3.14358 5.11297,-3.3599c1.72893,-0.76938 3.662,-1.1842 5.23049,-2.21761c0.84635,-0.55761 5.72806,-2.95205 5.4356,-4.33399c-0.12254,-0.579 -1.04252,-0.64961 -1.52527,-1.02253c-1.52456,-1.17768 -3.06606,-2.33608 -4.56901,-3.53852c-1.04011,-0.83214 -2.69866,-1.36117 -3.0074,-2.6182c-0.19704,-0.8023 2.43691,-4.26219 3.03633,-5.09584c-0.2181,-1.69476 -0.32768,-3.40119 -0.55385,-5.095c-0.08332,-0.62395 0.20849,-1.5357 -0.36263,-1.8552c-0.74157,-0.41486 -1.74098,0.42278 -2.57299,0.21294c-2.03207,-0.5125 -2.93628,-2.2655 -4.853,-2.93147c-1.07504,-0.37353 -2.52053,0.16564 -3.38627,-0.545c-6.86551,-5.63553 4.41421,-8.6901 5.65352,-12.5961c0.16077,-0.50669 0.60062,-1.29007 0.13552,-1.5822c-0.72207,-0.45351 -1.8139,0.38486 -2.59777,0.03568c-0.34454,-0.15348 -4.90135,-4.53326 -5.02445,-4.84996c-2.34841,-6.04195 6.03926,-9.01144 10.03377,-11.54545c3.51782,-2.21636 5.17899,-4.94369 7.80486,-7.97823c0.45517,-0.526 1.45139,-0.78912 1.49527,-1.46835c0.09542,-1.477 -2.49167,-1.78185 -3.7627,-2.63981c-0.75897,-0.51231 -1.3044,-1.31495 -2.14086,-1.70383c-2.23374,-1.03851 -5.67475,0.05945 -5.87558,-4.0534c-0.0629,-1.28834 1.65133,-2.05054 2.52598,-3.03798c1.23636,-1.39576 4.74367,-3.66477 4.65442,-5.80472c-0.09132,-2.19009 -2.25366,-1.10999 -3.44955,-1.30598c-3.06038,-0.50156 -6.18351,-1.70032 -9.25958,-2.71881l-2.12606,-0.00757c-0.83497,-0.00254 -1.51101,-0.64539 -1.51101,-1.43801c0,-0.52953 0.30174,-0.9922 0.75101,-1.24178l2.56658,-1.482c0.97455,-0.54634 1.84604,-1.31015 2.92369,-1.639c2.54133,-0.77552 5.63774,-0.44322 7.86592,-2.42663c2.92588,-2.60446 2.57379,-6.24334 2.5035,-9.63922c-0.00465,-0.22449 -0.10803,-5.05519 -0.20793,-5.42232c-0.2447,-0.89924 -0.96794,-1.63138 -1.25348,-2.51974c-0.24842,-0.77289 0.17345,-1.75141 -0.32907,-2.40384c-1.07825,-1.39992 -3.30008,-1.50187 -4.87186,-2.3867c-1.70528,-0.95999 -3.79444,-1.16937 -5.53137,-2.07685c-0.84453,-0.44125 -1.14445,-1.57133 -2.01119,-1.97197c-0.64707,-0.29912 -1.45114,0.16855 -2.15895,0.04432l-3.02553,-0.08068c-0.81999,-0.01881 -1.47862,-0.65523 -1.47862,-1.43757c0,-0.57405 0.35463,-1.06954 0.8674,-1.30012l2.51646,-1.19351c4.09645,-3.93778 11.10674,-8.62175 12.29078,-14.08436c0.20353,-0.93903 0.36495,-1.88864 0.63844,-2.81154c0.19184,-0.64738 1.06049,-1.28023 0.75373,-1.88649c-0.30676,-0.60626 -1.37065,-0.35926 -2.02313,-0.62224c-0.93016,-0.37489 -1.80826,-0.85682 -2.71187,-1.28619c-2.90621,-1.38093 -5.28275,-3.00609 -7.90267,-4.82836c-1.28237,-2.43026 -3.20215,-7.2923 -1.44535,-10.08133c0.53328,-0.84663 1.97925,-0.67386 2.83478,-1.23431c0.77936,-0.51055 1.26358,-1.34707 1.98846,-1.92534c4.49295,-3.58421 12.17851,-7.66735 13.0738,-13.91482c0.54374,-3.79433 -1.22851,-5.78283 -5.03886,-6.65468c-1.39669,-0.31958 -5.49403,0.46017 -6.54283,-0.46351c-1.23959,-1.09171 -2.26174,-2.95597 -1.80157,-4.49997c0.3017,-1.01235 2.49141,0.24656 3.28754,-0.48587c0.66665,-0.61331 0.07396,-1.76043 0.11093,-2.64065c1.1769,-0.61546 2.24746,-1.46768 3.5307,-1.84634c0.72971,-0.21533 1.70177,0.59361 2.28853,0.12918c0.44128,-0.34927 -0.24089,-1.0723 -0.46042,-1.57612c-0.39064,-0.89649 -1.13418,-1.66189 -1.3625,-2.60746c-0.25128,-1.04059 -0.11916,-2.13748 -0.04042,-3.2024c0.04713,-0.63739 0.94498,-1.4804 0.41587,-1.87582c-0.77916,-0.58228 -2.24877,0.60332 -2.9755,-0.03705c-0.7678,-0.67656 0.27775,-2.21413 -0.42047,-2.9554c-0.64045,-0.67992 -2.17272,0.16016 -2.83495,-0.50071c-4.22485,-4.21612 1.58727,-5.03154 -0.37989,-8.67365c-0.8933,-1.65389 -4.2772,-4.16199 -5.88303,-5.25296c-2.1776,-1.47943 -4.91307,-1.76424 -4.59622,-5.39818c0.09884,-1.13359 1.50665,-1.77134 2.30849,-2.61709c2.31358,-2.44025 3.89254,-2.65454 3.74318,-6.03933c0.00003,-5.12983 -1.51568,-13.42036 1.83052,-17.88614c0.39664,-0.52934 1.00827,-1.0468 1.71496,-1.51935c-0.03182,-0.03549 -0.0626,-0.07204 -0.09227,-0.10974c-0.19046,-0.24209 -0.40534,-0.80564 -0.61664,-1.48731c-0.60403,-1.00003 -1.18495,-1.95464 -1.73946,-2.94064l-0.24341,0.16528l-1.75459,-2.32509c-0.1845,-0.23821 -0.29349,-0.5323 -0.29349,-0.85054c0,-0.06339 0.00433,-0.12582 0.0127,-0.18704c-1.12019,-2.06013 -1.69695,-4.27518 -2.86253,-6.25251c-0.97066,-1.64668 -2.74718,-2.93073 -3.38279,-4.69108c-1.33593,3.21064 -2.87766,6.26787 -4.89216,9.25185c-0.68018,1.00752 -0.98602,2.44108 -2.11368,2.97698c-4.42581,2.10327 -8.16707,-3.28525 -11.19579,-5.36855c-4.08713,-2.81132 -7.39769,-6.45393 -11.62288,-9.07406c-1.46395,-0.90782 -2.72609,-2.21376 -4.38923,-2.72733c-1.87553,-0.57914 -3.96973,-0.07705 -5.89537,-0.48203c-1.6234,-0.34141 -3.20777,-0.92313 -4.86578,-1.04289c-1.74197,2.948 -4.01444,7.71838 -7.7409,8.76527c-1.29815,0.36469 -2.78965,0.4687 -4.06155,0.02859c-0.34669,-0.11995 -4.33735,-3.95086 -4.79497,-4.38494c-3.46928,-3.29083 -7.99399,-6.69324 -10.22498,-10.93587c-1.33583,-2.54032 -2.3081,-4.97568 -3.43628,-7.59075c-0.18945,-0.43912 -0.48,-1.27362 -0.94716,-1.10404c-0.62506,0.22691 -0.4613,1.20097 -0.81097,1.74229c-2.09633,3.24529 -3.50961,6.71102 -5.6285,9.97392c-2.64159,4.05292 -5.3846,8.05458 -7.78209,12.24245c-0.40178,0.70181 -3.01654,5.39034 -3.48768,5.62387c-3.3277,1.64949 -7.40242,-1.56915 -9.82918,-3.17017c-2.48351,-1.63848 -5.25023,-3.16918 -7.57056,-5.00807c-2.60102,-2.06135 -6.03907,-5.11293 -9.4454,-5.9977c-3.25729,-0.84606 -6.93477,2.95892 -9.74943,3.9862c-1.97137,1.23219 -4.16458,3.0481 -5.144,5.19633c-0.81747,1.79299 -0.20654,4.02768 -1.16937,5.75451c-0.18673,0.3349 -4.16199,4.00565 -4.60094,4.40532c-1.56953,1.42905 -3.45259,3.50128 -5.87811,3.67043c-2.4357,0.16986 -4.46884,-1.90009 -5.81136,-3.40735c-2.42909,-2.72713 -4.65517,-6.34849 -6.53262,-9.4417c-0.51889,-0.85487 -0.97308,-1.74515 -1.39971,-2.64474c-0.30726,-0.6479 -0.16194,-1.61868 -0.7992,-1.99194c-0.63726,-0.37326 -1.48749,0.25055 -2.23548,0.21446c-0.49554,-0.02391 -1.0622,-0.47605 -1.5236,-0.53584l-0.01466,1.72375c-0.00573,0.78952 -0.68225,1.42787 -1.51594,1.42787c-0.80115,0 -1.45716,-0.58949 -1.51224,-1.33615l-0.20755,-2.45457c-1.0159,-0.89203 -3.29485,-2.86495 -3.99457,-3.68348c-1.10007,-1.28687 -1.30935,-3.25336 -2.69416,-4.26299c-0.51198,-0.37327 -1.28928,-0.39262 -1.91848,-0.25487c-1.77145,0.38785 -3.18773,1.65913 -4.78528,2.4823c-3.90174,2.66085 -10.38394,6.81556 -15.32333,4.42938c-0.85332,-0.41223 -1.10708,-1.61713 -1.99252,-1.96307c-0.93442,-0.36508 -2.09298,0.35497 -3.03175,0.00008c-2.50469,-0.94686 -3.71142,-4.83645 -6.08467,-5.75511c-0.75687,-0.29297 -1.63163,0.14612 -2.44881,0.12574c-0.72882,-0.01817 -1.57519,-0.63764 -2.1724,-0.24096c-0.59721,0.39669 -0.28486,1.3593 -0.50418,2.01884c-0.3134,0.94246 -0.66869,1.87482 -1.091,2.77823c-1.55289,3.32192 -3.82326,7.72055 -6.79786,10.11764c-1.09041,0.8787 -2.24248,2.23227 -3.66787,2.11483c-0.73103,-0.06024 -4.36624,-4.19876 -5.01029,-4.90525c-2.45129,-3.50177 -5.76241,-7.33544 -10.08345,-8.35995c-1.45321,-0.34454 -3.28084,-0.54867 -4.48263,0.29947c-2.17904,1.53782 -4.35714,5.30544 -6.9706,6.13026c-2.0769,0.65548 -9.01943,-0.54819 -10.50924,-2.11738c-1.08347,-1.14118 0.70859,-3.73608 -2.07762,-3.38445c-1.6237,0.20491 -2.5555,1.87839 -3.40115,2.89163c-2.7233,3.26299 -5.45992,5.90984 -8.78919,8.61985c-1.18288,0.36679 -2.30534,1.04856 -3.54861,1.10037c-4.74403,0.19767 -4.84282,-3.00404 -8.07539,-4.93146c-2.63299,-1.56993 -8.10656,-0.74289 -11.05132,-0.57329c-3.62799,0.20897 -2.72728,2.50261 -4.59841,5.0771c-0.08695,0.11965 -3.96332,4.06582 -4.13721,4.24271c-0.90799,0.9236 -1.41166,2.57107 -2.72666,2.76846c-1.39652,0.20962 -2.63779,-1.02422 -3.79943,-1.78881c-4.43648,-2.92005 -6.94384,-10.20673 -9.75981,-14.51953c-0.76603,-0.45173 -1.56562,-0.85587 -2.29807,-1.35521c-0.5826,-0.39717 -0.92097,-1.38298 -1.63596,-1.32673c-0.74481,0.0586 -0.92837,1.12627 -1.50775,1.57409c-0.84163,0.65052 -1.76727,1.20636 -2.72256,1.69566c-3.43417,1.75901 -7.24285,2.94756 -10.73405,4.62692c-1.1237,0.54053 -2.14769,1.59116 -3.40697,1.55269c-3.12151,-0.09534 -3.6614,-2.37531 -5.53657,-3.89005c-0.86649,-0.69996 -2.4921,-1.68351 -3.57257,-0.4116c-0.54773,0.64479 -0.38735,1.63593 -0.80096,2.36515c-1.8531,3.2671 -5.08409,6.4763 -7.65492,9.26082c-0.83844,0.90814 -1.38789,2.25804 -2.58648,2.6638c-0.69365,0.23481 -6.44486,-1.07302 -7.20866,-1.23481c-3.56853,-3.676 -5.33427,-8.44877 -8.34117,-12.60867c-1.07803,-1.49141 -2.10859,-3.01365 -3.20124,-4.49547c-0.29879,-0.40519 -0.67066,-1.59758 -0.9487,-1.17931c-0.42329,0.63677 0.59434,1.57385 0.23898,2.24694c-0.787,1.49068 -7.10228,6.38566 -8.89134,6.04747c-1.84147,-0.3481 -1.49432,-3.75229 -3.26034,-4.35735c-1.85978,-0.63717 -4.04774,0.55001 -5.93209,-0.01853c-3.52858,-1.06463 -4.93022,-6.84817 -8.93309,-6.22227c-0.87675,0.13709 -1.61033,0.71306 -2.4155,1.0696c-0.99613,0.31777 -4.40233,1.32468 -5.37887,1.93014c-3.01101,1.86682 -5.14842,4.62071 -9.37389,3.03833c-4.0921,-1.53244 -3.72204,-2.6081 -3.13583,-6.13719c0.13552,-0.81587 0.88292,-1.54027 0.79067,-2.36157c-0.10014,-0.89144 -1.14488,-1.49824 -1.32314,-2.37863c-0.14731,-0.72755 0.89957,-1.62229 0.39806,-2.19023c-0.43032,-0.48732 -1.29354,0.36399 -1.96108,0.42016c-1.00671,0.08471 -2.02186,0.03137 -3.03197,0c-0.77654,-0.0241 -1.62272,-0.48308 -2.32425,-0.16632c-0.60402,0.27273 -0.62137,1.12582 -0.98302,1.65966c-1.58025,2.33259 -2.1818,4.61416 -2.78301,7.37913c-0.26156,1.20291 0.5099,2.81634 -0.42902,3.6621c-1.25281,1.1285 -2.42491,1.09508 -3.50391,0.68612c0.30059,0.8661 0.60117,1.73218 0.90175,2.59828c0.04491,7.74519 0.06903,15.49458 -0.00634,23.2396c-0.02052,2.10875 -0.12883,8.11149 -2.07954,9.57844c-1.01684,0.76466 -2.58266,0.33526 -3.87981,0.3021c-0.56375,-0.01441 -1.3942,-0.93047 -1.62613,-0.44288c-0.24105,0.50677 0.91649,0.7015 1.30518,1.11762c0.66467,0.71159 1.36417,1.41828 1.84341,2.25327c2.90943,5.06917 4.52858,11.85948 4.09814,17.54735c-0.3812,1.23419 -0.13251,2.84573 -1.14359,3.70254c-0.95417,0.8086 -2.54065,0.29521 -3.80358,0.48983c-1.60644,0.24755 -3.03183,1.25453 -4.25245,2.27567c-0.49456,0.41374 -1.53151,0.45433 -1.62227,1.07387c-0.09869,0.67359 0.86168,1.09132 1.21863,1.68109c0.50322,0.83142 0.90395,1.71501 1.35587,2.57253c1.69856,3.22311 4.66746,7.1098 5.53511,10.6071c1.0824,4.36288 0.04031,10.21411 0.04031,14.70952c0,1.73942 -0.77431,3.59644 -0.10874,5.21725c0.28516,0.69446 1.26578,0.92609 1.70434,1.54446l2.0916,2.07872c0.26085,0.25829 0.42112,0.60871 0.42112,0.99463c0,0.79419 -0.67872,1.43802 -1.51598,1.43802c-0.27824,0 -0.53898,-0.0711 -0.76312,-0.19521l-2.4321,-1.28851c-0.88661,-0.09847 -1.78984,-0.11033 -2.65704,-0.30989c-0.6347,-0.14607 -1.31342,-1.13369 -1.80416,-0.72489c-0.49004,0.40821 0.45604,1.17193 0.52962,1.78661c0.22146,1.85029 0.04486,3.72414 0.08358,5.58596c1.06585,4.42204 1.18245,7.25292 0.1369,11.70805c-0.26815,1.14261 -0.12485,2.48141 -0.87227,3.41286c-0.51363,0.6401 -2.02961,-0.0017 -2.43282,0.70599c-0.28371,0.49795 1.19721,0.42405 1.51656,0.90218c0.59153,0.88567 0.7198,1.98265 1.07364,2.97593c1.08269,3.03925 2.19554,5.51873 1.99386,8.78939c-0.08035,1.30307 0.52268,2.97021 -0.45116,3.89242c-0.43567,0.41258 -6.08124,0.49888 -7.07745,0.41914c-0.61458,-0.0492 -1.4717,-0.87329 -1.80603,-0.38165c-0.35214,0.51782 0.75153,1.02139 0.9783,1.59883c1.15631,2.94417 1.35834,4.62101 3.42026,7.17274c0.48929,0.60552 0.67888,1.53028 1.40318,1.86202c0.81762,0.37449 1.81579,0.01879 2.72368,0.02819c1.23097,0.68372 3.02257,0.85675 3.69289,2.05115c0.89185,1.5891 -1.20022,5.08186 -1.86435,6.40589c-1.70133,3.39178 -2.5399,6.65958 -2.43577,10.4147c0.10729,3.86887 2.39917,5.27294 -0.30774,8.96713c-1.13987,1.55559 -3.57226,1.94619 -4.72752,3.49153c-1.42217,1.90236 -0.71998,5.18274 -0.18592,7.11587c0.18403,0.66613 -0.19769,1.61911 0.38181,2.03388c0.59289,0.42437 1.4785,-0.19183 2.22091,-0.17099c2.11651,0.05941 4.09597,0.34377 6.06215,0.77167l0.01595,-0.13744l2.99569,0.31298c0.76783,0.07053 1.36806,0.6844 1.36806,1.43125c0,0.39175 -0.16514,0.74693 -0.43301,1.00627l-2.07474,2.01239c-2.40252,2.91981 -5.32592,5.74685 -7.52044,8.77501c-0.533,0.73546 -0.70314,1.67356 -1.24626,2.40232c-0.36272,0.48671 -1.751,0.66881 -1.42034,1.17565c0.33067,0.50683 1.12151,-0.59261 1.74288,-0.68127c2.04325,-0.29154 4.13248,0.00197 6.19872,0.00569c1.22149,0.2059 6.36033,0.94358 6.77535,1.74637c0.63079,1.22019 -0.86087,2.59679 -1.41967,3.84815c-2.1336,4.7779 -7.42323,8.96593 -11.20393,12.87643c1.38185,0.40367 3.38795,0.40289 3.75345,1.66826c0.38768,1.34215 -1.59436,2.34191 -2.50827,3.43051c-3.05702,3.64132 -4.5448,7.87635 -6.45917,12.23332c-0.40972,0.92668 -0.67473,1.92378 -1.22916,2.78006c-0.37946,0.58606 -1.34457,0.80582 -1.52408,1.47218c-0.09041,0.33565 0.67388,0.3018 1.03751,0.33402c0.85699,0.07593 1.72157,-0.02878 2.58213,-0.01334c3.00728,0.05394 6.31417,-0.04605 9.24398,0.69502c1.4253,0.36052 3.57639,0.09976 4.18072,1.37617c0.53869,1.13778 -1.56236,2.04837 -2.00296,3.22351c-0.68189,1.81872 0.36367,4.01257 -0.46919,5.77381c-0.48414,1.0238 -1.58869,1.66314 -2.40135,2.4785c-0.64051,0.64263 -1.2773,1.29029 -1.95764,1.89498c-0.40447,0.3595 -1.7389,0.68237 -1.29182,0.99316c0.50699,0.35244 1.12326,-0.58994 1.74489,-0.6782c1.99915,-0.28383 4.04284,-0.0004 6.06426,0.00001c5.36195,0.00108 8.45825,0.45736 13.33171,2.78141c-4.25548,5.68521 -9.20657,11.16121 -14.59354,15.91231c-2.17636,1.91944 -4.3866,3.81027 -6.53898,5.7537c-0.45521,0.41103 -1.23758,0.67392 -1.33505,1.26285c-0.05984,0.36152 0.6699,0.39724 1.04942,0.46296c1.00472,0.174 2.15836,-0.22014 3.05286,0.24745c1.28076,0.6695 2.76898,1.60551 3.08343,2.9602c0.31764,1.36846 -0.56058,2.86407 -1.4763,3.96358c-0.73896,0.88725 -2.09613,1.07769 -3.15494,1.59715c-1.56826,0.76939 -4.32072,2.53543 -6.55146,3.40008c1.27164,0.94424 2.55307,1.87669 3.84185,2.79972c-0.01694,1.38704 0.51662,2.88269 -0.05082,4.16115c-0.71807,1.61785 -4.10335,2.99603 -5.59964,3.77714c-0.65576,0.34233 -1.60194,0.43525 -1.94342,1.06707c-0.35567,0.65808 0.15033,1.47336 0.17081,2.21262c0.06924,2.50007 0.40973,6.73844 -0.47346,9.09243c-0.0634,0.16898 -3.58428,4.85328 -3.81919,5.11371c-0.59413,0.65867 -1.35511,1.1674 -1.96946,1.80917c-0.33767,0.35276 -1.27887,0.87879 -0.87584,1.16318c0.45638,0.32202 1.01677,-0.48615 1.54207,-0.69307c0.86805,-0.34192 1.75575,-0.63711 2.63498,-0.95223c3.80455,-1.36355 7.59576,-2.91002 11.54487,-3.8585c1.23609,-0.29689 2.50505,-1.13051 3.73138,-0.79917c2.48109,0.67035 2.91364,2.67604 3.60244,4.47313c2.54187,-2.95585 7.50284,-6.19632 11.4353,-2.83901c0.96551,0.82431 1.28047,2.17043 1.63293,3.35641c0.32546,1.09509 -0.42568,6.3161 1.82303,6.6432c0.75173,0.10933 1.40351,-0.55977 2.12507,-0.78767c1.81779,-0.57411 3.84076,-0.63148 5.52837,-1.49184c1.68761,-0.86035 2.89712,-2.37906 4.36201,-3.55037c2.63647,-2.10808 5.33212,-2.44243 8.0741,-4.14589c2.46994,-1.53447 4.0984,-4.32374 6.56147,-5.92945c0.13206,-0.08609 5.23135,-2.49413 5.52808,-2.63457c0.38752,-0.23967 5.08148,-3.15644 5.2626,-3.20645c1.36447,-0.37672 2.98689,-0.85439 4.25534,-0.24661c1.16674,0.55905 1.34423,2.1282 1.95718,3.22334c2.54346,4.5443 1.23161,11.85623 5.87897,15.26747c1.33889,0.98276 3.26171,0.38205 4.60674,0.02795c4.99764,-1.31569 7.3295,-6.577 11.94453,-8.23623c1.34847,-0.4848 2.98346,-1.02393 4.29862,-0.4628c3.7042,1.58041 0.43645,5.41586 4.57961,4.97122c4.09722,-3.79171 10.62308,-9.64044 17.06985,-6.17396c1.80962,0.97304 1.1863,3.28322 3.78978,2.91214c0.8278,-0.11799 1.45067,-0.79581 2.205,-1.14005c2.49526,-1.13876 7.67098,-2.44957 10.32512,-0.71877c1.04052,0.67854 1.23629,2.08937 1.81535,3.15374c1.2294,2.25977 2.10652,5.52081 3.75817,7.51231c1.1818,1.42498 2.99243,2.25694 4.46403,3.41394c2.84539,2.23712 3.16138,3.23154 5.16411,-0.1494c2.14822,-0.15223 4.36346,0.19278 6.45505,-0.29629c2.73077,-0.63855 7.35835,-3.51495 9.25246,-5.43911c2.01573,-2.04772 3.15473,-4.92963 5.06346,-7.07583c1.92474,-2.16419 4.51046,-4.26117 6.83875,-6.02805c1.00451,-0.7623 1.7993,-2.08506 3.07932,-2.20663c3.75361,-0.35652 4.04995,2.16689 5.78414,4.07876c3.76356,4.14915 9.12377,6.90924 13.95849,9.72997c3.31744,2.0316 6.99133,1.28191 10.88899,1.29466c1.27124,0.00416 5.93619,-0.10098 6.90614,0.56832c2.98195,2.05766 2.00683,6.63855 2.00563,9.50822c-0.00039,0.93185 0.09791,1.86857 -0.00237,2.79555c-0.05756,0.53214 -0.99996,1.3679 -0.4669,1.54249c0.58221,0.19068 0.76994,-0.9277 1.25879,-1.28312c0.72128,-0.52443 1.55808,-0.8878 2.33727,-1.33146c1.62809,-0.92702 3.54883,-1.48539 4.90795,-2.7433c1.87387,-1.73433 2.48702,-6.2816 4.88062,-7.43173c1.27688,-0.61354 2.905,-0.43389 4.29277,-0.10134c0.72864,0.1746 0.84543,1.45349 1.59442,1.51206c0.66405,0.05194 0.98863,-0.8476 1.48295,-1.27139c1.69493,-1.61737 4.30283,-5.12772 6.46446,-5.97477c2.11701,-0.82956 7.33552,-0.21442 9.67465,-0.10891c0.73712,0.03325 1.59108,0.63164 2.19984,0.236c0.65404,-0.42507 0.29958,-1.51803 0.73744,-2.14498c1.06743,-1.52845 5.36385,-5.93383 7.10883,-6.61854c1.11295,-0.43671 2.407,-0.11352 3.61141,-0.10918c1.22567,0.00442 2.56145,-0.35189 3.67425,0.13544c3.33585,1.4609 2.79428,5.54734 3.9291,8.17527c0.70235,1.62643 2.69249,5.77909 4.08372,6.91129c1.09673,0.89253 3.74628,0.53012 4.86723,0.49086c1.27685,-0.10499 4.07874,-0.18499 5.31141,-0.84027c0.87526,-0.46528 1.37056,-1.43603 2.24627,-1.90057c2.57863,-1.36789 5.56925,-1.96464 8.15562,-3.5368c3.25895,-1.98099 4.61705,-4.4432 9.00968,-3.64745c3.35852,0.60841 5.51489,3.36777 7.7312,5.55586c0.56702,0.5598 0.89835,1.42391 1.65461,1.72064c2.36906,0.92953 6.39245,-0.71977 8.94744,-0.04984c0.97737,0.25627 3.93403,2.57872 4.91399,2.98356c2.30667,0.95295 4.95451,1.34911 7.35851,0.85327c3.77149,-1.80554 7.17395,-3.3176 11.20263,-4.40648c0.77819,-0.21033 5.40979,-2.08225 5.98032,-2.10598c1.28458,-0.05343 2.60187,0.292 3.75783,0.82614c1.7588,0.8127 1.58523,2.91627 3.92226,1.67166c1.66845,-0.88853 2.48474,-2.79762 4.0019,-3.90357c1.66981,-1.21723 6.51167,-4.29677 8.54266,-4.54431c1.19535,-0.14569 2.36178,0.4694 3.51707,0.79492c1.25597,0.35389 2.88397,0.27328 3.70667,1.24055c0.50531,0.59411 0.50993,5.44779 0.64519,6.4674c0.35478,2.67459 0.83366,4.91681 2.41077,7.13443c0.57597,0.8336 1.25578,1.6104 1.72791,2.5008c0.34606,0.65264 0.06182,1.68508 0.70484,2.08715c0.58488,0.36572 1.37796,-0.24047 2.06836,-0.35305c1.7537,-0.28595 3.4739,-0.90034 5.00576,-1.75919c2.56341,-1.43717 5.74729,-2.06943 8.19011,-3.55883c3.25599,-1.98519 5.61004,-7.4127 10.12573,-7.34683c3.92009,0.05718 7.77886,5.53267 10.01467,8.05604c0.49829,0.56238 0.69313,1.48295 1.4156,1.74759c0.46081,0.1688 4.35009,-1.17173 4.51071,-1.27114c1.62378,-1.00491 2.71755,-2.62383 4.08935,-3.92346c2.88938,-2.17428 9.97755,-5.21603 12.92914,-1.1218c0.72151,1.00083 0.32295,2.42212 0.22577,3.63106c-0.04818,0.59933 -0.82605,1.11482 -0.65376,1.69325c0.12038,0.40413 0.55623,-0.65654 0.87606,-0.94689c0.79605,-0.72267 1.42963,-1.73392 2.4665,-2.08758c1.18412,-0.40388 2.52331,-0.16587 3.77477,-0.0412c4.9357,0.49164 9.37615,2.09062 14.51579,1.4035c1.57828,-0.211 2.63352,-1.70557 3.9086,-2.61275c1.75249,-1.24684 4.28136,-2.76638 6.71941,-3.6184c-1.90012,-0.37034 -3.75653,-0.98522 -5.53126,-1.71956c-0.30645,-4.11787 -0.2663,-8.19983 -0.27629,-12.32572c-0.00221,-0.91189 0.00694,-1.82396 -0.01287,-2.73566c-0.01371,-0.6308 0.44176,-1.50897 -0.08764,-1.89093c-0.63755,-0.45998 -1.62017,0.26529 -2.40091,0.09547c-0.99819,-0.21712 -1.80737,-0.94445 -2.78808,-1.22417c-1.09729,-0.31297 -2.42819,0.05219 -3.39033,-0.53805c-1.02678,-0.62988 -1.47709,-1.85332 -2.11803,-2.84112c-0.69878,-1.07694 -2.0177,-2.08246 -1.89365,-3.34156c0.12097,-1.22777 1.68852,-1.87587 2.50242,-2.83739c0.34119,-0.40308 3.60484,-4.54606 3.84959,-4.73853c0.94046,-0.73959 2.12569,-1.35265 3.366,-1.9275c0.07336,-0.17232 0.19503,-0.35013 0.38217,-0.528zM509.87225,328.14165c0.39248,0.18825 0.7503,0.42708 1.05696,0.74143c2.34059,2.39922 2.27178,5.89744 1.0016,8.72141c0.47363,3.52998 0.73941,7.14556 0.74214,10.6236c0,0 0,1.43802 -1.51598,1.43802c-1.51598,0 -1.51598,-1.43802 -1.51598,-1.43802c0.00117,-1.41132 -0.04414,-2.84703 -0.13121,-4.29054c-0.25319,1.6799 -1.03841,3.28643 -1.42733,4.953c-0.45306,1.9414 0.39957,4.09671 -0.34246,5.95636c-0.39092,0.97967 -1.39917,1.62841 -1.98162,2.51835c-1.28175,1.95844 -3.17499,5.12678 -3.77086,7.36026c-0.51707,1.93812 -0.22755,3.99304 -0.39604,5.98585c-5.02376,4.8972 -11.07059,9.8197 -17.78994,12.55674c-4.63417,1.88766 -10.69243,0.94481 -15.63855,0.94481c-9.09591,0 -18.19182,0 -27.28773,0c-21.22379,0 -42.44758,0 -63.67137,0c-21.22379,0 -42.44758,0 -63.67137,0c-21.22379,0 -42.44758,0 -63.67137,0c-21.22379,0 -42.44758,0 -63.67137,0c-21.22379,0 -42.44758,0 -63.67137,0c-21.22379,0 -42.44758,-0.00001 -63.67137,-0.00001c-21.22379,0 -42.44758,-0.00001 -63.67137,-0.00001c-8.08593,0 -16.17186,0.00256 -24.25778,-0.00769c-1.08166,-0.00138 -6.55968,0.10032 -7.13806,-0.4521c-0.96848,-0.92502 -0.35516,-2.58756 -0.43974,-3.88878c-0.12441,-1.91371 0,-3.83469 0,-5.75204c0,-7.66939 0,-15.3388 0,-23.00819c0.03745,-9.25408 -5.01738,-18.26492 -6.0615,-27.47235c-0.42888,-3.78211 -0.00952,-7.85115 -0.00994,-11.65774c-0.00072,-6.7103 -0.01116,-13.4206 -0.01808,-20.1309c-0.01186,-11.50882 -2.41171,-22.82628 -3.01361,-34.30018c-0.45133,-8.60354 -0.00091,-17.33975 -0.00286,-25.95538c-0.00128,-5.64641 0.48758,-11.51436 0.00118,-17.13888c-0.4047,-4.67974 -1.64612,-9.43664 -2.45217,-14.07191c-1.64676,-9.46976 -3.39128,-18.92739 -4.7938,-28.43265c-1.11637,-7.56594 -2.81375,-15.26671 -3.3731,-22.8855c-0.90744,-12.35993 -0.00366,-25.09427 -0.00366,-37.48821c0,-20.1344 -0.01942,-40.26891 0.0162,-60.40329c0.02368,-2.87771 -0.1753,-5.87339 0.07623,-8.74025c0.2508,-2.85837 1.18308,-5.66263 1.43351,-8.52011c0.51243,-5.84682 -0.19506,-11.70543 1.70373,-17.43829c0.89421,-2.69985 2.64802,-5.42955 3.90778,-7.99869c0.83113,-1.69499 1.8522,-3.31652 2.50028,-5.08191c0.33326,-0.90785 1.17895,-5.42808 1.64057,-5.99771c0.33624,-0.41492 5.5793,-2.96236 6.14785,-3.24495c3.12894,-0.11362 6.19345,-0.4267 9.31116,-0.6708c0.84749,-0.06636 1.77428,0.18097 2.5456,-0.15862c0.93581,-0.41201 1.3277,-1.62681 2.29318,-1.97176c0.81795,-0.29226 5.3126,-0.00351 6.40524,-0.15197c3.87996,-0.52716 7.7365,-2.17782 11.55531,-3.03728c9.83566,-2.21361 19.90963,-3.69829 29.84586,-5.44937c4.93912,-0.87017 9.96621,-2.46292 14.95232,-2.96724c4.97699,-0.5034 10.31192,-0.0081 15.32059,-0.0081c11.11723,0 22.23445,0 33.35168,0c21.22379,0 42.44758,0 63.67137,0c21.22378,0 42.44755,0.00001 63.67133,-0.00001c15.90869,-0.00079 32.33958,0.42526 47.99334,-2.84422c4.77508,-0.99733 9.54398,-2.96656 14.19727,-4.40175c11.89756,-1.89671 24.10743,-4.7627 36.1259,-5.70421c8.99846,-0.70492 18.37937,-0.00488 27.4125,-0.00488c8.97029,0 18.00511,-0.25647 26.9689,0.07948c12.05429,0.45178 24.16534,2.78632 36.19014,2.81053c7.96588,0.0222 16.5811,-0.52147 24.46911,0.6296c2.96131,0.43214 5.78391,1.87669 8.74912,2.25073c2.82377,0.3562 6.04499,-0.01255 8.89608,-0.01255c7.07459,0 14.14919,0 21.22379,0c11.11859,0.00001 22.27788,-0.25737 33.39237,0.02601c3.13593,0.07996 7.93482,-0.53219 9.87706,2.64374c0.22853,0.3737 0.18005,5.71356 0.18005,6.43178c-0.00001,4.7946 0.00093,9.58917 -0.00214,14.38377c-0.01289,2.7268 0.54184,6.46143 -0.37352,9.07821c-0.33326,0.95272 -1.26,1.63075 -1.69747,2.54476c-1.77649,3.71154 -3.41992,9.40246 -4.0113,13.4413c-0.52651,3.59586 0.01443,7.67024 0.01445,11.30626c0.00004,7.66937 -0.00001,15.33875 0.00041,23.00812c0.00107,20.09298 -0.50822,40.26623 0.16976,60.34905c0.67889,20.1445 1.35691,40.26027 1.44881,60.41547c0.03475,7.62173 -0.2894,15.33236 0.1031,22.94393c0.6448,12.5039 2.83036,24.78626 2.83049,37.33311c0.00023,20.12248 -0.19705,40.25606 0.08711,60.37672c0.11868,8.40385 -0.71853,17.39216 0.35449,25.72683c0.24247,1.8835 0.76473,3.74307 1.31009,5.59978zM-6.53929,248.67518c-0.12881,-0.03916 -0.26043,-0.06658 -0.3966,-0.07542c-0.18127,-0.01178 -0.2746,0.60928 -0.13285,0.50145c0.17844,-0.13575 0.35488,-0.27803 0.52945,-0.42604z" data-paper-data="{&quot;index&quot;:null}" fill="#faeda4" stroke="none" stroke-width="0.5" stroke-linecap="butt"/><path d="M30.12408,36.38024l-52.11461,-83.10811" fill="none" stroke="#faeda4" stroke-width="3" stroke-linecap="round"/><path d="M60.77974,25.60698l-27.59009,-46.17118" fill="none" stroke="#faeda4" stroke-width="3" stroke-linecap="round"/><path d="M100.63209,27.14601l-22.99174,-75.41291" fill="none" stroke="#faeda4" stroke-width="3" stroke-linecap="round"/><path d="M135.88609,30.22409l-13.79504,-70.7958" fill="none" stroke="#faeda4" stroke-width="3" stroke-linecap="round"/><path d="M184.93514,-31.33747l1.53278,73.87387" fill="none" stroke="#faeda4" stroke-width="3" stroke-linecap="round"/><path d="M215.5908,20.98986l9.1967,-61.56156" fill="none" stroke="#faeda4" stroke-width="3" stroke-linecap="round"/><path d="M255.44315,25.60697v-50.78829" fill="none" stroke="#faeda4" stroke-width="3" stroke-linecap="round"/><path d="M299.89386,-25.18132l3.06556,41.55405" fill="none" stroke="#faeda4" stroke-width="3" stroke-linecap="round"/><path d="M356.60682,24.06793l7.66392,-47.71021" fill="none" stroke="#faeda4" stroke-width="3" stroke-linecap="round"/><path d="M319.82003,24.06793l-1.53278,-32.31982" fill="none" stroke="#faeda4" stroke-width="3" stroke-linecap="round"/><path d="M404.12309,-17.48612v44.63213" fill="none" stroke="#faeda4" stroke-width="3" stroke-linecap="round"/><path d="M443.97544,0.98235l-10.72948,30.78078" fill="none" stroke="#faeda4" stroke-width="3" stroke-linecap="round"/><path d="M479.22944,-15.94708l-27.59009,38.47598" fill="none" stroke="#faeda4" stroke-width="3" stroke-linecap="round"/><path d="M485.36057,37.91928l-39.85235,18.46847" fill="none" stroke="#faeda4" stroke-width="3" stroke-linecap="round"/><path d="M489.95892,70.2391l-41.38513,18.46847" fill="none" stroke="#faeda4" stroke-width="3" stroke-linecap="round"/><path d="M480.76222,117.94931l-26.05731,3.07808" fill="none" stroke="#faeda4" stroke-width="3" stroke-linecap="round"/><path d="M485.36057,156.42529l-16.86061,10.77327" fill="none" stroke="#faeda4" stroke-width="3" stroke-linecap="round"/><path d="M488.42614,197.97935l-38.31957,-10.77327" fill="none" stroke="#faeda4" stroke-width="3" stroke-linecap="round"/><path d="M486.89335,248.76763l-39.85235,-12.31231" fill="none" stroke="#faeda4" stroke-width="3" stroke-linecap="round"/><path d="M482.295,270.31418l-21.45896,-9.23424" fill="none" stroke="#faeda4" stroke-width="3" stroke-linecap="round"/><path d="M488.42614,291.86073l-42.91792,-12.31231" fill="none" stroke="#faeda4" stroke-width="3" stroke-linecap="round"/><path d="M493.02449,336.49285l-49.04905,-15.3904" fill="none" stroke="#faeda4" stroke-width="3" stroke-linecap="round"/><path d="M486.89335,374.96883l-30.65566,-27.70271" fill="none" stroke="#faeda4" stroke-width="3" stroke-linecap="round"/><path d="M442.44266,371.89076l-16.86061,-27.70271" fill="none" stroke="#faeda4" stroke-width="3" stroke-linecap="round"/><path d="M384.19691,341.10998l3.06556,38.47598" fill="none" stroke="#faeda4" stroke-width="3" stroke-linecap="round"/><path d="M361.20517,376.50787l-9.1967,-30.78078" fill="none" stroke="#faeda4" stroke-width="3" stroke-linecap="round"/><path d="M335.14786,365.7346l-4.59834,-33.85886" fill="none" stroke="#faeda4" stroke-width="3" stroke-linecap="round"/><path d="M299.89386,374.96883l1.53278,-18.46847" fill="none" stroke="#faeda4" stroke-width="3" stroke-linecap="round"/><path d="M243.18089,376.50787l1.53278,-27.70271" fill="none" stroke="#faeda4" stroke-width="3" stroke-linecap="round"/><path d="M209.45967,373.4298l-9.1967,-30.78078" fill="none" stroke="#faeda4" stroke-width="3" stroke-linecap="round"/><path d="M174.20566,378.04691v-26.16367" fill="none" stroke="#faeda4" stroke-width="3" stroke-linecap="round"/><path d="M129.75497,370.35172l-7.66392,-21.54655" fill="none" stroke="#faeda4" stroke-width="3" stroke-linecap="round"/><path d="M99.09931,382.66403l-12.26226,-30.78078" fill="none" stroke="#faeda4" stroke-width="3" stroke-linecap="round"/><path d="M69.97644,359.57844l9.1967,15.3904" fill="none" stroke="#faeda4" stroke-width="3" stroke-linecap="round"/><path d="M50.05026,350.3442l-21.45896,26.16367" fill="none" stroke="#faeda4" stroke-width="3" stroke-linecap="round"/><path d="M1.00121,370.35172l33.72122,-20.00751" fill="none" stroke="#faeda4" stroke-width="3" stroke-linecap="round"/><path d="M-3.59714,336.49285l32.18844,-12.31231" fill="none" stroke="#faeda4" stroke-width="3" stroke-linecap="round"/><path d="M-9.72827,307.25112l18.3934,-3.07808" fill="none" stroke="#faeda4" stroke-width="3" stroke-linecap="round"/><path d="M-8.19549,285.70457l18.3934,-6.15616" fill="none" stroke="#faeda4" stroke-width="3" stroke-linecap="round"/><path d="M11.73069,245.68956h-30.65566" fill="none" stroke="#faeda4" stroke-width="3" stroke-linecap="round"/><path d="M-20.45775,225.68205l32.18844,-1.53904" fill="none" stroke="#faeda4" stroke-width="3" stroke-linecap="round"/><path d="M-14.32661,185.66704l36.78679,10.77327" fill="none" stroke="#faeda4" stroke-width="3" stroke-linecap="round"/><path d="M14.79626,159.50337l-26.05731,6.15616" fill="none" stroke="#faeda4" stroke-width="3" stroke-linecap="round"/><path d="M-12.79383,136.41778h22.99174" fill="none" stroke="#faeda4" stroke-width="3" stroke-linecap="round"/><path d="M-12.79383,105.637l32.18844,7.6952" fill="none" stroke="#faeda4" stroke-width="3" stroke-linecap="round"/><path d="M-17.39218,71.77815l36.78679,10.77327" fill="none" stroke="#faeda4" stroke-width="3" stroke-linecap="round"/><path d="M19.3946,51.77063l-16.86061,-13.85135" fill="none" stroke="#faeda4" stroke-width="3" stroke-linecap="round"/></g></g></svg>