<svg version="1.1" xmlns="http://www.w3.org/2000/svg" xmlns:xlink="http://www.w3.org/1999/xlink" width="143.44796" height="221.68191" viewBox="0,0,143.44796,221.68191"><g transform="translate(-168.88615,-69.76917)"><g data-paper-data="{&quot;isPaintingLayer&quot;:true}" fill-rule="nonzero" stroke="none" stroke-width="0.5" stroke-linecap="butt" stroke-linejoin="miter" stroke-miterlimit="10" stroke-dasharray="" stroke-dashoffset="0" style="mix-blend-mode: normal"><path d="" fill="#909090"/><g><path d="M263.64248,243.77094c-2.66755,0 -6.83561,0 -9.50316,0c-3.47524,-0.02949 -6.09791,-1.41621 -9.40346,-2.03295c-2.61631,-0.48814 -5.89468,0.83916 -8.42973,-0.10865c-2.69627,-1.00809 -5.12309,-3.7787 -7.48915,-5.23411c-4.02025,-2.47296 -9.29266,-2.08534 -13.17955,-5.12049c-6.12074,-4.77949 -7.83019,-12.36483 -12.22875,-18.35337c-1.5026,-4.41833 -5.01782,-8.13161 -6.22067,-12.58989c-1.09184,-4.04683 -0.06687,-9.8737 -0.06687,-14.07888c0,-5.33511 0,-10.67022 0,-16.00534c0,-2.665 -0.42984,-5.7842 0.03228,-8.40312c0.17316,-0.98138 0.89865,-1.8317 0.97816,-2.82506c0.18076,-2.25844 -0.50639,-4.51215 -0.51027,-6.77782c0,-13.50448 -0.01343,-27.00904 0,-40.51351c0.00682,-6.85956 -0.94507,-13.48568 0.02513,-20.36022c0,0 0.35355,-2.47487 2.82843,-2.12132c2.47487,0.35356 2.12132,2.82843 2.12132,2.82843c-0.95873,6.62248 0.01889,13.03745 0.02513,19.65311c0.01272,13.50447 0,27.00903 0,40.51351c-0.00457,2.41448 0.66901,4.81901 0.49007,7.22684c-0.08245,1.10942 -0.81735,2.08355 -1.02251,3.17695c-0.4379,2.3337 0.03229,5.21817 0.03229,7.60221c0,5.33511 0,10.67022 0,16.00534c0,2.66755 0,5.33512 0,8.00267c0,1.64264 -0.50581,3.34454 -0.06688,4.92745c1.11316,4.01446 4.46004,7.35799 5.78333,11.41812c4.04074,5.25324 5.32889,12.44179 10.77893,16.6583c3.67867,2.84607 8.84848,2.54204 12.82912,4.88284c2.15564,1.26761 4.17831,3.73225 6.51553,4.76923c1.80082,0.79899 5.5383,-0.47167 7.5756,-0.10865c3.08823,0.55029 5.39714,2.00435 8.60255,1.96839c2.66755,0 5.33511,0 8.00266,0h1.5005c0,0 1.49967,0 2.17599,1.16152c-0.48328,0.62137 -0.88252,1.24913 -1.08301,1.90312c-0.19069,0.62203 -0.38522,1.2468 -0.58201,1.87393c-0.29971,0.06142 -0.51099,0.06142 -0.51099,0.06142z" fill="#acacac"/><path d="M263.25607,243.35107c-2.08013,-1.38675 -0.69337,-3.46688 -0.69337,-3.46688l0.61447,-0.52474c1.55523,-8.32317 9.03519,-13.73258 13.2788,-20.79869c1.2523,-2.50461 3.2475,-4.86298 4.41075,-7.3199c0.81462,-1.72056 0.28243,-4.67074 0.28243,-6.48208c0,-4.56481 -0.30258,-9.4283 0.53245,-13.90495c0.69631,-3.73296 2.74109,-7.51666 4.14786,-11.03152c2.35012,-5.87186 4.18769,-11.36536 8.16385,-16.33556c0.54897,-1.41657 1.49183,-3.67771 1.68484,-5.09005c0.31599,-2.31224 0.20362,-4.81818 1.29676,-6.88006c0.3048,-0.57493 2.10249,-2.07133 1.75124,-3.1846c-0.18593,-0.58933 -0.94322,-0.83229 -1.25108,-1.36811c-0.88814,-1.54578 -1.0552,-3.44441 -1.98127,-4.96777c-1.54114,-2.53513 -3.81839,-5.04095 -5.1077,-7.70526c-0.15341,-0.31703 -1.06263,-4.94442 -1.18574,-5.56733c-1.18853,-6.01377 -1.12098,-13.52976 0.16919,-19.51671c1.08758,-1.48323 2.6655,-2.55313 3.79914,-4.00146c0.54742,-0.69938 0.65873,-1.63481 0.83134,-2.53793c-0.68757,0.24933 -1.42392,0.42943 -1.94776,0.52436c-0.23955,0.04341 -5.72177,0.03228 -5.90229,0.03228c-11.50383,0 -23.00767,0 -34.5115,0c-10.68191,0 -21.90473,0.92059 -32.41113,-1.03262c-7.37998,-1.37198 -13.55181,-5.02263 -19.89212,-8.82682c0,0 -2.14374,-1.28624 -0.8575,-3.42997c1.28624,-2.14373 3.42997,-0.8575 3.42997,-0.8575c5.78355,3.47013 11.36066,6.98486 18.12056,8.17885c10.27643,1.8151 21.16783,0.96805 31.61021,0.96805c11.50383,0 23.00767,0 34.51151,0c3.08841,0 4.71413,-0.20495 7.64294,-0.8478c1.56829,-0.34422 3.46479,-1.66881 4.7623,-0.72304c0.52105,0.37981 0.80154,0.94487 0.94849,1.59258c-5.37137,5.38844 -9.83014,19.76973 -6.82634,26.41465c0.14891,0.82906 0.4,1.62264 0.73977,2.36726c0.07911,0.52235 0.17974,1.03212 0.30357,1.52745c1.54527,6.18107 3.9834,10.65235 7.70352,15.07744c0.12165,0.301 0.2557,0.59609 0.40967,0.88165c0.2851,0.52874 0.76119,0.97189 1.14787,1.44808c0.0285,0.12366 0.05055,0.24997 0.0669,0.37856c-0.14115,0.11838 -0.28329,0.23895 -0.42645,0.36165l-0.0219,0.39426c-0.74079,0.42331 -1.32069,3.68492 -1.43035,4.15115c-0.52385,2.22706 -2.20577,5.30485 -3.6664,7.12961c-9.70902,12.12948 -14.37263,34.19482 -12.86245,50.5617c-0.55158,0.79193 -0.99153,1.66742 -1.29706,2.60367c-1.95461,1.34193 -2.64082,4.39834 -4.11663,6.17576c-0.72897,0.87795 -1.89611,1.27928 -2.76252,2.02192c-1.52336,1.30573 -1.93219,4.71864 -2.70371,6.676c-0.4576,1.16092 -2.64727,2.33322 -3.29739,3.41674c-1.00231,1.67051 -0.74824,3.4608 -1.25,5.29396c-0.67746,2.47506 -3.78081,4.43295 -4.47831,6.70823c-0.19566,0.63825 -0.39536,1.27938 -0.59741,1.92298c-0.27705,-0.071 -0.57181,-0.2007 -0.882,-0.40749z" fill="#acacac"/><path d="M201.09477,288.12648c-0.47737,-0.80521 -1.34535,-1.36447 -1.71281,-2.2254c-2.84578,-6.66743 -0.52488,-14.46736 -2.06893,-21.41557c-0.07106,-9.19613 -0.89411,-18.45167 -0.41705,-27.67126c0.40354,-7.79872 0.38718,-15.58714 0.38718,-23.41394c0,-3.98272 0.23953,-7.98442 -0.34458,-11.9278c0,0 -0.2804,-1.96279 0.74795,-3.59294c-0.04318,-1.72191 0.04639,-3.44836 0.04639,-5.01484c0,-7.5025 0,-15.00501 0,-22.50751c0,-15.17173 0,-30.34345 0,-45.51517c0,-5.45362 -1.10687,-13.59537 2.61783,-18.15171c-0.39029,-0.43771 -0.76341,-0.8898 -1.11783,-1.35629c0,0 -4.5,-6 1.5,-10.5c6,-4.5 10.5,1.5 10.5,1.5c0.47764,0.64974 0.5464,1.76272 1.30462,2.0373c2.40418,0.87064 4.89162,1.52154 7.33664,2.27596c7.23696,2.23298 15.71224,-0.3349 23.28921,0.82474c0.8875,0.13583 1.61903,0.83146 2.50083,1.00033c3.46049,0.66273 7.52136,0.36484 11.08586,0.36484c4.44315,0.02121 8.11263,-1.41462 12.50417,-1.5005c5.38839,-0.10537 11.33466,0.70364 16.79136,0.09334c1.04066,-0.65946 2.41104,-1.09367 4.21564,-1.09367c3.53308,0 5.4018,1.66435 6.39022,3.42498c-1.6287,3.04623 -2.95683,6.73708 -3.69591,10.3357l-0.97084,1.26476c0.22311,0.15888 0.44127,0.33437 0.65101,0.52819c-0.54332,3.6082 -0.42728,6.99357 0.65176,9.38061c0.03878,0.2159 0.08449,0.4294 0.13689,0.64025c-0.77556,1.05396 -1.79077,1.72879 -2.77285,2.16089c0.01811,0.10602 0.03399,0.21279 0.0476,0.32029l0.10014,0.70092c2.08763,0.89935 4.24762,6.56806 5.2994,8.24397c0.69343,1.10492 1.46334,2.17832 1.97677,3.37752c0.2085,0.487 -0.18149,1.1667 0.14679,1.58248c1.09581,1.3879 3.3248,1.90741 3.92262,3.57165c0.30038,0.83622 0.50238,1.64811 0.61846,2.43792c-0.51871,1.08274 -0.89684,3.18436 -0.98322,3.55161c-0.52385,2.22706 -2.20577,5.30485 -3.6664,7.12961c-5.62858,7.03179 -9.56149,17.40286 -11.57886,28.06706c-0.55498,2.39054 -1.04792,4.81769 -1.84864,7.17957c-0.5378,1.08499 -1.29879,2.40983 -1.93482,3.75744c0.22965,4.65094 1.40224,9.73284 0.12018,14.25031c-0.38241,1.34748 -2.10784,2.15478 -2.25128,3.5481c-0.05376,0.52213 -0.08458,1.0461 -0.10909,1.57057c-0.20927,0.34843 -0.43076,0.67558 -0.67362,0.96808c-0.72897,0.87795 -1.89611,1.27928 -2.76252,2.02192c-1.52336,1.30573 -1.93219,4.71864 -2.70371,6.676c-0.4576,1.16092 -2.64727,2.33322 -3.29739,3.41674c-1.00231,1.67051 -0.74824,3.4608 -1.25,5.29396c-0.28799,1.05215 -1.01436,2.01084 -1.80794,2.94019c-0.22302,0.13215 -0.45041,0.25834 -0.6819,0.37878c0.05708,0.06763 0.11374,0.13789 0.16995,0.21088c-0.91787,1.04823 -1.8205,2.07606 -2.15843,3.17838c-1.78053,5.80817 -3.89553,11.85457 -5.07313,17.83997c-0.34491,1.00284 -0.53483,2.07777 -0.54115,3.19619c-0.72104,1.03446 -1.38961,2.0643 -1.86652,3.03569c-0.52412,0.13831 -1.07093,0.24666 -1.62145,0.32927c-0.44052,1.76081 -0.84157,3.53501 -1.34345,5.26083c-2.82756,4.25567 -7.19549,9.41953 -9.94576,10.6133c-2.26396,0.98269 -5.3491,0.8442 -7.48975,2.03098c-1.80619,1.00136 -2.79515,3.28107 -4.25514,4.13252c-4.34738,2.53534 -11.53302,2.67113 -16.11311,2.52801c-4.93295,-0.15416 -10.44761,-2.04362 -15.86487,-3.03799c-0.04323,-0.08443 -0.08862,-0.1672 -0.13653,-0.24802zM223.99943,280.24916c-0.04176,0.01015 -0.08373,0.01977 -0.12589,0.02886c0.19041,0.48192 0.38294,0.96295 0.58586,1.4395c0.01608,0.03776 0.03672,0.07533 0.06046,0.11276c0.02684,-0.01995 0.05359,-0.0394 0.07997,-0.05831c-0.02051,-0.11917 -0.03679,-0.23979 -0.0487,-0.36169l-0.11958,-1.0762c-0.14621,-0.02206 -0.29034,-0.05047 -0.43211,-0.08491zM285.70799,170.2114c0.13288,0.02677 0.26918,0.05172 0.40933,0.07486c0.13742,0.02269 -0.16081,-0.21035 -0.36016,-0.26406c-0.01631,0.06308 -0.03269,0.12614 -0.04917,0.1892z" fill="#acacac"/><path d="M198.83471,287.93523c-2.23607,-4.47213 2.23607,-6.70821 2.23607,-6.70821c4.57128,-2.26137 8.66949,-5.33598 12.993,-7.92793c0.81081,-0.48608 1.86399,-0.48425 2.65068,-1.00847c0.81101,-0.54043 1.23356,-1.54068 2.02606,-2.10791c2.52513,-1.80732 5.69437,-2.53605 8.31186,-4.20682c0.83823,-0.53505 1.26944,-1.56115 2.07676,-2.14178c2.56835,-1.84718 6.28599,-2.77883 8.76859,-4.69984c2.8999,-2.2439 5.83505,-5.1992 8.31912,-7.8047c1.06935,-1.12162 1.1372,-2.88329 1.72223,-4.31831c4.80352,-7.29575 9.26385,-14.0567 12.5029,-22.09433c0.74836,-1.85702 2.15786,-3.43098 2.73255,-5.34887c2.52088,-8.41278 1.32725,-16.41253 2.10548,-24.97338c0.1923,-2.11541 0.97517,-4.15114 1.147,-6.26831c0.12883,-1.58738 -0.19169,-3.21393 0.11671,-4.77638c0.42802,-2.16838 1.79277,-4.04168 2.61363,-6.09382c1.30885,-2.62788 3.7314,-6.09097 4.31212,-8.91195c0.44205,-2.14737 0.065,-4.42833 0.62833,-6.54711c0.89177,-3.35407 3.65415,-6.6379 3.87941,-10.11116c0.45891,-7.07572 -0.02433,-14.34938 -0.02433,-21.43883c0,-3.48273 -0.54579,-8.13503 0.13376,-11.53737c0.41481,-2.07683 1.67457,-3.8962 2.34233,-5.90603c0.82085,-3.89148 2.68433,-5.83362 4.25311,-9.28725c1.15848,-2.55036 1.33218,-6.07322 3.72218,-7.53414c2.26266,-1.38308 9.56551,-0.89841 11.59759,0.98643c0.32382,0.30036 0.61335,0.63286 0.87333,0.98993c-5.69792,4.7193 -10.7324,20.15527 -7.58768,27.11194c0.14891,0.82906 0.4,1.62263 0.73977,2.36725c0.07911,0.52235 0.17974,1.03213 0.30357,1.52746c1.30878,5.23513 3.25805,9.24373 6.08422,13.03658c0.11719,0.30193 0.32622,0.5423 0.57631,0.75511c0.61622,0.78882 1.27155,1.57114 1.96816,2.35622c0.41584,0.46866 0.62164,1.02749 0.69925,1.63783c-0.14115,0.11838 -0.28329,0.23894 -0.42644,0.36165l-0.0219,0.39426c-0.74079,0.42331 -1.32069,3.68492 -1.43035,4.15115c-0.52385,2.22706 -2.20577,5.30485 -3.6664,7.12961c-9.70902,12.12948 -14.37263,34.19482 -12.86245,50.5617c-0.55158,0.79193 -0.99153,1.66742 -1.29706,2.60367c-1.95461,1.34193 -2.64082,4.39834 -4.11663,6.17576c-0.72897,0.87795 -1.89611,1.27928 -2.76252,2.02192c-1.52336,1.30573 -1.93219,4.71864 -2.70371,6.676c-0.4576,1.16092 -2.64727,2.33322 -3.29739,3.41674c-1.00231,1.67051 -0.74824,3.4608 -1.25,5.29396c-0.67746,2.47506 -3.78081,4.43295 -4.47831,6.70823c-1.78053,5.80817 -3.89553,11.85457 -5.07313,17.83997c-0.34491,1.00284 -0.53483,2.07777 -0.54115,3.19619c-0.96934,1.3907 -1.84387,2.77303 -2.28534,4.01625c-1.30319,3.66994 -8.55491,13.51398 -12.49184,15.22284c-2.26396,0.98269 -5.3491,0.8442 -7.48975,2.03098c-1.80619,1.00136 -2.79515,3.28107 -4.25514,4.13252c-4.34738,2.53534 -11.53302,2.67113 -16.11311,2.52801c-5.65224,-0.17663 -12.06817,-2.63153 -18.22623,-3.40771c-0.0118,-0.023 -0.02355,-0.04618 -0.03523,-0.06954z" fill="#a1a1a1"/><path d="M285.49914,113.762c0.66409,-1.16045 1.90841,-2.24762 4.23991,-2.24762c1.65831,0 2.76663,0.55 3.50735,1.28517c-1.14281,4.70849 -1.34245,9.41043 0.04109,12.47108c0.14891,0.82905 0.39999,1.62263 0.73976,2.36725c0.07911,0.52235 0.17975,1.03213 0.30358,1.52746c0.33305,1.3322 0.70758,2.58498 1.12748,3.77499c-0.62661,2.96866 -2.89297,4.63873 -9.15023,2.62878c-4.49758,-1.4447 -5.00348,-10.95303 -4.42685,-14.76799c0.30943,-2.04716 0.00046,-4.57212 1.46447,-6.03613c0.5799,-0.5799 1.33178,-0.85358 2.15345,-1.00298z" fill="#828282"/><path d="M286.89475,166.52555c0.96974,-1.16045 2.78676,-2.24762 6.19132,-2.24762c0.50322,0 0.97175,0.02375 1.40799,0.06798c-3.82393,6.65084 -6.55556,14.95108 -8.08612,23.3939c-5.02208,-2.55333 -5.56079,-10.7112 -4.79624,-14.17515c0.45184,-2.04716 0.00068,-4.57213 2.13849,-6.03613c0.8468,-0.5799 1.94473,-0.85358 3.14457,-1.00298z" fill="#828282"/><path d="M194.4887,286.46338l0.0971,-1.55773c1.4319,-6.80726 0.48005,-14.57995 0.48005,-21.52807c0,-12.31243 0,-24.62486 0,-36.93729c0,-22.61639 -0.44219,-45.28458 0.09022,-67.89436c0.72653,-1.94046 1.9673,-3.72773 2.30858,-5.77145c1.10512,-6.61787 -0.13521,-13.21924 -0.09022,-19.83169c0.01645,-2.4175 0.75288,-4.77729 1.21885,-7.14951c0.55742,-2.83776 -0.06456,-6.71739 -0.06456,-9.5877c0,-6.73336 0,-13.46671 0,-20.20007c0,0 0,-5 5,-5c5,0 5,5 5,5c0,6.73336 0,13.46671 0,20.20007c0,3.50605 0.52645,7.7228 -0.06456,11.18953c-0.20448,1.19942 -0.91977,2.26896 -1.15429,3.46287c-0.50142,2.55265 0.43785,5.53222 0.62467,8.02101c0.54087,7.20513 -0.0107,14.99501 -2.95891,21.55802c1.01868,21.90727 0.09022,44.0703 0.09022,66.00329c0,12.31243 0,24.62485 0,36.93729c0,7.70345 0.78427,15.91827 -0.67424,23.48924l0.09709,-0.40344c0,0 0,1.22165 -0.60386,2.45723c-3.10633,-0.69566 -6.217,-1.23874 -9.20494,-1.13706c-0.19121,-0.75265 -0.1912,-1.32019 -0.1912,-1.32019z" fill="#bababa"/><path d="M198.50437,87.62152c-0.65127,-2.84203 1.79279,-5.70755 3.66634,-7.94163c0.89979,-1.07294 2.68586,-0.79424 4.01902,-1.22262c3.17226,-1.01931 6.23119,-2.15338 9.42533,-3.12413c12.83391,-3.90044 26.46925,-4.22002 39.85803,-4.93557c5.23882,-0.27998 10.71541,-1.05463 15.94668,-0.32166c8.14699,1.14148 16.42339,3.31728 24.6325,3.93565c5.71447,0.43046 11.1266,0.71121 16.28184,3.60997c-1.66758,3.40327 -2.42701,7.29586 -4.29936,10.98044c-1.18687,2.33562 -2.66114,4.57585 -3.96677,6.99266c-0.80645,0.54512 -1.55856,1.20913 -2.38953,1.90508c-0.17827,0.05541 -0.35483,0.11284 -0.52946,0.17261c-1.78346,0.61046 -3.39452,1.71764 -5.22771,2.15674c-1.71195,0.41006 -3.51267,0.23835 -5.269,0.35753c-9.84179,0.52599 -19.68359,1.05196 -29.52539,1.57794c-6.08035,0.32496 -12.47355,1.22293 -18.56106,0.96761c-6.43219,-0.26978 -12.53156,-2.89483 -18.86273,-3.42441c-2.83049,-0.23677 -5.64648,0.03255 -8.50419,-0.52179c-4.58776,-0.88993 -8.9168,-2.39046 -13.51426,-3.27475c0,0 -4.90852,-0.95208 -3.95644,-5.8606c0.16084,-0.82923 0.4346,-1.49122 0.77853,-2.01878c-0.0008,-0.00342 -0.00158,-0.00686 -0.00237,-0.01031z" fill="#c4c4c4"/><path d="M244.21805,94.89342c-0.36854,0.32651 -0.87932,0.32651 -0.87932,0.32651c-8.19396,0 -16.29967,-0.99641 -24.09671,-2.96885c-2.39601,-0.60613 -5.37399,-3.90376 -4.12924,-6.58729c0.41881,-0.9029 1.36984,-1.44432 2.05476,-2.16649c4.50038,-2.29218 10.53769,-4.94482 15.56077,-5.76855c8.31392,-1.36339 16.79431,1.70153 25.11416,-0.65232c1.20646,0.00306 2.37277,-0.43859 3.56088,-0.64826c4.41154,-0.7785 9.70002,0.02363 13.85989,0.99577c3.68106,0.86025 7.97251,-0.80938 11.69088,-0.01088c2.01619,0.43296 4.4767,1.22109 6.30815,2.13147c3.36,2.68961 6.82983,8.9679 3.14561,13.02617c-0.75144,0.82774 -2.11926,0.72246 -3.20595,0.985c-1.49898,0.36214 -2.73739,1.49545 -4.37451,1.65486c-4.20468,0.40941 -11.36121,0.93494 -15.11702,-1.00255c-9.86392,0.32418 -19.59487,0.67276 -29.49233,0.6854z" fill="#b2b2b2"/><path d="M299.28837,99.22884c-4.10414,1.62493 -8.60684,2.61442 -12.88154,3.31872c-2.30253,0.37937 -4.05244,1.38919 -6.4301,1.42891c-4.3449,1.2627 -8.44169,1.05742 -12.94588,1.05742c-4.28674,0 -8.57347,0 -12.86021,0c-1.87399,0 -4.26711,0.43219 -6.07788,-0.05363c-2.37369,-0.63685 -4.47836,-0.66082 -7.13956,-0.66082c-3.87846,0 -9.08567,0.84791 -12.86521,-0.05363c-3.42496,-0.81696 -7.15062,-1.70459 -10.6418,-2.4804c-1.90649,-0.42366 -3.72324,-0.36324 -5.66484,-0.70358c-2.10015,-0.36813 -4.35311,-1.94009 -6.24216,-2.90292c-1.77666,-0.36772 -2.9457,-0.98252 -4.50848,-1.88734c-9.97182,-5.77348 0.58431,-15.93828 6.77162,-19.65717c0,0 1.07186,-0.64312 1.71498,0.42875c0.64312,1.07187 -0.42874,1.71498 -0.42874,1.71498c-2.02562,1.21311 -4.65405,2.67164 -6.05917,4.66021c-0.69301,0.98077 -1.10018,2.17775 -1.94117,3.035c-1.17226,1.19491 -2.73281,3.32357 -1.55741,5.26339c0.89945,1.4844 2.76635,2.29024 4.18362,3.10702c0.81127,0.46754 1.7166,0.79353 2.63608,0.97048c10.74183,5.28696 22.65695,6.00522 34.60267,6.00522c2.85338,0 5.26975,-0.03361 7.86401,0.76809c1.46439,0.45254 3.77744,-0.05363 5.35342,-0.05363c3.81043,0 7.62086,0 11.43129,0c4.83983,0 9.33994,0.28326 14.00987,-1.03065c2.39649,-0.03021 4.08171,-1.03318 6.43011,-1.42891c4.05568,-0.68342 8.41587,-1.5875 12.31798,-3.16669l1.53593,-0.0894c0,0 1.16509,0 1.24562,1.12483c-0.04899,0.03973 -0.09831,0.07949 -0.148,0.11928c-0.43546,0.34874 -0.86737,0.76065 -1.29237,1.2272z" fill="#515151"/><path d="M207.29039,93.81837c0.1819,0.7276 -0.5457,0.90951 -0.5457,0.90951l-0.17183,-0.10595c-1.07761,1.29136 -2.60711,2.51357 -3.11968,4.14424c0,0 -0.23718,0.71152 -0.94869,0.47434c-0.71151,-0.23717 -0.47434,-0.94868 -0.47434,-0.94868c0.6433,-1.85196 2.15701,-3.14799 3.39037,-4.63018l0.96035,-0.38899c0,0 0.72761,-0.1819 0.90951,0.5457z" fill="#515151"/><path d="M216.92971,98.14019c0.53033,-0.53033 1.06066,0 1.06066,0l0.07971,0.0862c1.66265,1.40666 1.95191,3.24197 1.22438,5.2362c0,0 -0.26334,0.70225 -0.96558,0.43891c-0.70225,-0.26335 -0.43891,-0.96559 -0.43891,-0.96559c0.50394,-1.2994 0.44898,-2.65802 -0.75693,-3.53821l-0.20333,-0.19684c0,0 -0.53033,-0.53033 0,-1.06066z" fill="#515151"/><path d="M240.77553,100.54608c0.53033,0.53033 0,1.06066 0,1.06066l0.03966,-0.15163c-0.52295,1.5546 -0.38608,3.08778 -0.38608,4.71612c0,0 0,0.75 -0.75,0.75c-0.75,0 -0.75,-0.75 -0.75,-0.75c0,-1.80354 -0.10836,-3.46237 0.46305,-5.19047l0.3227,-0.43468c0,0 0.53033,-0.53033 1.06066,0z" fill="#515151"/><path d="M198.08167,83.88402c0.05322,0.19399 0.11782,0.66747 -0.42243,0.89901c-0.68936,0.29544 -0.9848,-0.39392 -0.9848,-0.39392l-0.33448,-1.73708c1.3625,-0.11084 3.17517,-0.23558 4.56221,-0.00245c1.19485,0.20083 2.02416,1.0073 3.25472,0.97713c0,0 0.75,0 0.75,0.75c0,0.75 -0.75,0.75 -0.75,0.75c-1.00445,-0.01733 -4.59208,-0.58915 -6.07522,-1.24269z" fill="#515151"/><path d="M203.30386,76.21427c0.23717,-0.71151 0.94868,-0.47434 0.94868,-0.47434l0.71773,0.32271c1.31045,1.31634 2.93428,2.33047 4.52579,3.28376c0,0 0.64312,0.38587 0.25725,1.02899c-0.38587,0.64312 -1.02899,0.25725 -1.02899,0.25725c-1.69983,-1.02151 -3.40806,-2.10837 -4.81471,-3.50934l-0.13141,0.03966c0,0 -0.71151,-0.23717 -0.47434,-0.94868z" fill="#515151"/><path d="M254.09318,101.39224c-0.20592,-0.03144 -0.64609,-0.16583 -0.64609,-0.7404c0,-0.75 0.75,-0.75 0.75,-0.75l0.55755,0.12596c2.29823,1.60188 2.40963,4.78168 1.24545,7.18645c0,0 -0.33541,0.67082 -1.00623,0.33541c-0.67082,-0.33541 -0.33541,-1.00623 -0.33541,-1.00623c0.80595,-1.54424 0.92425,-4.04257 -0.56527,-5.15119z" fill="#515151"/><path d="M273.71869,100.0278c0.62404,0.41603 0.20801,1.04006 0.20801,1.04006l-0.15708,0.00854c-0.02454,1.93457 -0.56609,3.6298 -0.56609,5.66091c0,0 0,0.75 -0.75,0.75c-0.75,0 -0.75,-0.75 -0.75,-0.75c0,-1.97715 0.59702,-3.81233 0.56609,-5.66091l0.40901,-0.84059c0,0 0.41603,-0.62404 1.04006,-0.20801z" fill="#515151"/><path d="M284.79855,98.19359c0.33541,-0.67082 1.00623,-0.33541 1.00623,-0.33541l0.61846,0.47693c0.95056,1.90679 1.34934,3.61549 2.02201,5.61763c0,0 0.23717,0.71151 -0.47434,0.94868c-0.71151,0.23717 -0.94868,-0.47434 -0.94868,-0.47434c-0.65192,-1.96986 -1.00771,-3.56045 -1.94063,-5.42115l0.05236,0.19389c0,0 -0.67082,-0.33541 -0.33541,-1.00623z" fill="#515151"/><path d="M298.39033,95.27397c0,0.3428 -0.15668,0.52891 -0.32681,0.62996c-0.62632,1.68034 -1.32385,3.78147 -0.45998,5.40315c0,0 0.33541,0.67082 -0.33541,1.00623c-0.67082,0.33541 -1.00623,-0.33541 -1.00623,-0.33541c-1.07181,-2.24304 -0.29926,-4.73689 0.53466,-6.96728l0.84377,-0.48666c0,0 0.75,0 0.75,0.75z" fill="#515151"/><path d="M269.62649,130.94452c2.23607,1.11803 1.11803,3.3541 1.11803,3.3541l-0.42125,0.75234c-7.60742,9.90971 -20.04778,8.95682 -30.67577,5.71104c-2.89618,-0.88449 -5.84378,0.1399 -8.59572,-1.58552c-1.47311,-0.92362 -3.334,-4.10947 -4.2759,-5.56992c0,0 -1.35189,-2.10295 0.75105,-3.45484c2.10295,-1.35189 3.45484,0.75105 3.45484,0.75105c0.88275,1.37808 1.40027,3.15066 2.76114,4.05971c1.6267,1.08663 5.43518,0.45936 7.3302,1.00707c8.38152,2.42245 19.20419,4.40387 25.25016,-3.91859l-0.05088,0.0116c0,0 1.11803,-2.23607 3.3541,-1.11803z" fill="#a1a1a1"/><path d="M229.20388,119.4275c0.02833,-0.07782 0.05522,-0.15648 0.08091,-0.23583c0.03674,-0.3625 0.07514,-0.72457 0.11451,-1.0861c0,0 0.29009,-2.61084 2.34216,-3.83741c3.23694,-2.8777 7.14195,-2.52024 11.22573,-2.41685c1.14644,-0.91662 2.80933,-0.39577 4.38371,-0.1185c6.50387,-0.28406 13.93566,-0.49437 17.84843,5.04868c0.89882,1.27331 1.04399,2.93716 1.56599,4.40574c0.45333,3.18005 1.43286,9.699 -0.00488,12.45148c-1.02092,1.9545 -3.00376,3.367 -4.96918,4.36672c-0.70327,0.35772 -5.36866,0.29864 -6.70332,0.29864c-5.46046,0 -10.70913,0.02684 -16.0543,-0.76279c-1.23699,-0.18274 -2.63234,0.36141 -3.74545,-0.20826c-2.19417,-1.12293 -4.44798,-2.55711 -5.74882,-4.65071c-0.96345,-1.5506 -0.40694,-3.62959 -0.52786,-5.45112c-0.12284,-1.85038 -0.07473,-3.70553 0.05575,-5.55423c-0.154,-1.23229 0.13664,-2.24948 0.13664,-2.24948z" fill="#828282"/><path d="M232.05503,135.51886c-0.55001,-0.7444 0.10448,-1.50796 0.10448,-1.50796c7.19167,-8.28857 16.78407,-10.63013 27.2986,-10.63013c1.30991,0.02681 3.87808,0.4331 4.9622,1.19761c2.26657,1.59837 4.69399,6.30444 2.70653,8.76527c-1.19904,1.48462 -4.07698,4.08038 -5.77951,4.91468c-2.76408,1.3545 -7.34196,0.50871 -10.35184,0.50871c-2.64888,0 -5.98175,0.54126 -8.55748,-0.03344c-0.8864,-0.19778 -1.65605,-0.83282 -2.55819,-0.93759c-2.68739,-0.3121 -4.85202,0.53856 -7.27228,-0.9699l-0.55662,-1.23239c0,0 0,-0.0277 0.00412,-0.07485z" fill="#707070"/><path d="M269.10018,184.10241c2.23607,1.11803 1.11804,3.35411 1.11804,3.35411l-0.42126,0.75233c-7.60742,9.90971 -20.04778,8.95683 -30.67577,5.71105c-2.89619,-0.88449 -5.84377,0.1399 -8.59572,-1.58553c-1.47312,-0.92362 -3.334,-4.10946 -4.2759,-5.56992c0,0 -1.35189,-2.10294 0.75105,-3.45484c2.10294,-1.3519 3.45484,0.75105 3.45484,0.75105c0.88274,1.37808 1.40027,3.15066 2.76114,4.05971c1.62671,1.08662 5.43518,0.45936 7.3302,1.00707c8.38153,2.42246 19.20419,4.40387 25.25016,-3.91859l-0.05088,0.01159c0,0 1.11804,-2.23607 3.35411,-1.11803z" fill="#a1a1a1"/><path d="M238.33172,248.91991c-2.89619,-0.88449 -5.84377,0.1399 -8.59572,-1.58553c-1.47312,-0.92362 -3.334,-4.10946 -4.2759,-5.56992c0,0 -1.35189,-2.10294 0.75105,-3.45484c2.10294,-1.3519 3.45484,0.75105 3.45484,0.75105c0.88274,1.37808 1.40027,3.15066 2.76114,4.05971c1.62671,1.08663 5.43518,0.45936 7.3302,1.00707c8.38153,2.42246 19.20419,4.40387 25.25016,-3.91859l-0.05088,0.01159c0,0 0.95497,-1.90993 2.8649,-1.3169c-1.01954,1.17584 -2.09898,2.31266 -2.4759,3.54217c-0.57557,1.87755 -1.1861,3.77999 -1.78862,5.69722c-7.37067,4.46611 -16.85945,3.33188 -25.22528,0.77697z" fill="#a1a1a1"/><path d="M228.99109,227.94127c0.02833,-0.07782 0.05521,-0.15648 0.08091,-0.23583c0.03674,-0.3625 0.07515,-0.72457 0.11452,-1.0861c0,0 0.29009,-2.61084 2.34216,-3.83741c3.23694,-2.8777 7.14195,-2.52024 11.22573,-2.41685c1.14644,-0.91662 2.80933,-0.39577 4.38371,-0.1185c6.50387,-0.28406 13.93566,-0.49438 17.84843,5.04868c0.89882,1.27331 1.04399,2.93716 1.56599,4.40574c0.34415,2.41412 0.99153,6.75244 0.65442,9.90642c-0.80974,0.93172 -1.56003,1.85539 -1.86135,2.8383c-0.20115,0.65616 -0.40657,1.31536 -0.61443,1.97718c-0.94095,0.84404 -2.04957,1.53519 -3.1527,2.09631c-0.70327,0.35773 -5.36866,0.29865 -6.70332,0.29865c-5.46046,0 -10.70913,0.02684 -16.0543,-0.76279c-1.23699,-0.18273 -2.63234,0.36141 -3.74545,-0.20826c-2.19417,-1.12293 -4.44799,-2.55712 -5.74883,-4.65071c-0.96345,-1.5506 -0.40694,-3.62959 -0.52786,-5.45112c-0.12284,-1.85038 -0.07473,-3.70553 0.05575,-5.55423c-0.154,-1.23229 0.13664,-2.24948 0.13664,-2.24948z" fill="#828282"/><path d="M231.69393,243.36218c-0.55001,-0.7444 0.10448,-1.50796 0.10448,-1.50796c7.19167,-8.28856 16.78407,-10.63013 27.2986,-10.63013c1.30991,0.02681 3.87808,0.4331 4.9622,1.19761c1.76664,1.24582 3.631,4.37964 3.42638,6.8667c-0.9115,1.04094 -1.80431,2.06238 -2.13998,3.15732c-0.03861,0.12597 -0.07739,0.25205 -0.11631,0.37824c-1.35296,1.3032 -3.07477,2.70517 -4.24307,3.27769c-2.76408,1.3545 -7.34196,0.50871 -10.35184,0.50871c-2.64888,0 -5.98175,0.54126 -8.55748,-0.03344c-0.8864,-0.19777 -1.65605,-0.83282 -2.55819,-0.93759c-2.68739,-0.3121 -4.85202,0.53856 -7.27228,-0.9699l-0.55662,-1.23239c0,0 0,-0.0277 0.00412,-0.07485z" fill="#707070"/><path d="M228.84546,172.19105c0.02833,-0.07782 0.05522,-0.15648 0.08091,-0.23583c0.03674,-0.3625 0.07514,-0.72457 0.11451,-1.0861c0,0 0.2901,-2.61084 2.34216,-3.83741c3.23694,-2.8777 7.14195,-2.52024 11.22573,-2.41685c1.14644,-0.91662 2.80933,-0.39577 4.38371,-0.1185c6.50387,-0.28406 13.93566,-0.49438 17.84843,5.04868c0.89882,1.27331 1.04399,2.93716 1.56599,4.40574c0.45333,3.18005 1.43286,9.699 -0.00488,12.45149c-1.02092,1.9545 -3.00376,3.36699 -4.96918,4.36672c-0.70327,0.35772 -5.36866,0.29865 -6.70332,0.29865c-5.46046,0 -10.70913,0.02684 -16.0543,-0.76279c-1.23699,-0.18274 -2.63234,0.36141 -3.74545,-0.20826c-2.19417,-1.12293 -4.44799,-2.55711 -5.74883,-4.65071c-0.96345,-1.5506 -0.40694,-3.62959 -0.52786,-5.45112c-0.12284,-1.85038 -0.07473,-3.70553 0.05574,-5.55423c-0.154,-1.23229 0.13664,-2.24948 0.13664,-2.24948z" fill="#828282"/><path d="M231.47867,188.02623c-0.55001,-0.7444 0.10447,-1.50796 0.10447,-1.50796c7.19167,-8.28857 16.78408,-10.63013 27.2986,-10.63013c1.30991,0.02681 3.87808,0.4331 4.9622,1.19761c2.26657,1.59837 4.69399,6.30444 2.70653,8.76527c-1.19904,1.48463 -4.07698,4.08037 -5.77951,4.91468c-2.76408,1.3545 -7.34196,0.50871 -10.35184,0.50871c-2.64888,0 -5.98175,0.54126 -8.55748,-0.03344c-0.8864,-0.19778 -1.65606,-0.83282 -2.55819,-0.93759c-2.68739,-0.3121 -4.85202,0.53856 -7.27228,-0.9699l-0.55662,-1.2324c0,0 0,-0.0277 0.00412,-0.07486z" fill="#707070"/><path d="M217.60482,127.16073c2.33336,0.89745 1.43592,3.23081 1.43592,3.23081l-1.00559,2.59202c-0.54707,0.91822 -0.93289,1.95422 -1.64122,2.75465c-4.82217,5.44921 -11.70267,3.34379 -17.64399,1.5157c0,0 -2.38945,-0.73521 -1.65423,-3.12466c0.73521,-2.38945 3.12466,-1.65423 3.12466,-1.65423c4.86739,1.49766 10.28319,3.71588 13.30739,-1.65558l0.84626,-2.22279c0,0 0.89745,-2.33336 3.23081,-1.43592z" fill="#a1a1a1"/><path d="M197.94906,117.81553c0.31239,-4.51502 4.98361,-4.51502 4.98361,-4.51502c2.91142,0 9.37669,-0.64949 11.39454,1.46447c1.63218,1.70991 1.47149,6.30237 1.46447,8.89395c-0.00594,2.19436 1.10003,4.62875 0.10064,6.58233c-2.9411,5.74922 -6.96457,5.786 -12.24242,4.47797c-1.98296,-0.49144 -4.65326,-0.05581 -5.89454,-1.67841c-2.63761,-3.44789 -0.10784,-7.88932 -0.17993,-11.52525v-1.78614c0,0 0,-0.88705 0.37363,-1.91389z" fill="#828282"/><path d="M199.24498,134.93488l-1.13503,-1.21155c-0.24507,0.02599 -0.53028,-0.03259 -0.84293,-0.25591c-1.01716,-0.72655 -0.29062,-1.74372 -0.29062,-1.74372c2.82446,-3.86875 9.13054,-4.67914 13.68525,-4.69058c1.21337,-0.00305 4.84829,-0.447 5.5657,0.7626c0.45378,0.76511 -0.15046,1.80089 -0.4891,2.62347c-0.96848,2.35253 -3.99108,3.59967 -6.01481,4.71708c-3.11699,0.43121 -6.58078,0.49416 -9.716,-0.0426c-0.27131,0.10674 -0.51371,0.10674 -0.51371,0.10674l-0.23147,-0.24707c-0.00671,-0.00138 -0.0134,-0.00277 -0.0201,-0.00415z" fill="#707070"/><g><path d="M188.28262,120.36013c2.16131,0.90249 3.98116,1.98341 6.27211,2.55585l0.04571,-0.03732c0,0 0.84014,0 1.14289,0.68877c0.25616,-0.0504 0.5632,-0.01124 0.90844,0.21892c1.04006,0.69338 0.34669,1.73344 0.34669,1.73344l-0.30739,0.08262c0,2.46437 -0.16498,3.96957 -1.31258,6.21782c-2.03794,1.65524 -4.34632,2.10268 -5.2182,4.78274c-0.54533,1.67627 0.09041,6.27506 -1.98678,7.22028c-0.95246,0.43342 -3.81016,-1.15766 -4.80233,-1.52719c-3.48999,-1.29983 -7.48167,-0.87486 -11.12261,-2.32799c-5.39561,-1.9714 -3.02622,-8.16486 0.36877,-11.15526c0.58262,-0.51319 1.78255,-0.4909 1.9688,-1.24464c0.48128,-1.94775 -1.08577,-4.94203 -0.23764,-7.04726c0.4631,-1.1495 2.20523,-2.85855 3.02066,-3.94578c0,0 0.75,-1 1.75,-0.25c0.37391,0.28043 0.50316,0.59582 0.51842,0.88081c2.56004,2.67955 5.38593,1.79329 8.64505,3.15419z" fill="#d10000"/><path d="M189.03223,142.31262c0.07456,0.23654 0.07326,0.52964 -0.08707,0.88239c-0.51725,1.13796 -1.65521,0.6207 -1.65521,0.6207c-1.33526,-0.61542 -6.11959,-2.04014 -6.73575,-3.25866c-0.78896,-1.56024 0.60287,-3.86167 1.41512,-5.08607c1.36635,-2.05967 3.14888,-3.81205 4.38787,-5.96265c1.15575,-2.00613 1.59412,-4.40656 2.47448,-6.54252c0.51768,-0.50785 0.8552,-1.32624 1.55303,-1.52355c2.33901,-0.66136 6.94976,2.96801 6.90626,5.23511c-0.09209,4.79968 -5.17266,6.28658 -7.01137,9.91596c-0.62235,1.22844 -0.1397,4.67464 -0.89788,5.40984c-0.11957,0.11595 -0.23597,0.21879 -0.34946,0.30946z" fill="#c00000"/><path d="M177.66002,115.58217c0.62529,-1.14623 1.80366,-0.53799 1.80366,-0.53799l1.49425,0.77146c2.92044,1.63966 5.81675,1.70046 8.90904,2.85842c2.75483,1.03159 5.57888,3.15682 8.17064,4.5856c3.64443,2.0091 7.14812,4.75394 10.88301,6.52074c1.29696,0.61353 2.74072,0.95548 3.94624,1.7255c0,0 1.10995,0.71978 0.36998,1.79946c-0.73997,1.07968 -1.84992,0.35989 -1.84992,0.35989c-1.09557,-0.72407 -2.44995,-0.98489 -3.63849,-1.55353c-3.13285,-1.49887 -6.09721,-3.81109 -9.13831,-5.52816c-3.04183,-1.71749 -6.46434,-4.29034 -9.73165,-5.49898c-3.20412,-1.18527 -6.15175,-1.31231 -9.20785,-2.9958l-1.45754,-0.75215c0,0 -1.17837,-0.60824 -0.55308,-1.75447z" fill="#515151"/><path d="M184.07145,127.03552c0.05013,-1.77093 -1.66589,-1.50969 -3.02188,-1.31154c-1.63256,0.9997 -3.22512,3.4839 -3.09627,5.55419c0.06311,1.01396 1.88521,2.51955 2.85043,2.59565c0.70193,0.05535 1.31455,-0.61821 1.79666,-1.01165c0,0 0.39155,-0.31867 0.79257,-0.10955c0.19896,0.01772 0.35044,0.10625 0.35044,0.10625c0.16766,0.09798 1.79241,1.20664 1.91724,1.06436c0.14398,-0.16412 0.42451,-0.37816 0.32145,-0.57063c-0.1386,-0.25887 -0.65177,-0.309 -0.64264,-0.60251c0.01493,-0.47948 0.39683,-0.88577 0.7005,-1.25715c0.20976,-0.25653 1.00057,-0.17655 0.86996,-0.48109c-0.12874,-0.30018 -0.63893,-0.49326 -0.55357,-0.80854c0.1273,-0.47017 1.5084,-0.86765 1.04591,-1.02053c-0.97812,-0.32334 -1.90603,-0.33413 -2.87236,-0.89043l-0.08254,-0.04823c0,0 -0.54327,-0.3175 -0.34022,-0.86825zM180.64397,135.35704c-1.70459,-0.10053 -4.0358,-2.27577 -4.17663,-3.94699c-0.23381,-2.77443 1.86718,-5.81274 4.07023,-7.08728c2.37043,-0.43178 5.01545,-0.28038 5.02561,2.72726l0.0118,0.09054c0.84028,0.31784 2.37162,0.45784 2.79269,0.9049c0.80467,0.85435 0.71677,1.88657 -0.09703,2.62957c0.06991,0.026 0.11821,0.0651 0.11772,0.13747c-0.00321,0.46732 -0.30396,0.90066 -0.58479,1.27418c-0.21839,0.29048 -1.25911,0.22783 -0.98531,0.46681c1.16506,1.01691 0.09527,3.02065 -1.60506,2.84059c-0.53938,-0.05713 -1.4207,-0.72737 -1.99969,-1.1076c-0.75307,0.60849 -1.48811,1.13429 -2.56954,1.07051zM187.95847,130.59872c-0.11347,-0.06907 -0.19924,-0.13849 -0.14414,-0.07953c0.03514,0.03759 0.08646,0.06168 0.14414,0.07953z" fill="#cfcfcf"/><path d="M182.11198,130.60959c0.17205,0.02622 0.35601,0.12405 0.49938,0.37285c0.37241,0.64628 -0.27387,1.01869 -0.27387,1.01869c-0.10188,0.05855 -0.25257,0.14885 -0.42607,0.24857c-0.02841,0.01943 -0.05757,0.03585 -0.08706,0.0497c-0.46395,0.26298 -1.05075,0.56395 -1.31732,0.52163c-1.09247,-0.17336 -2.00488,-1.13484 -1.34951,-2.30795c0.71321,-1.27662 2.49763,-0.89591 2.95445,0.0965z" fill="#cfcfcf"/><path d="M180.70311,126.96118c0.70042,-1.14679 1.98593,-0.82375 2.67319,0.043c0.16769,0.2115 0.1935,0.87047 0.19208,1.40377c0.00243,0.03249 0.00241,0.06596 -0.00058,0.10024c-0.00171,0.20011 -0.00645,0.37572 -0.00745,0.49322c0,0 -0.00727,0.74587 -0.75313,0.7386c-0.28714,-0.00279 -0.46265,-0.11506 -0.56995,-0.25209c-1.08887,0.08909 -2.29638,-1.27876 -1.53416,-2.52673z" data-paper-data="{&quot;index&quot;:null}" fill="#cfcfcf"/></g><path d="M216.67889,180.12369c2.33337,0.89745 1.43592,3.23082 1.43592,3.23082l-1.0056,2.59202c-0.54708,0.91822 -0.93289,1.95422 -1.64121,2.75465c-4.82216,5.44922 -11.70267,3.3438 -17.64399,1.5157c0,0 -2.38945,-0.73521 -1.65424,-3.12466c0.73521,-2.38945 3.12466,-1.65423 3.12466,-1.65423c4.86739,1.49766 10.28319,3.71588 13.30739,-1.65558l0.84626,-2.22279c0,0 0.89744,-2.33337 3.23081,-1.43592z" fill="#a1a1a1"/><path d="M197.59064,170.57908c0.31239,-4.51502 4.98361,-4.51502 4.98361,-4.51502c2.91142,0 9.37669,-0.64949 11.39454,1.46446c1.63218,1.70991 1.47149,6.30238 1.46447,8.89396c-0.00594,2.19436 1.10003,4.62875 0.10064,6.58233c-2.9411,5.74922 -6.96457,5.786 -12.24242,4.47796c-1.98296,-0.49144 -4.65326,-0.0558 -5.89454,-1.67841c-2.63761,-3.44789 -0.10784,-7.88933 -0.17993,-11.52526v-1.78614c0,0 0,-0.88705 0.37363,-1.91389z" fill="#828282"/><path d="M199.41829,187.61725l-1.13503,-1.21156c-0.24507,0.02599 -0.53027,-0.03258 -0.84292,-0.25591c-1.01716,-0.72655 -0.29062,-1.74372 -0.29062,-1.74372c2.82446,-3.86875 9.13054,-4.67913 13.68525,-4.69058c1.21337,-0.00305 4.84829,-0.447 5.5657,0.76259c0.45378,0.76511 -0.15046,1.80089 -0.4891,2.62347c-0.96848,2.35253 -3.99107,3.59967 -6.0148,4.71709c-3.11699,0.43121 -6.58078,0.49416 -9.716,-0.0426c-0.27131,0.10674 -0.51371,0.10674 -0.51371,0.10674l-0.23147,-0.24707c-0.00671,-0.00138 -0.0134,-0.00276 -0.02011,-0.00415z" fill="#707070"/><g><path d="M188.10932,172.69588c2.16131,0.90249 3.98116,1.98341 6.27211,2.55585l0.04571,-0.03732c0,0 0.84014,0 1.14289,0.68877c0.25616,-0.0504 0.5632,-0.01124 0.90844,0.21892c1.04006,0.69338 0.34669,1.73344 0.34669,1.73344l-0.30739,0.08262c0,2.46437 -0.16498,3.96957 -1.31258,6.21782c-2.03794,1.65524 -4.34632,2.10268 -5.2182,4.78274c-0.54533,1.67627 0.09041,6.27506 -1.98678,7.22028c-0.95246,0.43342 -3.81016,-1.15766 -4.80233,-1.52719c-3.48999,-1.29983 -7.48167,-0.87486 -11.12261,-2.32799c-5.39561,-1.9714 -3.02622,-8.16486 0.36877,-11.15526c0.58262,-0.51319 1.78255,-0.4909 1.9688,-1.24464c0.48128,-1.94775 -1.08577,-4.94203 -0.23764,-7.04726c0.4631,-1.1495 2.20523,-2.85855 3.02066,-3.94578c0,0 0.75,-1 1.75,-0.25c0.37391,0.28043 0.50316,0.59582 0.51842,0.88081c2.56004,2.67955 5.38593,1.79329 8.64505,3.15419z" fill="#d10000"/><path d="M188.85893,194.64837c0.07456,0.23654 0.07326,0.52964 -0.08707,0.88239c-0.51725,1.13796 -1.65521,0.6207 -1.65521,0.6207c-1.33526,-0.61542 -6.11959,-2.04014 -6.73575,-3.25866c-0.78896,-1.56024 0.60287,-3.86167 1.41512,-5.08607c1.36635,-2.05967 3.14888,-3.81205 4.38787,-5.96265c1.15575,-2.00613 1.59412,-4.40656 2.47448,-6.54252c0.51768,-0.50785 0.8552,-1.32624 1.55303,-1.52355c2.33901,-0.66136 6.94976,2.96801 6.90626,5.23511c-0.09209,4.79968 -5.17266,6.28658 -7.01137,9.91596c-0.62235,1.22844 -0.1397,4.67464 -0.89788,5.40984c-0.11957,0.11595 -0.23597,0.21879 -0.34946,0.30946z" fill="#c00000"/><path d="M177.48671,167.91792c0.62529,-1.14623 1.80366,-0.53799 1.80366,-0.53799l1.49425,0.77146c2.92044,1.63966 5.81675,1.70046 8.90904,2.85842c2.75483,1.03159 5.57888,3.15682 8.17064,4.5856c3.64443,2.0091 7.14812,4.75394 10.88301,6.52074c1.29696,0.61353 2.74072,0.95548 3.94624,1.7255c0,0 1.10995,0.71978 0.36998,1.79946c-0.73997,1.07968 -1.84992,0.35989 -1.84992,0.35989c-1.09557,-0.72407 -2.44995,-0.98489 -3.63849,-1.55353c-3.13285,-1.49887 -6.09721,-3.81109 -9.13831,-5.52816c-3.04183,-1.71749 -6.46434,-4.29034 -9.73165,-5.49898c-3.20412,-1.18527 -6.15175,-1.31231 -9.20785,-2.9958l-1.45754,-0.75215c0,0 -1.17837,-0.60824 -0.55308,-1.75447z" fill="#515151"/><path d="M183.89814,179.37127c0.05013,-1.77093 -1.66589,-1.50969 -3.02188,-1.31154c-1.63256,0.9997 -3.22512,3.4839 -3.09627,5.55419c0.06311,1.01396 1.88521,2.51955 2.85043,2.59565c0.70193,0.05535 1.31456,-0.61821 1.79666,-1.01165c0,0 0.39155,-0.31867 0.79257,-0.10955c0.19896,0.01772 0.35044,0.10625 0.35044,0.10625c0.16766,0.09798 1.79241,1.20664 1.91724,1.06436c0.14398,-0.16412 0.42451,-0.37817 0.32146,-0.57063c-0.1386,-0.25887 -0.65178,-0.309 -0.64265,-0.60251c0.01493,-0.47948 0.39683,-0.88577 0.7005,-1.25714c0.20976,-0.25653 1.00057,-0.17655 0.86996,-0.48109c-0.12874,-0.30018 -0.63893,-0.49326 -0.55358,-0.80853c0.1273,-0.47017 1.5084,-0.86766 1.04591,-1.02054c-0.97812,-0.32334 -1.90603,-0.33412 -2.87235,-0.89043l-0.08254,-0.04824c0,0 -0.54327,-0.3175 -0.34022,-0.86825zM180.47067,187.6928c-1.70459,-0.10053 -4.0358,-2.27577 -4.17663,-3.947c-0.23381,-2.77443 1.86718,-5.81274 4.07023,-7.08728c2.37043,-0.43178 5.01545,-0.28038 5.02561,2.72726l0.01181,0.09054c0.84028,0.31784 2.37162,0.45784 2.79269,0.9049c0.80467,0.85435 0.71677,1.88657 -0.09704,2.62957c0.06991,0.026 0.11822,0.0651 0.11773,0.13747c-0.00321,0.46732 -0.30396,0.90066 -0.58479,1.27418c-0.21839,0.29048 -1.25911,0.22783 -0.98531,0.46681c1.16506,1.01691 0.09528,3.02065 -1.60506,2.84059c-0.53938,-0.05713 -1.42071,-0.72737 -1.9997,-1.10759c-0.75307,0.60849 -1.48811,1.13428 -2.56954,1.07051zM187.78516,182.93447c-0.11347,-0.06907 -0.19924,-0.13849 -0.14414,-0.07953c0.03514,0.03759 0.08646,0.06168 0.14414,0.07953z" fill="#cfcfcf"/><path d="M181.93868,182.94534c0.17205,0.02622 0.35601,0.12405 0.49937,0.37286c0.37241,0.64628 -0.27387,1.01869 -0.27387,1.01869c-0.10188,0.05855 -0.25257,0.14885 -0.42607,0.24857c-0.02841,0.01943 -0.05757,0.03585 -0.08706,0.0497c-0.46395,0.26298 -1.05075,0.56395 -1.31732,0.52163c-1.09247,-0.17336 -2.00488,-1.13484 -1.34951,-2.30795c0.71321,-1.27662 2.49763,-0.89591 2.95445,0.0965z" fill="#cfcfcf"/><path d="M180.5298,179.29694c0.70042,-1.14679 1.98593,-0.82375 2.67319,0.043c0.16769,0.2115 0.19349,0.87047 0.19208,1.40377c0.00243,0.03249 0.00242,0.06597 -0.00057,0.10024c-0.00171,0.20011 -0.00645,0.37571 -0.00745,0.49322c0,0 -0.00727,0.74587 -0.75313,0.7386c-0.28714,-0.00279 -0.46265,-0.11505 -0.56995,-0.25209c-1.08887,0.08909 -2.29639,-1.27877 -1.53417,-2.52673z" data-paper-data="{&quot;index&quot;:null}" fill="#cfcfcf"/></g><path d="M216.49371,235.12369c2.33337,0.89745 1.43592,3.23082 1.43592,3.23082l-1.0056,2.59202c-0.54708,0.91822 -0.93289,1.95422 -1.64121,2.75465c-4.82216,5.44921 -11.70267,3.3438 -17.64399,1.5157c0,0 -2.38945,-0.73521 -1.65424,-3.12466c0.73521,-2.38945 3.12466,-1.65423 3.12466,-1.65423c4.86739,1.49766 10.28319,3.71588 13.30739,-1.65558l0.84626,-2.22279c0,0 0.89744,-2.33337 3.23081,-1.43592z" fill="#a1a1a1"/><path d="M197.73627,226.3293c0.31239,-4.51502 4.98361,-4.51502 4.98361,-4.51502c2.91142,0 9.37669,-0.64949 11.39454,1.46447c1.63218,1.70991 1.47149,6.30238 1.46447,8.89396c-0.00594,2.19436 1.10003,4.62875 0.10064,6.58233c-2.9411,5.74922 -6.96458,5.786 -12.24242,4.47796c-1.98296,-0.49144 -4.65326,-0.0558 -5.89454,-1.67841c-2.63761,-3.44788 -0.10784,-7.88932 -0.17992,-11.52525v-1.78614c0,0 0,-0.88705 0.37363,-1.91389z" fill="#828282"/><path d="M199.33293,242.88626l-1.13503,-1.21156c-0.24508,0.02599 -0.53027,-0.03259 -0.84292,-0.25591c-1.01717,-0.72655 -0.29062,-1.74371 -0.29062,-1.74371c2.82446,-3.86875 9.13054,-4.67914 13.68524,-4.69058c1.21337,-0.00305 4.84829,-0.447 5.56571,0.7626c0.45379,0.76511 -0.15046,1.80089 -0.4891,2.62347c-0.96848,2.35253 -3.99108,3.59967 -6.01481,4.71708c-3.11699,0.43121 -6.58078,0.49416 -9.716,-0.0426c-0.27131,0.10674 -0.51371,0.10674 -0.51371,0.10674l-0.23146,-0.24707c-0.0067,-0.00138 -0.01341,-0.00276 -0.02011,-0.00415z" fill="#707070"/><g><path d="M188.45334,227.87694c2.16131,0.90249 3.98116,1.98341 6.27211,2.55585l0.04571,-0.03732c0,0 0.84014,0 1.14289,0.68877c0.25616,-0.0504 0.5632,-0.01124 0.90844,0.21892c1.04006,0.69338 0.34669,1.73344 0.34669,1.73344l-0.30739,0.08262c0,2.46437 -0.16498,3.96957 -1.31258,6.21782c-2.03794,1.65524 -4.34632,2.10268 -5.2182,4.78274c-0.54533,1.67627 0.09041,6.27506 -1.98678,7.22028c-0.95246,0.43342 -3.81016,-1.15766 -4.80233,-1.52719c-3.48999,-1.29983 -7.48167,-0.87486 -11.12261,-2.32799c-5.39561,-1.9714 -3.02622,-8.16486 0.36877,-11.15526c0.58262,-0.51319 1.78255,-0.4909 1.9688,-1.24464c0.48128,-1.94775 -1.08577,-4.94203 -0.23764,-7.04726c0.4631,-1.1495 2.20523,-2.85855 3.02066,-3.94578c0,0 0.75,-1 1.75,-0.25c0.37391,0.28043 0.50316,0.59582 0.51842,0.88081c2.56004,2.67955 5.38593,1.79329 8.64505,3.15419z" fill="#d10000"/><path d="M189.20295,249.82943c0.07456,0.23654 0.07326,0.52964 -0.08707,0.88239c-0.51725,1.13796 -1.65521,0.6207 -1.65521,0.6207c-1.33526,-0.61542 -6.11959,-2.04014 -6.73575,-3.25866c-0.78896,-1.56024 0.60287,-3.86167 1.41512,-5.08607c1.36635,-2.05967 3.14888,-3.81205 4.38787,-5.96265c1.15575,-2.00613 1.59412,-4.40656 2.47448,-6.54252c0.51768,-0.50785 0.8552,-1.32624 1.55303,-1.52355c2.33901,-0.66136 6.94976,2.96801 6.90626,5.23511c-0.09209,4.79968 -5.17266,6.28658 -7.01137,9.91596c-0.62235,1.22844 -0.1397,4.67464 -0.89788,5.40984c-0.11957,0.11595 -0.23597,0.21879 -0.34946,0.30946z" fill="#c00000"/><path d="M177.83074,223.09898c0.62529,-1.14623 1.80366,-0.53799 1.80366,-0.53799l1.49425,0.77146c2.92044,1.63966 5.81675,1.70046 8.90904,2.85842c2.75483,1.03159 5.57888,3.15682 8.17064,4.5856c3.64443,2.0091 7.14812,4.75394 10.88301,6.52074c1.29696,0.61353 2.74072,0.95548 3.94624,1.7255c0,0 1.10995,0.71978 0.36998,1.79946c-0.73997,1.07968 -1.84992,0.35989 -1.84992,0.35989c-1.09557,-0.72407 -2.44995,-0.98489 -3.63849,-1.55353c-3.13285,-1.49887 -6.09721,-3.81109 -9.13831,-5.52816c-3.04183,-1.71749 -6.46434,-4.29034 -9.73165,-5.49898c-3.20412,-1.18527 -6.15175,-1.31231 -9.20785,-2.9958l-1.45754,-0.75215c0,0 -1.17837,-0.60824 -0.55308,-1.75447z" fill="#515151"/><path d="M184.24216,234.55233c0.05013,-1.77093 -1.66589,-1.50969 -3.02188,-1.31154c-1.63256,0.9997 -3.22512,3.4839 -3.09627,5.5542c0.06311,1.01396 1.88521,2.51955 2.85043,2.59565c0.70193,0.05535 1.31455,-0.61821 1.79666,-1.01166c0,0 0.39155,-0.31867 0.79257,-0.10955c0.19896,0.01772 0.35044,0.10625 0.35044,0.10625c0.16766,0.09798 1.79241,1.20664 1.91724,1.06435c0.14398,-0.16412 0.42451,-0.37816 0.32145,-0.57063c-0.1386,-0.25887 -0.65177,-0.309 -0.64264,-0.60251c0.01493,-0.47947 0.39683,-0.88577 0.7005,-1.25715c0.20976,-0.25653 1.00057,-0.17654 0.86996,-0.48109c-0.12874,-0.30019 -0.63893,-0.49326 -0.55357,-0.80854c0.1273,-0.47017 1.5084,-0.86765 1.04591,-1.02053c-0.97812,-0.32334 -1.90603,-0.33413 -2.87236,-0.89043l-0.08254,-0.04823c0,0 -0.54327,-0.3175 -0.34022,-0.86825zM180.81469,242.87386c-1.70459,-0.10052 -4.0358,-2.27577 -4.17663,-3.94699c-0.23381,-2.77443 1.86718,-5.81274 4.07023,-7.08728c2.37043,-0.43178 5.01545,-0.28038 5.02561,2.72726l0.0118,0.09054c0.84028,0.31784 2.37162,0.45784 2.79269,0.9049c0.80467,0.85435 0.71677,1.88657 -0.09703,2.62957c0.06991,0.026 0.11821,0.0651 0.11772,0.13747c-0.00321,0.46732 -0.30396,0.90065 -0.58479,1.27418c-0.21839,0.29048 -1.25911,0.22783 -0.98531,0.46681c1.16506,1.0169 0.09527,3.02064 -1.60506,2.84059c-0.53938,-0.05712 -1.4207,-0.72737 -1.99969,-1.10759c-0.75307,0.60848 -1.48811,1.13428 -2.56954,1.07051zM188.12919,238.11553c-0.11347,-0.06907 -0.19924,-0.13849 -0.14414,-0.07953c0.03514,0.03759 0.08646,0.06168 0.14414,0.07953z" fill="#cfcfcf"/><path d="M182.2827,238.1264c0.17205,0.02622 0.35601,0.12405 0.49938,0.37285c0.37241,0.64628 -0.27387,1.01869 -0.27387,1.01869c-0.10188,0.05855 -0.25257,0.14886 -0.42607,0.24857c-0.02841,0.01943 -0.05757,0.03586 -0.08706,0.0497c-0.46395,0.26298 -1.05075,0.56395 -1.31732,0.52163c-1.09247,-0.17336 -2.00488,-1.13484 -1.34951,-2.30795c0.71321,-1.27662 2.49763,-0.89591 2.95445,0.0965z" fill="#cfcfcf"/><path d="M180.87383,234.478c0.70042,-1.14679 1.98593,-0.82375 2.67319,0.043c0.16769,0.2115 0.1935,0.87047 0.19208,1.40377c0.00243,0.03249 0.00241,0.06596 -0.00058,0.10024c-0.00171,0.20011 -0.00645,0.37572 -0.00745,0.49322c0,0 -0.00727,0.74586 -0.75313,0.7386c-0.28714,-0.00279 -0.46265,-0.11506 -0.56995,-0.25209c-1.08887,0.08909 -2.29638,-1.27877 -1.53416,-2.52673z" data-paper-data="{&quot;index&quot;:null}" fill="#cfcfcf"/></g><path d="M288.29222,136.09519c-0.23112,0.0152 -0.45581,0.00183 -0.66976,-0.03741c-0.1714,0.06196 -0.35151,0.10572 -0.53799,0.12894c-0.10222,0.01273 -0.20636,0.01928 -0.31203,0.01928c-1.38071,0 -2.5,-1.11929 -2.5,-2.5c0,-1.2028 0.84941,-2.2072 1.98111,-2.44608c0.61564,-0.41456 1.32074,-0.80811 2.13123,-1.51104c0.7285,-0.63182 2.27823,-2.17765 3.39305,-2.29423c0.77346,-0.08088 1.4849,-0.1067 2.13266,-0.0829c0.03766,0.08937 0.07659,0.17808 0.11676,0.26611c0.07911,0.52236 0.17975,1.03214 0.30358,1.52747c0.5157,2.06279 1.13083,3.93515 1.85988,5.67892c-0.22156,0.20953 -0.45848,0.42014 -0.71089,0.63135c-1.52899,1.27936 -4.11233,1.05377 -5.95719,0.68198c-0.1591,0.03176 -0.32367,0.04842 -0.49212,0.04842h-0.00001c-0.257,0 -0.50494,-0.03878 -0.73828,-0.11081z" fill="#707070"/><path d="M284.11115,185.48019c0,-1.2028 0.84942,-2.20721 1.98111,-2.44609c0.46426,-0.31263 0.97941,-0.6133 1.55226,-1.04373c-0.4928,1.97192 -0.91919,3.97133 -1.27772,5.97803c-1.26603,-0.12281 -2.25565,-1.18994 -2.25565,-2.48821z" fill="#707070"/></g></g></g></svg>