<svg version="1.1" xmlns="http://www.w3.org/2000/svg" xmlns:xlink="http://www.w3.org/1999/xlink" width="271.0432" height="210.09282" viewBox="0,0,271.0432,210.09282"><g transform="translate(-104.4939,-69.37981)"><g data-paper-data="{&quot;isPaintingLayer&quot;:true}" fill-rule="nonzero" stroke-linecap="butt" stroke-linejoin="miter" stroke-miterlimit="10" stroke-dasharray="" stroke-dashoffset="0" style="mix-blend-mode: normal"><g stroke="none" stroke-width="0.5"><g data-paper-data="{&quot;index&quot;:null}" fill="#aa0000"><path d="M293.79838,149.37304c2.35734,0.95205 6.40182,2.24439 8.08332,4.38672c1.2894,1.64276 2.12593,3.66323 2.61371,5.68704c0.98789,4.09878 -0.25091,5.0385 -1.01251,8.55157c-1.06744,4.92376 -1.54945,10.59181 -5.52793,14.28576c-2.47463,2.29768 -5.30825,3.4519 -8.35812,3.50203c0.16243,1.06195 0.08798,2.38242 0.14414,4.32983c0.03953,1.37054 0.39725,2.80892 -0.00559,4.11117c-2.46454,7.96656 -9.03207,9.59472 -15.94874,10.84427c2.3344,1.58249 4.64824,3.83624 5.21157,6.06819c1.35472,5.3675 -3.66281,11.95372 -8.4656,13.37403c-0.28435,0.08408 -6.25196,-0.47328 -7.53554,-0.58951c-1.70663,-0.27844 -4.28303,-0.51374 -6.26525,-1.34767c-0.05104,0.27719 -0.12468,0.55048 -0.2257,0.81905c-3.02412,8.03804 -16.21962,7.24358 -21.715,2.76126c-0.8903,-0.72615 -1.28796,-1.91501 -2.05965,-2.76739c-0.86247,-0.95269 -2.12169,-1.54726 -2.82192,-2.62478c-0.58234,-0.8961 -0.38983,-2.12611 -0.88163,-3.07432c-0.64887,-1.25108 -2.16927,-2.05281 -2.48764,-3.4219c-0.02135,-0.09175 -0.03836,-0.18359 -0.05143,-0.2755c-1.28826,0.56279 -2.60669,0.38215 -3.55389,0.09272c-0.46198,1.26501 -1.82234,3.22705 -2.41534,3.58206c-2.87504,1.72109 -10.06855,2.08658 -13.33373,0.74916c-2.02329,-0.82873 -4.49813,-1.49812 -5.64223,-3.37223c-0.09895,-0.16207 -1.13132,-9.15914 -1.31769,-11.08127c-0.11508,-1.18692 0.5401,-2.7165 -0.30776,-3.56355c-0.56611,-0.56555 -1.53337,-0.42927 -2.31291,-0.58102c-1.92653,-0.37502 -3.7561,-1.18684 -5.67563,-1.5995c-1.17288,-0.25212 -2.43555,0.14801 -3.58298,-0.20852c-1.70984,-0.53127 -5.88116,-3.56824 -7.27588,-4.52803c-1.791,-3.43351 -7.15308,-10.4119 -5.4147,-14.69523c-0.34005,-0.14458 -0.6533,-0.42526 -0.97388,-0.61503c-2.25425,-1.33423 -5.68807,-1.11213 -7.11223,-3.31781c-3.5018,-5.42333 -1.2189,-13.20678 2.63012,-17.23695c1.73791,-1.81972 3.71575,-1.83159 4.71423,-4.33243c0.61934,-1.5513 1.17762,-3.14611 1.47842,-4.79491c0.29862,-1.63692 -0.45829,-3.6643 0.55898,-4.96666c4.12649,-5.28292 10.73714,-3.71287 16.2832,-2.5876c0.05593,-0.80473 0.29537,-1.60565 0.73423,-2.33963l0.72529,-1.21302c-0.2234,-0.8989 -0.36959,-1.81134 -0.45786,-2.73209l-0.39269,0.18195l-1.20734,-2.55258c-0.77695,-1.58354 -0.7693,-3.50479 0.18872,-5.10707c0.26131,-0.43702 0.57607,-0.82149 0.93109,-1.15027c-2.42811,-0.19617 -5.03613,-0.6387 -5.67437,-1.14603c-3.87725,-3.082 -5.4054,-8.7165 -3.3351,-13.214c0.99287,-2.15693 4.08128,-2.43133 5.90434,-3.9389c1.13518,-0.93871 1.31402,-2.65115 2.07376,-3.91702c2.71713,-4.52736 5.35278,-8.24641 10.95309,-8.78011c1.25461,-2.19507 2.33319,-4.3758 4.42457,-5.99044c0.96969,-0.74865 2.34352,-0.81197 3.36383,-1.49032c1.02541,-0.68172 1.60314,-1.95088 2.68847,-2.53355c0.63792,-0.34248 1.32825,-0.61709 2.0526,-0.83823c0.64954,-0.94535 1.34973,-1.84636 2.1085,-2.69326c1.36559,-1.52429 2.73545,-3.28426 4.65632,-3.99689c3.17606,-1.17832 7.50404,0.4029 10.20175,2.07721c2.28993,1.42124 4.21898,3.43498 5.79966,5.76972c4.72571,2.03772 8.47129,5.70424 9.80639,11.83355c0.1786,0.8199 0.2533,3.10649 0.207,5.18926c0.73756,-0.05915 1.5272,0.01988 2.19927,-0.25565c1.4704,-0.60283 2.47546,-2.37619 4.06861,-2.47539c7.72918,-0.48134 15.61788,9.65079 15.95805,16.72167c0.15166,3.15238 -0.46447,5.45178 -1.63264,7.60113c-0.2436,0.74407 -0.51347,1.48229 -0.79,2.21212c6.26108,-1.11633 13.77027,3.35371 16.92628,8.90013c3.80379,1.93064 6.41169,5.41386 5.71569,10.85789c-0.18138,1.41876 -1.38397,2.44191 -2.29284,3.58131c1.50639,-0.21272 3.13129,0.01035 4.65886,-0.12452zM248.22361,187.19267c-0.21019,-0.01301 -0.4206,-0.03863 -0.63008,-0.0771c0.19616,0.13598 0.36259,0.20195 0.49048,0.14826c0.04159,-0.01744 0.08827,-0.04135 0.13957,-0.07112z"/><path d="M203.15903,156.40952l-1.09792,-0.67444c-0.2603,-0.15991 -6.86733,-4.15976 -7.24075,-4.60744c-1.2918,-1.54864 -1.95112,-4.7499 -2.45123,-6.73142c-1.28734,-5.10056 -2.71025,-11.05699 -0.23265,-15.75669c-1.19976,-0.16783 -2.52681,0.06021 -3.5533,-0.57634c-1.12741,-0.69916 -1.57443,-2.14274 -2.3609,-3.21468c-1.56772,-2.13677 -3.67783,-4.15155 -3.23568,-7.18599c0.29741,-2.04104 1.45456,-3.84927 2.3447,-5.69834c2.72694,-5.66463 7.04637,-11.15408 11.55884,-15.43608c1.62652,-1.54345 2.89948,-3.8289 5.06754,-4.42269c0.93129,-0.25506 1.86047,0.08649 2.78925,0.5389c1.05464,-3.82781 2.46424,-7.54514 5.94631,-9.97461c1.95393,-1.36328 4.61645,-1.27508 6.81957,-2.18974c3.91627,-1.62595 8.57707,-4.19504 13.09593,-3.4196c2.63287,0.4518 5.14446,2.13829 7.37365,3.53332c1.27173,0.79583 2.76486,1.32526 3.79547,2.41951c4.70713,4.998 5.34693,13.10915 10.39854,17.54811c0,0 0.80613,0.74381 0.92442,1.79007c3.23472,-1.1462 6.68018,-1.87832 9.93548,-1.03329c1.26509,0.32839 2.27672,1.30657 3.40438,1.97859c0.80569,0.48018 6.30871,3.87608 6.52745,4.09291c3.69055,3.65826 3.45207,11.26 1.33479,15.57217c1.68818,0.86358 3.26639,2.08214 4.82789,3.04767c2.54257,1.57219 4.65565,3.76775 6.8808,5.77142c4.6754,4.21008 10.24068,6.97151 9.47913,14.32149c-0.05353,0.5167 -0.19627,1.01254 -0.37407,1.50013c2.00851,0.46803 4.05961,1.51792 6.23913,3.26281c1.15807,0.92713 2.54596,1.77759 3.178,3.1198c1.38078,2.93227 1.01017,7.98371 1.37499,11.11801c0.22219,1.90901 1.0535,3.77076 0.98333,5.68632c-0.17721,4.83891 -3.36569,8.9601 -5.79658,12.84178c-1.07913,1.72315 -1.66579,3.9283 -3.30321,5.12651c-1.09645,0.80236 -2.22916,1.2322 -3.38276,1.4279c-0.22356,3.37405 -2.09871,6.87073 -3.64788,9.47331c-0.44158,0.74186 -3.45797,5.8561 -3.84015,6.12785c-1.5438,1.09771 -3.44757,1.77033 -5.34104,1.96821c-0.43744,0.04571 -0.87026,-0.00131 -1.30119,-0.09522c0.516,0.57021 0.97885,1.16912 1.24555,1.87878c0.46839,1.24635 0.03438,2.65398 -0.08531,3.97081c-0.46599,5.12702 -2.80591,13.02344 -8.61621,14.61965c-1.1839,0.32524 -2.4657,-0.10645 -3.69683,-0.19732c-1.56217,-0.11533 -6.78127,-0.50421 -8.37835,-1.14561c-1.23089,-0.49432 -2.49189,-1.19662 -3.74863,-1.98008c-1.25173,2.1188 -2.82736,4.55415 -4.42068,5.6198c-6.77891,4.5339 -15.78277,0.57922 -21.85083,-3.37859c-1.57898,-1.02987 -3.66786,-1.57921 -4.6842,-3.17081c-1.11494,-1.74595 -0.86082,-4.03943 -1.218,-6.07181c-0.78449,-4.46373 -1.41032,-6.77203 -0.02974,-11.07001l1.20049,-2.10933c0,0 1.35848,-2.27201 3.64487,-0.86748c2.28638,1.40453 0.92794,3.67656 0.92794,3.67656l-0.75646,1.16366c-1.29857,3.19885 -0.15144,4.88685 0.27329,8.50854c0.15004,1.2794 -0.32632,2.74751 0.35759,3.84639c0.59673,0.9588 2.01951,0.99765 3.00114,1.5503c4.18541,2.35645 11.21064,6.91754 16.06615,3.50497c0.78929,-0.55473 2.0492,-2.52546 3.02251,-4.16727c-0.53503,-0.3555 -1.06089,-0.69668 -1.57455,-1.01223l-1.64686,-1.01168c0,0 -2.2864,-1.40455 -0.92794,-3.67656c1.35846,-2.27201 3.64487,-0.86748 3.64487,-0.86748l1.64685,1.01168c1.10094,0.6763 2.21322,1.39575 3.34375,2.10392c0.16097,0.06649 0.32733,0.15125 0.49893,0.25663c0.18001,0.11059 0.33745,0.22654 0.47472,0.34634c4.13195,2.52403 8.52878,4.69683 13.51766,3.93806c1.24474,-0.18932 2.02538,-2.40391 2.40313,-3.03989c1.24936,-2.10337 1.89434,-4.5784 2.2339,-7.01683c0.08157,-0.58576 0.58146,-1.20206 0.32816,-1.74208c-0.45981,-0.98027 -1.57457,-1.49908 -2.24711,-2.3489c-0.89391,-1.12957 -1.66959,-2.05844 -2.49599,-2.89281c-1.63494,-0.44673 -3.20148,-1.12668 -5.18954,-2.33785l-2.19582,-1.34891c0,0 -2.2864,-1.40453 -0.92794,-3.67654c1.35846,-2.27201 3.64486,-0.86748 3.64486,-0.86748l0.73447,0.45117c1.26059,-0.71734 2.66263,0.14394 2.66263,0.14394c1.49287,0.92246 2.75727,1.82708 3.90306,2.82084c0.90868,0.14464 1.94579,0.24182 3.35495,0.43026c2.26014,0.30225 3.73012,1.86501 5.78604,0.12736c1.39234,-1.17677 1.74206,-3.21593 2.68306,-4.7821c0.56348,-0.93783 2.80032,-4.45639 3.08494,-6.87374c-0.87588,-0.14319 -1.75088,-0.30419 -2.61876,-0.4266c0,0 -2.63665,-0.39598 -2.28867,-3.03756c0.06368,-0.4833 0.20396,-0.86493 0.39067,-1.1659c-0.05242,-0.38581 -0.01352,-0.83183 0.16712,-1.3435c0.88368,-2.50335 3.3921,-1.57166 3.3921,-1.57166c1.33927,0.57963 3.00851,0.67679 4.01782,1.73894c0.24424,0.25701 0.46412,0.52041 0.6612,0.78952c0.66641,-0.05807 1.23916,-0.21782 1.61201,-0.5358c1.03154,-0.8798 1.24828,-2.41712 1.9154,-3.60145c1.73021,-3.07157 5.04032,-6.54131 5.0541,-10.32705c0.006,-1.64291 -0.74922,-3.2185 -0.94965,-4.85269c-0.07591,-0.61885 -0.29237,-8.01273 -0.76647,-9.18862c-0.24612,-0.61045 -3.8178,-2.67796 -4.01981,-2.78623c-4.01026,-2.14945 -5.86573,-0.91881 -9.51779,1.3941l-0.1296,0.76871c0,0 -1.35848,2.27199 -3.64487,0.86748c-2.28638,-1.40453 -0.92792,-3.67654 -0.92792,-3.67654l1.82737,-2.50428c2.03344,-1.26596 3.95896,-2.20828 5.84815,-2.7326c0.31731,-0.79348 0.79029,-1.54386 0.91096,-2.39178c0.67931,-4.77348 -4.87911,-7.11234 -7.70602,-9.66085c-3.23572,-2.91707 -5.23569,-4.59455 -8.8321,-6.86449c-0.90271,-0.56977 -2.31651,-1.98362 -3.6777,-1.59468c-2.7316,0.78051 -4.04007,3.38897 -5.3586,5.61678l-0.97845,1.6365c0,0 -1.35848,2.27201 -3.64487,0.86748c-2.2864,-1.40452 -0.92794,-3.67656 -0.92794,-3.67656l0.97849,-1.63648c1.7471,-2.89698 3.58309,-5.81328 6.63452,-7.29794c0.31865,-0.72506 0.899,-1.1617 0.899,-1.1617c0.69417,-0.44853 1.71116,-0.60433 2.0825,-1.34556c0.87393,-1.74447 1.50428,-7.56317 -0.40276,-9.10849c-1.62317,-1.31525 -5.61648,-4.14773 -7.6347,-4.71963c-1.53598,-0.43525 -3.54661,0.25999 -4.99359,0.61042c-3.95226,0.95717 -8.55116,1.87719 -11.13894,4.9954l-0.34152,0.67267c0,0 -1.35846,2.27201 -3.64486,0.86748c-2.28638,-1.40453 -0.92794,-3.67653 -0.92794,-3.67653l0.96314,-1.5093c0.92682,-0.95928 1.65713,-2.15905 2.78047,-2.87783c0.8519,-0.54512 2.00918,-0.38346 2.9397,-0.78231c0.36822,-0.15782 0.74448,-0.32131 1.1279,-0.4878c-4.92947,-4.89708 -5.62786,-12.44833 -10.34552,-17.49442c-0.7374,-0.78872 -1.86808,-1.07299 -2.79196,-1.62714c-1.37226,-0.82314 -3.72626,-2.49961 -5.35564,-2.79463c-3.40238,-0.61601 -7.4236,1.89565 -10.30944,3.08655c-1.95447,0.80653 -4.34405,0.62095 -6.08438,1.81707c-1.77357,1.21899 -2.81121,4.09028 -4.05267,5.82609l1.62178,0.89257c0,0 1.97556,1.82285 0.1951,3.77526c-1.24869,1.36925 -2.5933,0.8817 -3.28514,0.46828c-1.13183,1.16127 -2.82883,0.46847 -2.82883,0.46847c-0.70099,-0.44259 -1.33557,-1.6086 -2.10301,-1.32774c-1.18243,0.43277 -1.51453,2.01343 -2.34686,2.95639c-1.12635,1.27603 -2.41925,2.39855 -3.52341,3.69408c-3.19404,3.74768 -7.55796,9.2923 -8.90487,14.18943c-0.37741,1.37219 1.51035,2.45156 2.28595,3.66453c0.32653,0.51064 0.20755,1.35382 0.72607,1.66512c0.54056,0.32453 1.24959,-0.19516 1.86977,-0.10666c1.61501,0.23054 3.20351,0.62686 4.79702,0.99471c0.13969,-0.03056 0.27738,-0.06486 0.41199,-0.10482c0,0 1.5468,-0.36814 2.54887,0.67472l0.8218,0.06811c0,0 2.65255,0.24019 2.45999,2.90046c-0.19253,2.66025 -2.84508,2.42008 -2.84508,2.42008l-1.64369,-0.15808c-0.50388,-0.08845 -1.00649,-0.18421 -1.50825,-0.28479c-3.90945,1.97851 -1.55408,9.81823 -0.68878,13.24654c0.08003,0.31706 0.95401,4.11722 1.32019,4.5357c1.51437,1.73064 3.97895,2.28486 5.93415,3.48594l1.0979,0.67446c0,0 2.2864,1.40452 0.92794,3.67653c-1.35846,2.27201 -3.64487,0.86748 -3.64487,0.86748z"/><path d="M202.93311,197.78973l0.70761,-0.59296c0,0 2.11046,-1.58787 3.72879,0.56001c1.61835,2.14789 -0.49211,3.73573 -0.49211,3.73573l-2.00617,1.21406c0.20466,2.73893 0.32927,8.51803 2.13765,10.42895c0.59484,0.62858 5.82477,2.89874 6.06571,2.96221c1.17165,0.30858 2.40566,0.23103 3.61083,0.3032c0.64112,0.0384 1.42592,0.42446 1.92506,0.02832c1.16276,-0.92282 1.54067,-2.58358 2.60243,-3.62148c1.23941,-1.21156 2.81008,-2.0286 4.2151,-3.04291c0,0 2.14929,-1.53502 3.71568,0.65095c1.56641,2.18596 -0.58288,3.72098 -0.58288,3.72098c-1.21496,0.85691 -2.5677,1.54571 -3.64487,2.57073c-1.39549,1.32794 -2.0759,3.41834 -3.7141,4.43206c-1.64465,1.01771 -7.81152,0.53331 -9.35711,0.13302c-1.78866,-0.46324 -7.52647,-3.19638 -8.85941,-4.71459c-2.83794,-3.23241 -3.26559,-9.50556 -2.99757,-14.15127l-1.92887,-0.17618c-6.20501,-1.08703 -12.26913,-1.21243 -17.22566,-5.91705c-0.76099,-0.72231 -1.05549,-1.8252 -1.723,-2.63522c-0.854,-1.03635 -2.30709,-1.63722 -2.81915,-2.87674c-0.57567,-1.39351 -0.03994,-3.00529 -0.22672,-4.4961c-0.1427,-1.13891 -0.31801,-2.27788 -0.45829,-3.41855c-2.50384,-0.6361 -4.83056,-1.724 -7.00133,-3.78159c-0.75112,-0.71193 -1.00635,-1.82919 -1.69501,-2.60213c-0.96439,-1.08245 -2.49637,-1.66344 -3.22274,-2.91763c-3.03679,-5.24346 2.44886,-10.90851 5.06263,-15.06915c1.11868,-1.78073 1.80184,-3.95906 3.41083,-5.30653c0.17929,-0.15014 0.37263,-0.27411 0.57685,-0.3779c-0.13578,-1.49812 0.77322,-3.0014 1.31917,-4.42104c1.39966,-3.63948 5.39201,-9.57755 8.87496,-11.06839c1.38567,-0.59312 3.01928,0.33225 4.52886,0.49934c2.73921,0.30321 5.36225,1.57468 7.74669,2.99443c0,0 2.28638,1.40453 0.92792,3.67654c-1.35846,2.27201 -3.64486,0.86748 -3.64486,0.86748c-1.70752,-1.09218 -3.65243,-1.88422 -5.63496,-2.24248c-0.77527,-0.1401 -1.55356,-1.01176 -2.26532,-0.6909c-1.39776,0.63012 -3.48609,4.60626 -4.20694,5.81486c-0.49808,0.83512 -0.98316,1.67869 -1.50809,2.49678c-0.26775,0.4173 -0.9949,0.73675 -0.9321,1.19801c0.45296,0.10262 0.94057,0.33014 1.3253,0.79958c0.11559,0.04655 0.22322,0.10159 0.31489,0.1725c0.86725,0.6706 1.61241,1.48777 2.41861,2.23163l1.77381,1.02932c0,0 2.2864,1.40452 0.92794,3.67653c-1.35846,2.27201 -3.64487,0.86748 -3.64487,0.86748l-2.61784,-1.66846c-0.37134,-0.34263 -1.16735,-1.05955 -2.04758,-1.88285c-0.39688,0.02274 -0.76508,0.10434 -1.04746,0.36176c-1.78251,1.62507 -2.30564,4.25411 -3.54619,6.32892c-1.24057,2.07482 -3.02654,3.85254 -3.89428,6.1151c-0.50524,1.31741 2.03884,2.00638 3.00264,3.06256c0.59987,0.65734 0.75702,1.65442 1.39198,2.27765c1.19297,1.17089 2.48774,1.8527 3.85874,2.27547c0.39225,-0.38032 0.97689,-0.65924 1.84827,-0.64763c1.3231,0.01764 1.99079,0.68755 2.32774,1.35635c0.4934,0.04521 0.99243,0.08647 1.49617,0.13209l0.90153,-0.35599c0,0 2.57732,-0.61339 3.23344,1.98631c0.65615,2.5997 -1.92115,3.21309 -1.92115,3.21309l-2.59891,0.4771c-0.11655,-0.01055 -0.23278,-0.02122 -0.34868,-0.03206c0.09693,0.66249 0.18798,1.32544 0.2439,1.99013c0.08374,0.99528 -0.56637,2.0508 -0.19461,2.9822c0.31706,0.79438 1.45121,0.9444 2.01806,1.58652c0.57952,0.65647 0.73871,1.63184 1.36397,2.24457c3.85043,3.77322 9.26673,3.54511 14.13599,4.39813l2.73806,0.24562c0,0 0.83255,0.07539 1.53093,0.60945z"/></g><g data-paper-data="{&quot;index&quot;:null}" fill="#aa0000"><path d="M277.73826,196.3969c2.35732,0.95205 6.40182,2.24439 8.08332,4.38672c1.2894,1.64276 2.12593,3.66323 2.61371,5.68704c0.98789,4.09878 -0.25091,5.03852 -1.01251,8.55157c-1.06744,4.92376 -1.54945,10.59179 -5.52793,14.28576c-2.47463,2.29768 -5.30825,3.4519 -8.35812,3.50203c0.16243,1.06195 0.08796,2.38242 0.14414,4.32983c0.03953,1.37054 0.39727,2.80892 -0.00558,4.11117c-2.46454,7.96656 -9.03207,9.59472 -15.94876,10.84427c2.3344,1.58249 4.64826,3.83626 5.21159,6.06821c1.35472,5.3675 -3.66282,11.95372 -8.4656,13.37403c-0.28435,0.08408 -6.25196,-0.47328 -7.53554,-0.58951c-1.70663,-0.27844 -4.28303,-0.51374 -6.26525,-1.34767c-0.05104,0.27719 -0.12468,0.55048 -0.2257,0.81905c-3.02412,8.03804 -16.21962,7.24358 -21.715,2.76126c-0.8903,-0.72615 -1.28796,-1.91501 -2.05965,-2.76739c-0.86247,-0.95269 -2.12169,-1.54726 -2.82193,-2.62478c-0.58234,-0.8961 -0.38983,-2.12611 -0.88163,-3.07432c-0.64887,-1.25108 -2.16927,-2.05281 -2.48764,-3.4219c-0.02135,-0.09175 -0.03836,-0.18359 -0.05143,-0.2755c-1.28826,0.56279 -2.60669,0.38215 -3.55389,0.09272c-0.46198,1.26501 -1.82234,3.22705 -2.41533,3.58206c-2.87504,1.72109 -10.06855,2.08658 -13.33373,0.74916c-2.02329,-0.82873 -4.49813,-1.49812 -5.64223,-3.37223c-0.09895,-0.16207 -1.13132,-9.15914 -1.31769,-11.08127c-0.11508,-1.18692 0.54008,-2.7165 -0.30776,-3.56355c-0.56611,-0.56555 -1.53337,-0.42927 -2.3129,-0.58102c-1.92653,-0.37502 -3.7561,-1.18684 -5.67563,-1.5995c-1.17288,-0.25212 -2.43555,0.14801 -3.58298,-0.20852c-1.70984,-0.53127 -5.88116,-3.56824 -7.27588,-4.52803c-1.791,-3.43351 -7.15308,-10.4119 -5.4147,-14.69523c-0.34005,-0.14458 -0.6533,-0.42526 -0.97388,-0.61503c-2.25425,-1.33423 -5.68807,-1.11213 -7.11223,-3.31781c-3.5018,-5.42333 -1.2189,-13.20678 2.63011,-17.23695c1.73791,-1.81972 3.71575,-1.83159 4.71423,-4.33243c0.61934,-1.5513 1.17762,-3.14611 1.47842,-4.79491c0.29862,-1.63692 -0.45827,-3.6643 0.55898,-4.96666c4.12649,-5.28292 10.73714,-3.71285 16.2832,-2.5876c0.05593,-0.80473 0.29537,-1.60565 0.73423,-2.33963l0.72529,-1.21302c-0.2234,-0.89888 -0.36959,-1.81134 -0.45786,-2.73209l-0.39269,0.18195l-1.20734,-2.55258c-0.77695,-1.58354 -0.7693,-3.50478 0.18872,-5.10707c0.26131,-0.43702 0.57607,-0.82149 0.93109,-1.15025c-2.42811,-0.19617 -5.03613,-0.6387 -5.67437,-1.14603c-3.87725,-3.082 -5.4054,-8.7165 -3.3351,-13.214c0.99287,-2.15693 4.08128,-2.43133 5.90434,-3.9389c1.13518,-0.93871 1.31404,-2.65115 2.07377,-3.91704c2.71713,-4.52736 5.35277,-8.24641 10.95308,-8.78011c1.25461,-2.19505 2.33319,-4.3758 4.42457,-5.99044c0.96969,-0.74865 2.34352,-0.81197 3.36381,-1.49032c1.02541,-0.68173 1.60316,-1.95086 2.68849,-2.53355c0.63792,-0.34248 1.32825,-0.61709 2.0526,-0.83823c0.64954,-0.94535 1.34971,-1.84634 2.10848,-2.69325c1.36559,-1.52428 2.73545,-3.28426 4.65632,-3.99689c3.17606,-1.17832 7.50404,0.4029 10.20175,2.07721c2.28993,1.42124 4.21898,3.43498 5.79967,5.76972c4.72571,2.03772 8.47129,5.70426 9.80639,11.83357c0.1786,0.8199 0.2533,3.10649 0.207,5.18926c0.73756,-0.05915 1.5272,0.01988 2.19927,-0.25565c1.4704,-0.60285 2.47546,-2.37619 4.06861,-2.47539c7.72918,-0.48134 15.61788,9.65079 15.95805,16.72167c0.15166,3.1524 -0.46447,5.45178 -1.63264,7.60113c-0.2436,0.74407 -0.51347,1.48229 -0.78998,2.21212c6.26108,-1.11634 13.77027,3.35371 16.9263,8.90012c3.8038,1.93064 6.41169,5.41386 5.71569,10.85791c-0.18138,1.41876 -1.38397,2.44191 -2.29282,3.58129c1.50639,-0.21272 3.13129,0.01035 4.65886,-0.1245zM232.16348,234.21654c-0.21019,-0.01301 -0.4206,-0.03863 -0.63007,-0.0771c0.19616,0.13598 0.36259,0.20195 0.49048,0.14826c0.04159,-0.01744 0.08827,-0.04135 0.13957,-0.07112z"/><path d="M187.09891,203.43338l-1.09792,-0.67444c-0.2603,-0.15991 -6.86733,-4.15976 -7.24075,-4.60744c-1.2918,-1.54864 -1.95112,-4.7499 -2.45125,-6.73142c-1.28734,-5.10055 -2.71025,-11.05699 -0.23265,-15.75669c-1.19976,-0.16783 -2.52681,0.06021 -3.5533,-0.57634c-1.12741,-0.69916 -1.57445,-2.14274 -2.36092,-3.21468c-1.56772,-2.13677 -3.67783,-4.15155 -3.23568,-7.18599c0.29741,-2.04103 1.45456,-3.84926 2.3447,-5.69834c2.72694,-5.66463 7.04636,-11.15408 11.55882,-15.4361c1.62652,-1.54345 2.89949,-3.82892 5.06754,-4.42269c0.93129,-0.25506 1.86047,0.08649 2.78925,0.5389c1.05464,-3.82779 2.46424,-7.54514 5.94631,-9.97461c1.95393,-1.36328 4.61646,-1.27508 6.81957,-2.18976c3.91627,-1.62595 8.57706,-4.19504 13.09591,-3.4196c2.63287,0.45178 5.14446,2.13829 7.37365,3.53332c1.27173,0.79582 2.76487,1.32526 3.79548,2.41951c4.70713,4.998 5.34691,13.10915 10.39854,17.54811c0,0 0.80613,0.74383 0.92442,1.79007c3.23472,-1.1462 6.68016,-1.87832 9.93548,-1.03329c1.26509,0.32839 2.27673,1.30657 3.40438,1.97859c0.80569,0.48018 6.30871,3.87608 6.52745,4.09291c3.69057,3.65826 3.45208,11.25999 1.33479,15.57217c1.68819,0.86358 3.26639,2.08213 4.82789,3.04767c2.54257,1.57219 4.65565,3.76775 6.8808,5.77144c4.6754,4.21008 10.24068,6.97151 9.47913,14.32149c-0.05353,0.51672 -0.19627,1.01256 -0.37407,1.50014c2.00851,0.46803 4.05961,1.51792 6.23913,3.26281c1.15807,0.92713 2.54596,1.77759 3.178,3.1198c1.38076,2.93227 1.01017,7.98371 1.37499,11.11801c0.22219,1.90901 1.0535,3.77076 0.98333,5.68632c-0.17721,4.83891 -3.36569,8.9601 -5.79658,12.84178c-1.07913,1.72315 -1.66579,3.9283 -3.30321,5.12651c-1.09645,0.80236 -2.22916,1.2322 -3.38276,1.4279c-0.22354,3.37405 -2.09869,6.87073 -3.64787,9.47331c-0.44158,0.74186 -3.45797,5.8561 -3.84015,6.12785c-1.5438,1.09771 -3.44757,1.77033 -5.34104,1.96821c-0.43744,0.04571 -0.87024,-0.00131 -1.30119,-0.09522c0.516,0.57021 0.97885,1.16912 1.24555,1.87878c0.46839,1.24635 0.03438,2.65398 -0.08531,3.97081c-0.46599,5.12702 -2.80593,13.02344 -8.61621,14.61965c-1.1839,0.32524 -2.4657,-0.10645 -3.69683,-0.19732c-1.56217,-0.11533 -6.78127,-0.50421 -8.37835,-1.14561c-1.23089,-0.49432 -2.49189,-1.19662 -3.74863,-1.98008c-1.25173,2.1188 -2.82736,4.55415 -4.42068,5.6198c-6.77891,4.5339 -15.78275,0.57922 -21.85083,-3.37859c-1.57898,-1.02987 -3.66786,-1.57921 -4.6842,-3.17081c-1.11494,-1.74595 -0.86082,-4.03943 -1.218,-6.07181c-0.78449,-4.46373 -1.41032,-6.77203 -0.02974,-11.07001l1.20049,-2.10933c0,0 1.35848,-2.27201 3.64487,-0.86748c2.28638,1.40453 0.92794,3.67656 0.92794,3.67656l-0.75646,1.16364c-1.29857,3.19885 -0.15143,4.88685 0.27331,8.50854c0.15004,1.2794 -0.32632,2.74751 0.35759,3.84639c0.59673,0.9588 2.01951,0.99765 3.00114,1.5503c4.18541,2.35645 11.21064,6.91754 16.06615,3.50497c0.78929,-0.55473 2.0492,-2.52546 3.02251,-4.16727c-0.53503,-0.3555 -1.06089,-0.69668 -1.57455,-1.01223l-1.64686,-1.01168c0,0 -2.28638,-1.40455 -0.92792,-3.67656c1.35846,-2.27201 3.64486,-0.86748 3.64486,-0.86748l1.64685,1.01168c1.10094,0.6763 2.21322,1.39575 3.34375,2.10392c0.16097,0.06649 0.32735,0.15125 0.49893,0.25663c0.18001,0.11059 0.33745,0.22654 0.47472,0.34636c4.13195,2.52403 8.52879,4.69682 13.51766,3.93805c1.24474,-0.18932 2.02538,-2.40391 2.40311,-3.03989c1.24936,-2.10337 1.89434,-4.5784 2.2339,-7.01683c0.08157,-0.58576 0.58146,-1.20206 0.32818,-1.74208c-0.45981,-0.98027 -1.57458,-1.49908 -2.24713,-2.3489c-0.89391,-1.12957 -1.66959,-2.05844 -2.49599,-2.89281c-1.63494,-0.44673 -3.20148,-1.12668 -5.18954,-2.33785l-2.1958,-1.34891c0,0 -2.2864,-1.40453 -0.92794,-3.67654c1.35846,-2.27201 3.64486,-0.86748 3.64486,-0.86748l0.73447,0.45117c1.26059,-0.71734 2.66263,0.14394 2.66263,0.14394c1.49288,0.92246 2.75729,1.82708 3.90306,2.82084c0.90868,0.14464 1.94581,0.24182 3.35495,0.43026c2.26014,0.30225 3.73012,1.86501 5.78604,0.12736c1.39234,-1.17677 1.74206,-3.21593 2.68306,-4.7821c0.56348,-0.93783 2.80032,-4.45639 3.08496,-6.87374c-0.87588,-0.14319 -1.75089,-0.30419 -2.61876,-0.4266c0,0 -2.63665,-0.39598 -2.28867,-3.03756c0.06368,-0.4833 0.20394,-0.86493 0.39067,-1.1659c-0.05242,-0.38581 -0.0135,-0.83183 0.16712,-1.3435c0.88368,-2.50335 3.3921,-1.57166 3.3921,-1.57166c1.33927,0.57963 3.00851,0.67679 4.01782,1.73894c0.24423,0.25701 0.46412,0.52041 0.6612,0.78952c0.66643,-0.05807 1.23916,-0.21782 1.61201,-0.5358c1.03154,-0.8798 1.24828,-2.41712 1.9154,-3.60145c1.73021,-3.07157 5.04032,-6.54129 5.0541,-10.32705c0.006,-1.64291 -0.74922,-3.2185 -0.94965,-4.85269c-0.07591,-0.61885 -0.29237,-8.01273 -0.76647,-9.18862c-0.24612,-0.61045 -3.8178,-2.67796 -4.01981,-2.78623c-4.01026,-2.14945 -5.86573,-0.91881 -9.51779,1.3941l-0.1296,0.76871c0,0 -1.35848,2.27199 -3.64487,0.86748c-2.28638,-1.40453 -0.92792,-3.67654 -0.92792,-3.67654l1.82737,-2.50428c2.03344,-1.26596 3.95896,-2.20828 5.84815,-2.7326c0.31731,-0.79348 0.79029,-1.54388 0.91096,-2.39178c0.67931,-4.77348 -4.87911,-7.11234 -7.70602,-9.66085c-3.23572,-2.91707 -5.23569,-4.59454 -8.8321,-6.86449c-0.90269,-0.56977 -2.31651,-1.98362 -3.6777,-1.59468c-2.7316,0.78051 -4.04007,3.38896 -5.3586,5.61678l-0.97847,1.6365c0,0 -1.35848,2.27201 -3.64487,0.86748c-2.2864,-1.40452 -0.92794,-3.67656 -0.92794,-3.67656l0.97849,-1.63648c1.7471,-2.89698 3.58309,-5.81328 6.63452,-7.29794c0.31866,-0.72506 0.899,-1.1617 0.899,-1.1617c0.69417,-0.44853 1.71118,-0.60432 2.0825,-1.34556c0.87393,-1.74447 1.50428,-7.56317 -0.40276,-9.10849c-1.62317,-1.31525 -5.61646,-4.14773 -7.6347,-4.71963c-1.53598,-0.43523 -3.54663,0.25997 -4.99361,0.61042c-3.95226,0.95717 -8.55116,1.87721 -11.13894,4.9954l-0.34152,0.67269c0,0 -1.35846,2.27199 -3.64486,0.86748c-2.28638,-1.40453 -0.92794,-3.67653 -0.92794,-3.67653l0.96314,-1.5093c0.92682,-0.95928 1.65713,-2.15904 2.78047,-2.87783c0.8519,-0.54512 2.00918,-0.38346 2.9397,-0.78231c0.36822,-0.15782 0.74448,-0.3213 1.1279,-0.4878c-4.92947,-4.89708 -5.62786,-12.44833 -10.34554,-17.49442c-0.7374,-0.78872 -1.86807,-1.07299 -2.79196,-1.62714c-1.37226,-0.82314 -3.72626,-2.49961 -5.35566,-2.79463c-3.40238,-0.61601 -7.4236,1.89565 -10.30944,3.08655c-1.95447,0.80653 -4.34405,0.62095 -6.08438,1.81707c-1.77357,1.219 -2.81119,4.09028 -4.05267,5.82609l1.62177,0.89256c0,0 1.97556,1.82285 0.1951,3.77526c-1.24869,1.36925 -2.59329,0.8817 -3.28514,0.46828c-1.13183,1.16129 -2.82883,0.46847 -2.82883,0.46847c-0.70099,-0.44259 -1.33556,-1.6086 -2.10301,-1.32772c-1.18243,0.43277 -1.51453,2.01343 -2.34687,2.95639c-1.12635,1.27603 -2.41923,2.39854 -3.5234,3.69407c-3.19404,3.74768 -7.55796,9.2923 -8.90487,14.18945c-0.37741,1.37219 1.51035,2.45156 2.28595,3.66451c0.32653,0.51064 0.20754,1.35382 0.72605,1.66512c0.54056,0.32453 1.24959,-0.19516 1.86978,-0.10666c1.61501,0.23054 3.20351,0.62688 4.79701,0.99471c0.13969,-0.03057 0.2774,-0.06486 0.412,-0.10482c0,0 1.5468,-0.36814 2.54887,0.67472l0.8218,0.06811c0,0 2.65255,0.2402 2.45999,2.90046c-0.19253,2.66027 -2.84508,2.42008 -2.84508,2.42008l-1.64369,-0.15808c-0.50388,-0.08845 -1.00648,-0.18421 -1.50825,-0.28479c-3.90945,1.97851 -1.55408,9.81823 -0.68878,13.24654c0.08003,0.31706 0.95401,4.11722 1.32019,4.53568c1.51437,1.73064 3.97894,2.28486 5.93415,3.48594l1.0979,0.67446c0,0 2.2864,1.40452 0.92794,3.67653c-1.35846,2.27201 -3.64487,0.86748 -3.64487,0.86748z"/><path d="M186.873,244.81359l0.70761,-0.59296c0,0 2.11046,-1.58787 3.72881,0.56001c1.61835,2.14789 -0.49211,3.73573 -0.49211,3.73573l-2.00619,1.21406c0.20466,2.73893 0.32929,8.51803 2.13767,10.42895c0.59484,0.62858 5.82477,2.89876 6.06571,2.96223c1.17165,0.30858 2.40565,0.23102 3.61083,0.3032c0.64112,0.0384 1.42592,0.42446 1.92508,0.02832c1.16276,-0.92282 1.54067,-2.58358 2.60243,-3.62148c1.23941,-1.21156 2.81008,-2.0286 4.2151,-3.04289c0,0 2.14927,-1.53502 3.71568,0.65095c1.56641,2.18596 -0.58288,3.72098 -0.58288,3.72098c-1.21496,0.85691 -2.5677,1.54571 -3.64487,2.57074c-1.39549,1.32794 -2.0759,3.41832 -3.7141,4.43206c-1.64465,1.01771 -7.81152,0.53331 -9.35711,0.13302c-1.78866,-0.46324 -7.52647,-3.19638 -8.85941,-4.71459c-2.83794,-3.23241 -3.26559,-9.50556 -2.99757,-14.15127l-1.92889,-0.17618c-6.20501,-1.08703 -12.26911,-1.21245 -17.22566,-5.91706c-0.76099,-0.72231 -1.05549,-1.8252 -1.723,-2.63522c-0.854,-1.03635 -2.30709,-1.63722 -2.81915,-2.87674c-0.57567,-1.39351 -0.03992,-3.00529 -0.22672,-4.49608c-0.1427,-1.13891 -0.31801,-2.27788 -0.45829,-3.41857c-2.50384,-0.6361 -4.83056,-1.724 -7.00133,-3.78159c-0.75112,-0.71193 -1.00633,-1.82919 -1.69499,-2.60213c-0.96439,-1.08245 -2.49637,-1.66344 -3.22274,-2.91763c-3.03679,-5.24346 2.44886,-10.90851 5.06263,-15.06915c1.11868,-1.78073 1.80185,-3.95906 3.41085,-5.30653c0.17929,-0.15014 0.37263,-0.27411 0.57685,-0.3779c-0.13578,-1.49812 0.77324,-3.00138 1.31919,-4.42104c1.39966,-3.63948 5.39201,-9.57753 8.87496,-11.06839c1.38567,-0.59312 3.01928,0.33225 4.52886,0.49934c2.73921,0.30321 5.36223,1.57468 7.74668,2.99445c0,0 2.28638,1.40453 0.92792,3.67654c-1.35846,2.27201 -3.64487,0.86748 -3.64487,0.86748c-1.70752,-1.09218 -3.65243,-1.88422 -5.63496,-2.24247c-0.77527,-0.1401 -1.55356,-1.01177 -2.26532,-0.6909c-1.39776,0.63012 -3.48609,4.60626 -4.20694,5.81486c-0.49808,0.83512 -0.98316,1.67871 -1.50809,2.49678c-0.26775,0.4173 -0.9949,0.73675 -0.93209,1.19801c0.45296,0.10262 0.94057,0.33014 1.32529,0.79958c0.11559,0.04655 0.22322,0.10159 0.3149,0.1725c0.86725,0.6706 1.61241,1.48777 2.41861,2.23163l1.77381,1.02932c0,0 2.2864,1.40452 0.92794,3.67653c-1.35846,2.27201 -3.64487,0.86748 -3.64487,0.86748l-2.61784,-1.66846c-0.37134,-0.34263 -1.16735,-1.05955 -2.04758,-1.88285c-0.39688,0.02274 -0.76508,0.10434 -1.04746,0.36176c-1.78251,1.62507 -2.30564,4.25413 -3.54619,6.32893c-1.24057,2.07482 -3.02654,3.85254 -3.89428,6.1151c-0.50524,1.31741 2.03885,2.00638 3.00266,3.06255c0.59987,0.65734 0.75702,1.65442 1.39198,2.27765c1.19297,1.17089 2.48774,1.8527 3.85874,2.27547c0.39225,-0.38032 0.97689,-0.65924 1.84827,-0.64763c1.3231,0.01764 1.99079,0.68754 2.32774,1.35635c0.4934,0.04521 0.99242,0.08647 1.49615,0.13209l0.90155,-0.35599c0,0 2.57732,-0.61339 3.23344,1.98631c0.65615,2.5997 -1.92115,3.21309 -1.92115,3.21309l-2.59891,0.4771c-0.11655,-0.01055 -0.23278,-0.02122 -0.34868,-0.03206c0.09693,0.66249 0.18798,1.32544 0.2439,1.99013c0.08374,0.99528 -0.56637,2.0508 -0.19461,2.9822c0.31706,0.79438 1.45121,0.9444 2.01806,1.58652c0.57952,0.65647 0.73871,1.63184 1.36397,2.24457c3.85043,3.77322 9.26673,3.54511 14.13599,4.39813l2.73806,0.24562c0,0 0.83255,0.07539 1.53093,0.60945z"/></g><g data-paper-data="{&quot;index&quot;:null}" fill="#de0000"><path d="M183.45968,237.16513c-3.26152,0.4869 -8.63876,1.70817 -11.90286,0.40008c-2.50298,-1.00304 -4.73856,-2.73388 -6.58403,-4.69986c-3.73762,-3.98167 -2.94645,-5.86674 -4.34098,-10.34647c-1.95449,-6.27863 -5.04439,-13.01091 -2.93661,-19.82959c1.31106,-4.24125 3.7586,-7.42705 7.15689,-9.50725c-0.86319,-1.09365 -1.62558,-2.63697 -2.93664,-4.80286c-0.9227,-1.52432 -2.24678,-2.91429 -2.62813,-4.65483c-2.33293,-10.64798 4.01075,-16.84727 10.9897,-22.84987c-3.63974,-0.24154 -7.68646,-1.2562 -9.75031,-3.40755c-4.96318,-5.17364 -3.54004,-15.95383 0.95185,-20.74714c0.26595,-0.28381 7.3353,-3.6125 8.85351,-4.33261c2.09799,-0.81725 5.14664,-2.2604 7.91056,-2.63205c-0.12022,-0.34745 -0.21256,-0.7055 -0.27099,-1.07639c-1.74929,-11.10011 13.60171,-18.956 22.65497,-17.53096c1.46671,0.23087 2.67579,1.31198 4.08997,1.76436c1.58057,0.5056 3.37791,0.34281 4.85596,1.09728c1.22922,0.62745 1.80087,2.14669 2.96164,2.89317c1.53153,0.98488 3.75538,0.8832 4.99078,2.22088c0.08278,0.08964 0.16075,0.18228 0.23438,0.27756c1.08834,-1.49141 2.68707,-2.16178 3.93792,-2.46276c-0.29098,-1.73765 -0.0182,-4.85995 0.42132,-5.655c2.13087,-3.85459 9.98772,-9.04067 14.51732,-9.69392c2.80678,-0.40481 6.01936,-1.28943 8.50713,0.07174c0.21514,0.11771 7.14159,9.61147 8.58289,11.66242c0.89001,1.26645 1.13323,3.43163 2.6297,3.8274c0.99914,0.26425 1.99978,-0.53168 2.9738,-0.87717c2.40722,-0.85391 4.98527,-1.1493 7.40874,-1.95598c1.48077,-0.4929 2.64459,-1.78335 4.16364,-2.14126c2.26359,-0.53335 8.90147,0.135 11.08523,0.29548c4.21466,2.69621 14.71746,7.03362 15.50692,13.03284c0.47511,-0.06205 1.00731,0.04769 1.48948,0.04967c3.3905,0.01385 7.11044,-2.5156 10.12567,-0.96511c7.41397,3.81232 9.83379,14.13264 8.08707,21.24579c-0.78869,3.21176 -3.0057,4.5374 -2.52622,8.02913c0.29741,2.16593 0.69143,4.34062 1.40967,6.40555c0.71306,2.05005 2.86353,3.84151 2.55389,5.98985c-1.25607,8.71454 -9.69762,11.32416 -16.65672,13.73067c0.45274,0.94752 0.69668,2.01248 0.67338,3.13404l-0.03847,1.85353c0.82727,0.86875 1.5764,1.80403 2.2657,2.78716l0.32509,-0.46641l2.99367,2.08682c1.88863,1.27604 3.11114,3.45468 3.06031,5.90302c-0.01388,0.66779 -0.12154,1.31155 -0.31016,1.91906c2.85679,-1.38903 6.07379,-2.61866 7.11676,-2.46813c6.33595,0.91438 11.66533,6.27506 12.21869,12.73682c0.26541,3.09895 -3.03246,5.4584 -4.11697,8.37349c-0.67529,1.81514 0.22085,3.87116 0.17749,5.80736c-0.15504,6.9247 -0.73637,12.8808 -6.69342,17.2002c-0.00455,3.31571 0.17969,6.49847 -1.13797,9.71274c-0.61096,1.49035 -2.11563,2.47343 -2.82852,3.91781c-0.71649,1.45157 -0.5531,3.27072 -1.40045,4.65003c-0.49806,0.81069 -1.09852,1.57936 -1.77157,2.31014c-0.12481,1.50045 -0.33501,2.98433 -0.64575,4.44589c-0.55923,2.63048 -0.97221,5.53045 -2.67611,7.61111c-2.81729,3.44028 -8.69848,4.5228 -12.8057,4.41841c-3.48637,-0.08863 -6.94651,-1.087 -10.2205,-2.67965c-6.62109,0.82995 -13.18349,-0.83308 -18.61281,-6.8816c-0.72627,-0.80911 -2.27551,-3.34643 -3.55806,-5.73349c-0.7917,0.55628 -1.7305,0.99077 -2.30986,1.74834c-1.26759,1.65759 -1.26167,4.33064 -2.99002,5.49988c-8.38512,5.67256 -23.75073,-0.55648 -28.66427,-8.33035c-2.19061,-3.46582 -2.97104,-6.47595 -3.03442,-9.68263c-0.2028,-1.00342 -0.37231,-2.01765 -0.52898,-3.02679c-6.32692,5.41694 -17.63743,5.34185 -24.74135,1.16086c-5.51554,0.33946 -10.68083,-1.87104 -13.38652,-8.49184c-0.70511,-1.72542 -0.00811,-3.68084 0.28402,-5.57286c-1.55804,1.24008 -3.5286,2.0658 -5.16035,3.23181zM210.48618,164.14128c0.24476,-0.12473 0.49784,-0.23533 0.7581,-0.33078c-0.30777,-0.02367 -0.53724,0.0121 -0.6467,0.15771c-0.03559,0.04735 -0.0728,0.10532 -0.11142,0.17307z"/><path d="M280.89915,169.0689l1.66707,0.03461c0.39524,0.00819 10.38972,0.14991 11.09659,0.40862c2.44534,0.89494 5.23827,4.07926 7.07052,5.9892c4.71637,4.91636 10.13365,10.71108 10.35847,17.67179c1.457,-0.60612 2.80351,-1.74457 4.36597,-1.70542c1.71612,0.043 3.14396,1.37957 4.71541,2.07049c3.13257,1.3773 6.79705,2.25674 8.24417,5.98306c0.97339,2.50642 0.83054,5.31986 1.01421,8.00238c0.56268,8.21781 -0.77806,17.29401 -3.10968,25.13224c-0.84043,2.8253 -0.80774,6.25548 -2.86578,8.36568c-0.88405,0.90642 -2.14802,1.1365 -3.48261,1.24089c1.26658,5.03026 2.06316,10.17106 -0.29653,15.2298c-1.32414,2.83872 -4.37541,4.50537 -6.26726,7.00185c-3.363,4.43776 -6.95907,10.43651 -12.53863,12.55733c-3.25086,1.23566 -7.15655,0.99399 -10.5578,0.89476c-1.94036,-0.05662 -3.95906,0.33508 -5.81944,-0.21915c-8.49714,-2.53142 -14.41433,-11.28343 -22.94072,-12.95385c0,0 -1.38333,-0.30666 -2.1868,-1.41184c-2.90383,3.44285 -6.31005,6.55702 -10.51301,7.76079c-1.63336,0.4678 -3.39803,0.03237 -5.097,0.02021c-1.21392,-0.00868 -9.57964,-0.19961 -9.96462,-0.29978c-6.49522,-1.6902 -11.09813,-10.44856 -11.47988,-16.73181c-2.45219,0.14304 -5.00816,-0.18849 -7.38322,-0.24483c-3.86726,-0.09178 -7.6509,-1.17376 -11.43764,-1.9643c-7.95654,-1.66107 -15.98571,-1.09288 -19.83897,-9.91343c-0.27091,-0.6201 -0.42809,-1.27575 -0.54054,-1.94535c-2.55902,0.80306 -5.53877,0.9761 -9.10837,0.44807c-1.89668,-0.28057 -4.00268,-0.32192 -5.57366,-1.42108c-3.43204,-2.40128 -6.25216,-8.36206 -8.67092,-11.66599c-1.4732,-2.01232 -3.60122,-3.56705 -4.74979,-5.78074c-2.90142,-5.59199 -1.95596,-12.36987 -1.70912,-18.37421c0.10957,-2.66541 -0.64362,-5.54943 0.4303,-7.99138c0.71911,-1.63516 1.71772,-2.87299 2.88985,-3.85972c-1.91064,-3.96552 -2.04217,-9.16553 -1.96744,-13.13772c0.0213,-1.13228 0.13686,-8.91944 0.39261,-9.48047c1.03304,-2.26612 2.74329,-4.29015 4.74623,-5.77028c0.46272,-0.34194 0.97966,-0.57589 1.52457,-0.75555c-0.94577,-0.30276 -1.85018,-0.67323 -2.6049,-1.29915c-1.32548,-1.09928 -1.73932,-2.97974 -2.44852,-4.54894c-2.76124,-6.10956 -5.18934,-16.59551 0.32303,-22.25628c1.12318,-1.15342 2.84155,-1.51546 4.28454,-2.22944c1.83099,-0.90596 7.95047,-3.92866 10.1578,-4.2626c1.70121,-0.25739 3.56957,-0.29949 5.48518,-0.24692c0.05021,-3.22757 0.26183,-7.02814 1.3711,-9.29082c4.71943,-9.62691 17.38083,-11.1265 26.74214,-10.6748c2.43591,0.11755 5.13743,-0.64684 7.3005,0.47948c2.37285,1.23555 3.55667,3.99885 5.26075,6.06118c3.74271,4.52952 5.92576,6.72576 7.12706,12.50417l0.00137,3.18288c0,0 -0.07208,3.4717 -3.54379,3.39963c-3.4717,-0.07208 -3.39963,-3.54379 -3.39963,-3.54379l0.10517,-1.81837c-0.58921,-4.48052 -2.96115,-5.62914 -5.75963,-9.44469c-0.98859,-1.34788 -1.39358,-3.32487 -2.86698,-4.11431c-1.28559,-0.68883 -2.91077,0.21118 -4.36903,0.23721c-6.21764,0.11093 -17.04209,-0.38825 -20.3167,6.69393c-0.53228,1.15127 -0.68655,4.21671 -0.72924,6.71991c0.82958,0.04725 1.63968,0.08431 2.41963,0.10053l2.5006,0.05193c0,0 3.47169,0.07207 3.39962,3.54377c-0.07208,3.4717 -3.54375,3.39962 -3.54375,3.39962l-2.5006,-0.05193c-1.67166,-0.03471 -3.38376,-0.11068 -5.10915,-0.16184c-0.22366,0.03155 -0.46509,0.0461 -0.72561,0.04069c-0.27333,-0.00569 -0.52471,-0.03242 -0.75588,-0.07691c-6.26491,-0.11415 -12.60262,0.34481 -17.72773,4.51317c-1.27873,1.04001 -0.73768,4.06338 -0.75503,5.03348c-0.0574,3.20853 0.80311,6.43653 1.98372,9.42051c0.28361,0.7168 0.11626,1.74573 0.74719,2.18859c1.14533,0.80396 2.73165,0.65132 4.03266,1.16654c1.72928,0.68481 3.19695,1.22109 4.66113,1.61673c2.12519,-0.57932 4.32293,-0.84939 7.33512,-0.79814l3.33417,0.06921c0,0 3.47169,0.07207 3.39962,3.54377c-0.07208,3.4717 -3.54375,3.39962 -3.54375,3.39962l-1.11523,-0.02317c-0.95821,1.64791 -3.08709,1.60372 -3.08709,1.60372c-2.27026,-0.05315 -4.27211,-0.23773 -6.19763,-0.60182c-1.11474,0.43924 -2.34349,1.01738 -4.04924,1.7391c-2.73582,1.15756 -5.3906,0.36482 -6.58957,3.69469c-0.81197,2.25509 0.10132,4.7941 0.0465,7.19029c-0.03281,1.43484 -0.29406,6.89957 0.9348,9.82325c1.07691,-0.41908 2.16425,-0.81753 3.21884,-1.25482c0,0 3.21937,-1.30132 4.52069,1.91806c0.23809,0.58903 0.32486,1.11384 0.30769,1.57821c0.30621,0.4017 0.54822,0.93212 0.67295,1.63084c0.61017,3.4184 -2.80823,4.02856 -2.80823,4.02856c-1.87781,0.2328 -3.81755,1.23035 -5.63342,0.69836c-0.43939,-0.12873 -0.85551,-0.28086 -1.24962,-0.45456c-0.71235,0.50784 -1.25422,1.06856 -1.46982,1.67569c-0.59645,1.67972 0.14487,3.56278 0.15339,5.34525c0.02214,4.6229 -1.47755,10.74445 0.93282,15.03655c1.04603,1.86264 2.90509,3.14411 4.1777,4.85995c0.48193,0.64977 5.46337,8.87111 6.75012,9.88693c0.66798,0.52733 6.01014,0.49674 6.30676,0.4852c5.88799,-0.22891 7.18635,-2.85216 9.812,-7.89187l-0.34682,-0.95563c0,0 0.07208,-3.4717 3.54379,-3.39963c3.4717,0.07208 3.39963,3.54379 3.39963,3.54379l-0.45067,4.04559c-1.47595,2.78132 -3.03786,5.12491 -4.82678,6.97151c0.15159,1.10822 0.1004,2.27098 0.508,3.3103c2.29477,5.85111 10.04545,4.80935 14.8581,5.81707c5.50867,1.15342 8.83313,1.72432 14.33283,1.90631c1.38045,0.04568 3.87664,0.70725 5.15842,-0.63587c2.57226,-2.69534 2.37251,-6.51451 2.42798,-9.9097l0.05193,-2.5006c0,0 0.07207,-3.47169 3.54377,-3.39962c3.4717,0.07208 3.39962,3.54375 3.39962,3.54375l-0.05193,2.5006c-0.10874,4.43657 -0.30501,8.95404 -2.7858,12.65818c0.10617,1.0317 -0.26677,1.91071 -0.26677,1.91071c-0.49336,0.96797 -1.53742,1.81899 -1.4801,2.90396c0.13488,2.5534 3.15449,9.55453 6.28971,10.03757c2.6685,0.41112 8.97505,0.96619 11.61158,0.27419c2.00653,-0.52666 3.82254,-2.64716 5.22549,-4.00364c3.83204,-3.70506 8.41517,-7.79711 9.32772,-13.04175l-0.04692,-0.98761c0,0 0.07207,-3.47169 3.54377,-3.39962c3.4717,0.07208 3.39962,3.54375 3.39962,3.54375l-0.11616,2.34653c-0.42775,1.70018 -0.48039,3.54204 -1.2833,5.10055c-0.6089,1.18189 -2.01415,1.76683 -2.80517,2.8354c-0.31304,0.42286 -0.63149,0.85744 -0.95606,1.30018c8.68254,2.26977 14.30687,10.34941 22.84666,12.92827c1.3348,0.40307 2.78874,-0.0255 4.18299,-0.01151c2.07093,0.0208 5.79292,0.35568 7.81466,-0.39161c4.22163,-1.56042 7.1351,-7.0699 9.61788,-10.33181c1.68151,-2.20918 4.48817,-3.58461 5.67915,-6.09249c1.21372,-2.55578 0.54092,-6.49259 0.825,-9.28004l-2.39608,0.0662c0,0 -3.39014,-0.75153 -2.63861,-4.14166c0.52707,-2.37754 2.35189,-2.71805 3.39497,-2.70934c0.52893,-2.06473 2.88158,-2.40679 2.88158,-2.40679c1.07207,0.03561 2.53301,0.93379 3.2162,0.10684c1.05263,-1.2741 0.41329,-3.2827 0.74523,-4.90172c0.4492,-2.19088 1.18414,-4.31864 1.59588,-6.51688c1.19108,-6.35898 2.54651,-15.52713 0.92342,-21.96107c-0.4548,-1.8028 -3.26971,-1.77151 -4.91938,-2.62919c-0.69447,-0.36106 -1.10098,-1.39391 -1.88366,-1.4021c-0.81598,-0.0085 -1.28043,1.04985 -2.03472,1.36116c-1.96423,0.81069 -4.0049,1.41624 -6.03293,2.05731c-0.13756,0.12728 -0.27042,0.25742 -0.39621,0.39192c0,0 -1.5039,1.44274 -3.29925,0.92772l-0.96796,0.46816c0,0 -3.13741,1.48811 -4.62552,-1.64928c-1.48811,-3.13741 1.64928,-4.62554 1.64928,-4.62554l1.95008,-0.91167c0.62341,-0.23424 1.2501,-0.45937 1.87891,-0.67846c3.12943,-4.83211 -4.54349,-12.13879 -7.7136,-15.44331c-0.29318,-0.3056 -3.71135,-4.02503 -4.39133,-4.25552c-2.81229,-0.95323 -5.93951,0.05492 -8.90831,-0.00672l-1.66707,-0.03461c0,0 -3.4717,-0.07208 -3.39963,-3.54379c0.07208,-3.4717 3.54377,-3.39962 3.54377,-3.39962z"/><path d="M254.63704,122.10404l-0.41594,1.14031c0,0 -1.35629,3.19661 -4.55288,1.84036c-3.19663,-1.35627 -1.84036,-4.55288 -1.84036,-4.55288l1.47851,-2.70455c-1.98529,-2.96286 -5.82869,-9.41831 -9.0872,-10.3804c-1.07183,-0.31649 -8.40905,0.58503 -8.72072,0.6731c-1.51558,0.42825 -2.85385,1.33467 -4.25563,2.05262c-0.74574,0.38192 -1.87582,0.46582 -2.1834,1.24519c-0.71652,1.81546 -0.07738,3.94508 -0.60653,5.82371c-0.61768,2.19299 -1.86076,4.15938 -2.79113,6.23908c0,0 -1.43378,3.16259 -4.5964,1.72877c-3.1626,-1.43381 -1.72879,-4.59638 -1.72879,-4.59638c0.81745,-1.77553 1.89763,-3.45228 2.45234,-5.32662c0.71868,-2.42819 0.14446,-5.2446 1.33745,-7.4783c1.1977,-2.24253 8.44443,-5.78599 10.43938,-6.35856c2.30866,-0.66262 10.51377,-1.37731 12.98586,-0.54405c5.2633,1.77411 9.76414,8.58745 12.43962,14.02108l2.28242,-1.08043c7.67577,-2.88695 14.57686,-6.76835 23.16651,-4.73432c1.31881,0.3123 2.35675,1.36461 3.62661,1.83818c1.62466,0.60587 3.64407,0.32159 5.01429,1.38416c1.54048,1.19459 1.97069,3.37351 3.13607,4.93619c0.89032,1.19382 1.81734,2.36605 2.70607,3.5635c3.22385,-0.94154 6.53799,-1.25445 10.29811,-0.36688c1.30103,0.30712 2.30402,1.40175 3.5739,1.81933c1.77836,0.58478 3.87378,0.22567 5.49445,1.16266c6.77563,3.91733 4.23572,13.96592 3.96195,20.40717c-0.11718,2.75683 0.51028,5.67447 -0.436,8.26644c-0.10544,0.28879 -0.24347,0.55733 -0.40666,0.81027c1.1127,1.60478 1.05358,3.90857 1.34919,5.87691c0.75787,5.04609 0.07244,14.41281 -2.88972,18.41026c-1.17849,1.59036 -3.6089,1.62731 -5.4139,2.43979c-3.27528,1.47431 -7.04032,1.77614 -10.63206,1.75189c0,0 -3.4717,-0.07208 -3.39963,-3.54379c0.07208,-3.4717 3.54379,-3.39963 3.54379,-3.39963c2.62041,0.10276 5.31552,-0.29154 7.77501,-1.20157c0.96176,-0.35586 2.39574,0.11392 2.99071,-0.72131c1.1684,-1.64024 0.96938,-7.52413 1.00571,-9.3697c0.02508,-1.27524 0.03013,-2.55147 0.09631,-3.82525c0.03376,-0.64977 0.64696,-1.4936 0.28072,-1.97375c-0.57527,0.1844 -1.2695,0.25049 -2.00301,-0.02531c-0.15983,0.02405 -0.31613,0.03314 -0.46471,0.01378c-1.40514,-0.18328 -2.76693,-0.61339 -4.15041,-0.92006l-2.6547,0.01233c0,0 -3.47169,-0.07207 -3.39962,-3.54375c0.07208,-3.4717 3.54379,-3.39963 3.54379,-3.39963l4.01361,0.15076c0.63723,0.14126 1.99196,0.42421 3.50958,0.77164c0.43185,-0.28906 0.79369,-0.62564 0.94633,-1.10421c0.96361,-3.02112 -0.13271,-6.34254 -0.06687,-9.51292c0.06582,-3.17037 0.93546,-6.3665 0.46165,-9.50197c-0.27589,-1.82564 -3.57892,-0.91719 -5.33979,-1.47263c-1.09594,-0.34569 -1.91161,-1.36946 -3.02517,-1.65327c-2.09213,-0.5332 -3.98535,-0.4455 -5.79833,-0.01421c-0.1975,0.69053 -0.67634,1.39396 -1.6639,1.95895c-1.49947,0.85786 -2.67974,0.54296 -3.4873,0.00987c-0.58395,0.27622 -1.17169,0.56063 -1.76747,0.84321l-0.78591,1.00087c0,0 -2.50582,2.40388 -4.90972,-0.10192c-2.40388,-2.50582 0.10194,-4.90969 0.10194,-4.90969l2.61745,-2.26405c0.13787,-0.0654 0.27542,-0.1304 0.41272,-0.19505c-0.53356,-0.68518 -1.06076,-1.37479 -1.5496,-2.0897c-0.73196,-1.07044 -0.67712,-2.69591 -1.69212,-3.50301c-0.86564,-0.68837 -2.23745,-0.10562 -3.28648,-0.45596c-1.07248,-0.3582 -1.87655,-1.35606 -2.97248,-1.63442c-6.74872,-1.7142 -12.69464,2.13739 -18.71805,4.40289l-3.23709,1.53873c0,0 -0.98473,0.46707 -2.11247,0.3262z"/></g><path d="M317.71551,241.25003l3.21134,3.47075c1.89331,5.78915 1.73253,12.57888 -2.50168,17.57821c-1.82657,2.15663 -3.90015,3.01175 -6.20466,3.78868c-1.20985,2.50517 -3.17547,4.69082 -5.38671,6.37589c-1.6913,1.28885 -4.92017,4.57108 -6.84024,5.23293c-10.69671,3.68717 -20.76236,-3.44871 -29.81494,-7.5027c-3.72451,-1.66794 -5.98689,-2.20027 -8.19914,-4.00557c-0.89242,1.55714 -1.94314,3.03438 -3.37495,4.02987c-5.42361,3.77088 -16.08798,3.09882 -22.201,1.78385c-1.70212,-0.36614 -3.50075,-0.61194 -5.00824,-1.48298c-6.31656,-3.64971 -8.56407,-10.98488 -8.56259,-17.52924c0,0 0.07208,-3.4717 3.54379,-3.39963c3.4717,0.07208 3.39963,3.54379 3.39963,3.54379c-0.07161,1.42633 -0.47321,2.87445 -0.21488,4.27901c0.15918,0.8654 0.90274,1.51278 1.4121,2.23025c1.2174,1.71483 2.14645,3.85437 3.96841,4.90472c2.51274,1.44859 7.3067,1.00015 9.99058,1.05924c2.59195,0.05708 7.2818,0.56462 9.70226,-1.08731c0.936,-0.63881 2.61368,-4.23088 2.94671,-4.87171l1.19559,-1.05687c0.23226,-0.29218 0.53825,-0.57628 0.9356,-0.8423c1.02008,-0.68296 1.92101,-0.76384 2.65949,-0.583c0.74889,0.1312 1.54134,0.56732 2.20095,1.60264c0.02789,0.04375 0.05467,0.08727 0.08042,0.13053c2.55333,4.0129 3.81798,2.92117 8.38214,4.9646c7.09133,3.17491 16.06118,10.13825 24.58881,7.30454c2.10348,-0.69896 3.28663,-2.98847 5.08125,-4.28939c0.99946,-0.72452 2.01642,-1.58527 2.68533,-2.62859c-0.4643,-1.95771 0.69731,-3.06518 1.53193,-3.58894c0.10854,-0.25448 1.34097,-2.96538 4.21218,-2.02587c3.74125,-2.5071 5.04558,-6.58074 3.21731,-11.67737l-1.26486,-0.53014c0,0 -2.589,-2.31408 -0.27493,-4.90305c2.31408,-2.589 4.90305,-0.27493 4.90305,-0.27493z" data-paper-data="{&quot;index&quot;:null}" fill="#bf0000"/><path d="M165.60409,167.88603l-3.31776,1.72931c-5.21601,1.93647 -9.70669,8.01937 -7.77774,14.09693c0.86417,2.72277 3.98615,5.86916 5.91461,8.22301c0.382,0.34024 0.72378,0.82265 0.97793,1.49836c0.04522,0.12022 0.08433,0.23764 0.11767,0.35234c0.16153,0.5269 0.24285,1.17437 0.048,1.8469c-0.19017,0.67387 -0.60151,1.18043 -1.01719,1.54229c-0.08896,0.07972 -0.18422,0.15874 -0.28614,0.23687c-0.67303,0.51592 -1.30771,0.74142 -1.8826,0.78768c-7.64731,5.58143 0.59778,17.76809 3.87004,23.84608c0.96752,1.79713 2.11515,3.64113 3.78765,4.81094c0,0 2.7653,2.10024 0.66504,4.86551c-2.10026,2.76528 -4.86553,0.66506 -4.86553,0.66506c-7.31383,-5.85139 -12.40079,-16.73966 -12.92359,-26.24386c-0.20157,-3.66423 -0.82771,-6.96185 1.42397,-10.29966c0.62644,-0.92862 1.56021,-1.57728 2.5061,-2.21488c-2.03156,-2.47147 -4.15392,-5.19818 -4.96856,-7.85764c-2.96975,-9.69476 3.36803,-19.14952 11.87292,-22.62054l2.60921,-1.40424c0,0 3.0698,-1.62299 4.69278,1.44681c1.62298,3.06982 -1.44681,4.69278 -1.44681,4.69278z" data-paper-data="{&quot;index&quot;:null}" fill="#bf0000"/><path d="M157.44719,174.30104l-0.16269,-0.29538c-2.05118,4.70604 -0.5211,11.19075 0.72839,16.15139c0,0 0.84392,3.36831 -2.52439,4.21224c-3.36833,0.84392 -4.21224,-2.52439 -4.21224,-2.52439c-1.6743,-6.71505 -2.80473,-13.8238 -0.4678,-20.34756l1.83097,-2.20795c0,0 2.50582,-2.40388 4.90972,0.10192c2.40388,2.50582 -0.10192,4.90972 -0.10192,4.90972z" data-paper-data="{&quot;index&quot;:null}" fill="#bf0000"/><path d="M305.41838,175.67757l1.43448,0.13349c5.75651,-1.22329 11.42354,-4.59083 10.03978,-11.4198c-0.28994,-1.43081 -1.18563,-2.68764 -1.51072,-4.11088c-0.95112,-4.16382 -0.05959,-5.33503 -3.98847,-7.43015c-0.70894,-0.2765 -1.50771,-0.81586 -1.87062,-1.86748c-0.27763,-0.60298 -0.39601,-1.3575 -0.09823,-2.24897c0.20373,-0.91757 0.6937,-1.5034 1.24214,-1.87737c0.29896,-0.25062 0.61146,-0.41962 0.92357,-0.52793c3.02563,-3.16775 1.87789,-5.17283 1.01395,-9.59728c-0.68407,-3.50339 -1.20399,-9.24515 -4.878,-11.47791c-2.9514,-1.79361 -8.77856,0.04674 -12.45731,0.63365l-0.01141,0.62137c0,0 -0.07207,3.47169 -3.54377,3.39962c-3.4717,-0.07208 -3.39962,-3.54375 -3.39962,-3.54375l0.08572,-3.64131c-0.32612,-3.72633 -3.42789,-7.45438 -7.16773,-8.82494c-2.11954,-0.77677 -4.51542,0.07637 -6.7721,0.02009c-5.57625,-0.13907 -11.44869,1.50073 -16.90846,2.88888l-0.82059,2.03532c0,0 -1.98572,2.84865 -4.83435,0.86291c-2.56775,-1.78992 -1.20752,-4.28096 -0.91428,-4.75483c-1.2473,-9.38067 -11.51034,-13.10095 -20.03925,-9.98c-1.079,0.39483 -5.13441,1.79199 -5.96691,2.63397c-0.93256,0.94321 -1.04307,2.50242 -1.95452,3.46596c-0.76063,0.80414 -1.76356,1.32166 -2.7316,1.88043c0.43425,1.46406 0.75728,2.94275 1.10232,4.23111c0,0 0.88445,3.35791 -2.47346,4.24236c-3.35791,0.88443 -4.24236,-2.47346 -4.24236,-2.47346c-0.05876,-0.22758 -1.23604,-5.67302 -2.08698,-6.5416c-1.32949,-1.35707 -3.6856,-0.95929 -5.56773,-1.21792c-7.6322,-1.04867 -13.02965,-0.23003 -19.56561,3.91951c-1.32313,0.84003 -4.32572,2.50446 -5.17325,3.92456c-1.27707,2.13981 -1.32015,4.81051 -2.15567,7.1582l-0.59923,2.827c0,0 -0.75153,3.39014 -4.14166,2.63861c-3.39014,-0.75153 -2.63861,-4.14166 -2.63861,-4.14166l0.838,-3.65638c0.98748,-2.76383 1.15617,-5.89239 2.72603,-8.3722c1.89069,-2.98659 4.61118,-4.44514 7.41279,-6.23532c7.84054,-5.00991 15.10414,-6.26023 24.257,-4.94052c2.43401,0.35094 6.45942,0.87949 8.73744,2.51368c1.2534,-1.22317 2.07564,-2.96272 3.37781,-4.1644c1.39932,-1.29133 3.22963,-2.02975 4.93449,-2.87772c12.10663,-6.02171 27.14963,-2.04856 31.70499,10.06484c9.89759,-2.51829 22.15885,-5.73828 30.83408,0.27952c2.73283,1.8957 5.39624,3.45592 6.90114,6.73371c0.30506,0.66443 0.4587,1.37456 0.55084,2.10328c5.14927,-0.62775 11.50493,-2.50804 16.16856,0.26867c5.62801,3.3509 7.12464,10.53477 8.22622,16.14973c0.54984,2.80272 1.72187,5.68848 1.16224,8.48926c-0.58071,2.9062 -1.04789,4.11405 -1.93695,5.20523c0.07128,0.07084 0.14044,0.14425 0.20719,0.22045c2.2208,2.53441 2.57893,6.26043 3.32716,9.54608c1.42677,6.26533 3.25004,12.29032 -1.86218,17.77234c-3.08277,3.30577 -7.72277,4.95909 -11.91767,5.96456l-3.12281,0.03886c0,0 -3.4717,-0.07208 -3.39963,-3.54379c0.07208,-3.4717 3.54379,-3.39963 3.54379,-3.39963z" data-paper-data="{&quot;index&quot;:null}" fill="#bf0000"/><path d="M224.64038,233.07057l-3.96548,1.61707c-5.93117,0.52126 -13.28529,1.04814 -18.18724,-3.32817c-0.77599,-0.69277 -1.35233,-1.56328 -1.89722,-2.46177l-1.46592,0.13863c-1.73001,-0.24872 -3.58214,-0.06088 -5.19003,-0.74613c-3.3164,-1.41341 -6.89754,-6.21635 -9.25705,-8.89397c-1.17978,-1.33886 -2.97321,-2.3917 -3.41878,-4.11967c-0.51687,-2.00449 0.51162,-4.10836 0.76745,-6.16251c0,0 0.64182,-3.41258 4.05442,-2.77074c3.4126,0.64182 2.77076,4.05444 2.77076,4.05444c-0.31216,0.96572 -1.13547,1.90194 -0.9365,2.89717c0.14346,0.71773 1.23435,0.79946 1.77427,1.29359c3.61909,3.31226 5.14585,7.24755 10.2076,7.54607l0.20247,-0.03494c0.04753,-0.03433 0.09651,-0.06841 0.14693,-0.10217c2.88545,-1.93183 4.81728,0.95362 4.81728,0.95362c3.36986,5.42662 7.92554,5.38787 13.97295,4.98784l2.91581,-1.27174c0,0 3.20173,-1.34412 4.54585,1.8576c1.34412,3.20173 -1.8576,4.54585 -1.8576,4.54585z" data-paper-data="{&quot;index&quot;:null}" fill="#bf0000"/><path d="M293.96307,188.6719l4.38048,2.19276c1.0679,1.38791 2.60774,2.51704 3.2037,4.1637c0.56892,1.5719 0.1279,3.34202 0.11785,5.01368c-0.0354,5.88574 -0.29164,12.94825 -5.50848,17.04634c-0.73961,0.58099 -1.65456,0.84354 -2.58781,1.07286c0.01637,0.08271 0.03128,0.16629 0.04467,0.25068c1.3006,8.19685 -7.49822,12.06135 -13.64495,14.67044c0,0 -0.53755,0.22565 -1.26458,0.27179c-4.11725,5.97316 -11.87189,6.18329 -18.46759,6.06022c0,0 -3.4717,-0.07208 -3.39963,-3.54379c0.07208,-3.4717 3.54379,-3.39963 3.54379,-3.39963c3.7433,0.08657 10.78092,0.86167 12.88247,-3.49703c0.25972,-0.53866 0.55617,-2.82097 0.73922,-4.40763c-0.5589,-0.84254 -1.36632,-2.66277 0.47379,-4.42804c2.50582,-2.40388 4.90969,0.10194 4.90969,0.10194l1.68334,3.59437c-0.03733,0.30454 -0.07601,0.65018 -0.11789,1.02472c0.99982,-0.57085 1.97638,-1.18413 2.93379,-1.81823c1.1265,-0.74608 3.62398,-1.24861 2.93443,-3.19025c-0.47531,-1.33838 -2.48154,-2.77042 -3.35247,-3.52803l0.01931,0.27936c0,0 -3.27075,-1.16623 -2.10451,-4.43695c1.16623,-3.27075 4.43696,-2.10451 4.43696,-2.10451l2.27636,1.08414c0.37852,0.34513 0.77527,0.68984 1.17533,1.04084c0.22505,-0.10447 0.37405,-0.15074 0.37405,-0.15074c6.20291,-1.41948 7.24999,-12.76966 3.37889,-16.70653l-1.6331,-0.20584c0,0 -3.22535,-1.28649 -1.93886,-4.51181c1.28649,-3.22535 4.51181,-1.93886 4.51181,-1.93886z" data-paper-data="{&quot;index&quot;:null}" fill="#bf0000"/><path d="M285.60702,163.74471l-1.06043,-3.09114c0.21326,-2.70551 0.49589,-5.83327 -3.26158,-6.54263c-1.94586,-0.36735 -4.14317,0.86854 -5.94057,0.03746c-1.77164,-0.81916 -2.7232,-2.84082 -3.73376,-4.51071c-0.39588,-0.65415 0.30107,-1.89119 -0.36626,-2.26439c-0.73034,-0.40847 -5.22964,1.22875 -5.75427,1.40014c0,0 -3.3163,1.02946 -4.34578,-2.28685c-1.02946,-3.31632 2.28685,-4.34578 2.28685,-4.34578c3.8967,-1.16364 7.39515,-2.74046 11.71762,-0.5109c1.55858,0.80393 1.72282,3.05617 2.52258,4.61685c0.27086,0.52857 0.10513,1.52058 0.68598,1.64444c1.53487,0.32728 3.16442,-0.90163 4.68152,-0.49994c7.18442,1.90225 8.36141,7.18959 8.45104,13.40653l0.39186,-0.02927c0,0 1.48813,3.13742 -1.64928,4.62554c-3.13741,1.48811 -4.62552,-1.64928 -4.62552,-1.64928z" data-paper-data="{&quot;index&quot;:null}" fill="#bf0000"/><path d="M192.498,172.92483l-1.38751,0.17605c-3.33376,3.27407 -1.50467,5.60149 1.42729,7.29079l3.5921,0.35146c1.80489,0.1587 3.20218,1.69285 3.16401,3.531c-0.02206,1.06264 -0.51925,2.00385 -1.2845,2.62506l-2.19706,1.80545c-0.87756,1.80081 0.72619,1.60174 2.766,2.0809c0,0 3.30455,1.06661 2.23794,4.37119c-1.06661,3.30455 -4.37119,2.23794 -4.37119,2.23794c-4.08441,-1.51525 -7.31875,-1.5348 -7.98474,-7.25069c-0.13323,-1.1434 0.2887,-2.23326 0.78678,-3.31576c-3.29616,-1.14852 -6.43839,-5.97741 -6.93837,-9.09943c-0.82971,-5.18107 0.83801,-5.90938 3.62368,-9.25602l3.96285,-1.98667c0,0 3.21937,-1.3013 4.52069,1.91808c1.30132,3.21938 -1.91806,4.52069 -1.91806,4.52069z" data-paper-data="{&quot;index&quot;:null}" fill="#bf0000"/><path d="M170.74989,159.58098l-0.90444,-2.63249c-0.2119,-1.90757 -1.02332,-3.84291 -0.63574,-5.72269c1.43936,-6.98057 9.5286,-9.5991 15.58919,-10.70264c0.10918,-0.19725 0.2309,-0.39009 0.36614,-0.57801c1.64838,-2.28983 10.71093,-5.83164 14.74694,-5.5663c0.18597,-0.05336 0.37196,-0.1067 0.55792,-0.16006l0.27334,0.28973c0.12918,0.03545 0.24859,0.07769 0.35743,0.12716c0.25217,0.11462 0.37396,0.30642 0.41208,0.5477l0.30295,-0.57572l3.68208,1.9376c1.16273,0.58105 1.94998,1.79414 1.9212,3.18003c-0.03981,1.91734 -1.62641,3.43943 -3.54379,3.39963c-0.52893,-0.01099 -1.02778,-0.13967 -1.47207,-0.36055l-2.26707,-1.06448c-0.77625,0.10267 -1.5419,0.2283 -2.32037,0.38561c-0.23221,0.1037 -0.4644,0.20741 -0.69663,0.31111c0,0 -0.61027,0.20768 -1.39441,0.18113c-0.81226,0.21777 -1.65734,0.47424 -2.55819,0.778c-0.77487,0.26128 -1.80501,0.05323 -2.36605,0.64817c-1.14623,1.21554 0.50987,3.30301 0.82219,4.9443l0.24419,-0.10347c0,0 1.86578,2.92861 -1.06282,4.79436c-2.92861,1.86578 -4.79437,-1.06282 -4.79437,-1.06282l-1.22382,-2.40771c-0.13209,-0.77922 -0.30833,-1.62718 -0.46419,-2.50698c-3.26078,0.67263 -8.09084,2.11219 -8.29438,4.88768c-0.08459,1.15338 0.46048,2.26663 0.69071,3.39994l0.53214,1.18696c0,0 1.22242,3.25015 -2.02772,4.47257c-3.25015,1.22242 -4.47257,-2.02772 -4.47257,-2.02772z" data-paper-data="{&quot;index&quot;:null}" fill="#bf0000"/><path d="M252.14953,133.07474l0.01792,-0.03303c0.2595,-0.51461 0.99014,-1.00774 0.7785,-1.54385c-0.16559,-0.41946 -0.62642,0.70205 -1.05237,0.85011c-1.37762,0.4788 -2.81462,0.80432 -4.26037,0.99641c-2.09048,0.27776 -4.37126,1.23036 -6.31335,0.40845c-1.73281,-0.73333 -2.46576,-2.87476 -3.38868,-4.51443c-0.33246,-0.59063 0.28227,-1.64305 -0.28552,-2.01317c-0.45677,-0.29774 -0.79627,0.81236 -1.31903,0.96722c-1.37538,0.40749 -2.83264,0.45493 -4.24895,0.68242c0,0 -3.42857,0.55012 -3.97871,-2.87847c-0.55012,-3.42857 2.87847,-3.97871 2.87847,-3.97871c1.42212,-0.22794 8.74236,-1.52161 9.64685,-1.06615c1.76502,0.8888 2.39746,3.15842 3.36089,4.88384c0.26778,0.47957 -0.25304,1.46846 0.27347,1.625c0.72023,0.21413 1.33034,-0.72332 2.05165,-0.93372c2.76191,-0.80566 8.86286,-2.34681 11.40157,-0.08026c1.54241,1.37707 0.91922,4.03189 1.37882,6.04787l0.00221,0.7246c0,0 -0.07208,3.4717 -3.54379,3.39963c-3.4717,-0.07208 -3.39963,-3.54379 -3.39963,-3.54379z" data-paper-data="{&quot;index&quot;:null}" fill="#bf0000"/><g><g data-paper-data="{&quot;index&quot;:null}" fill="#ffa100"><path d="M222.43112,174.24683l-0.7899,-3.41777c0.17042,-1.25919 1.20108,-9.12111 1.44635,-9.70846c3.06758,-7.34615 13.71682,-9.53735 20.09139,-5.83852c3.6126,2.09619 5.8852,5.09618 7.38384,8.67801c3.47486,-1.02036 7.54234,-0.22905 10.29963,2.19419c4.52195,3.97416 7.40617,13.24562 6.6843,19.1595c-0.50797,4.16172 -2.16232,7.27059 -7.05085,7.41541c-1.65433,0.049 -2.9542,-1.52642 -4.43131,-2.28962c0,0 -2.61943,-1.61393 -1.04078,-4.29193c1.57864,-2.67801 4.19807,-1.06406 4.19807,-1.06406c3.38114,3.04163 2.47139,-2.06048 2.06411,-4.80688c-0.44339,-2.98987 -5.33003,-14.42707 -10.17032,-9.75489c-1.49217,1.44034 -1.9477,3.08758 -2.73854,4.9563l-0.08273,1.48911c0,0 -0.41916,3.09724 -3.44867,2.66872c-3.0295,-0.42855 -2.61034,-3.52579 -2.61034,-3.52579l0.54616,-3.15788c0.85029,-1.93745 1.48275,-3.75039 2.64561,-5.35475c-0.89605,-2.80401 -2.42254,-5.21195 -5.11467,-6.79116c-3.25682,-1.91046 -10.19429,-1.25445 -11.6689,2.92958c-0.88512,2.51143 -0.5856,5.30589 -0.94345,7.95018l0.52515,0.55702c0,0 0.97993,2.96192 -1.91718,3.96373c-2.89711,1.00182 -3.87703,-1.96006 -3.87703,-1.96006z"/><path d="M230.8327,195.23452l-3.16991,1.28554c-0.6827,0.17013 -1.78711,-0.15659 -2.04809,0.51042c-0.23352,0.59683 0.99806,0.83231 1.30269,1.39464c1.02011,1.88293 0.17129,2.89909 2.18215,3.53862c3.22465,1.02557 7.10034,-0.12264 9.28388,-2.3714c0,0 1.45008,-1.34978 3.08509,-0.7005l0.02093,-0.15457c0,0 0.41915,-3.09724 3.44865,-2.66871c3.0295,0.42855 2.61034,3.52575 2.61034,3.52575l-0.50312,3.71761c-0.26319,1.04496 -0.81828,2.0562 -0.78957,3.13486c0.03798,1.42816 2.73221,0.61678 4.11683,0.80963c0.9348,0.13019 1.85729,0.69233 2.78489,0.51626c1.27624,-0.24225 2.26534,-1.35557 3.51567,-1.71216c1.30606,-0.37252 2.76273,0.00798 4.04455,-0.4441c2.62592,-0.9261 -0.20335,-8.8668 -0.73168,-10.21215c-0.65711,-1.67325 -2.04493,-3.10649 -3.5926,-3.97101c0,0 -2.61943,-1.61395 -1.04079,-4.29194c1.57864,-2.67801 4.19805,-1.06404 4.19805,-1.06404c2.54061,1.65961 4.83747,4.04783 6.05848,6.86609c1.38488,3.19651 3.25141,9.86011 1.82085,13.37032c-0.74701,1.83303 -1.94991,3.6357 -3.59872,4.68536c-1.56235,0.99458 -3.65854,0.52481 -5.42353,1.05819c-1.52339,0.46036 -2.81567,1.65952 -4.38581,1.90613c-1.48777,0.23366 -2.997,-0.29955 -4.48771,-0.5125c-3.52459,-0.50348 -7.43673,-0.37582 -9.01612,-4.83683c-0.31946,-0.90233 -0.27341,-1.85538 -0.11732,-2.82365c-6.71667,4.28598 -16.19063,3.9423 -19.15997,-5.03611c-0.60764,-1.83728 -2.12334,-3.81113 -1.45312,-5.62552c0.76603,-2.07369 3.38005,-2.77725 5.07009,-4.16584l3.6967,-1.53191c0,0 2.83828,-1.16457 3.9774,1.73718c1.1391,2.90175 -1.69916,4.06634 -1.69916,4.06634z"/><path d="M215.23802,175.92142l-3.5979,-0.53944c-1.49267,-0.75921 -3.37578,-0.99881 -4.47795,-2.27767c-3.84494,-4.46136 -1.06349,-12.44668 3.92804,-14.62555c3.90833,-1.70603 11.81398,2.45988 15.00474,4.39583c0,0 2.61943,1.61393 1.04078,4.29193c-1.57864,2.67801 -4.19807,1.06406 -4.19807,1.06406c-2.78737,-1.75076 -5.1889,-2.30307 -8.28504,-3.29266c-0.51853,-0.16573 -1.02382,-0.74618 -1.53536,-0.5591c-2.63215,0.96268 -1.87585,4.37788 0.19348,4.98739l2.76561,0.36071c0,0 3.02949,0.42853 2.61034,3.52575c-0.41916,3.09724 -3.44867,2.66872 -3.44867,2.66872z"/><path d="M222.48262,195.42204c-2.60671,-0.33944 -4.85418,-0.59137 -7.26143,-2.322c-5.13406,-3.69101 -7.03028,-12.29651 -6.19533,-18.4727l-0.73358,-4.02398c-0.14163,-0.68719 -0.17155,-1.41066 -0.072,-2.14633c0.46299,-3.4211 3.55101,-5.81073 6.89727,-5.33738c1.01764,0.14396 1.942,0.53609 2.72263,1.10842l2.08573,1.46239c0.45098,0.19626 1.17185,0.45068 1.58166,0.72422c0.73812,-1.37203 1.37358,-2.93571 2.62309,-3.82674c1.48872,-1.06166 3.23648,-1.85661 5.03401,-2.20328c0.60267,-0.55368 1.18472,-1.11499 1.64552,-1.72091l4.91637,-1.43874c0,0 3.84023,-0.42366 5.74669,2.52223c0.10993,0.02488 0.21311,0.05349 0.30892,0.08596c2.48376,0.84146 4.51835,2.80858 6.34772,4.72119c0.67979,0.7107 0.45763,1.94878 0.88574,2.84129c0.34242,0.71389 1.33825,0.6369 2.1814,0.76972l3.2195,0.08834c0.25212,0.0035 0.50684,0.02295 0.76307,0.0592c2.69613,0.38138 4.73732,2.50495 5.18653,5.10512c0.74559,1.21869 1.01375,2.81 1.63373,4.12592c2.59888,5.51597 3.19116,10.35765 0.82268,16.2492c-0.3227,0.8027 -0.71969,1.56999 -1.17185,2.3068c1.17198,0.24817 2.40501,0.95427 3.52827,2.47144c3.69157,4.98618 -1.18557,8.7603 -1.18557,8.7603c-4.28282,3.21675 -12.57311,9.10026 -17.85636,2.67056c-1.04331,-1.2697 -1.5756,-2.88004 -1.8175,-4.58829c-3.40225,2.14162 -8.91357,3.45622 -12.22056,2.98052c-2.56769,-0.36935 -5.75146,0.08456 -7.57766,-1.79746c-1.86187,-1.91878 -1.49797,-5.20894 -1.8236,-7.89115c-0.1307,-1.07644 -0.19642,-2.17344 -0.21519,-3.28391z"/></g><path d="M239.96697,190.87296c-0.62281,-0.50514 -1.14311,-1.12952 -1.53204,-1.83426c-5.79439,2.52513 -15.80024,-3.2099 -14.95012,-10.08147c0.35569,-2.87497 1.04088,-10.7838 5.52519,-11.27851c4.66219,-0.51433 14.92665,0.69363 19.65588,2.63862c5.15399,2.1197 5.26133,13.96646 2.55037,17.78827c-1.57942,2.22657 -9.26861,7.81279 -11.24925,2.76738z" data-paper-data="{&quot;index&quot;:null}" fill="#ffac1d"/><path d="M215.99231,182.7011l0.03056,0.19774c0.51373,1.02732 1.02749,2.05468 1.54121,3.08205c2.22605,4.326 4.81872,2.24135 7.93491,6.55616c1.54077,2.13347 0.62695,6.99718 3.26266,8.53952c4.07009,2.3817 9.34245,-1.18653 13.531,1.37371c1.08129,0.66092 1.02395,2.45028 1.97601,3.29379c2.06676,1.83107 6.76827,-1.82079 8.20361,-1.83651c1.37342,-0.01506 2.4415,1.35382 3.77595,1.68633c2.19868,0.54786 4.89466,-2.52771 6.21153,-3.68656c0,0 2.32598,-2.0302 4.31176,0.34777c1.9858,2.37798 -0.34016,4.40819 -0.34016,4.40819c-3.2484,2.81569 -6.49728,5.75985 -11.18923,5.09891c-1.03846,-0.14628 -1.679,-1.5779 -2.72704,-1.60131c-0.88801,-0.01983 -1.38177,1.22239 -2.23038,1.49056c-2.8398,0.89748 -7.01926,0.81913 -9.58943,-0.83201c-1.00644,-0.64656 -0.88168,-2.36494 -1.78287,-3.15732c-1.34133,-1.1794 -3.52219,0.46177 -5.29105,0.42737c-1.34914,-0.02626 -6.9387,-0.93796 -8.03665,-1.66905c-4.48088,-2.98369 -2.88381,-6.76186 -5.17343,-10.412c-0.7222,-1.15132 -4.90303,-2.14144 -5.29005,-2.49204c-1.30981,-1.18648 -1.92881,-2.98575 -2.89318,-4.47864c-0.54986,-1.09625 -1.0997,-2.19249 -1.64956,-3.28872l-0.38033,-1.04424c0,0 -0.97993,-2.96192 1.91718,-3.96373c2.89711,-1.00182 3.87702,1.96005 3.87702,1.96005z" data-paper-data="{&quot;index&quot;:null}" fill="#ef9700"/></g><g><path d="M146.01791,190.72902c0.32806,0.4059 0.55838,0.97584 0.55838,1.77609c0,2.7805 -2.7805,2.7805 -2.7805,2.7805c-5.40584,-0.12692 -8.8597,2.73957 -12.55346,6.03424c-4.22244,3.76623 -10.49935,7.12634 -16.13874,7.49084c-2.46743,0.15949 -7.14885,0.22987 -9.03354,-1.84961c-3.00588,-3.31653 -1.33685,-10.69716 1.85821,-13.12866c2.55052,-1.94097 8.06012,-2.05273 11.05691,-2.71718c3.52574,-0.38141 6.65837,-1.56451 10.18102,-1.83468c4.5657,-0.35017 9.13684,-0.45801 13.72757,-0.45801h0.45101c0,0 2.16201,0 2.67315,1.90646z" fill="#bf0000"/><path d="M146.20908,190.0365c0,2.7805 -2.7805,2.7805 -2.7805,2.7805h-3.06485c-4.15126,0 -9.04577,-0.70768 -13.12549,-0.04462c-2.90494,0.47213 -5.89488,1.55312 -8.87337,2.04668c-1.82759,0.30285 -5.42778,0.12136 -6.78462,2.01856c-0.97144,1.35831 -1.05906,3.16831 -1.64542,4.73192c0,0 -0.9763,2.60347 -3.57977,1.62718c-2.60347,-0.9763 -1.62718,-3.57979 -1.62718,-3.57979c0.29904,-0.7974 2.13358,-5.77917 2.44106,-6.16536c2.64261,-3.31892 6.5082,-3.48542 10.24238,-4.11117c2.95618,-0.49538 5.94235,-1.59412 8.83472,-2.0398c4.45245,-0.68608 9.59978,-0.04462 14.11771,-0.04462h3.06485c0,0 2.7805,0 2.7805,2.7805z" fill="#d80000"/></g><g data-paper-data="{&quot;index&quot;:null}"><path d="M324.20642,184.14272l0.57886,0.09607c5.89203,0.9779 11.77041,2.04536 17.66771,3.32233c4.55002,0.98524 8.69703,2.68102 13.2629,3.7636c3.91725,1.21598 11.00054,2.48676 14.48137,4.71737c4.36046,2.79432 7.29099,9.56586 3.78732,11.80867c-2.1968,1.40623 -8.21271,0.34785 -11.3966,-0.31639c-7.27686,-1.51814 -15.69193,-5.7762 -21.51359,-9.94966c-5.09272,-3.65091 -9.8318,-6.87848 -16.75643,-7.91968c0,0 -3.56867,-0.59228 -3.86567,-3.00941c-0.08549,-0.69566 0.14924,-1.14206 0.52694,-1.42502c0.45238,-1.54841 3.22723,-1.08788 3.22723,-1.08788z" fill="#bf0000"/><path d="M323.93154,182.76302l3.93362,0.65286c5.79858,0.96238 12.33647,1.50122 18.12429,3.04607c3.75983,1.00355 7.70982,2.59479 11.55689,3.65514c4.85951,1.3394 9.8386,2.30757 13.58482,5.75565c0.4359,0.40121 3.3226,5.12268 3.79158,5.87957c0,0 1.53114,2.47119 -1.70603,2.76533c-3.23717,0.29412 -4.7683,-2.17707 -4.7683,-2.17707c-0.9196,-1.48417 -1.22539,-3.07628 -2.61729,-4.464c-1.94409,-1.93829 -6.54543,-2.5474 -8.92341,-3.19996c-3.87551,-1.06352 -7.82844,-2.64013 -11.60723,-3.66935c-5.30699,-1.44544 -11.5133,-1.87286 -16.84128,-2.75712l-3.93362,-0.65286c0,0 -3.56867,-0.59228 -3.86567,-3.00941c-0.297,-2.41712 3.27165,-1.82482 3.27165,-1.82482z" fill="#d80000"/></g><g data-paper-data="{&quot;index&quot;:null}"><path d="M264.03555,98.85818l0.23069,-0.38511c2.34818,-3.91984 4.76024,-7.7865 7.33556,-11.56672c1.98699,-2.91661 4.40006,-5.19197 6.46484,-8.07366c1.98819,-2.33448 4.88295,-7.00115 7.51759,-8.52358c3.30046,-1.90716 9.21172,-0.8403 9.94683,2.84608c0.46092,2.31136 -1.98187,6.28484 -3.35327,8.33782c-3.13435,4.69214 -8.64752,8.91722 -13.38811,11.25095c-4.14702,2.04153 -7.87794,4.0228 -10.55609,8.68146c0,0 -1.42226,2.37414 -3.32757,1.43535c-0.54835,-0.2702 -0.82111,-0.65928 -0.93143,-1.07645c-1.04493,-1.08011 0.06095,-2.92616 0.06095,-2.92616z" fill="#bf0000"/><path d="M262.9192,98.40079l1.5677,-2.61695c2.31095,-3.85766 4.50427,-8.46931 7.25185,-12.03942c1.78487,-2.31918 4.0652,-4.49795 5.91677,-6.85484c2.33884,-2.97717 4.43019,-6.22158 8.05618,-7.35742c0.42191,-0.13217 4.77402,-0.01656 5.47339,-0.00266c0,0 2.2834,0.04542 1.62072,2.59803c-0.66268,2.55263 -2.94609,2.50723 -2.94609,2.50723c-1.37138,-0.02727 -2.65649,-0.56356 -4.08416,-0.19273c-1.99409,0.51798 -3.71122,3.65331 -4.85357,5.11155c-1.86172,2.37656 -4.13182,4.56455 -5.94124,6.88554c-2.54115,3.25962 -4.55979,7.67775 -6.68319,11.22233l-1.5677,2.61693c0,0 -1.42224,2.37416 -3.32757,1.43535c-1.90533,-0.93881 -0.48309,-3.31297 -0.48309,-3.31297z" fill="#d80000"/></g></g><g><path d="M174.85318,133.81079c0.98389,0.59073 1.87594,1.23677 2.65209,1.90408c-2.41116,-0.11359 -5.06374,0.31785 -7.08837,-0.51751c-1.69153,-0.69791 -3.46939,-1.68164 -5.19002,-2.78279c1.27421,-1.67575 5.49992,-1.08129 9.62631,1.39621z" fill="#f5bc38" stroke="none" stroke-width="NaN"/><path d="M174.06149,133.33544l4.02918,2.41914c-1.75875,-0.1596 -3.69016,0.06375 -5.43708,-0.07422z" fill="#f5bc38" stroke="none" stroke-width="0"/><path d="M179.73721,123.2251c0.8159,-0.42538 4.03841,-3.14701 5.45473,-3.28575c3.04488,-0.29831 6.14258,2.00588 8.86998,3.08082c-1.79411,1.68337 -3.37345,3.53976 -4.71171,5.74439c-0.25792,0.42489 -2.06787,3.38478 -2.12828,3.76655c-0.06282,0.39703 0.61954,2.9275 0.78552,3.57103c0.02177,0.55797 0.41461,1.53648 -0.1275,1.67033c-0.78138,0.19293 -2.17884,-0.63077 -2.79412,-0.81482c-1.88095,-0.56263 -3.65115,-0.44822 -5.54227,-0.9562c-2.83859,-0.76248 -6.50794,0.27639 -9.12668,-0.8041c-1.71055,-0.70577 -3.50939,-1.70381 -5.24805,-2.81999c4.25247,-3.74956 9.44504,-6.48113 14.56838,-9.15228z" fill="#db4747" stroke="#000000" stroke-width="0"/><path d="M172.18263,127.44407c1.30268,-0.14812 3.88893,-3.22464 5.29355,-4.08791c6.29368,-3.86808 11.29874,-4.63064 17.71881,-1.35339c-1.51532,1.30458 -2.89479,2.69807 -4.12469,4.272c-2.02122,-0.69707 -4.06708,-0.90917 -6.41712,-0.27705c-3.03142,0.81539 -9.8446,5.69618 -14.44497,9.1123c-1.92328,-0.81658 -3.9497,-1.99081 -5.87082,-3.27818c3.29225,-1.91692 7.49454,-4.34791 7.84524,-4.38779z" fill="#bd2222" stroke="none" stroke-width="0.5"/><path d="M185.3454,125.25087c0,0 -0.6174,-0.2137 -0.40371,-0.83112c0.2137,-0.6174 0.83112,-0.40371 0.83112,-0.40371c0.48695,0.16981 0.97117,0.33786 1.45282,0.50527c0.09151,-0.46623 0.60905,-0.49072 0.60905,-0.49072c1.52369,-0.06777 2.98609,0.28003 4.4029,0.85113c-0.2993,0.33386 -0.59113,0.67557 -0.87532,1.02619c-0.40238,-0.14337 -0.80773,-0.26464 -1.21604,-0.35873c0.38919,0.13997 0.77689,0.28113 1.16318,0.42415c-0.2815,0.34956 -0.55544,0.70801 -0.82169,1.07635c-1.6826,-0.61598 -3.3936,-1.19769 -5.14233,-1.79882z" fill="#bd2222" stroke="none" stroke-width="0.5"/><path d="M180.54262,117.73824c2.6871,-0.89197 4.30971,-1.0158 6.18129,0.14811c0.43104,0.26808 1.06968,0.43001 1.30326,0.84446c0.10816,0.19198 0.13935,0.37884 0.1057,0.56049c0.3377,-0.17074 0.66234,-0.28154 0.92264,-0.23263c1.98941,0.37384 -0.65157,1.85381 -1.73802,2.29469c-6.08658,2.46993 -7.46163,2.83699 -11.52894,4.43102c-0.75079,0.29425 -1.53883,0.4265 -2.1604,0.87932c-0.26665,0.19428 -1.51192,1.03317 -1.97126,0.9921c-0.40312,0.13274 -0.76242,0.0908 -0.84936,-0.32994c-0.01469,-0.02047 -0.02745,-0.04213 -0.03813,-0.06497c-0.04389,-0.09378 -0.04848,-0.19769 -0.01954,-0.30414c-0.05228,-1.46962 0.48274,-3.05732 1.01711,-4.61919c0.07934,-0.23189 0.12717,-1.26731 0.41778,-1.60105c0.62521,-0.71803 1.92702,-1.14888 2.8289,-1.63801c0.80251,-0.43527 2.86206,-1.61962 3.83227,-1.49708c0.40955,0.05174 0.68854,0.22369 0.77218,0.44409c0.3257,-0.10952 0.63674,-0.21177 0.92452,-0.3073z" fill="#ff6e3b" stroke="#000000" stroke-width="0"/></g><g><path d="M296.78509,132.16101c0.03869,0.62065 0.14601,1.25737 0.25202,1.89984c-3.24359,-1.8572 -7.73878,-2.3765 -9.81123,-5.47963c-2.63953,-3.95226 1.50273,-6.99102 0.71758,-10.58673c5.69759,3.19646 8.37999,6.76069 8.84163,14.16653z" fill="#db4747" stroke="#000000" stroke-width="0"/><path d="M291.35006,121.88919c-0.26397,-0.59749 -2.78147,-1.452 -3.45593,-1.68719c0.21297,-0.94885 0.23685,-1.91672 -0.17699,-2.93481c-0.31009,-0.76286 -1.01536,-1.30338 -1.60597,-1.87722c-0.26192,-0.25448 -0.91031,-0.21907 -0.92703,-0.58387c-0.01984,-0.43281 0.64766,-0.5984 0.85542,-0.97859c0.19138,-0.35018 0.35651,-0.7138 0.51382,-1.08138c1.21616,0.6572 2.28266,1.30446 2.99692,1.71875c2.53672,1.47134 6.27081,2.46712 7.92965,5.04042c0.77106,1.19613 0.64,5.41211 0.81346,6.31574c0.62415,3.2514 1.24689,6.53294 1.60906,9.80772c-0.48405,-0.23395 -0.99501,-0.47443 -1.5706,-0.6852c-1.42954,-1.17635 -3.31653,-1.86391 -5.17944,-2.57666c-0.05273,-3.62377 -0.36192,-7.21744 -1.80238,-10.4777z" data-paper-data="{&quot;index&quot;:null}" fill="#bd2222" stroke="#000000" stroke-width="0"/><path d="M293.42062,123.5578c-1.18318,-2.74105 -3.07769,-4.33403 -5.48432,-5.59554c-0.0519,-0.22928 -0.12393,-0.46085 -0.21914,-0.69507c-0.31009,-0.76286 -1.01536,-1.30338 -1.60597,-1.87722c-0.26192,-0.25448 -0.91031,-0.21907 -0.92703,-0.58387c-0.01984,-0.43281 0.64766,-0.5984 0.85542,-0.97859c0.31551,-0.57733 0.5597,-1.19119 0.81511,-1.79906c1.8205,0.6793 3.64293,1.35341 5.46733,2.02208c0.06216,0.03331 0.12413,0.06606 0.18591,0.09821c4.71766,2.93989 6.68479,7.07667 7.44106,13.39249c0.19601,1.637 -0.60838,5.57484 0.08474,6.68772c0.06294,0.10104 0.18487,0.71435 0.33967,1.62753c-0.62539,-0.30005 -1.27631,-0.63276 -2.04149,-0.91294c-0.98131,-0.8075 -2.17817,-1.38469 -3.43484,-1.8978c-0.27505,-3.97216 -0.72182,-7.73978 -1.47642,-9.48795z" data-paper-data="{&quot;index&quot;:null}" fill="#bd2222" stroke="none" stroke-width="0.5"/><path d="M295.90481,124.50654c-0.47922,0.44406 -0.92332,-0.03516 -0.92332,-0.03516l-0.17891,-0.1964c-2.18871,-2.01002 -4.45991,-3.4874 -6.76396,-5.09803c0.02973,-0.62136 -0.05539,-1.25517 -0.32148,-1.90974c-0.14139,-0.34783 -0.36492,-0.64943 -0.62229,-0.92905c3.10001,1.40428 6.17324,2.91687 9.14413,4.38292l0.07421,0.02444c0,0 0.61151,0.23004 0.38146,0.84155c-0.23005,0.61151 -0.84156,0.38146 -0.84156,0.38146l-0.1936,-0.0763c-0.28868,-0.14326 -0.57842,-0.28692 -0.86912,-0.43082c0.05057,0.16257 0.04325,0.37089 -0.1498,0.59162c-0.07007,0.08013 -0.1418,0.13577 -0.21276,0.17281c0.42154,0.34663 0.84042,0.70675 1.25621,1.08445l0.25598,0.27292c0,0 0.44406,0.47924 -0.03517,0.92331z" fill="#bd2222" stroke="none" stroke-width="0.5"/><path d="M301.9639,121.17564c0.10389,0.28485 0.217,0.59214 0.33349,0.91542c0.22468,-0.07135 0.53273,0.04045 0.82769,0.32926c0.69872,0.68419 1.04995,3.03388 1.20735,3.93316c0.17692,1.01061 0.64795,2.29844 0.47362,3.23442c-0.081,0.43507 -0.86273,1.11573 -0.99517,1.32195c-0.89203,1.38897 -1.80389,2.79451 -2.98807,3.66645c-0.06543,0.0888 -0.14972,0.14975 -0.25048,0.17362c-0.02452,0.00582 -0.04945,0.00927 -0.0746,0.01048c-0.38373,0.19323 -0.63978,-0.06229 -0.78617,-0.46066c-0.31753,-0.33444 -0.43365,-1.83143 -0.44704,-2.16107c-0.03125,-0.76839 -0.41714,-1.46809 -0.65293,-2.23926c-1.27737,-4.17757 -1.84388,-5.48317 -3.68921,-11.78728c-0.32939,-1.12528 -0.81013,-4.11426 0.71863,-2.78745c0.20003,0.1736 0.31486,0.49684 0.39083,0.86754c0.12146,-0.13918 0.28726,-0.23084 0.5049,-0.26533c0.46988,-0.07441 0.99353,0.32549 1.47137,0.49675c2.07472,0.74368 2.98561,2.09219 3.95579,4.75205z" fill="#ff3b3b" stroke="#000000" stroke-width="0"/></g><g><path d="M264.7604,171.63447c0.48417,-0.57993 0.55172,-1.40661 0.82758,-2.10992c0.11088,-0.952 -0.26529,-2.03654 0.21243,-2.86744c0.93013,-1.61779 3.92278,-2.59508 5.41305,-3.47744c0.01691,-0.01002 0.03376,-0.02 0.05055,-0.02994c2.21564,0.91343 4.2057,2.40567 5.6283,4.1443c0.45006,1.06432 0.51066,2.09606 0.68834,3.15962c-0.45106,1.70489 0.95733,1.93977 0.92996,3.53184c-0.01497,0.87107 -3.78005,3.22455 -4.02654,3.49364c-1.45434,1.58775 -2.28699,4.49382 -2.19795,6.59247c0.00853,0.20106 0.02449,0.3989 0.04738,0.59377c-0.04598,0.09023 -0.08836,0.18247 -0.12694,0.27685c-0.46216,1.13074 0.38438,2.42475 0.36722,3.64617c-0.02778,1.97844 -4.57713,3.14569 -5.98113,3.36151c-7.09411,0.20924 -5.14045,-8.31467 -6.64101,-12.57101c-0.36288,-1.0293 -3.09105,-4.21167 -2.34678,-5.43371c0.44359,-0.72833 1.27203,-1.16107 1.99702,-1.66379c1.61449,1.11324 3.21028,1.68662 5.1585,-0.64694z" fill="#db4747" stroke="#000000" stroke-width="0"/><path d="M273.87111,168.73683c-1.30618,-1.75144 -0.96893,-3.26335 0.13553,-4.08871c1.10139,0.76397 2.0837,1.66579 2.88567,2.64592c0.45006,1.06432 0.51066,2.09606 0.68834,3.15962c-0.45106,1.70489 0.95733,1.93977 0.92996,3.53184c-0.00244,0.14202 -0.10456,0.32343 -0.27485,0.52879c-1.25684,-1.66768 -2.47323,-3.24127 -4.36466,-5.77744z" data-paper-data="{&quot;index&quot;:null}" fill="#db4747" stroke="#000000" stroke-width="0"/><path d="M268.17882,189.80724c0.80487,-0.64509 2.0994,-0.53164 3.56848,0.17601c-1.10903,0.90819 -3.08624,1.5215 -4.36008,1.81119c0.01135,-0.87239 0.26674,-1.56654 0.7916,-1.98721z" fill="#f5bc38" stroke="none" stroke-width="NaN"/><path d="M266.59267,191.94991c-0.69126,0.02039 -1.29663,-0.04214 -1.82765,-0.17556l-3.6039,-4.49658c-0.57076,-2.62495 -0.46498,-5.78714 -1.20946,-7.89886c-0.36288,-1.0293 -3.09105,-4.21167 -2.34678,-5.43371c0.40042,-0.65746 1.11443,-1.07404 1.78287,-1.51867l13.15722,16.41622c-0.38999,1.82415 -4.60957,2.90077 -5.9523,3.10717z" fill="#c74040" stroke="none" stroke-width="0"/><path d="M276.10313,168.26896c-1.58546,-0.17472 -2.24613,-2.27092 -3.26549,-3.49772c-0.42934,-0.51669 -0.84965,-1.01537 -1.26844,-1.4914c2.09288,0.92156 3.96614,2.35579 5.32312,4.01421c0.14699,0.34762 0.25244,0.69176 0.334,1.03467c-0.33558,0.00693 -0.70862,-0.01407 -1.12317,-0.05976z" fill="#e0a00b" stroke="none" stroke-width="0.5"/><path d="M276.18609,167.80399c0.04561,-0.41389 0.10622,-0.78204 0.18587,-1.10769c0.1808,0.19553 0.35444,0.39496 0.52035,0.59773c0.43903,1.03824 0.50745,2.04547 0.67548,3.08148c-0.78354,-0.77278 -1.49131,-1.57687 -1.38171,-2.57153z" data-paper-data="{&quot;index&quot;:null}" fill="#e0a00b" stroke="none" stroke-width="0.5"/><path d="M275.74019,168.821c-1.58442,-1.97686 -3.27516,-3.71821 -5.04784,-5.35646c0.18778,-0.09645 0.36291,-0.1912 0.5211,-0.28485c0.01691,-0.01002 0.03377,-0.01999 0.05055,-0.02994c1.95251,0.80494 3.72982,2.05938 5.098,3.53581c0.12408,0.143 0.24878,0.2836 0.37428,0.42146c0.05273,0.06201 0.10475,0.12436 0.15602,0.18703c0.45006,1.06432 0.51066,2.09606 0.68835,3.15961c-0.05051,0.19091 -0.0777,0.3634 -0.0862,0.52141c-0.58258,-0.71145 -1.17086,-1.42616 -1.75425,-2.15407z" fill="#bd2222" stroke="none" stroke-width="0.5"/><g fill="#cfcfcf" stroke="none" stroke-width="0.5"><path d="M272.49147,178.43769c0.15164,0.0027 0.29202,-0.0042 0.42188,-0.01993c-0.70124,1.24477 -1.18953,2.65255 -1.48571,4.06732l-0.09395,1.44013c0,0 -0.00206,0.03761 0.00043,0.10123c-0.04087,0.06045 -0.08398,0.11318 -0.12962,0.1571c-1.12848,1.08554 -2.5068,0.98277 -3.50949,-0.09247c-0.03371,0.09363 -0.08518,0.15863 -0.18174,0.15899c-0.62349,0.00229 -1.20584,-0.39285 -1.70811,-0.76226c-0.39061,-0.28727 -0.32167,-1.67657 -0.63664,-1.30794c-1.34027,1.56861 -4.02851,0.16959 -3.81221,-2.10136c0.06862,-0.72038 0.95041,-1.9056 1.44951,-2.68338c-0.82238,-0.99612 -1.53419,-1.96934 -1.46432,-3.41298h-0.00004c0.00437,-0.09042 0.01311,-0.18221 0.02598,-0.27513c0.81969,0.06216 1.56848,-0.10445 2.22645,-0.44194c-0.15564,0.3318 -0.25337,0.64502 -0.27141,0.90931c-0.06398,0.93724 0.84326,1.74505 1.37492,2.38269c0,0 0.43065,0.51789 0.1573,1.05584c-0.02084,0.26569 -0.13682,0.46903 -0.13682,0.46903c-0.12836,0.22505 -1.58458,2.40824 -1.393,2.57277c0.22097,0.18978 0.51048,0.56102 0.7658,0.42082c0.34341,-0.18855 0.40308,-0.87388 0.79477,-0.86583c0.63988,0.01316 1.1873,0.51696 1.68701,0.91686c0.34518,0.27623 0.2496,1.33237 0.65406,1.15385c0.39867,-0.17597 0.64907,-0.85933 1.07088,-0.7499c0.62905,0.16322 1.17876,2.00016 1.3762,1.381c0.41761,-1.30945 0.41895,-2.54754 1.14753,-3.84454l0.06319,-0.11079c0,0 0.41594,-0.72925 1.15355,-0.46611zM267.79245,183.67352c0.09055,-0.15236 0.18195,-0.26776 0.10407,-0.19342c-0.04965,0.0474 -0.08107,0.1162 -0.10407,0.19342z"/><path d="M274.1987,174.38774c-1.35667,-2.16395 -4.69326,-4.25364 -7.45342,-4.05263c-0.24614,0.01792 -0.51322,0.11389 -0.78598,0.26665c0.30243,-0.69383 0.49537,-1.45831 0.56197,-2.24447c0.00906,-0.00095 0.01811,-0.00186 0.02715,-0.00271c3.69808,-0.35095 7.78106,2.40925 9.5124,5.33042c0.08269,0.42825 0.15111,0.8634 0.19761,1.29582c-0.69119,0.36917 -1.30685,0.84803 -1.85073,1.40854c0.00607,-0.64236 -0.10723,-1.35291 -0.20902,-2.00163z"/><path d="M267.69572,175.87385c-0.03256,0.2299 -0.16048,0.4767 -0.4904,0.67147c-0.85696,0.50593 -1.36289,-0.35104 -1.36289,-0.35104c-0.07955,-0.1351 -0.20214,-0.33486 -0.33761,-0.56492c-0.02632,-0.03762 -0.04865,-0.0763 -0.06753,-0.11545c-0.35738,-0.61526 -0.76713,-1.39388 -0.71444,-1.75012c0.21591,-1.45991 1.48578,-2.69067 3.06005,-1.83284c1.71318,0.93354 1.23037,3.31949 -0.08719,3.94289z"/><path d="M272.54325,173.94295c1.5398,0.91831 1.1269,2.63785 -0.01977,3.56691c-0.27981,0.22669 -1.15857,0.27039 -1.87007,0.276c-0.04331,0.00369 -0.08797,0.00415 -0.13374,0.00065c-0.26699,0.00053 -0.50133,-0.00332 -0.65811,-0.003c0,0 -0.99516,0.0008 -0.99596,-0.99436c-0.00031,-0.38312 0.14698,-0.61885 0.3283,-0.76393c-0.13418,-1.45143 1.6737,-3.0816 3.34933,-2.08228z" data-paper-data="{&quot;index&quot;:null}"/></g></g><g stroke="none"><path d="M163.36814,223.87045c-7.12162,-3.00546 -11.41103,-9.65783 -11.01828,-16.15534c1.51029,-0.28095 2.56396,-1.32872 3.72874,-2.24137c2.33843,-0.3975 4.31613,-0.49298 6.11348,1.05754c0.45472,0.39228 -0.26598,2.28352 -0.26859,2.30266c-0.24243,1.77772 -0.22058,4.28076 0.4439,5.93745c0.79254,1.97595 3.45795,3.37587 4.14122,5.24373c0.23733,0.64877 -1.42444,2.38833 -1.60778,2.59248c-0.41362,0.46056 -0.83072,0.92092 -1.25137,1.37906c-0.09387,-0.03795 -0.18765,-0.07669 -0.28131,-0.11622z" fill="#bd2222" stroke-width="NaN"/><path d="M156.0786,205.47374c2.33843,-0.3975 4.31613,-0.49298 6.11348,1.05754c0.3688,0.31816 -0.0356,1.62237 -0.20298,2.11406l-6.46273,-2.72739c0.18278,-0.14907 0.36609,-0.29836 0.55223,-0.44421z" fill="#bd2222" stroke-width="0"/><path d="M165.02989,219.8802c-5.83845,-2.46394 -9.04651,-8.5447 -8.11741,-14.53518c1.98084,-0.26778 3.69988,-0.17652 5.2796,1.18627c0.45472,0.39228 -0.26598,2.28352 -0.26859,2.30266c-0.24243,1.77772 -0.22058,4.28076 0.4439,5.93745c0.79254,1.97595 3.45795,3.37587 4.14122,5.24373c0.03812,0.10423 0.02723,0.2366 -0.01866,0.38623c-0.49045,-0.14421 -0.97783,-0.31766 -1.46006,-0.52116z" fill="#db4747" stroke-width="NaN"/><path d="M162.19208,206.53128c0.45472,0.39228 -0.26598,2.28352 -0.26859,2.30266c-0.053,0.38868 -0.09338,0.81203 -0.11715,1.25362c-0.88707,-1.41778 -1.47028,-3.01187 -1.70515,-4.67275c0.72815,0.19037 1.42202,0.53944 2.0909,1.11647z" fill="#bd2222" stroke-width="0"/><path d="M156.58787,212.5448c3.87594,1.39775 3.76965,1.77663 3.76965,1.77663l-0.13604,0.48503c-0.66134,2.22834 -1.81092,4.29213 -2.44071,6.53754c0,0 -0.10627,0.37889 -3.9822,-1.01888c-3.87594,-1.39775 -3.76965,-1.77665 -3.76965,-1.77665c0.62963,-2.24487 1.84894,-4.28492 2.44069,-6.53756l0.13604,-0.48502c0,0 0.10627,-0.37888 3.98222,1.01888z" fill="#fc9b2d" stroke-width="0.5"/></g><g stroke="none"><path d="M181.16625,243.97485c1.35576,-0.85099 2.72504,-1.81338 4.18977,-2.44339c-2.169,2.81187 -5.15649,4.79645 -8.58289,5.46202c1.46677,-0.8912 3.09337,-2.20281 4.39312,-3.01863z" fill="#e0a00b" stroke-width="NaN"/><path d="M181.16625,243.97485c2.76206,-1.7337 5.58025,-3.92978 9.14728,-2.83567c1.07023,0.32827 1.63412,1.57337 2.62425,2.09566c1.24628,0.65741 2.60127,1.09631 3.83803,1.77144c0.15892,0.08259 0.81424,0.42652 1.507,0.78317l-21.7218,1.33058c1.52042,-0.88941 3.24249,-2.2898 4.60525,-3.14518z" fill="#db4747" stroke-width="0"/><path d="M190.31352,241.13919c0.69437,0.21298 1.17558,0.81188 1.69835,1.34892l-9.42288,0.57721c2.32323,-1.47801 4.76637,-2.83348 7.72453,-1.92613z" fill="#ffb80e" stroke-width="0"/><path d="M190.31352,241.13919c0.10704,0.03283 0.20902,0.07485 0.30687,0.12438c-1.96162,0.94616 -4.93022,1.68613 -8.3321,1.99398c2.41363,-1.54879 4.93918,-3.06494 8.02523,-2.11835z" fill="#f3ae0c" stroke-width="NaN"/><path d="M190.31352,241.13919c0.77271,0.23701 1.28146,0.95195 1.87727,1.52771l-9.92996,0.60827c2.42193,-1.55487 4.95493,-3.08616 8.05269,-2.13598z" fill="#db4747" stroke-width="0"/><path d="M173.94212,247.69774c0.51234,-0.19849 1.14299,0.14518 1.64665,-0.07438c1.57673,-0.6874 3.56417,-2.3136 5.16761,-3.38271l12.64144,-0.77436c1.11471,0.53645 2.29193,0.94715 3.37797,1.54c0.35379,0.18386 3.16771,1.6629 3.37807,1.69413c1.84494,0.27392 5.41858,-1.24406 6.4705,0.8547l-34.41357,2.10802c0.55772,-0.70208 0.91656,-1.64977 1.73132,-1.96541z" fill="#7e1717" stroke-width="0"/></g><g stroke="none"><path d="M272.67391,252.04632c0.32918,-0.12723 0.68361,0.22356 1.03644,0.21601c0.50797,-0.01088 0.99469,-0.32264 1.50007,-0.27036c2.87101,0.29701 2.90281,4.17302 4.89711,5.56439c0.58934,0.41117 1.41284,0.2635 2.11925,0.39525c0.57394,0.44245 1.0213,1.03448 1.37145,1.70278c-4.59458,0.16092 -9.14319,-2.04451 -12.37542,-5.85935c0.42848,-0.82327 0.9068,-1.53834 1.45111,-1.74871z" fill="#e0a00b" stroke-width="NaN"/><path d="M269.67423,263.74186c-0.04275,-0.8168 0.71189,-1.61299 0.49848,-2.40257c-0.28054,-1.03792 -2.29803,-1.1897 -2.29658,-2.26487c0.00144,-1.06844 1.39583,-1.62577 1.98217,-2.51895c0.73258,-1.11595 1.61302,-4.04436 2.81563,-4.50915c0.32918,-0.12723 0.68361,0.22356 1.03644,0.21601c0.50797,-0.01088 0.99469,-0.32264 1.50007,-0.27036c2.87101,0.29701 2.90281,4.17302 4.89711,5.56439c0.58934,0.41117 1.41284,0.2635 2.11925,0.39525c0.68277,0.52635 1.18638,1.26435 1.56032,2.09064l-13.99388,4.55772c-0.06311,-0.30081 -0.10489,-0.58861 -0.119,-0.85812z" fill="#db4747" stroke-width="0"/><path d="M272.67391,252.04632c0.32918,-0.12723 0.68361,0.22356 1.03644,0.21601c0.50797,-0.01088 0.99469,-0.32264 1.50007,-0.27036c2.78022,0.2876 2.89796,3.93145 4.71365,5.42513c-3.3563,0.46468 -6.68809,-0.36351 -9.39077,-2.17703c0.59229,-1.28491 1.28489,-2.86301 2.14062,-3.19374z" fill="#ffb80e" stroke-width="NaN"/><path d="M267.87612,259.07442c0.00144,-1.06844 1.39583,-1.62577 1.98217,-2.51895c0.73258,-1.11595 1.61302,-4.04436 2.81563,-4.50915c0.32918,-0.12723 0.68361,0.22356 1.03644,0.21601c0.50797,-0.01088 0.99469,-0.32264 1.50007,-0.27036c2.78671,0.28828 2.8985,3.94847 4.72639,5.43555l-10.18432,3.31697c-0.67766,-0.56086 -1.87748,-0.84083 -1.87637,-1.67007z" fill="#ffb80e" stroke-width="0"/><path d="M279.70886,257.76197c-5.09298,1.65876 -9.7655,1.99907 -11.79598,1.01895c0.22419,-0.88472 1.41518,-1.41777 1.9454,-2.22546c0.64801,-0.9871 1.41169,-3.39231 2.41169,-4.25621c0.18395,-0.09433 0.37154,-0.18795 0.5626,-0.28073c0.28307,0.00297 0.58099,0.25016 0.87777,0.24379c0.50797,-0.01088 0.99469,-0.32264 1.50007,-0.27036c2.87101,0.29701 2.90281,4.17302 4.89711,5.56439c0.02436,0.01699 0.04911,0.03303 0.07425,0.04818c-0.15652,0.05325 -0.31417,0.10574 -0.47291,0.15745z" fill="#f3ae0c" stroke-width="NaN"/><path d="M279.86454,257.65022l-9.95355,3.24181c-0.62641,-0.66533 -2.03607,-0.91883 -2.03487,-1.81763c0.00144,-1.06844 1.39583,-1.62577 1.98217,-2.51895c0.73258,-1.11595 1.61302,-4.04436 2.81563,-4.50915c0.32918,-0.12723 0.68361,0.22356 1.03644,0.21601c0.50797,-0.01088 0.99469,-0.32264 1.50007,-0.27036c2.67939,0.27718 2.88592,3.67154 4.52257,5.25437z" fill="#db4747" stroke-width="0"/><path d="M276.01016,256.91639c-2.23804,0.72892 -4.53586,0.75967 -6.6577,0.21216c0.19348,-0.18014 0.37101,-0.36774 0.50582,-0.5731c0.73258,-1.11595 1.61302,-4.04436 2.81563,-4.50915c0.32918,-0.12723 0.68361,0.22356 1.03644,0.21601c0.50797,-0.01088 0.99469,-0.32264 1.50007,-0.27036c1.9634,0.20311 2.59897,2.08005 3.44242,3.69147c-0.80952,0.50683 -1.69347,0.92381 -2.64268,1.23297z" fill="#bd2222" stroke-width="0"/><path d="M275.07714,252.53526c-1.08559,0.35358 -2.19522,0.42645 -3.2503,0.25859c0.26391,-0.35923 0.54536,-0.63092 0.84707,-0.74753c0.32918,-0.12723 0.68361,0.22356 1.03644,0.21601c0.50797,-0.01088 0.99469,-0.32264 1.50007,-0.27036c0.2792,0.02888 0.53155,0.09162 0.76147,0.18261c-0.28569,0.13871 -0.58425,0.25956 -0.89475,0.36068z" fill="#bd2222" stroke-width="0"/><path d="M269.67423,263.74186c-0.03602,-0.68849 0.49448,-1.36235 0.53423,-2.02994l11.68166,-3.80465c0.11418,0.01013 0.22683,0.02386 0.33666,0.04434c1.24833,0.96234 1.89781,2.63225 2.25075,4.25565l-14.00565,4.56156c-0.41334,-1.08076 -0.75179,-2.15064 -0.79765,-3.02695z" fill="#7e1717" stroke-width="0"/></g><g stroke="none"><path d="M315.69683,226.4298c-0.27317,-0.745 -0.80995,-1.6642 -0.60884,-2.52606c0.61416,-2.6318 2.56779,-2.7282 3.89856,-4.80195c0.98224,-1.53064 0.2598,-7.12084 2.58601,-7.59142c0.0479,-0.00969 0.73249,0.15331 1.39068,0.3149c2.89985,5.81072 1.46687,13.49844 -3.84653,18.91918l-0.89425,-0.23489c0,0 -0.16308,-0.00684 -0.3839,0.03778c-0.89156,-1.21242 -1.58721,-2.60521 -2.14174,-4.11756z" fill="#bd2222" stroke-width="NaN"/><path d="M315.08799,223.90374c0.58072,-2.48848 2.35899,-2.71018 3.67593,-4.48003c-0.36194,2.47389 -1.40792,4.86128 -3.12505,6.85458c-0.28362,-0.716 -0.73858,-1.57024 -0.55089,-2.37455z" fill="#db4747" stroke-width="NaN"/><path d="M325.2523,225.06155c-2.99088,2.8461 -3.26687,2.56957 -3.26687,2.56957l-0.35329,-0.354c-1.60639,-1.65931 -2.84591,-3.68256 -4.48152,-5.32142c0,0 -0.27601,-0.27653 2.71487,-3.12265c2.99088,-2.8461 3.26687,-2.56957 3.26687,-2.56957c1.63522,1.63844 2.82213,3.71357 4.48152,5.32142l0.35331,0.35399c0,0 0.276,0.27652 -2.71489,3.12262z" fill="#fcbb71" stroke-width="0.5"/></g></g></g></svg>