<svg version="1.1" xmlns="http://www.w3.org/2000/svg" xmlns:xlink="http://www.w3.org/1999/xlink" width="565.35513" height="152.28316" viewBox="0,0,565.35513,152.28316"><g transform="translate(42.03963,-261.49848)"><g data-paper-data="{&quot;isPaintingLayer&quot;:true}" fill-rule="nonzero" stroke="none" stroke-width="0.5" stroke-linecap="butt" stroke-linejoin="miter" stroke-miterlimit="10" stroke-dasharray="" stroke-dashoffset="0" style="mix-blend-mode: normal"><path d="M518.87989,312.22461c-0.35913,0.59197 -4.08501,4.43679 -5.07658,5.36032c-1.18012,1.09914 -2.16268,2.50788 -3.60806,3.2232c-5.18748,2.56729 -11.11832,2.07524 -16.69524,1.9735c-1.47321,-0.02687 -2.98132,0.19047 -4.41831,-0.13533c-1.75063,-0.3969 -3.258,-1.56679 -5,-2c-1.06926,-0.26591 -2.24457,0.23446 -3.30484,-0.06531c-1.43448,-0.40557 -2.56701,-1.58921 -4,-2c-2.61321,-0.74912 -5.5629,0.47386 -8.14698,-0.37027c-0.8962,-0.29276 -1.10624,-1.69986 -2,-2c-0.90909,-0.30529 -1.92006,0.59214 -2.85302,0.37027c-1.45027,-0.34489 -2.66667,-1.33333 -4,-2c-1.89839,0.02177 -3.82697,0.40325 -5.69516,0.06531c-1.76639,-0.31953 -3.258,-1.56679 -5,-2c-1.06926,-0.26591 -2.24457,0.23446 -3.30484,-0.06531c-1.43448,-0.40557 -2.53926,-1.70256 -4,-2c-1.63922,-0.33379 -3.35613,0.37305 -5.01589,0.16413c-3.7425,-0.47107 -7.44975,-1.24822 -11.10158,-2.19286c-4.15182,-1.07398 -8.05923,-3.06557 -12.27461,-3.85401c-2.5836,-0.48324 -5.25641,0.06958 -7.88478,0.08338c0,0 -12.83333,0 -14,0c-2.42654,0 -4.98017,-0.98379 -7.27685,-0.20063c-1.41094,0.48112 -2.55457,1.63536 -4,2c-2.68427,0.67717 -5.5996,-0.5225 -8.30484,0.06531c-1.75412,0.38114 -3.24685,1.61439 -5,2c-1.05813,0.23274 -2.20448,-0.48863 -3.24493,-0.18648c-1.15417,0.33517 -1.82217,1.76092 -3,2c-2.4341,0.49407 -5.00805,-0.33124 -7.45023,0.12118c-1.46577,0.27154 -2.55274,1.64271 -4,2c-1.46371,0.36135 -3.01452,0.06919 -4.52178,0.10379c-1.07535,0.40764 -2.1633,0.78549 -3.25997,1.14255c1.22657,-4.11467 2.05631,-8.45435 3.91891,-12.25099c0.76063,-1.55044 2.10391,-2.75669 2.92687,-4.27497c0.75087,-1.38527 0.9174,-3.08374 1.86207,-4.34483c5.34507,-7.13546 10.21019,-8.29257 17.27913,-12.16471c2.12076,-1.16168 3.4635,-3.40358 5.43146,-4.80866c2.00258,-1.4298 3.6208,-1.30268 5.38358,-2.36034c0.41784,-0.2507 6.87752,-5.15863 7.79822,-5.23025c8.68563,-0.67569 10.19676,0.13596 19.8164,-1.0616c3.53518,-0.4401 6.85944,-2.6419 10.40969,-2.93227c5.60504,1.68311 11.19982,3.42378 17.05067,4.1461c5.88388,0.7264 11.94481,-0.08065 17.75028,1.1211c3.27399,0.67773 6.31296,2.2166 9.52825,3.13322c3.87286,1.10408 7.81474,1.94989 11.72211,2.92483c3.69912,0.94409 7.33705,2.17283 11.09736,2.83226c1.73524,0.3043 3.55556,-0.29508 5.28499,0.04065c6.76198,1.3127 7.79282,2.81122 13.66876,5.47406c1.47447,0.6682 2.96082,1.17175 4.45219,1.64811c1.63898,0.16233 2.98442,0.82899 3.55012,1.14911c1.16186,0.40373 2.32349,0.85678 3.48167,1.42367l-1.3541,-0.7918c0,0 5.07314,0 6.87464,4.17238c4.41357,5.64508 2.93062,14.90599 -0.49476,20.55223z" fill="#fffaae"/><path d="" fill="#fffaae"/><path d="M153.498,320.50953c-1.7745,-0.47413 -3.38487,-1.53964 -5.19936,-1.82471c-3.94301,-0.61947 -8.10265,0.75438 -11.97201,-0.22497c-1.16511,-0.29489 -1.87125,-1.58725 -3,-2c-0.55196,-0.20184 -1.16438,0.36862 -1.74299,0.26562c-2.70619,-0.48174 -5.28111,-1.59606 -8,-2c-4.55753,-0.6771 -9.22816,0.36631 -13.82266,0.01969c-1.69486,-0.12786 -3.30777,-0.8411 -5,-1c-5.9409,-0.55785 -12.28805,0.0365 -18.26097,0.0365c-9,0 -18,0 -27,0c-2.52763,0 -5.1272,-0.73899 -7.58169,-0.13533c-1.74311,0.42871 -3.24937,1.6031 -5,2c-3.38653,0.7678 -7.1456,-0.56208 -10.50193,0.07913c-2.3057,0.44049 -4.55893,1.12443 -6.81947,1.75709c-5.51023,1.54218 -11.33945,3.43244 -16.33246,6.28592c-3.59702,2.05568 -6.47279,5.24302 -10.19217,7.10778c-4.31812,2.16495 -8.96307,3.70446 -13.65591,4.8492c-8.72123,0.09968 -21.13677,2.2144 -27.53896,-5.48029c-4.58714,-5.51321 -3.87741,-10.52089 -3.87741,-16.96352c0,-0.43631 -0.08488,-9.62701 0.20063,-10.72315c0.47611,-1.82785 1.64431,-3.40322 2.37027,-5.14698c1.052,-2.5269 0.99769,-4.51539 2.54922,-7.07286c0.70983,-1.17005 1.79012,-2.09702 2.8853,-2.9932c-0.00359,-0.11334 -0.00542,-0.22848 -0.00542,-0.34544c0,-4.88452 3.18114,-6.5879 5.39986,-7.18192c0.20587,-0.23749 0.44067,-0.44759 0.71481,-0.62077c2.11918,-1.33869 4.92355,-0.94379 7.38533,-1.41568c0,0 1.70281,0 3.48569,0.81137c6.30681,-1.18749 12.40994,-3.29966 18.70642,-4.87184c3.96655,-0.99041 8.01184,-1.67966 12.06886,-2.18466c0.76835,-0.09564 1.5707,0.29109 2.32073,0.09883c3.84947,-0.98677 7.30347,-3.3479 11.21694,-4.03848c1.96957,-0.34755 4.02721,0.3288 6,0c2.0795,-0.34658 3.92551,-1.62459 6,-2c1.46928,-0.26589 3.02108,0.42969 4.47822,0.10379c1.45477,-0.32537 2.53972,-1.70032 4,-2c5.7376,-1.17749 11.93875,0.66499 17.68289,-0.12814c2.4039,-0.33192 4.66667,-1.33333 7,-2c5.21637,-0.04183 10.43267,-0.06052 15.649,-0.06851c2.18489,0.10739 4.18802,0.03594 6.08827,-0.00519c0.72985,-0.00021 1.4597,-0.00031 2.18956,-0.00033c0.3852,0.13966 0.77776,0.264 1.17692,0.37228c1.2545,0.34028 2.57429,0.52186 3.93649,0.52186c0.40725,0 0.81071,-0.01623 1.20976,-0.04808c1.18358,0.38215 2.37664,0.92468 3.60269,1.68994c2.47806,1.54671 5.28435,2.36262 7.84064,3.72054c5.42479,2.8817 10.76436,7.69063 15.22143,11.72531c6.6057,5.97969 9.00998,11.43347 13.51887,18.51887c1.65417,2.5994 4.93029,3.87309 6.78995,6.21005c1.54532,1.94194 2.20645,4.35073 3.3359,6.50385c1.40098,2.67074 4.28946,5.60895 5.10333,8.50959c0.22039,0.78549 0.42468,1.58982 0.6139,2.41057c-1.76123,-0.30597 -3.51131,-0.66226 -5.23847,-1.12373z" fill="#fffaae"/><path d="M147.08772,322.00359c1.65697,2.31688 4.31824,7.62499 -0.98987,12.93309c-7.07107,7.07107 -14.14214,0 -14.14214,0l-4.31212,-5.38862c-0.25373,-2.34781 -0.84883,-4.68357 -0.7612,-7.04342c0.01707,-0.45971 1.36461,-0.54794 1.05573,-0.88884c-0.73466,-0.8108 -2.28399,-0.4735 -3.02202,-1.28124c-1.23494,-1.35159 -1.59432,-3.30587 -2.57929,-4.84915c-0.73235,-1.14746 -2.29131,-1.64268 -3.0554,-2.74035c-3.08995,0.65378 -5.61202,-2.5391 -8.66131,-2.88563c-2.66583,-0.30295 -5.36494,0.12913 -8.04793,0.12913c-6.07577,0 -12.15154,0 -18.22731,0c-2.891,0 -7.41527,-0.82452 -10.19232,-0.12913c-2.19268,0.54907 -4.21485,1.71032 -6.43317,2.14439c-0.98392,0.19253 -2.03168,-0.58544 -2.99276,-0.29995c-1.23527,0.36693 -1.97435,1.80178 -3.21658,2.14439c-2.39205,0.65972 -5.03471,-0.36131 -7.43993,0.24864c-3.13326,0.79458 -6.54392,4.09527 -8.78619,5.8524c-1.42959,0 -2.92002,-0.4126 -4.28878,0c-0.6118,0.18442 -0.4576,1.35427 -1.04424,1.60759c-2.54515,1.09905 -5.27943,1.73209 -7.99393,2.29527c-0.70157,0.14556 -1.45413,-0.39693 -2.14089,-0.19259c-1.02732,0.30568 -1.76875,1.24168 -2.75947,1.65069c-6.81115,2.81191 -13.5734,5.69298 -20.37169,8.57756c-1.59507,0.6768 -3.48539,0.57537 -5.00269,1.4121c-1.7704,0.9763 -2.52142,3.30698 -4.28878,4.28878c-7.43141,4.12829 -17.42663,2.56569 -25.62901,2.56569c0,0 -10,0 -10,-10c0,-10 10,-10 10,-10c3.21658,0 6.43317,0 9.64975,0c1.07219,0 2.14465,-0.02345 3.21658,0c0.72998,0.01597 1.46836,-0.01797 2.19329,0.05805c-0.07076,-1.75478 2.72499,-2.94209 4.34354,-3.92553c2.38531,-1.44932 5.30332,-1.76538 7.86364,-2.87668c6.80492,-2.95365 13.46571,-5.88169 20.37169,-8.57756c1.98363,-0.77434 3.76752,-2.06397 5.81808,-2.63808c1.56517,-0.43821 3.51997,0.85453 4.8759,-0.0417c1.17044,-0.77363 1.92276,-2.21075 3.24454,-2.68119c1.34683,-0.47935 2.85919,0 4.28878,0c-0.99602,-1.72643 2.74206,-3.02408 4.53232,-3.90021c5.72189,-2.80021 7.57272,-3.55353 13.23304,-3.29417c1.30845,0.05995 2.27327,-1.36481 3.53533,-1.71531c1.79629,-0.49887 3.75792,0.07162 5.5848,-0.29995c2.21503,-0.45052 4.21756,-1.6967 6.43317,-2.14439c5.44115,-1.09945 12.13342,-0.12913 17.68474,-0.12913c8.12849,0 17.18299,-1.10164 25.1901,0.12913c3.11338,0.47856 5.81531,2.48656 8.86681,3.26789c1.67431,0.42871 3.43489,0.38718 5.15234,0.58077c3.38324,2.70735 8.14933,6.09988 10.71875,9.82486c0.77631,1.12544 0.84377,2.6702 1.70948,3.72841c1.59919,1.95475 4.53609,2.84125 5.55553,5.15192c1.01022,2.28976 2.16029,8.23305 1.26105,9.33205z" fill="#f5efa6"/><path d="M501.4285,337.86562c-6.17267,0 -8.53516,-3.81019 -9.43936,-6.72676c-1.30862,-1.63205 -2.54371,-3.28743 -4.06488,-4.77973c-0.89878,-0.88173 -1.30532,-2.38745 -2.47502,-2.85334c-3.67498,-1.46373 -7.52981,-2.4504 -11.19231,-3.94506c-2.435,-1.72769 -5.39807,-2.84218 -8.36048,-3.21392c-2.03443,-0.25529 -4.15842,0.35905 -6.1498,-0.1293c-2.90764,-0.71304 -5.44492,-2.53585 -8.30647,-3.4158c-7.43911,-2.28758 -15.24108,-1.74095 -22.9209,-1.74095c-4.3769,0 -9.47833,-0.69128 -13.78889,-0.07492c-3.56859,0.51026 -6.79922,2.49587 -10.34195,3.16238c-0.81124,0.15262 -7.28473,0.12913 -9.10718,0.12913c0,0 -10,0 -10,-10c0,-10 10,-10 10,-10c1.96832,0 3.98129,0.55247 5.90354,0.12913c3.76762,-0.82976 7.28277,-2.72542 11.10193,-3.27078c5.17954,-0.73963 10.9922,-0.07492 16.23255,-0.07492c9.61539,0 19.22027,-0.32288 28.54444,2.54783c2.34216,0.7211 4.33022,2.40934 6.70425,3.01737c1.47699,0.37828 3.07031,-0.39209 4.57215,-0.1293c5.30105,0.92758 10.68983,2.4708 15.22779,5.36363c4.11357,1.59257 8.51657,2.53296 12.39596,4.63249c5.30624,2.87175 8.35794,9.24583 12.5357,13.22958l2.92893,8.14326c0,0 0,10 -10,10z" fill="#f5efa6"/><path d="M509.87627,358.8057c0.31795,1.18781 0.31795,2.09967 0.31795,2.09967v3.21658c-0.10727,1.79665 0.17398,3.65974 -0.32181,5.38996c-0.35497,1.23876 -1.8935,1.95262 -2.14439,3.21658c-0.40588,2.04477 0.45159,4.172 0.26562,6.24835c-0.31238,3.4878 -2.35837,10.71916 -4.28051,13.74855c-3.35694,5.29073 -9.60693,7.74754 -14.87888,10.29974c-1.51519,0.73351 -2.74561,2.04019 -4.33834,2.58521c-1.01444,0.34713 -2.18963,-0.30817 -3.21658,0c-0.69609,0.20888 -0.98988,1.10068 -1.62551,1.45302c-2.03688,1.12908 -4.08113,2.35199 -6.33008,2.95693c-1.69812,0.45677 -3.52617,-0.03895 -5.27289,0.16413c-1.81018,0.21045 -3.54922,0.8756 -5.36097,1.07219c-1.19659,0.12984 -2.436,-0.36643 -3.6095,-0.09883c-1.87648,0.4279 -3.47589,1.75612 -5.36097,2.14439c-4.31383,0.88853 -8.80807,0.13533 -13.21245,0.13533c-65.40386,0 -130.80772,0 -196.21158,0c-46.81916,0 -93.63831,0 -140.45747,0c-11.08292,0 -22.16583,0 -33.24875,0c-8.7985,0 -17.6357,0.79415 -26.39549,-0.03031c-4.10203,-0.38607 -8.08653,-1.60544 -12.1654,-2.18721c-6.55077,-0.93435 -13.16595,-1.344 -19.74165,-2.08274c-8.60637,-0.04806 -16.20935,-1.25387 -24.10156,-4.9355c-2.064,-0.96283 -4.28427,-1.75578 -6.02196,-3.22805c-1.68858,-1.43066 -6.84039,-8.70056 -7.73356,-11.09012c-0.29552,-0.79062 0.51619,-1.71918 0.24909,-2.51984c-0.15231,-0.45657 -1.04758,-0.21915 -1.29961,-0.62919c-1.34753,-2.19239 -2.65442,-4.47602 -3.35944,-6.95096c-0.50074,-1.75783 -0.00608,-3.66097 -0.18176,-5.48026c-0.48478,-5.02025 -2.07108,-9.08362 -0.52016,-14.12374c0.2973,-0.96617 1.60451,-1.28976 2.14439,-2.14439c0.11889,-0.1882 -0.55035,-0.12481 -0.5709,-0.34646c-0.16019,-1.72774 -0.4009,-3.53129 0.05619,-5.20515c0.88424,-3.2381 1.50508,-6.93243 3.90041,-9.28394c1.43951,-1.41318 4.19929,0.37109 6.03358,-0.46834c0.69539,-0.31823 -0.4627,-1.68767 0.00306,-2.29422c1.44543,-1.88237 3.22397,-3.65084 5.35858,-4.68816c1.28581,-0.62484 2.90663,0.36524 4.28878,0c0.46533,-0.12297 0.41946,-0.86641 0.62919,-1.29961c1.42959,-0.7148 2.94614,-1.27723 4.28878,-2.14439c1.32311,-0.85455 2.17767,-2.45552 3.65959,-2.98917c2.024,-0.72887 4.78308,0.85806 6.4325,-0.52298c1.65275,-1.38383 2.87283,-1.17317 4.69659,-2.26571c0.2129,-0.12755 6.99823,-2.64017 10.12416,-3.087c0.67004,-0.09578 4.69973,-1.2583 5.55161,-1.62968c2.57285,-1.12164 6.34954,-2.45184 8.84558,-3.38017c4.349,-1.61748 5.92896,-2.18136 10.32684,-3.37265c4.20373,-1.13869 6.22446,-2.04211 10.47627,-2.98559c1.65627,-0.36752 5.22417,-1.36765 6.91305,-1.52888c3.08629,-0.29463 6.60433,-0.83572 9.67518,-1.26218c3.75501,-0.52146 7.48909,-0.90776 11.31512,-0.90776c2.57573,0.04292 5.09966,-0.74245 7.66118,-1.016c10.74757,-1.14776 22.28476,-0.05619 33.08221,-0.05619c5.64705,0 10.50361,-1.07579 15.98859,0.32181c1.24871,0.31818 5.13577,1.73159 6.35648,2.14439c0.87436,0.29567 4.61931,1.69193 6.18293,2.02321c2.4748,0.52433 5.13098,-0.26306 7.58015,0.37027c0.97868,0.25308 9.02702,1.29117 11.0974,1.8953c1.25158,0.36521 6.76091,4.1205 8.42004,5.22659c2.06219,2.02339 6.85372,1.47056 9.59584,2.5981c1.58678,0.65247 8.99173,3.65668 10.55791,4.21854c1.31651,0.47228 7.69168,3.70986 9.65042,4.83799c2.77817,1.60008 5.16435,4.62199 8.50211,5.51368c0.93793,0.25057 6.38544,1.70163 8.27271,2.07908c1.75229,0.35046 5.87638,0.87061 7.62867,1.22107c1.88727,0.37746 8.6359,1.72265 10.0967,1.91638c3.46771,0.45988 7.36621,-0.05619 10.87776,-0.05619c8.57756,0 17.15511,0 25.73267,0c3.56329,0 7.16223,-0.12352 10.72194,0c0.50199,0.01742 1.01734,0.36068 1.49344,0.20063c1.51502,-0.50929 6.18077,-1.72753 7.05513,-2.02321c1.22071,-0.4128 9.32143,-1.54881 12.24437,-2.26557c1.55234,-0.38067 7.49818,-1.87454 8.57756,-2.14439c1.55061,-0.38765 6.98431,-2.09448 8.31214,-2.28883c3.50472,-0.51298 6.54542,-2.533 10.08735,-2.56471c2.01528,0.27074 4.29022,-0.00666 6.26098,-0.50744c1.01788,-0.25865 7.93319,-0.20063 9.22851,-0.20063c0.54926,0 9.93102,-0.01929 10.56612,0.05619c1.46329,0.17391 2.8324,0.84762 4.28878,1.07219c2.7162,0.41883 5.98158,-0.05619 8.73338,-0.05619c6.43317,0 12.86633,0 19.2995,0c5.00226,0 11.00022,-0.67367 15.9271,0.05619c2.91537,0.43188 5.66756,1.67775 8.57756,2.14439c3.58023,0.57412 7.25179,-0.05619 10.87776,-0.05619c2.0289,0.1903 4.15148,-0.0675 6.08671,0.5709c0.95999,0.31668 6.04833,0.08237 7.64551,0.48822c1.5491,0.39364 4.22917,0.7241 5.789,1.07281c1.57457,0.352 5.64841,1.47117 6.76987,1.61135c1.77319,0.22165 3.80424,0.619 5.57528,0.85726c2.48449,0.33425 4.0963,1.31681 6.57743,1.67511c1.47849,0.21351 4.11971,1.1048 5.54517,1.55152c1.22964,0.38536 5.79743,0.90625 6.84581,1.35019c1.91921,0.81271 4.60471,0.4037 6.42626,1.41652c2.36344,1.31411 6.38393,3.02617 8.48895,3.47998c2.34399,0.50533 4.4854,1.69699 6.7281,2.54549c0,0 6.56488,2.62595 4.39662,9.15268z" data-paper-data="{&quot;index&quot;:null}" fill="#d59213"/><path d="M-17.90739,345.80564c-2.16826,-6.52673 4.39662,-9.15268 4.39662,-9.15268c2.2427,-0.8485 4.38411,-2.04016 6.7281,-2.54549c2.10502,-0.45381 6.12551,-2.16587 8.48895,-3.47998c1.82155,-1.01282 4.50705,-0.60381 6.42626,-1.41652c1.04838,-0.44394 5.61617,-0.96483 6.84581,-1.35019c1.42546,-0.44672 4.06668,-1.33801 5.54517,-1.55152c2.48113,-0.3583 4.09294,-1.34086 6.57743,-1.67511c1.77104,-0.23826 3.80209,-0.63561 5.57528,-0.85726c1.12146,-0.14018 5.1953,-1.25935 6.76987,-1.61135c1.55983,-0.34871 4.2399,-0.67917 5.789,-1.07281c1.59718,-0.40585 6.68552,-0.17154 7.64551,-0.48822c1.93523,-0.6384 4.05781,-0.3806 6.08671,-0.5709c3.62597,0 7.29753,0.63031 10.87776,0.05619c2.91,-0.46664 5.66219,-1.71251 8.57756,-2.14439c4.92688,-0.72986 10.92484,-0.05619 15.9271,-0.05619c6.43317,0 12.86633,0 19.2995,0c2.7518,0 6.01718,0.47502 8.73338,0.05619c1.45638,-0.22457 2.82549,-0.89828 4.28878,-1.07219c0.6351,-0.07548 10.01686,-0.05619 10.56612,-0.05619c1.29532,0 8.21063,-0.05802 9.22851,0.20063c1.97076,0.50078 4.2457,0.77818 6.26098,0.50744c3.54193,0.03171 6.58263,2.05173 10.08735,2.56471c1.32783,0.19435 6.76153,1.90118 8.31214,2.28883c1.07938,0.26985 7.02522,1.76372 8.57756,2.14439c2.92294,0.71676 11.02366,1.85277 12.24437,2.26557c0.87436,0.29568 5.54011,1.51392 7.05513,2.02321c0.4761,0.16005 0.99145,-0.18321 1.49344,-0.20063c3.55971,-0.12352 7.15865,0 10.72194,0c8.57756,0 17.15511,0 25.73267,0c3.51155,0 7.41005,0.51607 10.87776,0.05619c1.4608,-0.19373 8.20943,-1.53892 10.0967,-1.91638c1.75229,-0.35046 5.87638,-0.87061 7.62867,-1.22107c1.88727,-0.37745 7.33478,-1.82851 8.27271,-2.07908c3.33776,-0.89169 5.72394,-3.9136 8.50211,-5.51368c1.95874,-1.12813 8.33391,-4.36571 9.65042,-4.83799c1.56618,-0.56186 8.97113,-3.56607 10.55791,-4.21854c2.74212,-1.12754 7.53365,-0.57471 9.59584,-2.5981c1.65913,-1.10609 7.16846,-4.86138 8.42004,-5.22659c2.07038,-0.60413 10.11872,-1.64222 11.0974,-1.8953c2.44917,-0.63333 5.10535,0.15406 7.58015,-0.37027c1.56362,-0.33128 5.30857,-1.72754 6.18293,-2.02321c1.22071,-0.4128 5.10777,-1.82621 6.35648,-2.14439c5.48498,-1.3976 10.34154,-0.32181 15.98859,-0.32181c10.79745,0 22.33464,-1.09157 33.08221,0.05619c2.56152,0.27355 5.08545,1.05892 7.66118,1.016c3.82603,0 7.56011,0.3863 11.31512,0.90776c3.07085,0.42646 6.58889,0.96755 9.67518,1.26218c1.68888,0.16123 5.25678,1.16136 6.91305,1.52888c4.25181,0.94348 6.27254,1.8469 10.47627,2.98559c4.39788,1.19129 5.97784,1.75517 10.32684,3.37265c2.49604,0.92833 6.27273,2.25853 8.84558,3.38017c0.85188,0.37138 4.88157,1.5339 5.55161,1.62968c3.12593,0.44683 9.91126,2.95945 10.12416,3.087c1.82376,1.09254 3.04384,0.88188 4.69659,2.26571c1.64942,1.38104 4.4085,-0.20589 6.4325,0.52298c1.48192,0.53365 2.33648,2.13462 3.65959,2.98917c1.34264,0.86716 2.85919,1.42959 4.28878,2.14439c0.20973,0.4332 0.16386,1.17664 0.62919,1.29961c1.38215,0.36524 3.00297,-0.62484 4.28878,0c2.13461,1.03732 3.91315,2.80579 5.35858,4.68816c0.46576,0.60655 -0.69233,1.97599 0.00306,2.29422c1.83429,0.83943 4.59407,-0.94484 6.03358,0.46834c2.39533,2.35151 3.01617,6.04584 3.90041,9.28394c0.45709,1.67386 0.21638,3.47741 0.05619,5.20515c-0.02055,0.22165 -0.68979,0.15826 -0.5709,0.34646c0.53988,0.85463 1.84709,1.17822 2.14439,2.14439c1.55092,5.04012 -0.03538,9.10349 -0.52016,14.12374c-0.17568,1.81929 0.31898,3.72243 -0.18176,5.48026c-0.70502,2.47494 -2.01191,4.75857 -3.35944,6.95096c-0.25203,0.41004 -1.1473,0.17262 -1.29961,0.62919c-0.2671,0.80066 0.54461,1.72922 0.24909,2.51984c-0.89317,2.38956 -6.04498,9.65946 -7.73356,11.09012c-1.73769,1.47227 -3.95796,2.26522 -6.02196,3.22805c-7.89221,3.68163 -15.49519,4.88744 -24.10156,4.9355c-6.5757,0.73874 -13.19088,1.14839 -19.74165,2.08274c-4.07887,0.58177 -8.06337,1.80114 -12.1654,2.18721c-8.75979,0.82446 -17.59699,0.03031 -26.39549,0.03031c-11.08292,0 -22.16583,0 -33.24875,0c-46.81916,0 -93.63831,0 -140.45747,0c-65.40386,0 -130.80772,0 -196.21158,0c-4.40438,0 -8.89862,0.7532 -13.21245,-0.13533c-1.88508,-0.38827 -3.48449,-1.71649 -5.36097,-2.14439c-1.1735,-0.2676 -2.41291,0.22867 -3.6095,0.09883c-1.81175,-0.19659 -3.55079,-0.86174 -5.36097,-1.07219c-1.74672,-0.20308 -3.57477,0.29264 -5.27289,-0.16413c-2.24895,-0.60494 -4.2932,-1.82785 -6.33008,-2.95693c-0.63563,-0.35234 -0.92942,-1.24414 -1.62551,-1.45302c-1.02695,-0.30817 -2.20214,0.34713 -3.21658,0c-1.59273,-0.54502 -2.82315,-1.8517 -4.33834,-2.58521c-5.27195,-2.5522 -11.52194,-5.00901 -14.87888,-10.29974c-1.92214,-3.02939 -3.96813,-10.26075 -4.28051,-13.74855c-0.18597,-2.07635 0.6715,-4.20358 0.26562,-6.24835c-0.25089,-1.26396 -1.78942,-1.97782 -2.14439,-3.21658c-0.49579,-1.73022 -0.21454,-3.59331 -0.32181,-5.38996v-3.21658c0,0 0,-0.91186 0.31795,-2.09967z" fill="#d59213"/><path d="M-0.82353,368.04598c-0.04498,-0.02342 -0.08994,-0.04739 -0.13485,-0.07192c-1.16184,0.0747 -2.34043,-0.03035 -3.50685,-0.00478c0,0 -7.5,0 -7.5,-7.5c0,-7.5 7.5,-7.5 7.5,-7.5c3.24792,0.15608 5.14357,-1.48179 8.44838,-2.04754c0.74116,-0.12688 4.22991,-1.53918 5.46115,-1.91942c1.48407,-0.45832 8.20241,-1.14112 10.0119,-1.3575c0.74089,-0.0886 4.95585,-1.65748 6.52125,-1.98026c2.80028,-0.5774 11.31724,-1.75075 12.86634,-2.14439c0.86365,-0.21946 14.51223,-1.84842 16.08292,-2.14439c1.25133,-0.23579 9.81768,-0.20063 12.44509,-0.20063c10.36455,0 20.72909,0 31.09364,0c2.50179,0 13.88287,-1.55012 15.43197,-1.94376c4.19816,-1.06678 10.2991,-0.20063 14.58948,-0.20063c11.43674,0 22.87348,0 34.31022,0c15.72552,0 31.45104,0 47.17656,0c8.98195,0 17.60749,-0.09319 26.4717,1.10869c1.53914,0.20869 3.16687,-0.17301 4.65093,0.28531c1.23124,0.38024 6.01204,0.76746 6.81027,0.96725c1.86705,0.46731 9.18265,2.68127 11.41703,3.32153c1.23876,0.35497 5.81288,1.71397 7.05512,2.02321c1.551,0.3861 6.79396,1.88323 7.9556,2.26557c1.22402,0.40287 4.01596,1.01659 4.37883,0.98918c2.85106,-0.21539 5.59931,0.8334 8.45851,0.8334c2.49443,0 4.00568,0.29025 6.40485,-0.39253c1.2394,-0.35272 3.06077,-1.03736 4.28809,-1.43005c1.33171,-0.42609 6.28438,-1.15182 7.40518,-1.29716c0.901,-0.11685 4.0855,-0.63913 4.54647,-0.98161c1.15909,-0.86114 2.3407,-1.70683 3.61238,-2.39084c2.05102,-1.10319 4.10434,-2.27152 6.33008,-2.95693c0.66978,-0.20626 3.49919,-1.05932 4.21399,-1.77412c5.95654,-0.50544 9.50537,-3.3645 15.60729,-4.76284c1.13778,-0.26074 8.23261,-1.84843 10.72195,-2.14439c0.88131,-0.10478 3.80442,-1.35365 4.76441,-1.67033c1.93523,-0.6384 4.05198,-0.45894 6.08671,-0.5709c5.31504,-0.29246 10.76366,0 16.08292,0c14.502,0 29.00451,-0.03642 43.50638,0.02555c3.73593,0.62266 7.55454,0.61329 11.30471,1.14348c1.11906,0.15821 15.47872,-0.19728 21.34371,1.29716c1.24872,0.31818 6.13593,1.73402 7.50536,2.14439c1.61255,0.48322 5.20773,1.83895 6.71668,2.58521c3.4183,1.69054 5.37027,1.71408 8.74371,3.42745c1.90854,0.96935 3.02321,3.16815 4.96087,4.07791c3.33097,1.56395 6.48719,-0.0392 9.22235,4.49643c5.33318,8.84385 -1.01051,16.40855 -6.69037,21.97953c-2.50927,1.67285 -4.36814,4.5155 -7.24576,5.41781c-7.06016,2.21378 -14.97719,-0.89124 -22.04045,0.47406c-2.2193,0.42898 -4.19408,1.83485 -6.43317,2.14439c-8.85986,1.22483 -19.06228,0.09684 -28.00623,0.09684c-40.02859,0 -80.05718,0 -120.08578,0c-71.12223,0 -142.24446,0 -213.36669,0c-5.77034,0 -11.58212,-0.74725 -17.31093,-0.05619c-2.92597,0.35296 -5.65476,1.76603 -8.57756,2.14439c-0.48935,0.06335 -9.05354,0.05619 -11.63832,0.05619c-6.79056,0 -13.58113,0 -20.37169,0c-6.68113,0 -14.62035,1.15567 -20.85035,-2.0457c-4.73374,-2.4325 -7.20164,-7.03284 -8.74598,-11.81613z" fill="#b97e11"/></g></g></svg>