<svg version="1.1" xmlns="http://www.w3.org/2000/svg" xmlns:xlink="http://www.w3.org/1999/xlink" width="307.08261" height="58.93139" viewBox="0,0,307.08261,58.93139"><g transform="translate(-294.03259,-9.68864)"><g data-paper-data="{&quot;isPaintingLayer&quot;:true}" fill-rule="nonzero" stroke="none" stroke-linecap="butt" stroke-linejoin="miter" stroke-miterlimit="10" stroke-dasharray="" stroke-dashoffset="0" style="mix-blend-mode: normal"><g data-paper-data="{&quot;index&quot;:null}" fill="#fbfbfb"><path d="M413.03716,68.62003v-16.37412h188.07804v16.37412z" stroke-width="NaN"/><path d="M412.13311,68.58731c-3.81729,0 -6.91183,-3.66181 -6.91183,-8.17888c0,-4.51707 3.09453,-8.17888 6.91183,-8.17888c3.81729,0 6.91182,3.66181 6.91182,8.17888c0,4.51707 -3.09452,8.17888 -6.91182,8.17888z" stroke-width="0"/></g><g data-paper-data="{&quot;index&quot;:null}" fill="#f6f6f6"><path d="M414.79147,68.4066v-8.80263h181.23274v8.80263z" stroke-width="NaN"/><path d="M420.58058,63.9921c0,2.42835 -2.9819,4.39692 -6.66027,4.39692c-3.67837,0 -6.66026,-1.96857 -6.66026,-4.39692c0,-2.42835 2.98189,-4.39692 6.66026,-4.39692c3.67837,0 6.66027,1.96856 6.66027,4.39692z" stroke-width="0"/></g><g data-paper-data="{&quot;index&quot;:null}" fill="#fbfbfb"><path d="M301.84847,48.22711v-38.5h188.07804v38.5z" stroke-width="NaN"/><path d="M300.94442,48.15018c-3.81729,0 -6.91183,-8.60991 -6.91183,-19.23077c0,-10.62086 3.09453,-19.23077 6.91183,-19.23077c3.81729,0 6.91182,8.60991 6.91182,19.23077c0,10.62086 -3.09452,19.23077 -6.91182,19.23077z" stroke-width="0"/></g><g data-paper-data="{&quot;index&quot;:null}" fill="#f6f6f6"><path d="M303.60278,47.72528v-20.69737h181.23274v20.69737z" stroke-width="NaN"/><path d="M309.39189,37.34559c0,5.70971 -2.9819,10.33834 -6.66027,10.33834c-3.67837,0 -6.66026,-4.62863 -6.66026,-10.33834c0,-5.70972 2.98189,-10.33835 6.66026,-10.33835c3.67837,0 6.66027,4.62863 6.66027,10.33834z" stroke-width="0"/></g><text transform="translate(422.55223,63.1441) scale(0.25104,0.25104)" font-size="40" xml:space="preserve" fill="#494949" fill-rule="nonzero" stroke="none" stroke-width="1" stroke-linecap="butt" stroke-linejoin="miter" stroke-miterlimit="10" stroke-dasharray="" stroke-dashoffset="0" font-family="Pixel" font-weight="normal" text-anchor="start" style="mix-blend-mode: normal"><tspan x="0" dy="0">Oponente</tspan></text></g></g></svg>