<svg version="1.1" xmlns="http://www.w3.org/2000/svg" xmlns:xlink="http://www.w3.org/1999/xlink" width="71.93806" height="95.75914" viewBox="0,0,71.93806,95.75914"><g transform="translate(-202.28924,-131.72586)"><g data-paper-data="{&quot;isPaintingLayer&quot;:true}" fill-rule="nonzero" stroke="none" stroke-linecap="butt" stroke-linejoin="miter" stroke-miterlimit="10" stroke-dasharray="" stroke-dashoffset="0" style="mix-blend-mode: normal"><path d="M202.28924,206.81323v-7.7164h71.93806v7.7164z" fill="#ffffff" stroke-width="0"/><text transform="translate(227.76347,223.7763) scale(0.35321,0.35321)" font-size="40" xml:space="preserve" fill="#ffffff" fill-rule="nonzero" stroke="none" stroke-width="1" stroke-linecap="butt" stroke-linejoin="miter" stroke-miterlimit="10" stroke-dasharray="" stroke-dashoffset="0" font-family="Pixel" font-weight="normal" text-anchor="start" style="mix-blend-mode: normal"><tspan x="0" dy="0">40</tspan></text><path d="M273.82678,219.37331c-0.45659,0.59269 -0.98109,0.66212 -1.39217,0.58276c-1.05919,1.09715 -3.25727,1.21118 -4.41165,1.70408l-1.41724,0.59125c0,0 -0.75217,0.31379 -1.37903,-0.07557c-0.6135,-0.33507 -0.7477,-1.08712 -0.7477,-1.08712c-0.30574,-1.772 -0.2317,-3.27454 -0.238,-5.05531l-0.00438,-1.52165c0,0 -0.00433,-1.50027 1.49594,-1.5046c0.49387,-0.00142 0.82561,0.16017 1.04847,0.37764c0.49678,0.0216 0.88703,0.30025 0.88703,0.30025c1.7726,1.26814 3.70846,2.08441 5.50334,3.29296l0.3825,0.29126c0,0 1.1885,0.9156 0.27289,2.1041z" fill="#ffffff" stroke-width="0.5"/><path d="M202.74416,219.12776c-0.91561,-1.18848 0.27289,-2.1041 0.27289,-2.1041l0.3825,-0.29126c1.79488,-1.20855 3.73075,-2.02482 5.50335,-3.29297c0,0 0.39024,-0.27865 0.88701,-0.30024c0.22286,-0.21748 0.55461,-0.37906 1.04847,-0.37764c1.50027,0.00432 1.49595,1.5046 1.49595,1.5046l-0.00439,1.52165c-0.0063,1.78078 0.06774,3.28332 -0.23799,5.05532c0,0 -0.13419,0.75204 -0.7477,1.08711c-0.62686,0.38936 -1.37902,0.07558 -1.37902,0.07558l-1.41725,-0.59125c-1.15438,-0.4929 -3.35245,-0.60692 -4.41165,-1.70408c-0.41109,0.07936 -0.93557,0.00993 -1.39217,-0.58276z" data-paper-data="{&quot;index&quot;:null}" fill="#ffffff" stroke-width="0.5"/><path d="M204.25546,171.46189v-16.20311h67.93934v16.20311z" fill="#8c8c8c" stroke-width="0"/><path d="M204.25546,171.46189v-8.24369h67.93934v8.24369z" fill="#656565" stroke-width="0"/><text transform="translate(217.80288,167.25463) scale(0.70354,0.70354)" font-size="40" xml:space="preserve" fill="#ffffff" fill-rule="nonzero" stroke="none" stroke-width="1" stroke-linecap="butt" stroke-linejoin="miter" stroke-miterlimit="10" stroke-dasharray="" stroke-dashoffset="0" font-family="Pixel" font-weight="normal" text-anchor="start" style="mix-blend-mode: normal"><tspan x="0" dy="0">40</tspan></text></g></g></svg>