<svg version="1.1" xmlns="http://www.w3.org/2000/svg" xmlns:xlink="http://www.w3.org/1999/xlink" width="136.51676" height="233.60332" viewBox="0,0,136.51676,233.60332"><g transform="translate(-173.83746,-9.79124)"><g data-paper-data="{&quot;isPaintingLayer&quot;:true}" fill-rule="nonzero" stroke-linejoin="miter" stroke-miterlimit="10" stroke-dasharray="" stroke-dashoffset="0" style="mix-blend-mode: normal"><path d="" fill="#525252" stroke="none" stroke-width="0.5" stroke-linecap="butt"/><path d="M269.43453,231.62513c-1.53753,1.01775 -2.83175,0.96176 -3.83451,0.52233c-1.41805,0.30651 -3.05418,0.03205 -4.50495,0.1902c-1.14798,0.12515 -2.32442,0.17247 -3.51198,0.17827c-6.21996,2.57396 -11.37807,5.88479 -17.94875,1.99261l-1.99634,-0.55061c-1.51453,-0.37918 -2.74097,-1.59516 -3.25882,-3.18405c-0.42204,0.25061 -0.7324,0.41417 -0.86532,0.44285c-6.7145,1.44875 -11.24812,2.01589 -8.30942,-8.7627c0.57229,-2.09904 2.90566,-2.99484 4.44178,-4.38501c1.62996,-1.47509 3.44107,-2.52329 5.30154,-3.43786c-4.63079,1.03647 -9.85947,1.64861 -11.72685,-4.88811c-1.41031,1.1918 -3.5113,2.66446 -5.5811,3.24451c0.06444,1.21576 -0.30478,2.62527 -1.73647,3.91757c-3.50767,3.16619 -6.37759,-0.7036 -6.37759,-0.7036c-1.15078,-1.63546 -2.64565,-3.037 -3.45234,-4.90636c-0.58591,-1.35775 -0.85696,-2.93627 -0.97796,-4.55575c-1.34887,-1.67711 -1.26328,-4.16944 -0.07654,-7.95468c-0.00884,-4.90084 -0.00784,-9.8022 0.00425,-14.70289c0.01245,-5.04724 0.02627,-10.16108 3.57006,-14.03264c6.92167,-7.56185 19.03704,-4.92085 27.83864,-4.92085c4.97343,0 10.21989,-0.08032 15.01836,1.39535h2.37237c2.50303,0 4.53213,2.23857 4.53213,5c0,1.51057 -0.60719,2.86469 -1.56699,3.7815l-2.88849,2.78835c-0.16659,1.88834 -2.35997,3.16868 -3.25006,4.90475c-0.97494,1.90157 -1.40692,4.13054 -2.52956,5.93023c-2.76331,4.42986 -6.35618,8.15539 -9.46376,12.29829c-0.77031,1.02695 -1.5615,2.03461 -2.3452,3.04919c2.10883,-0.41556 4.23288,-0.74276 6.36172,-0.99307c2.51475,-0.08029 6.03397,-2.46061 7.54425,-0.24086c0.08006,0.11766 0.15458,0.23774 0.22385,0.3601c0.35738,-0.30192 0.71701,-0.60206 1.07806,-0.90106c1.92941,-2.4864 3.8181,-4.82463 5.36655,-7.72207c0.89606,-1.6767 3.24801,-8.00367 4.68508,-8.86063c2.48798,-1.48364 5.82405,-3.31351 8.31841,-1.843c3.85438,2.2723 2.04574,8.24336 1.08394,11.69105c0.22304,0.59117 0.34619,1.23973 0.34619,1.92001v2.7907c-0.03433,6.72761 -0.74234,13.59776 -1.28022,20.29613c-0.00804,0.10019 -0.01505,0.20026 -0.02114,0.30022c0.24981,1.38687 0.43865,2.68278 0.59587,3.62551l0.37583,0.06613c0,0 2.33176,4.28746 -1.55451,6.85995z" fill="#8f3e15" stroke="none" stroke-width="0.5" stroke-linecap="butt"/><path d="M270.87293,184.68919c0,10.78294 -0.16096,21.60003 0.36927,32.36562c0.41659,3.5395 1.21542,8.24477 -0.84067,11.43693c-2.50971,3.89644 -8.45986,3.83723 -12.15541,3.8421c-10.88624,0.01437 -21.77258,0 -32.65883,0c0,0 -0.36354,0 -0.80607,-0.15973c-0.53501,0.47104 -1.7575,1.23169 -3.06901,-0.1069c-1.75622,-1.79246 -0.15965,-3.76417 -0.15965,-3.76417c3.54399,-4.37417 6.92096,-9.78805 11.54917,-12.85748c1.55294,-1.0299 3.34481,-1.58097 4.84453,-2.70592c4.13542,-3.10202 7.30732,-7.59744 11.26884,-10.98637c3.72204,-3.18406 7.07154,-5.83828 10.02582,-9.98851c2.59969,-3.64835 5.00401,-7.4423 7.59507,-11.08511l1.19055,-1.56176c0,0 1.54463,-2.02318 3.3467,-0.28902c1.80206,1.73416 0.25744,3.75734 0.25744,3.75734l-0.59192,0.77403zM255.77773,227.00444c2.54309,0 5.13087,0.27338 7.63385,-0.35883c0.07087,-0.0179 2.86998,-0.82806 3.18585,-1.34163c1.101,-1.79018 0.14151,-5.89127 -0.08116,-7.74883c-0.44752,-9.0052 -0.42257,-18.04347 -0.39985,-27.07027c-1.04082,1.54776 -2.08762,3.09185 -3.16875,4.60909c-3.2052,4.49376 -6.82832,7.45372 -10.86063,10.90264c-3.25591,2.78485 -5.90047,6.19159 -9.03804,9.09887c-2.40372,2.22729 -4.88217,3.22906 -7.50741,4.92162c-2.58123,1.66418 -4.75361,4.29497 -6.78392,6.98734c9.00671,0 18.0134,0 27.0201,0z" fill="#763312" stroke="none" stroke-width="0.5" stroke-linecap="butt"/><path d="M208.67416,219.14702c-2.40751,-0.22487 -2.20688,-2.92321 -2.20688,-2.92321c0.20373,-2.71658 0.61901,-5.93446 0.26299,-8.66089c-0.27723,-2.12301 -1.08456,-4.14323 -1.26141,-6.27967c-0.51455,-6.21625 -0.00977,-12.76625 -0.00977,-19.01363c0,-4.64871 -1.38324,-10.55571 3.24106,-13.14753c2.00181,-1.12198 6.9062,-0.20611 9.17313,-0.20611c9.65041,0 19.6887,-0.1931 29.17534,1.96108h2.56938v0c1.33423,0 2.41584,1.21228 2.41584,2.70771c0,0.63533 -0.19522,1.21954 -0.52211,1.68142l-1.73649,2.50236l-0.05953,-0.0519c-0.08722,0.15165 -0.17886,0.30036 -0.27558,0.44572c-0.70469,1.05911 -2.18958,1.95084 -3.73061,2.74427c0.56796,1.74243 -0.89097,2.96882 -0.89097,2.96882l-2.07491,1.74168c-5.10166,3.64164 -8.30091,7.91765 -12.35078,12.78161c-3.16669,3.80324 -7.14877,7.06032 -10.91401,10.15194c-0.20367,0.34747 -0.40964,0.69222 -0.61853,1.03359c-1.53244,2.50425 -3.35636,4.65216 -4.86782,7.18026l-0.23327,0.11587l0.07326,0.08211l-1.74971,1.9611c-0.43719,0.49 -1.04114,0.79307 -1.70826,0.79307c-0.55202,0 -1.06079,-0.20751 -1.4676,-0.55673c-0.0752,-0.00122 -0.15277,-0.00547 -0.23277,-0.01294zM211.65075,208.38715c1.32631,-1.66202 3.0254,-3.1489 4.77712,-4.52561c2.75553,-4.88728 5.2837,-10.04258 9.03368,-14.03365c3.03492,-3.23005 7.33052,-6.58521 10.79564,-9.2337c1.36344,-1.04212 4.20009,-3.53713 6.81002,-4.99678c-8.29243,-1.35913 -16.85377,-1.26601 -25.1939,-1.26601c-2.29815,0 -5.08374,-0.52771 -7.32413,-0.20611c-0.75449,0.10831 -0.29068,1.68943 -0.25837,2.54121c0.10925,2.87967 0,5.80268 0,8.68485c0,5.07687 -0.40932,10.39337 -0.00975,15.44558c0.16292,2.06006 0.98234,3.99904 1.23818,6.04719c0.06296,0.50405 0.10548,1.01966 0.13154,1.54305z" fill="#763312" stroke="none" stroke-width="0.5" stroke-linecap="butt"/><path d="M261.02662,163.97499l12.54366,14.59898l-57.49639,60.88438l-12.54366,-14.59898z" fill="#af4c00" stroke="none" stroke-width="0" stroke-linecap="butt"/><path d="M197.79179,173.54668v-11.96997h82.40762v11.96997z" fill="#af4c00" stroke="none" stroke-width="0" stroke-linecap="butt"/><path d="M197.76102,243.39456v-12.38867h82.40763v12.38867z" fill="#af4c00" stroke="none" stroke-width="0" stroke-linecap="butt"/><path d="M197.68023,172.49571h12.27528v59.21053h-12.27528z" fill="#af4c00" stroke="none" stroke-width="0" stroke-linecap="butt"/><path d="M268.87725,172.49571h11.2294v59.21053h-11.2294z" fill="#af4c00" stroke="none" stroke-width="0" stroke-linecap="butt"/><path d="M197.7881,161.83781v-3.54251h82.29768v3.54251z" fill="#a24600" stroke="none" stroke-width="0" stroke-linecap="butt"/><path d="M248.10356,240.74805c0,1.25 -1.13303,1.25 -1.13303,1.25c-7.37874,0 -15.07371,0 -22.45245,0c-3.7845,0 -7.78023,0.82482 -11.52278,0.33951c-2.73849,-0.35511 -5.42154,-1.22345 -8.24267,-0.87491c-1.73865,0.21481 -3.27341,0.87062 -5.05875,0.88428c0,0 -1.13303,0 -1.13303,-1.25c0,-1.25 1.13303,-1.25 1.13303,-1.25c1.6619,0.01586 3.11639,-0.66189 4.74444,-0.86012c3.03179,-0.36915 5.88945,0.4869 8.83385,0.86949c3.64004,0.47297 7.55963,-0.35824 11.24591,-0.35824c7.37874,0 14.75748,0 22.13622,0h0.31623c0,0 1.13303,0 1.13303,1.25z" fill="#9d4400" stroke="none" stroke-width="0.5" stroke-linecap="butt"/><path d="M279.72674,240.74805c0,1.25 -1.13303,1.25 -1.13303,1.25c-3.63667,0 -7.43144,0 -11.06811,0c0,0 -1.13303,0 -1.13303,-1.25c0,-1.25 1.13303,-1.25 1.13303,-1.25c3.63667,0 7.27333,0 10.90999,0h0.15812c0,0 1.13303,0 1.13303,1.25z" fill="#9d4400" stroke="none" stroke-width="0.5" stroke-linecap="butt"/><path d="M208.4726,169.1266c0,1.25 -1.13303,1.25 -1.13303,1.25c-2.3959,0 -5.37458,0 -7.77047,0c0,0 -1.13303,0 -1.13303,-1.25c0,-1.25 1.13303,-1.25 1.13303,-1.25c2.3959,0 4.79179,0 7.18769,0h0.58279c0,0 1.13303,0 1.13303,1.25z" fill="#9d4400" stroke="none" stroke-width="0.5" stroke-linecap="butt"/><path d="M278.98964,169.76956c0,1.25 -1.13303,1.25 -1.13303,1.25c-4.72704,0 -10.81391,0 -15.54094,0c-8.35326,0 -16.70652,0 -25.05978,0c0,0 -1.13303,0 -1.13303,-1.25c0,-1.25 1.13303,-1.25 1.13303,-1.25c8.35326,0 16.70652,0 25.05978,0c4.72704,0 9.45407,0 14.18111,0h1.35983c0,0 1.13303,0 1.13303,1.25z" fill="#9d4400" stroke="none" stroke-width="0.5" stroke-linecap="butt"/><path d="M208.86112,228.99231c0,1.25 -1.13303,1.25 -1.13303,1.25c-2.46065,0 -5.11556,0 -7.57621,0c0,0 -1.13303,0 -1.13303,-1.25c0,-1.25 1.13303,-1.25 1.13303,-1.25c2.46065,0 4.9213,0 7.38195,0h0.19426c0,0 1.13303,0 1.13303,1.25z" fill="#9d4400" stroke="none" stroke-width="0.5" stroke-linecap="butt"/><path d="M278.98964,228.77799c0,1.25 -1.13303,1.25 -1.13303,1.25c-1.23032,0 -2.84917,0 -4.0795,0c0,0 -1.13303,0 -1.13303,-1.25c0,-1.25 1.13303,-1.25 1.13303,-1.25c1.23032,0 2.46065,0 3.69097,0h0.38852c0,0 1.13303,0 1.13303,1.25z" fill="#9d4400" stroke="none" stroke-width="0.5" stroke-linecap="butt"/><path d="M264.53508,182.55634c0.09149,-0.36939 0.35039,-0.89204 1.08303,-0.89204c1.13303,0 1.13303,1.25 1.13303,1.25l-0.33186,1.0982c-6.6766,7.3481 -13.5529,14.7653 -20.28607,22.15738c-1.62653,1.1844 -2.6116,2.95886 -4.09436,4.29954c-3.66035,3.30959 -7.38739,6.88748 -10.789,10.6286c-1.46539,1.61165 -2.47479,3.12927 -4.24413,4.43371c0,0 -0.94274,0.69338 -1.57123,-0.34669c-0.62849,-1.04006 0.31425,-1.73344 0.31425,-1.73344c1.66689,-1.22279 2.53192,-2.60904 3.91487,-4.13894c3.44539,-3.8115 7.24406,-7.44778 10.96832,-10.80303c1.46758,-1.32217 2.45406,-3.07753 4.06463,-4.27311c6.54691,-7.26845 13.31468,-14.47183 19.83852,-21.68018z" fill="#9d4400" stroke="none" stroke-width="0.5" stroke-linecap="butt"/><path d="M223.8782,91.90175l7.81383,66.66572" fill="#4c463d" stroke="#4c463d" stroke-width="2.5" stroke-linecap="round"/><path d="M250.50081,158.57706l9.14998,-64.84216" fill="#4c463d" stroke="#4c463d" stroke-width="2.5" stroke-linecap="round"/><path d="M186.82342,82.32964c-0.01297,0.05303 -0.02761,0.10698 -0.04402,0.1619c-0.66554,2.22813 -2.89366,1.56261 -2.89366,1.56261c-1.28613,-0.42794 -2.73907,-0.5194 -3.8584,-1.28384c-2.61121,-1.7833 -3.48958,-6.03177 -4.26453,-8.82948c-1.98302,-7.15911 0.38157,-15.44118 2.47597,-22.27918c0.50727,-1.65618 -0.02189,-3.55339 0.6304,-5.158c0.37296,-0.91749 1.32258,-1.49938 1.78521,-2.37509c1.2814,-2.42556 2.1996,-4.82628 3.68756,-7.21814c4.34173,-6.97734 11.05122,-10.6362 18.51207,-13.6964c2.78745,-1.14333 5.02539,-2.91978 7.62565,-4.31269c7.91922,-4.24218 17.72368,-5.71485 26.51836,-5.97216c1.93246,0.21226 3.74594,0.7211 5.57323,1.18234c0.40634,-0.42455 0.97287,-0.69632 1.60665,-0.71628l2.78965,-0.08788l0.00455,0.14423l0.31853,-0.13193c2.05298,0.50456 3.47414,0.80141 4.86633,1.22584c0.11202,-0.00618 0.22277,-0.01142 0.33205,-0.01555l0.03096,-0.33238l2.76994,0.25797c0.3661,0.02875 0.70941,0.14273 1.00935,0.32261c0.74138,-0.03161 1.48447,-0.06848 2.23057,-0.08976c4.72146,-0.1347 7.68773,1.83054 12.02427,3.23681c1.42502,0.46211 2.98291,0.28348 4.47118,0.45465c5.04722,0.5805 12.85915,3.24332 16.59142,6.81455c2.01259,1.92575 2.19149,4.49162 4.3468,6.4488c1.53107,1.44615 3.39317,2.97648 4.21821,4.99086c0.6325,1.5443 -0.32558,3.29345 0.65766,4.77881c1.03697,1.56652 2.85921,2.56717 3.71129,4.24148c1.26398,2.48367 1.69282,5.66637 2.49225,8.32445c1.46715,4.87824 3.19898,10.63533 2.6542,15.81174c-0.62189,5.90909 -4.15254,10.90226 -7.30786,15.69674c-1.43942,0.55971 -2.78549,1.8683 -4.31827,1.67913c-2.11651,-0.26121 -2.78065,-3.23589 -4.23977,-4.79114c-1.13401,-1.20871 -3.04579,-1.38452 -4.35209,-2.40461c-0.51093,-0.39898 -0.74609,-1.14562 -1.33693,-1.41239c-2.20956,-0.99763 -5.53084,1.13059 -7.7011,-0.11549c-3.89308,-2.23524 -2.25507,-5.727 -5.3427,-7.63336c-1.46999,-0.9076 -4.49334,-0.53947 -6.08952,-0.4872c-1.7416,0.05703 -3.48886,-0.03193 -5.17663,0.08904c0.12185,0.27004 0.19377,0.56802 0.20368,0.88255c0.04044,1.28365 -0.96738,2.35703 -2.25103,2.39747l-3.13837,0.09887c-0.4954,-0.04074 -0.98908,-0.01807 -1.4803,0.04879l-1.02722,1.09405v0c-0.40735,0.43386 -0.98022,0.71232 -1.62204,0.73253c-1.28365,0.04044 -2.35703,-0.96738 -2.39747,-2.25103c-0.00903,-0.28656 0.03418,-0.56264 0.12104,-0.8191c-4.07364,0.11242 -8.05201,0.08757 -12.07724,-0.33471c-1.80824,-0.18971 -3.50633,-1.03076 -5.31311,-1.23389c-3.21619,-0.36158 -8.23574,-0.31455 -10.86287,1.69444c-1.55989,1.19288 -5.08214,6.05837 -6.71613,6.21197c-1.85122,0.17402 -3.07042,-2.35634 -4.90561,-2.65532c-2.13225,0.08442 -4.64398,-0.16705 -6.70566,0.47791c-2.53857,0.79415 -3.92,3.58086 -6.21517,4.63271c-3.43052,1.57216 -6.79367,-0.40813 -10.40367,0.7879z" fill="#4e850c" stroke="none" stroke-width="0.5" stroke-linecap="butt"/><path d="M177.84292,69.17803c2.23153,-4.83098 5.49239,-10.02877 10.23292,-12.56531c1.61291,-0.86303 4.59242,-1.52133 6.42778,-1.5057c0.24563,0.00209 2.92649,0.86377 3.59976,0.27592c1.24087,-1.08345 1.26121,-3.14581 2.43769,-4.29886c4.92198,-4.82395 15.38951,-5.65263 21.52958,-3.4182c3.08603,-0.06876 3.98081,-1.40338 6.94,-2.52036c3.9933,-1.50731 11.50786,-1.76833 15.62823,-0.78804c1.6356,0.38914 3.86394,1.86586 5.14146,2.9052c0.39549,0.32175 0.54118,1.01065 1.03851,1.12291c1.34492,0.30359 5.02933,-2.17577 6.4668,-2.38605c7.59614,-1.11117 15.94429,1.51074 22.26139,5.4422c1.45621,0.76291 2.48377,2.25043 4.00074,2.88398c1.81703,0.75888 3.82997,-0.91736 5.74638,-1.36998c2.07225,-0.48942 5.30279,-1.21356 7.45587,-0.353c4.25113,1.6991 8.13775,8.02935 10.22722,11.82626c1.55297,2.82199 2.44024,7.9457 1.59246,11.20207c-0.55393,2.1277 -2.05018,3.01996 -2.88434,4.93505c-1.20796,2.77323 -3.22017,7.88129 -7.57281,7.35542c-1.38085,-0.16683 -2.11394,-1.80821 -3.17091,-2.71232c-2.01293,-3.49403 -5.81903,-7.67185 -10.20435,-7.94677c-1.32184,-0.08288 -4.62106,0.43991 -5.60712,-0.07498c-1.13533,-0.59284 -1.53401,-2.06925 -2.47092,-2.94254c-3.4828,-3.24631 -8.69122,-3.68269 -13.34591,-3.11964c-0.20379,0.43251 -0.53731,0.79323 -0.95194,1.03034l-2.29595,1.37188l-0.21916,-0.36678l-0.56711,0.66017c-0.19529,-0.08759 -0.39058,-0.17516 -0.58588,-0.26274c-0.06786,0.0107 -0.13741,0.01721 -0.20833,0.02031l-0.04501,0.23761l-2.14493,-0.40624c-4.23992,0.10138 -8.33495,-1.0783 -12.46445,-0.92907c-1.75636,0.06347 -3.50731,0.59301 -5.25598,0.41706c-1.84686,-0.18582 -3.30763,-1.71221 -5.05909,-2.32686c-1.2497,-0.43856 -4.79141,0.11501 -6.14037,0.29894c-5.43185,0.74064 -9.13217,4.70122 -13.95503,6.50518c-2.13267,0.0905 -5.01764,-0.26945 -7.10151,0.21847c-2.76024,0.64629 -4.23353,2.90812 -6.61611,3.8011c-1.83482,0.68769 -3.91626,-0.25249 -5.87499,-0.19955c-1.89814,0.0513 -3.71226,0.80107 -5.57038,1.19221c-4.06139,0.85496 -5.32972,4.73409 -9.58114,-0.01033c-0.73818,-0.82379 -0.22116,-2.20314 -0.41121,-3.29284c-0.33855,-1.94107 -0.84654,-2.73432 -1.67741,-4.6594l-0.40429,-2.67576c0,0 -0.29867,-2.08693 1.65983,-2.57102z" fill="#34730a" stroke="none" stroke-width="0.5" stroke-linecap="butt"/><path d="M183.34559,84.03153c6.08692,-3.25001 12.14797,-1.28748 18.31217,-3.4308c3.22006,-1.11962 4.09925,-2.61375 7.80907,-2.75304c3.3088,-0.12422 6.60396,1.71279 9.80944,1.06712c-0.04892,-0.17603 -0.07775,-0.3607 -0.08376,-0.55145c-0.01369,-0.43432 0.09264,-0.84456 0.28904,-1.19887l1.11697,-2.10601l0.06368,0.03377l0.03976,-0.20971c1.35006,-1.71543 2.44743,-3.53106 4.6749,-4.34577c1.75041,-0.64021 3.56276,-0.42367 5.31296,0.16185c0.9295,-0.28347 1.78872,-0.46209 2.463,-0.51331c3.91771,-0.29762 6.37989,2.17738 10.16611,3.06307c3.54256,0.8287 6.93776,-0.11755 10.49563,0.2071c1.93472,0.17655 3.57168,1.61824 5.47913,1.98698c0.75576,0.1461 1.37856,0.09399 1.94379,-0.06636c-0.24023,-0.24919 -0.44522,-0.59315 -0.57901,-1.0647c-0.63475,-2.2371 1.60234,-2.87185 1.60234,-2.87185l2.91683,-0.76295c3.66427,0.62871 8.64009,1.33018 11.62058,3.82689c0.09852,0.08253 0.18894,0.17284 0.27348,0.26882c0.85818,0.62829 1.64517,1.33599 2.28107,2.1742c0.00928,0.01224 0.04296,0.07523 0.09596,0.17433c0.94214,0.15499 2.11044,-0.10401 2.76441,-0.04654c0.41086,0.03611 5.17769,0.9556 5.70499,1.15449c2.40222,0.90611 4.92139,1.96729 5.11611,3.76901c0.29955,0.25708 0.60828,0.52067 0.93166,0.7873l0.01805,0.6357l0.27974,-0.11508l0.95718,2.32684c0.11602,0.26432 0.18445,0.55481 0.19409,0.86101c0.03277,1.04017 -0.62279,1.94228 -1.55566,2.26859c0.78638,0.06444 1.58068,0.1518 2.3428,0.06293l1.83334,-1.56722c0,0 1.81547,-1.45312 3.2686,0.36234c1.45313,1.81547 -0.36234,3.26859 -0.36234,3.26859l-2.86264,2.19152c-1.08156,0.19082 -2.14677,0.545 -3.24469,0.57244c-0.61462,0.01536 -1.24464,-0.73138 -1.78954,-0.44662c-0.67089,0.3506 -0.47743,1.58365 -1.12771,1.97115c-2.78056,1.65692 -6.86908,1.19294 -9.94657,1.21005c-2.00581,-0.99783 -5.72372,-3.62116 -8.22022,-2.75003c-2.84677,0.99335 -4.70928,2.3925 -8.03625,2.11908c-1.9398,-0.15941 -3.93964,-0.23008 -5.77084,-0.88958c-2.12613,-0.7657 -3.81089,-3.03831 -6.43245,-2.92135c-2.40136,0.10714 -4.95052,1.73491 -7.23426,2.28295c-5.93399,1.42399 -13.34272,0.34586 -17.8319,-3.99878c-2.86169,0.71398 -5.29532,2.83392 -8.08299,3.83801c-2.74224,0.98775 -7.35429,1.49126 -10.23353,0.99945c-2.0888,-0.3568 -5.38402,-3.35605 -7.39243,-3.32783c-1.53324,0.02155 -2.40724,2.06903 -3.89192,2.45247c-6.12708,1.58241 -11.81136,-2.37751 -16.56749,-5.55058c0,0 -1.93389,-1.29136 -0.64252,-3.22523c0.35341,-0.52925 0.75494,-0.81694 1.15178,-0.95565c0.29055,-0.28321 0.56002,-0.42873 0.56002,-0.42873z" fill="#746b5d" stroke="none" stroke-width="0.5" stroke-linecap="butt"/><path d="M209.71273,77.3237c-1.71499,1.02899 -2.74398,-0.686 -2.74398,-0.686l-0.99116,-1.71589c-1.45774,-3.95773 -1.23866,-7.6343 -1.23866,-11.81541c0.01368,-7.58003 1.34321,-16.94071 4.32432,-23.83631c1.32641,-3.06813 1.45314,-6.66193 2.54277,-9.8086c1.8651,-5.3861 5.11342,-10.26785 6.84917,-15.60766c0,0 0.63246,-1.89737 2.52982,-1.26491c1.89737,0.63246 1.26491,2.52983 1.26491,2.52983c-1.82103,5.354 -4.98652,10.2252 -6.8597,15.63881c-0.88314,2.55234 -1.25445,5.29696 -2.00516,7.89366c-0.40489,1.40051 -1.24469,2.64373 -1.71094,4.02502c-0.68595,2.03214 -0.6409,4.24208 -1.02478,6.35224c-0.86335,4.74582 -1.92003,9.22165 -1.91043,14.07793c0,3.64552 -0.32936,6.98424 0.98397,10.41092l0.67582,1.0624c0,0 1.02899,1.71499 -0.68599,2.74398z" fill="#5ead10" stroke="none" stroke-width="0.5" stroke-linecap="butt"/><path d="M207.3227,72.5576c-0.18176,-0.12531 -0.34777,-0.27092 -0.4932,-0.44116c-0.75331,-0.88182 -0.33953,-2.29672 -0.42359,-3.45345c-0.2511,-3.45531 0.43127,-7.14177 1.17275,-10.49373c1.09766,-3.8364 2.19115,-7.66887 3.35861,-11.47519c-0.04994,-0.06191 -0.0999,-0.12549 -0.14989,-0.19074c-0.79717,-1.04053 1.15422,-6.247 1.5299,-7.56186c2.15668,-7.54836 4.39963,-14.21908 8.53063,-20.53366c-0.00952,-0.02104 -0.01971,-0.04178 -0.03057,-0.06222l-0.1395,-0.0465l0.03695,-0.11085c-0.02498,-0.03173 -0.05211,-0.06245 -0.08151,-0.0921c0,0 -0.76322,-1.14484 -0.07401,-2.16842c-0.3562,-0.02275 -1.92887,-0.22359 -1.92887,-1.9971c0,-1.97019 1.94082,-1.99955 1.99868,-1.99999c2.09546,-0.59418 3.99977,-1.07602 6.17057,-1.34398c0.40061,-0.12644 0.89754,-0.14877 1.41754,0.15289c0.35274,0.15572 0.70208,0.4334 0.9065,0.9246c0.25587,0.46647 0.25448,0.91273 0.15572,1.28545c-0.07828,0.5212 -0.33994,0.873 -0.63844,1.10939c-0.20227,1.56677 -0.48598,3.12437 -0.83237,4.66525c-2.11107,4.72124 -1.56643,9.57688 -1.56643,14.65443c0,8.43056 0.90176,16.3421 2.72957,24.56586c0.86572,3.8951 1.54777,7.86462 3.49933,11.36356c0.38968,0.2869 0.71683,0.76864 0.71683,1.57754c0,2 -2,2 -2,2l-0.8397,-0.07695c-2.91044,0.80515 -5.7867,-0.00657 -8.61231,0.50325c-1.12109,0.81373 -2.26129,1.63658 -2.41784,1.6937c-0.0643,0.02346 -0.25105,0.04179 -0.51757,0.05607c-0.91657,0.88454 -1.83805,1.84269 -3.2168,2.20311c-2.53743,0.66333 -4.93782,-0.00778 -7.48535,0.32847c0,0 -1.98456,0.24807 -2.23263,-1.73649c-0.24807,-1.98456 1.73648,-2.23262 1.73648,-2.23262c0.03814,-0.00455 0.07628,-0.00888 0.11442,-0.01298c-0.18517,-0.33984 -0.3122,-0.69257 -0.3939,-1.05358zM219.59317,33.90587c-0.10223,0.25561 -0.20361,0.51148 -0.30417,0.76761c0.10153,-0.09186 0.21252,-0.17344 0.33136,-0.2431c-0.00973,-0.17482 -0.01881,-0.34965 -0.02718,-0.5245z" fill="#5ead10" stroke="none" stroke-width="0.5" stroke-linecap="butt"/><path d="M282.62545,70.30541c0.03832,-0.00172 0.07667,-0.00321 0.11506,-0.0045c0,0 1.9992,-0.05574 2.05579,1.91354c0.05658,1.96928 -1.94261,2.02502 -1.94261,2.02502c-2.56903,0.05421 -4.83947,1.06714 -7.44825,0.8014c-1.41752,-0.14439 -2.47398,-0.93921 -3.5144,-1.66309c-0.2656,0.02602 -0.45296,0.03615 -0.52008,0.02294c-0.16342,-0.03217 -1.41548,-0.6625 -2.64727,-1.28681c-2.87028,-0.07312 -5.58967,1.14798 -8.58869,0.80003l-0.81823,0.20069c0,0 -1.97674,0.29957 -2.28087,-1.64759c-0.123,-0.78753 0.12709,-1.30554 0.46861,-1.64323c1.39682,-3.69881 1.46733,-7.66562 1.73071,-11.58749c0.55606,-8.28027 0.24431,-16.11788 -1.03764,-24.32571c-0.77209,-4.9434 -0.97211,-9.75234 -3.77655,-14.03265c-0.57666,-1.44829 -1.09392,-2.92224 -1.53208,-4.41732c-0.33097,-0.18544 -0.64309,-0.48876 -0.79971,-0.98446c-0.15429,-0.34808 -0.22352,-0.78234 -0.04156,-1.27482c0.12734,-0.50885 0.4304,-0.83151 0.75536,-1.03595c0.46809,-0.37157 0.96263,-0.42427 1.37781,-0.36117c2.1863,-0.06428 4.14173,0.11959 6.30318,0.38421c0.05725,-0.00824 1.97997,-0.27035 2.27956,1.64779c0.26968,1.72666 -1.25416,2.15775 -1.60276,2.23325c0.83684,0.89331 0.25658,2.12223 0.25658,2.12223c-0.02455,0.03327 -0.0467,0.06724 -0.06656,0.10187l0.05338,0.10239l-0.13081,0.06617c-0.00763,0.02153 -0.01454,0.04324 -0.02076,0.06515c5.04316,5.529 8.27437,11.68753 11.55376,18.71344c0.57124,1.22385 3.29163,6.00049 2.66195,7.13294c-0.03949,0.07102 -0.0792,0.14038 -0.11914,0.20814c1.73267,3.5309 3.39621,7.09834 5.06446,10.66897c1.24255,3.15234 2.47755,6.6392 2.75477,10.04084c0.09281,1.13876 0.71693,2.45431 0.10647,3.42567c-0.11785,0.18752 -0.25979,0.35415 -0.42039,0.50338c-0.02586,0.36371 -0.09776,0.72615 -0.22911,1.08474zM264.90231,33.9427c0.12804,0.05002 0.25016,0.11283 0.36447,0.18705c-0.13834,-0.2343 -0.27746,-0.46823 -0.41736,-0.70177c0.01831,0.17149 0.03593,0.34306 0.05289,0.51472z" data-paper-data="{&quot;index&quot;:null}" fill="#5ead10" stroke="none" stroke-width="0.5" stroke-linecap="butt"/><path d="M184.52699,82.88094c-1.2,1.6 -2.8,0.4 -2.8,0.4l-2.15396,-1.68235c-1.97694,-3.95388 -1.60103,-7.4044 -1.60103,-11.73763c0,-7.61492 0.35952,-14.49754 1.85729,-21.98641c0,0 0.39223,-1.96116 2.3534,-1.56893c1.96116,0.39223 1.56892,2.35339 1.56892,2.35339c-1.44833,7.24164 -1.77961,13.83452 -1.77961,21.20195c0,2.95379 -0.65606,6.51845 0.67203,9.17464l1.48296,1.04534c0,0 1.6,1.2 0.4,2.8z" fill="#5ead10" stroke="none" stroke-width="0.5" stroke-linecap="butt"/><path d="M299.32041,43.79759c1.85695,-0.74278 2.59973,1.11417 2.59973,1.11417l0.45462,1.14038c2.63047,5.93355 3.03682,11.77342 3.31632,18.15133c0.12015,2.74167 0.75751,6.00041 0.20013,8.72543c-1.01598,4.96715 -3.97271,8.92941 -6.53278,13.19648c0,0 -1.02899,1.71499 -2.74398,0.68599c-1.71499,-1.02899 -0.68599,-2.74398 -0.68599,-2.74398c2.35082,-3.91777 5.06128,-7.44228 6.04989,-11.96887c0.5098,-2.33422 -0.18241,-5.37857 -0.28382,-7.72883c-0.25273,-5.85781 -0.54524,-11.24096 -2.97502,-16.69301l-0.51328,-1.27937c0,0 -0.74278,-1.85695 1.11417,-2.59973z" fill="#5ead10" stroke="none" stroke-width="0.5" stroke-linecap="butt"/><path d="M299.43782,93.43585c-5.11123,2.94886 -11.55299,4.46471 -17.49561,3.75825c-1.08961,-0.12953 -4.09453,-1.04062 -4.97705,-1.5968c-0.94752,-0.59714 -0.94817,-2.06291 -2.37502,-1.353c-1.49846,0.74554 -2.92874,1.67753 -4.52907,2.16758c-3.30554,0.02235 -8.0117,0.79461 -11.08213,-0.74292c-0.14261,-0.07141 -1.80255,-2.13878 -2.65889,-2.0812c-1.54835,0.10411 -2.69294,1.63164 -4.19647,2.01582c-3.58762,0.9167 -9.19506,0.20192 -12.75034,-0.50266c-2.71869,-0.53879 -5.06707,-0.95609 -7.53545,-2.26713c-1.13978,-0.60538 -3.27994,-2.93498 -4.5029,-3.14476c-1.16815,-0.20038 -2.09378,1.12099 -3.07254,1.78938c-3.7909,2.15829 -9.45698,4.43621 -13.82116,3.62981c-0.94273,-0.17419 -1.94571,-0.28998 -2.76702,-0.78449c-0.40087,-0.24136 -2.62992,-3.43367 -3.98268,-2.50962c-0.46274,0.31609 -0.39744,1.09796 -0.81726,1.46915c-0.93356,0.82541 -1.95883,1.6312 -3.13965,2.02935c-1.64174,0.55356 -4.30969,-0.14201 -5.90728,-0.47464c-4.26125,-0.88721 -7.51594,-2.02945 -10.25467,-5.22761c-1.07998,-0.11102 -1.72242,-1.10911 -1.72242,-1.10911c-2.40905,-3.80793 -5.92463,-5.71115 -7.07605,-10.45285c-0.87729,-3.61275 -0.2992,-8.31246 -0.4159,-12.01657c-0.14719,-4.67205 -1.12297,-10.25236 0.04836,-14.82055c2.0014,-7.80539 7.79297,-18.33752 14.63919,-22.68305c2.60818,-3.30525 5.30676,-4.39594 8.83884,-6.71206c4.24148,-2.78129 8.20644,-5.66294 12.88739,-7.70971c8.64459,-3.7799 18.13634,-3.73997 27.38475,-4.03133c6.50416,-0.20491 13.21403,-0.79968 19.55297,0.75371c4.04905,0.87779 8.36737,1.01212 12.2661,2.24048c2.59015,0.81607 5.01038,2.11619 7.4049,3.39728c3.54945,1.89898 6.93673,2.19816 10.31939,4.59831c8.54291,6.06159 14.49461,13.97285 17.8704,23.79926c1.15299,3.35616 2.41713,6.10766 2.53027,9.69893c1.53565,4.16493 0.39307,8.22303 1.2521,12.43544c0.19366,0.94965 0.87704,1.7764 0.96961,2.74117c0.29777,3.10363 -1.56598,9.44972 -2.9408,12.20871c-0.38524,0.77307 -1.31854,1.1635 -1.74779,1.91303c-1.17636,2.05408 -1.93721,4.36112 -3.34509,6.26399l-0.70504,1.14987c0,0 -0.23453,0.377 -0.66337,0.69905zM197.41854,79.08994c0.6861,0.12654 1.0196,1.29184 1.71175,1.20438c0.57441,-0.07259 0.46943,-1.07288 0.83033,-1.52561c0.61651,-0.77338 1.23632,-1.59718 2.07587,-2.12002c2.89362,-1.80206 10.61399,-2.63501 13.69153,-0.80555c0.52318,0.311 0.18922,1.2193 0.44843,1.76997c0.13387,0.28442 -0.17418,-0.64902 -0.05834,-0.94125c0.43337,-1.09342 0.8845,-2.23091 1.66451,-3.11122c2.68894,-3.03472 6.57428,-4.20715 10.26785,-5.36934c3.59748,-0.11334 6.64429,0.29072 9.81867,2.18585c0.63866,0.38129 1.01129,1.1819 1.71213,1.43107c1.24491,0.44262 3.4908,-0.93272 4.41474,-1.10053c1.94206,-0.35273 7.41287,-0.79471 9.30993,-0.19218c1.51304,0.48056 2.28951,2.65574 3.87277,2.77192c1.70294,0.12496 5.74152,-3.97688 7.18156,-4.46389c0.34668,-0.11724 6.31983,-0.28567 6.55401,-0.25437c3.61417,0.48298 11.56062,5.18315 10.07323,9.40156c1.13171,-1.29102 3.1359,-1.67016 4.85173,-1.72859c6.79907,-0.23152 10.26645,3.12163 12.25979,9.47655l0.90918,1.024c2.73595,-3.77752 4.31992,-7.78972 5.64805,-12.21619c0.14697,-0.48983 1.15895,-3.46896 1.04349,-4.27719c-0.25508,-1.78562 -0.97006,-3.50882 -1.0348,-5.31141c-0.12419,-3.45841 0.06614,-6.24387 -1.12913,-9.48563c-0.10808,-3.43068 -1.26839,-5.86906 -2.36283,-9.07435c-5.18126,-15.1743 -17.70006,-24.086 -32.56224,-28.86262c-3.74304,-1.203 -8.0442,-1.30893 -11.96192,-2.15826c-5.86195,-1.52548 -12.31396,-0.82341 -18.34558,-0.63339c-8.65924,0.2728 -17.61605,0.12727 -25.71374,3.66383c-4.41677,1.92898 -8.14917,4.69546 -12.15385,7.31747c-3.50438,2.29444 -5.75737,3.02857 -8.25477,6.25861c-6.20172,4.04327 -11.36593,13.21773 -13.25653,20.35232c-1.07801,4.06809 -0.04888,9.40197 0.08241,13.56952c0.10945,3.47434 -0.42875,7.79029 0.31518,11.18951c0.57886,2.64496 2.59103,4.49844 4.41805,6.44316c3.28168,-4.0435 7.97558,-5.47994 13.67853,-4.42812zM194.65345,90.92422c0.27686,0.05899 3.23485,0.7837 3.92201,0.56002c1.4597,-0.47514 1.87864,-2.61313 3.28572,-3.2268c1.10146,-0.48038 2.41023,-0.35823 3.6,-0.18958c1.70754,0.24205 2.90736,1.85816 4.31592,2.85326c1.70223,1.20256 3.84896,-0.05706 5.39359,-0.48339c2.68606,-0.74138 4.5477,-0.96081 6.98874,-2.36193c1.76653,-1.15443 3.35611,-2.63479 5.72209,-2.34925c1.86534,0.22512 2.85521,1.70774 4.23005,2.66643c1.70923,1.19186 3.46317,1.85579 5.48032,2.27257c3.87115,0.79985 9.68331,2.12077 13.61268,1.04504c2.12479,-0.58169 2.64849,-2.18499 5.11549,-2.12282c1.75191,0.04415 3.07083,1.69034 4.58373,2.57478c1.93334,1.13022 6.43568,0.27398 8.57643,0.29174c3.12398,-0.90455 3.91746,-3.08448 7.78109,-1.93828c1.31923,0.39137 2.13252,1.87085 3.45057,2.26618c4.79257,1.43746 11.10258,0.15319 15.56924,-2.13391c-0.1268,-0.11317 -0.19637,-0.19474 -0.19637,-0.19474l-2.04921,-2.4725c-0.71233,-2.18404 -1.71939,-5.34384 -3.77871,-6.78275c-2.54908,-1.78113 -9.03806,0.30889 -11.371,0.9213c-2.15019,-5.02008 -6.65748,-11.12277 -13.19092,-8.84086c-3.21028,1.12123 -4.98246,4.85763 -8.87788,4.64542c-1.91106,-0.10411 -3.10377,-2.34548 -4.91161,-2.97371c-4.29148,-1.49131 -9.4176,2.45134 -13.72467,1.29272c-1.05577,-0.284 -1.75158,-1.31658 -2.6936,-1.87149c-2.12844,-1.25378 -4.22819,-1.67331 -6.64692,-1.59711c-2.48976,0.81539 -5.74494,1.66382 -7.51055,3.79412c-1.97061,2.37762 -1.1891,5.51307 -5.83133,5.64554c-1.11091,0.03169 -1.33489,-1.83857 -2.26543,-2.44622c-1.01672,-0.66393 -5.7294,-0.01625 -6.91625,0.16111c-3.1456,0.47009 -3.16116,4.15489 -6.29721,4.93024c-1.20657,0.29832 -2.29765,-1.02448 -3.5264,-1.21161c-4.43076,-0.67475 -7.5088,0.15926 -9.73185,3.57168c2.08238,2.39486 4.64885,3.0137 7.89224,3.70481z" fill="#4c463d" stroke="none" stroke-width="0.5" stroke-linecap="butt"/><path d="M222.76874,158.4884l-19.78662,-80.56416" fill="#4c463d" stroke="#4c463d" stroke-width="2.5" stroke-linecap="round"/><path d="M257.11492,159.06525l28.54958,-80.58768" fill="#4c463d" stroke="#4c463d" stroke-width="2.5" stroke-linecap="round"/><path d="M241.01766,158.29548l1.73144,-85.61084" fill="#4c463d" stroke="#4c463d" stroke-width="2.5" stroke-linecap="round"/></g></g></svg>