<svg version="1.1" xmlns="http://www.w3.org/2000/svg" xmlns:xlink="http://www.w3.org/1999/xlink" width="881.04243" height="662.96735" viewBox="0,0,881.04243,662.96735"><defs><linearGradient x1="240.00002" y1="-13.15106" x2="240.00002" y2="373.15106" gradientUnits="userSpaceOnUse" id="color-1"><stop offset="0" stop-color="#3c3c3c"/><stop offset="1" stop-color="#1b1b1b"/></linearGradient><linearGradient x1="240.00002" y1="-13.15106" x2="240.00002" y2="373.15106" gradientUnits="userSpaceOnUse" id="color-2"><stop offset="0" stop-color="#3c3c3c"/><stop offset="1" stop-color="#1b1b1b"/></linearGradient></defs><g transform="translate(182.42572,153.10811)"><g data-paper-data="{&quot;isPaintingLayer&quot;:true}" fill-rule="nonzero" stroke-linecap="butt" stroke-linejoin="miter" stroke-miterlimit="10" stroke-dasharray="" stroke-dashoffset="0" style="mix-blend-mode: normal"><path d="M377.60568,77.15063v-197.52186h25.25617l2.13478,1.45504l1.02094,0.20054l1.01426,0.56982l4.18974,0.45238l2.62424,0.51547l1.89636,-0.02736l0.25582,0.02762l0.361,-0.03652l1.41214,-0.02037l27.37162,-3.13662h62.31468v197.52186z" fill="#ffffff" stroke="#ffffff" stroke-width="2"/><path d="M453.48199,-110.26719c0,9.03544 -9.03544,9.03545 -9.03544,9.03545c-18.77314,0 -38.58923,0 -57.36236,0c0,0 -9.03544,-0.00001 -9.03544,-9.03545c0,-9.03544 9.03544,-9.03544 9.03544,-9.03544c5.78183,0 11.56366,0 17.34549,0l0.56696,0.38644l1.02094,0.20054l1.01426,0.56982l4.18974,0.45238l2.62424,0.51547l1.89636,-0.02736l0.25582,0.02762l0.361,-0.03652l1.41214,-0.02037l18.04645,-2.06801c2.52867,0 5.05735,0 7.58602,0h1.04296c0,0 9.03545,0 9.03545,9.03544z" fill="#13106c" stroke="none" stroke-width="0.5"/><path d="M447.59432,-95.44714c10.07141,0.17836 10.50807,10.9511 4.51772,16.94146c-1.09761,1.09761 -2.96571,1.10195 -4.51772,1.12943c-19.74862,0.34976 -39.50621,0.33107 -59.25516,0c-0.07295,-0.00123 -0.14725,-0.00208 -0.22267,-0.0027c-4.88725,-0.11822 -8.81278,-4.11705 -8.81278,-9.03274c0,-3.31057 1.78044,-6.20528 4.43603,-7.77885c0.88877,-0.70615 2.08751,-1.12528 3.92794,-1.23204c0.22169,-0.01628 0.44561,-0.02458 0.67148,-0.02458c19.74895,-0.33107 39.50654,-0.34976 59.25516,0z" fill="#131171" stroke="none" stroke-width="0.5"/><path d="M444.69358,-72.77089c10.06825,0.18705 10.51296,10.94622 4.51772,16.94146c-1.09761,1.09761 -2.96574,1.10059 -4.51772,1.12943c-18.755,0.34844 -37.51935,0.3299 -56.27469,0c-0.07628,-0.00133 -0.15402,-0.00225 -0.23299,-0.00294c-4.88246,-0.12359 -8.80245,-4.12025 -8.80245,-9.0325c0,-3.31037 1.78025,-6.20495 4.4356,-7.77858c0.88319,-0.70131 2.0732,-1.11914 3.89722,-1.22996c0.23186,-0.01784 0.46619,-0.0269 0.70263,-0.0269c18.75534,-0.3299 37.5197,-0.34844 56.27469,0z" fill="#151380" stroke="none" stroke-width="0.5"/><path d="M449.19021,-46.78725c10.07089,0.17981 10.50889,10.95029 4.51772,16.94146c-1.09761,1.09761 -2.96572,1.10173 -4.51772,1.12943c-19.57664,0.34955 -39.1623,0.33088 -58.73929,0c-0.07351,-0.00125 -0.14836,-0.00209 -0.22438,-0.00273c-4.88646,-0.11911 -8.81106,-4.11758 -8.81106,-9.03272c0,-3.31053 1.78042,-6.20522 4.43597,-7.77879c0.88784,-0.70536 2.08512,-1.12428 3.92281,-1.23169c0.22339,-0.01653 0.44904,-0.02495 0.67667,-0.02495c19.57697,-0.33088 39.16263,-0.34955 58.73929,0z" fill="#0d0c4f" stroke="none" stroke-width="0.5"/><path d="M449.82725,-19.16682c10.07251,0.17529 10.50634,10.95284 4.51772,16.94146c-1.09761,1.09761 -2.96571,1.10242 -4.51772,1.12943c-20.12441,0.35021 -40.25762,0.33149 -60.38234,0c-0.07178,-0.00118 -0.14484,-0.00199 -0.219,-0.0026c-4.88897,-0.11631 -8.81644,-4.11592 -8.81644,-9.03284c0,-3.31062 1.78052,-6.2054 4.43619,-7.77894c0.89073,-0.70789 2.09257,-1.12748 3.93886,-1.23276c0.21808,-0.01574 0.43831,-0.02376 0.6604,-0.02376c20.12471,-0.33149 40.25795,-0.35021 60.38234,0z" fill="#080832" stroke="none" stroke-width="0.5"/><path d="M391.951,8.00005c20.58446,-0.06034 41.17208,-0.35077 61.75365,0c10.07383,0.17167 10.50432,10.95484 4.51772,16.94146c-1.09761,1.09761 -2.96569,1.10269 -4.51772,1.12943c-20.33226,0.35046 -40.67087,-0.11314 -61.00583,0c-0.33791,0.00188 -0.77311,0.06567 -1.26321,0.15261c-0.56806,0.163 -1.15905,0.27179 -1.76701,0.3204c-0.24078,0.01924 -0.48421,0.02906 -0.72994,0.02906c-4.99013,0 -9.03544,-4.0453 -9.03544,-9.03545c0,-3.82463 2.37632,-7.09423 5.73302,-8.41292c1.4681,-0.7578 3.42877,-1.11613 6.31478,-1.12459z" fill="#110f61" stroke="none" stroke-width="0.5"/><path d="M461.65089,45.92195c0,9.03544 -9.03545,9.03544 -9.03545,9.03544c-19.50266,0 -41.85938,0 -61.36204,0c0,0 -9.03545,0 -9.03545,-9.03544c0,-9.03544 9.03545,-9.03545 9.03545,-9.03545c19.50266,0 39.00534,0 58.508,0h2.85404c0,0 9.03545,0.00001 9.03545,9.03545z" fill="#1b19a4" stroke="none" stroke-width="0.5"/><text transform="translate(470.23157,-103.33689) scale(0.50611,0.50611)" font-size="40" xml:space="preserve" fill="#000000" fill-rule="nonzero" stroke="none" stroke-width="1" stroke-linecap="butt" stroke-linejoin="miter" stroke-miterlimit="10" stroke-dasharray="" stroke-dashoffset="0" font-family="Sans Serif" font-weight="normal" text-anchor="start" style="mix-blend-mode: normal"><tspan x="0" dy="0">1</tspan></text><text transform="translate(470.87497,-80.0995) scale(0.50611,0.50611)" font-size="40" xml:space="preserve" fill="#000000" fill-rule="nonzero" stroke="none" stroke-width="1" stroke-linecap="butt" stroke-linejoin="miter" stroke-miterlimit="10" stroke-dasharray="" stroke-dashoffset="0" font-family="Sans Serif" font-weight="normal" text-anchor="start" style="mix-blend-mode: normal"><tspan x="0" dy="0">2</tspan></text><text transform="translate(471.51834,-53.63442) scale(0.50611,0.50611)" font-size="40" xml:space="preserve" fill="#000000" fill-rule="nonzero" stroke="none" stroke-width="1" stroke-linecap="butt" stroke-linejoin="miter" stroke-miterlimit="10" stroke-dasharray="" stroke-dashoffset="0" font-family="Sans Serif" font-weight="normal" text-anchor="start" style="mix-blend-mode: normal"><tspan x="0" dy="0">3</tspan></text><text transform="translate(470.87067,-30.39705) scale(0.50611,0.50611)" font-size="40" xml:space="preserve" fill="#000000" fill-rule="nonzero" stroke="none" stroke-width="1" stroke-linecap="butt" stroke-linejoin="miter" stroke-miterlimit="10" stroke-dasharray="" stroke-dashoffset="0" font-family="Sans Serif" font-weight="normal" text-anchor="start" style="mix-blend-mode: normal"><tspan x="0" dy="0">4</tspan></text><text transform="translate(471.51405,-3.93194) scale(0.50611,0.50611)" font-size="40" xml:space="preserve" fill="#000000" fill-rule="nonzero" stroke="none" stroke-width="1" stroke-linecap="butt" stroke-linejoin="miter" stroke-miterlimit="10" stroke-dasharray="" stroke-dashoffset="0" font-family="Sans Serif" font-weight="normal" text-anchor="start" style="mix-blend-mode: normal"><tspan x="0" dy="0">5</tspan></text><text transform="translate(471.51189,22.53314) scale(0.50611,0.50611)" font-size="40" xml:space="preserve" fill="#000000" fill-rule="nonzero" stroke="none" stroke-width="1" stroke-linecap="butt" stroke-linejoin="miter" stroke-miterlimit="10" stroke-dasharray="" stroke-dashoffset="0" font-family="Sans Serif" font-weight="normal" text-anchor="start" style="mix-blend-mode: normal"><tspan x="0" dy="0">6</tspan></text><text transform="translate(471.50975,52.22596) scale(0.50611,0.50611)" font-size="40" xml:space="preserve" fill="#000000" fill-rule="nonzero" stroke="none" stroke-width="1" stroke-linecap="butt" stroke-linejoin="miter" stroke-miterlimit="10" stroke-dasharray="" stroke-dashoffset="0" font-family="Sans Serif" font-weight="normal" text-anchor="start" style="mix-blend-mode: normal"><tspan x="0" dy="0">7</tspan></text><path d="M208.8453,74.13212v-197.52186h129.85176v197.52188z" fill="#ffffff" stroke="#ffffff" stroke-width="2"/><path d="M284.62042,-106.7374c0,9.03544 -9.03545,9.03544 -9.03545,9.03544c-16.07194,0 -38.17086,0 -54.2428,0c0,0 -9.03544,0 -9.03544,-9.03544c0,-9.03544 9.03544,-9.03544 9.03544,-9.03544c16.07194,0 32.14388,0 48.21582,0h6.02698c0,0 9.03545,0 9.03545,9.03544z" fill="#3a3a3d" stroke="none" stroke-width="0.5"/><path d="M290.64736,-79.61599c0,9.03544 -9.03544,9.03544 -9.03544,9.03544c-10.5472,0 -24.10792,0 -34.65512,0c-5.92792,0 -12.656,-1.03799 -18.23718,1.04307c0,0 -8.57176,2.85726 -11.42902,-5.71452c-2.85726,-8.57176 5.71452,-11.42904 5.71452,-11.42904c7.9698,-2.49132 15.67657,-1.97041 23.95167,-1.97041c10.5472,0 21.09442,0 31.64164,0h3.0135c0,0 9.03544,0 9.03544,9.03544z" fill="#291d12" stroke="none" stroke-width="0.5"/><path d="M289.14065,-48.15098c0,9.03544 -9.03544,9.03544 -9.03544,9.03544c-19.08542,0 -42.69107,0 -61.77652,0c0,0 -9.03545,0 -9.03545,-9.03544c0,-9.03544 9.03545,-9.03545 9.03545,-9.03545c19.08542,0 38.17086,0 57.25628,0h4.52024c0,0 9.03544,0.00001 9.03544,9.03545z" fill="#16110c" stroke="none" stroke-width="0.5"/><path d="M282.70233,-18.56822c0,9.03544 -9.03544,9.03544 -9.03544,9.03544c-16.68723,0 -36.50334,0 -53.19057,0c0,0 -9.03545,0 -9.03545,-9.03544c0,-9.03544 9.03545,-9.03545 9.03545,-9.03545c16.68723,0 33.37447,0 50.0617,0h3.12887c0,0 9.03544,0.00001 9.03544,9.03545z" fill="#e6978f" stroke="none" stroke-width="0.5"/><path d="M285.19814,10.68545c0,9.03544 -9.03544,9.03544 -9.03544,9.03544c-15.61377,0 -34.92555,0 -50.53932,0c0,0 -9.03544,0 -9.03544,-9.03544c0,-9.03544 9.03544,-9.03544 9.03544,-9.03544c15.61377,0 31.22754,0 46.84131,0h3.69801c0,0 9.03544,0 9.03544,9.03544z" fill="#e65b4c" stroke="none" stroke-width="0.5"/><path d="M293.04183,38.71116c0,9.03544 -9.03545,9.03544 -9.03545,9.03544c-18.67948,0 -39.16666,0 -57.84612,0c0,0 -9.03544,0 -9.03544,-9.03544c0,-9.03544 9.03544,-9.03545 9.03544,-9.03545c18.67948,0 37.35896,0 56.03844,0h1.8077c0,0 9.03545,0.00001 9.03545,9.03545z" fill="#a66d67" stroke="none" stroke-width="0.5"/><text transform="translate(307.53634,-97.01298) scale(0.50611,0.50611)" font-size="40" xml:space="preserve" fill="#000000" fill-rule="nonzero" stroke="none" stroke-width="1" stroke-linecap="butt" stroke-linejoin="miter" stroke-miterlimit="10" stroke-dasharray="" stroke-dashoffset="0" font-family="Sans Serif" font-weight="normal" text-anchor="start" style="mix-blend-mode: normal"><tspan x="0" dy="0">1</tspan></text><text transform="translate(309.08357,-71.06408) scale(0.50611,0.50611)" font-size="40" xml:space="preserve" fill="#000000" fill-rule="nonzero" stroke="none" stroke-width="1" stroke-linecap="butt" stroke-linejoin="miter" stroke-miterlimit="10" stroke-dasharray="" stroke-dashoffset="0" font-family="Sans Serif" font-weight="normal" text-anchor="start" style="mix-blend-mode: normal"><tspan x="0" dy="0">2</tspan></text><text transform="translate(307.91926,-42.79128) scale(0.50611,0.50611)" font-size="40" xml:space="preserve" fill="#000000" fill-rule="nonzero" stroke="none" stroke-width="1" stroke-linecap="butt" stroke-linejoin="miter" stroke-miterlimit="10" stroke-dasharray="" stroke-dashoffset="0" font-family="Sans Serif" font-weight="normal" text-anchor="start" style="mix-blend-mode: normal"><tspan x="0" dy="0">3</tspan></text><text transform="translate(308.17543,-15.03468) scale(0.50611,0.50611)" font-size="40" xml:space="preserve" fill="#000000" fill-rule="nonzero" stroke="none" stroke-width="1" stroke-linecap="butt" stroke-linejoin="miter" stroke-miterlimit="10" stroke-dasharray="" stroke-dashoffset="0" font-family="Sans Serif" font-weight="normal" text-anchor="start" style="mix-blend-mode: normal"><tspan x="0" dy="0">4</tspan></text><text transform="translate(308.81881,11.43041) scale(0.50611,0.50611)" font-size="40" xml:space="preserve" fill="#000000" fill-rule="nonzero" stroke="none" stroke-width="1" stroke-linecap="butt" stroke-linejoin="miter" stroke-miterlimit="10" stroke-dasharray="" stroke-dashoffset="0" font-family="Sans Serif" font-weight="normal" text-anchor="start" style="mix-blend-mode: normal"><tspan x="0" dy="0">5</tspan></text><text transform="translate(308.81666,37.89551) scale(0.50611,0.50611)" font-size="40" xml:space="preserve" fill="#000000" fill-rule="nonzero" stroke="none" stroke-width="1" stroke-linecap="butt" stroke-linejoin="miter" stroke-miterlimit="10" stroke-dasharray="" stroke-dashoffset="0" font-family="Sans Serif" font-weight="normal" text-anchor="start" style="mix-blend-mode: normal"><tspan x="0" dy="0">6</tspan></text><path d="M688.41583,422.43218c-10.65656,5.40838 -21.57003,10.29567 -32.39898,15.35005c-2.83505,1.32324 -5.47154,3.13982 -8.46067,4.06373c-3.28389,1.01502 -6.87794,0.71112 -10.17123,1.69521c-2.77296,0.82859 -5.23879,2.46145 -7.85818,3.69218c-13.36554,0.59099 -26.22362,2.696 -39.56622,3.72678c-2.54661,0.19674 -5.13862,-0.46954 -7.66222,-0.07536c-4.60385,0.71909 -8.94886,2.73096 -13.56164,3.39041c-3.25332,0.46511 -6.62936,-0.64966 -9.8591,-0.0421c-5.79779,1.09063 -11.09315,4.39477 -16.95204,5.08562c-9.06934,1.0694 -18.26407,0.10873 -27.39617,0.14367c-18.65188,0.07133 -37.30708,0 -55.95873,0c-45.19983,0 -90.39965,0 -135.59945,0c-30.59324,0 -62.04055,1.77179 -92.59992,-0.25036c-8.99473,-0.59518 -17.86531,-2.53177 -26.85757,-3.16329c-15.8786,-1.11514 -32.43423,0.02965 -48.36782,0.02322c-4.89678,-0.00197 -13.22288,0.21663 -18.06714,-0.73186c-23.66162,-4.63285 -46.03092,-12.61033 -69.4112,-18.19077c-20.39036,-4.8668 -42.88548,-5.4511 -63.64082,-8.3404c-26.73508,-3.72172 -52.98834,-9.69615 -80.00336,-10.69535c-31.7078,-1.22201 -63.04043,-0.4374 -94.48722,0.1636c-5.37855,-30.27753 -10.05939,-61.33436 -11.8446,-88.01875c-0.71994,-10.76128 2.11121,-16.36983 2.11325,-24.88303c0.03649,-152.23424 0.03389,-304.46849 0.00061,-456.70272l20.84537,-1.78076h58.56353l0.89889,2.26529l4.89163,3.33625l2.02141,2.26965l2.08142,0.52862l0.38644,0.26356l2.89064,0.56871l5.64714,1.43419l1.8048,-0.28311l2.43141,-0.03434l49.67663,-5.67733l0.52015,-0.11275l0.53138,-0.03009l28.74851,-4.52865h390.43892l-0.00513,0.03398l-0.80325,1.03938l-0.46971,7.39082l-0.81813,5.41807l0.40843,1.02837l-0.07018,1.10428l2.45448,4.89902l2.73359,6.88276l1.08544,0.73982l0.4329,0.86406l4.75025,2.66872l3.11425,2.12264l1.02094,0.20054l1.01426,0.56982l4.18974,0.45238l2.62424,0.51547l1.89636,-0.02736l0.25582,0.02762l0.361,-0.03652l1.41214,-0.02037l249.03961,-28.53837l0.92314,18.46287l0.3438,2.28053l0.00083,0.28286l0.14063,0.65553l0.09994,0.66295l0.09912,0.26493l0.48377,2.25499l13.51351,42.04204l0.12861,0.29538l0.07564,0.31316l15.99699,45.70568l-3.84852,69.27343l0.03071,0.69476l-0.0692,0.69199v381.28756c-1.79582,0.82674 -3.85905,1.79064 -6.3139,3.03652z" fill="#151380" stroke="none" stroke-width="0.5"/><path d="" fill="#151380" stroke="none" stroke-width="0.5"/><path d="" fill="#151380" stroke="none" stroke-width="0.5"/><path d="" fill="#151380" stroke="none" stroke-width="0.5"/><path d="" fill="#151380" stroke="none" stroke-width="0.5"/><path d="M-123.14908,154.54811v-161.29622h79.93442v161.29622z" fill="#110f61" stroke="none" stroke-width="0"/><path d="M-145.98739,47.49309v105.62762h-34.18403c0.00263,-35.20921 0.00331,-70.41842 0.00216,-105.62762z" fill="#110f61" stroke="none" stroke-width="0"/><path d="M21.02632,150.26591v-199.46848h72.78944v199.46848z" fill="#110f61" stroke="none" stroke-width="0"/><path d="M130.92825,150.26591v-98.49062h98.49061v98.49062z" fill="#110f61" stroke="none" stroke-width="0"/><path d="M270.81337,153.12071v-168.43323h94.20841v168.43323z" fill="#110f61" stroke="none" stroke-width="0"/><path d="M407.84389,153.12071v-91.35361h188.41683v91.35361z" fill="#110f61" stroke="none" stroke-width="0"/><path d="M490.6331,74.61369v-79.93442h105.41412v79.93442z" fill="#110f61" stroke="none" stroke-width="0"/><path d="M-105.30319,35.98054v-15.9496h15.9496v15.9496z" fill="#1b19a4" stroke="none" stroke-width="0"/><path d="M-77.98241,35.88053v-15.9496h15.9496v15.9496z" fill="#1b19a4" stroke="none" stroke-width="0"/><path d="M-105.06136,64.80161v-15.94958h15.9496v15.94958z" fill="#1b19a4" stroke="none" stroke-width="0"/><path d="M-77.0078,64.70163v-15.94958h15.94958v15.94958z" fill="#131171" stroke="none" stroke-width="0"/><path d="M-105.55237,93.62271v-15.94958h15.9496v15.94958z" fill="#131171" stroke="none" stroke-width="0"/><path d="M-77.31927,93.52272v-15.94958h15.94958v15.94958z" fill="#1b19a4" stroke="none" stroke-width="0"/><path d="M-105.31054,120.97819v-15.9496h15.9496v15.9496z" fill="#1b19a4" stroke="none" stroke-width="0"/><path d="M-77.63075,120.8782v-15.9496h15.9496v15.9496z" fill="#1b19a4" stroke="none" stroke-width="0"/><path d="M-90.88963,153.60785v-21.44553h13.75751v21.44553z" fill="#1b19a4" stroke="none" stroke-width="0"/><path d="M51.41137,150.50258v-21.44553h13.75751v21.44553z" fill="#1b19a4" stroke="none" stroke-width="0"/><path d="M65.70681,114.78101v-15.94958h15.94958v15.94958z" fill="#1b19a4" stroke="none" stroke-width="0"/><path d="M65.91488,89.1375v-15.9496h15.9496v15.9496z" fill="#131171" stroke="none" stroke-width="0"/><path d="M65.28436,60.13329v-15.94958h15.94958v15.94958z" fill="#131171" stroke="none" stroke-width="0"/><path d="M65.49244,34.48978v-15.9496h15.94958v15.9496z" fill="#1b19a4" stroke="none" stroke-width="0"/><path d="M65.49242,7.37715v-15.94958h15.94958v15.94958z" fill="#1b19a4" stroke="none" stroke-width="0"/><path d="M65.70051,-18.26636v-15.94958h15.9496v15.94958z" fill="#1b19a4" stroke="none" stroke-width="0"/><path d="M-167.20666,130.97567v21.44553h-12.96471c0.00053,-7.14851 0.00098,-14.29702 0.00135,-21.44553z" fill="#1b19a4" stroke="none" stroke-width="0"/><path d="M-179.13545,74.2719v10.88473h-1.03328c0.00002,-3.62824 0.00002,-7.25649 -0.00001,-10.88473z" fill="#131171" stroke="none" stroke-width="0"/><path d="M-168.40443,85.08841v-10.88473h10.88472v10.88473z" fill="#1b19a4" stroke="none" stroke-width="0"/><path d="M-179.01291,93.33436v10.88473h-1.1561c0.00009,-3.62824 0.00016,-7.25649 0.0002,-10.88473z" fill="#1b19a4" stroke="none" stroke-width="0"/><path d="M-168.28186,104.15084v-10.88472h10.88473v10.88472z" fill="#1b19a4" stroke="none" stroke-width="0"/><path d="M-178.89035,112.83481v10.88473h-1.27932c0.00016,-3.62824 0.0003,-7.25649 0.00042,-10.88473z" fill="#1b19a4" stroke="none" stroke-width="0"/><path d="M-168.15925,123.6513v-10.88473h10.88471v10.88473z" fill="#1b19a4" stroke="none" stroke-width="0"/><path d="M-179.30684,55.94272v10.88473h-0.86197c-0.00005,-3.62824 -0.00012,-7.25649 -0.00021,-10.88473z" fill="#1b19a4" stroke="none" stroke-width="0"/><path d="M-168.57575,66.75922v-10.88473h10.88471v10.88473z" fill="#1b19a4" stroke="none" stroke-width="0"/><path d="M34.87719,114.98908v-15.94958h15.94958v15.94958z" fill="#1b19a4" stroke="none" stroke-width="0"/><path d="M35.08526,89.34557v-15.9496h15.9496v15.9496z" fill="#1b19a4" stroke="none" stroke-width="0"/><path d="M34.45474,60.34136v-15.94958h15.94958v15.94958z" fill="#1b19a4" stroke="none" stroke-width="0"/><path d="M34.66282,34.69785v-15.9496h15.94958v15.9496z" fill="#1b19a4" stroke="none" stroke-width="0"/><path d="M34.6628,7.58521v-15.94958h15.94958v15.94958z" fill="#131171" stroke="none" stroke-width="0"/><path d="M34.87089,-18.05834v-15.94958h15.9496v15.94958z" fill="#1b19a4" stroke="none" stroke-width="0"/><path d="M162.81423,149.72197v-21.44553h32.45475v21.44553z" fill="#1b19a4" stroke="none" stroke-width="0"/><path d="M144.70825,81.02087v-15.94958h15.94958v15.94958z" fill="#1b19a4" stroke="none" stroke-width="0"/><path d="M171.50606,80.70769v-15.94958h15.94958v15.94958z" fill="#1b19a4" stroke="none" stroke-width="0"/><path d="M198.30388,80.39451v-15.94958h15.94958v15.94958z" fill="#131171" stroke="none" stroke-width="0"/><path d="M144.80656,107.93059v-15.94958h15.94958v15.94958z" fill="#131171" stroke="none" stroke-width="0"/><path d="M171.60438,107.6174v-15.94958h15.94958v15.94958z" fill="#1b19a4" stroke="none" stroke-width="0"/><path d="M198.40221,107.30424v-15.94958h15.94958v15.94958z" fill="#1b19a4" stroke="none" stroke-width="0"/><path d="M283.88661,17.52876v-15.94958h15.94958v15.94958z" fill="#1b19a4" stroke="none" stroke-width="0"/><path d="M310.68438,17.21557v-15.94958h15.94958v15.94958z" fill="#1b19a4" stroke="none" stroke-width="0"/><path d="M337.48226,16.90238v-15.94958h15.94958v15.94958z" fill="#131171" stroke="none" stroke-width="0"/><path d="M284.11026,48.25468v-15.94958h15.94958v15.94958z" fill="#131171" stroke="none" stroke-width="0"/><path d="M310.90803,47.9415v-15.94958h15.94958v15.94958z" fill="#1b19a4" stroke="none" stroke-width="0"/><path d="M337.70592,47.62833v-15.94958h15.94958v15.94958z" fill="#1b19a4" stroke="none" stroke-width="0"/><path d="M284.33397,78.30278v-15.94958h15.94958v15.94958z" fill="#131171" stroke="none" stroke-width="0"/><path d="M311.1318,77.9896v-15.94958h15.94958v15.94958z" fill="#1b19a4" stroke="none" stroke-width="0"/><path d="M337.92953,77.67642v-15.94958h15.94958v15.94958z" fill="#131171" stroke="none" stroke-width="0"/><path d="M284.55763,107.67305v-15.94958h15.94958v15.94958z" fill="#1b19a4" stroke="none" stroke-width="0"/><path d="M311.35541,107.35987v-15.94958h15.94958v15.94958z" fill="#1b19a4" stroke="none" stroke-width="0"/><path d="M338.1533,107.04669v-15.94958h15.94958v15.94958z" fill="#1b19a4" stroke="none" stroke-width="0"/><path d="M302.67043,152.65697v-21.44553h32.45475v21.44553z" fill="#1b19a4" stroke="none" stroke-width="0"/><path d="M529.14783,152.26207v-21.44554h32.45475v21.44554z" fill="#1b19a4" stroke="none" stroke-width="0"/><path d="M510.55946,26.52892v-15.94958h15.94958v15.94958z" fill="#1b19a4" stroke="none" stroke-width="0"/><path d="M537.35729,26.21577v-15.94958h15.94958v15.94958z" fill="#1b19a4" stroke="none" stroke-width="0"/><path d="M564.15511,25.90255v-15.94958h15.94958v15.94958z" fill="#1b19a4" stroke="none" stroke-width="0"/><path d="M510.73152,57.46216v-15.94958h15.94958v15.94958z" fill="#131171" stroke="none" stroke-width="0"/><path d="M537.52934,57.14899v-15.94958h15.94958v15.94958z" fill="#1b19a4" stroke="none" stroke-width="0"/><path d="M564.32717,56.8358v-15.94958h15.94958v15.94958z" fill="#131171" stroke="none" stroke-width="0"/><path d="M510.73152,85.09509v-15.94958h15.94958v15.94958z" fill="#1b19a4" stroke="none" stroke-width="0"/><path d="M537.52934,84.78191v-15.94958h15.94958v15.94958z" fill="#131171" stroke="none" stroke-width="0"/><path d="M564.32717,84.46874v-15.94958h15.94958v15.94958z" fill="#131171" stroke="none" stroke-width="0"/><path d="M510.90357,116.02832v-15.94958h15.94958v15.94958z" fill="#131171" stroke="none" stroke-width="0"/><path d="M537.70139,115.71515v-15.94958h15.94958v15.94958z" fill="#1b19a4" stroke="none" stroke-width="0"/><path d="M564.49922,115.40196v-15.94958h15.94958v15.94958z" fill="#1b19a4" stroke="none" stroke-width="0"/><path d="M417.73005,94.62346v-18.90717h79.53782v18.90717z" fill="#1b19a4" stroke="none" stroke-width="0"/><path d="M418.38564,122.39032v-18.90717h79.5378v18.90717z" fill="#1b19a4" stroke="none" stroke-width="0"/><path d="M654.75558,-110.30164c-3.50129,-0.71629 -6.63333,-2.885 -10.17123,-3.39041c-4.47511,-0.63929 -9.05966,0.40927 -13.56164,0c-3.80654,-0.34606 -7.52947,-1.66655 -11.35142,-1.62175c-3.53595,-0.91742 -7.20611,-1.42078 -10.60783,-2.75227c-1.89723,-0.74261 -3.26413,-2.47766 -5.08562,-3.39041c-3.98071,-1.99474 -9.04931,-0.13614 -13.26523,-1.56828c-2.17778,-0.73979 -3.39991,-3.13071 -5.32915,-4.38289c-2.55499,-1.65831 -6.02111,-1.06116 -8.91101,-2.02367c-4.27097,-1.4225 -8.66095,-2.68351 -12.76243,-4.52697l103.10073,-11.81469l0.92314,18.46287l0.3438,2.28053l0.00083,0.28286l0.14063,0.65553l0.09994,0.66295l0.09912,0.26493l0.48377,2.25499l3.56069,11.07769c-6.01989,0.31058 -12.387,0.61737 -17.70709,-0.47101z" fill="#13106c" stroke="none" stroke-width="0.5"/><path d="" fill="#13106c" stroke="none" stroke-width="0.5"/><path d="" fill="#13106c" stroke="none" stroke-width="0.5"/><path d="" fill="#13106c" stroke="none" stroke-width="0.5"/><path d="M-124.08732,-152.68176c-11.35233,4.01499 -23.73456,8.13064 -35.59931,10.17124c-3.38744,0.58261 -6.78018,1.13397 -10.17124,1.69521c-2.42061,0.40063 -5.31738,-1.24857 -7.35978,0.11101c-1.19658,0.79653 -1.80161,2.3783 -2.97402,3.16023c-0.00095,-4.59442 -0.00193,-9.18885 -0.00293,-13.78327l20.84537,-1.78076h42.0939c-2.28314,0.31666 -4.57511,0.46262 -6.83199,0.42635z" fill="#13106c" stroke="none" stroke-width="0.5"/><path d="" fill="#13106c" stroke="none" stroke-width="0.5"/><path d="" fill="#f8f8f8" stroke="none" stroke-width="0.5"/><path d="" fill="#f8f8f8" stroke="none" stroke-width="0.5"/><path d="" fill="#f8f8f8" stroke="none" stroke-width="0.5"/><path d="" fill="#f8f8f8" stroke="none" stroke-width="0.5"/><path d="" fill="#f8f8f8" stroke="none" stroke-width="0.5"/><path d="" fill="#f8f8f8" stroke="none" stroke-width="0.5"/><path d="" fill="#f8f8f8" stroke="none" stroke-width="0.5"/><path d="" fill="#f8f8f8" stroke="none" stroke-width="0.5"/><path d="" fill="#f8f8f8" stroke="none" stroke-width="0.5"/><path d="" fill="#f8f8f8" stroke="none" stroke-width="0.5"/><path d="" fill="#f8f8f8" stroke="none" stroke-width="0.5"/><path d="" fill="#f8f8f8" stroke="none" stroke-width="0.5"/><path d="" fill="#f8f8f8" stroke="none" stroke-width="0.5"/><path d="M-100.0421,-145.30286c0,-1.24754 1.01132,-2.25886 2.25886,-2.25886c1.24754,0 2.25886,1.01132 2.25886,2.25886c0,1.24754 -1.01132,2.25887 -2.25886,2.25887c-1.24754,0 -2.25886,-1.01132 -2.25886,-2.25887z" fill="#f8f8f8" stroke="none" stroke-width="0.5"/><path d="" fill="#f8f8f8" stroke="none" stroke-width="0.5"/><path d="" fill="#f8f8f8" stroke="none" stroke-width="0.5"/><path d="" fill="#f8f8f8" stroke="none" stroke-width="0.5"/><path d="" fill="#f8f8f8" stroke="none" stroke-width="0.5"/><path d="" fill="#f8f8f8" stroke="none" stroke-width="0.5"/><path d="" fill="#f8f8f8" stroke="none" stroke-width="0.5"/><path d="" fill="#f8f8f8" stroke="none" stroke-width="0.5"/><path d="" fill="#f8f8f8" stroke="none" stroke-width="0.5"/><path d="" fill="#f8f8f8" stroke="none" stroke-width="0.5"/><path d="" fill="#f8f8f8" stroke="none" stroke-width="0.5"/><path d="" fill="#f8f8f8" stroke="none" stroke-width="0.5"/><path d="" fill="#f8f8f8" stroke="none" stroke-width="0.5"/><path d="" fill="#f8f8f8" stroke="none" stroke-width="0.5"/><path d="" fill="#f8f8f8" stroke="none" stroke-width="0.5"/><path d="" fill="#f8f8f8" stroke="none" stroke-width="0.5"/><path d="" fill="#f8f8f8" stroke="none" stroke-width="0.5"/><path d="M-148.13598,96.23849c-0.34649,-0.80106 -0.51433,-2.04669 -0.58179,-3.43504c-0.21506,0.87223 -0.42317,1.76256 -0.23724,2.38317c0.03351,0.11184 0.44074,0.60111 0.81902,1.05185zM-145.82791,51.27288c0,11.01422 0,22.59217 0,33.56523c0,3.64522 0.44035,7.28926 0.25368,10.92205c-0.05929,1.1539 0.50638,2.60569 -0.27678,3.4552c-1.64595,1.7854 -5.35796,-2.26331 -5.69831,-3.24325c-0.8246,-2.37417 0.86862,-5.56122 0.24054,-8.23807c-0.84259,-3.59101 -5.21486,-6.02086 -4.0919,-9.62806c0.45175,-3.72155 0.84507,-7.11026 2.6647,-10.2557c0.96994,-1.67664 -1.17407,-4.57521 -0.55854,-6.54784c0.44825,-1.43653 2.21916,-2.05823 2.47178,-3.79035c0.56332,-3.86238 -0.27103,-7.34526 4.07804,-8.77008c0,0 1.31486,-0.32871 1.64357,0.98615c0.23344,0.93372 -0.36198,1.37015 -0.72677,1.5447z" fill="#080832" stroke="none" stroke-width="0.5"/><path d="" fill="#080832" stroke="none" stroke-width="0.5"/><path d="M-85.36679,-4.26933c-0.19007,-0.115 -0.37033,-0.30115 -0.51573,-0.59194c-0.60611,-1.21223 0.60612,-1.81835 0.60612,-1.81835l0.69446,-0.31114c3.63733,-0.88853 7.64246,-0.45752 11.38061,-0.45752c3.57852,0 7.18395,0.04553 10.74728,-0.20513c1.53286,-0.10783 3.65265,-0.93394 4.8405,0.92948c1.06824,1.67575 -3.45374,6.61548 -4.53333,7.25362c-0.84508,0.4995 -2.06228,0.21131 -2.82625,0.82775c-1.63632,1.3204 -0.20398,7.07929 -0.23631,8.91752c-2.24086,4.72713 -5.89696,5.72988 -9.12766,1.05373c-0.90183,-1.30534 -0.35409,-3.72327 -1.15871,-4.87907c-1.17244,-1.68414 -5.06223,-1.54635 -6.4247,-4.01246c-0.78124,-1.41405 0.02992,-4.13831 -0.54482,-5.28171c-0.39924,-0.79425 -1.68795,-0.58895 -2.46032,-1.02903c0,0 -0.23987,-0.13706 -0.44113,-0.39573z" fill="#080832" stroke="none" stroke-width="0.5"/><path d="M-55.54273,141.4943c-0.55133,-0.31946 -0.65001,-1.01017 -0.65001,-1.01017c-0.81368,-6.15874 3.32159,-11.68375 3.32284,-17.69667c0.00081,-3.92695 -2.38549,-6.90087 -3.29023,-10.50357c-0.95334,-3.79628 -0.19444,-6.6134 1.1365,-10.12624c2.1566,-3.4746 4.80691,-6.55057 6.94368,-9.91316c0.83553,-1.31486 0.13647,-3.47207 1.32205,-4.48268c0.86924,-0.74096 2.34886,-1.21817 3.35786,-0.6829c0.64612,0.34275 0.53916,3.57388 0.53916,4.41844c0,4.66041 -0.74238,9.24019 -1.25323,13.83767c0.01489,11.44111 2.3128,22.04639 2.29323,33.58199c-0.11584,0.92671 0.08994,4.58466 -0.40831,5.21589c-0.58044,0.73534 -1.57328,1.26959 -2.51009,1.2642c-0.90812,-0.00521 -2.51951,-1.77 -3.40198,-2.21561c-1.72524,-0.87115 -3.81128,-0.6996 -5.66716,-0.6996h-0.41706c0,0 -1.09748,-0.00002 -1.31726,-0.98759z" fill="#080832" stroke="none" stroke-width="0.5"/><path d="M-123.41258,70.8638c0.25615,-0.08538 0.47828,-0.10272 0.66977,-0.07575c0.47218,-0.04789 0.87931,0.18477 0.87931,0.18477c2.93827,1.91829 2.27329,3.5703 2.86512,6.60897c0.24065,1.23558 3.1692,2.04069 3.74281,3.187c0.58698,1.17304 0.03426,2.67397 0.48788,3.90474c1.85866,5.04306 4.70799,10.00523 -0.41661,13.83707c-0.88304,2.21455 -0.52368,4.42302 -1.10744,6.67517c-0.62462,2.40983 -2.85106,5.14599 -4.3349,7.19284l-0.38959,1.16879c-0.17032,0.55382 -0.68597,0.95637 -1.29565,0.95637c-0.56996,0 -1.05776,-0.35182 -1.25804,-0.85014l-0.65982,-1.53957l0.55154,-0.23637c-0.78384,-2.50054 0.25531,-4.53238 0.23505,-7.9148c-0.04644,-7.74769 -0.22405,-15.52673 -0.22405,-23.29993c0,-2.32975 -0.23056,-4.63448 -0.20653,-6.95211l-0.39602,-1.13272c0,0 -0.42859,-1.28578 0.85717,-1.71436z" fill="#080832" stroke="none" stroke-width="0.5"/><path d="M19.75951,15.86195c-0.05076,-0.2729 -0.01959,-0.49102 -0.01959,-0.49102l0.19502,-1.36516c0.06161,-0.42319 0.12321,-0.84638 0.18481,-1.26957c-0.02345,-10.06977 -0.79481,-20.0525 -0.78184,-30.06506c-0.62775,-6.22159 1.43009,-11.79292 0.97686,-18.10864c-0.35107,-4.89186 -1.64482,-8.94129 -0.25086,-13.84969c4.10354,-0.14339 8.46998,0.67328 12.53113,0.1249c2.72448,-0.36788 5.11265,-1.58023 7.90471,-1.76569c1.99981,-0.13284 5.88654,-0.4197 4.62286,3.49646c-0.28668,0.88838 -1.65553,0.86378 -2.4968,1.26834c-1.91002,0.91847 -2.80159,1.93776 -4.20661,3.54486c-1.59495,3.85062 -7.21876,5.42971 -8.25859,9.29108c-0.66595,2.47295 -0.24307,5.27995 -0.72585,7.7937c-0.88038,4.5839 -2.85785,6.62109 -1.78134,11.48082c1.30792,4.26504 -1.20927,8.19265 -2.12764,12.35394c-1.37087,6.21167 -1.32944,12.15621 -3.14598,18.23589c0,0 -0.38947,1.29816 -1.68763,0.90871c-1.07518,-0.32255 -0.99271,-1.26845 -0.93265,-1.58388z" fill="#080832" stroke="none" stroke-width="0.5"/><path d="M74.58163,134.1408c-0.35958,0.19008 -1.05497,0.40099 -1.66467,-0.33062c-0.86766,-1.04119 0.17353,-1.90884 0.17353,-1.90884c2.44268,-2.02485 6.15773,-5.52995 7.51043,-8.46552c0.31281,-0.67883 -1.23688,-0.97973 -1.4763,-1.6878c-0.55324,-1.63612 -0.61367,-3.54038 -0.07353,-5.18087c0.59493,-1.80691 2.27599,-3.64439 2.87042,-5.42189c0.72744,-2.17525 0.24938,-5.54228 0.24938,-7.86373c0,-5.04317 -0.92841,-11.12588 0.36906,-15.99304c0.94556,-3.54702 2.96458,-6.29761 4.56977,-9.51293c1.82639,-3.65845 1.96705,-7.3971 4.14617,-10.53527l0.89928,-2.09832c0.2003,-0.49833 0.68807,-0.85014 1.25804,-0.85014c0.69772,0 1.27232,0.52723 1.34708,1.20504l0.31669,2.53365l-0.41605,0.05201c1.14691,6.21138 -0.14695,13.10589 -1.18565,19.15039c-0.91353,5.31618 0.7631,10.48335 1.60757,15.61791c-0.01804,4.70562 -1.39381,9.69728 -0.35058,14.47142c0.42622,1.9505 1.29046,2.50715 1.312,4.77648c0.02185,2.30275 0.77855,5.77579 -1.62161,7.22598c-2.77416,1.67618 -7.38512,2.07222 -10.51026,3.32228c-2.69654,0.5484 -5.3955,1.08489 -8.09379,1.62454l-0.58474,0.02633c0,0 -0.32209,-0.00001 -0.65225,-0.15702z" fill="#080832" stroke="none" stroke-width="0.5"/><path d="M147.02922,51.91473c-0.10362,0.03193 -1.29731,0.37007 -1.70715,-0.85946c-0.42858,-1.28576 0.85718,-1.71434 0.85718,-1.71434l0.88945,-0.29228c5.2169,-1.24008 11.84223,0.3884 17.24806,0.75119c7.32744,0.49174 14.95557,0.26113 22.29653,0.26113c5.56925,0 11.60547,0.98043 16.99582,0.53101c6.43421,-0.53645 11.53105,-2.61278 17.24302,-0.44283l0.08549,-0.29923l1.81356,0.51815c0.58217,0.15209 1.01181,0.68158 1.01181,1.3114c0,0.58175 -0.36653,1.07791 -0.88128,1.2701l-1.28665,0.51466l-0.02259,-0.05644l-0.13078,0.10742c-6.42854,0.92422 -10.04298,5.13807 -15.28296,8.59355c-3.45703,1.16116 -5.51193,6.09433 -8.51155,6.8828c-5.81131,1.52751 -4.07927,-3.83102 -5.72368,-6.6662c-0.29416,-0.50714 -3.4113,-0.30612 -3.84281,-0.3466c-2.07479,-0.19459 -3.98117,-2.03726 -6.04355,-1.84737c-2.10849,0.19414 -3.88181,1.32008 -6.21478,1.32559c-1.71158,0 -6.16761,0.67367 -7.58912,-0.22384c-0.65923,-0.41621 -0.59536,-1.45991 -1.06454,-2.08258c-0.78036,-1.03561 -4.28847,-1.74536 -5.55107,-2.27106c-4.00037,-1.66557 -9.05579,-4.452 -13.43063,-4.37112c0,0 -0.7817,0 -1.15777,-0.59366z" fill="#080832" stroke="none" stroke-width="0.5"/><path d="M-168.73928,138.49863c1.69521,0 3.51165,0.62959 5.08561,0c1.48395,-0.59358 1.86981,-2.89825 3.39041,-3.39041c3.27407,-1.0597 6.83864,-0.80104 10.27218,-1.03167c8.39615,-0.56401 17.0179,0 25.42807,0c13.30588,0 26.51823,-0.59001 39.4655,1.87021c3.05742,0.58096 6.24513,-0.47441 9.33574,-0.10904c2.86136,0.33827 5.61267,1.37416 8.47602,1.69521c2.52322,0.2829 5.12492,-0.38052 7.6163,0.10904c3.74994,0.73688 7.1601,2.78238 10.90773,3.53095c6.87339,1.37292 14.00606,1.39924 20.78616,3.17642c8.48777,-0.16818 16.97805,-0.10154 25.46732,-0.10154c4.1175,0 12.32501,1.19916 16.67916,0.14366c7.35865,-1.78383 14.08219,-5.60593 21.30247,-7.8861c8.67152,-2.73846 19.6763,-3.11727 28.70869,-4.07783c3.19309,-0.33957 6.46045,0.55057 9.63314,0.05537c2.30196,-0.35929 4.46435,-1.44587 6.78083,-1.69521c1.5029,-0.16177 3.06278,0.91876 4.5093,0.48c1.94967,-0.59139 3.12456,-2.83794 5.08561,-3.39041c8.16307,-2.29974 19.18335,-0.58154 27.66037,-0.58154c9.28484,0 18.01807,0.50162 27.08405,1.79675c5.68156,0.81166 11.63304,1.04565 16.88809,3.35286c0.99831,0.43831 0.88237,2.26986 1.89936,2.66289c1.19797,0.46296 2.60912,-0.85922 3.82652,-0.45013c2.44434,0.82136 4.31639,2.85161 6.6411,3.96749c3.89356,1.86893 8.94082,0.15939 12.77863,2.14028c2.41564,1.24686 3.31203,4.3298 5.22193,6.26431c0.16804,0.17019 0.10013,-0.66175 0.3376,-0.63313c2.8606,0.34472 5.68335,0.98613 8.47602,1.69521c13.89112,3.52707 28.43747,2.81457 42.8692,2.98254c9.23365,-1.53894 19.09134,-1.91631 27.84378,-5.6684c8.07915,-3.46346 14.17577,-8.92627 23.26244,-11.08527c2.19904,-0.5225 4.57033,0.47174 6.78083,0c6.5962,-1.40767 12.46241,-5.35502 19.03929,-6.85037c1.09012,-0.24786 2.26224,0.74059 3.32909,0.40654c0.97892,-0.30652 1.31238,-1.64532 2.21041,-2.14106c3.36823,-1.85937 6.79051,-3.73341 10.46964,-4.85874c1.92256,-0.58804 4.06563,0.24726 6.02852,-0.18756c3.05714,-0.67722 5.83797,-2.30466 8.86355,-3.11137c4.83116,-1.28813 9.92296,-1.24426 14.86933,-1.97423c4.73691,-0.69907 10.74749,-3.69803 15.25685,-5.08562c6.47684,0 8.68124,-2.30302 15.25686,-3.39041c6.13669,-1.01479 16.05112,-0.98309 22.15373,-0.10904c9.63771,1.38036 19.0663,4.17521 28.26247,7.37227c3.05422,1.06179 6.38667,1.37058 9.28857,2.79699c1.58556,0.77938 2.3853,2.64997 3.83809,3.65537c2.65823,1.8396 6.4143,1.07887 9.44334,2.20812c3.22585,1.20262 5.90781,4.09405 9.33519,4.41877c2.25021,0.21318 4.55307,-0.382 6.78083,0c5.09377,0.87344 9.62306,3.77451 14.39767,5.75247c2.89221,1.19814 6.25616,0.46274 9.33518,1.02836c4.98178,0.91515 9.38526,3.14363 13.95368,5.15516c4.61198,-0.44709 10.36586,-0.81937 14.86482,-0.06954c1.08086,0.18015 1.81889,1.5202 2.91464,1.5202c1.09576,0 1.8299,-1.36524 2.91464,-1.5202c7.69291,-1.09898 16.40508,-0.175 24.20865,-0.175c5.44707,0 11.57325,-0.66258 16.95205,0c0.62823,0.07738 1.02209,1.30242 1.59425,1.03166c1.44468,-0.68362 1.88347,-2.85789 3.39041,-3.39041c8.98114,-3.17373 19.33853,-1.12422 28.44367,-2.55188c1.76532,-0.27679 3.31887,-1.42749 5.08561,-1.69521c4.21193,-0.63822 12.37544,0.15527 16.26971,0.40654c12.07616,7.11993 28.30166,16.71485 32.77701,31.0818c1.95413,6.27325 -0.12915,15.5951 -1.15984,21.99742c-0.36671,2.27792 -2.44521,4.43496 -1.86078,6.66696c0.92809,3.54444 4.53105,5.84991 6.01534,9.19973c1.41757,3.19922 2.09313,6.71151 2.57087,10.17794c0.38574,2.79889 -0.31201,5.66797 0,8.47602c0.68816,6.19341 1.76799,12.37657 1.79675,18.60803c0.02535,5.49234 -1.22701,11.08557 -0.175,16.47627c0.68452,3.50763 2.8314,6.64142 3.39041,10.17124c0.64358,4.06383 0.14303,8.22786 0.175,12.3422c0.12196,15.69005 -0.85636,27.53318 -6.8236,42.23934c-6.44491,8.48341 -6.92844,11.38218 -16.50342,15.92577c-7.92309,3.75972 -15.2776,3.6482 -22.3185,9.9531c-3.85494,3.45197 -6.7785,8.00188 -11.09085,10.86203c-5.24009,3.47547 -11.46953,5.15991 -17.14547,7.86562c-11.8843,5.66524 -16.28999,9.0102 -29.18707,12.6421c-5.75995,1.62204 -11.77674,2.16272 -17.59596,3.55725c-8.78119,2.10435 -17.28714,5.40692 -26.18672,6.93496c-6.34222,1.08893 -31.35523,2.43029 -41.64814,3.52221c-32.72784,3.47192 -66.02406,11.2088 -99.00151,11.9175c-1.03758,0.0223 -53.43081,0.01682 -54.88779,0.01682c-59.90289,0 -119.80581,0 -179.7087,0c-27.39657,0 -54.44002,-0.18862 -81.78964,-1.59978c-4.31345,-0.22256 -8.71014,0.35571 -12.9489,-0.47391c-2.4582,-0.48112 -4.29746,-2.71604 -6.71418,-3.37451c-1.42462,-0.38816 -2.94422,0.45477 -4.41643,0.34183c-5.88609,-0.45159 -11.8577,-0.6334 -17.5934,-2.03048c-6.67994,-1.62706 -12.80756,-5.05777 -19.40799,-6.98218c-13.92801,-4.06081 -28.24945,-6.62952 -42.32266,-10.15435c-6.55568,-2.20096 -12.92961,-5.04463 -19.66705,-6.60289c-7.41416,-1.71476 -15.07916,-2.0657 -22.6078,-3.17457c-29.24188,-4.30689 -57.35051,-11.75283 -85.99898,-18.89045c-10.20118,-2.54157 -20.03987,-5.39107 -29.83444,-8.55021c-0.3731,-4.03034 -0.6922,-7.98468 -0.95062,-11.8474c-0.71994,-10.76128 2.11121,-16.36983 2.11325,-24.88303c0.01285,-53.58937 0.02085,-107.17874 0.02437,-160.76812c4.13633,-1.42835 8.02589,-3.3077 11.43154,-6.10863z" fill="#0d0c4f" stroke="none" stroke-width="0.5"/><path d="" fill="#0d0c4f" stroke="none" stroke-width="0.5"/><path d="M-146.46275,225.132c3.57458,-3.34339 7.11251,-6.72831 10.9315,-9.78359c2.48068,-1.9846 5.6336,-2.98712 8.19231,-4.87003c4.96235,-3.65173 3.8791,-6.61152 10.42165,-9.74283c3.53058,-1.68977 7.61607,-1.81597 11.39254,-2.84485c4.39955,-1.19866 8.59499,-3.52183 12.87041,-4.88222c5.68984,-1.81047 11.83635,-1.5917 17.77076,-2.25107c5.07653,-0.56406 10.11021,-1.73527 15.2176,-1.79675c15.7384,0 34.44143,-2.31806 49.05776,5.14961c5.00708,2.55818 8.30708,7.63135 12.92607,10.83762c2.91115,2.02076 6.21826,3.43974 9.07953,5.53052c2.29365,1.676 3.44563,4.72003 5.90094,6.14877c3.49936,2.03627 7.85087,2.71647 10.87603,5.40726c1.9924,1.77219 1.82258,5.08186 3.36332,7.25819c2.57545,3.63787 10.05675,9.97168 14.29643,11.68281c2.1605,0.87197 4.64046,0.77488 6.78083,1.69521c2.02929,0.87257 3.66143,2.47622 5.55723,3.60997c2.03379,1.21626 7.75963,0.87575 8.14411,0.89859c1.69521,1.13013 3.1649,2.71085 5.08562,3.39041c0.91507,0.32376 1.883,-0.55557 2.85332,-0.58154c4.113,-0.11003 8.25122,-0.264 12.3422,0.175c1.77669,0.19067 3.32027,1.4184 5.08562,1.69521c4.28081,0.67121 10.52526,0.54055 14.82031,-0.07346c7.04116,-1.0066 10.91133,-5.00755 16.89095,-8.44188c4.2283,-2.42848 8.3364,-5.08695 12.71453,-7.23356c3.20887,-1.57332 6.98124,-1.77919 10.17124,-3.39041c3.63715,-1.83707 6.53588,-4.9402 10.17124,-6.78083c9.03295,-4.57347 18.87439,-5.77374 27.45519,-10.96784c7.67304,-0.45591 14.64631,-2.99718 22.09898,-3.79694c10.58294,-1.13568 22.0006,-0.175 32.68467,-0.175c6.15126,0 14.23082,-0.95068 20.06593,0.36256c2.46539,0.55487 4.30286,2.89466 6.78083,3.39041c3.01695,0.60359 6.17477,-0.56452 9.22833,-0.18756c4.82189,0.59527 15.98141,4.24028 20.26406,6.06922c1.38378,0.59095 2.11792,2.29395 3.53013,2.81334c0.89308,0.32848 1.87254,-0.61772 2.81409,-0.48c8.1688,1.19479 12.1288,3.39671 19.91054,6.54238c8.8594,6.01215 18.60511,3.52731 29.28965,3.52731c6.7414,0 13.6109,-0.34553 20.34247,0c1.5265,0.07835 3.07519,0.98857 4.54853,0.58154c1.45035,-0.40067 2.15149,-2.21052 3.53013,-2.81335c2.13468,-0.93341 4.63818,-0.78021 6.78083,-1.69521c1.71623,-0.7329 2.94543,-2.3351 4.61399,-3.17086c8.56075,-4.28793 18.68129,-7.25579 26.84843,-12.38152c4.27591,-2.6836 7.4436,-6.94531 11.80578,-9.48624c5.00339,-2.91444 8.70985,-2.46059 12.76093,-6.75867c1.88165,-2.42128 3.27524,-5.31766 5.64497,-7.26385c1.71448,-1.40805 4.27734,-1.32412 6.18698,-2.45343c3.49306,-2.06568 6.05662,-5.53486 9.64674,-7.42683c1.19521,-0.62986 2.73521,-0.39075 3.9149,-1.0492c4.76381,-2.65897 7.91258,-7.61804 12.51491,-10.54761c1.56613,-0.99692 3.6391,-0.91226 5.27236,-1.79491c3.35647,-1.81394 10.30187,-9.63289 11.92708,-10.85623c2.019,-1.51976 4.66563,-2.00764 6.78083,-3.39041c4.07074,-2.66117 7.07318,-6.83065 11.3123,-9.21445c3.85971,-2.17046 8.21886,-3.31953 12.1946,-5.26931c2.63849,-1.29397 4.83986,-3.47415 7.61356,-4.44501c1.60002,-0.56005 3.47414,0.52621 5.08562,0c1.43036,-0.46706 2.14715,-2.2205 3.53013,-2.81334c1.74398,-0.74761 3.88765,-0.2488 5.58618,-1.09461c1.90561,-0.94892 2.86586,-3.43298 4.88147,-4.11794c3.70056,-1.25755 12.62435,-1.03166 17.053,-1.03166c8.47602,0 16.95205,0 25.42807,0c3.95266,0 14.78735,-0.053 16.67552,0.36256c3.3003,0.72636 6.11719,2.87642 9.21908,4.21727c9.12858,3.94603 19.71906,8.9531 27.80062,14.93047c6.29698,4.65744 9.83665,11.24883 15.2205,16.6682c4.98942,5.02235 11.48958,8.29809 15.50711,14.32465c1.23511,1.85274 1.35452,4.26019 2.34121,6.25634c1.8056,3.65288 4.57219,6.74695 6.78083,10.17124c1.59935,4.57851 3.23909,9.22412 4.80637,13.86595v210.49071c-1.66377,2.91019 -4.72542,4.99425 -6.88254,7.62309c-3.25992,3.97283 -6.70692,7.78853 -10.03128,11.7076c-2.18277,2.57326 -3.7194,5.73017 -6.24732,7.96531c-2.70576,2.39235 -6.32302,3.53665 -9.21232,5.70377c-2.30769,1.73087 -3.90219,4.32987 -6.30108,5.93195c-1.13456,0.75772 -2.92073,0.08244 -3.98425,0.937c-1.14251,0.91802 -0.91447,2.95193 -2.03355,3.89836c-4.14533,3.50575 -8.58457,6.7736 -13.4451,9.19213c-21.19561,10.54664 -39.17402,15.12506 -62.04842,19.72052c-19.57386,6.91108 -29.16421,11.60034 -49.67663,13.97599c-6.29008,0.72849 -12.68553,-0.48761 -18.99635,0.03124c-13.64144,1.12155 -26.88029,5.41753 -40.50122,6.76551c-12.77484,1.26426 -25.67443,0.05477 -38.51166,0.05477c-16.94641,0 -33.8928,0 -50.8392,0c-84.20085,0 -168.40167,0 -252.60252,0c-82.58808,0 -165.17615,0 -247.76423,0c-1.04357,-2.90922 -2.67517,-5.64932 -4.95243,-8.03992c-2.63322,-2.76427 -5.40328,-4.36596 -8.37457,-5.42077c-3.18307,-1.46886 -6.72744,-2.28825 -10.46319,-2.28825c-1.40801,0 -2.78884,0.1164 -4.13338,0.3401c-0.74512,0.12397 -1.47909,0.28089 -2.20037,0.46922c-0.75055,0.09761 -1.36982,0.01433 -1.49112,-0.60257c-9.22244,-46.89995 -22.96752,-113.04573 -26.34544,-163.53694c-0.71994,-10.76128 2.11121,-16.36983 2.11325,-24.88303c0.00519,-21.64355 0.00959,-43.2871 0.01322,-64.93065c1.90868,-1.31684 3.79519,-2.66698 5.99323,-3.30641c2.97148,-0.86444 6.14132,-0.72549 9.26319,-0.82696c0.87042,-0.72383 1.65947,-1.32226 2.34291,-1.72723c2.33516,-1.38367 5.136,-2.27751 6.87782,-4.35924l6.91278,-4.23399c0,0 0.89886,-0.44943 2.32945,-0.85877z" fill="#080832" stroke="none" stroke-width="0.5"/><path d="" fill="#080832" stroke="none" stroke-width="0.5"/><path d="M-165.97112,240.57065c17.6046,0 35.20921,0 52.81381,0c3.38768,0 18.99431,-0.20657 22.48369,0.60127c1.67407,0.38756 2.62391,2.49729 4.2822,2.95164c1.47384,0.40382 3.02491,-0.65576 4.54501,-0.53307c6.80302,0.54901 15.48947,1.42699 21.92293,3.75385c8.5907,3.10713 16.53943,8.2348 24.75016,12.00283c1.89014,0.86742 4.11162,0.74964 6.00601,1.60707c5.98197,2.70747 12.14489,7.19425 17.34375,11.22565c2.16964,1.16795 4.59763,1.92554 6.50895,3.50388c1.33642,1.10359 1.46137,3.49469 2.9715,4.3249c1.08835,0.59835 2.44266,-1.00745 3.63691,-0.69181c8.57128,2.2654 19.6407,8.7874 27.21309,12.91109c0.97021,0.52834 1.68992,1.61046 2.76232,1.84713c2.02598,0.44709 4.25457,-0.56319 6.21351,0.13362c5.57847,1.98426 9.17121,5.78672 14.41538,7.93731c4.45691,1.82772 9.33267,2.40361 13.78966,4.23121c2.86779,1.17594 5.36501,3.21503 8.26068,4.31553c1.97802,0.75175 4.18308,0.61698 6.21716,1.18679c4.20078,1.17678 8.12183,3.60348 12.45131,4.06302c2.85132,0.30263 5.79429,-0.36086 8.59491,0.26987c2.07909,0.46824 3.67153,2.31933 5.7096,2.95164c3.01023,0.93396 6.29467,-0.63678 9.42319,-0.32712c2.881,0.28518 5.70961,0.98387 8.56441,1.47581c6.30266,0.05775 11.59824,2.42481 17.66689,3.00889c7.47276,0.71922 15.19028,-1.04246 22.66131,-0.02133c7.912,1.0814 15.34741,4.72713 23.23936,5.95507c4.6541,0.72416 9.38643,0.79054 14.05013,1.44536c6.42639,0.90231 14.9825,-0.10499 21.18244,-0.10499c17.1288,0 34.25761,0 51.38641,0c16.74385,0 34.19616,-1.31021 50.91978,0.03526c5.8955,0.4743 11.62124,2.35901 17.50354,2.98459c15.11367,1.6073 32.16439,-0.0682 47.19612,-0.0682c17.3502,0 35.59502,1.34446 52.90572,0.0682c7.0325,-0.51847 13.53403,-4.05121 20.61729,-4.98959c7.10305,-5.38074 16.46329,-7.09375 24.36756,-11.17728c1.80622,-0.93313 3.24752,-2.55585 5.10887,-3.3649c5.18907,-2.25546 11.02225,-2.56961 16.27105,-4.67214c3.26135,-1.3064 6.09552,-3.67379 9.43661,-4.7433c3.21391,-1.0288 6.74489,-0.56455 9.99181,-1.47581c1.93393,-0.54276 3.44686,-2.18882 5.35221,-2.83057c4.79108,-1.6137 9.98308,-1.63601 14.81057,-3.12917c5.8734,-1.81667 11.15144,-5.33514 16.9707,-7.32942c3.93734,-1.34934 8.29602,-1.16392 12.16442,-2.71184c5.77159,-2.30944 11.70446,-4.57193 17.85835,-5.25013c1.88774,-0.20805 3.83288,0.6031 5.69186,0.20509c2.50904,-0.53716 4.61086,-2.50842 7.13701,-2.95164c3.65775,-0.64175 7.41828,-0.16857 11.1274,-0.25285c8.89547,0 18.27258,-0.92716 27.12061,0c4.77727,0.5006 10.32229,-0.74489 14.26232,2.09283c10.16464,7.3209 9.08006,15.15707 9.28265,25.20249c0.32103,15.91792 2.24601,35.02685 -4.0134,49.94359c-1.23502,2.94317 -7.4309,11.59174 -9.29278,13.84306c-7.26746,8.78758 -13.70113,11.76671 -23.4197,17.69684c-4.59346,2.80285 -8.54565,6.71942 -13.33964,9.13676c-21.60635,10.89485 -30.67956,12.27196 -53.36583,18.58964c-23.61319,9.78073 -47.95392,19.85974 -72.88422,25.51454c-17.45499,3.95921 -36.32615,5.6563 -53.97388,7.57992c-8.41373,0.91712 -16.93079,-0.33592 -25.38094,0.09382c-11.9186,0.60615 -23.75439,2.70515 -35.68502,2.95164c-67.18291,1.38795 -134.58867,0.01115 -201.78999,0.01115c-77.56018,0 -155.12035,0 -232.6805,0c-33.4911,0 -67.32775,2.00001 -100.47943,-3.10333c-3.28069,-0.50503 -6.63281,-0.87976 -9.99057,-1.27613c-7.41003,-38.68531 -14.84235,-81.65082 -17.2046,-116.96044c-0.71994,-10.76128 2.11121,-16.36983 2.11325,-24.88303c0.00518,-21.60158 0.00957,-43.20315 0.0132,-64.80473c4.73696,0 9.47392,0 14.21088,0z" fill="#291d12" stroke="none" stroke-width="0.5"/><path d="" fill="#291d12" stroke="none" stroke-width="0.5"/><g stroke="none" stroke-width="0"><path d="M433.90397,241.59465l4.50209,-1.15103c0.66319,0.25675 1.35161,0.46283 2.06053,0.61349l0.15241,0.13638l0.40078,-0.03085c0.7406,0.12534 1.50162,0.19061 2.27789,0.19061c1.543,0 3.02575,-0.25784 4.40756,-0.73279h1.40955l3.0726,1.22904l4.38309,0.59769l0.65042,0.37168l0.39982,-0.22847l1.48775,0.20288l3.65894,-2.90563h9.84232l1.59624,-0.39906l0.78983,0.29451l2.11359,-1.02037l2.27693,-0.56924l0.41822,-0.73187l1.48172,-0.71531l1.19882,-0.99903l3.80643,-0.53112l5.56981,0.30943l0.7987,-1.19806l1.63419,-0.22804l4.08973,-5.66271l1.46562,-3.664l0.00535,-0.0393l8.93005,-2.28308c0.21613,0.0791 0.35072,0.11274 0.35072,0.11274c3.54168,0.88183 7.23202,1.12267 10.7407,2.1278c2.03218,0.58216 3.76724,2.62674 5.86919,2.40216c6.45967,-0.69018 7.07077,-2.12129 8.45743,-5.49436l1.02455,0.81965c0.77748,0.63297 1.76957,1.01246 2.8503,1.01246c2.49507,0 4.51772,-2.02266 4.51772,-4.51772c0,-1.08073 -0.37948,-2.07282 -1.01246,-2.85031l-1.32677,-1.65846l17.74531,-4.5368l3.2177,0.91934l1.88936,0.06298l1.83398,0.4585h5.7109l0.12666,0.08445l0.37999,-0.08445h0.37765l3.02116,-0.75529l3.04,-0.67554l0.33776,-0.16889l0.37765,-0.09442l0.07554,-0.13217l0.67464,-0.33733l2.78355,-2.3859l1.01666,-0.28594l0.35764,-0.67057l1.50582,0.37645h5.1296l2.11363,-0.52841l2.17225,-0.1671l2.1984,-0.73279l0.02478,-0.01576l3.93154,-0.98288l0.26552,-0.46465l0.53436,-0.02969l2.20767,-2.5756l0.66504,-0.44337l2.51509,-2.7666l6.62686,-1.69423l5.13696,20.0928c-4.02854,0.56038 -8.06368,2.30361 -6.29167,7.84734c0.6319,1.97692 4.56092,0.64943 6.03243,1.94759c0.22699,0.54925 0.37318,1.14477 0.48952,1.77275c-0.13595,0.8539 -0.53482,1.76497 -0.40379,2.60366c0.59012,3.77752 -0.18824,4.58021 -2.53507,5.90216l-1.46432,0.48812c-0.56822,0.17475 -1.04091,0.5676 -1.32034,1.08087c-0.0665,0.03981 -0.13363,0.08026 -0.2014,0.12135l-0.19441,0.38129l-0.09346,-0.07188l-2.49315,3.24139c-0.30141,0.3839 -0.48116,0.86786 -0.48116,1.39379c0,1.24754 1.01132,2.25886 2.25886,2.25886h2.39244v-0.35316c3.1273,0.40804 6.16449,0.35316 9.56976,0.35316h2.14158l10.16296,39.75154l-179.20914,45.81696z" fill="#a66d67"/><path d="M570.70839,227.74278l17.72089,-4.53056l4.53055,17.72089l-17.72089,4.53055z" fill="#080832"/><path d="M578.58006,258.06919l17.72089,-4.53056l4.53055,17.72089l-17.72089,4.53055z" fill="#080832"/><path d="M538.75526,236.1982l17.72087,-4.53055l4.53055,17.72089l-17.72087,4.53055z" fill="#080832"/><path d="M546.83507,267.33881l17.72087,-4.53055l4.53055,17.72087l-17.72087,4.53055z" fill="#080832"/><path d="M506.59392,243.83944l17.72087,-4.53055l4.53055,17.72089l-17.72087,4.53055z" fill="#080832"/><path d="M514.72473,275.17954l17.72087,-4.53055l4.53055,17.72087l-17.72087,4.53055z" fill="#080832"/><path d="M476.26915,251.87856l17.72089,-4.53055l4.53055,17.72089l-17.72089,4.53055z" fill="#080832"/><path d="M484.2428,282.60391l17.72089,-4.53055l4.53055,17.72089l-17.72089,4.53055z" fill="#080832"/><path d="M442.55404,277.56788l23.82721,-6.09171l3.90788,15.28539l-23.82721,6.09171z" fill="#080832"/></g><path d="M-179.46318,314.26676c3.3985,-0.66974 6.56989,-2.3173 9.99181,-2.8548c1.05402,-0.16555 14.1956,-0.131 16.15385,-0.131c9.76732,0 17.13448,-0.40533 26.11323,3.69665c2.68257,0.61855 9.56429,2.16105 11.41921,2.85481c3.81859,1.42818 7.0054,4.35335 10.90822,5.53209c3.45096,1.04226 7.29805,0.76246 10.57483,2.26518c2.43453,1.11645 3.84245,3.75851 6.00521,5.33834c2.90016,2.1185 6.62585,2.77427 9.95545,4.1207c3.99623,1.61601 7.52542,4.28716 11.57225,5.7719c2.3929,0.87794 5.15293,0.54163 7.48243,1.57612c2.17425,0.96554 3.60865,3.16613 5.70961,4.2822c3.73755,1.98548 8.5733,-0.23572 12.66949,0.82853c4.31708,1.12164 7.83804,4.53301 12.18614,5.5277c13.57723,3.10606 26.88126,5.86124 40.67285,8.21094c7.86409,-0.06034 15.35337,0.98985 23.05603,1.44719c29.24513,1.73638 59.26218,-0.06595 88.59072,-0.06595c9.516,0 19.03201,0 28.54801,0c4.78105,0 12.93241,1.25555 17.81264,0.175c2.93808,-0.65054 5.59016,-2.39722 8.56439,-2.85479c3.29186,-0.50645 6.6612,0 9.99179,0c12.0746,-4.02488 28.70941,-4.85559 41.45436,-2.8548c2.9728,0.4667 5.59462,2.36911 8.56439,2.8548c2.5734,0.42089 5.21336,-0.1494 7.82083,-0.17502c14.92024,-0.14659 31.13645,-1.73833 45.90539,0.10156c1.60782,0.2003 14.04427,3.40777 15.2462,3.91186c1.09213,0.45805 1.60336,1.90274 2.72672,2.27773c0.77862,0.25991 1.57632,-0.60656 2.39625,-0.5676c5.24947,0.2494 10.45973,1.04823 15.7014,1.4274c3.95342,0.28597 7.99998,-0.25363 11.87774,0.5676c1.67829,0.35543 2.62173,2.42374 4.2822,2.8548c1.57741,0.40951 3.24228,-0.62542 4.86548,-0.48c1.95395,0.17505 3.80639,0.9516 5.7096,1.4274c6.62125,-0.04373 13.11455,1.83987 19.66313,2.81922c11.3249,1.69366 24.27696,-0.06595 35.77691,-0.06595c4.40471,0 8.89922,1.52677 13.20131,0.58154c1.67555,-0.36814 2.60158,-2.51052 4.2822,-2.8548c2.23996,-0.45887 15.53059,-0.71469 19.62891,-0.58154c1.34575,0.04373 2.71598,0.68563 4.02312,0.36256c1.53929,-0.38045 2.64241,-1.80344 4.12124,-2.37551c5.76077,-2.22847 11.59562,-3.77689 17.2359,-6.56725c2.91919,-1.44419 5.42114,-3.7319 8.47675,-4.85912c2.71531,-1.00169 5.84367,-0.44051 8.56439,-1.4274c2.44113,-0.88547 4.20522,-3.16436 6.63321,-4.08521c4.29053,-1.62725 8.8791,-2.3212 13.31866,-3.48181c5.18793,-1.29698 12.09362,-1.76634 16.95611,-3.77503c2.71408,-1.12117 4.7922,-3.59822 7.60183,-4.45221c4.36011,-1.32527 9.04482,-1.15554 13.52844,-1.97036c7.8639,-1.42912 15.34498,-4.75264 23.27172,-5.77746c4.32088,-0.55862 8.72668,0.30751 13.07048,-0.02946c1.95588,-0.15172 3.7611,-1.19956 5.70961,-1.4274c3.61022,-0.42215 7.35534,0.85923 10.9042,0.07346c2.93808,-0.65054 5.59749,-2.35185 8.56439,-2.8548c7.6101,-1.2901 18.62496,-0.87824 26.43677,-0.175c4.05379,0.36494 8.44303,-0.17336 12.10479,1.6037c3.09524,1.50211 4.63084,5.08948 6.94087,7.63912c6.98962,7.71471 8.63893,13.9506 8.78153,24.29396c-0.34389,5.53526 1.21411,11.5349 -1.03168,16.60577c-5.96709,13.47335 -10.80408,11.91 -20.48583,16.80007c-19.79482,9.99801 -42.86141,11.52655 -64.83306,11.55011c-30.17475,0.03236 -60.01747,2.53914 -90.06333,5.15207c-8.82369,0.76734 -28.46064,2.44999 -31.44674,3.01744c-9.01304,1.71272 -17.41752,6.16952 -26.50844,7.40386c-1.23709,0.16797 -53.71369,0.12803 -56.07116,0.12803c-26.17376,0 -52.34751,0 -78.52129,0c-71.85057,0 -143.70114,0 -215.55171,0c-35.78538,0 -72.088,-1.85833 -107.8073,-0.01682c-9.01108,0.46458 -17.9239,2.22378 -26.93462,2.69527c-18.70697,0.97885 -37.77554,0.17636 -56.52971,0.17636c-9.43524,0 -19.40165,0.96301 -28.77657,-0.10156c-7.0569,-0.80133 -14.02584,-2.67503 -20.65941,-5.21233c-2.08874,-0.79893 -3.45073,-3.0231 -5.56822,-3.7423c-1.20117,-0.40799 -2.5415,0.22718 -3.81508,0.30366c-5.26121,-29.77906 -9.81194,-60.2247 -11.56629,-86.44778c-0.43974,-6.57294 0.44534,-11.22354 1.20136,-15.78785c0.55102,-0.0326 1.0993,-0.09648 1.6439,-0.2038z" fill="#16110c" stroke="none" stroke-width="0.5"/><path d="" fill="#16110c" stroke="none" stroke-width="0.5"/><path d="M305.86435,-15.81827c0.39904,-0.34792 0.94646,-0.34792 0.94646,-0.34792l0.92583,0.02631c3.17759,-0.58692 7.05015,0.27159 10.36504,0.27159c14.01134,0 28.02269,0 42.03402,0c1.58604,0.01068 4.01642,-0.30827 5.27016,1.15867c2.53504,2.96614 -1.39404,7.4971 -3.81012,8.57769c-3.0553,1.36649 -6.16342,0.12531 -9.28636,0.7023c-7.16919,1.32458 -11.21819,2.63961 -18.506,0.11297c-3.76874,-3.90642 -12.48207,-1.66991 -17.41703,-3.78838c-3.07937,-1.3219 -6.70857,-4.17208 -10.17136,-4.05263c0,0 -1.35532,0 -1.35532,-1.35532c0,-0.90408 0.60309,-1.2051 1.00465,-1.3053z" fill="#080832" stroke="none" stroke-width="0.5"/><path d="M292.56414,135.04888c-1.457,-0.02167 -2.29972,0.37369 -3.63193,0.96749c0,0 -0.21472,0.09544 -0.50506,0.11743c-4.41222,1.93362 -8.38463,5.15656 -12.81921,7.09213c-1.4486,0.43475 -3.26516,3.05985 -5.08276,1.849c-1.17764,-0.78455 -0.36398,-4.58158 -0.54535,-5.81122c-1.246,-8.4483 0.3915,-16.52055 0.44807,-24.85432c3.163,-9.74662 -1.01299,-21.09673 -0.06539,-31.20378l-0.16255,0.02322l-0.22076,-1.54517c-0.01113,-0.06993 -0.01691,-0.14168 -0.01691,-0.21475c0,-0.74853 0.60679,-1.35532 1.35532,-1.35532c0.46117,0 0.86856,0.23036 1.11337,0.58225l1.00004,1.40008c2.28087,1.46114 6.50014,3.52323 7.81459,5.89451c1.79066,3.23037 0.19388,8.13902 0.59976,11.6616c0.24913,2.16223 1.13819,4.61213 1.73722,6.70869c1.01665,2.87459 3.56277,5.07393 4.68078,7.99848c1.34746,3.52473 0.45954,7.35114 1.99895,10.93528c0.66213,1.54163 0.9568,4.61338 2.2233,5.94535c0.2739,-0.06341 1.11087,-0.17906 1.52513,0.63873c0.05195,-0.00222 0.10485,-0.00629 0.15872,-0.01227c0,0 1.35532,0 1.35532,1.35532c0,1.35532 -1.35532,1.35532 -1.35532,1.35532c-0.07722,-0.00434 -0.15353,-0.00987 -0.22896,-0.01655z" fill="#080832" stroke="none" stroke-width="0.5"/><path d="M460.15228,61.56198c0.37895,-0.76762 1.32775,-0.68137 1.32775,-0.68137c6.4515,0.59025 13.2768,0.48703 19.66876,-0.22151c2.08465,-0.23107 8.83679,0.20569 8.03977,-0.26501c-0.68382,-4.81988 0.04382,-12.7498 0.85295,-17.65379c0.14634,-0.88686 0.4542,-4.6596 1.29242,-4.96026c7.0014,-2.51147 7.67471,9.4763 7.67022,13.16421c0.03883,1.86453 1.20917,1.56897 2.52768,2.94413c1.31834,1.37498 4.71278,7.69222 4.40503,9.43965c-0.38879,2.20768 -2.36074,3.34347 -4.26814,3.99536c-4.65987,1.59257 -11.49356,3.38399 -16.33935,3.43148c-4.2073,0 -7.40856,1.03264 -11.46199,1.55516c-3.02265,0.38965 -4.3723,-1.098 -6.99645,-1.81545c-2.73349,-0.74734 -4.79446,0.89297 -7.28812,1.35873c-3.65144,0.68201 -8.07485,0.06441 -11.79157,-0.02365c-0.61551,-0.33462 -1.23103,-0.66924 -1.84656,-1.00385l-1.74601,-0.873c-0.45844,-0.21732 -0.77546,-0.68431 -0.77546,-1.22535c0,-0.74853 0.60679,-1.35532 1.35532,-1.35532h0.34425c1.14363,-1.18561 0.93336,-2.63981 3.15026,-3.69721c2.41859,-1.15359 5.82452,0.22968 8.00806,-0.86977c1.83062,-0.92176 2.23495,-1.44744 3.87118,-1.24319z" fill="#080832" stroke="none" stroke-width="0.5"/><path d="M558.45275,-4.88482c0.13374,-0.73499 0.92558,-0.99894 0.92558,-0.99894c0.5891,-0.19628 1.18643,-0.37546 1.79111,-0.53887c0.19878,-0.23617 0.51564,-0.42438 1.0207,-0.42438c0.1718,0 0.32181,0.02178 0.45281,0.0598c8.90351,-2.00838 19.19217,-0.95351 28.14602,-0.95351c0.67088,0 3.93347,-0.04809 4.28739,0.20241c2.15871,1.52795 1.8293,6.78837 1.83439,9.19633c0.00627,2.95898 1.23336,5.2871 1.48491,8.22954c0.42812,5.00807 -0.49874,10.57889 -1.4915,15.43846c0.01523,3.13306 0.0066,6.2663 0.0066,9.39939c0,0.68304 0.05531,3.41941 -0.25583,3.77152c-2.12564,2.40547 -7.3477,0.79548 -8.30974,-2.06123c-1.08474,-3.22108 0.54072,-7.54023 -0.33152,-10.81464c-0.13998,-0.52548 -3.9773,-3.77772 -4.04123,-3.85098c-1.25963,-3.14113 -1.25219,-7.15433 -2.71976,-9.93962c-0.53777,-1.02061 -2.60799,-1.55061 -3.50783,-2.24923c-2.76681,-2.14808 -6.7938,-5.45541 -10.44875,-5.99656c-3.99939,-0.59215 -6.99766,0.87319 -10.47844,-1.8105c-2.22129,-2.41129 -5.98976,0.37692 -4.51281,-4.82001c0.69351,-2.4402 3.65669,-2.97608 5.672,-2.19362c0.16161,0.06274 0.32059,0.20064 0.47588,0.35464z" fill="#080832" stroke="none" stroke-width="0.5"/><path d="M645.87695,-113.57799c0,9.03544 -9.03545,9.03544 -9.03545,9.03544l-6.47362,-0.26978c-3.99616,-1.07516 -7.68535,-3.07907 -11.45572,-4.78483c-4.31354,-1.95151 -9.44784,-1.22443 -13.94136,-2.71551c-1.74035,-0.57751 -2.93187,-2.26609 -4.61485,-2.99407c-3.96256,-1.71408 -8.25655,-2.54523 -12.2991,-4.06109c-7.82177,-2.93299 -14.65447,-1.46853 -21.7609,-5.84609c-8.43746,-1.41635 -17.89718,-2.8689 -26.00616,-6.06056l51.65688,-5.91955c0.77454,0.292 1.54874,0.58276 2.32581,0.8579c4.4402,1.57213 9.05907,2.66097 13.39411,4.5033c1.47039,0.62489 2.43477,2.20756 3.94955,2.71552c4.71224,1.58017 10.01136,1.10055 14.60664,2.99407c2.87481,1.1846 5.48982,3.11785 8.5279,3.77958l2.09079,-0.26978c0,0 9.03544,0 9.03544,9.03544z" fill="#131171" stroke="none" stroke-width="0.5"/><path d="M-120.20213,-147.67109c-3.21035,0.44096 -6.49854,0.49334 -9.63106,1.3229c-4.5011,1.19198 -8.34528,4.20439 -12.76075,5.68231c-3.60241,1.20578 -7.5058,1.40211 -11.06432,2.73185c-2.33431,0.87228 -4.33734,2.62716 -6.76849,3.17433c-5.59399,1.259 -11.44034,-0.0613 -16.97681,2.32411c-0.95533,0.41161 -1.88095,0.88007 -2.78678,1.38659c-0.00128,-6.38619 -0.00262,-12.77238 -0.00401,-19.15856c2.19795,-0.57336 4.76657,-1.22481 6.68131,-1.69058l5.65747,-0.4833c1.10444,0.1378 2.20565,0.26819 3.27697,0.0343c0.38977,-0.08509 0.75647,-0.22942 1.10969,-0.40904l4.11968,-0.35193h50.68746c-3.90288,1.61336 -7.60197,3.8943 -11.54037,5.43702z" fill="#131171" stroke="none" stroke-width="0.5"/><path d="M-145.26222,211.1977l-34.91942,27.24763c0.00357,-21.56748 0.00638,-43.13496 0.00846,-64.70243l5.656,-4.41338z" fill="#a66d67" stroke="none" stroke-width="0"/><path d="M555.61219,-128.86039c0,-1.24754 1.01132,-2.25887 2.25886,-2.25887c1.24754,0 2.25887,1.01132 2.25887,2.25887c0,1.24754 -1.01132,2.25886 -2.25887,2.25886c-1.24754,0 -2.25886,-1.01132 -2.25886,-2.25886z" fill="#f8f8f8" stroke="none" stroke-width="0.5"/><path d="M674.92676,272.81086c0,9.03544 -9.03545,9.03545 -9.03545,9.03545h-5.7096c-3.11547,0 -6.34295,-1.08084 -9.34328,-0.24172c-2.04921,0.57312 -3.63109,2.39921 -5.70961,2.8548c-2.64092,0.57885 -5.40596,0.11601 -8.10895,0.17401c-6.31454,1.67396 -12.48055,3.76286 -18.76848,5.47461c-8.60917,2.34365 -18.27576,2.74609 -26.64556,5.56939c-3.02435,1.02017 -5.53643,3.27287 -8.56441,4.2822c-9.68155,3.22719 -21.62855,3.8646 -30.7327,8.99601c-1.9038,1.07305 -2.81588,3.47931 -4.7221,4.54808c-2.12727,1.19268 -4.76306,1.131 -7.02654,2.03896c-5.42676,2.17687 -10.02045,6.09697 -15.37851,8.43786c-4.73535,2.06885 -11.01064,1.47319 -15.3034,4.69187c-3.48784,2.61516 -5.60039,6.95252 -9.39576,9.09712c-2.4721,1.39686 -5.45273,1.58671 -8.17908,2.38008c-4.87101,0.94919 -9.928,0.6342 -14.80895,1.53086c-2.95971,0.54371 -5.59936,2.34103 -8.56441,2.8548c-0.85991,0.14899 -14.12163,0.11666 -15.72133,0.11666c-12.84659,0 -25.6932,0 -38.53979,0c-33.78181,0 -67.56362,0 -101.34543,0c-15.13675,0 -29.97796,-0.05591 -44.99465,-1.45819c-8.04019,-0.75079 -16.3626,0.62143 -24.41089,-0.01319c-7.34922,-0.57948 -7.5105,-2.09021 -14.274,-2.8548c-17.55635,-1.98467 -35.49659,0.85971 -53.02746,-1.45113c-4.35897,-0.57458 -8.85783,0.70167 -13.18994,-0.04897c-2.96503,-0.51377 -5.70961,-1.90321 -8.56441,-2.85481c-5.9137,0.05379 -20.25233,1.72409 -26.65775,-0.21117c-2.65581,-0.8024 -4.51723,-3.36903 -7.13701,-4.2822c-1.3879,-0.48377 -2.94241,0.4354 -4.40173,0.26015c-4.76482,-0.57218 -9.43109,-1.82957 -14.06173,-3.0898c-9.47582,-2.57882 -19.46563,-5.18497 -28.45682,-9.03411c-1.43743,-0.61537 -2.35172,-2.23572 -3.85164,-2.67746c-3.05123,-0.89863 -6.42021,-0.31033 -9.4611,-1.24333c-3.13043,-0.96047 -5.72481,-3.24272 -8.80266,-4.36027c-6.60596,-2.39862 -13.92037,-3.42786 -20.50899,-5.90833c-1.33741,-0.50351 -2.05339,-2.22055 -3.44281,-2.55472c-2.24621,-0.54023 -4.71818,0.72529 -6.93053,0.05983c-2.85616,-0.85911 -4.92381,-3.5167 -7.7482,-4.47507c-2.70113,-0.91655 -5.66282,-0.69092 -8.49422,-1.03638c-2.95656,-0.63519 -6.04923,-0.8148 -8.86966,-1.90558c-2.6536,-1.02626 -4.73599,-3.20803 -7.33656,-4.36209c-1.79314,-0.79574 -3.91844,-0.62723 -5.70961,-1.4274c-6.28959,-2.80979 -14.89166,-7.10692 -20.95258,-10.46269c-3.20682,-1.77552 -5.44665,-5.65537 -9.06842,-6.22005c-2.99975,-0.46769 -6.14757,0.53235 -9.10681,-0.14598c-1.87422,-0.42962 -3.04853,-2.50424 -4.88865,-3.06217c-3.29749,-0.99977 -6.98702,-0.34115 -10.22474,-1.52012c-2.2354,-0.814 -3.47933,-3.45421 -5.7096,-4.2822c-4.76484,-1.76896 -10.19531,-1.01771 -15.02361,-2.6053c-14.465,-4.7562 -27.61806,-8.12612 -42.89687,-8.12612c-15.10133,0 -30.20266,0 -45.30399,0c0.0011,-6.02363 0.00213,-12.04726 0.00311,-18.07089c15.1003,0 30.20059,0 45.30089,0c17.08752,0 32.38632,3.56606 48.45674,9.00268c5.26387,1.78076 11.14663,1.23354 16.37918,3.10431c2.24014,0.8009 3.47346,3.47023 5.70961,4.2822c3.08607,1.12061 6.611,0.40162 9.75886,1.33468c1.44771,0.42911 2.19917,2.33169 3.67576,2.64744c2.61531,0.55926 5.41711,-0.75197 8.02199,-0.14598c5.17917,1.20484 9.12605,5.46369 13.76998,8.05396c5.6971,3.17769 13.05762,6.88906 19.01462,9.52092c1.79444,0.79281 3.91737,0.62961 5.70961,1.4274c4.07265,1.81291 7.95107,4.38034 12.34178,5.15152c3.8298,0.60613 7.80496,0.61018 11.48937,1.81842c2.43926,0.79991 4.06642,3.35358 6.5258,4.08932c2.3452,0.7016 4.97313,-0.55147 7.34347,0.05983c1.94157,0.50072 3.24329,2.45316 5.12158,3.15489c6.21458,2.32179 13.20532,3.23362 19.45822,5.51088c2.92141,1.06394 5.35524,3.28747 8.32615,4.20414c3.39068,1.04616 7.12826,0.57693 10.52249,1.61147c1.78682,0.54462 2.99612,2.29562 4.71275,3.03215c8.07855,3.4661 17.24298,5.76004 25.78439,8.09469c3.83367,1.04786 7.69012,2.10917 11.63147,2.61981c2.32137,0.30075 4.78868,-0.4551 7.01749,0.26015c2.64167,0.84774 4.54268,3.29906 7.13701,4.2822c2.80947,1.06468 6.00295,-0.34422 9.00734,-0.32786c5.24051,0.02854 10.48089,0.07778 15.72133,0.11666c2.8548,0.95159 5.6092,2.28713 8.5644,2.85481c4.09295,0.78623 8.36487,-0.54305 12.50327,-0.04898c17.34914,2.07125 35.18933,-0.50535 52.60016,1.40368c4.82332,0.52886 9.43522,2.49387 14.27399,2.8548c7.97985,0.59522 16.14088,-0.72069 24.12072,-0.01319c14.52453,1.28777 28.85618,1.39661 43.50416,1.39661c33.78181,0 67.56361,0 101.34542,0c10.94341,0 21.88681,0 32.83021,0c5.77462,0 12.90391,1.19863 18.53628,0.11667c2.95519,-0.56768 5.60281,-2.32154 8.56441,-2.85481c4.52808,-0.81532 9.23366,-0.3914 13.73906,-1.32395c5.67135,-0.83093 6.07717,-5.09771 10.97315,-8.50642c6.33598,-4.41125 12.46488,-3.77442 18.95421,-6.72732c5.53078,-2.51675 10.38021,-6.43981 16.02431,-8.69094c1.38329,-0.55172 3.1082,-0.06213 4.39265,-0.81583c1.59795,-0.93766 2.20615,-3.147 3.84229,-4.01633c6.34917,-3.37351 13.69618,-4.38131 20.51554,-6.65921c2.06384,-0.6894 3.7638,-2.27508 5.84778,-2.90097c2.77188,-0.83247 5.81874,-0.51218 8.56441,-1.4274c3.02797,-1.00933 5.5332,-3.28261 8.56441,-4.2822c8.74597,-2.88412 18.65392,-3.40634 27.59565,-5.8498c7.12918,-1.94815 13.99028,-4.21648 21.19874,-5.9446c2.05502,0.05801 4.15968,0.62674 6.16506,0.17401c2.07561,-0.46858 3.63564,-2.37893 5.7096,-2.85481c1.31079,-0.30077 11.32952,-0.24171 13.49512,-0.24171h5.70961c0,0 9.03544,0 9.03544,9.03544z" fill="#3a3a3d" stroke="none" stroke-width="0.5"/><path d="" fill="#3a3a3d" stroke="none" stroke-width="0.5"/><path d="M679.68,261.8627c0,9.03544 -9.03544,9.03545 -9.03544,9.03545h-5.70961c-3.11546,0 -6.34295,-1.08084 -9.34328,-0.24172c-2.04921,0.57312 -3.63109,2.39923 -5.7096,2.8548c-2.6409,0.57885 -5.40597,0.116 -8.10895,0.17401c-6.31452,1.67396 -12.48055,3.76286 -18.76848,5.47461c-8.60917,2.34365 -18.27574,2.74609 -26.64554,5.56941c-3.02433,1.02017 -5.53643,3.27287 -8.5644,4.2822c-9.68157,3.22719 -21.62856,3.86458 -30.73271,8.99601c-1.9038,1.07305 -2.81588,3.47933 -4.7221,4.54808c-2.12727,1.19268 -4.76306,1.131 -7.02654,2.03896c-5.42676,2.17687 -10.02045,6.09697 -15.37851,8.43786c-4.73535,2.06883 -11.01064,1.4732 -15.3034,4.69189c-3.48784,2.61518 -5.60037,6.95254 -9.39576,9.09712c-2.4721,1.39686 -5.45272,1.58671 -8.1791,2.38006c-4.87099,0.94919 -9.928,0.6342 -14.80895,1.53086c-2.95971,0.54371 -5.59936,2.34103 -8.56441,2.8548c-0.85991,0.14899 -14.12165,0.11666 -15.72133,0.11666c-12.84661,0 -25.69319,0 -38.5398,0c-33.78181,0 -67.56361,0 -101.34542,0c-15.13675,0 -29.97796,-0.05591 -44.99467,-1.45817c-8.04019,-0.75081 -16.36261,0.62142 -24.41088,-0.01318c-7.34923,-0.57948 -7.51049,-2.09022 -14.27399,-2.8548c-17.55637,-1.98467 -35.49659,0.85971 -53.02747,-1.45113c-4.35897,-0.57458 -8.85781,0.70169 -13.18994,-0.04897c-2.96503,-0.51377 -5.70959,-1.90321 -8.56439,-2.8548c-5.9137,0.05378 -20.25235,1.72411 -26.65775,-0.21118c-2.65579,-0.8024 -4.51722,-3.36903 -7.13699,-4.2822c-1.3879,-0.48377 -2.94241,0.4354 -4.40172,0.26015c-4.76482,-0.57218 -9.43109,-1.82957 -14.06173,-3.0898c-9.47582,-2.5788 -19.46563,-5.18497 -28.4568,-9.03411c-1.43743,-0.61537 -2.35174,-2.23571 -3.85166,-2.67745c-3.05125,-0.89863 -6.42019,-0.31034 -9.4611,-1.24333c-3.13042,-0.96047 -5.72482,-3.24272 -8.80266,-4.36027c-6.60596,-2.39862 -13.92037,-3.42786 -20.50899,-5.90831c-1.33741,-0.50349 -2.05337,-2.22055 -3.44281,-2.55471c-2.24621,-0.54023 -4.7182,0.72529 -6.93055,0.05985c-2.85614,-0.85911 -4.92381,-3.5167 -7.7482,-4.47507c-2.70113,-0.91655 -5.66282,-0.69092 -8.49422,-1.03638c-2.95656,-0.63519 -6.04923,-0.81481 -8.86966,-1.9056c-2.65358,-1.02626 -4.73599,-3.20803 -7.33656,-4.36209c-1.79314,-0.79574 -3.91844,-0.62723 -5.70961,-1.4274c-6.28959,-2.80979 -14.89164,-7.10692 -20.95258,-10.46268c-3.2068,-1.77552 -5.44665,-5.65538 -9.06844,-6.22005c-2.99975,-0.46767 -6.14757,0.53237 -9.10681,-0.14598c-1.87422,-0.42964 -3.04852,-2.50424 -4.88864,-3.06217c-3.29749,-0.99977 -6.987,-0.34115 -10.22474,-1.52012c-2.2354,-0.814 -3.47935,-3.45421 -5.70961,-4.2822c-4.76484,-1.76896 -10.19531,-1.01771 -15.02361,-2.6053c-14.465,-4.75618 -27.61806,-8.12612 -42.89687,-8.12612c-16.6851,0 -33.37021,0 -50.05531,0c0.00102,-6.02363 0.00199,-12.04725 0.00289,-18.07088c16.68414,0 33.36828,0 50.05242,0c17.08751,0 32.38632,3.56605 48.45672,9.00268c5.26387,1.78076 11.14664,1.23352 16.3792,3.10429c2.24014,0.8009 3.47346,3.47023 5.7096,4.2822c3.08607,1.12061 6.61098,0.40162 9.75886,1.33468c1.44771,0.42911 2.19917,2.33169 3.67576,2.64744c2.61531,0.55926 5.41712,-0.75197 8.022,-0.14598c5.17915,1.20484 9.12607,5.4637 13.76996,8.05396c5.69712,3.17771 13.05763,6.88904 19.01462,9.52092c1.79444,0.79281 3.91739,0.62961 5.7096,1.4274c4.07264,1.81291 7.95107,4.38034 12.34177,5.15152c3.8298,0.60613 7.80498,0.61018 11.48937,1.81842c2.43926,0.79991 4.06642,3.35358 6.5258,4.08933c2.3452,0.70158 4.97313,-0.55147 7.34347,0.05983c1.94157,0.50072 3.24329,2.45316 5.1216,3.15489c6.21458,2.32179 13.20532,3.23362 19.45822,5.51088c2.92141,1.06396 5.35524,3.28747 8.32615,4.20412c3.39068,1.04616 7.12826,0.57694 10.52249,1.61147c1.78683,0.54462 2.9961,2.29562 4.71275,3.03215c8.07855,3.4661 17.24298,5.76004 25.78439,8.09469c3.83365,1.04786 7.69014,2.10917 11.63147,2.6198c2.32137,0.30075 4.78867,-0.45511 7.01748,0.26015c2.64167,0.84776 4.54266,3.29906 7.13699,4.2822c2.80947,1.06466 6.00295,-0.3442 9.00734,-0.32784c5.24051,0.02854 10.48088,0.07778 15.72131,0.11667c2.8548,0.95159 5.6092,2.28712 8.56439,2.8548c4.09297,0.78625 8.36487,-0.54305 12.50326,-0.04897c17.34914,2.07125 35.18933,-0.50534 52.60016,1.40367c4.82332,0.52886 9.43523,2.49387 14.274,2.8548c7.97985,0.59522 16.14088,-0.72068 24.12073,-0.01317c14.52453,1.28777 28.85618,1.39661 43.50416,1.39661c33.78181,0 67.56362,0 101.34543,0c10.94341,0 21.8868,0 32.83021,0c5.77462,0 12.90392,1.19863 18.53629,0.11668c2.95519,-0.56768 5.60281,-2.32153 8.56439,-2.8548c4.52808,-0.81534 9.23366,-0.3914 13.73906,-1.32395c5.67136,-0.83093 6.07716,-5.09773 10.97315,-8.50642c6.33598,-4.41125 12.46488,-3.7744 18.95421,-6.72732c5.53078,-2.51673 10.38021,-6.43981 16.02431,-8.69094c1.38329,-0.55172 3.10821,-0.06213 4.39265,-0.81583c1.59795,-0.93766 2.20617,-3.14699 3.84231,-4.01633c6.34917,-3.37349 13.69618,-4.38131 20.51553,-6.65923c2.06382,-0.68939 3.76379,-2.27509 5.84778,-2.90096c2.77188,-0.83247 5.81874,-0.51218 8.56439,-1.4274c3.02797,-1.00933 5.5332,-3.28261 8.56441,-4.2822c8.74597,-2.88412 18.65391,-3.40637 27.59565,-5.8498c7.1292,-1.94815 13.99029,-4.21648 21.19873,-5.94458c2.05502,0.05801 4.15968,0.62674 6.16506,0.17401c2.07561,-0.46858 3.63566,-2.37892 5.7096,-2.8548c1.31079,-0.30075 11.32952,-0.24172 13.49512,-0.24172h5.70961c0,0 9.03544,0 9.03544,9.03544z" fill="#3a3a3d" stroke="none" stroke-width="0.5"/><path d="M109.67793,329.26964l-41.4377,-57.03147l42.84603,-27.80314l41.4377,57.03146z" fill="#a66d67" stroke="none" stroke-width="0"/><g stroke="none" stroke-width="0"><path d="M-178.65382,223.06871c2.08309,-0.40213 3.65637,-2.23519 3.65637,-4.4357c0,-2.15933 -1.51494,-3.96482 -3.53993,-4.41162c0.79725,-0.73063 1.33388,-1.54111 1.33293,-2.30556c-0.0027,-2.16723 -1.23546,-4.02438 -2.97243,-5.61148c0.00257,-19.6638 0.00453,-39.32761 0.00588,-58.99142l0.78838,-0.62056l0.54744,-0.21503l1.44377,-0.31433l1.01493,-0.08018l0.07977,0.01339l1.66328,-0.13141l1.6455,0.27592l0.60215,-0.04758c2.26524,1.36775 4.73812,2.37526 8.70619,3.16405c1.5805,0.31418 16.56453,0.24455 18.83332,0.24455c5.79608,0 11.61208,0.43467 17.38817,-0.04617c5.22093,-0.43464 10.68774,-2.67264 15.98632,-2.18914c6.2044,0.56616 13.44558,8.21339 19.04359,7.63899c5.73555,-0.58849 11.01126,-3.24293 16.2747,-5.78565l-9.02082,115.63619l-95.01067,-7.4118c0.00212,-11.34953 0.00402,-22.69906 0.00571,-34.04859z" fill="#e6978f"/><path d="" fill="#080832"/><path d="" fill="#080832"/><path d="M-160.78622,178.47252l1.63373,-20.94262l20.94262,1.63375l-1.63373,20.94262z" fill="#080832"/><path d="M-123.70457,181.23317l1.63373,-20.94263l20.94262,1.63376l-1.63373,20.94262z" fill="#080832"/><path d="M-163.27075,214.4164l1.63373,-20.94263l20.94264,1.63374l-1.63373,20.94264z" fill="#080832"/><path d="M-126.91561,217.1204l1.63375,-20.94262l20.94262,1.63375l-1.63373,20.94264z" fill="#080832"/><path d="M-147.82139,260.57925l2.1967,-28.15908l18.06435,1.40922l-2.1967,28.15909z" fill="#080832"/></g><path d="M-78.19026,170.40342l32.48059,7.66352c1.88569,2.43167 3.56486,5.10044 6.09959,6.78726c2.59619,1.72772 6.05367,1.53872 8.991,2.58617c2.145,0.76491 3.98503,2.37585 6.21528,2.83637c3.03083,0.62581 6.18326,0.29127 9.27721,0.36256c0.60861,0.01402 1.21821,0.02114 1.82735,0.01236c0.12118,1.30996 0.57692,2.56296 1.43564,3.42112c7.8512,7.84593 15.05552,10.87631 24.49639,7.8885c3.53508,3.49522 9.79677,4.32778 20.75273,4.05612c3.39816,-0.08427 5.38688,-4.14977 8.15443,-6.12338c0.44228,-0.31541 0.89015,-0.62267 1.34156,-0.92476l35.38273,8.34824c1.62439,2.73822 3.45025,5.03471 6.35746,5.26524c2.75762,0.21866 5.4112,-0.56332 7.92378,-1.89571l8.20473,1.93583v3.90858c0,7.4852 6.06797,13.55316 13.55316,13.55316c4.50835,0 8.50255,-2.20123 10.96648,-5.58757c0.67901,-0.12591 1.38085,-0.17958 2.0912,-0.20252l-22.97001,97.35479l-206.75666,-48.78241z" fill="#e65b4c" stroke="none" stroke-width="0"/><path d="M67.42915,229.13862l20.4449,4.8238l-4.8238,20.4449l-20.4449,-4.8238z" fill="#080832" stroke="none" stroke-width="0"/><path d="M59.29444,264.18976l20.4449,4.82381l-4.82381,20.4449l-20.4449,-4.82381z" fill="#080832" stroke="none" stroke-width="0"/><path d="M30.41188,220.73196l20.44488,4.82379l-4.82381,20.44489l-20.44488,-4.82378z" fill="#080832" stroke="none" stroke-width="0"/><path d="M22.05556,256.72244l20.44488,4.82378l-4.82379,20.44488l-20.44488,-4.82379z" fill="#080832" stroke="none" stroke-width="0"/><path d="M-6.38379,211.38591l20.44488,4.82379l-4.82381,20.4449l-20.44488,-4.82379z" fill="#080832" stroke="none" stroke-width="0"/><path d="M-14.79441,247.60651l20.44488,4.82379l-4.82379,20.44488l-20.44488,-4.82379z" fill="#080832" stroke="none" stroke-width="0"/><path d="M310.74752,304.1143l39.09421,-61.19749l43.32322,28.35671l-39.09421,61.19749z" fill="#a66d67" stroke="none" stroke-width="0"/><path d="M-41.52238,203.42251l20.4449,4.8238l-4.8238,20.4449l-20.4449,-4.8238z" fill="#080832" stroke="none" stroke-width="0"/><path d="M-49.76566,238.93386l20.4449,4.82381l-4.8238,20.44489l-20.4449,-4.8238z" fill="#080832" stroke="none" stroke-width="0"/><path d="M-89.5075,211.61518l27.48985,6.48599l-4.16082,17.63499l-27.48985,-6.48599z" fill="#080832" stroke="none" stroke-width="0"/><path d="M346.56787,328.48291l-1.35109,-15.26356c0.14128,-0.05004 0.28107,-0.1053 0.41923,-0.16643c2.8015,-1.23988 11.44518,-10.23235 10.99333,-12.51391c-0.63563,-3.20957 -5.41252,-3.80766 -8.4826,-4.93903c-1.02225,-0.37671 -2.24171,1.1368 -3.2068,0.63134c-0.62894,-0.32942 0.18855,-1.41824 0.42877,-2.08633c0.92285,-2.5667 2.68689,-4.83192 4.63564,-6.7459l3.55603,-2.22252c1.31209,-0.79051 2.18967,-2.22901 2.18967,-3.87248c0,-2.36033 -1.81011,-4.29789 -4.11789,-4.50026l-2.83868,-0.28387c-0.51014,-1.74691 0.38401,-4.39244 -1.18901,-5.18486c-1.63462,-0.82347 -3.44014,-1.03194 -5.30158,-1.03924c2.1747,-3.34452 3.03253,-7.88015 -0.07788,-10.75729c-0.57961,-0.53615 -1.20267,-0.87828 -1.85395,-1.06275l-3.4073,-38.49308l1.11027,-0.74018l0.90804,-0.99885l0.50435,-0.3026l1.3719,-0.54876l0.9877,-0.24693h0.08089l1.61865,-0.40466h1.66847l3.49872,-0.87468l1.31699,-0.70239l1.45704,-0.3238l2.99449,-1.49724l3.84999,-1.54l0.46623,-0.33672l0.56141,-0.12476l1.21245,-0.60623l4.36,-1.09l0.59748,0.0412l0.28915,-0.26286l0.37911,-0.09479l0.29714,-0.51999l3.12064,-2.83694l2.72928,-1.16969l6.70475,-2.51428l0.5958,-0.41089l0.70652,-0.157l3.91739,-1.95869l0.43672,-0.10918h0.95557l2.73127,-0.68283l2.7732,-0.48531l1.06965,-0.47541l0.20247,-0.05062l0.03016,-0.05276l3.94156,-1.75181h4.99595l0.94637,-0.2366l0.97034,0.10039l11.29201,-1.61315h25.77416l1.12829,12.74653c-0.03622,0.06318 -0.07238,0.12637 -0.10853,0.1896l-3.63449,1.09034c-1.91214,0.52595 -3.31679,2.27711 -3.31679,4.35635c0,1.593 0.8245,2.99344 2.07004,3.79784l3.02288,2.01524c-0.19829,1.53427 0.82762,3.35395 0.46334,4.92513c-0.5812,2.5068 -3.18673,4.03033 -4.90381,5.96198l-4.00465,2.66978c-1.24553,0.80441 -2.07004,2.20483 -2.07004,3.79783c0,2.49507 2.02266,4.51772 4.51772,4.51772c0.17243,0 0.34261,-0.00967 0.51,-0.02846l2.93509,-0.29351c0.71929,2.21688 2.10317,4.29002 3.74996,5.86137c1.1121,1.06114 2.72194,1.23193 4.33312,1.40033l4.12381,46.58774l-3.67264,1.22421c-1.84605,0.56773 -3.18792,2.28658 -3.18792,4.31884c0,2.07924 1.40465,3.83041 3.31679,4.35635l2.56502,0.76951c-0.16734,1.26295 -0.54993,2.57067 -0.03302,3.6914c0.55685,1.2073 1.53961,2.13079 2.55156,3.03484l0.69094,7.80572z" fill="#e6978f" stroke="none" stroke-width="0"/><path d="M363.54655,246.5108l-1.85218,-20.92443l20.92444,-1.85218l1.85218,20.92443z" fill="#080832" stroke="none" stroke-width="0"/><path d="M400.57418,243.101l-1.85218,-20.92443l20.92442,-1.85218l1.85218,20.92443z" fill="#080832" stroke="none" stroke-width="0"/><path d="M367.0405,282.37063l-1.85218,-20.92444l20.92444,-1.85218l1.85218,20.92444z" fill="#080832" stroke="none" stroke-width="0"/><path d="M403.34224,279.0251l-1.85218,-20.92445l20.92444,-1.85218l1.85218,20.92445z" fill="#080832" stroke="none" stroke-width="0"/><path d="M389.9114,325.34289l-2.49041,-28.13464l18.04864,-1.59761l2.49041,28.13464z" fill="#080832" stroke="none" stroke-width="0"/><path d="M-17.03563,373.15106v-386.30212h430.89263c-5.85044,2.06537 -13.7195,5.0165 -18.84306,7.78132c-2.23933,1.20841 -4.26997,2.8309 -6.62793,3.78739c-3.75842,1.52457 -7.92741,1.23687 -11.66845,3.06552c-14.02267,6.85437 -28.9933,13.84919 -42.46613,22.17586c-5.73563,3.54481 -12.88475,7.18574 -17.75133,12.32423c-3.93076,4.15038 -6.79586,9.21387 -10.59924,13.48128c-9.09355,10.20299 -18.34086,17.43441 -26.17088,28.66236c-2.28067,3.27039 -2.87763,7.20782 -4.96501,10.5934c-2.41365,3.91476 -6.20437,6.88208 -8.32684,11.0303c-2.44265,4.77399 -4.6066,9.69264 -7.19469,14.38938c-1.19482,2.16831 -3.71496,3.82297 -5.03898,6.02897c-1.807,3.0107 -2.69982,6.51043 -4.50574,9.52177c-1.34924,2.24984 -4.1644,4.17303 -5.72519,6.41176c-4.71559,6.76385 -10.41247,12.74565 -15.01502,19.51952c-7.73673,11.38665 -15.13333,22.81112 -24.58235,32.90478c-9.86774,10.54096 -18.88996,19.89045 -31.78348,26.73218c-8.19785,4.35005 -17.23754,6.81741 -24.92,12.30862c-17.91898,12.80799 -31.48436,29.26599 -45.06226,46.42467c-7.12875,9.00875 -9.24911,14.78779 -12.97205,25.03274c-1.44309,3.97117 -3.54757,7.95476 -4.12762,12.20391c-0.50092,3.66949 0.04594,7.426 -0.39062,11.1037c-0.38629,3.2542 -2.48495,6.43243 -2.87893,9.83447c-1.58598,13.69483 -2.12474,27.3312 -1.48383,40.98401z" fill="url(#color-1)" stroke="none" stroke-width="0"/><path d="" fill="url(#color-2)" stroke="none" stroke-width="0"/><path d="M23.19341,146.39397v-105.60436h300.94888v105.60436z" fill="#f5f5f5" stroke="#373737" stroke-width="3"/><text transform="translate(33.42096,61.06837) scale(0.34192,0.34192)" font-size="40" xml:space="preserve" fill="#373737" fill-rule="nonzero" stroke="none" stroke-width="1" stroke-linecap="butt" stroke-linejoin="miter" stroke-miterlimit="10" stroke-dasharray="" stroke-dashoffset="0" font-family="Pixel" font-weight="normal" text-anchor="start" style="mix-blend-mode: normal"><tspan x="0" dy="0">Coronel Borealis no tem mais fora</tspan><tspan x="0" dy="48px">para continuar a lutar. Sua luz apagou.</tspan><tspan x="0" dy="48px"> </tspan><tspan x="0" dy="48px"> </tspan></text><path d="M23.19341,253.52687v-62.73726h166.7999v62.73726z" fill="#f5f5f5" stroke="#373737" stroke-width="3"/><text transform="translate(33.79596,211.06837) scale(0.34192,0.34192)" font-size="40" xml:space="preserve" fill="#373737" fill-rule="nonzero" stroke="none" stroke-width="1" stroke-linecap="butt" stroke-linejoin="miter" stroke-miterlimit="10" stroke-dasharray="" stroke-dashoffset="0" font-family="Pixel" font-weight="normal" text-anchor="start" style="mix-blend-mode: normal"><tspan x="0" dy="0">Voc obteve:</tspan></text><text transform="translate(33.79596,236.4766) scale(0.34192,0.34192)" font-size="40" xml:space="preserve" fill="#373737" fill-rule="nonzero" stroke="none" stroke-width="1" stroke-linecap="butt" stroke-linejoin="miter" stroke-miterlimit="10" stroke-dasharray="" stroke-dashoffset="0" font-family="Pixel" font-weight="normal" text-anchor="start" style="mix-blend-mode: normal"><tspan x="0" dy="0">- Relquia Borealis</tspan></text><text transform="translate(33.42096,110.06837) scale(0.34192,0.34192)" font-size="40" xml:space="preserve" fill="#373737" fill-rule="nonzero" stroke="none" stroke-width="1" stroke-linecap="butt" stroke-linejoin="miter" stroke-miterlimit="10" stroke-dasharray="" stroke-dashoffset="0" font-family="Pixel" font-weight="normal" text-anchor="start" style="mix-blend-mode: normal"><tspan x="0" dy="0">Vitorioso e ansioso, voc sabe que o fim</tspan><tspan x="0" dy="48px">da guerra est perto.</tspan></text></g></g></svg>