<svg version="1.1" xmlns="http://www.w3.org/2000/svg" xmlns:xlink="http://www.w3.org/1999/xlink" width="117.09979" height="77.49232" viewBox="0,0,117.09979,77.49232"><g transform="translate(-138.82844,-217.09388)"><g data-paper-data="{&quot;isPaintingLayer&quot;:true}" fill-rule="nonzero" stroke="none" stroke-width="0.5" stroke-linecap="butt" stroke-linejoin="miter" stroke-miterlimit="10" stroke-dasharray="" stroke-dashoffset="0" style="mix-blend-mode: normal"><path d="M157.9369,265.83084c-0.04634,-5.37359 -0.20418,-9.7576 3.2651,-14.46352c3.68775,-5.00226 9.8318,-7.55509 11.88414,-13.5975c1.15908,-3.41254 -0.99658,-10.2482 2.19041,-12.75535c1.213,-0.95425 3.08826,-0.20652 4.60242,-0.50532c1.46886,-0.28986 2.89191,-0.78264 4.31296,-1.25401c3.6413,-1.20784 5.92562,-3.55649 8.71965,-6.08326c3.99397,-0.20624 7.58864,0.00763 11.49409,0.51056c3.06893,0.3952 4.44215,-1.02978 8.02547,0.1222c1.47973,0.47571 2.3395,2.08259 3.69268,2.8473c0.66169,0.37394 1.50242,0.26228 2.2253,0.49706c0.51159,0.16616 0.95091,0.88631 1.45484,0.6982c0.97668,-0.36459 1.27557,-2.20495 2.31326,-2.10482c2.35123,0.22688 4.66927,1.39015 6.44333,2.94978c0.98216,0.86345 0.84792,2.47718 1.17112,3.74436c0.85189,3.34 0.90149,6.67418 0.74303,10.09827c-0.04602,0.99441 -0.66418,2.06327 -0.26393,2.97474c0.33281,0.75789 1.5129,0.72461 2.13045,1.27578c1.24245,1.10891 2.80553,2.10489 3.40021,3.66044c1.06342,2.78168 0.87045,6.04453 0.14519,8.93289c-0.22683,0.90336 -1.19404,1.52061 -1.3702,2.43521c-0.05734,0.29768 0.55279,0.24903 0.82919,0.37355c0.94898,0.25119 2.06825,0.15582 2.84693,0.75357c3.33286,2.55845 4.22348,7.26208 7.61502,9.62574c1.71248,1.19348 4.91435,1.68694 6.12188,3.44229c0.69113,1.00468 0.0788,2.45149 0.34109,3.64239c0.28749,1.3053 0.91531,2.51328 1.29684,3.79426c1.32742,4.45684 1.95151,12.39077 -3.48998,14.60485c-1.56015,0.63481 -3.36563,0.1491 -5.04948,0.1903c-3.39238,0.083 -6.85977,-0.24192 -10.23909,-0.00952c-2.17788,0.14978 -4.1056,1.52959 -6.23974,1.98902c-3.62784,0.781 -8.04506,0.07193 -11.76123,0.05195c-5.17384,-1.13665 -9.94322,-2.62096 -14.92155,-4.41339c-1.98853,-0.71596 -3.76338,-2.08786 -5.84388,-2.45984c-5.47416,-0.97875 -12.21224,0.06688 -17.84308,0.06688c-2.9019,0 -7.52096,-0.72497 -10.44128,-0.04511c-1.19257,0.27763 -2.21309,1.10899 -3.41064,1.36426c-3.84199,0.81894 -8.80872,0.05657 -12.75108,0.04511c-2.17768,-0.00633 -4.7009,0.21997 -6.68877,-1.00663c-1.39763,-0.86239 -2.34991,-2.29482 -3.52487,-3.44224c-0.97915,-1.9357 -3.28641,-5.58535 -2.28956,-7.96344c0.54716,-1.30533 2.43833,-1.45669 3.53802,-2.34772c2.87007,-2.32548 2.90366,-4.07144 6.77341,-5.78799c1.82119,-0.80785 4.1353,0.22525 5.94625,-0.60532c0.86602,-0.39719 1.49929,-1.17608 2.24894,-1.76412zM159.95414,270.40039c-0.11998,0.01229 -0.19227,0.01229 -0.19227,0.01229l0.81787,-0.5c-0.21306,0.15465 -0.42047,0.31919 -0.62561,0.48771z" fill="#a6a6a6"/><path d="M159.38333,277.71215c-0.04634,-3.12846 -0.20418,-5.68079 3.2651,-8.42054c3.68775,-2.91227 9.8318,-4.39851 11.88414,-7.91635c1.15908,-1.98675 -0.99658,-5.96642 2.19041,-7.42606c1.213,-0.55556 3.08826,-0.12023 4.60242,-0.29419c1.46886,-0.16875 2.89191,-0.45565 4.31296,-0.73007c3.6413,-0.70319 5.92562,-2.07056 8.71965,-3.54162c3.99397,-0.12007 7.58864,0.00444 11.49409,0.29724c3.06893,0.23008 4.44215,-0.59953 8.02547,0.07114c1.47973,0.27695 2.3395,1.21247 3.69268,1.65767c0.66169,0.2177 1.50242,0.1527 2.2253,0.28938c0.51159,0.09674 0.95091,0.516 1.45484,0.40649c0.97668,-0.21226 1.27557,-1.2837 2.31326,-1.22541c2.35123,0.13209 4.66927,0.80933 6.44333,1.71734c0.98216,0.50269 0.84792,1.44219 1.17112,2.17993c0.85189,1.94452 0.90149,3.88565 0.74303,5.87913c-0.04602,0.57894 -0.66418,1.20122 -0.26393,1.73187c0.33281,0.44124 1.5129,0.42186 2.13045,0.74275c1.24245,0.6456 2.80553,1.22545 3.40021,2.13108c1.06342,1.61947 0.87045,3.51907 0.14519,5.20065c-0.22683,0.52593 -1.19404,0.88529 -1.3702,1.41776c-0.05734,0.17331 0.55279,0.14498 0.82919,0.21748c0.94898,0.14624 2.06825,0.09072 2.84693,0.43872c3.33286,1.48951 4.22348,4.22792 7.61502,5.60402c1.71248,0.69483 4.91435,0.98212 6.12188,2.00407c0.69113,0.58492 0.0788,1.42724 0.34109,2.12057c0.28749,0.75993 0.91531,1.46321 1.29684,2.20899c1.32742,2.59473 1.95151,7.2138 -3.48998,8.50282c-1.56015,0.36958 -3.36563,0.0868 -5.04948,0.11079c-3.39238,0.04832 -6.85977,-0.14084 -10.23909,-0.00554c-2.17788,0.0872 -4.1056,0.89051 -6.23974,1.15799c-3.62784,0.45469 -8.04506,0.04188 -11.76123,0.03024c-5.17384,-0.66175 -9.94322,-1.5259 -14.92155,-2.56944c-1.98853,-0.41683 -3.76338,-1.21553 -5.84388,-1.4321c-5.47416,-0.56982 -12.21224,0.03894 -17.84308,0.03894c-2.9019,0 -7.52096,-0.42207 -10.44128,-0.02626c-1.19257,0.16163 -2.21309,0.64564 -3.41064,0.79426c-3.84199,0.47678 -8.80872,0.03293 -12.75108,0.02626c-2.17768,-0.00369 -4.7009,0.12806 -6.68877,-0.58605c-1.39763,-0.50208 -2.34991,-1.33602 -3.52487,-2.00404c-0.97915,-1.12695 -3.28641,-3.25174 -2.28956,-4.63625c0.54716,-0.75995 2.43833,-0.84807 3.53802,-1.36682c2.87007,-1.35387 2.90366,-2.37036 6.77341,-3.36972c1.82119,-0.47032 4.1353,0.13114 5.94625,-0.35241c0.86602,-0.23124 1.49929,-0.6847 2.24894,-1.02706zM161.40057,280.3725c-0.11998,0.00716 -0.19227,0.00716 -0.19227,0.00716l0.81787,-0.2911c-0.21306,0.09004 -0.42047,0.18583 -0.62561,0.28394z" fill="#858585"/><path d="" fill="#acacac"/><path d="" fill="#acacac"/><path d="" fill="#c4c4c4"/><path d="" fill="#b2b2b2"/><path d="" fill="#515151"/><path d="" fill="#515151"/><path d="" fill="#515151"/><path d="" fill="#515151"/><path d="" fill="#515151"/><path d="" fill="#515151"/><path d="" fill="#515151"/><path d="" fill="#515151"/><path d="" fill="#515151"/><path d="" fill="#515151"/><path d="" fill="#717171"/><path d="" fill="#717171"/><path d="" fill="#717171"/><g><path d="" fill="#ee0000"/><path d="" fill="#dd0000"/><path d="" fill="#dd0000"/><path d="" fill="#ffde00"/><path d="" fill="#ffe850"/><path d="" fill="#ffe850"/><path d="" fill="#ffe850"/><path d="" fill="#ffe850"/><path d="" fill="#f5d400"/></g><g><path d="" fill="#ee0000"/><path d="" fill="#dd0000"/><path d="" fill="#dd0000"/><path d="" fill="#ffde00"/><path d="" fill="#ffe850"/><path d="" fill="#ffe850"/><path d="" fill="#ffe850"/><path d="" fill="#ffe850"/><path d="" fill="#f5d400"/></g><path d="M211.49676,226.31458c1.464,3.67562 -0.96524,8.51717 -3.67239,10.9874c-1.19879,1.09388 -2.44105,2.59314 -4.06131,2.68494c-2.2027,0.1248 -4.88094,-0.39082 -6.27699,-2.09918c-0.13395,-0.16391 1.38353,-4.86947 1.05026,-6.23537c-0.25966,-1.06423 -3.32621,-1.874 -3.38575,-1.91608c-0.78131,-0.5521 -1.07529,-1.68834 -1.92418,-2.12951c-1.73022,-0.89921 -5.26472,0.7937 -6.61175,1.50573c0,0 -0.37882,0.18941 -0.90257,0.25639c-2.48308,1.17812 -5.36473,1.55613 -8.11228,1.58691c0,0 -2.5,0 -2.5,-2.5c0,-2.5 2.5,-2.5 2.5,-2.5c2.14684,0.03143 4.44165,-0.22603 6.31304,-1.27855c3.70546,-2.08407 5.13187,-5.11038 9.52868,-5.80442c3.69721,-0.5836 8.04368,-0.0396 11.79714,-0.02416c2.50545,0.01031 4.56907,-0.25178 6.89193,1.19467c0.97964,0.61003 1.43884,1.81547 2.281,2.60451c2.82184,2.64383 6.86185,1.73415 10.29303,1.34904l1.06576,-0.01529c0,0 2.5,0 2.5,2.5c0,2.5 -2.5,2.5 -2.5,2.5l-0.5136,-0.01529c-3.76808,0.41475 -7.59657,1.0539 -11.19643,-0.61043c-1.0214,-0.47223 -1.81632,-1.28134 -2.59556,-2.12055c0.01072,0.02623 0.02138,0.05264 0.03198,0.07925z" fill="#c0c0c0"/><g><path d="M208.70814,257.70394c-1.16899,2.02958 -2.47172,3.69786 -3.32974,5.89785l0.03123,0.05006c0,0 -0.10643,0.83337 -0.82799,1.04644c0.01755,0.26048 -0.06019,0.56009 -0.33223,0.87339c-0.81954,0.94386 -1.76339,0.12432 -1.76339,0.12432l-0.04303,-0.31538c-2.44452,-0.31216 -3.9167,-0.66647 -6.00147,-2.08961c-1.38377,-2.23119 -1.53519,-4.57766 -4.08323,-5.78199c-1.44201,-0.68157 -5.37986,-0.70706 -6.61607,-2.32075c0.03903,-0.0466 0.07919,-0.09286 0.12063,-0.13888c0.36887,0.16706 0.75571,0.24892 1.14403,0.19683c0.74409,-0.09982 1.23591,-0.85268 1.85387,-1.27902l0.8865,-1.10975c0,0 0.77371,-0.98178 -0.20806,-1.75549c-0.98178,-0.77371 -1.75548,0.20805 -1.75548,0.20805l-0.00858,0.01109c-0.30229,-0.07326 -0.58259,-0.13691 -0.84753,-0.20171c0.27159,-0.43535 0.51039,-0.81258 0.64343,-1.06593c0.05657,-0.10773 0.11139,-0.21623 0.16456,-0.32545c1.37333,-0.53889 2.75836,-1.34981 4.85818,-2.22619c1.22874,-0.51283 3.10195,0.10583 4.23051,-0.61712c1.90013,-1.21721 3.348,-3.59989 5.12282,-4.54369c0.2299,-0.12226 0.4585,-0.2237 0.68626,-0.31043c0.11367,0.50899 0.22426,1.00564 0.65972,1.17417c0.81394,0.315 1.87343,0.2706 2.97386,0.21108c0.02612,0.39316 0.15574,0.86115 0.42186,1.46374c0.2215,0.50155 1.2406,0.39548 1.35564,0.93155l-0.9853,0.8632c0,0 -0.84954,0.91696 0.06741,1.76648c0.91695,0.84955 1.76647,-0.06741 1.76647,-0.06741l1.55662,-1.88039c-0.15998,-0.81823 -0.07319,-1.72691 -0.47995,-2.45466c-0.20782,-0.37182 -0.85869,-0.21827 -1.17407,-0.50461c-0.04483,-0.04071 -0.0691,-0.08534 -0.07687,-0.13284c0.57707,0.06082 1.12013,0.19522 1.59492,0.46081c1.08158,0.60497 2.55619,2.54956 3.53137,3.49613c0,0 0.89694,0.87063 0.02631,1.76757c-0.32553,0.33538 -0.65475,0.42363 -0.93938,0.40268c-2.98225,2.20001 -2.46107,5.11539 -4.22384,8.17588z" fill="#d10000"/><path d="" fill="#d10000"/><path d="M186.83752,255.66682c-0.24408,0.04399 -0.53465,0.00558 -0.86425,-0.19813c-0.11195,-0.06919 -0.20481,-0.1429 -0.28139,-0.21938c0.05464,-0.06731 0.1115,-0.13388 0.17097,-0.19993c0.36887,0.16706 0.7557,0.24892 1.14402,0.19683c0.74409,-0.09982 1.23591,-0.85268 1.85388,-1.27902l0.88649,-1.10975c0,0 0.77372,-0.98178 -0.20805,-1.75549c-0.98178,-0.77371 -1.75549,0.20805 -1.75549,0.20805l-0.00857,0.01107c-0.28481,-0.06903 -0.55009,-0.12952 -0.8014,-0.19046c0.25467,-0.47458 0.52311,-0.95967 0.79476,-1.41557c1.22282,-0.48361 2.45936,-1.18149 4.2057,-1.94794c0.98981,0.46306 1.92278,1.22294 2.5445,1.7603c1.87001,1.61624 3.38248,3.60638 5.35881,5.1078c1.84358,1.40055 4.16914,2.13946 6.17638,3.28328c0.43818,0.57784 1.20723,1.01631 1.31457,1.73351c0.35975,2.40394 -3.82442,6.51782 -6.06776,6.18751c-4.74936,-0.69932 -5.58073,-5.92731 -8.94797,-8.21093c-1.13971,-0.77294 -4.61929,-0.7307 -5.25253,-1.5759c-0.09987,-0.13329 -0.18714,-0.26178 -0.26271,-0.38584z" fill="#c00000"/><path d="M214.79317,247.77211c1.05779,0.76544 0.30519,1.85728 0.30519,1.85728l-0.95452,1.38449c-1.99638,2.68923 -2.42356,5.5545 -3.96389,8.47521c-1.37223,2.60196 -3.83806,5.13407 -5.58362,7.52397c-2.45455,3.36058 -5.62109,6.48836 -7.84676,9.96937c-0.77286,1.2088 -1.29495,2.59762 -2.21147,3.69589c0,0 -0.85458,1.00983 -1.83184,0.13906c-0.97725,-0.87077 -0.12266,-1.8806 -0.12266,-1.8806c0.85702,-0.99504 1.28729,-2.30546 2.0019,-3.4124c1.88363,-2.91775 4.55272,-5.56535 6.64116,-8.36446c2.08896,-2.79977 5.07461,-5.86882 6.68739,-8.95672c1.58159,-3.02817 2.08097,-5.93597 4.13801,-8.7542l0.93071,-1.35053c0,0 0.75261,-1.09183 1.8104,-0.32638z" fill="#515151"/><path d="M194.7996,248.22718c0.05885,-0.31286 0.19199,-0.63821 0.38053,-0.96003c0.60864,-0.01703 1.18739,-0.08986 1.64416,-0.38246c0.92085,-0.58989 1.73548,-1.4535 2.53258,-2.2944c2.7428,0.18022 5.42973,2.61407 6.40161,4.92903c0.12804,2.40603 -0.35717,5.01057 -3.34188,4.63967l-0.09131,0.00025c-0.42172,0.79325 -0.75455,2.29452 -1.25135,2.65557c-0.94939,0.68998 -1.96217,0.47203 -2.5961,-0.42934c-0.03464,0.06605 -0.07955,0.10902 -0.15128,0.09937c-0.46315,-0.06239 -0.8549,-0.4156 -1.18984,-0.74148c-0.26047,-0.25342 -0.06651,-1.27783 -0.33825,-1.0365c-1.1563,1.02686 -3.00839,-0.28811 -2.6144,-1.95194c0.12499,-0.5278 0.90147,-1.31713 1.35197,-1.8433c-0.5082,-0.82408 -0.93665,-1.6198 -0.7364,-2.68445zM202.61994,252.68112c1.75031,0.27404 1.70854,-1.46124 1.68375,-2.83141c-0.78486,-1.74604 -3.04732,-3.64044 -5.11725,-3.77488c-1.01379,-0.06583 -2.73805,1.55088 -2.9358,2.49869c-0.14381,0.68927 0.44672,1.38228 0.77592,1.91033c0,0 0.2665,0.42876 0.00827,0.80006c-0.04278,0.19511 -0.14978,0.33416 -0.14978,0.33416c-0.11843,0.1539 -1.42395,1.62513 -1.29864,1.76698c0.14456,0.16361 0.32134,0.469 0.52531,0.39116c0.27433,-0.10469 0.38908,-0.6074 0.67906,-0.56116c0.47373,0.07555 0.82837,0.50583 1.15828,0.8541c0.22789,0.24056 0.04839,1.01488 0.36702,0.92389c0.31406,-0.08968 0.57022,-0.5713 0.87215,-0.44671c0.45026,0.18583 0.66961,1.60616 0.87984,1.16676c0.44463,-0.92928 0.57286,-1.84835 1.24709,-2.73642l0.05831,-0.07577c0,0 0.38376,-0.49868 0.90435,-0.22751zM198.59308,256.08548c0.08289,-0.1038 0.16261,-0.18009 0.09715,-0.1329c-0.04174,0.0301 -0.07214,0.07795 -0.09715,0.1329z" fill="#cfcfcf"/><path d="M199.32286,250.28472c-0.0478,0.16734 -0.16814,0.33743 -0.43311,0.44812c-0.68825,0.28755 -0.97579,-0.4007 -0.97579,-0.4007c-0.04517,-0.10848 -0.11566,-0.26939 -0.1926,-0.45413c-0.01567,-0.03064 -0.02827,-0.06165 -0.03827,-0.09265c-0.20209,-0.49353 -0.4263,-1.11373 -0.35056,-1.37279c0.31034,-1.06171 1.37965,-1.84498 2.4603,-1.0463c1.176,0.86917 0.57232,2.591 -0.46995,2.91843z" fill="#cfcfcf"/><path d="M203.12034,249.34932c1.04883,0.84004 0.56556,2.07428 -0.38126,2.64621c-0.23104,0.13955 -0.88796,0.08167 -1.41679,0.01272c-0.03253,-0.00171 -0.06575,-0.00596 -0.09936,-0.01326c-0.19828,-0.02705 -0.37187,-0.05398 -0.4883,-0.06986c0,0 -0.73893,-0.10169 -0.63725,-0.84062c0.03913,-0.28447 0.17272,-0.44434 0.32225,-0.53342c0.04955,-1.09139 1.55935,-2.11591 2.70071,-1.20176z" data-paper-data="{&quot;index&quot;:null}" fill="#cfcfcf"/></g></g></g></svg>