<svg version="1.1" xmlns="http://www.w3.org/2000/svg" xmlns:xlink="http://www.w3.org/1999/xlink" width="245.4915" height="307.07177" viewBox="0,0,245.4915,307.07177"><g transform="translate(-117.25424,53.09309)"><g data-paper-data="{&quot;isPaintingLayer&quot;:true}" fill-rule="nonzero" stroke-linejoin="miter" stroke-miterlimit="10" stroke-dasharray="" stroke-dashoffset="0" style="mix-blend-mode: normal"><g data-paper-data="{&quot;index&quot;:null}" stroke="none" stroke-width="0.5" stroke-linecap="butt"><path d="M154.84489,160.57183c4.22642,1.76481 7.78511,3.87853 12.26503,4.99793l0.08939,-0.07298c0,0 1.64289,0 2.23491,1.34688c0.50092,-0.09855 1.10133,-0.02197 1.77644,0.4281c2.03383,1.3559 0.67795,3.38972 0.67795,3.38972l-0.6011,0.16156c0,4.81904 -0.32261,7.76244 -2.56673,12.15886c-3.98516,3.2368 -8.49917,4.11176 -10.20412,9.35258c-1.06638,3.27792 0.1768,12.2708 -3.88512,14.11916c-1.86252,0.84755 -7.45072,-2.26379 -9.39089,-2.9864c-6.82463,-2.5418 -14.6303,-1.71077 -21.75011,-4.55235c-10.55105,-3.85505 -5.91774,-15.96627 0.72112,-21.81396c1.1393,-1.00354 3.48575,-0.95995 3.84996,-2.43388c0.94114,-3.8088 -2.12321,-9.66407 -0.4647,-13.78082c0.90559,-2.24783 4.3123,-5.58986 5.90686,-7.71592c0,0 1.46661,-1.95548 3.4221,-0.48887c0.73117,0.54838 0.98392,1.16512 1.01376,1.72241c5.00613,5.23983 10.53212,3.50676 16.90528,6.16798z" fill="#d10000"/><path d="M156.31075,203.49964c0.14581,0.46255 0.14326,1.0357 -0.17026,1.7255c-1.01147,2.22526 -3.23674,1.21377 -3.23674,1.21377c-2.61108,-1.20345 -11.96678,-3.98947 -13.17167,-6.37227c-1.5428,-3.05103 1.17891,-7.55144 2.76725,-9.94574c2.67188,-4.02766 6.15759,-7.45441 8.58042,-11.65988c2.26005,-3.92296 3.11728,-8.61697 4.83881,-12.79381c1.01232,-0.99309 1.67233,-2.59344 3.03693,-2.97928c4.5739,-1.29328 13.59016,5.80391 13.5051,10.23719c-0.18008,9.38571 -10.11507,12.29333 -13.71064,19.39053c-1.21699,2.4022 -0.27318,9.1412 -1.75579,10.57887c-0.23381,0.22673 -0.46143,0.42784 -0.68336,0.60514z" fill="#c00000"/><path d="M134.07254,151.2286c1.22274,-2.24144 3.52703,-1.05203 3.52703,-1.05203l2.92199,1.50858c5.71088,3.20633 11.37458,3.32522 17.42151,5.5896c5.38704,2.01726 10.90943,6.17312 15.97758,8.96708c7.12663,3.92877 13.97805,9.29627 21.28158,12.75122c2.53619,1.19975 5.35944,1.86843 7.71682,3.37419c0,0 2.17049,1.40752 0.72349,3.51882c-1.447,2.1113 -3.61749,0.70376 -3.61749,0.70376c-2.14237,-1.41591 -4.79085,-1.92594 -7.11502,-3.03791c-6.12624,-2.93102 -11.92301,-7.45253 -17.86984,-10.81024c-5.94826,-3.35853 -12.64093,-8.3897 -19.03011,-10.75318c-6.26562,-2.31778 -12.02967,-2.56621 -18.00583,-5.85825l-2.8502,-1.47082c0,0 -2.30429,-1.1894 -1.08154,-3.43084z" fill="#515151"/><path d="M146.61003,173.62547c0.09802,-3.46303 -3.25763,-2.95218 -5.90925,-2.5647c-3.19244,1.9549 -6.30667,6.81272 -6.05471,10.86114c0.12341,1.98279 3.68651,4.92695 5.57398,5.07576c1.37261,0.10823 2.57058,-1.2089 3.51334,-1.97827c0,0 0.76567,-0.62315 1.54986,-0.21422c0.38906,0.03465 0.68528,0.20777 0.68528,0.20777c0.32786,0.1916 3.50504,2.35957 3.74914,2.08134c0.28155,-0.32094 0.83012,-0.73949 0.62859,-1.11586c-0.27103,-0.50622 -1.27452,-0.60425 -1.25667,-1.1782c0.0292,-0.93762 0.776,-1.73211 1.36982,-2.45834c0.41018,-0.50164 1.9566,-0.34524 1.70119,-0.94076c-0.25175,-0.587 -1.24942,-0.96456 -1.0825,-1.58109c0.24893,-0.91941 2.94965,-1.69668 2.04526,-1.99563c-1.9127,-0.63228 -3.72721,-0.65338 -5.61686,-1.74122l-0.16141,-0.09431c0,0 -1.06236,-0.62087 -0.6653,-1.69785zM139.90763,189.8981c-3.3333,-0.19659 -7.89195,-4.45024 -8.16734,-7.71829c-0.45721,-5.42536 3.65125,-11.36673 7.95928,-13.85908c4.63534,-0.84434 9.80764,-0.54828 9.82751,5.33312l0.02307,0.17705c1.64316,0.62153 4.63767,0.8953 5.46107,1.76952c1.57352,1.67067 1.40163,3.68916 -0.18974,5.14209c0.13671,0.05084 0.23116,0.1273 0.2302,0.26882c-0.00628,0.91384 -0.59439,1.76123 -1.14355,2.49164c-0.42706,0.56803 -2.46217,0.44552 -1.92676,0.91284c2.27826,1.98856 0.1863,5.90684 -3.13867,5.55474c-1.05475,-0.11172 -2.77816,-1.42237 -3.91037,-2.1659c-1.47262,1.1899 -2.90998,2.21809 -5.0247,2.09337zM154.21103,180.59326c-0.22189,-0.13507 -0.38961,-0.27082 -0.28186,-0.15552c0.06871,0.07351 0.16907,0.12061 0.28186,0.15552z" fill="#cfcfcf"/><path d="M142.77829,180.61452c0.33644,0.05127 0.69617,0.24257 0.97653,0.7291c0.72824,1.26379 -0.53555,1.99203 -0.53555,1.99203c-0.19922,0.1145 -0.49389,0.29108 -0.83317,0.48608c-0.05555,0.038 -0.11257,0.07011 -0.17024,0.09719c-0.90725,0.51425 -2.05473,1.1028 -2.576,1.02004c-2.13631,-0.339 -3.92052,-2.21916 -2.63895,-4.51316c1.39468,-2.49642 4.88408,-1.75194 5.77739,0.1887z" fill="#cfcfcf"/><path d="M140.02328,173.4801c1.36966,-2.24253 3.88346,-1.61083 5.22739,0.08409c0.32792,0.41358 0.37839,1.70219 0.37561,2.74505c0.00476,0.06354 0.00472,0.12899 -0.00113,0.19602c-0.00335,0.39132 -0.01261,0.73472 -0.01457,0.96449c0,0 -0.01422,1.45854 -1.47274,1.44432c-0.5615,-0.00546 -0.90471,-0.225 -1.11453,-0.49296c-2.12927,0.17421 -4.49054,-2.5006 -3.00003,-4.94099z" data-paper-data="{&quot;index&quot;:null}" fill="#cfcfcf"/></g><g data-paper-data="{&quot;index&quot;:null}" stroke="none" stroke-width="0.5" stroke-linecap="butt"><path d="M325.15508,158.98247c6.37316,-2.66122 11.89915,-0.92815 16.90528,-6.16798c0.02984,-0.55729 0.28259,-1.17403 1.01376,-1.72241c1.95549,-1.46661 3.4221,0.48887 3.4221,0.48887c1.59456,2.12606 5.00127,5.46809 5.90686,7.71592c1.65851,4.11675 -1.40584,9.97202 -0.4647,13.78082c0.36421,1.47393 2.71066,1.43034 3.84996,2.43388c6.63886,5.84769 11.27217,17.95891 0.72112,21.81396c-7.11981,2.84158 -14.92548,2.01055 -21.75011,4.55235c-1.94017,0.72261 -7.52837,3.83395 -9.39089,2.9864c-4.06192,-1.84836 -2.81874,-10.84124 -3.88512,-14.11916c-1.70495,-5.24082 -6.21896,-6.11578 -10.20412,-9.35258c-2.24412,-4.39642 -2.56673,-7.33982 -2.56673,-12.15886l-0.6011,-0.16156c0,0 -1.35588,-2.03382 0.67795,-3.38972c0.67511,-0.45007 1.27552,-0.52665 1.77644,-0.4281c0.59202,-1.34688 2.23491,-1.34688 2.23491,-1.34688l0.08939,0.07298c4.47992,-1.1194 8.03861,-3.23312 12.26503,-4.99793z" fill="#d10000"/><path d="M323.6892,201.9103c-0.22193,-0.1773 -0.44955,-0.37841 -0.68336,-0.60514c-1.48261,-1.43767 -0.5388,-8.17667 -1.75579,-10.57887c-3.59557,-7.0972 -13.53056,-10.00482 -13.71064,-19.39053c-0.08506,-4.43328 8.9312,-11.53047 13.5051,-10.23719c1.3646,0.38584 2.02461,1.98619 3.03693,2.97928c1.72153,4.17684 2.57876,8.87085 4.83881,12.79381c2.42283,4.20547 5.90854,7.63222 8.58042,11.65988c1.58834,2.3943 4.31005,6.89471 2.76725,9.94574c-1.20489,2.3828 -10.56059,5.16882 -13.17167,6.37227c0,0 -2.22527,1.01149 -3.23674,-1.21377c-0.31352,-0.6898 -0.31607,-1.26295 -0.17026,-1.7255z" fill="#c00000"/><path d="M345.92749,149.63922c1.22275,2.24144 -1.08154,3.43084 -1.08154,3.43084l-2.8502,1.47082c-5.97616,3.29204 -11.74021,3.54047 -18.00583,5.85825c-6.38918,2.36348 -13.08185,7.39465 -19.03011,10.75318c-5.94683,3.35771 -11.7436,7.87922 -17.86984,10.81024c-2.32417,1.11197 -4.97265,1.622 -7.11502,3.03791c0,0 -2.17049,1.40754 -3.61749,-0.70376c-1.447,-2.1113 0.72349,-3.51882 0.72349,-3.51882c2.35738,-1.50576 5.18063,-2.17444 7.71682,-3.37419c7.30353,-3.45495 14.15495,-8.82245 21.28158,-12.75122c5.06815,-2.79396 10.59054,-6.94982 15.97758,-8.96708c6.04693,-2.26438 11.71063,-2.38327 17.42151,-5.5896l2.92199,-1.50858c0,0 2.30429,-1.18941 3.52703,1.05203z" fill="#515151"/><path d="M333.32021,172.70167c0.39706,1.07698 -0.6653,1.69785 -0.6653,1.69785l-0.16141,0.09431c-1.88965,1.08784 -3.70416,1.10894 -5.61686,1.74122c-0.90439,0.29895 1.79633,1.07622 2.04526,1.99563c0.16692,0.61653 -0.83075,0.99409 -1.0825,1.58109c-0.25541,0.59552 1.29101,0.43912 1.70119,0.94076c0.59382,0.72623 1.34062,1.52072 1.36982,2.45834c0.01785,0.57395 -0.98564,0.67198 -1.25667,1.1782c-0.20153,0.37637 0.34704,0.79492 0.62859,1.11586c0.2441,0.27823 3.42128,-1.88974 3.74914,-2.08134c0,0 0.29622,-0.17312 0.68528,-0.20777c0.78419,-0.40893 1.54986,0.21422 1.54986,0.21422c0.94276,0.76937 2.14073,2.0865 3.51334,1.97827c1.88747,-0.14881 5.45057,-3.09297 5.57398,-5.07576c0.25196,-4.04842 -2.86227,-8.90624 -6.05471,-10.86114c-2.65162,-0.38748 -6.00727,-0.89833 -5.90925,2.5647zM340.09237,188.30866c-2.11472,0.12472 -3.55208,-0.90347 -5.0247,-2.09337c-1.13221,0.74353 -2.85562,2.05418 -3.91037,2.1659c-3.32497,0.3521 -5.41693,-3.56618 -3.13867,-5.55474c0.53541,-0.46732 -1.4997,-0.34481 -1.92676,-0.91284c-0.54916,-0.73041 -1.13727,-1.5778 -1.14355,-2.49164c-0.00096,-0.14152 0.09349,-0.21798 0.2302,-0.26882c-1.59137,-1.45293 -1.76326,-3.47142 -0.18974,-5.14209c0.8234,-0.87422 3.81791,-1.14799 5.46107,-1.76952l0.02307,-0.17705c0.01987,-5.8814 5.19217,-6.17746 9.82751,-5.33312c4.30803,2.49235 8.41649,8.43372 7.95928,13.85908c-0.27539,3.26805 -4.83404,7.5217 -8.16734,7.71829zM326.07083,178.84838c0.10775,-0.1153 -0.05997,0.02045 -0.28186,0.15552c0.11279,-0.03491 0.21315,-0.08201 0.28186,-0.15552z" fill="#cfcfcf"/><path d="M337.2217,179.02514c0.89331,-1.94064 4.38271,-2.68512 5.77739,-0.1887c1.28157,2.294 -0.50264,4.17416 -2.63895,4.51316c-0.52127,0.08276 -1.66875,-0.50579 -2.576,-1.02004c-0.05767,-0.02708 -0.11469,-0.05919 -0.17024,-0.09719c-0.33928,-0.195 -0.63395,-0.37158 -0.83317,-0.48608c0,0 -1.26379,-0.72824 -0.53555,-1.99203c0.28036,-0.48653 0.64009,-0.67783 0.97653,-0.7291z" fill="#cfcfcf"/><path d="M339.97672,171.89076c1.49051,2.44039 -0.87076,5.1152 -3.00003,4.94099c-0.20982,0.26796 -0.55303,0.4875 -1.11453,0.49296c-1.45852,0.01422 -1.47274,-1.44432 -1.47274,-1.44432c-0.00196,-0.22977 -0.01122,-0.57317 -0.01457,-0.96449c-0.00585,-0.06703 -0.00589,-0.13248 -0.00113,-0.19602c-0.00278,-1.04286 0.04769,-2.33147 0.37561,-2.74505c1.34393,-1.69492 3.85773,-2.32662 5.22739,-0.08409z" data-paper-data="{&quot;index&quot;:null}" fill="#cfcfcf"/></g><path d="M231.82771,143.26383v-36.62842h17.21094v36.62842z" fill="#9c1c1c" stroke="none" stroke-width="0" stroke-linecap="butt"/><path d="M213.19222,156.48634c0,-15.36953 12.45947,-27.829 27.829,-27.829c15.36953,0 27.829,12.45947 27.829,27.829c0,15.36953 -12.45947,27.829 -27.829,27.829c-15.36953,0 -27.829,-12.45947 -27.829,-27.829z" fill="#c53f3f" stroke="#c53f3f" stroke-width="5" stroke-linecap="butt"/><path d="M212.95161,156.16366c-0.06514,-0.06854 -0.12979,-0.14263 -0.19378,-0.22262c-1.56174,-1.95217 0.39043,-3.51391 0.39043,-3.51391c2.8017,-2.19825 4.96444,-2.69877 8.14133,-4.00137c1.87818,-0.7701 3.60302,-1.93677 5.55373,-2.49833c5.09379,-1.4664 10.46555,-1.06538 15.69374,-1.06538c3.76417,0 8.07635,-0.59776 11.77326,0.03228c4.07653,0.69474 8.18109,2.48061 11.78161,4.44175c0.82318,0.55268 1.64635,1.10535 2.46953,1.65803l0.11169,0.23669l0.0711,-0.0711l1.9358,1.9358c0.45241,0.45241 0.73223,1.07741 0.73223,1.76777c0,1.38071 -1.11929,2.5 -2.5,2.5c-0.32061,0 -0.62712,-0.06035 -0.90879,-0.17031l-1.99376,-0.725c-2.10632,0.10534 -4.24343,0.14862 -6.14036,-0.0947c-3.82466,-0.4906 -7.62837,-1.82731 -11.50746,-2.16575c-5.67671,-0.49529 -12.6481,-0.67145 -18.31767,-0.01202c-4.80867,0.5593 -8.60819,2.35924 -13.02805,3.98517l-1.58028,0.15052c0,0 -2.2731,0 -2.48431,-2.16749z" fill="#b23939" stroke="none" stroke-width="0.5" stroke-linecap="butt"/><path d="M210.5927,155.68718c0,-16.69528 13.5342,-30.22948 30.22948,-30.22948c16.69528,0 30.22948,13.5342 30.22948,30.22948c0,16.69528 -13.5342,30.22948 -30.22948,30.22948c-16.69528,0 -30.22948,-13.5342 -30.22948,-30.22948z" fill="none" stroke="#bd2222" stroke-width="5" stroke-linecap="butt"/><path d="M184.08397,169.32769c-0.13886,-0.16646 -0.2692,-0.36498 -0.38712,-0.60082c-1.11803,-2.23607 1.11803,-3.3541 1.11803,-3.3541l1.13137,-0.48223c0.09513,-0.02114 0.63108,-0.14069 1.32754,-0.29547c0.28832,-0.9546 0.58336,-1.9056 1.14913,-2.71154c2.80956,-4.0022 10.27519,-5.4004 14.73541,-5.3874c2.24559,0.00654 5.98507,-0.3669 7.45426,2.10174c1.00391,1.68683 -0.78553,5.95845 -1.68655,7.49837c-0.8362,1.42912 -3.44391,4.53898 -4.76357,5.32586c-4.46059,2.65974 -12.64094,1.1872 -17.67389,1.1872c0,0 -2.5,0 -2.5,-2.5c0,-0.29369 0.0345,-0.55287 0.09539,-0.78161z" fill="#c53f3f" stroke="none" stroke-width="0.5" stroke-linecap="butt"/><path d="M206.74637,169.51378c0,2.5 -2.5,2.5 -2.5,2.5c-5.34575,0 -13.01948,0 -18.36523,0c0,0 -2.5,0 -2.5,-2.5c0,-2.5 2.5,-2.5 2.5,-2.5c5.34575,0 10.69149,0 16.03724,0h2.32799c0,0 2.5,0 2.5,2.5z" fill="#b23939" stroke="none" stroke-width="0.5" stroke-linecap="butt"/><path d="M284.22228,240.21285c0.50615,0.00143 3.83785,0.16922 4.5846,-0.29605c2.92239,-1.8208 4.92699,-7.64064 6.61726,-10.51214c1.23575,-2.09933 2.58017,-5.21834 5.78914,-5.15604c8.97799,0.17431 4.89989,5.60299 2.60829,9.54466c-2.04476,2.02943 -3.47913,4.42661 -5.16175,6.77195c-1.81083,2.52407 -2.44774,5.76734 -5.51137,7.32882c-2.32337,1.18419 -6.38219,0.5869 -8.92617,0.58037c-3.00502,-0.00771 -7.17859,-0.15292 -9.92429,-1.56856c-2.75018,-1.41795 -4.54014,-4.52862 -6.38757,-6.88233c-3.70625,-4.72193 -7.74129,-9.18018 -10.94801,-14.29261c-2.42639,-4.28981 -5.62868,-8.0583 -7.63818,-12.6565c-0.80659,-1.84567 -1.26264,-5.95963 -2.92213,-7.97892c-0.00479,0 -0.0096,0 -0.01444,0c-1.66376,0.45391 -3.55554,0.30604 -5.40519,0.40389c-0.06775,0.26511 -0.17787,0.51326 -0.32273,0.73681l-1.59839,2.55741c0.0675,0.56116 -4.05141,6.23323 -4.26047,6.55573c-3.00011,4.6282 -5.21433,9.83027 -8.61258,14.21388c-2.16721,2.7956 -5.07427,5.24603 -7.12644,8.08822c-1.80533,2.50031 -1.98057,5.54803 -4.4221,7.7257c-1.17055,1.04405 -2.24485,2.95098 -3.80301,2.7711c-1.27719,-0.14744 -2.22577,-0.51212 -2.91256,-1.03349c-0.38467,0.24151 -0.83978,0.38117 -1.32749,0.38117c-1.179,0 -2.16739,-0.81614 -2.43101,-1.91428c-0.10841,-0.00734 -0.21679,-0.01477 -0.32492,-0.02141c-1.45864,1.2611 -3.61677,1.94681 -5.31251,2.47666c-2.57003,0.80302 -7.79656,1.59225 -10.39514,0.61435c-3.2217,-1.21239 -4.7282,-4.66019 -5.98124,-8.07606c-1.57233,-1.69729 -2.49586,-4.05634 -3.10979,-6.7786c-0.03096,-0.13727 -0.06704,-0.27424 -0.10621,-0.41106c-1.05026,-1.73755 -2.14729,-3.45042 -2.99082,-5.29376c0,0 -1.0345,-2.27591 1.24141,-3.31042c0.75865,-0.34484 1.37936,-0.32185 1.86979,-0.13793c0.4529,-0.45607 1.08046,-0.73847 1.77398,-0.73847c0.69036,0 1.31536,0.27982 1.76776,0.73223l1.95695,1.95695l-0.08163,0.08163l0.30063,0.16866c2.35261,4.05881 5.424,7.11896 8.40088,10.66476c0.74291,0.88488 1.23539,2.53624 2.64802,2.78742c2.31286,0.41126 4.61833,-0.34579 6.95025,-0.56769c-0.35045,-3.30648 1.14464,-7.11874 3.10013,-9.89336c0.97685,-1.38603 2.292,-2.53833 3.11908,-4.01862l1.28055,-2.24097c0.42441,-0.77572 1.24812,-1.30179 2.19469,-1.30179c0.32976,0 0.6446,0.06384 0.93285,0.17985c4.15026,-5.94992 8.75145,-11.24891 13.4739,-16.91585l0.02658,-0.01676l-0.00689,-0.00602l2.2738,-2.59862c0.39355,-0.45454 0.94826,-0.76572 1.57528,-0.84466c0.63706,-0.86551 1.83877,-1.47152 2.77131,-2.0319c2.67673,-1.60852 7.4443,-1.17834 10.41967,-0.9184c1.19499,0.1044 2.48356,0.03082 3.55229,0.57554c0.24276,0.12373 0.47303,0.25668 0.69174,0.3981h1.79762c1.38071,0 2.5,1.11929 2.5,2.5c0,0.05618 -0.00186,0.11194 -0.0055,0.1672c0.62504,0.13696 1.16254,0.50777 1.51615,1.01609l1.61142,2.25599l-0.09084,0.06489l0.25001,0.18882c2.29938,5.74846 7.059,10.16342 10.54221,15.19818c2.13266,-0.94159 3.19899,1.19107 3.19899,1.19107l0.26069,0.53c1.73994,3.04491 3.53043,6.09957 5.45679,8.9899c0.42609,0.63932 0.83972,1.12055 1.19266,1.52464c0.42816,0.33238 0.84834,0.65278 1.25579,0.95951l2.40927,1.20463c0.84562,0.40086 1.43041,1.26228 1.43041,2.26029c0,1.2433 -0.90759,2.27463 -2.09638,2.46759c1.65958,-0.06223 3.70725,-0.40451 4.81491,-0.40138z" fill="#621212" stroke="none" stroke-width="0.5" stroke-linecap="butt"/><path d="M172.89414,228.2749l9.08134,-7.89682" fill="none" stroke="#621212" stroke-width="5" stroke-linecap="round"/><path d="M308.71936,228.2749l-9.08134,-8.29165" fill="none" stroke="#621212" stroke-width="5" stroke-linecap="round"/><path d="M211.98337,246.43758l-22.90076,4.34325" fill="none" stroke="#621212" stroke-width="5" stroke-linecap="round"/><path d="M293.32058,250.38599l-22.11109,-4.34325" fill="none" stroke="#621212" stroke-width="5" stroke-linecap="round"/><g stroke-linecap="butt"><g fill="#db4747" stroke="#000000" stroke-width="0"><path d="M203.3831,174.68783c7.18543,0.69714 11.07514,2.57528 14.14615,9.33224c0.70729,1.55618 2.01005,3.03567 2.10171,4.82457c0.04244,0.82856 -0.08778,1.52956 -0.36241,2.11967c0.96654,-0.11836 1.83794,-0.04478 2.38741,0.49811c4.19961,4.14941 -3.5161,5.58353 -6.50823,5.58353c-16.76273,0 -20.34287,-0.67074 -31.48317,-0.86915c-2.05649,-0.03662 -4.02363,-0.69552 -5.9528,0.00923c-0.82763,0.30235 -4.61854,1.47425 -5.63714,0.67512c-1.07676,-0.10832 -1.86289,-0.76795 -1.60842,-2.36986c-0.01176,-0.09284 -0.01784,-0.18716 -0.01784,-0.28267c0,-0.39204 0.10189,-0.76363 0.2842,-1.09637c1.4709,-5.23733 4.42887,-10.05225 7.35738,-14.77721c0.43481,-0.70156 1.66709,-4.2708 2.70126,-5.02899c2.22479,-1.63114 5.70456,-1.28892 8.32177,-1.72155c2.32889,-0.38498 8.37852,-1.60959 10.49133,0.20393c0.89191,0.76558 1.35136,1.76744 1.30617,2.66096c0.87253,0.07957 1.70317,0.16382 2.47259,0.23846z"/><path d="M224.14408,193.01708c0.18231,0.33274 0.28416,0.70433 0.28416,1.09637c0,0.09554 -0.00608,0.18982 -0.01785,0.28266c0.34511,2.17239 -1.22357,2.61191 -2.83551,2.29346c-1.26193,-0.24933 -2.55036,-0.96321 -2.96765,-1.67396c-3.21824,-5.48144 -4.19683,-13.08934 -8.95387,-17.88013c-0.46365,-0.46697 -3.42482,-0.31367 -3.61474,-0.32196c-3.19659,-0.13968 -5.11286,-0.14101 -9.26388,-0.28399c-3.32132,-0.11442 -3.5368,-3.09008 -1.50248,-4.83625c2.11281,-1.81355 8.16241,-0.58894 10.49133,-0.20396c2.61721,0.43264 6.09697,0.09042 8.32176,1.72155c1.03412,0.75818 2.26641,4.32742 2.70122,5.02898c2.92851,4.72499 5.88647,9.53988 7.35742,14.77722z" data-paper-data="{&quot;index&quot;:null}"/></g><g fill="#c74040" stroke="none"><path d="M171.10379,192.23022c0,-1.95146 3.63902,-3.5334 8.12793,-3.5334c4.48891,0 8.12793,1.58197 8.12793,3.5334c0,1.95146 -3.63902,3.53339 -8.12793,3.53339c-4.48891,0 -8.12793,-1.58193 -8.12793,-3.53339z" stroke-width="NaN"/><path d="M208.43096,192.28212c0,-1.95146 3.63898,-3.53339 8.12789,-3.53339c4.48891,0 8.12789,1.58196 8.12789,3.53339c0,1.95146 -3.63898,3.5334 -8.12789,3.5334c-4.48891,0 -8.12789,-1.58194 -8.12789,-3.5334z" stroke-width="NaN"/><path d="M178.3961,195.76364v-7.06682h38.2847v7.06682z" stroke-width="0"/></g><path d="M174.19441,185.04569c0.9416,-0.71308 1.51499,-4.26151 2.20259,-5.56965c3.25934,-6.201 7.01877,-9.07403 14.27707,-9.24437c0.00981,-0.00023 0.01961,-0.00048 0.02945,-0.00078c0.08853,0.01765 0.17996,0.02749 0.27342,0.02875c0.00694,0.00003 0.01384,0.00007 0.02063,0.00016c2.27076,0.02078 4.54167,0.03417 6.81255,0.03975c1.63712,1.66028 1.60293,2.72613 -0.10252,4.41123c-1.02059,1.00839 -2.87454,0.29721 -4.31763,0.32242c-4.11647,0.07189 -7.41551,0.31742 -10.19478,3.16465c-2.65086,2.71564 -7.18154,14.20789 -8.55204,17.47701c-0.44834,1.0695 -3.91408,4.04873 -5.11071,1.97963c-0.76942,-0.44868 -1.28558,-1.27624 -1.28558,-2.22293c0,-0.92061 0.48816,-1.72858 1.22267,-2.18504c1.69109,-3.04155 4.43487,-7.98125 4.72492,-8.20086z" fill="#bd2222" stroke="none" stroke-width="0.5"/><path d="M225.66436,192.92867c0.73451,0.45642 1.22267,1.2644 1.22267,2.18505c0,0.94669 -0.51616,1.77424 -1.28558,2.22292c-1.19666,2.06911 -4.66236,-0.91016 -5.1107,-1.97966c-1.3705,-3.26913 -5.90118,-14.76134 -8.55204,-17.47698c-2.77931,-2.84723 -6.07831,-3.09276 -10.19477,-3.16465c-1.44309,-0.0252 -3.29708,0.68597 -4.31763,-0.32242c-1.59492,-1.57587 -1.72821,-2.6102 -0.39975,-4.09558c3.6509,0.01184 7.30188,0.00342 10.95263,-0.02726c0.06327,0.00833 0.12618,0.01623 0.18874,0.02369c4.93221,0.97495 7.91625,3.81738 10.56907,8.86443c0.68756,1.30814 1.26099,4.85658 2.20255,5.56965c0.29009,0.21965 3.03378,5.15931 4.72492,8.20085z" data-paper-data="{&quot;index&quot;:null}" fill="#bd2222" stroke="none" stroke-width="0.5"/><path d="M214.34489,177.89184c-0.2644,0.52244 -0.79318,0.26123 -0.79318,0.26123l-0.21408,-0.10803c-3.29547,-1.31202 -6.4166,-1.80055 -9.75584,-2.78706c-1.8705,-0.04156 -3.76307,0.01465 -5.68977,0.01465c-5.06748,0 -9.61641,1.006 -14.50767,2.03413c0,0 -0.57848,0.12032 -0.7003,-0.45126c-0.12178,-0.57158 0.4567,-0.69194 0.4567,-0.69194c0.45686,-0.09393 0.91078,-0.18798 1.36246,-0.28133c-0.14614,-0.3995 0.24392,-0.65644 0.24392,-0.65644c3.64195,-2.38423 8.74706,-1.29386 12.8614,-1.63263c5.18346,-0.00355 10.65042,0.52118 15.81332,1.02575l0.07064,-0.0029c0,0 0.59123,0 0.59123,0.58414c0,0.58414 -0.59123,0.58413 -0.59123,0.58413l-0.18827,-0.0029c-0.29017,-0.02901 -0.58131,-0.05802 -0.87336,-0.08689c0.09465,0.12013 0.15481,0.29677 0.06166,0.54222c-0.03381,0.08912 -0.07683,0.15827 -0.12511,0.21157c0.46745,0.15736 0.93697,0.32684 1.40944,0.51202l0.30373,0.14782c0,0 0.52879,0.26123 0.2644,0.78367zM187.24772,175.32601c0.92917,-0.18176 1.85445,-0.3533 2.78205,-0.50711c-0.96596,0.07509 -1.9047,0.22536 -2.78205,0.50711z" fill="#bd2222" stroke="none" stroke-width="0.5"/></g><g stroke-linecap="butt"><g fill="#db4747" stroke="#000000" stroke-width="0"><path d="M289.91028,173.68583c7.18543,0.69714 11.07515,2.57528 14.14615,9.33224c0.70729,1.55618 2.01005,3.03567 2.10171,4.82457c0.04244,0.82856 -0.08778,1.52957 -0.36241,2.11967c0.96654,-0.11836 1.83794,-0.04478 2.38741,0.49811c4.19961,4.14941 -3.5161,5.58352 -6.50822,5.58352c-16.76273,0 -20.34287,-0.67074 -31.48317,-0.86915c-2.05649,-0.03662 -4.02362,-0.69552 -5.9528,0.00923c-0.82763,0.30235 -4.61854,1.47425 -5.63714,0.67513c-1.07676,-0.10832 -1.86289,-0.76796 -1.60842,-2.36987c-0.01177,-0.09284 -0.01784,-0.18715 -0.01784,-0.28266c0,-0.39204 0.1019,-0.76363 0.2842,-1.09637c1.47091,-5.23733 4.42887,-10.05225 7.35738,-14.77721c0.43482,-0.70156 1.66709,-4.2708 2.70126,-5.02899c2.22479,-1.63114 5.70457,-1.28892 8.32177,-1.72155c2.32889,-0.38498 8.37852,-1.60959 10.49133,0.20393c0.89191,0.76558 1.35136,1.76744 1.30617,2.66095c0.87253,0.07957 1.70317,0.16382 2.47259,0.23845z"/><path d="M310.67126,192.01509c0.1823,0.33274 0.28416,0.70433 0.28416,1.09637c0,0.09554 -0.00608,0.18983 -0.01785,0.28266c0.34512,2.17239 -1.22357,2.6119 -2.83551,2.29346c-1.26193,-0.24933 -2.55036,-0.96321 -2.96765,-1.67396c-3.21824,-5.48144 -4.19683,-13.08935 -8.95387,-17.88013c-0.46364,-0.46697 -3.42482,-0.31366 -3.61474,-0.32196c-3.19659,-0.13968 -5.11286,-0.14101 -9.26388,-0.28399c-3.32132,-0.11442 -3.5368,-3.09008 -1.50248,-4.83625c2.11281,-1.81355 8.16241,-0.58894 10.49133,-0.20396c2.61721,0.43264 6.09698,0.09042 8.32177,1.72155c1.03413,0.75818 2.2664,4.32743 2.70122,5.02898c2.92851,4.72499 5.88648,9.53988 7.35742,14.77721z" data-paper-data="{&quot;index&quot;:null}"/></g><g fill="#c74040" stroke="none"><path d="M257.63097,191.22822c0,-1.95146 3.63902,-3.5334 8.12793,-3.5334c4.48892,0 8.12793,1.58197 8.12793,3.5334c0,1.95146 -3.63901,3.5334 -8.12793,3.5334c-4.48892,0 -8.12793,-1.58194 -8.12793,-3.5334z" stroke-width="NaN"/><path d="M294.95814,191.28013c0,-1.95146 3.63898,-3.53339 8.1279,-3.53339c4.48892,0 8.12789,1.58196 8.12789,3.53339c0,1.95146 -3.63898,3.53339 -8.12789,3.53339c-4.48892,0 -8.1279,-1.58193 -8.1279,-3.53339z" stroke-width="NaN"/><path d="M264.92328,194.76164v-7.06682h38.2847v7.06682z" stroke-width="0"/></g><path d="M260.72159,184.04367c0.9416,-0.71308 1.51499,-4.2615 2.20259,-5.56965c3.25934,-6.201 7.01877,-9.07403 14.27707,-9.24437c0.0098,-0.00023 0.01961,-0.00048 0.02945,-0.00078c0.08853,0.01765 0.17996,0.02749 0.27342,0.02875c0.00694,0.00003 0.01385,0.00007 0.02063,0.00016c2.27076,0.02078 4.54167,0.03418 6.81255,0.03976c1.63713,1.66028 1.60292,2.72613 -0.10253,4.41123c-1.0206,1.00839 -2.87454,0.29721 -4.31763,0.32241c-4.11647,0.07189 -7.4155,0.31741 -10.19477,3.16464c-2.65085,2.71564 -7.18154,14.20789 -8.55204,17.47701c-0.44835,1.0695 -3.91408,4.04873 -5.11071,1.97963c-0.76942,-0.44868 -1.28558,-1.27623 -1.28558,-2.22292c0,-0.92061 0.48816,-1.72859 1.22267,-2.18504c1.6911,-3.04155 4.43487,-7.98125 4.72492,-8.20085z" fill="#bd2222" stroke="none" stroke-width="0.5"/><path d="M312.19154,191.92667c0.73451,0.45642 1.22267,1.2644 1.22267,2.18505c0,0.94669 -0.51616,1.77424 -1.28558,2.22292c-1.19666,2.06911 -4.66236,-0.91016 -5.1107,-1.97966c-1.3705,-3.26913 -5.90118,-14.76134 -8.55204,-17.47698c-2.77931,-2.84723 -6.07831,-3.09276 -10.19477,-3.16465c-1.4431,-0.0252 -3.29708,0.68597 -4.31763,-0.32241c-1.59492,-1.57587 -1.72821,-2.6102 -0.39976,-4.09558c3.6509,0.01184 7.30188,0.00342 10.95263,-0.02726c0.06327,0.00833 0.12617,0.01623 0.18874,0.02369c4.93221,0.97495 7.91625,3.81738 10.56907,8.86443c0.68756,1.30814 1.26098,4.85657 2.20255,5.56965c0.29008,0.21965 3.03378,5.15931 4.72492,8.20085z" data-paper-data="{&quot;index&quot;:null}" fill="#bd2222" stroke="none" stroke-width="0.5"/><path d="M300.87207,176.88983c-0.26439,0.52244 -0.79318,0.26124 -0.79318,0.26124l-0.21407,-0.10803c-3.29547,-1.31202 -6.4166,-1.80055 -9.75584,-2.78705c-1.8705,-0.04156 -3.76308,0.01465 -5.68977,0.01465c-5.06748,0 -9.61641,1.00599 -14.50766,2.03412c0,0 -0.57848,0.12033 -0.70031,-0.45126c-0.12178,-0.57158 0.4567,-0.69194 0.4567,-0.69194c0.45686,-0.09393 0.91078,-0.18799 1.36246,-0.28134c-0.14614,-0.3995 0.24392,-0.65645 0.24392,-0.65645c3.64195,-2.38423 8.74705,-1.29385 12.8614,-1.63262c5.18346,-0.00355 10.65041,0.52118 15.81332,1.02575l0.07064,-0.0029c0,0 0.59123,0 0.59123,0.58414c0,0.58414 -0.59123,0.58414 -0.59123,0.58414l-0.18827,-0.0029c-0.29017,-0.02901 -0.58131,-0.05802 -0.87336,-0.08689c0.09465,0.12013 0.1548,0.29676 0.06165,0.54222c-0.03381,0.08912 -0.07684,0.15827 -0.12511,0.21158c0.46745,0.15736 0.93697,0.32683 1.40944,0.51201l0.30373,0.14782c0,0 0.52879,0.26124 0.2644,0.78368zM273.7749,174.32401c0.92917,-0.18176 1.85446,-0.3533 2.78206,-0.50711c-0.96596,0.07509 -1.9047,0.22536 -2.78206,0.50711z" fill="#bd2222" stroke="none" stroke-width="0.5"/></g><g stroke-linecap="butt"><g fill="#db4747" stroke="#000000" stroke-width="0"><path d="M250.51891,160.64497c12.29447,1.19282 18.94989,4.40637 24.20446,15.96772c1.21019,2.66268 3.43925,5.19412 3.59608,8.25497c0.07261,1.41769 -0.15019,2.61713 -0.62009,3.62681c1.65379,-0.20251 3.14478,-0.07663 4.08492,0.85228c7.18566,7.09975 -6.01614,9.55356 -11.13576,9.55356c-28.6815,0 -34.80722,-1.14765 -53.86858,-1.48714c-3.51871,-0.06267 -6.88453,-1.19005 -10.18541,0.01579c-1.41609,0.51732 -7.90246,2.52249 -9.64531,1.15516c-1.84237,-0.18534 -3.18745,-1.31399 -2.75204,-4.05491c-0.02013,-0.15885 -0.03054,-0.32022 -0.03054,-0.48364c0,-0.6708 0.17435,-1.3066 0.48628,-1.87593c2.51676,-8.96122 7.57792,-17.19968 12.58868,-25.28422c0.74398,-1.20038 2.85244,-7.30746 4.62193,-8.60474c3.80668,-2.79092 9.76067,-2.20537 14.23878,-2.94563c3.98478,-0.65871 14.33589,-2.75404 17.95096,0.34893c1.52608,1.30992 2.31221,3.02414 2.23489,4.55297c1.49293,0.13614 2.91418,0.2803 4.23068,0.40801z"/><path d="M286.04153,192.00684c0.31193,0.56932 0.4862,1.20513 0.4862,1.87593c0,0.16348 -0.0104,0.32479 -0.03053,0.48364c0.5905,3.71703 -2.09356,4.46904 -4.85165,3.92417c-2.1592,-0.42661 -4.36374,-1.64808 -5.07773,-2.86419c-5.5065,-9.37889 -7.1809,-22.39623 -15.32033,-30.5934c-0.79331,-0.799 -5.85997,-0.53669 -6.18492,-0.55089c-5.46946,-0.239 -8.74825,-0.24127 -15.85076,-0.48591c-5.68287,-0.19577 -6.05156,-5.2872 -2.57077,-8.27496c3.61507,-3.10304 13.96611,-1.00769 17.95096,-0.34898c4.47811,0.74026 10.4321,0.1547 14.23878,2.94563c1.76941,1.29728 3.87788,7.40435 4.62186,8.60473c5.01076,8.08459 10.07192,16.323 12.58874,25.28422z" data-paper-data="{&quot;index&quot;:null}"/></g><g fill="#c74040" stroke="none"><path d="M195.28812,190.66048c0,-3.339 6.22646,-6.04574 13.90712,-6.04574c7.68066,0 13.90712,2.70679 13.90712,6.04574c0,3.339 -6.22646,6.04574 -13.90712,6.04574c-7.68066,0 -13.90712,-2.70674 -13.90712,-6.04574z" stroke-width="NaN"/><path d="M259.15595,190.74931c0,-3.339 6.2264,-6.04573 13.90706,-6.04573c7.68066,0 13.90706,2.70678 13.90706,6.04573c0,3.339 -6.2264,6.04574 -13.90706,6.04574c-7.68066,0 -13.90706,-2.70673 -13.90706,-6.04574z" stroke-width="NaN"/><path d="M207.76546,196.70627v-12.09153h65.50619v12.09153z" stroke-width="0"/></g><path d="M200.57625,178.36754c1.61111,-1.22009 2.59219,-7.29156 3.76869,-9.52984c5.57683,-10.61007 12.00931,-15.52592 24.42847,-15.81738c0.01677,-0.00038 0.03356,-0.00083 0.0504,-0.00133c0.15147,0.0302 0.30791,0.04704 0.46783,0.04919c0.01188,0.00005 0.02369,0.00011 0.0353,0.00028c3.88532,0.03555 7.77093,0.05847 11.65646,0.06802c2.80116,2.84079 2.74265,4.66449 -0.17543,7.54773c-1.74626,1.72538 -4.91842,0.50854 -7.3876,0.55166c-7.04339,0.12301 -12.68813,0.5431 -17.44354,5.41479c-4.53569,4.64655 -12.28782,24.31009 -14.63278,29.90365c-0.76713,1.82995 -6.6971,6.92749 -8.74456,3.3872c-1.3165,-0.7677 -2.19966,-2.18367 -2.19966,-3.80348c0,-1.5752 0.83526,-2.95766 2.09202,-3.73866c2.89351,-5.20417 7.58818,-13.65613 8.08446,-14.03189z" fill="#bd2222" stroke="none" stroke-width="0.5"/><path d="M288.64277,191.85556c1.25676,0.78095 2.09202,2.16341 2.09202,3.73868c0,1.61981 -0.88316,3.03579 -2.19966,3.80348c-2.04753,3.54029 -7.97743,-1.55731 -8.74456,-3.38726c-2.34496,-5.59357 -10.09709,-25.25706 -14.63278,-29.9036c-4.75547,-4.87169 -10.40016,-5.29179 -17.44354,-5.41479c-2.46918,-0.04312 -5.64139,1.17372 -7.38759,-0.55166c-2.72896,-2.69636 -2.95701,-4.46612 -0.684,-7.00766c6.24679,0.02026 12.49373,0.00585 18.74025,-0.04665c0.10825,0.01424 0.21589,0.02777 0.32293,0.04053c8.43914,1.66817 13.54493,6.53164 18.08398,15.16728c1.17644,2.23827 2.15758,8.30974 3.76862,9.52983c0.49635,0.37582 5.19088,8.82772 8.08446,14.03189z" data-paper-data="{&quot;index&quot;:null}" fill="#bd2222" stroke="none" stroke-width="0.5"/><path d="M269.27485,166.12712c-0.45238,0.89391 -1.35717,0.44698 -1.35717,0.44698l-0.36629,-0.18485c-5.63864,-2.2449 -10.97898,-3.08078 -16.69251,-4.76872c-3.20047,-0.07111 -6.43873,0.02507 -9.73537,0.02507c-8.6706,0 -16.45395,1.72129 -24.82302,3.48045c0,0 -0.98979,0.20587 -1.19824,-0.77212c-0.20838,-0.97799 0.78143,-1.18393 0.78143,-1.18393c0.7817,-0.16072 1.55837,-0.32164 2.3312,-0.48137c-0.25005,-0.68356 0.41735,-1.1232 0.41735,-1.1232c6.23148,-4.07949 14.96646,-2.21383 22.00622,-2.79348c8.86905,-0.00608 18.22316,0.89176 27.05703,1.75508l0.12086,-0.00497c0,0 1.01162,0 1.01162,0.99947c0,0.99947 -1.01162,0.99948 -1.01162,0.99948l-0.32212,-0.00498c-0.49648,-0.04963 -0.99464,-0.09927 -1.49434,-0.14868c0.16194,0.20555 0.26488,0.50777 0.1055,0.92775c-0.05785,0.15249 -0.13147,0.2708 -0.21408,0.36201c0.79982,0.26925 1.60318,0.55923 2.41159,0.87608l0.5197,0.25293c0,0 0.90477,0.44698 0.45238,1.34089zM222.91083,161.7369c1.58983,-0.31099 3.17302,-0.60449 4.76017,-0.86768c-1.65278,0.12848 -3.25899,0.38558 -4.76017,0.86768z" fill="#bd2222" stroke="none" stroke-width="0.5"/></g><path d="M157.85708,247.51478c-0.02833,-0.05629 -0.05475,-0.11419 -0.07917,-0.17377c-0.6388,-1.55869 0.90326,-3.28224 1.73849,-4.7451c0.53395,-0.93518 1.58364,-1.46759 2.27845,-2.29033c2.01318,-2.38385 3.64002,-5.21084 5.32343,-7.83008c1.18169,-0.87819 2.15052,-2.16251 3.54508,-2.63455c4.9907,-1.6893 6.19098,2.04387 8.59655,4.96866c1.32941,1.61635 3.08656,2.87474 4.2785,4.59497c2.2263,3.21301 5.73675,7.36636 2.04047,11.3902c-0.63743,0.69392 -5.3104,0.58273 -6.60279,0.58062c-6.2859,-0.01029 -12.6192,-0.7877 -18.86331,-1.40156c0,0 -2.29986,-0.22998 -2.2557,-2.45905z" fill="#e74a4a" stroke="none" stroke-width="0.5" stroke-linecap="butt"/><path d="M188.54476,244.11849c0,2.5 -2.5,2.5 -2.5,2.5h-2.17777c-2.46284,0 -5.04417,-0.1377 -7.64595,-0.22268c-0.08589,1.15726 -0.17752,2.3168 -0.26632,3.47984l0.00736,0.53419c0,0 0,2.5 -2.5,2.5c-2.5,0 -2.5,-2.5 -2.5,-2.5l0.00736,-0.91766c0.08141,-1.05011 0.16655,-2.09808 0.2478,-3.14463c-2.9142,0.06856 -5.7746,0.35879 -8.44117,1.14266c0,0 -2.40381,0.6868 -3.09061,-1.71701c-0.6868,-2.40381 1.71701,-3.09061 1.71701,-3.09061c3.24857,-0.90626 6.67434,-1.20703 10.13982,-1.26618c0.16844,-3.50086 0.15865,-6.99804 -0.31631,-10.51807c0,0 -0.33041,-2.47807 2.14766,-2.80848c2.47807,-0.33041 2.80848,2.14766 2.80848,2.14766c0.49626,3.76318 0.51519,7.4891 0.34646,11.22006c2.476,0.06329 4.93875,0.16092 7.3384,0.16092h2.17777c0,0 2.5,0 2.5,2.5z" fill="#fa6a6a" stroke="none" stroke-width="0.5" stroke-linecap="butt"/><path d="M293.92505,248.10172c-0.02834,-0.05629 -0.05475,-0.1142 -0.07916,-0.17377c-0.6388,-1.55869 0.90326,-3.28223 1.73849,-4.7451c0.53395,-0.93518 1.58364,-1.46759 2.27845,-2.29033c2.01319,-2.38385 3.64002,-5.21084 5.32343,-7.83008c1.18169,-0.87819 2.15052,-2.16251 3.54508,-2.63455c4.9907,-1.6893 6.19097,2.04387 8.59654,4.96865c1.32941,1.61635 3.08655,2.87474 4.2785,4.59497c2.22631,3.21301 5.73676,7.36636 2.04048,11.3902c-0.63743,0.69392 -5.31041,0.58274 -6.6028,0.58062c-6.28591,-0.01029 -12.6192,-0.7877 -18.86331,-1.40156c0,0 -2.29986,-0.22998 -2.2557,-2.45905z" fill="#e74a4a" stroke="none" stroke-width="0.5" stroke-linecap="butt"/><g><g><path d="M229.82181,222.79349c1.08625,-0.83336 2.52594,-0.35346 2.52594,-0.35346c5.54597,1.84985 8.88126,2.84136 14.84396,1.14252c2.09013,-0.59554 6.87868,-3.28392 8.82852,-2.5429c0.82292,0.31274 3.80643,7.82342 4.3259,8.93371c1.9442,4.15551 6.04416,6.79802 7.60136,11.35452c3.25322,9.51929 -7.82923,8.77411 -13.76227,7.79688c-9.45179,-0.54905 -19.17791,-0.89772 -28.61768,-0.8939c-1.96349,0.00078 -9.50367,0.68042 -10.56247,-0.81054c-1.52901,-2.1532 1.0114,-6.41128 1.98326,-8.35986c2.65363,-5.32063 5.29,-10.76917 9.84205,-14.57028l0.05054,-0.41476c0,0 1.08672,-1.81122 2.94083,-1.28189z" fill="#e74a4a" stroke="none" stroke-width="0.5" stroke-linecap="butt"/><path d="M264.83285,241.52347c0.18776,2.57997 -2.06524,2.795 -2.06524,2.795l-2.46674,0.23315c-13.06168,0.01187 -25.99225,1.13447 -39.04974,1.13447c0,0 -2.26078,0.00002 -2.26078,-2.58895c0,-2.58892 2.26078,-2.58894 2.26078,-2.58894c2.88342,0 5.76051,-0.05624 8.63415,-0.14366c0.19859,-0.12223 0.34047,-0.17638 0.34047,-0.17638l0.6049,-0.11773c2.82662,-2.26579 5.45986,-4.41472 7.93399,-7.11954c-0.00445,-4.53544 -0.07665,-9.06226 0.20369,-13.58859c0,0 0.16108,-2.58235 2.41612,-2.39787c2.25504,0.18447 2.09399,2.76678 2.09399,2.76678c-0.28518,4.53806 -0.19202,9.08055 -0.19202,13.62876l0.13238,0.47761c2.28358,1.62608 4.57603,3.12863 7.04539,4.41174l1.69157,0.55647c0,0 0.52794,0.18136 0.98424,0.6635c2.32101,-0.05865 4.64482,-0.09338 6.97291,-0.09112l2.27915,-0.21977c0,0 2.25297,-0.215 2.44074,2.36499zM240.66513,237.97254c-0.70655,0.71436 -1.42441,1.39747 -2.15461,2.06084c1.6079,-0.06984 3.21559,-0.14154 4.82361,-0.21075c-0.89572,-0.59658 -1.78274,-1.21469 -2.66902,-1.85009z" fill="#fa6a6a" stroke="none" stroke-width="0.5" stroke-linecap="butt"/><path d="M231.02519,219.88488c0,-5.74445 4.65679,-10.4012 10.4012,-10.4012c5.74445,0 10.4012,4.65674 10.4012,10.4012c0,5.74445 -4.65674,10.40124 -10.4012,10.40124c-5.74445,0 -10.4012,-4.65681 -10.4012,-10.40124z" fill="#bd2222" stroke="none" stroke-width="0" stroke-linecap="butt"/><path d="M235.38851,219.78519c0,-3.36178 2.72524,-6.08699 6.08699,-6.08699c3.36178,0 6.08699,2.72521 6.08699,6.08699c0,3.36178 -2.72521,6.087 -6.08699,6.087c-3.36178,0 -6.08699,-2.72521 -6.08699,-6.087z" fill="#fa5050" stroke="none" stroke-width="0" stroke-linecap="butt"/><path d="M246.09502,222.57844c-1.42553,0 -1.42556,-1.42556 -1.42556,-1.42556v-0.29328c0.00165,-3.1613 -0.28306,-4.16429 -3.65785,-4.1466c0,0 -1.42554,-0.00002 -1.42554,-1.42556c0,-1.42553 1.42554,-1.42556 1.42554,-1.42556c4.90266,0.02119 6.50663,2.31857 6.50897,6.99772v0.29328c0,0 -0.00002,1.42556 -1.42555,1.42556z" fill="#fa6a6a" stroke="none" stroke-width="0.5" stroke-linecap="butt"/><path d="M215.58388,244.74871c0,0 -0.25821,0.36119 -0.71519,0.69074c0.6446,0.1997 1.32498,0.33057 1.7968,0.36309c4.36993,0.30133 8.88135,-0.01622 13.26318,-0.01622c9.58314,0 19.15487,0.09224 28.72125,-0.33005c2.66559,-0.11766 7.97573,0.7085 10.24797,-0.96169c0.82047,-0.60307 -1.27825,-1.57221 -1.88614,-2.38144c-0.16203,-0.21566 -0.31757,-0.43322 -0.46778,-0.65233c0.63835,0.18827 1.27216,0.33069 1.89672,0.42218c0.93185,0.75034 2.11649,1.19943 3.406,1.19943c0.74325,0 1.45163,-0.1492 2.09689,-0.41928c0.57912,1.34804 0.71392,2.82949 -0.2316,4.53641c-1.78325,3.21919 -8.7692,3.67642 -11.90328,3.68953c-10.6152,0.04447 -21.24755,0.33212 -31.88009,0.33212c-5.46237,0 -17.28778,2.17015 -20.77773,-3.49919c-0.09681,-0.63876 -0.23269,-1.27969 -0.40646,-1.91423c1.397,-0.8965 2.78809,-1.93293 4.10086,-3.02106c1.25716,0.21393 2.70944,0.12767 4.15397,-0.14705c-0.46017,0.7166 -0.93118,1.42045 -1.41541,2.10905z" fill="#7e1717" stroke="none" stroke-width="0.5" stroke-linecap="butt"/><path d="M245.00881,205.72801c0.02221,0.12466 0.04617,0.25129 0.07191,0.37992c0.32862,1.643 3.68894,2.8752 4.45546,4.69924c0.48104,1.14469 1.14468,2.71582 1.96191,4.46796c-3.64491,-3.6521 -10.33187,-6.91483 -14.73308,-3.44018c-0.21145,-1.03544 -0.71735,-1.96371 -1.42643,-2.69354c0.21248,-0.56331 0.33405,-1.17122 0.34687,-1.80587c0.11036,-0.10625 0.21617,-0.21714 0.31724,-0.33237c2.71962,-1.33578 5.7013,-1.87157 9.00609,-1.27518z" fill="#b22020" stroke="none" stroke-width="0.5" stroke-linecap="butt"/><path d="M214.85407,240.64876c0,-4.74204 3.84419,-8.58615 8.58621,-8.58615c4.74204,0 8.58616,3.84416 8.58616,8.58615c0,4.74204 -3.84411,8.58621 -8.58616,8.58621c-4.74204,0 -8.58621,-3.84419 -8.58621,-8.58621z" fill="#bd2222" stroke="none" stroke-width="0" stroke-linecap="butt"/><path d="M218.45596,240.56654c0,-2.77513 2.24966,-5.02481 5.02479,-5.02481c2.77513,0 5.02484,2.24971 5.02484,5.02481c0,2.77513 -2.24972,5.0248 -5.02484,5.0248c-2.77513,0 -5.02479,-2.2497 -5.02479,-5.0248z" fill="#fa5050" stroke="none" stroke-width="0" stroke-linecap="butt"/><path d="M227.29417,242.87238c-1.17679,0 -1.17679,-1.17677 -1.17679,-1.17677v-0.24212c0.00136,-2.6096 -0.23368,-3.43762 -3.01956,-3.42306c0,0 -1.17677,0 -1.17677,-1.17679c0,-1.17679 1.17677,-1.17679 1.17677,-1.17679c4.0471,0.01746 5.37125,1.914 5.37314,5.77659v0.24205c0,0 0,1.17681 -1.17679,1.17681z" fill="#fa6a6a" stroke="none" stroke-width="0.5" stroke-linecap="butt"/><path d="M232.36328,240.22208c0,-4.74204 3.84419,-8.58615 8.58621,-8.58615c4.74204,0 8.58621,3.84418 8.58621,8.58615c0,4.74204 -3.84416,8.58621 -8.58621,8.58621c-4.74204,0 -8.58621,-3.84419 -8.58621,-8.58621z" fill="#bd2222" stroke="none" stroke-width="0" stroke-linecap="butt"/><path d="M235.96517,240.13967c0,-2.77513 2.24966,-5.02481 5.02479,-5.02481c2.77513,0 5.02484,2.24969 5.02484,5.02481c0,2.77513 -2.24969,5.02482 -5.02484,5.02482c-2.77513,0 -5.02479,-2.2497 -5.02479,-5.02482z" fill="#fa5050" stroke="none" stroke-width="0" stroke-linecap="butt"/><path d="M244.80337,242.44548c-1.17679,0 -1.17677,-1.17676 -1.17677,-1.17676v-0.24213c0.00136,-2.6096 -0.23369,-3.43762 -3.01956,-3.42306c0,0 -1.17679,0 -1.17679,-1.17679c0,-1.17679 1.17679,-1.17679 1.17679,-1.17679c4.0471,0.01746 5.37123,1.914 5.37315,5.77659v0.24212c0,0 -0.00001,1.17677 -1.17677,1.17677z" fill="#fa6a6a" stroke="none" stroke-width="0.5" stroke-linecap="butt"/><path d="M250.19755,240.32605c0,-4.74204 3.84418,-8.58613 8.58615,-8.58613c4.74205,0 8.58621,3.84416 8.58621,8.58613c0,4.74204 -3.84416,8.58623 -8.58621,8.58623c-4.74204,0 -8.58615,-3.84421 -8.58615,-8.58623z" fill="#bd2222" stroke="none" stroke-width="0" stroke-linecap="butt"/><path d="M253.79944,240.24383c0,-2.77513 2.24969,-5.02479 5.02481,-5.02479c2.77513,0 5.0248,2.24967 5.0248,5.02479c0,2.77513 -2.24967,5.02484 -5.0248,5.02484c-2.77513,0 -5.02481,-2.24972 -5.02481,-5.02484z" fill="#fa5050" stroke="none" stroke-width="0" stroke-linecap="butt"/><path d="M262.63767,242.54968c-1.17679,0 -1.17682,-1.17679 -1.17682,-1.17679v-0.2421c0.00136,-2.6096 -0.23366,-3.4376 -3.01953,-3.42303c0,0 -1.17682,-0.00002 -1.17682,-1.17679c0,-1.17679 1.17682,-1.17682 1.17682,-1.17682c4.0471,0.01746 5.37122,1.914 5.37314,5.77659v0.2421c0,0 0,1.17679 -1.17679,1.17679z" fill="#fa6a6a" stroke="none" stroke-width="0.5" stroke-linecap="butt"/><path d="M272.3221,245.49117l-26.62079,-36.84133" fill="#b22020" stroke="#bd2222" stroke-width="2.5" stroke-linecap="round"/><path d="M211.88613,245.42734l26.62079,-36.8413" data-paper-data="{&quot;index&quot;:null}" fill="#b22020" stroke="#bd2222" stroke-width="2.5" stroke-linecap="round"/></g><path d="M237.31583,208.48777l-26.39378,38.34043" fill="none" stroke="#7e1717" stroke-width="5" stroke-linecap="round"/><path d="M245.65071,208.20993l26.39378,36.1178" fill="none" stroke="#7e1717" stroke-width="5" stroke-linecap="round"/><path d="M247.91419,207.38835c0,2.5 -2.5,2.5 -2.5,2.5c-1.80254,0 -6.3961,0 -8.19863,0c0,0 -2.5,0 -2.5,-2.5c0,-2.5 2.5,-2.5 2.5,-2.5c1.80254,0 3.60507,0 5.40761,0h2.79102c0,0 2.5,0 2.5,2.5z" fill="#7e1717" stroke="none" stroke-width="0.5" stroke-linecap="butt"/></g><g data-paper-data="{&quot;index&quot;:null}"><g><path d="M272.60874,223.58147c-1.82717,0.6159 -2.99784,-1.14222 -2.99784,-1.14222l-0.06999,-0.41192c-4.72571,-3.58291 -7.61532,-8.90149 -10.51614,-14.09148c-1.06239,-1.90073 -3.80018,-6.03468 -2.37408,-8.25738c0.98753,-1.53909 8.55133,-1.21468 10.51268,-1.30621c9.42951,-0.43996 19.12849,-1.24547 28.54402,-2.23826c5.88054,-1.25508 16.91571,-2.52043 14.11359,7.14127c-1.34127,4.62467 -5.31247,7.457 -7.05916,11.69931c-0.4667,1.13349 -3.09382,8.77612 -3.90113,9.1272c-1.91285,0.83186 -6.8225,-1.62844 -8.93831,-2.12505c-6.03596,-1.41664 -9.32095,-0.26943 -14.77383,1.8391c0,0 -1.41554,0.54704 -2.53977,-0.23432z" fill="#e74a4a" stroke="none" stroke-width="0.5" stroke-linecap="butt"/><path d="M306.70055,203.22641c-0.06626,2.58597 -2.32686,2.47712 -2.32686,2.47712l-2.28696,-0.11238c-2.32541,0.11171 -4.64829,0.18625 -6.96949,0.23679c-0.43313,0.50305 -0.95196,0.70903 -0.95196,0.70903l-1.66354,0.63538c-2.40632,1.39778 -4.6256,3.00644 -6.8302,4.73808l-0.10978,0.48331c0.21382,4.54317 0.33431,9.08503 0.83251,13.60466c0,0 0.28227,2.57188 -1.96161,2.86216c-2.24388,0.29029 -2.52618,-2.28164 -2.52618,-2.28164c-0.49282,-4.50815 -0.63352,-9.03336 -0.84229,-13.56399c-2.59855,-2.58552 -5.3299,-4.60828 -8.25991,-6.73868l-0.60976,-0.08917c0,0 -0.14427,-0.04741 -0.34839,-0.16017c-2.87457,0.04777 -5.75114,0.12685 -8.63136,0.26241c0,0 -2.25828,0.10626 -2.37999,-2.4798c-0.12171,-2.58611 2.13657,-2.69236 2.13657,-2.69236c13.04306,-0.61385 26.01211,-0.10038 39.0599,-0.70257l2.47497,0.11693c0,0 2.26062,0.10887 2.19435,2.69482zM282.72651,207.90946c0.85544,-0.67637 1.71241,-1.33549 2.57909,-1.97351c-1.60949,0.00646 -3.21878,0.01041 -4.82818,0.01624c0.76058,0.62831 1.50976,1.27692 2.24911,1.95727z" fill="#fa6a6a" stroke="none" stroke-width="0.5" stroke-linecap="butt"/><path d="M283.8483,215.55161c5.73811,-0.27006 10.60861,4.16266 10.87867,9.90077c0.27006,5.7381 -4.16261,10.60861 -9.90072,10.87867c-5.73805,0.27006 -10.60861,-4.16262 -10.87867,-9.90072c-0.27006,-5.73808 4.16261,-10.60866 9.90072,-10.87871z" fill="#bd2222" stroke="none" stroke-width="0" stroke-linecap="butt"/><path d="M284.10486,219.95834c3.35807,-0.15804 6.20837,2.43604 6.36641,5.79411c0.15804,3.35807 -2.43603,6.20838 -5.7941,6.36642c-3.35804,0.15804 -6.20838,-2.43604 -6.36642,-5.7941c-0.15804,-3.35807 2.43604,-6.20838 5.79411,-6.36642z" fill="#fa5050" stroke="none" stroke-width="0" stroke-linecap="butt"/><path d="M290.36511,224.38825l0.01379,0.29296c0.21764,4.67408 -1.27656,7.04433 -6.1728,7.29598c0,0 -1.42396,0.067 -1.49098,-1.35696c-0.06702,-1.42396 1.35694,-1.49101 1.35694,-1.49101c3.37189,-0.14099 3.60914,-1.15626 3.45887,-4.31398l-0.01378,-0.29296c0,0 -0.067,-1.42398 1.35697,-1.49099c1.42396,-0.06701 1.49099,1.35696 1.49099,1.35696z" fill="#fa6a6a" stroke="none" stroke-width="0.5" stroke-linecap="butt"/><path d="M257.35443,202.3199c0.51606,0.66508 1.01964,1.346 1.51299,2.04018c-1.45585,-0.2065 -2.91058,-0.22439 -4.15629,0.04841c-1.36247,-1.02521 -2.80075,-1.9951 -4.23835,-2.82494c0.14375,-0.64202 0.24934,-1.28862 0.31602,-1.93123c3.21956,-5.82714 15.13393,-4.21531 20.59025,-4.47211c10.62079,-0.49985 21.25491,-0.71236 31.86047,-1.16698c3.13123,-0.13424 10.13094,-0.00593 12.06356,3.12587c1.02472,1.66058 0.9597,3.14673 0.4446,4.5205c-0.65724,-0.23944 -1.37185,-0.35518 -2.11428,-0.32024c-1.28809,0.06062 -2.45031,0.56492 -3.34585,1.35823c-0.61957,0.12074 -1.24599,0.2928 -1.87477,0.51087c0.13974,-0.22593 0.28489,-0.45056 0.4366,-0.6736c0.56917,-0.83691 2.62001,-1.90363 1.7721,-2.46747c-2.34825,-1.56152 -7.61368,-0.48665 -10.28186,-0.47886c-9.57565,0.0279 -19.13247,0.57002 -28.70501,1.02054c-4.37698,0.206 -8.89835,0.10088 -13.24928,0.60731c-0.46977,0.05466 -1.14325,0.21737 -1.77774,0.44716c0.47197,0.30769 0.74687,0.65635 0.74687,0.65635z" fill="#7e1717" stroke="none" stroke-width="0.5" stroke-linecap="butt"/><path d="M288.58123,239.91417c-3.2731,0.75109 -6.27668,0.35607 -9.05608,-0.85038c-0.10638,-0.11034 -0.21728,-0.21614 -0.33252,-0.31709c-0.04264,-0.63334 -0.19266,-1.23487 -0.43138,-1.78757c0.67399,-0.76236 1.13569,-1.71339 1.29823,-2.75762c4.55969,3.26389 11.08587,-0.30959 14.55507,-4.129c-0.73395,1.78861 -1.323,3.38922 -1.7497,4.55525c-0.67991,1.85806 -3.97859,3.24687 -4.22961,4.9035c-0.01966,0.1297 -0.03764,0.25732 -0.05397,0.38289z" fill="#b22020" stroke="none" stroke-width="0.5" stroke-linecap="butt"/><path d="M264.99126,197.46926c4.7368,-0.22293 8.75738,3.43627 8.98032,8.17307c0.22293,4.73675 -3.43622,8.75737 -8.17302,8.9803c-4.73678,0.22293 -8.75743,-3.43621 -8.98036,-8.17301c-0.22293,-4.73677 3.43626,-8.75743 8.17306,-8.98036z" fill="#bd2222" stroke="none" stroke-width="0" stroke-linecap="butt"/><path d="M265.20298,201.10696c2.77206,-0.13046 5.12505,2.01096 5.25551,4.78302c0.13046,2.77203 -2.01101,5.12502 -4.78307,5.25548c-2.77206,0.13046 -5.12499,-2.01098 -5.25546,-4.78303c-0.13046,-2.77203 2.01096,-5.125 4.78301,-5.25547z" fill="#fa5050" stroke="none" stroke-width="0" stroke-linecap="butt"/><path d="M269.14001,203.6437c1.17549,-0.05533 1.23081,1.12019 1.23081,1.12019l0.01138,0.24178c0.17969,3.85842 -1.05383,5.8151 -5.09564,6.0228c0,0 -1.17547,0.05532 -1.23079,-1.12017c-0.05532,-1.17549 1.12015,-1.23081 1.12015,-1.23081c2.78348,-0.11641 2.97934,-0.95458 2.8553,-3.56123l-0.01138,-0.24185c0,0 -0.05532,-1.17547 1.12017,-1.2308z" fill="#fa6a6a" stroke="none" stroke-width="0.5" stroke-linecap="butt"/><path d="M282.50116,197.07233c4.7368,-0.22293 8.75743,3.43626 8.98037,8.17306c0.22292,4.73673 -3.43626,8.75738 -8.17307,8.98031c-4.73678,0.22293 -8.75743,-3.43621 -8.98036,-8.17301c-0.22293,-4.73677 3.43626,-8.75743 8.17306,-8.98036z" fill="#bd2222" stroke="none" stroke-width="0" stroke-linecap="butt"/><path d="M282.71289,200.7102c2.77208,-0.13046 5.12505,2.01098 5.25551,4.78303c0.13047,2.77205 -2.01101,5.12502 -4.78306,5.25548c-2.77206,0.13046 -5.12499,-2.01098 -5.25546,-4.78303c-0.13047,-2.77205 2.01095,-5.12502 4.78301,-5.25548z" fill="#fa5050" stroke="none" stroke-width="0" stroke-linecap="butt"/><path d="M286.64996,203.24698c1.17546,-0.05532 1.23079,1.12014 1.23079,1.12014l0.01138,0.24186c0.17967,3.85842 -1.05384,5.81509 -5.09564,6.0228c0,0 -1.17548,0.05532 -1.23081,-1.12017c-0.05532,-1.17549 1.12016,-1.23081 1.12016,-1.23081c2.78348,-0.11641 2.97934,-0.95458 2.8553,-3.56123l-0.01139,-0.24185c0,0 -0.05534,-1.17547 1.12015,-1.23079z" fill="#fa6a6a" stroke="none" stroke-width="0.5" stroke-linecap="butt"/><path d="M300.31078,196.13005c4.7368,-0.22293 8.75743,3.43629 8.98036,8.17309c0.22292,4.73673 -3.43626,8.75736 -8.17307,8.98029c-4.73673,0.22293 -8.75737,-3.43619 -8.9803,-8.17299c-0.22293,-4.73677 3.43621,-8.75746 8.17301,-8.98039z" fill="#bd2222" stroke="none" stroke-width="0" stroke-linecap="butt"/><path d="M300.52258,199.76771c2.77206,-0.13046 5.125,2.01101 5.25547,4.78306c0.13047,2.77205 -2.01096,5.125 -4.78302,5.25546c-2.77206,0.13046 -5.12502,-2.01096 -5.25548,-4.78302c-0.13047,-2.77205 2.01098,-5.12504 4.78303,-5.25551z" fill="#fa5050" stroke="none" stroke-width="0" stroke-linecap="butt"/><path d="M304.4596,202.30447c1.17549,-0.05533 1.23082,1.12017 1.23082,1.12017l0.01138,0.24183c0.17967,3.85842 -1.05384,5.8151 -5.09564,6.02281c0,0 -1.17552,0.05529 -1.23084,-1.1202c-0.05532,-1.17547 1.1202,-1.23081 1.1202,-1.23081c2.78348,-0.11641 2.97931,-0.95456 2.85528,-3.5612l-0.01139,-0.24183c0,0 -0.0553,-1.17549 1.1202,-1.23082z" fill="#fa6a6a" stroke="none" stroke-width="0.5" stroke-linecap="butt"/><path d="M313.99503,198.91092l-24.85939,38.05208" fill="#b22020" stroke="#bd2222" stroke-width="2.5" stroke-linecap="round"/><path d="M253.62889,201.81585l28.32331,35.54909" data-paper-data="{&quot;index&quot;:null}" fill="#b22020" stroke="#bd2222" stroke-width="2.5" stroke-linecap="round"/></g><path d="M280.76706,237.5191l-28.16703,-37.05723" fill="none" stroke="#7e1717" stroke-width="5" stroke-linecap="round"/><path d="M313.77242,200.08611l-24.66665,37.31867" fill="none" stroke="#7e1717" stroke-width="5" stroke-linecap="round"/><path d="M289.02567,240.73382l-2.78794,0.13121c-1.80054,0.08474 -3.60109,0.16948 -5.40163,0.25422c0,0 -2.49724,0.11753 -2.61477,-2.37971c-0.11753,-2.49723 2.37971,-2.61476 2.37971,-2.61476c1.80054,-0.08474 6.38903,-0.30069 8.18957,-0.38543c0,0 2.49723,-0.11752 2.61476,2.37971c0.11753,2.49723 -2.3797,2.61476 -2.3797,2.61476z" fill="#7e1717" stroke="none" stroke-width="0.5" stroke-linecap="butt"/></g><g data-paper-data="{&quot;index&quot;:null}"><g><path d="M186.61427,223.98043c-1.85407,0.52944 -2.94091,-1.28172 -2.94091,-1.28172l-0.05057,-0.41476c-4.55227,-3.80084 -7.18897,-9.24923 -9.84291,-14.5697c-0.97197,-1.94852 -3.51264,-6.20645 -1.98376,-8.35974c1.05871,-1.49103 8.59893,-0.81182 10.56242,-0.81116c9.43977,0.00327 19.16587,-0.34597 28.61763,-0.89558c5.93299,-0.97759 17.0154,-1.72341 13.76273,7.79607c-1.55693,4.55659 -5.65674,7.19934 -7.6007,11.35496c-0.51941,1.11032 -3.50247,8.62117 -4.32538,8.93395c-1.9498,0.74114 -6.73851,-1.94698 -8.82867,-2.54238c-5.96279,-1.69849 -9.29803,-0.70678 -14.84389,1.14339c0,0 -1.43966,0.47998 -2.52596,-0.35331z" fill="#e74a4a" stroke="none" stroke-width="0.5" stroke-linecap="butt"/><path d="M221.62421,205.24853c-0.18761,2.58001 -2.4406,2.36514 -2.4406,2.36514l-2.27916,-0.21964c-2.32809,0.0024 -4.6519,-0.0322 -6.97291,-0.09071c-0.45627,0.48217 -0.9842,0.66355 -0.9842,0.66355l-1.69154,0.55657c-2.46929,1.28326 -4.76165,2.78594 -7.04513,4.41216l-0.13235,0.47761c0.00027,4.5482 -0.09263,9.09071 0.19281,13.62875c0,0 0.1612,2.58229 -2.09383,2.7669c-2.25503,0.18461 -2.41626,-2.39773 -2.41626,-2.39773c-0.28061,-4.52632 -0.20867,-9.05315 -0.20449,-13.58858c-2.47429,-2.70468 -5.10766,-4.85345 -7.93441,-7.11908l-0.60491,-0.1177c0,0 -0.14189,-0.05414 -0.34048,-0.17636c-2.87365,-0.08725 -5.75074,-0.14332 -8.63416,-0.14315c0,0 -2.26078,0.0001 -2.26093,-2.58882c-0.00015,-2.58897 2.26063,-2.58908 2.26063,-2.58908c13.05749,-0.00077 25.98814,1.12107 39.04981,1.13218l2.46676,0.233c0,0 2.25301,0.21489 2.0654,2.79487zM197.45672,208.80078c0.88625,-0.63546 1.77323,-1.25362 2.66891,-1.85025c-1.60802,-0.06911 -3.21572,-0.14073 -4.82362,-0.21047c0.73023,0.66333 1.44813,1.3464 2.15472,2.06071z" fill="#fa6a6a" stroke="none" stroke-width="0.5" stroke-linecap="butt"/><path d="M198.21845,216.48715c5.74445,-0.00034 10.40147,4.65618 10.4018,10.40063c0.00034,5.74445 -4.65613,10.40147 -10.40059,10.4018c-5.7444,0.00034 -10.40147,-4.65613 -10.4018,-10.40059c-0.00034,-5.74443 4.65614,-10.40151 10.40059,-10.40185z" fill="#bd2222" stroke="none" stroke-width="0" stroke-linecap="butt"/><path d="M198.26782,220.90108c3.36178,-0.00019 6.08715,2.72486 6.08734,6.08664c0.00019,3.36178 -2.72485,6.08715 -6.08664,6.08734c-3.36175,0.00019 -6.08715,-2.72485 -6.08734,-6.08664c-0.00019,-3.36178 2.72485,-6.08716 6.08664,-6.08735z" fill="#fa5050" stroke="none" stroke-width="0" stroke-linecap="butt"/><path d="M204.31318,225.62003l0.00001,0.29328c-0.00206,4.67915 -1.6059,6.97662 -6.50856,6.9981c0,0 -1.42554,0.00007 -1.42562,-1.42547c-0.00008,-1.42553 1.42545,-1.42564 1.42545,-1.42564c3.3748,0.01748 3.65945,-0.98552 3.65761,-4.14682l-0.00002,-0.29328c0,0 -0.00006,-1.42556 1.42548,-1.42563c1.42553,-0.00008 1.42564,1.42547 1.42564,1.42547z" fill="#fa6a6a" stroke="none" stroke-width="0.5" stroke-linecap="butt"/><path d="M172.37507,202.02607c0.48426,0.68857 0.95532,1.3924 1.41554,2.10897c-1.44455,-0.27463 -2.89684,-0.36081 -4.15399,-0.1468c-1.31283,-1.08805 -2.70398,-2.12441 -4.10103,-3.02083c0.17373,-0.63456 0.30957,-1.27549 0.40635,-1.91425c3.48961,-5.66954 15.31516,-3.50009 20.77752,-3.50041c10.63254,-0.00062 21.26491,0.28641 31.88011,0.33025c3.13408,0.01293 10.12006,0.46974 11.90349,3.68883c0.94562,1.70686 0.8109,3.18832 0.23186,4.53639c-0.64527,-0.27004 -1.35366,-0.4192 -2.09691,-0.41916c-1.28951,0.00008 -2.47413,0.44924 -3.40593,1.19964c-0.62455,0.09152 -1.25836,0.23398 -1.89669,0.42228c0.15019,-0.21912 0.30573,-0.43669 0.46774,-0.65235c0.60784,-0.80927 2.7065,-1.77852 1.886,-2.38154c-2.27233,-1.67005 -7.58243,-0.8436 -10.24803,-0.96109c-9.56641,-0.42174 -19.13813,-0.32893 -28.72127,-0.32837c-4.38182,0.00026 -8.89327,-0.31704 -13.26318,-0.01545c-0.47182,0.03255 -1.15219,0.16345 -1.79677,0.3632c0.457,0.32951 0.71523,0.6907 0.71523,0.6907z" fill="#7e1717" stroke="none" stroke-width="0.5" stroke-linecap="butt"/><path d="M201.80227,241.04506c-3.30475,0.59658 -6.28647,0.06096 -9.00617,-1.27465c-0.10108,-0.11522 -0.20689,-0.2261 -0.31726,-0.33235c-0.01286,-0.63465 -0.13447,-1.24255 -0.34697,-1.80585c0.70904,-0.72987 1.21489,-1.65817 1.42628,-2.69362c4.40141,3.47439 11.08818,0.21127 14.73288,-3.44104c-0.81713,1.75218 -1.48067,3.32336 -1.96165,4.46807c-0.7664,1.82408 -4.12665,3.05649 -4.45518,4.6995c-0.02573,0.12864 -0.04967,0.25527 -0.07188,0.37993z" fill="#b22020" stroke="none" stroke-width="0.5" stroke-linecap="butt"/><path d="M180.23123,197.53936c4.74204,-0.00028 8.58638,3.84366 8.58666,8.5857c0.00028,4.742 -3.8436,8.58637 -8.58565,8.58665c-4.74202,0.00028 -8.58643,-3.8436 -8.58671,-8.58565c-0.00028,-4.74202 3.84366,-8.58642 8.5857,-8.5867z" fill="#bd2222" stroke="none" stroke-width="0" stroke-linecap="butt"/><path d="M180.27192,201.18298c2.77513,-0.00017 5.02498,2.24938 5.02515,5.02451c0.00016,2.7751 -2.24943,5.02495 -5.02455,5.02511c-2.77513,0.00017 -5.02492,-2.2494 -5.02508,-5.02452c-0.00016,-2.7751 2.24937,-5.02493 5.02449,-5.02509z" fill="#fa5050" stroke="none" stroke-width="0" stroke-linecap="butt"/><path d="M184.08549,203.90179c1.17679,-0.00007 1.17686,1.17675 1.17686,1.17675l0.00001,0.24204c-0.00167,3.86259 -1.3257,5.75921 -5.37279,5.77691c0,0 -1.17678,0.00007 -1.17685,-1.17673c-0.00007,-1.17679 1.1767,-1.17686 1.1767,-1.17686c2.78588,0.01441 3.02087,-0.81363 3.01935,-3.42323l-0.00001,-0.24213c0,0 -0.00007,-1.17677 1.17672,-1.17684z" fill="#fa6a6a" stroke="none" stroke-width="0.5" stroke-linecap="butt"/><path d="M197.74046,197.96501c4.74204,-0.00028 8.58642,3.84365 8.5867,8.5857c0.00027,4.74197 -3.84365,8.58638 -8.5857,8.58666c-4.74202,0.00028 -8.58643,-3.84361 -8.58671,-8.58566c-0.00028,-4.74202 3.84366,-8.58642 8.5857,-8.5867z" fill="#bd2222" stroke="none" stroke-width="0" stroke-linecap="butt"/><path d="M197.78115,201.6088c2.77515,-0.00017 5.02496,2.24939 5.02513,5.02452c0.00017,2.77513 -2.24942,5.02495 -5.02454,5.02511c-2.77513,0.00017 -5.02491,-2.24939 -5.02508,-5.02452c-0.00017,-2.77513 2.24937,-5.02495 5.0245,-5.02511z" fill="#fa5050" stroke="none" stroke-width="0" stroke-linecap="butt"/><path d="M201.59477,204.32764c1.17676,-0.00007 1.17684,1.17669 1.17684,1.17669l0.00001,0.24212c-0.00169,3.86259 -1.3257,5.75921 -5.3728,5.7769c0,0 -1.17679,0.00007 -1.17686,-1.17673c-0.00007,-1.17679 1.17673,-1.17686 1.17673,-1.17686c2.78588,0.01441 3.02088,-0.81364 3.01936,-3.42324l-0.00002,-0.24212c0,0 -0.00009,-1.17677 1.1767,-1.17684z" fill="#fa6a6a" stroke="none" stroke-width="0.5" stroke-linecap="butt"/><path d="M215.57468,197.85997c4.74204,-0.00028 8.58643,3.84368 8.58671,8.58573c0.00027,4.74197 -3.84366,8.58635 -8.5857,8.58664c-4.74197,0.00027 -8.58638,-3.84359 -8.58666,-8.58563c-0.00028,-4.74202 3.8436,-8.58645 8.58565,-8.58673z" fill="#bd2222" stroke="none" stroke-width="0" stroke-linecap="butt"/><path d="M215.61544,201.50357c2.77513,-0.00017 5.02492,2.24943 5.02509,5.02455c0.00017,2.77513 -2.24937,5.02492 -5.0245,5.02508c-2.77513,0.00017 -5.02495,-2.24937 -5.02511,-5.0245c-0.00017,-2.77513 2.24939,-5.02497 5.02452,-5.02514z" fill="#fa5050" stroke="none" stroke-width="0" stroke-linecap="butt"/><path d="M219.42901,204.22238c1.17679,-0.00007 1.17686,1.17672 1.17686,1.17672l0.00001,0.2421c-0.00169,3.86259 -1.32571,5.75921 -5.37281,5.7769c0,0 -1.17681,0.00004 -1.17688,-1.17675c-0.00007,-1.17676 1.17675,-1.17686 1.17675,-1.17686c2.78588,0.01441 3.02085,-0.81361 3.01933,-3.42321l-0.00001,-0.2421c0,0 -0.00005,-1.17679 1.17675,-1.17686z" fill="#fa6a6a" stroke="none" stroke-width="0.5" stroke-linecap="butt"/><path d="M229.11328,201.28028l-26.61864,36.8429" fill="#b22020" stroke="#bd2222" stroke-width="2.5" stroke-linecap="round"/><path d="M168.67731,201.34767l26.62295,36.83973" data-paper-data="{&quot;index&quot;:null}" fill="#b22020" stroke="#bd2222" stroke-width="2.5" stroke-linecap="round"/></g><path d="M167.71314,199.94685l26.39603,38.33889" fill="none" stroke="#7e1717" stroke-width="5" stroke-linecap="round"/><path d="M228.83573,202.44373l-26.39167,36.11935" fill="none" stroke="#7e1717" stroke-width="5" stroke-linecap="round"/><path d="M202.20774,241.88468l-2.79102,0.00017c-1.80254,0.0001 -3.60507,0.00021 -5.4076,0.00032c0,0 -2.5,0.00015 -2.50015,-2.49985c-0.00015,-2.5 2.49985,-2.50015 2.49985,-2.50015c1.80254,-0.0001 6.39609,-0.00037 8.19863,-0.00048c0,0 2.5,-0.00015 2.50015,2.49985c0.00015,2.5 -2.49986,2.50014 -2.49986,2.50014z" fill="#7e1717" stroke="none" stroke-width="0.5" stroke-linecap="butt"/></g><path d="M324.05156,244.49358c0,2.5 -2.5,2.5 -2.5,2.5h-2.17777c-2.46283,0 -5.04417,-0.1377 -7.64595,-0.22268c-0.08589,1.15726 -0.17752,2.31679 -0.26632,3.47983l0.00736,0.53419c0,0 0,2.5 -2.5,2.5c-2.5,0 -2.5,-2.5 -2.5,-2.5l0.00736,-0.91766c0.08141,-1.05011 0.16655,-2.09808 0.24781,-3.14463c-2.9142,0.06856 -5.77459,0.3588 -8.44117,1.14267c0,0 -2.40381,0.6868 -3.09061,-1.71701c-0.6868,-2.40381 1.71701,-3.09061 1.71701,-3.09061c3.24857,-0.90626 6.67433,-1.20703 10.13982,-1.26618c0.16845,-3.50086 0.15865,-6.99804 -0.31631,-10.51807c0,0 -0.33041,-2.47807 2.14766,-2.80848c2.47807,-0.33041 2.80848,2.14766 2.80848,2.14766c0.49626,3.76318 0.51518,7.4891 0.34645,11.22006c2.476,0.06329 4.93875,0.16092 7.3384,0.16092h2.17777c0,0 2.5,0 2.5,2.5z" fill="#fa6a6a" stroke="none" stroke-width="0.5" stroke-linecap="butt"/><g><g><path d="M293.98811,249.87353c0,0 -0.14608,0.20435 -0.40463,0.3908c0.36469,0.11299 0.74963,0.18702 1.01658,0.20542c2.47238,0.17049 5.02483,-0.00918 7.50394,-0.00918c5.42188,0 10.8373,0.05219 16.24969,-0.18673c1.50811,-0.06656 4.51245,0.40084 5.79802,-0.5441c0.4642,-0.34121 -0.7232,-0.88951 -1.06712,-1.34735c-0.09167,-0.12202 -0.17968,-0.2451 -0.26466,-0.36907c0.36116,0.10652 0.71975,0.18709 1.07311,0.23886c0.52721,0.42452 1.19745,0.67861 1.92703,0.67861c0.42052,0 0.8213,-0.08442 1.18636,-0.23722c0.32765,0.76268 0.40391,1.60085 -0.13103,2.56658c-1.00892,1.82133 -4.96137,2.08002 -6.73455,2.08743c-6.00579,0.02515 -12.02128,0.18791 -18.03688,0.18791c-3.09046,0 -9.78094,1.22781 -11.75546,-1.97974c-0.05477,-0.36139 -0.13165,-0.72401 -0.22997,-1.08302c0.79039,-0.50722 1.57743,-1.0936 2.32015,-1.70923c0.71127,0.12104 1.53293,0.07223 2.35021,-0.0832c-0.26035,0.40543 -0.52684,0.80366 -0.8008,1.19325z" fill="#7e1717" stroke="none" stroke-width="0.5" stroke-linecap="butt"/><path d="M291.35057,251.05004l14.93287,-21.69196" fill="none" stroke="#7e1717" stroke-width="5" stroke-linecap="round"/><path d="M310.99909,229.20089l14.93287,20.43446" fill="none" stroke="#7e1717" stroke-width="5" stroke-linecap="round"/><path d="M312.2797,228.73607c0,1.41443 -1.41443,1.41443 -1.41443,1.41443c-1.01983,0 -3.61873,0 -4.63855,0c0,0 -1.41443,0 -1.41443,-1.41443c0,-1.41443 1.41443,-1.41443 1.41443,-1.41443c1.01983,0 2.03965,0 3.05948,0h1.57908c0,0 1.41443,0 1.41443,1.41443z" fill="#7e1717" stroke="none" stroke-width="0.5" stroke-linecap="butt"/></g><path d="M293.35331,253.55746c-0.50077,0 -0.96715,-0.14724 -1.35822,-0.40078c-1.24306,-0.08531 -2.23633,-1.07929 -2.32052,-2.32265c-0.09481,-0.42957 -0.06356,-0.94457 0.19635,-1.55104c0.9848,-2.29787 3.28266,-1.31306 3.28266,-1.31306c3.34846,1.51657 6.80772,0.98238 10.46558,0.98238c6.44907,0 12.89813,0 19.3472,0h3.15873c0,0 2.5,0 2.5,2.5c0,2.5 -2.5,2.5 -2.5,2.5c-6.44907,0 -16.05685,0 -22.50592,0c-3.43755,0 -6.46211,0.19796 -9.57697,-0.49096c-0.21884,0.06259 -0.44995,0.09612 -0.68889,0.09612z" fill="#7e1717" stroke="none" stroke-width="0.5" stroke-linecap="butt"/></g><g><g><path d="M158.44126,249.87186c0,0 -0.14608,0.20436 -0.40463,0.3908c0.3647,0.11299 0.74964,0.18702 1.01658,0.20542c2.47239,0.17049 5.02482,-0.00918 7.50394,-0.00918c5.42188,0 10.83729,0.05219 16.24969,-0.18673c1.50812,-0.06656 4.51245,0.40085 5.79802,-0.54409c0.46419,-0.34121 -0.7232,-0.88952 -1.06713,-1.34735c-0.09167,-0.12202 -0.17968,-0.2451 -0.26466,-0.36907c0.36116,0.10652 0.71976,0.18709 1.07311,0.23885c0.52721,0.42452 1.19745,0.67861 1.92702,0.67861c0.42051,0 0.8213,-0.08441 1.18636,-0.23721c0.32764,0.76268 0.40391,1.60085 -0.13103,2.56657c-1.00892,1.82133 -4.96137,2.08002 -6.73454,2.08743c-6.00579,0.02515 -12.02128,0.18791 -18.03688,0.18791c-3.09045,0 -9.78095,1.22781 -11.75546,-1.97974c-0.05477,-0.36139 -0.13165,-0.72401 -0.22996,-1.08302c0.79038,-0.50722 1.57742,-1.0936 2.32015,-1.70924c0.71126,0.12104 1.53293,0.07224 2.35021,-0.08319c-0.26035,0.40543 -0.52684,0.80365 -0.8008,1.19324z" fill="#7e1717" stroke="none" stroke-width="0.5" stroke-linecap="butt"/><path d="M155.80372,251.04838l14.93287,-21.69196" fill="none" stroke="#7e1717" stroke-width="5" stroke-linecap="round"/><path d="M190.38511,249.63368l-14.93287,-20.43445" fill="none" stroke="#7e1717" stroke-width="5" stroke-linecap="round"/><path d="M176.73285,228.73439c0,1.41443 -1.41443,1.41443 -1.41443,1.41443c-1.01982,0 -3.61874,0 -4.63856,0c0,0 -1.41443,0 -1.41443,-1.41443c0,-1.41443 1.41443,-1.41443 1.41443,-1.41443c1.01982,0 2.03965,0 3.05947,0h1.57909c0,0 1.41443,0 1.41443,1.41443z" fill="#7e1717" stroke="none" stroke-width="0.5" stroke-linecap="butt"/></g><path d="M157.80645,253.55579c-0.50077,0 -0.96715,-0.14724 -1.35822,-0.40078c-1.24305,-0.08531 -2.23632,-1.0793 -2.32052,-2.32266c-0.09482,-0.42957 -0.06357,-0.94457 0.19635,-1.55104c0.9848,-2.29787 3.28266,-1.31307 3.28266,-1.31307c3.34846,1.51657 6.80772,0.98239 10.46559,0.98239c6.44906,0 12.89814,0 19.3472,0h3.15872c0,0 2.5,0 2.5,2.5c0,2.5 -2.5,2.5 -2.5,2.5c-6.44906,0 -16.05686,0 -22.50592,0c-3.43756,0 -6.4621,0.19796 -9.57697,-0.49096c-0.21884,0.06259 -0.44995,0.09612 -0.6889,0.09612z" fill="#7e1717" stroke="none" stroke-width="0.5" stroke-linecap="butt"/></g><g stroke="none" stroke-linecap="butt"><path d="M167.62317,242.11405c0,-3.10734 2.51899,-5.6263 5.62631,-5.6263c3.10734,0 5.62631,2.51896 5.62631,5.6263c0,3.10734 -2.51897,5.62634 -5.62631,5.62634c-3.10734,0 -5.62631,-2.51901 -5.62631,-5.62634z" fill="#bd2222" stroke-width="0"/><path d="M169.98341,242.06013c0,-1.81849 1.47415,-3.29263 3.29262,-3.29263c1.81849,0 3.29263,1.47414 3.29263,3.29263c0,1.81849 -1.47414,3.29263 -3.29263,3.29263c-1.81849,0 -3.29262,-1.47414 -3.29262,-3.29263z" fill="#fa5050" stroke-width="0"/><path d="M175.77487,243.57107c-0.77112,0 -0.77113,-0.77113 -0.77113,-0.77113v-0.15864c0.0009,-1.71004 -0.15311,-2.25259 -1.97864,-2.24302c0,0 -0.77112,-0.00001 -0.77112,-0.77112c0,-0.77112 0.77112,-0.77113 0.77112,-0.77113c2.65199,0.01146 3.51963,1.25419 3.52089,3.78527v0.15864c0,0 -0.00001,0.77113 -0.77113,0.77113z" fill="#fa6a6a" stroke-width="0.5"/></g><g stroke="none" stroke-linecap="butt"><path d="M303.24983,242.70099c0,-3.10734 2.51899,-5.62631 5.62631,-5.62631c3.10734,0 5.62631,2.51897 5.62631,5.62631c0,3.10734 -2.51897,5.62634 -5.62631,5.62634c-3.10734,0 -5.62631,-2.51901 -5.62631,-5.62634z" fill="#bd2222" stroke-width="0"/><path d="M305.61007,242.64707c0,-1.81849 1.47415,-3.29263 3.29262,-3.29263c1.81849,0 3.29263,1.47414 3.29263,3.29263c0,1.81849 -1.47415,3.29263 -3.29263,3.29263c-1.81849,0 -3.29262,-1.47414 -3.29262,-3.29263z" fill="#fa5050" stroke-width="0"/><path d="M311.40153,244.15801c-0.77112,0 -0.77113,-0.77113 -0.77113,-0.77113v-0.15864c0.0009,-1.71004 -0.15311,-2.25259 -1.97864,-2.24302c0,0 -0.77112,-0.00001 -0.77112,-0.77113c0,-0.77112 0.77112,-0.77112 0.77112,-0.77112c2.65199,0.01146 3.51963,1.25419 3.52089,3.78527v0.15864c0,0 -0.00001,0.77113 -0.77112,0.77113z" fill="#fa6a6a" stroke-width="0.5"/></g><path d="M227.38216,199.45152h27.24401" fill="none" stroke="#621212" stroke-width="5" stroke-linecap="round"/><path d="M194.77333,156.23536v-16.03724h11.1226v16.03724z" fill="#bd2222" stroke="none" stroke-width="0" stroke-linecap="butt"/><path d="M199.99689,155.71936v-15.16119h5.58571v15.16119z" fill="#9e1c1c" stroke="none" stroke-width="0" stroke-linecap="butt"/><path d="M194.93144,142.46481v-2.35317h10.88342v2.35317z" fill="#8c1919" stroke="none" stroke-width="0" stroke-linecap="butt"/><path d="M216.29143,163.92649c-2.23607,1.11803 -3.3541,-1.11804 -3.3541,-1.11804l0.46158,-0.39953c-1.71745,-0.74991 -3.16708,-2.02372 -4.86284,-2.82146c-8.449,-3.97469 -19.42293,-0.14837 -22.14653,9.09035c-0.42767,1.45072 -0.30569,4.22513 -0.3034,5.64751c0,0 0,2.5 -2.5,2.5c-2.5,0 -2.5,-2.5 -2.5,-2.5c0.00317,-2.17558 -0.13486,-4.87192 0.48628,-6.98738c2.75687,-9.3893 12.064,-15.24458 21.63371,-14.0552c0.7209,0.0896 6.82589,1.49525 7.54906,1.82415c1.62288,0.7381 2.96873,2.01798 4.61334,2.70631l2.04095,2.7592c0,0 1.11804,2.23607 -1.11803,3.3541z" fill="#bd2222" stroke="none" stroke-width="0.5" stroke-linecap="butt"/><g fill="#cfcfcf" stroke="none" stroke-width="0.5" stroke-linecap="butt"><path d="M249.44871,177.89782c4.13836,-2.26396 1.23239,-5.8578 -1.04484,-8.70876c-4.49144,-2.40989 -12.34172,-2.7334 -16.92783,0.34418c-2.24611,1.50729 -3.25923,7.71871 -2.13743,10.03981c0.81578,1.68799 3.18724,2.19136 4.73937,2.77105c0,0 1.25861,0.47197 1.31664,1.6748c0.22657,0.4812 0.22657,0.94835 0.22657,0.94835c0,0.51704 -0.36579,5.74152 0.12901,5.83732c0.5707,0.1105 1.43964,0.4678 1.74364,-0.02767c0.40887,-0.6664 -0.16531,-1.91344 0.52167,-2.28678c1.12228,-0.60987 2.56937,-0.27776 3.83105,-0.07861c0.87151,0.13756 1.75008,2.06293 2.27471,1.35353c0.51712,-0.69923 0.27552,-2.13146 1.11496,-2.35881c1.25186,-0.33902 4.02108,2.30185 3.75117,1.03329c-0.57077,-2.68289 -1.79261,-4.83049 -1.81201,-7.79927v-0.25453c0,0 0,-1.67543 1.53886,-1.94859zM225.71435,181.19848c-2.05899,-4.05357 -0.19044,-12.33498 3.4622,-14.90398c6.06375,-4.26487 15.8709,-3.51699 21.76057,-0.16489c4.17721,4.86909 7.3827,11.15289 0.48234,15.21695l-0.19228,0.14877c0.39826,2.35868 2.13373,6.067 1.67173,7.63558c-0.88294,2.99759 -3.37391,4.18228 -6.17526,3.30971c0.03414,0.19564 0.00918,0.35922 -0.15786,0.45532c-1.07858,0.62044 -2.47879,0.51126 -3.71475,0.36749c-0.96118,-0.11179 -2.21533,-2.58836 -2.39685,-1.63788c-0.77245,4.04444 -6.81591,4.27718 -8.68635,0.12653c-0.59332,-1.31667 -0.23658,-4.24314 -0.14039,-6.08494c-2.41053,-0.91368 -4.60676,-1.897 -5.91303,-4.46868zM246.47971,191.62046c0.00634,-0.35367 0.05068,-0.64408 -0.01083,-0.4382c-0.03921,0.13127 -0.02564,0.28159 0.01083,0.4382z"/><path d="M238.6001,178.1951c0.17087,0.43072 0.19314,0.98506 -0.18621,1.6489c-0.98534,1.72434 -2.70971,0.739 -2.70971,0.739c-0.27147,-0.15554 -0.6815,-0.38062 -1.14382,-0.6455c-0.08283,-0.03921 -0.15977,-0.08417 -0.23122,-0.13338c-1.22787,-0.71321 -2.70806,-1.65783 -2.96892,-2.32749c-1.06919,-2.7443 -0.08474,-6.13345 3.49251,-6.20293c3.89289,-0.07558 5.41503,4.53793 3.74739,6.92136z"/><path d="M245.0943,170.05478c3.57727,0.06946 4.56169,3.45859 3.49252,6.20293c-0.26092,0.66962 -1.74107,1.61426 -2.96894,2.32749c-0.07143,0.04922 -0.14839,0.09417 -0.2312,0.13335c-0.4623,0.2649 -0.87236,0.48994 -1.14382,0.6455c0,0 -1.72437,0.98536 -2.70971,-0.739c-0.37935,-0.66384 -0.35708,-1.21813 -0.18621,-1.6489c-1.6677,-2.38343 -0.14551,-6.99694 3.74736,-6.92136z" data-paper-data="{&quot;index&quot;:null}"/></g><path d="M297.44548,168.48969c0,2.5 -2.5,2.5 -2.5,2.5c-5.03295,0 -13.21331,1.47255 -17.67389,-1.1872c-1.31966,-0.78688 -3.92738,-3.89674 -4.76357,-5.32586c-0.90103,-1.53992 -2.69045,-5.81154 -1.68655,-7.49837c1.46919,-2.46864 5.20867,-2.0952 7.45425,-2.10174c4.46022,-0.013 11.92585,1.3852 14.73541,5.3874c0.56577,0.80595 0.8608,1.75694 1.14913,2.71154c0.69646,0.15478 1.2324,0.27433 1.32754,0.29547l1.13137,0.48223c0,0 2.23607,1.11803 1.11803,3.3541c-0.11791,0.23584 -0.24827,0.43436 -0.38712,0.60082c0.0609,0.22874 0.09539,0.48792 0.09539,0.78161z" data-paper-data="{&quot;index&quot;:null}" fill="#c53f3f" stroke="none" stroke-width="0.5" stroke-linecap="butt"/><path d="M276.75905,166.03713c5.34575,0 13.01948,0 18.36523,0c0,0 2.5,0 2.5,2.5c0,2.5 -2.5,2.5 -2.5,2.5c-5.34575,0 -13.01948,0 -18.36523,0c0,0 -0.05287,0 -0.14324,-0.00769c-0.52697,-1.45098 -1.22606,-2.67838 -2.0731,-3.75824c0.65485,-1.23407 2.21634,-1.23407 2.21634,-1.23407z" data-paper-data="{&quot;index&quot;:null}" fill="#b23939" stroke="none" stroke-width="0.5" stroke-linecap="butt"/><path d="M275.53812,154.61575v-16.03724h11.12261v16.03724z" data-paper-data="{&quot;index&quot;:null}" fill="#bd2222" stroke="none" stroke-width="0" stroke-linecap="butt"/><path d="M275.85146,154.09976v-15.16118h5.5857v15.16118z" data-paper-data="{&quot;index&quot;:null}" fill="#9e1c1c" stroke="none" stroke-width="0" stroke-linecap="butt"/><path d="M275.61919,140.84521v-2.35317h10.88342v2.35317z" data-paper-data="{&quot;index&quot;:null}" fill="#8c1919" stroke="none" stroke-width="0" stroke-linecap="butt"/><path d="M264.02459,158.95279l2.04095,-2.75919c1.64461,-0.68833 2.99045,-1.96821 4.61334,-2.70631c0.72317,-0.3289 6.82815,-1.73455 7.54906,-1.82415c9.56972,-1.18938 18.87685,4.6659 21.63371,14.0552c0.62113,2.11546 0.4831,4.81181 0.48627,6.98738c0,0 0,2.5 -2.5,2.5c-2.5,0 -2.5,-2.5 -2.5,-2.5c0.00229,-1.42238 0.12427,-4.1968 -0.3034,-5.64751c-2.7236,-9.23872 -13.69753,-13.06504 -22.14653,-9.09035c-1.69576,0.79774 -3.1454,2.07155 -4.86284,2.82146l0.46159,0.39954c0,0 -1.11803,2.23607 -3.3541,1.11803c-2.23607,-1.11803 -1.11804,-3.3541 -1.11804,-3.3541z" data-paper-data="{&quot;index&quot;:null}" fill="#bd2222" stroke="none" stroke-width="0.5" stroke-linecap="butt"/><path d="M231.80732,115.62514v-7.25469h17.09157v7.25469z" fill="#a91e1e" stroke="none" stroke-width="0" stroke-linecap="butt"/><path d="M231.74197,108.81235v-2.79102h17.26945v2.79102z" fill="#831818" stroke="none" stroke-width="0" stroke-linecap="butt"/><g data-paper-data="{&quot;index&quot;:null}" fill="#ff3b3b" stroke="#000000" stroke-width="0" stroke-linecap="butt"><path d="M297.59121,156.87877c0.12588,0.17604 0.26227,0.36567 0.40428,0.56583c0.11799,-0.11166 0.3268,-0.11458 0.56751,0.01281c0.57022,0.30179 1.30687,1.89018 1.60253,2.4919c0.33226,0.67621 0.90212,1.47173 1.00816,2.18913c0.0493,0.33346 -0.26419,1.03165 -0.29692,1.21505c-0.22036,1.23526 -0.44886,2.48774 -0.95945,3.43138c-0.0191,0.08124 -0.05569,0.14761 -0.11043,0.19185c-0.01332,0.01078 -0.02741,0.01997 -0.04214,0.02761c-0.18549,0.2418 -0.39554,0.12777 -0.57223,-0.11812c-0.26441,-0.154 -0.66954,-1.19495 -0.75148,-1.42746c-0.19104,-0.54197 -0.57817,-0.93915 -0.89182,-1.42799c-1.69912,-2.6481 -2.32991,-3.43062 -4.84487,-7.44888c-0.44891,-0.71725 -1.40627,-2.72865 -0.19682,-2.19024c0.15823,0.07045 0.29926,0.27103 0.42774,0.51609c0.04121,-0.13243 0.11953,-0.24274 0.24159,-0.32609c0.26354,-0.17991 0.66556,-0.03458 0.98896,-0.04067c1.4042,-0.02638 2.25002,0.69407 3.42542,2.33784z"/><path d="M291.91712,153.97069c0.95198,-0.23844 2.06807,-0.0728 3.16718,0.09598c0.1632,0.02506 0.84644,-0.08235 1.10744,0.07997c0.56154,0.34923 1.03584,1.22198 1.48891,1.80054c0.40316,0.51484 1.48179,1.82681 1.54557,2.53794c0.06139,0.68473 -0.38642,0.96887 -0.9007,0.18563c-0.64275,-0.97889 -0.93043,-1.43811 -1.42953,-2.1886c-0.02964,-0.04457 -0.45249,-0.77171 -0.58727,-0.83017c-1.38263,-0.59967 -2.59173,0.02435 -3.83992,-0.12849c-0.16183,-0.01981 -0.45483,-0.24813 -0.67897,-0.52249c-0.2863,-0.35047 -0.46029,-0.7761 -0.10519,-0.93853c0.01118,-0.01331 0.02344,-0.0254 0.03679,-0.03619c0.05474,-0.04424 0.12191,-0.06173 0.19571,-0.05559z" data-paper-data="{&quot;index&quot;:null}"/></g><g data-paper-data="{&quot;index&quot;:null}" fill="#ff6e3b" stroke="#000000" stroke-width="0" stroke-linecap="butt"><path d="M183.37807,158.64561c1.17539,-1.64377 2.02122,-2.36422 3.42543,-2.33784c0.32341,0.00609 0.72542,-0.13924 0.98897,0.04067c0.12206,0.08335 0.20039,0.19367 0.24159,0.32609c0.12848,-0.24506 0.2695,-0.44564 0.42773,-0.51609c1.20944,-0.53841 0.2521,1.47298 -0.19682,2.19024c-2.51497,4.01826 -3.14576,4.80077 -4.84488,7.44888c-0.31364,0.48883 -0.70077,0.88602 -0.89182,1.42799c-0.08195,0.23251 -0.48708,1.27347 -0.75149,1.42746c-0.17668,0.24589 -0.38672,0.35992 -0.57223,0.11812c-0.01474,-0.00764 -0.02882,-0.01683 -0.04214,-0.02761c-0.05474,-0.04424 -0.09133,-0.11061 -0.11043,-0.19185c-0.5106,-0.94364 -0.73909,-2.19611 -0.95945,-3.43138c-0.03272,-0.1834 -0.34621,-0.88159 -0.29691,-1.21505c0.10604,-0.7174 0.6759,-1.51291 1.00816,-2.18912c0.29564,-0.60172 1.03231,-2.19011 1.60253,-2.49191c0.24071,-0.12739 0.44951,-0.12447 0.56751,-0.01281c0.14201,-0.20016 0.2784,-0.38978 0.40428,-0.56582z"/><path d="M189.05216,155.73747c0.0738,-0.00614 0.14098,0.01135 0.19572,0.05559c0.01335,0.01078 0.0256,0.02288 0.03679,0.03619c0.3551,0.16243 0.18111,0.58806 -0.10519,0.93853c-0.22414,0.27436 -0.51715,0.50267 -0.67898,0.52249c-1.24819,0.15284 -2.45728,-0.47118 -3.83991,0.12849c-0.13478,0.05846 -0.55763,0.7856 -0.58727,0.83017c-0.4991,0.7505 -0.78678,1.20972 -1.42953,2.18861c-0.51428,0.78324 -0.96209,0.4991 -0.9007,-0.18563c0.06378,-0.71113 1.14242,-2.0231 1.54558,-2.53794c0.45308,-0.57855 0.92736,-1.45131 1.48891,-1.80054c0.26101,-0.16232 0.94426,-0.05491 1.10745,-0.07997c1.09911,-0.16878 2.21519,-0.33441 3.16718,-0.09598z" data-paper-data="{&quot;index&quot;:null}"/></g><path d="M172.33267,192.20856c0.17791,4.79323 -0.13888,4.8508 -0.13888,4.8508l-0.40556,0.07366c-1.87468,0.29951 -3.78037,0.00047 -5.65784,0.3416c0,0 -0.31681,0.05755 -0.49471,-4.73568c-0.17791,-4.79323 0.1389,-4.8508 0.1389,-4.8508c1.87702,-0.34102 3.78696,0.04358 5.65784,-0.34162l0.40554,-0.07366c0,0 0.31679,-0.05753 0.4947,4.7357z" fill="#fc9b2d" stroke="none" stroke-width="0.5" stroke-linecap="butt"/><path d="M315.80733,191.40276c0.05299,4.8091 -0.23955,4.82773 -0.23955,4.82773l-0.3745,0.02383c-1.73022,0.06922 -3.47512,-0.46315 -5.20886,-0.35278c0,0 -0.29256,0.01866 -0.34557,-4.79044c-0.05299,-4.8091 0.23955,-4.82775 0.23955,-4.82775c1.73334,-0.11037 3.48018,0.50802 5.20888,0.35278l0.3745,-0.02385c0,0 0.29255,-0.01866 0.34554,4.79046z" fill="#fcbb71" stroke="none" stroke-width="0.5" stroke-linecap="butt"/><path d="M223.62823,99.34111v-152.4342h34.53453v152.4342z" fill="#625eff" stroke="none" stroke-width="0" stroke-linecap="butt"/><path d="M236.13574,99.40127v-152.4342h10.51051v152.4342z" fill="#9492ff" stroke="none" stroke-width="0" stroke-linecap="butt"/><path d="M268.48665,132.92607v-152.4342h28.52852v152.4342z" fill="#5e9aff" stroke="none" stroke-width="0" stroke-linecap="butt"/><path d="M278.81894,132.98625v-152.4342h8.68259v152.4342z" fill="#615eff" stroke="none" stroke-width="0" stroke-linecap="butt"/><path d="M184.89806,132.65731v-152.4342h28.52853v152.4342z" fill="#5e9aff" stroke="none" stroke-width="0" stroke-linecap="butt"/><path d="M195.23035,132.71748v-152.4342h8.68259v152.4342z" fill="#615eff" stroke="none" stroke-width="0" stroke-linecap="butt"/></g></g></svg>