<svg version="1.1" xmlns="http://www.w3.org/2000/svg" xmlns:xlink="http://www.w3.org/1999/xlink" width="46.90322" height="46.90322" viewBox="0,0,46.90322,46.90322"><g transform="translate(-216.54839,-156.54839)"><g data-paper-data="{&quot;isPaintingLayer&quot;:true}" fill="none" fill-rule="nonzero" stroke="#ffffff" stroke-width="1" stroke-linejoin="miter" stroke-miterlimit="10" stroke-dasharray="" stroke-dashoffset="0" style="mix-blend-mode: normal"><path d="M240,202.95161c-12.67582,0 -22.95161,-10.27578 -22.95161,-22.95161c0,-12.67582 10.27578,-22.95161 22.95161,-22.95161c12.67582,0 22.95161,10.27578 22.95161,22.95161c0,12.67582 -10.27578,22.95161 -22.95161,22.95161z" data-paper-data="{&quot;index&quot;:null}" stroke-linecap="butt"/><path d="M236.88176,171.98091l-2.20217,-4.37473l-5.44514,11.35755l10.73998,8.49764l-0.72475,-7.66423c0,0 1.33077,1.03322 2.03669,1.8383c0.70592,0.80508 1.09179,1.23255 1.49221,2.18631c0.40043,0.95376 0.47612,2.50195 0.47612,2.50195c0,0 -0.4498,2.21234 -1.24252,3.3671c-0.79272,1.15475 -1.93123,2.02719 -3.27681,3.21614c-1.34558,1.18895 -2.77458,1.37291 -1.87382,1.33492c0.90076,-0.038 4.92286,-0.43911 7.81835,-1.58566c2.89549,-1.14656 3.70652,-2.55315 3.70652,-2.55315c0,0 1.53634,-2.03722 2.03234,-3.25111c0.49601,-1.21389 0.29667,-2.25148 0.39448,-3.74557c0.09781,-1.49409 -0.74227,-3.68416 -1.21472,-4.93793c-0.47245,-1.25377 -0.61741,-1.22172 -1.70057,-2.7986c-1.08316,-1.57689 -2.11248,-1.81565 -3.18109,-2.38534c-1.06861,-0.56969 -2.11709,-1.06371 -3.77931,-1.37869c-1.66223,-0.31498 -4.05579,0.37512 -4.05579,0.37512z" stroke-linecap="round"/></g></g></svg>