<svg version="1.1" xmlns="http://www.w3.org/2000/svg" xmlns:xlink="http://www.w3.org/1999/xlink" width="139.00241" height="221.6819" viewBox="0,0,139.00241,221.6819"><g transform="translate(-172.72157,-69.15904)"><g data-paper-data="{&quot;isPaintingLayer&quot;:true}" fill-rule="nonzero" stroke="none" stroke-width="0.5" stroke-linecap="butt" stroke-linejoin="miter" stroke-miterlimit="10" stroke-dasharray="" stroke-dashoffset="0" style="mix-blend-mode: normal"><path d="M263.64248,243.77094c-2.66755,0 -6.83561,0 -9.50316,0c-3.47524,-0.02949 -6.09791,-1.41621 -9.40346,-2.03295c-2.61631,-0.48814 -5.89468,0.83916 -8.42973,-0.10865c-2.69627,-1.00809 -5.12309,-3.7787 -7.48915,-5.23411c-4.02025,-2.47296 -9.29266,-2.08534 -13.17955,-5.12049c-6.12074,-4.77949 -7.83019,-12.36483 -12.22875,-18.35337c-1.5026,-4.41833 -5.01782,-8.13161 -6.22067,-12.58989c-1.09184,-4.04683 -0.06687,-9.8737 -0.06687,-14.07888c0,-5.33511 0,-10.67022 0,-16.00534c0,-2.665 -0.42984,-5.7842 0.03228,-8.40312c0.17316,-0.98138 0.89865,-1.8317 0.97816,-2.82506c0.18076,-2.25844 -0.50639,-4.51215 -0.51027,-6.77782c0,-13.50448 -0.01343,-27.00904 0,-40.51351c0.00682,-6.85956 -0.94507,-13.48568 0.02513,-20.36022c0,0 0.35355,-2.47487 2.82843,-2.12132c2.47487,0.35356 2.12132,2.82843 2.12132,2.82843c-0.95873,6.62248 0.01889,13.03745 0.02513,19.65311c0.01272,13.50447 0,27.00903 0,40.51351c-0.00457,2.41448 0.66901,4.81901 0.49007,7.22684c-0.08245,1.10942 -0.81735,2.08355 -1.02251,3.17695c-0.4379,2.3337 0.03229,5.21817 0.03229,7.60221c0,5.33511 0,10.67022 0,16.00534c0,2.66755 0,5.33512 0,8.00267c0,1.64264 -0.50581,3.34454 -0.06688,4.92745c1.11316,4.01446 4.46004,7.35799 5.78333,11.41812c4.04074,5.25324 5.32889,12.44179 10.77893,16.6583c3.67867,2.84607 8.84848,2.54204 12.82912,4.88284c2.15564,1.26761 4.17831,3.73225 6.51553,4.76923c1.80082,0.79899 5.5383,-0.47167 7.5756,-0.10865c3.08823,0.55029 5.39714,2.00435 8.60255,1.96839c2.66755,0 5.33511,0 8.00266,0h1.5005c0,0 1.49967,0 2.17599,1.16152c-0.48328,0.62137 -0.88252,1.24913 -1.08301,1.90312c-0.19069,0.62203 -0.38522,1.2468 -0.58201,1.87393c-0.29971,0.06142 -0.51099,0.06142 -0.51099,0.06142z" fill="#acacac"/><path d="M263.25607,243.35107c-2.08013,-1.38675 -0.69337,-3.46688 -0.69337,-3.46688l0.61447,-0.52474c1.55523,-8.32317 9.03519,-13.73258 13.2788,-20.79869c1.2523,-2.50461 3.2475,-4.86298 4.41075,-7.3199c0.81462,-1.72056 0.28243,-4.67074 0.28243,-6.48208c0,-4.56481 -0.30258,-9.4283 0.53245,-13.90495c0.69631,-3.73296 2.74109,-7.51666 4.14786,-11.03152c2.35012,-5.87186 4.18769,-11.36536 8.16385,-16.33556c0.54897,-1.41657 1.49183,-3.67771 1.68484,-5.09005c0.31599,-2.31224 0.20362,-4.81818 1.29676,-6.88006c0.3048,-0.57493 2.10249,-2.07133 1.75124,-3.1846c-0.18593,-0.58933 -0.94322,-0.83229 -1.25108,-1.36811c-0.88814,-1.54578 -1.0552,-3.44441 -1.98127,-4.96777c-1.54114,-2.53513 -3.81839,-5.04095 -5.1077,-7.70526c-0.15341,-0.31703 -1.06263,-4.94442 -1.18574,-5.56733c-1.18853,-6.01377 -1.12098,-13.52976 0.16919,-19.51671c1.08758,-1.48323 2.6655,-2.55313 3.79914,-4.00146c0.54742,-0.69938 0.65873,-1.63481 0.83134,-2.53793c-0.68757,0.24933 -1.42392,0.42943 -1.94776,0.52436c-0.23955,0.04341 -5.72177,0.03228 -5.90229,0.03228c-11.50383,0 -23.00767,0 -34.5115,0c-10.68191,0 -21.90473,0.92059 -32.41113,-1.03262c-7.37998,-1.37198 -13.55181,-5.02263 -19.89212,-8.82682c0,0 -2.14374,-1.28624 -0.8575,-3.42997c1.28624,-2.14373 3.42997,-0.8575 3.42997,-0.8575c5.78355,3.47013 11.36066,6.98486 18.12056,8.17885c10.27643,1.8151 21.16783,0.96805 31.61021,0.96805c11.50383,0 23.00767,0 34.51151,0c3.08841,0 4.71413,-0.20495 7.64294,-0.8478c1.56829,-0.34422 3.46479,-1.66881 4.7623,-0.72304c0.52105,0.37981 0.80154,0.94487 0.94849,1.59258c-5.37137,5.38844 -9.83014,19.76973 -6.82634,26.41465c0.14891,0.82906 0.4,1.62264 0.73977,2.36726c0.07911,0.52235 0.17974,1.03212 0.30357,1.52745c1.54527,6.18107 3.9834,10.65235 7.70352,15.07744c0.12165,0.301 0.2557,0.59609 0.40967,0.88165c0.2851,0.52874 0.76119,0.97189 1.14787,1.44808c0.0285,0.12366 0.05055,0.24997 0.0669,0.37856c-0.14115,0.11838 -0.28329,0.23895 -0.42645,0.36165l-0.0219,0.39426c-0.74079,0.42331 -1.32069,3.68492 -1.43035,4.15115c-0.52385,2.22706 -2.20577,5.30485 -3.6664,7.12961c-9.70902,12.12948 -14.37263,34.19482 -12.86245,50.5617c-0.55158,0.79193 -0.99153,1.66742 -1.29706,2.60367c-1.95461,1.34193 -2.64082,4.39834 -4.11663,6.17576c-0.72897,0.87795 -1.89611,1.27928 -2.76252,2.02192c-1.52336,1.30573 -1.93219,4.71864 -2.70371,6.676c-0.4576,1.16092 -2.64727,2.33322 -3.29739,3.41674c-1.00231,1.67051 -0.74824,3.4608 -1.25,5.29396c-0.67746,2.47506 -3.78081,4.43295 -4.47831,6.70823c-0.19566,0.63825 -0.39536,1.27938 -0.59741,1.92298c-0.27705,-0.071 -0.57181,-0.2007 -0.882,-0.40749z" fill="#acacac"/><path d="M200.48464,287.51635c-0.47737,-0.80521 -1.34535,-1.36447 -1.71281,-2.2254c-2.84578,-6.66743 -0.52488,-14.46736 -2.06893,-21.41557c-0.07106,-9.19613 -0.89411,-18.45167 -0.41705,-27.67126c0.40354,-7.79872 0.38718,-15.58714 0.38718,-23.41394c0,-3.98272 0.23953,-7.98442 -0.34458,-11.9278c0,0 -0.2804,-1.96279 0.74795,-3.59294c-0.04318,-1.72191 0.04639,-3.44836 0.04639,-5.01484c0,-7.5025 0,-15.00501 0,-22.50751c0,-15.17173 0,-30.34345 0,-45.51517c0,-5.45362 -1.10687,-13.59537 2.61783,-18.15171c-0.39029,-0.43771 -0.76341,-0.8898 -1.11783,-1.35629c0,0 -4.5,-6 1.5,-10.5c6,-4.5 10.5,1.5 10.5,1.5c0.47764,0.64974 0.5464,1.76272 1.30462,2.0373c2.40418,0.87064 4.89162,1.52154 7.33664,2.27596c7.23696,2.23298 15.71224,-0.3349 23.28921,0.82474c0.8875,0.13583 1.61903,0.83146 2.50083,1.00033c3.46049,0.66273 7.52136,0.36484 11.08586,0.36484c4.44315,0.02121 8.11263,-1.41462 12.50417,-1.5005c5.38839,-0.10537 11.33466,0.70364 16.79136,0.09334c1.04066,-0.65946 2.41104,-1.09367 4.21564,-1.09367c3.53308,0 5.4018,1.66435 6.39022,3.42498c-1.6287,3.04623 -2.95683,6.73708 -3.69591,10.3357l-0.97084,1.26476c0.22311,0.15888 0.44127,0.33437 0.65101,0.52819c-0.54332,3.6082 -0.42728,6.99357 0.65176,9.38061c0.03878,0.2159 0.08449,0.4294 0.13689,0.64025c-0.77556,1.05396 -1.79077,1.72879 -2.77285,2.16089c0.01811,0.10602 0.03399,0.21279 0.0476,0.32029l0.10014,0.70092c2.08763,0.89935 4.24762,6.56806 5.2994,8.24397c0.69343,1.10492 1.46334,2.17832 1.97677,3.37752c0.2085,0.487 -0.18149,1.1667 0.14679,1.58248c1.09581,1.3879 3.3248,1.90741 3.92262,3.57165c0.30038,0.83622 0.50238,1.64811 0.61846,2.43792c-0.51871,1.08274 -0.89684,3.18436 -0.98322,3.55161c-0.52385,2.22706 -2.20577,5.30485 -3.6664,7.12961c-5.62858,7.03179 -9.56149,17.40286 -11.57886,28.06706c-0.55498,2.39054 -1.04792,4.81769 -1.84864,7.17957c-0.5378,1.08499 -1.29879,2.40983 -1.93482,3.75744c0.22965,4.65094 1.40224,9.73284 0.12018,14.25031c-0.38241,1.34748 -2.10784,2.15478 -2.25128,3.5481c-0.05376,0.52213 -0.08458,1.0461 -0.10909,1.57057c-0.20927,0.34843 -0.43076,0.67558 -0.67362,0.96808c-0.72897,0.87795 -1.89611,1.27928 -2.76252,2.02192c-1.52336,1.30573 -1.93219,4.71864 -2.70371,6.676c-0.4576,1.16092 -2.64727,2.33322 -3.29739,3.41674c-1.00231,1.67051 -0.74824,3.4608 -1.25,5.29396c-0.28799,1.05215 -1.01436,2.01084 -1.80794,2.94019c-0.22302,0.13215 -0.45041,0.25834 -0.6819,0.37878c0.05708,0.06763 0.11374,0.13789 0.16995,0.21088c-0.91787,1.04823 -1.8205,2.07606 -2.15843,3.17838c-1.78053,5.80817 -3.89553,11.85457 -5.07313,17.83997c-0.34491,1.00284 -0.53483,2.07777 -0.54115,3.19619c-0.72104,1.03446 -1.38961,2.0643 -1.86652,3.03569c-0.52412,0.13831 -1.07093,0.24666 -1.62145,0.32927c-0.44052,1.76081 -0.84157,3.53501 -1.34345,5.26083c-2.82756,4.25567 -7.19549,9.41953 -9.94576,10.6133c-2.26396,0.98269 -5.3491,0.8442 -7.48975,2.03098c-1.80619,1.00136 -2.79515,3.28107 -4.25514,4.13252c-4.34738,2.53534 -11.53302,2.67113 -16.11311,2.52801c-4.93295,-0.15416 -10.44761,-2.04362 -15.86487,-3.03799c-0.04323,-0.08443 -0.08862,-0.1672 -0.13653,-0.24802zM223.3893,279.63903c-0.04176,0.01015 -0.08373,0.01977 -0.12589,0.02886c0.19041,0.48192 0.38294,0.96295 0.58586,1.4395c0.01608,0.03776 0.03672,0.07533 0.06046,0.11276c0.02684,-0.01995 0.05359,-0.0394 0.07997,-0.05831c-0.02051,-0.11917 -0.03679,-0.23979 -0.0487,-0.36169l-0.11958,-1.0762c-0.14621,-0.02206 -0.29034,-0.05047 -0.43211,-0.08491zM285.09786,169.60127c0.13288,0.02677 0.26918,0.05172 0.40933,0.07486c0.13742,0.02269 -0.16081,-0.21035 -0.36016,-0.26406c-0.01631,0.06308 -0.03269,0.12614 -0.04917,0.1892z" fill="#acacac"/><path d="M198.22458,287.32509c-2.23607,-4.47213 2.23607,-6.70821 2.23607,-6.70821c4.57128,-2.26137 8.66949,-5.33598 12.993,-7.92793c0.81081,-0.48608 1.86399,-0.48425 2.65068,-1.00847c0.81101,-0.54043 1.23356,-1.54068 2.02606,-2.10791c2.52513,-1.80732 5.69437,-2.53605 8.31186,-4.20682c0.83823,-0.53505 1.26944,-1.56115 2.07676,-2.14178c2.56835,-1.84718 6.28599,-2.77883 8.76859,-4.69984c2.8999,-2.2439 5.83505,-5.1992 8.31912,-7.8047c1.06935,-1.12162 1.1372,-2.88329 1.72223,-4.31831c4.80352,-7.29575 9.26385,-14.0567 12.5029,-22.09433c0.74836,-1.85702 2.15786,-3.43098 2.73255,-5.34887c2.52088,-8.41278 1.32725,-16.41253 2.10548,-24.97338c0.1923,-2.11541 0.97517,-4.15114 1.147,-6.26831c0.12883,-1.58738 -0.19169,-3.21393 0.11671,-4.77638c0.42802,-2.16838 1.79277,-4.04168 2.61363,-6.09382c1.30885,-2.62788 3.7314,-6.09097 4.31212,-8.91195c0.44205,-2.14737 0.065,-4.42833 0.62833,-6.54711c0.89177,-3.35407 3.65415,-6.6379 3.87941,-10.11116c0.45891,-7.07572 -0.02433,-14.34938 -0.02433,-21.43883c0,-3.48273 -0.54579,-8.13503 0.13376,-11.53737c0.41481,-2.07683 1.67457,-3.8962 2.34233,-5.90603c0.82085,-3.89148 2.68433,-5.83362 4.25311,-9.28725c1.15848,-2.55036 1.33218,-6.07322 3.72218,-7.53414c2.26266,-1.38308 9.56551,-0.89841 11.59759,0.98643c0.32382,0.30036 0.61335,0.63286 0.87333,0.98993c-5.69792,4.7193 -10.7324,20.15527 -7.58768,27.11194c0.14891,0.82906 0.4,1.62263 0.73977,2.36725c0.07911,0.52235 0.17974,1.03213 0.30357,1.52746c1.30878,5.23513 3.25805,9.24373 6.08422,13.03658c0.11719,0.30193 0.32622,0.5423 0.57631,0.75511c0.61622,0.78882 1.27155,1.57114 1.96816,2.35622c0.41584,0.46866 0.62164,1.02749 0.69925,1.63783c-0.14115,0.11838 -0.28329,0.23894 -0.42644,0.36165l-0.0219,0.39426c-0.74079,0.42331 -1.32069,3.68492 -1.43035,4.15115c-0.52385,2.22706 -2.20577,5.30485 -3.6664,7.12961c-9.70902,12.12948 -14.37263,34.19482 -12.86245,50.5617c-0.55158,0.79193 -0.99153,1.66742 -1.29706,2.60367c-1.95461,1.34193 -2.64082,4.39834 -4.11663,6.17576c-0.72897,0.87795 -1.89611,1.27928 -2.76252,2.02192c-1.52336,1.30573 -1.93219,4.71864 -2.70371,6.676c-0.4576,1.16092 -2.64727,2.33322 -3.29739,3.41674c-1.00231,1.67051 -0.74824,3.4608 -1.25,5.29396c-0.67746,2.47506 -3.78081,4.43295 -4.47831,6.70823c-1.78053,5.80817 -3.89553,11.85457 -5.07313,17.83997c-0.34491,1.00284 -0.53483,2.07777 -0.54115,3.19619c-0.96934,1.3907 -1.84387,2.77303 -2.28534,4.01625c-1.30319,3.66994 -8.55491,13.51398 -12.49184,15.22284c-2.26396,0.98269 -5.3491,0.8442 -7.48975,2.03098c-1.80619,1.00136 -2.79515,3.28107 -4.25514,4.13252c-4.34738,2.53534 -11.53302,2.67113 -16.11311,2.52801c-5.65224,-0.17663 -12.06817,-2.63153 -18.22623,-3.40771c-0.0118,-0.023 -0.02355,-0.04618 -0.03523,-0.06954z" fill="#a1a1a1"/><path d="M284.88901,113.15187c0.66409,-1.16045 1.90841,-2.24762 4.23991,-2.24762c1.65831,0 2.76663,0.55 3.50735,1.28517c-1.14281,4.70849 -1.34245,9.41043 0.04109,12.47108c0.14891,0.82905 0.39999,1.62263 0.73976,2.36725c0.07911,0.52235 0.17975,1.03213 0.30358,1.52746c0.33305,1.3322 0.70758,2.58498 1.12748,3.77499c-0.62661,2.96866 -2.89297,4.63873 -9.15023,2.62878c-4.49758,-1.4447 -5.00348,-10.95303 -4.42685,-14.76799c0.30943,-2.04716 0.00046,-4.57212 1.46447,-6.03613c0.5799,-0.5799 1.33178,-0.85358 2.15345,-1.00298z" fill="#828282"/><path d="M286.28462,165.91542c0.96974,-1.16045 2.78676,-2.24762 6.19132,-2.24762c0.50322,0 0.97175,0.02375 1.40799,0.06798c-3.82393,6.65084 -6.55556,14.95108 -8.08612,23.3939c-5.02208,-2.55333 -5.56079,-10.7112 -4.79624,-14.17515c0.45184,-2.04716 0.00068,-4.57213 2.13849,-6.03613c0.8468,-0.5799 1.94473,-0.85358 3.14457,-1.00298z" fill="#828282"/><path d="M193.87857,285.85325l0.0971,-1.55773c1.4319,-6.80726 0.48005,-14.57995 0.48005,-21.52807c0,-12.31243 0,-24.62486 0,-36.93729c0,-22.61639 -0.44219,-45.28458 0.09022,-67.89436c0.72653,-1.94046 1.9673,-3.72773 2.30858,-5.77145c1.10512,-6.61787 -0.13521,-13.21924 -0.09022,-19.83169c0.01645,-2.4175 0.75288,-4.77729 1.21885,-7.14951c0.55742,-2.83776 -0.06456,-6.71739 -0.06456,-9.5877c0,-6.73336 0,-13.46671 0,-20.20007c0,0 0,-5 5,-5c5,0 5,5 5,5c0,6.73336 0,13.46671 0,20.20007c0,3.50605 0.52645,7.7228 -0.06456,11.18953c-0.20448,1.19942 -0.91977,2.26896 -1.15429,3.46287c-0.50142,2.55265 0.43785,5.53222 0.62467,8.02101c0.54087,7.20513 -0.0107,14.99501 -2.95891,21.55802c1.01868,21.90727 0.09022,44.0703 0.09022,66.00329c0,12.31243 0,24.62485 0,36.93729c0,7.70345 0.78427,15.91827 -0.67424,23.48924l0.09709,-0.40344c0,0 0,1.22165 -0.60386,2.45723c-3.10633,-0.69566 -6.217,-1.23874 -9.20494,-1.13706c-0.19121,-0.75265 -0.1912,-1.32019 -0.1912,-1.32019z" fill="#bababa"/><path d="M197.89424,87.01139c-0.65127,-2.84203 1.79279,-5.70755 3.66634,-7.94163c0.89979,-1.07294 2.68586,-0.79424 4.01902,-1.22262c3.17226,-1.01931 6.23119,-2.15338 9.42533,-3.12413c12.83391,-3.90044 26.46925,-4.22002 39.85803,-4.93557c5.23882,-0.27998 10.71541,-1.05463 15.94668,-0.32166c8.14699,1.14148 16.42339,3.31728 24.6325,3.93565c5.71447,0.43046 11.1266,0.71121 16.28184,3.60997c-1.66758,3.40327 -2.42701,7.29586 -4.29936,10.98044c-1.18687,2.33562 -2.66114,4.57585 -3.96677,6.99266c-0.80645,0.54512 -1.55856,1.20913 -2.38953,1.90508c-0.17827,0.05541 -0.35483,0.11284 -0.52946,0.17261c-1.78346,0.61046 -3.39452,1.71764 -5.22771,2.15674c-1.71195,0.41006 -3.51267,0.23835 -5.269,0.35753c-9.84179,0.52599 -19.68359,1.05196 -29.52539,1.57794c-6.08035,0.32496 -12.47355,1.22293 -18.56106,0.96761c-6.43219,-0.26978 -12.53156,-2.89483 -18.86273,-3.42441c-2.83049,-0.23677 -5.64648,0.03255 -8.50419,-0.52179c-4.58776,-0.88993 -8.9168,-2.39046 -13.51426,-3.27475c0,0 -4.90852,-0.95208 -3.95644,-5.8606c0.16084,-0.82923 0.4346,-1.49122 0.77853,-2.01878c-0.0008,-0.00342 -0.00158,-0.00686 -0.00237,-0.01031z" fill="#c4c4c4"/><path d="M243.60792,94.28329c-0.36854,0.32651 -0.87932,0.32651 -0.87932,0.32651c-8.19396,0 -16.29967,-0.99641 -24.09671,-2.96885c-2.39601,-0.60613 -5.37399,-3.90376 -4.12924,-6.58729c0.41881,-0.9029 1.36984,-1.44432 2.05476,-2.16649c4.50038,-2.29218 10.53769,-4.94482 15.56077,-5.76855c8.31392,-1.36339 16.79431,1.70153 25.11416,-0.65232c1.20646,0.00306 2.37277,-0.43859 3.56088,-0.64826c4.41154,-0.7785 9.70002,0.02363 13.85989,0.99577c3.68106,0.86025 7.97251,-0.80938 11.69088,-0.01088c2.01619,0.43296 4.4767,1.22109 6.30815,2.13147c3.36,2.68961 6.82983,8.9679 3.14561,13.02617c-0.75144,0.82774 -2.11926,0.72246 -3.20595,0.985c-1.49898,0.36214 -2.73739,1.49545 -4.37451,1.65486c-4.20468,0.40941 -11.36121,0.93494 -15.11702,-1.00255c-9.86392,0.32418 -19.59487,0.67276 -29.49233,0.6854z" fill="#b2b2b2"/><path d="M298.67824,98.61871c-4.10414,1.62493 -8.60684,2.61442 -12.88154,3.31872c-2.30253,0.37937 -4.05244,1.38919 -6.4301,1.42891c-4.3449,1.2627 -8.44169,1.05742 -12.94588,1.05742c-4.28674,0 -8.57347,0 -12.86021,0c-1.87399,0 -4.26711,0.43219 -6.07788,-0.05363c-2.37369,-0.63685 -4.47836,-0.66082 -7.13956,-0.66082c-3.87846,0 -9.08567,0.84791 -12.86521,-0.05363c-3.42496,-0.81696 -7.15062,-1.70459 -10.6418,-2.4804c-1.90649,-0.42366 -3.72324,-0.36324 -5.66484,-0.70358c-2.10015,-0.36813 -4.35311,-1.94009 -6.24216,-2.90292c-1.77666,-0.36772 -2.9457,-0.98252 -4.50848,-1.88734c-9.97182,-5.77348 0.58431,-15.93828 6.77162,-19.65717c0,0 1.07186,-0.64312 1.71498,0.42875c0.64312,1.07187 -0.42874,1.71498 -0.42874,1.71498c-2.02562,1.21311 -4.65405,2.67164 -6.05917,4.66021c-0.69301,0.98077 -1.10018,2.17775 -1.94117,3.035c-1.17226,1.19491 -2.73281,3.32357 -1.55741,5.26339c0.89945,1.4844 2.76635,2.29024 4.18362,3.10702c0.81127,0.46754 1.7166,0.79353 2.63608,0.97048c10.74183,5.28696 22.65695,6.00522 34.60267,6.00522c2.85338,0 5.26975,-0.03361 7.86401,0.76809c1.46439,0.45254 3.77744,-0.05363 5.35342,-0.05363c3.81043,0 7.62086,0 11.43129,0c4.83983,0 9.33994,0.28326 14.00987,-1.03065c2.39649,-0.03021 4.08171,-1.03318 6.43011,-1.42891c4.05568,-0.68342 8.41587,-1.5875 12.31798,-3.16669l1.53593,-0.0894c0,0 1.16509,0 1.24562,1.12483c-0.04899,0.03973 -0.09831,0.07949 -0.148,0.11928c-0.43546,0.34874 -0.86737,0.76065 -1.29237,1.2272z" fill="#515151"/><path d="M206.68026,93.20824c0.1819,0.7276 -0.5457,0.90951 -0.5457,0.90951l-0.17183,-0.10595c-1.07761,1.29136 -2.60711,2.51357 -3.11968,4.14424c0,0 -0.23718,0.71152 -0.94869,0.47434c-0.71151,-0.23717 -0.47434,-0.94868 -0.47434,-0.94868c0.6433,-1.85196 2.15701,-3.14799 3.39037,-4.63018l0.96035,-0.38899c0,0 0.72761,-0.1819 0.90951,0.5457z" fill="#515151"/><path d="M216.31958,97.53006c0.53033,-0.53033 1.06066,0 1.06066,0l0.07971,0.0862c1.66265,1.40666 1.95191,3.24197 1.22438,5.2362c0,0 -0.26334,0.70225 -0.96558,0.43891c-0.70225,-0.26335 -0.43891,-0.96559 -0.43891,-0.96559c0.50394,-1.2994 0.44898,-2.65802 -0.75693,-3.53821l-0.20333,-0.19684c0,0 -0.53033,-0.53033 0,-1.06066z" fill="#515151"/><path d="M240.1654,99.93595c0.53033,0.53033 0,1.06066 0,1.06066l0.03966,-0.15163c-0.52295,1.5546 -0.38608,3.08778 -0.38608,4.71612c0,0 0,0.75 -0.75,0.75c-0.75,0 -0.75,-0.75 -0.75,-0.75c0,-1.80354 -0.10836,-3.46237 0.46305,-5.19047l0.3227,-0.43468c0,0 0.53033,-0.53033 1.06066,0z" fill="#515151"/><path d="M197.47154,83.27389c0.05322,0.19399 0.11782,0.66747 -0.42243,0.89901c-0.68936,0.29544 -0.9848,-0.39392 -0.9848,-0.39392l-0.33448,-1.73708c1.3625,-0.11084 3.17517,-0.23558 4.56221,-0.00245c1.19485,0.20083 2.02416,1.0073 3.25472,0.97713c0,0 0.75,0 0.75,0.75c0,0.75 -0.75,0.75 -0.75,0.75c-1.00445,-0.01733 -4.59208,-0.58915 -6.07522,-1.24269z" fill="#515151"/><path d="M202.69373,75.60414c0.23717,-0.71151 0.94868,-0.47434 0.94868,-0.47434l0.71773,0.32271c1.31045,1.31634 2.93428,2.33047 4.52579,3.28376c0,0 0.64312,0.38587 0.25725,1.02899c-0.38587,0.64312 -1.02899,0.25725 -1.02899,0.25725c-1.69983,-1.02151 -3.40806,-2.10837 -4.81471,-3.50934l-0.13141,0.03966c0,0 -0.71151,-0.23717 -0.47434,-0.94868z" fill="#515151"/><path d="M253.48305,100.78211c-0.20592,-0.03144 -0.64609,-0.16583 -0.64609,-0.7404c0,-0.75 0.75,-0.75 0.75,-0.75l0.55755,0.12596c2.29823,1.60188 2.40963,4.78168 1.24545,7.18645c0,0 -0.33541,0.67082 -1.00623,0.33541c-0.67082,-0.33541 -0.33541,-1.00623 -0.33541,-1.00623c0.80595,-1.54424 0.92425,-4.04257 -0.56527,-5.15119z" fill="#515151"/><path d="M273.10856,99.41767c0.62404,0.41603 0.20801,1.04006 0.20801,1.04006l-0.15708,0.00854c-0.02454,1.93457 -0.56609,3.6298 -0.56609,5.66091c0,0 0,0.75 -0.75,0.75c-0.75,0 -0.75,-0.75 -0.75,-0.75c0,-1.97715 0.59702,-3.81233 0.56609,-5.66091l0.40901,-0.84059c0,0 0.41603,-0.62404 1.04006,-0.20801z" fill="#515151"/><path d="M284.18842,97.58346c0.33541,-0.67082 1.00623,-0.33541 1.00623,-0.33541l0.61846,0.47693c0.95056,1.90679 1.34934,3.61549 2.02201,5.61763c0,0 0.23717,0.71151 -0.47434,0.94868c-0.71151,0.23717 -0.94868,-0.47434 -0.94868,-0.47434c-0.65192,-1.96986 -1.00771,-3.56045 -1.94063,-5.42115l0.05236,0.19389c0,0 -0.67082,-0.33541 -0.33541,-1.00623z" fill="#515151"/><path d="M297.7802,94.66384c0,0.3428 -0.15668,0.52891 -0.32681,0.62996c-0.62632,1.68034 -1.32385,3.78147 -0.45998,5.40315c0,0 0.33541,0.67082 -0.33541,1.00623c-0.67082,0.33541 -1.00623,-0.33541 -1.00623,-0.33541c-1.07181,-2.24304 -0.29926,-4.73689 0.53466,-6.96728l0.84377,-0.48666c0,0 0.75,0 0.75,0.75z" fill="#515151"/><path d="M269.01636,130.33439c2.23607,1.11803 1.11803,3.3541 1.11803,3.3541l-0.42125,0.75234c-7.60742,9.90971 -20.04778,8.95682 -30.67577,5.71104c-2.89618,-0.88449 -5.84378,0.1399 -8.59572,-1.58552c-1.47311,-0.92362 -3.334,-4.10947 -4.2759,-5.56992c0,0 -1.35189,-2.10295 0.75105,-3.45484c2.10295,-1.35189 3.45484,0.75105 3.45484,0.75105c0.88275,1.37808 1.40027,3.15066 2.76114,4.05971c1.6267,1.08663 5.43518,0.45936 7.3302,1.00707c8.38152,2.42245 19.20419,4.40387 25.25016,-3.91859l-0.05088,0.0116c0,0 1.11803,-2.23607 3.3541,-1.11803z" fill="#a1a1a1"/><path d="M228.59375,118.81737c0.02833,-0.07782 0.05522,-0.15648 0.08091,-0.23583c0.03674,-0.3625 0.07514,-0.72457 0.11451,-1.0861c0,0 0.29009,-2.61084 2.34216,-3.83741c3.23694,-2.8777 7.14195,-2.52024 11.22573,-2.41685c1.14644,-0.91662 2.80933,-0.39577 4.38371,-0.1185c6.50387,-0.28406 13.93566,-0.49437 17.84843,5.04868c0.89882,1.27331 1.04399,2.93716 1.56599,4.40574c0.45333,3.18005 1.43286,9.699 -0.00488,12.45148c-1.02092,1.9545 -3.00376,3.367 -4.96918,4.36672c-0.70327,0.35772 -5.36866,0.29864 -6.70332,0.29864c-5.46046,0 -10.70913,0.02684 -16.0543,-0.76279c-1.23699,-0.18274 -2.63234,0.36141 -3.74545,-0.20826c-2.19417,-1.12293 -4.44798,-2.55711 -5.74882,-4.65071c-0.96345,-1.5506 -0.40694,-3.62959 -0.52786,-5.45112c-0.12284,-1.85038 -0.07473,-3.70553 0.05575,-5.55423c-0.154,-1.23229 0.13664,-2.24948 0.13664,-2.24948z" fill="#828282"/><path d="M231.4449,134.90873c-0.55001,-0.7444 0.10448,-1.50796 0.10448,-1.50796c7.19167,-8.28857 16.78407,-10.63013 27.2986,-10.63013c1.30991,0.02681 3.87808,0.4331 4.9622,1.19761c2.26657,1.59837 4.69399,6.30444 2.70653,8.76527c-1.19904,1.48462 -4.07698,4.08038 -5.77951,4.91468c-2.76408,1.3545 -7.34196,0.50871 -10.35184,0.50871c-2.64888,0 -5.98175,0.54126 -8.55748,-0.03344c-0.8864,-0.19778 -1.65605,-0.83282 -2.55819,-0.93759c-2.68739,-0.3121 -4.85202,0.53856 -7.27228,-0.9699l-0.55662,-1.23239c0,0 0,-0.0277 0.00412,-0.07485z" fill="#707070"/><path d="M268.49005,183.49228c2.23607,1.11803 1.11804,3.35411 1.11804,3.35411l-0.42126,0.75233c-7.60742,9.90971 -20.04778,8.95683 -30.67577,5.71105c-2.89619,-0.88449 -5.84377,0.1399 -8.59572,-1.58553c-1.47312,-0.92362 -3.334,-4.10946 -4.2759,-5.56992c0,0 -1.35189,-2.10294 0.75105,-3.45484c2.10294,-1.3519 3.45484,0.75105 3.45484,0.75105c0.88274,1.37808 1.40027,3.15066 2.76114,4.05971c1.62671,1.08662 5.43518,0.45936 7.3302,1.00707c8.38153,2.42246 19.20419,4.40387 25.25016,-3.91859l-0.05088,0.01159c0,0 1.11804,-2.23607 3.35411,-1.11803z" fill="#a1a1a1"/><path d="M237.72159,248.30978c-2.89619,-0.88449 -5.84377,0.1399 -8.59572,-1.58553c-1.47312,-0.92362 -3.334,-4.10946 -4.2759,-5.56992c0,0 -1.35189,-2.10294 0.75105,-3.45484c2.10294,-1.3519 3.45484,0.75105 3.45484,0.75105c0.88274,1.37808 1.40027,3.15066 2.76114,4.05971c1.62671,1.08663 5.43518,0.45936 7.3302,1.00707c8.38153,2.42246 19.20419,4.40387 25.25016,-3.91859l-0.05088,0.01159c0,0 0.95497,-1.90993 2.8649,-1.3169c-1.01954,1.17584 -2.09898,2.31266 -2.4759,3.54217c-0.57557,1.87755 -1.1861,3.77999 -1.78862,5.69722c-7.37067,4.46611 -16.85945,3.33188 -25.22528,0.77697z" fill="#a1a1a1"/><path d="M228.38096,227.33114c0.02833,-0.07782 0.05521,-0.15648 0.08091,-0.23583c0.03674,-0.3625 0.07515,-0.72457 0.11452,-1.0861c0,0 0.29009,-2.61084 2.34216,-3.83741c3.23694,-2.8777 7.14195,-2.52024 11.22573,-2.41685c1.14644,-0.91662 2.80933,-0.39577 4.38371,-0.1185c6.50387,-0.28406 13.93566,-0.49438 17.84843,5.04868c0.89882,1.27331 1.04399,2.93716 1.56599,4.40574c0.34415,2.41412 0.99153,6.75244 0.65442,9.90642c-0.80974,0.93172 -1.56003,1.85539 -1.86135,2.8383c-0.20115,0.65616 -0.40657,1.31536 -0.61443,1.97718c-0.94095,0.84404 -2.04957,1.53519 -3.1527,2.09631c-0.70327,0.35773 -5.36866,0.29865 -6.70332,0.29865c-5.46046,0 -10.70913,0.02684 -16.0543,-0.76279c-1.23699,-0.18273 -2.63234,0.36141 -3.74545,-0.20826c-2.19417,-1.12293 -4.44799,-2.55712 -5.74883,-4.65071c-0.96345,-1.5506 -0.40694,-3.62959 -0.52786,-5.45112c-0.12284,-1.85038 -0.07473,-3.70553 0.05575,-5.55423c-0.154,-1.23229 0.13664,-2.24948 0.13664,-2.24948z" fill="#828282"/><path d="M231.0838,242.75205c-0.55001,-0.7444 0.10448,-1.50796 0.10448,-1.50796c7.19167,-8.28856 16.78407,-10.63013 27.2986,-10.63013c1.30991,0.02681 3.87808,0.4331 4.9622,1.19761c1.76664,1.24582 3.631,4.37964 3.42638,6.8667c-0.9115,1.04094 -1.80431,2.06238 -2.13998,3.15732c-0.03861,0.12597 -0.07739,0.25205 -0.11631,0.37824c-1.35296,1.3032 -3.07477,2.70517 -4.24307,3.27769c-2.76408,1.3545 -7.34196,0.50871 -10.35184,0.50871c-2.64888,0 -5.98175,0.54126 -8.55748,-0.03344c-0.8864,-0.19777 -1.65605,-0.83282 -2.55819,-0.93759c-2.68739,-0.3121 -4.85202,0.53856 -7.27228,-0.9699l-0.55662,-1.23239c0,0 0,-0.0277 0.00412,-0.07485z" fill="#707070"/><path d="M228.23533,171.58092c0.02833,-0.07782 0.05522,-0.15648 0.08091,-0.23583c0.03674,-0.3625 0.07514,-0.72457 0.11451,-1.0861c0,0 0.2901,-2.61084 2.34216,-3.83741c3.23694,-2.8777 7.14195,-2.52024 11.22573,-2.41685c1.14644,-0.91662 2.80933,-0.39577 4.38371,-0.1185c6.50387,-0.28406 13.93566,-0.49438 17.84843,5.04868c0.89882,1.27331 1.04399,2.93716 1.56599,4.40574c0.45333,3.18005 1.43286,9.699 -0.00488,12.45149c-1.02092,1.9545 -3.00376,3.36699 -4.96918,4.36672c-0.70327,0.35772 -5.36866,0.29865 -6.70332,0.29865c-5.46046,0 -10.70913,0.02684 -16.0543,-0.76279c-1.23699,-0.18274 -2.63234,0.36141 -3.74545,-0.20826c-2.19417,-1.12293 -4.44799,-2.55711 -5.74883,-4.65071c-0.96345,-1.5506 -0.40694,-3.62959 -0.52786,-5.45112c-0.12284,-1.85038 -0.07473,-3.70553 0.05574,-5.55423c-0.154,-1.23229 0.13664,-2.24948 0.13664,-2.24948z" fill="#828282"/><path d="M230.86854,187.4161c-0.55001,-0.7444 0.10447,-1.50796 0.10447,-1.50796c7.19167,-8.28857 16.78408,-10.63013 27.2986,-10.63013c1.30991,0.02681 3.87808,0.4331 4.9622,1.19761c2.26657,1.59837 4.69399,6.30444 2.70653,8.76527c-1.19904,1.48463 -4.07698,4.08037 -5.77951,4.91468c-2.76408,1.3545 -7.34196,0.50871 -10.35184,0.50871c-2.64888,0 -5.98175,0.54126 -8.55748,-0.03344c-0.8864,-0.19778 -1.65606,-0.83282 -2.55819,-0.93759c-2.68739,-0.3121 -4.85202,0.53856 -7.27228,-0.9699l-0.55662,-1.2324c0,0 0,-0.0277 0.00412,-0.07486z" fill="#707070"/><path d="M216.99469,126.5506c2.33336,0.89745 1.43592,3.23081 1.43592,3.23081l-1.00559,2.59202c-0.54707,0.91822 -0.93289,1.95422 -1.64122,2.75465c-4.82217,5.44921 -11.70267,3.34379 -17.64399,1.5157c0,0 -2.38945,-0.73521 -1.65423,-3.12466c0.73521,-2.38945 3.12466,-1.65423 3.12466,-1.65423c4.86739,1.49766 10.28319,3.71588 13.30739,-1.65558l0.84626,-2.22279c0,0 0.89745,-2.33336 3.23081,-1.43592z" fill="#a1a1a1"/><path d="M197.33893,117.2054c0.31239,-4.51502 4.98361,-4.51502 4.98361,-4.51502c2.91142,0 9.37669,-0.64949 11.39454,1.46447c1.63218,1.70991 1.47149,6.30237 1.46447,8.89395c-0.00594,2.19436 1.10003,4.62875 0.10064,6.58233c-2.9411,5.74922 -6.96457,5.786 -12.24242,4.47797c-1.98296,-0.49144 -4.65326,-0.05581 -5.89454,-1.67841c-2.63761,-3.44789 -0.10784,-7.88932 -0.17993,-11.52525v-1.78614c0,0 0,-0.88705 0.37363,-1.91389z" fill="#828282"/><path d="M198.63485,134.32475l-1.13503,-1.21155c-0.24507,0.02599 -0.53028,-0.03259 -0.84293,-0.25591c-1.01716,-0.72655 -0.29062,-1.74372 -0.29062,-1.74372c2.82446,-3.86875 9.13054,-4.67914 13.68525,-4.69058c1.21337,-0.00305 4.84829,-0.447 5.5657,0.7626c0.45378,0.76511 -0.15046,1.80089 -0.4891,2.62347c-0.96848,2.35253 -3.99108,3.59967 -6.01481,4.71708c-3.11699,0.43121 -6.58078,0.49416 -9.716,-0.0426c-0.27131,0.10674 -0.51371,0.10674 -0.51371,0.10674l-0.23147,-0.24707c-0.00671,-0.00138 -0.0134,-0.00277 -0.0201,-0.00415z" fill="#707070"/><g><path d="" fill="#d10000"/><path d="M187.67249,119.75c2.16131,0.90249 3.98116,1.98341 6.27211,2.55585l0.04571,-0.03732c0,0 0.84014,0 1.14289,0.68877c0.25616,-0.0504 0.5632,-0.01124 0.90844,0.21892c1.04006,0.69338 0.34669,1.73344 0.34669,1.73344l-0.30739,0.08262c0,2.46437 -0.16498,3.96957 -1.31258,6.21782c-0.00136,0.00111 -0.00272,0.00221 -0.00408,0.00331c-0.35937,-0.28439 -0.73507,-0.5338 -1.12379,-0.75583l0.04341,-1.27576c0,0 0,-1.25 -1.25,-1.25c-1.25,0 -1.25,1.25 -1.25,1.25l0.00487,0.21493c-1.19381,-0.39952 -2.43754,-0.7033 -3.65885,-1.07673c-0.03651,-0.02992 -0.07475,-0.05781 -0.11453,-0.08351l-1.32735,-0.8849l-0.02964,0.04446l-0.11455,-0.12729c-0.01286,-0.00436 -0.02571,-0.00872 -0.03856,-0.01306c-0.12538,-0.52471 -0.10454,-1.20478 -0.40193,-1.62344c-0.36668,-0.51618 -1.01621,-0.76651 -1.58067,-1.05336c-0.70123,-0.35635 -1.55101,-0.39449 -2.28532,-0.6618c-0.13073,-0.34389 -0.40887,-0.61513 -0.75723,-0.73656l-0.30525,-0.11447c-0.21744,-0.58715 0.18283,-1.23955 -0.46657,-1.93977c-1.33357,-1.43791 -3.35778,-0.82153 -4.74656,-1.8209c-0.29174,-0.20994 -0.54198,-0.46512 -0.77493,-0.73952c0.70905,-0.91261 1.63887,-1.88977 2.17223,-2.60091c0,0 0.75,-1 1.75,-0.25c0.37391,0.28043 0.50316,0.59582 0.51842,0.88081c2.56004,2.67955 5.38593,1.79329 8.64505,3.15419z" fill="#d10000"/><path d="" fill="#d10000"/><path d="" fill="#d10000"/><path d="" fill="#d10000"/><path d="M188.22154,122.35566c0.51768,-0.50785 0.8552,-1.32624 1.55303,-1.52355c2.33901,-0.66136 6.94976,2.96801 6.90626,5.23511c-0.04034,2.1026 -1.038,3.56946 -2.30107,4.85919c-0.24034,-0.16919 -0.48707,-0.32477 -0.73927,-0.46882l0.04341,-1.27577c0,0 0,-1.25 -1.25,-1.25c-1.25,0 -1.25,1.25 -1.25,1.25l0.00487,0.21494c-1.19381,-0.39952 -2.43754,-0.7033 -3.65885,-1.07673c-0.03651,-0.02992 -0.07475,-0.05781 -0.11453,-0.08351l-1.01298,-0.67532c0.70848,-1.68539 1.12734,-3.52711 1.81912,-5.20553z" fill="#c00000"/><path d="" fill="#c00000"/><path d="M177.04989,114.97204c0.62529,-1.14623 1.80366,-0.53799 1.80366,-0.53799l1.49425,0.77146c2.92044,1.63966 5.81675,1.70046 8.90904,2.85842c2.75483,1.03159 5.57888,3.15682 8.17064,4.5856c3.64443,2.0091 7.14812,4.75394 10.88301,6.52074c1.29696,0.61353 2.74072,0.95548 3.94624,1.7255c0,0 1.10995,0.71978 0.36998,1.79946c-0.73997,1.07968 -1.84992,0.35989 -1.84992,0.35989c-1.09557,-0.72407 -2.44995,-0.98489 -3.63849,-1.55353c-3.13285,-1.49887 -6.09721,-3.81109 -9.13831,-5.52816c-3.04183,-1.71749 -6.46434,-4.29034 -9.73165,-5.49898c-3.20412,-1.18527 -6.15175,-1.31231 -9.20785,-2.9958l-1.45754,-0.75215c0,0 -1.17837,-0.60824 -0.55308,-1.75447z" fill="#515151"/><path d="" fill="#cfcfcf"/><path d="M187.75754,127.43534c0.33169,0.35217 0.51172,0.73455 0.55176,1.11445c-0.26034,-0.07451 -0.52036,-0.15057 -0.77937,-0.22977c-0.03651,-0.02992 -0.07475,-0.05781 -0.11453,-0.08351l-1.32735,-0.8849l-0.02964,0.04446l-0.11455,-0.12729c-0.01286,-0.00436 -0.02571,-0.00872 -0.03856,-0.01306c-0.03616,-0.15133 -0.06016,-0.31559 -0.08314,-0.48278c0.7747,0.18178 1.63589,0.34442 1.93539,0.6624z" fill="#cfcfcf"/><path d="M183.92269,124.57892c-0.70123,-0.35635 -1.55101,-0.39449 -2.28532,-0.6618c-0.05304,-0.13953 -0.13035,-0.2671 -0.22678,-0.37755c1.39018,-0.05448 2.66637,0.25707 3.23333,1.39967c-0.2375,-0.12826 -0.48671,-0.24113 -0.72123,-0.36031z" fill="#cfcfcf"/><path d="" fill="#cfcfcf"/><path d="" fill="#cfcfcf"/><path d="" data-paper-data="{&quot;index&quot;:null}" fill="#cfcfcf"/></g><path d="M216.06876,179.51356c2.33337,0.89745 1.43592,3.23082 1.43592,3.23082l-1.0056,2.59202c-0.54708,0.91822 -0.93289,1.95422 -1.64121,2.75465c-4.82216,5.44922 -11.70267,3.3438 -17.64399,1.5157c0,0 -2.38945,-0.73521 -1.65424,-3.12466c0.73521,-2.38945 3.12466,-1.65423 3.12466,-1.65423c4.86739,1.49766 10.28319,3.71588 13.30739,-1.65558l0.84626,-2.22279c0,0 0.89744,-2.33337 3.23081,-1.43592z" fill="#a1a1a1"/><path d="M196.98051,169.96895c0.31239,-4.51502 4.98361,-4.51502 4.98361,-4.51502c2.91142,0 9.37669,-0.64949 11.39454,1.46446c1.63218,1.70991 1.47149,6.30238 1.46447,8.89396c-0.00594,2.19436 1.10003,4.62875 0.10064,6.58233c-2.9411,5.74922 -6.96457,5.786 -12.24242,4.47796c-1.98296,-0.49144 -4.65326,-0.0558 -5.89454,-1.67841c-2.63761,-3.44789 -0.10784,-7.88933 -0.17993,-11.52526v-1.78614c0,0 0,-0.88705 0.37363,-1.91389z" fill="#828282"/><path d="M198.80816,187.00712l-1.13503,-1.21156c-0.24507,0.02599 -0.53027,-0.03258 -0.84292,-0.25591c-1.01716,-0.72655 -0.29062,-1.74372 -0.29062,-1.74372c2.82446,-3.86875 9.13054,-4.67913 13.68525,-4.69058c1.21337,-0.00305 4.84829,-0.447 5.5657,0.76259c0.45378,0.76511 -0.15046,1.80089 -0.4891,2.62347c-0.96848,2.35253 -3.99107,3.59967 -6.0148,4.71709c-3.11699,0.43121 -6.58078,0.49416 -9.716,-0.0426c-0.27131,0.10674 -0.51371,0.10674 -0.51371,0.10674l-0.23147,-0.24707c-0.00671,-0.00138 -0.0134,-0.00276 -0.02011,-0.00415z" fill="#707070"/><g><path d="M187.49919,172.08575c2.16131,0.90249 3.98116,1.98341 6.27211,2.55585l0.04571,-0.03732c0,0 0.84014,0 1.14289,0.68877c0.25616,-0.0504 0.5632,-0.01124 0.90844,0.21892c1.04006,0.69338 0.34669,1.73344 0.34669,1.73344l-0.30739,0.08262c0,2.46437 -0.16498,3.96957 -1.31258,6.21782c-2.03794,1.65524 -4.34632,2.10268 -5.2182,4.78274c-0.49343,1.51672 -0.01991,5.42608 -1.46401,6.85674c-0.05117,-0.03282 -0.10215,-0.0668 -0.15305,-0.10207c0.11899,-0.38705 0.15119,-0.78115 0.05033,-1.15974c-0.19326,-0.72546 -1.00236,-1.11795 -1.50355,-1.67693l-1.2131,-0.73879c0,0 -1.07187,-0.64312 -1.71499,0.42875c-0.64312,1.07187 0.42874,1.71499 0.42874,1.71499l0.01208,0.0071c-0.03438,0.30914 -0.06201,0.59524 -0.09273,0.86626c-0.46625,-0.21425 -0.87068,-0.40336 -1.13884,-0.50323c-0.11403,-0.04247 -0.2286,-0.0831 -0.34367,-0.12201c-0.70851,-1.294 -1.68833,-2.56517 -2.82364,-4.53706c-0.66435,-1.15389 -0.28794,-3.09036 -1.14802,-4.11826c-1.44809,-1.73065 -3.99498,-2.86504 -5.15599,-4.50602c-0.15039,-0.21256 -0.27998,-0.42647 -0.39485,-0.64141c0.4905,-0.17722 0.96913,-0.34984 1.08114,-0.80314c0.20936,-0.84728 0.03111,-1.89261 -0.16732,-2.97664c0.38668,-0.07571 0.83449,-0.26356 1.39851,-0.60387c0.46945,-0.28325 0.23514,-1.2807 0.75233,-1.46272l0.98106,0.86802c0,0 1.01717,0.72654 1.74372,-0.29062c0.72655,-1.01717 -0.29062,-1.74371 -0.29062,-1.74371l-2.06242,-1.3059c-0.79137,0.26234 -1.70373,0.29134 -2.3741,0.78701c-0.34251,0.25325 -0.10775,0.87942 -0.35183,1.22854c-0.0347,0.04963 -0.0759,0.07935 -0.12203,0.09307c-0.01277,-0.58013 0.05177,-1.13583 0.25507,-1.64044c0.4631,-1.1495 2.20523,-2.85855 3.02066,-3.94578c0,0 0.75,-1 1.75,-0.25c0.37391,0.28043 0.50316,0.59582 0.51842,0.88081c2.56004,2.67955 5.38593,1.79329 8.64505,3.15419z" fill="#d10000"/><path d="" fill="#d10000"/><path d="M188.2488,194.03824c0.07456,0.23654 0.07326,0.52964 -0.08707,0.88239c-0.05445,0.1198 -0.1158,0.22126 -0.18196,0.30691c-0.07369,-0.04568 -0.14693,-0.09365 -0.21998,-0.14427c0.11899,-0.38705 0.15119,-0.78115 0.05033,-1.15974c-0.19326,-0.72546 -1.00236,-1.11795 -1.50355,-1.67693l-1.2131,-0.73879c0,0 -1.07187,-0.64312 -1.71499,0.42875c-0.64312,1.07187 0.42874,1.71499 0.42874,1.71499l0.01208,0.0071c-0.0324,0.29126 -0.0588,0.56206 -0.08742,0.81907c-0.50301,-0.19251 -1.0182,-0.39734 -1.50483,-0.60905c-0.6346,-1.15171 -1.4835,-2.2899 -2.46498,-3.92509c0.33395,-1.0405 0.96953,-2.06219 1.42381,-2.74698c1.36635,-2.05967 3.14888,-3.81205 4.38787,-5.96265c1.15575,-2.00613 1.59412,-4.40656 2.47448,-6.54252c0.51768,-0.50785 0.8552,-1.32624 1.55303,-1.52355c2.33901,-0.66136 6.94976,2.96801 6.90626,5.23511c-0.09209,4.79968 -5.17266,6.28658 -7.01137,9.91596c-0.62235,1.22844 -0.1397,4.67464 -0.89788,5.40984c-0.11957,0.11595 -0.23597,0.21879 -0.34946,0.30946z" fill="#c00000"/><path d="M176.87658,167.30779c0.62529,-1.14623 1.80366,-0.53799 1.80366,-0.53799l1.49425,0.77146c2.92044,1.63966 5.81675,1.70046 8.90904,2.85842c2.75483,1.03159 5.57888,3.15682 8.17064,4.5856c3.64443,2.0091 7.14812,4.75394 10.88301,6.52074c1.29696,0.61353 2.74072,0.95548 3.94624,1.7255c0,0 1.10995,0.71978 0.36998,1.79946c-0.73997,1.07968 -1.84992,0.35989 -1.84992,0.35989c-1.09557,-0.72407 -2.44995,-0.98489 -3.63849,-1.55353c-3.13285,-1.49887 -6.09721,-3.81109 -9.13831,-5.52816c-3.04183,-1.71749 -6.46434,-4.29034 -9.73165,-5.49898c-3.20412,-1.18527 -6.15175,-1.31231 -9.20785,-2.9958l-1.45754,-0.75215c0,0 -1.17837,-0.60824 -0.55308,-1.75447z" fill="#515151"/><path d="M179.86054,187.08267c-0.3178,-0.01874 -0.65738,-0.1096 -1.00049,-0.25586c-0.09399,-0.60157 -0.23954,-1.16644 -0.58765,-1.58247c-0.70178,-0.83871 -1.66162,-1.53739 -2.59672,-2.22155c-0.16865,-2.74354 1.90524,-5.71712 4.07845,-6.9744c2.37043,-0.43178 5.01545,-0.28038 5.02561,2.72726l0.01181,0.09054c0.84028,0.31784 2.37162,0.45784 2.79269,0.9049c0.80467,0.85435 0.71677,1.88657 -0.09704,2.62957c0.06991,0.026 0.11822,0.0651 0.11773,0.13747c-0.00321,0.46732 -0.30396,0.90066 -0.58479,1.27418c-0.21839,0.29048 -1.25911,0.22783 -0.98531,0.46681c1.16506,1.01691 0.09528,3.02065 -1.60506,2.84059c-0.53938,-0.05713 -1.42071,-0.72737 -1.9997,-1.10759c-0.75307,0.60849 -1.48811,1.13428 -2.56954,1.07051zM183.28801,178.76114c0.05013,-1.77093 -1.66589,-1.50969 -3.02188,-1.31154c-1.63256,0.9997 -3.22512,3.4839 -3.09627,5.55419c0.06311,1.01396 1.88521,2.51955 2.85043,2.59565c0.70193,0.05535 1.31456,-0.61821 1.79666,-1.01165c0,0 0.39155,-0.31867 0.79257,-0.10955c0.19896,0.01772 0.35044,0.10625 0.35044,0.10625c0.16766,0.09798 1.79241,1.20664 1.91724,1.06436c0.14398,-0.16412 0.42451,-0.37817 0.32146,-0.57063c-0.1386,-0.25887 -0.65178,-0.309 -0.64265,-0.60251c0.01493,-0.47948 0.39683,-0.88577 0.7005,-1.25714c0.20976,-0.25653 1.00057,-0.17655 0.86996,-0.48109c-0.12874,-0.30018 -0.63893,-0.49326 -0.55358,-0.80853c0.1273,-0.47017 1.5084,-0.86766 1.04591,-1.02054c-0.97812,-0.32334 -1.90603,-0.33412 -2.87235,-0.89043l-0.08254,-0.04824c0,0 -0.54327,-0.3175 -0.34022,-0.86825zM187.17503,182.32434c-0.11347,-0.06907 -0.19924,-0.13849 -0.14414,-0.07953c0.03514,0.03759 0.08646,0.06168 0.14414,0.07953z" fill="#cfcfcf"/><path d="M181.32855,182.33521c0.17205,0.02622 0.35601,0.12405 0.49937,0.37286c0.37241,0.64628 -0.27387,1.01869 -0.27387,1.01869c-0.10188,0.05855 -0.25257,0.14885 -0.42607,0.24857c-0.02841,0.01943 -0.05757,0.03585 -0.08706,0.0497c-0.46395,0.26298 -1.05075,0.56395 -1.31732,0.52163c-1.09247,-0.17336 -2.00488,-1.13484 -1.34951,-2.30795c0.71321,-1.27662 2.49763,-0.89591 2.95445,0.0965z" fill="#cfcfcf"/><path d="M179.91967,178.68681c0.70042,-1.14679 1.98593,-0.82375 2.67319,0.043c0.16769,0.2115 0.19349,0.87047 0.19208,1.40377c0.00243,0.03249 0.00242,0.06597 -0.00057,0.10024c-0.00171,0.20011 -0.00645,0.37571 -0.00745,0.49322c0,0 -0.00727,0.74587 -0.75313,0.7386c-0.28714,-0.00279 -0.46265,-0.11505 -0.56995,-0.25209c-1.08887,0.08909 -2.29639,-1.27877 -1.53417,-2.52673z" data-paper-data="{&quot;index&quot;:null}" fill="#cfcfcf"/></g><path d="M215.88358,234.51356c2.33337,0.89745 1.43592,3.23082 1.43592,3.23082l-1.0056,2.59202c-0.54708,0.91822 -0.93289,1.95422 -1.64121,2.75465c-4.82216,5.44921 -11.70267,3.3438 -17.64399,1.5157c0,0 -2.38945,-0.73521 -1.65424,-3.12466c0.73521,-2.38945 3.12466,-1.65423 3.12466,-1.65423c4.86739,1.49766 10.28319,3.71588 13.30739,-1.65558l0.84626,-2.22279c0,0 0.89744,-2.33337 3.23081,-1.43592z" fill="#a1a1a1"/><path d="M197.12614,225.71917c0.31239,-4.51502 4.98361,-4.51502 4.98361,-4.51502c2.91142,0 9.37669,-0.64949 11.39454,1.46447c1.63218,1.70991 1.47149,6.30238 1.46447,8.89396c-0.00594,2.19436 1.10003,4.62875 0.10064,6.58233c-2.9411,5.74922 -6.96458,5.786 -12.24242,4.47796c-1.98296,-0.49144 -4.65326,-0.0558 -5.89454,-1.67841c-2.63761,-3.44788 -0.10784,-7.88932 -0.17992,-11.52525v-1.78614c0,0 0,-0.88705 0.37363,-1.91389z" fill="#828282"/><path d="M198.7228,242.27613l-1.13503,-1.21156c-0.24508,0.02599 -0.53027,-0.03259 -0.84292,-0.25591c-1.01717,-0.72655 -0.29062,-1.74371 -0.29062,-1.74371c2.82446,-3.86875 9.13054,-4.67914 13.68524,-4.69058c1.21337,-0.00305 4.84829,-0.447 5.56571,0.7626c0.45379,0.76511 -0.15046,1.80089 -0.4891,2.62347c-0.96848,2.35253 -3.99108,3.59967 -6.01481,4.71708c-3.11699,0.43121 -6.58078,0.49416 -9.716,-0.0426c-0.27131,0.10674 -0.51371,0.10674 -0.51371,0.10674l-0.23146,-0.24707c-0.0067,-0.00138 -0.01341,-0.00276 -0.02011,-0.00415z" fill="#707070"/><path d="M287.68209,135.48505c-0.23112,0.0152 -0.45581,0.00183 -0.66976,-0.03741c-0.1714,0.06196 -0.35151,0.10572 -0.53799,0.12894c-0.10222,0.01273 -0.20636,0.01928 -0.31203,0.01928c-1.38071,0 -2.5,-1.11929 -2.5,-2.5c0,-1.2028 0.84941,-2.2072 1.98111,-2.44608c0.61564,-0.41456 1.32074,-0.80811 2.13123,-1.51104c0.7285,-0.63182 2.27823,-2.17765 3.39305,-2.29423c0.77346,-0.08088 1.4849,-0.1067 2.13266,-0.0829c0.03766,0.08937 0.07659,0.17808 0.11676,0.26611c0.07911,0.52236 0.17975,1.03214 0.30358,1.52747c0.5157,2.06279 1.13083,3.93515 1.85988,5.67892c-0.22156,0.20953 -0.45848,0.42014 -0.71089,0.63135c-1.52899,1.27936 -4.11233,1.05377 -5.95719,0.68198c-0.1591,0.03176 -0.32367,0.04842 -0.49212,0.04842h-0.00001c-0.257,0 -0.50494,-0.03878 -0.73828,-0.11081z" fill="#707070"/><path d="M283.50102,184.87006c0,-1.2028 0.84942,-2.20721 1.98111,-2.44609c0.46426,-0.31263 0.97941,-0.6133 1.55226,-1.04373c-0.4928,1.97192 -0.91919,3.97133 -1.27772,5.97803c-1.26603,-0.12281 -2.25565,-1.18994 -2.25565,-2.48821z" fill="#707070"/><path d="M234.08572,260.69354c1.25,0 1.25,1.25 1.25,1.25l-0.12526,0.89432c-0.62562,1.26914 -1.50665,2.41056 -2.44277,3.47159c-0.3979,0.79801 -3.41877,4.0812 -3.41983,4.68412c-0.00032,0.18238 0.37972,-0.04552 0.54638,0.02854c0.67743,0.30101 1.30845,0.70305 1.99498,0.98269c1.16163,0.47317 4.04708,1.31652 4.14434,3.19764c0.06182,1.1956 -3.99307,4.78183 -4.80717,5.54067c-0.63885,0.59549 -1.36688,1.08834 -2.07317,1.60203c-0.56728,0.41259 -2.36744,0.98758 -1.70861,1.22838c0.99118,0.36229 1.97378,0.80409 2.82715,1.42495c0.66382,0.48296 1.50716,0.69293 2.31453,0.84145c0,0 1.22573,0.24515 0.98058,1.47087c-0.24515,1.22573 -1.47087,0.98058 -1.47087,0.98058c-2.27195,-0.48223 -8.37162,-2.76637 -6.80789,-5.96494c0.44725,-0.91482 1.54795,-1.32392 2.34084,-1.96287c1.95807,-1.57791 4.19092,-3.53912 5.90462,-5.16115c0.12048,-0.11404 -0.34048,0.04174 -0.49754,-0.01167c-0.70004,-0.23807 -1.35895,-0.58392 -2.04735,-0.8538c-0.94337,-0.36983 -3.83027,-1.42045 -4.0283,-2.60187c-0.39817,-2.37539 2.77393,-4.87574 3.73243,-6.82021c0.85979,-0.97336 1.71092,-1.99476 2.26819,-3.16783l-0.12526,0.19648c0,0 0,-1.25 1.25,-1.25z" fill="#717171"/><path d="M270.51205,166.06228c-1.11803,-0.55902 -0.55902,-1.67705 -0.55902,-1.67705l0.77358,-1.17888c0.90995,-0.59961 1.53862,-1.92231 2.62814,-1.94441c1.6855,-0.03419 2.69818,1.75244 4.23148,2.08862c0.68863,0.15099 0.90167,-1.10631 1.47691,-1.51388c0.7497,-0.53119 1.87258,-0.46906 2.51675,-1.12425c0.44277,-0.45034 -1.02823,-2.54907 -0.93298,-3.59712c0.13474,-1.48262 0.84785,-2.20084 1.60987,-3.12139c-0.25289,-0.10811 -0.47614,-0.25483 -0.64348,-0.47597c-0.61443,-0.81202 -0.2898,-2.01873 -0.52636,-3.00915c-0.19869,-0.83188 -0.66148,-1.59801 -0.77645,-2.44552c-0.03603,-0.26563 0.59357,-0.62246 0.34624,-0.72583c-2.16474,-0.9048 -5.06132,2.98701 -6.25935,4.18503l-0.69784,0.69784c0,0 -0.88388,0.88388 -1.76777,0c-0.88388,-0.88388 0,-1.76777 0,-1.76777l0.69784,-0.69784c2.17561,-2.17561 6.10286,-6.92024 9.7909,-4.18901c1.1867,0.87883 0.39459,5.35418 1.13695,6.38055c0.32823,0.4538 1.12634,0.13365 1.64375,0.34804c0.56589,0.23448 0.9857,0.75403 1.55594,0.97775c1.92863,0.75666 4.47378,-2.51914 6.15939,-2.82924c1.55522,-0.28611 2.59531,1.04662 3.91277,1.42165c1.0266,0.29224 2.1346,-0.03344 3.20199,-0.03344c0,0 1.25,0 1.25,1.25c0,1.25 -1.25,1.25 -1.25,1.25c-0.31867,0 -3.61298,0.00957 -3.77637,-0.03344c-1.08236,-0.28489 -1.97535,-1.62274 -3.0656,-1.3697c-2.59798,0.60298 -3.78292,3.73652 -7.09951,2.75345c-0.51679,-0.15318 -0.94783,-0.50008 -1.40084,-0.80272c-0.74076,0.84289 -2.22408,2.40034 -1.69934,3.19527c0.24753,0.37499 1.02683,0.34613 1.09165,0.79075c0.16201,1.11123 0.03498,2.34056 -0.49042,3.33305c-0.33249,0.62808 -1.21781,0.73376 -1.84214,1.07324c-0.93162,0.50657 -2.92216,2.59885 -3.93392,2.56916c-1.54724,-0.0454 -2.60828,-1.89349 -4.14256,-2.0984c-0.72511,-0.09684 -0.95199,1.13631 -1.55888,1.54478l0.07574,0.21679c0,0 -0.55902,1.11803 -1.67705,0.55902z" fill="#717171"/><path d="M221.2118,119.37572c0.20303,0.02622 0.42077,0.0309 0.66178,0.0059zM221.1118,119.36091c0.06904,-0.12667 0.62562,-1.06721 1.66972,-0.54516c1.11803,0.55902 0.55902,1.67705 0.55902,1.67705l-1.46695,1.38882c-2.09148,-0.10619 -2.29833,-1.18868 -4.18702,-1.04676c0,0 -0.05924,0 -0.15193,-0.0129c-0.3003,0.71737 -0.61656,1.42481 -0.18043,1.94383c0.4099,0.48781 2.45996,1.04437 3.07796,1.18908l0.94683,1.91051c0,0 0,1.25 -1.25,1.25c-0.89642,0 -1.14998,-0.64285 -1.22171,-1.00654c-1.3215,-0.42874 -3.15538,-1.17964 -3.67971,-2.02873c-1.72679,-2.79634 2.11024,-6.7389 0.37217,-9.03567c0,0 -0.0246,-0.0369 -0.05758,-0.10144c-0.55938,-0.2282 -1.05938,-0.5357 -1.36134,-0.98153c-0.53442,-0.78903 0.36323,-1.99465 -0.03878,-2.85869c-1.36843,-2.9412 -6.03861,1.27716 -8.01271,0.06812c-1.66601,-1.02035 -0.3613,-2.71023 -1.18987,-3.96108c-0.18802,-0.28385 -0.70104,0.03599 -1.01748,-0.08966c-1.16018,-0.46068 -1.97633,-1.56568 -3.11293,-2.0818c-1.18064,-0.53612 -2.52448,-0.60701 -3.75503,-1.01575c0,0 -1.18585,-0.39528 -0.79057,-1.58114c0.39528,-1.18585 1.58114,-0.79057 1.58114,-0.79057c1.28548,0.43011 2.68669,0.51784 3.92117,1.07776c1.15458,0.52368 2.01493,1.57736 3.1676,2.10522c0.56832,0.26026 1.39748,0.10913 1.77386,0.60818c0.76743,1.01753 -0.07101,2.89393 0.90364,3.71513c0.65392,0.55097 1.48023,-0.86711 2.27006,-1.19475c1.46999,-0.60977 2.30376,-0.57806 3.77539,0.01171c0.37685,0.15102 2.58275,1.73957 2.68991,1.94899c0.41365,0.80841 -0.52225,1.95531 -0.03878,2.72401c0.37086,0.58966 1.35446,0.32617 2.0312,0.49124l0.95368,0.44356c0,0 1.11803,0.55902 0.55902,1.67705c-0.38999,0.77998 -1.05206,0.74375 -1.41677,0.65053c0.03561,0.82186 -0.17422,1.58786 -0.35062,2.45716c1.38316,0.16474 2.0412,0.82929 3.02784,0.9942z" fill="#717171"/><path d="M211.20278,160.40831c0,-1.25 1.25,-1.25 1.25,-1.25h1.04676c0.14563,0.0007 0.31979,-0.00619 0.50757,-0.01063c-0.59347,-0.98229 -1.25079,-2.22682 -0.84482,-3.27826c0.14156,-0.36663 1.09684,-0.49457 2.03936,-0.53635c-0.05867,-0.37051 -0.16791,-0.70998 -0.43061,-0.96143c-0.37044,-0.35457 -0.8519,-0.53443 -1.35448,-0.68516c-0.31783,0.3369 -0.67561,0.62919 -1.08964,0.85492c-0.2547,0.13886 -0.48446,0.25642 -0.69193,0.35437c0.72158,1.66278 -0.45877,2.62587 -2.68282,4.11478c-0.72312,0.4841 -2.43158,2.0622 -3.37399,1.92565c-1.55089,-0.22472 -1.81942,-2.87548 -4.16136,-1.81547c-2.66044,1.20417 -3.01353,3.17952 -6.40997,3.23542c0,0 -1.25,0 -1.25,-1.25c0,-1.25 1.25,-1.25 1.25,-1.25c2.83442,0.06503 3.12615,-2.07527 5.45326,-3.04511c2.24868,-0.93716 4.54966,0.05313 5.60836,1.67372c0.09096,0.13923 -0.03592,-0.37294 0.07964,-0.49254c0.41406,-0.42849 0.92208,-0.76145 1.43123,-1.071c1.12324,-0.68291 2.69054,-0.79305 1.43423,-1.71982l-1.28261,-0.64131c-0.42281,-0.20043 -0.7152,-0.63114 -0.7152,-1.13014c0,-0.69036 0.55964,-1.25 1.25,-1.25h1.39567c0.49944,-0.09959 1.08904,0.40745 1.52153,0.13854c0.00719,-0.00447 0.01436,-0.00897 0.0215,-0.0135c-0.06128,-0.25272 -0.03591,-0.5599 0.17644,-0.91383c0.34843,-0.58072 0.82272,-0.65804 1.18421,-0.60697c0.87956,-1.46925 1.44076,-3.37774 2.59468,-4.2609c2.77666,-2.12514 6.09169,0.86753 8.1611,2.4171l0.29726,-0.24962c0,0 1.25,0 1.25,1.25c0,1.25 -1.25,1.25 -1.25,1.25l-1.79625,-0.24962c-0.75099,-0.56297 -3.96725,-3.65313 -5.0978,-2.46776c-0.77138,0.80879 -1.30421,2.00538 -1.92067,3.15623c0.60137,0.19515 1.18026,0.41817 1.6116,0.85862c0.72055,0.73577 0.6542,1.94734 1.02758,2.91668c0.32342,0.11131 0.71306,0.36889 0.78454,0.96492c1.0722,0.61694 2.99446,0.5428 3.89155,0.71924l1.22181,1.36455c0,0 0.55902,1.11803 -0.55902,1.67705c-1.11803,0.55902 -1.67705,-0.55902 -1.67705,-0.55902l0.52397,-0.03113c-1.07106,-0.21831 -2.21017,-0.06485 -3.25735,-0.37828c-0.02693,-0.00806 -0.07198,-0.02937 -0.1316,-0.06154c-0.0146,0.42983 -0.17452,0.96465 -0.54342,1.62712c-0.60106,1.07938 -3.10347,0.9261 -4.19653,0.93048h-1.04676c0,0 -1.25,0 -1.25,-1.25z" fill="#717171"/><path d="M197.64429,203.18294c-0.30317,-1.21268 0.90951,-1.51585 0.90951,-1.51585l1.54611,-0.37687c0.79189,0.0286 1.65073,-0.23416 2.37568,0.08579c1.12288,0.49557 1.50661,2.03203 1.76388,3.23214c0.18502,0.86307 1.2732,1.18619 2.07555,1.63856c0.31789,-0.19986 0.69407,-0.34643 1.14174,-0.42383c0.02734,-0.00473 3.00422,1.43897 3.22276,1.57628c0.45429,0.28542 0.87484,0.62483 1.27572,0.9814c0.11463,0.10196 0.20058,0.52451 0.25695,0.38183c0.24439,-0.61859 0.12171,-1.32117 0.17891,-1.98699l-0.60356,-0.40237c-0.34463,-0.22257 -0.57276,-0.61005 -0.57276,-1.05082c0,-0.69036 0.55964,-1.25 1.25,-1.25h0.68745c1.74568,-0.94836 3.83574,-2.20973 5.10858,-2.07517c0.28328,0.02995 2.18006,1.32495 2.57354,1.58727l0.55662,1.38898c0,0 0,1.25 -1.25,1.25c-0.89372,0 -1.14845,-0.63899 -1.22106,-1.00324c-0.33207,-0.31689 -0.65573,-0.64537 -1.08579,-0.75969c-1.38866,-0.36915 -1.82373,2.20702 -3.15145,1.90181c0.06929,0.86482 0.13039,1.83793 -0.06666,2.71247c2.42397,1.40861 4.56869,0.92548 4.68146,4.62161v1.39567c0,0 0,1.25 -1.25,1.25c-1.25,0 -1.25,-1.25 -1.25,-1.25v-1.39567c0.09854,-1.89866 -1.91578,-1.65875 -3.63362,-2.59057c-2.22489,1.15009 -4.09227,-2.9601 -5.46076,-2.79496c-0.53615,0.0647 -0.52416,0.94495 -0.76087,1.43035c-0.49321,1.0114 -1.54643,4.50429 -2.10403,4.79103c-1.2795,0.65797 -3.07468,-2.48123 -4.26092,-2.07117c-1.0139,0.35049 -3.45817,3.22806 -4.4595,3.97991c0,0 -1,0.75 -1.75,-0.25c-0.75,-1 0.25,-1.75 0.25,-1.75c1.29908,-0.97315 3.76551,-4.01328 5.31021,-4.39413c0.77814,-0.19185 3.12977,0.62169 3.77315,1.19055c0.24617,0.21766 0.23213,1.2357 0.33997,0.9253c0.34285,-0.98685 0.4032,-2.54457 0.84237,-3.87636c-0.68637,-0.43672 -1.42088,-0.81358 -2.01001,-1.37121c-1.6776,-1.5879 0.00109,-3.33373 -2.46811,-3.1435l-1.24523,0.32096c0,0 -1.21268,0.30317 -1.51585,-0.90951z" fill="#717171"/><g><path d="M234.86191,136.42622c-1.14704,-1.89301 -1.69589,-5.10941 -0.79311,-7.08519c0.19179,-0.41973 0.9488,-0.27831 1.22233,-0.64998c0.6779,-0.92112 -0.75075,-2.61352 -1.20515,-3.14092l-0.02484,-0.1487l-0.04706,0.02353l-0.58094,-1.16187c-0.09145,-0.1737 -0.14321,-0.37156 -0.14321,-0.58151c0,-0.69035 0.55964,-1.25 1.25,-1.25c0.1847,0 0.36003,0.04005 0.5178,0.11195l1.29851,0.55651c0.01317,0.00405 0.02612,0.00968 0.03885,0.01665l0.019,0.00814l-0.00111,0.00259c0.18228,0.11894 0.32166,0.49613 0.46953,0.36414c1.53524,-1.37047 2.71379,-6.58512 5.42494,-6.58512c0.23799,0 2.75111,2.94458 3.19833,2.66132c0.67807,-0.42948 0.77241,-2.27649 0.71775,-3.01741l-0.61239,-0.76549c-0.17514,-0.21512 -0.28014,-0.48962 -0.28014,-0.78864c0,-0.69035 0.55964,-1.25 1.25,-1.25c0.26266,0 0.5064,0.08101 0.70759,0.21941l1.17015,0.7801l-0.0271,0.04065c0.06,0.02454 0.1195,0.05049 0.17845,0.07803c0.90926,0.42476 1.75201,2.88039 2.60254,3.12558c1.50387,0.43354 3.61836,-1.24367 5.14947,-1.47711l0.08861,0.03165v-0.03479h1.38176c0.69036,0 1.25,0.55965 1.25,1.25c0,0.499 -0.2924,0.92972 -0.7152,1.13014l-1.16014,0.58007l-0.11918,-0.23836c-0.29975,0.36404 -0.43919,0.74143 -0.22665,1.13958c0.14138,0.26485 0.38824,0.51686 0.56758,0.77815c0.2283,-0.30036 0.5894,-0.4943 0.99579,-0.4943c0.58089,0 1.06923,0.39623 1.2095,0.93317l0.3872,1.35519l-0.01927,0.0055c0.01999,0.05414 0.03846,0.10895 0.05528,0.16452c0.21261,0.70234 0.43547,4.89782 0.16761,5.82386c-0.0577,0.19948 -0.1687,0.54806 -0.33749,0.90163c1.11319,-0.57027 2.90526,-1.4065 3.79392,0.17951c0.0627,0.11192 -1.30176,3.14382 -1.47958,3.84255c-0.41168,1.61773 -0.24722,3.52235 -1.97281,4.52625c-1.83877,1.06974 -5.85888,0.55938 -7.92358,0.55938c-4.61277,0 -11.55963,1.25062 -15.62215,-0.95427l-0.95947,-0.29424c0,0 -0.97648,-0.32549 -0.86189,-1.27184z" fill="#ee0000"/><path d="M237.15533,137.64877c-0.71026,-1.18377 -0.85224,-5.06424 -0.67159,-6.13897c0.18529,-1.10233 1.37265,-2.13889 2.54578,-2.13889c0.77724,0 2.30563,1.08077 2.31189,0.30355c0.00625,-0.77641 0.62018,-3.76288 2.19081,-2.19225c0.37939,0.37938 0.84559,4.37545 -0.25873,5.11166c-0.5654,0.37694 -4.32434,-0.76873 -4.32708,-0.52698c-0.02381,2.10321 0.4319,3.36538 1.03195,5.16553c0.04749,0.1321 0.07337,0.27451 0.07337,0.42297c0,0.13216 -0.02051,0.25955 -0.05853,0.37912c-0.14587,0.61088 -0.50114,0.84079 -0.91799,0.84087c-0.08802,0.01964 -0.17954,0.03001 -0.27348,0.03001c-0.46174,0 -0.86501,-0.25036 -1.08146,-0.62274c-0.23642,-0.19644 -0.43645,-0.4197 -0.56495,-0.63388z" fill="#dd0000"/><path d="M256.79112,128.66152c1.35456,3.34136 -0.13754,5.4035 -0.55431,8.26105c-0.12977,0.88977 0.08053,2.61051 -1.63212,2.18234c-2.74726,-0.68681 0.25784,-3.95463 0.23744,-5.31351c-0.01297,-0.86378 -0.29557,-2.65927 -0.39476,-3.74593c-0.01934,-0.21183 -0.49887,-0.20867 -0.98387,-0.19671c-0.11737,0.03648 -0.24215,0.05614 -0.37153,0.05614c-0.14548,0 -0.28515,-0.02485 -0.415,-0.07054c-0.48637,-0.17113 -0.835,-0.63458 -0.835,-1.17946c0,-0.69035 0.55964,-1.25 1.25,-1.25c0.15724,0 0.3077,0.02904 0.44631,0.08204c1.24695,-0.34836 2.74057,-0.08908 3.25284,1.17458z" fill="#dd0000"/><path d="M242.5128,139.33242c-0.51773,0.44425 -1.23344,0.18321 -1.23344,0.18321c-0.69693,-0.32293 -1.65458,-0.33656 -2.09081,-0.96879c-0.90403,-1.31023 -0.459,-4.70664 -0.48003,-6.28788l0.08724,-0.14913l-0.05746,-0.01447l0.3363,-1.33572c0.14185,-0.60396 0.71421,-1.02235 1.34736,-0.95578c0.43835,0.04609 0.79985,0.31348 0.98516,0.67949l0.65241,1.24327l-0.04695,0.02463c0.69452,0.5868 1.17414,0.50077 1.27596,-1.49566c0.01889,-0.37036 -0.095,-0.73493 -0.15284,-1.10194l-0.74302,-1.31138c-0.12923,-0.22162 -0.19163,-0.48487 -0.16276,-0.75957c0.07218,-0.68657 0.68728,-1.18463 1.37385,-1.11244c0.26122,0.02747 0.49515,0.13352 0.68077,0.2922l1.08217,0.89818l-0.189,0.22772c0.29791,0.18692 0.57915,0.39428 0.83519,0.62733l0.10922,0.04249c0.52481,-2.03145 2.96507,-3.43044 5.18604,-3.59649c1.03432,-0.07733 2.44081,-0.50498 3.09732,0.29801c0.58901,0.72043 -0.37119,1.82585 -0.63012,2.71967c-0.1264,0.43633 -1.16001,1.37752 -0.79532,1.10667c2.88532,-2.14288 3.24149,3.44177 3.1601,5.2291c-0.09172,2.01423 -0.78185,2.95889 -1.90549,3.70566l-0.14726,0.67303l-0.323,-0.07067l-0.03293,0.70568c-0.77544,0.19837 -1.54349,0.76193 -2.32634,0.59512c-0.08577,-0.01827 -0.16948,-0.04157 -0.2514,-0.06924l-0.00812,0.03225l-0.98701,-0.24851c-0.16739,0.01991 -0.32787,0.04036 -0.47562,0.06459c-1.68074,0.27556 -4.82957,0.71487 -7.17019,0.12939zM251.1237,127.11612c-0.01494,0.00451 -0.02986,0.00902 -0.04476,0.01351c0.00872,0.00963 0.01732,0.01942 0.02579,0.0294c0.00625,-0.01435 0.01257,-0.02866 0.01897,-0.04291z" fill="#ffde00"/><path d="M254.71516,126.34299c-0.17677,1.23744 -1.41421,1.06066 -1.41421,1.06066l-0.17812,-0.09743c-1.92059,0.38314 -3.06572,0.82258 -4.60743,2.06477c0,0 -0.97608,0.78087 -1.75695,-0.19521c-0.78087,-0.97609 0.19521,-1.75696 0.19521,-1.75696c1.84441,-1.4664 3.38917,-2.10502 5.67888,-2.56406l1.02196,0.07401c0,0 1.23743,0.17678 1.06066,1.41421z" fill="#ffe850"/><path d="M243.34885,126.14605c1.22024,-0.27116 1.4914,0.94907 1.4914,0.94907l-0.40568,-0.02923c0.8385,0.50383 1.69797,0.97413 2.57319,1.41106c0,0 1.11803,0.55902 0.55901,1.67705c-0.55901,1.11803 -1.67705,0.55902 -1.67705,0.55902c-0.93189,-0.46662 -1.8474,-0.96773 -2.74139,-1.5034l-0.74856,-1.57218c0,0 -0.27116,-1.22024 0.94907,-1.4914z" fill="#ffe850"/><path d="M254.50635,134.01659c-1.25,0 -1.25,-1.25 -1.25,-1.25l0.00277,-0.34545c-0.03561,-0.71123 -0.21059,-1.42672 -0.50173,-2.07661c0,0 -0.4924,-1.14893 0.65653,-1.64133c1.14893,-0.4924 1.64133,0.65653 1.64133,0.65653c0.38028,0.91699 0.62051,1.90545 0.69833,2.89511l0.00277,0.51175c0,0 0,1.25 -1.25,1.25z" fill="#ffe850"/><path d="M241.75283,134.08778c-0.27394,0.04215 -0.49649,0.0142 -0.67696,-0.05482c-0.05746,0.37441 -0.27675,0.8638 -1.01026,0.99325c-1.23098,0.21723 -1.44822,-1.01375 -1.44822,-1.01375c-0.40675,-2.92716 0.22585,-4.21149 3.26632,-3.42342l0.9145,2.07321c0,0 0.19007,1.23547 -1.04539,1.42554zM240.84468,132.90165l0.05423,-0.01476c-0.40049,-0.65467 -0.24772,-0.43751 -0.05423,0.01476z" fill="#ffe850"/><path d="M253.87053,137.82402c0,1.25 -1.25,1.25 -1.25,1.25l-0.67374,-0.02427c-4.23492,-0.94772 -7.9232,2.26842 -12.12418,-0.54086c0,0 -1.02774,-0.71151 -0.31623,-1.73925c0.71151,-1.02774 1.73925,-0.31623 1.73925,-0.31623c3.26804,2.37816 7.5768,-0.51959 11.19145,0.14489l0.18345,-0.02428c0,0 1.25,0 1.25,1.25z" fill="#f5d400"/></g><g data-paper-data="{&quot;index&quot;:null}"><path d="M260.89056,245.05604l-0.95947,0.29424c-4.06252,2.20489 -11.00938,0.95427 -15.62215,0.95427c-2.0647,0 -6.0848,0.51036 -7.92358,-0.55938c-1.72559,-1.00389 -1.56113,-2.90851 -1.97281,-4.52624c-0.17782,-0.69873 -1.54228,-3.73063 -1.47957,-3.84255c0.88866,-1.586 2.68072,-0.74977 3.79391,-0.17951c-0.16879,-0.35357 -0.27979,-0.70216 -0.33749,-0.90163c-0.26787,-0.92604 -0.04501,-5.12152 0.16761,-5.82386c0.01682,-0.05557 0.0353,-0.11038 0.05528,-0.16452l-0.01927,-0.0055l0.3872,-1.35519c0.14026,-0.53693 0.6286,-0.93317 1.2095,-0.93317c0.40639,0 0.76749,0.19393 0.99579,0.4943c0.17934,-0.26128 0.42621,-0.5133 0.56759,-0.77815c0.21254,-0.39815 0.07309,-0.77554 -0.22666,-1.13958l-0.11918,0.23836l-1.16014,-0.58007c-0.42281,-0.20043 -0.7152,-0.63114 -0.7152,-1.13014c0,-0.69036 0.55964,-1.25 1.25,-1.25h1.38176v0.0348l0.08861,-0.03165c1.53111,0.23344 3.64559,1.91065 5.14946,1.47711c0.85054,-0.24519 1.69329,-2.70083 2.60255,-3.12558c0.05895,-0.02754 0.11845,-0.05349 0.17845,-0.07803l-0.0271,-0.04065l1.17015,-0.7801c0.2012,-0.13841 0.44493,-0.21941 0.70759,-0.21941c0.69036,0 1.25,0.55964 1.25,1.25c0,0.29903 -0.105,0.57352 -0.28014,0.78865l-0.61239,0.76549c-0.05466,0.74092 0.03968,2.58792 0.71775,3.0174c0.44721,0.28326 2.96034,-2.66132 3.19833,-2.66132c2.71115,0 3.88969,5.21464 5.42493,6.58512c0.14786,0.13199 0.28725,-0.24519 0.46953,-0.36414l-0.00112,-0.00259l0.019,-0.00815c0.01274,-0.00698 0.02568,-0.01261 0.03885,-0.01665l1.29851,-0.55651c0.15777,-0.0719 0.3331,-0.11195 0.51779,-0.11195c0.69036,0 1.25,0.55964 1.25,1.25c0,0.20995 -0.05176,0.4078 -0.14321,0.58151l-0.58094,1.16188l-0.04706,-0.02353l-0.02484,0.1487c-0.4544,0.5274 -1.88306,2.2198 -1.20516,3.14092c0.27353,0.37167 1.03055,0.23025 1.22234,0.64998c0.90278,1.97578 0.35393,5.19218 -0.79311,7.08519c0.11458,0.94635 -0.86189,1.27184 -0.86189,1.27184z" fill="#ee0000"/><path d="M258.89408,245.64063c-0.21645,0.37238 -0.61972,0.62274 -1.08146,0.62274c-0.09394,0 -0.18547,-0.01037 -0.27348,-0.03001c-0.41685,-0.00008 -0.77211,-0.22999 -0.91798,-0.84087c-0.03801,-0.11957 -0.05853,-0.24696 -0.05853,-0.37912c0,-0.14846 0.02588,-0.29086 0.07337,-0.42297c0.60005,-1.80015 1.05575,-3.06232 1.03195,-5.16553c-0.00273,-0.24175 -3.76167,0.90392 -4.32707,0.52698c-1.10432,-0.73621 -0.63811,-4.73227 -0.25873,-5.11166c1.57063,-1.57063 2.18456,1.41583 2.19081,2.19224c0.00626,0.77722 1.53464,-0.30354 2.31189,-0.30354c1.17313,0 2.36049,1.03656 2.54578,2.13889c0.18066,1.07473 0.03867,4.9552 -0.67159,6.13897c-0.12851,0.21418 -0.32853,0.43744 -0.56495,0.63388z" fill="#dd0000"/><path d="M243.07608,234.84493c0.13861,-0.053 0.28907,-0.08203 0.44631,-0.08203c0.69036,0 1.25,0.55964 1.25,1.25c0,0.54488 -0.34863,1.00833 -0.83499,1.17946c-0.12985,0.04569 -0.26953,0.07054 -0.41501,0.07054c-0.12938,0 -0.25416,-0.01966 -0.37153,-0.05614c-0.485,-0.01197 -0.96454,-0.01512 -0.98387,0.19671c-0.09919,1.08666 -0.38179,2.88215 -0.39475,3.74593c-0.0204,1.35888 2.9847,4.6267 0.23744,5.31351c-1.71266,0.42817 -1.50235,-1.29258 -1.63212,-2.18234c-0.41678,-2.85755 -1.90887,-4.91969 -0.55432,-8.26105c0.51227,-1.26365 2.00589,-1.52294 3.25284,-1.17458z" fill="#dd0000"/><path d="M246.93138,246.56102c-0.14775,-0.02423 -0.30822,-0.04467 -0.47562,-0.06458l-0.98701,0.2485l-0.00812,-0.03225c-0.08192,0.02767 -0.16563,0.05097 -0.2514,0.06924c-0.78285,0.16681 -1.5509,-0.39674 -2.32634,-0.59512l-0.03292,-0.70568l-0.323,0.07067l-0.14726,-0.67303c-1.12364,-0.74677 -1.81377,-1.69143 -1.90549,-3.70566c-0.08139,-1.78733 0.27478,-7.37197 3.1601,-5.2291c0.36469,0.27085 -0.66893,-0.67033 -0.79532,-1.10666c-0.25893,-0.89382 -1.21913,-1.99923 -0.63011,-2.71966c0.65651,-0.80299 2.063,-0.37534 3.09732,-0.29801c2.22097,0.16606 4.66123,1.56504 5.18604,3.59649l0.10922,-0.04249c0.25605,-0.23305 0.53728,-0.44042 0.83519,-0.62734l-0.189,-0.22771l1.08217,-0.89818c0.18562,-0.15868 0.41955,-0.26473 0.68077,-0.2922c0.68657,-0.07218 1.30167,0.42587 1.37385,1.11244c0.02888,0.2747 -0.03352,0.53795 -0.16276,0.75957l-0.74302,1.31138c-0.05784,0.36701 -0.17173,0.73158 -0.15284,1.10194c0.10182,1.99643 0.58143,2.08246 1.27596,1.49566l-0.04695,-0.02463l0.65241,-1.24327c0.18532,-0.36601 0.54681,-0.6334 0.98516,-0.67949c0.63315,-0.06657 1.20551,0.35181 1.34736,0.95577l0.3363,1.33572l-0.05746,0.01447l0.08724,0.14913c-0.02103,1.58124 0.424,4.97765 -0.48003,6.28787c-0.43622,0.63223 -1.39387,0.64586 -2.09081,0.96879c0,0 -0.71572,0.26104 -1.23344,-0.18321c-2.34062,0.58548 -5.48945,0.14617 -7.17019,-0.12939zM245.50964,234.51702c0.00847,-0.00997 0.01706,-0.01977 0.02578,-0.0294c-0.01489,-0.00449 -0.02981,-0.009 -0.04475,-0.01351c0.00639,0.01425 0.01272,0.02856 0.01897,0.04291z" fill="#ffde00"/><path d="M242.95986,232.28676l1.02196,-0.07401c2.2897,0.45904 3.83446,1.09766 5.67888,2.56406c0,0 0.97608,0.78087 0.19521,1.75695c-0.78087,0.97609 -1.75696,0.19522 -1.75696,0.19522c-1.54171,-1.2422 -2.68683,-1.68163 -4.60742,-2.06477l-0.17812,0.09743c0,0 -1.23744,0.17677 -1.41421,-1.06066c-0.17677,-1.23744 1.06066,-1.41422 1.06066,-1.41422z" fill="#ffe850"/><path d="M254.21458,234.99543l-0.74856,1.57217c-0.89399,0.53567 -1.80951,1.03677 -2.7414,1.5034c0,0 -1.11803,0.55901 -1.67705,-0.55902c-0.55901,-1.11803 0.55901,-1.67705 0.55901,-1.67705c0.87523,-0.43694 1.73469,-0.90724 2.57319,-1.41106l-0.40568,0.02923c0,0 0.27116,-1.22024 1.4914,-0.94907c1.22024,0.27116 0.94907,1.4914 0.94907,1.4914z" fill="#ffe850"/><path d="M240.85801,240.12458l0.00276,-0.51174c0.07782,-0.98966 0.31805,-1.97812 0.69834,-2.89511c0,0 0.4924,-1.14893 1.64133,-0.65653c1.14893,0.4924 0.65654,1.64133 0.65654,1.64133c-0.29114,0.64989 -0.46613,1.36538 -0.50173,2.07661l0.00277,0.34545c0,0 0,1.25 -1.25,1.25c-1.25,0 -1.25,-1.25 -1.25,-1.25z" fill="#ffe850"/><path d="M253.81614,240.02022l0.91451,-2.07321c3.04047,-0.78807 3.67307,0.49626 3.26632,3.42342c0,0 -0.21723,1.23098 -1.44821,1.01375c-0.73351,-0.12945 -0.95281,-0.61883 -1.01026,-0.99325c-0.18048,0.06902 -0.40302,0.09697 -0.67696,0.05482c-1.23547,-0.19007 -1.0454,-1.42554 -1.0454,-1.42554zM255.71545,240.24488l0.05424,0.01475c0.19349,-0.45227 0.34625,-0.66943 -0.05424,-0.01475z" fill="#ffe850"/><path d="M243.99383,243.93201l0.18345,0.02427c3.61464,-0.66448 7.92341,2.23327 11.19145,-0.14489c0,0 1.02774,-0.71151 1.73925,0.31623c0.71151,1.02774 -0.31623,1.73926 -0.31623,1.73926c-4.20098,2.80928 -7.88926,-0.40687 -12.12418,0.54086l-0.67374,0.02428c0,0 -1.25,0 -1.25,-1.25c0,-1.25 1.25,-1.25 1.25,-1.25z" fill="#f5d400"/></g><path d="M247.09382,145.24589c1,0.75 0.25,1.75 0.25,1.75l-1.36857,1.26941c-0.88276,0.12967 -1.76552,0.25934 -2.64827,0.38902c-0.45278,-0.28053 -2.60919,-2.33683 -3.01259,-2.17884c-2.30688,0.90353 -2.70768,4.36024 -5.53777,4.37362c-3.96738,0.01875 -1.82534,-4.21567 -5.14921,-4.9397c-0.70338,-0.15321 -3.25157,2.63576 -4.15942,2.76994c-0.94557,0.13975 -1.91819,-1.39171 -2.72792,-0.88381c-0.49628,0.31129 -0.78242,0.87213 -1.17363,1.30819c0,0 -0.88388,0.88388 -1.76777,0c-0.88388,-0.88388 0,-1.76777 0,-1.76777c0.66156,-0.6167 1.15733,-1.48477 1.98468,-1.85012c1.11463,-0.49221 2.37119,0.74403 3.5887,0.69535c1.01103,-0.04042 1.79183,-2.06279 2.35956,-2.38517c3.66318,-2.08011 5.82102,2.07718 6.53342,4.5975c0.10109,0.35765 0.79068,-0.10791 1.05054,-0.37364c0.98741,-1.00969 1.65834,-2.34656 2.79638,-3.18282c2.75943,-2.02773 3.76255,-0.22917 5.72168,1.36915c0.5648,-0.13352 1.12961,-0.26704 1.69441,-0.40057l-0.18421,-0.30974c0,0 0.75,-1 1.75,-0.25z" fill="#717171"/><path d="M242.86964,164.97076c-1.15676,0.47371 -1.63047,-0.68305 -1.63047,-0.68305l-0.65524,-2.05542c3.33427,-3.18164 -1.14689,-0.19969 -2.85256,-3.57075c-1.1789,-2.32997 0.94337,-3.15084 1.11684,-5.09152c0.04904,-0.54868 -1.12273,-0.03427 -1.63587,-0.23461c-2.33137,-0.91024 -2.97193,-1.72474 -3.1726,-4.12859c0,0 0,-1.25 1.25,-1.25c1.25,0 1.25,1.25 1.25,1.25c-0.4815,2.37799 3.94125,1.18039 4.66645,3.53257c0.30485,0.98878 -1.67861,4.11869 -1.25189,4.7782c0.77438,1.19684 4.48134,0.8048 4.64951,2.67256c0.08529,0.94725 -1.03027,1.599 -1.5454,2.3985l0.49429,0.75164c0,0 0.47371,1.15676 -0.68305,1.63047z" fill="#717171"/><path d="M240.78722,205.3044c0.17678,-1.23744 1.41421,-1.06066 1.41421,-1.06066l1.47923,0.2145c0.8265,-0.00207 1.66697,0.51854 2.46213,0.29308c0.19737,-0.05596 -0.242,-0.37937 -0.20342,-0.58086c0.15971,-0.83388 0.07028,-1.95767 0.7791,-2.42503c0.69675,-0.4594 1.65943,0.1797 2.48907,0.27018c1.35167,0.14742 2.73549,0.00024 3.85992,0.38842c-0.92296,-4.76142 8.70221,-3.76338 11.93814,-2.23469c0.96649,0.45658 1.92512,1.19644 2.99307,1.15096c0,0 0.15368,0 0.35327,0.05389c0.4472,-1.28318 0.76774,-2.83826 0.90232,-3.38158c0.11975,-0.20193 0.2395,-0.40385 0.35926,-0.60578l-0.7247,-0.48313c-0.34463,-0.22257 -0.57276,-0.61005 -0.57276,-1.05082c0,-0.69036 0.55964,-1.25 1.25,-1.25h1.34348v0.24383c1.71443,-0.34921 2.5663,-0.62994 2.55654,-3.47211v-0.44783c0,0 0,-1.25 1.25,-1.25c1.25,0 1.25,1.25 1.25,1.25v0.44783c-0.00475,1.61215 0.03866,3.77541 -1.32665,4.97477c-0.62244,0.54678 -1.81872,1.01012 -2.72346,0.90443c-0.08226,0.46182 -0.16453,0.92364 -0.24679,1.38547c-0.42803,1.69779 -0.95114,3.75575 -1.92652,5.24525c-0.39194,0.59853 -0.80238,1.25385 -1.42642,1.60373c-0.29951,0.16792 -0.71902,-0.43855 -1.00109,-0.24275c-0.21232,0.14739 0.32018,0.42917 0.36612,0.68351c0.13227,0.73231 -0.86332,1.58478 -0.431,2.19048c0.16346,0.22901 0.38523,-0.46495 0.65978,-0.52645c0.53097,-0.11894 1.09468,-0.07073 1.63232,0.013c1.55469,0.24212 4.03184,-0.06953 5.11745,1.47235c1.78276,2.53203 -1.97397,8.28971 1.28702,9.39135c0,0 1.11803,0.55902 0.55902,1.67705c-0.55902,1.11803 -1.67705,0.55902 -1.67705,0.55902c-0.7652,-0.45218 -1.8646,-0.57921 -2.29561,-1.35653c-1.3551,-2.44387 0.77215,-6.50801 0,-8.95656c-0.19697,-0.62462 -1.30682,0.19019 -1.95983,0.13996c-0.83945,-0.06457 -1.64432,-0.43027 -2.4861,-0.44592c-0.82528,-0.01534 -1.88207,0.4956 -2.47501,-0.07862c-0.65765,-0.63688 -0.6479,-5.76496 -0.06488,-6.5304c0.02023,-0.02655 0.0421,-0.05005 0.06545,-0.07081c-2.22168,-0.66154 -4.33803,-1.89532 -6.85129,-2.05096c-1.62738,-0.10078 -4.05863,-0.33023 -3.01324,1.3028l1.04288,1.04288c0.22621,0.22621 0.36612,0.53871 0.36612,0.88388c0,0.69036 -0.55964,1.25 -1.25,1.25c-0.10251,0 -0.20214,-0.01234 -0.29748,-0.03561l-1.98891,-0.44198l0.07229,-0.3253c-0.82353,-0.11097 -1.61022,-0.24774 -2.78113,-0.31859c-0.73246,-0.04432 -1.48626,-0.02994 -2.18767,-0.24557c-0.28643,-0.08806 -0.35628,-0.70306 -0.64572,-0.62548c-0.25219,0.0676 0.36075,0.45034 0.33128,0.70976c-0.08297,0.73013 -0.04682,1.68819 -0.65124,2.10611c-0.50933,0.35216 -3.28381,0.29521 -4.25529,0.29308l-1.65556,-0.23333c0,0 -1.23744,-0.17678 -1.06066,-1.41421z" fill="#717171"/><path d="M235.08178,91.1723c-0.55902,1.11803 -1.67705,0.55902 -1.67705,0.55902l-0.73192,-0.38001c-0.88073,-0.29562 -2.13589,-0.64391 -2.89319,-1.20967c-0.65142,-0.48666 -1.743,-0.87079 -1.76524,-1.68361c-0.02381,-0.87036 1.01162,-1.43685 1.66411,-2.01337c0.9055,-0.80007 3.36789,-2.05613 5.35211,-2.56257c-0.00245,-0.00675 -0.00487,-0.01351 -0.00724,-0.0203c-1.37301,-3.93025 3.69923,-5.38502 6.86492,-5.9546c0.00429,-0.09532 0.00637,-0.18903 0.00595,-0.28092c-0.00297,-0.65833 0.67252,-1.61124 0.12136,-1.97129c-0.21439,-0.14005 -0.17992,0.52123 -0.39635,0.65809c-0.44446,0.28106 -0.98927,0.35709 -1.48527,0.53179c-2.51142,0.88455 -2.60671,1.21072 -5.34368,0.90992c-0.97661,-0.10733 -2.08777,-0.05389 -2.87751,-0.63835c-0.44137,-0.32664 -0.01131,-1.11828 -0.19522,-1.63565c-0.16694,-0.46963 -4.12158,-1.55844 -4.69514,-1.53063c0,0 -1.25,0 -1.25,-1.25c0,-1.25 1.25,-1.25 1.25,-1.25c1.86263,0.05345 5.87945,1.19246 6.94839,2.94765c0.1854,0.30442 -0.46031,0.81306 -0.19522,1.05132c0.28971,0.26039 0.76393,-0.17042 1.15294,-0.19052c2.22566,-0.11499 3.60483,-0.57217 5.71023,-1.24525c0.75914,-0.24269 1.59165,-1.06831 2.29061,-0.68539c1.84472,1.01061 1.71369,5.48864 1.42977,7.09233c-0.15784,0.89157 -0.9326,1.58647 -1.12985,2.47016c-0.09145,0.40968 0.85283,0.10419 1.25929,-0.00062c0.54556,-0.14068 1.05029,-0.40814 1.57544,-0.61221l0.71536,-0.23936c0,0 1.18585,-0.39528 1.58114,0.79057c0.39528,1.18585 -0.79057,1.58114 -0.79057,1.58114l-0.62812,0.20847c-0.66906,0.24376 -1.30256,0.62852 -2.00719,0.73127c-4.41723,0.64413 -3.99205,-2.07192 -3.45033,-4.83039c-2.12514,0.43835 -4.96222,1.33465 -3.75636,2.92809l1.25481,0.35852c0.53693,0.14026 0.93317,0.62861 0.93317,1.2095c0,0.69036 -0.55964,1.25 -1.25,1.25h-1.34348v-0.153c-1.20865,0.3707 -2.40542,0.69033 -3.69323,1.17513c-0.24102,0.09073 -1.18213,0.64124 -1.96928,0.96175c0.78496,0.26064 1.69894,0.69573 1.80343,0.73029l1.05939,0.51565c0,0 1.11803,0.55902 0.55902,1.67705z" fill="#717171"/><path d="M287.16218,90.98186c0.30317,-1.21268 1.51585,-0.90951 1.51585,-0.90951l0.59249,0.18659c1.84317,0.74365 -0.34642,-0.91447 1.02308,-2.64516c0.49739,-0.62856 1.84591,-1.03295 2.94447,-1.30657c0.00605,-0.10007 0.01283,-0.19846 0.02022,-0.29486c-0.59207,-0.27244 -0.98484,-0.80155 -1.84641,-0.87031c-1.35222,-0.10792 -3.74695,0.86527 -4.79826,-0.08426l-0.41162,1.2486c0,0 -0.39528,1.18585 -1.58114,0.79057c-1.18585,-0.39528 -0.79057,-1.58114 -0.79057,-1.58114l0.41712,-1.23539c0.32674,-0.81413 0.65348,-1.62826 0.98022,-2.44239c2.45661,1.0776 5.85422,0.22702 8.26227,1.18257c0.06836,-0.34208 0.21647,-0.60052 0.53868,-0.66032c1.13573,-0.21077 2.73931,0.6309 2.98544,1.75949c0.15161,0.69519 -0.6037,1.24268 -1.38078,1.59946c0.01408,0.23839 0.00969,0.4828 -0.0014,0.73314c0.09468,0.12793 0.17334,0.29122 0.22529,0.49902c0.13872,0.55486 -0.03992,0.91932 -0.27453,1.15145c0.02441,0.52951 0.11574,1.0803 0.35842,1.65172c0.18805,0.44279 0.66611,-0.6981 1.04093,-0.99965c0.6687,-0.538 1.20856,-1.33352 2.02918,-1.5849c1.95776,-0.59973 4.38783,1.87209 6.13662,2.49244c0,0 1.17474,0.42718 0.74756,1.60192c-0.42718,1.17474 -1.60192,0.74756 -1.60192,0.74756c-0.84741,-0.31455 -1.751,-0.50664 -2.54224,-0.94366c-0.74396,-0.41091 -1.33764,-1.92292 -2.06901,-1.49c-1.32396,0.78369 -2.82809,3.7733 -4.99079,2.34155c-0.89252,-0.59087 -1.2866,-1.88909 -1.4241,-3.27144c-0.39226,0.06306 -0.74457,0.1895 -0.98938,0.48611c-0.69494,0.84199 0.48004,2.52881 -0.33218,3.25832c-0.66961,0.60142 -1.78346,0.24408 -2.6752,0.36612l-1.19883,-0.26124c0,0 -1.21268,-0.30317 -0.90951,-1.51585z" fill="#717171"/><g><path d="M197.42471,88.84712c-0.31456,-2.19095 0.43934,-5.36555 2.04345,-6.83032c0.34078,-0.31117 0.98203,0.11528 1.37922,-0.11968c0.98435,-0.58228 0.33213,-2.69885 0.12042,-3.36203l0.03535,-0.14656l-0.05252,0.00323l-0.07981,-1.29656c-0.01616,-0.19564 0.01365,-0.39797 0.09583,-0.59117c0.27022,-0.63527 1.00426,-0.93121 1.63954,-0.66099c0.16996,0.0723 0.31563,0.17778 0.43266,0.3057l0.97708,1.02037c0.01053,0.00888 0.02025,0.01913 0.02924,0.03053l0.0143,0.01493l-0.00204,0.00195c0.12118,0.1808 0.1018,0.58245 0.28954,0.51887c1.94917,-0.6602 5.0748,-4.99748 7.56963,-3.93629c0.219,0.09315 1.37904,3.78648 1.90145,3.70087c0.79208,-0.1298 1.60184,-1.79252 1.84155,-2.49572l-0.2639,-0.94411c-0.07696,-0.26651 -0.06615,-0.5602 0.0509,-0.83537c0.27022,-0.63527 1.00426,-0.93122 1.63954,-0.661c0.2417,0.10281 0.43428,0.27276 0.56525,0.47887l0.77144,1.17588l-0.04085,0.0268c0.04561,0.04607 0.0902,0.09324 0.13367,0.14166c0.67045,0.74677 0.48479,3.33634 1.17148,3.89488c1.21419,0.98759 3.81646,0.27185 5.31678,0.65634l0.06915,0.06381l0.01362,-0.03201l1.27151,0.54085c0.63528,0.27022 0.93121,1.00427 0.661,1.63954c-0.19532,0.45919 -0.63299,0.74109 -1.1005,0.76003l-1.29462,0.07968l-0.01638,-0.26599c-0.41833,0.21766 -0.69436,0.51037 -0.65462,0.95994c0.02643,0.29906 0.15496,0.62759 0.21771,0.93822c0.32765,-0.18704 0.73585,-0.22416 1.10981,-0.06509c0.53454,0.22737 0.82883,0.78313 0.74774,1.33213l-0.17414,1.39862l-0.01989,-0.00248c-0.0028,0.05765 -0.00725,0.11531 -0.01352,0.17303c-0.07926,0.72952 -1.51638,4.67749 -2.12533,5.4248c-0.13118,0.16098 -0.36976,0.4383 -0.66348,0.69759c1.24759,-0.08905 3.22399,-0.1571 3.42095,1.6502c0.01389,0.12753 -2.42844,2.38345 -2.86557,2.95683c-1.01204,1.32752 -1.60621,3.14455 -3.58706,3.39292c-2.11078,0.26466 -5.61037,-1.77852 -7.51033,-2.58668c-4.24473,-1.80552 -11.12683,-3.37382 -14.00218,-6.99293l-0.76774,-0.64631c0,0 -0.77117,-0.68173 -0.2953,-1.50772z" fill="#ee0000"/><path d="M199.05662,90.86981c-0.19024,-1.36733 1.19799,-4.99376 1.7849,-5.91203c0.60198,-0.94185 2.10033,-1.43095 3.17986,-0.97177c0.71523,0.30423 1.69864,1.897 2.00861,1.18425c0.30965,-0.71201 2.04356,-3.2199 2.8741,-1.15981c0.20062,0.49761 -0.93451,4.35733 -2.23888,4.60255c-0.66783,0.12556 -3.67842,-2.40003 -3.77557,-2.17863c-0.84515,1.92608 -0.91983,3.26592 -1.07227,5.15731c-0.00801,0.14015 -0.03993,0.28133 -0.09804,0.41794c-0.05173,0.12162 -0.12046,0.23081 -0.20225,0.32596c-0.37334,0.50504 -0.79025,0.57755 -1.17388,0.41446c-0.08868,-0.01638 -0.17696,-0.04266 -0.2634,-0.07943c-0.4249,-0.18073 -0.698,-0.56897 -0.75142,-0.99636c-0.14067,-0.27331 -0.23735,-0.55705 -0.27176,-0.80444z" fill="#dd0000"/><path d="M220.64349,90.28544c-0.06139,3.60496 -2.2416,4.91854 -3.74361,7.38496c-0.46769,0.76798 -0.9477,2.43374 -2.3561,1.36937c-2.25923,-1.70734 1.78518,-3.53817 2.2983,-4.79662c0.32616,-0.79994 0.7689,-2.56279 1.10296,-3.60157c0.06512,-0.2025 -0.37739,-0.38729 -0.82837,-0.56612c-0.12228,-0.01237 -0.2448,-0.04312 -0.36386,-0.09376c-0.13387,-0.05694 -0.25268,-0.13448 -0.35428,-0.22735c-0.38058,-0.34785 -0.51999,-0.91078 -0.30671,-1.41219c0.27022,-0.63527 1.00426,-0.93121 1.63954,-0.66099c0.1447,0.06155 0.27179,0.14716 0.37859,0.25019c1.28382,0.16751 2.55677,0.99074 2.53355,2.35409z" fill="#dd0000"/><path d="M203.32761,94.51614c-0.65031,0.20615 -1.20674,-0.3142 -1.20674,-0.3142c-0.51492,-0.56996 -1.39083,-0.95734 -1.54479,-1.70988c-0.31905,-1.55954 1.41989,-4.51077 2.01946,-5.97408l0.13865,-0.10308l-0.04721,-0.03581l0.83229,-1.09751c0.36693,-0.50025 1.05739,-0.66122 1.61397,-0.35214c0.38533,0.21399 0.61333,0.60154 0.64059,1.01088l0.11372,1.39944l-0.05284,0.00429c0.40942,0.81183 0.88445,0.92039 1.75958,-0.8769c0.16235,-0.33342 0.20025,-0.71347 0.29068,-1.07384l-0.17044,-1.49758c-0.03217,-0.25452 0.01345,-0.52119 0.14753,-0.76267c0.33516,-0.60354 1.09613,-0.8211 1.69967,-0.48593c0.22963,0.12752 0.40338,0.31668 0.51208,0.53536l0.64426,1.2501l-0.26306,0.13557c0.20098,0.28861 0.37861,0.58951 0.523,0.90418l0.08388,0.08185c1.27808,-1.66395 4.07123,-1.99615 6.17999,-1.27962c0.98206,0.33369 2.44372,0.49069 2.73354,1.48658c0.26002,0.8935 -1.05624,1.53488 -1.64437,2.25604c-0.2871,0.35204 -1.60665,0.81356 -1.16504,0.70707c3.49387,-0.84254 1.63569,4.43594 0.8612,6.04881c-0.87281,1.81762 -1.87763,2.41678 -3.20392,2.66415l-0.39895,0.56169l-0.26957,-0.19146l-0.30652,0.63649c-0.79121,-0.12098 -1.71857,0.09699 -2.37367,-0.36294c-0.07178,-0.05038 -0.13968,-0.10459 -0.20424,-0.16212l-0.0201,0.0265l-0.81099,-0.61502c-0.16183,-0.0472 -0.31751,-0.09119 -0.46295,-0.12673c-1.6545,-0.4043 -4.72405,-1.23255 -6.64875,-2.68748zM216.03316,86.64501c-0.01551,-0.0017 -0.03101,-0.00338 -0.04648,-0.00508c0.00425,0.01227 0.00834,0.02465 0.01222,0.03715c0.01137,-0.01076 0.02279,-0.02146 0.03425,-0.03206z" fill="#ffde00"/><path d="M219.64068,87.33933c-0.64703,1.06952 -1.71653,0.42249 -1.71653,0.42249l-0.12577,-0.15937c-1.91732,-0.39918 -3.14309,-0.44304 -5.04801,0.09659c0,0 -1.20385,0.33651 -1.54036,-0.86734c-0.33651,-1.20386 0.86734,-1.54037 0.86734,-1.54037c2.27123,-0.62747 3.9427,-0.61048 6.2294,-0.13666l0.91145,0.46812c0,0 1.0695,0.64703 0.42248,1.71654z" fill="#ffe850"/><path d="M209.25835,82.70912c1.22902,0.2281 1.00092,1.45711 1.00092,1.45711l-0.36187,-0.18569c0.57439,0.79183 1.1812,1.56103 1.81557,2.30567c0,0 0.81001,0.95204 -0.14202,1.76205c-0.95203,0.81002 -1.76205,-0.14201 -1.76205,-0.14201c-0.67489,-0.79415 -1.32122,-1.61362 -1.93421,-2.45648l-0.07345,-1.73974c0,0 0.2281,-1.22901 1.4571,-1.00092z" fill="#ffe850"/><path d="M216.44495,94.31895c-1.15027,-0.48927 -0.66099,-1.63954 -0.66099,-1.63954l0.13776,-0.3168c0.24562,-0.66842 0.36466,-1.39532 0.35112,-2.10731c0,0 -0.0034,-1.24999 1.2466,-1.2534c1.25,-0.0034 1.25339,1.2466 1.25339,1.2466c-0.00899,0.99267 -0.17482,1.9963 -0.49058,2.93746l-0.19776,0.47201c0,0 -0.48927,1.15027 -1.63954,0.66099z" fill="#ffe850"/><path d="M204.68113,89.39249c-0.26858,-0.06844 -0.46244,-0.18127 -0.60149,-0.31542c-0.19943,0.32205 -0.59277,0.68656 -1.31843,0.51857c-1.21779,-0.28193 -0.93587,-1.49973 -0.93587,-1.49973c0.77145,-2.85282 1.85628,-3.78706 4.3457,-1.87178l0.03004,2.26575c0,0 -0.30868,1.21129 -1.51996,0.90262zM204.30971,87.94553l0.05568,0.00765c-0.11228,-0.75919 -0.05671,-0.49956 -0.05568,-0.00765z" fill="#ffe850"/><path d="M214.36956,97.57372c-0.48927,1.15027 -1.63954,0.66099 -1.63954,0.66099l-0.61048,-0.28605c-3.52607,-2.52973 -8.17893,-1.01386 -10.94512,-5.24333c0,0 -0.66724,-1.05702 0.38977,-1.72426c1.05702,-0.66724 1.72426,0.38977 1.72426,0.38977c2.07644,3.46758 7.17565,2.48757 10.2418,4.51387l0.17832,0.04947c0,0 1.15027,0.48927 0.66099,1.63954z" fill="#f5d400"/></g><g><path d="M273.08628,100.36564c-1.58202,-1.54803 -2.91399,-4.52667 -2.53127,-6.66496c0.08131,-0.45425 0.8497,-0.50565 1.02214,-0.9337c0.42736,-1.06083 -1.3775,-2.34449 -1.94884,-2.74222l-0.06106,-0.13784l-0.03972,0.0345l-0.85179,-0.98076c-0.1318,-0.14548 -0.23116,-0.32424 -0.28341,-0.52759c-0.17179,-0.66863 0.23098,-1.34994 0.89963,-1.52173c0.17889,-0.04596 0.35867,-0.0508 0.52937,-0.02042l1.39615,0.21588c0.01376,0.00064 0.02771,0.00287 0.04177,0.00646l0.02043,0.00316l-0.00043,0.00278c0.20614,0.06984 0.435,0.40049 0.54538,0.23585c1.14591,-1.7094 0.98976,-7.05329 3.61562,-7.72794c0.2305,-0.05922 3.39731,2.16736 3.75998,1.78172c0.54987,-0.5847 0.18162,-2.39709 -0.05569,-3.1011l-0.78361,-0.58902c-0.22316,-0.16477 -0.39317,-0.4045 -0.46758,-0.69412c-0.17179,-0.66863 0.23098,-1.34995 0.89962,-1.52174c0.2544,-0.06536 0.51063,-0.04755 0.73993,0.03643l1.32747,0.46437l-0.01613,0.04612c0.06422,0.00883 0.12831,0.01917 0.19226,0.03117c0.98635,0.18514 2.41366,2.3538 3.29845,2.37963c1.56445,0.04568 3.19506,-2.10495 4.61992,-2.71206l0.0937,0.0086l-0.00866,-0.03369l1.33829,-0.34384c0.66865,-0.17179 1.34995,0.23098 1.52174,0.89962c0.12417,0.4833 -0.05185,0.97324 -0.41148,1.27257l-0.9793,0.85051l-0.17475,-0.2012c-0.19973,0.42718 -0.24087,0.8274 0.06406,1.16014c0.20284,0.22134 0.50465,0.40398 0.74336,0.61243c0.14638,-0.34773 0.44786,-0.62542 0.84146,-0.72655c0.56261,-0.14455 1.1342,0.11769 1.40367,0.60284l0.71225,1.21621l-0.0173,0.01013c0.03283,0.04746 0.06437,0.09595 0.09449,0.14558c0.38069,0.62734 1.64056,4.63539 1.61156,5.59896c-0.00624,0.20756 -0.02701,0.5728 -0.10251,0.95725c0.93626,-0.82934 2.46388,-2.08521 3.71925,-0.77023c0.08858,0.0928 -0.47849,3.36886 -0.47685,4.08986c0.00383,1.66928 0.63707,3.47307 -0.78442,4.87479c-1.51473,1.49366 -5.53538,1.99973 -7.53514,2.51352c-4.46767,1.14786 -10.8848,4.08782 -15.3682,2.96322l-1.0025,-0.04623c0,0 -1.02676,-0.07226 -1.15127,-1.01735z" fill="#ee0000"/><path d="M275.61178,100.97903c-0.98249,-0.96979 -2.08564,-4.69287 -2.17811,-5.77874c-0.09485,-1.11377 0.79722,-2.41318 1.93345,-2.70511c0.75279,-0.19341 2.50204,0.47303 2.3147,-0.2813c-0.18715,-0.75354 -0.3357,-3.79885 1.57637,-2.66846c0.46186,0.27304 1.9078,4.0274 1.02142,5.01525c-0.45382,0.50578 -4.37961,0.33153 -4.3221,0.56636c0.50031,2.04298 1.25577,3.15204 2.2849,4.74625c0.07887,0.11613 0.13937,0.24762 0.17631,0.39141c0.03289,0.12801 0.04472,0.25649 0.03765,0.38176c0.01073,0.62796 -0.27615,0.93904 -0.67987,1.04285c-0.08036,0.04093 -0.16642,0.07375 -0.25741,0.09712c-0.44721,0.1149 -0.9001,-0.02724 -1.20241,-0.33404c-0.27786,-0.13143 -0.52716,-0.29788 -0.70492,-0.47335z" fill="#dd0000"/><path d="M292.39348,87.38824c2.14343,2.89918 1.21141,5.26776 1.51884,8.13913c0.09572,0.89407 0.7276,2.50835 -1.03772,2.51983c-2.83175,0.01843 -0.73435,-3.89439 -1.09226,-5.20545c-0.22751,-0.83338 -0.94801,-2.50207 -1.31449,-3.52986c-0.07145,-0.20035 -0.5351,-0.07796 -1.00187,0.05431c-0.1046,0.06454 -0.22056,0.11464 -0.34587,0.14683c-0.14091,0.0362 -0.28237,0.04689 -0.4195,0.03495c-0.51365,-0.04472 -0.96664,-0.40683 -1.10223,-0.93457c-0.17179,-0.66863 0.23098,-1.34994 0.89962,-1.52174c0.1523,-0.03913 0.30525,-0.04845 0.45269,-0.03161c1.12104,-0.6477 2.6322,-0.76825 3.4428,0.32818z" fill="#dd0000"/><path d="M281.21969,101.27655c-0.3909,0.55911 -1.14905,0.48438 -1.14905,0.48438c-0.75536,-0.13935 -1.68628,0.08576 -2.26612,-0.41803c-1.20164,-1.04405 -1.61578,-4.44437 -2.02963,-5.97064l0.04739,-0.16614l-0.05925,0.00028l-0.00666,-1.37739c-0.0129,-0.62026 0.43734,-1.16792 1.06714,-1.261c0.43603,-0.06444 0.85269,0.10458 1.12325,0.41296l0.94127,1.04182l-0.03934,0.03554c0.8187,0.39551 1.26181,0.19284 0.86363,-1.76613c-0.07386,-0.36341 -0.27489,-0.68817 -0.42224,-1.02924l-1.04598,-1.08523c-0.18031,-0.18249 -0.30626,-0.42193 -0.34666,-0.69518c-0.10094,-0.68293 0.37087,-1.31839 1.05381,-1.41932c0.25984,-0.0384 0.5128,0.0061 0.73207,0.1136l1.27163,0.60064l-0.12639,0.26759c0.33506,0.10691 0.65904,0.23776 0.96502,0.39977l0.11636,0.01397c0.00279,-2.09814 2.01816,-4.06037 4.12795,-4.77387c0.98254,-0.33228 2.23836,-1.09647 3.07404,-0.48211c0.74976,0.5512 0.09484,1.86078 0.06648,2.79092c-0.01384,0.45406 -0.78074,1.62285 -0.49492,1.26977c2.26131,-2.79347 3.99598,2.52688 4.36192,4.27824c0.4124,1.97369 -0.02095,3.06038 -0.92341,4.06326l0.02485,0.68851l-0.33042,0.01193l0.14371,0.69167c-0.70168,0.3851 -1.30534,1.12205 -2.10507,1.15529c-0.08762,0.00365 -0.17448,0.00191 -0.26072,-0.0045l0.00016,0.03325l-1.0178,0.00492c-0.15717,0.06094 -0.30751,0.12068 -0.44458,0.18092c-1.5593,0.68513 -4.49976,1.89419 -6.91245,1.90958zM286.51977,87.30176c-0.01335,0.00809 -0.02668,0.01617 -0.03999,0.02423c0.01084,0.00716 0.02161,0.0145 0.0323,0.02206c0.00248,-0.01546 0.00505,-0.03089 0.0077,-0.04629z" fill="#ffde00"/><path d="M289.80587,85.65924c0.13672,1.24251 -1.10578,1.37921 -1.10578,1.37921l-0.19676,-0.05004c-1.76483,0.84902 -2.7646,1.55959 -3.9487,3.14635c0,0 -0.75106,0.9992 -1.75025,0.24814c-0.9992,-0.75107 -0.24814,-1.75027 -0.24814,-1.75027c1.42149,-1.87924 2.75873,-2.88217 4.86219,-3.89655l1.00823,-0.18263c0,0 1.24249,-0.1367 1.37921,1.10579z" fill="#ffe850"/><path d="M278.74809,88.29693c1.11438,-0.56628 1.68066,0.54809 1.68066,0.54809l-0.4002,0.07264c0.9375,0.27933 1.88697,0.52095 2.84339,0.72635c0,0 1.22197,0.26322 0.95875,1.48519c-0.26321,1.22197 -1.48518,0.95876 -1.48518,0.95876c-1.01869,-0.22004 -2.03011,-0.47757 -3.02927,-0.77393l-1.11624,-1.33645c0,0 -0.56628,-1.11437 0.54809,-1.68065z" fill="#ffe850"/><path d="M291.51315,93.14342c-1.21068,0.31105 -1.52173,-0.89963 -1.52173,-0.89963l-0.08328,-0.33527c-0.21147,-0.68 -0.559,-1.32944 -1.0027,-1.88644c0,0 -0.76281,-0.99026 0.22744,-1.75307c0.99026,-0.76281 1.75307,0.22745 1.75307,0.22745c0.59651,0.79351 1.07516,1.6911 1.3968,2.63026l0.13003,0.49497c0,0 0.31105,1.21068 -0.89963,1.52173z" fill="#ffe850"/><path d="M279.17853,96.386c-0.25484,0.10899 -0.47734,0.1373 -0.66931,0.11536c0.03751,0.37693 -0.05309,0.9055 -0.73131,1.2134c-1.1382,0.51672 -1.65493,-0.62148 -1.65493,-0.62148c-1.12236,-2.73386 -0.82925,-4.13521 2.31168,-4.12853l1.40164,1.78043c0,0 0.49153,1.14931 -0.65777,1.64084zM278.00379,95.46317l0.04886,-0.02779c-0.5508,-0.53442 -0.3488,-0.3621 -0.04886,0.02779z" fill="#ffe850"/><path d="M291.84479,96.9893c0.31105,1.21068 -0.89962,1.52174 -0.89962,1.52174l-0.65859,0.14415c-4.33754,0.13593 -7.10948,4.1687 -11.87739,2.49318c0,0 -1.17246,-0.43338 -0.73908,-1.60584c0.43338,-1.17246 1.60585,-0.73909 1.60585,-0.73909c3.75703,1.49012 7.20916,-2.38869 10.87546,-2.64459l0.17164,-0.06917c0,0 1.21068,-0.31105 1.52173,0.89963z" fill="#f5d400"/></g><g><path d="M197.32756,240.43582c-0.61489,-1.11791 -0.85333,-2.98353 -0.2857,-4.09962c0.12059,-0.2371 0.55315,-0.13737 0.71965,-0.34482c0.41265,-0.51412 -0.36927,-1.52329 -0.61823,-1.838l-0.01072,-0.08624l-0.02767,0.01242l-0.30652,-0.68316c-0.04848,-0.10225 -0.0735,-0.21745 -0.06843,-0.33836c0.01667,-0.39758 0.35248,-0.70638 0.75007,-0.68971c0.10637,0.00446 0.20638,0.03176 0.29551,0.07698l0.7344,0.35185c0.00749,0.00265 0.01481,0.0062 0.02197,0.01052l0.01074,0.00515l-0.0007,0.00146c0.10211,0.0729 0.17327,0.2935 0.26162,0.22105c0.91726,-0.75221 1.7219,-3.72695 3.28329,-3.6615c0.13706,0.00575 1.51331,1.76225 1.77771,1.60991c0.40088,-0.23097 0.4998,-1.29242 0.48621,-1.72044l-0.3342,-0.45564c-0.09567,-0.12812 -0.14952,-0.28874 -0.1423,-0.46095c0.01667,-0.39758 0.35248,-0.70639 0.75007,-0.68972c0.15127,0.00634 0.28969,0.05888 0.40221,0.14345l0.65507,0.47752l-0.01659,0.02276c0.03396,0.01558 0.0676,0.03196 0.10089,0.04925c0.5134,0.26658 0.93947,1.70116 1.42338,1.8629c0.85564,0.28599 2.1139,-0.62889 3.00132,-0.72636l0.05027,0.02037l0.00084,-0.02003l0.79577,0.03336c0.39759,0.01667 0.70638,0.35249 0.68972,0.75007c-0.01205,0.28738 -0.19085,0.52838 -0.43918,0.6336l-0.68214,0.30606l-0.06288,-0.14015c-0.18142,0.20242 -0.27084,0.4164 -0.15804,0.65083c0.07503,0.15594 0.21112,0.30704 0.30809,0.46185c0.13874,-0.16747 0.35138,-0.27044 0.58542,-0.26063c0.33454,0.01402 0.60622,0.25401 0.67404,0.56663l0.19028,0.78982l-0.01123,0.0027c0.0102,0.03166 0.01952,0.06367 0.02787,0.09608c0.10549,0.40962 0.13254,2.83124 -0.04408,3.3581c-0.03805,0.11349 -0.11039,0.31156 -0.21613,0.51112c0.65487,-0.30155 1.70714,-0.73988 2.18064,0.19498c0.03341,0.06597 -0.82561,1.77914 -0.94489,2.17726c-0.27615,0.92173 -0.22742,2.02261 -1.24545,2.5591c-1.0848,0.57169 -3.38772,0.1807 -4.57682,0.13086c-2.65656,-0.11137 -6.68756,0.44116 -8.97399,-0.92675l-0.54547,-0.19262c0,0 -0.55451,-0.21103 -0.46567,-0.75328z" fill="#ee0000"/><path d="M198.61886,241.19527c-0.38047,-0.6989 -0.36855,-2.93715 -0.23856,-3.55174c0.13333,-0.63038 0.84217,-1.19868 1.51779,-1.17035c0.44762,0.01876 1.30175,0.6781 1.32412,0.23063c0.02235,-0.447 0.44802,-2.15213 1.31465,-1.20966c0.20934,0.22765 0.38135,2.54031 -0.27242,2.93764c-0.33472,0.20343 -2.47189,-0.54713 -2.47931,-0.40797c-0.06449,1.2107 0.16749,1.9486 0.4696,2.99982c0.02416,0.07723 0.03563,0.15987 0.03204,0.24537c-0.00319,0.07612 -0.01808,0.14898 -0.04286,0.21693c-0.09876,0.34829 -0.30891,0.47212 -0.54898,0.46211c-0.05117,0.00919 -0.10412,0.01295 -0.15822,0.01068c-0.26592,-0.01115 -0.49213,-0.16507 -0.60779,-0.38476c-0.13141,-0.11884 -0.24123,-0.25225 -0.31006,-0.3787z" fill="#dd0000"/><path d="M210.14439,236.49345c0.69944,1.95704 -0.20967,3.10864 -0.51869,4.74428c-0.09622,0.5093 -0.01665,1.50537 -0.99265,1.21743c-1.5656,-0.46187 0.24397,-2.2713 0.26503,-3.0544c0.01338,-0.49778 -0.10602,-1.53865 -0.13691,-2.16687c-0.00603,-0.12246 -0.28227,-0.13222 -0.56188,-0.13704c-0.06848,0.01818 -0.14081,0.02649 -0.21532,0.02336c-0.08379,-0.00351 -0.16362,-0.0212 -0.2373,-0.05065c-0.27598,-0.1103 -0.46557,-0.38562 -0.45241,-0.69943c0.01667,-0.39758 0.35248,-0.70638 0.75007,-0.68972c0.09056,0.0038 0.17651,0.02415 0.25506,0.05802c0.72655,-0.17052 1.58049,0.01487 1.845,0.75499z" fill="#dd0000"/><path d="M201.66366,242.29426c-0.30889,0.24335 -0.71478,0.07574 -0.71478,0.07574c-0.39357,-0.20281 -0.94477,-0.23378 -1.18074,-0.60842c-0.48901,-0.77641 -0.15071,-2.72171 -0.12465,-3.63288l0.05384,-0.08378l-0.03274,-0.00972l0.22593,-0.76114c0.09628,-0.34441 0.43601,-0.57154 0.79904,-0.51792c0.25134,0.03713 0.45308,0.19985 0.55096,0.41511l0.34572,0.73177l-0.02763,0.01305c0.38582,0.35471 0.66411,0.31675 0.77095,-0.83057c0.01982,-0.21284 -0.03697,-0.42555 -0.06142,-0.63831l-0.39626,-0.77318c-0.06907,-0.13075 -0.09866,-0.28387 -0.0754,-0.44138c0.05814,-0.39366 0.42442,-0.66565 0.81808,-0.6075c0.14978,0.02213 0.28194,0.08885 0.38501,0.18472l0.60155,0.5434l-0.11435,0.12659c0.16706,0.11484 0.32402,0.24105 0.46585,0.38145l0.06188,0.0271c0.35129,-1.15727 1.79045,-1.90405 3.07355,-1.94606c0.59755,-0.01956 1.41789,-0.23189 1.77659,0.24641c0.32183,0.42913 -0.25786,1.04257 -0.42856,1.55109c-0.08333,0.24824 -0.70133,0.76533 -0.48476,0.61814c1.71343,-1.16446 1.78372,2.06043 1.6937,3.08781c-0.10145,1.15781 -0.52171,1.6852 -1.18686,2.08814l-0.10106,0.38405l-0.18431,-0.0485l-0.036,0.40562c-0.45138,0.09552 -0.90732,0.40154 -1.35414,0.28657c-0.04896,-0.01259 -0.0966,-0.02803 -0.14311,-0.04595l-0.00546,0.01838l-0.56244,-0.16695c-0.09688,0.00743 -0.1898,0.01533 -0.27548,0.02572c-0.97462,0.11812 -2.79868,0.2951 -4.13255,-0.09859zM206.91774,235.4666c-0.00871,0.00224 -0.01742,0.00448 -0.02611,0.0067c0.00479,0.00576 0.00951,0.0116 0.01414,0.01756c0.00395,-0.00811 0.00793,-0.0162 0.01196,-0.02426z" fill="#ffde00"/><path d="M209.00479,235.10806c-0.13168,0.70839 -0.84007,0.57671 -0.84007,0.57671l-0.10023,-0.06041c-1.11535,0.17429 -1.78546,0.39972 -2.70334,1.07789c0,0 -0.58099,0.42615 -1.00714,-0.15484c-0.42615,-0.581 0.15484,-1.00715 0.15484,-1.00715c1.09763,-0.79999 2.00269,-1.13048 3.33246,-1.33957l0.58678,0.06729c0,0 0.70838,0.13169 0.5767,0.84008z" fill="#ffe850"/><path d="M202.46351,234.72022c0.7093,-0.12671 0.83601,0.58259 0.83601,0.58259l-0.23293,-0.02663c0.47074,0.31041 0.95437,0.60201 1.44788,0.87477c0,0 0.63039,0.34894 0.28145,0.97934c-0.34893,0.63039 -0.97933,0.28146 -0.97933,0.28146c-0.52542,-0.29123 -1.04058,-0.60193 -1.54251,-0.93202l-0.39315,-0.92352c0,0 -0.12671,-0.7093 0.58259,-0.836z" fill="#ffe850"/><path d="M208.69926,239.52236c-0.71989,-0.03018 -0.68971,-0.75007 -0.68971,-0.75007l0.00994,-0.19888c-0.00334,-0.41047 -0.08684,-0.82676 -0.23882,-1.20807c0,0 -0.25584,-0.67357 0.41773,-0.92942c0.67357,-0.25584 0.92941,0.41774 0.92941,0.41774c0.19687,0.53729 0.31136,1.11236 0.33228,1.6842l-0.01076,0.29479c0,0 -0.03018,0.71989 -0.75007,0.68971z" fill="#ffe850"/><path d="M201.3526,239.25545c-0.15879,0.01766 -0.28628,-0.00381 -0.38855,-0.04792c-0.04213,0.21424 -0.18024,0.4908 -0.6058,0.54764c-0.71418,0.09539 -0.80958,-0.6188 -0.80958,-0.6188c-0.16358,-1.69562 0.23175,-2.42 1.96378,-1.89274l0.47662,1.21607c0,0 0.07964,0.71612 -0.63647,0.79575zM200.85822,238.55041l0.03159,-0.00719c-0.21484,-0.3867 -0.13211,-0.25795 -0.03159,0.00719z" fill="#ffe850"/><path d="M208.24116,241.69976c-0.03018,0.71989 -0.75007,0.68972 -0.75007,0.68972l-0.38743,-0.03024c-2.41607,-0.64805 -4.61786,1.11512 -6.96944,-0.60421c0,0 -0.57471,-0.43458 -0.14013,-1.00929c0.43458,-0.57471 1.0093,-0.14013 1.0093,-0.14013c1.82469,1.44852 4.37614,-0.11631 6.44182,0.35364l0.10624,-0.00955c0,0 0.71989,0.03018 0.68971,0.75007z" fill="#f5d400"/></g></g></g></svg>