<svg version="1.1" xmlns="http://www.w3.org/2000/svg" xmlns:xlink="http://www.w3.org/1999/xlink" width="601.80564" height="493.7015" viewBox="0,0,601.80564,493.7015"><g transform="translate(49.43875,67.33757)"><g data-paper-data="{&quot;isPaintingLayer&quot;:true}" fill-rule="nonzero" stroke="none" stroke-linecap="butt" stroke-linejoin="miter" stroke-miterlimit="10" stroke-dasharray="" stroke-dashoffset="0" style="mix-blend-mode: normal"><path d="M-26.79905,-1.8759c-2.52092,-2.20958 -2.52092,-5.83529 -2.52092,-5.83529l5.12829,-8.05321c3.62219,-0.92968 4.87061,-4.4461 8.05733,-5.97798c2.03978,-0.98053 4.30433,-1.45149 6.53121,-1.85539c0.32887,-0.05965 0.56126,0.66358 0.86051,0.51471c0.79186,-0.39394 1.04398,-1.57671 1.87617,-1.87617c2.33316,-0.83958 4.96658,-0.49137 7.33982,-1.20989c5.5056,-1.66688 11.16992,-3.91331 16.84301,-4.89269c11.50214,-1.98568 22.98696,-3.07068 34.70919,-2.81426c1.87617,-0.62539 3.67586,-1.56268 5.62852,-1.87617c1.53433,-0.24633 3.13915,0.56034 4.6565,0.22497c1.10087,-0.24332 1.70257,-1.68836 2.81426,-1.87617c5.30001,-0.89538 10.76755,-0.37478 16.0822,-1.17871c12.64909,-1.91337 25.36076,-4.41326 38.09234,-5.69084c1.73925,-0.17453 3.50453,0.21147 5.24381,0.03732c1.28286,-0.12845 2.47047,-0.80011 3.75235,-0.93809c0.83167,-0.08952 1.69487,0.50842 2.49534,0.26562c1.0789,-0.32726 1.71288,-1.63515 2.81426,-1.87617c2.30174,-0.50371 4.71859,-0.0485 7.06287,-0.28531c4.99837,-0.50492 9.80373,-2.23683 14.76731,-3.01246c6.33033,-0.9892 23.67888,-2.79298 30.1206,-3.53893c17.26942,-1.99979 34.50234,-4.36208 51.74433,-6.58274c1.63145,-0.1092 28.05772,-1.88043 28.62269,-1.9076c3.15511,-0.15173 6.35623,-0.45656 9.47621,0.03692c13.17386,2.08367 26.22583,5.26217 39.52391,6.68734c14.86182,1.59275 29.93572,1.29946 44.81987,2.68517c34.10219,3.17491 68.04304,9.02875 101.71521,15.05802c9.98626,1.78812 20.2541,2.29978 30.29826,4.03861c1.87617,0.93809 3.64305,2.13755 5.62852,2.81426c2.17237,0.74041 4.61274,0.54281 6.74105,1.4017c1.15913,0.46777 1.78588,1.7729 2.82964,2.46061c1.16773,0.7694 2.58872,1.10057 3.75235,1.87617c0.59192,0.39453 0.82908,1.20604 1.43383,1.58061c1.17038,0.72492 2.78947,0.70146 3.78529,1.65206c1.01153,0.9656 0.9209,2.73106 1.87617,3.75235c0.4228,0.45202 1.31847,-0.10408 1.84323,0.22411c1.27036,0.79448 6.63229,6.36574 7.12733,7.12733c0.44292,0.68141 2.74596,7.33312 2.89945,8.37013c0.35568,2.4031 -0.62635,4.93067 -0.03848,7.28775c0.37041,1.48517 1.44031,2.74166 1.77381,4.23555c1.31133,5.87397 0.54856,12.03021 1.13927,18.01971c0.61881,6.27437 2.11448,12.43926 3.5542,18.57749c0.50261,2.14289 1.66431,4.11541 2.01398,6.28851c0.36171,2.24794 0.06456,4.55326 0.09684,6.82988c-0.0286,2.39836 -0.46165,4.55944 0.47222,6.77877c0.93076,2.21193 2.44316,4.19359 3.07949,6.50747c0.41457,1.50751 -0.45765,3.19543 0,4.69043c1.44497,4.72025 4.98614,8.77524 5.73231,13.65499c0.12467,0.81531 0.09684,14.76143 0.09684,16.21075c0,9.69356 0,19.38712 0,29.08068c0,32.77905 0.04342,65.55835 -0.04029,98.3373c-1.19085,5.95664 -3.12358,11.79114 -3.75235,17.83302c-0.49076,4.71578 0.0333,9.48244 0.04029,14.22368c0.02263,15.36732 1.11768,31.24379 -0.02183,46.53811c-0.44763,6.00797 -2.81474,16.86633 -3.82735,23.14356c-0.7398,4.58603 -0.96059,9.26528 -2.01311,13.7898c-1.71321,7.36469 -5.94099,14.96252 -10.84702,20.7206c-3.87219,4.54469 -5.49688,4.36925 -11.82683,7.5818c-5.89709,2.99287 -11.93634,5.69738 -17.92883,8.49435c-1.56885,0.73225 -3.02782,1.7375 -4.68193,2.24877c-1.81723,0.56169 -3.80609,0.39352 -5.62852,0.93809c-1.53449,0.45852 -2.89902,1.36211 -4.34853,2.04317c-7.39617,0.32704 -14.51153,1.4919 -21.89501,2.06231c-1.40923,0.10887 -2.84359,-0.25983 -4.24009,-0.0417c-2.54766,0.39793 -4.95209,1.51125 -7.50469,1.87617c-1.80031,0.25738 -3.66853,-0.35951 -5.45579,-0.0233c-3.20836,0.60353 -6.13869,2.43196 -9.38086,2.81426c-5.01876,0.59178 -10.1069,0.06017 -15.16039,0.0795c-10.32151,0.03947 -20.64485,0 -30.96623,0c-25.01251,0 -50.02502,0 -75.03752,0c-16.92957,0 -34.33177,0.98047 -51.2426,-0.13854c-4.97747,-0.32936 -9.88624,-1.40102 -14.86234,-1.75049c-8.78684,-0.61709 -17.94833,0.01641 -26.7656,0.01285c-2.70976,-0.00109 -7.31723,0.11988 -9.99793,-0.40499c-13.09378,-2.56371 -25.47242,-6.97826 -38.41051,-10.06634c-11.28354,-2.69317 -23.73181,-3.01651 -35.21732,-4.61538c-14.79456,-2.05951 -29.32249,-5.36562 -44.27196,-5.91855c-25.38356,-0.97828 -50.33263,0.36735 -75.66702,0.36735c-5.94121,0 -11.88277,0.06343 -17.82364,0c-1.72404,-0.01841 -3.48191,0.21224 -5.17065,-0.13533c-1.84949,-0.38065 -3.47231,-1.51781 -5.29304,-2.01825c-2.08122,-0.57204 -4.34737,-0.42115 -6.36564,-1.18621c-8.29141,-3.14303 -9.87273,-11.57481 -15.11156,-17.50683c-0.0108,-0.04323 -1.41579,-6.33797 -2.19271,-8.1735c-0.7003,-1.65449 -1.87823,-3.14086 -2.24644,-4.89932c-0.6845,-3.26891 0.17024,-6.80328 -0.85059,-9.98325c-1.39776,-4.35415 -3.88776,-8.36359 -4.84323,-12.83566c-0.7582,-3.54873 0.39536,-7.27609 -0.07913,-10.82088c-0.17105,-1.27788 -0.8317,-2.46747 -0.93809,-3.75235c-0.20301,-2.45188 0.45785,-4.96048 0.0163,-7.38081c-0.79693,-4.36829 -2.83981,-8.44095 -3.69758,-12.7977c-2.52323,-12.81592 -1.06535,-26.8888 -1.06535,-39.84668c0,-14.67657 -1.1453,-29.65032 1.78876,-44.05883c4.60683,-22.11099 9.19044,-44.40124 10.41667,-67.01908c0.93693,-17.28187 -0.90834,-34.71217 0.03211,-51.99823c0.34021,-6.25328 2.90534,-12.19357 3.9353,-18.37082c0.79566,-4.77202 1.18053,-9.60399 1.68835,-14.41516c0.77544,-7.34666 1.53604,-14.70446 1.8451,-22.08546c0.21585,-5.15502 -0.47995,-10.34482 0.03526,-15.47857c0.44304,-4.41456 1.52046,-8.73454 2.47918,-13.07439z" fill="#151380" stroke-width="0.5"/><path d="M65.8294,229.36811v-89.2575h44.23381v89.2575z" fill="#110f61" stroke-width="0"/><path d="M22.38552,228.57822v-58.45182h30.80569v58.45182z" fill="#110f61" stroke-width="0"/><path d="M145.61264,226.99844v-110.38112h40.27995v110.38112z" fill="#110f61" stroke-width="0"/><path d="M206.42975,226.99844v-54.50237h54.50237v54.50237z" fill="#110f61" stroke-width="0"/><path d="M283.83887,228.57822v-93.20695h52.1327v93.20695z" fill="#110f61" stroke-width="0"/><path d="M359.6683,228.57822v-50.55292h104.2654v50.55292z" fill="#110f61" stroke-width="0"/><path d="M405.48188,185.1343v-44.23381h58.33367v44.23381z" fill="#110f61" stroke-width="0"/><path d="M75.70489,163.75563v-8.82613h8.82613v8.82613z" fill="#1b19a4" stroke-width="0"/><path d="M90.82355,163.7003v-8.82613h8.82613v8.82613z" fill="#1b19a4" stroke-width="0"/><path d="M75.83871,179.70453v-8.82612h8.82613v8.82612z" fill="#1b19a4" stroke-width="0"/><path d="M91.36288,179.6492v-8.82612h8.82612v8.82612z" fill="#131171" stroke-width="0"/><path d="M75.567,195.65344v-8.82612h8.82613v8.82612z" fill="#131171" stroke-width="0"/><path d="M91.19052,195.59811v-8.82612h8.82612v8.82612z" fill="#1b19a4" stroke-width="0"/><path d="M75.70082,210.79131v-8.82613h8.82613v8.82613z" fill="#1b19a4" stroke-width="0"/><path d="M91.01815,210.73598v-8.82613h8.82613v8.82613z" fill="#1b19a4" stroke-width="0"/><path d="M83.681,228.84779v-11.86745h7.61308v11.86745z" fill="#1b19a4" stroke-width="0"/><path d="M162.427,227.12941v-11.86745h7.61308v11.86745z" fill="#1b19a4" stroke-width="0"/><path d="M170.33776,207.36194v-8.82612h8.82612v8.82612z" fill="#1b19a4" stroke-width="0"/><path d="M170.4529,193.17143v-8.82613h8.82613v8.82613z" fill="#131171" stroke-width="0"/><path d="M170.10398,177.12119v-8.82612h8.82612v8.82612z" fill="#131171" stroke-width="0"/><path d="M170.21913,162.93068v-8.82613h8.82612v8.82613z" fill="#1b19a4" stroke-width="0"/><path d="M170.21912,147.92719v-8.82612h8.82612v8.82612z" fill="#1b19a4" stroke-width="0"/><path d="M170.33427,133.73668v-8.82612h8.82613v8.82612z" fill="#1b19a4" stroke-width="0"/><path d="M33.8359,228.19113v-11.86745h7.61308v11.86745z" fill="#1b19a4" stroke-width="0"/><path d="M28.82451,190.96851v-6.02335h6.02335v6.02335z" fill="#131171" stroke-width="0"/><path d="M40.78616,190.93076v-6.02335h6.02335v6.02335z" fill="#1b19a4" stroke-width="0"/><path d="M28.89232,201.51722v-6.02335h6.02335v6.02335z" fill="#1b19a4" stroke-width="0"/><path d="M40.85399,201.47946v-6.02335h6.02335v6.02335z" fill="#1b19a4" stroke-width="0"/><path d="M28.96014,212.30831v-6.02335h6.02335v6.02335z" fill="#1b19a4" stroke-width="0"/><path d="M40.92184,212.27055v-6.02335h6.02334v6.02335z" fill="#1b19a4" stroke-width="0"/><path d="M28.72968,180.82558v-6.02335h6.02334v6.02335z" fill="#1b19a4" stroke-width="0"/><path d="M40.69136,180.78782v-6.02335h6.02334v6.02335z" fill="#1b19a4" stroke-width="0"/><path d="M153.27738,207.47708v-8.82612h8.82612v8.82612z" fill="#1b19a4" stroke-width="0"/><path d="M153.39252,193.28657v-8.82613h8.82613v8.82613z" fill="#1b19a4" stroke-width="0"/><path d="M153.0436,177.23633v-8.82612h8.82612v8.82612z" fill="#1b19a4" stroke-width="0"/><path d="M153.15875,163.04582v-8.82613h8.82612v8.82613z" fill="#1b19a4" stroke-width="0"/><path d="M153.15874,148.04233v-8.82612h8.82612v8.82612z" fill="#131171" stroke-width="0"/><path d="M153.27389,133.85181v-8.82612h8.82613v8.82612z" fill="#1b19a4" stroke-width="0"/><path d="M224.0747,226.69744v-11.86745h17.95969v11.86745z" fill="#1b19a4" stroke-width="0"/><path d="M214.05528,188.67988v-8.82612h8.82612v8.82612z" fill="#1b19a4" stroke-width="0"/><path d="M228.88455,188.50657v-8.82612h8.82612v8.82612z" fill="#1b19a4" stroke-width="0"/><path d="M243.71383,188.33327v-8.82612h8.82612v8.82612z" fill="#131171" stroke-width="0"/><path d="M214.10968,203.57108v-8.82612h8.82612v8.82612z" fill="#131171" stroke-width="0"/><path d="M228.93896,203.39777v-8.82612h8.82612v8.82612z" fill="#1b19a4" stroke-width="0"/><path d="M243.76824,203.22447v-8.82612h8.82612v8.82612z" fill="#1b19a4" stroke-width="0"/><path d="M291.07328,153.54485v-8.82612h8.82612v8.82612z" fill="#1b19a4" stroke-width="0"/><path d="M305.90254,153.37154v-8.82612h8.82612v8.82612z" fill="#1b19a4" stroke-width="0"/><path d="M320.73184,153.19824v-8.82612h8.82612v8.82612z" fill="#131171" stroke-width="0"/><path d="M291.19705,170.54785v-8.82612h8.82612v8.82612z" fill="#131171" stroke-width="0"/><path d="M306.0263,170.37454v-8.82612h8.82612v8.82612z" fill="#1b19a4" stroke-width="0"/><path d="M320.85562,170.20124v-8.82612h8.82612v8.82612z" fill="#1b19a4" stroke-width="0"/><path d="M291.32084,187.17575v-8.82612h8.82612v8.82612z" fill="#131171" stroke-width="0"/><path d="M306.15012,187.00245v-8.82612h8.82612v8.82612z" fill="#1b19a4" stroke-width="0"/><path d="M320.97936,186.82914v-8.82612h8.82612v8.82612z" fill="#131171" stroke-width="0"/><path d="M291.44462,203.42856v-8.82612h8.82612v8.82612z" fill="#1b19a4" stroke-width="0"/><path d="M306.27387,203.25526v-8.82612h8.82612v8.82612z" fill="#1b19a4" stroke-width="0"/><path d="M321.10318,203.08195v-8.82612h8.82612v8.82612z" fill="#1b19a4" stroke-width="0"/><path d="M301.4678,228.3216v-11.86745h17.95969v11.86745z" fill="#1b19a4" stroke-width="0"/><path d="M426.79502,228.10307v-11.86745h17.95969v11.86745z" fill="#1b19a4" stroke-width="0"/><path d="M416.50866,158.52534v-8.82612h8.82612v8.82612z" fill="#1b19a4" stroke-width="0"/><path d="M431.33794,158.35204v-8.82612h8.82612v8.82612z" fill="#1b19a4" stroke-width="0"/><path d="M446.16722,158.17872v-8.82612h8.82612v8.82612z" fill="#1b19a4" stroke-width="0"/><path d="M416.60387,175.64305v-8.82612h8.82612v8.82612z" fill="#131171" stroke-width="0"/><path d="M431.43315,175.46975v-8.82612h8.82612v8.82612z" fill="#1b19a4" stroke-width="0"/><path d="M446.26243,175.29644v-8.82612h8.82612v8.82612z" fill="#131171" stroke-width="0"/><path d="M416.60387,190.93446v-8.82612h8.82612v8.82612z" fill="#1b19a4" stroke-width="0"/><path d="M431.43315,190.76115v-8.82612h8.82612v8.82612z" fill="#131171" stroke-width="0"/><path d="M446.26243,190.58785v-8.82612h8.82612v8.82612z" fill="#131171" stroke-width="0"/><path d="M416.69908,208.05217v-8.82612h8.82612v8.82612z" fill="#131171" stroke-width="0"/><path d="M431.52836,207.87887v-8.82612h8.82612v8.82612z" fill="#1b19a4" stroke-width="0"/><path d="M446.35764,207.70556v-8.82612h8.82612v8.82612z" fill="#1b19a4" stroke-width="0"/><path d="M365.13906,196.20723v-10.46278h44.01434v10.46278z" fill="#1b19a4" stroke-width="0"/><path d="M365.50185,211.57275v-10.46278h44.01433v10.46278z" fill="#1b19a4" stroke-width="0"/><path d="M-22.97327,81.71916l-0.99645,-3.23824c0.07499,-0.61408 0.43172,-1.25917 0.22497,-1.84224c-0.3768,-1.06261 -1.53419,-1.73994 -1.87617,-2.81426c-0.38351,-1.20475 -0.02383,-2.53806 -0.22497,-3.78627c-0.02041,-0.12667 -0.6979,-1.54246 -0.8584,-2.37656c-1.95253,-0.31576 -3.92403,-2.02908 -5.27955,-2.90338c-1.3191,-0.93775 -2.8515,-1.63147 -3.95731,-2.81325c-5.1025,-5.45304 -4.98766,-11.44419 -5.01096,-18.43651c-0.01754,-5.26521 -1.10809,-10.69444 0.20063,-15.79444c0.83915,-3.27011 3.18246,-5.99265 5.25165,-8.66029c1.02766,-1.32489 2.09052,-2.65662 2.81505,-4.16874c0.87637,-1.82902 0.91241,-4.01952 1.94478,-5.76524c3.82423,-6.46671 9.56288,-11.62279 13.72811,-17.87531c2.8268,-4.24337 4.73187,-9.06097 7.61825,-13.26404c1.3001,-1.89318 3.3193,-3.18138 4.85067,-4.8929c1.1315,-1.2646 1.71383,-3.07543 3.12379,-4.01964c1.98648,-1.33029 4.55108,-1.51175 6.70017,-2.55922c3.5743,-1.74212 5.38462,-6.02313 8.73298,-8.06074c1.58808,-0.96641 3.51136,-1.26528 5.14468,-2.1531c1.78271,-0.96902 3.37005,-2.26077 5.05507,-3.39115c1.15427,-0.06141 2.36541,0.17881 3.46282,-0.18424c1.61544,-0.53443 2.90373,-1.80699 4.48154,-2.44399c3.00407,-1.21282 6.10912,-2.16809 9.216,-3.08606c5.35364,-1.58181 11.08163,-1.62823 16.43975,-3.19479c0.77427,-0.22637 0.92369,-1.4337 1.66173,-1.75933c2.07064,-0.91356 4.30627,-1.44093 6.53121,-1.85539c7.10108,-1.3228 15.24337,-0.05619 22.50174,-0.05619c14.61525,0 29.26731,0.26356 43.88,0.00269c33.32327,-0.59491 66.85478,-3.5363 100.03931,-6.55007c17.10015,-0.90731 34.08911,-0.95731 51.20264,-0.95731c9.06504,0 18.13008,0 27.19512,0c3.60764,0 7.23536,-0.36322 10.82291,0.01695c15.11304,1.6015 29.86607,4.94864 44.80779,7.58791c6.63741,1.17242 13.36433,1.78042 20.01531,2.87331c7.41176,1.2179 14.6074,4.08591 21.90054,5.99102c9.82563,2.56665 19.90888,4.21065 29.56387,7.35898c4.52309,1.4749 8.60803,4.10869 13.11792,5.6235c3.67097,1.23303 7.55059,1.72455 11.32588,2.58683c2.10829,0.37044 4.29163,0.44196 6.32486,1.11132c3.01951,0.99405 5.7611,2.70183 8.7277,3.84413c3.27772,1.2621 6.86785,1.65563 10.07311,3.09183c1.52361,0.68269 2.71024,2.01409 4.26098,2.63269c1.48096,0.59076 3.21856,0.32503 4.69043,0.93809c5.19184,2.16248 9.29576,6.13227 13.82244,9.31564c3.73856,2.62912 8.40599,3.92345 11.79746,6.98727c3.93046,3.55074 5.99759,8.81124 9.75865,12.54094c2.59319,2.57158 5.46508,4.84598 8.19468,7.27229c2.17562,1.93389 6.75372,4.80065 8.17725,7.67804c0.96046,1.94139 0.99894,4.21618 1.57427,6.30436c1.34443,4.87963 2.09314,9.02082 2.12743,14.12013c0,8.2468 1.82939,19.29613 -1.82553,26.99109c-1.39617,2.93946 -6.37723,6.29527 -9.12961,7.3916c-0.81031,0.32276 -1.81675,-0.41249 -2.61593,-0.06307c-1.2164,0.53184 -1.84805,2.01029 -3.06278,2.54593c-1.75641,0.77449 -3.77777,0.72284 -5.6146,1.28037c-4.08626,1.24028 -5.57437,2.9556 -10.09966,3.92794c-0.78211,0.16805 -7.53726,0.13533 -8.923,0.13533c-4.38785,0 -9.99164,0.79164 -14.33458,-0.09684c-1.93753,-0.39638 -3.67073,-1.59649 -5.62852,-1.87617c-2.47642,-0.35377 -5.0134,0.22648 -7.50469,0c-2.10645,-0.1915 -4.16663,-0.92223 -6.28161,-0.89744c-1.95671,-0.50768 -3.98769,-0.78622 -5.87012,-1.52304c-1.04988,-0.41094 -1.80629,-1.37108 -2.81426,-1.87617c-2.20283,-1.10384 -5.00767,-0.07534 -7.34066,-0.86785c-1.20513,-0.40938 -1.88143,-1.73246 -2.94903,-2.42539c-1.41387,-0.91767 -3.33194,-0.58722 -4.93114,-1.11985c-3.10334,-1.03361 -6.32023,-1.91314 -9.14015,-3.57058c-0.44576,-0.262 -0.33154,-1.11534 -0.80332,-1.32696c-0.3196,-0.14336 -0.53357,0.53716 -0.88222,0.5709c-1.3327,0.12899 -2.69463,0.1216 -4.01563,-0.09684c-1.95116,-0.32265 -3.67313,-1.58018 -5.62852,-1.87617c-1.10002,-0.16652 -2.2645,0.19552 -3.33604,-0.10379c-1.34686,-0.37621 -2.41315,-1.47353 -3.75235,-1.87617c-0.64248,-0.19317 -1.34347,0.24026 -2.00749,0.14444c-1.5785,-0.22777 -3.10559,-0.72779 -4.65499,-1.10582c-4.9631,-1.21093 -9.6763,-2.8814 -14.6863,-3.93436c-1.01382,-0.55695 -1.92909,-1.35359 -3.04147,-1.67085c-1.11158,-0.31703 -2.39491,0.25813 -3.46282,-0.18424c-1.71919,-0.71216 -2.98445,-2.2408 -4.60392,-3.15735c-1.50983,-0.8545 -3.47873,-0.03256 -5.19778,-0.26631c-3.32892,-0.45266 -6.36645,-2.22205 -9.66586,-2.85491c-2.30551,-0.44222 -4.71105,0.33595 -7.04236,0.06034c-1.58341,-0.18719 -3.10996,-0.72747 -4.69043,-0.93809c-2.49544,-0.33254 -5.09465,0.38863 -7.55072,-0.16413c-1.36429,-0.30705 -2.37504,-1.63412 -3.75235,-1.87617c-1.89923,-0.33378 -3.85342,0.17152 -5.78154,0.20063c-0.47248,0.00713 -15.29395,-0.00303 -15.47541,-0.01449c-6.14421,-0.38815 -12.03317,-2.28502 -18.09664,-2.83627c-3.17299,-0.28847 -6.37236,0.01865 -9.55821,-0.01969c-2.40997,-0.60249 -4.97757,-0.42597 -7.37338,-1.08253c-1.34869,-0.3696 -2.40245,-1.51101 -3.75235,-1.87617c-0.80512,-0.21779 -1.66352,0.24868 -2.49523,0.18614c-3.28942,-0.24735 -6.55422,-0.92802 -9.85292,-0.92359c-9.69348,0.01302 -19.3872,0 -29.08068,0c-15.63477,0 -31.26954,0 -46.90432,0c-12.19512,0 -24.39024,0 -36.58537,0c-6.8793,0 -13.7586,0 -20.6379,0c-2.0293,0 -4.10287,-0.56393 -6.08638,-0.13533c-3.41238,0.73735 -6.59504,2.4875 -10.06014,2.91309c-6.06643,0.74509 -12.29816,0.92092 -18.39086,1.83009c-11.64645,1.73792 -24.38447,4.50128 -35.44064,8.74994c-1.01742,0.39098 -1.72927,1.35526 -2.71183,1.82704c-3.52632,1.69315 -7.59421,2.60433 -11.47463,2.54196c-6.28211,2.2218 -13.13414,4.4993 -19.69981,5.62852c-1.87453,0.3224 -3.75199,0.62751 -5.62852,0.93809c-1.33951,0.2217 -2.94251,-0.69093 -4.07273,0.06143c-0.73623,0.49009 -1.06778,1.51737 -1.87617,1.87617c-2.06861,0.91814 -4.30438,1.45122 -6.53121,1.85539c-2.55609,0.46393 -2.72812,-0.60481 -4.34905,0.30813c-3.70551,2.087 -6.59995,5.38074 -10.10761,7.78546c-2.84113,1.94777 -6.02011,3.35005 -9.01525,5.05152c-4.11226,2.33608 -8.00777,5.08933 -12.30667,7.06096c-1.82355,0.83635 -3.92054,0.85364 -5.8808,1.28047c0,0 -7.35436,1.47087 -8.82523,-5.88348c-0.28066,-1.40328 -0.24,-2.59235 0.00956,-3.59787z" fill="#13106c" stroke-width="0.5"/><path d="M32.80266,50.79947c0,-0.69036 0.55964,-1.25 1.25,-1.25c0.69036,0 1.25,0.55964 1.25,1.25c0,0.69036 -0.55964,1.25 -1.25,1.25c-0.69036,0 -1.25,-0.55964 -1.25,-1.25z" fill="#f8f8f8" stroke-width="0.5"/><path d="M14.63521,36.58146c0,-0.69036 0.55964,-1.25 1.25,-1.25c0.69036,0 1.25,0.55964 1.25,1.25c0,0.69036 -0.55964,1.25 -1.25,1.25c-0.69036,0 -1.25,-0.55964 -1.25,-1.25z" fill="#f8f8f8" stroke-width="0.5"/><path d="M35.17231,8.93533c0,-0.69036 0.55964,-1.25 1.25,-1.25c0.69036,0 1.25,0.55964 1.25,1.25c0,0.69036 -0.55964,1.25 -1.25,1.25c-0.69036,0 -1.25,-0.55964 -1.25,-1.25z" fill="#f8f8f8" stroke-width="0.5"/><path d="M68.34767,31.05224c0,-0.69036 0.55964,-1.25 1.25,-1.25c0.69036,0 1.25,0.55964 1.25,1.25c0,0.69036 -0.55964,1.25 -1.25,1.25c-0.69036,0 -1.25,-0.55964 -1.25,-1.25z" fill="#f8f8f8" stroke-width="0.5"/><path d="M97.5736,7.35555c0,-0.69036 0.55964,-1.25 1.25,-1.25c0.69036,0 1.25,0.55964 1.25,1.25c0,0.69036 -0.55964,1.25 -1.25,1.25c-0.69036,0 -1.25,-0.55964 -1.25,-1.25z" fill="#f8f8f8" stroke-width="0.5"/><path d="M124.42984,30.26235c0,-0.69036 0.55964,-1.25 1.25,-1.25c0.69036,0 1.25,0.55964 1.25,1.25c0,0.69036 -0.55964,1.25 -1.25,1.25c-0.69036,0 -1.25,-0.55964 -1.25,-1.25z" fill="#f8f8f8" stroke-width="0.5"/><path d="M157.60519,9.72522c0,-0.69036 0.55964,-1.25 1.25,-1.25c0.69036,0 1.25,0.55964 1.25,1.25c0,0.69036 -0.55964,1.25 -1.25,1.25c-0.69036,0 -1.25,-0.55964 -1.25,-1.25z" fill="#f8f8f8" stroke-width="0.5"/><path d="M179.7221,27.89268c0,-0.69036 0.55964,-1.25 1.25,-1.25c0.69036,0 1.25,0.55964 1.25,1.25c0,0.69036 -0.55964,1.25 -1.25,1.25c-0.69036,0 -1.25,-0.55964 -1.25,-1.25z" fill="#f8f8f8" stroke-width="0.5"/><path d="M189.20077,12.09489c0,-0.69036 0.55964,-1.25 1.25,-1.25c0.69036,0 1.25,0.55964 1.25,1.25c0,0.69036 -0.55964,1.25 -1.25,1.25c-0.69036,0 -1.25,-0.55964 -1.25,-1.25z" fill="#f8f8f8" stroke-width="0.5"/><path d="M216.8469,26.3129c0,-0.69036 0.55964,-1.25 1.25,-1.25c0.69036,0 1.25,0.55964 1.25,1.25c0,0.69036 -0.55964,1.25 -1.25,1.25c-0.69036,0 -1.25,-0.55964 -1.25,-1.25z" fill="#f8f8f8" stroke-width="0.5"/><path d="M239.75369,9.72522c0,-0.69036 0.55964,-1.25 1.25,-1.25c0.69036,0 1.25,0.55964 1.25,1.25c0,0.69036 -0.55964,1.25 -1.25,1.25c-0.69036,0 -1.25,-0.55964 -1.25,-1.25z" fill="#f8f8f8" stroke-width="0.5"/><path d="M267.39982,34.21179c0,-0.69036 0.55964,-1.25 1.25,-1.25c0.69036,0 1.25,0.55964 1.25,1.25c0,0.69036 -0.55964,1.25 -1.25,1.25c-0.69036,0 -1.25,-0.55964 -1.25,-1.25z" fill="#f8f8f8" stroke-width="0.5"/><path d="M273.71891,5.77578c0,-0.69036 0.55964,-1.25 1.25,-1.25c0.69036,0 1.25,0.55964 1.25,1.25c0,0.69036 -0.55964,1.25 -1.25,1.25c-0.69036,0 -1.25,-0.55964 -1.25,-1.25z" fill="#f8f8f8" stroke-width="0.5"/><path d="M78.61625,63.4377c0,-0.69036 0.55964,-1.25 1.25,-1.25c0.69036,0 1.25,0.55964 1.25,1.25c0,0.69036 -0.55964,1.25 -1.25,1.25c-0.69036,0 -1.25,-0.55964 -1.25,-1.25z" fill="#f8f8f8" stroke-width="0.5"/><path d="M160.76475,49.21969c0,-0.69036 0.55964,-1.25 1.25,-1.25c0.69036,0 1.25,0.55964 1.25,1.25c0,0.69036 -0.55964,1.25 -1.25,1.25c-0.69036,0 -1.25,-0.55964 -1.25,-1.25z" fill="#f8f8f8" stroke-width="0.5"/><path d="M240.54358,51.58936c0,-0.69036 0.55964,-1.25 1.25,-1.25c0.69036,0 1.25,0.55964 1.25,1.25c0,0.69036 -0.55964,1.25 -1.25,1.25c-0.69036,0 -1.25,-0.55964 -1.25,-1.25z" fill="#f8f8f8" stroke-width="0.5"/><path d="M309.26392,10.51511c0,-0.69036 0.55964,-1.25 1.25,-1.25c0.69036,0 1.25,0.55964 1.25,1.25c0,0.69036 -0.55964,1.25 -1.25,1.25c-0.69036,0 -1.25,-0.55964 -1.25,-1.25z" fill="#f8f8f8" stroke-width="0.5"/><path d="M296.62573,27.10279c0,-0.69036 0.55964,-1.25 1.25,-1.25c0.69036,0 1.25,0.55964 1.25,1.25c0,0.69036 -0.55964,1.25 -1.25,1.25c-0.69036,0 -1.25,-0.55964 -1.25,-1.25z" fill="#f8f8f8" stroke-width="0.5"/><path d="M358.23711,7.35555c0,-0.69036 0.55964,-1.25 1.25,-1.25c0.69036,0 1.25,0.55964 1.25,1.25c0,0.69036 -0.55964,1.25 -1.25,1.25c-0.69036,0 -1.25,-0.55964 -1.25,-1.25z" fill="#f8f8f8" stroke-width="0.5"/><path d="M337.69998,33.4219c0,-0.69036 0.55964,-1.25 1.25,-1.25c0.69036,0 1.25,0.55964 1.25,1.25c0,0.69036 -0.55964,1.25 -1.25,1.25c-0.69036,0 -1.25,-0.55964 -1.25,-1.25z" fill="#f8f8f8" stroke-width="0.5"/><path d="M357.44722,61.06803c0,-0.69036 0.55964,-1.25 1.25,-1.25c0.69036,0 1.25,0.55964 1.25,1.25c0,0.69036 -0.55964,1.25 -1.25,1.25c-0.69036,0 -1.25,-0.55964 -1.25,-1.25z" fill="#f8f8f8" stroke-width="0.5"/><path d="M328.2213,53.16914c0,-0.69036 0.55964,-1.25 1.25,-1.25c0.69036,0 1.25,0.55964 1.25,1.25c0,0.69036 -0.55964,1.25 -1.25,1.25c-0.69036,0 -1.25,-0.55964 -1.25,-1.25z" fill="#f8f8f8" stroke-width="0.5"/><path d="M381.93379,26.3129c0,-0.69036 0.55964,-1.25 1.25,-1.25c0.69036,0 1.25,0.55964 1.25,1.25c0,0.69036 -0.55964,1.25 -1.25,1.25c-0.69036,0 -1.25,-0.55964 -1.25,-1.25z" fill="#f8f8f8" stroke-width="0.5"/><path d="M393.78213,6.56566c0,-0.69036 0.55964,-1.25 1.25,-1.25c0.69036,0 1.25,0.55964 1.25,1.25c0,0.69036 -0.55964,1.25 -1.25,1.25c-0.69036,0 -1.25,-0.55964 -1.25,-1.25z" fill="#f8f8f8" stroke-width="0.5"/><path d="M448.2845,10.51511c0,-0.69036 0.55964,-1.25 1.25,-1.25c0.69036,0 1.25,0.55964 1.25,1.25c0,0.69036 -0.55964,1.25 -1.25,1.25c-0.69036,0 -1.25,-0.55964 -1.25,-1.25z" fill="#f8f8f8" stroke-width="0.5"/><path d="M414.31926,42.11069c0,-0.69036 0.55964,-1.25 1.25,-1.25c0.69036,0 1.25,0.55964 1.25,1.25c0,0.69036 -0.55964,1.25 -1.25,1.25c-0.69036,0 -1.25,-0.55964 -1.25,-1.25z" fill="#f8f8f8" stroke-width="0.5"/><path d="M464.87218,52.37925c0,-0.69036 0.55964,-1.25 1.25,-1.25c0.69036,0 1.25,0.55964 1.25,1.25c0,0.69036 -0.55964,1.25 -1.25,1.25c-0.69036,0 -1.25,-0.55964 -1.25,-1.25z" fill="#f8f8f8" stroke-width="0.5"/><path d="M421.42826,19.2039c0,-0.69036 0.55964,-1.25 1.25,-1.25c0.69036,0 1.25,0.55964 1.25,1.25c0,0.69036 -0.55964,1.25 -1.25,1.25c-0.69036,0 -1.25,-0.55964 -1.25,-1.25z" fill="#f8f8f8" stroke-width="0.5"/><path d="M437.22605,68.96693c0,-0.69036 0.55964,-1.25 1.25,-1.25c0.69036,0 1.25,0.55964 1.25,1.25c0,0.69036 -0.55964,1.25 -1.25,1.25c-0.69036,0 -1.25,-0.55964 -1.25,-1.25z" fill="#f8f8f8" stroke-width="0.5"/><path d="M13.84532,72.91638c0,-0.69036 0.55964,-1.25 1.25,-1.25c0.69036,0 1.25,0.55964 1.25,1.25c0,0.69036 -0.55964,1.25 -1.25,1.25c-0.69036,0 -1.25,-0.55964 -1.25,-1.25z" fill="#f8f8f8" stroke-width="0.5"/><path d="M52.00223,197.10095c-0.19174,-0.44329 -0.28462,-1.13259 -0.32195,-1.90087c-0.11901,0.48267 -0.23417,0.97536 -0.13128,1.31879c0.01854,0.06189 0.2439,0.33264 0.45323,0.58207zM53.27946,172.21805c0,6.09501 0,12.50197 0,18.5742c0,2.01718 0.24368,4.0337 0.14038,6.044c-0.03281,0.63854 0.28022,1.44193 -0.15316,1.91203c-0.91083,0.988 -2.96497,-1.25246 -3.15331,-1.79474c-0.45631,-1.31381 0.48068,-3.07745 0.13311,-4.55875c-0.46627,-1.98718 -2.88578,-3.3318 -2.26436,-5.32794c0.24999,-2.05942 0.46764,-3.93465 1.47458,-5.67526c0.53674,-0.92781 -0.6497,-2.53181 -0.30908,-3.62342c0.24805,-0.79494 1.22803,-1.13898 1.36782,-2.09749c0.31173,-2.13735 -0.14998,-4.06469 2.25669,-4.85315c0,0 0.72761,-0.1819 0.90951,0.54571c0.12918,0.5167 -0.20031,0.75821 -0.40218,0.8548z" fill="#0a093f" stroke-width="0.5"/><path d="M22.34881,203.8129c-0.04774,-0.0404 -0.09743,-0.08122 -0.14918,-0.12251c0,0 -0.58565,-0.46852 -0.11713,-1.05417c0.46852,-0.58565 1.05417,-0.11713 1.05417,-0.11713c1.79329,1.4382 1.78094,2.41909 2.48875,4.4028c0.31502,0.88287 2.02792,0.48569 2.47555,1.28177c0.78452,1.39522 -0.64621,1.92499 -0.33411,3.01376c0.35335,1.23265 2.40371,0.80589 2.5859,2.36001c0.00546,0.04654 -0.92661,2.07248 -0.99321,2.46775c0.00963,2.96654 3.19494,5.49838 2.68701,8.51134c-0.17265,1.02415 -0.84223,1.43447 -1.73587,1.64529c-2.5226,0.59512 -5.2948,1.08455 -7.92149,1.44133c-0.88301,-3.93954 -0.68743,-8.56042 -0.32697,-12.57082c0.13315,-1.48141 -0.77067,-2.84834 -0.5614,-4.28785c0.14356,-0.9875 0.70296,-1.56308 0.84444,-2.50524c-0.00408,-1.48115 -0.44552,-3.07381 0.00354,-4.46632z" fill="#0a093f" stroke-width="0.5"/><path d="M86.73721,141.48231c-0.10518,-0.06364 -0.20493,-0.16665 -0.28539,-0.32757c-0.33541,-0.67082 0.33541,-1.00623 0.33541,-1.00623l0.3843,-0.17218c2.01281,-0.49169 4.22916,-0.25318 6.29776,-0.25318c1.98027,0 3.97543,0.0252 5.94729,-0.11351c0.84825,-0.05967 2.02129,-0.51682 2.67862,0.51435c0.59114,0.92732 -1.91122,3.66085 -2.50864,4.01398c-0.46765,0.27641 -1.14122,0.11693 -1.56398,0.45806c-0.9055,0.73068 -0.11288,3.91751 -0.13077,4.93474c-1.24004,2.61588 -3.26324,3.17078 -5.05103,0.58311c-0.49905,-0.72234 -0.19594,-2.06037 -0.6412,-2.69996c-0.6488,-0.93196 -2.80132,-0.85571 -3.55528,-2.2204c-0.43232,-0.7825 0.01656,-2.29004 -0.30149,-2.92277c-0.22093,-0.43952 -0.93407,-0.32591 -1.36148,-0.56944c0,0 -0.13274,-0.07585 -0.24411,-0.21899z" fill="#0a093f" stroke-width="0.5"/><path d="M103.24114,222.14444c-0.30509,-0.17678 -0.3597,-0.559 -0.3597,-0.559c-0.45027,-3.4081 1.83809,-6.46551 1.83878,-9.79292c0.00045,-2.17308 -1.32007,-3.81878 -1.82073,-5.81243c-0.52756,-2.10077 -0.1076,-3.6597 0.62891,-5.60362c1.19341,-1.92276 2.66003,-3.62493 3.84247,-5.48571c0.46236,-0.72761 0.07552,-1.92136 0.73159,-2.48061c0.48102,-0.41003 1.2998,-0.67411 1.85816,-0.3779c0.35755,0.18967 0.29836,1.9777 0.29836,2.44506c0,2.57896 -0.41082,5.1133 -0.69351,7.65744c0.00824,6.33124 1.27985,12.19995 1.26902,18.58348c-0.0641,0.51282 0.04977,2.53704 -0.22595,2.88635c-0.3212,0.40692 -0.87061,0.70256 -1.38902,0.69958c-0.50253,-0.00288 -1.39424,-0.97948 -1.88258,-1.22607c-0.95471,-0.48207 -2.10907,-0.38714 -3.13607,-0.38714h-0.23079c0,0 -0.60732,-0.00001 -0.72894,-0.54651z" fill="#0a093f" stroke-width="0.5"/><path d="M65.68358,183.0592c0.14175,-0.04725 0.26467,-0.05685 0.37064,-0.04192c0.26129,-0.0265 0.48659,0.10225 0.48659,0.10225c1.62597,1.06154 1.25798,1.97572 1.58549,3.65725c0.13317,0.68374 1.75376,1.12927 2.07118,1.76361c0.32482,0.64913 0.01896,1.47971 0.26998,2.16079c1.02854,2.79071 2.60529,5.53666 -0.23054,7.65711c-0.48865,1.22548 -0.28979,2.44759 -0.61283,3.69388c-0.34565,1.33354 -1.57771,2.84767 -2.39883,3.98035l-0.21559,0.64678c-0.09425,0.30647 -0.3796,0.52923 -0.71698,0.52923c-0.3154,0 -0.58534,-0.19469 -0.69617,-0.47045l-0.36513,-0.85196l0.30521,-0.1308c-0.43376,-1.38374 0.14128,-2.50811 0.13007,-4.37986c-0.0257,-4.28739 -0.12398,-8.59213 -0.12398,-12.89363c0,-1.28923 -0.12759,-2.56461 -0.11429,-3.84713l-0.21915,-0.62682c0,0 -0.23717,-0.71152 0.47434,-0.94869z" fill="#080833" stroke-width="0.5"/><path d="M144.91162,152.62249c-0.02809,-0.15102 -0.01084,-0.27172 -0.01084,-0.27172l0.10792,-0.75545c0.03409,-0.23418 0.06818,-0.46837 0.10227,-0.70255c-0.01298,-5.57237 -0.43983,-11.09658 -0.43265,-16.63729c-0.34738,-3.44288 0.79138,-6.52592 0.54057,-10.02089c-0.19427,-2.70704 -0.9102,-4.9479 -0.13882,-7.66409c2.2708,-0.07935 4.68709,0.37258 6.93443,0.06912c1.50766,-0.20358 2.82922,-0.87446 4.37428,-0.97709c1.10665,-0.07351 3.25747,-0.23225 2.55818,1.93486c-0.15864,0.49161 -0.91613,0.478 -1.38167,0.70187c-1.05696,0.50826 -1.55033,1.07231 -2.32784,1.96164c-0.88261,2.13084 -3.99469,3.00467 -4.57011,5.14146c-0.36852,1.36847 -0.13451,2.9218 -0.40167,4.31285c-0.48718,2.53662 -1.58146,3.66395 -0.98575,6.35321c0.72377,2.36017 -0.66918,4.53362 -1.17739,6.83638c-0.75861,3.43739 -0.73568,6.72696 -1.74091,10.09131c0,0 -0.21552,0.71837 -0.93389,0.50286c-0.59498,-0.17849 -0.54934,-0.70193 -0.51611,-0.87648z" fill="#080833" stroke-width="0.5"/><path d="M175.24887,218.07519c-0.19898,0.10519 -0.5838,0.2219 -0.92119,-0.18296c-0.48014,-0.57617 0.09603,-1.05631 0.09603,-1.05631c1.35172,-1.1205 3.40754,-3.06014 4.15609,-4.68462c0.1731,-0.37565 -0.68446,-0.54216 -0.81695,-0.93399c-0.30615,-0.90539 -0.33959,-1.95916 -0.04069,-2.86697c0.32922,-0.9999 1.25948,-2.01672 1.58842,-3.00035c0.40255,-1.20373 0.138,-3.06696 0.138,-4.3516c0,-2.79077 -0.51376,-6.1568 0.20423,-8.85017c0.52325,-1.96284 1.64053,-3.48495 2.5288,-5.26423c1.01068,-2.0245 1.08852,-4.09338 2.29439,-5.82997l0.49764,-1.16116c0.11084,-0.27576 0.38076,-0.47045 0.69617,-0.47045c0.3861,0 0.70407,0.29176 0.74544,0.66684l0.17525,1.40206l-0.23023,0.02878c0.63467,3.43723 -0.08132,7.25249 -0.65611,10.59737c-0.50553,2.94185 0.42228,5.80124 0.88959,8.64258c-0.00998,2.60398 -0.7713,5.36624 -0.194,8.00814c0.23586,1.07936 0.71411,1.3874 0.72603,2.64319c0.01209,1.27429 0.43083,3.19619 -0.89736,3.99869c-1.53515,0.92756 -4.08675,1.14672 -5.81613,1.83847c-1.4922,0.30347 -2.98574,0.60035 -4.47891,0.89898l-0.32358,0.01457c0,0 -0.17824,0 -0.36094,-0.08689z" fill="#080833" stroke-width="0.5"/><path d="M215.33965,172.57323c-0.05734,0.01767 -0.7179,0.20479 -0.9447,-0.4756c-0.23717,-0.71151 0.47434,-0.94868 0.47434,-0.94868l0.4922,-0.16174c2.88691,-0.68623 6.55321,0.21493 9.54467,0.41569c4.05483,0.27212 8.27606,0.1445 12.33837,0.1445c3.08189,0 6.42219,0.54255 9.40508,0.29385c3.56054,-0.29686 6.38101,-1.44585 9.54188,-0.24505l0.04731,-0.16559l1.00358,0.28673c0.32216,0.08416 0.55991,0.37717 0.55991,0.7257c0,0.32193 -0.20283,0.59649 -0.48768,0.70284l-0.712,0.2848l-0.0125,-0.03123l-0.07237,0.05944c-3.5574,0.51144 -5.55755,2.84329 -8.45723,4.75547c-1.91304,0.64256 -3.05017,3.37246 -4.71009,3.80878c-3.21584,0.84529 -2.25737,-2.12 -3.16735,-3.68892c-0.16278,-0.28064 -1.88773,-0.1694 -2.12652,-0.1918c-1.14814,-0.10768 -2.20309,-1.12737 -3.34436,-1.02229c-1.16679,0.10743 -2.1481,0.7305 -3.43911,0.73355c-0.94715,0 -3.41301,0.37279 -4.19964,-0.12387c-0.3648,-0.23032 -0.32946,-0.80788 -0.58909,-1.15245c-0.43183,-0.57308 -2.37314,-0.96584 -3.07183,-1.25675c-2.21371,-0.92169 -5.01126,-2.46363 -7.43219,-2.41887c0,0 -0.43257,0 -0.64068,-0.32852z" fill="#080833" stroke-width="0.5"/><path d="M-14.38012,258.65252c-2.04333,-0.30413 -6.49708,-1.62992 -6.49708,-7.40947c0,-7.5 7.5,-7.5 7.5,-7.5c3.40432,0.04124 6.69554,-0.54153 10.05567,-0.84124c1.85535,-0.16549 3.2537,-1.81601 4.84734,-2.78039c2.57506,-1.55827 5.4091,-2.67809 7.91617,-4.34355c2.41523,-1.60445 4.49164,-4.45458 7.00895,-5.92408c7.59067,-4.43114 17.77531,-3.44079 24.52502,-8.99199c0.93809,0 1.94327,0.3484 2.81426,0c0.82118,-0.32847 1.03471,-1.60382 1.87617,-1.87617c1.81179,-0.58641 3.78434,-0.44327 5.68438,-0.5709c4.64623,-0.31211 9.4173,0 14.07129,0c7.36316,0 14.67456,-0.3265 21.83927,1.03493c1.6919,0.32149 3.45591,-0.26253 5.16618,-0.06034c1.58341,0.18719 3.10592,0.76043 4.69043,0.93809c1.39629,0.15655 2.83601,-0.21057 4.21468,0.06034c2.07513,0.40777 3.96223,1.5397 6.03608,1.95394c3.80357,0.75974 7.75062,0.77431 11.50257,1.75776c4.69693,-0.09307 9.39525,-0.05619 14.09301,-0.05619c2.27853,0 6.82037,0.66359 9.22985,0.0795c4.0721,-0.98713 7.79275,-3.10219 11.78828,-4.36398c4.79861,-1.5154 10.8884,-1.72502 15.88671,-2.25657c1.76698,-0.18791 3.57506,0.30467 5.33075,0.03064c1.27385,-0.19882 2.47047,-0.80011 3.75235,-0.93809c0.83167,-0.08952 1.69487,0.50842 2.49534,0.26562c1.0789,-0.32726 1.72906,-1.57045 2.81426,-1.87617c4.51725,-1.27262 10.61561,-0.32181 15.30659,-0.32181c5.13801,0 9.97077,0.27758 14.98767,0.99428c3.14404,0.44915 6.43745,0.57864 9.34547,1.85539c0.55244,0.24255 0.48828,1.25609 1.05106,1.47358c0.66293,0.25619 1.44383,-0.47547 2.11751,-0.24909c1.35264,0.45452 2.38859,1.57801 3.67503,2.19551c2.1546,1.03422 4.94764,0.0882 7.07139,1.18438c1.33676,0.68998 1.8328,2.39601 2.88969,3.46652c0.09299,0.09418 0.05541,-0.3662 0.18682,-0.35036c1.58299,0.19076 3.14503,0.5457 4.69043,0.93809c7.68702,1.9518 15.73662,1.55752 23.7228,1.65047c5.10968,-0.85161 10.5647,-1.06044 15.40809,-3.13676c4.47081,-1.9166 7.84453,-4.93959 12.87288,-6.13433c1.2169,-0.28914 2.52911,0.26105 3.75235,0c3.65018,-0.77897 6.8964,-2.96334 10.53589,-3.79083c0.60325,-0.13716 1.25187,0.40982 1.84224,0.22497c0.54171,-0.16962 0.72624,-0.91048 1.22319,-1.18481c1.8639,-1.02893 3.75771,-2.06598 5.79365,-2.68871c1.0639,-0.32541 2.24982,0.13683 3.33604,-0.10379c1.69175,-0.37476 3.2306,-1.27535 4.90488,-1.72176c2.67345,-0.71282 5.49113,-0.68854 8.22833,-1.09249c2.62129,-0.38685 5.94741,-2.0464 8.44278,-2.81426c3.58413,0 4.80399,-1.27444 8.44278,-1.87617c3.3959,-0.56156 8.88231,-0.54402 12.25935,-0.06034c5.33328,0.76386 10.55084,2.31046 15.63978,4.07964c1.69013,0.58757 3.53423,0.75845 5.14007,1.54779c0.87741,0.43129 1.31997,1.46643 2.12391,2.02279c1.471,1.01799 3.54952,0.59702 5.22572,1.22192c1.78511,0.6655 3.26924,2.26555 5.16587,2.44524c1.24521,0.11797 2.51956,-0.21139 3.75235,0c2.81877,0.48334 5.32517,2.08873 7.96733,3.18328c1.60048,0.66302 3.46201,0.25607 5.16587,0.56907c2.7568,0.50642 5.19358,1.73961 7.72163,2.85274c2.55216,-0.24741 5.73622,-0.45342 8.22584,-0.03848c0.59812,0.09969 1.00653,0.84124 1.61289,0.84124c0.60637,0 1.01262,-0.75549 1.61289,-0.84124c4.25707,-0.60815 9.07818,-0.09684 13.39649,-0.09684c3.01428,0 6.40436,-0.36666 9.38086,0c0.34765,0.04282 0.5656,0.72073 0.88222,0.5709c0.79945,-0.3783 1.04227,-1.58149 1.87617,-1.87617c4.96995,-1.75627 10.70148,-0.62212 15.74005,-1.41215c0.97689,-0.15317 1.83659,-0.78994 2.81426,-0.93809c2.33078,-0.35318 6.84827,0.08592 9.00327,0.22497c6.68266,3.94 15.66147,9.2496 18.13802,17.19993c1.08137,3.47147 -0.07147,8.62996 -0.64183,12.17285c-0.20293,1.26055 -1.35312,2.4542 -1.02971,3.68934c0.51358,1.96141 2.50738,3.2372 3.32875,5.09091c0.78445,1.77037 1.15829,3.71399 1.42266,5.63223c0.21346,1.54884 -0.17266,3.13652 0,4.69043c0.38081,3.42729 0.97836,6.8489 0.99428,10.29724c0.01403,3.03933 -0.679,6.13449 -0.09684,9.11758c0.3788,1.94104 1.56683,3.6752 1.87617,5.62852c0.35614,2.24883 0.07915,4.5531 0.09684,6.82988c0.06749,8.6825 -0.47389,15.23621 -3.77602,23.37425c-3.56646,4.69452 -3.83403,6.29863 -9.1326,8.81294c-4.38445,2.08054 -8.45426,2.01883 -12.35053,5.50781c-2.13323,1.91024 -3.75106,4.42805 -6.13741,6.01079c-2.89974,1.92324 -6.34697,2.85537 -9.4879,4.35265c-6.57649,3.13501 -9.01449,4.98603 -16.15143,6.99584c-3.18742,0.8976 -6.51697,1.1968 -9.73719,1.9685c-4.8593,1.1645 -9.56629,2.99206 -14.49111,3.83764c-3.50963,0.60259 -17.35124,1.34487 -23.04709,1.94911c-18.11081,1.92128 -36.53615,6.20268 -54.78509,6.59486c-0.57417,0.01234 -29.56734,0.00931 -30.3736,0.00931c-33.14884,0 -66.29769,0 -99.44653,0c-15.16061,0 -30.12582,-0.10438 -45.26045,-0.88528c-2.38696,-0.12316 -4.81998,0.19684 -7.16561,-0.26225c-1.36031,-0.26624 -2.37811,-1.50299 -3.71547,-1.86737c-0.78835,-0.2148 -1.62926,0.25166 -2.44395,0.18916c-3.25722,-0.2499 -6.56177,-0.35051 -9.73577,-1.12362c-3.69652,-0.90038 -7.0874,-2.79885 -10.73992,-3.86377c-7.70743,-2.24716 -15.63257,-3.66862 -23.42035,-5.61918c-3.62776,-1.21796 -7.15494,-2.79158 -10.88328,-3.65388c-4.10282,-0.94891 -8.34445,-1.14311 -12.51062,-1.75673c-16.18176,-2.38333 -31.73641,-6.50374 -47.58979,-10.45353c-9.62477,-2.39796 -18.66641,-5.29126 -27.99815,-8.68462c-8.71142,-3.16779 -17.23716,-6.02029 -23.58646,-13.23104c-5.17346,-5.87537 -7.65766,-13.24078 -10.02966,-20.52032c-1.75715,-5.39259 -2.26105,-8.27255 -2.26105,-13.62874c0.04001,-2.2748 -0.68349,-4.50098 -0.90159,-6.76566c-0.52784,-5.48095 -0.25048,-11.18486 -0.10602,-16.78172z" fill="#0d0c4f" stroke-width="0.5"/><path d="M53.30326,268.80265c1.97809,-1.85015 3.93589,-3.72329 6.04923,-5.41401c1.37275,-1.09823 3.1175,-1.653 4.53343,-2.69496c2.74605,-2.02078 2.1466,-3.65866 5.76709,-5.39145c1.95374,-0.93508 4.21455,-1.00491 6.30436,-1.57427c2.43461,-0.66331 4.75626,-1.9489 7.12218,-2.70171c3.14862,-1.00187 6.54996,-0.88081 9.83392,-1.24569c2.80923,-0.31214 5.59475,-0.96026 8.42106,-0.99428c8.70926,0 19.05907,-1.28276 27.1474,2.84967c2.7708,1.41564 4.59694,4.22301 7.15298,5.99728c1.61096,1.11824 3.44104,1.90347 5.0244,3.06046c1.26925,0.92746 1.90673,2.61195 3.26544,3.40258c1.93646,1.12682 4.34449,1.50323 6.01854,2.99225c1.10255,0.98069 1.00857,2.81218 1.86118,4.01651c1.42519,2.01311 5.56517,5.51809 7.91131,6.46499c1.19557,0.48253 2.56792,0.4288 3.75235,0.93809c1.12296,0.48286 2.02615,1.37028 3.07524,1.99767c1.12545,0.67305 4.294,0.48462 4.50676,0.49726c0.93809,0.62539 1.75138,1.50012 2.81426,1.87617c0.50638,0.17916 1.04201,-0.30744 1.57896,-0.32181c2.27604,-0.06089 4.56603,-0.14609 6.82988,0.09684c0.98318,0.10551 1.83736,0.78491 2.81426,0.93809c2.3689,0.37143 5.82443,0.29913 8.20121,-0.04065c3.89641,-0.55703 6.03807,-2.77106 9.34705,-4.67154c2.33984,-1.34386 4.61317,-2.815 7.03592,-4.00288c1.77571,-0.87064 3.86325,-0.98456 5.62852,-1.87617c2.01271,-1.01659 3.6168,-2.73379 5.62852,-3.75235c4.99862,-2.53085 10.44464,-3.19505 15.19305,-6.06934c4.24608,-0.25229 8.10492,-1.65857 12.22905,-2.10114c5.85635,-0.62846 12.17461,-0.09684 18.08692,-0.09684c3.40396,0 7.875,-0.52608 11.10401,0.20063c1.36429,0.30705 2.3811,1.60184 3.75235,1.87617c1.66951,0.33401 3.41697,-0.31239 5.10674,-0.10379c2.66832,0.32941 8.84373,2.34647 11.21365,3.35856c0.76575,0.32702 1.17201,1.26942 1.95349,1.55684c0.49421,0.18177 1.03622,-0.34183 1.55725,-0.26562c4.52042,0.66117 6.71179,1.87966 11.01802,3.6204c4.90258,3.32698 10.29563,1.95193 16.2082,1.95193c3.73053,0 7.53195,-0.19121 11.25704,0c0.84473,0.04336 1.70174,0.54705 2.51705,0.32181c0.80259,-0.22172 1.19058,-1.22325 1.95349,-1.55684c1.18128,-0.51653 2.56666,-0.43175 3.75235,-0.93809c0.94972,-0.40557 1.62993,-1.29219 2.55327,-1.75468c4.73732,-2.37284 10.33778,-4.01518 14.85728,-6.85164c2.36619,-1.48504 4.11911,-3.84337 6.53304,-5.24946c2.76876,-1.61278 4.81983,-1.36163 7.0616,-3.74009c1.04126,-1.33988 1.81244,-2.94267 3.12379,-4.01964c0.94875,-0.77918 2.36698,-0.73274 3.42373,-1.35767c1.93298,-1.1431 3.35159,-3.06286 5.33828,-4.10983c0.6614,-0.34855 1.5136,-0.21623 2.16641,-0.5806c2.63618,-1.47141 4.37863,-4.21564 6.92545,-5.8368c0.86666,-0.55167 2.01379,-0.50482 2.9176,-0.99326c1.85739,-1.00379 5.70081,-5.33061 6.60016,-6.00758c1.11727,-0.841 2.58185,-1.11098 3.75235,-1.87617c2.25265,-1.47263 3.91413,-3.77992 6.25996,-5.09906c2.13587,-1.20108 4.54812,-1.83695 6.7482,-2.91591c1.46008,-0.71605 2.67826,-1.92251 4.21316,-2.45976c0.88541,-0.30992 1.92251,0.29119 2.81426,0c0.79153,-0.25846 1.18818,-1.22877 1.95349,-1.55684c0.96508,-0.41371 2.15133,-0.13768 3.09126,-0.60573c1.05452,-0.52511 1.5859,-1.89973 2.70129,-2.27877c2.0478,-0.6959 6.98602,-0.5709 9.43673,-0.5709c4.69043,0 9.38086,0 14.07129,0c2.18731,0 8.18297,-0.02933 9.22784,0.20063c1.82631,0.40195 3.38511,1.59174 5.10162,2.33374c5.05154,2.18364 10.91206,4.95443 15.3842,8.26217c3.4846,2.57732 5.44337,6.22484 8.42266,9.22379c2.76103,2.77925 6.35806,4.59196 8.58127,7.92692c0.68348,1.02526 0.74956,2.35749 1.29557,3.46211c0.99918,2.02142 2.53014,3.7336 3.75235,5.62852c1.41129,4.04015 2.87941,8.17472 4.15118,12.24465c0.23734,0.75955 -0.03617,1.65727 0.32839,2.36462c0.36276,0.70386 1.36771,0.9241 1.72955,1.62843c2.15329,4.19135 2.92556,10.39587 1.85757,15.04699c-0.36738,1.59994 -1.56508,2.90499 -2.08149,4.46322c-0.44609,1.34606 -0.38849,2.81946 -0.78339,4.18142c-0.1043,0.35972 -0.64944,0.51658 -0.68683,0.88925c-0.02357,0.23497 0.45194,0.22922 0.55321,0.44255c0.97662,2.05734 2.56011,3.79549 3.48402,5.87704c0.57759,1.3013 0.14296,2.90419 0.70385,4.21277c0.44115,1.02921 1.8436,1.48103 2.19271,2.54498c0.59541,1.81457 0.22785,3.81801 0.51471,5.7061c0.44192,2.90867 1.53817,5.6999 1.89587,8.62012c0.3341,2.72755 0.0365,5.49579 0.0365,8.24372c0,5.77628 0.28603,11.3504 -1.21549,17.0303c-0.99745,3.77311 -2.53346,7.38629 -3.98245,11.01006c-1.60316,4.00932 -4.48828,7.59039 -5.25633,11.83949c-0.4206,2.32687 0.40764,4.87122 -0.43558,7.08034c-0.76784,2.01164 -2.78904,3.28149 -4.1549,4.94604c-1.80396,2.19847 -3.71145,4.30999 -5.55107,6.47871c-1.20789,1.42398 -2.05823,3.17094 -3.45712,4.40781c-1.4973,1.32387 -3.49901,1.9571 -5.09788,3.15633c-1.27702,0.95782 -2.15938,2.39605 -3.48687,3.2826c-0.62784,0.4193 -1.61626,0.04562 -2.20479,0.51851c-0.63224,0.50801 -0.50605,1.63353 -1.12532,2.15726c-2.29393,1.94 -4.7505,3.74835 -7.4402,5.08671c-11.72915,5.83626 -21.67797,8.36985 -34.33612,10.91287c-10.83171,3.82443 -16.13878,6.41935 -27.48987,7.73398c-3.48078,0.40313 -7.01987,-0.26983 -10.51213,0.01729c-7.54885,0.62064 -14.87491,2.99793 -22.41241,3.74387c-7.06929,0.69961 -14.20762,0.03031 -21.31144,0.03031c-9.37774,0 -18.75547,0 -28.13321,0c-46.59475,0 -93.18949,0 -139.78424,0c-47.8424,0 -95.6848,0 -143.5272,0c-4.95434,0 -10.73274,0.56754 -15.4896,-0.13533c-1.66583,-0.24614 -3.04703,-1.50903 -4.69043,-1.87617c-1.15019,-0.25696 -2.37379,0.23748 -3.53541,0.03848c-2.76026,-0.47287 -5.14055,-2.24363 -7.79926,-3.12337c-4.24996,-1.40626 -8.78702,-2.14584 -12.766,-4.46651c-0.68401,-0.39894 -0.97142,-1.28757 -1.62843,-1.72955c-2.23056,-1.50052 -5.47544,0.39939 -8.05733,-0.34946c-1.50159,-0.43552 -2.29517,-2.24759 -3.75235,-2.81426c-0.90029,-0.35011 -1.95725,0.48788 -2.88863,0.23171c-2.68105,-0.73742 -5.12167,-2.17093 -7.72396,-3.15068c-7.63021,-2.87273 -15.62497,-4.9655 -20.48151,-12.26259c-0.83781,-1.25884 -1.04516,-2.83797 -1.56774,-4.25696c-1.32587,-1.04143 -3.1355,-1.66369 -3.97761,-3.12429c-3.44731,-5.97916 -2.14881,-7.3416 -3.77231,-12.26355c-1.24618,-3.77805 -3.7919,-7.06934 -4.8536,-10.90332c-1.11553,-4.02839 -0.12852,-9.08669 -0.93809,-13.13321c-0.27434,-1.37124 -1.61908,-2.37776 -1.87617,-3.75235c-0.88407,-4.72682 -0.68525,-13.04254 -0.10379,-17.93389c0.11673,-0.98192 0.78764,-1.83694 0.93809,-2.81426c0.3234,-2.10087 -0.36139,-4.40465 0.47406,-6.35919c0.88323,-2.06631 2.70182,-3.64199 4.41994,-5.09036c1.6645,-1.40317 4.44119,-1.29511 5.8057,-2.99144c0.27211,-0.33828 -0.07471,-0.89875 0.09331,-1.29906c1.38929,-3.31012 2.91013,-6.28494 4.21637,-9.58828c0.15802,-1.80703 -0.08202,-3.69451 0.47406,-5.4211c0.27113,-0.84185 1.49787,-1.07672 1.87617,-1.87617c0.14982,-0.31662 -0.53716,-0.53357 -0.5709,-0.88222c-0.12899,-1.3327 -0.1216,-2.69463 0.09684,-4.01563c0.64684,-3.9116 2.59517,-6.89505 4.29664,-10.27556c0.96827,-1.92378 0.13862,-4.37608 0.86785,-6.40258c0.29946,-0.8322 1.54126,-1.0576 1.87617,-1.87617c0.44146,-1.07899 -0.43395,-2.59095 0.31654,-3.48307c1.95533,-2.32432 4.5118,-4.20806 7.25344,-5.51543c1.50378,-0.71709 3.32216,-0.28019 4.98764,-0.32181c4.03421,-0.1008 5.60576,0.0105 9.5715,2.05821c0.78586,0.40578 1.12036,1.41685 1.87617,1.87617c2.47786,1.50585 5.90583,2.24502 8.44278,3.75235c1.41509,0.84078 2.64602,2.09698 4.22825,2.5508c1.25078,0.93809 2.41233,2.00876 3.75235,2.81426c2.61848,1.57399 6.95894,1.65844 9.5953,2.9311c0.44797,0.21625 0.87374,0.52634 1.29967,0.86169c0.92898,-0.24135 1.91584,-0.58603 3.1282,-1.14904c1.89016,-0.87777 3.42464,-2.52437 5.42572,-3.1065c1.64435,-0.47836 3.39846,-0.40147 5.12603,-0.45762c0.48167,-0.40055 0.91831,-0.73171 1.29651,-0.95581c1.29222,-0.76569 2.84214,-1.26032 3.80602,-2.4123l3.82537,-2.34299c0,0 0.49741,-0.2487 1.28906,-0.47522z" fill="#080832" stroke-width="0.5"/><path d="M303.23524,135.0914c0.22082,-0.19253 0.52375,-0.19253 0.52375,-0.19253l0.51233,0.01456c1.7584,-0.32479 3.90139,0.15029 5.73577,0.15029c7.75354,0 15.50709,0 23.26063,0c0.87768,0.00591 2.22259,-0.17059 2.91638,0.64118c1.40283,1.64139 -0.77143,4.14872 -2.10843,4.74669c-1.69073,0.75618 -3.41069,0.06934 -5.13885,0.38863c-3.96726,0.73299 -6.20788,1.4607 -10.24078,0.06252c-2.08553,-2.16172 -6.90728,-0.92409 -9.63817,-2.0964c-1.70405,-0.73151 -3.71236,-2.30873 -5.62859,-2.24263c0,0 -0.75,0 -0.75,-0.75c0,-0.5003 0.33373,-0.66687 0.55595,-0.72232z" fill="#080833" stroke-width="0.5"/><path d="M295.87523,218.5777c-0.80627,-0.01199 -1.27261,0.20679 -2.00982,0.53539c0,0 -0.11882,0.05281 -0.27949,0.06498c-2.44162,1.07002 -4.63986,2.85352 -7.09385,3.92462c-0.80162,0.24058 -1.80686,1.69325 -2.81268,1.02319c-0.65168,-0.43415 -0.20142,-2.53534 -0.30178,-3.21579c-0.68951,-4.67509 0.21664,-9.14208 0.24795,-13.75379c1.75033,-5.39355 -0.56056,-11.67443 -0.03618,-17.26743l-0.08995,0.01285l-0.12216,-0.85506c-0.00616,-0.0387 -0.00936,-0.0784 -0.00936,-0.11884c0,-0.41422 0.33578,-0.75 0.75,-0.75c0.2552,0 0.48064,0.12747 0.61611,0.3222l0.5534,0.77477c1.26218,0.80856 3.59702,1.94967 4.32441,3.26188c0.99091,1.78761 0.10729,4.50394 0.33189,6.45325c0.13786,1.19653 0.62985,2.55224 0.96134,3.71243c0.56259,1.59073 1.97155,2.80779 2.59023,4.42617c0.74565,1.9505 0.2543,4.06795 1.10617,6.05133c0.36641,0.8531 0.52947,2.55293 1.23032,3.29001c0.15157,-0.03509 0.61473,-0.09909 0.84397,0.35346c0.02875,-0.00123 0.05802,-0.00348 0.08783,-0.00679c0,0 0.75,0 0.75,0.75c0,0.75 -0.75,0.75 -0.75,0.75c-0.04273,-0.0024 -0.08496,-0.00546 -0.1267,-0.00916z" fill="#080833" stroke-width="0.5"/><path d="M388.61452,177.91179c0.2097,-0.42478 0.73474,-0.37705 0.73474,-0.37705c3.57011,0.32663 7.34707,0.26951 10.88423,-0.12258c1.1536,-0.12787 4.89007,0.11383 4.44902,-0.14665c-0.37841,-2.66721 0.02425,-7.05544 0.472,-9.76919c0.08098,-0.49077 0.25134,-2.57851 0.71519,-2.74489c3.87441,-1.38979 4.247,5.24396 4.24452,7.28476c0.02149,1.03179 0.66913,0.86823 1.39876,1.62921c0.72954,0.76088 2.60794,4.25669 2.43764,5.22368c-0.21515,1.22168 -1.30638,1.8502 -2.36189,2.21094c-2.57866,0.88129 -6.36026,1.87262 -9.04181,1.8989c-2.32822,0 -4.09972,0.57144 -6.34279,0.86059c-1.67266,0.21562 -2.41953,-0.60761 -3.87167,-1.00463c-1.51265,-0.41356 -2.65314,0.49415 -4.03307,0.75189c-2.02062,0.37741 -4.46843,0.03564 -6.52518,-0.01309c-0.34061,-0.18517 -0.68122,-0.37034 -1.02184,-0.55551l-0.9662,-0.4831c-0.25369,-0.12026 -0.42912,-0.37868 -0.42912,-0.67808c0,-0.41422 0.33578,-0.75 0.75,-0.75h0.1905c0.63286,-0.65609 0.5165,-1.46081 1.74328,-2.04595c1.33839,-0.63837 3.22315,0.1271 4.43147,-0.48131c1.01302,-0.51008 1.23677,-0.80098 2.14222,-0.68795z" fill="#080833" stroke-width="0.5"/><path d="M443.01167,141.14171c0.07401,-0.40673 0.51219,-0.55279 0.51219,-0.55279c0.32599,-0.10862 0.65654,-0.20777 0.99116,-0.2982c0.11,-0.13069 0.28534,-0.23484 0.56483,-0.23484c0.09507,0 0.17808,0.01205 0.25057,0.03309c4.92699,-1.11139 10.62049,-0.52765 15.57534,-0.52765c0.37125,0 2.17669,-0.02661 2.37254,0.11201c1.19458,0.84553 1.01229,3.75652 1.01511,5.08903c0.00347,1.63743 0.68251,2.92576 0.82171,4.55403c0.23691,2.77135 -0.27599,5.85411 -0.82536,8.54328c0.00843,1.73376 0.00365,3.46762 0.00365,5.2014c0,0.37798 0.03061,1.89222 -0.14157,2.08707c-1.17628,1.33113 -4.06604,0.4402 -4.59841,-1.14064c-0.60027,-1.78247 0.29922,-4.17258 -0.18346,-5.98456c-0.07746,-0.29079 -2.20094,-2.0905 -2.23632,-2.13104c-0.69705,-1.73823 -0.69293,-3.95904 -1.50505,-5.50035c-0.29759,-0.56478 -1.4432,-0.85807 -1.94115,-1.24467c-1.53109,-1.1887 -3.75953,-3.01889 -5.78209,-3.31835c-2.21317,-0.32768 -3.87234,0.4832 -5.79852,-1.00189c-1.22921,-1.33435 -3.31459,0.20858 -2.49728,-2.66728c0.38377,-1.35035 2.02352,-1.64689 3.13875,-1.2139c0.08943,0.03472 0.17741,0.11103 0.26334,0.19625z" fill="#080833" stroke-width="0.5"/><path d="M491.39014,80.99349c0,5 -5,5 -5,5l-3.58235,-0.14929c-2.21138,-0.59497 -4.25289,-1.70388 -6.33932,-2.64781c-2.38701,-1.07992 -5.22821,-0.67757 -7.71482,-1.5027c-0.96307,-0.31958 -1.62243,-1.254 -2.55375,-1.65685c-2.19279,-0.94853 -4.56898,-1.40847 -6.80603,-2.24731c-4.32838,-1.62305 -8.10944,-0.81265 -12.04197,-3.23509c-5.14857,-0.86426 -10.98498,-1.75288 -15.74855,-3.92936c-1.74923,-0.79922 -3.12376,-2.35886 -4.94839,-2.96655c-2.39136,-0.79643 -5.09411,0.5939 -7.56109,0.07728c-2.54294,-0.53252 -4.85875,-2.06707 -7.44604,-2.30378c-1.89168,-0.17307 -3.84206,0.22563 -5.69557,-0.19021c-1.03824,-0.23293 -1.68656,-1.38718 -2.70526,-1.69453c-1.78243,-0.53777 -3.74757,-0.24956 -5.52923,-0.78989c-0.9892,-0.3 -1.66407,-1.25641 -2.60792,-1.67792c-2.08737,-0.93218 -4.53969,-0.70152 -6.70892,-1.42298c-0.9643,-0.32072 -1.69377,-1.22169 -2.68564,-1.4429c-1.07206,-0.2391 -2.20015,0.21594 -3.29337,0.10942c-5.2545,-0.51196 -11.15516,-1.5495 -16.10601,-3.19979c-7.55614,0.04005 -14.80604,-0.98451 -22.23409,-2.39012c-4.89035,-0.9254 -9.63723,-3.38186 -14.58249,-3.88877c-18.79537,-1.92659 -38.22824,-0.76556 -57.16924,-0.76556c-2.95089,-0.0481 -5.81356,-1.02821 -8.69981,-1.64434c-1.99804,-0.42652 -4.10133,0.27639 -6.12912,0.0271c-4.46634,-0.54907 -8.54903,-2.0613 -13.12789,-2.34187c-10.06786,-0.6169 -20.79807,-0.41696 -30.67397,0.76209c-6.6711,0.79644 -13.94387,0.03746 -20.62671,0.03746c-11.23223,0 -22.46445,0 -33.69668,0c-13.08416,0 -25.63486,1.67569 -38.55516,3.86042c-2.96896,0.50203 -5.52038,2.55674 -8.47933,3.11482c-5.20108,0.98097 -5.5296,-0.69496 -9.87111,0.67856c-4.09729,1.29625 -8.13265,3.65895 -12.2458,4.85067c-4.17977,1.21102 -9.41017,0.01804 -13.57156,0.82153c-3.26595,0.6306 -6.09565,2.66877 -9.19279,3.88196c-1.77653,0.24402 -3.59614,0.273 -5.3296,0.73206c-2.4908,0.65961 -4.61808,2.32661 -7.0615,3.14446c-1.99349,0.66725 -4.15353,0.77589 -6.12273,1.51174c-1.29175,0.4827 -2.40018,1.45381 -3.74552,1.7566c-3.09558,0.6967 -6.33081,-0.03392 -9.39456,1.28611c-2.67846,1.15402 -4.93477,3.11563 -7.48406,4.53233c-5.22783,2.90521 -8.43176,4.23635 -12.87425,7.53972c-1.87736,1.39598 -3.44061,3.23207 -5.46701,4.40123c-3.53885,2.04179 -7.97652,1.22702 -11.33864,3.65154c0,0 -4.16025,2.7735 -6.93375,-1.38675c-2.7735,-4.16025 1.38675,-6.93375 1.38675,-6.93375c2.16964,-1.38512 4.59916,-2.41099 7.09005,-3.06013c1.74186,-0.45394 3.74941,-0.22076 5.26799,-1.18723c1.4967,-0.95254 2.59706,-2.427 4.01167,-3.49767c4.70659,-3.56226 8.59409,-5.26568 13.98199,-8.25807c2.81904,-1.56566 5.34837,-3.67949 8.31372,-4.94635c0.40485,-0.17296 7.16273,-1.90594 7.73097,-1.96975c1.13055,-0.12695 2.30013,0.33895 3.4116,0.09629c0.95457,-0.2084 1.65916,-1.05881 2.57359,-1.40296c2.58357,-0.97232 4.01627,-0.81912 6.5155,-1.64782c2.47706,-0.82135 4.64307,-2.47248 7.15651,-3.17466c1.85922,-0.51941 3.81924,-0.56515 5.72886,-0.84772c1.57266,-0.64697 9.76425,-4.01687 9.76455,-4.01693c2.23081,-0.45829 4.5617,0.10492 6.83176,-0.07778c1.33823,-0.1077 2.6143,-0.6491 3.94945,-0.78989c0.83068,-0.0876 1.70648,0.35944 2.50348,0.10942c3.84039,-1.20471 7.54934,-3.50443 11.45088,-4.628c3.42867,-0.98739 7.14989,-0.29497 10.66602,-0.90122c0.93574,-0.16134 1.60232,-1.05169 2.49571,-1.37341c2.08844,-0.75206 4.21893,-1.43209 6.40253,-1.83088c4.4263,-0.80837 8.99417,-0.69288 13.40626,-1.57555c9.18441,-1.83739 17.64078,-2.46292 27.02752,-2.46292c11.23223,0 22.46445,0 33.69668,0c6.22117,0 13.2027,0.855 19.40488,0.03746c10.3983,-1.37065 21.89667,-1.49293 32.51718,-0.81769c4.80169,0.30529 9.06963,1.80147 13.72835,2.39747c2.15218,0.27533 4.37714,-0.37586 6.50911,0.0271c2.37721,0.44931 4.67959,1.58141 7.09798,1.51522c19.20175,0 39.12571,-1.42814 58.15462,0.81422c5.34294,0.62961 10.15746,3.03094 15.43331,4.01013c7.38547,1.37073 14.48464,2.31238 21.99972,2.34922c4.82178,1.60726 10.38312,2.59613 15.48957,3.11933c1.52761,0.15652 3.1063,-0.22286 4.60552,0.10942c1.30779,0.28986 2.36297,1.2922 3.63348,1.71666c2.4367,0.81407 5.13584,0.75275 7.50909,1.73657c0.79931,0.33135 1.30185,1.23566 2.13141,1.48164c1.78497,0.52928 3.74505,0.25796 5.52923,0.78989c0.80075,0.23874 1.21786,1.28616 2.03408,1.46503c1.23336,0.27029 2.5256,-0.30379 3.7831,-0.19021c2.88812,0.26087 5.53287,1.75492 8.35174,2.43555c2.66899,0.64444 5.59975,-0.68777 8.2367,0.07728c2.23113,0.64732 3.99333,2.39527 6.11006,3.35257c4.77718,2.16049 10.74209,2.84719 15.84703,3.96954c0.63506,0.47124 1.13137,1.25064 1.90517,1.41372c1.33536,0.28142 2.74623,-0.38042 4.09133,-0.14998c1.95282,0.33456 3.79056,1.15901 5.65821,1.82029c2.4571,0.86998 5.01307,1.47252 7.41198,2.49202c0.81368,0.3458 1.34735,1.22161 2.18559,1.5027c2.60764,0.87443 5.54005,0.60902 8.08297,1.65685c1.59085,0.65553 3.03794,1.72534 4.71914,2.09153l1.15699,-0.14929c0,0 5,0 5,5z" fill="#131171" stroke-width="0.5"/><path d="M441.43977,72.53657c0,-0.69036 0.55964,-1.25 1.25,-1.25c0.69036,0 1.25,0.55964 1.25,1.25c0,0.69036 -0.55964,1.25 -1.25,1.25c-0.69036,0 -1.25,-0.55964 -1.25,-1.25z" fill="#f8f8f8" stroke-width="0.5"/><path d="" fill="#e6978f" stroke-width="0"/><path d="" fill="#a66d67" stroke-width="0"/><path d="" fill="#080832" stroke-width="0"/><path d="" fill="#080832" stroke-width="0"/></g></g></svg>