<svg version="1.1" xmlns="http://www.w3.org/2000/svg" xmlns:xlink="http://www.w3.org/1999/xlink" width="312.97796" height="59.20412" viewBox="0,0,312.97796,59.20412"><g transform="translate(128.14236,-8.14319)"><g data-paper-data="{&quot;isPaintingLayer&quot;:true}" fill-rule="nonzero" stroke="none" stroke-linecap="butt" stroke-linejoin="miter" stroke-miterlimit="10" stroke-dasharray="" stroke-dashoffset="0" style="mix-blend-mode: normal"><g fill="#fbfbfb"><path d="M-128.14236,67.34731v-16.37412h188.07804v16.37412z" stroke-width="NaN"/><path d="M53.92791,59.13571c0,-4.51707 3.09453,-8.17888 6.91182,-8.17888c3.8173,0 6.91183,3.66181 6.91183,8.17888c0,4.51707 -3.09454,8.17888 -6.91183,8.17888c-3.8173,0 -6.91182,-3.66181 -6.91182,-8.17888z" stroke-width="0"/></g><g fill="#f6f6f6"><path d="M-123.05137,67.13388v-8.80263h181.23274v8.80263z" stroke-width="NaN"/><path d="M52.39226,62.71938c0,-2.42835 2.9819,-4.39691 6.66027,-4.39691c3.67837,0 6.66026,1.96856 6.66026,4.39692c0,2.42835 -2.98189,4.39691 -6.66026,4.39691c-3.67837,0 -6.66027,-1.96856 -6.66027,-4.39691z" stroke-width="0"/></g><g fill="#fbfbfb"><path d="M-11.05832,46.68166v-38.5h188.07804v38.5z" stroke-width="NaN"/><path d="M171.01195,27.37396c0,-10.62086 3.09453,-19.23077 6.91182,-19.23077c3.8173,0 6.91183,8.60991 6.91183,19.23077c0,10.62086 -3.09454,19.23077 -6.91183,19.23077c-3.8173,0 -6.91182,-8.60991 -6.91182,-19.23077z" stroke-width="0"/></g><g fill="#f6f6f6"><path d="M-5.96733,46.17983v-20.69737h181.23274v20.69737z" stroke-width="NaN"/><path d="M169.4763,35.80013c0,-5.70971 2.9819,-10.33834 6.66027,-10.33834c3.67837,0 6.66026,4.62863 6.66026,10.33835c0,5.70971 -2.98189,10.33834 -6.66026,10.33834c-3.67837,0 -6.66027,-4.62863 -6.66027,-10.33834z" stroke-width="0"/></g><text transform="translate(1.7189,62.65336) scale(0.25104,0.25104)" font-size="40" xml:space="preserve" fill="#494949" fill-rule="nonzero" stroke="none" stroke-width="1" stroke-linecap="butt" stroke-linejoin="miter" stroke-miterlimit="10" stroke-dasharray="" stroke-dashoffset="0" font-family="Pixel" font-weight="normal" text-anchor="start" style="mix-blend-mode: normal"><tspan x="0" dy="0">Herói</tspan></text></g></g></svg>