<svg version="1.1" xmlns="http://www.w3.org/2000/svg" xmlns:xlink="http://www.w3.org/1999/xlink" width="632.52935" height="493.95826" viewBox="0,0,632.52935,493.95826"><g transform="translate(71.86813,68.78255)"><g data-paper-data="{&quot;isPaintingLayer&quot;:true}" fill-rule="nonzero" stroke-width="0.5" stroke-linecap="butt" stroke-linejoin="miter" stroke-miterlimit="10" stroke-dasharray="" stroke-dashoffset="0" style="mix-blend-mode: normal"><path d="M-21.95988,11.18003c0,-8.75886 4.50434,-16.46568 11.32297,-20.93041l1.27384,-1.43027l2.69535,-0.68453c2.25476,-0.95098 4.67818,-1.58071 7.21292,-1.83185l1.09738,-0.2787l1.01161,0.15868c0.12841,-0.00194 0.25706,-0.00292 0.38594,-0.00292c4.19893,0 8.15609,1.03517 11.63018,2.86424l0.47662,0.23831l7.11738,1.18623h0.7756l1.12392,-0.08224l0.68517,-0.27407l3.77194,-1.08806l0.8216,-0.05963l0.78498,-0.24977l3.20521,-0.32052l1.06603,-0.42641l3.77194,-1.08806l0.8216,-0.05963l0.78498,-0.24977l3.90625,-0.39062h108.29164l1.93443,0.19344l0.2446,-0.01545l0.86118,0.12603l0.86604,0.0866l0.23355,0.07431l1.92359,0.2815l3.03762,0.75941l4.46982,0.63855h340.25333l3.1873,0.31873l1.75376,-0.02402l4.54332,1.87078l3.01563,0.95952l0.62454,0.53937l2.31627,0.95376l1.62568,2.45066l4.02726,3.47809l1.18258,4.37555l1.44075,2.17188l0.23252,4.01921l1.0504,3.88648l-0.68001,2.51603l0.14224,2.45867l2.29153,7.20197l0.39063,3.90625v11.79414l-0.20521,2.05208l-0.13494,2.05789l-0.73204,4.39226v33.31335l-0.19344,1.93443l0.01545,0.2446l-0.12603,0.86118l-0.0866,0.86604l-0.07431,0.23355l-0.2815,1.92359l-1.39795,5.59181v165.25689l-0.15468,1.54681l-0.03837,1.55405l-0.87914,7.03313v57.41425l-0.24512,2.45122l-0.24036,2.45169l-1.65891,8.29453v7.17426l-0.27265,2.72649l0.00828,0.27827l-0.08093,0.44825l-0.04532,0.45324l-0.08441,0.26529l-0.48687,2.69649l-1.18249,4.13871v10.43715l-0.12456,1.24556l0.45501,2.2483l-2.49559,5.98941l-0.95987,3.01673l-0.57406,0.6647l-0.3378,0.81072l-2.26898,2.20766l-4.24103,4.91067l-0.69993,0.18917l-1.4365,1.75572l-0.28605,0.28605l-0.59201,0.8123l-0.54383,0.32354l-6.08346,6.08346l-3.03835,2.48592l-0.07738,0.04002l-0.06244,0.06075l-1.49406,0.94362l-2.6549,2.17219l-0.39315,0.20336l-1.74617,1.50805l-3.0386,0.96683l-2.83227,1.46497l-0.51086,0.03738l-0.60903,0.19378l-0.46958,0.24947l-3.26101,0.93754l-3.23337,1.0288l-0.5291,0.05291l-1.64371,0.47257l-1.36976,-0.17122l-0.36368,0.03637h-33.37697l-1.30303,0.32576l-1.92359,0.2815l-0.23355,0.07431l-0.86604,0.0866l-0.86118,0.12603l-0.2446,-0.01545l-1.93443,0.19344h-324.87491l-3.90625,-0.39062l-0.78498,-0.24977l-0.8216,-0.05963l-3.77194,-1.08806l-0.89077,-0.35631h-70.23905l-3.90625,-0.39062l-0.08302,-0.02641l-0.08711,-0.00119l-3.82932,-0.86469l-0.1875,-0.0625l-1.17403,-0.1174l-1.77027,-0.56327l-1.83527,-0.28789l-3.66855,-1.39754l-0.32571,-0.16285l-0.48405,-0.03542l-0.89279,-0.46179l-0.38378,-0.12793l-3.58227,-1.60584l-1.08755,-0.79262l-2.89361,-1.10233l-0.36183,-0.18092l-0.95783,-0.30476l-0.47891,-0.41361l-0.90108,-0.45054l-1.53106,-0.51035l-0.12562,-0.05631l-1.23591,-0.12359l-0.4218,-0.13421l-2.30108,-0.16837l-2.83227,-1.46497l-3.0386,-0.96683l-1.74617,-1.50805l-0.39315,-0.20336l-1.25018,-1.02288l-0.70801,-0.19135l-1.21306,-1.4046l-1.87858,-1.87858l-1.4046,-1.21306l-0.19135,-0.70801l-1.02288,-1.25018l-0.20336,-0.39315l-1.50805,-1.74617l-0.96683,-3.0386l-1.46497,-2.83227l-0.16837,-2.30108l-0.13421,-0.4218l-0.39063,-3.90625v-2.84467l-0.13544,-1.85096l0.13544,-0.23576v-20.47018l-1.65891,-8.29453l-0.24036,-2.45169l-0.24512,-2.45122v-41.27626l-0.65396,-2.89612l-0.00119,-0.08711l-0.02641,-0.08302l-0.39063,-3.90625v-12.53523l-0.58671,-2.93356l-0.24036,-2.45169l-0.24512,-2.45122v-64.46519l-0.15576,-0.61332l0.15576,-0.993v-0.40454l0.39063,-3.90625l0.56327,-1.77027l0.28789,-1.83527l0.90261,-2.36935v-6.63135l-0.13544,-0.23576l0.13544,-1.85096v-2.84467l0.39063,-3.90625l0.13421,-0.4218l0.16837,-2.30108l1.45118,-2.80562v-5.57597l0.39063,-3.90625l0.02641,-0.08302l0.00119,-0.08711l0.86469,-3.82932l0.86147,-2.58441v-18.45914l0.39063,-3.90625l0.02641,-0.08302l0.00119,-0.08711l0.86469,-3.82932l0.86147,-2.58441v-0.23184l0.08886,-0.88855l-0.02532,-0.89262l1.00866,-14.12127v-50.57361l0.24512,-2.45122l0.24036,-2.45169l0.58671,-2.93356v-1.81329l0.39063,-3.90625l0.02641,-0.08302l0.00119,-0.08711l0.86469,-3.82932l0.76858,-2.30573l0.83933,-3.35732l1.32637,-3.69488l0.18621,-0.30166l0.09795,-0.3407l0.21561,-0.40585c-1.59411,-1.32836 -3.02034,-2.85136 -4.24219,-4.5325l-0.72668,-0.70704l-0.43075,-1.0338c-1.2782,-2.10847 -2.25349,-4.421 -2.86551,-6.87723l-1.07106,-2.57054l0.38142,-1.88464c-0.0338,-0.53205 -0.05096,-1.06863 -0.05096,-1.60921z" fill="#fae880" stroke="none"/><path d="M-15.58571,69.22629c-0.02526,-0.18318 -0.02527,-0.30003 -0.02527,-0.30003l0.26393,-0.38347c-3.26043,-6.80792 -0.82024,-12.64674 -0.25629,-19.84191c0.25538,-3.25822 -0.06709,-6.53697 -0.00765,-9.80465c0.03313,-1.82121 -0.46343,-3.76106 0.1903,-5.46122c0.56263,-1.46323 2.31932,-2.14337 3.2256,-3.42252c1.44623,-2.04125 1.88365,-4.63636 2.74095,-6.98654c3.36932,-9.23652 4.80884,-18.81982 6.96959,-28.37539c1.1164,-4.93614 2.18722,-9.83831 3.61417,-14.69659c0.52865,-1.79986 0.71459,-3.74722 1.62274,-5.38864c0.63239,-1.143 2.26371,-1.52356 2.84798,-2.69189c0.44773,-0.89529 -0.47842,-2.12374 0,-3.00301c1.40764,-2.58702 4.48089,-3.83154 6.85393,-5.5759c1.29072,-0.94877 2.01434,-2.70589 3.50807,-3.2846c1.69849,-0.65803 3.63973,-0.18176 5.46122,-0.1903c0.71429,-0.00335 1.49945,0.47619 2.13729,0.15467c1.37577,-0.69347 2.05338,-2.51142 3.51351,-3.003c1.37233,-0.46202 8.77165,0.05147 10.57203,-0.13737c4.48564,-0.47048 9.03965,-2.34792 13.46088,-3.2461c6.49366,-1.3192 13.11729,-2.19249 19.65485,-3.2762c12.87353,-3.92344 25.5469,-8.1287 38.92506,-9.99031c20.03645,-2.78813 40.75479,-1.52271 60.92557,-1.52271c34.2632,0 68.5264,0.00005 102.7896,-0.00001c34.99997,-0.00006 69.99993,-0.00077 104.99989,-0.00236c16.51529,-0.00075 33.36462,0.83325 49.84633,-0.17966c18.13808,-1.11472 36.54858,-4.19615 54.42852,-7.31596c0.25708,-0.00047 9.88651,-0.02129 10.25386,-0.00926c1.35454,0.04438 2.85779,-0.33779 4.0549,0.29757c1.76493,0.93673 2.93408,2.71596 4.32528,4.15019c3.64099,3.7536 6.25389,8.04252 9.13804,12.36875c0.20285,0.30427 5.59125,8.37843 5.68554,8.55506c4.52912,8.48533 5.9332,18.38694 7.73658,27.67071c1.74596,8.98817 4.30027,17.90292 6.2713,26.85642c1.94172,9.73819 4.87917,19.8439 5.77769,29.73347c0.76784,8.45124 -0.31076,17.15138 -1.53142,25.48747c-0.47439,3.23969 -1.18318,6.45087 -1.46322,9.71311c-0.45218,5.26747 1.39472,7.13687 -4.53937,10.12686c-3.39447,1.71036 -5.0303,-0.451 -7.77406,-1.44652c-2.39501,-0.86898 -5.05996,-0.74867 -7.49527,-1.49734c-2.67845,-0.82342 -5.04711,-2.43626 -7.56609,-3.66381c-5.54819,-2.37682 -11.08833,-4.76849 -16.61757,-7.189c-2.97875,-1.304 -5.75048,-3.09916 -8.82613,-4.1545c-2.90144,-0.99556 -6.15771,-0.5819 -9.07374,-1.53387c-3.13641,-1.02392 -5.68939,-3.47958 -8.8452,-4.44205c-2.89306,-0.88234 -6.12761,0.04439 -9.04138,-0.76694c-1.69995,-0.47334 -3.12349,-1.65357 -4.75206,-2.33302c-2.88946,-1.20549 -5.96508,-1.90846 -8.91219,-2.96523c-2.41184,-0.86483 -4.60715,-2.39702 -7.12038,-2.89558c-1.45616,-0.28887 -2.98908,0.25223 -4.45359,0.00925c-2.96863,-0.49252 -5.54555,-2.50649 -8.51351,-3.003c-1.63679,-0.27382 -3.31906,0.00238 -4.97859,0.00357c-4.99223,-1.65613 -8.11335,-1.09646 -13.25235,-1.81381c-4.87785,-0.6809 -9.61384,-2.29559 -14.58082,-2.66531c-7.6827,-0.57186 -15.63474,0.0069 -23.34296,0.0069c-15.35035,0 -30.7007,0 -46.05105,0c-30.69069,0 -61.38138,0 -92.07207,0c-29.35936,0 -58.71872,0 -88.07808,0c-13.51351,0 -27.02703,0 -40.54054,0c-4.93636,0 -9.87183,-0.01423 -14.80785,0.04821c-1.42948,0.01808 -2.93296,-0.39404 -4.28836,0.06054c-1.5885,0.53276 -2.5896,2.27454 -4.18642,2.78178c-1.54089,0.48948 -8.03107,-0.07534 -9.7425,0.21143c-4.61734,0.77368 -9.50664,3.14353 -14.03299,4.43724c-5.24029,1.47164 -8.9358,1.10431 -14.25709,1.45763c-5.01948,0.33328 -10.01458,2.38309 -15.01501,3.00301c-0.9108,0.11292 -1.85806,-0.24074 -2.75308,-0.03758c-6.04202,1.3714 -10.56613,5.93023 -15.83285,8.7628c-5.38801,2.8978 -14.66393,3.87146 -17.203,10.47883c-0.54611,1.42114 -0.71406,2.95999 -1.07109,4.43999c0,0 -0.60634,2.42536 -3.0317,1.81902c-2.42535,-0.60634 -1.81901,-3.03169 -1.81901,-3.03169c0.45143,-1.75381 0.66428,-3.58705 1.35426,-5.26144c1.04729,-2.54147 2.66512,-4.39111 4.60236,-5.84421z" fill="#faeda4" stroke="none"/><path d="M-58.35462,236.1023c-2.09776,-0.11227 -4.16188,-0.2654 -6.01351,-0.2654c0,0 -7.5,0 -7.5,-7.5c0,-7.5 7.5,-7.5 7.5,-7.5c0.94732,0 4.28539,0 6.62038,0c0.79621,-2.08928 2.63706,-4.5045 6.89314,-4.5045c2.21505,0 3.7759,0.65419 4.87578,1.57616c1.59445,-0.24672 3.28182,0.16869 4.8957,-0.03816c2.53136,-0.32443 4.98023,-1.14671 7.50751,-1.5015c0.66863,-0.09387 1.37938,0.3807 2.01889,0.16413c5.35103,-1.81211 9.35221,-6.75869 14.56478,-8.88783c1.06627,-0.43553 9.19443,-4.72489 11.31527,-5.75692c1.24882,-0.60769 8.94032,-4.63247 11.82086,-5.9237c2.17275,-0.97395 9.84483,-5.1566 14.85164,-6.45858c1.08972,-0.28337 5.04735,-2.10399 6.36053,-2.63273c4.26897,-1.71887 12.24742,-2.9335 13.09364,-3.16666c3.0178,-0.8315 8.46317,0.08559 11.55998,-0.37074c4.47534,-0.65947 9.76796,-0.0365 14.25255,-0.0365c4.83495,0 11.9345,-1.22051 16.38364,0.5709c1.31318,0.52874 6.32772,1.37378 7.72182,1.93142c1.31438,0.52575 6.07233,3.63744 7.64771,3.70431c1.001,0.5005 1.91112,1.25594 3.003,1.5015c2.81711,0.63355 5.97599,-0.70821 8.65449,0.37027c1.31318,0.52874 1.88438,2.13543 3.003,3.003c0.15439,0.11974 -0.05935,-0.53591 0.13288,-0.5709c0.98481,-0.17929 2.00351,-0.05498 3.003,0c2.46184,0.13543 5.04343,-0.23193 7.37463,0.5709c1.33848,0.46095 1.88438,2.13543 3.003,3.003c0.15439,0.11974 -0.06251,-0.5709 0.13288,-0.5709c1.96694,0 4.04854,-0.16375 5.87313,0.5709c1.31318,0.52874 1.74933,2.34551 3.003,3.003c0.51105,0.26803 1.06163,-0.50039 1.63438,-0.5709c3.27317,-0.40296 7.24976,-0.07087 10.51051,0c1.57643,0.03426 3.19065,-0.15788 4.72615,0.20063c2.45512,0.57322 4.51386,2.40318 6.98573,2.89921c2.29504,0.46055 5.45502,-0.09684 7.80764,-0.09684c1.78128,0 3.67585,0.97225 5.33413,0.32181c1.67997,-0.65895 2.79253,-2.43234 4.5045,-3.003c1.42445,-0.47482 3.07646,0.4639 4.5045,0c1.34531,-0.43703 2.12154,-1.9217 3.38275,-2.56218c3.19311,-1.62155 7.16934,-1.42482 10.22883,-3.28626c0.55068,-0.33504 0.11238,-1.35084 0.49551,-1.86921c2.49544,-3.37633 7.03214,-7.79611 10.33841,-10.42375c2.54435,-2.0221 5.61409,-3.28331 8.31944,-5.08432c2.16911,-1.44402 3.99715,-3.39649 6.27455,-4.66286c2.41581,-1.34333 5.20991,-1.88252 7.69033,-3.10244c2.03883,-1.00273 3.70212,-2.72788 5.82274,-3.54353c1.95224,-0.75089 10.65564,-4.80135 13.31519,-5.94294c1.14649,-0.49212 8.36512,-0.38488 9.87922,-0.38488c7.00701,0 14.01401,0 21.02102,0c3.19189,0 8.26116,-0.68146 11.18239,0.32181c1.70673,0.58616 12.03075,2.41177 14.56477,2.88182c1.66643,0.30911 3.11203,1.34683 4.63396,2.09266c2.36971,1.16129 4.83653,2.17052 7.03723,3.62689c0.95921,0.63479 4.96011,2.98568 6.26909,3.27154c3.1447,0.68674 4.23448,0.90465 7.1784,2.20622c2.50141,1.10593 4.6607,2.06889 7.25327,2.93992c0.80752,0.2713 4.25302,2.64279 5.05323,2.93494c3.01844,1.10206 4.38964,2.25638 7.27904,3.66239c6.83986,6.66679 15.23963,9.85177 23.40315,14.61251c3.11773,1.81818 5.89779,4.1767 9.00901,6.00601c3.96285,2.33004 8.41377,3.70694 12.61919,5.56374c1.68519,0.74405 3.08539,2.13502 4.85903,2.63273c1.59063,0.44636 3.38601,-0.39694 4.95474,0.12118c1.71354,0.56594 2.82454,2.34406 4.5045,3.003c1.65827,0.65044 3.55285,-0.32181 5.33413,-0.32181c3.5035,0 7.00701,0 10.51051,0c1.92928,0 3.93836,0.76134 5.78436,0.20063c1.41174,-0.4288 3.47269,-2.10606 5.42112,-2.34167c0.00501,-0.05732 0.00774,-0.11301 0.00774,-0.16677c1.81206,-0.54193 3.74449,-0.77995 5.43618,-1.6258c0.44436,-0.22218 0.21853,-1.02591 0.56983,-1.37721c1.68288,-1.68288 3.34949,-3.48427 5.43618,-4.6288c0.87765,-0.48138 2.10479,0.44182 3.003,0c0.87185,-0.42885 0.88898,-1.87455 1.74445,-2.33521c3.23192,-1.74035 6.71366,-3.0134 10.21788,-4.10637c0.5127,-0.15991 1.01421,0.44506 1.55118,0.43558c0.16846,-0.00297 -0.27003,-0.30135 -0.21119,-0.45923c0.39083,-1.04869 0.75155,-2.1723 1.5015,-3.003c1.86109,-2.06148 3.75045,-4.27063 6.21719,-5.54677c1.33361,-0.68993 3.01152,0.1597 4.5045,0c0.16753,-0.01792 -0.27003,-0.30135 -0.21119,-0.45923c0.39083,-1.04869 0.75155,-2.1723 1.5015,-3.003c1.86109,-2.06148 3.68462,-4.40686 6.21719,-5.54677c1.44005,-0.64816 7.72365,-0.5709 10.37763,-0.5709c5.07453,0 11.23718,-0.8194 16.21638,0.09684c2.27681,0.41896 4.39885,1.44486 6.59827,2.16729c1.12758,0.85406 2.06802,2.04032 3.38275,2.56218c1.14885,0.45601 2.59872,-0.31262 3.69975,0.24909c1.90041,0.96954 3.20309,2.82308 4.88779,4.13203c1.73811,1.35044 3.82481,2.27418 5.37217,3.83955c0.95703,0.96816 1.15442,2.48617 1.96323,3.5812c2.01481,2.72778 5.25355,4.52971 6.85079,7.52121c0.58217,1.09036 -0.14173,2.52712 0.24909,3.69975c0.79381,2.38176 3.88478,3.34938 5.08912,5.55221c1.76089,3.22078 3.00526,6.71621 4.10637,10.21788c0.22554,0.71726 -0.47275,1.55267 -0.18648,2.24793c0.472,1.14633 1.70673,1.83133 2.31164,2.91343c1.44856,2.59128 2.92512,5.21531 3.81554,8.04731c0.7506,2.38728 -0.76034,5.12331 0,7.50751c0.68007,2.13249 2.43598,3.84071 3.003,6.00601c1.25018,4.77403 0.20063,11.76913 0.20063,16.73816c-0.04511,2.47477 0.37378,5.00205 -0.13533,7.42431c-0.55437,2.63765 -2.26738,4.91456 -3.003,7.50751c-0.30099,1.06096 0.20043,2.23751 -0.06531,3.30784c-0.26967,1.08618 -1.26492,1.90914 -1.5015,3.003c-0.39908,1.8452 0.44665,3.94952 -0.37027,5.65148c-0.91886,1.91434 -3.62374,2.57234 -4.5045,4.5045c-0.60324,1.32335 0.67974,2.8975 0.47406,4.33725c-0.56361,3.9453 -3.34801,7.25145 -4.60829,11.03229c-0.43918,1.31755 0.22212,2.89383 -0.37027,4.14998c-0.60382,1.28039 -2.13543,1.88438 -3.003,3.003c-0.11974,0.15439 0.53591,-0.05935 0.5709,0.13288c0.17929,0.98481 0.11199,2.00829 0,3.003c-0.26238,2.33052 -0.0487,4.85979 -1.12012,6.94599c-0.67982,1.32371 -2.82847,1.27883 -3.71698,2.47253c-0.85885,1.15386 -0.30412,3.02329 -1.20711,4.14294c-1.33551,1.65597 -3.6656,2.2412 -5.1615,3.75385c-1.22098,1.23465 -1.62832,3.12923 -2.8579,4.35532c-1.94555,1.94003 -4.43696,3.24868 -6.5404,5.01629c-2.69528,2.26497 -5.34359,4.61026 -8.26127,6.58048c-1.93154,1.23057 -3.65872,2.86525 -5.79463,3.69172c-5.08036,1.96581 -11.60746,2.71969 -16.96877,3.51771c-2.86381,0.42627 -5.33892,2.42896 -8.20224,2.85856c-8.08533,1.21309 -17.52437,0.20063 -25.74717,0.20063c-26.52653,0 -53.05305,0 -79.57958,0c-82.08208,0 -164.16416,0 -246.24625,0c-33.53353,0 -67.06707,0 -100.6006,0c-8.00801,0 -16.01602,0 -24.02402,0c-2.13292,0 -8.69342,0.14527 -10.37763,-0.5709c-1.82045,-0.77411 -2.90614,-2.70124 -4.5182,-3.84778c-0.91201,-0.64865 -2.12318,-0.80982 -3.003,-1.5015c-1.62145,-1.27472 -2.94516,-2.88827 -4.41774,-4.3324c-5.25446,-7.8252 -9.07507,-16.62955 -15.01502,-24.02402c-2.96187,-3.68715 -6.205,-7.49358 -7.50531,-12.04078c-0.57839,-2.02266 0.36558,-4.25172 -0.06531,-6.31085c-0.43402,-2.07412 -1.59583,-3.92768 -2.48013,-5.85339c-3.04646,-6.63414 -6.89865,-11.70863 -9.30341,-18.78292c-0.98216,-2.8893 -0.62275,-6.29135 -2.24668,-8.87505c-0.95903,-1.52583 -2.95282,-2.37627 -3.55222,-4.07586c-0.74361,-2.10851 0.37398,-4.55553 -0.24909,-6.70275c-0.5029,-1.73309 -2.41684,-2.79778 -3.003,-4.5045c-0.56154,-1.63505 -0.27208,-3.44831 -0.32181,-5.17638c-0.17254,-5.99542 0,-12.0184 0,-18.01802c0,-2.41654 0,-4.83308 0,-7.24961zM445.57487,224.01431c-0.03479,-0.3202 -0.05886,-0.66687 -0.13517,-0.88461c0,0.26992 0.06169,0.574 0.13517,0.88461z" fill="#e9d877" stroke="none"/><path d="M-24.40445,266.2495c1.5069,-4.87208 7.13243,-4.87208 7.13243,-4.87208c3.31159,0 7.59094,0.74295 10.81065,0.09684c3.40727,-0.68375 3.21016,-1.91313 6.98573,-2.89921c0.82423,-0.21527 7.36233,-3.62863 9.97071,-5.19346c4.14885,-2.489 6.16109,-4.5206 10.11625,-7.30714c1.79201,-1.26253 5.56215,-2.94177 7.28089,-4.30236c1.01558,-0.80396 2.3654,-1.08189 3.44535,-1.79707c2.23324,-1.47892 4.13537,-3.45173 6.46819,-4.76797c1.02453,-0.57807 4.84569,-3.85153 6.02479,-4.98525c2.34575,-2.25547 5.60844,-3.30928 8.31078,-5.1223c6.35404,-4.16474 11.51544,-9.84838 17.42335,-14.5747c3.92131,-3.13705 8.08784,-5.87536 12.01201,-9.00901c1.22673,-0.9796 2.06798,-2.41406 3.37259,-3.28725c4.04949,-2.71037 6.43273,-4.39991 10.25193,-7.50751c1.64708,-1.3402 5.99561,-3.33215 7.76608,-4.5045c2.6792,-1.77409 5.60953,-3.23311 8.66819,-4.21805c1.28695,-0.41442 6.85205,-2.29566 8.55877,-2.88182c1.20186,-0.41277 7.8331,-1.82374 8.09812,-1.95695c1.61235,-0.81045 6.68865,-0.53177 8.41839,-1.04605c1.32543,-0.39408 9.06608,-0.32181 11.18239,-0.32181c7.50751,0 15.01502,0 22.52252,0c6.56238,0 10.98797,-0.56782 16.86762,2.2933c1.36673,0.66507 2.83326,1.19376 4.03423,2.12539c0.69041,0.53557 2.73407,1.62612 3.34382,1.78795c0.91155,0.24192 7.71504,3.52345 8.66819,4.21805c3.13192,2.28239 5.82141,5.31211 9.00901,7.50751c2.99573,2.06326 6.94903,2.33746 10.06817,4.20894c0.89235,0.53541 3.93215,2.45379 4.93315,2.45379c1.27604,1.1352 6.95587,3.81106 8.4464,4.2974c2.27412,0.74201 4.29722,2.19591 6.61829,2.77453c1.7022,0.42434 2.75851,1.0309 4.42609,1.57562c1.71538,0.56034 3.59691,1.13939 5.33799,1.61386c1.7186,0.46835 3.5538,-0.26358 5.33413,-0.32181c3.50163,-0.11453 7.00701,0 10.51051,0c6.00601,0 12.01201,0 18.01802,0c2.94711,0 6.40643,0.4722 9.30914,0.09684c3.02079,-0.39062 5.17875,-1.91946 8.00971,-3.12672c2.13518,-0.91054 3.69683,-1.87893 5.89915,-2.61233c6.55677,-2.1835 7.95894,-3.04916 12.95091,-7.3004c1.001,0 3.54275,-1.43294 4.12121,-1.87397c2.20837,-1.68371 4.49318,-3.3867 7.08604,-4.38113c1.00103,-0.38392 6.44367,-0.32181 8.17939,-0.32181c5.50551,0 11.01101,0 16.51652,0c15.69282,0 31.55584,-0.65192 47.21843,0.32181c1.73375,1.08403 3.28599,2.536 5.20125,3.2521c2.24695,0.84012 4.79564,0.57796 7.0714,1.33655c0.67759,0.22586 6.99321,3.77528 9.27785,4.1954c1.30524,0.24002 2.74197,-0.26581 3.97502,0.22497c2.35187,0.93608 4.38519,2.5367 6.49137,3.94082c0.90314,0.60209 1.47793,1.75346 2.51763,2.06519c1.66262,0.49849 3.58766,-0.39052 5.20125,0.24909c1.31601,0.52166 4.26747,2.41352 4.85902,2.63273c2.33003,0.86344 4.64665,1.94049 6.58316,3.49757c0.87218,0.70129 3.70606,1.91062 4.6651,2.21233c2.35576,0.74111 5.34106,2.35305 7.34691,3.79368c0.39326,0.28245 6.98698,3.79804 8.07734,4.3802c2.07576,1.1083 7.6031,5.58585 9.64905,7.6318c3.27357,3.4886 8.39333,4.16656 11.16474,7.8968c1.75581,2.36327 2.52434,5.36101 3.23875,8.21715c0.23255,0.92972 -0.8417,1.9507 -0.47406,2.83575c0.39921,0.96103 1.92282,1.03514 2.45379,1.93015c0.6157,1.03783 0.06349,2.5681 0.78753,3.53347c0.89285,1.19046 3.03716,1.14882 3.71698,2.47253c1.73139,3.37126 1.12012,9.09915 1.12012,12.95199c0,10.51051 0,21.02102 0,31.53153c0,4.50007 0.09778,9.01504 0,13.51351c-0.03426,1.57643 0.28945,3.22744 -0.20063,4.72615c-0.77232,2.36179 -1.90293,4.67746 -3.49757,6.58316c-0.97051,1.15983 -2.55381,1.63601 -3.92098,2.28252c-0.15232,0.07203 -0.42811,-0.37678 -0.45923,-0.21119c-0.34503,1.83597 0.41379,3.97659 -0.54922,5.57736c-1.06267,1.76643 -3.40981,2.32808 -4.99756,3.64283c-1.68257,1.39327 -3.23024,2.96784 -4.59127,4.67661c-1.23388,1.54912 -1.93923,3.5185 -3.35467,4.9037c-4.64019,4.54107 -8.55864,5.89882 -13.69596,8.84022c-2.06186,1.18053 -3.80846,3.0509 -6.09557,3.69437c-2.6266,0.73898 -5.45139,0.26585 -8.17939,0.32181c-6.4978,0.1333 -13.01966,0 -19.51952,0c-82.58258,0 -165.16517,0 -247.74775,0c-13.01301,0 -26.02603,0 -39.03904,0h-18.01802c-2.4751,-0.02038 -5.00205,0.37378 -7.42431,-0.13533c-2.63765,-0.55437 -4.87641,-2.41832 -7.50751,-3.003c-1.95433,-0.4343 -4.05168,0.4343 -6.00601,0c-2.6311,-0.58469 -4.86471,-2.4737 -7.50751,-3.003c-2.5535,-0.51142 -5.27006,0.4992 -7.81235,-0.06531c-2.18509,-0.48519 -3.81585,-2.54124 -6.00601,-3.003c-2.37728,-0.50121 -4.8565,0.17072 -7.28586,0.20063c0,0 -13.34668,0 -15.01502,0c-14.01401,0 -28.02803,0 -42.04204,0c-3.74985,-0.01217 -7.51222,0.26995 -11.24954,-0.0365c-2.54353,-0.20856 -4.97673,-1.17261 -7.50751,-1.5015c-3.72803,-0.48448 -7.79424,0.74249 -11.49463,-0.16413c-0.77241,-0.18925 -7.83982,-3.57068 -8.66819,-4.21805c-4.92346,-3.8477 -6.70504,-7.24135 -8.92005,-13.37018c-0.34023,-0.94141 0.31567,-2.05308 0,-3.003c-1.58659,-4.77438 -4.88465,-8.9292 -6.07131,-13.81835c-1.05597,-4.35068 -0.41437,-8.96202 -0.13533,-13.43032c0.03597,-0.57595 0.83893,-1.12332 0.5709,-1.63438c-0.6575,-1.25368 -2.54205,-1.66452 -3.003,-3.003c-1.70914,-4.96288 -0.5709,-14.10412 -0.5709,-19.38664v-4.5045c0,0 0,-5.62553 4.87208,-7.13243z" fill="#e5d15c" stroke="none"/><path d="M313.40284,254.53033c-2.7229,0.00476 -6.10993,0.60206 -8.36395,-1.31653c-1.59554,-1.3581 -2.46314,-4.04933 -0.64064,-5.74356c0.61646,-0.57307 1.70805,-0.26501 2.42378,-0.70791c0.40056,-2.56925 1.98551,-4.76668 1.98551,-7.41069c0,-0.59459 0.15665,-1.36912 -0.23963,-1.91877c-0.60671,-0.84152 -2.38749,-0.50699 -3.2033,-0.50829c-2.42258,-0.00385 -5.78663,-0.30122 -7.3372,-2.59911c-0.81055,-1.20121 -0.76163,-3.82793 -0.56115,-5.21308c0.10785,-0.74514 0.01453,-1.65912 0.54691,-2.1915c1.46349,-1.46349 4.45451,-0.34044 5.86074,0.33948c1.70167,1.41032 2.03587,1.35017 4.16878,1.02723c0.21664,-0.0328 0.53514,0.17881 0.65732,-0.00308c0.12651,-0.18835 -0.16506,-0.42371 -0.22335,-0.64299c-0.12156,-0.45724 -0.21284,-0.92201 -0.31547,-1.38387c-0.36851,-1.65828 -0.58774,-3.4749 -0.3598,-5.18077c0.31099,-2.32734 0.95002,-5.53421 2.25785,-7.52916c1.46468,-2.23421 5.88916,-3.06423 8.22718,-1.94746c1.06706,0.50969 1.96882,2.12547 2.57349,3.02706c1.44761,2.54256 2.79226,5.34089 1.62404,8.27715c-0.54209,1.36251 -1.11576,1.73985 -2.04902,2.86123c-0.32091,0.38559 -0.90372,0.76223 -0.82627,1.25787c0.05173,0.33105 0.67511,0.09572 1.00461,0.03487c1.12047,-0.20692 1.19358,-0.30953 2.25517,-0.87203c2.06704,-1.09525 5.65271,-2.14997 6.76517,0.93988c0.23719,0.65878 -0.03604,1.40265 -0.12972,2.09653c-0.3509,2.59926 -1.41763,3.72979 -3.50929,5.1561c-1.88833,0.9452 -4.03505,1.90379 -6.06016,2.4982c-0.59055,0.17334 -1.50987,-0.11456 -1.93428,0.58625c-0.37333,0.61646 0.13029,1.43571 0.17333,2.15512c0.12843,2.1469 0.33669,4.22082 0.96405,6.30507c0.66468,2.20821 2.08819,5.31154 0.47149,7.58224c-0.83743,1.17619 -2.37209,1.18934 -3.58621,1.35563c0,0 -0.81307,0.10164 -1.22783,-0.50267z" data-paper-data="{&quot;index&quot;:null}" fill="#e9d877" stroke="none"/><path d="M419.98652,229.57022c-0.41476,0.60431 -1.22783,0.50267 -1.22783,0.50267c-1.21412,-0.16629 -2.74878,-0.17944 -3.58621,-1.35563c-1.6167,-2.2707 -0.19319,-5.37403 0.47149,-7.58224c0.62736,-2.08425 0.83562,-4.15817 0.96405,-6.30507c0.04304,-0.71941 0.54666,-1.53866 0.17333,-2.15512c-0.42441,-0.70081 -1.34373,-0.41291 -1.93428,-0.58625c-2.02511,-0.59441 -4.17183,-1.553 -6.06016,-2.4982c-2.09166,-1.42631 -3.15839,-2.55684 -3.50929,-5.1561c-0.09368,-0.69388 -0.36691,-1.43775 -0.12972,-2.09653c1.11246,-3.08985 4.69813,-2.03513 6.76517,-0.93988c1.06159,0.5625 1.1347,0.66511 2.25517,0.87203c0.3295,0.06085 0.95288,0.29618 1.00461,-0.03487c0.07745,-0.49564 -0.50536,-0.87228 -0.82627,-1.25787c-0.93326,-1.12138 -1.50693,-1.49872 -2.04902,-2.86123c-1.16822,-2.93626 0.17643,-5.73459 1.62404,-8.27715c0.60467,-0.90159 1.50643,-2.51737 2.57349,-3.02706c2.33802,-1.11677 6.7625,-0.28675 8.22718,1.94746c1.30783,1.99495 1.94686,5.20182 2.25785,7.52916c0.22794,1.70587 0.00871,3.52249 -0.3598,5.18077c-0.10263,0.46186 -0.19391,0.92663 -0.31547,1.38387c-0.05829,0.21928 -0.34986,0.45464 -0.22335,0.64299c0.12218,0.18189 0.44068,-0.02972 0.65732,0.00308c2.13291,0.32294 2.46711,0.38309 4.16878,-1.02723c1.40623,-0.67992 4.39725,-1.80297 5.86074,-0.33948c0.53238,0.53238 0.43906,1.44636 0.54691,2.1915c0.20048,1.38515 0.2494,4.01187 -0.56115,5.21308c-1.55057,2.29789 -4.91462,2.59526 -7.3372,2.59911c-0.81581,0.0013 -2.59659,-0.33323 -3.2033,0.50829c-0.39628,0.54965 -0.23963,1.32418 -0.23963,1.91877c0,2.64401 1.58495,4.84144 1.98551,7.41069c0.71573,0.4429 1.80732,0.13484 2.42378,0.70791c1.8225,1.69423 0.9549,4.38546 -0.64064,5.74356c-2.25402,1.91859 -5.64105,1.32129 -8.36395,1.31653z" data-paper-data="{&quot;index&quot;:null}" fill="#e9d877" stroke="none"/><path d="M90.45747,255.917c-0.56327,0.82069 -1.66746,0.68266 -1.66746,0.68266c-1.64885,-0.22583 -3.733,-0.24369 -4.87028,-1.84102c-2.19557,-3.08374 -0.26236,-7.29824 0.64031,-10.29712c0.85199,-2.83053 1.13482,-5.64704 1.30924,-8.56265c0.05845,-0.977 0.7424,-2.08959 0.23539,-2.92678c-0.57637,-0.95174 -1.82486,-0.56076 -2.62686,-0.79616c-2.75022,-0.80724 -5.66559,-2.10906 -8.23005,-3.3927c-2.8406,-1.93701 -4.28928,-3.47234 -4.76582,-7.00228c-0.12722,-0.94233 -0.49829,-1.95255 -0.17617,-2.84721c1.51079,-4.1962 6.38033,-2.76382 9.18749,-1.27641c1.4417,0.76391 1.54099,0.90326 3.06265,1.18427c0.44748,0.08264 1.29407,0.40223 1.36432,-0.04736c0.10518,-0.67311 -0.68631,-1.18461 -1.12212,-1.70826c-1.26742,-1.5229 -2.0465,-2.03535 -2.78269,-3.88572c-1.58651,-3.98761 0.2396,-7.78791 2.20554,-11.24085c0.82118,-1.22441 2.04582,-3.41873 3.49495,-4.11092c3.17517,-1.51664 9.18387,-0.38942 11.17299,2.64476c1.77611,2.70926 2.64395,7.06437 3.06629,10.22504c0.30956,2.31667 0.01183,4.78375 -0.48863,7.03579c-0.13938,0.62723 -0.26334,1.25842 -0.42843,1.87938c-0.07916,0.29779 -0.47513,0.61743 -0.30332,0.87322c0.16593,0.24702 0.59847,-0.04036 0.89268,0.00418c2.89662,0.43857 3.35048,0.52026 5.66144,-1.39504c1.90974,-0.92337 5.97172,-2.44854 7.95922,-0.46103c0.723,0.723 0.59627,1.96424 0.74274,2.97618c0.27226,1.88111 0.3387,5.44835 -0.76207,7.07966c-2.10576,3.12067 -6.67434,3.52451 -9.96434,3.52974c-1.10792,0.00177 -3.52632,-0.45255 -4.35027,0.69029c-0.53817,0.74646 -0.32543,1.79831 -0.32543,2.6058c0,3.59072 2.15245,6.57496 2.69644,10.06415c0.972,0.60148 2.45445,0.18312 3.29163,0.96138c2.47506,2.30086 1.29681,5.95571 -0.87003,7.80009c-3.06109,2.60556 -7.66087,1.79439 -11.35873,1.78792z" fill="#e9d877" stroke="none"/><path d="M127.17744,195.16477c-0.41476,0.60431 -1.22783,0.50267 -1.22783,0.50267c-1.21412,-0.16629 -2.74878,-0.17944 -3.58621,-1.35563c-1.6167,-2.2707 -0.19319,-5.37403 0.47149,-7.58224c0.62736,-2.08425 0.83562,-4.15817 0.96405,-6.30507c0.04304,-0.71941 0.54666,-1.53866 0.17333,-2.15512c-0.42441,-0.70081 -1.34373,-0.41291 -1.93428,-0.58625c-2.02511,-0.59441 -4.17183,-1.553 -6.06016,-2.4982c-2.09166,-1.42631 -3.15839,-2.55684 -3.50929,-5.1561c-0.09368,-0.69388 -0.36691,-1.43775 -0.12972,-2.09653c1.11246,-3.08985 4.69813,-2.03513 6.76517,-0.93988c1.06159,0.5625 1.1347,0.66511 2.25517,0.87203c0.3295,0.06085 0.95288,0.29618 1.00461,-0.03487c0.07745,-0.49564 -0.50536,-0.87228 -0.82627,-1.25787c-0.93326,-1.12138 -1.50693,-1.49872 -2.04902,-2.86123c-1.16822,-2.93626 0.17643,-5.73459 1.62404,-8.27715c0.60467,-0.90159 1.50643,-2.51737 2.57349,-3.02706c2.33802,-1.11677 6.7625,-0.28675 8.22718,1.94746c1.30783,1.99495 1.94686,5.20182 2.25785,7.52916c0.22794,1.70587 0.00871,3.52249 -0.3598,5.18077c-0.10263,0.46186 -0.19391,0.92663 -0.31547,1.38387c-0.05829,0.21928 -0.34986,0.45464 -0.22335,0.64299c0.12218,0.18189 0.44068,-0.02972 0.65732,0.00308c2.13291,0.32294 2.46711,0.38309 4.16878,-1.02723c1.40623,-0.67992 4.39725,-1.80297 5.86074,-0.33948c0.53238,0.53238 0.43906,1.44636 0.54691,2.1915c0.20048,1.38515 0.2494,4.01187 -0.56115,5.21308c-1.55057,2.29789 -4.91462,2.59526 -7.3372,2.59911c-0.81581,0.0013 -2.59659,-0.33323 -3.2033,0.50829c-0.39628,0.54965 -0.23963,1.32418 -0.23963,1.91877c0,2.64401 1.58495,4.84144 1.98551,7.41069c0.71573,0.4429 1.80732,0.13484 2.42378,0.70791c1.8225,1.69423 0.9549,4.38546 -0.64064,5.74356c-2.25402,1.91859 -5.64105,1.32129 -8.36395,1.31653z" fill="#e9d877" stroke="none"/><path d="M173.76169,202.04737c-2.37239,0.00415 -5.32342,0.52456 -7.28729,-1.14706c-1.39015,-1.18328 -2.14607,-3.52807 -0.55817,-5.00421c0.53711,-0.4993 1.48818,-0.2309 2.11177,-0.61678c0.349,-2.23852 1.72992,-4.15308 1.72992,-6.45674c0,-0.51805 0.13648,-1.19288 -0.20878,-1.67177c-0.52861,-0.73319 -2.08016,-0.44173 -2.79095,-0.44286c-2.11073,-0.00335 -5.04174,-0.26244 -6.39271,-2.26454c-0.70621,-1.04658 -0.66359,-3.33517 -0.48892,-4.54202c0.09397,-0.64922 0.01266,-1.44555 0.47651,-1.9094c1.2751,-1.2751 3.8811,-0.29662 5.10631,0.29578c1.48262,1.22877 1.7738,1.17637 3.63215,0.895c0.18875,-0.02858 0.46625,0.15579 0.57271,-0.00268c0.11022,-0.1641 -0.14381,-0.36917 -0.1946,-0.56022c-0.10591,-0.39838 -0.18544,-0.80332 -0.27486,-1.20573c-0.32107,-1.44482 -0.51208,-3.02759 -0.31348,-4.51387c0.27096,-2.02775 0.82773,-4.82181 1.9672,-6.55996c1.27614,-1.94661 5.13107,-2.66978 7.16812,-1.69677c0.9297,0.44408 1.71538,1.85187 2.24221,2.6374c1.26126,2.21526 2.43282,4.65338 1.41498,7.21166c-0.47231,1.18712 -0.97213,1.51588 -1.78526,2.49291c-0.2796,0.33595 -0.78739,0.66411 -0.71991,1.09595c0.04507,0.28844 0.58821,0.0834 0.87529,0.03038c0.97624,-0.18028 1.03993,-0.26969 1.96487,-0.75978c1.80096,-0.95426 4.92506,-1.87321 5.89431,0.81889c0.20666,0.57398 -0.0314,1.22209 -0.11302,1.82665c-0.30573,2.26467 -1.23514,3.24967 -3.05755,4.49237c-1.64525,0.82353 -3.51563,1.65872 -5.28006,2.17662c-0.51453,0.15103 -1.31551,-0.09981 -1.68529,0.51078c-0.32527,0.53711 0.11352,1.2509 0.15102,1.8777c0.1119,1.87054 0.29335,3.67749 0.83995,5.49344c0.57912,1.92395 1.81938,4.6278 0.4108,6.6062c-0.72963,1.02478 -2.06674,1.03624 -3.12457,1.18112c0,0 -0.70841,0.08856 -1.06978,-0.43796z" data-paper-data="{&quot;index&quot;:null}" fill="#e9d877" stroke="none"/><path d="M274.31817,241.2897c-1.89282,0.00331 -4.24732,0.41852 -5.8142,-0.91519c-1.10914,-0.94408 -1.71225,-2.81489 -0.44534,-3.99264c0.42853,-0.39837 1.18735,-0.18422 1.68489,-0.4921c0.27845,-1.78602 1.38023,-3.31356 1.38023,-5.15154c0,-0.41333 0.1089,-0.95174 -0.16658,-1.33383c-0.42175,-0.58498 -1.65966,-0.35243 -2.22678,-0.35334c-1.68406,-0.00268 -4.02258,-0.20939 -5.10046,-1.80677c-0.56345,-0.83502 -0.52945,-2.66099 -0.39008,-3.62387c0.07497,-0.51798 0.0101,-1.15334 0.38018,-1.52342c1.01735,-1.01735 3.09655,-0.23666 4.0741,0.23599c1.18292,0.98038 1.41524,0.93857 2.89793,0.71408c0.1506,-0.0228 0.372,0.1243 0.45694,-0.00214c0.08794,-0.13093 -0.11474,-0.29454 -0.15526,-0.44697c-0.0845,-0.31785 -0.14796,-0.64094 -0.2193,-0.962c-0.25617,-1.15275 -0.40857,-2.41558 -0.25012,-3.60141c0.21618,-1.61785 0.66041,-3.84711 1.56955,-5.2339c1.01817,-1.55311 4.09385,-2.1301 5.71913,-1.35378c0.74177,0.35431 1.36863,1.47752 1.78896,2.10426c1.00631,1.76746 1.94104,3.71272 1.12895,5.75386c-0.37683,0.94715 -0.77562,1.20946 -1.42438,1.98899c-0.22308,0.26804 -0.62822,0.52986 -0.57438,0.87441c0.03596,0.23013 0.4693,0.06654 0.69836,0.02424c0.7789,-0.14384 0.82972,-0.21517 1.56768,-0.60619c1.4369,-0.76136 3.92948,-1.49455 4.70281,0.65336c0.16488,0.45795 -0.02505,0.97505 -0.09017,1.4574c-0.24393,1.80688 -0.98547,2.59276 -2.43948,3.58426c-1.31267,0.65706 -2.80497,1.32342 -4.21272,1.73662c-0.41052,0.1205 -1.04959,-0.07964 -1.34462,0.40753c-0.25952,0.42853 0.09057,0.99803 0.12049,1.49813c0.08928,1.49242 0.23405,2.9341 0.67016,4.38297c0.46205,1.53504 1.45161,3.69232 0.32776,5.2708c-0.58214,0.81763 -1.64896,0.82677 -2.49296,0.94237c0,0 -0.56521,0.07066 -0.85353,-0.34943z" data-paper-data="{&quot;index&quot;:null}" fill="#e9d877" stroke="none"/><path d="M-33.49666,184.2711c-0.07447,-0.13401 -0.14751,-0.27247 -0.21902,-0.41549c-3.3541,-6.7082 3.3541,-10.06231 3.3541,-10.06231c3.01749,-1.49455 6.39928,-2.16576 9.41112,-3.67168c1.19037,-0.59518 1.84292,-2.04081 3.07286,-2.54922c1.14137,-0.4718 2.51546,0.11131 3.69674,-0.24909c0.61307,-0.18705 0.8561,-0.98424 1.40893,-1.30864c1.65499,-0.97113 3.37139,-1.85845 5.16235,-2.54731c1.07597,-0.41385 5.88186,-3.00515 7.37881,-3.73789c1.52735,-0.74762 3.30212,-0.82763 4.91577,-1.36417c1.9917,-0.66224 3.83614,-1.79221 5.88921,-2.22847c0.84289,-0.17911 3.65202,-1.27152 4.54818,-1.56442c1.73285,-0.56637 8.68735,-2.10561 10.45182,-2.43558c2.10345,-0.39336 9.0732,-1.5461 10.24493,-1.81352c2.33353,-0.53257 4.78225,-0.21454 7.17338,-0.32181c5.97101,0 12.03836,-0.31311 18,0c2.29477,0.12052 9.42909,2.69649 10.75492,3.69993c1.1532,0.8728 2.52573,1.47411 3.54838,2.49677c1.11458,1.11458 5.26519,4.50436 6.24915,5.343c2.26134,1.92735 3.35451,4.9153 5.24761,7.20538c3.15097,3.81173 7.63821,9.05403 6.63357,14.75042c-0.59267,3.36053 -3.46701,5.89594 -5.5221,8.62009c-1.51119,2.00319 -7.59705,6.78941 -8.11147,8.13933c-3.02577,4.66631 -10.09666,14.37228 -10.5007,15.96823c-0.42553,1.68081 -1.6561,3.06632 -2.20532,4.71088c-0.6086,1.82233 -3.6144,9.32122 -3.59405,9.56598c0.19337,2.32531 0,4.66667 0,7c0,3.99959 -0.76452,8.86039 -0.09684,12.79863c0.55832,3.29325 3.11681,6.36061 3.89621,9.47822c0.23259,0.93035 0.69466,3.63628 1.22713,4.02791c2.36608,7.91095 4.77452,17.48141 2.65169,25.86862c-0.29489,1.16511 -1.6629,1.84639 -2,3c-0.43974,1.50485 -2.10054,6.41532 -2.65169,7.52186c-0.50604,1.01595 -0.19132,2.3087 -0.66764,3.33891c-2.33469,5.04957 -6.77152,7.79669 -10.19295,11.87986c-1.22785,1.46533 -2.14373,3.19901 -3.51179,4.53439c-1.08132,1.05549 -11.18072,6.15666 -11.3992,6.35166c-1.08046,0.96437 -2.38774,1.63984 -3.59467,2.44031c-2.27978,1.51203 -4.57674,2.99799 -6.86512,4.49699c-2.58339,0.83163 -4.60103,2.91193 -7.07185,4.03467c-4.5208,2.05425 -16.88394,3.11467 -18.04991,3.40616c-1.6169,0.40423 -6.83489,1.70511 -8,2c-5.0198,1.27053 -12.02612,0.32181 -17.17338,0.32181c-3.92142,0 -11.61884,0.9273 -14.61559,-1.58846c-2.19502,-1.8427 -2.53602,-5.14768 -3.58531,-7.81463c-3.07029,-7.80373 -2.2991,-14.78935 -2.2991,-23.09691c0,-7.33333 0,-14.66667 0,-22c0,-12.59001 0.16204,-24.88163 1.01148,-37.41475c0.63179,-9.32177 -0.9936,-18.91391 0.01408,-28.20385c0.69486,-6.40605 2.70535,-11.94088 4.17508,-18.10454c1.40184,-5.87895 -0.06872,-11.64509 0.89621,-17.47822c0.05706,-0.34495 0.45799,-1.62663 0.91397,-3.02904z" fill="#b46000" stroke="none"/><path d="M326.3344,390.3836c0,0 -7.5,0 -7.5,-7.5c0,-7.5 7.5,-7.5 7.5,-7.5c2.28578,0 4.64763,0.79638 6.85441,0.20063c1.09066,-0.29444 1.91249,-1.21622 2.9395,-1.68682c1.54625,-0.70853 3.27408,-1.01133 4.75895,-1.84082c1.62353,-0.90695 2.86761,-2.3993 4.48242,-3.32169c0.94797,-0.54149 2.18134,-0.44834 3.11325,-1.01702c6.63638,-4.04975 10.29458,-10.79495 15.07335,-16.55315c3.29411,-3.96925 7.19773,-7.66621 10.07034,-11.99447c0.9597,-1.44601 1.33792,-3.24232 2.37759,-4.63195c1.06686,-1.42599 2.30003,-2.76977 3.58439,-4.08835c0.97927,-2.06655 3.94812,-7.97967 4.36928,-8.81896c0.55892,-1.11381 1.31962,-2.34401 2.13078,-3.63864c0.00576,-0.0253 0.01163,-0.05058 0.01759,-0.07585c0.56987,-2.41493 2.39613,-4.37232 3.20832,-6.71688c1.9314,-5.57539 1.47891,-16.47518 1.71273,-17.04952c-0.09054,-6.18735 -0.35586,-12.40022 -0.35586,-18.48595c0,0 -0.66318,-8.89826 -1.19192,-10.21143c-0.73466,-1.82459 -0.3806,-3.91542 -0.5709,-5.87313c0.13952,-4.75866 -9.23991,-23.42388 -10.1887,-26.35515c-0.81696,-2.52396 -2.73476,-13.15993 -3.22797,-15.98703c-0.11383,-0.65249 -0.09684,-6.98953 -0.09684,-8.70887c0,-4.345 1.51778,-16.4726 2.0724,-17.88514c2.73644,-6.96926 5.92683,-12.58506 11.18319,-17.94496c6.41781,-4.27854 11.82536,-10.33832 19.09805,-13.39014c0.71299,-0.29919 3.81336,-2.23721 4.92597,-3.12638c2.16936,-1.7337 16.09347,-3.38182 19.85313,-4.56761c2.57046,-0.81072 8.01553,-1.48073 10.65318,-2.0351c2.42226,-0.5091 7.85292,-1.0808 10.328,-1.10323c4.41365,-0.04 16.03667,2.61542 18.19631,3.20363c3.38036,0.92071 8.0992,2.70472 11.47841,3.62962c8.45117,2.31312 15.19703,4.81697 21.83038,10.0933c3.61014,3.5924 7.21062,7.19439 10.8119,10.79567c1.20543,1.20543 6.54486,6.47762 7.08259,7.36632c1.11722,1.84645 1.54192,4.03255 2.23675,6.07578c1.14811,3.37617 2.63869,6.67348 3.29103,10.17935c0.45779,2.46027 -0.44766,5.04537 0,7.50751c0.56625,3.11438 2.31632,5.91894 3.003,9.00901c0.32572,1.46575 -0.32572,3.03876 0,4.5045c0.68668,3.09006 2.49897,5.88395 3.003,9.00901c0.11108,0.68874 0.09684,11.66959 0.09684,14.71488c0,8.00801 0,16.01602 0,24.02402c0,9.00788 0.05822,18.01943 0,27.02703c-0.02247,3.47599 0.46893,7.00417 -0.13533,10.42732c-0.49901,2.82692 -2.42355,5.24168 -3.12207,8.02601c-0.90287,3.59886 -1.10204,7.33848 -1.65306,11.00772c-2.08442,3.71259 -4.46777,7.27251 -6.25326,11.13776c-3.80472,8.23651 -5.00969,17.53503 -9.10188,25.72532c-1.70199,3.40643 -4.26736,6.36606 -5.73614,9.87936c-1.10972,2.65441 -0.61686,5.84785 -1.91273,8.41653c-1.10288,2.18615 -3.61844,3.35206 -5.03275,5.3509c-1.29285,1.82717 -1.6253,4.24193 -3.003,6.00601c-2.23564,2.86262 -4.84238,5.46935 -7.705,7.705c-1.76407,1.3777 -4.21536,1.66002 -6.00601,3.003c-2.26501,1.69876 -3.73556,4.31452 -6.00601,6.00601c-1.99162,1.48376 -4.49904,2.12473 -6.62688,3.40551c-5.29714,3.18844 -10.83276,8.13182 -17.05632,9.82155c-1.93206,0.52456 -4.06378,-0.48556 -6.00601,0c-2.17148,0.54287 -3.86122,2.36277 -6.00601,3.003c-4.38756,1.30972 -9.15628,0.20063 -13.73516,0.20063c-8.7148,0 -17.42937,0.00185 -26.14413,-0.02555c-14.70463,-2.44701 -27.28896,-7.35332 -40.45787,-14.3754c-5.16216,-2.75263 -10.00102,-5.93751 -14.92031,-8.98799c-0.73154,0.76586 -1.48814,1.50684 -2.31136,2.16949c-4.30021,3.46148 -9.51977,6.07368 -13.8831,9.29326c-2.41831,1.78441 -3.83608,4.81551 -6.44835,6.30157c-5.43063,3.08937 -7.3748,2.52696 -12.95199,2.62162c0,0 -5.38076,0 -7.02711,-4.55759c-0.13531,0.00489 -0.27093,0.00883 -0.40687,0.01181h-2.14439c0,0 -7.5,0 -7.5,-7.5c0,-7.5 7.5,-7.5 7.5,-7.5h2.14439c5.53878,0.26617 9.85348,-3.61572 14.28432,-6.38524c2.97308,-1.85834 6.00143,-3.62645 9.01642,-5.41635c-0.81367,-0.00095 -1.47665,-0.00326 -1.85685,-0.00326zM490.07113,262.65312c2.40695,-1.82611 3.96144,-4.71733 3.96144,-7.97162c0,-2.61547 -1.0041,-4.99642 -2.64784,-6.7784c0,-9.06582 -1.096,-19.03636 -6.01808,-26.77104c-7.3605,-11.5665 -29.67194,-18.28209 -40.86167,-9.19295c-8.14668,6.61734 -13.82921,20.39389 -14.16174,30.82712c-0.11516,3.61323 -0.63485,10.05642 1.25,13.82613c4.61586,9.23172 21.21779,7.52864 29.4914,7.64784c0.99578,0.01435 1.87092,0.69502 2.83707,0.93655c2.44328,0.61082 16.44526,-0.12772 20.11085,-0.49525c1.14138,0 2.23809,-0.19122 3.25985,-0.54337c0.60718,-0.17231 1.19339,-0.39907 1.74015,-0.70663c0.38743,-0.21793 0.7307,-0.48034 1.03856,-0.77838z" fill="#b46000" stroke="none"/><path d="M412.49862,311.27586c7.27607,1.81902 5.45705,9.09509 5.45705,9.09509l-1.57623,5.69305c-3.47904,4.81247 -4.92823,7.50424 -9.6618,11.26581c-1.63155,1.29653 -3.66156,2.01038 -5.36097,3.21658c-3.59593,2.55231 -6.8901,5.89737 -10.03424,9.04151c-2.86389,2.83373 -6.16765,6.05763 -9.49553,8.28638c-1.18386,0.79285 -2.78926,0.88796 -3.8685,1.81821c-1.35356,1.1667 -1.84692,3.14102 -3.21658,4.28878c-1.54698,1.29634 -3.57129,1.88272 -5.32993,2.87308c-1.62118,0.91294 -3.0532,2.21642 -4.80765,2.83575c-0.79591,0.28096 -1.70615,-0.47342 -2.51984,-0.24909c-0.33678,0.09285 0.01999,0.80591 -0.2596,1.01536c-1.80991,1.35582 -3.65943,2.78764 -5.79812,3.52251c-1.70217,0.58488 -3.59131,0.38761 -5.38996,0.32181c-0.5094,-0.01864 -0.95236,-0.77683 -1.41865,-0.5709c-0.92472,0.40837 -1.16645,1.88846 -2.14439,2.14439c-2.66069,0.69631 -5.48323,0.45549 -8.2311,0.5709c-6.40975,0.26923 -12.88139,0 -19.2995,0c0,0 -4.96697,0 -6.81672,-4.0421c8.46385,-0.30515 15.84316,-1.6888 16.23511,-1.69384c7.68194,-0.09886 16.8389,-6.44773 22.96767,-10.46657c7.78979,-5.10803 11.98088,-3.5133 18.86242,-11.90743c0.91133,-1.11165 2.30801,-2.32888 3.64201,-3.61264c2.21056,-1.68278 4.37785,-3.80781 6.28227,-5.74118c3.57262,-3.57262 7.3246,-7.32309 11.40965,-10.25799c1.69246,-1.21594 3.69921,-1.95901 5.36097,-3.21658c1.82065,-1.37782 3.86313,-4.06023 5.34892,-5.8893l0.56816,-2.88451c0,0 1.81902,-7.27607 9.09509,-5.45705z" fill="#b46000" stroke="none"/><path d="M54.36534,158.78184c-7.14999,5.63371 -15.85632,6.07362 -24.75872,6.00435c-1.72444,-0.01342 -3.59175,-1.18207 -5.41792,-1.20024c-6.12445,-0.06094 -12.25327,0.1879 -18.37567,0.07302c-0.13074,0.04904 -0.26062,0.09709 -0.38956,0.14402c-4.1651,1.51623 -7.63085,3.20621 -11.59692,5.16855c-2.3741,1.17467 -5.09277,1.5423 -7.46934,2.71196c-1.82499,0.89819 -3.28147,2.53637 -5.21452,3.16934c-1.65736,0.54269 -3.48393,0.16621 -5.22589,0.24931c-2.99258,0.85503 -6.11387,1.38607 -9.22579,1.43675h-2.72852c0,0 -7.5,0 -7.5,-7.5l-0.00006,0.00002c0,-7.5 7.5,-7.5 7.5,-7.5h2.72852c2.41924,0.07398 4.81803,-0.62684 7.14528,-1.29176c0.98655,0.0831 2.02336,0.57111 2.95965,0.24931c1.18204,-0.40626 1.85694,-1.72101 2.97101,-2.28769c2.38332,-1.2123 5.15147,-1.53806 7.53748,-2.74507c3.8765,-1.96099 7.47054,-3.65685 11.45299,-5.18316c0.21816,-0.25988 0.44957,-0.5127 0.69398,-0.75711c0.91109,-0.91109 2.46347,-0.86689 3.75,-0.9375c0.02634,-0.00145 0.05267,-0.00287 0.07901,-0.00428c3.20811,-1.23222 6.61008,-2.55514 9.74128,-3.2785c0.88616,-0.20472 1.84067,0.1973 2.72851,0c1.1953,-0.26562 2.20565,-1.14683 3.41065,-1.36426c1.24276,-0.22425 2.5458,0.29306 3.78792,0.0653c2.17568,-0.39894 4.07394,-1.87888 6.2638,-2.19082c6.16107,-0.87762 13.12593,-0.0562 19.33384,-0.0562c5.46043,0 12.09352,-0.99249 17.4121,0.20063c1.22964,0.27585 6.55948,2.04857 7.95494,2.7332c0.91746,0.45012 4.13411,2.3211 4.93121,2.81458c3.19415,1.97751 6.92482,6.17991 9.39663,9.028c0.69429,0.79998 4.78055,3.64473 5.94791,4.62644c4.9539,4.1661 8.44781,10.83056 10.0644,16.97392c0,0 1.81902,7.27607 -5.45705,9.09508c-7.27607,1.81902 -9.09508,-5.45705 -9.09508,-5.45705c-0.66318,-2.93089 -2.51126,-7.15031 -4.94242,-8.94696c-1.22667,-0.90652 -2.91166,-1.08125 -4.09277,-2.04638c-2.32323,-1.8984 -3.92044,-4.55021 -6.04525,-6.66835c-1.12336,-1.11983 -1.73427,-2.87075 -3.16683,-3.5517c-0.84671,-0.40247 -3.81163,-2.22684 -4.61859,-2.64245c-0.68586,-0.35324 -7.26586,-1.15894 -8.73937,-1.15894c-0.57124,0 -3.14288,1.56137 -3.73084,2.02464z" fill="#fffaae" stroke="none"/><path d="M491.77099,145.82751c-0.17212,0.79974 -0.48769,1.5678 -0.96081,2.26418c-0.22269,0.32778 -0.57313,0.71638 -1.02332,1.14809c-0.09142,0.09014 -0.18515,0.17796 -0.28108,0.26334c-3.45745,3.16993 -11.62456,8.31986 -14.59311,9.1873c-6.24885,1.82599 -8.50305,0.95877 -17.71675,1.18874c-2.89431,0.07224 -5.73714,2.00368 -8.64515,2.00368c-4.81539,0 -12.58542,-0.16511 -17.39935,-0.04673c-4.44542,0.10932 -8.91161,3.47173 -13.00412,4.93334c-2.28057,0.81449 -4.3423,0.72495 -6.62312,1.30237c-5.4554,1.3811 -13.43572,4.82829 -18.23566,8.38618c-0.1381,0.4512 -0.28865,0.89663 -0.53132,1.29067c-1.12526,1.82711 -7.20883,9.46197 -8.29678,10.70868c-0.38017,0.43564 -1.06904,0.58179 -1.35297,1.08546c-0.555,0.98453 -0.46381,2.26411 -1.07219,3.21658c-0.8541,1.33717 -2.14731,2.33647 -3.22097,3.50471c0,0 -5.3033,5.3033 -10.6066,0c-5.3033,-5.3033 0,-10.6066 0,-10.6066c1.21902,-0.8951 1.3391,-2.71779 2.14,-4.00065c1.74886,-2.80127 4.29518,-5.01408 6.40373,-7.55922c0.9484,-2.04407 2.5271,-3.98144 2.97526,-5.5822c0.18253,-0.65197 0.91935,-1.41011 1.84575,-2.15069c0.40738,-0.62912 0.84317,-1.23755 1.3267,-1.81135c1.08609,-1.28887 2.76999,-1.92572 4.08425,-2.98094c1.1182,-0.8978 1.93504,-2.20301 3.20406,-2.87082c1.30405,-0.68624 3.00911,-0.3415 4.28878,-1.07219c1.36645,-0.78025 1.96489,-2.60014 3.37289,-3.30264c1.84558,-0.92083 4.10097,-0.65813 6.02978,-1.38873c1.06194,-0.40225 1.7722,-1.45226 2.79157,-1.95266c3.01844,-1.48171 6.65969,-1.73783 9.64975,-3.21658c1.50895,-0.74626 2.74561,-2.0402 4.33834,-2.58521c1.01445,-0.34713 2.19941,0.33906 3.21658,0c1.22249,-0.4075 2.14439,-1.42959 3.21658,-2.14439c1.7536,-0.07499 3.54055,0.12358 5.26079,-0.22497c2.21537,-0.44886 4.21169,-1.72682 6.43317,-2.14439c2.28805,-0.43009 4.77681,0.84562 6.98358,0.10379c1.51502,-0.50929 2.73968,-1.75075 4.28878,-2.14439c4.80872,-1.22193 10.29361,1.01891 15.01072,0c1.5623,-0.33746 2.74925,-1.71483 4.28878,-2.14439c0.67504,-0.18835 1.40697,0.59845 2.0696,0.37027c0.45508,-0.15671 0.22669,-1.0357 0.62919,-1.29961c1.8997,-1.24559 3.95906,-2.26004 6.07201,-3.09421c1.00614,-0.39721 2.19064,-0.16445 3.19563,-0.56456c1.63132,-0.64945 2.14623,-2.86002 3.59869,-3.84659c0.7475,-0.50773 1.54391,-0.93354 2.35606,-1.33298c1.00625,-1.71332 2.86916,-3.29929 6.31804,-3.29929c7.5,0 7.5,7.5 7.5,7.5l-4.1459,7.7804c-1.08585,0.50683 -2.24969,0.87229 -3.25755,1.5205c-0.79463,0.51107 -1.4385,1.22035 -2.0622,1.95384c0.33426,1.20032 0.39644,2.46278 0.13988,3.65486z" fill="#fffaae" stroke="none"/><path d="M-17.90739,345.80562c-2.16826,-6.52673 4.39662,-9.15268 4.39662,-9.15268c2.2427,-0.8485 4.38411,-2.04016 6.7281,-2.54549c2.10502,-0.45381 6.12551,-2.16587 8.48895,-3.47998c1.82155,-1.01282 4.50705,-0.60381 6.42626,-1.41652c1.04838,-0.44394 5.61617,-0.96483 6.84581,-1.35019c1.42546,-0.44672 4.06668,-1.33801 5.54517,-1.55152c2.48113,-0.3583 4.09294,-1.34086 6.57743,-1.67511c1.77104,-0.23826 3.80209,-0.63561 5.57528,-0.85726c1.12146,-0.14018 5.1953,-1.25935 6.76987,-1.61135c1.55983,-0.34871 4.2399,-0.67917 5.789,-1.07281c1.59718,-0.40585 6.68552,-0.17154 7.64551,-0.48822c1.93523,-0.6384 4.05781,-0.3806 6.08671,-0.5709c3.62597,0 7.29753,0.63031 10.87776,0.05619c2.91,-0.46664 5.66219,-1.71251 8.57756,-2.14439c4.92688,-0.72986 10.92484,-0.05619 15.9271,-0.05619c6.43317,0 12.86633,0 19.2995,0c2.7518,0 6.01718,0.47502 8.73338,0.05619c1.45638,-0.22457 2.82549,-0.89828 4.28878,-1.07219c0.6351,-0.07548 10.01686,-0.05619 10.56612,-0.05619c1.29532,0 8.21063,-0.05802 9.22851,0.20063c1.97076,0.50078 4.2457,0.77818 6.26098,0.50744c3.54193,0.03171 6.58263,2.05173 10.08735,2.56471c1.32783,0.19435 6.76153,1.90118 8.31214,2.28883c1.07938,0.26985 7.02522,1.76372 8.57756,2.14439c2.92294,0.71676 11.02366,1.85277 12.24437,2.26557c0.87436,0.29568 5.54011,1.51392 7.05513,2.02321c0.4761,0.16005 0.99145,-0.18321 1.49344,-0.20063c3.55971,-0.12352 7.15865,0 10.72194,0c8.57756,0 17.15511,0 25.73267,0c3.51155,0 7.41005,0.51607 10.87776,0.05619c1.4608,-0.19373 8.20943,-1.53892 10.0967,-1.91638c1.75229,-0.35046 5.87638,-0.87061 7.62867,-1.22107c1.88727,-0.37745 7.33478,-1.82851 8.27271,-2.07908c3.33776,-0.89169 5.72394,-3.9136 8.50211,-5.51368c1.95874,-1.12813 8.33391,-4.36571 9.65042,-4.83799c1.56618,-0.56186 8.97113,-3.56607 10.55791,-4.21854c2.74212,-1.12754 7.53365,-0.57471 9.59584,-2.5981c1.65913,-1.10609 7.16846,-4.86138 8.42004,-5.22659c2.07038,-0.60413 10.11872,-1.64222 11.0974,-1.8953c2.44917,-0.63333 5.10535,0.15406 7.58015,-0.37027c1.56362,-0.33128 5.30857,-1.72754 6.18293,-2.02321c1.22071,-0.4128 5.10777,-1.82621 6.35648,-2.14439c5.48498,-1.3976 10.34154,-0.32181 15.98859,-0.32181c10.79745,0 22.33464,-1.09157 33.08221,0.05619c2.56152,0.27355 5.08545,1.05892 7.66118,1.016c3.82603,0 7.56011,0.3863 11.31512,0.90776c3.07085,0.42646 6.58889,0.96755 9.67518,1.26218c1.68888,0.16123 5.25678,1.16136 6.91305,1.52888c4.25181,0.94348 6.27254,1.8469 10.47627,2.98559c4.39788,1.19129 5.97784,1.75517 10.32684,3.37265c2.49604,0.92833 6.27273,2.25853 8.84558,3.38017c0.85188,0.37138 4.88157,1.5339 5.55161,1.62968c3.12593,0.44683 9.91126,2.95945 10.12416,3.087c1.82376,1.09254 3.04384,0.88188 4.69659,2.26571c1.64942,1.38104 4.4085,-0.20589 6.4325,0.52298c1.48192,0.53365 2.33648,2.13462 3.65959,2.98917c1.34264,0.86716 2.85919,1.42959 4.28878,2.14439c0.20973,0.4332 0.16386,1.17664 0.62919,1.29961c1.38215,0.36524 3.00297,-0.62484 4.28878,0c2.13461,1.03732 3.91315,2.80579 5.35858,4.68816c0.46576,0.60655 -0.69233,1.97599 0.00306,2.29422c1.83429,0.83943 4.59407,-0.94484 6.03358,0.46834c2.39533,2.35151 3.01617,6.04584 3.90041,9.28394c0.45709,1.67386 0.21638,3.47741 0.05619,5.20515c-0.02055,0.22165 -0.68979,0.15826 -0.5709,0.34646c0.53988,0.85463 1.84709,1.17822 2.14439,2.14439c1.55092,5.04012 -0.03538,9.10349 -0.52016,14.12374c-0.17568,1.81929 0.31898,3.72243 -0.18176,5.48026c-0.70502,2.47494 -2.01191,4.75857 -3.35944,6.95096c-0.25203,0.41004 -1.1473,0.17262 -1.29961,0.62919c-0.2671,0.80066 0.54461,1.72922 0.24909,2.51984c-0.89317,2.38956 -6.04498,9.65946 -7.73356,11.09012c-1.73769,1.47227 -3.95796,2.26522 -6.02196,3.22805c-7.89221,3.68163 -15.49519,4.88744 -24.10156,4.9355c-6.5757,0.73874 -13.19088,1.14839 -19.74165,2.08274c-4.07887,0.58177 -8.06337,1.80114 -12.1654,2.18721c-8.75979,0.82446 -17.59699,0.03031 -26.39549,0.03031c-11.08292,0 -22.16583,0 -33.24875,0c-46.81916,0 -93.63831,0 -140.45747,0c-65.40386,0 -130.80772,0 -196.21158,0c-4.40438,0 -8.89862,0.7532 -13.21245,-0.13533c-1.88508,-0.38827 -3.48449,-1.71649 -5.36097,-2.14439c-1.1735,-0.2676 -2.41291,0.22867 -3.6095,0.09883c-1.81175,-0.19659 -3.55079,-0.86174 -5.36097,-1.07219c-1.74672,-0.20308 -3.57477,0.29264 -5.27289,-0.16413c-2.24895,-0.60494 -4.2932,-1.82785 -6.33008,-2.95693c-0.63563,-0.35234 -0.92942,-1.24414 -1.62551,-1.45302c-1.02695,-0.30817 -2.20214,0.34713 -3.21658,0c-1.59273,-0.54502 -2.82315,-1.8517 -4.33834,-2.58521c-5.27195,-2.5522 -11.52194,-5.00901 -14.87888,-10.29974c-1.92214,-3.02939 -3.96813,-10.26075 -4.28051,-13.74855c-0.18597,-2.07635 0.6715,-4.20358 0.26562,-6.24835c-0.25089,-1.26396 -1.78942,-1.97782 -2.14439,-3.21658c-0.49579,-1.73022 -0.21454,-3.59331 -0.32181,-5.38996v-3.21658c0,0 0,-0.91186 0.31795,-2.09967z" fill="#d59213" stroke="none"/><path d="M-0.82354,368.04596c-0.04498,-0.02342 -0.08994,-0.04739 -0.13485,-0.07192c-1.16184,0.0747 -2.34043,-0.03035 -3.50685,-0.00478c0,0 -7.5,0 -7.5,-7.5c0,-7.5 7.5,-7.5 7.5,-7.5c3.24792,0.15608 5.14357,-1.48179 8.44838,-2.04754c0.74116,-0.12688 4.22991,-1.53918 5.46115,-1.91942c1.48407,-0.45832 8.20241,-1.14112 10.0119,-1.3575c0.74089,-0.0886 4.95585,-1.65748 6.52125,-1.98026c2.80028,-0.5774 11.31724,-1.75075 12.86634,-2.14439c0.86365,-0.21946 14.51223,-1.84842 16.08292,-2.14439c1.25133,-0.23579 9.81768,-0.20063 12.44509,-0.20063c10.36455,0 20.72909,0 31.09364,0c2.50179,0 13.88287,-1.55012 15.43197,-1.94376c4.19816,-1.06678 10.2991,-0.20063 14.58948,-0.20063c11.43674,0 22.87348,0 34.31022,0c15.72552,0 31.45104,0 47.17656,0c8.98195,0 17.60749,-0.09319 26.4717,1.10869c1.53914,0.20869 3.16687,-0.17301 4.65093,0.28531c1.23124,0.38024 6.01204,0.76746 6.81027,0.96725c1.86705,0.46731 9.18265,2.68127 11.41703,3.32153c1.23876,0.35497 5.81288,1.71397 7.05512,2.02321c1.551,0.3861 6.79396,1.88323 7.9556,2.26557c1.22402,0.40287 4.01596,1.01659 4.37883,0.98918c2.85106,-0.21539 5.59931,0.8334 8.45851,0.8334c2.49443,0 4.00568,0.29025 6.40485,-0.39253c1.2394,-0.35272 3.06077,-1.03736 4.28809,-1.43005c1.33171,-0.42609 6.28438,-1.15182 7.40518,-1.29716c0.901,-0.11685 4.0855,-0.63913 4.54647,-0.98161c1.15909,-0.86114 2.3407,-1.70683 3.61238,-2.39084c2.05102,-1.10319 4.10434,-2.27152 6.33008,-2.95693c0.66978,-0.20626 3.49919,-1.05932 4.21399,-1.77412c5.95654,-0.50544 9.50537,-3.3645 15.60729,-4.76284c1.13778,-0.26074 8.23261,-1.84843 10.72195,-2.14439c0.88131,-0.10478 3.80442,-1.35365 4.76441,-1.67033c1.93523,-0.6384 4.05198,-0.45894 6.08671,-0.5709c5.31504,-0.29246 10.76366,0 16.08292,0c14.502,0 29.00451,-0.03642 43.50638,0.02555c3.73593,0.62266 7.55454,0.61329 11.30471,1.14348c1.11906,0.15821 15.47872,-0.19728 21.34371,1.29716c1.24872,0.31818 6.13593,1.73402 7.50536,2.14439c1.61255,0.48322 5.20773,1.83895 6.71668,2.58521c3.4183,1.69054 5.37027,1.71408 8.74371,3.42745c1.90854,0.96935 3.02321,3.16815 4.96087,4.07791c3.33097,1.56395 6.48719,-0.0392 9.22235,4.49643c5.33318,8.84385 -1.01051,16.40855 -6.69037,21.97953c-2.50927,1.67285 -4.36814,4.5155 -7.24576,5.41781c-7.06016,2.21378 -14.97719,-0.89124 -22.04045,0.47406c-2.2193,0.42898 -4.19408,1.83485 -6.43317,2.14439c-8.85986,1.22483 -19.06228,0.09684 -28.00623,0.09684c-40.02859,0 -80.05718,0 -120.08578,0c-71.12223,0 -142.24446,0 -213.36669,0c-5.77034,0 -11.58212,-0.74725 -17.31093,-0.05619c-2.92597,0.35296 -5.65476,1.76603 -8.57756,2.14439c-0.48935,0.06335 -9.05354,0.05619 -11.63832,0.05619c-6.79056,0 -13.58113,0 -20.37169,0c-6.68113,0 -14.62035,1.15567 -20.85035,-2.0457c-4.73374,-2.4325 -7.20164,-7.03284 -8.74598,-11.81613z" fill="#b97e11" stroke="none"/><path d="M123.50499,304.1398c0.94768,0 5.61624,0.57164 6.61482,0.20063c0.88377,-0.32835 1.57467,-1.06813 2.45623,-1.40236c3.32107,-1.25914 5.40579,-0.92779 8.7887,-2.34758c2.67672,-1.1234 4.92999,-3.1246 7.61921,-4.21776c3.14448,-1.27823 6.22088,-2.77405 9.48495,-3.70545c1.79615,-0.51254 3.67738,-0.6605 5.52456,-0.93759c1.33079,-0.19963 2.81555,0.80298 4.03077,0.22496c0.90495,-0.43043 1.53672,-1.39626 2.50139,-1.6676c1.31385,-0.36955 2.75857,0.11247 4.09026,-0.18648c2.50018,-0.56126 4.94176,-1.6676 7.50417,-1.6676c1.38966,-0.55586 2.70812,-1.34197 4.16898,-1.66759c1.62765,-0.3628 3.40193,0.46704 5.00278,0c1.43681,-0.41919 2.70812,-1.34197 4.16898,-1.6676c4.981,-1.11023 11.29684,-0.13532 16.42665,-0.13532c14.45247,0 28.90495,0 43.35742,0c6.30268,0 12.60536,0 18.90804,0c2.67787,0.99791 5.99299,1.72378 9.11847,2.06792c0.32146,0.11638 0.61765,0.21769 0.88021,0.30068c5.03319,1.59087 10.15917,1.16719 15.355,1.16719c7.27603,0 14.55207,0 21.8281,0c10.91405,0 21.82811,0 32.74216,0c4.55074,0 10.15528,0.70069 14.57583,-0.26752c1.75005,-0.3833 3.21868,-1.24641 4.7122,-1.97265c7.38105,0 14.7621,0 22.14314,0c0.93693,0.39149 1.94614,0.6445 3.00206,0.73344c0.5751,0.34775 1.1108,0.72696 1.58859,1.15037c0.25124,0.75519 0.59009,1.47037 1.00451,2.13347c-0.14353,0.4957 -0.27009,1.11173 -0.37042,1.78356c-2.73217,2.28404 -6.39413,3.99304 -9.06192,4.96315c-7.68589,2.79487 -16.70236,2.9994 -24.83465,3.57672c-1.16673,0.08283 -7.34772,-0.37294 -10.60558,0.51292c-3.10972,-0.11115 -6.24179,-0.19805 -9.25338,0.10987c-5.45511,0.55776 -12.37994,3.49531 -16.7563,6.52674c-12.52852,6.32894 -25.54524,11.42609 -38.67941,16.23626c-4.58837,1.68041 -8.80413,4.44579 -13.62572,5.66849c-1.45879,0.36993 -3.01819,0.21948 -4.47545,0.59538c-2.26815,0.58507 -4.17303,2.2203 -6.4386,2.81526c-4.01536,1.05448 -8.65463,2.21537 -12.79681,2.16546c-8.28068,3.31227 -17.05509,2.86384 -25.97492,2.86384c-7.84292,0 -16.48092,1.05158 -24.23262,-0.07249c-1.63819,-0.23755 -3.13895,-1.11175 -4.7749,-1.36426c-1.47298,-0.22736 -3.00425,0.20272 -4.47082,-0.06283c-1.20487,-0.21816 -2.2101,-1.12342 -3.41064,-1.36426c-1.21449,-0.24364 -2.50792,0.21062 -3.71548,-0.06531c-1.22854,-0.28072 -2.24433,-1.16965 -3.43939,-1.56957c-4.29548,-1.43749 -9.13611,-2.42248 -13.61382,-2.52319c-2.76956,-1.26394 -5.20348,-3.1887 -7.96826,-4.46304c-2.56024,-1.18007 -5.77859,-1.02502 -8.40282,-1.67611c-0.98693,-0.24487 -1.7231,-1.21211 -2.72851,-1.36426c-1.7581,-0.26604 -3.5674,0.36012 -5.33238,0.14444c-3.38059,-0.41311 -6.48352,-2.16249 -9.83479,-2.76916c-6.62532,-1.19937 -13.88035,-0.58528 -20.62674,-0.58528c-7.62419,0 -17.38658,-1.61747 -24.50257,1.22893c-1.03527,-0.02177 -2.09505,-0.29034 -3.1058,-0.06531c-0.99255,0.22098 -1.73587,1.14367 -2.72851,1.36426c-1.10981,0.24662 -2.30083,-0.24662 -3.41064,0c-0.99264,0.22059 -1.73587,1.14367 -2.72851,1.36426c-1.10981,0.24662 -2.30083,-0.24662 -3.41064,0c-0.48861,0.10858 -0.91828,0.38106 -1.3463,0.6592h-7.17984c-1.93136,-0.472 -4.06087,-1.01295 -5.73941,-1.55783c-0.73629,-0.29994 -1.47285,-0.5863 -2.2084,-0.86845c-0.18551,-0.09746 -0.34406,-0.19387 -0.47164,-0.28883c-1.73006,-1.28781 -3.59285,-2.29024 -4.42146,-4.43102c-0.01549,-0.04001 -0.03037,-0.08033 -0.04468,-0.12093c0.02956,-0.3132 0.04468,-0.63061 0.04468,-0.95155c0,-0.55294 -0.04488,-1.0954 -0.13119,-1.62393c2.16338,-2.88751 6.13257,-2.88751 6.13257,-2.88751h2.04638c3.32719,0.39558 6.67979,-1.81827 9.87303,-2.52788c1.10981,-0.24662 2.30083,0.24662 3.41064,0c0.99264,-0.22059 1.73587,-1.14367 2.72851,-1.36426c1.10981,-0.24662 2.30083,0.24662 3.41064,0c0.99264,-0.22059 1.73579,-1.14403 2.72851,-1.36426c1.20929,-0.26827 2.47699,-0.04354 3.71548,-0.06531c5.63155,-2.25262 11.78184,-1.49958 17.78938,-1.49958c4.37554,0 8.74263,-0.03705 13.10232,0.00743c2.03217,-1.22533 4.2736,-1.22534 4.2736,-1.22534z" fill="#fffaae" stroke="none"/><path d="M206.73017,250.5837c0.1079,-22.20416 2.87354,-30.3095 -1.05573,-46.02658c-0.59238,-2.3695 -2.23164,-4.34622 -3.27685,-6.5537c-1.49322,-3.1537 -1.27738,-7.10745 -2.87044,-10.09445c-0.50875,-0.9539 -5.89579,-17.83666 -5.89579,-18.25337c0,-5.57459 -0.11106,-9.45633 1.14892,-14.71488c0.12081,-0.56866 0.21092,-1.15821 0.29245,-1.75361c0.45466,-0.5982 0.86714,-1.23426 1.26027,-1.88888c1.57819,-2.05534 3.215,-4.08464 4.07968,-6.39324c0.46088,-0.50834 0.96676,-0.9803 1.53409,-1.40192c3.25265,-2.41724 8.24565,-3.28776 11.95924,-4.5046c5.9395,-1.9462 11.92831,-3.81707 18.17801,-4.97163c0.8603,-0.15893 2.38411,-0.30381 4.05479,-0.49227c1.0745,0.02338 2.14894,0.04908 3.22333,0.07721c5.31769,0.13921 12.1541,2.74995 17.27434,3.74144c2.20639,0.42724 4.55648,0.726 6.8945,1.07773c1.88431,0.65489 4.71479,1.08191 6.22064,2.36312c0.27276,0.23208 5.44254,3.90952 5.75514,4.37092c1.50498,2.22133 2.61536,5.13716 3.88882,7.62299c0.64962,1.26809 1.35835,6.53636 1.50424,7.63696c0.27074,2.04253 0.11974,4.15097 0.14422,6.22765c0.0883,7.49077 0.64015,16.02037 -0.04039,23.4389c-0.44432,4.84351 -1.73501,9.01663 -2.92337,13.53712c-3.42737,4.98024 -5.41509,11.4411 -7.02661,17.94824c-0.27693,1.1182 -0.75671,2.16244 -0.87226,3.33417c-0.2543,2.57859 0.09834,5.2052 0.06961,7.80764c-0.05054,4.57798 1.19362,5.92536 2.01439,10.28886c0.05417,0.28798 3.0874,6.78655 4.05105,9.36354c2.19149,5.86051 3.17704,10.98747 2.42476,17.66349c1.85703,5.16694 -2.02099,20.00876 -2.42476,21.10978c-0.69692,1.90042 -2.04249,3.18896 -2.97016,4.8878c-0.27132,0.49686 -2.63759,3.52782 -3.51395,4.72883c-2.358,0.99153 -7.94293,3.5721 -8.35326,3.58075c-26.54428,0.55942 -27.93405,2.29204 -47.158,-6.41258c-3.428,-1.5522 -8.71285,-8.5672 -8.81702,-8.69837c-2.44625,-7.46736 -3.40866,-15.30886 -1.18896,-24.55952c0.83545,-1.46105 1.31293,-3.15312 1.31293,-4.95672c0,-0.54773 -0.04404,-1.08516 -0.12876,-1.60897c0.75341,-2.44834 1.21848,-4.96464 1.23091,-7.52185zM250.23652,289.46713c0.59623,0 1.18027,-0.05218 1.7478,-0.15222c7.0371,1.75928 14.00111,-2.30628 14.77536,-9.84778c1.0876,-10.59364 -3.50772,-27.57333 -14.13242,-32.88568c-3.98729,-1.99365 -10.97311,-1.40961 -14.78473,-1.25c-1.576,0.06599 -3.93132,0.64639 -5.3447,1.36755c-12.44349,6.34907 -14.3851,18.04517 -13.46157,31.13734c0.12088,1.7137 0.39765,3.50839 1.25,5c0.45454,0.79546 1.73854,0.71581 2.38637,1.36364c0.64783,0.64783 0.56818,1.93182 1.36363,2.38636c2.85811,1.63321 5.26593,1.17307 8.21406,1.25c5.9795,0.15604 11.83366,1.63079 17.9862,1.63079z" fill="#b46000" stroke="none"/><path d="M227.50083,151.42264c-4.53031,0.08736 -9.0459,-0.56736 -13.57466,-0.71446c-1.69181,-0.05495 -6.93757,0.44679 -8.75119,-0.9375c-0.08759,-0.06686 -0.168,-0.13976 -0.24234,-0.21779c-2.89223,2.87018 -5.6285,6.08684 -8.69014,9.14849c-1.23768,1.23768 -7.46727,1.30758 -8.27096,-0.09888l-3.6935,-6.46362c0.60673,-1.08819 1.97863,-3.84283 3.31394,-6.22402c0.64804,-1.15561 1.28746,-2.22326 1.82662,-2.9698c10.72936,-14.85604 29.06021,-17.89248 46.29847,-17.59649c6.09012,0.10457 12.51433,2.78382 18.44696,3.95715c7.86026,1.55457 21.10002,7.41245 27.41726,11.83821c4.0891,2.86477 7.37685,7.24469 2.66365,12.72596c-4.13547,4.8094 -11.13676,-0.04673 -14.73028,-2.5246c-3.54882,-2.44705 -11.25561,-4.44685 -15.42435,-5.48904c-1.45703,-0.36426 -2.2178,-1.61133 -3.71128,-1.93541c-0.72848,-0.15807 -1.44206,-0.31424 -2.14339,-0.46774c-4.81814,4.62916 -15.68414,7.87214 -20.73482,7.96953z" fill="#fffaae" stroke="none"/><path d="M-33.15342,314.63479c-5.3033,-5.3033 0,-10.6066 0,-10.6066l0.51859,0.28879c-1.09392,-2.71831 -0.5709,-6.04342 -0.5709,-8.92401c0,-4.28878 0,-8.57756 0,-12.86633c0,-15.72552 0,-31.45104 0,-47.17656c0,-7.10412 0.98786,-14.89513 -0.84826,-21.76926c0,0 -1.81902,-7.27607 5.45705,-9.09509c0.33764,-0.08441 0.66353,-0.14924 0.97804,-0.19611c1.9717,-1.10001 4.05756,-1.10001 4.05756,-1.10001c2.50179,0 5.00465,-0.0732 7.50536,0c0.85745,0.0251 1.73866,0.42862 2.56563,0.20063c3.80075,-1.04783 8.05401,-4.26497 11.45555,-5.94765c2.61851,-1.29533 5.61393,-1.71997 8.21987,-3.0404c1.21455,-0.61542 2.19263,-1.64042 3.41306,-2.24409c0.79664,-0.39405 1.80295,-0.26362 2.56874,-0.71471c1.20511,-0.70989 1.9146,-2.18434 3.21725,-2.6936c1.52379,-0.59572 3.27825,-0.16735 4.88534,-0.47406c1.11015,-0.21187 2.09941,-0.90113 3.21658,-1.07219c5.49602,-0.84158 11.72021,-0.09684 17.28428,-0.09684c2.0289,0.1903 4.25485,-0.32182 6.08671,0.5709c7.70729,3.75602 11.41169,12.62472 9.93465,20.7118c-0.43973,2.40761 -0.90357,4.87431 -1.9895,7.06764c-0.00587,0.01186 -4.60727,5.26643 -5.51198,5.89684c-0.16234,0.11312 -0.49315,-0.485 -0.51859,-0.28879c-0.18381,1.41773 0.55942,2.97319 0,4.28878c-0.77354,1.81913 -2.3724,3.17978 -3.77018,4.57756c-0.13991,0.13991 -0.50217,-0.48596 -0.51859,-0.28879c-0.05817,0.6984 0.56922,1.39761 0.37027,2.0696c-0.90745,3.06516 -3.29846,5.53816 -4.28878,8.57756c-0.48682,1.49412 0.28697,3.14096 0.20063,4.71002c-0.13152,2.39026 0.0998,4.8609 -0.5709,7.1589c-0.28322,0.97039 -1.73602,1.21967 -2.14439,2.14439c-0.20592,0.46629 0.50859,0.91274 0.5709,1.41865c0.13107,1.06415 0,2.14439 0,3.21658c0,10.02308 1.7711,22.3572 -3.11789,31.5723c-1.48018,2.78994 -5.36617,5.75103 -7.65637,8.04123c-3.14554,3.14554 -7.01789,8.31328 -11.01073,10.20335c-1.18141,0.55923 -2.65565,-0.10688 -3.91333,0.24909c-0.55256,0.15639 -0.7519,0.88803 -1.22971,1.20658c-1.67736,1.11824 -3.28417,2.46547 -5.20345,3.0822c-2.52501,0.81137 -5.40403,-0.60239 -7.9556,0.12118c-1.5377,0.43606 -2.73968,1.75075 -4.28878,2.14439c-1.59718,0.40585 -3.29315,0.13376 -4.93973,0.20063c-2.50179,0 -5.00357,0 -7.50536,0h-2.14439c0,0 -1.32922,0 -2.8685,-0.55958c-1.58552,1.20891 -5.76284,3.6124 -9.94017,-0.56492z" fill="#9e5400" stroke="none"/><path d="M219.73495,258.16663c0.32634,-3.19479 1.35669,-6.96607 2.28929,-10.0482c0.49559,-1.63789 0.98973,-3.28152 1.63606,-4.86599c0.23518,-0.57653 0.88693,-0.96815 0.99399,-1.58153c0.18851,-1.08006 -0.3137,-2.20275 -0.14444,-3.286c0.78803,-5.0434 2.97402,-7.45506 2.67232,-12.04406c0,-1.64596 -0.05328,-7.95087 0.20063,-9.22656c0.1985,-0.99729 1.10516,-1.74522 1.36426,-2.72851c0.58137,-2.20633 -0.20063,-6.17614 -0.20063,-8.50878c0,-1.92791 0.63318,-3.9015 0.20063,-5.78026c-0.45759,-1.98752 -1.91652,-3.62122 -2.56535,-5.55478c-0.72818,-2.17005 -0.75643,-4.56974 -1.97219,-6.55008c-0.89311,-1.45476 -2.23668,-2.68208 -2.78163,-4.29979c-1.86864,-5.54719 0.01082,-13.09109 4.29873,-16.94932c1.85606,-1.67007 4.44459,-2.36823 6.85511,-3.01899c2.91303,-0.78642 7.85894,-0.13533 10.9681,-0.13533c1.92745,0.12829 3.93024,-0.16396 5.78235,0.38488c1.37563,0.40764 2.33958,1.66862 3.58009,2.38948c1.76251,1.02419 4.26139,1.15913 5.41677,2.83857c1.76068,2.55929 2.00378,10.21721 1.53227,13.71751c-0.52129,3.86984 -2.29295,7.06275 -3.82031,10.55339c-0.64192,1.46704 -0.20584,4.35116 -0.4169,5.2602c-0.51447,2.21587 -2.1769,4.06921 -2.62472,6.2995c-0.35809,1.78341 0.34608,3.67124 0,5.45703c-0.52011,2.68381 -2.26804,5.03253 -2.767,7.72035c-0.22608,1.21788 0.20297,2.5062 -0.06531,3.71548c-0.22023,0.99272 -1.06171,1.75771 -1.36426,2.72851c-0.37084,1.18998 0.20063,2.48746 0.20063,3.73388c0,2.84477 -0.76381,7.08815 0.27618,9.84429c0.35899,0.95138 1.04768,1.76219 1.36426,2.72851c0.42795,1.30628 0.64336,3.32197 1.06494,5.22496c-4.07155,-1.51422 -10.33282,-1.00151 -13.86629,-0.85354c-1.576,0.06599 -3.93132,0.64639 -5.3447,1.36755c-8.61025,4.39324 -12.19229,11.34658 -13.27614,19.5511c0.06323,-2.88454 0.27148,-5.71646 0.51326,-8.08347z" fill="#9e5400" stroke="none"/><path d="M229.47343,297.21185c-4.29111,-0.86662 -5.47797,-5.61406 -5.47797,-5.61406c-0.66823,-2.76037 -1.9158,-5.2767 -2.57268,-8.01875c0.45405,0.15826 0.92965,0.30075 1.24985,0.62094c0.64783,0.64783 0.56818,1.93182 1.36363,2.38636c2.85811,1.63321 5.26593,1.17307 8.21406,1.25c5.9795,0.15604 11.83366,1.63079 17.9862,1.63079c0.59623,0 1.18027,-0.05218 1.7478,-0.15222c3.94738,0.98685 7.87176,0.1409 10.69355,-2.12327c-0.25307,0.7736 -0.58151,1.50886 -1.00536,2.18958c-3.19268,5.12763 -4.89903,5.19562 -9.59323,7.23933c-1.48029,0.74453 -5.782,2.95345 -6.8063,3.18608c-1.67004,0.37929 -3.42145,0.17246 -5.13379,0.20063c-3.51101,0.05777 -7.48706,0.06519 -10.38906,-2.5319c-0.09533,-0.08531 -0.18749,-0.17322 -0.27671,-0.26354z" fill="#9e5400" stroke="none"/><path d="M440.08133,300.42418c-2.39736,-0.07066 -4.79199,-0.358 -7.15544,-0.76164l-0.582,-0.7153l-0.18251,0.45628l-2.33863,-0.93545c-0.40865,-0.15259 -0.80042,-0.33979 -1.17175,-0.55805c-1.20302,0.54499 -2.73531,0.77236 -4.67823,0.38378c-7.35436,-1.47087 -5.88348,-8.82523 -5.88348,-8.82523c0.68898,-3.27905 2.16006,-5.92167 3.13391,-9.05697c1.06326,-3.42318 0.5848,-9.28722 0.25812,-12.74113c-0.27123,-2.8676 -1.35231,-4.30986 -2.67533,-6.75058c-1.94882,-3.5952 -3.11047,-7.81828 -4.71063,-11.43401c-0.97949,-2.21327 -2.31023,-4.3331 -3.13442,-6.78766c-4.51124,-5.48473 -5.47476,-10.88542 -6.00275,-17.74928c-0.53968,-7.0159 -1.33082,-14.62148 2.3764,-21.08993c2.66841,-4.65591 9.30502,-11.28172 13.72374,-14.53573c3.47745,-2.56084 7.89312,-4.62282 12.04398,-5.68683c3.72144,-0.95394 7.00537,-0.72603 10.42954,-2.09569c1.86401,0 3.65928,-0.71833 5.50183,-1.00033c4.42551,-0.67731 11.59087,-0.63416 15.96307,-0.06283c2.45517,0.32082 4.7007,1.59139 7.12097,2.11397c1.53823,0.33214 3.19344,0.14372 4.67108,0.68508c5.55009,2.03338 11.99631,6.62906 15.28742,11.59302c0.63551,0.95853 0.44827,2.27057 0.88302,3.33529c1.03429,2.53301 2.43989,4.97497 2.93293,7.66622c0.18026,0.98396 -0.13727,2.01013 0,3.001c0.3038,2.19302 1.57465,4.16383 1.97632,6.34106c0.44837,2.43038 0.59267,5.51392 0.50017,8.00267c1.02678,3.08034 0.50821,5.62363 1.02468,8.66394c0.20327,1.19661 0.84909,2.29687 1.00033,3.50117c0.74589,5.93937 -0.28497,12.02918 -1.62864,17.76841c-0.26958,1.15147 -1.9946,9.12985 -2.23228,9.7892c-0.9413,2.61128 -2.79512,4.79825 -4.09462,7.25103c-0.90276,1.70393 0.21353,3.87412 -0.04713,5.78472c-0.3138,2.30009 -1.56426,4.38806 -2.02502,6.66328c-0.7721,3.81262 0.09684,8.84632 0.09684,12.8033c0,2.18292 -0.75,6.54348 -0.27214,8.5015c0.44925,1.84082 2.47235,3.68167 1.71644,5.41921c-4.24027,9.74673 -7.64822,9.48281 -15.50675,6.93075c-1.95383,-0.63451 -3.70638,-1.71613 -5.34583,-2.97547c-0.2435,0.02981 -0.48206,0.06333 -0.71434,0.10195c-3.62754,0.60315 -8.87482,-2.33361 -12.01291,-3.71397c-2.78368,-2.60884 -6.18611,-4.76268 -9.78216,-6.41176c-0.30964,-0.05171 -0.61524,-0.11926 -0.91266,-0.21968c-0.80279,-0.27105 -1.64496,-0.69952 -2.5027,-1.17706c-0.77088,-0.27868 -1.54443,-0.53446 -2.31673,-0.76691c-0.92416,-0.27815 -1.83305,-0.49665 -2.73171,-0.70534zM490.07113,262.65312c2.40695,-1.82611 3.96144,-4.71733 3.96144,-7.97162c0,-2.61547 -1.0041,-4.99642 -2.64784,-6.7784c0,-9.06582 -1.096,-19.03636 -6.01808,-26.77104c-7.3605,-11.5665 -29.67194,-18.28209 -40.86167,-9.19295c-8.14668,6.61734 -13.82921,20.39389 -14.16174,30.82712c-0.11516,3.61323 -0.63485,10.05642 1.25,13.82613c4.61586,9.23172 21.21779,7.52864 29.4914,7.64784c0.99578,0.01435 1.87092,0.69502 2.83707,0.93655c2.44328,0.61082 16.44526,-0.12772 20.11085,-0.49525c1.14138,0 2.23809,-0.19122 3.25985,-0.54337c0.60718,-0.17231 1.19339,-0.39907 1.74015,-0.70663c0.38743,-0.21793 0.7307,-0.48034 1.03856,-0.77838z" fill="#9e5400" stroke="none"/><path d="M264.73163,274.12233c3.51801,1.01518 3.42453,4.51935 3.76083,6.75791l-0.65838,1.29199c-0.05863,1.06484 -0.39474,2.30222 -0.97849,3.76189c-1.2652,3.16365 -7.9647,3.94156 -11.20358,4.48148c-8.2065,1.36802 -15.92739,0.50588 -23.79721,-0.4312c-2.3631,-0.28138 -11.62059,-2.21091 -12.1222,-4.30136l-1.27766,-2.8442l-0.22313,-0.19843c-0.81092,-2.55176 -4.22566,-7.18944 0.13642,-9.30921c1.34708,-0.65462 2.95461,0.8319 4.43425,1.24204c0.82428,0.22848 1.65162,0.44921 2.47743,0.67381c0,0 0.06274,0.01743 0.1644,0.05513c3.91667,0.10563 7.58973,2.73401 11.5838,2.82648c5.51606,0.12771 11.03694,0.06506 16.55458,0c2.16358,-0.02551 3.79994,-1.91317 5.95596,-2.11273c1.74511,-0.8442 3.39925,-2.41122 5.19298,-1.89361z" fill="#fffaae" stroke="none"/><path d="M427.3668,249.67692c0.09408,-1.50076 -0.16719,-3.4101 0.95736,-4.40836c2.97157,-2.63785 6.85311,0.25874 9.96736,1.82192c0.12791,0.04036 0.25476,0.08406 0.38072,0.13072c0.51631,0.15349 1.00934,0.36108 1.47251,0.6162c0.01088,0.00278 0.02174,0.00552 0.03258,0.00821l1.14062,0.51289c0,0 0.41372,0.20686 0.79627,0.62059c0.90783,0.4892 1.85539,0.93823 2.91041,1.19375c4.65073,1.12641 11.15818,3.14325 15.88121,3.26158c7.56565,0.18955 14.91127,0.38592 22.50211,0.32616c3.09933,-0.0244 4.73664,-3.02665 7.56017,-3.70593c2.44956,-0.58932 5.19572,0.5912 7.29204,1.98874c1.52558,1.01705 0.5211,1.88207 0.7453,2.73275c0.40144,1.52326 1.33082,2.98644 1.24344,4.55929c-0.311,5.59794 -11.41325,8.85183 -15.37359,9.24398c-4.35204,0.43094 -8.7464,0.27544 -13.11871,0.18118c-9.37848,-0.20218 -16.67196,-1.57716 -25.5137,-3.27993c-2.17665,-0.41918 -4.91991,-0.08996 -6.72995,-1.45166c-1.78144,-1.34019 -5.61002,-1.09281 -6.7879,-3.15411l-2.87583,-5.0327c-1.59973,-1.58525 -2.65261,-3.45025 -2.48242,-6.16525z" fill="#fffaae" stroke="none"/><path d="M308.6244,291.931c-0.25817,0.04656 -0.43381,0.04656 -0.43381,0.04656c-3.91548,-0.08092 -10.50475,-1.46571 -7.45499,-7.67791c1.35661,-2.76335 4.64059,-1.83452 6.77999,-2.3107c1.64607,-0.36638 2.25507,-2.62863 3.76541,-3.37872c1.40344,-0.697 3.09015,-1.0453 4.63517,-0.78381c1.44116,0.24391 2.7147,1.21682 3.78771,2.20934c0.59096,0.54663 0.42131,1.63021 0.98478,2.20515c1.39668,1.4251 4.79738,-0.08411 5.74856,1.67001c0.91865,1.6941 0.40716,4.03863 -0.45179,5.76377c-0.64218,1.28978 -2.2845,1.80863 -3.60523,2.38448c-3.62506,1.58057 -8.53037,0.40412 -12.34367,0.38024c-0.40841,-0.2153 -0.90092,-0.36872 -1.41213,-0.50839zM320.74778,287.34091c-0.06513,0.0072 -0.13005,0.01241 -0.19485,0.01561c-0.00316,0.01434 -0.00645,0.02864 -0.00986,0.04289c0.02506,-0.00641 0.0501,-0.01291 0.07511,-0.01949c0.04372,-0.01151 0.08688,-0.02461 0.12959,-0.03901z" fill="#9e5400" stroke="#9e5400"/><path d="M328.74907,288.72513c2.76644,-0.23487 7.4536,4.44163 5.84695,7.60213c-0.79131,1.55662 -3.18852,1.42489 -4.78277,2.13734l-3.23694,-1.14423c0,0 -0.05439,-0.02175 -0.14317,-0.06692c-0.04576,0.0025 -0.09185,0.00376 -0.13823,0.00376c-1.38071,0 -2.5,-1.11929 -2.5,-2.5c0,-0.998 0.58479,-1.85942 1.43041,-2.26029l1.76819,-0.8841c0.54008,-1.08283 0.62899,-2.79205 1.75556,-2.8877z" fill="#9e5400" stroke="#9e5400"/><path d="M6.54308,154.94018c-6.21336,-0.02079 -10.91092,-0.70479 -16.47392,-3.74648c-0.29796,-3.09377 -1.02428,-6.53837 -0.7251,-9.67157c0.11744,-1.2299 -0.14997,-2.69285 0.62762,-3.65294c1.14959,-1.41941 2.83624,-2.91042 4.66252,-2.87881c1.24155,0.02148 1.20053,2.27665 2.2114,2.99778c0.49736,0.35481 1.22096,-0.05792 1.82921,-0.11529c1.90073,-0.17928 3.90715,-0.60104 5.83121,-0.31127c1.37684,0.20736 2.85823,0.32002 4.04231,1.05257c1.75181,1.08378 2.09681,3.74258 3.83767,4.84388c0.76573,0.48441 1.89905,0.13944 2.63487,0.66817c1.09442,0.78641 2.13297,1.83113 2.60174,3.09464c2.9377,7.91823 -4.6229,8.04596 -9.80165,8.04596c0,0 -0.64373,0 -1.27789,-0.32665z" data-paper-data="{&quot;index&quot;:null}" fill="#9e5400" stroke="#9e5400"/><path d="M463.95767,136.93543c1.38675,2.08013 -0.69338,3.46688 -0.69338,3.46688l-0.38879,0.14697c-0.88462,0.9149 -1.48581,2.23947 -2.65386,2.74472c-1.86611,0.8072 -8.16927,0.18913 -8.82318,-2.39835c-1.65901,-6.56456 5.55112,-5.64046 9.08896,-4.65108l0.00337,-0.00251c0,0 2.08013,-1.38675 3.46688,0.69338z" data-paper-data="{&quot;index&quot;:null}" fill="#9e5400" stroke="#9e5400"/><path d="M443.30053,144.70947l-0.22183,0.0984c-1.11247,0.4262 -1.59294,0.78567 -2.85457,0.52268c-0.77631,-0.16182 -1.85649,-0.10884 -2.23925,-0.80335c-1.32839,-2.41033 0.74865,-1.95482 1.33532,-3.01842c0.19418,-0.35204 -0.0112,-0.84913 0.20394,-1.18877c0.37583,-0.59332 0.86254,-1.17587 1.49167,-1.48806c1.83167,-0.90895 4.24646,0.3073 4.74961,2.29473c0.19118,0.75514 -0.33457,2.26985 -0.5689,3.05627c0,0 -0.32989,1.09963 -1.42952,0.76974c-0.1987,-0.05961 -0.35074,-0.14436 -0.46647,-0.24321z" fill="#9e5400" stroke="#9e5400"/><path d="M101.31444,313.27054c-0.7023,0.28927 -1.96258,0.52263 -2.95289,-0.86381c-0.97434,-1.36408 -0.3807,-2.46683 0.11624,-3.04541c0.06523,-0.56371 0.35978,-1.17359 1.13147,-1.68805c0.42108,-0.28072 0.81374,-0.41937 1.17224,-0.46198c0.97767,-1.21799 1.47517,-2.47464 2.84122,-3.91337c3.76171,-3.96185 12.42805,-7.3032 17.45098,-3.96548c0.73754,0.4901 0.28393,1.99802 1.05147,2.43965c0.56245,0.32362 1.1245,-0.9136 1.76637,-0.81831c3.70758,0.55042 7.98169,2.23187 5.24332,7.55315c-0.68362,1.32843 -2.76545,1.14213 -4.19184,1.5865c-4.18304,1.30319 -9.09894,-0.60093 -12.88331,1.388c-0.8685,0.794 -1.5036,1.96901 -2.60549,2.38201c-0.62688,0.23496 -6.09659,0.1903 -7.25797,0.1903z" fill="#9e5400" stroke="#9e5400"/></g></g></svg>