<svg version="1.1" xmlns="http://www.w3.org/2000/svg" xmlns:xlink="http://www.w3.org/1999/xlink" width="216.0635" height="125.7073" viewBox="0,0,216.0635,125.7073"><g transform="translate(-152.29977,-166.8635)"><g data-paper-data="{&quot;isPaintingLayer&quot;:true}" fill-rule="nonzero" stroke="none" stroke-width="0" stroke-linecap="butt" stroke-linejoin="miter" stroke-miterlimit="10" stroke-dasharray="" stroke-dashoffset="0" style="mix-blend-mode: normal"><path d="M166.08083,251.58897l1.58114,-0.40176l1.85411,7.02911l-1.58114,0.40176z" fill="#9e5400"/><path d="M164.44596,195.88652l1.43469,-0.78097l3.59229,6.31043l-1.43468,0.78097z" fill="#9e5400"/><path d="M152.29977,167.59602l1.48436,-0.73252l3.49823,6.26289l-1.48436,0.73253z" fill="#9e5400"/><path d="M153.7349,174.59498l5.38487,-2.06217l9.22536,21.92478l-5.38488,2.06218z" fill="#fda824"/><path d="M162.68038,222.54375l1.6044,0.29558l-1.25214,7.16089l-1.60438,-0.29556z" fill="#9e5400"/><path d="M166.43751,199.22566l5.57033,1.4007l-5.44642,23.24056l-5.57032,-1.4007z" fill="#fda824"/><path d="M158.33773,229.71943l5.55852,-1.42771l6.14578,23.08381l-5.55852,1.42771z" fill="#fda824"/><path d="M330.83502,278.20494l-1.22278,-1.07922l4.78849,-5.47205l1.22278,1.07922z" fill="#9e5400"/><path d="M311.43749,292.5708l-3.01595,-4.88036l20.304,-12.59815l3.01595,4.88035z" fill="#fda824"/><path d="M344.93759,252.27528l-1.59681,-0.33178l1.44904,-7.12554l1.59681,0.33178z" fill="#9e5400"/><path d="M336.43653,274.20863l-5.1999,-2.42381l10.05607,-21.67582l5.1999,2.42381z" fill="#fda824"/><path d="M349.61863,221.8468l-1.4022,-0.83267l3.71671,-6.25031l1.40219,0.83268z" fill="#9e5400"/><path d="M348.33771,246.56046l-5.6809,-0.80193l3.41187,-23.64949l5.6809,0.80193z" fill="#fda824"/><path d="M364.64657,196.06575l-1.4022,-0.83267l3.71671,-6.25031l1.40219,0.83268z" fill="#9e5400"/><path d="M354.60592,217.65615l-4.99525,-2.8219l11.81591,-20.76832l4.99525,2.8219z" fill="#fda824"/></g></g></svg>