<svg version="1.1" xmlns="http://www.w3.org/2000/svg" xmlns:xlink="http://www.w3.org/1999/xlink" width="159.0909" height="437.27272" viewBox="0,0,159.0909,437.27272"><g transform="translate(-9.77274,11.36364)"><g data-paper-data="{&quot;isPaintingLayer&quot;:true}" fill-rule="nonzero" stroke-linejoin="miter" stroke-miterlimit="10" stroke-dasharray="" stroke-dashoffset="0" style="mix-blend-mode: normal"><path d="M12.27274,423.40909v-432.27272h154.0909v432.27272z" fill="none" stroke="#ffffff" stroke-width="5" stroke-linecap="butt"/><g fill="#ffffff" stroke="none" stroke-width="0.5" stroke-linecap="butt"><path d="M112.37113,105.22749c12.17098,-3.65853 6.51645,-14.75244 2.10469,-23.53748c-10.49405,-8.8578 -31.00534,-14.09024 -44.81042,-8.53698c-6.76123,2.71979 -12.89701,18.52664 -11.23513,25.27046c1.20849,4.90434 7.17835,7.55418 10.94605,9.94807c0,0 3.05413,1.94621 2.53602,5.149c0.32873,1.39475 0.0681,2.62607 0.0681,2.62607c-0.28846,1.36281 -4.16739,14.92943 -2.91664,15.45799c1.4426,0.60965 3.53362,2.03621 4.61133,0.89986c1.44949,-1.52839 0.6318,-5.13568 2.65083,-5.73645c3.29836,-0.98137 6.92731,0.70135 10.14174,1.93017c2.22038,0.8488 3.46194,6.41386 5.24054,4.83671c1.75313,-1.55453 1.91537,-5.46439 4.25481,-5.59531c3.4888,-0.19517 9.31455,8.31061 9.31086,4.81635c-0.00763,-7.39 -2.03,-13.73232 -0.42483,-21.56826l0.142,-0.67089c0,0 0.93474,-4.4161 5.14326,-4.27755zM47.97061,100.68579c-3.16557,-11.83313 6.37982,-32.6188 17.44072,-37.35234c18.36224,-7.85834 43.79469,-0.41559 57.44853,11.70577c8.29379,15.16445 13.23705,33.51567 -7.2183,40.37796l-0.58981,0.28485c-0.26619,6.4392 2.23926,17.18183 0.1464,21.05854c-3.99963,7.40845 -11.22628,9.14133 -18.12327,5.27851c-0.01916,0.53472 -0.17621,0.95195 -0.67011,1.11206c-3.18907,1.03361 -6.81883,-0.03536 -9.99637,-1.10386c-2.47111,-0.83091 -4.3951,-8.05835 -5.40383,-5.65435c-4.29245,10.22938 -20.35166,7.47115 -22.96608,-4.51267c-0.82929,-3.8015 1.7437,-11.31606 3.02479,-16.11702c-5.84393,-3.75313 -11.08415,-7.57026 -13.09246,-15.07748zM96.88947,139.74121c0.21403,-0.92867 0.49292,-1.66939 0.21593,-1.16105c-0.17659,0.32413 -0.22468,0.72791 -0.21593,1.16105z"/><path d="M83.6105,99.95854c0.21008,1.23062 -0.04049,2.70418 -1.41075,4.24228c-3.55918,3.99529 -7.55455,0.43609 -7.55455,0.43609c-0.62876,-0.56143 -1.58395,-1.38345 -2.65475,-2.33956c-0.19645,-0.14956 -0.37416,-0.31099 -0.53504,-0.48056c-2.83852,-2.56492 -6.21299,-5.88056 -6.52696,-7.79118c-1.28711,-7.82994 3.19854,-16.21383 12.66622,-14.40119c10.30305,1.97266 11.7412,14.98217 6.0159,20.33403z"/><path d="M105.26947,82.12544c9.39022,2.17887 10.09413,11.66116 5.74493,18.29819c-1.06132,1.61942 -5.48972,3.28351 -9.12406,4.47841c-0.21574,0.08988 -0.44366,0.16543 -0.68379,0.2225c-1.36632,0.4403 -2.57271,0.80469 -3.37501,1.06326c0,0 -5.09484,1.63517 -6.72996,-3.45963c-0.62953,-1.96139 -0.26159,-3.40997 0.42912,-4.45006c-3.06599,-7.21267 3.52011,-18.52372 13.73878,-16.15265z" data-paper-data="{&quot;index&quot;:null}"/></g><path d="M32.5,107.65782v91" fill="none" stroke="#ffffff" stroke-width="1" stroke-linecap="round"/><path d="M145.5,222.65782v91" fill="none" stroke="#ffffff" stroke-width="1" stroke-linecap="round"/><path d="M73.4011,241.65782v44" fill="none" stroke="#ffffff" stroke-width="0.5" stroke-linecap="round"/><path d="M150.4011,61.65782v44" fill="none" stroke="#ffffff" stroke-width="0.5" stroke-linecap="round"/><path d="M45.31019,278.65782v74" fill="none" stroke="#ffffff" stroke-width="0.5" stroke-linecap="round"/><path d="M119.5,219.65782v91" fill="none" stroke="#ffffff" stroke-width="2" stroke-linecap="round"/><path d="M53.5,85.65782v91" fill="none" stroke="#ffffff" stroke-width="2" stroke-linecap="round"/></g></g></svg>