<svg version="1.1" xmlns="http://www.w3.org/2000/svg" xmlns:xlink="http://www.w3.org/1999/xlink" width="132.56726" height="183.13229" viewBox="0,0,132.56726,183.13229"><g transform="translate(-197.68023,-60.26227)"><g data-paper-data="{&quot;isPaintingLayer&quot;:true}" fill-rule="nonzero" stroke="none" stroke-linecap="butt" stroke-linejoin="miter" stroke-miterlimit="10" stroke-dasharray="" stroke-dashoffset="0" style="mix-blend-mode: normal"><path d="" fill="#525252" stroke-width="0.5"/><path d="M269.43453,231.62513c-1.53753,1.01775 -2.83175,0.96176 -3.83451,0.52233c-1.41805,0.30651 -3.05418,0.03205 -4.50495,0.1902c-1.14798,0.12515 -2.32442,0.17247 -3.51198,0.17827c-6.21996,2.57396 -11.37807,5.88479 -17.94875,1.99261l-1.99634,-0.55061c-1.51453,-0.37918 -2.74097,-1.59516 -3.25882,-3.18405c-0.42204,0.25061 -0.7324,0.41417 -0.86532,0.44285c-6.7145,1.44875 -11.24812,2.01589 -8.30942,-8.7627c0.57229,-2.09904 2.90566,-2.99484 4.44178,-4.38501c1.62996,-1.47509 3.44107,-2.52329 5.30154,-3.43786c-4.63079,1.03647 -9.85947,1.64861 -11.72685,-4.88811c-1.41031,1.1918 -3.5113,2.66446 -5.5811,3.24451c0.06444,1.21576 -0.30478,2.62527 -1.73647,3.91757c-3.50767,3.16619 -6.37759,-0.7036 -6.37759,-0.7036c-1.15078,-1.63546 -2.64565,-3.037 -3.45234,-4.90636c-0.58591,-1.35775 -0.85696,-2.93627 -0.97796,-4.55575c-1.34887,-1.67711 -1.26328,-4.16944 -0.07654,-7.95468c-0.00884,-4.90084 -0.00784,-9.8022 0.00425,-14.70289c0.01245,-5.04724 0.02627,-10.16108 3.57006,-14.03264c6.92167,-7.56185 19.03704,-4.92085 27.83864,-4.92085c4.97343,0 10.21989,-0.08032 15.01836,1.39535h2.37237c2.50303,0 4.53213,2.23857 4.53213,5c0,1.51057 -0.60719,2.86469 -1.56699,3.7815l-2.88849,2.78835c-0.16659,1.88834 -2.35997,3.16868 -3.25006,4.90475c-0.97494,1.90157 -1.40692,4.13054 -2.52956,5.93023c-2.76331,4.42986 -6.35618,8.15539 -9.46376,12.29829c-0.77031,1.02695 -1.5615,2.03461 -2.3452,3.04919c2.10883,-0.41556 4.23288,-0.74276 6.36172,-0.99307c2.51475,-0.08029 6.03397,-2.46061 7.54425,-0.24086c0.08006,0.11766 0.15458,0.23774 0.22385,0.3601c0.35738,-0.30192 0.71701,-0.60206 1.07806,-0.90106c1.92941,-2.4864 3.8181,-4.82463 5.36655,-7.72207c0.89606,-1.6767 3.24801,-8.00367 4.68508,-8.86063c2.48798,-1.48364 5.82405,-3.31351 8.31841,-1.843c3.85438,2.2723 2.04574,8.24336 1.08394,11.69105c0.22304,0.59117 0.34619,1.23973 0.34619,1.92001v2.7907c-0.03433,6.72761 -0.74234,13.59776 -1.28022,20.29613c-0.00804,0.10019 -0.01505,0.20026 -0.02114,0.30022c0.24981,1.38687 0.43865,2.68278 0.59587,3.62551l0.37583,0.06613c0,0 2.33176,4.28746 -1.55451,6.85995z" fill="#8f3e15" stroke-width="0.5"/><path d="M270.87294,184.68918c0,10.78294 -0.16096,21.60003 0.36927,32.36562c0.41659,3.53949 1.21542,8.24477 -0.84067,11.43693c-2.50971,3.89643 -8.45986,3.83723 -12.15542,3.8421c-10.88625,0.01437 -21.77258,0 -32.65883,0c0,0 -0.36354,0 -0.80608,-0.15973c-0.53501,0.47104 -1.75749,1.2317 -3.06901,-0.1069c-1.75621,-1.79246 -0.15965,-3.76417 -0.15965,-3.76417c3.54399,-4.37417 6.92095,-9.78805 11.54917,-12.85748c1.55294,-1.0299 3.34482,-1.58097 4.84454,-2.70592c4.13542,-3.10202 7.30732,-7.59745 11.26883,-10.98638c3.72204,-3.18406 7.07154,-5.83828 10.02582,-9.98851c2.59969,-3.64836 5.00401,-7.4423 7.59507,-11.08511l1.19055,-1.56176c0,0 1.54463,-2.02319 3.34669,-0.28903c1.80206,1.73416 0.25744,3.75734 0.25744,3.75734l-0.59193,0.77403zM255.77773,227.00444c2.5431,0 5.13087,0.27337 7.63385,-0.35883c0.07087,-0.0179 2.86998,-0.82806 3.18584,-1.34162c1.101,-1.79018 0.14151,-5.89127 -0.08116,-7.74883c-0.44752,-9.0052 -0.42257,-18.04347 -0.39986,-27.07027c-1.04082,1.54776 -2.08763,3.09185 -3.16875,4.60909c-3.2052,4.49376 -6.82831,7.45372 -10.86064,10.90264c-3.25591,2.78484 -5.90047,6.19159 -9.03805,9.09887c-2.40372,2.22728 -4.88217,3.22906 -7.50741,4.92162c-2.58123,1.66419 -4.75361,4.29497 -6.78392,6.98734c9.00671,0 18.0134,0 27.0201,0z" fill="#763312" stroke-width="0.5"/><path d="M208.67416,219.14701c-2.40751,-0.22487 -2.20687,-2.92321 -2.20687,-2.92321c0.20373,-2.71658 0.61901,-5.93446 0.26298,-8.66089c-0.27723,-2.12301 -1.08456,-4.14323 -1.26141,-6.27967c-0.51456,-6.21625 -0.00977,-12.76625 -0.00977,-19.01363c0,-4.64872 -1.38324,-10.5557 3.24106,-13.14753c2.00181,-1.12197 6.9062,-0.20611 9.17313,-0.20611c9.65042,0 19.68869,-0.19311 29.17533,1.96108h2.56939v0c1.33424,0 2.41584,1.21228 2.41584,2.70771c0,0.63532 -0.19522,1.21954 -0.52211,1.68142l-1.73649,2.50235l-0.05953,-0.0519c-0.08722,0.15166 -0.17886,0.30036 -0.27557,0.44572c-0.70469,1.05911 -2.18958,1.95084 -3.73061,2.74428c0.56796,1.74243 -0.89097,2.96881 -0.89097,2.96881l-2.07491,1.74169c-5.10165,3.64164 -8.30092,7.91765 -12.35078,12.78161c-3.16669,3.80324 -7.14877,7.06031 -10.91401,10.15193c-0.20367,0.34748 -0.40964,0.69222 -0.61853,1.03359c-1.53244,2.50425 -3.35636,4.65216 -4.86782,7.18026l-0.23327,0.11587l0.07326,0.0821l-1.74972,1.9611c-0.43718,0.49 -1.04114,0.79307 -1.70826,0.79307c-0.55202,0 -1.06079,-0.20751 -1.4676,-0.55673c-0.07521,-0.00123 -0.15277,-0.00547 -0.23277,-0.01294zM211.65075,208.38714c1.32631,-1.66202 3.0254,-3.14891 4.77712,-4.52561c2.75553,-4.88728 5.2837,-10.04258 9.03367,-14.03365c3.03492,-3.23004 7.33052,-6.58521 10.79564,-9.2337c1.36345,-1.04212 4.20009,-3.53713 6.81002,-4.99678c-8.29243,-1.35913 -16.85377,-1.26601 -25.1939,-1.26601c-2.29815,0 -5.08374,-0.52771 -7.32413,-0.20611c-0.75449,0.10831 -0.29068,1.68943 -0.25837,2.5412c0.10925,2.87967 0,5.80268 0,8.68484c0,5.07686 -0.40932,10.39337 -0.00976,15.44558c0.16292,2.06006 0.98234,3.99904 1.23818,6.0472c0.06296,0.50404 0.10548,1.01965 0.13153,1.54304z" fill="#763312" stroke-width="0.5"/><path d="M261.02662,163.97499l12.54366,14.59898l-57.49639,60.88439l-12.54366,-14.59898z" fill="#af4c00" stroke-width="0"/><path d="M197.79179,173.54667v-11.96997h82.40762v11.96997z" fill="#af4c00" stroke-width="0"/><path d="M197.76102,243.39456v-12.38867h82.40763v12.38867z" fill="#af4c00" stroke-width="0"/><path d="M197.68023,172.49571h12.27528v59.21053h-12.27528z" fill="#af4c00" stroke-width="0"/><path d="M268.87725,172.49571h11.2294v59.21053h-11.2294z" fill="#af4c00" stroke-width="0"/><path d="M197.7881,161.83781v-3.54251h82.29768v3.54251z" fill="#a24600" stroke-width="0"/><path d="M248.10356,240.74805c0,1.25 -1.13303,1.25 -1.13303,1.25c-7.37874,0 -15.07371,0 -22.45245,0c-3.7845,0 -7.78023,0.82482 -11.52278,0.33951c-2.73849,-0.35511 -5.42154,-1.22345 -8.24267,-0.87491c-1.73865,0.21481 -3.27341,0.87062 -5.05875,0.88428c0,0 -1.13303,0 -1.13303,-1.25c0,-1.25 1.13303,-1.25 1.13303,-1.25c1.6619,0.01586 3.11639,-0.66189 4.74444,-0.86012c3.03179,-0.36915 5.88945,0.4869 8.83385,0.86949c3.64004,0.47297 7.55963,-0.35824 11.24591,-0.35824c7.37874,0 14.75748,0 22.13622,0h0.31623c0,0 1.13303,0 1.13303,1.25z" fill="#9d4400" stroke-width="0.5"/><path d="M279.72674,240.74805c0,1.25 -1.13303,1.25 -1.13303,1.25c-3.63667,0 -7.43144,0 -11.06811,0c0,0 -1.13303,0 -1.13303,-1.25c0,-1.25 1.13303,-1.25 1.13303,-1.25c3.63667,0 7.27333,0 10.90999,0h0.15812c0,0 1.13303,0 1.13303,1.25z" fill="#9d4400" stroke-width="0.5"/><path d="M208.4726,169.1266c0,1.25 -1.13303,1.25 -1.13303,1.25c-2.3959,0 -5.37458,0 -7.77047,0c0,0 -1.13303,0 -1.13303,-1.25c0,-1.25 1.13303,-1.25 1.13303,-1.25c2.3959,0 4.79179,0 7.18769,0h0.58279c0,0 1.13303,0 1.13303,1.25z" fill="#9d4400" stroke-width="0.5"/><path d="M278.98964,169.76956c0,1.25 -1.13303,1.25 -1.13303,1.25c-4.72704,0 -10.81391,0 -15.54094,0c-8.35326,0 -16.70652,0 -25.05978,0c0,0 -1.13303,0 -1.13303,-1.25c0,-1.25 1.13303,-1.25 1.13303,-1.25c8.35326,0 16.70652,0 25.05978,0c4.72704,0 9.45407,0 14.18111,0h1.35983c0,0 1.13303,0 1.13303,1.25z" fill="#9d4400" stroke-width="0.5"/><path d="M208.86112,228.99231c0,1.25 -1.13303,1.25 -1.13303,1.25c-2.46065,0 -5.11556,0 -7.57621,0c0,0 -1.13303,0 -1.13303,-1.25c0,-1.25 1.13303,-1.25 1.13303,-1.25c2.46065,0 4.9213,0 7.38195,0h0.19426c0,0 1.13303,0 1.13303,1.25z" fill="#9d4400" stroke-width="0.5"/><path d="M278.98964,228.77799c0,1.25 -1.13303,1.25 -1.13303,1.25c-1.23032,0 -2.84917,0 -4.0795,0c0,0 -1.13303,0 -1.13303,-1.25c0,-1.25 1.13303,-1.25 1.13303,-1.25c1.23032,0 2.46065,0 3.69097,0h0.38852c0,0 1.13303,0 1.13303,1.25z" fill="#9d4400" stroke-width="0.5"/><path d="M264.53508,182.55634c0.09149,-0.36939 0.35039,-0.89204 1.08303,-0.89204c1.13303,0 1.13303,1.25 1.13303,1.25l-0.33186,1.0982c-6.6766,7.3481 -13.5529,14.7653 -20.28607,22.15738c-1.62653,1.1844 -2.6116,2.95886 -4.09436,4.29954c-3.66035,3.30959 -7.38739,6.88748 -10.789,10.6286c-1.46539,1.61165 -2.47479,3.12927 -4.24413,4.43371c0,0 -0.94274,0.69338 -1.57123,-0.34669c-0.62849,-1.04006 0.31425,-1.73344 0.31425,-1.73344c1.66689,-1.22279 2.53192,-2.60904 3.91487,-4.13894c3.44539,-3.8115 7.24406,-7.44778 10.96832,-10.80303c1.46758,-1.32217 2.45406,-3.07753 4.06463,-4.27311c6.54691,-7.26845 13.31468,-14.47183 19.83852,-21.68018z" fill="#9d4400" stroke-width="0.5"/><path d="M219.09683,98.04993c-0.00942,0.03088 -0.02032,0.06191 -0.03277,0.0931c-0.50492,1.26523 -2.54769,0.23664 -2.54769,0.23664c-1.18104,-0.6221 -2.49827,-1.0709 -3.54314,-1.8663c-2.43752,-1.85554 -3.4157,-4.84374 -4.2375,-6.86422c-2.10288,-5.17025 -0.32484,-9.90245 1.27164,-13.77145c0.38667,-0.93708 -0.17391,-2.3082 0.34608,-3.173c0.29731,-0.49448 1.13039,-0.6169 1.51057,-1.06025c1.05301,-1.22803 1.7788,-2.53734 3.01998,-3.68816c3.62169,-3.35676 9.52746,-3.92855 16.1383,-3.91101c2.46988,0.00655 4.41562,-0.54445 6.70548,-0.7498c6.97388,-0.6254 15.7719,1.04908 23.7099,3.24029c1.75588,0.65564 3.41708,1.47154 5.0887,2.2603c0.34886,-0.16614 0.84914,-0.19033 1.42112,-0.03333l2.51764,0.69099l0.01036,0.09467l0.28218,-0.00008c1.8775,0.87734 3.1749,1.45071 4.45165,2.09897c0.10098,0.02603 0.20086,0.05233 0.29945,0.07895l0.01357,-0.20706l2.51483,0.9098c0.33215,0.11679 0.64739,0.28267 0.9263,0.47964c0.66873,0.17828 1.33879,0.35363 2.01223,0.53988c4.2617,1.17859 7.02804,3.24721 11.00866,5.32103c1.30806,0.68148 2.70843,0.98342 4.06104,1.49334c4.58717,1.72932 11.76357,5.5491 15.29192,8.86365c1.90263,1.78734 2.17561,3.4978 4.2086,5.34377c1.4466,1.34749 3.19606,2.83828 4.02914,4.36466c0.63867,1.17017 -0.15143,2.04662 0.8017,3.27264c1.00521,1.29301 2.69567,2.42992 3.53845,3.7432c1.25018,1.94812 1.77584,4.12526 2.61369,6.06184c1.53768,3.5541 3.35272,7.74859 3.08482,10.95647c-0.30581,3.66193 -3.28046,5.95054 -5.92449,8.21104c-1.27676,-0.02327 -2.43666,0.46371 -3.83029,-0.06982c-1.92436,-0.7367 -2.65368,-2.84214 -4.03997,-4.24103c-1.07742,-1.0872 -2.81303,-1.71367 -4.03799,-2.72484c-0.47911,-0.3955 -0.72405,-0.9423 -1.26966,-1.27357c-2.04041,-1.23879 -4.95008,-0.75033 -6.96574,-2.13956c-3.61575,-2.49205 -2.28666,-4.31528 -5.16014,-6.37829c-1.36803,-0.98217 -4.08476,-1.55425 -5.52522,-1.94833c-1.57169,-0.42998 -3.15483,-0.95608 -4.67509,-1.33021c0.12184,0.20764 0.19978,0.41999 0.22238,0.62644c0.09222,0.84255 -0.77214,1.26782 -1.93064,0.94986l-2.83237,-0.77737c-0.44955,-0.15922 -0.89477,-0.27689 -1.33587,-0.36527l-0.88101,0.43346v0c-0.34937,0.1719 -0.85508,0.19872 -1.43434,0.03973c-1.15848,-0.31796 -2.17238,-1.25873 -2.26461,-2.10129c-0.02059,-0.1881 0.00649,-0.35538 0.07388,-0.49826c-3.67713,-1.01934 -7.27411,-2.10208 -10.93067,-3.4549c-1.64263,-0.60772 -3.21395,-1.60794 -4.85583,-2.22397c-2.92267,-1.09657 -7.45761,-2.41188 -9.74504,-1.81456c-1.35819,0.35468 -4.33078,2.56281 -5.80102,2.22425c-1.6657,-0.38357 -2.87743,-2.34994 -4.54916,-3.0357c-1.9236,-0.51698 -4.20476,-1.35333 -6.04027,-1.48819c-2.26007,-0.16606 -3.38782,1.26915 -5.41672,1.33531c-3.03253,0.0989 -6.15824,-2.08589 -9.36931,-2.27881z" fill="#3d850c" stroke-width="0.5"/><path d="M210.40929,87.12089c1.80747,-2.53184 4.52939,-5.02535 8.70416,-5.39786c1.42042,-0.12675 4.08493,0.24556 5.74452,0.74776c0.22211,0.06721 2.68261,1.34428 3.26565,1.14391c1.07458,-0.3693 1.00352,-1.70012 2.01688,-2.13178c4.23957,-1.80594 13.66482,0.46358 19.3115,3.55754c2.78635,0.78284 3.53723,0.158 6.16349,0.22767c3.54401,0.09401 10.32482,1.93962 14.09158,3.67948c1.49523,0.69066 3.5734,2.2449 4.77317,3.26083c0.37142,0.3145 0.53298,0.79992 0.98737,1.006c1.22879,0.55729 4.45146,-0.06132 5.7416,0.18783c6.81767,1.31664 14.47696,5.25366 20.35726,9.49463c1.3493,0.88473 2.34259,2.12404 3.7412,2.94124c1.67526,0.97886 3.42197,0.43247 5.13451,0.65301c1.8518,0.23848 4.74036,0.63544 6.72377,1.77027c3.91612,2.24066 7.70366,7.38424 9.75692,10.40456c1.52606,2.24482 2.55027,5.80249 1.92523,7.68508c-0.40839,1.23008 -1.7221,1.40704 -2.39299,2.42424c-0.97155,1.47299 -2.56876,4.24314 -6.52575,2.73543c-1.25533,-0.47831 -1.98913,-1.73836 -2.98371,-2.60753c-1.97095,-2.80356 -5.59234,-6.53094 -9.56799,-7.88481c-1.19836,-0.4081 -4.15772,-0.95392 -5.07132,-1.5519c-1.0519,-0.68851 -1.47628,-1.75201 -2.36099,-2.56902c-3.28877,-3.03715 -8.01538,-4.71631 -12.19817,-5.59947c-0.16544,0.2256 -0.45125,0.3699 -0.81574,0.41236l-2.01572,0.27331l-0.214,-0.29641l-0.48396,0.27569c-0.18032,-0.10911 -0.36063,-0.21821 -0.54094,-0.32731c-0.06088,-0.01127 -0.12345,-0.02569 -0.18742,-0.0427l-0.03038,0.14189l-1.95634,-0.83829c-3.8279,-1.07108 -7.58041,-2.93334 -11.30643,-3.9438c-1.58475,-0.42977 -3.14441,-0.55611 -4.73259,-1.13896c-1.67737,-0.61556 -3.06391,-1.9962 -4.67363,-2.86402c-1.14857,-0.61922 -4.32578,-1.2101 -5.53708,-1.4526c-4.87752,-0.97645 -8.05032,0.59763 -12.33127,0.47341c-1.92372,-0.51315 -4.54693,-1.51986 -6.40931,-1.76242c-2.46684,-0.32129 -3.7004,0.7492 -5.81519,0.689c-1.6286,-0.04636 -3.55071,-1.21359 -5.31884,-1.70443c-1.71343,-0.47567 -3.32062,-0.47625 -4.98314,-0.72101c-3.63385,-0.53494 -4.612,1.6384 -8.66048,-2.57549c-0.70294,-0.73166 -0.29545,-1.48677 -0.5145,-2.24377c-0.39019,-1.34845 -0.88375,-1.9986 -1.71825,-3.46869l-0.48147,-1.8421c0,0 -0.36047,-1.43225 1.38875,-1.22082z" fill="#36760b" stroke-width="0.5"/><path d="M216.02717,98.2202c5.36077,-0.47381 10.92425,2.42279 16.40287,2.68676c2.86192,0.1379 3.59179,-0.59447 6.93891,0.30991c2.98531,0.80663 6.04336,2.88035 8.91266,3.32142c-0.05186,-0.12717 -0.08592,-0.25455 -0.09963,-0.37975c-0.03122,-0.28508 0.04711,-0.52238 0.20925,-0.69928l0.91825,-1.06507l0.05902,0.03895l0.02684,-0.12522c1.14587,-0.74951 2.05899,-1.63169 4.03698,-1.56235c1.55436,0.0545 3.20186,0.6807 4.80919,1.52932c0.82784,0.06554 1.59671,0.18017 2.20395,0.32777c3.52816,0.85754 5.86099,3.12129 9.32161,4.71028c3.23793,1.48673 6.26568,1.78391 9.49558,2.94817c1.75638,0.6331 3.29849,2.0061 5.03856,2.75642c0.68944,0.2973 1.2501,0.4305 1.75403,0.47815c-0.22794,-0.22586 -0.42815,-0.50369 -0.56952,-0.84508c-0.67075,-1.61966 1.32373,-1.43114 1.32373,-1.43114l2.60332,0.2877c3.33926,1.38979 7.86714,3.17835 10.66938,5.59513c0.09263,0.07988 0.17827,0.16264 0.25885,0.2475c0.80293,0.63718 1.54495,1.30671 2.15607,2.02029c0.00892,0.01042 0.04209,0.06027 0.0943,0.13868c0.85829,0.35302 1.90304,0.49844 2.49663,0.71101c0.37292,0.13355 4.72136,2.00735 5.2066,2.27759c2.21057,1.23115 4.53358,2.59413 4.78773,3.81372c0.2819,0.24688 0.57238,0.50044 0.87624,0.75991l0.04388,0.41673l0.24785,0.00044l0.96608,1.76425c0.11633,0.20237 0.19078,0.40893 0.21278,0.60992c0.07473,0.68274 -0.47867,1.09148 -1.30771,1.05279c0.71358,0.25259 1.43531,0.52216 2.1203,0.6689l1.58911,-0.52391c0,0 1.57791,-0.45477 2.97008,1.11112c1.39217,1.56589 -0.18574,2.02067 -0.18574,2.02067l-2.49238,0.65244c-0.9693,-0.16633 -1.91674,-0.22244 -2.90792,-0.49903c-0.55486,-0.15483 -1.15671,-0.80758 -1.63686,-0.76917c-0.59118,0.04729 -0.36285,0.89808 -0.93379,0.97481c-2.44137,0.32807 -6.15695,-1.06872 -8.93784,-1.88274c-1.85625,-1.1843 -5.33051,-3.88083 -7.54922,-3.98574c-2.53,-0.11962 -4.15277,0.28756 -7.17175,-0.78158c-1.76022,-0.62336 -3.57088,-1.20533 -5.25463,-2.1236c-1.95493,-1.06615 -3.5763,-2.99033 -5.94075,-3.61743c-2.16586,-0.57441 -4.39933,-0.20318 -6.43975,-0.46038c-5.30174,-0.66832 -12.04497,-3.35321 -16.29101,-7.37182c-2.5556,-0.30464 -4.66332,0.41646 -7.13944,0.31963c-2.43577,-0.09523 -6.58258,-1.00553 -9.20635,-2.09613c-1.90346,-0.7912 -5.01197,-3.61798 -6.82607,-4.13817c-1.3849,-0.39711 -2.08608,0.69517 -3.41139,0.54556c-5.4694,-0.61744 -10.77895,-4.70719 -15.21546,-8.03827c0,0 -1.80398,-1.35519 -0.72064,-2.26198c0.29648,-0.24816 0.64693,-0.32691 0.9996,-0.31039c0.25033,-0.1056 0.48758,-0.12764 0.48758,-0.12764z" fill="#746b5d" stroke-width="0.5"/><path d="M239.56847,100.94328c-1.50548,0.20691 -2.50993,-1.18017 -2.50993,-1.18017l-0.9703,-1.37751c-1.48926,-2.95515 -1.4507,-5.27856 -1.63204,-7.98762c-0.3164,-4.90764 0.47933,-10.61622 2.87475,-14.2848c1.06582,-1.6323 1.02449,-3.92685 1.8729,-5.67352c1.45218,-2.98974 4.17648,-5.28186 5.51376,-8.2763c0,0 0.48936,-1.05979 2.23175,-0.14131c1.74239,0.91849 1.25303,1.97828 1.25303,1.97828c-1.41374,2.98077 -4.06363,5.28825 -5.52193,8.29366c-0.68753,1.41696 -0.9041,3.09571 -1.47001,4.57691c-0.30522,0.79887 -1.01036,1.37923 -1.37188,2.1492c-0.53186,1.13278 -0.3953,2.57672 -0.65075,3.84103c-0.57452,2.84348 -1.33548,5.46018 -1.11617,8.60927c0.15812,2.36203 0.00522,4.43698 1.34092,7.00932l0.65693,0.86955c0,0 1.00445,1.38707 -0.50103,1.59398z" fill="#4fae10" stroke-width="0.5"/><path d="M237.20151,97.21441c-0.16972,-0.12992 -0.32609,-0.26878 -0.46492,-0.41807c-0.71913,-0.77333 -0.4065,-1.57914 -0.53266,-2.35115c-0.37682,-2.30612 0.08005,-4.51171 0.60486,-6.48474c0.82574,-2.19142 1.64788,-4.3814 2.53802,-6.53461c-0.04782,-0.0535 -0.09573,-0.1081 -0.14375,-0.16377c-0.76566,-0.88792 0.7723,-3.73814 1.05484,-4.48935c1.62195,-4.31256 3.35995,-8.03334 6.81992,-11.01717c-0.00952,-0.01618 -0.01963,-0.03235 -0.03032,-0.04851l-0.12811,-0.06753l0.02858,-0.06191c-0.02396,-0.02726 -0.04981,-0.05443 -0.07767,-0.08153c0,0 -0.7395,-0.9464 -0.16094,-1.42482c-0.32295,-0.11024 -1.75313,-0.66202 -1.83005,-1.81112c-0.08545,-1.27655 1.6675,-0.77522 1.71978,-0.75998c1.86824,0.17683 3.56857,0.37519 5.51905,0.78358c0.35662,0.02549 0.8048,0.14425 1.2879,0.47912c0.32558,0.19547 0.65338,0.46905 0.85946,0.84211c0.25151,0.37085 0.2696,0.65961 0.1965,0.87463c-0.04814,0.31672 -0.26939,0.47449 -0.52894,0.54764c-0.11487,0.96093 -0.30375,1.89407 -0.55,2.79957c-1.70335,2.49302 -1.00047,5.78514 -0.78024,9.07503c0.36565,5.46239 1.52386,10.83026 3.53264,16.64871c0.95142,2.75585 1.74008,5.51067 3.65577,8.30096c0.36466,0.29036 0.68125,0.69021 0.71634,1.21432c0.08674,1.29585 -1.72098,0.75963 -1.72098,0.75963l-0.76231,-0.27499c-2.59571,-0.25864 -5.23066,-1.55573 -7.76251,-1.98297c-0.97802,0.22666 -1.97291,0.45412 -2.11194,0.44914c-0.0571,-0.00204 -0.2251,-0.04023 -0.46538,-0.10244c-0.79009,0.32738 -1.58143,0.70112 -2.81199,0.56499c-2.26471,-0.25051 -4.46344,-1.32891 -6.75147,-1.79407c0,0 -1.78301,-0.37134 -2.0933,-1.72371c-0.31029,-1.35236 1.47271,-0.98101 1.47271,-0.98101c0.03428,0.00728 0.06856,0.0147 0.10286,0.02227c-0.1821,-0.26984 -0.31222,-0.53244 -0.40173,-0.78825zM246.6159,75.46073c-0.08132,0.1382 -0.16185,0.27682 -0.24164,0.4158c0.08778,-0.0323 0.18457,-0.0554 0.28896,-0.06867c-0.01638,-0.11589 -0.03216,-0.23159 -0.04731,-0.34713z" fill="#4fae10" stroke-width="0.5"/><path d="M305.1671,115.94452c0.03456,0.00916 0.06915,0.01848 0.10381,0.02793c0,0 1.80458,0.49989 1.94114,1.79101c0.13655,1.29112 -1.66802,0.79124 -1.66802,0.79124c-2.3197,-0.65365 -4.32793,-0.60608 -6.69742,-1.4777c-1.2875,-0.4736 -2.27687,-1.27184 -3.24866,-2.0198c-0.23894,-0.05435 -0.40785,-0.09802 -0.46909,-0.12458c-0.14911,-0.06466 -1.30813,-0.80876 -2.44858,-1.54352c-2.59751,-0.81693 -5.00249,-0.75483 -7.72829,-1.78435l-0.73086,-0.08934c0,0 -1.77371,-0.33588 -2.13305,-1.67904c-0.14534,-0.54324 0.05825,-0.81182 0.35228,-0.93905c1.10211,-2.02206 0.99379,-4.57336 1.06174,-7.04383c0.14347,-5.21592 -0.47826,-10.37771 -1.99295,-16.03948c-0.91227,-3.40997 -1.30164,-6.57944 -4.0221,-10.10466c-0.58404,-1.093 -1.1155,-2.1867 -1.57638,-3.27286c-0.30719,-0.20888 -0.60247,-0.4891 -0.76553,-0.85227c-0.15455,-0.26689 -0.23596,-0.56682 -0.09286,-0.83713c0.09303,-0.29556 0.35296,-0.42337 0.63781,-0.4687c0.40697,-0.11526 0.85169,-0.01681 1.22968,0.13539c1.97332,0.54452 3.74874,1.18792 5.71387,1.93888c0.05139,0.01001 1.77789,0.35568 2.13187,1.67882c0.31864,1.19106 -1.04,1.06182 -1.35181,1.01728c0.79514,0.80317 0.32396,1.44384 0.32396,1.44384c-0.02075,0.01497 -0.03929,0.03105 -0.05574,0.04816l0.05269,0.08065l-0.11536,0.0078c-0.00596,0.0119 -0.01127,0.02412 -0.01593,0.03665c4.79813,4.93451 7.9858,9.7911 11.25465,15.22261c0.5694,0.94612 3.23543,4.77039 2.71541,5.33531c-0.03262,0.03543 -0.06549,0.06972 -0.09866,0.10292c1.71923,2.75231 3.37757,5.50976 5.04031,8.27054c1.25982,2.37563 2.52732,4.96597 2.92542,7.24431c0.13328,0.76271 0.75446,1.78244 0.24481,2.24813c-0.09839,0.0899 -0.21945,0.15982 -0.35814,0.21345c-0.0076,0.22873 -0.05687,0.44429 -0.16003,0.64141zM287.5707,87.6324c0.1179,0.06674 0.231,0.14018 0.33755,0.21892c-0.13521,-0.1889 -0.27109,-0.37777 -0.40767,-0.56659c0.02398,0.11603 0.04735,0.23191 0.07013,0.34768z" data-paper-data="{&quot;index&quot;:null}" fill="#4fae10" stroke-width="0.5"/><path d="M217.04508,97.79144c-1.01524,0.71495 -2.51346,-0.49153 -2.51346,-0.49153l-2.01986,-1.66754c-1.95837,-3.09187 -1.76826,-5.22676 -1.9562,-8.03438c-0.33028,-4.93391 -0.30383,-9.29696 0.72513,-13.74763c0,0 0.26947,-1.16553 2.0591,-0.38558c1.78963,0.77995 1.52016,1.94546 1.52016,1.94546c-0.995,4.30375 -1.00849,8.48663 -0.68894,13.26019c0.12811,1.91384 -0.31026,4.04758 1.00535,6.12468l1.38573,1.07489c0,0 1.49823,1.20649 0.48298,1.92144z" fill="#4fae10" stroke-width="0.5"/><path d="M319.10733,103.24545c1.6462,0.0166 2.39812,1.41892 2.39812,1.41892l0.46037,0.86077c2.63494,4.54976 3.25551,8.44252 3.78476,12.64987c0.22751,1.80862 0.94493,4.09092 0.55933,5.7071c-0.70287,2.94596 -3.20349,4.72048 -5.33237,6.79886c0,0 -0.85568,0.83531 -2.45043,-0.29122c-1.59474,-1.12652 -0.73905,-1.96182 -0.73905,-1.96182c1.95489,-1.90815 4.2519,-3.46508 4.94915,-6.13293c0.35955,-1.37572 -0.39815,-3.53383 -0.59175,-5.08381c-0.48249,-3.86319 -0.98037,-7.4295 -3.41302,-11.61348l-0.51942,-0.96656c0,0 -0.75191,-1.40232 0.89429,-1.38572z" fill="#4fae10" stroke-width="0.5"/><path d="M321.36638,135.43891c-4.49195,0.54028 -10.24865,-0.20466 -15.65061,-2.25566c-0.99048,-0.37606 -3.74602,-1.77202 -4.56783,-2.36901c-0.88232,-0.64095 -0.94648,-1.59082 -2.20538,-1.51341c-1.32206,0.08131 -2.57441,0.30169 -3.99964,0.19014c-2.98678,-0.87177 -7.20701,-1.63316 -10.04894,-3.45258c-0.132,-0.0845 -1.72202,-1.86906 -2.49353,-2.06134c-1.39498,-0.34767 -2.36328,0.33518 -3.7056,0.18099c-3.20296,-0.36792 -8.30231,-2.33445 -11.54635,-3.74417c-2.48068,-1.078 -4.6214,-1.978 -6.90934,-3.48926c-1.05646,-0.69783 -3.09191,-2.78104 -4.20639,-3.24485c-1.06454,-0.44302 -1.84386,0.16495 -2.69954,0.33561c-3.33284,0.38204 -8.35539,0.33883 -12.33499,-1.35373c-0.85965,-0.36561 -1.77122,-0.70955 -2.53503,-1.25016c-0.3728,-0.26386 -2.52601,-2.92987 -3.70864,-2.69384c-0.40454,0.08074 -0.31161,0.60484 -0.67497,0.73278c-0.80801,0.28451 -1.69976,0.53172 -2.7498,0.4731c-1.45989,-0.0815 -3.90153,-1.24748 -5.35995,-1.89133c-3.89006,-1.71733 -6.88139,-3.33003 -9.49553,-6.13648c-0.98097,-0.36149 -1.60494,-1.18042 -1.60494,-1.18042c-2.34261,-3.11314 -5.60275,-5.28886 -6.84913,-8.66984c-0.94965,-2.57601 -0.63096,-5.46609 -0.89711,-7.89736c-0.33568,-3.06661 -1.45967,-6.94387 -0.5991,-9.58967c1.47045,-4.52073 6.24842,-9.79201 12.24799,-10.77206c2.21408,-1.44228 4.60592,-1.42546 7.69797,-1.97915c3.71309,-0.66489 7.17187,-1.46894 11.31403,-1.5401c7.64957,-0.1314 16.23053,2.43929 24.57718,4.7301c5.86997,1.61106 11.90898,3.02467 17.70587,5.73068c3.69786,1.65433 7.60685,2.89915 11.18403,4.74032c2.37654,1.2232 4.62047,2.71446 6.84036,4.18651c3.29057,2.18204 6.36518,3.28406 9.52674,5.74609c7.98452,6.2179 13.70716,12.93953 17.18459,20.21141c1.1877,2.48368 2.44965,4.60537 2.70768,6.96259c1.56865,3.11029 0.71193,5.43331 1.67107,8.39296c0.21624,0.66722 0.86977,1.38612 0.99528,2.03604c0.40376,2.09076 -1.00557,5.70287 -2.12855,7.1219c-0.31467,0.39761 -1.14132,0.40035 -1.49679,0.7709c-0.97418,1.0155 -1.56182,2.3063 -2.75181,3.16175l-0.58738,0.556c0,0 -0.19563,0.18139 -0.56928,0.27508zM228.53284,98.79149c0.62563,0.26593 0.9776,1.11038 1.59942,1.23928c0.51604,0.10697 0.37776,-0.56929 0.68433,-0.76587c0.52369,-0.33581 1.04819,-0.7034 1.78435,-0.81706c2.53728,-0.3918 9.47929,1.13842 12.34031,3.14889c0.48637,0.34178 0.22391,0.84075 0.48209,1.26704c0.13334,0.22018 -0.18559,-0.46721 -0.09356,-0.6255c0.34428,-0.59227 0.70271,-1.20832 1.36955,-1.56957c2.29881,-1.24534 5.75976,-0.9633 9.04784,-0.72603c3.24671,0.89108 6.01812,1.96976 8.96952,4.04875c0.5938,0.41828 0.96533,1.03693 1.6096,1.38627c1.14442,0.62056 3.11474,0.33158 3.94259,0.47057c1.74005,0.29214 6.66575,1.47255 8.40656,2.37155c1.38843,0.71703 2.18458,2.33456 3.62067,2.83433c1.54464,0.53755 5.01706,-1.03737 6.29753,-0.96683c0.30827,0.01698 5.69987,1.50931 5.91288,1.59238c3.28765,1.28193 10.674,6.45781 9.51257,8.79226c0.96691,-0.53307 2.76197,-0.24137 4.31032,0.1808c6.13538,1.67289 9.41485,4.77511 11.49217,9.42708l0.86619,0.90724c2.30908,-1.71402 3.56674,-3.88896 4.57521,-6.40091c0.1116,-0.27797 0.89707,-1.9369 0.75766,-2.49154c-0.30801,-1.22534 -1.02899,-2.53354 -1.16569,-3.71884c-0.26225,-2.2741 -0.21103,-4.02783 -1.43199,-6.44873c-0.24649,-2.2518 -1.40101,-4.14279 -2.52925,-6.51301c-5.34129,-11.22099 -17.04307,-20.35152 -30.6836,-27.43111c-3.43537,-1.78301 -7.32761,-3.00481 -10.90552,-4.60549c-5.36455,-2.56004 -11.16584,-3.83499 -16.60934,-5.32901c-7.81493,-2.14487 -15.91696,-4.64057 -23.08276,-4.5202c-3.90849,0.06567 -7.16207,0.85745 -10.66801,1.48263c-3.06796,0.54708 -5.07251,0.41869 -7.18972,1.84194c-5.43014,0.957 -9.69995,5.51682 -11.09934,9.63263c-0.79794,2.3468 0.36361,6.07869 0.66303,8.81415c0.24962,2.28046 -0.04965,4.93258 0.7702,7.33449c0.63793,1.86894 2.53704,3.60934 4.27275,5.35922c2.79081,-1.74005 6.97114,-1.41228 12.17144,0.79824zM226.54687,105.7179c0.25279,0.11245 2.95784,1.37507 3.56924,1.41437c1.29876,0.08351 1.5847,-1.18944 2.82988,-1.2098c0.97472,-0.01594 2.16298,0.4141 3.24568,0.84237c1.55388,0.61464 2.70844,1.98344 4.02475,3.00584c1.59074,1.23555 3.47646,0.99497 4.85409,1.13287c2.39568,0.23979 4.06882,0.59675 6.21441,0.34339c1.54663,-0.27437 2.91918,-0.80735 5.07008,0.01201c1.69577,0.64597 2.65478,1.872 3.93903,2.86177c1.5966,1.2305 3.21072,2.13092 5.05202,2.94179c3.53368,1.55614 8.84436,3.97029 12.3493,4.32679c1.89529,0.19278 2.2991,-0.70563 4.53163,-0.00393c1.5854,0.49831 2.84892,1.91853 4.25474,2.89721c1.79649,1.25065 5.82884,1.90299 7.76456,2.48845c2.78441,0.25149 3.40706,-0.94821 6.94896,0.83033c1.20937,0.60727 2.00864,1.78392 3.21713,2.39345c4.39416,2.2163 10.04184,3.07596 13.97989,2.79164c-0.11952,-0.10732 -0.18593,-0.17883 -0.18593,-0.17883l-1.95944,-2.15141c-0.73858,-1.60608 -1.78587,-3.92341 -3.70961,-5.40784c-2.38126,-1.83748 -8.15576,-2.22304 -10.23785,-2.45174c-2.16121,-3.82913 -6.49986,-8.99168 -12.30622,-9.26485c-2.85301,-0.13423 -4.29277,1.81154 -7.8229,0.62965c-1.73185,-0.57983 -2.90711,-2.35185 -4.56839,-3.24359c-3.94359,-2.11685 -8.40589,-0.93666 -12.34913,-2.84212c-0.96658,-0.46707 -1.6403,-1.32267 -2.51582,-1.93476c-1.9782,-1.38301 -3.89428,-2.2178 -6.07717,-2.81691c-2.21503,-0.13921 -5.12047,-0.46224 -6.62394,0.44466c-1.67803,1.01219 -0.83567,3.25325 -5.02586,2.09446c-1.00273,-0.27731 -1.28629,-1.54916 -2.15373,-2.19235c-0.94776,-0.70277 -5.17929,-1.54664 -6.24435,-1.74993c-2.8228,-0.53878 -2.67704,1.84453 -5.47797,1.50609c-1.07763,-0.13021 -2.12119,-1.27981 -3.23993,-1.73049c-4.03406,-1.62512 -6.78,-1.91 -8.64133,-0.29501c1.98605,2.11 4.33262,3.19906 7.29418,4.51643z" fill="#4c463d" stroke-width="0.5"/><path d="M220.45345,158.80922c-1.89737,-0.63246 -1.26491,-2.52982 -1.26491,-2.52982l1.02313,-2.97115c0.83665,-0.99192 1.41825,-2.2743 2.50996,-2.97577c0.89359,-0.57416 2.09961,-0.35103 3.12103,-0.64233c1.53923,-0.43898 2.99285,-1.13958 4.51458,-1.63583c0.35473,-0.22086 2.507,-1.05879 2.40915,-2.17513c-0.11487,-1.31058 -1.71717,-2.08182 -2.1039,-3.3393c-0.64808,-2.10728 0.10794,-5.6748 0.34549,-7.85832c0.34319,-3.15464 0.30519,-3.25514 2.2475,-5.55851c0.63843,-0.75711 2.38256,-2.02779 2.67262,-3.19522c0.98542,-3.96599 -2.17467,-5.4928 -3.48709,-8.94516c-0.93887,-2.46971 -0.55723,-5.59379 -0.55723,-8.17323c0,0 0,-2 2,-2c2,0 2,2 2,2c0,1.99966 -0.43036,4.8977 0.32538,6.83119c0.77347,1.97883 2.77676,3.31945 3.53363,5.30468c1.06956,2.80538 0.03381,6.69372 -1.63476,8.95374c-0.1066,0.14439 -2.57347,2.44116 -2.82682,3.08642c-0.49853,1.26975 -0.16979,2.94475 -0.28686,4.23253c-0.1235,1.35852 -1.02169,2.7818 -0.53713,4.05695c0.6099,1.60496 2.3583,2.88797 2.30916,4.60421c-0.10132,3.53938 -2.17433,4.05197 -4.65175,5.76839c-2.64082,0.89678 -6.83861,1.38815 -8.38929,3.5722l-0.74209,2.32452c0,0 -0.63246,1.89737 -2.52982,1.26491z" fill="#4c463d" stroke-width="0.5"/><path d="M255.37565,158.86822c-0.63246,-1.89737 1.26491,-2.52982 1.26491,-2.52982l1.21359,-0.40089c0.5117,-0.14662 1.13194,-0.09231 1.5351,-0.43987c0.99125,-0.85456 -0.13285,-2.75214 0.50797,-3.89328c0.54983,-0.97911 1.71615,-1.44868 2.57423,-2.17302c1.31444,-0.50977 2.54049,-1.32162 3.53739,-2.31852c1.08072,-1.08072 3.16801,-2.61749 2.60599,-4.57293c-0.38399,-1.33601 -2.84705,-1.37047 -3.28922,-2.15904c-0.6489,-1.15726 -0.47011,-5.81049 0.43566,-7.08851c0.69622,-0.98234 2.04412,-1.29549 2.93518,-2.10525c1.44469,-1.31287 2.70354,-2.90878 4.41509,-3.84759c5.09941,-2.79707 12.58106,-1.55387 18.14204,-1.55387c0,0 2,0 2,2c0,2 -2,2 -2,2c-4.75559,0 -11.87366,-1.29036 -16.27985,1.09396c-1.39907,0.75708 -2.32585,2.17197 -3.52842,3.21331c-0.69483,0.60167 -1.74164,0.74563 -2.36049,1.4252c-0.29079,0.31932 -0.0402,0.86499 -0.11282,1.29073c-0.07683,0.45044 -0.62402,0.97628 -0.33413,1.3295c0.38389,0.46777 1.30171,0.02951 1.76697,0.41644c0.86603,0.72021 1.63371,1.65669 2.00471,2.7202c1.78221,5.10882 -3.96615,9.99474 -7.97842,11.64342c-1.92832,0.95752 -0.23561,3.31159 -2.21347,5.40767c-0.72484,0.76816 -1.91864,0.88357 -2.87796,1.32535l-1.43424,0.48172c0,0 -1.89737,0.63246 -2.52982,-1.26491z" fill="#4c463d" stroke-width="0.5"/><path d="M239.16765,160.90724c-1.78885,-0.89443 -0.89443,-2.68328 -0.89443,-2.68328l0.95648,-1.89979c0.19358,-0.32263 0.38716,-0.64526 0.58073,-0.96789c-0.2099,-1.33234 1.12244,-1.9985 1.12244,-1.9985l-0.00817,0.31345c0.038,-0.03635 0.07879,-0.07313 0.12232,-0.10957c0.83478,-1.63924 1.77231,-3.23285 2.83785,-4.73158c-0.16827,-5.11446 -4.37045,-9.84072 -2.66665,-14.93818c1.49992,-4.48751 7.19808,-6.6691 7.9126,-11.33884c1.17217,-7.66075 -5.32273,-13.28549 -3.96901,-20.75541c0,0 0.39223,-1.96116 2.35339,-1.56893c1.96116,0.39223 1.56893,2.35339 1.56893,2.35339c-0.93564,4.10144 1.91288,7.69371 3.31049,11.41197c0.99882,2.65731 1.15308,6.54295 0.66402,9.31541c-0.92395,5.23784 -6.4421,6.99199 -7.97443,11.60908c-1.07795,3.24798 1.4,5.76179 2.20653,8.68207c0.76824,2.78163 0.48569,3.17767 0.42249,6.38858c-1.15489,1.81986 -2.25319,3.68139 -3.21447,5.61053l-0.37824,0.28431c-0.07079,0.18133 -0.13693,0.29156 -0.13693,0.29156c-0.44131,0.73551 -0.88261,1.47102 -1.32392,2.20653l-0.80874,1.63066c0,0 -0.89443,1.78885 -2.68328,0.89443z" fill="#4c463d" stroke-width="0.5"/><path d="M248.22011,161.22379c-1.6641,-1.1094 -0.5547,-2.7735 -0.5547,-2.7735l1.76523,-2.64784c0.50505,-0.706 1.18887,-1.31361 1.51514,-2.11801c0.67491,-1.66394 -1.11245,-4.49102 -0.96456,-6.1643c0.09871,-1.11691 0.66718,-2.14099 1.00078,-3.21148c0.75245,-1.80688 1.77164,-3.63126 3.29498,-4.86025c2.08654,-1.68336 3.9353,-2.04799 5.17611,-4.60799c2.32839,-4.80386 0.39047,-10.15689 2.59177,-14.88105c3.38131,-7.25655 13.16458,-9.60939 20.38262,-9.61945c0,0 2,0 2,2c0,2 -2,2 -2,2c-5.31199,-0.00814 -14.2276,1.51708 -16.6871,7.15019c-1.32825,3.04215 -0.19187,6.59182 -0.7562,9.70504c-0.14606,0.80579 -1.48451,4.51715 -1.94771,5.42273c-2.08536,4.077 -6.73943,4.91993 -8.29854,9.06662c-1.18818,3.23948 1.1352,5.92168 0.03621,9.15908c-0.40319,1.18772 -1.34354,2.11845 -2.01531,3.17767l-1.76523,2.64784c0,0 -1.1094,1.6641 -2.7735,0.5547z" fill="#4c463d" stroke-width="0.5"/></g></g></svg>