<svg version="1.1" xmlns="http://www.w3.org/2000/svg" xmlns:xlink="http://www.w3.org/1999/xlink" width="669.11837" height="522.82108" viewBox="0,0,669.11837,522.82108"><g transform="translate(71.86813,68.78255)"><g data-paper-data="{&quot;isPaintingLayer&quot;:true}" fill-rule="nonzero" stroke-width="0.5" stroke-linecap="butt" stroke-linejoin="miter" stroke-miterlimit="10" stroke-dasharray="" stroke-dashoffset="0" style="mix-blend-mode: normal"><path d="M-21.95988,11.18003c0,-8.75886 4.50434,-16.46568 11.32297,-20.93041l1.27384,-1.43027l2.69535,-0.68453c2.25476,-0.95098 4.67818,-1.58071 7.21292,-1.83185l1.09738,-0.2787l1.01161,0.15868c0.12841,-0.00194 0.25706,-0.00292 0.38594,-0.00292c4.19893,0 8.15609,1.03517 11.63018,2.86424l0.47662,0.23831l7.11738,1.18623h0.7756l1.12392,-0.08224l0.68517,-0.27407l3.77194,-1.08806l0.8216,-0.05963l0.78498,-0.24977l3.20521,-0.32052l1.06603,-0.42641l3.77194,-1.08806l0.8216,-0.05963l0.78498,-0.24977l3.90625,-0.39062h108.29164l1.93443,0.19344l0.2446,-0.01545l0.86118,0.12603l0.86604,0.0866l0.23355,0.07431l1.92359,0.2815l3.03762,0.75941l4.46982,0.63855h340.25333l3.1873,0.31873l1.75376,-0.02402l4.54332,1.87078l3.01563,0.95952l0.62454,0.53937l2.31627,0.95376l1.62568,2.45066l4.02726,3.47809l1.18258,4.37555l1.44075,2.17188l0.23252,4.01921l1.0504,3.88648l-0.68001,2.51603l0.14224,2.45867l2.29153,7.20197l0.39063,3.90625v11.79414l-0.20521,2.05208l-0.13494,2.05789l-0.73204,4.39226v33.31335l-0.19344,1.93443l0.01545,0.2446l-0.12603,0.86118l-0.0866,0.86604l-0.07431,0.23355l-0.2815,1.92359l-1.39795,5.59181v165.25689l-0.15468,1.54681l-0.03837,1.55405l-0.87914,7.03313v57.41425l-0.24512,2.45122l-0.24036,2.45169l-1.65891,8.29453v7.17426l-0.27265,2.72649l0.00828,0.27827l-0.08093,0.44825l-0.04532,0.45324l-0.08441,0.26529l-0.48687,2.69649l-1.18249,4.13871v10.43715l-0.12456,1.24556l0.45501,2.2483l-2.49559,5.98941l-0.95987,3.01673l-0.57406,0.6647l-0.3378,0.81072l-2.26898,2.20766l-4.24103,4.91067l-0.69993,0.18917l-1.4365,1.75572l-0.28605,0.28605l-0.59201,0.8123l-0.54383,0.32354l-6.08346,6.08346l-3.03835,2.48592l-0.07738,0.04002l-0.06244,0.06075l-1.49406,0.94362l-2.6549,2.17219l-0.39315,0.20336l-1.74617,1.50805l-3.0386,0.96683l-2.83227,1.46497l-0.51086,0.03738l-0.60903,0.19378l-0.46958,0.24947l-3.26101,0.93754l-3.23337,1.0288l-0.5291,0.05291l-1.64371,0.47257l-1.36976,-0.17122l-0.36368,0.03637h-33.37697l-1.30303,0.32576l-1.92359,0.2815l-0.23355,0.07431l-0.86604,0.0866l-0.86118,0.12603l-0.2446,-0.01545l-1.93443,0.19344h-324.87491l-3.90625,-0.39062l-0.78498,-0.24977l-0.8216,-0.05963l-3.77194,-1.08806l-0.89077,-0.35631h-70.23905l-3.90625,-0.39062l-0.08302,-0.02641l-0.08711,-0.00119l-3.82932,-0.86469l-0.1875,-0.0625l-1.17403,-0.1174l-1.77027,-0.56327l-1.83527,-0.28789l-3.66855,-1.39754l-0.32571,-0.16285l-0.48405,-0.03542l-0.89279,-0.46179l-0.38378,-0.12793l-3.58227,-1.60584l-1.08755,-0.79262l-2.89361,-1.10233l-0.36183,-0.18092l-0.95783,-0.30476l-0.47891,-0.41361l-0.90108,-0.45054l-1.53106,-0.51035l-0.12562,-0.05631l-1.23591,-0.12359l-0.4218,-0.13421l-2.30108,-0.16837l-2.83227,-1.46497l-3.0386,-0.96683l-1.74617,-1.50805l-0.39315,-0.20336l-1.25018,-1.02288l-0.70801,-0.19135l-1.21306,-1.4046l-1.87858,-1.87858l-1.4046,-1.21306l-0.19135,-0.70801l-1.02288,-1.25018l-0.20336,-0.39315l-1.50805,-1.74617l-0.96683,-3.0386l-1.46497,-2.83227l-0.16837,-2.30108l-0.13421,-0.4218l-0.39063,-3.90625v-2.84467l-0.13544,-1.85096l0.13544,-0.23576v-20.47018l-1.65891,-8.29453l-0.24036,-2.45169l-0.24512,-2.45122v-41.27626l-0.65396,-2.89612l-0.00119,-0.08711l-0.02641,-0.08302l-0.39063,-3.90625v-12.53523l-0.58671,-2.93356l-0.24036,-2.45169l-0.24512,-2.45122v-64.46519l-0.15576,-0.61332l0.15576,-0.993v-0.40454l0.39063,-3.90625l0.56327,-1.77027l0.28789,-1.83527l0.90261,-2.36935v-6.63135l-0.13544,-0.23576l0.13544,-1.85096v-2.84467l0.39063,-3.90625l0.13421,-0.4218l0.16837,-2.30108l1.45118,-2.80562v-5.57597l0.39063,-3.90625l0.02641,-0.08302l0.00119,-0.08711l0.86469,-3.82932l0.86147,-2.58441v-18.45914l0.39063,-3.90625l0.02641,-0.08302l0.00119,-0.08711l0.86469,-3.82932l0.86147,-2.58441v-0.23184l0.08886,-0.88855l-0.02532,-0.89262l1.00866,-14.12127v-50.57361l0.24512,-2.45122l0.24036,-2.45169l0.58671,-2.93356v-1.81329l0.39063,-3.90625l0.02641,-0.08302l0.00119,-0.08711l0.86469,-3.82932l0.76858,-2.30573l0.83933,-3.35732l1.32637,-3.69488l0.18621,-0.30166l0.09795,-0.3407l0.21561,-0.40585c-1.59411,-1.32836 -3.02034,-2.85136 -4.24219,-4.5325l-0.72668,-0.70704l-0.43075,-1.0338c-1.2782,-2.10847 -2.25349,-4.421 -2.86551,-6.87723l-1.07106,-2.57054l0.38142,-1.88464c-0.0338,-0.53205 -0.05096,-1.06863 -0.05096,-1.60921z" fill="#fae880" stroke="none"/><path d="M-15.58571,69.22629c-0.02526,-0.18318 -0.02527,-0.30003 -0.02527,-0.30003l0.26393,-0.38347c-3.26043,-6.80792 -0.82024,-12.64674 -0.25629,-19.84191c0.25538,-3.25822 -0.06709,-6.53697 -0.00765,-9.80465c0.03313,-1.82121 -0.46343,-3.76106 0.1903,-5.46122c0.56263,-1.46323 2.31932,-2.14337 3.2256,-3.42252c1.44623,-2.04125 1.88365,-4.63636 2.74095,-6.98654c3.36932,-9.23652 4.80884,-18.81982 6.96959,-28.37539c1.1164,-4.93614 2.18722,-9.83831 3.61417,-14.69659c0.52865,-1.79986 0.71459,-3.74722 1.62274,-5.38864c0.63239,-1.143 2.26371,-1.52356 2.84798,-2.69189c0.44773,-0.89529 -0.47842,-2.12374 0,-3.00301c1.40764,-2.58702 4.48089,-3.83154 6.85393,-5.5759c1.29072,-0.94877 2.01434,-2.70589 3.50807,-3.2846c1.69849,-0.65803 3.63973,-0.18176 5.46122,-0.1903c0.71429,-0.00335 1.49945,0.47619 2.13729,0.15467c1.37577,-0.69347 2.05338,-2.51142 3.51351,-3.003c1.37233,-0.46202 8.77165,0.05147 10.57203,-0.13737c4.48564,-0.47048 9.03965,-2.34792 13.46088,-3.2461c6.49366,-1.3192 13.11729,-2.19249 19.65485,-3.2762c12.87353,-3.92344 25.5469,-8.1287 38.92506,-9.99031c20.03645,-2.78813 40.75479,-1.52271 60.92557,-1.52271c34.2632,0 68.5264,0.00005 102.7896,-0.00001c34.99997,-0.00006 69.99993,-0.00077 104.99989,-0.00236c16.51529,-0.00075 33.36462,0.83325 49.84633,-0.17966c18.13808,-1.11472 36.54858,-4.19615 54.42852,-7.31596c0.25708,-0.00047 9.88651,-0.02129 10.25386,-0.00926c1.35454,0.04438 2.85779,-0.33779 4.0549,0.29757c1.76493,0.93673 2.93408,2.71596 4.32528,4.15019c3.64099,3.7536 6.25389,8.04252 9.13804,12.36875c0.20285,0.30427 5.59125,8.37843 5.68554,8.55506c4.52912,8.48533 5.9332,18.38694 7.73658,27.67071c1.74596,8.98817 4.30027,17.90292 6.2713,26.85642c1.94172,9.73819 4.87917,19.8439 5.77769,29.73347c0.76784,8.45124 -0.31076,17.15138 -1.53142,25.48747c-0.47439,3.23969 -1.18318,6.45087 -1.46322,9.71311c-0.45218,5.26747 1.39472,7.13687 -4.53937,10.12686c-3.39447,1.71036 -5.0303,-0.451 -7.77406,-1.44652c-2.39501,-0.86898 -5.05996,-0.74867 -7.49527,-1.49734c-2.67845,-0.82342 -5.04711,-2.43626 -7.56609,-3.66381c-5.54819,-2.37682 -11.08833,-4.76849 -16.61757,-7.189c-2.97875,-1.304 -5.75048,-3.09916 -8.82613,-4.1545c-2.90144,-0.99556 -6.15771,-0.5819 -9.07374,-1.53387c-3.13641,-1.02392 -5.68939,-3.47958 -8.8452,-4.44205c-2.89306,-0.88234 -6.12761,0.04439 -9.04138,-0.76694c-1.69995,-0.47334 -3.12349,-1.65357 -4.75206,-2.33302c-2.88946,-1.20549 -5.96508,-1.90846 -8.91219,-2.96523c-2.41184,-0.86483 -4.60715,-2.39702 -7.12038,-2.89558c-1.45616,-0.28887 -2.98908,0.25223 -4.45359,0.00925c-2.96863,-0.49252 -5.54555,-2.50649 -8.51351,-3.003c-1.63679,-0.27382 -3.31906,0.00238 -4.97859,0.00357c-4.99223,-1.65613 -8.11335,-1.09646 -13.25235,-1.81381c-4.87785,-0.6809 -9.61384,-2.29559 -14.58082,-2.66531c-7.6827,-0.57186 -15.63474,0.0069 -23.34296,0.0069c-15.35035,0 -30.7007,0 -46.05105,0c-30.69069,0 -61.38138,0 -92.07207,0c-29.35936,0 -58.71872,0 -88.07808,0c-13.51351,0 -27.02703,0 -40.54054,0c-4.93636,0 -9.87183,-0.01423 -14.80785,0.04821c-1.42948,0.01808 -2.93296,-0.39404 -4.28836,0.06054c-1.5885,0.53276 -2.5896,2.27454 -4.18642,2.78178c-1.54089,0.48948 -8.03107,-0.07534 -9.7425,0.21143c-4.61734,0.77368 -9.50664,3.14353 -14.03299,4.43724c-5.24029,1.47164 -8.9358,1.10431 -14.25709,1.45763c-5.01948,0.33328 -10.01458,2.38309 -15.01501,3.00301c-0.9108,0.11292 -1.85806,-0.24074 -2.75308,-0.03758c-6.04202,1.3714 -10.56613,5.93023 -15.83285,8.7628c-5.38801,2.8978 -14.66393,3.87146 -17.203,10.47883c-0.54611,1.42114 -0.71406,2.95999 -1.07109,4.43999c0,0 -0.60634,2.42536 -3.0317,1.81902c-2.42535,-0.60634 -1.81901,-3.03169 -1.81901,-3.03169c0.45143,-1.75381 0.66428,-3.58705 1.35426,-5.26144c1.04729,-2.54147 2.66512,-4.39111 4.60236,-5.84421z" fill="#faeda4" stroke="none"/><path d="M-58.35462,236.1023c-2.09776,-0.11227 -4.16188,-0.2654 -6.01351,-0.2654c0,0 -7.5,0 -7.5,-7.5c0,-7.5 7.5,-7.5 7.5,-7.5c0.94732,0 4.28539,0 6.62038,0c0.79621,-2.08928 2.63706,-4.5045 6.89314,-4.5045c2.21505,0 3.7759,0.65419 4.87578,1.57616c1.59445,-0.24672 3.28182,0.16869 4.8957,-0.03816c2.53136,-0.32443 4.98023,-1.14671 7.50751,-1.5015c0.66863,-0.09387 1.37938,0.3807 2.01889,0.16413c5.35103,-1.81211 9.35221,-6.75869 14.56478,-8.88783c1.06627,-0.43553 9.19443,-4.72489 11.31527,-5.75692c1.24882,-0.60769 8.94032,-4.63247 11.82086,-5.9237c2.17275,-0.97395 9.84483,-5.1566 14.85164,-6.45858c1.08972,-0.28337 5.04735,-2.10399 6.36053,-2.63273c4.26897,-1.71887 12.24742,-2.9335 13.09364,-3.16666c3.0178,-0.8315 8.46317,0.08559 11.55998,-0.37074c4.47534,-0.65947 9.76796,-0.0365 14.25255,-0.0365c4.83495,0 11.9345,-1.22051 16.38364,0.5709c1.31318,0.52874 6.32772,1.37378 7.72182,1.93142c1.31438,0.52575 6.07233,3.63744 7.64771,3.70431c1.001,0.5005 1.91112,1.25594 3.003,1.5015c2.81711,0.63355 5.97599,-0.70821 8.65449,0.37027c1.31318,0.52874 1.88438,2.13543 3.003,3.003c0.15439,0.11974 -0.05935,-0.53591 0.13288,-0.5709c0.98481,-0.17929 2.00351,-0.05498 3.003,0c2.46184,0.13543 5.04343,-0.23193 7.37463,0.5709c1.33848,0.46095 1.88438,2.13543 3.003,3.003c0.15439,0.11974 -0.06251,-0.5709 0.13288,-0.5709c1.96694,0 4.04854,-0.16375 5.87313,0.5709c1.31318,0.52874 1.74933,2.34551 3.003,3.003c0.51105,0.26803 1.06163,-0.50039 1.63438,-0.5709c3.27317,-0.40296 7.24976,-0.07087 10.51051,0c1.57643,0.03426 3.19065,-0.15788 4.72615,0.20063c2.45512,0.57322 4.51386,2.40318 6.98573,2.89921c2.29504,0.46055 5.45502,-0.09684 7.80764,-0.09684c1.78128,0 3.67585,0.97225 5.33413,0.32181c1.67997,-0.65895 2.79253,-2.43234 4.5045,-3.003c1.42445,-0.47482 3.07646,0.4639 4.5045,0c1.34531,-0.43703 2.12154,-1.9217 3.38275,-2.56218c3.19311,-1.62155 7.16934,-1.42482 10.22883,-3.28626c0.55068,-0.33504 0.11238,-1.35084 0.49551,-1.86921c2.49544,-3.37633 7.03214,-7.79611 10.33841,-10.42375c2.54435,-2.0221 5.61409,-3.28331 8.31944,-5.08432c2.16911,-1.44402 3.99715,-3.39649 6.27455,-4.66286c2.41581,-1.34333 5.20991,-1.88252 7.69033,-3.10244c2.03883,-1.00273 3.70212,-2.72788 5.82274,-3.54353c1.95224,-0.75089 10.65564,-4.80135 13.31519,-5.94294c1.14649,-0.49212 8.36512,-0.38488 9.87922,-0.38488c7.00701,0 14.01401,0 21.02102,0c3.19189,0 8.26116,-0.68146 11.18239,0.32181c1.70673,0.58616 12.03075,2.41177 14.56477,2.88182c1.66643,0.30911 3.11203,1.34683 4.63396,2.09266c2.36971,1.16129 4.83653,2.17052 7.03723,3.62689c0.95921,0.63479 4.96011,2.98568 6.26909,3.27154c3.1447,0.68674 4.23448,0.90465 7.1784,2.20622c2.50141,1.10593 4.6607,2.06889 7.25327,2.93992c0.80752,0.2713 4.25302,2.64279 5.05323,2.93494c3.01844,1.10206 4.38964,2.25638 7.27904,3.66239c6.83986,6.66679 15.23963,9.85177 23.40315,14.61251c3.11773,1.81818 5.89779,4.1767 9.00901,6.00601c3.96285,2.33004 8.41377,3.70694 12.61919,5.56374c1.68519,0.74405 3.08539,2.13502 4.85903,2.63273c1.59063,0.44636 3.38601,-0.39694 4.95474,0.12118c1.71354,0.56594 2.82454,2.34406 4.5045,3.003c1.65827,0.65044 3.55285,-0.32181 5.33413,-0.32181c3.5035,0 7.00701,0 10.51051,0c1.92928,0 3.93836,0.76134 5.78436,0.20063c1.41174,-0.4288 3.47269,-2.10606 5.42112,-2.34167c0.00501,-0.05732 0.00774,-0.11301 0.00774,-0.16677c1.81206,-0.54193 3.74449,-0.77995 5.43618,-1.6258c0.44436,-0.22218 0.21853,-1.02591 0.56983,-1.37721c1.68288,-1.68288 3.34949,-3.48427 5.43618,-4.6288c0.87765,-0.48138 2.10479,0.44182 3.003,0c0.87185,-0.42885 0.88898,-1.87455 1.74445,-2.33521c3.23192,-1.74035 6.71366,-3.0134 10.21788,-4.10637c0.5127,-0.15991 1.01421,0.44506 1.55118,0.43558c0.16846,-0.00297 -0.27003,-0.30135 -0.21119,-0.45923c0.39083,-1.04869 0.75155,-2.1723 1.5015,-3.003c1.86109,-2.06148 3.75045,-4.27063 6.21719,-5.54677c1.33361,-0.68993 3.01152,0.1597 4.5045,0c0.16753,-0.01792 -0.27003,-0.30135 -0.21119,-0.45923c0.39083,-1.04869 0.75155,-2.1723 1.5015,-3.003c1.86109,-2.06148 3.68462,-4.40686 6.21719,-5.54677c1.44005,-0.64816 7.72365,-0.5709 10.37763,-0.5709c5.07453,0 11.23718,-0.8194 16.21638,0.09684c2.27681,0.41896 4.39885,1.44486 6.59827,2.16729c1.12758,0.85406 2.06802,2.04032 3.38275,2.56218c1.14885,0.45601 2.59872,-0.31262 3.69975,0.24909c1.90041,0.96954 3.20309,2.82308 4.88779,4.13203c1.73811,1.35044 3.82481,2.27418 5.37217,3.83955c0.95703,0.96816 1.15442,2.48617 1.96323,3.5812c2.01481,2.72778 5.25355,4.52971 6.85079,7.52121c0.58217,1.09036 -0.14173,2.52712 0.24909,3.69975c0.79381,2.38176 3.88478,3.34938 5.08912,5.55221c1.76089,3.22078 3.00526,6.71621 4.10637,10.21788c0.22554,0.71726 -0.47275,1.55267 -0.18648,2.24793c0.472,1.14633 1.70673,1.83133 2.31164,2.91343c1.44856,2.59128 2.92512,5.21531 3.81554,8.04731c0.7506,2.38728 -0.76034,5.12331 0,7.50751c0.68007,2.13249 2.43598,3.84071 3.003,6.00601c1.25018,4.77403 0.20063,11.76913 0.20063,16.73816c-0.04511,2.47477 0.37378,5.00205 -0.13533,7.42431c-0.55437,2.63765 -2.26738,4.91456 -3.003,7.50751c-0.30099,1.06096 0.20043,2.23751 -0.06531,3.30784c-0.26967,1.08618 -1.26492,1.90914 -1.5015,3.003c-0.39908,1.8452 0.44665,3.94952 -0.37027,5.65148c-0.91886,1.91434 -3.62374,2.57234 -4.5045,4.5045c-0.60324,1.32335 0.67974,2.8975 0.47406,4.33725c-0.56361,3.9453 -3.34801,7.25145 -4.60829,11.03229c-0.43918,1.31755 0.22212,2.89383 -0.37027,4.14998c-0.60382,1.28039 -2.13543,1.88438 -3.003,3.003c-0.11974,0.15439 0.53591,-0.05935 0.5709,0.13288c0.17929,0.98481 0.11199,2.00829 0,3.003c-0.26238,2.33052 -0.0487,4.85979 -1.12012,6.94599c-0.67982,1.32371 -2.82847,1.27883 -3.71698,2.47253c-0.85885,1.15386 -0.30412,3.02329 -1.20711,4.14294c-1.33551,1.65597 -3.6656,2.2412 -5.1615,3.75385c-1.22098,1.23465 -1.62832,3.12923 -2.8579,4.35532c-1.94555,1.94003 -4.43696,3.24868 -6.5404,5.01629c-2.69528,2.26497 -5.34359,4.61026 -8.26127,6.58048c-1.93154,1.23057 -3.65872,2.86525 -5.79463,3.69172c-5.08036,1.96581 -11.60746,2.71969 -16.96877,3.51771c-2.86381,0.42627 -5.33892,2.42896 -8.20224,2.85856c-8.08533,1.21309 -17.52437,0.20063 -25.74717,0.20063c-26.52653,0 -53.05305,0 -79.57958,0c-82.08208,0 -164.16416,0 -246.24625,0c-33.53353,0 -67.06707,0 -100.6006,0c-8.00801,0 -16.01602,0 -24.02402,0c-2.13292,0 -8.69342,0.14527 -10.37763,-0.5709c-1.82045,-0.77411 -2.90614,-2.70124 -4.5182,-3.84778c-0.91201,-0.64865 -2.12318,-0.80982 -3.003,-1.5015c-1.62145,-1.27472 -2.94516,-2.88827 -4.41774,-4.3324c-5.25446,-7.8252 -9.07507,-16.62955 -15.01502,-24.02402c-2.96187,-3.68715 -6.205,-7.49358 -7.50531,-12.04078c-0.57839,-2.02266 0.36558,-4.25172 -0.06531,-6.31085c-0.43402,-2.07412 -1.59583,-3.92768 -2.48013,-5.85339c-3.04646,-6.63414 -6.89865,-11.70863 -9.30341,-18.78292c-0.98216,-2.8893 -0.62275,-6.29135 -2.24668,-8.87505c-0.95903,-1.52583 -2.95282,-2.37627 -3.55222,-4.07586c-0.74361,-2.10851 0.37398,-4.55553 -0.24909,-6.70275c-0.5029,-1.73309 -2.41684,-2.79778 -3.003,-4.5045c-0.56154,-1.63505 -0.27208,-3.44831 -0.32181,-5.17638c-0.17254,-5.99542 0,-12.0184 0,-18.01802c0,-2.41654 0,-4.83308 0,-7.24961zM445.57487,224.01431c-0.03479,-0.3202 -0.05886,-0.66687 -0.13517,-0.88461c0,0.26992 0.06169,0.574 0.13517,0.88461z" fill="#e9d877" stroke="none"/><path d="M-24.40445,266.2495c1.5069,-4.87208 7.13243,-4.87208 7.13243,-4.87208c3.31159,0 7.59094,0.74295 10.81065,0.09684c3.40727,-0.68375 3.21016,-1.91313 6.98573,-2.89921c0.82423,-0.21527 7.36233,-3.62863 9.97071,-5.19346c4.14885,-2.489 6.16109,-4.5206 10.11625,-7.30714c1.79201,-1.26253 5.56215,-2.94177 7.28089,-4.30236c1.01558,-0.80396 2.3654,-1.08189 3.44535,-1.79707c2.23324,-1.47892 4.13537,-3.45173 6.46819,-4.76797c1.02453,-0.57807 4.84569,-3.85153 6.02479,-4.98525c2.34575,-2.25547 5.60844,-3.30928 8.31078,-5.1223c6.35404,-4.16474 11.51544,-9.84838 17.42335,-14.5747c3.92131,-3.13705 8.08784,-5.87536 12.01201,-9.00901c1.22673,-0.9796 2.06798,-2.41406 3.37259,-3.28725c4.04949,-2.71037 6.43273,-4.39991 10.25193,-7.50751c1.64708,-1.3402 5.99561,-3.33215 7.76608,-4.5045c2.6792,-1.77409 5.60953,-3.23311 8.66819,-4.21805c1.28695,-0.41442 6.85205,-2.29566 8.55877,-2.88182c1.20186,-0.41277 7.8331,-1.82374 8.09812,-1.95695c1.61235,-0.81045 6.68865,-0.53177 8.41839,-1.04605c1.32543,-0.39408 9.06608,-0.32181 11.18239,-0.32181c7.50751,0 15.01502,0 22.52252,0c6.56238,0 10.98797,-0.56782 16.86762,2.2933c1.36673,0.66507 2.83326,1.19376 4.03423,2.12539c0.69041,0.53557 2.73407,1.62612 3.34382,1.78795c0.91155,0.24192 7.71504,3.52345 8.66819,4.21805c3.13192,2.28239 5.82141,5.31211 9.00901,7.50751c2.99573,2.06326 6.94903,2.33746 10.06817,4.20894c0.89235,0.53541 3.93215,2.45379 4.93315,2.45379c1.27604,1.1352 6.95587,3.81106 8.4464,4.2974c2.27412,0.74201 4.29722,2.19591 6.61829,2.77453c1.7022,0.42434 2.75851,1.0309 4.42609,1.57562c1.71538,0.56034 3.59691,1.13939 5.33799,1.61386c1.7186,0.46835 3.5538,-0.26358 5.33413,-0.32181c3.50163,-0.11453 7.00701,0 10.51051,0c6.00601,0 12.01201,0 18.01802,0c2.94711,0 6.40643,0.4722 9.30914,0.09684c3.02079,-0.39062 5.17875,-1.91946 8.00971,-3.12672c2.13518,-0.91054 3.69683,-1.87893 5.89915,-2.61233c6.55677,-2.1835 7.95894,-3.04916 12.95091,-7.3004c1.001,0 3.54275,-1.43294 4.12121,-1.87397c2.20837,-1.68371 4.49318,-3.3867 7.08604,-4.38113c1.00103,-0.38392 6.44367,-0.32181 8.17939,-0.32181c5.50551,0 11.01101,0 16.51652,0c15.69282,0 31.55584,-0.65192 47.21843,0.32181c1.73375,1.08403 3.28599,2.536 5.20125,3.2521c2.24695,0.84012 4.79564,0.57796 7.0714,1.33655c0.67759,0.22586 6.99321,3.77528 9.27785,4.1954c1.30524,0.24002 2.74197,-0.26581 3.97502,0.22497c2.35187,0.93608 4.38519,2.5367 6.49137,3.94082c0.90314,0.60209 1.47793,1.75346 2.51763,2.06519c1.66262,0.49849 3.58766,-0.39052 5.20125,0.24909c1.31601,0.52166 4.26747,2.41352 4.85902,2.63273c2.33003,0.86344 4.64665,1.94049 6.58316,3.49757c0.87218,0.70129 3.70606,1.91062 4.6651,2.21233c2.35576,0.74111 5.34106,2.35305 7.34691,3.79368c0.39326,0.28245 6.98698,3.79804 8.07734,4.3802c2.07576,1.1083 7.6031,5.58585 9.64905,7.6318c3.27357,3.4886 8.39333,4.16656 11.16474,7.8968c1.75581,2.36327 2.52434,5.36101 3.23875,8.21715c0.23255,0.92972 -0.8417,1.9507 -0.47406,2.83575c0.39921,0.96103 1.92282,1.03514 2.45379,1.93015c0.6157,1.03783 0.06349,2.5681 0.78753,3.53347c0.89285,1.19046 3.03716,1.14882 3.71698,2.47253c1.73139,3.37126 1.12012,9.09915 1.12012,12.95199c0,10.51051 0,21.02102 0,31.53153c0,4.50007 0.09778,9.01504 0,13.51351c-0.03426,1.57643 0.28945,3.22744 -0.20063,4.72615c-0.77232,2.36179 -1.90293,4.67746 -3.49757,6.58316c-0.97051,1.15983 -2.55381,1.63601 -3.92098,2.28252c-0.15232,0.07203 -0.42811,-0.37678 -0.45923,-0.21119c-0.34503,1.83597 0.41379,3.97659 -0.54922,5.57736c-1.06267,1.76643 -3.40981,2.32808 -4.99756,3.64283c-1.68257,1.39327 -3.23024,2.96784 -4.59127,4.67661c-1.23388,1.54912 -1.93923,3.5185 -3.35467,4.9037c-4.64019,4.54107 -8.55864,5.89882 -13.69596,8.84022c-2.06186,1.18053 -3.80846,3.0509 -6.09557,3.69437c-2.6266,0.73898 -5.45139,0.26585 -8.17939,0.32181c-6.4978,0.1333 -13.01966,0 -19.51952,0c-82.58258,0 -165.16517,0 -247.74775,0c-13.01301,0 -26.02603,0 -39.03904,0h-18.01802c-2.4751,-0.02038 -5.00205,0.37378 -7.42431,-0.13533c-2.63765,-0.55437 -4.87641,-2.41832 -7.50751,-3.003c-1.95433,-0.4343 -4.05168,0.4343 -6.00601,0c-2.6311,-0.58469 -4.86471,-2.4737 -7.50751,-3.003c-2.5535,-0.51142 -5.27006,0.4992 -7.81235,-0.06531c-2.18509,-0.48519 -3.81585,-2.54124 -6.00601,-3.003c-2.37728,-0.50121 -4.8565,0.17072 -7.28586,0.20063c0,0 -13.34668,0 -15.01502,0c-14.01401,0 -28.02803,0 -42.04204,0c-3.74985,-0.01217 -7.51222,0.26995 -11.24954,-0.0365c-2.54353,-0.20856 -4.97673,-1.17261 -7.50751,-1.5015c-3.72803,-0.48448 -7.79424,0.74249 -11.49463,-0.16413c-0.77241,-0.18925 -7.83982,-3.57068 -8.66819,-4.21805c-4.92346,-3.8477 -6.70504,-7.24135 -8.92005,-13.37018c-0.34023,-0.94141 0.31567,-2.05308 0,-3.003c-1.58659,-4.77438 -4.88465,-8.9292 -6.07131,-13.81835c-1.05597,-4.35068 -0.41437,-8.96202 -0.13533,-13.43032c0.03597,-0.57595 0.83893,-1.12332 0.5709,-1.63438c-0.6575,-1.25368 -2.54205,-1.66452 -3.003,-3.003c-1.70914,-4.96288 -0.5709,-14.10412 -0.5709,-19.38664v-4.5045c0,0 0,-5.62553 4.87208,-7.13243z" fill="#e5d15c" stroke="none"/><path d="M313.40284,254.53033c-2.7229,0.00476 -6.10993,0.60206 -8.36395,-1.31653c-1.59554,-1.3581 -2.46314,-4.04933 -0.64064,-5.74356c0.61646,-0.57307 1.70805,-0.26501 2.42378,-0.70791c0.40056,-2.56925 1.98551,-4.76668 1.98551,-7.41069c0,-0.59459 0.15665,-1.36912 -0.23963,-1.91877c-0.60671,-0.84152 -2.38749,-0.50699 -3.2033,-0.50829c-2.42258,-0.00385 -5.78663,-0.30122 -7.3372,-2.59911c-0.81055,-1.20121 -0.76163,-3.82793 -0.56115,-5.21308c0.10785,-0.74514 0.01453,-1.65912 0.54691,-2.1915c1.46349,-1.46349 4.45451,-0.34044 5.86074,0.33948c1.70167,1.41032 2.03587,1.35017 4.16878,1.02723c0.21664,-0.0328 0.53514,0.17881 0.65732,-0.00308c0.12651,-0.18835 -0.16506,-0.42371 -0.22335,-0.64299c-0.12156,-0.45724 -0.21284,-0.92201 -0.31547,-1.38387c-0.36851,-1.65828 -0.58774,-3.4749 -0.3598,-5.18077c0.31099,-2.32734 0.95002,-5.53421 2.25785,-7.52916c1.46468,-2.23421 5.88916,-3.06423 8.22718,-1.94746c1.06706,0.50969 1.96882,2.12547 2.57349,3.02706c1.44761,2.54256 2.79226,5.34089 1.62404,8.27715c-0.54209,1.36251 -1.11576,1.73985 -2.04902,2.86123c-0.32091,0.38559 -0.90372,0.76223 -0.82627,1.25787c0.05173,0.33105 0.67511,0.09572 1.00461,0.03487c1.12047,-0.20692 1.19358,-0.30953 2.25517,-0.87203c2.06704,-1.09525 5.65271,-2.14997 6.76517,0.93988c0.23719,0.65878 -0.03604,1.40265 -0.12972,2.09653c-0.3509,2.59926 -1.41763,3.72979 -3.50929,5.1561c-1.88833,0.9452 -4.03505,1.90379 -6.06016,2.4982c-0.59055,0.17334 -1.50987,-0.11456 -1.93428,0.58625c-0.37333,0.61646 0.13029,1.43571 0.17333,2.15512c0.12843,2.1469 0.33669,4.22082 0.96405,6.30507c0.66468,2.20821 2.08819,5.31154 0.47149,7.58224c-0.83743,1.17619 -2.37209,1.18934 -3.58621,1.35563c0,0 -0.81307,0.10164 -1.22783,-0.50267z" data-paper-data="{&quot;index&quot;:null}" fill="#e9d877" stroke="none"/><path d="M424.9893,229.57022c-0.41476,0.60431 -1.22783,0.50267 -1.22783,0.50267c-1.21412,-0.16629 -2.74878,-0.17944 -3.58621,-1.35563c-1.6167,-2.2707 -0.19319,-5.37403 0.47149,-7.58224c0.62736,-2.08425 0.83562,-4.15817 0.96405,-6.30507c0.04304,-0.71941 0.54666,-1.53866 0.17333,-2.15512c-0.42441,-0.70081 -1.34373,-0.41291 -1.93428,-0.58625c-2.02511,-0.59441 -4.17183,-1.553 -6.06016,-2.4982c-2.09166,-1.42631 -3.15839,-2.55684 -3.50929,-5.1561c-0.09368,-0.69388 -0.36691,-1.43775 -0.12972,-2.09653c1.11246,-3.08985 4.69813,-2.03513 6.76517,-0.93988c1.06159,0.5625 1.1347,0.66511 2.25517,0.87203c0.3295,0.06085 0.95288,0.29618 1.00461,-0.03487c0.07745,-0.49564 -0.50536,-0.87228 -0.82627,-1.25787c-0.93326,-1.12138 -1.50693,-1.49872 -2.04902,-2.86123c-1.16822,-2.93626 0.17643,-5.73459 1.62404,-8.27715c0.60467,-0.90159 1.50643,-2.51737 2.57349,-3.02706c2.33802,-1.11677 6.7625,-0.28675 8.22718,1.94746c1.30783,1.99495 1.94686,5.20182 2.25785,7.52916c0.22794,1.70587 0.00871,3.52249 -0.3598,5.18077c-0.10263,0.46186 -0.19391,0.92663 -0.31547,1.38387c-0.05829,0.21928 -0.34986,0.45464 -0.22335,0.64299c0.12218,0.18189 0.44068,-0.02972 0.65732,0.00308c2.13291,0.32294 2.46711,0.38309 4.16878,-1.02723c1.40623,-0.67992 4.39725,-1.80297 5.86074,-0.33948c0.53238,0.53238 0.43906,1.44636 0.54691,2.1915c0.20048,1.38515 0.2494,4.01187 -0.56115,5.21308c-1.55057,2.29789 -4.91462,2.59526 -7.3372,2.59911c-0.81581,0.0013 -2.59659,-0.33323 -3.2033,0.50829c-0.39628,0.54965 -0.23963,1.32418 -0.23963,1.91877c0,2.64401 1.58495,4.84144 1.98551,7.41069c0.71573,0.4429 1.80732,0.13484 2.42378,0.70791c1.8225,1.69423 0.9549,4.38546 -0.64064,5.74356c-2.25402,1.91859 -5.64105,1.32129 -8.36395,1.31653z" data-paper-data="{&quot;index&quot;:null}" fill="#e9d877" stroke="none"/><path d="M90.45747,255.917c-0.56327,0.82069 -1.66746,0.68266 -1.66746,0.68266c-1.64885,-0.22583 -3.733,-0.24369 -4.87028,-1.84102c-2.19557,-3.08374 -0.26236,-7.29824 0.64031,-10.29712c0.85199,-2.83053 1.13482,-5.64704 1.30924,-8.56265c0.05845,-0.977 0.7424,-2.08959 0.23539,-2.92678c-0.57637,-0.95174 -1.82486,-0.56076 -2.62686,-0.79616c-2.75022,-0.80724 -5.66559,-2.10906 -8.23005,-3.3927c-2.8406,-1.93701 -4.28928,-3.47234 -4.76582,-7.00228c-0.12722,-0.94233 -0.49829,-1.95255 -0.17617,-2.84721c1.51079,-4.1962 6.38033,-2.76382 9.18749,-1.27641c1.4417,0.76391 1.54099,0.90326 3.06265,1.18427c0.44748,0.08264 1.29407,0.40223 1.36432,-0.04736c0.10518,-0.67311 -0.68631,-1.18461 -1.12212,-1.70826c-1.26742,-1.5229 -2.0465,-2.03535 -2.78269,-3.88572c-1.58651,-3.98761 0.2396,-7.78791 2.20554,-11.24085c0.82118,-1.22441 2.04582,-3.41873 3.49495,-4.11092c3.17517,-1.51664 9.18387,-0.38942 11.17299,2.64476c1.77611,2.70926 2.64395,7.06437 3.06629,10.22504c0.30956,2.31667 0.01183,4.78375 -0.48863,7.03579c-0.13938,0.62723 -0.26334,1.25842 -0.42843,1.87938c-0.07916,0.29779 -0.47513,0.61743 -0.30332,0.87322c0.16593,0.24702 0.59847,-0.04036 0.89268,0.00418c2.89662,0.43857 3.35048,0.52026 5.66144,-1.39504c1.90974,-0.92337 5.97172,-2.44854 7.95922,-0.46103c0.723,0.723 0.59627,1.96424 0.74274,2.97618c0.27226,1.88111 0.3387,5.44835 -0.76207,7.07966c-2.10576,3.12067 -6.67434,3.52451 -9.96434,3.52974c-1.10792,0.00177 -3.52632,-0.45255 -4.35027,0.69029c-0.53817,0.74646 -0.32543,1.79831 -0.32543,2.6058c0,3.59072 2.15245,6.57496 2.69644,10.06415c0.972,0.60148 2.45445,0.18312 3.29163,0.96138c2.47506,2.30086 1.29681,5.95571 -0.87003,7.80009c-3.06109,2.60556 -7.66087,1.79439 -11.35873,1.78792z" fill="#e9d877" stroke="none"/><path d="M127.17744,195.16477c-0.41476,0.60431 -1.22783,0.50267 -1.22783,0.50267c-1.21412,-0.16629 -2.74878,-0.17944 -3.58621,-1.35563c-1.6167,-2.2707 -0.19319,-5.37403 0.47149,-7.58224c0.62736,-2.08425 0.83562,-4.15817 0.96405,-6.30507c0.04304,-0.71941 0.54666,-1.53866 0.17333,-2.15512c-0.42441,-0.70081 -1.34373,-0.41291 -1.93428,-0.58625c-2.02511,-0.59441 -4.17183,-1.553 -6.06016,-2.4982c-2.09166,-1.42631 -3.15839,-2.55684 -3.50929,-5.1561c-0.09368,-0.69388 -0.36691,-1.43775 -0.12972,-2.09653c1.11246,-3.08985 4.69813,-2.03513 6.76517,-0.93988c1.06159,0.5625 1.1347,0.66511 2.25517,0.87203c0.3295,0.06085 0.95288,0.29618 1.00461,-0.03487c0.07745,-0.49564 -0.50536,-0.87228 -0.82627,-1.25787c-0.93326,-1.12138 -1.50693,-1.49872 -2.04902,-2.86123c-1.16822,-2.93626 0.17643,-5.73459 1.62404,-8.27715c0.60467,-0.90159 1.50643,-2.51737 2.57349,-3.02706c2.33802,-1.11677 6.7625,-0.28675 8.22718,1.94746c1.30783,1.99495 1.94686,5.20182 2.25785,7.52916c0.22794,1.70587 0.00871,3.52249 -0.3598,5.18077c-0.10263,0.46186 -0.19391,0.92663 -0.31547,1.38387c-0.05829,0.21928 -0.34986,0.45464 -0.22335,0.64299c0.12218,0.18189 0.44068,-0.02972 0.65732,0.00308c2.13291,0.32294 2.46711,0.38309 4.16878,-1.02723c1.40623,-0.67992 4.39725,-1.80297 5.86074,-0.33948c0.53238,0.53238 0.43906,1.44636 0.54691,2.1915c0.20048,1.38515 0.2494,4.01187 -0.56115,5.21308c-1.55057,2.29789 -4.91462,2.59526 -7.3372,2.59911c-0.81581,0.0013 -2.59659,-0.33323 -3.2033,0.50829c-0.39628,0.54965 -0.23963,1.32418 -0.23963,1.91877c0,2.64401 1.58495,4.84144 1.98551,7.41069c0.71573,0.4429 1.80732,0.13484 2.42378,0.70791c1.8225,1.69423 0.9549,4.38546 -0.64064,5.74356c-2.25402,1.91859 -5.64105,1.32129 -8.36395,1.31653z" fill="#e9d877" stroke="none"/><path d="M173.76169,202.04737c-2.37239,0.00415 -5.32342,0.52456 -7.28729,-1.14706c-1.39015,-1.18328 -2.14607,-3.52807 -0.55817,-5.00421c0.53711,-0.4993 1.48818,-0.2309 2.11177,-0.61678c0.349,-2.23852 1.72992,-4.15308 1.72992,-6.45674c0,-0.51805 0.13648,-1.19288 -0.20878,-1.67177c-0.52861,-0.73319 -2.08016,-0.44173 -2.79095,-0.44286c-2.11073,-0.00335 -5.04174,-0.26244 -6.39271,-2.26454c-0.70621,-1.04658 -0.66359,-3.33517 -0.48892,-4.54202c0.09397,-0.64922 0.01266,-1.44555 0.47651,-1.9094c1.2751,-1.2751 3.8811,-0.29662 5.10631,0.29578c1.48262,1.22877 1.7738,1.17637 3.63215,0.895c0.18875,-0.02858 0.46625,0.15579 0.57271,-0.00268c0.11022,-0.1641 -0.14381,-0.36917 -0.1946,-0.56022c-0.10591,-0.39838 -0.18544,-0.80332 -0.27486,-1.20573c-0.32107,-1.44482 -0.51208,-3.02759 -0.31348,-4.51387c0.27096,-2.02775 0.82773,-4.82181 1.9672,-6.55996c1.27614,-1.94661 5.13107,-2.66978 7.16812,-1.69677c0.9297,0.44408 1.71538,1.85187 2.24221,2.6374c1.26126,2.21526 2.43282,4.65338 1.41498,7.21166c-0.47231,1.18712 -0.97213,1.51588 -1.78526,2.49291c-0.2796,0.33595 -0.78739,0.66411 -0.71991,1.09595c0.04507,0.28844 0.58821,0.0834 0.87529,0.03038c0.97624,-0.18028 1.03993,-0.26969 1.96487,-0.75978c1.80096,-0.95426 4.92506,-1.87321 5.89431,0.81889c0.20666,0.57398 -0.0314,1.22209 -0.11302,1.82665c-0.30573,2.26467 -1.23514,3.24967 -3.05755,4.49237c-1.64525,0.82353 -3.51563,1.65872 -5.28006,2.17662c-0.51453,0.15103 -1.31551,-0.09981 -1.68529,0.51078c-0.32527,0.53711 0.11352,1.2509 0.15102,1.8777c0.1119,1.87054 0.29335,3.67749 0.83995,5.49344c0.57912,1.92395 1.81938,4.6278 0.4108,6.6062c-0.72963,1.02478 -2.06674,1.03624 -3.12457,1.18112c0,0 -0.70841,0.08856 -1.06978,-0.43796z" data-paper-data="{&quot;index&quot;:null}" fill="#e9d877" stroke="none"/><path d="M274.31817,241.2897c-1.89282,0.00331 -4.24732,0.41852 -5.8142,-0.91519c-1.10914,-0.94408 -1.71225,-2.81489 -0.44534,-3.99264c0.42853,-0.39837 1.18735,-0.18422 1.68489,-0.4921c0.27845,-1.78602 1.38023,-3.31356 1.38023,-5.15154c0,-0.41333 0.1089,-0.95174 -0.16658,-1.33383c-0.42175,-0.58498 -1.65966,-0.35243 -2.22678,-0.35334c-1.68406,-0.00268 -4.02258,-0.20939 -5.10046,-1.80677c-0.56345,-0.83502 -0.52945,-2.66099 -0.39008,-3.62387c0.07497,-0.51798 0.0101,-1.15334 0.38018,-1.52342c1.01735,-1.01735 3.09655,-0.23666 4.0741,0.23599c1.18292,0.98038 1.41524,0.93857 2.89793,0.71408c0.1506,-0.0228 0.372,0.1243 0.45694,-0.00214c0.08794,-0.13093 -0.11474,-0.29454 -0.15526,-0.44697c-0.0845,-0.31785 -0.14796,-0.64094 -0.2193,-0.962c-0.25617,-1.15275 -0.40857,-2.41558 -0.25012,-3.60141c0.21618,-1.61785 0.66041,-3.84711 1.56955,-5.2339c1.01817,-1.55311 4.09385,-2.1301 5.71913,-1.35378c0.74177,0.35431 1.36863,1.47752 1.78896,2.10426c1.00631,1.76746 1.94104,3.71272 1.12895,5.75386c-0.37683,0.94715 -0.77562,1.20946 -1.42438,1.98899c-0.22308,0.26804 -0.62822,0.52986 -0.57438,0.87441c0.03596,0.23013 0.4693,0.06654 0.69836,0.02424c0.7789,-0.14384 0.82972,-0.21517 1.56768,-0.60619c1.4369,-0.76136 3.92948,-1.49455 4.70281,0.65336c0.16488,0.45795 -0.02505,0.97505 -0.09017,1.4574c-0.24393,1.80688 -0.98547,2.59276 -2.43948,3.58426c-1.31267,0.65706 -2.80497,1.32342 -4.21272,1.73662c-0.41052,0.1205 -1.04959,-0.07964 -1.34462,0.40753c-0.25952,0.42853 0.09057,0.99803 0.12049,1.49813c0.08928,1.49242 0.23405,2.9341 0.67016,4.38297c0.46205,1.53504 1.45161,3.69232 0.32776,5.2708c-0.58214,0.81763 -1.64896,0.82677 -2.49296,0.94237c0,0 -0.56521,0.07066 -0.85353,-0.34943z" data-paper-data="{&quot;index&quot;:null}" fill="#e9d877" stroke="none"/><path d="M-45.23626,277.91902c-1.3272,-1.09756 -2.39203,-2.85872 -2.39203,-5.6847c0,-7.5 7.5,-7.5 7.5,-7.5c0.5095,0.83957 1.55821,-1.26583 2.49085,-1.57349c1.93523,-0.6384 4.05273,-0.44609 6.08671,-0.5709c1.83557,-0.11264 3.69627,0.31642 5.51679,0.05619c2.48164,-0.35473 4.73868,-1.74933 7.22037,-2.10374c1.81195,-0.25876 3.6599,-0.07872 5.49014,-0.09684c4.0269,-0.03988 8.73283,-0.43208 12.71051,0.05619c3.51506,0.43149 6.92284,1.49743 10.37879,2.27091c6.39708,1.43174 12.28724,4.2029 18.85546,4.2029c1.98607,0.69849 4.0986,1.10844 5.9582,2.09547c1.02764,0.54544 7.92535,3.16772 9.64909,3.73956c0.95946,0.31829 4.36547,1.74619 5.36097,2.14439c0.93857,0.37543 4.58936,1.54206 5.73642,1.8953c2.6104,0.80387 9.57962,3.8792 10.82213,4.06381c4.40776,0.65489 8.25826,3.00351 12.31592,4.39257c1.48673,0.50895 3.13859,-0.20063 4.71002,-0.20063c3.21658,0 6.43317,0 9.64975,0c2.14439,0 9.28141,-0.85869 9.99621,-1.57349c4.43893,-0.4419 7.62553,-1.67167 11.86892,-2.51466c2.30628,-0.45817 4.71888,-0.33117 6.99225,-0.93168c1.25894,-0.33255 2.2489,-1.33076 3.45261,-1.82734c1.19411,-0.49261 4.43937,-2.98841 5.12938,-3.67328c0.61263,-0.60807 9.74112,-7.51128 10.54516,-7.9224c2.07368,-1.0603 4.48797,-1.29829 6.61883,-2.23841c2.86479,-1.26393 5.24907,-3.53387 8.1984,-4.58555c0.8088,-0.2884 3.23449,-2.27343 4.07174,-2.87722c5.73405,-4.13517 20.10598,-10.17994 22.46509,-10.95626c1.9939,-0.65614 7.55709,-0.5709 10.37549,-0.5709c8.93495,0 17.86991,0 26.80486,0c3.21876,0 12.68739,-0.83921 13.80935,-0.97535c4.57908,-0.55565 10.82388,0.64858 14.7941,3.16766c4.55483,2.89002 5.98043,7.20941 8.15535,11.6623c1.30394,2.66966 3.82067,4.72629 4.7296,7.55492c0.52915,1.64675 0.25363,9.25501 0.22497,10.88011c-2.44826,6.96133 -6.94776,14.16138 -14.01875,17.45163c-4.26563,1.98487 -9.16076,2.0216 -13.62692,2.68869c-3.02266,0.45148 -5.52318,1.85916 -8.67774,1.91942c-1.13693,0.02172 -1.02965,2.04519 -1.73429,2.9377c-0.78353,0.99244 -0.34361,4.00846 0.42624,4.8074c1.68871,1.75251 3.17478,3.71663 4.44235,5.7942c1.24891,2.04699 2.3455,4.22085 3.06388,6.50861c0.20995,0.66863 2.24157,6.85959 3.86167,8.76236c1.96445,2.30721 4.01312,2.72283 5.41781,6.17357c1.00004,2.45668 0.56348,12.10865 -0.31654,13.91442c-0.98128,2.01357 -3.41537,2.90034 -5.07423,4.40552c-2.12118,1.92469 -4.27333,3.91669 -6.82075,5.22608c-1.79508,0.92268 -4.07243,0.71936 -5.78532,1.78691c-1.187,0.73979 -1.89683,2.23235 -3.21725,2.6936c-1.81168,0.63286 -3.87138,0.00118 -5.7406,0.43558c-1.87469,0.43567 -3.46939,1.78918 -5.36097,2.14439c-0.98656,0.18526 -13.69956,0.13533 -14.28464,0.13533c-8.93495,0 -17.86991,0 -26.80486,0c-57.5411,0 -115.0822,0 -172.6233,0c-4.99475,0 -10.0183,0.14944 -15.01072,0c-2.15576,-0.06453 -4.39178,0.28232 -6.46216,-0.32181c-1.78669,-0.52136 -9.75911,-6.05661 -10.55792,-7.39468c-1.2335,-2.06623 -0.62105,-4.81184 -1.44282,-7.07359c-0.2234,-0.61487 -1.21979,-0.63212 -1.55995,-1.19092c-0.26686,-0.43841 -0.52919,-0.88009 -0.78634,-1.32503c1.0619,-0.46379 2.12216,-0.93666 3.25424,-1.1047c1.29077,-0.19159 2.65517,0.21154 3.91229,-0.13838c1.53979,-0.4286 2.75144,-1.70704 4.28878,-2.14439c1.22484,-0.34845 2.61097,0.24757 3.8169,-0.16157c3.71509,-1.26044 5.18132,-3.48451 9.04594,-3.93462c3.3552,-0.39078 6.75204,-0.32334 10.11036,-0.68628c0.27572,-0.27572 0.52495,-0.5873 0.77833,-0.89323c1.05781,-0.07529 2.12303,-0.16049 3.15629,-0.30617c2.03663,0.15753 4.12432,-0.18378 6.17707,-0.18378c5.83429,0 13.27174,0.99895 18.83756,-0.7612c0.1985,-0.06277 0.36637,-0.17472 0.51603,-0.3162c0.45362,-0.14347 0.89325,-0.31842 1.31632,-0.52227c10.25978,-0.07291 20.13471,-2.45185 20.48553,-14.24186c0.24289,-8.16288 0.58072,-9.78246 -0.98613,-16.04984c-0.15349,-0.61397 -2.13709,-2.35047 -2.13934,-2.35328c-0.99086,-1.23451 -1.45741,-3.50231 -2.6892,-4.82801c-1.85193,-1.99311 -3.79741,-3.8992 -5.77145,-5.77145c-3.07891,-2.92016 -7.29957,-4.11242 -10.61275,-6.5985c-3.23837,-2.42995 -8.49749,-6.03279 -12.61838,-6.14189c-0.14949,-0.00396 -9.69222,-0.77459 -16.25672,0.00045c-1.27321,0.01205 -2.48953,0.26206 -3.60662,0.70767c-0.49681,0.15789 -0.93366,0.33765 -1.29671,0.54188c-0.14752,0.08298 -0.28864,0.17241 -0.42383,0.26779c-1.13875,0.21771 -2.56049,0.41423 -3.91338,0.64969c-0.77142,0.02088 -1.53432,0.03462 -2.28483,0.03462c-8.90615,0 -17.8123,0 -26.71845,0c0.34802,-1.74172 -0.27553,-3.60572 0.02386,-5.34927zM226.31773,340.53904c0.01282,-0.00944 0.02439,-0.01965 0.03446,-0.03074c0.04281,-0.04719 0.0206,-0.02162 -0.03446,0.03074z" fill="#b46000" stroke="none"/><path d="M218.34603,253.86103h-2.50139c-0.21037,0.1262 -1.0982,0.09286 -2.04831,0.03098c-0.70889,0.02582 -1.41754,0.04712 -2.12067,-0.03098c-0.04261,-0.00473 -0.05863,-0.05012 -0.06463,-0.10833c-0.17912,-0.00448 -0.31821,-0.00177 -0.40159,0.01149c-0.08085,0.01286 -0.16079,0.02951 -0.23998,0.04924c-1.32477,1.04881 -1.67836,3.42982 -3.25903,4.16294c-1.22674,0.56896 -2.5844,0.70133 -3.96066,0.75692c-0.05437,0.11851 -0.10918,0.23556 -0.16433,0.35104c-1.26083,2.64006 -4.47685,3.8348 -7.0478,5.23118c-0.96973,0.5267 -2.57836,-0.10906 -3.21424,0.79284l-2.50139,1.6676c0,0 -1.81245,1.20831 -4.13499,1.34577c-1.37327,1.90149 -2.53365,3.99477 -4.26158,5.56527c-1.12075,1.01864 -2.77884,1.29655 -3.92879,2.28211c-0.83184,0.71292 -1.03793,1.99485 -1.87971,2.69601c-1.90697,1.58841 -4.32502,2.55744 -6.04518,4.34646c-3.13007,2.11042 -7.34665,5.1607 -10.9195,6.38091c-1.09796,0.37498 -2.33097,0.02252 -3.4734,0.22496c-4.34834,0.77055 -8.38324,0.93064 -12.87452,0.93064c-1.85375,0 -5.80877,0.05727 -7.17616,-0.32181c-0.96568,-0.26771 -1.5579,-1.32992 -2.50139,-1.6676c-0.48514,-0.17363 -1.01987,0.30192 -1.52937,0.22496c-0.86904,-0.13126 -1.63856,-0.66653 -2.50139,-0.8338c-0.10711,-0.02076 -0.21514,-0.04044 -0.32405,-0.05908c-0.74893,0.43243 -1.29542,1.2925 -2.13777,1.50171c-3.23875,0.80439 -7.92198,0.32181 -11.34514,0.32181c-1.8051,0 -3.61022,0 -5.41532,0c-0.76988,0.5347 -1.52843,1.08787 -2.41686,1.34578c-1.52954,0.44403 -3.18918,0.08745 -4.76953,0.28531c-1.4062,0.17606 -2.75922,0.68901 -4.16898,0.8338c-0.78149,0.08026 -1.59157,-0.36495 -2.35107,-0.16413c-1.20166,0.31772 -2.12853,1.36939 -3.33518,1.66759c-3.88654,0.96047 -9.41251,0.20063 -13.3963,0.20063c-3.49875,0 -8.31207,0.64372 -11.7287,-0.20063c-1.20665,-0.2982 -2.142,-1.31941 -3.33519,-1.66759c-1.17343,-0.34242 -2.56858,0.20266 -3.64837,-0.37027c-0.09527,-0.05055 -0.18681,-0.10607 -0.27513,-0.16589c-7.41862,0.30629 -15.89475,1.08276 -22.40139,-1.57195c-4.68397,-1.91105 -9.88894,-5.97251 -13.39392,-9.39675c-0.87262,-0.56167 -1.4115,-1.71754 -2.42124,-1.95706c-0.66642,-0.15808 -1.39284,0.31018 -2.05116,0.12117c-1.19469,-0.34299 -2.14006,-1.32613 -3.33519,-1.6676c-0.80172,-0.22906 -1.71178,0.26783 -2.50139,0c-2.10052,-0.71247 -4.12204,-1.69818 -5.99736,-2.88264c-1.59932,-1.01013 -3.32261,-3.39643 -5.29222,-3.90891c-1.0759,-0.27994 -2.26623,0.30541 -3.33518,0c-0.33946,-0.09699 -0.67213,-0.26602 -1.00175,-0.45392c-5.05713,-0.01265 -10.1149,-0.05806 -15.16839,-0.05806c-2.77932,0 -5.55864,0 -8.33796,0c-1.19567,0 -2.4254,-0.42894 -3.58447,-0.13532c-2.16531,0.54853 -3.77452,2.5111 -5.9153,3.1487c-2.71728,0.8093 -6.77173,0.32181 -9.67755,0.32181c0,0 -7.5,0 -7.5,-7.5c0,-7.5 7.5,-7.5 7.5,-7.5c1.78017,0 3.75976,1.15897 5.33079,0.32181c2.41759,-1.28827 4.76718,-2.85987 7.42545,-3.52167c4.34183,-1.08094 10.29624,-0.13533 14.75905,-0.13533c2.16266,0 4.32547,-0.00356 6.48836,-0.008c1.79428,-0.82579 3.51721,-0.82579 3.51721,-0.82579h2.50139c1.83619,0.10727 3.72348,-0.12154 5.50857,0.32181c0.32878,0.08166 0.61102,0.26722 0.87784,0.48775c3.67648,0.00349 7.35278,0.01933 11.02856,0.06074c2.40075,0.47009 4.72904,1.27299 7.13271,1.72794c1.95824,0.37065 4.05926,-0.32531 5.9748,0.22496c1.25119,0.35942 2.16559,1.4742 3.36216,1.98692c1.27549,0.54654 2.79163,0.47738 3.99627,1.16616c1.25636,0.71834 2.0201,2.09367 3.19148,2.94357c1.86975,1.35662 4.265,1.82187 6.22803,3.03963c3.66514,2.27366 7.00736,5.05446 10.8641,7.0702c2.72155,1.42243 6.3225,0.39816 8.90796,1.55234c0.84208,0.37592 1.38656,1.16922 1.961,1.93049c3.3924,0 6.78481,0 10.17722,0c1.19567,0 2.43664,0.4702 3.58447,0.13533c1.43681,-0.41919 2.70813,-1.34197 4.16899,-1.6676c0.77923,-0.17368 6.22773,-0.13533 7.25488,-0.13533c5.21174,0 10.42348,0 15.63522,0c2.07397,-1.11888 4.14947,-2.24901 6.3715,-3.01338c0.93115,-0.32031 2.00087,0.13515 2.95162,-0.12117c2.40994,-0.64974 4.43581,-2.33586 6.80123,-3.13259c0.04534,-0.01527 8.83543,-2.47737 9.9703,-2.97579c5.45049,-2.39377 9.71908,-6.72127 15.36116,-8.91445c3.45353,-2.8558 6.70802,-5.40803 10.91154,-7.11942c1.48492,-0.60456 3.10902,-0.83304 4.57777,-1.47586c5.43586,-2.3791 10.51026,-6.76829 16.13009,-8.77879c0.78507,-0.28086 1.69976,0.22938 2.50139,0c0.42776,-0.1224 0.52043,-0.76187 0.91032,-0.97623c1.7295,-0.95085 3.47555,-1.94936 5.37649,-2.48014c3.10929,-0.86817 7.65504,-0.20063 10.89491,-0.20063c5.83658,0 11.67315,0 17.50973,0c5.17417,0 11.70776,-1.04088 16.73149,0.20063c1.20665,0.2982 2.14278,1.31674 3.33518,1.6676c0.63391,0.18652 1.32743,-0.21004 1.97961,-0.10379c0.86746,0.14132 1.6334,0.6958 2.50139,0.8338c3.36431,0.5349 6.71998,-0.93363 10.14378,0.22496c3.885,1.31466 5.32949,3.02464 7.19162,5.51194c1.94587,0.89915 3.97157,2.77124 3.97157,6.66904c0,7.5 -7.5,7.5 -7.5,7.5l-6.83379,-3c-0.50372,-0.72622 -1.10302,-1.3955 -1.53616,-2.16379c-1.9465,0.69772 -6.64616,0.22199 -7.83975,0.06416c-3.25167,-0.42998 -5.80881,-1.51713 -8.85975,-2.60518c-1.29301,-0.46112 -2.74066,0.20063 -4.11343,0.20063c-0.42196,0 -0.84392,0 -1.26588,0c-1.34527,2.01101 -3.63714,3.33519 -6.23828,3.33519z" fill="#fffaae" stroke="none"/><path d="M32.49712,336.9473l-2.50139,0.8338c-5.90647,1.95643 -11.24916,2.05247 -17.38005,2.05247c-6.9483,0 -13.89661,0 -20.84491,0c-2.361,0 -6.46003,-0.9334 -8.639,0.19265c-7.68234,3.97011 -14.91555,8.83173 -23.87907,8.97911c0,0 -7.5,0 -7.5,-7.5c0,-7.5 7.5,-7.5 7.5,-7.5c2.76959,0.09819 3.64168,-0.78581 6.30164,-1.93049c5.55024,-2.38847 10.97726,-6.18998 16.96209,-7.18508c2.91762,-0.48511 6.28981,-0.05619 9.25434,-0.05619c2.15712,0 4.31422,0 6.47134,0c-0.69272,3.20962 0.92195,6.26641 4.84403,10.18849c1.21478,1.21478 3.28367,1.17515 5,1.25c7.56413,0.32988 19.16235,2.01196 27.13464,-0.90879c-1.34246,1.12365 -2.72365,1.58404 -2.72365,1.58404z" fill="#fffaae" stroke="none"/><path d="M335.69373,376.63085c-1.11087,0.27573 -2.30458,-0.15007 -3.43352,0.03848c-1.11475,0.18618 -2.09942,0.90113 -3.21659,1.0722c-4.00215,0.61283 -8.98479,0.09684 -12.9955,0.09684c-5.36097,0 -10.72195,0 -16.08292,0c-1.4296,0 -3.16002,0.8773 -4.28878,0h-5.36097c-4.14213,0 -7.5,-3.35787 -7.5,-7.5c0,-4.14213 3.35787,-7.5 7.5,-7.5h0.27994c0.3441,-1.56363 4.24229,-4.01484 5.13432,-5.02054c0.78803,-0.88844 -0.03233,-2.37491 -0.04792,-3.56237c-0.02044,-1.55662 0.19222,-4.20654 0.05231,-4.34645c-1.39778,-1.39778 -5.22679,-8.44324 -5.51198,-9.11342c-0.37701,-0.88597 -0.69475,-2.18631 -1.05741,-2.31885c-0.84534,-0.30894 -3.97393,-1.32795 -4.86118,-1.58238c-1.53641,-0.4406 -8.25438,-1.7278 -10.20016,-2.0406c-1.41684,-0.22777 -2.73843,-0.85941 -4.11212,-1.27445c-1.95943,-0.592 -4.35057,-0.39423 -5.88711,-1.7466c-7.66208,-6.74365 -8.50106,-11.28889 0.82511,-17.74437c1.96834,-1.36246 4.76864,-0.43939 7.1589,-0.57091c8.16411,-0.44923 16.48411,0 24.66047,0c8.93496,0 17.86991,0 26.80486,0c2.14439,0 4.28878,0 6.43317,0c1.0722,0 2.15789,-0.16964 3.21658,0c0.2198,0.03522 0.15827,0.68979 0.34646,0.57091c0.85463,-0.53988 1.18439,-1.82771 2.14438,-2.14439c1.93523,-0.6384 4.05273,-0.44609 6.08671,-0.5709c1.07018,-0.06567 2.15789,-0.16964 3.21659,0c0.2198,0.03522 0.15826,0.68979 0.34645,0.5709c0.85463,-0.53988 1.1825,-1.83352 2.14439,-2.14439c1.89558,-0.61263 3.99115,-0.15483 5.95754,-0.47406c4.41654,-0.71701 8.38376,-3.45093 12.96652,-2.99161c1.0722,-0.71479 1.99428,-1.73636 3.21659,-2.14439c0.95452,-0.31864 2.0947,0.46268 3.01826,0.06307c1.28504,-0.55602 1.94127,-2.09148 3.17968,-2.7448c1.70801,-0.90105 3.59983,-1.46645 5.49602,-1.83201c0.52984,-0.10215 1.0562,0.69647 1.54783,0.47406c0.92101,-0.41666 1.20146,-1.78004 2.14439,-2.14438c1.36163,-0.52614 2.95569,0.01541 4.36356,-0.37027c2.70065,-0.73984 4.85839,-2.81181 7.43057,-3.91851c2.20644,-0.94934 4.28014,-1.79243 6.26707,-2.76966c1.54886,-1.99993 3.8811,-2.77734 3.8811,-2.77734l1.47072,-0.48779c0.14521,-0.11165 0.29015,-0.22546 0.43485,-0.34154c3.76277,-3.01882 9.15433,-5.9697 10.91305,-10.42037c0,0 0.19128,-0.38255 0.57382,-0.91926c-2.11208,-5.29961 -5.6648,-10.09256 -8.21281,-15.17031c-0.59421,-1.55243 -0.92124,-3.23562 -1.78263,-4.65728c-1.13249,-1.86909 -2.91255,-3.27753 -4.12625,-5.09493c-1.23014,-1.84203 -2.21538,-3.86281 -3.63717,-5.56131c-1.42484,-1.70215 -2.17637,-4.12174 -4.08039,-5.26286c-2.60368,-1.56045 -5.4864,-2.6998 -7.87495,-4.57303c-0.67435,-0.52886 -1.05968,-1.38786 -1.7748,-1.86014c-1.33372,-0.88082 -2.9623,-1.25269 -4.28878,-2.14439c-1.55159,-1.04303 -2.63978,-2.72185 -4.27078,-3.63573c-1.92344,-1.07773 -4.7921,-0.09635 -6.49213,-1.10135c-2.01344,-1.19028 -3.00963,-3.58953 -4.66809,-5.23884c-1.22921,-1.22243 -4.92343,-0.67407 -5.56988,-0.97343c-3.97431,-1.84042 -7.88871,-7.08133 -11.01073,-10.20335c-2.0561,-2.15236 -3.47234,-4.83949 -5.06979,-7.35114c-1.38613,-2.17938 -4.15976,-3.41175 -5.13356,-5.80398c-1.15434,-2.83573 -0.77381,-9.21344 -0.5709,-12.51988c0.12482,-2.03398 -0.4128,-4.30205 0.5709,-6.08671c1.41163,-2.56101 3.64235,-4.79173 6.20336,-6.20336c2.97855,-1.64177 10.07602,-0.5709 13.59207,-0.5709c11.43674,0 22.87348,0 34.31022,0c4.64324,0 9.29645,-0.06054 13.93853,0c1.31488,0.01715 2.6573,0.41289 3.94267,0.13533c1.88128,-0.40625 3.48939,-1.69557 5.36097,-2.14439c0.5892,-0.1413 1.19484,0.64127 1.76476,0.43558c0.45272,-0.1634 0.22669,-1.0357 0.62919,-1.29961c1.8997,-1.24559 3.96439,-2.24667 6.07201,-3.09421c2.52244,-1.01436 4.63129,-0.61524 6.79433,-2.26676c1.3437,-1.02595 2.25233,-2.57428 3.65893,-3.51215c0.94033,-0.62698 2.275,-0.44709 3.21658,-1.07219c1.34085,-0.89018 2.05198,-2.59147 3.46433,-3.3632c1.79625,-0.9815 3.92768,-1.1546 5.88711,-1.7466c8.99313,-2.71707 19.51647,-1.37129 28.90177,-1.37129c3.14834,0.06901 6.39332,0.43941 9.30329,1.6431c1.11137,0.45971 2.00293,1.38751 3.1418,1.77412c0.47563,0.16146 0.99145,-0.18321 1.49344,-0.20063c2.85747,-0.09915 5.71837,0 8.57756,0c6.00812,0 12.42088,0.63099 18.38313,0.05619c3.74302,-0.36085 7.48212,-4.1238 10.98737,-5.21653c0.88118,-0.2747 1.89199,0.41685 2.76635,0.12118c1.22071,-0.4128 1.97782,-1.78942 3.21658,-2.14439c2.88571,-0.8269 13.6175,-0.78653 15.96952,-0.04967c6.19491,1.94078 8.68974,5.23666 12.95105,9.42992c0.81778,0.81778 4.69279,4.6601 5.06979,5.20675c0.90743,1.31576 1.21608,2.98766 2.14439,4.28878c0.9401,1.31764 2.53468,2.10127 3.39358,3.47323c1.11417,1.77973 1.39819,3.98163 2.42131,5.81522c0.87074,1.5605 2.35654,2.72236 3.21658,4.28878c0.52121,0.94929 4.92394,12.14652 5.11522,12.97808c0.33668,1.46374 -0.25544,3.0328 0.03848,4.50572c0.44234,2.21668 1.77318,4.20347 2.14439,6.43317c0.34029,2.04398 -0.40932,4.17756 -0.03848,6.21623c0.34444,1.89358 1.76902,3.47328 2.14439,5.36097c0.37312,1.87638 -0.24814,3.85134 0.06283,5.73902c0.97014,5.88899 3.42847,11.47507 4.31649,17.37699c0.73188,4.86424 0.04478,9.83791 0.04478,14.7569c0,8.22016 0,16.44031 0,24.66047c0,7.86276 0,15.72552 0,23.58828c0,0.52848 0.01929,9.9512 -0.05619,10.56612c-0.72609,5.91498 -2.90905,11.57554 -4.53168,17.26345c-0.69841,2.44817 -1.54465,4.87632 -1.90148,7.39702c-0.1881,1.32873 0.21486,2.73037 -0.14444,4.02336c-0.50887,1.83124 -1.75035,3.3851 -2.40962,5.16773c-1.72598,4.66693 -3.24658,9.454 -6.31079,13.57737c-1.20591,1.62273 -3.06756,2.67754 -4.28878,4.28878c-1.9009,2.50799 -2.60717,5.87033 -4.79445,8.13289c-2.11085,2.1835 -4.63618,3.92419 -6.95427,5.88628c-6.29661,6.25022 -13.87883,10.54314 -21.09744,15.5951c-5.0197,3.51305 -7.6306,6.49594 -14.20092,8.63156c-2.31108,0.7512 -4.85611,0.21735 -7.28598,0.25125c-3.57363,0.04986 -7.14796,0 -10.72194,0c-12.50894,0 -25.01787,0 -37.52681,0c-31.80843,0 -63.61687,0 -95.4253,0c-5.13237,-0.09053 -10.3815,-0.90204 -15.30036,-2.55034c-1.28623,-0.43101 -2.27534,-1.56029 -3.5779,-1.93907c-1.40169,-0.4076 -3.08402,0.33233 -4.36356,-0.37027c-2.23078,-1.22493 -4.19628,-3.04449 -5.65414,-5.1305c-2.13619,-3.05661 -2.33514,-6.80252 -2.27737,-10.45297l-0.00002,-0.00003c-1.28152,0.13489 -7.29026,0.40565 -8.39046,-6.19555c-0.11712,-0.70272 -0.15636,-1.34981 -0.13147,-1.9455c-1.30341,0.55682 -2.54556,1.30323 -3.9186,1.64403zM445.46068,257.12099c1.4915,0 2.90674,-0.32653 4.17813,-0.91201c6.03995,3.62397 21.57087,4.34841 23.81193,-4.61586c1.51492,-6.05966 0.79655,-19.55605 -2.50285,-25.05505c-1.39159,-2.31932 -3.68172,-4.47275 -4.95423,-7.01778c-1.93251,-3.86502 -3.95887,-8.14098 -8.03009,-10.5837c-4.76357,-2.85814 -12.89193,-4.17752 -18.27434,-2.98144c-2.9021,0.64491 -5.69603,1.42044 -8.46287,2.40429c-1.27939,0.45494 -2.08465,2.53569 -3.29998,3.48499c-5.57913,4.35785 -12.60513,15.7404 -12.66578,23.15651c-0.02719,3.32523 -1.39835,14.94188 2.48959,18.26274c7.40726,6.32685 19.30012,3.85731 27.71049,3.85731z" fill="#b46000" stroke="none"/><path d="M254.9384,315.65646c0,-5.67069 4.28757,-7.05382 6.37911,-7.39117c0.44874,-0.43306 0.92469,-0.8286 1.46669,-1.1331c7.08358,-3.97969 17.53095,-2.19231 25.38687,-2.19231c5.42458,0 12.7093,-1.1351 17.88085,0.5709c0.95999,0.31668 1.22338,1.72773 2.14439,2.14439c0.49163,0.22241 1.01243,-0.54127 1.54782,-0.47406c1.12139,0.14078 2.10553,0.86506 3.21658,1.07219c2.91046,0.54259 6.52419,-0.09684 9.52058,-0.09684c5.36097,0 10.72194,0 16.08292,0c2.50179,0 5.00357,0 7.50536,0c1.67223,0 3.40483,0.58714 5.01486,0.13533c1.85307,-0.52002 3.48451,-1.71643 5.36097,-2.14439c1.80299,-0.4112 4.42869,-0.15084 6.43317,0c2.85743,-1.24725 5.83017,-2.22879 8.64864,-3.56177c1.91418,-0.90531 3.08204,-2.96156 4.9096,-4.03099c1.95091,-1.14161 4.47637,-1.01289 6.43317,-2.14439c1.75021,-1.01204 2.58111,-3.20649 4.28878,-4.28878c0.75668,-0.47957 1.86473,-0.1512 2.60711,-0.65261c0.41111,-0.27766 0.20701,-0.98773 0.45646,-1.41653c0.77186,-1.32683 1.61299,-2.62296 2.5847,-3.81125c1.92176,-2.35008 4.73714,-3.8099 6.92993,-5.90936c2.71201,-2.59658 2.28286,-4.44364 4.57996,-7.65958c0.7805,-1.09271 2.16558,-1.66406 2.92102,-2.77424c0.5,-0.73479 0.3143,-1.77527 0.71471,-2.56874c0.73012,-1.44681 1.76092,-2.72113 2.64138,-4.0817c0,0 4.16025,-6.24038 10.40063,-2.08013c6.24038,4.16025 2.08013,10.40063 2.08013,10.40063c-1.32656,1.8935 -1.80779,4.28355 -3.07708,6.2159c-0.92816,1.41302 -2.52951,2.28324 -3.51215,3.65893c-2.19104,3.06745 -3.51439,6.79264 -6.14199,9.49553c-1.77564,1.82652 -4.3843,2.79267 -5.9364,4.81259c-2.09927,2.73201 -2.58858,5.13337 -5.53639,7.63855c-1.04307,0.88645 -2.62928,0.82731 -3.82605,1.49178c-1.76759,0.98138 -2.56002,3.2405 -4.28878,4.28878c-1.93281,1.17201 -4.52808,0.92785 -6.43317,2.14439c-2.07314,1.32386 -3.62726,3.41699 -5.81234,4.54656c-1.72334,0.89088 -11.23358,4.42494 -12.79525,5.01578c-2.14348,0.06258 -4.36853,-0.57939 -6.43317,0c-1.85307,0.52002 -3.48451,1.71643 -5.36097,2.14439c-4.61855,1.05333 -10.62913,0.13533 -15.35683,0.13533c-6.43317,0 -12.86633,0 -19.2995,0c-0.89929,0 -7.86967,0.03133 -8.70673,-0.09684c-1.11717,-0.17107 -2.10643,-0.86032 -3.21658,-1.07219c-1.60709,-0.30671 -3.35215,0.09703 -4.88534,-0.47406c-0.94729,-0.35285 -1.28976,-1.60451 -2.14439,-2.14439c-0.1882,-0.11888 -0.12553,0.54369 -0.34646,0.5709c-1.41887,0.17476 -2.85919,0 -4.28878,0c-2.50179,0 -5.00357,0 -7.50536,0c-3.93138,0 -7.86276,0 -11.79414,0c-2.34241,0 -5.03132,-0.96779 -6.49084,1.01988l-7.44769,2.1967c0,0 -7.5,0 -7.5,-7.5z" fill="#fffaae" stroke="none"/><path d="M344.5119,191.486c-4.01142,-1.00285 -9.34581,-2.20302 -11.69543,-6.11904c-2.2848,-3.808 -0.90688,-11.10662 3.99808,-12.43241c0.20689,-0.05592 0.41603,-0.10818 0.62716,-0.15673c1.36856,-1.46172 3.31559,-2.37514 5.47597,-2.37514h1.45028c2.10599,-1.42036 4.57934,-1.42036 4.57934,-1.42036c1.39855,0 2.82949,0 4.28632,0c0.05986,-0.03363 0.1203,-0.06585 0.18144,-0.09642c0,0 3.89881,-1.94941 7.23796,0.09642c11.14681,0 23.10202,0 33.32645,0c5.37489,0 11.92675,1.22919 16.92779,-0.68732c1.46231,-0.45341 2.87272,-1.13413 4.38692,-1.36023c0.53368,-0.07969 1.00856,0.49313 1.54782,0.47406c0.19774,-0.00699 -0.4019,-0.35626 -0.28879,-0.51859c0.57792,-0.82938 1.42959,-1.42959 2.14439,-2.14439c1.42959,-1.42959 2.82284,-2.89647 4.28878,-4.28878c1.15046,-1.09268 2.16486,-2.37108 3.50471,-3.22097c1.10164,-0.69879 2.54176,-0.69602 3.67877,-1.33566c2.76603,-1.55607 5.01588,-3.89031 7.55836,-5.78982c2.7308,-2.04021 4.87239,-5.09029 8.06304,-6.29007c1.9543,-0.73488 4.17793,-0.20361 6.24253,-0.51471c1.45714,-0.21957 2.82824,-0.8765 4.28878,-1.07219c3.97205,-0.5322 8.7389,-0.05619 12.71051,-0.05619c5.75009,0 11.43811,0.03566 17.1841,0.32181c2.59484,1.56792 3.51682,2.71351 6.24835,2.95097c1.69281,0.14716 3.44474,-0.25819 5.09555,0.14444c1.55281,0.37873 2.73852,1.75534 4.28878,2.14439c1.53266,0.38463 3.21925,-0.31162 4.73901,0.12118c1.23934,0.35294 1.99723,1.72759 3.21658,2.14439c0.67491,0.2307 1.40305,-0.28601 2.1154,-0.32181c2.49863,-0.12556 5.01068,-0.18846 7.50536,0c0.36287,0.02741 0.70864,0.46496 1.0432,0.32181c1.18473,-0.5069 1.99302,-1.74013 3.21658,-2.14439c0.80143,-0.26479 1.72949,0.54532 2.51984,0.24909c0.5998,-0.22481 0.51761,-1.2735 1.07153,-1.59517c1.9547,-1.13512 4.26534,-1.5042 6.43317,-2.14439c2.11371,-0.62421 1.67278,-4.2524 3.31775,-5.71919c1.56407,-1.39465 3.83926,-1.68094 5.75889,-2.52141c0,0 7.11512,-2.37171 9.48683,4.74342c2.37171,7.11512 -4.74342,9.48683 -4.74342,9.48683c-0.90333,-0.5051 -1.03492,1.79762 -1.64836,2.63117c-1.17716,1.59955 -2.62463,3.05035 -4.28572,4.13894c-1.89057,1.23899 -4.51485,0.94881 -6.43317,2.14439c-1.187,0.73979 -1.92436,2.16005 -3.21725,2.6936c-1.20824,0.49862 -2.6742,-0.16688 -3.91333,0.24909c-1.22162,0.41009 -1.97782,1.78942 -3.21658,2.14439c-1.11209,0.31867 -2.49468,0.47461 -3.97722,0.53646l-2.61347,1.74231c-6.17628,3.92942 -11.9087,4.92186 -19.17097,4.47621c-2.03398,-0.12482 -4.15148,0.06749 -6.08671,-0.5709c-0.95999,-0.31668 -1.21967,-1.73602 -2.14439,-2.14439c-0.46629,-0.20592 -0.94577,0.3806 -1.41865,0.5709c-4.13399,-0.16791 -8.34634,-1.42567 -11.89069,-3.56007c-0.63931,-0.385 -0.79317,-1.35601 -1.4543,-1.70221c-0.71876,-0.37637 -1.61879,-0.15465 -2.41255,-0.32262c-4.16688,-0.88177 -7.82593,-0.84826 -12.11951,-0.84826c-0.57985,0 -6.3565,-0.42573 -6.77896,-0.04792c-1.90432,1.70301 -2.787,4.38037 -4.7515,6.01359c-0.86908,0.72252 -2.32879,0.3728 -3.21658,1.07219c-0.7631,0.60116 -0.70943,1.86987 -1.39354,2.55958c-1.79391,1.80859 -4.33985,2.82761 -5.9364,4.81259c-2.32603,2.89193 -3.93209,6.44991 -6.77571,8.83476c-1.90625,1.59871 -4.62063,1.94513 -6.65824,3.37264c-2.327,1.54011 -4.96052,2.58173 -7.28029,4.13272c-0.98536,0.65881 -1.53976,1.88425 -2.58673,2.43995c-1.8596,0.98703 -3.89836,1.66026 -5.9582,2.09547c-0.60664,0.12817 -8.03106,0.09684 -8.70673,0.09684c-3.78238,0 -7.89315,0.4456 -11.63832,-0.05619c-1.46054,-0.19569 -2.82798,-0.87847 -4.28878,-1.07219c-3.88595,-0.51534 -8.13332,0.88354 -11.97895,-0.26562c-1.14447,-0.34199 -2.0878,-1.12765 -3.07937,-1.81956c-6.30847,1.40561 -13.38701,1.0933 -19.50152,-1.25527c-2.41565,-0.08249 -4.7449,-0.75939 -6.35372,-1.966z" fill="#fffaae" stroke="none"/><path d="M417.36477,267.10675c6.24038,4.16025 2.08013,10.40063 2.08013,10.40063l-1.93741,2.64355c-0.72925,0.71737 -1.73662,1.24813 -2.16112,2.17883c-1.22515,2.68611 -0.24263,5.65098 -0.77917,8.44101c-0.51335,2.66946 -1.48032,5.27859 -2.77717,7.66767c-1.39035,2.56133 -3.20887,4.89007 -5.1411,7.07181c-0.72032,0.81334 -2.37269,1.48238 -2.96969,2.62333c-4.8582,9.28459 -14.79179,15.9483 -25.48638,16.22806c-11.83728,0 -23.67456,0 -35.51184,0c-3.66771,0 -7.336,0.01741 -11.00367,0c-1.13695,-0.0054 -2.37208,-0.42436 -3.41066,0.03827c-1.78579,0.79548 -3.5491,1.72044 -5.4559,2.15163c-2.92492,1.16997 -5.70526,1.32153 -8.70312,2.05719c-4.87334,1.1959 -8.39448,3.13631 -13.67951,2.71873c-4.9262,-0.38922 -9.28342,-2.36017 -13.90224,-3.77559c-1.1241,-0.34448 -2.3481,-0.37071 -3.42501,-0.84245c-0.54935,-0.24064 -0.73465,-1.06664 -1.3111,-1.23217c-0.99706,-0.28631 -2.13782,0.319 -3.11184,-0.03791c-1.18906,-0.43571 -1.9328,-1.68498 -3.07611,-2.22954c-1.64228,-0.78223 -3.58668,-0.66906 -5.31588,-1.23371c0,0 -7.11512,-2.37171 -4.74342,-9.48683c2.37171,-7.11512 9.48683,-4.74342 9.48683,-4.74342c2.18097,0.74867 4.57559,0.84297 6.68812,1.76729c0.79909,0.34963 1.1049,1.47632 1.92556,1.77179c0.9065,0.32638 1.96994,-0.32334 2.89016,-0.03791c1.02504,0.31794 1.71211,1.32716 2.69023,1.76883c3.58872,1.62049 8.67332,2.90838 12.68276,3.38463c2.98737,0.35485 5.56402,-1.58383 8.32782,-2.28294c3.24488,-0.8208 5.27254,-0.73214 8.30255,-1.94414c3.57444,-0.56665 5.57088,-2.34395 9.52117,-2.7862c5.54448,-0.62073 11.53957,-0.02555 17.12411,-0.02555c11.00367,0 22.00734,0 33.011,0c4.00476,0.29846 9.69727,-3.43023 11.74469,-6.63202c0.41052,-0.64197 0.36815,-1.50817 0.7816,-2.14826c2.26688,-3.50952 5.89495,-5.68046 7.89455,-9.3112c1.921,-3.48802 0.77077,-7.5461 1.84025,-11.3452c1.26759,-4.50284 3.23835,-7.1358 6.44695,-10.38063l0.06326,-0.35745c0,0 4.16025,-6.24038 10.40063,-2.08013z" fill="#fffaae" stroke="none"/><path d="M88.17237,279.92058c0.44717,0.09937 1.04853,0.25215 1.73037,0.45941c1.74977,0.12016 3.33456,0.84049 4.55001,1.95666c2.12885,1.31295 3.61877,3.14481 2.42856,5.5255c0,3.62106 -2.56618,6.64276 -5.97914,7.34571c-0.35117,0.11333 -0.718,0.18279 -1.1016,0.20102c-1.92631,0.09154 -8.56672,4.1348 -10.95477,4.73182c-6.75588,1.68897 -14.22789,1.64053 -21.44659,1.53891c-9.26832,-0.13047 -16.0835,-5.9816 -21.69764,-12.56642c-3.00418,-3.52359 -5.95551,-8.5444 0.1644,-12.62434c10.0558,-6.70386 12.56587,10.14825 20.94117,9.94579c3.82034,-0.09235 7.64219,0.3653 11.46176,0.24497c2.60827,-0.08217 5.25544,-1.25163 7.75668,-1.57936c4.02501,-0.52739 7.29942,-4.909 11.74081,-4.909z" fill="#fffaae" stroke="none"/><path d="M44.57009,278.20117c-0.25817,0.04656 -0.43381,0.04656 -0.43381,0.04656c-3.91548,-0.08092 -10.50475,-1.46571 -7.45499,-7.67791c1.35661,-2.76335 4.64059,-1.83452 6.77999,-2.3107c1.64607,-0.36638 2.25507,-2.62863 3.76541,-3.37872c1.40344,-0.697 3.09015,-1.0453 4.63517,-0.78381c1.44116,0.24391 2.7147,1.21682 3.78771,2.20934c0.59096,0.54663 0.42131,1.63021 0.98478,2.20515c1.39668,1.4251 4.79738,-0.08411 5.74856,1.67001c0.91865,1.6941 0.40716,4.03863 -0.45179,5.76377c-0.64218,1.28978 -2.2845,1.80863 -3.60523,2.38448c-3.62506,1.58057 -8.53037,0.40412 -12.34367,0.38024c-0.40841,-0.2153 -0.90092,-0.36872 -1.41213,-0.50839zM56.69348,273.61108c-0.06513,0.0072 -0.13005,0.01241 -0.19485,0.01561c-0.00316,0.01434 -0.00645,0.02864 -0.00986,0.04289c0.02506,-0.00641 0.0501,-0.01291 0.07511,-0.01949c0.04372,-0.01151 0.08688,-0.02461 0.12959,-0.03901z" fill="#9e5400" stroke="#9e5400"/><path d="M62.88303,276.53386c2.13567,-0.18132 5.75411,3.4289 4.51379,5.86877c-0.61088,1.2017 -2.46151,1.1 -3.69225,1.65001l-2.49889,-0.88333c0,0 -0.04199,-0.01679 -0.11053,-0.05166c-0.03533,0.00193 -0.07091,0.0029 -0.10671,0.0029c-1.06589,0 -1.92998,-0.86408 -1.92998,-1.92998c0,-0.77045 0.45145,-1.43545 1.10426,-1.74492l1.36503,-0.68252c0.41694,-0.83593 0.48557,-2.15544 1.35528,-2.22928z" fill="#9e5400" stroke="#9e5400"/><path d="M357.14065,312.18817c-1.83161,0.0086 -5.71619,0.02424 -6.34133,-0.4318c-4.27511,-3.11869 -1.53004,-9.82449 1.32688,-12.51434c0.745,-0.70143 1.94199,-0.68908 2.81732,-1.21901c1.89916,-1.14978 3.61671,-2.8311 5.7876,-3.29588c1.63028,-0.34904 3.36735,0.32963 5.00167,0c3.14157,-0.63363 5.61276,-3.62709 9.20702,-1.72128c1.13524,0.60195 1.44007,2.13161 2.23927,3.1378c1.06041,1.33507 3.16151,1.5015 4.29875,2.77176c2.45106,2.73774 1.60548,4.86667 1.35919,8.08376c-3.15328,1.91249 -5.63402,4.26205 -9.38278,4.67467c-4.47174,0.4922 -8.64705,-0.60975 -12.96028,0.88421l-1.7909,0.12829c0,0 -0.85294,0 -1.56241,-0.4982z" fill="#9e5400" stroke="#9e5400"/><path d="M-14.03472,193.63838c-2.40246,-0.0099 -4.83978,-0.10382 -7.30513,-0.10382c0,0 -8.58777,0 -8.58777,-7.5c0,-7.5 8.58777,-7.5 8.58777,-7.5c3.64695,0 8.57583,0.69496 12.08604,0.20063c1.53918,-0.21675 2.38457,-1.76958 3.7067,-2.49115c3.3318,-1.81841 6.32866,-3.68831 9.51599,-5.75927c6.42883,-4.17711 13.86854,-6.88798 21.16117,-9.70947c3.81024,-1.47417 6.63642,-3.18608 10.9177,-3.18608c3.34585,-1.9209 6.7603,-2.33165 10.46087,-3.30035c2.81928,-0.73801 5.51046,-1.95797 8.42733,-2.30112c10.08698,-1.18666 21.33318,-0.05619 31.51068,-0.05619c4.93197,0 12.83136,-0.98147 17.3455,0.5709c1.97022,0.67754 3.14577,2.48678 4.8592,3.57329c1.88435,1.19489 4.45083,1.43576 6.2485,2.72851c2.08143,1.49682 3.71731,3.41173 5.57597,5.11759c2.24076,6.73834 3.53487,13.54722 -1.43788,19.85358c-1.1529,1.46209 -3.06171,2.34028 -4.68116,3.41321c-2.05143,1.35914 -3.93253,3.0388 -6.32204,3.87674c-1.80244,0.63208 -3.89082,0.12179 -5.81085,0.378c-1.97973,0.26419 -3.91286,0.75034 -5.85459,1.17869c-2.14005,0.4721 -4.21634,1.17881 -6.38833,1.52212c-2.57893,0.40763 -3.22688,-0.35502 -5.43364,0.34867c-1.35545,0.43222 -2.53024,1.29373 -3.93823,1.56957c-2.74364,0.53752 -7.58845,-0.6982 -10.1538,0c-1.11161,0.30254 -1.97894,1.18113 -3.12424,1.36426c-1.90729,0.30496 -3.90441,-0.21586 -5.81649,0.06531c-1.38259,0.20331 -2.53571,1.10234 -3.90531,1.36426c-2.55993,0.48955 -3.93081,-0.51477 -6.27656,0.66406c-1.21823,0.6122 -2.14401,1.5877 -3.21602,2.38156c-4.99607,2.18162 -8.85828,5.67416 -13.4025,8.46169c-1.82514,1.11958 -2.55811,3.25639 -4.28798,4.48594c-5.08344,3.61321 -11.87597,5.90787 -17.06435,9.3294c-1.33464,0.88015 -2.19801,2.27068 -3.63075,3.02408c-1.58163,0.83169 -3.56713,0.90173 -5.21558,1.62772c-1.25898,0.55447 -2.12848,1.67919 -3.41911,2.17507c-6.49493,2.49546 -17.36297,2.54231 -22.50735,-2.37584c-1.99894,-1.91103 -2.82839,-4.59022 -3.67535,-7.07066c-1.11342,-3.26076 -0.14194,-9.06201 -0.11316,-12.38926c0.58514,-2.07018 0.62818,-4.31908 1.75542,-6.21054c1.47862,-2.48107 4.53591,-4.15369 6.64006,-6.23787c0.98691,-0.97754 1.79424,-2.10019 2.76926,-3.08322z" fill="#b46000" stroke="none"/><path d="M84.89287,199.43559c-2.22495,0.08036 -4.92756,1.33131 -6.96975,1.83262c-5.30215,1.30156 -10.9624,1.63681 -16.08165,2.90547c-14.41236,3.57169 -26.28983,16.80312 -39.36041,23.09711c-5.67579,2.73312 -13.50879,8.696 -19.73098,4.29082c-2.02656,-1.43476 -4.42508,-2.95058 -5.08627,-5.26034c-5.50923,-19.24558 24.81233,-33.03658 40.87667,-39.74989c3.65276,-1.52649 8.04873,-2.06792 11.78874,-3.37185c4.81832,-1.67988 10.13006,-3.81359 15.36234,-3.87687c9.34265,-0.11298 18.68757,0.08372 28.03063,0c6.03468,-0.05408 10.93726,-5.88999 15.51978,-7.89103c1.92276,-0.8396 5.972,-3.54355 8.46985,-2.8164c5.46275,1.59027 12.57774,7.35516 5.69652,12.50625c-0.22543,1.03814 -0.69587,2.00054 -1.3568,2.83962c-10.15439,13.30227 -19.20189,14.84597 -37.15867,15.49449z" fill="#9e5400" stroke="none"/><path d="M78.36721,169.48296c-1.58364,0.34577 -4.1814,0.97571 -5.89403,0.99765c-8.43842,0.10808 -16.87964,0.11231 -25.31798,0c-2.68535,-0.03574 -5.64578,-2.75916 -6.81888,-2.76389c-0.78464,-0.00316 -5.47522,0.23651 -9.38491,0.05559c-1.51516,0.46126 -3.15511,0.81831 -4.78598,1.00325c-2.2453,1.56065 -4.18071,3.63881 -6.30913,5.23208c-6.21455,4.65204 -13.76554,12.11914 -22.50727,12.8751c-0.75761,0.06552 -12.26399,1.45938 -13.77844,-0.85521l-4.22917,-6.46361c1.24189,-1.89804 1.6684,-4.51301 3.40199,-5.97872c0.26439,-0.22353 0.55918,-0.42033 0.89189,-0.58378c5.16872,-2.53919 10.67833,0.1896 15.48268,-3.15497c6.08769,-4.23798 16.62682,-15.59522 24.51099,-17.3166c0.16177,-0.03532 0.3245,-0.06974 0.48812,-0.10328c0.77498,-0.20436 1.53586,-0.34212 2.25903,-0.4009c9.70421,-1.47667 21.83862,-0.4142 30.2733,-0.49347c6.92081,-0.06503 16.5963,-4.71698 23.17435,-4.27006c1.80134,0.12238 3.55795,-0.9096 5.33635,-0.9096c3.34274,0 22.71148,-2.17656 30.10585,2.88851c0.60389,0.1972 1.17556,0.45208 1.70622,0.75695c1.57958,0.49583 2.94462,1.38449 3.94066,2.53106c0.25595,0.2309 0.48129,0.48835 0.66845,0.77893c3.14328,4.88016 0.26432,12.82936 -7.5143,12.82936c-2.54806,0 -4.66267,-0.88055 -6.17082,-2.23521c-2.14091,-0.33627 -4.16432,-1.09945 -5.67664,-2.30878c-4.25145,-0.13396 -8.36621,-0.04518 -12.41218,0.2234c-3.27049,3.25767 -6.43175,6.57268 -11.44017,7.66619z" fill="#fffaae" stroke="none"/><path d="M29.7796,150.84452c1.58788,-2.08013 3.9697,-0.69338 3.9697,-0.69338l0.00386,0.00251c4.05095,-0.98938 12.30681,-1.91348 10.40719,4.65108c-0.74875,2.58748 -7.9661,3.20555 -10.10286,2.39835c-1.33746,-0.50525 -2.02584,-1.82982 -3.03877,-2.74472l-0.44518,-0.14697c0,0 -2.38182,-1.38675 -0.79395,-3.46688z" fill="#9e5400" stroke="#9e5400"/><path d="M407.4427,173.56468c-0.63416,0.32665 -1.27789,0.32665 -1.27789,0.32665c-5.17875,0 -12.73935,-0.12773 -9.80165,-8.04596c0.46877,-1.26351 1.50732,-2.30823 2.60174,-3.09464c0.73582,-0.52873 1.86914,-0.18376 2.63487,-0.66817c1.74086,-1.1013 2.08586,-3.7601 3.83767,-4.84388c1.18408,-0.73255 2.66547,-0.84521 4.04231,-1.05257c1.92406,-0.28977 3.93048,0.13199 5.83121,0.31127c0.60825,0.05737 1.33185,0.4701 1.82921,0.11529c1.01087,-0.72113 0.96985,-2.9763 2.2114,-2.99778c1.82628,-0.03161 3.51293,1.4594 4.66252,2.87881c0.77759,0.96009 0.51018,2.42304 0.62762,3.65294c0.29918,3.1332 -0.42714,6.5778 -0.7251,9.67157c-5.563,3.04169 -10.26056,3.72569 -16.47392,3.74648z" fill="#9e5400" stroke="#9e5400"/><path d="M389.86907,172.76894l-0.25002,0.1109c-1.25388,0.48037 -1.79542,0.88553 -3.21742,0.58912c-0.87499,-0.18239 -2.09247,-0.12268 -2.52388,-0.90546c-1.49725,-2.71671 0.84381,-2.20329 1.50505,-3.40209c0.21886,-0.39679 -0.01262,-0.95706 0.22987,-1.33987c0.4236,-0.66873 0.97218,-1.32533 1.68128,-1.67721c2.06449,-1.02448 4.78623,0.34636 5.35333,2.58642c0.21548,0.85113 -0.3771,2.55838 -0.64122,3.44475c0,0 -0.37182,1.23941 -1.61123,0.86759c-0.22396,-0.06719 -0.39532,-0.16271 -0.52576,-0.27413z" fill="#9e5400" stroke="#9e5400"/><path d="M58.85286,354.39516c-4.52968,3.03262 -9.39946,4.96388 -15.03125,6.37183c0,0 -7.27607,1.81902 -9.09509,-5.45705c-1.81902,-7.27607 5.45705,-9.09509 5.45705,-9.09509c5.15146,-1.28786 9.24705,-2.97588 13.18818,-6.49793c0.95398,-0.85254 1.96415,-1.64775 3.02706,-2.35987c0.09376,-0.06282 0.32509,0.23215 0.31675,0.1196c-0.20366,-2.74827 -0.39807,-5.12673 0.32867,-7.85664c0.17353,-0.65186 -1.16329,-0.72147 -1.60796,-1.22872c-1.59331,-1.81754 -3.06579,-3.74792 -4.7749,-5.45703l-0.1231,-0.57226l-0.211,0.15825l-2.00093,-2.66791c-0.96934,-1.26371 -1.54546,-2.84488 -1.54546,-4.56061c0,-4.14214 3.35786,-7.5 7.5,-7.5c0.77544,0 1.52339,0.11768 2.22697,0.33616l3.77871,1.07963c3.25537,-0.327 5.8997,0.99822 9.05805,1.34922c6.82122,0.75807 14.2203,-0.0365 21.08907,-0.0365c8.86965,0 17.31032,0.71515 25.29528,-3.30097c2.52929,-1.25856 5.32593,-2.78142 8.07495,-3.38498c4.14696,-0.91049 9.43517,-0.13533 13.69661,-0.13533c3.56923,0 7.80335,-0.48995 11.27294,0.20063c0.99729,0.1985 1.73596,1.14327 2.72851,1.36426c1.01075,0.22503 2.09116,-0.27209 3.1058,-0.06531c4.29839,0.87602 10.73751,4.51019 15.41293,2.5158c1.6663,-0.71079 2.71396,-2.41847 4.2226,-3.42137c1.49196,-0.99182 3.10832,-1.86992 4.33864,-3.17221c5.86511,-5.82615 11.74145,-15.72951 20.36666,-17.77598c3.02697,-0.7182 6.43804,-2.86928 9.21654,-1.4699c2.96705,1.49434 3.81588,5.51904 4.99201,8.62599c1.48522,3.92347 -1.37043,7.43369 -2.19082,10.82506c-0.19002,0.78553 0.24434,1.63557 0.06531,2.42367c-0.49488,2.1784 -1.59952,4.18771 -2.09377,6.36626c-0.36389,1.60394 -0.16433,3.29728 -0.44902,4.91509c0.02965,0.01634 0.06035,0.03363 0.09213,0.05191c0.98557,0.5667 1.88508,1.28408 2.72851,2.04638c1.14441,1.03433 2.14446,2.21797 3.21669,3.32696c0.95069,1.79783 1.51415,3.82567 2.72851,5.45703c2.90623,3.90417 7.37644,9.19113 6.87271,14.61725c-0.23969,2.58196 -0.84534,5.29677 -2.33181,7.42147c-1.29551,1.85174 -9.79076,6.19871 -12.31271,6.69918c-2.00793,0.39847 -4.10965,-0.13375 -6.13991,0.12814c-3.28344,0.42353 -6.27638,2.23342 -9.5498,2.72851c-4.82981,0.73049 -10.48847,0.07249 -15.36495,0.07249c-9.09504,0 -18.19009,0 -27.28513,0c-27.51251,0 -55.02501,0 -82.53752,0h-3.41064c0,0 -4.23744,0 -6.3421,-3.18512z" fill="#9e5400" stroke="none"/><path d="M319.66427,374.78035c-0.23934,0.01696 -0.48715,0.02574 -0.74374,0.02574c-7.5,0 -7.5,-7.5 -7.5,-7.5c0.12296,-7.97557 2.8024,-16.42158 11.26745,-19.39343c3.59617,-1.26252 7.34189,0.39501 10.88124,-0.31238c4.13914,-0.82727 8.11171,-2.07964 12.27831,-2.72851c1.89761,-0.29552 3.90256,0.54665 5.76111,0.06283c1.18497,-0.30847 2.20312,-1.16129 3.41064,-1.36426c2.63166,-0.44234 5.35309,0.21562 8.00534,-0.07913c2.14226,-0.23808 4.19967,-0.97777 6.3165,-1.38395c1.86603,0.08999 3.6274,-0.90182 5.45988,-1.26543c3.1512,-0.62527 6.49956,0.22179 9.66737,-0.10977c4.07333,-0.42634 7.58059,-1.75026 11.47861,-2.61874c0.88774,-0.19779 1.84067,0.1973 2.72851,0c3.52463,-0.78325 6.84664,-2.11721 10.44886,-2.767c1.1975,-0.21601 2.7984,1.06828 3.64528,0.19453c2.75974,-2.8473 5.61265,-3.61397 8.85971,-5.69697c2.77135,-1.77782 5.59137,-5.50019 7.55524,-8.09059c2.55213,-5.10425 6.40017,-10.62884 10.04692,-15.03393c0.81875,-0.98901 1.91847,-1.75202 2.60616,-2.83625c1.20435,-1.89883 0.90753,-4.83526 1.36895,-6.89027c0.53695,-2.39139 1.54432,-4.65984 2.09377,-7.04839c0.69327,-3.01376 2.8151,-5.74477 3.36325,-8.64056c0.1881,-0.99371 -0.18101,-2.05245 0.06531,-3.03335c0.29716,-1.18339 1.17818,-2.15677 1.53125,-3.3247c1.13477,-3.75371 1.61422,-7.87781 1.73495,-11.77112c-0.36143,-1.3833 -1.24375,-2.58326 -1.69663,-3.93938c-0.31771,-0.95138 -0.52058,-1.96956 -0.76314,-2.97944c0.03458,-0.01545 0.06906,-0.03109 0.10344,-0.04692c6.03995,3.62397 21.57087,4.34841 23.81193,-4.61586c1.51492,-6.05966 0.79655,-19.55605 -2.50285,-25.05505c-1.39159,-2.31932 -3.68172,-4.47275 -4.95423,-7.01778c-1.93251,-3.86502 -3.95887,-8.14098 -8.03009,-10.5837c-4.76357,-2.85814 -12.89193,-4.17752 -18.27434,-2.98144c-1.50423,0.33427 -2.9794,0.70364 -4.4368,1.11891c0.00649,-0.00443 0.01297,-0.00885 0.01945,-0.01327c1.86264,-1.27035 2.97129,-3.52069 4.93916,-4.62101c1.01195,-0.56582 2.36429,-0.18279 3.41064,-0.68213c0.58215,-0.27781 0.79999,-1.01209 1.19999,-1.51814c4.76931,-2.522 10.567,-6.70062 16.33532,-3.13102c4.24917,2.62951 6.53388,9.8131 8.53438,14.32846c2.12632,4.79936 2.944,9.62845 4.44004,14.57788c0.93987,3.1094 2.44213,6.07672 2.96695,9.28238c0.18377,1.12249 -0.35268,2.29484 -0.12814,3.40988c0.20074,0.99685 1.14842,1.73483 1.36426,2.72851c0.49491,2.27852 0.5839,4.62694 0.82657,6.94593c0.18506,1.76846 -0.67347,3.63479 -0.14444,5.33238c0.30254,0.97081 1.14367,1.73587 1.36426,2.72851c0.24662,1.10981 -0.33434,2.32403 0,3.41064c0.59809,1.94378 1.81901,3.63802 2.72851,5.45703c0.28314,8.20767 -0.55438,16.69374 0.16413,24.8586c0.27675,3.14487 2.16402,5.97095 2.66817,9.08746c0.8631,5.33541 -1.10076,11.57634 -0.03848,16.83627c0.24239,1.20023 1.16129,2.20312 1.36426,3.41064c0.1744,1.03758 0.13533,8.92644 0.13533,10.28597c0,6.5736 1.22869,14.2913 -2.24702,20.14061c0,3.31346 -2.10047,5.29191 -2.72851,8.18554c-0.2471,1.13849 0.26324,2.42886 -0.22216,3.48792c-0.95321,2.07974 -2.58834,3.77429 -3.94921,5.6133c-7.71389,10.42417 -19.55446,18.41957 -32.62241,20.45328c-5.24803,0.81673 -11.58856,0.09684 -16.89032,0.09684c-1.71922,0 -13.36449,0.0247 -14.1618,-0.09684c-2.26803,-0.34574 -4.31086,-1.60989 -6.54671,-2.12415c-2.95535,-0.67974 -6.29989,-0.51543 -9.30513,-0.50752c-6.2491,0 -12.65003,0.42025 -18.88349,-0.01449c-3.84221,-0.26797 -7.54988,-1.55532 -11.3644,-2.08809c-3.24678,-0.45347 -6.59048,0.43013 -9.83479,-0.04065c-1.42315,-0.20651 -2.67101,-1.14841 -4.09277,-1.36426c-8.10445,-1.23037 -16.99054,1.60994 -25.0784,-0.10379c-1.55805,-0.33013 -2.90631,-1.30361 -4.35947,-1.95542l-2.85253,-1.83208c0,0 -1.55936,-1.03957 -2.59942,-2.85888z" fill="#9e5400" stroke="none"/><path d="M412.31804,228.69532c-2.22264,-0.29831 -4.48475,-0.5669 -6.62453,-1.22857c-1.69906,-0.00396 -3.47295,-0.01737 -3.78759,-0.05655c-1.86062,-0.2317 -3.59603,-1.13556 -5.45703,-1.36426c-1.17061,-0.14386 -2.65403,0.6394 -3.53529,-0.14444c-0.41965,-0.37326 -0.82184,-0.7631 -1.20989,-1.16636c-0.04381,-0.00117 -0.08753,-0.00272 -0.13115,-0.00464l-0.28992,0.57984l-2.58319,-1.29159c-2.53684,-1.20258 -4.29123,-3.78685 -4.29123,-6.78087c0,-4.14214 3.35786,-7.5 7.5,-7.5h2.72851v0.51177c0.1888,0.07377 0.37388,0.15497 0.55488,0.24325l1.16827,-0.55438c3.45538,1.72769 7.58808,1.92807 11.5102,2.61387c1.50098,-0.01523 3.00862,-0.08599 4.50199,-0.08599c3.18327,0 6.36653,0 9.5498,0c1.24642,0 2.53874,0.5545 3.73388,0.20063c0.82829,-0.24525 1.66073,-0.59319 2.48768,-1.00742c-0.07097,0.06537 -0.14325,0.12718 -0.21705,0.18482c-4.557,3.55947 -10.07929,11.80549 -11.98281,18.74869c-1.12539,-0.87865 -2.25692,-1.71411 -3.62553,-1.8978z" fill="#9e5400" stroke="none"/><path d="M-2.01229,366.28698c-0.04462,-0.02345 -0.08921,-0.04745 -0.13375,-0.07198c-1.16271,0.0595 -2.33948,-0.05715 -3.50603,-0.04579c0,0 -7.4984,-0.08793 -7.38628,-7.42982c0.11212,-7.3419 7.61052,-7.25397 7.61052,-7.25397c3.24489,0.19087 5.16462,-1.39025 8.47718,-1.90533c0.7429,-0.11552 4.25202,-1.45715 5.48868,-1.81494c1.4906,-0.43126 8.21772,-1.02091 10.03005,-1.21151c0.74206,-0.07805 4.97957,-1.56444 6.54946,-1.86206c2.80831,-0.5324 11.34099,-1.58117 12.89565,-1.94835c0.86675,-0.20471 14.53676,-1.63932 16.11154,-1.91064c1.25459,-0.21615 9.81858,-0.0813 12.44543,-0.0505c10.36233,0.12151 20.72466,0.24301 31.08699,0.36452c2.50126,0.02933 13.90307,-1.35469 15.45773,-1.72187c4.21321,-0.99508 10.2999,-0.07566 14.58936,-0.02536c11.43429,0.13408 22.86859,0.26815 34.30288,0.40223c15.72216,0.18436 31.44431,0.36871 47.16647,0.55307c8.98003,0.1053 17.60512,0.11519 26.44947,1.39566c1.53569,0.22233 3.16878,-0.13224 4.64567,0.33382c1.22529,0.38666 5.99928,0.82176 6.79435,1.0267c1.85966,0.47935 9.1406,2.7324 11.36493,3.38536c1.23319,0.36201 5.78601,1.74599 7.02337,2.06327c1.5449,0.39614 6.76435,1.92318 7.92003,2.31108c1.21774,0.40873 3.9999,1.04224 4.36311,1.01966c2.85367,-0.17743 5.58565,0.88147 8.44424,0.91499c2.4939,0.02924 4.00048,0.33109 6.40935,-0.30917c1.24441,-0.33075 3.07562,-0.97961 4.30855,-1.34963c1.33779,-0.4015 6.30026,-1.05387 7.42299,-1.183c0.90255,-0.10382 4.09418,-0.57776 4.56017,-0.90762c1.17172,-0.8294 2.36572,-1.64341 3.64735,-2.29809c2.06707,-1.05589 4.13742,-2.17552 6.37293,-2.82039c0.67272,-0.19406 3.51428,-0.99597 4.23961,-1.68732c5.96282,-0.42495 9.55363,-3.18214 15.67515,-4.47947c1.14143,-0.2419 8.25848,-1.71295 10.75171,-1.97349c0.88269,-0.09224 3.82384,-1.28051 4.78836,-1.57926c1.94436,-0.60226 4.05797,-0.40176 6.09394,-0.48751c5.31828,-0.22398 10.76136,0.12619 16.07948,0.18855c14.4989,0.17001 28.99885,0.30438 43.4967,0.53505c3.72582,0.65333 7.54376,0.68893 11.2852,1.2519c1.11646,0.16799 15.47836,-0.01166 21.31975,1.52004c1.2437,0.32611 6.1087,1.7694 7.4717,2.18717c1.60498,0.49194 5.17913,1.86124 6.6766,2.60946c3.3923,1.69498 5.3435,1.7409 8.6906,3.4577c1.89364,0.97129 2.9752,3.13681 4.89885,4.0501c3.30688,1.57003 6.48639,0.03768 9.15316,4.50976c5.19983,8.71994 -1.25559,16.05081 -7.01752,21.43776c-2.53374,1.60817 -4.43471,4.3691 -7.3252,5.21866c-7.09174,2.08434 -14.96066,-1.04804 -22.04282,0.20568c-2.22524,0.39392 -4.22061,1.747 -6.46385,2.02377c-8.87628,1.09514 -19.05965,-0.12868 -28.00169,-0.23353c-40.02003,-0.46927 -80.04006,-0.93854 -120.0601,-1.40781c-71.10702,-0.83379 -142.21404,-1.66758 -213.32107,-2.50137c-5.76911,-0.06765 -11.56847,-0.86728 -17.30639,-0.25795c-2.93062,0.31122 -5.67995,1.66251 -8.60778,1.99863c-0.49019,0.05628 -9.05244,-0.05113 -11.63667,-0.08143c-6.78911,-0.07961 -13.57823,-0.15922 -20.36733,-0.23882c-6.6797,-0.07833 -14.6345,0.95991 -20.81531,-2.24701c-4.69636,-2.43672 -7.09496,-6.96901 -8.56747,-11.66958z" fill="#b97e11" stroke="none"/><path d="M-16.84172,360.81519c-1.61681,-6.68472 5.14407,-8.75445 5.14407,-8.75445c2.30561,-0.65865 4.53888,-1.66771 6.91683,-1.97595c2.13552,-0.27681 6.2847,-1.64786 8.74943,-2.76045c1.89962,-0.8575 4.54169,-0.22611 6.52195,-0.87606c1.08173,-0.35503 5.67704,-0.49345 6.93452,-0.775c1.45773,-0.32637 4.16404,-0.99446 5.65518,-1.08401c2.50236,-0.15029 4.19044,-0.99511 6.69415,-1.12115c1.78474,-0.08984 3.84183,-0.31655 5.62733,-0.38966c1.12924,-0.04624 5.28218,-0.82202 6.8806,-1.04158c1.58346,-0.21751 4.28175,-0.32347 5.85827,-0.58665c1.62545,-0.27134 6.67656,0.3862 7.6596,0.15062c1.9817,-0.47491 4.07541,-0.04112 6.11311,-0.06168c3.61336,0.30217 7.21962,1.23626 10.83524,0.9625c2.93877,-0.22251 5.78521,-1.23469 8.72643,-1.42212c4.97057,-0.31674 10.89152,0.85443 15.87638,1.2713c6.41079,0.53611 12.82158,1.07222 19.23237,1.60833c2.74223,0.22932 5.95666,0.97481 8.69832,0.78379c1.47003,-0.10242 2.89052,-0.65969 4.36321,-0.71105c0.63918,-0.02229 9.9867,0.77876 10.53405,0.82454c1.29081,0.10795 8.1869,0.62642 9.17969,0.96899c1.92217,0.66327 4.16608,1.12929 6.19691,1.02744c3.52697,0.32677 6.38875,2.59316 9.83853,3.39642c1.30702,0.30433 6.57958,2.45804 8.09249,2.97356c1.05314,0.35886 6.8538,2.34303 8.36902,2.85174c2.85304,0.95785 10.83091,2.76499 12.01298,3.27808c0.84668,0.36752 5.39468,1.97034 6.86198,2.60411c0.46111,0.19917 1.00327,-0.09995 1.50496,-0.07548c3.55762,0.17356 7.13375,0.59657 10.68464,0.89352c8.54772,0.71481 17.09544,1.42963 25.64316,2.14444c3.49934,0.29264 7.34127,1.13179 10.83524,0.9625c1.47186,-0.07132 8.30912,-0.84943 10.22128,-1.0683c1.7754,-0.20321 5.92849,-0.37787 7.70389,-0.58109c1.91216,-0.21886 7.46165,-1.2109 8.41719,-1.38244c3.40046,-0.61044 6.03017,-3.42298 8.93202,-4.78598c2.04594,-0.96097 8.66874,-3.65602 10.02003,-4.01694c1.60755,-0.42939 9.2371,-2.80605 10.87274,-3.32402c2.82655,-0.8951 7.55534,0.05511 9.77897,-1.78939c1.74554,-0.96398 7.54865,-4.24708 8.82631,-4.50672c2.11352,-0.42949 10.22038,-0.79326 11.21674,-0.9639c2.49343,-0.42702 5.07475,0.57898 7.58464,0.26271c1.58579,-0.19982 5.43407,-1.27914 6.33003,-1.50092c1.25086,-0.30964 5.24219,-1.3942 6.51307,-1.60721c5.58237,-0.93565 10.33239,0.54112 15.95979,1.01172c10.75989,0.89981 22.34792,0.77349 32.96245,2.81291c2.52981,0.48606 4.97952,1.47903 7.54986,1.65091c3.81272,0.31884 7.50162,1.01498 11.20011,1.84755c3.02463,0.68089 6.48534,1.51327 9.53634,2.06407c1.66957,0.30141 5.14171,1.5954 6.76159,2.09966c4.1584,1.29452 6.09681,2.3632 10.19102,3.84825c4.28331,1.55364 5.81078,2.24723 10.00986,4.22151c2.41,1.13311 6.0627,2.77341 8.53312,4.10556c0.81797,0.44108 4.73676,1.93537 5.39649,2.08666c3.07782,0.70578 9.63016,3.77511 9.83169,3.91996c1.72637,1.24072 2.95976,1.13247 4.49144,2.64922c1.52859,1.51369 4.41032,0.16221 6.36654,1.05722c1.43229,0.65529 2.15046,2.32191 3.39776,3.28375c1.2657,0.97603 2.73011,1.66289 4.09516,2.49434c0.1729,0.44917 0.06523,1.1862 0.5187,1.34752c1.3469,0.47915 3.0446,-0.37241 4.27386,0.35741c2.04074,1.2116 3.66572,3.12213 4.94925,5.11841c0.41359,0.64325 -0.85459,1.91142 -0.18814,2.28649c1.75796,0.98937 4.65683,-0.55871 5.97356,0.96952c2.19103,2.54295 2.50185,6.27616 3.11316,9.57669c0.31601,1.70613 -0.07416,3.48335 -0.37778,5.19173c-0.03895,0.21917 -0.70058,0.10023 -0.59779,0.29768c0.46678,0.89665 1.74248,1.32805 1.95823,2.31563c1.12551,5.15183 -0.7939,9.06888 -1.69536,14.03126c-0.32668,1.79832 0.00766,3.73606 -0.63783,5.44605c-0.90882,2.40758 -2.40147,4.57435 -3.92701,6.64682c-0.28532,0.38761 -1.15769,0.07641 -1.34752,0.5187c-0.33289,0.77562 0.39861,1.76859 0.03823,2.53183c-1.0892,2.30682 -6.82893,9.1221 -8.63086,10.40707c-1.85434,1.32234 -4.13297,1.9275 -6.27002,2.71498c-8.17157,3.01112 -15.84859,3.57914 -24.42903,2.90982c-6.61439,0.18818 -13.2407,0.04513 -19.84655,0.43032c-4.11316,0.23983 -8.18542,1.12291 -12.30536,1.16579c-8.79803,0.09159 -17.53831,-1.43625 -26.3062,-2.16947c-11.04437,-0.9236 -22.08873,-1.8472 -33.1331,-2.77079c-46.6563,-3.90169 -93.3126,-7.80338 -139.9689,-11.70507c-65.17636,-5.45045 -130.35271,-10.9009 -195.52907,-16.35135c-4.38906,-0.36704 -8.93043,0.00901 -13.15521,-1.23592c-1.84617,-0.54401 -3.32933,-2.0009 -5.16362,-2.58369c-1.14712,-0.36446 -2.42357,0.02679 -3.60518,-0.20231c-1.78907,-0.34689 -3.46663,-1.15465 -5.25297,-1.51522c-1.72372,-0.34794 -3.58672,-0.00628 -5.24087,-0.60298c-2.19071,-0.79025 -4.12594,-2.17927 -6.06164,-3.47416c-0.60406,-0.40408 -0.82251,-1.31727 -1.49877,-1.58343c-0.9977,-0.39268 -2.22341,0.16241 -3.20539,-0.26805c-1.54177,-0.67585 -2.65902,-2.08053 -4.10781,-2.93775c-5.04092,-2.98266 -11.06443,-5.95177 -13.96879,-11.50385c-1.663,-3.17903 -3.09924,-10.55574 -3.11988,-14.05744c-0.01229,-2.08463 1.01947,-4.133 0.7854,-6.20448c-0.14468,-1.28047 -1.61837,-2.12006 -1.86888,-3.38409c-0.34988,-1.76552 0.08566,-3.59869 0.12848,-5.39803l0.26805,-3.20539c0,0 0.07599,-0.90869 0.49182,-2.06587z" fill="#d59213" stroke="none"/><path d="M21.9376,340.12066c-6.92574,0 -13.85148,0 -20.77722,0c0,0 -7.5,0 -7.5,-7.5c0,-7.5 7.5,-7.5 7.5,-7.5c6.92574,0 13.85148,0 20.77722,0c1.15429,0 2.30893,-0.02835 3.46287,0c0.45403,0.01115 1.01163,0.38306 1.45038,0.44063c0.27961,3.09231 1.13099,6.27661 1.24681,8.86757c0.04772,1.06748 -0.10421,3.43917 0.02669,5.66545c-2.18369,0.04068 -5.31389,0.02635 -6.18675,0.02635z" fill="#fffaae" stroke="none"/><path d="M46.26278,321.58685c4.68521,5.85652 -1.1713,10.54173 -1.1713,10.54173l-3.52879,2.76958c-1.9509,0.98581 -3.57131,2.59638 -5.59804,3.41501c-3.99187,1.61238 -8.13134,1.23035 -12.29559,1.23035c0,0 -7.5,0 -7.5,-7.5c0,-7.5 7.5,-7.5 7.5,-7.5c0.81927,0 5.48295,0.50077 6.17304,0.07606c1.23006,-0.75704 2.34144,-1.71652 3.63629,-2.35645l2.24266,-1.84758c0,0 5.85652,-4.68521 10.54173,1.1713z" fill="#fffaae" stroke="none"/><path d="M416.83813,255.54128c-5,-5 -5,-8.125 0,-13.125c2.08558,-2.08558 7.2388,-1.52058 10.42405,0.22427c5.58271,0.99581 11.52912,3.87118 16.25928,3.97116c5.97724,0.12635 11.95998,0.18388 17.93573,0c1.23451,-0.03799 2.91823,-1.46373 4.12826,-1.76624c4.84211,-1.21053 11.85778,0.43708 11.85778,7.29204c0,10.09785 -6.88132,4.94871 -9.82649,8.11503c-0.84095,0.90409 -2.71191,1.33901 -3.99096,1.35918c-7.10625,0.11206 -14.21487,0.09239 -21.3214,0c-2.60864,-0.03392 -4.99167,-1.36178 -7.50197,-1.57936c-2.21253,-0.19177 -3.59522,0.31713 -5.80978,-1.08726c-2.01327,-1.27674 -9.431,-0.21707 -10.63163,-2.31816l-0.28581,-0.50017c-0.47129,-0.0874 -0.9008,-0.24922 -1.23705,-0.58547z" fill="#fffaae" stroke="none"/><path d="M229.79715,235.80811c1.38675,2.08013 -0.69338,3.46688 -0.69338,3.46688l-0.38879,0.14697c-0.88462,0.9149 -1.48581,2.23947 -2.65386,2.74472c-1.86611,0.8072 -8.16927,0.18913 -8.82318,-2.39835c-1.65901,-6.56456 5.55112,-5.64046 9.08896,-4.65108l0.00337,-0.00251c0,0 2.08013,-1.38675 3.46688,0.69338z" data-paper-data="{&quot;index&quot;:null}" fill="#9e5400" stroke="#9e5400"/></g></g></svg>