<svg version="1.1" xmlns="http://www.w3.org/2000/svg" xmlns:xlink="http://www.w3.org/1999/xlink" width="122.09824" height="67.49752" viewBox="0,0,122.09824,67.49752"><g transform="translate(-179.17181,-156.73507)"><g data-paper-data="{&quot;isPaintingLayer&quot;:true}" fill-rule="nonzero" stroke-linecap="butt" stroke-linejoin="miter" stroke-miterlimit="10" stroke-dasharray="" stroke-dashoffset="0" style="mix-blend-mode: normal"><path d="M194.54726,224.2326v-7.71641h91.77677v7.71641z" fill="#ffffff" stroke="none" stroke-width="0"/><path d="M300.92353,189.3733c-0.45659,0.59269 -0.98109,0.66212 -1.39217,0.58276c-1.05919,1.09715 -3.25727,1.21118 -4.41165,1.70408l-1.41724,0.59125c0,0 -0.75217,0.31379 -1.37903,-0.07557c-0.6135,-0.33507 -0.7477,-1.08712 -0.7477,-1.08712c-0.30574,-1.772 -0.2317,-3.27454 -0.238,-5.05531l-0.00438,-1.52165c0,0 -0.00433,-1.50027 1.49594,-1.5046c0.49387,-0.00142 0.82561,0.16017 1.04847,0.37764c0.49678,0.0216 0.88703,0.30025 0.88703,0.30025c1.7726,1.26814 3.70846,2.08441 5.50334,3.29296l0.3825,0.29126c0,0 1.1885,0.9156 0.27289,2.1041z" fill="#ffffff" stroke="none" stroke-width="0.5"/><path d="M179.51833,190.0955c-0.91561,-1.18848 0.27289,-2.1041 0.27289,-2.1041l0.3825,-0.29126c1.79488,-1.20855 3.73075,-2.02482 5.50335,-3.29297c0,0 0.39024,-0.27865 0.88701,-0.30024c0.22286,-0.21748 0.55461,-0.37906 1.04847,-0.37764c1.50027,0.00432 1.49595,1.5046 1.49595,1.5046l-0.00439,1.52165c-0.0063,1.78078 0.06774,3.28332 -0.23799,5.05532c0,0 -0.13419,0.75204 -0.7477,1.08711c-0.62686,0.38936 -1.37902,0.07558 -1.37902,0.07558l-1.41725,-0.59125c-1.15438,-0.4929 -3.35245,-0.60692 -4.41165,-1.70408c-0.41109,0.07936 -0.93557,0.00993 -1.39217,-0.58276z" data-paper-data="{&quot;index&quot;:null}" fill="#ffffff" stroke="none" stroke-width="0.5"/><g><g fill="#db4747" stroke="#000000" stroke-width="0"><path d="M244.77223,160.87875c6.07697,0.59671 9.3667,2.20436 11.96397,7.98807c0.59818,1.33205 1.69998,2.59841 1.77749,4.12968c0.0359,0.70922 -0.07424,1.30926 -0.30652,1.81438c0.81743,-0.10129 1.55442,-0.03833 2.01912,0.42637c3.55176,3.55176 -2.97369,4.77933 -5.50424,4.77933c-14.1769,0 -17.20479,-0.57414 -26.62655,-0.74397c-1.73923,-0.03135 -3.40294,-0.59534 -5.0345,0.00789c-0.69995,0.25879 -3.90606,1.26192 -4.76753,0.57787c-0.91066,-0.0927 -1.57554,-0.65734 -1.36031,-2.02853c-0.00997,-0.07946 -0.01508,-0.16018 -0.01508,-0.24195c0,-0.33557 0.08618,-0.65366 0.24035,-0.93846c1.244,-4.48298 3.74566,-8.60439 6.22244,-12.64882c0.36775,-0.60051 1.40994,-3.65565 2.28455,-4.30462c1.8816,-1.3962 4.82457,-1.10327 7.03805,-1.4736c1.96965,-0.32953 7.08605,-1.37776 8.87293,0.17457c0.75431,0.65529 1.14288,1.51288 1.10469,2.27767c0.73793,0.06812 1.44042,0.14022 2.09117,0.20411z"/><path d="M262.33063,176.56801c0.15418,0.28481 0.24034,0.60288 0.24034,0.93845c0,0.08177 -0.00513,0.16249 -0.01508,0.24196c0.29188,1.8595 -1.03484,2.23571 -2.3981,1.96312c-1.06728,-0.21341 -2.15695,-0.8245 -2.50986,-1.43286c-2.7218,-4.69192 -3.54942,-11.20406 -7.57263,-15.30479c-0.39214,-0.39971 -2.8965,-0.26849 -3.05712,-0.27559c-2.70349,-0.11956 -4.32414,-0.12071 -7.83481,-0.24309c-2.80897,-0.09792 -2.9912,-2.64502 -1.27071,-4.13967c1.78688,-1.55233 6.90327,-0.5041 8.87293,-0.17457c2.21347,0.37033 5.15645,0.07739 7.03805,1.47359c0.87461,0.64899 1.91679,3.70412 2.28453,4.30463c2.47677,4.04443 4.97844,8.16584 6.22245,12.64882z" data-paper-data="{&quot;index&quot;:null}"/></g><g fill="#bd2222" stroke="none"><path d="M203.1066,191.861c0,-7.26691 5.15208,-13.1579 11.5075,-13.1579c6.35542,0 11.50751,5.89099 11.50751,13.1579c0,7.26691 -5.15209,13.15789 -11.50751,13.15789c-6.35542,0 -11.5075,-5.89099 -11.5075,-13.15789z" stroke-width="NaN"/><path d="M255.95449,191.9303c0,-7.26691 5.15209,-13.15789 11.50751,-13.15789c6.35542,0 11.5075,5.89099 11.5075,13.15789c0,7.26691 -5.15208,13.15789 -11.5075,13.15789c-6.35542,0 -11.50751,-5.89099 -11.50751,-13.15789z" stroke-width="NaN"/><path d="M213.43108,205.01892v-26.31579h54.20357v26.31579z" stroke-width="0"/></g><g fill="#db4747" stroke="none"><path d="M206.41448,191.84534c0,-5.72079 4.63761,-10.3584 10.3584,-10.3584c5.72079,0 10.3584,4.63761 10.3584,10.3584c0,5.72079 -4.63761,10.35839 -10.3584,10.35839c-5.72079,0 -10.3584,-4.63761 -10.3584,-10.35839z" stroke-width="NaN"/><path d="M253.98511,191.99747c0,-5.72079 4.63761,-10.35839 10.3584,-10.35839c5.72078,0 10.35839,4.6376 10.35839,10.35839c0,5.72079 -4.63761,10.3584 -10.35839,10.3584c-5.72079,0 -10.3584,-4.63761 -10.3584,-10.3584z" stroke-width="NaN"/><path d="M215.70799,202.20375v-20.71679h48.79094v20.71679z" stroke-width="0"/></g><g fill="#c74040" stroke="none"><path d="M210.17379,199.32419c0,-1.67038 4.17036,-3.02448 9.31475,-3.02448c5.1444,0 9.31475,1.35411 9.31475,3.02448c0,1.67038 -4.17035,3.02448 -9.31475,3.02448c-5.1444,0 -9.31475,-1.3541 -9.31475,-3.02448z" stroke-width="NaN"/><path d="M252.9515,199.36861c0,-1.67038 4.17035,-3.02448 9.31475,-3.02448c5.14439,0 9.31474,1.35411 9.31474,3.02448c0,1.67038 -4.17035,3.02448 -9.31474,3.02448c-5.1444,0 -9.31475,-1.3541 -9.31475,-3.02448z" stroke-width="NaN"/><path d="M218.53094,202.34869v-6.04896h43.87507v6.04896z" stroke-width="0"/></g><path d="M210.70772,191.8951c0,-5.03704 4.08332,-9.12035 9.12035,-9.12035c5.03704,0 9.12035,4.08332 9.12035,9.12035c0,5.03704 -4.08331,9.12036 -9.12035,9.12036c-5.03704,0 -9.12035,-4.08332 -9.12035,-9.12036z" fill="#bd2222" stroke="none" stroke-width="0"/><path d="M250.65487,191.78086c0,-5.03704 4.08332,-9.12035 9.12036,-9.12035c5.03703,0 9.12035,4.08332 9.12035,9.12035c0,5.03704 -4.08332,9.12035 -9.12035,9.12035c-5.03704,0 -9.12036,-4.08332 -9.12036,-9.12035z" fill="#bd2222" stroke="none" stroke-width="0"/><path d="M230.59521,191.83713c0,-5.03704 4.08332,-9.12035 9.12035,-9.12035c5.03704,0 9.12036,4.08332 9.12036,9.12035c0,5.03704 -4.08332,9.12036 -9.12036,9.12036c-5.03704,0 -9.12035,-4.08332 -9.12035,-9.12036z" fill="#bd2222" stroke="none" stroke-width="0"/><path d="M214.5337,191.8077c0,-2.94778 2.38964,-5.33741 5.33741,-5.33741c2.94778,0 5.33741,2.38964 5.33741,5.33741c0,2.94778 -2.38964,5.33742 -5.33741,5.33742c-2.94778,0 -5.33741,-2.38965 -5.33741,-5.33742z" fill="#fa5050" stroke="none" stroke-width="0"/><path d="M234.53501,192.11162c0,-2.94778 2.38964,-5.33741 5.33741,-5.33741c2.94778,0 5.33741,2.38964 5.33741,5.33741c0,2.94778 -2.38964,5.33742 -5.33741,5.33742c-2.94778,0 -5.33741,-2.38965 -5.33741,-5.33742z" fill="#fa5050" stroke="none" stroke-width="0"/><path d="M254.7972,192.15468c0,-2.94778 2.38964,-5.33741 5.33741,-5.33741c2.94778,0 5.33741,2.38964 5.33741,5.33741c0,2.94778 -2.38964,5.33742 -5.33741,5.33742c-2.94778,0 -5.33741,-2.38964 -5.33741,-5.33742z" fill="#fa5050" stroke="none" stroke-width="0"/><path d="M223.92176,194.25694c-1.25,0 -1.25,-1.25 -1.25,-1.25v-0.25716c0.00144,-2.77198 -0.24822,-3.65148 -3.2074,-3.63599c0,0 -1.25,0 -1.25,-1.25c0,-1.25 1.25,-1.25 1.25,-1.25c4.2989,0.01856 5.70539,2.03307 5.7074,6.13599v0.25716c0,0 0,1.25 -1.25,1.25z" fill="#fa6a6a" stroke="none" stroke-width="0.5"/><path d="M244.01471,194.2873c-1.25,0 -1.25,-1.25 -1.25,-1.25v-0.25715c0.00144,-2.77197 -0.24822,-3.65148 -3.20739,-3.636c0,0 -1.25,0 -1.25,-1.25c0,-1.25 1.25,-1.25 1.25,-1.25c4.2989,0.01856 5.70538,2.03307 5.70739,6.136v0.25715c0,0 0,1.25 -1.25,1.25z" fill="#fa6a6a" stroke="none" stroke-width="0.5"/><path d="M264.19969,194.68582c-1.25,0 -1.25,-1.25 -1.25,-1.25v-0.25715c0.00144,-2.77197 -0.24822,-3.65148 -3.20739,-3.636c0,0 -1.25,0 -1.25,-1.25c0,-1.25 1.25,-1.25 1.25,-1.25c4.2989,0.01856 5.70538,2.03307 5.70739,6.136v0.25715c0,0 0,1.25 -1.25,1.25z" fill="#fa6a6a" stroke="none" stroke-width="0.5"/><g fill="#c74040" stroke="none"><path d="M217.47236,175.89448c0,-1.67038 3.07763,-3.02448 6.87409,-3.02448c3.79646,0 6.87409,1.35411 6.87409,3.02448c0,1.67038 -3.07763,3.02448 -6.87409,3.02448c-3.79646,0 -6.87409,-1.3541 -6.87409,-3.02448z" stroke-width="NaN"/><path d="M249.04139,175.9389c0,-1.67038 3.07763,-3.02448 6.87408,-3.02448c3.79645,0 6.87408,1.35411 6.87408,3.02448c0,1.67038 -3.07763,3.02448 -6.87408,3.02448c-3.79646,0 -6.87408,-1.3541 -6.87408,-3.02448z" stroke-width="NaN"/><path d="M223.63976,178.91898v-6.04896h32.37886v6.04896z" stroke-width="0"/></g><path d="M220.08621,169.74475c0.79635,-0.61035 1.28128,-3.6477 1.8628,-4.76743c2.75655,-5.30786 5.93605,-7.76706 12.07469,-7.91286c0.00828,-0.0002 0.01659,-0.00042 0.02491,-0.00068c0.07488,0.01512 0.15219,0.02355 0.23127,0.02463c0.00587,0.00003 0.01169,0.00007 0.01745,0.00012c1.92047,0.01778 3.84104,0.02926 5.76163,0.03401c1.38459,1.42115 1.35568,2.33348 -0.08671,3.77587c-0.86315,0.86315 -2.43112,0.25441 -3.6516,0.27598c-3.48147,0.06153 -6.27157,0.2717 -8.62213,2.70883c-2.24194,2.3245 -6.07371,12.16146 -7.23279,14.95973c-0.37919,0.91544 -3.31028,3.46559 -4.32233,1.69449c-0.65074,-0.38405 -1.08728,-1.09242 -1.08728,-1.90274c0,-0.78803 0.41286,-1.47962 1.03406,-1.87031c1.43024,-2.60346 3.75072,-6.83165 3.99602,-7.01965z" fill="#bd2222" stroke="none" stroke-width="0.5"/><path d="M263.61636,176.49232c0.62121,0.39068 1.03406,1.08228 1.03406,1.87031c0,0.81032 -0.43654,1.51869 -1.08728,1.90274c-1.01205,1.7711 -3.94315,-0.77906 -4.32233,-1.6945c-1.15908,-2.79827 -4.99085,-12.63522 -7.23279,-14.95972c-2.35056,-2.43713 -5.14066,-2.6473 -8.62213,-2.70883c-1.22048,-0.02157 -2.78845,0.58716 -3.6516,-0.27598c-1.34891,-1.34891 -1.46161,-2.23424 -0.3381,-3.50569c3.08771,0.01012 6.17549,0.00295 9.26305,-0.02332c0.0535,0.00711 0.10672,0.01387 0.15963,0.02025c4.17135,0.83454 6.69509,3.26756 8.93867,7.58766c0.58151,1.11973 1.06645,4.15708 1.8628,4.76744c0.24531,0.18801 2.56578,4.41619 3.99602,7.01965z" data-paper-data="{&quot;index&quot;:null}" fill="#bd2222" stroke="none" stroke-width="0.5"/><path d="M254.04306,163.62129c-0.2236,0.44721 -0.67083,0.22361 -0.67083,0.22361l-0.18107,-0.09247c-2.78709,-1.12305 -5.42675,-1.5412 -8.25089,-2.38562c-1.58196,-0.03556 -3.18258,0.01253 -4.81207,0.01253c-4.28577,0 -8.13298,0.86109 -12.26971,1.74116c0,0 -0.48927,0.103 -0.59228,-0.38627c-0.103,-0.48927 0.38627,-0.59228 0.38627,-0.59228c0.38639,-0.08041 0.77029,-0.1609 1.15226,-0.2408c-0.12362,-0.34195 0.2063,-0.56189 0.2063,-0.56189c3.08015,-2.04083 7.39774,-1.10749 10.87739,-1.39746c4.38387,-0.00304 9.00746,0.4461 13.37394,0.87799l0.05974,-0.00249c0,0 0.5,0 0.5,0.5c0,0.5 -0.5,0.5 -0.5,0.5l-0.15924,-0.00248c-0.24538,-0.02483 -0.49162,-0.04965 -0.73862,-0.07439c0.08003,0.10282 0.13092,0.25401 0.05212,0.46413c-0.0286,0.07628 -0.06498,0.13546 -0.10583,0.18111c0.39534,0.13469 0.79242,0.27977 1.19202,0.43826l0.25689,0.12651c0,0 0.44721,0.22361 0.22361,0.67082zM231.1259,161.42503c0.78583,-0.1556 1.56839,-0.3024 2.35289,-0.43408c-0.81693,0.06426 -1.61086,0.19291 -2.35289,0.43408z" fill="#bd2222" stroke="none" stroke-width="0.5"/><path d="M244.18737,169.85456c2.18195,-1.19367 0.64978,-3.08852 -0.55089,-4.59169c-2.36811,-1.27061 -6.50716,-1.44118 -8.92518,0.18147c-1.18426,0.79472 -1.71843,4.06968 -1.12696,5.29348c0.43012,0.88999 1.68047,1.15539 2.49883,1.46103c0,0 0.6636,0.24885 0.6942,0.88304c0.11946,0.25371 0.11946,0.50002 0.11946,0.50002c0,0.27261 -0.19286,3.02721 0.06802,3.07772c0.3009,0.05826 0.75905,0.24665 0.91933,-0.01459c0.21558,-0.35136 -0.08716,-1.00886 0.27505,-1.2057c0.59172,-0.32155 1.3547,-0.14645 2.01992,-0.04145c0.4595,0.07253 0.92273,1.08768 1.19934,0.71365c0.27265,-0.36867 0.14527,-1.12381 0.58786,-1.24368c0.66004,-0.17875 2.12011,1.21365 1.9778,0.5448c-0.30094,-1.41455 -0.94515,-2.54687 -0.95538,-4.11216v-0.1342c0,0 0,-0.88337 0.81136,-1.02739zM231.67345,171.59485c-1.0856,-2.13724 -0.10041,-6.50361 1.82544,-7.85811c3.19711,-2.24865 8.36792,-1.85433 11.47324,-0.08694c2.20243,2.56722 3.89252,5.88035 0.25431,8.02312l-0.10138,0.07844c0.20998,1.24361 1.12501,3.19882 0.88142,4.02585c-0.46553,1.58048 -1.77889,2.2051 -3.2559,1.74504c0.018,0.10315 0.00484,0.1894 -0.08323,0.24007c-0.56868,0.32713 -1.30694,0.26956 -1.9586,0.19376c-0.50678,-0.05894 -1.16803,-1.36471 -1.26374,-0.86357c-0.40727,2.13243 -3.59368,2.25514 -4.57987,0.06671c-0.31283,-0.69421 -0.12474,-2.23719 -0.07402,-3.20828c-1.27095,-0.48174 -2.42891,-1.00019 -3.11764,-2.35611zM242.62197,177.08982c0.00334,-0.18647 0.02672,-0.33959 -0.00571,-0.23104c-0.02067,0.06921 -0.01352,0.14847 0.00571,0.23104z" fill="#cfcfcf" stroke="none" stroke-width="0.5"/><path d="M238.46745,170.0113c0.09009,0.2271 0.10183,0.51937 -0.09818,0.86938c-0.51952,0.90916 -1.42869,0.38964 -1.42869,0.38964c-0.14313,-0.08201 -0.35932,-0.20068 -0.60308,-0.34034c-0.04367,-0.02067 -0.08424,-0.04438 -0.12191,-0.07032c-0.64739,-0.37604 -1.42782,-0.87409 -1.56536,-1.22717c-0.56373,-1.44693 -0.04468,-3.23386 1.84142,-3.27049c2.05252,-0.03985 2.85507,2.39262 1.97581,3.64928z" fill="#cfcfcf" stroke="none" stroke-width="0.5"/><path d="M241.89151,165.71934c1.88611,0.03662 2.40515,1.82354 1.84143,3.27049c-0.13757,0.35306 -0.91798,0.85112 -1.56537,1.22717c-0.03766,0.02595 -0.07824,0.04965 -0.1219,0.07031c-0.24375,0.13967 -0.45995,0.25832 -0.60308,0.34034c0,0 -0.90917,0.51953 -1.42869,-0.38964c-0.20001,-0.35001 -0.18827,-0.64226 -0.09818,-0.86938c-0.87929,-1.25666 -0.07672,-3.68913 1.97579,-3.64928z" data-paper-data="{&quot;index&quot;:null}" fill="#cfcfcf" stroke="none" stroke-width="0.5"/><path d="M209.07452,183.86999c0.16778,3.14873 -0.13098,3.18653 -0.13098,3.18653l-0.38246,0.0484c-1.76793,0.19676 -3.56511,0.00031 -5.33569,0.22439c0,0 -0.29877,0.03781 -0.46654,-3.11092c-0.16778,-3.14873 0.13098,-3.18653 0.13098,-3.18653c1.77015,-0.22403 3.57134,0.02864 5.3357,-0.22441l0.38245,-0.0484c0,0 0.29876,-0.0378 0.46654,3.11093z" fill="#fc9b2d" stroke="none" stroke-width="0.5"/><path d="M278.92562,184.89691c0.05412,3.15914 -0.24462,3.17138 -0.24462,3.17138l-0.38243,0.01566c-1.76684,0.04547 -3.54868,-0.30426 -5.31915,-0.23174c0,0 -0.29875,0.01225 -0.35288,-3.14689c-0.05412,-3.15914 0.24462,-3.17138 0.24462,-3.17138c1.77002,-0.07252 3.55385,0.33372 5.31915,0.23174l0.38243,-0.01567c0,0 0.29874,-0.01225 0.35287,3.14689z" fill="#fcbb71" stroke="none" stroke-width="0.5"/><path d="M211.85786,206.94399v-3.74217h58.12836v3.74217z" fill="#7e1717" stroke="none" stroke-width="0"/><g data-paper-data="{&quot;index&quot;:null}" fill="#ff3b3b" stroke="#000000" stroke-width="0"><path d="M257.69313,159.76227c0.15118,0.17604 0.31499,0.36567 0.48555,0.56583c0.14171,-0.11166 0.39249,-0.11458 0.68158,0.01281c0.68484,0.30179 1.56957,1.89018 1.92465,2.4919c0.39905,0.67621 1.08346,1.47173 1.21081,2.18913c0.05921,0.33346 -0.3173,1.03165 -0.3566,1.21505c-0.26466,1.23526 -0.53908,2.48774 -1.15231,3.43138c-0.02294,0.08124 -0.06689,0.14761 -0.13263,0.19185c-0.016,0.01078 -0.03292,0.01997 -0.05061,0.02761c-0.22278,0.2418 -0.47505,0.12777 -0.68725,-0.11812c-0.31756,-0.154 -0.80412,-1.19495 -0.90254,-1.42746c-0.22944,-0.54197 -0.69439,-0.93915 -1.07108,-1.42799c-2.04066,-2.6481 -2.79824,-3.43062 -5.81874,-7.44888c-0.53915,-0.71725 -1.68894,-2.72865 -0.23638,-2.19024c0.19004,0.07045 0.35941,0.27103 0.51372,0.51609c0.04949,-0.13243 0.14356,-0.24274 0.29015,-0.32609c0.31652,-0.17991 0.79934,-0.03458 1.18775,-0.04067c1.68646,-0.02638 2.7023,0.69407 4.11396,2.33784z"/><path d="M250.87848,156.85419c1.14334,-0.23844 2.48377,-0.0728 3.80381,0.09598c0.196,0.02506 1.01658,-0.08235 1.33005,0.07997c0.67442,0.34923 1.24405,1.22198 1.7882,1.80054c0.4842,0.51484 1.77965,1.82681 1.85625,2.53794c0.07373,0.68473 -0.46409,0.96887 -1.08175,0.18563c-0.77195,-0.97889 -1.11746,-1.43811 -1.71688,-2.1886c-0.0356,-0.04457 -0.54345,-0.77171 -0.70532,-0.83017c-1.66055,-0.59967 -3.11269,0.02435 -4.61178,-0.12849c-0.19436,-0.01981 -0.54626,-0.24813 -0.81545,-0.52249c-0.34385,-0.35047 -0.55281,-0.7761 -0.12634,-0.93853c0.01343,-0.01331 0.02815,-0.0254 0.04418,-0.03619c0.06574,-0.04424 0.14641,-0.06173 0.23505,-0.05559z" data-paper-data="{&quot;index&quot;:null}"/></g><g data-paper-data="{&quot;index&quot;:null}" fill="#ff6e3b" stroke="#000000" stroke-width="0"><path d="M221.95548,160.2429c1.41166,-1.64377 2.4275,-2.36422 4.11397,-2.33784c0.38842,0.00609 0.87124,-0.13924 1.18776,0.04067c0.14659,0.08335 0.24067,0.19367 0.29015,0.32609c0.1543,-0.24506 0.32367,-0.44564 0.51371,-0.51609c1.45255,-0.53841 0.30277,1.47298 -0.23638,2.19024c-3.0205,4.01826 -3.77809,4.80077 -5.81875,7.44888c-0.37669,0.48883 -0.84163,0.88602 -1.07108,1.42799c-0.09842,0.23251 -0.58499,1.27347 -0.90255,1.42746c-0.2122,0.24589 -0.46446,0.35992 -0.68725,0.11812c-0.0177,-0.00764 -0.03461,-0.01683 -0.05061,-0.02761c-0.06574,-0.04424 -0.10969,-0.11061 -0.13263,-0.19185c-0.61324,-0.94364 -0.88765,-2.19611 -1.15231,-3.43138c-0.0393,-0.1834 -0.4158,-0.88159 -0.35659,-1.21505c0.12735,-0.7174 0.81176,-1.51291 1.21081,-2.18912c0.35507,-0.60172 1.23981,-2.19011 1.92465,-2.49191c0.2891,-0.12739 0.53987,-0.12447 0.68158,-0.01281c0.17056,-0.20016 0.33436,-0.38978 0.48554,-0.56582z"/><path d="M228.77013,157.33476c0.08864,-0.00614 0.16932,0.01135 0.23506,0.05559c0.01603,0.01078 0.03075,0.02288 0.04418,0.03619c0.42648,0.16243 0.21752,0.58806 -0.12633,0.93853c-0.26919,0.27436 -0.6211,0.50267 -0.81546,0.52249c-1.49909,0.15284 -2.95122,-0.47118 -4.61177,0.12849c-0.16187,0.05846 -0.66972,0.7856 -0.70532,0.83017c-0.59943,0.7505 -0.94493,1.20972 -1.71688,2.18861c-0.61766,0.78324 -1.15548,0.4991 -1.08175,-0.18563c0.0766,-0.71113 1.37206,-2.0231 1.85626,-2.53794c0.54415,-0.57855 1.11377,-1.45131 1.7882,-1.80054c0.31348,-0.16232 1.13406,-0.05491 1.33006,-0.07997c1.32004,-0.16878 2.66047,-0.33441 3.80381,-0.09598z" data-paper-data="{&quot;index&quot;:null}"/></g></g></g></g></svg>