<svg version="1.1" xmlns="http://www.w3.org/2000/svg" xmlns:xlink="http://www.w3.org/1999/xlink" width="165.78307" height="128.50289" viewBox="0,0,165.78307,128.50289"><g transform="translate(-155.8367,-105.71474)"><g data-paper-data="{&quot;isPaintingLayer&quot;:true}" fill-rule="nonzero" stroke="none" stroke-width="0.5" stroke-linecap="butt" stroke-linejoin="miter" stroke-miterlimit="10" stroke-dasharray="" stroke-dashoffset="0" style="mix-blend-mode: normal"><g data-paper-data="{&quot;index&quot;:null}" fill="#aa0000"><path d="M271.62444,154.64244c1.44186,0.58232 3.91566,1.37278 4.94415,2.68313c0.78866,1.00479 1.30032,2.24061 1.59867,3.47847c0.60424,2.50701 -0.15347,3.08179 -0.6193,5.23055c-0.6529,3.01161 -0.94772,6.47846 -3.38115,8.73786c-1.5136,1.40537 -3.24678,2.11135 -5.11223,2.14201c0.09935,0.64954 0.05381,1.4572 0.08816,2.64833c0.02418,0.83829 0.24298,1.71807 -0.00342,2.51459c-1.50743,4.87273 -5.52445,5.86859 -9.75502,6.63288c1.42783,0.96793 2.84309,2.34643 3.18765,3.7116c0.82861,3.28302 -2.24035,7.31147 -5.17797,8.1802c-0.17392,0.05143 -3.824,-0.28948 -4.6091,-0.36057c-1.04386,-0.17031 -2.61971,-0.31423 -3.83213,-0.8243c-0.03122,0.16954 -0.07626,0.3367 -0.13805,0.50097c-1.8497,4.91645 -9.9207,4.43052 -13.28194,1.68892c-0.54455,-0.44415 -0.78778,-1.17131 -1.25978,-1.69267c-0.52753,-0.58271 -1.29773,-0.94638 -1.72602,-1.60544c-0.35619,-0.5481 -0.23844,-1.30043 -0.53925,-1.8804c-0.39688,-0.76522 -1.32683,-1.2556 -1.52156,-2.093c-0.01306,-0.05612 -0.02346,-0.11229 -0.03146,-0.16851c-0.78796,0.34423 -1.59438,0.23374 -2.17373,0.05671c-0.28257,0.77374 -1.11463,1.97382 -1.47734,2.19096c-1.75851,1.0527 -6.15841,1.27625 -8.15555,0.45822c-1.23754,-0.50689 -2.75127,-0.91632 -3.45106,-2.06262c-0.06052,-0.09913 -0.69197,-5.60217 -0.80596,-6.77784c-0.07039,-0.72598 0.33035,-1.66154 -0.18824,-2.17964c-0.34626,-0.34592 -0.93788,-0.26256 -1.41469,-0.35538c-1.17836,-0.22938 -2.29741,-0.72593 -3.47149,-0.97833c-0.71739,-0.15421 -1.4897,0.09053 -2.19152,-0.12754c-1.04582,-0.32495 -3.5972,-2.18251 -4.45028,-2.76956c-1.09546,-2.1001 -4.37517,-6.36842 -3.31189,-8.98831c-0.20799,-0.08843 -0.39959,-0.26011 -0.59567,-0.37618c-1.37881,-0.81608 -3.4791,-0.68023 -4.35018,-2.02933c-2.14187,-3.31717 -0.74554,-8.0779 1.60871,-10.54295c1.06299,-1.11303 2.27273,-1.12029 2.88345,-2.64992c0.37882,-0.94885 0.72029,-1.92431 0.90427,-2.9328c0.18265,-1.00122 -0.28031,-2.24126 0.3419,-3.03785c2.52396,-3.23129 6.56735,-2.27097 9.95959,-1.5827c0.03421,-0.49221 0.18066,-0.98209 0.44909,-1.43103l0.44362,-0.74194c-0.13664,-0.54981 -0.22606,-1.1079 -0.28005,-1.67108l-0.24019,0.11129l-0.73847,-1.56128c-0.47522,-0.96857 -0.47054,-2.1437 0.11543,-3.12373c0.15983,-0.2673 0.35235,-0.50246 0.5695,-0.70356c-1.48515,-0.11999 -3.08034,-0.39066 -3.47072,-0.70097c-2.37151,-1.8851 -3.3062,-5.33143 -2.03991,-8.08232c0.60729,-1.31928 2.49631,-1.48712 3.61138,-2.40922c0.69433,-0.57416 0.80372,-1.62157 1.26841,-2.39584c1.66193,-2.76915 3.27402,-5.0439 6.69944,-5.37034c0.76738,-1.34261 1.42709,-2.67645 2.70628,-3.66404c0.59311,-0.45791 1.43341,-0.49664 2.05748,-0.91155c0.62719,-0.41697 0.98056,-1.19325 1.6444,-1.54964c0.39018,-0.20948 0.81242,-0.37744 1.25547,-0.5127c0.39729,-0.57822 0.82556,-1.12932 1.28966,-1.64733c0.83526,-0.93233 1.67313,-2.00881 2.84803,-2.44469c1.94263,-0.72072 4.58983,0.24643 6.23988,1.27052c1.40063,0.8693 2.58053,2.101 3.54735,3.52904c2.89047,1.24637 5.18145,3.48899 5.99806,7.23797c0.10924,0.50149 0.15493,1.90008 0.12661,3.174c0.45113,-0.03618 0.93411,0.01216 1.34518,-0.15637c0.89937,-0.36872 1.51411,-1.45339 2.48856,-1.51407c4.72754,-0.29441 9.55265,5.90289 9.76071,10.22778c0.09276,1.92815 -0.28409,3.33457 -0.9986,4.64922c-0.149,0.45511 -0.31406,0.90664 -0.4832,1.35304c3.82958,-0.6828 8.42256,2.05129 10.35293,5.44375c2.32658,1.18087 3.9217,3.31138 3.49599,6.64121c-0.11094,0.86778 -0.8465,1.49359 -1.40241,2.1905c0.92138,-0.13011 1.91525,0.00633 2.84958,-0.07616zM243.74872,177.77475c-0.12856,-0.00796 -0.25726,-0.02363 -0.38539,-0.04716c0.11998,0.08317 0.22178,0.12352 0.3,0.09068c0.02544,-0.01067 0.05399,-0.02529 0.08537,-0.0435z"/><path d="M216.18505,158.94628l-0.67154,-0.41252c-0.15921,-0.09781 -4.20039,-2.54431 -4.42879,-2.81813c-0.79013,-0.94722 -1.1934,-2.90527 -1.49929,-4.11726c-0.7874,-3.11975 -1.65772,-6.76299 -0.1423,-9.63755c-0.73383,-0.10265 -1.54552,0.03683 -2.17337,-0.35252c-0.68958,-0.42764 -0.963,-1.3106 -1.44404,-1.96625c-0.95889,-1.30695 -2.24954,-2.53929 -1.9791,-4.3953c0.18191,-1.2484 0.88968,-2.3544 1.43413,-3.48538c1.66793,-3.46476 4.3099,-6.82237 7.06994,-9.44145c0.99486,-0.94405 1.77346,-2.34194 3.09955,-2.70513c0.56962,-0.15601 1.13795,0.0529 1.70604,0.32962c0.64507,-2.34127 1.50725,-4.61497 3.63705,-6.10095c1.19512,-0.83385 2.82364,-0.7799 4.17118,-1.33935c2.39538,-0.99451 5.24615,-2.56589 8.0101,-2.09159c1.61039,0.27634 3.1466,1.30788 4.51008,2.16115c0.77785,0.48677 1.69112,0.81059 2.32149,1.47989c2.87911,3.05702 3.27044,8.01819 6.36025,10.73327c0,0 0.49307,0.45495 0.56542,1.09489c1.97851,-0.70107 4.08592,-1.14887 6.07702,-0.63201c0.77379,0.20086 1.39255,0.79916 2.08228,1.2102c0.4928,0.2937 3.85871,2.3708 3.9925,2.50342c2.25732,2.23757 2.11145,6.88716 0.81642,9.52469c1.03257,0.52821 1.99788,1.27354 2.95297,1.8641c1.55516,0.96163 2.84762,2.30454 4.20863,3.53008c2.8597,2.57509 6.26369,4.26411 5.79789,8.75971c-0.03274,0.31604 -0.12005,0.61932 -0.2288,0.91755c1.2285,0.28627 2.48305,0.92843 3.81615,1.99569c0.70833,0.56708 1.55723,1.08726 1.94382,1.90822c0.84455,1.79352 0.61787,4.88322 0.84101,6.80031c0.1359,1.16764 0.64437,2.30638 0.60145,3.47803c-0.10839,2.95971 -2.05862,5.48043 -3.54547,7.85465c-0.66005,1.05396 -1.01888,2.40274 -2.0204,3.13562c-0.67064,0.49076 -1.36346,0.75367 -2.06906,0.87337c-0.13674,2.06373 -1.28367,4.20247 -2.23122,5.79433c-0.27009,0.45376 -2.11506,3.58187 -2.34882,3.74809c-0.94426,0.67141 -2.1087,1.08282 -3.26684,1.20385c-0.26756,0.02796 -0.53229,-0.0008 -0.79587,-0.05824c0.31561,0.34877 0.59871,0.71509 0.76184,1.14915c0.28649,0.76233 0.02103,1.6233 -0.05218,2.42874c-0.28502,3.13593 -1.71623,7.96576 -5.27009,8.94208c-0.72413,0.19893 -1.50814,-0.06511 -2.26116,-0.12069c-0.9555,-0.07054 -4.14775,-0.3084 -5.1246,-0.70071c-0.75287,-0.30235 -1.52416,-0.73191 -2.29284,-1.21111c-0.76562,1.29596 -1.72935,2.78554 -2.7039,3.43734c-4.14631,2.77315 -9.6535,0.35428 -13.36502,-2.06651c-0.96578,-0.62992 -2.24344,-0.96592 -2.86508,-1.93942c-0.68195,-1.06791 -0.52652,-2.47071 -0.74499,-3.71381c-0.47983,-2.73023 -0.86262,-4.1421 -0.01819,-6.77095l0.73428,-1.29017c0,0 0.83091,-1.38967 2.22938,-0.53059c1.39846,0.85908 0.56757,2.24876 0.56757,2.24876l-0.46269,0.71175c-0.79427,1.95657 -0.09263,2.98903 0.16716,5.20423c0.09177,0.78254 -0.19959,1.68051 0.21872,2.35264c0.36499,0.58645 1.23523,0.61021 1.83564,0.94824c2.56,1.44132 6.85697,4.2311 9.82683,2.14381c0.48277,-0.3393 1.25339,-1.54469 1.84871,-2.5489c-0.32725,-0.21744 -0.64889,-0.42612 -0.96307,-0.61913l-1.0073,-0.61879c0,0 -1.39847,-0.85909 -0.56757,-2.24876c0.8309,-1.38967 2.22938,-0.53059 2.22938,-0.53059l1.00729,0.61879c0.67339,0.41366 1.35371,0.85371 2.0452,1.28686c0.09846,0.04067 0.20021,0.09251 0.30517,0.15697c0.1101,0.06764 0.2064,0.13856 0.29036,0.21184c2.5273,1.54382 5.21661,2.87281 8.26805,2.40871c0.76134,-0.1158 1.23882,-1.47035 1.46987,-1.85934c0.76417,-1.28652 1.15867,-2.80037 1.36636,-4.29183c0.04989,-0.35828 0.35565,-0.73524 0.20072,-1.06554c-0.28124,-0.59958 -0.96308,-0.91691 -1.37444,-1.4367c-0.54676,-0.6909 -1.0212,-1.25904 -1.52667,-1.76938c-1.00001,-0.27324 -1.95818,-0.68913 -3.17417,-1.42994l-1.34307,-0.82506c0,0 -1.39847,-0.85908 -0.56757,-2.24875c0.8309,-1.38967 2.22937,-0.53059 2.22937,-0.53059l0.44924,0.27596c0.77104,-0.43876 1.62859,0.08804 1.62859,0.08804c0.91311,0.56422 1.68648,1.11753 2.3873,1.72536c0.55579,0.08847 1.19014,0.14791 2.05205,0.26317c1.38241,0.18487 2.28152,1.14073 3.53902,0.0779c0.85162,-0.71977 1.06553,-1.96702 1.64109,-2.92496c0.34465,-0.57362 1.71281,-2.72574 1.8869,-4.20431c-0.53573,-0.08758 -1.07092,-0.18606 -1.60176,-0.26093c0,0 -1.6127,-0.2422 -1.39986,-1.85792c0.03895,-0.29561 0.12475,-0.52903 0.23895,-0.71312c-0.03206,-0.23598 -0.00827,-0.50879 0.10222,-0.82175c0.5405,-1.53117 2.07477,-0.9613 2.07477,-0.9613c0.81916,0.35453 1.84015,0.41396 2.45749,1.06362c0.14939,0.1572 0.28388,0.31831 0.40442,0.48291c0.40761,-0.03552 0.75793,-0.13323 0.98598,-0.32772c0.63094,-0.53813 0.76351,-1.47843 1.17155,-2.20282c1.05828,-1.87872 3.0829,-4.00098 3.09133,-6.31652c0.00367,-1.00488 -0.45826,-1.96859 -0.58085,-2.96814c-0.04643,-0.37852 -0.17883,-4.90097 -0.46881,-5.6202c-0.15054,-0.37338 -2.33515,-1.63797 -2.45871,-1.70419c-2.45287,-1.31471 -3.58776,-0.56199 -5.82154,0.8527l-0.07927,0.47018c0,0 -0.83091,1.38966 -2.22938,0.53059c-1.39846,-0.85908 -0.56756,-2.24875 -0.56756,-2.24875l1.11771,-1.53174c1.24375,-0.77432 2.42149,-1.35069 3.57701,-1.67139c0.19408,-0.48533 0.48338,-0.9443 0.55719,-1.46293c0.4155,-2.91969 -2.9843,-4.35025 -4.71337,-5.90904c-1.97912,-1.78422 -3.2024,-2.81025 -5.40214,-4.19865c-0.55214,-0.3485 -1.41689,-1.21328 -2.24946,-0.97538c-1.67078,0.4774 -2.4711,2.07286 -3.27758,3.43549l-0.59847,1.00096c0,0 -0.83091,1.38967 -2.22938,0.53059c-1.39847,-0.85907 -0.56757,-2.24876 -0.56757,-2.24876l0.59849,-1.00095c1.06861,-1.77193 2.19159,-3.55568 4.05799,-4.46377c0.1949,-0.44348 0.54987,-0.71055 0.54987,-0.71055c0.42459,-0.27434 1.04663,-0.36964 1.27376,-0.82301c0.53454,-1.067 0.92009,-4.626 -0.24635,-5.57119c-0.99281,-0.80447 -3.43531,-2.53695 -4.66975,-2.88675c-0.93948,-0.26622 -2.16928,0.15902 -3.05432,0.37336c-2.41739,0.58545 -5.2303,1.14818 -6.81311,3.05543l-0.20889,0.41144c0,0 -0.8309,1.38967 -2.22937,0.53059c-1.39846,-0.85908 -0.56757,-2.24874 -0.56757,-2.24874l0.5891,-0.92316c0.56689,-0.58674 1.01358,-1.32058 1.70067,-1.76022c0.52106,-0.33342 1.22891,-0.23454 1.79806,-0.4785c0.22522,-0.09653 0.45536,-0.19653 0.68988,-0.29836c-3.0151,-2.99529 -3.44227,-7.614 -6.32782,-10.70043c-0.45103,-0.48242 -1.14261,-0.65629 -1.7077,-0.99524c-0.83934,-0.50347 -2.27916,-1.52888 -3.27577,-1.70933c-2.08106,-0.37678 -4.54063,1.15947 -6.30575,1.88788c-1.19545,0.49331 -2.65703,0.3798 -3.7215,1.11141c-1.0848,0.74559 -1.71947,2.50181 -2.47881,3.56352l0.99196,0.54594c0,0 1.20835,1.11494 0.11933,2.30913c-0.76376,0.8375 -1.58619,0.53929 -2.00935,0.28642c-0.69228,0.71029 -1.73025,0.28654 -1.73025,0.28654c-0.42876,-0.27071 -0.8169,-0.9839 -1.2863,-0.81211c-0.72323,0.2647 -0.92636,1.23151 -1.43545,1.80827c-0.68893,0.78048 -1.47973,1.46707 -2.15509,2.25948c-1.95363,2.29226 -4.62281,5.68362 -5.44665,8.67894c-0.23084,0.8393 0.9238,1.49949 1.3982,2.2414c0.19972,0.31233 0.12695,0.82806 0.4441,1.01847c0.33063,0.1985 0.76431,-0.11937 1.14364,-0.06524c0.98782,0.14101 1.95942,0.38342 2.93409,0.60841c0.08544,-0.01869 0.16966,-0.03967 0.25199,-0.06411c0,0 0.9461,-0.22517 1.55901,0.41269l0.50265,0.04166c0,0 1.62243,0.14691 1.50465,1.77406c-0.11776,1.62714 -1.74019,1.48024 -1.74019,1.48024l-1.00536,-0.09669c-0.3082,-0.0541 -0.61562,-0.11267 -0.92252,-0.17419c-2.39121,1.21015 -0.95055,6.0053 -0.42129,8.10222c0.04895,0.19393 0.58352,2.51829 0.80749,2.77425c0.92626,1.05854 2.43372,1.39753 3.62961,2.13217l0.67153,0.41253c0,0 1.39847,0.85907 0.56757,2.24874c-0.8309,1.38967 -2.22938,0.53059 -2.22938,0.53059z"/><path d="M216.04687,184.25642l0.43281,-0.36268c0,0 1.29086,-0.97122 2.28071,0.34253c0.98986,1.31375 -0.301,2.28495 -0.301,2.28495l-1.22707,0.74258c0.12518,1.67526 0.2014,5.21004 1.30749,6.37885c0.36383,0.38447 3.56271,1.77301 3.71008,1.81183c0.71664,0.18874 1.47142,0.14131 2.20856,0.18545c0.39214,0.02349 0.87216,0.25962 1.17746,0.01732c0.7112,-0.56444 0.94235,-1.58024 1.59177,-2.21507c0.75808,-0.74105 1.71878,-1.24079 2.57816,-1.86119c0,0 1.31461,-0.93889 2.27269,0.39815c0.95809,1.33704 -0.35652,2.27593 -0.35652,2.27593c-0.74313,0.52413 -1.57053,0.94543 -2.22938,1.57238c-0.85355,0.81223 -1.26972,2.09082 -2.27172,2.71086c-1.00595,0.62248 -4.7779,0.3262 -5.72326,0.08136c-1.09403,-0.28334 -4.60355,-1.95506 -5.41884,-2.88367c-1.73582,-1.9771 -1.99739,-5.81406 -1.83346,-8.6556l-1.17979,-0.10776c-3.79528,-0.66488 -7.50439,-0.74158 -10.53604,-3.61915c-0.46546,-0.4418 -0.64559,-1.11638 -1.05387,-1.61183c-0.52235,-0.63388 -1.41113,-1.0014 -1.72433,-1.75955c-0.35211,-0.85234 -0.02443,-1.83818 -0.13867,-2.75003c-0.08728,-0.69661 -0.19451,-1.39326 -0.28031,-2.09095c-1.53147,-0.38907 -2.9546,-1.05448 -4.28235,-2.313c-0.45942,-0.43545 -0.61553,-1.11882 -1.03675,-1.59159c-0.58987,-0.66208 -1.5269,-1.01744 -1.97118,-1.78456c-1.85745,-3.20715 1.49784,-6.67217 3.09655,-9.21702c0.68424,-1.08918 1.10209,-2.42155 2.08623,-3.24573c0.10966,-0.09183 0.22792,-0.16766 0.35283,-0.23114c-0.08305,-0.91632 0.47294,-1.8358 0.80687,-2.70412c0.8561,-2.22608 3.29801,-5.85809 5.42835,-6.76996c0.84754,-0.36278 1.84674,0.20322 2.77007,0.30542c1.67543,0.18546 3.27981,0.96315 4.73825,1.83154c0,0 1.39846,0.85908 0.56756,2.24875c-0.8309,1.38967 -2.22937,0.53059 -2.22937,0.53059c-1.0444,-0.66803 -2.234,-1.15248 -3.44661,-1.37161c-0.47419,-0.08569 -0.95023,-0.61884 -1.38558,-0.42259c-0.85494,0.38541 -2.13226,2.81741 -2.57317,3.55665c-0.30465,0.5108 -0.60135,1.02677 -0.92242,1.52715c-0.16377,0.25524 -0.60853,0.45063 -0.57012,0.73276c0.27705,0.06277 0.5753,0.20193 0.81062,0.48906c0.0707,0.02847 0.13653,0.06214 0.1926,0.10551c0.53045,0.41017 0.98623,0.90999 1.47934,1.36497l1.08495,0.62958c0,0 1.39847,0.85907 0.56757,2.24874c-0.8309,1.38967 -2.22938,0.53059 -2.22938,0.53059l-1.6012,-1.02051c-0.22713,-0.20957 -0.71401,-0.64807 -1.2524,-1.15164c-0.24275,0.01391 -0.46796,0.06382 -0.64068,0.22127c-1.09027,0.99397 -1.41024,2.60202 -2.16902,3.87107c-0.75879,1.26906 -1.85118,2.3564 -2.38193,3.74029c-0.30903,0.80579 1.24705,1.2272 1.83656,1.87321c0.36691,0.40206 0.46303,1.01192 0.8514,1.39312c0.72968,0.71617 1.52162,1.1332 2.36019,1.39179c0.23992,-0.23262 0.59751,-0.40322 1.13049,-0.39612c0.80927,0.01079 1.21766,0.42054 1.42376,0.82961c0.30179,0.02765 0.60702,0.05289 0.91513,0.08079l0.55142,-0.21774c0,0 1.57641,-0.37518 1.97773,1.21492c0.40133,1.5901 -1.17507,1.96528 -1.17507,1.96528l-1.58962,0.29182c-0.07129,-0.00645 -0.14238,-0.01298 -0.21327,-0.01961c0.05929,0.40521 0.11498,0.8107 0.14918,1.21726c0.05122,0.60876 -0.34642,1.25437 -0.11903,1.82406c0.19393,0.48588 0.88763,0.57764 1.23434,0.97039c0.35446,0.40153 0.45183,0.99811 0.83427,1.37289c2.35511,2.30788 5.66798,2.16836 8.64625,2.69011l1.67473,0.15023c0,0 0.50923,0.04611 0.93639,0.37277z"/></g><g data-paper-data="{&quot;index&quot;:null}" fill="#aa0000"><path d="M261.8013,183.4045c1.44185,0.58232 3.91566,1.37278 4.94415,2.68313c0.78866,1.00479 1.30032,2.24061 1.59867,3.47847c0.60424,2.50701 -0.15347,3.0818 -0.6193,5.23055c-0.6529,3.01161 -0.94772,6.47845 -3.38115,8.73786c-1.5136,1.40537 -3.24678,2.11135 -5.11223,2.14201c0.09935,0.64954 0.0538,1.4572 0.08816,2.64833c0.02418,0.83829 0.24299,1.71807 -0.00341,2.51459c-1.50743,4.87273 -5.52445,5.86859 -9.75503,6.63288c1.42783,0.96793 2.8431,2.34644 3.18766,3.71161c0.82861,3.28302 -2.24036,7.31147 -5.17797,8.1802c-0.17392,0.05143 -3.824,-0.28948 -4.6091,-0.36057c-1.04386,-0.17031 -2.61971,-0.31423 -3.83213,-0.8243c-0.03122,0.16954 -0.07626,0.3367 -0.13805,0.50097c-1.8497,4.91645 -9.9207,4.43052 -13.28194,1.68892c-0.54455,-0.44415 -0.78778,-1.17131 -1.25978,-1.69267c-0.52753,-0.58271 -1.29773,-0.94638 -1.72603,-1.60544c-0.35619,-0.5481 -0.23844,-1.30043 -0.53925,-1.8804c-0.39688,-0.76522 -1.32683,-1.2556 -1.52156,-2.093c-0.01306,-0.05612 -0.02346,-0.11229 -0.03146,-0.16851c-0.78796,0.34423 -1.59438,0.23374 -2.17373,0.05671c-0.28257,0.77374 -1.11463,1.97382 -1.47733,2.19096c-1.75851,1.0527 -6.15841,1.27625 -8.15555,0.45822c-1.23754,-0.50689 -2.75127,-0.91632 -3.45106,-2.06262c-0.06052,-0.09913 -0.69197,-5.60217 -0.80596,-6.77784c-0.07039,-0.72598 0.33034,-1.66154 -0.18824,-2.17964c-0.34626,-0.34592 -0.93788,-0.26256 -1.41468,-0.35538c-1.17836,-0.22938 -2.29741,-0.72593 -3.47149,-0.97833c-0.71739,-0.15421 -1.4897,0.09053 -2.19152,-0.12754c-1.04582,-0.32495 -3.5972,-2.18251 -4.45028,-2.76956c-1.09546,-2.1001 -4.37517,-6.36842 -3.31189,-8.98831c-0.20799,-0.08843 -0.39959,-0.26011 -0.59567,-0.37618c-1.37881,-0.81608 -3.4791,-0.68023 -4.35018,-2.02933c-2.14187,-3.31717 -0.74554,-8.0779 1.6087,-10.54295c1.06299,-1.11303 2.27273,-1.12029 2.88345,-2.64992c0.37882,-0.94885 0.72029,-1.92431 0.90427,-2.9328c0.18265,-1.00122 -0.2803,-2.24126 0.3419,-3.03785c2.52396,-3.23129 6.56735,-2.27096 9.95959,-1.5827c0.03421,-0.49221 0.18066,-0.98209 0.44909,-1.43103l0.44362,-0.74194c-0.13664,-0.5498 -0.22606,-1.1079 -0.28005,-1.67108l-0.24019,0.11129l-0.73847,-1.56128c-0.47522,-0.96857 -0.47054,-2.14369 0.11543,-3.12373c0.15983,-0.2673 0.35235,-0.50246 0.5695,-0.70355c-1.48515,-0.11999 -3.08034,-0.39066 -3.47072,-0.70097c-2.37151,-1.8851 -3.3062,-5.33143 -2.03991,-8.08232c0.60729,-1.31928 2.49631,-1.48712 3.61138,-2.40922c0.69433,-0.57416 0.80373,-1.62157 1.26842,-2.39585c1.66193,-2.76915 3.27401,-5.0439 6.69943,-5.37034c0.76738,-1.3426 1.42709,-2.67645 2.70628,-3.66404c0.59311,-0.45791 1.43341,-0.49664 2.05747,-0.91155c0.62719,-0.41698 0.98057,-1.19324 1.64441,-1.54964c0.39018,-0.20948 0.81242,-0.37744 1.25547,-0.5127c0.39729,-0.57822 0.82555,-1.12931 1.28965,-1.64732c0.83526,-0.93232 1.67313,-2.00881 2.84803,-2.44469c1.94263,-0.72072 4.58983,0.24643 6.23988,1.27052c1.40063,0.8693 2.58053,2.101 3.54736,3.52904c2.89047,1.24637 5.18145,3.489 5.99806,7.23798c0.10924,0.50149 0.15493,1.90008 0.12661,3.174c0.45113,-0.03618 0.93411,0.01216 1.34518,-0.15637c0.89937,-0.36873 1.51411,-1.45339 2.48856,-1.51407c4.72754,-0.29441 9.55265,5.90289 9.76071,10.22778c0.09276,1.92816 -0.28409,3.33457 -0.9986,4.64922c-0.149,0.45511 -0.31406,0.90664 -0.48319,1.35304c3.82958,-0.68281 8.42256,2.05129 10.35294,5.44374c2.32659,1.18087 3.9217,3.31138 3.49599,6.64122c-0.11094,0.86778 -0.8465,1.49359 -1.4024,2.19049c0.92138,-0.13011 1.91525,0.00633 2.84958,-0.07615zM233.92557,206.53681c-0.12856,-0.00796 -0.25726,-0.02363 -0.38538,-0.04716c0.11998,0.08317 0.22178,0.12352 0.3,0.09068c0.02544,-0.01067 0.05399,-0.02529 0.08537,-0.0435z"/><path d="M206.36191,187.70835l-0.67154,-0.41252c-0.15921,-0.09781 -4.20039,-2.54431 -4.42879,-2.81813c-0.79013,-0.94722 -1.1934,-2.90527 -1.4993,-4.11726c-0.7874,-3.11974 -1.65772,-6.76299 -0.1423,-9.63755c-0.73383,-0.10265 -1.54552,0.03683 -2.17337,-0.35252c-0.68958,-0.42764 -0.96301,-1.3106 -1.44405,-1.96625c-0.95889,-1.30695 -2.24954,-2.53929 -1.9791,-4.3953c0.18191,-1.24839 0.88968,-2.35439 1.43413,-3.48538c1.66793,-3.46476 4.30989,-6.82237 7.06993,-9.44146c0.99486,-0.94405 1.77347,-2.34195 3.09955,-2.70513c0.56962,-0.15601 1.13795,0.0529 1.70604,0.32962c0.64507,-2.34126 1.50725,-4.61497 3.63705,-6.10095c1.19512,-0.83385 2.82365,-0.7799 4.17118,-1.33936c2.39538,-0.99451 5.24614,-2.56589 8.01009,-2.09159c1.61039,0.27633 3.1466,1.30788 4.51008,2.16115c0.77785,0.48676 1.69113,0.81059 2.3215,1.47989c2.87911,3.05702 3.27043,8.01819 6.36025,10.73327c0,0 0.49307,0.45496 0.56542,1.09489c1.97851,-0.70107 4.08591,-1.14887 6.07702,-0.63201c0.77379,0.20086 1.39256,0.79916 2.08228,1.2102c0.4928,0.2937 3.85871,2.3708 3.9925,2.50342c2.25733,2.23757 2.11146,6.88715 0.81642,9.52469c1.03258,0.52821 1.99788,1.27353 2.95297,1.8641c1.55516,0.96163 2.84762,2.30454 4.20863,3.53009c2.8597,2.57509 6.26369,4.26411 5.79789,8.75971c-0.03274,0.31605 -0.12005,0.61933 -0.2288,0.91756c1.2285,0.28627 2.48305,0.92843 3.81615,1.99569c0.70833,0.56708 1.55723,1.08726 1.94382,1.90822c0.84454,1.79352 0.61787,4.88322 0.84101,6.80031c0.1359,1.16764 0.64437,2.30638 0.60145,3.47803c-0.10839,2.95971 -2.05862,5.48043 -3.54547,7.85465c-0.66005,1.05396 -1.01888,2.40274 -2.0204,3.13562c-0.67064,0.49076 -1.36346,0.75367 -2.06906,0.87337c-0.13673,2.06373 -1.28366,4.20247 -2.23121,5.79433c-0.27009,0.45376 -2.11506,3.58187 -2.34882,3.74809c-0.94426,0.67141 -2.1087,1.08282 -3.26684,1.20385c-0.26756,0.02796 -0.53228,-0.0008 -0.79587,-0.05824c0.31561,0.34877 0.59871,0.71509 0.76184,1.14915c0.28649,0.76233 0.02103,1.6233 -0.05218,2.42874c-0.28502,3.13593 -1.71624,7.96576 -5.27009,8.94208c-0.72413,0.19893 -1.50814,-0.06511 -2.26116,-0.12069c-0.9555,-0.07054 -4.14775,-0.3084 -5.1246,-0.70071c-0.75287,-0.30235 -1.52416,-0.73191 -2.29284,-1.21111c-0.76562,1.29596 -1.72935,2.78554 -2.7039,3.43734c-4.14631,2.77315 -9.65349,0.35428 -13.36502,-2.06651c-0.96578,-0.62992 -2.24344,-0.96592 -2.86508,-1.93942c-0.68195,-1.06791 -0.52652,-2.47071 -0.74499,-3.71381c-0.47983,-2.73023 -0.86262,-4.1421 -0.01819,-6.77095l0.73428,-1.29017c0,0 0.83091,-1.38967 2.22938,-0.53059c1.39846,0.85908 0.56757,2.24876 0.56757,2.24876l-0.46269,0.71174c-0.79427,1.95657 -0.09262,2.98903 0.16717,5.20423c0.09177,0.78254 -0.19959,1.68051 0.21872,2.35264c0.36499,0.58645 1.23523,0.61021 1.83564,0.94824c2.56,1.44132 6.85697,4.2311 9.82683,2.14381c0.48277,-0.3393 1.25339,-1.54469 1.84871,-2.5489c-0.32725,-0.21744 -0.64889,-0.42612 -0.96307,-0.61913l-1.0073,-0.61879c0,0 -1.39846,-0.85909 -0.56756,-2.24876c0.8309,-1.38967 2.22937,-0.53059 2.22937,-0.53059l1.00729,0.61879c0.67339,0.41366 1.35371,0.85371 2.0452,1.28686c0.09846,0.04067 0.20022,0.09251 0.30517,0.15697c0.1101,0.06764 0.2064,0.13856 0.29036,0.21185c2.5273,1.54382 5.21662,2.8728 8.26805,2.4087c0.76134,-0.1158 1.23882,-1.47035 1.46986,-1.85934c0.76417,-1.28652 1.15867,-2.80037 1.36636,-4.29183c0.04989,-0.35828 0.35565,-0.73524 0.20073,-1.06554c-0.28124,-0.59958 -0.96309,-0.91691 -1.37445,-1.4367c-0.54676,-0.6909 -1.0212,-1.25904 -1.52667,-1.76938c-1.00001,-0.27324 -1.95818,-0.68913 -3.17417,-1.42994l-1.34306,-0.82506c0,0 -1.39847,-0.85908 -0.56757,-2.24875c0.8309,-1.38967 2.22937,-0.53059 2.22937,-0.53059l0.44924,0.27596c0.77104,-0.43876 1.62859,0.08804 1.62859,0.08804c0.91312,0.56422 1.68649,1.11753 2.3873,1.72536c0.55579,0.08847 1.19015,0.14791 2.05205,0.26317c1.38241,0.18487 2.28152,1.14073 3.53902,0.0779c0.85162,-0.71977 1.06553,-1.96702 1.64109,-2.92496c0.34465,-0.57362 1.71281,-2.72574 1.88691,-4.20431c-0.53573,-0.08758 -1.07093,-0.18606 -1.60176,-0.26093c0,0 -1.6127,-0.2422 -1.39986,-1.85792c0.03895,-0.29561 0.12474,-0.52903 0.23895,-0.71312c-0.03206,-0.23598 -0.00826,-0.50879 0.10222,-0.82175c0.5405,-1.53117 2.07477,-0.9613 2.07477,-0.9613c0.81916,0.35453 1.84015,0.41396 2.45749,1.06362c0.14938,0.1572 0.28388,0.31831 0.40442,0.48291c0.40762,-0.03552 0.75793,-0.13323 0.98598,-0.32772c0.63094,-0.53813 0.76351,-1.47843 1.17155,-2.20282c1.05828,-1.87872 3.0829,-4.00097 3.09133,-6.31652c0.00367,-1.00488 -0.45826,-1.96859 -0.58085,-2.96814c-0.04643,-0.37852 -0.17883,-4.90097 -0.46881,-5.6202c-0.15054,-0.37338 -2.33515,-1.63797 -2.45871,-1.70419c-2.45287,-1.31471 -3.58776,-0.56199 -5.82154,0.8527l-0.07927,0.47018c0,0 -0.83091,1.38966 -2.22938,0.53059c-1.39846,-0.85908 -0.56756,-2.24875 -0.56756,-2.24875l1.11771,-1.53174c1.24375,-0.77432 2.42149,-1.35069 3.57701,-1.67139c0.19408,-0.48533 0.48338,-0.94431 0.55719,-1.46293c0.4155,-2.91969 -2.9843,-4.35025 -4.71337,-5.90904c-1.97912,-1.78422 -3.2024,-2.81024 -5.40214,-4.19865c-0.55213,-0.3485 -1.41689,-1.21328 -2.24946,-0.97538c-1.67078,0.4774 -2.4711,2.07285 -3.27758,3.43549l-0.59848,1.00096c0,0 -0.83091,1.38967 -2.22938,0.53059c-1.39847,-0.85907 -0.56757,-2.24876 -0.56757,-2.24876l0.59849,-1.00095c1.06861,-1.77193 2.19159,-3.55568 4.05799,-4.46377c0.19491,-0.44348 0.54987,-0.71055 0.54987,-0.71055c0.42459,-0.27434 1.04664,-0.36963 1.27376,-0.82301c0.53454,-1.067 0.92009,-4.626 -0.24635,-5.57119c-0.99281,-0.80447 -3.4353,-2.53695 -4.66975,-2.88675c-0.93948,-0.26621 -2.16929,0.15901 -3.05433,0.37336c-2.41739,0.58545 -5.2303,1.14819 -6.81311,3.05543l-0.20889,0.41145c0,0 -0.8309,1.38966 -2.22937,0.53059c-1.39846,-0.85908 -0.56757,-2.24874 -0.56757,-2.24874l0.5891,-0.92316c0.56689,-0.58674 1.01358,-1.32057 1.70067,-1.76022c0.52106,-0.33342 1.22891,-0.23454 1.79806,-0.4785c0.22522,-0.09653 0.45536,-0.19652 0.68988,-0.29836c-3.0151,-2.99529 -3.44227,-7.614 -6.32783,-10.70043c-0.45103,-0.48242 -1.1426,-0.65629 -1.7077,-0.99524c-0.83934,-0.50347 -2.27916,-1.52888 -3.27578,-1.70933c-2.08106,-0.37678 -4.54063,1.15947 -6.30575,1.88788c-1.19545,0.49331 -2.65703,0.3798 -3.7215,1.11141c-1.0848,0.7456 -1.71946,2.50181 -2.47881,3.56352l0.99195,0.54593c0,0 1.20835,1.11494 0.11933,2.30913c-0.76376,0.8375 -1.58618,0.53929 -2.00935,0.28642c-0.69228,0.7103 -1.73025,0.28654 -1.73025,0.28654c-0.42876,-0.27071 -0.81689,-0.9839 -1.2863,-0.8121c-0.72323,0.2647 -0.92636,1.23151 -1.43546,1.80827c-0.68893,0.78048 -1.47972,1.46706 -2.15508,2.25947c-1.95363,2.29226 -4.62281,5.68362 -5.44665,8.67895c-0.23084,0.8393 0.9238,1.49949 1.3982,2.24139c0.19972,0.31233 0.12694,0.82806 0.44409,1.01847c0.33063,0.1985 0.76431,-0.11937 1.14365,-0.06524c0.98782,0.14101 1.95942,0.38343 2.93408,0.60841c0.08544,-0.0187 0.16967,-0.03967 0.252,-0.06411c0,0 0.9461,-0.22517 1.55901,0.41269l0.50265,0.04166c0,0 1.62243,0.14692 1.50465,1.77406c-0.11776,1.62715 -1.74019,1.48024 -1.74019,1.48024l-1.00536,-0.09669c-0.3082,-0.0541 -0.61561,-0.11267 -0.92252,-0.17419c-2.39121,1.21015 -0.95055,6.0053 -0.42129,8.10222c0.04895,0.19393 0.58352,2.51829 0.80749,2.77424c0.92626,1.05854 2.43371,1.39753 3.62961,2.13217l0.67153,0.41253c0,0 1.39847,0.85907 0.56757,2.24874c-0.8309,1.38967 -2.22938,0.53059 -2.22938,0.53059z"/><path d="M206.22373,213.01848l0.43281,-0.36268c0,0 1.29086,-0.97122 2.28072,0.34253c0.98986,1.31375 -0.301,2.28495 -0.301,2.28495l-1.22708,0.74258c0.12518,1.67526 0.20141,5.21004 1.3075,6.37885c0.36383,0.38447 3.56271,1.77302 3.71008,1.81184c0.71664,0.18874 1.47141,0.1413 2.20856,0.18545c0.39214,0.02349 0.87216,0.25962 1.17747,0.01732c0.7112,-0.56444 0.94235,-1.58024 1.59177,-2.21507c0.75808,-0.74105 1.71878,-1.24079 2.57816,-1.86118c0,0 1.3146,-0.93889 2.27269,0.39815c0.95809,1.33704 -0.35652,2.27593 -0.35652,2.27593c-0.74313,0.52413 -1.57053,0.94543 -2.22938,1.57239c-0.85355,0.81223 -1.26972,2.09081 -2.27172,2.71086c-1.00595,0.62248 -4.7779,0.3262 -5.72326,0.08136c-1.09403,-0.28334 -4.60355,-1.95506 -5.41884,-2.88367c-1.73582,-1.9771 -1.99739,-5.81406 -1.83346,-8.6556l-1.1798,-0.10776c-3.79528,-0.66488 -7.50438,-0.74159 -10.53604,-3.61916c-0.46546,-0.4418 -0.64559,-1.11638 -1.05387,-1.61183c-0.52235,-0.63388 -1.41113,-1.0014 -1.72433,-1.75955c-0.35211,-0.85234 -0.02442,-1.83818 -0.13867,-2.75002c-0.08728,-0.69661 -0.19451,-1.39326 -0.28031,-2.09096c-1.53147,-0.38907 -2.9546,-1.05448 -4.28235,-2.313c-0.45942,-0.43545 -0.61552,-1.11882 -1.03674,-1.59159c-0.58987,-0.66208 -1.5269,-1.01744 -1.97118,-1.78456c-1.85745,-3.20715 1.49784,-6.67217 3.09655,-9.21702c0.68424,-1.08918 1.1021,-2.42155 2.08624,-3.24573c0.10966,-0.09183 0.22792,-0.16766 0.35283,-0.23114c-0.08305,-0.91632 0.47295,-1.83579 0.80688,-2.70412c0.8561,-2.22608 3.29801,-5.85808 5.42835,-6.76996c0.84754,-0.36278 1.84674,0.20322 2.77007,0.30542c1.67543,0.18546 3.2798,0.96315 4.73824,1.83155c0,0 1.39846,0.85908 0.56756,2.24875c-0.8309,1.38967 -2.22938,0.53059 -2.22938,0.53059c-1.0444,-0.66803 -2.234,-1.15248 -3.44661,-1.3716c-0.47419,-0.08569 -0.95023,-0.61885 -1.38558,-0.42259c-0.85494,0.38541 -2.13226,2.81741 -2.57317,3.55665c-0.30465,0.5108 -0.60135,1.02678 -0.92242,1.52715c-0.16377,0.25524 -0.60853,0.45063 -0.57011,0.73276c0.27705,0.06277 0.5753,0.20193 0.81061,0.48906c0.0707,0.02847 0.13653,0.06214 0.19261,0.10551c0.53045,0.41017 0.98623,0.90999 1.47934,1.36497l1.08495,0.62958c0,0 1.39847,0.85907 0.56757,2.24874c-0.8309,1.38967 -2.22938,0.53059 -2.22938,0.53059l-1.6012,-1.02051c-0.22713,-0.20957 -0.71401,-0.64807 -1.2524,-1.15164c-0.24275,0.01391 -0.46796,0.06382 -0.64068,0.22127c-1.09027,0.99397 -1.41024,2.60203 -2.16902,3.87108c-0.75879,1.26906 -1.85118,2.3564 -2.38193,3.74029c-0.30903,0.80579 1.24706,1.2272 1.83657,1.8732c0.36691,0.40206 0.46303,1.01192 0.8514,1.39312c0.72968,0.71617 1.52162,1.1332 2.36019,1.39179c0.23992,-0.23262 0.59751,-0.40322 1.13049,-0.39612c0.80927,0.01079 1.21766,0.42053 1.42376,0.82961c0.30179,0.02765 0.60701,0.05289 0.91512,0.08079l0.55143,-0.21774c0,0 1.57641,-0.37518 1.97773,1.21492c0.40133,1.5901 -1.17507,1.96528 -1.17507,1.96528l-1.58962,0.29182c-0.07129,-0.00645 -0.14238,-0.01298 -0.21327,-0.01961c0.05929,0.40521 0.11498,0.8107 0.14918,1.21726c0.05122,0.60876 -0.34642,1.25437 -0.11903,1.82406c0.19393,0.48588 0.88763,0.57764 1.23434,0.97039c0.35446,0.40153 0.45183,0.99811 0.83427,1.37289c2.35511,2.30788 5.66798,2.16836 8.64625,2.69011l1.67473,0.15023c0,0 0.50923,0.04611 0.93639,0.37277z"/></g><g data-paper-data="{&quot;index&quot;:null}" fill="#de0000"><path d="M204.13598,208.34031c-1.9949,0.29781 -5.28388,1.0448 -7.28036,0.24471c-1.53094,-0.61351 -2.89833,-1.67217 -4.02711,-2.87466c-2.28611,-2.43538 -1.80219,-3.58838 -2.65515,-6.3284c-1.19546,-3.84031 -3.08539,-7.9581 -1.79617,-12.12873c0.80191,-2.59415 2.29894,-4.54274 4.3775,-5.81509c-0.52797,-0.66893 -0.99428,-1.6129 -1.79619,-2.93766c-0.56437,-0.93235 -1.37424,-1.78252 -1.60749,-2.84712c-1.42693,-6.51282 2.45317,-10.3046 6.72183,-13.97608c-2.22624,-0.14774 -4.70141,-0.76835 -5.96376,-2.08422c-3.03572,-3.16445 -2.16526,-9.75813 0.5822,-12.68995c0.16267,-0.17359 4.48662,-2.20958 5.41523,-2.65003c1.28323,-0.49987 3.14793,-1.38257 4.83848,-1.60989c-0.07353,-0.21252 -0.13001,-0.43152 -0.16575,-0.65837c-1.06995,-6.78936 8.31946,-11.5944 13.85687,-10.72278c0.89711,0.14121 1.63664,0.80247 2.50162,1.07917c0.96675,0.30925 2.06609,0.20968 2.97014,0.67115c0.75185,0.38378 1.1015,1.31302 1.81148,1.7696c0.93676,0.6024 2.29697,0.54021 3.0526,1.3584c0.05063,0.05483 0.09832,0.11149 0.14336,0.16977c0.66568,-0.91222 1.64354,-1.32225 2.40862,-1.50634c-0.17798,-1.06283 -0.01113,-2.97258 0.2577,-3.45887c1.30334,-2.35765 6.10897,-5.52971 8.87949,-5.92927c1.71676,-0.2476 3.68173,-0.78868 5.20337,0.04388c0.13159,0.072 4.36814,5.87884 5.24971,7.1333c0.54437,0.77462 0.69314,2.09895 1.60845,2.34102c0.61112,0.16163 1.22316,-0.3252 1.81892,-0.53652c1.47237,-0.52229 3.04923,-0.70297 4.53154,-1.19637c0.90571,-0.30148 1.61756,-1.09078 2.54668,-1.3097c1.38452,-0.32622 5.44457,0.08257 6.78026,0.18073c2.57789,1.64913 9.00191,4.3021 9.48478,7.97151c0.2906,-0.03795 0.61612,0.02917 0.91104,0.03038c2.07379,0.00847 4.34909,-1.53866 6.19335,-0.59031c4.53474,2.3318 6.01482,8.6442 4.94644,12.99495c-0.4824,1.96447 -1.83843,2.77529 -1.54516,4.911c0.18191,1.32479 0.42291,2.65493 0.86222,3.91794c0.43614,1.25391 1.75147,2.34965 1.56208,3.66368c-0.76827,5.33023 -5.93153,6.9264 -10.18805,8.39834c0.27692,0.57955 0.42612,1.23093 0.41187,1.91693l-0.02353,1.13371c0.506,0.53137 0.9642,1.10343 1.38581,1.70476l0.19884,-0.28528l1.83107,1.2764c1.15518,0.78049 1.90292,2.11305 1.87183,3.61057c-0.00849,0.40845 -0.07434,0.80221 -0.18971,1.17379c1.74735,-0.8496 3.71502,-1.6017 4.35295,-1.50963c3.87537,0.55928 7.13508,3.83813 7.47354,7.79045c0.16234,1.89547 -1.8548,3.33862 -2.51814,5.12163c-0.41304,1.11023 0.13508,2.36779 0.10856,3.55206c-0.09483,4.23548 -0.4504,7.87852 -4.09402,10.52047c-0.00278,2.02805 0.10991,3.97478 -0.69604,5.94078c-0.37369,0.91157 -1.29402,1.51287 -1.73006,2.39632c-0.43824,0.88785 -0.3383,2.00053 -0.85658,2.84418c-0.30464,0.49586 -0.67191,0.96601 -1.08358,1.41299c-0.07634,0.91775 -0.20491,1.82536 -0.39497,2.71932c-0.34205,1.60893 -0.59465,3.38269 -1.63684,4.65532c-1.72319,2.10424 -5.32041,2.76636 -7.83258,2.70251c-2.13243,-0.05421 -4.24882,-0.66486 -6.25135,-1.639c-4.04978,0.50764 -8.06366,-0.50955 -11.38449,-4.20912c-0.44422,-0.49489 -1.39181,-2.04684 -2.17628,-3.50688c-0.48424,0.34025 -1.05846,0.606 -1.41282,1.06937c-0.77532,1.01386 -0.7717,2.64883 -1.82884,3.36399c-5.12874,3.46961 -14.52709,-0.34037 -17.53245,-5.09524c-1.33988,-2.11986 -1.81723,-3.961 -1.856,-5.92236c-0.12404,-0.61374 -0.22772,-1.23409 -0.32355,-1.85133c-3.86985,3.31326 -10.7879,3.26733 -15.133,0.71004c-3.37357,0.20763 -6.53291,-1.14442 -8.18784,-5.19402c-0.43128,-1.05535 -0.00496,-2.25138 0.17372,-3.40863c-0.95297,0.75849 -2.15826,1.26354 -3.15632,1.97673zM220.66669,163.67541c0.14971,-0.07629 0.3045,-0.14394 0.46369,-0.20232c-0.18825,-0.01448 -0.3286,0.0074 -0.39555,0.09646c-0.02177,0.02896 -0.04453,0.06442 -0.06815,0.10586z"/><path d="M263.73465,166.68938l1.01966,0.02117c0.24175,0.00501 6.35485,0.09169 6.78721,0.24993c1.49569,0.54739 3.20398,2.49507 4.32467,3.66328c2.88476,3.00708 6.19823,6.55141 6.33574,10.80892c0.89117,-0.37073 1.71476,-1.06706 2.67044,-1.04312c1.04966,0.0263 1.923,0.84381 2.88417,1.26641c1.91603,0.84242 4.1574,1.38033 5.04253,3.65953c0.59537,1.53305 0.508,3.25388 0.62034,4.89464c0.34416,5.02641 -0.4759,10.57785 -1.90203,15.37209c-0.51405,1.72809 -0.49405,3.82615 -1.75285,5.11685c-0.54073,0.55441 -1.31383,0.69514 -2.13013,0.75899c0.7747,3.07675 1.26193,6.22111 -0.18137,9.31528c-0.80991,1.7363 -2.67621,2.7557 -3.83336,4.28267c-2.05697,2.71435 -4.2565,6.38347 -7.66923,7.68067c-1.98838,0.75579 -4.37729,0.60797 -6.45766,0.54728c-1.18682,-0.03463 -2.42155,0.20495 -3.55945,-0.13404c-5.19726,-1.54834 -8.8165,-6.90149 -14.03165,-7.9232c0,0 -0.84611,-0.18757 -1.33755,-0.86355c-1.77612,2.10581 -3.85953,4.01059 -6.43026,4.74687c-0.99904,0.28613 -2.0784,0.0198 -3.11757,0.01236c-0.74249,-0.00531 -5.85937,-0.12209 -6.09484,-0.18336c-3.97279,-1.03381 -6.78815,-6.39084 -7.02165,-10.23398c-1.49988,0.08749 -3.06323,-0.11529 -4.51593,-0.14975c-2.3654,-0.05614 -4.67966,-0.71793 -6.99581,-1.20146c-4.8666,-1.01599 -9.77763,-0.66846 -12.13447,-6.06353c-0.1657,-0.37928 -0.26184,-0.78031 -0.33062,-1.18987c-1.56522,0.49119 -3.38778,0.59703 -5.57112,0.27406c-1.1601,-0.17161 -2.44823,-0.1969 -3.40912,-0.8692c-2.0992,-1.46874 -3.82412,-5.11464 -5.30355,-7.13548c-0.90108,-1.23083 -2.20268,-2.18178 -2.9052,-3.53578c-1.77465,-3.42033 -1.19636,-7.56601 -1.04538,-11.23855c0.06702,-1.63029 -0.39367,-3.3943 0.26319,-4.88791c0.43984,-1.00014 1.05064,-1.75726 1.76757,-2.36079c-1.16864,-2.4255 -1.24909,-5.60608 -1.20338,-8.03566c0.01303,-0.69256 0.08371,-5.45556 0.24014,-5.79871c0.63186,-1.38607 1.67793,-2.62406 2.90302,-3.52938c0.28302,-0.20915 0.59921,-0.35224 0.9325,-0.46213c-0.57848,-0.18518 -1.13166,-0.41178 -1.59328,-0.79462c-0.81073,-0.67237 -1.06385,-1.82255 -1.49763,-2.78235c-1.68891,-3.7369 -3.17405,-10.15061 0.19758,-13.61301c0.68699,-0.70549 1.73803,-0.92693 2.62063,-1.36363c1.11992,-0.55413 4.86289,-2.40296 6.213,-2.60721c1.04054,-0.15743 2.18332,-0.18318 3.355,-0.15103c0.03071,-1.97414 0.16015,-4.29875 0.83863,-5.68271c2.88663,-5.88828 10.63095,-6.8055 16.35678,-6.52922c1.48992,0.0719 3.1423,-0.39564 4.46534,0.29327c1.45135,0.75572 2.17543,2.44589 3.21773,3.70731c2.28922,2.77047 3.62448,4.1138 4.35925,7.64815l0.00084,1.9468c0,0 -0.04409,2.12346 -2.16755,2.07938c-2.12346,-0.04409 -2.07938,-2.16755 -2.07938,-2.16755l0.06433,-1.1122c-0.36039,-2.7405 -1.81118,-3.44305 -3.52287,-5.77683c-0.60467,-0.82443 -0.85238,-2.03365 -1.75358,-2.51651c-0.78633,-0.42132 -1.78037,0.12917 -2.67231,0.14509c-3.80301,0.06785 -10.42376,-0.23747 -12.42667,4.09433c-0.32557,0.70417 -0.41993,2.57914 -0.44604,4.11022c0.50741,0.0289 1.00291,0.05157 1.47996,0.06149l1.52949,0.03176c0,0 2.12345,0.04408 2.07937,2.16754c-0.04409,2.12346 -2.16753,2.07937 -2.16753,2.07937l-1.52949,-0.03176c-1.02247,-0.02123 -2.06967,-0.0677 -3.125,-0.09899c-0.1368,0.0193 -0.28447,0.0282 -0.44382,0.02489c-0.16718,-0.00348 -0.32094,-0.01983 -0.46233,-0.04704c-3.83192,-0.06982 -7.70837,0.2109 -10.84313,2.76047c-0.78213,0.63612 -0.4512,2.48536 -0.46181,3.07872c-0.03511,1.96249 0.49122,3.93689 1.21334,5.76204c0.17347,0.43843 0.07111,1.06777 0.45702,1.33865c0.70054,0.49174 1.67081,0.39838 2.46657,0.71351c1.05771,0.41886 1.95541,0.74688 2.85097,0.98887c1.29987,-0.35434 2.64411,-0.51953 4.48651,-0.48818l2.03934,0.04233c0,0 2.12345,0.04408 2.07937,2.16754c-0.04409,2.12346 -2.16753,2.07937 -2.16753,2.07937l-0.68213,-0.01417c-0.58609,1.00794 -1.88821,0.98091 -1.88821,0.98091c-1.3886,-0.03251 -2.61303,-0.14541 -3.79077,-0.3681c-0.68183,0.26866 -1.43339,0.62228 -2.47671,1.06372c-1.67336,0.70802 -3.29715,0.22314 -4.0305,2.25985c-0.49664,1.37932 0.06197,2.9323 0.02844,4.39793c-0.02007,0.87762 -0.17986,4.22011 0.57177,6.00837c0.65869,-0.25633 1.32376,-0.50004 1.9688,-0.76751c0,0 1.96912,-0.79595 2.76507,1.17318c0.14563,0.36028 0.1987,0.68128 0.1882,0.96531c0.18729,0.2457 0.33532,0.57013 0.41161,0.9975c0.37321,2.09086 -1.71765,2.46406 -1.71765,2.46406c-1.14856,0.14239 -2.335,0.75254 -3.44567,0.42715c-0.26875,-0.07874 -0.52327,-0.17179 -0.76433,-0.27803c-0.43571,0.31062 -0.76714,0.65358 -0.89901,1.02493c-0.36482,1.0274 0.08861,2.17917 0.09382,3.26941c0.01354,2.82759 -0.90374,6.57182 0.57056,9.19708c0.6398,1.13928 1.77689,1.92309 2.55528,2.97258c0.29477,0.39743 3.34166,5.426 4.1287,6.04732c0.40857,0.32254 3.67609,0.30383 3.85752,0.29677c3.60138,-0.14001 4.39552,-1.74452 6.00149,-4.82705l-0.21213,-0.58451c0,0 0.04409,-2.12346 2.16755,-2.07938c2.12346,0.04409 2.07938,2.16755 2.07938,2.16755l-0.27565,2.47448c-0.90276,1.70119 -1.8581,3.13464 -2.95229,4.26411c0.09272,0.67784 0.06141,1.38904 0.31072,2.02474c1.40359,3.57882 6.14428,2.94163 9.08793,3.558c3.36937,0.70549 5.40277,1.05468 8.76665,1.16599c0.84435,0.02794 2.37114,0.43259 3.15514,-0.38893c1.57332,-1.6486 1.45114,-3.98459 1.48507,-6.06125l0.03176,-1.52949c0,0 0.04408,-2.12345 2.16754,-2.07937c2.12346,0.04409 2.07937,2.16753 2.07937,2.16753l-0.03176,1.52949c-0.06651,2.71362 -0.18656,5.47672 -1.70393,7.74235c0.06494,0.63104 -0.16317,1.16868 -0.16317,1.16868c-0.30176,0.59206 -0.94036,1.11258 -0.9053,1.7762c0.0825,1.56178 1.92944,5.84401 3.84709,6.13946c1.63218,0.25146 5.48957,0.59097 7.1022,0.16771c1.22729,-0.32213 2.33805,-1.61913 3.19616,-2.44882c2.34386,-2.26619 5.14712,-4.76909 5.70528,-7.97696l-0.0287,-0.60407c0,0 0.04408,-2.12345 2.16754,-2.07937c2.12346,0.04409 2.07937,2.16753 2.07937,2.16753l-0.07105,1.43525c-0.26163,1.03991 -0.29383,2.16648 -0.78493,3.11974c-0.37243,0.7229 -1.23195,1.08068 -1.71578,1.73427c-0.19147,0.25864 -0.38625,0.52445 -0.58477,0.79525c5.31066,1.3883 8.75077,6.3302 13.97412,7.90755c0.81643,0.24654 1.70573,-0.0156 2.55852,-0.00704c1.26668,0.01272 3.54323,0.21755 4.77982,-0.23953c2.58215,-0.95443 4.36417,-4.32429 5.88276,-6.31943c1.02849,-1.35124 2.74518,-2.19252 3.47364,-3.72646c0.74237,-1.56324 0.33085,-3.97118 0.50461,-5.67612l-1.46556,0.04049c0,0 -2.07357,-0.45967 -1.6139,-2.53324c0.32238,-1.45422 1.43853,-1.66249 2.07653,-1.65716c0.32352,-1.26289 1.76251,-1.47211 1.76251,-1.47211c0.65573,0.02178 1.54931,0.57115 1.96718,0.06535c0.64384,-0.7793 0.25279,-2.00786 0.45582,-2.99813c0.27475,-1.34005 0.72428,-2.64149 0.97612,-3.98604c0.72852,-3.88946 1.55757,-9.49714 0.56481,-13.43245c-0.27818,-1.10268 -1.99991,-1.08354 -3.00893,-1.60814c-0.42477,-0.22084 -0.67341,-0.85258 -1.15214,-0.85759c-0.49909,-0.0052 -0.78317,0.64214 -1.24453,0.83255c-1.20142,0.49586 -2.44959,0.86624 -3.69003,1.25835c-0.08414,0.07785 -0.1654,0.15745 -0.24234,0.23972c0,0 -0.91986,0.88245 -2.01798,0.56744l-0.59205,0.28635c0,0 -1.91899,0.9102 -2.82919,-1.00878c-0.9102,-1.91899 1.00878,-2.8292 1.00878,-2.8292l1.19276,-0.55762c0.38131,-0.14327 0.76462,-0.28097 1.14923,-0.41498c1.91411,-2.95555 -2.77902,-7.42467 -4.71801,-9.44587c-0.17932,-0.18692 -2.27004,-2.4619 -2.68595,-2.60288c-1.72013,-0.58304 -3.63289,0.03359 -5.44875,-0.00411l-1.01966,-0.02117c0,0 -2.12346,-0.04409 -2.07938,-2.16755c0.04409,-2.12346 2.16754,-2.07937 2.16754,-2.07937z"/><path d="M247.67148,137.96341l-0.25441,0.69747c0,0 -0.82957,1.9552 -2.78476,1.12565c-1.95521,-0.82956 -1.12565,-2.78476 -1.12565,-2.78476l0.90433,-1.65423c-1.2143,-1.81223 -3.56511,-5.76069 -5.55817,-6.34915c-0.65558,-0.19358 -5.14338,0.35783 -5.33401,0.4117c-0.927,0.26194 -1.74555,0.81635 -2.60295,1.25548c-0.45613,0.2336 -1.14734,0.28492 -1.33547,0.76162c-0.43826,1.11042 -0.04733,2.413 -0.37098,3.56206c-0.3778,1.34134 -1.13813,2.54408 -1.70719,3.81612c0,0 -0.87697,1.93439 -2.81138,1.0574c-1.9344,-0.87699 -1.05741,-2.81137 -1.05741,-2.81137c0.49999,-1.086 1.16068,-2.11158 1.49997,-3.25802c0.43958,-1.4852 0.08836,-3.20785 0.81805,-4.57409c0.73257,-1.37164 5.16502,-3.53899 6.38523,-3.8892c1.41209,-0.40529 6.43073,-0.84243 7.94278,-0.33277c3.21929,1.08513 5.97222,5.2525 7.60867,8.57597l1.39604,-0.66084c4.69487,-1.7658 8.91591,-4.13985 14.16975,-2.89574c0.80665,0.19102 1.4415,0.83466 2.21821,1.12432c0.99372,0.37058 2.22889,0.1967 3.06698,0.84662c0.94223,0.73067 1.20537,2.0634 1.91817,3.01921c0.54456,0.7302 1.11157,1.44719 1.65516,2.17961c1.97186,-0.57589 3.99895,-0.76728 6.29882,-0.2244c0.79577,0.18785 1.40925,0.85738 2.18597,1.11279c1.08773,0.35768 2.36939,0.13803 3.36067,0.71114c4.1443,2.39603 2.59077,8.54223 2.42332,12.48201c-0.07167,1.68621 0.31211,3.47078 -0.26668,5.05615c-0.06449,0.17664 -0.14892,0.34089 -0.24873,0.4956c0.68058,0.98156 0.64442,2.39067 0.82523,3.5946c0.46355,3.08643 0.04431,8.81557 -1.76749,11.2606c-0.72082,0.97274 -2.20738,0.99534 -3.3114,1.49229c-2.00332,0.90176 -4.3062,1.08637 -6.50308,1.07154c0,0 -2.12346,-0.04409 -2.07938,-2.16755c0.04409,-2.12346 2.16755,-2.07938 2.16755,-2.07938c1.60277,0.06285 3.25123,-0.17832 4.75557,-0.73494c0.58826,-0.21766 1.46535,0.06968 1.82926,-0.44119c0.71465,-1.00325 0.59292,-4.60212 0.61514,-5.73096c0.01534,-0.78 0.01843,-1.5606 0.05891,-2.33971c0.02065,-0.39743 0.39571,-0.91356 0.1717,-1.20724c-0.35186,0.11279 -0.77649,0.15321 -1.22514,-0.01548c-0.09776,0.01471 -0.19336,0.02027 -0.28424,0.00843c-0.85945,-0.1121 -1.69239,-0.37518 -2.53859,-0.56275l-1.62374,0.00754c0,0 -2.12345,-0.04408 -2.07937,-2.16753c0.04409,-2.12346 2.16755,-2.07938 2.16755,-2.07938l2.45492,0.09221c0.38976,0.0864 1.21838,0.25947 2.14663,0.47197c0.26414,-0.1768 0.48546,-0.38267 0.57882,-0.67539c0.58939,-1.84786 -0.08117,-3.8794 -0.0409,-5.81856c0.04026,-1.93915 0.57217,-3.89406 0.28237,-5.81186c-0.16875,-1.11665 -2.18904,-0.561 -3.26607,-0.90073c-0.67033,-0.21144 -1.16923,-0.83763 -1.85034,-1.01122c-1.27965,-0.32613 -2.43763,-0.27249 -3.54654,-0.00869c-0.1208,0.42236 -0.41368,0.85261 -1.01772,1.19819c-0.91715,0.52471 -1.63906,0.3321 -2.133,0.00604c-0.35717,0.16895 -0.71666,0.34291 -1.08107,0.51575l-0.4807,0.61218c0,0 -1.53268,1.47033 -3.00302,-0.06234c-1.47033,-1.53268 0.06235,-3.003 0.06235,-3.003l1.60096,-1.3848c0.08433,-0.04 0.16846,-0.07976 0.25244,-0.1193c-0.32635,-0.41909 -0.64881,-0.84089 -0.94781,-1.27816c-0.4477,-0.65473 -0.41416,-1.64895 -1.03498,-2.14261c-0.52947,-0.42104 -1.36853,-0.0646 -2.01017,-0.27889c-0.65598,-0.21909 -1.14779,-0.82943 -1.81811,-0.99969c-4.12784,-1.04849 -7.76465,1.30733 -11.44886,2.69302l-1.97996,0.94116c0,0 -0.60231,0.28568 -1.29209,0.19952z"/></g><path d="M286.25331,210.83883l1.96421,2.12288c1.15804,3.54092 1.0597,7.69385 -1.53015,10.75168c-1.11722,1.3191 -2.38552,1.84213 -3.79507,2.31734c-0.74,1.53228 -1.94227,2.86913 -3.29477,3.8998c-1.03448,0.78832 -3.00941,2.79589 -4.18382,3.20071c-6.54262,2.25525 -12.69926,-2.1094 -18.23625,-4.58901c-2.27809,-1.02019 -3.66187,-1.34579 -5.01499,-2.45c-0.54585,0.95242 -1.18852,1.85597 -2.06428,2.46486c-3.31734,2.30645 -9.84018,1.89539 -13.5792,1.09109c-1.0411,-0.22395 -2.14123,-0.37429 -3.06328,-0.90706c-3.86351,-2.23234 -5.2382,-6.71888 -5.23729,-10.72173c0,0 0.04409,-2.12346 2.16755,-2.07938c2.12346,0.04409 2.07938,2.16755 2.07938,2.16755c-0.0438,0.87241 -0.28944,1.75815 -0.13143,2.61725c0.09736,0.52932 0.55216,0.92529 0.86371,1.36413c0.74462,1.04887 1.31287,2.35752 2.42727,2.99996c1.53691,0.88603 4.46913,0.61174 6.11072,0.64788c1.58536,0.03491 4.4539,0.34535 5.93437,-0.66505c0.5725,-0.39073 1.59865,-2.58781 1.80235,-2.97977l0.73128,-0.64643c0.14206,-0.17871 0.32922,-0.35248 0.57226,-0.51519c0.62393,-0.41773 1.17498,-0.4672 1.62667,-0.35659c0.45806,0.08025 0.94276,0.347 1.34621,0.98025c0.01706,0.02676 0.03344,0.05338 0.04919,0.07984c1.56174,2.45448 2.33526,1.78673 5.12692,3.03659c4.3374,1.94193 9.82379,6.20104 15.0397,4.46781c1.28659,-0.42752 2.01026,-1.82789 3.10794,-2.6236c0.61132,-0.44315 1.23334,-0.96963 1.64248,-1.60777c-0.28399,-1.19743 0.42651,-1.87481 0.937,-2.19517c0.06639,-0.15565 0.8202,-1.81377 2.57637,-1.23912c2.28833,-1.53346 3.08612,-4.0251 1.96786,-7.14244l-0.77365,-0.32426c0,0 -1.58356,-1.4154 -0.16816,-2.99894c1.4154,-1.58356 2.99894,-0.16816 2.99894,-0.16816z" data-paper-data="{&quot;index&quot;:null}" fill="#bf0000"/><path d="M193.21464,165.96588l-2.0293,1.05773c-3.19036,1.18444 -5.93708,4.90503 -4.75724,8.62236c0.52857,1.66538 2.43812,3.58986 3.61766,5.02959c0.23365,0.20811 0.4427,0.50317 0.59815,0.91647c0.02766,0.07353 0.05158,0.14535 0.07197,0.21551c0.0988,0.32228 0.14854,0.7183 0.02936,1.12965c-0.11632,0.41217 -0.36791,0.72201 -0.62216,0.94334c-0.05441,0.04876 -0.11268,0.09709 -0.17502,0.14488c-0.41166,0.31556 -0.79986,0.45349 -1.15149,0.48178c-4.67746,3.41387 0.36563,10.86782 2.3671,14.58541c0.59178,1.09921 1.29373,2.22709 2.31671,2.9426c0,0 1.69139,1.28461 0.40677,2.97598c-1.28462,1.69138 -2.97599,0.40678 -2.97599,0.40678c-4.47349,-3.57899 -7.58492,-10.23878 -7.90469,-16.05201c-0.12329,-2.24122 -0.50627,-4.2582 0.87097,-6.29977c0.38316,-0.56799 0.9543,-0.96474 1.53285,-1.35473c-1.2426,-1.51167 -2.54074,-3.17946 -3.03901,-4.80611c-1.81644,-5.92978 2.06005,-11.71277 7.26205,-13.83581l1.59592,-0.8589c0,0 1.87764,-0.9927 2.87033,0.88494c0.99269,1.87765 -0.88494,2.87033 -0.88494,2.87033z" data-paper-data="{&quot;index&quot;:null}" fill="#bf0000"/><path d="M188.22549,169.88961l-0.09951,-0.18067c-1.2546,2.87844 -0.31873,6.8448 0.44552,9.87897c0,0 0.51618,2.06022 -1.54404,2.57641c-2.06023,0.51618 -2.57641,-1.54404 -2.57641,-1.54404c-1.02408,-4.10725 -1.71551,-8.4553 -0.28613,-12.44555l1.11991,-1.35049c0,0 1.53268,-1.47033 3.00302,0.06234c1.47033,1.53268 -0.06234,3.00302 -0.06234,3.00302z" data-paper-data="{&quot;index&quot;:null}" fill="#bf0000"/><path d="M278.73179,170.73156l0.8774,0.08165c3.52096,-0.74822 6.98719,-2.80797 6.14081,-6.9849c-0.17734,-0.87515 -0.72519,-1.64389 -0.92403,-2.51441c-0.58175,-2.54679 -0.03645,-3.26316 -2.43954,-4.54464c-0.43362,-0.16912 -0.92219,-0.49902 -1.14416,-1.14224c-0.16981,-0.36881 -0.24222,-0.83031 -0.06008,-1.37558c0.12461,-0.56123 0.4243,-0.91955 0.75975,-1.14829c0.18286,-0.15329 0.374,-0.25666 0.5649,-0.32291c1.85062,-1.93755 1.14861,-3.16395 0.62018,-5.87016c-0.41841,-2.14284 -0.73642,-5.65478 -2.98362,-7.02044c-1.80522,-1.09706 -5.36939,0.02859 -7.61949,0.38757l-0.00698,0.38006c0,0 -0.04408,2.12345 -2.16754,2.07937c-2.12346,-0.04409 -2.07937,-2.16753 -2.07937,-2.16753l0.05243,-2.2272c-0.19947,-2.2792 -2.09666,-4.55946 -4.38413,-5.39776c-1.29641,-0.47511 -2.76185,0.04671 -4.14214,0.01229c-3.4107,-0.08506 -7.00257,0.91792 -10.34203,1.76698l-0.50191,1.2449c0,0 -1.21456,1.74237 -2.95692,0.5278c-1.57056,-1.0948 -0.73858,-2.61844 -0.55922,-2.90828c-0.76291,-5.73767 -7.04028,-8.01317 -12.25697,-6.10425c-0.65997,0.2415 -3.14045,1.09607 -3.64965,1.61106c-0.5704,0.57691 -0.63799,1.5306 -1.19548,2.11995c-0.46524,0.49185 -1.07868,0.80839 -1.67078,1.15016c0.26561,0.89549 0.46319,1.79993 0.67423,2.58795c0,0 0.54097,2.05386 -1.51289,2.59483c-2.05386,0.54096 -2.59483,-1.51289 -2.59483,-1.51289c-0.03594,-0.1392 -0.75602,-3.46989 -1.2765,-4.00116c-0.81318,-0.83005 -2.25429,-0.58675 -3.40549,-0.74494c-4.66822,-0.64142 -7.96956,-0.1407 -11.96727,2.39736c-0.80929,0.5138 -2.64582,1.53185 -3.16421,2.40045c-0.78112,1.30881 -0.80747,2.94234 -1.31851,4.3783l-0.36652,1.72913c0,0 -0.45967,2.07357 -2.53324,1.6139c-2.07357,-0.45967 -1.6139,-2.53324 -1.6139,-2.53324l0.51256,-2.23642c0.60399,-1.69049 0.70717,-3.60407 1.66737,-5.12084c1.15644,-1.82674 2.82042,-2.71886 4.53402,-3.81382c4.79565,-3.0643 9.23842,-3.82906 14.83675,-3.02186c1.48876,0.21465 3.95089,0.53794 5.34424,1.53749c0.76664,-0.74815 1.26956,-1.81214 2.06603,-2.54715c0.85589,-0.78984 1.9754,-1.24149 3.01817,-1.76015c7.405,-3.68317 16.60602,-1.253 19.3923,6.15614c6.05384,-1.54031 13.55342,-3.50981 18.85961,0.17097c1.67153,1.1595 3.3006,2.11381 4.22107,4.11866c0.18659,0.4064 0.28056,0.84075 0.33692,1.28647c3.14954,-0.38396 7.03697,-1.53404 9.88947,0.16433c3.44236,2.04957 4.35777,6.44357 5.03155,9.87795c0.33631,1.71428 1.05318,3.47935 0.71088,5.19244c-0.35519,1.77757 -0.64094,2.51635 -1.18473,3.18377c0.0436,0.04333 0.0859,0.08823 0.12673,0.13484c1.35835,1.55017 1.5774,3.82918 2.03505,5.83884c0.87268,3.83218 1.98788,7.51735 -1.139,10.87042c-1.88557,2.02197 -4.72362,3.03322 -7.28942,3.64821l-1.91006,0.02377c0,0 -2.12346,-0.04409 -2.07938,-2.16755c0.04409,-2.12346 2.16755,-2.07938 2.16755,-2.07938z" data-paper-data="{&quot;index&quot;:null}" fill="#bf0000"/><path d="M229.32408,205.83588l-2.42548,0.98908c-3.62779,0.31883 -8.12592,0.64109 -11.12419,-2.03567c-0.47463,-0.42373 -0.82715,-0.95618 -1.16043,-1.50574l-0.89663,0.08479c-1.05816,-0.15213 -2.19101,-0.03724 -3.17447,-0.45637c-2.02847,-0.86451 -4.21887,-3.80222 -5.66206,-5.43998c-0.72161,-0.81891 -1.81856,-1.46288 -2.09109,-2.51979c-0.31614,-1.22604 0.31293,-2.51287 0.46941,-3.76929c0,0 0.39257,-2.0873 2.47988,-1.69472c2.08731,0.39257 1.69473,2.47989 1.69473,2.47989c-0.19093,0.59068 -0.69451,1.16332 -0.57281,1.77205c0.08775,0.439 0.75499,0.48899 1.08523,0.79122c2.21361,2.02594 3.14745,4.43295 6.24346,4.61554l0.12384,-0.02137c0.02907,-0.021 0.05903,-0.04184 0.08987,-0.06249c1.76488,-1.1816 2.94648,0.58328 2.94648,0.58328c2.06117,3.31918 4.84764,3.29548 8.54653,3.0508l1.78345,-0.77786c0,0 1.95833,-0.82213 2.78046,1.1362c0.82213,1.95833 -1.1362,2.78046 -1.1362,2.78046z" data-paper-data="{&quot;index&quot;:null}" fill="#bf0000"/><path d="M271.72517,178.67952l2.67931,1.3412c0.65318,0.84891 1.59502,1.53954 1.95954,2.54672c0.34798,0.96145 0.07823,2.04414 0.07208,3.06661c-0.02165,3.6 -0.17838,7.91977 -3.36925,10.42636c-0.45238,0.35536 -1.01201,0.51595 -1.58283,0.65621c0.01001,0.05059 0.01913,0.10171 0.02732,0.15333c0.79551,5.01359 -4.58627,7.3773 -8.34591,8.97315c0,0 -0.32879,0.13802 -0.77348,0.16624c-2.51831,3.65347 -7.26142,3.782 -11.29567,3.70672c0,0 -2.12346,-0.04409 -2.07938,-2.16755c0.04409,-2.12346 2.16755,-2.07938 2.16755,-2.07938c2.28958,0.05295 6.59413,0.52704 7.87954,-2.13895c0.15886,-0.32947 0.34018,-1.72544 0.45214,-2.69592c-0.34185,-0.51534 -0.83571,-1.62868 0.28979,-2.7084c1.53268,-1.47033 3.003,0.06235 3.003,0.06235l1.02961,2.19849c-0.02283,0.18627 -0.04649,0.39768 -0.07211,0.62677c0.61154,-0.34916 1.20885,-0.72427 1.79445,-1.11212c0.68902,-0.45634 2.2166,-0.76371 1.79484,-1.95131c-0.29072,-0.81862 -1.51783,-1.69452 -2.05053,-2.15791l0.01181,0.17087c0,0 -2.00055,-0.71332 -1.28722,-2.71385c0.71332,-2.00055 2.71386,-1.28722 2.71386,-1.28722l1.39233,0.66311c0.23152,0.2111 0.47419,0.42194 0.71889,0.63663c0.13765,-0.0639 0.22879,-0.0922 0.22879,-0.0922c3.794,-0.86822 4.43444,-7.81054 2.06669,-10.21852l-0.99888,-0.1259c0,0 -1.97278,-0.78688 -1.1859,-2.75964c0.78688,-1.97278 2.75964,-1.1859 2.75964,-1.1859z" data-paper-data="{&quot;index&quot;:null}" fill="#bf0000"/><path d="M266.61421,163.43284l-0.64861,-1.89069c0.13044,-1.65482 0.30331,-3.56791 -1.99494,-4.00179c-1.19018,-0.22469 -2.53416,0.53124 -3.63354,0.02291c-1.08362,-0.50104 -1.66564,-1.73758 -2.28375,-2.75897c-0.24214,-0.40011 0.18415,-1.15674 -0.22402,-1.38501c-0.44671,-0.24984 -3.1987,0.75156 -3.51959,0.85639c0,0 -2.02841,0.62967 -2.65809,-1.39875c-0.62967,-2.02842 1.39875,-2.65809 1.39875,-2.65809c2.38341,-0.71174 4.52323,-1.6762 7.16706,-0.31249c0.9533,0.49172 1.05376,1.8693 1.54293,2.82389c0.16567,0.3233 0.0643,0.93006 0.41958,1.00582c0.9388,0.20018 1.93551,-0.55148 2.86344,-0.30579c4.39434,1.16351 5.11424,4.3975 5.16906,8.20008l0.23968,-0.0179c0,0 0.91021,1.919 -1.00878,2.8292c-1.91899,0.9102 -2.82919,-1.00878 -2.82919,-1.00878z" data-paper-data="{&quot;index&quot;:null}" fill="#bf0000"/><path d="M209.66425,169.04785l-0.84867,0.10768c-2.03909,2.00258 -0.92033,3.42614 0.873,4.4594l2.1971,0.21497c1.10396,0.09707 1.95861,1.03543 1.93526,2.15973c-0.01349,0.64996 -0.3176,1.22565 -0.78566,1.60561l-1.34383,1.1043c-0.53676,1.10146 0.44417,0.9797 1.69182,1.27278c0,0 2.02122,0.65239 1.36883,2.67363c-0.65239,2.02122 -2.67363,1.36883 -2.67363,1.36883c-2.49822,-0.9268 -4.4765,-0.93876 -4.88385,-4.43487c-0.08149,-0.69936 0.17658,-1.36597 0.48123,-2.02808c-2.01609,-0.70249 -3.93803,-3.65607 -4.24384,-5.56565c-0.50749,-3.16899 0.51257,-3.61446 2.21642,-5.66143l2.42387,-1.21514c0,0 1.96912,-0.79594 2.76507,1.17319c0.79595,1.96913 -1.17318,2.76507 -1.17318,2.76507z" data-paper-data="{&quot;index&quot;:null}" fill="#bf0000"/><path d="M196.36206,160.8861l-0.5532,-1.61016c-0.12961,-1.16676 -0.62591,-2.35051 -0.38885,-3.50027c0.88038,-4.26965 5.82815,-5.87127 9.5351,-6.54625c0.06678,-0.12065 0.14123,-0.2386 0.22395,-0.35354c1.00823,-1.40057 6.55132,-3.56691 9.01994,-3.40462c0.11375,-0.03264 0.22751,-0.06526 0.34125,-0.0979l0.16719,0.17721c0.07901,0.02168 0.15205,0.04752 0.21862,0.07778c0.15424,0.07011 0.22873,0.18742 0.25205,0.335l0.1853,-0.35214l2.25214,1.18513c0.71118,0.3554 1.1927,1.09738 1.1751,1.94506c-0.02435,1.17274 -0.99479,2.10372 -2.16755,2.07938c-0.32352,-0.00672 -0.62864,-0.08543 -0.90039,-0.22053l-1.38665,-0.65109c-0.47479,0.0628 -0.9431,0.13964 -1.41925,0.23586c-0.14203,0.06343 -0.28405,0.12686 -0.42609,0.19029c0,0 -0.37327,0.12703 -0.85289,0.11079c-0.49682,0.1332 -1.01371,0.29007 -1.56471,0.47586c-0.47395,0.15981 -1.10403,0.03256 -1.44719,0.39645c-0.70109,0.74348 0.31186,2.02028 0.50289,3.02417l0.14936,-0.06329c0,0 1.1412,1.79128 -0.65007,2.93246c-1.79128,1.1412 -2.93247,-0.65007 -2.93247,-0.65007l-0.74855,-1.47267c-0.08079,-0.47661 -0.18859,-0.99526 -0.28392,-1.53339c-1.99445,0.41141 -4.94875,1.29192 -5.07324,2.98954c-0.05174,0.70546 0.28165,1.38638 0.42247,2.07957l0.32548,0.726c0,0 0.74769,1.98795 -1.24025,2.73564c-1.98795,0.74769 -2.73564,-1.24025 -2.73564,-1.24025z" data-paper-data="{&quot;index&quot;:null}" fill="#bf0000"/><path d="M246.15,144.67362l0.01096,-0.0202c0.15872,-0.31476 0.60562,-0.61638 0.47617,-0.94429c-0.10128,-0.25656 -0.38315,0.42941 -0.64368,0.51997c-0.84262,0.29286 -1.72156,0.49196 -2.60585,0.60945c-1.27864,0.16989 -2.67367,0.75255 -3.86155,0.24983c-1.05987,-0.44854 -1.50818,-1.75834 -2.07268,-2.76124c-0.20335,-0.36126 0.17265,-1.00497 -0.17464,-1.23135c-0.27938,-0.18211 -0.48704,0.49688 -0.80678,0.5916c-0.84125,0.24924 -1.73258,0.27826 -2.59886,0.4174c0,0 -2.09708,0.33648 -2.43357,-1.76061c-0.33648,-2.09708 1.76061,-2.43357 1.76061,-2.43357c0.86984,-0.13942 5.34725,-0.93069 5.90048,-0.65211c1.07957,0.54363 1.4664,1.93184 2.05568,2.98719c0.16379,0.29333 -0.15477,0.89818 0.16727,0.99393c0.44053,0.13097 0.8137,-0.44242 1.25489,-0.57111c1.68932,-0.49278 5.42095,-1.43542 6.97375,-0.04909c0.94341,0.84228 0.56224,2.4661 0.84335,3.69917l0.00135,0.4432c0,0 -0.04409,2.12346 -2.16755,2.07938c-2.12346,-0.04409 -2.07938,-2.16755 -2.07938,-2.16755z" data-paper-data="{&quot;index&quot;:null}" fill="#bf0000"/><g><g data-paper-data="{&quot;index&quot;:null}" fill="#ffa100"><path d="M227.97279,169.85645l-0.48314,-2.09047c0.10424,-0.77018 0.73464,-5.57891 0.88466,-5.93816c1.87628,-4.49326 8.38987,-5.8335 12.28886,-3.57112c2.20964,1.28213 3.59967,3.11707 4.51631,5.30789c2.12539,-0.6241 4.61326,-0.1401 6.29975,1.34207c2.76584,2.43079 4.52997,8.10166 4.08844,11.71887c-0.3107,2.54551 -1.32258,4.44704 -4.31264,4.53562c-1.01187,0.02997 -1.80693,-0.93363 -2.7104,-1.40044c0,0 -1.60217,-0.98716 -0.63659,-2.62515c0.96557,-1.638 2.56774,-0.65083 2.56774,-0.65083c2.06807,1.86041 1.51162,-1.26029 1.26251,-2.94012c-0.2712,-1.82875 -3.2601,-8.82429 -6.22066,-5.96656c-0.91268,0.88098 -1.19131,1.88851 -1.67502,3.03151l-0.0506,0.91081c0,0 -0.25638,1.89442 -2.10937,1.63232c-1.85299,-0.26212 -1.59661,-2.15654 -1.59661,-2.15654l0.33406,-1.93151c0.52008,-1.18504 0.90692,-2.29392 1.61818,-3.27522c-0.54807,-1.71507 -1.48174,-3.18788 -3.12838,-4.1538c-1.99203,-1.16853 -6.23532,-0.76728 -7.13726,1.79187c-0.54138,1.53611 -0.35818,3.24534 -0.57706,4.86271l0.32121,0.3407c0,0 0.59937,1.81165 -1.17264,2.42441c-1.77201,0.61276 -2.37138,-1.19887 -2.37138,-1.19887z"/><path d="M233.1116,182.69353l-1.93887,0.7863c-0.41757,0.10406 -1.09308,-0.09578 -1.25271,0.3122c-0.14283,0.36505 0.61046,0.50908 0.79679,0.85303c0.62395,1.15169 0.10477,1.77322 1.33471,2.16439c1.97235,0.62729 4.34291,-0.07501 5.67847,-1.45046c0,0 0.88694,-0.82559 1.88699,-0.42846l0.0128,-0.09454c0,0 0.25637,-1.89442 2.10936,-1.63231c1.85299,0.26212 1.59661,2.15652 1.59661,2.15652l-0.30773,2.27387c-0.16098,0.63915 -0.5005,1.25767 -0.48294,1.91743c0.02323,0.87353 1.67115,0.37725 2.51805,0.49521c0.57177,0.07963 1.13601,0.42346 1.70337,0.31577c0.78061,-0.14817 1.38559,-0.82913 2.15035,-1.04724c0.79885,-0.22785 1.68982,0.00488 2.47384,-0.27163c1.60614,-0.56645 -0.12438,-5.42336 -0.44753,-6.24624c-0.40192,-1.02344 -1.25078,-1.90008 -2.19741,-2.42886c0,0 -1.60217,-0.98717 -0.6366,-2.62516c0.96557,-1.638 2.56773,-0.65082 2.56773,-0.65082c1.55396,1.0151 2.95883,2.47585 3.70566,4.19963c0.84706,1.95514 1.98872,6.03092 1.11372,8.17793c-0.45691,1.12117 -1.19266,2.22377 -2.20115,2.86579c-0.95561,0.60833 -2.23774,0.321 -3.31729,0.64724c-0.93178,0.28158 -1.7222,1.01504 -2.68257,1.16588c-0.90999,0.14292 -1.83311,-0.18322 -2.7449,-0.31347c-2.15581,-0.30795 -4.54866,-0.22987 -5.51469,-2.95844c-0.1954,-0.55191 -0.16723,-1.13484 -0.07176,-1.72708c-4.10824,2.62151 -9.90297,2.4113 -11.71916,-3.08033c-0.37166,-1.12377 -1.29874,-2.33107 -0.8888,-3.44084c0.46854,-1.26837 2.0674,-1.6987 3.10111,-2.54803l2.26108,-0.93699c0,0 1.73603,-0.71231 2.43277,1.06254c0.69673,1.77485 -1.03929,2.48717 -1.03929,2.48717z"/><path d="M223.57314,170.88071l-2.20065,-0.32995c-0.91299,-0.46437 -2.06479,-0.61092 -2.73893,-1.39313c-2.35175,-2.72878 -0.65048,-7.61299 2.40258,-8.94569c2.39052,-1.04349 7.226,1.50458 9.17762,2.6887c0,0 1.60217,0.98716 0.63659,2.62515c-0.96557,1.638 -2.56774,0.65083 -2.56774,0.65083c-1.70489,-1.07085 -3.17378,-1.40867 -5.06753,-2.01395c-0.31716,-0.10137 -0.62622,-0.4564 -0.9391,-0.34197c-1.60995,0.58882 -1.14736,2.67772 0.11834,3.05053l1.69158,0.22063c0,0 1.85298,0.26211 1.59661,2.15652c-0.25638,1.89442 -2.10937,1.63232 -2.10937,1.63232z"/><path d="M228.00429,182.80823c-1.59439,-0.20762 -2.96905,-0.36171 -4.44144,-1.42025c-3.14024,-2.2576 -4.30006,-7.52114 -3.78936,-11.29879l-0.44869,-2.46126c-0.08663,-0.42032 -0.10493,-0.86283 -0.04404,-1.3128c0.28319,-2.09251 2.17197,-3.55412 4.2187,-3.2646c0.62244,0.08805 1.18782,0.3279 1.66529,0.67796l1.27573,0.89447c0.27584,0.12004 0.71676,0.27566 0.96742,0.44297c0.45147,-0.8392 0.84015,-1.79562 1.60441,-2.34062c0.91057,-0.64936 1.97959,-1.13559 3.07904,-1.34763c0.36862,-0.33866 0.72463,-0.68198 1.00648,-1.05259l3.00709,-0.88c0,0 2.34887,-0.25913 3.51495,1.54272c0.06724,0.01522 0.13035,0.03272 0.18895,0.05258c1.51919,0.51468 2.76364,1.71786 3.88257,2.88771c0.41579,0.4347 0.27991,1.19197 0.54176,1.73787c0.20944,0.43665 0.81854,0.38956 1.33425,0.4708l1.9692,0.05403c0.15421,0.00214 0.31001,0.01404 0.46673,0.03621c1.64908,0.23327 2.89757,1.53215 3.17233,3.12254c0.45604,0.74541 0.62006,1.71873 0.99927,2.52361c1.5896,3.37383 1.95187,6.33524 0.50319,9.93879c-0.19738,0.49097 -0.4402,0.96028 -0.71676,1.41095c0.71684,0.15179 1.47102,0.58368 2.15806,1.51165c2.25794,3.04979 -0.72515,5.35822 -0.72515,5.35822c-2.61958,1.96752 -7.69032,5.56616 -10.92181,1.63344c-0.63814,-0.77661 -0.96371,-1.76157 -1.11167,-2.80642c-2.08098,1.30992 -5.45197,2.11399 -7.47468,1.82303c-1.57052,-0.22591 -3.51787,0.05172 -4.63486,-1.09941c-1.13881,-1.17362 -0.91623,-3.18604 -1.1154,-4.82661c-0.07994,-0.6584 -0.12014,-1.32938 -0.13162,-2.0086z"/></g><path d="M238.69856,180.02579c-0.38094,-0.30897 -0.69918,-0.69087 -0.93707,-1.12192c-3.54413,1.54449 -9.66419,-1.96333 -9.14421,-6.16631c0.21756,-1.75847 0.63665,-6.59589 3.37947,-6.89848c2.85162,-0.31459 9.12986,0.42426 12.02248,1.61391c3.15243,1.29651 3.21808,8.54256 1.55993,10.88016c-0.96605,1.36188 -5.66913,4.77868 -6.88058,1.69266z" data-paper-data="{&quot;index&quot;:null}" fill="#ffac1d"/><path d="M224.0345,175.02749l0.01869,0.12095c0.31422,0.62836 0.62846,1.25674 0.94268,1.88513c1.36156,2.64599 2.94736,1.37092 4.85337,4.01006c0.94241,1.30493 0.38347,4.27981 1.9956,5.22318c2.48946,1.45676 5.71429,-0.72574 8.27621,0.84023c0.66137,0.40425 0.6263,1.49871 1.20862,2.01464c1.26413,1.11997 4.1398,-1.11368 5.01772,-1.1233c0.84005,-0.00921 1.49334,0.82806 2.30955,1.03144c1.34482,0.3351 2.99381,-1.54607 3.79927,-2.25488c0,0 1.42268,-1.24177 2.63728,0.21271c1.21461,1.45449 -0.20806,2.69626 -0.20806,2.69626c-1.98688,1.72221 -3.97405,3.523 -6.84387,3.11874c-0.63517,-0.08947 -1.02696,-0.96512 -1.66799,-0.97944c-0.54315,-0.01213 -0.84516,0.74767 -1.36421,0.9117c-1.73696,0.54894 -4.29332,0.50102 -5.86536,-0.5089c-0.61559,-0.39547 -0.53928,-1.44651 -1.09049,-1.93117c-0.82042,-0.72138 -2.15434,0.28244 -3.23626,0.2614c-0.8252,-0.01606 -4.24404,-0.5737 -4.9156,-1.02087c-2.74072,-1.82497 -1.76388,-4.13588 -3.16432,-6.36848c-0.44173,-0.7042 -2.99893,-1.30981 -3.23565,-1.52425c-0.80114,-0.72571 -1.17975,-1.82623 -1.76961,-2.73935c-0.33632,-0.67052 -0.67263,-1.34103 -1.00895,-2.01154l-0.23263,-0.63871c0,0 -0.59937,-1.81165 1.17264,-2.42441c1.77201,-0.61276 2.37137,1.19886 2.37137,1.19886z" data-paper-data="{&quot;index&quot;:null}" fill="#ef9700"/></g><g><path d="M181.23479,179.93775c0.20066,0.24827 0.34153,0.59687 0.34153,1.08634c0,1.70069 -1.70069,1.70069 -1.70069,1.70069c-3.30647,-0.07763 -5.41902,1.67565 -7.6783,3.69083c-2.58265,2.30361 -6.42191,4.35881 -9.87123,4.58176c-1.5092,0.09755 -4.37258,0.1406 -5.52535,-1.13131c-1.83854,-2.02855 -0.81768,-6.5429 1.13657,-8.03012c1.56002,-1.18719 4.92996,-1.25555 6.76294,-1.66196c2.15651,-0.23329 4.07258,-0.95693 6.2272,-1.12218c2.7926,-0.21418 5.58853,-0.28014 8.39644,-0.28014h0.27586c0,0 1.32239,0 1.63503,1.16608z" fill="#bf0000"/><path d="M181.35172,179.51417c0,1.70069 -1.70069,1.70069 -1.70069,1.70069h-1.87461c-2.53911,0 -5.53283,-0.43285 -8.02818,-0.02729c-1.7768,0.28878 -3.60559,0.94996 -5.42738,1.25185c-1.11784,0.18524 -3.31989,0.07423 -4.1498,1.23465c-0.59418,0.83081 -0.64777,1.93789 -1.00642,2.89427c0,0 -0.59715,1.59241 -2.18956,0.99526c-1.59241,-0.59715 -0.99526,-2.18957 -0.99526,-2.18957c0.18291,-0.48773 1.305,-3.53482 1.49307,-3.77103c1.61635,-2.03001 3.98073,-2.13185 6.26473,-2.51459c1.80814,-0.303 3.63463,-0.97504 5.40374,-1.24764c2.72333,-0.41964 5.87169,-0.02729 8.63507,-0.02729h1.87461c0,0 1.70069,0 1.70069,1.70069z" fill="#d80000"/></g><g data-paper-data="{&quot;index&quot;:null}"><path d="M290.22346,175.90925l0.35406,0.05876c3.60385,0.59813 7.19935,1.25104 10.80642,2.0321c2.78301,0.60262 5.31952,1.63984 8.11223,2.302c2.39598,0.74375 6.72846,1.52102 8.8575,2.88537c2.66707,1.70914 4.45952,5.85094 2.31651,7.22275c-1.34367,0.86012 -5.02329,0.21276 -6.97071,-0.19352c-4.45088,-0.92857 -9.59794,-3.533 -13.15875,-6.08569c-3.11495,-2.23307 -6.0136,-4.20721 -10.24904,-4.84406c0,0 -2.18277,-0.36227 -2.36443,-1.8407c-0.05229,-0.4255 0.09128,-0.69854 0.3223,-0.87161c0.2767,-0.94708 1.97393,-0.6654 1.97393,-0.6654z" fill="#bf0000"/><path d="M290.05533,175.06536l2.40599,0.39932c3.54669,0.58864 7.54558,0.91822 11.08569,1.86312c2.29969,0.61382 4.7157,1.5871 7.06875,2.23566c2.97231,0.81924 6.01776,1.41142 8.30913,3.52043c0.26662,0.2454 2.03226,3.13328 2.31911,3.59623c0,0 0.93652,1.5115 -1.04349,1.69141c-1.98001,0.1799 -2.91652,-1.3316 -2.91652,-1.3316c-0.56247,-0.90779 -0.74951,-1.8816 -1.60086,-2.7304c-1.1891,-1.18555 -4.0035,-1.55811 -5.45799,-1.95725c-2.37045,-0.6505 -4.78825,-1.61483 -7.09954,-2.24435c-3.24601,-0.8841 -7.04209,-1.14553 -10.30094,-1.68639l-2.40599,-0.39932c0,0 -2.18277,-0.36227 -2.36443,-1.8407c-0.18166,-1.47843 2.0011,-1.11615 2.0011,-1.11615z" fill="#d80000"/></g><g data-paper-data="{&quot;index&quot;:null}"><path d="M253.42006,123.74512l0.1411,-0.23555c1.43626,-2.39756 2.91159,-4.7626 4.48678,-7.07476c1.21534,-1.78394 2.69129,-3.17566 3.95421,-4.93824c1.21607,-1.42788 2.98665,-4.28224 4.59812,-5.21343c2.01872,-1.16651 5.63433,-0.51397 6.08396,1.7408c0.28192,1.41374 -1.21221,3.84411 -2.05102,5.09981c-1.91712,2.86994 -5.28924,5.4542 -8.18881,6.88162c-2.53652,1.2487 -4.81853,2.46054 -6.45661,5.31c0,0 -0.86992,1.45214 -2.0353,0.87793c-0.3354,-0.16527 -0.50223,-0.40325 -0.56971,-0.65841c-0.63913,-0.66065 0.03728,-1.78978 0.03728,-1.78978z" fill="#bf0000"/><path d="M252.73725,123.46536l0.95888,-1.60065c1.41349,-2.35953 2.75503,-5.18024 4.43558,-7.36389c1.09171,-1.41852 2.48647,-2.75116 3.61898,-4.19275c1.43055,-1.82098 2.70972,-3.80542 4.92755,-4.50015c0.25806,-0.08084 2.92002,-0.01013 3.34779,-0.00163c0,0 1.39664,0.02778 0.99131,1.58908c-0.40533,1.56131 -1.80197,1.53354 -1.80197,1.53354c-0.8388,-0.01668 -1.62484,-0.3447 -2.49807,-0.11788c-1.21968,0.31682 -2.26996,2.23454 -2.96868,3.12647c-1.13872,1.45362 -2.52722,2.7919 -3.63395,4.21153c-1.55429,1.99374 -2.78899,4.69608 -4.08776,6.86412l-0.95888,1.60064c0,0 -0.86991,1.45215 -2.0353,0.87793c-1.16539,-0.57422 -0.29548,-2.02637 -0.29548,-2.02637z" fill="#d80000"/></g></g></g></svg>