<svg version="1.1" xmlns="http://www.w3.org/2000/svg" xmlns:xlink="http://www.w3.org/1999/xlink" width="122.17037" height="42.23149" viewBox="0,0,122.17037,42.23149"><g transform="translate(-179.8421,-299.02813)"><g data-paper-data="{&quot;isPaintingLayer&quot;:true}" fill-rule="nonzero" stroke="none" stroke-linecap="butt" stroke-linejoin="miter" stroke-miterlimit="10" stroke-dasharray="" stroke-dashoffset="0" style="mix-blend-mode: normal"><g fill="#ffffff"><path d="M186.06601,341.25962v-40.09074h108.75753v40.09074z" stroke-width="NaN"/><path d="M287.54414,321.15416c0,-11.05969 3.23885,-20.02534 7.23417,-20.02534c3.99532,0 7.23417,8.96565 7.23417,20.02534c0,11.05969 -3.23885,20.02534 -7.23417,20.02534c-3.99532,0 -7.23417,-8.96565 -7.23417,-20.02534z" stroke-width="0"/><path d="M179.8421,321.00541c0,-11.05969 3.23885,-20.02534 7.23417,-20.02534c3.99532,0 7.23417,8.96565 7.23417,20.02534c0,11.05969 -3.23885,20.02534 -7.23417,20.02534c-3.99532,0 -7.23417,-8.96565 -7.23417,-20.02534z" stroke-width="0"/></g><text transform="translate(204.6107,328.59813) scale(0.62325,0.58554)" font-size="40" xml:space="preserve" fill="#313131" fill-rule="nonzero" stroke="none" stroke-width="1" stroke-linecap="butt" stroke-linejoin="miter" stroke-miterlimit="10" stroke-dasharray="" stroke-dashoffset="0" font-family="Pixel" font-weight="normal" text-anchor="start" style="mix-blend-mode: normal"><tspan x="0" dy="0">Iniciar</tspan></text></g></g></svg>