<svg version="1.1" xmlns="http://www.w3.org/2000/svg" xmlns:xlink="http://www.w3.org/1999/xlink" width="137.17751" height="34.13535" viewBox="0,0,137.17751,34.13535"><g transform="translate(-158.66847,-195.90629)"><g data-paper-data="{&quot;isPaintingLayer&quot;:true}" fill-rule="nonzero" stroke-linejoin="miter" stroke-miterlimit="10" stroke-dasharray="" stroke-dashoffset="0" style="mix-blend-mode: normal"><path d="M271.89646,200.54642l4.2048,-0.77579c5.03922,-0.02465 10.07825,-0.02083 15.11755,-0.02061c0.21862,-0.00807 0.43772,-0.01474 0.6569,-0.0202c-0.01359,1.21227 -0.0729,2.42211 -0.20904,3.62805c-0.01932,0.1711 -0.91362,1.04481 -1.74454,1.86164c-1.48773,0.93075 -3.12419,1.66609 -4.14197,2.68676c-3.10546,3.11429 -4.55928,6.35084 -8.12771,8.96218c-2.72327,1.99286 -6.79964,1.97906 -9.98139,3.22806c-12.51191,4.91159 -15.84381,7.34119 -29.61204,7.34119c-1.25576,0 -2.49942,0.90428 -3.73672,0.83038c-10.44001,-0.62357 -18.78967,-7.8035 -27.76683,-11.79568c-2.00842,-0.89316 -9.83873,-5.82853 -10.41468,-6.96816c-1.44685,-2.86289 -2.42642,-5.90909 -3.65179,-8.82381c0.79087,-0.00086 1.57624,-0.04402 2.3515,-0.16641c3.05762,-0.4827 6.04166,-1.4434 9.16452,-1.47819h0.94207c0,0 3.59328,0 3.62673,2.71177c5.58917,-0.3115 11.59404,0.14536 17.0988,0.14536c11.30483,0 22.60967,0 33.9145,0c3.29836,0 6.67916,-0.11106 10.06217,-0.17855c0.80733,-0.89499 2.24712,-1.16791 2.24712,-1.16791z" fill="#815400" stroke="none" stroke-width="0.5" stroke-linecap="butt"/><path d="M159.34792,230.04165l-0.4467,-0.49137l-0.23274,-0.54306l0.12456,-0.0221l0.10263,0.11974z" fill="#815400" stroke="none" stroke-width="0.5" stroke-linecap="butt"/><path d="" fill="#815400" stroke="none" stroke-width="0.5" stroke-linecap="butt"/><path d="M194.46441,199.65629h97.63158" fill="none" stroke="#815400" stroke-width="7.5" stroke-linecap="round"/></g></g></svg>