<svg version="1.1" xmlns="http://www.w3.org/2000/svg" xmlns:xlink="http://www.w3.org/1999/xlink" width="63.36093" height="93.18231" viewBox="0,0,63.36093,93.18231"><g transform="translate(-210.43354,-126.77431)"><g data-paper-data="{&quot;isPaintingLayer&quot;:true}" fill-rule="nonzero" stroke="none" stroke-width="0.5" stroke-linecap="butt" stroke-linejoin="miter" stroke-miterlimit="10" stroke-dasharray="" stroke-dashoffset="0" style="mix-blend-mode: normal"><path d="M219.65859,163.30109c0,0 -0.59977,0.51485 -1.12757,-0.14783c-0.22292,-0.10897 -0.37788,-0.28963 -0.37788,-0.28963l-0.5907,-0.74374c-0.85712,-1.66237 -2.36211,-3.99036 -3.54966,-5.24065c-0.63704,-0.6707 -1.2691,-1.06807 -1.9154,-1.52645l-0.09577,0.34757l-0.94497,-0.57037c-0.48566,-0.29313 -0.74086,-1.03336 -0.57002,-1.65335c0.09876,-0.35838 0.31825,-0.59814 0.57969,-0.68005l1.00096,-0.3263l0.02037,0.07994l0.1389,-0.11154c0.35248,0.05533 0.67911,0.1444 0.99348,0.24538c-1.7657,-2.60372 -1.61469,-5.23253 -0.78716,-7.94558l-0.07136,-0.02862l0.22719,-1.48209c0.00874,-0.0623 0.02137,-0.12396 0.03805,-0.18449c0.17084,-0.61999 0.70302,-0.88497 1.18867,-0.59184c0.18479,0.11153 0.3362,0.28779 0.44348,0.4975l0.64258,1.22111c0.81502,0.81036 1.38089,1.19298 2.13512,1.49151c-0.66198,-2.49413 -0.59685,-4.89644 -1.09264,-7.40042c-0.12912,-0.65213 -0.31989,-1.2832 -0.53395,-1.90651l-0.0777,0.07841l-0.86902,-1.44991c-0.22034,-0.35526 -0.30345,-0.83682 -0.18633,-1.26187c0.17084,-0.61999 0.70302,-0.88497 1.18867,-0.59185l1.25996,0.76049c1.82045,1.09878 2.90941,2.19905 4.24581,3.72638c0.82024,-2.28298 2.04199,-4.13929 3.67198,-5.60778c0.45645,-0.41124 1.93319,-1.7878 2.55379,-1.5476c0.11867,0.04593 0.23246,0.10762 0.34244,0.18159l0.01761,-0.06392l1.10246,0.66542c0.48566,0.29313 0.74085,1.03336 0.57002,1.65335c-0.09876,0.35838 -0.31825,0.59814 -0.5797,0.68005l-1.00096,0.3263l-0.0115,-0.04518l-0.0829,0.06867c-1.27763,-0.38503 -0.55348,1.3311 0.04711,2.22233c1.01036,1.49932 1.62219,2.03245 2.8592,2.15267l0.37199,-0.63224c0.17514,-0.6543 0.8571,-3.26855 1.02035,-3.45562c1.62924,-1.86694 2.01993,-0.46243 2.90236,1.23045c1.13371,2.17495 1.85035,5.13599 2.14561,7.8452c1.0147,-0.77672 1.8467,-1.4565 2.91859,-1.89364l-0.09527,-0.27633l1.06449,-0.53001c0.2151,-0.10711 0.46956,-0.10007 0.71239,0.04649c0.48566,0.29313 0.74086,1.03336 0.57002,1.65336v0l-0.49862,1.80956c-0.36166,1.24214 -0.3288,2.4366 -0.25223,3.72651c0.42292,-0.25884 0.83887,-0.75551 1.2424,-1.28081l-0.26962,-0.31432l0.63422,-0.99556c0.23691,-0.39201 0.66335,-0.52353 1.05892,-0.28476c0.35103,0.21187 0.58167,0.65734 0.61804,1.12216l0.18088,1.92611c0.60588,4.00312 1.01038,7.61252 -0.3829,11.12588c0,0 -0.39867,0.95948 -1.16539,0.42236c-0.31562,0.08107 -0.62374,-0.10492 -0.62374,-0.10492c-2.60594,-1.57288 -5.06178,-2.58111 -7.73877,-3.68636c-0.62335,-0.25736 -0.9727,-0.79748 -1.62671,-0.7262c-3.10065,0.33798 -6.09606,2.61379 -8.57803,4.75065c-1.52463,1.19425 -3.16262,1.52804 -4.51514,3.08299l-0.49622,0.43788z" data-paper-data="{&quot;index&quot;:null}" fill="#d03b3b"/><path d="M232.33967,157.54464c-1.42361,0.18776 -4.15511,1.85113 -5.63505,1.11464c-0.42185,0.43424 -0.98956,0.09158 -0.98956,0.09158l-0.39298,-0.29484c-0.67737,-0.75249 -1.66504,-1.10493 -2.09163,-2.14663c-0.75986,-1.8555 -0.3641,-3.4094 0.3258,-4.78764l0.45956,-1.66781c0.14784,-0.53654 0.51851,-0.84898 0.91807,-0.83208l-0.22469,-0.44864c-0.19974,-0.38735 -0.26393,-0.89057 -0.1391,-1.34358c0.19551,-0.70953 0.7807,-1.02717 1.30706,-0.70947c0.0872,0.05263 0.1673,0.11938 0.23939,0.19737l1.03179,1.06982l-0.02543,0.04898l0.11352,0.05252c1.12172,3.08619 1.37532,-1.99459 3.20698,-2.47388c0.11264,-0.02947 0.22599,-0.04091 0.33992,-0.03822l-0.00504,-0.06467l1.0096,-0.05996c0.15833,-0.01406 0.32384,0.0238 0.48392,0.12042c0.52636,0.31769 0.79457,1.15044 0.59905,1.85998c-0.04664,0.16924 -0.11543,0.31619 -0.20033,0.43754l-0.84914,1.27597l-0.06221,-0.08015c-0.28095,0.27038 0.8569,0.19004 0.93618,0.17806c0.57215,-0.08653 1.15637,-1.04295 1.65765,-0.59224c2.02391,1.8197 0.12976,6.41175 -0.39439,8.31392c0,0 -0.354,1.28473 -1.30706,0.70947c-0.01431,-0.00863 -0.02832,-0.01744 -0.04203,-0.02638c-0.15001,0.07942 -0.26986,0.09591 -0.26986,0.09591z" data-paper-data="{&quot;index&quot;:null}" fill="#ffd13c"/><path d="M258.48124,169.06566l-0.47577,-0.68087c-1.18991,-2.29669 -3.08919,-3.18825 -4.59573,-5.09589c-2.39552,-3.34052 -5.37621,-7.0024 -9.05838,-8.33164c-0.77666,-0.28036 -1.36253,0.27515 -2.199,0.40473c-3.59221,0.55647 -6.88598,1.05999 -10.52982,2.20789c0,0 -0.43085,0.13573 -0.79185,-0.0565c-1.09407,0.42842 -1.29661,-0.85984 -1.29661,-0.85984c-0.66046,-4.6976 0.9004,-8.98065 2.82332,-13.68439l0.79026,-2.29594c0.18183,-0.55623 0.59491,-1.0314 1.08575,-1.18602c0.55312,-0.17425 1.0344,0.11228 1.20744,0.66052l0.47919,1.40194l-0.42184,0.30367c0.33686,0.76009 0.69734,1.48892 1.13666,1.92973c0.47488,-1.55076 0.86821,-2.99802 0.79441,-4.62013l-0.07304,-2.35474v0c-0.02502,-0.80678 0.50519,-1.63423 1.18427,-1.84815c0.33954,-0.10696 0.65201,-0.04029 0.88271,0.15398l1.14169,0.96131l-0.19793,0.30889c1.17819,0.85021 1.99201,1.92546 3.00002,3.17298c1.16137,-3.21734 2.91121,-6.61721 4.93732,-8.9349c1.57702,-1.80398 2.46896,-3.40164 3.90415,-0.64254c0.1438,0.27646 0.20252,3.66695 0.22264,4.51686l0.26677,0.88122c1.54443,0.21919 2.4484,-0.25017 4.12423,-1.78021c0.99616,-0.90949 2.387,-2.78863 0.71471,-2.69683l-0.08083,-0.10827l-0.0274,0.0517l-1.12444,-0.69403c-0.29468,-0.17723 -0.49151,-0.5346 -0.50598,-1.00096c-0.02502,-0.80678 0.50518,-1.63423 1.18426,-1.84815l1.54156,-0.48563l0.00258,0.08318c0.15602,-0.0577 0.31307,-0.09929 0.47141,-0.12022c0.82803,-0.10946 2.22224,2.00638 2.65739,2.64299c1.55394,2.27328 2.49522,4.89891 2.82056,7.92622c2.08182,-1.46778 3.7355,-2.48782 6.28101,-3.28972l1.76179,-0.55501c0.67908,-0.21392 1.24988,0.26668 1.2749,1.07346c0.01716,0.55311 -0.22664,1.11592 -0.60047,1.4841l-1.48882,1.51157l-0.07157,-0.11861c-0.44545,0.697 -0.86478,1.41035 -1.21515,2.16762c-1.34528,2.90768 -1.97629,5.85724 -3.52139,8.70376c1.00828,-0.14109 1.81167,-0.44045 3.04549,-1.18788l1.14493,-1.29945c0.19288,-0.22408 0.4297,-0.3943 0.68808,-0.47569c0.67908,-0.21392 1.24988,0.26667 1.2749,1.07346c0.00245,0.07877 -0.00039,0.15772 -0.00815,0.23629l-0.16119,1.87502l-0.09549,0.0138c0.20704,3.55407 -0.38621,6.8053 -3.31001,9.45909c0.41334,-0.03021 0.8381,-0.04226 1.2844,-0.0055l0.13645,0.17714l0.04849,-0.09148l1.12445,0.69403c0.29468,0.17723 0.49151,0.5346 0.50599,1.00096c0.02502,0.80678 -0.50518,1.63422 -1.18426,1.84814l-1.32134,0.41626l-0.01403,-0.45228c-0.92392,0.368 -1.8124,0.66576 -2.78781,1.29548c-1.81833,1.17387 -4.34256,3.56842 -5.87969,5.34267l-0.94048,0.7325c0,0 -0.24245,0.17454 -0.54658,0.24153c-0.83978,0.65222 -1.41911,-0.15315 -1.41911,-0.15315z" data-paper-data="{&quot;index&quot;:null}" fill="#ca1515"/><path d="M244.53269,157.49794c0,0 -0.14132,-0.05555 -0.30081,-0.1968c-0.01937,0.00685 -0.03906,0.01344 -0.05907,0.01975c-1.33265,0.41982 -1.38451,-1.25195 -1.38451,-1.25195c-0.07679,-2.47525 -1.02919,-8.63673 1.9777,-10.25782c0.74474,-0.4015 1.17452,0.93789 1.84682,1.21265c0.09316,0.03806 1.45732,0.47255 1.19459,0.05966l-0.09958,0.07937l-0.65841,-1.80753c-0.06766,-0.17313 -0.10813,-0.37273 -0.11496,-0.59295c-0.02865,-0.9233 0.54479,-1.85975 1.28079,-2.0916c0.22383,-0.07051 0.43691,-0.06775 0.62589,-0.00377l1.21376,0.37171l-0.02527,0.07739c0.13977,0.03042 0.27464,0.07788 0.40333,0.14714c2.09248,1.12633 0.89922,7.39878 3.18019,3.96603l0.154,-0.03048l-0.01653,-0.06726l1.57495,-0.99981c0.111,-0.07382 0.22846,-0.13155 0.35038,-0.16995c0.736,-0.23186 1.35587,0.32866 1.38451,1.25196c0.01829,0.58949 -0.20884,1.18434 -0.56703,1.59775l-0.40675,0.4808c0.49237,0.09754 0.85211,0.58828 0.87377,1.28646l0.06732,2.17028c0.43392,1.88518 0.45713,3.89765 -1.01849,5.93623c-0.82843,1.14449 -2.1374,1.28229 -3.18619,1.99984l-0.56655,0.24342c0,0 -0.79383,0.25008 -1.17997,-0.40436c-2.02301,0.46067 -4.86293,-2.37609 -6.54389,-3.02614z" data-paper-data="{&quot;index&quot;:null}" fill="#ffc400"/><path d="M257.42843,216.01933l-1.89075,0.48183l-0.04614,-0.29398l-0.33676,0.36675c-4.97828,0.05158 -10.22859,0.57878 -15.24106,0.16832c-1.1598,1.35601 -2.80391,1.35601 -2.80391,1.35601l-1.16198,-0.09709c-2.95562,-0.79965 -6.03792,-0.37358 -8.99785,-0.99312c-0.6658,-0.13936 -1.49071,-0.25021 -1.90924,-0.90978h-1.27276c-1.78777,0 -3.2963,-1.52333 -3.76973,-3.60686c-0.82501,-0.36211 -1.63878,-0.78372 -2.49354,-0.99023c0,0 -0.10016,-0.02553 -0.26492,-0.08893c-0.41369,-0.13883 -0.80492,-0.33253 -1.14581,-0.64919c-0.45037,-0.34805 -0.92017,-0.84478 -1.2624,-1.54128c-1.68924,-2.60956 -1.61385,-5.54364 -2.31194,-8.84017c-0.1856,-0.87646 -0.33425,-1.73622 -0.45156,-2.58533c1.20127,-0.42667 2.16129,-1.09787 2.57219,-2.84886c0.1179,-0.50241 -0.81032,-0.7551 -0.89332,-1.26444c-0.14732,-0.90408 1.94032,-0.31541 2.56541,-0.98498c0.79093,-0.84722 1.71091,-1.8998 1.65581,-3.05752c-0.06363,-1.33703 -1.77126,-1.94759 -2.81668,-2.89774c-0.17454,-0.31401 -0.38617,-0.58996 -0.63311,-0.81246c-0.04113,-0.08817 -0.07542,-0.17968 -0.10195,-0.27496c-0.14114,-0.50689 0.97354,-0.78424 0.88995,-1.30373c-0.27908,-1.73444 -1.69232,-2.0416 -2.42158,-3.33854c-0.2811,-0.49992 -0.51159,-0.93418 -0.72457,-1.31831c0.10045,-7.84429 -0.39618,-15.91272 2.23903,-23.05011c16.97895,0.15408 33.95369,0.10611 50.91775,-0.39149c0.47696,1.22117 0.95464,2.47505 1.17262,4.04422c0.17365,1.25005 -0.03994,2.54201 0.03157,3.80822c0.03035,0.53747 0.13887,1.11708 0.27889,1.70452c-1.90357,0.66292 -4.16925,1.75324 -4.3011,3.47241c-0.05168,0.67382 1.65873,0.2365 1.82027,0.8927c0.12828,0.52111 -1.01661,0.41315 -1.40859,0.77971c-2.19994,2.05729 -2.8035,2.52248 -0.59651,4.24928c-0.00851,0.18645 -0.00359,0.37128 0.01514,0.55125c0.03118,0.29954 0.30353,0.45531 0.60943,0.59867c-0.59304,0.8796 -1.28247,1.805 -1.04293,2.76598c0.25474,1.02198 1.69731,1.2947 2.67991,1.67398c0.17617,0.068 0.38309,-0.104 0.57333,-0.2218c0.13782,0.00972 0.28463,0.01712 0.44092,0.02208c0.00293,0.00437 0.00577,0.00879 0.00853,0.01326c-0.00053,0.01637 -0.0008,0.03281 -0.0008,0.04932c0,0.16876 0.02787,0.331 0.07925,0.48239c-0.01603,0.30168 -0.05897,0.61848 0.13805,0.80031c0.3175,0.29302 1.43399,0.61713 2.30909,0.84947c-0.00807,0.77462 -0.01415,1.54505 -0.01415,2.30915c0,1.39747 0.02257,6.88791 -0.10497,7.64876c-0.18329,1.09337 -0.95625,1.918 -1.17722,3c-0.15458,0.75695 0.13806,1.5646 0.08587,2.34392c-0.20995,3.13539 -0.9102,6.32321 -1.68198,9.29065c-0.19948,1.21759 -0.27278,2.47292 -0.26095,3.71666v0.5c0,0 0,5 -3.92407,5c-1.15212,0 -1.96597,-0.43102 -2.54088,-1.03995c-0.33433,0.21653 -0.69627,0.37382 -1.07731,0.46102z" fill="#b30000"/><path d="" fill="#b30000"/><path d="M212.84911,163.00652c-1.33242,-0.42443 -0.99931,-2.12218 -0.99931,-2.12218c0.23988,-1.20002 0.5001,-3.16647 1.20986,-4.25228c2.29241,0.02221 4.58474,0.04086 6.87698,0.05534c0.02041,1.55862 0.05514,3.11631 0.09517,4.67379c-0.98712,0.59572 -1.91707,1.41053 -2.98611,1.63896c-0.97955,0.20932 -1.98394,-0.12718 -2.97591,-0.19078c-0.00002,-0.04358 -0.00046,-0.08726 -0.00128,-0.13105c-0.25634,0.29976 -0.64502,0.51116 -1.2194,0.3282z" fill="#f3eae0"/><path d="M234.61017,158.57385c-2.15848,0.3651 -4.23025,1.19259 -6.3584,1.57164c-0.24373,0.04341 -0.48653,0.0768 -0.72859,0.10259c-0.65747,-1.18079 -1.32107,-2.36595 -2.00477,-3.53401c4.59541,0.01463 9.1904,0.0105 13.78486,-0.0173c-0.11067,0.48449 -0.21927,0.9703 -0.32658,1.45762c-1.47639,0.05161 -2.93605,0.17749 -4.36651,0.41945z" fill="#f3eae0"/><path d="M260.45212,160.33561c-1.01028,-0.43036 -2.03199,-0.62614 -3.05208,-0.83191c-0.41893,-1.00749 -0.83708,-2.01523 -1.25271,-3.02396c2.62958,-0.05326 5.25893,-0.11623 7.88803,-0.18986c-0.01848,0.08666 -0.03708,0.17315 -0.05584,0.25946c-0.39946,1.83751 -0.65071,3.62085 -0.80856,5.39862c-0.98298,-0.1539 -1.77244,-1.20918 -2.71884,-1.61234z" fill="#f3eae0"/><path d="M254.2431,158.55701c-4.61638,0.10797 -9.49815,-0.48927 -14.23857,-0.42704c0.10639,-0.48135 0.21418,-0.96122 0.32417,-1.4398c4.91602,-0.03355 9.8314,-0.09462 14.74601,-0.18924c0.37638,0.91511 0.755,1.82935 1.13456,2.74325c-0.65939,-0.16255 -1.31597,-0.36938 -1.96617,-0.68718z" fill="#f3eae0"/><path d="M220.93673,156.69345c1.00567,0.00582 2.01132,0.01081 3.01696,0.01493c0.73173,1.20897 1.46724,2.41557 2.20485,3.62096c-1.71373,0.04121 -3.40588,-0.07125 -5.13897,0.54787c-0.03476,-1.39418 -0.06454,-2.7886 -0.08284,-4.18375z" fill="#f3eae0"/><path d="M266.23066,156.22591c0.21071,0.63464 0.33903,1.29753 0.36019,1.97431c0.03469,1.10946 0.26035,2.55717 -0.39198,3.29336c-0.49648,0.5603 -1.20811,0.62193 -1.92016,0.57251c0.09811,-1.76453 0.29267,-3.53184 0.67799,-5.30431c0.03617,-0.16637 0.07171,-0.33349 0.10683,-0.50123c0.38905,-0.01131 0.77809,-0.02285 1.16713,-0.03464z" fill="#f3eae0"/><path d="M228.97525,203.53035c2.13749,0.15 4.23334,0.65272 6.40066,0.78981c5.51449,0.3488 11.40279,-0.66293 17.03777,-1.14581c-0.42965,2.17029 -0.85227,4.33313 -1.33855,6.49317c-2.1017,0.1433 -4.2034,0.2866 -6.30509,0.4299c-3.39414,0.2248 -6.81421,0.96605 -10.23233,0.89634c-1.4609,-0.0298 -2.85521,-0.56476 -4.29986,-0.75281c-1.43191,-0.18638 -2.8332,-0.20529 -4.22312,-0.2334c-0.04635,-0.11962 -0.09249,-0.23928 -0.13829,-0.35901c0.89186,-1.95326 0.12895,-3.37064 0.13309,-5.35131c0.0005,-0.23931 -0.0011,-0.47836 -0.00458,-0.7172c0.98069,-0.06035 1.96501,-0.12022 2.9703,-0.04966z" data-paper-data="{&quot;index&quot;:null}" fill="#e3dad1"/><path d="M261.12338,201.19006c0.95982,-0.38942 1.73078,-1.30575 2.75074,-1.4544c0.97965,-0.14278 2.18476,-0.43628 2.94996,0.16225c0.67545,0.52833 0.49741,1.67001 0.49902,2.53552c0.00476,2.5567 -2.51035,5.03101 -4.79097,5.96358c-0.18354,0.07505 -0.36876,0.14333 -0.55548,0.20553c-0.62858,-0.36828 -1.35802,-0.6528 -1.77726,-1.19696c-1.04621,-1.35793 -1.96377,-3.51096 -2.54602,-5.12161c-0.01507,-0.04168 -0.02966,-0.08352 -0.04382,-0.12551c1.17503,-0.27558 2.35732,-0.49918 3.51382,-0.9684z" data-paper-data="{&quot;index&quot;:null}" fill="#e3dad1"/><path d="M214.72649,202.42346c0.98847,-0.11702 1.98044,-0.4472 2.96543,-0.35104c0.6914,0.06749 1.33326,0.32761 1.97074,0.61008c-0.34721,1.29003 -0.70802,2.56601 -1.0515,3.80556c-0.15564,0.77689 -0.3194,1.55755 -0.47733,2.34109c-1.432,-0.29539 -3.03143,-0.59714 -3.96822,-1.30744c-0.92239,-0.69937 -1.28537,-2.43688 -1.59308,-3.44946c0,0 -0.3881,-1.29816 0.92854,-1.71908c0.5676,-0.18146 0.96264,-0.04344 1.22841,0.17234c-0.00061,-0.03413 -0.0016,-0.06815 -0.003,-0.10206z" data-paper-data="{&quot;index&quot;:null}" fill="#e3dad1"/><path d="M254.98135,202.99655c0.54662,-0.24941 1.10054,-0.43594 1.6582,-0.59194c0.02343,0.07559 0.04835,0.15014 0.07492,0.22353c0.6192,1.71078 1.5978,4.01123 2.73328,5.437c0.30975,0.38894 0.74982,0.64163 1.19838,0.88258c-1.757,0.34259 -3.59656,0.31243 -5.35812,0.43255c-1.0223,0.0697 -2.04461,0.1394 -3.06691,0.20911c0.54971,-2.15154 1.04092,-4.31554 1.4052,-6.51038c0.45376,-0.03219 0.90555,-0.06001 1.35504,-0.08245z" data-paper-data="{&quot;index&quot;:null}" fill="#e3dad1"/><path d="M221.69766,203.44683c0.50083,0.10594 0.99633,0.16526 1.48862,0.19392c0.22944,1.09838 0.47743,2.18489 0.73925,3.25388c0.22595,0.92255 0.53159,1.8242 0.86219,2.71836c-0.05548,0.11864 -0.11043,0.23751 -0.16489,0.35662c-1.59901,-0.06243 -3.19142,-0.216 -4.80684,-0.73295c-0.21786,-0.06972 -0.45493,-0.13334 -0.70537,-0.1937c0.15678,-0.7775 0.31934,-1.55209 0.47322,-2.32286c0.32988,-1.18451 0.67287,-2.40063 0.9984,-3.63435c0.36358,0.14953 0.73267,0.28012 1.11541,0.36109z" data-paper-data="{&quot;index&quot;:null}" fill="#e3dad1"/><path d="M225.00953,204.29983c0.00966,1.39775 0.46079,2.52097 0.29746,3.7689c-0.15443,-0.46748 -0.29399,-0.93766 -0.41016,-1.41198c-0.24289,-0.99171 -0.46665,-1.99085 -0.6713,-2.99549c0.25863,-0.00351 0.51679,-0.01245 0.77479,-0.02442c0.00457,0.22077 0.00768,0.44174 0.00921,0.66298z" data-paper-data="{&quot;index&quot;:null}" fill="#e3dad1"/><path d="M211.37135,212.51432c0.28168,-0.32907 0.7143,-0.51649 1.15885,-0.54076l1.70637,-0.1053l0.00465,0.08245l0.25982,-0.07936c0.54174,0.12923 1.03063,0.28592 1.49587,0.45164c-1.90547,-2.92041 -0.75181,-5.45652 1.50778,-7.93064l-0.10362,-0.04318l0.87651,-1.39953c0.03555,-0.059 0.07707,-0.11655 0.12465,-0.17213c0.48729,-0.5693 1.42631,-0.71466 2.09738,-0.3247c0.25534,0.14837 0.43507,0.35287 0.53294,0.58064l0.5984,1.33006c1.01556,0.96555 1.78319,1.46006 2.87982,1.91258c-0.187,-2.57793 0.7513,-4.91108 0.83222,-7.46318c0.02107,-0.66467 -0.06328,-1.3219 -0.1874,-1.97653l-0.15089,0.06003l-0.87929,-1.60189c-0.22724,-0.39408 -0.19221,-0.88228 0.14187,-1.27258c0.48729,-0.5693 1.42631,-0.71466 2.09738,-0.3247l1.74099,1.01172c2.51547,1.46177 3.86628,2.76898 5.46249,4.5462c2.09858,-2.05551 4.68793,-3.60852 7.79223,-4.69557c0.86931,-0.30442 3.69779,-1.33434 4.60201,-0.9673c0.1729,0.07019 0.33258,0.15472 0.48191,0.25044l0.05024,-0.0587l1.52336,0.88524c0.67108,0.38996 0.82004,1.16759 0.33275,1.73688c-0.28168,0.32907 -0.7143,0.5165 -1.15885,0.54077l-1.70638,0.1053l-0.00261,-0.04659l-0.1558,0.0494c-1.89955,-0.64866 -1.34331,1.18243 -0.69712,2.18125c1.08706,1.68032 1.87556,2.33167 3.80247,2.71295l0.81169,-0.53835c0.50605,-0.6019 2.49966,-3.01054 2.82447,-3.15848c3.24155,-1.4765 3.37536,-0.02097 4.19157,1.82116c1.04865,2.36671 1.16041,5.41245 0.68903,8.12231c1.88475,-0.54243 3.44505,-1.02912 5.30282,-1.22758l-0.05562,-0.29029l1.87826,-0.29078c0.37955,-0.05877 0.78208,0.00238 1.11762,0.19736c0.67107,0.38996 0.82004,1.16759 0.33276,1.73689l-1.42224,1.66158c-1.00714,1.13643 -1.36985,2.31041 -1.69613,3.58696c0.76301,-0.16268 1.59754,-0.55921 2.42225,-0.98636l-0.31989,-0.3646l1.35525,-0.83739c0.51324,-0.33247 1.2376,-0.37 1.78419,-0.05236c0.48506,0.28187 0.69734,0.76628 0.59373,1.22816l-0.38131,1.92037c-0.07533,0.71347 -0.15638,1.4136 -0.25772,2.10013c-1.12349,0.31983 -2.19087,0.58374 -2.98398,0.65185c-2.54714,0.21872 -7.05197,-0.32885 -10.19776,0.1942c-2.27495,0.37825 -4.48006,1.24941 -6.75307,1.57644c-0.17923,-0.05836 -0.37893,-0.0991 -0.61198,-0.11437c-1.2926,-0.08472 -2.61831,-0.04403 -3.95416,0.08954c-2.87938,-0.22518 -6.8229,-0.64133 -10.41195,-0.82531c-1.07081,-0.39147 -2.22728,-0.60507 -3.43363,-0.60507c-1.11508,0 -2.18754,0.18251 -3.18913,0.51929c-3.20043,-0.86399 -6.00279,-1.70856 -7.48362,-2.30473c-2.35945,-0.94991 -4.79078,-2.23868 -7.27988,-3.15984c0.02095,-0.02901 0.04343,-0.05758 0.06745,-0.08564z" data-paper-data="{&quot;index&quot;:null}" fill="#ca1515"/><path d="M232.85069,213.39194l1.31083,-1.53142c0.42169,-0.49266 1.12017,-0.71886 1.75019,-0.61712l-0.20172,-0.48624c-0.1833,-0.42103 -0.11063,-0.92637 0.24542,-1.34233c0.55766,-0.65151 1.59935,-0.83703 2.32668,-0.41438c0.12049,0.07002 0.22478,0.15231 0.31241,0.24389l1.27039,1.26528l-0.05748,0.04242l0.16241,0.07552c0.71297,3.25442 2.8818,-1.65537 5.96338,-1.73297c0.18952,-0.00477 0.37387,0.00824 0.55426,0.03517l0.01445,-0.06426l1.6276,0.15676c0.25687,0.02004 0.50712,0.09232 0.72831,0.22086c0.72732,0.42265 0.86484,1.29344 0.30718,1.94495c-0.13302,0.1554 -0.29357,0.2843 -0.47084,0.38475l-1.79471,1.0655l-0.07115,-0.09157c-0.54106,0.20424 1.29772,0.36843 1.42806,0.37363c0.94063,0.03749 2.2027,-0.77231 2.8439,-0.22507c1.80955,1.54441 0.10189,4.00389 -1.6007,5.94112c-1.04859,0.25461 -2.10386,0.45174 -3.17983,0.48592c-2.29393,0.07286 -8.34587,-0.70117 -13.62956,-0.97201c-0.67185,-0.24561 -1.37742,-0.42121 -2.10788,-0.51797c-0.32883,-1.78735 0.79113,-3.11674 2.26841,-4.24041z" data-paper-data="{&quot;index&quot;:null}" fill="#ffc400"/><path d="M231.38782,171.72428c-0.25026,0.62566 -0.70098,0.78358 -1.06671,0.7949c-0.00126,0.0019 -0.00252,0.00381 -0.00379,0.00571c-0.69999,1.04999 -1.74998,0.34999 -1.74998,0.34999c-0.96105,-0.64244 -1.96768,-1.7873 -3.09202,-2.12262c-0.82276,-0.24538 -1.78704,0.1854 -2.57035,-0.16612c-0.80064,-0.3593 -2.02559,-0.72045 -2.09429,-1.59533c-0.07689,-0.97921 0.9662,-1.80191 1.78491,-2.34458c0.32696,-0.21672 0.77299,0.66491 1.0925,0.43735c0.29121,-0.20741 -0.50332,-0.80576 -0.23831,-1.04574c0.70034,-0.63422 1.7004,-1.35472 2.6111,-1.10303c3.09672,0.85585 1.0243,2.19843 1.02538,3.40323c0.00013,0.14212 2.76218,1.41043 2.88107,1.48804l0.71749,0.25784c0,0 1.17167,0.46867 0.70301,1.64034z" fill="#e4c8ad"/><path d="M246.66914,169.51465l0.7175,-0.25784c0.11889,-0.07761 2.88094,-1.34592 2.88107,-1.48804c0.00108,-1.2048 -2.07134,-2.54739 1.02538,-3.40324c0.9107,-0.25169 1.91075,0.46881 2.6111,1.10303c0.265,0.23998 -0.52952,0.83833 -0.23831,1.04574c0.31951,0.22757 0.76555,-0.65407 1.09251,-0.43735c0.81871,0.54267 1.8618,1.36537 1.78491,2.34458c-0.0687,0.87487 -1.29364,1.23602 -2.09429,1.59532c-0.78332,0.35152 -1.7476,-0.07926 -2.57036,0.16612c-1.12434,0.33532 -2.13097,1.48018 -3.09202,2.12262c0,0 -1.04998,0.7 -1.74998,-0.34999c-0.00127,-0.0019 -0.00254,-0.00381 -0.0038,-0.00571c-0.36573,-0.01132 -0.81645,-0.16925 -1.06671,-0.7949c-0.46867,-1.17167 0.703,-1.64034 0.703,-1.64034z" data-paper-data="{&quot;index&quot;:null}" fill="#e4c8ad"/><path d="M249.14116,187.56173l0.40721,0.64456c0.10153,0.09925 1.93829,2.52078 2.07706,2.49011c1.1764,-0.26005 2.03795,-2.57419 3.54458,0.26346c0.44307,0.83451 -0.04357,1.96695 -0.51094,2.7881c-0.17685,0.31071 -0.93316,-0.33525 -1.07253,-0.00602c-0.15291,0.36123 0.80443,0.6056 0.66372,0.97176c-0.35234,0.91686 -0.92943,2.11346 -1.90203,2.25061c-0.86897,0.12254 -1.48701,-0.99503 -2.01128,-1.69877c-0.51292,-0.68852 -0.30136,-1.72324 -0.71922,-2.47327c-0.57102,-1.02495 -1.90684,-1.75954 -2.74229,-2.55853c0,0 -0.91091,-0.87333 -0.03758,-1.78424c0.00158,-0.00165 0.00316,-0.0033 0.00475,-0.00494c-0.06821,-0.3595 -0.01171,-0.83372 0.54484,-1.21363c1.04225,-0.71145 1.75371,0.3308 1.75371,0.3308z" data-paper-data="{&quot;index&quot;:null}" fill="#e4c8ad"/><path d="M231.64448,186.8514c0.55655,0.3799 0.61304,0.85413 0.54483,1.21363c0.00159,0.00164 0.00317,0.00329 0.00475,0.00494c0.87333,0.91091 -0.03758,1.78424 -0.03758,1.78424c-0.83545,0.79898 -2.17125,1.53357 -2.74228,2.55853c-0.41786,0.75003 -0.2063,1.78475 -0.71922,2.47327c-0.52427,0.70374 -1.14231,1.82131 -2.01128,1.69877c-0.97261,-0.13715 -1.54969,-1.33375 -1.90203,-2.25061c-0.14071,-0.36616 0.81663,-0.61053 0.66372,-0.97176c-0.13937,-0.32923 -0.89569,0.31673 -1.07254,0.00602c-0.46737,-0.82115 -0.954,-1.95358 -0.51093,-2.78809c1.50662,-2.83765 2.36817,-0.52351 3.54457,-0.26346c0.13877,0.03068 1.97553,-2.39086 2.07706,-2.49011l0.40721,-0.64456c0,0 0.71146,-1.04225 1.75371,-0.3308z" data-paper-data="{&quot;index&quot;:null}" fill="#e4c8ad"/><g fill="#e4c8ad"><path d="M243.78547,179.49065c2.3142,-0.91117 1.03126,-2.9829 0.02818,-4.62453c-2.19044,-1.55703 -6.27559,-2.24434 -8.8777,-0.93712c-1.27442,0.64024 -2.21432,3.82258 -1.78068,5.11079c0.31534,0.93683 1.52263,1.35665 2.2963,1.76232c0,0 0.62723,0.32996 0.57821,0.96299c0.08676,0.26667 0.05593,0.51104 0.05593,0.51104c-0.03412,0.27047 -0.57026,2.97926 -0.31775,3.06203c0.29124,0.09547 0.72221,0.33972 0.91393,0.1006c0.25786,-0.32161 0.0398,-1.01184 0.4238,-1.16179c0.62731,-0.24496 1.36238,0.02427 2.00922,0.21171c0.44681,0.12947 0.77933,1.19462 1.10058,0.85816c0.31665,-0.33164 0.28479,-1.09679 0.73891,-1.16032c0.67722,-0.09473 1.95152,1.46948 1.89405,0.78808c-0.12151,-1.44109 -0.61893,-2.64514 -0.43315,-4.1994l0.0168,-0.13314c0,0 0.11057,-0.87642 0.93358,-0.91775zM231.15214,179.65087c-0.80954,-2.25632 0.71443,-6.46503 2.79468,-7.56782c3.45343,-1.83078 8.53422,-0.79234 11.39389,1.34984c1.86377,2.82271 3.12587,6.32133 -0.75194,7.99185l-0.1104,0.06513c0.05267,1.26011 0.71577,3.31448 0.37057,4.10452c-0.6597,1.50978 -2.04091,1.96509 -3.44872,1.32378c0.00495,0.10459 -0.01891,0.18852 -0.11262,0.22776c-0.60515,0.25338 -1.3304,0.10385 -1.96745,-0.05292c-0.49542,-0.12191 -0.98802,-1.50018 -1.14571,-1.01496c-0.67098,2.06468 -3.84769,1.78758 -4.5522,-0.50708c-0.22348,-0.72791 0.15627,-2.23521 0.32814,-3.19231c-1.20066,-0.63704 -2.28461,-1.29635 -2.79821,-2.72781zM241.32675,186.47305c0.02665,-0.18459 0.06902,-0.33357 0.02325,-0.22994c-0.02917,0.06608 -0.032,0.14561 -0.02325,0.22994z"/><path d="M238.09092,178.93018c0.06096,0.23659 0.03602,0.52803 -0.20623,0.85025c-0.62923,0.83698 -1.46622,0.20775 -1.46622,0.20775c-0.13174,-0.09928 -0.33138,-0.24408 -0.55574,-0.41315c-0.04074,-0.02597 -0.07802,-0.05458 -0.11215,-0.08503c-0.59523,-0.45412 -1.30718,-1.04594 -1.39944,-1.41345c-0.37818,-1.50611 0.36045,-3.21402 2.2363,-3.01428c2.04137,0.21738 2.53313,2.73117 1.50349,3.86789z"/><path d="M242.02527,175.10057c1.86669,0.27242 2.15798,2.11025 1.41758,3.47526c-0.18068,0.33306 -1.01729,0.72952 -1.70666,1.02158c-0.04061,0.02103 -0.08384,0.03947 -0.12974,0.0545c-0.25932,0.10806 -0.48867,0.19872 -0.64094,0.26218c0,0 -0.96705,0.40164 -1.36868,-0.5654c-0.15463,-0.37229 -0.1064,-0.66077 0.01141,-0.87483c-0.71508,-1.35684 0.38565,-3.66972 2.41703,-3.37327z" data-paper-data="{&quot;index&quot;:null}"/></g><path d="M266.80034,215.23868l-2.89262,2.17848c-1.48322,0.27393 -2.89597,0.72695 -4.27008,1.20735c-0.8874,0.01446 -1.80037,-0.1068 -2.6622,0.04337c-0.77085,0.13432 -1.33535,0.65023 -2.10521,0.78736c-2.25315,0.40134 -5.44865,0.15928 -7.77574,0.19719c-4.47661,0.07294 -9.22247,0.48665 -13.67869,0.21003c-3.72249,-0.23108 -8.17908,-0.88501 -11.55507,-1.98462c-1.89896,-0.61853 -2.98381,-1.26059 -5.07971,-1.57555c0,0 -3.63664,-0.58001 -2.81604,-3.1504c0.8206,-2.57039 4.45725,-1.99038 4.45725,-1.99038c2.59138,0.42979 4.42136,1.19273 6.75671,1.99693c2.45253,0.84454 6.08097,1.2802 8.8004,1.44906c4.20383,0.26102 8.71614,-0.15483 12.94334,-0.2237c1.54265,-0.02514 4.5608,0.30042 6.06772,-0.02835c0.75861,-0.16551 1.33436,-0.65304 2.10521,-0.78736c0.86183,-0.15017 1.7748,-0.02891 2.6622,-0.04337c0.80205,-0.32969 1.65667,-0.59569 2.53346,-0.81918c0.5547,-0.59649 2.1001,-1.84948 4.72702,-0.97401c3.37202,1.12379 1.78206,3.50715 1.78206,3.50715z" data-paper-data="{&quot;index&quot;:null}" fill="#413932"/></g></g></svg>