<svg version="1.1" xmlns="http://www.w3.org/2000/svg" xmlns:xlink="http://www.w3.org/1999/xlink" width="262.4905" height="241.33163" viewBox="0,0,262.4905,241.33163"><g transform="translate(-108.75474,-59.33419)"><g data-paper-data="{&quot;isPaintingLayer&quot;:true}" fill-rule="nonzero" stroke-linecap="butt" stroke-linejoin="miter" stroke-miterlimit="10" stroke-dasharray="" stroke-dashoffset="0" style="mix-blend-mode: normal"><g data-paper-data="{&quot;index&quot;:null}" fill="#aa0000" stroke="none" stroke-width="0.5"><path d="M357.88384,160.34798c2.40476,0.9712 6.53062,2.28955 8.24595,4.47498c1.31534,1.67581 2.1687,3.73693 2.66629,5.80146c1.00776,4.18124 -0.25596,5.13987 -1.03288,8.72362c-1.08892,5.02282 -1.58063,10.8049 -5.63915,14.57318c-2.52441,2.3439 -5.41504,3.52135 -8.52628,3.57249c0.1657,1.08332 0.08975,2.43035 0.14703,4.41694c0.04033,1.39812 0.40525,2.86543 -0.0057,4.19388c-2.51412,8.12684 -9.21379,9.78775 -16.26962,11.06245c2.38136,1.61433 4.74176,3.91342 5.31643,6.19028c1.38197,5.47549 -3.7365,12.19421 -8.63592,13.6431c-0.29007,0.08578 -6.37774,-0.4828 -7.68715,-0.60137c-1.74097,-0.28405 -4.3692,-0.52408 -6.3913,-1.37478c-0.05207,0.28276 -0.12719,0.56155 -0.23024,0.83553c-3.08497,8.19975 -16.54594,7.38931 -22.15188,2.81681c-0.90821,-0.74076 -1.31388,-1.95353 -2.10109,-2.82307c-0.87983,-0.97186 -2.16438,-1.57839 -2.87869,-2.67758c-0.59406,-0.91413 -0.39767,-2.16888 -0.89937,-3.13617c-0.66192,-1.27625 -2.21291,-2.09411 -2.53769,-3.49075c-0.02178,-0.0936 -0.03913,-0.18728 -0.05247,-0.28104c-1.31418,0.57411 -2.65914,0.38984 -3.62539,0.09458c-0.47128,1.29046 -1.859,3.29198 -2.46394,3.65413c-2.93288,1.75571 -10.27112,2.12856 -13.60199,0.76423c-2.06399,-0.8454 -4.58862,-1.52826 -5.75575,-3.44008c-0.10094,-0.16533 -1.15408,-9.34341 -1.3442,-11.30422c-0.1174,-1.2108 0.55096,-2.77115 -0.31395,-3.63525c-0.5775,-0.57693 -1.56421,-0.4379 -2.35945,-0.59271c-1.96529,-0.38256 -3.83167,-1.21072 -5.78982,-1.63168c-1.19648,-0.25719 -2.48455,0.15099 -3.65506,-0.21271c-1.74424,-0.54196 -5.99948,-3.64003 -7.42227,-4.61913c-1.82703,-3.50259 -7.297,-10.62138 -5.52364,-14.99088c-0.34689,-0.14749 -0.66644,-0.43382 -0.99347,-0.6274c-2.29961,-1.36107 -5.80251,-1.1345 -7.25532,-3.38456c-3.57225,-5.53244 -1.24343,-13.47248 2.68304,-17.58374c1.77288,-1.85633 3.7905,-1.86844 4.80908,-4.41959c0.6318,-1.58251 1.20131,-3.2094 1.50816,-4.89138c0.30463,-1.66985 -0.46751,-3.73802 0.57023,-5.06659c4.20951,-5.38921 10.95316,-3.78757 16.6108,-2.63966c0.05706,-0.82092 0.30131,-1.63795 0.749,-2.3867l0.73988,-1.23742c-0.22789,-0.91698 -0.37703,-1.84778 -0.46707,-2.78706l-0.40059,0.18561l-1.23163,-2.60393c-0.79258,-1.6154 -0.78478,-3.57531 0.19252,-5.20982c0.26657,-0.44581 0.58766,-0.83801 0.94982,-1.17341c-2.47696,-0.20012 -5.13745,-0.65155 -5.78854,-1.16909c-3.95525,-3.14401 -5.51415,-8.89186 -3.4022,-13.47985c1.01285,-2.20032 4.1634,-2.48025 6.02313,-4.01814c1.15802,-0.9576 1.34046,-2.70449 2.11548,-3.99583c2.7718,-4.61844 5.46048,-8.41232 11.17346,-8.95676c1.27985,-2.23923 2.38013,-4.46384 4.51359,-6.11096c0.9892,-0.76371 2.39067,-0.82831 3.43151,-1.5203c1.04604,-0.69543 1.6354,-1.99013 2.74256,-2.58452c0.65075,-0.34937 1.35497,-0.6295 2.0939,-0.85509c0.66261,-0.96437 1.37689,-1.8835 2.15092,-2.74745c1.39306,-1.55496 2.79048,-3.35033 4.75,-4.0773c3.23996,-1.20203 7.65501,0.411 10.407,2.119c2.336,1.44984 4.30386,3.50409 5.91634,5.8858c4.82078,2.07872 8.64173,5.81901 10.00368,12.07163c0.18219,0.83639 0.2584,3.16899 0.21116,5.29366c0.7524,-0.06034 1.55793,0.02028 2.24352,-0.2608c1.49999,-0.61496 2.52526,-2.42399 4.15047,-2.5252c7.88469,-0.49102 15.9321,9.84496 16.27911,17.05809c0.15471,3.21581 -0.47381,5.56146 -1.66548,7.75406c-0.24851,0.75904 -0.5238,1.51211 -0.80589,2.25663c6.38705,-1.13879 14.04731,3.42118 17.26682,9.07919c3.88032,1.96948 6.54069,5.52279 5.83068,11.07634c-0.18503,1.4473 -1.41181,2.49104 -2.33897,3.65336c1.5367,-0.217 3.19429,0.01056 4.75259,-0.12702zM311.39216,198.92851c-0.21441,-0.01328 -0.42906,-0.03941 -0.64276,-0.07865c0.20011,0.13871 0.36989,0.20601 0.50035,0.15124c0.04243,-0.0178 0.09005,-0.04218 0.14238,-0.07255z"/><path d="M265.42091,167.52603l-1.12001,-0.68801c-0.26553,-0.16313 -7.00549,-4.24345 -7.38642,-4.70013c-1.31779,-1.57979 -1.99038,-4.84547 -2.50055,-6.86685c-1.31324,-5.20318 -2.76478,-11.27945 -0.23733,-16.0737c-1.2239,-0.1712 -2.57765,0.06143 -3.62479,-0.58794c-1.1501,-0.71323 -1.60611,-2.18584 -2.4084,-3.27935c-1.59926,-2.17976 -3.75183,-4.23508 -3.30078,-7.33057c0.30339,-2.08211 1.48383,-3.92672 2.39187,-5.81299c2.78181,-5.7786 7.18814,-11.37848 11.79139,-15.74664c1.65925,-1.57451 2.95781,-3.90593 5.16949,-4.51167c0.95002,-0.2602 1.8979,0.08823 2.84537,0.54975c1.07586,-3.90482 2.51382,-7.69694 6.06594,-10.17529c1.99324,-1.39071 4.70932,-1.30073 6.95678,-2.23379c3.99506,-1.65866 8.74963,-4.27944 13.3594,-3.4884c2.68584,0.46089 5.24796,2.18131 7.522,3.60441c1.29731,0.81184 2.82048,1.35192 3.87183,2.46819c4.80184,5.09856 5.4545,13.3729 10.60775,17.90116c0,0 0.82235,0.75877 0.94302,1.82608c3.2998,-1.16926 6.81458,-1.91611 10.13537,-1.05408c1.29054,0.335 2.32252,1.33285 3.47287,2.0184c0.8219,0.48984 6.43563,3.95407 6.65877,4.17525c3.7648,3.73186 3.52152,11.48654 1.36164,15.88547c1.72214,0.88096 3.3321,2.12404 4.92502,3.10898c2.59373,1.60383 4.74932,3.84356 7.01924,5.88754c4.76946,4.29479 10.44671,7.11177 9.66984,14.60962c-0.0546,0.5271 -0.20022,1.03291 -0.3816,1.53031c2.04892,0.47745 4.14128,1.54845 6.36465,3.32845c1.18137,0.94579 2.59718,1.81335 3.24194,3.18257c1.40856,2.99127 1.0305,8.14433 1.40265,11.34169c0.22666,1.94741 1.07469,3.84663 1.00311,5.80073c-0.18077,4.93626 -3.43341,9.14037 -5.91321,13.10014c-1.10084,1.75782 -1.69931,4.00734 -3.36966,5.22965c-1.11851,0.8185 -2.27401,1.25699 -3.45082,1.45662c-0.22806,3.44193 -2.14093,7.00896 -3.72127,9.6639c-0.45046,0.75679 -3.52754,5.97391 -3.91741,6.25114c-1.57486,1.11979 -3.51693,1.80595 -5.4485,2.0078c-0.44624,0.04663 -0.88776,-0.00133 -1.32737,-0.09713c0.52638,0.58169 0.99854,1.19264 1.27061,1.91658c0.47781,1.27143 0.03507,2.70737 -0.08703,4.0507c-0.47536,5.23017 -2.86236,13.28545 -8.78956,14.91378c-1.20772,0.33178 -2.51531,-0.10859 -3.77121,-0.20129c-1.5936,-0.11765 -6.9177,-0.51436 -8.54691,-1.16866c-1.25565,-0.50427 -2.54202,-1.22069 -3.82404,-2.01991c-1.27692,2.16143 -2.88424,4.64578 -4.50962,5.73286c-6.9153,4.62511 -16.1003,0.59088 -22.29045,-3.44657c-1.61075,-1.05059 -3.74165,-1.61098 -4.77844,-3.2346c-1.13737,-1.78108 -0.87814,-4.1207 -1.24251,-6.19397c-0.80027,-4.55353 -1.43869,-6.90828 -0.03034,-11.29272l1.22465,-2.15177c0,0 1.38581,-2.31772 3.7182,-0.88493c2.33238,1.43279 0.9466,3.75053 0.9466,3.75053l-0.77168,1.18707c-1.3247,3.26321 -0.15449,4.98516 0.27879,8.67972c0.15306,1.30514 -0.33288,2.80279 0.36479,3.92378c0.60874,0.97809 2.06014,1.01772 3.06152,1.58149c4.26962,2.40386 11.43619,7.05671 16.38938,3.57549c0.80517,-0.56589 2.09043,-2.57626 3.08332,-4.25111c-0.54579,-0.36265 -1.08223,-0.71069 -1.60623,-1.0326l-1.67999,-1.03203c0,0 -2.3324,-1.43281 -0.9466,-3.75053c1.38579,-2.31772 3.7182,-0.88493 3.7182,-0.88493l1.67998,1.03203c1.12309,0.68991 2.25774,1.42383 3.41103,2.14625c0.16421,0.06783 0.33391,0.15429 0.50897,0.2618c0.18363,0.11281 0.34424,0.23109 0.48427,0.35331c4.21508,2.57481 8.70037,4.79133 13.78962,4.01729c1.26978,-0.19313 2.06613,-2.45228 2.45148,-3.10104c1.2745,-2.14568 1.93245,-4.67051 2.27884,-7.158c0.08321,-0.59755 0.59316,-1.22625 0.33476,-1.77713c-0.46906,-0.99999 -1.60624,-1.52924 -2.29232,-2.39616c-0.9119,-1.1523 -1.70318,-2.09985 -2.54621,-2.95101c-1.66784,-0.45572 -3.26589,-1.14934 -5.29394,-2.38488l-2.24,-1.37605c0,0 -2.3324,-1.43279 -0.9466,-3.75051c1.38579,-2.31772 3.71819,-0.88493 3.71819,-0.88493l0.74925,0.46025c1.28596,-0.73177 2.71619,0.14683 2.71619,0.14683c1.5229,0.94102 2.81274,1.86384 3.98159,2.87759c0.92696,0.14755 1.98494,0.24669 3.42245,0.43892c2.30561,0.30833 3.80516,1.90253 5.90245,0.12992c1.42035,-1.20045 1.77711,-3.28063 2.73704,-4.87831c0.57481,-0.95669 2.85666,-4.54604 3.14701,-7.01203c-0.8935,-0.14607 -1.7861,-0.31031 -2.67145,-0.43518c0,0 -2.68969,-0.40395 -2.33471,-3.09868c0.06496,-0.49302 0.20806,-0.88233 0.39853,-1.18936c-0.05347,-0.39357 -0.01379,-0.84857 0.17048,-1.37053c0.90146,-2.55372 3.46034,-1.60328 3.46034,-1.60328c1.36621,0.59129 3.06904,0.69041 4.09865,1.77393c0.24916,0.26218 0.47346,0.53088 0.6745,0.80541c0.67982,-0.05924 1.26409,-0.2222 1.64444,-0.54658c1.05229,-0.8975 1.2734,-2.46575 1.95393,-3.67391c1.76502,-3.13337 5.14172,-6.67291 5.15578,-10.53482c0.00612,-1.67596 -0.7643,-3.28325 -0.96875,-4.95032c-0.07744,-0.6313 -0.29826,-8.17394 -0.78189,-9.37348c-0.25107,-0.62273 -3.89461,-2.73184 -4.10069,-2.84228c-4.09095,-2.1927 -5.98374,-0.9373 -9.70928,1.42215l-0.13221,0.78418c0,0 -1.38581,2.3177 -3.7182,0.88493c-2.33238,-1.43279 -0.94659,-3.75051 -0.94659,-3.75051l1.86414,-2.55467c2.07435,-1.29143 4.03861,-2.25271 5.96581,-2.78758c0.32369,-0.80944 0.80619,-1.57492 0.92929,-2.4399c0.69298,-4.86952 -4.97727,-7.25543 -7.86105,-9.85521c-3.30082,-2.97576 -5.34103,-4.68699 -9.0098,-7.00259c-0.92087,-0.58124 -2.36312,-2.02353 -3.75169,-1.62676c-2.78656,0.79622 -4.12135,3.45716 -5.46641,5.72978l-0.99814,1.66942c0,0 -1.38581,2.31772 -3.7182,0.88493c-2.3324,-1.43277 -0.9466,-3.75053 -0.9466,-3.75053l0.99817,-1.6694c1.78225,-2.95526 3.65518,-5.93023 6.768,-7.44476c0.32506,-0.73964 0.91708,-1.18507 0.91708,-1.18507c0.70814,-0.45755 1.74559,-0.61649 2.1244,-1.37263c0.89152,-1.77956 1.53454,-7.71533 -0.41087,-9.29174c-1.65583,-1.34171 -5.72948,-4.23118 -7.7883,-4.81458c-1.56688,-0.44401 -3.61797,0.26522 -5.09406,0.6227c-4.03177,0.97643 -8.7232,1.91496 -11.36304,5.09591l-0.34839,0.68621c0,0 -1.38579,2.31772 -3.71819,0.88493c-2.33238,-1.43279 -0.9466,-3.75049 -0.9466,-3.75049l0.98251,-1.53966c0.94547,-0.97858 1.69047,-2.20249 2.83641,-2.93573c0.86903,-0.55608 2.0496,-0.39117 2.99884,-0.79805c0.37563,-0.16099 0.75946,-0.32778 1.1506,-0.49761c-5.02864,-4.9956 -5.74109,-12.69878 -10.55366,-17.84639c-0.75224,-0.80459 -1.90567,-1.09457 -2.84814,-1.65988c-1.39987,-0.8397 -3.80123,-2.5499 -5.46339,-2.85085c-3.47083,-0.6284 -7.57295,1.93379 -10.51685,3.14864c-1.9938,0.82275 -4.43145,0.63344 -6.20679,1.85363c-1.80925,1.24351 -2.86777,4.17257 -4.13421,5.94331l1.65441,0.91053c0,0 2.01531,1.85952 0.19902,3.85121c-1.27381,1.3968 -2.64548,0.89944 -3.35123,0.4777c-1.1546,1.18464 -2.88575,0.4779 -2.88575,0.4779c-0.71509,-0.4515 -1.36244,-1.64097 -2.14532,-1.35445c-1.20622,0.44147 -1.545,2.05394 -2.39407,3.01587c-1.14901,1.3017 -2.46792,2.44681 -3.5943,3.76841c-3.2583,3.82308 -7.71001,9.47925 -9.08403,14.47491c-0.385,1.3998 1.54073,2.50088 2.33195,3.73825c0.3331,0.52091 0.21173,1.38105 0.74068,1.69862c0.55143,0.33106 1.27473,-0.19909 1.90739,-0.10881c1.64751,0.23518 3.26796,0.63948 4.89353,1.01472c0.1425,-0.03117 0.28296,-0.06616 0.42027,-0.10692c0,0 1.57792,-0.37554 2.60015,0.68829l0.83833,0.06948c0,0 2.70592,0.24502 2.50949,2.95881c-0.1964,2.71378 -2.90232,2.46877 -2.90232,2.46877l-1.67676,-0.16126c-0.51402,-0.09023 -1.02674,-0.18791 -1.5386,-0.29052c-3.98811,2.01831 -1.58535,10.01576 -0.70264,13.51304c0.08164,0.32344 0.97321,4.20005 1.34675,4.62695c1.54483,1.76545 4.05901,2.33083 6.05354,3.55608l1.11999,0.68803c0,0 2.3324,1.43277 0.9466,3.75049c-1.38579,2.31772 -3.7182,0.88493 -3.7182,0.88493z"/><path d="M265.19046,209.73877l0.72185,-0.60488c0,0 2.15292,-1.61982 3.80381,0.57128c1.65091,2.1911 -0.50201,3.81088 -0.50201,3.81088l-2.04653,1.23849c0.20878,2.79403 0.3359,8.68941 2.18066,10.63877c0.6068,0.64123 5.94196,2.95706 6.18775,3.02181c1.19523,0.31478 2.45406,0.23568 3.68348,0.3093c0.65402,0.03918 1.45461,0.433 1.96379,0.02889c1.18615,-0.94138 1.57167,-2.63556 2.65479,-3.69434c1.26434,-1.23594 2.86662,-2.06941 4.29991,-3.10413c0,0 2.19253,-1.5659 3.79044,0.66404c1.59792,2.22994 -0.59461,3.79584 -0.59461,3.79584c-1.23941,0.87415 -2.61936,1.57681 -3.7182,2.62245c-1.42357,1.35465 -2.11766,3.48711 -3.78882,4.52123c-1.67774,1.03818 -7.96868,0.54404 -9.54537,0.13569c-1.82464,-0.47256 -7.67789,-3.26069 -9.03765,-4.80944c-2.89504,-3.29745 -3.33129,-9.6968 -3.05788,-14.43598l-1.96768,-0.17972c-6.32984,-1.1089 -12.51597,-1.23682 -17.57222,-6.03609c-0.7763,-0.73684 -1.07673,-1.86192 -1.75767,-2.68824c-0.87119,-1.0572 -2.35351,-1.67015 -2.87587,-2.93461c-0.58726,-1.42155 -0.04074,-3.06575 -0.23128,-4.58655c-0.14557,-1.16182 -0.32441,-2.32371 -0.46751,-3.48733c-2.55422,-0.6489 -4.92774,-1.75868 -7.14219,-3.85767c-0.76623,-0.72625 -1.02659,-1.86599 -1.72911,-2.65449c-0.9838,-1.10423 -2.54659,-1.69691 -3.28757,-2.97632c-3.09789,-5.34895 2.49813,-11.12798 5.16449,-15.37233c1.14119,-1.81656 1.83809,-4.03871 3.47946,-5.41329c0.18289,-0.15316 0.38013,-0.27963 0.58846,-0.3855c-0.13851,-1.52826 0.78878,-3.06178 1.34571,-4.50998c1.42782,-3.7127 5.50049,-9.77024 9.05351,-11.29107c1.41354,-0.60505 3.08003,0.33893 4.61998,0.50939c2.79432,0.30931 5.47013,1.60636 7.90255,3.05468c0,0 2.33238,1.43279 0.94659,3.75051c-1.38579,2.31772 -3.71819,0.88493 -3.71819,0.88493c-1.74187,-1.11415 -3.72591,-1.92213 -5.74832,-2.2876c-0.79086,-0.14292 -1.58481,-1.03211 -2.3109,-0.7048c-1.42589,0.64279 -3.55623,4.69893 -4.29158,5.93185c-0.5081,0.85192 -1.00294,1.71247 -1.53843,2.54701c-0.27314,0.42569 -1.01492,0.75157 -0.95086,1.22211c0.46207,0.10469 0.9595,0.33678 1.35197,0.81566c0.11791,0.04748 0.22771,0.10364 0.32122,0.17597c0.8847,0.68409 1.64485,1.5177 2.46727,2.27652l1.8095,1.05003c0,0 2.3324,1.43277 0.9466,3.75049c-1.38579,2.31772 -3.7182,0.88493 -3.7182,0.88493l-2.67051,-1.70203c-0.37881,-0.34953 -1.19084,-1.08086 -2.08878,-1.92073c-0.40486,0.0232 -0.78047,0.10644 -1.06854,0.36904c-1.81837,1.65776 -2.35203,4.3397 -3.61753,6.45625c-1.26553,2.11656 -3.08743,3.93005 -3.97263,6.23813c-0.51541,1.34391 2.07985,2.04675 3.06305,3.12418c0.61194,0.67056 0.77225,1.6877 1.41998,2.32347c1.21697,1.19444 2.53779,1.88997 3.93637,2.32125c0.40014,-0.38797 0.99654,-0.6725 1.88545,-0.66066c1.34972,0.018 2.03084,0.70138 2.37458,1.38364c0.50333,0.04612 1.0124,0.08821 1.52627,0.13474l0.91967,-0.36315c0,0 2.62917,-0.62573 3.2985,2.02627c0.66935,2.652 -1.95981,3.27773 -1.95981,3.27773l-2.6512,0.4867c-0.1189,-0.01076 -0.23746,-0.02165 -0.3557,-0.03271c0.09889,0.67582 0.19177,1.3521 0.24881,2.03017c0.08543,1.0153 -0.57777,2.09206 -0.19852,3.0422c0.32344,0.81036 1.48041,0.9634 2.05866,1.61844c0.59118,0.66968 0.75357,1.66467 1.39141,2.28973c3.9279,3.84913 9.45317,3.61643 14.42039,4.48662l2.79315,0.25056c0,0 0.8493,0.0769 1.56173,0.62171z"/></g><g data-paper-data="{&quot;index&quot;:null}" fill="#aa0000" stroke="none" stroke-width="0.5"><path d="M244.97083,163.6282c2.40476,0.9712 6.53062,2.28955 8.24595,4.47498c1.31534,1.67581 2.1687,3.73693 2.66629,5.80146c1.00776,4.18124 -0.25596,5.13987 -1.03288,8.72362c-1.08892,5.02282 -1.58063,10.8049 -5.63915,14.57318c-2.52441,2.3439 -5.41504,3.52135 -8.52628,3.57249c0.1657,1.08332 0.08975,2.43035 0.14703,4.41694c0.04033,1.39812 0.40525,2.86543 -0.0057,4.19388c-2.51412,8.12684 -9.21379,9.78775 -16.26962,11.06245c2.38136,1.61433 4.74176,3.91342 5.31643,6.19028c1.38197,5.47549 -3.7365,12.19421 -8.63592,13.6431c-0.29007,0.08578 -6.37774,-0.4828 -7.68715,-0.60137c-1.74097,-0.28405 -4.3692,-0.52408 -6.3913,-1.37478c-0.05207,0.28276 -0.12719,0.56155 -0.23024,0.83553c-3.08497,8.19975 -16.54594,7.38931 -22.15188,2.81681c-0.90821,-0.74076 -1.31388,-1.95353 -2.10109,-2.82307c-0.87983,-0.97186 -2.16438,-1.57839 -2.87869,-2.67758c-0.59406,-0.91413 -0.39767,-2.16888 -0.89937,-3.13617c-0.66192,-1.27625 -2.21291,-2.09411 -2.53769,-3.49075c-0.02178,-0.0936 -0.03913,-0.18728 -0.05247,-0.28104c-1.31418,0.57411 -2.65914,0.38984 -3.62539,0.09458c-0.47128,1.29046 -1.859,3.29198 -2.46394,3.65413c-2.93288,1.75571 -10.27112,2.12856 -13.60199,0.76423c-2.06399,-0.8454 -4.58862,-1.52826 -5.75575,-3.44008c-0.10094,-0.16533 -1.15408,-9.34341 -1.3442,-11.30422c-0.1174,-1.2108 0.55096,-2.77115 -0.31395,-3.63525c-0.5775,-0.57693 -1.56421,-0.4379 -2.35945,-0.59271c-1.96529,-0.38256 -3.83167,-1.21072 -5.78982,-1.63168c-1.19648,-0.25719 -2.48455,0.15099 -3.65506,-0.21271c-1.74424,-0.54196 -5.99948,-3.64003 -7.42227,-4.61913c-1.82703,-3.50259 -7.297,-10.62138 -5.52364,-14.99088c-0.34689,-0.14749 -0.66644,-0.43382 -0.99347,-0.6274c-2.29961,-1.36107 -5.80251,-1.1345 -7.25532,-3.38456c-3.57225,-5.53244 -1.24343,-13.47248 2.68304,-17.58374c1.77288,-1.85633 3.7905,-1.86844 4.80908,-4.41959c0.6318,-1.58251 1.20131,-3.2094 1.50816,-4.89138c0.30463,-1.66985 -0.46751,-3.73802 0.57023,-5.06659c4.20951,-5.38921 10.95316,-3.78757 16.6108,-2.63966c0.05706,-0.82092 0.30131,-1.63795 0.749,-2.3867l0.73988,-1.23742c-0.22789,-0.91698 -0.37703,-1.84778 -0.46707,-2.78706l-0.40059,0.18561l-1.23163,-2.60393c-0.79258,-1.6154 -0.78478,-3.57531 0.19252,-5.20982c0.26657,-0.44581 0.58766,-0.83801 0.94982,-1.17341c-2.47696,-0.20012 -5.13745,-0.65155 -5.78854,-1.16909c-3.95525,-3.14401 -5.51415,-8.89186 -3.4022,-13.47985c1.01285,-2.20032 4.1634,-2.48025 6.02313,-4.01814c1.15802,-0.9576 1.34046,-2.70449 2.11548,-3.99583c2.7718,-4.61844 5.46048,-8.41232 11.17346,-8.95676c1.27985,-2.23923 2.38013,-4.46384 4.51359,-6.11096c0.9892,-0.76371 2.39067,-0.82831 3.43151,-1.5203c1.04604,-0.69543 1.6354,-1.99013 2.74256,-2.58452c0.65075,-0.34937 1.35497,-0.6295 2.0939,-0.85509c0.66261,-0.96437 1.37689,-1.8835 2.15092,-2.74745c1.39306,-1.55496 2.79048,-3.35033 4.75,-4.0773c3.23996,-1.20203 7.65501,0.411 10.407,2.119c2.336,1.44984 4.30386,3.50409 5.91634,5.8858c4.82078,2.07872 8.64173,5.81901 10.00368,12.07163c0.18219,0.83639 0.2584,3.16899 0.21116,5.29366c0.7524,-0.06034 1.55793,0.02028 2.24352,-0.2608c1.49999,-0.61496 2.52526,-2.42399 4.15047,-2.5252c7.88469,-0.49102 15.9321,9.84496 16.27911,17.05809c0.15471,3.21581 -0.47381,5.56146 -1.66548,7.75406c-0.24851,0.75904 -0.5238,1.51211 -0.80589,2.25663c6.38705,-1.13879 14.04731,3.42118 17.26682,9.07919c3.88032,1.96948 6.54069,5.52279 5.83068,11.07634c-0.18503,1.4473 -1.41181,2.49104 -2.33897,3.65336c1.5367,-0.217 3.19429,0.01056 4.75259,-0.12702zM198.47915,202.20873c-0.21441,-0.01328 -0.42906,-0.03941 -0.64276,-0.07865c0.20011,0.13871 0.36989,0.20601 0.50035,0.15124c0.04243,-0.0178 0.09005,-0.04218 0.14238,-0.07255z"/><path d="M152.50792,170.80625l-1.12001,-0.68801c-0.26553,-0.16313 -7.00549,-4.24345 -7.38642,-4.70013c-1.31779,-1.57979 -1.99038,-4.84547 -2.50055,-6.86685c-1.31324,-5.20318 -2.76478,-11.27945 -0.23733,-16.0737c-1.2239,-0.1712 -2.57765,0.06143 -3.62479,-0.58794c-1.1501,-0.71323 -1.60611,-2.18584 -2.4084,-3.27935c-1.59926,-2.17976 -3.75183,-4.23508 -3.30078,-7.33057c0.30339,-2.08211 1.48383,-3.92672 2.39187,-5.81299c2.78181,-5.7786 7.18814,-11.37848 11.79139,-15.74664c1.65925,-1.57451 2.95781,-3.90593 5.16949,-4.51167c0.95002,-0.2602 1.8979,0.08823 2.84537,0.54975c1.07586,-3.90482 2.51382,-7.69694 6.06594,-10.17529c1.99324,-1.39071 4.70932,-1.30073 6.95678,-2.23379c3.99506,-1.65866 8.74963,-4.27944 13.3594,-3.4884c2.68584,0.46089 5.24796,2.18131 7.522,3.60441c1.29731,0.81184 2.82048,1.35192 3.87183,2.46819c4.80184,5.09856 5.4545,13.3729 10.60775,17.90116c0,0 0.82235,0.75877 0.94302,1.82608c3.2998,-1.16926 6.81458,-1.91611 10.13537,-1.05408c1.29054,0.335 2.32252,1.33285 3.47287,2.0184c0.8219,0.48984 6.43563,3.95407 6.65877,4.17525c3.7648,3.73186 3.52152,11.48654 1.36164,15.88547c1.72214,0.88096 3.3321,2.12404 4.92502,3.10898c2.59373,1.60383 4.74932,3.84356 7.01924,5.88754c4.76946,4.29479 10.44671,7.11177 9.66984,14.60962c-0.0546,0.5271 -0.20022,1.03291 -0.3816,1.53031c2.04892,0.47745 4.14128,1.54845 6.36465,3.32845c1.18137,0.94579 2.59718,1.81335 3.24194,3.18257c1.40856,2.99127 1.0305,8.14433 1.40265,11.34169c0.22666,1.94741 1.07469,3.84663 1.00311,5.80073c-0.18077,4.93626 -3.43341,9.14037 -5.91321,13.10014c-1.10084,1.75782 -1.69931,4.00734 -3.36966,5.22965c-1.11851,0.8185 -2.27401,1.25699 -3.45082,1.45662c-0.22806,3.44193 -2.14093,7.00896 -3.72127,9.6639c-0.45046,0.75679 -3.52754,5.97391 -3.91741,6.25114c-1.57486,1.11979 -3.51693,1.80595 -5.4485,2.0078c-0.44624,0.04663 -0.88776,-0.00133 -1.32737,-0.09713c0.52638,0.58169 0.99854,1.19264 1.27061,1.91658c0.47781,1.27143 0.03507,2.70737 -0.08703,4.0507c-0.47536,5.23017 -2.86236,13.28545 -8.78956,14.91378c-1.20772,0.33178 -2.51531,-0.10859 -3.77121,-0.20129c-1.5936,-0.11765 -6.9177,-0.51436 -8.54691,-1.16866c-1.25565,-0.50427 -2.54202,-1.22069 -3.82404,-2.01991c-1.27692,2.16143 -2.88424,4.64578 -4.50962,5.73286c-6.9153,4.62511 -16.1003,0.59088 -22.29045,-3.44657c-1.61075,-1.05059 -3.74165,-1.61098 -4.77844,-3.2346c-1.13737,-1.78108 -0.87814,-4.1207 -1.24251,-6.19397c-0.80027,-4.55353 -1.43869,-6.90828 -0.03034,-11.29272l1.22465,-2.15177c0,0 1.38581,-2.31772 3.7182,-0.88493c2.33238,1.43279 0.9466,3.75053 0.9466,3.75053l-0.77168,1.18707c-1.3247,3.26321 -0.15449,4.98516 0.27879,8.67972c0.15306,1.30514 -0.33288,2.80279 0.36479,3.92378c0.60874,0.97809 2.06014,1.01772 3.06152,1.58149c4.26962,2.40386 11.43619,7.05671 16.38938,3.57549c0.80517,-0.56589 2.09043,-2.57626 3.08332,-4.25111c-0.54579,-0.36265 -1.08223,-0.71069 -1.60623,-1.0326l-1.67999,-1.03203c0,0 -2.3324,-1.43281 -0.9466,-3.75053c1.38579,-2.31772 3.7182,-0.88493 3.7182,-0.88493l1.67998,1.03203c1.12309,0.68991 2.25774,1.42383 3.41103,2.14625c0.16421,0.06783 0.33391,0.15429 0.50897,0.2618c0.18363,0.11281 0.34424,0.23109 0.48427,0.35331c4.21508,2.57481 8.70037,4.79133 13.78962,4.01729c1.26978,-0.19313 2.06613,-2.45228 2.45148,-3.10104c1.2745,-2.14568 1.93245,-4.67051 2.27884,-7.158c0.08321,-0.59755 0.59316,-1.22625 0.33476,-1.77713c-0.46906,-0.99999 -1.60624,-1.52924 -2.29232,-2.39616c-0.9119,-1.1523 -1.70318,-2.09985 -2.54621,-2.95101c-1.66784,-0.45572 -3.26589,-1.14934 -5.29394,-2.38488l-2.24,-1.37605c0,0 -2.3324,-1.43279 -0.9466,-3.75051c1.38579,-2.31772 3.71819,-0.88493 3.71819,-0.88493l0.74925,0.46025c1.28596,-0.73177 2.71619,0.14683 2.71619,0.14683c1.5229,0.94102 2.81274,1.86384 3.98159,2.87759c0.92696,0.14755 1.98494,0.24669 3.42245,0.43892c2.30561,0.30833 3.80516,1.90253 5.90245,0.12992c1.42035,-1.20045 1.77711,-3.28063 2.73704,-4.87831c0.57481,-0.95669 2.85666,-4.54604 3.14701,-7.01203c-0.8935,-0.14607 -1.7861,-0.31031 -2.67145,-0.43518c0,0 -2.68969,-0.40395 -2.33471,-3.09868c0.06496,-0.49302 0.20806,-0.88233 0.39853,-1.18936c-0.05347,-0.39357 -0.01379,-0.84857 0.17048,-1.37053c0.90146,-2.55372 3.46034,-1.60328 3.46034,-1.60328c1.36621,0.59129 3.06904,0.69041 4.09865,1.77393c0.24916,0.26218 0.47346,0.53088 0.6745,0.80541c0.67982,-0.05924 1.26409,-0.2222 1.64444,-0.54658c1.05229,-0.8975 1.2734,-2.46575 1.95393,-3.67391c1.76502,-3.13337 5.14172,-6.67291 5.15578,-10.53482c0.00612,-1.67596 -0.7643,-3.28325 -0.96875,-4.95032c-0.07744,-0.6313 -0.29826,-8.17394 -0.78189,-9.37348c-0.25107,-0.62273 -3.89461,-2.73184 -4.10069,-2.84228c-4.09095,-2.1927 -5.98374,-0.9373 -9.70928,1.42215l-0.13221,0.78418c0,0 -1.38581,2.3177 -3.7182,0.88493c-2.33238,-1.43279 -0.94659,-3.75051 -0.94659,-3.75051l1.86414,-2.55467c2.07435,-1.29143 4.03861,-2.25271 5.96581,-2.78758c0.32369,-0.80944 0.80619,-1.57492 0.92929,-2.4399c0.69298,-4.86952 -4.97727,-7.25543 -7.86105,-9.85521c-3.30082,-2.97576 -5.34103,-4.68699 -9.0098,-7.00259c-0.92087,-0.58124 -2.36312,-2.02353 -3.75169,-1.62676c-2.78656,0.79622 -4.12135,3.45716 -5.46641,5.72978l-0.99814,1.66942c0,0 -1.38581,2.31772 -3.7182,0.88493c-2.3324,-1.43277 -0.9466,-3.75053 -0.9466,-3.75053l0.99817,-1.6694c1.78225,-2.95526 3.65518,-5.93023 6.768,-7.44476c0.32506,-0.73964 0.91708,-1.18507 0.91708,-1.18507c0.70814,-0.45755 1.74559,-0.61649 2.1244,-1.37263c0.89152,-1.77956 1.53454,-7.71533 -0.41087,-9.29174c-1.65583,-1.34171 -5.72948,-4.23118 -7.7883,-4.81458c-1.56688,-0.44401 -3.61797,0.26522 -5.09406,0.6227c-4.03177,0.97643 -8.7232,1.91496 -11.36304,5.09591l-0.34839,0.68621c0,0 -1.38579,2.31772 -3.71819,0.88493c-2.33238,-1.43279 -0.9466,-3.75049 -0.9466,-3.75049l0.98251,-1.53966c0.94547,-0.97858 1.69047,-2.20249 2.83641,-2.93573c0.86903,-0.55608 2.0496,-0.39117 2.99884,-0.79805c0.37563,-0.16099 0.75946,-0.32778 1.1506,-0.49761c-5.02864,-4.9956 -5.74109,-12.69878 -10.55366,-17.84639c-0.75224,-0.80459 -1.90567,-1.09457 -2.84814,-1.65988c-1.39987,-0.8397 -3.80123,-2.5499 -5.46339,-2.85085c-3.47083,-0.6284 -7.57295,1.93379 -10.51685,3.14864c-1.9938,0.82275 -4.43145,0.63344 -6.20679,1.85363c-1.80925,1.24351 -2.86777,4.17257 -4.13421,5.94331l1.65441,0.91053c0,0 2.01531,1.85952 0.19902,3.85121c-1.27381,1.3968 -2.64548,0.89944 -3.35123,0.4777c-1.1546,1.18464 -2.88575,0.4779 -2.88575,0.4779c-0.71509,-0.4515 -1.36244,-1.64097 -2.14532,-1.35445c-1.20622,0.44147 -1.545,2.05394 -2.39407,3.01587c-1.14901,1.3017 -2.46792,2.44681 -3.5943,3.76841c-3.2583,3.82308 -7.71001,9.47925 -9.08403,14.47491c-0.385,1.3998 1.54073,2.50088 2.33195,3.73825c0.3331,0.52091 0.21173,1.38105 0.74068,1.69862c0.55143,0.33106 1.27473,-0.19909 1.90739,-0.10881c1.64751,0.23518 3.26796,0.63948 4.89353,1.01472c0.1425,-0.03117 0.28296,-0.06616 0.42027,-0.10692c0,0 1.57792,-0.37554 2.60015,0.68829l0.83833,0.06948c0,0 2.70592,0.24502 2.50949,2.95881c-0.1964,2.71378 -2.90232,2.46877 -2.90232,2.46877l-1.67676,-0.16126c-0.51402,-0.09023 -1.02674,-0.18791 -1.5386,-0.29052c-3.98811,2.01831 -1.58535,10.01576 -0.70264,13.51304c0.08164,0.32344 0.97321,4.20005 1.34675,4.62695c1.54483,1.76545 4.05901,2.33083 6.05354,3.55608l1.11999,0.68803c0,0 2.3324,1.43277 0.9466,3.75049c-1.38579,2.31772 -3.7182,0.88493 -3.7182,0.88493z"/><path d="M152.27746,213.01898l0.72185,-0.60488c0,0 2.15292,-1.61982 3.80381,0.57128c1.65091,2.1911 -0.50201,3.81088 -0.50201,3.81088l-2.04653,1.23849c0.20878,2.79403 0.3359,8.68941 2.18066,10.63877c0.6068,0.64123 5.94196,2.95706 6.18775,3.02181c1.19523,0.31478 2.45406,0.23568 3.68348,0.3093c0.65402,0.03918 1.45461,0.433 1.96379,0.02889c1.18615,-0.94138 1.57167,-2.63556 2.65479,-3.69434c1.26434,-1.23594 2.86662,-2.06941 4.29991,-3.10413c0,0 2.19253,-1.5659 3.79044,0.66404c1.59792,2.22994 -0.59461,3.79584 -0.59461,3.79584c-1.23941,0.87415 -2.61936,1.57681 -3.7182,2.62245c-1.42357,1.35465 -2.11766,3.48711 -3.78882,4.52123c-1.67774,1.03818 -7.96868,0.54404 -9.54537,0.13569c-1.82464,-0.47256 -7.67789,-3.26069 -9.03765,-4.80944c-2.89504,-3.29745 -3.33129,-9.6968 -3.05788,-14.43598l-1.96768,-0.17972c-6.32984,-1.1089 -12.51597,-1.23682 -17.57222,-6.03609c-0.7763,-0.73684 -1.07673,-1.86192 -1.75767,-2.68824c-0.87119,-1.0572 -2.35351,-1.67015 -2.87587,-2.93461c-0.58726,-1.42155 -0.04074,-3.06575 -0.23128,-4.58655c-0.14557,-1.16182 -0.32441,-2.32371 -0.46751,-3.48733c-2.55422,-0.6489 -4.92774,-1.75868 -7.14219,-3.85767c-0.76623,-0.72625 -1.02659,-1.86599 -1.72911,-2.65449c-0.9838,-1.10423 -2.54659,-1.69691 -3.28757,-2.97632c-3.09789,-5.34895 2.49813,-11.12798 5.16449,-15.37233c1.14119,-1.81656 1.83809,-4.03871 3.47946,-5.41329c0.18289,-0.15316 0.38013,-0.27963 0.58846,-0.3855c-0.13851,-1.52826 0.78878,-3.06178 1.34571,-4.50998c1.42782,-3.7127 5.50049,-9.77024 9.05351,-11.29107c1.41354,-0.60505 3.08003,0.33893 4.61998,0.50939c2.79432,0.30931 5.47013,1.60636 7.90255,3.05468c0,0 2.33238,1.43279 0.94659,3.75051c-1.38579,2.31772 -3.71819,0.88493 -3.71819,0.88493c-1.74187,-1.11415 -3.72591,-1.92213 -5.74832,-2.2876c-0.79086,-0.14292 -1.58481,-1.03211 -2.3109,-0.7048c-1.42589,0.64279 -3.55623,4.69893 -4.29158,5.93185c-0.5081,0.85192 -1.00294,1.71247 -1.53843,2.54701c-0.27314,0.42569 -1.01492,0.75157 -0.95086,1.22211c0.46207,0.10469 0.9595,0.33678 1.35197,0.81566c0.11791,0.04748 0.22771,0.10364 0.32122,0.17597c0.8847,0.68409 1.64485,1.5177 2.46727,2.27652l1.8095,1.05003c0,0 2.3324,1.43277 0.9466,3.75049c-1.38579,2.31772 -3.7182,0.88493 -3.7182,0.88493l-2.67051,-1.70203c-0.37881,-0.34953 -1.19084,-1.08086 -2.08878,-1.92073c-0.40486,0.0232 -0.78047,0.10644 -1.06854,0.36904c-1.81837,1.65776 -2.35203,4.3397 -3.61753,6.45625c-1.26553,2.11656 -3.08743,3.93005 -3.97263,6.23813c-0.51541,1.34391 2.07985,2.04675 3.06305,3.12418c0.61194,0.67056 0.77225,1.6877 1.41998,2.32347c1.21697,1.19444 2.53779,1.88997 3.93637,2.32125c0.40014,-0.38797 0.99654,-0.6725 1.88545,-0.66066c1.34972,0.018 2.03084,0.70138 2.37458,1.38364c0.50333,0.04612 1.0124,0.08821 1.52627,0.13474l0.91967,-0.36315c0,0 2.62917,-0.62573 3.2985,2.02627c0.66935,2.652 -1.95981,3.27773 -1.95981,3.27773l-2.6512,0.4867c-0.1189,-0.01076 -0.23746,-0.02165 -0.3557,-0.03271c0.09889,0.67582 0.19177,1.3521 0.24881,2.03017c0.08543,1.0153 -0.57777,2.09206 -0.19852,3.0422c0.32344,0.81036 1.48041,0.9634 2.05866,1.61844c0.59118,0.66968 0.75357,1.66467 1.39141,2.28973c3.9279,3.84913 9.45317,3.61643 14.42039,4.48662l2.79315,0.25056c0,0 0.8493,0.0769 1.56173,0.62171z"/></g><g stroke="none" stroke-width="0.5"><g data-paper-data="{&quot;index&quot;:null}" fill="#de0000"><path d="M304.2263,111.8283c4.34632,-0.74138 11.50045,-2.52313 15.90003,-0.86515c3.37367,1.27136 6.41015,3.523 8.93164,6.09982c5.10676,5.21878 4.10149,7.76058 6.08993,13.71016c2.78691,8.33872 7.10416,17.25231 4.47581,26.42567c-1.63485,5.70586 -4.81818,10.03242 -9.30313,12.90742c1.18422,1.43798 2.24617,3.47986 4.05884,6.33873c1.27573,2.01202 3.08425,3.8333 3.64232,6.1494c3.41403,14.16893 -4.89382,22.63186 -14.05635,30.84953c4.8721,0.22189 10.30973,1.46588 13.12828,4.28443c6.77812,6.77812 5.17491,21.22801 -0.6966,27.76013c-0.34764,0.38675 -9.70518,5.03256 -11.71467,6.03731c-2.78181,1.15068 -6.81701,3.16442 -10.50139,3.73793c0.17033,0.46114 0.30369,0.93718 0.3921,1.43132c2.64641,14.78951 -17.65599,25.71686 -29.79749,24.0632c-1.96703,-0.2679 -3.61328,-1.67954 -5.51623,-2.245c-2.12685,-0.63199 -4.52493,-0.36452 -6.52164,-1.33202c-1.66056,-0.80462 -2.46689,-2.81962 -4.03928,-3.78525c-2.0746,-1.27405 -5.0445,-1.07639 -6.73304,-2.83026c-0.11314,-0.11753 -0.21995,-0.23917 -0.32102,-0.36452c-1.41344,2.02385 -3.53194,2.96433 -5.19564,3.40137c0.43719,2.31473 0.15919,6.49602 -0.40625,7.571c-2.74146,5.21175 -13.10016,12.36228 -19.13698,13.36124c-3.74072,0.61901 -8.01059,1.89069 -11.3739,0.14018c-0.29087,-0.15139 -9.81327,-12.64995 -11.79684,-15.35155c-1.22486,-1.66824 -1.61008,-4.55577 -3.62145,-5.04329c-1.34293,-0.32551 -2.65844,0.76621 -3.95088,1.2551c-3.19416,1.20827 -6.63215,1.67467 -9.84933,2.82027c-1.96574,0.69998 -3.48566,2.45728 -5.50632,2.97788c-3.01105,0.77575 -11.90278,0.06658 -14.82637,-0.08736c-5.70875,-3.48718 -19.86875,-8.99372 -21.09055,-16.99128c-0.63337,0.09612 -1.34787,-0.03579 -1.99246,-0.02505c-4.53262,0.07557 -9.43504,3.56004 -13.50869,1.57114c-10.01641,-4.89035 -13.53751,-18.61887 -11.4,-28.17586c0.96513,-4.31522 3.89192,-6.14877 3.1541,-10.80304c-0.45768,-2.88706 -1.04474,-5.78312 -2.06214,-8.52348c-1.01007,-2.72061 -3.93444,-5.05566 -3.58014,-7.93604c1.43721,-11.68401 12.64901,-15.40669 21.88482,-18.81673c-0.6315,-1.25403 -0.98712,-2.67086 -0.98712,-4.17073v-2.47878c-1.12996,-1.13834 -2.15731,-2.36777 -3.106,-3.66285l-0.42164,0.63247l-4.05971,-2.70647c-2.56004,-1.65333 -4.25468,-4.53172 -4.25468,-7.80593c0,-0.89303 0.12605,-1.7566 0.36137,-2.57391c-3.78026,1.93606 -8.04643,3.66907 -9.4448,3.4968c-8.49494,-1.04647 -15.76775,-8.06446 -16.6868,-16.68682c-0.44077,-4.13514 3.90218,-7.38067 5.27098,-11.30752c0.85231,-2.44514 -0.40265,-5.16862 -0.39843,-7.75805c0.01508,-9.26087 0.62688,-17.23884 8.47011,-23.17809c-0.08594,-4.43241 -0.42054,-8.68184 1.25165,-13.01507c0.77534,-2.00917 2.75941,-3.36508 3.67231,-5.31561c0.91748,-1.96027 0.64857,-4.3875 1.74299,-6.25477c0.64328,-1.09753 1.42464,-2.1417 2.30404,-3.13724c0.12519,-2.00919 0.365,-3.99858 0.73981,-5.96094c0.67455,-3.53183 1.14613,-7.41981 3.36604,-10.2484c3.67052,-4.67697 11.50219,-6.28725 16.99537,-6.26168c4.66286,0.02172 9.31589,1.26025 13.73661,3.29838c8.8277,-1.29319 17.64615,0.74773 25.07164,8.68244c0.99329,1.06142 3.13467,4.41018 4.91535,7.56548c1.04285,-0.76558 2.28576,-1.37243 3.03917,-2.40123c1.64844,-2.25094 1.56635,-5.82399 3.84427,-7.43494c11.05136,-7.81549 31.76418,0.08474 38.54812,10.34008c3.02447,4.57213 4.15127,8.57426 4.32497,12.85904c0.29894,1.33569 0.55368,2.68674 0.7911,4.03137c8.30718,-7.41666 23.42855,-7.63019 33.04075,-2.23841c7.36347,-0.60685 14.32952,2.20467 18.13007,10.97994c0.99045,2.28688 0.11301,4.92012 -0.22499,7.45739c2.0483,-1.70091 4.65951,-2.85936 6.80841,-4.46332zM270.12523,210.19281c-0.32372,0.17352 -0.65894,0.32839 -1.00421,0.4632c0.41207,0.02312 0.7178,-0.03107 0.86006,-0.22874c0.04627,-0.06428 0.09438,-0.14282 0.14413,-0.23446z"/><path d="M175.86405,205.55994h-2.22942c-0.52858,0 -13.89261,0.08796 -14.8447,-0.23825c-3.29364,-1.12846 -7.11547,-5.30757 -9.61773,-7.80985c-6.44104,-6.44104 -13.84341,-14.03677 -14.3371,-23.33527c-1.93082,0.85065 -3.69917,2.40985 -5.78889,2.40089c-2.2952,-0.00984 -4.24095,-1.75688 -6.36078,-2.63687c-4.22567,-1.75416 -9.14856,-2.82804 -11.18642,-7.76906c-1.37071,-3.32345 -1.25787,-7.08825 -1.57784,-10.66901c-0.98021,-10.96955 0.56012,-23.13933 3.45936,-33.68179c1.04504,-3.80003 0.90611,-8.38441 3.59867,-11.26232c1.15658,-1.2362 2.83983,-1.57884 4.62093,-1.7554c-1.8327,-6.68904 -3.04022,-13.53888 -0.02627,-20.36665c1.69127,-3.83138 5.72377,-6.14396 8.18344,-9.53364c4.37232,-6.0255 9.01288,-14.14413 16.41251,-17.13396c4.3113,-1.74199 9.53891,-1.52736 14.08827,-1.48906c2.59536,0.02183 5.28297,-0.5578 7.78522,0.13144c11.42879,3.14806 19.58147,14.68309 31.02547,16.67938c0,0 1.85767,0.37154 2.96238,1.82658c3.78615,-4.6828 8.25297,-8.9402 13.83787,-10.66597c2.1704,-0.67066 4.54142,-0.13756 6.81286,-0.16847c1.62294,-0.02207 12.81109,0.00095 13.3285,0.12419c8.72939,2.0791 15.12539,13.65908 15.81008,22.04763c3.274,-0.25926 6.69988,0.11296 9.87628,0.12238c5.17211,0.01536 10.25991,1.35669 15.34374,2.30836c10.68199,1.99963 21.39921,1.01725 26.79484,12.70118c0.37933,0.8214 0.60765,1.69347 0.77655,2.58544c3.39848,-1.14451 7.37687,-1.45853 12.16318,-0.85172c2.54318,0.32241 5.35952,0.31924 7.49003,1.74494c4.6544,3.11465 8.58962,11.00446 11.91459,15.35385c2.02513,2.64908 4.91293,4.66829 6.50972,7.59559c4.03366,7.39458 2.95791,16.48115 2.79458,24.51423c-0.0725,3.56602 1.01437,7.40033 -0.35341,10.69439c-0.91588,2.20576 -2.21642,3.88812 -3.75588,5.23969c2.66411,5.24786 2.98423,12.19532 2.99457,17.50724c0.00295,1.51416 0.06458,11.92686 -0.26171,12.68389c-1.31803,3.05791 -3.54802,5.811 -6.18438,7.84512c-0.60907,0.46994 -1.29359,0.797 -2.01699,1.05228c1.27266,0.37846 2.49189,0.8486 3.51815,1.66435c1.80235,1.43267 2.40771,3.93487 3.39928,6.01281c3.86065,8.09029 7.39741,22.04002 0.18583,29.76001c-1.46942,1.573 -3.75638,2.10466 -5.66547,3.09911c-2.42242,1.26186 -10.51874,5.47228 -13.46016,5.97993c-2.26695,0.39125 -4.76331,0.4994 -7.32547,0.4823c0.02245,4.31583 -0.15497,9.40212 -1.57497,12.45755c-6.04151,12.99972 -22.925,15.35568 -35.45126,15.01168c-3.25945,-0.08951 -6.8495,1.00725 -9.77224,-0.43832c-3.2062,-1.58576 -4.86536,-5.24676 -7.20051,-7.95628c-5.12875,-5.95096 -8.10792,-8.82619 -9.87409,-16.51714l-0.09016,-4.25466c0,0 0,-4.64278 4.64278,-4.64278c4.64278,0 4.64278,4.64278 4.64278,4.64278l-0.09015,2.43362c0.91196,5.97296 4.11453,7.44256 7.96129,12.46535c1.35891,1.77436 1.95514,4.40583 3.9466,5.42023c1.73762,0.88511 3.88512,-0.36308 5.83372,-0.43834c8.30834,-0.32082 22.79178,0.04605 26.97253,-9.51194c0.6796,-1.55372 0.80075,-5.65573 0.78833,-9.00306c-1.11023,-0.04011 -2.19418,-0.06721 -3.23722,-0.06721h-3.34413c0,0 -4.64278,0 -4.64278,-4.64278c0,-4.64278 4.64278,-4.64278 4.64278,-4.64278h3.34413c2.23556,0 4.5263,0.05405 6.83413,0.07452c0.29811,-0.04838 0.62041,-0.07452 0.96885,-0.07452c0.36554,0 0.7023,0.02877 1.01255,0.08181c8.37776,-0.02126 16.83697,-0.81068 23.57228,-6.52494c1.68046,-1.42572 0.8733,-5.45219 0.86958,-6.74945c-0.01229,-4.29058 -1.2522,-8.58175 -2.91318,-12.5378c-0.39899,-0.95032 -0.20384,-2.33036 -1.05955,-2.90488c-1.55332,-1.0429 -3.66959,-0.79485 -5.42303,-1.44745c-2.33061,-0.86743 -4.30741,-1.54357 -6.27561,-2.0318c-2.82479,0.83338 -5.75508,1.2554 -9.78305,1.2705h-4.45885c0,0 -4.64278,0 -4.64278,-4.64278c0,-4.64278 4.64278,-4.64278 4.64278,-4.64278h1.49141c1.23515,-2.22942 4.08214,-2.22942 4.08214,-2.22942c3.03625,0.00806 5.71732,0.1992 8.30137,0.63247c1.47792,-0.61809 3.10445,-1.42504 5.36456,-2.43714c3.62497,-1.62331 7.19576,-0.63727 8.70607,-5.12176c1.02282,-3.03702 -0.26849,-6.4057 -0.26171,-9.61031c0.00405,-1.91894 0.20161,-9.23115 -1.5222,-13.10528c-1.42794,0.59011 -2.87037,1.15288 -4.26798,1.7667c0,0 -4.26737,1.82888 -6.09625,-2.4385c-0.33461,-0.78077 -0.46515,-1.47991 -0.4551,-2.10114c-0.42046,-0.52848 -0.75872,-1.2308 -0.94484,-2.16134c-0.91053,-4.55261 3.6421,-5.46313 3.6421,-5.46313c2.5037,-0.36328 5.06899,-1.75061 7.51109,-1.08985c0.59093,0.15989 1.15141,0.35171 1.68305,0.57295c0.93817,-0.69862 1.64691,-1.4632 1.91826,-2.28074c0.75072,-2.26191 -0.29252,-4.75852 -0.35341,-7.14099c-0.15791,-6.17906 1.67693,-14.40364 -1.66425,-20.0742c-1.44997,-2.46085 -3.97063,-4.12228 -5.71942,-6.3806c-0.66224,-0.85519 -7.54934,-11.70683 -9.2976,-13.02899c-0.90756,-0.68637 -8.04783,-0.49721 -8.44402,-0.47356c-7.8644,0.46939 -9.5272,4.01207 -12.89717,10.82175l0.49014,1.26783c0,0 0,4.64278 -4.64278,4.64278c-4.64278,0 -4.64278,-4.64278 -4.64278,-4.64278l0.49014,-5.42045c1.89578,-3.75888 3.91863,-6.93501 6.25871,-9.45309c-0.23338,-1.4772 -0.19724,-3.03295 -0.77095,-4.41095c-3.2299,-7.7578 -13.56169,-6.15012 -20.02301,-7.36361c-7.39573,-1.38896 -11.85553,-2.05984 -19.2123,-2.15049c-1.84658,-0.02275 -5.20173,-0.83783 -6.87787,0.99315c-3.36368,3.67439 -2.99065,8.77408 -2.9706,13.31416v3.34413c0,0 0,4.64278 -4.64278,4.64278c-4.64278,0 -4.64278,-4.64278 -4.64278,-4.64278v-3.34413c0.02223,-5.93359 0.15923,-11.97777 3.37262,-16.9981c-0.17057,-1.37618 0.30358,-2.56154 0.30358,-2.56154c0.63264,-1.30764 2.00465,-2.47421 1.89793,-3.92293c-0.25116,-3.40951 -4.48192,-12.68447 -8.68632,-13.24314c-3.57852,-0.4755 -12.02421,-1.04247 -15.52937,-0.04426c-2.66761,0.75969 -5.0363,3.64469 -6.87407,5.49688c-5.01965,5.05908 -11.03258,10.65632 -12.10685,17.69238l0.09015,1.3189c0,0 0,4.64278 -4.64278,4.64278c-4.64278,0 -4.64278,-4.64278 -4.64278,-4.64278l0.09016,-3.13994c0.52463,-2.28458 0.54386,-4.74815 1.5739,-6.85376c0.78114,-1.59679 2.64338,-2.41769 3.67114,-3.86807c0.40671,-0.57395 0.82033,-1.1637 1.24191,-1.76454c-11.66935,-2.79315 -19.41191,-13.43754 -30.89905,-16.64781c-1.79549,-0.50178 -3.72713,0.11146 -5.5913,0.13146c-2.76888,0.02969 -7.75356,-0.31468 -10.43537,0.74036c-5.59996,2.20307 -9.34164,9.64869 -12.56996,14.07793c-2.18645,2.99977 -5.90006,4.91628 -7.42252,8.30172c-1.55152,3.45014 -0.54289,8.69399 -0.84527,12.42799l3.20113,-0.15497c0,0 4.55261,0.91053 3.6421,5.46313c-0.63857,3.19281 -3.06845,3.69862 -4.46304,3.71594c-0.64973,2.7747 -3.78515,3.29726 -3.78515,3.29726c-1.43407,-0.01786 -3.41189,-1.17793 -4.30221,-0.05355c-1.37175,1.73236 -0.46139,4.39963 -0.86016,6.57304c-0.53966,2.94115 -1.46303,5.8058 -1.95242,8.75574c-1.4157,8.53343 -2.97314,20.82653 -0.62492,29.38207c0.65799,2.39729 4.41996,2.27732 6.64895,3.37804c0.93837,0.46337 1.51041,1.83277 2.5569,1.82198c1.09097,-0.01126 1.68248,-1.43893 2.68214,-1.876c2.6032,-1.13819 5.31426,-2.00429 8.00742,-2.91752c0.18034,-0.17395 0.35435,-0.35161 0.51876,-0.5349c0,0 1.97031,-1.97033 4.38453,-1.3317l1.28094,-0.65268c0,0 4.15262,-2.07632 6.22892,2.0763c2.07632,4.15262 -2.07632,6.22894 -2.07632,6.22894l-2.58145,1.2728c-0.82686,0.33043 -1.65833,0.64875 -2.49281,0.95908c-4.04915,6.54618 6.4104,16.10042 10.73973,20.42974c0.40039,0.40039 5.07282,5.27745 5.98822,5.56668c3.78577,1.19618 7.93811,-0.23825 11.90835,-0.23825h2.22942c0,0 4.64278,0 4.64278,4.64278c0,4.64278 -4.64278,4.64278 -4.64278,4.64278z"/><path d="M212.27329,267.61136l0.52436,-1.53585c0,0 1.72429,-4.3107 6.03499,-2.58642c4.3107,1.72428 2.58642,6.03497 2.58642,6.03497l-1.90136,3.65633c2.73606,3.9055 8.05287,12.42814 12.43536,13.6238c1.44156,0.39331 11.22454,-1.0154 11.63873,-1.14177c2.01408,-0.61452 3.77785,-1.86334 5.63174,-2.86193c0.98625,-0.53123 2.49457,-0.67477 2.88411,-1.72509c0.90743,-2.44669 -0.00607,-5.27571 0.64913,-7.80166c0.76483,-2.94862 2.37194,-5.61171 3.55791,-8.41755c0,0 1.82886,-4.26737 6.09625,-2.43849c4.26738,1.82888 2.4385,6.09625 2.4385,6.09625c-1.04345,2.39614 -2.44084,4.66751 -3.13035,7.18839c-0.89328,3.26584 -0.04757,7.01472 -1.58029,10.03372c-1.5388,3.03095 -11.12749,7.96876 -13.77836,8.78951c-3.06772,0.94982 -14.01604,2.13291 -17.34374,1.08764c-7.08497,-2.22547 -13.29052,-11.20828 -17.01778,-18.39745l-3.02104,1.50759c-10.18044,4.07217 -19.29776,9.45214 -30.8364,6.97152c-1.77159,-0.38086 -3.18827,-1.75875 -4.8989,-2.35653c-2.18856,-0.7648 -4.88012,-0.32876 -6.74126,-1.71112c-2.09238,-1.55411 -2.72794,-4.45485 -4.32913,-6.51142c-1.22325,-1.57114 -2.49496,-3.1124 -3.71622,-4.68839c-4.28336,1.34808 -8.70484,1.85833 -13.75581,0.7762c-1.74766,-0.37443 -3.11881,-1.80985 -4.8279,-2.33281c-2.39344,-0.73236 -5.18452,-0.19415 -7.37695,-1.4017c-9.16605,-5.04846 -6.04968,-18.55139 -5.86247,-27.16929c0.08012,-3.68843 -0.8396,-7.57117 0.35341,-11.06225c0.13293,-0.38899 0.31,-0.75179 0.52111,-1.09441c-1.53193,-2.11433 -1.51682,-5.19554 -1.96663,-7.81851c-1.15313,-6.72433 -0.49684,-19.2643 3.3519,-24.69009c1.53121,-2.15863 4.77904,-2.27546 7.16931,-3.41164c4.33732,-2.06168 9.36186,-2.56963 14.16376,-2.63687c0,0 4.64278,0 4.64278,4.64278c0,4.64278 -4.64278,4.64278 -4.64278,4.64278c-3.50569,-0.06464 -7.09744,0.53724 -10.35988,1.82198c-1.27577,0.50238 -3.20565,-0.08581 -3.9778,1.04721c-1.51633,2.22501 -1.08702,10.08477 -1.08435,12.55285c0.00185,1.70538 0.03054,3.41151 -0.0226,5.11607c-0.0271,0.8695 -0.82334,2.01451 -0.32047,2.6462c0.76386,-0.26248 1.69005,-0.37009 2.67824,-0.02175c0.21298,-0.03658 0.42169,-0.05309 0.62085,-0.0313c1.88342,0.20599 3.71572,0.74315 5.57355,1.1147l3.54832,-0.09016c0,0 4.64278,0 4.64278,4.64278c0,4.64278 -4.64278,4.64278 -4.64278,4.64278l-5.36938,-0.09015c-0.85573,-0.17113 -2.67452,-0.51177 -4.71284,-0.9341c-0.56924,0.39838 -1.0436,0.85834 -1.23437,1.50232c-1.20425,4.06519 0.35341,8.47471 0.35341,12.71452c0,4.23981 -1.07381,8.53637 -0.35341,12.71452c0.41946,2.43277 4.80958,1.12675 7.1788,1.82036c1.47457,0.4317 2.59336,1.77758 4.08978,2.12605c2.81146,0.65469 5.33978,0.48494 7.75129,-0.14191c0.24484,-0.92853 0.86542,-1.88213 2.16985,-2.66479c1.98062,-1.18837 3.56708,-0.80017 4.66137,-0.10996c0.77292,-0.38545 1.55067,-0.78194 2.33927,-1.17623l1.02279,-1.35972c0,0 3.28294,-3.28294 6.56587,0c3.28294,3.28294 0,6.56586 0,6.56586l-3.43604,3.09911c-0.18248,0.09125 -0.36455,0.18198 -0.54629,0.27217c0.73226,0.90111 1.45612,1.80832 2.12944,2.75039c1.00816,1.41059 0.97996,3.58496 2.35913,4.63569c1.17626,0.89615 2.99384,0.07909 4.40585,0.51833c1.44358,0.44906 2.54609,1.76062 4.0188,2.10232c9.06889,2.10417 16.91024,-3.20945 24.89913,-6.40501l4.28446,-2.14672c0,0 1.30337,-0.65168 2.8148,-0.49468z"/></g><g data-paper-data="{&quot;index&quot;:null}" fill="#ffa100"><path d="M207.25832,176.91262l-1.88334,-4.86266c0,-1.88756 -0.05008,-13.66567 0.1992,-14.58061c3.11786,-11.44331 18.68564,-16.88189 29.0241,-12.76774c5.85902,2.33156 9.88692,6.27127 12.8694,11.22781c5.01765,-2.22374 11.29511,-1.90615 15.9345,1.08443c7.60861,4.90459 13.83251,17.94142 13.95056,26.79002c0.08307,6.22697 -1.77196,11.14384 -9.09359,12.37392c-2.47771,0.41627 -4.75299,-1.63048 -7.12948,-2.44572c0,0 -4.26738,-1.82886 -2.4385,-6.09625c1.82888,-4.26738 6.09627,-2.4385 6.09627,-2.4385c5.70338,3.77031 3.29703,-3.54487 2.12567,-7.49965c-1.27522,-4.30543 -10.95099,-20.11112 -17.27871,-12.23197c-1.95072,2.42898 -2.30049,4.9466 -3.1094,7.85973l0.17864,2.20748c0,0 0,4.64278 -4.64278,4.64278c-4.64278,0 -4.64278,-4.64278 -4.64278,-4.64278l0.17864,-4.75841c0.88433,-3.02663 1.46643,-5.82478 2.88858,-8.42646c-1.91808,-3.93787 -4.70352,-7.16195 -9.07317,-8.92464c-5.28622,-2.13241 -15.58488,0.27589 -16.95082,6.73676c-0.8199,3.8781 0.1992,7.926 0.1992,11.8898l0.90304,0.71004c0,0 2.07632,4.15262 -2.07632,6.22892c-4.15262,2.07632 -6.22894,-2.07632 -6.22894,-2.07632z"/><path d="M224.16326,206.03437l-4.50513,2.55038c-0.99199,0.39229 -2.71923,0.14148 -2.97592,1.17686c-0.22969,0.92644 1.6702,1.01657 2.24275,1.78026c1.91716,2.55725 0.84757,4.22849 4.00153,4.75078c5.05775,0.83758 10.65212,-1.65765 13.47797,-5.41955c0,0 1.90583,-2.28701 4.49663,-1.67222v-0.23168c0,0 0,-4.64278 4.64278,-4.64278c4.64278,0 4.64278,4.64278 4.64278,4.64278v5.57272c-0.18313,1.59173 -0.81201,3.19461 -0.54936,4.77517c0.34776,2.09271 4.23403,0.33875 6.35543,0.33431c1.43219,-0.003 2.93378,0.63187 4.29278,0.17992c1.86984,-0.62183 3.13063,-2.46514 4.93821,-3.24978c1.88817,-0.81963 4.15606,-0.56309 5.99158,-1.4947c3.76023,-1.90849 -2.11024,-12.99942 -3.1785,-14.8683c-1.32864,-2.32437 -3.70721,-4.14373 -6.21046,-5.09329c0,0 -4.26738,-1.82888 -2.4385,-6.09627c1.82888,-4.26738 6.09625,-2.43849 6.09625,-2.43849c4.15818,1.91246 8.09807,4.94729 10.50768,8.83849c2.73301,4.41345 6.89587,13.82626 5.45906,19.28689c-0.75029,2.85152 -2.19227,5.75329 -4.45803,7.64018c-2.14695,1.78794 -5.39468,1.53313 -7.94021,2.68484c-2.1971,0.99407 -3.89633,3.02673 -6.20721,3.71612c-2.18965,0.65322 -4.56766,0.18296 -6.85265,0.17991c-5.40254,-0.0072 -11.2594,0.99449 -14.54225,-5.23841c-0.66403,-1.26072 -0.78871,-2.67208 -0.75104,-4.12877c-9.22793,7.70148 -23.54425,9.16711 -29.83655,-3.42098c-1.28762,-2.57595 -3.96858,-5.16385 -3.32995,-7.97198c0.7299,-3.2095 4.51754,-4.78814 6.77632,-7.18222l5.24713,-3.02234c0,0 4.03105,-2.30346 6.33451,1.72759c2.30346,4.03105 -1.72759,6.33451 -1.72759,6.33451z"/><path d="M196.78256,180.87226l-5.52008,-0.04488c-2.39908,-0.80614 -5.27957,-0.76673 -7.19721,-2.41842c-6.68973,-5.76202 -4.13219,-18.08594 2.93036,-22.32924c5.52991,-3.32246 18.26578,1.16014 23.45784,3.34376c0,0 4.26738,1.82886 2.4385,6.09625c-1.82888,4.26738 -6.09627,2.4385 -6.09627,2.4385c-4.54779,-1.99516 -8.27145,-2.30788 -13.12863,-3.11924c-0.81346,-0.13588 -1.69142,-0.88449 -2.42256,-0.50288c-3.76217,1.96361 -1.92988,6.82949 1.30587,7.29546l4.23218,-0.04488c0,0 4.64278,0 4.64278,4.64278c0,4.64278 -4.64278,4.64278 -4.64278,4.64278z"/><path d="M211.64506,208.04748c-3.98887,0.04308 -7.41976,0.14013 -11.39184,-1.90453c-8.47142,-4.36075 -13.07417,-16.62363 -13.07549,-25.88158l-1.92201,-5.76604c-0.35281,-0.9813 -0.54504,-2.03918 -0.54504,-3.14197c0,-5.12826 4.15727,-9.28554 9.28554,-9.28554c1.55958,0 3.02934,0.38448 4.3197,1.06384l3.43401,1.717c0.71808,0.19482 1.85387,0.41909 2.52581,0.73614c0.83072,-2.17162 1.4681,-4.60377 3.16569,-6.17432c2.0226,-1.87126 4.48902,-3.40417 7.12146,-4.28805c0.79358,-0.9398 1.55457,-1.88647 2.12424,-2.87355l7.10016,-3.13902c0,0 5.6885,-1.42213 9.15483,2.51421c0.17038,0.01373 0.33135,0.03434 0.48203,0.06216c3.9062,0.7209 7.36598,3.19092 10.50615,5.62349c1.16686,0.90391 1.08477,2.77117 1.91012,3.99483c0.66016,0.97876 2.14201,0.65834 3.43693,0.6783l4.85928,-0.53992c0.37985,-0.04732 0.76683,-0.0717 1.1595,-0.0717c4.13189,0 7.63346,2.69878 8.83811,6.42978c1.3692,1.6374 2.09628,3.9222 3.29638,5.72871c5.03059,7.57244 6.90656,14.57062 4.54391,23.72899c-0.32191,1.24778 -0.76274,2.45897 -1.29271,3.63676c1.81287,0.12117 3.8107,0.90321 5.80855,2.90104c6.56587,6.56587 0,13.13175 0,13.13175c-5.78562,5.62245 -17.05476,16.00106 -26.30787,7.64313c-1.82726,-1.65047 -2.95539,-3.90829 -3.6668,-6.37055c-4.68027,3.85787 -12.70035,6.93811 -17.76999,6.92647c-3.9363,-0.00904 -8.63153,1.32098 -11.76063,-1.0672c-3.19027,-2.43487 -3.31261,-7.3499 -4.34811,-11.22728c-0.41557,-1.55608 -0.73768,-3.15595 -0.9919,-4.78536z"/></g><path d="M237.01124,197.71869c-1.03935,-0.61341 -1.9488,-1.42353 -2.67708,-2.37916c-8.1994,4.91965 -24.41273,-1.43392 -24.53276,-11.71785c-0.05022,-4.30267 -0.62935,-16.07792 6.01321,-17.73855c6.90606,-1.72651 22.58698,-2.08536 30.09431,-0.20853c8.18162,2.04541 10.75392,19.44793 7.4551,25.63322c-1.9219,3.60356 -12.34765,13.41983 -16.35276,6.41088z" data-paper-data="{&quot;index&quot;:null}" fill="#ffac1d"/><path d="M199.29653,190.68723l0.08621,0.28451c0.9816,1.40417 1.96319,2.80836 2.9448,4.21255c4.22777,5.89976 7.70226,2.29412 13.26624,7.99223c2.75112,2.81743 2.36672,10.16136 6.64404,11.88153c6.60505,2.65632 13.80716,-3.68898 20.6267,-0.79472c1.76048,0.74717 2.03839,3.39096 3.64172,4.43353c3.48052,2.26323 9.80718,-4.08629 11.96235,-4.40806c2.06221,-0.3079 3.94693,1.48328 6.02123,1.69472c3.41773,0.34837 6.8459,-4.73624 8.59031,-6.71474c0,0 3.08448,-3.47005 6.55453,-0.38557c3.47005,3.08448 0.38557,6.55455 0.38557,6.55455c-4.31173,4.81731 -8.59806,9.82366 -15.78805,9.82773c-1.59135,0.0009 -2.8459,-1.97151 -4.42663,-1.7879c-1.33936,0.15557 -1.8291,2.08543 -3.05058,2.65644c-4.08769,1.9109 -10.38848,2.66523 -14.58935,0.7714c-1.64502,-0.7416 -1.80708,-3.29503 -3.32351,-4.273c-2.25704,-1.45564 -5.2025,1.41203 -7.86941,1.72943c-2.03411,0.24208 -10.6249,0.06406 -12.42471,-0.78284c-7.34528,-3.45629 -5.7126,-9.3457 -9.89841,-14.23813c-1.3203,-1.54317 -7.80868,-2.12962 -8.46203,-2.56477c-2.21103,-1.4726 -3.50803,-3.99031 -5.26204,-5.98546c-1.04994,-1.498 -2.09985,-2.996 -3.14978,-4.49401l-0.78444,-1.45681c0,0 -2.07632,-4.15262 2.07632,-6.22892c4.15262,-2.07632 6.22892,2.0763 6.22892,2.0763z" data-paper-data="{&quot;index&quot;:null}" fill="#ef9700"/><path d="M124.64664,110.09372l-4.38907,-4.5504c-2.69154,-7.6861 -2.66504,-16.76673 2.85631,-23.56709c2.38183,-2.93358 5.12993,-4.13419 8.18893,-5.2367c1.54774,-3.38236 4.11461,-6.35858 7.02372,-8.67245c2.22507,-1.76979 6.45016,-6.24694 8.99847,-7.18497c14.19647,-5.22566 27.84976,4.03386 40.06328,9.2018c5.02502,2.12625 8.06403,2.77507 11.07136,5.12691c1.14971,-2.10626 2.51327,-4.11011 4.39963,-5.48059c7.14532,-5.19124 21.41959,-4.58882 29.62765,-3.00067c2.28548,0.44221 4.6966,0.72087 6.73592,1.84339c8.54491,4.70345 11.75286,14.44636 11.9325,23.19455c0,0 0,4.64278 -4.64278,4.64278c-4.64278,0 -4.64278,-4.64278 -4.64278,-4.64278c0.05616,-1.90864 0.55278,-3.85555 0.16847,-5.72594c-0.2368,-1.1524 -1.24871,-1.99715 -1.94951,-2.9421c-1.67496,-2.25851 -2.97624,-5.09275 -5.44088,-6.44624c-3.39908,-1.86667 -9.79499,-1.13417 -13.3843,-1.13867c-3.46636,-0.00435 -9.74962,-0.5527 -12.93931,1.72271c-1.23345,0.87991 -3.3764,5.72816 -3.8038,6.59403l-1.56885,1.44595c-0.30238,0.39701 -0.70352,0.78528 -1.22728,1.15191c-1.34465,0.94125 -2.54669,1.07438 -3.53888,0.85312c-1.00474,-0.15459 -2.07614,-0.71559 -2.9866,-2.08127c-0.03848,-0.05771 -0.0755,-0.11513 -0.11114,-0.17227c-3.52454,-5.29338 -5.18473,-3.79891 -11.34259,-6.40381c-9.56745,-4.04725 -21.75109,-13.10655 -33.07177,-9.08196c-2.79241,0.99272 -4.31046,4.08604 -6.67333,5.87486c-1.31594,0.99624 -2.65145,2.17507 -3.51668,3.58828c0.67497,2.60407 -0.84705,4.11673 -1.9482,4.84003c-0.13803,0.34319 -1.71023,4.00118 -5.5744,2.82495c-4.93153,3.45517 -6.56205,8.93685 -3.97667,15.699l1.70553,0.67355c0,0 3.52505,3.02147 0.50358,6.54653c-3.02147,3.52505 -6.54653,0.50358 -6.54653,0.50358z" data-paper-data="{&quot;index&quot;:null}" fill="#bf0000"/><path d="M330.0174,203.94151l4.387,-2.40376c6.91873,-2.73334 12.75285,-10.98926 10.00567,-19.05988c-1.23075,-3.61568 -5.49138,-7.73498 -8.13456,-10.82794c-0.52008,-0.44422 -0.99035,-1.07958 -1.34883,-1.97578c-0.06378,-0.15943 -0.1193,-0.31532 -0.16708,-0.46772c-0.23053,-0.69987 -0.35723,-1.5631 -0.1154,-2.46751c0.2355,-0.90608 0.7713,-1.59464 1.31691,-2.0899c0.11671,-0.10903 0.24187,-0.2173 0.37596,-0.32457c0.88536,-0.70831 1.72749,-1.02739 2.49469,-1.10515c10.06763,-7.67319 -1.29216,-23.73488 -5.83503,-31.76882c-1.34321,-2.37544 -2.92847,-4.80857 -5.19664,-6.32591c0,0 -3.75478,-2.73075 -1.02402,-6.48552c2.73075,-3.75478 6.48552,-1.02402 6.48552,-1.02402c9.93914,7.61887 17.0413,22.03255 18.00393,34.72279c0.37114,4.89257 1.29967,9.28327 -1.61764,13.8076c-0.81163,1.25872 -2.04183,2.15172 -3.28854,3.03031c2.78426,3.24736 5.69699,6.83339 6.85979,10.3658c4.23885,12.87702 -3.97078,25.69158 -15.24334,30.56749l-3.4489,1.94951c0,0 -4.05852,2.25473 -6.31323,-1.80378c-2.25473,-4.05852 1.80378,-6.31323 1.80378,-6.31323z" data-paper-data="{&quot;index&quot;:null}" fill="#bf0000"/><path d="M340.74305,195.13987l0.22567,0.39032c2.61131,-6.34771 0.38602,-14.97367 -1.42192,-21.57013c0,0 -1.22159,-4.47918 3.25759,-5.70077c4.47918,-1.22159 5.70077,3.25759 5.70077,3.25759c2.42448,8.92987 4.13287,18.40109 1.19004,27.18658l-2.38628,3.00229c0,0 -3.28294,3.28294 -6.56587,0c-3.28294,-3.28294 0,-6.56587 0,-6.56587z" data-paper-data="{&quot;index&quot;:null}" fill="#bf0000"/><path d="M142.90459,197.40632l-1.92126,-0.13863c-7.66108,1.79497 -15.143,6.4538 -13.10374,15.544c0.42728,1.9046 1.65948,3.55979 2.13354,5.45329c1.38694,5.53958 0.22772,7.12995 5.53778,9.82157c0.95536,0.34994 2.03808,1.04878 2.55238,2.44444c0.38783,0.79834 0.56704,1.80363 0.19372,3.00358c-0.24687,1.2322 -0.88558,2.0289 -1.60835,2.54406c-0.39269,0.3433 -0.80572,0.5779 -1.21993,0.73136c-3.9566,4.31847 -2.36672,6.96688 -1.08905,12.85727c1.01168,4.66416 1.86602,12.32504 6.8392,15.2077c3.99506,2.31572 11.73341,-0.30611 16.6347,-1.19276l-0.002,-0.83091c0,0 0,-4.64278 4.64278,-4.64278c4.64278,0 4.64278,4.64278 4.64278,4.64278l-0.01353,4.86992c0.53936,4.9721 4.78908,9.86949 9.82638,11.59782c2.85484,0.97953 6.03389,-0.22739 9.05206,-0.21478c7.45791,0.03115 15.26237,-2.32386 22.52221,-4.33096l1.04042,-2.7435c0,0 2.57535,-3.86302 6.43837,-1.28767c3.48211,2.32141 1.73295,5.68907 1.35415,6.33063c1.92768,12.50498 15.75002,17.19324 27.06441,12.78462c1.43141,-0.55775 6.81368,-2.53792 7.90313,-3.68653c1.22041,-1.28669 1.32487,-3.37405 2.51652,-4.68739c0.99447,-1.09602 2.32075,-1.81566 3.59927,-2.58947c-0.62111,-1.94503 -1.09396,-3.91271 -1.59093,-5.62534c0,0 -1.27547,-4.46412 3.18867,-5.7396c4.46414,-1.27547 5.7396,3.18867 5.7396,3.18867c0.08486,0.30258 1.80972,7.5491 2.97132,8.68657c1.81487,1.77716 4.95336,1.18007 7.47645,1.47352c10.23144,1.19001 17.42375,-0.05409 26.04553,-5.7824c1.74537,-1.15962 5.7129,-3.46788 6.80642,-5.38971c1.64774,-2.89582 1.63121,-6.4671 2.68292,-9.62854l0.72257,-3.79562c0,0 0.91053,-4.55261 5.46313,-3.6421c4.55261,0.91053 3.64208,5.46314 3.64208,5.46314l-1.01874,4.91093c-1.24331,3.72196 -1.38199,7.90873 -3.41168,11.26717c-2.44449,4.0448 -6.04061,6.07 -9.73602,8.54077c-10.34178,6.91456 -20.01671,8.78751 -32.28839,7.27743c-3.26339,-0.40158 -8.65904,-0.99641 -11.74952,-3.11767c-1.64152,1.66987 -2.69239,4.01803 -4.39971,5.66051c-1.83469,1.76502 -4.26088,2.80287 -6.51631,3.98372c-16.01642,8.3855 -36.2354,3.49188 -42.66091,-12.57428c-13.16068,3.641 -29.46155,8.28561 -41.22517,0.48207c-3.70571,-2.45823 -7.30932,-4.46992 -9.41196,-8.80974c-0.42621,-0.87969 -0.65132,-1.82471 -0.79468,-2.79628c-6.86585,0.98205 -15.30962,3.67192 -21.62077,0.08958c-7.61622,-4.32312 -9.81622,-13.8846 -11.44458,-21.35982c-0.8128,-3.73128 -2.45958,-7.55629 -1.7892,-11.31576c0.69561,-3.90096 1.28661,-5.52851 2.44476,-7.01185c-0.09725,-0.09273 -0.19172,-0.18893 -0.28308,-0.28893c-3.039,-3.32625 -3.62112,-8.29705 -4.71249,-12.66836c-2.08111,-8.33558 -4.68556,-16.33886 1.99603,-23.80883c4.02914,-4.50453 10.18578,-6.8434 15.7654,-8.30387l4.17334,-0.13861c0,0 4.64278,0 4.64278,4.64278c0,4.64278 -4.64278,4.64278 -4.64278,4.64278z" data-paper-data="{&quot;index&quot;:null}" fill="#bf0000"/><path d="M249.2917,118.44454l5.25597,-2.27165c7.91402,-0.8614 17.73001,-1.76979 24.40412,3.94419c1.05653,0.90453 1.8511,2.05219 2.60445,3.23812l1.95572,-0.22599c2.31949,0.28445 4.79013,-0.01803 6.95846,0.85336c4.47243,1.79734 9.39281,8.1183 12.62116,11.63209c1.61423,1.75696 4.04081,3.11459 4.68439,5.41209c0.74655,2.66514 -0.56989,5.50604 -0.85484,8.25904c0,0 -0.76326,4.57958 -5.34286,3.81632c-4.5796,-0.76326 -3.81634,-5.34286 -3.81634,-5.34286c0.39049,-1.2996 1.46505,-2.57393 1.17146,-3.89878c-0.21171,-0.95544 -1.67221,-1.0344 -2.40768,-1.67996c-4.92976,-4.32721 -7.07986,-9.54532 -13.85441,-9.80391l-0.26965,0.05232c-0.06258,0.04722 -0.1271,0.09412 -0.19358,0.14065c-3.80351,2.66246 -6.46595,-1.14106 -6.46595,-1.14106c-4.65525,-7.1605 -10.74396,-6.98229 -18.81674,-6.27969l-3.86242,1.78093c0,0 -4.24262,1.8856 -6.12822,-2.35701c-1.8856,-4.24262 2.357,-6.12822 2.357,-6.12822z" data-paper-data="{&quot;index&quot;:null}" fill="#bf0000"/><path d="M157.85685,179.71824l-5.91646,-2.80961c-1.46603,-1.82565 -3.55574,-3.29228 -4.39811,-5.4769c-0.80412,-2.08544 -0.26372,-4.46389 -0.29667,-6.69875c-0.11603,-7.86872 0.0305,-17.31662 6.8904,-22.93953c0.97254,-0.79717 2.18833,-1.17351 3.42949,-1.50596c-0.02417,-0.11011 -0.04642,-0.2214 -0.06666,-0.33386c-1.96606,-10.92103 9.6885,-16.33108 17.83275,-19.98937c0,0 0.71231,-0.31657 1.6829,-0.39843c5.33796,-8.09885 15.69815,-8.59498 24.51835,-8.61351c0,0 4.64278,0 4.64278,4.64278c0,4.64278 -4.64278,4.64278 -4.64278,4.64278c-5.00624,-0.01182 -14.4353,-0.85264 -17.12357,5.03218c-0.33223,0.72729 -0.66516,3.78635 -0.86582,5.9124c0.77048,1.11077 1.90033,3.52153 -0.51045,5.93232c-3.28294,3.28294 -6.56586,0 -6.56586,0l-2.34994,-4.75806c0.04145,-0.40813 0.08357,-0.87122 0.12914,-1.37305c-1.32065,0.79081 -2.60904,1.63772 -3.87128,2.51192c-1.48513,1.02858 -4.80971,1.76966 -3.83407,4.34599c0.67251,1.77589 3.39408,3.63448 4.57932,4.62305l-0.03357,-0.37289c0,0 4.40453,1.46818 2.93635,5.87269c-1.46818,4.40453 -5.87269,2.93633 -5.87269,2.93633l-3.07302,-1.38604c-0.51556,-0.45086 -1.05548,-0.90064 -1.60002,-1.35872c-0.29792,0.14592 -0.49583,0.21188 -0.49583,0.21188c-8.25234,2.06963 -9.33701,17.27102 -4.05305,22.42619l2.18876,0.22984c0,0 4.34717,1.63019 2.71698,5.97735c-1.63019,4.34717 -5.97735,2.71698 -5.97735,2.71698z" data-paper-data="{&quot;index&quot;:null}" fill="#bf0000"/><path d="M169.71857,212.80771l1.50331,4.10262c-0.21,3.6225 -0.501,7.81138 4.54149,8.65533c2.61132,0.43705 5.51428,-1.276 7.94001,-0.21493c2.39097,1.04587 3.71909,3.72189 5.11627,5.92606c0.54733,0.86346 -0.34998,2.53639 0.55243,3.01679c0.98762,0.52576 6.95661,-1.78765 7.65317,-2.03132c0,0 4.40451,-1.46818 5.87269,2.93633c1.46818,4.40453 -2.93633,5.87269 -2.93633,5.87269c-5.17663,1.66363 -9.8094,3.86852 -15.64934,1.00813c-2.10572,-1.03138 -2.38778,-4.03751 -3.50019,-6.10157c-0.37674,-0.69905 -0.18273,-2.0297 -0.96263,-2.17916c-2.06082,-0.39489 -4.20499,1.29308 -6.24413,0.79822c-9.65656,-2.34344 -11.37665,-9.37863 -11.66897,-17.68661l-0.52299,0.05c0,0 -2.07632,-4.15262 2.07632,-6.22892c4.15262,-2.07632 6.22892,2.0763 6.22892,2.0763z" data-paper-data="{&quot;index&quot;:null}" fill="#bf0000"/><path d="M293.92715,197.95223l1.84986,-0.27382c4.36554,-4.46914 1.85592,-7.52954 -2.11026,-9.70634l-4.81148,-0.37011c-2.4171,-0.16208 -4.32749,-2.17405 -4.32749,-4.63224c0,-1.42108 0.63847,-2.69306 1.6442,-3.5447l2.88681,-2.47441c1.12311,-2.4316 -1.01519,-2.12098 -3.75521,-2.7049c0,0 -4.44696,-1.33409 -3.11287,-5.78106c1.33409,-4.44696 5.78106,-3.11287 5.78106,-3.11287c5.50187,1.91216 9.82591,1.84854 10.8748,9.47077c0.20983,1.52475 -0.32392,2.99332 -0.95971,4.45418c4.43802,1.44381 8.77238,7.81162 9.52737,11.97109c1.2529,6.90276 -0.95621,7.92259 -4.58709,12.47354l-5.24221,2.76563c0,0 -4.26737,1.82888 -6.09625,-2.4385c-1.82888,-4.26738 2.4385,-6.09625 2.4385,-6.09625z" data-paper-data="{&quot;index&quot;:null}" fill="#bf0000"/><path d="M323.36922,215.18603l1.28205,3.4939c0.33622,2.54404 1.47457,5.10862 1.00863,7.63213c-1.73031,9.3712 -12.47092,13.096 -20.54182,14.73936c-0.14048,0.2667 -0.29782,0.52788 -0.47341,0.78281c-2.13993,3.10666 -14.15599,8.09268 -19.55849,7.85003c-0.24712,0.07649 -0.49424,0.15296 -0.74136,0.22944l-0.37342,-0.37971c-0.17367,-0.04378 -0.33446,-0.09697 -0.48132,-0.16008c-0.34027,-0.14622 -0.5084,-0.39921 -0.56604,-0.72071l-0.389,0.778l-4.97581,-2.48789c-1.5704,-0.74445 -2.65642,-2.3442 -2.65642,-4.1976c0,-2.56412 2.07864,-4.64278 4.64278,-4.64278c0.70736,0 1.37775,0.15819 1.97778,0.44112l3.06005,1.36002c1.03482,-0.15879 2.0548,-0.34796 3.09105,-0.57985c0.30753,-0.14507 0.61504,-0.29013 0.92257,-0.4352c0,0 0.81001,-0.29455 1.85895,-0.28083c1.07973,-0.31363 2.20231,-0.67994 3.39808,-1.11098c1.02856,-0.37077 2.41138,-0.12125 3.14481,-0.93211c1.49847,-1.65666 -0.77323,-4.40114 -1.23629,-6.58645l-0.32356,0.1451c0,0 -2.57535,-3.86302 1.28767,-6.43837c3.86302,-2.57535 6.43837,1.28767 6.43837,1.28767l1.70274,3.18455c0.19819,1.03797 0.45732,2.1666 0.69008,3.33832c4.34017,-0.98963 10.7568,-3.04802 10.95186,-6.76378c0.08106,-1.54412 -0.67845,-3.01714 -1.01767,-4.52571l-0.74426,-1.57187c0,0 -1.72428,-4.31071 2.58642,-6.03499c4.3107,-1.72428 6.03499,2.58642 6.03499,2.58642z" data-paper-data="{&quot;index&quot;:null}" fill="#bf0000"/><path d="M215.29399,252.87723l-0.02305,0.04461c-0.33261,0.69511 -1.2956,1.3746 -0.99782,2.08534c0.23298,0.5561 0.81788,-0.95586 1.38317,-1.16559c1.82823,-0.67827 3.74012,-1.15328 5.66739,-1.45017c2.78674,-0.4293 5.80913,-1.766 8.42803,-0.72122c2.33667,0.93219 3.37587,3.77439 4.6551,5.94061c0.4608,0.78031 -0.33171,2.20419 0.43757,2.68317c0.61883,0.38532 1.04187,-1.10803 1.73638,-1.32957c1.82721,-0.58289 3.77389,-0.68674 5.66083,-1.03013c0,0 4.56788,-0.83052 5.39842,3.73737c0.83052,4.56788 -3.73737,5.3984 -3.73737,5.3984c-1.89471,0.34419 -11.64412,2.27664 -12.86583,1.6929c-2.38407,-1.1391 -3.29244,-4.15547 -4.6282,-6.4352c-0.37127,-0.63364 0.29747,-1.96998 -0.41067,-2.16461c-0.9687,-0.26625 -1.75827,1.00381 -2.71665,1.30509c-3.66962,1.1536 -11.78228,3.38306 -15.2388,0.42371c-2.10004,-1.79798 -1.34066,-5.36413 -2.01097,-8.0462l-0.02303,-0.96855c0,0 0,-4.64278 4.64278,-4.64278c4.64278,0 4.64278,4.64278 4.64278,4.64278z" data-paper-data="{&quot;index&quot;:null}" fill="#bf0000"/></g><path d="M189.70826,131.78143c0.11607,0.00275 0.2189,0.03529 0.29907,0.10083c0.01955,0.01597 0.03723,0.03349 0.0531,0.05243c0.53517,0.26303 0.21171,0.79147 -0.27814,1.20577c-0.38349,0.32433 -0.86901,0.57871 -1.12429,0.58093c-1.96894,0.01713 -3.7826,-0.97078 -6.01577,-0.39187c-0.21767,0.05644 -0.96659,0.94093 -1.0183,0.9946c-0.87087,0.90378 -1.37605,1.45938 -2.49907,2.63939c-0.89856,0.94417 -1.56386,0.50929 -1.38492,-0.37265c0.18587,-0.91594 2.03038,-2.46585 2.72276,-3.07699c0.77811,-0.68677 1.62501,-1.75323 2.54482,-2.12585c0.42752,-0.17319 1.48214,0.06603 1.74017,0.05718c1.73791,-0.05958 3.50199,-0.11258 4.96063,0.33623z" data-paper-data="{&quot;index&quot;:null}" fill="#ff6e3b" stroke="#000000" stroke-width="0"/><path d="M268.71327,130.4921c1.17338,-0.97585 2.82186,-1.60613 4.44872,-2.2203c0.24156,-0.09119 1.12275,-0.71803 1.584,-0.72281c0.99235,-0.01026 2.18459,0.64788 3.16714,0.98211c0.87431,0.29744 3.17338,1.01766 3.69758,1.79142c0.50472,0.74504 0.05815,1.40256 -1.13467,0.87716c-1.49078,-0.65664 -2.17095,-0.97489 -3.32265,-1.47368c-0.0684,-0.02962 -1.10012,-0.55757 -1.32275,-0.52584c-2.2839,0.32556 -3.57737,1.93564 -5.4011,2.67793c-0.23645,0.09625 -0.78248,0.04841 -1.26128,-0.10325c-0.61161,-0.19375 -1.11361,-0.55692 -0.72095,-1.00572c0.00735,-0.02358 0.01692,-0.04657 0.02882,-0.06883c0.04875,-0.09134 0.13115,-0.16097 0.2372,-0.2082z" data-paper-data="{&quot;index&quot;:null}" fill="#ff3b3b" stroke="#000000" stroke-width="0"/><g><path d="M182.32036,151.69027c1.14266,0.10646 2.22648,0.30255 3.21504,0.56799c-2.22259,0.94163 -4.42681,2.47909 -6.61351,2.60276c-1.82693,0.10333 -3.85544,-0.01359 -5.8832,-0.26114c0.42298,-2.06224 4.48941,-3.35612 9.28167,-2.90962z" fill="#f5bc38" stroke="none" stroke-width="NaN"/><path d="M181.40091,151.60459l4.67936,0.43598c-1.65444,0.61767 -3.29869,1.65529 -4.9331,2.28733z" fill="#f5bc38" stroke="none" stroke-width="0"/><path d="M182.13924,140.0336c0.55126,-0.73672 2.27756,-4.58532 3.49415,-5.32364c2.61547,-1.58732 6.40543,-0.85162 9.32935,-1.06363c-0.88831,2.29423 -1.50811,4.65142 -1.75982,7.21812c-0.04851,0.49467 -0.39837,3.94641 -0.28752,4.31669c0.11529,0.38508 1.82605,2.37058 2.25431,2.87878c0.26122,0.49353 1.03902,1.20545 0.60832,1.56084c-0.62079,0.51224 -2.23712,0.37486 -2.87142,0.47537c-1.9391,0.30729 -3.48521,1.17691 -5.40981,1.53787c-2.88884,0.5418 -5.74655,3.06705 -8.57492,3.22701c-1.84748,0.10449 -3.90109,-0.01625 -5.95162,-0.26954c2.20961,-5.22114 5.70741,-9.93173 9.16897,-14.55788z" fill="#db4747" stroke="#000000" stroke-width="0"/><path d="M177.15637,147.10767c1.11009,-0.69757 2.10921,-4.59057 3.00153,-5.97691c3.99823,-6.21181 8.17959,-9.06635 15.38565,-8.89212c-0.80102,1.83207 -1.4411,3.68546 -1.86822,5.63674c-2.12375,0.24685 -4.05971,0.94151 -5.90433,2.52886c-2.37945,2.04758 -6.40745,9.39719 -9.07504,14.4684c-2.08721,0.09671 -4.42226,-0.0843 -6.71137,-0.41289c2.1376,-3.15344 4.87292,-7.1643 5.17177,-7.35209z" fill="#bd2222" stroke="none" stroke-width="0.5"/><path d="M188.07159,139.4313c0,0 -0.64905,0.0747 -0.72377,-0.57436c-0.0747,-0.64905 0.57436,-0.72377 0.57436,-0.72377c0.51246,-0.05778 1.0217,-0.11597 1.52835,-0.17362c-0.11939,-0.45988 0.33652,-0.70605 0.33652,-0.70605c1.3441,-0.72084 2.8129,-1.04055 4.33729,-1.13923c-0.12523,0.43054 -0.24032,0.86491 -0.34467,1.30401c-0.42478,0.045 -0.84267,0.1112 -1.25146,0.20318c0.41142,-0.04235 0.82201,-0.08298 1.23214,-0.12133c-0.10238,0.43698 -0.19411,0.8787 -0.27461,1.326c-1.7834,0.17332 -3.57757,0.38982 -5.41416,0.60516z" fill="#bd2222" stroke="none" stroke-width="0.5"/><path d="M180.48945,134.73903c2.03592,-1.96752 3.44492,-2.78173 5.63592,-2.54297c0.50462,0.05501 1.1504,-0.07556 1.5404,0.19689c0.18062,0.12622 0.28965,0.28115 0.33797,0.45945c0.23047,-0.30013 0.47513,-0.54057 0.73094,-0.60919c1.95512,-0.52443 0.21537,1.95314 -0.57305,2.82098c-4.41695,4.86185 -5.49748,5.78811 -8.47352,8.98609c-0.54935,0.59033 -1.20242,1.05075 -1.56663,1.72806c-0.15624,0.29058 -0.91548,1.58595 -1.34731,1.74782c-0.30589,0.2942 -0.64793,0.41197 -0.90847,0.07036c-0.0221,-0.01209 -0.04299,-0.02609 -0.0625,-0.04205c-0.08017,-0.06553 -0.1293,-0.15721 -0.1493,-0.26569c-0.68346,-1.30207 -0.88867,-2.96488 -1.08327,-4.60412c-0.02889,-0.24338 -0.43411,-1.19741 -0.31666,-1.62408c0.25266,-0.91794 1.23955,-1.86999 1.84071,-2.7014c0.53491,-0.73983 1.87856,-2.69918 2.80616,-3.00882c0.39157,-0.1307 0.7175,-0.0965 0.88833,0.06595c0.24616,-0.23975 0.48226,-0.4666 0.7003,-0.67731z" fill="#ff6e3b" stroke="#000000" stroke-width="0"/><path d="M171.26848,206.3302c-5.75493,-5.16053 -7.64452,-12.84705 -5.15753,-18.86259c1.51947,0.22612 2.85688,-0.42147 4.25535,-0.90512c2.34043,0.38557 4.24144,0.93925 5.43598,2.99051c0.30221,0.51896 -0.99502,2.07247 -1.00372,2.08972c-0.80806,1.60191 -1.60241,3.97566 -1.51357,5.75843c0.10596,2.12633 2.1703,4.31784 2.20814,6.30639c0.01315,0.69069 -2.12447,1.79437 -2.3643,1.9277c-0.54104,0.30078 -1.08531,0.60024 -1.63221,0.89645c-0.0764,-0.06645 -0.15245,-0.13361 -0.22814,-0.20148z" fill="#bd2222" stroke="none" stroke-width="NaN"/><path d="M170.3663,186.56249c2.34043,0.38557 4.24144,0.93925 5.43598,2.99051c0.24511,0.42091 -0.56192,1.52237 -0.88027,1.93276l-5.22248,-4.68308c0.22136,-0.08143 0.44329,-0.1629 0.66677,-0.24019z" fill="#bd2222" stroke="none" stroke-width="0"/><path d="M174.13893,203.09848c-4.71801,-4.23071 -5.7713,-11.02467 -2.94228,-16.38618c1.96008,0.39179 3.55573,1.03781 4.60563,2.8407c0.30221,0.51896 -0.99502,2.07247 -1.00372,2.08972c-0.80806,1.60191 -1.60241,3.97566 -1.51357,5.75843c0.10596,2.12633 2.1703,4.31784 2.20814,6.30639c0.00211,0.11096 -0.05129,0.23257 -0.1434,0.35911c-0.41677,-0.29605 -0.82111,-0.61874 -1.2108,-0.96817z" fill="#db4747" stroke="none" stroke-width="NaN"/><path d="M175.80228,189.553c0.30221,0.51896 -0.99502,2.07247 -1.00372,2.08972c-0.17667,0.35024 -0.35269,0.73737 -0.51896,1.14716c-0.37709,-1.62936 -0.40947,-3.32647 -0.09074,-4.97332c0.62648,0.41709 1.16888,0.97306 1.61342,1.73644z" fill="#bd2222" stroke="none" stroke-width="0"/><path d="M168.54542,193.41404c3.2096,2.58362 2.98574,2.90724 2.98574,2.90724l-0.28656,0.4143c-1.35087,1.89157 -3.10979,3.46858 -4.43638,5.38656c0,0 -0.22385,0.32364 -3.43344,-2.25999c-3.2096,-2.58362 -2.98573,-2.90726 -2.98573,-2.90726c1.32627,-1.91752 3.14338,-3.44938 4.43637,-5.38659l0.28655,-0.41429c0,0 0.22385,-0.32363 3.43345,2.26z" fill="#fc9b2d" stroke="none" stroke-width="0.5"/><path d="M283.17259,140.8228c0.49104,0.38155 1.03954,0.72226 1.59147,1.06776c-3.53845,1.20394 -6.90149,4.23153 -10.59959,3.73299c-4.71002,-0.63497 -4.24876,-5.75157 -7.46471,-7.54135c6.16615,-2.15835 10.61353,-1.81222 16.47283,2.7406z" fill="#db4747" stroke="#000000" stroke-width="0"/><path d="M271.87405,138.10384c-0.6227,-0.19728 -2.92888,1.12542 -3.55141,1.47564c-0.5707,-0.78739 -1.28074,-1.44555 -2.318,-1.80867c-0.77723,-0.27209 -1.64912,-0.10074 -2.47016,-0.03742c-0.36411,0.02808 -0.76647,0.53776 -1.05111,0.30898c-0.3377,-0.27143 -0.02033,-0.88155 -0.16801,-1.28886c-0.13602,-0.37517 -0.29947,-0.73954 -0.47107,-1.10067c1.29736,-0.4773 2.48826,-0.84894 3.27144,-1.11054c2.78147,-0.92908 5.99838,-3.0707 9.02553,-2.61246c1.40709,0.213 4.48211,3.10019 5.27452,3.56787c2.85123,1.68275 5.72413,3.3865 8.41959,5.28119c-0.49565,0.20825 -1.014,0.43235 -1.55282,0.72459c-1.82784,0.2939 -3.59173,1.2542 -5.35858,2.17978c-2.75248,-2.35761 -5.65205,-4.50298 -9.04991,-5.57941z" data-paper-data="{&quot;index&quot;:null}" fill="#bd2222" stroke="#000000" stroke-width="0"/><path d="M274.49509,137.65485c-2.8383,-0.92591 -5.28617,-0.55892 -7.82423,0.4114c-0.20628,-0.11275 -0.42759,-0.21191 -0.66622,-0.29545c-0.77723,-0.27209 -1.64912,-0.10074 -2.47016,-0.03742c-0.36411,0.02808 -0.76647,0.53776 -1.05111,0.30898c-0.3377,-0.27143 -0.02033,-0.88155 -0.16801,-1.28886c-0.22425,-0.61852 -0.52307,-1.20772 -0.80998,-1.80137c1.71371,-0.9159 3.4248,-1.83668 5.13312,-2.76253c0.0661,-0.02458 0.13166,-0.04939 0.19663,-0.07445c5.3255,-1.59319 9.72911,-0.3319 14.96586,3.27891c1.35731,0.93589 3.77833,4.14405 5.07143,4.36043c0.11741,0.01964 0.65801,0.33391 1.44524,0.82189c-0.63872,0.27052 -1.31882,0.53858 -2.03511,0.92708c-1.25472,0.20175 -2.47931,0.71751 -3.69541,1.32051c-3.16082,-2.42134 -6.28184,-4.57861 -8.09204,-5.16913z" data-paper-data="{&quot;index&quot;:null}" fill="#bd2222" stroke="none" stroke-width="0.5"/><path d="M276.8499,136.41946c0.01601,0.65314 -0.63715,0.66917 -0.63715,0.66917l-0.26564,0.00425c-2.95524,0.31175 -5.5656,1.03771 -8.29762,1.70016c-0.44631,-0.43333 -0.97794,-0.78876 -1.64485,-1.02222c-0.35438,-0.12406 -0.72843,-0.15593 -1.10838,-0.14789c3.1038,-1.39587 6.27112,-2.70001 9.33583,-3.95819l0.06742,-0.03948c0,0 0.57704,-0.30642 0.88345,0.27062c0.30641,0.57704 -0.27063,0.88346 -0.27063,0.88346l-0.18529,0.09472c-0.2984,0.12172 -0.5978,0.24398 -0.89802,0.3668c0.15537,0.06962 0.30676,0.21291 0.34458,0.5037c0.01374,0.10556 0.00802,0.19615 -0.01115,0.27387c0.5388,-0.08683 1.08596,-0.16274 1.64426,-0.22471l0.374,-0.01143c0,0 0.65315,-0.016 0.66916,0.63715z" fill="#bd2222" stroke="none" stroke-width="0.5"/><path d="M278.36008,129.6721c0.28235,0.11052 0.58762,0.22897 0.90711,0.35546c0.09512,-0.2157 0.38274,-0.37276 0.79445,-0.40291c0.97531,-0.0714 2.96977,1.21954 3.7483,1.69638c0.87493,0.53585 2.15231,1.03452 2.73892,1.78441c0.27269,0.34855 0.26603,1.38506 0.33307,1.6208c0.45156,1.58778 0.90242,3.2014 0.77298,4.66625c0.02331,0.10781 0.01326,0.21134 -0.03549,0.30269c-0.01186,0.02224 -0.02576,0.04321 -0.04149,0.06288c-0.10893,0.4156 -0.46994,0.43859 -0.86552,0.28485c-0.46086,0.01689 -1.66032,-0.8863 -1.91639,-1.09431c-0.59692,-0.48486 -1.37692,-0.65832 -2.11122,-0.99163c-3.97791,-1.80555 -5.33178,-2.24437 -11.28017,-5.03071c-1.06179,-0.49736 -3.62135,-2.11407 -1.61504,-2.38285c0.26251,-0.03517 0.58088,0.09254 0.90914,0.28079c-0.02403,-0.18315 0.01691,-0.36813 0.13501,-0.55416c0.25503,-0.4016 0.90132,-0.52977 1.34585,-0.77483c1.93016,-1.06396 3.54402,-0.85502 6.18053,0.17692z" fill="#ff3b3b" stroke="#000000" stroke-width="0"/><path d="M304.29984,211.00317c-0.59808,-0.52149 -1.51107,-1.06876 -1.74969,-1.921c-0.72863,-2.60243 0.93732,-3.6274 1.10544,-6.08568c0.12409,-1.81446 -3.20025,-6.3665 -1.38786,-7.8988c0.03732,-0.03155 0.71583,-0.21824 1.37053,-0.39346c5.339,3.69712 7.78385,11.12525 5.73619,18.4344l-0.89689,0.22461c0,0 -0.14623,0.07251 -0.3183,0.21792c-1.36511,-0.63349 -2.64534,-1.51939 -3.85943,-2.57801z" fill="#bd2222" stroke="none" stroke-width="NaN"/><path d="M302.55015,209.08217c-0.68895,-2.46072 0.76298,-3.51109 1.06528,-5.69634c0.87369,2.34261 1.10617,4.93869 0.56068,7.51245c-0.59327,-0.49104 -1.40328,-1.02077 -1.62596,-1.8161z" fill="#db4747" stroke="none" stroke-width="NaN"/><path d="M312.01655,205.2039c-1.2514,3.93442 -1.62643,3.8249 -1.62643,3.8249l-0.48008,-0.14021c-2.20679,-0.68107 -4.26722,-1.85775 -6.48978,-2.50683c0,0 -0.37504,-0.10951 0.87635,-4.04394c1.2514,-3.93442 1.62643,-3.8249 1.62643,-3.8249c2.22202,0.6489 4.26131,1.89638 6.48978,2.50683l0.48009,0.14019c0,0 0.37503,0.10951 -0.87638,4.04393z" fill="#fcbb71" stroke="none" stroke-width="0.5"/><path d="M258.89085,230.87013c0.28023,-0.21451 0.71888,0.02269 1.0554,-0.0836c0.48449,-0.15303 0.86414,-0.58887 1.36388,-0.68055c2.83896,-0.52081 3.95745,3.19045 6.26212,3.9661c0.68106,0.22922 1.43,-0.14367 2.14499,-0.2155c0.67506,0.26356 1.27061,0.70622 1.79427,1.24937c-4.3647,1.44412 -9.34949,0.60412 -13.52258,-2.15009c0.18017,-0.91045 0.43854,-1.73103 0.90192,-2.08573z" fill="#e0a00b" stroke="none" stroke-width="NaN"/><path d="M259.29463,242.93747c-0.2703,-0.77196 0.23051,-1.74797 -0.19595,-2.4459c-0.5606,-0.91745 -2.53958,-0.49683 -2.83999,-1.52918c-0.29852,-1.02589 0.88337,-1.95221 1.19543,-2.97406c0.38989,-1.27672 0.41295,-4.33453 1.43674,-5.1182c0.28023,-0.21451 0.71888,0.02269 1.0554,-0.0836c0.48449,-0.15303 0.86414,-0.58887 1.36388,-0.68055c2.83896,-0.52081 3.95745,3.19045 6.26212,3.9661c0.68106,0.22922 1.43,-0.14367 2.14499,-0.2155c0.80306,0.31354 1.49358,0.88051 2.08442,1.56862l-12.15197,8.30248c-0.14501,-0.271 -0.26589,-0.53551 -0.35508,-0.79022z" fill="#db4747" stroke="none" stroke-width="0"/><path d="M258.89085,230.87013c0.28023,-0.21451 0.71888,0.02269 1.0554,-0.0836c0.48449,-0.15303 0.86414,-0.58887 1.36388,-0.68055c2.74918,-0.50435 3.88499,2.95996 6.04695,3.88393c-3.09094,1.38809 -6.52125,1.52841 -9.62432,0.54642c0.20781,-1.3995 0.42961,-3.10857 1.1581,-3.6662z" fill="#ffb80e" stroke="none" stroke-width="NaN"/><path d="M256.25869,238.96239c-0.29852,-1.02589 0.88337,-1.95221 1.19543,-2.97406c0.38989,-1.27672 0.41295,-4.33453 1.43674,-5.1182c0.28023,-0.21451 0.71888,0.02269 1.0554,-0.0836c0.48449,-0.15303 0.86414,-0.58887 1.36388,-0.68055c2.7556,-0.50552 3.89028,2.97614 6.0621,3.89036l-8.84383,6.04229c-0.80785,-0.3481 -2.03802,-0.28003 -2.26971,-1.07624z" fill="#ffb80e" stroke="none" stroke-width="0"/><path d="M267.24733,234.38133c-4.42263,3.02164 -8.81177,4.65982 -11.03574,4.28904c-0.03316,-0.91208 0.96033,-1.758 1.24252,-2.68205c0.34488,-1.12931 0.40274,-3.65218 1.12004,-4.76205c0.15008,-0.14217 0.30385,-0.28468 0.46118,-0.42736c0.27252,-0.0766 0.62785,0.07702 0.91091,-0.01239c0.48449,-0.15303 0.86414,-0.58887 1.36388,-0.68055c2.83896,-0.52081 3.95745,3.19045 6.26212,3.9661c0.02815,0.00947 0.05641,0.01792 0.08479,0.0254c-0.13528,0.09504 -0.27186,0.18968 -0.4097,0.28386z" fill="#f3ae0c" stroke="none" stroke-width="NaN"/><path d="M267.36538,234.23038l-8.64344,5.90538c-0.78798,-0.46275 -2.21213,-0.31038 -2.46326,-1.17338c-0.29852,-1.02589 0.88337,-1.95221 1.19543,-2.97406c0.38989,-1.27672 0.41295,-4.33453 1.43674,-5.1182c0.28023,-0.21451 0.71888,0.02269 1.0554,-0.0836c0.48449,-0.15303 0.86414,-0.58887 1.36388,-0.68055c2.64947,-0.48605 3.80048,2.71387 5.81562,3.77367z" fill="#db4747" stroke="none" stroke-width="0"/><path d="M263.45998,234.60795c-1.94346,1.32782 -4.14027,2.00232 -6.33049,2.07241c0.13514,-0.22721 0.25287,-0.4571 0.32462,-0.69204c0.38989,-1.27672 0.41295,-4.33453 1.43674,-5.1182c0.28023,-0.21451 0.71888,0.02269 1.0554,-0.0836c0.48449,-0.15303 0.86414,-0.58887 1.36388,-0.68055c1.94148,-0.35617 3.07834,1.26691 4.3402,2.5768c-0.63471,0.71368 -1.36608,1.36202 -2.19035,1.92518z" fill="#bd2222" stroke="none" stroke-width="0"/><path d="M261.33471,230.66484c-0.9427,0.64408 -1.98726,1.02549 -3.04705,1.16053c0.15247,-0.41887 0.34634,-0.75863 0.60319,-0.95524c0.28023,-0.21451 0.71888,0.02269 1.0554,-0.0836c0.48449,-0.15303 0.86414,-0.58887 1.36388,-0.68055c0.27608,-0.05065 0.5359,-0.06127 0.78211,-0.03847c-0.23527,0.21333 -0.48791,0.41312 -0.75754,0.59733z" fill="#bd2222" stroke="none" stroke-width="0"/><path d="M259.29463,242.93747c-0.22783,-0.6507 0.0922,-1.44638 -0.05704,-2.09829l10.14409,-6.93066c0.11243,-0.02233 0.22441,-0.04077 0.33557,-0.05194c1.46827,0.57325 2.56037,1.99372 3.3548,3.45279l-12.16219,8.30947c-0.70009,-0.92129 -1.32524,-1.85315 -1.61523,-2.68136z" fill="#7e1717" stroke="none" stroke-width="0"/><path d="M185.60194,236.63562c1.57124,-0.30573 3.19521,-0.71051 4.78854,-0.77084c-3.036,1.84224 -6.5377,2.61797 -9.97392,2.00512c1.68928,-0.30327 3.67906,-0.94119 5.18538,-1.23428z" fill="#e0a00b" stroke="none" stroke-width="NaN"/><path d="M185.60194,236.63562c3.20106,-0.62285 6.62097,-1.65685 9.55476,0.64828c0.88024,0.69162 0.95797,2.05624 1.69362,2.90003c0.92596,1.06207 2.03202,1.95943 2.94272,3.03461c0.11852,0.13427 0.60604,0.6911 1.12391,1.27327l-20.74386,-6.58023c1.73869,-0.28228 3.8495,-0.96865 5.42885,-1.27595z" fill="#db4747" stroke="none" stroke-width="0"/><path d="M195.15669,237.28391c0.5711,0.44872 0.80438,1.18072 1.09871,1.86998l-8.99865,-2.85449c2.69959,-0.54232 5.46693,-0.92715 7.89994,0.98451z" fill="#ffb80e" stroke="none" stroke-width="0"/><path d="M195.15669,237.28391c0.08804,0.06917 0.16805,0.14509 0.2415,0.22653c-2.17073,0.17636 -5.20665,-0.20224 -8.49119,-1.13999c2.80941,-0.5758 5.71149,-1.08086 8.24969,0.91346z" fill="#f3ae0c" stroke="none" stroke-width="NaN"/><path d="M195.15669,237.28391c0.63553,0.49935 0.85273,1.34952 1.20125,2.1012l-9.4829,-3.0081c2.81935,-0.57849 5.73382,-1.09498 8.28165,0.9069z" fill="#db4747" stroke="none" stroke-width="0"/><path d="M177.52186,237.50753c0.54944,-0.00069 1.01404,0.54701 1.56298,0.52353c1.71848,-0.07354 4.15817,-0.87503 6.03902,-1.29506l12.07231,3.8295c0.84677,0.90185 1.79714,1.70889 2.59686,2.65304c0.26385,0.29892 2.35645,2.69198 2.54146,2.79686c1.62255,0.91987 5.50307,0.7905 5.72871,3.12726l-32.86423,-10.42498c0.77311,-0.45416 1.44912,-1.20907 2.32289,-1.21016z" fill="#7e1717" stroke="none" stroke-width="0"/><path d="M248.03675,181.22854c0.13325,-0.74363 -0.21765,-1.49518 -0.32647,-2.24278c-0.37534,-0.88188 -1.23943,-1.63759 -1.23612,-2.59602c0.00643,-1.8661 2.12178,-4.1977 2.97913,-5.7025c0.00973,-0.01708 0.01942,-0.0341 0.02908,-0.05105c2.37715,-0.30428 4.84511,0.00598 6.94223,0.81141c0.91825,0.70153 1.48205,1.56772 2.16333,2.40354c0.45286,1.70441 1.79262,1.21066 2.55762,2.60716c0.41856,0.76407 -1.68593,4.67377 -1.76672,5.02964c-0.47666,2.09972 0.23985,5.03659 1.35696,6.81545c0.10702,0.17042 0.21891,0.33437 0.33533,0.4923c0.00477,0.10116 0.01365,0.20228 0.0269,0.30337c0.15877,1.21118 1.53521,1.9158 2.12545,2.98527c0.95607,1.73232 -2.41738,5.00018 -3.53002,5.88325c-6.05857,3.69648 -8.58464,-4.67567 -11.99686,-7.62946c-0.82517,-0.71431 -4.77165,-2.12699 -4.7306,-3.55725c0.02447,-0.85243 0.5297,-1.63877 0.91038,-2.43464c1.95396,0.16712 3.6242,-0.12544 4.16036,-3.1177z" fill="#db4747" stroke="#000000" stroke-width="0"/><path d="M254.51508,174.1977c-2.00234,-0.87423 -2.45845,-2.35463 -1.90799,-3.61877c1.33522,0.11794 2.63529,0.41462 3.81751,0.86867c0.91825,0.70153 1.48205,1.56772 2.16333,2.40354c0.45286,1.70441 1.79262,1.21066 2.55762,2.60716c0.06824,0.12457 0.06942,0.33275 0.02324,0.5955c-1.91798,-0.82593 -3.75421,-1.59016 -6.65371,-2.85609z" data-paper-data="{&quot;index&quot;:null}" fill="#db4747" stroke="#000000" stroke-width="0"/><path d="M260.00969,195.32052c0.37954,-0.95912 1.56023,-1.50194 3.18693,-1.61508c-0.51339,1.33835 -1.92702,2.85069 -2.89,3.73344c-0.42236,-0.76342 -0.54443,-1.49291 -0.29693,-2.11836z" fill="#f5bc38" stroke="none" stroke-width="NaN"/><path d="M259.69346,197.96758c-0.59036,0.36019 -1.14718,0.6058 -1.67455,0.75299l-5.35829,-2.12039c-1.7963,-1.99736 -3.27109,-4.79658 -4.96401,-6.26206c-0.82517,-0.71431 -4.77165,-2.12699 -4.7306,-3.55725c0.02209,-0.76948 0.43592,-1.48509 0.79626,-2.20249l19.56218,7.74116c0.565,1.77775 -2.5669,4.8035 -3.63099,5.64803z" fill="#c74040" stroke="none" stroke-width="0"/><path d="M256.2221,172.68545c-1.46376,0.63374 -3.07619,-0.85979 -4.56946,-1.4204c-0.62893,-0.23611 -1.2411,-0.46104 -1.84072,-0.66705c2.27454,-0.2364 4.61231,0.08134 6.61269,0.84961c0.29991,0.22913 0.56201,0.47582 0.80274,0.73328c-0.28807,0.17228 -0.62251,0.33886 -1.00524,0.50456z" fill="#e0a00b" stroke="none" stroke-width="0.5"/><path d="M256.0638,172.24046c-0.16544,-0.38212 -0.29519,-0.73194 -0.38734,-1.05427c0.25393,0.08027 0.50356,0.16747 0.74814,0.26141c0.89575,0.68434 1.4542,1.52537 2.11344,2.34204c-1.06348,-0.28307 -2.07666,-0.63088 -2.47425,-1.54918z" data-paper-data="{&quot;index&quot;:null}" fill="#e0a00b" stroke="none" stroke-width="0.5"/><path d="M256.18034,173.34479c-2.35571,-0.9322 -4.6871,-1.60714 -7.03858,-2.15193c0.11533,-0.17682 0.22051,-0.34588 0.31152,-0.50561c0.00973,-0.01708 0.01943,-0.0341 0.02908,-0.05105c2.09483,-0.26815 4.26018,-0.05905 6.18012,0.54559c0.17863,0.06274 0.35661,0.12309 0.53392,0.18066c0.07653,0.02774 0.1526,0.05613 0.22819,0.08516c0.91825,0.70153 1.48205,1.56772 2.16333,2.40353c0.05071,0.19086 0.11255,0.35416 0.18345,0.49563c-0.85853,-0.32936 -1.72364,-0.65873 -2.59103,-1.00198z" fill="#bd2222" stroke="none" stroke-width="0.5"/><g fill="#cfcfcf" stroke="none" stroke-width="0.5"><path d="M258.12288,183.3078c0.13306,-0.07279 0.25158,-0.14833 0.35659,-0.22633c0.00758,1.42868 0.28091,2.89346 0.72457,4.26912l0.63189,1.2975c0,0 0.01684,0.03369 0.05053,0.08772c-0.00555,0.07276 -0.01687,0.13992 -0.03476,0.20068c-0.44242,1.50204 -1.6906,2.09565 -3.0943,1.65843c0.01711,0.09803 0.0046,0.18 -0.0791,0.22815c-0.54045,0.31089 -1.24207,0.25618 -1.86139,0.18414c-0.48163,-0.05601 -1.11006,-1.29697 -1.20102,-0.82071c-0.38706,2.02659 -3.41531,2.14321 -4.35255,0.0634c-0.2973,-0.65975 -0.11855,-2.12615 -0.07035,-3.04904c-1.20787,-0.45783 -2.30835,-0.95055 -2.9629,-2.23917l-0.00003,0.00002c-0.041,-0.08071 -0.07889,-0.16477 -0.11374,-0.25186c0.74281,-0.35211 1.3107,-0.86782 1.71503,-1.48696c0.02919,0.36533 0.09948,0.68582 0.21475,0.92433c0.40877,0.84582 1.59706,1.09804 2.3748,1.38851c0,0 0.63066,0.2365 0.65974,0.83921c0.11353,0.24112 0.11353,0.4752 0.11353,0.4752c0,0.25908 -0.18329,2.87696 0.06464,2.92496c0.28597,0.05537 0.72138,0.23441 0.8737,-0.01387c0.20488,-0.33392 -0.08283,-0.95879 0.2614,-1.14586c0.56235,-0.30559 1.28746,-0.13918 1.91966,-0.03939c0.43669,0.06893 0.87693,1.03369 1.13981,0.67823c0.25912,-0.35037 0.13806,-1.06803 0.55868,-1.18195c0.62728,-0.16988 2.01488,1.15341 1.87963,0.51776c-0.286,-1.34434 -0.89824,-2.42046 -0.90796,-3.90806v-0.12754c0,0 0,-0.83953 0.77109,-0.9764zM256.63517,190.18395c0.00317,-0.17721 0.02539,-0.32273 -0.00543,-0.21957c-0.01964,0.06577 -0.01285,0.1411 0.00543,0.21957z"/><path d="M257.59933,178.94401c-2.25057,-1.20755 -6.18419,-1.36965 -8.48219,0.17246c-0.20493,0.13752 -0.38938,0.3532 -0.55062,0.62103c-0.08105,-0.75252 -0.29221,-1.51218 -0.62385,-2.22806c0.0074,-0.00532 0.01481,-0.01059 0.02224,-0.01581c3.03843,-2.13704 7.95259,-1.76229 10.90378,-0.08262c0.284,0.33103 0.55903,0.67512 0.81366,1.0277c-0.41749,0.66312 -0.71503,1.3841 -0.90977,2.14045c-0.31298,-0.56099 -0.76343,-1.12207 -1.17325,-1.63514z"/><path d="M252.68686,183.45676c0.08562,0.21583 0.09678,0.49359 -0.09331,0.82623c-0.49373,0.86404 -1.35778,0.3703 -1.35778,0.3703c-0.13603,-0.07794 -0.34149,-0.19072 -0.57315,-0.32345c-0.0415,-0.01964 -0.08006,-0.04218 -0.11586,-0.06683c-0.61526,-0.35738 -1.35695,-0.83071 -1.48767,-1.16626c-0.53575,-1.37511 -0.04246,-3.07335 1.75002,-3.10816c1.95065,-0.03787 2.71336,2.27387 1.87774,3.46815z"/><path d="M255.94097,179.37783c1.7925,0.0348 2.28577,1.73303 1.75003,3.10816c-0.13074,0.33554 -0.87242,0.80888 -1.48768,1.16626c-0.03579,0.02466 -0.07436,0.04719 -0.11585,0.06682c-0.23165,0.13274 -0.43712,0.2455 -0.57315,0.32345c0,0 -0.86404,0.49374 -1.35778,-0.3703c-0.19008,-0.33264 -0.17893,-0.61038 -0.09331,-0.82623c-0.83565,-1.19429 -0.07291,-3.50603 1.87772,-3.46815z" data-paper-data="{&quot;index&quot;:null}"/></g></g></g></g></svg>