<svg version="1.1" xmlns="http://www.w3.org/2000/svg" xmlns:xlink="http://www.w3.org/1999/xlink" width="159.0909" height="437.27272" viewBox="0,0,159.0909,437.27272"><g transform="translate(-167.95455,1.81818)"><g data-paper-data="{&quot;isPaintingLayer&quot;:true}" fill-rule="nonzero" stroke-linejoin="miter" stroke-miterlimit="10" stroke-dasharray="" stroke-dashoffset="0" style="mix-blend-mode: normal"><path d="M170.45455,432.95454v-432.27272h154.0909v432.27272z" fill="none" stroke="#ffffff" stroke-width="5" stroke-linecap="butt"/><g fill="#ffffff" stroke="none" stroke-width="0.5" stroke-linecap="butt"><path d="M272.37113,108.22749c12.17097,-3.65852 6.51644,-14.75244 2.10469,-23.53749c-10.49405,-8.8578 -31.00533,-14.09024 -44.81042,-8.53697c-6.76123,2.7198 -12.89701,18.52664 -11.23513,25.27046c1.20849,4.90434 7.17835,7.55417 10.94605,9.94807c0,0 3.05413,1.94621 2.53601,5.14901c0.32873,1.39476 0.06811,2.62607 0.06811,2.62607c-0.28846,1.36281 -4.16738,14.92943 -2.91664,15.45799c1.4426,0.60966 3.53361,2.03621 4.61132,0.89986c1.44949,-1.52838 0.6318,-5.13567 2.65083,-5.73645c3.29836,-0.98136 6.92731,0.70136 10.14174,1.93018c2.22038,0.8488 3.46194,6.41386 5.24054,4.83671c1.75313,-1.55453 1.91538,-5.46439 4.25482,-5.59531c3.48879,-0.19517 9.31455,8.31061 9.31086,4.81636c-0.00763,-7.39 -2.02999,-13.73233 -0.42482,-21.56826l0.142,-0.6709c0,0 0.93473,-4.41609 5.14326,-4.27755zM207.97061,103.68579c-3.16557,-11.83313 6.37981,-32.6188 17.44071,-37.35234c18.36225,-7.85833 43.79469,-0.41558 57.44853,11.70578c8.29379,15.16445 13.23705,33.51567 -7.2183,40.37796l-0.58981,0.28485c-0.26619,6.43921 2.23926,17.18183 0.14639,21.05854c-3.99964,7.40845 -11.22628,9.14133 -18.12327,5.27851c-0.01916,0.53472 -0.17622,0.95195 -0.67011,1.11206c-3.18907,1.03361 -6.81883,-0.03536 -9.99637,-1.10386c-2.47111,-0.83091 -4.39511,-8.05836 -5.40384,-5.65435c-4.29245,10.22939 -20.35165,7.47115 -22.96608,-4.51268c-0.8293,-3.8015 1.74371,-11.31606 3.0248,-16.11701c-5.84393,-3.75313 -11.08415,-7.57026 -13.09246,-15.07748zM256.88946,142.74122c0.21402,-0.92866 0.49292,-1.66939 0.21593,-1.16105c-0.17658,0.32413 -0.22468,0.72791 -0.21593,1.16105z"/><path d="M243.61049,102.95854c0.21007,1.23062 -0.04049,2.70417 -1.41075,4.24228c-3.55919,3.99529 -7.55455,0.43609 -7.55455,0.43609c-0.62877,-0.56143 -1.58394,-1.38345 -2.65475,-2.33956c-0.19645,-0.14956 -0.37417,-0.31099 -0.53504,-0.48056c-2.83852,-2.56492 -6.21299,-5.88056 -6.52695,-7.79118c-1.2871,-7.82994 3.19854,-16.21384 12.66622,-14.4012c10.30305,1.97266 11.7412,14.98217 6.0159,20.33403z"/><path d="M265.26946,85.12544c9.39022,2.17887 10.09413,11.66116 5.74493,18.2982c-1.06132,1.61942 -5.48972,3.28351 -9.12406,4.47841c-0.21573,0.08988 -0.44366,0.16542 -0.68379,0.22249c-1.36632,0.4403 -2.57271,0.80469 -3.37502,1.06326c0,0 -5.09483,1.63518 -6.72996,-3.45962c-0.62953,-1.96139 -0.26159,-3.40997 0.42912,-4.45006c-3.06599,-7.21267 3.52011,-18.52372 13.73878,-16.15264z" data-paper-data="{&quot;index&quot;:null}"/></g><g fill="none" stroke="#ffffff" stroke-linecap="round"><path d="M190.69861,112.27676v91" stroke-width="1"/><path d="M303.69861,227.27676v91" stroke-width="1"/><path d="M231.59971,246.27676v44" stroke-width="0.5"/><path d="M308.59971,66.27676v44" stroke-width="0.5"/><path d="M203.5088,357.27676v-74" stroke-width="0.5"/><path d="M277.69861,315.27676v-91" stroke-width="2"/><path d="M211.69861,90.27676v91" stroke-width="2"/></g></g></g></svg>