<svg version="1.1" xmlns="http://www.w3.org/2000/svg" xmlns:xlink="http://www.w3.org/1999/xlink" width="773.66559" height="594.45821" viewBox="0,0,773.66559,594.45821"><g transform="translate(200.99727,91.30506)"><g data-paper-data="{&quot;isPaintingLayer&quot;:true}" fill-rule="nonzero" stroke-linecap="butt" stroke-linejoin="miter" stroke-miterlimit="10" stroke-dasharray="" stroke-dashoffset="0" style="mix-blend-mode: normal"><path d="M-143.5339,-6.74525c0,-10.08478 5.18621,-18.95826 13.03704,-24.09886l1.46667,-1.64678l3.10337,-0.78815c2.59609,-1.09494 5.38636,-1.82 8.30481,-2.10916l1.2635,-0.32089l1.16475,0.1827c0.14785,-0.00223 0.29597,-0.00336 0.44436,-0.00336c4.83456,0 9.39076,1.19187 13.39076,3.29783l0.54877,0.27439l8.19481,1.3658h0.89301l1.29406,-0.09469l0.78889,-0.31556l4.34294,-1.25277l0.94597,-0.06866l0.90381,-0.28758l3.69041,-0.36904l1.22741,-0.49096l4.34294,-1.25277l0.94597,-0.06866l0.90381,-0.28758l4.49758,-0.44975h124.68483l2.22726,0.22272l0.28163,-0.01779l0.99155,0.14511l0.99714,0.09971l0.2689,0.08556l2.21478,0.32411l3.49746,0.87437l5.14646,0.73521h391.7609l3.66979,0.36698l2.01924,-0.02766l5.23109,2.15398l3.47214,1.10477l0.71908,0.62102l2.66691,1.09814l1.87178,2.82164l4.63691,4.0046l1.3616,5.03792l1.65885,2.50066l0.26772,4.62764l1.20941,4.47482l-0.78295,2.89691l0.16377,2.83086l2.63842,8.2922l0.44976,4.49758v13.57954l-0.23627,2.36272l-0.15537,2.36941l-0.84286,5.05716v38.35633l-0.22272,2.22726l0.01779,0.28163l-0.14511,0.99155l-0.09971,0.99714l-0.08556,0.2689l-0.32411,2.21478l-1.60957,6.4383v190.27349l-0.1781,1.78097l-0.04418,1.7893l-1.01222,8.09781v66.10562l-0.28223,2.82229l-0.27675,2.82283l-1.91004,9.55016v8.2603l-0.31392,3.13923l0.00953,0.32039l-0.09318,0.51611l-0.05218,0.52185l-0.09719,0.30545l-0.56057,3.10468l-1.3615,4.76523v12.01713l-0.14342,1.43411l0.52389,2.58865l-2.87337,6.89609l-1.10518,3.4734l-0.66096,0.76532l-0.38894,0.93345l-2.61246,2.54186l-4.88304,5.65405l-0.80589,0.21781l-1.65396,2.0215l-0.32935,0.32935l-0.68163,0.93527l-0.62616,0.37252l-7.00437,7.00437l-3.4983,2.86224l-0.08909,0.04608l-0.07189,0.06995l-1.72023,1.08647l-3.0568,2.50102l-0.45267,0.23414l-2.01051,1.73634l-3.49858,1.11319l-3.26102,1.68674l-0.58819,0.04304l-0.70122,0.22311l-0.54067,0.28723l-3.75466,1.07946l-3.72284,1.18454l-0.6092,0.06092l-1.89253,0.54411l-1.57711,-0.19714l-0.41873,0.04188h-38.42958l-1.50028,0.37507l-2.21478,0.32411l-0.2689,0.08556l-0.99714,0.09971l-0.99155,0.14511l-0.28163,-0.01779l-2.22726,0.22272h-374.05449l-4.49758,-0.44975l-0.90381,-0.28758l-0.94597,-0.06866l-4.34294,-1.25277l-1.02561,-0.41025h-80.87184l-4.49758,-0.44975l-0.09559,-0.03041l-0.1003,-0.00137l-4.409,-0.99559l-0.21588,-0.07196l-1.35175,-0.13517l-2.03825,-0.64854l-2.11309,-0.33147l-4.2239,-1.6091l-0.37502,-0.1875l-0.55733,-0.04078l-1.02794,-0.5317l-0.44188,-0.1473l-4.12455,-1.84893l-1.25218,-0.91261l-3.33164,-1.2692l-0.4166,-0.20831l-1.10283,-0.35089l-0.55141,-0.47622l-1.03749,-0.51874l-1.76283,-0.58761l-0.14464,-0.06483l-1.423,-0.1423l-0.48565,-0.15453l-2.64942,-0.19386l-3.26102,-1.68674l-3.49858,-1.11319l-2.01051,-1.73634l-0.45267,-0.23414l-1.43943,-1.17772l-0.81519,-0.22032l-1.39669,-1.61723l-2.16296,-2.16296l-1.61723,-1.39669l-0.22032,-0.81519l-1.17772,-1.43943l-0.23414,-0.45267l-1.73634,-2.01051l-1.11319,-3.49858l-1.68674,-3.26102l-0.19386,-2.64942l-0.15453,-0.48565l-0.44976,-4.49758v-3.2753l-0.15594,-2.13116l0.15594,-0.27145v-23.56896l-1.91004,-9.55016l-0.27675,-2.82283l-0.28223,-2.82229v-47.52466l-0.75296,-3.33453l-0.00137,-0.1003l-0.03041,-0.09559l-0.44976,-4.49758v-14.43281l-0.67553,-3.37764l-0.27675,-2.82283l-0.28223,-2.82229v-74.22393l-0.17934,-0.70616l0.17934,-1.14332v-0.46578l0.44976,-4.49758l0.64854,-2.03825l0.33147,-2.11309l1.03925,-2.72802v-7.6352l-0.15594,-0.27145l0.15594,-2.13116v-3.2753l0.44976,-4.49758l0.15453,-0.48565l0.19386,-2.64942l1.67086,-3.23033v-6.42006l0.44976,-4.49758l0.03041,-0.09559l0.00137,-0.1003l0.99559,-4.409l0.99188,-2.97564v-21.25349l0.44976,-4.49758l0.03041,-0.09559l0.00137,-0.1003l0.99559,-4.409l0.99188,-2.97564v-0.26694l0.10231,-1.02306l-0.02915,-1.02774l1.16135,-16.25895v-58.22945l0.28223,-2.82229l0.27675,-2.82283l0.67553,-3.37764v-2.08779l0.44976,-4.49758l0.03041,-0.09559l0.00137,-0.1003l0.99559,-4.409l0.88493,-2.65477l0.96639,-3.86555l1.52716,-4.25421l0.2144,-0.34733l0.11278,-0.39228l0.24825,-0.46729c-1.83543,-1.52945 -3.47756,-3.283 -4.88437,-5.21863l-0.83668,-0.81407l-0.49596,-1.1903c-1.47169,-2.42765 -2.59462,-5.09025 -3.29929,-7.91831l-1.2332,-2.95967l0.43916,-2.16994c-0.03892,-0.61259 -0.05867,-1.2304 -0.05867,-1.85281z" fill="#fae880" stroke="none" stroke-width="0.5"/><path d="M-62.62123,67.59556c-0.02908,-0.21091 -0.0291,-0.34545 -0.0291,-0.34545l0.30388,-0.44152c-3.75399,-7.8385 -0.94441,-14.5612 -0.29509,-22.84558c0.29404,-3.75145 -0.07725,-7.52654 -0.00881,-11.28888c0.03815,-2.0969 -0.53358,-4.33041 0.21911,-6.28794c0.6478,-1.68473 2.67042,-2.46783 3.71389,-3.94062c1.66516,-2.35025 2.1688,-5.33821 3.15588,-8.04416c3.87937,-10.63474 5.5368,-21.66877 8.02465,-32.67086c1.2854,-5.68337 2.51832,-11.32763 4.16128,-16.92136c0.60868,-2.07232 0.82276,-4.31447 1.86839,-6.20437c0.72812,-1.31603 2.60639,-1.7542 3.27911,-3.09939c0.51551,-1.03082 -0.55084,-2.44523 0,-3.45761c1.62073,-2.97864 5.15921,-4.41156 7.89148,-6.41998c1.48611,-1.09239 2.31927,-3.11551 4.03912,-3.78182c1.95561,-0.75764 4.19071,-0.20927 6.28794,-0.21911c0.82242,-0.00386 1.72644,0.54828 2.46083,0.17808c1.58403,-0.79845 2.36422,-2.8916 4.04539,-3.45759c1.58007,-0.53196 10.0995,0.05926 12.17242,-0.15817c5.16468,-0.5417 10.40807,-2.70335 15.49859,-3.73749c7.47667,-1.5189 15.10299,-2.52439 22.6302,-3.77215c14.82233,-4.51737 29.41419,-9.35922 44.81754,-11.50264c23.06957,-3.2102 46.92425,-1.75322 70.14849,-1.75322c39.44997,0 78.89993,0.00006 118.3499,-0.00001c40.29827,-0.00007 80.59652,-0.00089 120.89478,-0.00272c19.01538,-0.00086 38.41536,0.95939 57.39207,-0.20686c20.88382,-1.28347 42.08131,-4.83136 62.66791,-8.42345c0.296,-0.00054 11.38313,-0.02451 11.80609,-0.01066c1.55959,0.0511 3.2904,-0.38892 4.66873,0.34262c2.03211,1.07853 3.37824,3.1271 4.98004,4.77845c4.19216,4.32182 7.2006,9.26 10.52136,14.24113c0.23356,0.35033 6.43765,9.64676 6.54622,9.85013c5.21474,9.76984 6.83137,21.17036 8.90774,31.8595c2.01026,10.3488 4.95125,20.61307 7.22065,30.92195c2.23566,11.21236 5.61778,22.84787 6.65232,34.23452c0.88408,9.73059 -0.3578,19.74776 -1.76325,29.34576c-0.5462,3.73011 -1.36229,7.4274 -1.68472,11.18348c-0.52063,6.06486 1.60585,8.21725 -5.22654,11.65986c-3.90833,1.96927 -5.79179,-0.51927 -8.9509,-1.66549c-2.75757,-1.00053 -5.82594,-0.862 -8.6299,-1.72401c-3.08391,-0.94807 -5.81114,-2.80506 -8.71145,-4.21844c-6.38808,-2.73662 -12.76688,-5.49034 -19.13314,-8.27727c-3.42967,-1.5014 -6.62099,-3.56831 -10.16223,-4.78341c-3.34066,-1.14627 -7.08986,-0.66999 -10.44732,-1.76607c-3.6112,-1.17892 -6.55065,-4.00632 -10.18419,-5.11449c-3.33101,-1.01591 -7.05521,0.05111 -10.41006,-0.88304c-1.95729,-0.54499 -3.59632,-1.90389 -5.47143,-2.68619c-3.32687,-1.38798 -6.86807,-2.19736 -10.26132,-3.41411c-2.77694,-0.99575 -5.30458,-2.75988 -8.19826,-3.33391c-1.67659,-0.3326 -3.44157,0.29041 -5.12777,0.01065c-3.41802,-0.56708 -6.38504,-2.88592 -9.80229,-3.45759c-1.88457,-0.31527 -3.8215,0.00274 -5.73225,0.00411c-5.74795,-1.90684 -9.34155,-1.26244 -15.25849,-2.08838c-5.61626,-0.78397 -11.06918,-2.6431 -16.78807,-3.06878c-8.84571,-0.65843 -18.00153,0.00794 -26.87662,0.00794c-17.67409,0 -35.34817,0 -53.02226,0c-35.33665,0 -70.6733,0 -106.00995,0c-33.80378,0 -67.60756,0 -101.41134,0c-15.55919,0 -31.11838,0 -46.67757,0c-5.68363,0 -11.36623,-0.01638 -17.04946,0.05551c-1.64587,0.02082 -3.37695,-0.45369 -4.93753,0.0697c-1.82897,0.61341 -2.98161,2.61886 -4.82016,3.20289c-1.77415,0.56358 -9.24681,-0.08674 -11.21732,0.24344c-5.31631,0.8908 -10.94576,3.6194 -16.1573,5.10895c-6.03357,1.69442 -10.2885,1.27148 -16.41533,1.67829c-5.77933,0.38373 -11.53059,2.74384 -17.28798,3.45761c-1.04868,0.13001 -2.13933,-0.27718 -3.16984,-0.04327c-6.95666,1.579 -12.16563,6.82795 -18.22963,10.08931c-6.20365,3.33647 -16.88376,4.45752 -19.80719,12.06512c-0.62878,1.63627 -0.82215,3.40807 -1.23323,5.11212c0,0 -0.69813,2.79251 -3.49064,2.09438c-2.7925,-0.69813 -2.09437,-3.49063 -2.09437,-3.49063c0.51977,-2.0193 0.76484,-4.13006 1.55927,-6.05792c1.20583,-2.9262 3.06857,-5.05584 5.29907,-6.72891z" fill="#faeda4" stroke="none" stroke-width="0.5"/><path d="M-185.43808,252.22577c-2.41532,-0.12927 -4.79191,-0.30558 -6.92384,-0.30558c0,0 -8.63535,0 -8.63535,-8.63535c0,-8.63535 8.63535,-8.63535 8.63535,-8.63535c1.09073,0 4.93411,0 7.62257,0c0.91674,-2.40556 3.03626,-5.18639 7.93662,-5.18639c2.55036,0 4.3475,0.75322 5.61388,1.81476c1.83582,-0.28407 3.77862,0.19423 5.63681,-0.04394c2.91456,-0.37354 5.73414,-1.3203 8.644,-1.7288c0.76985,-0.10808 1.58819,0.43833 2.32451,0.18898c6.16107,-2.08643 10.76795,-7.78182 16.7696,-10.23327c1.22768,-0.50146 10.58628,-5.44014 13.02818,-6.6284c1.43787,-0.69968 10.29371,-5.33373 13.6103,-6.82043c2.50166,-1.12139 11.33514,-5.93721 17.09988,-7.43628c1.25468,-0.32627 5.81142,-2.42249 7.32339,-3.03127c4.91521,-1.97907 14.10144,-3.37757 15.07576,-3.64603c3.47463,-0.95737 9.74433,0.09855 13.30993,-0.42686c5.15282,-0.7593 11.24663,-0.04203 16.4101,-0.04203c5.56686,0 13.74115,-1.40527 18.8638,0.65732c1.51197,0.60878 7.28561,1.58174 8.89075,2.2238c1.51335,0.60534 6.99156,4.18808 8.80542,4.26507c1.15253,0.57627 2.20043,1.44606 3.45759,1.7288c3.24356,0.72946 6.88064,-0.81542 9.96461,0.42632c1.51197,0.60878 2.16964,2.45869 3.45759,3.45759c0.17776,0.13787 -0.06833,-0.61704 0.153,-0.65732c1.13389,-0.20643 2.3068,-0.0633 3.45759,0c2.83451,0.15593 5.8069,-0.26704 8.491,0.65732c1.5411,0.53073 2.16964,2.45869 3.45759,3.45759c0.17776,0.13787 -0.07197,-0.65732 0.153,-0.65732c2.2647,0 4.66141,-0.18854 6.7622,0.65732c1.51197,0.60878 2.01414,2.70057 3.45759,3.45759c0.58841,0.3086 1.22234,-0.57614 1.88179,-0.65732c3.76866,-0.46396 8.34723,-0.0816 12.10159,0c1.81507,0.03945 3.67365,-0.18178 5.44159,0.231c2.82678,0.65999 5.19717,2.76697 8.04323,3.33809c2.64246,0.53027 6.2808,-0.1115 8.98956,-0.1115c2.05093,0 4.2323,1.11943 6.14161,0.37053c1.93428,-0.7587 3.21526,-2.80055 5.18639,-3.45759c1.64008,-0.5467 3.54217,0.53413 5.18639,0c1.54896,-0.50319 2.4427,-2.21261 3.89483,-2.95004c3.67648,-1.86702 8.25464,-1.64051 11.77727,-3.78373c0.63404,-0.38576 0.12939,-1.55533 0.57052,-2.15217c2.8732,-3.88744 8.09667,-8.97629 11.90344,-12.0017c2.92951,-2.32821 6.46395,-3.78034 9.57884,-5.85398c2.49747,-1.66262 4.60224,-3.91065 7.22439,-5.36872c2.78152,-1.54668 5.99859,-2.1675 8.85449,-3.57209c2.34747,-1.15452 4.26255,-3.14083 6.70419,-4.07995c2.24777,-0.86456 12.26869,-5.52818 15.33084,-6.84258c1.32005,-0.56662 9.63143,-0.44314 11.37474,-0.44314c8.06773,0 16.13545,0 24.20318,0c3.67508,0 9.51173,-0.78462 12.87518,0.37053c1.96509,0.67489 13.85197,2.77686 16.76959,3.31807c1.91869,0.3559 3.58313,1.55071 5.33545,2.40945c2.72844,1.33709 5.56868,2.49909 8.10253,4.17593c1.10442,0.73088 5.71097,3.43765 7.21811,3.76679c3.62074,0.7907 4.8755,1.0416 8.26507,2.5402c2.88007,1.27335 5.36624,2.38208 8.35127,3.38497c0.92976,0.31237 4.89684,3.04286 5.81819,3.37923c3.47537,1.26889 5.05414,2.59795 8.38094,4.2168c7.87528,7.67601 17.54661,11.34313 26.94592,16.82455c3.58969,2.09342 6.7906,4.80897 10.37279,6.9152c4.56275,2.68276 9.68745,4.2681 14.52948,6.40598c1.94029,0.85668 3.55246,2.45822 5.59459,3.03127c1.83142,0.51393 3.89858,-0.45703 5.70479,0.13952c1.97294,0.65161 3.25212,2.6989 5.18639,3.45759c1.9093,0.7489 4.09068,-0.37053 6.14161,-0.37053c4.03386,0 8.06773,0 12.10159,0c2.22133,0 4.53455,0.87659 6.66,0.231c1.62545,-0.49371 3.99839,-2.42488 6.24177,-2.69615c0.00577,-0.066 0.00891,-0.13012 0.00891,-0.19202c2.08637,-0.62397 4.31133,-0.89802 6.25911,-1.87191c0.51163,-0.25581 0.25161,-1.18121 0.65609,-1.58569c1.93763,-1.93763 3.85654,-4.01172 6.25911,-5.32951c1.01051,-0.55425 2.42341,0.5087 3.45759,0c1.00383,-0.49377 1.02355,-2.15832 2.00852,-2.68871c3.72117,-2.0038 7.72997,-3.46957 11.76466,-4.72799c0.59031,-0.18412 1.16774,0.51243 1.786,0.50152c0.19396,-0.00342 -0.31091,-0.34697 -0.24316,-0.52875c0.44999,-1.20744 0.86532,-2.50114 1.7288,-3.45759c2.14282,-2.37355 4.31819,-4.91712 7.15835,-6.38644c1.53549,-0.79437 3.4674,0.18388 5.18639,0c0.19289,-0.02063 -0.31091,-0.34697 -0.24316,-0.52875c0.44999,-1.20744 0.86532,-2.50114 1.7288,-3.45759c2.14282,-2.37355 4.2424,-5.07397 7.15835,-6.38644c1.65804,-0.74628 8.89286,-0.65732 11.9486,-0.65732c5.84271,0 12.93826,-0.94344 18.67122,0.1115c2.62147,0.48238 5.06475,1.66358 7.59712,2.49537c1.29827,0.98335 2.38108,2.34918 3.89483,2.95004c1.32276,0.52504 2.99211,-0.35994 4.25982,0.2868c2.18809,1.11631 3.68797,3.25044 5.6277,4.75754c2.00123,1.55487 4.40381,2.61845 6.18541,4.42078c1.10191,1.11472 1.32918,2.86253 2.26042,4.12332c2.31981,3.14071 6.04883,5.21542 7.88786,8.65977c0.6703,1.25542 -0.16319,2.90968 0.2868,4.25982c0.91398,2.74231 4.47286,3.85641 5.85951,6.3927c2.02745,3.70834 3.4602,7.73291 4.72799,11.76466c0.25968,0.82584 -0.54431,1.78771 -0.21471,2.58822c0.54345,1.31986 1.96509,2.10856 2.66158,3.35447c1.66784,2.98355 3.36792,6.0048 4.39314,9.26551c0.86423,2.74867 -0.87544,5.89888 0,8.644c0.78302,2.45531 2.80474,4.42212 3.45759,6.9152c1.43943,5.49672 0.231,13.55074 0.231,19.27198c-0.05194,2.8494 0.43036,5.75926 -0.15582,8.5482c-0.63829,3.03694 -2.61062,5.65853 -3.45759,8.644c-0.34655,1.22157 0.23077,2.57622 -0.0752,3.80858c-0.31049,1.25061 -1.4564,2.19815 -1.7288,3.45759c-0.45949,2.12453 0.51426,4.5474 -0.42632,6.507c-1.05796,2.20413 -4.1723,2.96174 -5.18639,5.18639c-0.69456,1.52368 0.78264,3.33612 0.54582,4.99382c-0.64893,4.54254 -3.85483,8.34917 -5.30589,12.70236c-0.50566,1.517 0.25574,3.3319 -0.42632,4.7782c-0.69523,1.47422 -2.45869,2.16964 -3.45759,3.45759c-0.13787,0.17776 0.61704,-0.06833 0.65732,0.153c0.20643,1.13389 0.12894,2.31231 0,3.45759c-0.3021,2.68331 -0.05607,5.59547 -1.28968,7.99747c-0.78273,1.52409 -3.25664,1.47242 -4.27966,2.84682c-0.98886,1.32853 -0.35016,3.48096 -1.38984,4.7701c-1.53768,1.90665 -4.2205,2.58047 -5.94285,4.32211c-1.40581,1.42155 -1.87482,3.60293 -3.29053,5.01463c-2.24007,2.23371 -5.10863,3.74047 -7.53049,5.77566c-3.10329,2.60784 -6.1525,5.30816 -9.51186,7.57663c-2.22394,1.41685 -4.21258,3.29899 -6.67182,4.25057c-5.84943,2.26339 -13.3646,3.1314 -19.5375,4.05022c-3.29733,0.4908 -6.14713,2.79666 -9.4439,3.29129c-9.30929,1.39673 -20.17721,0.231 -29.64478,0.231c-30.54212,0 -61.08422,0 -91.62634,0c-94.50767,0 -189.01534,0 -283.52302,0c-38.60984,0 -77.21969,0 -115.82952,0c-9.22026,0 -18.44053,0 -27.66078,0c-2.4558,0 -10.00943,0.16726 -11.9486,-0.65732c-2.09603,-0.89129 -3.34607,-3.11015 -5.20217,-4.43026c-1.05007,-0.74684 -2.44459,-0.93241 -3.45759,-1.7288c-1.86691,-1.46769 -3.391,-3.3255 -5.0865,-4.98824c-6.04988,-9.00978 -10.44885,-19.14693 -17.28799,-27.66078c-3.41024,-4.24531 -7.14431,-8.62796 -8.64146,-13.86351c-0.66595,-2.32885 0.42092,-4.89535 -0.0752,-7.26619c-0.49972,-2.3881 -1.83741,-4.52225 -2.85557,-6.73948c-3.50763,-7.63842 -7.94297,-13.48108 -10.71176,-21.62628c-1.13084,-3.32668 -0.71702,-7.24373 -2.58678,-10.21856c-1.10421,-1.75681 -3.39982,-2.73599 -4.08996,-4.69286c-0.85618,-2.4277 0.43059,-5.24515 -0.2868,-7.71741c-0.57903,-1.99545 -2.7827,-3.22131 -3.45759,-5.18639c-0.64655,-1.88256 -0.31327,-3.97032 -0.37053,-5.95998c-0.19866,-6.90301 0,-13.83775 0,-20.74559c0,-2.78236 0,-5.56471 0,-8.34706zM394.77629,238.3079c-0.04006,-0.36867 -0.06777,-0.76782 -0.15563,-1.01852c0,0.31078 0.07103,0.66089 0.15563,1.01852z" fill="#e9d877" stroke="none" stroke-width="0.5"/><path d="M-146.34853,286.93665c1.73501,-5.60962 8.21214,-5.60962 8.21214,-5.60962c3.8129,0 8.74006,0.85542 12.44717,0.1115c3.92306,-0.78726 3.69611,-2.20274 8.04323,-3.33809c0.949,-0.24786 8.47684,-4.17793 11.48008,-5.97965c4.7769,-2.86578 7.09376,-5.20493 11.64765,-8.4133c2.06328,-1.45365 6.40415,-3.3871 8.38307,-4.95365c1.16932,-0.92566 2.72347,-1.24567 3.96691,-2.06911c2.57131,-1.7028 4.76138,-3.97425 7.44734,-5.48975c1.17962,-0.66558 5.57923,-4.43457 6.93682,-5.73992c2.70085,-2.5969 6.45745,-3.81024 9.56887,-5.89771c7.31591,-4.7952 13.25865,-11.33923 20.0609,-16.78102c4.51492,-3.61194 9.31218,-6.76477 13.83039,-10.37279c1.41243,-1.12789 2.38103,-2.7795 3.88313,-3.78487c4.6625,-3.12067 7.40652,-5.06597 11.80387,-8.644c1.89642,-1.54308 6.90323,-3.83657 8.94171,-5.18639c3.08478,-2.04265 6.4587,-3.72254 9.98038,-4.85658c1.48177,-0.47715 7.88931,-2.64318 9.8544,-3.31807c1.3838,-0.47526 9.01888,-2.09982 9.32401,-2.25319c1.85643,-0.93314 7.70118,-0.61227 9.69277,-1.2044c1.52607,-0.45374 10.4385,-0.37053 12.87518,-0.37053c8.644,0 17.28799,0 25.93198,0c7.55579,0 12.65133,-0.65378 19.42104,2.64046c1.57363,0.76575 3.26216,1.37447 4.64493,2.44713c0.79492,0.61664 3.14795,1.87228 3.85001,2.05861c1.04954,0.27854 8.88294,4.05683 9.98038,4.85658c3.60603,2.6279 6.70266,6.11626 10.37279,8.644c3.44922,2.3756 8.00097,2.6913 11.59229,4.84609c1.02743,0.61646 4.5274,2.82524 5.67993,2.82524c1.46921,1.30705 8.00885,4.38798 9.72502,4.94794c2.61838,0.85434 4.94773,2.52833 7.62017,3.19454c1.95988,0.48858 3.17609,1.18696 5.09611,1.81414c1.97505,0.64516 4.14141,1.31187 6.14606,1.85817c1.97876,0.53925 4.09177,-0.30348 6.14161,-0.37053c4.03171,-0.13187 8.06773,0 12.10159,0c6.9152,0 13.83039,0 20.74559,0c3.39324,0 7.37624,0.54368 10.71836,0.1115c3.47808,-0.44975 5.96271,-2.21003 9.22222,-3.60004c2.4584,-1.04838 4.25646,-2.16336 6.79216,-3.00778c7.54933,-2.51404 9.16376,-3.51074 14.91142,-8.40553c1.15253,0 4.07905,-1.64986 4.74508,-2.15765c2.54267,-1.93859 5.17336,-3.89938 8.15873,-5.04435c1.15257,-0.44204 7.41911,-0.37053 9.41759,-0.37053c6.33893,0 12.67786,0 19.01679,0c18.0684,0 36.33276,-0.75061 54.36636,0.37053c1.99621,1.24813 3.78342,2.9199 5.98862,3.7444c2.58709,0.9673 5.5216,0.66545 8.14187,1.53888c0.78016,0.26005 8.05184,4.34678 10.68233,4.8305c1.50283,0.27635 3.15705,-0.30605 4.57676,0.25903c2.7079,1.07778 5.04902,2.92071 7.47403,4.53738c1.03986,0.69323 1.70166,2.0189 2.89875,2.37782c1.91431,0.57395 4.13076,-0.44964 5.98862,0.2868c1.51523,0.60063 4.91348,2.77888 5.59458,3.03127c2.68275,0.99415 5.35006,2.23424 7.57972,4.02703c1.00421,0.80745 4.26708,2.19985 5.3713,2.54723c2.71238,0.8533 6.14959,2.70925 8.45909,4.36797c0.45279,0.32521 8.04467,4.37299 9.30009,5.04327c2.38999,1.27607 8.75406,6.43144 11.10972,8.7871c3.76912,4.0167 9.66391,4.79729 12.85486,9.09222c2.0216,2.72102 2.90647,6.17256 3.72903,9.46106c0.26775,1.07046 -0.96912,2.246 -0.54582,3.26503c0.45964,1.10651 2.2139,1.19184 2.82524,2.22234c0.7089,1.19494 0.0731,2.95686 0.90675,4.06837c1.02801,1.37067 3.49693,1.32273 4.27966,2.84682c1.99349,3.8816 1.28968,10.47658 1.28968,14.91266c0,12.10159 0,24.20318 0,36.30477c0,5.18129 0.11258,10.37974 0,15.55919c-0.03945,1.81507 0.33327,3.71601 -0.231,5.44159c-0.88923,2.71932 -2.191,5.38553 -4.02703,7.57972c-1.11743,1.33541 -2.94041,1.88367 -4.51454,2.62805c-0.17538,0.08293 -0.49292,-0.43382 -0.52875,-0.24316c-0.39726,2.1139 0.47643,4.57857 -0.63236,6.42166c-1.22354,2.03383 -3.92599,2.6805 -5.75409,4.19428c-1.93728,1.60418 -3.71923,3.41711 -5.2863,5.38456c-1.42066,1.78363 -2.23279,4.05113 -3.8625,5.64602c-5.34262,5.2285 -9.85425,6.79178 -15.76926,10.17845c-2.37398,1.35924 -4.38498,3.51275 -7.01832,4.25362c-3.02421,0.85085 -6.27662,0.30609 -9.41759,0.37053c-7.48144,0.15348 -14.99058,0 -22.47439,0c-95.08394,0 -190.16788,0 -285.25182,0c-14.98292,0 -29.96585,0 -44.94877,0h-20.74559c-2.84978,-0.02347 -5.75926,0.43036 -8.5482,-0.15582c-3.03694,-0.63829 -5.6146,-2.78441 -8.644,-3.45759c-2.25018,-0.50004 -4.66502,0.50004 -6.9152,0c-3.0294,-0.6732 -5.60113,-2.84817 -8.644,-3.45759c-2.94005,-0.58884 -6.06784,0.57477 -8.99498,-0.0752c-2.51587,-0.55864 -4.39349,-2.92593 -6.9152,-3.45759c-2.73715,-0.57708 -5.59168,0.19656 -8.38879,0.231c0,0 -15.3671,0 -17.28799,0c-16.13545,0 -32.27091,0 -48.40637,0c-4.3175,-0.01401 -8.64942,0.31082 -12.9525,-0.04203c-2.92857,-0.24013 -5.73011,-1.35012 -8.644,-1.7288c-4.29238,-0.55782 -8.97413,0.85489 -13.23469,-0.18898c-0.88934,-0.2179 -9.02661,-4.11121 -9.98038,-4.85658c-5.66877,-4.43017 -7.72005,-8.33755 -10.27037,-15.39416c-0.39173,-1.08392 0.36346,-2.36388 0,-3.45759c-1.82677,-5.49713 -5.62409,-10.2809 -6.99039,-15.91017c-1.21582,-5.00929 -0.4771,-10.31869 -0.15582,-15.4634c0.04142,-0.66314 0.96593,-1.29337 0.65732,-1.88179c-0.75703,-1.44346 -2.92687,-1.9165 -3.45759,-3.45759c-1.96787,-5.71416 -0.65732,-16.2392 -0.65732,-22.32139v-5.18639c0,0 0,-6.47712 5.60962,-8.21214z" fill="#e5d15c" stroke="none" stroke-width="0.5"/><path d="M242.59605,273.44344c-3.13509,0.00548 -7.03485,0.6932 -9.63009,-1.51583c-1.83707,-1.56369 -2.83601,-4.66232 -0.73762,-6.61302c0.70978,-0.65982 1.96661,-0.30513 2.79069,-0.81507c0.4612,-2.95818 2.28608,-5.48826 2.28608,-8.53252c0,-0.6846 0.18036,-1.57638 -0.27591,-2.20923c-0.69855,-0.96891 -2.74891,-0.58374 -3.68822,-0.58523c-2.78931,-0.00443 -6.66261,-0.34682 -8.44791,-2.99256c-0.93325,-1.38305 -0.87693,-4.4074 -0.6461,-6.00224c0.12418,-0.85794 0.01673,-1.91028 0.6297,-2.52325c1.68503,-1.68503 5.12883,-0.39198 6.74794,0.39087c1.95927,1.62381 2.34406,1.55456 4.79985,1.18273c0.24943,-0.03777 0.61615,0.20588 0.75683,-0.00355c0.14566,-0.21686 -0.19005,-0.48785 -0.25716,-0.74033c-0.13996,-0.52646 -0.24506,-1.06158 -0.36323,-1.59336c-0.4243,-1.90931 -0.67671,-4.00093 -0.41427,-5.96504c0.35807,-2.67965 1.09383,-6.37198 2.59964,-8.66892c1.6864,-2.57242 6.78066,-3.52809 9.47261,-2.24227c1.22859,0.58685 2.26686,2.44722 2.96307,3.4853c1.66675,2.92745 3.21495,6.14939 1.86989,9.53015c-0.62415,1.56877 -1.28466,2.00323 -2.3592,3.29436c-0.36949,0.44396 -1.04053,0.87762 -0.95135,1.44829c0.05956,0.38116 0.77731,0.11021 1.15669,0.04015c1.29009,-0.23824 1.37426,-0.35639 2.59656,-1.00404c2.37995,-1.26105 6.50842,-2.47543 7.78928,1.08216c0.2731,0.75851 -0.0415,1.61498 -0.14936,2.4139c-0.40402,2.99274 -1.63223,4.29441 -4.04053,5.93663c-2.17419,1.08828 -4.64588,2.19199 -6.97755,2.87638c-0.67995,0.19958 -1.73843,-0.1319 -2.22709,0.675c-0.42984,0.70978 0.15001,1.65305 0.19957,2.48136c0.14787,2.4719 0.38766,4.85977 1.10999,7.25953c0.7653,2.54249 2.4043,6.1156 0.54286,8.73004c-0.9642,1.35424 -2.73118,1.36938 -4.12909,1.56085c0,0 -0.93615,0.11703 -1.4137,-0.57876z" data-paper-data="{&quot;index&quot;:null}" fill="#e9d877" stroke="none" stroke-width="0.5"/><path d="M371.07447,244.70486c-0.47755,0.69579 -1.4137,0.57876 -1.4137,0.57876c-1.39791,-0.19146 -3.16489,-0.2066 -4.12909,-1.56085c-1.86144,-2.61444 -0.22244,-6.18755 0.54286,-8.73004c0.72233,-2.39976 0.96212,-4.78763 1.10999,-7.25953c0.04956,-0.82831 0.62941,-1.77158 0.19957,-2.48136c-0.48866,-0.8069 -1.54714,-0.47542 -2.22709,-0.675c-2.33167,-0.68439 -4.80336,-1.78809 -6.97755,-2.87638c-2.4083,-1.64222 -3.63651,-2.94389 -4.04053,-5.93663c-0.10786,-0.79892 -0.42245,-1.6554 -0.14936,-2.4139c1.28086,-3.55759 5.40933,-2.34321 7.78928,-1.08216c1.22229,0.64765 1.30647,0.76579 2.59656,1.00404c0.37938,0.07006 1.09713,0.34102 1.15669,-0.04015c0.08917,-0.57067 -0.58186,-1.00433 -0.95135,-1.44829c-1.07454,-1.29113 -1.73505,-1.7256 -2.3592,-3.29436c-1.34507,-3.38075 0.20314,-6.60269 1.86989,-9.53015c0.6962,-1.03807 1.73447,-2.89845 2.96307,-3.4853c2.69195,-1.28583 7.78621,-0.33016 9.47261,2.24227c1.50581,2.29695 2.24158,5.98927 2.59964,8.66892c0.26245,1.9641 0.01003,4.05572 -0.41427,5.96504c-0.11817,0.53178 -0.22326,1.0669 -0.36323,1.59336c-0.06711,0.25247 -0.40282,0.52346 -0.25716,0.74033c0.14068,0.20942 0.50739,-0.03422 0.75683,0.00355c2.45579,0.37183 2.84058,0.44108 4.79985,-1.18273c1.61911,-0.78285 5.06291,-2.0759 6.74794,-0.39087c0.61297,0.61297 0.50552,1.66531 0.6297,2.52325c0.23083,1.59483 0.28715,4.61919 -0.6461,6.00224c-1.7853,2.64574 -5.6586,2.98813 -8.44791,2.99256c-0.93931,0.0015 -2.98966,-0.38367 -3.68822,0.58523c-0.45627,0.63286 -0.27591,1.52463 -0.27591,2.20923c0,3.04426 1.82488,5.57434 2.28608,8.53252c0.82408,0.50995 2.08091,0.15525 2.79069,0.81507c2.09839,1.9507 1.09945,5.04933 -0.73762,6.61302c-2.59523,2.20903 -6.49499,1.52131 -9.63009,1.51583z" data-paper-data="{&quot;index&quot;:null}" fill="#e9d877" stroke="none" stroke-width="0.5"/><path d="M-14.09881,275.04002c-0.64854,0.94493 -1.91988,0.786 -1.91988,0.786c-1.89845,-0.26002 -4.2981,-0.28058 -5.60754,-2.11971c-2.52794,-3.55056 -0.30208,-8.40305 0.73724,-11.8559c0.98096,-3.25902 1.30661,-6.50189 1.50743,-9.85886c0.0673,-1.1249 0.85478,-2.40591 0.27102,-3.36984c-0.66362,-1.09581 -2.10111,-0.64565 -3.02451,-0.91668c-3.16655,-0.92944 -6.52325,-2.42833 -9.47592,-3.90629c-3.27061,-2.23023 -4.93859,-3.99798 -5.48727,-8.06229c-0.14648,-1.08498 -0.57372,-2.24813 -0.20284,-3.27822c1.73949,-4.83142 7.34618,-3.18221 10.57829,-1.46963c1.65994,0.87955 1.77427,1.04 3.52627,1.36354c0.51522,0.09515 1.48997,0.46312 1.57085,-0.05453c0.1211,-0.77501 -0.7902,-1.36394 -1.29199,-1.96686c-1.45928,-1.75344 -2.3563,-2.34346 -3.20393,-4.47394c-1.82668,-4.59125 0.27587,-8.96684 2.53941,-12.94249c0.94549,-1.40976 2.35552,-3.93626 4.02402,-4.73323c3.65583,-1.74623 10.57412,-0.44837 12.86436,3.04512c2.04498,3.11939 3.04419,8.13377 3.53047,11.77291c0.35642,2.66737 0.01362,5.50791 -0.5626,8.10087c-0.16048,0.72218 -0.3032,1.44892 -0.49329,2.16388c-0.09114,0.34287 -0.54706,0.7109 -0.34924,1.00541c0.19105,0.28441 0.68907,-0.04647 1.02781,0.00481c3.33511,0.50496 3.85768,0.59902 6.51847,-1.60622c2.19884,-1.06315 6.87572,-2.8192 9.16409,-0.53082c0.83245,0.83245 0.68653,2.26159 0.85518,3.42671c0.31347,2.16587 0.38997,6.27312 -0.87743,8.15138c-2.42453,3.59308 -7.6847,4.05805 -11.47274,4.06407c-1.27564,0.00204 -4.06013,-0.52106 -5.00881,0.79479c-0.61964,0.85946 -0.37469,2.07054 -0.37469,3.00027c0,4.13428 2.47829,7.57028 3.10463,11.58766c1.11914,0.69253 2.826,0.21084 3.78992,1.10691c2.84973,2.64916 1.49312,6.85729 -1.00174,8.98087c-3.52448,2.99999 -8.82057,2.06602 -13.07822,2.05858z" fill="#e9d877" stroke="none" stroke-width="0.5"/><path d="M28.17984,205.09111c-0.47755,0.69579 -1.4137,0.57876 -1.4137,0.57876c-1.39791,-0.19146 -3.16489,-0.2066 -4.12909,-1.56085c-1.86144,-2.61444 -0.22244,-6.18755 0.54286,-8.73004c0.72233,-2.39976 0.96212,-4.78763 1.10999,-7.25953c0.04956,-0.82831 0.62941,-1.77158 0.19957,-2.48136c-0.48866,-0.8069 -1.54714,-0.47542 -2.22709,-0.675c-2.33167,-0.68439 -4.80336,-1.78809 -6.97755,-2.87638c-2.4083,-1.64222 -3.63651,-2.94389 -4.04053,-5.93663c-0.10786,-0.79892 -0.42245,-1.6554 -0.14936,-2.4139c1.28086,-3.55759 5.40933,-2.34321 7.78928,-1.08216c1.22229,0.64765 1.30647,0.76579 2.59656,1.00404c0.37938,0.07006 1.09713,0.34102 1.15669,-0.04015c0.08917,-0.57067 -0.58186,-1.00433 -0.95135,-1.44829c-1.07454,-1.29113 -1.73505,-1.7256 -2.3592,-3.29436c-1.34507,-3.38075 0.20314,-6.60269 1.86989,-9.53015c0.6962,-1.03807 1.73447,-2.89845 2.96307,-3.4853c2.69195,-1.28583 7.78621,-0.33016 9.47261,2.24227c1.50581,2.29695 2.24158,5.98927 2.59964,8.66892c0.26245,1.9641 0.01003,4.05572 -0.41427,5.96504c-0.11817,0.53178 -0.22326,1.0669 -0.36323,1.59336c-0.06711,0.25247 -0.40282,0.52346 -0.25716,0.74033c0.14068,0.20942 0.50739,-0.03422 0.75683,0.00355c2.45579,0.37183 2.84058,0.44108 4.79985,-1.18273c1.61911,-0.78285 5.06291,-2.0759 6.74794,-0.39087c0.61297,0.61297 0.50552,1.66531 0.6297,2.52325c0.23083,1.59483 0.28715,4.61919 -0.6461,6.00224c-1.7853,2.64574 -5.6586,2.98813 -8.44791,2.99256c-0.93931,0.0015 -2.98966,-0.38367 -3.68822,0.58523c-0.45627,0.63286 -0.27591,1.52463 -0.27591,2.20923c0,3.04426 1.82488,5.57434 2.28608,8.53252c0.82408,0.50995 2.08091,0.15525 2.79069,0.81507c2.09839,1.9507 1.09945,5.04933 -0.73762,6.61302c-2.59523,2.20903 -6.49499,1.52131 -9.63009,1.51583z" fill="#e9d877" stroke="none" stroke-width="0.5"/><path d="M81.81601,213.0156c-2.73152,0.00478 -6.12928,0.60397 -8.39044,-1.3207c-1.60059,-1.3624 -2.47094,-4.06215 -0.64267,-5.76175c0.61842,-0.57488 1.71346,-0.26585 2.43145,-0.71015c0.40183,-2.57739 1.9918,-4.78177 1.9918,-7.43416c0,-0.59647 0.15714,-1.37346 -0.24039,-1.92484c-0.60863,-0.84418 -2.39505,-0.5086 -3.21344,-0.5099c-2.43025,-0.00386 -5.80496,-0.30217 -7.36044,-2.60735c-0.81312,-1.20501 -0.76404,-3.84005 -0.56293,-5.22959c0.1082,-0.7475 0.01458,-1.66438 0.54864,-2.19845c1.46812,-1.46812 4.46862,-0.34152 5.8793,0.34056c1.70706,1.41478 2.04232,1.35445 4.18199,1.03049c0.21732,-0.03291 0.53683,0.17937 0.65941,-0.00309c0.12691,-0.18894 -0.16558,-0.42505 -0.22406,-0.64503c-0.12194,-0.45869 -0.21351,-0.92493 -0.31647,-1.38825c-0.36967,-1.66354 -0.5896,-3.48591 -0.36093,-5.19718c0.31198,-2.33471 0.95303,-5.55174 2.26499,-7.55301c1.46932,-2.24129 5.90781,-3.07393 8.25323,-1.95363c1.07044,0.5113 1.97505,2.13221 2.58164,3.03665c1.45219,2.55061 2.8011,5.35781 1.62918,8.30336c-0.54381,1.36683 -1.11929,1.74535 -2.05551,2.87029c-0.32193,0.38681 -0.90659,0.76464 -0.82889,1.26185c0.05189,0.3321 0.67725,0.09603 1.00779,0.03498c1.12402,-0.20757 1.19735,-0.31052 2.26231,-0.8748c2.07359,-1.09872 5.67062,-2.15678 6.78659,0.94285c0.23794,0.66087 -0.03615,1.40709 -0.13013,2.10317c-0.35201,2.6075 -1.42212,3.74161 -3.5204,5.17243c-1.89431,0.9482 -4.04783,1.90982 -6.07936,2.50612c-0.59242,0.17389 -1.51465,-0.11492 -1.94041,0.5881c-0.37451,0.61842 0.1307,1.44026 0.17388,2.16195c0.12884,2.1537 0.33776,4.23419 0.9671,6.32504c0.66679,2.2152 2.0948,5.32836 0.47299,7.60625c-0.84008,1.17991 -2.3796,1.19311 -3.59757,1.35992c0,0 -0.81565,0.10197 -1.23172,-0.50426z" data-paper-data="{&quot;index&quot;:null}" fill="#e9d877" stroke="none" stroke-width="0.5"/><path d="M197.59474,258.19844c-2.17936,0.00381 -4.89028,0.48188 -6.69435,-1.05373c-1.27704,-1.08699 -1.97145,-3.24101 -0.51276,-4.59705c0.4934,-0.45868 1.36709,-0.21211 1.93995,-0.56659c0.3206,-2.05639 1.58917,-3.81517 1.58917,-5.93138c0,-0.4759 0.12539,-1.09581 -0.1918,-1.53575c-0.48559,-0.67353 -1.9109,-0.40578 -2.56387,-0.40683c-1.93899,-0.00309 -4.63152,-0.24109 -5.87257,-2.08028c-0.64875,-0.96143 -0.6096,-3.06381 -0.44913,-4.17245c0.08632,-0.59639 0.01163,-1.32793 0.43773,-1.75404c1.17136,-1.17136 3.56531,-0.27249 4.69084,0.27171c1.36199,1.12879 1.62948,1.08065 3.33662,0.82218c0.1734,-0.02625 0.42831,0.14312 0.52611,-0.00246c0.10125,-0.15075 -0.13211,-0.33913 -0.17876,-0.51463c-0.09729,-0.36597 -0.17036,-0.73797 -0.2525,-1.10763c-0.29495,-1.32725 -0.47042,-2.78125 -0.28798,-4.14659c0.24891,-1.86276 0.76038,-4.42949 1.80715,-6.02621c1.1723,-1.78822 4.71358,-2.45255 6.58489,-1.55872c0.85406,0.40795 1.57581,1.70119 2.05977,2.4228c1.15865,2.03502 2.23487,4.27475 1.29985,6.62488c-0.43387,1.09053 -0.89303,1.39255 -1.64,2.29008c-0.25685,0.30862 -0.72332,0.61007 -0.66133,1.00678c0.0414,0.26497 0.54034,0.07661 0.80408,0.02791c0.89681,-0.16561 0.95532,-0.24774 1.805,-0.69796c1.65442,-0.87661 4.52432,-1.7208 5.41472,0.75227c0.18984,0.52727 -0.02884,1.12265 -0.10382,1.67802c-0.28086,2.08041 -1.13465,2.98525 -2.80877,4.12685c-1.51138,0.75653 -3.22959,1.52376 -4.85044,1.99951c-0.47266,0.13874 -1.20848,-0.0917 -1.54817,0.46922c-0.29881,0.4934 0.10428,1.14911 0.13873,1.72492c0.1028,1.71834 0.26948,3.37826 0.77161,5.04646c0.532,1.76741 1.67135,4.25126 0.37738,6.06869c-0.67026,0.9414 -1.89858,0.95193 -2.87034,1.08503c0,0 -0.65077,0.08136 -0.98274,-0.40233z" data-paper-data="{&quot;index&quot;:null}" fill="#e9d877" stroke="none" stroke-width="0.5"/><path d="M-170.33386,300.37271c-1.52811,-1.26371 -2.75414,-3.29147 -2.75414,-6.54525c0,-8.63535 8.63535,-8.63535 8.63535,-8.63535c0.58663,0.96666 1.79409,-1.45745 2.86792,-1.81169c2.22819,-0.73504 4.66623,-0.51362 7.00812,-0.65732c2.11344,-0.12969 4.25581,0.36432 6.35192,0.0647c2.85731,-0.40843 5.45602,-2.01414 8.31339,-2.4222c2.08624,-0.29793 4.21394,-0.09064 6.32124,-0.1115c4.63649,-0.04592 10.05481,-0.49749 14.63463,0.0647c4.04717,0.49681 7.97082,1.72411 11.94993,2.61468c7.36547,1.64848 14.14728,4.83914 21.7098,4.83914c2.28672,0.80423 4.71905,1.27624 6.86015,2.41268c1.1832,0.62801 9.12509,3.64725 11.10977,4.30565c1.1047,0.36647 5.02632,2.01053 6.17251,2.46901c1.08065,0.43226 5.2841,1.7755 6.6048,2.18221c3.00556,0.92556 11.02978,4.46643 12.46038,4.67899c5.07501,0.75403 9.5084,3.45818 14.1803,5.05752c1.71179,0.58599 3.61371,-0.231 5.42302,-0.231c3.70351,0 7.40702,0 11.11053,0c2.46901,0 10.68643,-0.98868 11.50944,-1.81169c5.1109,-0.50879 8.77988,-1.92473 13.66564,-2.89533c2.6554,-0.52753 5.43322,-0.3813 8.05074,-1.07272c1.44952,-0.38289 2.58934,-1.53221 3.97527,-2.10396c1.37487,-0.56718 5.1114,-3.4408 5.90587,-4.22934c0.70537,-0.70012 11.21573,-8.64834 12.14149,-9.12169c2.38759,-1.22081 5.16736,-1.49483 7.62079,-2.57726c3.29846,-1.45526 6.04367,-4.06883 9.43947,-5.27971c0.93124,-0.33206 3.72413,-2.61758 4.68812,-3.31277c6.60207,-4.76115 23.14962,-11.72098 25.86586,-12.61482c2.29574,-0.75547 8.70108,-0.65732 11.94613,-0.65732c10.28752,0 20.57506,0 30.86258,0c3.70602,0 14.60801,-0.96625 15.89981,-1.123c5.27226,-0.63976 12.4624,0.74676 17.03363,3.64718c5.24434,3.32751 6.88575,8.30077 9.38991,13.42774c1.50133,3.07379 4.39904,5.44176 5.44557,8.69858c0.60925,1.89604 0.29202,10.65603 0.25903,12.52714c-2.81888,8.01514 -7.99951,16.30513 -16.14091,20.09346c-4.91136,2.28534 -10.54752,2.32763 -15.68976,3.0957c-3.48023,0.51983 -6.35928,2.1406 -9.99138,2.20998c-1.30904,0.02501 -1.18552,2.35479 -1.99683,3.38241c-0.90214,1.14268 -0.39563,4.61526 0.49076,5.53514c1.94435,2.01781 3.65538,4.27925 5.11483,6.67133c1.43797,2.35686 2.70056,4.8598 3.52769,7.49388c0.24173,0.76985 2.5809,7.898 4.44625,10.08881c2.26183,2.65648 4.62063,3.13501 6.23796,7.10813c1.15143,2.82857 0.64878,13.94166 -0.36446,16.02079c-1.12983,2.31838 -3.93239,3.33939 -5.84237,5.07243c-2.44228,2.21605 -4.92023,4.5096 -7.85328,6.0172c-2.06682,1.06236 -4.68891,0.82826 -6.6611,2.05741c-1.36669,0.85178 -2.18397,2.57028 -3.70428,3.10136c-2.08593,0.72866 -4.45743,0.00136 -6.60961,0.50152c-2.15848,0.50162 -3.99459,2.06003 -6.17251,2.46901c-1.13591,0.2133 -15.7734,0.15582 -16.44705,0.15582c-10.28752,0 -20.57506,0 -30.86258,0c-66.25167,0 -132.50335,0 -198.75502,0c-5.75086,0 -11.53487,0.17206 -17.28304,0c-2.4821,-0.0743 -5.05661,0.32506 -7.4404,-0.37053c-2.05716,-0.60028 -11.23644,-6.97346 -12.15618,-8.51409c-1.42023,-2.37902 -0.71506,-5.54026 -1.66123,-8.14439c-0.25722,-0.70795 -1.40444,-0.72781 -1.7961,-1.3712c-0.30726,-0.50478 -0.6093,-1.01332 -0.90538,-1.52561c1.22265,-0.534 2.44341,-1.07845 3.74687,-1.27193c1.48617,-0.22059 3.05711,0.24356 4.50453,-0.15933c1.77288,-0.49348 3.16795,-1.96545 4.93802,-2.46901c1.41026,-0.4012 3.00622,0.28505 4.3947,-0.18603c4.27748,-1.45125 5.96567,-4.012 10.41531,-4.53024c3.86311,-0.44994 7.77416,-0.37229 11.64087,-0.79017c0.31746,-0.31746 0.60442,-0.67621 0.89615,-1.02845c1.21794,-0.08669 2.44441,-0.18478 3.63409,-0.35252c2.34494,0.18138 4.74866,-0.2116 7.11216,-0.2116c6.71749,0 15.28082,1.15017 21.68919,-0.87643c0.22855,-0.07227 0.42183,-0.20117 0.59415,-0.36407c0.52229,-0.16519 1.02847,-0.36662 1.51558,-0.60133c11.81291,-0.08395 23.1827,-2.82301 23.58663,-16.39779c0.27966,-9.39858 0.66863,-11.26333 -1.13541,-18.47947c-0.17673,-0.70691 -2.4606,-2.70628 -2.46319,-2.70952c-1.14086,-1.42139 -1.67803,-4.03249 -3.09629,-5.55887c-2.13228,-2.29483 -4.37226,-4.48946 -6.64513,-6.64513c-3.545,-3.36221 -8.40458,-4.73496 -12.21931,-7.59738c-3.72859,-2.7978 -9.78384,-6.94603 -14.52855,-7.07165c-0.17212,-0.00456 -11.15943,-0.89185 -18.71766,0.00052c-1.46595,0.01387 -2.8664,0.30173 -4.15259,0.8148c-0.57202,0.18179 -1.075,0.38876 -1.49301,0.62391c-0.16985,0.09554 -0.33233,0.19851 -0.48799,0.30833c-1.31113,0.25067 -2.9481,0.47694 -4.50579,0.74804c-0.8882,0.02404 -1.76659,0.03986 -2.63071,0.03986c-10.25436,0 -20.50873,0 -30.76309,0c0.4007,-2.00538 -0.31724,-4.15155 0.02747,-6.15904zM142.32799,372.47215c0.01476,-0.01087 0.02808,-0.02262 0.03968,-0.03539c0.04929,-0.05433 0.02372,-0.02489 -0.03968,0.03539z" fill="#b46000" stroke="none" stroke-width="0.5"/><path d="M133.14953,272.67282h-2.88005c-0.24222,0.1453 -1.26445,0.10692 -2.35838,0.03567c-0.8162,0.02973 -1.63213,0.05425 -2.4417,-0.03567c-0.04906,-0.00545 -0.06751,-0.05771 -0.07441,-0.12473c-0.20624,-0.00516 -0.36638,-0.00204 -0.46238,0.01323c-0.09309,0.01481 -0.18513,0.03398 -0.27631,0.05669c-1.52531,1.20758 -1.93243,3.94903 -3.75238,4.79313c-1.41244,0.65509 -2.97563,0.8075 -4.56022,0.8715c-0.0626,0.13645 -0.12571,0.27122 -0.18921,0.40418c-1.45169,3.03971 -5.15456,4.41531 -8.1147,6.02308c-1.11653,0.60643 -2.96867,-0.12557 -3.70081,0.91286l-2.88005,1.92004c0,0 -2.08682,1.39122 -4.76095,1.54949c-1.58116,2.18934 -2.91719,4.5995 -4.9067,6.40774c-1.29041,1.17284 -3.1995,1.49282 -4.52353,2.62758c-0.95776,0.82084 -1.19505,2.29683 -2.16426,3.10413c-2.19565,1.82886 -4.97974,2.94459 -6.9603,5.00443c-3.6039,2.4299 -8.45879,5.94193 -12.57249,7.34685c-1.26417,0.43174 -2.68383,0.02593 -3.9992,0.25901c-5.00659,0.8872 -9.6523,1.07152 -14.82347,1.07152c-2.13437,0 -6.6881,0.06594 -8.26249,-0.37053c-1.11186,-0.30824 -1.79373,-1.53124 -2.88005,-1.92004c-0.55858,-0.19991 -1.17426,0.34762 -1.76089,0.25901c-1.0006,-0.15113 -1.88661,-0.76743 -2.88005,-0.96002c-0.12332,-0.0239 -0.24771,-0.04656 -0.3731,-0.06802c-0.8623,0.49789 -1.49152,1.48816 -2.46139,1.72904c-3.72903,0.92616 -9.12121,0.37053 -13.06257,0.37053c-2.07836,0 -4.15674,0 -6.23509,0c-0.88642,0.61564 -1.7598,1.25255 -2.78272,1.5495c-1.76108,0.51125 -3.67196,0.10069 -5.49154,0.3285c-1.61907,0.20271 -3.17691,0.79331 -4.80008,0.96002c-0.89979,0.09241 -1.8325,-0.4202 -2.70698,-0.18898c-1.38357,0.36582 -2.45075,1.57669 -3.84006,1.92003c-4.47488,1.10587 -10.83738,0.231 -15.42423,0.231c-4.02839,0 -9.57035,0.74117 -13.50419,-0.231c-1.38931,-0.34334 -2.46626,-1.51914 -3.84007,-1.92003c-1.35106,-0.39426 -2.95741,0.23334 -4.20066,-0.42632c-0.10969,-0.0582 -0.21509,-0.12213 -0.31678,-0.191c-8.54165,0.35266 -18.3009,1.24667 -25.79251,-1.80991c-5.39303,-2.20034 -11.38593,-6.87663 -15.42149,-10.81923c-1.00472,-0.6467 -1.62517,-1.97754 -2.78777,-2.25332c-0.7673,-0.18201 -1.60369,0.35714 -2.36166,0.13951c-1.37554,-0.39491 -2.46402,-1.52688 -3.84007,-1.92004c-0.92308,-0.26374 -1.97091,0.30837 -2.88005,0c-2.4185,-0.82032 -4.74603,-1.95525 -6.90524,-3.31901c-1.84143,-1.16304 -3.82559,-3.91058 -6.09336,-4.50064c-1.23877,-0.32232 -2.60929,0.35164 -3.84006,0c-0.39085,-0.11167 -0.77388,-0.30629 -1.15339,-0.52263c-5.82268,-0.01456 -11.64609,-0.06685 -17.46458,-0.06685c-3.20005,0 -6.40011,0 -9.60016,0c-1.37667,0 -2.79256,-0.49387 -4.12709,-0.1558c-2.49309,0.63157 -4.34591,2.89123 -6.81076,3.62535c-3.12862,0.93181 -7.79683,0.37053 -11.14254,0.37053c0,0 -8.63535,0 -8.63535,-8.63535c0,-8.63535 8.63535,-8.63535 8.63535,-8.63535c2.04965,0 4.32891,1.33441 6.13777,0.37053c2.78356,-1.48329 5.48884,-3.2928 8.54952,-4.05478c4.9991,-1.24457 11.85489,-0.15582 16.99328,-0.15582c2.49004,0 4.98026,-0.0041 7.47057,-0.00921c2.0659,-0.9508 4.04965,-0.9508 4.04965,-0.9508h2.88005c2.11415,0.12351 4.28714,-0.13994 6.34246,0.37053c0.37855,0.09402 0.70352,0.30767 1.01073,0.56159c4.23303,0.00402 8.46584,0.02226 12.69806,0.06993c2.76418,0.54125 5.44492,1.4657 8.21246,1.98952c2.25468,0.42676 4.67375,-0.37456 6.87927,0.25901c1.4406,0.41383 2.49342,1.69736 3.87112,2.2877c1.46857,0.62928 3.21423,0.54965 4.60123,1.34269c1.44655,0.82708 2.3259,2.41061 3.67461,3.38917c2.15279,1.56199 4.91064,2.09766 7.17083,3.49977c4.21997,2.61785 8.06813,5.8196 12.50871,8.14049c3.13354,1.63776 7.2796,0.45843 10.25645,1.78733c0.96955,0.43283 1.59646,1.34622 2.25786,2.22273c3.90594,0 7.81189,0 11.71785,0c1.37667,0 2.8055,0.54138 4.12709,0.15582c1.65431,-0.48265 3.11809,-1.54512 4.80009,-1.92004c0.89719,-0.19997 7.17048,-0.15582 8.35312,-0.15582c6.00069,0 12.00139,0 18.00208,0c2.38793,-1.28826 4.77762,-2.58947 7.33602,-3.46955c1.07211,-0.3688 2.30376,0.15561 3.39844,-0.13951c2.77476,-0.7481 5.1073,-2.68946 7.8308,-3.6068c0.0522,-0.01758 10.17294,-2.85239 11.4796,-3.42627c6.27559,-2.75614 11.19035,-7.73874 17.68653,-10.26392c3.97633,-3.28811 7.72348,-6.2267 12.56333,-8.19716c1.70971,-0.69608 3.57966,-0.95915 5.27075,-1.69928c6.25874,-2.73925 12.1013,-7.79287 18.57186,-10.10772c0.90391,-0.32338 1.95707,0.2641 2.88005,0c0.49251,-0.14093 0.59921,-0.8772 1.04812,-1.12401c1.99131,-1.09479 4.00168,-2.24445 6.19038,-2.85558c3.57997,-0.99959 8.81386,-0.231 12.54418,-0.231c6.72012,0 13.44023,0 20.16035,0c5.95744,0 13.48008,-1.19845 19.2643,0.231c1.38931,0.34334 2.46715,1.51607 3.84006,1.92004c0.72987,0.21476 1.52838,-0.24184 2.27928,-0.1195c0.99878,0.16271 1.88066,0.80113 2.88005,0.96002c3.8736,0.61587 7.73725,-1.07496 11.67935,0.25901c4.47311,1.51367 6.13627,3.48251 8.28029,6.34634c2.24044,1.03526 4.57279,3.19075 4.57279,7.6786c0,8.63535 -8.63535,8.63535 -8.63535,8.63535l-7.86829,-3.45414c-0.57997,-0.83616 -1.27,-1.60675 -1.7687,-2.49134c-2.24116,0.80334 -7.65226,0.25559 -9.02653,0.07387c-3.74391,-0.49507 -6.68815,-1.74679 -10.20094,-2.99955c-1.48875,-0.53092 -3.15554,0.231 -4.73612,0.231c-0.48584,0 -0.97167,0 -1.45751,0c-1.54892,2.31544 -4.18773,3.84007 -7.18263,3.84007z" fill="#fffaae" stroke="none" stroke-width="0.5"/><path d="M-80.8332,368.33669l-2.88005,0.96002c-6.80059,2.25259 -12.95206,2.36317 -20.01104,2.36317c-8.00013,0 -16.00028,0 -24.00041,0c-2.71841,0 -7.43795,-1.0747 -9.94677,0.22181c-8.84529,4.57111 -17.17347,10.16868 -27.49388,10.33837c0,0 -8.63535,0 -8.63535,-8.63535c0,-8.63535 8.63535,-8.63535 8.63535,-8.63535c3.18885,0.11305 4.19296,-0.90477 7.25558,-2.22273c6.39044,-2.75004 12.639,-7.12702 19.52981,-8.27276c3.35929,-0.55855 7.24196,-0.0647 10.65526,-0.0647c2.48366,0 4.96731,0 7.45097,0c-0.79758,3.69549 1.06151,7.21502 5.57732,11.73082c1.39867,1.39867 3.78075,1.35304 5.7569,1.43923c8.70919,0.37982 22.06315,2.31653 31.24228,-1.04636c-1.54568,1.29375 -3.13596,1.82383 -3.13596,1.82383z" fill="#fffaae" stroke="none" stroke-width="0.5"/><path d="M268.26133,414.02754c-1.27903,0.31747 -2.65345,-0.17279 -3.95329,0.04431c-1.2835,0.21436 -2.41723,1.03754 -3.70352,1.23451c-4.608,0.7056 -10.34491,0.1115 -14.96276,0.1115c-6.17251,0 -12.34504,0 -18.51755,0c-1.64601,0 -3.63838,1.01011 -4.93802,0h-6.17251c-4.76917,0 -8.63535,-3.86618 -8.63535,-8.63535c0,-4.76917 3.86618,-8.63535 8.63535,-8.63535h0.32232c0.39619,-1.80033 4.88449,-4.62261 5.91155,-5.78055c0.90732,-1.02293 -0.03722,-2.73442 -0.05517,-4.10164c-0.02353,-1.79226 0.22132,-4.84333 0.06023,-5.00442c-1.60938,-1.60938 -6.01802,-9.72138 -6.34638,-10.49301c-0.43408,-1.02009 -0.79992,-2.51727 -1.21748,-2.66988c-0.97331,-0.35571 -4.5755,-1.52898 -5.59707,-1.82192c-1.76899,-0.5073 -9.50393,-1.98935 -11.74426,-2.34951c-1.63132,-0.26225 -3.15297,-0.98951 -4.73461,-1.46738c-2.25605,-0.68162 -5.00916,-0.45391 -6.7783,-2.011c-8.82197,-7.7645 -9.78795,-12.9978 0.95002,-20.43051c2.26631,-1.56871 5.49052,-0.5059 8.24261,-0.65733c9.39999,-0.51723 18.97948,0 28.39357,0c10.28753,0 20.57506,0 30.86258,0c2.46901,0 4.93802,0 7.40702,0c1.23451,0 2.48455,-0.19532 3.70351,0c0.25307,0.04055 0.18223,0.79421 0.39891,0.65733c0.984,-0.62161 1.36368,-2.10439 2.469,-2.46901c2.22819,-0.73504 4.66623,-0.51362 7.00812,-0.65732c1.23218,-0.07561 2.48455,-0.19532 3.70352,0c0.25307,0.04055 0.18222,0.79421 0.3989,0.65732c0.984,-0.62161 1.36151,-2.11108 2.46901,-2.46901c2.18253,-0.70537 4.59533,-0.17827 6.85939,-0.54582c5.08512,-0.82555 9.65289,-3.97333 14.92939,-3.44448c1.23451,-0.82299 2.29617,-1.99921 3.70352,-2.46901c1.09902,-0.36688 2.4118,0.53272 3.47516,0.07262c1.47957,-0.64019 2.23514,-2.40809 3.66102,-3.16031c1.96657,-1.03745 4.14477,-1.68844 6.32801,-2.10934c0.61005,-0.11761 1.21609,0.8019 1.78214,0.54582c1.06043,-0.47973 1.38334,-2.0495 2.46901,-2.469c1.56775,-0.60579 3.40312,0.01774 5.02412,-0.42632c3.10947,-0.85184 5.59385,-3.23746 8.55541,-4.51169c2.54045,-1.09305 4.92807,-2.06377 7.21578,-3.18893c1.78333,-2.30268 4.46862,-3.19777 4.46862,-3.19777l1.69336,-0.56163c0.16719,-0.12855 0.33407,-0.25959 0.50068,-0.39324c4.33238,-3.47581 10.54011,-6.87339 12.56507,-11.99781c0,0 0.22024,-0.44046 0.66068,-1.05842c-2.43181,-6.10187 -6.52234,-11.62037 -9.45607,-17.46679c-0.68416,-1.78744 -1.0607,-3.72543 -2.05248,-5.3623c-1.30393,-2.15203 -3.35345,-3.77368 -4.75088,-5.8662c-1.41636,-2.12088 -2.55074,-4.44756 -4.18776,-6.40318c-1.64053,-1.95982 -2.50583,-4.74569 -4.69808,-6.05955c-2.99783,-1.79667 -6.31693,-3.1085 -9.06706,-5.2653c-0.77643,-0.60892 -1.22009,-1.59795 -2.04347,-2.14173c-1.53562,-1.01416 -3.41073,-1.44232 -4.93802,-2.46901c-1.78647,-1.20092 -3.03939,-3.13388 -4.91729,-4.18611c-2.21461,-1.24088 -5.51753,-0.11094 -7.47491,-1.26807c-2.31823,-1.37046 -3.46523,-4.13291 -5.37475,-6.0319c-1.41529,-1.40748 -5.66874,-0.77611 -6.41305,-1.12079c-4.57594,-2.11902 -9.0829,-8.1533 -12.67753,-11.74793c-2.36735,-2.47818 -3.99798,-5.57209 -5.83726,-8.46396c-1.59596,-2.50929 -4.78946,-3.92822 -5.91068,-6.68259c-1.32908,-3.265 -0.89095,-10.60817 -0.65732,-14.41514c0.14372,-2.34188 -0.47529,-4.95329 0.65732,-7.00812c1.62532,-2.9487 4.19373,-5.5171 7.14242,-7.14242c3.42944,-1.8903 11.60133,-0.65732 15.64964,-0.65732c13.16803,0 26.33607,0 39.5041,0c5.34613,0 10.70375,-0.0697 16.04855,0c1.51393,0.01975 3.05956,0.47539 4.53951,0.15582c2.16607,-0.46775 4.01761,-1.95225 6.17251,-2.46901c0.67839,-0.16269 1.37571,0.73835 2.03191,0.50152c0.52125,-0.18814 0.26101,-1.19248 0.72444,-1.49635c2.18728,-1.43415 4.56452,-2.58677 6.99119,-3.56261c2.90429,-1.16791 5.33237,-0.70838 7.82286,-2.6099c1.54711,-1.18126 2.59329,-2.96397 4.21282,-4.04382c1.08268,-0.72189 2.61939,-0.51477 3.70351,-1.2345c1.54383,-1.02494 2.36261,-2.98377 3.98876,-3.87232c2.06817,-1.13008 4.52225,-1.32938 6.7783,-2.011c10.35451,-3.12838 22.47087,-1.57888 33.27692,-1.57888c3.62494,0.07946 7.36114,0.50593 10.71162,1.89183c1.27961,0.5293 2.30613,1.59755 3.61741,2.04269c0.54763,0.1859 1.14154,-0.21094 1.71952,-0.231c3.29003,-0.11416 6.58402,0 9.87603,0c6.91763,0 14.30115,0.72651 21.16597,0.0647c4.30964,-0.41548 8.61476,-4.74806 12.65064,-6.00621c1.01457,-0.31628 2.1784,0.47995 3.18512,0.13952c1.4055,-0.47529 2.27722,-2.0603 3.70351,-2.46901c3.32255,-0.95208 15.67892,-0.90559 18.38699,-0.05719c7.1327,2.23458 10.00519,6.02939 14.91158,10.85742c0.94158,0.94158 5.40318,5.36555 5.83726,5.99495c1.0448,1.51494 1.40017,3.43993 2.46901,4.93802c1.08241,1.5171 2.91838,2.41936 3.9073,3.99901c1.28283,2.04915 1.60985,4.58437 2.78785,6.69553c1.00255,1.79673 2.71327,3.13447 3.70351,4.93802c0.60011,1.09299 5.66933,13.98526 5.88956,14.9427c0.38765,1.68532 -0.29411,3.49191 0.04431,5.1878c0.5093,2.55224 2.0416,4.83979 2.46901,7.40702c0.3918,2.3534 -0.47128,4.80996 -0.04431,7.15724c0.39658,2.18023 2.03681,3.99907 2.46901,6.17251c0.4296,2.16043 -0.2857,4.43436 0.07234,6.60779c1.117,6.78047 3.94747,13.21217 4.96992,20.00752c0.84267,5.60059 0.05156,11.32717 0.05156,16.9908c0,9.46453 0,18.92905 0,28.39357c0,9.05303 0,18.10605 0,27.15908c0,0.60848 0.02221,11.45761 -0.0647,12.16562c-0.83601,6.81039 -3.34942,13.32785 -5.21769,19.87679c-0.80414,2.81877 -1.77848,5.6145 -2.18933,8.51678c-0.21657,1.52987 0.24739,3.14369 -0.16631,4.63242c-0.5859,2.10845 -2.01532,3.89754 -2.77439,5.95002c-1.98726,5.37341 -3.73805,10.88515 -7.26612,15.63271c-1.38846,1.86838 -3.53193,3.08287 -4.93802,4.93802c-2.18866,2.88765 -3.00184,6.75898 -5.52023,9.36405c-2.43039,2.51404 -5.33801,4.51823 -8.00701,6.77735c-7.24979,7.19638 -15.97981,12.13916 -24.29117,17.95589c-5.77958,4.04486 -8.78572,7.4793 -16.35066,9.93821c-2.66093,0.86492 -5.59123,0.25025 -8.38893,0.28928c-4.11461,0.05741 -8.23002,0 -12.34503,0c-14.40254,0 -28.80508,0 -43.20762,0c-36.62359,0 -73.2472,0 -109.87079,0c-5.90931,-0.10423 -11.95305,-1.03859 -17.61653,-2.93641c-1.48094,-0.49626 -2.61978,-1.79649 -4.11952,-2.23261c-1.61388,-0.4693 -3.55088,0.38264 -5.02412,-0.42632c-2.56848,-1.41036 -4.83151,-3.50537 -6.51006,-5.90716c-2.45957,-3.51932 -2.68863,-7.83229 -2.62212,-12.03534l-0.00002,-0.00003c-1.47552,0.15531 -8.39386,0.46706 -9.66061,-7.13343c-0.13485,-0.8091 -0.18003,-1.55414 -0.15137,-2.24001c-1.50072,0.64111 -2.93091,1.50051 -4.5118,1.8929zM394.64481,276.42627c1.71728,0 3.34676,-0.37596 4.81062,-1.05007c6.95428,4.17257 24.83627,5.00667 27.41658,-5.31461c1.74425,-6.97697 0.91713,-22.51645 -2.88173,-28.84788c-1.60225,-2.67042 -4.23906,-5.14984 -5.7042,-8.08013c-2.22505,-4.45011 -4.55816,-9.37336 -9.24569,-12.18586c-5.48468,-3.29081 -14.84351,-4.80991 -21.04071,-3.43277c-3.34142,0.74254 -6.5583,1.63547 -9.74398,2.76825c-1.47306,0.52381 -2.40022,2.91954 -3.79953,4.01255c-6.4237,5.01754 -14.5133,18.12318 -14.58313,26.66194c-0.03131,3.8286 -1.61003,17.20378 2.86646,21.02735c8.52857,7.28461 22.22177,4.44123 31.90531,4.44123z" fill="#b46000" stroke="none" stroke-width="0.5"/><path d="M175.28126,343.82284c0,-6.52912 4.93662,-8.12163 7.34478,-8.51005c0.51667,-0.49862 1.06467,-0.95403 1.68872,-1.30463c8.15589,-4.58214 20.18479,-2.52418 29.22994,-2.52418c6.24575,0 14.63323,-1.30693 20.58765,0.65732c1.10531,0.36462 1.40858,1.98927 2.46901,2.46901c0.56605,0.25608 1.16569,-0.62321 1.78213,-0.54582c1.29115,0.16209 2.42427,0.99601 3.70351,1.2345c3.35105,0.62473 7.51182,-0.1115 10.96181,-0.1115c6.17251,0 12.34503,0 18.51755,0c2.88051,0 5.76101,0 8.64152,0c1.92537,0 3.92025,0.67602 5.77401,0.15582c2.13359,-0.59874 4.012,-1.97626 6.17251,-2.46901c2.07593,-0.47345 5.09911,-0.17367 7.40702,0c3.28999,-1.43606 6.71274,-2.56618 9.95787,-4.10095c2.20395,-1.04236 3.5486,-3.40988 5.65282,-4.6412c2.24624,-1.31443 5.154,-1.16622 7.40702,-2.46901c2.01516,-1.16524 2.97184,-3.69189 4.93802,-4.93802c0.87123,-0.55217 2.14701,-0.17409 3.00177,-0.7514c0.47334,-0.31969 0.23835,-1.13725 0.52556,-1.63096c0.8887,-1.52769 1.85716,-3.02002 2.97597,-4.3882c2.21268,-2.70584 5.45425,-4.38664 7.97898,-6.80392c3.12255,-2.98965 2.62844,-5.11632 5.27327,-8.81909c0.89865,-1.25812 2.49341,-1.91597 3.3632,-3.1942c0.57569,-0.84602 0.36188,-2.04401 0.8229,-2.9576c0.84065,-1.66583 2.02749,-3.13305 3.04123,-4.69959c0,0 4.79003,-7.18505 11.97508,-2.39502c7.18505,4.79003 2.39502,11.97508 2.39502,11.97508c-1.52737,2.18014 -2.08145,4.93199 -3.54289,7.15686c-1.06866,1.62692 -2.91243,2.62888 -4.04382,4.21282c-2.52272,3.5318 -4.0464,7.82091 -7.07176,10.93296c-2.04444,2.10302 -5.048,3.21542 -6.83505,5.54112c-2.41706,3.14558 -2.98044,5.91046 -6.37449,8.79487c-1.20097,1.02064 -3.0273,0.95255 -4.40524,1.71761c-2.03517,1.12994 -2.94756,3.73105 -4.93802,4.93802c-2.2254,1.34943 -5.21354,1.06831 -7.40702,2.46901c-2.38697,1.52427 -4.17635,3.93425 -6.69221,5.23482c-1.98422,1.02574 -12.93412,5.09479 -14.7322,5.77507c-2.46796,0.07205 -5.02984,-0.6671 -7.40702,0c-2.13359,0.59874 -4.012,1.97626 -6.17251,2.46901c-5.31771,1.21278 -12.23817,0.15582 -17.68155,0.15582c-7.40702,0 -14.81404,0 -22.22106,0c-1.03542,0 -9.06098,0.03607 -10.02476,-0.1115c-1.28629,-0.19697 -2.4253,-0.99056 -3.70351,-1.2345c-1.85037,-0.35314 -3.8596,0.11172 -5.62488,-0.54582c-1.09069,-0.40626 -1.485,-1.8474 -2.46901,-2.46901c-0.21669,-0.13688 -0.14453,0.62599 -0.39891,0.65732c-1.63366,0.20122 -3.29201,0 -4.93802,0c-2.88051,0 -5.76101,0 -8.64152,0c-4.52651,0 -9.05303,0 -13.57954,0c-2.697,0 -5.79296,-1.11429 -7.47342,1.17427l-8.57512,2.52924c0,0 -8.63535,0 -8.63535,-8.63535z" fill="#fffaae" stroke="none" stroke-width="0.5"/><path d="M278.4144,200.85545c-4.61867,-1.15466 -10.76058,-2.53651 -13.46588,-7.04534c-2.63067,-4.38446 -1.04416,-12.78794 4.60331,-14.31443c0.23821,-0.06439 0.47901,-0.12456 0.7221,-0.18046c1.57573,-1.683 3.8175,-2.73469 6.30492,-2.73469h1.66982c2.42479,-1.63537 5.27256,-1.63537 5.27256,-1.63537c1.61026,0 3.25782,0 4.93518,0c0.06892,-0.03872 0.13851,-0.07582 0.20891,-0.11102c0,0 4.48901,-2.24451 8.33364,0.11102c12.83421,0 26.59921,0 38.37141,0c6.18854,0 13.73222,1.41526 19.49032,-0.79137c1.68367,-0.52205 3.30759,-1.30581 5.05101,-1.56614c0.61447,-0.09175 1.16124,0.56778 1.78213,0.54582c0.22767,-0.00805 -0.46274,-0.41019 -0.33251,-0.59709c0.66541,-0.95493 1.646,-1.646 2.46901,-2.46901c1.646,-1.646 3.25016,-3.33494 4.93802,-4.93802c1.32462,-1.25809 2.49258,-2.73001 4.03525,-3.70856c1.26841,-0.80457 2.92653,-0.80138 4.23566,-1.53785c3.18475,-1.79163 5.77518,-4.47923 8.70254,-6.66628c3.14419,-2.34906 5.60997,-5.86086 9.28362,-7.24226c2.25014,-0.84613 4.81039,-0.23443 7.18752,-0.59263c1.67772,-0.25281 3.25638,-1.00918 4.93802,-1.2345c4.57334,-0.61276 10.0618,-0.0647 14.63463,-0.0647c6.62054,0 13.16961,0.04106 19.78543,0.37053c2.98765,1.80527 4.0492,3.12428 7.19423,3.39769c1.94907,0.16944 3.9662,-0.29727 5.86691,0.16631c1.78787,0.43606 3.15308,2.02106 4.93802,2.46901c1.76467,0.44286 3.70658,-0.35879 5.4564,0.13952c1.42695,0.40637 2.29957,1.98911 3.70351,2.46901c0.77708,0.26562 1.61544,-0.32931 2.43563,-0.37053c2.87687,-0.14457 5.7692,-0.21699 8.64152,0c0.4178,0.03156 0.81591,0.53535 1.20112,0.37053c1.36407,-0.58363 2.29472,-2.00355 3.70351,-2.46901c0.92275,-0.30487 1.9913,0.62787 2.90129,0.2868c0.6906,-0.25884 0.59597,-1.46628 1.23374,-1.83665c2.2506,-1.30695 4.91103,-1.73191 7.40702,-2.46901c2.43368,-0.7187 1.92601,-4.89613 3.81999,-6.58496c1.80084,-1.60577 4.42045,-1.9354 6.63067,-2.9031c0,0 8.19221,-2.73074 10.92295,5.46148c2.73074,8.19221 -5.46148,10.92295 -5.46148,10.92295c-1.04008,-0.58156 -1.19159,2.06974 -1.89789,3.02948c-1.35536,1.84169 -3.02195,3.51211 -4.93449,4.76549c-2.17676,1.42655 -5.19831,1.09244 -7.40702,2.46901c-1.36669,0.85178 -2.21567,2.48704 -3.70428,3.10136c-1.39114,0.5741 -3.07902,-0.19214 -4.50573,0.2868c-1.40655,0.47217 -2.27722,2.0603 -3.70351,2.46901c-1.28044,0.36691 -2.87232,0.54646 -4.57929,0.61767l-3.0091,2.00606c-7.11125,4.52426 -13.71144,5.66693 -22.07307,5.15382c-2.34188,-0.14372 -4.77993,0.07771 -7.00812,-0.65732c-1.10531,-0.36462 -1.4043,-1.99882 -2.46901,-2.46901c-0.53688,-0.23709 -1.08894,0.43822 -1.63341,0.65732c-4.75979,-0.19333 -9.60981,-1.64149 -13.6907,-4.09899c-0.73609,-0.44328 -0.91324,-1.56128 -1.67445,-1.95989c-0.82757,-0.43334 -1.86384,-0.17806 -2.77776,-0.37146c-4.79766,-1.01525 -9.01062,-0.97667 -13.95416,-0.97667c-0.66763,0 -7.31875,-0.49018 -7.80516,-0.05517c-2.1926,1.96081 -3.2089,5.04347 -5.47078,6.92393c-1.00064,0.8319 -2.68132,0.42923 -3.70351,1.2345c-0.87862,0.69216 -0.81682,2.15293 -1.60449,2.94705c-2.06547,2.08237 -4.99682,3.25565 -6.83505,5.54112c-2.67814,3.32971 -4.52733,7.4263 -7.80142,10.17217c-2.19482,1.84072 -5.3201,2.23958 -7.66616,3.88319c-2.67926,1.77325 -5.71144,2.97255 -8.38238,4.75833c-1.13452,0.75854 -1.77285,2.16949 -2.97831,2.80931c-2.14111,1.13645 -4.48849,1.91159 -6.86015,2.41268c-0.69847,0.14757 -9.2468,0.1115 -10.02476,0.1115c-4.35496,0 -9.08802,0.51305 -13.40013,-0.0647c-1.68164,-0.22531 -3.25608,-1.01145 -4.93802,-1.2345c-4.47421,-0.59335 -9.36454,1.01729 -13.79232,-0.30583c-1.31772,-0.39376 -2.40385,-1.29835 -3.54553,-2.09501c-7.26345,1.61839 -15.41354,1.2588 -22.45366,-1.44529c-2.78133,-0.09498 -5.46318,-0.87435 -7.31555,-2.26361z" fill="#fffaae" stroke="none" stroke-width="0.5"/><path d="M362.29574,287.92368c7.18505,4.79003 2.39502,11.97508 2.39502,11.97508l-2.2307,3.04373c-0.83964,0.82597 -1.99951,1.43707 -2.48827,2.50866c-1.41061,3.09273 -0.27936,6.50643 -0.89712,9.71881c-0.59106,3.07356 -1.70441,6.07766 -3.19758,8.8284c-1.60082,2.94906 -3.69463,5.63033 -5.91936,8.14234c-0.82936,0.93646 -2.73187,1.70678 -3.41924,3.02045c-5.59363,10.69009 -17.03097,18.36255 -29.34451,18.68466c-13.62921,0 -27.25842,0 -40.88762,0c-4.22293,0 -8.44652,0.02005 -12.66941,0c-1.30906,-0.00622 -2.73117,-0.4886 -3.92697,0.04406c-2.05612,0.9159 -4.08636,1.98088 -6.28181,2.47734c-3.36769,1.34708 -6.56892,1.52158 -10.0206,2.36861c-5.61107,1.37694 -9.66524,3.61108 -15.75031,3.13029c-5.67193,-0.44814 -10.68874,-2.71745 -16.00676,-4.34714c-1.29427,-0.39663 -2.70356,-0.42683 -3.94349,-0.96998c-0.63251,-0.27707 -0.84586,-1.22811 -1.50957,-1.4187c-1.14799,-0.32965 -2.46144,0.36729 -3.58291,-0.04365c-1.36906,-0.50167 -2.22539,-1.94005 -3.54177,-2.56705c-1.89089,-0.90064 -4.12963,-0.77034 -6.1206,-1.42047c0,0 -8.19221,-2.73074 -5.46148,-10.92295c2.73074,-8.19221 10.92295,-5.46148 10.92295,-5.46148c2.51113,0.862 5.26824,0.97058 7.70057,2.03482c0.92006,0.40256 1.27216,1.69981 2.21705,2.04c1.04373,0.37579 2.26815,-0.37229 3.32767,-0.04365c1.18021,0.36607 1.97129,1.52807 3.09748,2.0366c4.13198,1.8658 9.98629,3.34865 14.60268,3.897c3.4396,0.40857 6.4063,-1.82359 9.58849,-2.62853c3.73609,-0.94505 6.0707,-0.84297 9.55939,-2.23844c4.11554,-0.65243 6.4142,-2.69878 10.96249,-3.20798c6.3838,-0.7147 13.28643,-0.02942 19.71636,-0.02942c12.66941,0 25.33881,0 38.00821,0c4.611,0.34364 11.16524,-3.9495 13.5226,-7.63598c0.47266,-0.73915 0.42388,-1.73648 0.89992,-2.47346c2.61004,-4.04079 6.78733,-6.54037 9.08963,-10.72073c2.2118,-4.01604 0.88745,-8.68843 2.11883,-13.06264c1.45948,-5.18448 3.72857,-8.21602 7.42289,-11.95205l0.07284,-0.41156c0,0 4.79003,-7.18505 11.97508,-2.39502z" fill="#fffaae" stroke="none" stroke-width="0.5"/><path d="M-16.72982,302.67726c0.51486,0.11441 1.20726,0.29032 1.99231,0.52896c2.01465,0.13835 3.83935,0.96772 5.23879,2.25286c2.45112,1.5117 4.16658,3.62087 2.7962,6.36195c0,4.16922 -2.95465,7.64834 -6.88426,8.4577c-0.40433,0.13049 -0.82669,0.21046 -1.26836,0.23145c-2.21791,0.1054 -9.86355,4.76073 -12.6131,5.44812c-7.77859,1.94465 -16.38171,1.88887 -24.69318,1.77187c-10.67136,-0.15022 -18.51822,-6.88709 -24.98223,-14.46873c-3.45895,-4.05699 -6.85706,-9.83785 0.18929,-14.53541c11.57805,-7.71869 14.46809,11.68449 24.11125,11.45138c4.39866,-0.10633 8.79907,0.4206 13.19684,0.28205c3.00311,-0.09461 6.05101,-1.4411 8.93089,-1.81844c4.63432,-0.60723 8.40441,-5.65212 13.51813,-5.65212z" fill="#fffaae" stroke="none" stroke-width="0.5"/><path d="M-66.93262,300.69757c-0.29725,0.05361 -0.49948,0.05361 -0.49948,0.05361c-4.50821,-0.09317 -12.09496,-1.68759 -8.58353,-8.84019c1.56197,-3.18167 5.34308,-2.11223 7.80635,-2.66049c1.89525,-0.42184 2.59644,-3.02655 4.33542,-3.89019c1.61589,-0.80251 3.55794,-1.20354 5.33684,-0.90246c1.65932,0.28083 3.12565,1.40102 4.36109,2.54379c0.68042,0.62938 0.48509,1.87699 1.13386,2.53897c1.60811,1.64083 5.52361,-0.09684 6.61878,1.92282c1.05772,1.95055 0.4688,4.65 -0.52018,6.63629c-0.73939,1.48503 -2.63033,2.08242 -4.15099,2.74544c-4.17382,1.81984 -9.8217,0.4653 -14.21226,0.4378c-0.47024,-0.24789 -1.0373,-0.42454 -1.6259,-0.58535zM-52.97399,295.41263c-0.07499,0.00829 -0.14974,0.01429 -0.22435,0.01797c-0.00364,0.01651 -0.00743,0.03298 -0.01135,0.04938c0.02885,-0.00738 0.05768,-0.01486 0.08648,-0.02244c0.05034,-0.01325 0.10003,-0.02834 0.14921,-0.04492z" fill="#9e5400" stroke="#9e5400" stroke-width="0.5"/><path d="M-45.84747,298.77786c2.45897,-0.20877 6.62517,3.94797 5.19709,6.75718c-0.70336,1.38361 -2.83413,1.26652 -4.25118,1.89979l-2.87717,-1.01705c0,0 -0.04835,-0.01933 -0.12726,-0.05948c-0.04068,0.00222 -0.08164,0.00334 -0.12286,0.00334c-1.22724,0 -2.22214,-0.99488 -2.22214,-2.22214c0,-0.88708 0.51979,-1.65275 1.27142,-2.00907l1.57167,-0.78584c0.48006,-0.96247 0.55908,-2.48173 1.56044,-2.56675z" fill="#9e5400" stroke="#9e5400" stroke-width="0.5"/><path d="M292.95489,339.82952c-2.10888,0.0099 -6.58151,0.02791 -7.30128,-0.49717c-4.92228,-3.5908 -1.76166,-11.31172 1.52774,-14.40876c0.85778,-0.80761 2.23597,-0.79339 3.24381,-1.40354c2.18665,-1.32383 4.16421,-3.25967 6.66373,-3.79481c1.87707,-0.40188 3.8771,0.37953 5.75882,0c3.61714,-0.72955 6.46242,-4.17616 10.60078,-1.98185c1.30709,0.69307 1.65807,2.45429 2.57825,3.6128c1.22093,1.53717 3.6401,1.7288 4.9495,3.19135c2.8221,3.15218 1.84852,5.60339 1.56494,9.30748c-3.63062,2.202 -6.4869,4.90724 -10.80315,5.38232c-5.14867,0.56671 -9.95604,-0.70205 -14.92221,1.01806l-2.06201,0.14771c0,0 -0.98206,0 -1.79893,-0.57362z" fill="#9e5400" stroke="#9e5400" stroke-width="0.5"/><path d="M-134.40903,203.33366c-2.76614,-0.0114 -5.57243,-0.11954 -8.41098,-0.11954c0,0 -9.88779,0 -9.88779,-8.63535c0,-8.63535 9.88779,-8.63535 9.88779,-8.63535c4.19903,0 9.87404,0.80016 13.91563,0.231c1.77218,-0.24956 2.74555,-2.03746 4.26782,-2.86826c3.83617,-2.09368 7.28669,-4.24665 10.95652,-6.63111c7.40203,-4.80944 15.96796,-7.93068 24.36455,-11.17929c4.38703,-1.69733 7.64104,-3.66839 12.57042,-3.66839c3.85234,-2.21169 7.78367,-2.68462 12.04444,-3.79996c3.24606,-0.84973 6.34463,-2.25437 9.70306,-2.64946c11.61395,-1.3663 24.5626,-0.0647 36.28077,-0.0647c5.67857,0 14.77377,-1.13004 19.97126,0.65732c2.26847,0.78011 3.62198,2.86323 5.59479,4.11421c2.1696,1.37577 5.1246,1.65311 7.1944,3.14155c2.39652,1.72341 4.28004,3.9282 6.42006,5.89229c2.57997,7.75839 4.06998,15.598 -1.65555,22.85902c-1.32743,1.68342 -3.52519,2.69455 -5.38979,3.9299c-2.36198,1.56489 -4.52784,3.49881 -7.27907,4.4636c-2.07529,0.72776 -4.47981,0.14023 -6.6905,0.43522c-2.27942,0.30418 -4.50519,0.86393 -6.74086,1.35712c-2.46401,0.54357 -4.85461,1.35726 -7.3554,1.75254c-2.96933,0.46934 -3.71537,-0.40876 -6.25618,0.40145c-1.56064,0.49765 -2.91327,1.48957 -4.5344,1.80717c-3.15897,0.61889 -8.73719,-0.80389 -11.69088,0c-1.27989,0.34834 -2.27851,1.35993 -3.59719,1.57078c-2.19602,0.35112 -4.49546,-0.24854 -6.69699,0.0752c-1.59189,0.23409 -2.91957,1.26921 -4.4965,1.57078c-2.94745,0.56366 -4.52586,-0.5927 -7.22671,0.76459c-1.40265,0.70487 -2.46857,1.82805 -3.70286,2.74208c-5.75238,2.51187 -10.19925,6.53311 -15.43137,9.74262c-2.10143,1.28906 -2.94536,3.74934 -4.93709,5.16502c-5.85297,4.16018 -13.67375,6.8022 -19.64755,10.74169c-1.53668,1.01339 -2.53074,2.61442 -4.18037,3.48187c-1.82106,0.95759 -4.10712,1.03823 -6.00511,1.87412c-1.44956,0.63841 -2.45069,1.93339 -3.9367,2.50433c-7.47813,2.87322 -19.99138,2.92717 -25.91451,-2.73549c-2.30154,-2.20032 -3.25655,-5.28509 -4.23172,-8.14102c-1.28197,-3.75437 -0.16343,-10.43382 -0.13029,-14.26475c0.67372,-2.38356 0.72327,-4.9729 2.02116,-7.15069c1.70245,-2.85665 5.22256,-4.78248 7.64523,-7.18216c1.13631,-1.12552 2.06585,-2.41812 3.18847,-3.54996z" fill="#b46000" stroke="none" stroke-width="0.5"/><path d="M-20.50578,210.00845c-2.56176,0.09252 -5.67349,1.53284 -8.02483,2.11004c-6.10479,1.49859 -12.62189,1.88459 -18.51609,3.3453c-16.5941,4.11237 -30.26959,19.34678 -45.31879,26.59355c-6.53499,3.14686 -15.55375,10.0124 -22.71786,4.94036c-2.33334,-1.65195 -5.09495,-3.39724 -5.85623,-6.05665c-6.34322,-22.15898 28.56842,-38.03766 47.06458,-45.76723c4.20572,-1.75757 9.26715,-2.38096 13.57332,-3.88228c5.54772,-1.93418 11.66355,-4.39089 17.68789,-4.46375c10.75694,-0.13008 21.5165,0.09639 32.27391,0c6.94821,-0.06227 12.59294,-6.78162 17.86917,-9.08557c2.21383,-0.9667 6.87604,-4.07997 9.75202,-3.24275c6.2897,1.83101 14.48176,8.46858 6.55886,14.39945c-0.25956,1.19529 -0.80121,2.30338 -1.56219,3.26948c-11.69156,15.31597 -22.10867,17.09335 -42.78375,17.84005z" fill="#9e5400" stroke="none" stroke-width="0.5"/><path d="M-28.01929,175.52159c-1.82337,0.39811 -4.81438,1.12341 -6.78627,1.14867c-9.71583,0.12444 -19.43488,0.12931 -29.15062,0c-3.09186,-0.04115 -6.50044,-3.17684 -7.85112,-3.18229c-0.90342,-0.00364 -6.30406,0.27231 -10.8056,0.06401c-1.74453,0.53109 -3.63273,0.94219 -5.51048,1.15512c-2.58519,1.7969 -4.81359,4.18965 -7.26421,6.02411c-7.15531,5.35627 -15.84937,13.95374 -25.91442,14.82413c-0.8723,0.07544 -14.12051,1.6803 -15.86422,-0.98467l-4.86938,-7.44207c1.42989,-2.18537 1.92096,-5.19619 3.91698,-6.88378c0.30441,-0.25737 0.64383,-0.48396 1.0269,-0.67215c5.95116,-2.92357 12.29482,0.2183 17.82645,-3.63257c7.00924,-4.87953 19.14379,-17.95603 28.22147,-19.93799c0.18626,-0.04067 0.37362,-0.0803 0.56201,-0.11891c0.8923,-0.2353 1.76836,-0.39391 2.601,-0.46159c11.17323,-1.70021 25.14455,-0.4769 34.85607,-0.56817c7.96848,-0.07487 19.10865,-5.43104 26.68248,-4.91646c2.07403,0.14091 4.09655,-1.0473 6.14417,-1.0473c3.84876,0 26.14955,-2.50605 34.66328,3.32577c0.69531,0.22705 1.35352,0.52052 1.96451,0.87154c1.8187,0.57089 3.39038,1.59407 4.5372,2.91421c0.2947,0.26585 0.55415,0.56228 0.76964,0.89684c3.61911,5.61892 0.30433,14.77147 -8.65182,14.77147c-2.93379,0 -5.36851,-1.01385 -7.10496,-2.57358c-2.465,-0.38717 -4.79471,-1.26588 -6.53597,-2.65828c-4.89503,-0.15424 -9.63269,-0.05202 -14.29114,0.25722c-3.76558,3.75082 -7.40539,7.56765 -13.17198,8.8267z" fill="#fffaae" stroke="none" stroke-width="0.5"/><path d="M-83.9621,154.06166c1.82825,-2.39502 4.57063,-0.79834 4.57063,-0.79834l0.00444,0.00289c4.66418,-1.13915 14.16982,-2.20314 11.98263,5.35516c-0.8621,2.97917 -9.17201,3.69081 -11.63223,2.76141c-1.53992,-0.58173 -2.33251,-2.10682 -3.49878,-3.16022l-0.51257,-0.16922c0,0 -2.74238,-1.59668 -0.91414,-3.9917z" fill="#9e5400" stroke="#9e5400" stroke-width="0.5"/><path d="M350.87167,180.2212c-0.73016,0.3761 -1.47134,0.3761 -1.47134,0.3761c-5.96271,0 -14.66783,-0.14707 -11.28542,-9.26396c0.53973,-1.45478 1.7355,-2.65765 2.99559,-3.56311c0.84721,-0.60877 2.15209,-0.21158 3.03374,-0.76932c2.00439,-1.26801 2.40162,-4.3293 4.41862,-5.57715c1.36333,-0.84344 3.06897,-0.97316 4.65424,-1.21191c2.21532,-0.33364 4.52548,0.15197 6.71394,0.35839c0.70033,0.06605 1.53347,0.54126 2.10612,0.13274c1.1639,-0.83029 1.11667,-3.42685 2.54616,-3.45158c2.10274,-0.0364 4.04472,1.68032 5.36833,3.3146c0.8953,1.10543 0.58741,2.78984 0.72263,4.20592c0.34447,3.6075 -0.4918,7.57355 -0.83487,11.13565c-6.40513,3.50214 -11.8138,4.28969 -18.96774,4.31362z" fill="#9e5400" stroke="#9e5400" stroke-width="0.5"/><path d="M330.63774,179.305l-0.28787,0.12769c-1.44369,0.55309 -2.06721,1.01958 -3.70447,0.6783c-1.00745,-0.21 -2.40923,-0.14125 -2.90595,-1.04253c-1.7239,-3.12797 0.97155,-2.53682 1.73288,-3.9171c0.25199,-0.45686 -0.01453,-1.10194 0.26467,-1.5427c0.48772,-0.76996 1.11935,-1.52596 1.93579,-1.93111c2.37701,-1.17957 5.51077,0.39879 6.16372,2.97795c0.2481,0.97997 -0.43419,2.94567 -0.73829,3.96622c0,0 -0.42811,1.42703 -1.85514,0.99893c-0.25786,-0.07736 -0.45516,-0.18734 -0.60535,-0.31563z" fill="#9e5400" stroke="#9e5400" stroke-width="0.5"/><path d="M-50.48772,388.42581c-5.21538,3.4917 -10.82235,5.71531 -17.30668,7.3364c0,0 -8.37752,2.09438 -10.47191,-6.28314c-2.09438,-8.37752 6.28314,-10.47191 6.28314,-10.47191c5.93129,-1.48282 10.64687,-3.42637 15.18461,-7.48159c1.09839,-0.9816 2.26148,-1.89719 3.4853,-2.71711c0.10795,-0.07233 0.3743,0.26729 0.3647,0.13771c-0.23449,-3.1643 -0.45833,-5.90281 0.37842,-9.04598c0.1998,-0.75054 -1.33939,-0.83069 -1.85137,-1.41472c-1.83451,-2.09268 -3.52989,-4.31528 -5.49772,-6.28312l-0.14173,-0.65889l-0.24294,0.18221l-2.30383,-3.07178c-1.11608,-1.45501 -1.77941,-3.27554 -1.77941,-5.251c0,-4.76918 3.86617,-8.63535 8.63535,-8.63535c0.89283,0 1.754,0.13549 2.56409,0.38705l4.35073,1.24306c3.74817,-0.3765 6.7928,1.14933 10.42926,1.55346c7.85382,0.87283 16.37297,-0.04203 24.28153,-0.04203c10.21234,0 19.93076,0.82341 29.12448,-3.80067c2.91217,-1.44908 6.13217,-3.20247 9.29734,-3.8974c4.77473,-1.04832 10.86347,-0.15582 15.77,-0.15582c4.10954,0 8.98462,-0.56412 12.97944,0.231c1.14826,0.22855 1.99875,1.31634 3.14155,1.57078c1.16376,0.2591 2.40772,-0.31328 3.57596,-0.0752c4.94908,1.00863 12.36295,5.19294 17.74614,2.89664c1.91854,-0.81839 3.1248,-2.78458 4.86182,-3.9393c1.71781,-1.14196 3.57886,-2.15299 4.99542,-3.65242c6.75297,-6.70811 13.51887,-18.11064 23.44977,-20.46691c3.48519,-0.82692 7.41263,-3.30363 10.61174,-1.69241c3.4162,1.72055 4.39353,6.35451 5.7477,9.93179c1.71005,4.51741 -1.57789,8.559 -2.52247,12.46376c-0.21879,0.90444 0.28133,1.88316 0.0752,2.79057c-0.56979,2.50817 -1.84166,4.82165 -2.41073,7.32998c-0.41898,1.84674 -0.18921,3.79642 -0.51699,5.65914c0.03414,0.01881 0.06949,0.03872 0.10608,0.05977c1.13477,0.65249 2.17044,1.47846 3.14155,2.35616c1.31765,1.19091 2.46909,2.55373 3.70363,3.8306c1.09461,2.06999 1.74336,4.4048 3.14155,6.28312c3.34618,4.49518 8.49309,10.58248 7.9131,16.83001c-0.27597,2.97282 -0.97331,6.0986 -2.6848,8.54493c-1.49162,2.13206 -11.27289,7.13707 -14.17661,7.7133c-2.31189,0.45879 -4.73177,-0.154 -7.06937,0.14754c-3.78049,0.48764 -7.2265,2.57152 -10.99545,3.14155c-5.56095,0.84107 -12.07622,0.08346 -17.6909,0.08346c-10.47185,0 -20.94371,0 -31.41555,0c-31.67736,0 -63.3547,0 -95.03205,0h-3.92694c0,0 -4.8789,0 -7.30217,-3.66728z" fill="#9e5400" stroke="none" stroke-width="0.5"/><path d="M249.80533,411.89691c-0.27557,0.01953 -0.56089,0.02964 -0.85633,0.02964c-8.63535,0 -8.63535,-8.63535 -8.63535,-8.63535c0.14157,-9.18291 3.22663,-18.90748 12.97312,-22.32921c4.14056,-1.45364 8.45331,0.45481 12.52844,-0.35967c4.76572,-0.9525 9.33966,-2.39446 14.137,-3.14155c2.18487,-0.34026 4.49333,0.6294 6.63323,0.07234c1.36435,-0.35517 2.53663,-1.33709 3.92694,-1.57078c3.03004,-0.5093 6.16344,0.24826 9.21719,-0.09111c2.46656,-0.27412 4.83542,-1.12578 7.27269,-1.59345c2.14851,0.10361 4.17652,-1.03834 6.2864,-1.45699c3.62823,-0.71992 7.48346,0.25536 11.13082,-0.12639c4.68995,-0.49088 8.72814,-2.01521 13.21624,-3.01517c1.02213,-0.22773 2.11931,0.22717 3.14155,0c4.05819,-0.90182 7.88308,-2.43771 12.03061,-3.18587c1.37878,-0.24871 3.22202,1.23 4.1971,0.22398c3.17751,-3.27832 6.46229,-4.16105 10.20089,-6.55938c3.19088,-2.04695 6.43779,-6.33281 8.69895,-9.31534c2.93847,-5.87693 7.36903,-12.23783 11.56782,-17.30977c0.94269,-1.13873 2.20889,-2.01724 3.00068,-3.2656c1.38666,-2.18627 1.04491,-5.56722 1.57618,-7.93332c0.61823,-2.7534 1.7781,-5.36525 2.41073,-8.11538c0.79822,-3.46998 3.24125,-6.61441 3.87238,-9.94857c0.21657,-1.14414 -0.20841,-2.36315 0.0752,-3.49254c0.34214,-1.36253 1.35653,-2.48326 1.76305,-3.82799c1.30655,-4.32195 1.85858,-9.07035 1.99759,-13.55303c-0.41614,-1.5927 -1.43203,-2.97431 -1.95347,-4.53572c-0.3658,-1.0954 -0.59939,-2.26771 -0.87866,-3.43047c0.03981,-0.01779 0.07951,-0.0358 0.1191,-0.05402c6.95428,4.17257 24.83627,5.00667 27.41658,-5.31461c1.74425,-6.97697 0.91713,-22.51645 -2.88173,-28.84788c-1.60225,-2.67042 -4.23906,-5.14984 -5.7042,-8.08013c-2.22505,-4.45011 -4.55816,-9.37336 -9.24569,-12.18586c-5.48468,-3.29081 -14.84351,-4.80991 -21.04071,-3.43277c-1.73194,0.38487 -3.43042,0.81016 -5.10844,1.28829c0.00747,-0.0051 0.01493,-0.01019 0.02239,-0.01528c2.14461,-1.46266 3.42108,-4.05365 5.68685,-5.32054c1.16514,-0.65147 2.7222,-0.21046 3.92694,-0.78539c0.67028,-0.31986 0.92109,-1.1653 1.38164,-1.74796c5.49129,-2.90378 12.16663,-7.71496 18.80816,-3.60499c4.89241,3.02757 7.52298,11.29861 9.82631,16.4975c2.4482,5.52589 3.38966,11.08601 5.11217,16.78468c1.08215,3.5801 2.81182,6.99661 3.41609,10.68755c0.21159,1.29241 -0.40607,2.64223 -0.14754,3.92607c0.23113,1.14775 1.32227,1.99745 1.57078,3.14155c0.56983,2.62344 0.67229,5.32737 0.9517,7.99741c0.21307,2.03617 -0.77542,4.18502 -0.16631,6.1396c0.34834,1.11777 1.3168,1.99865 1.57078,3.14155c0.28395,1.27781 -0.38495,2.67584 0,3.92694c0.68863,2.23803 2.09437,4.18874 3.14155,6.28312c0.326,9.45015 -0.6383,19.22084 0.18898,28.6217c0.31864,3.62094 2.49161,6.87483 3.07208,10.46312c0.99376,6.14308 -1.26739,13.32877 -0.04431,19.38495c0.27908,1.38192 1.33709,2.53663 1.57078,3.92694c0.2008,1.19465 0.15582,10.27772 0.15582,11.84306c0,7.56871 1.41469,16.45472 -2.58717,23.1895c0,3.81505 -2.41844,6.093 -3.14155,9.42467c-0.28451,1.31083 0.30309,2.79654 -0.25579,4.01592c-1.09751,2.39457 -2.98016,4.34564 -4.54704,6.46304c-8.88162,12.00218 -22.51462,21.20793 -37.56079,23.5495c-6.04248,0.94037 -13.34284,0.1115 -19.44718,0.1115c-1.97948,0 -15.38761,0.02844 -16.30561,-0.1115c-2.61136,-0.39808 -4.96344,-1.8536 -7.53775,-2.4457c-3.40273,-0.78264 -7.25357,-0.59346 -10.71374,-0.58435c-7.19509,0 -14.56499,0.48387 -21.74207,-0.01668c-4.42384,-0.30854 -8.69278,-1.79076 -13.08474,-2.40419c-3.73828,-0.52212 -7.58815,0.49524 -11.32358,-0.0468c-1.63859,-0.23777 -3.07535,-1.32226 -4.71233,-1.57078c-9.3313,-1.41662 -19.56257,1.85365 -28.87477,-0.1195c-1.79391,-0.38011 -3.34627,-1.50095 -5.01941,-2.25143l-3.28435,-2.10942c0,0 -1.79542,-1.19694 -2.99292,-3.29166z" fill="#9e5400" stroke="none" stroke-width="0.5"/><path d="M356.48504,243.69752c-2.5591,-0.34347 -5.16365,-0.65272 -7.62735,-1.41455c-1.95626,-0.00456 -3.99869,-0.02 -4.36096,-0.06511c-2.14228,-0.26677 -4.1404,-1.30746 -6.28312,-1.57078c-1.34782,-0.16564 -3.0558,0.73619 -4.07046,-0.16631c-0.48318,-0.42976 -0.94625,-0.87862 -1.39304,-1.34292c-0.05044,-0.00135 -0.10078,-0.00313 -0.151,-0.00534l-0.33381,0.66762l-2.97423,-1.48711c-2.92087,-1.38463 -4.94084,-4.3601 -4.94084,-7.80736c0,-4.76918 3.86617,-8.63535 8.63535,-8.63535h3.14155v0.58924c0.21738,0.08494 0.43048,0.17843 0.63888,0.28007l1.34512,-0.6383c3.97846,1.98923 8.73676,2.21994 13.25261,3.00956c1.7282,-0.01754 3.46407,-0.09901 5.1835,-0.09901c3.66515,0 7.3303,0 10.99545,0c1.4351,0 2.92305,0.63844 4.29911,0.231c0.95368,-0.28238 1.91213,-0.68299 2.86427,-1.15992c-0.08171,0.07527 -0.16494,0.14643 -0.24991,0.2128c-5.24684,4.0983 -11.60509,13.59261 -13.79677,21.58687c-1.29575,-1.01166 -2.59857,-1.97359 -4.17436,-2.18509z" fill="#9e5400" stroke="none" stroke-width="0.5"/><path d="M-120.56664,402.11781c-0.05137,-0.027 -0.10271,-0.05463 -0.154,-0.08288c-1.33872,0.06851 -2.69363,-0.0658 -4.03677,-0.05272c0,0 -8.63351,-0.10124 -8.50442,-8.55455c0.12909,-8.45332 8.7626,-8.35208 8.7626,-8.35208c3.7361,0.21976 5.94644,-1.60071 9.76046,-2.19376c0.85536,-0.13301 4.89569,-1.67773 6.31956,-2.08969c1.71625,-0.49654 9.46172,-1.17546 11.5484,-1.39491c0.85439,-0.08987 5.73338,-1.80127 7.54092,-2.14394c3.23343,-0.61299 13.05779,-1.82053 14.84779,-2.24329c0.99796,-0.2357 16.73734,-1.88748 18.55051,-2.19987c1.44451,-0.24887 11.30492,-0.09361 14.32942,-0.05814c11.93098,0.1399 23.86196,0.2798 35.79294,0.4197c2.8799,0.03377 16.00772,-1.55976 17.79772,-1.98253c4.85101,-1.14572 11.8591,-0.08711 16.7979,-0.0292c13.16521,0.15438 26.33044,0.30874 39.49565,0.46312c18.10218,0.21227 36.20435,0.42453 54.30653,0.63679c10.33943,0.12124 20.27018,0.13263 30.45339,1.60694c1.76816,0.25599 3.64847,-0.15226 5.34893,0.38435c1.41077,0.44519 6.90745,0.94616 7.82288,1.18212c2.14118,0.55191 10.5243,3.14603 13.08535,3.89784c1.41987,0.41681 6.6619,2.0103 8.08657,2.37561c1.77877,0.45611 7.78834,2.21431 9.11896,2.66093c1.40208,0.4706 4.60541,1.20001 5.0236,1.17402c3.28566,-0.20429 6.43121,1.01491 9.72253,1.0535c2.87143,0.03367 4.60607,0.38121 7.3796,-0.35597c1.43279,-0.38082 3.54121,-1.1279 4.96078,-1.55394c1.5403,-0.46228 7.25399,-1.2134 8.54668,-1.36208c1.03918,-0.11954 4.71396,-0.66522 5.25049,-1.04502c1.3491,-0.95495 2.72384,-1.89219 4.19949,-2.64597c2.37998,-1.21573 4.76374,-2.50485 7.33766,-3.24734c0.77456,-0.22344 4.04627,-1.14674 4.8814,-1.94275c6.86547,-0.48928 10.99986,-3.66385 18.04806,-5.15757c1.31422,-0.27852 9.50865,-1.97226 12.3793,-2.27224c1.01631,-0.1062 4.40269,-1.47435 5.51322,-1.81833c2.2387,-0.69343 4.67227,-0.46258 7.01644,-0.56131c6.12336,-0.25789 12.39042,0.14529 18.51359,0.21709c16.69374,0.19575 33.3887,0.35046 50.08123,0.61605c4.28983,0.75223 8.68573,0.79322 12.99355,1.44141c1.28547,0.19342 17.82147,-0.01343 24.54713,1.75014c1.43197,0.37548 7.03344,2.03725 8.60277,2.51826c1.84794,0.56641 5.96315,2.14299 7.6873,3.00448c3.90583,1.95157 6.1524,2.00444 10.00618,3.98113c2.1803,1.11832 3.42559,3.61166 5.64044,4.6632c3.80748,1.8077 7.4683,0.04338 10.53877,5.19245c5.98698,10.03997 -1.44566,18.48058 -8.07983,24.68301c-2.9173,1.85161 -5.10604,5.03049 -8.43409,6.00866c-8.16529,2.39987 -17.22541,-1.20669 -25.37966,0.23682c-2.5621,0.45355 -4.85953,2.01146 -7.44235,2.33013c-10.21997,1.26092 -21.9449,-0.14816 -32.24059,-0.26888c-46.07826,-0.54031 -92.15653,-1.08062 -138.2348,-1.62092c-81.8712,-0.96001 -163.74241,-1.92002 -245.61363,-2.88003c-6.64244,-0.07789 -13.31971,-0.99857 -19.92623,-0.297c-3.37426,0.35833 -6.53978,1.91418 -9.91083,2.30118c-0.56439,0.0648 -10.4228,-0.05887 -13.39823,-0.09376c-7.81685,-0.09166 -15.6337,-0.18332 -23.45054,-0.27497c-7.69087,-0.09019 -16.84987,1.10522 -23.96633,-2.58716c-5.4073,-2.80559 -8.169,-8.02398 -9.86441,-13.43612z" fill="#b97e11" stroke="none" stroke-width="0.5"/><path d="M-137.64095,395.8177c-1.86156,-7.69665 5.92278,-10.0797 5.92278,-10.0797c2.65463,-0.75836 5.22598,-1.92017 7.9639,-2.27507c2.4588,-0.31871 7.23608,-1.89731 10.07392,-3.17833c2.18718,-0.98731 5.22921,-0.26034 7.50924,-1.00868c1.24548,-0.40877 6.53643,-0.56815 7.98427,-0.89232c1.6784,-0.37578 4.79439,-1.145 6.51126,-1.24811c2.88117,-0.17304 4.82479,-1.14575 7.70751,-1.29087c2.05491,-0.10344 4.42341,-0.36447 6.4792,-0.44865c1.30018,-0.05324 6.0818,-0.94646 7.92219,-1.19925c1.82316,-0.25044 4.92992,-0.37244 6.7451,-0.67546c1.87151,-0.31242 7.68726,0.44466 8.81911,0.17342c2.28169,-0.5468 4.69235,-0.04734 7.03851,-0.07102c4.16035,0.34791 8.31253,1.42341 12.47548,1.1082c3.38364,-0.25619 6.66098,-1.4216 10.04744,-1.6374c5.72302,-0.36469 12.54028,0.98377 18.27975,1.46375c7.38126,0.61727 14.76251,1.23453 22.14377,1.8518c3.15735,0.26403 6.85838,1.12238 10.01507,0.90244c1.69256,-0.11792 3.32809,-0.75955 5.02371,-0.81869c0.73594,-0.02566 11.49849,0.89665 12.1287,0.94936c1.48621,0.12429 9.42623,0.72125 10.56931,1.11568c2.21315,0.76368 4.79674,1.30024 7.135,1.18297c4.06088,0.37624 7.35588,2.98571 11.32789,3.91057c1.50488,0.3504 7.5756,2.83014 9.31753,3.4237c1.21256,0.41318 7.89133,2.69772 9.63592,3.28344c3.28493,1.10285 12.47049,3.18355 13.83151,3.77432c0.97485,0.42316 6.21133,2.26861 7.90075,2.99832c0.53091,0.22932 1.15515,-0.11508 1.73278,-0.08691c4.09617,0.19983 8.21366,0.68688 12.30208,1.02878c9.84167,0.82302 19.68335,1.64605 29.52502,2.46907c4.02907,0.33694 8.45259,1.30312 12.47548,1.1082c1.69467,-0.08212 9.56696,-0.97802 11.76858,-1.23002c2.04416,-0.23397 6.82595,-0.43507 8.87011,-0.66906c2.20162,-0.25199 8.59119,-1.39421 9.69138,-1.59171c3.91522,-0.70285 6.94302,-3.94115 10.28415,-5.51048c2.35565,-1.10644 9.98101,-4.20947 11.53686,-4.62502c1.8509,-0.49439 10.63541,-3.23083 12.51866,-3.82721c3.25443,-1.0306 8.69907,0.06345 11.25931,-2.06027c2.00978,-1.10991 8.69137,-4.89 10.16244,-5.18895c2.43346,-0.49451 11.76754,-0.91334 12.91473,-1.10982c2.87089,-0.49166 5.84297,0.66663 8.7328,0.30248c1.82585,-0.23007 6.25668,-1.47278 7.28827,-1.72813c1.44022,-0.35651 6.03575,-1.60525 7.49902,-1.85051c6.42743,-1.07729 11.89651,0.62303 18.37578,1.16487c12.38872,1.03602 25.73095,0.89058 37.95231,3.23873c2.91277,0.55964 5.73332,1.70293 8.69276,1.90082c4.38989,0.36711 8.63722,1.16863 12.89558,2.12723c3.4825,0.78396 7.46709,1.74235 10.97995,2.37653c1.92231,0.34704 5.92006,1.83691 7.78516,2.41751c4.7879,1.49048 7.01975,2.72094 11.73374,4.4308c4.93172,1.78883 6.69042,2.58742 11.52515,4.86056c2.77483,1.30464 6.98047,3.19325 9.82486,4.72706c0.94179,0.50785 5.45381,2.22835 6.21341,2.40254c3.54374,0.81262 11.08797,4.34659 11.32001,4.51336c1.98771,1.42854 3.40781,1.3039 5.17135,3.05026c1.75999,1.74283 5.07795,0.18677 7.33031,1.21726c1.64911,0.75449 2.476,2.6734 3.91211,3.78084c1.4573,1.12378 3.14339,1.91462 4.71509,2.87193c0.19907,0.51717 0.0751,1.36577 0.59722,1.55151c1.55079,0.55168 3.50549,-0.42879 4.92084,0.41151c2.34967,1.39501 4.22064,3.59476 5.69847,5.89324c0.4762,0.74063 -0.98396,2.20077 -0.21662,2.63262c2.02408,1.13914 5.36178,-0.64329 6.87784,1.11629c2.52271,2.9279 2.88058,7.22625 3.58443,11.02641c0.36385,1.9644 -0.08539,4.01066 -0.43497,5.97765c-0.04485,0.25235 -0.80663,0.1154 -0.68828,0.34274c0.53744,1.03238 2.00626,1.52909 2.25467,2.66617c1.29589,5.93171 -0.91408,10.44173 -1.952,16.15531c-0.37613,2.07055 0.00882,4.30162 -0.73438,6.27047c-1.0464,2.77204 -2.765,5.26682 -4.52148,7.65302c-0.32851,0.44629 -1.33294,0.08798 -1.55151,0.59722c-0.38328,0.89303 0.45895,2.03632 0.04402,2.9151c-1.25408,2.65603 -7.86269,10.503 -9.9374,11.98249c-2.13505,1.52252 -4.75862,2.21929 -7.21918,3.12597c-9.40858,3.46694 -18.24775,4.12095 -28.1271,3.35031c-7.61568,0.21667 -15.24508,0.05196 -22.85092,0.49546c-4.73581,0.27614 -9.42453,1.2929 -14.16815,1.34227c-10.12988,0.10545 -20.19326,-1.65367 -30.28843,-2.49788c-12.71627,-1.06341 -25.43252,-2.12683 -38.14879,-3.19023c-53.71913,-4.49233 -107.43827,-8.98466 -161.1574,-13.47698c-75.04276,-6.27554 -150.08551,-12.55108 -225.12827,-18.82662c-5.05348,-0.4226 -10.28232,0.01037 -15.14665,-1.42301c-2.12564,-0.62636 -3.83332,-2.3038 -5.94529,-2.97481c-1.32077,-0.41963 -2.79045,0.03085 -4.15093,-0.23294c-2.0599,-0.3994 -3.99141,-1.32944 -6.04816,-1.74459c-1.98466,-0.40061 -4.12968,-0.00723 -6.03423,-0.69426c-2.52234,-0.90988 -4.75053,-2.50917 -6.97925,-4.00008c-0.6955,-0.46525 -0.94702,-1.51668 -1.72565,-1.82313c-1.14873,-0.45212 -2.55999,0.187 -3.69062,-0.30863c-1.77516,-0.77816 -3.06154,-2.39548 -4.72965,-3.38247c-5.80401,-3.43418 -12.73936,-6.85275 -16.08339,-13.2453c-1.91475,-3.66027 -3.5684,-12.15367 -3.59217,-16.18546c-0.01415,-2.4002 1.1738,-4.75865 0.90429,-7.14371c-0.16658,-1.47431 -1.86336,-2.44099 -2.15179,-3.89637c-0.40284,-2.03278 0.09863,-4.14346 0.14793,-6.21518l0.30863,-3.69062c0,0 0.08749,-1.04625 0.56627,-2.3786z" fill="#d59213" stroke="none" stroke-width="0.5"/><path d="M-92.99122,371.99044c-7.97416,0 -15.94832,0 -23.92248,0c0,0 -8.63535,0 -8.63535,-8.63535c0,-8.63535 8.63535,-8.63535 8.63535,-8.63535c7.97416,0 15.94832,0 23.92248,0c1.32903,0 2.65846,-0.03264 3.98708,0c0.52276,0.01284 1.16477,0.44105 1.66994,0.50733c0.32194,3.56042 1.3022,7.22676 1.43555,10.20994c0.05494,1.22908 -0.11999,3.95979 0.03073,6.52309c-2.51426,0.04684 -6.11831,0.03034 -7.1233,0.03034z" fill="#fffaae" stroke="none" stroke-width="0.5"/><path d="M-64.98369,350.65098c5.39446,6.74308 -1.34861,12.13754 -1.34861,12.13754l-4.06298,3.18884c-2.24623,1.13504 -4.11194,2.98942 -6.44547,3.93197c-4.59616,1.85646 -9.36226,1.4166 -14.1569,1.4166c0,0 -8.63535,0 -8.63535,-8.63535c0,-8.63535 8.63535,-8.63535 8.63535,-8.63535c0.94329,0 6.31296,0.57658 7.10752,0.08757c1.41627,-0.87164 2.69589,-1.97637 4.18675,-2.71317l2.58215,-2.12727c0,0 6.74308,-5.39446 12.13754,1.34861z" fill="#fffaae" stroke="none" stroke-width="0.5"/><path d="M361.68938,274.60742c-5.7569,-5.7569 -5.7569,-9.35496 0,-15.11186c2.4013,-2.4013 8.33461,-1.75077 12.00204,0.25822c6.42782,1.14656 13.2744,4.4572 18.72061,4.57231c6.88207,0.14548 13.77048,0.21172 20.65084,0c1.42139,-0.04374 3.35999,-1.68531 4.7532,-2.03361c5.57511,-1.39378 13.65281,0.50325 13.65281,8.39591c0,11.62646 -7.92301,5.69785 -11.31402,9.34348c-0.96825,1.04095 -3.12244,1.54171 -4.59511,1.56493c-8.18199,0.12902 -16.36672,0.10638 -24.54903,0c-3.00354,-0.03905 -5.74731,-1.56793 -8.63762,-1.81844c-2.54746,-0.2208 -4.13946,0.36514 -6.68926,-1.25185c-2.31804,-1.47001 -10.85867,-0.24993 -12.24105,-2.66908l-0.32908,-0.57589c-0.54263,-0.10063 -1.03716,-0.28695 -1.42431,-0.6741z" fill="#fffaae" stroke="none" stroke-width="0.5"/><path d="M146.33412,251.88705c1.59668,2.39502 -0.79834,3.9917 -0.79834,3.9917l-0.44765,0.16922c-1.01853,1.0534 -1.71073,2.57848 -3.0556,3.16022c-2.1486,0.92939 -9.40593,0.21776 -10.15883,-2.76141c-1.91015,-7.5583 6.39145,-6.49431 10.46485,-5.35516l0.00388,-0.00289c0,0 2.39502,-1.59668 3.9917,0.79834z" data-paper-data="{&quot;index&quot;:null}" fill="#9e5400" stroke="#9e5400" stroke-width="0.5"/><path d="M-20.98411,145.43292v-54h523v54z" fill="#2a2a2a" stroke="none" stroke-width="0"/><path d="M-26.97137,128.87876v-56.3758h528.99618v56.3758z" fill="#383838" stroke="none" stroke-width="0"/><text transform="translate(118.3566,121.94382) scale(1.04203,1.04203)" font-size="40" xml:space="preserve" fill="#000000" fill-rule="nonzero" stroke="none" stroke-width="1" stroke-linecap="butt" stroke-linejoin="miter" stroke-miterlimit="10" stroke-dasharray="" stroke-dashoffset="0" font-family="Pixel" font-weight="normal" text-anchor="start" style="mix-blend-mode: normal"><tspan x="0" dy="0">Yellowdust</tspan></text><text transform="translate(119.3566,116.94382) scale(1.04203,1.04203)" font-size="40" xml:space="preserve" fill="#ffffff" fill-rule="nonzero" stroke="none" stroke-width="1" stroke-linecap="butt" stroke-linejoin="miter" stroke-miterlimit="10" stroke-dasharray="" stroke-dashoffset="0" font-family="Pixel" font-weight="normal" text-anchor="start" style="mix-blend-mode: normal"><tspan x="0" dy="0">Yellowdust</tspan></text></g></g></svg>