<svg version="1.1" xmlns="http://www.w3.org/2000/svg" xmlns:xlink="http://www.w3.org/1999/xlink" width="155.13468" height="387.70814" viewBox="0,0,155.13468,387.70814"><g transform="translate(-134.80123,36.21622)"><g data-paper-data="{&quot;isPaintingLayer&quot;:true}" fill-rule="nonzero" stroke="none" stroke-linecap="butt" stroke-linejoin="miter" stroke-miterlimit="10" stroke-dasharray="" stroke-dashoffset="0" style="mix-blend-mode: normal"><path d="M182.36859,319.28396c0.0664,-0.02342 0.13319,-0.04699 0.20037,-0.07069c0.03371,-0.47122 -0.13957,-1.01435 -0.14138,-1.49791l2.8559,-1.81483c0,0 1.64892,0.04581 2.03447,1.72173c3.73511,-1.13463 7.82939,-1.99887 11.17491,-1.34075c4.18271,0.82282 7.80766,3.24928 12.1055,3.66358c11.61839,1.11998 23.54009,0.64888 35.19957,0.97281l1.18774,0.033l0.26611,-0.58155l0.04521,0.02769c0.03585,-0.10734 0.07314,-0.21416 0.11201,-0.32041c0.27715,-0.75781 0.78952,-1.33774 1.34123,-1.88791c0.18199,-1.87346 1.6618,-2.10169 2.08241,-2.12862c1.58414,-2.50316 3.28645,-4.91832 5.04765,-6.2796c0.72729,-0.56215 1.78043,0.14977 2.62444,-0.11789c2.36797,-0.75095 4.24611,-2.92572 6.56527,-3.85753l3.8077,-2.26692c0.31973,-0.19955 0.68751,-0.30844 1.07703,-0.29762c1.19423,0.03318 2.14053,1.17906 2.1136,2.5594c-0.00818,0.41978 -0.10544,0.8129 -0.27043,1.15582l-0.61343,1.34054c1.82365,-1.44274 3.65431,-2.47708 5.55957,-3.33098l-0.09033,-0.17589l3.69035,-2.52775c0.34309,-0.24387 0.74918,-0.37973 1.18213,-0.3677c1.19423,0.03318 2.14053,1.17906 2.1136,2.5594c-0.00904,0.46371 -0.12678,0.8949 -0.32443,1.26182l-1.62566,3.14781c-1.27621,2.47115 -2.28664,4.93031 -3.71429,7.0495c1.73889,-0.65407 3.401,-1.21514 5.10927,-1.69441l-0.10887,-0.36026l4.03652,-1.62371c0.25132,-0.10877 0.52455,-0.16488 0.80941,-0.15697c1.19423,0.03318 2.14053,1.17906 2.1136,2.5594c-0.00679,0.34817 -0.07484,0.67799 -0.192,0.97605l-1.50443,4.07566l-0.17462,-0.08637l-0.12832,0.67035c-1.00907,0.84883 -2.14898,1.52163 -3.0272,2.54648c-2.49232,2.90847 -3.5025,7.96104 -5.7202,11.17961c-0.04955,0.07191 -5.69632,6.33551 -6.09767,6.75874c-0.86171,0.90873 -2.04052,1.49676 -2.64242,2.6518c-0.44901,0.86166 0.29831,2.27096 -0.30219,2.99887c-2.48554,3.01289 -8.82747,1.84066 -11.88968,1.54219c-1.01255,-0.09869 -2.12973,-1.18883 -3.00515,-0.59428c-0.86169,0.58522 -0.0052,2.93155 -0.95689,3.28514c-1.97487,0.73374 -4.18168,-0.07873 -6.20316,-0.62492c-0.76874,-0.20771 -1.16279,-1.40425 -1.93829,-1.57487c-1.19466,-0.26285 -2.4229,0.23252 -3.63436,0.34878c-1.19248,0.02093 -2.45566,-0.40343 -3.57741,0.06278c-1.16407,0.48378 -1.68665,2.64793 -2.92424,2.63932c-1.5578,-0.01085 -2.77639,-1.66087 -4.05726,-2.68794c-2.19618,-1.76102 -3.79103,-4.43994 -6.06465,-6.06419c-0.38092,-0.27212 -0.96586,-0.36885 -1.34052,-0.08663c-1.02975,0.77565 -1.55179,2.26789 -2.58258,3.04168c-1.08356,0.8134 -2.39176,1.13771 -3.61712,1.61229c-1.74642,0.67639 -3.45577,2.02019 -5.29194,1.83822c-1.03443,-0.10251 -1.23188,-2.07914 -2.1765,-2.57836c-0.41702,-0.2204 -0.74415,0.66279 -1.18637,0.8011c-0.81028,0.25344 -1.66662,0.23679 -2.50027,0.35201c-2.86296,0.3957 -5.7095,1.02331 -8.59021,1.17439c-1.99985,0.10489 -4.39279,1.32623 -6.00604,-0.04692c-0.85746,-0.72984 -0.25667,-2.21668 0.0893,-3.59596c-0.00666,0.00607 -0.01353,0.01154 -0.02059,0.0164c-1.20891,0.83018 -2.67239,1.02282 -3.97446,1.63715c-1.45539,0.68667 -2.71939,2.17761 -4.29037,2.26229c-0.16614,0.00896 -0.33181,0.01089 -0.49703,0.00654l-0.00091,0.04647l-4.3247,-0.12015c-1.19423,-0.03318 -2.14053,-1.17906 -2.1136,-2.5594c0.00564,-0.28914 0.05353,-0.56563 0.13671,-0.82178c-5.05881,0.0371 -10.31471,2.38669 -15.30142,1.23309l-4.32471,-0.12015c-1.19423,-0.03318 -2.14053,-1.17906 -2.1136,-2.5594c0.00911,-0.46681 0.12836,-0.90065 0.3284,-1.26915c-3.97652,-0.41125 -7.95204,-1.00861 -11.81618,-1.85963l-0.00597,0.30599l-4.3247,-0.12015c-1.19423,-0.03318 -2.14053,-1.17906 -2.1136,-2.5594c0.01774,-0.90921 0.45328,-1.69336 1.08984,-2.11324l2.09956,-1.43812c2.34244,-1.6028 4.40951,-3.75749 6.87193,-5.09924c0.80733,-0.43991 1.754,-0.3868 2.63008,-0.58572c0.34924,-0.0793 1.37987,-0.10618 1.04579,-0.24891c-0.89494,-0.38232 -1.9469,-0.08632 -2.8271,-0.51207c-3.97277,-1.92161 -7.18205,-5.40359 -9.88364,-9.27961l-0.19405,0.25294l-3.22707,-3.3089c-0.46604,-0.47166 -0.7548,-1.16968 -0.73976,-1.94088c0.02693,-1.38034 1.01688,-2.47243 2.2111,-2.43925c0.26643,0.0074 0.5205,0.07018 0.75419,0.17859l1.90751,0.82552c2.96599,0.23828 5.63607,0.07431 8.22557,1.09257l0.0065,-0.09997c-0.39604,-0.74139 -0.77083,-1.49878 -1.12792,-2.26825l-0.24013,0.19814l-2.50411,-4.05045c-0.27126,-0.42889 -0.42708,-0.96041 -0.41593,-1.53217c0.02693,-1.38034 1.01688,-2.47243 2.2111,-2.43925c0.25783,0.00716 0.50411,0.06619 0.73153,0.16824l2.34641,0.98067l-0.00142,0.00454l0.01325,0.00045c2.7057,1.17211 5.41139,2.34423 8.11709,3.51636c0.28939,0.12537 0.58648,0.23377 0.88633,0.33611l-1.67439,-2.85124c-0.25371,-0.42064 -0.39832,-0.93473 -0.38756,-1.48625c0.02693,-1.38034 1.01688,-2.47243 2.2111,-2.43925c0.50206,0.01395 0.96028,0.22455 1.32081,0.56655l3.35795,3.12044c4.81772,4.47696 8.97875,9.40803 13.35505,14.32609c0.0932,-0.17747 0.21044,-0.33901 0.35744,-0.4808c1.32352,-1.27656 3.4242,-0.57872 5.14922,-0.58937c0.13836,-0.00085 0.27929,0.16248 0.40876,0.32142c0.20184,-0.12047 0.34732,-0.17208 0.34732,-0.17208z" data-paper-data="{&quot;index&quot;:null}" fill="#fcfcfc" stroke-width="0.5"/><path d="M194.50226,321.56516c0.04416,-0.01558 0.0886,-0.03126 0.13328,-0.04702c0.02241,-0.31341 -0.09283,-0.67465 -0.09404,-0.99627l1.89949,-1.20706c0,0 1.09672,0.03047 1.35315,1.14514c2.48427,-0.75466 5.20741,-1.32947 7.43255,-0.89175c2.78196,0.54726 5.19295,2.16113 8.0515,2.43669c7.72752,0.74491 15.65677,0.43158 23.41162,0.64703l0.78998,0.02195l0.17699,-0.38679l0.03007,0.01842c0.02384,-0.0714 0.04866,-0.14244 0.0745,-0.21311c0.18434,-0.50403 0.52511,-0.88975 0.89206,-1.25567c0.12104,-1.24606 1.10529,-1.39785 1.38504,-1.41577c1.05363,-1.66488 2.18586,-3.27123 3.35725,-4.17663c0.48373,-0.37389 1.18419,0.09961 1.74554,-0.07841c1.57498,-0.49946 2.82414,-1.94593 4.36664,-2.56568l2.53254,-1.50775c0.21265,-0.13272 0.45727,-0.20515 0.71635,-0.19795c0.7943,0.02207 1.42369,0.78421 1.40578,1.70229c-0.00545,0.2792 -0.07014,0.54067 -0.17987,0.76875l-0.408,0.89161c1.21294,-0.95958 2.43052,-1.64753 3.69774,-2.21547l-0.06007,-0.11699l2.45448,-1.68123c0.2282,-0.1622 0.49829,-0.25256 0.78625,-0.24456c0.7943,0.02207 1.42368,0.78421 1.40578,1.70229c-0.00602,0.30842 -0.08432,0.5952 -0.21577,0.83925l-1.08125,2.09364c-0.84882,1.64359 -1.52086,3.27921 -2.47041,4.6887c1.15655,-0.43503 2.26205,-0.8082 3.39823,-1.12697l-0.07242,-0.23962l2.68473,-1.07995c0.16715,-0.07235 0.34889,-0.10966 0.53835,-0.1044c0.7943,0.02207 1.42369,0.78421 1.40579,1.70228c-0.00451,0.23157 -0.04978,0.45094 -0.12771,0.64918l-1.00061,2.71077l-0.11615,-0.05745l-0.08535,0.44586c-0.67114,0.56457 -1.42932,1.01205 -2.01342,1.69369c-1.65767,1.93446 -2.32955,5.29497 -3.80457,7.43568c-0.03295,0.04783 -3.78869,4.21381 -4.05563,4.49531c-0.57313,0.6044 -1.35717,0.99551 -1.7575,1.76374c-0.29865,0.5731 0.1984,1.51044 -0.20099,1.99458c-1.65317,2.00391 -5.87125,1.22425 -7.90796,1.02573c-0.67346,-0.06564 -1.41651,-0.7907 -1.99875,-0.39526c-0.57312,0.38924 -0.00346,1.94981 -0.63644,2.18498c-1.31351,0.48801 -2.78128,-0.05236 -4.12579,-0.41564c-0.51129,-0.13815 -0.77338,-0.93398 -1.28916,-1.04747c-0.79458,-0.17482 -1.61152,0.15465 -2.41727,0.23198c-0.79312,0.01392 -1.63328,-0.26832 -2.37938,0.04176c-0.77422,0.32177 -1.12181,1.76117 -1.94495,1.75544c-1.03612,-0.00722 -1.84661,-1.10466 -2.69853,-1.78778c-1.46071,-1.17127 -2.52147,-2.95305 -4.03367,-4.03336c-0.25336,-0.18099 -0.64241,-0.24532 -0.89159,-0.05762c-0.6849,0.51589 -1.0321,1.5084 -1.7177,2.02306c-0.72068,0.541 -1.59079,0.7567 -2.40579,1.07235c-1.16155,0.44987 -2.29847,1.34365 -3.51972,1.22262c-0.68801,-0.06818 -0.81935,-1.38286 -1.44762,-1.7149c-0.27737,-0.14659 -0.49494,0.44083 -0.78906,0.53282c-0.53893,0.16857 -1.1085,0.15749 -1.66296,0.23412c-1.90419,0.26318 -3.79745,0.68061 -5.71345,0.7811c-1.33012,0.06976 -2.92168,0.8821 -3.99468,-0.0312c-0.57031,-0.48542 -0.17072,-1.47434 0.05939,-2.39171c-0.00443,0.00403 -0.00901,0.00768 -0.0137,0.01091c-0.80406,0.55216 -1.77743,0.68029 -2.64346,1.08889c-0.968,0.45671 -1.8087,1.44835 -2.85357,1.50467c-0.11051,0.00596 -0.22068,0.00724 -0.33057,0.00435l-0.00061,0.03091l-2.87641,-0.07992c-0.7943,-0.02207 -1.42369,-0.78421 -1.40579,-1.70228c0.00376,-0.19231 0.03561,-0.3762 0.09093,-0.54657c-3.36467,0.02468 -6.86043,1.58741 -10.17715,0.82014l-2.87641,-0.07992c-0.7943,-0.02207 -1.42369,-0.78421 -1.40578,-1.70229c0.00605,-0.31048 0.08537,-0.59903 0.21841,-0.84413c-2.64483,-0.27353 -5.28898,-0.67084 -7.85906,-1.23686l-0.00397,0.20352l-2.87642,-0.07992c-0.7943,-0.02207 -1.42369,-0.78421 -1.40578,-1.70229c0.0118,-0.60473 0.3015,-1.12627 0.72487,-1.40554l1.39644,-0.95651c1.55798,-1.06604 2.93281,-2.49915 4.5706,-3.39156c0.53697,-0.29259 1.16661,-0.25727 1.74928,-0.38957c0.23229,-0.05274 0.91778,-0.07062 0.69557,-0.16555c-0.59524,-0.25429 -1.29491,-0.05742 -1.88033,-0.34058c-2.64234,-1.27808 -4.77687,-3.59399 -6.57372,-6.17197l-0.12906,0.16824l-2.14636,-2.20078c-0.30997,-0.31371 -0.50202,-0.77796 -0.49202,-1.2909c0.01791,-0.91808 0.67633,-1.64444 1.47063,-1.62237c0.1772,0.00492 0.34619,0.04668 0.50162,0.11878l1.26871,0.54906c1.97271,0.15849 3.74862,0.04942 5.47091,0.72668l0.00434,-0.06649c-0.26341,-0.4931 -0.51269,-0.99686 -0.75019,-1.50864l-0.1597,0.13178l-1.66551,-2.694c-0.18042,-0.28526 -0.28407,-0.63878 -0.27664,-1.01906c0.01791,-0.91808 0.67633,-1.64443 1.47063,-1.62237c0.17149,0.00476 0.33528,0.04402 0.48654,0.1119l1.56063,0.65225l-0.00094,0.00302l0.00881,0.0003c1.79959,0.77958 3.59918,1.55917 5.39877,2.33877c0.19247,0.08338 0.39008,0.15549 0.58951,0.22355l-1.11365,-1.89639c-0.16875,-0.27977 -0.26493,-0.62171 -0.25777,-0.98853c0.01791,-0.91808 0.67633,-1.64443 1.47063,-1.62237c0.33392,0.00928 0.63871,0.14935 0.87849,0.37682l2.23341,2.07544c3.20433,2.97768 5.97187,6.25738 8.8826,9.52844c0.062,-0.11804 0.13997,-0.22548 0.23774,-0.31979c0.88029,-0.84906 2.27748,-0.38491 3.4248,-0.392c0.09203,-0.00057 0.18575,0.10806 0.27187,0.21377c0.13425,-0.08013 0.231,-0.11445 0.231,-0.11445z" data-paper-data="{&quot;index&quot;:null}" fill="#e6e6e6" stroke-width="0.5"/><path d="M203.7059,333.23254v-369.44876h22.36137v369.44876z" fill="#625eff" stroke-width="0"/><path d="M211.8046,333.37837v-369.44876h6.80563v369.44876z" fill="#9492ff" stroke-width="0"/><path d="M233.19375,333.04548v-345.64922h18.47243v345.64922z" fill="#5e9aff" stroke-width="0"/><path d="M239.88398,333.18192v-345.64922h5.62204v345.64922z" fill="#615eff" stroke-width="0"/><path d="M179.0695,332.43605v-345.64922h18.47244v345.64922z" fill="#5e9aff" stroke-width="0"/><path d="M185.75974,332.57248v-345.64922h5.62204v345.64922z" fill="#615eff" stroke-width="0"/><path d="M224.2284,66.11291c1.19883,-1.08775 2.28659,0.11109 2.28659,0.11109l1.87906,2.07096c0.79711,0.89954 1.80715,1.64824 2.39135,2.6986c0.95187,1.71145 0.47253,3.96418 1.33897,5.72042c0.10712,0.21712 0.40691,-0.33618 0.64882,-0.32643c1.48828,0.05999 3.30365,-0.43536 4.43674,0.53142c0.86922,0.74164 0.2641,2.28154 0.19697,3.42218c-0.1281,2.17673 -0.66641,4.3144 -1.16884,6.43623c-0.17881,0.75514 -0.94963,1.48506 -0.70078,2.2201c0.19097,0.56406 1.13799,0.36803 1.66856,0.63846c0.90685,0.46221 1.75306,1.03483 2.62959,1.55224c3.00021,0.92335 6.1816,1.67225 9.10051,2.82405c1.3975,0.55145 3.5103,0.49197 4.09891,1.87422c0.58861,1.38225 -0.91205,2.86688 -1.48936,4.25389c-0.44613,1.07185 -0.91095,2.15404 -1.57432,3.10683c-1.23045,1.76727 -2.84576,2.33548 -3.66104,4.39524c-0.18239,0.46079 0.06217,0.98958 0.06946,1.4851c0.03174,2.15812 0.04042,4.31709 0,6.47508c-0.02424,1.29418 0.32884,2.67185 -0.13335,3.88093c-0.37642,0.98472 -1.45987,1.52176 -2.21365,2.25877c-0.21707,0.21224 -4.82229,4.5228 -4.93944,4.60004c-2.61049,1.721 -6.26939,2.76846 -9.14044,4.02455c-0.9887,0.43255 -1.95293,0.92603 -2.9661,1.29766c-0.71255,0.26137 -1.70875,0.01566 -2.19744,0.59637c-0.31609,0.37561 0.36253,0.91245 0.54378,1.36868c0.36002,1.43658 1.77572,6.49092 1.25912,7.59588c-0.6224,1.33126 -4.56708,0.23159 -5.43037,0.46014c-0.36562,0.0968 -0.34448,0.67703 -0.56729,0.98264c-0.63577,0.87202 -1.33559,1.6955 -2.00338,2.54325c-1.33559,1.6955 -2.62147,3.43137 -4.00677,5.08649c-0.86679,1.03562 -1.41957,2.54235 -2.67331,3.04434c-1.25374,0.50199 -2.6941,-0.20279 -4.03563,-0.35814c-1.47726,-0.17107 -3.01096,-0.3424 -4.46139,-0.01401c-0.84092,0.19039 -1.85899,-0.03124 -2.53773,0.50046c-0.67874,0.5317 -0.70592,1.57392 -1.09348,2.34411c-0.48509,0.96401 -1.0157,1.90444 -1.52355,2.85665c-1.52355,2.85665 -3.04709,5.7133 -4.57064,8.56995c0,0 -0.76177,1.42832 -2.1901,0.66655c-1.42832,-0.76177 -0.66655,-2.1901 -0.66655,-2.1901c2.02998,-3.80621 3.99084,-7.66056 6.09419,-11.4266c0.63302,-1.13342 0.93165,-2.56862 1.95361,-3.3692c2.28649,-1.79116 6.8806,-1.59214 9.45349,-1.14281c0.80086,0.13987 1.61963,0.85976 2.37437,0.55757c0.75473,-0.30219 0.8551,-1.3848 1.33346,-2.04215c1.88732,-2.59349 3.95521,-5.16679 6.01015,-7.62974c0.54275,-0.65051 0.90105,-1.60206 1.6971,-1.89196c1.22944,-0.44772 2.62006,-0.30434 3.92204,-0.1648c-0.72614,-1.34292 -1.14197,-2.85978 -1.51183,-4.34267c-0.06809,-1.18934 -0.84228,-2.56199 -0.20428,-3.56803c0.75622,-1.19244 2.46775,-1.37564 3.73475,-1.99896c3.66364,-1.80241 8.22268,-2.81792 11.62222,-5.05911c1.72559,-1.13762 2.96279,-2.88457 4.50677,-4.2586c0.46758,-0.41611 1.25045,-0.5933 1.45747,-1.184c0.28638,-0.81713 -0.11356,-1.72851 -0.13335,-2.59415c-0.04934,-2.15779 -0.02648,-4.31688 0,-6.47508c0.00991,-0.80803 -0.2178,-1.66797 0.06946,-2.42328c0.79775,-2.09758 2.82637,-3.49108 4.11683,-5.3271c0.57354,-0.81601 0.78016,-1.84687 1.32141,-2.68465c0.37693,-0.58342 1.67852,-0.89853 1.40639,-1.53759c-0.27213,-0.63906 -1.40152,0.08201 -2.08313,-0.05164c-3.14886,-0.61744 -6.38514,-1.98982 -9.44561,-2.95354c-0.54879,-0.31916 -5.68865,-3.19803 -5.93217,-3.80095c-0.25765,-0.63789 0.8547,-6.33624 1.03667,-7.33585c0.18931,-1.03995 0.26396,-2.10753 0.56861,-3.11972c0.09667,-0.32119 0.94068,-0.73761 0.61101,-0.79953c-1.53613,-0.28855 -3.01621,1.91217 -4.63678,0.20499c-2.03804,-2.14696 -0.94537,-4.44204 -2.2187,-6.73146c-0.46499,-0.83604 -1.30644,-1.39783 -1.95966,-2.09675l-1.87906,-2.07096c0,0 -1.08775,-1.19883 0.11109,-2.28659z" data-paper-data="{&quot;index&quot;:null}" fill="#ffffff" stroke-width="0.5"/><path d="M224.73396,51.52161h1.94447c0,0 1.61877,0 1.61877,1.61877c0,1.61877 -1.61877,1.61877 -1.61877,1.61877h-1.94447c0,0 -1.61877,0 -1.61877,-1.61877c0,-1.61877 1.61877,-1.61877 1.61877,-1.61877z" data-paper-data="{&quot;index&quot;:null}" fill="#ffffff" stroke-width="0.5"/><path d="M222.17065,-18.74266c0.72393,1.44787 -0.72393,2.17181 -0.72393,2.17181l-1.44932,0.58937c-0.47669,1.71064 -1.35762,3.29513 -2.26219,4.82328c-1.6563,2.78178 -3.31262,5.56356 -4.96892,8.34534c-0.27916,0.46885 -3.37742,5.7097 -3.60162,5.92127c-1.14279,1.07835 -3.67345,1.2557 -4.50273,2.94719c-0.32043,0.65357 -0.16574,1.44687 -0.2826,2.16532c-0.15036,0.92446 -0.60434,1.82883 -0.51874,2.76152c0.07899,0.86058 0.75291,1.56484 0.99206,2.39529c0.42684,1.48221 1.87002,3.24537 0.99885,4.51824c-0.56118,0.81994 -5.37204,0.70448 -6.84842,0.70448c-2.03795,0 -4.12374,-0.48052 -6.1137,-0.04085c-0.87559,0.19346 -1.59931,0.81162 -2.40393,1.20745c-1.9367,0.95273 -3.88644,1.87872 -5.82967,2.81808c-0.97161,0.46968 -1.8897,1.07181 -2.91483,1.40904c-0.64391,0.21183 -1.91185,-0.45375 -2.02217,0.21507c-0.11032,0.66882 1.23065,0.56873 1.84598,0.8531c1.48698,1.46287 2.78075,3.14903 4.45065,4.39905c2.43044,1.81934 5.6486,3.12754 8.30366,4.60548c0.9901,0.55114 6.1981,3.31745 6.42694,4.11966c0.22378,0.78446 -2.73216,5.91292 -3.28619,6.89044c-0.60442,1.06643 -2.19265,2.35105 -1.49576,3.3595c1.5766,2.2814 4.35038,3.45603 6.83441,4.24215c4.03413,1.27667 7.84351,2.56432 12.0909,2.5459c0,0 1.61877,0 1.61877,1.61877c0,1.61877 -1.61877,1.61877 -1.61877,1.61877c-6.11619,-0.02336 -14.63398,-1.81998 -19.27534,-6.02587c-0.93898,-0.85088 -2.09095,-1.59653 -2.63315,-2.74183c-1.31996,-2.78812 1.7818,-6.8965 3.2211,-9.01979c0.40143,-0.5922 1.62693,-0.91193 1.43067,-1.59991c-0.19625,-0.68798 -1.406,-0.31304 -2.05946,-0.60432c-0.98569,-0.43938 -1.88587,-1.04977 -2.8288,-1.57466c-2.78296,-1.54914 -6.12266,-2.93627 -8.66914,-4.84247c-0.11467,-0.08584 -4.58613,-4.49123 -4.78101,-4.68295c-0.92329,-1.2293 -3.02006,-2.17099 -2.76986,-3.68791c0.2502,-1.51692 2.48734,-1.8151 3.80751,-2.60301c2.72599,-1.62693 5.87668,-2.86247 8.74451,-4.22712c1.02724,-0.48881 1.97979,-1.20121 3.09021,-1.44844c1.17104,-0.26073 2.39922,-0.03368 3.59892,-0.04085c1.83749,-0.01098 3.70064,-0.30562 5.51256,0c0.66658,0.11243 1.51988,1.26234 1.90168,0.70448c0.3818,-0.55785 -1.02655,-0.92147 -1.34511,-1.51769c-0.5418,-1.01402 -1.08636,-2.091 -1.19459,-3.23558c-0.01233,-0.13035 0.93439,-6.35261 1.14313,-6.73996c0.55403,-1.02811 1.49904,-1.82155 2.43732,-2.51696c0.81463,-0.60377 1.99103,-0.63741 2.74038,-1.32052c1.48301,-1.35192 1.99697,-3.4816 3.0236,-5.20584c1.6563,-2.78178 3.31262,-5.56356 4.96892,-8.34534c1.01151,-1.68786 1.89743,-3.46117 2.60579,-5.29699l2.43962,-1.3551c0,0 1.44787,-0.72393 2.17181,0.72393z" data-paper-data="{&quot;index&quot;:null}" fill="#ffffff" stroke-width="0.5"/></g></g></svg>