<svg version="1.1" xmlns="http://www.w3.org/2000/svg" xmlns:xlink="http://www.w3.org/1999/xlink" width="632.52935" height="482.375" viewBox="0,0,632.52935,482.375"><g transform="translate(71.86813,68.78255)"><g data-paper-data="{&quot;isPaintingLayer&quot;:true}" fill-rule="nonzero" stroke-width="0.5" stroke-linecap="butt" stroke-linejoin="miter" stroke-miterlimit="10" stroke-dasharray="" stroke-dashoffset="0" style="mix-blend-mode: normal"><path d="M-21.95988,11.18c0,-8.75886 4.50434,-16.46568 11.32297,-20.93041l1.27384,-1.43027l2.69535,-0.68453c2.25476,-0.95098 4.67818,-1.58071 7.21292,-1.83185l1.09738,-0.2787l1.01161,0.15868c0.12841,-0.00194 0.25706,-0.00292 0.38594,-0.00292c4.19893,0 8.15609,1.03517 11.63018,2.86424l0.47662,0.23831l7.11738,1.18623h0.7756l1.12392,-0.08224l0.68517,-0.27407l3.77194,-1.08806l0.8216,-0.05963l0.78498,-0.24977l3.20521,-0.32052l1.06603,-0.42641l3.77194,-1.08806l0.8216,-0.05963l0.78498,-0.24977l3.90625,-0.39062h108.29164l1.93443,0.19344l0.2446,-0.01545l0.86118,0.12603l0.86604,0.0866l0.23355,0.07431l1.92359,0.2815l3.03762,0.75941l4.46982,0.63855h340.25333l3.1873,0.31873l1.75376,-0.02402l4.54332,1.87078l3.01563,0.95952l0.62454,0.53937l2.31627,0.95376l1.62568,2.45066l4.02726,3.47809l1.18258,4.37555l1.44075,2.17188l0.23252,4.01921l1.0504,3.88648l-0.68001,2.51603l0.14224,2.45867l2.29153,7.20197l0.39063,3.90625v11.79414l-0.20521,2.05208l-0.13494,2.05789l-0.73204,4.39226v33.31335l-0.19344,1.93443l0.01545,0.2446l-0.12603,0.86118l-0.0866,0.86604l-0.07431,0.23355l-0.2815,1.92359l-1.39795,5.59181v165.25689l-0.15468,1.54681l-0.03837,1.55405l-0.87914,7.03313v57.41425l-0.24512,2.45122l-0.24036,2.45169l-1.65891,8.29453v7.17426l-0.27265,2.72649l0.00828,0.27827l-0.08093,0.44825l-0.04532,0.45324l-0.08441,0.26529l-0.48687,2.69649l-1.18249,4.13871v10.43715l-0.12456,1.24556l0.45501,2.2483l-2.49559,5.98941l-0.95987,3.01673l-0.57406,0.6647l-0.3378,0.81072l-2.26898,2.20766l-4.24103,4.91067l-0.69993,0.18917l-1.4365,1.75572l-0.28605,0.28605l-0.59201,0.8123l-0.54383,0.32354l-6.08346,6.08346l-3.03835,2.48592l-0.07738,0.04002l-0.06244,0.06075l-1.49406,0.94362l-2.6549,2.17219l-0.39315,0.20336l-1.74617,1.50805l-3.0386,0.96683l-2.83227,1.46497l-0.51086,0.03738l-0.60903,0.19378l-0.46958,0.24947l-3.26101,0.93754l-3.23337,1.0288l-0.5291,0.05291l-1.64371,0.47257l-1.36976,-0.17122l-0.36368,0.03637h-33.37697l-1.30303,0.32576l-1.92359,0.2815l-0.23355,0.07431l-0.86604,0.0866l-0.86118,0.12603l-0.2446,-0.01545l-1.93443,0.19344h-324.87491l-3.90625,-0.39062l-0.78498,-0.24977l-0.8216,-0.05963l-3.77194,-1.08806l-0.89077,-0.35631h-70.23905l-3.90625,-0.39062l-0.08302,-0.02641l-0.08711,-0.00119l-3.82932,-0.86469l-0.1875,-0.0625l-1.17403,-0.1174l-1.77027,-0.56327l-1.83527,-0.28789l-3.66855,-1.39754l-0.32571,-0.16285l-0.48405,-0.03542l-0.89279,-0.46179l-0.38378,-0.12793l-3.58227,-1.60584l-1.08755,-0.79262l-2.89361,-1.10233l-0.36183,-0.18092l-0.95783,-0.30476l-0.47891,-0.41361l-0.90108,-0.45054l-1.53106,-0.51035l-0.12562,-0.05631l-1.23591,-0.12359l-0.4218,-0.13421l-2.30108,-0.16837l-2.83227,-1.46497l-3.0386,-0.96683l-1.74617,-1.50805l-0.39315,-0.20336l-1.25018,-1.02288l-0.70801,-0.19135l-1.21306,-1.4046l-1.87858,-1.87858l-1.4046,-1.21306l-0.19135,-0.70801l-1.02288,-1.25018l-0.20336,-0.39315l-1.50805,-1.74617l-0.96683,-3.0386l-1.46497,-2.83227l-0.16837,-2.30108l-0.13421,-0.4218l-0.39063,-3.90625v-2.84467l-0.13544,-1.85096l0.13544,-0.23576v-20.47018l-1.65891,-8.29453l-0.24036,-2.45169l-0.24512,-2.45122v-41.27626l-0.65396,-2.89612l-0.00119,-0.08711l-0.02641,-0.08302l-0.39063,-3.90625v-12.53523l-0.58671,-2.93356l-0.24036,-2.45169l-0.24512,-2.45122v-64.46519l-0.15576,-0.61332l0.15576,-0.993v-0.40454l0.39063,-3.90625l0.56327,-1.77027l0.28789,-1.83527l0.90261,-2.36935v-6.63135l-0.13544,-0.23576l0.13544,-1.85096v-2.84467l0.39063,-3.90625l0.13421,-0.4218l0.16837,-2.30108l1.45118,-2.80562v-5.57597l0.39063,-3.90625l0.02641,-0.08302l0.00119,-0.08711l0.86469,-3.82932l0.86147,-2.58441v-18.45914l0.39063,-3.90625l0.02641,-0.08302l0.00119,-0.08711l0.86469,-3.82932l0.86147,-2.58441v-0.23184l0.08886,-0.88855l-0.02532,-0.89262l1.00866,-14.12127v-50.57361l0.24512,-2.45122l0.24036,-2.45169l0.58671,-2.93356v-1.81329l0.39063,-3.90625l0.02641,-0.08302l0.00119,-0.08711l0.86469,-3.82932l0.76858,-2.30573l0.83933,-3.35732l1.32637,-3.69488l0.18621,-0.30166l0.09795,-0.3407l0.21561,-0.40585c-1.59411,-1.32836 -3.02034,-2.85136 -4.24219,-4.5325l-0.72668,-0.70704l-0.43075,-1.0338c-1.2782,-2.10847 -2.25349,-4.421 -2.86551,-6.87723l-1.07106,-2.57054l0.38142,-1.88464c-0.0338,-0.53205 -0.05096,-1.06863 -0.05096,-1.60921z" fill="#fae880" stroke="none"/><path d="M-58.35462,236.10227c-2.09776,-0.11227 -4.16188,-0.2654 -6.01351,-0.2654c0,0 -7.5,0 -7.5,-7.5c0,-7.5 7.5,-7.5 7.5,-7.5c0.94732,0 4.28539,0 6.62038,0c0.79621,-2.08928 2.63706,-4.5045 6.89314,-4.5045c2.21505,0 3.7759,0.65419 4.87578,1.57616c1.59445,-0.24672 3.28182,0.16869 4.8957,-0.03816c2.53136,-0.32443 4.98023,-1.14671 7.50751,-1.5015c0.66863,-0.09387 1.37938,0.3807 2.01889,0.16413c5.35103,-1.81211 9.35221,-6.75869 14.56478,-8.88783c1.06627,-0.43553 9.19443,-4.72489 11.31527,-5.75692c1.24882,-0.60769 8.94032,-4.63247 11.82086,-5.9237c2.17275,-0.97395 9.84483,-5.1566 14.85164,-6.45858c1.08972,-0.28337 5.04735,-2.10399 6.36053,-2.63273c4.26897,-1.71887 12.24742,-2.9335 13.09364,-3.16666c3.0178,-0.8315 8.46317,0.08559 11.55998,-0.37074c4.47534,-0.65947 9.76796,-0.0365 14.25255,-0.0365c4.83495,0 11.9345,-1.22051 16.38364,0.5709c1.31318,0.52874 6.32772,1.37378 7.72182,1.93142c1.31438,0.52575 6.07233,3.63744 7.64771,3.70431c1.001,0.5005 1.91112,1.25594 3.003,1.5015c2.81711,0.63355 5.97599,-0.70821 8.65449,0.37027c1.31318,0.52874 1.88438,2.13543 3.003,3.003c0.15439,0.11974 -0.05935,-0.53591 0.13288,-0.5709c0.98481,-0.17929 2.00351,-0.05498 3.003,0c2.46184,0.13543 5.04343,-0.23193 7.37463,0.5709c1.33848,0.46095 1.88438,2.13543 3.003,3.003c0.15439,0.11974 -0.06251,-0.5709 0.13288,-0.5709c1.96694,0 4.04854,-0.16375 5.87313,0.5709c1.31318,0.52874 1.74933,2.34551 3.003,3.003c0.51105,0.26803 1.06163,-0.50039 1.63438,-0.5709c3.27317,-0.40296 7.24976,-0.07087 10.51051,0c1.57643,0.03426 3.19065,-0.15788 4.72615,0.20063c2.45512,0.57322 4.51386,2.40318 6.98573,2.89921c2.29504,0.46055 5.45502,-0.09684 7.80764,-0.09684c1.78128,0 3.67585,0.97225 5.33413,0.32181c1.67997,-0.65895 2.79253,-2.43234 4.5045,-3.003c1.42445,-0.47482 3.07646,0.4639 4.5045,0c1.34531,-0.43703 2.12154,-1.9217 3.38275,-2.56218c3.19311,-1.62155 7.16934,-1.42482 10.22883,-3.28626c0.55068,-0.33504 0.11238,-1.35084 0.49551,-1.86921c2.49544,-3.37633 7.03214,-7.79611 10.33841,-10.42375c2.54435,-2.0221 5.61409,-3.28331 8.31944,-5.08432c2.16911,-1.44402 3.99715,-3.39649 6.27455,-4.66286c2.41581,-1.34333 5.20991,-1.88252 7.69033,-3.10244c2.03883,-1.00273 3.70212,-2.72788 5.82274,-3.54353c1.95224,-0.75089 10.65564,-4.80135 13.31519,-5.94294c1.14649,-0.49212 8.36512,-0.38488 9.87922,-0.38488c7.00701,0 14.01401,0 21.02102,0c3.19189,0 8.26116,-0.68146 11.18239,0.32181c1.70673,0.58616 12.03075,2.41177 14.56477,2.88182c1.66643,0.30911 3.11203,1.34683 4.63396,2.09266c2.36971,1.16129 4.83653,2.17052 7.03723,3.62689c0.95921,0.63479 4.96011,2.98568 6.26909,3.27154c3.1447,0.68674 4.23448,0.90465 7.1784,2.20622c2.50141,1.10593 4.6607,2.06889 7.25327,2.93992c0.80752,0.2713 4.25302,2.64279 5.05323,2.93494c3.01844,1.10206 4.38964,2.25638 7.27904,3.66239c6.83986,6.66679 15.23963,9.85177 23.40315,14.61251c3.11773,1.81818 5.89779,4.1767 9.00901,6.00601c3.96285,2.33004 8.41377,3.70694 12.61919,5.56374c1.68519,0.74405 3.08539,2.13502 4.85903,2.63273c1.59063,0.44636 3.38601,-0.39694 4.95474,0.12118c1.71354,0.56594 2.82454,2.34406 4.5045,3.003c1.65827,0.65044 3.55285,-0.32181 5.33413,-0.32181c3.5035,0 7.00701,0 10.51051,0c1.92928,0 3.93836,0.76134 5.78436,0.20063c1.41174,-0.4288 3.47269,-2.10606 5.42112,-2.34167c0.00501,-0.05732 0.00774,-0.11301 0.00774,-0.16677c1.81206,-0.54193 3.74449,-0.77995 5.43618,-1.6258c0.44436,-0.22218 0.21853,-1.02591 0.56983,-1.37721c1.68288,-1.68288 3.34949,-3.48427 5.43618,-4.6288c0.87765,-0.48138 2.10479,0.44182 3.003,0c0.87185,-0.42885 0.88898,-1.87455 1.74445,-2.33521c3.23192,-1.74035 6.71366,-3.0134 10.21788,-4.10637c0.5127,-0.15991 1.01421,0.44506 1.55118,0.43558c0.16846,-0.00297 -0.27003,-0.30135 -0.21119,-0.45923c0.39083,-1.04869 0.75155,-2.1723 1.5015,-3.003c1.86109,-2.06148 3.75045,-4.27063 6.21719,-5.54677c1.33361,-0.68993 3.01152,0.1597 4.5045,0c0.16753,-0.01792 -0.27003,-0.30135 -0.21119,-0.45923c0.39083,-1.04869 0.75155,-2.1723 1.5015,-3.003c1.86109,-2.06148 3.68462,-4.40686 6.21719,-5.54677c1.44005,-0.64816 7.72365,-0.5709 10.37763,-0.5709c5.07453,0 11.23718,-0.8194 16.21638,0.09684c2.27681,0.41896 4.39885,1.44486 6.59827,2.16729c1.12758,0.85406 2.06802,2.04032 3.38275,2.56218c1.14885,0.45601 2.59872,-0.31262 3.69975,0.24909c1.90041,0.96954 3.20309,2.82308 4.88779,4.13203c1.73811,1.35044 3.82481,2.27418 5.37217,3.83955c0.95703,0.96816 1.15442,2.48617 1.96323,3.5812c2.01481,2.72778 5.25355,4.52971 6.85079,7.52121c0.58217,1.09036 -0.14173,2.52712 0.24909,3.69975c0.79381,2.38176 3.88478,3.34938 5.08912,5.55221c1.76089,3.22078 3.00526,6.71621 4.10637,10.21788c0.22554,0.71726 -0.47275,1.55267 -0.18648,2.24793c0.472,1.14633 1.70673,1.83133 2.31164,2.91343c1.44856,2.59128 2.92512,5.21531 3.81554,8.04731c0.7506,2.38728 -0.76034,5.12331 0,7.50751c0.68007,2.13249 2.43598,3.84071 3.003,6.00601c1.25018,4.77403 0.20063,11.76913 0.20063,16.73816c-0.04511,2.47477 0.37378,5.00205 -0.13533,7.42431c-0.55437,2.63765 -2.26738,4.91456 -3.003,7.50751c-0.30099,1.06096 0.20043,2.23751 -0.06531,3.30784c-0.26967,1.08618 -1.26492,1.90914 -1.5015,3.003c-0.39908,1.8452 0.44665,3.94952 -0.37027,5.65148c-0.91886,1.91434 -3.62374,2.57234 -4.5045,4.5045c-0.60324,1.32335 0.67974,2.8975 0.47406,4.33725c-0.56361,3.9453 -3.34801,7.25145 -4.60829,11.03229c-0.43918,1.31755 0.22212,2.89383 -0.37027,4.14998c-0.60382,1.28039 -2.13543,1.88438 -3.003,3.003c-0.11974,0.15439 0.53591,-0.05935 0.5709,0.13288c0.17929,0.98481 0.11199,2.00829 0,3.003c-0.26238,2.33052 -0.0487,4.85979 -1.12012,6.94599c-0.67982,1.32371 -2.82847,1.27883 -3.71698,2.47253c-0.85885,1.15386 -0.30412,3.02329 -1.20711,4.14294c-1.33551,1.65597 -3.6656,2.2412 -5.1615,3.75385c-1.22098,1.23465 -1.62832,3.12923 -2.8579,4.35532c-1.94555,1.94003 -4.43696,3.24868 -6.5404,5.01629c-2.69528,2.26497 -5.34359,4.61026 -8.26127,6.58048c-1.93154,1.23057 -3.65872,2.86525 -5.79463,3.69172c-5.08036,1.96581 -11.60746,2.71969 -16.96877,3.51771c-2.86381,0.42627 -5.33892,2.42896 -8.20224,2.85856c-8.08533,1.21309 -17.52437,0.20063 -25.74717,0.20063c-26.52653,0 -53.05305,0 -79.57958,0c-82.08208,0 -164.16416,0 -246.24625,0c-33.53353,0 -67.06707,0 -100.6006,0c-8.00801,0 -16.01602,0 -24.02402,0c-2.13292,0 -8.69342,0.14527 -10.37763,-0.5709c-1.82045,-0.77411 -2.90614,-2.70124 -4.5182,-3.84778c-0.91201,-0.64865 -2.12318,-0.80982 -3.003,-1.5015c-1.62145,-1.27472 -2.94516,-2.88827 -4.41774,-4.3324c-5.25446,-7.8252 -9.07507,-16.62955 -15.01502,-24.02402c-2.96187,-3.68715 -6.205,-7.49358 -7.50531,-12.04078c-0.57839,-2.02266 0.36558,-4.25172 -0.06531,-6.31085c-0.43402,-2.07412 -1.59583,-3.92768 -2.48013,-5.85339c-3.04646,-6.63414 -6.89865,-11.70863 -9.30341,-18.78292c-0.98216,-2.8893 -0.62275,-6.29135 -2.24668,-8.87505c-0.95903,-1.52583 -2.95282,-2.37627 -3.55222,-4.07586c-0.74361,-2.10851 0.37398,-4.55553 -0.24909,-6.70275c-0.5029,-1.73309 -2.41684,-2.79778 -3.003,-4.5045c-0.56154,-1.63505 -0.27208,-3.44831 -0.32181,-5.17638c-0.17254,-5.99542 0,-12.0184 0,-18.01802c0,-2.41654 0,-4.83308 0,-7.24961zM445.57487,224.01428c-0.03479,-0.3202 -0.05886,-0.66687 -0.13517,-0.88461c0,0.26992 0.06169,0.574 0.13517,0.88461z" fill="#e9d877" stroke="none"/><path d="M-24.40445,266.24947c1.5069,-4.87208 7.13243,-4.87208 7.13243,-4.87208c3.31159,0 7.59094,0.74295 10.81065,0.09684c3.40727,-0.68375 3.21016,-1.91313 6.98573,-2.89921c0.82423,-0.21527 7.36233,-3.62863 9.97071,-5.19346c4.14885,-2.489 6.16109,-4.5206 10.11625,-7.30714c1.79201,-1.26253 5.56215,-2.94177 7.28089,-4.30236c1.01558,-0.80396 2.3654,-1.08189 3.44535,-1.79707c2.23324,-1.47892 4.13537,-3.45173 6.46819,-4.76797c1.02453,-0.57807 4.84569,-3.85153 6.02479,-4.98525c2.34575,-2.25547 5.60844,-3.30928 8.31078,-5.1223c6.35404,-4.16474 11.51544,-9.84838 17.42335,-14.5747c3.92131,-3.13705 8.08784,-5.87536 12.01201,-9.00901c1.22673,-0.9796 2.06798,-2.41406 3.37259,-3.28725c4.04949,-2.71037 6.43273,-4.39991 10.25193,-7.50751c1.64708,-1.3402 5.99561,-3.33215 7.76608,-4.5045c2.6792,-1.77409 5.60953,-3.23311 8.66819,-4.21805c1.28695,-0.41442 6.85205,-2.29566 8.55877,-2.88182c1.20186,-0.41277 7.8331,-1.82374 8.09812,-1.95695c1.61235,-0.81045 6.68865,-0.53177 8.41839,-1.04605c1.32543,-0.39408 9.06608,-0.32181 11.18239,-0.32181c7.50751,0 15.01502,0 22.52252,0c6.56238,0 10.98797,-0.56782 16.86762,2.2933c1.36673,0.66507 2.83326,1.19376 4.03423,2.12539c0.69041,0.53557 2.73407,1.62612 3.34382,1.78795c0.91155,0.24192 7.71504,3.52345 8.66819,4.21805c3.13192,2.28239 5.82141,5.31211 9.00901,7.50751c2.99573,2.06326 6.94903,2.33746 10.06817,4.20894c0.89235,0.53541 3.93215,2.45379 4.93315,2.45379c1.27604,1.1352 6.95587,3.81106 8.4464,4.2974c2.27412,0.74201 4.29722,2.19591 6.61829,2.77453c1.7022,0.42434 2.75851,1.0309 4.42609,1.57562c1.71538,0.56034 3.59691,1.13939 5.33799,1.61386c1.7186,0.46835 3.5538,-0.26358 5.33413,-0.32181c3.50163,-0.11453 7.00701,0 10.51051,0c6.00601,0 12.01201,0 18.01802,0c2.94711,0 6.40643,0.4722 9.30914,0.09684c3.02079,-0.39062 5.17875,-1.91946 8.00971,-3.12672c2.13518,-0.91054 3.69683,-1.87893 5.89915,-2.61233c6.55677,-2.1835 7.95894,-3.04916 12.95091,-7.3004c1.001,0 3.54275,-1.43294 4.12121,-1.87397c2.20837,-1.68371 4.49318,-3.3867 7.08604,-4.38113c1.00103,-0.38392 6.44367,-0.32181 8.17939,-0.32181c5.50551,0 11.01101,0 16.51652,0c15.69282,0 31.55584,-0.65192 47.21843,0.32181c1.73375,1.08403 3.28599,2.536 5.20125,3.2521c2.24695,0.84012 4.79564,0.57796 7.0714,1.33655c0.67759,0.22586 6.99321,3.77528 9.27785,4.1954c1.30524,0.24002 2.74197,-0.26581 3.97502,0.22497c2.35187,0.93608 4.38519,2.5367 6.49137,3.94082c0.90314,0.60209 1.47793,1.75346 2.51763,2.06519c1.66262,0.49849 3.58766,-0.39052 5.20125,0.24909c1.31601,0.52166 4.26747,2.41352 4.85902,2.63273c2.33003,0.86344 4.64665,1.94049 6.58316,3.49757c0.87218,0.70129 3.70606,1.91062 4.6651,2.21233c2.35576,0.74111 5.34106,2.35305 7.34691,3.79368c0.39326,0.28245 6.98698,3.79804 8.07734,4.3802c2.07576,1.1083 7.6031,5.58585 9.64905,7.6318c3.27357,3.4886 8.39333,4.16656 11.16474,7.8968c1.75581,2.36327 2.52434,5.36101 3.23875,8.21715c0.23255,0.92972 -0.8417,1.9507 -0.47406,2.83575c0.39921,0.96103 1.92282,1.03514 2.45379,1.93015c0.6157,1.03783 0.06349,2.5681 0.78753,3.53347c0.89285,1.19046 3.03716,1.14882 3.71698,2.47253c1.73139,3.37126 1.12012,9.09915 1.12012,12.95199c0,10.51051 0,21.02102 0,31.53153c0,4.50007 0.09778,9.01504 0,13.51351c-0.03426,1.57643 0.28945,3.22744 -0.20063,4.72615c-0.77232,2.36179 -1.90293,4.67746 -3.49757,6.58316c-0.97051,1.15983 -2.55381,1.63601 -3.92098,2.28252c-0.15232,0.07203 -0.42811,-0.37678 -0.45923,-0.21119c-0.34503,1.83597 0.41379,3.97659 -0.54922,5.57736c-1.06267,1.76643 -3.40981,2.32808 -4.99756,3.64283c-1.68257,1.39327 -3.23024,2.96784 -4.59127,4.67661c-1.23388,1.54912 -1.93923,3.5185 -3.35467,4.9037c-4.64019,4.54107 -8.55864,5.89882 -13.69596,8.84022c-2.06186,1.18053 -3.80846,3.0509 -6.09557,3.69437c-2.6266,0.73898 -5.45139,0.26585 -8.17939,0.32181c-6.4978,0.1333 -13.01966,0 -19.51952,0c-82.58258,0 -165.16517,0 -247.74775,0c-13.01301,0 -26.02603,0 -39.03904,0h-18.01802c-2.4751,-0.02038 -5.00205,0.37378 -7.42431,-0.13533c-2.63765,-0.55437 -4.87641,-2.41832 -7.50751,-3.003c-1.95433,-0.4343 -4.05168,0.4343 -6.00601,0c-2.6311,-0.58469 -4.86471,-2.4737 -7.50751,-3.003c-2.5535,-0.51142 -5.27006,0.4992 -7.81235,-0.06531c-2.18509,-0.48519 -3.81585,-2.54124 -6.00601,-3.003c-2.37728,-0.50121 -4.8565,0.17072 -7.28586,0.20063c0,0 -13.34668,0 -15.01502,0c-14.01401,0 -28.02803,0 -42.04204,0c-3.74985,-0.01217 -7.51222,0.26995 -11.24954,-0.0365c-2.54353,-0.20856 -4.97673,-1.17261 -7.50751,-1.5015c-3.72803,-0.48448 -7.79424,0.74249 -11.49463,-0.16413c-0.77241,-0.18925 -7.83982,-3.57068 -8.66819,-4.21805c-4.92346,-3.8477 -6.70504,-7.24135 -8.92005,-13.37018c-0.34023,-0.94141 0.31567,-2.05308 0,-3.003c-1.58659,-4.77438 -4.88465,-8.9292 -6.07131,-13.81835c-1.05597,-4.35068 -0.41437,-8.96202 -0.13533,-13.43032c0.03597,-0.57595 0.83893,-1.12332 0.5709,-1.63438c-0.6575,-1.25368 -2.54205,-1.66452 -3.003,-3.003c-1.70914,-4.96288 -0.5709,-14.10412 -0.5709,-19.38664v-4.5045c0,0 0,-5.62553 4.87208,-7.13243z" fill="#e5d15c" stroke="none"/><path d="M313.40284,254.5303c-2.7229,0.00476 -6.10993,0.60206 -8.36395,-1.31653c-1.59554,-1.3581 -2.46314,-4.04933 -0.64064,-5.74356c0.61646,-0.57307 1.70805,-0.26501 2.42378,-0.70791c0.40056,-2.56925 1.98551,-4.76668 1.98551,-7.41069c0,-0.59459 0.15665,-1.36912 -0.23963,-1.91877c-0.60671,-0.84152 -2.38749,-0.50699 -3.2033,-0.50829c-2.42258,-0.00385 -5.78663,-0.30122 -7.3372,-2.59911c-0.81055,-1.20121 -0.76163,-3.82793 -0.56115,-5.21308c0.10785,-0.74514 0.01453,-1.65912 0.54691,-2.1915c1.46349,-1.46349 4.45451,-0.34044 5.86074,0.33948c1.70167,1.41032 2.03587,1.35017 4.16878,1.02723c0.21664,-0.0328 0.53514,0.17881 0.65732,-0.00308c0.12651,-0.18835 -0.16506,-0.42371 -0.22335,-0.64299c-0.12156,-0.45724 -0.21284,-0.92201 -0.31547,-1.38387c-0.36851,-1.65828 -0.58774,-3.4749 -0.3598,-5.18077c0.31099,-2.32734 0.95002,-5.53421 2.25785,-7.52916c1.46468,-2.23421 5.88916,-3.06423 8.22718,-1.94746c1.06706,0.50969 1.96882,2.12547 2.57349,3.02706c1.44761,2.54256 2.79226,5.34089 1.62404,8.27715c-0.54209,1.36251 -1.11576,1.73985 -2.04902,2.86123c-0.32091,0.38559 -0.90372,0.76223 -0.82627,1.25787c0.05173,0.33105 0.67511,0.09572 1.00461,0.03487c1.12047,-0.20692 1.19358,-0.30953 2.25517,-0.87203c2.06704,-1.09525 5.65271,-2.14997 6.76517,0.93988c0.23719,0.65878 -0.03604,1.40265 -0.12972,2.09653c-0.3509,2.59926 -1.41763,3.72979 -3.50929,5.1561c-1.88833,0.9452 -4.03505,1.90379 -6.06016,2.4982c-0.59055,0.17334 -1.50987,-0.11456 -1.93428,0.58625c-0.37333,0.61646 0.13029,1.43571 0.17333,2.15512c0.12843,2.1469 0.33669,4.22082 0.96405,6.30507c0.66468,2.20821 2.08819,5.31154 0.47149,7.58224c-0.83743,1.17619 -2.37209,1.18934 -3.58621,1.35563c0,0 -0.81307,0.10164 -1.22783,-0.50267z" data-paper-data="{&quot;index&quot;:null}" fill="#e9d877" stroke="none"/><path d="M450.51483,229.57019c-0.41476,0.60431 -1.22783,0.50267 -1.22783,0.50267c-1.21412,-0.16629 -2.74878,-0.17944 -3.58621,-1.35563c-1.6167,-2.2707 -0.19319,-5.37403 0.47149,-7.58224c0.62736,-2.08425 0.83562,-4.15817 0.96405,-6.30507c0.04304,-0.71941 0.54666,-1.53866 0.17333,-2.15512c-0.42441,-0.70081 -1.34373,-0.41291 -1.93428,-0.58625c-2.02511,-0.59441 -4.17183,-1.553 -6.06016,-2.4982c-2.09166,-1.42631 -3.15839,-2.55684 -3.50929,-5.1561c-0.09368,-0.69388 -0.36691,-1.43775 -0.12972,-2.09653c1.11246,-3.08985 4.69813,-2.03513 6.76517,-0.93988c1.06159,0.5625 1.1347,0.66511 2.25517,0.87203c0.3295,0.06085 0.95288,0.29618 1.00461,-0.03487c0.07745,-0.49564 -0.50536,-0.87228 -0.82627,-1.25787c-0.93326,-1.12138 -1.50693,-1.49872 -2.04902,-2.86123c-1.16822,-2.93626 0.17643,-5.73459 1.62404,-8.27715c0.60467,-0.90159 1.50643,-2.51737 2.57349,-3.02706c2.33802,-1.11677 6.7625,-0.28675 8.22718,1.94746c1.30783,1.99495 1.94686,5.20182 2.25785,7.52916c0.22794,1.70587 0.00871,3.52249 -0.3598,5.18077c-0.10263,0.46186 -0.19391,0.92663 -0.31547,1.38387c-0.05829,0.21928 -0.34986,0.45464 -0.22335,0.64299c0.12218,0.18189 0.44068,-0.02972 0.65732,0.00308c2.13291,0.32294 2.46711,0.38309 4.16878,-1.02723c1.40623,-0.67992 4.39725,-1.80297 5.86074,-0.33948c0.53238,0.53238 0.43906,1.44636 0.54691,2.1915c0.20048,1.38515 0.2494,4.01187 -0.56115,5.21308c-1.55057,2.29789 -4.91462,2.59526 -7.3372,2.59911c-0.81581,0.0013 -2.59659,-0.33323 -3.2033,0.50829c-0.39628,0.54965 -0.23963,1.32418 -0.23963,1.91877c0,2.64401 1.58495,4.84144 1.98551,7.41069c0.71573,0.4429 1.80732,0.13484 2.42378,0.70791c1.8225,1.69423 0.9549,4.38546 -0.64064,5.74356c-2.25402,1.91859 -5.64105,1.32129 -8.36395,1.31653z" data-paper-data="{&quot;index&quot;:null}" fill="#e9d877" stroke="none"/><path d="M90.45747,255.91697c-0.56327,0.82069 -1.66746,0.68266 -1.66746,0.68266c-1.64885,-0.22583 -3.733,-0.24369 -4.87028,-1.84102c-2.19557,-3.08374 -0.26236,-7.29824 0.64031,-10.29712c0.85199,-2.83053 1.13482,-5.64704 1.30924,-8.56265c0.05845,-0.977 0.7424,-2.08959 0.23539,-2.92678c-0.57637,-0.95174 -1.82486,-0.56076 -2.62686,-0.79616c-2.75022,-0.80724 -5.66559,-2.10906 -8.23005,-3.3927c-2.8406,-1.93701 -4.28928,-3.47234 -4.76582,-7.00228c-0.12722,-0.94233 -0.49829,-1.95255 -0.17617,-2.84721c1.51079,-4.1962 6.38033,-2.76382 9.18749,-1.27641c1.4417,0.76391 1.54099,0.90326 3.06265,1.18427c0.44748,0.08264 1.29407,0.40223 1.36432,-0.04736c0.10518,-0.67311 -0.68631,-1.18461 -1.12212,-1.70826c-1.26742,-1.5229 -2.0465,-2.03535 -2.78269,-3.88572c-1.58651,-3.98761 0.2396,-7.78791 2.20554,-11.24085c0.82118,-1.22441 2.04582,-3.41873 3.49495,-4.11092c3.17517,-1.51664 9.18387,-0.38942 11.17299,2.64476c1.77611,2.70926 2.64395,7.06437 3.06629,10.22504c0.30956,2.31667 0.01183,4.78375 -0.48863,7.03579c-0.13938,0.62723 -0.26334,1.25842 -0.42843,1.87938c-0.07916,0.29779 -0.47513,0.61743 -0.30332,0.87322c0.16593,0.24702 0.59847,-0.04036 0.89268,0.00418c2.89662,0.43857 3.35048,0.52026 5.66144,-1.39504c1.90974,-0.92337 5.97172,-2.44854 7.95922,-0.46103c0.723,0.723 0.59627,1.96424 0.74274,2.97618c0.27226,1.88111 0.3387,5.44835 -0.76207,7.07966c-2.10576,3.12067 -6.67434,3.52451 -9.96434,3.52974c-1.10792,0.00177 -3.52632,-0.45255 -4.35027,0.69029c-0.53817,0.74646 -0.32543,1.79831 -0.32543,2.6058c0,3.59072 2.15245,6.57496 2.69644,10.06415c0.972,0.60148 2.45445,0.18312 3.29163,0.96138c2.47506,2.30086 1.29681,5.95571 -0.87003,7.80009c-3.06109,2.60556 -7.66087,1.79439 -11.35873,1.78792z" fill="#e9d877" stroke="none"/><path d="M-2.02925,229.86138c4.41125,-3.23541 10.20087,-5.32082 14.88717,-6.65485c2.16279,-0.61568 4.04723,-2.05803 6.21034,-2.67255c1.1211,-0.31849 2.33214,-0.01416 3.4855,-0.16872c10.14792,-1.35999 20.48762,-0.89463 30.75571,-0.89463c5.28071,0 10.56142,0 15.84213,0c3.78437,0 7.30767,-0.23153 10.94006,1.336c5.88649,2.54027 9.05675,6.19531 9.46462,12.31516c-0.64771,1.47075 -1.46755,2.74528 -2.81659,3.38663c-0.20693,0.09838 -0.41687,0.18497 -0.62936,0.26153c-10.07006,-0.18064 -20.14508,-0.00062 -30.21708,0.05386c-2.63916,0.01427 -5.1504,1.14858 -7.48943,2.2672c-5.88699,2.81539 -17.27187,5.60332 -19.14981,13.11508c-0.66579,2.66317 -0.72186,6.85367 0.18127,10.58045c-0.55587,3.36677 -0.95957,7.04187 -1.34452,8.16353c-0.12769,0.37207 -0.10771,6.21517 0.06093,6.42965c0.68298,0.8686 1.74967,1.38905 2.35477,2.31666c1.11756,1.71319 2.2575,5.71914 5.29327,4.91463c1.68611,0.06875 3.4112,-0.17062 5.05833,0.20624c1.21326,0.2776 2.16446,1.28503 3.33519,1.71422c1.97421,0.72375 4.25262,-0.39479 6.28681,0.12457c0.97255,0.2483 1.56076,1.35898 2.50139,1.71422c0.3772,0.14245 0.76006,-0.32152 1.16181,-0.33081c1.40941,-0.0326 2.85594,-0.14144 4.22454,0.20624c1.20665,0.30654 2.14278,1.35356 3.33519,1.71422c0.63391,0.19174 1.33481,-0.25514 1.97961,-0.10669c1.7153,0.39491 3.29715,1.27727 5.00278,1.71422c3.72429,0.9541 8.36053,-0.77063 12.19493,0.10669c1.21326,0.2776 2.16446,1.28503 3.33519,1.71422c1.29301,0.47401 2.74066,-0.20624 4.11343,-0.20624c3.89105,0 7.7821,0 11.67315,0c5.83658,0 11.67315,0 17.50973,0c2.30699,0 4.66723,0.65183 6.91966,0.13911c3.74068,-0.85148 7.09735,-2.58428 10.83936,-3.42844c0.84224,-0.19 1.73082,0.34497 2.58011,0.19169c0.29316,-0.05291 0.27259,-0.57196 0.51452,-0.75019c1.20947,-0.89106 2.40972,-1.85463 3.79152,-2.42219c3.50556,-1.4399 8.07577,-1.77795 11.43409,-3.72098c1.02759,-0.59453 1.51431,-1.90823 2.50139,-2.57133c0.93952,-0.63114 2.1428,-0.71397 3.14924,-1.22459c3.03133,-1.53794 6.45164,-4.50334 9.14044,-6.346c2.71893,-1.8633 5.6641,-4.41217 8.63027,-5.77843c3.11039,-1.43269 6.38041,-2.38726 9.60382,-3.60863c1.45005,-0.54942 2.71586,-1.59748 4.21414,-1.98686c3.1454,-0.81745 8.58499,-0.20624 11.72871,-0.20624c3.54426,0 7.92393,-0.64415 11.34514,0.33081c0.96568,0.2752 1.55055,1.38898 2.50139,1.71422c0.85411,0.29215 1.87392,-0.30343 2.69972,0.06483c1.79743,0.80156 3.22548,2.29246 4.90646,3.32713c1.21749,0.74939 2.64063,1.14507 3.77753,2.01805c1.17781,0.9044 1.85486,2.40892 3.07854,3.2465c1.24581,0.85271 2.92408,0.86011 4.16898,1.71422c1.39281,0.95559 2.25181,2.57811 3.59183,3.61038c1.13417,0.87369 2.50364,1.36634 3.75546,2.04952c2.4838,3.17331 4.99629,7.73988 7.85268,10.60371c2.14964,2.15525 4.60507,4.09345 6.22855,6.69017c1.30929,2.09418 1.86791,4.59695 2.93536,6.83145c1.26722,2.6527 2.63977,4.07893 4.31148,6.48263c3.24704,4.66883 8.17451,9.75605 5.58844,16.4719c-0.94734,2.46018 -4.12817,3.17792 -6.33947,4.53206c-1.41,0.86345 -2.90665,1.62224 -4.48217,2.09484c-0.80041,0.2401 -1.69967,-0.23546 -2.50139,0c-1.19513,0.35101 -2.12854,1.40769 -3.33519,1.71422c-2.52707,0.64197 -5.25531,-0.45166 -7.80901,0.06714c-1.46831,0.29828 -2.70812,1.3795 -4.16898,1.71422c-0.86528,0.19826 -8.63428,0.13911 -8.92248,0.13911c-5.00278,0 -10.00556,0 -15.00834,0c-1.34632,0 -6.53446,0.05421 -7.55972,-0.20624c-1.20665,-0.30654 -2.14278,-1.35356 -3.33519,-1.71422c-0.63391,-0.19174 -1.3293,0.22712 -1.97961,0.10669c-1.72995,-0.32035 -3.26717,-1.42801 -5.00278,-1.71422c-1.14558,-0.18891 -2.36734,0.1289 -3.4734,-0.23126c-0.95532,-0.31106 -1.59644,-1.27175 -2.50139,-1.71422c-1.10693,-0.54122 -2.43743,0.33081 -3.66319,0.33081c-1.26514,0 -4.19781,0.02713 -5.41465,-0.09392c-0.74521,0.82234 -1.40346,1.75823 -2.31552,2.37092c-2.1021,1.41213 -4.60197,2.09362 -6.77238,3.39196c-6.18574,0.43773 -11.81155,0.28035 -17.92075,-0.56383c-2.77271,-0.38313 -5.726,0.35027 -8.51531,-0.02024c-3.99658,-0.53087 -7.29119,-2.48544 -11.12435,-3.47023c-2.03148,-0.52191 -4.98605,0.09955 -7.1366,0.09955c-7.51979,0 -16.61349,1.56863 -23.40186,-1.92047c-4.33253,0.37961 -8.69907,-1.40919 -12.81897,-2.46464c-1.49954,-0.38416 -3.0898,0.09955 -4.63521,0.09955c-4.16898,0 -8.33797,0 -12.50695,0c-7.7821,0 -15.5642,0 -23.3463,0c-5.40257,0 -10.6179,-0.27395 -15.9369,0.81959c-4.52517,0 -8.55222,0.98047 -12.87841,1.65219c-0.5095,0.07911 -1.04448,-0.41045 -1.52938,-0.23126c-0.75653,0.27958 -1.15264,1.24787 -1.91673,1.5048c-3.29534,1.10808 -6.74043,1.74487 -10.17963,2.19668c-1.00862,0.1325 -2.05351,-0.24878 -3.05019,-0.04179c-3.16967,0.65828 -6.30586,1.77288 -9.53933,1.81378c-3.27817,0.04146 -10.81884,0.59666 -13.11475,-1.15144c-7.58438,-5.77472 -5.22461,-18.76063 -5.22461,-27.12891c0,-4.95551 0.34947,-9.44404 0.85935,-14.34966c0.15735,-1.51386 -0.16648,-3.08243 0.17508,-4.56387c0.28664,-1.24327 1.31424,-2.20345 1.66759,-3.42844c0.47248,-1.63797 -0.20063,-5.0344 -0.20063,-6.79978c0,-6.41811 -1.0679,-13.78112 0.09684,-20.09138c0.69469,-3.76363 2.6625,-7.20446 3.31084,-10.97682c0.23313,-1.3565 -0.20275,-2.79557 0.12814,-4.13042c0.57774,-2.33069 1.96567,-4.378 2.68563,-6.66647l0.8338,-2.57133c0,0 2.14492,-6.61469 8.47457,-5.16625z" fill="#b46000" stroke="none"/><path d="M347.49371,302.70117c-1.87066,0.79028 -6.43969,2.02716 -9.44661,-2.98438c-3.85872,-6.4312 2.57248,-10.28992 2.57248,-10.28992c3.25365,-1.30972 5.11101,-6.45941 6.60468,-9.68485c1.33608,-2.88513 2.78594,-6.5039 3.49345,-9.64194c0.43839,-1.94443 -0.35609,-4.03935 0.10379,-5.97881c0.49323,-2.08013 2.18357,-3.75101 2.66321,-5.83431c0.64754,-2.81258 -0.64924,-6.26497 0.06531,-9.17251c0.41249,-1.67843 1.65817,-3.05219 2.21338,-4.68895c0.85751,-2.52794 1.03284,-5.94385 0.99663,-8.59472c0,-9.37396 0.71581,-18.50586 2.1346,-27.74991c0.57325,-3.735 0.97186,-8.37713 2.49894,-11.88128c1.2586,-2.88809 2.84624,-5.62185 4.2102,-8.4617c0.45753,-0.9526 1.33696,-1.71716 1.58882,-2.7435c0.4173,-1.70048 -0.30202,-3.62302 0.37027,-5.23975c0.71004,-1.7075 2.50455,-2.73457 3.57329,-4.24371c2.08736,-2.94752 4.04836,-6.44309 7.30696,-8.0008c1.89666,-0.90666 4.18276,-0.43796 6.28077,-0.5709c5.82235,-0.36895 9.1547,0.90509 15.25497,2.61265c0.72853,1.53425 1.20807,3.21381 2.18558,4.60275c0.77248,1.09761 2.14045,1.66421 2.96846,2.72056c0.39116,0.49902 0.23377,1.28149 0.58324,1.81054c0.09687,0.14665 0.32906,-0.22397 0.49763,-0.17424c1.07478,0.31705 2.09305,0.80256 3.12365,1.24248c2.25654,0.96322 6.50233,1.74978 8.77484,0.02014c2.02812,-1.54363 3.65846,-3.56555 5.67467,-5.1247c2.16569,-1.67474 4.7511,-2.72969 7.02912,-4.2481c0.8027,-0.53504 1.24307,-1.51227 2.04638,-2.04638c1.40748,-0.93582 2.94506,-1.67983 4.51174,-2.31408c0.50816,-0.20572 1.16611,0.10896 1.63537,-0.17449c0.74644,-0.45088 1.02861,-1.49047 1.79864,-1.89977c4.11411,-2.18678 8.77313,-2.68567 12.93707,-4.74703c2.18104,-0.54526 4.13552,-1.85091 6.33598,-2.31161c2.22615,-0.46608 4.58302,0.27154 6.82204,-0.12814c2.39528,-0.42757 4.44891,-2.05665 6.82052,-2.60037c5.64766,-1.2948 13.23821,-0.27867 16.9707,4.72064c3.19573,4.28039 -0.40439,9.56792 0.91949,13.81602c0.30254,0.97081 1.14772,1.73498 1.36426,2.72851c0.24158,1.10845 0.20063,5.56964 0.20063,7.18017c0,5.6844 0,11.3688 0,17.05321c0,6.91015 0.58103,14.19157 -0.02555,21.08245c-0.2635,2.99337 -1.43499,5.83884 -2.00334,8.78993c-5.6879,-0.31827 -11.52924,0.53285 -17.24498,0.57985c-3.6472,0.02999 -7.22366,1.11516 -10.77692,1.77647c-8.44162,1.57111 -19.95628,2.87859 -26.89664,8.68583c-9.75959,8.16619 -15.76545,26.7166 -7.26741,36.13509c-0.04003,0.12829 -0.07553,0.25814 -0.10583,0.38976c-0.06251,0.2715 0.06643,0.91365 0.18432,1.59279c0.4127,0.0348 0.82805,0.11635 1.22109,0.19496c0.37716,0.07543 0.74415,0.1896 1.1065,0.32133c1.76157,1.55057 4.07315,2.49103 6.60439,2.49103c0.78194,0.18171 1.58137,0.14649 2.37113,-0.06357c0.1315,0.02042 0.26249,0.04147 0.39276,0.06357c0.65841,0.11169 1.26772,0.18176 1.83339,0.21297c1.31026,0.30119 2.58606,0.87868 3.90256,1.17124c1.10981,0.24662 2.31043,-0.28641 3.41064,0c3.93742,1.02498 4.21014,2.12152 7.28613,3.78091c1.17663,0.63475 2.68011,-0.00698 4.00806,0.14772c1.62333,0.18911 3.23642,0.51062 4.80871,0.95655c3.23175,0.91658 3.82816,1.93672 7.0887,2.49008c7.83733,1.33011 16.42099,3.13365 21.17519,10.55355c0.77583,1.21083 0.82557,2.75586 1.29183,4.11623c1.59996,4.66809 2.56837,4.9302 1.59273,10.54711c-0.74476,4.28768 -3.37517,7.40126 -5.67944,10.90589c-2.03375,1.05357 -3.91883,2.46556 -6.10124,3.16071c-2.58922,0.82473 -9.6805,0.59077 -12.31396,0c-1.78495,-0.40042 -3.33128,-1.73994 -5.15504,-1.88225c-1.4615,-0.11404 -2.96144,0.1434 -4.39476,-0.16413c-0.99423,-0.21332 -1.74328,-1.11263 -2.72851,-1.36426c-0.71349,-0.18223 -1.48623,0.25593 -2.20673,0.10379c-2.67476,-0.5648 -5.03192,-2.27134 -7.72035,-2.767c-1.047,-0.19303 -2.14993,0.24826 -3.1937,0.03848c-1.97638,-0.39721 -3.87803,-1.11979 -5.76153,-1.83832c-1.84957,-0.70559 -3.44104,-2.00344 -5.30582,-2.6678c-4.60739,-1.64145 -8.91077,-3.74307 -13.50332,-5.40445c-2.02382,-0.73213 -4.14257,-1.32631 -5.96475,-2.47153c-1.59163,0 -3.21326,0.30755 -4.7749,0c-2.38728,-0.47015 -4.40567,-2.30263 -6.82052,-2.60037c-1.80609,-0.22269 -3.66753,0.19823 -5.45779,-0.12814c-1.00037,-0.18237 -1.75771,-1.06171 -2.72851,-1.36426c-1.63975,-0.51101 -3.47096,0.41661 -5.15219,0.06531c-2.53432,-0.52957 -4.72647,-2.30326 -7.28647,-2.69003c-1.52131,-0.22984 -3.10583,0.19784 -4.61455,-0.10379c-0.99712,-0.19935 -1.75771,-1.06171 -2.72851,-1.36426c-1.6664,-0.51931 -5.23601,0.20063 -7.14452,0.20063c-5.6844,0 -11.3688,0 -17.05321,0h-2.72851c0,0 -1.47918,0 -3.12374,-0.6569z" fill="#b46000" stroke="none"/><path d="M88.43289,232.74865c-6.7082,3.3541 -10.06231,-3.3541 -10.06231,-3.3541l-1.14659,-2.52091c-0.71688,0.00491 -1.43385,-0.00356 -2.15077,-0.00356c-4.00397,0 -7.40075,0.15526 -11.20809,-1.4047c-0.78465,-0.32149 -1.39286,-1.00328 -2.18821,-1.29732c-1.40137,-0.51808 -3.00346,0.32542 -4.481,0.10379c-0.86917,-0.13038 -1.63036,-0.71643 -2.50139,-0.8338c-2.20354,-0.29693 -4.47152,0.32984 -6.67037,0c-2.70723,-0.40609 -3.49341,-0.73695 -6.3028,-0.73695c-3.00594,0 -6.17407,0.21452 -9.17176,0c-0.40083,-0.02868 -0.7846,-0.46039 -1.16181,-0.32181c-0.94063,0.34557 -1.52884,1.42604 -2.50139,1.66759c-2.03419,0.50522 -4.3126,-0.58288 -6.28681,0.12118c-1.17073,0.41751 -2.12895,1.36771 -3.33519,1.66759c-0.93406,0.23222 -1.93752,-0.2908 -2.88495,-0.12118c-0.29298,0.05245 -0.26687,0.56468 -0.51452,0.72978c-1.43935,0.95957 -2.86732,2.0012 -4.48826,2.60541c-0.78128,0.29123 -1.69098,-0.1961 -2.50139,0c-0.28929,0.07 -0.26687,0.56468 -0.51452,0.72978c-2.27213,1.51476 -4.48088,3.1945 -6.98965,4.273c-1.06591,0.45822 -2.33098,0.02252 -3.4734,0.22497c-3.76189,0.66663 -7.30863,0.93064 -11.20693,0.93064c0,0 -7.5,0 -7.5,-7.5c0,-7.5 7.5,-7.5 7.5,-7.5c3.25016,0 5.70731,-0.26918 8.80419,-0.73695c0.5095,-0.07696 1.06447,0.44717 1.52938,0.22497c2.71241,-1.29639 4.68721,-3.95275 7.50417,-5.00278c0.78128,-0.29123 1.69098,0.1961 2.50139,0c0.28929,-0.07 0.26687,-0.56468 0.51452,-0.72978c1.43935,-0.95957 2.84529,-2.06397 4.48826,-2.60541c1.19902,-0.39514 2.56101,0.18641 3.78542,-0.12118c1.2055,-0.30283 2.12854,-1.3694 3.33519,-1.66759c1.36859,-0.33822 2.81513,-0.23234 4.22454,-0.20063c0.40175,0.00904 0.7846,0.46039 1.16181,0.32181c0.94063,-0.34557 1.52884,-1.42604 2.50139,-1.66759c4.39211,-1.09085 10.11915,-0.32181 14.68033,-0.32181c5.8897,0 12.1627,0.65659 17.8773,1.76444c1.80818,0.35054 3.74073,-0.35484 5.52456,0.10379c1.88231,0.48394 3.37886,2.22603 5.3148,2.3976c3.23606,0.28679 7.44373,-1.02515 10.55436,-0.04065c2.89186,0.91526 6.11124,1.59414 8.33035,3.66201c1.35822,1.26565 0.92522,3.59589 1.38783,5.39383l1.07643,1.70423c0,0 3.3541,6.7082 -3.3541,10.06231z" fill="#fffaae" stroke="none"/><path d="M219.42447,263.54822c2.20339,0.46879 5.89413,2.03928 5.89413,7.30052c0,7.5 -7.5,7.5 -7.5,7.5l-5.65429,-1.5c-0.94185,-0.95786 -2.53189,-0.90756 -3.75558,-1.46179c-0.6626,-0.3001 -0.96985,-1.13496 -1.61902,-1.46311c-0.19103,-0.09656 -0.30097,0.36426 -0.51402,0.38488c-2.10636,0.20385 -4.2324,0 -6.3486,0c-3.09415,0 -6.17452,0.05455 -9.24854,0.13011c-2.20563,1.40906 -5.32193,2.90046 -6.31588,3.33515c-5.54932,2.42692 -11.43293,4.97827 -16.51191,8.26773c-2.73888,0.73363 -5.23454,2.23864 -7.98138,2.9419c-1.07699,0.27574 -2.24798,-0.23223 -3.33519,0c-2.43106,0.51928 -4.29094,2.61546 -6.67037,3.33519c-0.79809,0.2414 -1.69967,-0.22906 -2.50139,0c-1.19513,0.34146 -2.13894,1.33005 -3.33519,1.66759c-0.9005,0.25409 -1.89817,-0.16029 -2.80623,0.06531c-1.45256,0.36087 -2.70752,1.34467 -4.16898,1.66759c-1.15622,0.25548 -2.39088,-0.1931 -3.55213,0.03848c-1.72385,0.34378 -3.27302,1.35488 -5.00278,1.66759c-1.19683,0.21637 -2.46038,-0.36959 -3.6472,-0.10379c-1.2129,0.27165 -2.12854,1.3694 -3.33519,1.66759c-1.98746,0.49116 -4.15612,-0.43454 -6.14142,0.06531c-1.45141,0.36543 -2.6935,1.4164 -4.16898,1.66759c-6.90945,1.17631 -15.25759,0.13533 -22.26322,0.13533c-10.64314,0 -21.63629,0.72533 -32.05184,-0.93064c-4.37211,-0.69512 -9.62908,1.47741 -13.82589,-0.69495c-1.72583,-0.89333 -2.46059,-3.04044 -3.95289,-4.28525c-4.14975,-3.46152 -10.37588,-2.81654 -6.5007,-12.24956c1.33877,-4.42774 4.83116,-5.16378 7.03835,-5.15568c0.87359,-0.25248 1.73458,-0.50133 2.51779,-0.79949c1.06486,-0.40538 2.27839,-0.04671 3.41776,-0.05619c3.05715,-0.02544 6.11451,0 9.17176,0c8.39532,0 16.79064,0 25.18595,0c1.32251,-0.18235 2.70809,-0.10925 4.09564,0c2.01031,0 4.02061,0 6.03092,0c0.76778,-0.16648 1.50223,-0.44175 2.18942,-0.8758c1.60418,-0.80209 7.11624,-3.60923 8.30133,-3.92635c1.77924,-0.47612 3.70895,0.206 5.52456,-0.10379c2.67476,-0.45638 5.31362,-2.57902 7.81619,-3.2314c1.07578,-0.28044 2.25665,0.26963 3.33519,0c1.20584,-0.30146 2.13604,-1.34052 3.33519,-1.66759c1.06487,-0.29045 2.21426,0.00281 3.30816,-0.14444c3.54002,-0.47651 7.14419,-2.58581 10.55436,-3.29454c1.58929,-0.3303 3.34088,0.78474 4.86456,0.22497c0.94063,-0.34557 1.5359,-1.39922 2.50139,-1.66759c1.38517,-0.38503 2.88276,-0.03025 4.3072,-0.22497c3.55389,-0.48581 6.10087,-3.33273 9.86734,-3.11022c5.71339,-3.80893 16.18893,-1.9894 23.0183,-1.9894c2.0744,0 5.53652,-0.61488 7.50417,0c2.70079,0.84398 6.65109,0.66654 8.35,2.67794c1.69099,-0.02731 3.38458,-0.04374 5.08177,-0.04374c3.56488,0 8.21011,-0.59604 11.60603,0.38488c1.15411,0.33337 1.89776,1.51784 2.99815,1.99976c0.89856,0.39353 1.99989,0.15575 2.88573,0.57715c0.71786,0.34149 1.36971,0.79739 2.00746,1.27771zM162.66377,271.76256c0.23418,-0.13784 0.46946,-0.26815 0.70568,-0.39256c-0.03436,-0.0598 -0.068,-0.12062 -0.10087,-0.18248c-0.0886,0.02404 -0.17638,0.05256 -0.26326,0.08601c-0.11083,0.17114 -0.22538,0.33424 -0.34155,0.48903z" fill="#fffaae" stroke="none"/><path d="M506.60054,151.30641c0,4.86634 -3.55047,7.39099 -7.5,7.5c-10.06821,0.27789 -20.14453,-0.09465 -30.21613,0c-4.22833,0.03974 -7.14124,1.42233 -11.50511,1.50175c-0.38887,0.33173 -0.7902,0.64467 -1.22255,0.91145c-1.85446,1.14429 -5.33944,1.87367 -7.08656,3.43051c-1.2096,1.07786 -1.77318,2.83661 -3.06188,3.81118c-1.50778,1.14024 -3.51497,1.36859 -5.11191,2.37019c-0.82517,0.51755 -1.21751,1.60835 -2.04638,2.11951c-3.51999,2.17073 -8.17574,3.99581 -12.04635,5.59938c-6.74346,3.12042 -17.13213,3.3429 -24.03104,-0.07226c-1.73692,-0.85983 -5.24797,-4.79055 -7.36753,-5.10585c-0.86046,-0.128 -1.73896,0.23993 -2.60387,0.1496c-1.69465,-0.17699 -4.48512,-1.40976 -6.22815,-0.85611c-2.31379,0.73495 -4.38771,2.20069 -6.73654,2.80476c-0.95928,0.2467 -2.03596,-0.07994 -2.95017,0.30922c-0.96167,0.40934 -1.51545,1.53228 -2.45571,1.99188c-1.29613,0.63354 -2.75519,0.81904 -4.13278,1.22855c0,0 -7.27607,1.88402 -9.09509,-5.65205c-1.81902,-7.53608 5.45705,-9.4201 5.45705,-9.4201c1.6259,-0.22647 2.79859,-1.81038 4.32556,-2.4316c1.65762,-0.67437 3.50831,-0.65362 5.23537,-1.10379c2.40277,-0.6263 4.49265,-2.26638 6.90603,-2.84728c2.40374,-0.57857 4.84138,-0.39513 7.24684,-0.06386c0.77241,-0.14394 1.29759,-0.14394 1.29759,-0.14394c6.40894,0 13.87468,1.06536 20.07621,-0.99255c3.12515,-1.03705 6.08468,-3.50911 9.19839,-4.81039c3.27673,-1.36942 7.23021,-3.73465 10.61208,-4.58681c1.10466,-0.27835 2.29012,0.19902 3.41064,0c2.702,-0.47991 6.74012,-3.72281 9.2831,-5.03974c1.45316,-0.6751 2.82418,-1.58661 4.35947,-2.0253c0.87675,-0.25052 1.84616,0.22847 2.72851,0c0.9865,-0.25543 1.73498,-1.18873 2.72851,-1.41301c2.586,-0.58375 5.31762,-0.33595 8.03789,-0.09149c0.9098,-0.56 1.86084,-1.02451 2.87616,-1.32152c0.85532,-0.25021 5.72463,-0.2078 7.18017,-0.2078c1.78091,0 3.55674,-0.03989 5.32665,-0.05299c0.94547,-0.374 1.81162,-1.01573 2.80484,-1.21986c3.79607,-0.78015 8.45023,-0.14017 12.33236,-0.14017h2.72851c0,0 7.5,0 7.5,7.76801l-0.00002,0.00002c0,0.5324 -0.03523,1.02831 -0.10086,1.49023c2.24667,1.13549 3.84669,3.35041 3.84669,6.61225z" fill="#fffaae" stroke="none"/><path d="M455.73608,285.05287c-7.13343,-0.19758 -14.38881,0.26845 -21.48167,0.26845c0,0 -7.5,0 -7.5,-8.7276c0,-8.7276 7.5,-8.7276 7.5,-8.7276c3.98321,0 8.14105,-0.25649 12.30982,-0.41962c2.68501,-1.83692 5.88028,-0.90734 5.88028,-0.90734l1.82587,0.59859c0.8971,0.02558 1.74197,0.12812 2.55274,0.2926c1.67501,0.09439 3.32902,0.25334 4.95067,0.50117c6.38806,0.97627 11.95187,5.85281 17.88873,8.3448c1.09061,0.45778 2.32011,0.33573 3.41064,0.79378c3.58636,1.50636 4.59311,2.72423 7.523,5.24202l2.65869,2.32039c1.86133,1.58813 3.06983,4.15135 3.06983,7.04302c0,4.82013 -3.35786,8.7276 -7.5,8.7276h-3.41064c-4.01972,1.48893 -5.74946,-1.40455 -9.00928,-3.04569c-0.97711,-0.49192 -2.13561,-0.40836 -3.08167,-0.97655c-2.26104,-1.35794 -4.02086,-3.6464 -6.17672,-5.21901c-2.45747,-1.79261 -5.37128,-2.8671 -7.9971,-4.22515c-1.44241,-0.746 -2.39834,-1.42509 -3.41316,-1.88385z" fill="#fffaae" stroke="none"/><path d="M255.23348,294.94937c0,-4.14214 3.35786,-7.5 7.5,-7.5c0.13972,0 0.27855,0.00382 0.41639,0.01136l0.10364,-0.05182l0.21204,0.07573c1.00489,0.09735 1.95175,0.393 2.80096,0.84734h26.61576l1.3033,-0.26066l0.79337,-0.19834l0.59116,-0.29558l0.0418,-0.07314l0.20898,-0.05225l0.18692,-0.09346l1.68226,-0.37384l1.67184,-0.41796h0.20898l0.21028,-0.04673l0.07009,0.04673h0.35258l0.8695,-0.21738h0.92329l0.88516,-0.22129l0.18692,-0.09346l0.68547,-0.15233l0.60823,-0.3509l1.64067,-0.46876l1.0302,-0.82416l1.19992,-0.54996l1.11359,-0.70865l3.97176,-1.32392l0.47253,-0.03635l0.42831,-0.20288l0.75165,-0.15033l0.08942,-0.05961l0.9434,-0.33693l0.84515,-0.53782l1.37885,-0.45962l1.16202,-0.92961l0.46489,-0.21307l0.36161,-0.36161l4.41306,-2.64784l0.28134,-0.08562l0.22328,-0.19138l1.55925,-0.77962l1.2621,-1.2621l0.47067,-0.706l1.08959,-0.99054l0.99054,-1.08959l0.25499,-0.16999l0.14734,-0.19645l1.46279,-2.92557l0.30843,-0.35983l0.1594,-0.44632l0.17827,-0.26741l0.38222,-1.52887l0.25713,-0.14693l0.01643,-0.2957l2.93484,-2.51558l0.15116,-0.07558l0.00315,-0.05668l1.12878,-0.96753l0.18749,-0.21873l0.00765,-0.13765l0.4159,-0.35649l0.35649,-0.4159l0.13765,-0.00765l0.21873,-0.18749l0.96753,-1.12878l0.3736,-0.02076l0.46493,-0.39851l0.44492,-0.22246l0.0418,-0.07314l0.20898,-0.05225l0.18692,-0.09346l1.68226,-0.37384l1.67184,-0.41796h0.20898l0.21028,-0.04673l0.07009,0.04673h0.39326l3.20117,0.80029l0.15293,-0.0085l0.03738,0.05608l0.35851,0.08963l1.68431,2.94754l0.39128,0.26085l-0.01811,0.32597l1.73925,2.60887l-0.08017,0.36075l0.03344,0.05851l-0.07599,0.13299l-0.7158,3.22111l-0.88261,1.76523l-0.78461,0.91538l-0.62029,1.03382l-0.73394,0.73394l-0.10208,0.30623l-0.28982,0.45543l-0.1171,0.52697l-1.32392,2.64784l-0.44366,0.5176l-0.26455,0.6283l-0.91815,1.22421l-1.46279,2.92557l-0.19138,0.22328l-0.08562,0.28134l-1.14542,1.90904l-0.35117,1.40467l0.1509,0.5533l-0.49581,0.82635l-0.23373,0.93491l-0.49794,0.28454l-0.76126,1.26876l-0.00209,0.00209l-0.23167,0.92669l-0.13839,0.25948l-0.02255,0.29321l-0.28656,0.85967l0.02217,0.08127l-0.11083,0.18471l-0.06609,0.19826l-0.9252,1.45388l-0.12204,0.2034l-0.2423,1.09034l-0.09346,0.18692l-0.49355,1.97421l-0.25713,0.14693l-0.01643,0.2957l-2.21391,1.89764l-1.41957,1.41957l-1.03382,0.62029l-0.91538,0.78461l-1.76523,0.88261l-0.52697,0.1171l-0.45543,0.28982l-0.19826,0.06609l-0.34545,0.20727l-0.28454,0.49794l-0.93491,0.23373l-0.82635,0.49581l-0.03891,-0.01061l-0.36095,0.30939l-1.32753,0.66377l-0.0418,0.07314l-0.20898,0.05225l-0.18692,0.09346l-1.68226,0.37384l-0.33396,0.08349l-0.66705,0.22235l-0.85079,0.4254l-0.0418,0.07314l-0.20898,0.05225l-0.18692,0.09346l-1.5887,0.35305l-0.6415,0.32075l-0.93541,0.6236l-0.28418,0.10149l-0.12607,0.22063l-1.63897,0.40974l-1.59099,0.56821l-0.22728,-0.11364l-0.18614,0.04654l-0.82404,0.52439l-0.92407,0.30802l-0.0139,0.0417l-1.52679,0.72322l-1.44866,0.8692l-0.24516,-0.06686l-0.27271,0.12918l-1.06687,0.21337l-0.65681,0.43787l-0.73882,0.26386l-0.636,0.45933l-2.20653,0.88261l-0.74497,0.10159l-0.08674,0.05783l-0.44632,0.1594l-0.35983,0.30843l-1.32753,0.66377l-0.0418,0.07314l-0.20898,0.05225l-0.18692,0.09346l-1.68226,0.37384l-1.67184,0.41796h-0.20898l-0.21028,0.04673l-0.07009,-0.04673h-0.21763l-0.47934,0.34619l-2.20653,0.88261l-0.68749,0.09375l-0.62706,0.29703l-1.22165,0.24433l-0.44924,0.22462l-0.93541,0.6236l-0.28418,0.10149l-0.12607,0.22063l-1.63897,0.40974l-1.33675,0.47741l-0.16779,0.10678l-0.37107,0.12369l-1.81214,1.20809l-0.28418,0.10149l-0.12607,0.22063l-1.63897,0.40974l-1.59099,0.56821l-0.22728,-0.11364l-0.29275,0.07319h-4.41306l-3.75,-0.9375l-0.43337,-0.75839l-0.85651,-0.1713l-2.07524,-3.2611l-0.44131,-1.32392l-0.09247,-1.20208l-0.29241,-1.16963v-1.31863l-0.09082,-0.18163l-0.37384,-1.68226l-0.11794,-0.47175l-1.19247,-1.19247l-0.38433,-0.64056l-0.55274,-0.50249l-0.88261,-1.32392l-0.1594,-0.44632l-0.30843,-0.35983l-1.80446,-3.60892l-0.97432,-0.24358l-0.12607,-0.22063l-0.28418,-0.10149l-1.22713,-0.81809c-1.06549,-0.68812 -1.94539,-1.63897 -2.54805,-2.76091l-0.1489,-0.16379l0.00776,-0.11256c-0.47884,-0.9877 -0.74735,-2.09631 -0.74735,-3.26764zM281.00333,306.33475l1.1673,-0.2594l0.23308,-0.15538l0.44632,-0.1594l0.25903,-0.22202h-2.21532l0.06304,0.81948z" fill="#fffaae" stroke="none"/><path d="M384.08915,196.40973c2.94885,-1.40734 5.76217,-1.21878 8.84776,-1.23347c5.96349,-0.0284 11.92792,0 17.8915,0c2.10075,0 4.22973,0.44451 6.30152,0.09684c1.19995,-0.20136 2.2627,-0.95426 3.46287,-1.15429c1.13858,-0.18976 2.32429,0.18976 3.46287,0c1.20017,-0.20003 2.26251,-0.95537 3.46287,-1.15429c1.23255,-0.20425 2.50984,0.12729 3.74786,-0.04065c2.91854,-0.39591 5.69032,-1.52277 8.53329,-2.29228c12.86344,0 18.336,-15.37643 32.1978,-13.1462c5.17264,0.83223 10.82173,5.93262 12.46045,10.60331c0.66023,1.88178 -0.28484,3.97904 -0.36056,5.97184c-0.12731,3.35031 -0.24673,6.47852 -0.57715,9.81147c-0.15957,1.60962 0.21929,3.2973 -0.24658,4.84627c-1.36576,4.541 -4.82608,8.05729 -8.40615,10.85272c-5.01653,4.00031 -10.47946,7.20889 -16.59571,9.24782c-2.47039,0.82353 -5.14005,0.94111 -7.60964,1.76704c-1.41657,0.47375 -2.61191,1.52844 -4.05905,1.89843c-2.63285,0.67314 -5.40713,0.55787 -8.11722,0.75891c-1.71539,0.12725 -3.49847,-0.63746 -5.15712,-0.18176c-0.82962,0.22793 -1.46427,0.98891 -2.30858,1.15429c-1.88794,0.36979 -3.89815,-0.43797 -5.77145,0c-2.15635,0.50415 -4.80914,2.72424 -6.61587,3.80462c-2.57301,1.53859 -5.34574,2.73632 -7.93462,4.27204c-2.28298,0.92686 -4.3901,2.39441 -6.80388,2.8891c-5.55593,1.13865 -10.77047,-0.54733 -16.19323,-0.97921c-1.29085,-0.10281 -2.62672,0.26093 -3.88453,-0.04694c-2.6812,-0.65627 -5.63447,-1.08559 -7.78953,-2.81048c-1.90939,-1.52826 -2.85098,-4.05012 -3.66389,-6.35675c-1.43955,-4.08475 0.32961,-8.83352 1.0505,-12.73598c1.20714,-6.53471 -1.03002,-13.22428 -1.25113,-19.57586c0,0 0,-7.5 7.5,-7.5c1.92923,0 3.36221,0.49626 4.42658,1.23347z" fill="#9e5400" stroke="#9e5400"/><path d="M492.78011,312.57624c0,10.10569 -7.5,10.10569 -7.5,10.10569h-2.30858c-4.7759,0 -9.95414,0.79392 -14.55407,-1.32465c-3.92345,-1.807 -7.25926,-4.4453 -11.24598,-6.09323c-4.94362,-2.04348 -10.38169,-1.78887 -15.30269,-4.01634c-4.8746,-2.20646 -8.89157,-6.28203 -14.04262,-7.42585c-1.867,-0.54736 -3.57731,-1.87396 -5.44658,-2.40707c-0.94106,-0.26839 -1.94672,0.28117 -2.88573,0c-0.83987,-0.25148 -1.46656,-1.31727 -2.30858,-1.55532c-2.46585,-0.69714 -5.09398,-0.09559 -7.52193,-1.00267c-0.63492,-0.23721 -1.06573,-1.16019 -1.7124,-1.3303c-2.09537,-0.55122 -4.29775,0.61014 -6.40396,0.13985c-1.20036,-0.26803 -2.26638,-1.25751 -3.46287,-1.55532c-2.39449,-0.59601 -5.5846,0.13048 -8.03295,0.13048c-5.57907,0 -11.15814,0 -16.73721,0c0,0 -7.5,0 -7.5,-10.10569c0,-10.10569 7.5,-10.10569 7.5,-10.10569c5.57907,0 11.15814,0 16.73721,0c3.32615,0 7.17726,-0.54541 10.43569,0.13048c1.20256,0.24945 2.27103,1.2254 3.46287,1.55532c2.43196,0.6732 5.00218,-0.43868 7.44752,0.13985c1.04769,0.24786 1.89568,1.3269 2.90476,1.78034c2.00569,0.90125 4.25372,0.01188 6.32956,0.55265c0.84471,0.22005 1.46871,1.30384 2.30858,1.55532c0.939,0.28117 1.94834,-0.2908 2.88573,0c1.69519,0.5259 3.22564,1.87776 4.94203,2.25889c3.03816,0.89072 6.12512,2.09985 9.04318,3.46139c2.40255,1.12099 4.53321,3.60929 6.92574,4.66596c4.68918,2.07098 9.95174,1.87175 14.70885,3.76026c4.19273,1.66446 7.8297,4.10133 11.83982,6.34932c2.50551,1.40454 7.07487,0.23067 9.68602,0.23067h2.30858c0,0 7.5,0 7.5,10.10569z" fill="#9e5400" stroke="#9e5400"/><path d="M20.89032,275.71708c0.06417,0.85884 0.11941,1.69027 0.11941,2.44521c0,1.42339 -0.55721,2.89201 -0.20063,4.26493c0.17389,0.66952 0.79664,1.13959 0.98729,1.80403c0.32825,1.14396 -0.51883,2.90383 0.43156,3.55634c1.99356,1.36871 4.4017,1.88613 6.37622,3.23526c0.99893,0.68254 1.61485,1.86298 2.56522,2.61857c1.95584,1.55499 4.37293,3.12806 6.4834,4.55285c2.07713,1.40228 4.6966,2.14079 6.914,3.30228c4.55636,2.41725 9.34652,3.58827 14.24747,4.14988c0.4973,-0.02952 0.99411,-0.06122 1.48969,-0.09995c7.01414,-0.54816 14.27929,-0.01988 21.30889,-0.01988c4.38034,0 8.76067,0 13.14101,0c4.94418,-1.0758 9.34278,-3.45877 14.5205,-3.62125c7.54584,-1.39751 14.90079,-1.24298 22.55012,-1.24298c3.69459,0 8.16827,-0.56173 11.80692,0.14257c1.22006,0.23615 2.29766,0.99914 3.48833,1.36574c3.92688,1.20904 8.42252,0.82107 12.39942,1.7432c0.84025,0.19483 1.46187,1.05524 2.30858,1.21606c1.15464,0.21931 2.36049,-0.30963 3.51824,-0.10934c2.4013,0.41541 4.52083,2.04059 6.92574,2.43211c2.31758,0.37731 4.75479,0.4784 6.88942,1.50134c2.51228,0.41674 4.86881,1.5514 7.29238,2.36358c6.7155,2.25049 13.91439,1.37239 20.66385,2.86394c1.1171,0.24687 2.13162,0.87195 3.1609,1.43203c9.27282,-0.07401 18.54204,0.03543 27.69544,0.8774c4.16269,0.3829 8.56739,-0.01988 12.74267,-0.01988c1.34667,0 2.79954,-0.55222 4.04002,0h3.46287c4.14214,0 7.5,3.53754 7.5,7.90133c0,3.55433 -2.22768,6.56051 -5.29236,7.55347l-3.2988,1.15844l-0.22289,-0.70444l-0.94746,1.00788c-2.32384,0.05801 -4.64832,0.10202 -6.97282,0.10202c-6.92574,0 -13.85148,0 -20.77722,0c-3.32615,0 -7.17726,0.42644 -10.43569,-0.10202c-1.20256,-0.19504 -2.26041,-1.02032 -3.46287,-1.21606c-1.4024,-0.22827 -2.86217,0.23468 -4.25696,-0.04054c-0.48535,-0.09577 -0.95131,-0.26224 -1.40716,-0.46546c-7.13821,0 -14.27642,0 -21.41463,0c-3.64899,0 -7.49695,0.30926 -11.12764,-0.03845c-2.10208,-0.20132 -4.12628,-1.001 -6.22817,-1.20453c-1.22386,-0.11851 -2.48442,0.15924 -3.68543,-0.11564c-4.21166,-0.96394 -8.13361,-3.71242 -12.2617,-5.04922c-2.80315,-0.90775 -5.56342,-0.62149 -8.4134,-0.92695c-2.46725,-0.26444 -4.77985,-1.43808 -7.22697,-1.86201c-2.59225,-0.44906 -5.2847,0.35654 -7.88093,-0.06619c-1.02385,-0.16671 -1.87116,-0.99516 -2.88573,-1.21606c-2.24611,-0.48905 -5.50029,0.14257 -7.81601,0.14257c-7.87015,0 -15.7403,0 -23.61046,0c-6.57334,1.12243 -13.60637,0.60803 -20.25257,0.60803c-4.99413,0 -9.78437,-0.16007 -14.74022,-0.60784c-1.8256,0.12205 -3.69272,-0.05796 -5.46815,0.39648c-1.72353,0.44116 -3.42063,1.21606 -5.19431,1.21606c-4.16725,2.82494 -10.12638,3.80492 -14.99748,3.85954c-4.78822,0.05369 -9.94452,0.59207 -14.55407,-1.03571c-2.24571,-0.79303 -4.11763,-2.47005 -6.12612,-3.79252c-2.21251,-1.45682 -4.67074,-2.67104 -6.43232,-4.69866c-1.46609,-1.68751 -2.29192,-3.89743 -3.63371,-5.69606c-2.27496,-3.04952 -5.12591,-6.44279 -5.98755,-10.31994c-1.06678,-4.80025 -0.35714,-11.65269 0.40207,-16.45171c-0.04757,-4.44604 -0.67759,-9.62062 0.07129,-13.99057c1.30035,-7.58804 5.46713,-15.25385 9.33657,-21.65899l1.32798,-0.38396c0.02848,-0.05363 0.05753,-0.10688 0.08715,-0.15973l-0.34566,-0.48554l2.24797,-1.7762c1.26371,-1.02121 2.84488,-1.62816 4.56061,-1.62816c0.26542,0 0.52762,0.01453 0.78593,0.04287c3.27649,-2.90767 7.19104,-4.94616 11.20868,-6.3035c1.86997,-0.63177 3.40745,-2.21692 5.32804,-2.64842c5.97454,-1.34229 13.48951,-0.21137 19.61464,-0.21137c5.89677,0 11.82544,-0.39883 17.63093,0.76147c0,0 1.28767,-0.06295 2.76129,0.33129c-5.94386,0.01967 -11.8883,0.09554 -17.83169,0.12768c-2.63916,0.01427 -5.1504,1.14858 -7.48943,2.2672c-5.88699,2.81539 -17.27187,5.60332 -19.14981,13.11508c-0.21979,0.87917 -0.37314,1.9248 -0.44746,3.06525c-1.28473,0.71551 -2.45544,1.63769 -3.26409,2.91945c-0.82742,1.31152 -1.0596,2.95095 -1.72809,4.35947c-0.62391,1.65434 -1.63989,3.53361 -2.33066,5.34602c-0.30271,2.06617 0.31892,4.22577 -0.03219,6.28798c-0.09198,0.54021 -0.32362,1.03714 -0.56123,1.53285z" fill="#9e5400" stroke="#9e5400"/><path d="M154.79235,272.25989c-1.83161,0.0086 -5.71619,0.02424 -6.34133,-0.4318c-4.27511,-3.11869 -1.53004,-9.82449 1.32688,-12.51434c0.745,-0.70143 1.94199,-0.68908 2.81732,-1.21901c1.89916,-1.14978 3.61671,-2.8311 5.7876,-3.29588c1.63028,-0.34904 3.36735,0.32963 5.00167,0c3.14157,-0.63363 5.61276,-3.62709 9.20702,-1.72128c1.13524,0.60195 1.44007,2.13161 2.23927,3.1378c1.06041,1.33507 3.16151,1.5015 4.29875,2.77176c2.45106,2.73774 1.60548,4.86667 1.35919,8.08376c-3.15328,1.91249 -5.63402,4.26205 -9.38278,4.67467c-4.47174,0.4922 -8.64705,-0.60975 -12.96028,0.88421l-1.7909,0.12829c0,0 -0.85294,0 -1.56241,-0.4982z" fill="#9e5400" stroke="#9e5400"/><path d="M7.86288,220.08936c-0.7023,0.28927 -1.96258,0.52263 -2.95289,-0.86381c-0.97434,-1.36408 -0.3807,-2.46683 0.11624,-3.04541c0.06523,-0.56371 0.35978,-1.17359 1.13147,-1.68805c0.42108,-0.28072 0.81374,-0.41937 1.17224,-0.46198c0.97767,-1.21799 1.47517,-2.47464 2.84122,-3.91337c3.76171,-3.96185 12.42805,-7.3032 17.45098,-3.96548c0.73754,0.4901 0.28393,1.99802 1.05147,2.43965c0.56245,0.32362 1.1245,-0.9136 1.76637,-0.81831c3.70758,0.55042 7.98169,2.23187 5.24332,7.55315c-0.68362,1.32843 -2.76545,1.14213 -4.19184,1.5865c-4.18304,1.30319 -9.09894,-0.60093 -12.88331,1.388c-0.8685,0.794 -1.5036,1.96901 -2.60549,2.38201c-0.62688,0.23496 -6.09659,0.1903 -7.25797,0.1903z" fill="#9e5400" stroke="#9e5400"/><path d="M67.57673,209.48433c1.38675,-2.08013 3.46688,-0.69338 3.46688,-0.69338l0.00337,0.00251c3.53784,-0.98938 10.74797,-1.91348 9.08896,4.65108c-0.65391,2.58748 -6.95707,3.20555 -8.82318,2.39835c-1.16805,-0.50525 -1.76924,-1.82982 -2.65386,-2.74472l-0.38879,-0.14697c0,0 -2.08013,-1.38675 -0.69338,-3.46688z" fill="#9e5400" stroke="#9e5400"/><path d="M456.1606,147.6438c-0.63416,0.32665 -1.27789,0.32665 -1.27789,0.32665c-5.17875,0 -12.73935,-0.12773 -9.80165,-8.04596c0.46877,-1.26351 1.50732,-2.30823 2.60174,-3.09464c0.73582,-0.52873 1.86914,-0.18376 2.63487,-0.66817c1.74086,-1.1013 2.08586,-3.7601 3.83767,-4.84388c1.18408,-0.73255 2.66547,-0.84521 4.04231,-1.05257c1.92406,-0.28977 3.93048,0.13199 5.83121,0.31127c0.60825,0.05737 1.33185,0.4701 1.82921,0.11529c1.01087,-0.72113 0.96985,-2.9763 2.2114,-2.99778c1.82628,-0.03161 3.51293,1.4594 4.66252,2.87881c0.77759,0.96009 0.51018,2.42304 0.62762,3.65294c0.29918,3.1332 -0.42714,6.5778 -0.7251,9.67157c-5.563,3.04169 -10.26056,3.72569 -16.47392,3.74648z" fill="#9e5400" stroke="#9e5400"/><path d="M461.15714,278.11161c-0.40604,0.05606 -0.70766,0.01836 -0.70766,0.01836c-1.13252,-0.18702 -2.39838,0.00393 -3.39755,-0.56106c-4.46002,-2.52199 -5.51841,-8.86248 -0.07884,-11.11962c4.39657,-1.82435 5.78546,2.2657 9.31047,2.80483c1.72355,0.26361 3.11432,-2.19687 4.8437,-1.97472c1.78922,0.22985 3.68709,1.07377 4.80525,2.48934c0.84271,1.06686 0.47856,2.70668 0.36955,4.06184c-0.12554,1.56056 0.07468,3.50046 -1.0643,4.57462c-1.21384,1.14476 -3.24088,0.82753 -4.89507,1.0456c-3.44158,0.4537 -6.23578,0.13272 -9.18554,-1.33919z" fill="#9e5400" stroke="#9e5400"/><path d="M262.92181,293.29526c-0.25817,0.04656 -0.43381,0.04656 -0.43381,0.04656c-3.91548,-0.08092 -10.50475,-1.46571 -7.45499,-7.67791c1.35661,-2.76335 4.64059,-1.83452 6.77999,-2.3107c1.64607,-0.36638 2.25507,-2.62863 3.76541,-3.37872c1.40344,-0.697 3.09015,-1.0453 4.63517,-0.78381c1.44116,0.24391 2.7147,1.21682 3.78771,2.20934c0.59096,0.54663 0.42131,1.63021 0.98478,2.20515c1.39668,1.4251 4.79738,-0.08411 5.74856,1.67001c0.91865,1.6941 0.40716,4.03863 -0.45179,5.76377c-0.64218,1.28978 -2.2845,1.80863 -3.60523,2.38448c-3.62506,1.58057 -8.53037,0.40412 -12.34367,0.38024c-0.40841,-0.2153 -0.90092,-0.36872 -1.41213,-0.50839zM275.04519,288.70517c-0.06513,0.0072 -0.13005,0.01241 -0.19485,0.01561c-0.00316,0.01434 -0.00645,0.02864 -0.00986,0.04289c0.02506,-0.00641 0.0501,-0.01291 0.07511,-0.01949c0.04372,-0.01151 0.08688,-0.02461 0.12959,-0.03901z" fill="#9e5400" stroke="#9e5400"/><path d="M283.04647,290.08939c2.76644,-0.23487 7.4536,4.44163 5.84695,7.60213c-0.79131,1.55662 -3.18852,1.42489 -4.78277,2.13734l-3.23694,-1.14423c0,0 -0.05439,-0.02175 -0.14317,-0.06692c-0.04576,0.0025 -0.09185,0.00376 -0.13823,0.00376c-1.38071,0 -2.5,-1.11929 -2.5,-2.5c0,-0.998 0.58479,-1.85942 1.43041,-2.26029l1.76819,-0.8841c0.54008,-1.08283 0.62899,-2.79205 1.75556,-2.8877z" fill="#9e5400" stroke="#9e5400"/><path d="M341.70059,267.89592l-0.48305,0.21427c-2.42253,0.92809 -3.46879,1.71087 -6.21614,1.13819c-1.6905,-0.35238 -4.04271,-0.23702 -4.87621,-1.74938c-2.89272,-5.24876 1.63027,-4.25682 2.9078,-6.57293c0.42285,-0.76661 -0.02438,-1.84907 0.44411,-2.58867c0.8184,-1.29201 1.87828,-2.56058 3.24827,-3.24042c3.98865,-1.97933 9.24712,0.66918 10.34278,4.99703c0.41631,1.6444 -0.72857,4.94285 -1.23885,6.65535c0,0 -0.71837,2.39457 -3.11293,1.6762c-0.4327,-0.12981 -0.76377,-0.31436 -1.01578,-0.52962z" fill="#9e5400" stroke="#9e5400"/><path d="M326.02848,292.85105c-0.6868,-2.40381 1.717,-3.09061 1.717,-3.09061l1.93341,-0.53981c1.99416,-0.35204 5.26114,-0.80936 7.03013,-1.69057c1.36281,-0.67888 1.9458,-2.34803 3.02211,-3.42491c0.98147,-0.98199 2.52889,-1.9754 3.29632,-3.21666c2.40451,-3.8891 3.26819,-8.14817 4.54599,-12.43018c0,0 0.71837,-2.39456 3.11294,-1.6762c2.39457,0.71837 1.67619,3.11293 1.67619,3.11293c-1.41752,4.69723 -2.4186,9.47116 -5.13299,13.70308c-1.46412,2.28266 -2.18003,2.26065 -3.96292,4.04256c-1.25842,1.25773 -2.69281,3.4792 -4.23712,4.31828c-2.02724,1.10147 -6.15515,1.75252 -8.45623,2.18102l-1.45424,0.42809c0,0 -2.4038,0.6868 -3.09061,-1.71701z" fill="#fffaae" stroke="none"/><path d="M274.87563,306.19874c0,-2.5 2.5,-2.5 2.5,-2.5h1.20988c2.23039,0.00486 4.4663,0.17863 6.67148,0.51302c0,0 2.47093,0.38014 2.09078,2.85107c-0.38015,2.47093 -2.85107,2.09079 -2.85107,2.09079c-1.9525,-0.30525 -3.93497,-0.45974 -5.91119,-0.45488h-1.20988c0,0 -2.5,0 -2.5,-2.5z" fill="#fffaae" stroke="none"/><path d="M257.51295,292.65109c2.48973,0.22634 2.26339,2.71607 2.26339,2.71607l-0.26039,1.8105c0.30532,0.53952 0.61064,1.07905 0.91595,1.61857c0,0 0.0883,0.17661 0.16564,0.45537c3.59678,3.78292 6.36591,8.28985 8.69643,12.94997c0.889,1.77765 1.48462,3.68848 2.29629,5.50274c0.34968,0.78162 0.4566,2.38289 1.29675,2.21749c1.63743,-0.32236 3.21487,-0.9815 4.87693,-1.13202c0,0 2.49136,-0.20761 2.69898,2.28375c0.20761,2.49136 -2.28375,2.69898 -2.28375,2.69898c-1.89303,0.14032 -3.69716,1.38843 -5.5792,1.14105c-5.4974,-0.72261 -5.81332,-6.54546 -7.77233,-10.46434c-2.22657,-4.45414 -4.86458,-8.78062 -8.39958,-12.31257l-0.64146,-0.44969c0,0 -1.60283,-1.20212 -0.86257,-2.88892c-0.10713,-0.2311 -0.21426,-0.4622 -0.32139,-0.69331l0.19423,-3.19026c0,0 0.22634,-2.48973 2.71607,-2.26339z" fill="#fffaae" stroke="none"/><path d="M-17.90736,345.80562c-2.16826,-6.52673 4.39662,-9.15268 4.39662,-9.15268c2.2427,-0.8485 4.38411,-2.04016 6.7281,-2.54549c2.10502,-0.45381 6.12551,-2.16587 8.48895,-3.47998c1.82155,-1.01282 4.50705,-0.60381 6.42626,-1.41652c1.04838,-0.44394 5.61617,-0.96483 6.84581,-1.35019c1.42546,-0.44672 4.06668,-1.33801 5.54517,-1.55152c2.48113,-0.3583 4.09294,-1.34086 6.57743,-1.67511c1.77104,-0.23826 3.80209,-0.63561 5.57528,-0.85726c1.12146,-0.14018 5.1953,-1.25935 6.76987,-1.61135c1.55983,-0.34871 4.2399,-0.67917 5.789,-1.07281c1.59718,-0.40585 6.68552,-0.17154 7.64551,-0.48822c1.93523,-0.6384 4.05781,-0.3806 6.08671,-0.5709c3.62597,0 7.29753,0.63031 10.87776,0.05619c2.91,-0.46664 5.66219,-1.71251 8.57756,-2.14439c4.92688,-0.72986 10.92484,-0.05619 15.9271,-0.05619c6.43317,0 12.86633,0 19.2995,0c2.7518,0 6.01718,0.47502 8.73338,0.05619c1.45638,-0.22457 2.82549,-0.89828 4.28878,-1.07219c0.6351,-0.07548 10.01686,-0.05619 10.56612,-0.05619c1.29532,0 8.21063,-0.05802 9.22851,0.20063c1.97076,0.50078 4.2457,0.77818 6.26098,0.50744c3.54193,0.03171 6.58263,2.05173 10.08735,2.56471c1.32783,0.19435 6.76153,1.90118 8.31214,2.28883c1.07938,0.26985 7.02522,1.76372 8.57756,2.14439c2.92294,0.71676 11.02366,1.85277 12.24437,2.26557c0.87436,0.29568 5.54011,1.51392 7.05513,2.02321c0.4761,0.16005 0.99145,-0.18321 1.49344,-0.20063c3.55971,-0.12352 7.15865,0 10.72194,0c8.57756,0 17.15511,0 25.73267,0c3.51155,0 7.41005,0.51607 10.87776,0.05619c1.4608,-0.19373 8.20943,-1.53892 10.0967,-1.91638c1.75229,-0.35046 5.87638,-0.87061 7.62867,-1.22107c1.88727,-0.37745 7.33478,-1.82851 8.27271,-2.07908c3.33776,-0.89169 5.72394,-3.9136 8.50211,-5.51368c1.95874,-1.12813 8.33391,-4.36571 9.65042,-4.83799c1.56618,-0.56186 8.97113,-3.56607 10.55791,-4.21854c2.74212,-1.12754 7.53365,-0.57471 9.59584,-2.5981c1.65913,-1.10609 7.16846,-4.86138 8.42004,-5.22659c2.07038,-0.60413 10.11872,-1.64222 11.0974,-1.8953c2.44917,-0.63333 5.10535,0.15406 7.58015,-0.37027c1.56362,-0.33128 5.30857,-1.72754 6.18293,-2.02321c1.22071,-0.4128 5.10777,-1.82621 6.35648,-2.14439c5.48498,-1.3976 10.34154,-0.32181 15.98859,-0.32181c10.79745,0 22.33464,-1.09157 33.08221,0.05619c2.56152,0.27355 5.08545,1.05892 7.66118,1.016c3.82603,0 7.56011,0.3863 11.31512,0.90776c3.07085,0.42646 6.58889,0.96755 9.67518,1.26218c1.68888,0.16123 5.25678,1.16136 6.91305,1.52888c4.25181,0.94348 6.27254,1.8469 10.47627,2.98559c4.39788,1.19129 5.97784,1.75517 10.32684,3.37265c2.49604,0.92833 6.27273,2.25853 8.84558,3.38017c0.85188,0.37138 4.88157,1.5339 5.55161,1.62968c3.12593,0.44683 9.91126,2.95945 10.12416,3.087c1.82376,1.09254 3.04384,0.88188 4.69659,2.26571c1.64942,1.38104 4.4085,-0.20589 6.4325,0.52298c1.48192,0.53365 2.33648,2.13462 3.65959,2.98917c1.34264,0.86716 2.85919,1.42959 4.28878,2.14439c0.20973,0.4332 0.16386,1.17664 0.62919,1.29961c1.38215,0.36524 3.00297,-0.62484 4.28878,0c2.13461,1.03732 3.91315,2.80579 5.35858,4.68816c0.46576,0.60655 -0.69233,1.97599 0.00306,2.29422c1.83429,0.83943 4.59407,-0.94484 6.03358,0.46834c2.39533,2.35151 3.01617,6.04584 3.90041,9.28394c0.45709,1.67386 0.21638,3.47741 0.05619,5.20515c-0.02055,0.22165 -0.68979,0.15826 -0.5709,0.34646c0.53988,0.85463 1.84709,1.17822 2.14439,2.14439c1.55092,5.04012 -0.03538,9.10349 -0.52016,14.12374c-0.17568,1.81929 0.31898,3.72243 -0.18176,5.48026c-0.70502,2.47494 -2.01191,4.75857 -3.35944,6.95096c-0.25203,0.41004 -1.1473,0.17262 -1.29961,0.62919c-0.2671,0.80066 0.54461,1.72922 0.24909,2.51984c-0.89317,2.38956 -6.04498,9.65946 -7.73356,11.09012c-1.73769,1.47227 -3.95796,2.26522 -6.02196,3.22805c-7.89221,3.68163 -15.49519,4.88744 -24.10156,4.9355c-6.5757,0.73874 -13.19088,1.14839 -19.74165,2.08274c-4.07887,0.58177 -8.06337,1.80114 -12.1654,2.18721c-8.75979,0.82446 -17.59699,0.03031 -26.39549,0.03031c-11.08292,0 -22.16583,0 -33.24875,0c-46.81916,0 -93.63831,0 -140.45747,0c-65.40386,0 -130.80772,0 -196.21158,0c-4.40438,0 -8.89862,0.7532 -13.21245,-0.13533c-1.88508,-0.38827 -3.48449,-1.71649 -5.36097,-2.14439c-1.1735,-0.2676 -2.41291,0.22867 -3.6095,0.09883c-1.81175,-0.19659 -3.55079,-0.86174 -5.36097,-1.07219c-1.74672,-0.20308 -3.57477,0.29264 -5.27289,-0.16413c-2.24895,-0.60494 -4.2932,-1.82785 -6.33008,-2.95693c-0.63563,-0.35234 -0.92942,-1.24414 -1.62551,-1.45302c-1.02695,-0.30817 -2.20214,0.34713 -3.21658,0c-1.59273,-0.54502 -2.82315,-1.8517 -4.33834,-2.58521c-5.27195,-2.5522 -11.52194,-5.00901 -14.87888,-10.29974c-1.92214,-3.02939 -3.96813,-10.26075 -4.28051,-13.74855c-0.18597,-2.07635 0.6715,-4.20358 0.26562,-6.24835c-0.25089,-1.26396 -1.78942,-1.97782 -2.14439,-3.21658c-0.49579,-1.73022 -0.21454,-3.59331 -0.32181,-5.38996v-3.21658c0,0 0,-0.91186 0.31795,-2.09967z" fill="#d59213" stroke="none"/><path d="M-0.82353,368.04596c-0.04498,-0.02342 -0.08994,-0.04739 -0.13485,-0.07192c-1.16184,0.0747 -2.34043,-0.03035 -3.50685,-0.00478c0,0 -7.5,0 -7.5,-7.5c0,-7.5 7.5,-7.5 7.5,-7.5c3.24792,0.15608 5.14357,-1.48179 8.44838,-2.04754c0.74116,-0.12688 4.22991,-1.53918 5.46115,-1.91942c1.48407,-0.45832 8.20241,-1.14112 10.0119,-1.3575c0.74089,-0.0886 4.95585,-1.65748 6.52125,-1.98026c2.80028,-0.5774 11.31724,-1.75075 12.86634,-2.14439c0.86365,-0.21946 14.51223,-1.84842 16.08292,-2.14439c1.25133,-0.23579 9.81768,-0.20063 12.44509,-0.20063c10.36455,0 20.72909,0 31.09364,0c2.50179,0 13.88287,-1.55012 15.43197,-1.94376c4.19816,-1.06678 10.2991,-0.20063 14.58948,-0.20063c11.43674,0 22.87348,0 34.31022,0c15.72552,0 31.45104,0 47.17656,0c8.98195,0 17.60749,-0.09319 26.4717,1.10869c1.53914,0.20869 3.16687,-0.17301 4.65093,0.28531c1.23124,0.38024 6.01204,0.76746 6.81027,0.96725c1.86705,0.46731 9.18265,2.68127 11.41703,3.32153c1.23876,0.35497 5.81288,1.71397 7.05512,2.02321c1.551,0.3861 6.79396,1.88323 7.9556,2.26557c1.22402,0.40287 4.01596,1.01659 4.37883,0.98918c2.85106,-0.21539 5.59931,0.8334 8.45851,0.8334c2.49443,0 4.00568,0.29025 6.40485,-0.39253c1.2394,-0.35272 3.06077,-1.03736 4.28809,-1.43005c1.33171,-0.42609 6.28438,-1.15182 7.40518,-1.29716c0.901,-0.11685 4.0855,-0.63913 4.54647,-0.98161c1.15909,-0.86114 2.3407,-1.70683 3.61238,-2.39084c2.05102,-1.10319 4.10434,-2.27152 6.33008,-2.95693c0.66978,-0.20626 3.49919,-1.05932 4.21399,-1.77412c5.95654,-0.50544 9.50537,-3.3645 15.60729,-4.76284c1.13778,-0.26074 8.23261,-1.84843 10.72195,-2.14439c0.88131,-0.10478 3.80442,-1.35365 4.76441,-1.67033c1.93523,-0.6384 4.05198,-0.45894 6.08671,-0.5709c5.31504,-0.29246 10.76366,0 16.08292,0c14.502,0 29.00451,-0.03642 43.50638,0.02555c3.73593,0.62266 7.55454,0.61329 11.30471,1.14348c1.11906,0.15821 15.47872,-0.19728 21.34371,1.29716c1.24872,0.31818 6.13593,1.73402 7.50536,2.14439c1.61255,0.48322 5.20773,1.83895 6.71668,2.58521c3.4183,1.69054 5.37027,1.71408 8.74371,3.42745c1.90854,0.96935 3.02321,3.16815 4.96087,4.07791c3.33097,1.56395 6.48719,-0.0392 9.22235,4.49643c5.33318,8.84385 -1.01051,16.40855 -6.69037,21.97953c-2.50927,1.67285 -4.36814,4.5155 -7.24576,5.41781c-7.06016,2.21378 -14.97719,-0.89124 -22.04045,0.47406c-2.2193,0.42898 -4.19408,1.83485 -6.43317,2.14439c-8.85986,1.22483 -19.06228,0.09684 -28.00623,0.09684c-40.02859,0 -80.05718,0 -120.08578,0c-71.12223,0 -142.24446,0 -213.36669,0c-5.77034,0 -11.58212,-0.74725 -17.31093,-0.05619c-2.92597,0.35296 -5.65476,1.76603 -8.57756,2.14439c-0.48935,0.06335 -9.05354,0.05619 -11.63832,0.05619c-6.79056,0 -13.58113,0 -20.37169,0c-6.68113,0 -14.62035,1.15567 -20.85035,-2.0457c-4.73374,-2.4325 -7.20164,-7.03284 -8.74598,-11.81613z" fill="#b97e11" stroke="none"/><path d="M-35.1305,240.34888c0,-1.38071 1.11929,-2.5 2.5,-2.5c1.38071,0 2.5,1.11929 2.5,2.5c0,1.38071 -1.11929,2.5 -2.5,2.5c-1.38071,0 -2.5,-1.11929 -2.5,-2.5z" fill="#faf1be" stroke="none"/><path d="M-15.58571,69.22629c-0.02526,-0.18318 -0.02527,-0.30003 -0.02527,-0.30003l0.26393,-0.38347c-3.26043,-6.80792 -0.82024,-12.64674 -0.25629,-19.84191c0.25538,-3.25822 -0.06709,-6.53697 -0.00765,-9.80465c0.03313,-1.82121 -0.46343,-3.76106 0.1903,-5.46122c0.56263,-1.46323 2.31932,-2.14337 3.2256,-3.42252c1.44623,-2.04125 1.88365,-4.63636 2.74095,-6.98654c3.36932,-9.23652 4.80884,-18.81982 6.96959,-28.37539c1.1164,-4.93614 2.18722,-9.83831 3.61417,-14.69659c0.52865,-1.79986 0.71459,-3.74722 1.62274,-5.38864c0.63239,-1.143 2.26371,-1.52356 2.84798,-2.69189c0.44773,-0.89529 -0.47842,-2.12374 0,-3.00301c1.40764,-2.58702 4.48089,-3.83154 6.85393,-5.5759c1.29072,-0.94877 2.01434,-2.70589 3.50807,-3.2846c1.69849,-0.65803 3.63973,-0.18176 5.46122,-0.1903c0.71429,-0.00335 1.49945,0.47619 2.13729,0.15467c1.37577,-0.69347 2.05338,-2.51142 3.51351,-3.003c1.37233,-0.46202 8.77165,0.05147 10.57203,-0.13737c4.48564,-0.47048 9.03965,-2.34792 13.46088,-3.2461c6.49366,-1.3192 13.11729,-2.19249 19.65485,-3.2762c12.87353,-3.92344 25.5469,-8.1287 38.92506,-9.99031c20.03645,-2.78813 40.75479,-1.52271 60.92557,-1.52271c34.2632,0 68.5264,0.00005 102.7896,-0.00001c34.99997,-0.00006 69.99993,-0.00077 104.99989,-0.00236c16.51529,-0.00075 33.36462,0.83325 49.84633,-0.17966c18.13808,-1.11472 36.54858,-4.19615 54.42852,-7.31596c0.25708,-0.00047 9.88651,-0.02129 10.25386,-0.00926c1.35454,0.04438 2.85779,-0.33779 4.0549,0.29757c1.76493,0.93673 2.93408,2.71596 4.32528,4.15019c3.64099,3.7536 6.25389,8.04252 9.13804,12.36875c0.20285,0.30427 5.59125,8.37843 5.68554,8.55506c4.52912,8.48533 5.9332,18.38694 7.73658,27.67071c1.74596,8.98817 4.30027,17.90292 6.2713,26.85642c1.94172,9.73819 4.87917,19.8439 5.77769,29.73347c0.76784,8.45124 -0.31076,17.15138 -1.53142,25.48747c-0.47439,3.23969 -1.18318,6.45087 -1.46322,9.71311c-0.45218,5.26747 1.39472,7.13687 -4.53937,10.12686c-3.39447,1.71036 -5.0303,-0.451 -7.77406,-1.44652c-2.39501,-0.86898 -5.05996,-0.74867 -7.49527,-1.49734c-2.67845,-0.82342 -5.04711,-2.43626 -7.56609,-3.66381c-5.54819,-2.37682 -11.08833,-4.76849 -16.61757,-7.189c-2.97875,-1.304 -5.75048,-3.09916 -8.82613,-4.1545c-2.90144,-0.99556 -6.15771,-0.5819 -9.07374,-1.53387c-3.13641,-1.02392 -5.68939,-3.47958 -8.8452,-4.44205c-2.89306,-0.88234 -6.12761,0.04439 -9.04138,-0.76694c-1.69995,-0.47334 -3.12349,-1.65357 -4.75206,-2.33302c-2.88946,-1.20549 -5.96508,-1.90846 -8.91219,-2.96523c-2.41184,-0.86483 -4.60715,-2.39702 -7.12038,-2.89558c-1.45616,-0.28887 -2.98908,0.25223 -4.45359,0.00925c-2.96863,-0.49252 -5.54555,-2.50649 -8.51351,-3.003c-1.63679,-0.27382 -3.31906,0.00238 -4.97859,0.00357c-4.99223,-1.65613 -8.11335,-1.09646 -13.25235,-1.81381c-4.87785,-0.6809 -9.61384,-2.29559 -14.58082,-2.66531c-7.6827,-0.57186 -15.63474,0.0069 -23.34296,0.0069c-15.35035,0 -30.7007,0 -46.05105,0c-30.69069,0 -61.38138,0 -92.07207,0c-29.35936,0 -58.71872,0 -88.07808,0c-13.51351,0 -27.02703,0 -40.54054,0c-4.93636,0 -9.87183,-0.01423 -14.80785,0.04821c-1.42948,0.01808 -2.93296,-0.39404 -4.28836,0.06054c-1.5885,0.53276 -2.5896,2.27454 -4.18642,2.78178c-1.54089,0.48948 -8.03107,-0.07534 -9.7425,0.21143c-4.61734,0.77368 -9.50664,3.14353 -14.03299,4.43724c-5.24029,1.47164 -8.9358,1.10431 -14.25709,1.45763c-5.01948,0.33328 -10.01458,2.38309 -15.01501,3.00301c-0.9108,0.11292 -1.85806,-0.24074 -2.75308,-0.03758c-6.04202,1.3714 -10.56613,5.93023 -15.83285,8.7628c-5.38801,2.8978 -14.66393,3.87146 -17.203,10.47883c-0.54611,1.42114 -0.71406,2.95999 -1.07109,4.43999c0,0 -0.60634,2.42536 -3.0317,1.81902c-2.42535,-0.60634 -1.81901,-3.03169 -1.81901,-3.03169c0.45143,-1.75381 0.66428,-3.58705 1.35426,-5.26144c1.04729,-2.54147 2.66512,-4.39111 4.60236,-5.84421z" fill="#faeda4" stroke="none"/><path d="M127.17744,195.16474c-0.41476,0.60431 -1.22783,0.50267 -1.22783,0.50267c-1.21412,-0.16629 -2.74878,-0.17944 -3.58621,-1.35563c-1.6167,-2.2707 -0.19319,-5.37403 0.47149,-7.58224c0.62736,-2.08425 0.83562,-4.15817 0.96405,-6.30507c0.04304,-0.71941 0.54666,-1.53866 0.17333,-2.15512c-0.42441,-0.70081 -1.34373,-0.41291 -1.93428,-0.58625c-2.02511,-0.59441 -4.17183,-1.553 -6.06016,-2.4982c-2.09166,-1.42631 -3.15839,-2.55684 -3.50929,-5.1561c-0.09368,-0.69388 -0.36691,-1.43775 -0.12972,-2.09653c1.11246,-3.08985 4.69813,-2.03513 6.76517,-0.93988c1.06159,0.5625 1.1347,0.66511 2.25517,0.87203c0.3295,0.06085 0.95288,0.29618 1.00461,-0.03487c0.07745,-0.49564 -0.50536,-0.87228 -0.82627,-1.25787c-0.93326,-1.12138 -1.50693,-1.49872 -2.04902,-2.86123c-1.16822,-2.93626 0.17643,-5.73459 1.62404,-8.27715c0.60467,-0.90159 1.50643,-2.51737 2.57349,-3.02706c2.33802,-1.11677 6.7625,-0.28675 8.22718,1.94746c1.30783,1.99495 1.94686,5.20182 2.25785,7.52916c0.22794,1.70587 0.00871,3.52249 -0.3598,5.18077c-0.10263,0.46186 -0.19391,0.92663 -0.31547,1.38387c-0.05829,0.21928 -0.34986,0.45464 -0.22335,0.64299c0.12218,0.18189 0.44068,-0.02972 0.65732,0.00308c2.13291,0.32294 2.46711,0.38309 4.16878,-1.02723c1.40623,-0.67992 4.39725,-1.80297 5.86074,-0.33948c0.53238,0.53238 0.43906,1.44636 0.54691,2.1915c0.20048,1.38515 0.2494,4.01187 -0.56115,5.21308c-1.55057,2.29789 -4.91462,2.59526 -7.3372,2.59911c-0.81581,0.0013 -2.59659,-0.33323 -3.2033,0.50829c-0.39628,0.54965 -0.23963,1.32418 -0.23963,1.91877c0,2.64401 1.58495,4.84144 1.98551,7.41069c0.71573,0.4429 1.80732,0.13484 2.42378,0.70791c1.8225,1.69423 0.9549,4.38546 -0.64064,5.74356c-2.25402,1.91859 -5.64105,1.32129 -8.36395,1.31653z" fill="#e9d877" stroke="none"/><path d="M173.76169,202.04734c-2.37239,0.00415 -5.32342,0.52456 -7.28729,-1.14706c-1.39015,-1.18328 -2.14607,-3.52807 -0.55817,-5.00421c0.53711,-0.4993 1.48818,-0.2309 2.11177,-0.61678c0.349,-2.23852 1.72992,-4.15308 1.72992,-6.45674c0,-0.51805 0.13648,-1.19288 -0.20878,-1.67177c-0.52861,-0.73319 -2.08016,-0.44173 -2.79095,-0.44286c-2.11073,-0.00335 -5.04174,-0.26244 -6.39271,-2.26454c-0.70621,-1.04658 -0.66359,-3.33517 -0.48892,-4.54202c0.09397,-0.64922 0.01266,-1.44555 0.47651,-1.9094c1.2751,-1.2751 3.8811,-0.29662 5.10631,0.29578c1.48262,1.22877 1.7738,1.17637 3.63215,0.895c0.18875,-0.02858 0.46625,0.15579 0.57271,-0.00268c0.11022,-0.1641 -0.14381,-0.36917 -0.1946,-0.56022c-0.10591,-0.39838 -0.18544,-0.80332 -0.27486,-1.20573c-0.32107,-1.44482 -0.51208,-3.02759 -0.31348,-4.51387c0.27096,-2.02775 0.82773,-4.82181 1.9672,-6.55996c1.27614,-1.94661 5.13107,-2.66978 7.16812,-1.69677c0.9297,0.44408 1.71538,1.85187 2.24221,2.6374c1.26126,2.21526 2.43282,4.65338 1.41498,7.21166c-0.47231,1.18712 -0.97213,1.51588 -1.78526,2.49291c-0.2796,0.33595 -0.78739,0.66411 -0.71991,1.09595c0.04507,0.28844 0.58821,0.0834 0.87529,0.03038c0.97624,-0.18028 1.03993,-0.26969 1.96487,-0.75978c1.80096,-0.95426 4.92506,-1.87321 5.89431,0.81889c0.20666,0.57398 -0.0314,1.22209 -0.11302,1.82665c-0.30573,2.26467 -1.23514,3.24967 -3.05755,4.49237c-1.64525,0.82353 -3.51563,1.65872 -5.28006,2.17662c-0.51453,0.15103 -1.31551,-0.09981 -1.68529,0.51078c-0.32527,0.53711 0.11352,1.2509 0.15102,1.8777c0.1119,1.87054 0.29335,3.67749 0.83995,5.49344c0.57912,1.92395 1.81938,4.6278 0.4108,6.6062c-0.72963,1.02478 -2.06674,1.03624 -3.12457,1.18112c0,0 -0.70841,0.08856 -1.06978,-0.43796z" data-paper-data="{&quot;index&quot;:null}" fill="#e9d877" stroke="none"/><path d="M274.31817,241.28967c-1.89282,0.00331 -4.24732,0.41852 -5.8142,-0.91519c-1.10914,-0.94408 -1.71225,-2.81489 -0.44534,-3.99264c0.42853,-0.39837 1.18735,-0.18422 1.68489,-0.4921c0.27845,-1.78602 1.38023,-3.31356 1.38023,-5.15154c0,-0.41333 0.1089,-0.95174 -0.16658,-1.33383c-0.42175,-0.58498 -1.65966,-0.35243 -2.22678,-0.35334c-1.68406,-0.00268 -4.02258,-0.20939 -5.10046,-1.80677c-0.56345,-0.83502 -0.52945,-2.66099 -0.39008,-3.62387c0.07497,-0.51798 0.0101,-1.15334 0.38018,-1.52342c1.01735,-1.01735 3.09655,-0.23666 4.0741,0.23599c1.18292,0.98038 1.41524,0.93857 2.89793,0.71408c0.1506,-0.0228 0.372,0.1243 0.45694,-0.00214c0.08794,-0.13093 -0.11474,-0.29454 -0.15526,-0.44697c-0.0845,-0.31785 -0.14796,-0.64094 -0.2193,-0.962c-0.25617,-1.15275 -0.40857,-2.41558 -0.25012,-3.60141c0.21618,-1.61785 0.66041,-3.84711 1.56955,-5.2339c1.01817,-1.55311 4.09385,-2.1301 5.71913,-1.35378c0.74177,0.35431 1.36863,1.47752 1.78896,2.10426c1.00631,1.76746 1.94104,3.71272 1.12895,5.75386c-0.37683,0.94715 -0.77562,1.20946 -1.42438,1.98899c-0.22308,0.26804 -0.62822,0.52986 -0.57438,0.87441c0.03596,0.23013 0.4693,0.06654 0.69836,0.02424c0.7789,-0.14384 0.82972,-0.21517 1.56768,-0.60619c1.4369,-0.76136 3.92948,-1.49455 4.70281,0.65336c0.16488,0.45795 -0.02505,0.97505 -0.09017,1.4574c-0.24393,1.80688 -0.98547,2.59276 -2.43948,3.58426c-1.31267,0.65706 -2.80497,1.32342 -4.21272,1.73662c-0.41052,0.1205 -1.04959,-0.07964 -1.34462,0.40753c-0.25952,0.42853 0.09057,0.99803 0.12049,1.49813c0.08928,1.49242 0.23405,2.9341 0.67016,4.38297c0.46205,1.53504 1.45161,3.69232 0.32776,5.2708c-0.58214,0.81763 -1.64896,0.82677 -2.49296,0.94237c0,0 -0.56521,0.07066 -0.85353,-0.34943z" data-paper-data="{&quot;index&quot;:null}" fill="#e9d877" stroke="none"/></g></g></svg>