<svg version="1.1" xmlns="http://www.w3.org/2000/svg" xmlns:xlink="http://www.w3.org/1999/xlink" width="218.5519" height="97.70598" viewBox="0,0,218.5519,97.70598"><g transform="translate(-60.93094,-200.38308)"><g data-paper-data="{&quot;isPaintingLayer&quot;:true}" fill-rule="nonzero" stroke="none" stroke-width="0.5" stroke-linecap="butt" stroke-linejoin="miter" stroke-miterlimit="10" stroke-dasharray="" stroke-dashoffset="0" style="mix-blend-mode: normal"><path d="M278.9058,272.00546c0,2.5 -2.5,2.5 -2.5,2.5h-2.04638c-0.51573,0 -5.66779,0.01281 -5.92979,-0.04511c-2.33214,-0.51559 -4.33347,-2.02244 -6.57269,-2.85347c-2.48574,-0.92251 -5.28124,-0.61853 -7.85361,-1.26107c-3.29764,-0.8237 -4.34597,-2.48836 -6.65041,-4.75813c-0.53502,-0.61011 -0.88169,-1.4929 -1.51299,-1.96361c-0.12871,0.17133 -0.25482,0.32672 -0.37694,0.46282c-2.05563,2.29113 -6.61707,3.2214 -9.40789,4.34866c-2.45609,0.99206 -5.34368,2.74217 -7.94717,3.17395c-0.89596,0.14859 -1.84743,-0.15198 -2.72314,0.08875c-2.60869,0.7171 -4.29718,2.31654 -7.10623,1.82431l-0.97767,-0.93424c0,0 -0.01038,-0.02568 -0.02421,-0.07094l-0.00004,-0.00001c-0.78876,-0.48423 -0.46788,-1.43733 -0.46788,-1.43733c1.41319,-4.11534 3.52654,-7.50508 6.17041,-10.34311c-1.7315,-0.00367 -3.27385,0.49919 -5.12864,0.05908c-0.98939,-0.23476 -1.73587,-1.14367 -2.72851,-1.36426c-1.10981,-0.24662 -2.30083,0.24662 -3.41064,0c-0.99264,-0.22059 -1.74541,-1.10443 -2.72851,-1.36426c-2.02163,-0.5343 -4.24046,0.42562 -6.27277,-0.06648c-1.61136,-0.39018 -2.97367,-1.51481 -4.56957,-1.96408c-3.23994,-0.9121 -7.84729,-0.19512 -11.56452,0.00376c-0.02899,0.0506 -0.05795,0.10123 -0.0869,0.1519c0,0 -1.24035,2.17061 -3.41096,0.93026c-2.17061,-1.24035 -0.93026,-3.41096 -0.93026,-3.41096c0.13358,-0.2337 0.2676,-0.46671 0.40207,-0.69906c0.11728,-0.64397 0.43038,-1.0725 0.79516,-1.35766c2.84547,-4.80121 5.88975,-9.33732 9.18726,-13.86752c2.12689,-2.92196 3.1149,-6.78272 5.88111,-9.10857c0.96081,-0.80786 2.49243,-0.3597 3.69943,-0.70458c1.70241,-0.48644 5.60429,-2.40835 6.76891,-3.33976c3.19784,-2.55749 3.65369,-7.14405 8.58817,-7.63824c1.49794,-0.15002 3.0907,0.31424 4.38417,1.08449c0.20255,0.12062 2.39976,4.03832 3.91602,3.68049c3.12038,-0.7364 6.2629,-4.55079 8.52513,-6.67336c1.14358,-1.17231 1.8121,-3.26767 3.43073,-3.51694c1.78417,-0.27476 3.25841,1.56147 4.93587,2.22848c2.28714,0.90943 4.52691,2.01967 6.93154,2.5449c2.93539,0.64117 4.71433,-1.51246 7.11088,2.50482c2.6362,4.41899 -0.85786,5.67218 -2.89869,8.32773c-0.88928,1.15713 -1.51512,2.49579 -2.32636,3.70891c-0.1887,0.28217 -0.83529,0.47339 -0.66793,0.76872c0.67733,1.19525 2.66658,0.68515 3.95159,1.17108c2.20091,0.83228 4.00664,2.50576 6.17328,3.42355c1.35123,0.57238 3.1238,0.2454 4.23436,1.20461c0.94326,0.81471 0.67182,2.41874 1.2432,3.52645c0.79723,1.54555 2.26699,2.736 2.83496,4.37969c0.75895,2.1964 -0.45705,4.7014 0.04039,6.97136c0.35337,1.61253 1.51665,2.93363 2.21477,4.42954c0.97472,0.77177 2.34751,1.21387 2.92415,2.31532c2.20033,4.20287 -0.04631,6.35717 3.06339,9.11496l1.15043,2.01399c0,0 0.37197,0.74393 0.2577,1.58814c0.00411,0.0686 0.00623,0.13925 0.00623,0.21202z" fill="#707070"/><path d="M177.23301,263.69117c-1.49011,-3.6997 -3.25118,-7.20483 -4.79362,-10.81532c1.9733,0.82377 4.13014,1.5497 6.33655,2.01516c1.05663,2.28351 2.1362,4.5647 3.09318,6.92755c4.30193,10.62167 8.58689,21.25025 12.87649,31.87693c-1.45024,0.8721 -2.87693,1.78557 -4.30409,2.69814c-4.40527,-10.89982 -8.81634,-21.79736 -13.20849,-32.70246z" fill="#acacac"/><path d="" fill="#acacac"/><path d="" fill="#acacac"/><path d="M181.45385,275.47198c-2.0425,-5.0567 -6.11806,-12.19133 -4.3709,-17.81103c-0.52581,-0.25968 -1.04109,-0.53913 -1.54443,-0.83893c0,0 -2.41476,-1.45871 -3.38762,-4.06785c6.08604,2.59304 14.01447,4.31513 19.74296,0.25972c0.80342,-0.56877 1.52051,-1.09825 2.15735,-1.60805c5.1464,2.09065 11.84532,3.19024 16.62704,1.99481c4.01109,-1.00277 7.63219,-2.86456 10.78731,-5.40998c1.7692,-0.76999 3.4899,-1.5959 5.17003,-1.65978c6.77262,-0.25749 15.46181,-0.91446 22.16114,-0.50017c5.43496,0.33611 6.55544,7.01577 9.54801,10.16873c4.46781,4.70728 9.47211,7.79328 14.38315,11.90996c2.4209,2.02932 3.86807,4.88154 6.10701,7.03474c0.20908,0.20107 0.4252,0.40114 0.64794,0.59978c-1.12263,1.51845 -1.73161,3.92453 -3.5471,4.22484c-2.63362,0.43562 -5.58325,-0.18188 -7.93487,1.08131c-2.4694,1.32646 -3.36748,3.63526 -4.86942,5.69623c-0.43336,0.59466 -1.45593,-0.23427 -2.19087,-0.27007c-1.08759,-0.05298 -2.18505,0.16087 -3.26646,0.03359c-3.10699,-0.36567 -5.68714,-1.72244 -8.90895,-1.17497c-1.68761,0.28677 -3.20676,1.19911 -4.81014,1.79865c-1.25757,0.50796 -7.64393,3.07673 -8.0147,3.28941c-1.39803,0.80193 -2.4239,2.15588 -3.81322,2.9728c-2.47249,1.45384 -5.34301,2.08871 -7.99647,3.1778c-0.42765,0.17552 -4.00167,1.73376 -4.23862,1.71538c-0.37778,-0.02929 -0.10455,-0.75483 -0.22382,-1.1145c-0.33409,-1.00761 -0.71178,-2.00188 -1.13261,-2.97645c-1.78949,-4.14416 -2.51972,-7.241 -8.32377,-7.9076c-6.4546,-0.74131 -5.10319,2.25036 -8.77462,4.5048c-1.17972,0.7244 -2.6575,0.83422 -3.87655,1.4903c-2.59085,1.39438 -5.06409,2.9954 -7.54597,4.58102c-2.85361,-7.06483 -5.70724,-14.12966 -8.56085,-21.19449z" fill="#acacac"/><path d="M266.17612,281.32259c-0.4293,-3.44395 0.90215,-7.52333 -0.18978,-10.82817c-1.28041,-3.87526 -2.87481,-7.69443 -4.50386,-11.49173c3.61113,3.16746 7.45603,5.73027 11.24541,8.90672c2.4209,2.02932 3.86807,4.88154 6.10701,7.03474c0.20908,0.20107 0.4252,0.40114 0.64793,0.59978c-1.12264,1.51845 -1.73162,3.92453 -3.54711,4.22484c-2.63362,0.43562 -5.58325,-0.18187 -7.93487,1.08131c-0.66167,0.35541 -1.21051,0.78136 -1.6884,1.25417c-0.05705,-0.25806 -0.10352,-0.51839 -0.13635,-0.78167z" fill="#a1a1a1"/><path d="M258.36758,260.24847c1.158,-0.66836 2.78045,-0.9813 4.79496,0.19242c0.02448,0.01426 0.04874,0.02858 0.07278,0.04296c0.44128,0.36047 0.88526,0.71505 1.33143,1.06584c0.51684,0.56712 0.8198,1.1716 0.97931,1.76732c-3.35778,3.49302 -5.89733,7.45518 -6.24269,10.79622c-0.2887,0.7913 -0.47126,1.60338 -0.55254,2.41781c-0.19461,0.49116 -0.36428,0.98229 -0.50664,1.47262c-0.38288,1.31874 -0.68995,2.58974 -0.92622,3.82935c-2.0359,2.24959 -4.83488,2.55167 -9.22956,-2.33504c-3.1588,-3.51245 1.19076,-11.98273 3.60952,-14.98873c1.29794,-1.61306 2.3021,-3.95027 4.30408,-4.47822c0.79299,-0.20913 1.58042,-0.06708 2.36559,0.21747z" fill="#828282"/><path d="M190.01915,292.16285c1.4319,-6.80726 0.48005,-14.57995 0.48005,-21.52807c0,-0.14447 0,-0.28895 0,-0.43342c2.939,-1.78969 5.74834,-4.10197 8.9924,-5.20414c0.33164,-0.11268 0.66777,-0.15395 1.0076,-0.13864c0,1.92541 0,3.8508 0,5.77621c0,7.70345 0.78427,15.91827 -0.67424,23.48924l0.09709,-0.40344c0,0 0,1.22165 -0.60386,2.45723c-3.10633,-0.69566 -6.217,-1.23874 -9.20494,-1.13706c-0.19074,-0.75083 -0.1912,-1.31745 -0.1912,-1.32018z" fill="#bababa"/><path d="M184.15534,283.11739c-0.89015,-2.24771 -1.0911,-4.71157 -1.5475,-7.08564c-0.54594,-2.83999 -2.57567,-6.20431 -3.65066,-8.86571c-1.87554,-4.64335 -3.75108,-9.28671 -5.62662,-13.93007c3.61623,1.41284 7.7544,2.43659 11.6513,2.14487c1.0825,2.68 2.165,5.36 3.2475,8.04c1.31309,3.25088 3.38048,6.96356 4.13085,10.39932c0.25961,1.1887 -0.00305,2.44829 0.22665,3.64314c0.4911,2.55465 2.47791,4.9656 3.58324,7.20329c1.0793,2.18499 2.06828,4.47818 2.89452,6.8339c-0.5186,0.15794 -1.03077,0.3303 -1.50396,0.58496c-2.5369,1.36535 -4.96104,2.92883 -7.39094,4.48196c-1.7435,-4.59041 -4.20638,-8.88466 -6.01437,-13.45002z" fill="#bababa"/><path d="" fill="#c4c4c4"/><path d="" fill="#b2b2b2"/><path d="" fill="#515151"/><path d="" fill="#515151"/><path d="" fill="#515151"/><path d="" fill="#515151"/><path d="" fill="#515151"/><path d="" fill="#515151"/><path d="" fill="#515151"/><path d="" fill="#515151"/><path d="" fill="#515151"/><path d="" fill="#515151"/><path d="M250.40039,254.20466c2.49205,0.19921 2.29285,2.69126 2.29285,2.69126l-0.10882,0.85535c-3.34235,12.03761 -15.23415,15.81323 -26.30424,16.78409c-3.01665,0.26457 -5.36607,2.31834 -8.56392,1.74916c-1.71181,-0.30469 -4.63043,-2.56172 -6.05075,-3.56312c0,0 -2.04109,-1.44359 -0.59751,-3.48468c1.44358,-2.04109 3.48467,-0.59752 3.48467,-0.59752c1.33463,0.94717 2.47835,2.39692 4.08062,2.73013c1.91528,0.39831 5.21165,-1.60966 7.17388,-1.81154c8.67876,-0.89292 19.4558,-3.10902 21.94481,-13.09011l-0.04282,0.02982c0,0 0.1992,-2.49205 2.69125,-2.29284z" fill="#a1a1a1"/><path d="M208.60644,258.66497c-0.00287,-0.08277 -0.0074,-0.16577 -0.01331,-0.24898c-0.1017,-0.34988 -0.20169,-0.69998 -0.3006,-1.04993c0,0 -0.52107,-1.85941 0.23999,-3.59097c0.74735,-0.08093 1.46591,-0.20449 2.14573,-0.37445c4.01109,-1.00277 7.63219,-2.86456 10.78731,-5.40998c1.7692,-0.76999 3.4899,-1.5959 5.17003,-1.65978c5.13786,-0.19534 11.37872,-0.62058 17.01706,-0.63361c0.14262,0.18218 0.28857,0.36047 0.44049,0.53181c1.61133,2.77882 4.96105,8.45645 4.65882,11.54707c-0.21461,2.1946 -1.52413,4.24692 -2.97208,5.90997c-0.51811,0.59508 -4.86606,2.28758 -6.10359,2.78743c-5.06304,2.04505 -9.91967,4.03568 -15.17154,5.30539c-1.2154,0.29384 -2.3054,1.32096 -3.55085,1.20964c-2.45504,-0.21944 -5.08193,-0.70513 -7.0722,-2.15917c-1.47405,-1.07692 -1.73669,-3.21302 -2.53101,-4.85669c-0.8069,-1.66969 -1.45709,-3.40784 -2.02848,-5.17087c-0.60432,-1.08492 -0.71578,-2.13693 -0.71578,-2.13693z" fill="#828282"/><path d="M200.74783,270.17946c2.49965,-0.04176 2.54142,2.45788 2.54142,2.45788l0.03836,2.77999c-0.16335,1.05628 -0.1331,2.16137 -0.4901,3.16884c-2.43036,6.85862 -9.59861,7.48333 -15.79217,8.01343c0,0 -2.49088,0.2132 -2.70407,-2.2777c-0.2132,-2.49089 2.27769,-2.70409 2.27769,-2.70409c5.07404,-0.43428 10.92644,-0.40584 11.71881,-6.51897l-0.04781,-2.37796c0,0 -0.04175,-2.49965 2.45789,-2.54142z" fill="#a1a1a1"/><path d="M179.02267,268.87591c-1.40132,-4.3034 2.92994,-6.05287 2.92994,-6.05287c2.69952,-1.09038 8.45099,-4.11399 11.1137,-2.9096c2.15377,0.97418 3.72477,5.29257 4.68886,7.69816c0.81632,2.03688 2.75352,3.87989 2.55853,6.06556c-0.57384,6.43229 -4.2907,7.97327 -9.67431,8.73711c-2.02269,0.28698 -4.33549,1.691 -6.09412,0.65138c-3.73695,-2.20911 -3.0547,-7.27473 -4.48328,-10.61903l-0.66895,-1.65615c0,0 -0.33222,-0.82249 -0.37036,-1.91453z" fill="#828282"/><path d="M186.63583,284.26394l-1.50618,-0.69827c-0.21749,0.11588 -0.50388,0.16837 -0.87741,0.07841c-1.21524,-0.29272 -0.92253,-1.50796 -0.92253,-1.50796c1.16996,-4.64499 6.71357,-7.75816 10.9325,-9.4746c1.12391,-0.45727 4.32801,-2.23025 5.44622,-1.37738c0.70729,0.53947 0.53496,1.72617 0.52904,2.61571c-0.01692,2.54403 -2.35245,4.83242 -3.81039,6.62644c-2.72863,1.56721 -5.91674,2.92284 -9.02481,3.59935c-0.21159,0.20058 -0.43635,0.29136 -0.43635,0.29136l-0.30715,-0.14238c-0.00673,0.00123 -0.01346,0.00244 -0.02018,0.00367z" fill="#707070"/><path d="M197.84606,266.14154c2.04035,1.44466 0.5957,3.485 0.5957,3.485l-1.61319,2.26438c-0.75644,0.75513 -1.38559,1.66415 -2.26928,2.2654c-6.01603,4.09323 -12.16575,0.35757 -17.47356,-2.87793c0,0 -2.13467,-1.30123 -0.83344,-3.4359c1.30123,-2.13466 3.43589,-0.83342 3.43589,-0.83342c4.34839,2.65067 9.05076,6.13478 13.3051,1.67395l1.3678,-1.94579c0,0 1.44464,-2.04035 3.48499,-0.59569z" fill="#a1a1a1"/><path d="M249.53795,280.95137c-0.20734,-0.10322 -0.39477,-0.22789 -0.55987,-0.3695c-0.17929,-0.03275 -0.35694,-0.08561 -0.52976,-0.15942c-0.09473,-0.04046 -0.18801,-0.08722 -0.27931,-0.14042c-1.19299,-0.69508 -1.59663,-2.22567 -0.90155,-3.41866c0.60552,-1.03927 1.84508,-1.4795 2.94317,-1.11618c0.74063,-0.04827 1.54799,-0.03335 2.60216,-0.23269c0.94752,-0.17918 3.06476,-0.73468 4.0867,-0.27419c0.70902,0.31949 1.33673,0.65533 1.88444,1.00199c-0.01245,0.09618 -0.02346,0.19243 -0.03307,0.28871c-0.19461,0.49117 -0.36429,0.9823 -0.50665,1.47263c-0.59287,2.04196 -1.00394,3.96941 -1.25187,5.84312c-0.29692,0.0695 -0.60766,0.13221 -0.93208,0.18764c-1.96517,0.33569 -4.08371,-1.15973 -5.49058,-2.40971c-0.15346,-0.05265 -0.30404,-0.12111 -0.44959,-0.20591l-0.00001,-0.00001c-0.22206,-0.12938 -0.41676,-0.2877 -0.58211,-0.4674z" fill="#707070"/><path d="M247.42042,273.98173c1.02963,-0.35694 1.96479,-1.48399 3.02617,-1.23699c0.54246,0.12624 0.96478,0.42699 1.33774,0.79853c-1.91805,-0.1318 -3.52078,0.5369 -5.17856,1.18402z" fill="#717171"/><path d="M201.8726,261.9711c0.01657,-0.1433 0.18039,-1.22385 1.34402,-1.13082c1.24601,0.0996 1.14642,1.34562 1.14642,1.34562l-0.84004,1.83715c-1.97903,0.68484 -2.57625,-0.24139 -4.27432,0.59755c0,0 -0.05492,0.0222 -0.14569,0.04495c-0.00977,0.77763 -0.03807,1.55202 0.5607,1.86992c0.56277,0.29879 2.67206,0.04705 3.29927,-0.05023l1.59345,1.41685c0,0 0.46815,1.15902 -0.69088,1.62717c-0.83118,0.33572 -1.30704,-0.16537 -1.50976,-0.47572c-1.3859,0.0974 -3.36753,0.08796 -4.1717,-0.50295c-2.6484,-1.9461 -0.56721,-7.03876 -3.03896,-8.51743c0,0 -0.03662,-0.025 -0.09137,-0.07249c-0.60414,-0.00209 -1.1829,-0.09996 -1.62986,-0.40025c-0.79103,-0.53145 -0.41025,-1.98551 -1.1066,-2.6361c-2.37037,-2.21463 -5.12079,3.44579 -7.40403,3.06408c-1.9269,-0.32213 -1.35004,-2.37766 -2.58678,-3.22715c-0.28064,-0.19278 -0.63653,0.29592 -0.977,0.29793c-1.24827,0.00735 -2.41887,-0.71156 -3.66605,-0.76443c-1.2955,-0.05492 -2.56808,0.38263 -3.86216,0.46452c0,0 -1.24759,0.07762 -1.3252,-1.16997c-0.07762,-1.24759 1.16997,-1.3252 1.16997,-1.3252c0.61277,-0.03742 1.22126,-0.14886 1.82947,-0.25431c2.76076,0.89318 5.7196,1.48431 8.58166,1.41548c0.40399,0.8406 0.63391,1.87223 1.4556,2.14114c0.81268,0.26597 1.04774,-1.35837 1.65739,-1.95798c0.33829,-0.33271 0.64549,-0.59137 0.9521,-0.79068c0.51873,-0.15258 1.02859,-0.33595 1.5275,-0.55268c0.30587,-0.0414 0.64226,-0.05871 1.0254,-0.05976c0.40598,-0.0011 3.04629,0.64567 3.22408,0.79971c0.68631,0.59465 0.24806,2.00859 0.98424,2.54028c0.56472,0.40785 1.37804,-0.20485 2.06734,-0.30524l1.0504,0.0541c0,0 1.24602,0.0996 1.14642,1.34563c-0.06948,0.86927 -0.69694,1.08364 -1.07002,1.13379c0.34082,0.74871 0.43315,1.53755 0.59516,2.40964c1.34419,-0.36528 2.20323,0.00446 3.17981,-0.21215zM201.97088,261.94738c0.19807,-0.05174 0.40172,-0.12894 0.61582,-0.24238z" fill="#717171"/><path d="" fill="#717171"/><path d="M190.42067,256.60521c0.30796,-1.21147 1.51943,-0.90351 1.51943,-0.90351l1.01449,0.25789c0.14097,0.03655 0.31146,0.07279 0.49455,0.11474c-0.33318,-1.09823 -0.66362,-2.46633 -0.01113,-3.38535c0.17565,-0.24739 0.78628,-0.23743 1.48062,-0.13182c-0.43856,1.50827 -1.091,3.0089 -1.09448,4.57783c-0.00116,0.52489 -0.01654,1.06619 -0.02654,1.6127c-0.56606,-0.12184 -1.09198,-0.27345 -1.45897,-0.36517l-1.01449,-0.25789c0,0 -1.21147,-0.30796 -0.90351,-1.51943z" fill="#717171"/><path d="M218.51384,267.14153c0.32112,0.41163 0.33621,0.78545 0.24487,1.08125c-0.56556,-0.55859 -1.1617,-1.03432 -1.84326,-1.39723c0.30817,-0.17006 1.01555,-0.43114 1.59839,0.31598z" fill="#717171"/><g><path d="M221.01327,272.64467c-1.77254,-1.32564 -3.48604,-4.1024 -3.38894,-6.27248c0.02063,-0.46102 0.77551,-0.6134 0.88994,-1.06046c0.28358,-1.10797 -1.67493,-2.14213 -2.29378,-2.46096l-0.07872,-0.12858l-0.03482,0.03945l-0.9738,-0.85973c-0.14984,-0.12681 -0.27195,-0.29089 -0.35058,-0.48556c-0.25854,-0.64011 0.05075,-1.36862 0.69087,-1.62718c0.17125,-0.06917 0.34883,-0.0977 0.52204,-0.09012l1.41244,0.02969c0.01373,-0.00117 0.02784,-0.00081 0.04225,0.00089l0.02067,0.00043l-0.00006,0.00281c0.21356,0.04201 0.48406,0.33955 0.57173,0.16179c0.91024,-1.84571 0.05003,-7.12222 2.56385,-8.1376c0.22067,-0.08913 3.65368,1.69993 3.96226,1.26979c0.46787,-0.65217 -0.1364,-2.40009 -0.46456,-3.06662l-0.85451,-0.48042c-0.24296,-0.13387 -0.44312,-0.34906 -0.55511,-0.62633c-0.25854,-0.64011 0.05075,-1.36861 0.69087,-1.62717c0.24355,-0.09837 0.49989,-0.11454 0.73827,-0.06156l1.37714,0.28508l-0.0099,0.04784c0.06483,0.00028 0.12972,0.00207 0.19468,0.00552c1.00216,0.0533 2.70326,2.01458 3.58372,1.92338c1.55679,-0.16124 2.88922,-2.5083 4.22147,-3.29818l0.09402,-0.00384l-0.01302,-0.03225l0.22979,-0.09282c0.80821,-0.03835 1.62354,-0.07576 2.44132,-0.11045c0.09837,0.1073 0.17952,0.23373 0.23725,0.37664c0.18688,0.46268 0.07707,0.97156 -0.23989,1.31574l-0.85846,0.97235l-0.19978,-0.17638c-0.14159,0.44982 -0.12954,0.85196 0.21665,1.14153c0.23029,0.19262 0.55356,0.33382 0.8177,0.50894c0.0992,-0.364 0.36138,-0.67907 0.73819,-0.83126c0.53861,-0.21755 1.13982,-0.03305 1.47097,0.41227l0.86657,1.11155l-0.01581,0.01232c0.03882,0.04271 0.07646,0.08662 0.11287,0.13184c0.46018,0.5716 2.23811,4.37825 2.33656,5.33721c0.02121,0.20658 0.04885,0.57135 0.02476,0.96241c0.81859,-0.94567 2.16705,-2.39221 3.58502,-1.25446c0.10005,0.0803 -0.02959,3.40254 0.06723,4.11702c0.22415,1.65418 1.08997,3.35858 -0.13405,4.93568c-1.3043,1.68054 -5.22296,2.71293 -7.13738,3.4862c-4.27704,1.72758 -10.24992,5.48892 -14.84254,4.966l-0.99984,0.08652c0,0 -1.02732,0.06391 -1.27549,-0.85647z" fill="#ee0000"/><path d="M223.59764,272.91931c-1.10191,-0.8316 -2.68687,-4.37647 -2.92187,-5.44064c-0.24104,-1.0915 0.47169,-2.4973 1.55943,-2.93667c0.72067,-0.29109 2.54259,0.13861 2.25731,-0.5844c-0.28499,-0.72224 -0.83423,-3.72128 1.21032,-2.85319c0.49387,0.20969 2.42275,3.7403 1.67453,4.83652c-0.38307,0.56125 -4.29751,0.90678 -4.20951,1.13196c0.76561,1.95905 1.66086,2.95869 2.89143,4.40309c0.09351,0.1047 0.17084,0.22705 0.22645,0.3647c0.0495,0.12254 0.07819,0.24835 0.08772,0.37345c0.09355,0.62105 -0.14977,0.96728 -0.53625,1.12347c-0.07425,0.05118 -0.15524,0.09506 -0.24235,0.13025c-0.42814,0.17293 -0.89582,0.09183 -1.23597,-0.17239c-0.29279,-0.09359 -0.56187,-0.22568 -0.76123,-0.37615z" fill="#dd0000"/><path d="M238.4384,257.23215c2.50738,2.59086 1.8962,5.06175 2.57997,7.8674c0.21291,0.87362 1.05235,2.39035 -0.69601,2.63477c-2.80454,0.39209 -1.24201,-3.76337 -1.76986,-5.01571c-0.33553,-0.79605 -1.27002,-2.35503 -1.76896,-3.32545c-0.09727,-0.18918 -0.54071,-0.00666 -0.98593,0.18607c-0.09517,0.07778 -0.20349,0.14275 -0.32346,0.19121c-0.13489,0.05448 -0.2737,0.08375 -0.41121,0.09001c-0.51506,0.02348 -1.01189,-0.27566 -1.21596,-0.78089c-0.25855,-0.64011 0.05075,-1.36861 0.69086,-1.62717c0.14579,-0.0589 0.29618,-0.08832 0.44456,-0.09109c1.02572,-0.79001 2.50773,-1.109 3.45599,-0.12916z" fill="#dd0000"/><path d="M229.19575,272.47393c-0.31367,0.60582 -1.07506,0.63182 -1.07506,0.63182c-0.76715,-0.03841 -1.6602,0.30761 -2.30147,-0.11522c-1.32894,-0.87629 -2.18832,-4.19219 -2.80003,-5.65046l0.02504,-0.17094l-0.05871,0.00811l-0.18842,-1.36445c-0.09466,-0.61312 0.27934,-1.21543 0.89133,-1.39083c0.42371,-0.12143 0.85904,-0.0089 1.16795,0.26107l1.07055,0.90845l-0.0343,0.04042c0.86374,0.28397 1.27623,0.02458 0.62293,-1.86467c-0.1212,-0.35047 -0.36334,-0.64586 -0.55443,-0.96449l-1.18007,-0.93766c-0.20282,-0.15709 -0.35928,-0.37782 -0.43539,-0.64333c-0.1902,-0.66363 0.19359,-1.35582 0.85723,-1.54601c0.2525,-0.07235 0.50911,-0.06164 0.74065,0.01597l1.33979,0.42751l-0.08996,0.28195c0.34624,0.06174 0.68466,0.14867 1.00935,0.26887l0.11718,-0.0015c-0.27421,-2.08015 1.46451,-4.29124 3.46164,-5.27702c0.93009,-0.45908 2.07403,-1.38235 2.9835,-0.88368c0.81595,0.4474 0.33965,1.83198 0.43431,2.75772c0.04622,0.45192 -0.55966,1.7117 -0.32296,1.32398c1.87278,-3.06753 4.29459,1.97727 4.88851,3.665c0.66933,1.90198 0.38321,3.03636 -0.37897,4.1496l0.11553,0.6792l-0.32596,0.05544l0.23377,0.66664c-0.64471,0.47436 -1.1458,1.28455 -1.93415,1.42307c-0.08637,0.01518 -0.17271,0.02493 -0.25903,0.02996l0.00455,0.03294l-1.00824,0.13923c-0.14775,0.08114 -0.28889,0.16021 -0.41682,0.23801c-1.4552,0.88497 -4.21033,2.47162 -6.59987,2.80536zM232.60468,257.9218c-0.01216,0.00978 -0.0243,0.01955 -0.03643,0.0293c0.01169,0.00566 0.02333,0.01152 0.03493,0.0176c0.00043,-0.01565 0.00092,-0.03128 0.00152,-0.04689z" fill="#ffde00"/><path d="M235.6452,255.85987c0.29954,1.21358 -0.91404,1.51311 -0.91404,1.51311l-0.20166,-0.02363c-1.63732,1.07455 -2.53451,1.91089 -3.4988,3.64007c0,0 -0.61258,1.08958 -1.70218,0.477c-1.0896,-0.61259 -0.47701,-1.70219 -0.47701,-1.70219c1.16097,-2.05044 2.35413,-3.22113 4.30527,-4.50431l0.97529,-0.31411c0,0 1.21359,-0.29953 1.51313,0.91404z" fill="#ffe850"/><path d="M225.03238,259.93417c1.02987,-0.70843 1.7383,0.32144 1.7383,0.32144l-0.38711,0.12483c0.96617,0.15312 1.93922,0.26731 2.91438,0.34465c0,0 1.24602,0.09962 1.14642,1.34563c-0.0996,1.24601 -1.34562,1.14642 -1.34562,1.14642c-1.03883,-0.08364 -2.07539,-0.2054 -3.10493,-0.36726l-1.28289,-1.17742c0,0 -0.70843,-1.02987 0.32143,-1.73829z" fill="#ffe850"/><path d="M238.3255,263.05317c-1.15902,0.46814 -1.62718,-0.69087 -1.62718,-0.69087l-0.12681,-0.32134c-0.29939,-0.64613 -0.7296,-1.24401 -1.24295,-1.73757c0,0 -0.88686,-0.8809 -0.00597,-1.76775c0.88089,-0.88685 1.76776,-0.00597 1.76776,-0.00597c0.69604,0.70783 1.28898,1.53439 1.73179,2.42287l0.19423,0.47346c0,0 0.46814,1.15903 -0.69088,1.62717z" fill="#ffe850"/><path d="M226.52687,267.89563c-0.23821,0.14167 -0.45504,0.19912 -0.64822,0.20271c0.08695,0.36868 0.06691,0.90458 -0.56473,1.29933c-1.06003,0.66244 -1.72248,-0.39759 -1.72248,-0.39759c-1.47343,-2.56178 -1.36789,-3.98955 1.74644,-4.39756l1.6244,1.57982c0,0 0.63895,1.07435 -0.43541,1.7133zM225.24058,267.13595l0.04476,-0.034c-0.61653,-0.45703 -0.39355,-0.31289 -0.04476,0.034z" fill="#ffe850"/><path d="M239.16192,266.82161c0.46814,1.15903 -0.69088,1.62717 -0.69088,1.62717l-0.6338,0.22983c-4.28163,0.70732 -6.49696,5.07072 -11.44432,4.03927c0,0 -1.21941,-0.27481 -0.9446,-1.49423c0.27481,-1.21941 1.49423,-0.9446 1.49423,-0.9446c3.92086,0.98112 6.83076,-3.31945 10.43119,-4.05708l0.161,-0.09122c0,0 1.15902,-0.46816 1.62718,0.69087z" fill="#f5d400"/></g><path d="M209.55418,268.95218c0.48648,1.15145 -0.66497,1.63793 -0.66497,1.63793l-1.82155,0.40786c-0.82802,-0.33236 -1.65603,-0.66472 -2.48405,-0.99706c-0.25,-0.47033 -1.07805,-3.33264 -1.50614,-3.39921c-2.44809,-0.38064 -4.53457,2.40433 -6.98663,0.99116c-3.43742,-1.98105 0.54508,-4.56143 -1.96239,-6.86032c-0.53062,-0.48648 -4.13639,0.6405 -4.98836,0.29941c-0.71104,-0.28467 -0.8969,-1.50524 -1.43419,-1.96301c-0.0602,-0.81149 -0.27962,-1.67942 -0.70612,-2.6433c0.18693,-0.02372 0.37488,-0.02919 0.5643,-0.00794c1.21087,0.13584 1.67425,1.83658 2.75074,2.40743c0.89392,0.47405 2.58666,-0.88029 3.2395,-0.87303c4.21231,0.04682 3.9839,4.72519 3.33067,7.26148c-0.0927,0.35992 0.7375,0.30481 1.09581,0.20603c1.36146,-0.37534 2.61418,-1.19268 4.01848,-1.34234c3.40507,-0.36289 3.36637,1.69612 4.25451,4.06341c0.55523,0.16896 1.11046,0.33794 1.6657,0.5069l-0.00323,-0.36037c0,0 1.15145,-0.48648 1.63792,0.66497z" fill="#717171"/><path d="M194.71093,275.83062c0.15434,-2.60667 2.4013,-2.24755 3.52817,-3.83705c0.31859,-0.4494 -0.95283,-0.59481 -1.29535,-1.02624c-1.55616,-1.96014 -1.6996,-2.98638 -0.66285,-5.16442c0,0 0.62928,-1.08005 1.70933,-0.45078c1.08005,0.62928 0.45078,1.70933 0.45078,1.70933c-1.61317,1.81229 2.81117,3.00402 2.25364,5.40148c-0.23436,1.00781 -3.52382,2.71367 -3.48712,3.49833c0.02468,0.52761 0.50704,1.06945 1.06409,1.62891c-1.12268,-0.37605 -2.33846,-0.46966 -3.48349,-0.77972c-0.06837,-0.29199 -0.09868,-0.61697 -0.0772,-0.97983z" fill="#717171"/><path d="" fill="#717171"/><path d="" fill="#717171"/><g><path d="" fill="#ee0000"/><path d="" fill="#dd0000"/><path d="" fill="#dd0000"/><path d="" fill="#ffde00"/><path d="" fill="#ffe850"/><path d="" fill="#ffe850"/><path d="" fill="#ffe850"/><path d="" fill="#ffe850"/><path d="" fill="#f5d400"/></g><g><path d="" fill="#ee0000"/><path d="" fill="#dd0000"/><path d="" fill="#dd0000"/><path d="" fill="#ffde00"/><path d="" fill="#ffe850"/><path d="" fill="#ffe850"/><path d="" fill="#ffe850"/><path d="" fill="#ffe850"/><path d="" fill="#f5d400"/></g><path d="M174.32527,269.08504c0,0.26758 -0.02054,0.51461 -0.05849,0.74266c0.36799,0.69406 0.69703,1.40223 0.89092,2.1594c0.26249,1.02506 -0.4941,2.16181 -0.17201,3.16972c0.28486,0.8914 4.33096,2.64252 4.4693,2.69374c4.25433,1.57505 7.04936,0.60458 8.57616,6.79427c0.70935,2.87573 1.06623,6.4234 -0.61094,8.86472c-1.38036,2.00926 -4.5889,1.70677 -6.97945,2.18398c-3.75722,0.75003 -8.24659,-0.02723 -11.87681,-0.9348c-2.36825,0.01472 -4.81462,-0.67129 -7.10455,-0.06711c-4.9876,1.31596 -7.71849,3.89857 -13.49283,2.80727c-3.26537,-0.61713 -5.99417,-3.06936 -9.25645,-3.70258c-2.88108,-0.55923 -5.97208,-0.06723 -8.74391,-1.03179c-1.23851,-0.43098 -2.245,-1.70078 -3.55621,-1.68228c-1.45106,0.02046 -2.53874,1.54462 -3.96931,1.78843c-4.37064,0.74485 -8.78652,-1.19488 -13.17558,-1.8221c-2.16282,-0.30907 -4.40495,0.38026 -6.55437,-0.01132c-7.75935,-1.41357 -9.05507,-5.22829 -13.44667,-10.73117c-1.5149,-1.89824 -3.38038,-3.53931 -4.64721,-5.61135c-0.2274,-0.37194 -0.47979,-0.74712 -0.74139,-1.12596c-2.80837,-1.09948 -2.74409,-5.88634 -4.36023,-7.57384c-1.90883,-1.99312 -5.43419,-1.77089 -7.40517,-3.70258c-2.38358,-2.33606 -3.3027,-5.8669 -5.55387,-8.33081c-1.78689,-1.95574 -5.37379,-2.993 -5.60751,-5.63181c-0.27367,-3.08985 2.68243,-5.61459 4.38154,-8.20979c2.17689,-3.32495 5.18155,-5.35567 8.68012,-5.97066c-3.16703,-2.18557 -6.76139,-5.00048 -7.47788,-7.86901c-2.29986,-9.20776 12.1885,-13.39177 17.68311,-15.89486c2.83675,-1.29229 5.17334,-3.47924 7.75951,-5.2196c2.48151,-1.66993 5.74017,-1.69032 8.64194,-2.41577c1.33867,-0.33466 2.3599,-1.53311 3.70258,-1.85128c4.58186,-1.08575 11.30333,-0.55484 15.02442,2.53276c4.01971,3.33538 6.98078,8.9998 9.54982,13.47785c7.10915,-0.58145 12.78447,3.602 16.28414,9.73056c0.5241,0.9178 -0.2154,2.36751 0.51855,3.12799c0.82488,0.85472 2.3362,0.50234 3.43064,0.96405c3.98597,1.6816 7.11414,3.37814 8.38547,8.15436c2.01598,7.57377 -2.64923,12.03979 -2.62594,19.09094c0.0051,1.54273 0.08343,3.08774 0,4.62823c-0.0543,1.00269 -1.01361,2.17993 -0.41228,2.98413c1.03759,1.38763 3.11715,1.54312 4.53847,2.53408c1.34763,0.93959 2.18568,2.65314 3.72494,3.22728c1.45237,0.54175 3.01615,0.39721 4.59565,0.17554c-0.18775,-0.29079 -0.3735,-0.58233 -0.53463,-0.88329l4.04211,-5.04254c0,0 3.48431,0 3.48431,3.48431z" fill="#d0d0d0"/><path d="M185.88824,290.39713c0,3.48431 -3.48431,3.48431 -3.48431,3.48431h-3.48547c-7.63942,-0.02836 -15.90668,1.99147 -23.56226,0.65211c-1.44762,-0.25327 -2.73873,-1.12021 -4.18257,-1.39418c-4.48349,-0.8508 -9.88614,1.30621 -14.27808,-0.07174c-1.78748,-0.56081 -3.11569,-2.15756 -4.87967,-2.78838c-3.33759,-1.19356 -10.17457,0.11672 -13.74468,0.11672c-3.72851,0 -7.80207,0.38973 -11.49685,-0.01696c-2.79362,-0.3075 -5.3485,-1.85226 -7.76232,-3.2918c-4.195,-2.50178 -8.57047,-3.76313 -11.53346,-8.0168c-0.71522,-1.02677 -0.70851,-2.43874 -1.39418,-3.48547c-0.83661,-1.27714 -2.48989,-1.97292 -3.09861,-3.37308c-1.37187,-3.1555 0.24375,-8.28383 -3.0008,-11.05447c-0.70929,-0.6057 -1.92943,0.07466 -2.78155,-0.30463c-6.5332,-2.90806 -11.00814,-6.38991 -13.75233,-13.07856c0,0 -1.29405,-3.2351 1.94107,-4.52915c3.2351,-1.29405 4.52915,1.94107 4.52915,1.94107c1.9216,4.9705 5.1065,6.98644 9.9489,9.22848c1.30939,0.60624 3.12111,0.11962 4.1894,1.08956c2.35369,2.13701 4.96612,7.98171 5.58457,11.33073c0.1646,0.89131 -0.59867,1.88662 -0.22024,2.71021c0.46153,1.00444 1.85615,1.28986 2.47814,2.20369c0.7041,1.03444 0.72896,2.42562 1.39418,3.48547c1.01518,1.61739 3.51449,2.92015 5.04169,3.74338c2.30222,1.241 4.35631,2.92915 6.71646,4.05609c3.38541,1.6165 9.53081,0.39363 13.2168,0.39363c4.40851,0 11.3325,-1.20125 15.5333,0.11672c1.78748,0.56081 3.11569,2.15756 4.87967,2.78838c3.76657,1.34697 9.58371,-0.77538 13.60571,-0.07174c1.44762,0.25327 2.73873,1.12021 4.18257,1.39418c7.16942,1.36048 15.25775,-0.71947 22.44601,-0.74209h3.48547c0,0 3.48431,0 3.48431,3.48431z" fill="#bdbdbd"/><path d="M75.89289,223.07467c-0.48442,-0.51554 -0.84042,-1.27328 -0.84042,-2.38702c0,-3.48431 3.48431,-3.48431 3.48431,-3.48431c2.96363,0.05785 4.26639,0.43154 7.17587,-1.5365c2.7313,-1.84749 4.41821,-5.19422 7.43512,-6.52518c3.10153,-1.36829 9.2112,-1.61099 12.53752,-0.93768c4.89397,0.99063 8.06571,4.39033 12.15971,6.6346c1.41385,0.77505 3.21477,0.73157 4.55478,1.62826c0.82375,0.55123 0.70529,2.09859 1.61221,2.49853c1.39796,0.6165 3.38399,-0.72235 4.57775,0.23122c4.81758,3.84827 2.44848,8.92476 1.97806,13.43998c-0.17725,1.70135 3.42157,-0.02886 5.13078,-0.09716c1.51986,0 7.62447,-0.08452 8.52918,0.36785c2.77684,1.38841 7.30409,8.94182 8.01134,11.745c0.52015,2.06161 1.5844,4.58938 0.415,6.36513c-1.34193,2.03775 -4.27922,2.46086 -6.63806,3.08465c-1.56113,0.41284 -3.28012,0.35356 -4.84413,-0.04822c-2.78911,-0.7165 -8.18995,-4.07359 -9.84392,-6.4593c-1.27621,-1.84079 0.10372,-5.11436 -1.64379,-6.51558c-0.45083,-0.3615 -1.07604,0.50366 -1.65367,0.52038c-1.65739,0.04794 -3.53556,0.51402 -4.96336,-0.32896c-2.14505,-1.26644 -3.56226,-3.51966 -5.00036,-5.55363c-0.0901,-0.12744 -1.80982,-5.13643 -2.69916,-5.61483c-0.58882,-0.31674 -1.30883,0.30188 -1.97611,0.34389c-3.74849,0.23603 -7.64008,-0.01916 -11.3865,-0.12642c-2.48972,-1.41523 -6.47288,-4.97052 -9.48816,-5.5132c-3.23121,-0.58155 -7.19548,0.06287 -10.49461,0.06287l-1.94331,0.59306c0,0 -3.28068,0.82017 -4.18605,-2.38745z" fill="#d9d9d9"/></g></g></svg>