<svg version="1.1" xmlns="http://www.w3.org/2000/svg" xmlns:xlink="http://www.w3.org/1999/xlink" width="218.61847" height="86.27104" viewBox="0,0,218.61847,86.27104"><g transform="translate(-152.34359,-164.36617)"><g data-paper-data="{&quot;isPaintingLayer&quot;:true}" fill-rule="nonzero" stroke="none" stroke-width="0" stroke-linecap="butt" stroke-linejoin="miter" stroke-miterlimit="10" stroke-dasharray="" stroke-dashoffset="0" style="mix-blend-mode: normal"><path d="M227.84419,216.51626l0.75726,-1.44499l6.46926,3.31582l-0.75726,1.44499z" fill="#9e5400"/><path d="M174.93651,186.36373l0.88608,-1.37226l6.17389,3.82219l-0.88608,1.37225z" fill="#9e5400"/><path d="M152.34359,165.34605l1.33407,-0.97988l4.53567,5.5578l-1.33407,0.97989z" fill="#9e5400"/><path d="M155.34324,172.79317l3.74164,-4.38743l18.59171,14.83751l-3.74163,4.38744z" fill="#fda824"/><path d="M200.92278,202.70701l0.75726,-1.44499l6.46927,3.31582l-0.75725,1.44498z" fill="#9e5400"/><path d="M179.76199,192.21557l2.98688,-4.90602l20.58666,12.08207l-2.98687,4.90602z" fill="#fda824"/><path d="M206.39752,207.66906l2.65075,-5.0901l21.28322,10.84699l-2.65075,5.0901z" fill="#fda824"/><path d="M285.69682,231.04704l-1.23622,-1.06379l4.71945,-5.53171l1.23622,1.06379z" fill="#9e5400"/><path d="M272.14467,250.63721l-4.4286,-3.64711l15.15688,-18.47255l4.4286,3.6471z" fill="#fda824"/><path d="M309.0595,211.15702l-0.55372,-1.53404l6.82893,-2.49774l0.55372,1.53404z" fill="#9e5400"/><path d="M290.65083,227.0302l-3.3643,-4.64708l19.32978,-14.04726l3.3643,4.64708z" fill="#fda824"/><path d="M336.71827,199.85514l-0.61908,-1.50872l6.72919,-2.7565l0.61907,1.50872z" fill="#9e5400"/><path d="M315.7086,211.06023l-2.29233,-5.25937l21.93312,-9.48037l2.29233,5.25936z" fill="#fda824"/><path d="M364.23288,188.30318l-0.61908,-1.50872l6.72919,-2.7565l0.61907,1.50872z" fill="#9e5400"/><path d="M343.22321,199.50827l-2.29233,-5.25936l21.93311,-9.48038l2.29233,5.25936z" fill="#fda824"/></g></g></svg>