<svg version="1.1" xmlns="http://www.w3.org/2000/svg" xmlns:xlink="http://www.w3.org/1999/xlink" width="153.71848" height="448.82851" viewBox="0,0,153.71848,448.82851"><g transform="translate(-139.41721,100.51287)"><g data-paper-data="{&quot;isPaintingLayer&quot;:true}" fill-rule="nonzero" stroke="none" stroke-linecap="butt" stroke-linejoin="miter" stroke-miterlimit="10" stroke-dasharray="" stroke-dashoffset="0" style="mix-blend-mode: normal"><path d="M246.25194,317.78774c0.13137,-0.1553 0.27418,-0.31467 0.41124,-0.30998c1.70904,0.05856 3.80401,-0.58074 5.09076,0.73224c0.14293,0.14583 0.25596,0.31059 0.34489,0.4906c4.43136,-4.79517 8.64967,-9.60933 13.50989,-13.95127l3.38757,-3.02632c0.36384,-0.33189 0.82195,-0.52971 1.31969,-0.52971c1.18395,0 2.14374,1.11929 2.14374,2.5c0,0.55167 -0.15322,1.0616 -0.41275,1.47508l-1.71419,2.80397c0.29908,-0.09398 0.59555,-0.19411 0.88471,-0.3114c2.70361,-1.09666 5.40723,-2.19332 8.11086,-3.28995l0.01313,-0.00009l-0.00132,-0.00457l2.34392,-0.91523c0.22731,-0.09571 0.47249,-0.14788 0.7281,-0.14788c1.18395,0 2.14374,1.11929 2.14374,2.5c0,0.57191 -0.16467,1.09896 -0.44174,1.5202l-2.55951,3.9798l-0.2341,-0.20475c-0.3687,0.75934 -0.7547,1.50612 -1.16145,2.2363l0.00452,0.10012c2.58552,-0.94606 5.22802,-0.70797 8.17151,-0.8638l1.90604,-0.77231c0.23365,-0.10188 0.48662,-0.15759 0.75075,-0.15759c1.18395,0 2.14374,1.11929 2.14374,2.5c0,0.77141 -0.2996,1.46121 -0.7705,1.9198l-3.26153,3.21837l-0.18738,-0.25826c-2.75181,3.79992 -5.99906,7.19182 -9.97266,9.00257c-0.88038,0.40118 -1.917,0.07604 -2.81116,0.4334c-0.33381,0.13341 0.6869,0.18892 1.03141,0.27789c0.86422,0.22319 1.80326,0.19639 2.59472,0.65861c2.41399,1.40978 4.42051,3.6213 6.71059,5.28873l2.05258,1.49605c0.62261,0.43745 1.03903,1.23348 1.03903,2.14293c0,1.38071 -0.95979,2.5 -2.14374,2.5h-4.2875v-0.30607c-3.84528,0.74347 -7.796,1.23024 -11.74412,1.53092c0.1911,0.37396 0.30085,0.811 0.30085,1.27793c0,1.38071 -0.95979,2.5 -2.14374,2.5h-4.2875c-4.96343,1.01478 -10.12589,-1.48016 -15.13775,-1.65776c0.07746,0.25839 0.11957,0.53614 0.11957,0.82535c0,1.38071 -0.95979,2.5 -2.14374,2.5h-4.2875v-0.04649c-0.1638,-0.00025 -0.32791,-0.00678 -0.49236,-0.02035c-1.55498,-0.12829 -2.77862,-1.65393 -4.20743,-2.38084c-1.27829,-0.65033 -2.72467,-0.88356 -3.90649,-1.7471c-0.00691,-0.00505 -0.01361,-0.01072 -0.02009,-0.01697c0.31615,1.38851 0.88271,2.89164 0.01897,3.59746c-1.62505,1.32797 -3.97252,0.04049 -5.95207,-0.11991c-2.85146,-0.23106 -5.65986,-0.93757 -8.48901,-1.41267c-0.8238,-0.13835 -1.67265,-0.14549 -2.47061,-0.42136c-0.43549,-0.15056 -0.74256,-1.0426 -1.16004,-0.83384c-0.94564,0.47285 -1.17949,2.44345 -2.20644,2.51721c-1.8229,0.13092 -3.49067,-1.25999 -5.20804,-1.98471c-1.20499,-0.50849 -2.49498,-0.86904 -3.5529,-1.71232c-1.00641,-0.80221 -1.49485,-2.30855 -2.50019,-3.11259c-0.36579,-0.29255 -0.94725,-0.21209 -1.32995,0.04937c-2.28423,1.56066 -3.91628,4.19455 -6.12644,5.89409c-1.28902,0.99122 -2.52837,2.60694 -4.07214,2.57452c-1.22645,-0.02576 -1.70243,-2.20384 -2.84651,-2.71983c-1.10251,-0.49724 -2.36234,-0.10809 -3.54351,-0.16213c-1.19813,-0.14988 -2.4056,-0.67923 -3.5944,-0.44963c-0.77169,0.14904 -1.18528,1.33431 -1.951,1.52061c-2.01357,0.4899 -4.2159,1.24084 -6.15855,0.45245c-0.93615,-0.37993 -0.04215,-2.70183 -0.88464,-3.31083c-0.85593,-0.61871 -1.98396,0.44011 -2.98917,0.51065c-3.03999,0.21333 -9.34663,1.20909 -11.75121,-1.87202c-0.58094,-0.74439 0.18679,-2.13256 -0.24147,-3.00645c-0.57408,-1.17145 -1.73075,-1.79207 -2.56701,-2.72448c-0.38949,-0.43427 -5.8636,-6.85301 -5.91131,-6.92628c-2.13523,-3.2793 -3.03852,-8.35856 -5.45187,-11.33546c-0.85038,-1.04896 -1.96688,-1.75324 -2.95031,-2.62987l-0.11419,-0.67373l-0.17471,0.08149l-1.41192,-4.11634c-0.11032,-0.30123 -0.17138,-0.63286 -0.17138,-0.98112c0,-1.38071 0.95979,-2.5 2.14374,-2.5c0.28241,0 0.55206,0.06369 0.79898,0.17941l3.96825,1.73539l-0.11484,0.35714c1.68339,0.52659 3.31947,1.13367 5.02982,1.83587c-1.37365,-2.15827 -2.32731,-4.64483 -3.5441,-7.15076l-1.54998,-3.19212c-0.18876,-0.37231 -0.29707,-0.80665 -0.29707,-1.27049c0,-1.38071 0.95979,-2.5 2.14374,-2.5c0.42922,0 0.82897,0.1471 1.16422,0.40043l3.60777,2.62957l-0.09289,0.17334c1.87135,0.90659 3.66528,1.99149 5.44439,3.4845l-0.58192,-1.35722c-0.15684,-0.34741 -0.24561,-0.74313 -0.24561,-1.16302c0,-1.38071 0.95979,-2.5 2.14374,-2.5c0.38617,0 0.74849,0.11908 1.06144,0.32746l3.72908,2.37206c2.27996,0.99597 4.0989,3.22232 6.43071,4.03884c0.83111,0.29102 1.88839,-0.39144 2.59816,0.19075c1.71879,1.40983 3.35887,3.87162 4.88015,6.4181c0.41626,0.03861 1.87813,0.30787 2.02225,2.18588c0.53604,0.56534 1.03252,1.15936 1.29249,1.92466c0.03645,0.1073 0.07135,0.21512 0.1048,0.32343l0.04533,-0.02643l0.25244,0.58878h1.17753c11.55919,0 23.36281,0.80211 34.89668,0.00514c4.26657,-0.29481 7.90529,-2.61993 12.06568,-3.32635c3.32767,-0.56502 7.36783,0.4127 11.04687,1.65077c0.41442,-1.66475 2.04916,-1.66475 2.04916,-1.66475l2.79473,1.89366c-0.01115,0.48338 -0.19334,1.02154 -0.16905,1.49357c0.0661,0.02556 0.13184,0.05098 0.19718,0.07624c0,0 0.14313,0.05564 0.34081,0.18168z" data-paper-data="{&quot;index&quot;:null}" fill="#fcfcfc" stroke-width="0.5"/><path d="M234.07095,319.67046c0.08737,-0.10329 0.18234,-0.20929 0.27351,-0.20616c1.1367,0.03895 2.53008,-0.38627 3.38592,0.48701c0.09506,0.09699 0.17025,0.20657 0.22939,0.3263c2.94735,-3.18932 5.75297,-6.39127 8.98559,-9.27914l2.2531,-2.01284c0.24199,-0.22075 0.54667,-0.35232 0.87774,-0.35232c0.78747,0 1.42584,0.74445 1.42584,1.66278c0,0.36692 -0.10191,0.70609 -0.27452,0.9811l-1.14013,1.86495c0.19893,-0.06251 0.39611,-0.12911 0.58844,-0.20712c1.7982,-0.7294 3.59642,-1.4588 5.39463,-2.18818l0.00873,-0.00005l-0.00088,-0.00304l1.55898,-0.60873c0.15119,-0.06366 0.31425,-0.09835 0.48426,-0.09835c0.78747,0 1.42584,0.74445 1.42584,1.66277c0,0.38038 -0.10953,0.73094 -0.2938,1.01111l-1.70234,2.64701l-0.1557,-0.13619c-0.24522,0.50504 -0.50195,1.00173 -0.77249,1.48739l0.00301,0.06659c1.71966,-0.62923 3.47722,-0.47087 5.43497,-0.57452l1.26773,-0.51367c0.1554,-0.06777 0.32367,-0.10482 0.49934,-0.10482c0.78747,0 1.42584,0.74446 1.42584,1.66278c0,0.51308 -0.19926,0.97187 -0.51248,1.27688l-2.16928,2.14057l-0.12464,-0.17178c-1.83027,2.52737 -3.99004,4.78337 -6.63293,5.98771c-0.58555,0.26683 -1.27501,0.05058 -1.86972,0.28827c-0.22201,0.08873 0.45686,0.12564 0.68601,0.18482c0.5748,0.14845 1.19936,0.13062 1.72577,0.43805c1.60557,0.93766 2.94014,2.40857 4.46328,3.51759l1.36519,0.99504c0.41411,0.29095 0.69108,0.8204 0.69108,1.42529c0,0.91832 -0.63838,1.66278 -1.42584,1.66278h-2.85167v-0.20358c-2.55753,0.49448 -5.1852,0.81824 -7.81115,1.01824c0.1271,0.24872 0.20011,0.5394 0.20011,0.84996c0,0.91832 -0.63838,1.66278 -1.42584,1.66278h-2.85167c-3.30124,0.67494 -6.73484,-0.98447 -10.06828,-1.1026c0.05152,0.17186 0.07953,0.35659 0.07953,0.54895c0,0.91832 -0.63837,1.66277 -1.42584,1.66277h-2.85167v-0.03091c-0.10894,-0.00016 -0.21809,-0.0045 -0.32748,-0.01353c-1.03423,-0.08533 -1.84809,-1.10005 -2.79842,-1.58353c-0.85021,-0.43254 -1.81221,-0.58767 -2.59825,-1.16201c-0.00459,-0.00336 -0.00906,-0.00713 -0.01337,-0.01128c0.21028,0.92352 0.5871,1.92327 0.01263,2.39272c-1.08084,0.88325 -2.64215,0.02693 -3.95878,-0.07976c-1.89653,-0.15368 -3.76443,-0.62358 -5.64613,-0.93958c-0.54791,-0.09202 -1.11249,-0.09676 -1.64324,-0.28025c-0.28965,-0.10014 -0.49389,-0.69344 -0.77156,-0.5546c-0.62895,0.3145 -0.78449,1.62517 -1.46753,1.67423c-1.21243,0.08708 -2.32167,-0.83804 -3.46393,-1.32005c-0.80145,-0.3382 -1.65943,-0.57801 -2.36308,-1.13888c-0.66939,-0.53356 -0.99424,-1.53544 -1.6629,-2.07022c-0.2433,-0.19457 -0.63003,-0.14107 -0.88456,0.03284c-1.51926,1.03801 -2.60477,2.78984 -4.07477,3.92023c-0.85733,0.65927 -1.68164,1.7339 -2.70842,1.71234c-0.81572,-0.01713 -1.1323,-1.4658 -1.89324,-1.80898c-0.73329,-0.33072 -1.57122,-0.07189 -2.35683,-0.10784c-0.7969,-0.09969 -1.59999,-0.45176 -2.39068,-0.29906c-0.51326,0.09913 -0.78834,0.88746 -1.29763,1.01137c-1.33924,0.32584 -2.80404,0.8253 -4.09613,0.30094c-0.62265,-0.25269 -0.02803,-1.79701 -0.58839,-2.20207c-0.56929,-0.41151 -1.31955,0.29272 -1.98813,0.33963c-2.02193,0.14189 -6.21653,0.80418 -7.81586,-1.24511c-0.3864,-0.49511 0.12423,-1.41839 -0.16061,-1.99962c-0.38182,-0.77915 -1.15114,-1.19192 -1.70735,-1.81208c-0.25905,-0.28884 -3.89994,-4.55801 -3.93168,-4.60675c-1.42016,-2.1811 -2.02096,-5.55937 -3.62608,-7.53934c-0.56559,-0.69768 -1.30819,-1.1661 -1.9623,-1.74916l-0.07596,-0.44811l-0.11619,0.05421l-0.93908,-2.73782c-0.07337,-0.20035 -0.11398,-0.42093 -0.11398,-0.65256c0,-0.91832 0.63838,-1.66278 1.42584,-1.66278c0.18784,0 0.36718,0.04235 0.53141,0.11933l2.63933,1.15422l-0.07637,0.23754c1.11965,0.35024 2.20782,0.75401 3.3454,1.22105c-0.91363,-1.43549 -1.54793,-3.08933 -2.35722,-4.75605l-1.0309,-2.12311c-0.12554,-0.24763 -0.19757,-0.53651 -0.19757,-0.84501c0,-0.91832 0.63837,-1.66278 1.42584,-1.66278c0.28547,0 0.55136,0.09784 0.77433,0.26633l2.39956,1.74895l-0.06178,0.11529c1.24466,0.60298 2.43782,1.32457 3.62112,2.31758l-0.38704,-0.9027c-0.10431,-0.23107 -0.16337,-0.49426 -0.16337,-0.77354c0,-0.91832 0.63838,-1.66278 1.42584,-1.66278c0.25685,0 0.49783,0.0792 0.70597,0.2178l2.48026,1.57768c1.51642,0.66243 2.72622,2.1432 4.27713,2.68628c0.55278,0.19356 1.25598,-0.26036 1.72808,0.12687c1.14318,0.93769 2.23402,2.57506 3.24585,4.26875c0.27685,0.02568 1.24916,0.20477 1.34502,1.45385c0.35653,0.37601 0.68675,0.7711 0.85964,1.28011c0.02425,0.07137 0.04745,0.14308 0.0697,0.21512l0.03015,-0.01758l0.1679,0.39161h0.78319c7.68814,0 15.53888,0.53349 23.21017,0.00342c2.83775,-0.19608 5.25789,-1.74255 8.02501,-2.21239c2.21327,-0.3758 4.90042,0.2745 7.34739,1.09795c0.27564,-1.10724 1.36291,-1.10725 1.36291,-1.10725l1.85881,1.2595c-0.00741,0.3215 -0.1286,0.67944 -0.11243,0.99339c0.04397,0.017 0.08769,0.03391 0.13115,0.05071c0,0 0.0952,0.037 0.22668,0.12084z" data-paper-data="{&quot;index&quot;:null}" fill="#e6e6e6" stroke-width="0.5"/><path d="M203.7059,333.23254v-369.44876h22.36137v369.44876z" fill="#625eff" stroke-width="0"/><path d="M211.8046,333.37837v-369.44876h6.80563v369.44876z" fill="#9492ff" stroke-width="0"/><path d="M233.19375,333.04548v-345.64922h18.47243v345.64922z" fill="#5e9aff" stroke-width="0"/><path d="M239.88398,333.18192v-345.64922h5.62204v345.64922z" fill="#615eff" stroke-width="0"/><path d="M179.0695,332.43605v-345.64922h18.47244v345.64922z" fill="#5e9aff" stroke-width="0"/><path d="M185.75974,332.57248v-345.64922h5.62204v345.64922z" fill="#615eff" stroke-width="0"/><path d="M267.24914,-98.89409c0,1.61877 -1.61877,1.61877 -1.61877,1.61877l-2.60255,-0.03078c-5.27541,2.31186 -10.97782,4.02477 -16.09651,6.65447c-2.74394,1.40969 -5.10397,3.56846 -7.8397,4.99634c-0.63755,0.33276 -1.42985,0.34067 -2.025,0.74438c-0.18645,0.12648 0.51029,0.01147 0.64892,0.18907c0.66404,0.85069 1.11047,1.85077 1.6657,2.77616c0.24937,0.41561 3.40095,5.64159 3.48911,5.90461c0.31988,0.95433 0.16409,2.00636 0.23426,3.01041c0.22304,3.19157 0.61916,6.49517 0.60585,9.6937c-0.00616,1.48222 0.39774,3.09963 -0.23386,4.44057c-0.04265,0.09054 -0.10449,0.14186 -0.18049,0.16421c0.55179,0.75017 3.81884,5.19111 3.887,5.31963c1.48308,2.7963 2.28708,6.38037 3.34924,9.36739c0.38765,1.09014 2.48181,6.6096 2.08372,7.38359c-0.67796,1.31815 -2.71139,1.20514 -4.10594,1.70752c-3.00744,1.0834 -6.21189,1.8458 -9.27086,2.78702c-1.03146,0.31736 -2.02923,0.77863 -3.09437,0.95211c-0.66683,0.10861 -1.67353,-0.69656 -2.02338,-0.11858c-0.30984,0.51186 1.14516,0.43805 1.58345,0.84535c0.74688,0.69407 1.26871,1.59645 1.90307,2.39468c6.3976,5.06093 12.74643,10.18446 19.11625,15.28032c1.88907,1.51126 7.4941,4.48235 6.55288,7.76536c-0.23369,0.81512 -5.07403,3.06724 -5.69389,3.37704c-3.44747,1.72302 -6.98617,3.13684 -10.55026,4.6044c-1.99579,0.8218 -3.87212,2.03613 -5.98736,2.46539l-0.33788,0.13912l-0.17906,0.72499l-0.07309,-0.01805l0.00445,0.2313c-2.69278,4.76175 -5.41468,9.50694 -8.12876,14.25658c-0.4105,0.71837 -3.27638,5.81946 -3.69027,6.14534c-0.78782,0.62029 -2.01958,0.23218 -2.94278,0.62348c-1.88393,0.79852 -3.38531,2.29942 -5.08782,3.43443c-2.89672,1.92928 -5.91377,3.71033 -9.00909,5.31602c0.52477,0.14592 1.03206,0.3298 1.49105,0.61705c0.75932,0.47519 1.10811,1.40795 1.64319,2.12633c1.28931,1.73096 2.5274,3.49948 3.7911,5.24921c1.21236,1.67865 2.42471,3.35729 3.63706,5.03593c0.18253,-0.07134 0.3812,-0.11049 0.589,-0.11049c0.46751,0 0.88873,0.19818 1.18423,0.51512l2.21077,2.35904c0.73794,0.78743 1.4759,1.57487 2.21384,2.36231c3.68974,3.9372 7.37948,7.87439 11.06922,11.81159c0.73794,0.78743 1.50042,1.55258 2.21384,2.36231c0.55289,0.62753 0.79622,1.66259 1.58279,1.94681c0.78657,0.28422 1.63519,-0.35711 2.46164,-0.4854c1.85141,-0.28739 8.00866,-1.14885 9.48371,0.1285c0.65185,0.56449 -0.15627,6.01456 -0.23044,6.64957c-0.63347,5.42335 -1.00515,10.90623 -2.32504,16.20838c0,0 -0.39261,1.57044 -1.96305,1.17783c-1.57044,-0.39261 -1.17783,-1.96305 -1.17783,-1.96305c1.04007,-4.14147 1.37964,-8.34537 1.87463,-12.58309c0.2504,-2.14378 0.22903,-4.33711 0.75121,-6.43135c0.09001,-0.361 1.0118,-0.81092 0.65207,-0.90588c-0.6767,-0.17864 -1.33638,0.43747 -2.02832,0.54257c-1.53297,0.23286 -3.09256,0.23428 -4.63538,0.38907c-1.31876,0.13232 -2.71693,0.76814 -3.96343,0.31773c-0.46456,-0.16786 -4.50547,-4.54976 -5.05874,-5.14014c-3.66696,-3.91289 -7.33391,-7.82577 -11.00086,-11.73865c-0.29646,0.37535 -0.75562,0.61625 -1.27106,0.61625c-0.54756,0 -1.03163,-0.27188 -1.32458,-0.688l-1.88327,-2.6076c-2.17126,-2.10495 -3.9128,-5.41772 -5.68664,-7.87381c-1.2637,-1.74974 -2.55887,-3.47717 -3.7911,-5.24921c-0.31213,-0.44888 -0.41663,-1.10236 -0.88831,-1.37882c-1.04928,-0.615 -2.25167,-0.86523 -3.46362,-1.09578c-0.30977,0.10339 -0.62859,0.15524 -0.96102,0.12746c-0.13998,-0.0117 -0.48697,-0.21452 -0.94805,-0.52762c-0.12114,-0.03137 -0.24158,-0.06447 -0.36117,-0.09964c-2.07066,-0.60902 -4.15123,-1.18528 -6.21197,-1.82705c-0.85784,-0.26715 -1.66153,-0.91356 -2.55778,-0.85033c-0.9944,0.07015 -1.75486,1.01155 -2.72899,1.2233c-0.19159,0.04165 -6.40126,0.22695 -6.76704,0.23836c-4.52365,0.14108 -8.38081,-0.18231 -12.83718,-0.99256l-3.15754,-0.5741c-0.76952,-0.12514 -1.35696,-0.79283 -1.35696,-1.59771c0,-0.52362 0.24861,-0.98917 0.63424,-1.28506l2.09486,-1.63874c2.7004,-3.44275 5.30058,-6.99408 8.2063,-10.2307c0.98154,-1.09332 1.63177,-2.97226 3.09117,-3.14221c0.82912,-0.09655 5.3803,3.65357 6.26912,4.35704c4.23106,3.34871 8.46211,6.69742 12.69317,10.04613c0.84622,0.66973 1.72581,1.29933 2.53864,2.00922c0.3167,0.27658 0.54805,0.7152 0.81466,1.07331c0.48127,0.14361 0.96217,0.28812 1.44261,0.43347c0.4696,-0.29296 0.84931,-0.90887 1.33376,-1.20663c3.24462,-1.99427 6.65033,-3.59171 9.82469,-5.71008c0.35923,-0.23949 5.46196,-3.65415 5.68736,-3.74903c0.70639,-0.29735 1.67015,0.19131 2.28359,-0.26815c0.68054,-0.50973 0.72663,-1.53829 1.12854,-2.28757c0.51011,-0.951 1.07085,-1.87398 1.60627,-2.81097c2.39108,-4.18439 4.77375,-8.37367 7.18087,-12.54886c-0.52489,-0.26769 -0.88435,-0.81335 -0.88435,-1.44297c0,-0.64621 0.37866,-1.20399 0.9262,-1.46355l1.88398,-0.94199c0.22495,-0.11843 0.48118,-0.18546 0.75306,-0.18546c0.03034,0 0.06048,0.00084 0.09041,0.00248l0.34246,-0.14101c1.64899,-1.39261 3.99157,-1.64359 5.98736,-2.46539c3.49067,-1.43734 6.95945,-2.81794 10.33508,-4.50646c0.96516,-0.48279 1.88354,-1.07359 2.89574,-1.44787c0.36767,-0.13595 0.89536,0.21789 1.17462,-0.05722c0.19228,-0.18942 -0.47804,-0.25485 -0.6954,-0.41488c-0.7759,-0.57125 -1.52441,-1.17885 -2.28047,-1.77611c-1.69366,-1.33793 -3.37079,-2.69663 -5.05619,-4.04495c-5.62028,-4.49623 -11.25527,-8.97479 -16.85496,-13.49665c-0.67531,-0.83915 -4.64112,-5.46837 -4.29134,-6.4823c0.50336,-1.45914 2.73711,-1.43753 4.16536,-2.02281c2.93475,-1.20261 6.25662,-1.95732 9.29818,-2.8609c1.03952,-0.30882 2.06114,-0.69858 3.12741,-0.89617c0.69484,-0.12876 1.79544,0.55243 2.11866,-0.076c0.32322,-0.62843 -0.87082,-1.12764 -1.17039,-1.76768c-0.45747,-0.97742 -0.72313,-2.03361 -1.0847,-3.05042c-1.00888,-2.83719 -1.74957,-6.27773 -3.15898,-8.93514c-0.97452,-1.83742 -2.4768,-3.34198 -3.70827,-5.01809l-1.55656,-2.11857c-0.20377,-0.27076 -0.32456,-0.60752 -0.32456,-0.97249c0,-0.89402 0.72475,-1.61877 1.61877,-1.61877h0.83422c-0.12001,-0.47695 -0.62612,-1.0035 -0.70732,-1.51149c-0.17035,-1.06565 -0.13464,-2.15415 -0.20195,-3.23123c-0.13463,-2.15416 -0.28732,-4.30726 -0.4039,-6.46247c-0.04056,-0.74997 0.14896,-1.54073 -0.09459,-2.25121c-0.65849,-1.92095 -2.12892,-3.45877 -3.17369,-5.20006c-0.1294,-0.21568 -3.0087,-4.66967 -2.68938,-5.37477c0.43138,-0.95254 5.04244,-3.75309 6.16916,-4.47009c6.9782,-4.44067 14.62375,-7.32788 22.3147,-10.35726l3.23085,-0.03078c0,0 1.61877,0 1.61877,1.61877zM198.65674,32.44509c-3.49963,-2.76982 -6.99927,-5.53964 -10.49891,-8.30946c-0.84622,-0.66973 -1.7551,-1.26713 -2.53864,-2.00922c-0.51934,-0.49187 -0.63628,-1.75338 -1.34678,-1.67064c-0.7105,0.08274 -0.53443,1.33737 -0.92685,1.93541c-0.59205,0.90228 -1.33934,1.69254 -2.00901,2.53881c-1.33934,1.69254 -2.67579,3.38737 -4.01802,5.07761c-0.67573,0.85094 -1.16661,1.89436 -2.00352,2.57841c4.09744,0.72605 7.61406,1.00984 11.80712,0.87908c2.05868,-0.0642 4.16511,0.27661 6.17682,-0.1653c1.13488,-0.2493 2.07653,-1.23953 3.23725,-1.29276c0.72591,-0.03329 1.42555,0.18345 2.12054,0.43808z" data-paper-data="{&quot;index&quot;:null}" fill="#ffffff" stroke-width="0.5"/><path d="M206.27848,193.68377c1.19884,1.08776 0.11109,2.28659 0.11109,2.28659l-1.87906,2.07096c-0.65322,0.69892 -1.49467,1.26071 -1.95966,2.09675c-1.27333,2.28942 -0.18066,4.5845 -2.2187,6.73146c-1.62057,1.70718 -3.10065,-0.49354 -4.63678,-0.20499c-0.32967,0.06192 0.51434,0.47834 0.61101,0.79953c0.30465,1.01219 0.3793,2.07977 0.56861,3.11972c0.18197,0.99961 1.29432,6.69796 1.03667,7.33585c-0.24352,0.60292 -5.38338,3.48179 -5.93217,3.80095c-3.06047,0.96372 -6.29675,2.3361 -9.44561,2.95354c-0.68161,0.13365 -1.811,-0.58742 -2.08313,0.05164c-0.27213,0.63906 1.02946,0.95417 1.40639,1.53759c0.54125,0.83778 0.74787,1.86864 1.32141,2.68465c1.29046,1.83602 3.31908,3.22952 4.11683,5.3271c0.28726,0.75531 0.05955,1.61525 0.06946,2.42328c0.02648,2.1582 0.04934,4.31729 0,6.47508c-0.01979,0.86564 -0.41973,1.77702 -0.13335,2.59415c0.20702,0.5907 0.98989,0.76789 1.45747,1.184c1.54398,1.37403 2.78118,3.12098 4.50677,4.2586c3.39954,2.24119 7.95858,3.2567 11.62222,5.05911c1.267,0.62332 2.97853,0.80652 3.73475,1.99896c0.638,1.00604 -0.13619,2.37869 -0.20428,3.56803c-0.36986,1.48289 -0.78569,2.99975 -1.51183,4.34267c1.30198,-0.13954 2.6926,-0.28292 3.92204,0.1648c0.79605,0.2899 1.15435,1.24145 1.6971,1.89196c2.05494,2.46295 4.12283,5.03625 6.01015,7.62974c0.47836,0.65735 0.57873,1.73996 1.33346,2.04215c0.75474,0.30219 1.57351,-0.4177 2.37437,-0.55757c2.57289,-0.44933 7.167,-0.64835 9.45349,1.14281c1.02196,0.80058 1.32059,2.23578 1.95361,3.3692c2.10335,3.76604 4.06421,7.62039 6.09419,11.4266c0,0 0.76177,1.42833 -0.66655,2.1901c-1.42833,0.76177 -2.1901,-0.66655 -2.1901,-0.66655c-1.52355,-2.85665 -3.04709,-5.7133 -4.57064,-8.56995c-0.50785,-0.95221 -1.03846,-1.89264 -1.52355,-2.85665c-0.38756,-0.77019 -0.41474,-1.81241 -1.09348,-2.34411c-0.67874,-0.5317 -1.69681,-0.31007 -2.53773,-0.50046c-1.45043,-0.32839 -2.98413,-0.15706 -4.46139,0.01401c-1.34153,0.15535 -2.78189,0.86013 -4.03563,0.35814c-1.25374,-0.50199 -1.80652,-2.00872 -2.67331,-3.04434c-1.3853,-1.65512 -2.67118,-3.39099 -4.00677,-5.08649c-0.66779,-0.84775 -1.36761,-1.67123 -2.00338,-2.54325c-0.22281,-0.30561 -0.20167,-0.88584 -0.56729,-0.98264c-0.86329,-0.22855 -4.80797,0.87112 -5.43037,-0.46014c-0.5166,-1.10496 0.8991,-6.1593 1.25912,-7.59588c0.18125,-0.45623 0.85987,-0.99307 0.54378,-1.36868c-0.48869,-0.58071 -1.48489,-0.335 -2.19744,-0.59637c-1.01317,-0.37163 -1.9774,-0.86511 -2.9661,-1.29766c-2.87105,-1.25609 -6.52995,-2.30355 -9.14044,-4.02455c-0.11715,-0.07724 -4.72237,-4.3878 -4.93944,-4.60004c-0.75378,-0.73701 -1.83723,-1.27405 -2.21365,-2.25877c-0.46219,-1.20908 -0.10911,-2.58675 -0.13335,-3.88093c-0.04042,-2.15799 -0.03174,-4.31696 0,-6.47508c0.00729,-0.49552 0.25185,-1.02431 0.06946,-1.4851c-0.81528,-2.05976 -2.43059,-2.62797 -3.66104,-4.39524c-0.66337,-0.95279 -1.12819,-2.03498 -1.57432,-3.10683c-0.57731,-1.38701 -2.07797,-2.87164 -1.48936,-4.25389c0.58861,-1.38225 2.70141,-1.32277 4.09891,-1.87422c2.91891,-1.1518 6.1003,-1.9007 9.10051,-2.82405c0.87653,-0.51741 1.72274,-1.09003 2.62959,-1.55224c0.53057,-0.27043 1.47759,-0.0744 1.66856,-0.63846c0.24885,-0.73504 -0.52197,-1.46496 -0.70078,-2.2201c-0.50243,-2.12183 -1.04074,-4.2595 -1.16884,-6.43623c-0.06713,-1.14064 -0.67225,-2.68054 0.19697,-3.42218c1.13309,-0.96678 2.94846,-0.47143 4.43674,-0.53142c0.24191,-0.00975 0.5417,0.54355 0.64882,0.32643c0.86644,-1.75624 0.3871,-4.00897 1.33897,-5.72042c0.5842,-1.05036 1.59424,-1.79906 2.39135,-2.6986l1.87906,-2.07096c0,0 1.08776,-1.19884 2.28659,-0.11109z" data-paper-data="{&quot;index&quot;:null}" fill="#ffffff" stroke-width="0.5"/><path d="M207.39169,180.71126c0,1.61877 -1.61877,1.61877 -1.61877,1.61877h-1.94447c0,0 -1.61877,0 -1.61877,-1.61877c0,-1.61877 1.61877,-1.61877 1.61877,-1.61877h1.94447c0,0 1.61877,0 1.61877,1.61877z" fill="#ffffff" stroke-width="0.5"/><path d="M208.33623,108.82824c0.72394,-1.44786 2.17181,-0.72393 2.17181,-0.72393l2.43962,1.3551c0.70836,1.83582 1.59428,3.60913 2.60579,5.29699c1.6563,2.78178 3.31262,5.56356 4.96892,8.34534c1.02663,1.72424 1.54059,3.85392 3.0236,5.20584c0.74935,0.68311 1.92575,0.71675 2.74038,1.32052c0.93828,0.69541 1.88329,1.48885 2.43732,2.51696c0.20874,0.38735 1.15546,6.60961 1.14313,6.73996c-0.10823,1.14458 -0.65279,2.22156 -1.19459,3.23558c-0.31856,0.59622 -1.72691,0.95984 -1.34511,1.51769c0.3818,0.55786 1.2351,-0.59205 1.90168,-0.70448c1.81192,-0.30562 3.67507,-0.01098 5.51256,0c1.1997,0.00717 2.42788,-0.21988 3.59892,0.04085c1.11042,0.24723 2.06297,0.95963 3.09021,1.44844c2.86783,1.36465 6.01852,2.60019 8.74451,4.22712c1.32017,0.78791 3.55731,1.08609 3.80751,2.60301c0.2502,1.51692 -1.84657,2.45861 -2.76986,3.68791c-0.19488,0.19172 -4.66634,4.59711 -4.78101,4.68295c-2.54648,1.9062 -5.88618,3.29333 -8.66914,4.84247c-0.94293,0.52489 -1.84311,1.13528 -2.8288,1.57466c-0.65346,0.29128 -1.86321,-0.08366 -2.05946,0.60432c-0.19626,0.68798 1.02924,1.00771 1.43067,1.59991c1.4393,2.12329 4.54106,6.23167 3.2211,9.01979c-0.5422,1.1453 -1.69417,1.89095 -2.63315,2.74183c-4.64136,4.20589 -13.15915,6.00251 -19.27534,6.02587c0,0 -1.61877,0 -1.61877,-1.61877c0,-1.61877 1.61877,-1.61877 1.61877,-1.61877c4.24739,0.01842 8.05677,-1.26923 12.0909,-2.5459c2.48403,-0.78612 5.25781,-1.96075 6.83441,-4.24215c0.69689,-1.00845 -0.89134,-2.29307 -1.49576,-3.3595c-0.55403,-0.97752 -3.50997,-6.10598 -3.28619,-6.89044c0.22884,-0.80221 5.43684,-3.56852 6.42694,-4.11966c2.65506,-1.47794 5.87322,-2.78614 8.30366,-4.60548c1.6699,-1.25002 2.96367,-2.93618 4.45065,-4.39905c0.61533,-0.28437 1.9563,-0.18428 1.84598,-0.8531c-0.11032,-0.66882 -1.37826,-0.00324 -2.02217,-0.21507c-1.02513,-0.33723 -1.94322,-0.93936 -2.91483,-1.40904c-1.94323,-0.93936 -3.89297,-1.86535 -5.82967,-2.81808c-0.80462,-0.39583 -1.52834,-1.01399 -2.40393,-1.20745c-1.98996,-0.43967 -4.07575,0.04085 -6.1137,0.04085c-1.47638,0 -6.28724,0.11546 -6.84842,-0.70448c-0.87117,-1.27287 0.57201,-3.03603 0.99885,-4.51824c0.23915,-0.83045 0.91307,-1.53471 0.99206,-2.39529c0.0856,-0.93269 -0.36838,-1.83706 -0.51874,-2.76152c-0.11686,-0.71845 0.03783,-1.51175 -0.2826,-2.16532c-0.82928,-1.69149 -3.35994,-1.86884 -4.50273,-2.94719c-0.2242,-0.21157 -3.32246,-5.45242 -3.60162,-5.92127c-1.6563,-2.78178 -3.31262,-5.56356 -4.96892,-8.34534c-0.90457,-1.52815 -1.7855,-3.11264 -2.26219,-4.82328l-1.44932,-0.58937c0,0 -1.44786,-0.72394 -0.72393,-2.17181z" data-paper-data="{&quot;index&quot;:null}" fill="#ffffff" stroke-width="0.5"/></g></g></svg>