<svg version="1.1" xmlns="http://www.w3.org/2000/svg" xmlns:xlink="http://www.w3.org/1999/xlink" width="161.77874" height="99.94925" viewBox="0,0,161.77874,99.94925"><g transform="translate(-331.01306,-232.79176)"><g data-paper-data="{&quot;isPaintingLayer&quot;:true}" fill-rule="nonzero" stroke="none" stroke-linecap="butt" stroke-linejoin="miter" stroke-miterlimit="10" stroke-dasharray="" stroke-dashoffset="0" style="mix-blend-mode: normal"><path d="M347.69254,298.49267c-0.01991,-0.74974 0.72983,-0.76965 0.72983,-0.76965l1.20563,-0.00083c0.21828,-0.15671 0.42505,-0.28902 0.62409,-0.40184c-0.52673,-0.4433 -1.06907,-0.8605 -1.85435,-1.19553c-1.80858,-0.77162 -4.72206,-1.19986 -5.38025,-3.46441c-1.29572,-4.45803 4.2649,-1.27456 3.99266,-4.55532c0,-1.75664 0.42099,-4.12744 0.02002,-5.82787c-0.22248,-0.94347 -0.97534,-1.68608 -1.31327,-2.59463c-0.311,-0.83616 -0.08355,-1.88836 -0.61532,-2.60467c-2.19294,-2.95397 -8.13367,-3.22224 -9.63052,-6.96755c-0.78717,-1.9696 -0.06467,-5.88187 -0.02495,-8.00421c3.45705,-5.40651 7.72158,-10.01209 14.46888,-10.08513c-0.68941,-0.37506 -1.25146,-0.96343 -0.63387,-2.10436c0.43293,-0.79979 5.57504,-0.79188 6.53745,-0.90314c2.46079,-0.2845 5.03521,-0.03879 7.45892,-0.38857c4.57417,-0.66012 8.41072,-3.29575 12.9851,-3.394c5.1221,-0.09868 10.05859,2.2094 14.42511,4.67478c1.14843,0.64841 2.23666,2.09931 3.42775,2.59236c1.27008,0.52575 2.98396,0.47633 4.27347,0.91856c0.98413,0.33751 1.63438,1.30614 2.55079,1.79871c1.22404,0.65791 2.76576,0.86355 4.0457,1.4813c3.9309,0.16564 7.87176,0.09838 11.80544,0.09838c1.88369,0 4.34266,-0.40478 6.17195,0.01998c1.73169,0.4021 2.6402,1.55348 3.95597,2.38801c2.33733,1.48245 5.93207,1.37098 8.53343,2.23386c2.66434,1.80491 6.33463,2.16508 9.44165,2.17943c1.23448,0.0057 4.06882,0.26252 4.83145,1.53011c2.11349,3.51283 -3.90282,2.43551 -1.84041,6.01464c1.09182,1.89475 5.36551,1.82356 6.24945,3.80168c0.2595,0.58072 -0.2625,1.24474 -0.39375,1.86711c-0.16324,2.15505 -1.26122,3.68975 -1.80776,5.72438c-1.19559,4.45084 -1.31522,7.85067 -5.61245,10.47766c-2.77242,1.69484 -6.11578,0.86641 -9.09686,1.38781c-1.3962,0.2442 -2.73212,1.321 -3.92654,2.00648c-5.5625,0.16134 -10.98668,1.56527 -16.51448,2.00514c-4.9685,0.39536 -9.88868,0.21567 -14.86348,0.76194c-3.62955,1.14587 -7.07369,3.79446 -10.86403,4.71121c-1.82122,0.44049 -4.29177,0.07826 -6.17128,0.08988c-4.26658,0.02637 -9.52402,0.80602 -13.58,-0.52219c-2.17186,-0.97786 -4.65075,-2.32007 -6.68303,-3.46347c-1.26701,-0.71284 -2.02632,-2.01622 -3.51491,-2.53276c-2.29876,-0.79767 -4.76792,-0.19007 -6.92366,0.31086c-0.17826,0.04142 -0.34434,0.07698 -0.50043,0.10842c2.17865,1.14189 4.99707,2.02571 7.22082,2.57843c0,0 0.72761,0.1819 0.54571,0.90951c-0.1819,0.72761 -0.90951,0.54571 -0.90951,0.54571c-2.71164,-0.68156 -6.22122,-1.81613 -8.60749,-3.30665c-0.13501,-0.08433 -0.26263,-0.16968 -0.38441,-0.25565c-0.41358,0.15361 -0.8629,0.38624 -1.4528,0.78139l-1.6318,0.07452c0,0 -0.74974,0.01991 -0.76965,-0.72983z" fill="#a4e2f1" stroke-width="0.5"/><path d="M331.87317,315.05906c1.09715,-2.42112 3.2797,-4.66773 5.39188,-5.73452c2.05118,-1.03598 5.55769,-0.65398 7.79308,-0.67696c1.43004,-0.0147 2.37829,0.49025 3.22521,-0.71016c0.0636,-1.74479 -0.71247,-6.20934 0.21052,-7.63851c1.15462,-1.78783 5.47518,-2.07074 7.26169,-2.98916c4.95467,-2.54715 4.89348,-9.39701 4.89614,-14.06148c0.00379,-1.39834 -0.10992,-2.83913 -0.49285,-4.19653c-0.18466,-0.65456 -1.05052,-1.34578 -0.68761,-1.92097c0.40125,-0.63597 1.45275,-0.44479 2.20379,-0.48212c1.93477,-0.09615 4.00943,1.0084 5.90535,1.28472c1.77289,0.25839 3.67472,-1.09566 5.52849,-1.27062c2.5772,-0.24324 4.65248,1.83521 7.15007,1.25806c1.16418,-0.26902 2.68078,-1.5197 3.73179,-2.10243c2.98084,-1.76003 6.252,-3.11039 8.95092,-5.13392c0.79262,-0.59428 1.95237,-0.56877 2.72253,-1.19189c0.7845,-0.63472 1.18972,-1.68951 2.03399,-2.24223c0.76121,-0.49834 1.92081,-0.44494 2.46356,-1.17515c0.5894,-0.79298 -0.38387,-2.15425 0.19083,-2.95795c1.75473,-2.45389 7.26514,-1.36359 9.55815,-0.86494c2.43395,0.80073 4.43083,2.08794 6.85547,2.748c1.02293,0.27847 2.53665,1.82393 3.72402,1.3811c1.51481,-0.56495 0.37929,-2.80714 0.98306,-3.7376c0.35785,-0.55148 1.09326,-0.7449 1.69724,-1.0045c4.815,-2.0695 8.79293,1.35596 13.0038,3.17625c1.25155,0.08473 3.47985,-0.23649 4.6092,0.22284c0.88101,0.35833 1.4441,1.35656 2.36418,1.59745c1.64258,0.43006 4.1827,-0.29657 4.24029,2.42393c0.0655,3.09467 -2.06693,1.29197 -3.2265,2.95674c-1.34974,1.9378 -2.23966,4.35509 -2.90402,6.59936c-0.24358,0.82282 -0.93842,1.66664 -0.67661,2.48384c0.25369,0.79185 2.1189,2.10803 2.72178,2.77538c3.14411,0.0695 6.5037,0.13553 9.35281,-1.58438c2.47483,-1.49397 4.07837,-4.52403 6.45061,-6.19988c3.36641,-2.37816 7.87537,-4.38382 11.93464,-4.1197c1.57993,4.85837 0.93379,10.47327 0.93454,15.54065c0.00014,0.95972 -0.58427,4.58262 0.28494,5.24929c0.35719,0.27395 0.92893,0.0516 1.32355,0.2682c2.70288,1.48355 4.35367,3.62784 7.62143,4.00015c0.90603,0.55266 2.10635,0.63858 2.87271,1.37275c0.99671,0.95485 0.96719,3.08162 1.91719,4.1225c1.5786,1.7296 3.72922,1.42023 4.5182,4.15524c1.55452,5.38872 -1.67682,13.34729 2.27857,17.5765c-3.72122,2.2135 -8.3084,2.16419 -12.55712,2.20186c-6.50203,0.05764 -13.00419,0.04941 -19.50645,0.04953c-10.5,0.00018 -21.00001,0.00008 -31.50001,0.00008c-3.46904,-0.00848 -6.85737,1.16679 -10.35155,1.31749c-6.9878,0.30137 -14.03736,0.04677 -21.03167,0.04677c-10.50005,0 -20.90459,0.68213 -31.39243,0.68213c-5.02533,0 -9.90833,-0.14428 -14.87345,-0.54563c-1.42929,-0.11553 -3.22579,0.17072 -4.60651,-0.15326c-3.84123,-0.90134 -7.32121,-3.1473 -11.26852,-3.36024c-0.98346,-0.41028 -2.204,-0.21557 -3.09515,-0.79985c-0.76708,-0.50293 -1.26018,-2.06755 -1.47216,-3.72224c-0.15243,-0.27374 -0.13858,-0.62025 -0.09232,-0.97807c-0.0854,-1.39353 0.03008,-2.71541 0.35072,-3.38307c0.10749,-0.22382 0.28012,-0.39797 0.47804,-0.55285z" fill="#9edbe8" stroke-width="0.5"/><path d="M409.80239,269.27076c-0.65291,-0.07756 -1.13855,-0.2144 -1.27811,-0.44114c-0.37852,-0.615 0.42581,-1.38011 0.63871,-2.07017c0,0 0.3318,-0.66361 0.99541,-0.34075c0.09456,-0.04557 0.21191,-0.07384 0.35753,-0.07384c0.75,0 0.75,0.75 0.75,0.75l-0.00004,0.56739c0.29958,0.00655 0.60065,0.03422 0.89984,0.03533c2.02092,0.00746 3.8487,-0.13114 5.84539,-0.44326c5.56662,-0.87015 10.51117,-1.98159 15.81976,-3.87548c4.67679,-1.66849 9.04315,-4.10651 13.48728,-6.31529c0.9083,-0.45144 4.34898,-1.92211 4.83239,-2.63522c0.46343,-0.68365 -0.09265,-1.65011 -0.09266,-2.47604c-0.00002,-2.5 0,-5 0,-7.5c0.02722,-1.19098 0.56042,-3.66334 1.31128,-4.6119c0.78026,-0.98569 2.21761,-1.04475 3.30239,-1.21937c3.92149,-0.63127 8.12249,-0.24342 12.09335,-0.24342c0.80248,0 3.3938,0.46445 4.06238,0.14091c1.15951,-0.56111 -1.34741,-2.40128 -1.46745,-2.50043l-1.14439,-0.96122c-0.16605,-0.13757 -0.27183,-0.34534 -0.27183,-0.57783c0,-0.41421 0.33579,-0.75 0.75,-0.75c0.03423,0 0.06792,0.00229 0.10093,0.00673l1.47785,0.17762l-0.0085,0.07069c1.04067,-0.03799 2.08298,0.02504 3.10176,0.31026c1.3085,0.36633 2.51575,1.03718 3.98349,0.68656c1.96616,-0.46968 3.50568,-2.86422 5.80294,-2.0044c0.48326,0.18088 0.64692,0.84879 1.10738,1.08168c0.50927,0.25758 1.28666,-0.08489 1.68035,0.32828c0.22783,0.23911 0.60306,2.91029 0.67667,3.38684c0.4629,2.99723 0.4107,6.06532 0.41169,9.09366c0.00019,2.2911 0.68511,6.31427 -1.67518,7.82187c-0.35284,0.22537 -0.90562,-0.27221 -1.25531,-0.04199c-0.60389,0.39758 0.73987,1.24829 1.01505,1.91689c0.74793,1.81726 0.97144,6.01625 0.53033,7.931c-0.33056,1.43488 -1.64927,2.62825 -1.99697,4.04336c-0.47625,1.93829 -0.25784,5.17849 0.51886,6.95885c0.2348,0.88753 0.05557,1.97194 0.64197,2.67833c0.33508,0.40365 1.10061,0.32224 1.3719,0.77127c0.21462,0.35523 0.16757,2.81436 0.16759,3.29088c0.00012,2.64963 1.10786,8.64364 -0.91338,10.63784c-1.50062,1.48055 -4.0353,1.76114 -5.85564,2.22096c-2.36794,0.59815 -4.70538,1.39088 -7.17232,1.93241c-6.31583,1.3864 -14.70032,1.6886 -21.14702,0.82367c-3.41009,-0.45752 -6.50142,-3.15411 -9.70339,-4.30755c-0.26581,-0.09627 -2.91039,-1.04169 -3.03575,-1.14265c-0.78638,-0.63335 -0.85851,-1.89785 -1.62264,-2.55787c-1.31176,-1.13304 -4.26274,-3.13934 -6.00305,-3.58077c-3.1963,-0.81075 -6.96197,0.56508 -10.21913,-0.01083c-2.41776,-0.4275 -4.63712,-2.41443 -6.99467,-3.23554c-1.89706,-1.44835 -4.32689,-2.54541 -6.53099,-3.49097c-1.20376,-0.51641 -2.17553,-0.4455 -2.7423,-1.92788c-1.10993,-2.90304 1.43799,-4.09488 2.97108,-5.38349c0.55442,-0.466 0.48665,-1.91606 0.42515,-2.94401z" fill="#aef0ff" stroke-width="0.5"/><path d="M398.06471,325.29385c-0.00365,-0.03049 -0.00843,-0.06177 -0.01442,-0.0939c-0.18963,-1.01671 -1.20634,-0.82708 -1.20634,-0.82708c-1.42245,0.74172 -2.07601,-5.4419 -1.23517,-5.97762l1.10793,0.15313c0.11466,0.01859 0.23441,0.01803 0.35515,-0.00449c0.5615,-0.10473 0.93181,-0.64484 0.82708,-1.20635c-0.04339,-0.23259 -0.16145,-0.43236 -0.32482,-0.57916l-1.03407,-0.94971c-0.24815,-0.52575 -0.44352,-1.07028 -0.54694,-1.63775l-0.2342,-1.25626c0,0 -0.18964,-1.01671 -1.20635,-0.82708c-1.01671,0.18963 -0.82708,1.20635 -0.82708,1.20635l0.23989,1.28553c0.16233,0.67494 0.52115,1.4054 1.03387,1.9168c-0.72811,0.30062 -1.56384,0.48072 -2.0005,1.1078c-0.65106,0.93494 0.76628,5.88715 1.08656,7.02031c0.02631,0.09304 0.04666,0.19179 0.06394,0.29373l-5.73675,-0.55051c-0.03296,-1.62925 -0.0384,-3.08872 0.00313,-4.26357c0.09345,-2.64345 1.03971,-5.2211 1.04493,-7.86618c0.00508,-2.57027 -0.60008,-5.10714 -1.0143,-7.64381c-0.05591,-0.34239 -0.10633,-0.68672 -0.15236,-1.03261l44.90496,4.30916c-0.13405,1.77869 0.23963,3.60726 0.63149,5.35108c0.14597,0.64958 1.24615,0.89118 1.2511,1.55694c0.00332,0.44614 -0.93111,0.18829 -1.23569,0.51429c-0.37825,0.40485 -0.65426,0.88791 -0.92517,1.37584c-0.76664,-2.49925 -4.78388,-1.88429 -6.79904,-2.3202c-0.14238,-0.0308 -0.54875,-0.28767 -0.94906,-0.53342c0.8301,0.12887 1.66252,0.23949 2.49508,0.35489l1.07851,0.14949c0,0 1.02445,0.142 1.16645,-0.88245c0.142,-1.02445 -0.88246,-1.16645 -0.88246,-1.16645l-0.00004,-0.00002l-1.07851,-0.14949c-1.24749,-0.17292 -2.49343,-0.3442 -3.74433,-0.49107c-2.31407,1.26217 -2.12318,2.38544 -0.98889,3.26047c-0.00442,0.00196 -0.00883,0.00394 -0.01323,0.00592c-0.81643,0.36812 -0.72277,1.73683 -1.44678,2.26397c-2.10288,1.53105 -8.6893,-1.05247 -9.42081,-3.45201c-0.00754,-0.02474 0.27844,-2.33401 0.32091,-2.67923l0.17063,-0.0427c0,0 0.58516,-0.85279 -0.26764,-1.43795c-0.8528,-0.58515 -1.43795,0.26764 -1.43795,0.26764l-0.51812,0.96106c-0.66222,5.40964 3.37809,8.30749 8.50966,8.52011c0.73919,0.03062 3.95683,-0.56527 4.08351,-0.65214c0.5446,-0.37352 0.13157,-1.65309 0.76895,-1.82584c1.79493,-0.4865 4.2157,-0.10455 6.06001,0.15109c0,0 0.17869,0.02477 0.39716,-0.02102c0.29743,0.0746 0.50913,0.17937 0.51932,0.3279c0.26765,3.90869 -6.82431,2.35032 -7.16014,5.75689c-0.01307,0.13258 2.30959,2.18558 3.53446,3.26813c0.08382,0.66339 0.19141,1.27151 0.32154,1.82964z" fill="#4b2d26" stroke-width="0"/><path d="M435.20712,328.45041l16.25805,-57.42589c0.04442,0.0009 0.08889,0.00169 0.13341,0.0024c1.1689,0.6084 2.86818,0.85102 4.29886,0.47062c0.61701,0.4443 1.47319,0.53178 2.36705,0.45899c1.03981,0.43415 2.04422,0.80631 3.46708,0.49763c0.4228,-0.17255 0.8168,0.43479 1.26355,0.5294c0.41604,0.08811 2.20791,-0.03035 3.5803,-0.2267l-15.64243,55.25143c-3.98402,-2.24611 -6.20817,-0.74832 -9.89884,0.93459c-0.28314,0.12911 -0.54456,0.32277 -0.80952,0.50184l-0.02682,0.00733l0.02614,-0.23526l-5.03616,-0.55957c0.0065,-0.06893 0.01294,-0.13787 0.01932,-0.20682z" fill="#53322a" stroke-width="0"/><path d="M453.76941,287.79307c-0.72165,-0.2043 -0.51732,-0.92594 -0.51732,-0.92594l0.10754,-0.3799c0.45292,-1.59976 0.92742,-2.52632 0.39507,-4.17623c0.37137,-1.38828 -0.0606,-2.97492 0.80817,-4.31551c1.21765,-1.87896 1.74652,-3.37669 2.39647,-5.67244c0.06058,-0.21395 0.11981,-0.42947 0.17807,-0.6463c0.54553,0.01682 1.09469,-0.0343 1.61054,-0.16526c-0.00754,0.02684 -0.01509,0.05365 -0.02267,0.08044c-0.76313,2.69552 -1.35574,4.96937 -2.88766,7.19414c-0.71166,1.03353 -0.25625,2.41088 -0.58317,3.49779c0.56134,1.73979 0.0261,2.92491 -0.45154,4.612l-0.10756,0.37991c0,0 -0.2043,0.72163 -0.92595,0.51734z" fill="#724539" stroke-width="0.5"/><path d="M451.52929,326.36337c0.25808,-0.94614 1.29382,-2.25564 0.99602,-3.18055c-0.20168,-0.6264 -0.88022,-0.99313 -1.19696,-1.56995c-0.27025,-5.13397 1.4649,-9.69883 2.83715,-14.78062c0.85073,-3.15048 1.40706,-6.4196 2.3114,-9.61384c0.8318,-2.93809 1.66363,-5.87618 2.49545,-8.81426c0.22963,-0.81106 0.56115,-2.82315 1.03656,-3.54316c1.256,-1.9022 2.94047,-4.6255 3.58061,-6.96759c0,0 0.20431,-0.72163 0.92595,-0.51734c0.72165,0.2043 0.51733,0.92594 0.51733,0.92594c-0.70058,2.40626 -2.39794,5.43624 -3.76096,7.36829c-0.38321,0.54319 -0.70022,2.59144 -0.85622,3.14247c-0.8318,2.93809 -1.66365,5.87617 -2.49545,8.81426c-0.90461,3.19522 -1.47082,6.43832 -2.30665,9.59671c-1.26432,4.77752 -3.01057,9.18242 -2.84263,13.97796c1.3843,2.40603 1.05314,2.6241 0.25695,5.22776l0.15234,0.69436c0,0 0.05034,0.26493 -0.06823,0.50726c-0.51247,-0.2433 -0.99626,-0.42176 -1.4594,-0.54427z" fill="#724539" stroke-width="0.5"/><path d="M406.68366,330.96003c-0.0106,-0.02883 -0.02248,-0.05815 -0.03573,-0.08802c-0.41939,-0.9454 -1.36478,-0.52601 -1.36478,-0.52601c-1.21262,1.05027 -3.27706,-4.81509 -2.58272,-5.53056l1.11333,-0.10696c0.11585,-0.0084 0.23223,-0.03661 0.34451,-0.08642c0.52212,-0.23161 0.75764,-0.84266 0.52601,-1.36478c-0.09594,-0.21628 -0.25697,-0.38337 -0.44983,-0.48845l-1.2255,-0.68512c-0.3629,-0.4542 -0.67878,-0.93886 -0.91051,-1.46709l-0.51808,-1.16817c0,0 -0.41939,-0.9454 -1.36478,-0.52601c-0.9454,0.41939 -0.52601,1.36478 -0.52601,1.36478l0.53038,1.19533c0.31386,0.61918 0.83173,1.24698 1.44873,1.6261c-0.63896,0.4607 -1.41048,0.829 -1.69045,1.54c-0.41745,1.06006 2.10561,5.55086 2.67902,6.57938c0.04709,0.08444 0.0897,0.17583 0.13006,0.27101l-5.70874,0.7897c-0.40846,-1.57757 -0.75093,-2.99629 -0.98193,-4.14896c-0.51977,-2.59353 -0.19461,-5.32005 -0.8006,-7.8948c-0.58885,-2.50191 -1.76371,-4.83035 -2.75275,-7.20271c-0.1335,-0.32021 -0.2621,-0.64357 -0.3868,-0.96948l44.68572,-6.18147c0.28049,1.76155 1.06651,3.45432 1.85063,5.06044c0.29208,0.59829 1.41832,0.57918 1.57695,1.22578c0.1063,0.4333 -0.86242,0.39831 -1.08345,0.78585c-0.27448,0.48128 -0.43143,1.01504 -0.58229,1.55235c-1.32328,-2.25453 -5.08979,-0.72813 -7.15113,-0.6867c-0.14565,0.00292 -0.60037,-0.15312 -1.04662,-0.29974c0.83742,-0.06639 1.67287,-0.15107 2.50958,-0.23113l1.08388,-0.10371c0,0 1.02954,-0.09851 0.93103,-1.12806c-0.09851,-1.02954 -1.12806,-0.93103 -1.12806,-0.93103l-0.00004,-0.00001l-1.08388,0.10371c-1.2537,0.11996 -2.5055,0.24116 -3.75649,0.38724c-1.95988,1.76263 -1.51466,2.81141 -0.2089,3.40073c-0.00385,0.00293 -0.00768,0.00587 -0.0115,0.00882c-0.7093,0.54678 -0.30197,1.85682 -0.88461,2.53696c-1.69229,1.97544 -8.69738,0.98343 -9.96345,-1.18221c-0.01305,-0.02233 -0.2683,-2.3352 -0.30673,-2.68089l0.15615,-0.08096c0,0 0.37231,-0.96491 -0.5926,-1.33722c-0.96491,-0.37231 -1.33722,0.5926 -1.33722,0.5926l-0.28208,1.05475c0.60545,5.41629 5.20593,7.30235 10.2478,6.32371c0.72627,-0.14098 3.71921,-1.4641 3.82238,-1.57788c0.44358,-0.48923 -0.25389,-1.63876 0.32634,-1.9541c1.63398,-0.88801 4.0775,-1.07565 5.93098,-1.253c0,0 0.17958,-0.01718 0.38156,-0.1122c0.30662,0.00387 0.5368,0.0569 0.58102,0.19906c1.1634,3.74112 -6.09673,3.86331 -5.63648,7.25531c0.01791,0.13201 2.75203,1.59289 4.19386,2.36318c0.23481,0.62608 0.47997,1.1929 0.73553,1.70586z" fill="#653d33" stroke-width="0"/><path d="M434.15128,322.09732c0.15973,-0.09269 0.3255,-0.20445 0.48898,-0.32128c-0.03165,0.17638 -0.04889,0.35404 -0.04955,0.5332c-0.15216,-0.07688 -0.29983,-0.14839 -0.43943,-0.21192z" fill="#653d33" stroke-width="0"/><path d="M422.96455,314.78807c0.17682,-0.05328 0.36393,-0.12372 0.54998,-0.19962c-0.07154,0.16429 -0.12936,0.33317 -0.1714,0.50733c-0.13028,-0.10996 -0.25744,-0.21365 -0.37858,-0.3077z" fill="#4b2d26" stroke-width="0"/><path d="M369.98709,320.33514c2.14108,0.02652 2.59864,2.07344 4.52403,2.67949c0.03303,0.0104 2.53171,0.41185 2.67801,0.78197c0.14312,0.36203 -0.12059,0.81283 0.04066,1.16714c0.55958,1.22953 2.99039,1.32562 1.70225,1.51378l-0.6111,-0.31128c-0.36908,-0.188 -0.82071,-0.0412 -1.00871,0.32788c-0.14612,0.28686 -0.09,0.62357 0.11554,0.84763l0.74879,0.85516l0.16261,-0.14238c0.2323,0.28873 0.50178,0.53546 0.82511,0.70571l0.76388,0.3891c0,0 0.6683,0.34041 1.00871,-0.32788c0.34042,-0.6683 -0.32788,-1.00871 -0.32788,-1.00871l-0.42859,-0.21831c2.52402,-1.6333 -1.11779,-1.94021 -1.60787,-3.2993c-0.1507,-0.41792 0.09669,-0.94556 -0.13241,-1.32619c-0.56549,-0.93953 -2.58785,-1.12662 -3.44015,-1.37241c-2.05863,-0.59368 -2.53323,-2.69614 -5.10674,-2.76104c0,0 -0.57849,-0.00432 -0.72314,0.50268l-10.9592,-13.37349c0.35122,-0.63259 0.42802,-1.44509 0.87786,-2.02018c0.3159,-0.40385 0.8777,0.7927 1.37847,0.68256c0.36933,-0.08123 0.3441,-0.67854 0.57526,-0.97783c0.17496,-0.22652 0.13128,0.57759 0.31097,0.80037c0.5856,0.72604 1.04128,1.77298 1.94224,2.01448c0.6265,0.16793 1.39365,-0.2901 1.94516,0.05127l0.38194,0.19455c0,0 0.66829,0.34041 1.00871,-0.32788c0.34042,-0.6683 -0.32788,-1.00871 -0.32788,-1.00871l-0.38193,-0.19455c-0.6923,-0.3111 -1.51201,-0.14355 -2.27047,-0.17193c-0.19561,-0.00732 -1.20803,-1.98821 -1.55725,-2.22273c-0.44714,-0.30028 -0.9864,-0.6638 -1.51518,-0.56138c-0.33153,0.06422 -0.10659,0.76034 -0.39749,0.93186c-0.17323,0.10214 -0.06369,-0.49414 -0.25818,-0.54526c-0.52042,-0.13678 -1.15317,-0.22543 -1.61341,0.05337c-0.72866,0.44141 -0.76988,1.37441 -1.08884,2.09391l-3.38561,-4.13146l11.6103,-9.51433l8.05151,9.82522c0.15049,1.69713 2.13601,3.46164 2.84625,4.4371c0.16214,0.22268 -3.14066,1.0492 -3.4019,1.99087c-0.15897,0.57306 -0.02276,1.2477 0.27429,1.76289c0.1784,0.30939 0.55409,0.442 0.90506,0.56985c-0.30304,0.01051 -0.57683,0.09102 -1.05733,0.17393l-0.66224,0.95715c0,0 -0.11133,0.74168 0.63036,0.85301c0.47362,0.07109 0.69018,-0.20565 0.78488,-0.41498c0.93476,-0.15717 2.35836,-0.44169 2.5652,-1.14171c0.12499,-0.42302 -2.08627,-2.15208 -2.04767,-2.20265c0.77418,-1.01443 3.06928,-0.42527 3.5027,-1.68989l20.48491,24.99767c-0.7142,0.00417 -1.4249,0.00417 -2.13033,0.0033c-5.75849,-0.00707 -11.51702,-0.00419 -17.27553,-0.00187z" fill="#653d33" stroke-width="0"/><path d="M371.60279,319.01705c-0.84584,-2.0731 -1.77255,-3.36309 -3.28489,-5.20857c-2.24897,-2.74442 -5.02131,-5.4391 -6.54972,-8.65087c0,0 -0.04471,-0.09459 -0.0654,-0.22983c0.44221,0.64392 0.87698,1.34442 1.5929,1.53631c0.291,0.07799 0.61235,0.02095 0.92833,-0.02831c1.3125,1.95562 3.03649,3.71581 4.50329,5.50575c1.77567,2.16685 3.30278,3.95275 4.25277,6.48136c0.44133,1.17467 1.83182,1.58822 2.53685,2.4777c1.04807,0.31995 1.70739,0.84932 2.30681,1.51419c-0.84596,-0.4778 -2.17444,-0.63099 -2.82377,-0.81825c-1.42908,-0.41212 -2.09481,-1.55133 -3.22926,-2.23127c-0.06183,-0.11031 -0.1181,-0.22611 -0.16792,-0.34823z" fill="#724539" stroke-width="0.5"/><path d="M365.1779,292.71125l-0.02004,-0.01702c-0.11653,0.28994 -0.14515,0.62173 -0.11999,0.93173c0.04262,1.04264 0.16057,2.13065 -0.73609,2.90918c-0.39006,0.33868 -1.13412,0.0791 -1.47868,0.46399c-0.50267,0.56149 -0.5528,1.66313 -1.27911,1.86424c-0.67631,0.18727 -1.91412,-1.1891 -2.89459,-0.58571c-0.93826,0.5774 -0.98854,2.01551 -2.11777,2.5738c-0.87288,0.43156 -1.23276,-0.1114 -1.73747,0.17115c-0.05973,0.18126 -0.2015,0.365 -0.51593,0.4486c-0.53115,0.14123 -0.77657,-0.21027 -0.8698,-0.40818c-0.10386,-0.15447 -0.13561,-0.29999 -0.12783,-0.42923c-1.36451,-5.27391 -1.8139,-10.71947 -2.97716,-16.04154c-0.11411,-0.09364 -0.21152,-0.23377 -0.23372,-0.44277c-0.03073,-0.14125 -0.02628,-0.31008 0.07526,-0.47879c0.08411,-0.17803 0.22215,-0.27533 0.35674,-0.32808c0.20187,-0.10553 0.38542,-0.09269 0.533,-0.03929c4.99673,0.71375 9.46708,5.50748 14.29512,6.95884l0.69676,0.46359c0,0 0.60188,0.44748 0.1544,1.04936c-0.14843,0.19964 -0.31383,0.28382 -0.46863,0.30719zM361.02797,296.6521c-0.06493,0.03904 -0.13045,0.07755 -0.1965,0.11557c0.04324,0.01838 0.0869,0.03552 0.13111,0.05103c0.00635,0.00222 0.02749,-0.06316 0.06539,-0.16661z" fill="#9c5f4e" stroke-width="0.5"/><path d="M351.99392,291.95753c-0.03569,0.00444 -0.07342,0.007 -0.11329,0.00746c-0.74993,0.00883 -0.75876,-0.74113 -0.75876,-0.74113c-0.02074,-1.76637 -0.24022,-3.56353 -0.39418,-5.32062c-0.04592,-0.52409 -0.54086,-1.89271 -0.13723,-2.33116c0.34328,-0.37291 0.99116,-0.32337 1.49566,-0.27431c1.26119,0.12266 1.18294,0.55841 1.99842,1.12098c1.3672,0.94315 6.17435,1.67095 2.82592,4.00943c1.55954,2.54886 -2.69042,2.70074 -4.04047,3.45667l0.005,0.01155c0,0 -0.44927,0.36817 -0.88106,0.06112z" fill="#bc7f6d" stroke-width="0.5"/><path d="M355.43196,327.01771c0.05684,-0.50332 -0.13849,-1.14048 -0.22792,-2.07676c-0.04823,-0.50494 0.14525,-1.02189 0.0535,-1.52075c-0.03192,-0.17352 -0.55866,-0.27786 -0.39745,-0.3495c0.77335,-0.34368 2.2851,0.59737 2.86878,0.70485c0.64106,0.11805 1.37316,0.29903 1.95548,0.00616c0.3045,-0.15313 -0.17141,-0.77203 0.06174,-1.02066c0.3505,-0.37375 2.42199,1.38808 3.3184,0.45872c0.42224,-0.43775 0.15397,-1.20662 0.23095,-1.80992l-0.79436,-0.94058c0,0 -0.50997,-0.54994 -1.0599,-0.03997c-0.54994,0.50997 -0.03997,1.0599 -0.03997,1.0599l0.48778,0.44205c0.36347,0.44074 -0.98701,-0.39045 -1.17252,-0.40514c-0.66288,-0.05249 -1.40898,-0.18779 -1.9903,0.13507c-0.285,0.1583 0.20321,0.73449 -0.01364,0.97792c-0.48916,0.54916 -1.28759,-0.75049 -2.00086,-0.92964c-0.75429,-0.18946 -2.80926,0.24853 -3.14264,0.59758c-0.69863,0.73148 0.7842,3.2693 0.4728,4.25345l-9.44331,-3.10598l4.68998,-14.25923l10.30595,3.38971c0.17784,0.38977 0.6565,0.40782 0.6565,0.40782l0.55508,-0.00934l0.7001,0.23027c0.68048,0.75619 2.17912,2.22762 3.53802,3.17264c-0.00117,0.01304 -0.00201,0.02618 -0.00251,0.03941c-0.01065,0.2825 0.13637,0.53439 0.36239,0.67082l0.87767,0.55193l0.01585,-0.02521l0.05017,0.06221c1.70337,0.63922 3.05829,1.61314 4.58312,2.60806c0,0 0.62812,0.40983 1.03795,-0.21828c0.40983,-0.62812 -0.21828,-1.03795 -0.21828,-1.03795c-0.98854,-0.645 -1.91441,-1.28483 -2.90287,-1.83513c-0.00231,-0.32267 -0.20994,-0.60007 -0.50237,-0.70221l-0.93809,-0.35251c-0.77707,-0.58285 -1.54538,-1.15747 -2.29766,-1.74861l17.9903,5.91716c-0.21067,1.59821 -0.54271,3.21185 -0.46816,4.80014c0.03637,0.77487 0.11963,1.59049 0.23068,2.43652c-1.09445,0.50489 -2.48843,0.36414 -3.51675,1.01294l-3.10098,0.90405c-1.48178,0.41464 -2.75291,1.50536 -3.33623,3.0559c-0.02693,0.07158 -0.05211,0.14338 -0.07556,0.21537z" fill="#653d33" stroke-width="0"/><path d="M353.49048,321.98667c0.40013,-0.63436 1.03447,-0.23421 1.03447,-0.23421c0.06039,0.03834 0.12113,0.07615 0.18224,0.11344c-0.53687,0.12584 -0.99538,0.29163 -1.13815,0.4411c-0.08308,0.087 -0.13533,0.19955 -0.16339,0.332c-0.06932,-0.17012 -0.07976,-0.39141 0.08483,-0.65234z" fill="#724539" stroke-width="0.5"/><path d="M362.36099,317.65713c0.12754,0.05156 0.6581,0.30794 0.4513,0.93667c-0.23433,0.71246 -0.94678,0.47812 -0.94678,0.47812l-0.88279,-0.72678c-0.11305,-1.30608 -1.02161,-0.74157 -2.24616,-1.13364c-3.19528,-1.02307 -6.64668,-0.98976 -9.74694,-1.9589c0,0 -0.71246,-0.23433 -0.47812,-0.94678c0.23433,-0.71246 0.94678,-0.47812 0.94678,-0.47812c3.00769,1.05576 6.59319,0.88959 9.74694,1.95891c1.60841,0.54535 2.67524,0.1314 3.15575,1.87054z" fill="#724539" stroke-width="0.5"/><path d="M349.92163,310.68933l-0.02606,-0.00362c0.05729,0.3072 0.21121,0.60249 0.39884,0.85057c0.59554,0.85687 1.27902,1.71159 0.9403,2.84973c-0.14736,0.49512 -0.91447,0.67544 -0.99863,1.18513c-0.12278,0.74354 0.42618,1.70001 -0.0787,2.25949c-0.47015,0.521 -2.25328,0.02401 -2.75671,1.05934c-0.48177,0.99076 0.24764,2.23117 -0.40552,3.30831c-0.50489,0.83263 -1.09996,0.56763 -1.37417,1.07693c0.04689,0.18501 0.0259,0.41612 -0.19455,0.65541c-0.37237,0.40423 -0.76808,0.23937 -0.95297,0.12241c-0.17053,-0.07459 -0.27543,-0.18035 -0.33822,-0.29356c-3.98187,-3.7176 -7.28374,-8.0712 -11.12166,-11.93747c-0.14654,-0.01778 -0.30395,-0.08374 -0.43484,-0.24814c-0.10173,-0.1027 -0.1886,-0.24754 -0.19345,-0.44437c-0.02459,-0.19536 0.03967,-0.35153 0.12492,-0.46827c0.1137,-0.1974 0.27546,-0.28507 0.42863,-0.31923c4.59915,-2.07955 10.94393,-0.43402 15.79663,-1.80068l0.83673,0.0172c0,0 0.74802,0.05454 0.69347,0.80256c-0.01809,0.24811 -0.11248,0.40792 -0.23055,0.51072zM348.53513,316.24179c-0.03385,0.06779 -0.06844,0.13544 -0.10378,0.20298c0.04636,-0.00769 0.09238,-0.01666 0.138,-0.02731c0.00654,-0.00154 -0.01071,-0.06805 -0.03424,-0.17568z" fill="#9c5f4e" stroke-width="0.5"/><path d="M338.39286,317.12932c-0.02773,0.0229 -0.0582,0.04532 -0.09159,0.06712c-0.62804,0.40995 -1.038,-0.21811 -1.038,-0.21811c-0.96552,-1.47928 -2.11526,-2.87786 -3.18823,-4.27781c-0.32003,-0.41756 -1.47219,-1.30671 -1.36695,-1.89331c0.08952,-0.4989 0.66276,-0.80482 1.11477,-1.03418c1.12998,-0.57339 1.29783,-0.16371 2.28785,-0.12673c1.6598,0.06202 6.10652,-1.90394 4.53631,1.86632c2.68389,1.31362 -0.82057,3.72278 -1.55399,5.08519l0.01042,0.00707c0,0 -0.18149,0.55177 -0.71061,0.52444z" fill="#bc7f6d" stroke-width="0.5"/><path d="M450.64833,330.91972c-0.02346,-0.07199 -0.04863,-0.1438 -0.07556,-0.21537c-0.58332,-1.55054 -1.85444,-2.64125 -3.33623,-3.05589l-3.10098,-0.90406c-1.02832,-0.6488 -2.42229,-0.50806 -3.51674,-1.01295c0.11104,-0.84603 0.1943,-1.66165 0.23067,-2.43652c0.07455,-1.58828 -0.2575,-3.20192 -0.46816,-4.80014l17.9903,-5.91716c-0.75228,0.59114 -1.5206,1.16575 -2.29767,1.7486l-0.93809,0.35251c-0.29242,0.10213 -0.50005,0.37953 -0.50236,0.7022c-0.98845,0.5503 -1.91432,1.19012 -2.90286,1.83513c0,0 -0.62812,0.40983 -0.21829,1.03795c0.40983,0.62812 1.03795,0.21829 1.03795,0.21829c1.52483,-0.99493 2.87975,-1.96884 4.58312,-2.60807l0.05017,-0.06221l0.01585,0.02521l0.87767,-0.55193c0.22602,-0.13644 0.37305,-0.38832 0.36239,-0.67082c-0.0005,-0.01323 -0.00133,-0.02637 -0.0025,-0.03941c1.3589,-0.94502 2.85754,-2.41645 3.53802,-3.17264l0.7001,-0.23027l0.55508,0.00934c0,0 0.47866,-0.01805 0.6565,-0.40782l10.30595,-3.38971l4.68998,14.25923l-9.4433,3.10598c-0.3114,-0.98415 1.17143,-3.52197 0.4728,-4.25345c-0.33337,-0.34905 -2.38835,-0.78704 -3.14263,-0.59758c-0.71326,0.17915 -1.5117,1.4788 -2.00086,0.92964c-0.21685,-0.24343 0.27136,-0.81962 -0.01364,-0.97791c-0.58132,-0.32286 -1.32742,-0.18756 -1.9903,-0.13507c-0.18551,0.01469 -1.53598,0.84588 -1.17251,0.40515l0.48777,-0.44206c0,0 0.50997,-0.54993 -0.03998,-1.0599c-0.54994,-0.50997 -1.0599,0.03997 -1.0599,0.03997l-0.79436,0.94058c0.07698,0.6033 -0.19128,1.37217 0.23095,1.80992c0.89641,0.92937 2.96789,-0.83247 3.3184,-0.45873c0.23314,0.24863 -0.24277,0.86753 0.06173,1.02065c0.58233,0.29287 1.31443,0.1119 1.95549,-0.00616c0.58368,-0.10748 2.09542,-1.04854 2.86877,-0.70485c0.16121,0.07164 -0.36553,0.17598 -0.39745,0.3495c-0.09175,0.49887 0.10173,1.01582 0.0535,1.52076c-0.08943,0.93628 -0.28477,1.57345 -0.22792,2.07677z" data-paper-data="{&quot;index&quot;:null}" fill="#653d33" stroke-width="0"/><path d="M470.07552,320.81772c-0.02805,-0.13245 -0.0803,-0.245 -0.16339,-0.332c-0.14276,-0.14947 -0.60128,-0.31527 -1.13815,-0.4411c0.0611,-0.03729 0.12185,-0.07511 0.18223,-0.11345c0,0 0.63434,-0.40015 1.03447,0.23421c0.16458,0.26093 0.15415,0.48222 0.08483,0.65234z" data-paper-data="{&quot;index&quot;:null}" fill="#724539" stroke-width="0.5"/><path d="M461.12019,315.83587c0.48051,-1.73914 1.54734,-1.32519 3.15575,-1.87054c3.15375,-1.06932 6.73924,-0.90316 9.74694,-1.95891c0,0 0.71245,-0.23434 0.94678,0.47812c0.23434,0.71245 -0.47812,0.94678 -0.47812,0.94678c-3.10026,0.96914 -6.55167,0.93583 -9.74694,1.9589c-1.22455,0.39207 -2.13311,-0.17244 -2.24616,1.13364l-0.88279,0.72679c0,0 -0.71245,0.23433 -0.94678,-0.47812c-0.20679,-0.62873 0.32375,-0.88511 0.4513,-0.93667z" data-paper-data="{&quot;index&quot;:null}" fill="#724539" stroke-width="0.5"/><path d="M473.44605,308.0505c-0.11808,-0.1028 -0.21246,-0.26261 -0.23055,-0.51072c-0.05455,-0.74802 0.69347,-0.80255 0.69347,-0.80255l0.83673,-0.0172c4.8527,1.36665 11.19748,-0.27887 15.79663,1.80068c0.15317,0.03415 0.31494,0.12183 0.42863,0.31923c0.08526,0.11674 0.14951,0.27291 0.12493,0.46827c-0.00486,0.19684 -0.09172,0.34168 -0.19345,0.44438c-0.1309,0.16441 -0.2883,0.23036 -0.43484,0.24814c-3.83791,3.86626 -7.13979,8.21987 -11.12165,11.93747c-0.0628,0.11321 -0.1677,0.21898 -0.33822,0.29357c-0.18489,0.11696 -0.5806,0.28182 -0.95297,-0.12241c-0.22044,-0.2393 -0.24144,-0.4704 -0.19455,-0.65541c-0.27421,-0.5093 -0.86928,-0.24429 -1.37417,-1.07693c-0.65317,-1.07714 0.07624,-2.31754 -0.40553,-3.30831c-0.50343,-1.03533 -2.28656,-0.53834 -2.75671,-1.05935c-0.50489,-0.55948 0.04408,-1.51594 -0.0787,-2.25949c-0.08416,-0.50969 -0.85127,-0.69001 -0.99863,-1.18513c-0.33873,-1.13814 0.34475,-1.99285 0.94029,-2.84973c0.18763,-0.24807 0.34155,-0.54337 0.39884,-0.85057l-0.02605,0.00362zM474.94604,314.42051c-0.02353,0.10763 -0.04077,0.17414 -0.03423,0.17568c0.04562,0.01065 0.09164,0.01961 0.138,0.02731c-0.03533,-0.06754 -0.06993,-0.13518 -0.10377,-0.20297z" data-paper-data="{&quot;index&quot;:null}" fill="#9c5f4e" stroke-width="0.5"/><path d="M485.08831,315.30804c-0.52913,0.02733 -0.71061,-0.52444 -0.71061,-0.52444l0.01041,-0.00707c-0.73342,-1.36241 -4.23788,-3.77156 -1.55399,-5.08519c-1.57021,-3.77026 2.87651,-1.8043 4.53631,-1.86632c0.99002,-0.03699 1.15787,-0.44666 2.28785,0.12673c0.45201,0.22936 1.02525,0.53528 1.11477,1.03418c0.10525,0.5866 -1.04692,1.47575 -1.36695,1.89331c-1.07297,1.39995 -2.2227,2.79853 -3.18822,4.27781c0,0 -0.40995,0.62807 -1.03799,0.21811c-0.03339,-0.0218 -0.06386,-0.04422 -0.09159,-0.06712z" data-paper-data="{&quot;index&quot;:null}" fill="#bc7f6d" stroke-width="0.5"/></g></g></svg>