<svg version="1.1" xmlns="http://www.w3.org/2000/svg" xmlns:xlink="http://www.w3.org/1999/xlink" width="191.547" height="149.31165" viewBox="0,0,191.547,149.31165"><g transform="translate(-164.49226,-82.42687)"><g data-paper-data="{&quot;isPaintingLayer&quot;:true}" fill-rule="nonzero" stroke-linejoin="miter" stroke-miterlimit="10" stroke-dasharray="" stroke-dashoffset="0" style="mix-blend-mode: normal"><g data-paper-data="{&quot;index&quot;:null}" stroke="none" stroke-width="0.5" stroke-linecap="butt"><path d="M318.4486,144.83812c6.37316,-2.66122 11.89915,-0.92815 16.90528,-6.16798c0.02984,-0.55729 0.28259,-1.17403 1.01376,-1.72241c1.95549,-1.46661 3.4221,0.48887 3.4221,0.48887c1.59456,2.12606 5.00127,5.46809 5.90686,7.71592c1.65851,4.11675 -1.40584,9.97202 -0.4647,13.78082c0.36421,1.47393 2.71066,1.43034 3.84996,2.43388c6.63886,5.84769 11.27217,17.95891 0.72112,21.81396c-7.11981,2.84158 -14.92548,2.01055 -21.75011,4.55235c-1.94017,0.72261 -7.52837,3.83395 -9.39089,2.9864c-4.06192,-1.84836 -2.81874,-10.84124 -3.88512,-14.11916c-1.70495,-5.24082 -6.21896,-6.11578 -10.20412,-9.35258c-2.24412,-4.39642 -2.56673,-7.33982 -2.56673,-12.15886l-0.6011,-0.16156c0,0 -1.35588,-2.03382 0.67795,-3.38972c0.67511,-0.45007 1.27552,-0.52665 1.77644,-0.4281c0.59202,-1.34688 2.23491,-1.34688 2.23491,-1.34688l0.08939,0.07298c4.47992,-1.1194 8.03861,-3.23312 12.26503,-4.99793z" fill="#d10000"/><path d="M316.98272,187.76594c-0.22193,-0.1773 -0.44955,-0.37841 -0.68336,-0.60514c-1.48261,-1.43767 -0.5388,-8.17667 -1.75579,-10.57887c-3.59557,-7.0972 -13.53056,-10.00482 -13.71064,-19.39053c-0.08506,-4.43328 8.9312,-11.53047 13.5051,-10.23719c1.3646,0.38584 2.02461,1.98619 3.03693,2.97928c1.72153,4.17684 2.57876,8.87085 4.83881,12.79381c2.42283,4.20547 5.90854,7.63222 8.58042,11.65988c1.58834,2.3943 4.31005,6.89471 2.76725,9.94574c-1.20489,2.3828 -10.56059,5.16882 -13.17167,6.37227c0,0 -2.22527,1.01149 -3.23674,-1.21377c-0.31352,-0.6898 -0.31607,-1.26295 -0.17026,-1.7255z" fill="#c00000"/><path d="M339.22101,135.49486c1.22275,2.24144 -1.08154,3.43084 -1.08154,3.43084l-2.8502,1.47082c-5.97616,3.29204 -11.74021,3.54047 -18.00583,5.85825c-6.38918,2.36348 -13.08185,7.39465 -19.03011,10.75318c-5.94683,3.35771 -11.7436,7.87922 -17.86984,10.81024c-2.32417,1.11197 -4.97265,1.622 -7.11502,3.03791c0,0 -2.17049,1.40754 -3.61749,-0.70376c-1.447,-2.1113 0.72349,-3.51882 0.72349,-3.51882c2.35738,-1.50576 5.18063,-2.17444 7.71682,-3.37419c7.30353,-3.45495 14.15495,-8.82245 21.28158,-12.75122c5.06815,-2.79396 10.59054,-6.94982 15.97758,-8.96708c6.04693,-2.26438 11.71063,-2.38327 17.42151,-5.5896l2.92199,-1.50858c0,0 2.30429,-1.18941 3.52703,1.05203z" fill="#515151"/><path d="M326.61373,158.55731c0.39706,1.07698 -0.6653,1.69785 -0.6653,1.69785l-0.16141,0.09431c-1.88965,1.08784 -3.70416,1.10894 -5.61686,1.74122c-0.90439,0.29895 1.79633,1.07622 2.04526,1.99563c0.16692,0.61653 -0.83075,0.99409 -1.0825,1.58109c-0.25541,0.59552 1.29101,0.43912 1.70119,0.94076c0.59382,0.72623 1.34062,1.52072 1.36982,2.45834c0.01785,0.57395 -0.98564,0.67198 -1.25667,1.1782c-0.20153,0.37637 0.34704,0.79492 0.62859,1.11586c0.2441,0.27823 3.42128,-1.88974 3.74914,-2.08134c0,0 0.29622,-0.17312 0.68528,-0.20777c0.78419,-0.40893 1.54986,0.21422 1.54986,0.21422c0.94276,0.76937 2.14073,2.0865 3.51334,1.97827c1.88747,-0.14881 5.45057,-3.09297 5.57398,-5.07576c0.25196,-4.04842 -2.86227,-8.90624 -6.05471,-10.86114c-2.65162,-0.38748 -6.00727,-0.89833 -5.90925,2.5647zM333.38589,174.1643c-2.11472,0.12472 -3.55208,-0.90347 -5.0247,-2.09337c-1.13221,0.74353 -2.85562,2.05418 -3.91037,2.1659c-3.32497,0.3521 -5.41693,-3.56618 -3.13867,-5.55474c0.53541,-0.46732 -1.4997,-0.34481 -1.92676,-0.91284c-0.54916,-0.73041 -1.13727,-1.5778 -1.14355,-2.49164c-0.00096,-0.14152 0.09349,-0.21798 0.2302,-0.26882c-1.59137,-1.45293 -1.76326,-3.47142 -0.18974,-5.14209c0.8234,-0.87422 3.81791,-1.14799 5.46107,-1.76952l0.02307,-0.17705c0.01987,-5.8814 5.19217,-6.17746 9.82751,-5.33312c4.30803,2.49235 8.41649,8.43372 7.95928,13.85908c-0.27539,3.26805 -4.83404,7.5217 -8.16734,7.71829zM319.36435,164.70402c0.10775,-0.1153 -0.05997,0.02045 -0.28186,0.15552c0.11279,-0.03491 0.21315,-0.08201 0.28186,-0.15552z" fill="#cfcfcf"/><path d="M330.51522,164.88078c0.89331,-1.94064 4.38271,-2.68512 5.77739,-0.1887c1.28157,2.294 -0.50264,4.17416 -2.63895,4.51316c-0.52127,0.08276 -1.66875,-0.50579 -2.576,-1.02004c-0.05767,-0.02708 -0.11469,-0.05919 -0.17024,-0.09719c-0.33928,-0.195 -0.63395,-0.37158 -0.83317,-0.48608c0,0 -1.26379,-0.72824 -0.53555,-1.99203c0.28036,-0.48653 0.64009,-0.67783 0.97653,-0.7291z" fill="#cfcfcf"/><path d="M333.27024,157.7464c1.49051,2.44039 -0.87076,5.1152 -3.00003,4.94099c-0.20982,0.26796 -0.55303,0.4875 -1.11453,0.49296c-1.45852,0.01422 -1.47274,-1.44432 -1.47274,-1.44432c-0.00196,-0.22977 -0.01122,-0.57317 -0.01457,-0.96449c-0.00585,-0.06703 -0.00589,-0.13248 -0.00113,-0.19602c-0.00278,-1.04286 0.04769,-2.33147 0.37561,-2.74505c1.34393,-1.69492 3.85773,-2.32662 5.22739,-0.08409z" data-paper-data="{&quot;index&quot;:null}" fill="#cfcfcf"/></g><g fill="#bd2222" stroke="none" stroke-linecap="butt"><path d="M182.99174,201.74668c0,-9.75607 8.24364,-17.66492 18.41269,-17.66492c10.16905,0 18.41269,7.90885 18.41269,17.66492c0,9.75607 -8.24364,17.6649 -18.41269,17.6649c-10.16905,0 -18.41269,-7.90885 -18.41269,-17.6649z" stroke-width="NaN"/><path d="M267.55143,202.00612c0,-9.75607 8.24364,-17.66491 18.41269,-17.66491c10.16904,0 18.41267,7.90884 18.41267,17.66491c0,9.75607 -8.24363,17.66491 -18.41267,17.66491c-10.16905,0 -18.41269,-7.90884 -18.41269,-17.66491z" stroke-width="NaN"/><path d="M199.51151,219.41158v-35.32982h86.72888v35.32982z" stroke-width="0"/></g><g fill="#9e1c1c" stroke="none" stroke-width="0.5" stroke-linecap="butt"><path d="M198.28161,123.35032c4.26343,0 4.26343,4.64792 4.26343,4.64792c0,17.14352 0,38.45708 0,55.6006c0,0 0,4.64792 -4.26343,4.64792c-4.26343,0 -4.26342,-4.64792 -4.26342,-4.64792c0,-17.14352 0,-34.28704 0,-51.43056v-4.17004c0,0 -0.00001,-4.64792 4.26342,-4.64792z"/><path d="M290.00392,123.95859c4.26343,0 4.26343,4.64792 4.26343,4.64792c0,17.14352 0,38.45708 0,55.6006c0,0 0,4.64792 -4.26343,4.64792c-4.26343,0 -4.26343,-4.64792 -4.26343,-4.64792c0,-17.14352 0,-34.28704 0,-51.43055v-4.17005c0,0 0,-4.64792 4.26343,-4.64792z"/><path d="M198.42152,110.07111c4.26343,0 4.26343,1.33916 4.26343,1.33916c0,4.9394 0,11.0803 0,16.0197c0,0 0,1.33916 -4.26343,1.33916c-4.26343,0 -4.26343,-1.33916 -4.26343,-1.33916c0,-4.9394 0,-9.87882 0,-14.81822v-1.20148c0,0 0,-1.33916 4.26343,-1.33916z"/><path d="M290.14383,110.24636c4.26343,0 4.26342,1.33916 4.26342,1.33916c0,4.9394 0,11.08029 0,16.01969c0,0 0,1.33916 -4.26342,1.33916c-4.26343,0 -4.26343,-1.33916 -4.26343,-1.33916c0,-4.9394 0,-9.87882 0,-14.81822v-1.20148c0,0 0,-1.33916 4.26343,-1.33916z"/><path d="M198.22595,89.71135c4.26343,0 4.26342,2.08654 4.26342,2.08654c0,7.69608 0,17.26417 0,24.96025c0,0 0.00001,2.08654 -4.26342,2.08654c-4.26343,0 -4.26343,-2.08654 -4.26343,-2.08654c0,-7.69608 0,-15.39216 0,-23.08823v-1.87203c0,0 0,-2.08654 4.26343,-2.08654z"/><path d="M289.94825,106.69601c4.26343,0 4.26343,0.88265 4.26343,0.88265c0,3.25558 0,7.30307 0,10.55864c0,0 0,0.88264 -4.26343,0.88264c-4.26343,0 -4.26342,-0.88264 -4.26342,-0.88264c0,-3.25558 0,-6.51116 0,-9.76674v-0.7919c0,0 -0.00001,-0.88265 4.26342,-0.88265z"/></g><g fill="#bd2222" stroke="none" stroke-linecap="butt"><path d="M248.49628,214.68646c0,-7.28808 5.16709,-13.19624 11.54104,-13.19624c6.37394,0 11.54104,5.90816 11.54104,13.19624c0,7.28808 -5.16711,13.19624 -11.54104,13.19624c-6.37394,0 -11.54104,-5.90816 -11.54104,-13.19624z" stroke-width="NaN"/><path d="M301.49816,214.75594c0,-7.28808 5.16711,-13.19624 11.54105,-13.19624c6.37394,0 11.54103,5.90815 11.54103,13.19624c0,7.28808 -5.16709,13.19624 -11.54103,13.19624c-6.37394,0 -11.54105,-5.90815 -11.54105,-13.19624z" stroke-width="NaN"/><path d="M258.85085,227.88271v-26.39248h54.36153v26.39248z" stroke-width="0"/></g><g fill="#db4747" stroke="none" stroke-linecap="butt"><path d="M251.8138,214.67076c0,-5.73746 4.65113,-10.38859 10.38859,-10.38859c5.73746,0 10.38859,4.65113 10.38859,10.38859c0,5.73746 -4.65113,10.38858 -10.38859,10.38858c-5.73746,0 -10.38859,-4.65113 -10.38859,-10.38858z" stroke-width="NaN"/><path d="M299.52306,214.82333c0,-5.73746 4.65112,-10.38858 10.38859,-10.38858c5.73745,0 10.38858,4.65112 10.38858,10.38858c0,5.73746 -4.65112,10.38859 -10.38858,10.38859c-5.73746,0 -10.38859,-4.65113 -10.38859,-10.38859z" stroke-width="NaN"/><path d="M261.13437,225.05933v-20.77716h48.93313v20.77716z" stroke-width="0"/></g><g fill="#c74040" stroke="none" stroke-linecap="butt"><path d="M255.58405,222.1714c0,-1.67525 4.18251,-3.0333 9.3419,-3.0333c5.15939,0 9.3419,1.35806 9.3419,3.0333c0,1.67525 -4.18251,3.03329 -9.3419,3.03329c-5.15939,0 -9.3419,-1.35804 -9.3419,-3.03329z" stroke-width="NaN"/><path d="M298.48643,222.21594c0,-1.67525 4.18251,-3.03329 9.3419,-3.03329c5.15938,0 9.34188,1.35806 9.34188,3.03329c0,1.67525 -4.1825,3.0333 -9.34188,3.0333c-5.15939,0 -9.3419,-1.35805 -9.3419,-3.0333z" stroke-width="NaN"/><path d="M263.96556,225.2047v-6.06659h44.00293v6.06659z" stroke-width="0"/></g><path d="M256.11954,214.72064c0,-5.05172 4.09523,-9.14693 9.14693,-9.14693c5.05172,0 9.14693,4.09522 9.14693,9.14693c0,5.05172 -4.09521,9.14694 -9.14693,9.14694c-5.05171,0 -9.14693,-4.09522 -9.14693,-9.14694z" fill="#bd2222" stroke="none" stroke-width="0" stroke-linecap="butt"/><path d="M276.06498,214.66249c0,-5.05172 4.09522,-9.14692 9.14692,-9.14692c5.05172,0 9.14694,4.09522 9.14694,9.14692c0,5.05172 -4.09522,9.14694 -9.14694,9.14694c-5.05171,0 -9.14692,-4.09522 -9.14692,-9.14694z" fill="#bd2222" stroke="none" stroke-width="0" stroke-linecap="butt"/><path d="M259.95667,214.63299c0,-2.95637 2.3966,-5.35296 5.35296,-5.35296c2.95637,0 5.35297,2.3966 5.35297,5.35296c0,2.95637 -2.39661,5.35297 -5.35297,5.35297c-2.95637,0 -5.35296,-2.39661 -5.35296,-5.35297z" fill="#fa5050" stroke="none" stroke-width="0" stroke-linecap="butt"/><path d="M280.01626,214.93781c0,-2.95637 2.39661,-5.35296 5.35296,-5.35296c2.95637,0 5.35296,2.3966 5.35296,5.35296c0,2.95637 -2.3966,5.35297 -5.35296,5.35297c-2.95637,0 -5.35296,-2.39661 -5.35296,-5.35297z" fill="#fa5050" stroke="none" stroke-width="0" stroke-linecap="butt"/><path d="M269.3721,217.08939c-1.25365,0 -1.25365,-1.25364 -1.25365,-1.25364v-0.25791c0.00144,-2.78006 -0.24894,-3.66212 -3.21675,-3.64659c0,0 -1.25364,0.00001 -1.25364,-1.25364c0,-1.25365 1.25364,-1.25364 1.25364,-1.25364c4.31143,0.01862 5.72202,2.039 5.72404,6.15387v0.25791c0,0 0,1.25364 -1.25364,1.25364z" fill="#fa6a6a" stroke="none" stroke-width="0.5" stroke-linecap="butt"/><path d="M289.5236,217.11984c-1.25365,0 -1.25364,-1.25364 -1.25364,-1.25364v-0.25791c0.00144,-2.78005 -0.24894,-3.66212 -3.21674,-3.6466c0,0 -1.25365,0 -1.25365,-1.25364c0,-1.25364 1.25365,-1.25364 1.25365,-1.25364c4.31143,0.01862 5.72201,2.039 5.72402,6.15388v0.25791c0,0 0,1.25364 -1.25364,1.25364z" fill="#fa6a6a" stroke="none" stroke-width="0.5" stroke-linecap="butt"/><path d="M257.27304,229.81339v-3.75307h58.29776v3.75307z" fill="#7e1717" stroke="none" stroke-width="0" stroke-linecap="butt"/><g fill="#bd2222" stroke="none" stroke-linecap="butt"><path d="M164.49226,214.15837c0,-7.28809 5.16709,-13.19624 11.54103,-13.19624c6.37394,0 11.54104,5.90815 11.54104,13.19624c0,7.28809 -5.16711,13.19624 -11.54104,13.19624c-6.37394,0 -11.54103,-5.90816 -11.54103,-13.19624z" stroke-width="NaN"/><path d="M217.49416,214.22787c0,-7.28809 5.16711,-13.19624 11.54105,-13.19624c6.37394,0 11.54103,5.90815 11.54103,13.19624c0,7.28809 -5.16709,13.19624 -11.54103,13.19624c-6.37394,0 -11.54105,-5.90815 -11.54105,-13.19624z" stroke-width="NaN"/><path d="M174.84684,227.35463v-26.39248h54.36153v26.39248z" stroke-width="0"/></g><g fill="#db4747" stroke="none" stroke-linecap="butt"><path d="M167.80978,214.14268c0,-5.73746 4.65113,-10.38859 10.38859,-10.38859c5.73746,0 10.38859,4.65113 10.38859,10.38859c0,5.73746 -4.65113,10.38858 -10.38859,10.38858c-5.73746,0 -10.38859,-4.65113 -10.38859,-10.38858z" stroke-width="NaN"/><path d="M215.51904,214.29526c0,-5.73746 4.65113,-10.38858 10.38859,-10.38858c5.73745,0 10.38858,4.65112 10.38858,10.38858c0,5.73746 -4.65112,10.38858 -10.38858,10.38858c-5.73746,0 -10.38859,-4.65112 -10.38859,-10.38858z" stroke-width="NaN"/><path d="M177.13039,224.53126v-20.77716h48.93313v20.77716z" stroke-width="0"/></g><g fill="#c74040" stroke="none" stroke-linecap="butt"><path d="M171.58007,221.64332c0,-1.67525 4.18251,-3.03329 9.3419,-3.03329c5.15939,0 9.3419,1.35806 9.3419,3.03329c0,1.67525 -4.18251,3.03329 -9.3419,3.03329c-5.15939,0 -9.3419,-1.35804 -9.3419,-3.03329z" stroke-width="NaN"/><path d="M214.48241,221.68788c0,-1.67525 4.18251,-3.03329 9.3419,-3.03329c5.15938,0 9.34188,1.35806 9.34188,3.03329c0,1.67525 -4.18251,3.03329 -9.34188,3.03329c-5.15939,0 -9.3419,-1.35804 -9.3419,-3.03329z" stroke-width="NaN"/><path d="M179.96155,224.67662v-6.06659h44.00293v6.06659z" stroke-width="0"/></g><path d="M212.17911,214.07801c0,-5.05172 4.09522,-9.14693 9.14694,-9.14693c5.05171,0 9.14693,4.09522 9.14693,9.14693c0,5.05172 -4.09522,9.14693 -9.14693,9.14693c-5.05172,0 -9.14694,-4.09522 -9.14694,-9.14693z" fill="#bd2222" stroke="none" stroke-width="0" stroke-linecap="butt"/><path d="M192.06099,214.13443c0,-5.05172 4.09522,-9.14693 9.14693,-9.14693c5.05172,0 9.14694,4.09522 9.14694,9.14693c0,5.05172 -4.09522,9.14694 -9.14694,9.14694c-5.05172,0 -9.14693,-4.09522 -9.14693,-9.14694z" fill="#bd2222" stroke="none" stroke-width="0" stroke-linecap="butt"/><path d="M196.01228,214.40972c0,-2.95637 2.39661,-5.35296 5.35297,-5.35296c2.95637,0 5.35296,2.3966 5.35296,5.35296c0,2.95637 -2.3966,5.35297 -5.35296,5.35297c-2.95637,0 -5.35297,-2.39661 -5.35297,-5.35297z" fill="#fa5050" stroke="none" stroke-width="0" stroke-linecap="butt"/><path d="M216.3335,214.4529c0,-2.95637 2.3966,-5.35296 5.35297,-5.35296c2.95637,0 5.35297,2.3966 5.35297,5.35296c0,2.95637 -2.3966,5.35298 -5.35297,5.35298c-2.95637,0 -5.35297,-2.39661 -5.35297,-5.35298z" fill="#fa5050" stroke="none" stroke-width="0" stroke-linecap="butt"/><path d="M205.51958,216.59175c-1.25365,0 -1.25365,-1.25365 -1.25365,-1.25365v-0.2579c0.00144,-2.78005 -0.24894,-3.66213 -3.21674,-3.6466c0,0 -1.25365,0 -1.25365,-1.25364c0,-1.25364 1.25365,-1.25364 1.25365,-1.25364c4.31143,0.01861 5.72201,2.039 5.72402,6.15388v0.2579c0,0 0,1.25365 -1.25364,1.25365z" fill="#fa6a6a" stroke="none" stroke-width="0.5" stroke-linecap="butt"/><path d="M225.76339,216.99142c-1.25364,0 -1.25364,-1.25365 -1.25364,-1.25365v-0.2579c0.00144,-2.78005 -0.24894,-3.66212 -3.21674,-3.6466c0,0 -1.25364,0 -1.25364,-1.25364c0,-1.25364 1.25364,-1.25365 1.25364,-1.25365c4.31143,0.01861 5.72201,2.039 5.72402,6.15388v0.2579c0,0 0,1.25365 -1.25364,1.25365z" fill="#fa6a6a" stroke="none" stroke-width="0.5" stroke-linecap="butt"/><path d="M173.26903,229.28531v-3.75308h58.29776v3.75308z" fill="#7e1717" stroke="none" stroke-width="0" stroke-linecap="butt"/><g fill="#db4747" stroke="#000000" stroke-width="0" stroke-linecap="butt"><path d="M251.41664,153.18021c10.36349,1.01761 15.9737,3.75925 20.40301,13.62263c1.02012,2.27164 2.8991,4.43125 3.03128,7.04264c0.06122,1.20949 -0.12661,2.23278 -0.52273,3.09419c1.39402,-0.17273 2.65087,-0.06536 3.44335,0.72712c6.05707,6.05707 -5.07125,8.15053 -9.38677,8.15053c-24.17688,0 -29.34055,-0.97912 -45.40815,-1.26874c-2.96604,-0.05346 -5.80328,-1.01528 -8.58569,0.01345c-1.19368,0.44134 -6.66129,2.15205 -8.13041,0.98549c-1.55301,-0.15809 -2.68688,-1.12101 -2.31983,-3.4594c-0.01701,-0.13551 -0.02572,-0.27316 -0.02572,-0.41261c0,-0.57227 0.14697,-1.11473 0.40989,-1.60043c2.12148,-7.64515 6.38774,-14.67368 10.61157,-21.57093c0.62715,-1.02409 2.40447,-6.23424 3.89601,-7.34098c3.20882,-2.38104 8.22769,-1.88148 12.00249,-2.51304c3.35898,-0.56197 12.08435,-2.34959 15.13164,0.29771c1.28638,1.11751 1.94904,2.58003 1.88391,3.88428c1.25844,0.11617 2.45645,0.23913 3.56622,0.34808z"/><path d="M281.36023,179.93621c0.26294,0.4857 0.40987,1.02813 0.40987,1.6004c0,0.13945 -0.00875,0.27711 -0.02572,0.41263c0.49777,3.17114 -1.76479,3.81272 -4.08965,3.34785c-1.82011,-0.36395 -3.67839,-1.40608 -4.28024,-2.44356c-4.64168,-8.00146 -6.05308,-19.10708 -12.91414,-26.10035c-0.66875,-0.68166 -4.93961,-0.45788 -5.21353,-0.46999c-4.61046,-0.20389 -7.37427,-0.20585 -13.36127,-0.41456c-4.79033,-0.16699 -5.1011,-4.51074 -2.16703,-7.05967c3.04729,-2.6473 11.77264,-0.85968 15.13164,-0.29771c3.77479,0.63155 8.79366,0.13198 12.00249,2.51302c1.49153,1.10677 3.26884,6.3169 3.89597,7.34099c4.22382,6.89726 8.49009,13.92579 10.61159,21.57093z" data-paper-data="{&quot;index&quot;:null}"/></g><g fill="#db4747" stroke="none" stroke-linecap="butt"><path d="M187.54294,207.53026c0,-9.75607 7.55314,-17.66492 16.87042,-17.66492c9.31728,0 16.87042,7.90885 16.87042,17.66492c0,9.75607 -7.55314,17.6649 -16.87042,17.6649c-9.31728,0 -16.87042,-7.90885 -16.87042,-17.6649z" stroke-width="NaN"/><path d="M265.01979,207.7897c0,-9.75607 7.55314,-17.66491 16.87042,-17.66491c9.31727,0 16.8704,7.90884 16.8704,17.66491c0,9.75607 -7.55313,17.66491 -16.8704,17.66491c-9.31728,0 -16.87042,-7.90884 -16.87042,-17.66491z" stroke-width="NaN"/><path d="M202.67897,225.19516v-35.32982h79.46435v35.32982z" stroke-width="0"/></g><g fill="#c74040" stroke="none" stroke-linecap="butt"><path d="M192.41345,220.28447c0,-2.84862 7.11201,-5.15786 15.88511,-5.15786c8.77311,0 15.88511,2.30926 15.88511,5.15786c0,2.84862 -7.112,5.15786 -15.88511,5.15786c-8.77311,0 -15.88511,-2.30924 -15.88511,-5.15786z" stroke-width="NaN"/><path d="M265.3653,220.36023c0,-2.84862 7.112,-5.15786 15.88511,-5.15786c8.7731,0 15.88509,2.30926 15.88509,5.15786c0,2.84862 -7.112,5.15786 -15.88509,5.15786c-8.77311,0 -15.88511,-2.30924 -15.88511,-5.15786z" stroke-width="NaN"/><path d="M206.66549,225.44234v-10.31572h74.82329v10.31572z" stroke-width="0"/></g><path d="M193.324,206.07457c0,-8.59002 6.96358,-15.55358 15.55358,-15.55358c8.59002,0 15.55358,6.96358 15.55358,15.55358c0,8.59002 -6.96356,15.5536 -15.55358,15.5536c-8.59002,0 -15.55358,-6.96358 -15.55358,-15.5536z" fill="#bd2222" stroke="none" stroke-width="0" stroke-linecap="butt"/><path d="M261.4487,205.87978c0,-8.59002 6.96357,-15.55358 15.5536,-15.55358c8.59001,0 15.55358,6.96358 15.55358,15.55358c0,8.59002 -6.96358,15.55358 -15.55358,15.55358c-8.59003,0 -15.5536,-6.96358 -15.5536,-15.55358z" fill="#bd2222" stroke="none" stroke-width="0" stroke-linecap="butt"/><path d="M227.23955,205.97571c0,-8.59002 6.96358,-15.55358 15.55358,-15.55358c8.59002,0 15.5536,6.96358 15.5536,15.55358c0,8.59002 -6.96358,15.5536 -15.5536,15.5536c-8.59002,0 -15.55358,-6.96358 -15.55358,-15.5536z" fill="#bd2222" stroke="none" stroke-width="0" stroke-linecap="butt"/><path d="M199.84871,205.92552c0,-5.02706 4.07522,-9.10227 9.10226,-9.10227c5.02706,0 9.10227,4.07522 9.10227,9.10227c0,5.02706 -4.07523,9.10228 -9.10227,9.10228c-5.02706,0 -9.10226,-4.07524 -9.10226,-9.10228z" fill="#fa5050" stroke="none" stroke-width="0" stroke-linecap="butt"/><path d="M233.95837,206.44385c0,-5.02706 4.07523,-9.10226 9.10227,-9.10226c5.02706,0 9.10226,4.07522 9.10226,9.10226c0,5.02706 -4.07522,9.10228 -9.10226,9.10228c-5.02706,0 -9.10227,-4.07524 -9.10227,-9.10228z" fill="#fa5050" stroke="none" stroke-width="0" stroke-linecap="butt"/><path d="M268.51291,206.51725c0,-5.02706 4.07522,-9.10226 9.10227,-9.10226c5.02706,0 9.10227,4.07522 9.10227,9.10226c0,5.02706 -4.07522,9.10229 -9.10227,9.10229c-5.02706,0 -9.10227,-4.07523 -9.10227,-9.10229z" fill="#fa5050" stroke="none" stroke-width="0" stroke-linecap="butt"/><path d="M215.85884,210.10242c-2.13172,0 -2.13172,-2.13171 -2.13172,-2.13171v-0.43856c0.00245,-4.72726 -0.42331,-6.22713 -5.46981,-6.20072c0,0 -2.13171,0.00001 -2.13171,-2.13171c0,-2.13172 2.13171,-2.13171 2.13171,-2.13171c7.33122,0.03165 9.72981,3.46714 9.73324,10.46414v0.43856c0,0 0,2.13171 -2.13171,2.13171z" fill="#fa6a6a" stroke="none" stroke-width="0.5" stroke-linecap="butt"/><path d="M250.12478,210.1542c-2.13172,0 -2.13172,-2.13172 -2.13172,-2.13172v-0.43854c0.00245,-4.72724 -0.4233,-6.22714 -5.46979,-6.20074c0,0 -2.13172,0 -2.13172,-2.13171c0,-2.13171 2.13172,-2.13171 2.13172,-2.13171c7.33122,0.03165 9.72979,3.46714 9.73322,10.46416v0.43854c0,0 0,2.13172 -2.13171,2.13172z" fill="#fa6a6a" stroke="none" stroke-width="0.5" stroke-linecap="butt"/><path d="M284.54765,210.83378c-2.13171,0 -2.13171,-2.13172 -2.13171,-2.13172v-0.43854c0.00245,-4.72724 -0.42331,-6.22713 -5.46979,-6.20073c0,0 -2.13171,0 -2.13171,-2.13171c0,-2.13171 2.13171,-2.13172 2.13171,-2.13172c7.33122,0.03165 9.72979,3.46714 9.73322,10.46416v0.43854c0,0 0,2.13172 -2.13171,2.13172z" fill="#fa6a6a" stroke="none" stroke-width="0.5" stroke-linecap="butt"/><g fill="#c74040" stroke="none" stroke-linecap="butt"><path d="M204.8602,178.78761c0,-2.84862 5.2485,-5.15786 11.72288,-5.15786c6.47438,0 11.72287,2.30926 11.72287,5.15786c0,2.84862 -5.2485,5.15786 -11.72287,5.15786c-6.47438,0 -11.72288,-2.30924 -11.72288,-5.15786z" stroke-width="NaN"/><path d="M258.69712,178.86336c0,-2.84862 5.24851,-5.15786 11.72286,-5.15786c6.47436,0 11.72286,2.30926 11.72286,5.15786c0,2.84862 -5.2485,5.15786 -11.72286,5.15786c-6.47438,0 -11.72286,-2.30924 -11.72286,-5.15786z" stroke-width="NaN"/><path d="M215.37792,183.94547v-10.31572h55.21798v10.31572z" stroke-width="0"/></g><path d="M209.31781,168.3c1.35807,-1.04087 2.18506,-6.22068 3.17677,-8.13023c4.70094,-9.05187 10.12317,-13.24572 20.59183,-13.49436c0.01412,-0.00034 0.02829,-0.00071 0.04248,-0.00116c0.1277,0.02579 0.25954,0.04017 0.3944,0.042c0.01001,0.00005 0.01994,0.00011 0.02976,0.0002c3.27511,0.03032 6.5504,0.0499 9.82572,0.058c2.36124,2.42359 2.31194,3.97946 -0.14787,6.43927c-1.47199,1.47199 -4.14596,0.43386 -6.22733,0.47064c-5.9372,0.10493 -10.69535,0.46335 -14.70393,4.61956c-3.82334,3.96413 -10.35793,20.73981 -12.3346,25.5119c-0.64666,1.56116 -5.64526,5.91012 -7.37118,2.88974c-1.10976,-0.65495 -1.85422,-1.86298 -1.85422,-3.24488c0,-1.34389 0.70408,-2.5233 1.76345,-3.18957c2.43909,-4.43986 6.39637,-11.6505 6.8147,-11.97111z" fill="#bd2222" stroke="none" stroke-width="0.5" stroke-linecap="butt"/><path d="M283.55287,179.8071c1.05939,0.66626 1.76345,1.84569 1.76345,3.18958c0,1.3819 -0.74446,2.58992 -1.85422,3.24487c-1.72592,3.02039 -6.72454,-1.32859 -7.37118,-2.88975c-1.97666,-4.77209 -8.51125,-21.54774 -12.33459,-25.51188c-4.00858,-4.15621 -8.76674,-4.51463 -14.70394,-4.61956c-2.08137,-0.03679 -4.75535,1.00132 -6.22734,-0.47065c-2.30039,-2.30039 -2.49258,-3.8102 -0.57658,-5.9785c5.26569,0.01726 10.53151,0.00503 15.79694,-0.03977c0.09123,0.01212 0.182,0.02366 0.27223,0.03454c7.1137,1.4232 11.41762,5.5724 15.24375,12.93977c0.99169,1.90956 1.81869,7.08937 3.17676,8.13026c0.41834,0.32063 4.37561,7.53125 6.8147,11.97111z" data-paper-data="{&quot;index&quot;:null}" fill="#bd2222" stroke="none" stroke-width="0.5" stroke-linecap="butt"/><path d="M267.22682,157.85726c-0.38132,0.76266 -1.14401,0.38134 -1.14401,0.38134l-0.30879,-0.15769c-4.75302,-1.91521 -9.25463,-2.62831 -14.07083,-4.06836c-2.69783,-0.06064 -5.42748,0.02137 -8.20636,0.02137c-7.30883,0 -13.86975,1.46848 -20.92442,2.96932c0,0 -0.83438,0.17565 -1.01005,-0.65874c-0.17566,-0.83438 0.65873,-1.01005 0.65873,-1.01005c0.65894,-0.13713 1.31363,-0.2744 1.96503,-0.41066c-0.21082,-0.58315 0.35181,-0.95823 0.35181,-0.95823c5.2528,-3.48038 12.61589,-1.88869 18.54999,-2.38319c7.47612,-0.00519 15.36107,0.76076 22.80754,1.4973l0.10188,-0.00424c0,0 0.85268,0 0.85268,0.85269c0,0.85269 -0.85268,0.85269 -0.85268,0.85269l-0.27157,-0.00423c-0.41847,-0.04235 -0.83839,-0.08467 -1.25962,-0.12686c0.13648,0.17534 0.22327,0.43317 0.08888,0.79151c-0.04877,0.13009 -0.11082,0.23101 -0.18048,0.30886c0.6742,0.22969 1.35137,0.47711 2.03284,0.7474l0.43809,0.21574c0,0 0.76265,0.38133 0.38133,1.14399zM228.14457,154.11181c1.34013,-0.26535 2.67469,-0.5157 4.01255,-0.74027c-1.39317,0.10959 -2.74712,0.32898 -4.01255,0.74027z" fill="#bd2222" stroke="none" stroke-width="0.5" stroke-linecap="butt"/><path d="M250.41921,168.4873c3.72104,-2.03565 1.10812,-5.26708 -0.93947,-7.83054c-4.0385,-2.16686 -11.09713,-2.45774 -15.22075,0.30948c-2.01961,1.3553 -2.93056,6.94031 -1.92189,9.02735c0.73352,1.51776 2.86583,1.97037 4.26144,2.4916c0,0 1.13168,0.42438 1.18387,1.50591c0.20372,0.43267 0.20372,0.85272 0.20372,0.85272c0,0.4649 -0.3289,5.16251 0.116,5.24865c0.51315,0.09936 1.29447,0.42063 1.5678,-0.02488c0.36765,-0.5992 -0.14864,-1.72048 0.46907,-2.05617c1.0091,-0.54836 2.31027,-0.24975 3.44471,-0.07069c0.78362,0.12369 1.5736,1.8549 2.04532,1.21704c0.46497,-0.62872 0.24774,-1.91652 1.00252,-2.12094c1.12562,-0.30483 3.61558,2.06973 3.37289,0.92909c-0.51322,-2.41234 -1.61184,-4.34336 -1.62928,-7.01276v-0.22887c0,0 0,-1.50647 1.38367,-1.75208zM229.07835,171.45511c-1.85135,-3.64479 -0.17123,-11.09107 3.11306,-13.40099c5.45226,-3.83479 14.27041,-3.16232 19.56614,-0.14827c3.75596,4.37806 6.63819,10.02818 0.43369,13.6824l-0.17289,0.13377c0.35809,2.12081 1.91856,5.45517 1.50315,6.86557c-0.7939,2.6953 -3.03367,3.76052 -5.55252,2.97594c0.0307,0.17591 0.00825,0.32299 -0.14194,0.4094c-0.96981,0.55788 -2.22882,0.4597 -3.34014,0.33044c-0.86425,-0.10052 -1.99193,-2.32734 -2.15515,-1.47271c-0.69455,3.63658 -6.12856,3.84585 -7.81038,0.11377c-0.53349,-1.18389 -0.21273,-3.81524 -0.12623,-5.47131c-2.16744,-0.82154 -4.14219,-1.7057 -5.31673,-4.01805zM247.74962,180.82607c0.0057,-0.318 0.04557,-0.57913 -0.00974,-0.39401c-0.03525,0.11803 -0.02306,0.2532 0.00974,0.39401z" fill="#cfcfcf" stroke="none" stroke-width="0.5" stroke-linecap="butt"/><path d="M240.66463,168.75457c0.15364,0.38729 0.17365,0.88572 -0.16744,1.48261c-0.88598,1.55045 -2.43645,0.66448 -2.43645,0.66448c-0.24409,-0.13986 -0.61278,-0.34223 -1.02848,-0.5804c-0.07448,-0.03525 -0.14366,-0.07569 -0.2079,-0.11992c-1.10404,-0.64129 -2.43497,-1.49065 -2.66952,-2.09278c-0.96137,-2.46756 -0.07619,-5.51493 3.14031,-5.5774c3.50031,-0.06796 4.86895,4.08031 3.36949,6.22338z" fill="#cfcfcf" stroke="none" stroke-width="0.5" stroke-linecap="butt"/><path d="M246.50392,161.43518c3.21652,0.06245 4.10168,3.10981 3.14032,5.5774c-0.23461,0.6021 -1.5655,1.45148 -2.66954,2.09278c-0.06422,0.04425 -0.13343,0.08467 -0.20789,0.1199c-0.41568,0.23819 -0.78439,0.44053 -1.02848,0.58041c0,0 -1.55047,0.88599 -2.43644,-0.66448c-0.34109,-0.59689 -0.32107,-1.09529 -0.16744,-1.48262c-1.49952,-2.14307 -0.13083,-6.29134 3.36946,-6.22338z" data-paper-data="{&quot;index&quot;:null}" fill="#cfcfcf" stroke="none" stroke-width="0.5" stroke-linecap="butt"/><path d="M190.53878,192.38878c0.28612,5.36975 -0.22337,5.43422 -0.22337,5.43422l-0.65224,0.08254c-3.01497,0.33555 -6.07983,0.00052 -9.09933,0.38266c0,0 -0.50951,0.06449 -0.79563,-5.30527c-0.28612,-5.36975 0.22337,-5.43422 0.22337,-5.43422c3.01877,-0.38206 6.09046,0.04885 9.09935,-0.3827l0.65222,-0.08254c0,0 0.50949,-0.06447 0.79562,5.30529z" fill="#fc9b2d" stroke="none" stroke-width="0.5" stroke-linecap="butt"/><path d="M307.81221,194.14009c0.09229,5.38751 -0.41717,5.40838 -0.41717,5.40838l-0.65218,0.02671c-3.01312,0.07754 -6.05181,-0.51888 -9.07112,-0.39521c0,0 -0.50948,0.02089 -0.60179,-5.36661c-0.09229,-5.38751 0.41717,-5.40838 0.41717,-5.40838c3.01854,-0.12367 6.06063,0.56912 9.07112,0.3952l0.65218,-0.02672c0,0 0.50947,-0.02089 0.60178,5.36661z" fill="#fcbb71" stroke="none" stroke-width="0.5" stroke-linecap="butt"/><path d="M195.28541,231.73852v-6.38179h99.13044v6.38179z" fill="#7e1717" stroke="none" stroke-width="0" stroke-linecap="butt"/><g data-paper-data="{&quot;index&quot;:null}" fill="#ff6e3b" stroke="#000000" stroke-width="0" stroke-linecap="butt"><path d="M219.04603,144.41199c2.21993,-1.19519 3.71752,-1.40199 5.93972,-0.01827c0.51182,0.31871 1.18102,0.49887 1.56029,1.00576c0.17566,0.23479 0.27612,0.46577 0.31287,0.69236c0.2568,-0.22299 0.52384,-0.37116 0.79011,-0.31897c2.03519,0.39906 0.08179,2.32273 -0.78537,2.9056c-4.85819,3.26532 -6.02802,3.76597 -9.29584,5.8779c-0.60321,0.38986 -1.30323,0.5798 -1.7234,1.16228c-0.18024,0.24991 -1.04787,1.33209 -1.50064,1.2961c-0.33342,0.17798 -0.69133,0.13765 -0.9334,-0.38183c-0.02173,-0.02491 -0.04209,-0.05142 -0.0609,-0.07942c-0.07728,-0.11499 -0.12103,-0.24385 -0.13378,-0.37694c-0.60628,-1.82275 -0.69825,-3.81132 -0.78105,-5.76777c-0.01228,-0.29047 -0.35885,-1.57747 -0.2086,-2.00131c0.3232,-0.91184 1.39917,-1.4893 2.0724,-2.12604c0.59904,-0.56661 2.11095,-2.10426 3.08083,-1.98386c0.40941,0.05084 0.74008,0.25519 0.90317,0.52607c0.26854,-0.14661 0.5259,-0.28372 0.76364,-0.41173z"/><path d="M228.67663,145.74424c0.1184,0.06211 0.22124,0.15122 0.29853,0.26621c0.01882,0.02802 0.03564,0.05685 0.05053,0.08639c0.5283,0.56997 0.16033,1.00446 -0.36962,1.22507c-0.41488,0.17269 -0.92906,0.21428 -1.19012,0.0871c-2.01338,-0.98094 -3.79692,-3.02193 -6.12011,-3.50051c-0.22645,-0.04666 -1.05442,0.57515 -1.11106,0.60972c-0.95398,0.5817 -1.50961,0.95461 -2.74084,1.72124c-0.98514,0.61341 -1.63426,-0.21742 -1.38894,-1.12592c0.2548,-0.94353 2.24956,-1.76275 3.00042,-2.10351c0.84384,-0.38293 1.78486,-1.16114 2.75123,-1.11606c0.44918,0.02094 1.51,0.82786 1.77434,0.94894c1.78029,0.81547 3.58682,1.65167 5.04572,2.90136z" data-paper-data="{&quot;index&quot;:null}"/></g><g data-paper-data="{&quot;index&quot;:null}" fill="#ff3b3b" stroke="#000000" stroke-width="0" stroke-linecap="butt"><path d="M267.27097,144.2824c0.23775,0.12801 0.4951,0.26512 0.76363,0.41173c0.16309,-0.27088 0.49374,-0.47524 0.90317,-0.52607c0.9699,-0.12042 2.48177,1.41725 3.08084,1.98386c0.67323,0.63673 1.74921,1.21419 2.07241,2.12605c0.15024,0.42383 -0.19634,1.71083 -0.20862,2.00131c-0.08279,1.95646 -0.17477,3.94502 -0.78105,5.76777c-0.01276,0.13308 -0.05649,0.26194 -0.13377,0.37694c-0.01881,0.028 -0.03917,0.05448 -0.0609,0.0794c-0.24207,0.51949 -0.59997,0.55981 -0.9334,0.38184c-0.45277,0.03599 -1.3204,-1.0462 -1.50064,-1.2961c-0.42017,-0.58248 -1.12019,-0.77241 -1.72339,-1.16228c-3.26781,-2.11192 -4.43765,-2.61258 -9.29585,-5.8779c-0.86718,-0.58286 -2.82056,-2.50654 -0.78537,-2.9056c0.26628,-0.0522 0.53332,0.09597 0.79012,0.31897c0.03677,-0.2266 0.13721,-0.45756 0.31287,-0.69234c0.37928,-0.50689 1.0485,-0.68705 1.56031,-1.00576c2.2222,-1.38374 3.71979,-1.17695 5.93973,0.01826z"/><path d="M257.64032,145.61471c1.45889,-1.2497 3.26545,-2.08587 5.04572,-2.90134c0.26434,-0.12108 1.32516,-0.928 1.77434,-0.94894c0.96639,-0.04507 1.9074,0.73314 2.75124,1.11607c0.75086,0.34077 2.74561,1.15999 3.00041,2.1035c0.24532,0.9085 -0.4038,1.73933 -1.38894,1.12592c-1.23122,-0.76664 -1.78686,-1.13954 -2.74084,-1.72125c-0.05665,-0.03455 -0.88462,-0.65636 -1.11106,-0.60972c-2.32319,0.47858 -4.10676,2.51957 -6.12014,3.50052c-0.26104,0.12718 -0.77521,0.0856 -1.19009,-0.08707c-0.52994,-0.22061 -0.89792,-0.6551 -0.36962,-1.22507c0.01487,-0.02952 0.0317,-0.05836 0.05054,-0.08638c0.07729,-0.11499 0.18009,-0.20412 0.29851,-0.26622z" data-paper-data="{&quot;index&quot;:null}"/></g><path d="M200.19185,149.54665c2.37296,0 2.37296,2.58697 2.37296,2.58697c0,9.54185 0,21.4047 0,30.94655c0,0 0,2.58697 -2.37296,2.58697c-2.37296,0 -2.37297,-2.58697 -2.37297,-2.58697c0,-9.54185 0,-19.08371 0,-28.62556v-2.32099c0,0 0.00001,-2.58697 2.37297,-2.58697z" fill="#8a1919" stroke="none" stroke-width="0.5" stroke-linecap="butt"/><path d="M287.88176,148.85751c2.37297,0 2.37296,2.58697 2.37296,2.58697c0,9.54185 0,21.4047 0,30.94655c0,0 0.00001,2.58697 -2.37296,2.58697c-2.37297,0 -2.37297,-2.58697 -2.37297,-2.58697c0,-9.54185 0,-19.0837 0,-28.62555v-2.321c0,0 0.00001,-2.58697 2.37297,-2.58697z" fill="#8a1919" stroke="none" stroke-width="0.5" stroke-linecap="butt"/><path d="M173.90684,123.79045l129.85539,21.25393" fill="#bd2222" stroke="#bd2222" stroke-width="5" stroke-linecap="round"/><path d="M305.25469,133.86249l-129.85538,-21.25393" fill="#bd2222" stroke="#bd2222" stroke-width="5" stroke-linecap="round"/><path d="M306.83135,118.67087l-129.2312,-21.09788" fill="#bd2222" stroke="#bd2222" stroke-width="5" stroke-linecap="round"/><path d="M308.32383,107.48899l-129.10726,-21.25394" fill="#bd2222" stroke="#bd2222" stroke-width="5" stroke-linecap="round"/><path d="M172.11028,126.76888l129.85538,21.25393" fill="#bd2222" stroke="#8a1919" stroke-width="1.5" stroke-linecap="round"/><path d="M173.69058,115.50503l129.85539,21.25393" fill="#bd2222" stroke="#8a1919" stroke-width="1.5" stroke-linecap="round"/><path d="M176.05016,100.21035l129.85539,21.25394" fill="#bd2222" stroke="#8a1919" stroke-width="1.5" stroke-linecap="round"/><path d="M177.89019,88.94648l129.85539,21.25394" fill="#bd2222" stroke="#8a1919" stroke-width="1.5" stroke-linecap="round"/><path d="M312.77455,124.81592c-0.1463,1.15928 -1.30559,1.013 -1.30559,1.013l-0.77221,-0.2218c-0.56667,-0.37874 -3.3257,-1.76297 -3.54177,-2.13088c-0.55842,-0.95084 0.1848,-7.17591 0.76399,-7.93187c0.45988,-0.60025 2.96548,-1.57706 3.67092,-1.87786c0,0 1.07507,-0.45776 1.53283,0.61732c0.45776,1.07509 -0.61732,1.53284 -0.61732,1.53284c-0.9072,0.38571 -2.07561,0.40399 -2.72729,1.14366c-0.45603,0.51762 -0.07241,2.90523 -0.16226,3.62803c-0.07115,0.57231 -0.85052,1.23264 -0.4692,1.6653c0.20806,0.23607 2.28274,1.04344 2.83324,1.40033l-0.21833,-0.14366c0,0 1.15929,0.1463 1.01299,1.30558z" fill="#5f1111" stroke="none" stroke-width="0.5" stroke-linecap="butt"/><path d="M314.28995,114.32232c-0.1463,1.15928 -1.30559,1.01299 -1.30559,1.01299l-0.77221,-0.22179c-0.56667,-0.37874 -3.3257,-1.76298 -3.54177,-2.13089c-0.55842,-0.95084 0.1848,-7.1759 0.76399,-7.93186c0.45988,-0.60025 2.96547,-1.57706 3.67091,-1.87786c0,0 1.07508,-0.45776 1.53284,0.61732c0.45776,1.07509 -0.61732,1.53284 -0.61732,1.53284c-0.9072,0.38571 -2.07561,0.40398 -2.72728,1.14365c-0.45603,0.51762 -0.07241,2.90523 -0.16226,3.62804c-0.07115,0.57231 -0.85052,1.23264 -0.4692,1.6653c0.20806,0.23607 2.28273,1.04345 2.83324,1.40034l-0.21833,-0.14366c0,0 1.15929,0.1463 1.01299,1.30558z" fill="#8a1919" stroke="none" stroke-width="0.5" stroke-linecap="butt"/><path d="M308.72087,150.81846c-0.17972,1.15458 -1.3343,0.97485 -1.3343,0.97485l-0.76548,-0.24399c-0.55549,-0.39495 -3.2734,-1.8583 -3.47875,-2.23229c-0.53073,-0.96657 0.39199,-7.16757 0.99277,-7.90649c0.47704,-0.58671 3.00979,-1.49075 3.72362,-1.77106c0,0 1.08785,-0.42652 1.51437,0.66134c0.42652,1.08785 -0.66134,1.51438 -0.66134,1.51438c-0.91796,0.35934 -2.08641,0.34387 -2.75918,1.06441c-0.4708,0.50422 -0.15628,2.90193 -0.26698,3.62184c-0.08765,0.57001 -0.88577,1.20756 -0.51711,1.65105c0.20115,0.24198 2.25164,1.10894 2.79161,1.48157l-0.21409,-0.1499c0,0 1.15458,0.17971 0.97486,1.33429z" fill="#5f1111" stroke="none" stroke-width="0.5" stroke-linecap="butt"/><path d="M310.30661,139.68811c-0.17972,1.15458 -1.3343,0.97486 -1.3343,0.97486l-0.76548,-0.24401c-0.55549,-0.39495 -3.27341,-1.8583 -3.47876,-2.2323c-0.53073,-0.96657 0.39199,-7.16757 0.99277,-7.90649c0.47704,-0.58671 3.00979,-1.49075 3.72362,-1.77105c0,0 1.08785,-0.42652 1.51437,0.66133c0.42652,1.08785 -0.66134,1.51438 -0.66134,1.51438c-0.91796,0.35934 -2.08641,0.34387 -2.75918,1.06441c-0.4708,0.50422 -0.15628,2.90193 -0.26698,3.62183c-0.08765,0.57001 -0.88577,1.20756 -0.51711,1.65105c0.20115,0.24198 2.25165,1.10895 2.79162,1.48158l-0.21409,-0.14991c0,0 1.15458,0.17972 0.97486,1.3343z" fill="#8a1919" stroke="none" stroke-width="0.5" stroke-linecap="butt"/><path d="M172.46289,121.16884l-0.88073,5.55479" fill="none" stroke="#8a1919" stroke-width="1.5" stroke-linecap="round"/><path d="M174.02987,109.94007l-0.88073,5.55479" fill="none" stroke="#8a1919" stroke-width="1.5" stroke-linecap="round"/><path d="M175.90896,94.49806l-0.88073,5.55479" fill="none" stroke="#8a1919" stroke-width="1.5" stroke-linecap="round"/><path d="M176.80681,88.73166l0.88073,-5.55479" fill="none" stroke="#8a1919" stroke-width="1.5" stroke-linecap="round"/><path d="M296.18309,214.60609c0,-5.05172 4.09521,-9.14693 9.14693,-9.14693c5.05171,0 9.14693,4.09522 9.14693,9.14693c0,5.05172 -4.09522,9.14693 -9.14693,9.14693c-5.05173,0 -9.14693,-4.09522 -9.14693,-9.14693z" fill="#bd2222" stroke="none" stroke-width="0" stroke-linecap="butt"/><path d="M300.3375,214.98098c0,-2.95637 2.3966,-5.35296 5.35297,-5.35296c2.95637,0 5.35296,2.3966 5.35296,5.35296c0,2.95637 -2.3966,5.35298 -5.35296,5.35298c-2.95637,0 -5.35297,-2.39661 -5.35297,-5.35298z" fill="#fa5050" stroke="none" stroke-width="0" stroke-linecap="butt"/><path d="M309.76739,217.5195c-1.25364,0 -1.25364,-1.25365 -1.25364,-1.25365v-0.2579c0.00144,-2.78005 -0.24895,-3.66212 -3.21674,-3.6466c0,0 -1.25364,0 -1.25364,-1.25364c0,-1.25364 1.25364,-1.25365 1.25364,-1.25365c4.31143,0.01862 5.72201,2.039 5.72402,6.15389v0.2579c0,0 0,1.25365 -1.25364,1.25365z" fill="#fa6a6a" stroke="none" stroke-width="0.5" stroke-linecap="butt"/><path d="M172.11555,214.19256c0,-5.05172 4.09522,-9.14693 9.14693,-9.14693c5.05172,0 9.14693,4.09522 9.14693,9.14693c0,5.05172 -4.09521,9.14694 -9.14693,9.14694c-5.05172,0 -9.14693,-4.09522 -9.14693,-9.14694z" fill="#bd2222" stroke="none" stroke-width="0" stroke-linecap="butt"/><path d="M176.56888,214.1049c0,-2.95637 2.3966,-5.35297 5.35296,-5.35297c2.95637,0 5.35297,2.3966 5.35297,5.35297c0,2.95637 -2.39661,5.35297 -5.35297,5.35297c-2.95637,0 -5.35296,-2.39661 -5.35296,-5.35297z" fill="#fa5050" stroke="none" stroke-width="0" stroke-linecap="butt"/><path d="M185.36808,216.56131c-1.25365,0 -1.25365,-1.25364 -1.25365,-1.25364v-0.25791c0.00144,-2.78006 -0.24894,-3.66212 -3.21675,-3.64659c0,0 -1.25364,0.00001 -1.25364,-1.25364c0,-1.25365 1.25364,-1.25364 1.25364,-1.25364c4.31143,0.01861 5.72202,2.039 5.72403,6.15387v0.25791c0,0 0,1.25364 -1.25364,1.25364z" fill="#fa6a6a" stroke="none" stroke-width="0.5" stroke-linecap="butt"/></g></g></svg>