<svg version="1.1" xmlns="http://www.w3.org/2000/svg" xmlns:xlink="http://www.w3.org/1999/xlink" width="611.72666" height="251.27104" viewBox="0,0,611.72666,251.27104"><g transform="translate(159.39592,152.56236)"><g data-paper-data="{&quot;isPaintingLayer&quot;:true}" fill="#7da3d0" fill-rule="nonzero" stroke="none" stroke-width="0.5" stroke-linecap="butt" stroke-linejoin="miter" stroke-miterlimit="10" stroke-dasharray="" stroke-dashoffset="0" style="mix-blend-mode: normal"><path d="M-5.67926,-118.2363c1.81805,-2.54796 3.34866,-5.32777 5.45414,-7.64388c3.31349,-3.64496 11.9929,-10.34858 15.91012,-13.44785c2.77703,-2.19715 5.26724,-4.82518 8.35019,-6.56722c3.1286,-1.76784 6.70649,-2.58425 10.07248,-3.84262c2.49175,-0.93153 4.87048,-2.32553 7.5002,-2.72689c1.37696,-0.21016 21.2776,-0.04123 22.34104,0.13431c1.44515,0.23854 2.43571,1.64297 3.74784,2.29388c2.64254,1.3109 5.83467,0.49453 7.85945,3.56802c1.28138,1.94505 0.85544,4.59603 0.94379,6.92355c0.10017,2.63895 0.82663,5.56465 -0.3806,7.91342c-3.80636,7.40559 -13.06984,12.50766 -19.82113,16.38919c-12.76042,7.33636 -26.04095,13.89104 -37.39202,23.26802c-5.07379,-0.01514 -10.14757,-0.03004 -15.22136,-0.04456c2.70596,-2.23851 5.27209,-4.6564 7.95946,-6.91891c2.6665,-2.23646 5.14999,-4.71132 7.99951,-6.70938c8.16291,-5.72378 17.7186,-10.2628 26.3665,-15.23389c5.00251,-2.8756 10.68203,-5.19684 14.88306,-9.12839c1.97028,-1.8439 4.61946,-3.12274 5.9872,-5.44895c0.69342,-1.17934 -0.52895,-2.72656 -0.3806,-4.08658c0.01154,-0.10583 0.04466,-0.20561 0.09366,-0.29953c-1.15015,-0.1832 -2.24926,-0.68404 -3.29041,-1.20889c-0.841,-0.42395 -1.3192,-1.5773 -2.25216,-1.70612c-2.82446,-0.38997 -5.69991,0.19285 -8.55108,0.21454c-3.03599,0.02309 -6.10359,-0.51841 -9.10788,-0.08023c-2.04384,0.2981 -3.84015,1.52303 -5.77322,2.25064c-2.87626,1.08264 -5.97814,1.66848 -8.65411,3.17985c-2.63032,1.48558 -4.69491,3.80266 -7.05265,5.69119c-3.04603,2.43986 -11.94349,9.27039 -14.68703,12.29374c-1.84879,2.03734 -3.16275,4.50245 -4.74413,6.75367c-4.81523,6.79797 -9.63047,13.59596 -14.4457,20.39393c-2.7572,-0.00734 -5.5144,-0.01451 -8.27161,-0.02148c-0.07486,-1.65807 -0.18848,-3.31991 -0.3732,-5.07457c4.97675,-7.026 9.95351,-14.05201 14.93026,-21.07801z"/><path d="M-148.41413,96.88035c-3.13644,-0.98274 -7.74055,-0.62153 -9.19106,-3.57094c-5.37281,-10.9249 2.50599,-16.23025 8.35284,-22.55266c0.51423,-0.55605 1.0191,-1.12314 1.51884,-1.69638c0.97382,3.74433 1.95193,7.48781 2.87311,11.2407c-1.119,1.01332 -2.20797,2.05194 -3.10426,3.25874c-0.85191,1.14704 -2.11488,2.78667 -1.43021,4.04072c0.54822,1.00412 2.27493,-0.59278 3.40609,-0.42166c0.97013,0.14676 1.92459,0.3691 2.87246,0.62395c0.78528,3.61732 1.48066,7.24958 2.03206,10.90586c-2.20942,-0.38638 -4.57407,-0.96485 -7.32988,-1.82833z"/><path d="M93.50652,64.99014c-1.16195,0.62021 -2.10268,1.51341 -3.5445,2.15482c-3.58975,1.59693 -6.92235,2.52281 -10.84457,3.07148c-0.87938,0.12301 -4.5655,0.65145 -4.87824,0.61424c-0.68196,-0.08115 -1.43181,-0.21724 -2.17919,-0.43005c-1.54995,0.31733 -3.14026,0.37355 -4.95701,0.05059c-0.70261,0.02869 -2.75179,-0.07985 -3.36833,-2.23776c-1.03992,0.85445 -1.90088,1.98747 -2.99178,2.75855c-2.24707,1.58831 -4.37334,1.72042 -6.98746,2.07674c-1.52175,0.20743 -3.7799,0.68803 -5.34697,0.20955c-0.40906,-0.1249 -0.83963,-0.23631 -1.26899,-0.35783c-1.39091,-0.18407 -2.7176,-0.8874 -4.3569,-1.68636c-0.35923,0.14698 -0.71758,0.29491 -1.03997,0.48177c0,0 -2.96096,1.46972 -4.43067,-1.49124c-1.19318,-2.40384 0.53387,-3.82482 1.22601,-4.27444c-0.10322,-0.58151 -0.08404,-1.15634 0.12906,-1.70395c0.35148,-0.90322 1.23256,-1.43877 2.29234,-1.74447c0.23684,-0.88659 0.46318,-1.79128 0.85684,-2.49662c0.62185,-1.11419 4.07813,-5.20316 5.89376,-5.88215c1.87081,-0.69962 3.43382,-0.6823 4.83828,-0.17673c0.9608,-0.89949 2.11583,-1.44885 3.58676,-0.99897c1.71863,0.52563 2.56928,2.4569 3.73183,3.88305c1.70367,-0.81345 3.41405,-1.61027 5.06281,-2.49791c0.83736,-0.45081 1.51212,-1.19482 2.39277,-1.55377c0.58879,-0.23999 4.00823,-0.62602 4.72903,-0.71544c1.71069,0.30692 3.49967,0.32414 5.13206,0.92076c0.06836,0.02498 0.14563,0.07271 0.23056,0.13802c0.17759,0.00836 0.34762,0.03773 0.50828,0.09123c0.86313,0.28742 1.54164,0.90867 2.12854,1.64812c0.18088,-0.10349 0.35706,-0.21401 0.52588,-0.33544c0.55465,-0.39895 0.98575,-1.01512 1.45018,-1.55613c0.10687,-0.36362 0.23132,-0.71756 0.42291,-1.02887c0.67394,-1.09506 1.24239,-2.32931 2.24016,-3.14037c0.60274,-0.48994 1.56127,-0.20831 2.27013,-0.52588c0.40023,-0.1793 0.55374,-0.71784 0.94558,-0.91478c2.56961,-1.29149 5.08226,-4.19717 7.8772,-3.51955c5.15893,1.25075 7.16831,2.45231 7.50173,3.44762c0.69636,0.0719 1.44087,0.12159 2.29644,0.06578c4.65618,-0.30373 4.85032,-1.16387 8.52581,-0.76943c1.19211,0.12794 2.61206,-0.15227 3.5467,0.59871c0.37601,0.30212 0.70488,0.64819 1.00313,1.02281c1.33007,0.27472 2.40608,1.35819 2.60501,2.78025c0.25292,1.80805 -1.00776,3.47881 -2.81582,3.73173l-1.66412,0.23279c-0.64776,0.67881 -1.17612,1.5367 -2.02564,1.9129c-1.28878,0.57072 -2.79936,0.37975 -4.16574,0.72572c-1.16756,0.29562 -2.23858,0.91566 -3.4107,1.19262c-2.27331,0.53716 -4.58595,0.91097 -6.91405,1.22276c0.08107,0.21927 0.13998,0.45055 0.17369,0.69157c0.25292,1.80805 -1.00776,3.47881 -2.81582,3.73173l-2.8071,0.39268l-0.01993,-0.14247c-0.14443,0.06172 -0.29055,0.11996 -0.43858,0.17435c-0.27849,0.10233 -0.56275,0.14985 -0.85145,0.15768z"/><path d="M154.45168,34.08991c-0.69693,0.16185 -1.35201,-0.15201 -1.35201,-0.15201c-0.32807,-0.15718 -1.99733,-0.9475 -2.16537,-1.07582c-1.85533,-1.41679 -4.5133,-5.31171 -1.94329,-7.50405c1.07156,-0.91408 2.84134,0.07617 3.85032,0.55792c0.25864,0.12349 0.56723,0.17762 0.77433,0.37489c0.3767,-1.61046 1.59532,-3.11092 3.29419,-3.44888c0.80512,-1.8871 1.66288,-1.95111 3.4006,-2.61063c0.79404,-1.13407 2.07607,-0.66483 2.31428,-0.56459c0.18813,0.04127 0.36357,0.09635 0.52821,0.16337c1.92355,0.21751 3.50811,0.6273 5.10393,1.89125c0.38281,0.3032 0.82472,0.55406 1.14426,0.92005c0.17458,-0.11496 0.35859,-0.20973 0.56012,-0.26684c1.7743,-0.5028 3.41627,0.59874 4.90322,1.33191c0.54546,0.26895 1.14215,0.45777 1.62808,0.82345c0.41685,0.3137 0.62898,0.84502 1.03094,1.17757c0.27805,0.23003 0.70086,0.23944 0.97102,0.47868c1.10837,0.98153 2.78567,3.18526 3.01588,4.66487c0.17806,1.14441 0.49783,2.44781 -0.03847,3.47434c-1.69225,3.2391 -4.92708,1.2746 -7.03625,0.26407c-0.9258,-0.44356 -1.86347,-0.86955 -2.77999,-1.33193c-0.05017,-0.02531 -0.10716,-0.045 -0.16563,-0.06364c-0.34445,0.57576 -0.70987,1.18389 -1.30018,1.46077c-0.81294,0.3813 -1.79545,0.31663 -2.68613,0.20277c-0.7133,-0.09119 -2.52437,-1.01178 -3.27084,-1.59302c-0.2639,0.32523 -0.5079,0.69659 -0.88132,0.87586c-0.50619,0.24302 -1.12848,0.10877 -1.65875,0.29343c-0.49036,0.17077 -0.84872,0.67226 -1.36083,0.7581c-0.54428,0.09124 -1.08784,-0.18969 -1.63574,-0.25578c-1.15534,-0.13936 -2.96632,-0.17276 -4.24461,-0.84613z"/><path d="M260.95627,54.89439c-1.86764,-0.26531 -3.20348,-0.60484 -5.507,-2.10229c-0.76806,-0.49929 -1.05745,-1.53682 -1.79316,-2.08266c-0.44247,-0.32827 -1.13523,-0.12871 -1.59551,-0.43148c-1.01566,-0.66809 -2.20417,-1.32059 -2.73253,-2.41546c-1.8556,-3.84514 0.08296,-7.88304 3.5658,-9.85831c0.92021,-0.52189 2.01797,-0.63638 3.03292,-0.93475c3.24388,-0.95363 6.50525,-1.68619 9.8551,-0.40044c0.84403,0.32396 1.48804,1.01385 2.20357,1.57839c1.05271,-0.06695 2.11081,-0.10503 3.19079,-0.09849c0.91802,-0.62359 1.87776,-1.18859 2.76267,-1.85822c0.9688,-0.50878 1.83327,-1.31228 2.9064,-1.52635c1.81616,-0.3623 5.76252,0.289 7.6975,0.55519c0.67511,0.09287 1.75727,0.00188 2.32532,0.29937c0.13767,-0.38491 0.34752,-0.74744 0.61848,-1.04255c0.90443,-0.98506 1.83911,-2.08529 3.08963,-2.55915c1.0346,-0.39204 2.2141,0.03841 3.31655,0.13168c3.77814,0.31965 7.7454,0.72683 10.69208,3.36502c0.57275,0.51279 1.00764,1.16755 1.42662,1.81211c0.10751,0.16539 -0.03801,0.4699 0.127,0.578c0.54069,0.35421 1.29694,-0.13284 1.909,-0.34068c1.02396,-0.3477 1.91667,-1.08422 2.97959,-1.28319c2.09907,-0.39291 5.19581,0.23439 7.26269,0.54081c2.49216,1.17858 5.01358,2.09385 6.83312,4.30891c0.66879,0.81416 1.25278,1.73171 1.59808,2.72716c0.98139,2.82921 0.373,7.12355 -0.38435,10.00389c-0.26994,1.02663 -0.41437,2.17056 -1.08358,2.99458c-0.84604,1.04175 -1.98423,1.9519 -3.26337,2.35791c-1.86626,0.59238 -6.97112,-0.56755 -8.72923,-1.41846c-1.2992,-0.6288 -2.11517,-2.06624 -3.44876,-2.61837c-0.94698,-0.39207 -3.68103,1.30572 -4.46462,1.47681c-2.43761,0.53222 -5.09131,0.72246 -7.56314,0.43549c-0.30303,-0.04169 -4.53345,-0.60886 -4.88537,-0.71453c-1.42552,-0.42803 -1.42269,-1.07158 -2.70009,-0.99747c-1.88423,0.10931 -3.13562,0.99134 -4.92177,1.38063c-5.3216,1.15987 -11.08529,0.90601 -16.44032,0.16933c-0.23036,-0.03169 -5.24378,-0.68637 -5.72864,-0.87605c-0.76436,-0.29901 -1.47431,-0.69886 -2.15145,-1.15639z"/><path d="M441.39679,54.06878c-0.56362,0.09842 -0.92825,0.13309 -0.92825,0.13309c-6.87512,0.63508 -17.06612,1.49052 -23.8792,0.33343c-1.69715,-0.28823 -2.75899,-1.30841 -4.37999,-1.715c-1.4029,-0.35189 -3.17182,-0.08647 -4.50819,-0.51443c-8.22186,-2.63294 -7.59114,-3.36101 -10.12533,-8.34339c-1.39958,-0.61732 -2.70978,-1.2835 -3.8621,-2.01501c-0.94983,-0.03391 -1.83375,-0.12174 -2.37027,-0.27292c-3.26965,-0.92131 -6.7694,-2.10981 -8.47053,-3.95017c-5.1121,-5.53044 2.17846,-16.30882 13.51862,-17.59416c3.93757,-0.4463 7.93334,0.70524 11.9,1.05785c1.15072,0.78314 2.02327,1.73318 3.45213,2.34942c0.81826,0.3529 2.08268,0.24083 3.00485,0.4691c8.83463,-2.98555 22.93954,-3.12634 29.89396,1.80839c2.07075,1.46938 3.52448,3.2465 4.43361,5.05921c0.66689,1.32968 0.47743,2.77494 0.18409,4.14783c-0.07026,0.32882 -1.48861,0.41418 -1.22165,0.70835c0.66894,0.73715 2.85095,0.82746 3.32716,1.61184c1.51875,2.50163 1.3511,12.84779 -1.26636,14.65382c-2.00562,1.38387 -5.4301,1.78635 -8.70256,2.07276z"/></g></g></svg>