<svg version="1.1" xmlns="http://www.w3.org/2000/svg" xmlns:xlink="http://www.w3.org/1999/xlink" width="559.51531" height="186.91807" viewBox="0,0,559.51531,186.91807"><g transform="translate(36.19981,-229.51141)"><g data-paper-data="{&quot;isPaintingLayer&quot;:true}" fill-rule="nonzero" stroke="none" stroke-width="0.5" stroke-linecap="butt" stroke-linejoin="miter" stroke-miterlimit="10" stroke-dasharray="" stroke-dashoffset="0" style="mix-blend-mode: normal"><path d="M509.71971,310.54447c-0.35913,0.59197 -4.08501,4.43679 -5.07658,5.36032c-1.18012,1.09914 -2.16268,2.50788 -3.60806,3.2232c-5.18748,2.56729 -11.11832,2.07524 -16.69524,1.9735c-1.47321,-0.02687 -2.98132,0.19047 -4.41831,-0.13533c-1.75063,-0.3969 -3.258,-1.56679 -5,-2c-1.06926,-0.26591 -2.24457,0.23446 -3.30484,-0.06531c-1.43448,-0.40557 -2.56701,-1.58921 -4,-2c-2.61321,-0.74912 -5.5629,0.47386 -8.14698,-0.37027c-0.8962,-0.29276 -1.10624,-1.69986 -2,-2c-0.90909,-0.30529 -1.92006,0.59214 -2.85302,0.37027c-1.45027,-0.34489 -2.66667,-1.33333 -4,-2c-1.89839,0.02177 -3.82697,0.40325 -5.69516,0.06531c-1.76639,-0.31953 -3.258,-1.56679 -5,-2c-1.06926,-0.26591 -2.24457,0.23446 -3.30484,-0.06531c-1.43448,-0.40557 -2.53926,-1.70256 -4,-2c-1.63922,-0.33379 -3.35613,0.37305 -5.01589,0.16413c-3.7425,-0.47107 -7.44975,-1.24822 -11.10158,-2.19286c-4.15182,-1.07398 -8.05923,-3.06557 -12.27461,-3.85401c-2.5836,-0.48324 -5.25641,0.06958 -7.88478,0.08338c0,0 -12.83333,0 -14,0c-2.42654,0 -4.98017,-0.98379 -7.27685,-0.20063c-1.41094,0.48112 -2.55457,1.63536 -4,2c-2.68427,0.67717 -5.5996,-0.5225 -8.30484,0.06531c-1.75412,0.38114 -3.24685,1.61439 -5,2c-1.05813,0.23274 -2.20448,-0.48863 -3.24493,-0.18648c-1.15417,0.33517 -1.82217,1.76092 -3,2c-2.4341,0.49407 -5.00805,-0.33124 -7.45023,0.12118c-1.46577,0.27154 -2.55274,1.64271 -4,2c-1.46371,0.36135 -3.01452,0.06919 -4.52178,0.10379c-6.08937,2.30832 -12.58266,3.66153 -18.77528,5.69361c-2.03383,0.66739 -3.89879,1.90182 -6.00778,2.26791c-1.50056,0.26047 -3.06687,-0.78948 -4.54818,-0.43558c-0.917,0.21908 -1.10512,1.70322 -2,2c-1.63265,0.54146 -3.46679,0.00193 -5.14698,0.37027c-2.02065,0.44297 -3.37512,2.42562 -5.23153,3.3383c-1.99517,0.9809 -4.08145,1.77621 -6.1841,2.49853c-4.76725,1.63769 -10.04551,4.01118 -14.88921,5.22847c-2.8449,0.71496 -6.03137,-0.0041 -8.72307,1.16183c-1.13436,0.49135 -1.62703,2.09799 -2.82512,2.4026c-6.30143,1.60213 -14.48717,0.62583 -21.07149,0.47406c-14.09188,-4.51536 -28.56893,-6.58014 -43.10895,-9.01851c-6.82567,-1.14467 -13.37265,-3.60134 -20.14516,-5.02723c-5.81369,-1.22402 -11.80673,-1.59595 -17.54652,-3.12955c-1.7745,-0.47413 -3.38487,-1.53964 -5.19936,-1.82471c-3.94301,-0.61947 -8.10265,0.75438 -11.97201,-0.22497c-1.16511,-0.29489 -1.87125,-1.58725 -3,-2c-0.55196,-0.20184 -1.16438,0.36862 -1.74299,0.26562c-2.70619,-0.48174 -5.28111,-1.59606 -8,-2c-4.55753,-0.6771 -9.22816,0.36631 -13.82266,0.01969c-1.69486,-0.12786 -3.30777,-0.8411 -5,-1c-5.9409,-0.55785 -12.28805,0.0365 -18.26097,0.0365c-9,0 -18,0 -27,0c-2.52763,0 -5.1272,-0.73899 -7.58169,-0.13533c-1.74311,0.42871 -3.24937,1.6031 -5,2c-3.38653,0.7678 -7.1456,-0.56208 -10.50193,0.07913c-2.3057,0.44049 -4.55893,1.12443 -6.81947,1.75709c-5.51023,1.54218 -11.33945,3.43244 -16.33246,6.28592c-3.59702,2.05568 -6.47279,5.24302 -10.19217,7.10778c-4.31812,2.16495 -8.96307,3.70446 -13.65591,4.8492c-8.72123,0.09968 -21.13677,2.2144 -27.53896,-5.48029c-4.58714,-5.51321 -3.87741,-10.52089 -3.87741,-16.96352c0,-0.43631 -0.08488,-9.62701 0.20063,-10.72315c0.47611,-1.82785 1.64431,-3.40322 2.37027,-5.14698c1.052,-2.5269 0.99769,-4.51539 2.54922,-7.07286c0.70983,-1.17005 1.79012,-2.09702 2.8853,-2.9932c-0.00359,-0.11334 -0.00542,-0.22848 -0.00542,-0.34544c0,-4.88452 3.18114,-6.5879 5.39986,-7.18192c0.20587,-0.23749 0.44067,-0.44759 0.71481,-0.62077c2.11918,-1.33869 4.92355,-0.94379 7.38533,-1.41568c0,0 1.70281,0 3.48569,0.81137c6.30681,-1.18749 12.40994,-3.29966 18.70642,-4.87184c3.96655,-0.99041 8.01184,-1.67966 12.06886,-2.18466c0.76835,-0.09564 1.5707,0.29109 2.32073,0.09883c3.84947,-0.98677 7.30347,-3.3479 11.21694,-4.03848c1.96957,-0.34755 4.02721,0.3288 6,0c2.0795,-0.34658 3.92551,-1.62459 6,-2c1.46928,-0.26589 3.02108,0.42969 4.47822,0.10379c1.45477,-0.32537 2.53972,-1.70032 4,-2c5.7376,-1.17749 11.93875,0.66499 17.68289,-0.12814c2.4039,-0.33192 4.66667,-1.33333 7,-2c11.34676,-0.09099 22.6932,-0.07249 34.04026,-0.07249c5.48803,0 12.07713,-0.86352 17.41831,0.13533c1.76447,0.32997 3.24861,1.6065 5,2c1.17813,0.2647 2.43439,-0.28134 3.62195,-0.06283c13.67225,2.51561 26.9175,8.26512 40.77812,9.97229c2.4426,0.30085 4.95036,-0.32094 7.38299,0.05206c2.08383,0.31952 3.93387,1.58102 6,2c1.62594,0.32972 3.37405,-0.22102 4.97201,0.22497c1.15761,0.32309 1.8329,1.71309 3,2c1.24303,0.30558 2.55108,-0.21454 3.82662,-0.32181c5.66667,0 11.33333,0 17,0c2.42654,0 4.98017,0.98379 7.27685,0.20063c1.41094,-0.48112 2.54403,-1.68005 4,-2c1.48177,-0.32562 3.07754,0.48755 4.54977,0.12118c1.16628,-0.29024 1.83396,-1.7088 3,-2c1.86217,-0.46506 3.87418,0.1959 5.75507,-0.18648c1.75907,-0.35762 3.23852,-1.65446 5,-2c1.38985,-0.27264 2.87098,0.5304 4.24493,0.18648c1.16588,-0.29184 1.83998,-1.68569 3,-2c1.75081,-0.47439 3.63377,-0.06551 5.43435,-0.28531c6.69268,-0.817 13.27338,-3.00701 19.92066,-3.99172c3.63001,-0.53774 8.12623,-0.04478 11.81838,-0.04478c6.85339,0.02894 12.34328,-1.90916 19.08363,-2.94381c1.70581,-0.26184 3.46663,0.20796 5.17734,-0.01969c3.36964,-0.44841 6.62554,-1.58946 10,-2c8.5832,-1.04425 18.09895,-0.0365 26.73903,-0.0365c10.75832,0 21.7337,-0.59217 32.46603,0.01449c12.25813,0.69291 23.25819,6.5372 35.35234,8.03029c5.88388,0.7264 11.94481,-0.08065 17.75028,1.1211c3.27399,0.67773 6.31296,2.2166 9.52825,3.13322c3.87286,1.10408 7.81474,1.94989 11.72211,2.92483c3.69912,0.94409 7.33705,2.17283 11.09736,2.83226c1.73524,0.3043 3.55556,-0.29508 5.28499,0.04065c6.76198,1.3127 7.79282,2.81122 13.66876,5.47406c1.47447,0.6682 2.96082,1.17175 4.45219,1.64811c1.63898,0.16233 2.98442,0.82899 3.55012,1.14911c1.16186,0.40373 2.32349,0.85678 3.48167,1.42367l-1.3541,-0.7918c0,0 5.07314,0 6.87464,4.17238c4.41357,5.64508 2.93062,14.90599 -0.49476,20.55223z" fill="#fffaae"/><path d="M513.86055,323.14256c-7.07107,7.07107 -14.14214,0 -14.14214,0l-1.94109,-1.94109c-0.82904,0.18432 -1.66719,0.37153 -2.46324,0.15216c-1.24231,-0.34235 -1.99409,-1.73689 -3.21658,-2.14439c-1.01717,-0.33906 -2.19941,0.33906 -3.21658,0c-1.22249,-0.4075 -2.0073,-1.69924 -3.21658,-2.14439c-0.54362,-0.20011 -1.13737,0.44423 -1.70575,0.33242c-2.55297,-0.50221 -4.92961,-1.77642 -7.50536,-2.14439c-2.47664,-0.35381 -5.02997,0.36245 -7.50536,0c-5.73457,-0.83965 -11.12794,-3.39028 -16.85927,-4.25183c-1.5822,-0.23784 -3.22965,0.23997 -4.79943,-0.06941c-2.21772,-0.43709 -4.21571,-1.70595 -6.43317,-2.14439c-1.22998,-0.2432 -2.5061,0.08608 -3.75915,0.12913c-4.98858,0 -10.95627,0.80126 -15.8296,-0.18044c-1.88675,-0.38007 -3.47685,-1.75153 -5.36097,-2.14439c-1.36454,-0.28452 -2.78917,0.26433 -4.17879,0.15528c-2.51944,-0.19771 -4.98458,-0.89232 -7.50536,-1.07219c-14.94511,-1.06642 -30.34974,0.02516 -45.39547,0.02516c-3.21658,0 -6.43317,0 -9.64975,0c-2.94424,0 -5.97665,-0.90292 -8.83087,-0.18044c-1.8658,0.47229 -3.47423,1.76432 -5.36097,2.14439c-2.45252,0.49404 -5.09793,-0.68059 -7.50536,0c-1.11354,0.3148 -2.10366,0.96482 -3.15549,1.44723c-7.7011,3.86956 -15.28428,7.76893 -23.02935,11.52196c-1.72194,0.8344 -3.165,2.2422 -4.97423,2.86509c-1.20407,0.41455 -2.55765,-0.028 -3.8169,0.16157c-1.52643,0.22979 -2.12619,2.30924 -3.47338,3.0628c-2.66206,1.48902 -5.9154,1.5772 -8.71714,2.78302c-1.55076,0.66742 -2.7409,2.10656 -4.36428,2.57017c-1.86194,0.53173 -3.89594,-0.02196 -5.79961,0.33242c-2.55795,0.47618 -4.95239,1.64218 -7.50536,2.14439c-0.56839,0.11181 -1.16213,-0.53253 -1.70575,-0.33242c-1.20929,0.44515 -1.96567,1.83495 -3.21658,2.14439c-6.88868,1.70407 -16.24579,0.42908 -23.26954,0.42908c-2.18291,0 -12.39576,0.07486 -14.09167,-0.26751c-1.56673,-0.31629 -2.76506,-1.66172 -4.28878,-2.14439c-0.55909,-0.1771 -1.16078,0.29642 -1.74386,0.23344c-3.25291,-0.3514 -10.66493,-1.61906 -13.94267,-2.96517c-0.82932,-0.34059 -1.20342,-1.48466 -2.06889,-1.71861c-1.38006,-0.37306 -2.93803,0.46821 -4.28878,0c-4.18384,-1.45026 -8.16544,-5.33132 -11.58224,-7.9319c-1.24754,-0.94953 -2.36977,-2.28899 -3.90036,-2.62847c-1.04676,-0.23217 -2.18564,0.29455 -3.21658,0c-1.53684,-0.4391 -2.75737,-1.68671 -4.28878,-2.14439c-0.64167,-0.19177 -1.32253,0.30405 -1.99125,0.26751c-2.35796,-0.12885 -4.79185,-0.04916 -7.04342,-0.7612c-0.96383,-0.3048 -1.19972,-1.78457 -2.14439,-2.14439c-0.56639,-0.21573 -1.07895,0.72536 -1.68378,0.68628c-1.47052,-0.09502 -2.827,-0.88602 -4.28878,-1.07219c-1.6398,-0.20885 -3.34292,0.24664 -4.95802,-0.10551c-1.88047,-0.41001 -3.57398,-1.42959 -5.36097,-2.14439c-12.10862,0.91122 -24.58011,0.18044 -36.70792,0.18044c-3.57398,0 -7.14796,0 -10.72194,0c-1.96832,0 -3.99417,-0.60725 -5.90354,-0.12913c-3.71172,0.92944 -7.4255,2.22961 -11.25157,2.27351c-3.93112,0.04511 -7.86474,0.12477 -11.79414,0c-1.02452,-0.03253 -2.07026,-0.52105 -3.06344,-0.26751c-1.54867,0.39534 -2.73764,1.75884 -4.28878,2.14439c-1.19433,0.29686 -2.5056,-0.50124 -3.68847,-0.16157c-1.23856,0.35566 -1.97435,1.80178 -3.21658,2.14439c-1.96962,0.54322 -4.07628,0.28605 -6.11442,0.42908c-1.93751,0 -3.94521,0.49077 -5.83284,0.14204c-0.03449,0.04632 -0.0729,0.08562 -0.1142,0.11477c-2.70238,1.90743 -5.6326,3.48645 -8.58942,4.96916c-4.64522,2.32937 -9.28212,4.80795 -14.25966,6.30066c-0.83693,0.25099 -1.77617,-0.40173 -2.61627,-0.16157c-0.52605,0.15038 -0.63128,0.93247 -1.09516,1.22257c-3.09368,1.9347 -6.18558,3.99732 -9.62679,5.2106c-1.20098,0.42343 -2.59206,-0.18688 -3.8169,0.16157c-1.53733,0.43735 -2.72836,1.79832 -4.28878,2.14439c-2.44244,0.54169 -5.15176,-0.84823 -7.50536,0c-1.50366,0.54191 -2.72836,1.79832 -4.28878,2.14439c-2.14512,0.47575 -4.39087,0.17834 -6.58631,0.26751c0,0 -10,0 -10,-10c0,-10 10,-10 10,-10c2.16538,0.2909 4.15847,-1.35489 6.28003,-1.87688c2.42934,-0.59771 5.10834,0.71639 7.50536,0c1.5314,-0.45768 2.75253,-1.70325 4.28878,-2.14439c0.83981,-0.24116 1.77617,0.40173 2.61627,0.16157c0.52605,-0.15038 0.63128,-0.93247 1.09516,-1.22257c3.09368,-1.9347 6.18558,-3.99732 9.62679,-5.2106c1.20098,-0.42343 2.58611,0.16526 3.8169,-0.16157c0.90323,-0.23985 1.53434,-1.08343 2.37883,-1.48367c2.27271,-1.07715 4.69874,-1.8159 6.94979,-2.93761c2.19752,-1.09504 4.35309,-2.28526 6.4213,-3.6084c1.48692,-0.95125 2.5037,-2.67325 4.16466,-3.27076c3.76572,-1.35467 9.37972,-0.7612 13.47658,-0.7612c0.78108,1.05146 2.27549,-1.3569 3.53533,-1.71531c1.56836,-0.44618 3.30766,0.23577 4.88909,-0.16157c1.55015,-0.38948 2.72205,-1.8281 4.28878,-2.14439c1.63411,-0.32989 10.56801,-0.26751 13.01947,-0.26751c2.68299,0 5.4453,0.78084 8.04793,0.12913c2.19268,-0.54907 4.21756,-1.6967 6.43317,-2.14439c6.10207,-1.233 13.63241,-0.12913 19.82913,-0.12913c13.48998,0 27.00481,-0.2133 40.49007,0.18044c1.78699,0.7148 3.48409,1.71827 5.36097,2.14439c1.17707,0.26723 2.42143,-0.25196 3.61954,-0.10551c1.4627,0.1788 2.83308,0.84328 4.28878,1.07219c2.28125,0.35873 4.69005,-0.00391 6.89378,0.68628c0.65761,0.20596 1.06627,0.81307 1.49763,1.39313c0.00896,-0.00528 0.02102,-0.00867 0.03651,-0.00995c2.18979,-0.1809 4.44118,-0.20824 6.58631,0.26751c1.56042,0.34607 2.75194,1.70529 4.28878,2.14439c1.03094,0.29455 2.1941,-0.3227 3.21658,0c3.82921,1.20854 7.84538,3.52986 11.11036,5.94908c1.83872,1.36242 3.64762,2.77171 5.36097,4.28878c0.16959,0.15016 -0.01232,0.61349 0.2119,0.64565c1.41511,0.20301 2.91836,-0.40705 4.28878,0c1.6184,0.4807 2.82533,1.87595 4.36428,2.57017c3.73017,1.68268 8.40272,0.55385 12.19052,1.55704c1.54506,0.40921 2.74011,1.74904 4.28878,2.14439c0.99318,0.25354 2.03882,-0.23865 3.06344,-0.26751c2.14354,-0.06038 4.28878,0 6.43317,0c4.28878,0 8.57756,0 12.86633,0c1.07219,0 2.14901,-0.09942 3.21658,0c0.48311,0.04499 0.93622,0.59836 1.39094,0.42908c1.20764,-0.44959 1.98637,-1.76083 3.21658,-2.14439c1.50809,-0.4702 3.17913,-0.01894 4.72741,-0.33242c2.55015,-0.51634 4.94294,-1.69288 7.50536,-2.14439c0.91844,-0.16183 1.88131,0.58886 2.77795,0.33242c0.86197,-0.24652 1.24432,-1.36668 2.06889,-1.71861c1.98392,-0.84675 4.56631,-0.21367 6.29359,-1.50575c2.90731,-2.17481 5.96033,-4.33181 9.39295,-5.51476c0.82607,-0.28468 1.78163,0.42006 2.61627,0.16157c0.64908,-0.20102 0.85619,-1.11 1.45894,-1.42369c3.7082,-1.9299 7.78308,-3.11715 11.43036,-5.15985c4.22467,-2.36607 8.35604,-4.73509 12.71685,-6.90647c2.52215,-0.94718 4.94578,-2.21668 7.56646,-2.84155c2.43357,-0.58025 5.08007,0.61391 7.50536,0c1.8658,-0.47229 3.47423,-1.76432 5.36097,-2.14439c6.91548,-1.39308 15.1912,-0.18044 22.26277,-0.18044c15.53572,0 31.35952,-1.02871 46.81325,0.02516c2.52133,0.17194 4.98777,0.85222 7.50536,1.07219c2.17339,0.1899 4.40109,-0.25853 6.54316,0.15528c1.88971,0.36506 3.49517,1.6721 5.36097,2.14439c0.77699,0.19668 1.59643,-0.1618 2.3977,-0.18044c3.21571,-0.07478 6.43317,0 9.64975,0c2.32093,0.04304 4.67419,-0.25929 6.96279,0.12913c2.22852,0.37822 4.21805,1.69427 6.43317,2.14439c1.23436,0.25083 2.53377,-0.26473 3.77812,-0.06941c3.71273,0.58275 7.37014,1.48761 11.01793,2.39182c2.17337,0.53873 4.21513,1.62618 6.43302,1.93391c2.47805,0.34382 5.02872,-0.35381 7.50536,0c2.57575,0.36796 4.95521,1.62805 7.50536,2.14439c1.54828,0.31349 3.21932,-0.13778 4.72741,0.33242c1.23021,0.38356 1.99409,1.73689 3.21658,2.14439c1.01717,0.33906 2.19941,-0.33906 3.21658,0c1.22249,0.4075 1.98016,1.78135 3.21658,2.14439c1.67218,0.49099 3.62133,-0.36691 5.21777,0.33212c2.10735,0.92275 3.59241,2.87474 5.38862,4.31212l2.14439,2.14439c0,0 7.07107,7.07107 0,14.14214z" fill="#f5efa6"/><path d="M509.87627,361.45353c0.31795,1.18781 0.31795,2.09967 0.31795,2.09967v3.21658c-0.10727,1.79665 0.17398,3.65974 -0.32181,5.38996c-0.35497,1.23876 -1.8935,1.95262 -2.14439,3.21658c-0.40588,2.04477 0.45159,4.172 0.26562,6.24835c-0.31238,3.4878 -2.35837,10.71916 -4.28051,13.74855c-3.35694,5.29073 -9.60693,7.74754 -14.87888,10.29974c-1.51519,0.73351 -2.74561,2.04019 -4.33834,2.58521c-1.01444,0.34713 -2.18963,-0.30817 -3.21658,0c-0.69609,0.20888 -0.98988,1.10068 -1.62551,1.45302c-2.03688,1.12908 -4.08113,2.35199 -6.33008,2.95693c-1.69812,0.45677 -3.52617,-0.03895 -5.27289,0.16413c-1.81018,0.21045 -3.54922,0.8756 -5.36097,1.07219c-1.19659,0.12984 -2.436,-0.36643 -3.6095,-0.09883c-1.87648,0.4279 -3.47589,1.75612 -5.36097,2.14439c-4.31383,0.88853 -8.80807,0.13533 -13.21245,0.13533c-65.40386,0 -130.80772,0 -196.21158,0c-46.81916,0 -93.63831,0 -140.45747,0c-11.08292,0 -22.16583,0 -33.24875,0c-8.7985,0 -17.6357,0.79415 -26.39549,-0.03031c-4.10203,-0.38607 -8.08653,-1.60544 -12.1654,-2.18721c-6.55077,-0.93435 -13.16595,-1.344 -19.74165,-2.08274c-8.60637,-0.04806 -16.20935,-1.25387 -24.10156,-4.9355c-2.064,-0.96283 -4.28427,-1.75578 -6.02196,-3.22805c-1.68858,-1.43066 -6.84039,-8.70056 -7.73356,-11.09012c-0.29552,-0.79062 0.51619,-1.71918 0.24909,-2.51984c-0.15231,-0.45657 -1.04758,-0.21915 -1.29961,-0.62919c-1.34753,-2.19239 -2.65442,-4.47602 -3.35944,-6.95096c-0.50074,-1.75783 -0.00608,-3.66097 -0.18176,-5.48026c-0.48478,-5.02025 -2.07108,-9.08362 -0.52016,-14.12374c0.2973,-0.96617 1.60451,-1.28976 2.14439,-2.14439c0.11889,-0.1882 -0.55035,-0.12481 -0.5709,-0.34646c-0.16019,-1.72774 -0.4009,-3.53129 0.05619,-5.20515c0.88424,-3.2381 1.50508,-6.93243 3.90041,-9.28394c1.43951,-1.41318 4.19929,0.37109 6.03358,-0.46834c0.69539,-0.31823 -0.4627,-1.68767 0.00306,-2.29422c1.44543,-1.88237 3.22397,-3.65084 5.35858,-4.68816c1.28581,-0.62484 2.90663,0.36524 4.28878,0c0.46533,-0.12297 0.41946,-0.86641 0.62919,-1.29961c1.42959,-0.7148 2.94614,-1.27723 4.28878,-2.14439c1.32311,-0.85455 2.17767,-2.45552 3.65959,-2.98917c2.024,-0.72887 4.78308,0.85806 6.4325,-0.52298c1.65275,-1.38383 2.87283,-1.17317 4.69659,-2.26571c0.2129,-0.12755 6.99823,-2.64017 10.12416,-3.087c0.67004,-0.09578 4.69973,-1.2583 5.55161,-1.62968c2.57285,-1.12164 6.34954,-2.45184 8.84558,-3.38017c4.349,-1.61748 5.92896,-2.18136 10.32684,-3.37265c4.20373,-1.13869 6.22446,-2.04211 10.47627,-2.98559c1.65627,-0.36752 5.22417,-1.36765 6.91305,-1.52888c3.08629,-0.29463 6.60433,-0.83572 9.67518,-1.26218c3.75501,-0.52146 7.48909,-0.90776 11.31512,-0.90776c2.57573,0.04292 5.09966,-0.74245 7.66118,-1.016c10.74757,-1.14776 22.28476,-0.05619 33.08221,-0.05619c5.64705,0 10.50361,-1.07579 15.98859,0.32181c1.24871,0.31818 5.13577,1.73159 6.35648,2.14439c0.87436,0.29567 4.61931,1.69193 6.18293,2.02321c2.4748,0.52433 5.13098,-0.26306 7.58015,0.37027c0.97868,0.25308 9.02702,1.29117 11.0974,1.8953c1.25158,0.36521 6.76091,4.1205 8.42004,5.22659c2.06219,2.02339 6.85372,1.47056 9.59584,2.5981c1.58678,0.65247 8.99173,3.65668 10.55791,4.21854c1.31651,0.47228 7.69168,3.70986 9.65042,4.83799c2.77817,1.60008 5.16435,4.62199 8.50211,5.51368c0.93793,0.25057 6.38544,1.70163 8.27271,2.07908c1.75229,0.35046 5.87638,0.87061 7.62867,1.22107c1.88727,0.37746 8.6359,1.72265 10.0967,1.91638c3.46771,0.45988 7.36621,-0.05619 10.87776,-0.05619c8.57756,0 17.15511,0 25.73267,0c3.56329,0 7.16223,-0.12352 10.72194,0c0.50199,0.01742 1.01734,0.36068 1.49344,0.20063c1.51502,-0.50929 6.18077,-1.72753 7.05513,-2.02321c1.22071,-0.4128 9.32143,-1.54881 12.24437,-2.26557c1.55234,-0.38067 7.49818,-1.87454 8.57756,-2.14439c1.55061,-0.38765 6.98431,-2.09448 8.31214,-2.28883c3.50472,-0.51298 6.54542,-2.533 10.08735,-2.56471c2.01528,0.27074 4.29022,-0.00666 6.26098,-0.50744c1.01788,-0.25865 7.93319,-0.20063 9.22851,-0.20063c0.54926,0 9.93102,-0.01929 10.56612,0.05619c1.46329,0.17391 2.8324,0.84762 4.28878,1.07219c2.7162,0.41883 5.98158,-0.05619 8.73338,-0.05619c6.43317,0 12.86633,0 19.2995,0c5.00226,0 11.00022,-0.67367 15.9271,0.05619c2.91537,0.43188 5.66756,1.67775 8.57756,2.14439c3.58023,0.57412 7.25179,-0.05619 10.87776,-0.05619c2.0289,0.1903 4.15148,-0.0675 6.08671,0.5709c0.95999,0.31668 6.04833,0.08237 7.64551,0.48822c1.5491,0.39364 4.22917,0.7241 5.789,1.07281c1.57457,0.352 5.64841,1.47117 6.76987,1.61135c1.77319,0.22165 3.80424,0.619 5.57528,0.85726c2.48449,0.33425 4.0963,1.31681 6.57743,1.67511c1.47849,0.21351 4.11971,1.1048 5.54517,1.55152c1.22964,0.38536 5.79743,0.90625 6.84581,1.35019c1.91921,0.81271 4.60471,0.4037 6.42626,1.41652c2.36344,1.31411 6.38393,3.02617 8.48895,3.47998c2.34399,0.50533 4.4854,1.69699 6.7281,2.54549c0,0 6.56488,2.62595 4.39662,9.15268z" data-paper-data="{&quot;index&quot;:null}" fill="#d59213"/><path d="M-17.90739,345.80564c-2.16826,-6.52673 4.39662,-9.15268 4.39662,-9.15268c2.2427,-0.8485 4.38411,-2.04016 6.7281,-2.54549c2.10502,-0.45381 6.12551,-2.16587 8.48895,-3.47998c1.82155,-1.01282 4.50705,-0.60381 6.42626,-1.41652c1.04838,-0.44394 5.61617,-0.96483 6.84581,-1.35019c1.42546,-0.44672 4.06668,-1.33801 5.54517,-1.55152c2.48113,-0.3583 4.09294,-1.34086 6.57743,-1.67511c1.77104,-0.23826 3.80209,-0.63561 5.57528,-0.85726c1.12146,-0.14018 5.1953,-1.25935 6.76987,-1.61135c1.55983,-0.34871 4.2399,-0.67917 5.789,-1.07281c1.59718,-0.40585 6.68552,-0.17154 7.64551,-0.48822c1.93523,-0.6384 4.05781,-0.3806 6.08671,-0.5709c3.62597,0 7.29753,0.63031 10.87776,0.05619c2.91,-0.46664 5.66219,-1.71251 8.57756,-2.14439c4.92688,-0.72986 10.92484,-0.05619 15.9271,-0.05619c6.43317,0 12.86633,0 19.2995,0c2.7518,0 6.01718,0.47502 8.73338,0.05619c1.45638,-0.22457 2.82549,-0.89828 4.28878,-1.07219c0.6351,-0.07548 10.01686,-0.05619 10.56612,-0.05619c1.29532,0 8.21063,-0.05802 9.22851,0.20063c1.97076,0.50078 4.2457,0.77818 6.26098,0.50744c3.54193,0.03171 6.58263,2.05173 10.08735,2.56471c1.32783,0.19435 6.76153,1.90118 8.31214,2.28883c1.07938,0.26985 7.02522,1.76372 8.57756,2.14439c2.92294,0.71676 11.02366,1.85277 12.24437,2.26557c0.87436,0.29568 5.54011,1.51392 7.05513,2.02321c0.4761,0.16005 0.99145,-0.18321 1.49344,-0.20063c3.55971,-0.12352 7.15865,0 10.72194,0c8.57756,0 17.15511,0 25.73267,0c3.51155,0 7.41005,0.51607 10.87776,0.05619c1.4608,-0.19373 8.20943,-1.53892 10.0967,-1.91638c1.75229,-0.35046 5.87638,-0.87061 7.62867,-1.22107c1.88727,-0.37745 7.33478,-1.82851 8.27271,-2.07908c3.33776,-0.89169 5.72394,-3.9136 8.50211,-5.51368c1.95874,-1.12813 8.33391,-4.36571 9.65042,-4.83799c1.56618,-0.56186 8.97113,-3.56607 10.55791,-4.21854c2.74212,-1.12754 7.53365,-0.57471 9.59584,-2.5981c1.65913,-1.10609 7.16846,-4.86138 8.42004,-5.22659c2.07038,-0.60413 10.11872,-1.64222 11.0974,-1.8953c2.44917,-0.63333 5.10535,0.15406 7.58015,-0.37027c1.56362,-0.33128 5.30857,-1.72754 6.18293,-2.02321c1.22071,-0.4128 5.10777,-1.82621 6.35648,-2.14439c5.48498,-1.3976 10.34154,-0.32181 15.98859,-0.32181c10.79745,0 22.33464,-1.09157 33.08221,0.05619c2.56152,0.27355 5.08545,1.05892 7.66118,1.016c3.82603,0 7.56011,0.3863 11.31512,0.90776c3.07085,0.42646 6.58889,0.96755 9.67518,1.26218c1.68888,0.16123 5.25678,1.16136 6.91305,1.52888c4.25181,0.94348 6.27254,1.8469 10.47627,2.98559c4.39788,1.19129 5.97784,1.75517 10.32684,3.37265c2.49604,0.92833 6.27273,2.25853 8.84558,3.38017c0.85188,0.37138 4.88157,1.5339 5.55161,1.62968c3.12593,0.44683 9.91126,2.95945 10.12416,3.087c1.82376,1.09254 3.04384,0.88188 4.69659,2.26571c1.64942,1.38104 4.4085,-0.20589 6.4325,0.52298c1.48192,0.53365 2.33648,2.13462 3.65959,2.98917c1.34264,0.86716 2.85919,1.42959 4.28878,2.14439c0.20973,0.4332 0.16386,1.17664 0.62919,1.29961c1.38215,0.36524 3.00297,-0.62484 4.28878,0c2.13461,1.03732 3.91315,2.80579 5.35858,4.68816c0.46576,0.60655 -0.69233,1.97599 0.00306,2.29422c1.83429,0.83943 4.59407,-0.94484 6.03358,0.46834c2.39533,2.35151 3.01617,6.04584 3.90041,9.28394c0.45709,1.67386 0.21638,3.47741 0.05619,5.20515c-0.02055,0.22165 -0.68979,0.15826 -0.5709,0.34646c0.53988,0.85463 1.84709,1.17822 2.14439,2.14439c1.55092,5.04012 -0.03538,9.10349 -0.52016,14.12374c-0.17568,1.81929 0.31898,3.72243 -0.18176,5.48026c-0.70502,2.47494 -2.01191,4.75857 -3.35944,6.95096c-0.25203,0.41004 -1.1473,0.17262 -1.29961,0.62919c-0.2671,0.80066 0.54461,1.72922 0.24909,2.51984c-0.89317,2.38956 -6.04498,9.65946 -7.73356,11.09012c-1.73769,1.47227 -3.95796,2.26522 -6.02196,3.22805c-7.89221,3.68163 -15.49519,4.88744 -24.10156,4.9355c-6.5757,0.73874 -13.19088,1.14839 -19.74165,2.08274c-4.07887,0.58177 -8.06337,1.80114 -12.1654,2.18721c-8.75979,0.82446 -17.59699,0.03031 -26.39549,0.03031c-11.08292,0 -22.16583,0 -33.24875,0c-46.81916,0 -93.63831,0 -140.45747,0c-65.40386,0 -130.80772,0 -196.21158,0c-4.40438,0 -8.89862,0.7532 -13.21245,-0.13533c-1.88508,-0.38827 -3.48449,-1.71649 -5.36097,-2.14439c-1.1735,-0.2676 -2.41291,0.22867 -3.6095,0.09883c-1.81175,-0.19659 -3.55079,-0.86174 -5.36097,-1.07219c-1.74672,-0.20308 -3.57477,0.29264 -5.27289,-0.16413c-2.24895,-0.60494 -4.2932,-1.82785 -6.33008,-2.95693c-0.63563,-0.35234 -0.92942,-1.24414 -1.62551,-1.45302c-1.02695,-0.30817 -2.20214,0.34713 -3.21658,0c-1.59273,-0.54502 -2.82315,-1.8517 -4.33834,-2.58521c-5.27195,-2.5522 -11.52194,-5.00901 -14.87888,-10.29974c-1.92214,-3.02939 -3.96813,-10.26075 -4.28051,-13.74855c-0.18597,-2.07635 0.6715,-4.20358 0.26562,-6.24835c-0.25089,-1.26396 -1.78942,-1.97782 -2.14439,-3.21658c-0.49579,-1.73022 -0.21454,-3.59331 -0.32181,-5.38996v-3.21658c0,0 0,-0.91186 0.31795,-2.09967z" fill="#d59213"/><path d="M-0.82353,368.04598c-0.04498,-0.02342 -0.08994,-0.04739 -0.13485,-0.07192c-1.16184,0.0747 -2.34043,-0.03035 -3.50685,-0.00478c0,0 -7.5,0 -7.5,-7.5c0,-7.5 7.5,-7.5 7.5,-7.5c3.24792,0.15608 5.14357,-1.48179 8.44838,-2.04754c0.74116,-0.12688 4.22991,-1.53918 5.46115,-1.91942c1.48407,-0.45832 8.20241,-1.14112 10.0119,-1.3575c0.74089,-0.0886 4.95585,-1.65748 6.52125,-1.98026c2.80028,-0.5774 11.31724,-1.75075 12.86634,-2.14439c0.86365,-0.21946 14.51223,-1.84842 16.08292,-2.14439c1.25133,-0.23579 9.81768,-0.20063 12.44509,-0.20063c10.36455,0 20.72909,0 31.09364,0c2.50179,0 13.88287,-1.55012 15.43197,-1.94376c4.19816,-1.06678 10.2991,-0.20063 14.58948,-0.20063c11.43674,0 22.87348,0 34.31022,0c15.72552,0 31.45104,0 47.17656,0c8.98195,0 17.60749,-0.09319 26.4717,1.10869c1.53914,0.20869 3.16687,-0.17301 4.65093,0.28531c1.23124,0.38024 6.01204,0.76746 6.81027,0.96725c1.86705,0.46731 9.18265,2.68127 11.41703,3.32153c1.23876,0.35497 5.81288,1.71397 7.05512,2.02321c1.551,0.3861 6.79396,1.88323 7.9556,2.26557c1.22402,0.40287 4.01596,1.01659 4.37883,0.98918c2.85106,-0.21539 5.59931,0.8334 8.45851,0.8334c2.49443,0 4.00568,0.29025 6.40485,-0.39253c1.2394,-0.35272 3.06077,-1.03736 4.28809,-1.43005c1.33171,-0.42609 6.28438,-1.15182 7.40518,-1.29716c0.901,-0.11685 4.0855,-0.63913 4.54647,-0.98161c1.15909,-0.86114 2.3407,-1.70683 3.61238,-2.39084c2.05102,-1.10319 4.10434,-2.27152 6.33008,-2.95693c0.66978,-0.20626 3.49919,-1.05932 4.21399,-1.77412c5.95654,-0.50544 9.50537,-3.3645 15.60729,-4.76284c1.13778,-0.26074 8.23261,-1.84843 10.72195,-2.14439c0.88131,-0.10478 3.80442,-1.35365 4.76441,-1.67033c1.93523,-0.6384 4.05198,-0.45894 6.08671,-0.5709c5.31504,-0.29246 10.76366,0 16.08292,0c14.502,0 29.00451,-0.03642 43.50638,0.02555c3.73593,0.62266 7.55454,0.61329 11.30471,1.14348c1.11906,0.15821 15.47872,-0.19728 21.34371,1.29716c1.24872,0.31818 6.13593,1.73402 7.50536,2.14439c1.61255,0.48322 5.20773,1.83895 6.71668,2.58521c3.4183,1.69054 5.37027,1.71408 8.74371,3.42745c1.90854,0.96935 3.02321,3.16815 4.96087,4.07791c3.33097,1.56395 6.48719,-0.0392 9.22235,4.49643c5.33318,8.84385 -1.01051,16.40855 -6.69037,21.97953c-2.50927,1.67285 -4.36814,4.5155 -7.24576,5.41781c-7.06016,2.21378 -14.97719,-0.89124 -22.04045,0.47406c-2.2193,0.42898 -4.19408,1.83485 -6.43317,2.14439c-8.85986,1.22483 -19.06228,0.09684 -28.00623,0.09684c-40.02859,0 -80.05718,0 -120.08578,0c-71.12223,0 -142.24446,0 -213.36669,0c-5.77034,0 -11.58212,-0.74725 -17.31093,-0.05619c-2.92597,0.35296 -5.65476,1.76603 -8.57756,2.14439c-0.48935,0.06335 -9.05354,0.05619 -11.63832,0.05619c-6.79056,0 -13.58113,0 -20.37169,0c-6.68113,0 -14.62035,1.15567 -20.85035,-2.0457c-4.73374,-2.4325 -7.20164,-7.03284 -8.74598,-11.81613z" fill="#b97e11"/><g><g data-paper-data="{&quot;index&quot;:null}" fill="#d9d393"><path d="M147.56018,277.50658c0.42335,-3.80677 2.63862,-7.7302 5.88868,-9.54326l-0.22371,-0.3915l1.23946,-0.70827c0.15924,-0.09494 0.34537,-0.14949 0.54424,-0.14949c0.58775,0 1.06423,0.47647 1.06423,1.06423c0,0.24971 -0.08601,0.47932 -0.23001,0.66086l-1.20138,1.54464c-1.6457,3.30151 -1.38871,6.98175 0.24273,10.23425c0,0 0.47593,0.95187 -0.47594,1.42781c-0.1549,0.07745 -0.2972,0.11709 -0.42689,0.12918c-0.28309,0.16256 -0.58719,0.16256 -0.58719,0.16256c-1.17174,0 -3.12141,0.31419 -4.16554,-0.34992c-0.71764,-0.45644 -1.08982,-1.34384 -1.80633,-1.80205l-0.54093,-0.76832c0,0 -0.47594,-0.95187 0.47594,-1.42781c0.07014,-0.03506 0.13769,-0.06239 0.20266,-0.0829z"/><path d="M159.63487,303.69346c0,0 0.01946,0.0584 0.03499,0.15179c0.99436,0.38525 2.06191,0.98421 3.01808,1.23164c1.78081,0.46083 4.71848,-0.59428 6.75331,0.05209c0.14501,0.08778 0.2858,0.15001 0.41225,0.16134c0.48175,0.22825 0.89614,0.58049 1.2095,1.10928c0.43283,0.73039 -0.92283,1.63829 -0.6848,2.45326c0.2542,0.87031 2.16593,0.7608 2.14906,1.66731c-0.08245,4.43205 -7.22514,2.04415 -9.03193,1.46159c-0.76307,-0.26698 -1.62703,-0.10663 -2.4016,-0.33815c-1.51104,-0.45166 -2.6388,-2.25932 -3.91704,-2.8122c-1.59617,-0.69038 -3.19659,0.12108 -4.87943,-1.29445c-0.79394,-0.66784 -0.81502,-2.88482 -1.41586,-3.50132c-0.67498,-0.69257 -2.11382,-0.24131 -2.72763,-0.98863c-1.2267,-1.49351 -0.51235,-3.0838 0.65389,-4.14139c-0.99866,0.03889 -2.0298,0.13381 -2.97985,0.20407c0.00047,-0.00059 0.00097,-0.00119 0.00145,-0.00178l0.01214,-0.05854l0.01651,0.00826l0.24273,-0.48545c0.03893,-0.07394 0.06096,-0.15817 0.06096,-0.24755c0,-0.29388 -0.23823,-0.53211 -0.53211,-0.53211c-0.03326,0 -0.06581,0.00305 -0.09737,0.00889l-0.73265,0.1221l0.04879,0.29278c-0.05326,-0.01216 -0.10123,-0.0348 -0.14242,-0.07122c0.02883,-0.15385 0.05419,-0.3087 0.07566,-0.46308c0.27777,-0.4159 0.8425,-0.98752 0.85627,-1.04103c0.09862,-0.38329 -0.06065,-0.78879 -0.09495,-1.18351v-0.72177v0c0,-0.17853 -0.08792,-0.33652 -0.22283,-0.43305c-0.02632,-0.03679 -0.05723,-0.07009 -0.09187,-0.09906c-0.09237,-0.07726 -0.21135,-0.12376 -0.34119,-0.12376c-0.08937,0 -0.1736,0.02203 -0.24753,0.06096l-0.48546,0.24274l0.09567,0.19133l-0.0541,0.07214c-1.35319,0.90214 -0.33496,3.0283 -0.79882,4.56245c-3.19279,0.13857 -9.39529,1.07869 -11.30304,-1.12845c-1.65167,-1.91086 -0.3234,-3.54611 0.15711,-5.40288c0.50582,-1.95459 -0.73117,-3.52401 0.97745,-5.3675c0.68972,-0.74415 2.0553,-0.70229 2.62408,-1.5425c0.14031,-0.20728 0.23153,-0.45259 0.28903,-0.72413c0.09891,-0.04299 0.19625,-0.09767 0.29306,-0.16505v0.45123c0,0.29388 0.23824,0.53211 0.53212,0.53211c0.17631,0 0.33257,-0.08574 0.42941,-0.2178l0.36756,-0.49007l-0.24943,-0.18707c0.19144,-0.31712 0.28636,-0.53634 0.30248,-0.39828c-0.02081,0.08101 -0.02081,0.14232 -0.02081,0.14232l0.02014,0.00468c-0.00365,0.06297 -0.01042,0.14318 -0.02014,0.24283l0.53212,-0.12376l0.53211,0.12376c-0.0042,-0.0854 -0.01066,-0.16635 -0.01918,-0.24305l0.01918,-0.00446c0,0 0,-0.12017 -0.05711,-0.2463c-0.17727,-0.9047 -0.69777,-1.06954 -1.15439,-0.9192l0.09253,-0.74028c0.0034,-0.02429 0.00515,-0.04912 0.00515,-0.07434c0,-0.29388 -0.23823,-0.53211 -0.53211,-0.53211c-0.23428,0 -0.43321,0.15141 -0.50425,0.36172l-0.28437,0.781c-0.07008,0.1186 -0.13706,0.22188 -0.20199,0.31128c-0.03954,-1.31405 -0.24591,-2.76122 0.40537,-3.55395c0.47589,-0.57924 1.4342,-0.43707 2.15129,-0.65561c1.94558,-1.30764 5.28225,-2.79451 7.68592,-2.10904c0.88323,0.25189 1.98674,1.73982 2.77685,2.08265c0.44512,0.19315 0.94838,0.27558 1.48703,0.29116c0.00408,0.0052 0.00819,0.01042 0.01232,0.01567h-0.40992c-0.29388,0 -0.53212,0.23823 -0.53212,0.53211c0,0.11539 0.03673,0.22221 0.09914,0.30939c-0.06241,0.08718 -0.09914,0.19401 -0.09914,0.3094c0,0.29388 0.23825,0.53211 0.53212,0.53211c0.0632,0 0.12382,-0.01102 0.18005,-0.03123l0.39987,-0.13329c0.41723,0.06152 0.8213,0.07086 1.15624,-0.14595c0.06414,-0.04152 0.11574,-0.09395 0.15834,-0.15425l0.26836,-0.03354c0.26612,-0.02935 0.47312,-0.25494 0.47312,-0.52888c0,-0.22841 -0.14391,-0.42319 -0.346,-0.49865l-0.0152,-0.00608c0.04316,-0.07623 0.09684,-0.14364 0.16645,-0.19757c0.27787,-0.21529 1.46101,-0.12869 2.54734,0.01789c0.65818,0.76184 1.08082,0.95853 1.67046,0.83648l0.02916,0.11665l0.97926,-0.24481c0.05423,-0.01231 0.10532,-0.03291 0.15186,-0.06038c0.23914,0.38602 0.471,0.79098 0.83093,1.0211c0.66643,0.42609 1.44412,0.7034 2.28167,0.89693l0.01064,0.15292c0.12837,0.094 0.27147,0.1684 0.4223,0.22615l-0.04071,0.02908l0.266,0.3724l-0.01139,0.00855l0.36754,0.49008c0.09683,0.13206 0.25311,0.2178 0.42942,0.2178c0.29388,0 0.53211,-0.23824 0.53211,-0.53211c0,-0.11759 -0.03813,-0.22626 -0.10271,-0.31433l-0.03938,-0.05512c0.15305,-0.03797 0.30514,-0.13943 0.44116,-0.23917c0.79146,0.0852 1.5948,0.14921 2.37537,0.23582v-0.36697h1.73553c0.58775,0 1.06423,0.47647 1.06423,1.06423c0,0.47873 -0.3161,0.88364 -0.75097,1.01738l-0.96458,0.32153c-0.84471,0.42636 -0.3019,1.45731 0.45347,2.33324c-0.5836,1.31392 -0.0592,3.28306 0.62158,4.4177c0.15622,0.26036 0.33789,0.48723 0.54086,0.68311c-0.00225,0.0199 -0.00342,0.04011 -0.00342,0.06061c0,0.12173 0.04088,0.23391 0.10966,0.32357l0.01357,0.0181c-0.01932,0.22823 -0.07782,0.46182 -0.13186,0.6958c-0.02758,0.02001 -0.05531,0.04364 -0.08302,0.07136c-0.37626,0.37626 0,0.75252 0,0.75252l1.02179,-0.35685c-0.08631,-0.04428 0.43164,-0.3931 0.56998,-0.72537c1.6789,0.48073 3.83884,-0.0123 5.52351,-0.90124c0.01003,0.00387 0.02022,0.00745 0.03054,0.01072v0.85395c0,0.29388 0.23823,0.53211 0.53211,0.53211c0.12173,0 0.23392,-0.04087 0.32357,-0.10965l0.49072,-0.36805l-0.0381,-0.05081l0.15716,-0.07319c0.09285,-0.2986 0.17444,-0.60077 0.24708,-0.90524l0.01839,0.01103l0.02635,-0.04393c0.102,-0.051 0.2651,-0.13254 0.41796,-0.20898l0.10339,0.20679c0.08532,0.17998 0.26868,0.30445 0.4811,0.30445c0.07101,0 0.13876,-0.0139 0.20069,-0.03914c0.62458,1.44486 0.50167,3.23681 0.50167,4.70565c0,0 0.00001,1.06422 -1.06422,1.06422c-0.07026,0 -0.13589,-0.00464 -0.19718,-0.0133c-0.60105,0.62342 -1.39092,1.09697 -2.21045,1.33563c-0.05101,0.02579 -0.10179,0.05116 -0.15233,0.07615c-0.31442,-0.38118 -0.79739,-0.63937 -1.24634,-0.84946l-0.0311,0.45992l-0.0469,-0.00586l-0.04782,-0.05739l-0.05365,0.04471l-0.02772,-0.00347c-0.24599,-0.596 -0.67733,-0.57569 -1.16493,-0.35056c0.35319,-0.52549 1.29681,-0.46271 0.69291,-1.69537c-0.16517,-0.33715 -0.61582,-0.57267 -0.98963,-0.53777c-1.10645,0.10331 -1.21484,1.49719 -0.78046,2.5379c-0.08709,0.04676 -0.18554,0.11098 -0.29701,0.1954c-0.11211,0.08492 -0.19692,0.19011 -0.26328,0.30901l-0.09088,-0.05194l-0.4904,0.85818c-0.04747,0.07962 -0.07475,0.17269 -0.07475,0.27212c0,0.14238 0.05593,0.2717 0.14701,0.3672c-1.63434,0.24739 -3.29353,0.3035 -5.34756,0.56622c-1.92347,0.24601 -4.25117,0.72224 -6.27424,0.40434c0.00222,0.53332 0.27883,0.96106 0.51838,1.6797zM154.59535,286.33347c-0.28695,-0.00329 -0.57389,-0.00659 -0.86084,-0.00988c-0.45616,0.15205 -0.89541,0.37015 -1.36849,0.45616c-0.56414,0.10257 -1.53866,-0.69251 -1.71392,-0.14656c-0.06336,0.19736 0.4197,0.17554 0.50333,0.36521c1.31646,2.98557 1.69518,4.31283 5.26881,4.0581c4.90053,-0.34933 1.7665,-3.40306 -1.06556,-4.06671c0,0 -0.58304,-0.14577 -0.76331,-0.65634z"/><path d="M172.18512,300.76474c-0.18574,0.04437 -0.37043,0.08483 -0.55457,0.12196l0.21787,-0.29049c0.02555,-0.01128 0.05412,-0.02603 0.08516,-0.0437c0.08292,0.0678 0.1667,0.14021 0.25154,0.21223z"/><path d="M155.74324,293.31757c-0.53406,0.57569 -1.27541,0.15207 -1.27541,0.15207l-0.07051,-0.04029c-1.42864,0.00175 -2.83146,-0.40491 -4.16488,-1.5331c-1.30797,-1.10665 -4.65436,-5.32976 -0.10568,-5.18325c0.75276,0.02424 1.19805,0.95401 1.61203,1.58317c0.40169,0.61048 -0.01939,1.37465 0.68018,1.78523c0.66087,0.38786 1.42257,0.58132 2.08891,0.95969l0.50072,0.28613c1.37759,-0.08724 2.6867,-0.69464 4.11274,-1.2294c0,0 0.99647,-0.37367 1.37014,0.62279c0.37367,0.99647 -0.62279,1.37014 -0.62279,1.37014c-1.36092,0.51034 -2.74876,1.0104 -4.12546,1.22683z"/><path d="M146.15697,298.395c0.00304,-0.02303 0.00462,-0.04653 0.00462,-0.07039c0,-0.29388 -0.23823,-0.53211 -0.53211,-0.53211c-0.03326,0 -0.06581,0.00305 -0.09737,0.00889l-0.73265,0.1221l0.04879,0.29278c-0.05326,-0.01216 -0.10123,-0.0348 -0.14242,-0.07122c0.02883,-0.15385 0.05419,-0.3087 0.07566,-0.46308c0.27777,-0.4159 0.8425,-0.98752 0.85627,-1.04103c0.04689,-0.18226 0.03547,-0.36953 0.00691,-0.55829c0.52309,-0.06773 1.03422,-0.1069 1.52782,-0.10197c1.39853,0.01398 3.52801,0.91897 3.92615,2.42332c0.25219,0.95292 -1.37157,2.48723 -0.48457,2.91721c1.68814,0.81835 2.20548,0.64204 2.80759,2.7469c0.29993,2.05412 2.95888,2.54691 4.75092,3.31909c4.534,1.95364 8.01654,3.3972 13.07836,3.3972c0,0 1.06422,0 1.06422,1.06423c0,1.06423 -1.06422,1.06422 -1.06422,1.06422c-5.34429,0 -9.15335,-1.53937 -13.9168,-3.56929c-2.65383,-1.13092 -5.27818,-1.78271 -5.98908,-4.8085c-0.16168,-0.87381 -1.50014,-0.97729 -2.127,-1.60715c-1.18702,-1.1927 0.12949,-3.97202 -0.51849,-4.30409c-0.99257,-0.50866 -1.7198,-0.41071 -2.5426,-0.22882z"/><path d="M133.41691,292.98738c1.00962,0.33654 0.67308,1.34615 0.67308,1.34615l-0.09704,0.21639c-0.05767,0.30681 -0.11533,0.61364 -0.17299,0.92045c2.39087,2.83265 6.10697,1.7639 9.63834,1.00805c0.00456,0.76673 0.14204,1.61933 0.01997,2.37283c-3.04303,0.48577 -7.71788,1.46107 -9.90411,-0.2517c-0.34792,-0.27256 -1.60429,-2.27071 -1.81393,-2.5927c0.0391,-0.56399 0.07819,-1.12798 0.11729,-1.69197l0.19324,-0.65442c0,0 0.33655,-1.00962 1.34616,-0.67308z"/><path d="M162.71482,307.52142c-0.75251,0.75252 -1.50505,0 -1.50505,0l-0.37546,-0.37991c-2.00338,-1.72546 -6.12003,-5.5177 -1.5634,-7.61156c0.84071,-0.38632 2.89995,-0.0661 3.85247,-0.0661c0,0 1.06423,0 1.06423,1.06423c0,1.06423 -1.06423,1.06423 -1.06423,1.06423c-0.87565,0 -2.27762,-0.2756 -3.11401,-0.0661c-2.48721,0.62297 1.95983,3.78566 2.21011,3.99926l0.49534,0.49091c0,0 0.75252,0.75252 0,1.50504z"/><path d="M164.88119,284.60097c0.97817,-0.41922 1.39739,0.55896 1.39739,0.55896l0.43259,1.00944c0.20029,0.46045 0.42062,0.87729 0.66289,1.25178c-0.34169,0.98476 -0.13881,2.26817 0.25881,3.30264c-1.19547,-0.85627 -2.14455,-2.09306 -2.87243,-3.70297l-0.43822,-1.02245c0,0 -0.41923,-0.97817 0.55897,-1.3974z"/><path d="M142.534,289.2871c-0.05122,0.00526 -0.08208,0.00525 -0.08208,0.00525h-0.35877c-3.06087,0 -6.02597,0.5432 -8.33812,-1.9814c-2.80644,-3.06431 -0.89433,-9.36115 0.35424,-12.5737c0.04327,-0.11134 1.54271,-3.09273 1.5808,-3.125c0.05239,-0.0444 0.10587,-0.08723 0.1603,-0.12862l-0.01893,-0.02164l1.4312,-1.2523c0.18769,-0.16598 0.43443,-0.26671 0.70468,-0.26671c0.58775,0 1.06423,0.47647 1.06423,1.06422c0,0.11003 -0.01671,0.21617 -0.04771,0.316l-0.33232,1.16314c-0.44288,4.51782 -0.89872,11.68928 5.18811,12.35377c0,0 1.01277,0.12659 0.9307,1.12363c0.43869,0.35619 0.3496,0.9798 0.3496,0.9798c-0.0598,0.41857 -0.11959,0.83713 -0.17938,1.25569l-1.29514,1.16014c0,0 -0.62167,0.31083 -1.1114,-0.07229z"/><path d="M136.42863,273.23395l-0.31904,0.63564c-0.32745,0.73049 -0.71778,1.43587 -1.16288,2.10125c-1.62634,4.07021 -1.24772,9.84898 3.56985,11.39785c1.66339,0.53478 3.83669,0.17643 5.56521,0.17643c0,0 1.06423,-0.00001 1.06423,1.06422c0,1.06423 -1.06423,1.06423 -1.06423,1.06423c-1.98855,0 -4.29151,0.32165 -6.21007,-0.27647c-6.19936,-1.93266 -6.90169,-9.18865 -4.80872,-14.41717c0.41716,-0.6278 0.79805,-1.28487 1.1016,-1.97481l0.3603,-0.72305c0,0 0.47594,-0.95187 1.42781,-0.47593c0.95188,0.47594 0.47594,1.42781 0.47594,1.42781z"/><path d="M152.30732,271.75371l-0.58074,0.81254c-0.81981,1.02865 -1.84268,3.6018 -1.67491,4.96694c0.06452,0.52501 1.17407,-0.09822 1.56588,0.25713c2.13805,1.9391 1.06705,2.09387 -0.29153,3.30519c0,0 -0.90246,0.56404 -1.4665,-0.33842c-0.30258,-0.48413 -0.18313,-0.87087 -0.00737,-1.12538c-0.52892,-0.00833 -1.3049,-0.29318 -1.77658,-1.30775c-0.81707,-1.75745 0.95026,-5.64929 1.94825,-7.03479l0.55151,-0.7726c0,0 0.61856,-0.86599 1.48457,-0.24742c0.866,0.61857 0.24743,1.48456 0.24743,1.48456z"/><path d="M154.35939,279.47947l0.73525,0.12567c2.77665,1.14791 5.51287,1.36082 7.31924,4.06687c0,0 0.29517,0.44275 -0.14758,0.73791c-0.44275,0.29516 -0.73792,-0.14758 -0.73792,-0.14758c-1.64683,-2.47361 -4.15087,-2.63412 -6.72052,-3.63234l-0.62344,-0.10078c0,0 -0.52487,-0.08747 -0.43739,-0.61235c0.08748,-0.52488 0.61235,-0.43739 0.61235,-0.43739z"/><path d="M140.00571,279.13256l-0.10596,0.1166c1.88933,-1.50784 5.22366,-3.83175 7.61532,-1.65911c0,0 0.37626,0.37626 0,0.75252c-0.37626,0.37626 -0.75252,0 -0.75252,0c-1.61393,-1.9438 -4.97762,0.75914 -6.19798,1.7376l-0.55886,0.1166c0,0 -0.53212,0.00001 -0.53212,-0.53211c0,-0.53212 0.53212,-0.53211 0.53212,-0.53211z"/><path d="M166.54741,290.07788l0.61982,0.37654c0.96741,0.95837 1.46461,1.23309 0.99034,2.6559c0.01234,1.23456 3.0823,-0.26831 4.29095,-0.38832c2.00454,-0.19903 2.83147,0.87185 4.60713,0.57077c0,0 0.52488,-0.08749 0.61235,0.43739c0.08748,0.52488 -0.43739,0.61236 -0.43739,0.61236c-1.12502,0.18464 -2.50541,-0.85448 -2.90244,-0.78556c-1.23645,0.21463 -5.93934,1.78755 -6.91997,1.01186c-0.38406,-0.30381 -0.30366,-1.21023 -0.30111,-1.62897c0.18455,-0.55363 -0.18431,-1.2318 -0.5948,-1.64661l-0.51242,-0.3028c0,0 -0.45629,-0.27377 -0.18252,-0.73005c0.27377,-0.45628 0.73006,-0.18251 0.73006,-0.18251z"/><path d="M152.01631,285.70987l0.61803,-0.12097c3.37729,-0.01414 4.99157,0.33197 7.14816,3.02771c0,0 0.33241,0.41551 -0.0831,0.74792c-0.41551,0.3324 -0.74792,-0.0831 -0.74792,-0.0831c-1.93959,-2.42449 -3.15397,-2.61806 -6.21226,-2.63348l-0.5142,0.10548c0,0 -0.52177,0.10436 -0.62613,-0.41742c-0.10436,-0.52179 0.41743,-0.62614 0.41743,-0.62614z"/><path d="M140.22201,280.61497l0.27776,0.43721c0.84485,2.1802 1.95647,2.949 4.26135,2.949c0,0 0.53211,-0.00001 0.53211,0.53211c0,0.53212 -0.53211,0.53212 -0.53211,0.53212c-2.74752,0 -4.21424,-1.09139 -5.24946,-3.61799l-0.17514,-0.24213c0,0 -0.29516,-0.44274 0.14758,-0.73791c0.44275,-0.29516 0.73791,0.14758 0.73791,0.14758z"/></g><g data-paper-data="{&quot;index&quot;:null}"><path d="M146.80977,275.98791c0.42335,-3.80677 2.63862,-7.7302 5.88867,-9.54326l-0.22371,-0.3915l1.23946,-0.70827c0.15924,-0.09495 0.34537,-0.14949 0.54424,-0.14949c0.58776,0 1.06423,0.47647 1.06423,1.06423c0,0.24971 -0.08601,0.47932 -0.23,0.66086l-1.20138,1.54464c-1.6457,3.3015 -1.38872,6.98174 0.24272,10.23425c0,0 0.47593,0.95187 -0.47594,1.42781c-0.1549,0.07745 -0.2972,0.11709 -0.42689,0.12917c-0.28309,0.16257 -0.5872,0.16257 -0.5872,0.16257c-1.17174,0 -3.1214,0.31419 -4.16554,-0.34993c-0.71764,-0.45645 -1.08981,-1.34383 -1.80633,-1.80204l-0.54093,-0.76832c0,0 -0.47593,-0.95187 0.47594,-1.42781c0.07014,-0.03507 0.13769,-0.06238 0.20266,-0.0829z" fill="#ede3bf"/><path d="M158.88446,302.17479c0,0 0.01946,0.0584 0.03499,0.15178c0.99436,0.38525 2.06191,0.98421 3.01808,1.23164c1.78081,0.46084 4.71848,-0.59428 6.75331,0.05209c0.14501,0.08778 0.2858,0.15 0.41225,0.16134c0.48175,0.22825 0.89613,0.58049 1.20949,1.10928c0.43283,0.73039 -0.92283,1.63829 -0.6848,2.45325c0.2542,0.87031 2.16592,0.7608 2.14906,1.66731c-0.08245,4.43205 -7.22514,2.04415 -9.03193,1.46159c-0.76307,-0.26698 -1.62703,-0.10663 -2.4016,-0.33815c-1.51105,-0.45166 -2.6388,-2.25932 -3.91704,-2.8122c-1.59617,-0.69038 -3.19659,0.12109 -4.87943,-1.29445c-0.79394,-0.66784 -0.81503,-2.88482 -1.41587,-3.50132c-0.67499,-0.69257 -2.11381,-0.24131 -2.72763,-0.98863c-1.2267,-1.49351 -0.51235,-3.08379 0.65388,-4.14139c-0.99866,0.03889 -2.0298,0.13381 -2.97984,0.20407c0.00048,-0.0006 0.00097,-0.00118 0.00144,-0.00178l0.01215,-0.05854l0.01651,0.00826l0.24272,-0.48545c0.03893,-0.07394 0.06096,-0.15818 0.06096,-0.24755c0,-0.29387 -0.23824,-0.53211 -0.53211,-0.53211c-0.03326,0 -0.0658,0.00305 -0.09737,0.00889l-0.73265,0.12211l0.04879,0.29278c-0.05326,-0.01216 -0.10124,-0.0348 -0.14242,-0.07122c0.02883,-0.15385 0.0542,-0.3087 0.07566,-0.46308c0.27777,-0.4159 0.8425,-0.98751 0.85627,-1.04103c0.09862,-0.38329 -0.06065,-0.78878 -0.09495,-1.18351v-0.72177v0c0,-0.17853 -0.08792,-0.33652 -0.22282,-0.43305c-0.02632,-0.0368 -0.05723,-0.07009 -0.09187,-0.09906c-0.09237,-0.07726 -0.21135,-0.12376 -0.34119,-0.12376c-0.08937,0 -0.17359,0.02203 -0.24753,0.06096l-0.48546,0.24273l0.09567,0.19134l-0.0541,0.07213c-1.35319,0.90214 -0.33496,3.02831 -0.79882,4.56245c-3.1928,0.13856 -9.39529,1.07869 -11.30305,-1.12845c-1.65167,-1.91086 -0.32339,-3.5461 0.1571,-5.40288c0.50582,-1.9546 -0.73116,-3.52401 0.97745,-5.3675c0.68972,-0.74415 2.05531,-0.70229 2.62409,-1.5425c0.14031,-0.20728 0.23153,-0.4526 0.28902,-0.72413c0.09891,-0.04299 0.19625,-0.09766 0.29306,-0.16505v0.45123c0,0.29387 0.23824,0.53212 0.53212,0.53212c0.1763,0 0.33257,-0.08575 0.42941,-0.2178l0.36756,-0.49007l-0.24943,-0.18707c0.19144,-0.31712 0.28636,-0.53634 0.30249,-0.39828c-0.02082,0.08101 -0.02081,0.14232 -0.02081,0.14232l0.02013,0.00468c-0.00365,0.06298 -0.01041,0.14318 -0.02013,0.24283l0.53212,-0.12375l0.53211,0.12375c-0.0042,-0.0854 -0.01066,-0.16635 -0.01918,-0.24305l0.01918,-0.00446c0,0 0,-0.12017 -0.05711,-0.2463c-0.17727,-0.9047 -0.69778,-1.06954 -1.15439,-0.9192l0.09254,-0.74029c0.0034,-0.02429 0.00515,-0.04911 0.00515,-0.07433c0,-0.29387 -0.23824,-0.53211 -0.53211,-0.53211c-0.23429,0 -0.43321,0.15141 -0.50425,0.36172l-0.28437,0.781c-0.07008,0.1186 -0.13706,0.22188 -0.20199,0.31128c-0.03953,-1.31405 -0.24591,-2.76122 0.40537,-3.55395c0.47589,-0.57924 1.43419,-0.43707 2.15129,-0.65561c1.94558,-1.30765 5.28225,-2.79451 7.68593,-2.10904c0.88323,0.25188 1.98674,1.73981 2.77685,2.08264c0.44512,0.19314 0.94838,0.27558 1.48703,0.29116c0.00408,0.0052 0.00819,0.01043 0.01232,0.01566h-0.40993c-0.29387,0 -0.53212,0.23824 -0.53212,0.53211c0,0.11539 0.03673,0.22221 0.09914,0.30939c-0.06241,0.08718 -0.09914,0.194 -0.09914,0.3094c0,0.29387 0.23824,0.53211 0.53212,0.53211c0.06319,0 0.12382,-0.01102 0.18005,-0.03124l0.39988,-0.13329c0.41723,0.06152 0.8213,0.07086 1.15623,-0.14595c0.06414,-0.04151 0.11574,-0.09395 0.15834,-0.15424l0.26836,-0.03355c0.26612,-0.02935 0.47312,-0.25494 0.47312,-0.52888c0,-0.22841 -0.14391,-0.42319 -0.346,-0.49866l-0.0152,-0.00608c0.04317,-0.07622 0.09684,-0.14364 0.16644,-0.19757c0.27787,-0.21529 1.461,-0.12869 2.54734,0.01789c0.65817,0.76185 1.08082,0.95853 1.67046,0.83648l0.02916,0.11665l0.97926,-0.24481c0.05423,-0.01231 0.10532,-0.0329 0.15186,-0.06038c0.23913,0.38602 0.471,0.79098 0.83093,1.0211c0.66643,0.42609 1.44412,0.70341 2.28167,0.89694l0.01064,0.15292c0.12837,0.09399 0.27147,0.1684 0.42231,0.22614l-0.04072,0.02908l0.26601,0.3724l-0.01139,0.00855l0.36755,0.49008c0.09683,0.13206 0.25311,0.2178 0.42941,0.2178c0.29387,0 0.53211,-0.23824 0.53211,-0.53211c0,-0.11758 -0.03813,-0.22626 -0.10271,-0.31433l-0.03937,-0.05513c0.15305,-0.03797 0.30514,-0.13943 0.44116,-0.23917c0.79146,0.08521 1.5948,0.14922 2.37537,0.23583v-0.36697h1.73553c0.58776,0 1.06423,0.47647 1.06423,1.06423c0,0.47873 -0.31611,0.88364 -0.75097,1.01738l-0.96458,0.32153c-0.84471,0.42636 -0.30189,1.45731 0.45347,2.33324c-0.5836,1.31391 -0.0592,3.28306 0.62158,4.4177c0.15621,0.26036 0.33789,0.48723 0.54086,0.6831c-0.00225,0.01989 -0.00342,0.04011 -0.00342,0.06061c0,0.12173 0.04088,0.23392 0.10965,0.32357l0.01357,0.01809c-0.01932,0.22822 -0.07782,0.46182 -0.13185,0.6958c-0.02757,0.02 -0.0553,0.04364 -0.08302,0.07136c-0.37626,0.37626 0,0.75252 0,0.75252l1.0218,-0.35685c-0.08631,-0.04428 0.43164,-0.3931 0.56998,-0.72537c1.6789,0.48072 3.83884,-0.01231 5.52351,-0.90124c0.01003,0.00387 0.02021,0.00744 0.03054,0.01071v0.85395c0,0.29387 0.23824,0.53212 0.53211,0.53212c0.12173,0 0.23392,-0.04087 0.32357,-0.10964l0.49072,-0.36805l-0.0381,-0.05081l0.15716,-0.0732c0.09285,-0.2986 0.17444,-0.60077 0.24708,-0.90524l0.01839,0.01103l0.02636,-0.04392c0.102,-0.051 0.2651,-0.13255 0.41796,-0.20898l0.10339,0.2068c0.08532,0.17999 0.26867,0.30445 0.48109,0.30445c0.07101,0 0.13877,-0.01391 0.2007,-0.03915c0.62458,1.44486 0.50167,3.2368 0.50167,4.70565c0,0 0,1.06423 -1.06423,1.06423c-0.07026,0 -0.13589,-0.00464 -0.19718,-0.0133c-0.60105,0.62342 -1.39092,1.09698 -2.21045,1.33563c-0.051,0.02579 -0.10178,0.05116 -0.15233,0.07615c-0.31442,-0.38118 -0.79739,-0.63937 -1.24634,-0.84946l-0.0311,0.45992l-0.0469,-0.00586l-0.04782,-0.0574l-0.05366,0.04471l-0.02771,-0.00347c-0.24599,-0.596 -0.67733,-0.5757 -1.16493,-0.35056c0.3532,-0.52549 1.29681,-0.46271 0.6929,-1.69537c-0.16517,-0.33715 -0.61582,-0.57267 -0.98963,-0.53777c-1.10644,0.10331 -1.21484,1.49719 -0.78046,2.5379c-0.08708,0.04676 -0.18554,0.11098 -0.297,0.19541c-0.11211,0.08491 -0.19692,0.1901 -0.26328,0.30901l-0.09089,-0.05193l-0.49039,0.85818c-0.04747,0.07962 -0.07475,0.17269 -0.07475,0.27212c0,0.14239 0.05593,0.27171 0.14701,0.3672c-1.63435,0.24739 -3.29353,0.3035 -5.34756,0.56622c-1.92347,0.24602 -4.25117,0.72224 -6.27424,0.40434c0.00221,0.53331 0.27883,0.96105 0.51837,1.6797zM153.84494,284.81479c-0.28695,-0.00329 -0.57389,-0.00658 -0.86084,-0.00987c-0.45616,0.15205 -0.89541,0.37015 -1.36849,0.45616c-0.56414,0.10257 -1.53866,-0.69251 -1.71392,-0.14656c-0.06335,0.19736 0.4197,0.17554 0.50333,0.3652c1.31646,2.98557 1.69519,4.31283 5.26882,4.0581c4.90054,-0.34932 1.76649,-3.40306 -1.06557,-4.06671c0,0 -0.58304,-0.14577 -0.7633,-0.65634z" fill="#eeeeee"/><path d="M171.43471,299.24607c-0.18574,0.04436 -0.37043,0.08483 -0.55457,0.12196l0.21787,-0.29049c0.02555,-0.01128 0.05412,-0.02603 0.08517,-0.0437c0.08292,0.0678 0.1667,0.14022 0.25154,0.21223z" fill="#eeeeee"/><path d="M154.99282,291.7989c-0.53406,0.57569 -1.27541,0.15207 -1.27541,0.15207l-0.07051,-0.04029c-1.42863,0.00174 -2.83145,-0.40491 -4.16488,-1.5331c-1.30797,-1.10665 -4.65436,-5.32976 -0.10569,-5.18325c0.75276,0.02424 1.19804,0.95402 1.61203,1.58318c0.40169,0.61048 -0.01939,1.37465 0.68018,1.78522c0.66086,0.38786 1.42257,0.58132 2.08892,0.95969l0.50072,0.28613c1.37759,-0.08724 2.6867,-0.69463 4.11273,-1.2294c0,0 0.99647,-0.37368 1.37014,0.62279c0.37367,0.99647 -0.62279,1.37015 -0.62279,1.37015c-1.36092,0.51034 -2.74876,1.0104 -4.12546,1.22683z" fill="#e2e2e2"/><path d="M145.40656,296.87633c0.00305,-0.02303 0.00461,-0.04653 0.00461,-0.07039c0,-0.29387 -0.23824,-0.53211 -0.53211,-0.53211c-0.03326,0 -0.0658,0.00305 -0.09737,0.00889l-0.73265,0.12211l0.04879,0.29278c-0.05326,-0.01216 -0.10124,-0.0348 -0.14242,-0.07122c0.02883,-0.15385 0.0542,-0.3087 0.07566,-0.46308c0.27777,-0.4159 0.8425,-0.98751 0.85627,-1.04103c0.04689,-0.18226 0.03547,-0.36953 0.00691,-0.55829c0.52309,-0.06773 1.03422,-0.10689 1.52782,-0.10196c1.39853,0.01398 3.528,0.91897 3.92614,2.42331c0.25219,0.95292 -1.37157,2.48723 -0.48457,2.91721c1.68814,0.81835 2.20548,0.64204 2.8076,2.7469c0.29993,2.05412 2.95887,2.54691 4.75093,3.31908c4.534,1.95364 8.01654,3.3972 13.07836,3.3972c0,0 1.06423,0 1.06423,1.06423c0,1.06423 -1.06423,1.06423 -1.06423,1.06423c-5.34429,0 -9.15335,-1.53938 -13.9168,-3.56929c-2.65383,-1.13092 -5.27818,-1.78271 -5.98908,-4.8085c-0.16168,-0.87381 -1.50014,-0.97728 -2.127,-1.60715c-1.18702,-1.19269 0.12949,-3.97202 -0.51849,-4.30409c-0.99258,-0.50866 -1.71979,-0.41071 -2.5426,-0.22882z" fill="#e2e2e2"/><path d="M132.66649,291.4687c1.00962,0.33654 0.67308,1.34615 0.67308,1.34615l-0.09703,0.21639c-0.05767,0.30681 -0.11533,0.61364 -0.17299,0.92046c2.39087,2.83265 6.10697,1.7639 9.63833,1.00804c0.00456,0.76673 0.14204,1.61934 0.01998,2.37283c-3.04303,0.48576 -7.71789,1.46107 -9.90411,-0.25171c-0.34792,-0.27257 -1.60429,-2.2707 -1.81393,-2.5927c0.0391,-0.56399 0.07819,-1.12798 0.11729,-1.69197l0.19324,-0.65441c0,0 0.33654,-1.00962 1.34616,-0.67308z" fill="#e2e2e2"/><path d="M161.96441,306.00274c-0.75251,0.75253 -1.50505,0 -1.50505,0l-0.37547,-0.37991c-2.00338,-1.72546 -6.12003,-5.51769 -1.56339,-7.61155c0.84071,-0.38631 2.89995,-0.0661 3.85248,-0.0661c0,0 1.06423,0 1.06423,1.06423c0,1.06423 -1.06423,1.06423 -1.06423,1.06423c-0.87566,0 -2.27762,-0.27559 -3.11402,-0.0661c-2.48721,0.62297 1.95984,3.78566 2.21011,3.99926l0.49534,0.49091c0,0 0.75253,0.75251 0,1.50504z" fill="#e2e2e2"/><path d="M164.13077,283.08229c0.97817,-0.41922 1.39739,0.55896 1.39739,0.55896l0.43259,1.00944c0.20029,0.46045 0.42062,0.87729 0.66289,1.25178c-0.34168,0.98476 -0.13881,2.26817 0.25882,3.30264c-1.19547,-0.85627 -2.14454,-2.09306 -2.87243,-3.70297l-0.43821,-1.02245c0,0 -0.41922,-0.97817 0.55896,-1.3974z" fill="#e2e2e2"/><path d="M141.78358,287.76842c-0.05121,0.00526 -0.08208,0.00525 -0.08208,0.00525h-0.35877c-3.06086,0 -6.02597,0.5432 -8.33812,-1.9814c-2.80645,-3.06431 -0.89434,-9.36115 0.35424,-12.5737c0.04327,-0.11134 1.54272,-3.09272 1.5808,-3.125c0.0524,-0.0444 0.10587,-0.08723 0.1603,-0.12863l-0.01893,-0.02164l1.4312,-1.2523c0.1877,-0.16598 0.43443,-0.26671 0.70468,-0.26671c0.58776,0 1.06423,0.47647 1.06423,1.06423c0,0.11003 -0.01671,0.21617 -0.0477,0.316l-0.33232,1.16314c-0.44288,4.51782 -0.89873,11.68929 5.1881,12.35377c0,0 1.01276,0.12659 0.9307,1.12363c0.43869,0.35619 0.3496,0.9798 0.3496,0.9798c-0.0598,0.41857 -0.11959,0.83713 -0.17938,1.25569l-1.29513,1.16013c0,0 -0.62167,0.31083 -1.1114,-0.07228z" fill="#ede3bf"/><path d="M135.67822,271.71528l-0.31904,0.63564c-0.32745,0.73049 -0.71778,1.43587 -1.16288,2.10125c-1.62634,4.07021 -1.24772,9.84898 3.56985,11.39785c1.66338,0.53479 3.83669,0.17643 5.56521,0.17643c0,0 1.06423,0 1.06423,1.06423c0,1.06423 -1.06423,1.06423 -1.06423,1.06423c-1.98855,0 -4.2915,0.32165 -6.21007,-0.27647c-6.19936,-1.93267 -6.90169,-9.18865 -4.80871,-14.41718c0.41716,-0.6278 0.79805,-1.28487 1.1016,-1.9748l0.3603,-0.72306c0,0 0.47594,-0.95187 1.42781,-0.47593c0.95187,0.47594 0.47593,1.42781 0.47593,1.42781z" fill="#e6ddba"/><path d="M151.5569,270.23504l-0.58073,0.81253c-0.81981,1.02865 -1.84268,3.6018 -1.67492,4.96694c0.06452,0.525 1.17407,-0.09822 1.56588,0.25713c2.13805,1.9391 1.06705,2.09387 -0.29154,3.30519c0,0 -0.90246,0.56404 -1.4665,-0.33842c-0.30258,-0.48413 -0.18313,-0.87087 -0.00737,-1.12538c-0.52892,-0.00833 -1.3049,-0.29318 -1.77658,-1.30774c-0.81706,-1.75745 0.95026,-5.64929 1.94825,-7.03479l0.55151,-0.7726c0,0 0.61856,-0.86599 1.48457,-0.24742c0.866,0.61857 0.24743,1.48457 0.24743,1.48457z" fill="#e6ddba"/><path d="M153.60898,277.96079l0.73525,0.12567c2.77665,1.14791 5.51287,1.36082 7.31924,4.06688c0,0 0.29516,0.44274 -0.14758,0.73791c-0.44274,0.29516 -0.73791,-0.14758 -0.73791,-0.14758c-1.64682,-2.47361 -4.15087,-2.63411 -6.72051,-3.63234l-0.62344,-0.10078c0,0 -0.52487,-0.08748 -0.43739,-0.61235c0.08748,-0.52488 0.61235,-0.43739 0.61235,-0.43739z" fill="#f3f3f3"/><path d="M139.2553,277.61388l-0.10596,0.1166c1.88933,-1.50784 5.22366,-3.83175 7.61532,-1.6591c0,0 0.37626,0.37626 0,0.75252c-0.37626,0.37626 -0.75252,0 -0.75252,0c-1.61393,-1.9438 -4.97762,0.75915 -6.19798,1.7376l-0.55886,0.1166c0,0 -0.53212,0.00001 -0.53212,-0.53211c0,-0.53212 0.53212,-0.53212 0.53212,-0.53212z" fill="#f3f3f3"/><path d="M165.797,288.5592l0.61982,0.37654c0.96741,0.95837 1.46461,1.23309 0.99034,2.6559c0.01234,1.23457 3.0823,-0.26831 4.29095,-0.38832c2.00454,-0.19903 2.83147,0.87185 4.60713,0.57077c0,0 0.52488,-0.08748 0.61235,0.43739c0.08748,0.52488 -0.43739,0.61235 -0.43739,0.61235c-1.12502,0.18464 -2.50541,-0.85448 -2.90244,-0.78556c-1.23644,0.21463 -5.93934,1.78756 -6.91997,1.01186c-0.38407,-0.3038 -0.30366,-1.21023 -0.30111,-1.62898c0.18454,-0.55363 -0.18431,-1.23179 -0.59479,-1.64661l-0.51242,-0.3028c0,0 -0.45629,-0.27377 -0.18251,-0.73006c0.27377,-0.45629 0.73006,-0.18251 0.73006,-0.18251z" fill="#f3f3f3"/><path d="M151.26589,284.1912l0.61804,-0.12097c3.37729,-0.01414 4.99156,0.33197 7.14815,3.02771c0,0 0.33241,0.41551 -0.08311,0.74792c-0.41551,0.33241 -0.74792,-0.0831 -0.74792,-0.0831c-1.93959,-2.42449 -3.15397,-2.61806 -6.21226,-2.63348l-0.5142,0.10549c0,0 -0.52178,0.10436 -0.62613,-0.41742c-0.10436,-0.52178 0.41742,-0.62614 0.41742,-0.62614z" fill="#f3f3f3"/><path d="M139.4716,279.0963l0.27776,0.43721c0.84486,2.1802 1.95647,2.949 4.26135,2.949c0,0 0.53212,-0.00001 0.53212,0.53211c0,0.53212 -0.53212,0.53212 -0.53212,0.53212c-2.74752,0 -4.21424,-1.09139 -5.24945,-3.61799l-0.17514,-0.24213c0,0 -0.29516,-0.44274 0.14758,-0.73791c0.44274,-0.29516 0.73791,0.14758 0.73791,0.14758z" fill="#f3f3f3"/></g></g><g><g fill="#d9d393"><path d="M350.08434,254.41957c0.67971,0.33986 0.33986,1.01957 0.33986,1.01957l-0.38627,0.54864c-0.51165,0.3272 -0.77742,0.96086 -1.28987,1.2868c-0.74559,0.47423 -2.13781,0.24988 -2.97453,0.24988c0,0 -0.21715,0 -0.4193,-0.11608c-0.09261,-0.00863 -0.19423,-0.03694 -0.30484,-0.09224c-0.67971,-0.33986 -0.33986,-1.01958 -0.33986,-1.01958c1.16498,-2.32255 1.34849,-4.95054 0.17332,-7.30808l-0.85789,-1.103c-0.10282,-0.12963 -0.16424,-0.29359 -0.16424,-0.4719c0,-0.4197 0.34024,-0.75995 0.75995,-0.75995c0.142,0 0.27492,0.03895 0.38863,0.10675l0.88507,0.50576l-0.15975,0.27956c2.32081,1.29467 3.90268,4.09632 4.20499,6.81466c0.0464,0.01465 0.09463,0.03416 0.14472,0.0592z"/><path d="M341.3173,273.05991c0.17106,-0.51317 0.36858,-0.81861 0.37016,-1.19944c-1.44464,0.22701 -3.1068,-0.11305 -4.48031,-0.28873c-1.46674,-0.1876 -2.65154,-0.22767 -3.81859,-0.40433c0.06504,-0.06819 0.10498,-0.16053 0.10498,-0.26221c0,-0.071 -0.01947,-0.13746 -0.05338,-0.19432l-0.35018,-0.61281l-0.0649,0.03708c-0.04739,-0.0849 -0.10795,-0.16002 -0.18801,-0.22066c-0.07959,-0.06029 -0.1499,-0.10614 -0.21209,-0.13953c0.31018,-0.74315 0.23278,-1.7385 -0.55731,-1.81227c-0.26693,-0.02492 -0.58873,0.14326 -0.70668,0.38401c-0.43124,0.88022 0.24258,0.83539 0.49479,1.21063c-0.34819,-0.16077 -0.6562,-0.17527 -0.83186,0.25033l-0.01979,0.00248l-0.03832,-0.03193l-0.03415,0.04098l-0.03349,0.00419l-0.0222,-0.32842c-0.32059,0.15002 -0.66547,0.33439 -0.88999,0.60658c-0.03609,-0.01785 -0.07236,-0.03596 -0.10878,-0.05438c-0.58521,-0.17042 -1.14924,-0.50858 -1.57844,-0.95375c-0.04377,0.00619 -0.09063,0.0095 -0.1408,0.0095c-0.75995,0 -0.75995,-0.75995 -0.75995,-0.75995c0,-1.04888 -0.08777,-2.32847 0.35823,-3.36021c0.04422,0.01803 0.09261,0.02796 0.14332,0.02796c0.15168,0 0.28261,-0.08888 0.34354,-0.21741l0.07383,-0.14767c0.10915,0.05458 0.22562,0.11282 0.29846,0.14923l0.01882,0.03136l0.01313,-0.00788c0.05187,0.21742 0.11013,0.43319 0.17644,0.64641l0.11222,0.05227l-0.0272,0.03628l0.35041,0.26282c0.06402,0.04911 0.14413,0.07829 0.23105,0.07829c0.20985,0 0.37997,-0.17012 0.37997,-0.37998v-0.60979c0.00737,-0.00234 0.01464,-0.00489 0.02181,-0.00765c1.20299,0.63477 2.74536,0.98683 3.94423,0.64356c0.09879,0.23727 0.46864,0.48636 0.40701,0.51798l0.72965,0.25482c0,0 0.26868,-0.26868 0,-0.53736c-0.01979,-0.01979 -0.03959,-0.03668 -0.05928,-0.05096c-0.03859,-0.16708 -0.08036,-0.33389 -0.09416,-0.49685l0.00969,-0.01292c0.04911,-0.06402 0.0783,-0.14413 0.0783,-0.23106c0,-0.01463 -0.00083,-0.02907 -0.00244,-0.04328c0.14493,-0.13987 0.27466,-0.30187 0.38621,-0.48779c0.48613,-0.81023 0.86059,-2.21635 0.44386,-3.15459c0.53939,-0.62548 0.92701,-1.36167 0.32382,-1.66612l-0.68879,-0.22959c-0.31053,-0.0955 -0.53626,-0.38464 -0.53626,-0.72649c0,-0.41971 0.34024,-0.75995 0.75995,-0.75995h1.23931v0.26205c0.55739,-0.06185 1.13103,-0.10755 1.69621,-0.1684c0.09713,0.07122 0.20574,0.14367 0.31502,0.17078l-0.02812,0.03937c-0.04611,0.06289 -0.07334,0.14049 -0.07334,0.22445c0,0.20985 0.17012,0.37997 0.37997,0.37997c0.1259,0 0.23749,-0.06123 0.30664,-0.15553l0.26246,-0.34996l-0.00813,-0.0061l0.18995,-0.26592l-0.02908,-0.02077c0.10771,-0.04123 0.2099,-0.09436 0.30156,-0.16148l0.0076,-0.10919c0.59808,-0.13819 1.15341,-0.33623 1.6293,-0.64049c0.25702,-0.16433 0.42259,-0.4535 0.59335,-0.72915c0.03323,0.01962 0.06972,0.03432 0.10844,0.04311l0.69927,0.17482l0.02082,-0.0833c0.42105,0.08715 0.72286,-0.05329 1.19285,-0.59731c0.77573,-0.10467 1.62058,-0.16651 1.81901,-0.01277c0.04971,0.03851 0.08803,0.08665 0.11885,0.14108l-0.01086,0.00434c-0.14431,0.05389 -0.24707,0.19298 -0.24707,0.35608c0,0.19561 0.14782,0.35671 0.33785,0.37766l0.19163,0.02396c0.03042,0.04306 0.06727,0.0805 0.11307,0.11014c0.23917,0.15482 0.52771,0.14815 0.82565,0.10422l0.28554,0.09518c0.04016,0.01443 0.08345,0.02231 0.12857,0.02231c0.20985,0 0.37998,-0.17012 0.37998,-0.37997c0,-0.0824 -0.02623,-0.15868 -0.0708,-0.22093c0.04456,-0.06225 0.0708,-0.13853 0.0708,-0.22093c0,-0.20985 -0.17012,-0.37997 -0.37998,-0.37997h-0.29272c0.00295,-0.00374 0.00589,-0.00747 0.0088,-0.01118c0.38464,-0.01112 0.74401,-0.06999 1.06186,-0.20791c0.5642,-0.24481 1.3522,-1.30731 1.98289,-1.48717c1.71642,-0.48948 4.09908,0.57226 5.48838,1.50602c0.51207,0.15606 1.19637,0.05453 1.53619,0.46816c0.46507,0.56608 0.3177,1.59947 0.28947,2.53781c-0.04636,-0.06384 -0.09419,-0.13759 -0.14423,-0.22228l-0.20306,-0.5577c-0.05073,-0.15017 -0.19277,-0.2583 -0.36007,-0.2583c-0.20985,0 -0.37997,0.17012 -0.37997,0.37997c0,0.01801 0.00125,0.03574 0.00367,0.05308l0.06608,0.52862c-0.32606,-0.10736 -0.69774,0.01035 -0.82433,0.65638c-0.04078,0.09006 -0.04078,0.17588 -0.04078,0.17588l0.0137,0.00318c-0.00608,0.05477 -0.0107,0.11258 -0.0137,0.17356l0.37997,-0.08837l0.37998,0.08837c-0.00694,-0.07115 -0.01177,-0.12843 -0.01437,-0.1734l0.01437,-0.00334c0,0 0,-0.04378 -0.01486,-0.10163c0.01151,-0.09859 0.0793,0.05795 0.216,0.2844l-0.17811,0.13358l0.26247,0.34995c0.06914,0.0943 0.18073,0.15553 0.30663,0.15553c0.20985,0 0.37998,-0.17012 0.37998,-0.37998v-0.32221c0.06913,0.04812 0.13864,0.08716 0.20927,0.11786c0.04105,0.1939 0.10619,0.36908 0.20639,0.51709c0.40616,0.59997 1.38129,0.57009 1.87381,1.10147c1.22009,1.3164 0.33678,2.43709 0.69798,3.83283c0.34312,1.32589 1.29161,2.49358 0.11219,3.85809c-1.3623,1.57608 -5.79137,0.90475 -8.07129,0.8058c-0.33123,-1.09551 0.39587,-2.61376 -0.57043,-3.25796l-0.03863,-0.05151l0.06831,-0.13663l-0.34665,-0.17333c-0.0528,-0.0278 -0.11294,-0.04353 -0.17676,-0.04353c-0.09271,0 -0.17767,0.03321 -0.24363,0.08838c-0.02474,0.02069 -0.04681,0.04447 -0.0656,0.07074c-0.09634,0.06892 -0.15911,0.18174 -0.15911,0.30923v0v0.5154c-0.0245,0.28187 -0.13823,0.57143 -0.06781,0.84513c0.00984,0.03821 0.41309,0.44639 0.61145,0.74338c0.01533,0.11024 0.03344,0.22081 0.05403,0.33067c-0.02941,0.02601 -0.06367,0.04218 -0.1017,0.05086l0.03484,-0.20907l-0.52317,-0.0872c-0.02254,-0.00417 -0.04578,-0.00635 -0.06953,-0.00635c-0.20985,0 -0.37997,0.17012 -0.37997,0.37997c0,0.06382 0.01573,0.12397 0.04353,0.17677l0.17332,0.34665l0.01179,-0.0059l0.00867,0.0418c0.00034,0.00043 0.00069,0.00084 0.00103,0.00127c-0.67841,-0.05017 -1.41473,-0.11795 -2.12785,-0.14572c0.83279,0.75521 1.34289,1.8908 0.46693,2.95729c-0.43831,0.53365 -1.46575,0.21141 -1.94774,0.70596c-0.42905,0.44023 -0.44411,2.02333 -1.01105,2.50023c-1.20168,1.01081 -2.34451,0.43135 -3.4843,0.92434c-0.91277,0.3948 -1.71808,1.68562 -2.79709,2.00814c-0.55311,0.16532 -1.17004,0.05082 -1.71493,0.24147c-1.29019,0.416 -6.39065,2.12115 -6.44952,-1.0437c-0.01205,-0.64732 1.35308,-0.56912 1.5346,-1.19059c0.16998,-0.58195 -0.79807,-1.23026 -0.489,-1.75182c0.22377,-0.3776 0.51966,-0.62913 0.86368,-0.79212c0.0903,-0.0081 0.19083,-0.05253 0.29438,-0.11521c1.45304,-0.46156 3.55077,0.29188 4.82241,-0.03719c0.68278,-0.17669 1.44509,-0.60439 2.15515,-0.87949c0.01109,-0.06669 0.02499,-0.10838 0.02499,-0.10838zM344.91593,260.66347c-0.12872,0.36459 -0.54506,0.46868 -0.54506,0.46868c-2.02232,0.4739 -4.26028,2.65452 -0.7609,2.90396c2.55186,0.1819 2.8223,-0.76587 3.76236,-2.89781c0.05971,-0.13543 0.40465,-0.11985 0.35942,-0.26078c-0.12515,-0.38985 -0.82103,0.1779 -1.22387,0.10465c-0.33782,-0.06142 -0.65148,-0.21716 -0.97722,-0.32574c-0.2049,0.00235 -0.40981,0.0047 -0.61471,0.00705z"/><path d="M332.53504,270.81703c0.02217,0.01261 0.04257,0.02315 0.06081,0.0312l0.15557,0.20744c-0.13149,-0.02652 -0.26337,-0.05541 -0.39601,-0.08709c0.06059,-0.05142 0.12041,-0.10314 0.17962,-0.15155z"/><path d="M344.09627,265.65071c-0.98308,-0.15455 -1.97411,-0.51163 -2.94592,-0.87606c0,0 -0.71155,-0.26683 -0.44472,-0.97839c0.26683,-0.71156 0.97839,-0.44473 0.97839,-0.44473c1.0183,0.38187 1.95312,0.81559 2.93682,0.87789l0.35755,-0.20432c0.47582,-0.27019 1.01975,-0.40834 1.49165,-0.68529c0.49955,-0.29318 0.19887,-0.83886 0.4857,-1.27479c0.29562,-0.44927 0.61359,-1.1132 1.15112,-1.13052c3.24812,-0.10462 0.85852,2.91102 -0.07547,3.70126c-0.95218,0.80562 -1.9539,1.096 -2.97406,1.09476l-0.05035,0.02877c0,0 -0.52938,0.3025 -0.91074,-0.10859z"/><path d="M349.12601,269.43979c-0.46271,0.23712 0.47738,2.22179 -0.37025,3.07347c-0.44763,0.44977 -1.4034,0.52366 -1.51885,1.14763c-0.50765,2.16066 -2.38164,2.62609 -4.27669,3.43366c-3.40149,1.44952 -6.12146,2.54876 -9.93772,2.54876c0,0 -0.75995,0 -0.75995,-0.75994c0,-0.75995 0.75995,-0.75995 0.75995,-0.75995c3.61455,0 6.10136,-1.03082 9.339,-2.42588c1.27967,-0.5514 3.17837,-0.90328 3.39254,-2.37009c0.42996,-1.50304 0.79938,-1.37714 2.00485,-1.96151c0.63339,-0.30704 -0.52611,-1.40266 -0.34602,-2.08312c0.28431,-1.07422 1.80493,-1.72046 2.80358,-1.73044c0.35246,-0.00352 0.71745,0.02444 1.09098,0.07281c-0.0204,0.13479 -0.02855,0.26852 0.00493,0.39867c0.00984,0.03821 0.41309,0.44639 0.61145,0.74338c0.01533,0.11024 0.03344,0.22081 0.05403,0.33067c-0.02941,0.02601 -0.06367,0.04218 -0.1017,0.05086l0.03484,-0.20907l-0.52317,-0.0872c-0.02254,-0.00417 -0.04578,-0.00635 -0.06953,-0.00635c-0.20985,0 -0.37997,0.17012 -0.37997,0.37997c0,0.01704 0.00112,0.03382 0.00329,0.05026c-0.58755,-0.12989 -1.10684,-0.19983 -1.81562,0.1634z"/><path d="M360.03905,265.41491c0.72094,-0.24032 0.96126,0.48064 0.96126,0.48064l0.13799,0.46731c0.02792,0.40274 0.05584,0.80547 0.08375,1.2082c-0.1497,0.22993 -1.04685,1.65676 -1.2953,1.8514c-1.56114,1.22306 -4.89936,0.52661 -7.07233,0.17974c-0.08717,-0.53805 0.01101,-1.14688 0.01426,-1.69439c2.52168,0.53974 5.17528,1.30291 6.88255,-0.71983c-0.04118,-0.21909 -0.08235,-0.43819 -0.12353,-0.65728l-0.06929,-0.15452c0,0 -0.24032,-0.72094 0.48064,-0.96126z"/><path d="M339.11798,275.7934c-0.53737,-0.53737 0,-1.07472 0,-1.07472l0.35371,-0.35055c0.17872,-0.15253 3.35427,-2.41095 1.5782,-2.8558c-0.59726,-0.14959 -1.59837,0.0472 -2.22366,0.0472c0,0 -0.75995,0 -0.75995,-0.75994c0,-0.75995 0.75995,-0.75995 0.75995,-0.75995c0.68018,0 2.15065,-0.22866 2.75098,0.0472c3.25381,1.49518 0.31418,4.20315 -1.11639,5.43527l-0.26812,0.27128c0,0 -0.53737,0.53737 -1.07473,0z"/><path d="M337.57102,259.42634c0.69851,0.29936 0.39915,0.99786 0.39915,0.99786l-0.31292,0.73012c-0.51977,1.14961 -1.19748,2.03278 -2.05114,2.64422c0.28394,-0.7387 0.4288,-1.65516 0.18481,-2.35835c0.173,-0.26742 0.33034,-0.56507 0.47336,-0.89387l0.3089,-0.72082c0,0 0.29936,-0.69851 0.99785,-0.39915z"/><path d="M352.73509,262.82423l-0.92483,-0.82843c-0.0427,-0.29889 -0.0854,-0.59778 -0.1281,-0.89666c0,0 -0.06361,-0.44531 0.24965,-0.69966c-0.0586,-0.71197 0.66459,-0.80237 0.66459,-0.80237c4.34649,-0.47449 4.02098,-5.5955 3.70472,-8.82159l-0.2373,-0.83058c-0.02213,-0.07129 -0.03406,-0.14708 -0.03406,-0.22565c0,-0.4197 0.34024,-0.75994 0.75995,-0.75994c0.19299,0 0.36917,0.07194 0.5032,0.19046l1.02199,0.89424l-0.01352,0.01545c0.03886,0.02956 0.07705,0.06015 0.11446,0.09185c0.0272,0.02304 1.09792,2.15199 1.12882,2.2315c0.89159,2.29402 2.25698,6.79047 0.25295,8.97864c-1.65107,1.80277 -3.76839,1.41488 -5.95409,1.41488h-0.25619c0,0 -0.02204,0 -0.05861,-0.00375c-0.34971,0.27357 -0.79363,0.05162 -0.79363,0.05162z"/><path d="M358.2283,250.2898c0.67971,-0.33986 1.01958,0.33986 1.01958,0.33986l0.25728,0.51632c0.21676,0.49267 0.48874,0.96187 0.78663,1.41017c1.49455,3.73359 0.99304,8.91495 -3.43381,10.29503c-1.37002,0.4271 -3.01451,0.19742 -4.43449,0.19742c0,0 -0.75995,0 -0.75995,-0.75994c0,-0.75995 0.75995,-0.75995 0.75995,-0.75995c1.2343,0 2.78622,0.2559 3.97401,-0.12599c3.44013,-1.10602 3.7105,-5.23253 2.54916,-8.13899c-0.31784,-0.47514 -0.59656,-0.97884 -0.83039,-1.50047l-0.22782,-0.45389c0,0 -0.33986,-0.67971 0.33986,-1.01957z"/><path d="M346.72647,249.19226c0.6184,-0.44171 1.0601,0.17668 1.0601,0.17668l0.39382,0.5517c0.71265,0.98936 1.97466,3.76845 1.39121,5.02341c-0.33682,0.72448 -0.89093,0.92788 -1.26862,0.93383c0.12551,0.18174 0.21081,0.4579 -0.00526,0.80362c-0.40277,0.64443 -1.0472,0.24166 -1.0472,0.24166c-0.97014,-0.86498 -1.73492,-0.9755 -0.20818,-2.36017c0.27979,-0.25375 1.0721,0.19128 1.11817,-0.18362c0.1198,-0.97482 -0.61061,-2.81225 -1.19603,-3.5468l-0.41469,-0.58021c0,0 -0.44171,-0.61839 0.17669,-1.0601z"/><path d="M345.5217,256.08151c0.06246,0.37481 -0.31234,0.43727 -0.31234,0.43727l-0.44518,0.07196c-1.83493,0.71282 -3.62302,0.82743 -4.79899,2.59379c0,0 -0.21078,0.31616 -0.52693,0.10539c-0.31615,-0.21077 -0.10539,-0.52693 -0.10539,-0.52693c1.2899,-1.93234 3.24378,-2.08438 5.22653,-2.90408l0.52502,-0.08973c0,0 0.37481,-0.06247 0.43727,0.31233z"/><path d="M355.7141,255.90142c0,0.37997 -0.37998,0.37997 -0.37998,0.37997l-0.39907,-0.08326c-0.87144,-0.69869 -3.27338,-2.62882 -4.42586,-1.24079c0,0 -0.26868,0.26868 -0.53736,0c-0.26868,-0.26868 0,-0.53736 0,-0.53736c1.70784,-1.55145 4.08882,0.10802 5.43795,1.18473l-0.07566,-0.08327c0,0 0.37998,0 0.37998,0.37998z"/><path d="M336.90252,263.46762c0.19549,0.32583 -0.13033,0.52132 -0.13033,0.52132l-0.36591,0.21623c-0.29312,0.29621 -0.55651,0.78047 -0.42473,1.17581c0.00182,0.29901 0.05923,0.94628 -0.21502,1.16322c-0.70024,0.55391 -4.05849,-0.56929 -4.94141,-0.72255c-0.28352,-0.04922 -1.26923,0.6928 -2.07258,0.56095c0,0 -0.3748,-0.06246 -0.31234,-0.43727c0.06246,-0.3748 0.43727,-0.31234 0.43727,-0.31234c1.26797,0.21499 1.85846,-0.54969 3.28987,-0.40758c0.86307,0.08569 3.05527,1.15887 3.06408,0.27729c-0.33867,-1.01601 0.01637,-1.21218 0.70718,-1.89653l0.4426,-0.26888c0,0 0.32583,-0.1955 0.52132,0.13033z"/><path d="M347.05566,260.6653c-0.07452,0.37259 -0.44711,0.29807 -0.44711,0.29807l-0.36718,-0.07532c-2.18387,0.01101 -3.05103,0.14924 -4.43606,1.88052c0,0 -0.23736,0.2967 -0.53407,0.05934c-0.29671,-0.23737 -0.05935,-0.53407 -0.05935,-0.53407c1.53998,-1.92498 2.6927,-2.17212 5.10436,-2.16203l0.44133,0.08638c0,0 0.37259,0.07452 0.29807,0.44711z"/><path d="M355.7066,256.47463c0.31615,0.21077 0.10539,0.52693 0.10539,0.52693l-0.12507,0.1729c-0.73923,1.80419 -1.78659,2.58353 -3.74854,2.58353c0,0 -0.37998,0 -0.37998,-0.37998c0,-0.37998 0.37998,-0.37997 0.37998,-0.37997c1.64587,0 2.43965,-0.54898 3.04295,-2.10582l0.19834,-0.31221c0,0 0.21078,-0.31615 0.52693,-0.10539z"/></g><g><path d="M349.76977,253.30948c0.67972,0.33986 0.33986,1.01957 0.33986,1.01957l-0.38627,0.54864c-0.51165,0.3272 -0.77741,0.96086 -1.28986,1.2868c-0.7456,0.47423 -2.13781,0.24988 -2.97453,0.24988c0,0 -0.21716,0 -0.41931,-0.11608c-0.09261,-0.00863 -0.19422,-0.03693 -0.30484,-0.09224c-0.67972,-0.33986 -0.33986,-1.01957 -0.33986,-1.01957c1.16498,-2.32255 1.34849,-4.95054 0.17332,-7.30808l-0.85789,-1.103c-0.10283,-0.12963 -0.16424,-0.2936 -0.16424,-0.47191c0,-0.41971 0.34024,-0.75995 0.75995,-0.75995c0.14201,0 0.27491,0.03895 0.38863,0.10675l0.88508,0.50576l-0.15975,0.27957c2.32081,1.29467 3.90269,4.09632 4.20499,6.81466c0.04639,0.01465 0.09463,0.03416 0.14472,0.0592z" fill="#ede3bf"/><path d="M341.00273,271.94982c0.17106,-0.51317 0.36858,-0.81861 0.37016,-1.19944c-1.44463,0.227 -3.1068,-0.11305 -4.48032,-0.28873c-1.46674,-0.1876 -2.65153,-0.22767 -3.81859,-0.40433c0.06504,-0.06819 0.10498,-0.16054 0.10498,-0.26221c0,-0.071 -0.01947,-0.13746 -0.05337,-0.19431l-0.35018,-0.61281l-0.0649,0.03709c-0.04738,-0.0849 -0.10795,-0.16002 -0.188,-0.22065c-0.07959,-0.06029 -0.1499,-0.10615 -0.21209,-0.13953c0.31018,-0.74315 0.23277,-1.7385 -0.55732,-1.81227c-0.26693,-0.02492 -0.58873,0.14326 -0.70667,0.38401c-0.43123,0.88022 0.24258,0.83538 0.49479,1.21063c-0.34818,-0.16076 -0.65619,-0.17526 -0.83185,0.25033l-0.01979,0.00247l-0.03831,-0.03193l-0.03415,0.04098l-0.03349,0.00419l-0.02221,-0.32842c-0.32059,0.15002 -0.66547,0.33439 -0.88999,0.60658c-0.0361,-0.01784 -0.07235,-0.03597 -0.10877,-0.05438c-0.58521,-0.17042 -1.14923,-0.50857 -1.57844,-0.95375c-0.04377,0.00619 -0.09063,0.0095 -0.1408,0.0095c-0.75995,0 -0.75995,-0.75995 -0.75995,-0.75995c0,-1.04888 -0.08777,-2.32847 0.35823,-3.36022c0.04423,0.01803 0.09261,0.02795 0.14331,0.02795c0.15169,0 0.28262,-0.08888 0.34354,-0.21741l0.07383,-0.14767c0.10915,0.05458 0.22562,0.11281 0.29845,0.14923l0.01882,0.03136l0.01314,-0.00788c0.05187,0.21741 0.11013,0.43319 0.17643,0.64642l0.11223,0.05227l-0.02721,0.03628l0.35042,0.26282c0.06402,0.04911 0.14413,0.0783 0.23105,0.0783c0.20985,0 0.37997,-0.17012 0.37997,-0.37997v-0.60979c0.00737,-0.00233 0.01464,-0.00489 0.0218,-0.00765c1.20299,0.63477 2.74536,0.98683 3.94423,0.64356c0.09879,0.23727 0.46864,0.48635 0.40701,0.51797l0.72965,0.25482c0,0 0.26868,-0.26868 0,-0.53736c-0.0198,-0.0198 -0.0396,-0.03667 -0.05929,-0.05096c-0.03859,-0.16708 -0.08036,-0.33388 -0.09415,-0.49685l0.00969,-0.01292c0.04911,-0.06402 0.0783,-0.14413 0.0783,-0.23105c0,-0.01463 -0.00082,-0.02908 -0.00244,-0.04328c0.14494,-0.13987 0.27466,-0.30187 0.38621,-0.48779c0.48614,-0.81023 0.8606,-2.21636 0.44386,-3.1546c0.53939,-0.62548 0.92701,-1.36166 0.32382,-1.66612l-0.68879,-0.22959c-0.31053,-0.0955 -0.53626,-0.38464 -0.53626,-0.72649c0,-0.4197 0.34024,-0.75995 0.75995,-0.75995h1.23931v0.26204c0.55739,-0.06184 1.13103,-0.10756 1.69621,-0.1684c0.09713,0.07122 0.20574,0.14367 0.31502,0.17079l-0.02811,0.03937c-0.04611,0.06289 -0.07335,0.14049 -0.07335,0.22445c0,0.20985 0.17012,0.37997 0.37997,0.37997c0.1259,0 0.23749,-0.06122 0.30663,-0.15553l0.26246,-0.34995l-0.00814,-0.0061l0.18995,-0.26593l-0.02908,-0.02077c0.10771,-0.04123 0.2099,-0.09436 0.30156,-0.16148l0.0076,-0.10919c0.59808,-0.1382 1.15341,-0.33623 1.6293,-0.64049c0.25702,-0.16432 0.42259,-0.4535 0.59335,-0.72915c0.03323,0.01962 0.06971,0.03433 0.10844,0.04312l0.69927,0.17481l0.02082,-0.08329c0.42105,0.08715 0.72285,-0.0533 1.19284,-0.59732c0.77573,-0.10467 1.62058,-0.16651 1.819,-0.01277c0.0497,0.03851 0.08803,0.08665 0.11886,0.14108l-0.01086,0.00434c-0.14431,0.05388 -0.24707,0.19298 -0.24707,0.35608c0,0.19561 0.14782,0.35671 0.33785,0.37767l0.19163,0.02395c0.03042,0.04305 0.06727,0.08049 0.11307,0.11014c0.23917,0.15482 0.52771,0.14815 0.82565,0.10422l0.28555,0.09518c0.04016,0.01444 0.08345,0.0223 0.12857,0.0223c0.20985,0 0.37997,-0.17012 0.37997,-0.37997c0,-0.0824 -0.02623,-0.15868 -0.07079,-0.22093c0.04457,-0.06225 0.07079,-0.13853 0.07079,-0.22093c0,-0.20985 -0.17012,-0.37997 -0.37997,-0.37997h-0.29272c0.00295,-0.00374 0.00588,-0.00747 0.00879,-0.01118c0.38464,-0.01113 0.74401,-0.06999 1.06186,-0.20791c0.5642,-0.24481 1.3522,-1.30731 1.98289,-1.48717c1.71642,-0.48948 4.09908,0.57225 5.48838,1.50602c0.51207,0.15605 1.19637,0.05454 1.53619,0.46816c0.46507,0.56608 0.3177,1.59948 0.28947,2.53781c-0.04636,-0.06384 -0.09419,-0.13759 -0.14423,-0.22228l-0.20306,-0.5577c-0.05073,-0.15018 -0.19278,-0.2583 -0.36007,-0.2583c-0.20985,0 -0.37997,0.17012 -0.37997,0.37997c0,0.01801 0.00125,0.03573 0.00368,0.05308l0.06608,0.52863c-0.32606,-0.10736 -0.69774,0.01035 -0.82433,0.65638c-0.04078,0.09006 -0.04078,0.17588 -0.04078,0.17588l0.01369,0.00318c-0.00609,0.05477 -0.01069,0.11258 -0.01369,0.17356l0.37997,-0.08837l0.37997,0.08837c-0.00694,-0.07115 -0.01177,-0.12843 -0.01437,-0.1734l0.01437,-0.00334c0,0 0,-0.04378 -0.01486,-0.10163c0.01151,-0.09858 0.07929,0.05795 0.216,0.28441l-0.17811,0.13358l0.26247,0.34995c0.06914,0.0943 0.18073,0.15553 0.30663,0.15553c0.20985,0 0.37997,-0.17012 0.37997,-0.37997v-0.32222c0.06913,0.04812 0.13864,0.08717 0.20927,0.11786c0.04106,0.1939 0.10619,0.36907 0.20639,0.51709c0.40615,0.59998 1.3813,0.57009 1.87381,1.10147c1.22009,1.3164 0.33678,2.43709 0.69798,3.83283c0.34312,1.32588 1.29161,2.49358 0.11218,3.85809c-1.36229,1.57608 -5.79138,0.90475 -8.07129,0.80581c-0.33124,-1.09551 0.39587,-2.61376 -0.57042,-3.25796l-0.03863,-0.05151l0.06832,-0.13663l-0.34665,-0.17333c-0.0528,-0.0278 -0.11294,-0.04353 -0.17676,-0.04353c-0.09271,0 -0.17767,0.03321 -0.24363,0.08837c-0.02474,0.02069 -0.04681,0.04447 -0.0656,0.07074c-0.09633,0.06893 -0.15911,0.18174 -0.15911,0.30923v0v0.51541c-0.0245,0.28187 -0.13823,0.57143 -0.06781,0.84512c0.00983,0.03821 0.41309,0.44639 0.61144,0.74338c0.01533,0.11024 0.03344,0.22081 0.05403,0.33067c-0.02941,0.02601 -0.06367,0.04218 -0.1017,0.05086l0.03484,-0.20907l-0.52317,-0.0872c-0.02254,-0.00417 -0.04578,-0.00635 -0.06953,-0.00635c-0.20985,0 -0.37997,0.17012 -0.37997,0.37997c0,0.06382 0.01573,0.12397 0.04353,0.17677l0.17332,0.34665l0.01179,-0.00589l0.00868,0.0418c0.00034,0.00043 0.00068,0.00084 0.00103,0.00127c-0.67841,-0.05017 -1.41472,-0.11794 -2.12785,-0.14572c0.83279,0.75521 1.34288,1.8908 0.46693,2.95728c-0.43831,0.53365 -1.46575,0.21142 -1.94775,0.70597c-0.42905,0.44023 -0.44411,2.02334 -1.01105,2.50023c-1.20168,1.0108 -2.34451,0.43134 -3.4843,0.92434c-0.91277,0.3948 -1.71808,1.68562 -2.79708,2.00814c-0.5531,0.16533 -1.17004,0.05083 -1.71494,0.24147c-1.29019,0.41599 -6.39065,2.12115 -6.44953,-1.04369c-0.01205,-0.64732 1.35308,-0.56913 1.5346,-1.1906c0.16998,-0.58195 -0.79808,-1.23026 -0.489,-1.75182c0.22377,-0.3776 0.51966,-0.62913 0.86367,-0.79212c0.09029,-0.0081 0.19083,-0.05252 0.29438,-0.11521c1.45303,-0.46156 3.55076,0.29188 4.82241,-0.0372c0.68278,-0.17669 1.4451,-0.60439 2.15515,-0.87949c0.01109,-0.06669 0.02499,-0.10838 0.02499,-0.10838zM344.60136,259.55338c-0.12873,0.36459 -0.54506,0.46868 -0.54506,0.46868c-2.02232,0.4739 -4.26028,2.65451 -0.7609,2.90396c2.55186,0.1819 2.8223,-0.76587 3.76236,-2.89781c0.05972,-0.13544 0.40466,-0.11985 0.35942,-0.26078c-0.12515,-0.38985 -0.82104,0.1779 -1.22388,0.10465c-0.33782,-0.06142 -0.65148,-0.21716 -0.97721,-0.32574c-0.2049,0.00235 -0.40981,0.0047 -0.61471,0.00705z" fill="#eeeeee"/><path d="M332.22048,269.70694c0.02217,0.01262 0.04257,0.02315 0.06081,0.03121l0.15558,0.20743c-0.13149,-0.02651 -0.26337,-0.05541 -0.39601,-0.08709c0.06059,-0.05143 0.12041,-0.10313 0.17962,-0.15155z" fill="#eeeeee"/><path d="M343.7817,264.54062c-0.98308,-0.15455 -1.97411,-0.51163 -2.94591,-0.87606c0,0 -0.71156,-0.26683 -0.44473,-0.97839c0.26683,-0.71156 0.97839,-0.44473 0.97839,-0.44473c1.0183,0.38186 1.95311,0.8156 2.93682,0.87789l0.35755,-0.20432c0.47582,-0.27018 1.01975,-0.40833 1.49166,-0.6853c0.49955,-0.29319 0.19886,-0.83886 0.4857,-1.27479c0.29562,-0.44927 0.61359,-1.11321 1.15112,-1.13052c3.24812,-0.10462 0.85853,2.91102 -0.07547,3.70126c-0.95217,0.80562 -1.9539,1.09601 -2.97406,1.09476l-0.05035,0.02877c0,0 -0.52939,0.3025 -0.91075,-0.10859z" fill="#e2e2e2"/><path d="M348.81144,268.32969c-0.46271,0.23713 0.47738,2.22179 -0.37025,3.07347c-0.44763,0.44977 -1.4034,0.52367 -1.51885,1.14764c-0.50764,2.16065 -2.38164,2.62609 -4.27669,3.43365c-3.40149,1.44953 -6.12146,2.54876 -9.93772,2.54876c0,0 -0.75995,0 -0.75995,-0.75995c0,-0.75995 0.75995,-0.75995 0.75995,-0.75995c3.61455,0 6.10136,-1.03081 9.339,-2.42587c1.27967,-0.55139 3.17837,-0.90329 3.39255,-2.37009c0.42996,-1.50304 0.79938,-1.37714 2.00485,-1.96151c0.63339,-0.30704 -0.5261,-1.40266 -0.34602,-2.08312c0.2843,-1.07422 1.80492,-1.72046 2.80358,-1.73044c0.35247,-0.00352 0.71745,0.02444 1.09098,0.07281c-0.0204,0.13479 -0.02855,0.26852 0.00494,0.39866c0.00983,0.03821 0.41309,0.44639 0.61144,0.74338c0.01533,0.11024 0.03344,0.22081 0.05403,0.33067c-0.02941,0.02601 -0.06367,0.04218 -0.1017,0.05086l0.03484,-0.20907l-0.52317,-0.0872c-0.02254,-0.00417 -0.04578,-0.00635 -0.06953,-0.00635c-0.20985,0 -0.37997,0.17012 -0.37997,0.37997c0,0.01704 0.00112,0.03382 0.00329,0.05027c-0.58755,-0.12989 -1.10684,-0.19984 -1.81562,0.16339z" fill="#e2e2e2"/><path d="M359.72449,264.30482c0.72094,-0.24032 0.96126,0.48063 0.96126,0.48063l0.13799,0.46731c0.02792,0.40273 0.05583,0.80547 0.08375,1.20821c-0.1497,0.22993 -1.04685,1.65676 -1.2953,1.85139c-1.56114,1.22306 -4.89936,0.52661 -7.07233,0.17974c-0.08717,-0.53806 0.01102,-1.14688 0.01427,-1.69439c2.52168,0.53974 5.17528,1.30291 6.88255,-0.71983c-0.04117,-0.21909 -0.08235,-0.43818 -0.12353,-0.65728l-0.06929,-0.15452c0,0 -0.24032,-0.72094 0.48063,-0.96126z" fill="#e2e2e2"/><path d="M338.80342,274.68331c-0.53736,-0.53736 0,-1.07472 0,-1.07472l0.35371,-0.35055c0.17872,-0.15253 3.35427,-2.41095 1.5782,-2.8558c-0.59726,-0.1496 -1.59837,0.0472 -2.22366,0.0472c0,0 -0.75995,0 -0.75995,-0.75995c0,-0.75995 0.75995,-0.75995 0.75995,-0.75995c0.68018,0 2.15064,-0.22866 2.75098,0.0472c3.2538,1.49518 0.31418,4.20314 -1.11639,5.43526l-0.26812,0.27129c0,0 -0.53736,0.53736 -1.07472,0z" fill="#e2e2e2"/><path d="M337.25645,258.31625c0.6985,0.29936 0.39915,0.99785 0.39915,0.99785l-0.31292,0.73012c-0.51977,1.1496 -1.19748,2.03277 -2.05115,2.64422c0.28394,-0.7387 0.42881,-1.65515 0.18482,-2.35835c0.173,-0.26742 0.33033,-0.56508 0.47335,-0.89388l0.3089,-0.72082c0,0 0.29936,-0.6985 0.99785,-0.39915z" fill="#e2e2e2"/><path d="M352.42053,261.71414l-0.92483,-0.82843c-0.0427,-0.29889 -0.0854,-0.59778 -0.1281,-0.89667c0,0 -0.06362,-0.44531 0.24964,-0.69966c-0.0586,-0.71197 0.66459,-0.80237 0.66459,-0.80237c4.34649,-0.47449 4.02098,-5.5955 3.70472,-8.82159l-0.23731,-0.83057c-0.02214,-0.07129 -0.03406,-0.14708 -0.03406,-0.22565c0,-0.41971 0.34024,-0.75995 0.75995,-0.75995c0.19298,0 0.36917,0.07193 0.5032,0.19045l1.02199,0.89424l-0.01352,0.01545c0.03887,0.02956 0.07705,0.06014 0.11446,0.09185c0.02719,0.02304 1.09792,2.152 1.12882,2.2315c0.89159,2.29402 2.25699,6.79047 0.25296,8.97864c-1.65106,1.80277 -3.76839,1.41488 -5.9541,1.41488h-0.25619c0,0 -0.02204,0 -0.05861,-0.00375c-0.34971,0.27358 -0.79363,0.05162 -0.79363,0.05162z" fill="#ede3bf"/><path d="M357.91374,249.1797c0.67972,-0.33986 1.01957,0.33986 1.01957,0.33986l0.25728,0.51632c0.21676,0.49267 0.48875,0.96187 0.78663,1.41017c1.49455,3.73359 0.99303,8.91495 -3.43381,10.29503c-1.37001,0.42711 -3.01451,0.19742 -4.43449,0.19742c0,0 -0.75995,0 -0.75995,-0.75995c0,-0.75995 0.75995,-0.75995 0.75995,-0.75995c1.2343,0 2.78622,0.2559 3.97401,-0.12598c3.44014,-1.10602 3.7105,-5.23253 2.54916,-8.13899c-0.31783,-0.47513 -0.59656,-0.97884 -0.83039,-1.50047l-0.22782,-0.45389c0,0 -0.33986,-0.67972 0.33986,-1.01957z" fill="#e6ddba"/><path d="M346.4119,248.08216c0.61839,-0.44171 1.0601,0.17668 1.0601,0.17668l0.39382,0.5517c0.71264,0.98936 1.97466,3.76845 1.39121,5.02341c-0.33682,0.72448 -0.89093,0.92789 -1.26862,0.93383c0.12551,0.18174 0.21081,0.45791 -0.00526,0.80361c-0.40277,0.64443 -1.0472,0.24166 -1.0472,0.24166c-0.97014,-0.86499 -1.73492,-0.9755 -0.20818,-2.36018c0.27978,-0.25375 1.07209,0.19128 1.11817,-0.18362c0.1198,-0.97482 -0.61061,-2.81225 -1.19602,-3.54679l-0.41469,-0.58021c0,0 -0.44171,-0.61839 0.17668,-1.0601z" fill="#e6ddba"/><path d="M345.20714,254.97141c0.06247,0.3748 -0.31234,0.43727 -0.31234,0.43727l-0.44519,0.07197c-1.83494,0.71281 -3.62303,0.82743 -4.79899,2.59379c0,0 -0.21077,0.31616 -0.52693,0.10539c-0.31616,-0.21077 -0.10539,-0.52693 -0.10539,-0.52693c1.2899,-1.93235 3.24378,-2.08438 5.22653,-2.90408l0.52502,-0.08974c0,0 0.3748,-0.06247 0.43727,0.31234z" fill="#f3f3f3"/><path d="M355.39953,254.79133c0,0.37997 -0.37997,0.37997 -0.37997,0.37997l-0.39907,-0.08326c-0.87144,-0.6987 -3.27338,-2.62882 -4.42586,-1.24079c0,0 -0.26868,0.26868 -0.53736,0c-0.26868,-0.26868 0,-0.53736 0,-0.53736c1.70784,-1.55144 4.08882,0.10802 5.43796,1.18474l-0.07567,-0.08326c0,0 0.37997,0 0.37997,0.37997z" fill="#f3f3f3"/><path d="M336.58795,262.35753c0.19549,0.32582 -0.13033,0.52132 -0.13033,0.52132l-0.36591,0.21623c-0.29312,0.29621 -0.55651,0.78047 -0.42473,1.17581c0.00182,0.29902 0.05923,0.94628 -0.21502,1.16322c-0.70025,0.55391 -4.0585,-0.56929 -4.94142,-0.72255c-0.28351,-0.04921 -1.26922,0.6928 -2.07258,0.56095c0,0 -0.3748,-0.06247 -0.31234,-0.43727c0.06247,-0.3748 0.43727,-0.31234 0.43727,-0.31234c1.26797,0.21499 1.85846,-0.5497 3.28986,-0.40758c0.86307,0.08569 3.05527,1.15887 3.06408,0.27729c-0.33867,-1.016 0.01637,-1.21217 0.70718,-1.89653l0.4426,-0.26888c0,0 0.32582,-0.19549 0.52132,0.13033z" fill="#f3f3f3"/><path d="M346.7411,259.5552c-0.07452,0.37259 -0.44711,0.29808 -0.44711,0.29808l-0.36718,-0.07532c-2.18387,0.01101 -3.05103,0.14924 -4.43606,1.88052c0,0 -0.23737,0.29671 -0.53408,0.05934c-0.29671,-0.23737 -0.05934,-0.53408 -0.05934,-0.53408c1.53998,-1.92498 2.6927,-2.17213 5.10436,-2.16203l0.44133,0.08638c0,0 0.37259,0.07452 0.29808,0.44711z" fill="#f3f3f3"/><path d="M355.39203,255.36453c0.31616,0.21077 0.10539,0.52693 0.10539,0.52693l-0.12506,0.1729c-0.73923,1.8042 -1.78659,2.58353 -3.74854,2.58353c0,0 -0.37997,0 -0.37997,-0.37997c0,-0.37997 0.37997,-0.37997 0.37997,-0.37997c1.64587,0 2.43965,-0.54899 3.04294,-2.10582l0.19834,-0.31221c0,0 0.21077,-0.31616 0.52693,-0.10539z" fill="#f3f3f3"/></g></g><g><g><path d="M404.19441,247.4786c0.10651,-0.58297 0.74092,-1.20049 0.45385,-1.71894c-0.46832,-0.8458 -1.65635,-1.31275 -1.80849,-2.26749c-0.11622,-0.72936 -0.11534,-1.55693 0.24394,-2.20221c0.38368,-0.68911 1.64034,-0.53157 2.02854,-1.21815c0.15934,-0.28181 0.59688,-2.7854 0.31201,-2.88333c-0.8607,-0.29588 -2.09158,-0.29723 -3.00226,-0.46361c-2.64465,-0.48317 -5.28928,-0.96632 -7.93393,-1.44949c-0.86676,-0.15835 -2.35974,-0.72458 -3.24097,-0.63996c-1.48276,0.14238 -2.28739,2.37965 -4.08707,1.80757c-0.9789,-0.31117 -1.21191,-1.67112 -1.94738,-2.38816c-0.45319,-0.44183 -1.85635,-0.60851 -2.73568,-0.78674c-1.72971,-0.30803 -3.45625,-0.64358 -5.18166,-0.96642c-0.6045,-0.11311 -1.35341,-0.74418 -1.814,-0.33666c-0.40902,0.3619 -0.4294,2.41057 -0.55075,2.88415c-0.4896,1.91072 -0.6862,3.76274 -1.04334,5.69647c-0.41395,1.04215 -0.7206,2.13229 -0.92037,3.23571c-0.06804,0.3758 -0.96831,3.08224 -0.3992,3.45309c0.50448,0.32874 1.20252,0.09608 1.79485,0.2043c0.61855,0.113 1.21989,0.53169 1.83883,0.42084c1.64753,-0.29507 0.95574,-2.68941 3.58033,-2.10412c2.43701,0.54346 0.80027,1.71079 1.55911,2.84323c0.33695,0.50284 1.19932,0.16717 1.79483,0.27554c0.88037,0.16021 1.76058,0.32128 2.6408,0.4823c0.1891,-0.22432 0.50056,-0.40996 1.00385,-0.31801c0.81687,0.14924 0.90249,0.80381 0.89585,1.11325c0.0813,0.17403 0.11733,0.39632 0.06565,0.67924c-0.04921,0.26934 -0.15335,0.45918 -0.28195,0.59243c-0.85373,4.67296 -1.70746,9.34593 -2.56119,14.01889l-0.19462,1.06531c0,0 -0.19717,1.07923 -1.2764,0.88206c-1.07923,-0.19717 -0.88206,-1.2764 -0.88206,-1.2764c0.82619,-4.5222 1.80891,-9.90123 2.66739,-14.60024c-1.23759,-0.17971 -2.51396,-0.34106 -3.67176,-0.70177c-0.61732,-0.19232 -1.36552,-0.23861 -1.80342,-0.71434c-0.44342,-0.48172 -0.4301,-1.23918 -0.58117,-1.87625c-0.02698,-0.1138 0.16629,-0.37955 0.05406,-0.34667c-0.94926,0.27811 -1.29346,1.83895 -2.54762,2.13062c-0.89208,0.20746 -2.9022,-0.40353 -3.82826,-0.61451c-0.53907,-0.12282 -1.19925,-0.04178 -1.6054,-0.41691c-0.55189,-0.50973 -0.8877,-1.26984 -1.02128,-2.00913c-0.11744,-0.64997 0.19519,-1.30655 0.3045,-1.95793c0.29739,-1.77208 0.60143,-3.39372 1.26553,-5.06564c0.40215,-2.23494 0.80436,-4.46165 1.21774,-6.69513c0.18038,-0.97455 0.33122,-2.41071 1.20812,-3.06446c0.90544,-0.67503 2.54562,-0.20577 3.48566,-0.03773c1.80756,0.32313 3.61293,0.65906 5.41911,0.98995c0.00338,0.02106 0.00694,0.04218 0.01069,0.06337c1.22326,0.33272 2.67301,0.47009 3.63856,1.30065c0.52153,0.44861 0.34704,1.52047 0.96399,1.82482c0.11651,0.05748 0.20233,-0.16325 0.30818,-0.23857c0.48742,-0.34679 0.94683,-0.73985 1.47133,-1.02749c0.47158,-0.25861 0.96417,-0.53148 1.49754,-0.60063c1.0688,-0.13856 2.8179,0.46696 3.88338,0.66162c2.64465,0.48317 5.28928,0.96632 7.93393,1.44949c0.91749,0.16762 3.07887,0.23656 3.79825,0.77882c1.47652,1.11298 1.33603,4.33629 0.39295,5.83217c-0.44945,0.7129 -1.50256,0.80154 -2.12526,1.3694c-0.30647,0.27948 0.24781,0.81594 0.51611,1.13225c0.41296,0.48685 1.10238,0.7823 1.32891,1.37917c0.19985,0.52656 -0.09309,1.12302 -0.16736,1.68131c-0.20593,1.54803 -0.49025,3.17699 -0.85787,4.69559c-0.13621,0.56265 -0.06698,1.25764 -0.47191,1.67136c-0.4377,0.44719 -0.97401,0.6287 -1.54467,0.66637c0.19019,-0.30663 0.36773,-0.61951 0.53251,-0.93564c0.01412,-0.0271 -0.26779,-0.8124 -0.51199,-1.48421c0.31808,-1.03866 0.3061,-2.87659 0.48839,-3.87438z" fill="#ad7943"/><path d="M388.67432,267.67332l-0.1557,0.85225c0,0 -0.19717,1.07923 -1.2764,0.88206c-1.07923,-0.19717 -0.88206,-1.2764 -0.88206,-1.2764l0.1557,-0.85225c0.99367,-5.43892 1.72806,-11.00018 3.19632,-16.33255c0.3001,0.52113 0.68467,0.99187 1.13889,1.39073c0.19896,0.17471 0.41127,0.33563 0.6357,0.48097c-1.23247,4.87231 -1.91044,9.91793 -2.81245,14.85519z" fill="#ad7943"/><path d="M389.57205,251.50002c0.07038,-0.38523 0.33398,-0.68645 0.67257,-0.82193c0.1042,-0.268 0.24279,-0.50401 0.48216,-0.64624c0.54163,-0.32184 1.26184,0.00961 1.88875,0.07234c0.82254,0.0823 1.5728,0.50971 2.35546,0.77575c1.49627,0.50861 3.07803,0.22225 4.60697,0.49625c1.10699,0.19839 2.212,0.43766 3.32326,0.60995c0.3457,0.0536 0.96762,0.27134 1.04719,-0.06932c0.07741,-0.33141 -0.02463,-0.68022 -0.03695,-1.02033c0,0 0.07678,-1.0944 1.17118,-1.01762c1.0944,0.07678 1.01761,1.17119 1.01761,1.17119c-0.08186,0.65111 0.08868,1.38862 -0.24559,1.95334c-1.54228,2.60548 -5.47072,0.43727 -7.67112,0.34019c-0.452,-0.01995 -0.90268,0.1106 -1.35451,0.08718c-1.34582,-0.06977 -2.39972,-0.58328 -3.62221,-0.99883c-0.31562,-0.10728 -0.67348,-0.0523 -0.98564,-0.16929c-0.15909,-0.05963 -0.23399,-0.43181 -0.37808,-0.34181c-0.14692,0.09177 0.07557,0.33811 0.11336,0.50716l-0.36899,1.10384c0,0 -0.34781,1.04051 -1.38831,0.69269c-1.0405,-0.34782 -0.69268,-1.38832 -0.69268,-1.38832l0.19639,-0.58751c-0.12698,-0.21812 -0.17972,-0.48092 -0.1308,-0.74867z" fill="#ad7943"/><path d="M388.01158,268.28183c0.4898,0.98169 -0.49188,1.47148 -0.49188,1.47148l-1.42338,0.46497c-1.51862,-0.29023 -3.45939,-0.76999 -3.91219,-2.60098c-0.13637,-0.55144 0.27106,-1.1033 0.40658,-1.65494c0,0 0.34781,-1.0405 1.38831,-0.69269c1.0405,0.34782 0.69268,1.38831 0.69268,1.38831c-0.6746,1.12518 0.91451,1.24649 1.81896,1.40184l0.04944,-0.26988c0,0 0.98168,-0.4898 1.47148,0.49189z" fill="#ad7943"/><path d="M380.77969,248.7793c-0.86899,-0.39372 -1.43154,-1.2103 -2.03393,-1.86028c-0.15841,0.00833 -0.27039,-0.01212 -0.27039,-0.01212l0.0957,-0.01338c-0.04645,0.00256 -0.0929,0.00476 -0.13935,0.00663c-0.0611,0.78168 -0.90533,0.93362 -0.90533,0.93362c-1.06824,0.19187 -2.10888,0.73048 -3.19102,0.64726c-5.65106,-0.43463 -1.73048,-6.84883 -0.87984,-9.45009c0.51306,-1.56891 0.55663,-3.38682 0.59719,-5.02522c0.01457,-0.58886 -0.32034,-1.29051 0.02605,-1.76693c1.73726,-2.3894 4.38107,-0.43561 6.42106,-0.07627c0.27734,0.05067 2.36217,0.4234 2.50952,0.48831c0.22208,0.09783 0.4188,0.22472 0.5981,0.37038c0.22376,-0.13986 0.49836,-0.1999 0.77839,-0.14874c0.14217,0.02597 0.27291,0.07827 0.38809,0.15094l1.18489,0.70942c1.13748,0.38398 1.88822,1.11525 3.24108,0.92312c1.167,-0.16573 2.1032,-1.19497 3.36796,-1.26275c0.17066,-0.00914 2.72276,0.46761 2.8439,0.48974c2.26632,0.41404 4.53911,0.80239 6.80051,1.24242c1.97902,0.38509 4.67592,1.86449 3.61148,4.42192c-0.22208,0.53356 -0.84578,0.78783 -1.26866,1.18175c-0.31981,0.23007 -1.03438,0.49504 -0.83603,0.83543c0.20379,0.34974 0.66697,0.53067 0.80113,0.91257c0.08918,0.2539 -0.1468,1.56555 0.16417,2.01053c1.12808,1.61425 2.32917,3.23772 1.26896,5.40918c-0.41313,0.84616 -0.88211,1.23365 -1.42662,1.4133c0.00316,0.07942 -0.00231,0.16041 -0.01719,0.24187c-0.08197,0.44868 -0.42605,0.78338 -0.84543,0.87501l-1.55124,0.37554l-0.00957,-0.03954c-0.07147,0.02568 -0.1439,0.04908 -0.21741,0.0699c-0.06245,0.01769 -2.4745,-0.42735 -2.819,-0.49072c-1.60619,-0.2955 -3.236,-0.35465 -4.85669,-0.55435c-0.71609,-0.08824 -2.3109,-0.74132 -3.06752,-0.40054c-0.78391,0.35306 -1.38322,1.67028 -1.61556,2.43449c-0.53544,1.7612 -0.3213,3.37934 -0.43665,5.15088c-0.0788,1.21031 -0.44765,2.50892 -0.67946,3.70583c0.03008,0.30722 0.04452,0.60692 0.04494,0.90231c0.05529,0.28818 0.09657,0.57662 0.11492,0.86588c0.04293,0.67644 -0.33036,1.78948 -0.58315,2.54779c-0.04816,0.51547 -0.07604,1.0523 -0.46174,1.3319c-0.13215,0.0958 -0.26026,0.18132 -0.38445,0.25704l-0.03992,0.06669c-0.22391,0.39462 -0.68007,0.62379 -1.15161,0.53764c-0.13629,-0.0249 -0.26207,-0.07398 -0.37371,-0.14202c-0.97697,-0.10248 -1.55387,-1.11035 -1.89955,-2.38677c-0.35069,-1.29489 0.72426,-3.8149 1.0428,-5.07145c0.54535,-2.15125 1.05752,-4.36283 1.5063,-6.5643c0.04001,-0.66236 -0.06528,-1.40754 0.12812,-1.98249c0.01414,-0.29327 0.03097,-0.58681 0.05224,-0.88069c-0.34334,-0.17176 -0.57401,-0.51427 -0.60281,-0.89843l-0.09143,-0.93377c-0.45108,-0.22211 -0.90157,-0.45544 -1.33191,-0.65168c-0.45289,-0.11395 -0.89689,-0.25348 -1.32408,-0.44352c-0.15689,0.04981 -0.29768,0.08109 -0.41332,0.07909c-0.62125,-0.01075 -1.21305,-0.26975 -1.81958,-0.40462z" fill="#ad7943"/><path d="M388.41679,264.31786c-0.52256,1.28256 -0.95056,5.43462 -3.19421,4.98588c-2.13561,-0.42712 -2.02464,-1.00586 -1.94145,-2.91218c0.04203,-0.96321 2.84383,-11.24643 3.30197,-12.75955c0.08357,-0.27602 0.18753,-0.84519 0.32792,-1.4952c-2.36496,-0.13415 -4.65131,-0.53142 -6.37777,-1.56729c-0.66438,-0.39863 -1.28464,-1.18922 -1.8481,-1.72851c-0.23591,0.09789 -0.49462,0.15192 -0.76595,0.15192c-0.17546,0 -0.34565,-0.02259 -0.50781,-0.06503c-0.85816,0.9709 -6.77525,1.04373 -6.88031,-0.84742c-0.20322,-0.31305 -0.32126,-0.68651 -0.32126,-1.08755c0,-0.9822 0.70803,-1.79904 1.64155,-1.96796c0.07752,-0.02505 0.15948,-0.04042 0.24665,-0.0445c0.9675,-0.0453 1.85422,0.59633 2.85512,0.5722c0.67863,-0.01636 1.19621,-0.31621 1.69637,-0.66367c0.51004,-0.6564 1.35662,-1.19469 2.4744,-1.47414c5.06842,-1.2671 9.36606,0.60421 13.89932,2.43709c0.73901,0.2988 3.80984,1.74256 4.55476,3.13385c2.74923,0.56543 7.52967,-0.09946 7.52967,2.59703c0,3.36831 -5.28629,1.75495 -7.26159,1.55221c-1.08236,-0.1111 -2.12654,-0.99224 -3.14671,-1.00754c-0.97406,-0.0146 -2.07385,0.01592 -3.23464,0.04108c-0.45984,3.56223 -2.1904,10.0446 -3.04791,12.14928z" fill="#95693a"/><path d="M406.0589,235.77867c0,1 -1,1 -1,1h-1.02951c-1.86848,0 -3.7377,0.15998 -5.5533,-0.32818c-1.98783,-0.53446 -4.26941,-2.08026 -6.51107,-1.33253c-0.69861,0.23303 -1.3167,0.68812 -2.02956,0.87302c-1.16362,0.47969 -3.03392,1.01343 -4.12657,-0.10537c-0.56103,-0.57445 -0.29334,-1.60648 -0.67721,-2.31174c-0.22585,-0.41494 -1.10245,-0.15113 -1.29335,-0.19592c-1.1798,-0.27685 -2.40834,-0.7286 -3.59931,-1.0455c-0.65466,-0.17419 -3.86599,-1.50662 -4.43263,-0.74622c-0.40979,0.54992 -0.58235,2.37356 -0.8436,3.07284c0,0 -0.35112,0.93633 -1.28745,0.58521c-0.93633,-0.35112 -0.58521,-1.28745 -0.58521,-1.28745c0.33446,-0.88825 0.58585,-3.03187 1.21542,-3.69252c1.83535,-1.92593 8.92503,0.35453 11.04118,1.1746c2.65199,1.02773 0.81699,4.064 3.95024,2.65674c2.00078,-0.4785 3.35656,-1.09487 5.5377,-0.93225c1.94887,0.1453 3.30545,1.36989 5.19886,1.62278c1.27432,0.17021 2.70818,-0.00749 3.99587,-0.00749h1.02951c0,0 1,0 1,1z" fill="#c48a4c"/><path d="M383.11874,243.48724c0.01452,-0.08712 0.03932,-0.15985 0.07119,-0.22052c0.00302,-0.73491 0.01585,-3.32131 0.37898,-3.72086c1.17104,-1.2885 4.32544,0.58786 5.52285,0.75444c0.09208,0.01281 -0.06232,-0.1917 -0.0268,-0.27762c0.1252,-0.30283 1.0489,-2.3864 1.21505,-2.41856c1.2774,-0.24723 2.0568,1.79764 2.62998,2.56447c0.56264,1.11873 0.97303,2.29146 1.51073,3.41666c0.16027,0.33538 0.54848,0.64688 0.47151,1.01052c-0.07594,0.35877 -0.54395,0.49346 -0.83662,0.71443c-1.41392,1.0675 -3.07304,1.64563 -4.52086,2.61734l-0.02181,0.00511l0.00335,0.00586l-0.54568,0.31182c-0.09335,0.05566 -0.20246,0.08764 -0.31904,0.08764c-0.34456,0 -0.62388,-0.27932 -0.62388,-0.62388c0,-0.04635 0.00505,-0.09152 0.01464,-0.13498l0.23541,-1.17707l0.00728,0.00146c0.00347,-0.02414 0.00722,-0.04825 0.01129,-0.07233c0.08535,-0.50615 0.73076,-0.85271 0.71152,-1.36564c-0.01833,-0.4887 -0.9776,-0.03677 -1.46665,-0.03802c-1.24817,-0.0032 -2.26914,-0.38477 -3.4665,-0.64936l-0.44311,-0.07295c0,0 -0.61539,-0.10256 -0.51282,-0.71795z" fill="#b10000"/><path d="M394.42449,244.21199c0.66436,0.74741 -0.08305,1.41177 -0.08305,1.41177l-0.91366,0.75464c-1.3643,0.62675 -3.74377,2.8493 -5.21727,1.00928c-0.61092,-0.76288 1.20898,-2.23982 0.48129,-2.89226c-0.34285,-0.30739 -3.84661,0.17486 -4.46225,0.25824c0,0 -0.99123,0.13216 -1.12339,-0.85906c-0.13216,-0.99123 0.85906,-1.12339 0.85906,-1.12339c1.34166,-0.17637 5.19053,-0.72241 6.23135,0.40676c0.05554,0.06026 0.51731,1.87916 0.27479,2.74757c0.72431,-0.50834 1.93218,-1.2768 2.1183,-1.36306l0.42304,-0.43354c0,0 0.74741,-0.66436 1.41177,0.08305z" fill="#950000"/></g><path d="M387.40916,269.22737c0,-0.25637 0.13145,-0.38129 0.25956,-0.44216c0.42521,-1.16105 1.25216,-1.85821 1.6113,-3.26938c0.77626,-1.48455 -0.76999,-5.56663 0.98521,-6.37395c2.20488,-1.01415 4.94372,1.06667 7.12933,1.11558c1.56398,1.04265 3.82405,0.98245 5.5981,1.87113c0.36116,0.18091 1.91092,0.95246 1.97198,1.24457c0.35603,1.7032 -4.46751,1.40092 -5.15822,1.40092c-2.17673,-0.00387 -5.48654,0.43708 -7.41263,1.49596c-1.43706,0.79003 -2.28433,2.87269 -3.65574,3.30088c0,0 -0.24958,0.0624 -0.43545,-0.08135l-0.39343,0.2378c0,0 -0.5,0 -0.5,-0.5z" fill="#d9d393"/></g></g></g></svg>