<svg version="1.1" xmlns="http://www.w3.org/2000/svg" xmlns:xlink="http://www.w3.org/1999/xlink" width="331.1901" height="332.83129" viewBox="0,0,331.1901,332.83129"><g transform="translate(-24.84918,101.09277)"><g data-paper-data="{&quot;isPaintingLayer&quot;:true}" fill-rule="nonzero" stroke-linejoin="miter" stroke-miterlimit="10" stroke-dasharray="" stroke-dashoffset="0" style="mix-blend-mode: normal"><g data-paper-data="{&quot;index&quot;:null}" stroke="none" stroke-width="0.5" stroke-linecap="butt"><path d="M318.44861,144.83811c6.37316,-2.66122 11.89915,-0.92815 16.90528,-6.16798c0.02984,-0.55729 0.28259,-1.17403 1.01376,-1.72241c1.95549,-1.46661 3.4221,0.48887 3.4221,0.48887c1.59456,2.12606 5.00127,5.46809 5.90686,7.71592c1.65851,4.11675 -1.40584,9.97202 -0.4647,13.78082c0.36421,1.47393 2.71066,1.43034 3.84996,2.43388c6.63886,5.84769 11.27217,17.95891 0.72112,21.81396c-7.11981,2.84158 -14.92548,2.01055 -21.75011,4.55235c-1.94017,0.72261 -7.52837,3.83395 -9.39089,2.9864c-4.06192,-1.84836 -2.81874,-10.84124 -3.88512,-14.11916c-1.70495,-5.24082 -6.21896,-6.11578 -10.20412,-9.35258c-2.24412,-4.39642 -2.56673,-7.33982 -2.56673,-12.15886l-0.6011,-0.16156c0,0 -1.35588,-2.03382 0.67795,-3.38972c0.67511,-0.45007 1.27552,-0.52665 1.77644,-0.4281c0.59202,-1.34688 2.23491,-1.34688 2.23491,-1.34688l0.08939,0.07298c4.47992,-1.1194 8.03861,-3.23312 12.26503,-4.99793z" fill="#d10000"/><path d="M316.98273,187.76594c-0.22193,-0.1773 -0.44955,-0.37841 -0.68336,-0.60514c-1.48261,-1.43767 -0.5388,-8.17667 -1.75579,-10.57887c-3.59557,-7.0972 -13.53056,-10.00482 -13.71064,-19.39053c-0.08506,-4.43328 8.9312,-11.53047 13.5051,-10.23719c1.3646,0.38584 2.02461,1.98619 3.03693,2.97928c1.72153,4.17684 2.57876,8.87085 4.83881,12.79381c2.42283,4.20547 5.90854,7.63222 8.58042,11.65988c1.58834,2.3943 4.31005,6.89471 2.76725,9.94574c-1.20489,2.3828 -10.56059,5.16882 -13.17167,6.37227c0,0 -2.22527,1.01149 -3.23674,-1.21377c-0.31352,-0.6898 -0.31607,-1.26295 -0.17026,-1.7255z" fill="#c00000"/><path d="M339.22102,135.49486c1.22275,2.24144 -1.08154,3.43084 -1.08154,3.43084l-2.8502,1.47082c-5.97616,3.29204 -11.74021,3.54047 -18.00583,5.85825c-6.38918,2.36348 -13.08185,7.39465 -19.03011,10.75318c-5.94683,3.35771 -11.7436,7.87922 -17.86984,10.81024c-2.32417,1.11197 -4.97265,1.622 -7.11502,3.03791c0,0 -2.17049,1.40754 -3.61749,-0.70376c-1.447,-2.1113 0.72349,-3.51882 0.72349,-3.51882c2.35738,-1.50576 5.18063,-2.17444 7.71682,-3.37419c7.30353,-3.45495 14.15495,-8.82245 21.28158,-12.75122c5.06815,-2.79396 10.59054,-6.94982 15.97758,-8.96708c6.04693,-2.26438 11.71063,-2.38327 17.42151,-5.5896l2.92199,-1.50858c0,0 2.30429,-1.18941 3.52703,1.05203z" fill="#515151"/><path d="M326.61374,158.55731c0.39706,1.07698 -0.6653,1.69785 -0.6653,1.69785l-0.16141,0.09431c-1.88965,1.08784 -3.70416,1.10894 -5.61686,1.74122c-0.90439,0.29895 1.79633,1.07622 2.04526,1.99563c0.16692,0.61653 -0.83075,0.99409 -1.0825,1.58109c-0.25541,0.59552 1.29101,0.43912 1.70119,0.94076c0.59382,0.72623 1.34062,1.52072 1.36982,2.45834c0.01785,0.57395 -0.98564,0.67198 -1.25667,1.1782c-0.20153,0.37637 0.34704,0.79492 0.62859,1.11586c0.2441,0.27823 3.42128,-1.88974 3.74914,-2.08134c0,0 0.29622,-0.17312 0.68528,-0.20777c0.78419,-0.40893 1.54986,0.21422 1.54986,0.21422c0.94276,0.76937 2.14073,2.0865 3.51334,1.97827c1.88747,-0.14881 5.45057,-3.09297 5.57398,-5.07576c0.25196,-4.04842 -2.86227,-8.90624 -6.05471,-10.86114c-2.65162,-0.38748 -6.00727,-0.89833 -5.90925,2.5647zM333.3859,174.1643c-2.11472,0.12472 -3.55208,-0.90347 -5.0247,-2.09337c-1.13221,0.74353 -2.85562,2.05418 -3.91037,2.1659c-3.32497,0.3521 -5.41693,-3.56618 -3.13867,-5.55474c0.53541,-0.46732 -1.4997,-0.34481 -1.92676,-0.91284c-0.54916,-0.73041 -1.13727,-1.5778 -1.14355,-2.49164c-0.00096,-0.14152 0.09349,-0.21798 0.2302,-0.26882c-1.59137,-1.45293 -1.76326,-3.47142 -0.18974,-5.14209c0.8234,-0.87422 3.81791,-1.14799 5.46107,-1.76952l0.02307,-0.17705c0.01987,-5.8814 5.19217,-6.17746 9.82751,-5.33312c4.30803,2.49235 8.41649,8.43372 7.95928,13.85908c-0.27539,3.26805 -4.83404,7.5217 -8.16734,7.71829zM319.36436,164.70402c0.10775,-0.1153 -0.05997,0.02045 -0.28186,0.15552c0.11279,-0.03491 0.21315,-0.08201 0.28186,-0.15552z" fill="#cfcfcf"/><path d="M330.51523,164.88078c0.89331,-1.94064 4.38271,-2.68512 5.77739,-0.1887c1.28157,2.294 -0.50264,4.17416 -2.63895,4.51316c-0.52127,0.08276 -1.66875,-0.50579 -2.576,-1.02004c-0.05767,-0.02708 -0.11469,-0.05919 -0.17024,-0.09719c-0.33928,-0.195 -0.63395,-0.37158 -0.83317,-0.48608c0,0 -1.26379,-0.72824 -0.53555,-1.99203c0.28036,-0.48653 0.64009,-0.67783 0.97653,-0.7291z" fill="#cfcfcf"/><path d="M333.27025,157.7464c1.49051,2.44039 -0.87076,5.1152 -3.00003,4.94099c-0.20982,0.26796 -0.55303,0.4875 -1.11453,0.49296c-1.45852,0.01422 -1.47274,-1.44432 -1.47274,-1.44432c-0.00196,-0.22977 -0.01122,-0.57317 -0.01457,-0.96449c-0.00585,-0.06703 -0.00589,-0.13248 -0.00113,-0.19602c-0.00278,-1.04286 0.04769,-2.33147 0.37561,-2.74505c1.34393,-1.69492 3.85773,-2.32662 5.22739,-0.08409z" data-paper-data="{&quot;index&quot;:null}" fill="#cfcfcf"/></g><g fill="#bd2222" stroke="none" stroke-linecap="butt"><path d="M182.99174,201.74668c0,-9.75607 8.24364,-17.66492 18.41269,-17.66492c10.16905,0 18.41269,7.90885 18.41269,17.66492c0,9.75607 -8.24364,17.6649 -18.41269,17.6649c-10.16905,0 -18.41269,-7.90885 -18.41269,-17.6649z" stroke-width="NaN"/><path d="M267.55143,202.00612c0,-9.75607 8.24364,-17.66491 18.41269,-17.66491c10.16904,0 18.41267,7.90884 18.41267,17.66491c0,9.75607 -8.24363,17.66491 -18.41267,17.66491c-10.16905,0 -18.41269,-7.90884 -18.41269,-17.66491z" stroke-width="NaN"/><path d="M199.51151,219.41158v-35.32982h86.72888v35.32982z" stroke-width="0"/></g><g fill="#9e1c1c" stroke="none" stroke-width="0.5" stroke-linecap="butt"><path d="M198.2816,123.35032c4.26343,0 4.26343,4.64792 4.26343,4.64792c0,17.14352 0,38.45708 0,55.6006c0,0 0,4.64792 -4.26343,4.64792c-4.26343,0 -4.26342,-4.64792 -4.26342,-4.64792c0,-17.14352 0,-34.28704 0,-51.43056v-4.17004c0,0 -0.00001,-4.64792 4.26342,-4.64792z"/><path d="M290.00392,123.95859c4.26343,0 4.26343,4.64792 4.26343,4.64792c0,17.14352 0,38.45708 0,55.6006c0,0 0,4.64792 -4.26343,4.64792c-4.26343,0 -4.26343,-4.64792 -4.26343,-4.64792c0,-17.14352 0,-34.28704 0,-51.43055v-4.17005c0,0 0,-4.64792 4.26343,-4.64792z"/><path d="M198.42151,110.07111c4.26343,0 4.26343,1.33916 4.26343,1.33916c0,4.9394 0,11.0803 0,16.0197c0,0 0,1.33916 -4.26343,1.33916c-4.26343,0 -4.26343,-1.33916 -4.26343,-1.33916c0,-4.9394 0,-9.87882 0,-14.81822v-1.20148c0,0 0,-1.33916 4.26343,-1.33916z"/><path d="M290.14383,110.24636c4.26343,0 4.26342,1.33916 4.26342,1.33916c0,4.9394 0,11.08029 0,16.01969c0,0 0,1.33916 -4.26342,1.33916c-4.26343,0 -4.26343,-1.33916 -4.26343,-1.33916c0,-4.9394 0,-9.87882 0,-14.81822v-1.20148c0,0 0,-1.33916 4.26343,-1.33916z"/><path d="M198.22594,89.71135c4.26343,0 4.26342,2.08654 4.26342,2.08654c0,7.69608 0,17.26417 0,24.96025c0,0 0.00001,2.08654 -4.26342,2.08654c-4.26343,0 -4.26343,-2.08654 -4.26343,-2.08654c0,-7.69608 0,-15.39216 0,-23.08823v-1.87203c0,0 0,-2.08654 4.26343,-2.08654z"/><path d="M289.94825,106.69601c4.26343,0 4.26343,0.88265 4.26343,0.88265c0,3.25558 0,7.30307 0,10.55864c0,0 0,0.88264 -4.26343,0.88264c-4.26343,0 -4.26342,-0.88264 -4.26342,-0.88264c0,-3.25558 0,-6.51116 0,-9.76674v-0.7919c0,0 -0.00001,-0.88265 4.26342,-0.88265z"/></g><g fill="#bd2222" stroke="none" stroke-linecap="butt"><path d="M248.49627,214.68646c0,-7.28808 5.16709,-13.19624 11.54104,-13.19624c6.37394,0 11.54104,5.90816 11.54104,13.19624c0,7.28808 -5.16711,13.19624 -11.54104,13.19624c-6.37394,0 -11.54104,-5.90816 -11.54104,-13.19624z" stroke-width="NaN"/><path d="M301.49816,214.75594c0,-7.28808 5.16711,-13.19624 11.54105,-13.19624c6.37394,0 11.54103,5.90815 11.54103,13.19624c0,7.28808 -5.16709,13.19624 -11.54103,13.19624c-6.37394,0 -11.54105,-5.90815 -11.54105,-13.19624z" stroke-width="NaN"/><path d="M258.85085,227.88271v-26.39248h54.36153v26.39248z" stroke-width="0"/></g><g fill="#db4747" stroke="none" stroke-linecap="butt"><path d="M251.8138,214.67076c0,-5.73746 4.65113,-10.38859 10.38859,-10.38859c5.73746,0 10.38859,4.65113 10.38859,10.38859c0,5.73746 -4.65113,10.38858 -10.38859,10.38858c-5.73746,0 -10.38859,-4.65113 -10.38859,-10.38858z" stroke-width="NaN"/><path d="M299.52306,214.82333c0,-5.73746 4.65112,-10.38858 10.38859,-10.38858c5.73745,0 10.38858,4.65112 10.38858,10.38858c0,5.73746 -4.65112,10.38859 -10.38858,10.38859c-5.73746,0 -10.38859,-4.65113 -10.38859,-10.38859z" stroke-width="NaN"/><path d="M261.13437,225.05933v-20.77716h48.93313v20.77716z" stroke-width="0"/></g><g fill="#c74040" stroke="none" stroke-linecap="butt"><path d="M255.58405,222.1714c0,-1.67525 4.18251,-3.0333 9.3419,-3.0333c5.15939,0 9.3419,1.35806 9.3419,3.0333c0,1.67525 -4.18251,3.03329 -9.3419,3.03329c-5.15939,0 -9.3419,-1.35804 -9.3419,-3.03329z" stroke-width="NaN"/><path d="M298.48643,222.21594c0,-1.67525 4.18251,-3.03329 9.3419,-3.03329c5.15938,0 9.34188,1.35806 9.34188,3.03329c0,1.67525 -4.1825,3.0333 -9.34188,3.0333c-5.15939,0 -9.3419,-1.35805 -9.3419,-3.0333z" stroke-width="NaN"/><path d="M263.96556,225.2047v-6.06659h44.00293v6.06659z" stroke-width="0"/></g><path d="M256.11954,214.72064c0,-5.05172 4.09523,-9.14693 9.14693,-9.14693c5.05172,0 9.14693,4.09522 9.14693,9.14693c0,5.05172 -4.09521,9.14694 -9.14693,9.14694c-5.05171,0 -9.14693,-4.09522 -9.14693,-9.14694z" fill="#bd2222" stroke="none" stroke-width="0" stroke-linecap="butt"/><path d="M276.06498,214.66249c0,-5.05172 4.09522,-9.14692 9.14692,-9.14692c5.05172,0 9.14694,4.09522 9.14694,9.14692c0,5.05172 -4.09522,9.14694 -9.14694,9.14694c-5.05171,0 -9.14692,-4.09522 -9.14692,-9.14694z" fill="#bd2222" stroke="none" stroke-width="0" stroke-linecap="butt"/><path d="M259.95667,214.63299c0,-2.95637 2.3966,-5.35296 5.35296,-5.35296c2.95637,0 5.35297,2.3966 5.35297,5.35296c0,2.95637 -2.39661,5.35297 -5.35297,5.35297c-2.95637,0 -5.35296,-2.39661 -5.35296,-5.35297z" fill="#fa5050" stroke="none" stroke-width="0" stroke-linecap="butt"/><path d="M280.01626,214.93781c0,-2.95637 2.39661,-5.35296 5.35296,-5.35296c2.95637,0 5.35296,2.3966 5.35296,5.35296c0,2.95637 -2.3966,5.35297 -5.35296,5.35297c-2.95637,0 -5.35296,-2.39661 -5.35296,-5.35297z" fill="#fa5050" stroke="none" stroke-width="0" stroke-linecap="butt"/><path d="M269.3721,217.08939c-1.25365,0 -1.25365,-1.25364 -1.25365,-1.25364v-0.25791c0.00144,-2.78006 -0.24894,-3.66212 -3.21675,-3.64659c0,0 -1.25364,0.00001 -1.25364,-1.25364c0,-1.25365 1.25364,-1.25364 1.25364,-1.25364c4.31143,0.01862 5.72202,2.039 5.72404,6.15387v0.25791c0,0 0,1.25364 -1.25364,1.25364z" fill="#fa6a6a" stroke="none" stroke-width="0.5" stroke-linecap="butt"/><path d="M289.5236,217.11984c-1.25365,0 -1.25364,-1.25364 -1.25364,-1.25364v-0.25791c0.00144,-2.78005 -0.24894,-3.66212 -3.21674,-3.6466c0,0 -1.25365,0 -1.25365,-1.25364c0,-1.25364 1.25365,-1.25364 1.25365,-1.25364c4.31143,0.01862 5.72201,2.039 5.72402,6.15388v0.25791c0,0 0,1.25364 -1.25364,1.25364z" fill="#fa6a6a" stroke="none" stroke-width="0.5" stroke-linecap="butt"/><path d="M257.27304,229.81339v-3.75307h58.29776v3.75307z" fill="#7e1717" stroke="none" stroke-width="0" stroke-linecap="butt"/><g fill="#bd2222" stroke="none" stroke-linecap="butt"><path d="M164.49226,214.15837c0,-7.28809 5.16709,-13.19624 11.54103,-13.19624c6.37394,0 11.54104,5.90815 11.54104,13.19624c0,7.28809 -5.16711,13.19624 -11.54104,13.19624c-6.37394,0 -11.54103,-5.90816 -11.54103,-13.19624z" stroke-width="NaN"/><path d="M217.49416,214.22787c0,-7.28809 5.16711,-13.19624 11.54105,-13.19624c6.37394,0 11.54103,5.90815 11.54103,13.19624c0,7.28809 -5.16709,13.19624 -11.54103,13.19624c-6.37394,0 -11.54105,-5.90815 -11.54105,-13.19624z" stroke-width="NaN"/><path d="M174.84684,227.35463v-26.39248h54.36153v26.39248z" stroke-width="0"/></g><g fill="#db4747" stroke="none" stroke-linecap="butt"><path d="M167.80978,214.14268c0,-5.73746 4.65113,-10.38859 10.38859,-10.38859c5.73746,0 10.38859,4.65113 10.38859,10.38859c0,5.73746 -4.65113,10.38858 -10.38859,10.38858c-5.73746,0 -10.38859,-4.65113 -10.38859,-10.38858z" stroke-width="NaN"/><path d="M215.51904,214.29526c0,-5.73746 4.65113,-10.38858 10.38859,-10.38858c5.73745,0 10.38858,4.65112 10.38858,10.38858c0,5.73746 -4.65112,10.38858 -10.38858,10.38858c-5.73746,0 -10.38859,-4.65112 -10.38859,-10.38858z" stroke-width="NaN"/><path d="M177.13038,224.53126v-20.77716h48.93313v20.77716z" stroke-width="0"/></g><g fill="#c74040" stroke="none" stroke-linecap="butt"><path d="M171.58006,221.64332c0,-1.67525 4.18251,-3.03329 9.3419,-3.03329c5.15939,0 9.3419,1.35806 9.3419,3.03329c0,1.67525 -4.18251,3.03329 -9.3419,3.03329c-5.15939,0 -9.3419,-1.35804 -9.3419,-3.03329z" stroke-width="NaN"/><path d="M214.48241,221.68788c0,-1.67525 4.18251,-3.03329 9.3419,-3.03329c5.15938,0 9.34188,1.35806 9.34188,3.03329c0,1.67525 -4.18251,3.03329 -9.34188,3.03329c-5.15939,0 -9.3419,-1.35804 -9.3419,-3.03329z" stroke-width="NaN"/><path d="M179.96155,224.67662v-6.06659h44.00293v6.06659z" stroke-width="0"/></g><path d="M212.1791,214.07801c0,-5.05172 4.09522,-9.14693 9.14694,-9.14693c5.05171,0 9.14693,4.09522 9.14693,9.14693c0,5.05172 -4.09522,9.14693 -9.14693,9.14693c-5.05172,0 -9.14694,-4.09522 -9.14694,-9.14693z" fill="#bd2222" stroke="none" stroke-width="0" stroke-linecap="butt"/><path d="M192.06098,214.13443c0,-5.05172 4.09522,-9.14693 9.14693,-9.14693c5.05172,0 9.14694,4.09522 9.14694,9.14693c0,5.05172 -4.09522,9.14694 -9.14694,9.14694c-5.05172,0 -9.14693,-4.09522 -9.14693,-9.14694z" fill="#bd2222" stroke="none" stroke-width="0" stroke-linecap="butt"/><path d="M196.01227,214.40972c0,-2.95637 2.39661,-5.35296 5.35297,-5.35296c2.95637,0 5.35296,2.3966 5.35296,5.35296c0,2.95637 -2.3966,5.35297 -5.35296,5.35297c-2.95637,0 -5.35297,-2.39661 -5.35297,-5.35297z" fill="#fa5050" stroke="none" stroke-width="0" stroke-linecap="butt"/><path d="M216.3335,214.4529c0,-2.95637 2.3966,-5.35296 5.35297,-5.35296c2.95637,0 5.35297,2.3966 5.35297,5.35296c0,2.95637 -2.3966,5.35298 -5.35297,5.35298c-2.95637,0 -5.35297,-2.39661 -5.35297,-5.35298z" fill="#fa5050" stroke="none" stroke-width="0" stroke-linecap="butt"/><path d="M205.51958,216.59175c-1.25365,0 -1.25365,-1.25365 -1.25365,-1.25365v-0.2579c0.00144,-2.78005 -0.24894,-3.66213 -3.21674,-3.6466c0,0 -1.25365,0 -1.25365,-1.25364c0,-1.25364 1.25365,-1.25364 1.25365,-1.25364c4.31143,0.01861 5.72201,2.039 5.72402,6.15388v0.2579c0,0 0,1.25365 -1.25364,1.25365z" fill="#fa6a6a" stroke="none" stroke-width="0.5" stroke-linecap="butt"/><path d="M225.76339,216.99142c-1.25364,0 -1.25364,-1.25365 -1.25364,-1.25365v-0.2579c0.00144,-2.78005 -0.24894,-3.66212 -3.21674,-3.6466c0,0 -1.25364,0 -1.25364,-1.25364c0,-1.25364 1.25364,-1.25365 1.25364,-1.25365c4.31143,0.01861 5.72201,2.039 5.72402,6.15388v0.2579c0,0 0,1.25365 -1.25364,1.25365z" fill="#fa6a6a" stroke="none" stroke-width="0.5" stroke-linecap="butt"/><path d="M173.26903,229.28531v-3.75308h58.29776v3.75308z" fill="#7e1717" stroke="none" stroke-width="0" stroke-linecap="butt"/><g fill="#db4747" stroke="#000000" stroke-width="0" stroke-linecap="butt"><path d="M251.41663,153.18021c10.36349,1.01761 15.9737,3.75925 20.40301,13.62263c1.02012,2.27164 2.8991,4.43125 3.03128,7.04264c0.06122,1.20949 -0.12661,2.23278 -0.52273,3.09419c1.39402,-0.17273 2.65087,-0.06536 3.44335,0.72712c6.05707,6.05707 -5.07125,8.15053 -9.38677,8.15053c-24.17688,0 -29.34055,-0.97912 -45.40815,-1.26874c-2.96604,-0.05346 -5.80328,-1.01528 -8.58569,0.01345c-1.19368,0.44134 -6.66129,2.15205 -8.13041,0.98549c-1.55301,-0.15809 -2.68688,-1.12101 -2.31983,-3.4594c-0.01701,-0.13551 -0.02572,-0.27316 -0.02572,-0.41261c0,-0.57227 0.14697,-1.11473 0.40989,-1.60043c2.12148,-7.64515 6.38774,-14.67368 10.61157,-21.57093c0.62715,-1.02409 2.40447,-6.23424 3.89601,-7.34098c3.20882,-2.38104 8.22769,-1.88148 12.00249,-2.51304c3.35898,-0.56197 12.08435,-2.34959 15.13164,0.29771c1.28638,1.11751 1.94904,2.58003 1.88391,3.88428c1.25844,0.11617 2.45645,0.23913 3.56622,0.34808z"/><path d="M281.36022,179.93621c0.26294,0.4857 0.40987,1.02813 0.40987,1.6004c0,0.13945 -0.00875,0.27711 -0.02572,0.41263c0.49777,3.17114 -1.76479,3.81272 -4.08965,3.34785c-1.82011,-0.36395 -3.67839,-1.40608 -4.28024,-2.44356c-4.64168,-8.00146 -6.05308,-19.10708 -12.91414,-26.10035c-0.66875,-0.68166 -4.93961,-0.45788 -5.21353,-0.46999c-4.61046,-0.20389 -7.37427,-0.20585 -13.36127,-0.41456c-4.79033,-0.16699 -5.1011,-4.51074 -2.16703,-7.05967c3.04729,-2.6473 11.77264,-0.85968 15.13164,-0.29771c3.77479,0.63155 8.79366,0.13198 12.00249,2.51302c1.49153,1.10677 3.26884,6.3169 3.89597,7.34099c4.22382,6.89726 8.49009,13.92579 10.61159,21.57093z" data-paper-data="{&quot;index&quot;:null}"/></g><g fill="#db4747" stroke="none" stroke-linecap="butt"><path d="M187.54293,207.53026c0,-9.75607 7.55314,-17.66492 16.87042,-17.66492c9.31728,0 16.87042,7.90885 16.87042,17.66492c0,9.75607 -7.55314,17.6649 -16.87042,17.6649c-9.31728,0 -16.87042,-7.90885 -16.87042,-17.6649z" stroke-width="NaN"/><path d="M265.01978,207.7897c0,-9.75607 7.55314,-17.66491 16.87042,-17.66491c9.31727,0 16.8704,7.90884 16.8704,17.66491c0,9.75607 -7.55313,17.66491 -16.8704,17.66491c-9.31728,0 -16.87042,-7.90884 -16.87042,-17.66491z" stroke-width="NaN"/><path d="M202.67897,225.19516v-35.32982h79.46435v35.32982z" stroke-width="0"/></g><g fill="#c74040" stroke="none" stroke-linecap="butt"><path d="M192.41344,220.28447c0,-2.84862 7.11201,-5.15786 15.88511,-5.15786c8.77311,0 15.88511,2.30926 15.88511,5.15786c0,2.84862 -7.112,5.15786 -15.88511,5.15786c-8.77311,0 -15.88511,-2.30924 -15.88511,-5.15786z" stroke-width="NaN"/><path d="M265.3653,220.36023c0,-2.84862 7.112,-5.15786 15.88511,-5.15786c8.7731,0 15.88509,2.30926 15.88509,5.15786c0,2.84862 -7.112,5.15786 -15.88509,5.15786c-8.77311,0 -15.88511,-2.30924 -15.88511,-5.15786z" stroke-width="NaN"/><path d="M206.66548,225.44234v-10.31572h74.82329v10.31572z" stroke-width="0"/></g><path d="M193.32399,206.07457c0,-8.59002 6.96358,-15.55358 15.55358,-15.55358c8.59002,0 15.55358,6.96358 15.55358,15.55358c0,8.59002 -6.96356,15.5536 -15.55358,15.5536c-8.59002,0 -15.55358,-6.96358 -15.55358,-15.5536z" fill="#bd2222" stroke="none" stroke-width="0" stroke-linecap="butt"/><path d="M261.4487,205.87978c0,-8.59002 6.96357,-15.55358 15.5536,-15.55358c8.59001,0 15.55358,6.96358 15.55358,15.55358c0,8.59002 -6.96358,15.55358 -15.55358,15.55358c-8.59003,0 -15.5536,-6.96358 -15.5536,-15.55358z" fill="#bd2222" stroke="none" stroke-width="0" stroke-linecap="butt"/><path d="M227.23954,205.97571c0,-8.59002 6.96358,-15.55358 15.55358,-15.55358c8.59002,0 15.5536,6.96358 15.5536,15.55358c0,8.59002 -6.96358,15.5536 -15.5536,15.5536c-8.59002,0 -15.55358,-6.96358 -15.55358,-15.5536z" fill="#bd2222" stroke="none" stroke-width="0" stroke-linecap="butt"/><path d="M199.8487,205.92552c0,-5.02706 4.07522,-9.10227 9.10226,-9.10227c5.02706,0 9.10227,4.07522 9.10227,9.10227c0,5.02706 -4.07523,9.10228 -9.10227,9.10228c-5.02706,0 -9.10226,-4.07524 -9.10226,-9.10228z" fill="#fa5050" stroke="none" stroke-width="0" stroke-linecap="butt"/><path d="M233.95836,206.44385c0,-5.02706 4.07523,-9.10226 9.10227,-9.10226c5.02706,0 9.10226,4.07522 9.10226,9.10226c0,5.02706 -4.07522,9.10228 -9.10226,9.10228c-5.02706,0 -9.10227,-4.07524 -9.10227,-9.10228z" fill="#fa5050" stroke="none" stroke-width="0" stroke-linecap="butt"/><path d="M268.51291,206.51725c0,-5.02706 4.07522,-9.10226 9.10227,-9.10226c5.02706,0 9.10227,4.07522 9.10227,9.10226c0,5.02706 -4.07522,9.10229 -9.10227,9.10229c-5.02706,0 -9.10227,-4.07523 -9.10227,-9.10229z" fill="#fa5050" stroke="none" stroke-width="0" stroke-linecap="butt"/><path d="M215.85883,210.10242c-2.13172,0 -2.13172,-2.13171 -2.13172,-2.13171v-0.43856c0.00245,-4.72726 -0.42331,-6.22713 -5.46981,-6.20072c0,0 -2.13171,0.00001 -2.13171,-2.13171c0,-2.13172 2.13171,-2.13171 2.13171,-2.13171c7.33122,0.03165 9.72981,3.46714 9.73324,10.46414v0.43856c0,0 0,2.13171 -2.13171,2.13171z" fill="#fa6a6a" stroke="none" stroke-width="0.5" stroke-linecap="butt"/><path d="M250.12477,210.1542c-2.13172,0 -2.13172,-2.13172 -2.13172,-2.13172v-0.43854c0.00245,-4.72724 -0.4233,-6.22714 -5.46979,-6.20074c0,0 -2.13172,0 -2.13172,-2.13171c0,-2.13171 2.13172,-2.13171 2.13172,-2.13171c7.33122,0.03165 9.72979,3.46714 9.73322,10.46416v0.43854c0,0 0,2.13172 -2.13171,2.13172z" fill="#fa6a6a" stroke="none" stroke-width="0.5" stroke-linecap="butt"/><path d="M284.54765,210.83378c-2.13171,0 -2.13171,-2.13172 -2.13171,-2.13172v-0.43854c0.00245,-4.72724 -0.42331,-6.22713 -5.46979,-6.20073c0,0 -2.13171,0 -2.13171,-2.13171c0,-2.13171 2.13171,-2.13172 2.13171,-2.13172c7.33122,0.03165 9.72979,3.46714 9.73322,10.46416v0.43854c0,0 0,2.13172 -2.13171,2.13172z" fill="#fa6a6a" stroke="none" stroke-width="0.5" stroke-linecap="butt"/><g fill="#c74040" stroke="none" stroke-linecap="butt"><path d="M204.8602,178.78761c0,-2.84862 5.2485,-5.15786 11.72288,-5.15786c6.47438,0 11.72287,2.30926 11.72287,5.15786c0,2.84862 -5.2485,5.15786 -11.72287,5.15786c-6.47438,0 -11.72288,-2.30924 -11.72288,-5.15786z" stroke-width="NaN"/><path d="M258.69712,178.86336c0,-2.84862 5.24851,-5.15786 11.72286,-5.15786c6.47436,0 11.72286,2.30926 11.72286,5.15786c0,2.84862 -5.2485,5.15786 -11.72286,5.15786c-6.47438,0 -11.72286,-2.30924 -11.72286,-5.15786z" stroke-width="NaN"/><path d="M215.37792,183.94547v-10.31572h55.21798v10.31572z" stroke-width="0"/></g><path d="M209.3178,168.3c1.35807,-1.04087 2.18506,-6.22068 3.17677,-8.13023c4.70094,-9.05187 10.12317,-13.24572 20.59183,-13.49436c0.01412,-0.00034 0.02829,-0.00071 0.04248,-0.00116c0.1277,0.02579 0.25954,0.04017 0.3944,0.042c0.01001,0.00005 0.01994,0.00011 0.02976,0.0002c3.27511,0.03032 6.5504,0.0499 9.82572,0.058c2.36124,2.42359 2.31194,3.97946 -0.14787,6.43927c-1.47199,1.47199 -4.14596,0.43386 -6.22733,0.47064c-5.9372,0.10493 -10.69535,0.46335 -14.70393,4.61956c-3.82334,3.96413 -10.35793,20.73981 -12.3346,25.5119c-0.64666,1.56116 -5.64526,5.91012 -7.37118,2.88974c-1.10976,-0.65495 -1.85422,-1.86298 -1.85422,-3.24488c0,-1.34389 0.70408,-2.5233 1.76345,-3.18957c2.43909,-4.43986 6.39637,-11.6505 6.8147,-11.97111z" fill="#bd2222" stroke="none" stroke-width="0.5" stroke-linecap="butt"/><path d="M283.55287,179.8071c1.05939,0.66626 1.76345,1.84569 1.76345,3.18958c0,1.3819 -0.74446,2.58992 -1.85422,3.24487c-1.72592,3.02039 -6.72454,-1.32859 -7.37118,-2.88975c-1.97666,-4.77209 -8.51125,-21.54774 -12.33459,-25.51188c-4.00858,-4.15621 -8.76674,-4.51463 -14.70394,-4.61956c-2.08137,-0.03679 -4.75535,1.00132 -6.22734,-0.47065c-2.30039,-2.30039 -2.49258,-3.8102 -0.57658,-5.9785c5.26569,0.01726 10.53151,0.00503 15.79694,-0.03977c0.09123,0.01212 0.182,0.02366 0.27223,0.03454c7.1137,1.4232 11.41762,5.5724 15.24375,12.93977c0.99169,1.90956 1.81869,7.08937 3.17676,8.13026c0.41834,0.32063 4.37561,7.53125 6.8147,11.97111z" data-paper-data="{&quot;index&quot;:null}" fill="#bd2222" stroke="none" stroke-width="0.5" stroke-linecap="butt"/><path d="M267.22682,157.85726c-0.38132,0.76266 -1.14401,0.38134 -1.14401,0.38134l-0.30879,-0.15769c-4.75302,-1.91521 -9.25463,-2.62831 -14.07083,-4.06836c-2.69783,-0.06064 -5.42748,0.02137 -8.20636,0.02137c-7.30883,0 -13.86975,1.46848 -20.92442,2.96932c0,0 -0.83438,0.17565 -1.01005,-0.65874c-0.17566,-0.83438 0.65873,-1.01005 0.65873,-1.01005c0.65894,-0.13713 1.31363,-0.2744 1.96503,-0.41066c-0.21082,-0.58315 0.35181,-0.95823 0.35181,-0.95823c5.2528,-3.48038 12.61589,-1.88869 18.54999,-2.38319c7.47612,-0.00519 15.36107,0.76076 22.80754,1.4973l0.10188,-0.00424c0,0 0.85268,0 0.85268,0.85269c0,0.85269 -0.85268,0.85269 -0.85268,0.85269l-0.27157,-0.00423c-0.41847,-0.04235 -0.83839,-0.08467 -1.25962,-0.12686c0.13648,0.17534 0.22327,0.43317 0.08888,0.79151c-0.04877,0.13009 -0.11082,0.23101 -0.18048,0.30886c0.6742,0.22969 1.35137,0.47711 2.03284,0.7474l0.43809,0.21574c0,0 0.76265,0.38133 0.38133,1.14399zM228.14457,154.11181c1.34013,-0.26535 2.67469,-0.5157 4.01255,-0.74027c-1.39317,0.10959 -2.74712,0.32898 -4.01255,0.74027z" fill="#bd2222" stroke="none" stroke-width="0.5" stroke-linecap="butt"/><path d="M250.41921,168.4873c3.72104,-2.03565 1.10812,-5.26708 -0.93947,-7.83054c-4.0385,-2.16686 -11.09713,-2.45774 -15.22075,0.30948c-2.01961,1.3553 -2.93056,6.94031 -1.92189,9.02735c0.73352,1.51776 2.86583,1.97037 4.26144,2.4916c0,0 1.13168,0.42438 1.18387,1.50591c0.20372,0.43267 0.20372,0.85272 0.20372,0.85272c0,0.4649 -0.3289,5.16251 0.116,5.24865c0.51315,0.09936 1.29447,0.42063 1.5678,-0.02488c0.36765,-0.5992 -0.14864,-1.72048 0.46907,-2.05617c1.0091,-0.54836 2.31027,-0.24975 3.44471,-0.07069c0.78362,0.12369 1.5736,1.8549 2.04532,1.21704c0.46497,-0.62872 0.24774,-1.91652 1.00252,-2.12094c1.12562,-0.30483 3.61558,2.06973 3.37289,0.92909c-0.51322,-2.41234 -1.61184,-4.34336 -1.62928,-7.01276v-0.22887c0,0 0,-1.50647 1.38367,-1.75208zM229.07834,171.45511c-1.85135,-3.64479 -0.17123,-11.09107 3.11306,-13.40099c5.45226,-3.83479 14.27041,-3.16232 19.56614,-0.14827c3.75596,4.37806 6.63819,10.02818 0.43369,13.6824l-0.17289,0.13377c0.35809,2.12081 1.91856,5.45517 1.50315,6.86557c-0.7939,2.6953 -3.03367,3.76052 -5.55252,2.97594c0.0307,0.17591 0.00825,0.32299 -0.14194,0.4094c-0.96981,0.55788 -2.22882,0.4597 -3.34014,0.33044c-0.86425,-0.10052 -1.99193,-2.32734 -2.15515,-1.47271c-0.69455,3.63658 -6.12856,3.84585 -7.81038,0.11377c-0.53349,-1.18389 -0.21273,-3.81524 -0.12623,-5.47131c-2.16744,-0.82154 -4.14219,-1.7057 -5.31673,-4.01805zM247.74962,180.82607c0.0057,-0.318 0.04557,-0.57913 -0.00974,-0.39401c-0.03525,0.11803 -0.02306,0.2532 0.00974,0.39401z" fill="#cfcfcf" stroke="none" stroke-width="0.5" stroke-linecap="butt"/><path d="M240.66463,168.75457c0.15364,0.38729 0.17365,0.88572 -0.16744,1.48261c-0.88598,1.55045 -2.43645,0.66448 -2.43645,0.66448c-0.24409,-0.13986 -0.61278,-0.34223 -1.02848,-0.5804c-0.07448,-0.03525 -0.14366,-0.07569 -0.2079,-0.11992c-1.10404,-0.64129 -2.43497,-1.49065 -2.66952,-2.09278c-0.96137,-2.46756 -0.07619,-5.51493 3.14031,-5.5774c3.50031,-0.06796 4.86895,4.08031 3.36949,6.22338z" fill="#cfcfcf" stroke="none" stroke-width="0.5" stroke-linecap="butt"/><path d="M246.50392,161.43518c3.21652,0.06245 4.10168,3.10981 3.14032,5.5774c-0.23461,0.6021 -1.5655,1.45148 -2.66954,2.09278c-0.06422,0.04425 -0.13343,0.08467 -0.20789,0.1199c-0.41568,0.23819 -0.78439,0.44053 -1.02848,0.58041c0,0 -1.55047,0.88599 -2.43644,-0.66448c-0.34109,-0.59689 -0.32107,-1.09529 -0.16744,-1.48262c-1.49952,-2.14307 -0.13083,-6.29134 3.36946,-6.22338z" data-paper-data="{&quot;index&quot;:null}" fill="#cfcfcf" stroke="none" stroke-width="0.5" stroke-linecap="butt"/><path d="M190.53877,192.38878c0.28612,5.36975 -0.22337,5.43422 -0.22337,5.43422l-0.65224,0.08254c-3.01497,0.33555 -6.07983,0.00052 -9.09933,0.38266c0,0 -0.50951,0.06449 -0.79563,-5.30527c-0.28612,-5.36975 0.22337,-5.43422 0.22337,-5.43422c3.01877,-0.38206 6.09046,0.04885 9.09935,-0.3827l0.65222,-0.08254c0,0 0.50949,-0.06447 0.79562,5.30529z" fill="#fc9b2d" stroke="none" stroke-width="0.5" stroke-linecap="butt"/><path d="M307.81221,194.14009c0.09229,5.38751 -0.41717,5.40838 -0.41717,5.40838l-0.65218,0.02671c-3.01312,0.07754 -6.05181,-0.51888 -9.07112,-0.39521c0,0 -0.50948,0.02089 -0.60179,-5.36661c-0.09229,-5.38751 0.41717,-5.40838 0.41717,-5.40838c3.01854,-0.12367 6.06063,0.56912 9.07112,0.3952l0.65218,-0.02672c0,0 0.50947,-0.02089 0.60178,5.36661z" fill="#fcbb71" stroke="none" stroke-width="0.5" stroke-linecap="butt"/><path d="M195.2854,231.73852v-6.38179h99.13044v6.38179z" fill="#7e1717" stroke="none" stroke-width="0" stroke-linecap="butt"/><g data-paper-data="{&quot;index&quot;:null}" fill="#ff6e3b" stroke="#000000" stroke-width="0" stroke-linecap="butt"><path d="M219.04602,144.41199c2.21993,-1.19519 3.71752,-1.40199 5.93972,-0.01827c0.51182,0.31871 1.18102,0.49887 1.56029,1.00576c0.17566,0.23479 0.27612,0.46577 0.31287,0.69236c0.2568,-0.22299 0.52384,-0.37116 0.79011,-0.31897c2.03519,0.39906 0.08179,2.32273 -0.78537,2.9056c-4.85819,3.26532 -6.02802,3.76597 -9.29584,5.8779c-0.60321,0.38986 -1.30323,0.5798 -1.7234,1.16228c-0.18024,0.24991 -1.04787,1.33209 -1.50064,1.2961c-0.33342,0.17798 -0.69133,0.13765 -0.9334,-0.38183c-0.02173,-0.02491 -0.04209,-0.05142 -0.0609,-0.07942c-0.07728,-0.11499 -0.12103,-0.24385 -0.13378,-0.37694c-0.60628,-1.82275 -0.69825,-3.81132 -0.78105,-5.76777c-0.01228,-0.29047 -0.35885,-1.57747 -0.2086,-2.00131c0.3232,-0.91184 1.39917,-1.4893 2.0724,-2.12604c0.59904,-0.56661 2.11095,-2.10426 3.08083,-1.98386c0.40941,0.05084 0.74008,0.25519 0.90317,0.52607c0.26854,-0.14661 0.5259,-0.28372 0.76364,-0.41173z"/><path d="M228.67663,145.74424c0.1184,0.06211 0.22124,0.15122 0.29853,0.26621c0.01882,0.02802 0.03564,0.05685 0.05053,0.08639c0.5283,0.56997 0.16033,1.00446 -0.36962,1.22507c-0.41488,0.17269 -0.92906,0.21428 -1.19012,0.0871c-2.01338,-0.98094 -3.79692,-3.02193 -6.12011,-3.50051c-0.22645,-0.04666 -1.05442,0.57515 -1.11106,0.60972c-0.95398,0.5817 -1.50961,0.95461 -2.74084,1.72124c-0.98514,0.61341 -1.63426,-0.21742 -1.38894,-1.12592c0.2548,-0.94353 2.24956,-1.76275 3.00042,-2.10351c0.84384,-0.38293 1.78486,-1.16114 2.75123,-1.11606c0.44918,0.02094 1.51,0.82786 1.77434,0.94894c1.78029,0.81547 3.58682,1.65167 5.04572,2.90136z" data-paper-data="{&quot;index&quot;:null}"/></g><g data-paper-data="{&quot;index&quot;:null}" fill="#ff3b3b" stroke="#000000" stroke-width="0" stroke-linecap="butt"><path d="M267.27097,144.2824c0.23775,0.12801 0.4951,0.26512 0.76363,0.41173c0.16309,-0.27088 0.49374,-0.47524 0.90317,-0.52607c0.9699,-0.12042 2.48177,1.41725 3.08084,1.98386c0.67323,0.63673 1.74921,1.21419 2.07241,2.12605c0.15024,0.42383 -0.19634,1.71083 -0.20862,2.00131c-0.08279,1.95646 -0.17477,3.94502 -0.78105,5.76777c-0.01276,0.13308 -0.05649,0.26194 -0.13377,0.37694c-0.01881,0.028 -0.03917,0.05448 -0.0609,0.0794c-0.24207,0.51949 -0.59997,0.55981 -0.9334,0.38184c-0.45277,0.03599 -1.3204,-1.0462 -1.50064,-1.2961c-0.42017,-0.58248 -1.12019,-0.77241 -1.72339,-1.16228c-3.26781,-2.11192 -4.43765,-2.61258 -9.29585,-5.8779c-0.86718,-0.58286 -2.82056,-2.50654 -0.78537,-2.9056c0.26628,-0.0522 0.53332,0.09597 0.79012,0.31897c0.03677,-0.2266 0.13721,-0.45756 0.31287,-0.69234c0.37928,-0.50689 1.0485,-0.68705 1.56031,-1.00576c2.2222,-1.38374 3.71979,-1.17695 5.93973,0.01826z"/><path d="M257.64032,145.61471c1.45889,-1.2497 3.26545,-2.08587 5.04572,-2.90134c0.26434,-0.12108 1.32516,-0.928 1.77434,-0.94894c0.96639,-0.04507 1.9074,0.73314 2.75124,1.11607c0.75086,0.34077 2.74561,1.15999 3.00041,2.1035c0.24532,0.9085 -0.4038,1.73933 -1.38894,1.12592c-1.23122,-0.76664 -1.78686,-1.13954 -2.74084,-1.72125c-0.05665,-0.03455 -0.88462,-0.65636 -1.11106,-0.60972c-2.32319,0.47858 -4.10676,2.51957 -6.12014,3.50052c-0.26104,0.12718 -0.77521,0.0856 -1.19009,-0.08707c-0.52994,-0.22061 -0.89792,-0.6551 -0.36962,-1.22507c0.01487,-0.02952 0.0317,-0.05836 0.05054,-0.08638c0.07729,-0.11499 0.18009,-0.20412 0.29851,-0.26622z" data-paper-data="{&quot;index&quot;:null}"/></g><path d="M200.19185,149.54665c2.37296,0 2.37296,2.58697 2.37296,2.58697c0,9.54185 0,21.4047 0,30.94655c0,0 0,2.58697 -2.37296,2.58697c-2.37296,0 -2.37297,-2.58697 -2.37297,-2.58697c0,-9.54185 0,-19.08371 0,-28.62556v-2.32099c0,0 0.00001,-2.58697 2.37297,-2.58697z" fill="#8a1919" stroke="none" stroke-width="0.5" stroke-linecap="butt"/><path d="M287.88176,148.85751c2.37297,0 2.37296,2.58697 2.37296,2.58697c0,9.54185 0,21.4047 0,30.94655c0,0 0.00001,2.58697 -2.37296,2.58697c-2.37297,0 -2.37297,-2.58697 -2.37297,-2.58697c0,-9.54185 0,-19.0837 0,-28.62555v-2.321c0,0 0.00001,-2.58697 2.37297,-2.58697z" fill="#8a1919" stroke="none" stroke-width="0.5" stroke-linecap="butt"/><path d="M303.76223,145.04438l-129.85539,-21.25393" fill="#bd2222" stroke="#bd2222" stroke-width="5" stroke-linecap="round"/><path d="M305.25469,133.86249l-129.85538,-21.25393" fill="#bd2222" stroke="#bd2222" stroke-width="5" stroke-linecap="round"/><path d="M306.83135,118.67087l-129.2312,-21.09788" fill="#bd2222" stroke="#bd2222" stroke-width="5" stroke-linecap="round"/><path d="M179.21657,86.23505l129.10726,21.25394" fill="#bd2222" stroke="#bd2222" stroke-width="5" stroke-linecap="round"/><path d="M172.11027,126.76888l129.85538,21.25393" fill="#bd2222" stroke="#8a1919" stroke-width="1.5" stroke-linecap="round"/><path d="M173.69057,115.50503l129.85539,21.25393" fill="#bd2222" stroke="#8a1919" stroke-width="1.5" stroke-linecap="round"/><path d="M305.90554,121.46429l-129.85539,-21.25394" fill="#bd2222" stroke="#8a1919" stroke-width="1.5" stroke-linecap="round"/><path d="M177.89019,88.94648l129.85539,21.25394" fill="#bd2222" stroke="#8a1919" stroke-width="1.5" stroke-linecap="round"/><path d="M312.77455,124.81592c-0.1463,1.15928 -1.30559,1.013 -1.30559,1.013l-0.77221,-0.2218c-0.56667,-0.37874 -3.3257,-1.76297 -3.54177,-2.13088c-0.55842,-0.95084 0.1848,-7.17591 0.76399,-7.93187c0.45988,-0.60025 2.96548,-1.57706 3.67092,-1.87786c0,0 1.07507,-0.45776 1.53283,0.61732c0.45776,1.07509 -0.61732,1.53284 -0.61732,1.53284c-0.9072,0.38571 -2.07561,0.40399 -2.72729,1.14366c-0.45603,0.51762 -0.07241,2.90523 -0.16226,3.62803c-0.07115,0.57231 -0.85052,1.23264 -0.4692,1.6653c0.20806,0.23607 2.28274,1.04344 2.83324,1.40033l-0.21833,-0.14366c0,0 1.15929,0.1463 1.01299,1.30558z" fill="#5f1111" stroke="none" stroke-width="0.5" stroke-linecap="butt"/><path d="M314.28994,114.32232c-0.1463,1.15928 -1.30559,1.01299 -1.30559,1.01299l-0.77221,-0.22179c-0.56667,-0.37874 -3.3257,-1.76298 -3.54177,-2.13089c-0.55842,-0.95084 0.1848,-7.1759 0.76399,-7.93186c0.45988,-0.60025 2.96547,-1.57706 3.67091,-1.87786c0,0 1.07508,-0.45776 1.53284,0.61732c0.45776,1.07509 -0.61732,1.53284 -0.61732,1.53284c-0.9072,0.38571 -2.07561,0.40398 -2.72728,1.14365c-0.45603,0.51762 -0.07241,2.90523 -0.16226,3.62804c-0.07115,0.57231 -0.85052,1.23264 -0.4692,1.6653c0.20806,0.23607 2.28273,1.04345 2.83324,1.40034l-0.21833,-0.14366c0,0 1.15929,0.1463 1.01299,1.30558z" fill="#8a1919" stroke="none" stroke-width="0.5" stroke-linecap="butt"/><path d="M308.72087,150.81846c-0.17972,1.15458 -1.3343,0.97485 -1.3343,0.97485l-0.76548,-0.24399c-0.55549,-0.39495 -3.2734,-1.8583 -3.47875,-2.23229c-0.53073,-0.96657 0.39199,-7.16757 0.99277,-7.90649c0.47704,-0.58671 3.00979,-1.49075 3.72362,-1.77106c0,0 1.08785,-0.42652 1.51437,0.66134c0.42652,1.08785 -0.66134,1.51438 -0.66134,1.51438c-0.91796,0.35934 -2.08641,0.34387 -2.75918,1.06441c-0.4708,0.50422 -0.15628,2.90193 -0.26698,3.62184c-0.08765,0.57001 -0.88577,1.20756 -0.51711,1.65105c0.20115,0.24198 2.25164,1.10894 2.79161,1.48157l-0.21409,-0.1499c0,0 1.15458,0.17971 0.97486,1.33429z" fill="#5f1111" stroke="none" stroke-width="0.5" stroke-linecap="butt"/><path d="M310.30661,139.68811c-0.17972,1.15458 -1.3343,0.97486 -1.3343,0.97486l-0.76548,-0.24401c-0.55549,-0.39495 -3.27341,-1.8583 -3.47876,-2.2323c-0.53073,-0.96657 0.39199,-7.16757 0.99277,-7.90649c0.47704,-0.58671 3.00979,-1.49075 3.72362,-1.77105c0,0 1.08785,-0.42652 1.51437,0.66133c0.42652,1.08785 -0.66134,1.51438 -0.66134,1.51438c-0.91796,0.35934 -2.08641,0.34387 -2.75918,1.06441c-0.4708,0.50422 -0.15628,2.90193 -0.26698,3.62183c-0.08765,0.57001 -0.88577,1.20756 -0.51711,1.65105c0.20115,0.24198 2.25165,1.10895 2.79162,1.48158l-0.21409,-0.14991c0,0 1.15458,0.17972 0.97486,1.3343z" fill="#8a1919" stroke="none" stroke-width="0.5" stroke-linecap="butt"/><path d="M172.46288,121.16884l-0.88073,5.55479" fill="none" stroke="#8a1919" stroke-width="1.5" stroke-linecap="round"/><path d="M173.14914,115.49486l0.88073,-5.55479" fill="none" stroke="#8a1919" stroke-width="1.5" stroke-linecap="round"/><path d="M175.90895,94.49806l-0.88073,5.55479" fill="none" stroke="#8a1919" stroke-width="1.5" stroke-linecap="round"/><path d="M176.8068,88.73166l0.88073,-5.55479" fill="none" stroke="#8a1919" stroke-width="1.5" stroke-linecap="round"/><path d="M296.18309,214.60609c0,-5.05172 4.09521,-9.14693 9.14693,-9.14693c5.05171,0 9.14693,4.09522 9.14693,9.14693c0,5.05172 -4.09522,9.14693 -9.14693,9.14693c-5.05173,0 -9.14693,-4.09522 -9.14693,-9.14693z" fill="#bd2222" stroke="none" stroke-width="0" stroke-linecap="butt"/><path d="M300.3375,214.98098c0,-2.95637 2.3966,-5.35296 5.35297,-5.35296c2.95637,0 5.35296,2.3966 5.35296,5.35296c0,2.95637 -2.3966,5.35298 -5.35296,5.35298c-2.95637,0 -5.35297,-2.39661 -5.35297,-5.35298z" fill="#fa5050" stroke="none" stroke-width="0" stroke-linecap="butt"/><path d="M309.76739,217.5195c-1.25364,0 -1.25364,-1.25365 -1.25364,-1.25365v-0.2579c0.00144,-2.78005 -0.24895,-3.66212 -3.21674,-3.6466c0,0 -1.25364,0 -1.25364,-1.25364c0,-1.25364 1.25364,-1.25365 1.25364,-1.25365c4.31143,0.01862 5.72201,2.039 5.72402,6.15389v0.2579c0,0 0,1.25365 -1.25364,1.25365z" fill="#fa6a6a" stroke="none" stroke-width="0.5" stroke-linecap="butt"/><path d="M172.11554,214.19256c0,-5.05172 4.09522,-9.14693 9.14693,-9.14693c5.05172,0 9.14693,4.09522 9.14693,9.14693c0,5.05172 -4.09521,9.14694 -9.14693,9.14694c-5.05172,0 -9.14693,-4.09522 -9.14693,-9.14694z" fill="#bd2222" stroke="none" stroke-width="0" stroke-linecap="butt"/><path d="M176.56887,214.1049c0,-2.95637 2.3966,-5.35297 5.35296,-5.35297c2.95637,0 5.35297,2.3966 5.35297,5.35297c0,2.95637 -2.39661,5.35297 -5.35297,5.35297c-2.95637,0 -5.35296,-2.39661 -5.35296,-5.35297z" fill="#fa5050" stroke="none" stroke-width="0" stroke-linecap="butt"/><path d="M185.36808,216.56131c-1.25365,0 -1.25365,-1.25364 -1.25365,-1.25364v-0.25791c0.00144,-2.78006 -0.24894,-3.66212 -3.21675,-3.64659c0,0 -1.25364,0.00001 -1.25364,-1.25364c0,-1.25365 1.25364,-1.25364 1.25364,-1.25364c4.31143,0.01861 5.72202,2.039 5.72403,6.15387v0.25791c0,0 0,1.25364 -1.25364,1.25364z" fill="#fa6a6a" stroke="none" stroke-width="0.5" stroke-linecap="butt"/><path d="M175.04924,86.0488c0.28299,0.16862 0.54322,0.47873 0.54322,1.04907c0,1.25 -1.25,1.25 -1.25,1.25c-0.72437,-0.00371 -2.09686,-0.13064 -2.89009,0.19816c-0.59905,0.24831 -0.21297,1.55022 -0.27698,1.70623c-0.66585,1.62289 -1.79864,2.56446 -3.47803,3.01381c-5.30776,1.42019 -8.55497,-7.54713 -2.67265,-8.11821c0.29005,-0.02816 -0.25008,-0.55106 -0.47908,-0.73128c-0.65072,-0.51208 -2.63669,-1.02873 -2.85447,-1.81344c-0.24553,-0.88468 0.45143,-1.77989 0.67715,-2.66983c1.59708,-1.93537 3.50164,-3.29694 5.61881,-4.6212l0.06056,-0.01153l-0.00813,-0.01626l1.1659,-0.58295c0.1737,-0.09145 0.37156,-0.14321 0.58151,-0.14321c0.69036,0 1.25,0.55964 1.25,1.25c0,0.10251 -0.01234,0.20214 -0.03561,0.29748l-0.39028,1.75627l-0.00841,-0.00187c-0.00228,0.02146 -0.00467,0.04292 -0.00718,0.06437c-0.02259,0.19319 -0.57655,0.23225 -0.44592,0.37637c0.71921,0.79347 3.41089,0.13285 4.20259,1.11481c0.42361,0.52542 -0.03829,1.35468 0.04688,2.0242c0.2699,2.12159 1.18049,2.96541 0.65022,4.60902z" fill="#cccccc" stroke="none" stroke-width="0.5" stroke-linecap="butt"/><path d="M169.33175,101.5577c-0.51156,0.00175 -1.00183,0.11296 -1.40831,0.4326c-2.48484,1.95399 -3.09937,4.6213 -6.97609,3.54685c-2.94547,-0.81636 -7.37309,-3.14374 -9.32348,-5.32558c-1.17126,-1.31025 -2.79409,-4.05077 -0.72532,-5.69783c0.68051,-0.5418 1.67289,-0.4775 2.50933,-0.71626c0.50552,0.36791 2.78228,2.76761 3.60468,2.74991c2.48326,-0.05346 2.59749,-2.237 5.32327,-2.18044c1.50819,0.0313 3.11799,-0.07228 4.49192,0.55055c0.51759,0.23463 0.29803,1.24954 0.80737,1.50158c0.88738,0.4391 1.78441,-1.11438 2.77319,-1.06378c4.51474,0.23104 3.58206,4.82721 2.1375,7.30856l-2.14337,-0.06785c0,0 -0.97664,-0.13952 -1.07069,-1.03831z" fill="#cccccc" stroke="none" stroke-width="0.5" stroke-linecap="butt"/><path d="M167.75657,116.51071c-0.05843,-0.08765 -0.10456,-0.17284 -0.14003,-0.25536c-2.22707,-0.42415 -4.60308,-1.29334 -6.56915,-0.98269c-1.5563,0.24591 -2.92971,1.40918 -4.61304,0.70919c-1.57134,-0.65342 -2.1529,-2.54007 -2.62519,-3.97277c-0.25588,-0.77622 -1.26948,-1.67935 -0.77146,-2.3274c0.63492,-0.82621 2.01748,-0.59378 3.05806,-0.6481c2.93049,-0.15297 3.63061,1.14021 6.59492,-0.79354c2.77064,0.89386 3.70456,2.75104 6.21402,0.5892l0.14866,-0.02491l-0.02349,-0.04699l1.1659,-0.58295c0.1737,-0.09145 0.37156,-0.14321 0.58151,-0.14321c0.69036,0 1.25,0.55964 1.25,1.25c0,0.18469 -0.04006,0.36003 -0.11195,0.5178l-0.41676,0.97244c-0.04725,1.68368 -0.04908,3.22202 -0.49178,4.97372l-0.5045,0.36995c-0.07543,0.07295 -0.15803,0.13103 -0.24176,0.17728l-0.77053,0.56503c0,0 -1.04006,0.69338 -1.73344,-0.34669z" fill="#cccccc" stroke="none" stroke-width="0.5" stroke-linecap="butt"/><path d="M169.05627,127.91013c-0.00719,1.23919 -1.24997,1.23919 -1.24997,1.23919c-0.66983,-0.02632 -2.21311,-0.04294 -1.93011,0.56474c0.20391,0.43785 0.79958,0.72837 0.79512,1.21135c-0.02011,2.17757 -1.33277,3.18081 -3.00846,4.20492c-1.36022,0.83131 -6.14563,2.52872 -7.49631,1.29834c-0.74041,-0.67447 -0.84906,-1.82858 -1.08478,-2.802c-0.07067,-0.29184 0.37738,-0.64271 0.1932,-0.87986c-0.60698,-0.78155 -2.03301,-0.91024 -2.3147,-1.85888c-0.32769,-1.10354 0.51775,-2.28518 1.11783,-3.26756c0.57883,-0.94759 0.46633,-2.1715 0.72625,-3.25104c0.5947,-0.65436 0.99578,-1.56257 1.7841,-1.96308c0.93608,-0.47558 2.16444,0.37141 3.14988,0.00901c0.83134,-0.30573 1.05724,-2.98504 1.63826,-3.5205c0.49397,-0.45524 1.21443,-0.60903 1.87205,-0.74611c0.53145,-0.11078 3.83877,0.03781 4.10016,0.21981c0.89539,0.62343 0.47862,2.13411 0.84058,3.16337c0.31978,0.90929 1.61741,1.22501 1.96016,2.1259c0.54259,1.42612 -0.0758,2.50109 -0.52564,3.76816z" fill="#cccccc" stroke="none" stroke-width="0.5" stroke-linecap="butt"/><path d="M175.98859,86.10754c0,1.25 -1.25,1.25 -1.25,1.25h-0.19807c-3.94784,-0.04603 -2.16914,2.33625 -4.46388,4.58552c-2.48,2.43086 -5.95199,0.73524 -7.80193,-1.48947c0,0 -0.78087,-0.97609 0.19522,-1.75695c0.97609,-0.78087 1.75695,0.19522 1.75695,0.19522c0.394,0.52299 0.93534,0.95839 1.5305,1.23142c3.42687,1.57207 2.47702,-1.66368 4.04781,-3.61318c1.2566,-1.55957 2.91961,-1.63612 4.73532,-1.65254h0.19807c0,0 1.25,0 1.25,1.25z" fill="#bababa" stroke="none" stroke-width="0.5" stroke-linecap="butt"/><path d="M173.41374,100.5663c0,1.25 -1.25,1.25 -1.25,1.25h-0.19807c-1.79141,-0.02233 -3.4825,-1.12795 -5.21923,-0.31351c-1.84016,0.86295 -2.64992,2.7301 -4.87994,3.07028c-2.75836,0.42077 -4.94285,-1.17304 -6.99742,-2.54733c-2.29267,-1.53355 -4.35335,-1.9919 -4.93771,-5.04591c0,0 -0.17678,-1.23744 1.06066,-1.41421c1.23744,-0.17678 1.41421,1.06066 1.41421,1.06066c0.09391,1.92408 2.39672,2.35546 3.77716,3.27283c1.51823,1.00894 3.17286,2.53582 5.28263,2.20624c2.35858,-0.36845 3.38689,-3.01071 5.96881,-3.37117c1.71691,-0.2397 2.87185,0.61072 4.53081,0.58211h0.19807c0,0 1.25,0 1.25,1.25z" fill="#bababa" stroke="none" stroke-width="0.5" stroke-linecap="butt"/><path d="M170.86891,112.16054c0.88388,0.88388 0,1.76777 0,1.76777l-0.19807,0.19807c-0.97014,0.88824 -2.3242,1.6821 -3.63211,1.54243c-0.39536,-0.04222 -3.445,-1.63057 -3.66386,-1.48776c-0.33019,0.21545 -0.23822,0.80873 -0.55372,1.04516c-3.17746,2.38121 -6.52019,-0.14559 -8.86803,-1.99795c0,0 -0.97609,-0.78087 -0.19522,-1.75695c0.78087,-0.97609 1.75695,-0.19522 1.75695,-0.19522c1.33889,1.08311 1.99932,2.16061 3.87075,2.30464c0.64748,0.04983 1.42686,0.0835 1.91805,-0.34128c0.42458,-0.36717 0.49855,-1.15332 1.0308,-1.33162c2.71088,-0.90813 4.57149,2.79118 6.5686,0.4508l0.19807,-0.19807c0,0 0.88388,-0.88388 1.76777,0z" fill="#bababa" stroke="none" stroke-width="0.5" stroke-linecap="butt"/><path d="M167.14855,126.04594c0.1984,-0.32358 0.63952,-0.79076 1.44917,-0.52087c1.18585,0.39528 0.79057,1.58114 0.79057,1.58114l-1.38392,1.44891c-0.40816,-0.00476 -1.55056,-0.14707 -2.05795,0.17148c-0.66232,0.41581 -0.8288,2.75264 -1.23827,3.39844c-0.897,1.41474 -3.02542,3.44251 -4.67792,3.90812c-4.69357,1.32249 -4.53094,-3.03238 -6.77432,-5.26931c0,0 -0.88388,-0.88388 0,-1.76777c0.88388,-0.88388 1.76777,0 1.76777,0c0.56688,0.56836 1.80052,1.70259 2.07824,2.45078c0.45769,1.23306 -0.10123,2.92259 2.2391,2.18318c3.67765,-1.16193 2.71776,-5.1711 5.17547,-6.95414c0.83657,-0.60692 1.71434,-0.64197 2.63205,-0.62996z" fill="#bababa" stroke="none" stroke-width="0.5" stroke-linecap="butt"/><path d="M108.65618,-52.844c1.25,0 1.25,1.25 1.25,1.25c0,4.0517 0,8.81999 0,12.87169c0,10.75169 -0.17807,21.48905 1.63127,32.12961c0.55878,3.28616 1.11797,6.57226 1.67475,9.85876c0.05196,0.30671 0.11385,0.60001 0.18003,0.88287l0.51241,1.21454l-0.18421,0.07772c0.05424,0.21295 0.10522,0.422 0.14974,0.62883c0.26998,0.6345 0.48823,1.28698 0.63526,1.9568l0.52533,2.41683c0.02236,0.09356 0.0342,0.19121 0.0342,0.29163c0,0.69036 -0.55964,1.25 -1.25,1.25c-0.57711,0 -1.06287,-0.39109 -1.20671,-0.9227l-0.49164,-1.66443c-0.07082,1.19778 -0.06604,2.39433 -0.06604,3.70048c0,5.78538 0.26066,11.15617 1.77652,16.74832c0.73166,2.69914 0.64059,4.02119 2.82306,5.79051c1.49227,1.20978 2.34468,1.92279 3.51677,2.51127c-0.57921,-3.18336 -0.90008,-6.37324 -0.96653,-9.31401l0.004,-0.01414h-0.00408v-2.5c0,-0.69036 0.55964,-1.25 1.25,-1.25c0.5691,0 1.04938,0.38032 1.20053,0.90066l0.74443,2.35673l-0.1942,0.06134c1.58171,3.01249 2.94025,6.50112 3.3196,9.54823c0.07586,0.60935 0.28338,1.31545 0.36033,1.97587c0.22686,-0.31586 0.59738,-0.52158 1.01595,-0.52158c0.50014,0 0.93167,0.29373 1.13151,0.71809l1.1004,2.21449c1.34236,2.76051 1.14852,4.64915 1.59325,7.59521c0.1532,1.01485 0.55672,2.17538 0.93283,3.34854l0.40119,0.40119l-0.06837,0.06837l0.24755,0.15795c0.12801,0.59587 -0.01355,1.32568 0.38402,1.78762c0.86621,1.00647 1.64158,-0.84916 1.59169,-1.13006c-0.26329,-1.48234 -3.76107,-4.6598 1.43519,-5.25427c2.36295,-0.27033 4.42123,5.61561 4.84684,7.15981c1.52389,5.52908 1.54942,11.35541 0.41753,16.95445c0.6306,0.54191 1.27868,1.04713 1.84272,1.60709l1.73339,0.81779l-0.02204,0.04671l0.08798,0.04399l0.11593,0.01465c0.08331,0.08094 0.16702,0.16179 0.25113,0.24251c0.00093,-0.00017 0.00185,-0.00035 0.00278,-0.00052l0.00093,0.00408c3.3006,3.16677 7.22039,6.12217 11.98152,6.06297c0,0 1.25,0 1.25,1.25c0,1.25 -1.25,1.25 -1.25,1.25c-4.23548,-0.04266 -7.94282,-1.88683 -11.13985,-4.47349c-0.19032,0.11714 -0.41441,0.18471 -0.65429,0.18471c-0.34518,0 -0.65768,-0.13991 -0.88388,-0.36612l-1.76777,-1.76777l0.13218,-0.13218c-0.62666,-0.43749 -1.24609,-0.90138 -1.84339,-1.38989c-0.09754,0.59314 -0.61262,1.04563 -1.23338,1.04563c-0.4972,0 -0.9266,-0.29029 -1.12796,-0.71062l-1.11149,-2.20131c-1.02701,-1.95972 -2.11383,-3.86024 -3.26735,-5.71691c-0.30039,-0.10213 -0.54941,-0.31539 -0.69809,-0.5908l-1.21664,-2.1558l0.09077,-0.05122c-2.11813,-2.52831 -4.04513,-5.19336 -5.92427,-7.93551l-1.40391,-2.04908c-0.14358,-0.20351 -0.22792,-0.4518 -0.22792,-0.7198c0,-0.63085 0.46732,-1.15255 1.07467,-1.2378c-0.63552,-1.45513 -1.19399,-2.94146 -1.52011,-3.59854c-1.43169,-2.88467 -2.5517,-6.20387 -3.36505,-9.62939c-2.86174,-0.78181 -6.47162,-3.29441 -7.94023,-5.58134c-0.13439,-0.20927 -1.34722,-4.74788 -1.4628,-5.17425c-1.57478,-5.8095 -1.8636,-11.39549 -1.8636,-17.40239c0,-2.58572 0.0119,-4.80237 0.51456,-7.34635l0.48575,-2.42874c0.01619,-0.09014 0.04205,-0.17693 0.07645,-0.25926c-0.44132,-2.17209 -0.73628,-4.42123 -1.13589,-6.7736c-1.98131,-11.66338 -2.08527,-23.21802 -2.08527,-35.01299c0,-4.0517 0,-8.10341 0,-12.15511v-0.71658c0,0 0,-1.25 1.25,-1.25zM125.47306,41.60062c-0.47878,0.47156 -1.17875,0.40636 -1.9096,0.23935c0.5117,2.01168 1.11563,3.97167 1.79598,5.81895c0.74192,2.01446 1.96546,3.92432 2.94023,5.86464l-0.10169,-0.41008c-0.02835,-0.10453 -0.04348,-0.2145 -0.04348,-0.328c0,-0.15128 0.02687,-0.29627 0.0761,-0.43048c-0.28948,-1.39733 -0.49121,-2.82906 -0.87605,-4.1501c-0.08165,-0.28029 -1.70202,-4.72165 -1.70056,-4.8541c0.00079,-0.0716 0.0033,-0.14298 0.0074,-0.21416l-0.02499,-0.00011l0.00735,-1.74083c-0.0488,0.07214 -0.10541,0.14061 -0.1707,0.20492zM134.07089,64.38043c0.14197,-0.05601 0.29666,-0.08678 0.45854,-0.08678c0.49036,0 0.91477,0.28235 1.11952,0.69334l1.12382,2.14592c0.72131,1.07955 1.18576,2.31309 1.79909,3.45768c0.15013,-1.39026 0.44311,-2.79779 0.5669,-4.06748c0.42253,-4.33384 -0.3049,-11.33022 -3.39314,-14.72611c-0.15996,-0.1759 -0.18883,0.48031 -0.11023,0.70471c0.25525,0.72873 1.16164,1.2842 1.07565,2.05154c-0.13417,1.1972 -0.6179,2.61203 -1.66503,3.2077c-1.1727,0.6671 -2.00627,0.88832 -2.62375,0.81327v1.34c0,0.51186 -0.30766,0.95187 -0.74815,1.14518c0.84061,1.06668 1.63746,2.18009 2.39678,3.32103zM122.47418,36.6712c0.15849,0.94503 0.33929,1.89002 0.54087,2.82904c0.25859,0.249 0.50436,0.46101 0.73953,0.28466c0.38981,-0.29232 -0.49181,-0.8453 -0.67273,-1.2977c-0.23705,-0.59272 -0.41679,-1.20641 -0.60767,-1.816z" fill="#a1a1a1" stroke="none" stroke-width="0.5" stroke-linecap="butt"/><path d="M84.21932,-75.33992c1.22984,0.22361 1.00623,1.45344 1.00623,1.45344c-0.29814,1.63978 -0.95182,5.23501 -1.24996,6.87479c-1.32587,7.29228 -0.85991,14.71416 -0.8493,22.1182c0.01444,10.07399 -0.2977,19.82134 2.1101,29.62318c0.04016,11.42854 -0.49808,22.97814 0.35323,34.37708c0.26669,0.12265 0.4828,0.33644 0.60843,0.60146l1.06008,2.12017l-0.23943,0.11972c1.69344,2.9029 2.39424,5.81901 2.5043,9.55942c0.50655,1.30002 0.99053,2.60772 1.43985,3.92174c0.11351,-0.03391 0.23379,-0.05212 0.35833,-0.05212c0.52533,0 0.97496,0.32406 1.15992,0.78318l0.9752,2.27065l-0.40124,0.17232c0.97852,2.20742 1.29482,4.37072 1.83492,7.25538l-0.03221,0.117h0.03769v2.14439c0,0.56812 -0.379,1.04772 -0.89796,1.19974c-0.02154,1.4528 -0.00898,2.90083 0.23628,4.30461c0.37776,2.1621 1.26663,4.51081 1.98183,6.62372c0.21226,-0.16626 0.47963,-0.26537 0.77016,-0.26537c0.29086,0 0.55852,0.09934 0.7709,0.26595c-0.0001,-2.25998 -0.00023,-4.51997 -0.00023,-6.77995v-2.5c0,-0.69036 0.55964,-1.25 1.25,-1.25c0.57564,0 1.06041,0.38911 1.20561,0.91866l0.7084,2.36826l-0.30064,0.08993c1.3756,3.08655 2.25716,6.52464 2.58619,9.82286c0.11123,1.11493 0.65696,2.44795 0.00805,3.36138c-0.14253,0.20063 -0.29323,0.3753 -0.45089,0.52599c2.56464,2.83272 5.15924,5.61753 7.90677,8.36506c1.29581,1.29581 3.30782,4.25874 4.93881,5.0502c0.09334,0.04529 0.18914,0.08476 0.28687,0.11961c-0.62699,-1.36617 -1.18804,-2.78288 -1.78615,-4.18752c-1.29763,-1.37508 -2.40275,-2.9051 -3.02179,-4.53396c-0.37678,-0.99141 -0.47647,-2.05803 -0.60538,-3.11877l-0.73697,-1.48868c-0.09008,-0.17269 -0.141,-0.36904 -0.141,-0.57729c0,-0.30266 0.10757,-0.5802 0.28656,-0.79647l-0.29037,-1.08409c-0.03251,-0.11134 -0.04994,-0.22912 -0.04994,-0.35096c0,-0.69036 0.55964,-1.25 1.25,-1.25c0.499,0 0.92971,0.2924 1.13014,0.7152l1.06008,2.12017l-0.16053,0.08027c2.84146,3.57217 5.47015,8.05119 6.34737,12.24755l0.22744,0.49567c0.0801,0.16486 0.12502,0.34996 0.12502,0.54556c0,0.07011 -0.00577,0.13887 -0.01687,0.20583l1.27821,1.52711c0.185,0.21796 0.2966,0.50017 0.2966,0.80846c0,0.66459 -0.51866,1.20805 -1.17328,1.24768c0.15473,0.23395 0.31571,0.45443 0.48367,0.65779c1.94809,2.35865 4.85629,3.86422 7.57682,5.43533l0.10573,-0.29069l2.32202,0.84461c0.49424,0.16677 0.8501,0.63416 0.8501,1.18466c0,0.39061 -0.17917,0.73938 -0.4598,0.9686c2.01368,0.8484 4.04107,1.66616 6.05739,2.50664c1.56694,0.65316 3.61398,1.29143 5.21279,2.30297c0.58886,-0.66996 1.46193,-0.23343 1.46193,-0.23343l2.12017,1.06008c0.42281,0.20043 0.7152,0.63114 0.7152,1.13014c0,0.69036 -0.55964,1.25 -1.25,1.25h-2.14439v-0.03248c-0.09532,0.00368 -0.19104,0.00353 -0.28719,-0.00095c-0.15594,-0.00728 -4.12282,-2.04246 -4.52179,-2.22434c-4.55752,-2.07761 -9.29445,-3.73062 -13.81299,-5.89991l-2.22859,-1.07039c-0.43279,-0.19651 -0.73376,-0.63248 -0.73376,-1.13876c0,-0.51845 0.31563,-0.96318 0.76522,-1.15252c-0.51245,-0.44447 -1.02055,-0.89615 -1.53421,-1.30905c-1.46977,-1.18147 -2.56534,-2.60581 -3.47098,-4.161c-1.00353,0.05955 -1.9587,0.01319 -2.57214,-0.27873c-1.91718,-0.91235 -4.14979,-4.0384 -5.66779,-5.5564c-2.88182,-2.88182 -5.59808,-5.79604 -8.27807,-8.77376c-0.02354,1.85991 -0.1163,3.70344 -0.32684,5.50164c-0.0308,0.83943 -0.05846,1.61904 -0.05177,2.29393l-0.00406,0.00411l0.00408,-0.00001l0.00002,0.00459h0.0092l-0.0008,2.49995c0,0.00002 0,0.00003 0,0.00005c-0.00022,0.69017 -0.55978,1.2496 -1.25,1.2496c-0.68913,0 -1.24802,-0.55766 -1.24999,-1.24633l-0.0084,-2.49638c-0.0042,-0.42245 -0.01473,-0.84334 -0.03063,-1.26288c-0.05372,-0.3802 -0.06566,-0.77128 -0.05819,-1.17924c-0.15436,-2.56474 -0.47679,-5.08504 -0.74142,-7.60656c-0.76499,-0.60331 -1.41212,-1.27097 -1.82999,-1.82119c-0.65417,-0.86137 -1.52027,-4.04143 -1.84357,-5.11831c-1.30284,-4.33965 -1.49822,-8.69754 -2.07395,-13.03052c-0.90311,-1.96423 -0.98961,-4.89011 -1.60771,-6.88837c-0.37798,-1.22196 -0.79569,-2.43345 -1.23893,-3.63798c-0.01217,0.00035 -0.02439,0.00053 -0.03665,0.00053c-0.5623,0 -1.03788,-0.37128 -1.19497,-0.88206l-0.78145,-2.34436l0.25895,-0.08632c-1.19375,-2.41694 -2.01471,-4.94109 -2.57925,-7.53272c-0.2796,-0.71411 -0.55296,-1.42953 -0.81705,-2.14699l0.1931,-0.37105l-0.14069,-0.04254l0.19395,-0.6415c-0.65038,-4.58207 -0.67136,-9.31861 -0.67136,-14.00195c0,-7.44912 -0.02025,-14.89857 0.00932,-22.34763c-2.50104,-9.86221 -2.1142,-19.78119 -2.12874,-29.92433c-0.01083,-7.55977 -0.46454,-15.12111 0.88962,-22.56899c0.29814,-1.63978 0.59628,-3.27957 0.89443,-4.91935l0.35553,-1.95544c0,0 0.22361,-1.22984 1.45344,-1.00623zM100.51296,61.94849c0.03069,0.81212 0.05847,1.62724 0.07929,2.44294c0.17033,0.19052 0.34064,0.38081 0.51097,0.57089c0.00447,-0.01306 0.00858,-0.02678 0.01231,-0.04118c0.25517,-0.9854 -0.2197,-1.9794 -0.60256,-2.97265z" fill="#a1a1a1" stroke="none" stroke-width="0.5" stroke-linecap="butt"/><path d="M56.11865,-101.09275c1.25,0 1.25,1.25 1.25,1.25c0,5 0,10.02681 0,15.02681c0,17.39717 0.00216,34.79434 0.00522,52.19151c0.00206,11.72012 0.27935,23.12842 1.60643,34.77643c0.23912,2.09877 0.36368,4.26873 0.67364,6.37163c0.20951,-0.15851 0.47052,-0.25253 0.75348,-0.25253c0.67968,0 1.23265,0.54246 1.2496,1.21805l0.06603,2.26515c0.21412,7.34574 0.84582,14.96143 2.06131,22.21909c0.53743,3.20902 1.37548,5.96103 1.73049,8.90904l0.06356,0.06332l-0.01664,0.0167l0.05203,0.05285l-0.07077,0.06968c0.06377,0.03434 0.12754,0.06868 0.19131,0.10302l0.02302,0.00233c0.00199,0.00443 0.00398,0.00886 0.00597,0.01328c0.00668,0.0036 0.01336,0.00719 0.02004,0.01079l-0.00736,0.01743c0.04796,0.10671 0.09588,0.21344 0.14377,0.32018l0.04626,-0.01054l0.05266,0.23115c0.88736,1.98008 1.76366,3.9647 2.63855,5.95033c0.04742,-0.39491 0.09581,-0.79383 0.14447,-1.19723l0.24729,-0.22708l-0.08598,-0.06396l1.48332,-1.99385c0.22722,-0.31261 0.59578,-0.51585 1.0118,-0.51585c0.65842,0 1.19794,0.50906 1.24645,1.15507l0.21302,2.47872l-0.08059,0.00693c0.531,2.23159 0.87702,4.83837 0.02773,6.27219c0.1842,0.11551 0.33614,0.27772 0.43923,0.47003l1.07928,1.92497c1.37226,2.48326 1.15904,4.75643 2.19949,7.2213c0.5197,1.23119 1.51656,2.50901 2.4984,3.72405c0.04245,0.00249 0.08433,0.00709 0.12554,0.01371l2.45301,0.35367l-0.00311,0.02156c0.12035,0.02228 0.2399,0.05042 0.35853,0.08536c2.06912,0.60926 4.50107,4.34218 5.58717,5.98498l0.00975,0.22809l0.06054,-0.01398l0.55636,2.40926c0.02495,0.09849 0.0382,0.20165 0.0382,0.30789c0,0.54321 -0.3465,1.00549 -0.83053,1.17788c1.02651,1.18353 2.09981,2.33649 3.25011,3.45072c2.41789,2.34209 5.01544,4.2673 7.32773,6.56015l0.18577,-0.25265l2.00173,1.4718c0.31607,0.22684 0.52196,0.59748 0.52196,1.01622c0,0.69036 -0.55964,1.25 -1.25,1.25c-0.20126,0 -0.39141,-0.04756 -0.55982,-0.13206l-1.8703,-0.88821c3.11058,3.62877 6.33827,7.30701 8.72414,11.40736l0.19569,-0.1522l1.52801,1.96459c0.16914,0.21322 0.27015,0.48292 0.27015,0.77622c0,0.14413 -0.02439,0.28257 -0.06928,0.4114c2.69025,1.39941 5.40151,3.02559 8.16111,3.78209c1.28459,0.35215 2.58795,0.29127 3.83148,0.30024c0.22699,-0.23244 0.54383,-0.37674 0.89438,-0.37674c0.02254,0 0.04494,0.0006 0.06718,0.00177l2.48834,0.11606c2.65692,0.12393 4.94142,0.57794 7.51248,0.96152c3.89725,0.58143 8.37087,-0.01319 12.31891,-0.01319c0,0 1.25,0 1.25,1.25c0,1.25 -1.25,1.25 -1.25,1.25c-4.08329,0 -8.64427,0.56761 -12.68109,-0.01319c-1.34118,-0.19296 -2.58209,-0.41275 -3.84253,-0.59413c-0.2293,0.27318 -0.5733,0.44684 -0.95787,0.44684c-0.04197,0 -0.08346,-0.00207 -0.12436,-0.00611l-2.47529,-0.21709l0.00581,-0.06621l-0.03235,-0.00371l0.0093,-0.08102l-0.09376,0.06839c-0.02549,-0.01512 -0.05099,-0.03025 -0.07648,-0.04537l-0.00692,0.027l-0.33435,-0.0857c-2.41039,0.21396 -4.88781,0.1156 -7.16382,-0.50834c-3.91006,-1.07188 -7.67755,-3.78598 -11.46631,-5.30023l-2.29416,-0.91766c-0.47474,-0.17726 -0.8128,-0.63486 -0.8128,-1.17141c0,-0.64732 0.49205,-1.17972 1.12253,-1.24358l1.43704,-0.16536c-0.80932,-0.82949 -1.42471,-1.8871 -2.25843,-2.95902c-2.48665,-3.19712 -5.05443,-6.31228 -7.64664,-9.4243l-1.61127,-1.72178c-0.21044,-0.2237 -0.33938,-0.52495 -0.33938,-0.85632c0,-0.48742 0.27898,-0.90968 0.68597,-1.11582c-0.43037,-0.42046 -0.84615,-0.83701 -1.2487,-1.2214c-3.03511,-2.8982 -5.67639,-5.9097 -8.2212,-9.09424c-0.26429,-0.16731 -0.51076,-0.34931 -0.73326,-0.54854c-0.13726,-0.1229 -2.87536,-4.01819 -3.07086,-4.29514c-1.35958,-1.92598 -3.54243,-4.19841 -4.45567,-6.36194c-0.81909,-1.94047 -0.78518,-3.6615 -1.40753,-5.48208c-0.2822,0.97022 -0.85306,1.95131 -1.10906,3.33861l-0.46542,2.43337c-0.10098,0.58904 -0.61413,1.0373 -1.23198,1.0373c-0.64289,0 -1.17242,-0.48533 -1.2422,-1.10959l-0.31195,-2.46358l0.29352,-0.03717c-0.76919,-3.03576 -0.86403,-5.9297 -0.67367,-8.94438c-0.16762,-0.49794 -0.3053,-1.02996 -0.52106,-1.4512c-1.01,-1.97193 -1.87656,-4.0478 -2.73277,-6.11515c-0.39619,-0.14326 -0.69929,-0.48107 -0.79392,-0.89805l-0.50601,-2.02403l-1.49864,-1.52218c-0.22246,-0.22568 -0.35976,-0.53555 -0.35976,-0.87748c0,-0.56541 0.3754,-1.04315 0.89056,-1.19755c-0.30614,-1.37324 -0.45399,-2.8404 -0.74702,-4.12914c-1.37957,-6.06737 -2.04682,-12.57421 -2.39287,-18.93635c-0.1358,-0.15391 -0.2343,-0.34152 -0.28134,-0.54868l-0.60035,-2.39989l0.31605,-0.07906c-1.82131,-4.71284 -2.09769,-9.66352 -2.69077,-14.86904c-1.24032,-10.88649 -1.33758,-21.62411 -1.3395,-32.57506c-0.00306,-17.39732 -0.00522,-34.79463 -0.00522,-52.19195c0,-5 0,-10 0,-15v-0.02681c0,0 0,-1.25 1.25,-1.25zM70.47343,59.68823c0.1579,-0.43309 0.31901,-0.86544 0.47814,-1.30278v-1.66752c-0.19389,0.00875 -0.40175,0.00172 -0.62435,-0.02232c-0.02137,0.66991 -0.01179,1.35698 0.04259,2.07268c0.02426,0.31933 0.06102,0.62502 0.10362,0.91994zM70.89986,51.45704c-0.12561,0.94376 -0.26377,1.8598 -0.37408,2.7816c0.22491,-0.0515 0.48011,-0.26149 0.51667,-0.45707c0.15842,-0.84748 0.00663,-1.58853 -0.14259,-2.32453zM85.2244,76.3069c-0.94099,-1.36937 -2.04854,-2.54207 -3.243,-3.65337c0.75064,0.99535 1.49537,1.98127 2.24877,2.95383c0.33229,0.23305 0.67429,0.45672 0.99423,0.69954z" fill="#a1a1a1" stroke="none" stroke-width="0.5" stroke-linecap="butt"/><path d="M26.00157,-73.21203c1.24634,-0.09564 1.34198,1.15069 1.34198,1.15069l0.11195,1.4588c0.25118,3.29535 0.87217,6.52006 1.41886,9.77805c1.65056,9.83651 3.84852,19.74376 4.97383,29.65216c0.8446,7.43677 0.90488,15.05324 1.3532,22.52581c0.65171,10.86287 1.87805,21.40447 3.50835,32.16313c0.61312,4.0461 2.43197,9.60528 2.1104,13.99977c0.07123,0.05072 0.13692,0.10872 0.19597,0.17291l1.69535,1.83171l-0.06598,0.06107l0.21643,0.1382c0.56561,1.52265 0.62573,3.31318 1.62441,4.59421c0.54353,0.6972 1.70533,0.80183 2.13363,1.57518c0.87379,1.57773 0.48624,3.57537 0.80936,5.34973c0.7337,4.02904 1.50557,7.87596 2.72033,11.78766c0.46467,1.49631 0.54923,3.15838 1.35915,4.49962c0.8444,1.39834 2.5291,2.12226 3.47955,3.4508c1.65871,2.31856 1.19678,4.69317 2.21758,7.14208c0.0422,0.10124 0.08594,0.19914 0.13096,0.294c1.06106,1.11873 2.10516,2.2725 3.181,3.43583l0.01299,0.29483l0.10226,-0.0313l0.61598,2.01272c0.85037,0.45623 1.60697,1.00604 2.05725,1.68837c0.71088,1.07723 0.73695,3.8039 1.28469,5.03934c0.94021,2.12066 5.42455,5.96502 1.00865,6.86934c0.18918,0.37542 0.37112,0.74933 0.54294,1.12177c0.61419,1.33134 0.51876,3.18815 1.69993,4.05679c0.45274,0.33295 1.03361,0.42251 1.60873,0.5214l-0.11446,-0.2529c-0.07839,-0.16343 -0.12229,-0.34654 -0.12229,-0.53991c0,-0.69036 0.55964,-1.25 1.25,-1.25c0.3906,0 0.73936,0.17916 0.96859,0.45979l1.58389,1.91061c0.18288,0.21738 0.29305,0.49795 0.29305,0.80425c0,0.30897 -0.1121,0.59176 -0.29785,0.80992c1.46137,3.42868 4.05974,5.92425 6.69797,8.59559c1.10829,1.1222 1.98063,2.529 3.30404,3.38702c1.32342,0.85801 3.08314,0.83089 4.44054,1.63406l2.3135,0.86756c0.48815,0.17015 0.83842,0.6345 0.83842,1.18066c0,0.69036 -0.55964,1.25 -1.25,1.25c-0.06158,0 -0.12213,-0.00445 -0.18132,-0.01306l-0.75753,-0.09854c2.11519,1.5441 4.36487,3.3958 6.61878,4.32176c2.27885,0.93621 4.66889,1.23781 7.04441,1.80177l0.08008,-0.40039l2.42874,0.48575c0.58424,0.10493 1.02756,0.61583 1.02756,1.23027c0,0.1093 -0.01403,0.21533 -0.04039,0.31638c4.58259,-0.72563 9.11403,-1.2699 13.75552,-1.76363c5.02113,-0.53411 10.10183,-1.46896 15.20622,-0.86593c3.22073,0.3805 6.54961,1.52057 9.74499,2.15964c0,0 1.22573,0.24515 0.98058,1.47087c-0.24515,1.22573 -1.47087,0.98058 -1.47087,0.98058c-3.13157,-0.62631 -6.39972,-1.75753 -9.55451,-2.12914c-4.91953,-0.57948 -9.8048,0.3554 -14.64196,0.86995c-5.82083,0.61918 -11.46907,1.33911 -17.26491,2.35089l-0.10905,-0.03011v0.03487h-2.14439c-0.69036,0 -1.25,-0.55964 -1.25,-1.25c0,-0.499 0.2924,-0.92971 0.7152,-1.13014l0.61747,-0.30874c-5.2396,-0.01656 -10.79932,-4.58736 -14.73926,-7.19435l-0.0685,-0.10627l-0.02355,0.0238l-1.7768,-1.75787c-0.22923,-0.2266 -0.37127,-0.54122 -0.37127,-0.88901c0,-0.03621 0.00154,-0.07206 0.00456,-0.10749c-0.53702,-0.24052 -1.05302,-0.52574 -1.53227,-0.83645c-0.14825,-0.09611 -3.49346,-3.4958 -3.72279,-3.72801c-3.06321,-3.10166 -5.96528,-5.99774 -7.51222,-10.11551l-0.99974,-0.13031c-1.23504,0.02252 -2.42833,-0.09254 -3.05803,-0.55563c-0.32909,-0.24202 -2.21356,-4.42668 -2.48891,-5.02361c-0.46557,-1.0093 -1.00414,-2.03106 -1.56067,-3.06511c-1.18261,-0.92029 -2.62511,-2.1338 -2.92514,-2.38473c-4.80074,-4.01513 -6.91327,-12.50266 -9.40962,-18.22136l0.01472,-0.17855l-0.05052,0.00688l-0.33459,-2.45645c-0.00939,-0.06176 -0.01425,-0.125 -0.01425,-0.18937c0,-0.69036 0.55964,-1.25 1.25,-1.25c0.35844,0 0.68165,0.15087 0.90958,0.39257l1.71708,1.81304l-0.17581,0.1665c0.25752,0.21823 0.51136,0.43963 0.76206,0.66394c-0.18284,-0.95972 -0.46209,-1.89353 -1.09515,-2.74977c-0.84096,-1.13744 -2.88161,-2.44465 -3.59152,-3.62027c-1.50234,-2.4879 -2.35327,-6.83745 -3.04162,-9.67924c-0.77396,-3.19525 -1.44264,-6.70394 -1.81376,-9.97043c-0.07656,-0.67384 0.28966,-1.45298 -0.06074,-2.03363c-0.4046,-0.67048 -1.48462,-0.67761 -1.95375,-1.30464c-0.17344,-0.23181 -1.01132,-2.61712 -1.48094,-3.96952c-0.40318,-0.0287 -0.7535,-0.24861 -0.96078,-0.56956l-1.376,-2.06399l0.03224,-0.02149c-0.05494,-0.07157 -0.10767,-0.1451 -0.15795,-0.2208c-0.51109,-0.76958 -0.3011,-1.82298 -0.44468,-2.73559c-0.518,-3.29263 -0.99885,-6.59161 -1.49823,-9.88713c-1.76647,-11.65726 -3.20042,-23.08845 -3.90663,-34.85975c-0.44564,-7.42806 -0.50216,-15.00112 -1.34172,-22.39342c-1.12026,-9.86389 -3.31215,-19.72806 -4.95533,-29.52056c-0.55922,-3.33265 -1.18566,-6.62968 -1.446,-10.00048l-0.11195,-1.4588c0,0 -0.09564,-1.24634 1.15069,-1.34198zM55.65136,80.56379c-0.63466,-0.59259 -1.26997,-1.20851 -1.851,-1.84598c1.19679,2.69454 2.38432,5.39321 3.57627,8.08989c0.63505,1.43673 0.92576,3.07162 1.8744,4.32363c0.12417,0.16388 0.25857,0.3177 0.40098,0.46366c-0.78653,-1.81613 -1.36405,-3.66659 -1.4665,-5.55058l-1.01807,-1.93964c-0.09841,-0.17863 -0.1544,-0.38391 -0.1544,-0.60227c0,-0.28613 0.09614,-0.54981 0.25788,-0.7605c-0.60077,-0.67921 -1.15154,-1.40012 -1.61957,-2.17821zM60.72916,86.58529c0.22199,1.37805 0.6759,2.73514 1.24957,4.07258c-0.18036,-1.19399 -0.10694,-2.4788 -0.75899,-3.46687c-0.14156,-0.21451 -0.31027,-0.41359 -0.49058,-0.60571zM63.00578,92.82835c0.45494,0.89262 0.93683,1.77654 1.41071,2.65215c0.30344,0.02765 0.68343,-0.06546 0.62329,-0.28524c-0.27431,-1.00252 -1.27921,-1.60999 -2.034,-2.36691z" fill="#a1a1a1" stroke="none" stroke-width="0.5" stroke-linecap="butt"/></g></g></svg>