<svg version="1.1" xmlns="http://www.w3.org/2000/svg" xmlns:xlink="http://www.w3.org/1999/xlink" width="145.79041" height="159.89964" viewBox="0,0,145.79041,159.89964"><g transform="translate(-134.409,-83.49492)"><g data-paper-data="{&quot;isPaintingLayer&quot;:true}" fill-rule="nonzero" stroke="none" stroke-linecap="butt" stroke-linejoin="miter" stroke-miterlimit="10" stroke-dasharray="" stroke-dashoffset="0" style="mix-blend-mode: normal"><path d="" fill="#525252" stroke-width="0.5"/><path d="M269.43453,231.62513c-1.53753,1.01775 -2.83175,0.96176 -3.83451,0.52233c-1.41805,0.30651 -3.05418,0.03205 -4.50495,0.1902c-1.14798,0.12515 -2.32442,0.17247 -3.51198,0.17827c-6.21996,2.57396 -11.37807,5.88479 -17.94875,1.99261l-1.99634,-0.55061c-1.51453,-0.37918 -2.74097,-1.59516 -3.25882,-3.18405c-0.42204,0.25061 -0.7324,0.41417 -0.86532,0.44285c-6.7145,1.44875 -11.24812,2.01589 -8.30942,-8.7627c0.57229,-2.09904 2.90566,-2.99484 4.44178,-4.38501c1.62996,-1.47509 3.44107,-2.52329 5.30154,-3.43786c-4.63079,1.03647 -9.85947,1.64861 -11.72685,-4.88811c-1.41031,1.1918 -3.5113,2.66446 -5.5811,3.24451c0.06444,1.21576 -0.30478,2.62527 -1.73647,3.91757c-3.50767,3.16619 -6.37759,-0.7036 -6.37759,-0.7036c-1.15078,-1.63546 -2.64565,-3.037 -3.45234,-4.90636c-0.58591,-1.35775 -0.85696,-2.93627 -0.97796,-4.55575c-1.34887,-1.67711 -1.26328,-4.16944 -0.07654,-7.95468c-0.00884,-4.90084 -0.00784,-9.8022 0.00425,-14.70289c0.01245,-5.04724 0.02627,-10.16108 3.57006,-14.03264c6.92167,-7.56185 19.03704,-4.92085 27.83864,-4.92085c4.97343,0 10.21989,-0.08032 15.01836,1.39535h2.37237c2.50303,0 4.53213,2.23857 4.53213,5c0,1.51057 -0.60719,2.86469 -1.56699,3.7815l-2.88849,2.78835c-0.16659,1.88834 -2.35997,3.16868 -3.25006,4.90475c-0.97494,1.90157 -1.40692,4.13054 -2.52956,5.93023c-2.76331,4.42986 -6.35618,8.15539 -9.46376,12.29829c-0.77031,1.02695 -1.5615,2.03461 -2.3452,3.04919c2.10883,-0.41556 4.23288,-0.74276 6.36172,-0.99307c2.51475,-0.08029 6.03397,-2.46061 7.54425,-0.24086c0.08006,0.11766 0.15458,0.23774 0.22385,0.3601c0.35738,-0.30192 0.71701,-0.60206 1.07806,-0.90106c1.92941,-2.4864 3.8181,-4.82463 5.36655,-7.72207c0.89606,-1.6767 3.24801,-8.00367 4.68508,-8.86063c2.48798,-1.48364 5.82405,-3.31351 8.31841,-1.843c3.85438,2.2723 2.04574,8.24336 1.08394,11.69105c0.22304,0.59117 0.34619,1.23973 0.34619,1.92001v2.7907c-0.03433,6.72761 -0.74234,13.59776 -1.28022,20.29613c-0.00804,0.10019 -0.01505,0.20026 -0.02114,0.30022c0.24981,1.38687 0.43865,2.68278 0.59587,3.62551l0.37583,0.06613c0,0 2.33176,4.28746 -1.55451,6.85995z" fill="#8f3e15" stroke-width="0.5"/><path d="M270.87294,184.68918c0,10.78294 -0.16096,21.60003 0.36927,32.36562c0.41659,3.53949 1.21542,8.24477 -0.84067,11.43693c-2.50971,3.89643 -8.45986,3.83723 -12.15542,3.8421c-10.88625,0.01437 -21.77258,0 -32.65883,0c0,0 -0.36354,0 -0.80608,-0.15973c-0.53501,0.47104 -1.75749,1.2317 -3.06901,-0.1069c-1.75621,-1.79246 -0.15965,-3.76417 -0.15965,-3.76417c3.54399,-4.37417 6.92095,-9.78805 11.54917,-12.85748c1.55294,-1.0299 3.34482,-1.58097 4.84454,-2.70592c4.13542,-3.10202 7.30732,-7.59745 11.26883,-10.98638c3.72204,-3.18406 7.07154,-5.83828 10.02582,-9.98851c2.59969,-3.64836 5.00401,-7.4423 7.59507,-11.08511l1.19055,-1.56176c0,0 1.54463,-2.02319 3.34669,-0.28903c1.80206,1.73416 0.25744,3.75734 0.25744,3.75734l-0.59193,0.77403zM255.77773,227.00444c2.5431,0 5.13087,0.27337 7.63385,-0.35883c0.07087,-0.0179 2.86998,-0.82806 3.18584,-1.34162c1.101,-1.79018 0.14151,-5.89127 -0.08116,-7.74883c-0.44752,-9.0052 -0.42257,-18.04347 -0.39986,-27.07027c-1.04082,1.54776 -2.08763,3.09185 -3.16875,4.60909c-3.2052,4.49376 -6.82831,7.45372 -10.86064,10.90264c-3.25591,2.78484 -5.90047,6.19159 -9.03805,9.09887c-2.40372,2.22728 -4.88217,3.22906 -7.50741,4.92162c-2.58123,1.66419 -4.75361,4.29497 -6.78392,6.98734c9.00671,0 18.0134,0 27.0201,0z" fill="#763312" stroke-width="0.5"/><path d="M208.67416,219.14701c-2.40751,-0.22487 -2.20687,-2.92321 -2.20687,-2.92321c0.20373,-2.71658 0.61901,-5.93446 0.26298,-8.66089c-0.27723,-2.12301 -1.08456,-4.14323 -1.26141,-6.27967c-0.51456,-6.21625 -0.00977,-12.76625 -0.00977,-19.01363c0,-4.64872 -1.38324,-10.5557 3.24106,-13.14753c2.00181,-1.12197 6.9062,-0.20611 9.17313,-0.20611c9.65042,0 19.68869,-0.19311 29.17533,1.96108h2.56939v0c1.33424,0 2.41584,1.21228 2.41584,2.70771c0,0.63532 -0.19522,1.21954 -0.52211,1.68142l-1.73649,2.50235l-0.05953,-0.0519c-0.08722,0.15166 -0.17886,0.30036 -0.27557,0.44572c-0.70469,1.05911 -2.18958,1.95084 -3.73061,2.74428c0.56796,1.74243 -0.89097,2.96881 -0.89097,2.96881l-2.07491,1.74169c-5.10165,3.64164 -8.30092,7.91765 -12.35078,12.78161c-3.16669,3.80324 -7.14877,7.06031 -10.91401,10.15193c-0.20367,0.34748 -0.40964,0.69222 -0.61853,1.03359c-1.53244,2.50425 -3.35636,4.65216 -4.86782,7.18026l-0.23327,0.11587l0.07326,0.0821l-1.74972,1.9611c-0.43718,0.49 -1.04114,0.79307 -1.70826,0.79307c-0.55202,0 -1.06079,-0.20751 -1.4676,-0.55673c-0.07521,-0.00123 -0.15277,-0.00547 -0.23277,-0.01294zM211.65075,208.38714c1.32631,-1.66202 3.0254,-3.14891 4.77712,-4.52561c2.75553,-4.88728 5.2837,-10.04258 9.03367,-14.03365c3.03492,-3.23004 7.33052,-6.58521 10.79564,-9.2337c1.36345,-1.04212 4.20009,-3.53713 6.81002,-4.99678c-8.29243,-1.35913 -16.85377,-1.26601 -25.1939,-1.26601c-2.29815,0 -5.08374,-0.52771 -7.32413,-0.20611c-0.75449,0.10831 -0.29068,1.68943 -0.25837,2.5412c0.10925,2.87967 0,5.80268 0,8.68484c0,5.07686 -0.40932,10.39337 -0.00976,15.44558c0.16292,2.06006 0.98234,3.99904 1.23818,6.0472c0.06296,0.50404 0.10548,1.01965 0.13153,1.54304z" fill="#763312" stroke-width="0.5"/><path d="M261.02662,163.97499l12.54366,14.59898l-57.49639,60.88439l-12.54366,-14.59898z" fill="#af4c00" stroke-width="0"/><path d="M197.79179,173.54667v-11.96997h82.40762v11.96997z" fill="#af4c00" stroke-width="0"/><path d="M197.76102,243.39456v-12.38867h82.40763v12.38867z" fill="#af4c00" stroke-width="0"/><path d="M197.68023,172.49571h12.27528v59.21053h-12.27528z" fill="#af4c00" stroke-width="0"/><path d="M268.87725,172.49571h11.2294v59.21053h-11.2294z" fill="#af4c00" stroke-width="0"/><path d="M197.7881,161.83781v-3.54251h82.29768v3.54251z" fill="#a24600" stroke-width="0"/><path d="M248.10356,240.74805c0,1.25 -1.13303,1.25 -1.13303,1.25c-7.37874,0 -15.07371,0 -22.45245,0c-3.7845,0 -7.78023,0.82482 -11.52278,0.33951c-2.73849,-0.35511 -5.42154,-1.22345 -8.24267,-0.87491c-1.73865,0.21481 -3.27341,0.87062 -5.05875,0.88428c0,0 -1.13303,0 -1.13303,-1.25c0,-1.25 1.13303,-1.25 1.13303,-1.25c1.6619,0.01586 3.11639,-0.66189 4.74444,-0.86012c3.03179,-0.36915 5.88945,0.4869 8.83385,0.86949c3.64004,0.47297 7.55963,-0.35824 11.24591,-0.35824c7.37874,0 14.75748,0 22.13622,0h0.31623c0,0 1.13303,0 1.13303,1.25z" fill="#9d4400" stroke-width="0.5"/><path d="M279.72674,240.74805c0,1.25 -1.13303,1.25 -1.13303,1.25c-3.63667,0 -7.43144,0 -11.06811,0c0,0 -1.13303,0 -1.13303,-1.25c0,-1.25 1.13303,-1.25 1.13303,-1.25c3.63667,0 7.27333,0 10.90999,0h0.15812c0,0 1.13303,0 1.13303,1.25z" fill="#9d4400" stroke-width="0.5"/><path d="M208.4726,169.1266c0,1.25 -1.13303,1.25 -1.13303,1.25c-2.3959,0 -5.37458,0 -7.77047,0c0,0 -1.13303,0 -1.13303,-1.25c0,-1.25 1.13303,-1.25 1.13303,-1.25c2.3959,0 4.79179,0 7.18769,0h0.58279c0,0 1.13303,0 1.13303,1.25z" fill="#9d4400" stroke-width="0.5"/><path d="M278.98964,169.76956c0,1.25 -1.13303,1.25 -1.13303,1.25c-4.72704,0 -10.81391,0 -15.54094,0c-8.35326,0 -16.70652,0 -25.05978,0c0,0 -1.13303,0 -1.13303,-1.25c0,-1.25 1.13303,-1.25 1.13303,-1.25c8.35326,0 16.70652,0 25.05978,0c4.72704,0 9.45407,0 14.18111,0h1.35983c0,0 1.13303,0 1.13303,1.25z" fill="#9d4400" stroke-width="0.5"/><path d="M208.86112,228.99231c0,1.25 -1.13303,1.25 -1.13303,1.25c-2.46065,0 -5.11556,0 -7.57621,0c0,0 -1.13303,0 -1.13303,-1.25c0,-1.25 1.13303,-1.25 1.13303,-1.25c2.46065,0 4.9213,0 7.38195,0h0.19426c0,0 1.13303,0 1.13303,1.25z" fill="#9d4400" stroke-width="0.5"/><path d="M278.98964,228.77799c0,1.25 -1.13303,1.25 -1.13303,1.25c-1.23032,0 -2.84917,0 -4.0795,0c0,0 -1.13303,0 -1.13303,-1.25c0,-1.25 1.13303,-1.25 1.13303,-1.25c1.23032,0 2.46065,0 3.69097,0h0.38852c0,0 1.13303,0 1.13303,1.25z" fill="#9d4400" stroke-width="0.5"/><path d="M264.53508,182.55634c0.09149,-0.36939 0.35039,-0.89204 1.08303,-0.89204c1.13303,0 1.13303,1.25 1.13303,1.25l-0.33186,1.0982c-6.6766,7.3481 -13.5529,14.7653 -20.28607,22.15738c-1.62653,1.1844 -2.6116,2.95886 -4.09436,4.29954c-3.66035,3.30959 -7.38739,6.88748 -10.789,10.6286c-1.46539,1.61165 -2.47479,3.12927 -4.24413,4.43371c0,0 -0.94274,0.69338 -1.57123,-0.34669c-0.62849,-1.04006 0.31425,-1.73344 0.31425,-1.73344c1.66689,-1.22279 2.53192,-2.60904 3.91487,-4.13894c3.44539,-3.8115 7.24406,-7.44778 10.96832,-10.80303c1.46758,-1.32217 2.45406,-3.07753 4.06463,-4.27311c6.54691,-7.26845 13.31468,-14.47183 19.83852,-21.68018z" fill="#9d4400" stroke-width="0.5"/><path d="M154.15834,162.24371c0.0029,0.03566 0.00455,0.07256 0.00487,0.11079c0.01331,1.55079 -2.17372,2.14786 -2.17372,2.14786c-1.27444,0.31988 -2.6065,0.90292 -3.82332,0.95963c-2.83864,0.13231 -4.79562,-1.88651 -6.26112,-3.13009c-3.75007,-3.18222 -3.89782,-8.89886 -3.89198,-13.68083c0.00142,-1.15821 -0.99566,-1.99992 -0.84963,-3.19232c0.08349,-0.68179 0.77787,-1.42573 0.95349,-2.12306c0.48644,-1.9315 0.65301,-3.69027 1.33451,-5.69296c1.98909,-5.84258 7.01947,-10.84295 12.89014,-15.83302c2.19334,-1.86434 3.7185,-3.84666 5.67491,-5.77037c5.95835,-5.85875 14.37317,-10.97493 22.21349,-14.96266c1.79658,-0.72422 3.5676,-1.22874 5.33797,-1.76621c0.2489,-0.41761 0.68386,-0.81881 1.24848,-1.10698l2.48521,-1.26844l0.04371,0.07957l0.25029,-0.21377c1.98528,-0.61157 3.34517,-1.06457 4.71405,-1.43277c0.09907,-0.05244 0.19725,-0.10378 0.29442,-0.15386l-0.06344,-0.20149l2.56247,-1.06425c0.33721,-0.14368 0.67733,-0.22921 0.99654,-0.25852c0.6582,-0.34177 1.3165,-0.68726 1.98179,-1.02525c4.21005,-2.13889 7.41804,-2.32342 11.70509,-3.4227c1.40875,-0.36124 2.76104,-1.14286 4.14679,-1.69626c4.69951,-1.87675 12.45787,-3.78377 16.79599,-3.39475c2.33929,0.20977 3.20495,1.58265 5.68125,1.74784c1.77442,0.14892 3.86974,0.20083 5.16515,0.97954c0.9931,0.597 0.6117,2.00473 1.90412,2.41516c1.36303,0.43285 3.27701,0.20263 4.50334,0.77722c1.81913,0.85234 3.07904,2.46484 4.52821,3.61876c2.65958,2.11773 5.79863,4.61683 6.73033,7.78216c1.06358,3.61335 -0.7409,7.97952 -2.26233,12.06935c-1.14106,0.94538 -1.99246,2.27347 -3.42318,2.83613c-1.97559,0.77695 -3.39002,-0.61512 -5.12969,-0.85717c-1.35205,-0.18811 -3.12002,0.54768 -4.57524,0.5415c-0.56918,-0.00241 -0.98578,-0.32191 -1.59052,-0.21465c-2.26155,0.40114 -4.66457,3.05568 -6.95901,3.29915c-4.11583,0.43675 -3.60145,-2.25349 -6.90243,-1.98264c-1.57156,0.12895 -4.19002,1.65798 -5.61146,2.38487c-1.55094,0.79312 -3.14707,1.50615 -4.63203,2.31192c0.18377,0.09948 0.33031,0.23657 0.42562,0.41011c0.38894,0.70825 -0.2228,1.75556 -1.36636,2.33923l-2.79587,1.427c-0.45681,0.19339 -0.89466,0.42189 -1.31816,0.6743l-0.62352,1.06747v0c-0.24726,0.42331 -0.68608,0.83106 -1.25786,1.12289c-1.14356,0.58367 -2.38589,0.48268 -2.77483,-0.22558c-0.08683,-0.15811 -0.12379,-0.33311 -0.11609,-0.51609c-3.63344,1.84327 -7.21889,3.56728 -10.95565,5.08702c-1.67865,0.6827 -3.43712,0.94894 -5.11814,1.62341c-2.99234,1.20061 -7.49461,3.42014 -9.30598,5.70399c-1.07552,1.35607 -2.90751,5.64637 -4.33513,6.44708c-1.61741,0.90717 -3.40909,0.00886 -5.142,0.64155c-1.89482,0.97928 -4.22323,1.93439 -5.90061,3.19983c-2.06537,1.55815 -2.54261,3.73759 -4.31826,5.33513c-2.65401,2.3878 -6.22314,2.73721 -9.14191,4.99072z" fill="#3d850c" stroke-width="0.5"/><path d="M142.468,158.72972c0.68044,-3.70688 2.18603,-8.07089 5.75355,-11.57638c1.21381,-1.1927 3.71313,-2.86667 5.36836,-3.65966c0.22152,-0.10613 2.86968,-0.79005 3.31384,-1.41663c0.81861,-1.15482 0.27046,-2.32999 1.01203,-3.49603c3.10248,-4.87831 12.29063,-9.91999 18.42745,-11.33887c2.75706,-1.38711 3.19537,-2.53276 5.55043,-4.45724c3.17806,-2.597 9.86586,-6.02756 13.84146,-7.27331c1.57813,-0.4945 3.98817,-0.63291 5.42278,-0.60327c0.44412,0.00917 0.76439,0.3351 1.24258,0.18131c1.29316,-0.41588 3.92639,-3.42764 5.16167,-4.17455c6.52769,-3.94698 14.75714,-6.1114 21.51931,-6.64792c1.51943,-0.20475 2.8523,0.18753 4.39085,-0.11692c1.84289,-0.36467 3.19317,-2.19201 4.79271,-3.28522c1.72961,-1.1821 4.43665,-3.00296 6.60975,-3.45694c4.29065,-0.89637 9.52539,0.98547 12.44777,2.21982c2.17201,0.91741 4.3774,3.42729 4.50919,5.63918c0.08612,1.44524 -1.01472,2.60351 -1.23907,4.05094c-0.32489,2.09603 -0.73194,5.86379 -4.79166,7.46798c-1.28792,0.50892 -2.39817,-0.09903 -3.59726,-0.14854c-2.77034,-1.09651 -7.34147,-1.7963 -11.36166,-0.03592c-1.21178,0.53061 -4.03591,2.26762 -5.06431,2.40724c-1.18408,0.16075 -1.94821,-0.50001 -3.03083,-0.58454c-4.02447,-0.31426 -8.8294,1.71441 -12.86174,4.06636c-0.06452,0.33362 -0.26545,0.68332 -0.5733,0.99855l-1.68845,1.77887l-0.29788,-0.11167l-0.32881,0.62109c-0.19973,0.03578 -0.39944,0.07158 -0.59917,0.10737c-0.0581,0.0357 -0.11888,0.06977 -0.18182,0.1025l0.02478,0.15403l-2.04098,0.70734c-3.78605,1.90967 -7.79362,3.03158 -11.4672,4.92007c-1.56245,0.80321 -2.99202,1.86762 -4.61331,2.53208c-1.71232,0.70177 -3.44555,0.47676 -5.18985,0.89435c-1.24458,0.29796 -4.27838,2.1583 -5.44128,2.85165c-4.68264,2.79191 -6.92334,6.64826 -10.76613,9.77543c-1.89352,0.9829 -4.58747,2.03973 -6.32795,3.22605c-2.30538,1.57138 -3.00941,3.49411 -4.90732,5.04001c-1.46158,1.19049 -3.59211,1.56815 -5.33948,2.45382c-1.69333,0.85827 -3.11923,2.07483 -4.68321,3.1078c-3.41848,2.25783 -3.49393,5.00563 -8.62126,4.17997c-0.89027,-0.14337 -0.80405,-1.14928 -1.2743,-1.68249c-0.83766,-0.94979 -1.51248,-1.17645 -2.78861,-1.90212l-1.09858,-1.33655c0,0 -0.84185,-1.0497 0.7869,-2.17909z" fill="#36760b" stroke-width="0.5"/><path d="M151.4974,164.72554c4.58266,-4.49717 10.57373,-6.03528 15.52987,-9.94037c2.589,-2.03994 2.96947,-3.26899 6.26827,-4.9685c2.94222,-1.51579 6.41083,-1.91653 9.11688,-3.68208c-0.09235,-0.07817 -0.16901,-0.17001 -0.2268,-0.27526c-0.1316,-0.23963 -0.14863,-0.51808 -0.06928,-0.80425l0.4263,-1.67895l0.06656,-0.00872l-0.02183,-0.13596c0.74325,-1.55991 1.23167,-3.06608 3.01156,-4.49995c1.39869,-1.12677 3.08841,-1.79609 4.82357,-2.2296c0.75825,-0.56639 1.48207,-1.04277 2.07453,-1.36632c3.44232,-1.87988 6.33687,-1.55591 9.98591,-2.70917c3.41421,-1.07904 6.20837,-3.09744 9.49791,-4.46821c1.78881,-0.7454 3.65726,-0.64526 5.47432,-1.27006c0.71995,-0.24756 1.26586,-0.54911 1.73025,-0.88673c-0.28454,-0.03597 -0.5634,-0.14092 -0.81326,-0.34914c-1.18541,-0.9878 0.65256,-2.3241 0.65256,-2.3241l2.41419,-1.70576c3.46876,-1.2453 8.13728,-3.02245 11.50403,-2.91265c0.11129,0.00363 0.21742,0.0152 0.31983,0.03254c0.94451,-0.01962 1.84681,0.03678 2.64903,0.23299c0.01171,0.00287 0.0593,0.02377 0.1342,0.05666c0.89004,-0.32395 1.86982,-0.98083 2.47386,-1.23403c0.3795,-0.15907 4.9199,-1.72162 5.44884,-1.83952c2.40971,-0.53707 4.96722,-1.03754 5.63723,-0.10371c0.34006,0.01451 0.69016,0.0287 1.05429,0.03821l0.19084,0.35161l0.22002,-0.18729l1.50009,0.89768c0.17696,0.09879 0.3183,0.23317 0.41107,0.40212c0.31517,0.57391 -0.02675,1.37047 -0.77626,1.96255c0.72506,-0.30711 1.46355,-0.60473 2.12468,-0.98794l1.21867,-1.68723c0,0 1.23394,-1.61489 3.03969,-1.22307c1.80575,0.39182 0.57182,2.00672 0.57182,2.00672l-1.97308,2.48996c-0.92047,0.58042 -1.78137,1.24608 -2.76144,1.74126c-0.54864,0.2772 -1.32046,0.13016 -1.7324,0.52925c-0.50719,0.49137 0.0055,1.10415 -0.47301,1.60738c-2.04608,2.15178 -5.85122,3.67558 -8.61478,5.02975c-2.07833,0.31201 -6.14318,0.45277 -8.14957,2.03608c-2.28789,1.80545 -3.57897,3.41038 -6.64674,4.70924c-1.78867,0.75731 -3.60698,1.59103 -5.43531,2.01809c-2.1228,0.49585 -4.26247,-0.0533 -6.58849,1.15815c-2.13064,1.1097 -3.97658,3.1439 -5.88033,4.45154c-4.94663,3.39772 -11.90705,6.02475 -17.13845,5.52904c-2.37805,1.65398 -3.98489,3.91603 -6.21667,5.70173c-2.19541,1.75661 -6.20574,4.05627 -8.93076,5.03602c-1.97691,0.71078 -5.7648,0.45429 -7.56366,1.34768c-1.37326,0.68203 -1.59708,2.22173 -2.82727,3.0872c-5.07681,3.57167 -11.27755,3.81563 -16.4273,4.09908c0,0 -2.09426,0.1146 -1.4638,-1.5432c0.17254,-0.45369 0.4547,-0.7918 0.77357,-1.04362c0.18357,-0.2871 0.386,-0.48711 0.386,-0.48711z" fill="#746b5d" stroke-width="0.5"/><path d="M173.3728,149.41292c-1.26005,1.33115 -2.65668,0.81085 -2.65668,0.81085l-1.36285,-0.53734c-2.39829,-1.60128 -3.21102,-3.77614 -4.3594,-6.14061c-2.06961,-4.29257 -3.44466,-10.16699 -2.65702,-15.36892c0.35044,-2.31454 -0.52263,-4.40225 -0.40674,-6.65776c0.19836,-3.86073 1.77948,-8.04054 1.87419,-11.81858c0,0 0.04778,-1.34929 1.9282,-1.82055c1.88043,-0.47126 1.83265,0.87803 1.83265,0.87803c-0.16753,3.82332 -1.67704,7.96098 -1.87511,11.84079c-0.09338,1.8292 0.32645,3.54354 0.36438,5.33997c0.02045,0.96889 -0.3935,2.03884 -0.43352,3.02367c-0.05888,1.44888 0.58862,2.67894 0.82288,4.03997c0.52688,3.061 0.8057,6.05377 2.14815,8.79586c1.00127,2.06158 1.62201,4.09356 3.74455,5.45762l0.89971,0.30554c0,0 1.39663,0.5203 0.1366,1.85145z" fill="#4fae10" stroke-width="0.5"/><path d="M169.91388,147.76179c-0.19791,0.00854 -0.38724,-0.00128 -0.56481,-0.03401c-0.91982,-0.16957 -0.93623,-1.15049 -1.32955,-1.76791c-1.1749,-1.84432 -1.57361,-4.22717 -1.82728,-6.44668c-0.06633,-2.64907 -0.13533,-5.2941 -0.13062,-7.95666c-0.06193,-0.01319 -0.12433,-0.02732 -0.18722,-0.04238c-1.00286,-0.24016 -0.67754,-4.037 -0.70075,-4.9447c-0.13324,-5.2109 0.05217,-9.96316 2.03373,-15.33888c-0.01434,-0.00774 -0.0292,-0.01502 -0.04459,-0.02183l-0.13825,0.03465l0.00279,-0.07883c-0.03118,-0.00703 -0.06403,-0.01255 -0.09862,-0.01647c0,0 -1.00097,-0.31398 -0.66215,-1.19393c-0.32666,0.14275 -1.79647,0.71624 -2.28358,-0.2867c-0.54113,-1.11416 1.19662,-1.97868 1.24854,-2.0042c1.72171,-1.25148 3.30233,-2.35592 5.18141,-3.45583c0.32563,-0.24652 0.76649,-0.47624 1.3171,-0.53283c0.36007,-0.06604 0.75057,-0.06163 1.06936,0.12684c0.35828,0.15201 0.4796,0.40498 0.49313,0.65891c0.07274,0.32895 -0.06601,0.64221 -0.26959,0.9063c0.24838,0.97439 0.42098,1.97918 0.53262,3.0019c-0.60222,3.5922 1.22134,6.10018 2.61593,8.97159c2.31552,4.76758 5.29965,8.84768 9.20252,12.69978c1.84855,1.82451 3.55233,3.77134 6.26881,4.89744c0.42932,-0.008 0.85592,0.1215 1.07809,0.57895c0.54932,1.13103 -1.24973,2.00479 -1.24973,2.00479l-0.77646,0.32333c-2.39686,1.72684 -5.20705,2.52438 -7.60872,4.04714c-0.78495,0.94995 -1.58457,1.91342 -1.70971,2.01411c-0.05139,0.04136 -0.21434,0.13331 -0.45016,0.25782c-0.58153,0.90065 -1.14725,1.84507 -2.28848,2.65124c-2.10028,1.48368 -4.44381,2.15283 -6.64301,3.45595c0,0 -1.71701,1.0073 -2.48523,-0.00662c-0.76822,-1.01392 0.94879,-2.0212 0.94879,-2.0212c0.03306,-0.01924 0.06618,-0.03834 0.09936,-0.05733c-0.25991,-0.11129 -0.47105,-0.25527 -0.6437,-0.42373zM170.33539,120.54307c-0.02175,0.18921 -0.04268,0.3782 -0.06278,0.56698c0.0661,-0.0963 0.14353,-0.19093 0.2313,-0.28224c-0.05677,-0.09461 -0.11295,-0.18951 -0.16851,-0.28473z" fill="#4fae10" stroke-width="0.5"/><path d="M237.03162,113.5899c0.034,-0.01771 0.06808,-0.03531 0.10226,-0.05281c0,0 1.78301,-0.90493 2.3748,0.184c0.59177,1.08893 -1.19123,1.99386 -1.19123,1.99386c-2.296,1.15301 -4.0601,2.71774 -6.47974,3.70719c-1.31474,0.53763 -2.48336,0.5497 -3.61805,0.59487c-0.23177,0.13075 -0.39752,0.21833 -0.46152,0.24019c-0.15584,0.0532 -1.45521,0.24374 -2.7347,0.42883c-2.60196,1.21262 -4.71272,3.09121 -7.50596,4.20466l-0.68089,0.47096c0,0 -1.69584,1.03301 -2.50421,0.06474c-0.32694,-0.39162 -0.24426,-0.79382 -0.02981,-1.13399c0.24056,-2.70196 -0.78553,-4.97604 -1.62579,-7.30897c-1.77406,-4.92552 -4.20715,-9.22159 -7.61463,-13.30315c-2.05225,-2.45824 -3.553,-5.09037 -7.25127,-6.28573c-0.9165,-0.5671 -1.78662,-1.17465 -2.59139,-1.82871c-0.34864,0.03972 -0.71271,0.00455 -0.98974,-0.20735c-0.23439,-0.12944 -0.41594,-0.34477 -0.38752,-0.70276c-0.02522,-0.34339 0.15877,-0.65826 0.39493,-0.91584c0.319,-0.41463 0.74938,-0.66049 1.14017,-0.80618c1.94897,-0.9915 3.75841,-1.74181 5.77536,-2.53646c0.04923,-0.02967 1.70677,-1.01789 2.50309,-0.06405c0.71683,0.85863 -0.5355,1.76815 -0.82834,1.96314c0.99811,0.13958 0.81369,1.08805 0.81369,1.08805c-0.01294,0.02954 -0.02354,0.05842 -0.03189,0.08669l0.07614,0.03458l-0.09949,0.09457c-0.00095,0.01551 -0.00121,0.0308 -0.00078,0.04591c6.05501,0.92346 10.65304,2.99453 15.53264,5.53506c0.84998,0.44254 4.60897,1.9553 4.3536,2.87081c-0.01601,0.05742 -0.03269,0.11399 -0.05,0.16976c2.52836,1.2398 5.00458,2.53046 7.4859,3.82087c1.98352,1.23984 4.05212,2.67215 5.23577,4.4747c0.39625,0.60343 1.31899,1.07473 1.03666,1.89075c-0.05451,0.15753 -0.13641,0.31377 -0.23989,0.46832c0.07664,0.21698 0.1115,0.45335 0.09184,0.71353zM211.10198,100.76925c0.12891,-0.02765 0.25601,-0.04548 0.37922,-0.05345c-0.18879,-0.07206 -0.37818,-0.14357 -0.56817,-0.21452c0.06357,0.08898 0.12655,0.1783 0.18895,0.26797z" data-paper-data="{&quot;index&quot;:null}" fill="#4fae10" stroke-width="0.5"/><path d="M152.24407,163.55874c-0.63997,1.42908 -2.40879,1.44947 -2.40879,1.44947l-2.3996,-0.01037c-2.86426,-1.37228 -3.47384,-3.48782 -4.66399,-5.93831c-2.0915,-4.30633 -3.65847,-8.35559 -4.36808,-13.24498c0,0 -0.18583,-1.28042 1.68601,-1.9154c1.87183,-0.63498 2.05765,0.64544 2.05765,0.64544c0.68617,4.72798 2.19897,8.60106 4.2225,12.76742c0.81128,1.6704 1.20021,3.97287 3.12439,4.89477l1.62107,-0.05672c0,0 1.76882,-0.0204 1.12885,1.40868z" fill="#4fae10" stroke-width="0.5"/><path d="M244.76848,91.30573c1.46635,-1.23131 2.64453,-0.50569 2.64453,-0.50569l0.72215,0.44629c3.99586,2.20629 5.96534,5.33128 7.96851,8.81595c0.8611,1.49795 2.32946,3.06236 2.57653,4.8469c0.45037,3.25284 -1.121,6.78528 -2.25184,10.3168c0,0 -0.45456,1.41939 -2.27985,1.58672c-1.82529,0.16734 -1.37072,-1.25206 -1.37072,-1.25206c1.03856,-3.24257 2.50864,-6.41986 2.15465,-9.41161c-0.18254,-1.54275 -1.64135,-2.96195 -2.37809,-4.24675c-1.83623,-3.20224 -3.57788,-6.11869 -7.26096,-8.14036l-0.81309,-0.49926c0,0 -1.17817,-0.72562 0.28818,-1.95694z" fill="#4fae10" stroke-width="0.5"/><path d="M258.50764,119.32544c-3.78772,3.90061 -9.16588,7.57211 -14.70541,9.76882c-1.0157,0.40278 -3.96893,1.20033 -4.91553,1.27136c-1.01632,0.07626 -1.41949,-0.75236 -2.50799,0.27246c-1.14312,1.07626 -2.17371,2.22817 -3.47864,3.20445c-2.96726,1.45676 -6.98844,3.94951 -10.17265,4.42143c-0.14789,0.02192 -2.20886,-0.42201 -2.96335,-0.01533c-1.36418,0.73532 -1.97421,2.0992 -3.22115,2.97332c-2.97536,2.08576 -8.21568,4.13132 -11.60724,5.2861c-2.5935,0.88305 -4.82052,1.67302 -7.40097,2.01c-1.19152,0.1556 -3.75649,-0.22683 -4.91418,0.18883c-1.10581,0.39703 -1.57551,1.54866 -2.27234,2.35425c-2.8172,2.87671 -7.28831,6.64029 -11.43546,8.09089c-0.89585,0.31335 -1.82985,0.68605 -2.70445,0.76522c-0.42688,0.03864 -3.30875,-0.79282 -4.27179,0.32073c-0.32943,0.38091 -0.05595,0.79455 -0.33163,1.18787c-0.61305,0.87463 -1.31398,1.77823 -2.2668,2.51927c-1.32474,1.03029 -3.91565,1.80251 -5.44408,2.31236c-4.07676,1.35993 -7.31814,2.13588 -10.66009,1.52378c-1.00195,0.40904 -1.85398,0.12528 -1.85398,0.12528c-3.21287,-1.10096 -6.89793,-0.64137 -9.236,-2.81982c-1.78141,-1.65978 -2.55223,-4.57008 -3.67456,-6.61381c-1.41562,-2.57779 -3.82603,-5.30723 -4.02708,-8.40232c-0.34351,-5.28841 1.97338,-13.77467 6.93816,-19.22309c1.43829,-3.00862 3.56616,-4.80437 6.10719,-7.65726c3.05139,-3.42587 5.82648,-6.78768 9.47493,-9.99017c6.7378,-5.91423 15.28678,-10.0384 23.52589,-14.24361c5.79434,-2.95742 11.66664,-6.22517 17.7953,-8.11607c3.88329,-1.27255 7.8046,-3.08317 11.64897,-4.09179c2.55403,-0.67009 5.08816,-0.99221 7.59395,-1.31385c3.71437,-0.47679 6.84347,-1.78743 10.54546,-1.90794c9.34939,-0.30432 16.87595,1.56941 22.61144,5.65154c1.95893,1.39423 3.85178,2.39795 4.93992,4.37943c2.52528,1.68442 2.6121,4.4785 4.54179,6.48537c0.43503,0.45243 1.27682,0.62142 1.62507,1.12656c1.12029,1.62505 1.18681,6.02807 0.70791,8.18894c-0.1342,0.60549 -0.86649,1.23401 -1.04674,1.84541c-0.49399,1.67553 -0.54474,3.31259 -1.28852,5.00376l-0.31837,0.95828c0,0 -0.10742,0.31566 -0.40471,0.68513zM162.79905,155.78283c0.65192,-0.22818 1.27197,0.28511 1.87055,-0.06674c0.49676,-0.292 0.12758,-0.81181 0.32787,-1.2255c0.34215,-0.7067 0.67342,-1.44335 1.28501,-2.1058c2.10792,-2.28325 8.82377,-6.12717 12.09456,-6.4371c0.55603,-0.05269 0.5051,0.60686 0.8895,0.80503c0.19854,0.10236 -0.33493,-0.29093 -0.311,-0.5068c0.08951,-0.80767 0.18288,-1.64803 0.64274,-2.48662c1.58525,-2.89091 4.75817,-5.25136 7.7614,-7.52224c3.20487,-1.63576 6.05652,-2.73836 9.43245,-3.05346c0.67921,-0.06339 1.23429,0.22657 1.93315,0.0613c1.24139,-0.29357 2.88387,-2.05253 3.66888,-2.55107c1.65004,-1.04792 6.44975,-3.68795 8.32168,-4.176c1.493,-0.38926 2.78888,0.50161 4.24496,-0.12438c1.56615,-0.67332 4.07233,-4.75733 5.23391,-5.66186c0.27964,-0.21776 5.60636,-2.92255 5.8256,-3.00716c3.38367,-1.30583 11.8226,-2.11947 11.64328,0.9159c0.66341,-1.22451 2.36208,-2.31451 3.88946,-3.09716c6.05231,-3.1013 10.09226,-2.71989 13.63074,0.00304l1.09908,0.18188c1.42352,-3.33151 1.74634,-6.29246 1.72525,-9.37592c-0.00233,-0.34121 0.08973,-2.46806 -0.23612,-2.87468c-0.71988,-0.89835 -1.83632,-1.56048 -2.38965,-2.55158c-1.06159,-1.90152 -1.65544,-3.55988 -3.62098,-4.87094c-1.03949,-1.89287 -2.75292,-2.76488 -4.61775,-4.09937c-8.82839,-6.31766 -22.53698,-5.88811 -37.21774,-2.09636c-3.69735,0.95495 -7.59542,2.77413 -11.35277,4.0054c-5.69193,1.69829 -11.30281,4.91407 -16.67618,7.65662c-7.71423,3.93732 -15.81104,7.76807 -22.12372,13.30576c-3.44316,3.02046 -6.04069,6.21555 -8.92282,9.44788c-2.52207,2.82853 -4.34705,4.22797 -5.70635,7.14566c-4.46805,4.99592 -6.59352,12.44032 -6.33458,17.30098c0.14764,2.77151 2.53836,5.33828 3.80111,7.63772c1.05271,1.91696 1.754,4.59281 3.3568,6.1901c1.24716,1.24286 3.56622,1.41195 5.74379,1.71353c1.84136,-3.72034 5.66908,-6.58334 11.08789,-8.48003zM163.56218,163.68326c0.26524,-0.08759 3.12506,-0.97005 3.68174,-1.39675c1.18253,-0.90641 0.97215,-2.2985 2.0693,-3.26026c0.85884,-0.75287 2.06966,-1.25557 3.18621,-1.67998c1.60245,-0.60911 3.12558,-0.21936 4.66592,-0.27198c1.86149,-0.06361 3.44655,-1.7138 4.71888,-2.62971c2.21254,-1.59275 3.82685,-2.53014 5.63779,-4.38894c1.27195,-1.42461 2.29522,-2.95622 4.5019,-3.8284c1.73974,-0.68762 3.03736,-0.28164 4.53737,-0.34013c1.86484,-0.07272 3.62489,-0.46352 5.55383,-1.10908c3.70186,-1.2389 9.29282,-3.03112 12.53191,-5.35612c1.75152,-1.25723 1.78224,-2.39271 4.01844,-3.43533c1.58801,-0.74041 3.22653,-0.38568 4.83034,-0.54647c2.0495,-0.20549 5.86427,-2.65668 7.7948,-3.58189c2.56164,-1.87634 2.67666,-3.45577 6.46688,-4.49552c1.29417,-0.35502 2.43208,0.12634 3.72628,-0.22593c4.70582,-1.28088 10.02907,-4.76386 13.41875,-8.00864c-0.14514,-0.0086 -0.23012,-0.02434 -0.23012,-0.02434l-2.5224,-0.50297c-1.24062,-0.9239 -3.01436,-2.27084 -5.26197,-2.18488c-2.78215,0.10639 -8.04508,4.12323 -9.9754,5.48877c-3.31295,-1.89954 -9.0435,-3.38154 -14.29371,0.76324c-2.57975,2.03657 -3.14763,4.92378 -6.70993,6.5056c-1.74763,0.77603 -3.4361,0.02958 -5.23484,0.46412c-4.26987,1.03151 -7.79804,5.50062 -11.99056,6.72708c-1.02769,0.30064 -1.93719,0.02069 -2.93697,0.11843c-2.25894,0.22084 -4.26293,0.90093 -6.4177,2.00072c-2.01563,1.54884 -4.71071,3.45076 -5.7138,5.42683c-1.11957,2.20549 0.44459,3.63719 -3.6948,5.7402c-0.99058,0.50325 -1.70574,-0.45655 -2.70967,-0.39364c-1.09691,0.06873 -5.15818,2.49387 -6.17706,3.11268c-2.70042,1.64009 -1.70235,3.73069 -4.31033,5.53923c-1.0034,0.69583 -2.34817,0.42444 -3.50485,0.85543c-4.17088,1.55413 -6.71057,3.37051 -7.773,6.27147c2.53091,0.44457 5.00947,-0.32671 8.11679,-1.35285z" fill="#4c463d" stroke-width="0.5"/><path d="M198.62923,162.75004c-1.24939,1.56174 -2.81113,0.31235 -2.81113,0.31235l-1.61916,-1.43971c-9.88101,0.45899 -20.37311,1.41224 -28.42065,-5.20518c0,0 -1.53644,-1.28037 -0.25607,-2.81681c1.28037,-1.53644 2.81681,-0.25607 2.81681,-0.25607c7.49757,6.3485 17.99488,4.22737 27.18394,4.50355l2.79391,2.09074c0,0 1.56174,1.24939 0.31235,2.81113z" fill="#4c463d" stroke-width="0.5"/><path d="M232.20677,160.05281c-1.2,1.6 -2.8,0.4 -2.8,0.4l-1.76523,-1.32392c-4.35532,-3.31079 -7.7665,-8.72099 -6.46441,-14.49044c0.39421,-1.74669 3.37681,-3.92891 3.02308,-5.92453c-0.74916,-4.22646 -6.10591,-7.08784 -9.04397,-9.69904c0,0 -1.49482,-1.32873 -0.16609,-2.82355c1.32873,-1.49482 2.82355,-0.16609 2.82355,-0.16609c3.96529,3.52526 9.55677,6.60053 10.3735,12.36628c0.47447,3.34952 -2.50446,4.59012 -3.15521,7.31466c-0.95727,4.00788 2.04101,8.03386 5.00955,10.22271l1.76523,1.32392c0,0 1.6,1.2 0.4,2.8z" fill="#4c463d" stroke-width="0.5"/><path d="M214.67726,156.01731c0.58347,0.11724 1.60118,0.52621 1.60118,1.95289c0,2 -2,2 -2,2l-1.85552,-0.58579c-2.08019,-2.08019 -4.31785,-3.68117 -4.95901,-6.75399c-0.15242,-0.73049 0.47164,-1.58983 0.09919,-2.23645c-0.04798,-0.08329 -3.70393,-2.81362 -4.1934,-3.18034c0,0 -1.6,-1.2 -0.4,-2.8c1.2,-1.6 2.8,-0.4 2.8,-0.4c1.53493,1.15232 4.66749,3.40926 5.41111,4.67383c0.5331,0.90658 0.02612,2.11191 0.20342,3.14857c0.29477,1.72341 1.98738,3.01059 3.29303,4.1813z" fill="#4c463d" stroke-width="0.5"/></g></g></svg>