<svg version="1.1" xmlns="http://www.w3.org/2000/svg" xmlns:xlink="http://www.w3.org/1999/xlink" width="157.38542" height="144.69886" viewBox="0,0,157.38542,144.69886"><g transform="translate(-166.37144,-107.65056)"><g data-paper-data="{&quot;isPaintingLayer&quot;:true}" fill-rule="nonzero" stroke="none" stroke-width="0.5" stroke-linecap="butt" stroke-linejoin="miter" stroke-miterlimit="10" stroke-dasharray="" stroke-dashoffset="0" style="mix-blend-mode: normal"><g><g data-paper-data="{&quot;index&quot;:null}" fill="#aa0000"><path d="M315.74555,168.21693c1.44186,0.58232 3.91566,1.37278 4.94415,2.68313c0.78866,1.00479 1.30032,2.24061 1.59867,3.47847c0.60424,2.50701 -0.15347,3.08179 -0.6193,5.23055c-0.6529,3.01161 -0.94772,6.47846 -3.38115,8.73786c-1.5136,1.40537 -3.24678,2.11135 -5.11223,2.14201c0.09935,0.64954 0.05381,1.4572 0.08816,2.64833c0.02418,0.83829 0.24298,1.71807 -0.00342,2.51459c-1.50743,4.87273 -5.52445,5.86859 -9.75502,6.63288c1.42783,0.96793 2.84309,2.34643 3.18765,3.7116c0.82861,3.28302 -2.24035,7.31147 -5.17797,8.1802c-0.17392,0.05143 -3.824,-0.28948 -4.6091,-0.36057c-1.04386,-0.17031 -2.61971,-0.31423 -3.83213,-0.8243c-0.03122,0.16954 -0.07626,0.3367 -0.13805,0.50097c-1.8497,4.91645 -9.9207,4.43052 -13.28194,1.68892c-0.54455,-0.44415 -0.78778,-1.17131 -1.25978,-1.69267c-0.52753,-0.58271 -1.29773,-0.94638 -1.72602,-1.60544c-0.35619,-0.5481 -0.23844,-1.30043 -0.53925,-1.8804c-0.39688,-0.76522 -1.32683,-1.2556 -1.52156,-2.093c-0.01306,-0.05612 -0.02346,-0.11229 -0.03146,-0.16851c-0.78796,0.34423 -1.59438,0.23374 -2.17373,0.05671c-0.28257,0.77374 -1.11463,1.97382 -1.47734,2.19096c-1.75851,1.0527 -6.15841,1.27625 -8.15555,0.45822c-1.23754,-0.50689 -2.75127,-0.91632 -3.45106,-2.06262c-0.06052,-0.09913 -0.69197,-5.60217 -0.80596,-6.77784c-0.07039,-0.72598 0.33035,-1.66154 -0.18824,-2.17964c-0.34626,-0.34592 -0.93788,-0.26256 -1.41469,-0.35538c-1.17836,-0.22938 -2.29741,-0.72593 -3.47149,-0.97833c-0.71739,-0.15421 -1.4897,0.09053 -2.19152,-0.12754c-1.04582,-0.32495 -3.5972,-2.18251 -4.45028,-2.76956c-1.09546,-2.1001 -4.37517,-6.36842 -3.31189,-8.98831c-0.20799,-0.08843 -0.39959,-0.26011 -0.59567,-0.37618c-1.37881,-0.81608 -3.4791,-0.68023 -4.35018,-2.02933c-2.14187,-3.31717 -0.74554,-8.0779 1.60871,-10.54295c1.06299,-1.11303 2.27273,-1.12029 2.88345,-2.64992c0.37882,-0.94885 0.72029,-1.92431 0.90427,-2.9328c0.18265,-1.00122 -0.28031,-2.24126 0.3419,-3.03785c2.52396,-3.23129 6.56735,-2.27097 9.95959,-1.5827c0.03421,-0.49221 0.18066,-0.98209 0.44909,-1.43103l0.44362,-0.74194c-0.13664,-0.54981 -0.22606,-1.1079 -0.28005,-1.67108l-0.24019,0.11129l-0.73847,-1.56128c-0.47522,-0.96857 -0.47054,-2.1437 0.11543,-3.12373c0.15983,-0.2673 0.35235,-0.50246 0.5695,-0.70356c-1.48515,-0.11999 -3.08034,-0.39066 -3.47072,-0.70097c-2.37151,-1.8851 -3.3062,-5.33143 -2.03991,-8.08232c0.60729,-1.31928 2.49631,-1.48712 3.61138,-2.40922c0.69433,-0.57416 0.80372,-1.62157 1.26841,-2.39584c1.66193,-2.76915 3.27402,-5.0439 6.69944,-5.37034c0.76738,-1.34261 1.42709,-2.67645 2.70628,-3.66404c0.59311,-0.45791 1.43341,-0.49664 2.05748,-0.91155c0.62719,-0.41697 0.98056,-1.19325 1.6444,-1.54964c0.39018,-0.20948 0.81242,-0.37744 1.25547,-0.5127c0.39729,-0.57822 0.82556,-1.12932 1.28966,-1.64733c0.83526,-0.93233 1.67313,-2.00881 2.84803,-2.44469c1.94263,-0.72072 4.58983,0.24643 6.23988,1.27052c1.40063,0.8693 2.58053,2.101 3.54735,3.52904c2.89047,1.24637 5.18145,3.48899 5.99806,7.23797c0.10924,0.50149 0.15493,1.90008 0.12661,3.174c0.45113,-0.03618 0.93411,0.01216 1.34518,-0.15637c0.89937,-0.36872 1.51411,-1.45339 2.48856,-1.51407c4.72754,-0.29441 9.55265,5.90289 9.76071,10.22778c0.09276,1.92815 -0.28409,3.33457 -0.9986,4.64922c-0.149,0.45511 -0.31406,0.90664 -0.4832,1.35304c3.82958,-0.6828 8.42256,2.05129 10.35293,5.44375c2.32658,1.18087 3.9217,3.31138 3.49599,6.64121c-0.11094,0.86778 -0.8465,1.49359 -1.40241,2.1905c0.92138,-0.13011 1.91525,0.00633 2.84958,-0.07616zM287.86983,191.34924c-0.12856,-0.00796 -0.25726,-0.02363 -0.38539,-0.04716c0.11998,0.08317 0.22178,0.12352 0.3,0.09068c0.02544,-0.01067 0.05399,-0.02529 0.08537,-0.0435z"/><path d="M260.30616,172.52078l-0.67154,-0.41252c-0.15921,-0.09781 -4.20039,-2.54431 -4.42879,-2.81813c-0.79013,-0.94722 -1.1934,-2.90527 -1.49929,-4.11726c-0.7874,-3.11975 -1.65772,-6.76299 -0.1423,-9.63755c-0.73383,-0.10265 -1.54552,0.03683 -2.17337,-0.35252c-0.68958,-0.42764 -0.963,-1.3106 -1.44404,-1.96625c-0.95889,-1.30695 -2.24954,-2.53929 -1.9791,-4.3953c0.18191,-1.2484 0.88968,-2.3544 1.43413,-3.48538c1.66793,-3.46476 4.3099,-6.82237 7.06994,-9.44145c0.99486,-0.94405 1.77346,-2.34194 3.09955,-2.70513c0.56962,-0.15601 1.13795,0.0529 1.70604,0.32962c0.64507,-2.34127 1.50725,-4.61497 3.63705,-6.10095c1.19512,-0.83385 2.82364,-0.7799 4.17118,-1.33935c2.39538,-0.99451 5.24615,-2.56589 8.0101,-2.09159c1.61039,0.27634 3.1466,1.30788 4.51008,2.16115c0.77785,0.48677 1.69112,0.81059 2.32149,1.47989c2.87911,3.05702 3.27044,8.01819 6.36025,10.73327c0,0 0.49307,0.45495 0.56542,1.09489c1.97851,-0.70107 4.08592,-1.14887 6.07702,-0.63201c0.77379,0.20086 1.39255,0.79916 2.08228,1.2102c0.4928,0.2937 3.85871,2.3708 3.9925,2.50342c2.25732,2.23757 2.11145,6.88716 0.81642,9.52469c1.03257,0.52821 1.99788,1.27354 2.95297,1.8641c1.55516,0.96163 2.84762,2.30454 4.20863,3.53008c2.8597,2.57509 6.26369,4.26411 5.79789,8.75971c-0.03274,0.31604 -0.12005,0.61932 -0.2288,0.91755c1.2285,0.28627 2.48305,0.92843 3.81615,1.99569c0.70833,0.56708 1.55723,1.08726 1.94382,1.90822c0.84455,1.79352 0.61787,4.88322 0.84101,6.80031c0.1359,1.16764 0.64437,2.30638 0.60145,3.47803c-0.10839,2.95971 -2.05862,5.48043 -3.54547,7.85465c-0.66005,1.05396 -1.01888,2.40274 -2.0204,3.13562c-0.67064,0.49076 -1.36346,0.75367 -2.06906,0.87337c-0.13674,2.06373 -1.28367,4.20247 -2.23122,5.79433c-0.27009,0.45376 -2.11506,3.58187 -2.34882,3.74809c-0.94426,0.67141 -2.1087,1.08282 -3.26684,1.20385c-0.26756,0.02796 -0.53229,-0.0008 -0.79587,-0.05824c0.31561,0.34877 0.59871,0.71509 0.76184,1.14915c0.28649,0.76233 0.02103,1.6233 -0.05218,2.42874c-0.28502,3.13593 -1.71623,7.96576 -5.27009,8.94208c-0.72413,0.19893 -1.50814,-0.06511 -2.26116,-0.12069c-0.9555,-0.07054 -4.14775,-0.3084 -5.1246,-0.70071c-0.75287,-0.30235 -1.52416,-0.73191 -2.29284,-1.21111c-0.76562,1.29596 -1.72935,2.78554 -2.7039,3.43734c-4.14631,2.77315 -9.6535,0.35428 -13.36502,-2.06651c-0.96578,-0.62992 -2.24344,-0.96592 -2.86508,-1.93942c-0.68195,-1.06791 -0.52652,-2.47071 -0.74499,-3.71381c-0.47983,-2.73023 -0.86262,-4.1421 -0.01819,-6.77095l0.73428,-1.29017c0,0 0.83091,-1.38967 2.22938,-0.53059c1.39846,0.85908 0.56757,2.24876 0.56757,2.24876l-0.46269,0.71175c-0.79427,1.95657 -0.09263,2.98903 0.16716,5.20423c0.09177,0.78254 -0.19959,1.68051 0.21872,2.35264c0.36499,0.58645 1.23523,0.61021 1.83564,0.94824c2.56,1.44132 6.85697,4.2311 9.82683,2.14381c0.48277,-0.3393 1.25339,-1.54469 1.84871,-2.5489c-0.32725,-0.21744 -0.64889,-0.42612 -0.96307,-0.61913l-1.0073,-0.61879c0,0 -1.39847,-0.85909 -0.56757,-2.24876c0.8309,-1.38967 2.22938,-0.53059 2.22938,-0.53059l1.00729,0.61879c0.67339,0.41366 1.35371,0.85371 2.0452,1.28686c0.09846,0.04067 0.20021,0.09251 0.30517,0.15697c0.1101,0.06764 0.2064,0.13856 0.29036,0.21184c2.5273,1.54382 5.21661,2.87281 8.26805,2.40871c0.76134,-0.1158 1.23882,-1.47035 1.46987,-1.85934c0.76417,-1.28652 1.15867,-2.80037 1.36636,-4.29183c0.04989,-0.35828 0.35565,-0.73524 0.20072,-1.06554c-0.28124,-0.59958 -0.96308,-0.91691 -1.37444,-1.4367c-0.54676,-0.6909 -1.0212,-1.25904 -1.52667,-1.76938c-1.00001,-0.27324 -1.95818,-0.68913 -3.17417,-1.42994l-1.34307,-0.82506c0,0 -1.39847,-0.85908 -0.56757,-2.24875c0.8309,-1.38967 2.22937,-0.53059 2.22937,-0.53059l0.44924,0.27596c0.77104,-0.43876 1.62859,0.08804 1.62859,0.08804c0.91311,0.56422 1.68648,1.11753 2.3873,1.72536c0.55579,0.08847 1.19014,0.14791 2.05205,0.26317c1.38241,0.18487 2.28152,1.14073 3.53902,0.0779c0.85162,-0.71977 1.06553,-1.96702 1.64109,-2.92496c0.34465,-0.57362 1.71281,-2.72574 1.8869,-4.20431c-0.53573,-0.08758 -1.07092,-0.18606 -1.60176,-0.26093c0,0 -1.6127,-0.2422 -1.39986,-1.85792c0.03895,-0.29561 0.12475,-0.52903 0.23895,-0.71312c-0.03206,-0.23598 -0.00827,-0.50879 0.10222,-0.82175c0.5405,-1.53117 2.07477,-0.9613 2.07477,-0.9613c0.81916,0.35453 1.84015,0.41396 2.45749,1.06362c0.14939,0.1572 0.28388,0.31831 0.40442,0.48291c0.40761,-0.03552 0.75793,-0.13323 0.98598,-0.32772c0.63094,-0.53813 0.76351,-1.47843 1.17155,-2.20282c1.05828,-1.87872 3.0829,-4.00098 3.09133,-6.31652c0.00367,-1.00488 -0.45826,-1.96859 -0.58085,-2.96814c-0.04643,-0.37852 -0.17883,-4.90097 -0.46881,-5.6202c-0.15054,-0.37338 -2.33515,-1.63797 -2.45871,-1.70419c-2.45287,-1.31471 -3.58776,-0.56199 -5.82154,0.8527l-0.07927,0.47018c0,0 -0.83091,1.38966 -2.22938,0.53059c-1.39846,-0.85908 -0.56756,-2.24875 -0.56756,-2.24875l1.11771,-1.53174c1.24375,-0.77432 2.42149,-1.35069 3.57701,-1.67139c0.19408,-0.48533 0.48338,-0.9443 0.55719,-1.46293c0.4155,-2.91969 -2.9843,-4.35025 -4.71337,-5.90904c-1.97912,-1.78422 -3.2024,-2.81025 -5.40214,-4.19865c-0.55214,-0.3485 -1.41689,-1.21328 -2.24946,-0.97538c-1.67078,0.4774 -2.4711,2.07286 -3.27758,3.43549l-0.59847,1.00096c0,0 -0.83091,1.38967 -2.22938,0.53059c-1.39847,-0.85907 -0.56757,-2.24876 -0.56757,-2.24876l0.59849,-1.00095c1.06861,-1.77193 2.19159,-3.55568 4.05799,-4.46377c0.1949,-0.44348 0.54987,-0.71055 0.54987,-0.71055c0.42459,-0.27434 1.04663,-0.36964 1.27376,-0.82301c0.53454,-1.067 0.92009,-4.626 -0.24635,-5.57119c-0.99281,-0.80447 -3.43531,-2.53695 -4.66975,-2.88675c-0.93948,-0.26622 -2.16928,0.15902 -3.05432,0.37336c-2.41739,0.58545 -5.2303,1.14818 -6.81311,3.05543l-0.20889,0.41144c0,0 -0.8309,1.38967 -2.22937,0.53059c-1.39846,-0.85908 -0.56757,-2.24874 -0.56757,-2.24874l0.5891,-0.92316c0.56689,-0.58674 1.01358,-1.32058 1.70067,-1.76022c0.52106,-0.33342 1.22891,-0.23454 1.79806,-0.4785c0.22522,-0.09653 0.45536,-0.19653 0.68988,-0.29836c-3.0151,-2.99529 -3.44227,-7.614 -6.32782,-10.70043c-0.45103,-0.48242 -1.14261,-0.65629 -1.7077,-0.99524c-0.83934,-0.50347 -2.27916,-1.52888 -3.27577,-1.70933c-2.08106,-0.37678 -4.54063,1.15947 -6.30575,1.88788c-1.19545,0.49331 -2.65703,0.3798 -3.7215,1.11141c-1.0848,0.74559 -1.71947,2.50181 -2.47881,3.56352l0.99196,0.54594c0,0 1.20835,1.11494 0.11933,2.30913c-0.76376,0.8375 -1.58619,0.53929 -2.00935,0.28642c-0.69228,0.71029 -1.73025,0.28654 -1.73025,0.28654c-0.42876,-0.27071 -0.8169,-0.9839 -1.2863,-0.81211c-0.72323,0.2647 -0.92636,1.23151 -1.43545,1.80827c-0.68893,0.78048 -1.47973,1.46707 -2.15509,2.25948c-1.95363,2.29226 -4.62281,5.68362 -5.44665,8.67894c-0.23084,0.8393 0.9238,1.49949 1.3982,2.2414c0.19972,0.31233 0.12695,0.82806 0.4441,1.01847c0.33063,0.1985 0.76431,-0.11937 1.14364,-0.06524c0.98782,0.14101 1.95942,0.38342 2.93409,0.60841c0.08544,-0.01869 0.16966,-0.03967 0.25199,-0.06411c0,0 0.9461,-0.22517 1.55901,0.41269l0.50265,0.04166c0,0 1.62243,0.14691 1.50465,1.77406c-0.11776,1.62714 -1.74019,1.48024 -1.74019,1.48024l-1.00536,-0.09669c-0.3082,-0.0541 -0.61562,-0.11267 -0.92252,-0.17419c-2.39121,1.21015 -0.95055,6.0053 -0.42129,8.10222c0.04895,0.19393 0.58352,2.51829 0.80749,2.77425c0.92626,1.05854 2.43372,1.39753 3.62961,2.13217l0.67153,0.41253c0,0 1.39847,0.85907 0.56757,2.24874c-0.8309,1.38967 -2.22938,0.53059 -2.22938,0.53059z"/><path d="M260.16798,197.83091l0.43281,-0.36268c0,0 1.29086,-0.97122 2.28071,0.34253c0.98986,1.31375 -0.301,2.28495 -0.301,2.28495l-1.22707,0.74258c0.12518,1.67526 0.2014,5.21004 1.30749,6.37885c0.36383,0.38447 3.56271,1.77301 3.71008,1.81183c0.71664,0.18874 1.47142,0.14131 2.20856,0.18545c0.39214,0.02349 0.87216,0.25962 1.17746,0.01732c0.7112,-0.56444 0.94235,-1.58024 1.59177,-2.21507c0.75808,-0.74105 1.71878,-1.24079 2.57816,-1.86119c0,0 1.31461,-0.93889 2.27269,0.39815c0.95809,1.33704 -0.35652,2.27593 -0.35652,2.27593c-0.74313,0.52413 -1.57053,0.94543 -2.22938,1.57238c-0.85355,0.81223 -1.26972,2.09082 -2.27172,2.71086c-1.00595,0.62248 -4.7779,0.3262 -5.72326,0.08136c-1.09403,-0.28334 -4.60355,-1.95506 -5.41884,-2.88367c-1.73582,-1.9771 -1.99739,-5.81406 -1.83346,-8.6556l-1.17979,-0.10776c-3.79528,-0.66488 -7.50439,-0.74158 -10.53604,-3.61915c-0.46546,-0.4418 -0.64559,-1.11638 -1.05387,-1.61183c-0.52235,-0.63388 -1.41113,-1.0014 -1.72433,-1.75955c-0.35211,-0.85234 -0.02443,-1.83818 -0.13867,-2.75003c-0.08728,-0.69661 -0.19451,-1.39326 -0.28031,-2.09095c-1.53147,-0.38907 -2.9546,-1.05448 -4.28235,-2.313c-0.45942,-0.43545 -0.61553,-1.11882 -1.03675,-1.59159c-0.58987,-0.66208 -1.5269,-1.01744 -1.97118,-1.78456c-1.85745,-3.20715 1.49784,-6.67217 3.09655,-9.21702c0.68424,-1.08918 1.10209,-2.42155 2.08623,-3.24573c0.10966,-0.09183 0.22792,-0.16766 0.35283,-0.23114c-0.08305,-0.91632 0.47294,-1.8358 0.80687,-2.70412c0.8561,-2.22608 3.29801,-5.85809 5.42835,-6.76996c0.84754,-0.36278 1.84674,0.20322 2.77007,0.30542c1.67543,0.18546 3.27981,0.96315 4.73825,1.83154c0,0 1.39846,0.85908 0.56756,2.24875c-0.8309,1.38967 -2.22937,0.53059 -2.22937,0.53059c-1.0444,-0.66803 -2.234,-1.15248 -3.44661,-1.37161c-0.47419,-0.08569 -0.95023,-0.61884 -1.38558,-0.42259c-0.85494,0.38541 -2.13226,2.81741 -2.57317,3.55665c-0.30465,0.5108 -0.60135,1.02677 -0.92242,1.52715c-0.16377,0.25524 -0.60853,0.45063 -0.57012,0.73276c0.27705,0.06277 0.5753,0.20193 0.81062,0.48906c0.0707,0.02847 0.13653,0.06214 0.1926,0.10551c0.53045,0.41017 0.98623,0.90999 1.47934,1.36497l1.08495,0.62958c0,0 1.39847,0.85907 0.56757,2.24874c-0.8309,1.38967 -2.22938,0.53059 -2.22938,0.53059l-1.6012,-1.02051c-0.22713,-0.20957 -0.71401,-0.64807 -1.2524,-1.15164c-0.24275,0.01391 -0.46796,0.06382 -0.64068,0.22127c-1.09027,0.99397 -1.41024,2.60202 -2.16902,3.87107c-0.75879,1.26906 -1.85118,2.3564 -2.38193,3.74029c-0.30903,0.80579 1.24705,1.2272 1.83656,1.87321c0.36691,0.40206 0.46303,1.01192 0.8514,1.39312c0.72968,0.71617 1.52162,1.1332 2.36019,1.39179c0.23992,-0.23262 0.59751,-0.40322 1.13049,-0.39612c0.80927,0.01079 1.21766,0.42054 1.42376,0.82961c0.30179,0.02765 0.60702,0.05289 0.91513,0.08079l0.55142,-0.21774c0,0 1.57641,-0.37518 1.97773,1.21492c0.40133,1.5901 -1.17507,1.96528 -1.17507,1.96528l-1.58962,0.29182c-0.07129,-0.00645 -0.14238,-0.01298 -0.21327,-0.01961c0.05929,0.40521 0.11498,0.8107 0.14918,1.21726c0.05122,0.60876 -0.34642,1.25437 -0.11903,1.82406c0.19393,0.48588 0.88763,0.57764 1.23434,0.97039c0.35446,0.40153 0.45183,0.99811 0.83427,1.37289c2.35511,2.30788 5.66798,2.16836 8.64625,2.69011l1.67473,0.15023c0,0 0.50923,0.04611 0.93639,0.37277z"/></g><g data-paper-data="{&quot;index&quot;:null}" fill="#aa0000"><path d="M248.04459,170.1837c1.44186,0.58232 3.91566,1.37278 4.94415,2.68313c0.78866,1.00479 1.30032,2.24061 1.59867,3.47847c0.60424,2.50701 -0.15347,3.08179 -0.6193,5.23055c-0.6529,3.01161 -0.94772,6.47846 -3.38115,8.73786c-1.5136,1.40537 -3.24678,2.11135 -5.11223,2.14201c0.09935,0.64954 0.05381,1.4572 0.08816,2.64833c0.02418,0.83829 0.24298,1.71807 -0.00342,2.51459c-1.50743,4.87273 -5.52445,5.86859 -9.75502,6.63288c1.42783,0.96793 2.84309,2.34643 3.18765,3.7116c0.82861,3.28302 -2.24035,7.31147 -5.17797,8.1802c-0.17392,0.05143 -3.824,-0.28948 -4.6091,-0.36057c-1.04386,-0.17031 -2.61971,-0.31423 -3.83213,-0.8243c-0.03122,0.16954 -0.07626,0.3367 -0.13805,0.50097c-1.8497,4.91645 -9.9207,4.43052 -13.28194,1.68892c-0.54455,-0.44415 -0.78778,-1.17131 -1.25978,-1.69267c-0.52753,-0.58271 -1.29773,-0.94638 -1.72602,-1.60544c-0.35619,-0.5481 -0.23844,-1.30043 -0.53925,-1.8804c-0.39688,-0.76522 -1.32683,-1.2556 -1.52156,-2.093c-0.01306,-0.05612 -0.02346,-0.11229 -0.03146,-0.16851c-0.78796,0.34423 -1.59438,0.23374 -2.17373,0.05671c-0.28257,0.77374 -1.11463,1.97382 -1.47734,2.19096c-1.75851,1.0527 -6.15841,1.27625 -8.15555,0.45822c-1.23754,-0.50689 -2.75127,-0.91632 -3.45106,-2.06262c-0.06052,-0.09913 -0.69197,-5.60217 -0.80596,-6.77784c-0.07039,-0.72598 0.33035,-1.66154 -0.18824,-2.17964c-0.34626,-0.34592 -0.93788,-0.26256 -1.41469,-0.35538c-1.17836,-0.22938 -2.29741,-0.72593 -3.47149,-0.97833c-0.71739,-0.15421 -1.4897,0.09053 -2.19152,-0.12754c-1.04582,-0.32495 -3.5972,-2.18251 -4.45028,-2.76956c-1.09546,-2.1001 -4.37517,-6.36842 -3.31189,-8.98831c-0.20799,-0.08843 -0.39959,-0.26011 -0.59567,-0.37618c-1.37881,-0.81608 -3.4791,-0.68023 -4.35018,-2.02933c-2.14187,-3.31717 -0.74554,-8.0779 1.60871,-10.54295c1.06299,-1.11303 2.27273,-1.12029 2.88345,-2.64992c0.37882,-0.94885 0.72029,-1.92431 0.90427,-2.9328c0.18265,-1.00122 -0.28031,-2.24126 0.3419,-3.03785c2.52396,-3.23129 6.56735,-2.27097 9.95959,-1.5827c0.03421,-0.49221 0.18066,-0.98209 0.44909,-1.43103l0.44362,-0.74194c-0.13664,-0.54981 -0.22606,-1.1079 -0.28005,-1.67108l-0.24019,0.11129l-0.73847,-1.56128c-0.47522,-0.96857 -0.47054,-2.1437 0.11543,-3.12373c0.15983,-0.2673 0.35235,-0.50246 0.5695,-0.70356c-1.48515,-0.11999 -3.08034,-0.39066 -3.47072,-0.70097c-2.37151,-1.8851 -3.3062,-5.33143 -2.03991,-8.08232c0.60729,-1.31928 2.49631,-1.48712 3.61138,-2.40922c0.69433,-0.57416 0.80372,-1.62157 1.26841,-2.39584c1.66193,-2.76915 3.27402,-5.0439 6.69944,-5.37034c0.76738,-1.34261 1.42709,-2.67645 2.70628,-3.66404c0.59311,-0.45791 1.43341,-0.49664 2.05748,-0.91155c0.62719,-0.41697 0.98056,-1.19325 1.6444,-1.54964c0.39018,-0.20948 0.81242,-0.37744 1.25547,-0.5127c0.39729,-0.57822 0.82556,-1.12932 1.28966,-1.64733c0.83526,-0.93233 1.67313,-2.00881 2.84803,-2.44469c1.94263,-0.72072 4.58983,0.24643 6.23988,1.27052c1.40063,0.8693 2.58053,2.101 3.54735,3.52904c2.89047,1.24637 5.18145,3.48899 5.99806,7.23797c0.10924,0.50149 0.15493,1.90008 0.12661,3.174c0.45113,-0.03618 0.93411,0.01216 1.34518,-0.15637c0.89937,-0.36872 1.51411,-1.45339 2.48856,-1.51407c4.72754,-0.29441 9.55265,5.90289 9.76071,10.22778c0.09276,1.92815 -0.28409,3.33457 -0.9986,4.64922c-0.149,0.45511 -0.31406,0.90664 -0.4832,1.35304c3.82958,-0.6828 8.42256,2.05129 10.35293,5.44375c2.32658,1.18087 3.9217,3.31138 3.49599,6.64121c-0.11094,0.86778 -0.8465,1.49359 -1.40241,2.1905c0.92138,-0.13011 1.91525,0.00633 2.84958,-0.07616zM220.16887,193.31601c-0.12856,-0.00796 -0.25726,-0.02363 -0.38539,-0.04716c0.11998,0.08317 0.22178,0.12352 0.3,0.09068c0.02544,-0.01067 0.05399,-0.02529 0.08537,-0.0435z"/><path d="M192.6052,174.48755l-0.67154,-0.41252c-0.15921,-0.09781 -4.20039,-2.54431 -4.42879,-2.81813c-0.79013,-0.94722 -1.1934,-2.90527 -1.49929,-4.11726c-0.7874,-3.11975 -1.65772,-6.76299 -0.1423,-9.63755c-0.73383,-0.10265 -1.54552,0.03683 -2.17337,-0.35252c-0.68958,-0.42764 -0.963,-1.3106 -1.44404,-1.96625c-0.95889,-1.30695 -2.24954,-2.53929 -1.9791,-4.3953c0.18191,-1.2484 0.88968,-2.3544 1.43413,-3.48538c1.66793,-3.46476 4.3099,-6.82237 7.06994,-9.44145c0.99486,-0.94405 1.77346,-2.34194 3.09955,-2.70513c0.56962,-0.15601 1.13795,0.0529 1.70604,0.32962c0.64507,-2.34127 1.50725,-4.61497 3.63705,-6.10095c1.19512,-0.83385 2.82364,-0.7799 4.17118,-1.33935c2.39538,-0.99451 5.24615,-2.56589 8.0101,-2.09159c1.61039,0.27634 3.1466,1.30788 4.51008,2.16115c0.77785,0.48677 1.69112,0.81059 2.32149,1.47989c2.87911,3.05702 3.27044,8.01819 6.36025,10.73327c0,0 0.49307,0.45495 0.56542,1.09489c1.97851,-0.70107 4.08592,-1.14887 6.07702,-0.63201c0.77379,0.20086 1.39255,0.79916 2.08228,1.2102c0.4928,0.2937 3.85871,2.3708 3.9925,2.50342c2.25732,2.23757 2.11145,6.88716 0.81642,9.52469c1.03257,0.52821 1.99788,1.27354 2.95297,1.8641c1.55516,0.96163 2.84762,2.30454 4.20863,3.53008c2.8597,2.57509 6.26369,4.26411 5.79789,8.75971c-0.03274,0.31604 -0.12005,0.61932 -0.2288,0.91755c1.2285,0.28627 2.48305,0.92843 3.81615,1.99569c0.70833,0.56708 1.55723,1.08726 1.94382,1.90822c0.84455,1.79352 0.61787,4.88322 0.84101,6.80031c0.1359,1.16764 0.64437,2.30638 0.60145,3.47803c-0.10839,2.95971 -2.05862,5.48043 -3.54547,7.85465c-0.66005,1.05396 -1.01888,2.40274 -2.0204,3.13562c-0.67064,0.49076 -1.36346,0.75367 -2.06906,0.87337c-0.13674,2.06373 -1.28367,4.20247 -2.23122,5.79433c-0.27009,0.45376 -2.11506,3.58187 -2.34882,3.74809c-0.94426,0.67141 -2.1087,1.08282 -3.26684,1.20385c-0.26756,0.02796 -0.53229,-0.0008 -0.79587,-0.05824c0.31561,0.34877 0.59871,0.71509 0.76184,1.14915c0.28649,0.76233 0.02103,1.6233 -0.05218,2.42874c-0.28502,3.13593 -1.71623,7.96576 -5.27009,8.94208c-0.72413,0.19893 -1.50814,-0.06511 -2.26116,-0.12069c-0.9555,-0.07054 -4.14775,-0.3084 -5.1246,-0.70071c-0.75287,-0.30235 -1.52416,-0.73191 -2.29284,-1.21111c-0.76562,1.29596 -1.72935,2.78554 -2.7039,3.43734c-4.14631,2.77315 -9.6535,0.35428 -13.36502,-2.06651c-0.96578,-0.62992 -2.24344,-0.96592 -2.86508,-1.93942c-0.68195,-1.06791 -0.52652,-2.47071 -0.74499,-3.71381c-0.47983,-2.73023 -0.86262,-4.1421 -0.01819,-6.77095l0.73428,-1.29017c0,0 0.83091,-1.38967 2.22938,-0.53059c1.39846,0.85908 0.56757,2.24876 0.56757,2.24876l-0.46269,0.71175c-0.79427,1.95657 -0.09263,2.98903 0.16716,5.20423c0.09177,0.78254 -0.19959,1.68051 0.21872,2.35264c0.36499,0.58645 1.23523,0.61021 1.83564,0.94824c2.56,1.44132 6.85697,4.2311 9.82683,2.14381c0.48277,-0.3393 1.25339,-1.54469 1.84871,-2.5489c-0.32725,-0.21744 -0.64889,-0.42612 -0.96307,-0.61913l-1.0073,-0.61879c0,0 -1.39847,-0.85909 -0.56757,-2.24876c0.8309,-1.38967 2.22938,-0.53059 2.22938,-0.53059l1.00729,0.61879c0.67339,0.41366 1.35371,0.85371 2.0452,1.28686c0.09846,0.04067 0.20021,0.09251 0.30517,0.15697c0.1101,0.06764 0.2064,0.13856 0.29036,0.21184c2.5273,1.54382 5.21661,2.87281 8.26805,2.40871c0.76134,-0.1158 1.23882,-1.47035 1.46987,-1.85934c0.76417,-1.28652 1.15867,-2.80037 1.36636,-4.29183c0.04989,-0.35828 0.35565,-0.73524 0.20072,-1.06554c-0.28124,-0.59958 -0.96308,-0.91691 -1.37444,-1.4367c-0.54676,-0.6909 -1.0212,-1.25904 -1.52667,-1.76938c-1.00001,-0.27324 -1.95818,-0.68913 -3.17417,-1.42994l-1.34307,-0.82506c0,0 -1.39847,-0.85908 -0.56757,-2.24875c0.8309,-1.38967 2.22937,-0.53059 2.22937,-0.53059l0.44924,0.27596c0.77104,-0.43876 1.62859,0.08804 1.62859,0.08804c0.91311,0.56422 1.68648,1.11753 2.3873,1.72536c0.55579,0.08847 1.19014,0.14791 2.05205,0.26317c1.38241,0.18487 2.28152,1.14073 3.53902,0.0779c0.85162,-0.71977 1.06553,-1.96702 1.64109,-2.92496c0.34465,-0.57362 1.71281,-2.72574 1.8869,-4.20431c-0.53573,-0.08758 -1.07092,-0.18606 -1.60176,-0.26093c0,0 -1.6127,-0.2422 -1.39986,-1.85792c0.03895,-0.29561 0.12475,-0.52903 0.23895,-0.71312c-0.03206,-0.23598 -0.00827,-0.50879 0.10222,-0.82175c0.5405,-1.53117 2.07477,-0.9613 2.07477,-0.9613c0.81916,0.35453 1.84015,0.41396 2.45749,1.06362c0.14939,0.1572 0.28388,0.31831 0.40442,0.48291c0.40761,-0.03552 0.75793,-0.13323 0.98598,-0.32772c0.63094,-0.53813 0.76351,-1.47843 1.17155,-2.20282c1.05828,-1.87872 3.0829,-4.00098 3.09133,-6.31652c0.00367,-1.00488 -0.45826,-1.96859 -0.58085,-2.96814c-0.04643,-0.37852 -0.17883,-4.90097 -0.46881,-5.6202c-0.15054,-0.37338 -2.33515,-1.63797 -2.45871,-1.70419c-2.45287,-1.31471 -3.58776,-0.56199 -5.82154,0.8527l-0.07927,0.47018c0,0 -0.83091,1.38966 -2.22938,0.53059c-1.39846,-0.85908 -0.56756,-2.24875 -0.56756,-2.24875l1.11771,-1.53174c1.24375,-0.77432 2.42149,-1.35069 3.57701,-1.67139c0.19408,-0.48533 0.48338,-0.9443 0.55719,-1.46293c0.4155,-2.91969 -2.9843,-4.35025 -4.71337,-5.90904c-1.97912,-1.78422 -3.2024,-2.81025 -5.40214,-4.19865c-0.55214,-0.3485 -1.41689,-1.21328 -2.24946,-0.97538c-1.67078,0.4774 -2.4711,2.07286 -3.27758,3.43549l-0.59847,1.00096c0,0 -0.83091,1.38967 -2.22938,0.53059c-1.39847,-0.85907 -0.56757,-2.24876 -0.56757,-2.24876l0.59849,-1.00095c1.06861,-1.77193 2.19159,-3.55568 4.05799,-4.46377c0.1949,-0.44348 0.54987,-0.71055 0.54987,-0.71055c0.42459,-0.27434 1.04663,-0.36964 1.27376,-0.82301c0.53454,-1.067 0.92009,-4.626 -0.24635,-5.57119c-0.99281,-0.80447 -3.43531,-2.53695 -4.66975,-2.88675c-0.93948,-0.26622 -2.16928,0.15902 -3.05432,0.37336c-2.41739,0.58545 -5.2303,1.14818 -6.81311,3.05543l-0.20889,0.41144c0,0 -0.8309,1.38967 -2.22937,0.53059c-1.39846,-0.85908 -0.56757,-2.24874 -0.56757,-2.24874l0.5891,-0.92316c0.56689,-0.58674 1.01358,-1.32058 1.70067,-1.76022c0.52106,-0.33342 1.22891,-0.23454 1.79806,-0.4785c0.22522,-0.09653 0.45536,-0.19653 0.68988,-0.29836c-3.0151,-2.99529 -3.44227,-7.614 -6.32782,-10.70043c-0.45103,-0.48242 -1.14261,-0.65629 -1.7077,-0.99524c-0.83934,-0.50347 -2.27916,-1.52888 -3.27577,-1.70933c-2.08106,-0.37678 -4.54063,1.15947 -6.30575,1.88788c-1.19545,0.49331 -2.65703,0.3798 -3.7215,1.11141c-1.0848,0.74559 -1.71947,2.50181 -2.47881,3.56352l0.99196,0.54594c0,0 1.20835,1.11494 0.11933,2.30913c-0.76376,0.8375 -1.58619,0.53929 -2.00935,0.28642c-0.69228,0.71029 -1.73025,0.28654 -1.73025,0.28654c-0.42876,-0.27071 -0.8169,-0.9839 -1.2863,-0.81211c-0.72323,0.2647 -0.92636,1.23151 -1.43545,1.80827c-0.68893,0.78048 -1.47973,1.46707 -2.15509,2.25948c-1.95363,2.29226 -4.62281,5.68362 -5.44665,8.67894c-0.23084,0.8393 0.9238,1.49949 1.3982,2.2414c0.19972,0.31233 0.12695,0.82806 0.4441,1.01847c0.33063,0.1985 0.76431,-0.11937 1.14364,-0.06524c0.98782,0.14101 1.95942,0.38342 2.93409,0.60841c0.08544,-0.01869 0.16966,-0.03967 0.25199,-0.06411c0,0 0.9461,-0.22517 1.55901,0.41269l0.50265,0.04166c0,0 1.62243,0.14691 1.50465,1.77406c-0.11776,1.62714 -1.74019,1.48024 -1.74019,1.48024l-1.00536,-0.09669c-0.3082,-0.0541 -0.61562,-0.11267 -0.92252,-0.17419c-2.39121,1.21015 -0.95055,6.0053 -0.42129,8.10222c0.04895,0.19393 0.58352,2.51829 0.80749,2.77425c0.92626,1.05854 2.43372,1.39753 3.62961,2.13217l0.67153,0.41253c0,0 1.39847,0.85907 0.56757,2.24874c-0.8309,1.38967 -2.22938,0.53059 -2.22938,0.53059z"/><path d="M192.46702,199.79768l0.43281,-0.36268c0,0 1.29086,-0.97122 2.28071,0.34253c0.98986,1.31375 -0.301,2.28495 -0.301,2.28495l-1.22707,0.74258c0.12518,1.67526 0.2014,5.21004 1.30749,6.37885c0.36383,0.38447 3.56271,1.77301 3.71008,1.81183c0.71664,0.18874 1.47142,0.14131 2.20856,0.18545c0.39214,0.02349 0.87216,0.25962 1.17746,0.01732c0.7112,-0.56444 0.94235,-1.58024 1.59177,-2.21507c0.75808,-0.74105 1.71878,-1.24079 2.57816,-1.86119c0,0 1.31461,-0.93889 2.27269,0.39815c0.95809,1.33704 -0.35652,2.27593 -0.35652,2.27593c-0.74313,0.52413 -1.57053,0.94543 -2.22938,1.57238c-0.85355,0.81223 -1.26972,2.09082 -2.27172,2.71086c-1.00595,0.62248 -4.7779,0.3262 -5.72326,0.08136c-1.09403,-0.28334 -4.60355,-1.95506 -5.41884,-2.88367c-1.73582,-1.9771 -1.99739,-5.81406 -1.83346,-8.6556l-1.17979,-0.10776c-3.79528,-0.66488 -7.50439,-0.74158 -10.53604,-3.61915c-0.46546,-0.4418 -0.64559,-1.11638 -1.05387,-1.61183c-0.52235,-0.63388 -1.41113,-1.0014 -1.72433,-1.75955c-0.35211,-0.85234 -0.02443,-1.83818 -0.13867,-2.75003c-0.08728,-0.69661 -0.19451,-1.39326 -0.28031,-2.09095c-1.53147,-0.38907 -2.9546,-1.05448 -4.28235,-2.313c-0.45942,-0.43545 -0.61553,-1.11882 -1.03675,-1.59159c-0.58987,-0.66208 -1.5269,-1.01744 -1.97118,-1.78456c-1.85745,-3.20715 1.49784,-6.67217 3.09655,-9.21702c0.68424,-1.08918 1.10209,-2.42155 2.08623,-3.24573c0.10966,-0.09183 0.22792,-0.16766 0.35283,-0.23114c-0.08305,-0.91632 0.47294,-1.8358 0.80687,-2.70412c0.8561,-2.22608 3.29801,-5.85809 5.42835,-6.76996c0.84754,-0.36278 1.84674,0.20322 2.77007,0.30542c1.67543,0.18546 3.27981,0.96315 4.73825,1.83154c0,0 1.39846,0.85908 0.56756,2.24875c-0.8309,1.38967 -2.22937,0.53059 -2.22937,0.53059c-1.0444,-0.66803 -2.234,-1.15248 -3.44661,-1.37161c-0.47419,-0.08569 -0.95023,-0.61884 -1.38558,-0.42259c-0.85494,0.38541 -2.13226,2.81741 -2.57317,3.55665c-0.30465,0.5108 -0.60135,1.02677 -0.92242,1.52715c-0.16377,0.25524 -0.60853,0.45063 -0.57012,0.73276c0.27705,0.06277 0.5753,0.20193 0.81062,0.48906c0.0707,0.02847 0.13653,0.06214 0.1926,0.10551c0.53045,0.41017 0.98623,0.90999 1.47934,1.36497l1.08495,0.62958c0,0 1.39847,0.85907 0.56757,2.24874c-0.8309,1.38967 -2.22938,0.53059 -2.22938,0.53059l-1.6012,-1.02051c-0.22713,-0.20957 -0.71401,-0.64807 -1.2524,-1.15164c-0.24275,0.01391 -0.46796,0.06382 -0.64068,0.22127c-1.09027,0.99397 -1.41024,2.60202 -2.16902,3.87107c-0.75879,1.26906 -1.85118,2.3564 -2.38193,3.74029c-0.30903,0.80579 1.24705,1.2272 1.83656,1.87321c0.36691,0.40206 0.46303,1.01192 0.8514,1.39312c0.72968,0.71617 1.52162,1.1332 2.36019,1.39179c0.23992,-0.23262 0.59751,-0.40322 1.13049,-0.39612c0.80927,0.01079 1.21766,0.42054 1.42376,0.82961c0.30179,0.02765 0.60702,0.05289 0.91513,0.08079l0.55142,-0.21774c0,0 1.57641,-0.37518 1.97773,1.21492c0.40133,1.5901 -1.17507,1.96528 -1.17507,1.96528l-1.58962,0.29182c-0.07129,-0.00645 -0.14238,-0.01298 -0.21327,-0.01961c0.05929,0.40521 0.11498,0.8107 0.14918,1.21726c0.05122,0.60876 -0.34642,1.25437 -0.11903,1.82406c0.19393,0.48588 0.88763,0.57764 1.23434,0.97039c0.35446,0.40153 0.45183,0.99811 0.83427,1.37289c2.35511,2.30788 5.66798,2.16836 8.64625,2.69011l1.67473,0.15023c0,0 0.50923,0.04611 0.93639,0.37277z"/></g><g><g data-paper-data="{&quot;index&quot;:null}" fill="#de0000"><path d="M283.57329,139.12525c2.60599,-0.44452 6.8955,-1.51283 9.53342,-0.51873c2.0228,0.76229 3.84343,2.11234 5.35528,3.65736c3.06194,3.1291 2.45919,4.65313 3.65143,8.22041c1.67099,4.99977 4.25955,10.34423 2.68363,15.84444c-0.98023,3.42115 -2.88891,6.01529 -5.57802,7.7391c0.71004,0.86219 1.34677,2.08647 2.43362,3.80061c0.76491,1.20638 1.84927,2.29839 2.18388,3.68709c2.047,8.49548 -2.93426,13.56973 -8.42798,18.49692c2.92124,0.13304 6.18156,0.87892 7.87152,2.56888c4.06406,4.06406 3.1028,12.728 -0.41767,16.64456c-0.20844,0.23189 -5.81908,3.01745 -7.02394,3.61988c-1.66793,0.68993 -4.08738,1.89734 -6.29648,2.24121c0.10213,0.27649 0.18209,0.56192 0.2351,0.8582c1.58675,8.86757 -10.58627,15.41945 -17.86613,14.42794c-1.1794,-0.16063 -2.16647,-1.00703 -3.30745,-1.34607c-1.27523,-0.37893 -2.71308,-0.21856 -3.91028,-0.79866c-0.99565,-0.48244 -1.47911,-1.6906 -2.42189,-2.26958c-1.2439,-0.7639 -3.02461,-0.64539 -4.03703,-1.69698c-0.06784,-0.07047 -0.13188,-0.1434 -0.19248,-0.21856c-0.84748,1.21347 -2.1177,1.77737 -3.11523,2.03941c0.26213,1.38788 0.09545,3.89492 -0.24358,4.53946c-1.64374,3.12489 -7.85466,7.41224 -11.47425,8.0112c-2.24288,0.37115 -4.80303,1.13363 -6.81962,0.08405c-0.1744,-0.09077 -5.88389,-7.58472 -7.07321,-9.20456c-0.73441,-1.00025 -0.96538,-2.73157 -2.17137,-3.02388c-0.8052,-0.19517 -1.59396,0.45941 -2.36889,0.75254c-1.91517,0.72446 -3.97654,1.00411 -5.90551,1.69099c-1.17863,0.4197 -2.08995,1.47335 -3.30151,1.78549c-1.80538,0.46513 -7.13673,0.03992 -8.88967,-0.05238c-3.42288,-2.09086 -11.91301,-5.3925 -12.64558,-10.18772c-0.37976,0.05763 -0.80816,-0.02146 -1.19465,-0.01502c-2.71769,0.04531 -5.65711,2.13455 -8.09961,0.94203c-6.00569,-2.93218 -8.11689,-11.1636 -6.83527,-16.89383c0.57868,-2.58734 2.33354,-3.68671 1.89115,-6.47734c-0.27442,-1.73104 -0.62641,-3.46747 -1.23643,-5.11055c-0.60562,-1.63124 -2.35903,-3.0313 -2.1466,-4.75833c0.86173,-7.00556 7.58416,-9.23762 13.12181,-11.28223c-0.37864,-0.7519 -0.59186,-1.60141 -0.59186,-2.50071v-1.48624c-0.67751,-0.68253 -1.29349,-1.41968 -1.86231,-2.19619l-0.25281,0.37922l-2.43414,-1.62276c-1.53496,-0.99131 -2.55104,-2.71715 -2.55104,-4.68032c0,-0.53545 0.07558,-1.05323 0.21667,-1.54328c-2.26659,1.16083 -4.82452,2.19992 -5.66296,2.09663c-5.09344,-0.62745 -9.45411,-4.83533 -10.00516,-10.00517c-0.26428,-2.47937 2.33969,-4.42534 3.1604,-6.77982c0.51103,-1.46607 -0.24142,-3.09903 -0.23889,-4.65161c0.00904,-5.55268 0.37587,-10.33615 5.07855,-13.89724c-0.05153,-2.65761 -0.25215,-5.2055 0.75047,-7.80364c0.46488,-1.20467 1.6545,-2.01765 2.20186,-3.18716c0.55011,-1.17535 0.38887,-2.63068 1.04507,-3.75027c0.3857,-0.65806 0.85419,-1.28413 1.38147,-1.88104c0.07506,-1.20468 0.21885,-2.39749 0.44358,-3.57409c0.40445,-2.11763 0.6872,-4.44881 2.01823,-6.14479c2.20079,-2.80424 6.89654,-3.76974 10.19017,-3.75441c2.79578,0.01302 5.58567,0.75563 8.23627,1.97766c5.29296,-0.77538 10.58037,0.44833 15.03258,5.20586c0.59556,0.63641 1.8795,2.64428 2.94717,4.53615c0.62528,-0.45903 1.37051,-0.82289 1.82224,-1.43974c0.98838,-1.34963 0.93916,-3.49198 2.30497,-4.45788c6.62623,-4.68605 19.04533,0.05081 23.11288,6.19976c1.81343,2.74138 2.48904,5.141 2.59319,7.71009c0.17924,0.80086 0.33198,1.61093 0.47433,2.41715c4.98086,-4.44692 14.04741,-4.57495 19.81074,-1.34212c4.41503,-0.36386 8.59177,1.32189 10.87052,6.58341c0.59386,1.37118 0.06776,2.95003 -0.1349,4.47134c1.22813,-1.01984 2.79377,-1.71443 4.08222,-2.67614zM263.1268,198.10315c-0.1941,0.10404 -0.39509,0.1969 -0.60211,0.27773c0.24707,0.01386 0.43038,-0.01863 0.51568,-0.13715c0.02774,-0.03854 0.05659,-0.08563 0.08642,-0.14058z"/><path d="M206.60919,195.32535h-1.33673c-0.31693,0 -8.3298,0.05274 -8.90066,-0.14285c-1.97482,-0.67661 -4.26633,-3.18234 -5.76665,-4.68267c-3.86195,-3.86195 -8.3003,-8.41624 -8.59631,-13.99148c-1.15769,0.51004 -2.21797,1.44491 -3.47093,1.43954c-1.37617,-0.0059 -2.54281,-1.0534 -3.81383,-1.58103c-2.53365,-1.05177 -5.48534,-1.69565 -6.70721,-4.65821c-0.82186,-1.99269 -0.7542,-4.25001 -0.94605,-6.39698c-0.58772,-6.57718 0.33584,-13.874 2.07418,-20.1951c0.62659,-2.27844 0.54329,-5.02717 2.15771,-6.75272c0.69347,-0.74121 1.70272,-0.94665 2.77064,-1.05251c-1.09886,-4.01065 -1.82287,-8.11771 -0.01575,-12.21154c1.01406,-2.29724 3.43189,-3.68383 4.90667,-5.71623c2.62158,-3.6128 5.40399,-8.48061 9.8407,-10.27327c2.58499,-1.04447 5.71939,-0.91578 8.44712,-0.89282c1.55614,0.01309 3.16759,-0.33445 4.6679,0.07881c6.85253,1.88753 11.74076,8.80376 18.60241,10.00071c0,0 1.11383,0.22277 1.7762,1.09519c2.27012,-2.80774 4.94836,-5.36041 8.29698,-6.39516c1.30134,-0.40212 2.72297,-0.08248 4.08489,-0.10101c0.97309,-0.01323 7.68134,0.00057 7.99157,0.07446c5.23401,1.2466 9.06896,8.18978 9.47949,13.21943c1.96304,-0.15545 4.01715,0.06773 5.92167,0.07338c3.10112,0.00921 6.15169,0.81345 9.19988,1.38406c6.40476,1.19895 12.83065,0.60993 16.06579,7.61544c0.22744,0.4925 0.36434,1.01538 0.46561,1.55019c2.03768,-0.68623 4.42306,-0.87451 7.29286,-0.51068c1.52485,0.19331 3.21349,0.19141 4.49091,1.04624c2.79071,1.8675 5.15021,6.59811 7.14381,9.20594c1.21424,1.58835 2.94572,2.79904 3.90313,4.5542c2.41852,4.43368 1.77352,9.88185 1.67559,14.69837c-0.04347,2.13813 0.6082,4.43713 -0.2119,6.4122c-0.54915,1.32254 -1.32893,2.33126 -2.25197,3.14164c1.59736,3.14654 1.7893,7.31213 1.7955,10.49708c0.00177,0.90787 0.03872,7.15117 -0.15692,7.60507c-0.79027,1.83348 -2.12734,3.48419 -3.70806,4.70382c-0.36519,0.28177 -0.77562,0.47787 -1.20936,0.63093c0.76307,0.22692 1.4941,0.50881 2.10943,0.99792c1.08066,0.85901 1.44363,2.35929 2.03816,3.60519c2.31479,4.85082 4.43538,13.21487 0.11142,17.84366c-0.88104,0.94315 -2.25227,1.26192 -3.39693,1.85818c-1.45245,0.75659 -6.30688,3.2811 -8.07051,3.58548c-1.35923,0.23459 -2.85601,0.29943 -4.39224,0.28918c0.01346,2.58771 -0.09292,5.63737 -0.94433,7.46936c-3.6224,7.79444 -13.74549,9.20704 -21.25605,9.00078c-1.95432,-0.05367 -4.10686,0.60393 -5.85929,-0.26281c-1.92239,-0.9508 -2.9172,-3.14588 -4.31732,-4.77047c-3.07512,-3.56811 -4.86139,-5.29205 -5.92036,-9.90343l-0.05406,-2.55103c0,0 0,-2.78374 2.78374,-2.78374c2.78374,0 2.78374,2.78374 2.78374,2.78374l-0.05405,1.45916c0.5468,3.5813 2.46701,4.46245 4.77347,7.47404c0.81478,1.06388 1.17227,2.64167 2.36632,3.24989c1.04185,0.5307 2.32946,-0.2177 3.49781,-0.26282c4.98156,-0.19236 13.66561,0.02761 16.17233,-5.70322c0.40748,-0.93159 0.48012,-3.39109 0.47267,-5.3981c-0.66568,-0.02405 -1.3156,-0.0403 -1.94099,-0.0403h-2.00509c0,0 -2.78374,0 -2.78374,-2.78374c0,-2.78374 2.78374,-2.78374 2.78374,-2.78374h2.00509c1.34041,0 2.7139,0.03241 4.09764,0.04468c0.17874,-0.02901 0.37199,-0.04468 0.58091,-0.04468c0.21917,0 0.42109,0.01725 0.60711,0.04905c5.02318,-0.01275 10.0952,-0.48607 14.13359,-3.91226c1.00758,-0.85484 0.52362,-3.26905 0.52139,-4.04687c-0.00737,-2.57257 -0.7508,-5.14549 -1.7467,-7.51748c-0.23923,-0.5698 -0.12222,-1.39725 -0.63529,-1.74172c-0.93135,-0.62531 -2.20023,-0.47658 -3.25157,-0.86787c-1.3974,-0.5201 -2.58266,-0.9255 -3.76276,-1.21824c-1.6937,0.49968 -3.45066,0.75272 -5.86577,0.76177h-2.67346c0,0 -2.78374,0 -2.78374,-2.78374c0,-2.78374 2.78374,-2.78374 2.78374,-2.78374h0.89423c0.74058,-1.33673 2.44759,-1.33673 2.44759,-1.33673c1.82049,0.00483 3.42802,0.11944 4.97738,0.37922c0.88614,-0.3706 1.86138,-0.85443 3.21651,-1.46127c2.17348,-0.97331 4.31447,-0.3821 5.22003,-3.07093c0.61327,-1.82095 -0.16098,-3.84076 -0.15692,-5.7622c0.00243,-1.15057 0.12088,-5.53486 -0.91269,-7.85773c-0.85617,0.35382 -1.72103,0.69125 -2.55902,1.05929c0,0 -2.55865,1.09657 -3.65522,-1.46209c-0.20063,-0.46814 -0.2789,-0.88733 -0.27287,-1.25981c-0.2521,-0.31687 -0.45492,-0.73797 -0.56651,-1.29591c-0.54594,-2.72968 2.18375,-3.27561 2.18375,-3.27561c1.50118,-0.21782 3.03929,-1.04964 4.50354,-0.65346c0.35431,0.09587 0.69037,0.21088 1.00913,0.34353c0.56251,-0.41888 0.98746,-0.87731 1.15016,-1.3675c0.45012,-1.35621 -0.17539,-2.85314 -0.2119,-4.28163c-0.09468,-3.70487 1.00546,-8.63621 -0.99786,-12.03619c-0.86938,-1.47549 -2.38073,-2.47166 -3.42928,-3.82571c-0.39707,-0.51276 -4.52647,-7.01924 -5.5747,-7.81199c-0.54416,-0.41154 -4.82536,-0.29812 -5.06291,-0.28394c-4.71538,0.28144 -5.71237,2.40558 -7.73295,6.48856l0.29388,0.76017c0,0 0,2.78374 -2.78374,2.78374c-2.78374,0 -2.78374,-2.78374 -2.78374,-2.78374l0.29388,-3.25002c1.13668,-2.25377 2.34955,-4.15813 3.75263,-5.66793c-0.13993,-0.88571 -0.11826,-1.81851 -0.46225,-2.64474c-1.9366,-4.65146 -8.13139,-3.68752 -12.0055,-4.41511c-4.43437,-0.8328 -7.1084,-1.23505 -11.51941,-1.2894c-1.10718,-0.01364 -3.11888,-0.50235 -4.12387,0.59548c-2.01681,2.20311 -1.79315,5.26081 -1.78113,7.98297v2.00509c0,0 0,2.78374 -2.78374,2.78374c-2.78374,0 -2.78374,-2.78374 -2.78374,-2.78374v-2.00509c0.01333,-3.55769 0.09547,-7.18169 2.02217,-10.19181c-0.10227,-0.82514 0.18202,-1.53586 0.18202,-1.53586c0.37932,-0.78404 1.20196,-1.4835 1.13797,-2.35213c-0.15059,-2.04429 -2.68729,-7.60542 -5.20819,-7.94039c-2.14563,-0.2851 -7.20954,-0.62505 -9.31118,-0.02654c-1.59946,0.4555 -3.01969,2.1853 -4.12159,3.29585c-3.00971,3.03335 -6.61497,6.38937 -7.25909,10.60809l0.05405,0.79079c0,0 0,2.78374 -2.78374,2.78374c-2.78374,0 -2.78374,-2.78374 -2.78374,-2.78374l0.05406,-1.88266c0.31456,-1.3698 0.32609,-2.84692 0.94369,-4.10941c0.46836,-0.95741 1.58493,-1.44961 2.20116,-2.31924c0.24386,-0.34413 0.49186,-0.69774 0.74463,-1.05799c-6.99677,-1.67473 -11.63909,-8.05695 -18.52661,-9.98178c-1.07655,-0.30086 -2.23473,0.06683 -3.35246,0.07882c-1.66018,0.0178 -4.64892,-0.18868 -6.25689,0.44391c-3.35765,1.32093 -5.60111,5.78521 -7.53676,8.44092c-1.31096,1.79862 -3.53759,2.94773 -4.45043,4.97759c-0.93027,2.06865 -0.32551,5.21279 -0.50681,7.45164l1.91935,-0.09292c0,0 2.72968,0.54594 2.18375,3.27561c-0.38288,1.91436 -1.8398,2.21764 -2.67597,2.22802c-0.38957,1.66367 -2.26952,1.97699 -2.26952,1.97699c-0.85985,-0.01071 -2.04572,-0.70627 -2.57954,-0.03211c-0.82248,1.0387 -0.27664,2.63795 -0.51574,3.9411c-0.32357,1.76347 -0.87721,3.48107 -1.17064,5.24981c-0.84883,5.11652 -1.78265,12.48728 -0.37469,17.61705c0.39452,1.43738 2.65014,1.36545 3.98661,2.02542c0.56263,0.27783 0.90562,1.0989 1.53308,1.09243c0.65413,-0.00675 1.00879,-0.86276 1.60817,-1.12482c1.56084,-0.68244 3.18635,-1.20174 4.80113,-1.7493c0.10813,-0.1043 0.21246,-0.21082 0.31104,-0.32072c0,0 1.18137,-1.18138 2.6289,-0.79847l0.76803,-0.39134c0,0 2.48985,-1.24493 3.73477,1.24492c1.24493,2.48985 -1.24493,3.73478 -1.24493,3.73478l-1.5478,0.76315c-0.49577,0.19812 -0.99431,0.38898 -1.49465,0.57505c-2.42781,3.92499 3.84358,9.65357 6.43938,12.24937c0.24007,0.24007 3.04159,3.16428 3.59045,3.3377c2.26989,0.71721 4.75957,-0.14285 7.14007,-0.14285h1.33673c0,0 2.78374,0 2.78374,2.78374c0,2.78374 -2.78374,2.78374 -2.78374,2.78374z"/><path d="M228.43963,232.53046l0.3144,-0.92087c0,0 1.03386,-2.58463 3.61849,-1.55078c2.58463,1.03385 1.55078,3.61848 1.55078,3.61848l-1.14003,2.19228c1.6405,2.34168 4.82838,7.45173 7.45606,8.16863c0.86434,0.23582 6.73007,-0.60882 6.97841,-0.68459c1.20761,-0.36846 2.26514,-1.11723 3.37671,-1.71597c0.59134,-0.31852 1.49571,-0.40458 1.72927,-1.03434c0.54408,-1.467 -0.00364,-3.16324 0.38921,-4.67776c0.45858,-1.76795 1.42218,-3.3647 2.13327,-5.04704c0,0 1.09656,-2.55865 3.65522,-1.46208c2.55866,1.09657 1.46209,3.65522 1.46209,3.65522c-0.62564,1.43669 -1.46349,2.79857 -1.87691,4.31005c-0.5356,1.95815 -0.02852,4.20592 -0.94752,6.01607c-0.92264,1.81731 -6.67188,4.77795 -8.2613,5.27006c-1.83936,0.5695 -8.40381,1.27886 -10.39905,0.65213c-4.24804,-1.33436 -7.9688,-6.72032 -10.20361,-11.03084l-1.81137,0.90393c-6.10404,2.44161 -11.57065,5.66736 -18.48905,4.18002c-1.06222,-0.22836 -1.91164,-1.05452 -2.93731,-1.41294c-1.31223,-0.45856 -2.92605,-0.19712 -4.04196,-1.02596c-1.25456,-0.93182 -1.63563,-2.67106 -2.59568,-3.90415c-0.73344,-0.94203 -1.49594,-1.86615 -2.22819,-2.81109c-2.56824,0.80829 -5.21929,1.11423 -8.24778,0.4654c-1.04787,-0.2245 -1.86999,-1.08516 -2.89474,-1.39872c-1.43507,-0.43911 -3.10856,-0.11641 -4.42311,-0.84044c-5.49583,-3.02698 -3.6273,-11.12314 -3.51505,-16.2903c0.04804,-2.21153 -0.50341,-4.53956 0.2119,-6.63276c0.0797,-0.23323 0.18587,-0.45076 0.31245,-0.65619c-0.91852,-1.26772 -0.90946,-3.11517 -1.17916,-4.68786c-0.6914,-4.03181 -0.2979,-11.55059 2.00975,-14.80381c0.91809,-1.29428 2.86544,-1.36433 4.29861,-2.04557c2.60059,-1.23615 5.61323,-1.54071 8.49238,-1.58103c0,0 2.78374,0 2.78374,2.78374c0,2.78374 -2.78374,2.78374 -2.78374,2.78374c-2.10196,-0.03876 -4.25552,0.32212 -6.21163,1.09243c-0.76493,0.30122 -1.92206,-0.05145 -2.38503,0.62789c-0.90917,1.33408 -0.65176,6.04668 -0.65016,7.5265c0.00111,1.02252 0.01831,2.04549 -0.01355,3.06752c-0.01625,0.52134 -0.49366,1.20787 -0.19215,1.58662c0.458,-0.15738 1.01333,-0.2219 1.60583,-0.01304c0.1277,-0.02193 0.25284,-0.03183 0.37225,-0.01877c1.12927,0.12351 2.22789,0.44558 3.34182,0.66836l2.12752,-0.05406c0,0 2.78374,0 2.78374,2.78374c0,2.78374 -2.78374,2.78374 -2.78374,2.78374l-3.2194,-0.05405c-0.51308,-0.10261 -1.6036,-0.30685 -2.82575,-0.56007c-0.34131,0.23886 -0.62573,0.51465 -0.74011,0.90077c-0.72205,2.43743 0.2119,5.08131 0.2119,7.62344c0,2.54213 -0.64384,5.11828 -0.2119,7.62344c0.2515,1.45865 2.88375,0.67558 4.3043,1.09146c0.88413,0.25884 1.55494,1.06581 2.45217,1.27475c1.68571,0.39254 3.20165,0.29076 4.64756,-0.08509c0.1468,-0.55673 0.51889,-1.1285 1.30101,-1.59777c1.18755,-0.71253 2.13877,-0.47977 2.79489,-0.06593c0.46343,-0.23111 0.92976,-0.46884 1.40259,-0.70525l0.61325,-0.81527c0,0 1.9684,-1.9684 3.9368,0c1.9684,1.9684 0,3.93679 0,3.93679l-2.0602,1.85818c-0.10941,0.05471 -0.21858,0.10911 -0.32755,0.16319c0.43905,0.54029 0.87307,1.08424 1.27678,1.64909c0.60448,0.84577 0.58757,2.14949 1.4145,2.77949c0.70527,0.53732 1.79506,0.04742 2.64168,0.31078c0.86555,0.26925 1.5266,1.05564 2.40961,1.26052c5.43757,1.26163 10.13913,-1.92434 14.92915,-3.84035l2.5689,-1.28714c0,0 0.78148,-0.39074 1.68771,-0.2966z"/></g><g data-paper-data="{&quot;index&quot;:null}" fill="#ffa100"><path d="M225.43273,178.14884l-1.12922,-2.91558c0,-1.13175 -0.03003,-8.19373 0.11944,-8.74232c1.86942,-6.86124 11.20363,-10.12213 17.40242,-7.65535c3.51298,1.39797 5.92805,3.76016 7.7163,6.73203c3.00851,-1.33332 6.77238,-1.1429 9.55409,0.65021c4.56201,2.94072 8.29377,10.75741 8.36455,16.0629c0.04981,3.7336 -1.06244,6.68168 -5.45238,7.41922c-1.4856,0.24959 -2.84982,-0.97761 -4.27473,-1.46642c0,0 -2.55866,-1.09656 -1.46209,-3.65522c1.09657,-2.55866 3.65523,-1.46209 3.65523,-1.46209c3.41966,2.26062 1.97685,-2.12545 1.27452,-4.49668c-0.7646,-2.58147 -6.56605,-12.05833 -10.36006,-7.33411c-1.16962,1.45638 -1.37934,2.96591 -1.86435,4.71258l0.10711,1.32357c0,0 0,2.78374 -2.78374,2.78374c-2.78374,0 -2.78374,-2.78374 -2.78374,-2.78374l0.10711,-2.85307c0.53023,-1.81472 0.87925,-3.49245 1.73195,-5.05238c-1.15005,-2.36109 -2.82016,-4.2942 -5.44014,-5.35108c-3.16954,-1.27856 -9.34446,0.16542 -10.16346,4.03926c-0.4916,2.32525 0.11944,4.75231 0.11944,7.12895l0.54145,0.42573c0,0 1.24493,2.48985 -1.24493,3.73477c-2.48985,1.24493 -3.73478,-1.24493 -3.73478,-1.24493z"/><path d="M235.56868,195.60981l-2.70121,1.52917c-0.59478,0.23521 -1.63041,0.08483 -1.78432,0.70563c-0.13772,0.55548 1.00143,0.60952 1.34472,1.06742c1.1495,1.53329 0.50819,2.53534 2.39926,2.8485c3.03255,0.5022 6.38685,-0.9939 8.08119,-3.24948c0,0 1.14271,-1.37126 2.69611,-1.00264v-0.13891c0,0 0,-2.78374 2.78374,-2.78374c2.78374,0 2.78374,2.78374 2.78374,2.78374v3.34132c-0.1098,0.95438 -0.48687,1.91544 -0.32939,2.86312c0.20851,1.25476 2.53866,0.20311 3.81062,0.20045c0.85872,-0.0018 1.75905,0.37886 2.57389,0.10788c1.12113,-0.37284 1.87708,-1.47806 2.96088,-1.94852c1.13212,-0.49144 2.49191,-0.33762 3.59246,-0.8962c2.25458,-1.1443 -1.26527,-7.79426 -1.90578,-8.91481c-0.79663,-1.39366 -2.22279,-2.48452 -3.7237,-3.05386c0,0 -2.55866,-1.09657 -1.46209,-3.65523c1.09657,-2.55866 3.65522,-1.46208 3.65522,-1.46208c2.49318,1.14668 4.85548,2.96632 6.30025,5.29943c1.63867,2.64624 4.13466,8.29002 3.27317,11.56413c-0.44986,1.70973 -1.31445,3.44959 -2.67297,4.58094c-1.28728,1.07202 -3.23457,0.91924 -4.76083,1.60979c-1.31735,0.59603 -2.33618,1.81478 -3.72175,2.22813c-1.31288,0.39166 -2.7387,0.1097 -4.10875,0.10787c-3.23928,-0.00432 -6.75097,0.59628 -8.71932,-3.14087c-0.39814,-0.75591 -0.4729,-1.60214 -0.45031,-2.47555c-5.53293,4.61769 -14.11678,5.49646 -17.88955,-2.05117c-0.77204,-1.5445 -2.3795,-3.09617 -1.99659,-4.77988c0.43764,-1.92437 2.70865,-2.8709 4.06298,-4.30635l3.1461,-1.81215c0,0 2.41696,-1.38112 3.79808,1.03584c1.38112,2.41696 -1.03584,3.79808 -1.03584,3.79808z"/><path d="M219.15162,180.52298l-3.30976,-0.02691c-1.43845,-0.48335 -3.16555,-0.45972 -4.31534,-1.45005c-4.01106,-3.45482 -2.4776,-10.84406 1.757,-13.38828c3.31565,-1.9921 10.95189,0.6956 14.06497,2.00487c0,0 2.55866,1.09656 1.46209,3.65522c-1.09657,2.55866 -3.65523,1.46209 -3.65523,1.46209c-2.72679,-1.19627 -4.95944,-1.38377 -7.87173,-1.87025c-0.48774,-0.08147 -1.01415,-0.53033 -1.45253,-0.30152c-2.25574,1.17735 -1.15713,4.09486 0.78298,4.37425l2.53755,-0.02691c0,0 2.78374,0 2.78374,2.78374c0,2.78374 -2.78374,2.78374 -2.78374,2.78374z"/><path d="M228.06295,196.81684c-2.39167,0.02583 -4.44878,0.08402 -6.83038,-1.14193c-5.07934,-2.61464 -7.83908,-9.96728 -7.83987,-15.51821l-1.15241,-3.45723c-0.21154,-0.58837 -0.3268,-1.22266 -0.3268,-1.88388c0,-3.07483 2.49264,-5.56747 5.56747,-5.56747c0.9351,0 1.81635,0.23053 2.59003,0.63786l2.05898,1.02949c0.43055,0.11681 1.11155,0.25128 1.51444,0.44138c0.49809,-1.30207 0.88025,-2.76035 1.8981,-3.70203c1.21272,-1.12198 2.69155,-2.04109 4.26992,-2.57105c0.47582,-0.56349 0.9321,-1.1311 1.27366,-1.72294l4.25715,-1.88211c0,0 3.41074,-0.85269 5.4891,1.50748c0.10216,0.00823 0.19867,0.02059 0.28902,0.03727c2.3421,0.43224 4.41653,1.91323 6.29933,3.37176c0.69963,0.54197 0.65041,1.66155 1.14528,2.39524c0.39582,0.58685 1.28432,0.39473 2.06073,0.4067l2.91355,-0.32373c0.22775,-0.02837 0.45978,-0.04299 0.69522,-0.04299c2.47742,0 4.57691,1.61815 5.2992,3.8552c0.82095,0.98176 1.2569,2.35169 1.97646,3.43485c3.01627,4.54032 4.14107,8.73633 2.72446,14.22755c-0.19301,0.74815 -0.45733,1.47436 -0.77509,2.18055c1.08697,0.07265 2.28484,0.54155 3.48272,1.73942c3.9368,3.9368 0,7.8736 0,7.8736c-3.46897,3.37114 -10.22578,9.594 -15.77381,4.58271c-1.0956,-0.9896 -1.77201,-2.34335 -2.19856,-3.81969c-2.80622,2.31312 -7.61494,4.15999 -10.65462,4.15301c-2.36015,-0.00542 -5.17534,0.79204 -7.0515,-0.63988c-1.91284,-1.45991 -1.98619,-4.40689 -2.60706,-6.73171c-0.24917,-0.933 -0.4423,-1.89226 -0.59473,-2.86923z"/></g><path d="M243.27214,190.62385c-0.62318,-0.36779 -1.16847,-0.85353 -1.60514,-1.42651c-4.91624,2.94975 -14.63751,-0.85976 -14.70948,-7.02585c-0.03011,-2.57982 -0.37735,-9.64008 3.60543,-10.63577c4.14077,-1.03519 13.54282,-1.25035 18.0441,-0.12503c4.90558,1.2264 6.44789,11.66069 4.46997,15.3693c-1.15234,2.16064 -7.40347,8.04633 -9.80487,3.84387z" data-paper-data="{&quot;index&quot;:null}" fill="#ffac1d"/><path d="M220.65896,186.40789l0.05169,0.17059c0.58855,0.84192 1.1771,1.68385 1.76566,2.52578c2.53491,3.53741 4.61816,1.37552 7.95424,4.79202c1.64953,1.68929 1.41905,6.0926 3.98367,7.12399c3.96029,1.59269 8.27857,-2.21186 12.36746,-0.4765c1.05556,0.44799 1.22219,2.03317 2.18352,2.65828c2.08687,1.357 5.88024,-2.45008 7.17245,-2.64301c1.23647,-0.18461 2.36652,0.88935 3.61024,1.01613c2.04922,0.20888 4.1047,-2.83978 5.15062,-4.02606c0,0 1.84941,-2.08059 3.93,-0.23118c2.08059,1.84941 0.23118,3.93001 0.23118,3.93001c-2.58525,2.88839 -5.15527,5.89012 -9.46628,5.89256c-0.95415,0.00054 -1.70636,-1.18209 -2.65414,-1.072c-0.80306,0.09328 -1.0967,1.25039 -1.82908,1.59276c-2.45092,1.14575 -6.22878,1.59803 -8.74756,0.46252c-0.98633,-0.44465 -1.0835,-1.97565 -1.99273,-2.56203c-1.35329,-0.87278 -3.11934,0.84663 -4.71838,1.03694c-1.21962,0.14515 -6.37053,0.03841 -7.44967,-0.46938c-4.40412,-2.07234 -3.42519,-5.60354 -5.93494,-8.53697c-0.79163,-0.92526 -4.68197,-1.27689 -5.07371,-1.5378c-1.3257,-0.88295 -2.10336,-2.39253 -3.15504,-3.58879c-0.62953,-0.89818 -1.25904,-1.79636 -1.88856,-2.69454l-0.47034,-0.87348c0,0 -1.24493,-2.48985 1.24493,-3.73477c2.48985,-1.24493 3.73477,1.24492 3.73477,1.24492z" data-paper-data="{&quot;index&quot;:null}" fill="#ef9700"/><path d="M175.89999,138.08522l-2.63162,-2.72835c-1.61381,-4.60847 -1.59792,-10.05308 1.7126,-14.13048c1.42811,-1.75893 3.07583,-2.4788 4.90996,-3.13985c0.928,-2.02801 2.46706,-3.81251 4.21132,-5.19987c1.33412,-1.06114 3.86742,-3.74557 5.39535,-4.308c8.51199,-3.13323 16.6983,2.41864 24.02135,5.51726c3.01293,1.27487 4.83507,1.66389 6.63822,3.07402c0.68935,-1.26288 1.50692,-2.46436 2.63795,-3.28608c4.28423,-3.11259 12.84287,-2.75139 17.7643,-1.79916c1.37034,0.26514 2.81601,0.43222 4.03876,1.10527c5.1234,2.82012 7.04684,8.66182 7.15455,13.90711c0,0 0,2.78374 -2.78374,2.78374c-2.78374,0 -2.78374,-2.78374 -2.78374,-2.78374c0.03367,-1.14439 0.33144,-2.31173 0.10101,-3.43319c-0.14198,-0.69096 -0.74871,-1.19746 -1.1689,-1.76404c-1.00428,-1.35417 -1.78451,-3.05354 -3.26227,-3.86507c-2.03804,-1.11923 -5.87293,-0.68003 -8.02503,-0.68273c-2.07838,-0.00261 -5.84573,-0.33139 -7.75822,1.03291c-0.73956,0.52758 -2.02444,3.43452 -2.2807,3.95368l-0.94066,0.86697c-0.1813,0.23804 -0.42182,0.47084 -0.73586,0.69067c-0.80623,0.56436 -1.52696,0.64418 -2.12186,0.51152c-0.60243,-0.09269 -1.24482,-0.42906 -1.79072,-1.2479c-0.02307,-0.0346 -0.04527,-0.06903 -0.06664,-0.10329c-2.11326,-3.17383 -3.10869,-2.27777 -6.80085,-3.83963c-5.7365,-2.42667 -13.04163,-7.85849 -19.82934,-5.44541c-1.67429,0.59522 -2.58449,2.44993 -4.00123,3.52248c-0.78902,0.59733 -1.58977,1.30414 -2.10855,2.15148c0.4047,1.56136 -0.50788,2.46833 -1.16811,2.90201c-0.08276,0.20577 -1.02543,2.39905 -3.34233,1.6938c-2.95687,2.07167 -3.93451,5.3584 -2.38435,9.41289l1.02261,0.40385c0,0 2.11357,1.81163 0.30194,3.9252c-1.81163,2.11357 -3.9252,0.30194 -3.9252,0.30194z" data-paper-data="{&quot;index&quot;:null}" fill="#bf0000"/><path d="M299.03725,194.35496l2.63038,-1.44126c4.14837,-1.63887 7.64642,-6.589 5.99925,-11.42802c-0.73794,-2.16791 -3.29255,-4.63778 -4.87736,-6.49227c-0.31183,-0.26635 -0.5938,-0.6473 -0.80874,-1.18465c-0.03824,-0.09559 -0.07153,-0.18906 -0.10018,-0.28044c-0.13822,-0.41963 -0.21419,-0.93721 -0.06919,-1.47948c0.1412,-0.54327 0.46246,-0.95612 0.7896,-1.25307c0.06998,-0.06537 0.14502,-0.13029 0.22542,-0.19461c0.53085,-0.42469 1.03578,-0.61601 1.49578,-0.66263c6.0364,-4.60073 -0.77476,-14.23108 -3.4986,-19.04811c-0.80537,-1.42428 -1.75587,-2.88315 -3.11583,-3.79292c0,0 -2.25131,-1.63732 -0.61399,-3.88862c1.63732,-2.25131 3.88862,-0.61399 3.88862,-0.61399c5.95936,4.56816 10.21771,13.21039 10.79489,20.81927c0.22253,2.93351 0.77926,5.56611 -0.96991,8.27883c-0.48664,0.75471 -1.22425,1.29014 -1.97176,1.81693c1.6694,1.94707 3.41583,4.0972 4.11303,6.21518c2.54155,7.72087 -2.38082,15.40429 -9.13968,18.32781l-2.06791,1.1689c0,0 -2.43343,1.3519 -3.78532,-1.08152c-1.3519,-2.43343 1.08152,-3.78532 1.08152,-3.78532z" data-paper-data="{&quot;index&quot;:null}" fill="#bf0000"/><path d="M305.46819,189.07763l0.13531,0.23403c1.5657,-3.80599 0.23145,-8.97799 -0.85256,-12.93313c0,0 -0.73245,-2.68565 1.9532,-3.4181c2.68565,-0.73245 3.4181,1.9532 3.4181,1.9532c1.45368,5.35422 2.47801,11.03302 0.71353,16.30067l-1.43078,1.80013c0,0 -1.9684,1.9684 -3.9368,0c-1.9684,-1.9684 0,-3.9368 0,-3.9368z" data-paper-data="{&quot;index&quot;:null}" fill="#bf0000"/><path d="M186.84719,190.43656l-1.15196,-0.08312c-4.59347,1.07624 -9.07952,3.8696 -7.85681,9.31995c0.25619,1.14197 0.995,2.1344 1.27924,3.26971c0.83159,3.32145 0.13654,4.27501 3.32037,5.88887c0.57282,0.20982 1.222,0.62883 1.53037,1.46565c0.23254,0.47867 0.33999,1.08143 0.11615,1.8009c-0.14802,0.73881 -0.53098,1.2165 -0.96434,1.52538c-0.23545,0.20584 -0.4831,0.3465 -0.73145,0.43851c-2.37232,2.58929 -1.41905,4.17724 -0.65298,7.70903c0.60659,2.79656 1.11884,7.38991 4.10068,9.11831c2.39538,1.38847 7.03518,-0.18354 9.97392,-0.71516l-0.0012,-0.4982c0,0 0,-2.78374 2.78374,-2.78374c2.78374,0 2.78374,2.78374 2.78374,2.78374l-0.00811,2.91993c0.32339,2.9812 2.87146,5.9176 5.89175,6.95388c1.71172,0.58731 3.61783,-0.13634 5.42748,-0.12878c4.47165,0.01868 9.15109,-1.39335 13.50398,-2.59678l0.62382,-1.64496c0,0 1.54414,-2.31621 3.86035,-0.77207c2.08782,1.39188 1.03905,3.41108 0.81193,3.79575c1.15581,7.4978 9.44348,10.30881 16.22742,7.66547c0.85825,-0.33442 4.08538,-1.5217 4.7386,-2.21039c0.73174,-0.77148 0.79437,-2.02303 1.50887,-2.81049c0.59627,-0.65716 1.39149,-1.08864 2.15807,-1.55261c-0.37241,-1.16621 -0.65592,-2.346 -0.9539,-3.37287c0,0 -0.76475,-2.67662 1.91188,-3.44138c2.67663,-0.76475 3.44138,1.91188 3.44138,1.91188c0.05088,0.18142 1.08508,4.52633 1.78156,5.20834c1.08817,1.06556 2.96996,0.70755 4.48277,0.8835c6.13462,0.71351 10.44702,-0.03243 15.61651,-3.46704c1.0465,-0.69529 3.42537,-2.07929 4.08103,-3.23159c0.98796,-1.73629 0.97805,-3.87758 1.60864,-5.77313l0.43324,-2.2758c0,0 0.54594,-2.72968 3.27561,-2.18375c2.72968,0.54594 2.18374,3.27562 2.18374,3.27562l-0.61082,2.94452c-0.74547,2.23163 -0.82862,4.74196 -2.04559,6.75563c-1.46568,2.4252 -3.62186,3.63948 -5.83757,5.12092c-6.20078,4.14587 -12.00172,5.26886 -19.35964,4.36344c-1.95668,-0.24078 -5.19183,-0.59743 -7.04484,-1.86931c-0.98423,1.00123 -1.61432,2.40915 -2.638,3.39396c-1.10005,1.05828 -2.55476,1.68056 -3.90708,2.38858c-9.60321,5.02782 -21.72621,2.09368 -25.57885,-7.53935c-7.89095,2.18309 -17.66471,4.96793 -24.718,0.28904c-2.22189,-1.47392 -4.38256,-2.6801 -5.64327,-5.28219c-0.25555,-0.52745 -0.39052,-1.09407 -0.47648,-1.67661c-4.11666,0.58882 -9.17942,2.20163 -12.96349,0.05371c-4.56657,-2.59208 -5.88566,-8.325 -6.862,-12.80703c-0.48734,-2.23722 -1.47473,-4.53064 -1.07278,-6.78476c0.41708,-2.33896 0.77143,-3.31481 1.46584,-4.2042c-0.05831,-0.0556 -0.11495,-0.11328 -0.16973,-0.17324c-1.82214,-1.99437 -2.17117,-4.97479 -2.82554,-7.59576c-1.2478,-4.99789 -2.80939,-9.79654 1.19679,-14.27542c2.41581,-2.70085 6.10724,-4.1032 9.4527,-4.97888l2.50227,-0.08311c0,0 2.78374,0 2.78374,2.78374c0,2.78374 -2.78374,2.78374 -2.78374,2.78374z" data-paper-data="{&quot;index&quot;:null}" fill="#bf0000"/><path d="M250.63532,143.09225l3.1514,-1.36205c4.74513,-0.51648 10.63065,-1.06114 14.63235,2.36488c0.63348,0.54234 1.10989,1.23046 1.56159,1.94153l1.17262,-0.1355c1.39073,0.17055 2.87209,-0.01081 4.17219,0.51166c2.6816,1.07766 5.63179,4.86761 7.56746,6.97443c0.96787,1.05345 2.42281,1.86746 2.80869,3.24501c0.44762,1.59798 -0.3417,3.30134 -0.51255,4.952c0,0 -0.45764,2.74585 -3.2035,2.28821c-2.74586,-0.45764 -2.28822,-3.2035 -2.28822,-3.2035c0.23413,-0.77922 0.87842,-1.54329 0.70239,-2.33765c-0.12694,-0.57287 -1.00263,-0.62021 -1.44361,-1.00728c-2.95581,-2.59453 -4.24498,-5.72323 -8.3069,-5.87828l-0.16168,0.03137c-0.03752,0.02831 -0.07621,0.05643 -0.11607,0.08433c-2.28053,1.59637 -3.87689,-0.68416 -3.87689,-0.68416c-2.79122,-4.29333 -6.44192,-4.18648 -11.28224,-3.76521l-2.31585,1.06782c0,0 -2.54381,1.13058 -3.67439,-1.41323c-1.13058,-2.54381 1.41322,-3.67439 1.41322,-3.67439z" data-paper-data="{&quot;index&quot;:null}" fill="#bf0000"/><path d="M195.81234,179.83105l-3.54742,-1.6846c-0.87901,-1.09463 -2.13197,-1.974 -2.63704,-3.28387c-0.48214,-1.2504 -0.15812,-2.67648 -0.17788,-4.01647c-0.06957,-4.71797 0.01829,-10.38279 4.13138,-13.7542c0.58312,-0.47797 1.31209,-0.70362 2.05627,-0.90295c-0.01449,-0.06602 -0.02783,-0.13275 -0.03997,-0.20018c-1.17882,-6.54809 5.80908,-9.79187 10.69225,-11.98533c0,0 0.42709,-0.18981 1.00904,-0.23889c3.20056,-4.85595 9.41238,-5.15342 14.70084,-5.16453c0,0 2.78374,0 2.78374,2.78374c0,2.78374 -2.78374,2.78374 -2.78374,2.78374c-3.00167,-0.00709 -8.65519,-0.51123 -10.26704,3.01722c-0.1992,0.43607 -0.39882,2.27024 -0.51913,3.54499c0.46197,0.666 1.13941,2.11146 -0.30606,3.55693c-1.9684,1.9684 -3.93679,0 -3.93679,0l-1.40899,-2.85286c0.02485,-0.24471 0.05011,-0.52237 0.07743,-0.82326c-0.79184,0.47416 -1.56434,0.98195 -2.32116,1.50611c-0.89046,0.61672 -2.88383,1.06106 -2.29885,2.60579c0.40323,1.0648 2.03504,2.17918 2.74569,2.77191l-0.02013,-0.22358c0,0 2.64089,0.8803 1.76059,3.52118c-0.8803,2.64089 -3.52118,1.76058 -3.52118,1.76058l-1.84254,-0.83105c-0.30912,-0.27033 -0.63285,-0.54001 -0.95935,-0.81467c-0.17863,0.08749 -0.29729,0.12704 -0.29729,0.12704c-4.94798,1.24092 -5.59833,10.35545 -2.43015,13.44641l1.31235,0.13781c0,0 2.6065,0.97744 1.62906,3.58393c-0.97744,2.6065 -3.58393,1.62906 -3.58393,1.62906z" data-paper-data="{&quot;index&quot;:null}" fill="#bf0000"/><path d="M202.92445,199.671l0.90136,2.45987c-0.12591,2.172 -0.30039,4.68359 2.72301,5.18961c1.56571,0.26205 3.30628,-0.76507 4.76071,-0.12887c1.43359,0.62709 2.22991,2.23159 3.06764,3.55318c0.32817,0.51772 -0.20984,1.52078 0.33123,1.80882c0.59216,0.31524 4.17108,-1.07185 4.58873,-1.21795c0,0 2.64088,-0.8803 3.52118,1.76058c0.8803,2.64089 -1.76058,3.52118 -1.76058,3.52118c-3.10383,0.99749 -5.88157,2.31951 -9.38311,0.60446c-1.26256,-0.6184 -1.43168,-2.42083 -2.09866,-3.65841c-0.22589,-0.41914 -0.10956,-1.21698 -0.57718,-1.30659c-1.23564,-0.23677 -2.52125,0.77531 -3.74389,0.4786c-5.78993,-1.40509 -6.82127,-5.62329 -6.99654,-10.60463l-0.31358,0.02998c0,0 -1.24493,-2.48985 1.24493,-3.73477c2.48985,-1.24493 3.73477,1.24492 3.73477,1.24492z" data-paper-data="{&quot;index&quot;:null}" fill="#bf0000"/><path d="M277.39807,190.76388l1.10915,-0.16418c2.61751,-2.67963 1.11278,-4.5146 -1.26528,-5.81978l-2.88489,-0.22191c-1.44926,-0.09718 -2.5947,-1.30353 -2.5947,-2.77742c0,-0.85206 0.38282,-1.61472 0.98584,-2.12535l1.73089,-1.48362c0.6734,-1.45795 -0.60869,-1.27171 -2.25157,-1.62182c0,0 -2.66633,-0.7999 -1.86643,-3.46624c0.7999,-2.66633 3.46624,-1.86643 3.46624,-1.86643c3.29884,1.1465 5.89147,1.10836 6.52037,5.67853c0.12581,0.91422 -0.19422,1.79475 -0.57543,2.67066c2.66097,0.86569 5.25979,4.68373 5.71247,7.17769c0.75122,4.13879 -0.57333,4.75027 -2.75035,7.47895l-3.14315,1.65823c0,0 -2.55865,1.09657 -3.65522,-1.46209c-1.09657,-2.55866 1.46209,-3.65522 1.46209,-3.65522z" data-paper-data="{&quot;index&quot;:null}" fill="#bf0000"/><path d="M295.0511,201.09701l0.7687,2.09489c0.20159,1.52537 0.88413,3.06305 0.60476,4.57611c-1.03747,5.61883 -7.47738,7.85217 -12.31657,8.8375c-0.08423,0.15991 -0.17857,0.31651 -0.28385,0.46936c-1.28307,1.86271 -8.48772,4.85225 -11.72698,4.70676c-0.14817,0.04586 -0.29634,0.09171 -0.44451,0.13757l-0.2239,-0.22767c-0.10413,-0.02625 -0.20054,-0.05814 -0.28859,-0.09598c-0.20402,-0.08767 -0.30483,-0.23936 -0.33939,-0.43213l-0.23324,0.46648l-2.98342,-1.4917c-0.94159,-0.44636 -1.59275,-1.40555 -1.59275,-2.51682c0,-1.53741 1.24632,-2.78374 2.78374,-2.78374c0.42412,0 0.82608,0.09485 1.18585,0.26449l1.83476,0.81545c0.62046,-0.09521 1.23203,-0.20863 1.85335,-0.34767c0.18439,-0.08698 0.36877,-0.17396 0.55316,-0.26094c0,0 0.48567,-0.17661 1.1146,-0.16838c0.64739,-0.18805 1.32047,-0.40768 2.03744,-0.66613c0.61671,-0.22231 1.44583,-0.0727 1.88558,-0.55888c0.89846,-0.99331 -0.46362,-2.63886 -0.74126,-3.94914l-0.194,0.087c0,0 -1.54414,-2.31621 0.77207,-3.86035c2.31621,-1.54414 3.86035,0.77207 3.86035,0.77207l1.02094,1.90941c0.11883,0.62235 0.2742,1.29906 0.41376,2.00161c2.6023,-0.59337 6.44962,-1.82755 6.56657,-4.05546c0.0486,-0.92583 -0.40679,-1.80903 -0.61018,-2.71355l-0.44625,-0.94247c0,0 -1.03385,-2.58464 1.55078,-3.61849c2.58463,-1.03385 3.61849,1.55078 3.61849,1.55078z" data-paper-data="{&quot;index&quot;:null}" fill="#bf0000"/><path d="M230.2508,223.69609l-0.01382,0.02675c-0.19943,0.41678 -0.77682,0.82419 -0.59828,1.25034c0.13969,0.33343 0.49039,-0.57312 0.82933,-0.69887c1.09618,-0.40668 2.24252,-0.69149 3.39808,-0.8695c1.67089,-0.2574 3.48307,-1.05887 5.05332,-0.43243c1.40103,0.55893 2.02412,2.26307 2.79113,3.5619c0.27629,0.46786 -0.19889,1.3216 0.26236,1.60879c0.37104,0.23103 0.62469,-0.66436 1.04111,-0.79719c1.09557,-0.34949 2.26277,-0.41176 3.39415,-0.61765c0,0 2.73883,-0.49797 3.23681,2.24087c0.49797,2.73883 -2.24087,3.2368 -2.24087,3.2368c-1.13604,0.20637 -6.98164,1.36504 -7.71416,1.01504c-1.42945,-0.68299 -1.9741,-2.49156 -2.775,-3.85845c-0.22261,-0.37992 0.17836,-1.18117 -0.24623,-1.29787c-0.58082,-0.15964 -1.05423,0.60187 -1.62886,0.78251c-2.20025,0.69168 -7.06448,2.02843 -9.13696,0.25405c-1.25915,-1.07804 -0.80384,-3.21625 -1.20575,-4.82438l-0.01381,-0.58073c0,0 0,-2.78374 2.78374,-2.78374c2.78374,0 2.78374,2.78374 2.78374,2.78374z" data-paper-data="{&quot;index&quot;:null}" fill="#bf0000"/></g></g></g></g></svg>