<svg version="1.1" xmlns="http://www.w3.org/2000/svg" xmlns:xlink="http://www.w3.org/1999/xlink" width="705.87691" height="456.29817" viewBox="0,0,705.87691,456.29817"><g transform="translate(135.60002,47.05119)"><g data-paper-data="{&quot;isPaintingLayer&quot;:true}" fill-rule="nonzero" stroke="none" stroke-width="0.5" stroke-linecap="butt" stroke-linejoin="miter" stroke-miterlimit="10" stroke-dasharray="" stroke-dashoffset="0" style="mix-blend-mode: normal"><path d="M-4.9275,181.54026c-0.35144,-1.6431 -0.06641,-3.36001 -0.07249,-5.04026c-0.01809,-4.99997 0,-10 0,-15c0,-11.66667 0,-23.33333 0,-35c0,-6.06997 0.6748,-12.173 0.04174,-18.20987c-0.49776,-4.74658 -2.49856,-9.25381 -3,-14c-0.51799,-4.90278 -0.03376,-9.86007 -0.04174,-14.79013c-0.02427,-14.99989 0,-30.00008 0,-45c0,-14.88377 -1.28921,-30.54014 1.10205,-45.23299c0,0 0.0382,-0.22922 0.14151,-0.60024c-0.15628,-0.2529 -0.30714,-0.52343 -0.45176,-0.81267c-3.3541,-6.7082 3.3541,-10.06231 3.3541,-10.06231l0.6117,-0.2713c-0.90501,-2.38086 -1.53278,-4.73781 -0.63748,-6.96348c1.24793,-3.1023 6.19044,-2.55249 9.37988,-3.55702c0.41094,-0.12943 0.86907,0.33968 1.27685,0.20063c1.41094,-0.48112 2.52443,-1.78808 4,-2c3.69309,-0.53039 7.47408,0.13636 11.19148,-0.18176c7.52452,-0.64393 11.77004,-1.61864 18.35209,-2.93148c5.05119,-1.0075 10.05868,-2.26839 15.15467,-3.01703c8.66853,-1.27346 17.48491,-1.1899 26.20654,-2.02558c7.08989,-0.67933 14.06132,-2.35768 21.15327,-3.01523c15.40434,-1.42827 31.19968,-1.02955 46.66511,-1.02955c16.66667,0 33.33333,0 50,0c1.42569,0 17.21351,-0.0431 18.41831,0.13533c1.77569,0.26298 3.25152,1.59377 5,2c1.00866,0.23434 2.07315,-0.21147 3.10436,-0.11709c7.784,0.71239 15.48376,2.17309 23.25405,3.02209c8.55843,0.93512 15.44385,0.89306 24.32953,2.04171c12.44549,1.60882 24.64765,5.79488 37,8c6.7724,1.209 13.71283,1.12539 20.56841,1.69819c27.98016,2.33783 56.24985,1.21978 84.32535,1.21978c17.33328,0 34.66674,-0.02049 52,0c8.18754,0.00968 15.43619,0.47844 23.21658,3.33503c2.10459,0.77271 4.49201,1.28583 6.08672,2.86167c4.42231,4.36999 3.66551,12.62089 6.34004,17.8225c0.83199,1.61811 2.51249,2.73636 3.20345,4.41953c2.0274,4.9387 1.6532,9.92807 1.6532,15.06127c0,7 0,14 0,21c0,52 0,104 0,156c0,36.66667 0,73.33333 0,110c0,6 0.24223,12.00489 0,18c-0.06946,1.71911 -0.86287,3.43431 -0.5709,5.12987c0.1214,0.70502 1.42522,0.66403 1.68346,1.33119c0.96459,2.492 1.49571,5.15145 1.85094,7.7999c0.26587,1.98225 -0.15952,4.00637 0,6c0.19592,2.44857 1.47776,4.70393 1.86189,7.13011c0.42088,2.6583 0.07017,5.43054 0.72163,8.04191c0.32332,1.29605 1.42078,2.26242 2.13117,3.39363c0.1998,5.33308 1.4505,11.82122 -3.5626,16.08492c-2.2245,1.89197 -5.7182,1.22364 -8.61559,1.58846c-8.59616,1.08236 -18.43155,0 -27,0c-19.7132,0 -39.77239,0.95438 -59.47721,-0.0152c-11.48849,-0.56529 -22.36194,-3.23664 -33.43917,-6.041c-9.02781,0.03877 -18.05573,0.05619 -27.08363,0.05619c-7.63881,0 -15.30739,0.61822 -22.91637,-0.05619c-1.369,-0.12134 -2.63299,-0.85797 -4,-1c-9.43613,-0.98043 -19.58447,0.05619 -29.08363,0.05619c-12.66667,0 -25.33333,0 -38,0c-5.7003,0 -11.93107,0.43669 -17.6186,-0.02555c-2.02092,-0.16425 -3.97599,-0.8796 -6,-1c-8.1128,-0.48259 -16.25426,0.02555 -24.3814,0.02555c-10.33333,0 -20.66667,0 -31,0c-4,0 -8.00076,0.07808 -12,0c-1.42691,-0.02786 -2.88224,-0.50382 -4.27685,-0.20063c-1.45669,0.31668 -2.55457,1.63536 -4,2c-3.24173,0.81781 -6.72424,-0.25513 -9.98411,0.16413c-6.46345,0.83128 -12.67478,3.28994 -18.97195,4.82536c-3.03494,0.74 -6.54823,1.56444 -9.76709,1.21114c-0.41945,-0.04604 -0.74602,-0.74617 -1.12987,-0.5709c-0.85764,0.3916 -1.09231,1.74507 -2,2c-2.23768,0.62846 -4.64584,0.23953 -6.95375,0.51471c-3.66635,0.43714 -5.12553,2.73745 -9.19323,3.85556c-1.60706,0.44174 -3.33333,0 -5,0c-2.65083,1.4464 -5.69119,2.03021 -8.58605,2.88971c-1.95519,0.58051 -3.70596,1.84657 -5.71879,2.1756c-0.40823,0.06673 -10.05075,0.1781 -12.41831,0.13533c-0.88803,-0.01604 -1.80492,-0.35398 -2.66181,-0.12035c-5.86595,1.59935 -11.4806,4.37189 -17.51981,5.07557c-7.15082,0.8332 -9.71036,-0.13889 -16.35004,-0.97409c-1.77499,-0.22327 -3.65627,0.0568 -5.33846,-0.55204c-1.16241,-0.42071 -1.72549,-1.83778 -2.82512,-2.4026c-0.78315,-0.40226 -1.77386,-0.1216 -2.61228,-0.3903c-3.13025,-1.00318 -5.86887,-3.04116 -9.01181,-4.00383c-2.31439,-0.70889 -4.85738,-0.58428 -7.11253,-1.46361c-0.28764,-0.11216 -0.53439,-0.28755 -0.76043,-0.49582c-1.00651,0.02701 -2.01046,0.01426 -2.98109,0.00525c-1.2018,-0.01116 -1.86069,-1.61736 -3,-2c-1.17078,-0.3932 -2.68816,0.4637 -3.69674,-0.24909c-3.10246,-2.19259 -6.15771,-4.76992 -8.05897,-8.05897c-0.65372,-1.13089 -0.5709,-7.50343 -0.5709,-9.87013c0,-5.2102 -1.13832,-12.44237 0.38488,-17.37171c0.60789,-1.96724 2.55739,-3.26425 3.47178,-5.10909c1.01358,-2.04497 1.23843,-4.42293 2.26346,-6.46218c0.00868,-0.01727 0.018,-0.03392 0.02793,-0.05001c-0.03406,-0.4646 -0.07462,-0.92749 -0.1225,-1.3884c-1.37924,-13.27857 -1.03783,-26.51985 -1.02587,-39.92578c-0.39573,-1.63976 -0.78137,-3.28079 -0.96319,-4.95379c-1.17617,-10.82267 0.86667,-21.97875 0.01969,-32.82266c-0.10702,-1.3702 -0.83833,-2.63517 -1,-4c-0.56994,-4.8114 -0.05619,-10.0683 -0.05619,-14.91637c0,-11 0,-22 0,-33v-5c0,-2.65031 1.3747,-4.97955 3.44996,-6.31355c-0.88522,-2.85893 -1.7521,-5.72243 -2.37746,-8.64619z" fill="#a9d4df"/><g><g fill="#9fc7d1"><g><g><path d="M238.80338,209.8033c-4.4801,4.4801 -8.96019,1.39085 -10.24309,0.32385c-3.21279,-0.95013 -7.19571,-1.9318 -9.61266,-3.66685c-0.97633,-0.70087 -1.15406,-2.14629 -2,-3c-0.19562,-0.19742 -0.54895,0.21939 -0.81926,0.15483c-1.19764,-0.28604 -2.38333,-0.66376 -3.49841,-1.18603c-2.09273,-0.98018 -4.33176,-1.81088 -6.09339,-3.30651c-4.42309,-3.75523 -6.33867,-10.86299 -8.07887,-16.0429c-0.75379,-2.13414 -1.69931,-5.03651 -3.90059,-6.1998c-0.93196,-0.4925 -2.09613,-0.45767 -3,-1c-0.80845,-0.48507 -1.21331,-1.48038 -2,-2c-1.42859,-0.94361 -3.35208,-0.77963 -4.92714,-1.45079c-2.90043,-1.23593 -5.99998,-2.00308 -8.82512,-3.40259c-0.59229,-0.29341 -0.6554,-1.18871 -1.17488,-1.59741c-0.15338,-0.12068 0.06212,0.53589 -0.12987,0.57091c-1.66714,0.30409 -3.40901,-0.316 -5.08363,-0.0562c-2.23433,0.34663 -4.47003,0.6901 -6.71501,0.95935c-2.34856,0.28168 -4.16049,2.42383 -6.47822,2.89621c-2.39864,0.48887 -4.89982,0.34658 -7.34175,0.17508c-2.42337,-0.1702 -5.11988,0.0769 -7.18928,-1.19561c-0.17237,-0.106 -0.34194,-0.21558 -0.50889,-0.3285l-0.05493,0.16478l-2.83593,-0.94531c-0.6358,-0.19554 -1.23557,-0.47332 -1.7869,-0.82093c-0.73501,0.39096 -1.50406,0.88635 -2.38987,1.56266c-1.45878,1.11377 -2.4428,2.86494 -4.07665,3.70102c-1.30841,0.66954 -3.0864,-0.10461 -4.36564,0.6191c-0.99818,0.56471 -0.87617,2.29797 -1.85293,2.89896c-2.18962,1.34723 -5.18713,0.90308 -7.37738,2.24927c-3.18711,1.95889 -5.66117,6.7039 -7.70261,9.78037c-1.23798,1.75844 -1.71068,3.96542 -2.86049,5.78274c-0.58614,0.92641 -5.21119,5.52429 -6.07658,6.36032c-4.31611,4.16963 -8.11392,6.96328 -13.86927,8.79075c-4.92426,1.56357 -9.41488,1.40595 -14.43403,1.40595c-1,0 -2.00942,0.13693 -3,0c-0.418,-0.05778 -0.74191,-0.73686 -1.12987,-0.57091c-0.52766,0.22571 -0.43863,1.14957 -0.92714,1.45079c-1.07024,0.65992 -2.46119,0.65708 -3.53965,1.30348c-2.22632,1.33438 -4.13686,3.14079 -6.29105,4.58874c-2.46613,1.65762 -5.64521,2.46434 -7.54281,4.75095c-1.0418,1.25537 -1.48235,2.91784 -2.41174,4.25858c-1.53216,2.21031 -4.32246,3.80603 -4.85837,6.44152c-0.34275,1.6856 -0.24685,3.43132 -0.37027,5.14698c-4.1247,5.11969 -5.4809,9.51135 -8.71859,15.33459c-0.4089,0.73544 -1.3975,1.01682 -1.83062,1.73827c-0.45339,0.7552 -0.28815,1.77963 -0.73653,2.53781c-1.79163,3.02953 -4.61943,5.3195 -6.73181,8.13479c-1.24864,1.66415 -1.88236,3.76462 -3.26429,5.31985c-1.52815,1.71978 -3.70606,2.75224 -5.34395,4.36786c-1.82812,1.80325 -2.89154,4.4028 -5.01354,5.84877c-2.9249,1.99308 -6.82152,2.01723 -9.99462,3.5853c-1.43149,0.70741 -2.60515,1.94131 -4.12175,2.44082c-1.25957,0.41485 -2.6659,-0.00451 -3.97202,0.22497c-1.03819,0.18241 -1.95792,0.84128 -3,1c-3.57742,0.54488 -7.57899,0.09684 -11.20136,0.09684c0,0 -3.95183,0 -6.11834,-2.86858c-0.21433,-0.47937 -0.43908,-0.95673 -0.50567,-1.46969c-0.22369,-1.72329 0.27099,-3.51536 -0.10379,-5.21221c-0.0671,-0.30378 -0.17457,-0.59271 -0.30616,-0.8729c1.63822,-4.57662 7.03395,-4.57662 7.03395,-4.57662c2.76348,0 6.11936,0.60111 8.79864,0.09684c1.0359,-0.19497 1.95821,-0.83941 3,-1c0.67221,-0.10361 1.38435,0.44481 2.02798,0.22497c0.77001,-0.26301 1.15227,-1.19167 1.87824,-1.55918c1.23668,-0.62603 2.59638,-0.97747 3.92343,-1.37776c1.34406,-0.40542 2.95023,-0.20627 4.08195,-1.03695c1.37419,-1.00865 1.79216,-2.93493 2.98646,-4.15123c1.3791,-1.40452 3.34802,-2.16121 4.65605,-3.63214c1.20079,-1.35034 1.6518,-3.23431 2.73571,-4.68015c1.79111,-2.38917 3.85767,-3.27728 5.2682,-5.86521c2.21409,-4.06226 3.79388,-7.65459 5.96562,-11.9336c1.20901,-2.38212 2.16264,-5.78574 4.74863,-6.45573c-0.80625,-6.21234 3.45818,-9.71591 6.77136,-14.4115c1.30112,-1.84401 2.07621,-4.06601 3.58827,-5.74142c2.9471,-3.2655 6.8933,-4.89029 10.45719,-7.24905c2.61805,-1.73275 5.01756,-3.79478 7.70895,-5.41126c0.73069,-0.43885 1.72515,-0.26526 2.46034,-0.69652c1.14795,-0.67337 1.80304,-2.15074 3.07286,-2.54921c5.08473,-1.5956 10.92231,-0.06315 16.1311,-0.53441c2.42278,-0.2192 4.62305,-1.53068 6.8689,-2.46559c0.60905,-0.25354 1.39654,-0.05875 1.92714,-0.45079c2.1927,-1.62007 3.64101,-4.06928 5.63969,-5.92342c0.27451,-0.25466 0.74978,-0.30793 0.92342,-0.63968c1.07661,-2.05694 1.87968,-4.26716 3.13951,-6.21726c3.18794,-4.76337 7.1743,-11.16216 12.29739,-14.21963c1.48181,-0.88435 3.17775,-1.37998 4.84608,-1.82102c0.57296,-0.15147 1.30753,0.43257 1.77654,0.07028c0.99499,-0.76857 1.0576,-2.47353 2.14707,-3.10104c1.67563,-0.96513 3.89579,-0.53438 5.63436,-1.3809c0.89831,-0.4374 1.11935,-1.70578 1.92334,-2.29898c5.61119,-4.13998 6.84198,-4.02493 13.24388,-6.20359l4.37171,-0.38487c0,0 1.6061,0 3.33182,0.74324c5.34686,-2.01512 10.73086,-2.74324 16.66818,-2.74324c0,0 4.29114,0 6.38172,3.24585c1.80496,-0.23716 3.62162,-0.37436 5.61828,-0.24585c1.96188,0.12627 4.00994,-0.06522 5.87013,0.57091c1.1697,0.4 1.72167,1.84529 2.82512,2.40259c0.87722,0.44305 1.98279,0.15783 2.90685,0.49236c1.49158,0.53997 2.81137,1.47695 4.26803,2.10505c2.30126,0.99229 4.89415,1.31079 7.07286,2.54921c0.81965,0.4659 1.19155,1.51493 2,2c0.90387,0.54233 2.11255,0.4312 3,1c1.15789,0.74214 6.88215,6.55713 7.31833,7.2512c1.26194,2.00807 1.85406,4.36601 2.78108,6.549c0.3915,1.18476 2.20044,8.63201 3.92113,9.9571c2.54439,1.95941 6.91431,1.74226 9.58893,3.66228c0.97633,0.70087 1.15406,2.14629 2,3c0.19562,0.19742 0.54791,-0.21488 0.81926,-0.15483c2.05838,0.4555 4,1.33334 6,2l3.93159,2.81182c0,0 5.3033,5.3033 0,10.6066z"/><path d="M-18.79844,273c-1.97012,1.17232 -5.48747,2.32065 -9.00481,-1.1967c-5.3033,-5.3033 0,-10.6066 0,-10.6066l6.3033,-3.1967c1,0 2,0 3,0c2.87115,0.05232 7.54654,-0.2634 10.05702,-1.87988c2.14409,-1.38057 3.58907,-3.4097 5.14292,-5.37504c1.61654,-2.04464 3.8514,-3.60598 5.2119,-5.82922c0.49437,-0.80786 0.42111,-1.86695 0.8508,-2.711c1.619,-3.18023 4.44499,-5.81425 6,-9c0.4925,-1.00898 0.5382,-2.21014 1.09402,-3.18566c2.55184,-4.47875 5.57476,-8.78124 8.15652,-13.28365c3.26149,-5.68781 4.59908,-11.15169 11.24485,-13.51252c-0.19415,-0.39464 0.8986,-3.18711 1.78518,-3.86826c2.63663,-2.0257 5.89318,-3.1413 9.03848,-4.21944c1.10452,-0.37861 2.34622,0.08711 3.50193,-0.07913c4.26521,-0.61354 8.71312,-1.89854 13.11774,-0.95935c0.1608,0.03429 0.32141,0.07016 0.48177,0.10763c0.9404,-0.18546 1.89083,-0.30156 2.8558,-0.31703c0.8862,-0.01421 1.26445,0.93562 1.6883,1.87865c0.24107,0.11339 0.47975,0.23138 0.71575,0.35403c0.63072,0.32778 1.00006,1.00276 1.48076,1.53779c0.79171,0.02782 1.65806,-0.13052 2.2715,0.31559c0.34233,0.24895 0.68048,0.50826 1.01204,0.77782c1.49383,0.16226 2.99269,0.35471 3.30561,1.47324c0.76423,-0.48993 1.74864,-0.55039 2.61539,-0.83969c2.65021,-0.88456 4.64783,-1.47522 7.29929,-2.72668c4.1106,-1.94015 8.0738,-4.18551 12.20229,-6.0873c1.93271,-0.8903 2.95743,-1.11249 4.10875,-1.33879c0.07333,-0.14439 0.15147,-0.2869 0.23487,-0.42735c1.76766,-2.97678 5.29469,-4.57298 8.39257,-6.11861c4.77597,-2.38288 9.09283,-5.56588 13.83879,-7.92352c1.6882,-0.83864 3.74427,-0.86852 5.33162,-1.88522c1.29161,-0.82728 0.76354,-3.02422 1.58364,-4.3204c2.90964,-4.59878 7.09586,-6.6744 11.88827,-8.69468c10.67784,-7.01404 25.94779,-4.58408 36.78675,0.9003c3.36759,1.70396 6.17561,4.42873 9.46932,6.25054c1.47647,0.81666 10.54731,5.0164 11.53885,6.18352c1.67907,1.9764 2.74468,3.50013 3.3758,4.85435c1.11862,-0.03091 2.22727,-0.05105 3.3209,-0.05105c2.6619,0.03819 5.28493,0.65285 7.91637,1.05619c1.40535,0.21541 2.90407,-0.1714 4.25701,0.26562c1.51945,0.4908 2.69551,1.72288 4.12175,2.44083c5.41922,2.72795 8.70565,1.45397 9.16836,11.4764c0.04776,1.03439 -1.02036,2.755 -2.53751,4.65081c0.35642,0.28983 0.70806,0.58959 1.0488,0.90081c0.66324,-0.90298 1.43932,-1.63313 2.48628,-1.9032c12.01893,-3.1004 14.64813,1.9501 13.46803,12.48269c-0.19721,1.7601 -2.22709,2.75452 -3.34064,4.13179c-0.92824,1.10829 -1.75527,2.31063 -2.76292,3.34513c2.15122,2.51075 1.65423,6.67443 1.6645,10.03934c0.00536,1.75575 -0.81132,3.4175 -1.14718,5.14084c-0.42018,2.15598 -0.53651,4.37615 -1.12026,6.49369c-0.32628,1.18356 -4.53639,11.35031 -4.96129,12.10777c-0.38119,0.67953 -1.39124,0.86725 -1.73481,1.56656c-0.60603,1.23354 -0.3867,2.77006 -1,4c-0.3953,0.79275 -1.56691,1.02866 -1.91394,1.84369c-0.66585,1.56382 -0.32695,3.43926 -1,5c-0.25224,0.58493 -0.83973,0.94091 -1.35392,1.35073c-0.14041,0.57384 -0.25819,1.1686 -0.36219,1.77727c0.43408,0.04202 0.86107,0.09462 1.27693,0.15488c7.33029,1.06219 9.06025,9.96733 11.53813,14.83071c1.6707,3.2791 3.96141,6.25712 5.30007,9.6852c1.13745,2.91281 1.06641,6.1867 2.05618,9.15295c0.70776,2.1211 2,4 3,6c0.50226,2.63342 0.61787,5.37104 1.50679,7.90027c0.23945,0.68131 1.19521,0.81911 1.72876,1.30577c0.87863,0.80141 1.7487,1.62392 2.49677,2.54838c3.58256,4.42739 8.17827,9.22889 10.84328,14.27412c0.86641,1.64023 1.42279,3.4553 1.75981,5.27943c0.18388,0.99527 -0.49941,2.0538 -0.22497,3.02799c0.2459,0.87285 1.34716,1.29596 1.68067,2.13923c0.77475,1.95894 1.24492,4.03882 1.58495,6.11778c0.54756,3.34787 0.05619,7.52954 0.05619,10.91637c0,1.97261 0.08039,9.30003 -0.38488,10.37171c-2.75068,6.33581 -5.68123,8.74924 -11.91376,10.03145c-1.72558,0.355 -3.53389,-0.15244 -5.28499,0.04065c-1.2293,0.13555 -2.36731,0.75034 -3.58976,0.93793c-3.18982,0.4895 -16.13787,1.73265 -19.28182,2.04513c-3.79042,0.68094 -7.53256,1.73404 -11.37126,2.04283c-4.73763,0.38109 -9.51035,-0.18786 -14.25879,0.01883c-10.12781,0.44084 -20.18547,1.95827 -30.37475,2.01137c-10.30493,0.05371 -21.1321,-0.96524 -31.36647,-0.0302c-3.52162,0.32175 -6.94471,1.34261 -10.43239,1.9269c-13.65602,2.28776 -27.40991,3.91933 -41.09425,6.0152c-4.18354,0.64074 -8.30758,1.74952 -12.5283,2.06266c-13.49869,1.00146 -27.3309,-1.26254 -40.80023,-0.01923c-3.06017,0.28248 -5.95218,1.60602 -9,2c-4.35917,0.56349 -9.36611,0.04478 -13.81838,0.04478c-3.66667,0 -7.33333,0 -11,0c-1.21826,0 -6.79687,0.03061 -7.41831,-0.13533c-8.67576,-2.31667 -12.76512,-7.88068 -18.88499,-14.06137c-2.27196,-2.29454 -4.85036,-4.32967 -6.78102,-6.91797c-0.44993,-0.60319 -0.84773,-1.24001 -1.21233,-1.89772c0.07013,-6.88048 0.01726,-13.76278 0.01726,-20.64424c0,-3.75235 0,-7.50469 0,-11.25704c0,-1.61587 -0.73249,-3.31763 -0.20063,-4.84346c1.04717,-3.00418 3.08442,-5.6518 3.81765,-8.74762c0.2307,-0.97407 -0.46595,-2.03605 -0.18648,-2.99727c0.31477,-1.08261 1.57045,-1.72906 1.87617,-2.81426c0.38221,-1.35669 0.32181,-5.89326 0.32181,-7.8019c0,-4.77965 0.0184,-9.55596 -0.09684,-14.33458c-1.56057,-4.68171 -0.40486,-9.10232 -0.93809,-14.07129c-0.10551,-0.98318 -0.8108,-1.83366 -0.93809,-2.81426c-0.22369,-1.72329 0.27099,-3.51536 -0.10379,-5.21221c-0.15766,-0.71383 -0.53826,-1.34562 -0.93095,-1.97486c2.12266,-1.47463 4.65863,-1.47463 4.65863,-1.47463c1.95671,0.1903 4.03196,-0.12629 5.87013,0.5709c2.88272,1.09339 3.07434,3.09517 5.42501,4.19173c1.17577,0.54849 2.53267,0.69441 3.64785,1.35748c0.73077,0.43451 0.99062,1.47558 1.75226,1.85338c1.23121,0.61074 2.80992,0.31255 4,1c1.45656,0.84138 2.3512,2.42392 3.69009,3.44218c0.10748,0.08174 0.21791,0.15858 0.33099,0.23099c-0.1342,-0.27033 -0.27447,-0.53556 -0.42452,-0.79257c0,0 -3.3541,-6.7082 3.3541,-10.06231c1.15295,-0.57647 2.20681,-0.85571 3.1616,-0.92285c1.52838,-7.10043 8.03971,-6.62112 13.1925,-6.86894c0.51327,-0.02469 1.04914,-0.11509 1.58688,-0.20338c0.50941,-5.66517 3.12286,-9.43956 5.70492,-14.65073c0.87463,-1.67708 1.53895,-3.48188 2.62389,-5.03123c0.81119,-1.15843 2.17801,-1.84921 3,-3c0.86646,-1.21304 1.13134,-2.78853 2,-4c1.0569,-1.47399 3.53057,-2.01361 3.90613,-3.78805c0.25573,-1.20828 -0.29333,-2.58719 0.24909,-3.69674c0.79089,-1.6178 2.5735,-2.55933 3.54922,-4.07286c0.6643,-1.03046 0.49436,-2.51433 1.29556,-3.44234c0.85133,-0.98609 2.73536,-0.8345 3.37611,-1.96877c0.75427,-1.33522 -0.65625,-3.41314 0.32832,-4.58888c1.9894,-2.37567 5.03141,-3.65624 7.77778,-5.09115c0.53044,-0.27714 1.14362,-0.32494 1.75455,-0.37975c-1.79965,-2.62476 -3.40195,-5.38646 -4.90553,-7.98015c-1.7836,0.18877 -3.5527,0.5859 -5.33054,0.83784c-0.82487,0.11689 -1.66805,-0.0075 -2.49807,-0.07913c-0.32753,-0.02827 -0.78082,-0.49407 -0.96152,-0.21944c-0.32967,0.50107 0.27483,1.31191 -0.07691,1.79775c-1.22656,1.69417 -2.95793,2.95793 -4.4369,4.4369c-0.95827,0.31942 -2.47136,0.07254 -2.85867,1.00545c-0.63993,1.5414 -3.04115,6.40251 -3.59749,7.37912c-1.73303,3.04222 -3.30248,6.17813 -5.10694,9.17853c-3.02342,5.02725 -7.03631,10.02235 -9.64252,15.35215c-0.51015,1.04328 -0.52773,2.30795 -1.1492,3.289c-1.89483,2.99122 -4.56221,5.41702 -6.7881,8.17078c-2.52193,3.12 -5.28927,6.53978 -8.85708,8.62496c-5.1973,3.03752 -12.10649,4.05341 -17.94298,4.12012c-0.0995,0 -0.19899,0 -0.29849,0zM156.81939,247.36277c0.32987,0.13737 0.6635,0.31317 0.99028,0.51073c0.15949,-0.57801 0.28593,-1.1651 0.39594,-1.75667c-0.10864,-0.85778 -0.21917,-1.71534 -0.33203,-2.57259c-0.22095,0.41246 -0.43405,0.82891 -0.6362,1.25089c-0.23315,0.48669 -0.41979,0.99236 -0.58755,1.50575c0.03135,0.26848 0.06049,0.51227 0.08743,0.7291c0.02711,0.11097 0.05449,0.2219 0.08212,0.33279zM199.39827,193.0525c0.66213,0.35401 1.27772,0.79578 1.89067,1.24253c0.78635,-0.50966 1.68373,-0.89966 2.61542,-1.22309c-0.46597,-0.05553 -0.93368,-0.08463 -1.40428,-0.07194c-1.00926,0 -2.04556,0.02066 -3.10181,0.0525zM32.96755,283.64489c0.24099,0.09461 0.48578,0.18985 0.73355,0.28567c-0.01055,-0.42416 -0.01612,-0.8443 -0.01693,-1.25687c-0.19378,0.35199 -0.42898,0.67816 -0.71661,0.9712z"/><path d=""/><path d=""/><path d=""/></g><path d="M1.68941,256.62213c-2.05386,0.58149 -4.07612,1.31354 -6.10732,2.01888c1.36355,0.52792 2.68308,1.21234 4.11936,1.45584c0.27887,0.04728 0.58984,-0.05437 0.88992,-0.13608c0.03477,-0.27447 0.11255,-0.55202 0.18986,-0.79349c0.27411,-0.85615 0.57362,-1.70787 0.90818,-2.54515zM33.11348,225.52881c-1.9733,2.83627 -4.85456,5.21439 -5.16963,8.88756c-0.20194,2.35433 0.4803,4.82756 -0.21594,7.08563c-0.85958,2.78782 -2.66285,5.21008 -4.31632,7.61359c-0.69001,1.00301 -1.98765,1.49175 -2.65023,2.51309c-1.51094,2.32903 -1.49332,5.41004 -2.88143,7.8143c-0.50733,0.87871 -1.61415,1.30532 -2.11857,2.1857c-2.40683,4.20074 -3.63854,9.567 -7.56607,12.39782c-1.82952,1.31865 -4.44729,0.79265 -6.69524,0.9735c-4.141,0.33315 -7.54521,-1.09766 -11.37171,-2.38488c-2.26144,-0.76074 -6.94039,-2.18366 -8.49684,-3.68984c-0.1423,-0.13771 -0.28353,-0.27642 -0.42375,-0.41608l-0.06699,0.09379l-6.91866,-4.9419c-1.9474,-1.35471 -3.22205,-3.60905 -3.22205,-6.1611c0,-3.3738 2.22768,-6.22729 5.29236,-7.16981l1.58188,-0.52729c0.56092,-0.56092 1.12185,-1.12185 1.68277,-1.68277c4.84561,-1.82085 9.8623,-3.39211 14.84608,-4.82102c2.62648,-0.75305 5.1707,-2.00044 7.89554,-2.20225c0.23143,-0.01714 0.43944,-0.02792 0.62586,-0.033c0.06769,-0.16191 0.12036,-0.32325 0.1317,-0.48022c0.0741,-1.02537 -0.08568,-2.056 -0.05619,-3.08363c0.0591,-2.05974 -0.18379,-4.17578 0.32181,-6.17338c0.29489,-1.16511 1.61994,-1.85982 2,-3c0.31623,-0.94868 -0.36629,-2.0695 0,-3c2.00018,-5.08111 3.2126,-5.15596 6.37812,-8.58154c1.46181,-1.5819 2.35953,-3.84609 4.26113,-4.85764c1.85982,-0.98933 8.72828,-0.9671 12.43488,-0.91594c0.91066,-0.183 1.92211,-0.19855 2.9849,0.10165c1.9817,0.26923 6.61915,1.52931 6.61915,7.42684c0,4.51847 -2.72221,6.31473 -4.88657,7.02881z"/></g><path d="M62.85418,251.2082c-6.7082,3.3541 -10.06231,-3.3541 -10.06231,-3.3541l0.4049,-0.0508c-1.2086,-1.47773 -2.90566,-2.66518 -3.6258,-4.43318c-1.02176,-2.50851 -1.06852,-13.18466 0.31654,-15.40906c1.46934,-2.35976 3.99908,-3.98435 6.46456,-5.26842c4.79502,-2.49734 14.63532,-3.29526 19.37123,-4.47914c4.43139,-1.10776 8.54,-3.74523 13.09927,-4.02349c0.18281,-0.01116 0.3656,-0.0209 0.54837,-0.02929l-0.01131,-0.0735l12.8666,-1.97948c0.41401,-0.07084 0.83961,-0.10773 1.27383,-0.10773c4.14214,0 7.5,3.35786 7.5,7.5c0,2.07107 -0.83947,3.94607 -2.1967,5.3033l-1.5052,1.5052c-0.90564,1.55642 -1.65314,3.22087 -2.75979,4.63996c-2.09632,2.68817 -4.93685,4.77661 -6.83087,7.61095c-2.61488,3.91308 -4.34757,8.3491 -6.59684,12.48318c-2.06275,3.79126 -4.80536,7.25619 -6.33817,11.29092c-0.63329,1.66696 -0.17903,3.54695 -0.2474,5.34305c0.07308,0.07374 0.14694,0.15268 0.22267,0.22651c5.00497,-3.81979 10.10733,-7.52864 14.63704,-11.88797c3.47328,-3.34263 6.55071,-7.07359 9.82607,-10.61038c4.52988,-4.82792 6.44298,-7.22855 13.40852,-11.32269c4.18075,-2.45732 8.61544,-4.63206 13.29292,-5.91203c2.81975,-0.77161 5.86625,0.21867 8.76937,-0.12521c2.84741,-0.33728 5.57736,-1.33921 8.38788,-1.9071c2.78658,-0.56305 5.80817,-0.32036 8.39635,-1.49654c5.65912,-2.57175 11.26154,-7.12644 18.03415,-6.64114c8.18303,0.58637 12.17024,2.34698 14.29937,10.77685c2.47864,9.81369 -2.38559,15.09675 -8.5537,22.54365c-3.18315,3.8431 -6.45063,7.84529 -10.68528,10.4853c-12.00959,7.48716 -26.0329,7.04167 -39.05985,10.92246c-6.84258,2.03843 -13.2311,5.61244 -20.22298,7.05804c-4.82601,0.9978 -9.75378,1.41699 -14.63066,2.12548c-3.33492,0.54285 -6.97794,1.15612 -10.61232,1.33062c-4.02675,3.07565 -8.05615,6.11016 -11.9298,9.17756c-4.78382,3.78812 -18.02487,12.90868 -19.40342,13.48319c-2.06089,0.85888 -4.4027,-0.76419 -6.57308,-1.28803c-5.333,-1.28718 -10.48381,-3.72155 -14.5423,-7.44922c-0.82585,-0.75853 -0.9745,-2.19475 -1.95611,-2.73681c-0.8754,-0.4834 -2.20588,0.60776 -3,0c-2.86293,-2.19109 -6.68897,-4.3845 -7.35774,-7.92709c-0.76978,-4.07769 0.70823,-8.94932 3.61227,-11.91354c2.27345,-2.32057 6.38008,-1.2967 9.61559,-1.58846c5.52719,-0.49841 11.42542,0 17,0c0,0 7.5,0 7.5,7.5c0,7.5 -7.5,7.5 -7.5,7.5c-1.54336,0 -3.19882,0.08217 -4.89621,0.17461c2.01676,0.9116 4.48701,0.89463 6.26792,2.21026c0.07818,0.05775 0.02448,0.17116 -0.07735,0.29244c5.28582,-4.46948 10.52887,-8.77996 15.84208,-13.09665c-0.97162,-0.91886 -1.77394,-1.96247 -2.06554,-3.21054c-1.19118,-5.09849 -1.5683,-10.61315 -0.34333,-15.70363c1.29341,-5.37488 5.07648,-9.82254 7.66183,-14.70908c2.15929,-4.08124 4.04281,-8.33099 6.43445,-12.27508c-5.48118,1.38322 -11.7011,2.18596 -16.12076,3.12174c-1.36344,0.28868 -2.66641,0.9047 -4.01195,1.25396c-0.02485,0.48516 -0.10577,0.97395 -0.19114,1.44197c-0.00094,0.00516 -0.00232,0.00947 -0.0041,0.01298l2.2123,3.63292c0,0 3.3541,6.7082 -3.3541,10.06231zM111.32285,265.29239c0.1333,-0.02577 0.26652,-0.052 0.39966,-0.07869c6.8503,-1.37362 13.07798,-4.95795 19.77702,-6.94196c11.33051,-3.35568 24.55868,-2.71264 34.94015,-9.07754c2.98013,-1.82712 5.03022,-4.86884 7.31472,-7.5147c2.0266,-2.34716 4.04497,-4.7471 5.59263,-7.43429c0.17273,-0.2999 0.07363,-0.65498 -0.03522,-1.01609c-0.7507,0.19605 -1.9383,0.19512 -2.58715,0.43337c-5.3961,1.98141 -9.02993,4.95764 -14.69737,6.18038c-5.21801,1.12577 -10.40684,2.49294 -15.70885,3.11236c-2.39429,0.27972 -4.89128,-0.70686 -7.23063,-0.12521c-7.36141,1.83035 -13.91039,7.3487 -18.88503,12.78147c-2.98293,3.20437 -5.81759,6.55476 -8.87994,9.68091z"/></g><path d="M347.14207,221.10998c-1.48703,-0.51866 -2.96445,-1.06342 -4.42742,-1.6464c0,0 -6.96358,-2.78543 -4.17815,-9.74901c2.12387,-5.30968 6.6769,-4.95133 8.71984,-4.48159c0.53598,-0.32269 1.15596,-0.60942 1.87202,-0.84811c6.67423,-2.22474 9.17469,3.89806 9.45895,4.66541c1.39341,0.43057 2.78757,0.85842 4.17643,1.29949c1.66399,0.52845 3.22215,1.42302 4.9377,1.74708c2.55457,0.48254 5.19889,-0.09684 7.79863,-0.09684c1.77014,0 5.08986,0.6848 6.70486,-0.23736c3.12655,-1.78525 7.78273,-7.26552 8.75697,-8.32017c0.1622,-0.17559 6.23983,-7.34375 7.15829,-8.88545c1.23453,-2.07225 1.98215,-4.41917 3.29556,-6.44234c1.75824,-2.70838 4.49774,-4.63469 6.78102,-6.91797c3.32057,-3.32057 5.69055,-5.6673 9.91797,-7.78102c5.82371,-5.28703 13.88355,-5.41568 21.38533,-5.41568c5.42221,0 10.30724,-0.04826 15.64541,1.18272c1.81328,0.41814 3.67121,0.74223 5.38874,1.45843c0.83697,0.34901 1.31482,1.30295 2.13923,1.68067c0.26881,0.12316 0.53113,-0.31104 0.82662,-0.32181c2.6649,-0.09716 5.33333,0 8,0c2.42654,0 4.94427,0.86931 7.27685,0.20063c1.43299,-0.41079 2.55341,-1.64 4,-2c1.1489,-0.28591 2.39022,0.36031 3.54977,0.12118c0.47921,-0.09883 0.62501,-0.76425 1.01313,-1.06219c0.86737,-0.66583 1.85932,-1.1567 2.73336,-1.81376c3.92833,-2.95315 7.85601,-6.01173 11.48391,-9.32574c3.12128,-1.18726 5.98461,-3.09165 9.21984,-3.91949c1.4606,-0.37374 3.0301,0.11511 4.52178,-0.10379c1.04292,-0.15304 1.95195,-0.88731 3,-1c4.19492,-0.45103 8.91661,-0.10955 13.20137,-0.09684c5.65998,0.01678 10.42575,-0.41629 15.87222,2.79812c1.54418,0.91135 1.46976,3.29677 2.50766,4.7589c0.8186,1.15321 2.32321,1.75825 3,3c1.26204,2.31554 1.77879,4.96533 2.69013,7.43999c1.79484,4.87374 3.14347,9.90356 4.9198,14.78407c1.18489,3.2555 3.1019,6.35606 3.454,9.80255c0.26136,2.55839 -0.26999,5.15355 -0.04065,7.71501c0.094,1.04989 0.88731,1.95195 1,3c0.35634,3.31423 -0.70471,6.74201 0,10c0.4457,2.06053 1.33333,4 2,6c0.19882,12.73126 0.09684,25.46853 0.09684,38.20137c0,4.77573 -0.56482,11.18841 -0.05619,16.08363c0.14203,1.36701 0.85444,2.63336 1,4c0.68971,6.47556 0.05619,13.40889 0.05619,19.91637c0,1.33333 0.0887,2.66962 0,4c-0.01967,0.29503 -0.44057,0.55583 -0.32181,0.82662c0.4827,1.10066 1.73258,1.82828 2,3c0.53257,2.33353 0.27697,4.78027 0.32181,7.17338c0.09992,5.3324 0,10.66667 0,16c0,7.80739 2.11108,17.7689 -5.3267,23.23166c-2.06506,1.51671 -4.93716,1.37261 -7.40621,2.05719c-6.91619,1.91761 -12.37283,2.71944 -19.39348,3.20183c-28.67268,1.97011 -57.60242,1.00931 -86.3736,1.00931c-3.76878,0 -8.93212,0.78053 -12.50799,-0.15317c-4.35312,-1.13664 -8.22765,-3.64358 -12.36213,-5.41774c-3.60023,-1.54491 -7.44397,-2.56098 -10.88376,-4.43615c-1.69916,-0.92628 -3.10786,-2.30707 -4.67606,-3.44104c-2.92259,-2.11334 -10.11193,-6.99149 -12.87336,-9.74861c-2.81454,-2.81014 -4.78376,-6.3614 -7.3626,-9.38929c-1.09151,-1.28157 -2.65162,-2.18722 -3.49854,-3.64205c-2.14944,-3.69229 -3.38293,-7.85715 -5.39095,-11.62822c-1.10805,-2.08093 -2.74553,-3.84173 -3.93144,-5.87929c-8.21297,-14.11115 -14.92421,-31.56776 -14.97667,-48.02542c-0.57529,-2.87646 -1.02267,-5.80564 -1.0365,-8.73903c-0.00629,-1.33332 -0.12364,-2.67241 0,-4c0.06816,-0.73185 0.77421,-1.42353 0.5709,-2.12987c-0.15874,-0.55152 -1.15112,-0.43768 -1.45078,-0.92714c-0.42816,-0.69934 -0.11378,-1.71626 -0.58042,-2.39053c-0.27264,-0.39396 -0.99738,-0.13062 -1.37149,-0.42991c-2.23809,-1.79048 -4.86591,-3.33262 -6.37641,-5.76844c-0.94463,-1.5233 0.02744,-3.64521 -0.51966,-5.3521c-0.39055,-1.21847 -1.52137,-2.06063 -2.20333,-3.14328c-1.06533,-1.69128 -2.05734,-3.44223 -2.92682,-5.24874z" fill="#9fc7d1"/><path d="M17.73544,315.00955c-0.07825,-0.00267 -0.15671,-0.00586 -0.2354,-0.00956c-1.96377,-0.09243 -4.01391,0.07671 -5.87013,-0.5709c-1.42444,-0.49697 -2.57955,-1.38732 -3.57307,-2.50447l-0.76444,-0.25481c-3.06469,-0.94252 -5.29236,-3.79602 -5.29236,-7.16981c0,-4.14214 3.35786,-7.5 7.5,-7.5c0.63027,0 1.24239,0.07774 1.82728,0.22417c-0.51757,-1.33054 -0.63795,-3.00922 0.0576,-5.09588c2.37171,-7.11512 9.48683,-4.74342 9.48683,-4.74342c0.58211,0.56991 1.6219,-0.16314 2.42692,-0.28803c1.81413,-0.28144 3.88593,0.73994 5.50613,-0.12334c2.40923,-1.28371 3.58603,-4.13285 5.59937,-5.97642c2.39731,-2.19516 4.86187,-4.32035 7.40292,-6.3474c2.3931,-1.90903 5.2255,-3.28786 7.38965,-5.45299c2.17316,-2.17414 3.53965,-5.03278 5.47701,-7.41944c2.09205,-2.57723 4.76169,-4.69334 6.59941,-7.45768c2.10882,-3.17214 2.96582,-7.07899 5.14256,-10.2049c2.51256,-3.60817 6.46316,-5.99716 9.28425,-9.36959c1.54227,-1.84368 2.46906,-4.14689 4,-6c2.35608,-2.85189 5.42762,-4.42762 8,-7c1.82881,-2.74322 2.97323,-4.97418 6.10482,-6.77158c3.24824,-1.86434 7.93292,-2.52867 11.40011,-4.21087c1.43659,-0.697 2.60515,-1.94131 4.12175,-2.44083c1.25957,-0.41486 2.66285,-0.01354 3.97201,-0.22497c2.08122,-0.3361 3.92008,-1.65593 6,-2c2.16496,-0.35813 4.40113,0.16496 6.58276,-0.07129c2.86173,-0.3099 5.56083,-1.57307 8.41724,-1.92871c3.96668,-0.49388 10.31752,-0.62222 14.40273,0c1.04207,0.15872 1.9641,0.80503 3,1c2.85491,0.53733 5.82348,-0.32042 8.71501,-0.04065c2.57564,0.2492 5.11466,0.99078 7.70223,0.96936c10.60437,1.72586 21.83938,3.06774 32.64236,2.01095c3.45299,-0.33779 5.32655,-1.51526 8.82266,-1.98031c0.58257,-0.07749 1.16311,0.36119 1.74299,0.26562c1.42514,-0.2349 1.79798,-2.35381 3.0447,-3.08312c1.54941,-0.90639 3.40883,-1.1691 5,-2c1.44465,-0.75439 2.10762,-2.5126 3.37377,-3.53876c1.9162,-1.55302 3.70272,-3.30117 5.81193,-4.57982c1.16015,-0.7033 2.59722,-0.82402 3.80906,-1.43397c3.57286,-1.79831 7.3706,-4.00324 10.70703,-6.24029c6.79192,-5.44458 13.02751,-9.70203 21.32999,-12.14676c1.38445,-0.40766 5.94007,-2.1033 6.89554,-2.20225c3.05097,-0.31598 6.13417,-0.12046 9.20137,-0.09684c1.42714,0.01099 2.88224,0.50382 4.27685,0.20063c1.45669,-0.31668 2.52809,-1.76397 4,-2c1.63709,-0.26252 16.74018,-0.20063 18.72315,-0.20063c9.19656,0 18.8467,-1.00749 27.6021,2.46586c2.01153,0.79799 3.99631,1.72919 5.78323,2.94982c0.90235,0.61639 1.17034,1.99492 2.15361,2.47176c1.37567,0.66714 3.1307,0.1326 4.52234,0.76576c1.90392,0.86624 3.41576,2.41529 5.12364,3.62293c4.56555,2.78466 8.17584,5.33102 11.61515,9.46895c1.53645,1.84854 2.45081,4.16212 4,6c2.3727,2.81485 5.05976,5.372 7.25407,8.32802c0.4895,0.65942 0.67081,1.54053 1.24916,2.12359c3.20895,3.23509 8.04324,5.55425 11.99183,7.56594c2.14176,1.09116 3.83989,2.94562 6,4c1.00898,0.4925 2.20989,0.53863 3.18566,1.09402c1.48824,0.84708 2.59607,2.28915 4.12237,3.06556c2.92645,1.48866 14.18097,4.76338 16.39233,5.14414c1.9857,0.34191 4.05325,-0.30014 6.04476,0.00613c2.39851,0.36886 4.60421,1.61388 7,2c1.63236,0.26308 3.30649,-0.04833 4.95974,-0.07249c3.88789,0.01768 7.74769,0.66221 11.6186,1.02555c8.41617,0.78998 15.46878,-0.79584 23.10696,4.65044c1.86906,1.3327 2.22593,4.30245 4.21742,5.44412c0.91448,0.52425 2.1025,0.44719 3,1c1.89021,1.16426 3.38722,2.88281 5.21727,4.1395c1.39549,0.95828 2.9258,1.76064 4.14305,2.93708c0.8642,0.83522 1.18024,2.12111 2,3c3.87027,4.14945 8.85592,4.62138 4.6258,13.17343c-2.30673,4.66352 -7.01862,7.68382 -10.6258,11.43318c-2.78545,2.89524 -5.41212,5.9858 -8.54838,8.49677c-9.62666,7.70734 -20.59713,12.90848 -29.97116,20.97623c-2.06654,1.60396 -3.96228,3.4563 -6.19962,4.81187c-4.48355,2.7165 -9.85784,3.69736 -14.99508,4.74156c-16.08975,3.27041 -32.48308,3.03387 -48.68406,5.11547c-15.42131,1.98143 -30.61959,5.57345 -46.13074,7.01473c-4.52253,0.42023 -9.09223,0.33665 -13.59311,0.94648c-2.58966,0.35088 -5.04273,1.38652 -7.59997,1.92502c-9.27708,1.95356 -15.94485,2.72521 -25.52051,4.09319c-11.09118,1.58448 -22.13405,2.86138 -33.27552,4.03417c-6.17885,0.6504 -12.45436,0.6759 -18.53805,1.9368c-4.74384,0.9832 -9.43366,2.21111 -14.15048,3.31666c-5.1303,1.18263 -10.17697,2.81738 -15.39089,3.54788c-2.15082,0.30134 -17.49928,0.23981 -20.70572,0.23987c-1.59269,0.00003 -11.45497,0.05963 -12.72315,-0.20063c-1.46028,-0.29968 -2.55502,-1.6336 -4,-2c-1.12434,-0.28509 -2.34084,0.33133 -3.47822,0.10379c-2.06722,-0.41357 -3.91351,-1.69836 -6,-2c-2.39679,-0.3465 -4.84732,0.22767 -7.26466,0.08235c-2.68258,-0.16127 -5.31725,-0.84163 -8,-1c-3.06384,-0.18087 -6.15349,0.28884 -9.20751,-0.01581c-3.70837,-0.36993 -7.29001,-1.64667 -11,-2c-3.34005,-0.31809 -6.73417,0.39309 -10.06549,-0.00619c-14.73859,-1.76653 -30.17547,-6.30702 -44.02581,-11.49173c-2.04001,-0.76365 -3.78684,-2.20237 -5.83725,-2.93764c-7.83102,-2.80816 -16.37857,-4.44238 -24.36595,-6.79696c-5.63666,-1.41509 -11.2782,-2.89855 -16.79655,-4.72762z" fill="#96bcc5"/></g><path d="M-8.60124,56.51734c-0.92384,-3.56561 -1.3774,-6.99337 -1.89048,-10.58499c-0.19436,-1.36055 -0.93474,-2.62718 -1,-4c-0.02733,-0.57495 1.0504,-1.0804 0.7356,-1.56227c-0.42126,-0.64482 -1.58193,-0.23651 -2.20581,-0.6882c-2.33135,-1.68787 -9.17338,-10.09801 -9.38535,-10.94276c-0.72009,-2.86976 0.89896,-5.88898 1.91948,-8.66613c0.3252,-0.88495 1.49023,-1.20689 2,-2c1.67174,-2.6009 1.50652,-6.19613 3.427,-8.61917c4.23258,-5.34016 13.61626,-7.92663 19.39339,-10.4876c6.59509,-1.89979 13.01286,-4.39378 19.63447,-6.19899c3.16377,-0.86252 6.52607,-0.91011 9.65272,-1.89875c3.16837,-1.00183 5.96254,-2.9865 9.11553,-4.0357c1.96831,-0.65498 4.1333,-0.49807 6.13585,-1.03939c4.42772,-1.1969 8.75899,-2.7825 12.95964,-4.6242c2.51071,-1.10077 4.62788,-2.98925 7.14946,-4.06489c4.93954,-2.10707 10.25077,-3.2235 15.27839,-5.11079c4.73904,-1.77896 9.24885,-4.36277 14.21512,-5.3422c0.89995,-0.17748 11.30477,-0.13533 12.4183,-0.13533c8.33334,0 16.66666,0 25,0c24.33334,0 48.66666,0 73,0c10.66651,0 21.33358,-0.03858 32,0c3.34682,0.0121 6.71823,-0.33421 10.04026,0.0725c2.52047,0.30857 4.84076,1.58127 7.33551,2.05476c7.09307,1.34624 14.40977,1.02894 21.57264,1.93295c14.58993,1.84136 29.15414,4.7875 43.66544,7.17292c48.45822,7.96573 97.14148,17.24981 146.09227,21.49563c5.09688,0.44593 10.2157,0.68822 15.29065,1.33778c5.03102,0.64394 9.89262,2.31494 14.91961,2.98966c1.73897,0.2334 3.5824,-0.25806 5.257,0.26561c2.67011,0.83499 4.60924,3.21039 7.12176,4.44083c1.06512,0.52162 2.36569,0.53081 3.35469,1.18536c2.50441,1.65748 4.64454,3.80918 7.00239,5.66924c4.5932,3.62348 8.27287,5.57173 11.81181,11.0793c1.31183,2.04156 0.92196,4.8259 2,7c0.57312,1.15581 2.15996,1.55309 2.79728,2.67477c2.88255,5.0733 4.06597,10.81215 3.2242,16.59472c-0.58096,3.99085 -0.01592,8.58615 -2.36296,11.86576c-3.87208,5.41062 -10.47576,6.65864 -16.32391,6.07136c-1.04881,-0.10532 -1.95254,-0.88198 -3,-1c-2.05932,-0.23202 -4.17799,0.33207 -6.21694,-0.03848c-1.76612,-0.32097 -3.33333,-1.33334 -5,-2c-2.18657,0.06927 -4.32122,-0.70354 -6.49807,-0.92087c-1.95761,-0.19544 -3.95209,0.2727 -5.902,0.01141c-7.48141,-1.00249 -14.81845,-2.90987 -22.28219,-4.03641c-8.99154,-1.35713 -17.33305,-1.1379 -26.46361,-3.08373c-13.62463,-2.90355 -26.46994,-10.15262 -40.3522,-11.89127c-2.34298,-0.29344 -4.72235,0.04959 -7.08362,0.05619c-7.99997,0.02238 -16,0 -24,0c-27.66667,0 -55.33333,0 -83,0c-38.15456,0 -76.51429,-1.098 -114.66014,-0.0077c-6.98811,0.19973 -14.0253,0.54196 -20.88971,1.86617c-4.56214,0.88009 -8.78113,3.13592 -13.33494,4.05815c-6.18444,1.25246 -13.10524,-0.58276 -19.37619,0.04688c-3.23766,0.32508 -6.11153,2.36342 -9.32072,2.90118c-2.63148,0.44096 -5.3357,0.08256 -8.00355,0.12385c-6.2648,0.69946 -12.40687,2.31278 -18.67572,2.97498c-3.02332,0.31936 -6.09334,-0.27052 -9.12042,0.01094c-3.73311,0.34712 -7.41582,1.12891 -11.09139,1.86841c-5.89837,1.18672 -11.4266,3.87797 -17.32585,5.06029c-2.05419,0.4117 -4.21038,-0.25122 -6.28499,0.04065c-5.797,0.81557 -11.28393,3.32805 -17.098,4.01141c-3.75826,0.44173 -7.58467,-0.3222 -11.35234,0.03029c-13.47796,1.26094 -26.91815,1.61809 -40.39629,-0.04342c0,0 -7.44209,-0.93026 -6.51183,-8.37235c0.93026,-7.44208 8.37234,-6.51183 8.37234,-6.51183c4.17813,0.53037 8.34861,0.82599 12.51642,0.94345z" fill="#99a7da"/><path d="M-16.918,99.94507c-3.77098,-1.60496 -11.33578,-4.79333 -12.35774,-9.92709c-0.64072,-3.21864 0.49167,-6.64654 1.70136,-9.69724c2.06523,-5.20824 8.83748,-7.07458 13.4296,-8.50566c9.62816,-3.00052 18.96046,-7.1408 29.09691,-7.2991c0,0 0.09455,0 0.26243,0.01062l4.56419,-2.68881c1,0 2.05042,0.31351 3,0c0.91578,-0.30235 1.40039,-1.41193 2.30326,-1.7509c1.80333,-0.67704 3.81815,-0.62427 5.64553,-1.23339c4.94556,-1.64852 7.22158,-3.69472 12.20368,-5.06011c1.70909,-0.46839 3.62803,-0.06805 5.26288,-0.75187c2.40234,-1.00485 4.09336,-3.44578 6.58465,-4.20372c2.5433,-0.77376 5.33003,0.07 7.97201,-0.22496c2.98013,-0.33272 6.02558,-1.57858 9,-2c1.49452,-0.21174 3.03163,0.13296 4.52783,-0.06654c13.41503,-1.78868 26.66536,-4.73661 40.17683,-6.01384c1.75748,-0.16613 3.54077,0.27489 5.29534,0.08038c1.04767,-0.11615 1.95793,-0.84128 3,-1c2.01546,-0.30698 6.54367,0.77917 8.47822,0.10379c1.17917,-0.41166 2.19275,-1.19646 3.28912,-1.79469c4.05009,-0.83066 7.92567,-2.39169 11.76867,-3.91636c2.63083,-1.04376 5.54768,-1.18435 8.23133,-2.08364c1.41347,-0.47365 2.57818,-1.55205 4,-2c5.40108,-1.70161 11.1455,-1.4517 16.61565,-2.36117c3.03157,-0.50403 5.96242,-1.53359 9,-2c5.47207,-0.84022 11.1156,-0.45737 16.61701,-0.94794c1.04993,-0.09362 1.95521,-0.86027 3,-1c0.90972,-0.12167 7.79212,-0.09684 9.20136,-0.09684c7.33334,0 14.66666,0 22,0c13.66666,0 27.33334,0 41,0c2.50585,0 14.06304,-0.02105 15.20136,0.09684c2.27208,0.23531 4.2795,1.66804 6.52178,2.10379c11.03733,2.14493 22.37848,3.11238 33.47822,4.89621c3.50475,0.56324 6.94397,1.54324 10.47218,1.93346c2.34089,0.2589 4.71847,-0.18953 7.06549,0.00619c1.6938,0.14126 3.31177,0.80309 5,1c6.45193,0.7525 13.56721,-0.05224 20.07935,0.00829c7.59641,1.65498 13.8829,3.22628 21.7535,3.97705c3.76443,0.35909 7.60629,-0.53632 11.34449,0.03436c1.93026,0.29467 3.8468,0.75308 5.68572,1.40966c1.12095,0.40023 1.96361,1.45724 3.12105,1.73478c1.06417,0.25518 2.1827,-0.18117 3.27686,-0.20064c2.66625,-0.04744 5.33333,0 8,0c6.66667,0 13.33333,0 20,0c5.10992,0 9.6897,0.50136 14.73903,1.0365c1.98434,0.2103 4.0354,-0.26522 5.98412,0.16414c1.65413,0.36445 2.97837,1.66535 4.59618,2.167c2.31192,0.71688 4.85738,0.58428 7.11253,1.46361c1.05521,0.41145 1.6345,1.57175 2.51112,2.28887c1.27652,1.04427 3.38088,-0.12286 4.92714,0.45079c0.88394,0.32793 1.33333,1.33333 2,2c2.37966,-0.4755 4.76672,1.0506 7,2c1.33674,0.56827 2.82192,0.811 4.07286,1.54921c0.96222,0.56783 1.49586,1.70188 2.44234,2.29557c1.89425,1.1882 4.10167,1.81834 6,3c0.65341,0.40673 0.89576,1.31167 1.55766,1.70443c0.90651,0.53791 2.12299,0.41523 3,1c1.32167,0.88124 2.14803,2.37461 3.44234,3.29556c1.21461,0.86426 2.75959,1.1732 4,2c0.64043,0.42687 0.89902,1.30622 1.55766,1.70444c1.10637,0.6689 2.59506,0.61803 3.60947,1.41958c1.07687,0.85093 1.3696,2.44382 2.41107,3.33772c1.53338,1.31611 3.56469,1.90471 5.33161,2.88522c1.62297,0.90063 4.24797,0.74077 5.00816,2.43407c1.74923,3.89637 3.57273,8.81161 1.78102,12.68863c-1.3429,2.90584 -5.94155,2.50609 -9.08431,3.11467c-3.66583,0.70987 -7.51001,0.46539 -11.20137,-0.09685c-1.60907,-0.24508 -3.17336,-0.99066 -4.79863,-0.90315c-2.29004,-0.1903 -4.66303,0.0688 -6.87013,-0.5709c-0.90554,-0.26246 -1.14236,-1.60841 -2,-2c-0.38385,-0.17526 -0.70964,0.53264 -1.12987,0.5709c-1.57322,0.14325 -3.16957,0.14325 -4.73903,-0.0365c-2.88432,-0.33034 -5.57419,-1.76526 -8.46233,-2.06034c-1.98964,-0.20328 -4.03198,0.35622 -6,0c-5.30593,-0.96038 -8.96657,-3.75148 -13.89554,-5.20225c-2.22985,-0.65632 -4.71387,-0.19743 -6.90509,-0.97304c-1.83225,-0.64854 -3.16234,-2.36692 -5,-3c-1.00981,-0.34789 -2.14064,0.31614 -3.19936,0.17529c-1.04489,-0.139 -1.96485,-0.80103 -3,-1c-1.53614,-0.29527 -3.21585,0.10553 -4.66876,-0.47406c-1.33204,-0.53137 -2.07977,-2.02424 -3.33459,-2.71859c-2.22121,-1.2291 -4.78368,-1.76211 -7,-3c-0.42019,-0.23469 -0.19365,-1.18611 -0.66541,-1.28141c-1.0994,-0.22209 -2.21482,0.58172 -3.33124,0.47406c-1.2935,-0.12474 -2.48243,-0.7696 -3.72365,-1.15441c-1.83634,-0.3849 -3.73007,-0.55835 -5.50901,-1.1547c-1.18419,-0.39697 -2.10995,-1.38302 -3.28912,-1.79468c-0.40677,-0.142 -0.84649,0.18044 -1.27685,0.20063c-3.17374,0.14889 -6.36969,0.29205 -9.53167,-0.01887c-4.69142,-0.4613 -9.31018,-1.52276 -14,-2c-6.90624,-0.70279 -14.07209,0.48574 -21,0c-2.35125,-0.16486 -4.65238,-0.78969 -7,-1c-2.05648,-0.18423 -4.17251,0.25045 -6.19148,-0.18176c-1.45769,-0.31206 -2.52985,-1.75325 -4,-2c-2.2534,-0.37821 -4.57764,0.39347 -6.85243,0.17852c-9.49316,-0.89706 -18.69135,-3.91708 -28.16345,-5.01438c-3.39762,-0.3936 -6.84063,0.03034 -10.26097,0.0365c-9.33324,0.01682 -18.66673,0 -28,0c-33.33334,0 -66.66667,0 -100,0c-16.7465,0 -33.5378,0.33441 -50.27685,-0.20063c-1.33334,0.66667 -2.53488,1.72497 -4,2c-3.11963,0.58561 -6.39764,-0.45723 -9.52178,0.10379c-3.83449,0.68858 -7.41838,2.56448 -11.28499,3.04065c-3.05786,0.37657 -6.17689,-0.27789 -9.24283,0.02589c-6.35297,0.62946 -13.38035,2.0927 -19.75716,2.97411c-4.04475,0.55907 -7.94376,2.40063 -12,3c-2.3317,0.34454 -4.66201,0.70103 -7,1c-0.58296,0.07455 -1.18954,-0.46331 -1.743,-0.26561c-0.76627,0.27372 -1.15595,1.18451 -1.87824,1.55917c-3.42317,1.77567 -8.27205,4.13824 -11.86111,5.35668c-2.55428,0.86714 -5.29922,1.0837 -7.85435,1.94834c-4.58765,1.79023 -8.33465,4.23569 -13,6c-0.73937,0.27962 -3.73826,0.9101 -4.1998,1.9006c-0.51782,1.1113 -0.50852,2.50229 -1.29556,3.44234c-1.43632,1.71556 -3.48607,2.80764 -5.1703,4.28058c-1.36426,1.19312 -2.46969,2.69873 -3.97103,3.71397c-0.87318,0.59047 -2.10818,0.43807 -3,1c-4.99172,3.14523 -5.47594,10.10906 -11.13952,13.08415c-6.65633,3.49658 -12.80719,3.03597 -19.80346,3.03597c0,0 -7.5,0 -7.5,-7.5c0,-7.5 7.5,-7.5 7.5,-7.5c1.85808,0 3.82318,0.14046 5.77389,0.12555c-0.8966,-0.18863 -1.80956,-0.3413 -2.64401,-0.69645zM348.07702,47.43125c1.50134,0.28299 3.00636,0.53965 4.51748,0.75288c-1.1229,-0.26687 -2.23431,-0.60914 -3.38137,-0.70466c-0.37799,-0.03148 -0.75678,-0.04556 -1.1361,-0.04823zM407.36029,52.50846c-0.05338,-0.00951 -0.10694,-0.01832 -0.16071,-0.02641c0.05357,0.0088 0.10714,0.0176 0.16071,0.02641z" fill="#a9bcde"/><path d="M533.4399,99.18674c-2.37171,7.11512 -9.48683,4.74342 -9.48683,4.74342l-3.73769,-1.31585c-1.71372,-1.10533 -4.28688,-3.2453 -6.34901,-4.02464c-2.65161,-0.03366 -5.13935,-1.31134 -7.72163,-1.91466c-1.69514,-0.39605 -3.54935,0.10473 -5.20416,-0.43558c-0.84076,-0.27451 -1.06219,-1.53025 -1.87617,-1.87617c-0.52395,-0.22267 -1.11924,0.52438 -1.66728,0.37027c-1.6373,-0.4604 -3.03577,-1.55233 -4.6313,-2.1414c-1.35399,-0.4999 -2.85726,-0.54601 -4.1844,-1.11337c-0.94677,-0.40475 -1.57084,-1.4077 -2.53814,-1.76056c-3.78962,-1.38241 -8.34376,0.11354 -12.22963,-0.46875c-5.88985,-0.88259 -10.42164,-4.34576 -16.23246,-5.66917c-4.29201,-0.9775 -9.08667,-0.76402 -13.42778,-2.18528c-4.15209,-1.35937 -4.56425,-2.49269 -8.82301,-2.40831c-2.30195,-0.05552 -4.55419,-0.68384 -6.82988,-1.03493c-1.55814,-0.24039 -3.20567,0.19832 -4.72436,-0.22497c-1.08604,-0.3027 -1.70876,-1.65485 -2.81426,-1.87617c-1.68006,-0.33634 -3.42263,0.39892 -5.13226,0.28531c-1.59093,-0.10573 -3.1068,-0.75275 -4.69043,-0.93809c-2.88501,-0.33764 -5.93415,0.36006 -8.6977,-0.5344c-0.84146,-0.27235 -1.15742,-1.36078 -1.87617,-1.87617c-0.15539,-0.11142 0.24643,0.55516 0.05587,0.5709c-1.50881,0.12466 -3.06884,0.16728 -4.53741,-0.20063c-1.35649,-0.33984 -2.38109,-1.60192 -3.75235,-1.87617c-1.83974,-0.36795 -3.79774,0.41021 -5.62852,0c-4.40282,-0.98651 -5.48615,-3.1425 -9.38086,-4.69043c-1.21134,-0.48144 -2.60186,0.20063 -3.90537,0.20063c-4.69043,0 -9.38086,0 -14.07129,0c-39.71232,0 -79.42464,0 -119.13696,0c-23.76485,0 -47.52971,0 -71.29456,0c-8.44278,0 -16.88555,0 -25.32833,0c-4.40996,0 -8.69583,-0.55012 -12.86993,0.84124c-1.61718,0.00812 -3.25629,-0.24118 -4.85154,0.02435c-2.24556,0.37377 -4.31226,1.55966 -6.5666,1.87617c-1.94265,0.27275 -3.94735,-0.44241 -5.88372,-0.12814c-2.52217,0.40934 -4.55982,2.55027 -7.08838,2.91805c-3.04581,0.443 -8.66319,-0.20163 -11.71937,0.06034c-1.58861,0.13617 -3.10702,0.75089 -4.69043,0.93809c-1.5204,0.17974 -6.05254,-0.75757 -7.45866,-0.16413c-2.41672,1.01995 -4.50477,2.77719 -6.99158,3.61183c-2.00674,0.67351 -4.28274,0.18562 -6.29352,0.84699c-1.52143,0.50042 -2.63171,1.84731 -4.06585,2.56035c-4.53843,2.25647 -9.93554,3.08292 -14.60312,4.91072c-3.54731,1.38911 -6.56343,3.68254 -9.69888,5.77284c-6.96517,4.6343 -12.97709,8.56228 -20.85517,11.39654c-1.13042,0.40669 -1.09747,2.16727 -1.89526,3.06547c-1.13295,1.27554 -2.3017,2.57312 -3.73326,3.50114c-0.40851,0.26482 -0.98981,-0.28544 -1.45394,-0.13849c-0.24986,0.0791 0.76422,0.13042 0.68771,0.38108c-0.45998,1.50702 -1.39408,2.82619 -2.09707,4.23632c-1.56581,3.14089 -4.57427,9.59975 -6.90876,12.14049c-1.35867,1.4787 -3.19866,2.45019 -4.94708,3.4379c-0.87548,0.49457 -2.13716,0.53526 -2.68227,1.3802c0,0 -5.3033,5.3033 -10.6066,0c-5.3033,-5.3033 0,-10.6066 0,-10.6066c1.07883,-0.98425 2.00325,-2.17062 3.23649,-2.95275c1.25134,-0.79361 3.30763,-0.38653 4.14354,-1.61002c2.44405,-3.57726 4.08104,-7.88544 6.00356,-11.76578c0.86427,-1.7444 1.23972,-3.82038 2.56388,-5.24743c1.05095,-1.13262 2.81521,-1.28019 4.17458,-2.01467c1.05694,-0.57107 1.09747,-2.16727 1.89526,-3.06547c1.13295,-1.27554 2.29457,-2.5842 3.73326,-3.50114c2.6913,-1.71528 6.31679,-1.61341 8.93852,-3.45678c3.75597,-2.64086 7.55543,-5.0384 11.48211,-7.66075c4.19652,-2.79768 8.05297,-5.42621 12.81519,-7.36036c4.29079,-1.74269 9.36537,-2.37094 13.53947,-4.47014c1.82757,-0.91911 3.37652,-2.4147 5.31502,-3.06817c2.18477,-0.73648 4.6511,-0.30414 6.83969,-1.02918c2.82023,-0.9343 5.19318,-2.97192 8.0178,-3.89286c2.92653,-0.95416 6.42149,0.23636 9.42689,-0.16413c1.58047,-0.21061 3.10123,-0.80898 4.69043,-0.93809c3.58647,-0.29137 7.20765,0.34454 10.7947,0.06034c2.20133,-0.17441 3.8776,-2.28687 6.04482,-2.71047c2.37199,-0.46362 4.85765,0.21885 7.24949,-0.12814c2.25287,-0.32683 4.3212,-1.50143 6.5666,-1.87617c1.4892,-0.24854 3.01955,0.01623 4.52932,0.02435c4.88715,-1.62905 10.15738,-1.03493 15.27266,-1.03493c8.44278,0 16.88555,0 25.32833,0c23.76485,0 47.52971,0 71.29456,0c39.71232,0 79.42464,0 119.13696,0c4.69043,0 9.38086,0 14.07129,0c1.42669,0 6.55975,-0.04144 7.35166,0.20063c2.55609,0.78134 4.86881,2.21009 7.25947,3.40542c0.73946,0.36973 1.30578,1.14977 2.12139,1.28501c1.8509,0.3069 3.78878,-0.36795 5.62852,0c1.37126,0.27425 2.43077,1.41899 3.75235,1.87617c2.13758,0.73947 4.62354,-0.32624 6.7755,0.37027c0.84146,0.27235 1.15742,1.36078 1.87617,1.87617c0.15539,0.11142 -0.2457,-0.54803 -0.05587,-0.5709c1.48643,-0.17909 3.00257,-0.12153 4.49138,0.0365c1.58553,0.16829 3.10335,0.7851 4.69043,0.93809c2.65637,0.25606 5.38402,-0.2377 8.00095,0.28531c1.10558,0.22096 1.73293,1.55703 2.81426,1.87617c0.89178,0.2632 1.85799,-0.34253 2.78033,-0.22497c1.49007,0.18993 2.92773,0.93127 4.42715,0.84124c4.7774,0.0575 5.26843,-0.2928 10.10679,1.40395c1.26393,0.44324 2.3166,1.38385 3.58427,1.81626c3.52944,1.20393 7.44308,0.79904 10.96247,1.56707c5.0673,1.10582 9.53789,2.98478 14.02791,5.23473c1.17763,0.59011 3.41992,0.3009 4.47054,0.29694c5.11551,-0.01924 7.7752,-0.21107 13.07699,1.46362c1.16863,0.36914 1.96438,1.50796 3.09037,1.99179c1.04335,0.44832 2.2599,0.35641 3.32029,0.76281c1.02533,0.39296 1.81876,1.30523 2.8734,1.61094c1.27373,0.36923 2.72356,-0.10603 3.96124,0.37027c0.82542,0.31765 1.04007,1.58779 1.87617,1.87617c0.73781,0.25448 1.53612,-0.59309 2.30053,-0.43558c2.45374,0.50563 4.78273,1.87481 7.28775,1.83769c4.19808,1.37187 6.98163,2.84081 10.53655,5.35622l1.89083,0.56033c0,0 7.11512,2.37171 4.74342,9.48683z" fill="#a9c7de"/><path d="M85.98847,136.21467c0,-1.24264 1.00736,-2.25 2.25,-2.25c1.24264,0 2.25,1.00736 2.25,2.25c0,1.24264 -1.00736,2.25 -2.25,2.25c-1.24264,0 -2.25,-1.00736 -2.25,-2.25z" fill="#c7d9de"/><path d="M116.94532,166.23343c0,-1.24264 1.00736,-2.25 2.25,-2.25c1.24264,0 2.25,1.00736 2.25,2.25c0,1.24264 -1.00736,2.25 -2.25,2.25c-1.24264,0 -2.25,-1.00736 -2.25,-2.25z" fill="#c7d9de"/><path d="M55.96971,212.19966c0,-1.24264 1.00736,-2.25 2.25,-2.25c1.24264,0 2.25,1.00736 2.25,2.25c0,1.24264 -1.00736,2.25 -2.25,2.25c-1.24264,0 -2.25,-1.00736 -2.25,-2.25z" fill="#c7d9de"/><path d="M69.10286,175.61429c0,-1.24264 1.00736,-2.25 2.25,-2.25c1.24264,0 2.25,1.00736 2.25,2.25c0,1.24264 -1.00736,2.25 -2.25,2.25c-1.24264,0 -2.25,-1.00736 -2.25,-2.25z" fill="#c7d9de"/><path d="M140.39747,223.45669c0,-1.24264 1.00736,-2.25 2.25,-2.25c1.24264,0 2.25,1.00736 2.25,2.25c0,1.24264 -1.00736,2.25 -2.25,2.25c-1.24264,0 -2.25,-1.00736 -2.25,-2.25z" fill="#c7d9de"/><path d="M108.50254,197.19028c0,-1.24264 1.00736,-2.25 2.25,-2.25c1.24264,0 2.25,1.00736 2.25,2.25c0,1.24264 -1.00736,2.25 -2.25,2.25c-1.24264,0 -2.25,-1.00736 -2.25,-2.25z" fill="#c7d9de"/><path d="M25.01286,208.44731c0,-1.24264 1.00736,-2.25 2.25,-2.25c1.24264,0 2.25,1.00736 2.25,2.25c0,1.24264 -1.00736,2.25 -2.25,2.25c-1.24264,0 -2.25,-1.00736 -2.25,-2.25z" fill="#c7d9de"/><path d="M45.65076,149.34787c0,-1.24264 1.00736,-2.25 2.25,-2.25c1.24264,0 2.25,1.00736 2.25,2.25c0,1.24264 -1.00736,2.25 -2.25,2.25c-1.24264,0 -2.25,-1.00736 -2.25,-2.25z" fill="#c7d9de"/><path d="M22.1986,152.16214c0,-1.24264 1.00736,-2.25 2.25,-2.25c1.24264,0 2.25,1.00736 2.25,2.25c0,1.24264 -1.00736,2.25 -2.25,2.25c-1.24264,0 -2.25,-1.00736 -2.25,-2.25z" fill="#c7d9de"/><path d="M48.46502,98.69122c0,-1.24264 1.00736,-2.25 2.25,-2.25c1.24264,0 2.25,1.00736 2.25,2.25c0,1.24264 -1.00736,2.25 -2.25,2.25c-1.24264,0 -2.25,-1.00736 -2.25,-2.25z" fill="#c7d9de"/><path d="M104.7502,76.17715c0,-1.24264 1.00736,-2.25 2.25,-2.25c1.24264,0 2.25,1.00736 2.25,2.25c0,1.24264 -1.00736,2.25 -2.25,2.25c-1.24264,0 -2.25,-1.00736 -2.25,-2.25z" fill="#c7d9de"/><path d="M133.83086,125.89572c0,-1.24264 1.00736,-2.25 2.25,-2.25c1.24264,0 2.25,1.00736 2.25,2.25c0,1.24264 -1.00736,2.25 -2.25,2.25c-1.24264,0 -2.25,-1.00736 -2.25,-2.25z" fill="#c7d9de"/><path d="M113.19297,103.38165c0,-1.24264 1.00736,-2.25 2.25,-2.25c1.24264,0 2.25,1.00736 2.25,2.25c0,1.24264 -1.00736,2.25 -2.25,2.25c-1.24264,0 -2.25,-1.00736 -2.25,-2.25z" fill="#c7d9de"/><path d="M156.34491,86.49609c0,-1.24264 1.00736,-2.25 2.25,-2.25c1.24264,0 2.25,1.00736 2.25,2.25c0,1.24264 -1.00736,2.25 -2.25,2.25c-1.24264,0 -2.25,-1.00736 -2.25,-2.25z" fill="#c7d9de"/><path d="M149.7783,171.86195c0,-1.24264 1.00736,-2.25 2.25,-2.25c1.24264,0 2.25,1.00736 2.25,2.25c0,1.24264 -1.00736,2.25 -2.25,2.25c-1.24264,0 -2.25,-1.00736 -2.25,-2.25z" fill="#c7d9de"/><path d="M229.51568,145.59553c0,-1.24264 1.00736,-2.25 2.25,-2.25c1.24264,0 2.25,1.00736 2.25,2.25c0,1.24264 -1.00736,2.25 -2.25,2.25c-1.24264,0 -2.25,-1.00736 -2.25,-2.25z" fill="#c7d9de"/><path d="M188.23988,138.09084c0,-1.24264 1.00736,-2.25 2.25,-2.25c1.24264,0 2.25,1.00736 2.25,2.25c0,1.24264 -1.00736,2.25 -2.25,2.25c-1.24264,0 -2.25,-1.00736 -2.25,-2.25z" fill="#c7d9de"/><path d="M214.50629,95.87696c0,-1.24264 1.00736,-2.25 2.25,-2.25c1.24264,0 2.25,1.00736 2.25,2.25c0,1.24264 -1.00736,2.25 -2.25,2.25c-1.24264,0 -2.25,-1.00736 -2.25,-2.25z" fill="#c7d9de"/><path d="M225.76333,216.89009c0,-1.24264 1.00736,-2.25 2.25,-2.25c1.24264,0 2.25,1.00736 2.25,2.25c0,1.24264 -1.00736,2.25 -2.25,2.25c-1.24264,0 -2.25,-1.00736 -2.25,-2.25z" fill="#c7d9de"/><path d="M216.38247,262.85632c0,-1.24264 1.00736,-2.25 2.25,-2.25c1.24264,0 2.25,1.00736 2.25,2.25c0,1.24264 -1.00736,2.25 -2.25,2.25c-1.24264,0 -2.25,-1.00736 -2.25,-2.25z" fill="#c7d9de"/><path d="M252.02975,244.09459c0,-1.24264 1.00736,-2.25 2.25,-2.25c1.24264,0 2.25,1.00736 2.25,2.25c0,1.24264 -1.00736,2.25 -2.25,2.25c-1.24264,0 -2.25,-1.00736 -2.25,-2.25z" fill="#c7d9de"/><path d="M281.12992,198.54657c0,-1.24264 1.00736,-2.25 2.25,-2.25c1.24264,0 2.25,1.00736 2.25,2.25c0,1.24264 -1.00736,2.25 -2.25,2.25c-1.24264,0 -2.25,-1.00736 -2.25,-2.25z" fill="#c7d9de"/><path d="M240.77271,191.56176c0,-1.24264 1.00736,-2.25 2.25,-2.25c1.24264,0 2.25,1.00736 2.25,2.25c0,1.24264 -1.00736,2.25 -2.25,2.25c-1.24264,0 -2.25,-1.00736 -2.25,-2.25z" fill="#c7d9de"/><path d="M258.5963,153.10022c0,-1.24264 1.00736,-2.25 2.25,-2.25c1.24264,0 2.25,1.00736 2.25,2.25c0,1.24264 -1.00736,2.25 -2.25,2.25c-1.24264,0 -2.25,-1.00736 -2.25,-2.25z" fill="#c7d9de"/><path d="M270.39538,181.24385c0,-1.24264 1.00736,-2.25 2.25,-2.25c1.24264,0 2.25,1.00736 2.25,2.25c0,1.24264 -1.00736,2.25 -2.25,2.25c-1.24264,0 -2.25,-1.00736 -2.25,-2.25z" fill="#c7d9de"/><path d="M316.75766,174.67621c0,-1.24264 1.00736,-2.25 2.25,-2.25c1.24264,0 2.25,1.00736 2.25,2.25c0,1.24264 -1.00736,2.25 -2.25,2.25c-1.24264,0 -2.25,-1.00736 -2.25,-2.25z" fill="#c7d9de"/><path d="M361.80271,203.75688c0,-1.24264 1.00736,-2.25 2.25,-2.25c1.24264,0 2.25,1.00736 2.25,2.25c0,1.24264 -1.00736,2.25 -2.25,2.25c-1.24264,0 -2.25,-1.00736 -2.25,-2.25z" fill="#c7d9de"/><path d="M397.45002,197.19028c0,-1.24264 1.00736,-2.25 2.25,-2.25c1.24264,0 2.25,1.00736 2.25,2.25c0,1.24264 -1.00736,2.25 -2.25,2.25c-1.24264,0 -2.25,-1.00736 -2.25,-2.25z" fill="#c7d9de"/><path d="M279.2342,106.19591c0,-1.24264 1.00736,-2.25 2.25,-2.25c1.24264,0 2.25,1.00736 2.25,2.25c0,1.24264 -1.00736,2.25 -2.25,2.25c-1.24264,0 -2.25,-1.00736 -2.25,-2.25z" fill="#c7d9de"/><path d="M252.02975,73.36289c0,-1.24264 1.00736,-2.25 2.25,-2.25c1.24264,0 2.25,1.00736 2.25,2.25c0,1.24264 -1.00736,2.25 -2.25,2.25c-1.24264,0 -2.25,-1.00736 -2.25,-2.25z" fill="#c7d9de"/><path d="M317.69579,93.0627c0,-1.24264 1.00736,-2.25 2.25,-2.25c1.24264,0 2.25,1.00736 2.25,2.25c0,1.24264 -1.00736,2.25 -2.25,2.25c-1.24264,0 -2.25,-1.00736 -2.25,-2.25z" fill="#c7d9de"/><path d="M352.40498,68.67245c0,-1.24264 1.00736,-2.25 2.25,-2.25c1.24264,0 2.25,1.00736 2.25,2.25c0,1.24264 -1.00736,2.25 -2.25,2.25c-1.24264,0 -2.25,-1.00736 -2.25,-2.25z" fill="#c7d9de"/><path d="M355.21924,95.87696c0,-1.24264 1.00736,-2.25 2.25,-2.25c1.24264,0 2.25,1.00736 2.25,2.25c0,1.24264 -1.00736,2.25 -2.25,2.25c-1.24264,0 -2.25,-1.00736 -2.25,-2.25z" fill="#c7d9de"/><path d="M383.36183,80.86757c0,-1.24264 1.00736,-2.25 2.25,-2.25c1.24264,0 2.25,1.00736 2.25,2.25c0,1.24264 -1.00736,2.25 -2.25,2.25c-1.24264,0 -2.25,-1.00736 -2.25,-2.25z" fill="#c7d9de"/><path d="M396.49503,107.13399c0,-1.24264 1.00736,-2.25 2.25,-2.25c1.24264,0 2.25,1.00736 2.25,2.25c0,1.24264 -1.00736,2.25 -2.25,2.25c-1.24264,0 -2.25,-1.00736 -2.25,-2.25z" fill="#c7d9de"/><path d="M419.00911,89.31035c0,-1.24264 1.00736,-2.25 2.25,-2.25c1.24264,0 2.25,1.00736 2.25,2.25c0,1.24264 -1.00736,2.25 -2.25,2.25c-1.24264,0 -2.25,-1.00736 -2.25,-2.25z" fill="#c7d9de"/><path d="M464.97533,105.25782c0,-1.24264 1.00736,-2.25 2.25,-2.25c1.24264,0 2.25,1.00736 2.25,2.25c0,1.24264 -1.00736,2.25 -2.25,2.25c-1.24264,0 -2.25,-1.00736 -2.25,-2.25z" fill="#c7d9de"/><path d="M433.0804,102.44356c0,-1.24264 1.00736,-2.25 2.25,-2.25c1.24264,0 2.25,1.00736 2.25,2.25c0,1.24264 -1.00736,2.25 -2.25,2.25c-1.24264,0 -2.25,-1.00736 -2.25,-2.25z" fill="#c7d9de"/><path d="M387.13107,212.19966c0,-1.24264 1.00736,-2.25 2.25,-2.25c1.24264,0 2.25,1.00736 2.25,2.25c0,1.24264 -1.00736,2.25 -2.25,2.25c-1.24264,0 -2.25,-1.00736 -2.25,-2.25z" fill="#c7d9de"/><path d="M288.61511,166.23343c0,-1.24264 1.00736,-2.25 2.25,-2.25c1.24264,0 2.25,1.00736 2.25,2.25c0,1.24264 -1.00736,2.25 -2.25,2.25c-1.24264,0 -2.25,-1.00736 -2.25,-2.25z" fill="#c7d9de"/><path d="M217.32055,170.92386c0,-1.24264 1.00736,-2.25 2.25,-2.25c1.24264,0 2.25,1.00736 2.25,2.25c0,1.24264 -1.00736,2.25 -2.25,2.25c-1.24264,0 -2.25,-1.00736 -2.25,-2.25z" fill="#c7d9de"/><path d="M94.43124,155.91448c0,-1.24264 1.00736,-2.25 2.25,-2.25c1.24264,0 2.25,1.00736 2.25,2.25c0,1.24264 -1.00736,2.25 -2.25,2.25c-1.24264,0 -2.25,-1.00736 -2.25,-2.25z" fill="#c7d9de"/><path d="M30.64138,175.61429c0,-1.24264 1.00736,-2.25 2.25,-2.25c1.24264,0 2.25,1.00736 2.25,2.25c0,1.24264 -1.00736,2.25 -2.25,2.25c-1.24264,0 -2.25,-1.00736 -2.25,-2.25z" fill="#c7d9de"/><path d="M5.31305,240.34225c0,-1.24264 1.00736,-2.25 2.25,-2.25c1.24264,0 2.25,1.00736 2.25,2.25c0,1.24264 -1.00736,2.25 -2.25,2.25c-1.24264,0 -2.25,-1.00736 -2.25,-2.25z" fill="#c7d9de"/><path d="M27.82712,229.08521c0,-1.24264 1.00736,-2.25 2.25,-2.25c1.24264,0 2.25,1.00736 2.25,2.25c0,1.24264 -1.00736,2.25 -2.25,2.25c-1.24264,0 -2.25,-1.00736 -2.25,-2.25z" fill="#c7d9de"/><path d="M457.47064,92.12461c0,-1.24264 1.00736,-2.25 2.25,-2.25c1.24264,0 2.25,1.00736 2.25,2.25c0,1.24264 -1.00736,2.25 -2.25,2.25c-1.24264,0 -2.25,-1.00736 -2.25,-2.25z" fill="#c7d9de"/><path d="M462.17797,215.01392c0,-1.24264 1.00736,-2.25 2.25,-2.25c1.24264,0 2.25,1.00736 2.25,2.25c0,1.24264 -1.00736,2.25 -2.25,2.25c-1.24264,0 -2.25,-1.00736 -2.25,-2.25z" fill="#c7d9de"/><path d="M474.3731,192.49984c0,-1.24264 1.00736,-2.25 2.25,-2.25c1.24264,0 2.25,1.00736 2.25,2.25c0,1.24264 -1.00736,2.25 -2.25,2.25c-1.24264,0 -2.25,-1.00736 -2.25,-2.25z" fill="#c7d9de"/><path d="M480.00161,211.26157c0,-1.24264 1.00736,-2.25 2.25,-2.25c1.24264,0 2.25,1.00736 2.25,2.25c0,1.24264 -1.00736,2.25 -2.25,2.25c-1.24264,0 -2.25,-1.00736 -2.25,-2.25z" fill="#c7d9de"/><path d="M495.94908,212.19966c0,-1.24264 1.00736,-2.25 2.25,-2.25c1.24264,0 2.25,1.00736 2.25,2.25c0,1.24264 -1.00736,2.25 -2.25,2.25c-1.24264,0 -2.25,-1.00736 -2.25,-2.25z" fill="#c7d9de"/><path d="M36.24889,260.25404c0,-1.24264 1.00736,-2.25 2.25,-2.25c1.24264,0 2.25,1.00736 2.25,2.25c0,1.24264 -1.00736,2.25 -2.25,2.25c-1.24264,0 -2.25,-1.00736 -2.25,-2.25z" fill="#c7d9de"/><path d="M58.18886,233.69515c0,-1.24264 1.00736,-2.25 2.25,-2.25c1.24264,0 2.25,1.00736 2.25,2.25c0,1.24264 -1.00736,2.25 -2.25,2.25c-1.24264,0 -2.25,-1.00736 -2.25,-2.25z" fill="#c7d9de"/><path d="M87.05722,231.38568c0,-1.24264 1.00736,-2.25 2.25,-2.25c1.24264,0 2.25,1.00736 2.25,2.25c0,1.24264 -1.00736,2.25 -2.25,2.25c-1.24264,0 -2.25,-1.00736 -2.25,-2.25z" fill="#c7d9de"/><path d="M114.77085,225.61201c0,-1.24264 1.00736,-2.25 2.25,-2.25c1.24264,0 2.25,1.00736 2.25,2.25c0,1.24264 -1.00736,2.25 -2.25,2.25c-1.24264,0 -2.25,-1.00736 -2.25,-2.25z" fill="#c7d9de"/><path d="M106.6877,257.94457c0,-1.24264 1.00736,-2.25 2.25,-2.25c1.24264,0 2.25,1.00736 2.25,2.25c0,1.24264 -1.00736,2.25 -2.25,2.25c-1.24264,0 -2.25,-1.00736 -2.25,-2.25z" fill="#c7d9de"/><path d="M204.84013,226.76674c0,-1.24264 1.00736,-2.25 2.25,-2.25c1.24264,0 2.25,1.00736 2.25,2.25c0,1.24264 -1.00736,2.25 -2.25,2.25c-1.24264,0 -2.25,-1.00736 -2.25,-2.25z" fill="#c7d9de"/><path d="M252.18424,267.18244c0,-1.24264 1.00736,-2.25 2.25,-2.25c1.24264,0 2.25,1.00736 2.25,2.25c0,1.24264 -1.00736,2.25 -2.25,2.25c-1.24264,0 -2.25,-1.00736 -2.25,-2.25z" fill="#c7d9de"/><path d="M327.25237,251.01617c0,-1.24264 1.00736,-2.25 2.25,-2.25c1.24264,0 2.25,1.00736 2.25,2.25c0,1.24264 -1.00736,2.25 -2.25,2.25c-1.24264,0 -2.25,-1.00736 -2.25,-2.25z" fill="#c7d9de"/><path d="M331.87129,233.69515c0,-1.24264 1.00736,-2.25 2.25,-2.25c1.24264,0 2.25,1.00736 2.25,2.25c0,1.24264 -1.00736,2.25 -2.25,2.25c-1.24264,0 -2.25,-1.00736 -2.25,-2.25z" fill="#c7d9de"/><path d="M341.10919,223.30254c0,-1.24264 1.00736,-2.25 2.25,-2.25c1.24264,0 2.25,1.00736 2.25,2.25c0,1.24264 -1.00736,2.25 -2.25,2.25c-1.24264,0 -2.25,-1.00736 -2.25,-2.25z" fill="#c7d9de"/><path d="M348.03758,247.55196c0,-1.24264 1.00736,-2.25 2.25,-2.25c1.24264,0 2.25,1.00736 2.25,2.25c0,1.24264 -1.00736,2.25 -2.25,2.25c-1.24264,0 -2.25,-1.00736 -2.25,-2.25z" fill="#c7d9de"/><path d="M368.82277,237.15935c0,-1.24264 1.00736,-2.25 2.25,-2.25c1.24264,0 2.25,1.00736 2.25,2.25c0,1.24264 -1.00736,2.25 -2.25,2.25c-1.24264,0 -2.25,-1.00736 -2.25,-2.25z" fill="#c7d9de"/><path d="M387.29856,263.71824c0,-1.24264 1.00736,-2.25 2.25,-2.25c1.24264,0 2.25,1.00736 2.25,2.25c0,1.24264 -1.00736,2.25 -2.25,2.25c-1.24264,0 -2.25,-1.00736 -2.25,-2.25z" fill="#c7d9de"/><path d="M408.08378,254.48037c0,-1.24264 1.00736,-2.25 2.25,-2.25c1.24264,0 2.25,1.00736 2.25,2.25c0,1.24264 -1.00736,2.25 -2.25,2.25c-1.24264,0 -2.25,-1.00736 -2.25,-2.25z" fill="#c7d9de"/><path d="M420.78586,222.14781c0,-1.24264 1.00736,-2.25 2.25,-2.25c1.24264,0 2.25,1.00736 2.25,2.25c0,1.24264 -1.00736,2.25 -2.25,2.25c-1.24264,0 -2.25,-1.00736 -2.25,-2.25z" fill="#c7d9de"/><path d="M358.41981,145.93533c0,-1.24264 1.00736,-2.25 2.25,-2.25c1.24264,0 2.25,1.00736 2.25,2.25c0,1.24264 -1.00736,2.25 -2.25,2.25c-1.24264,0 -2.25,-1.00736 -2.25,-2.25z" fill="#c7d9de"/><path d="M314.92888,124.65883c0,-1.24264 1.00736,-2.25 2.25,-2.25c1.24264,0 2.25,1.00736 2.25,2.25c0,1.24264 -1.00736,2.25 -2.25,2.25c-1.24264,0 -2.25,-1.00736 -2.25,-2.25z" fill="#c7d9de"/><path d="M274.75469,126.11091c0,-1.24264 1.00736,-2.25 2.25,-2.25c1.24264,0 2.25,1.00736 2.25,2.25c0,1.24264 -1.00736,2.25 -2.25,2.25c-1.24264,0 -2.25,-1.00736 -2.25,-2.25z" fill="#c7d9de"/><path d="M220.54365,114.97829c0,-1.24264 1.00736,-2.25 2.25,-2.25c1.24264,0 2.25,1.00736 2.25,2.25c0,1.24264 -1.00736,2.25 -2.25,2.25c-1.24264,0 -2.25,-1.00736 -2.25,-2.25z" fill="#c7d9de"/><path d="M436.93429,180.80597c0,-1.24264 1.00736,-2.25 2.25,-2.25c1.24264,0 2.25,1.00736 2.25,2.25c0,1.24264 -1.00736,2.25 -2.25,2.25c-1.24264,0 -2.25,-1.00736 -2.25,-2.25z" fill="#c7d9de"/><path d="M385.59689,121.75467c0,-1.24264 1.00736,-2.25 2.25,-2.25c1.24264,0 2.25,1.00736 2.25,2.25c0,1.24264 -1.00736,2.25 -2.25,2.25c-1.24264,0 -2.25,-1.00736 -2.25,-2.25z" fill="#c7d9de"/><path d="M425.28712,144.50394c0,-1.24264 1.00736,-2.25 2.25,-2.25c1.24264,0 2.25,1.00736 2.25,2.25c0,1.24264 -1.00736,2.25 -2.25,2.25c-1.24264,0 -2.25,-1.00736 -2.25,-2.25z" fill="#c7d9de"/><path d="M350.74694,113.04218c0,-1.24264 1.00736,-2.25 2.25,-2.25c1.24264,0 2.25,1.00736 2.25,2.25c0,1.24264 -1.00736,2.25 -2.25,2.25c-1.24264,0 -2.25,-1.00736 -2.25,-2.25z" fill="#c7d9de"/><path d="M455.78082,139.17962c0,-1.24264 1.00736,-2.25 2.25,-2.25c1.24264,0 2.25,1.00736 2.25,2.25c0,1.24264 -1.00736,2.25 -2.25,2.25c-1.24264,0 -2.25,-1.00736 -2.25,-2.25z" fill="#c7d9de"/><path d="M462.03018,264.04246c0,-1.24264 1.00736,-2.25 2.25,-2.25c1.24264,0 2.25,1.00736 2.25,2.25c0,1.24264 -1.00736,2.25 -2.25,2.25c-1.24264,0 -2.25,-1.00736 -2.25,-2.25z" fill="#c7d9de"/><path d="M434.82568,251.84734c0,-1.24264 1.00736,-2.25 2.25,-2.25c1.24264,0 2.25,1.00736 2.25,2.25c0,1.24264 -1.00736,2.25 -2.25,2.25c-1.24264,0 -2.25,-1.00736 -2.25,-2.25z" fill="#c7d9de"/><path d="M499.55363,260.29012c0,-1.24264 1.00736,-2.25 2.25,-2.25c1.24264,0 2.25,1.00736 2.25,2.25c0,1.24264 -1.00736,2.25 -2.25,2.25c-1.24264,0 -2.25,-1.00736 -2.25,-2.25z" fill="#c7d9de"/><path d="M486.42042,238.71413c0,-1.24264 1.00736,-2.25 2.25,-2.25c1.24264,0 2.25,1.00736 2.25,2.25c0,1.24264 -1.00736,2.25 -2.25,2.25c-1.24264,0 -2.25,-1.00736 -2.25,-2.25z" fill="#c7d9de"/><path d="M8.02723,303.19575c0.26446,0.40127 0.40095,0.77624 0.4489,1.12019c0.09425,-0.01699 0.18808,-0.03461 0.28149,-0.0529c3.57377,-0.69971 7.8771,-2.38719 11.14456,-4.0211c1.49082,-0.74549 3.11992,-1.5636 4.76494,-2.45324c0.96147,0.82529 1.71404,1.98345 2.89876,2.38934c4.49766,1.54093 13.90314,1.27092 18.75073,0.71254c3.13241,-0.36082 6.06896,-1.80498 9.194,-2.22485c1.51252,-0.20322 3.10489,0.34726 4.57803,-0.05131c1.80676,-0.48883 4.50064,-1.35512 7.125,-2.63264c0.49174,-0.04858 0.98176,-0.08255 1.45082,0.0361c1.47744,0.37371 2.66657,1.77044 4.18935,1.83078c2.03893,0.08078 3.8781,-1.08546 5.75236,-2.03147c2.80555,1.11462 5.5735,0.74556 5.5735,0.74556l6.67949,-0.89063c2.05307,1.27474 4.35434,1.27474 4.35434,1.27474c26.89181,0 53.78362,0 80.67542,0c15.32208,0 30.64415,0 45.96623,0c2.55235,0 6.59357,0.17429 10.83848,0.26115c0.41291,0.70914 0.8783,1.36274 1.55641,1.79113c0.95712,0.60466 2.26425,-0.00005 3.39636,0.00713c1.85732,0.01178 3.46622,-0.29781 4.96052,-0.78187c5.24269,0.82508 10.45481,0.60122 15.83359,0.59863c8.12023,-0.00392 13.44499,0.25742 21.72396,-1.01713c1.93558,-0.29798 3.85285,-0.65732 5.75794,-1.05702c0.93387,0.19797 1.59877,0.19798 1.59877,0.19798c53.50809,0 107.01618,0 160.52427,0c3.21873,1.18983 6.66283,2.12227 10.04405,1.7942c0.43912,-0.04261 2.68435,-0.76108 5.35166,-1.7942c2.28348,0 4.56698,0 6.85046,0c0.32251,0.47433 0.64392,0.93983 1.16274,1.08676c1.58763,0.44961 3.33735,0.67266 5.14333,0.77454c1.3412,1.33895 2.54468,2.85778 4.14814,3.85414c4.71071,2.92714 10.39706,3.50959 15.92589,3.61809c0.56969,2.55511 1.29099,5.08486 1.54364,7.68631c0.00686,0.02702 2.2233,8.72357 2.25178,8.98228c0.54257,4.92928 -0.03475,10.35095 -0.06093,15.31441c-0.05093,9.65319 -0.10185,19.30638 -0.15278,28.95957c-0.01924,3.64666 -0.38034,7.83301 -0.07934,11.48842c0.15605,1.89506 1.70567,3.95425 0.83245,5.64335c-0.9771,1.89005 -3.60017,2.27278 -5.45955,3.30706c-2.74831,1.52876 -5.71413,2.64246 -8.46289,4.1704c-1.29246,0.71843 -2.3382,1.94669 -3.75941,2.35505c-1.478,0.42467 -3.09741,-0.20907 -4.61311,0.05065c-1.59621,0.27351 -3.07417,1.01995 -4.61125,1.52993c-4.66397,0.51811 -9.1267,2.20352 -13.73349,2.67568c-5.88204,0.60286 -12.24267,-0.04586 -18.17163,-0.07713c-6.66657,-0.03517 -13.33316,-0.07034 -19.99973,-0.1055c-0.16759,-0.00088 -9.48151,-0.03431 -9.78262,-0.09672c-1.63984,-0.33992 -3.01851,-1.53779 -4.65654,-1.8863c-3.1141,-0.66255 -6.36656,-0.11781 -9.54937,-0.19707c-7.49006,-0.18651 -14.9834,-0.16993 -22.47556,-0.20946c-34.06195,-0.17969 -68.1239,-0.35939 -102.18585,-0.53908c-9.442,-0.05271 -18.91918,-0.99148 -28.34272,-1.57986c-4.10237,-0.25614 -8.84037,0.0729 -12.86289,-0.82135c-4.78239,-1.06318 -9.32016,-3.21002 -14.07232,-4.39646c-4.82462,-1.20454 -9.82971,-1.71523 -14.67675,-2.82964c-3.17691,-0.73043 -6.21366,-2.09731 -9.44272,-2.54389c-4.75847,-0.6581 -10.12928,-0.09539 -14.92435,-0.12069c-11.63691,-0.06139 -23.5559,0.62331 -35.16125,-0.19073c-14.90924,-1.04579 -28.76961,-6.98001 -43.48547,-8.6328c-7.43919,-0.83552 -15.3118,-0.24983 -22.80412,-0.28935c-33.00049,-0.1741 -66.00099,-0.34819 -99.00148,-0.52228l-4.28872,-0.02263l0.00529,-1.00307l-2.30681,-0.55239c0.37357,-0.70176 0.80012,-1.38016 1.20127,-2.06976l-0.64498,-0.65182l1.78931,-1.77052c0.44129,-1.46452 0.22229,-3.12257 0.85528,-4.51758c0.68724,-1.51457 2.33432,-2.45543 3.0237,-3.96903c1.32627,-2.9119 1.29925,-6.2699 2.13142,-9.35951c1.29554,-4.80999 2.97026,-9.04687 3.26222,-14.04704c0.26863,-4.60053 0.22293,-9.22575 0.25069,-13.83218c0.0274,-4.54521 -0.80508,-8.16893 3.18824,-11.61816c0.75661,-0.65352 1.83277,-0.73844 2.81711,-1.00957c-0.72348,-0.23712 -1.64547,-0.83766 -1.63745,-2.35846c0.01319,-2.49996 2.51315,-2.48678 2.51315,-2.48678c3.16296,0.01668 6.76229,0.40191 10.27749,0.53116c0.08618,-0.04714 0.17277,-0.09318 0.2599,-0.13784l3.09549,-2.04594c0,0 2.08741,-1.37575 3.46317,0.71166z" fill="#aef0ff"/><path d="M-18.8442,326.53984c0.72266,-0.95314 2.03713,-0.95314 2.03713,-0.95314c3.0252,0 6.13805,0.79077 9.07537,0.06688c1.45439,-0.35843 2.59262,-1.53175 3.9958,-2.05598c1.25743,-0.46977 2.75885,-0.23718 3.92439,-0.90298c0.52898,-0.30217 0.94442,-0.74598 1.3345,-1.2237c4.30964,0.16788 9.67471,0.21711 12.86773,-0.42749c1.56673,-0.31629 2.78512,-1.60247 4.28878,-2.14439c0.30016,-0.10818 0.60046,0.28492 0.91906,0.26751c2.71303,-0.14825 5.50135,-0.02085 8.11561,-0.7612c0.66632,-0.1887 1.07373,-0.80757 1.50565,-1.3963c0.00761,0.00538 0.01706,0.00978 0.02848,0.01311c2.78318,0.81286 7.88691,0 10.72195,0c8.22015,0 16.44031,0 24.66047,0c4.59204,0 7.27108,0.54506 11.88096,1.02353c0.45041,0.04675 0.88227,-0.54502 1.30411,-0.38041c1.20046,0.46842 1.96568,1.83495 3.21659,2.14439c4.20919,1.04124 10.24423,0.42908 14.69198,0.42908c8.57756,0 17.15511,0 25.73266,0c5.68753,0 12.08095,0.62762 17.68474,-0.12912c2.24005,-0.3025 4.20509,-1.76359 6.43317,-2.14439c1.94019,-0.33159 3.93523,0.12912 5.90354,0.12912c7.61431,0 16.63105,1.14152 24.11791,-0.12912c2.22851,-0.37822 4.24048,-1.59533 6.43317,-2.14439c2.58528,-0.64738 6.37753,0.12913 9.12013,0.12913c5.71837,0 11.43674,0 17.15511,0c0.28567,0 0.57134,0 0.85701,0c0.04965,0.05873 0.09921,0.11782 0.14869,0.17728c0.5974,-0.01887 1.20262,-0.11206 1.8049,-0.17728c0.61477,0 1.22955,0 1.84432,0c0.08606,0.01495 0.17181,0.03279 0.25723,0.05386c1.55184,0.38269 2.74172,1.7428 4.28878,2.14439c2.86983,0.74497 8.00251,-0.0901 10.54594,-1.37885c0.45488,-0.23049 0.87714,-0.50972 1.2792,-0.8194c5.50025,0 11.00049,0 16.50073,0c5.36097,0 10.72194,0 16.08291,0c0.47821,0 0.9573,-0.02246 1.4366,-0.05285c0.13943,0.06545 0.2761,0.11547 0.40904,0.1471c1.38691,0.32997 2.85,-0.09131 4.27554,-0.10727c0.1337,-0.00149 0.26734,-0.00333 0.40091,-0.00549c1.9895,0.45105 3.78673,1.7324 5.81461,2.03377c5.27147,0.78341 11.27512,0.12912 16.61255,0.12912c10.11915,0 20.95833,1.12911 31.00682,-0.04867c1.80999,-0.21215 3.55494,-0.82871 5.36097,-1.07219c3.11367,-0.41976 6.36792,0.37405 9.41782,-0.38042c1.25091,-0.30944 2.00894,-1.6948 3.21659,-2.14439c0.45472,-0.16929 0.90711,0.39253 1.39094,0.42908c2.85106,0.21539 5.7248,0.19162 8.57755,0c2.35616,-0.15827 4.79185,-0.04916 7.04342,-0.76121c0.96382,-0.3048 1.20581,-1.76896 2.14438,-2.14438c0.99551,-0.39821 2.22107,0.39821 3.21659,0c0.93858,-0.37543 1.25147,-1.67051 2.14439,-2.14439c0.26217,-0.13914 0.1713,0.70106 0.46195,0.76121c1.04995,0.21727 2.14438,0 3.21658,0c2.05995,-0.06014 4.16465,0.25078 6.17986,-0.18044c3.76409,-0.80545 7.02879,-3.20356 10.72195,-4.28877c1.98956,-0.58462 6.86597,0.18043 8.83087,0.18043c5.97802,0 13.18568,1.00013 19.04618,-0.18043c1.88675,-0.38007 3.49517,-1.6721 5.36097,-2.14439c0.77699,-0.19668 1.59662,0.15469 2.3977,0.18043c1.0333,0.03321 2.06693,0.04507 3.10074,0.04588c1.17185,0.82984 2.21754,1.83682 3.17038,3.00052c1.6755,2.04631 2.11552,5.2699 4.40005,6.60241c0.97793,0.5704 2.26423,-0.01397 3.39634,-0.0108c2.1266,0.00597 4.3121,-0.13907 6.32699,-0.81926c2.24141,-1.5041 4.99026,-3.37851 6.57563,-5.64916c0.52252,-0.74838 0.84539,-1.66013 1.20975,-2.52962c1.03794,0.49615 2.05707,1.0539 3.16707,1.32398c2.67496,0.65086 5.5038,0.51 8.1746,1.17771c2.23079,-0.20067 4.24888,1.44106 6.42967,1.9518c0.90981,0.21308 1.87386,-0.7918 2.75947,-0.49369c0.95806,0.32249 1.18057,1.83958 2.14439,2.14439c2.25157,0.71204 4.68475,0.64599 7.04342,0.7612c1.02382,0.05001 2.07026,-0.52105 3.06344,-0.26751c1.54867,0.39535 2.71718,1.85324 4.28878,2.14438c4.12442,0.76406 8.66521,0.81527 13.21654,0.6836c0.36736,0.87561 0.20357,2.01568 0.80784,2.75351c1.06315,1.29814 3.05538,1.65637 4.02054,3.02893c1.01128,1.43814 0.97485,3.38507 1.63537,5.01438c0.57387,1.41557 1.3716,2.72971 2.05741,4.09457c1.398,2.81671 2.22273,5.88327 3.32523,8.82823c4.45401,11.8974 12.14865,24.4348 9.77275,37.72243c-0.76171,4.26001 -1.92795,4.64164 -4.50249,8.26488c-1.49204,2.09981 -3.93914,6.13886 -5.65461,7.84803c-1.65861,1.65253 -6.25241,4.14885 -8.13455,5.33117c-2.62748,1.65053 -4.95385,3.84061 -7.79474,5.08852c-0.5356,0.23527 -6.73941,1.9423 -8.20042,2.34764c-10.21177,0.04615 -20.06574,2.0674 -30.33315,2.16831c-22.62894,0.2224 -45.27126,0.00024 -67.90138,0.00024c-34.90827,0 -69.81653,0 -104.7248,0c-31.93233,0 -63.86466,0 -95.797,0c-10.92823,0 -21.90999,-0.32236 -32.83278,-0.00086c-6.55678,0.19299 -13.27144,0.41856 -19.80092,1.04077c-2.66976,0.25441 -5.29199,0.95916 -7.97021,1.09859c-13.30894,0.69287 -26.84238,0.0059 -40.17164,0.0059c-10.82797,0 -22.84298,1.41098 -33.46225,-1.13413c-4.3603,-1.04503 -5.37258,-3.71335 -9.12291,-5.55325c-1.08733,-0.53344 -2.39559,-0.56556 -3.43253,-1.19135c-1.25852,-0.75952 -3.0983,-3.62469 -4.7711,-4.02267c-1.38692,-0.32997 -2.85001,0.09078 -4.27554,0.10727c-4.76283,0.05508 -9.53632,0.03476 -14.2995,0c-1.62116,-0.01184 -3.2873,0.31388 -4.86316,-0.06687c-1.55363,-0.37538 -2.73214,-1.78168 -4.28878,-2.14439c-1.71826,-0.40038 -3.61551,0.46107 -5.29216,-0.08811c-1.40653,-0.46071 -2.3084,-1.85299 -3.4626,-2.77948c-1.09907,-1.46217 -2.32332,-2.83814 -3.2972,-4.38651c-1.30831,-2.08007 -1.78806,-4.66485 -3.33402,-6.57492c-0.95617,-1.18137 -2.34091,-1.98748 -3.22285,-3.22525c-1.75399,-2.46164 -3.15671,-5.16425 -4.50646,-7.86875c-0.46864,-0.939 -0.41305,-2.10077 -0.95303,-3.00064c-0.49034,-0.81714 -1.51903,-1.20284 -2.04587,-1.99694c-0.27289,-0.41134 -4.58398,-9.08621 -4.69379,-9.46495c-0.30802,-1.06234 0.23258,-2.24174 -0.02177,-3.3182c-0.37636,-1.59289 -1.46016,-2.96071 -1.83809,-4.55322c-1.14822,-4.83841 0.09226,-4.78697 0.64383,-9.67034c0.50174,-4.44215 -1.05395,-7.34595 3.40701,-10.89191c0.40987,-0.3258 0.8971,-0.45619 1.42159,-0.49243z" fill="#a4e2f1"/><path d="M510.81067,188.99556c0,-1.24264 1.00736,-2.25 2.25,-2.25c1.24264,0 2.25,1.00736 2.25,2.25c0,1.24264 -1.00736,2.25 -2.25,2.25c-1.24264,0 -2.25,-1.00736 -2.25,-2.25z" fill="#c7d9de"/><path d="M-135.60002,60.46772c0,-1.38071 1.11929,-2.5 2.5,-2.5c1.38071,0 2.5,1.11929 2.5,2.5c0,1.38071 -1.11929,2.5 -2.5,2.5c-1.38071,0 -2.5,-1.11929 -2.5,-2.5z" fill="#aef0ff"/><path d="M-105.56999,-14.60735c0,-1.38071 1.11929,-2.5 2.5,-2.5c1.38071,0 2.5,1.11929 2.5,2.5c0,1.38071 -1.11929,2.5 -2.5,2.5c-1.38071,0 -2.5,-1.11929 -2.5,-2.5z" fill="#aef0ff"/><path d="M-19.64703,350.9794c0.18932,-0.18932 0.37864,-0.33809 0.56579,-0.45283c0.61504,-1.35161 2.27417,-1.35161 2.27417,-1.35161c3.15969,0 7.25202,0.85721 10.24918,0.04511c3.93543,-1.06633 7.61772,-3.25912 11.61797,-4.2482c0.97252,-0.24045 7.26965,-1.20575 8.49792,-2.17284c0.33201,-0.26141 0.43536,-0.69601 0.52138,-1.14461c2.69043,-0.14504 6.86342,-0.77659 8.98906,-0.15224c1.84664,0.54239 3.46263,1.82724 5.36098,2.14439c3.63151,0.6067 7.38461,-0.31551 10.99826,-1.02089c2.57232,-0.50211 6.55195,0.12912 9.12012,0.12912c5.36097,0 10.72194,0 16.08292,0c2.70713,-0.07254 5.37706,-0.6825 8.03499,-1.20132c2.3456,-0.45785 5.63628,0.12913 8.04792,0.12913c5.71837,0 11.43675,0 17.15512,0c6.72604,0 15.05834,1.18265 21.59702,-0.26751c1.56042,-0.34607 2.78512,-1.60247 4.28878,-2.14438c1.2996,-0.46837 2.75421,0.26751 4.13564,0.26751c1.1275,0 2.255,0 3.3825,0c1.14466,0.53183 2.31082,0.94698 3.50011,1.09145c3.17651,0.38587 6.39968,-0.03228 9.59955,-0.03228c2.78166,0 5.69712,1.04938 8.34279,0.1903c0.5286,-0.17164 0.76779,-0.75366 1.08263,-1.24947c8.16186,0 16.3237,0 24.48556,0c1.03731,0 2.11909,-0.04594 3.22396,-0.10806c5.39687,3.40468 10.96519,6.51121 16.30715,10.08251c4.76647,2.47487 11.87866,2.9368 17.13954,1.07651c1.4802,-0.52341 2.71457,-1.58701 4.13683,-2.25195c4.04046,-1.88899 8.2279,-3.3918 12.43268,-4.85998c0.70768,0.03344 1.37698,0.10207 1.98432,0.22062c4.73015,0.92332 8.9268,1.73158 13.92559,1.07219c1.12049,-0.1478 2.10054,-0.89391 3.21658,-1.07219c2.56573,-0.40987 5.25814,0.51198 7.79461,-0.05131c1.87887,-0.41725 3.49517,-1.6721 5.36097,-2.14439c1.81514,-0.45947 3.7419,0.18044 5.61429,0.18044c2.85919,0 5.71837,0 8.57755,0c12.86633,0 25.73266,0 38.599,0c6.73339,0 10.50177,0.02062 15.54254,-4.96778c0.76352,0.09213 1.5303,0.19481 2.22283,-0.0822c0.93858,-0.37543 1.25147,-1.67051 2.14439,-2.14439c0.26217,-0.13914 0.17608,0.68135 0.46194,0.7612c0.64085,0.17902 1.3376,-0.17923 1.99475,-0.07493c2.89781,0.45992 5.79321,1.12193 8.72719,1.14712c1.42954,0.01227 2.8772,0.22618 4.28878,0c0.29307,-0.04696 0.19977,-0.90034 0.46194,-0.76121c0.89292,0.47388 1.18056,1.83958 2.14438,2.14439c2.25157,0.71204 4.68726,0.60294 7.04342,0.76121c7.43469,0.4994 15.63959,0.46415 23.05865,-0.12912c4.70814,1.56938 9.62646,1.30953 14.55043,1.22231c0.22305,0.23054 0.44402,0.46307 0.66228,0.69822c0.47272,0.5093 0.66426,1.41487 1.33333,1.60246c2.96972,0.83262 8.22387,-0.82297 11.22307,-2.32166c4.1439,0 8.2878,0 12.4317,0c3.05975,0 6.49246,-0.50498 9.50011,-0.07493c3.56189,0.5093 6.79492,2.57633 10.34195,3.16238c7.38405,1.21999 16.07102,0.2011 23.57533,0c3.8375,-1.27916 7.20284,-0.94307 11.26451,-0.94307h1.07219c0,0 6.9301,0 9.25207,-5.76911c0.90681,0.93914 1.57735,1.68717 1.68417,1.93841c0.60946,1.43339 -0.25876,3.16115 0.12342,4.67111c0.39218,1.54947 1.79473,2.72915 2.14439,4.28877c0.08119,0.36211 0.06687,7.82627 0.06687,9.15194c0,5.46283 0.00762,10.9256 -0.01873,16.38837c-0.86051,3.50096 -1.34797,10.03846 -3.66974,12.95045c-2.93888,3.68598 -8.60978,6.08608 -12.6426,8.24777c-0.07533,0.04038 -7.57247,4.36878 -8.04334,4.50084c-3.45396,0.96873 -7.57414,-0.40577 -11.11727,0.07158c-2.28666,0.30807 -7.57658,1.71295 -9.77483,1.9579c-10.75556,1.1985 -22.17623,0.19866 -32.99833,0.19866c-31.57136,0 -63.14272,0 -94.71408,0c-13.31307,0 -26.84153,0.70547 -40.13317,-0.00355c-11.68018,-0.62306 -23.23318,-3.00665 -34.85932,-4.11412c-9.86001,-0.93923 -19.8441,-1.14128 -29.73933,-1.17963c-33.46878,-0.12969 -66.93854,-0.06367 -100.40757,-0.06367c-13.93853,0 -27.87705,0 -41.81558,0c-7.48702,0 -15.24248,0.58405 -22.70184,-0.00691c-3.44577,-0.27299 -6.63506,-1.94105 -9.95738,-2.89501c-1.27596,-0.36638 -2.67036,-0.07747 -3.96537,-0.36939c-5.81569,-1.31099 -11.92769,-3.71295 -17.20926,-6.44532c-0.80102,0.01442 -6.96273,0.18135 -7.65544,-0.04039c-1.37539,-0.44027 -2.3663,-1.67476 -3.65599,-2.32457c-2.82009,-1.42088 -5.63946,-2.84346 -8.47319,-4.23694c-3.33437,-1.63966 -6.2781,-2.78321 -8.47396,-6.16359c-1.04772,-1.61289 -2.01071,-3.32984 -2.5494,-5.17617c-0.35398,-1.21326 -0.15893,-2.53047 -0.06687,-3.79096c0.04412,-0.60411 0.89706,-1.32338 0.47189,-1.75481c-0.71453,-0.72507 -2.23234,-0.05049 -2.95625,-0.7662c-0.80371,-0.7946 -0.28282,-2.40775 -1.07219,-3.21659c-0.66439,-0.68077 -1.84209,-0.47556 -2.76314,-0.71334l-2.59783,-2.50325c0,0 -1.76777,-1.76776 0,-3.53553z" fill="#9edbe8"/><path d="M346.65568,243.7766c-1.09231,-0.59247 -1.49752,-1.95825 -0.90505,-3.05055c0.59247,-1.09231 1.95824,-1.49751 3.05055,-0.90505c1.09231,0.59247 1.49752,1.95825 0.90505,3.05056c-0.59247,1.09231 -1.95824,1.49751 -3.05055,0.90504z" fill="#c7d9de"/><path d="M261.48496,213.47501c-1.09231,-0.59247 -1.49752,-1.95825 -0.90506,-3.05056c0.59247,-1.09231 1.95825,-1.49752 3.05056,-0.90505c1.09231,0.59247 1.49751,1.95825 0.90504,3.05055c-0.59247,1.09231 -1.95824,1.49752 -3.05054,0.90506z" fill="#c7d9de"/><path d="M350.76927,288.70214c-1.09231,-0.59247 -1.49752,-1.95826 -0.90505,-3.05056c0.59247,-1.09231 1.95824,-1.49751 3.05055,-0.90504c1.09231,0.59247 1.49752,1.95825 0.90505,3.05055c-0.59247,1.09231 -1.95824,1.49752 -3.05055,0.90505z" fill="#c7d9de"/><path d="M183.00491,210.3789c-1.09231,-0.59247 -1.49751,-1.95825 -0.90505,-3.05056c0.59247,-1.09231 1.95825,-1.49751 3.05055,-0.90504c1.09231,0.59247 1.49752,1.95825 0.90506,3.05055c-0.59247,1.09231 -1.95826,1.49751 -3.05056,0.90505z" fill="#c7d9de"/><path d="M384.5628,221.34462c-0.72523,-1.00905 -0.49516,-2.41497 0.51389,-3.14021c1.00905,-0.72523 2.41497,-0.49516 3.1402,0.51389c0.72523,1.00905 0.49517,2.41497 -0.51388,3.14021c-1.00905,0.72523 -2.41497,0.49516 -3.14021,-0.51389z" fill="#c7d9de"/><path d="M361.63966,176.59213c-0.72523,-1.00905 -0.49517,-2.41497 0.51388,-3.14021c1.00905,-0.72523 2.41498,-0.49517 3.14021,0.51388c0.72523,1.00905 0.49516,2.41497 -0.51389,3.14021c-1.00905,0.72523 -2.41497,0.49517 -3.1402,-0.51388z" fill="#c7d9de"/><path d="M368.69961,263.57714c-0.72523,-1.00905 -0.49517,-2.41498 0.51388,-3.14021c1.00905,-0.72523 2.41498,-0.49517 3.14021,0.51388c0.72523,1.00905 0.49516,2.41498 -0.51389,3.14021c-1.00905,0.72523 -2.41497,0.49517 -3.14021,-0.51388z" fill="#c7d9de"/><path d="M348.39397,205.647c-0.72523,-1.00905 -0.49516,-2.41498 0.51389,-3.14021c1.00905,-0.72523 2.41497,-0.49516 3.14021,0.51389c0.72523,1.00905 0.49517,2.41497 -0.51388,3.14021c-1.00905,0.72523 -2.41498,0.49516 -3.14022,-0.51389z" fill="#c7d9de"/><path d="M348.82045,285.55082c-1.16598,-0.18394 -1.96972,-1.32932 -1.7952,-2.55827c0.17452,-1.22895 1.26121,-2.0761 2.42718,-1.89216c1.16598,0.18394 1.96972,1.32933 1.79521,2.55827c-0.17452,1.22895 -1.26121,2.0761 -2.42719,1.89216z" fill="#c7d9de"/><path d="M171.46325,254.09327c-1.16598,-0.18394 -1.96972,-1.32932 -1.7952,-2.55827c0.17452,-1.22895 1.2612,-2.0761 2.42718,-1.89216c1.16598,0.18394 1.96972,1.32932 1.7952,2.55827c-0.17452,1.22895 -1.2612,2.0761 -2.42718,1.89216z" fill="#c7d9de"/><path d="M330.99708,264.00651c-1.16598,-0.18394 -1.96972,-1.32932 -1.79521,-2.55827c0.17452,-1.22895 1.26121,-2.0761 2.42718,-1.89216c1.16598,0.18394 1.96972,1.32932 1.7952,2.55826c-0.17452,1.22895 -1.2612,2.07611 -2.42717,1.89216z" fill="#c7d9de"/><path d="M271.69151,278.01247c-1.16598,-0.18394 -1.96972,-1.32932 -1.79521,-2.55827c0.17452,-1.22895 1.26121,-2.0761 2.42719,-1.89216c1.16598,0.18394 1.96971,1.32932 1.79519,2.55827c-0.17452,1.22895 -1.2612,2.0761 -2.42717,1.89216z" fill="#c7d9de"/><path d="M346.26249,266.01466c-1.19422,-0.34349 -1.88388,-1.59006 -1.54039,-2.78428c0.34349,-1.19422 1.59006,-1.88388 2.78427,-1.54039c1.19422,0.34349 1.88388,1.59006 1.54039,2.78428c-0.34349,1.19422 -1.59005,1.88388 -2.78427,1.54039z" fill="#c7d9de"/><path d="M300.55553,245.05924c-1.19422,-0.34349 -1.88388,-1.59006 -1.54039,-2.78428c0.34349,-1.19422 1.59006,-1.88388 2.78427,-1.54039c1.19422,0.34349 1.88388,1.59005 1.54039,2.78427c-0.34349,1.19422 -1.59005,1.88388 -2.78427,1.54039z" fill="#c7d9de"/><path d="M308.13973,276.0772c-1.19422,-0.34349 -1.88388,-1.59006 -1.54039,-2.78428c0.34349,-1.19422 1.59006,-1.88387 2.78427,-1.54039c1.19422,0.34349 1.88388,1.59005 1.54039,2.78427c-0.34349,1.19422 -1.59006,1.88388 -2.78427,1.54039z" fill="#c7d9de"/><path d="M359.56778,231.58144c-0.92157,-0.83357 -0.99291,-2.25642 -0.15934,-3.17799c0.83357,-0.92157 2.25642,-0.9929 3.17799,-0.15933c0.92157,0.83357 0.99291,2.25641 0.15933,3.17798c-0.83357,0.92157 -2.25642,0.99291 -3.17798,0.15933z" fill="#c7d9de"/><path d="M327.72938,192.66393c-0.92157,-0.83357 -0.99291,-2.25642 -0.15934,-3.17799c0.83357,-0.92157 2.25642,-0.99291 3.17799,-0.15933c0.92157,0.83357 0.99291,2.25641 0.15933,3.17798c-0.83357,0.92157 -2.25642,0.99292 -3.17799,0.15934z" fill="#c7d9de"/><path d="M320.90332,223.8575c-0.92157,-0.83357 -0.99291,-2.25643 -0.15933,-3.178c0.83357,-0.92157 2.25641,-0.9929 3.17798,-0.15932c0.92157,0.83357 0.99291,2.25642 0.15934,3.17799c-0.83357,0.92157 -2.25642,0.99291 -3.17799,0.15933z" fill="#c7d9de"/><path d="M182.37813,270.85665c0,-1.24264 1.00736,-2.25 2.25,-2.25c1.24264,0 2.25,1.00736 2.25,2.25c0,1.24264 -1.00736,2.25 -2.25,2.25c-1.24264,0 -2.25,-1.00736 -2.25,-2.25z" fill="#c7d9de"/><path d="M-19.06089,317.74411c0,-2.5 2.5,-2.5 2.5,-2.5c2.50179,0 7.14796,0 9.64975,0c0.83071,0.03576 1.70901,0.38672 2.49212,0.10727c1.21366,-0.43309 1.99138,-1.74513 3.21658,-2.14439c1.15257,-0.37559 2.43616,0.08715 3.63559,-0.08854c3.43958,-0.50382 8.43047,-2.33859 11.98411,-0.90062c0.55706,0.22541 4.965,4.64965 5.44957,5.26352c0.83619,1.0593 1.08097,2.65933 2.21712,3.38767c0.79342,0.50863 1.93476,-0.47168 2.82301,-0.15666c1.51979,0.53899 2.81398,1.60137 4.0771,2.60376c1.00623,0.79853 2.03542,1.65579 2.68604,2.76342c0.42811,0.72881 -0.30848,2.05332 0.40734,2.50281c0.80909,0.50804 1.87459,-0.39676 2.827,-0.47189c1.94692,-0.1536 4.08202,0.74836 5.85859,-0.06277c1.4203,-0.64847 2.34207,-2.10316 3.70309,-2.86826c0.00364,-0.00204 0.00727,-0.00408 0.01091,-0.00612c0.88688,-1.88133 3.61971,-2.10212 5.54034,-2.91376c4.17221,-1.76314 8.0797,-1.73684 12.31694,-1.67893c-0.11235,-2.31203 -0.13167,-5.15574 -1.80465,-5.99328c-0.825,-0.41302 -1.88682,0.48234 -2.7614,0.18854c-1.40174,-0.47088 -2.46221,-1.64268 -3.74694,-2.37484c-1.52967,-0.87175 -3.34394,-1.29577 -4.68847,-2.43247c-0.29659,-0.25074 -4.31578,-6.32269 -4.7144,-6.92061c0,0 -1.38675,-2.08013 0.69338,-3.46688c2.08013,-1.38675 3.46688,0.69338 3.46688,0.69338c1.31104,1.96656 2.03346,4.44961 3.86316,5.94572c1.11203,0.90929 2.64294,1.14178 3.88909,1.85631c0.95377,0.54689 1.64238,1.56875 2.68623,1.91393c1.16357,0.38477 2.64678,-0.48327 3.67177,0.18854c2.06381,1.3527 4.15273,5.73708 4.50466,8.2369c0.10222,0.72605 -0.84531,1.54451 -0.43961,2.15526c0.36623,0.55134 1.33498,0.00968 1.97905,0.16226c1.85564,0.43961 3.73566,0.92836 5.6426,0.9439c1.44467,0.01178 2.93305,0.44665 4.3332,0.09057c1.22023,-0.31033 2.06394,-1.46412 3.20022,-2.00647c0.92921,-0.44351 2.06475,-0.3955 2.9464,-0.92731c0.89215,-0.53814 1.28764,-1.7425 2.22697,-2.19326c4.08269,-1.95917 8.68517,-1.39669 13.02589,-1.39669c2.14439,0 4.29105,-0.09879 6.43317,0c0.71518,0.03298 1.532,0.63487 2.13361,0.24674c2.05317,-1.3246 2.03877,-3.83824 3.32063,-5.60921c1.65555,-2.28725 4.4303,-3.51866 6.44346,-5.49843c1.19015,-1.17041 1.88155,-2.78554 3.07589,-3.95168c1.29201,-1.26151 3.04373,-2.46726 4.84488,-3.48468c3.49735,0 6.99469,0 10.49204,0c-0.14791,0.42171 -0.3475,0.80915 -0.66571,1.12115c-2.07852,2.03793 -5.47496,2.07249 -7.9654,3.57951c-2.53685,1.5351 -4.16148,4.22539 -6.27763,6.30241c-1.22619,1.20352 -2.78514,2.01623 -4.11404,3.10529c-2.87523,2.3563 -2.92011,5.61676 -5.74231,8.04563c1.81884,0.70218 3.65366,1.3421 5.52325,1.52842c1.76475,0.17587 3.61327,-0.41543 5.32005,0.0664c3.37069,0.95156 6.26634,3.78403 7.44787,7.04595c0.42414,1.17093 -0.02521,2.49564 0.09875,3.73484c0.10854,1.08503 0.44734,2.15824 0.66133,3.23356c2.01612,-1.54447 3.73633,-3.5345 5.78749,-5.27383c3.90645,-3.31258 7.9141,-4.93444 12.32097,-7.42116c1.28783,-0.7267 2.31537,-2.00444 3.74694,-2.37484c1.80321,-0.46656 3.76591,-0.42848 5.58762,-0.04039c1.56325,0.33302 2.75774,1.68547 4.28878,2.14439c2.36015,0.70744 7.04419,-0.06887 8.97177,-1.40144c0.69212,-0.47847 0.86964,-1.4513 1.42439,-2.08393c1.97499,-2.25228 5.36049,-6.18406 7.93938,-7.90375c3.1555,-2.1042 5.173,-2.54961 8.56668,-3.6562c2.13959,-0.0191 4.34766,0.65259 6.43329,0.27459c0.02042,-0.32233 0.11338,-0.67876 0.30865,-1.0693c0.53845,-1.0769 1.33622,-1.37584 2.01865,-1.39638c1.78924,-2.86019 1.28446,-5.06472 -1.95315,-7.03394l-1.6199,-0.52698c2.87585,0 5.75169,0 8.62754,0c1.47377,2.79336 1.2982,6.64443 -0.13723,9.73806c0.05411,0.01703 0.10854,0.03322 0.16333,0.04853c1.08088,0.3021 2.30149,-0.31311 3.36666,0.04039c1.22303,0.40589 2.0082,1.69679 3.21658,2.14439c1.34581,0.4985 3.30577,-0.44712 4.25989,0.62496c1.11641,1.25444 0.60004,3.31028 0.73223,4.98435c0.19694,2.49402 0.08688,5.00508 0,7.50536c-0.01787,0.51427 -0.82539,2.77026 0.6011,3.05127c6.38529,1.25789 13.29808,-1.9178 19.57454,1.20639c0.20839,0.10373 4.87826,4.67485 5.08514,5.0025c0.69336,1.09812 0.40479,2.8275 1.43061,3.62393c0.88612,0.68796 2.24269,0.06568 3.36403,0.09852c0.56032,1.59555 1.91382,3.15278 2.10315,4.76625c2.18969,0.53487 4.68439,0.85392 6.43256,0.2301c1.21366,-0.43309 1.99409,-1.73689 3.21658,-2.14439c1.01717,-0.33906 2.19666,0.3307 3.21658,0c2.78865,-0.9042 4.81303,-3.61162 7.65544,-4.32917c3.69933,-0.93387 9.54133,-0.64783 13.11435,1.07814c3.91671,-3.91587 4.82807,-11.19456 10.04294,-13.80029c1.67724,-0.83807 4.53911,1.06118 5.60423,-0.48188c0.55518,-0.8043 0.48577,-6.07242 0.42523,-6.57347c-0.3097,-2.56337 -2.41151,-4.60576 -3.12804,-7.08636c-0.39672,-1.37344 0.29094,-2.8891 0,-4.28878c-0.37185,-1.78893 -2.63629,-3.42495 -1.95585,-5.12069c0.04672,-0.11642 0.10694,-0.22216 0.17878,-0.31811c3.25319,0 6.50638,0 9.75957,0c-0.45961,1.55487 -1.95785,2.83264 -3.37658,3.69716c0.07297,0.08616 0.13379,0.18291 0.17953,0.29271c0.54966,1.3197 -0.38843,2.91297 0,4.28878c0.32322,1.14484 1.58002,1.83174 2.03794,2.92966c0.53837,1.29079 1.00483,3.02183 1.28029,4.89313c0.73584,-0.39483 1.48768,-0.74609 2.29221,-0.9539c5.58698,-1.44312 11.26037,3.05395 15.76773,5.63182c2.5638,1.4663 5.0528,3.22232 7.89712,4.01793c1.03256,0.28883 2.18613,-0.29627 3.21658,0c5.60561,1.61169 11.04869,5.61824 16.98118,6.39857c1.52013,0.19995 3.0664,-0.04771 4.59954,-0.03228c0.95166,0.00958 1.9607,0.43798 2.8531,0.10727c1.33679,-0.4954 2.32401,-1.65204 3.49796,-2.4609c2.93856,-2.02469 5.53014,-3.74359 8.93257,-4.86618c1.4323,-1.04391 2.66238,-2.4465 4.29691,-3.13174c2.9538,-1.23832 7.38629,-0.45775 10.47856,-1.48743c0.51166,-0.17038 -1.23963,0.233 -1.61003,-0.15896c-1.17391,-1.24227 -2.40216,-2.68751 -2.67435,-4.37487c-0.28859,-1.78899 0.74011,-3.54787 1.11016,-5.3218l4.56975,-1.89366c0,0 2.5,0 2.5,2.5c0,2.5 -2.5,2.5 -2.5,2.5l0.28097,-1.89366c-0.34474,1.08525 -1.15782,2.12379 -1.03423,3.25576c0.27319,2.50213 5.56939,2.92104 4.29318,6.18811c-1.22939,3.14719 -7.69592,4.7958 -10.66342,5.28679c-0.99489,0.16461 -2.10086,-0.31408 -3.02386,0.09211c-1.42907,0.6289 -2.46873,1.91217 -3.70309,2.86826c-0.7545,0.25396 -1.47336,0.5674 -2.16686,0.92244c0.03064,0.01712 0.06194,0.03333 0.09395,0.04858c1.33039,0.63367 2.97587,0.40306 4.28878,1.07219c1.02594,0.52288 1.61347,1.6488 2.49761,2.38653c1.23043,1.02668 3.01675,1.52071 3.8358,2.8981c1.08635,1.82692 -0.22762,4.55955 0.99463,6.29848c0.94552,1.34522 2.75359,2.06218 3.39966,3.5742c0.71798,1.68034 -0.72004,9.02187 3.47795,9.21533c1.23867,0.05708 2.33178,-0.89707 3.55664,-1.09014c0.92161,-0.14527 1.91474,0.39032 2.79758,0.08854c2.94521,-1.00677 4.48451,-5.30528 8.69616,-1.72217c1.98952,1.69261 2.62644,9.17397 1.84336,11.50478c-0.42398,1.26197 -1.79088,1.9703 -2.68632,2.95545l-2.83996,0.73223c0,0 -2.5,0 -2.5,-2.5c0,-2.45394 2.40873,-2.49915 2.49749,-2.49998c1.24359,-1.64698 1.58085,-4.27469 0.60837,-6.25145c-0.15345,-0.31192 -0.65754,0.24001 -0.95359,0.42222c-1.09742,0.67543 -1.99138,1.74513 -3.21658,2.14439c-1.15257,0.37559 -2.43379,-0.07012 -3.63559,0.08854c-5.00944,0.66132 -5.5262,2.79877 -9.68501,-1.89896c-1.32816,-1.50026 -2.16638,-3.43849 -2.70332,-5.3689c-0.34911,-1.25515 0.63821,-2.70967 0.12342,-3.90645c-0.54904,-1.27641 -2.28766,-1.68664 -3.03351,-2.85896c-0.78113,-1.22776 -1.16236,-2.69707 -1.41329,-4.13046c-0.14091,-0.80496 0.68893,-1.73964 0.26353,-2.43739c-0.51122,-0.83853 -1.81184,-0.80126 -2.59737,-1.39068c-0.69663,-0.52272 -1.00883,-1.51951 -1.79116,-1.90224c-1.32368,-0.64757 -2.98141,-0.3923 -4.28878,-1.07219c-0.75051,-0.3903 -1.31196,-1.04531 -1.8788,-1.69277c-2.1904,1.56451 -4.34332,3.16418 -6.88694,4.05439c-1.35393,0.47384 -2.86761,0.09618 -4.30202,0.10727c-1.80013,0.01391 -3.61689,0.21177 -5.40046,-0.03228c-4.17258,-0.57096 -9.56233,-2.8424 -13.42259,-4.4468c-1.35381,-0.56267 -2.49604,-1.6208 -3.90645,-2.02097c-1.03148,-0.29265 -2.18706,0.29949 -3.21658,0c-1.71869,-0.49996 -3.22668,-1.5506 -4.83243,-2.34144c-3.5407,-1.74382 -6.68511,-3.90925 -10.28176,-5.47397c-1.44644,-0.62927 -4.19354,-2.51035 -6.25313,-1.83434c-1.17407,0.38536 -2.21162,1.09514 -3.2925,1.70197c-0.22695,1.98693 -0.80536,3.79874 -1.88075,5.06889c-1.07731,1.27242 -3.02525,1.46924 -4.65043,1.84129c-0.85059,0.19472 -1.80039,-0.50009 -2.61167,-0.17878c-2.1873,0.86628 -2.35513,4.07493 -3.61625,6.06096c-0.22928,0.36107 -2.5355,3.41968 -4.37108,5.80841c0.59361,0.49317 0.79339,1.46176 1.5055,1.7593c0.69752,0.29145 1.50437,-0.16405 2.25987,-0.1903c3.1548,-0.10963 6.49909,-0.18832 9.64975,0c1.56457,0.09352 3.44657,-0.4973 4.67836,0.47189c1.38087,1.08649 1.38542,3.22949 2.07814,4.84423c0.02983,3.34195 0.12938,6.7088 0.03228,10.05021c-0.03232,1.11203 -0.5126,2.26728 -0.1903,3.33207c0.20131,0.66507 1.0683,0.88889 1.60246,1.33333l1.5405,2.79412c0,0 1.11803,2.23607 -1.11803,3.3541c-2.23607,1.11803 -3.3541,-1.11803 -3.3541,-1.11803l-0.60389,-1.49466c-0.89544,-0.98515 -2.24567,-1.6992 -2.68632,-2.95545c-0.57913,-1.65102 -0.15096,-3.49628 -0.1903,-5.24549c-0.06924,-3.07871 -0.00301,-6.17022 0.03228,-9.24929c-0.02208,-0.52964 0.38562,-1.31176 -0.06625,-1.58893c-0.51632,-0.31671 -1.1518,0.41466 -1.75481,0.47189c-1.0674,0.10132 -2.14439,0 -3.21658,0c-2.82782,0 -8.01472,0.82127 -10.60646,-0.1903c-1.16359,-0.45415 -1.79085,-1.74856 -2.77265,-2.52073c-0.13226,-0.10402 -0.26108,-0.20396 -0.38676,-0.29996c-0.84019,0.29242 -1.7648,0.43465 -2.59867,0.73832c0,0 -2.37171,0.79057 -3.16228,-1.58114c-0.19478,-0.58435 -0.1976,-1.07272 -0.09122,-1.47693c-0.80593,-0.03482 -1.7391,-0.02797 -2.89804,-0.03022c-1.23833,-0.00241 -2.51211,-0.3635 -3.7144,-0.06688c-2.74892,0.67821 -4.67549,3.33447 -7.35528,4.24839c-1.0148,0.34609 -2.19941,-0.33906 -3.21658,0c-1.22249,0.4075 -1.98735,1.7577 -3.21658,2.14439c-2.87995,0.90598 -6.57995,0.42463 -9.73562,-0.37136c-2.59139,2.5603 -6.80143,0.60226 -10.2861,2.38036c-2.15351,1.09886 -4.07148,2.61396 -6.02214,4.04226c-0.97398,0.71316 -1.54646,2.00987 -2.67314,2.44326c-1.2997,0.49995 -2.78105,0.16142 -4.17329,0.1903c-3.62454,0.07519 -7.22209,0.01618 -10.83743,-0.1903l-0.73894,0.88809c0.20678,0.11966 0.39148,0.26976 0.54434,0.46456c1.15899,1.47697 1.10883,3.58738 1.66325,5.38106l0.07464,1.67853c0,0 0,2.5 -2.5,2.5c-2.5,0 -2.5,-2.5 -2.5,-2.5l0.07464,-0.46586c-0.16038,-1.0655 0.20574,-2.36631 -0.48114,-3.19649c-0.58913,-0.71204 -1.89758,-0.17984 -2.69661,-0.64419c-0.76464,-0.44437 -0.95099,-1.67215 -1.78677,-1.96132c-1.05135,-0.36375 -2.22004,0.15799 -3.33207,0.1903c-3.55871,0.10341 -7.1654,0 -10.72194,0c-3.92478,0 -8.21733,0.47171 -12.0996,-0.01873c-3.72969,-0.47117 -8.98251,-3.63406 -12.90861,-2.23293c-1.14065,0.40707 -1.87525,1.59108 -2.99028,2.06381c-4.90012,2.07748 -9.39226,1.71327 -14.24838,0.15036c-5.48628,-0.09676 -9.13955,-0.11476 -14.24231,-2.43607c-1.77378,-0.80692 -3.89507,-1.13776 -5.28088,-2.50776c-2.52235,-2.49359 -3.55365,-6.47659 -2.83829,-9.87661c0.17627,-0.8378 0.63856,-1.59357 1.05688,-2.35905c0.07644,-0.24369 0.19276,-0.4551 0.32896,-0.63707c0.21715,-0.4577 0.38759,-0.92752 0.44407,-1.42815c0.16935,-1.50108 -0.67491,-2.95268 -0.82813,-4.45548c-0.09129,-0.8954 0.34565,-1.83281 0.09875,-2.69832c-1.23583,-4.33225 -5.49416,-3.28951 -8.67597,-3.6096c-8.01891,-0.80671 -14.16033,-6.18406 -22.45096,-3.32071c0,0 -2.37171,0.79057 -3.16228,-1.58114c-0.03262,-0.09785 -0.05985,-0.19301 -0.08209,-0.28553c-0.60809,0.13988 -1.17396,0.33368 -1.67543,0.59826c-0.86669,0.45728 -1.22043,1.5932 -2.06181,2.09552c-1.05699,0.63104 -2.37277,0.69323 -3.48677,1.21708c-1.37738,0.6477 -2.47711,1.91786 -3.95489,2.28231c-3.71413,0.91597 -9.32125,0.28503 -12.89054,-1.10992c-0.30364,-0.11867 -0.62442,-0.21797 -0.95133,-0.31123c-0.6901,0.43952 -1.47468,0.43952 -1.47468,0.43952c-2.96938,0 -5.97244,-0.47541 -8.9081,-0.02915c-1.48783,0.22617 -2.84228,0.99994 -4.29722,1.38457c-0.13231,0.03498 -0.27315,0.05411 -0.41895,0.06356c-0.33275,1.2242 -1.66807,1.66931 -1.66807,1.66931c-0.0751,0.02414 -0.1497,0.04939 -0.22383,0.07569c0.79892,1.00357 2.19108,2.1375 2.27323,2.218c2.11097,2.06885 5.7229,5.36934 4.95413,8.77532c-0.49102,2.17544 -3.23924,3.07446 -4.98436,4.46304c-1.11496,0.88716 -2.21069,1.898 -3.52123,2.44188c1.38196,1.38959 4.08989,4.41699 4.09339,4.43033c2.13833,8.12816 -3.77157,8.55574 -9.0906,11.92699l-3.94104,0.10727c0,0 -2.5,0 -2.5,-2.5c0,-2.5 2.5,-2.5 2.5,-2.5l2.49212,0.10727c0.89541,-0.63798 1.71319,-1.4021 2.68623,-1.91393c1.78885,-0.94097 4.77967,-0.41309 3.2339,-3.31418c-1.23868,-2.32475 -7.38638,-4.51012 -6.55659,-7.96426c0.41332,-1.72052 3.05249,-1.79208 4.54601,-2.74099c1.07623,-0.68378 2.06588,-1.50094 3.16029,-2.15521c0.96838,-0.57893 2.65554,-0.46773 3.01564,-1.53696c0.18753,-0.55684 -3.33867,-3.80096 -3.62342,-4.09102c-0.97214,-0.99024 -2.13677,-2.05241 -3.00468,-3.27328c-0.84994,0.56961 -1.71514,1.10844 -2.65298,1.49073c-2.08787,0.85108 -11.70191,0.85916 -13.33586,-0.1015c-1.23477,-0.72597 -0.9892,-2.70872 -1.73705,-3.93036c-0.4246,-0.69361 -3.46084,-3.05666 -3.95881,-3.21038c-1.15093,-0.35527 -2.59796,0.49627 -3.61016,-0.15666c-2.56883,-1.65707 -3.96026,-4.65963 -6.02396,-6.91483c-0.46488,-0.50802 -0.67867,-1.33848 -1.32007,-1.5891c-0.70412,-0.27512 -1.50433,0.16523 -2.25987,0.1903c-2.42419,0.08043 -4.79742,0.71997 -7.1999,1.05346c-0.92413,0.12828 -1.91474,-0.39032 -2.79758,-0.08854c-1.21934,0.41681 -1.98735,1.7577 -3.21658,2.14439c-1.2536,0.39436 -2.62736,0.07151 -3.94104,0.10727c-2.50179,0 -5.00357,0 -7.50536,0h-2.14439c0,0 -2.5,0 -2.5,-2.5zM241.61065,340.54182c0.21854,-0.65561 0.55789,-1.06958 0.93457,-1.3254c-0.00819,-0.04681 -0.01648,-0.09501 -0.02464,-0.1447c-1.02305,0.03284 -2.27729,0.74713 -3.06914,0.09852c-2.33638,-1.91375 -3.17721,-6.93073 -6.35059,-8.52868c-4.08407,-2.05654 -10.5277,-0.65046 -14.85117,-0.74769c-1.39219,-0.03131 -2.91825,0.41306 -4.17329,-0.1903c-4.88222,-2.34713 -3.68768,-6.6206 -3.68768,-10.88725c0,-1.42959 -0.18098,-2.87069 0,-4.28878c0.0685,-0.53676 1.20199,-1.18025 0.73223,-1.44882c-0.65439,-0.37412 -1.44777,0.82949 -2.17328,0.62496c-1.24028,-0.34964 -1.99466,-1.73521 -3.21658,-2.14439c-0.96935,-0.3246 -2.08504,0.3263 -3.06651,0.04039c-0.77949,-0.22708 -1.51467,-0.56931 -2.23569,-0.94835c-0.49519,0.33873 -1.02744,0.61768 -1.59419,0.82493c-0.78279,0.28625 -6.39378,0.17714 -8.06161,0.15802c-2.32584,0.79923 -4.31381,1.35728 -6.44404,2.77697c-2.34267,1.56127 -5.25926,5.0833 -7.07134,7.10697c-0.7824,0.87375 -1.17423,2.13988 -2.15718,2.77972c-3.28251,2.13674 -9.19065,3.40409 -13.17933,2.31247c-2.93524,-0.80332 -4.09062,-3.23708 -7.27871,-2.18478c-1.04404,0.34461 -1.73648,1.36007 -2.68623,1.91393c-2.7195,1.58592 -5.81408,2.49557 -8.45333,4.21174c-5.02227,3.26574 -8.04234,8.22761 -13.47771,10.59558c-0.77496,2.00697 -1.17006,4.03356 0.95949,5.88341c1.04645,0.909 2.58426,1.00512 3.85724,1.55362c1.38121,0.59513 2.63605,1.54578 4.10323,1.87636c2.91794,0.65747 5.98132,0.11052 8.97095,0.20373c3.96816,1.3738 7.4469,1.91876 11.48429,0.15036c1.25162,-0.54822 2.13991,-1.81342 3.44288,-2.22497c5.18798,-1.63864 10.03949,1.44744 14.96845,2.05585c6.08744,0.7514 12.85666,-0.01873 18.99404,-0.01873c1.5273,0 7.75687,-0.03887 8.46207,0.1903c0.50701,0.16477 0.87482,0.55465 1.22221,0.9839c0.17812,-0.278 0.34209,-0.44197 0.34209,-0.44197l2.95545,-2.68632c4.24368,-0.15396 8.5027,-0.30166 12.75085,-0.1903c0.7557,0.01981 1.56467,0.48722 2.25987,0.1903c0.75189,-0.32113 0.96815,-1.34628 1.61564,-1.84551c2.16739,-1.67112 4.37354,-3.35797 6.8442,-4.5353c1.57113,-0.74868 3.33599,-1.04213 5.05775,-1.29612c0.84785,-0.12507 1.74541,0.42098 2.56533,0.17157c0.23478,-0.07142 0.43968,-0.13953 0.61819,-0.20578c0.02598,-0.13398 0.06262,-0.27374 0.1112,-0.41948zM398.36599,359.2171l-0.68321,0.71921c0.25076,-0.20865 0.47909,-0.45076 0.68321,-0.71921z" fill="#70a9cc"/></g></g></svg>