<svg version="1.1" xmlns="http://www.w3.org/2000/svg" xmlns:xlink="http://www.w3.org/1999/xlink" width="220.84433" height="177.05979" viewBox="0,0,220.84433,177.05979"><g transform="translate(-105.50662,-113.78115)"><g data-paper-data="{&quot;isPaintingLayer&quot;:true}" fill-rule="nonzero" stroke="none" stroke-width="0.5" stroke-linecap="butt" stroke-linejoin="miter" stroke-miterlimit="10" stroke-dasharray="" stroke-dashoffset="0" style="mix-blend-mode: normal"><path d="M221.34305,269.20177c-2.3648,-1.64129 -4.03423,-4.92439 -5.96879,-6.91786c-3.28707,-3.3872 -8.49247,-4.31047 -11.51179,-8.20967c-4.75457,-6.14012 -4.54255,-13.9128 -7.33015,-20.80042c-0.36775,-4.65233 -2.85979,-9.11719 -2.92719,-13.73439c-0.06118,-4.19108 2.36774,-9.58584 3.40376,-13.66139c1.31439,-5.17066 2.62879,-10.34133 3.9432,-15.512c0.65657,-2.58285 1.00845,-5.71181 2.10154,-8.13616c0.4096,-0.90847 1.32222,-1.55384 1.64401,-2.49699c0.19499,-0.5715 0.33014,-1.15786 0.434,-1.75216c1.66597,0.06574 3.32478,0.12 4.95085,0.22228c-0.14572,1.08378 -0.32326,2.1589 -0.66916,3.19191c-0.35324,1.05491 -1.30548,1.81796 -1.77369,2.82711c-0.99935,2.15389 -1.25429,5.06528 -1.84164,7.37583c-1.31439,5.17066 -2.62879,10.34133 -3.94319,15.512c-0.6572,2.58533 -1.3144,5.17067 -1.9716,7.756c-0.4047,1.59201 -1.31421,3.11684 -1.27878,4.7591c0.08981,4.16496 2.5098,8.23 2.79202,12.49099c2.62196,6.08683 2.09939,13.37115 6.34262,18.80041c2.8641,3.66465 7.94946,4.64366 11.23071,7.89301c1.7769,1.75961 3.13001,4.64661 5.13971,6.22744c0.74606,0.58686 2.04621,0.81883 3.40417,0.99715c-1.5751,0.68189 -3.10489,1.60027 -5.69202,3.45998c-0.16512,-0.08853 -0.32492,-0.18553 -0.47859,-0.29219z" fill="#acacac"/><path d="M210.28457,142.78006c3.45913,-5.92351 5.97239,-12.12796 10.27146,-17.57943c0,0 1.55138,-1.9604 3.5118,-0.40902c1.9604,1.55139 0.40902,3.5118 0.40902,3.5118c-4.16227,5.23945 -6.54699,11.27441 -9.87206,16.99376c-5.75975,9.90715 -11.53536,19.80513 -17.30663,29.7056c-1.57773,-0.61199 -3.17373,-1.18001 -4.76931,-1.74895c5.91629,-10.15924 11.82722,-20.32165 17.75572,-30.47375z" fill="#acacac"/><path d="M271.51569,232.46777c1.43705,-1.8388 2.60151,-4.06061 4.58402,-5.29185c0.55279,-0.34332 2.85939,-0.73128 3.11633,-1.87001c0.13603,-0.6028 -0.39598,-1.19397 -0.39225,-1.81192c0.01079,-1.78272 0.82225,-3.50732 0.78897,-5.28977c-0.05538,-2.9663 -0.76153,-6.27784 -0.53428,-9.22898c0.02704,-0.35116 1.57097,-4.80713 1.77817,-5.40733c2.00052,-5.79448 5.84258,-12.2546 9.97129,-16.77808c1.6864,-0.73406 3.58839,-0.86415 5.29703,-1.54487c0.82508,-0.32871 1.39217,-1.08092 1.99596,-1.77436c-0.71961,-0.13071 -1.44651,-0.34578 -1.94692,-0.52747c-0.22884,-0.08309 -4.9601,-2.85256 -5.11608,-2.94344c-9.93979,-5.79126 -19.87958,-11.58253 -29.81937,-17.37378c-9.22961,-5.37749 -19.39004,-10.23186 -27.48473,-17.20865c-5.68593,-4.90068 -9.18084,-11.16201 -12.74403,-17.64083c0,0 -1.20476,-2.19057 0.9858,-3.39532c2.19056,-1.20475 3.39532,0.9858 3.39532,0.9858c3.25029,5.90989 6.29977,11.75439 11.53952,16.18912c7.96551,6.74168 17.80255,11.49275 26.8252,16.74965c9.93979,5.79126 19.87959,11.58253 29.81939,17.37379c2.66852,1.55477 4.17638,2.1961 7.03062,3.11507c1.52835,0.49209 3.83384,0.30232 4.47882,1.77271c0.25901,0.59048 0.2169,1.21992 0.0178,1.85354c-7.35373,1.95178 -18.44613,12.13318 -19.1959,19.38684c-0.2887,0.7913 -0.47126,1.6034 -0.55254,2.41782c-0.19461,0.49116 -0.36429,0.98228 -0.50665,1.47261c-1.7765,6.11862 -1.92078,11.2094 -0.93412,16.90564c-0.04642,0.32132 -0.07915,0.64377 -0.08987,0.96802c-0.01984,0.60038 0.16843,1.22295 0.26281,1.82906c-0.03763,0.1212 -0.08216,0.24143 -0.13277,0.36077c-0.18156,0.03123 -0.36506,0.06385 -0.55053,0.0978l-0.2174,0.32963c-0.85318,-0.00717 -2.99619,2.51906 -3.32565,2.8667c-1.57378,1.66055 -4.57645,3.47319 -6.75711,4.31455c-0.14506,0.05596 -0.29017,0.11305 -0.43535,0.17123c-0.41191,-0.37133 -0.82518,-0.68852 -1.24298,-0.95999c0.03165,-0.03827 0.06217,-0.07617 0.09148,-0.11369z" fill="#acacac"/><path d="M265.93867,256.73585c1.83076,-2.11889 4.34548,-3.91301 6.07818,-6.00761c1.2134,-1.46683 1.42444,-4.45719 1.8707,-6.2127c1.12462,-4.4241 2.02958,-9.21223 3.94177,-13.34517c1.59452,-3.44635 4.50846,-6.60965 6.73781,-9.66959c1.69234,-2.32285 3.26286,-4.59606 4.94929,-6.74516c0.47246,-0.10369 0.94049,-0.23201 1.4064,-0.37198c-7.40416,10.20544 -12.87276,23.61611 -14.68088,35.04388c-0.72969,0.63163 -1.37177,1.37174 -1.89854,2.20386c-2.22497,0.81902 -3.64303,3.61216 -5.51125,4.9712c-0.9228,0.67129 -2.15283,0.77271 -3.1755,1.279c-1.3125,0.64977 -2.32606,2.53395 -3.25615,4.16812c-0.53195,-0.37607 -1.13279,-0.6763 -1.81407,-0.88464c1.88396,-1.3864 3.72369,-2.81481 5.35223,-4.42921z" fill="#acacac"/><path d="M183.89293,254.08409c2.31245,-7.45891 4.21541,-15.0113 6.14368,-22.59685c0.98121,-3.85996 2.19924,-7.6793 2.60466,-11.64504c0,0 0.21181,-1.97137 1.61008,-3.29792c0.38237,-1.67947 0.89452,-3.33065 1.28045,-4.84884c1.84837,-7.27124 3.69675,-14.54251 5.54512,-21.81375c1.01199,-3.98102 2.02397,-7.96205 3.03596,-11.94307c3.32773,0.14544 6.64776,0.19689 9.75676,0.62706c1.69916,0.2351 3.2951,1.0538 5.00422,1.19985c0.7302,0.0624 1.95437,0.17971 2.81889,0.04297c-0.06725,0.13675 -0.11992,0.26465 -0.14908,0.36669c-0.43837,1.53402 -1.11297,3.0588 -1.1165,4.65421c-0.00549,2.47599 -0.3271,5.31715 1.08988,7.3476c2.47098,3.54077 6.63212,4.41138 10.36144,5.37819c0.77346,0.20051 9.27328,2.36727 9.69557,2.41477c1.6016,0.18016 3.22957,-0.3049 4.83301,-0.14198c2.41307,0.24518 4.6894,1.24192 7.04013,1.83948c7.2994,1.49338 9.86471,11.37892 18.36871,11.33493c2.06268,-0.01067 3.88209,-2.04745 5.92713,-1.77813c1.9423,0.25579 2.98545,2.72492 4.85394,3.31375c1.7848,0.56245 3.73489,0.61344 5.59736,0.43162c0.92825,-0.09062 1.8323,-0.31674 2.72848,-0.58598c-2.98354,4.11232 -5.65279,8.74508 -7.89491,13.55883c-1.12682,2.18013 -2.20254,4.41102 -3.56047,6.50283c-0.78853,0.91905 -1.85246,2.01558 -2.80089,3.16495c-0.92327,4.56416 -1.03883,9.7783 -3.39433,13.84067c-0.7026,1.21174 -2.57374,1.56906 -3.05602,2.8841c-0.18074,0.49279 -0.3397,0.99302 -0.49267,1.49528c-0.28866,0.28613 -0.58392,0.54863 -0.89136,0.77228c-0.9228,0.67129 -2.15284,0.77271 -3.1755,1.279c-1.31249,0.64977 -2.32605,2.53395 -3.25614,4.16812c-1.52394,-1.07738 -3.61338,-1.53233 -6.53937,-0.98739c-2.21075,0.41174 -7.7258,6.02763 -9.98277,7.91303c-0.72316,0.60411 -1.62452,1.01874 -2.34988,1.61125c-0.04817,-0.08504 -0.10028,-0.16525 -0.1538,-0.23829c-2.28299,-3.11559 -6.06289,-4.96386 -9.6307,-6.44365c-5.95986,1.97981 -6.71845,1.80201 -12.44268,5.9656c-0.55532,0.40393 -0.50816,1.39875 -1.10474,1.73879c-0.28602,0.16303 -0.04708,-0.72091 -0.28867,-0.94457c-0.36926,-0.34184 -1.02954,-0.24614 -1.38368,-0.60363c-1.48959,-1.50365 -2.16742,-3.92864 -4.05492,-4.88632c-1.88673,-0.95728 -4.26858,-0.83773 -6.33536,-0.38545c-4.41442,0.96602 -8.06065,5.41518 -12.09697,7.24051c-0.2494,0.11278 0.40071,-0.57455 0.22978,-0.78833c-0.73186,-0.91535 -1.70767,-1.62143 -2.67982,-2.27597c-2.18403,-1.4705 -5.05644,-2.75498 -7.73687,-2.83445c-1.72267,-0.05108 -3.45096,0.1702 -5.18124,0.53526c0.93463,-4.23102 1.9417,-8.4456 3.2241,-12.58204z" fill="#acacac"/><path d="M200.48464,287.51635c-0.47737,-0.80521 -1.34535,-1.36447 -1.71281,-2.2254c-2.84578,-6.66743 -0.52488,-14.46736 -2.06893,-21.41557c-0.00762,-0.98689 -0.02391,-1.97447 -0.04632,-2.96261c2.17808,-1.4545 4.36299,-2.95778 6.79154,-3.78288c3.13336,-1.06456 6.66789,4.24442 9.9267,3.43431c4.22134,-1.04938 8.65286,-5.55665 11.72048,-8.74993c0.62126,-0.64671 1.36446,-1.21912 1.89464,-1.93494c2.65159,2.93153 8.58854,5.17419 12.22081,3.76157c2.05507,-0.79924 3.11338,-3.12333 4.67091,-4.68417c1.62063,-1.62408 3.30273,-3.18894 4.86359,-4.87055c0.23074,-0.24859 0.32442,-0.59573 0.48664,-0.89359c1.00674,1.3613 1.08577,1.55895 3.69,2.76918c2.34152,1.08814 4.72189,2.81195 7.29546,2.60334c0.86345,-0.06999 1.88064,-0.70311 2.90369,-1.58548c-1.32185,4.19179 -2.62511,8.45914 -3.45868,12.69593c-0.34491,1.00284 -0.53483,2.07777 -0.54115,3.19619c-0.72104,1.03446 -1.38961,2.0643 -1.86652,3.03569c-0.52412,0.13831 -1.07093,0.24666 -1.62145,0.32927c-0.44052,1.76081 -0.84157,3.53501 -1.34345,5.26083c-2.82756,4.25567 -7.19549,9.41953 -9.94576,10.6133c-2.26396,0.98269 -5.3491,0.8442 -7.48975,2.03098c-1.80619,1.00136 -2.79515,3.28107 -4.25514,4.13252c-4.34738,2.53534 -11.53302,2.67113 -16.11311,2.52801c-4.93295,-0.15416 -10.44761,-2.04362 -15.86487,-3.03799c-0.04323,-0.08443 -0.08862,-0.1672 -0.13653,-0.24802zM223.3893,279.63903c-0.04176,0.01015 -0.08373,0.01977 -0.12589,0.02886c0.19041,0.48192 0.38294,0.96295 0.58586,1.4395c0.01608,0.03776 0.03672,0.07533 0.06046,0.11276c0.02684,-0.01995 0.05359,-0.0394 0.07997,-0.05831c-0.02051,-0.11917 -0.03679,-0.23979 -0.0487,-0.36169l-0.11958,-1.0762c-0.14621,-0.02206 -0.29034,-0.05047 -0.43211,-0.08491z" fill="#acacac"/><path d="M203.55898,153.33322c2.74546,-4.71216 5.8878,-12.30419 11.39985,-14.36597c-0.11687,-0.57468 -0.21167,-1.15314 -0.28307,-1.73463c0,0 -0.86767,-7.44964 6.58198,-8.31731c7.44965,-0.86766 8.31731,6.58198 8.31731,6.58198c0.0856,0.80185 -0.41528,1.79813 0.10163,2.41708c1.63902,1.96258 3.46059,3.77721 5.1934,5.65993c5.12891,5.57262 13.74462,7.62049 19.70766,12.43687c0.69845,0.56414 0.98034,1.53347 1.65724,2.1233c2.65638,2.31471 6.3151,4.10164 9.39497,5.89608c3.82839,2.2551 7.72181,2.86178 11.55951,4.99836c4.70884,2.62158 9.43939,6.31406 14.46145,8.53375c1.23116,-0.04592 2.63381,0.26879 4.19306,1.17726c3.05273,1.77863 3.82951,4.15744 3.79721,6.17629c-2.9408,1.81215 -5.9464,4.33259 -8.39661,7.06988l-1.47555,0.60406c0.1128,0.24959 0.21295,0.51105 0.2966,0.78411c-2.28589,2.84411 -3.88989,5.82763 -4.15924,8.43335c-0.07518,0.20607 -0.14317,0.41356 -0.20404,0.62212c-1.20071,0.52023 -2.41761,0.59224 -3.48369,0.47119c-0.03772,0.10072 -0.07776,0.20097 -0.12011,0.30071l-0.26633,0.65604c1.35104,1.82803 0.36363,7.81342 0.42873,9.79096c0.04291,1.30379 0.16777,2.61883 0.00769,3.91346c-0.06501,0.52576 -0.74415,0.91671 -0.66981,1.44122c0.24813,1.75086 1.91255,3.32185 1.59127,5.06078c-0.16143,0.87375 -0.39562,1.67695 -0.69293,2.41781c-0.99326,0.67441 -2.37798,2.29993 -2.6375,2.57377c-1.57378,1.66055 -4.57645,3.47318 -6.75711,4.31454c-0.14506,0.05596 -0.29017,0.11304 -0.43534,0.17122c-2.60492,-2.34832 -5.26378,-2.53108 -8.78618,-2.68102c-1.94533,-0.08281 -4.40922,1.10551 -5.8372,-0.21814c-1.9577,-1.8147 -3.27663,-4.52432 -5.71566,-5.60915c-2.5612,-1.13916 -4.93621,-0.43459 -7.48527,-0.35911c-0.73549,0.02178 -0.70676,-1.29425 -1.1287,-1.89707c-0.6244,-0.89207 -1.46573,-1.62847 -2.02763,-2.56117c-1.61437,-2.67973 -2.12264,-5.55021 -4.52908,-7.76128c-1.26051,-1.15818 -2.91226,-1.79998 -4.36838,-2.69997c-1.17189,-0.68278 -7.11457,-4.15678 -7.50981,-4.31954c-1.49028,-0.6137 -3.18888,-0.59509 -4.68568,-1.19272c-2.66377,-1.06357 -4.92409,-2.94345 -7.41043,-4.3735c-0.40072,-0.23048 -3.82181,-2.10072 -3.95245,-2.29926c-0.20828,-0.31653 0.53256,-0.54506 0.74377,-0.85966c0.59173,-0.88134 1.14621,-1.78896 1.65868,-2.71861c2.1792,-3.95315 4.17954,-6.42748 1.15077,-11.42327c-3.36826,-5.55574 -4.90493,-2.65486 -8.93597,-4.17559c-1.29527,-0.48865 -2.28737,-1.58939 -3.55273,-2.15098c-2.68929,-1.19354 -5.46985,-2.16754 -8.24353,-3.1578c3.83575,-6.58346 7.6715,-13.16693 11.50725,-19.75039z" fill="#acacac"/><path d="M198.22458,287.32509c-2.23607,-4.47213 2.23607,-6.70821 2.23607,-6.70821c4.57128,-2.26137 8.66949,-5.33598 12.993,-7.92793c0.81081,-0.48608 1.86399,-0.48425 2.65068,-1.00847c0.81101,-0.54043 1.23356,-1.54068 2.02606,-2.10791c2.52513,-1.80732 5.69437,-2.53605 8.31186,-4.20682c0.83823,-0.53505 1.26944,-1.56115 2.07676,-2.14178c2.56835,-1.84718 6.28599,-2.77883 8.76859,-4.69984c2.8999,-2.2439 5.83505,-5.1992 8.31912,-7.8047c1.06935,-1.12162 1.1372,-2.88329 1.72223,-4.31831c0.67797,-1.02972 1.3491,-2.04878 2.01092,-3.06229c0.90806,1.23104 1.07402,1.45741 3.58202,2.62293c2.34152,1.08814 4.72189,2.81195 7.29546,2.60334c0.86345,-0.06999 1.88064,-0.70311 2.90369,-1.58548c-1.32185,4.19179 -2.62511,8.45914 -3.45868,12.69593c-0.34491,1.00284 -0.53483,2.07777 -0.54115,3.19619c-0.96934,1.3907 -1.84387,2.77303 -2.28534,4.01625c-1.30319,3.66994 -8.55491,13.51398 -12.49184,15.22284c-2.26396,0.98269 -5.3491,0.8442 -7.48975,2.03098c-1.80619,1.00136 -2.79515,3.28107 -4.25514,4.13252c-4.34738,2.53534 -11.53302,2.67113 -16.11311,2.52801c-5.65224,-0.17663 -12.06817,-2.63153 -18.22623,-3.40771c-0.0118,-0.023 -0.02355,-0.04618 -0.03523,-0.06954z" fill="#a1a1a1"/><path d="M248.41133,258.20913c1.1828,-1.61541 2.93663,-2.7936 3.96611,-4.51079c4.51581,-7.53241 5.32985,-15.57964 8.19321,-23.68489c0.70754,-2.00283 1.96781,-3.78294 2.65595,-5.79252c0.51594,-1.50671 0.60603,-3.16209 1.28986,-4.6004c0.94905,-1.99609 2.73325,-3.47542 4.03439,-5.26208c0.41546,-0.48235 0.89134,-0.98986 1.39474,-1.51535c0.59125,0.10677 1.21305,0.16269 1.87032,0.15929c2.06268,-0.01067 3.88209,-2.04745 5.92713,-1.77813c1.9423,0.25579 2.98545,2.72492 4.85394,3.31375c1.7848,0.56245 3.73489,0.61344 5.59736,0.43162c0.92825,-0.09062 1.8323,-0.31674 2.72848,-0.58598c-7.40416,10.20544 -12.87277,23.61611 -14.68088,35.04388c-0.72969,0.63163 -1.37176,1.37174 -1.89854,2.20386c-2.22497,0.81902 -3.64303,3.61216 -5.51125,4.9712c-0.9228,0.67129 -2.15284,0.7727 -3.1755,1.279c-1.31248,0.64977 -2.32605,2.53395 -3.25613,4.16811c-1.52393,-1.07737 -3.61338,-1.53232 -6.53936,-0.98738c-2.21075,0.41174 -7.7258,6.02763 -9.98277,7.91303c-0.72316,0.60411 -1.62452,1.01874 -2.34988,1.61125c-0.04817,-0.08504 -0.10028,-0.16525 -0.1538,-0.23829c-0.81139,-1.1073 -1.81185,-2.05452 -2.92467,-2.88201c2.8254,-2.87563 5.49427,-5.88779 7.9613,-9.25717z" fill="#a1a1a1"/><path d="M250.83683,223.88035c2.45904,-2.44912 6.49898,-3.89585 8.44213,-6.78349c3.95857,-5.88269 7.20275,-12.41071 10.77172,-18.53629c1.75327,-3.00922 3.62375,-7.30377 5.92372,-9.90143c1.40393,-1.58564 3.40832,-2.52347 4.99708,-3.92388c2.6683,-2.94916 5.25614,-3.68914 8.35026,-5.88347c2.28487,-1.62042 4.20844,-4.57687 7.00896,-4.63599c2.6513,-0.05597 8.71727,4.03921 9.52421,6.69078c0.12859,0.42254 0.21136,0.85559 0.25624,1.295c-7.29903,1.20923 -19.4198,12.01208 -20.20476,19.60605c-0.2887,0.7913 -0.47125,1.60339 -0.55253,2.41781c-0.19461,0.49116 -0.36429,0.98229 -0.50666,1.47262c-1.50463,5.18223 -1.83839,9.62714 -1.30586,14.32707c-0.05074,0.31987 0.00887,0.63279 0.11782,0.94257c0.13533,0.99179 0.30772,1.99766 0.5144,3.02669c0.12337,0.61428 0.01987,1.20074 -0.22033,1.76717c-0.18156,0.03123 -0.36506,0.06384 -0.55052,0.0978l-0.2174,0.32963c-0.85318,-0.00717 -2.99619,2.51907 -3.32565,2.8667c-1.57378,1.66055 -4.57645,3.47318 -6.75711,4.31454c-0.14506,0.05596 -0.29017,0.11304 -0.43534,0.17122c-2.60492,-2.34831 -5.26378,-2.53108 -8.78618,-2.68102c-1.94533,-0.08281 -4.40922,1.10551 -5.8372,-0.21814c-1.9577,-1.8147 -3.27663,-4.52432 -5.71566,-5.60915c-0.68626,-0.30524 -1.35915,-0.47809 -2.02561,-0.56616c0.16901,-0.20318 0.3463,-0.3994 0.53429,-0.58663z" fill="#a1a1a1"/><path d="M284.97058,187.94287c1.158,-0.66836 2.78045,-0.9813 4.79496,0.19242c1.43285,0.83482 2.1136,1.868 2.38352,2.87611c-3.35778,3.49302 -5.89733,7.45518 -6.24269,10.79622c-0.2887,0.7913 -0.47126,1.60338 -0.55254,2.41781c-0.19461,0.49116 -0.36428,0.98229 -0.50664,1.47262c-0.38288,1.31874 -0.68995,2.58974 -0.92622,3.82935c-2.0359,2.24959 -4.83488,2.55167 -9.22956,-2.33504c-3.1588,-3.51245 1.19076,-11.98273 3.60952,-14.98873c1.29794,-1.61306 2.3021,-3.95027 4.30408,-4.47822c0.79299,-0.20913 1.58042,-0.06708 2.36559,0.21747z" fill="#828282"/><path d="M282.73615,228.57511c-4.12781,-3.61521 -2.82412,-11.33512 -1.28039,-14.66245c0.35231,0.27125 0.72642,0.49463 1.14121,0.62535c1.7848,0.56245 3.73489,0.61344 5.59736,0.43162c0.92824,-0.09062 1.8323,-0.31675 2.72847,-0.58598c-3.11404,4.29219 -5.88569,9.15133 -8.18664,14.19147z" fill="#828282"/><path d="M184.67501,243.57901c5.57194,-21.91927 10.72808,-43.99769 16.81439,-65.77939c0.00086,-0.00123 0.0017,-0.00244 0.00256,-0.00367c3.88201,0.26615 7.82658,0.23357 11.50805,0.65952c-0.74267,1.25937 -1.56034,2.46371 -2.45962,3.59616c-4.40995,21.48298 -10.77004,42.73413 -16.17361,63.99106c-1.7538,6.89924 -3.50761,13.79847 -5.26141,20.6977c-1.0782,-0.35273 -2.18214,-0.57771 -3.2553,-0.60953c-2.38057,-0.07058 -4.7719,0.37894 -7.16436,1.00929c1.99643,-7.85371 3.99287,-15.70744 5.98931,-23.56115z" fill="#bababa"/><path d="M193.97567,284.29552c1.4319,-6.80726 0.48005,-14.57995 0.48005,-21.52807c0,-0.14447 0,-0.28895 0,-0.43342c2.939,-1.78969 5.74834,-4.10197 8.9924,-5.20414c0.33164,-0.11268 0.66777,-0.15395 1.0076,-0.13864c0,1.92541 0,3.8508 0,5.77621c0,7.70345 0.78427,15.91827 -0.67424,23.48924l0.09709,-0.40344c0,0 0,1.22165 -0.60386,2.45723c-3.10633,-0.69566 -6.217,-1.23874 -9.20494,-1.13706c-0.19074,-0.75083 -0.1912,-1.31745 -0.1912,-1.32018z" fill="#bababa"/><path d="M199.17115,160.15212c1.23123,-2.08054 3.05551,-3.74876 4.65234,-5.56388c1.91022,-2.17132 3.32589,-5.83661 4.77086,-8.31668c3.38971,-5.8179 6.77941,-11.6358 10.16912,-17.45371c0,0 2.5171,-4.32021 6.83731,-1.80311c4.32021,2.5171 1.80311,6.83732 1.80311,6.83732c-3.38971,5.8179 -6.77941,11.6358 -10.16913,17.4537c-1.76502,3.02937 -3.43294,6.93784 -5.68882,9.63572c-0.78049,0.93341 -1.93696,1.49745 -2.74063,2.41098c-1.7183,1.95317 -2.40671,5.00049 -3.4982,7.24496c-1.06578,2.19161 -2.27242,4.37813 -3.62817,6.47432c-0.44253,-0.31313 -0.89253,-0.61235 -1.38369,-0.83034c-2.63329,-1.16869 -5.3541,-2.12688 -8.07026,-3.09596c2.56008,-4.19018 4.44539,-8.76751 6.94616,-12.99332z" fill="#bababa"/><path d="M222.96311,121.56149c0.86802,-2.7835 4.42234,-4.02904 7.16584,-5.01619c1.3176,-0.47409 2.72054,0.66586 4.0881,0.96686c3.25411,0.71626 6.46806,1.2763 9.71663,2.04552c13.05259,3.09071 24.99498,9.67888 36.92367,15.80079c4.66751,2.39541 9.78948,4.48311 13.94053,7.74996c6.4647,5.08765 12.52051,11.13413 19.30222,15.80106c4.72084,3.24872 9.25581,6.21587 12.25086,11.31577c-3.15413,2.10107 -5.76992,5.08212 -9.2426,7.32317c-2.2013,1.42058 -4.60291,2.61406 -6.9477,4.045c-0.97123,0.06502 -1.95536,0.26012 -3.02371,0.44313c-0.18193,-0.04187 -0.36339,-0.08113 -0.54437,-0.1174c-1.8483,-0.37036 -3.7977,-0.22476 -5.60271,-0.76822c-1.68563,-0.50752 -3.15509,-1.5624 -4.73263,-2.3436c-8.76851,-4.50008 -17.53702,-9.00017 -26.30553,-13.50027c-5.41726,-2.78019 -11.39332,-5.22278 -16.52465,-8.50796c-5.42186,-3.47119 -9.37047,-8.8099 -14.57426,-12.45471c-2.32647,-1.6295 -4.89518,-2.81442 -7.0853,-4.73202c-3.51601,-3.07851 -6.50108,-6.55435 -10.02831,-9.63287c0,0 -3.76187,-3.29369 -0.46819,-7.05556c0.55642,-0.63552 1.12622,-1.06969 1.68898,-1.35238c0.00103,-0.00336 0.00208,-0.00672 0.00314,-0.0101z" fill="#c4c4c4"/><path d="M258.80082,150.8579c-0.48281,0.09659 -0.92414,-0.16055 -0.92414,-0.16055c-7.07992,-4.125 -13.58198,-9.06652 -19.32598,-14.69598c-1.76512,-1.72993 -2.67812,-6.07839 -0.25167,-7.77044c0.81641,-0.5693 1.9107,-0.55835 2.86605,-0.83753c5.04244,0.28504 11.59432,1.03236 16.34916,2.84934c7.86993,3.00736 13.6544,9.92479 22.02807,12.07934c1.04089,0.61 2.27098,0.81554 3.4031,1.2325c4.20367,1.5482 8.36933,4.9036 11.47423,7.83773c2.74752,2.59641 7.29604,3.31419 10.10689,5.87603c1.52411,1.38909 3.25333,3.30873 4.37748,5.01732c1.54917,4.01542 1.38664,11.18692 -3.8397,12.83872c-1.06597,0.33692 -2.19483,-0.44264 -3.26594,-0.76286c-1.47749,-0.44171 -3.11805,-0.08593 -4.61285,-0.77235c-3.83913,-1.76298 -10.28722,-4.91164 -12.55703,-8.47646c-8.68604,-4.68559 -17.26946,-9.28316 -25.82765,-14.25482z" fill="#b2b2b2"/><path d="M304.20133,182.32739c-4.36417,-0.66209 -8.75282,-2.07389 -12.8009,-3.61732c-2.18046,-0.83135 -4.20083,-0.83976 -6.27522,-2.00241c-4.38984,-1.09628 -7.82631,-3.33605 -11.71811,-5.60355c-3.70393,-2.15804 -7.40783,-4.31605 -11.11176,-6.47409c-1.61921,-0.94341 -3.90454,-1.77472 -5.22454,-3.10607c-1.73037,-1.74523 -3.53682,-2.82547 -5.83621,-4.16518c-3.35116,-1.95249 -8.27725,-3.84128 -11.08908,-6.52294c-2.54803,-2.43008 -5.32031,-5.0726 -7.94628,-7.50046c-1.43401,-1.32583 -3.03417,-2.18821 -4.54046,-3.45972c-1.62929,-1.37534 -2.78459,-3.86776 -3.9321,-5.65067c-1.34999,-1.21213 -2.05058,-2.33186 -2.94539,-3.9004c-5.70958,-10.00854 8.52852,-13.47718 15.74678,-13.57564c0,0 1.24989,-0.01609 1.26597,1.23381c0.01608,1.2499 -1.2338,1.26597 -1.2338,1.26597c-2.36093,0.02844 -5.36625,-0.03453 -7.58142,0.97631c-1.09252,0.49855 -2.04692,1.32782 -3.20513,1.64514c-1.61443,0.44231 -4.03441,1.49595 -3.99536,3.76376c0.02989,1.73538 1.23728,3.3715 2.05068,4.79072c0.4656,0.81239 1.08374,1.54981 1.78913,2.16558c6.61983,9.97581 16.5534,16.59473 26.875,22.60844c2.46544,1.43645 4.5702,2.62386 6.40816,4.62257c1.03748,1.12822 3.29086,1.85529 4.65258,2.64867c3.29237,1.91825 6.58474,3.83649 9.87712,5.75474c4.18181,2.43647 7.9275,4.94666 12.62396,6.16233c2.08587,1.18034 4.0469,1.1621 6.27523,2.00241c3.84832,1.4512 8.07084,2.86505 12.23743,3.46497l1.37211,0.69598c0,0 1.00669,0.58652 0.51001,1.59896c-0.06234,0.00967 -0.12496,0.01919 -0.18793,0.02856c-0.55181,0.08211 -1.13237,0.22058 -1.73446,0.40975z" fill="#515151"/><path d="M227.43498,131.33888c-0.20912,0.72025 -0.92938,0.51114 -0.92938,0.51114l-0.09513,-0.17804c-1.5812,0.5733 -3.51804,0.85935 -4.78183,2.01028c0,0 -0.56312,0.49538 -1.0585,-0.06773c-0.49537,-0.56311 0.06774,-1.05849 0.06774,-1.05849c1.48816,-1.27632 3.44851,-1.63412 5.26035,-2.29389l1.02561,0.14736c0,0 0.72026,0.20913 0.51113,0.92937z" fill="#515151"/><path d="M233.58806,139.92574c0.7252,-0.19125 0.91646,0.53396 0.91646,0.53396l0.02548,0.11461c0.72846,2.05242 0.05446,3.78383 -1.57809,5.14067c0,0 -0.58107,0.4742 -1.05526,-0.10685c-0.4742,-0.58107 0.10686,-1.05527 0.10686,-1.05527c1.08957,-0.86904 1.72603,-2.07061 1.12718,-3.43821l-0.07659,-0.27244c0,0 -0.19124,-0.72521 0.53396,-0.91646z" fill="#515151"/><path d="M252.98067,154.009c0.19125,0.7252 -0.53396,0.91646 -0.53396,0.91646l0.1106,-0.11105c-1.23447,1.07997 -1.88804,2.47361 -2.70778,3.88056c0,0 -0.37757,0.64804 -1.0256,0.27047c-0.64803,-0.37757 -0.27046,-1.0256 -0.27046,-1.0256c0.90794,-1.55833 1.6494,-3.04618 3.01308,-4.25167l0.49765,-0.21313c0,0 0.72521,-0.19124 0.91646,0.53396z" fill="#515151"/><path d="M224.47941,118.11934c-0.05167,0.19441 -0.23422,0.63603 -0.81758,0.56412c-0.74436,-0.09176 -0.6526,-0.83613 -0.6526,-0.83613l0.58548,-1.66929c1.23306,0.59014 2.86208,1.39489 3.94317,2.29459c0.9313,0.77504 1.24186,1.88935 2.3203,2.48277c0,0 0.64803,0.37757 0.27047,1.0256c-0.37757,0.64803 -1.02559,0.27047 -1.02559,0.27047c-0.85916,-0.52063 -3.67116,-2.8208 -4.62365,-4.13212z" fill="#515151"/><path d="M232.85271,114.1213c0.56311,-0.49537 1.05849,0.06773 1.05849,0.06773l0.45769,0.64016c0.46962,1.79708 1.36213,3.49079 2.25736,5.11567c0,0 0.36142,0.65718 -0.29574,1.0186c-0.65716,0.36142 -1.01859,-0.29574 -1.01859,-0.29574c-0.95448,-1.73835 -1.88332,-3.53741 -2.39344,-5.45604l-0.13351,-0.03189c0,0 -0.49537,-0.56312 0.06773,-1.0585z" fill="#515151"/><path d="M264.0617,161.44448c-0.1621,-0.13082 -0.47476,-0.46854 -0.18551,-0.96499c0.37757,-0.64803 1.02559,-0.27046 1.02559,-0.27046l0.41834,0.38951c1.17935,2.54107 -0.32517,5.34463 -2.54168,6.83638c0,0 -0.6275,0.41076 -1.03827,-0.21675c-0.41077,-0.62751 0.21675,-1.03827 0.21675,-1.03827c1.47378,-0.92855 2.8337,-3.02767 2.10479,-4.73542z" fill="#515151"/><path d="M281.70585,170.14543c0.32976,0.67362 -0.34386,1.00338 -0.34386,1.00338l-0.14002,-0.0717c-0.99511,1.6592 -2.31644,2.85131 -3.33894,4.60628c0,0 -0.37756,0.64803 -1.02559,0.27047c-0.64803,-0.37757 -0.27047,-1.02559 -0.27047,-1.02559c0.99534,-1.70834 2.43506,-2.99346 3.33895,-4.60628l0.77657,-0.5204c0,0 0.67363,-0.32977 1.00338,0.34385z" fill="#515151"/><path d="M292.20268,174.13842c0.62751,-0.41076 1.03828,0.21675 1.03828,0.21675l0.29428,0.72343c-0.1386,2.12608 -0.65422,3.80322 -1.08093,5.87179c0,0 -0.15326,0.73417 -0.88743,0.58091c-0.73417,-0.15327 -0.58091,-0.88743 -0.58091,-0.88743c0.42838,-2.03023 0.92169,-3.58368 1.05233,-5.66106l-0.05236,0.19388c0,0 -0.41077,-0.62751 0.21674,-1.03827z" fill="#515151"/><path d="M305.41635,178.45813c-0.17257,0.2962 -0.40164,0.37812 -0.59951,0.37978c-1.38708,1.13658 -3.04753,2.6009 -3.1175,4.43698c0,0 -0.04789,0.74847 -0.79636,0.70058c-0.74847,-0.0479 -0.70058,-0.79637 -0.70058,-0.79637c0.2031,-2.47765 2.12608,-4.24353 3.96944,-5.75087l0.97405,0.00428c0,0 0.64803,0.37756 0.27046,1.02559z" fill="#515151"/><path d="M262.60592,194.79867c1.36922,2.09171 -0.72249,3.46093 -0.72249,3.46093l-0.74272,0.43799c-11.56188,4.73268 -21.83115,-2.35339 -29.38019,-10.50823c-2.05715,-2.22223 -5.11971,-2.821 -6.62888,-5.69721c-0.80786,-1.53964 -0.81193,-5.22915 -0.89055,-6.96522c0,0 -0.10942,-2.49761 2.38818,-2.60703c2.4976,-0.10942 2.60703,2.38817 2.60703,2.38817c0.06898,1.63512 -0.37621,3.42723 0.342,4.89777c0.85851,1.75781 4.46498,3.13309 5.82663,4.56033c6.02248,6.31252 14.37622,13.47289 23.78989,9.3256l-0.0498,-0.01558c0,0 2.09171,-1.36922 3.46092,0.72249z" fill="#a1a1a1"/><path d="M233.477,164.49793c0.06366,-0.05298 0.12649,-0.1074 0.18863,-0.16304c0.21424,-0.29472 0.42969,-0.58823 0.6457,-0.88079c0,0 1.565,-2.10984 3.95556,-2.13659c4.24554,-0.85691 7.43968,1.41781 10.91619,3.563c1.45201,-0.21486 2.62662,1.07231 3.84736,2.10446c5.76261,3.02874 12.28987,6.58834 12.88018,13.34753c0.1356,1.55268 -0.57658,3.06339 -0.86486,4.59509c-1.2092,2.97591 -3.64462,9.10167 -6.27254,10.75614c-1.86605,1.17482 -4.29039,1.39708 -6.49187,1.27145c-0.78774,-0.04495 -4.78908,-2.44465 -5.94228,-3.11655c-4.71806,-2.74891 -9.26665,-5.36801 -13.48758,-8.74115c-0.97681,-0.78062 -2.45639,-1.0129 -3.13138,-2.06548c-1.33055,-2.07485 -2.55594,-4.44864 -2.62596,-6.91248c-0.05185,-1.8248 1.4756,-3.34099 2.28811,-4.97574c0.82538,-1.66064 1.80086,-3.23935 2.84428,-4.77102c0.48729,-1.14228 1.2505,-1.87486 1.2505,-1.87486z" fill="#828282"/><path d="M227.83979,179.83687c-0.10048,-0.92007 0.84941,-1.25034 0.84941,-1.25034c10.38654,-3.54124 19.85356,-0.73544 28.93855,4.55778c1.11832,0.6826 3.1328,2.32652 3.68465,3.53286c1.15376,2.5221 0.88202,7.81035 -2.07406,8.93608c-1.78341,0.67915 -5.57683,1.47319 -7.46789,1.33696c-3.07017,-0.22115 -6.59985,-3.25654 -9.20051,-4.77177c-2.28874,-1.3335 -5.44097,-2.54366 -7.37718,-4.3369c-0.66632,-0.61712 -1.01164,-1.55328 -1.73838,-2.09796c-2.1649,-1.62256 -4.46347,-1.97726 -5.79529,-4.49904l0.13947,-1.34506c0,0 0.01394,-0.02393 0.04124,-0.0626z" fill="#707070"/><path d="M266.85802,220.78576c1.8917,1.63447 0.25723,3.52617 0.25723,3.52617l-0.59363,0.62535c-9.81436,7.73004 -21.63651,3.74164 -31.13725,-2.02249c-2.58901,-1.57075 -5.69811,-1.30413 -7.94015,-3.65437c-1.20016,-1.25808 -2.2188,-4.80418 -2.77186,-6.45167c0,0 -0.79212,-2.37118 1.57906,-3.16332c2.37118,-0.79214 3.16332,1.57906 3.16332,1.57906c0.51602,1.55308 0.58088,3.39853 1.67585,4.61483c1.30886,1.45389 5.15448,1.78425 6.85615,2.78195c7.52636,4.41272 17.52728,8.99941 25.43728,2.423l-0.05217,-0.0013c0,0 1.63447,-1.8917 3.52617,-0.25723z" fill="#a1a1a1"/><path d="M262.94686,247.53281c-5.79688,3.51251 -12.90394,3.56092 -19.74444,2.17855c0.21841,-0.26377 0.44309,-0.51797 0.67925,-0.75463c1.20462,-1.20718 2.4432,-2.38165 3.6407,-3.59566c1.55693,0.19928 3.11901,0.29748 4.65127,0.24685c0.2237,0.10827 0.47174,0.22535 0.74824,0.35385c2.34152,1.08814 4.72189,2.81195 7.29546,2.60334c0.86345,-0.06999 1.88062,-0.70311 2.90367,-1.58546c-0.0581,0.18425 -0.11617,0.36864 -0.17416,0.55317z" fill="#a1a1a1"/><path d="M225.60102,237.69949c2.10294,-1.3519 3.45484,0.75105 3.45484,0.75105c0.2946,0.45992 0.54853,0.96379 0.80671,1.46482c-0.37604,-0.22405 -0.77525,-0.39805 -1.21048,-0.49565c-1.37329,-0.30796 -2.84152,-0.10011 -4.22752,0.35249c-0.02913,-0.66365 0.20514,-1.44829 1.17645,-2.07271z" fill="#a1a1a1"/><path d="M235.78808,244.24487c-0.23704,0.22848 -0.22323,-0.68708 -0.51248,-0.84433c-0.4421,-0.24033 -1.05845,0.0151 -1.48975,-0.24412c-0.03408,-0.02048 -0.06795,-0.04135 -0.10164,-0.06258c0.76468,0.10059 1.61882,0.12233 2.45175,0.14329c-0.04564,0.38025 -0.0897,0.75889 -0.34788,1.00774z" fill="#a1a1a1"/><path d="M217.18477,253.39179c0.04663,-0.06844 0.09206,-0.13806 0.13652,-0.20863c0.12491,-0.34228 0.25134,-0.68372 0.37857,-1.02441c0,0 0.92437,-2.4589 3.21538,-3.1421c3.84614,-1.99152 7.54271,-0.68301 11.47514,0.4233c1.33693,-0.60592 2.82025,0.30856 4.27778,0.96516c6.37338,1.32703 13.62792,2.95415 16.05445,9.29033c0.35522,0.92753 0.37473,1.93338 0.37945,2.94268c-2.513,1.91483 -5.65515,5.02693 -7.22369,6.33722c-0.72316,0.60411 -1.62452,1.01874 -2.34988,1.61125c-0.04817,-0.08504 -0.10028,-0.16525 -0.1538,-0.23829c-2.28299,-3.11559 -6.06289,-4.96386 -9.6307,-6.44365c-5.95986,1.97981 -6.71845,1.80201 -12.44268,5.9656c-0.55532,0.40393 -0.50816,1.39875 -1.10474,1.73879c-0.28602,0.16303 -0.04708,-0.72091 -0.28867,-0.94457c-0.36926,-0.34184 -1.02954,-0.24614 -1.38368,-0.60363c-1.48959,-1.50365 -2.16742,-3.92864 -4.05492,-4.88632c-0.12293,-0.06237 -0.24796,-0.12017 -0.37487,-0.17361c0.07647,-1.34881 0.73216,-2.74442 0.98132,-4.09338c0.33682,-1.82361 0.84049,-3.60972 1.42241,-5.36929c0.15435,-1.23225 0.68662,-2.14648 0.68662,-2.14648z" fill="#828282"/><path d="M248.74525,244.08617c0.23074,-0.24859 0.32442,-0.59573 0.48664,-0.89359c1.00674,1.3613 1.08577,1.55895 3.69,2.76918c0.17,0.079 0.34019,0.16136 0.51066,0.24607c-2.25581,0.00023 -4.47789,-0.00232 -6.68824,-0.06777c0.67922,-0.67284 1.35061,-1.35323 2.00095,-2.05389z" fill="#828282"/><path d="M245.55394,263.99054c1.01625,0.2806 2.76157,1.00004 3.85393,1.79561c-1.40193,1.27256 -2.69071,2.48851 -3.52949,3.1892c-0.72316,0.60411 -1.62452,1.01874 -2.34988,1.61125c-0.04817,-0.08504 -0.10028,-0.16525 -0.1538,-0.23829c-2.28299,-3.11559 -6.06289,-4.96386 -9.6307,-6.44365c-5.95986,1.97981 -6.71845,1.80201 -12.44268,5.9656c-0.55532,0.40393 -0.50816,1.39875 -1.10474,1.73879c-0.28602,0.16303 -0.04708,-0.72091 -0.28867,-0.94457c-0.36926,-0.34184 -1.02954,-0.24614 -1.38368,-0.60363c-0.73754,-0.7445 -1.27607,-1.71488 -1.86096,-2.62117c8.96197,-6.13205 18.77007,-6.02184 28.89067,-3.44915z" fill="#707070"/><path d="M250.02426,246.00023c-1.02138,0 -2.14445,0.08047 -3.2866,0.14641c0.68149,-0.67499 1.35513,-1.35753 2.00759,-2.06047c0.23074,-0.24859 0.32442,-0.59573 0.48664,-0.89359c1.00674,1.3613 1.08577,1.55895 3.69,2.76918c0.14049,0.06528 0.28111,0.13286 0.42191,0.20217c-1.19485,-0.07415 -2.3402,-0.1637 -3.31954,-0.1637z" fill="#707070"/><path d="M230.77865,199.32411c0.04663,-0.06844 0.09207,-0.13806 0.13652,-0.20863c0.12491,-0.34228 0.25134,-0.68373 0.37856,-1.02441c0,0 0.09362,-0.24903 0.29511,-0.6106c0.0968,0.02488 0.19335,0.04978 0.28963,0.07473c0.77346,0.20051 9.27328,2.36727 9.69557,2.41477c1.6016,0.18016 3.22957,-0.3049 4.83301,-0.14198c2.41307,0.24518 4.6894,1.24192 7.04013,1.83948c5.56107,1.13773 8.37438,7.14644 13.15936,9.92438c-0.38358,3.42574 -1.11185,8.72755 -2.93014,10.75816c-1.47098,1.64273 -3.74069,2.52317 -5.89183,3.00787c-0.76972,0.17343 -5.27676,-1.03322 -6.57028,-1.36203c-5.29215,-1.34528 -10.38565,-2.61237 -15.37153,-4.69453c-1.15384,-0.48186 -2.64024,-0.29825 -3.57869,-1.12459c-1.84989,-1.62889 -3.6809,-3.57414 -4.42585,-5.92369c-0.55174,-1.74017 0.49982,-3.61797 0.83139,-5.41315c0.33682,-1.82361 0.84049,-3.60972 1.4224,-5.36929c0.15435,-1.23225 0.68662,-2.14648 0.68662,-2.14648z" fill="#828282"/><path d="M229.42943,215.31993c-0.34966,-0.85696 0.47276,-1.43574 0.47276,-1.43574c9.01203,-6.26129 18.88566,-6.16743 29.07608,-3.57699c1.26293,0.3487 3.65184,1.37518 4.51419,2.38322c1.80292,2.10751 2.9961,7.26656 0.46363,9.16189c-1.52785,1.14346 -4.95659,2.95017 -6.81218,3.33931c-3.01259,0.63177 -7.24099,-1.31579 -10.15809,-2.05732c-2.56723,-0.65259 -5.93072,-0.94914 -8.28547,-2.1407c-0.81035,-0.41007 -1.39983,-1.21515 -2.24834,-1.53894c-2.52767,-0.96456 -4.83515,-0.67342 -6.80917,-2.73165l-0.23584,-1.33155c0,0 0.00682,-0.02685 0.02244,-0.07154z" fill="#707070"/><path d="M219.56186,165.34057c1.56433,1.9501 -0.38576,3.51442 -0.38576,3.51442l-2.17375,1.73338c-0.93494,0.51798 -1.78985,1.21889 -2.80483,1.55391c-6.9098,2.28077 -11.79493,-3.00218 -16.00818,-7.57271c0,0 -1.69446,-1.83815 0.1437,-3.53261c1.83815,-1.69447 3.53261,0.14369 3.53261,0.14369c3.45167,3.74438 7.01446,8.38744 12.33159,5.26872l1.8502,-1.49456c0,0 1.9501,-1.56433 3.51443,0.38576z" fill="#a1a1a1"/><path d="M207.28302,147.37082c2.54287,-3.7439 6.579,-1.39231 6.579,-1.39231c2.51558,1.46567 8.42882,4.15923 9.10811,7.00161c0.54946,2.2991 -1.90131,6.18629 -3.21203,8.42199c-1.10982,1.89302 -1.37974,4.55321 -3.22672,5.73807c-5.43551,3.48696 -8.93047,1.49324 -12.83227,-2.29393c-1.46596,-1.42289 -3.99251,-2.39076 -4.24818,-4.41764c-0.54327,-4.30695 3.87846,-6.87099 5.64657,-10.04888l0.89918,-1.5433c0,0 0.44656,-0.76645 1.28633,-1.46559z" fill="#828282"/><path d="M199.78453,162.81505l-0.3708,-1.61823c-0.22483,-0.10091 -0.44177,-0.29511 -0.59949,-0.64546c-0.51311,-1.13983 0.62671,-1.65295 0.62671,-1.65295c4.38806,-1.92087 10.24474,0.55352 14.18596,2.83657c1.04994,0.60819 4.41415,2.0545 4.42509,3.4608c0.00691,0.88952 -1.03661,1.4803 -1.74331,2.02057c-2.02112,1.54513 -5.2606,1.10107 -7.57172,1.04778c-2.91029,-1.19657 -5.93484,-2.88592 -8.37359,-4.92804c-0.28816,-0.04435 -0.4976,-0.16639 -0.4976,-0.16639l-0.07563,-0.33c-0.0051,-0.00457 -0.01018,-0.00914 -0.01527,-0.0137z" fill="#707070"/><g><path d="" fill="#d10000"/><path d="M197.64981,144.70317c1.41313,1.86784 2.4414,3.71795 4.1327,5.36587l0.05828,-0.00923c0,0 0.72592,0.42294 0.64076,1.17048c0.24671,0.08541 0.49229,0.27382 0.67472,0.64649c0.5496,1.1227 -0.57309,1.67229 -0.57309,1.67229l-0.30719,-0.08336c-1.24061,2.12931 -2.14092,3.34682 -4.26431,4.71167c-0.00173,0.00027 -0.00346,0.00055 -0.00519,0.00081c-0.16735,-0.42664 -0.3664,-0.83127 -0.5905,-1.21881l0.67975,-1.08046c0,0 0.62928,-1.08005 -0.45078,-1.70933c-1.08005,-0.62928 -1.70933,0.45078 -1.70933,0.45078l-0.10399,0.18816c-0.83038,-0.94619 -1.75208,-1.83479 -2.61935,-2.77228c-0.01648,-0.04423 -0.03548,-0.08758 -0.05692,-0.12982l-0.70141,-1.43281l-0.048,0.02349l-0.03489,-0.16765c-0.00892,-0.01024 -0.01783,-0.02048 -0.02675,-0.0307c0.15581,-0.51649 0.51619,-1.09361 0.46999,-1.60506c-0.05697,-0.63059 -0.49218,-1.17388 -0.83549,-1.70589c-0.4265,-0.66091 -1.14154,-1.12167 -1.64145,-1.7223c0.06017,-0.36295 -0.04361,-0.73733 -0.28348,-1.01762l-0.20612,-0.25258c0.10771,-0.61678 0.78199,-0.97898 0.57338,-1.91092c-0.42838,-1.91376 -2.48769,-2.40021 -3.18455,-3.96285c-0.14639,-0.32826 -0.23414,-0.67472 -0.29728,-1.02909c1.07208,-0.43159 2.3674,-0.8078 3.18624,-1.15375c0,0 1.15145,-0.48648 1.63793,0.66497c0.1819,0.43053 0.1348,0.76811 0.00451,1.02204c0.86304,3.60402 3.75089,4.26087 5.8818,7.07745z" fill="#d10000"/><path d="" fill="#d10000"/><path d="" fill="#d10000"/><path d="" fill="#d10000"/><path d="M196.81247,147.23098c0.70296,-0.17819 1.40659,-0.7154 2.10887,-0.53458c2.35395,0.60606 4.51073,6.06313 3.33184,8.0001c-1.09334,1.79642 -2.69382,2.56161 -4.43444,3.04014c-0.12249,-0.26718 -0.25735,-0.52581 -0.40274,-0.77724l0.67976,-1.08047c0,0 0.62928,-1.08005 -0.45078,-1.70933c-1.08005,-0.62928 -1.70933,0.45078 -1.70933,0.45078l-0.10399,0.18817c-0.83038,-0.94619 -1.75208,-1.83479 -2.61935,-2.77228c-0.01648,-0.04423 -0.03548,-0.08758 -0.05692,-0.12982l-0.53529,-1.09346c1.46062,-1.09958 2.74969,-2.48004 4.19236,-3.58201z" fill="#c00000"/><path d="" fill="#c00000"/><path d="M190.87676,135.22719c1.11731,-0.6756 1.82927,0.44315 1.82927,0.44315l0.90273,1.41881c1.69795,2.88694 4.16987,4.39754 6.2588,6.95479c1.86096,2.27817 3.23119,5.53615 4.75129,8.07541c2.13752,3.57063 3.78304,7.70612 6.1207,11.11292c0.81177,1.18303 1.88709,2.20531 2.54107,3.47752c0,0 0.59669,1.18069 -0.58621,1.74106c-1.1829,0.56037 -1.77958,-0.62033 -1.77958,-0.62033c-0.58211,-1.17716 -1.62104,-2.08434 -2.36173,-3.174c-1.95235,-2.87222 -3.34967,-6.3624 -5.1129,-9.37697c-1.76365,-3.01531 -3.42561,-6.96131 -5.64025,-9.65046c-2.17181,-2.63715 -4.65473,-4.23081 -6.44782,-7.22392l-0.88073,-1.38364c0,0 -0.71196,-1.11876 0.40535,-1.79437z" fill="#515151"/><path d="" fill="#cfcfcf"/><path d="M193.85434,151.38645c0.10931,0.47127 0.07236,0.8923 -0.08429,1.2407c-0.18743,-0.19544 -0.37381,-0.39207 -0.55774,-0.59089c-0.01648,-0.04423 -0.03548,-0.08757 -0.05692,-0.12981l-0.70141,-1.43281l-0.04799,0.02349l-0.03489,-0.16765c-0.00892,-0.01024 -0.01783,-0.02048 -0.02675,-0.03069c0.04494,-0.14896 0.1069,-0.30297 0.17121,-0.459c0.57787,0.54707 1.24009,1.12114 1.33879,1.54666z" fill="#cfcfcf"/><path d="M191.97885,146.98784c-0.4265,-0.66091 -1.14154,-1.12167 -1.64145,-1.7223c0.02441,-0.14726 0.02184,-0.29641 -0.00588,-0.44038c1.2286,0.65277 2.17444,1.56443 2.08911,2.8371c-0.14064,-0.23039 -0.29914,-0.45336 -0.44178,-0.6744z" fill="#cfcfcf"/><path d="" fill="#cfcfcf"/><path d="" fill="#cfcfcf"/><path d="" data-paper-data="{&quot;index&quot;:null}" fill="#cfcfcf"/></g><path d="M217.03276,204.01479c2.04035,1.44466 0.59569,3.48499 0.59569,3.48499l-1.61319,2.26438c-0.75644,0.75513 -1.38559,1.66415 -2.26928,2.2654c-6.01603,4.09323 -12.16575,0.35758 -17.47356,-2.87792c0,0 -2.13467,-1.30123 -0.83344,-3.4359c1.30123,-2.13467 3.4359,-0.83343 3.4359,-0.83343c4.34839,2.65067 9.05076,6.13478 13.30509,1.67396l1.3678,-1.94579c0,0 1.44464,-2.04035 3.48498,-0.5957z" fill="#a1a1a1"/><path d="M200.88435,190.06166c1.41511,-4.29889 5.94235,-3.14805 5.94235,-3.14805c2.82168,0.71728 9.24768,1.68064 10.68252,4.22656c1.16061,2.05932 -0.12656,6.47064 -0.77185,8.98062c-0.54638,2.12526 -0.07424,4.75709 -1.52413,6.40424c-4.26686,4.84742 -8.17538,3.89181 -12.96829,1.3238c-1.80077,-0.96483 -4.49609,-1.20049 -5.29935,-3.07889c-1.70686,-3.99143 1.83916,-7.67272 2.66506,-11.21434l0.44005,-1.73108c0,0 0.21854,-0.85971 0.83363,-1.76285z" fill="#828282"/><path d="M198.45802,207.02493l-0.80156,-1.45385c-0.24392,-0.03519 -0.50591,-0.16222 -0.75389,-0.45569c-0.80681,-0.95475 0.14793,-1.76157 0.14793,-1.76157c3.69054,-3.05364 10.00189,-2.28544 14.41903,-1.1744c1.17672,0.29598 4.80897,0.76124 5.20627,2.11029c0.25129,0.85333 -0.58951,1.70831 -1.12036,2.4221c-1.51821,2.04142 -4.7549,2.50545 -6.99154,3.08984c-3.12715,-0.35001 -6.49968,-1.14236 -9.40602,-2.43499c-0.28924,0.03661 -0.52418,-0.02311 -0.52418,-0.02311l-0.16347,-0.29648c-0.00617,-0.00299 -0.01231,-0.00598 -0.01847,-0.00897z" fill="#707070"/><g><path d="M191.17377,189.77732c1.87234,1.40715 3.3698,2.9031 5.44911,4.02231l0.05349,-0.02491c0,0 0.81424,0.20699 0.93797,0.94911c0.26068,0.01426 0.54861,0.12786 0.8265,0.43598c0.83718,0.92825 -0.09106,1.76542 -0.09106,1.76542l-0.31827,0.00435c-0.60714,2.38841 -1.13787,3.80657 -2.80399,5.70279c-2.38292,1.10214 -4.73039,0.96707 -6.23567,3.34972c-0.85189,1.34841 -1.3561,5.25393 -3.10816,6.28471c-0.04151,-0.04441 -0.08254,-0.0899 -0.12318,-0.13663c0.21068,-0.34581 0.33898,-0.71983 0.3345,-1.1116c-0.00858,-0.75071 -0.69604,-1.33044 -1.04406,-1.99566l-0.9937,-1.01489c0,0 -0.88039,-0.88737 -1.76776,-0.00698c-0.88737,0.88039 -0.00699,1.76775 -0.00699,1.76775l0.00996,0.00986c-0.10948,0.29114 -0.20675,0.56161 -0.30329,0.81671c-0.39909,-0.32252 -0.74447,-0.60543 -0.97976,-0.76829c-0.10005,-0.06925 -0.20108,-0.13686 -0.30302,-0.20292c-0.36787,-1.42867 -1.00432,-2.90205 -1.61882,-5.09286c-0.35959,-1.28199 0.4823,-3.06605 -0.09803,-4.27416c-0.97708,-2.03406 -3.16599,-3.76096 -3.88693,-5.63739c-0.09339,-0.24306 -0.16628,-0.4823 -0.22466,-0.71892c0.51904,-0.05092 1.02545,-0.10029 1.24569,-0.51202c0.41165,-0.76959 0.49643,-1.82661 0.57119,-2.92611c0.39342,0.02189 0.8737,-0.04985 1.50418,-0.24071c0.52477,-0.15886 0.54342,-1.18329 1.08951,-1.23228l0.73696,1.08297c0,0 0.80683,0.95475 1.76157,0.14793c0.95476,-0.80682 0.14793,-1.76156 0.14793,-1.76156l-1.67712,-1.77376c-0.83161,0.05928 -1.72299,-0.13738 -2.49481,0.17785c-0.39434,0.16106 -0.32108,0.82577 -0.64365,1.10399c-0.04586,0.03955 -0.09311,0.05821 -0.1412,0.06014c0.13055,-0.56539 0.33,-1.08807 0.65136,-1.52704c0.73202,-0.99998 2.84151,-2.22714 3.89966,-3.07996c0,0 0.97325,-0.7844 1.75765,0.18885c0.2933,0.3639 0.34086,0.70141 0.28544,0.98138c1.82098,3.22767 4.77811,3.06493 7.60149,5.18682z" fill="#d10000"/><path d="" fill="#d10000"/><path d="M186.4919,211.23784c0.01398,0.24762 -0.05948,0.53136 -0.30177,0.83374c-0.08229,0.1027 -0.16675,0.18591 -0.25197,0.25262c-0.06017,-0.06242 -0.11933,-0.12696 -0.17765,-0.19402c0.21068,-0.34581 0.33898,-0.71982 0.3345,-1.11159c-0.00858,-0.75071 -0.69604,-1.33044 -1.04406,-1.99567l-0.9937,-1.01488c0,0 -0.88039,-0.88738 -1.76776,-0.00699c-0.88737,0.88039 -0.00699,1.76776 -0.00699,1.76776l0.00995,0.00985c-0.10316,0.2743 -0.19546,0.53025 -0.28651,0.77229c-0.44008,-0.3105 -0.88893,-0.63594 -1.3084,-0.96102c-0.3313,-1.27256 -0.87362,-2.5848 -1.42199,-4.41139c0.58,-0.92615 1.44771,-1.75977 2.05669,-2.31153c1.83167,-1.65956 3.99098,-2.91877 5.72162,-4.69783c1.61437,-1.65956 2.63062,-3.87799 4.01007,-5.73122c0.62684,-0.36465 1.15559,-1.07467 1.88052,-1.09398c2.42985,-0.06472 6.00432,4.58872 5.40363,6.77523c-1.27174,4.62905 -6.56203,4.81843 -9.23822,7.88295c-0.90581,1.03725 -1.28707,4.49613 -2.20301,5.02188c-0.14445,0.08292 -0.2826,0.15391 -0.41493,0.21383z" fill="#c00000"/><path d="M182.05572,182.52957c0.88841,-0.95685 1.88061,-0.07704 1.88061,-0.07704l1.25813,1.11581c2.42647,2.30862 5.21852,3.0811 7.93021,4.96521c2.41576,1.67849 4.62918,4.43397 6.78905,6.45723c3.03712,2.84504 5.75657,6.36847 8.94106,9.00097c1.10583,0.91414 2.42085,1.60126 3.3995,2.64454c0,0 0.8984,0.97105 -0.08476,1.83515c-0.98316,0.86409 -1.88156,-0.10697 -1.88156,-0.10697c-0.88342,-0.97167 -2.13179,-1.55812 -3.1436,-2.40205c-2.66701,-2.2245 -4.97034,-5.19577 -7.49468,-7.60914c-2.52493,-2.41396 -5.20809,-5.7507 -8.07692,-7.72705c-2.81334,-1.93813 -5.63882,-2.78745 -8.18596,-5.17197l-1.22731,-1.08805c0,0 -0.99219,-0.87981 -0.10378,-1.83666z" fill="#515151"/><path d="M180.07582,202.43007c-0.30338,-0.09646 -0.61012,-0.26818 -0.90662,-0.49446c0.05712,-0.60619 0.05522,-1.1895 -0.17966,-1.67847c-0.47352,-0.98576 -1.23164,-1.89937 -1.96936,-2.79282c0.51246,-2.70052 3.25502,-5.07151 5.671,-5.75463c2.40374,0.16553 4.92994,0.9639 4.1988,3.88134l-0.01086,0.09066c0.73607,0.51506 2.18572,1.02801 2.48367,1.56503c0.56939,1.02626 0.22989,2.00501 -0.74189,2.52461c0.06135,0.04242 0.09854,0.09222 0.08023,0.16224c-0.11825,0.45212 -0.51649,0.79801 -0.88068,1.09083c-0.28322,0.22772 -1.27643,-0.08939 -1.06994,0.20968c0.87861,1.2726 -0.65185,2.95102 -2.25541,2.3576c-0.50868,-0.18825 -1.19772,-1.05497 -1.66519,-1.56611c-0.87977,0.4042 -1.72169,0.7327 -2.75408,0.40446zM185.4478,195.20946c0.48488,-1.70399 -1.2426,-1.87357 -2.60562,-2.0156c-1.82853,0.56668 -3.98403,2.58195 -4.36921,4.62017c-0.18864,0.99826 1.20637,2.90634 2.12309,3.21789c0.66666,0.22657 1.42635,-0.27529 1.99052,-0.53783c0,0 0.45799,-0.21238 0.79513,0.08909c0.18846,0.06619 0.31346,0.18931 0.31346,0.18931c0.13835,0.13627 1.43989,1.61103 1.59592,1.5039c0.17998,-0.12359 0.5046,-0.26192 0.45214,-0.47384c-0.07055,-0.28503 -0.55557,-0.46006 -0.47441,-0.74227c0.1326,-0.46103 0.60282,-0.7607 0.98863,-1.04581c0.26649,-0.19694 1.01323,0.0754 0.96167,-0.25193c-0.05082,-0.32264 -0.49771,-0.63547 -0.33732,-0.92c0.23921,-0.42432 1.67567,-0.4693 1.2651,-0.73141c-0.86831,-0.55435 -1.76496,-0.7934 -2.56444,-1.57063l-0.06812,-0.06709c0,0 -0.44831,-0.44156 -0.11583,-0.92531zM188.33715,199.62046c-0.09295,-0.0949 -0.15898,-0.18331 -0.1201,-0.11259c0.0248,0.04509 0.0686,0.08108 0.1201,0.11259z" fill="#cfcfcf"/><path d="M182.6682,198.19062c0.16028,0.0678 0.31448,0.20793 0.39212,0.48439c0.20171,0.71811 -0.5164,0.91981 -0.5164,0.91981c-0.11317,0.03164 -0.28146,0.08204 -0.47418,0.13594c-0.03232,0.01183 -0.06463,0.02056 -0.09662,0.02672c-0.51444,0.14057 -1.15731,0.28769 -1.40523,0.181c-1.01609,-0.43716 -1.66349,-1.59379 -0.73931,-2.56929c1.00574,-1.06156 2.64137,-0.25296 2.83961,0.8214z" fill="#cfcfcf"/><path d="M182.20159,194.30757c0.96136,-0.93888 2.12766,-0.30909 2.5802,0.70026c0.11041,0.2463 -0.02693,0.8913 -0.15968,1.40782c-0.00565,0.03208 -0.01391,0.06454 -0.02525,0.09701c-0.05096,0.19352 -0.09881,0.36254 -0.12873,0.47618c0,0 -0.1908,0.72108 -0.91188,0.53028c-0.2776,-0.07344 -0.42004,-0.22548 -0.49027,-0.38473c-1.07726,-0.18192 -1.91056,-1.80511 -0.86438,-2.82682z" data-paper-data="{&quot;index&quot;:null}" fill="#cfcfcf"/></g><path d="M203.30308,257.27387c2.04035,1.44466 0.5957,3.485 0.5957,3.485l-1.61319,2.26438c-0.75644,0.75513 -1.38559,1.66415 -2.26928,2.2654c-6.01603,4.09323 -12.16575,0.35757 -17.47356,-2.87793c0,0 -2.13467,-1.30123 -0.83344,-3.4359c1.30123,-2.13466 3.43589,-0.83342 3.43589,-0.83342c4.34839,2.65067 9.05076,6.13478 13.3051,1.67395l1.3678,-1.94579c0,0 1.44464,-2.04035 3.48499,-0.59569z" fill="#a1a1a1"/><path d="M187.29046,244.12934c1.41511,-4.29889 5.94235,-3.14805 5.94235,-3.14805c2.82168,0.71728 9.24768,1.68064 10.68252,4.22657c1.16061,2.05932 -0.12656,6.47064 -0.77185,8.98062c-0.54638,2.12526 -0.07425,4.75708 -1.52414,6.40423c-4.26686,4.84742 -8.17539,3.89182 -12.96829,1.3238c-1.80077,-0.96483 -4.49608,-1.2005 -5.29934,-3.0789c-1.70686,-3.99142 1.83915,-7.67271 2.66507,-11.21432l0.44005,-1.73109c0,0 0.21854,-0.85971 0.83363,-1.76285z" fill="#828282"/><path d="M184.75882,260.56932l-0.80156,-1.45385c-0.24393,-0.03519 -0.5059,-0.16222 -0.75389,-0.45569c-0.80682,-0.95475 0.14794,-1.76156 0.14794,-1.76156c3.69054,-3.05364 10.00189,-2.28544 14.41902,-1.1744c1.17672,0.29598 4.80898,0.76123 5.20628,2.1103c0.25131,0.85332 -0.58951,1.70831 -1.12036,2.42211c-1.51821,2.04141 -4.7549,2.50545 -6.99155,3.08983c-3.12715,-0.35001 -6.49968,-1.14236 -9.40602,-2.43499c-0.28924,0.03661 -0.52417,-0.02311 -0.52417,-0.02311l-0.16346,-0.29648c-0.00616,-0.00299 -0.01232,-0.00598 -0.01846,-0.00898z" fill="#707070"/><path d="M276.14095,208.64577c-0.20734,-0.10322 -0.39477,-0.22789 -0.55987,-0.3695c-0.17929,-0.03275 -0.35694,-0.08561 -0.52976,-0.15942c-0.09473,-0.04046 -0.18801,-0.08722 -0.27931,-0.14042c-1.19299,-0.69508 -1.59663,-2.22567 -0.90155,-3.41866c0.60552,-1.03927 1.84508,-1.4795 2.94317,-1.11618c0.74063,-0.04827 1.54799,-0.03335 2.60216,-0.23269c0.94752,-0.17918 3.06476,-0.73468 4.0867,-0.27419c0.70902,0.31949 1.33673,0.65533 1.88444,1.00199c-0.01245,0.09618 -0.02346,0.19243 -0.03307,0.28871c-0.19461,0.49117 -0.36429,0.9823 -0.50665,1.47263c-0.59287,2.04196 -1.00394,3.96941 -1.25187,5.84312c-0.29692,0.0695 -0.60766,0.13221 -0.93208,0.18764c-1.96517,0.33569 -4.08371,-1.15973 -5.49058,-2.40971c-0.15346,-0.05265 -0.30404,-0.12111 -0.44959,-0.20591l-0.00001,-0.00001c-0.22206,-0.12938 -0.41676,-0.2877 -0.58211,-0.4674z" fill="#707070"/><path d="M281.06685,225.81929c0.29633,-1.16573 1.36702,-1.92991 2.52268,-1.88262c0.52697,-0.18861 1.10032,-0.3531 1.76155,-0.62913c-0.96342,1.78973 -1.86927,3.62247 -2.71113,5.47898c-1.19675,-0.43094 -1.89295,-1.70898 -1.5731,-2.96723z" fill="#707070"/><path d="M234.08572,260.69354c1.25,0 1.25,1.25 1.25,1.25l-0.12526,0.89432c-0.62562,1.26914 -1.50665,2.41056 -2.44277,3.47159c-0.3979,0.79801 -3.41877,4.0812 -3.41983,4.68412c-0.00032,0.18238 0.37972,-0.04552 0.54638,0.02854c0.67743,0.30101 1.30845,0.70305 1.99498,0.98269c1.16163,0.47317 4.04708,1.31652 4.14434,3.19764c0.06182,1.1956 -3.99307,4.78183 -4.80717,5.54067c-0.63885,0.59549 -1.36688,1.08834 -2.07317,1.60203c-0.56728,0.41259 -2.36744,0.98758 -1.70861,1.22838c0.99118,0.36229 1.97378,0.80409 2.82715,1.42495c0.66382,0.48296 1.50716,0.69293 2.31453,0.84145c0,0 1.22573,0.24515 0.98058,1.47087c-0.24515,1.22573 -1.47087,0.98058 -1.47087,0.98058c-2.27195,-0.48223 -8.37162,-2.76637 -6.80789,-5.96494c0.44725,-0.91482 1.54795,-1.32392 2.34084,-1.96287c1.95807,-1.57791 4.19092,-3.53912 5.90462,-5.16115c0.12048,-0.11404 -0.34048,0.04174 -0.49754,-0.01167c-0.70004,-0.23807 -1.35895,-0.58392 -2.04735,-0.8538c-0.94337,-0.36983 -3.83027,-1.42045 -4.0283,-2.60187c-0.39817,-2.37539 2.77393,-4.87574 3.73243,-6.82021c0.85979,-0.97336 1.71092,-1.99476 2.26819,-3.16783l-0.12526,0.19648c0,0 0,-1.25 1.25,-1.25z" fill="#717171"/><path d="M255.42787,227.07572c0.91518,-0.08156 1.85413,0.53741 2.74055,0.29559c0.60928,-0.16621 0.39482,-2.72014 1.00473,-3.57774c0.8628,-1.21321 1.84053,-1.4748 2.96237,-1.88657c-0.16409,-0.22072 -0.28313,-0.45989 -0.31639,-0.7352c-0.12211,-1.01093 0.76587,-1.89016 1.06007,-2.86501c0.24711,-0.8188 0.23293,-1.71376 0.56025,-2.50392c0.10259,-0.24766 0.82623,-0.23901 0.66456,-0.45284c-1.41493,-1.87156 -5.87691,0.03293 -7.51516,0.46496l-0.95427,0.25165c0,0 -1.20867,0.31875 -1.52743,-0.88993c-0.31875,-1.20867 0.88993,-1.52742 0.88993,-1.52742l0.95427,-0.25165c2.97507,-0.78457 8.75692,-2.90708 10.56858,1.30945c0.58294,1.35675 -2.35446,4.82488 -2.22973,6.08543c0.05516,0.55734 0.90593,0.6825 1.24506,1.12822c0.37091,0.48748 0.47209,1.14773 0.85217,1.62811c1.2855,1.6247 5.13372,0.07555 6.74627,0.65618c1.48781,0.53572 1.71557,2.21086 2.66511,3.19814c0.73991,0.76932 1.86122,1.04571 2.78349,1.58305c0,0 1.08006,0.62928 0.45078,1.70933c-0.62928,1.08005 -1.70933,0.45077 -1.70933,0.45077c-0.27535,-0.16043 -3.12658,-1.81057 -3.24611,-1.92999c-0.79179,-0.79103 -0.88986,-2.39655 -1.95927,-2.72676c-2.54832,-0.78688 -5.14964,1.32411 -7.52042,-1.19494c-0.36942,-0.39252 -0.56721,-0.90925 -0.80627,-1.3988c-1.06437,0.35538 -3.13008,0.95435 -3.07686,1.90537c0.0251,0.44861 0.71297,0.816 0.54515,1.2328c-0.41943,1.04171 -1.14806,2.03995 -2.10167,2.633c-0.5802,0.36083 -1.35883,0.04718 -2.04932,0.0038c-0.70773,-0.80627 -1.36171,-1.68642 -2.06999,-2.48562c0.13175,-0.05703 0.26219,-0.09815 0.38888,-0.10944z" fill="#717171"/><path d="M274.02342,201.67613c1.02963,-0.35694 1.96479,-1.48399 3.02617,-1.23699c0.54246,0.12624 0.96478,0.42699 1.33774,0.79853c-1.91805,-0.1318 -3.52078,0.5369 -5.17856,1.18402z" fill="#717171"/><path d="M226.8176,161.26415c0.16223,0.12486 0.34801,0.23852 0.56883,0.33825zM226.73865,161.20101c0.12342,-0.07469 1.07781,-0.60717 1.71714,0.36953c0.6846,1.04585 -0.36124,1.73046 -0.36124,1.73046l-1.96667,0.46151c-1.75367,-1.14464 -1.38745,-2.1841 -3.0908,-3.01228c0,0 -0.05119,-0.02981 -0.12478,-0.08762c-0.62061,0.46866 -1.25001,0.9207 -1.13446,1.58871c0.1086,0.62784 1.59975,2.14077 2.06088,2.57692l-0.14369,2.12742c0,0 -0.62927,1.08005 -1.70932,0.45077c-0.77454,-0.45128 -0.67001,-1.13437 -0.5489,-1.48472c-0.926,-1.03572 -2.13252,-2.60774 -2.15812,-3.60535c-0.08428,-3.28546 5.21583,-4.76036 4.87031,-7.61984c0,0 -0.00267,-0.04426 0.00132,-0.11663c-0.36845,-0.47878 -0.64566,-0.99618 -0.68213,-1.53341c-0.06455,-0.95079 1.31799,-1.5406 1.40561,-2.48955c0.29828,-3.23021 -5.86056,-1.93644 -6.95761,-3.97491c-0.92584,-1.72033 1.05221,-2.52364 0.96599,-4.02154c-0.01956,-0.33991 -0.62384,-0.32182 -0.83401,-0.58969c-0.77052,-0.9821 -0.91943,-2.34774 -1.64168,-3.36588c-0.75023,-1.05759 -1.87568,-1.79536 -2.73316,-2.76801c0,0 -0.82564,-0.93852 0.11289,-1.76416c0.93852,-0.82564 1.76416,0.11289 1.76416,0.11289c0.89418,1.01877 2.06073,1.79997 2.84549,2.90523c0.73397,1.03372 0.94691,2.37726 1.67713,3.41363c0.36004,0.51098 1.15254,0.79781 1.22651,1.41849c0.15085,1.26552 -1.51822,2.46473 -1.08949,3.66494c0.28764,0.80526 1.7155,-0.00404 2.56289,0.11048c1.5771,0.21316 2.28155,0.66028 3.2562,1.91072c0.24958,0.3202 1.35587,2.80328 1.34304,3.03817c-0.04956,0.90674 -1.43559,1.42656 -1.40483,2.33414c0.0236,0.69619 1.00611,0.96368 1.50774,1.44699l0.60072,0.86336c0,0 0.68461,1.04585 -0.36124,1.73046c-0.72962,0.47761 -1.28345,0.113 -1.55164,-0.15115c-0.38297,0.72805 -0.94989,1.28428 -1.53993,1.94658c1.11218,0.83865 1.3462,1.74412 2.11568,2.3833z" fill="#717171"/><path d="M215.1868,182.39046c-0.8201,0.29102 -2.86469,1.39957 -3.74441,1.03505c-1.44772,-0.59988 -1.05492,-3.2351 -3.58582,-2.78474c-2.8751,0.51161 -3.70397,2.33908 -7.00949,1.55649c0,0 -1.21147,-0.30796 -0.90351,-1.51943c0.30796,-1.21147 1.51943,-0.90351 1.51943,-0.90351c2.73103,0.76134 3.54107,-1.24112 6.03539,-1.60774c2.41026,-0.35427 4.39633,1.17238 5.02314,3.00385c0.05385,0.15735 0.05707,-0.37029 0.19853,-0.45774c0.50687,-0.31327 1.08125,-0.51081 1.65097,-0.68538c1.02949,-0.31545 2.25306,-0.18508 2.11842,-0.79128c0.7688,0.2337 1.53984,0.45105 2.33498,0.52508c-0.14988,1.27948 -1.47391,1.86151 -3.63763,2.62935z" fill="#717171"/><path d="M217.02367,184.29961c0.30796,-1.21147 1.51943,-0.90351 1.51943,-0.90351l1.01449,0.25789c0.14097,0.03655 0.31146,0.07279 0.49455,0.11474c-0.33318,-1.09823 -0.66362,-2.46633 -0.01113,-3.38535c0.17565,-0.24739 0.78628,-0.23743 1.48062,-0.13182c-0.43856,1.50827 -1.091,3.0089 -1.09448,4.57783c-0.00116,0.52489 -0.01654,1.06619 -0.02654,1.6127c-0.56606,-0.12184 -1.09198,-0.27345 -1.45897,-0.36517l-1.01449,-0.25789c0,0 -1.21147,-0.30796 -0.90351,-1.51943z" fill="#717171"/><path d="M232.84669,177.52142c-0.12862,0.50598 -0.41484,0.74692 -0.70459,0.85594c0.09503,-0.78921 0.10584,-1.55183 -0.02486,-2.31285c0.3232,0.13939 0.9629,0.53855 0.72945,1.45691z" fill="#717171"/><path d="M193.34483,222.41541c0.00494,-1.24999 1.25493,-1.24506 1.25493,-1.24506l1.59131,0.01566c0.76044,0.22281 1.65753,0.17975 2.28131,0.66844c0.96617,0.75693 0.95955,2.34058 0.91322,3.56707c-0.03331,0.88205 0.94171,1.4633 1.60788,2.0994c0.35733,-0.11538 0.75803,-0.16475 1.21097,-0.12948c0.02767,0.00215 2.5571,2.13476 2.73508,2.32167c0.36997,0.38854 0.69394,0.8211 0.99462,1.26544c0.08597,0.12706 0.06517,0.55776 0.15496,0.43337c0.38925,-0.53931 0.44345,-1.25046 0.66293,-1.88166l-0.48583,-0.53867c-0.27918,-0.30061 -0.4048,-0.73235 -0.29621,-1.15954c0.17008,-0.66908 0.85035,-1.0736 1.51943,-0.90351l0.66626,0.16936c1.92551,-0.48905 4.26191,-1.19661 5.46237,-0.75261c0.26717,0.09882 1.78644,1.8212 2.10317,2.17238l0.19726,1.4833c0,0 -0.30796,1.21147 -1.51943,0.90351c-0.86617,-0.22018 -0.95562,-0.90223 -0.93626,-1.27314c-0.24376,-0.38894 -0.47652,-0.78703 -0.86516,-1.00378c-1.25491,-0.69989 -2.31125,1.68968 -3.52285,1.06678c-0.14591,0.85523 -0.32644,1.8134 -0.73287,2.61244c2.00222,1.96238 4.19986,2.02253 3.39855,5.63251l-0.34385,1.35266c0,0 -0.30796,1.21147 -1.51943,0.90351c-1.21147,-0.30796 -0.90351,-1.51943 -0.90351,-1.51943l0.34385,-1.35265c0.56327,-1.81586 -1.44807,-2.0796 -2.88339,-3.40592c-2.43965,0.5665 -3.23686,-3.87706 -4.60386,-4.05416c-0.53556,-0.06939 -0.74081,0.78669 -1.08981,1.19881c-0.72718,0.85871 -2.60847,3.98447 -3.21953,4.12499c-1.40216,0.32246 -2.36862,-3.16225 -3.61931,-3.05708c-1.069,0.0899 -4.14686,2.27658 -5.30256,2.75856c0,0 -1.15395,0.48052 -1.63447,-0.67343c-0.48051,-1.15395 0.67344,-1.63447 0.67344,-1.63447c1.49879,-0.62311 4.63818,-2.96188 6.2291,-2.95043c0.80142,0.00577 2.88014,1.3736 3.36354,2.08344c0.18496,0.2716 -0.07946,1.2548 0.10153,0.98054c0.57541,-0.87196 1.01766,-2.3668 1.77141,-3.54934c-0.55762,-0.59236 -1.17664,-1.13856 -1.61023,-1.82415c-1.23469,-1.95226 0.82237,-3.2307 -1.61758,-3.65467l-1.28592,0.00428c0,0 -1.25,-0.00494 -1.24506,-1.25493z" fill="#717171"/><g><path d="M230.0283,182.86823c-0.03812,-2.21309 1.10686,-5.26849 2.88154,-6.52117c0.37702,-0.26612 0.95991,0.23717 1.38336,0.05374c1.04944,-0.45462 0.66702,-2.63613 0.5399,-3.32058l0.0534,-0.14099l-0.05251,-0.00336l0.08295,-1.29636c0.00843,-0.19612 0.06331,-0.39314 0.169,-0.57455c0.34754,-0.59649 1.11283,-0.79832 1.70933,-0.45078c0.15958,0.09298 0.29092,0.21585 0.39104,0.3574l0.84181,1.13455c0.00934,0.01013 0.0177,0.02151 0.02519,0.03394l0.01232,0.0166l-0.00226,0.00168c0.09762,0.19453 0.02816,0.5906 0.22237,0.551c2.01644,-0.41127 5.65992,-4.32363 8.00246,-2.95879c0.20563,0.11981 0.89471,3.9292 1.42372,3.90959c0.80209,-0.02973 1.81343,-1.57814 2.1392,-2.24584l-0.14377,-0.9697c-0.04303,-0.27405 0.00443,-0.56408 0.15497,-0.82245c0.34754,-0.59649 1.11282,-0.79832 1.70932,-0.45078c0.22695,0.13223 0.39677,0.32494 0.50093,0.5458l0.61834,1.26311l-0.04388,0.02148c0.03949,0.05141 0.07783,0.10379 0.1149,0.15726c0.57181,0.82475 0.06377,3.37077 0.67523,4.0108c1.08115,1.13168 3.7525,0.74697 5.19296,1.31606l0.06063,0.07196l0.01752,-0.03005l1.19389,0.6956c0.5965,0.34754 0.79832,1.11284 0.45078,1.70933c-0.25121,0.43115 -0.72069,0.65611 -1.1869,0.61644l-1.29443,-0.08284l0.01702,-0.26595c-0.44227,0.16365 -0.75273,0.41953 -0.76952,0.87055c-0.01117,0.30002 0.07527,0.64203 0.09868,0.95808c0.34847,-0.14459 0.75811,-0.13038 1.10924,0.07421c0.50191,0.29244 0.72439,0.88064 0.57528,1.41519l-0.34767,1.36587l-0.01942,-0.00495c-0.00998,0.05685 -0.02162,0.1135 -0.03506,0.16998c-0.16987,0.71389 -2.0894,4.45114 -2.78703,5.11643c-0.15028,0.14332 -0.42166,0.38862 -0.7455,0.60915c1.24892,0.06767 3.21833,0.24729 3.18774,2.06504c-0.00217,0.12827 -2.70744,2.06106 -3.21284,2.57528c-1.17011,1.19054 -1.98683,2.919 -3.98319,2.91772c-2.1273,-0.00137 -5.34392,-2.46615 -7.1279,-3.50556c-3.98562,-2.32216 -10.61759,-4.73877 -13.01779,-8.68904l-0.6809,-0.73725c0,0 -0.67986,-0.77282 -0.10444,-1.53281z" fill="#ee0000"/><path d="M231.39445,185.07912c-0.01776,-1.38038 1.81307,-4.80474 2.5102,-5.64241c0.71504,-0.85918 2.26279,-1.15707 3.27642,-0.5665c0.67156,0.39128 1.44808,2.09453 1.84476,1.42613c0.39626,-0.66771 2.43017,-2.93907 2.99657,-0.79129c0.13682,0.5188 -1.47206,4.20626 -2.79686,4.28644c-0.67828,0.04106 -3.34942,-2.84117 -3.47349,-2.63367c-1.07937,1.80527 -1.32102,3.12525 -1.70879,4.98273c-0.02547,0.13805 -0.0748,0.27412 -0.14953,0.4024c-0.06653,0.11419 -0.14839,0.21394 -0.24143,0.29811c-0.43356,0.4544 -0.85627,0.47419 -1.21649,0.26441c-0.08594,-0.02734 -0.17024,-0.06446 -0.25141,-0.11175c-0.39897,-0.23245 -0.62137,-0.65179 -0.62092,-1.0825c-0.10539,-0.28875 -0.16583,-0.58235 -0.16904,-0.8321z" fill="#dd0000"/><path d="M252.88496,187.19881c-0.51171,3.56899 -2.83907,4.59962 -4.63772,6.85885c-0.56006,0.70347 -1.24461,2.29612 -2.50886,1.06399c-2.028,-1.97646 2.21363,-3.28716 2.88009,-4.47156c0.42363,-0.75287 1.08334,-2.44652 1.54468,-3.43537c0.08993,-0.19277 -0.32599,-0.43144 -0.75107,-0.66527c-0.11978,-0.02757 -0.23748,-0.07339 -0.34928,-0.13852c-0.1257,-0.07324 -0.23387,-0.16502 -0.32306,-0.26987c-0.33409,-0.39271 -0.40202,-0.96866 -0.12771,-1.43946c0.34754,-0.59649 1.11282,-0.79832 1.70932,-0.45078c0.13586,0.07915 0.25125,0.17999 0.34433,0.29557c1.25278,0.32674 2.41281,1.30268 2.21928,2.65243z" fill="#dd0000"/><path d="M235.17595,189.23092c-0.67099,0.12321 -1.15798,-0.46264 -1.15798,-0.46264c-0.43961,-0.62987 -1.26019,-1.12375 -1.31884,-1.88963c-0.12152,-1.5872 1.97283,-4.2978 2.75068,-5.67464l0.15045,-0.08494l-0.04237,-0.04143l0.96301,-0.98481c0.42661,-0.45043 1.13178,-0.52381 1.64533,-0.14755c0.35555,0.2605 0.53329,0.67352 0.50915,1.08306l-0.06218,1.40267l-0.05296,-0.00235c0.30469,0.85665 0.76241,1.02377 1.85542,-0.64997c0.20276,-0.3105 0.28789,-0.68284 0.42267,-1.02907l0.01818,-1.50714c-0.00009,-0.25654 0.07852,-0.51542 0.24175,-0.73824c0.408,-0.55688 1.19021,-0.67758 1.74709,-0.26957c0.21187,0.15524 0.36061,0.36463 0.44111,0.59518l0.48288,1.32085l-0.27795,0.10162c0.16331,0.31148 0.30193,0.63223 0.40584,0.96249l0.07297,0.0917c1.47613,-1.49106 4.2889,-1.47136 6.29151,-0.49676c0.93263,0.45389 2.36317,0.79243 2.52618,1.81675c0.14625,0.919 -1.23989,1.39075 -1.91359,2.03269c-0.32888,0.31338 -1.69576,0.60627 -1.2443,0.55583c3.57181,-0.399 1.06813,4.60567 0.09802,6.10902c-1.09325,1.69421 -2.16512,2.163 -3.51193,2.24258l-0.46605,0.5074l-0.24351,-0.22367l-0.3837,0.59316c-0.76988,-0.21897 -1.71721,-0.11869 -2.30965,-0.65693c-0.06491,-0.05897 -0.12551,-0.12123 -0.18236,-0.18638l-0.02325,0.02378l-0.72771,-0.7116c-0.15465,-0.06707 -0.30361,-0.13018 -0.44347,-0.18363c-1.59095,-0.60802 -4.53283,-1.81363 -6.26048,-3.49782zM248.76605,183.01043c-0.01518,-0.00362 -0.03034,-0.00723 -0.04548,-0.01085c0.00269,0.01271 0.00519,0.0255 0.00749,0.03839c0.01263,-0.00925 0.02529,-0.01844 0.03799,-0.02753z" fill="#ffde00"/><path d="M252.25843,184.15043c-0.77569,0.98021 -1.75589,0.20451 -1.75589,0.20451l-0.10486,-0.17386c-1.85235,-0.63582 -3.06301,-0.8326 -5.02046,-0.53543c0,0 -1.23647,0.18332 -1.4198,-1.05316c-0.18332,-1.23648 1.05316,-1.41981 1.05316,-1.41981c2.33186,-0.33852 3.98809,-0.11264 6.19759,0.64341l0.84575,0.57842c0,0 0.9802,0.7757 0.20452,1.7559z" fill="#ffe850"/><path d="M242.53661,178.25823c1.19084,0.38 0.81085,1.57084 0.81085,1.57084l-0.33581,-0.22949c0.47086,0.85745 0.97672,1.69648 1.51299,2.51461c0,0 0.6846,1.04586 -0.36125,1.73046c-1.04584,0.68461 -1.73046,-0.36124 -1.73046,-0.36124c-0.57029,-0.87231 -1.10906,-1.76618 -1.61184,-2.67907l0.14469,-1.73528c0,0 0.38,-1.19084 1.57083,-0.81085z" fill="#ffe850"/><path d="M248.21497,190.67562c-1.08005,-0.62928 -0.45078,-1.70933 -0.45078,-1.70933l0.1763,-0.29709c0.32728,-0.63246 0.53628,-1.33876 0.61189,-2.04686c0,0 0.15295,-1.24061 1.39355,-1.08767c1.2406,0.15294 1.08767,1.39355 1.08767,1.39355c-0.13305,0.98376 -0.4231,1.95877 -0.85407,2.85305l-0.25523,0.44357c0,0 -0.62928,1.08005 -1.70933,0.45077z" fill="#ffe850"/><path d="M237.15956,184.31675c-0.25791,-0.10149 -0.43614,-0.23767 -0.55733,-0.38816c-0.23813,0.29458 -0.67398,0.60704 -1.37293,0.34963c-1.17298,-0.43201 -0.74097,-1.60498 -0.74097,-1.60498c1.12214,-2.73396 2.31529,-3.52521 4.54565,-1.31365l-0.25353,2.25172c0,0 -0.45772,1.16318 -1.6209,0.70546zM236.972,182.8347l0.05429,0.01455c-0.01647,-0.76728 0.00621,-0.50274 -0.05429,-0.01455z" fill="#ffe850"/><path d="M245.74886,193.64531c-0.62928,1.08005 -1.70932,0.45077 -1.70932,0.45077l-0.56993,-0.36014c-3.18205,-2.95081 -7.98794,-2.02869 -10.20352,-6.57088c0,0 -0.52982,-1.13216 0.60234,-1.66198c1.13216,-0.52982 1.66198,0.60233 1.66198,0.60233c1.62651,3.70003 6.80825,3.36537 9.59694,5.7592l0.17073,0.07137c0,0 1.08005,0.62927 0.45078,1.70933z" fill="#f5d400"/></g><g data-paper-data="{&quot;index&quot;:null}"><path d="M219.60894,268.3375c-0.00019,-0.721 -0.57563,-3.99561 -0.48728,-4.08863c1.252,-1.31817 2.78281,-0.06621 3.72119,0.76072c-0.07648,-0.38425 -0.09817,-0.74945 -0.10495,-0.95699c-0.03146,-0.96349 1.21815,-4.97474 1.59725,-5.60305c0.02999,-0.04971 0.06141,-0.09828 0.09411,-0.14583l-0.01732,-0.01008l0.70914,-1.21802c0.26822,-0.48582 0.83912,-0.74954 1.40212,-0.60643c0.39387,0.10012 0.69606,0.37703 0.84332,0.72439c0.23818,-0.20905 0.53954,-0.39247 0.74181,-0.61433c0.30408,-0.33351 0.26191,-0.73363 0.06108,-1.1603l-0.17423,0.20165l-0.98147,-0.84802c-0.3604,-0.29842 -0.53766,-0.78788 -0.41473,-1.2715c0.17008,-0.66908 0.85035,-1.07359 1.51943,-0.90351l1.33917,0.34042l-0.00857,0.03373l0.09367,-0.00884c1.4264,0.60346 3.0625,2.74991 4.62682,2.70024c0.88473,-0.02809 2.30649,-2.20041 3.29237,-2.38805c0.06392,-0.01217 0.12798,-0.02266 0.19217,-0.03166l-0.01625,-0.04608l1.32627,-0.46776c0.2291,-0.08458 0.48527,-0.10303 0.73983,-0.03832c0.66908,0.17008 1.0736,0.85035 0.90351,1.51943c-0.07367,0.28982 -0.24306,0.52997 -0.46581,0.69532l-0.7821,0.59103c-0.23551,0.70462 -0.59912,2.51792 -0.04776,3.10122c0.36364,0.3847 3.52475,-1.84996 3.7554,-1.79132c2.62759,0.66794 2.48508,6.0122 3.63536,7.71867c0.11078,0.16435 0.33881,-0.16686 0.54477,-0.23724l-0.00045,-0.00279l0.02043,-0.00321c0.01406,-0.00362 0.02799,-0.0059 0.04175,-0.00657l1.39559,-0.21945c0.17062,-0.03082 0.35042,-0.02643 0.52941,0.01907c0.50412,0.12815 0.85805,0.54593 0.92917,1.03033c-1.68556,1.5051 -3.29715,3.04455 -4.28482,3.86962c-0.72316,0.60411 -1.62452,1.01874 -2.34988,1.61125c-0.04817,-0.08504 -0.10028,-0.16525 -0.1538,-0.23829c-2.28299,-3.11559 -6.06289,-4.96386 -9.6307,-6.44365c-5.95986,1.97981 -6.71845,1.80201 -12.44268,5.9656c-0.55532,0.40393 -0.50816,1.39875 -1.10474,1.73879c-0.28602,0.16303 -0.04708,-0.72091 -0.28867,-0.94457c-0.11993,-0.11102 -0.27055,-0.17589 -0.43142,-0.22512c0.02528,-0.69828 0.13263,-1.41172 0.13245,-2.10187z" fill="#ee0000"/><path d="M232.79347,274.64747c0.28487,-0.18408 0.46119,-0.49743 0.69179,-0.74615c0.64033,1.56737 0.66823,1.77839 2.89402,3.59292c0.37792,0.30809 0.75161,0.63849 1.12631,0.9747c-2.51602,-0.52341 -5.12826,-1.43947 -7.44237,-2.15668c0.9203,-0.53846 1.83485,-1.08619 2.73025,-1.66478z" fill="#ee0000"/><path d="M239.35345,266.70978c1.08895,-0.59946 1.47907,0.21488 1.57787,1.12779c-0.50177,-0.40179 -1.0303,-0.77636 -1.57787,-1.12779z" fill="#dd0000"/><path d="M243.17319,269.69475c0.33229,0.08447 0.64397,0.25505 0.91637,0.48201c-0.19414,0.12951 -0.38291,0.2643 -0.56107,0.40983c-0.04817,-0.08504 -0.10028,-0.16525 -0.1538,-0.23829c-0.17371,-0.23706 -0.35609,-0.46679 -0.54638,-0.68958c0.12787,0.00042 0.24509,0.01065 0.34488,0.03602z" fill="#dd0000"/><path d="M229.57578,264.29438c0.14739,-0.01722 0.30037,-0.00829 0.45276,0.03046c0.32128,0.08167 0.58157,0.28098 0.74652,0.5402c-2.38474,0.76517 -3.78771,1.25883 -5.92182,2.57589c0.18552,-0.90175 0.55635,-1.8247 1.28058,-2.80955c0.8078,-1.0985 2.31927,-0.98181 3.44196,-0.33698z" fill="#dd0000"/><path d="M229.34787,264.22862c-0.03074,-0.93006 -0.68901,-2.23796 0.05935,-2.79107c0.8341,-0.61649 2.09189,0.14449 3.07527,0.47426c1.52459,0.51126 3.00163,1.6736 3.70809,3.07002c-0.8131,-0.38515 -1.63533,-0.74068 -2.44658,-1.07716c-1.67233,0.55553 -2.93513,0.94118 -4.01302,1.30053c-0.16159,-0.30801 -0.37527,-0.73949 -0.38311,-0.97658z" fill="#ffde00"/><path d="M230.42578,276.59916c-0.13723,-0.05989 -0.28772,-0.11923 -0.44505,-0.17977l-0.10049,-0.00023c0.98201,-0.57293 1.95852,-1.15475 2.91323,-1.77168c0.28487,-0.18408 0.46119,-0.49743 0.69179,-0.74615c0.64033,1.56737 0.66823,1.77839 2.89402,3.59292c0.55006,0.44842 1.09113,0.9441 1.63945,1.43616c-0.22854,-0.05608 -0.49211,-0.17825 -0.67565,-0.43935c-2.41271,-0.00922 -5.35626,-1.21076 -6.9173,-1.8919z" fill="#ffde00"/><path d="M238.84597,265.38746c0.21899,-0.10806 0.47184,-0.15321 0.73177,-0.11547c0.68319,0.0992 1.15663,0.73343 1.05743,1.41662c-0.03818,0.26299 -0.15564,0.49489 -0.32466,0.67502c-0.76501,-0.55743 -1.58077,-1.06 -2.42295,-1.52048z" fill="#ffde00"/><path d="M226.6785,266.42068c0.73836,-1.40074 1.75871,-2.37233 2.94033,-1.17796c-1.08465,0.36421 -1.98573,0.70633 -2.94033,1.17796z" fill="#ffde00"/><path d="M230.09339,261.78642l1.00869,0.18005c1.41145,0.67622 2.47875,1.34819 3.45857,2.28248c-0.27294,-0.11716 -0.54541,-0.23178 -0.81665,-0.34428c-1.02344,0.33997 -1.89349,0.61633 -2.66165,0.86196c-0.32316,-0.18221 -0.67298,-0.36037 -1.0594,-0.54506l-0.19663,0.05054c0,0 -1.24285,-0.13354 -1.10931,-1.37638c0.13354,-1.24285 1.37638,-1.10932 1.37638,-1.10932z" fill="#ffe850"/><path d="M240.33387,267.1844l-0.10173,0.12243c-0.57503,-0.41435 -1.17801,-0.79821 -1.79875,-1.15695c0.02308,-0.00689 0.04615,-0.0138 0.06921,-0.02074l-0.15273,-0.02732c-0.06835,-0.03915 -0.13691,-0.07801 -0.20567,-0.11658c0.14944,-0.23786 0.69738,-0.95471 1.63726,-0.48011c1.11583,0.56343 0.55239,1.67925 0.55239,1.67925z" fill="#ffe850"/><path d="M227.64417,265.73572c0,0 0.66811,-0.87191 1.56907,-0.35474c-0.64649,0.22405 -1.2339,0.44701 -1.81889,0.70514c0.08074,-0.11883 0.16405,-0.2357 0.24982,-0.3504z" fill="#ffe850"/><path d="" fill="#ffe850"/><path d="M236.37928,277.49423c0.48971,0.39923 0.97232,0.83592 1.45925,1.27416c-2.79308,-0.00178 -4.97598,-1.80823 -7.60129,-2.55811c0.78898,-0.4631 1.5731,-0.93401 2.3439,-1.4264c0.58019,0.27593 1.16003,0.55585 1.74162,0.80159c0.3648,0.48125 0.92831,0.98901 2.05653,1.90876z" fill="#f5d400"/></g><path d="M236.15718,196.64658c0.48648,1.15145 -0.66497,1.63793 -0.66497,1.63793l-1.82155,0.40786c-0.82802,-0.33236 -1.65603,-0.66472 -2.48405,-0.99706c-0.25,-0.47033 -1.07805,-3.33264 -1.50614,-3.39921c-2.44809,-0.38064 -4.53457,2.40433 -6.98663,0.99116c-3.43742,-1.98105 0.54508,-4.56143 -1.96239,-6.86032c-0.53062,-0.48648 -4.13639,0.6405 -4.98836,0.29941c-0.71104,-0.28467 -0.8969,-1.50524 -1.43419,-1.96301c-0.0602,-0.81149 -0.27962,-1.67942 -0.70612,-2.6433c0.18693,-0.02372 0.37488,-0.02919 0.5643,-0.00794c1.21087,0.13584 1.67425,1.83658 2.75074,2.40743c0.89392,0.47405 2.58666,-0.88029 3.2395,-0.87303c4.21231,0.04682 3.9839,4.72519 3.33067,7.26148c-0.0927,0.35992 0.7375,0.30481 1.09581,0.20603c1.36146,-0.37534 2.61418,-1.19268 4.01848,-1.34234c3.40507,-0.36289 3.36637,1.69612 4.25451,4.06341c0.55523,0.16896 1.11046,0.33794 1.6657,0.5069l-0.00323,-0.36037c0,0 1.15145,-0.48648 1.63792,0.66497z" fill="#717171"/><path d="M221.31393,203.52502c0.15434,-2.60667 2.4013,-2.24755 3.52817,-3.83705c0.31859,-0.4494 -0.95283,-0.59481 -1.29535,-1.02624c-1.55616,-1.96014 -1.6996,-2.98638 -0.66285,-5.16442c0,0 0.62928,-1.08005 1.70933,-0.45078c1.08005,0.62928 0.45078,1.70933 0.45078,1.70933c-1.61317,1.81229 2.81117,3.00402 2.25364,5.40148c-0.23436,1.00781 -3.52382,2.71367 -3.48712,3.49833c0.02468,0.52761 0.50704,1.06945 1.06409,1.62891c-1.12268,-0.37605 -2.33846,-0.46966 -3.48349,-0.77972c-0.06837,-0.29199 -0.09868,-0.61697 -0.0772,-0.97983z" fill="#717171"/><path d="M234.63529,235.10049c0.47619,-1.15574 1.63193,-0.67955 1.63193,-0.67955l1.38079,0.57232c0.80154,0.20162 1.48784,0.91324 2.31403,0.89064c0.20507,-0.00561 -0.14108,-0.4273 -0.05405,-0.61307c0.36023,-0.76883 0.55042,-1.88001 1.35253,-2.15834c0.78845,-0.27358 1.56401,0.583 2.34579,0.87508c1.27369,0.47589 2.65112,0.67416 3.64525,1.3274c0.27855,-4.84205 9.36115,-1.50344 12.12072,0.77535c0.82421,0.68062 1.57102,1.63385 2.61726,1.85288c0,0 0.14894,0.03786 0.3291,0.13926c0.74955,-1.13345 1.44333,-2.56163 1.70762,-3.05505c0.16581,-0.1662 0.33161,-0.33239 0.49743,-0.49859l-0.58333,-0.64678c-0.27918,-0.30061 -0.40481,-0.73235 -0.29622,-1.15954c0.17008,-0.66908 0.85035,-1.0736 1.51943,-0.90351l1.30207,0.33099l-0.06007,0.23631c1.74762,0.08393 2.64239,0.02173 3.33315,-2.73524l0.11033,-0.43402c0,0 0.30796,-1.21147 1.51943,-0.90351c1.21147,0.30796 0.90351,1.51943 0.90351,1.51943l-0.11033,0.43402c-0.40179,1.56129 -0.89267,3.66856 -2.51138,4.49459c-0.73796,0.37658 -2.01152,0.53091 -2.86234,0.20558c-0.1935,0.42732 -0.38701,0.85463 -0.58051,1.28196c-0.83312,1.54001 -1.84712,3.40566 -3.1594,4.60895c-0.52731,0.48352 -1.08655,1.01752 -1.77756,1.20287c-0.33165,0.08895 -0.58881,-0.60217 -0.91043,-0.4819c-0.24209,0.09054 0.20457,0.49482 0.18644,0.75264c-0.05223,0.74232 -1.22715,1.32324 -0.95738,2.01678c0.102,0.26222 0.4879,-0.35571 0.76914,-0.34767c0.5439,0.01554 1.07836,0.20114 1.5788,0.41475c1.44712,0.61768 3.92469,0.92592 4.59697,2.68773c1.104,2.8932 -3.95544,7.54788 -1.06637,9.41896c0,0 0.94585,0.81723 0.12862,1.76308c-0.81723,0.94585 -1.76308,0.12862 -1.76308,0.12862c-0.63021,-0.62676 -1.66443,-1.02074 -1.89065,-1.88028c-0.71124,-2.70239 2.35171,-6.11718 2.20661,-8.68049c-0.03701,-0.6539 -1.3134,-0.13763 -1.9339,-0.34719c-0.79766,-0.2694 -1.48763,-0.82211 -2.29961,-1.04467c-0.79606,-0.21819 -1.94616,0.01664 -2.37935,-0.68596c-0.48048,-0.77928 0.79237,-5.74689 1.546,-6.3451c0.02614,-0.02075 0.05313,-0.03813 0.08087,-0.0525c-1.99022,-1.1885 -3.73737,-2.90565 -6.13482,-3.67568c-1.55239,-0.4986 -3.85217,-1.31996 -3.24133,0.52028l0.7538,1.26766c0.1635,0.27497 0.22211,0.6123 0.13707,0.94683c-0.17008,0.66908 -0.85035,1.07359 -1.51943,0.90351c-0.09935,-0.02525 -0.19286,-0.06176 -0.27953,-0.1078l-1.81871,-0.91836l0.1502,-0.29747c-0.7708,-0.31044 -1.49956,-0.63681 -2.61692,-0.99394c-0.69896,-0.22341 -1.43307,-0.39518 -2.05973,-0.77697c-0.25591,-0.15591 -0.17209,-0.76917 -0.47172,-0.76529c-0.26107,0.00339 0.23868,0.52533 0.14621,0.7695c-0.2603,0.68718 -0.46129,1.62462 -1.15004,1.88075c-0.58039,0.21582 -3.25532,-0.52292 -4.19633,-0.76432l-1.54704,-0.63401c0,0 -1.15574,-0.4762 -0.67955,-1.63193z" fill="#717171"/><path d="M253.00001,143.87764c-1.04585,0.6846 -1.73046,-0.36124 -1.73046,-0.36124l-0.4411,-0.69681c-0.61217,-0.6988 -1.52134,-1.63162 -1.89086,-2.5017c-0.31786,-0.74844 -1.06766,-1.62986 -0.67768,-2.34337c0.41759,-0.76402 1.59742,-0.73223 2.45143,-0.90189c1.18516,-0.23544 3.94509,-0.08111 5.91449,0.4802c0.00128,-0.00707 0.0026,-0.01413 0.00397,-0.02119c0.79222,-4.0871 5.90721,-2.79062 8.92924,-1.68909c0.05169,-0.0802 0.10067,-0.16012 0.14657,-0.23973c0.32885,-0.57032 1.39221,-1.05363 1.09724,-1.64219c-0.11474,-0.22894 -0.41786,0.35979 -0.67376,0.36909c-0.52553,0.01909 -1.03454,-0.18948 -1.55105,-0.28823c-2.61527,-0.50001 -2.86181,-0.26617 -5.07524,-1.90391c-0.7898,-0.58438 -1.77679,-1.09759 -2.16493,-2.00016c-0.21692,-0.50442 0.55319,-0.97193 0.65474,-1.51154c0.09218,-0.48982 -2.77667,-3.42144 -3.28625,-3.68616c0,0 -1.08005,-0.62927 -0.45077,-1.70933c0.62928,-1.08006 1.70933,-0.45078 1.70933,-0.45078c1.58248,0.98387 4.47979,3.99017 4.5198,6.04485c0.00694,0.35637 -0.80704,0.47079 -0.69794,0.81011c0.11924,0.37083 0.74586,0.23732 1.0921,0.4158c1.98095,1.02108 3.40277,1.32037 5.56077,1.7987c0.7781,0.17247 1.91306,-0.1218 2.32422,0.56093c1.08515,1.80187 -1.2824,5.60512 -2.33504,6.84784c-0.58522,0.69089 -1.60447,0.90129 -2.21976,1.56554c-0.28526,0.30794 0.68444,0.51936 1.08839,0.63342c0.54221,0.15309 1.11295,0.17608 1.66944,0.26413l0.73861,0.15331c0,0 1.22361,0.25544 0.96818,1.47906c-0.25544,1.22361 -1.47907,0.96818 -1.47907,0.96818l-0.64766,-0.13608c-0.70081,-0.1262 -1.44189,-0.11267 -2.10244,-0.37861c-4.14094,-1.66717 -2.40626,-3.7999 -0.54952,-5.91062c-2.05689,-0.69108 -4.95945,-1.3449 -4.7197,0.63896l0.90372,0.94148c0.39332,0.39149 0.48985,1.01291 0.19741,1.51483c-0.34754,0.5965 -1.11283,0.79832 -1.70933,0.45078l-1.16082,-0.67634l0.07702,-0.1322c-1.23095,-0.28816 -2.42591,-0.61446 -3.78269,-0.84389c-0.25393,-0.04294 -1.34422,-0.04106 -2.18571,-0.16038c0.54703,0.62036 1.11771,1.45642 1.1906,1.53888l0.65577,0.97886c0,0 0.6846,1.04586 -0.36125,1.73047z" fill="#717171"/><path d="M298.09552,169.93142c0.87244,-0.89518 1.76762,-0.02275 1.76762,-0.02275l0.418,0.45949c1.21821,1.57043 0.16104,-0.96453 2.21561,-1.77048c0.7462,-0.29271 2.11495,0.03675 3.2019,0.35337c0.05561,-0.08342 0.11099,-0.16501 0.16591,-0.24459c-0.37442,-0.53346 -0.44742,-1.18837 -1.15724,-1.68151c-1.11404,-0.77398 -3.67311,-1.13865 -4.10348,-2.48834l-0.98423,0.87162c0,0 -0.93852,0.82564 -1.76416,-0.11289c-0.82563,-0.93852 0.11289,-1.76416 0.11289,-1.76416l0.98233,-0.85745c0.69216,-0.53895 1.38434,-1.07791 2.0765,-1.61686c1.58013,2.1678 4.944,3.14328 6.54361,5.18118c0.23127,-0.26116 0.48935,-0.4099 0.79786,-0.29936c1.08742,0.38963 2.04927,1.92415 1.69378,3.0232c-0.21898,0.677 -1.1472,0.76981 -1.99824,0.68689c-0.10784,0.21307 -0.23468,0.42203 -0.37029,0.63276c0.0174,0.1582 0.00317,0.33889 -0.05656,0.54459c-0.15947,0.54925 -0.4973,0.77423 -0.81687,0.8567c-0.24547,0.46981 -0.44384,0.99169 -0.52182,1.60759c-0.06043,0.47726 0.92698,-0.26786 1.40265,-0.33972c0.84863,-0.12822 1.71556,-0.54381 2.55116,-0.34789c1.99351,0.46739 2.84882,3.82649 4.04756,5.24287c0,0 0.79997,0.96049 -0.16052,1.76047c-0.96049,0.79997 -1.76046,-0.16052 -1.76046,-0.16052c-0.57385,-0.69839 -1.25788,-1.31925 -1.72154,-2.09517c-0.43595,-0.72957 -0.18774,-2.33488 -1.03762,-2.32901c-1.53848,0.01063 -4.34315,1.83658 -5.49104,-0.48926c-0.47372,-0.95985 -0.16066,-2.27996 0.41643,-3.54358c-0.37068,-0.14299 -0.73874,-0.2111 -1.09958,-0.07806c-1.02434,0.37767 -0.85828,2.42666 -1.92732,2.6481c-0.88134,0.18256 -1.66386,-0.68693 -2.49579,-1.03041l-0.90433,-0.82924c0,0 -0.89518,-0.87244 -0.02274,-1.76763z" fill="#717171"/><g><path d="M221.63327,122.91126c0.83118,-2.05143 3.08073,-4.41489 5.20414,-4.87297c0.4511,-0.09731 0.79047,0.59398 1.25195,0.59092c1.14365,-0.00757 1.64563,-2.16472 1.79656,-2.84431l0.10433,-0.10884l-0.047,-0.02365l0.58375,-1.16046c0.08453,-0.17718 0.21214,-0.33699 0.3804,-0.46255c0.55329,-0.41286 1.33651,-0.29904 1.74938,0.25426c0.11046,0.14803 0.18323,0.31251 0.21995,0.48195l0.33056,1.37352c0.00463,0.01297 0.00787,0.02672 0.0099,0.0411l0.00484,0.0201l-0.00274,0.00066c0.01369,0.21722 -0.20526,0.55451 -0.01104,0.59409c2.01652,0.41081 6.90068,-1.76328 8.52209,0.40958c0.14233,0.19074 -0.71465,3.96591 -0.22016,4.15493c0.74973,0.2866 2.28645,-0.74241 2.84757,-1.22933l0.24726,-0.9486c0.06767,-0.26902 0.22486,-0.51734 0.46452,-0.69617c0.55329,-0.41286 1.33651,-0.29905 1.74939,0.25425c0.15708,0.21051 0.23793,0.4543 0.24733,0.69832l0.07459,1.40437l-0.04879,0.00259c0.01621,0.06277 0.031,0.12597 0.04418,0.18969c0.20336,0.98276 -1.2607,3.12679 -0.94855,3.95508c0.55193,1.46456 3.16073,2.15618 4.26351,3.24368l0.02763,0.08995l0.02788,-0.0208l0.82636,1.10742c0.41288,0.55329 0.29903,1.33652 -0.25425,1.74939c-0.39993,0.29843 -0.92001,0.32167 -1.33349,0.10268l-1.15872,-0.58289l0.11975,-0.23807c-0.47103,-0.02253 -0.85689,0.09143 -1.04888,0.49988c-0.12771,0.2717 -0.18204,0.62027 -0.2842,0.92026c0.37726,0.00333 0.74865,0.17676 0.99169,0.50247c0.3474,0.46555 0.3219,1.09391 -0.02454,1.52745l-0.85456,1.1208l-0.01594,-0.01216c-0.03144,0.0484 -0.06431,0.09598 -0.09879,0.1427c-0.43574,0.59043 -3.66496,3.27817 -4.56733,3.61732c-0.19439,0.07306 -0.54013,0.19256 -0.92445,0.26874c1.1228,0.55112 2.86475,1.48729 2.1251,3.14802c-0.0522,0.11718 -3.29815,0.83687 -3.9645,1.11223c-1.54274,0.63755 -2.97086,1.90843 -4.80743,1.12583c-1.95704,-0.83393 -3.95225,-4.36109 -5.18705,-6.01585c-2.75869,-3.69693 -7.91559,-8.51659 -8.57808,-13.09117l-0.338,-0.94494c0,0 -0.32312,-0.97726 0.50387,-1.45139z" fill="#ee0000"/><path d="M222.02504,125.48049c0.52397,-1.2772 3.54908,-3.71172 4.51847,-4.20969c0.99428,-0.51075 2.53514,-0.17905 3.23674,0.76116c0.46483,0.62293 0.51271,2.49422 1.13935,2.03442c0.62599,-0.45933 3.38669,-1.75336 3.06722,0.44476c-0.07716,0.53095 -3.00102,3.29446 -4.2515,2.8497c-0.64024,-0.22771 -1.97009,-3.92552 -2.16549,-3.78313c-1.69987,1.23875 -2.4389,2.35883 -3.52278,3.91633c-0.07747,0.11706 -0.17613,0.22298 -0.29511,0.31177c-0.10593,0.07904 -0.22027,0.13878 -0.33884,0.17982c-0.57683,0.24843 -0.97356,0.1012 -1.22293,-0.23284c-0.06838,-0.0588 -0.13142,-0.12595 -0.1876,-0.20123c-0.27615,-0.37006 -0.31667,-0.843 -0.14767,-1.23918c0.01604,-0.30697 0.07534,-0.6008 0.17015,-0.83188z" fill="#dd0000"/><path d="M240.97119,135.84284c-1.86785,3.08393 -4.41293,3.12135 -6.95237,4.4963c-0.79072,0.42812 -2.04405,1.62576 -2.72514,-0.00292c-1.09256,-2.61255 3.32366,-2.15842 4.40055,-2.98746c0.68452,-0.52698 1.95452,-1.82728 2.76611,-2.55666c0.15821,-0.14219 -0.13111,-0.52463 -0.43076,-0.90617c-0.09942,-0.07225 -0.18981,-0.16049 -0.26719,-0.26418c-0.087,-0.11659 -0.15063,-0.2434 -0.19166,-0.37479c-0.15373,-0.49214 0.00921,-1.04872 0.44592,-1.37459c0.55329,-0.41287 1.33651,-0.29904 1.74939,0.25426c0.09404,0.12603 0.16075,0.26398 0.20116,0.40677c1.02495,0.79103 1.7104,2.14317 1.004,3.30947z" fill="#dd0000"/><path d="M223.87972,130.78117c-0.66567,-0.14926 -0.8845,-0.87897 -0.8845,-0.87897c-0.15798,-0.75169 -0.71979,-1.52736 -0.47397,-2.25509c0.50943,-1.50813 3.49766,-3.18269 4.75238,-4.14522l0.17168,-0.01927l-0.02276,-0.05471l1.27164,-0.5293c0.56888,-0.24752 1.2465,-0.03901 1.57181,0.50824c0.22521,0.37888 0.22712,0.82852 0.0446,1.19593l-0.60625,1.26642l-0.04782,-0.02289c-0.05494,0.90757 0.30085,1.2405 1.96179,0.12813c0.30812,-0.20636 0.53221,-0.51566 0.79176,-0.78151l0.60664,-1.37978c0.10033,-0.23611 0.274,-0.44356 0.51141,-0.5847c0.59342,-0.35276 1.36047,-0.15765 1.71321,0.43578c0.13421,0.22579 0.18911,0.47669 0.17295,0.72037l-0.07266,1.40447l-0.29554,-0.01529c0.02836,0.35054 0.03036,0.69996 -0.00329,1.04454l0.03128,0.11294c1.94198,-0.79431 4.52261,0.32479 5.98395,2.00549c0.68055,0.78271 1.86445,1.65419 1.61352,2.66058c-0.22514,0.90292 -1.68533,0.79447 -2.55654,1.12151c-0.42529,0.15965 -1.79778,-0.10587 -1.36259,0.02444c3.443,1.03089 -0.81984,4.65627 -2.30098,5.65997c-1.66917,1.13111 -2.83901,1.14296 -4.10951,0.68902l-0.62748,0.28448l-0.13654,-0.30114l-0.58527,0.39565c-0.62274,-0.50284 -1.53374,-0.78136 -1.86824,-1.50855c-0.03666,-0.07967 -0.06803,-0.16069 -0.09486,-0.2429l-0.03071,0.01278l-0.39111,-0.93967c-0.11607,-0.12225 -0.22844,-0.23863 -0.33622,-0.34256c-1.22602,-1.18224 -3.46128,-3.44315 -4.39186,-5.66921zM238.82033,130.37642c-0.01254,-0.00928 -0.0251,-0.01854 -0.03761,-0.02779c-0.00251,0.01274 -0.00519,0.0255 -0.00814,0.03825c0.01524,-0.00358 0.0305,-0.00707 0.04574,-0.01046z" fill="#ffde00"/><path d="M241.58785,132.79244c-1.09748,0.59838 -1.69584,-0.49909 -1.69584,-0.49909l-0.02845,-0.20102c-1.45568,-1.31012 -2.49273,-1.96509 -4.41031,-2.45781c0,0 -1.20959,-0.31527 -0.8943,-1.52486c0.31528,-1.20959 1.52487,-0.89431 1.52487,-0.89431c2.27832,0.60122 3.71399,1.45735 5.45126,3.01793l0.55187,0.86332c0,0 0.59837,1.09747 -0.4991,1.69585z" fill="#ffe850"/><path d="M234.94802,123.56507c0.94709,0.8158 0.1313,1.76289 0.1313,1.76289l-0.21919,-0.34262c0.09768,0.97334 0.23475,1.94343 0.40801,2.90619c0,0 0.22061,1.23038 -1.00976,1.45099c-1.23038,0.22062 -1.451,-1.00975 -1.451,-1.00975c-0.18334,-1.02593 -0.32926,-2.05936 -0.4346,-3.09622l0.81235,-1.54019c0,0 0.8158,-0.94709 1.76288,-0.1313z" fill="#ffe850"/><path d="M235.31292,137.21432c-0.74758,-1.00181 0.25426,-1.74938 0.25426,-1.74938l0.27851,-0.20437c0.54872,-0.45389 1.01752,-1.02204 1.36425,-1.64405c0,0 0.62634,-1.08175 1.7081,-0.45542c1.08176,0.62634 0.45541,1.70809 0.45541,1.70809c-0.5075,0.85318 -1.15603,1.63688 -1.90265,2.29112l-0.4085,0.30828c0,0 -1.00181,0.74757 -1.74938,-0.25426z" fill="#ffe850"/><path d="M227.62857,127.03551c-0.19761,-0.19434 -0.30831,-0.38942 -0.36092,-0.57533c-0.33444,0.17786 -0.8578,0.2948 -1.40024,-0.21566c-0.91029,-0.85666 -0.05363,-1.76697 -0.05363,-1.76697c2.10273,-2.07659 3.51038,-2.33768 4.69716,0.57042l-1.11468,1.97283c0,0 -0.87649,0.8912 -1.7677,0.01472zM228.03608,125.5983l0.04425,0.03465c0.28518,-0.7125 0.20249,-0.4602 -0.04425,-0.03465z" fill="#ffe850"/><path d="M231.88118,138.98179c-1.00181,0.74758 -1.74939,-0.25426 -1.74939,-0.25426l-0.38348,-0.55448c-1.77316,-3.96088 -6.55653,-4.99345 -6.81744,-10.04045c0,0 -0.0444,-1.24922 1.2048,-1.29362c1.24921,-0.0444 1.29362,1.20481 1.29362,1.20481c0.04848,4.04146 4.94778,5.76173 6.57698,9.0561l0.12917,0.13252c0,0 0.74757,1.00181 -0.25425,1.74938z" fill="#f5d400"/></g><g><path d="M281.20937,170.9533c-0.58763,-2.13398 -0.23899,-5.3782 1.16815,-7.0331c0.29893,-0.35156 0.98873,-0.00915 1.35321,-0.29219c0.9033,-0.70146 -0.00995,-2.7192 -0.30339,-3.35048l0.01663,-0.14983l-0.05169,0.00981l-0.24225,-1.27622c-0.04064,-0.19206 -0.0365,-0.39652 0.02072,-0.59853c0.18817,-0.66421 0.87916,-1.05013 1.54339,-0.86195c0.17771,0.05034 0.33548,0.13667 0.46768,0.24885l1.09765,0.88938c0.01157,0.00748 0.0225,0.01643 0.03284,0.02661l0.01607,0.01302l-0.00177,0.00218c0.14295,0.16412 0.17424,0.56503 0.35249,0.47834c1.85066,-0.90012 4.40597,-5.59608 7.01445,-4.85709c0.22897,0.06487 1.84433,3.58296 2.35183,3.43233c0.76946,-0.22839 1.36367,-1.97974 1.51304,-2.70751l-0.38055,-0.90342c-0.10987,-0.25471 -0.13608,-0.54744 -0.05457,-0.83514c0.18817,-0.66421 0.87916,-1.05013 1.54338,-0.86196c0.25272,0.0716 0.46514,0.21598 0.62099,0.40398l0.91322,1.06951l-0.03715,0.03173c0.05104,0.03995 0.10121,0.08116 0.15042,0.12372c0.75905,0.65652 0.90055,3.24887 1.65204,3.71661c1.32876,0.82704 3.82034,-0.21031 5.35711,-0.01757l0.07663,0.0546l0.00948,-0.03347l1.32943,0.37663c0.66422,0.18818 1.05014,0.87917 0.86196,1.54339c-0.13601,0.4801 -0.53475,0.81482 -0.99617,0.8924l-1.27432,0.24188l-0.0497,-0.26183c-0.38763,0.26855 -0.62465,0.59366 -0.52869,1.03467c0.06383,0.29336 0.23266,0.6031 0.33398,0.90338c0.30153,-0.22676 0.70182,-0.31492 1.09282,-0.20416c0.55889,0.15833 0.92075,0.67266 0.90935,1.22751l0.00314,1.40942l-0.02004,0.00005c0.00448,0.05754 0.00731,0.11531 0.00835,0.17335c0.01312,0.7337 -0.91604,4.83106 -1.42618,5.64903c-0.10988,0.1762 -0.31169,0.48132 -0.57047,0.7755c1.22647,-0.24525 3.17863,-0.56134 3.60134,1.20683c0.02982,0.12477 -2.10938,2.66995 -2.47093,3.29375c-0.83704,1.44426 -1.19795,3.32159 -3.13184,3.81713c-2.06073,0.52804 -5.7895,-1.05876 -7.77603,-1.62155c-4.43811,-1.25732 -11.46281,-1.94759 -14.77051,-5.17632l-0.84293,-0.54462c0,0 -0.85078,-0.57933 -0.48259,-1.45861z" fill="#ee0000"/><path d="M283.08272,172.75468c-0.3607,-1.33255 0.56041,-5.1048 1.02715,-6.08958c0.47874,-1.0101 1.90368,-1.68374 3.03239,-1.36398c0.74781,0.21186 1.92373,1.66829 2.14161,0.92221c0.21764,-0.74531 1.62235,-3.45136 2.7054,-1.51208c0.26162,0.46842 -0.37905,4.44027 -1.64222,4.84759c-0.64674,0.20855 -3.95106,-1.91833 -4.01959,-1.68647c-0.59619,2.01709 -0.50176,3.35567 -0.41511,5.25122c0.00968,0.14005 -0.00423,0.28411 -0.04471,0.42695c-0.03602,0.12716 -0.09048,0.24413 -0.15965,0.34881c-0.30685,0.54799 -0.71134,0.67235 -1.11243,0.55881c-0.09004,-0.00509 -0.18092,-0.02006 -0.27131,-0.04567c-0.44425,-0.12586 -0.76401,-0.47666 -0.87077,-0.89394c-0.17392,-0.25344 -0.30554,-0.52276 -0.37079,-0.76386z" fill="#dd0000"/><path d="M304.42468,169.45992c0.39251,3.58406 -1.60519,5.16141 -2.78506,7.79716c-0.36739,0.8207 -0.63407,2.53361 -2.16517,1.65483c-2.45603,-1.40964 1.326,-3.7346 1.67677,-5.04759c0.22296,-0.83461 0.44047,-2.63915 0.64123,-3.71169c0.03913,-0.20908 -0.4231,-0.33674 -0.893,-0.45743c-0.12287,0.00311 -0.24828,-0.01198 -0.37276,-0.04725c-0.13997,-0.03966 -0.26758,-0.10163 -0.38006,-0.18098c-0.4213,-0.29722 -0.63042,-0.83814 -0.4819,-1.36239c0.18817,-0.66421 0.87917,-1.05012 1.54339,-0.86196c0.1513,0.04286 0.28814,0.11181 0.40706,0.20058c1.29469,0.00472 2.66109,0.6613 2.80951,2.01674z" fill="#dd0000"/><path d="M287.77841,175.83489c-0.61922,0.28631 -1.23668,-0.15993 -1.23668,-0.15993c-0.58251,-0.50067 -1.50018,-0.77481 -1.74757,-1.50201c-0.51268,-1.50704 0.84128,-4.65354 1.25205,-6.18064l0.12458,-0.1197l-0.05133,-0.02958l0.68765,-1.19348c0.30111,-0.54243 0.96584,-0.78896 1.55687,-0.55233c0.40919,0.16383 0.68411,0.51962 0.76264,0.92228l0.28882,1.37403l-0.05189,0.0109c0.50829,0.75388 0.99318,0.80185 1.63532,-1.09124c0.11913,-0.35118 0.10892,-0.73299 0.1533,-1.10187l-0.35744,-1.46425c-0.06392,-0.24845 -0.05221,-0.51874 0.05044,-0.77518c0.25658,-0.6409 0.98415,-0.95244 1.62505,-0.69584c0.24385,0.09763 0.44,0.26342 0.57535,0.46669l0.79637,1.15914l-0.24392,0.16758c0.23568,0.26105 0.44975,0.53721 0.63256,0.83122l0.0935,0.07065c1.05865,-1.81148 3.78785,-2.49235 5.96999,-2.04673c1.01623,0.20753 2.48602,0.17945 2.8988,1.13098c0.37034,0.8537 -0.8548,1.65554 -1.34756,2.44494c-0.24054,0.38536 -1.49156,1.00917 -1.06685,0.84798c3.36016,-1.27528 2.1806,4.19499 1.61512,5.89246c-0.63727,1.91297 -1.55876,2.63375 -2.84339,3.04596l-0.32514,0.60742l-0.2915,-0.15604l-0.22404,0.66998c-0.80015,-0.0205 -1.69272,0.31237 -2.40046,-0.06151c-0.07754,-0.04095 -0.15173,-0.08619 -0.22301,-0.13514l-0.0166,0.02881l-0.8819,-0.50813c-0.16648,-0.02647 -0.32645,-0.05054 -0.47521,-0.06749c-1.69221,-0.193 -4.84155,-0.6286 -6.93397,-1.8299zM299.39309,166.42825c-0.0156,0.00027 -0.03119,0.00054 -0.04675,0.00081c0.00576,0.01164 0.01137,0.0234 0.0168,0.03532c0.00993,-0.01211 0.01991,-0.02415 0.02996,-0.03612z" fill="#ffde00"/><path d="M303.05929,166.66333c-0.50737,1.14241 -1.64976,0.63502 -1.64976,0.63502l-0.14481,-0.14228c-1.9523,-0.15486 -3.17386,-0.04421 -4.99578,0.73072c0,0 -1.15197,0.48526 -1.63721,-0.6667c-0.48525,-1.15197 0.66672,-1.63723 0.66672,-1.63723c2.17428,-0.90813 3.8346,-1.10152 6.16273,-0.91906l0.9631,0.34976c0,0 1.14237,0.50738 0.63501,1.64977z" fill="#ffe850"/><path d="M292.17705,163.3757c1.24795,0.07172 1.17623,1.31965 1.17623,1.31965l-0.38236,-0.1387c0.66942,0.71331 1.36817,1.40007 2.09116,2.05902c0,0 0.92333,0.8426 0.08073,1.76592c-0.84259,0.92333 -1.76592,0.08074 -1.76592,0.08074c-0.76941,-0.70295 -1.51367,-1.43464 -2.2278,-2.1937l-0.29169,-1.71669c0,0 0.07171,-1.24794 1.31965,-1.17623z" fill="#ffe850"/><path d="M300.76677,173.98946c-1.20267,-0.34072 -0.86195,-1.54339 -0.86195,-1.54339l0.09683,-0.33161c0.1596,-0.69401 0.18627,-1.4301 0.0833,-2.13475c0,0 -0.16059,-1.23963 1.07905,-1.40023c1.23964,-0.16058 1.40022,1.07906 1.40022,1.07906c0.11594,0.98592 0.07765,2.00243 -0.11723,2.97583l-0.13682,0.49313c0,0 -0.34072,1.20267 -1.54339,0.86195z" fill="#ffe850"/><path d="M288.47676,170.58169c-0.27506,-0.03412 -0.48156,-0.12167 -0.63639,-0.23727c-0.15735,0.34456 -0.50172,0.75566 -1.24273,0.68027c-1.24358,-0.12652 -1.11707,-1.37011 -1.11707,-1.37011c0.40652,-2.92719 1.36524,-3.99046 4.07578,-2.40348l0.31477,2.24398c0,0 -0.15388,1.2405 -1.39437,1.08662zM287.92631,169.19294l0.05621,0.00059c-0.20688,-0.73904 -0.11909,-0.48846 -0.05621,-0.00059z" fill="#ffe850"/><path d="M299.11723,177.47942c-0.34072,1.20267 -1.54339,0.86196 -1.54339,0.86196l-0.64162,-0.20699c-3.81624,-2.06616 -8.2415,0.02287 -11.51768,-3.82511c0,0 -0.79488,-0.9647 0.16982,-1.75958c0.9647,-0.79488 1.75959,0.16981 1.75959,0.16981c2.49608,3.17889 7.43153,1.5653 10.72819,3.18989l0.18313,0.02665c0,0 1.20267,0.34071 0.86195,1.54339z" fill="#f5d400"/></g><g><path d="M183.85997,258.442c-0.32052,-1.23494 -0.09198,-3.1018 0.73312,-4.04365c0.17529,-0.20008 0.56994,0.00314 0.78242,-0.15689c0.52659,-0.39661 0.0174,-1.56732 -0.14635,-1.93366l0.01085,-0.08622l-0.02988,0.00522l-0.12876,-0.73762c-0.02179,-0.11104 -0.01766,-0.22886 0.01704,-0.34479c0.1141,-0.38122 0.51565,-0.59777 0.89688,-0.48366c0.10199,0.03053 0.19219,0.08163 0.26743,0.14741l0.62508,0.52194c0.00661,0.00441 0.01283,0.00965 0.0187,0.0156l0.00914,0.00764l-0.00104,0.00124c0.081,0.09581 0.09563,0.32715 0.1991,0.27869c1.07431,-0.50304 2.58702,-3.18786 4.08416,-2.73974c0.13142,0.03934 1.0325,2.08076 1.32628,1.99826c0.44543,-0.12509 0.80281,-1.12945 0.89508,-1.54763l-0.21164,-0.52393c-0.06116,-0.14774 -0.07378,-0.31668 -0.02435,-0.4818c0.1141,-0.38122 0.51565,-0.59778 0.89687,-0.48367c0.14505,0.04342 0.26626,0.12843 0.35447,0.23812l0.51723,0.62419l-0.02169,0.01797c0.02908,0.02346 0.05765,0.04763 0.08565,0.07259c0.4319,0.38485 0.4914,1.88018 0.92055,2.15616c0.75881,0.48798 2.20368,-0.08871 3.08776,0.03545l0.0437,0.03213l0.00575,-0.0192l0.76302,0.22839c0.38123,0.11411 0.59777,0.51565 0.48367,0.89687c-0.08248,0.27555 -0.31515,0.46507 -0.58175,0.50587l-0.73651,0.12857l-0.02641,-0.15133c-0.2257,0.15149 -0.36508,0.33684 -0.31351,0.59184c0.0343,0.16962 0.12897,0.34959 0.18481,0.52352c0.17572,-0.12813 0.40717,-0.17553 0.63159,-0.10837c0.32077,0.09601 0.52496,0.39553 0.51367,0.71522l-0.01017,0.81236l-0.01155,-0.00015c0.00208,0.0332 0.00323,0.06652 0.00334,0.09999c0.00132,0.42299 -0.56907,2.77662 -0.87005,3.24373c-0.06483,0.10062 -0.18375,0.27476 -0.33539,0.44212c0.70898,-0.13092 1.8368,-0.29649 2.06539,0.7262c0.01612,0.07217 -1.23848,1.5209 -1.45217,1.87736c-0.49472,0.82529 -0.71872,1.90424 -1.83754,2.17338c-1.19221,0.28681 -3.32781,-0.65949 -4.46798,-1.00075c-2.54724,-0.76243 -6.59011,-1.22003 -8.46906,-3.10908l-0.4812,-0.32107c0,0 -0.48543,-0.34114 -0.26573,-0.84479z" fill="#ee0000"/><path d="M184.92437,259.49617c-0.19655,-0.7711 0.36642,-2.93741 0.64382,-3.50104c0.28453,-0.5781 1.11153,-0.95425 1.75935,-0.76035c0.4292,0.12846 1.09456,0.9779 1.22648,0.54974c0.13179,-0.42772 0.96443,-1.97541 1.57215,-0.84848c0.1468,0.27221 -0.25626,2.55596 -0.98776,2.77998c-0.37452,0.11469 -2.2609,-1.13926 -2.30238,-1.00621c-0.36078,1.15749 -0.31774,1.9298 -0.28393,3.02305c0.00439,0.0808 -0.00485,0.16372 -0.0294,0.2457c-0.02185,0.07299 -0.05423,0.13994 -0.09498,0.19969c-0.18152,0.31322 -0.41571,0.38146 -0.64591,0.31261c-0.05185,-0.0037 -0.1041,-0.0131 -0.15597,-0.02863c-0.25498,-0.07632 -0.43629,-0.28122 -0.49426,-0.52264c-0.09808,-0.14755 -0.17165,-0.30391 -0.20721,-0.44342z" fill="#dd0000"/><path d="M197.25302,257.77879c0.19573,2.06903 -0.96908,2.96116 -1.67154,4.47026c-0.21873,0.4699 -0.38701,1.45487 -1.26199,0.93535c-1.40356,-0.83335 0.79603,-2.14118 1.00937,-2.89496c0.1356,-0.47914 0.27632,-1.51735 0.40115,-2.13381c0.02433,-0.12017 -0.24099,-0.19768 -0.5108,-0.27124c-0.07085,0.00075 -0.143,-0.00902 -0.21444,-0.03041c-0.08034,-0.02405 -0.15335,-0.06086 -0.21751,-0.10755c-0.2403,-0.17489 -0.35621,-0.48843 -0.26615,-0.78933c0.1141,-0.38122 0.51565,-0.59776 0.89687,-0.48366c0.08683,0.026 0.16512,0.06689 0.2329,0.11907c0.74616,0.01373 1.52811,0.40379 1.60213,1.18626z" fill="#dd0000"/><path d="M187.60456,261.31143c-0.35932,0.15975 -0.71141,-0.10269 -0.71141,-0.10269c-0.33148,-0.29352 -0.85805,-0.45933 -0.99445,-0.88056c-0.28266,-0.87295 0.52447,-2.67495 0.77421,-3.55162l0.07282,-0.06793l-0.02934,-0.01749l0.40649,-0.68201c0.17817,-0.31008 0.56338,-0.4465 0.90201,-0.3051c0.23444,0.0979 0.38988,0.30532 0.43171,0.53805l0.15478,0.79439l-0.03,0.00584c0.28654,0.43883 0.5656,0.4706 0.95181,-0.61503c0.07164,-0.20139 0.06902,-0.42154 0.09774,-0.63377l-0.19356,-0.84698c-0.03473,-0.14373 -0.02569,-0.29942 0.03566,-0.44635c0.15333,-0.3672 0.57533,-0.54057 0.94253,-0.38723c0.13971,0.05835 0.25136,0.15557 0.32763,0.27388l0.44914,0.67485l-0.14202,0.09452c0.13362,0.15246 0.25465,0.31345 0.35752,0.48447l0.0533,0.04151c0.62557,-1.03505 2.20436,-1.40425 3.45826,-1.12885c0.58395,0.12826 1.43131,0.12458 1.66112,0.67651c0.20619,0.49519 -0.50677,0.94691 -0.79749,1.39769c-0.14192,0.22006 -0.86826,0.56896 -0.62211,0.47966c1.9475,-0.70643 1.22112,2.43637 0.88076,3.4099c-0.38357,1.09713 -0.92081,1.50473 -1.66473,1.73138l-0.19256,0.34731l-0.16668,-0.09241l-0.13482,0.38425c-0.461,-0.01863 -0.97828,0.16564 -1.383,-0.05588c-0.04435,-0.02427 -0.08672,-0.05097 -0.12738,-0.07979l-0.00982,0.01647l-0.50397,-0.30037c-0.09572,-0.01666 -0.18773,-0.0319 -0.27332,-0.04294c-0.97368,-0.12563 -2.78511,-0.4035 -3.98088,-1.11368zM194.3788,255.98865c-0.00899,0.00002 -0.01799,0.00005 -0.02696,0.00006c0.00322,0.00677 0.00636,0.01359 0.00938,0.0205c0.00582,-0.00689 0.01168,-0.01375 0.01757,-0.02057z" fill="#ffde00"/><path d="M196.48986,256.15534c-0.30214,0.65411 -0.95626,0.35197 -0.95626,0.35197l-0.08226,-0.08324c-1.12391,-0.10587 -1.8289,-0.05248 -2.88557,0.37865c0,0 -0.66807,0.26987 -0.93795,-0.3982c-0.26988,-0.66808 0.39819,-0.93796 0.39819,-0.93796c1.26089,-0.50491 2.21947,-0.60224 3.55977,-0.47727l0.55212,0.20978c0,0 0.6541,0.30215 0.35196,0.95627z" fill="#ffe850"/><path d="M190.24575,254.1679c0.71866,0.05194 0.66671,0.77059 0.66671,0.77059l-0.21919,-0.08319c0.37975,0.41682 0.77664,0.81859 1.18774,1.20452c0,0 0.52499,0.49349 0.0315,1.01849c-0.49348,0.52499 -1.01848,0.03151 -1.01848,0.03151c-0.43748,-0.4117 -0.86021,-0.83974 -1.26535,-1.28332l-0.15351,-0.99192c0,0 0.05195,-0.71865 0.7706,-0.6667z" fill="#ffe850"/><path d="M195.10621,260.3583c-0.69027,-0.20661 -0.48366,-0.89687 -0.48366,-0.89687l0.05863,-0.1903c0.09789,-0.39864 0.11953,-0.82267 0.06617,-1.22967c0,0 -0.082,-0.71583 0.63384,-0.79785c0.71584,-0.08201 0.79784,0.63384 0.79784,0.63384c0.05843,0.56923 0.02771,1.15478 -0.09289,1.71415l-0.08306,0.28305c0,0 -0.2066,0.69027 -0.89687,0.48366z" fill="#ffe850"/><path d="M188.05175,258.28965c-0.15824,-0.022 -0.27652,-0.07423 -0.36477,-0.14217c-0.09361,0.19725 -0.2956,0.43126 -0.72205,0.38151c-0.71567,-0.0835 -0.63217,-0.79918 -0.63217,-0.79918c0.25921,-1.68365 0.82081,-2.28831 2.36956,-1.35059l0.16233,1.29601c0,0 -0.09925,0.71366 -0.8129,0.61442zM187.74631,257.48454l0.03239,0.00081c-0.11295,-0.42771 -0.06449,-0.28254 -0.03239,-0.00081z" fill="#ffe850"/><path d="M194.12579,262.35573c-0.2066,0.69027 -0.89687,0.48367 -0.89687,0.48367l-0.36804,-0.12476c-2.18194,-1.22332 -4.75025,-0.05694 -6.60576,-2.30263c0,0 -0.44993,-0.56277 0.11284,-1.0127c0.56277,-0.44993 1.01272,0.11285 1.01272,0.11285c1.41158,1.85341 4.2699,0.96542 6.15613,1.9298l0.10532,0.01691c0,0 0.69026,0.20661 0.48365,0.89688z" fill="#f5d400"/></g><path d="M186.86725,267.68286c0,0.19199 -0.01474,0.36923 -0.04197,0.53286c0.26403,0.49799 0.50012,1.0061 0.63924,1.54937c0.18834,0.73548 -0.35452,1.5511 -0.12342,2.27428c0.20439,0.63958 3.10747,1.89601 3.20673,1.93276c3.05249,1.1301 5.05793,0.43379 6.15341,4.8749c0.50896,2.06334 0.76502,4.6088 -0.43835,6.36045c-0.99041,1.44165 -3.29254,1.22461 -5.00777,1.56701c-2.69581,0.53815 -5.91694,-0.01954 -8.52163,-0.67072c-1.69922,0.01056 -3.4545,-0.48165 -5.09753,-0.04815c-3.57861,0.9442 -5.53803,2.79723 -9.68113,2.01422c-2.34291,-0.44279 -4.30083,-2.20227 -6.64152,-2.65661c-2.06718,-0.40125 -4.28498,-0.04824 -6.27377,-0.74031c-0.88863,-0.30923 -1.61079,-1.22031 -2.55159,-1.20704c-1.04114,0.01468 -1.82155,1.10827 -2.84799,1.2832c-3.13594,0.53443 -6.30434,-0.85733 -9.4535,-1.30736c-1.55183,-0.22176 -3.16056,0.27284 -4.70277,-0.00812c-5.56735,-1.01424 -6.49703,-3.75131 -9.64801,-7.69963c-1.08694,-1.36199 -2.42543,-2.53946 -3.33438,-4.02615c-0.16316,-0.26687 -0.34425,-0.53606 -0.53195,-0.80788c-2.01501,-0.78888 -1.96889,-4.22346 -3.12847,-5.43424c-1.36959,-1.43007 -3.89904,-1.27062 -5.31322,-2.65661c-1.71022,-1.67613 -2.36969,-4.20951 -3.98491,-5.97737c-1.2821,-1.40325 -3.8557,-2.14748 -4.0234,-4.04083c-0.19636,-2.21697 1.92465,-4.02848 3.14376,-5.89054c1.56192,-2.38566 3.71777,-3.8427 6.228,-4.28396c-2.27235,-1.56815 -4.85131,-3.58785 -5.36539,-5.64603c-1.65015,-6.60658 8.74527,-9.60862 12.68766,-11.40459c2.03537,-0.92722 3.71188,-2.49636 5.56746,-3.74507c1.78049,-1.19818 4.11858,-1.21281 6.20061,-1.73332c0.9605,-0.24012 1.69323,-1.10001 2.65661,-1.3283c3.28749,-0.77903 8.11016,-0.3981 10.78005,1.81726c2.88415,2.39314 5.00872,6.45737 6.85201,9.67038c5.10083,-0.41719 9.17288,2.58444 11.6839,6.98169c0.37604,0.65852 -0.15455,1.69869 0.37206,2.24434c0.59185,0.61326 1.67623,0.36043 2.46149,0.69171c2.85994,1.20655 5.10441,2.42382 6.01659,5.85077c1.44647,5.43419 -1.90083,8.63857 -1.88412,13.69778c0.00366,1.10691 0.05986,2.21546 0,3.32076c-0.03896,0.71943 -0.72727,1.5641 -0.29581,2.14112c0.74447,0.99563 2.23656,1.10719 3.25636,1.81821c0.96693,0.67416 1.56823,1.90363 2.67265,2.31558c1.04208,0.38871 2.16409,0.285 3.29739,0.12595c-0.13471,-0.20864 -0.26799,-0.41782 -0.3836,-0.63376l2.90022,-3.61803c0,0 2.5,0 2.5,2.5z" fill="#d0d0d0"/><path d="M195.1637,282.97432c0,2.5 -2.5,2.5 -2.5,2.5h-2.50083c-5.4813,-0.02035 -11.41307,1.42888 -16.90596,0.46789c-1.03867,-0.18172 -1.96504,-0.80375 -3.001,-1.00033c-3.21691,-0.61045 -7.09332,0.93721 -10.24455,-0.05147c-1.28252,-0.40238 -2.23551,-1.54805 -3.50117,-2.00067c-2.39473,-0.85638 -7.30027,0.08375 -9.86183,0.08375c-2.67521,0 -5.598,0.27963 -8.24901,-0.01217c-2.00443,-0.22063 -3.83756,-1.329 -5.56948,-2.36187c-3.00992,-1.79503 -6.14933,-2.70005 -8.27528,-5.75207c-0.51317,-0.73671 -0.50836,-1.7498 -1.00033,-2.50083c-0.60027,-0.91635 -1.7865,-1.41557 -2.22326,-2.42019c-0.98432,-2.26408 0.17489,-5.94366 -2.15308,-7.9316c-0.50892,-0.43459 -1.38437,0.05357 -1.99577,-0.21857c-4.68758,-2.08654 -7.89836,-4.58477 -9.86732,-9.38389c0,0 -0.92848,-2.32119 1.39272,-3.24967c2.32119,-0.92848 3.24967,1.39272 3.24967,1.39272c1.37875,3.56634 3.66392,5.01278 7.13835,6.62145c0.93949,0.43498 2.2394,0.08583 3.0059,0.78176c1.68878,1.53331 3.5632,5.72689 4.00694,8.12982c0.1181,0.63952 -0.42955,1.35365 -0.15802,1.94458c0.33115,0.72069 1.33179,0.92548 1.77807,1.58115c0.50519,0.74221 0.52303,1.74039 1.00033,2.50083c0.72839,1.16048 2.52165,2.09521 3.61742,2.68588c1.65185,0.89042 3.12566,2.10167 4.81907,2.91025c2.42904,1.15984 6.83837,0.28243 9.48308,0.28243c3.16311,0 8.13109,-0.8619 11.14517,0.08375c1.28252,0.40238 2.23551,1.54805 3.50117,2.00067c2.70252,0.96645 6.87633,-0.55634 9.76212,-0.05147c1.03867,0.18172 1.96504,0.80375 3.001,1.00033c5.14407,0.97615 10.94746,-0.51622 16.10505,-0.53245h2.50083c0,0 2.5,0 2.5,2.5z" fill="#bdbdbd"/><path d="M116.24185,234.67034c-0.34757,-0.3699 -0.603,-0.91358 -0.603,-1.71269c0,-2.5 2.5,-2.5 2.5,-2.5c2.12641,0.04151 3.06114,0.30963 5.1487,-1.10244c1.95971,-1.32558 3.17007,-3.72686 5.33471,-4.68183c2.22535,-0.98175 6.60905,-1.15589 8.99569,-0.67279c3.51143,0.71078 5.78716,3.15007 8.72461,4.76034c1.01444,0.5561 2.3066,0.5249 3.26806,1.16828c0.59104,0.39551 0.50605,1.50574 1.15676,1.7927c1.00304,0.44234 2.42802,-0.51829 3.28454,0.1659c3.45662,2.76114 1.75679,6.40353 1.41926,9.64321c-0.12718,1.22072 2.45498,-0.02071 3.68134,-0.06971c1.0905,0 5.47057,-0.06064 6.1197,0.26393c1.99239,0.99619 5.2407,6.41577 5.74815,8.42706c0.37321,1.47921 1.13681,3.29289 0.29776,4.56699c-0.96284,1.46209 -3.07035,1.76567 -4.76282,2.21324c-1.12011,0.29621 -2.35349,0.25368 -3.47567,-0.0346c-2.00119,-0.51409 -5.8763,-2.92281 -7.06303,-4.63456c-0.91568,-1.32077 0.07442,-3.66956 -1.17942,-4.67494c-0.32347,-0.25938 -0.77206,0.36138 -1.18651,0.37337c-1.18918,0.0344 -2.53677,0.36881 -3.56122,-0.23603c-1.53908,-0.90867 -2.55593,-2.52536 -3.58777,-3.98474c-0.06465,-0.09144 -1.29855,-3.6854 -1.93665,-4.02865c-0.42248,-0.22726 -0.93909,0.2166 -1.41786,0.24674c-2.68955,0.16935 -5.48177,-0.01375 -8.16983,-0.09071c-1.78638,-1.01543 -4.6443,-3.56636 -6.80777,-3.95573c-2.3184,-0.41726 -5.16277,0.04511 -7.5299,0.04511l-1.39433,0.42552c0,0 -2.35389,0.58847 -3.0035,-1.713z" fill="#d9d9d9"/></g></g></svg>