<svg version="1.1" xmlns="http://www.w3.org/2000/svg" xmlns:xlink="http://www.w3.org/1999/xlink" width="801.08294" height="270.33629" viewBox="0,0,801.08294,270.33629"><g transform="translate(159.39592,152.56235)"><g data-paper-data="{&quot;isPaintingLayer&quot;:true}" fill-rule="nonzero" stroke-linejoin="miter" stroke-miterlimit="10" stroke-dasharray="" stroke-dashoffset="0" style="mix-blend-mode: normal"><path d="M-5.67926,-118.2363c1.81805,-2.54796 3.34866,-5.32777 5.45414,-7.64388c3.31349,-3.64496 11.9929,-10.34858 15.91012,-13.44785c2.77703,-2.19715 5.26724,-4.82518 8.35019,-6.56722c3.1286,-1.76784 6.70649,-2.58425 10.07248,-3.84262c2.49175,-0.93153 4.87048,-2.32553 7.5002,-2.72689c1.37696,-0.21016 21.2776,-0.04123 22.34104,0.13431c1.44515,0.23854 2.43571,1.64297 3.74784,2.29388c2.64254,1.3109 5.83467,0.49453 7.85945,3.56802c1.28138,1.94505 0.85544,4.59603 0.94379,6.92355c0.10017,2.63895 0.82663,5.56465 -0.3806,7.91342c-3.80636,7.40559 -13.06984,12.50766 -19.82113,16.38919c-12.76042,7.33636 -26.04095,13.89104 -37.39202,23.26802c-5.07379,-0.01514 -10.14757,-0.03004 -15.22136,-0.04456c2.70596,-2.23851 5.27209,-4.6564 7.95946,-6.91891c2.6665,-2.23646 5.14999,-4.71132 7.99951,-6.70938c8.16291,-5.72378 17.7186,-10.2628 26.3665,-15.23389c5.00251,-2.8756 10.68203,-5.19684 14.88306,-9.12839c1.97028,-1.8439 4.61946,-3.12274 5.9872,-5.44895c0.69342,-1.17934 -0.52895,-2.72656 -0.3806,-4.08658c0.01154,-0.10583 0.04466,-0.20561 0.09366,-0.29953c-1.15015,-0.1832 -2.24926,-0.68404 -3.29041,-1.20889c-0.841,-0.42395 -1.3192,-1.5773 -2.25216,-1.70612c-2.82446,-0.38997 -5.69991,0.19285 -8.55108,0.21454c-3.03599,0.02309 -6.10359,-0.51841 -9.10788,-0.08023c-2.04384,0.2981 -3.84015,1.52303 -5.77322,2.25064c-2.87626,1.08264 -5.97814,1.66848 -8.65411,3.17985c-2.63032,1.48558 -4.69491,3.80266 -7.05265,5.69119c-3.04603,2.43986 -11.94349,9.27039 -14.68703,12.29374c-1.84879,2.03734 -3.16275,4.50245 -4.74413,6.75367c-4.81523,6.79797 -9.63047,13.59596 -14.4457,20.39393c-2.7572,-0.00734 -5.5144,-0.01451 -8.27161,-0.02148c-0.07486,-1.65807 -0.18848,-3.31991 -0.3732,-5.07457c4.97675,-7.026 9.95351,-14.05201 14.93026,-21.07801z" fill="#7da3d0" stroke="none" stroke-width="0.5" stroke-linecap="butt"/><path d="M-148.41413,96.88035c-3.13644,-0.98274 -7.74055,-0.62153 -9.19106,-3.57094c-5.37281,-10.9249 2.50599,-16.23025 8.35284,-22.55266c0.51423,-0.55605 1.0191,-1.12314 1.51884,-1.69638c0.97382,3.74433 1.95193,7.48781 2.87311,11.2407c-1.119,1.01332 -2.20797,2.05194 -3.10426,3.25874c-0.85191,1.14704 -2.11488,2.78667 -1.43021,4.04072c0.54822,1.00412 2.27493,-0.59278 3.40609,-0.42166c0.97013,0.14676 1.92459,0.3691 2.87246,0.62395c0.78528,3.61732 1.48066,7.24958 2.03206,10.90586c-2.20942,-0.38638 -4.57407,-0.96485 -7.32988,-1.82833z" fill="#7da3d0" stroke="none" stroke-width="0.5" stroke-linecap="butt"/><path d="M120.47695,90.65352c-1.87054,0.68557 -3.4669,1.82645 -5.76112,2.48513c-5.712,1.63994 -10.89817,2.32856 -16.88854,2.32856c-1.34307,0 -6.97553,0.01917 -7.4362,-0.10211c-1.00456,-0.26447 -2.0993,-0.62546 -3.17426,-1.10085c-2.38828,0.15057 -4.78232,-0.09846 -7.43608,-0.96295c-1.0585,-0.10425 -4.10539,-0.69625 -4.57677,-4.05793c-1.73682,1.06203 -3.26395,2.57886 -5.05966,3.50532c-3.69888,1.90838 -6.91167,1.66073 -10.90223,1.6467c-2.32301,-0.00816 -5.80638,0.23858 -8.05355,-0.80654c-0.58659,-0.27281 -1.20823,-0.52993 -1.82593,-0.80193c-2.04498,-0.56719 -3.88495,-1.89877 -6.17317,-3.43911c-0.56892,0.14489 -1.13671,0.29141 -1.65881,0.50375c0,0 -4.74342,1.58114 -6.32456,-3.16228c-1.28364,-3.85093 1.60121,-5.61762 2.73223,-6.1461c-0.03277,-0.89272 0.11641,-1.74978 0.55038,-2.52543c0.71578,-1.27935 2.14784,-1.89697 3.79942,-2.13282c0.54056,-1.27846 1.06919,-2.58624 1.80668,-3.56033c1.16499,-1.53872 7.19925,-6.93965 10.0613,-7.5763c2.94904,-0.65599 5.28676,-0.30253 7.28467,0.74911c1.62774,-1.14608 3.47307,-1.72697 5.58221,-0.74484c2.46432,1.14752 3.33388,4.21876 4.77652,6.59872c2.72251,-0.86153 5.4516,-1.69675 8.10741,-2.68092c1.34881,-0.49983 2.51549,-1.47295 3.9099,-1.82611c0.93229,-0.23612 6.13542,-0.09785 7.23389,-0.08076c2.49826,0.81823 5.17451,1.2189 7.49477,2.45469c0.09716,0.05175 0.20291,0.13944 0.31646,0.25506c0.26428,0.04973 0.51282,0.12936 0.74228,0.24317c1.23272,0.61142 2.11893,1.68421 2.84315,2.91487c0.29264,-0.11713 0.57972,-0.24576 0.85805,-0.39228c0.91445,-0.48139 1.68935,-1.31407 2.49842,-2.02717c0.23628,-0.5223 0.49688,-1.02642 0.84911,-1.4526c1.23901,-1.49916 2.34917,-3.22892 4.01377,-4.23478c1.00556,-0.60762 2.3824,0.01512 3.5108,-0.31206c0.6371,-0.18472 0.97991,-0.95927 1.60815,-1.17217c4.11985,-1.39616 8.49262,-5.22229 12.53738,-3.62156c7.46586,2.95464 10.22409,5.1756 10.51498,6.73642c1.02807,0.25363 2.13291,0.48407 3.42623,0.57975c7.03849,0.52071 7.50956,-0.72708 12.9327,0.63397c1.75895,0.44145 3.94472,0.31926 5.18742,1.64006c0.49994,0.53136 0.92007,1.11868 1.28834,1.74235c1.93484,0.69024 3.31965,2.53872 3.31965,4.71063c0,2.76142 -2.23858,5 -5,5h-2.54159c-1.11257,0.88111 -2.08381,2.05549 -3.4352,2.44101c-2.05016,0.58486 -4.27296,-0.01774 -6.39226,0.21419c-1.81092,0.19818 -3.54521,0.90255 -5.35906,1.07181c-3.51793,0.32828 -7.06054,0.40364 -10.61331,0.38285c0.07549,0.34545 0.11527,0.70425 0.11527,1.07235c0,2.76142 -2.23858,5 -5,5h-4.28725v-0.2176c-0.22928,0.06219 -0.46038,0.11881 -0.69351,0.16927c-0.43861,0.09493 -0.87439,0.10655 -1.30849,0.05779z" fill="#7da3d0" stroke="none" stroke-width="0.5" stroke-linecap="butt"/><path d="M243.84988,84.13461c-0.55592,0.50605 -1.17034,0.94588 -1.85977,1.2917c-4.67472,2.34487 -11.18756,-2.33669 -16.16891,-2.19244c-1.2495,0.03618 -2.19415,1.21391 -3.35911,1.66717c-1.33264,0.51849 -2.83071,0.46634 -4.19667,0.88933c-2.25771,0.69914 -4.31544,2.1509 -6.66302,2.42457c-4.25419,0.49593 -10.37056,-1.21672 -14.43421,-2.33029c-1.44456,-0.39585 -3.06969,-0.46464 -4.292,-1.33031c-1.9045,-1.34882 -4.37176,-2.80824 -4.7927,-5.10372c-0.11708,-0.63848 -0.16665,-1.23992 -0.156,-1.80673c-0.51426,-0.21382 -1.03281,-0.41386 -1.55738,-0.59456c0,0 -4.7257,-1.63332 -3.09239,-6.35902c1.63332,-4.7257 6.35902,-3.09239 6.35902,-3.09239c1.66691,0.57785 3.94414,1.29825 5.62401,2.12899c1.96225,-0.70647 4.00899,-1.16003 5.71125,-1.50146c0.8247,-0.15551 5.76082,-1.09552 6.13625,-1.11895c4.23957,-0.26461 8.43353,1.04114 12.6124,1.08468c5.74294,0.05984 11.3641,-3.36454 17.25164,-2.73878c1.86795,0.19853 3.58434,0.65365 5.24706,1.24025c3.24113,-2.25293 6.29467,-4.03561 10.92169,-1.84133c1.08007,0.5122 2.10448,1.55499 2.92046,2.84671c1.17616,-0.35595 2.43999,-0.53439 3.83948,-0.4418c1.24228,0.0822 2.32566,0.89282 3.50986,1.27716c4.02808,1.30733 9.90842,1.43779 8.34306,9.0629c-0.82626,4.02483 -11.53841,5.63865 -13.81474,5.69278c-2.54668,0.06056 -5.39594,0.28987 -7.6075,-0.94461c-1.02535,0.54976 -2.12856,1.04509 -3.41838,1.47814l-1.33948,0.29187c0,0 -0.75244,0.14188 -1.72394,0.02015z" fill="#7da3d0" stroke="none" stroke-width="0.5" stroke-linecap="butt"/><path d="M284.77252,76.38581c1.09938,-1.80962 1.47693,-4.30279 3.01159,-5.70022c0.23405,-0.21312 0.49501,-0.40075 0.78954,-0.55659c0.45155,-0.23891 0.89194,-0.398 1.32454,-0.50581c0.77631,-0.25147 1.6095,-0.38802 2.47659,-0.38802c0.34658,0 0.68775,0.02181 1.02204,0.06406c0.50813,-0.0531 1.01867,-0.14821 1.53782,-0.3376c2.97605,-1.08567 3.78703,-5.88207 6.67413,-6.71455c4.28367,-1.23518 8.35187,-0.19316 12.60649,-0.68427c4.07375,-0.47023 6.76623,-4.19507 11.1723,-4.19507c4.79567,0 6.21082,3.38007 9.39442,6.17493c1.53299,1.3458 3.91942,-1.58573 6.00896,-1.75154c6.74269,-0.53505 9.14099,3.46129 12.35623,8.03227c1.24716,1.77304 7.01889,4.36576 5.06974,7.83791c-0.97079,1.72933 -2.79833,4.37541 -3.8485,5.85708c-1.90855,2.69276 -10.0116,0.07463 -12.38103,1.7696c-1.73744,1.24288 -3.23906,3.13382 -5.3863,3.50307c-2.44734,0.42086 -5.2625,-0.664 -7.11285,-1.95141c-0.28608,-0.19905 -0.56873,-0.65977 -0.90064,-0.53909c-10.30621,3.74752 -21.05575,3.57299 -30.13448,-3.49795c-2.21712,-1.7268 -7.28752,4.10642 -9.93671,-0.25426z" fill="#7da3d0" stroke="none" stroke-width="0.5" stroke-linecap="butt"/><path d="M431.68265,64.55381c3.22743,-0.09436 6.99126,0.09257 9.44716,1.13116c1.197,0.5062 1.75724,1.95812 2.85203,2.65846c0.69083,0.44193 1.57653,0.4525 2.36479,0.67874c2.64192,1.55347 13.90601,7.08936 7.93993,12.54718c-3.37517,3.08763 -8.88528,2.4876 -13.45468,2.7016c-1.51212,0.07082 -2.77005,-1.22309 -4.1349,-1.87783c-2.2898,-1.09845 -4.30354,-2.78398 -6.69723,-3.63251c-0.86181,-0.3055 -3.89344,-0.19729 -4.61946,-0.19587c-3.10654,0.00608 -6.32722,-0.20076 -9.43147,-0.00621c-4.92792,0.30884 -8.42008,1.62029 -13.11948,-0.51456c-2.98846,-1.3576 -8.84258,-4.65582 -8.97361,-8.98492c-0.62381,0.35647 -1.18781,0.86761 -1.87647,1.06268c-2.60537,0.73801 -5.35527,0.85411 -7.98068,1.51733c0,0 -4.85071,1.21268 -6.06339,-3.63803c-1.21268,-4.85071 3.63803,-6.06339 3.63803,-6.06339c7.54059,-1.86819 14.61947,-4.07676 21.98048,-2.39764c2.03615,-3.98252 13.80723,-5.11197 16.64962,-2.09551c0.64149,0.68077 1.06702,1.58131 1.32993,2.61956c2.13487,-0.40746 4.28136,-1.05305 6.24447,-0.31523c1.83521,0.68975 2.55075,2.97804 3.82613,4.46705z" fill="#7da3d0" stroke="none" stroke-width="0.5" stroke-linecap="butt"/><path d="M39.00142,82.63774c-0.75311,2.67597 -3.78584,3.34991 -3.78584,3.34991c-4.60109,1.00302 -9.34955,3.60582 -14.19674,1.40617c-1.63253,-0.74084 -2.29901,-2.75926 -3.30317,-4.24441c-2.97631,-4.40192 -3.57831,-8.93294 -4.88581,-13.8728c-0.73775,-2.78729 -1.83226,-5.62451 -1.60793,-8.49904c0.14969,-1.91806 -0.24811,-4.13435 0.85966,-5.70731c1.52358,-2.16337 6.39284,-3.77115 10.40363,-3.93907c1.4031,-3.91862 3.66861,-6.96768 5.68981,-10.91821c0.6859,-1.34063 0.51246,-3.12694 1.50461,-4.2598c1.31671,-1.50344 3.1404,-2.64687 5.05272,-3.22748c1.97038,-0.59824 4.11611,-0.14237 6.17494,-0.18143c3.11577,-0.05911 6.58306,-0.15974 9.47233,0.74555c0.03407,-0.02013 0.06794,-0.04017 0.10162,-0.06013c5.31433,-3.14987 10.7247,-3.3263 16.73686,-4.06394c3.3293,-0.01001 8.29364,-0.83683 11.44015,0.20488c1.63295,0.54062 3.00036,1.69474 4.40651,2.68548c1.71694,1.20971 3.75091,2.63161 4.47918,4.76065c1.1652,-0.78065 2.45511,-1.38457 3.73462,-1.95979c1.86481,-0.83836 3.80971,-1.49727 5.7653,-2.09396c7.53971,-2.30053 17.16103,-4.85653 25.10837,-3.58988c1.81731,0.28964 3.91227,0.21493 5.34953,1.36417c3.85304,3.08092 4.70363,8.07754 4.55723,12.58874c-0.06921,2.1325 0.61315,5.0677 -1.12815,6.30068c-3.69438,2.61592 -8.6248,2.80982 -13.05456,3.74183c-1.32178,0.2781 -2.73652,-0.4597 -4.04962,-0.14317c-1.26271,0.30438 -2.25588,1.28785 -3.38322,1.93327c0.48933,3.9611 -1.83515,9.61333 -4.2676,11.49986c-4.34403,3.36911 -6.07107,3.15923 -10.57347,3.19129c-4.27325,0.03043 -5.14564,0.26581 -9.25052,-1.38117c-2.20432,-0.88443 -4.8487,-3.87221 -7.61663,-2.72956c-0.99894,0.41238 -1.58985,1.48754 -2.51529,2.04566c-2.56838,1.54898 -5.34187,2.7703 -8.16835,3.77375c-1.03223,0.36646 -2.21949,0.08766 -3.25635,0.44083c-1.55096,0.52828 -2.77937,2.01262 -4.41021,2.17053c-2.69756,0.2612 -5.04684,-0.94806 -7.35452,-1.99012c-0.82178,-0.09679 -1.64053,-0.35651 -2.46534,-0.29038c-0.1618,0.01297 0.10059,0.3474 0.01719,0.48666c-0.26727,0.44621 -0.88186,0.68097 -1.01736,1.18314c-0.31538,1.16884 0.3804,2.60585 -0.27894,3.62119c-1.18617,1.82662 -3.00056,3.24911 -4.8881,4.33572c-1.32406,0.76223 -3.30706,1.17988 -5.39652,1.32172zM26.08969,78.65938c-0.05489,-0.0233 -0.1094,-0.04697 -0.16346,-0.07111c-0.02822,0.04039 -0.02879,0.07559 0.01961,0.10356c0.0583,0.03369 0.10391,0.01489 0.14386,-0.03244z" fill="#7da3d0" stroke="none" stroke-width="0.5" stroke-linecap="butt"/><path d="M169.22187,62.48739c-1.45664,1.16589 -3.35085,1.16589 -3.35085,1.16589c-0.94863,0 -5.76481,0.02222 -6.30459,-0.09022c-5.95965,-1.24144 -16.5991,-7.40643 -13.02532,-15.458c1.49008,-3.35707 6.76793,-3.02236 9.68361,-3.02627c0.7474,-0.001 1.53412,-0.22141 2.24344,0.00916c-0.92868,-4.21184 0.24656,-9.11362 3.86107,-11.82262c-0.23284,-5.34515 1.71227,-6.46216 5.05583,-9.97117c0.58957,-3.56172 4.13328,-3.90273 4.80645,-3.93538c0.48893,-0.11493 0.9636,-0.18306 1.4263,-0.21097c4.76879,-1.65584 8.95699,-2.47751 14.13411,-1.30311c1.24189,0.28172 2.56383,0.37376 3.72768,0.87444c0.28103,-0.46707 0.60699,-0.89728 1.01659,-1.25866c3.60617,-3.18165 8.70883,-2.44121 13.03185,-2.3924c1.58582,0.0179 3.20183,-0.21036 4.75667,0.10211c1.33378,0.26805 2.43132,1.27856 3.75134,1.60772c0.91309,0.22769 1.91804,-0.22659 2.82296,0.03164c3.71253,1.05945 10.14017,4.35216 12.34874,7.57244c1.70823,2.49074 3.92885,5.1957 3.82424,8.21412c-0.33009,9.52429 -10.15109,8.54913 -16.24993,8.54913c-2.67704,0 -5.36216,0.05471 -8.03859,0c-0.14651,-0.00299 -0.30272,0.01491 -0.46123,0.03695c-0.16132,1.74216 -0.33549,3.58405 -1.41178,4.90033c-1.4822,1.81271 -3.86568,2.76767 -6.08862,3.50345c-1.78024,0.58925 -7.07669,0.46488 -9.48711,-0.06096c-0.25418,1.06221 -0.40957,2.21047 -1.08576,3.05283c-0.91661,1.14186 -2.53134,1.52732 -3.57033,2.55908c-0.9608,0.95412 -1.23851,2.53728 -2.34612,3.31618c-1.1772,0.82784 -2.77205,0.77962 -4.13504,1.24154c-2.8741,0.97405 -7.1707,2.93601 -10.93562,2.79273z" fill="#7da3d0" stroke="none" stroke-width="0.5" stroke-linecap="butt"/><path d="M234.16379,15.78436c-2.8951,-0.01274 -4.99716,-0.24958 -8.8127,-2.04452c-1.27221,-0.59849 -1.92921,-2.11544 -3.16197,-2.79147c-0.7414,-0.40657 -1.75295,0.04175 -2.51611,-0.32232c-1.68397,-0.80334 -3.62749,-1.54683 -4.65983,-3.10098c-3.62555,-5.45813 -1.52268,-12.00292 3.35957,-15.73464c1.28995,-0.98597 2.93507,-1.38965 4.41582,-2.05559c4.73262,-2.12842 9.53806,-3.92437 14.90018,-2.67014c1.35104,0.31602 2.47451,1.23024 3.6805,1.93893c1.58657,-0.32198 3.18736,-0.60119 4.83075,-0.81714c1.26535,-1.14014 2.60638,-2.19992 3.81176,-3.40312c1.36657,-0.9762 2.51287,-2.37867 4.09971,-2.92861c2.68556,-0.93072 8.82193,-0.76589 11.8196,-0.76589c1.04588,0 2.67219,-0.3647 3.59809,-0.03119c0.12881,-0.61402 0.37205,-1.20912 0.72229,-1.71448c1.16909,-1.68688 2.36007,-3.5552 4.16228,-4.53723c1.49103,-0.81246 3.37441,-0.40471 5.07011,-0.49348c5.81123,-0.30423 11.92832,-0.51494 16.96034,2.8799c0.97808,0.65986 1.77625,1.56441 2.54809,2.45679c0.19805,0.22898 0.0405,0.7224 0.31399,0.85224c0.89617,0.42546 1.94412,-0.47324 2.83124,-0.91726c1.48413,-0.74283 2.68737,-2.04937 4.26185,-2.5742c3.1093,-1.03644 7.94887,-0.73039 11.15549,-0.6968c4.03566,1.27068 8.06072,2.1349 11.2905,5.12216c1.18713,1.09799 2.26696,2.37091 3.00017,3.81218c2.08389,4.09633 2.05709,10.75281 1.50804,15.29056c-0.1957,1.61738 -0.17602,3.38684 -1.02115,4.77967c-1.06845,1.76086 -2.60862,3.38274 -4.46853,4.2676c-2.71361,1.29102 -10.71778,0.59516 -13.56882,-0.33086c-2.10686,-0.6843 -3.64813,-2.69915 -5.79124,-3.25969c-1.52182,-0.39804 -5.32362,2.75517 -6.47923,3.1792c-3.59488,1.31905 -7.58984,2.16334 -11.4081,2.24404c-0.46946,0 -7.02012,0.02249 -7.57729,-0.06456c-2.25692,-0.35262 -2.38722,-1.33168 -4.31391,-0.95182c-2.84196,0.56031 -4.56012,2.1631 -7.19441,3.12859c-7.8485,2.87656 -16.66485,3.69612 -24.96086,3.69612c-0.35687,0 -8.11633,0.05322 -8.8932,-0.13376c-1.2247,-0.29475 -2.38775,-0.7542 -3.51299,-1.30821z" fill="#7da3d0" stroke="none" stroke-width="0.5" stroke-linecap="butt"/><path d="M74.25884,-7.86658c1.39073,0 7.93578,-0.03073 8.65097,0.13376c1.08124,0.24867 1.89623,0.54234 2.56821,0.88154c1.13492,0.2412 2.86293,0.92088 3.58984,2.83614c0.38215,0.32713 0.80972,0.6715 1.31041,1.03325c1.11892,0.80841 2.3256,1.53174 3.56435,2.22277c2.82114,-0.81818 5.63698,-1.65331 8.43482,-2.47985c4.24678,-1.25458 8.65038,-2.35883 13.17508,-1.49013c5.16703,0.99202 8.30041,2.56217 9.15894,8.7847c0.3113,2.25628 -3.75986,8.53995 -5.45856,9.68766c-0.97898,0.66144 -3.78588,1.4497 -4.09818,0.85479c-0.50478,3.28561 -3.93057,8.1751 -6.94044,9.28814c-1.85894,0.68742 -4.0007,0.06208 -5.93414,-0.37383c-1.26483,-0.28517 -2.25052,-1.32141 -3.47507,-1.74757c-2.14257,-0.74565 -4.77193,0.07867 -6.71857,-1.08631c-0.12303,-0.07363 -5.70125,-3.36785 -5.51229,-6.17932c-1.60426,0.01458 -5.95801,-0.03069 -6.40324,-0.1429c-1.39084,-0.3505 -2.63225,-1.146 -3.90512,-1.80713c-0.08838,-0.0459 -0.17191,-0.11613 -0.25196,-0.20069c-0.95163,-0.02545 -1.89426,-0.05149 -2.81395,-0.06109c-7.19628,4.06114 -18.52302,5.92949 -26.31284,4.22778c-1.72788,-0.37746 -3.02698,-1.83016 -4.54047,-2.74525c-1.7334,-3.3659 -3.28451,-5.03366 -2.92098,-8.47591c-0.14824,-0.04417 -0.29606,-0.07742 -0.4424,-0.08842c-0.70824,-0.05324 -1.43898,0.08095 -2.15191,0.10303c-0.58767,1.39514 -1.81427,2.81055 -2.01694,3.27708c-0.77385,1.78131 -0.27564,4.35572 -1.81847,5.53536c-2.63241,2.01273 -8.92621,1.43616 -11.84202,-0.01161c-5.09523,-2.52989 -5.22022,-3.31859 -5.29311,-8.59115c-0.02837,-2.05231 -0.46908,-4.3249 0.49348,-6.1377c2.66678,-5.02235 5.10549,-4.32053 9.36089,-4.59928c0,0 2.24524,0 3.7266,1.50456c0.54886,-0.65869 1.18034,-1.21862 1.93941,-1.5965c1.68563,-0.83914 3.73989,0.45888 5.61884,0.58157c2.05624,0.13427 5.11817,0.02527 7.70344,0.61162c0.55537,-2.15607 2.51277,-3.74909 4.84224,-3.74909c7.3551,0 17.35805,0 24.71315,0z" fill="#7da3d0" stroke="none" stroke-width="0.5" stroke-linecap="butt"/><path d="M-11.41943,89.48033c-1.46463,-0.30362 -3.96326,-1.33955 -3.96326,-4.87412c0,-5 5,-5 5,-5c3.40075,0.09595 7.05051,-2.26779 10.4509,-0.43578c2.21519,1.19347 3.7942,3.37059 5.25439,5.41981c2.03211,2.85186 2.89149,7.16471 1.62054,10.52157c-0.00031,0.00083 -0.00063,0.00166 -0.00094,0.00249c1.81619,0.27826 3.85409,0.39264 4.17864,1.9324c1.63253,7.74525 -6.94504,19.709 -15.80719,16.64156c-8.1767,-2.83019 -7.16588,-10.90671 -7.16588,-17.60807c0,-2.40655 0.05027,-4.7206 0.43281,-6.59984z" fill="#7da3d0" stroke="none" stroke-width="0.5" stroke-linecap="butt"/><path d="M186.9069,-8.04126c3.24965,0.09476 6.3956,0.4394 9.56707,1.69061c1.75558,0.69261 4.30539,0.52857 5.22718,2.1754c6.73571,12.03371 -7.13932,12.96573 -14.02296,10.05012c-2.54761,-0.38469 -4.74686,0.90476 -7.23471,1.5258c-3.19822,0.79837 -6.40722,1.65145 -9.68549,1.99626c-0.79863,0.084 -1.48439,0.09771 -2.09157,0.05787c-1.02485,1.29213 -1.95188,2.75284 -3.3259,3.56812c-1.7494,1.03802 -5.39685,0.91302 -7.48738,0.90296c-7.90687,-0.03807 -13.59459,-3.54174 -20.35167,-7.43323c-0.90713,-3.68156 -2.1232,-5.83052 -1.6388,-7.77709c-1.31373,-0.73947 -2.67899,-1.40075 -3.89025,-2.29381c0,0 -4,-3 -1,-7c3,-4 7,-1 7,-1c1.72172,1.32184 3.8879,1.99455 5.58638,3.34613c0.62064,0.49388 1.1053,1.11823 1.55015,1.78223c3.34208,-0.05256 7.36904,0.24823 8.61816,0.24823c4.02028,0 9.44192,0.76969 13.45265,0.06456c2.65429,-0.46665 5.17006,-1.67327 7.85376,-1.91983c0.21145,-0.01943 4.66971,-0.02083 6.76211,-0.02046l2.31407,-0.74993c0,0 1.45643,0 2.7972,0.78605z" fill="#7da3d0" stroke="none" stroke-width="0.5" stroke-linecap="butt"/><path d="M308.5208,47.21524c-3.09463,-0.84399 -7.1936,0.43939 -10.64803,-0.42421c-2.38156,-0.59539 -5.54948,-3.61404 -7.84747,-3.81823c-9.29447,-0.82583 -21.18999,2.87539 -29.71589,-2.24015c-9.38239,-5.62944 -6.16974,-16.72989 2.5928,-21.40325c3.8957,-2.0777 11.96642,-1.86388 16.21715,0.26148c1.82795,0.91397 7.07222,4.68005 9.76714,3.98095c7.21362,-1.87133 11.7427,-9.51874 18.08119,-12.42388c6.69646,-3.06921 10.63834,0.57733 16.33547,2.26975c7.76361,2.3063 15.11839,2.44189 21.37248,8.4661c0.91722,0.8835 0.16305,2.54209 0.21193,3.81467c0.26181,6.81721 -4.80216,5.705 -7.41985,9.82654c-0.06383,0.1005 0.81281,3.07316 0.82547,3.30186c0.20444,3.69588 -0.15998,8.03543 -1.35142,11.6268c-1.11721,3.3676 -5.91137,3.92503 -8.72677,4.51697c-6.38742,1.34296 -14.79964,-3.06215 -19.56837,-7.83088z" fill="#7da3d0" stroke="none" stroke-width="0.5" stroke-linecap="butt"/><path d="M380.8968,61.25598c-3.30022,1.10391 -6.82447,2.0588 -9.9171,0.35122c-5.96134,-3.29152 -7.79843,-6.55473 -2.30536,-12.49333c1.92779,-2.08415 10.91932,-1.66605 13.44966,-1.18513c0.19709,0.03746 0.40776,0.07489 0.62139,0.11864c0.03315,-0.57921 0.14109,-1.16775 0.23916,-1.71289c0.53025,-2.94725 2.99653,-6.84278 5.62234,-8.19499c1.52418,-0.78491 3.40984,-0.37547 5.12153,-0.47205c3.12653,-0.17642 6.23877,-0.36451 9.37734,-0.37509c1.25814,0.04459 2.54211,-0.12376 3.77442,0.13376c1.14829,0.23996 2.20846,0.86274 3.37301,1.00411c0.17611,0.02138 0.3152,0.44292 0.43263,0.30995c1.54563,-1.75004 2.35841,-4.09574 4.0196,-5.73649c4.26193,-4.2095 9.91379,-7.29299 16.018,-6.17649c12.64468,2.31279 13.33354,18.48168 18.67856,27.68357c4.85995,2.93199 7.90037,6.94863 8.15159,12.86215c0.09013,2.12145 0.96416,4.81623 -0.50413,6.35012c-2.01643,2.10652 -5.39332,2.40775 -8.27927,2.82569c-7.32255,1.06046 -12.97147,-6.82298 -19.72626,-7.54926c-4.38815,-0.47182 -8.95375,0.49686 -13.35545,0.01847c-4.95999,-0.53906 -9.84495,-1.66571 -14.80431,-2.273c-4.38428,-0.74767 -9.72125,-0.11069 -13.82492,-1.93313c-2.09708,-0.93131 -5.82418,-0.88158 -6.11691,-3.15741c-0.01726,-0.13416 -0.03242,-0.26695 -0.04554,-0.39843z" fill="#7da3d0" stroke="none" stroke-width="0.5" stroke-linecap="butt"/><path d="M439.21756,25.48069c-1.27619,-0.4792 -2.05788,-1.79037 -3.1327,-2.62886c-1.47515,-1.15081 -3.45632,-1.46302 -5.06661,-2.41547c-3.05696,0.92898 -6.21434,1.02018 -9.44991,0.66994c-1.38924,-0.15038 -2.20483,-0.42277 -2.74072,-0.87352h-2.08689c-2.76142,0 -5,-2.23858 -5,-5c0,-2.76142 2.23858,-5 5,-5h2.19009c4.13599,-1.5046 7.78366,-2.3821 11.8059,-1.48317c0.0126,-0.00428 0.02529,-0.00842 0.03807,-0.0124c0.89754,-0.28008 1.93284,-0.46986 3.04539,-0.57787c0.76197,-0.46978 1.65952,-0.74082 2.62038,-0.74082h2.81426v0.78874c0.20084,0.02033 0.40125,0.04256 0.60097,0.06665l1.31245,-0.47478c0.28344,0.25053 0.54763,0.52957 0.81281,0.80715c1.26605,0.24546 2.45693,0.56643 3.4915,0.95143c0.90381,-1.29327 2.40373,-2.13918 4.10122,-2.13918c3.75235,0 10.31895,0 14.07129,0c0.93809,0 1.94252,-0.34651 2.81426,0h2.81426c2.76142,0 5,2.23858 5,5c0,0.5726 -0.09625,1.12273 -0.27346,1.63507c3.25681,0.16676 6.44448,0.97789 8.49856,1.99646c1.64031,0.81339 2.31603,2.96268 3.91751,3.85009c0.86492,0.47927 2.03132,0.3341 2.81426,0.93809c4.8296,3.72573 4.05352,4.18465 4.24752,9.88177c0.10652,3.128 0.06802,7.63824 -3.01453,9.68473c-0.69459,0.46114 -1.47482,0.69741 -2.29927,0.81442c0.37973,0.67023 0.62338,1.53032 0.62338,2.63406c0,5 -5,5 -5,5c-1.70739,0 -3.51217,-0.79549 -5.11768,-0.21454c-1.3404,0.48502 -2.32003,2.04593 -3.74537,2.06383c-2.15056,0.02701 -4.05525,-1.46854 -6.15378,-1.93951c-1.23373,-0.27688 -2.64724,0.26708 -3.78214,-0.29038c-1.61934,-0.79541 -2.66259,-2.43915 -4.07079,-3.56695c-1.88766,-1.51179 -4.30679,-2.2231 -6.32021,-3.56284c-0.73632,-0.48996 -1.14839,-1.37361 -1.87617,-1.87617c-3.5916,-2.48013 -7.23901,-1.74848 -9.77248,-6.11799c-1.59544,-2.75167 -1.85137,-5.54606 -1.15588,-8.18247c-0.84873,0.06654 -1.77881,0.61364 -2.57546,0.31451z" fill="#7da3d0" stroke="none" stroke-width="0.5" stroke-linecap="butt"/><path d="M364.95949,-1.28876c1.45801,-0.22375 2.89176,-0.47094 4.26601,-0.63613c1.44408,-0.17359 2.9099,-0.09437 4.36326,-0.03746c0.41952,0.01643 0.8616,0.45215 1.23312,0.25658c1.22879,-0.64682 1.94255,-2.12965 3.2442,-2.61341c6.59254,-2.45011 8.04082,-2.30795 13.34632,-2.33361c2.93592,-0.0142 10.33639,-0.92296 12.45792,1.05897c2.28551,2.13512 3.82743,9.17957 2.48042,12.42105c-0.69232,1.66602 -2.28205,2.80431 -3.56695,4.07079c-1.66023,1.63644 -2.98888,4.0536 -5.2502,4.61998c-1.56152,0.3911 -2.76637,-1.69084 -4.28228,-2.23244c-0.95935,-0.34276 -3.51756,1.11339 -4.33924,0.70141c0.04619,0.79294 0.04537,1.55695 -0.53076,1.96707c-1.7696,1.25968 -4.20744,1.10586 -6.34979,1.46447c-4.03576,0.67555 -8.53927,1.71201 -12.70596,0.72355c-1.72782,-0.40989 -3.12157,-1.72032 -4.53528,-2.79492c-0.34048,-0.25881 -0.20425,-1.02171 -0.61965,-1.12349c-1.06582,-0.26115 -2.23465,0.47418 -3.28785,0.16606c-1.33442,-0.39039 -2.31945,-1.54643 -3.5621,-2.17006c-1.97816,-0.99275 -4.35495,-0.93111 -6.39261,-1.79518c-1.09622,-0.46485 -1.9228,-1.42555 -2.98825,-1.95717c-2.73613,-1.36524 -5.72805,-2.35046 -8.44278,-3.75235c-0.77084,-0.39806 -1.24991,-1.28912 -2.06642,-1.58229c-1.91535,-0.6877 -4.02002,0.64511 -6.01328,1.05553c0,0 -4.9029,0.98058 -5.88348,-3.92232c-0.98058,-4.9029 3.92232,-5.88348 3.92232,-5.88348c3.64554,-0.71164 7.08834,-1.78553 10.87228,-0.82064c1.34724,0.34354 2.31232,1.56085 3.5621,2.17006c1.38343,0.67435 2.81056,1.2695 4.23552,1.86848c1.89703,-1.2828 4.67995,-1.79147 6.89281,-2.37322c0.41429,-0.10891 6.04074,1.7961 7.01777,2.12907c1.0182,0.34701 1.97541,0.83864 2.92279,1.3551z" fill="#7da3d0" stroke="none" stroke-width="0.5" stroke-linecap="butt"/><path d="M-13.53973,48.421c-1.19816,2.06931 -3.80538,2.39521 -3.80538,2.39521c-5.00869,0.5951 -8.70099,2.9467 -12.89855,-2.68165c-2.10543,-2.8231 -0.15366,-12.22251 2.39573,-14.45071c1.31746,-1.15147 3.32783,-1.11342 5.04469,-1.45099c0.14948,-0.02939 0.11497,0.57185 0.16255,0.42714c1.34828,-4.1008 2.75047,-8.42689 6.87359,-10.76442c3.43889,-1.94962 4.91719,-1.09779 8.51844,-0.92288c3.70626,0.18 7.96612,0.39148 11.22635,2.56418c1.2615,0.8407 2.05355,2.23059 3.08033,3.34589c0.03376,1.04549 -0.1095,-0.15387 1.34516,-0.53732c1.29507,-0.34139 2.6524,-0.60087 3.98745,-0.49409c5.00261,0.4001 9.32856,1.51051 9.17736,8.45095c-0.05184,2.37965 -1.90081,4.6016 -3.78655,6.05398c-3.82068,2.94265 -10.49861,0.05772 -14.7096,0.94401c-2.14131,0.45068 -3.25696,2.93608 -4.79033,4.02767c-1.09554,0.7799 -2.39997,1.22412 -3.65341,1.7113c-2.4566,0.95482 -5.43358,1.99677 -8.16782,1.38175z" fill="#7da3d0" stroke="none" stroke-width="0.5" stroke-linecap="butt"/><path d="M495.78266,115.00107c-0.335,0.10252 -0.55172,0.13864 -0.55172,0.13864c-4.08636,0.66159 -10.14357,1.55275 -14.19306,0.34735c-1.00873,-0.30027 -1.63986,-1.36303 -2.60333,-1.7866c-0.83384,-0.36658 -1.88523,-0.09008 -2.67953,-0.53591c-4.88682,-2.74286 -4.51194,-3.50132 -6.01818,-8.6917c-0.83187,-0.64309 -1.61061,-1.33709 -2.29551,-2.09913c-0.56455,-0.03533 -1.08992,-0.12682 -1.40881,-0.28431c-1.94338,-0.95977 -4.02352,-2.19789 -5.03462,-4.11507c-3.03847,-5.76132 1.29481,-16.98966 8.03505,-18.32866c2.34037,-0.46493 4.71533,0.73468 7.07299,1.10201c0.68395,0.81583 1.20257,1.80554 2.05184,2.4475c0.48635,0.36763 1.23788,0.25088 1.78599,0.48868c5.25103,-3.11019 13.63455,-3.25686 17.76804,1.88388c1.23079,1.53072 2.09484,3.38204 2.6352,5.27041c0.39638,1.38519 0.28377,2.89078 0.10942,4.32098c-0.04176,0.34255 -0.88478,0.43147 -0.72611,0.73792c0.3976,0.76793 1.69452,0.862 1.97756,1.67913c0.9027,2.60607 0.80305,13.38414 -0.75269,15.26557c-1.19208,1.44164 -3.22748,1.86092 -5.17253,2.15929z" fill="#7da3d0" stroke="none" stroke-width="0.5" stroke-linecap="butt"/><path d="M61.51864,117.02393l-30.95685,-48.78049" fill="none" stroke="#7da3d0" stroke-width="1.5" stroke-linecap="round"/><path d="M54.01395,44.79128l16.88555,23.45216" fill="none" stroke="#7da3d0" stroke-width="1.5" stroke-linecap="round"/><path d="M14.61433,75.74814l-24.39025,-39.39963" fill="none" stroke="#7da3d0" stroke-width="1.5" stroke-linecap="round"/><path d="M8.9858,104.8288l-22.51407,-34.70919" fill="none" stroke="#7da3d0" stroke-width="1.5" stroke-linecap="round"/><path d="M71.83759,43.8532l-25.32833,-34.7092" fill="none" stroke="#7da3d0" stroke-width="1.5" stroke-linecap="round"/><path d="M111.23721,16.64869l41.2758,52.53284" fill="none" stroke="#7da3d0" stroke-width="1.5" stroke-linecap="round"/><path d="M113.11338,54.17215l-16.88555,-21.57599" fill="none" stroke="#7da3d0" stroke-width="1.5" stroke-linecap="round"/><path d="M208.79819,55.11023l-43.15197,-52.53283" fill="none" stroke="#7da3d0" stroke-width="1.5" stroke-linecap="round"/><path d="M117.80382,69.18152l40.33771,47.8424" fill="none" stroke="#7da3d0" stroke-width="1.5" stroke-linecap="round"/><path d="M23.05711,26.96764l37.52345,48.78049" fill="none" stroke="#7da3d0" stroke-width="1.5" stroke-linecap="round"/><path d="M305.73065,108.89072l-30.95685,-48.78049" fill="none" stroke="#7da3d0" stroke-width="1.5" stroke-linecap="round"/><path d="M315.11151,60.11023l-16.88555,-23.45216" fill="none" stroke="#7da3d0" stroke-width="1.5" stroke-linecap="round"/><path d="M234.43608,28.2153l24.39025,39.39963" fill="none" stroke="#7da3d0" stroke-width="1.5" stroke-linecap="round"/><path d="M230.68375,61.9864l22.51407,34.70919" fill="none" stroke="#7da3d0" stroke-width="1.5" stroke-linecap="round"/><path d="M290.72127,1.01079l25.32833,34.7092" fill="none" stroke="#7da3d0" stroke-width="1.5" stroke-linecap="round"/><path d="M355.44922,8.51548l41.2758,52.53284" fill="none" stroke="#7da3d0" stroke-width="1.5" stroke-linecap="round"/><path d="M357.32539,46.03894l-16.88555,-21.57599" fill="none" stroke="#7da3d0" stroke-width="1.5" stroke-linecap="round"/><path d="M453.0102,46.97702l-43.15197,-52.53283" fill="none" stroke="#7da3d0" stroke-width="1.5" stroke-linecap="round"/><path d="M462.70063,49.16276l30.95685,48.78049" fill="none" stroke="#7da3d0" stroke-width="1.5" stroke-linecap="round"/><path d="M503.03834,49.16276l-16.88555,-23.45216" fill="none" stroke="#7da3d0" stroke-width="1.5" stroke-linecap="round"/><path d="M446.75317,56.66746l-24.39025,-39.39963" fill="none" stroke="#7da3d0" stroke-width="1.5" stroke-linecap="round"/><path d="M418.61058,51.03893l22.51407,34.70919" fill="none" stroke="#7da3d0" stroke-width="1.5" stroke-linecap="round"/><path d="M503.97643,24.77252l-25.32833,-34.7092" fill="none" stroke="#7da3d0" stroke-width="1.5" stroke-linecap="round"/><path d="M584.65185,50.10085l-41.2758,-52.53284" fill="none" stroke="#7da3d0" stroke-width="1.5" stroke-linecap="round"/><path d="M528.36667,13.51548l16.88555,21.57599" fill="none" stroke="#7da3d0" stroke-width="1.5" stroke-linecap="round"/><path d="M640.93702,36.02955l-43.15197,-52.53283" fill="none" stroke="#7da3d0" stroke-width="1.5" stroke-linecap="round"/><path d="M75.45035,79.67379l25.40416,33.4873" fill="none" stroke="#7da3d0" stroke-width="1.5" stroke-linecap="round"/><path d="M162.54432,59.13667l11.54734,17.32102" fill="none" stroke="#7da3d0" stroke-width="1.5" stroke-linecap="round"/><path d="M372.21709,70.43591l13.85681,20.78522" fill="none" stroke="#7da3d0" stroke-width="1.5" stroke-linecap="round"/><path d="M440.34642,72.74538l16.16628,24.24942" fill="none" stroke="#7da3d0" stroke-width="1.5" stroke-linecap="round"/></g></g></svg>