<svg version="1.1" xmlns="http://www.w3.org/2000/svg" xmlns:xlink="http://www.w3.org/1999/xlink" width="219.12378" height="114.60403" viewBox="0,0,219.12378,114.60403"><g transform="translate(-69.04998,-188.58761)"><g data-paper-data="{&quot;isPaintingLayer&quot;:true}" fill-rule="nonzero" stroke="none" stroke-width="0.5" stroke-linecap="butt" stroke-linejoin="miter" stroke-miterlimit="10" stroke-dasharray="" stroke-dashoffset="0" style="mix-blend-mode: normal"><path d="M177.23301,263.69117c-2.56273,-6.36286 -5.92695,-12.15023 -7.60202,-18.88779c0,0 -0.59906,-2.42715 1.8281,-3.02623c2.42716,-0.59906 3.02624,1.82809 3.02624,1.82809c1.5913,6.49955 4.90031,12.08149 7.38379,18.21332c4.30193,10.62167 8.58689,21.25025 12.87649,31.87693c-1.45024,0.8721 -2.87693,1.78557 -4.30409,2.69814c-4.40527,-10.89982 -8.81634,-21.79736 -13.20849,-32.70246z" fill="#acacac"/><path d="M285.63162,270.23917c-0.57299,-2.26229 -1.61571,-4.54377 -1.37435,-6.86499c0.0673,-0.64724 1.17371,-2.708 0.43108,-3.60869c-0.39311,-0.4768 -1.18627,-0.41846 -1.6724,-0.79998c-1.40242,-1.10065 -2.2684,-2.79853 -3.69761,-3.86418c-2.37844,-1.77343 -5.42842,-3.24399 -7.62173,-5.23152c-0.26099,-0.2365 -2.83707,-4.18658 -3.18453,-4.71804c-3.35431,-5.13095 -6.10656,-12.12521 -7.15253,-18.15962c0.45292,-1.78259 1.51529,-3.36559 2.024,-5.13309c0.24565,-0.8535 -0.00148,-1.76253 -0.17966,-2.66457c-0.54415,0.48869 -1.15945,0.93147 -1.60962,1.21568c-0.20587,0.12997 -5.29324,2.17285 -5.46062,2.24047c-10.66656,4.30843 -21.33314,8.61684 -31.9997,12.92527c-9.90446,4.00059 -19.96569,9.05735 -30.43894,11.18117c-7.35669,1.49183 -14.44656,0.41837 -21.75017,-0.73437c0,0 -2.46944,-0.38976 -2.07969,-2.85918c0.38976,-2.46943 2.85918,-2.07968 2.85918,-2.07968c6.66225,1.05151 13.14979,2.22168 19.86487,0.79706c10.20829,-2.16574 19.98975,-7.03019 29.67212,-10.94108c10.66657,-4.30842 21.33315,-8.61685 31.99972,-12.92528c2.86363,-1.15668 4.29427,-1.95558 6.76916,-3.64854c1.32523,-0.90652 2.58761,-2.84499 4.1449,-2.45399c0.62538,0.15702 1.09708,0.5759 1.47591,1.12143c-2.96235,7.00795 -1.71051,22.01245 3.56333,27.04875c0.44857,0.71294 0.97859,1.35474 1.5725,1.91791c0.26898,0.45471 0.55321,0.88968 0.85354,1.30258c3.74774,5.15247 7.68301,8.38519 12.78966,11.09495c0.22553,0.23353 0.46033,0.45694 0.71005,0.66405c0.46238,0.38349 1.06978,0.61607 1.60665,0.91279c0.07274,0.10399 0.14049,0.21284 0.20381,0.32595c-0.08655,0.16263 -0.17317,0.32765 -0.25996,0.49504l0.12735,0.37376c-0.52834,0.66995 0.15551,3.91135 0.22845,4.38472c0.34835,2.26117 -0.05845,5.74487 -0.72936,7.98386c-0.04464,0.14893 -0.08841,0.2986 -0.13136,0.44899c-0.54584,0.09808 -1.04972,0.23041 -1.52023,0.39433c-0.01086,-0.04846 -0.02211,-0.0958 -0.03382,-0.14195z" fill="#acacac"/><path d="M181.45385,275.47198c-2.0425,-5.0567 -6.11806,-12.19133 -4.3709,-17.81103c-0.52581,-0.25968 -1.04109,-0.53913 -1.54443,-0.83893c0,0 -6.41961,-3.87797 -2.54164,-10.29758c3.87798,-6.41961 10.29758,-2.54163 10.29758,-2.54163c0.68621,0.42357 1.16681,1.42979 1.97268,1.40041c2.55527,-0.09314 5.10545,-0.42122 7.65506,-0.63742c7.54654,-0.63993 14.44325,-6.19509 21.90308,-7.95758c0.87376,-0.20644 1.8126,0.16458 2.69347,-0.00908c3.45684,-0.68153 7.11058,-2.47862 10.41565,-3.81359c4.12771,-1.64438 6.99239,-4.35002 11.03214,-6.07436c4.95675,-2.11577 10.77322,-3.59264 15.60421,-6.20217c0.71793,-1.00122 1.82596,-1.91706 3.49922,-2.59292c3.27594,-1.32321 5.63198,-0.47987 7.20785,0.78243c-0.36928,3.43451 -0.21845,7.35414 0.44402,10.96764l-0.4265,1.5363c0.26637,0.06375 0.53438,0.14476 0.80145,0.24593c0.84756,3.54907 2.22305,6.64459 4.11756,8.45378c0.11682,0.18566 0.23917,0.36652 0.36671,0.54239c-0.32439,1.26772 -1.01297,2.27365 -1.76174,3.0421c0.0565,0.09151 0.1112,0.18458 0.16409,0.27916l0.35537,0.6124c2.27251,0.05204 6.39835,4.49921 8.00125,5.65922c1.05678,0.7648 2.17265,1.47173 3.09784,2.39137c0.37572,0.37347 0.26868,1.14975 0.72878,1.41232c1.53586,0.87649 3.79719,0.52337 4.97478,1.84259c0.5917,0.66287 1.08307,1.34001 1.48649,2.02886c-0.07545,1.19821 0.36104,3.28849 0.41849,3.66137c0.34835,2.26117 -0.05846,5.74486 -0.72937,7.98384c-0.04464,0.14893 -0.08842,0.2986 -0.13137,0.44898c-3.45188,0.62027 -5.22519,2.60983 -7.50157,5.30201c-1.25719,1.48683 -1.82737,4.16222 -3.74836,4.47998c-2.63362,0.43562 -5.58325,-0.18188 -7.93487,1.08131c-2.4694,1.32646 -3.36748,3.63526 -4.86942,5.69623c-0.43336,0.59466 -1.45593,-0.23427 -2.19087,-0.27007c-1.08759,-0.05298 -2.18505,0.16087 -3.26646,0.03359c-3.10699,-0.36567 -5.68714,-1.72244 -8.90895,-1.17497c-1.68761,0.28677 -3.20676,1.19911 -4.81014,1.79865c-1.25757,0.50796 -7.64393,3.07673 -8.0147,3.28941c-1.39803,0.80193 -2.4239,2.15588 -3.81322,2.9728c-2.47249,1.45384 -5.34301,2.08871 -7.99647,3.1778c-0.42765,0.17552 -4.00167,1.73376 -4.23862,1.71538c-0.37778,-0.02929 -0.10455,-0.75483 -0.22382,-1.1145c-0.33409,-1.00761 -0.71178,-2.00188 -1.13261,-2.97645c-1.78949,-4.14416 -2.51972,-7.241 -8.32377,-7.9076c-6.4546,-0.74131 -5.10319,2.25036 -8.77462,4.5048c-1.17972,0.7244 -2.6575,0.83422 -3.87655,1.4903c-2.59085,1.39438 -5.06409,2.9954 -7.54597,4.58102c-2.85361,-7.06483 -5.70724,-14.12966 -8.56085,-21.19449z" fill="#acacac"/><path d="M266.17612,281.32259c-0.4293,-3.44395 0.90215,-7.52333 -0.18978,-10.82817c-2.22449,-6.7326 -5.3967,-13.29591 -8.05184,-19.86937c-1.30435,-3.22924 -3.55281,-7.33854 -4.19696,-10.74776c-0.39319,-2.08103 0.09348,-4.23979 -0.04008,-6.35343c-0.69633,-3.91567 0.30416,-6.41438 0.4653,-10.20419c0.11899,-2.79862 -1.03933,-6.13012 0.62958,-8.37982c1.57999,-2.12983 8.53285,-4.4155 11.12294,-3.4289c0.41274,0.15722 0.80572,0.3571 1.18052,0.59081c-3.51574,6.50982 -2.40272,22.70783 3.11854,27.98042c0.44857,0.71294 0.9786,1.35472 1.57251,1.91789c0.26898,0.45471 0.55322,0.88969 0.85354,1.3026c3.17419,4.36394 6.4829,7.35075 10.52387,9.80909c0.22174,0.23606 0.50557,0.38064 0.81716,0.48431c0.8668,0.50062 1.76743,0.98058 2.70737,1.44762c0.5611,0.27881 0.96122,0.71989 1.26176,1.25674c-0.08655,0.16263 -0.17318,0.32764 -0.25996,0.49504l0.12736,0.37376c-0.52834,0.66995 0.15551,3.91135 0.22844,4.38472c0.34835,2.26117 -0.05845,5.74486 -0.72936,7.98385c-0.04464,0.14893 -0.08842,0.2986 -0.13137,0.44898c-3.45187,0.62027 -5.22519,2.60982 -7.50157,5.30201c-1.25719,1.48683 -1.82738,4.16222 -3.74837,4.47998c-2.63362,0.43562 -5.58325,-0.18187 -7.93487,1.08131c-0.66167,0.35541 -1.21051,0.78136 -1.6884,1.25417c-0.05705,-0.25806 -0.10352,-0.51839 -0.13635,-0.78167z" fill="#a1a1a1"/><path d="M258.36758,260.24847c1.158,-0.66836 2.78045,-0.9813 4.79496,0.19242c1.43285,0.83482 2.1136,1.868 2.38352,2.87611c-3.35778,3.49302 -5.89733,7.45518 -6.24269,10.79622c-0.2887,0.7913 -0.47126,1.60338 -0.55254,2.41781c-0.19461,0.49116 -0.36428,0.98229 -0.50664,1.47262c-0.38288,1.31874 -0.68995,2.58974 -0.92622,3.82935c-2.0359,2.24959 -4.83488,2.55167 -9.22956,-2.33504c-3.1588,-3.51245 1.19076,-11.98273 3.60952,-14.98873c1.29794,-1.61306 2.3021,-3.95027 4.30408,-4.47822c0.79299,-0.20913 1.58042,-0.06708 2.36559,0.21747z" fill="#828282"/><path d="M190.01915,292.16285c1.4319,-6.80726 0.48005,-14.57995 0.48005,-21.52807c0,-0.14447 0,-0.28895 0,-0.43342c2.939,-1.78969 5.74834,-4.10197 8.9924,-5.20414c0.33164,-0.11268 0.66777,-0.15395 1.0076,-0.13864c0,1.92541 0,3.8508 0,5.77621c0,7.70345 0.78427,15.91827 -0.67424,23.48924l0.09709,-0.40344c0,0 0,1.22165 -0.60386,2.45723c-3.10633,-0.69566 -6.217,-1.23874 -9.20494,-1.13706c-0.19074,-0.75083 -0.1912,-1.31745 -0.1912,-1.32018z" fill="#bababa"/><path d="M184.15534,283.11739c-0.89015,-2.24771 -1.0911,-4.71157 -1.5475,-7.08564c-0.54594,-2.83999 -2.57567,-6.20431 -3.65066,-8.86571c-2.52178,-6.24329 -5.04357,-12.48658 -7.56535,-18.72988c0,0 -1.8726,-4.63609 2.76349,-6.50869c4.6361,-1.8726 6.5087,2.76349 6.5087,2.76349c2.52178,6.24329 5.04356,12.48658 7.56534,18.72988c1.31309,3.25088 3.38048,6.96356 4.13085,10.39932c0.25961,1.1887 -0.00305,2.44829 0.22665,3.64314c0.4911,2.55465 2.47791,4.9656 3.58324,7.20329c1.0793,2.18499 2.06828,4.47818 2.89452,6.8339c-0.5186,0.15794 -1.03077,0.3303 -1.50396,0.58496c-2.5369,1.36535 -4.96104,2.92883 -7.39094,4.48196c-1.7435,-4.59041 -4.20638,-8.88466 -6.01437,-13.45002z" fill="#bababa"/><path d="M168.22929,240.67148c-1.66826,-2.39128 -0.47529,-5.96358 0.42518,-8.73674c0.43247,-1.33184 2.19293,-1.74235 3.26862,-2.63885c2.55964,-2.1332 4.97119,-4.33036 7.56929,-6.42674c10.43904,-8.42312 22.9623,-13.82617 35.10863,-19.50402c4.75267,-2.22165 9.54055,-4.99101 14.66559,-6.27061c7.98155,-1.99281 16.47046,-3.07506 24.31369,-5.57617c5.45979,-1.74106 10.58316,-3.5077 16.44884,-2.75066c-0.27161,3.78011 0.48208,7.67382 0.12595,11.79147c-0.22575,2.61014 -0.75371,5.23946 -1.05917,7.96936c-0.5436,0.80748 -0.99228,1.70483 -1.50212,2.66135c-0.14454,0.11814 -0.28674,0.23752 -0.42628,0.35834c-1.42502,1.23397 -2.50417,2.86395 -4.03949,3.95766c-1.43378,1.02138 -3.16775,1.53658 -4.75162,2.30486c-8.92849,4.17366 -17.857,8.34732 -26.78551,12.52096c-5.51611,2.57852 -11.1077,5.80552 -16.84777,7.84868c-6.06508,2.15884 -12.70367,2.00918 -18.77238,3.8893c-2.71316,0.84054 -5.22332,2.14491 -8.08066,2.70119c-4.58715,0.89305 -9.16309,1.12304 -13.75713,2.02496c0,0 -4.90785,0.95556 -5.86341,-3.95228c-0.16144,-0.82912 -0.15552,-1.54546 -0.0342,-2.16343c-0.00203,-0.00287 -0.00404,-0.00576 -0.00606,-0.00867z" fill="#c4c4c4"/><path d="M213.33934,230.2934c-0.21944,0.44078 -0.69304,0.63207 -0.69304,0.63207c-7.59759,3.06881 -15.48653,5.18068 -23.45481,6.27194c-2.44864,0.33534 -6.44491,-1.60697 -6.29579,-4.56137c0.05018,-0.99403 0.72922,-1.85224 1.09382,-2.77836c3.31436,-3.81083 7.91881,-8.53151 12.2678,-11.17654c7.19819,-4.3779 16.20926,-4.71213 23.042,-10.01062c1.1198,-0.449 2.03582,-1.29533 3.05893,-1.9347c3.7989,-2.37405 9.00289,-3.61095 13.22408,-4.26752c3.73532,-0.581 7.08913,-3.73634 10.83594,-4.38856c2.03161,-0.35366 4.6082,-0.5444 6.64731,-0.3862c4.12276,1.23547 9.69142,5.75729 7.79524,10.90001c-0.38673,1.04892 -1.69444,1.46358 -2.60371,2.114c-1.25425,0.89719 -1.97807,2.41181 -3.43635,3.17276c-3.74534,1.95435 -10.18417,5.12189 -14.39226,4.73205c-9.0246,3.99483 -17.91676,7.96248 -27.08914,11.68101z" fill="#b2b2b2"/><path d="M266.02526,213.68831c-3.19686,3.04376 -7.00127,5.64757 -10.70108,7.90158c-1.99286,1.2141 -3.23721,2.80581 -5.42695,3.73311c-3.55576,2.79806 -7.43127,4.14207 -11.60763,5.82897c-3.97476,1.60548 -7.94947,3.21094 -11.92422,4.81642c-1.73761,0.70185 -3.79468,1.99886 -5.65561,2.22656c-2.43945,0.2985 -4.39991,1.06452 -6.86743,2.06118c-3.59618,1.45257 -8.10683,4.18897 -11.94894,4.76856c-3.48165,0.52522 -7.26859,1.09753 -10.79623,1.68571c-1.9264,0.32119 -3.5883,1.05763 -5.51605,1.46922c-2.08517,0.44521 -4.76289,-0.16855 -6.87505,-0.35382c-1.78507,0.32444 -3.09928,0.19221 -4.8872,-0.06146c-11.40834,-1.61863 -5.42743,-14.9971 -1.08324,-20.7626c0,0 0.75298,-0.99775 1.75073,-0.24475c0.99775,0.75299 0.24475,1.75072 0.24475,1.75072c-1.42386,1.88346 -3.31473,4.22024 -3.87283,6.59032c-0.27525,1.16893 -0.20449,2.43129 -0.66322,3.54112c-0.63943,1.54698 -1.28917,4.10516 0.52719,5.46359c1.38993,1.03949 3.42275,1.0875 5.04277,1.31404c0.92733,0.12968 1.88886,0.09287 2.80769,-0.08743c11.9401,0.87913 23.25702,-2.91734 34.33331,-7.39127c2.64571,-1.06865 4.87363,-2.00479 7.57933,-2.23304c1.5273,-0.12884 3.48242,-1.46446 4.9437,-2.05471c3.53311,-1.42709 7.0662,-2.85417 10.59931,-4.28126c4.48758,-1.81261 8.76625,-3.23536 12.60421,-6.20262c2.21076,-0.92554 3.39769,-2.48668 5.42696,-3.73313c3.50454,-2.15261 7.2088,-4.62387 10.23548,-7.54955l1.39067,-0.65812c0,0 1.08029,-0.43636 1.57623,0.57644c-0.03055,0.05519 -0.06139,0.11052 -0.09256,0.16603c-0.27315,0.48644 -0.51937,1.03014 -0.7387,1.6219z" fill="#515151"/><path d="M184.15371,234.2591c0.44117,0.60652 -0.16536,1.0477 -0.16536,1.0477l-0.19899,-0.03388c-0.51554,1.60097 -1.47599,3.30704 -1.34053,5.011c0,0 0.04656,0.74856 -0.70199,0.79513c-0.74855,0.04656 -0.79511,-0.70199 -0.79511,-0.70199c-0.09711,-1.9581 0.82102,-3.72673 1.40951,-5.56296l0.74478,-0.72035c0,0 0.60653,-0.44116 1.04768,0.16536z" fill="#515151"/><path d="M189.25306,243.52392c0.2931,-0.69035 0.98347,-0.39724 0.98347,-0.39724l0.10619,0.05008c2.06846,0.68158 3.02403,2.27498 3.09634,4.39654c0,0 0.01882,0.74977 -0.73092,0.7686c-0.74977,0.01882 -0.76861,-0.73093 -0.76861,-0.73093c-0.01938,-1.39356 -0.57918,-2.63271 -2.02697,-2.9972l-0.26225,-0.10637c0,0 -0.69035,-0.29312 -0.39724,-0.98347z" fill="#515151"/><path d="M212.2644,236.82395c0.69035,0.2931 0.39724,0.98347 0.39724,0.98347l-0.02002,-0.15545c0.09733,1.63731 0.79846,3.00764 1.4083,4.51747c0,0 0.28089,0.69542 -0.41452,0.97631c-0.69541,0.28089 -0.9763,-0.41454 -0.9763,-0.41454c-0.67546,-1.67228 -1.3972,-3.16978 -1.51459,-4.98611l0.13641,-0.5239c0,0 0.29312,-0.69035 0.98347,-0.39724z" fill="#515151"/><path d="M171.8946,228.49665c0.12201,0.15993 0.35922,0.57476 -0.05499,0.99179c-0.52853,0.53212 -1.06065,0.00358 -1.06065,0.00358l-0.9607,-1.48538c1.22182,-0.61306 2.85584,-1.40761 4.22924,-1.71091c1.18311,-0.26128 2.2541,0.1759 3.38379,-0.31294c0,0 0.69541,-0.28089 0.97631,0.41452c0.28089,0.69541 -0.41452,0.9763 -0.41452,0.9763c-0.93783,0.36012 -4.47851,1.17355 -6.09847,1.12305z" fill="#515151"/><path d="M173.86423,219.42929c-0.04656,-0.74855 0.70198,-0.79512 0.70198,-0.79512l0.78635,0.03042c1.70808,0.72974 3.59352,1.06191 5.42623,1.34976c0,0 0.74084,0.11694 0.62391,0.85776c-0.11693,0.74082 -0.85775,0.6239 -0.85775,0.6239c-1.95869,-0.31053 -3.94965,-0.67852 -5.77861,-1.45071l-0.107,0.08598c0,0 -0.74856,0.04655 -0.79513,-0.70199z" fill="#515151"/><path d="M224.92967,232.62079c-0.20271,0.04798 -0.66118,0.0882 -0.87636,-0.44455c-0.28089,-0.69541 0.41452,-0.9763 0.41452,-0.9763l0.56415,-0.09203c2.73091,0.62456 4.02509,3.53121 3.84628,6.19697c0,0 -0.05976,0.7476 -0.80737,0.68785c-0.74761,-0.05975 -0.68785,-0.80738 -0.68785,-0.80738c0.16895,-1.73369 -0.65705,-4.0945 -2.45336,-4.56457z" fill="#515151"/><path d="M242.6158,224.00549c0.73444,0.15204 0.5824,0.88646 0.5824,0.88646l-0.14245,0.06674c0.70178,1.80297 0.83454,3.57763 1.59524,5.46091c0,0 0.28089,0.69541 -0.41451,0.9763c-0.69542,0.28089 -0.9763,-0.41452 -0.9763,-0.41452c-0.74048,-1.83325 -0.87423,-3.75846 -1.59524,-5.46091l0.06442,-0.93259c0,0 0.15203,-0.73444 0.88646,-0.5824z" fill="#515151"/><path d="M252.2023,218.15515c0.05977,-0.74761 0.80738,-0.68785 0.80738,-0.68785l0.75207,0.21059c1.59551,1.41201 2.60521,2.84699 3.97876,4.45149c0,0 0.48639,0.57089 -0.08451,1.05728c-0.5709,0.48638 -1.05728,-0.08451 -1.05728,-0.08451c-1.34222,-1.58233 -2.26784,-2.9239 -3.82973,-4.29979l0.12117,0.16016c0,0 -0.74762,-0.05976 -0.68786,-0.80737z" fill="#515151"/><path d="M278.81334,250.76373c-0.17257,0.2962 -0.40164,0.37812 -0.59951,0.37978c-1.38708,1.13658 -3.04753,2.6009 -3.1175,4.43698c0,0 -0.04789,0.74847 -0.79636,0.70058c-0.74847,-0.0479 -0.70058,-0.79637 -0.70058,-0.79637c0.2031,-2.47765 2.12608,-4.24353 3.96944,-5.75087l0.97405,0.00428c0,0 0.64803,0.37756 0.27046,1.02559z" fill="#515151"/><path d="M250.40039,254.20466c2.49205,0.19921 2.29285,2.69126 2.29285,2.69126l-0.10882,0.85535c-3.34235,12.03761 -15.23415,15.81323 -26.30424,16.78409c-3.01665,0.26457 -5.36607,2.31834 -8.56392,1.74916c-1.71181,-0.30469 -4.63043,-2.56172 -6.05075,-3.56312c0,0 -2.04109,-1.44359 -0.59751,-3.48468c1.44358,-2.04109 3.48467,-0.59752 3.48467,-0.59752c1.33463,0.94717 2.47835,2.39692 4.08062,2.73013c1.91528,0.39831 5.21165,-1.60966 7.17388,-1.81154c8.67876,-0.89292 19.4558,-3.10902 21.94481,-13.09011l-0.04282,0.02982c0,0 0.1992,-2.49205 2.69125,-2.29284z" fill="#a1a1a1"/><path d="M208.60644,258.66497c-0.00287,-0.08277 -0.0074,-0.16577 -0.01331,-0.24898c-0.1017,-0.34988 -0.20169,-0.69998 -0.3006,-1.04993c0,0 -0.70884,-2.52946 0.73451,-4.43531c1.92359,-3.88055 5.67827,-5.01162 9.50355,-6.44522c0.7197,-1.27927 2.45664,-1.41912 4.02027,-1.75166c5.92412,-2.69922 12.73625,-5.67758 18.44023,-2.00338c1.31028,0.84402 2.06803,2.33239 3.10205,3.49859c1.61133,2.77882 4.96105,8.45645 4.65882,11.54707c-0.21461,2.1946 -1.52413,4.24692 -2.97208,5.90997c-0.51811,0.59508 -4.86606,2.28758 -6.10359,2.78743c-5.06304,2.04505 -9.91967,4.03568 -15.17154,5.30539c-1.2154,0.29384 -2.3054,1.32096 -3.55085,1.20964c-2.45504,-0.21944 -5.08193,-0.70513 -7.0722,-2.15917c-1.47405,-1.07692 -1.73669,-3.21302 -2.53101,-4.85669c-0.8069,-1.66969 -1.45709,-3.40784 -2.02848,-5.17087c-0.60432,-1.08492 -0.71578,-2.13693 -0.71578,-2.13693z" fill="#828282"/><path d="M217.27663,272.51737c-0.78876,-0.48423 -0.46788,-1.43733 -0.46788,-1.43733c3.56401,-10.37875 11.5813,-16.14244 21.33056,-20.08035c1.22461,-0.46573 3.75804,-1.05085 5.04958,-0.748c2.70023,0.63316 6.71349,4.0876 5.79231,7.11367c-0.55575,1.82563 -2.25206,5.31033 -3.51822,6.72153c-2.05563,2.29113 -6.61707,3.2214 -9.40789,4.34866c-2.45609,0.99206 -5.34368,2.74217 -7.94717,3.17395c-0.89596,0.14859 -1.84743,-0.15198 -2.72314,0.08875c-2.60869,0.7171 -4.29718,2.31654 -7.10623,1.82431l-0.97767,-0.93424c0,0 -0.01038,-0.02568 -0.02421,-0.07094z" fill="#707070"/><path d="M200.74783,270.17946c2.49965,-0.04176 2.54142,2.45788 2.54142,2.45788l0.03836,2.77999c-0.16335,1.05628 -0.1331,2.16137 -0.4901,3.16884c-2.43036,6.85862 -9.59861,7.48333 -15.79217,8.01343c0,0 -2.49088,0.2132 -2.70407,-2.2777c-0.2132,-2.49089 2.27769,-2.70409 2.27769,-2.70409c5.07404,-0.43428 10.92644,-0.40584 11.71881,-6.51897l-0.04781,-2.37796c0,0 -0.04175,-2.49965 2.45789,-2.54142z" fill="#a1a1a1"/><path d="M179.02267,268.87591c-1.40132,-4.3034 2.92994,-6.05287 2.92994,-6.05287c2.69952,-1.09038 8.45099,-4.11399 11.1137,-2.9096c2.15377,0.97418 3.72477,5.29257 4.68886,7.69816c0.81632,2.03688 2.75352,3.87989 2.55853,6.06556c-0.57384,6.43229 -4.2907,7.97327 -9.67431,8.73711c-2.02269,0.28698 -4.33549,1.691 -6.09412,0.65138c-3.73695,-2.20911 -3.0547,-7.27473 -4.48328,-10.61903l-0.66895,-1.65615c0,0 -0.33222,-0.82249 -0.37036,-1.91453z" fill="#828282"/><path d="M186.63583,284.26394l-1.50618,-0.69827c-0.21749,0.11588 -0.50388,0.16837 -0.87741,0.07841c-1.21524,-0.29272 -0.92253,-1.50796 -0.92253,-1.50796c1.16996,-4.64499 6.71357,-7.75816 10.9325,-9.4746c1.12391,-0.45727 4.32801,-2.23025 5.44622,-1.37738c0.70729,0.53947 0.53496,1.72617 0.52904,2.61571c-0.01692,2.54403 -2.35245,4.83242 -3.81039,6.62644c-2.72863,1.56721 -5.91674,2.92284 -9.02481,3.59935c-0.21159,0.20058 -0.43635,0.29136 -0.43635,0.29136l-0.30715,-0.14238c-0.00673,0.00123 -0.01346,0.00244 -0.02018,0.00367z" fill="#707070"/><path d="M197.84606,266.14154c2.04035,1.44466 0.5957,3.485 0.5957,3.485l-1.61319,2.26438c-0.75644,0.75513 -1.38559,1.66415 -2.26928,2.2654c-6.01603,4.09323 -12.16575,0.35757 -17.47356,-2.87793c0,0 -2.13467,-1.30123 -0.83344,-3.4359c1.30123,-2.13466 3.43589,-0.83342 3.43589,-0.83342c4.34839,2.65067 9.05076,6.13478 13.3051,1.67395l1.3678,-1.94579c0,0 1.44464,-2.04035 3.48499,-0.59569z" fill="#a1a1a1"/><path d="M249.53795,280.95137c-0.20734,-0.10322 -0.39477,-0.22789 -0.55987,-0.3695c-0.17929,-0.03275 -0.35694,-0.08561 -0.52976,-0.15942c-0.09473,-0.04046 -0.18801,-0.08722 -0.27931,-0.14042c-1.19299,-0.69508 -1.59663,-2.22567 -0.90155,-3.41866c0.60552,-1.03927 1.84508,-1.4795 2.94317,-1.11618c0.74063,-0.04827 1.54799,-0.03335 2.60216,-0.23269c0.94752,-0.17918 3.06476,-0.73468 4.0867,-0.27419c0.70902,0.31949 1.33673,0.65533 1.88444,1.00199c-0.01245,0.09618 -0.02346,0.19243 -0.03307,0.28871c-0.19461,0.49117 -0.36429,0.9823 -0.50665,1.47263c-0.59287,2.04196 -1.00394,3.96941 -1.25187,5.84312c-0.29692,0.0695 -0.60766,0.13221 -0.93208,0.18764c-1.96517,0.33569 -4.08371,-1.15973 -5.49058,-2.40971c-0.15346,-0.05265 -0.30404,-0.12111 -0.44959,-0.20591l-0.00001,-0.00001c-0.22206,-0.12938 -0.41676,-0.2877 -0.58211,-0.4674z" fill="#707070"/><path d="M247.42042,273.98173c1.02963,-0.35694 1.96479,-1.48399 3.02617,-1.23699c0.54246,0.12624 0.96478,0.42699 1.33774,0.79853c-1.91805,-0.1318 -3.52078,0.5369 -5.17856,1.18402z" fill="#717171"/><path d="M201.97088,261.94738c0.19807,-0.05174 0.40172,-0.12894 0.61582,-0.24238zM201.8726,261.9711c0.01657,-0.1433 0.18039,-1.22385 1.34402,-1.13082c1.24601,0.0996 1.14642,1.34562 1.14642,1.34562l-0.84004,1.83715c-1.97903,0.68484 -2.57625,-0.24139 -4.27432,0.59755c0,0 -0.05492,0.0222 -0.14569,0.04495c-0.00977,0.77763 -0.03807,1.55202 0.5607,1.86992c0.56277,0.29879 2.67206,0.04705 3.29927,-0.05023l1.59345,1.41685c0,0 0.46815,1.15902 -0.69088,1.62717c-0.83118,0.33572 -1.30704,-0.16537 -1.50976,-0.47572c-1.3859,0.0974 -3.36753,0.08796 -4.1717,-0.50295c-2.6484,-1.9461 -0.56721,-7.03876 -3.03896,-8.51743c0,0 -0.03662,-0.025 -0.09137,-0.07249c-0.60414,-0.00209 -1.1829,-0.09996 -1.62986,-0.40025c-0.79103,-0.53145 -0.41025,-1.98551 -1.1066,-2.6361c-2.37037,-2.21463 -5.12079,3.44579 -7.40403,3.06408c-1.9269,-0.32213 -1.35004,-2.37766 -2.58678,-3.22715c-0.28064,-0.19278 -0.63653,0.29592 -0.977,0.29793c-1.24827,0.00735 -2.41887,-0.71156 -3.66605,-0.76443c-1.2955,-0.05492 -2.56808,0.38263 -3.86216,0.46452c0,0 -1.24759,0.07762 -1.3252,-1.16997c-0.07762,-1.24759 1.16997,-1.3252 1.16997,-1.3252c1.353,-0.08263 2.6851,-0.52608 4.03943,-0.46924c1.26667,0.05316 2.45904,0.70792 3.7255,0.76566c0.62444,0.02847 1.33664,-0.4222 1.87253,-0.10042c1.09266,0.65605 1.01799,2.7099 2.22926,3.10631c0.81268,0.26597 1.04774,-1.35837 1.65739,-1.95798c1.13463,-1.11593 1.91958,-1.3988 3.50499,-1.40311c0.40598,-0.0011 3.04629,0.64567 3.22408,0.79971c0.68631,0.59465 0.24806,2.00859 0.98424,2.54028c0.56472,0.40785 1.37804,-0.20485 2.06734,-0.30524l1.0504,0.0541c0,0 1.24602,0.0996 1.14642,1.34563c-0.06948,0.86927 -0.69694,1.08364 -1.07002,1.13379c0.34082,0.74871 0.43315,1.53755 0.59516,2.40964c1.34419,-0.36528 2.20323,0.00446 3.17981,-0.21215z" fill="#717171"/><path d="M194.04082,245.82839c-0.8201,0.29102 -2.86469,1.39957 -3.74441,1.03505c-1.44772,-0.59988 -1.05492,-3.2351 -3.58582,-2.78474c-2.8751,0.51161 -3.70397,2.33908 -7.00949,1.55649c0,0 -1.21147,-0.30796 -0.90351,-1.51943c0.30796,-1.21147 1.51943,-0.90351 1.51943,-0.90351c2.73103,0.76134 3.54107,-1.24112 6.03539,-1.60774c2.41026,-0.35427 4.39633,1.17238 5.02314,3.00385c0.05385,0.15735 0.05707,-0.37029 0.19853,-0.45774c0.50687,-0.31327 1.08125,-0.51081 1.65097,-0.68538c1.02949,-0.31545 2.25306,-0.18508 2.11842,-0.79128c0.7688,0.2337 1.53984,0.45105 2.33498,0.52508c-0.14988,1.27948 -1.47391,1.86151 -3.63763,2.62935z" fill="#717171"/><path d="M190.42067,256.60521c0.30796,-1.21147 1.51943,-0.90351 1.51943,-0.90351l1.01449,0.25789c0.14097,0.03655 0.31146,0.07279 0.49455,0.11474c-0.33318,-1.09823 -0.66362,-2.46633 -0.01113,-3.38535c0.17565,-0.24739 0.78628,-0.23743 1.48062,-0.13182c-0.43856,1.50827 -1.091,3.0089 -1.09448,4.57783c-0.00116,0.52489 -0.01654,1.06619 -0.02654,1.6127c-0.56606,-0.12184 -1.09198,-0.27345 -1.45897,-0.36517l-1.01449,-0.25789c0,0 -1.21147,-0.30796 -0.90351,-1.51943z" fill="#717171"/><path d="M218.51384,267.14153c0.32112,0.41163 0.33621,0.78545 0.24487,1.08125c-0.56556,-0.55859 -1.1617,-1.03432 -1.84326,-1.39723c0.30817,-0.17006 1.01555,-0.43114 1.59839,0.31598z" fill="#717171"/><g><path d="M221.01327,272.64467c-1.77254,-1.32564 -3.48604,-4.1024 -3.38894,-6.27248c0.02063,-0.46102 0.77551,-0.6134 0.88994,-1.06046c0.28358,-1.10797 -1.67493,-2.14213 -2.29378,-2.46096l-0.07872,-0.12858l-0.03482,0.03945l-0.9738,-0.85973c-0.14984,-0.12681 -0.27195,-0.29089 -0.35058,-0.48556c-0.25854,-0.64011 0.05075,-1.36862 0.69087,-1.62718c0.17125,-0.06917 0.34883,-0.0977 0.52204,-0.09012l1.41244,0.02969c0.01373,-0.00117 0.02784,-0.00081 0.04225,0.00089l0.02067,0.00043l-0.00006,0.00281c0.21356,0.04201 0.48406,0.33955 0.57173,0.16179c0.91024,-1.84571 0.05003,-7.12222 2.56385,-8.1376c0.22067,-0.08913 3.65368,1.69993 3.96226,1.26979c0.46787,-0.65217 -0.1364,-2.40009 -0.46456,-3.06662l-0.85451,-0.48042c-0.24296,-0.13387 -0.44312,-0.34906 -0.55511,-0.62633c-0.25854,-0.64011 0.05075,-1.36861 0.69087,-1.62717c0.24355,-0.09837 0.49989,-0.11454 0.73827,-0.06156l1.37714,0.28508l-0.0099,0.04784c0.06483,0.00028 0.12972,0.00207 0.19468,0.00552c1.00216,0.0533 2.70326,2.01458 3.58372,1.92338c1.55679,-0.16124 2.88922,-2.5083 4.22147,-3.29818l0.09402,-0.00384l-0.01302,-0.03225l1.28118,-0.51749c0.64011,-0.25856 1.36863,0.05076 1.62718,0.69087c0.18688,0.46268 0.07707,0.97156 -0.23989,1.31574l-0.85846,0.97235l-0.19978,-0.17638c-0.14159,0.44982 -0.12954,0.85196 0.21665,1.14153c0.23029,0.19262 0.55356,0.33382 0.8177,0.50894c0.0992,-0.364 0.36138,-0.67907 0.73819,-0.83126c0.53861,-0.21755 1.13982,-0.03305 1.47097,0.41227l0.86657,1.11155l-0.01581,0.01232c0.03882,0.04271 0.07646,0.08662 0.11287,0.13184c0.46018,0.5716 2.23811,4.37825 2.33656,5.33721c0.02121,0.20658 0.04885,0.57135 0.02476,0.96241c0.81859,-0.94567 2.16705,-2.39221 3.58502,-1.25446c0.10005,0.0803 -0.02959,3.40254 0.06723,4.11702c0.22415,1.65418 1.08997,3.35858 -0.13405,4.93568c-1.3043,1.68054 -5.22296,2.71293 -7.13738,3.4862c-4.27704,1.72758 -10.24992,5.48892 -14.84254,4.966l-0.99984,0.08652c0,0 -1.02732,0.06391 -1.27549,-0.85647z" fill="#ee0000"/><path d="M223.59764,272.91931c-1.10191,-0.8316 -2.68687,-4.37647 -2.92187,-5.44064c-0.24104,-1.0915 0.47169,-2.4973 1.55943,-2.93667c0.72067,-0.29109 2.54259,0.13861 2.25731,-0.5844c-0.28499,-0.72224 -0.83423,-3.72128 1.21032,-2.85319c0.49387,0.20969 2.42275,3.7403 1.67453,4.83652c-0.38307,0.56125 -4.29751,0.90678 -4.20951,1.13196c0.76561,1.95905 1.66086,2.95869 2.89143,4.40309c0.09351,0.1047 0.17084,0.22705 0.22645,0.3647c0.0495,0.12254 0.07819,0.24835 0.08772,0.37345c0.09355,0.62105 -0.14977,0.96728 -0.53625,1.12347c-0.07425,0.05118 -0.15524,0.09506 -0.24235,0.13025c-0.42814,0.17293 -0.89582,0.09183 -1.23597,-0.17239c-0.29279,-0.09359 -0.56187,-0.22568 -0.76123,-0.37615z" fill="#dd0000"/><path d="M238.4384,257.23215c2.50738,2.59086 1.8962,5.06175 2.57997,7.8674c0.21291,0.87362 1.05235,2.39035 -0.69601,2.63477c-2.80454,0.39209 -1.24201,-3.76337 -1.76986,-5.01571c-0.33553,-0.79605 -1.27002,-2.35503 -1.76896,-3.32545c-0.09727,-0.18918 -0.54071,-0.00666 -0.98593,0.18607c-0.09517,0.07778 -0.20349,0.14275 -0.32346,0.19121c-0.13489,0.05448 -0.2737,0.08375 -0.41121,0.09001c-0.51506,0.02348 -1.01189,-0.27566 -1.21596,-0.78089c-0.25855,-0.64011 0.05075,-1.36861 0.69086,-1.62717c0.14579,-0.0589 0.29618,-0.08832 0.44456,-0.09109c1.02572,-0.79001 2.50773,-1.109 3.45599,-0.12916z" fill="#dd0000"/><path d="M229.19575,272.47393c-0.31367,0.60582 -1.07506,0.63182 -1.07506,0.63182c-0.76715,-0.03841 -1.6602,0.30761 -2.30147,-0.11522c-1.32894,-0.87629 -2.18832,-4.19219 -2.80003,-5.65046l0.02504,-0.17094l-0.05871,0.00811l-0.18842,-1.36445c-0.09466,-0.61312 0.27934,-1.21543 0.89133,-1.39083c0.42371,-0.12143 0.85904,-0.0089 1.16795,0.26107l1.07055,0.90845l-0.0343,0.04042c0.86374,0.28397 1.27623,0.02458 0.62293,-1.86467c-0.1212,-0.35047 -0.36334,-0.64586 -0.55443,-0.96449l-1.18007,-0.93766c-0.20282,-0.15709 -0.35928,-0.37782 -0.43539,-0.64333c-0.1902,-0.66363 0.19359,-1.35582 0.85723,-1.54601c0.2525,-0.07235 0.50911,-0.06164 0.74065,0.01597l1.33979,0.42751l-0.08996,0.28195c0.34624,0.06174 0.68466,0.14867 1.00935,0.26887l0.11718,-0.0015c-0.27421,-2.08015 1.46451,-4.29124 3.46164,-5.27702c0.93009,-0.45908 2.07403,-1.38235 2.9835,-0.88368c0.81595,0.4474 0.33965,1.83198 0.43431,2.75772c0.04622,0.45192 -0.55966,1.7117 -0.32296,1.32398c1.87278,-3.06753 4.29459,1.97727 4.88851,3.665c0.66933,1.90198 0.38321,3.03636 -0.37897,4.1496l0.11553,0.6792l-0.32596,0.05544l0.23377,0.66664c-0.64471,0.47436 -1.1458,1.28455 -1.93415,1.42307c-0.08637,0.01518 -0.17271,0.02493 -0.25903,0.02996l0.00455,0.03294l-1.00824,0.13923c-0.14775,0.08114 -0.28889,0.16021 -0.41682,0.23801c-1.4552,0.88497 -4.21033,2.47162 -6.59987,2.80536zM232.60468,257.9218c-0.01216,0.00978 -0.0243,0.01955 -0.03643,0.0293c0.01169,0.00566 0.02333,0.01152 0.03493,0.0176c0.00043,-0.01565 0.00092,-0.03128 0.00152,-0.04689z" fill="#ffde00"/><path d="M235.6452,255.85987c0.29954,1.21358 -0.91404,1.51311 -0.91404,1.51311l-0.20166,-0.02363c-1.63732,1.07455 -2.53451,1.91089 -3.4988,3.64007c0,0 -0.61258,1.08958 -1.70218,0.477c-1.0896,-0.61259 -0.47701,-1.70219 -0.47701,-1.70219c1.16097,-2.05044 2.35413,-3.22113 4.30527,-4.50431l0.97529,-0.31411c0,0 1.21359,-0.29953 1.51313,0.91404z" fill="#ffe850"/><path d="M225.03238,259.93417c1.02987,-0.70843 1.7383,0.32144 1.7383,0.32144l-0.38711,0.12483c0.96617,0.15312 1.93922,0.26731 2.91438,0.34465c0,0 1.24602,0.09962 1.14642,1.34563c-0.0996,1.24601 -1.34562,1.14642 -1.34562,1.14642c-1.03883,-0.08364 -2.07539,-0.2054 -3.10493,-0.36726l-1.28289,-1.17742c0,0 -0.70843,-1.02987 0.32143,-1.73829z" fill="#ffe850"/><path d="M238.3255,263.05317c-1.15902,0.46814 -1.62718,-0.69087 -1.62718,-0.69087l-0.12681,-0.32134c-0.29939,-0.64613 -0.7296,-1.24401 -1.24295,-1.73757c0,0 -0.88686,-0.8809 -0.00597,-1.76775c0.88089,-0.88685 1.76776,-0.00597 1.76776,-0.00597c0.69604,0.70783 1.28898,1.53439 1.73179,2.42287l0.19423,0.47346c0,0 0.46814,1.15903 -0.69088,1.62717z" fill="#ffe850"/><path d="M226.52687,267.89563c-0.23821,0.14167 -0.45504,0.19912 -0.64822,0.20271c0.08695,0.36868 0.06691,0.90458 -0.56473,1.29933c-1.06003,0.66244 -1.72248,-0.39759 -1.72248,-0.39759c-1.47343,-2.56178 -1.36789,-3.98955 1.74644,-4.39756l1.6244,1.57982c0,0 0.63895,1.07435 -0.43541,1.7133zM225.24058,267.13595l0.04476,-0.034c-0.61653,-0.45703 -0.39355,-0.31289 -0.04476,0.034z" fill="#ffe850"/><path d="M239.16192,266.82161c0.46814,1.15903 -0.69088,1.62717 -0.69088,1.62717l-0.6338,0.22983c-4.28163,0.70732 -6.49696,5.07072 -11.44432,4.03927c0,0 -1.21941,-0.27481 -0.9446,-1.49423c0.27481,-1.21941 1.49423,-0.9446 1.49423,-0.9446c3.92086,0.98112 6.83076,-3.31945 10.43119,-4.05708l0.161,-0.09122c0,0 1.15902,-0.46816 1.62718,0.69087z" fill="#f5d400"/></g><path d="M209.55418,268.95218c0.48648,1.15145 -0.66497,1.63793 -0.66497,1.63793l-1.82155,0.40786c-0.82802,-0.33236 -1.65603,-0.66472 -2.48405,-0.99706c-0.25,-0.47033 -1.07805,-3.33264 -1.50614,-3.39921c-2.44809,-0.38064 -4.53457,2.40433 -6.98663,0.99116c-3.43742,-1.98105 0.54508,-4.56143 -1.96239,-6.86032c-0.53062,-0.48648 -4.13639,0.6405 -4.98836,0.29941c-0.71104,-0.28467 -0.8969,-1.50524 -1.43419,-1.96301c-0.0602,-0.81149 -0.27962,-1.67942 -0.70612,-2.6433c0.18693,-0.02372 0.37488,-0.02919 0.5643,-0.00794c1.21087,0.13584 1.67425,1.83658 2.75074,2.40743c0.89392,0.47405 2.58666,-0.88029 3.2395,-0.87303c4.21231,0.04682 3.9839,4.72519 3.33067,7.26148c-0.0927,0.35992 0.7375,0.30481 1.09581,0.20603c1.36146,-0.37534 2.61418,-1.19268 4.01848,-1.34234c3.40507,-0.36289 3.36637,1.69612 4.25451,4.06341c0.55523,0.16896 1.11046,0.33794 1.6657,0.5069l-0.00323,-0.36037c0,0 1.15145,-0.48648 1.63792,0.66497z" fill="#717171"/><path d="M194.71093,275.83062c0.15434,-2.60667 2.4013,-2.24755 3.52817,-3.83705c0.31859,-0.4494 -0.95283,-0.59481 -1.29535,-1.02624c-1.55616,-1.96014 -1.6996,-2.98638 -0.66285,-5.16442c0,0 0.62928,-1.08005 1.70933,-0.45078c1.08005,0.62928 0.45078,1.70933 0.45078,1.70933c-1.61317,1.81229 2.81117,3.00402 2.25364,5.40148c-0.23436,1.00781 -3.52382,2.71367 -3.48712,3.49833c0.02468,0.52761 0.50704,1.06945 1.06409,1.62891c-1.12268,-0.37605 -2.33846,-0.46966 -3.48349,-0.77972c-0.06837,-0.29199 -0.09868,-0.61697 -0.0772,-0.97983z" fill="#717171"/><path d="M204.26861,230.60205c-0.0996,1.24601 -1.34562,1.14642 -1.34562,1.14642l-0.82097,-0.07824c-0.92735,0.05576 -2.2216,0.20289 -3.13567,-0.03807c-0.78628,-0.20728 -1.94227,-0.15462 -2.26731,-0.89996c-0.34805,-0.7981 0.39986,-1.71115 0.78894,-2.49008c0.53996,-1.08096 2.35272,-3.16782 4.00285,-4.38053c-0.00481,-0.00535 -0.00958,-0.01071 -0.01432,-0.01612c-2.74505,-3.12997 1.41318,-6.37852 4.13515,-8.09227c-0.03172,-0.08999 -0.06488,-0.17766 -0.09969,-0.26271c-0.24931,-0.60931 0.02012,-1.74585 -0.62577,-1.87327c-0.25124,-0.04957 0.02838,0.55068 -0.12104,0.75863c-0.30686,0.42706 -0.78353,0.70161 -1.178,1.04935c-1.99735,1.76075 -1.96356,2.09886 -4.61398,2.84501c-0.94573,0.26624 -1.95601,0.73194 -2.90716,0.48579c-0.53158,-0.13756 -0.4293,-1.03265 -0.79359,-1.44349c-0.33068,-0.37293 -4.40528,0.09861 -4.92668,0.3392c0,0 -1.15902,0.46815 -1.62717,-0.69088c-0.46815,-1.15903 0.69087,-1.62718 0.69087,-1.62718c1.74708,-0.64803 5.89814,-1.09631 7.54663,0.1308c0.28592,0.21283 -0.1223,0.92628 0.21273,1.04792c0.36614,0.13293 0.6445,-0.44413 0.99768,-0.60845c2.0206,-0.94018 3.12819,-1.88061 4.82827,-3.29323c0.61299,-0.50934 1.0757,-1.58667 1.8672,-1.49339c2.08894,0.24617 3.64457,4.44736 3.98193,6.04066c0.18756,0.8858 -0.27056,1.82028 -0.12248,2.71353c0.06864,0.41412 0.82979,-0.2228 1.1674,-0.4722c0.45317,-0.33477 0.82098,-0.77179 1.23149,-1.15769l0.57366,-0.48986c0,0 0.9515,-0.81064 1.76215,0.14086c0.81063,0.95149 -0.14087,1.76215 -0.14087,1.76215l-0.50432,0.42853c-0.52907,0.4766 -0.97238,1.07062 -1.58723,1.42979c-3.8545,2.2516 -4.47748,-0.42601 -5.00829,-3.1866c-1.8063,1.20236 -4.10121,3.09596 -2.38634,4.1218l1.29776,-0.13752c0.55038,-0.07104 1.10068,0.23336 1.31824,0.77198c0.25856,0.64012 -0.05076,1.36862 -0.69088,1.62717l-1.2457,0.50315l-0.0573,-0.14186c-0.98185,0.79639 -1.97181,1.54097 -2.98433,2.47279c-0.1895,0.1744 -0.85594,1.0373 -1.46576,1.6293c0.82544,-0.05232 1.83585,0.0088 1.94568,0.00171l1.17541,0.08136c0,0 1.24603,0.09961 1.14643,1.34564z" fill="#717171"/><path d="M252.4872,210.92029c-0.17307,-1.23796 1.06489,-1.41103 1.06489,-1.41103l0.61925,-0.04889c1.98753,-0.00079 -0.66369,-0.71817 -0.04204,-2.8358c0.22578,-0.7691 1.3247,-1.6491 2.24083,-2.31424c-0.03186,-0.09506 -0.06243,-0.18881 -0.09168,-0.28097c-0.65101,-0.03087 -1.21336,-0.37438 -2.03798,-0.11545c-1.29422,0.40636 -3.15017,2.20561 -4.48059,1.71892l0.08596,1.31189c0,0 0.07761,1.24758 -1.16998,1.3252c-1.24758,0.07761 -1.3252,-1.16998 -1.3252,-1.16998l-0.07592,-1.3017c-0.00195,-0.87724 -0.00389,-1.7545 -0.00584,-2.63174c2.6814,0.07912 5.51315,-1.98203 8.10382,-1.99789c-0.06473,-0.34278 -0.0242,-0.63789 0.25217,-0.81401c0.97413,-0.62078 2.77623,-0.44094 3.42712,0.51333c0.40094,0.58782 -0.09434,1.37832 -0.68124,2.00017c0.10234,0.21577 0.1898,0.44403 0.27328,0.68031c0.1357,0.08317 0.26979,0.2051 0.39578,0.37832c0.33643,0.46252 0.30728,0.86736 0.17669,1.17047c0.22095,0.48182 0.51191,0.95833 0.95094,1.39727c0.34019,0.34014 0.35617,-0.89676 0.59078,-1.31674c0.41854,-0.74929 0.62116,-1.68909 1.28791,-2.22951c1.59067,-1.28931 4.76962,0.09251 6.62346,0.01274c0,0 1.24923,-0.04388 1.29311,1.20536c0.04387,1.24922 -1.20535,1.2931 -1.20535,1.2931c-0.90355,0.02571 -1.81331,0.18601 -2.71062,0.07714c-0.84371,-0.10238 -1.96046,-1.28199 -2.47647,-0.60666c-0.9341,1.2225 -1.20907,4.55786 -3.75059,4.04029c-1.04886,-0.2136 -1.90046,-1.26975 -2.54567,-2.49998c-0.3401,0.20538 -0.61941,0.45456 -0.73532,0.82126c-0.32902,1.04099 1.39219,2.16498 0.91231,3.14559c-0.39563,0.80844 -1.56224,0.89426 -2.34337,1.34139l-1.20942,0.20676c0,0 -1.23796,0.17306 -1.41103,-1.0649z" fill="#717171"/><g><path d="M168.48145,242.54945c-1.11222,-1.91368 -1.60215,-5.13958 -0.66338,-7.09851c0.19944,-0.41616 0.95372,-0.26089 1.23401,-0.62751c0.69464,-0.90856 -0.70282,-2.62682 -1.14749,-3.16244l-0.02211,-0.14914l-0.04748,0.02266l-0.5596,-1.1723c-0.08826,-0.17535 -0.13639,-0.37411 -0.13255,-0.58402c0.01263,-0.69024 0.5824,-1.23955 1.27265,-1.22692c0.18467,0.00338 0.35925,0.04662 0.51567,0.1214l1.28811,0.58017c0.01309,0.00429 0.02594,0.01015 0.03855,0.01736l0.01886,0.00849l-0.00116,0.00257c0.18007,0.12225 0.31253,0.50193 0.46279,0.37267c1.56005,-1.34215 2.83379,-6.53438 5.54448,-6.48479c0.23795,0.00436 2.69678,2.99442 3.14911,2.71938c0.68582,-0.417 0.81392,-2.26198 0.77282,-3.00377l-0.59828,-0.77656c-0.17118,-0.21829 -0.27114,-0.49465 -0.26567,-0.79363c0.01263,-0.69024 0.5824,-1.23955 1.27265,-1.22693c0.26262,0.00481 0.50483,0.09026 0.70346,0.23231l1.15569,0.80138l-0.02785,0.04015c0.05955,0.02564 0.11856,0.05267 0.177,0.08129c0.90133,0.44132 1.69903,2.91195 2.54493,3.17265c1.49568,0.46097 3.64051,-1.17728 5.17564,-1.38268l0.08802,0.03327l0.00064,-0.03478l1.38152,0.02528c0.69025,0.01262 1.23955,0.58243 1.22693,1.27266c-0.00913,0.49892 -0.30937,0.92422 -0.73576,1.11687l-1.17055,0.55874l-0.11481,-0.24049c-0.30636,0.35849 -0.45267,0.73328 -0.24746,1.13525c0.13651,0.26738 0.37873,0.52387 0.55325,0.78839c0.23374,-0.29614 0.59834,-0.48344 1.00467,-0.476c0.58078,0.01063 1.0618,0.41572 1.19223,0.95514l0.36235,1.36204l-0.01938,0.00515c0.01899,0.0545 0.03646,0.10963 0.05227,0.1655c0.19973,0.70611 0.3458,4.90497 0.06106,5.82596c-0.06134,0.1984 -0.1787,0.54487 -0.35393,0.8953c1.12344,-0.54981 2.93051,-1.35311 3.79,0.24888c0.06064,0.11304 -1.35905,3.11947 -1.54962,3.81483c-0.44119,1.60993 -0.3116,3.51725 -2.05526,4.48941c-1.85804,1.03593 -5.86813,0.45213 -7.93248,0.41436c-4.612,-0.08437 -11.58057,1.03895 -15.60208,-1.23988l-0.95392,-0.31173c0,0 -0.97036,-0.34329 -0.83848,-1.28739z" fill="#ee0000"/><path d="M170.75212,243.81375c-0.68849,-1.19656 -0.75946,-5.07898 -0.55919,-6.15023c0.20542,-1.09876 1.41155,-2.11342 2.58448,-2.09197c0.77712,0.01423 2.28548,1.12276 2.30595,0.34579c0.02044,-0.77616 0.68891,-3.75091 2.23056,-2.15181c0.37239,0.38626 0.76541,4.39019 -0.35218,5.10608c-0.5722,0.36653 -4.30956,-0.8477 -4.31672,-0.60603c-0.06228,2.10243 0.37027,3.37271 0.93729,5.18354c0.04506,0.13295 0.06834,0.27581 0.06563,0.42425c-0.00242,0.13215 -0.02525,0.25912 -0.06545,0.37797c-0.15702,0.60811 -0.51644,0.83148 -0.93322,0.82394c-0.08837,0.01802 -0.18006,0.02671 -0.27398,0.025c-0.46166,-0.00844 -0.86029,-0.26614 -1.06989,-0.64243c-0.2328,-0.20073 -0.42871,-0.4276 -0.55327,-0.6441z" fill="#dd0000"/><path d="M190.54902,235.18718c1.29321,3.36558 -0.23637,5.40008 -0.70533,8.24952c-0.14603,0.88725 0.03276,2.61154 -1.67176,2.15211c-2.73423,-0.73694 0.33015,-3.94924 0.33461,-5.30828c0.00283,-0.86387 -0.24688,-2.66424 -0.32618,-3.75253c-0.01547,-0.21215 -0.49498,-0.21776 -0.98011,-0.21466c-0.11801,0.03432 -0.24313,0.0517 -0.37249,0.04934c-0.14545,-0.00266 -0.28465,-0.03006 -0.41364,-0.07812c-0.48316,-0.17998 -0.82325,-0.64974 -0.81328,-1.19454c0.01263,-0.69024 0.58241,-1.23955 1.27266,-1.22692c0.15722,0.00288 0.30712,0.03467 0.44474,0.0902c1.25312,-0.3255 2.74174,-0.03894 3.23081,1.23388z" fill="#dd0000"/><path d="M176.07789,245.59512c-0.52577,0.4347 -1.23658,0.16062 -1.23658,0.16062c-0.6909,-0.33563 -1.64815,-0.36677 -2.07274,-1.00688c-0.87992,-1.32655 -0.37283,-4.71425 -0.36494,-6.29562l0.08995,-0.14749l-0.05719,-0.01553l0.36068,-1.32933c0.15287,-0.60127 0.73279,-1.00911 1.36461,-0.93098c0.43742,0.0541 0.79398,0.32805 0.97257,0.69739l0.62956,1.255l-0.04739,0.02378c0.68367,0.59941 1.16478,0.52216 1.3031,-1.47207c0.02566,-0.36995 -0.08153,-0.73655 -0.13265,-1.10456l-0.71891,-1.32475c-0.12516,-0.22394 -0.18273,-0.48829 -0.14884,-0.76241c0.08472,-0.68514 0.70884,-1.17187 1.39397,-1.08713c0.26068,0.03224 0.49262,0.14255 0.67532,0.30461l1.06555,0.91783l-0.19314,0.22422c0.29443,0.19233 0.57184,0.40481 0.82357,0.6425l0.10843,0.04446c0.56187,-2.02151 3.02732,-3.37562 5.25096,-3.50101c1.03555,-0.05839 2.44963,-0.46025 3.09134,0.35461c0.57573,0.73109 -0.40452,1.81876 -0.67975,2.7077c-0.13435,0.43394 -1.18502,1.35608 -0.81543,1.09194c2.92403,-2.08974 3.17799,3.50048 3.06393,5.28603c-0.12855,2.01221 -0.83585,2.9441 -1.97296,3.67019l-0.15955,0.67023l-0.32166,-0.07656l-0.04583,0.70496c-0.77893,0.18416 -1.55717,0.73357 -2.33685,0.55247c-0.08543,-0.01983 -0.16868,-0.04468 -0.25009,-0.07383l-0.00871,0.03211l-0.9823,-0.26653c-0.16773,0.01685 -0.32855,0.03436 -0.47672,0.05588c-1.6855,0.24477 -4.84184,0.62641 -7.17136,-0.00179zM184.91081,233.53837c-0.01502,0.00422 -0.03003,0.00849 -0.04501,0.01271c0.00853,0.00979 0.01697,0.01972 0.02524,0.02987c0.00651,-0.01424 0.0131,-0.02844 0.01976,-0.04256z" fill="#ffde00"/><path d="M188.51581,232.83106c-0.19939,1.234 -1.43337,1.03462 -1.43337,1.03462l-0.17631,-0.10066c-1.92727,0.34795 -3.08025,0.76637 -4.64443,1.98014c0,0 -0.9902,0.76289 -1.75308,-0.22732c-0.76289,-0.99021 0.22731,-1.7531 0.22731,-1.7531c1.87092,-1.43242 3.42711,-2.04268 5.72484,-2.45975l1.02043,0.09269c0,0 1.23399,0.19939 1.03462,1.43339z" fill="#ffe850"/><path d="M177.15501,232.42625c1.225,-0.24879 1.47379,0.97619 1.47379,0.97619l-0.40508,-0.03665c0.82915,0.51907 1.67987,1.00503 2.54695,1.45789c0,0 1.10762,0.57939 0.52824,1.68699c-0.57937,1.10763 -1.68699,0.52826 -1.68699,0.52826c-0.92319,-0.48359 -1.82939,-1.00136 -2.71344,-1.55329l-0.71968,-1.5856c0,0 -0.24879,-1.22499 0.97619,-1.47378z" fill="#ffe850"/><path d="M188.16668,240.49956c-1.24979,-0.02285 -1.22692,-1.27266 -1.22692,-1.27266l0.00908,-0.34533c-0.02259,-0.71176 -0.18445,-1.43035 -0.46366,-2.08545c0,0 -0.47129,-1.15774 0.68645,-1.62904c1.15775,-0.4713 1.62903,0.68645 1.62903,0.68645c0.36344,0.92379 0.58556,1.91648 0.64527,2.90739l-0.0066,0.51173c0,0 -0.02286,1.24979 -1.27266,1.22691z" fill="#ffe850"/><path d="M175.41398,240.33745c-0.27466,0.03713 -0.49666,0.00512 -0.67583,-0.06719c-0.0643,0.3733 -0.2925,0.85859 -1.02826,0.9746c-1.23475,0.19467 -1.42943,-1.04008 -1.42943,-1.04008c-0.35314,-2.93411 0.30284,-4.20664 3.3284,-3.3631l0.87642,2.08961c0,0 0.16744,1.23873 -1.07128,1.40618zM174.52769,239.13491l0.0545,-0.01375c-0.38844,-0.66189 -0.23969,-0.44197 -0.0545,0.01375z" fill="#ffe850"/><path d="M187.46132,244.29473c-0.02285,1.24979 -1.27266,1.22692 -1.27266,1.22692l-0.67318,-0.03659c-4.21687,-1.02502 -7.96335,2.12311 -12.11225,-0.76254c0,0 -1.01456,-0.7302 -0.28438,-1.74474c0.73019,-1.01456 1.74475,-0.28438 1.74475,-0.28438c3.224,2.43754 7.58505,-0.38092 11.18693,0.34957l0.18387,-0.02091c0,0 1.24979,0.02285 1.22692,1.27265z" fill="#f5d400"/></g><g><path d="M242.95018,224.89281c-2.04665,-0.84285 -4.39724,-3.10587 -4.84321,-5.23186c-0.09474,-0.45164 0.59848,-0.78708 0.59805,-1.24855c-0.00104,-1.14368 -2.1553,-1.65796 -2.83402,-1.81276l-0.10823,-0.10493l-0.02391,0.04686l-1.15711,-0.59036c-0.17669,-0.08554 -0.33576,-0.21407 -0.46037,-0.38305c-0.4097,-0.55563 -0.29142,-1.33819 0.26423,-1.74791c0.14866,-0.10962 0.31354,-0.18143 0.48319,-0.2172l1.37539,-0.32271c0.013,-0.00456 0.02677,-0.00772 0.04115,-0.00966l0.02014,-0.00473l0.00064,0.00274c0.21729,-0.01245 0.55333,0.20843 0.59401,0.01443c0.4223,-2.01415 -1.72388,-6.91064 0.45819,-8.51962c0.19154,-0.14123 3.96177,0.73724 4.15362,0.24385c0.29086,-0.74808 -0.72935,-2.29064 -1.21305,-2.85454l-0.94718,-0.25267c-0.26862,-0.0692 -0.51605,-0.22781 -0.69351,-0.46849c-0.4097,-0.55563 -0.29142,-1.33819 0.26422,-1.74791c0.21141,-0.15588 0.45565,-0.23533 0.69973,-0.24334l1.40478,-0.0666l0.00232,0.0488c0.06284,-0.01587 0.12615,-0.03027 0.18993,-0.04309c0.9839,-0.19774 3.11954,1.27853 3.94961,0.9711c1.46769,-0.54357 2.17417,-3.14836 3.26795,-4.24492l0.0901,-0.02712l-0.02065,-0.02799l1.11211,-0.82003c0.55565,-0.40971 1.33821,-0.29142 1.74791,0.26422c0.29614,0.40162 0.31643,0.92182 0.09507,1.33405l-0.58949,1.15538l-0.23739,-0.12112c-0.02521,0.47089 0.08655,0.8574 0.4939,1.05172c0.27097,0.12927 0.61921,0.18558 0.91861,0.28945c0.00549,-0.37724 0.18104,-0.74763 0.50812,-0.98882c0.46753,-0.34474 1.09572,-0.31567 1.52728,0.03325l1.1159,0.86095l-0.01224,0.01587c0.04823,0.03171 0.09562,0.06486 0.14213,0.09959c0.58794,0.4391 3.2572,3.6836 3.59119,4.58791c0.07195,0.19479 0.18948,0.54121 0.26346,0.92597c0.55751,-1.11963 1.5036,-2.85622 3.16009,-2.10712c0.11689,0.05286 0.81805,3.30287 1.0896,3.97078c0.62874,1.54636 1.89145,2.98169 1.09838,4.81377c-0.84508,1.95225 -4.38356,3.9273 -6.04535,5.15265c-3.71262,2.73755 -8.56162,7.86688 -13.13989,8.50326l-0.94685,0.33259c0,0 -0.97909,0.31753 -1.4485,-0.51214z" fill="#ee0000"/><path d="M245.5216,224.5157c-1.2742,-0.53125 -3.69143,-3.57021 -4.18385,-4.54241c-0.50508,-0.99719 -0.16457,-2.53612 0.77962,-3.23234c0.62557,-0.46126 2.49708,-0.49846 2.04087,-1.12773c-0.45575,-0.6286 -1.73401,-3.39662 0.46225,-3.06462c0.53051,0.08018 3.2773,3.01976 2.8254,4.26768c-0.23137,0.63893 -3.93669,1.94766 -3.79541,2.14386c1.22904,1.70692 2.34488,2.45231 3.89616,3.54506c0.11662,0.07815 0.22196,0.1774 0.31006,0.2969c0.07844,0.10637 0.13753,0.22107 0.17789,0.33987c0.24514,0.57824 0.09564,0.97412 -0.23982,1.22158c-0.05919,0.06805 -0.12669,0.13071 -0.20231,0.18646c-0.37163,0.27402 -0.84478,0.31185 -1.24,0.1406c-0.30686,-0.0178 -0.60036,-0.07876 -0.83089,-0.17489z" fill="#dd0000"/><path d="M255.99187,205.62898c3.07324,1.88541 3.09612,4.43067 4.45657,6.97792c0.4236,0.79315 1.61407,2.05328 -0.01847,2.72508c-2.61876,1.07763 -2.13943,-3.33591 -2.96231,-4.41751c-0.52307,-0.68752 -1.81609,-1.96492 -2.54082,-2.78065c-0.14128,-0.15902 -0.52535,0.12812 -0.90861,0.42558c-0.07281,0.09902 -0.16157,0.1889 -0.2657,0.26568c-0.1171,0.08633 -0.24425,0.14923 -0.37587,0.18952c-0.49301,0.1509 -1.04866,-0.01519 -1.37203,-0.45373c-0.4097,-0.55563 -0.2914,-1.3382 0.26423,-1.74792c0.12657,-0.09333 0.26489,-0.15924 0.4079,-0.19885c0.79688,-1.02041 2.15291,-1.69816 3.31515,-0.98511z" fill="#dd0000"/><path d="M250.83279,222.69129c-0.15305,0.66482 -0.88402,0.87947 -0.88402,0.87947c-0.75257,0.15369 -1.53143,0.71105 -2.25774,0.4611c-1.50521,-0.51802 -3.16269,-3.51576 -4.11804,-4.77595l-0.01829,-0.1718l-0.05482,0.02245l-0.52204,-1.27465c-0.24426,-0.57029 -0.03189,-1.24672 0.51721,-1.56889c0.38016,-0.22305 0.82979,-0.22238 1.19616,-0.03777l1.26295,0.61347l-0.02318,0.04769c0.90724,0.06009 1.24221,-0.29376 0.13933,-1.96103c-0.20459,-0.30929 -0.51262,-0.53513 -0.77699,-0.79619l-1.37629,-0.61451c-0.23553,-0.10169 -0.44199,-0.27653 -0.58179,-0.51476c-0.34937,-0.59542 -0.14988,-1.36133 0.44555,-1.71069c0.22655,-0.13293 0.47775,-0.1864 0.72133,-0.16885l1.40403,0.08067l-0.01698,0.29545c0.35071,-0.02635 0.70012,-0.02637 1.04449,0.00925l0.11312,-0.03062c-0.78321,-1.94647 0.35058,-4.5207 2.0396,-5.97243c0.78659,-0.67607 1.66481,-1.85497 2.66976,-1.59831c0.90163,0.23028 0.78485,1.68983 1.1069,2.56289c0.15722,0.4262 -0.11612,1.79713 0.01666,1.3627c1.05052,-3.43706 4.65151,0.84641 5.64674,2.33325c1.12158,1.6756 1.12675,2.84548 0.66557,4.11336l0.28091,0.6291l-0.30191,0.13481l0.39229,0.58751c-0.50639,0.61987 -0.7901,1.52926 -1.51918,1.8596c-0.07987,0.0362 -0.16107,0.06713 -0.24343,0.09348l0.0126,0.03077l-0.94188,0.38575c-0.12291,0.11536 -0.23993,0.22706 -0.34446,0.33425c-1.18921,1.21926 -3.46283,3.44159 -5.69416,4.35947zM250.51327,207.74862c-0.00934,0.0125 -0.01868,0.02498 -0.028,0.03744c0.01273,0.00258 0.02546,0.00535 0.03821,0.00836c-0.00349,-0.01526 -0.00689,-0.03053 -0.0102,-0.04581z" fill="#ffde00"/><path d="M252.94504,204.99493c0.59212,1.10088 -0.50876,1.69296 -0.50876,1.69296l-0.20117,0.02729c-1.3184,1.44819 -1.97929,2.48148 -2.48293,4.39623c0,0 -0.32217,1.20777 -1.52992,0.88559c-1.20776,-0.32218 -0.8856,-1.52996 -0.8856,-1.52996c0.61422,-2.27484 1.4785,-3.7056 3.04897,-5.43394l0.86646,-0.54694c0,0 1.10086,-0.59208 1.69297,0.50877z" fill="#ffe850"/><path d="M243.67994,211.58201c0.8212,-0.94242 1.7636,-0.12123 1.7636,-0.12123l-0.34387,0.21724c0.97388,-0.09212 1.94475,-0.22367 2.90849,-0.39143c0,0 1.23162,-0.21359 1.44521,1.01802c0.2136,1.23162 -1.01801,1.44521 -1.01801,1.44521c-1.02695,0.17749 -2.06121,0.3175 -3.09865,0.41692l-1.53553,-0.82112c0,0 -0.94242,-0.82118 -0.12123,-1.7636z" fill="#ffe850"/><path d="M257.33105,211.29499c-1.00607,0.74184 -1.74791,-0.26423 -1.74791,-0.26423l-0.20278,-0.27968c-0.45076,-0.55131 -1.01621,-1.02332 -1.63623,-1.37362c0,0 -1.07816,-0.63249 -0.44567,-1.71066c0.6325,-1.07817 1.71066,-0.44566 1.71066,-0.44566c0.85028,0.51235 1.63026,1.16534 2.28023,1.91569l0.30594,0.41024c0,0 0.74184,1.00607 -0.26423,1.74791z" fill="#ffe850"/><path d="M247.10857,218.92115c-0.19547,0.1965 -0.39117,0.30608 -0.57739,0.35764c0.17594,0.33545 0.2899,0.85948 -0.22364,1.39897c-0.86183,0.90539 -1.76725,0.04356 -1.76725,0.04356c-2.06456,-2.11454 -2.31762,-3.52367 0.59722,-4.69383l1.96643,1.1259c0,0 0.8862,0.88157 0.00464,1.76776zM245.67372,218.50544l0.0349,-0.04406c-0.71086,-0.28923 -0.45902,-0.20511 -0.0349,0.04406z" fill="#ffe850"/><path d="M259.07892,214.73675c0.74184,1.00607 -0.26423,1.74792 -0.26423,1.74792l-0.55667,0.38032c-3.97094,1.75053 -5.03078,6.52794 -10.07919,6.76005c0,0 -1.24944,0.03727 -1.28671,-1.21216c-0.03727,-1.24944 1.21217,-1.28672 1.21217,-1.28672c4.04167,-0.02543 5.78984,-4.91482 9.09347,-6.5252l0.13325,-0.12842c0,0 1.00606,-0.74185 1.74791,0.26423z" fill="#f5d400"/></g><path d="M178.86994,285.58508c0.11637,-0.32651 0.32534,-0.66548 0.66432,-1.00446c1.76777,-1.76777 3.53553,0 3.53553,0l1.73257,2.7681c-0.04276,0.57009 -0.32461,1.17334 -0.12829,1.71026c0.30846,0.84363 1.41549,1.31204 1.55763,2.19898c0.77108,4.8117 -2.07966,7.71082 -5.37422,10.36081c-4.65471,1.01511 -10.03156,1.17582 -14.80679,0.72195c-1.9435,-0.18472 -3.73406,-1.17756 -5.65595,-1.52061c-3.15471,-0.56311 -4.70061,1.40544 -7.62961,1.98784c-2.11687,0.42092 -4.3165,0.05813 -6.47477,0.04511c-2.18617,-0.01319 -4.31549,-0.70335 -6.47477,-1.04544c-2.47909,-0.39276 -5.01989,0.04511 -7.5299,0.04511c-5.82645,0 -11.53629,-0.43442 -17.20038,0.9816c-5.8688,0.03917 -12.35058,0.78747 -18.15805,-0.00543c-3.81911,-0.52143 -6.83062,-2.32493 -9.97058,-4.35054c-1.3969,-0.90115 -3.12955,-1.40642 -4.21494,-2.66552c-1.46325,-1.69742 -1.21151,-4.34329 -2.21045,-6.34939c-1.1399,-2.28917 -3.59214,-3.79812 -4.57331,-6.15968c-1.64915,-3.9693 1.99429,-5.79378 1.34248,-9.55925c-0.81171,-4.68919 -5.30585,-7.32378 -6.46757,-11.83007c-0.29757,-1.15426 -0.04459,-2.38359 -0.06688,-3.57538c0,-6.78999 -0.36038,-15.81204 5.46297,-20.47668c1.72376,-1.38078 6.43075,-3.51376 8.02189,-3.97619c0.06314,-0.01835 0.13471,-0.03391 0.21281,-0.04672c-0.59095,-0.6205 -1.0304,-1.31295 -1.05649,-1.34227c-1.06681,-1.19896 -3.64846,-4.41887 -4.04763,-6.00164c-1.96496,-7.79136 6.59279,-16.74319 12.43749,-20.69138c0.9946,-0.75903 1.82525,-1.80474 2.9838,-2.27709c9.76325,-3.98064 16.80682,5.3358 24.15603,9.58098c5.48245,3.16687 12.73128,0.06556 17.87053,4.23371c3.07804,2.49642 2.09106,3.41337 2.91307,6.91174c1.25348,5.33462 1.53175,10.968 0.82047,16.49708c2.69458,1.71791 4.80732,4.00058 7.01701,6.31754c0.87209,0.91443 2.01703,1.66259 2.5426,2.81173c0.4319,0.94433 -0.00963,2.08737 0.16614,3.11079c0.13866,0.80738 1.20717,4.22072 1.73739,5.18488c1.9651,3.57341 5.03619,6.42035 7.00233,10.00333c0.92635,1.68812 1.45999,3.64569 2.73617,5.08765c3.33925,3.77304 7.70597,5.59197 11.59739,8.61256c1.08012,0.83841 1.73976,2.19697 2.92888,2.87193c0.79467,0.45107 1.69425,0.65127 2.60109,0.83409z" fill="#d0d0d0"/><path d="M162.97378,245.50122c0.19542,0.33753 0.32141,0.77277 0.32141,1.334c0,2.5 -2.5,2.5 -2.5,2.5c-1.26386,-0.04276 -2.58966,0.26488 -3.79157,-0.12829c-5.20678,-1.70326 -6.13855,-7.70491 -7.57702,-12.06651c-0.68751,-2.08461 -1.26975,-4.29725 -1.12845,-6.48775c0.19806,-3.07051 1.47537,-6.79399 0.21138,-9.80617c-1.64514,-3.9205 -8.16744,-4.11088 -10.48514,-7.96256c-0.571,-0.94892 -0.09448,-2.21499 -0.22386,-3.31488c-0.54907,-4.66768 0.79883,-6.94288 2.96056,-11.21129c1.02402,-0.94953 1.80596,-2.25934 3.07206,-2.84859c1.04648,-0.48703 2.30387,-0.15345 3.45754,-0.1903c3.32833,-0.1063 6.67296,0 10.00333,0c1.20719,0 6.01638,-0.05027 6.58481,0.24674c2.02206,1.05657 3.89962,4.57145 4.37292,6.78216c1.10826,5.17646 -1.17446,8.43077 -3.11463,12.85324c-1.31758,3.00333 -0.12855,7.35453 0.15022,10.421c0.09583,1.05408 -0.21302,3.06913 0.29095,4.18744c0.78813,1.74885 2.4264,2.97176 3.65202,4.44738c-0.72572,2.96391 -1.64953,8.6632 -4.5273,10.64354c-0.51042,0.35125 -1.10619,0.50723 -1.72923,0.60084z" fill="#d0d0d0"/><path d="M92.41543,225.26459c-0.19354,0.04035 -0.40726,0.06263 -0.64325,0.06263c-2.5,0 -2.5,-2.5 -2.5,-2.5c0,-2.49954 -0.72441,-7.58251 1.41519,-9.43586c0.80182,-0.69455 5.82091,-0.57357 7.08681,-0.56664c6.47391,0.03541 13.55773,2.85137 18.90081,6.42738c1.40438,0.93992 2.3443,2.49001 3.78601,3.3716c1.22341,0.7481 2.89681,-0.06998 4.29479,0.24946c4.44846,1.01648 5.99907,3.87929 7.89392,7.64555c0.85369,4.19892 -0.00943,8.71401 2.29617,12.55697c1.44191,2.40338 3.72548,3.58846 5.60975,5.49294c2.2107,2.23441 2.98351,5.40733 4.71803,7.74955c2.0577,2.77862 6.4514,4.42611 8.28966,7.47841c0.96096,1.59561 -0.18196,3.84067 0.5273,5.56298c0.95593,2.32127 3.29475,4.4895 5.22316,6.00051l1.95781,1.46836c0.62044,0.45492 1.02328,1.18914 1.02328,2.01746c0,1.25484 -0.92451,2.29374 -2.12954,2.47274l-2.96046,0.49341l-0.04939,-0.29632c-2.37692,0.70666 -4.8257,0.86007 -7.40566,-0.39736c-4.82338,-2.35083 -6.09264,-7.01204 -9.3432,-10.63066c-0.67641,-0.753 -1.67152,-1.16125 -2.38618,-1.87805c-2.66706,-2.67503 -4.34209,-6.36719 -7.00233,-9.003c-1.44269,-1.42944 -3.02887,-2.82571 -3.95931,-4.63097c-1.15822,-2.2472 -2.54498,-4.37929 -3.58496,-6.68359c-1.56463,-3.4668 -0.95838,-6.04182 -4.22302,-8.48355c-3.74746,-2.88352 -5.85226,-7.97085 -10.16716,-10.28377c-4.13304,-2.21544 -8.25856,-2.69706 -12.80996,-2.69706h-1.5005c0,0 -1.828,0 -2.35775,-1.56313z" fill="#d9d9d9"/><path d="M162.93339,229.29253c0.26358,0.31951 0.52592,0.63197 0.78268,0.93722c0,0 1.60046,1.92055 -0.32009,3.52101c-1.92055,1.60046 -3.52101,-0.32009 -3.52101,-0.32009c-2.54349,-3.07697 -5.21746,-6.5862 -6.03617,-10.63086c-0.59729,-2.95076 -0.04511,-6.46067 -0.04511,-9.47577c0,-0.18309 -0.01113,-5.66026 0.03228,-5.90229c0.79974,-4.4588 2.65036,-11.3476 8.73699,-6.36898c4.13798,3.38471 0.33113,7.022 -0.93646,10.17176c-1.26946,3.15439 -1.64488,5.87897 -0.56069,9.05753c0.98466,1.63206 1.83796,3.35004 2.55074,5.11783l0.17881,1.92881c0,0 0,1.22925 -0.86196,1.96382z" fill="#d9d9d9"/><path d="M175.79935,296.85189c0,2.5 -2.5,2.5 -2.5,2.5c-9.16972,0 -21.34045,0 -30.51017,0c-4.02296,-0.01782 -8.50815,-1.30949 -12.53157,-0.54528c-5.44927,1.03504 -10.48966,3.89478 -16.32469,3.02195c-7.10356,-1.06259 -13.63333,-3.81934 -20.46861,-6.11225c-2.89891,-0.97244 -5.20222,-2.43676 -8.2144,-3.08432c-2.13333,-1.53456 -7.31366,-4.44629 -7.91487,-7.20972c-0.4567,-2.09923 1.46551,-4.74571 2.02626,-6.74986c0.51549,-1.84241 0.88881,-5.33848 0.48021,-7.23143c-0.47696,-2.20969 -2.41517,-3.82226 -3.65397,-5.71318c-0.55405,-0.84571 -0.87379,-1.88509 -1.62641,-2.56018c-1.07975,-0.96852 -2.82236,-1.11077 -3.72865,-2.24326c-5.36966,-6.70985 2.68184,-17.32924 7.16792,-21.85891c0,0 1.76777,-1.76777 3.53553,0c1.76777,1.76777 0,3.53553 0,3.53553c-2.99483,2.96115 -5.808,6.60936 -6.83715,10.81062c-0.13854,0.56557 -0.92787,3.49416 0.0004,4.34281c0.91417,0.83576 2.36239,0.91917 3.27368,1.75807c2.40428,2.21329 5.95394,7.50422 6.72362,10.73298c0.62956,2.64097 0.1723,7.18246 -0.52012,9.77423c-0.40351,1.51035 -2.19257,2.70569 -1.97508,4.25381c0.06611,0.47055 0.84962,0.43403 1.23485,0.71223c0.1298,0.09374 3.30258,2.63915 3.85462,3.08172c2.86262,0.52181 5.05831,2.01302 7.79094,2.91768c6.57185,2.17566 12.74849,4.81396 19.54473,5.89175c5.10086,0.80893 9.86003,-2.13566 14.68565,-2.98006c4.44451,-0.77771 9.06537,0.47887 13.4771,0.45506c9.16972,0 18.33945,0 27.50917,0h3.001c0,0 2.5,0 2.5,2.5z" fill="#bdbdbd"/><path d="M165.18294,237.75276c2.08013,1.38675 0.69338,3.46688 0.69338,3.46688l-1.58046,2.11375c-3.68925,2.76694 -8.85241,6.85096 -13.03127,1.46244c-1.13249,-1.46032 -0.96736,-5.46243 -0.97206,-7.46378c0,0 0,-2.5 2.5,-2.5c2.5,0 2.5,2.5 2.5,2.5c-0.00012,0.04257 -0.02616,4.43044 0.02827,4.54023c1.08532,2.18882 5.40745,-2.11318 5.97506,-2.53889l0.42021,-0.88725c0,0 1.38675,-2.08013 3.46688,-0.69338z" fill="#bdbdbd"/></g></g></svg>