<svg version="1.1" xmlns="http://www.w3.org/2000/svg" xmlns:xlink="http://www.w3.org/1999/xlink" width="156.01587" height="104.32808" viewBox="0,0,156.01587,104.32808"><g transform="translate(-152.28973,-196.6278)"><g data-paper-data="{&quot;isPaintingLayer&quot;:true}" fill-rule="nonzero" stroke-linejoin="miter" stroke-miterlimit="10" stroke-dasharray="" stroke-dashoffset="0" style="mix-blend-mode: normal"><path d="" fill="#815400" stroke="none" stroke-width="0.5" stroke-linecap="butt"/><path d="M264.64742,200.60181l3.43854,-0.80423c4.1209,-0.02555 8.24164,-0.0216 12.36261,-0.02136c2.01017,-0.09405 4.06962,-0.00538 5.71879,0.00001c0.0631,0.00021 0.12759,0.0002 0.19337,0c0.77313,-0.00223 1.72526,-0.02852 2.71199,0c6.07076,0 12.14153,0 18.21229,0c-0.25229,1.6462 -0.51025,3.29113 -0.64381,4.95764c-0.45417,5.6668 0.66323,11.74977 0.0334,17.3597c-0.26123,2.32682 -0.51751,4.6826 -0.42662,7.03004c-1.11729,2.57484 -1.54329,5.54392 -2.22531,8.35254c-0.42342,1.74364 -1.28601,3.28153 -1.71426,5.02327c-0.14756,0.6001 0.22669,1.31693 0.0155,1.88566c-0.16253,0.43769 -0.75423,0.35087 -0.988,0.73324c-0.57879,0.94675 -0.75791,2.23694 -1.37938,3.13916c-0.54944,0.79766 -1.45654,1.08403 -2.04626,1.83403c-1.16143,1.47713 -1.92332,3.43727 -3.17609,4.78914c-0.59199,0.63882 -5.57768,5.5572 -5.74389,5.78365c-1.73216,2.35985 -2.62619,5.53239 -3.72171,8.4413c-0.7099,1.88494 -2.09758,3.46993 -2.30735,5.54168c-0.39956,3.9463 -0.48795,6.44252 -0.10985,8.35876c-1.11631,1.23723 -2.21291,2.38083 -3.29354,3.24226c-5.61478,4.47588 -11.66234,5.98823 -17.4835,9.67788c-1.45983,0.92529 -2.98721,2.29788 -4.61235,2.82803c-1.75295,0.57184 -6.8396,-0.73293 -8.2192,-0.73293c-1.60498,0 -6.09681,3.32604 -7.53664,2.89627c-10.17433,-3.03683 -21.63336,-0.53621 -31.47187,-5.3817c-3.44272,-1.69554 -7.04967,-4.80647 -10.51456,-6.0888c-3.08334,-1.14111 -6.17558,-2.14678 -8.91989,-4.11778c-2.18031,-1.56594 -4.41645,-3.71951 -6.76003,-5.7132c0.27773,-2.22171 0.60664,-4.45412 -0.00108,-6.49023c-0.55894,-1.87268 -7.90119,-11.14244 -10.07992,-12.87754c-0.3807,-0.30317 -0.82784,-0.40225 -1.28199,-0.48493c-0.04969,-0.17465 -0.10986,-0.34542 -0.18613,-0.51017c-1.01034,-2.18226 -2.31769,-4.2309 -3.63476,-6.25643c-1.16634,-1.79372 -2.46505,-3.0989 -3.81747,-4.33497c-0.8894,-1.96723 -1.23967,-4.29027 -2.14094,-6.25349c-0.41607,-0.90632 -1.50914,-1.22657 -1.75087,-2.22941c-0.44566,-1.8489 0.17276,-3.9154 -0.18342,-5.79523c-1.21427,-6.40881 -4.18199,-12.07199 -6.10777,-18.19428c-1.23097,-3.91339 -1.61425,-8.49704 -1.66315,-13.18573c0.17956,-0.07861 0.36423,-0.14398 0.5566,-0.18931c1.12386,-0.26471 2.32078,0.061 3.47075,-0.06239c2.32969,-0.24998 4.53356,-1.22465 6.8634,-1.47346c3.54426,-0.37848 7.25702,0.43742 10.78549,0c2.42619,-0.30076 4.84967,-0.74942 7.29591,-0.76184c4.36555,0 8.73111,0 13.09666,0c2.12429,0 4.29294,0.46763 6.37262,0.05144c2.50041,-0.50039 4.94066,-1.4963 7.49443,-1.53238h0.77039c0,0 2.93846,0 2.96582,2.81119c4.57063,-0.32292 9.48121,0.15069 13.98281,0.15069c9.2447,0 18.48941,0 27.7341,0c2.69729,0 5.46199,-0.11513 8.22849,-0.1851c0.66021,-0.9278 1.83762,-1.21072 1.83762,-1.21072z" fill="#815400" stroke="none" stroke-width="0.5" stroke-linecap="butt"/><path d="M156.03973,200.3778h148.51587" fill="none" stroke="#815400" stroke-width="7.5" stroke-linecap="round"/></g></g></svg>