<svg version="1.1" xmlns="http://www.w3.org/2000/svg" xmlns:xlink="http://www.w3.org/1999/xlink" width="564.08906" height="436.50111" viewBox="0,0,564.08906,436.50111"><g transform="translate(31.51254,51.80274)"><g data-paper-data="{&quot;isPaintingLayer&quot;:true}" fill="#c7d9de" fill-rule="nonzero" stroke="#c7d9de" stroke-linejoin="miter" stroke-miterlimit="10" stroke-dasharray="" stroke-dashoffset="0" style="mix-blend-mode: normal"><path d="M11.97238,315.57704c0.18517,0.18554 0.30555,0.37101 0.37814,0.55077c1.22723,0.59963 2.39996,1.23912 3.33051,2.01059c0.24216,0.20076 3.4714,4.52233 3.809,4.94279c0.80532,1.00297 2.35634,1.679 2.47603,2.9597c0.12274,1.31338 -1.18227,2.36224 -1.87369,3.48561c-0.63418,1.03038 -1.07974,2.30655 -2.0957,2.96359c-0.952,0.61568 -2.26886,0.23478 -3.35458,0.56124c-0.97037,0.29178 -1.77102,1.05046 -2.75868,1.27694c-0.77251,0.17714 -1.74477,-0.5794 -2.3756,-0.09959c-0.52381,0.39842 -0.07315,1.31446 -0.08671,1.97244c-0.01959,0.951 -0.01054,1.90239 -0.01273,2.85359c-0.00989,4.30375 0.02983,8.56167 -0.27338,12.85704c-1.75601,0.76599 -3.59285,1.40738 -5.47293,1.79368c2.41234,0.88874 4.91455,2.47379 6.64856,3.77437c1.26163,0.94628 2.30575,2.50527 3.86739,2.72537c5.08544,0.71673 9.47907,-0.95117 14.36273,-1.46401c1.23826,-0.13003 2.56334,-0.37831 3.73497,0.04298c1.02594,0.36891 1.65284,1.42375 2.4405,2.17758c0.31646,0.30287 0.74772,1.40926 0.86682,0.98771c0.17047,-0.60337 -0.5992,-1.14107 -0.64687,-1.76624c-0.09615,-1.26106 -0.49051,-2.74361 0.22339,-3.78758c2.92047,-4.27072 9.9339,-1.09785 12.79281,1.17016c1.35734,1.35565 2.43957,3.04437 4.04623,4.0926c0.15893,0.10369 4.0072,1.50201 4.46315,1.32593c0.71485,-0.27605 0.90763,-1.2363 1.40067,-1.82292c2.21223,-2.63215 6.03032,-8.34367 9.90907,-8.40332c4.46807,-0.06871 6.79731,5.59277 10.01896,7.66354c2.41706,1.55361 5.56737,2.21313 8.10375,3.71225c1.51571,0.89586 3.21777,1.53675 4.95298,1.83502c0.68312,0.11743 1.46784,0.74975 2.04655,0.36826c0.63623,-0.41941 0.35499,-1.49635 0.6974,-2.17712c0.46715,-0.92878 1.13979,-1.73907 1.70969,-2.6086c1.56048,-2.31322 2.0343,-4.65208 2.38535,-7.44197c0.13383,-1.06356 0.1384,-6.12646 0.63838,-6.74619c0.81402,-1.00896 2.42486,-0.92488 3.66758,-1.29403c1.1431,-0.33956 2.29724,-0.98116 3.47998,-0.82919c2.00957,0.25822 6.80038,3.47051 8.45259,4.74021c1.50116,1.15363 2.30885,3.145 3.9597,4.07184c2.31239,1.29825 2.14065,-0.89599 3.8809,-1.74372c1.14377,-0.55716 2.44717,-0.91748 3.71821,-0.86175c0.56451,0.02475 5.14728,1.97736 5.91726,2.19676c3.9862,1.13582 7.35278,2.71306 11.0845,4.59644c2.37865,0.51721 4.99857,0.10397 7.28092,-0.89005c0.96963,-0.4223 3.89511,-2.84485 4.86217,-3.11217c2.52805,-0.69882 6.50901,1.02159 8.8531,0.052c0.74829,-0.30952 1.07613,-1.21088 1.63717,-1.79481c2.19294,-2.28241 4.32657,-5.16072 7.64968,-5.79536c4.34631,-0.83005 5.69009,1.7383 8.91468,3.80468c2.5591,1.63993 5.51819,2.26241 8.06963,3.68926c0.86647,0.48456 1.35655,1.49715 2.22258,1.9825c1.21966,0.68353 3.99201,0.76698 5.2554,0.87649c1.10913,0.04096 3.73074,0.41899 4.81591,-0.51201c1.37657,-1.181 3.34572,-5.51267 4.04066,-7.20921c1.12285,-2.74121 0.58699,-7.00381 3.88767,-8.52768c1.10107,-0.50834 2.42277,-0.13667 3.63551,-0.14128c1.19171,-0.00453 2.47212,-0.34165 3.57333,0.11389c1.72658,0.71424 5.9777,5.30951 7.03387,6.90385c0.43324,0.65399 0.08252,1.79405 0.72966,2.23744c0.60235,0.4127 1.4473,-0.21149 2.17665,-0.24617c2.31447,-0.11006 7.47795,-0.75172 9.57264,0.11361c2.13883,0.88357 4.71924,4.54524 6.39629,6.23233c0.48911,0.44206 0.81027,1.38037 1.46732,1.32619c0.74109,-0.0611 0.85665,-1.39512 1.57761,-1.57725c1.37314,-0.34688 2.98409,-0.53428 4.24751,0.10571c2.36836,1.19971 2.97505,5.943 4.82916,7.7521c1.34478,1.31214 3.24527,1.89457 4.8562,2.86155c0.77097,0.46279 1.59895,0.84183 2.31262,1.38886c0.48369,0.37075 0.66945,1.53734 1.24551,1.33844c0.52744,-0.18211 -0.40502,-1.0539 -0.46197,-1.60898c-0.09922,-0.96694 -0.00196,-1.94404 -0.00235,-2.91606c-0.00119,-2.99337 -0.96602,-7.77173 1.98448,-9.91808c0.95973,-0.69816 5.57549,-0.58849 6.83332,-0.59283c3.85656,-0.01329 7.49171,0.76872 10.77417,-1.35046c4.78375,-2.94232 10.08744,-5.82139 13.81131,-10.1494c1.7159,-1.99428 2.00912,-4.62646 5.72315,-4.25458c1.26652,0.12682 2.05293,1.5066 3.04685,2.30176c2.30374,1.84305 4.86219,4.03042 6.76664,6.28791c1.8886,2.23871 3.01559,5.24486 5.01007,7.38084c1.87414,2.0071 6.45292,5.0075 9.1549,5.67357c2.06953,0.51016 4.26142,0.15027 6.38699,0.30907c1.98161,3.52668 2.29427,2.4894 5.10966,0.15585c1.45609,-1.20688 3.24761,-2.0747 4.41696,-3.56111c1.63423,-2.07735 2.50211,-5.47896 3.71854,-7.83614c0.57295,-1.11025 0.76666,-2.5819 1.79621,-3.28969c2.62615,-1.80541 7.7473,-0.43809 10.21624,0.74975c0.74638,0.35909 1.36268,1.06612 2.18175,1.1892c2.57603,0.38708 1.95928,-2.02268 3.74982,-3.03767c6.37879,-3.61591 12.83584,2.48494 16.88986,6.4401c4.09948,0.46381 0.86619,-3.53698 4.53132,-5.18552c1.30129,-0.58531 2.91904,-0.02295 4.25329,0.48275c4.56637,1.73076 6.87364,7.21887 11.81858,8.59128c1.33085,0.36936 3.23339,0.99597 4.55816,-0.02916c4.59835,-3.55828 3.30034,-11.18541 5.81698,-15.9256c0.60649,-1.14235 0.7821,-2.77914 1.93654,-3.36229c1.25507,-0.63398 2.86039,-0.13572 4.21047,0.25723c0.17921,0.05216 4.82368,3.09467 5.20711,3.34466c0.2936,0.1465 5.33913,2.65834 5.46979,2.74814c2.4371,1.67493 4.04839,4.58444 6.49228,6.18505c2.71306,1.7769 5.38029,2.12566 7.98896,4.32461c1.44945,1.2218 2.6462,2.80597 4.31602,3.70342c1.66982,0.89745 3.67145,0.9573 5.47008,1.55616c0.71396,0.23772 1.35887,0.93567 2.10267,0.82162c2.22501,-0.3412 1.48179,-5.78727 1.80381,-6.92957c0.34874,-1.23709 0.66037,-2.64125 1.61571,-3.50109c3.891,-3.50204 8.79965,-0.12188 11.31472,2.96138c0.68154,-1.87455 1.10953,-3.9667 3.56446,-4.66595c1.2134,-0.34562 2.46898,0.52393 3.69204,0.83361c3.90747,0.98936 7.6587,2.6025 11.42314,4.02482c0.86997,0.3287 1.74831,0.63662 2.6072,0.99327c0.51977,0.21583 1.07425,1.05885 1.52581,0.72294c0.39877,-0.29664 -0.5325,-0.84536 -0.86661,-1.21331c-0.60787,-0.66944 -1.36083,-1.2001 -1.9487,-1.88716c-0.23243,-0.27165 -3.71619,-5.15788 -3.77892,-5.33415c-0.87387,-2.45546 -0.53698,-6.87654 -0.46846,-9.48438c0.02026,-0.77112 0.52093,-1.62155 0.16901,-2.30799c-0.33788,-0.65905 -1.27408,-0.75598 -1.92293,-1.11306c-1.48051,-0.81478 -4.83009,-2.25237 -5.54059,-3.93995c-0.56146,-1.33357 -0.03352,-2.89369 -0.05028,-4.34053c1.27519,-0.96281 2.5431,-1.93547 3.80134,-2.92041c-2.20722,-0.90192 -4.93066,-2.74409 -6.48238,-3.54665c-1.04764,-0.54185 -2.39051,-0.7405 -3.12167,-1.666c-0.90607,-1.14691 -1.77503,-2.70699 -1.46074,-4.13443c0.31113,-1.41309 1.78366,-2.38945 3.05091,-3.08781c0.88506,-0.48774 2.02654,-0.07662 3.02067,-0.25812c0.37552,-0.06856 1.09756,-0.10582 1.03836,-0.48292c-0.09644,-0.61432 -0.87056,-0.88854 -1.32097,-1.31729c-2.12968,-2.02721 -4.31662,-3.99954 -6.47003,-6.00173c-5.33017,-4.9559 -10.22906,-10.66795 -14.43966,-16.59824c4.82207,-2.42423 7.88573,-2.90018 13.19114,-2.90131c2.00011,-0.00043 4.02225,-0.29607 6.00032,-0.00001c0.61508,0.09206 1.22485,1.07507 1.72649,0.70743c0.44236,-0.32419 -0.878,-0.66098 -1.2782,-1.03597c-0.67317,-0.63076 -1.30324,-1.30633 -1.937,-1.97667c-0.80409,-0.85051 -1.89699,-1.5174 -2.37603,-2.58533c-0.82408,-1.83716 0.21046,-4.12558 -0.46424,-6.0227c-0.43595,-1.2258 -2.51485,-2.17564 -1.98184,-3.36246c0.59796,-1.33143 2.72637,-1.05943 4.13663,-1.43549c2.89892,-0.77302 6.17094,-0.66872 9.1465,-0.72499c0.85149,-0.0161 1.70695,0.09312 2.5549,0.01392c0.35979,-0.0336 1.11603,0.00169 1.02657,-0.34842c-0.17762,-0.69509 -1.13255,-0.92431 -1.50801,-1.53564c-0.54858,-0.8932 -0.8108,-1.93328 -1.2162,-2.89991c-1.89418,-4.54479 -3.36627,-8.96237 -6.39106,-12.76066c-0.90428,-1.13552 -2.86542,-2.17838 -2.48183,-3.57838c0.36165,-1.31992 2.34659,-1.3191 3.71387,-1.74017c-3.74084,-4.07907 -8.97469,-8.44764 -11.08579,-13.4315c-0.55291,-1.3053 -2.02884,-2.74125 -1.4047,-4.01403c0.41064,-0.8374 5.4953,-1.60688 6.70391,-1.82164c2.04445,-0.00388 4.11165,-0.31004 6.13336,-0.00594c0.61481,0.09248 1.39732,1.23931 1.7245,0.71064c0.32718,-0.52868 -1.04646,-0.71864 -1.40536,-1.22632c-0.5374,-0.76017 -0.70574,-1.73871 -1.23312,-2.50588c-2.17138,-3.15869 -5.06395,-6.10759 -7.44114,-9.15327l-2.05287,-2.09914c-0.26504,-0.27053 -0.42844,-0.64101 -0.42844,-1.04965c0,-0.77905 0.5939,-1.41938 1.35364,-1.49295l2.9641,-0.32648l0.01579,0.14336c1.94545,-0.44634 3.90403,-0.74296 5.99823,-0.80493c0.73458,-0.02174 1.61085,0.62102 2.19749,0.17837c0.57339,-0.43265 0.19569,-1.4267 0.37778,-2.12155c0.52843,-2.01646 1.22322,-5.43824 -0.18396,-7.42261c-1.14308,-1.61195 -3.54983,-2.01939 -4.67767,-3.64204c-2.67836,-3.85343 -0.41065,-5.31803 -0.30449,-9.35367c0.10304,-3.91699 -0.7267,-7.32565 -2.41008,-10.86365c-0.65713,-1.38111 -2.72713,-5.02443 -1.84469,-6.68204c0.66325,-1.24588 2.43596,-1.42637 3.65395,-2.13956c0.89832,-0.0098 1.88596,0.36123 2.69496,-0.02941c0.71666,-0.34605 0.90426,-1.31066 1.38839,-1.94229c2.04018,-2.66173 2.24008,-4.41085 3.3842,-7.48194c0.22439,-0.60233 1.31641,-1.1276 0.96799,-1.66774c-0.3308,-0.51283 -1.17888,0.34678 -1.78698,0.3981c-0.98571,0.08318 -6.57174,-0.00684 -7.00282,-0.4372c-0.96357,-0.96197 -0.3669,-2.70098 -0.4464,-4.06021c-0.19955,-3.41165 0.90157,-5.99801 1.97284,-9.16827c0.35011,-1.0361 0.47702,-2.18036 1.06232,-3.10421c0.31598,-0.49874 1.78128,-0.42165 1.50057,-0.94106c-0.39896,-0.73819 -1.89896,-0.06874 -2.40717,-0.73642c-0.73954,-0.9716 -0.59775,-2.36812 -0.86307,-3.55998c-1.03453,-4.64717 -0.91916,-7.60008 0.13545,-12.21274c0.03832,-1.94207 -0.13643,-3.8967 0.0827,-5.82675c0.0728,-0.64118 1.00891,-1.43782 0.52404,-1.86363c-0.48556,-0.42642 -1.15713,0.60378 -1.78514,0.75614c-0.85806,0.20816 -1.75176,0.22053 -2.62902,0.32324l-2.40645,1.34405c-0.22177,0.12945 -0.47976,0.20362 -0.75507,0.20362c-0.82843,0 -1.5,-0.67157 -1.5,-1.5c0,-0.40256 0.15858,-0.76808 0.41668,-1.03751l2.06954,-2.16833c0.43394,-0.64503 1.40421,-0.88665 1.68637,-1.61104c0.65855,-1.69068 -0.10759,-3.62775 -0.10759,-5.44216c0,-4.68919 -1.0311,-10.79265 0.03989,-15.34361c0.8585,-3.64805 3.7961,-7.70229 5.47674,-11.06433c0.44715,-0.89449 0.84366,-1.81616 1.34157,-2.68342c0.35319,-0.61519 1.30343,-1.05094 1.20578,-1.75356c-0.08981,-0.64625 -1.11582,-0.68859 -1.60516,-1.12016c-1.20775,-1.06515 -2.61811,-2.11554 -4.20761,-2.37377c-1.24962,-0.20301 -2.81936,0.33251 -3.76347,-0.51094c-1.00041,-0.89375 -0.75435,-2.57476 -1.13153,-3.86215c-0.4259,-5.93306 1.17618,-13.01608 4.05493,-18.30376c0.47419,-0.87099 1.16631,-1.60814 1.82397,-2.35041c0.38459,-0.43406 1.52993,-0.63718 1.29142,-1.1658c-0.22948,-0.50862 -1.05118,0.44694 -1.60898,0.46197c-1.28347,0.0346 -2.83278,0.48251 -3.8389,-0.31512c-1.93014,-1.53018 -2.03732,-7.79168 -2.05762,-9.99133c-0.07458,-8.07888 -0.05071,-16.16233 -0.00627,-24.24139c0.29741,-0.90343 0.59482,-1.80685 0.89224,-2.71028c-1.06762,0.4266 -2.22736,0.46146 -3.46696,-0.7157c-0.92901,-0.88222 -0.16569,-2.56521 -0.42449,-3.81996c-0.59488,-2.88416 -1.19008,-5.26408 -2.75367,-7.69722c-0.35784,-0.55684 -0.375,-1.44671 -0.97265,-1.7312c-0.69413,-0.33042 -1.53139,0.14834 -2.29974,0.17349c-0.99946,0.03272 -2.00391,0.08837 -3,0c-0.6605,-0.0586 -1.51462,-0.94661 -1.9404,-0.43828c-0.49622,0.59242 0.53962,1.52574 0.39386,2.28465c-0.17638,0.91834 -1.2101,1.5513 -1.30918,2.48116c-0.09128,0.85669 0.64824,1.61233 0.78233,2.46336c0.58002,3.68122 0.94618,4.80325 -3.10277,6.40175c-4.18091,1.6506 -6.29579,-1.222 -9.27505,-3.1693c-0.96625,-0.63156 -4.33653,-1.68187 -5.32216,-2.01334c-0.79668,-0.3719 -1.52253,-0.97271 -2.39003,-1.11571c-3.96067,-0.65288 -5.34753,5.37997 -8.8389,6.49049c-1.86448,0.59305 -4.02937,-0.64531 -5.86954,0.01934c-1.74739,0.63114 -1.40391,4.18208 -3.22596,4.54518c-1.7702,0.35277 -8.01889,-4.75323 -8.79759,-6.30816c-0.35161,-0.70211 0.65529,-1.67959 0.23646,-2.34381c-0.27511,-0.4363 -0.64306,0.80748 -0.93869,1.23015c-1.08113,1.5457 -2.10082,3.13356 -3.16749,4.68926c-2.97519,4.33921 -4.72231,9.31772 -8.25321,13.15219c-0.75575,0.16876 -6.44631,1.53297 -7.13265,1.28803c-1.18594,-0.42325 -1.7296,-1.83135 -2.5592,-2.77863c-2.54372,-2.90455 -5.74065,-6.25209 -7.57421,-9.66003c-0.40925,-0.76065 -0.25056,-1.79452 -0.79251,-2.4671c-1.06907,-1.32674 -2.67755,-0.30078 -3.5349,0.42934c-1.85539,1.58004 -2.38959,3.95829 -5.47819,4.05774c-1.246,0.04012 -2.25919,-1.05579 -3.37104,-1.61962c-3.45439,-1.75175 -7.22291,-2.99154 -10.62087,-4.82637c-0.94521,-0.51039 -1.86109,-1.09019 -2.69385,-1.76875c-0.57327,-0.46712 -0.75489,-1.58081 -1.49185,-1.64194c-0.70746,-0.05868 -1.04225,0.96963 -1.61871,1.38392c-0.72472,0.52086 -1.51588,0.94242 -2.27383,1.41362c-2.78628,4.49871 -5.2672,12.0995 -9.6569,15.14543c-1.14939,0.79754 -2.37758,2.08458 -3.75937,1.86591c-1.30113,-0.20591 -1.79949,-1.92438 -2.69791,-2.8878c-0.17206,-0.18451 -4.00755,-4.30079 -4.09359,-4.42559c-1.8514,-2.68546 -0.96019,-5.07798 -4.54993,-5.29595c-2.91371,-0.17692 -8.32957,-1.0396 -10.93479,0.598c-3.19848,2.01051 -3.29623,5.35023 -7.99024,5.14404c-1.23016,-0.05404 -2.34079,-0.7652 -3.51119,-1.1478c-3.29417,-2.82683 -6.00193,-5.58777 -8.69652,-8.99143c-0.83674,-1.05692 -1.75871,-2.80254 -3.36529,-3.01628c-2.75683,-0.36678 -0.98367,2.33997 -2.05571,3.53035c-1.4741,1.63683 -8.34343,2.89238 -10.39843,2.20865c-2.5859,-0.86038 -4.74104,-4.79041 -6.8971,-6.39452c-1.18911,-0.8847 -2.99748,-0.67177 -4.43536,-0.31237c-4.27548,1.06867 -7.55168,5.0676 -9.97712,8.72032c-0.63726,0.73694 -4.23414,5.05386 -4.95746,5.11669c-1.41037,0.12251 -2.55029,-1.28941 -3.6292,-2.20599c-2.94323,-2.50041 -5.18967,-7.08867 -6.72618,-10.55378c-0.41786,-0.94235 -0.7694,-1.9149 -1.0795,-2.89799c-0.21701,-0.68797 0.09204,-1.69207 -0.49887,-2.10586c-0.59091,-0.41378 -1.42836,0.23239 -2.14949,0.25135c-0.80857,0.02125 -1.6741,-0.43677 -2.42299,-0.13117c-2.34823,0.95826 -3.54223,5.01552 -6.02051,6.0032c-0.92888,0.37019 -2.07522,-0.38091 -2.99979,-0.00009c-0.8761,0.36085 -1.12719,1.6177 -1.97151,2.0477c-4.88731,2.48904 -11.30115,-1.84477 -15.16175,-4.62032c-1.5807,-0.85865 -2.98205,-2.18474 -4.73482,-2.5893c-0.62256,-0.14369 -1.39167,-0.1235 -1.89825,0.26586c-1.37022,1.05316 -1.57728,3.10441 -2.66576,4.44675c-0.69234,0.85381 -2.94727,2.91178 -3.95245,3.84226l-0.20536,2.56038c-0.0545,0.77885 -0.70359,1.39375 -1.4963,1.39375c-0.8249,0 -1.49428,-0.66587 -1.49996,-1.48943l-0.01451,-1.79805c-0.45654,0.06237 -1.01722,0.534 -1.50754,0.55894c-0.74011,0.03764 -1.58137,-0.61306 -2.21191,-0.22371c-0.63054,0.38935 -0.48675,1.40198 -0.79077,2.07781c-0.42213,0.93838 -0.87154,1.86703 -1.38495,2.75875c-1.85766,3.22654 -4.06026,7.00401 -6.46374,9.8487c-1.32837,1.57223 -3.34007,3.73141 -5.75009,3.55423c-2.39995,-0.17644 -4.26316,-2.33801 -5.81613,-3.82865c-0.43433,-0.41689 -4.36767,-4.24588 -4.55243,-4.59522c-0.95268,-1.80127 -0.3482,-4.13229 -1.15704,-6.00258c-0.9691,-2.24084 -3.13918,-4.13502 -5.08976,-5.42033c-2.78498,-1.07155 -6.42368,-5.04056 -9.64663,-4.15803c-3.37041,0.92291 -6.77221,4.10604 -9.34581,6.25624c-2.29586,1.91816 -5.03341,3.51485 -7.49073,5.22395c-2.40117,1.67004 -6.43292,5.02743 -9.72554,3.30683c-0.46617,-0.2436 -3.05336,-5.13424 -3.4509,-5.8663c-2.37221,-4.3684 -5.08629,-8.54256 -7.70003,-12.77019c-2.09655,-3.40355 -3.49492,-7.01868 -5.56915,-10.40387c-0.34598,-0.56465 -0.18395,-1.5807 -0.80242,-1.8174c-0.46223,-0.1769 -0.74972,0.69358 -0.93717,1.15163c-1.11629,2.7278 -2.07831,5.26814 -3.40005,7.91797c-2.20746,4.42551 -6.68446,7.97459 -10.11716,11.40728c-0.4528,0.4528 -4.40138,4.44884 -4.74441,4.57397c-1.25849,0.45908 -2.73426,0.35059 -4.01872,-0.02982c-3.68717,-1.09201 -5.93567,-6.06803 -7.65928,-9.14311c-1.64053,0.12492 -3.20819,0.73172 -4.81447,1.08785c-1.90534,0.42244 -3.97745,-0.1013 -5.83321,0.50282c-1.6456,0.53571 -2.89443,1.89794 -4.34295,2.8449c-4.18064,2.73307 -7.4563,6.53271 -11.50033,9.46522c-2.99678,2.1731 -6.6986,7.79391 -11.07774,5.59997c-1.11577,-0.559 -1.41839,-2.05436 -2.0914,-3.10531c-1.99326,-3.11262 -3.51874,-6.30164 -4.84058,-9.65067c-0.6289,1.83623 -2.38669,3.17563 -3.34712,4.8933c-1.15329,2.06257 -1.72397,4.3731 -2.83235,6.52204c0.00829,0.06386 0.01257,0.12898 0.01257,0.1951c0,0.33196 -0.10784,0.63874 -0.29039,0.88721l-1.73609,2.42532l-0.24084,-0.1724c-0.54867,1.0285 -1.12346,2.02426 -1.72112,3.0674c-0.20907,0.71105 -0.42169,1.2989 -0.61014,1.55143c-0.02935,0.03933 -0.05981,0.07746 -0.0913,0.11448c0.69924,0.49292 1.30441,1.03269 1.69687,1.58485c3.31092,4.65829 1.81119,13.3062 1.81122,18.65716c-0.14778,3.5307 1.41452,3.75423 3.70371,6.29967c0.79339,0.8822 2.18636,1.54746 2.28415,2.72991c0.3135,3.7906 -2.39312,4.08769 -4.54776,5.63089c-1.58889,1.138 -4.93712,3.75422 -5.82099,5.4794c-1.94641,3.79911 3.80442,4.64968 -0.37588,9.04755c-0.65525,0.68936 -2.17137,-0.18694 -2.80506,0.52229c-0.69087,0.77323 0.34366,2.37707 -0.41604,3.0828c-0.71907,0.66798 -2.17318,-0.56873 -2.94412,0.03865c-0.52353,0.41246 0.36486,1.29181 0.41149,1.95667c0.07791,1.11083 0.20864,2.25499 -0.03999,3.34045c-0.22592,0.98634 -0.96162,1.78472 -1.34814,2.71987c-0.21722,0.52555 -0.89219,1.27974 -0.45556,1.64407c0.58057,0.48444 1.54239,-0.35936 2.2644,-0.13476c1.26971,0.39498 2.32898,1.28395 3.49347,1.92593c0.03659,0.91816 -0.54986,2.11473 0.10976,2.75447c0.78774,0.764 2.95435,-0.54917 3.25288,0.50682c0.45532,1.61056 -0.55606,3.55517 -1.78258,4.69395c-1.03774,0.9635 -5.09187,0.15013 -6.47384,0.48349c-3.77017,0.90944 -5.52374,2.98365 -4.98573,6.94154c0.88585,6.51678 8.49037,10.77593 12.93594,14.51465c0.71724,0.6032 1.19636,1.47578 1.9675,2.00834c0.84651,0.58461 2.27723,0.40439 2.80489,1.28752c1.73827,2.90926 -0.16126,7.98088 -1.43011,10.51591c-2.5923,1.90082 -4.94378,3.59604 -7.81935,5.0365c-0.89409,0.44788 -1.76292,0.95058 -2.68328,1.34164c-0.6456,0.27432 -1.69827,0.01667 -2.0018,0.64906c-0.30353,0.6324 0.55596,1.29252 0.74578,1.96782c0.2706,0.96269 0.43032,1.95323 0.63171,2.93274c1.17156,5.69808 8.10792,10.58396 12.16118,14.69149l2.48992,1.24496c0.50737,0.24052 0.85825,0.75737 0.85825,1.35617c0,0.81607 -0.65169,1.47993 -1.46303,1.49955l-2.99363,0.08416c-0.70034,0.12959 -1.49593,-0.35824 -2.13618,-0.04624c-0.8576,0.41792 -1.15435,1.59671 -1.98998,2.05698c-1.71861,0.94661 -3.78574,1.16501 -5.47304,2.16638c-1.55521,0.92297 -3.75361,1.02932 -4.82049,2.48958c-0.49722,0.68055 -0.0798,1.70126 -0.3256,2.50746c-0.28253,0.92665 -0.99814,1.69035 -1.24026,2.62837c-0.09885,0.38296 -0.20113,5.42189 -0.20573,5.65605c-0.06954,3.54227 -0.41793,7.33801 2.4771,10.05474c2.20469,2.06891 5.26845,1.72228 7.78298,2.53123c1.06628,0.34303 1.92858,1.13976 2.89286,1.70965l2.53952,1.54588c0.44453,0.26033 0.74309,0.74295 0.74309,1.2953c0,0.82679 -0.66892,1.49734 -1.49508,1.49999l-2.10364,0.0079c-3.04364,1.06239 -6.13384,2.31283 -9.16195,2.83602c-1.18328,0.20444 -3.32282,-0.92222 -3.41318,1.36228c-0.0883,2.2322 3.38202,4.59901 4.60534,6.05494c0.86543,1.03 2.56159,1.82505 2.49935,3.16893c-0.19871,4.29014 -3.60344,3.14484 -5.81363,4.22812c-0.82764,0.40565 -1.36732,1.24288 -2.11829,1.77728c-1.25764,0.89495 -3.81744,1.21294 -3.72303,2.75361c0.04342,0.70851 1.02914,0.98297 1.47951,1.53165c2.59818,3.16534 4.24183,6.01024 7.72256,8.32215c3.95239,2.64325 12.25162,5.74074 9.92797,12.04315c-0.1218,0.33035 -4.63056,4.89893 -4.97147,5.05903c-0.77561,0.36424 -1.85592,-0.51028 -2.57037,-0.03721c-0.4602,0.30472 -0.02498,1.12187 0.13409,1.6504c1.22624,4.07438 12.38702,7.26062 5.59391,13.13907c-0.85661,0.74127 -2.28686,0.17886 -3.35056,0.56849c-1.89651,0.69469 -2.79119,2.52325 -4.80183,3.05784c-0.82324,0.21889 -1.81212,-0.65486 -2.54586,-0.22212c-0.5651,0.33327 -0.27637,1.28433 -0.35881,1.93518c-0.22379,1.76682 -0.33221,3.54681 -0.54801,5.31463c0.5931,0.8696 3.19928,4.47863 3.00431,5.31551c-0.30548,1.31122 -1.94654,1.86305 -2.97569,2.73106c-1.4871,1.25427 -3.01234,2.4626 -4.52083,3.69105c-0.47766,0.38899 -1.38794,0.46264 -1.50918,1.0666c-0.28937,1.44152 4.54087,3.93916 5.37829,4.52082c1.55195,1.07796 3.46464,1.51066 5.17533,2.3132c0.48097,0.22564 4.46131,3.14743 5.05905,3.50473c0.66388,0.39683 5.50066,2.65599 5.7574,3.0633c4.1624,6.60385 -5.12477,6.88354 -9.12701,7.14146c-0.87305,0.05626 -1.79172,-0.13959 -2.62088,0.13948c-0.82916,0.27907 -1.4479,0.98241 -2.17185,1.47362c-3.60974,1.24295 2.84679,3.81257 4.29556,4.72473c0.84004,0.5289 1.80647,1.00428 2.80087,1.47446c0.406,-0.16347 0.97956,-0.20959 1.55249,0.36449zM-28.3587,325.71438c0.53961,-1.93675 1.05636,-3.87648 1.29628,-5.84116c1.0617,-8.69395 0.23332,-18.06972 0.35075,-26.83584c0.28117,-20.988 0.08597,-41.98947 0.08619,-62.97938c0.00013,-13.08771 2.16264,-25.89953 2.80064,-38.94243c0.38837,-7.93968 0.06764,-15.98269 0.10202,-23.93298c0.09093,-21.02403 0.7618,-42.00693 1.43354,-63.0198c0.67083,-20.94853 0.16691,-41.99139 0.16797,-62.95053c0.00041,-7.99998 0.00036,-15.99995 0.0004,-23.99993c0.00002,-3.79276 0.53525,-8.04277 0.01429,-11.79364c-0.58514,-4.21294 -2.21124,-10.14918 -3.969,-14.02071c-0.43286,-0.9534 -1.34982,-1.66067 -1.67957,-2.65446c-0.90571,-2.72958 -0.35683,-6.62519 -0.36958,-9.46955c-0.00304,-5.00127 -0.00211,-10.00254 -0.00212,-15.00381c0,-0.74918 -0.04798,-6.31922 0.17815,-6.70903c1.92176,-3.31283 6.67005,-2.6743 9.77291,-2.7577c10.9973,-0.29559 22.03892,-0.02711 33.04027,-0.02713c7,0 14,0 21,0c2.82102,0 6.00828,0.38464 8.80227,0.01309c2.93394,-0.39016 5.72678,-1.89699 8.65687,-2.34775c7.80484,-1.20069 16.32921,-0.63359 24.2111,-0.65675c11.898,-0.02525 23.88135,-2.46042 35.80854,-2.93168c8.86927,-0.35044 17.80883,-0.08291 26.68453,-0.08291c8.93789,0 18.21988,-0.73022 27.12346,0.00509c11.89174,0.98209 23.97286,3.97163 35.74497,5.9501c4.60422,1.49705 9.32285,3.55117 14.04757,4.59149c15.4887,3.41042 31.74633,2.966 47.48728,2.96682c20.99999,0.00002 41.99997,0.00001 62.99996,0.00001c21,0 42,0 63,0c11,0 22,0 33,0c4.95586,0 10.23453,-0.51665 15.15905,0.00846c4.93353,0.52607 9.90762,2.18747 14.79466,3.09516c9.83146,1.82657 19.79921,3.37524 29.53116,5.68428c3.77854,0.89651 7.59442,2.61832 11.43346,3.1682c1.08112,0.15485 5.52837,-0.14634 6.3377,0.15851c0.9553,0.35983 1.34306,1.62699 2.269,2.05676c0.76319,0.35423 1.68021,0.09624 2.51876,0.16546c3.08484,0.25462 6.11704,0.5812 9.21298,0.69972c0.56256,0.29477 5.75033,2.95202 6.08303,3.38484c0.45675,0.59419 1.29352,5.30928 1.62327,6.25625c0.64124,1.8415 1.65155,3.53293 2.47391,5.30098c1.24647,2.67988 2.98179,5.52726 3.86657,8.34348c1.87876,5.97999 1.17874,12.09115 1.68576,18.19c0.24779,2.98066 1.17025,5.90579 1.4184,8.88739c0.24888,2.99044 0.05199,6.11526 0.07542,9.11702c0.03524,21.00231 0.01603,42.00476 0.01603,63.0071c0,12.92821 0.89425,26.21148 -0.00362,39.10421c-0.55346,7.94722 -2.23294,15.97995 -3.33754,23.87203c-1.38773,9.915 -3.11386,19.78032 -4.74325,29.6583c-0.79755,4.83508 -2.02588,9.79705 -2.42631,14.67851c-0.48127,5.86698 0.00243,11.98788 0.00117,17.87769c-0.00192,8.98702 0.44374,18.09983 -0.00283,27.07423c-0.59555,11.9685 -2.9701,23.77383 -2.98183,35.77876c-0.00684,6.99956 -0.01717,13.99912 -0.01789,20.99868c-0.00041,3.97069 0.41452,8.21513 -0.00984,12.16027c-1.03311,9.60434 -6.03465,19.0036 -5.99759,28.6566c0,8 0,16 0,24c0,2 0.12309,4.00379 0,6c-0.08369,1.35731 0.52316,3.09151 -0.43511,4.05641c-0.57228,0.57624 -5.99254,0.47016 -7.06279,0.4716c-8.00066,0.0107 -16.00133,0.00802 -24.002,0.00802c-21,0 -42,0.00001 -63,0.00001c-21,0 -42,0.00001 -63,0.00001c-21,0 -42,0 -63,0c-21,0 -42,0 -63,0c-21,0 -42,0 -63,0c-21,0 -42,0 -63,0c-21,0 -42,0 -63,0c-9,0 -18,0 -27,0c-4.89396,0 -10.88834,0.98349 -15.47365,-0.98554c-6.6485,-2.85502 -12.63157,-7.98972 -17.60236,-13.09802c-0.16671,-2.07871 0.11976,-4.22222 -0.39186,-6.24388c-0.58958,-2.32975 -2.46286,-5.63468 -3.7311,-7.67754c-0.57631,-0.92831 -1.57393,-1.60501 -1.96072,-2.62691c-0.73421,-1.93982 0.10943,-4.18803 -0.33885,-6.21313c-0.38482,-1.73842 -1.16176,-3.41419 -1.41228,-5.16651c-0.08615,1.50574 -0.13099,3.00334 -0.12983,4.47549c0,0 0,1.5 -1.5,1.5c-1.5,0 -1.5,-1.5 -1.5,-1.5c0.0027,-3.62797 0.26568,-7.3994 0.73432,-11.08155c-1.25679,-2.9457 -1.32487,-6.59471 0.99104,-9.09736c0.30343,-0.3279 0.65748,-0.57702 1.04582,-0.77338zM482.60759,242.82238c0.17273,0.1544 0.34731,0.30281 0.52387,0.44441c0.14025,0.11248 0.04791,-0.53535 -0.13145,-0.52307c-0.13474,0.00922 -0.26497,0.03782 -0.39242,0.07866z" stroke-width="0.5" stroke-linecap="butt"/><path d="M39.57103,34.31568l-51.05105,-81.08108" stroke-width="3" stroke-linecap="round"/><path d="M69.60106,23.80518l-27.02703,-45.04505" stroke-width="3" stroke-linecap="round"/><path d="M108.6401,25.30667l-22.52252,-73.57357" stroke-width="3" stroke-linecap="round"/><path d="M143.17463,28.30968l-13.51351,-69.06907" stroke-width="3" stroke-linecap="round"/><path d="M191.22268,-31.75038l1.5015,72.07207" stroke-width="3" stroke-linecap="round"/><path d="M221.25271,19.30067l9.00901,-60.06006" stroke-width="3" stroke-linecap="round"/><path d="M260.29175,23.80517v-49.54955" stroke-width="3" stroke-linecap="round"/><path d="M303.8353,-25.74438l3.003,40.54054" stroke-width="3" stroke-linecap="round"/><path d="M359.39085,22.30367l7.50751,-46.54655" stroke-width="3" stroke-linecap="round"/><path d="M323.35481,22.30367l-1.5015,-31.53153" stroke-width="3" stroke-linecap="round"/><path d="M405.9374,-18.23687v43.54354" stroke-width="3" stroke-linecap="round"/><path d="M444.97644,-0.21885l-10.51051,30.03003" stroke-width="3" stroke-linecap="round"/><path d="M479.51097,-16.73537l-27.02703,37.53754" stroke-width="3" stroke-linecap="round"/><path d="M485.51698,35.81718l-39.03904,18.01802" stroke-width="3" stroke-linecap="round"/><path d="M490.02148,67.34871l-40.54054,18.01802" stroke-width="3" stroke-linecap="round"/><path d="M481.01247,113.89526l-25.52553,3.003" stroke-width="3" stroke-linecap="round"/><path d="M485.51698,151.4328l-16.51652,10.51051" stroke-width="3" stroke-linecap="round"/><path d="M488.51998,191.97334l-37.53754,-10.51051" stroke-width="3" stroke-linecap="round"/><path d="M487.01848,241.52289l-39.03904,-12.01201" stroke-width="3" stroke-linecap="round"/><path d="M482.51397,262.54391l-21.02102,-9.00901" stroke-width="3" stroke-linecap="round"/><path d="M488.51998,283.56493l-42.04204,-12.01201" stroke-width="3" stroke-linecap="round"/><path d="M493.02449,327.10847l-48.04805,-15.01502" stroke-width="3" stroke-linecap="round"/><path d="M487.01848,364.64601l-30.03003,-27.02703" stroke-width="3" stroke-linecap="round"/><path d="M443.47494,361.64301l-16.51652,-27.02703" stroke-width="3" stroke-linecap="round"/><path d="M386.41788,331.61298l3.003,37.53754" stroke-width="3" stroke-linecap="round"/><path d="M363.89536,366.14751l-9.00901,-30.03003" stroke-width="3" stroke-linecap="round"/><path d="M338.36983,355.637l-4.5045,-33.03303" stroke-width="3" stroke-linecap="round"/><path d="M303.8353,364.64601l1.5015,-18.01802" stroke-width="3" stroke-linecap="round"/><path d="M248.27974,366.14751l1.5015,-27.02703" stroke-width="3" stroke-linecap="round"/><path d="M215.24671,363.14451l-9.00901,-30.03003" stroke-width="3" stroke-linecap="round"/><path d="M180.71217,367.64901v-25.52553" stroke-width="3" stroke-linecap="round"/><path d="M137.16863,360.14151l-7.50751,-21.02102" stroke-width="3" stroke-linecap="round"/><path d="M107.1386,372.15352l-12.01201,-30.03003" stroke-width="3" stroke-linecap="round"/><path d="M78.61007,349.63099l9.00901,15.01502" stroke-width="3" stroke-linecap="round"/><path d="M59.09055,340.62198l-21.02102,25.52553" stroke-width="3" stroke-linecap="round"/><path d="M11.0425,360.14151l33.03303,-19.51952" stroke-width="3" stroke-linecap="round"/><path d="M6.538,327.10847l31.53153,-12.01201" stroke-width="3" stroke-linecap="round"/><path d="M0.53199,298.57995l18.01802,-3.003" stroke-width="3" stroke-linecap="round"/><path d="M2.03349,277.55892l18.01802,-6.00601" stroke-width="3" stroke-linecap="round"/><path d="M21.55301,238.51989h-30.03003" stroke-width="3" stroke-linecap="round"/><path d="M-9.97852,219.00037l31.53153,-1.5015" stroke-width="3" stroke-linecap="round"/><path d="M-3.97251,179.96133l36.03604,10.51051" stroke-width="3" stroke-linecap="round"/><path d="M24.55602,154.4358l-25.52553,6.00601" stroke-width="3" stroke-linecap="round"/><path d="M-2.47101,131.91328h22.52252" stroke-width="3" stroke-linecap="round"/><path d="M-2.47101,101.88325l31.53153,7.50751" stroke-width="3" stroke-linecap="round"/><path d="M-6.97551,68.85022l36.03604,10.51051" stroke-width="3" stroke-linecap="round"/><path d="M29.06052,49.33069l-16.51652,-13.51351" stroke-width="3" stroke-linecap="round"/></g></g></svg>