<svg version="1.1" xmlns="http://www.w3.org/2000/svg" xmlns:xlink="http://www.w3.org/1999/xlink" width="147.49988" height="79.41143" viewBox="0,0,147.49988,79.41143"><g transform="translate(-115.3674,-217.09388)"><g data-paper-data="{&quot;isPaintingLayer&quot;:true}" fill-rule="nonzero" stroke="none" stroke-width="0.5" stroke-linecap="butt" stroke-linejoin="miter" stroke-miterlimit="10" stroke-dasharray="" stroke-dashoffset="0" style="mix-blend-mode: normal"><path d="M157.9369,265.83084c-0.04634,-5.37359 -0.20418,-9.7576 3.2651,-14.46352c3.68775,-5.00226 9.8318,-7.55509 11.88414,-13.5975c1.15908,-3.41254 -0.99658,-10.2482 2.19041,-12.75535c1.213,-0.95425 3.08826,-0.20652 4.60242,-0.50532c1.46886,-0.28986 2.89191,-0.78264 4.31296,-1.25401c3.6413,-1.20784 5.92562,-3.55649 8.71965,-6.08326c3.99397,-0.20624 7.58864,0.00763 11.49409,0.51056c3.06893,0.3952 4.44215,-1.02978 8.02547,0.1222c1.47973,0.47571 2.3395,2.08259 3.69268,2.8473c0.66169,0.37394 1.50242,0.26228 2.2253,0.49706c0.51159,0.16616 0.95091,0.88631 1.45484,0.6982c0.97668,-0.36459 1.27557,-2.20495 2.31326,-2.10482c2.35123,0.22688 4.66927,1.39015 6.44333,2.94978c0.98216,0.86345 0.84792,2.47718 1.17112,3.74436c0.85189,3.34 0.90149,6.67418 0.74303,10.09827c-0.04602,0.99441 -0.66418,2.06327 -0.26393,2.97474c0.33281,0.75789 1.5129,0.72461 2.13045,1.27578c1.24245,1.10891 2.80553,2.10489 3.40021,3.66044c1.06342,2.78168 0.87045,6.04453 0.14519,8.93289c-0.22683,0.90336 -1.19404,1.52061 -1.3702,2.43521c-0.05734,0.29768 0.55279,0.24903 0.82919,0.37355c0.94898,0.25119 2.06825,0.15582 2.84693,0.75357c3.33286,2.55845 4.22348,7.26208 7.61502,9.62574c1.71248,1.19348 4.91435,1.68694 6.12188,3.44229c0.69113,1.00468 0.0788,2.45149 0.34109,3.64239c0.28749,1.3053 0.91531,2.51328 1.29684,3.79426c1.32742,4.45684 1.95151,12.39077 -3.48998,14.60485c-1.56015,0.63481 -3.36563,0.1491 -5.04948,0.1903c-3.39238,0.083 -6.85977,-0.24192 -10.23909,-0.00952c-2.17788,0.14978 -4.1056,1.52959 -6.23974,1.98902c-3.62784,0.781 -8.04506,0.07193 -11.76123,0.05195c-5.17384,-1.13665 -9.94322,-2.62096 -14.92155,-4.41339c-1.98853,-0.71596 -3.76338,-2.08786 -5.84388,-2.45984c-5.47416,-0.97875 -12.21224,0.06688 -17.84308,0.06688c-2.9019,0 -7.52096,-0.72497 -10.44128,-0.04511c-1.19257,0.27763 -2.21309,1.10899 -3.41064,1.36426c-3.84199,0.81894 -8.80872,0.05657 -12.75108,0.04511c-2.17768,-0.00633 -4.7009,0.21997 -6.68877,-1.00663c-1.39763,-0.86239 -2.34991,-2.29482 -3.52487,-3.44224c-0.97915,-1.9357 -3.28641,-5.58535 -2.28956,-7.96344c0.54716,-1.30533 2.43833,-1.45669 3.53802,-2.34772c2.87007,-2.32548 2.90366,-4.07144 6.77341,-5.78799c1.82119,-0.80785 4.1353,0.22525 5.94625,-0.60532c0.86602,-0.39719 1.49929,-1.17608 2.24894,-1.76412zM159.95414,270.40039c-0.11998,0.01229 -0.19227,0.01229 -0.19227,0.01229l0.81787,-0.5c-0.21306,0.15465 -0.42047,0.31919 -0.62561,0.48771z" fill="#a6a6a6"/><path d="M159.38333,277.71215c-0.04634,-3.12846 -0.20418,-5.68079 3.2651,-8.42054c3.68775,-2.91227 9.8318,-4.39851 11.88414,-7.91635c1.15908,-1.98675 -0.99658,-5.96642 2.19041,-7.42606c1.213,-0.55556 3.08826,-0.12023 4.60242,-0.29419c1.46886,-0.16875 2.89191,-0.45565 4.31296,-0.73007c3.6413,-0.70319 5.92562,-2.07056 8.71965,-3.54162c3.99397,-0.12007 7.58864,0.00444 11.49409,0.29724c3.06893,0.23008 4.44215,-0.59953 8.02547,0.07114c1.47973,0.27695 2.3395,1.21247 3.69268,1.65767c0.66169,0.2177 1.50242,0.1527 2.2253,0.28938c0.51159,0.09674 0.95091,0.516 1.45484,0.40649c0.97668,-0.21226 1.27557,-1.2837 2.31326,-1.22541c2.35123,0.13209 4.66927,0.80933 6.44333,1.71734c0.98216,0.50269 0.84792,1.44219 1.17112,2.17993c0.85189,1.94452 0.90149,3.88565 0.74303,5.87913c-0.04602,0.57894 -0.66418,1.20122 -0.26393,1.73187c0.33281,0.44124 1.5129,0.42186 2.13045,0.74275c1.24245,0.6456 2.80553,1.22545 3.40021,2.13108c1.06342,1.61947 0.87045,3.51907 0.14519,5.20065c-0.22683,0.52593 -1.19404,0.88529 -1.3702,1.41776c-0.05734,0.17331 0.55279,0.14498 0.82919,0.21748c0.94898,0.14624 2.06825,0.09072 2.84693,0.43872c3.33286,1.48951 4.22348,4.22792 7.61502,5.60402c1.71248,0.69483 4.91435,0.98212 6.12188,2.00407c0.69113,0.58492 0.0788,1.42724 0.34109,2.12057c0.28749,0.75993 0.91531,1.46321 1.29684,2.20899c1.32742,2.59473 1.95151,7.2138 -3.48998,8.50282c-1.56015,0.36958 -3.36563,0.0868 -5.04948,0.11079c-3.39238,0.04832 -6.85977,-0.14084 -10.23909,-0.00554c-2.17788,0.0872 -4.1056,0.89051 -6.23974,1.15799c-3.62784,0.45469 -8.04506,0.04188 -11.76123,0.03024c-5.17384,-0.66175 -9.94322,-1.5259 -14.92155,-2.56944c-1.98853,-0.41683 -3.76338,-1.21553 -5.84388,-1.4321c-5.47416,-0.56982 -12.21224,0.03894 -17.84308,0.03894c-2.9019,0 -7.52096,-0.42207 -10.44128,-0.02626c-1.19257,0.16163 -2.21309,0.64564 -3.41064,0.79426c-3.84199,0.47678 -8.80872,0.03293 -12.75108,0.02626c-2.17768,-0.00369 -4.7009,0.12806 -6.68877,-0.58605c-1.39763,-0.50208 -2.34991,-1.33602 -3.52487,-2.00404c-0.97915,-1.12695 -3.28641,-3.25174 -2.28956,-4.63625c0.54716,-0.75995 2.43833,-0.84807 3.53802,-1.36682c2.87007,-1.35387 2.90366,-2.37036 6.77341,-3.36972c1.82119,-0.47032 4.1353,0.13114 5.94625,-0.35241c0.86602,-0.23124 1.49929,-0.6847 2.24894,-1.02706zM161.40057,280.3725c-0.11998,0.00716 -0.19227,0.00716 -0.19227,0.00716l0.81787,-0.2911c-0.21306,0.09004 -0.42047,0.18583 -0.62561,0.28394z" fill="#858585"/><path d="" fill="#acacac"/><path d="" fill="#acacac"/><path d="" fill="#c4c4c4"/><path d="" fill="#b2b2b2"/><path d="" fill="#515151"/><path d="" fill="#515151"/><path d="" fill="#515151"/><path d="" fill="#515151"/><path d="" fill="#515151"/><path d="" fill="#515151"/><path d="" fill="#515151"/><path d="" fill="#515151"/><path d="" fill="#515151"/><path d="" fill="#515151"/><path d="" fill="#717171"/><path d="" fill="#717171"/><path d="" fill="#717171"/><g><path d="" fill="#ee0000"/><path d="" fill="#dd0000"/><path d="" fill="#dd0000"/><path d="" fill="#ffde00"/><path d="" fill="#ffe850"/><path d="" fill="#ffe850"/><path d="" fill="#ffe850"/><path d="" fill="#ffe850"/><path d="" fill="#f5d400"/></g><g><path d="" fill="#ee0000"/><path d="" fill="#dd0000"/><path d="" fill="#dd0000"/><path d="" fill="#ffde00"/><path d="" fill="#ffe850"/><path d="" fill="#ffe850"/><path d="" fill="#ffe850"/><path d="" fill="#ffe850"/><path d="" fill="#f5d400"/></g><path d="M190.47027,279.18802c-0.0165,0.16356 -0.04557,0.31341 -0.08519,0.45069c0.20513,0.44484 0.38315,0.89612 0.46709,1.3698c0.11364,0.64126 -0.46615,1.2938 -0.31129,1.92791c0.13696,0.56082 2.75488,1.85752 2.84493,1.89657c2.76907,1.20073 4.71192,0.76384 5.35896,4.63278c0.30061,1.79751 0.32234,3.98603 -0.95807,5.3845c-1.05381,1.15098 -3.19678,0.78662 -4.83673,0.94461c-2.5775,0.24831 -5.55409,-0.4779 -7.94383,-1.23571c-1.59641,-0.12346 -3.20224,-0.67964 -4.78223,-0.4384c-3.44129,0.52543 -5.44032,1.95134 -9.26325,0.96129c-2.16185,-0.55987 -3.84908,-2.21146 -6.00787,-2.78099c-1.90653,-0.50298 -4.01928,-0.37513 -5.82721,-1.11977c-0.80782,-0.33271 -1.40762,-1.16519 -2.29213,-1.22722c-0.97885,-0.06866 -1.80559,0.80217 -2.7844,0.87119c-2.99043,0.21083 -5.84586,-1.22184 -8.76413,-1.85073c-1.43805,-0.30989 -2.99108,-0.01395 -4.41501,-0.37352c-5.14037,-1.29806 -5.77813,-3.70234 -8.39754,-7.31169c-0.90357,-1.24505 -2.05919,-2.35253 -2.78492,-3.68994c-0.13027,-0.24007 -0.27718,-0.48352 -0.43006,-0.72972c-1.82423,-0.82915 -1.48583,-3.75159 -2.47061,-4.87349c-1.16312,-1.32509 -3.55187,-1.38643 -4.76065,-2.67745c-1.46181,-1.56126 -1.86337,-3.77095 -3.22811,-5.40297c-1.08328,-1.29541 -3.43584,-2.13008 -3.43062,-3.75616c0.0061,-1.90402 2.15329,-3.28195 3.45797,-4.77326c1.67156,-1.91066 3.82099,-2.98391 6.21591,-3.16413c-1.99891,-1.5131 -4.24692,-3.4348 -4.55278,-5.2283c-0.9818,-5.75701 9.03701,-7.50415 12.89307,-8.72687c1.9908,-0.63126 3.69978,-1.83737 5.54939,-2.75654c1.77475,-0.88197 3.97138,-0.71216 5.97105,-0.9933c0.92249,-0.12969 1.68439,-0.80514 2.60857,-0.92453c3.15376,-0.40741 7.64931,0.29308 9.96589,2.38854c2.50248,2.26363 4.14818,5.89171 5.60289,8.77267c4.82531,0.04221 8.39091,2.91684 10.37085,6.85876c0.2965,0.59033 -0.29107,1.43513 0.15651,1.94102c0.50304,0.5686 1.54295,0.43774 2.25181,0.78118c2.5817,1.25085 4.58458,2.46285 5.14664,5.45348c0.89128,4.74233 -2.52701,7.2113 -2.94601,11.52271c-0.09167,0.9433 -0.13414,1.89209 -0.28532,2.82907c-0.09839,0.60987 -0.81726,1.27581 -0.46171,1.80102c0.61349,0.90624 2.00491,1.1176 2.90137,1.80284c0.84998,0.64971 1.30894,1.74402 2.31056,2.18107c0.94507,0.41238 2.00751,0.4115 3.08529,0.36435c-0.10856,-0.18825 -0.21573,-0.37685 -0.30573,-0.56982l3.03405,-2.85623c0,0 2.3474,0.19489 2.1326,2.32472z" fill="#d0d0d0"/><path d="M196.94649,292.86207c-0.2148,2.12983 -2.56219,1.93494 -2.56219,1.93494l-2.34818,-0.19495c-5.14497,-0.44463 -10.83918,0.3276 -15.91421,-0.9193c-0.95965,-0.23578 -1.77603,-0.83793 -2.73188,-1.08615c-2.9681,-0.77084 -6.74086,0.24547 -9.61479,-0.84247c-1.16966,-0.44279 -1.96606,-1.49311 -3.11556,-1.97737c-2.17497,-0.91626 -6.86185,-0.49775 -9.26706,-0.69743c-2.51191,-0.20855 -5.28032,-0.19817 -7.74444,-0.65342c-1.86312,-0.34421 -3.48912,-1.43137 -5.02658,-2.44633c-2.67197,-1.76389 -5.54198,-2.77963 -7.27594,-5.54547c-0.41855,-0.66764 -0.32699,-1.53034 -0.72439,-2.20853c-0.4849,-0.82746 -1.55583,-1.34524 -1.87961,-2.23515c-0.72971,-2.00557 0.67488,-5.04996 -1.34018,-6.92504c-0.44051,-0.40991 -1.30448,-0.06228 -1.85516,-0.34179c-4.22217,-2.14302 -7.02232,-4.52164 -8.45876,-8.76365c0,0 -0.67237,-2.04987 1.58692,-2.65994c2.25927,-0.61005 2.93165,1.43983 2.93165,1.43983c0.98817,3.14577 3.00958,4.55617 6.13372,6.1975c0.84477,0.44381 2.09533,0.2477 2.75525,0.90033c1.45396,1.43792 2.85365,5.1567 3.06385,7.23842c0.05595,0.55404 -0.51963,1.11974 -0.31545,1.64433c0.24901,0.63979 1.17098,0.89226 1.53369,1.48564c0.41059,0.6717 0.34157,1.52346 0.72439,2.20853c0.58422,1.04544 2.18771,1.98156 3.16584,2.57019c1.47452,0.88734 2.75429,2.03414 4.27486,2.85501c2.18111,1.17746 6.39669,0.77369 8.87996,0.97987c2.97003,0.24658 7.70882,-0.10041 10.45767,0.94018c1.16966,0.44279 1.96606,1.49311 3.11556,1.97737c2.45452,1.03403 6.5044,0.06209 9.17066,0.71715c0.95965,0.23578 1.77603,0.83793 2.73188,1.08615c4.7462,1.23261 10.32357,0.41363 15.16774,0.80186l2.34818,0.19495c0,0 2.3474,0.19489 2.1326,2.32472z" fill="#bdbdbd"/><path d="M126.99229,245.55796c-0.29458,-0.34223 -0.4877,-0.82531 -0.41904,-1.5061c0.2148,-2.12983 2.56219,-1.93494 2.56219,-1.93494c1.99304,0.20112 2.84768,0.50241 4.92914,-0.53784c1.95398,-0.97653 3.29677,-2.92791 5.41133,-3.57274c2.17387,-0.66291 6.30495,-0.46953 8.50439,0.1281c3.23603,0.87928 5.16326,3.13479 7.78305,4.73561c0.90474,0.55284 2.12071,0.62699 2.9682,1.25005c0.52099,0.38303 0.34579,1.32224 0.93213,1.61744c0.90381,0.45504 2.32434,-0.25227 3.0698,0.39738c3.0084,2.62176 1.09937,5.59233 0.5041,8.32601c-0.2243,1.03006 2.30691,0.17374 3.46262,0.22759c1.02393,0.085 5.14185,0.37479 5.72348,0.70191c1.78519,1.004 4.36957,5.87435 4.67324,7.62739c0.22333,1.28928 0.78449,2.89394 -0.11281,3.91398c-1.02968,1.17054 -3.03464,1.26488 -4.66225,1.51424c-1.07719,0.16503 -2.23163,0.03265 -3.26054,-0.30042c-1.83487,-0.59398 -5.26649,-2.94812 -6.2337,-4.49893c-0.74631,-1.19659 0.38516,-3.12041 -0.70576,-4.07468c-0.28144,-0.24619 -0.75599,0.24768 -1.14617,0.2256c-1.11955,-0.06339 -2.41361,0.11645 -3.32356,-0.4787c-1.36706,-0.8941 -2.18293,-2.35069 -3.0264,-3.67441c-0.05285,-0.08294 -0.90264,-3.24094 -1.4723,-3.58311c-0.37716,-0.22655 -0.90038,0.11132 -1.35252,0.09968c-2.53993,-0.06539 -5.14597,-0.43904 -7.66334,-0.71416c-1.5901,-1.00433 -4.0544,-3.40034 -6.05235,-3.90071c-2.14103,-0.53621 -4.8515,-0.36403 -7.07415,-0.54857l-1.34577,0.25381c0,0 -2.26076,0.31784 -2.67298,-1.69349z" fill="#d9d9d9"/><path d="M212.49409,287.90917c-0.66793,-0.98953 1.00043,-1.3857 1.00043,-1.3857l2.90211,0.97248c-0.01947,0.10379 -0.05252,0.20771 -0.08667,0.31163c0.79879,-0.11663 1.57528,-0.25339 2.16686,-0.57237c0.62698,-0.33806 0.69978,-0.92 1.16492,-1.34006c0.4906,-0.44304 1.45653,-0.72363 1.68734,-1.23569c0.13376,-0.29676 -0.55126,-0.52201 -0.76945,-0.8006c-0.33527,-0.42801 -0.59392,-0.87569 -0.88723,-1.3144c-1.34056,-2.00515 -4.43048,-2.74306 -4.91707,-5.1232c-0.30684,-1.50098 0.86576,-2.33846 2.45198,-3.26922c0.43553,-0.25556 1.22675,-0.32732 1.45787,-0.66384c0.20564,-0.29942 -0.42635,-0.62705 -0.35133,-0.94729c0.5009,-2.1384 2.41642,-3.97177 5.9319,-4.61494c0.37168,-1.56385 0.70366,-3.5092 1.989,-4.91347c1.18987,-1.29995 4.30648,-2.21496 6.70854,-2.42755c0.70389,-0.0623 1.42263,0.16195 2.12776,0.10478c1.52852,-0.12391 3.09274,-0.48862 4.60107,-0.29651c1.57194,0.20021 3.10999,0.55564 4.71603,0.6001c3.1108,0.08614 10.85024,-0.37293 11.51411,2.50354c0.20682,0.89612 -0.97463,2.10422 -2.07211,3.085c1.79309,-0.22314 3.62108,0.01196 5.30081,0.70872c1.31108,0.54384 3.21052,0.92475 3.6718,1.83337c0.39395,0.77599 -1.1247,1.47839 -1.60539,2.23698c-0.60558,0.9557 -0.36883,2.06295 -1.06233,2.9974c-0.57345,0.77269 -2.30407,1.1104 -2.836,1.89348c-0.45036,0.663 0.49805,2.01514 -0.63589,2.6467c-0.05265,0.13734 -0.10156,0.27257 -0.13914,0.40407c-0.20938,0.73249 -0.78802,1.41065 -1.14951,2.12199c-1.04792,2.06213 -0.93705,3.29282 -4.38144,4.57649c-0.95413,0.35559 -2.15986,0.41476 -3.13622,0.74843c-1.98135,0.67717 -3.72394,1.73012 -5.95949,2.01552c-0.73173,0.09342 -1.54472,-0.21577 -2.24345,-0.0566c-0.63138,0.14383 -0.86989,0.61889 -1.3803,0.8821c-1.14231,0.58909 -2.71667,0.80081 -3.98899,1.2872c-1.44067,0.55075 -2.27721,1.55744 -3.72244,2.10397c-2.5557,0.96647 -4.3584,0.54351 -6.99885,0.73687c-1.2123,0.08878 -2.25216,0.56176 -3.38897,0.82684c-1.56426,0.6705 -3.56486,1.40167 -5.5077,1.61586c-1.23613,0.13628 -2.71447,0.58699 -3.7606,0.17331c-1.27106,-0.50263 -1.78026,-1.55074 -1.99189,-2.44809c-0.45549,-1.93145 1.06888,-1.97363 2.80403,-2.90465c0.05642,-0.03027 1.6581,-0.98762 1.62362,-1.27317c-0.03899,-0.32286 -0.61917,-0.55967 -0.69,-0.88063c-0.0523,-0.23708 -0.03051,-0.4756 0.01263,-0.71456c-0.06188,-0.06045 -0.11908,-0.12827 -0.17037,-0.20426z" data-paper-data="{&quot;index&quot;:null}" fill="#d0d0d0"/><path d="M211.04293,295.27644c-0.66793,-0.98953 1.00043,-1.3857 1.00043,-1.3857l1.66894,-0.39629c3.44626,-0.81087 7.71786,-1.13981 10.88995,-2.34133c0.63883,-0.24197 1.09086,-0.63497 1.73546,-0.8715c1.79094,-0.65712 4.98318,-0.71579 6.5285,-1.52658c0.7237,-0.37971 1.0536,-0.9842 1.80198,-1.3467c1.75879,-0.85192 5.30444,-1.29802 7.41535,-1.79927c1.76494,-0.41909 4.94194,-0.77053 6.25307,-1.61453c0.91406,-0.58839 1.57398,-1.30137 2.43845,-1.91558c0.57345,-0.40744 1.52043,-1.06159 1.69647,-1.63635c0.11534,-0.37663 -0.13945,-0.77455 -0.0006,-1.14838c0.12265,-0.33024 0.73572,-0.56987 0.76415,-0.9076c0.02333,-0.27692 -0.53296,-0.4728 -0.62499,-0.74465c-0.34587,-1.02143 -0.2154,-2.97834 0.50195,-3.85285c0.32559,-0.39692 1.28638,-0.46471 1.79713,-0.78576c1.88887,-1.18731 3.02741,-2.12194 2.99468,-3.75204c0,0 -0.00054,-1.0659 1.79657,-1.06622c1.79713,-0.00032 1.79767,1.06557 1.79767,1.06557c-0.03177,2.21156 -1.50703,3.70919 -4.0778,5.2779c-0.33529,0.2046 -1.04995,0.15011 -1.27348,0.40277c-1.02244,1.15576 0.73426,2.42849 0.68228,3.48062c-0.02306,0.46685 -0.6813,0.85243 -0.83708,1.31025c-0.12765,0.37523 0.14623,0.77545 0.0006,1.14838c-0.60332,1.54492 -2.45662,2.40062 -3.98569,3.58809c-0.87984,0.68328 -1.80705,1.41247 -3.08576,1.81743c-1.69118,0.53559 -3.71642,0.88806 -5.50171,1.31199c-1.70946,0.40592 -5.23434,0.81116 -6.60366,1.5296c-0.7237,0.37971 -1.0536,0.9842 -1.80198,1.3467c-1.83882,0.89069 -4.83922,0.89238 -6.82292,1.64377c-0.63883,0.24197 -1.09086,0.63497 -1.73546,0.8715c-3.40891,1.25081 -7.75468,1.61716 -11.40718,2.49381l-1.66894,0.39629c0,0 -1.66836,0.39616 -2.33631,-0.59337z" data-paper-data="{&quot;index&quot;:null}" fill="#bdbdbd"/><path d="M250.80574,263.65072c0.18138,1.01389 -1.5467,1.15398 -1.5467,1.15398l-1.04418,0.05253c-1.5797,0.37511 -3.60142,0.64283 -5.03713,1.17537c-1.33976,0.49695 -2.56545,1.95952 -3.48629,2.64452c-1.77331,0.45643 -3.58778,0.97137 -5.4279,1.33053c-0.32757,0.06394 -0.79091,-0.02989 -1.01214,0.12702c-0.33412,0.23698 -0.19736,1.85505 -0.21607,1.90148c-0.29869,0.74115 -0.54534,1.5422 -1.32968,2.14574c-0.52206,0.40175 -1.51073,0.48292 -2.31351,0.65775c-0.27978,0.06092 -0.74501,-0.11369 -0.89158,0.04024c-0.56814,0.59663 0.72015,1.36942 0.46195,2.0373c-0.33462,0.86559 -2.27713,2.43306 -3.47527,2.95366c-0.67187,0.29193 -1.48359,0.50421 -2.31024,0.56446c-1.24905,0.09104 -2.73661,0.30485 -3.76978,-0.12128c-0.90035,-0.37135 -0.87533,-1.21023 -1.02148,-1.85486c-0.19871,-0.8765 0.52105,-3.53639 1.58452,-4.24642c0.34648,-0.23133 3.28572,-0.90143 4.01346,-1.07423c0.8315,-0.17494 2.88639,-0.09275 2.47536,-0.55577c-1.0908,-1.22882 -3.19836,-2.40116 -1.62928,-4.04182c0.3888,-0.40654 1.59641,-0.25211 2.14761,-0.58614c0.35759,-0.21669 0.00424,-0.64267 0.293,-0.89288c0.46974,-0.40701 1.34039,-0.59943 1.86881,-0.98029c1.53009,-1.10285 2.39706,-2.42898 4.55052,-3.26675c1.46364,-0.56942 4.43562,-1.19516 6.18301,-1.1592c1.69972,0.03497 3.14901,0.79364 4.81097,1.00777c1.77041,0.22811 2.32256,-0.02613 3.73053,-0.37953c0,0 1.66836,-0.39616 2.33631,0.59337c0.21351,0.3163 0.1883,0.57197 0.05517,0.77346z" data-paper-data="{&quot;index&quot;:null}" fill="#d9d9d9"/><path d="M211.49676,226.31458c1.464,3.67562 -0.96524,8.51717 -3.67239,10.9874c-1.19879,1.09388 -2.44105,2.59314 -4.06131,2.68494c-2.2027,0.1248 -4.88094,-0.39082 -6.27699,-2.09918c-0.13395,-0.16391 1.38353,-4.86947 1.05026,-6.23537c-0.25966,-1.06423 -3.32621,-1.874 -3.38575,-1.91608c-0.78131,-0.5521 -1.07529,-1.68834 -1.92418,-2.12951c-1.73022,-0.89921 -5.26472,0.7937 -6.61175,1.50573c0,0 -0.37882,0.18941 -0.90257,0.25639c-2.48308,1.17812 -5.36473,1.55613 -8.11228,1.58691c0,0 -2.5,0 -2.5,-2.5c0,-2.5 2.5,-2.5 2.5,-2.5c2.14684,0.03143 4.44165,-0.22603 6.31304,-1.27855c3.70546,-2.08407 5.13187,-5.11038 9.52868,-5.80442c3.69721,-0.5836 8.04368,-0.0396 11.79714,-0.02416c2.50545,0.01031 4.56907,-0.25178 6.89193,1.19467c0.97964,0.61003 1.43884,1.81547 2.281,2.60451c2.82184,2.64383 6.86185,1.73415 10.29303,1.34904l1.06576,-0.01529c0,0 2.5,0 2.5,2.5c0,2.5 -2.5,2.5 -2.5,2.5l-0.5136,-0.01529c-3.76808,0.41475 -7.59657,1.0539 -11.19643,-0.61043c-1.0214,-0.47223 -1.81632,-1.28134 -2.59556,-2.12055c0.01072,0.02623 0.02138,0.05264 0.03198,0.07925z" fill="#c0c0c0"/><g><path d="M208.70814,257.70394c-1.16899,2.02958 -2.47172,3.69786 -3.32974,5.89785l0.03123,0.05006c0,0 -0.10643,0.83337 -0.82799,1.04644c0.01755,0.26048 -0.06019,0.56009 -0.33223,0.87339c-0.81954,0.94386 -1.76339,0.12432 -1.76339,0.12432l-0.04303,-0.31538c-2.44452,-0.31216 -3.9167,-0.66647 -6.00147,-2.08961c-1.38377,-2.23119 -1.53519,-4.57766 -4.08323,-5.78199c-1.44201,-0.68157 -5.37986,-0.70706 -6.61607,-2.32075c0.03903,-0.0466 0.07919,-0.09286 0.12063,-0.13888c0.36887,0.16706 0.75571,0.24892 1.14403,0.19683c0.74409,-0.09982 1.23591,-0.85268 1.85387,-1.27902l0.8865,-1.10975c0,0 0.77371,-0.98178 -0.20806,-1.75549c-0.98178,-0.77371 -1.75548,0.20805 -1.75548,0.20805l-0.00858,0.01109c-0.30229,-0.07326 -0.58259,-0.13691 -0.84753,-0.20171c0.27159,-0.43535 0.51039,-0.81258 0.64343,-1.06593c0.05657,-0.10773 0.11139,-0.21623 0.16456,-0.32545c1.37333,-0.53889 2.75836,-1.34981 4.85818,-2.22619c1.22874,-0.51283 3.10195,0.10583 4.23051,-0.61712c1.90013,-1.21721 3.348,-3.59989 5.12282,-4.54369c0.2299,-0.12226 0.4585,-0.2237 0.68626,-0.31043c0.11367,0.50899 0.22426,1.00564 0.65972,1.17417c0.81394,0.315 1.87343,0.2706 2.97386,0.21108c0.02612,0.39316 0.15574,0.86115 0.42186,1.46374c0.2215,0.50155 1.2406,0.39548 1.35564,0.93155l-0.9853,0.8632c0,0 -0.84954,0.91696 0.06741,1.76648c0.91695,0.84955 1.76647,-0.06741 1.76647,-0.06741l1.55662,-1.88039c-0.15998,-0.81823 -0.07319,-1.72691 -0.47995,-2.45466c-0.20782,-0.37182 -0.85869,-0.21827 -1.17407,-0.50461c-0.04483,-0.04071 -0.0691,-0.08534 -0.07687,-0.13284c0.57707,0.06082 1.12013,0.19522 1.59492,0.46081c1.08158,0.60497 2.55619,2.54956 3.53137,3.49613c0,0 0.89694,0.87063 0.02631,1.76757c-0.32553,0.33538 -0.65475,0.42363 -0.93938,0.40268c-2.98225,2.20001 -2.46107,5.11539 -4.22384,8.17588z" fill="#d10000"/><path d="" fill="#d10000"/><path d="M186.83752,255.66682c-0.24408,0.04399 -0.53465,0.00558 -0.86425,-0.19813c-0.11195,-0.06919 -0.20481,-0.1429 -0.28139,-0.21938c0.05464,-0.06731 0.1115,-0.13388 0.17097,-0.19993c0.36887,0.16706 0.7557,0.24892 1.14402,0.19683c0.74409,-0.09982 1.23591,-0.85268 1.85388,-1.27902l0.88649,-1.10975c0,0 0.77372,-0.98178 -0.20805,-1.75549c-0.98178,-0.77371 -1.75549,0.20805 -1.75549,0.20805l-0.00857,0.01107c-0.28481,-0.06903 -0.55009,-0.12952 -0.8014,-0.19046c0.25467,-0.47458 0.52311,-0.95967 0.79476,-1.41557c1.22282,-0.48361 2.45936,-1.18149 4.2057,-1.94794c0.98981,0.46306 1.92278,1.22294 2.5445,1.7603c1.87001,1.61624 3.38248,3.60638 5.35881,5.1078c1.84358,1.40055 4.16914,2.13946 6.17638,3.28328c0.43818,0.57784 1.20723,1.01631 1.31457,1.73351c0.35975,2.40394 -3.82442,6.51782 -6.06776,6.18751c-4.74936,-0.69932 -5.58073,-5.92731 -8.94797,-8.21093c-1.13971,-0.77294 -4.61929,-0.7307 -5.25253,-1.5759c-0.09987,-0.13329 -0.18714,-0.26178 -0.26271,-0.38584z" fill="#c00000"/><path d="M214.79317,247.77211c1.05779,0.76544 0.30519,1.85728 0.30519,1.85728l-0.95452,1.38449c-1.99638,2.68923 -2.42356,5.5545 -3.96389,8.47521c-1.37223,2.60196 -3.83806,5.13407 -5.58362,7.52397c-2.45455,3.36058 -5.62109,6.48836 -7.84676,9.96937c-0.77286,1.2088 -1.29495,2.59762 -2.21147,3.69589c0,0 -0.85458,1.00983 -1.83184,0.13906c-0.97725,-0.87077 -0.12266,-1.8806 -0.12266,-1.8806c0.85702,-0.99504 1.28729,-2.30546 2.0019,-3.4124c1.88363,-2.91775 4.55272,-5.56535 6.64116,-8.36446c2.08896,-2.79977 5.07461,-5.86882 6.68739,-8.95672c1.58159,-3.02817 2.08097,-5.93597 4.13801,-8.7542l0.93071,-1.35053c0,0 0.75261,-1.09183 1.8104,-0.32638z" fill="#515151"/><path d="M194.7996,248.22718c0.05885,-0.31286 0.19199,-0.63821 0.38053,-0.96003c0.60864,-0.01703 1.18739,-0.08986 1.64416,-0.38246c0.92085,-0.58989 1.73548,-1.4535 2.53258,-2.2944c2.7428,0.18022 5.42973,2.61407 6.40161,4.92903c0.12804,2.40603 -0.35717,5.01057 -3.34188,4.63967l-0.09131,0.00025c-0.42172,0.79325 -0.75455,2.29452 -1.25135,2.65557c-0.94939,0.68998 -1.96217,0.47203 -2.5961,-0.42934c-0.03464,0.06605 -0.07955,0.10902 -0.15128,0.09937c-0.46315,-0.06239 -0.8549,-0.4156 -1.18984,-0.74148c-0.26047,-0.25342 -0.06651,-1.27783 -0.33825,-1.0365c-1.1563,1.02686 -3.00839,-0.28811 -2.6144,-1.95194c0.12499,-0.5278 0.90147,-1.31713 1.35197,-1.8433c-0.5082,-0.82408 -0.93665,-1.6198 -0.7364,-2.68445zM202.61994,252.68112c1.75031,0.27404 1.70854,-1.46124 1.68375,-2.83141c-0.78486,-1.74604 -3.04732,-3.64044 -5.11725,-3.77488c-1.01379,-0.06583 -2.73805,1.55088 -2.9358,2.49869c-0.14381,0.68927 0.44672,1.38228 0.77592,1.91033c0,0 0.2665,0.42876 0.00827,0.80006c-0.04278,0.19511 -0.14978,0.33416 -0.14978,0.33416c-0.11843,0.1539 -1.42395,1.62513 -1.29864,1.76698c0.14456,0.16361 0.32134,0.469 0.52531,0.39116c0.27433,-0.10469 0.38908,-0.6074 0.67906,-0.56116c0.47373,0.07555 0.82837,0.50583 1.15828,0.8541c0.22789,0.24056 0.04839,1.01488 0.36702,0.92389c0.31406,-0.08968 0.57022,-0.5713 0.87215,-0.44671c0.45026,0.18583 0.66961,1.60616 0.87984,1.16676c0.44463,-0.92928 0.57286,-1.84835 1.24709,-2.73642l0.05831,-0.07577c0,0 0.38376,-0.49868 0.90435,-0.22751zM198.59308,256.08548c0.08289,-0.1038 0.16261,-0.18009 0.09715,-0.1329c-0.04174,0.0301 -0.07214,0.07795 -0.09715,0.1329z" fill="#cfcfcf"/><path d="M199.32286,250.28472c-0.0478,0.16734 -0.16814,0.33743 -0.43311,0.44812c-0.68825,0.28755 -0.97579,-0.4007 -0.97579,-0.4007c-0.04517,-0.10848 -0.11566,-0.26939 -0.1926,-0.45413c-0.01567,-0.03064 -0.02827,-0.06165 -0.03827,-0.09265c-0.20209,-0.49353 -0.4263,-1.11373 -0.35056,-1.37279c0.31034,-1.06171 1.37965,-1.84498 2.4603,-1.0463c1.176,0.86917 0.57232,2.591 -0.46995,2.91843z" fill="#cfcfcf"/><path d="M203.12034,249.34932c1.04883,0.84004 0.56556,2.07428 -0.38126,2.64621c-0.23104,0.13955 -0.88796,0.08167 -1.41679,0.01272c-0.03253,-0.00171 -0.06575,-0.00596 -0.09936,-0.01326c-0.19828,-0.02705 -0.37187,-0.05398 -0.4883,-0.06986c0,0 -0.73893,-0.10169 -0.63725,-0.84062c0.03913,-0.28447 0.17272,-0.44434 0.32225,-0.53342c0.04955,-1.09139 1.55935,-2.11591 2.70071,-1.20176z" data-paper-data="{&quot;index&quot;:null}" fill="#cfcfcf"/></g></g></g></svg>