<svg version="1.1" xmlns="http://www.w3.org/2000/svg" xmlns:xlink="http://www.w3.org/1999/xlink" width="64.92833" height="210.69178" viewBox="0,0,64.92833,210.69178"><g transform="translate(-205.52797,-66.02038)"><g data-paper-data="{&quot;isPaintingLayer&quot;:true}" fill-rule="nonzero" stroke-linejoin="miter" stroke-miterlimit="10" stroke-dasharray="" stroke-dashoffset="0" style="mix-blend-mode: normal"><path d="M252.99399,104.02755c-0.94597,-0.25846 -1.89946,-0.4926 -2.8609,-0.68566c-2.88991,-0.25944 -5.62239,-0.69378 -8.49083,-0.84908c-0.51821,-0.02806 -1.51353,-0.31994 -2.06474,-0.00264c-0.81993,0.47199 -1.1662,1.57306 -2.00692,2.00692c-0.99787,0.51496 -2.27017,0.05646 -3.34828,0.37047c-2.44588,0.71237 -4.75135,2.68177 -6.27617,4.72481c0,0 -0.75,1 -1.75,0.25c-0.14361,-0.10771 -0.25113,-0.22057 -0.32996,-0.33488c-4.3016,-1.04799 -8.18969,-6.05689 -10.65817,-9.50173l-1.26212,-1.54259c-0.41193,-0.49111 -0.38698,-1.22433 0.07481,-1.68612c0.28218,-0.28218 0.6657,-0.40124 1.0334,-0.35719l1.27869,0.14207l-0.00476,0.04287c0.07344,-0.00192 0.14701,-0.00179 0.22075,0.00067c0.74209,0.02473 1.7272,1.38622 2.52381,0.56837c1.09955,-1.12887 -0.33119,-3.20601 -1.86771,-4.68368c-0.09071,-0.03573 -0.18242,-0.06911 -0.27522,-0.09987c-0.7905,-0.26198 -1.73508,-0.14966 -2.41893,-0.62492c-0.06814,-0.04735 -0.13342,-0.09775 -0.19619,-0.1508l-0.0166,0.02213l-1.12961,-0.84721c-0.05288,-0.03835 -0.10342,-0.08136 -0.15108,-0.12902c-0.48816,-0.48816 -0.48816,-1.27961 0,-1.76777c0.21144,-0.21144 0.47979,-0.33129 0.75573,-0.35957l1.28027,-0.14226l0.01328,0.11947l0.29291,-0.11575c0.81167,0.31931 1.7783,0.89812 2.71881,1.64486c1.11535,0.50081 2.23316,1.27536 2.9054,1.66888c0.08118,0.04752 0.17716,0.10175 0.28252,0.16104c-0.43733,-0.62894 -0.79849,-1.22958 -0.84853,-1.32202c-2.39919,-4.43229 -3.77845,-9.45793 -3.73651,-14.44606l0.11463,-0.17285l-0.06662,-0.0222l0.42211,-1.26631c0.05816,-0.18749 0.16147,-0.364 0.30992,-0.51245c0.48816,-0.48816 1.27961,-0.48816 1.76777,0c0.09139,0.09139 0.16567,0.1934 0.22283,0.30207l0.70274,1.26493l-0.17531,0.0974c0.96734,1.2738 1.79097,2.5903 2.80423,3.91412c0.29902,0.39066 0.50229,0.8474 0.71676,1.29017c0.1228,0.25351 0.03465,0.90691 0.29223,0.79291c0.19238,-0.08514 1.56625,-2.80581 1.5666,-2.8067c1.24464,-3.21953 3.08437,-6.58236 1.19501,-9.76295l-1.06516,-1.06516c-0.48816,-0.48816 -0.48816,-1.27961 0,-1.76777c0.48816,-0.48816 1.27961,-0.48816 1.76777,0l1.14681,1.14681l-0.06186,0.06186c0.0432,0.02205 0.08631,0.04422 0.12932,0.06652l0.03391,-0.01376c0.00908,0.01517 0.0181,0.03033 0.02707,0.0455c2.61383,1.36556 4.85029,3.19228 7.03329,5.29648c-0.07988,-0.41671 -0.11624,-0.84161 -0.11502,-1.25544l0.04923,-0.11577l-0.03104,-0.00621l0.4267,-2.13352c0.0444,-0.24013 0.15946,-0.46977 0.3452,-0.6555c0.48816,-0.48816 1.27961,-0.48816 1.76777,0c0.03738,0.03738 0.07189,0.07653 0.10355,0.1172l1.13547,1.41933l-0.03293,0.02634c0.07846,0.09395 0.152,0.19226 0.21963,0.29581c0.80824,1.23739 0.30991,2.95897 0.74913,4.37018c0.52853,1.69817 1.59059,3.69861 2.73222,5.03266c0.33228,0.38828 0.32258,-0.97141 0.52799,-1.43935c0.17815,-0.40585 2.07912,-4.50505 2.29093,-4.60611c3.04854,-1.45461 5.84419,4.2391 6.16474,6.18205c0.03855,0.2337 0.01759,-0.47668 0.07412,-0.7067c0.12667,-0.5153 0.2804,-1.02558 0.47321,-1.51995c0.46598,-1.19478 1.21412,-2.27483 2.00949,-3.28084c0.8759,-0.32153 3.25013,-1.38521 4.14794,-0.74277c1.30477,0.93364 0.81967,3.05366 0.51475,4.22793c-0.72568,2.79468 -1.79499,5.38545 -2.11605,8.27496c-0.04906,0.44152 -0.79196,3.04813 -0.63733,3.31838c0.58509,1.02255 3.75643,-0.73307 4.36735,-1.28766l0.49073,-0.98146c0.05983,-0.12699 0.14223,-0.24599 0.2472,-0.35097c0.48816,-0.48816 1.27961,-0.48816 1.76777,0c0.14846,0.14846 0.25176,0.32496 0.30992,0.51245l0.42211,1.26631l-0.38379,0.12793c1.95294,5.84681 -3.00873,12.20908 -8.22271,15.12182l-1.43239,-0.0502c0,0 -0.17949,-0.05984 -0.37554,-0.20278z" fill="#e00000" stroke="none" stroke-width="0.5" stroke-linecap="butt"/><path d="M246.82579,103.20247l-0.7391,-0.00553c-3.75946,-0.34177 -7.21591,-1.46886 -10.64417,0.45346c0,0 -0.33163,0.18424 -0.74054,0.18098c-0.56653,0.07916 -1.04771,-0.2951 -1.04771,-0.2951c-1.70329,-1.36965 -2.23359,-2.5299 -3.39546,-4.35199l-1.06599,-1.67514c-0.34808,-0.52271 -0.29158,-1.23519 0.16951,-1.69629c0.29638,-0.29638 0.69661,-0.42559 1.08356,-0.38766l1.34351,0.12214c0.01653,-0.04674 0.02751,-0.09803 0.03239,-0.15429c0.06885,-0.79593 -0.51803,-1.50879 -0.81603,-2.25339l-0.83065,-1.10752c-0.40918,-0.52782 -0.37147,-1.29009 0.11313,-1.77469c0.46771,-0.46771 1.19406,-0.51914 1.71865,-0.1543l1.8063,1.2042c0.274,0.1239 0.19392,0.76151 0.49517,0.7566c0.2553,-0.00416 -0.03586,-0.51557 0.01462,-0.76587c0.2347,-1.16377 1.01688,-4.30647 2.97782,-3.88933c1.169,0.24868 1.46161,1.93146 1.88868,3.0477c0.16538,0.43227 0.16841,1.39268 0.1088,2.04998c0.5523,-0.60463 1.90693,-1.32644 2.03865,-2.16425c0.11138,-0.70837 -0.44479,-1.60565 0.02066,-2.15112c2.46199,-2.88521 5.00259,-0.34909 6.45894,1.97906c1.50972,-0.84181 4.04227,-0.98804 4.61582,0.00169c0.54992,0.94899 -0.35223,2.18985 -0.79695,3.19245c-1.21414,2.73725 -3.10295,4.15689 -2.70064,7.57241l0.13642,0.65629c0,0 0.2639,1.31948 -1.05559,1.58339c-0.31445,0.06289 -0.56895,0.03586 -0.77421,-0.04182c-0.23177,0.06795 -0.41559,0.06795 -0.41559,0.06795z" fill="#fd9f00" stroke="none" stroke-width="0.5" stroke-linecap="butt"/><path d="M253.74904,149.23572c0.28617,2.07743 0.82633,4.08147 0.8366,6.21111c0.01644,3.41093 -0.5049,6.22577 -0.25884,9.70138c0.15839,2.23747 0.00764,4.48615 0.00636,6.72922c-0.00056,0.97996 0.58169,2.0075 0.2491,2.9293c-0.04132,0.11454 -0.08562,0.22763 -0.13258,0.33941l0.0876,0.01752l-0.4985,2.49247c-0.0888,0.48027 -0.31893,0.93953 -0.69039,1.31099c-0.13531,0.13531 -0.28227,0.25186 -0.43766,0.34968c0.57885,3.21438 1.57517,5.99652 1.67449,9.44697c0.11087,3.85158 -1.18509,6.60108 -1.79174,10.2532c-0.2788,1.6784 0.45366,3.37718 0.5258,5.07705c0.15116,3.56169 -1.00614,7.11958 -1.00715,10.70261c-0.00021,0.71065 0.03241,1.42812 0.08794,2.14944c0.81792,2.39315 1.60921,4.79872 2.32669,7.2555c0.42963,1.47114 1.47925,2.97175 1.1152,4.46048c-1.91983,7.85084 -3.42578,5.18804 -6.48155,2.67572c-4.06368,1.61733 -10.95354,-0.6963 -12.68095,-4.0897c-0.58337,-1.146 -0.16791,-2.575 -0.43185,-3.83356c-0.14803,-0.70583 -0.27676,-1.41532 -0.39569,-2.12664c-0.11182,1.05693 -0.20476,2.1148 -0.2111,3.17644c-0.0235,3.93449 1.92478,4.76284 -2.00061,8.02605c-1.5786,1.31231 -5.48062,1.35808 -7.38022,1.51027c0,0 -2.49264,0.19174 -2.68438,-2.3009c-0.11848,-1.54024 0.78799,-2.20195 1.49798,-2.48276c-0.81251,-1.29063 -1.11152,-2.98345 -1.24919,-4.39579c-0.09023,-0.92562 0.29472,-1.84952 0.2526,-2.77858c-0.26945,-5.94323 -1.70622,-12.0758 -0.9979,-18.09813c0.23642,-2.01013 0.82429,-3.97244 1.00309,-5.98852c0.20587,-2.5564 -0.26796,-5.12495 -0.26043,-7.6896c0.02249,-7.66092 2.54972,-15.58451 2.52602,-23.2403c-0.01851,-5.97788 -0.50796,-12.07975 -0.50616,-18.11772c0.00052,-1.74487 -0.11255,-5.9082 0.48131,-7.3596c0.81954,-2.00294 2.55548,-3.31468 4.47754,-4.26523l-0.16988,-0.22651l1.99138,-1.49354c0.95375,-0.73938 2.31951,-0.69337 3.22198,0.13801c0.75962,-0.51863 1.4664,-0.95929 2.02252,-1.28298c1.21559,-0.70752 2.36099,-1.86099 3.76691,-1.90123c1.45132,-0.04153 2.65339,1.18634 4.01937,1.6784c1.64134,0.59124 6.3074,1.33413 7.12655,2.29456c1.18673,1.3914 0.72728,3.80643 0.20068,5.74643c0.36903,0.43297 0.56655,0.96205 0.59253,1.49789l0.25209,4.78979l-0.09951,0.00524c0.0301,0.15302 0.05699,0.30686 0.08036,0.46161c0.00321,0.02126 -0.01722,0.10733 -0.05636,0.24454zM246.70462,224.88431c0.01761,0.02838 0.03678,0.05417 0.05738,0.07755l-0.13887,-0.69433c0.00426,0.3101 0.02856,0.53147 0.08148,0.61677zM242.05251,225.978c-0.0159,-0.09202 -0.03009,-0.18465 -0.04271,-0.27779l-0.20754,0.16143c0.07864,0.04392 0.16249,0.08248 0.25026,0.11638zM241.26105,225.27664c0.07726,0.19488 0.20515,0.34924 0.36692,0.47175z" fill="#aaaaaa" stroke="none" stroke-width="0.5" stroke-linecap="butt"/><path d="M240.53547,130.6284c-0.02993,-0.00342 -0.05988,-0.00683 -0.08981,-0.01025l0.00572,0.02857l-2.48796,0.49759c-0.60275,0.12971 -1.24418,0.0347 -1.7903,-0.28503c-0.02754,0.01529 -0.05566,0.03043 -0.08436,0.04538c-1.70049,0.88567 -3.70899,1.03619 -5.4497,1.83992c0,0 -2.27592,1.0345 -3.31042,-1.24141c-0.0885,-0.19469 -0.15277,-0.3803 -0.19631,-0.55697c-2.32713,-2.21303 0.5016,-7.71386 0.47742,-10.58147c-0.00655,-0.77741 -0.42156,-1.50548 -0.49303,-2.27963c-0.21171,-2.29296 -0.92191,-4.7503 -0.11545,-6.90717c1.89841,-5.07722 8.84753,-6.48229 13.32853,-7.62754c1.26032,-0.32212 2.44576,-1.12139 3.74629,-1.09307c1.24687,0.02717 2.35066,0.83434 3.526,1.2515c2.12136,1.19571 3.6588,1.73373 5.05523,3.91276c2.28475,3.56521 1.33652,8.0549 1.66737,12.03175c0.25694,3.08842 1.13131,7.13882 -1.36276,8.56727l0.65725,0.5258c0.08132,0.06331 0.15964,0.13234 0.23439,0.2071c0.97631,0.97631 0.97631,2.55922 0,3.53553c-0.74341,0.74341 -1.83853,0.92074 -2.74974,0.53203l-2.47249,-0.98899c-1.63138,-0.65584 -3.29433,-1.55159 -5.00535,-2.25631c-0.08893,0.03364 -0.17938,0.06204 -0.27089,0.08519l-2.73623,0.74625l-0.00846,-0.03101zM244.82441,121.14615c0.05884,-0.00515 0.11765,-0.01025 0.17639,-0.01514l-0.13427,-0.26855z" fill="#828282" stroke="none" stroke-width="0.5" stroke-linecap="butt"/><path d="M226.22375,239.60479l1.82353,-1.82353l0.12282,0.12282c0.1476,-0.20069 0.30715,-0.39309 0.48132,-0.57528c1.44791,-1.51454 4.01053,-1.10029 6.02565,-1.60774c1.9822,-0.49916 3.88736,-1.89851 5.89967,-1.69266c1.05682,0.10811 2.04007,0.52472 2.91307,1.14957c1.25291,-0.34866 2.52534,-0.50023 3.83092,-0.22025c1.58726,0.34039 3.74665,0.34494 4.51971,1.76041c0.7574,1.38681 -0.54334,3.17699 -0.97398,4.7318c-0.46328,1.67266 -1.38929,3.22246 -1.72999,4.92077c-0.62766,3.12871 0.23705,4.96055 -3.54289,7.01416c-3.07096,1.66843 -6.36844,-0.70956 -9.28322,-0.38498c-1.28912,0.14355 -2.37381,1.59433 -3.1491,2.39954c0,0 -1.82309,1.82309 -3.59086,0.05532c-1.20415,-1.20415 -0.74217,-2.43397 -0.32518,-3.09576c-2.44807,-0.883 -4.24954,-2.9476 -3.8059,-5.96831l-0.47303,-0.86825c-0.55477,-0.96391 -0.4029,-2.2365 0.44431,-3.08371c0.058,-0.058 0.11799,-0.11274 0.17975,-0.16422c-0.31066,-0.89244 -0.09711,-1.9392 0.63339,-2.6697z" fill="#828282" stroke="none" stroke-width="0.5" stroke-linecap="butt"/><path d="M240.30425,270.37029c0,0 0.73521,2.38945 -1.65423,3.12466c-2.38945,0.73521 -3.12466,-1.65423 -3.12466,-1.65423c-1.06485,-3.48474 -4.95412,-9.31624 -3.9926,-13.12019c1.0549,-4.17337 5.36073,-5.60059 9.03176,-5.2101c1.48565,0.15803 3.4619,-0.4133 4.42204,0.73137c1.13547,1.3537 0.89059,3.52143 0.60816,5.26556c-0.16576,1.02364 -2.44946,3.41567 -3.36282,4.41212l-0.68502,2.28341c-0.11168,0.4008 -0.32511,0.77922 -0.6403,1.0944c-0.39947,0.39947 -0.9005,0.63549 -1.41997,0.70807c0.29455,0.78079 0.57089,1.56792 0.81766,2.36493z" fill="#565656" stroke="none" stroke-width="0.5" stroke-linecap="butt"/><path d="M239.32783,213.26185c2.49264,-0.19174 2.68438,2.3009 2.68438,2.3009l0.2038,2.7329c-0.02764,0.05796 -0.05527,0.11592 -0.08291,0.17388l0.07741,0.00515l-0.19565,2.93474c-0.03608,0.58747 -0.27859,1.16463 -0.7275,1.61355c-0.1554,0.1554 -0.32617,0.28606 -0.50741,0.392c0.35058,2.35604 0.60456,4.58985 -0.03528,7.17106c0,0 -0.6868,2.40381 -3.09061,1.71701c-2.4038,-0.68681 -1.71701,-3.09061 -1.71701,-3.09061c0.98517,-2.7793 -0.42593,-6.31453 -0.66905,-9.43214l-0.38018,-2.66119c-0.11704,-0.76039 0.11728,-1.56442 0.70299,-2.15013c0.51752,-0.51752 1.20548,-0.76071 1.88318,-0.72958c0.32738,-0.48513 0.88988,-0.90341 1.85385,-0.97756z" fill="#565656" stroke="none" stroke-width="0.5" stroke-linecap="butt"/><path d="M239.90773,134.01499c2.37171,-0.79057 3.16227,1.58114 3.16227,1.58114l0.51383,1.77756l0.19521,2.53771c0.05868,0.70721 -0.18253,1.43462 -0.72362,1.97571c-0.39812,0.39812 -0.89709,0.63389 -1.41467,0.70732c0.10216,5.52047 0.63913,11.05368 -0.03341,16.49822c0,0 -0.31009,2.48069 -2.79078,2.17061c-2.48069,-0.31009 -2.17061,-2.79077 -2.17061,-2.79077c0.71829,-5.67238 -0.01942,-11.4882 -0.01747,-17.25106l-0.18968,-2.46576c-0.05868,-0.70721 0.18253,-1.43462 0.72362,-1.97571c0.3011,-0.3011 0.65989,-0.50934 1.04079,-0.62471c0.03427,-0.74304 0.36513,-1.69377 1.70451,-2.14023z" fill="#565656" stroke="none" stroke-width="0.5" stroke-linecap="butt"/><path d="M225.76805,138.74383c-1.76777,-1.76777 0,-3.53553 0,-3.53553l1.3634,-1.34585c7.48362,-5.85499 19.6774,-5.72665 26.969,0.22288c0,0 1.90846,1.61486 0.29361,3.52332c-1.61486,1.90846 -3.52332,0.29361 -3.52332,0.29361c-4.97407,-4.43133 -15.45216,-4.65791 -20.5731,-0.17002l-0.99406,1.01161c0,0 -1.76777,1.76777 -3.53553,0z" fill="#565656" stroke="none" stroke-width="0.5" stroke-linecap="butt"/><path d="M225.2256,135.20483c1.07262,1.68317 2.19611,4.00512 2.28334,4.21667c0,0 1.79489,4.66672 -2.87184,6.46162c-4.66673,1.7949 -6.46162,-2.87184 -6.46162,-2.87184c-1.33056,-3.97132 -5.45648,-5.80967 -4.74629,-11.0268c0.26285,-1.93092 2.59136,-2.91122 3.88704,-4.36682l7.29333,1.22226c0,0 3.07978,3.07978 0.61604,6.3649z" fill="#565656" stroke="none" stroke-width="0.5" stroke-linecap="butt"/><path d="M268.76314,139.19561c0.00001,2.75078 -1.51336,3.9882 -2.87491,4.54484c-0.94928,3.0046 -2.35587,5.68225 -4.90451,8.33682c0,0 -3.53553,3.53553 -7.07107,0c-3.53553,-3.53553 0,-7.07107 0,-7.07107c1.25406,-1.162 1.92372,-2.3671 2.37586,-3.68817l-0.10248,-0.10248c-1.95263,-1.95263 -1.95262,-5.11845 0,-7.07107c0.27866,-0.27866 0.58205,-0.51756 0.90308,-0.71669c0.18478,-0.94059 0.64155,-1.83833 1.37031,-2.56709c1.95262,-1.95262 5.11844,-1.95263 7.07107,0c0.53867,0.53867 0.92873,1.16965 1.1702,1.84203l1.22399,3.18238l-0.19862,0.07639c0.60742,0.73234 1.03709,1.76839 1.03709,3.23409z" fill="#565656" stroke="none" stroke-width="0.5" stroke-linecap="butt"/><path d="M223.09396,218.25972c2.54351,2.54351 1.42735,5.08701 0.60075,6.31412c0.8266,1.22711 1.94276,3.7706 -0.60074,6.31411c-3.53553,3.53553 -7.07107,0 -7.07107,0c-1.09459,-1.09459 -2.18919,-2.18919 -3.28378,-3.28378l-1.76819,-1.76819c-1.95263,-1.95263 -1.95263,-5.11844 0,-7.07107c1.52831,-1.52831 3.79984,-1.86042 5.65117,-0.99633c1.15562,-0.8282 3.81375,-2.16699 6.47187,0.49113z" fill="#565656" stroke="none" stroke-width="0.5" stroke-linecap="butt"/><path d="M262.80533,214.95064c4.82382,1.31559 3.50823,6.13941 3.50823,6.13941l-0.62585,2.12666c-0.07547,1.16167 0.19227,2.39878 -0.22639,3.485c-0.54077,1.40301 -1.70054,2.48028 -2.5508,3.72041c0,0 -3.0697,3.94677 -7.01647,0.87705c-3.94676,-3.06971 -0.87705,-7.01647 -0.87705,-7.01647c0.64135,-0.53774 0.87887,-1.56498 0.75919,-2.39332l0.88974,-3.4305c0,0 1.31559,-4.82381 6.13941,-3.50823z" fill="#565656" stroke="none" stroke-width="0.5" stroke-linecap="butt"/><path d="M223.17368,236.62043l3.3335,-126.37008" fill="none" stroke="#393939" stroke-width="5" stroke-linecap="round"/><path d="M224.46284,125.90703c0.67126,-0.36775 1.78711,-0.66061 2.90297,0.45525c1.76777,1.76777 0,3.53553 0,3.53553l-2.07082,1.03528c-2.62354,-0.00317 -6.75227,-1.01503 -9.02101,0.95628c-1.41557,1.23 1.66152,4.21096 2.0949,4.99153c0.58428,1.05235 0.87187,2.25634 1.48929,3.2896c1.54711,2.58904 4.24705,4.73135 5.56129,7.46827c1.2269,2.55505 2.2384,6.05797 3.15638,8.79309c0,0 0.79057,2.37171 -1.58115,3.16228c-2.37171,0.79057 -3.16228,-1.58115 -3.16228,-1.58115c-0.85612,-2.58846 -1.77342,-5.74869 -2.90453,-8.17747c-1.17904,-2.53168 -3.91551,-4.69877 -5.34836,-7.07792c-0.63843,-1.06007 -0.93992,-2.29581 -1.54117,-3.37741c-1.30037,-2.33925 -3.06176,-3.05555 -3.06107,-6.32799c0.00099,-4.65899 4.26948,-6.92096 8.29646,-7.40825c1.71958,-0.20809 3.45564,0.1594 5.1891,0.26306z" fill="#393939" stroke="none" stroke-width="0.5" stroke-linecap="butt"/><path d="M255.9171,133.43168c-0.5401,0.40653 -1.91878,1.17833 -3.29747,-0.20036c-1.76777,-1.76777 0,-3.53553 0,-3.53553l1.50865,-0.97125c2.70888,-0.61454 5.50402,-1.13882 8.27654,-0.96933c1.17835,0.07204 2.43747,-0.01918 3.50968,0.47486c6.04653,2.78601 5.17431,10.13069 2.45394,15.09492c-0.53453,0.97543 -1.63848,1.52068 -2.31308,2.40503c-1.40285,1.83905 -2.65806,3.81164 -3.65277,5.89986c-1.10719,2.32439 -2.05567,4.77755 -3.61747,6.82438c0,0 -1.53485,1.97339 -3.50823,0.43853c-1.97337,-1.53485 -0.43853,-3.50823 -0.43853,-3.50823c1.3804,-1.73211 2.09091,-3.90686 3.04954,-5.90354c1.99637,-4.15814 5.65136,-7.08331 6.81549,-11.40215c0.26627,-0.98784 1.35536,-3.10505 0.59993,-4.37324c-1.36742,-2.29557 -6.9492,-0.8896 -9.38624,-0.27394z" fill="#393939" stroke="none" stroke-width="0.5" stroke-linecap="butt"/><path d="M225.62046,215.63622c1.28623,2.14373 -0.85749,3.42998 -0.85749,3.42998l-2.80147,1.2654c-1.21918,-0.02664 -2.47507,0.21813 -3.65756,-0.07992c-0.91021,-0.22943 -3.38836,-2.27835 -4.84485,-2.0578c-0.80731,0.12225 -1.45154,0.74979 -2.19543,1.08645c-0.25411,0.115 -0.82176,-0.01134 -0.79331,0.26612c0.13309,1.29853 1.52105,2.12189 2.29577,3.17247c2.31406,3.13805 5.59348,5.39987 7.88999,8.50015c1.20718,1.62969 2.23185,3.42516 3.67926,4.84579c0,0 1.76777,1.76777 0,3.53553c-1.76777,1.76777 -3.53553,0 -3.53553,0c-1.61086,-1.63547 -2.85269,-3.59914 -4.19993,-5.45778c-2.80099,-3.8642 -7.53906,-6.30742 -9.55982,-10.86899c-0.66897,-1.51008 -1.74406,-3.10419 -1.46762,-4.73252c0.43728,-2.5758 5.31451,-5.03676 7.31481,-5.31443c3.66592,-0.50888 5.58056,2.2211 9.07424,2.10491l0.22898,-0.55287c0,0 2.14374,-1.28624 3.42997,0.85749z" fill="#393939" stroke="none" stroke-width="0.5" stroke-linecap="butt"/><path d="M251.84828,219.55571c-1.11803,-2.23607 1.11803,-3.35409 1.11803,-3.35409l1.53965,-0.74173c2.85475,-0.93342 7.44598,-4.82675 10.62823,-3.23091c3.35298,1.68145 3.23855,5.44484 2.60465,8.26024c-0.56102,2.49167 -2.22626,4.63153 -3.74719,6.68334c-1.07608,1.45167 -1.34336,3.40073 -2.42437,4.84874c-0.16457,0.22043 -3.87809,3.92376 -4.50297,4.54863c0,0 -1.76777,1.76777 -3.53553,0c-1.76777,-1.76777 0,-3.53553 0,-3.53553c1.31985,-1.31985 2.85806,-2.44665 3.98231,-3.93665c1.08838,-1.44247 1.36269,-3.38648 2.42437,-4.84872c0.55351,-0.76235 1.5356,-1.16754 2.0228,-1.97388c0.51645,-0.85474 0.64454,-1.89232 0.89701,-2.85853c0.22377,-0.85642 1.04175,-2.44592 0.18028,-2.6494c-0.412,-0.09732 -0.71851,0.44788 -1.07963,0.66877c-1.84504,1.12858 -3.82022,2.07365 -5.86879,2.76732l-0.88472,0.47045c0,0 -2.23606,1.11803 -3.3541,-1.11804z" fill="#393939" stroke="none" stroke-width="0.5" stroke-linecap="butt"/><path d="M241.48448,232.85097c-1.23744,0.17678 -1.41421,-1.06066 -1.41421,-1.06066l-0.16195,-1.2225c0.00498,-3.70237 1.17518,-8.1595 0.45425,-11.67853c-0.00107,-0.39919 0.21644,-3.12522 -0.30239,-3.49446c-0.3823,-0.27207 -2.84478,-1.00208 -3.10031,0.05032c-0.2719,1.11979 0.33843,3.07355 0.21377,4.34046c-0.37279,3.78859 -0.7845,8.66839 0.26082,12.39536c0,0 0.3289,1.20595 -0.87706,1.53485c-1.20596,0.3289 -1.53485,-0.87705 -1.53485,-0.87705c-1.0777,-4.04573 -0.75518,-9.18404 -0.33674,-13.2995c0.13453,-1.3231 -0.57556,-3.75974 -0.08501,-4.92165c1.07553,-2.54746 5.17827,-2.8773 7.05812,-1.14478c1.33322,1.22873 1.19616,3.56096 1.19149,5.1701c0.71271,3.64581 -0.44676,8.10792 -0.44208,11.92489l0.13683,0.86895c0,0 0.17678,1.23744 -1.06066,1.41421z" fill="#393939" stroke="none" stroke-width="0.5" stroke-linecap="butt"/><path d="M255.03967,137.09929c0.64312,1.07187 -0.42875,1.71499 -0.42875,1.71499l-1.80217,0.75494c-1.70623,-0.28062 -2.62104,-1.49954 -4.2001,-1.78106c-1.90478,-0.33958 -3.7736,-0.59902 -5.68616,-0.98006c-0.99423,-0.19809 -3.05425,-1.21876 -4.07794,-0.9751c-3.38698,0.80615 -7.67719,2.84428 -10.31782,5.54367c0,0 -0.88388,0.88388 -1.76777,0c-0.88388,-0.88388 0,-1.76777 0,-1.76777c2.95379,-2.90316 7.82341,-5.5799 11.68514,-6.24363c2.29293,-0.39409 5.65316,1.15917 7.80656,1.79838c0.91584,0.27185 1.92668,-0.02539 2.86066,0.17556c1.67396,0.36016 2.38946,1.5727 4.05099,1.75513l0.16239,-0.42379c0,0 1.07186,-0.64313 1.71498,0.42874z" fill="#393939" stroke="none" stroke-width="0.5" stroke-linecap="butt"/><path d="M242.95822,133.4028c1.18585,0.39529 0.79057,1.58114 0.79057,1.58114l-0.23337,-0.29831c2.81561,6.68954 -1.47034,14.268 -0.69581,21.15071c0.23226,2.06389 1.81321,2.91205 0.43817,5.30025c-1.21503,2.1103 -3.42973,1.77856 -5.48981,1.97834c-3.58785,-2.19791 -2.91282,-3.87224 -3.13258,-7.63292c-0.21215,-3.6304 0.79897,-7.1118 0.78406,-10.69722c-0.00667,-1.60299 -0.26514,-3.28485 0.01599,-4.89563c0.32061,-1.83701 0.66081,-2.46991 0.38933,-4.33792c0,0 -0.17678,-1.23744 1.06066,-1.41421c1.23744,-0.17678 1.41421,1.06066 1.41421,1.06066c0.28372,2.01668 -0.05064,3.15493 -0.39648,5.09193c-0.26484,1.4833 0.02154,3.05817 0.01599,4.53422c-0.01331,3.53966 -0.99911,6.94788 -0.78758,10.51992c0.13906,2.34834 -0.67879,3.82934 1.18943,5.33311c0.82582,-0.1908 2.36261,0.11779 2.76129,-0.77203c0.75199,-1.67841 -0.56303,-2.12334 -0.74056,-3.73667c-0.08337,-0.75769 0.30973,-1.4954 0.38793,-2.25363c0.31004,-3.00585 -0.15962,-6.21037 0.41014,-9.15404c0.59896,-3.09455 1.40249,-6.06686 0.07775,-9.09006l0.15954,-1.47705c0,0 0.39529,-1.18586 1.58114,-0.79057z" fill="#393939" stroke="none" stroke-width="0.5" stroke-linecap="butt"/><path d="M252.11143,213.65595c0.42455,5.62361 0.79615,11.1521 -0.00057,16.8213c0,0 -0.35355,2.47487 -2.82843,2.12132c-2.47487,-0.35355 -2.12132,-2.82843 -2.12132,-2.82843c0.6628,-4.55466 0.44813,-9.00882 0.1244,-13.50572c-0.41051,-0.75756 -0.31714,-1.59784 -0.31714,-1.59784l0.11878,-1.06898c-0.04388,-0.58869 -0.08703,-1.17859 -0.12777,-1.77c-0.31845,-4.62292 0.69716,-9.26347 0.3658,-13.9007c-0.38759,-5.42424 -1.28829,-10.52244 -1.28523,-16.00667c-0.42732,-6.83861 2.29323,-13.32958 2.93502,-20.05954c0.13133,-1.37721 0.21143,-2.76914 0.25697,-4.1697c-0.28019,-1.91154 -0.55822,-3.81814 -0.79515,-5.7138c-0.29119,-2.32987 -1.3294,-4.52534 -0.55702,-6.96729c0.02496,-0.07891 0.05073,-0.15749 0.07729,-0.23576l-0.04091,-0.00818l0.90782,-4.53908c0.0888,-0.48027 0.31892,-0.93953 0.69038,-1.311c0.97631,-0.97631 2.55922,-0.97631 3.53553,0c0.4044,0.4044 0.6413,0.91288 0.71068,1.43922l0.36224,2.53566l-0.07575,0.01082l0.09459,0.16551c0.00941,5.09454 0.28088,10.34966 0.06882,15.47992c0.92831,5.501 1.69168,11.07074 1.39688,16.66085c-0.11358,2.15376 -0.73299,4.27244 -0.72785,6.42918c0.01677,7.0471 0.60844,13.82905 -1.17579,20.75785c-0.93567,3.72464 -1.16049,7.36892 -1.58299,11.17772z" fill="#959595" stroke="none" stroke-width="0.5" stroke-linecap="butt"/><path d="M245.99386,179.45767c2.70456,-1.54396 0.74333,-3.8814 -0.79397,-5.73601c-2.9936,-1.53695 -8.17932,-1.65648 -11.16968,0.4299c-1.46457,1.02184 -2.05894,5.13403 -1.29066,6.65272c0.5587,1.10444 2.1301,1.40831 3.16157,1.77237c0,0 0.83644,0.29648 0.88915,1.08974c0.15532,0.31491 0.16092,0.62328 0.16092,0.62328c0.00619,0.34129 -0.17269,3.79426 0.15506,3.85158c0.37803,0.06611 0.95589,0.29155 1.15062,-0.03915c0.26192,-0.44478 -0.13203,-1.26105 0.31697,-1.51571c0.7335,-0.41601 1.69268,-0.21412 2.52788,-0.09778c0.57691,0.08037 1.17991,1.34075 1.51772,0.86621c0.33297,-0.46774 0.15634,-1.41024 0.70772,-1.57036c0.82227,-0.23877 2.68182,1.47126 2.48846,0.63714c-0.40888,-1.7641 -1.24111,-3.16706 -1.28948,-5.12648l-0.00305,-0.16801c0,0 -0.02007,-1.10593 0.99245,-1.30466zM230.36669,181.9206c-1.40765,-2.65104 -0.27342,-8.13985 2.10687,-9.87934c3.95152,-2.8878 10.43403,-2.51157 14.36184,-0.36943c2.81562,3.16398 5.00676,7.27345 0.5006,10.0387l-0.12514,0.1005c0.29113,1.55216 1.48109,3.97917 1.19493,5.0201c-0.54692,1.98925 -2.17698,2.80106 -4.03656,2.25864c0.02488,0.12872 0.01036,0.237 -0.09875,0.30244c-0.70452,0.42247 -1.63009,0.36717 -2.44765,0.28707c-0.6358,-0.06227 -1.4933,-1.68201 -1.60174,-1.05244c-0.46144,2.67893 -4.44786,2.90492 -5.73222,0.18754c-0.40741,-0.86201 -0.20698,-2.798 -0.16553,-4.0149c-1.60209,-0.57424 -3.06357,-1.19702 -3.95662,-2.8789zM244.1984,188.55131c-0.00006,-0.23353 0.02574,-0.42575 -0.0124,-0.28911c-0.02431,0.08712 -0.01356,0.18617 0.0124,0.28911z" fill="#cfcfcf" stroke="none" stroke-width="0.5" stroke-linecap="butt"/><path d="M238.83641,179.78378c0.11794,0.28227 0.13928,0.64791 -0.10317,1.09065c-0.62976,1.15001 -1.77978,0.52025 -1.77978,0.52025c-0.18106,-0.09942 -0.4544,-0.24308 -0.76276,-0.41238c-0.05515,-0.02488 -0.10647,-0.05365 -0.15421,-0.08527c-0.81903,-0.45608 -1.8074,-1.06188 -1.98761,-1.5008c-0.73863,-1.79867 -0.12938,-4.04759 2.23107,-4.13628c2.56872,-0.09651 3.62872,2.93058 2.55648,4.52381z" fill="#cfcfcf" stroke="none" stroke-width="0.5" stroke-linecap="butt"/><path d="M243.02565,174.33274c2.36213,0.00301 3.05252,2.22834 2.37964,4.05264c-0.16421,0.44513 -1.12991,1.0864 -1.93187,1.5719c-0.04656,0.03335 -0.09683,0.06394 -0.15102,0.09079c-0.30198,0.18039 -0.56996,0.33385 -0.74729,0.43979c0,0 -1.12642,0.67107 -1.79749,-0.45536c-0.25836,-0.43365 -0.25029,-0.7998 -0.14267,-1.08619c-1.12936,-1.55329 -0.17983,-4.61683 2.39069,-4.61355z" data-paper-data="{&quot;index&quot;:null}" fill="#cfcfcf" stroke="none" stroke-width="0.5" stroke-linecap="butt"/><path d="M249.79074,103.8027c2.49446,0.1663 2.32817,2.66077 2.32817,2.66077l-0.14293,1.33035c1.04802,7.45602 0.0475,15.01096 0.63449,22.4876c0,0 0.19174,2.49264 -2.3009,2.68438c-2.49264,0.19174 -2.68438,-2.3009 -2.68438,-2.3009c-0.55565,-7.36138 0.46702,-14.83709 -0.59897,-22.16397l0.10375,-2.37006c0,0 0.1663,-2.49447 2.66077,-2.32817z" fill="#717171" stroke="none" stroke-width="0.5" stroke-linecap="butt"/><path d="M255.81564,106.85471c-1.45309,2.03433 -3.48743,0.58123 -3.48743,0.58123l-1.80268,-1.32177c-2.36503,-0.78834 -4.3733,-2.69229 -6.87811,-2.76181c-6.42956,-0.17844 -11.13012,3.2112 -15.37249,7.45357c0,0 -1.76777,1.76777 -3.53553,0c-1.76777,-1.76777 0,-3.53553 0,-3.53553c5.12845,-5.12845 11.4409,-9.37621 19.17473,-8.91091c3.61513,0.2175 5.6146,2.21055 8.88028,3.29911l2.43997,1.70868c0,0 2.03434,1.4531 0.58124,3.48744z" fill="#393939" stroke="none" stroke-width="0.5" stroke-linecap="butt"/><path d="M254.69044,106.31075v126.06704" fill="none" stroke="#393939" stroke-width="5" stroke-linecap="round"/><path d="M253.23807,132.48709c0.33853,-0.17461 0.87784,-0.29344 1.41716,0.24588c0.88388,0.88388 0,1.76777 0,1.76777l-1.25712,0.55001c-2.45585,-0.38312 -4.14358,-2.07976 -6.54653,-2.56467c-2.84022,-0.57314 -5.67564,0.02143 -8.51157,0.21663c-2.29019,0.15763 -5.02599,-0.1947 -7.04957,1.16342c-1.08276,0.72669 -2.03342,2.06532 -2.96018,2.99209c0,0 -0.88388,0.88388 -1.76777,0c-0.88388,-0.88388 0,-1.76777 0,-1.76777c1.03511,-1.03511 2.10992,-2.48725 3.32639,-3.29448c2.47937,-1.6453 5.47089,-1.40668 8.27391,-1.58696c3.05027,-0.19618 6.11324,-0.7835 9.16938,-0.17628c2.1972,0.43656 3.81397,1.9931 5.90589,2.45439z" fill="#393939" stroke="none" stroke-width="0.5" stroke-linecap="butt"/><path d="M250.20034,233.65413c2.45145,0.49029 1.96115,2.94174 1.96115,2.94174l-0.56298,2.77633c-0.72333,1.97975 -0.85803,4.2836 -2.15586,5.9444c-0.01925,0.02464 -0.03866,0.04915 -0.0582,0.07352l0.02283,0.01014l-1.01164,2.27621c-0.12196,0.2926 -0.30197,0.56672 -0.54003,0.80479c-0.09054,0.09054 -0.18629,0.17268 -0.28629,0.24643c-0.16104,0.66408 -0.31468,1.33318 -0.46155,2.00973c0,0 -0.53107,2.44293 -2.97402,1.91186c-2.44294,-0.53107 -1.91187,-2.97401 -1.91187,-2.97401c0.70185,-3.22424 1.55996,-6.27264 2.6125,-9.40173l0.18704,-0.16075l-0.08407,-0.0467l1.2656,-2.27809c0.11434,-0.21732 0.2629,-0.42136 0.44568,-0.60414c0.11259,-0.11259 0.23324,-0.2122 0.36009,-0.2988l0.24986,-1.26974c0,0 0.49029,-2.45145 2.94174,-1.96115z" fill="#727272" stroke="none" stroke-width="0.5" stroke-linecap="butt"/><path d="M256.32041,237.13237c-1.11803,2.23607 -3.3541,1.11803 -3.3541,1.11803l-2.42437,-1.21219c-4.01852,-2.06931 -7.09263,-1.31651 -11.36355,-0.96042c-3.13344,0.26125 -7.22892,-0.36901 -10.20422,1.18966c-1.32929,0.69639 -2.06248,2.18092 -3.1236,3.24204c0,0 -1.76777,1.76777 -3.53553,0c-1.76777,-1.76777 0,-3.53553 0,-3.53553c0.47038,-0.47038 3.82838,-3.85996 4.1495,-4.03106c3.78333,-2.01581 8.17914,-1.50412 12.22117,-1.84078c5.2567,-0.43784 9.13707,-0.95807 14.0923,1.46395l2.42437,1.21219c0,0 2.23606,1.11803 1.11803,3.3541z" fill="#393939" stroke="none" stroke-width="0.5" stroke-linecap="butt"/><path d="M235.42714,270.28747c-0.38789,-1.01524 -0.31558,-2.23944 0.03761,-3.57238c1.06862,-4.03296 4.70853,-9.06134 5.95327,-12.3091c0.53971,-1.40822 1.3289,-2.95881 3.43622,-2.25637c1.97193,0.65731 1.74152,1.82801 1.58114,3.16227c-0.35727,2.97239 -3.20472,9.80091 -5.59508,11.8462c-0.73128,0.6257 -1.08867,3.7137 -2.55596,3.61251z" fill="#484848" stroke="none" stroke-width="0.5" stroke-linecap="butt"/><path d="M237.60241,276.4532c-2.29786,0.9848 -3.28267,-1.31306 -3.28267,-1.31306l-0.43332,-1.21813c-3.52019,-4.57681 -4.76769,-10.20397 -6.69472,-15.59392c-1.16321,-3.25353 -3.07157,-5.91709 -4.08949,-9.24138c-1.19584,-3.90535 -1.51614,-8.42592 -2.09461,-12.46755c0,0 -0.35355,-2.47487 2.12132,-2.82843c2.47487,-0.35355 2.82843,2.12132 2.82843,2.12132c0.54369,3.81328 0.83364,8.09542 1.94696,11.7819c0.95911,3.17585 2.85882,5.81353 3.99366,8.94569c1.74221,4.80848 2.74833,10.17083 5.93519,14.21267l1.08228,2.31824c0,0 0.9848,2.29786 -1.31306,3.28265z" fill="#393939" stroke="none" stroke-width="0.5" stroke-linecap="butt"/><path d="M253.2891,234.27079c2.49999,0 2.5,2.5 2.5,2.5l-0.04855,2.00588c-1.12049,5.58626 -3.35757,10.57317 -5.74067,15.71748c-1.52138,3.28416 -2.13457,6.80354 -3.85899,9.99073c-2.046,3.78155 -4.55505,7.48139 -6.93795,11.05721c0,0 -1.38676,2.08013 -3.46687,0.69337c-2.08012,-1.38675 -0.69337,-3.46687 -0.69337,-3.46687c2.30619,-3.45782 4.69681,-7.02404 6.70235,-10.66624c1.67761,-3.04665 2.25972,-6.5391 3.71895,-9.71193c2.20216,-4.78819 4.33787,-9.39928 5.37366,-14.59432l-0.04856,-1.0253c0,0 0.00001,-2.5 2.5,-2.5z" fill="#393939" stroke="none" stroke-width="0.5" stroke-linecap="butt"/><path d="M248.04601,256.35879c-0.64312,1.07187 -1.71499,0.42875 -1.71499,0.42875l-1.38914,-0.8444c-0.58197,-0.57513 -0.85179,-1.62677 -1.64681,-1.82019c-0.77954,-0.18966 -2.86634,0.66699 -3.68784,0.80399c-1.53924,0.25671 -3.7291,0.16699 -5.15233,0.86609c-1.18068,0.57995 -2.31137,2.37552 -3.26837,3.33252c0,0 -0.88388,0.88388 -1.76777,0c-0.88388,-0.88388 0,-1.76777 0,-1.76777c1.11331,-1.11331 2.40556,-3.03283 3.80439,-3.74024c2.25485,-1.14032 5.95096,-1.33836 8.48797,-1.65989c0.78818,-0.09989 1.61056,-0.42453 2.37451,-0.2064c0.34744,0.0992 1.97554,1.79595 2.39477,2.22138l1.13684,0.67119c0,0 1.07187,0.64312 0.42875,1.71499z" fill="#393939" stroke="none" stroke-width="0.5" stroke-linecap="butt"/></g></g></svg>