<svg version="1.1" xmlns="http://www.w3.org/2000/svg" xmlns:xlink="http://www.w3.org/1999/xlink" width="218.61847" height="104.64699" viewBox="0,0,218.61847,104.64699"><g transform="translate(-152.34359,-164.36617)"><g data-paper-data="{&quot;isPaintingLayer&quot;:true}" fill-rule="nonzero" stroke="none" stroke-width="0" stroke-linecap="butt" stroke-linejoin="miter" stroke-miterlimit="10" stroke-dasharray="" stroke-dashoffset="0" style="mix-blend-mode: normal"><path d="M198.76862,236.77757l1.61043,-0.26065l1.22651,7.16531l-1.61043,0.26065z" fill="#9e5400"/><path d="M174.93651,186.36373l0.88608,-1.37226l6.17389,3.82219l-0.88608,1.37225z" fill="#9e5400"/><path d="M152.34359,165.34605l1.33407,-0.97988l4.53567,5.5578l-1.33407,0.97989z" fill="#9e5400"/><path d="M155.34324,172.79317l3.74164,-4.38743l18.59171,14.83751l-3.74163,4.38744z" fill="#fda824"/><path d="M191.45098,209.32114l1.32661,-0.9495l4.28446,5.87278l-1.32659,0.9495z" fill="#9e5400"/><path d="M177.27709,190.42801l4.87542,-3.03657l12.94527,20.0551l-4.87541,3.03657z" fill="#fda824"/><path d="M192.98586,214.30999l5.66284,-0.93157l4.0845,23.53613l-5.66284,0.93157z" fill="#fda824"/><path d="M300.19111,248.39466l-1.53941,-0.53863l2.37232,-6.87351l1.53941,0.53863z" fill="#9e5400"/><path d="M287.64043,269.01316l-4.63325,-3.38332l14.05667,-19.32294l4.63325,3.38331z" fill="#fda824"/><path d="M314.67247,221.34437l-1.07588,-1.22571l5.4444,-4.81991l1.07588,1.22571z" fill="#9e5400"/><path d="M303.33521,242.84562l-4.82947,-3.09678l12.86176,-20.13805l4.82947,3.09678z" fill="#fda824"/><path d="M336.71827,199.85514l-0.61908,-1.50872l6.72919,-2.7565l0.61907,1.50872z" fill="#9e5400"/><path d="M320.8266,218.82514l-4.05529,-4.05837l16.95358,-16.83792l4.05529,4.05836z" fill="#fda824"/><path d="M364.23288,188.30318l-0.61908,-1.50872l6.72919,-2.7565l0.61907,1.50872z" fill="#9e5400"/><path d="M343.22321,199.50827l-2.29233,-5.25936l21.93311,-9.48038l2.29233,5.25936z" fill="#fda824"/></g></g></svg>