<svg version="1.1" xmlns="http://www.w3.org/2000/svg" xmlns:xlink="http://www.w3.org/1999/xlink" width="302.77423" height="143.30439" viewBox="0,0,302.77423,143.30439"><g transform="translate(-49.36549,-92.13573)"><g data-paper-data="{&quot;isPaintingLayer&quot;:true}" fill-rule="nonzero" stroke-linejoin="miter" stroke-miterlimit="10" stroke-dasharray="" stroke-dashoffset="0" style="mix-blend-mode: normal"><g data-paper-data="{&quot;index&quot;:null}" stroke="none" stroke-width="0.5" stroke-linecap="butt"><path d="M322.13883,126.32344c7.47382,-3.12082 13.95416,-1.08844 19.82486,-7.2332c0.03499,-0.65354 0.33139,-1.37679 1.18884,-2.01987c2.29321,-1.7199 4.0131,0.5733 4.0131,0.5733c1.22127,1.62835 3.34901,3.86495 4.97409,5.95507c-0.0996,0.07483 -0.18489,0.16454 -0.24929,0.27629c-0.23253,0.40352 -0.61617,1.27536 -1.06735,2.3877c-0.41736,0.03157 -0.82758,0.08897 -1.22743,0.17909c-0.03566,-0.03545 -0.0643,-0.0579 -0.08494,-0.06375c-0.5461,-0.15476 -1.09823,0.25891 -1.64777,0.42752h-1.24942c-0.69036,0 -1.25,0.55964 -1.25,1.25c0,0.69036 0.55964,1.25 1.25,1.25h1.40647v-0.06735c0.05589,0.02237 0.11358,0.04099 0.17338,0.05527c0.3118,0.07446 0.6143,-0.05944 0.91982,-0.20428c0.10309,0.25865 0.13663,0.59712 0.33907,0.72864c-1.05279,2.84422 -2.06013,5.81041 -2.26207,6.8272c-0.35412,1.78306 -0.65587,3.57757 -0.89657,5.37944c-0.0744,0.55697 0.12908,2.79158 -0.13606,3.11486c-0.56008,0.68289 -3.09917,1.83367 -3.42714,3.02273c-0.31113,1.12799 0.18249,2.33488 0.19472,3.50493c0.01305,1.24907 -0.91081,2.37127 -0.97316,3.61885c-0.05176,1.0356 0.84308,1.91893 1.00917,2.94244c0.13008,0.80161 0.31558,1.61034 0.55296,2.41354c-4.7992,3.81046 -4.35431,7.60477 -4.07469,12.9587c-0.70225,-0.07276 -1.13876,-0.28236 -1.26636,-1.21123c0,0 -0.11524,-0.30731 -0.38509,-0.54794c0.05057,-0.97359 0.31901,-2.04027 -0.24009,-2.79139c-1.80682,-2.42739 -3.83928,-0.63637 -4.38281,1.13849c-0.3288,1.07368 -0.44149,2.28921 -0.12436,3.36639c0.09457,0.32122 0.32525,0.56566 0.60224,0.77715v0.60591c0,0.0884 0.00918,0.17465 0.02663,0.25786c-0.49265,0.32492 -0.68384,0.91307 -0.73102,1.61634c-2.59688,1.09104 -8.49882,4.25021 -10.54948,3.31705c-4.76342,-2.16758 -3.30554,-12.71355 -4.55609,-16.55757c-0.71793,-2.20684 -1.8606,-3.75356 -3.24677,-5.00541c0.5509,-0.01845 0.97793,-0.09148 1.19798,-0.24542c4.13854,-2.89514 -0.79268,-5.26286 -3.04658,-5.65298c-0.82188,-0.14225 -1.75425,-0.24682 -2.49898,0.12881c-0.59517,0.3002 -0.5775,1.2481 -1.08584,1.67931c-0.0943,0.07999 -0.19305,0.15504 -0.29483,0.2267c-1.0003,-0.62613 -2.00952,-1.30134 -2.99137,-2.09881c-2.63168,-5.15569 -3.01001,-8.60742 -3.01001,-14.25872l-0.70491,-0.18946c0,0 -1.59004,-2.38507 0.79503,-3.97513c0.7917,-0.5278 1.49581,-0.6176 2.08324,-0.50203c0.69426,-1.57949 2.62088,-1.57949 2.62088,-1.57949l0.10483,0.08558c5.25361,-1.31272 9.4269,-3.79149 14.38323,-5.86108zM320.09084,135.61857c1.29086,-0.42288 2.38304,-1.51385 3.7368,-1.62566c0.36688,-0.0303 0.51975,0.69211 0.88636,0.6588c0.11216,-0.01019 0.22333,-0.02524 0.33367,-0.04441v0.08976h1.64088c0.69036,0 1.25,-0.55964 1.25,-1.25c0,-0.58089 -0.39623,-1.06923 -0.93317,-1.2095l-1.56903,-0.4483c-2.44169,-0.9594 -6.58801,-1.33525 -7.81262,1.50219c-0.31216,0.15642 -0.624,0.46892 -0.624,1.09325c0,0.49011 0.19217,0.78805 0.42581,0.96918c0.02458,0.30386 0.04893,0.60768 0.04302,0.90612c0,0 0,1.25 1.25,1.25c1.25,0 1.25,-1.25 1.25,-1.25c-0.0051,-0.18863 -0.03919,-0.40868 -0.08079,-0.63965z" fill="#d10000"/><path d="" fill="#d10000"/><path d="M320.41981,176.66499c-0.26026,-0.20792 -0.52719,-0.44376 -0.80138,-0.70965c-1.73866,-1.68596 -0.63185,-9.5888 -2.05902,-12.40587c-0.94309,-1.86154 -2.25808,-3.47729 -3.7338,-4.98724c0.91251,0.03286 1.64532,-0.02231 1.9586,-0.24147c4.13854,-2.89514 -0.79268,-5.26286 -3.04658,-5.65298c-0.82188,-0.14225 -1.75425,-0.24682 -2.49898,0.12881c-0.54127,0.27301 -0.57567,1.08171 -0.95981,1.5503c-3.97685,-3.59465 -7.67971,-7.37545 -7.79793,-13.53674c-0.09975,-5.19892 10.47364,-13.52181 15.83746,-12.00518c1.19223,0.33711 1.92583,1.46475 2.71335,2.49948c-1.05533,0.29452 -1.94262,0.90875 -2.40798,1.98701c-0.31216,0.15642 -0.624,0.46892 -0.624,1.09325c0,0.49011 0.19217,0.78805 0.42581,0.96918c0.02458,0.30386 0.04893,0.60768 0.04302,0.90612c0,0 0,1.25 1.25,1.25c1.25,0 1.25,-1.25 1.25,-1.25c-0.0051,-0.18863 -0.03919,-0.40868 -0.08079,-0.63965l0.20307,-0.00178c0.59949,-0.19639 1.15613,-0.53688 1.71602,-0.85646c1.4676,4.22395 2.53364,8.6974 4.74739,12.54c2.84126,4.93176 6.92896,8.95032 10.06228,13.67357c0.92195,1.38977 2.16952,3.38463 2.9751,5.47897c-0.45706,2.0243 -0.30897,4.22722 -0.1712,6.78804c-0.09568,0.1015 -0.2019,0.20339 -0.31788,0.30557c-0.50569,-0.11325 -0.82371,-0.38899 -0.92949,-1.15895c0,0 -0.11524,-0.30731 -0.38509,-0.54794c0.05057,-0.97359 0.31901,-2.04027 -0.24009,-2.79139c-1.80682,-2.42739 -3.83928,-0.63637 -4.38281,1.13849c-0.3288,1.07368 -0.44149,2.28921 -0.12436,3.36639c0.09457,0.32122 0.32525,0.56566 0.60224,0.77715v0.60591c0,0.0884 0.00918,0.17465 0.02663,0.25786c-0.49453,0.32616 -0.6853,0.91757 -0.73156,1.62441c-3.35427,1.37342 -6.96374,2.5731 -8.52278,3.29167c0,0 -2.60958,1.18618 -3.79573,-1.42339c-0.36767,-0.80893 -0.37066,-1.48106 -0.19966,-2.0235z" fill="#c00000"/><path d="" fill="#c00000"/><path d="M346.4987,115.36658c1.43392,2.62854 -1.26832,4.02335 -1.26832,4.02335l-3.34244,1.72483c-7.00826,3.86058 -13.76777,4.15192 -21.11548,6.86998c-7.49261,2.77166 -15.34112,8.67172 -22.31665,12.61028c-6.97386,3.93759 -13.77175,9.23998 -20.956,12.67719c-2.72556,1.30401 -5.83144,1.90212 -8.3438,3.56256c0,0 -2.54534,1.65063 -4.24224,-0.8253c-1.6969,-2.47593 0.84844,-4.12653 0.84844,-4.12653c2.7645,-1.76581 6.07534,-2.54997 9.04953,-3.95692c8.56487,-4.05163 16.59954,-10.34611 24.95696,-14.95338c5.94343,-3.27648 12.41955,-8.15007 18.73694,-10.51572c7.09125,-2.65544 13.73308,-2.79487 20.43024,-6.55494l3.42662,-1.76912c0,0 2.70225,-1.39482 4.13616,1.23372z" fill="#515151"/><path d="M331.71407,142.41196c0.46563,1.26298 -0.7802,1.99107 -0.7802,1.99107l-0.18929,0.1106c-2.216,1.27571 -4.34388,1.30046 -6.5869,2.04193c-1.06058,0.35058 2.10656,1.26209 2.39848,2.34028c0.19575,0.72301 -0.97422,1.16577 -1.26945,1.85415c-0.29952,0.69837 1.51397,0.51496 1.99499,1.10323c0.69637,0.85165 1.57215,1.78335 1.60639,2.8829c0.02093,0.67307 -1.15586,0.78803 -1.4737,1.38168c-0.23633,0.44137 0.40697,0.9322 0.73715,1.30857c0.28626,0.32628 4.01214,-2.2161 4.39663,-2.44079c0,0 0.34738,-0.20302 0.80363,-0.24365c0.91962,-0.47955 1.81752,0.25122 1.81752,0.25122c1.10558,0.90224 2.51044,2.44684 4.1201,2.31992c0.77711,-0.06127 1.79642,-0.5266 2.79835,-1.20534c0.24757,0.70763 0.75273,1.37713 0.87338,2.1206c0.06794,0.41864 0.15099,0.83922 0.24865,1.25995c-1.20148,0.70545 -2.43646,1.16022 -3.55399,1.22614l0.00001,-0.00009c-2.47994,0.14626 -4.16553,-1.0595 -5.89248,-2.4549c-1.32775,0.87194 -3.34879,2.40894 -4.5857,2.53996c-3.8992,0.41291 -6.35245,-4.18207 -3.68073,-6.51406c0.62788,-0.54803 -1.7587,-0.40436 -2.25952,-1.07049c-0.644,-0.85655 -1.33368,-1.85029 -1.34104,-2.92195c-0.00113,-0.16596 0.10964,-0.25563 0.26996,-0.31525c-1.8662,-1.70385 -2.06778,-4.07094 -0.22251,-6.03014c0.9656,-1.0252 4.47727,-1.34625 6.40421,-2.07512l0.02705,-0.20763c0.0233,-6.89713 6.08887,-7.24432 11.52474,-6.25416c2.37338,1.37308 4.6951,3.63882 6.43431,6.31511c-0.01368,0.09958 -0.02718,0.19919 -0.04049,0.29882c-0.0744,0.55697 0.12908,2.79158 -0.13606,3.11486c-0.2217,0.27032 -0.7535,0.61395 -1.33549,1.00424c-1.30349,-3.14423 -3.68085,-6.04061 -6.09641,-7.51978c-3.10956,-0.4544 -7.04474,-1.05347 -6.92979,3.00763zM323.21272,149.62023c0.12636,-0.13521 -0.07033,0.02398 -0.33054,0.18238c0.13227,-0.04094 0.24996,-0.09617 0.33054,-0.18238z" fill="#cfcfcf"/><path d="M336.2894,149.82751c0.96379,-2.09374 4.50442,-3.0002 6.33832,-0.85211c-0.00157,0.88438 0.28811,1.79873 0.29745,2.69164c0.00799,0.76506 -0.3355,1.48252 -0.61724,2.21035c-0.63864,0.52336 -1.46318,0.8826 -2.33807,1.02143c-0.61129,0.09705 -1.95695,-0.59314 -3.02088,-1.1962c-0.06763,-0.03176 -0.1345,-0.06941 -0.19964,-0.11397c-0.39787,-0.22868 -0.74343,-0.43575 -0.97706,-0.57003c0,0 -1.48205,-0.85401 -0.62804,-2.33606c0.32878,-0.57055 0.75064,-0.79489 1.14518,-0.85502z" fill="#cfcfcf"/><path d="M339.52022,141.46101c1.74792,2.86185 -1.02114,5.99861 -3.51814,5.79431c-0.24606,0.31424 -0.64854,0.57169 -1.30701,0.5781c-1.71041,0.01668 -1.72709,-1.69376 -1.72709,-1.69376c-0.0023,-0.26945 -0.01316,-0.67216 -0.01709,-1.13106c-0.00686,-0.07861 -0.00691,-0.15536 -0.00133,-0.22987c-0.00326,-1.22296 0.05593,-2.73412 0.44048,-3.21913c1.57603,-1.98764 4.52397,-2.72843 6.13017,-0.09861z" data-paper-data="{&quot;index&quot;:null}" fill="#cfcfcf"/></g><path d="M151.5021,199.50296h49.46882" fill="none" stroke="#8f1a1a" stroke-width="5" stroke-linecap="round"/><path d="M148.0257,169.71496h53.81605" fill="none" stroke="#8f1a1a" stroke-width="5" stroke-linecap="round"/><path d="M147.26576,155.25638h7.82297" fill="none" stroke="#8f1a1a" stroke-width="5" stroke-linecap="round"/><path d="M165.14613,155.25638h35.93569" fill="none" stroke="#8f1a1a" stroke-width="5" stroke-linecap="round"/><path d="M145.74259,217.00785h53.81605" fill="none" stroke="#8f1a1a" stroke-width="5" stroke-linecap="round"/><path d="M290.95268,164.77347c1.79092,-0.97975 0.53333,-2.53501 -0.45215,-3.7688c-1.94371,-1.0429 -5.341,-1.1829 -7.32566,0.14894c-0.97204,0.65228 -1.41048,3.34034 -0.925,4.34482c0.35304,0.73049 1.3793,0.94833 2.05101,1.19919c0,0 0.54466,0.20426 0.56978,0.7248c0.09805,0.20825 0.09805,0.41042 0.09805,0.41042c0,0.22375 -0.1583,2.48469 0.05584,2.52615c0.24696,0.04783 0.62302,0.20244 0.75457,-0.01199c0.17694,-0.28841 -0.07155,-0.82803 0.22575,-0.98961c0.48568,-0.26393 1.11191,-0.1202 1.65792,-0.03403c0.37714,0.05953 0.75736,0.89274 0.9844,0.58575c0.22377,-0.3026 0.11922,-0.92239 0.48251,-1.02078c0.54174,-0.14672 1.74016,0.99614 1.62336,0.44717c-0.24701,-1.16104 -0.77576,-2.09044 -0.78418,-3.37521v-0.11015c0,0 0,-0.72505 0.66595,-0.84325zM280.68146,166.20186c-0.89107,-1.75422 -0.08242,-5.33808 1.4983,-6.44984c2.62415,-1.84564 6.86827,-1.52201 9.41707,-0.07136c1.80772,2.10715 3.19494,4.82651 0.20875,6.58526l-0.08319,0.06439c0.17233,1.02074 0.92339,2.62554 0.72344,3.30436c-0.3821,1.29724 -1.46008,1.80992 -2.67239,1.43231c0.01476,0.08465 0.00396,0.15544 -0.06833,0.19704c-0.46675,0.2685 -1.07272,0.22126 -1.60759,0.15903c-0.41597,-0.04838 -0.95871,-1.12014 -1.03726,-0.70879c-0.33429,1.75027 -2.94965,1.85099 -3.7591,0.05474c-0.25678,-0.56978 -0.10237,-1.83623 -0.06075,-2.63331c-1.04318,-0.39541 -1.99362,-0.82095 -2.55891,-1.93388zM289.66785,170.71206c0.00275,-0.15304 0.02194,-0.27873 -0.00467,-0.18963c-0.01698,0.05681 -0.01111,0.12185 0.00467,0.18963z" fill="#cfcfcf" stroke="none" stroke-width="0.5" stroke-linecap="butt"/><path d="M286.25786,164.9021c0.07395,0.18639 0.08358,0.42629 -0.08059,0.71356c-0.42642,0.74623 -1.17264,0.31983 -1.17264,0.31983c-0.11748,-0.06733 -0.29492,-0.16472 -0.495,-0.27934c-0.03584,-0.01698 -0.06914,-0.03643 -0.10006,-0.05772c-0.53138,-0.30865 -1.17195,-0.71744 -1.28484,-1.00725c-0.46269,-1.18763 -0.03665,-2.6543 1.51143,-2.68436c1.68467,-0.03271 2.34339,1.96384 1.62171,2.99528z" fill="#cfcfcf" stroke="none" stroke-width="0.5" stroke-linecap="butt"/><path d="M289.06829,161.37934c1.54808,0.03006 1.97412,1.49674 1.51143,2.68437c-0.11292,0.28979 -0.75346,0.69857 -1.28484,1.00724c-0.03092,0.02131 -0.06422,0.04076 -0.10006,0.05769c-0.20006,0.11464 -0.37752,0.21203 -0.495,0.27936c0,0 -0.74624,0.42643 -1.17264,-0.31982c-0.16418,-0.28727 -0.15455,-0.52716 -0.0806,-0.71358c-0.7217,-1.03143 -0.06295,-3.028 1.62171,-2.99528z" data-paper-data="{&quot;index&quot;:null}" fill="#cfcfcf" stroke="none" stroke-width="0.5" stroke-linecap="butt"/><g fill="#db4747" stroke="#000000" stroke-width="0" stroke-linecap="butt"><path d="M290.68451,156.97135c4.1531,0.48979 6.40132,1.80931 8.17633,6.55652c0.4088,1.09332 1.16179,2.13276 1.21476,3.38958c0.02453,0.58212 -0.05074,1.07463 -0.20947,1.48921c0.55865,-0.08316 1.06231,-0.03146 1.3799,0.34995c2.42734,2.91523 -2.03226,3.9228 -3.76168,3.9228c-9.68868,0 -11.75797,-0.47124 -18.19695,-0.61064c-1.18863,-0.02573 -2.32561,-0.48865 -3.44065,0.00648c-0.47836,0.21241 -2.66947,1.03576 -3.2582,0.47432c-0.62236,-0.07611 -1.07673,-0.53955 -0.92965,-1.66499c-0.0068,-0.06522 -0.01031,-0.13148 -0.01031,-0.19859c0,-0.27544 0.0589,-0.53651 0.16427,-0.77027c0.85017,-3.67957 2.55983,-7.06237 4.25248,-10.38197c0.25132,-0.49289 0.96357,-3.00052 1.5613,-3.53319c1.28591,-1.14598 3.29717,-0.90555 4.80989,-1.20951c1.34607,-0.27048 4.8427,-1.13084 6.06388,0.14327c0.51551,0.53787 0.78107,1.24175 0.75495,1.8695c0.50432,0.0559 0.98442,0.11509 1.42914,0.16753z"/><path d="M302.6842,169.8489c0.10537,0.23377 0.16424,0.49484 0.16424,0.77028c0,0.06713 -0.00351,0.13337 -0.01031,0.19859c0.19947,1.52625 -0.70721,1.83504 -1.63889,1.61131c-0.72938,-0.17517 -1.47409,-0.67672 -1.71528,-1.17607c-1.86011,-3.85107 -2.42572,-9.19613 -5.17524,-12.56198c-0.26798,-0.32808 -1.97951,-0.22038 -2.08928,-0.2262c-1.8476,-0.09814 -2.95518,-0.09906 -5.35442,-0.19951c-1.91969,-0.08039 -2.04424,-2.17098 -0.86842,-3.39779c1.22118,-1.27414 4.71779,-0.41377 6.06388,-0.1433c1.51272,0.30396 3.52399,0.06352 4.80989,1.20951c0.59771,0.53268 1.30995,3.04031 1.56127,3.5332c1.69265,3.31962 3.40232,6.7024 4.25251,10.38197z" data-paper-data="{&quot;index&quot;:null}"/></g><g fill="#c74040" stroke="none" stroke-linecap="butt"><path d="M272.02745,169.29607c0,-1.37103 2.10332,-2.48244 4.69786,-2.48244c2.59454,0 4.69786,1.11144 4.69786,2.48244c0,1.37103 -2.10332,2.48245 -4.69786,2.48245c-2.59454,0 -4.69786,-1.11142 -4.69786,-2.48245z" stroke-width="NaN"/><path d="M293.60213,169.33255c0,-1.37103 2.1033,-2.48245 4.69784,-2.48245c2.59454,0 4.69784,1.11144 4.69784,2.48245c0,1.37103 -2.10329,2.48244 -4.69784,2.48244c-2.59454,0 -4.69784,-1.11141 -4.69784,-2.48244z" stroke-width="NaN"/><path d="M276.24233,171.77854v-4.96491h22.12815v4.96491z" stroke-width="0"/></g><path d="M273.81379,164.24846c0.54424,-0.50098 0.87565,-2.99399 1.27308,-3.91305c1.88387,-4.35661 4.05678,-6.37511 8.252,-6.49479c0.00567,-0.00016 0.01133,-0.00034 0.01702,-0.00054c0.05117,0.0124 0.10401,0.01931 0.15803,0.0202c0.00401,0.00002 0.00801,0.00005 0.01193,0.00011c1.31248,0.0146 2.62504,0.02401 3.93758,0.02793c0.94624,1.16646 0.92647,1.91529 -0.05926,3.09918c-0.5899,0.70845 -1.66145,0.20881 -2.49554,0.22652c-2.37928,0.05051 -4.28609,0.223 -5.89247,2.22337c-1.53217,1.90792 -4.15086,9.98198 -4.94299,12.27876c-0.25914,0.7514 -2.26229,2.8445 -2.95393,1.39082c-0.44471,-0.31522 -0.74305,-0.89664 -0.74305,-1.56175c0,-0.64679 0.28215,-1.21445 0.70668,-1.53514c0.97744,-2.13689 2.56331,-5.60735 2.73095,-5.76164z" fill="#bd2222" stroke="none" stroke-width="0.5" stroke-linecap="butt"/><path d="M303.56288,169.78676c0.42454,0.32066 0.70669,0.88833 0.70669,1.53514c0,0.66511 -0.29834,1.24652 -0.74305,1.56175c-0.69166,1.45369 -2.69479,-0.63945 -2.95394,-1.39084c-0.79213,-2.29678 -3.41082,-10.37082 -4.94299,-12.27874c-1.60641,-2.00037 -3.51319,-2.17286 -5.89247,-2.22337c-0.83409,-0.01771 -1.90567,0.48193 -2.49554,-0.22652c-0.92185,-1.10715 -0.99889,-1.83383 -0.23106,-2.87742c2.11018,0.00832 4.22041,0.00241 6.3305,-0.01915c0.03656,0.00585 0.07293,0.0114 0.10909,0.01663c2.85076,0.68497 4.57551,2.68196 6.10881,6.22786c0.3974,0.91906 0.72884,3.41207 1.27305,3.91305c0.16766,0.15431 1.75349,3.62476 2.73095,5.76165z" data-paper-data="{&quot;index&quot;:null}" fill="#bd2222" stroke="none" stroke-width="0.5" stroke-linecap="butt"/><path d="M297.02035,159.22241c-0.15282,0.36705 -0.45846,0.18354 -0.45846,0.18354l-0.12373,-0.0759c-1.90474,-0.92178 -3.70873,-1.26501 -5.63878,-1.95809c-1.08112,-0.0292 -2.17501,0.01029 -3.28863,0.01029c-2.92895,0 -5.55818,0.70678 -8.38528,1.42911c0,0 -0.33436,0.08453 -0.40477,-0.31704c-0.07039,-0.40158 0.26397,-0.48613 0.26397,-0.48613c0.26406,-0.06599 0.52642,-0.13207 0.78749,-0.19766c-0.08447,-0.28068 0.14099,-0.4612 0.14099,-0.4612c2.10501,-1.67508 5.0557,-0.90902 7.43375,-1.14703c2.99599,-0.0025 6.15583,0.36616 9.13993,0.72065l0.04083,-0.00204c0,0 0.34172,0 0.34172,0.41039c0,0.41039 -0.34172,0.41039 -0.34172,0.41039l-0.10881,-0.00204c-0.16771,-0.02038 -0.33599,-0.04076 -0.50479,-0.06105c0.0547,0.0844 0.08947,0.20849 0.03563,0.38094c-0.01954,0.06261 -0.04441,0.1112 -0.07232,0.14865c0.27018,0.11056 0.54156,0.22962 0.81464,0.35973l0.17556,0.10385c0,0 0.30564,0.18353 0.15282,0.55058zM281.35847,157.41975c0.53705,-0.1277 1.07185,-0.24821 1.608,-0.35628c-0.55831,0.05275 -1.10089,0.15832 -1.608,0.35628z" fill="#bd2222" stroke="none" stroke-width="0.5" stroke-linecap="butt"/><path d="M188.73522,165.8498c1.79092,-0.97975 0.53333,-2.53502 -0.45217,-3.7688c-1.94371,-1.0429 -5.34099,-1.1829 -7.32567,0.14894c-0.97201,0.65231 -1.41047,3.34035 -0.925,4.34483c0.35304,0.73049 1.3793,0.94832 2.05101,1.19919c0,0 0.54467,0.20426 0.56979,0.72478c0.09805,0.20825 0.09804,0.41042 0.09804,0.41042c0,0.22375 -0.1583,2.48469 0.05584,2.52615c0.24696,0.04781 0.62302,0.20244 0.75457,-0.01197c0.17694,-0.28839 -0.07155,-0.82806 0.22574,-0.98963c0.48568,-0.26393 1.11192,-0.1202 1.65792,-0.03403c0.37716,0.05953 0.75736,0.89276 0.9844,0.58575c0.22379,-0.3026 0.11924,-0.92242 0.4825,-1.0208c0.54174,-0.14672 1.74016,0.99614 1.62335,0.44716c-0.24701,-1.16104 -0.77576,-2.09044 -0.78417,-3.37521v-0.11015c0,0 0,-0.72505 0.66595,-0.84328zM178.46397,167.27818c-0.89104,-1.75422 -0.08241,-5.33808 1.4983,-6.44983c2.62416,-1.84567 6.86827,-1.52201 9.41707,-0.07137c1.80772,2.10715 3.19494,4.82651 0.20875,6.58526l-0.08322,0.06438c0.17236,1.02074 0.92339,2.62556 0.72347,3.30437c-0.3821,1.29724 -1.4601,1.80991 -2.67239,1.4323c0.01478,0.08467 0.00396,0.15545 -0.06831,0.19705c-0.46678,0.2685 -1.07271,0.22125 -1.60759,0.15902c-0.41594,-0.04838 -0.95871,-1.12014 -1.03726,-0.7088c-0.33429,1.75027 -2.94965,1.851 -3.7591,0.05475c-0.25676,-0.56981 -0.10237,-1.83626 -0.06076,-2.63332c-1.04318,-0.39541 -1.99362,-0.82094 -2.55891,-1.93385zM187.45038,171.78838c0.00275,-0.15304 0.02192,-0.27873 -0.00469,-0.18964c-0.01695,0.05681 -0.01111,0.12188 0.00469,0.18964z" fill="#cfcfcf" stroke="none" stroke-width="0.5" stroke-linecap="butt"/><path d="M184.0404,165.97842c0.07395,0.18639 0.08358,0.42629 -0.08059,0.71358c-0.42642,0.74623 -1.17265,0.31981 -1.17265,0.31981c-0.11748,-0.06731 -0.29494,-0.16472 -0.495,-0.27934c-0.03584,-0.01695 -0.06914,-0.03644 -0.10006,-0.05772c-0.53136,-0.30865 -1.17194,-0.71743 -1.28482,-1.00724c-0.46269,-1.18763 -0.03668,-2.65431 1.51143,-2.68437c1.68469,-0.03271 2.34341,1.96382 1.62171,2.99528z" fill="#cfcfcf" stroke="none" stroke-width="0.5" stroke-linecap="butt"/><path d="M186.85081,162.45566c1.5481,0.03006 1.97412,1.49673 1.51143,2.68436c-0.11292,0.28979 -0.75346,0.6986 -1.28484,1.00725c-0.03092,0.02131 -0.06422,0.04076 -0.10007,0.05772c-0.20006,0.11464 -0.37752,0.21204 -0.49499,0.27934c0,0 -0.74623,0.42642 -1.17265,-0.31981c-0.16418,-0.28727 -0.15454,-0.52716 -0.08059,-0.71358c-0.72172,-1.03146 -0.06297,-3.028 1.62171,-2.99528z" data-paper-data="{&quot;index&quot;:null}" fill="#cfcfcf" stroke="none" stroke-width="0.5" stroke-linecap="butt"/><g fill="#db4747" stroke="#000000" stroke-width="0" stroke-linecap="butt"><path d="M188.46706,158.0477c4.15308,0.48976 6.40134,1.80931 8.17635,6.5565c0.40881,1.09332 1.16179,2.13274 1.21476,3.38958c0.02453,0.58212 -0.05073,1.07463 -0.20949,1.48921c0.55865,-0.08313 1.06231,-0.03146 1.3799,0.34995c2.42731,2.91523 -2.03226,3.92282 -3.76168,3.92282c-9.68868,0 -11.75799,-0.47124 -18.19694,-0.61064c-1.1886,-0.02573 -2.32562,-0.48865 -3.44066,0.00648c-0.47835,0.21241 -2.66944,1.03576 -3.2582,0.47429c-0.62235,-0.07608 -1.07676,-0.53954 -0.92965,-1.66499c-0.00682,-0.06522 -0.01031,-0.13146 -0.01031,-0.19859c0,-0.27544 0.0589,-0.53651 0.16427,-0.77028c0.85017,-3.67957 2.55984,-7.06238 4.25251,-10.382c0.25132,-0.49289 0.96356,-3.00052 1.5613,-3.53317c1.28591,-1.14598 3.29718,-0.90555 4.8099,-1.20951c1.34609,-0.27048 4.8427,-1.13084 6.06388,0.14327c0.51551,0.53785 0.78107,1.24174 0.75495,1.86947c0.50431,0.0559 0.98442,0.11509 1.42914,0.16753z"/><path d="M200.46671,170.92522c0.10537,0.23377 0.16424,0.49484 0.16424,0.77028c0,0.06713 -0.00351,0.13336 -0.01031,0.19858c0.19947,1.52625 -0.70723,1.83504 -1.6389,1.61131c-0.72938,-0.17517 -1.47409,-0.67674 -1.71527,-1.17607c-1.86011,-3.85107 -2.42572,-9.19616 -5.17524,-12.56198c-0.268,-0.32808 -1.97951,-0.22038 -2.08928,-0.2262c-1.8476,-0.09814 -2.95518,-0.09906 -5.35442,-0.19951c-1.91968,-0.08037 -2.04424,-2.17101 -0.86842,-3.39778c1.22118,-1.27414 4.71779,-0.41375 6.06388,-0.14328c1.51271,0.30396 3.52399,0.06352 4.8099,1.20951c0.59771,0.53268 1.30996,3.04029 1.56127,3.5332c1.69267,3.31962 3.40234,6.70242 4.25251,10.38199z" data-paper-data="{&quot;index&quot;:null}"/></g><g fill="#c74040" stroke="none" stroke-linecap="butt"><path d="M169.80996,170.37242c0,-1.37103 2.10329,-2.48244 4.69783,-2.48244c2.59455,0 4.69783,1.11144 4.69783,2.48244c0,1.37103 -2.10329,2.48245 -4.69783,2.48245c-2.59455,0 -4.69783,-1.11144 -4.69783,-2.48245z" stroke-width="NaN"/><path d="M191.38467,170.40887c0,-1.37103 2.10329,-2.48245 4.69783,-2.48245c2.59455,0 4.69784,1.11144 4.69784,2.48245c0,1.37103 -2.1033,2.48244 -4.69784,2.48244c-2.59455,0 -4.69783,-1.11144 -4.69783,-2.48244z" stroke-width="NaN"/><path d="M174.02484,172.85486v-4.96491h22.12816v4.96491z" stroke-width="0"/></g><path d="M171.5963,165.32478c0.54423,-0.50096 0.87565,-2.99399 1.27308,-3.91305c1.88387,-4.35663 4.05677,-6.37509 8.252,-6.49477c0.00566,-0.00016 0.01134,-0.00034 0.01703,-0.00056c0.05116,0.0124 0.10401,0.01933 0.15805,0.02022c0.00402,0.00002 0.00798,0.00007 0.01192,0.00009c1.31248,0.0146 2.62501,0.02401 3.93758,0.02791c0.94624,1.16646 0.9265,1.91529 -0.05926,3.09918c-0.5899,0.70845 -1.66145,0.20881 -2.49555,0.22652c-2.37928,0.05051 -4.28609,0.223 -5.8925,2.22337c-1.53217,1.90792 -4.15086,9.98196 -4.94299,12.27874c-0.25914,0.75137 -2.2623,2.8445 -2.95393,1.39082c-0.44472,-0.31522 -0.74305,-0.89664 -0.74305,-1.56175c0,-0.64679 0.28214,-1.21445 0.70668,-1.53512c0.97744,-2.13689 2.56329,-5.60733 2.73093,-5.76164z" fill="#bd2222" stroke="none" stroke-width="0.5" stroke-linecap="butt"/><path d="M201.34542,170.86311c0.42454,0.32066 0.70669,0.88832 0.70669,1.53512c0,0.66509 -0.29834,1.24652 -0.74305,1.56175c-0.69166,1.45369 -2.69479,-0.63945 -2.95393,-1.39082c-0.79213,-2.29678 -3.41082,-10.37082 -4.94299,-12.27874c-1.60641,-2.00037 -3.5132,-2.17287 -5.89248,-2.22338c-0.83409,-0.01771 -1.90568,0.48194 -2.49554,-0.22652c-0.92187,-1.10718 -0.99888,-1.83383 -0.23108,-2.87742c2.11018,0.0083 4.22041,0.00242 6.3305,-0.01914c0.03656,0.00582 0.07293,0.01138 0.10909,0.01662c2.85076,0.68497 4.57551,2.68196 6.10881,6.22785c0.3974,0.91906 0.72883,3.41207 1.27305,3.91305c0.16764,0.15431 1.75349,3.62475 2.73093,5.76164z" data-paper-data="{&quot;index&quot;:null}" fill="#bd2222" stroke="none" stroke-width="0.5" stroke-linecap="butt"/><path d="M194.80288,160.29873c-0.15282,0.36707 -0.45845,0.18354 -0.45845,0.18354l-0.12374,-0.0759c-1.90473,-0.92178 -3.70872,-1.26501 -5.63877,-1.95809c-1.08112,-0.02918 -2.17502,0.0103 -3.28863,0.0103c-2.92895,0 -5.55818,0.70678 -8.3853,1.42911c0,0 -0.33438,0.08454 -0.40478,-0.31704c-0.07039,-0.40159 0.264,-0.48613 0.264,-0.48613c0.26406,-0.06599 0.52641,-0.13208 0.78746,-0.19764c-0.08449,-0.28068 0.14099,-0.46119 0.14099,-0.46119c2.10502,-1.67508 5.0557,-0.90902 7.43375,-1.14701c2.99601,-0.0025 6.15583,0.36616 9.13994,0.72065l0.04083,-0.00204c0,0 0.3417,0 0.3417,0.4104c0,0.41039 -0.3417,0.41039 -0.3417,0.41039l-0.10884,-0.00204c-0.16769,-0.02038 -0.33596,-0.04077 -0.50479,-0.06106c0.0547,0.0844 0.08948,0.20849 0.03562,0.38094c-0.01954,0.06261 -0.04441,0.11118 -0.07232,0.14865c0.27018,0.11056 0.54154,0.22962 0.81464,0.35972l0.17556,0.10383c0,0 0.30564,0.18354 0.15282,0.55061zM179.14098,158.49606c0.53705,-0.12772 1.07185,-0.24821 1.608,-0.35628c-0.55829,0.05275 -1.1009,0.15835 -1.608,0.35628z" fill="#bd2222" stroke="none" stroke-width="0.5" stroke-linecap="butt"/><path d="M246.08504,152.96024c4.94646,-2.70603 1.47304,-7.00165 -1.24886,-10.40932c-5.36848,-2.88046 -14.75167,-3.26713 -20.23329,0.41139c-2.68471,1.80162 -3.89566,9.22592 -2.5548,12.00026c0.97508,2.0176 3.80961,2.61926 5.66482,3.31214c0,0 1.50438,0.56414 1.57375,2.00185c0.27081,0.57516 0.27081,1.13354 0.27081,1.13354c0,0.61801 -0.43721,6.86265 0.1542,6.97716c0.68213,0.13207 1.72075,0.55916 2.08411,-0.03307c0.48872,-0.79653 -0.19759,-2.28707 0.62353,-2.73331c1.34142,-0.72895 3.0711,-0.33201 4.57914,-0.09397c1.04168,0.16442 2.09182,2.46576 2.71889,1.61784c0.6181,-0.83577 0.32933,-2.54766 1.33267,-2.81941c1.49631,-0.40523 4.80627,2.75133 4.48365,1.23506c-0.68223,-3.20677 -2.14265,-5.77373 -2.16584,-9.32223v-0.30423c0,0 0,-2.00259 1.83935,-2.32908zM217.71612,156.90543c-2.46105,-4.8451 -0.22762,-14.74361 4.13826,-17.81425c7.24782,-5.09767 18.96999,-4.20375 26.00972,-0.1971c4.99289,5.81986 8.8243,13.3307 0.57652,18.18833l-0.22983,0.17783c0.47602,2.81925 2.55038,7.25169 1.99817,9.12656c-1.05535,3.58293 -4.03272,4.99893 -7.38109,3.95598c0.04081,0.23384 0.01097,0.42937 -0.18868,0.54424c-1.28919,0.7416 -2.96282,0.6111 -4.44012,0.43926c-1.14887,-0.13361 -2.64791,-3.09378 -2.86489,-1.95771c-0.92327,4.83419 -8.14683,5.11238 -10.38251,0.15123c-0.70918,-1.57377 -0.28279,-5.07169 -0.16781,-7.27313c-2.88123,-1.0921 -5.50631,-2.26743 -7.06766,-5.34128zM242.5363,169.36247c0.00757,-0.42273 0.06058,-0.76985 -0.01294,-0.52376c-0.04686,0.1569 -0.03065,0.33658 0.01294,0.52376z" fill="#cfcfcf" stroke="none" stroke-width="0.5" stroke-linecap="butt"/><path d="M233.11804,153.31554c0.20424,0.51484 0.23085,1.1774 -0.22257,1.97088c-1.17774,2.06106 -3.23883,0.88331 -3.23883,0.88331c-0.32448,-0.18591 -0.81457,-0.45494 -1.36717,-0.77155c-0.099,-0.04686 -0.19098,-0.10061 -0.27637,-0.15941c-1.46762,-0.85248 -3.23685,-1.98155 -3.54865,-2.78198c-1.27797,-3.28018 -0.10129,-7.33112 4.17448,-7.41416c4.65304,-0.09034 6.47242,5.42404 4.47914,8.27288z" fill="#cfcfcf" stroke="none" stroke-width="0.5" stroke-linecap="butt"/><path d="M240.88035,143.58574c4.27579,0.08301 5.45245,4.13394 4.1745,7.41416c-0.31187,0.80039 -2.08105,1.92948 -3.54868,2.78198c-0.08537,0.05883 -0.17737,0.11256 -0.27634,0.15939c-0.55258,0.31663 -1.0427,0.58561 -1.36718,0.77155c0,0 -2.06108,1.17777 -3.23883,-0.88331c-0.45342,-0.79347 -0.42681,-1.456 -0.22257,-1.97088c-1.99334,-2.84884 -0.17392,-8.36322 4.4791,-8.27288z" data-paper-data="{&quot;index&quot;:null}" fill="#cfcfcf" stroke="none" stroke-width="0.5" stroke-linecap="butt"/><g fill="#db4747" stroke="#000000" stroke-width="0" stroke-linecap="butt"><path d="M245.34437,131.41107c11.47069,1.35273 17.6803,4.99726 22.58282,18.10887c1.1291,3.01975 3.20883,5.89057 3.35514,9.36195c0.06776,1.6078 -0.14012,2.96808 -0.57858,4.11318c1.54296,-0.22962 2.93407,-0.0869 3.81122,0.96657c6.70419,8.05181 -5.61304,10.83469 -10.38963,10.83469c-26.75988,0 -32.47524,-1.30157 -50.25945,-1.68657c-3.28292,-0.07107 -6.42328,-1.34963 -9.50297,0.01789c-1.3212,0.58668 -7.37295,2.86076 -8.99904,1.31002c-1.71894,-0.21015 -2.97395,-1.49018 -2.56768,-4.59866c-0.01881,-0.18014 -0.02847,-0.36313 -0.02847,-0.5485c0,-0.76074 0.16268,-1.48184 0.45367,-2.12748c2.34813,-10.16287 7.0702,-19.50606 11.74529,-28.67474c0.69415,-1.36135 2.66136,-8.28732 4.31225,-9.75853c3.55165,-3.16517 9.10671,-2.5011 13.28481,-3.34063c3.71784,-0.74704 13.37542,-3.12336 16.74827,0.39575c1.4238,1.48553 2.15727,3.42968 2.08518,5.16345c1.39289,0.15443 2.71889,0.31788 3.94723,0.46272z"/><path d="M278.48706,166.97846c0.29104,0.64566 0.45365,1.36672 0.45365,2.12745c0,0.18537 -0.00968,0.36836 -0.02848,0.54852c0.55095,4.21546 -1.95333,5.06833 -4.52659,4.45037c-2.01456,-0.4838 -4.0714,-1.86913 -4.73753,-3.24828c-5.13759,-10.63654 -6.69977,-25.39949 -14.29387,-34.6958c-0.74019,-0.90614 -5.46734,-0.60867 -5.77053,-0.62476c-5.10301,-0.27104 -8.16211,-0.27364 -14.78875,-0.55108c-5.30212,-0.22198 -5.6461,-5.99624 -2.39855,-9.38459c3.37285,-3.51911 13.03041,-1.14279 16.74827,-0.39575c4.17809,0.83953 9.73316,0.17544 13.28481,3.34061c1.65089,1.47126 3.61807,8.3972 4.3122,9.75855c4.67507,9.16868 9.39715,18.51188 11.74529,28.67475z" data-paper-data="{&quot;index&quot;:null}"/></g><g fill="#c74040" stroke="none" stroke-linecap="butt"><path d="M193.81398,165.45158c0,-3.78673 5.80923,-6.85646 12.97532,-6.85646c7.16609,0 12.97532,3.06975 12.97532,6.85646c0,3.78673 -5.80923,6.85647 -12.97532,6.85647c-7.16609,0 -12.97532,-3.06973 -12.97532,-6.85647z" stroke-width="NaN"/><path d="M253.4027,165.55228c0,-3.78673 5.80923,-6.85647 12.9753,-6.85647c7.16607,0 12.9753,3.06976 12.9753,6.85647c0,3.78673 -5.80924,6.85646 -12.9753,6.85646c-7.16609,0 -12.9753,-3.06973 -12.9753,-6.85646z" stroke-width="NaN"/><path d="M205.45538,172.30806v-13.71293h61.11734v13.71293z" stroke-width="0"/></g><path d="M198.74781,151.51018c1.50317,-1.38366 2.41852,-8.2693 3.51617,-10.80772c5.20317,-12.03286 11.20471,-17.60784 22.79181,-17.93837c0.01562,-0.00046 0.03131,-0.00095 0.04702,-0.00154c0.14135,0.03427 0.28727,0.05339 0.43653,0.05584c0.01109,0.00007 0.02206,0.00016 0.03294,0.00027c3.62503,0.04031 7.25022,0.06633 10.87547,0.0771c2.6135,3.22173 2.55893,5.28998 -0.16368,8.55986c-1.62927,1.95675 -4.58891,0.57674 -6.89264,0.62564c-6.57153,0.13949 -11.83802,0.61594 -16.27488,6.14089c-4.23181,5.26961 -11.46455,27.5699 -13.6524,33.91355c-0.71576,2.0753 -6.24839,7.85646 -8.15869,3.84139c-1.22833,-0.87063 -2.0523,-2.47651 -2.0523,-4.31349c0,-1.78645 0.7793,-3.35428 1.95185,-4.23997c2.69967,-5.90202 7.07974,-15.48728 7.54278,-15.91348z" fill="#bd2222" stroke="none" stroke-width="0.5" stroke-linecap="butt"/><path d="M280.91398,166.80685c1.17258,0.88566 1.95186,2.45352 1.95186,4.23997c0,1.83698 -0.82401,3.44286 -2.05231,4.3135c-1.91033,4.01506 -7.44295,-1.76612 -8.15869,-3.84142c-2.18785,-6.34365 -9.42057,-28.64392 -13.6524,-33.91353c-4.43684,-5.52495 -9.70335,-6.0014 -16.27488,-6.14089c-2.30373,-0.0489 -5.26338,1.33109 -6.89264,-0.62564c-2.54617,-3.05796 -2.75888,-5.065 -0.63818,-7.94737c5.82827,0.02294 11.65666,0.00669 17.48466,-0.05286c0.101,0.01612 0.20144,0.03144 0.3013,0.0459c7.87371,1.8919 12.63745,7.40752 16.87237,17.20114c1.09763,2.53841 2.01299,9.42406 3.51617,10.80774c0.46303,0.42622 4.84308,10.01145 7.54277,15.91347z" data-paper-data="{&quot;index&quot;:null}" fill="#bd2222" stroke="none" stroke-width="0.5" stroke-linecap="butt"/><path d="M262.84371,137.62838c-0.42207,1.01382 -1.26623,0.50692 -1.26623,0.50692l-0.34177,-0.20963c-5.26082,-2.54594 -10.24336,-3.49389 -15.57412,-5.40817c-2.98605,-0.08061 -6.00734,0.0284 -9.08312,0.0284c-8.08969,0 -15.35155,1.95208 -23.15993,3.94719c0,0 -0.92353,0.2335 -1.11796,-0.87567c-0.19441,-1.10917 0.72911,-1.34269 0.72911,-1.34269c0.72933,-0.18229 1.45398,-0.36477 2.17497,-0.5459c-0.23334,-0.77519 0.3894,-1.27379 0.3894,-1.27379c5.81399,-4.62654 13.96375,-2.51067 20.53183,-3.16803c8.27485,-0.00689 17.00219,1.0113 25.24424,1.9904l0.11276,-0.00565c0,0 0.9438,0 0.9438,1.1335c0,1.1335 -0.9438,1.1335 -0.9438,1.1335l-0.30058,-0.00562c-0.46317,-0.05629 -0.92797,-0.11256 -1.3942,-0.16864c0.15107,0.23309 0.24712,0.57584 0.09839,1.05218c-0.05397,0.17292 -0.12264,0.30709 -0.19977,0.41057c0.74622,0.30534 1.49574,0.63423 2.25001,0.99353l0.48489,0.2868c0,0 0.84414,0.50692 0.42207,1.52074zM219.586,132.64949c1.48332,-0.35274 2.96044,-0.68554 4.44124,-0.98406c-1.542,0.14568 -3.04061,0.43733 -4.44124,0.98406z" fill="#bd2222" stroke="none" stroke-width="0.5" stroke-linecap="butt"/><g data-paper-data="{&quot;index&quot;:null}" fill="#ff3b3b" stroke="#000000" stroke-width="0" stroke-linecap="butt"><path d="M269.73346,128.88002c0.28537,0.39908 0.59456,0.82897 0.9165,1.28273c0.26748,-0.25313 0.74085,-0.25975 1.28654,0.02904c1.29269,0.68416 2.96266,4.28501 3.63292,5.64911c0.75323,1.53296 2.0451,3.3364 2.28549,4.96274c0.11176,0.75595 -0.59891,2.33874 -0.67311,2.7545c-0.49955,2.80032 -1.01756,5.63969 -2.17507,7.77891c-0.0433,0.18417 -0.12625,0.33463 -0.25034,0.43492c-0.03019,0.02444 -0.06214,0.04527 -0.09553,0.06259c-0.4205,0.54816 -0.89668,0.28966 -1.29724,-0.26778c-0.59942,-0.34912 -1.51784,-2.70894 -1.7036,-3.23604c-0.43309,-1.22864 -1.3107,-2.12904 -2.02175,-3.23724c-3.85188,-6.00322 -5.28188,-7.77718 -10.98327,-16.88654c-1.01767,-1.626 -3.188,-6.18582 -0.44619,-4.96525c0.3587,0.15971 0.67841,0.61442 0.96968,1.16997c0.09343,-0.30021 0.27098,-0.55028 0.54769,-0.73924c0.59744,-0.40785 1.50882,-0.0784 2.24196,-0.0922c3.18331,-0.0598 5.10077,1.57345 7.76539,5.29986z"/><path d="M256.87032,122.28744c2.15813,-0.54054 4.6883,-0.16504 7.17997,0.21758c0.36998,0.05681 1.91887,-0.18669 2.51055,0.18129c1.27301,0.7917 2.34824,2.77022 3.37535,4.08181c0.91396,1.16714 3.3592,4.14136 3.50379,5.75348c0.13917,1.55228 -0.87601,2.19642 -2.04188,0.42082c-1.45711,-2.21913 -2.10927,-3.26018 -3.24072,-4.96153c-0.0672,-0.10104 -1.02579,-1.74945 -1.33134,-1.88199c-3.13441,-1.35944 -5.87543,0.0552 -8.70506,-0.29129c-0.36687,-0.04491 -1.03109,-0.56251 -1.53922,-1.18448c-0.64904,-0.79451 -1.04347,-1.75942 -0.23846,-2.12764c0.02535,-0.03017 0.05314,-0.05758 0.0834,-0.08204c0.1241,-0.10029 0.27636,-0.13994 0.44367,-0.12602z" data-paper-data="{&quot;index&quot;:null}"/></g><g data-paper-data="{&quot;index&quot;:null}" fill="#ff6e3b" stroke="#000000" stroke-width="0" stroke-linecap="butt"><path d="M202.2762,129.96961c2.66459,-3.72641 4.58209,-5.35966 7.76542,-5.29986c0.73317,0.01381 1.64452,-0.31566 2.24198,0.0922c0.27671,0.18896 0.45428,0.43905 0.54768,0.73924c0.29127,-0.55555 0.61096,-1.01026 0.96966,-1.16997c2.74179,-1.22057 0.57151,3.33923 -0.44619,4.96525c-5.70141,9.10935 -7.13141,10.88329 -10.98329,16.88653c-0.71102,1.10817 -1.58864,2.0086 -2.02175,3.23724c-0.18578,0.5271 -1.10421,2.88694 -1.70362,3.23603c-0.40053,0.55743 -0.87669,0.81594 -1.29724,0.26778c-0.03341,-0.01732 -0.06534,-0.03816 -0.09553,-0.0626c-0.1241,-0.10029 -0.20704,-0.25075 -0.25034,-0.43492c-1.15752,-2.13922 -1.67551,-4.97855 -2.17507,-7.7789c-0.07417,-0.41576 -0.78485,-1.99856 -0.67309,-2.75451c0.24039,-1.62634 1.53226,-3.42975 2.28549,-4.96271c0.67022,-1.36409 2.34023,-4.96496 3.63292,-5.64914c0.54568,-0.28879 1.01904,-0.28217 1.28654,-0.02904c0.32193,-0.45376 0.63113,-0.88362 0.9165,-1.2827z"/><path d="M215.1393,123.37686c0.1673,-0.01392 0.3196,0.02574 0.4437,0.12603c0.03027,0.02444 0.05803,0.05186 0.0834,0.08204c0.80501,0.36822 0.41057,1.33313 -0.23847,2.12764c-0.50813,0.62197 -1.17238,1.13955 -1.53924,1.18448c-2.82963,0.34649 -5.57062,-1.06816 -8.70503,0.29129c-0.30554,0.13253 -1.26414,1.78094 -1.33133,1.88199c-1.13145,1.70138 -1.78363,2.74242 -3.24073,4.96156c-1.16586,1.7756 -2.18105,1.13146 -2.04188,-0.42082c0.14459,-1.61212 2.58986,-4.58635 3.50382,-5.75349c1.02713,-1.31157 2.10231,-3.2901 3.37534,-4.0818c0.5917,-0.36798 2.14063,-0.12448 2.51058,-0.18129c2.49167,-0.38262 5.02181,-0.75811 7.17996,-0.21758z" data-paper-data="{&quot;index&quot;:null}"/></g><path d="M252.24563,124.74667v-28.43253" fill="#bd2222" stroke="#bd2222" stroke-width="1.5" stroke-linecap="round"/><path d="M241.95527,125.31174v-12.49308" fill="#bd2222" stroke="#bd2222" stroke-width="1.5" stroke-linecap="round"/><path d="M239.7287,110.8291c0,-1.56504 1.05635,-2.83373 2.35946,-2.83373c1.30311,0 2.35946,1.26869 2.35946,2.83373c0,1.56504 -1.05635,2.83374 -2.35946,2.83374c-1.30311,0 -2.35946,-1.2687 -2.35946,-2.83374z" fill="#fa6a6a" stroke="none" stroke-width="0.5" stroke-linecap="butt"/><path d="M249.52613,94.96947c0,-1.56504 1.05635,-2.83374 2.35946,-2.83374c1.30311,0 2.35946,1.2687 2.35946,2.83374c0,1.56504 -1.05635,2.83374 -2.35946,2.83374c-1.30311,0 -2.35946,-1.2687 -2.35946,-2.83374z" fill="#fa6a6a" stroke="none" stroke-width="0.5" stroke-linecap="butt"/><g fill="#bd2222" stroke="none" stroke-linecap="butt"><path d="M152.95537,201.24716c0,-16.47401 11.67972,-29.82882 26.08739,-29.82882c14.40767,0 26.0874,13.35481 26.0874,29.82882c0,16.47401 -11.67973,29.8288 -26.0874,29.8288c-14.40767,0 -26.08739,-13.35482 -26.08739,-29.8288z" stroke-width="NaN"/><path d="M272.76097,201.40424c0,-16.47401 11.67973,-29.8288 26.0874,-29.8288c14.40767,0 26.08739,13.35481 26.08739,29.8288c0,16.47401 -11.67972,29.8288 -26.08739,29.8288c-14.40767,0 -26.0874,-13.35482 -26.0874,-29.8288z" stroke-width="NaN"/><path d="M176.36086,231.076v-59.65762h122.87893v59.65762z" stroke-width="0"/></g><g fill="#db4747" stroke="none" stroke-linecap="butt"><path d="M160.4543,201.21166c0,-12.96897 10.51341,-23.48238 23.48238,-23.48238c12.96897,0 23.48239,10.51341 23.48239,23.48238c0,12.96897 -10.51342,23.48236 -23.48239,23.48236c-12.96897,0 -23.48238,-10.51341 -23.48238,-23.48236z" stroke-width="NaN"/><path d="M268.29642,201.55653c0,-12.96897 10.51342,-23.48236 23.48239,-23.48236c12.96895,0 23.48236,10.51339 23.48236,23.48236c0,12.96897 -10.51341,23.48238 -23.48236,23.48238c-12.96897,0 -23.48239,-10.51341 -23.48239,-23.48238z" stroke-width="NaN"/><path d="M181.52259,224.69404v-46.96474h110.60855v46.96474z" stroke-width="0"/></g><g fill="#c74040" stroke="none" stroke-linecap="butt"><path d="M168.97662,218.16613c0,-3.78673 9.45416,-6.85647 21.11644,-6.85647c11.6623,0 21.11644,3.06976 21.11644,6.85647c0,3.78673 -9.45414,6.85646 -21.11644,6.85646c-11.6623,0 -21.11644,-3.06973 -21.11644,-6.85646z" stroke-width="NaN"/><path d="M265.95322,218.26683c0,-3.78673 9.45414,-6.85646 21.11644,-6.85646c11.66228,0 21.11642,3.06975 21.11642,6.85646c0,3.78673 -9.45414,6.85647 -21.11642,6.85647c-11.6623,0 -21.11644,-3.06973 -21.11644,-6.85647z" stroke-width="NaN"/><path d="M187.92219,225.02262v-13.71293h99.46432v13.71293z" stroke-width="0"/></g><path d="M170.18703,201.32444c0,-11.41891 9.25684,-20.67574 20.67574,-20.67574c11.41891,0 20.67574,9.25685 20.67574,20.67574c0,11.41891 -9.25682,20.67576 -20.67574,20.67576c-11.41891,0 -20.67574,-9.25684 -20.67574,-20.67576z" fill="#bd2222" stroke="none" stroke-width="0" stroke-linecap="butt"/><path d="M260.7468,201.06548c0,-11.41891 9.25684,-20.67574 20.67576,-20.67574c11.4189,0 20.67574,9.25685 20.67574,20.67574c0,11.41891 -9.25684,20.67574 -20.67574,20.67574c-11.41892,0 -20.67576,-9.25684 -20.67576,-20.67574z" fill="#bd2222" stroke="none" stroke-width="0" stroke-linecap="butt"/><path d="M215.27176,201.19302c0,-11.41891 9.25684,-20.67574 20.67574,-20.67574c11.41891,0 20.67576,9.25684 20.67576,20.67574c0,11.41891 -9.25684,20.67576 -20.67576,20.67576c-11.41891,0 -20.67574,-9.25684 -20.67574,-20.67576z" fill="#bd2222" stroke="none" stroke-width="0" stroke-linecap="butt"/><path d="M178.86049,201.12631c0,-6.68258 5.41728,-12.09985 12.09985,-12.09985c6.68258,0 12.09985,5.41729 12.09985,12.09985c0,6.68258 -5.41729,12.09987 -12.09985,12.09987c-6.68258,0 -12.09985,-5.41731 -12.09985,-12.09987z" fill="#fa5050" stroke="none" stroke-width="0" stroke-linecap="butt"/><path d="M224.20324,201.81531c0,-6.68258 5.41729,-12.09986 12.09985,-12.09986c6.68258,0 12.09985,5.41729 12.09985,12.09986c0,6.68258 -5.41728,12.09987 -12.09985,12.09987c-6.68258,0 -12.09985,-5.41731 -12.09985,-12.09987z" fill="#fa5050" stroke="none" stroke-width="0" stroke-linecap="butt"/><path d="M270.13741,201.91291c0,-6.68258 5.41728,-12.09985 12.09985,-12.09985c6.68259,0 12.09985,5.41729 12.09985,12.09985c0,6.68258 -5.41729,12.09987 -12.09985,12.09987c-6.68259,0 -12.09985,-5.41729 -12.09985,-12.09987z" fill="#fa5050" stroke="none" stroke-width="0" stroke-linecap="butt"/><path d="M200.14312,206.67873c-2.83373,0 -2.83374,-2.83373 -2.83374,-2.83373v-0.58298c0.00326,-6.28405 -0.56271,-8.27786 -7.27114,-8.24275c0,0 -2.83374,0 -2.83374,-2.83373c0,-2.83373 2.83374,-2.83374 2.83374,-2.83374c9.74556,0.04208 12.93406,4.60895 12.93862,13.91022v0.58298c0,0 0,2.83373 -2.83374,2.83373z" fill="#fa6a6a" stroke="none" stroke-width="0.5" stroke-linecap="butt"/><path d="M245.69363,206.74756c-2.83373,0 -2.83374,-2.83374 -2.83374,-2.83374v-0.58295c0.00326,-6.28403 -0.56271,-8.27787 -7.27112,-8.24277c0,0 -2.83374,0 -2.83374,-2.83374c0,-2.83373 2.83374,-2.83374 2.83374,-2.83374c9.74556,0.04208 12.93404,4.60895 12.93859,13.91025v0.58295c0,0 0,2.83374 -2.83374,2.83374z" fill="#fa6a6a" stroke="none" stroke-width="0.5" stroke-linecap="butt"/><path d="M291.45276,207.65097c-2.83373,0 -2.83373,-2.83373 -2.83373,-2.83373v-0.58295c0.00326,-6.28402 -0.56271,-8.27787 -7.27112,-8.24278c0,0 -2.83374,0 -2.83374,-2.83374c0,-2.83373 2.83374,-2.83374 2.83374,-2.83374c9.74556,0.04208 12.93404,4.60895 12.93859,13.91025v0.58295c0,0 0,2.83373 -2.83374,2.83373z" fill="#fa6a6a" stroke="none" stroke-width="0.5" stroke-linecap="butt"/><path d="M166.48458,183.1316c0.38036,7.13814 -0.29693,7.22383 -0.29693,7.22383l-0.86704,0.10972c-4.00788,0.44606 -8.08206,0.00071 -12.09595,0.50869c0,0 -0.67731,0.08571 -1.05765,-7.05242c-0.38036,-7.13814 0.29693,-7.22383 0.29693,-7.22383c4.01291,-0.50788 8.09619,0.06492 12.09598,-0.50874l0.86701,-0.10972c0,0 0.67729,-0.08569 1.05764,7.05245z" fill="#fc9b2d" stroke="none" stroke-width="0.5" stroke-linecap="butt"/><path d="M324.83628,185.45964c0.12269,7.16173 -0.55455,7.18948 -0.55455,7.18948l-0.86696,0.0355c-4.00541,0.10308 -8.04482,-0.68976 -12.05846,-0.52536c0,0 -0.67727,0.02777 -0.79998,-7.13396c-0.12269,-7.16173 0.55455,-7.18948 0.55455,-7.18948c4.01261,-0.1644 8.05655,0.75654 12.05846,0.52535l0.86696,-0.03552c0,0 0.67724,-0.02777 0.79995,7.13397z" fill="#fcbb71" stroke="none" stroke-width="0.5" stroke-linecap="butt"/><path d="M172.79438,235.44012v-8.48346h131.77639v8.48346z" fill="#7e1717" stroke="none" stroke-width="0" stroke-linecap="butt"/><path d="M246.88577,151.35877c4.94646,-2.70603 1.47304,-7.00164 -1.24887,-10.40931c-5.36848,-2.88046 -14.75166,-3.26714 -20.23328,0.41139c-2.68471,1.80162 -3.89567,9.22592 -2.55481,12.00026c0.97508,2.0176 3.80961,2.61926 5.66483,3.31214c0,0 1.50437,0.56414 1.57374,2.00185c0.27081,0.57516 0.27081,1.13354 0.27081,1.13354c0,0.61801 -0.43721,6.86265 0.1542,6.97716c0.68213,0.13207 1.72076,0.55915 2.08411,-0.03308c0.48872,-0.79653 -0.19759,-2.28707 0.62353,-2.73331c1.34142,-0.72895 3.07109,-0.33201 4.57914,-0.09397c1.04168,0.16442 2.09183,2.46576 2.7189,1.61784c0.6181,-0.83577 0.32933,-2.54766 1.33267,-2.81941c1.49631,-0.40523 4.80626,2.75133 4.48365,1.23506c-0.68223,-3.20677 -2.14264,-5.77373 -2.16583,-9.32223v-0.30423c0,0 0,-2.00259 1.83935,-2.32908zM218.51684,155.30399c-2.46105,-4.8451 -0.22762,-14.74362 4.13826,-17.81426c7.24782,-5.09767 18.96998,-4.20374 26.00971,-0.19709c4.99289,5.81986 8.82431,13.3307 0.57652,18.18833l-0.22983,0.17782c0.47602,2.81925 2.55038,7.25169 1.99817,9.12656c-1.05535,3.58293 -4.03273,4.99894 -7.38109,3.95599c0.04081,0.23384 0.01098,0.42936 -0.18868,0.54423c-1.28919,0.7416 -2.96282,0.61109 -4.44012,0.43925c-1.14887,-0.13361 -2.64791,-3.09378 -2.86489,-1.95771c-0.92327,4.83419 -8.14684,5.11238 -10.38252,0.15123c-0.70918,-1.57377 -0.28278,-5.07169 -0.1678,-7.27314c-2.88123,-1.0921 -5.50632,-2.26742 -7.06766,-5.34127zM243.33702,167.76102c0.00757,-0.42273 0.06058,-0.76985 -0.01294,-0.52376c-0.04686,0.1569 -0.03065,0.33658 0.01294,0.52376z" fill="#cfcfcf" stroke="none" stroke-width="0.5" stroke-linecap="butt"/><path d="M233.91877,151.71409c0.20424,0.51484 0.23085,1.1774 -0.22257,1.97088c-1.17774,2.06106 -3.23883,0.88331 -3.23883,0.88331c-0.32448,-0.18591 -0.81458,-0.45494 -1.36718,-0.77155c-0.099,-0.04686 -0.19097,-0.10061 -0.27636,-0.15941c-1.46762,-0.85248 -3.23685,-1.98155 -3.54865,-2.78198c-1.27797,-3.28018 -0.10129,-7.33112 4.17448,-7.41416c4.65304,-0.09034 6.47242,5.42404 4.47914,8.27288z" fill="#cfcfcf" stroke="none" stroke-width="0.5" stroke-linecap="butt"/><path d="M241.68108,141.98427c4.27579,0.08301 5.45244,4.13394 4.1745,7.41416c-0.31187,0.80039 -2.08105,1.92949 -3.54868,2.78199c-0.08537,0.05883 -0.17737,0.11256 -0.27634,0.15939c-0.55258,0.31663 -1.04271,0.5856 -1.36718,0.77154c0,0 -2.06108,1.17778 -3.23882,-0.8833c-0.45342,-0.79347 -0.42681,-1.456 -0.22257,-1.97088c-1.99334,-2.84884 -0.17392,-8.36321 4.4791,-8.27287z" data-paper-data="{&quot;index&quot;:null}" fill="#cfcfcf" stroke="none" stroke-width="0.5" stroke-linecap="butt"/><path d="M52.11316,185.75843l35.2195,-16.88418c0.02011,0.66822 -0.60852,1.83265 -0.07398,2.25411c0.22846,0.18013 0.45424,0.30735 0.67653,0.39024l-0.27406,0.32887c-0.18403,0.21769 -0.29498,0.49916 -0.29498,0.80653c0,0.69036 0.55964,1.25 1.25,1.25c0.26266,0 0.5064,-0.08101 0.7076,-0.21942l1.60292,-1.06861c0.03787,0.04833 0.07608,0.09689 0.11462,0.14557c-0.05351,0.10036 -0.10532,0.20093 -0.15553,0.30134l-0.95665,1.9133c-0.09145,0.1737 -0.14321,0.37156 -0.14321,0.58151c0,0.69036 0.55964,1.25 1.25,1.25c0.22847,0 0.44262,-0.06129 0.6269,-0.16833l0.90652,-0.50362c-0.07278,0.08989 -0.14162,0.17867 -0.19311,0.25698l-0.00587,-0.00335l-0.95701,1.67476c-0.11152,0.18704 -0.17559,0.40565 -0.17559,0.63923c0,0.69036 0.55964,1.25 1.25,1.25c0.24259,0 0.46904,-0.06911 0.66074,-0.1887l1.08007,-0.64804c0.92089,-0.20877 1.79224,-0.47564 2.09533,-0.79064c1.00144,-1.04073 2.07602,-6.64428 1.36517,-7.7397c-0.50807,-0.78294 -1.41586,-1.20937 -2.29068,-1.60728c-0.12982,-0.55184 -0.62534,-0.96264 -1.21681,-0.96264c-0.0688,0 -0.13629,0.00556 -0.20207,0.01625c-0.00394,-0.21053 -0.05994,-0.40832 -0.15564,-0.58106c0.09932,-0.17925 0.15587,-0.38549 0.15587,-0.60494c0,-0.37991 -0.16948,-0.72023 -0.43696,-0.94949l52.47164,-25.15483l-0.14223,16.02459l-0.09838,-0.09838c-0.22621,-0.22621 -0.53871,-0.36612 -0.88388,-0.36612c-0.69036,0 -1.25,0.55964 -1.25,1.25v2.5c-0.04072,0.32482 -0.03124,0.65234 0.00341,0.981l-1.1729,-0.58645c-0.1737,-0.09145 -0.37156,-0.14321 -0.58151,-0.14321c-0.69036,0 -1.25,0.55964 -1.25,1.25c0,0.18469 0.04006,0.36003 0.11195,0.5178l0.10108,0.23586c-0.67185,0.02112 -1.21001,0.5724 -1.21001,1.24937c0,0.34495 0.13973,0.65727 0.36567,0.88344c0.00001,0.00001 0.00002,0.00002 0.00003,0.00003l0.9969,0.9979c0.00016,0.00016 0.00032,0.00032 0.00048,0.00048l0.09315,0.09315c0.62011,1.31517 1.33989,2.60513 2.16878,3.78089c-0.63288,0.06153 -1.12754,0.59504 -1.12754,1.24408c0,0.14845 0.02588,0.29086 0.07337,0.42297l0.49094,1.47282l0.40566,-0.13522c0.21944,0.69305 0.54939,1.20008 1.01757,1.77622l-0.67184,-0.28355l-2.22612,-0.11718c-0.02503,-0.00149 -0.05025,-0.00225 -0.07565,-0.00225c-0.69036,0 -1.25,0.55964 -1.25,1.25c0,0.499 0.2924,0.92971 0.7152,1.13014l2.21185,1.10592l0.02155,-0.04311l0.11924,0.10303c0.73737,0.16706 1.4853,0.28285 2.23845,0.36368l-0.03036,0.1366l0.50577,0.11239l-0.14089,15.87379h-0.95731v0.57795l-1.02781,-0.03936c0.09647,0.44796 0.18891,1.25925 0.36314,2.12418c-2.00367,1.38094 -3.84146,3.89733 -0.91979,4.34321c0.00805,0.11587 0.01901,0.23659 0.03304,0.36229c0.01396,0.12512 0.04168,0.24508 0.08071,0.36078l-1.89967,-0.30007c0.74562,1.02393 1.49123,2.04786 2.23685,3.0718l-0.00878,0.00973l1.60609,1.44916c0.11179,0.10169 0.24209,0.18339 0.38525,0.23945l-0.2298,25.89095l-13.43314,-6.43983l-0.14516,-0.6016l-0.07738,0.01867l0.00402,-0.12193l0.10472,0.02094c0.08709,0.01921 0.17759,0.02934 0.27046,0.02934c0.69036,0 1.25,-0.55964 1.25,-1.25c0,-0.29959 -0.1054,-0.57457 -0.28114,-0.78987l-0.97687,-1.21768l-0.01511,0.01212l-0.02428,-0.05884c-0.92028,-0.937 -2.90182,-3.28835 -4.53664,-3.52716c-0.02135,-0.10176 -0.05508,-0.19897 -0.09954,-0.28998l-1.02368,-2.21797l-0.62384,-1.54634c-0.1782,-0.47291 -0.63486,-0.80931 -1.1701,-0.80931c-0.67714,0 -1.22852,0.53841 -1.24939,1.21049c-0.52518,0.01631 -0.96874,0.35656 -1.13755,0.82763l-1.0659,-0.63954c-0.1917,-0.1196 -0.41815,-0.1887 -0.66074,-0.1887c-0.45022,0 -0.84485,0.23802 -1.06491,0.59509l-0.47095,-0.47095c-0.22621,-0.22621 -0.53871,-0.36612 -0.88388,-0.36612c-0.68238,0 -1.23705,0.54679 -1.24978,1.22612c-0.06578,-0.01069 -0.13327,-0.01625 -0.20207,-0.01625c-0.65953,0 -1.19977,0.51079 -1.24669,1.15836c-1.20226,-0.8613 -2.53164,-1.40618 -3.57425,-0.64672l-40.08627,-19.2173c-0.00847,-0.69608 -0.12105,-1.44665 -0.03387,-2.09266l-0.2053,-0.21834l0.10684,-0.0534l-0.70235,-1.40528c-0.20039,-0.42291 -0.63116,-0.7154 -1.13024,-0.7154c-0.66451,0 -1.20792,0.51853 -1.24767,1.17304c-0.01257,-0.02199 -0.02596,-0.04388 -0.04025,-0.06555c0.28859,-0.7049 0.4521,-1.4141 0.1398,-2.0427c-0.10598,-0.21331 -0.26615,-0.36383 -0.46811,-0.46119c-0.00347,-0.02986 -0.00799,-0.0594 -0.01353,-0.08858c0.86795,-1.30857 1.26404,-2.70672 -0.44919,-3.30556c-0.28366,-0.09915 -0.56708,-0.09827 -0.84927,-0.03216c-0.1881,-0.1133 -0.40847,-0.17848 -0.64406,-0.17848c-0.44823,0 -0.84135,0.23592 -1.06198,0.59035l-0.57224,0.88824c-0.08064,0.04864 -0.16094,0.09453 -0.24085,0.13672c-1.30158,0.68719 -2.67031,1.53705 -3.95959,2.4193l-8.85934,-4.24716z" data-paper-data="{&quot;index&quot;:null}" fill="#989898" stroke="#989898" stroke-width="2.5" stroke-linecap="round"/><path d="M98.37384,162.5896c1.19886,-0.69974 2.24123,-1.66654 3.56409,-2.27496c2.58355,-1.18826 5.66256,-1.48492 8.15758,-2.76228c2.93621,-1.50324 5.58208,-3.52449 8.39471,-5.25625c4.7171,-2.18384 10.18102,-3.39403 14.6442,-6.00448c3.66029,-2.14085 7.74061,-5.17782 12.09542,-5.90981l-0.05388,-0.24884l1.33965,-0.24745c0.06946,-0.01415 0.14165,-0.02161 0.21572,-0.02161c0.55065,0 0.99703,0.41227 0.99703,0.92083c0,0.15466 -0.04128,0.30041 -0.11423,0.42838l-0.72705,1.34296c0.10729,4.56215 -0.9714,9.38927 -0.25623,13.92527c0.07052,0.44727 0.13216,0.89147 0.18603,1.3337l-0.11888,-0.07006l0.07615,-0.07615l-1.00033,-1.00033c-0.22621,-0.22621 -0.53871,-0.36612 -0.88388,-0.36612c-0.69036,0 -1.25,0.55964 -1.25,1.25v2.5c-0.04072,0.32482 -0.03124,0.65234 0.00341,0.981l-1.1729,-0.58645c-0.1737,-0.09145 -0.37156,-0.14321 -0.58151,-0.14321c-0.69036,0 -1.25,0.55964 -1.25,1.25c0,0.18469 0.04006,0.36003 0.11195,0.5178l0.10108,0.23586c-0.67185,0.02112 -1.21001,0.5724 -1.21001,1.24937c0,0.34495 0.13973,0.65727 0.36567,0.88344c0.00001,0.00001 0.00002,0.00002 0.00003,0.00003l0.9969,0.9979c0.00016,0.00016 0.00032,0.00032 0.00048,0.00048l0.09315,0.09315c0.62011,1.31517 1.33989,2.60513 2.16878,3.78089c-0.39237,0.03815 -0.73161,0.25771 -0.93279,0.57373c-0.08709,-0.03472 -0.17929,-0.06782 -0.27791,-0.0985c-1.52457,-0.47425 -3.28989,-0.62551 -4.80091,-0.97951c-1.40032,-0.32806 -3.4952,0.02463 -4.9394,0.02463c-5.18155,0 -10.08596,0.10097 -15.20404,0.74747c-1.90844,0.23834 -3.93981,0.03254 -5.8134,0.40835c-3.45782,0.69359 -6.64503,2.11776 -9.97502,3.07644c-1.16127,0.33432 -2.36119,0.59564 -3.57652,0.82419c0.22181,-1.45922 0.2557,-2.8199 -0.0579,-3.30317c-0.50807,-0.78294 -1.41586,-1.20937 -2.29068,-1.60728c-0.12982,-0.55184 -0.62534,-0.96264 -1.21681,-0.96264c-0.0688,0 -0.13629,0.00556 -0.20207,0.01625c-0.00394,-0.21053 -0.05994,-0.40832 -0.15564,-0.58106c0.09932,-0.17925 0.15587,-0.38549 0.15587,-0.60494c0,-0.68576 -0.55222,-1.24255 -1.23624,-1.24993c-0.0336,-0.13571 -0.07404,-0.26721 -0.124,-0.39292c1.96395,-0.84987 4.00394,-1.59251 5.75434,-2.61417z" data-paper-data="{&quot;index&quot;:null}" fill="#a0a0a0" stroke="none" stroke-width="0.5" stroke-linecap="butt"/><path d="M146.58885,169.41161c0.00756,-0.02553 0.01432,-0.0514 0.02026,-0.07759l0.01236,-0.04945c0.18978,-0.03547 0.36447,-0.11382 0.51362,-0.22461c-0.07131,0.22875 -0.17628,0.4402 -0.32756,0.62973c-0.07315,-0.0925 -0.14604,-0.1852 -0.21868,-0.27809z" data-paper-data="{&quot;index&quot;:null}" fill="#a0a0a0" stroke="none" stroke-width="0.5" stroke-linecap="butt"/><path d="M147.01894,166.74541c0.05976,-0.20816 0.11582,-0.41707 0.16802,-0.62663c0.00726,0.31987 0.02881,0.63886 0.04835,0.95107z" data-paper-data="{&quot;index&quot;:null}" fill="#a0a0a0" stroke="none" stroke-width="0.5" stroke-linecap="butt"/><path d="M51.44445,185.14211l1.38719,-0.51203c3.86358,-1.18875 7.67288,-2.79015 11.31968,-4.48021c4.06331,-1.86195 7.97327,-4.23636 11.86359,-6.47581c0.78059,-0.44934 1.27237,-1.323 2.13734,-1.6119c2.73099,-0.91214 5.80897,-2.14178 8.59811,-3.62c0.15511,0.16012 0.35267,0.27889 0.57453,0.33814c0.09186,0.647 -0.62679,1.90607 -0.06622,2.34805c0.22846,0.18013 0.45424,0.30735 0.67653,0.39024l-0.27406,0.32887c-0.18403,0.21769 -0.29498,0.49916 -0.29498,0.80653c0,0.69036 0.55964,1.25 1.25,1.25c0.26266,0 0.5064,-0.08101 0.7076,-0.21942l1.60292,-1.06861c0.03787,0.04833 0.07608,0.09689 0.11462,0.14557c-0.05351,0.10036 -0.10532,0.20093 -0.15553,0.30134l-0.95665,1.9133c-0.06019,0.11432 -0.10318,0.2391 -0.12554,0.3709c-2.81693,0.70467 -5.59897,1.81632 -8.34924,2.6634c-5.6968,1.75379 -11.24688,3.75687 -16.70217,6.05577c-2.26573,0.95479 -4.23546,2.76226 -6.7251,3.3294c-1.94209,0.44241 -4.19932,-0.0481 -6.09946,-0.48613c-0.30204,0.03722 -0.79276,-0.00277 -1.03861,-0.57043c-0.37029,-0.85496 0.55543,-1.19695 0.55543,-1.19695z" data-paper-data="{&quot;index&quot;:null}" fill="#a0a0a0" stroke="none" stroke-width="0.5" stroke-linecap="butt"/><path d="M81.39996,195.20813c3.12473,0.95955 6.29034,2.25861 9.50138,2.921c3.42801,0.70715 7.08687,1.0655 10.42693,2.02422c3.3399,0.95868 6.5366,2.38285 10.00471,3.07645c1.87917,0.37582 3.91658,0.17002 5.8307,0.40835c5.13332,0.6465 10.05233,0.74747 15.2493,0.74747c1.4485,0 3.54961,0.3527 4.9541,0.02463c1.51551,-0.354 3.28609,-0.50526 4.8152,-0.97951c0.20292,-0.06294 0.37872,-0.13608 0.53885,-0.21249c0.24407,0.33517 0.48813,0.67034 0.7322,1.00551l-0.00878,0.00973l1.60609,1.44916c0.22203,0.20197 0.51706,0.32508 0.84085,0.32508c0.60576,0 1.11088,-0.43089 1.22558,-1.00289c0.10028,-0.02011 0.19623,-0.05222 0.28627,-0.09476c0.04465,0.73534 -0.07764,1.57212 -0.07764,2.40582c0,3.24226 -0.05452,6.25509 -0.55522,9.42137c-0.7173,4.53601 0.36459,9.36312 0.25699,13.92527l0.72922,1.34296c0.07316,0.12796 0.11457,0.27372 0.11457,0.42837c0,0.50856 -0.44772,0.92083 -1,0.92083c-0.07429,0 -0.14669,-0.00746 -0.21636,-0.02161l-1.34364,-0.24745l0.05405,-0.24884c-4.36777,-0.732 -8.46023,-3.76896 -12.13142,-5.90982c-0.40895,-0.23848 -0.82627,-0.46527 -1.25063,-0.68218l-0.35547,-1.47316l-0.07738,0.01867l0.00402,-0.12193l0.10472,0.02094c0.08709,0.01921 0.17759,0.02934 0.27046,0.02934c0.69036,0 1.25,-0.55964 1.25,-1.25c0,-0.29959 -0.1054,-0.57457 -0.28114,-0.78987l-0.97687,-1.21768l-0.01511,0.01212l-0.02428,-0.05884c-0.92028,-0.937 -2.90182,-3.28835 -4.53664,-3.52716c-0.02135,-0.10176 -0.05508,-0.19897 -0.09954,-0.28998l-1.02368,-2.21797l-0.62384,-1.54634c-0.1782,-0.47291 -0.63486,-0.80931 -1.1701,-0.80931c-0.67714,0 -1.22852,0.53841 -1.24939,1.21049c-0.52518,0.01631 -0.96874,0.35656 -1.13755,0.82763l-1.0659,-0.63954c-0.1917,-0.1196 -0.41815,-0.1887 -0.66074,-0.1887c-0.45022,0 -0.84485,0.23802 -1.06491,0.59509l-0.47095,-0.47095c-0.22621,-0.22621 -0.53871,-0.36612 -0.88388,-0.36612c-0.68238,0 -1.23705,0.54679 -1.24978,1.22612c-0.06578,-0.01069 -0.13327,-0.01625 -0.20207,-0.01625c-0.65953,0 -1.19977,0.51079 -1.24669,1.15836c-1.4016,-1.00411 -2.97597,-1.57817 -4.06731,-0.15687c-0.33091,-0.18489 -0.66495,-0.36418 -1.00283,-0.53665c-2.50245,-1.27736 -5.59062,-1.57402 -8.18186,-2.76228c-1.32679,-0.60842 -2.37227,-1.57522 -3.57469,-2.27496c-2.51292,-1.46238 -5.62095,-2.35309 -8.2486,-3.80485c-3.47683,-2.40517 -8.11168,-4.36182 -12.0332,-5.66771c-0.86755,-0.2889 -1.36079,-1.16256 -2.1437,-1.61191c-1.37244,-0.7877 -2.74731,-1.59209 -4.13046,-2.385c-0.04257,-0.16024 -0.14685,-0.30975 -0.2788,-0.45438c0.01729,-0.75256 -0.12893,-1.59071 -0.03293,-2.30207l-0.2053,-0.21834l0.10684,-0.0534l-0.70235,-1.40528c-0.20039,-0.42291 -0.63116,-0.7154 -1.13024,-0.7154c-0.66451,0 -1.20792,0.51853 -1.24767,1.17304c-0.01257,-0.02199 -0.02596,-0.04388 -0.04025,-0.06555c0.28859,-0.7049 0.4521,-1.4141 0.1398,-2.0427c-0.10598,-0.21331 -0.26615,-0.36383 -0.46811,-0.46119c-0.00347,-0.02986 -0.00799,-0.0594 -0.01353,-0.08858c0.0052,-0.00783 0.01038,-0.01567 0.01554,-0.02351c4.40476,1.7437 8.87693,3.30445 13.44307,4.70598z" fill="#878787" stroke="none" stroke-width="0.5" stroke-linecap="butt"/><path d="M50.74365,186.87953c0.24659,-0.56766 0.73877,-0.60766 1.0417,-0.57044c1.9058,-0.43803 4.16974,-0.92854 6.11762,-0.48613c2.19755,0.49912 3.99122,1.95887 5.93881,2.95265c-1.30897,0.70911 -2.67442,1.57116 -3.95024,2.45632c-2.36056,-0.99016 -4.7693,-1.89794 -7.19945,-2.64344l-1.39132,-0.51204c0,0 -0.92848,-0.34199 -0.55709,-1.19695z" fill="#878787" stroke="none" stroke-width="0.5" stroke-linecap="butt"/><path d="M64.14322,183.07908c-0.16787,-1.07284 0.27387,-2.30693 -0.7888,-2.27706c0,0 -0.98058,-0.20826 -0.78446,-1.24957c0.19612,-1.04131 1.17669,-0.83305 1.17669,-0.83305c2.25606,0.68536 2.01014,1.72803 2.36952,4.01153c0.25428,1.61575 0.33425,2.99905 0.21979,4.32451c-0.10725,-0.02997 -0.22031,-0.04599 -0.33712,-0.04599c-0.44823,0 -0.84135,0.23592 -1.06198,0.59035l-0.57224,0.88824c-0.08064,0.04864 -0.16094,0.09453 -0.24085,0.13672c-0.02368,0.0125 -0.04738,0.02506 -0.07111,0.03767c0.44025,-1.76061 0.435,-3.38213 0.09055,-5.58336z" fill="#888888" stroke="none" stroke-width="0.5" stroke-linecap="butt"/><path d="M72.21595,181.81826c-0.16787,-1.63319 0.27387,-3.51186 -0.7888,-3.46638c0,0 -0.98058,-0.31704 -0.78446,-1.90223c0.19612,-1.58519 1.17669,-1.26816 1.17669,-1.26816c2.25606,1.04333 2.01014,2.63059 2.36952,6.10679c0.59714,5.77608 0.23299,9.6007 -1.35285,14.91644l-0.90047,1.48963c0,0 -0.10926,0.17663 -0.28483,0.32159c0.0562,-0.16773 0.11057,-0.34891 0.16294,-0.5442c0.07642,-0.28497 -0.06475,-0.5322 -0.2786,-0.76661c0.01729,-0.75256 -0.12893,-1.59071 -0.03293,-2.30207l-0.2053,-0.21834l0.10684,-0.0534l-0.09255,-0.18518c1.19733,-4.3641 1.39611,-7.34829 0.90481,-12.12788z" fill="#888888" stroke="none" stroke-width="0.5" stroke-linecap="butt"/><path d="M79.13635,201.4431c-0.7071,-1.55141 0,-3.10282 0,-3.10282l0.67868,-1.443c1.29579,-6.22202 1.52201,-10.31859 1.01589,-17.0011c-0.16787,-2.21655 0.27387,-4.76627 -0.7888,-4.70455c0,0 -0.98058,-0.43029 -0.78446,-2.5817c0.19612,-2.15141 1.17669,-1.72114 1.17669,-1.72114c2.25606,1.416 2.01014,3.57023 2.36952,8.2881c0.59714,7.83926 0.23299,13.03001 -1.35285,20.2445l-0.90047,2.02171c0,0 -0.7071,1.55141 -1.41421,0z" fill="#888888" stroke="none" stroke-width="0.5" stroke-linecap="butt"/><path d="M87.92025,205.39146c-0.7071,-1.96986 0,-3.93973 0,-3.93973l0.67869,-1.83222c1.29579,-7.90025 1.522,-13.10177 1.01589,-21.58673c-0.0945,-1.58433 0.00419,-3.30272 -0.08107,-4.48818l1.39294,-0.92862c0.03787,0.04833 0.07608,0.09689 0.11462,0.14557c-0.05351,0.10036 -0.10532,0.20093 -0.15553,0.30134l-0.95665,1.9133c-0.09145,0.1737 -0.14321,0.37156 -0.14321,0.58151c0,0.69036 0.55964,1.25 1.25,1.25c0.18824,0 0.36676,-0.04161 0.52687,-0.11613c0.00801,0.14076 0.01633,0.28339 0.025,0.42791c0.01168,0.19462 0.02298,0.38795 0.03392,0.58004l-0.20835,0.36462c-0.11152,0.18704 -0.17559,0.40565 -0.17559,0.63923c0,0.40265 0.19038,0.76084 0.48604,0.98945c0.38691,8.56975 -0.04369,14.78369 -1.48887,23.13162l-0.90047,2.56702c0,0 -0.70711,1.96986 -1.41421,0z" fill="#888888" stroke="none" stroke-width="0.5" stroke-linecap="butt"/><path d="M96.30935,208.97892c-0.7071,-2.35086 0,-4.70174 0,-4.70174l0.67869,-2.1866c1.29579,-9.42829 1.522,-15.63586 1.01589,-25.76195c-0.16787,-3.35877 0.27388,-7.22239 -0.78879,-7.12885c0,0 -0.98058,-0.65201 -0.78446,-3.91207c0.19612,-3.26006 1.17669,-2.60805 1.17669,-2.60805c2.25606,2.14568 2.01014,5.41 2.36952,12.55903c0.59714,11.87892 0.23299,19.74451 -1.35285,30.67671l-0.90047,3.06352c0,0 -0.70711,2.35086 -1.41421,0z" fill="#888888" stroke="none" stroke-width="0.5" stroke-linecap="butt"/><path d="M104.13642,212.7687c-0.7071,-2.714 0,-5.42803 0,-5.42803l0.67869,-2.52437c1.29579,-10.88471 1.522,-18.05118 1.01589,-29.74147c-0.16787,-3.87761 0.27388,-8.33805 -0.78879,-8.23006c0,0 -0.98058,-0.75272 -0.78446,-4.51638c0.19612,-3.76366 1.17669,-3.01093 1.17669,-3.01093c2.25606,2.47713 2.01014,6.24569 2.36952,14.49906c0.59714,13.71389 0.23299,22.79451 -1.35285,35.41543l-0.90047,3.53676c0,0 -0.70711,2.714 -1.41421,0z" fill="#888888" stroke="none" stroke-width="0.5" stroke-linecap="butt"/><path d="M112.68952,210.26234l0.67869,-2.9162c1.29579,-12.57422 1.522,-20.85307 1.01589,-34.35791c-0.16787,-4.47949 0.27388,-9.63227 -0.78879,-9.50752c0,0 -0.98058,-0.86956 -0.78446,-5.21741c0.19612,-4.34785 1.17669,-3.47828 1.17669,-3.47828c2.25606,2.86163 2.01014,7.21514 2.36952,16.74959c0.59714,15.84255 0.23299,26.33265 -1.35285,40.91257l-0.73542,3.33687c-0.6045,-0.31135 -1.21439,-0.48827 -1.78172,-0.41632c-0.33951,-2.7023 0.20246,-5.10539 0.20246,-5.10539z" fill="#888888" stroke="none" stroke-width="0.5" stroke-linecap="butt"/><path d="M121.41309,213.60235l0.67869,-3.30917c1.29579,-14.26866 1.52201,-23.66313 1.01589,-38.98782c-0.16787,-5.08312 0.27388,-10.93027 -0.78879,-10.78871c0,0 -0.98058,-0.98674 -0.78446,-5.92049c0.19612,-4.93374 1.17669,-3.947 1.17669,-3.947c2.25606,3.24725 2.01014,8.18742 2.36952,19.00669c0.56065,16.8785 0.27392,28.40313 -1.07567,43.44132c-0.47019,0.16926 -0.80965,0.61239 -0.82594,1.13694c-0.52518,0.01631 -0.96874,0.35656 -1.13755,0.82763l-0.77808,-0.46685c0.07601,-0.6218 0.14969,-0.99254 0.14969,-0.99254z" fill="#888888" stroke="none" stroke-width="0.5" stroke-linecap="butt"/><path d="M130.16359,216.55984l0.67869,-3.65908c1.29579,-15.77739 1.52201,-26.16521 1.01589,-43.11028c-0.16788,-5.6206 0.27387,-12.08601 -0.7888,-11.92948c0,0 -0.98058,-1.09108 -0.78446,-6.5465c0.19611,-5.45542 1.17669,-4.36434 1.17669,-4.36434c2.25606,3.59061 2.01014,9.05313 2.36952,21.01639c0.59715,19.8783 0.23299,33.04066 -1.35285,51.33469l-0.41122,2.34115l-0.14544,-0.18129l-0.01511,0.01212l-0.02428,-0.05884c-0.4607,-0.46908 -1.18738,-1.29261 -2.00338,-2.02812c0.0782,-1.67725 0.28475,-2.82642 0.28475,-2.82642z" fill="#888888" stroke="none" stroke-width="0.5" stroke-linecap="butt"/><path d="M139.30883,228.41845c-0.70711,-4.38472 0,-8.76948 0,-8.76948l0.67869,-4.07835c1.08133,-14.67479 1.41782,-25.16632 1.20547,-39.21273l1.63741,0.8187l0.02155,-0.04311l0.11924,0.10303c0.07936,0.01798 0.15883,0.03536 0.23843,0.05218c0.08019,7.02436 0.03331,13.41978 -0.15226,19.7753c-1.56461,1.39022 -2.5261,3.25094 -0.12207,3.65423c-0.00878,0.23356 -0.01775,0.46721 -0.02691,0.701l-1.6919,-0.26726c0.53714,0.73763 1.07427,1.47526 1.61141,2.2129c-0.26697,6.13126 -0.66501,12.40463 -1.20438,19.33962l-0.90047,5.71395c0,0 -0.7071,4.38472 -1.41421,0z" fill="#888888" stroke="none" stroke-width="0.5" stroke-linecap="butt"/><path d="M140.21463,154.22415c0,0 -0.98058,-1.2161 -0.78447,-7.29663c0.19611,-6.08053 1.1767,-4.86443 1.1767,-4.86443c1.96267,3.48158 2.03178,8.5422 2.25318,18.57865l-0.3896,-0.1948c-0.1737,-0.09145 -0.37156,-0.14321 -0.58151,-0.14321c-0.36846,0 -0.69968,0.15942 -0.92846,0.41305c-0.00254,-3.72387 -0.06937,-6.60368 -0.74584,-6.49262z" fill="#888888" stroke="none" stroke-width="0.5" stroke-linecap="butt"/><path d="M141.00341,167.52057c-0.01873,-0.69879 -0.02987,-1.4093 -0.03636,-2.11998l0.0375,0.03754c0.00016,0.00016 0.00032,0.00032 0.00048,0.00048l0.09315,0.09315c0.56914,1.20709 1.22226,2.39294 1.96663,3.48875c0.00251,0.10911 0.005,0.21805 0.00746,0.32681c-0.53677,0.14037 -0.93285,0.62864 -0.93285,1.20941c0,0.14845 0.02588,0.29086 0.07337,0.42297l0.49094,1.47282l0.40566,-0.13522c0.00851,0.02688 0.01719,0.05349 0.02604,0.07983c0.00877,0.46883 0.01703,0.93455 0.02479,1.39731l-1.93121,-0.10165c-0.02503,-0.00149 -0.05025,-0.00225 -0.07565,-0.00225c-0.00212,0 -0.00424,0.00001 -0.00636,0.00002c-0.03809,-1.97543 -0.08611,-4.0256 -0.14357,-6.16997z" fill="#888888" stroke="none" stroke-width="0.5" stroke-linecap="butt"/><path d="M62.20176,183.66028c-0.16787,-0.93028 0.27387,-2.00039 -0.7888,-1.97448c0,0 -0.98058,-0.18059 -0.78446,-1.08353c0.19612,-0.90294 1.17669,-0.72236 1.17669,-0.72236c2.25606,0.59429 2.01014,1.49841 2.36952,3.47849c0.36729,2.02368 0.3709,3.62683 -0.04977,5.26575c-0.00039,0.00021 -0.00078,0.00041 -0.00117,0.00062c-0.86523,0.45682 -1.76015,0.98552 -2.64167,1.54783c1.03162,-2.27643 1.18444,-3.93674 0.71965,-6.51233z" fill="#b6b6b6" stroke="none" stroke-width="0.5" stroke-linecap="butt"/><path d="M70.16267,182.42113c-0.16787,-1.45839 0.27387,-3.13598 -0.7888,-3.09537c0,0 -0.98058,-0.28311 -0.78446,-1.69864c0.19612,-1.41553 1.17669,-1.13243 1.17669,-1.13243c2.25606,0.93166 2.01014,2.34904 2.36952,5.45317c0.53431,4.61512 0.29898,7.83509 -0.89252,11.86212l-0.54174,-1.08394c-0.1944,-0.41028 -0.60563,-0.69781 -1.0857,-0.71462c0.87478,-3.26026 0.98451,-5.7896 0.54701,-9.5903z" fill="#b6b6b6" stroke="none" stroke-width="0.5" stroke-linecap="butt"/><path d="M77.0212,200.29074c-0.7071,-1.43546 0,-2.87093 0,-2.87093l0.67868,-1.33516c1.29579,-5.75701 1.52201,-9.54742 1.01589,-15.73051c-0.16787,-2.0509 0.27387,-4.41006 -0.7888,-4.35295c0,0 -0.98058,-0.39813 -0.78446,-2.38875c0.19612,-1.99063 1.17669,-1.59251 1.17669,-1.59251c2.25606,1.31018 2.01014,3.3034 2.36952,7.66868c0.59714,7.25339 0.23299,12.0562 -1.35285,18.73151l-0.90047,1.87062c0,0 -0.7071,1.43546 -1.41421,0z" fill="#b6b6b6" stroke="none" stroke-width="0.5" stroke-linecap="butt"/><path d="M85.5743,204.34301c-0.7071,-1.85918 0,-3.71838 0,-3.71838l0.67869,-1.72928c1.29579,-7.45638 1.522,-12.36566 1.01589,-20.37389c-0.16787,-2.65629 0.27388,-5.71184 -0.78879,-5.63787c0,0 -0.98058,-0.51564 -0.78446,-3.09387c0.05121,-0.67322 0.15591,-1.1355 0.28267,-1.45109c0.23419,-0.00747 0.469,-0.01278 0.68945,0.00927c0.16453,0.20778 0.3937,0.36204 0.65715,0.4324c0.09186,0.647 -0.62679,1.90607 -0.06622,2.34805c0.22846,0.18013 0.45424,0.30735 0.67653,0.39024l-0.27406,0.32887c-0.18403,0.21769 -0.29498,0.49916 -0.29498,0.80653c0,0.69036 0.55964,1.25 1.25,1.25c0.14491,0 0.28406,-0.02466 0.41348,-0.07001c0.06622,1.0931 0.11874,2.35544 0.21218,3.82547c0.59714,9.39447 0.23299,15.61499 -1.35285,24.26074l-0.90047,2.42279c0,0 -0.70711,1.85918 -1.41421,0z" fill="#b6b6b6" stroke="none" stroke-width="0.5" stroke-linecap="butt"/><path d="M93.73261,207.52652c-0.7071,-2.19275 0,-4.38552 0,-4.38552l0.67869,-2.03954c1.21682,-8.25821 1.49045,-13.86733 1.10019,-22.3416c0.36915,-0.13185 0.66136,-0.27689 0.81242,-0.43388c0.375,-0.38971 0.76025,-1.41921 1.05817,-2.61222c0.00585,0.11284 0.01187,0.22674 0.01807,0.34172c0.59714,11.08 0.23299,18.41659 -1.35285,28.61354l-0.90047,2.85749c0,0 -0.70711,2.19275 -1.41421,0z" fill="#b6b6b6" stroke="none" stroke-width="0.5" stroke-linecap="butt"/><path d="M95.03063,164.34112c1.40681,1.248 1.84075,2.90171 2.05525,5.58672c-0.48815,-0.39714 -1.09536,-0.67953 -1.68747,-0.94884c-0.12982,-0.55184 -0.62534,-0.96264 -1.21681,-0.96264c-0.0688,0 -0.13629,0.00556 -0.20207,0.01625c-0.00388,-0.20723 -0.0582,-0.40213 -0.15118,-0.57293c0.00004,-0.0055 0.00009,-0.01101 0.00014,-0.01652c0.09646,-0.17729 0.15126,-0.38051 0.15126,-0.59654c0,-0.16816 -0.03321,-0.32856 -0.09342,-0.47501c0.25308,-2.58322 1.1443,-2.03048 1.1443,-2.03048z" fill="#b6b6b6" stroke="none" stroke-width="0.5" stroke-linecap="butt"/><path d="M101.69353,211.04552c-0.7071,-2.58943 0,-5.17888 0,-5.17888l0.67869,-2.4085c1.29579,-10.38509 1.522,-17.22262 1.01589,-28.37632c-0.16787,-3.69963 0.27388,-7.95533 -0.78879,-7.8523c0,0 -0.98058,-0.71817 -0.78446,-4.30908c0.19612,-3.5909 1.17669,-2.87273 1.17669,-2.87273c2.25606,2.36343 2.01014,5.95901 2.36952,13.83355c0.59714,13.08442 0.23299,21.74823 -1.35285,33.78984l-0.90047,3.37442c0,0 -0.70711,2.58943 -1.41421,0z" fill="#b6b6b6" stroke="none" stroke-width="0.5" stroke-linecap="butt"/><path d="M110.24663,215.28757c-0.7071,-2.99512 0,-5.99027 0,-5.99027l0.67869,-2.78585c1.29579,-12.01215 1.522,-19.92094 1.01589,-32.82211c-0.16787,-4.27926 0.27388,-9.20171 -0.78879,-9.08254c0,0 -0.98058,-0.83069 -0.78446,-4.9842c0.19612,-4.1535 1.17669,-3.3228 1.17669,-3.3228c2.25606,2.73372 2.01014,6.89262 2.36952,16.00088c0.59714,15.13439 0.23299,25.15559 -1.35285,39.08379l-0.90047,3.9031c0,0 -0.05661,0.23977 -0.1538,0.51578c-0.23203,0.19504 -0.44844,0.45939 -0.64437,0.80465c-0.1927,-0.06405 -0.40437,-0.42385 -0.61604,-1.32043z" fill="#b6b6b6" stroke="none" stroke-width="0.5" stroke-linecap="butt"/><path d="M118.79972,212.34239l0.67869,-3.17158c1.29579,-13.67537 1.522,-22.67922 1.01589,-37.3667c-0.16787,-4.87177 0.27388,-10.47579 -0.78879,-10.34012c0,0 -0.98058,-0.94571 -0.78446,-5.67431c0.19612,-4.7286 1.17669,-3.78288 1.17669,-3.78288c2.25606,3.11223 2.01014,7.84699 2.36952,18.21638c0.59461,17.15702 0.23605,28.54202 -1.33279,44.29436l-0.15889,-0.09534c-0.1917,-0.1196 -0.41815,-0.1887 -0.66074,-0.1887c-0.45022,0 -0.84485,0.23802 -1.06491,0.59509l-0.47095,-0.47095c-0.06695,-0.06695 -0.14146,-0.12634 -0.22213,-0.17678c0.09273,-1.11443 0.24287,-1.83847 0.24287,-1.83847z" fill="#b6b6b6" stroke="none" stroke-width="0.5" stroke-linecap="butt"/><path d="M127.55022,215.33794l0.67869,-3.507c1.29579,-15.12165 1.522,-25.07772 1.01589,-41.31852c-0.16788,-5.387 0.27387,-11.58369 -0.78879,-11.43367c0,0 -0.98058,-1.04573 -0.78447,-6.27442c0.19612,-5.22869 1.1767,-4.18295 1.1767,-4.18295c2.25605,3.44137 2.01014,8.67686 2.36952,20.14291c0.59714,19.05211 0.23299,31.66742 -1.35285,49.20111l-0.22227,1.21283c-0.74996,-0.6446 -1.55886,-1.18317 -2.29706,-1.29101c-0.01449,-0.06905 -0.03468,-0.136 -0.06005,-0.20034c0.08855,-1.4097 0.26469,-2.34894 0.26469,-2.34894z" fill="#b6b6b6" stroke="none" stroke-width="0.5" stroke-linecap="butt"/><path d="M136.69547,226.55559c-0.7071,-4.22122 0,-8.44247 0,-8.44247l0.67869,-3.92627c1.29579,-16.92949 1.522,-28.07585 1.01589,-46.25829c-0.16788,-6.03103 0.27387,-12.96856 -0.78879,-12.8006c0,0 -0.98058,-1.17075 -0.78447,-7.02454c0.19612,-5.85379 1.17669,-4.68304 1.17669,-4.68304c2.03995,3.48374 2.03429,8.6097 2.28017,19.04975c-0.37732,0.21516 -0.63171,0.62119 -0.63171,1.08663c0,0.34495 0.13973,0.65727 0.36567,0.88344c0.00001,0.00001 0.00002,0.00002 0.00003,0.00003l0.32268,0.32301c0.01034,0.39574 0.0212,0.79842 0.03267,1.20821c0.07657,2.73523 0.13734,5.35196 0.18175,7.87699c-0.38265,0.2137 -0.6414,0.62268 -0.6414,1.0921c0,0.48355 0.27457,0.90297 0.6763,1.11086c0.22602,16.08819 -0.24678,28.63037 -1.5695,45.00332l-0.90047,5.50088c0,0 -0.70711,4.22122 -1.41421,0z" fill="#b6b6b6" stroke="none" stroke-width="0.5" stroke-linecap="butt"/><path d="M181.96754,190.0966c0.91653,-0.75151 2.08235,-1.21668 3.56197,-1.24601c0,0 1,0 1,1c0,1 -1,1 -1,1c-0.39943,-0.01201 -0.76586,0.02887 -1.10203,0.11556c-0.16557,0.30041 -0.46598,0.45061 -0.46598,0.45061l-1.0447,0.50791c-0.04164,0.00262 -0.0824,0.00588 -0.12231,0.00977c-1.1131,1.15458 -1.63535,3.0664 -1.87861,4.92118c-0.06037,2.50561 -0.23894,5.16996 0.47107,7.57904c1.285,1.53261 2.9124,2.91671 4.00399,4.49827c0.30364,0.04135 0.60729,0.0827 0.91093,0.12404l0.10117,0.09446l0.02151,-0.04301l0.87628,0.43814c0.33825,0.16035 0.57216,0.50491 0.57216,0.90412c0,0.44984 -0.29702,0.83031 -0.70565,0.95598l-1.32161,0.44053l-0.01775,-0.05327c-0.13154,0.04586 -0.26701,0.0799 -0.40759,0.09861c-1.22183,0.16268 -3.23649,-2.33048 -3.81005,-3.0607c-0.75945,-0.96689 -1.30463,-1.95115 -1.69573,-2.95763c-0.30985,-0.38619 -0.59798,-0.78502 -0.8539,-1.20175c-0.62341,-1.01515 -0.35296,-2.92121 -0.35296,-4.07399c0,-1.10834 0.05377,-2.37738 0.22387,-3.66218c0.00002,-0.03793 0.00004,-0.0759 0.00004,-0.1139c0,-2.98305 -0.08939,-5.90467 3.03588,-6.72577z" fill="#f5f0a7" stroke="none" stroke-width="0.5" stroke-linecap="butt"/><path d="M228.96761,177.0881c0.44721,0.89443 -0.44721,1.34164 -0.44721,1.34164l-0.86812,0.32912c-1.78115,0.04739 -3.3112,0.40429 -5.03824,0.66244c-8.24175,1.23192 -17.42626,-0.2141 -25.73591,-0.21433c-4.09666,-0.00011 -8.49908,-0.71425 -12.56991,-0.23133c-2.52522,0.29957 -5.07561,1.22893 -7.5055,1.77205c-2.9725,0.6644 -6.12038,1.0973 -8.54613,3.15368c0,0 -0.76822,0.64018 -1.40841,-0.12804c-0.64019,-0.76822 0.12804,-1.40841 0.12804,-1.40841c2.73413,-2.24621 6.04218,-2.82989 9.367,-3.56373c2.49023,-0.54964 5.1292,-1.50565 7.72064,-1.81057c4.1596,-0.48943 8.62999,0.21623 12.81433,0.21634c5.99271,0.00017 11.97096,0.22399 17.96884,0.22399c2.40049,0 5.13038,0.38028 7.48961,0.00966c1.78811,-0.2809 3.41664,-0.63077 5.2618,-0.68104l0.02754,-0.11871c0,0 0.89443,-0.44721 1.34164,0.44721z" fill="#f5f0a7" stroke="none" stroke-width="0.5" stroke-linecap="butt"/><path d="M284.82777,224.10943c0,1 -1,1 -1,1h-0.22391c-5.30713,0 -10.61091,-0.22465 -15.91312,-0.22392c-7.32267,0 -14.77705,-0.42292 -22.08604,-0.0022c-3.38255,0.19471 -6.50099,1.12177 -9.91844,1.12177c0,0 -1,0 -1,-1c0,-1 1,-1 1,-1c3.36722,0 6.44479,-0.92269 9.78599,-1.11738c7.35256,-0.42843 14.85214,-0.0022 22.21849,-0.0022c5.30243,0.00072 10.60584,0.22392 15.91312,0.22392h0.22391c0,0 1,0 1,1z" fill="#f5f0a7" stroke="none" stroke-width="0.5" stroke-linecap="butt"/><path d="M278.0646,159.12311c0,-1 1,-1 1,-1h0.22392c1.50572,0 2.82052,0.1616 4.22004,-0.4139c2.75855,-0.40571 5.933,-1.14552 8.73217,-0.68762c3.90273,0.63843 6.9298,6.19 7.92482,9.39838c0.43539,1.40389 0.05131,3.537 0.05131,5.01842c0,0 0,1 -1,1c-1,0 -1,-1 -1,-1c0,-2.25518 0.13643,-4.40581 -0.61537,-6.38641c-0.28056,-0.73913 -1.10895,-1.15274 -1.4895,-1.84572c-0.93061,-1.69464 -1.99616,-3.90374 -4.24949,-4.22075c-2.52738,-0.35557 -5.34565,0.31223 -7.83747,0.65587c-1.57915,0.61602 -3.05969,0.48174 -4.73652,0.48174h-0.22392c0,0 -1,0 -1,-1z" fill="#f5f0a7" stroke="none" stroke-width="0.5" stroke-linecap="butt"/><path d="M310.00012,189.16296c-0.70711,0.70711 -1.41421,0 -1.41421,0l-0.22392,-0.22392c-2.71564,-2.72587 -3.61553,-8.36862 -8.69728,-8.21584c0,0 -1,0 -1,-1c0,-1 1,-1 1,-1c2.63475,0.05223 6.58666,2.43885 7.98946,4.70564c1.04417,1.68727 0.66415,2.64423 2.12203,4.09598l0.22391,0.22392c0,0 0.70711,0.70711 0,1.41422z" fill="#f5f0a7" stroke="none" stroke-width="0.5" stroke-linecap="butt"/><path d="M193.8101,163.05495c0.70711,0.70711 0,1.41421 0,1.41421l-0.21601,0.18854c-0.2273,0.34095 -0.45459,0.68189 -0.68189,1.02284c-0.94091,1.40798 -2.23323,4.73167 -3.56957,5.33267c-1.89864,0.85389 -5.3026,-0.16063 -7.3818,0.0504c-3.26233,0.33112 -6.51511,2.10726 -9.79708,1.70066c0,0 -0.98995,-0.14142 -0.84853,-1.13137c0.14142,-0.98995 1.13137,-0.84853 1.13137,-0.84853c2.92148,0.49941 6.33121,-1.41651 9.296,-1.70882c2.00394,-0.19758 4.23132,-0.05699 6.24618,-0.00597c0.32679,0.00827 0.91436,0.20634 0.97391,-0.11508c0.34274,-1.84995 1.21547,-2.77422 2.28542,-4.38336c0.2273,-0.34095 0.45459,-0.68189 0.68189,-1.02284l0.46589,-0.49336c0,0 0.70711,-0.70711 1.41422,0z" fill="#f5f0a7" stroke="none" stroke-width="0.5" stroke-linecap="butt"/><path d="M230.42298,131.88487c0,1 -1,1 -1,1l-0.64924,-0.00772c-3.49741,0.43606 -6.58297,1.54785 -9.80938,2.87629c-0.92373,0.38034 -2.16219,0.56973 -2.92198,1.33734c-1.7321,1.74994 -3.26869,4.85354 -4.26421,7.10867c0,0 -0.40614,0.91381 -1.31995,0.50767c-0.91381,-0.40614 -0.50767,-1.31995 -0.50767,-1.31995c1.10334,-2.46762 2.78606,-5.83286 4.70579,-7.73822c0.97775,-0.97044 2.38265,-1.26537 3.57354,-1.75576c3.37647,-1.39039 6.63343,-2.54167 10.29578,-3.0006l0.89731,-0.00772c0,0 1,0 1,1z" fill="#f5f0a7" stroke="none" stroke-width="0.5" stroke-linecap="butt"/><path d="M260.6633,141.08159c-1,0 -1,-1 -1,-1l0.0602,-0.12222c-1.01368,-2.84521 -2.71046,-3.75229 -5.64626,-3.98551c0,0 -0.99589,-0.09053 -0.90536,-1.08643c0.09053,-0.99589 1.08643,-0.90536 1.08643,-0.90536c3.70148,0.3707 6.00732,1.67827 7.34477,5.2938l0.06021,0.80571c0,0 0,1 -1,1z" fill="#f5f0a7" stroke="none" stroke-width="0.5" stroke-linecap="butt"/><path d="M201.79831,226.74654c-0.01448,0.0059 -0.02893,0.01172 -0.04339,0.01746c-2.15845,0.85686 -4.8257,-0.3978 -6.91072,-0.5717c-2.70586,-0.22568 -5.54232,0.00486 -8.25979,0.00486c-5.8754,-0.07542 -12.51167,-3.51331 -17.24985,-6.58348c-1.1211,-0.72644 -1.70729,-2.47173 -2.81624,-3.2345c-1.06097,-0.72976 -2.2669,-1.35576 -3.03654,-2.38818c0,0 -0.58124,-0.81373 0.2325,-1.39497c0.81374,-0.58124 1.39497,0.2325 1.39497,0.2325c0.58939,0.87599 1.67344,1.28883 2.53568,1.89815c0.90381,0.63869 1.80525,2.63422 2.75598,3.19499c4.52532,2.66917 10.62189,6.37542 16.1835,6.2755c2.77298,0 5.69907,-0.26207 8.45687,0.00487c1.64792,0.15951 4.29292,1.45468 5.94827,0.7142c1.71868,-0.76881 3.23004,-2.70089 4.68929,-3.7163c1.74053,-1.21115 2.40213,-0.07999 4.07694,-0.41378c1.40529,-0.28008 2.44487,-0.6576 3.94826,-0.65613c2.17237,-0.40693 3.29976,0.8287 5.36431,1.07421c3.05037,0.36274 6.66391,0.03044 9.04226,2.32456l0.97857,0.58714c0.29958,0.17273 0.50122,0.49627 0.50122,0.86692c0,0.50931 -0.38075,0.92969 -0.87313,0.99203l-1.48566,0.21223l-0.03798,-0.26589c-3.52858,0.76849 -7.30221,0.34347 -10.91138,0.9114c-4.16396,0.65523 -10.07124,1.27877 -14.15465,-0.04382l0.10191,0.05132c0,0 -0.20612,0 -0.4312,-0.09358z" fill="#f5f0a7" stroke="none" stroke-width="0.5" stroke-linecap="butt"/><path d="M293.28389,225.672c-0.00135,0.00068 -0.0027,0.00135 -0.00405,0.00203c0,0 -0.89443,0.44721 -1.34164,-0.44721c-0.44722,-0.89443 0.44721,-1.34164 0.44721,-1.34164c2.24388,-1.1202 5.40395,-2.86177 6.48817,-5.18915c0.60808,-1.30531 0.67631,-3.47443 1.58126,-4.58726c0.60523,-0.74426 1.93977,-0.2501 2.79544,-0.68375c1.58089,-0.80119 1.78308,-3.32503 4.23507,-3.34237c3.45042,-0.02441 2.2674,5.10311 2.25094,7.17327c-2.15949,6.29034 -9.98675,7.54837 -15.64157,8.51008l-0.34735,0.0136c0,0 -0.22623,0 -0.46348,-0.1076z" fill="#f5f0a7" stroke="none" stroke-width="0.5" stroke-linecap="butt"/><path d="M172.8035,229.32972c0,1 -1,1 -1,1l-1.22377,-0.01805c-1.49463,-0.57827 -3.24842,-0.93338 -4.67231,-1.64817c-4.30861,-2.16292 -7.13769,-6.41831 -9.45742,-10.47759c0,0 -0.49614,-0.86824 0.3721,-1.36438c0.86825,-0.49614 1.36438,0.3721 1.36438,0.3721c2.12437,3.71787 4.68966,7.7284 8.64915,9.69831c1.27159,0.63264 2.79868,0.90431 4.12231,1.45582l0.84556,-0.01805c0,0 1,0 1,1z" fill="#f5f0a7" stroke="none" stroke-width="0.5" stroke-linecap="butt"/><path d="M321.05064,215.1482c0.83205,0.5547 0.27735,1.38675 0.27735,1.38675l-0.27815,0.35371c-2.48372,7.43455 -7.55616,13.57622 -15.39147,14.88256c0,0 -0.98639,0.1644 -1.15079,-0.82199c-0.1644,-0.98639 0.822,-1.1508 0.822,-1.1508c7.09498,-1.18209 11.57786,-6.791 13.8229,-13.54223l0.51142,-0.83066c0,0 0.5547,-0.83205 1.38675,-0.27735z" fill="#f5f0a7" stroke="none" stroke-width="0.5" stroke-linecap="butt"/><path d="M282.89806,213.90428c0,-1 1,-1 1,-1l0.0383,0.01942c4.8231,-0.96462 8.57258,-5.49674 8.57258,-10.50559c0,0 0,-1 1,-1c1,0 1,1 1,1c0,5.89435 -4.47108,11.32489 -10.18034,12.46675l-0.43053,0.01942c0,0 -1,0 -1,-1z" fill="#f5f0a7" stroke="none" stroke-width="0.5" stroke-linecap="butt"/><path d="M278.27171,181.64296c0.19612,0.98058 -0.78446,1.1767 -0.78446,1.1767l-0.86306,0.15765c-1.34071,0.77429 -2.44899,0.4326 -3.78894,1.1796c-4.6415,2.58758 -7.51817,5.76445 -9.85726,10.45984c0,0 -0.44721,0.89443 -1.34164,0.44721c-0.89443,-0.44721 -0.44721,-1.34164 -0.44721,-1.34164c2.49212,-4.96758 5.67008,-8.69297 10.6935,-11.32397c1.51562,-0.7938 2.66036,-0.43378 4.02035,-1.28649l1.19202,-0.25337c0,0 0.98058,-0.19612 1.1767,0.78446z" fill="#f5f0a7" stroke="none" stroke-width="0.5" stroke-linecap="butt"/><path d="M87.17098,205.88211c-1.22411,-0.35369 -2.46228,-0.72013 -3.71803,-1.15959c-2.16577,-0.75792 -4.12128,-2.05711 -6.24682,-2.90682c-2.06578,-0.82582 -4.19659,-1.62144 -6.02845,-2.75182c0.23282,-0.36838 0.44737,-0.88868 0.63602,-1.59214c0.07642,-0.28497 -0.06475,-0.5322 -0.2786,-0.76661c0.01202,-0.52334 -0.05503,-1.08807 -0.06471,-1.62277c0.00648,0.00493 0.01295,0.00987 0.01943,0.01481c1.30436,0.38732 2.50602,1.04422 3.78759,1.63129c0.96965,-0.24105 1.74013,-0.91927 2.87858,-0.72902c0.69824,0.11669 1.17559,0.80848 1.83102,1.07598c2.29465,0.93651 4.38839,-0.36642 6.75467,1.02989c1.13789,0.67146 1.85945,2.16996 3.02516,2.72275c1.05649,0.50101 2.13709,0.96343 3.13741,1.56885c0.59475,0.71531 1.47784,2.25344 2.35708,3.5276c1.55685,0.63452 3.04591,1.40082 4.28917,2.35053c0.31961,0.07652 0.64167,0.19615 0.95797,0.3934l0.10535,-0.13169l1.02032,0.81626c0.23292,0.18309 0.38252,0.46739 0.38252,0.78664c0,0.55228 -0.44772,1 -1,1c-0.19407,0 -0.37523,-0.05528 -0.52859,-0.15096l-1.01344,-0.60807l0.00529,-0.00881l-0.02554,-0.00367c-0.943,-0.67756 -2.37791,-0.2132 -3.39772,-0.76848c-0.40499,-0.22051 -0.80887,-0.58894 -1.20567,-1.0412c-0.8356,-0.40629 -1.6745,-0.75448 -2.51794,-1.06597c-1.26193,-0.14446 -2.46804,-0.20215 -3.81273,-0.74002l-0.89785,-0.44506c0,0 -0.28354,-0.14177 -0.45151,-0.42531zM75.21097,198.87462c0.06054,0.03548 0.12072,0.07017 0.18053,0.104c-0.03929,-0.02622 -0.07856,-0.05251 -0.1178,-0.07888c-0.02095,-0.00833 -0.04185,-0.0167 -0.06273,-0.02512z" fill="#f5f0a7" stroke="none" stroke-width="0.5" stroke-linecap="butt"/><path d="" fill="#f5f0a7" stroke="none" stroke-width="0.5" stroke-linecap="butt"/><path d="M110.18294,157.04854c-0.44721,-0.89443 0.44721,-1.34164 0.44721,-1.34164l0.53839,-0.25005c0.44483,-0.12367 0.87896,-0.24472 1.30617,-0.36221c0.13802,-0.77396 0.98099,-0.77396 0.98099,-0.77396c3.47456,0 6.00349,-2.37688 9.02066,-3.89508c1.92488,-0.96858 3.65323,-1.74891 5.39364,-2.86619c0.88586,-0.56869 2.10906,-0.48881 2.95409,-1.11656c2.24307,-1.66632 3.68214,-3.34947 6.31555,-4.5482c2.52341,-1.44071 5.43969,-2.35704 8.13109,-3.47012l0.20107,0.05377v-0.07419h1.28064c0.55228,0 1,0.44772 1,1c0,0.31925 -0.1496,0.60355 -0.38252,0.78664l-0.86903,0.69522c-0.36251,0.48034 -0.76743,0.91578 -1.22372,1.1911c-1.56745,0.9458 -4.59007,1.48649 -5.77979,3.05661c-0.61141,0.8069 -1.08917,1.82968 -1.98747,2.29656c-0.18359,0.09542 -3.5292,0.86229 -3.77993,1.41023c-0.32689,0.71439 0.5424,1.60496 0.26899,2.34148c-1.0834,2.91849 -2.49684,0.42224 -3.90662,1.90544c-0.27401,0.28828 -0.08231,0.87955 -0.39439,1.1261c-1.11387,0.87995 -2.66062,0.64332 -3.9488,0.63779c-1.20344,2.00932 -2.22741,0.78488 -4.27092,0.73723c-3.60869,-0.08413 -6.44692,0.82367 -9.76025,1.79139l-0.19341,0.11585c0,0 -0.89443,0.44721 -1.34164,-0.44721z" fill="#f5f0a7" stroke="none" stroke-width="0.5" stroke-linecap="butt"/><path d="M131.16288,218.7806c2.45105,0.75316 1.52488,2.52476 2.72898,4.05906c0.69716,0.88834 2.9695,-0.36869 3.69493,-0.24088c2.44533,0.43084 3.40351,4.51283 3.96204,6.79988l0.48273,0.80455c0.09568,0.15336 0.15096,0.33452 0.15096,0.52859c0,0.55228 -0.44772,1 -1,1c-0.14775,0 -0.28802,-0.03204 -0.41424,-0.08956l-1.26032,-0.54014l0.12297,-0.28694c-1.10821,-0.46907 -1.79323,-1.13315 -3.30674,-1.94363c-1.35998,-0.72827 -2.78626,-1.51967 -4.25418,-2.26723l-0.44221,-1.83267l-0.07738,0.01867l0.00402,-0.12193l0.10472,0.02094c0.08709,0.01921 0.17759,0.02934 0.27046,0.02934c0.69036,0 1.25,-0.55964 1.25,-1.25c0,-0.29959 -0.1054,-0.57457 -0.28114,-0.78987l-0.97687,-1.21768l-0.01511,0.01212l-0.02428,-0.05884c-0.52574,-0.5353 -1.39785,-1.53219 -2.3538,-2.3331c0.49257,-0.29548 1.02174,-0.48897 1.63448,-0.30068z" fill="#f5f0a7" stroke="none" stroke-width="0.5" stroke-linecap="butt"/><path d="M219.28351,169.66914c0,0.75 -0.75,0.75 -0.75,0.75l-0.97862,-0.21967c-0.25955,-0.25955 -1.81578,-1.81328 -1.86587,-1.87758c-0.46383,-0.59547 -0.32634,-1.65561 -0.97318,-2.04459c-0.82091,-0.49365 -3.88054,0.387 -4.76806,0.5523c-0.57192,0.00118 -3.23471,0.06425 -3.60093,-0.2173c-0.36137,-0.27782 -0.17087,-2.90189 -0.12023,-3.14017c0.5205,-2.44904 2.15419,-4.38259 2.14287,-6.94132c-0.00366,-0.82647 0.63768,-1.7567 0.21967,-2.46967c-0.38662,-0.65942 -1.52833,0.32696 -2.28362,0.20931c-2.45281,-0.38207 -4.92226,-1.14872 -6.68212,-2.89903c0,0 -0.53033,-0.53033 0,-1.06066c0.53033,-0.53033 1.06066,0 1.06066,0c1.51524,1.52454 3.73021,2.1523 5.86992,2.48041c0.49641,0.07612 2.75766,-0.18294 3.09582,0.20931c0.44448,0.51558 0.1774,1.35092 0.21967,2.03033c0.17583,2.82575 -0.66314,4.88363 -1.66981,7.46838c-0.0853,0.219 -0.85041,3.03932 -0.79042,3.05419c0.77937,0.19319 1.59611,-0.21912 2.39907,-0.21729c1.37971,-0.26318 4.40682,-1.11023 5.68055,-0.34427c0.85209,0.51241 2.26552,3.28583 3.12668,4.14699l-0.08204,-0.21967c0,0 0.75,0 0.75,0.75z" fill="#515151" stroke="none" stroke-width="0.5" stroke-linecap="butt"/><path d="M267.95794,137.16673c-0.67082,-0.33541 -0.33541,-1.00624 -0.33541,-1.00624l0.38917,-0.73347c-0.01445,-0.51435 0.54924,-1.23349 0.13432,-1.53781c-0.8412,-0.617 -2.55854,0.30966 -3.07187,-0.59851c-0.32608,-0.57689 -0.32176,-1.14111 -0.11346,-1.67422l-0.32871,-0.08227c-0.23908,-0.06056 -0.79121,-0.18896 -1.40195,-0.39088c-0.58468,0.727 -0.83431,1.92636 -1.90498,2.58367c-1.09974,0.67516 -2.85109,0.68741 -4.07132,1.25852l-1.06414,0.01896c0,0 -0.75,0 -0.75,-0.75c0,-0.75 0.75,-0.75 0.75,-0.75l0.72901,0.01895c1.16866,-0.5876 2.53731,-0.5502 3.66967,-1.10303c0.34855,-0.17016 0.80047,-0.98225 1.35214,-1.81556c-0.94453,-0.51372 -1.55401,-1.24258 -0.65199,-2.21282c0.47455,-0.51045 1.37894,-0.21245 2.07377,-0.26699c2.35787,-0.18507 4.80642,0 7.17259,0c0,0 0.75,0 0.75,0.75c0,0.75 -0.75,0.75 -0.75,0.75c-0.38172,0 -0.78936,0.01623 -1.21407,0.0399c-0.89553,0.51266 -3.47792,2.02419 -2.94761,2.87563c0.50054,0.80364 2.1446,-0.37606 2.82639,0.28086c0.3818,0.36787 0.28385,2.30359 0.27207,2.95023l-0.50741,1.05967c0,0 -0.33541,0.67082 -1.00623,0.33541zM266.10387,129.84231l0.10704,0.16056c0.0648,-0.05704 0.1307,-0.11323 0.19741,-0.16854c-0.10161,0.00326 -0.20313,0.00596 -0.30445,0.00797z" fill="#515151" stroke="none" stroke-width="0.5" stroke-linecap="butt"/><path d="M171.68913,196.00519c-0.33541,-0.67082 0.33541,-1.00623 0.33541,-1.00623l0.99977,-0.49062c1.90654,-0.31928 2.74143,-1.50757 4.4578,-2.00906c0.66857,-0.19535 1.37689,-0.91267 2.00071,-0.60284c0.5312,0.26383 0.40473,1.16581 0.31241,1.75169c-0.32176,2.042 -2.41841,4.58107 -3.11141,6.66352c-0.20935,0.6276 -1.67943,3.48222 -1.37119,4.08587c0.22582,0.44225 0.74546,0.7167 0.89658,1.18972c0.25958,0.81251 -0.38498,1.72431 -0.18091,2.55252c0.10222,0.41485 0.83572,-0.23139 1.26282,-0.21967c1.32963,0.03649 1.56986,-0.14479 2.45717,1.2979c0.94903,1.54303 0.4024,4.04194 0.70191,5.73919c0.03282,0.18599 0.07151,0.37138 0.11465,0.55632c0.14846,-0.405 0.32836,-0.79805 0.52961,-1.1719c0.53424,-0.13782 2.31106,-0.69708 3.04965,-0.58266c0.43357,0.06717 1.14996,0.79434 1.71846,0.54917c0.57414,-0.2476 0.22558,-1.23036 0.31225,-1.84957c0.15042,-1.07463 -0.30933,-4.90748 0.44828,-5.66364c2.04429,-2.04038 4.22486,1.89063 5.78964,1.58316c0.43173,-0.08483 2.643,-3.68174 3.13609,-4.22997l-0.17937,0.01851c0,0 0.02061,-0.74972 0.77033,-0.7291c0.74972,0.02061 0.72911,0.77033 0.72911,0.77033l-0.2048,0.94335c-0.98191,1.09171 -2.63045,4.33657 -4.01108,4.7075c-1.2407,0.33334 -4.19156,-2.79751 -4.96925,-2.00313c-0.40643,0.41516 0.21344,1.14952 0.20823,1.73048c-0.01179,1.31355 0.20554,5.24131 -1.24083,5.99805c-1.01987,0.5336 -3.35236,-0.25132 -4.63882,-0.05612c-0.55203,1.25243 0.26154,5.0406 -0.65036,5.81832c-0.62814,0.53571 -5.46275,-0.93706 -6.27104,-1.29902c-0.26964,-0.12074 -1.2618,-1.17521 -1.88838,-0.87688c-0.3068,0.14607 -0.53428,3.01766 -0.56898,3.1517c-0.60738,2.34645 -1.96434,4.77416 -3.85819,6.22433c0,0 -0.6,0.45 -1.05,-0.15c-0.45,-0.6 0.15,-1.05 0.15,-1.05c1.63815,-1.19736 2.80517,-3.43897 3.3144,-5.43113c0.2508,-0.98114 0.09038,-3.44541 1.22416,-4.02088c1.21184,-0.61508 4.63976,0.86849 5.9785,1.26134c0.72196,0.21186 1.58945,1.67588 2.00041,1.04563c0.02736,-0.04196 0.05033,-0.08486 0.06934,-0.12863c-0.25596,-0.17539 -0.32021,-0.4967 -0.32021,-0.4967c-0.29342,-1.47176 -0.9103,-2.89248 -1.16896,-4.3582c-0.2894,-1.63993 0.16321,-3.74542 -0.55278,-5.30252c-0.63951,-1.39077 -2.61948,0.34503 -3.4526,-0.71491c-0.97774,-1.24394 0.23522,-1.94785 -0.18091,-3.13721c-0.16399,-0.46872 -0.7227,-0.72457 -0.89657,-1.18972c-0.52739,-1.41093 0.92244,-3.69061 1.37064,-5.03619c0.4655,-1.39427 0.98626,-2.80473 1.6446,-4.12221c0.23003,-0.46034 0.50846,-0.89491 0.76858,-1.33895c0.04649,-0.07937 0.11523,-0.18225 0.19568,-0.29547c-1.21294,0.96076 -3.24787,1.66422 -4.38092,1.85396l-0.79337,0.40596c0,0 -0.67083,0.33541 -1.00624,-0.33541z" fill="#515151" stroke="none" stroke-width="0.5" stroke-linecap="butt"/><path d="M272.24589,208.75214c-0.53033,-0.53033 0,-1.06066 0,-1.06066l0.26711,-0.15513c0.41834,-1.25145 1.62775,-5.62702 3.50786,-5.43637c0.69563,0.07054 0.92976,1.06172 1.25532,1.6805c0.86579,1.64555 1.11526,4.00989 1.76549,5.79386c0.12479,0.49774 0.26505,0.99186 0.37437,1.49322c0.75057,3.44209 0.81121,-1.50771 1.22442,-2.3177c0.69907,-1.37036 3.00448,-2.66334 4.06167,-3.85985c0.43566,-0.49308 0.71093,-1.30618 1.35635,-1.4341c0.68067,-0.1349 1.38569,0.35119 1.92886,0.78301c0.31708,0.25208 0.09888,0.95311 0.46715,1.12184c0.73339,0.336 1.16656,-1.1274 1.8385,-1.57376c0.52148,-0.34642 1.83151,-0.54307 2.24606,-0.98184c-1.46224,-2.66869 -2.58916,-5.55749 -3.90615,-8.30792l-0.02006,-1.06889c0,0 0,-0.75 0.75,-0.75c0.75,0 0.75,0.75 0.75,0.75l-0.02006,0.72426c1.28986,2.43103 2.1755,5.03848 3.3432,7.49215c0.71145,0.02525 0.71144,0.74932 0.71144,0.74932c-0.02427,0.22889 0.01755,0.48695 0.02348,0.72917c0.0114,0.02706 0.02245,0.05417 0.03311,0.08132l-0.00015,-0.00121c0.29183,-0.4407 0.56026,-0.89782 0.87549,-1.32209c3.67739,-4.94946 2.50284,3.6731 4.04453,5.22735c0.10845,0.10933 3.85296,-2.04897 4.22197,-2.23328c1.99219,-1.20713 4.05179,-3.04146 6.32286,-3.615c0.67611,-0.17075 1.44376,-0.7408 2.05309,-0.40169c0.55921,0.31122 0.33018,1.23766 0.53718,1.84323c0.45153,1.32088 0.96675,2.6146 1.87795,3.68366c2.47456,2.90327 5.27282,3.81253 8.67769,5.17449c0,0 0.69636,0.27854 0.41781,0.9749c-0.27855,0.69636 -0.9749,0.41782 -0.9749,0.41782c-3.59758,-1.43903 -6.65897,-2.48922 -9.25379,-5.5844c-0.94448,-1.12661 -1.90655,-2.80174 -2.19158,-4.27054c-0.06155,-0.31721 0.39855,-0.79129 0.12385,-0.96144c-0.61683,-0.38206 -1.31823,0.60723 -1.96732,0.93145c-1.68552,0.84193 -3.27666,2.14031 -4.89848,3.12102c-1.20685,0.60403 -4.27391,3.04296 -5.64035,2.24958c-1.39429,-0.80955 -1.73642,-3.06099 -1.74786,-4.40633c-0.00425,-0.49998 -0.02613,-1.00069 0,-1.5c0.01323,-0.25278 0.17094,-0.9781 0.04593,-0.758c-0.39566,0.69662 -0.73242,1.42923 -1.17719,2.09547l-0.4981,1.3273c-0.10214,0.2928 -0.3807,0.50288 -0.70833,0.50288c-0.31923,0 -0.59188,-0.19944 -0.70013,-0.48052l-0.4353,-1.05709c-0.29214,0.08522 -0.60082,0.14809 -0.8693,0.26972c-1.10008,0.49836 -3.0353,2.65131 -4.30027,2.37029c-0.81443,-0.18093 -0.88395,-2.21838 -1.64812,-1.8836c-0.75678,0.33154 -0.84363,1.43967 -1.42026,2.03139c-0.70108,0.7194 -2.59228,1.64291 -3.02403,2.53697c-0.56959,1.17951 0.23615,3.70658 -1.50474,4.36348c-2.37048,0.89447 -2.53544,-2.63617 -2.83455,-3.83623c-0.53279,-1.4555 -0.9806,-2.82477 -1.34474,-4.32822c-0.1687,-0.69651 0.26095,-2.07594 -0.45526,-2.10119c-0.39289,-0.01386 -1.72446,3.98324 -1.87158,4.42594l-0.62947,0.74144c0,0 -0.53033,0.53033 -1.06066,0z" fill="#515151" stroke="none" stroke-width="0.5" stroke-linecap="butt"/><path d="M265.30192,162.49655c0,-0.75 0.75,-0.75 0.75,-0.75l1.11911,0.41459c0.36523,1.26304 1.90876,0.00961 3.07562,1.24174c0.52393,0.55324 -0.33042,1.61411 0.02956,2.28567c0.72984,1.36157 1.66492,0.49712 2.78703,1.04625c2.12462,1.03974 3.21064,5.02291 2.21598,7.11701c0.0223,0.00352 0.04449,0.00626 0.06659,0.00817c0.36686,0.03182 3.05401,-3.29534 3.73889,-3.54922c1.33233,-0.49388 3.88176,-0.04676 5.34698,-0.04676c0,0 0.75,0 0.75,0.75c0,0.75 -0.75,0.75 -0.75,0.75c-1.25461,0 -3.69673,-0.46523 -4.82561,-0.04676c-1.39054,0.51546 -2.54722,3.50275 -4.01999,3.62337c-0.38549,0.03157 -0.79479,-0.21592 -1.19167,-0.49199c-0.17384,0.06368 -0.67057,0.18596 -0.94415,-0.3612c-0.04992,-0.09983 -0.07755,-0.19224 -0.08842,-0.27721c-0.23946,-0.08211 -0.45676,-0.06654 -0.63961,0.1315c-0.37665,0.40793 -0.49195,1.92849 -0.54632,2.29844c-0.36584,2.48922 -0.43913,4.8403 -0.44129,7.3559c-0.00113,1.32276 0.20112,9.8312 -2.77239,5.27431c-0.06593,-0.10103 -0.37345,-2.97824 -0.40073,-3.22372c-0.2769,-2.49214 -0.58957,-4.9755 -0.92313,-7.45807c-0.07811,0.49407 -0.17217,0.97939 -0.57158,1.43428c-1.32704,1.51133 -3.69266,1.60346 -5.49775,1.60346l-0.97862,-0.66796c0,0 -0.53033,-0.53033 0,-1.06066c0.53033,-0.53033 1.06066,0 1.06066,0l-0.08204,0.22862c3.58733,0 4.56778,-1.62829 5.52602,-4.27173v-1.25429c0,-0.41421 0.33579,-0.75 0.75,-0.75c0.38264,0 0.69835,0.28654 0.74426,0.65675l0.13138,0.93827c0.41723,2.97967 0.83371,5.95441 1.16598,8.94486c0.07907,0.71166 0.16598,1.42252 0.2439,2.1343c0.0256,-0.87235 0.10338,-1.74853 0.10405,-2.52971c0.00229,-2.67052 -0.71369,-9.03928 1.69901,-10.92903c0.72668,-0.56918 1.42489,-0.24621 2.07314,0.14562c0.25669,-0.7405 0.06828,-2.77744 -0.14865,-3.45937c-0.69801,-2.1943 -1.95975,-0.90673 -3.26935,-1.6863c-0.64347,-0.38304 -1.26427,-0.91356 -1.58855,-1.58855c-0.31719,-0.66023 0.58889,-1.72428 0.02956,-2.1972c-1.29215,-1.09254 -2.03814,0.47491 -3.2004,-1.44798l0.22253,0.41459c0,0 -0.75,0 -0.75,-0.75z" fill="#515151" stroke="none" stroke-width="0.5" stroke-linecap="butt"/></g></g></svg>