<svg version="1.1" xmlns="http://www.w3.org/2000/svg" xmlns:xlink="http://www.w3.org/1999/xlink" width="401.76264" height="275.73925" viewBox="0,0,401.76264,275.73925"><g transform="translate(-46.25606,-26.58415)"><g data-paper-data="{&quot;isPaintingLayer&quot;:true}" fill-rule="nonzero" stroke-linecap="butt" stroke-linejoin="miter" stroke-miterlimit="10" stroke-dasharray="" stroke-dashoffset="0" style="mix-blend-mode: normal"><g stroke="none" stroke-width="0.5"><g data-paper-data="{&quot;index&quot;:null}" fill="#aa0000"><path d="M147.10923,293.80846c-1.96555,1.13222 -5.09826,3.26241 -7.52817,3.26513c-1.86329,0.00209 -3.74279,-0.52174 -5.43277,-1.29239c-3.4227,-1.56078 -3.40137,-2.94796 -5.45022,-5.41548c-2.87158,-3.4584 -6.58804,-6.915 -6.99437,-11.7418c-0.25275,-3.00229 0.49523,-5.62776 2.13775,-7.79778c-0.83534,-0.47007 -1.72196,-1.24877 -3.12085,-2.28059c-0.98451,-0.72616 -2.19171,-1.26614 -2.88488,-2.26548c-4.24051,-6.11367 -1.77143,-11.6228 1.15566,-17.16894c-2.3958,0.76932 -5.25185,1.15492 -7.12961,0.32285c-4.51572,-2.00103 -6.38219,-9.14877 -4.73789,-13.30388c0.09735,-0.246 3.77167,-4.13145 4.55942,-4.96919c1.13443,-1.04567 2.71699,-2.72608 4.39323,-3.65979c-0.16665,-0.18833 -0.31812,-0.3904 -0.4512,-0.60911c-3.98289,-6.54607 3.83405,-15.37846 10.00574,-16.77306c0.99986,-0.22594 2.05375,0.14869 3.07703,0.0755c1.14367,-0.08179 2.25405,-0.63927 3.39617,-0.53842c0.94984,0.08388 1.70797,0.89573 2.6446,1.07186c1.23579,0.23241 2.63535,-0.3946 3.77223,0.13491c0.07619,0.03547 0.15006,0.07404 0.22183,0.11541c0.31332,-1.21455 1.16549,-2.04133 1.88987,-2.5475c-0.63449,-1.02041 -1.26444,-3.05534 -1.18761,-3.66719c0.37254,-2.96639 4.07296,-8.22066 6.80863,-9.77863c1.69516,-0.96541 3.52682,-2.33567 5.4727,-2.10842c0.16828,0.01965 7.05635,4.24373 8.5091,5.17019c0.89709,0.57208 1.61115,1.87375 2.67258,1.74412c0.70871,-0.08656 1.14505,-0.841 1.68048,-1.30513c1.32323,-1.14703 2.89995,-1.98565 4.24576,-3.10707c0.82232,-0.68521 1.23582,-1.79233 2.11747,-2.40222c1.31379,-0.90885 5.74181,-2.16843 7.18326,-2.6202c3.39717,0.63065 11.24894,0.70279 13.30157,4.28022c0.28861,-0.15934 0.65812,-0.22498 0.96778,-0.34579c2.17733,-0.84958 3.91025,-3.3839 6.2431,-3.17099c5.73606,0.52348 9.94784,6.40882 10.66158,11.32964c0.32228,2.22186 -0.75741,3.61776 0.45009,5.69486c0.74902,1.28844 1.56223,2.55793 2.55499,3.67623c0.98562,1.11024 2.82616,1.6938 3.18143,3.12484c1.44109,5.80487 -3.29835,9.58495 -7.13971,12.86187c0.53452,0.48198 0.96543,1.09075 1.23962,1.80282l0.45312,1.17677c0.75434,0.33755 1.47573,0.73679 2.17107,1.18129l0.08821,-0.37595l2.45727,0.55605c1.53979,0.32532 2.8852,1.38757 3.48374,2.94197c0.16325,0.42396 0.26018,0.85656 0.29583,1.28681c1.47352,-1.59776 3.21905,-3.18638 3.92653,-3.35563c4.29788,-1.02822 9.09658,0.99785 11.11706,4.92625c0.96899,1.88399 -0.53718,4.20444 -0.48103,6.3144c0.03496,1.31382 1.13949,2.38146 1.6108,3.61153c1.68562,4.39921 2.84827,8.29651 0.14244,12.52414c0.8518,2.08883 1.79037,4.04612 1.77413,6.40347c-0.00752,1.09301 -0.71879,2.09292 -0.80354,3.18281c-0.08519,1.09533 0.48853,2.19934 0.30081,3.28228c-0.11034,0.63652 -0.29719,1.27251 -0.54031,1.903c0.30677,0.97631 0.55452,1.96381 0.73205,2.96271c0.31955,1.7978 0.80232,3.72823 0.24625,5.4696c-0.91943,2.87929 -4.41101,5.04971 -7.07117,6.02372c-2.25807,0.82678 -4.73384,1.07412 -7.24345,0.90016c-4.03106,2.19869 -8.66711,2.81289 -13.7072,0.37902c-0.6742,-0.32557 -2.32156,-1.53095 -3.75916,-2.70921c-0.36419,0.55065 -0.85409,1.06188 -1.03023,1.68556c-0.38539,1.36454 0.30744,3.04608 -0.49926,4.2198c-3.91371,5.69428 -15.37079,5.66214 -20.52497,2.01139c-2.29788,-1.62761 -3.57419,-3.32531 -4.44144,-5.32827c-0.38867,-0.58044 -0.7588,-1.1761 -1.11937,-1.77183c-2.66003,5.01231 -9.93091,7.8283 -15.56323,6.99421c-3.44868,1.61 -7.33014,1.52583 -10.77154,-1.95786c-0.89686,-0.90787 -0.95405,-2.31548 -1.25446,-3.58071c-0.67925,1.17521 -1.72979,2.19394 -2.47537,3.34119zM145.61289,240.98902c0.12477,-0.14049 0.25852,-0.27419 0.40077,-0.40019c-0.20342,0.063 -0.34131,0.14361 -0.37396,0.263c-0.01062,0.03882 -0.01951,0.08475 -0.02682,0.13717z"/><path d="M192.02713,226.26645l1.07774,-0.40023c0.25552,-0.09489 6.69982,-2.53579 7.21972,-2.55184c1.79849,-0.05555 4.40997,1.24233 6.07703,1.98104c4.29115,1.90151 9.25809,4.1786 11.19655,8.50435c0.77788,-0.75047 1.3477,-1.80814 2.35953,-2.17903c1.11133,-0.40736 2.3713,0.07272 3.55694,0.10993c2.36341,0.07417 4.93952,-0.29978 6.82789,1.68006c1.27016,1.33169 1.90383,3.13926 2.71308,4.78175c2.47913,5.03171 3.95917,11.08571 4.48483,16.61111c0.18947,1.99163 1.09467,4.14309 0.31914,5.99271c-0.33312,0.79451 -1.0842,1.25935 -1.91293,1.66292c2.10874,2.84653 3.94464,5.88164 3.73577,9.66414c-0.11719,2.12252 -1.64381,3.94433 -2.21322,5.99511c-1.01216,3.64548 -1.77138,8.3328 -4.80194,11.08058c-1.7657,1.60097 -4.33205,2.43755 -6.53829,3.23608c-1.25862,0.45556 -2.4519,1.21321 -3.78754,1.33522c-6.10033,0.5572 -12.15011,-3.45532 -18.04724,-2.3486c0,0 -0.96596,0.1571 -1.76598,-0.33533c-0.97426,2.90281 -2.35532,5.72586 -4.73967,7.54777c-0.92662,0.70802 -2.17024,0.88059 -3.26264,1.30304c-0.78052,0.30182 -6.19325,2.29942 -6.4659,2.33381c-4.6,0.58008 -9.80877,-3.76917 -11.67322,-7.62862c-1.53531,0.71084 -3.25948,1.14915 -4.79672,1.71491c-2.50309,0.92122 -5.20781,1.19781 -7.83938,1.65868c-5.52938,0.96835 -10.53066,3.35871 -15.27486,-1.21948c-0.33353,-0.32186 -0.60331,-0.69488 -0.84801,-1.08801c-1.43367,1.15345 -3.29948,2.01673 -5.72417,2.58791c-1.28835,0.30349 -2.64923,0.81061 -3.93978,0.51624c-2.81939,-0.64309 -6.16399,-3.68222 -8.56643,-5.15015c-1.46324,-0.89407 -3.22837,-1.33424 -4.53539,-2.43729c-3.30168,-2.78638 -4.4427,-7.29325 -5.83222,-11.13618c-0.61683,-1.70595 -1.84317,-3.33113 -1.78411,-5.1405c0.03953,-1.21159 0.36068,-2.24374 0.85782,-3.16177c-2.24719,-2.0131 -3.67197,-5.25386 -4.64799,-7.77379c-0.27823,-0.71829 -2.21149,-5.65056 -2.19214,-6.06852c0.07815,-1.68832 0.65291,-3.39565 1.55552,-4.83463c0.20852,-0.33244 0.47964,-0.6106 0.78269,-0.86165c-0.68441,0.04879 -1.35974,0.04448 -2.00497,-0.15855c-1.13319,-0.35658 -1.88324,-1.43579 -2.74244,-2.24427c-3.34523,-3.14772 -7.60501,-9.13528 -5.53005,-14.0949c0.4228,-1.01056 1.43116,-1.67351 2.17226,-2.48836c0.94037,-1.03394 4.08458,-4.48626 5.41369,-5.25532c1.02434,-0.59273 2.21137,-1.09221 3.45308,-1.54406c-0.7998,-2.04486 -1.64381,-4.49138 -1.51591,-6.19684c0.54416,-7.25607 8.27524,-11.40551 14.39352,-13.49094c1.59204,-0.54264 3.12703,-1.70782 4.80418,-1.54624c1.8398,0.17725 3.31111,1.61741 4.93527,2.48451c3.56717,1.90443 5.53294,2.73459 7.79268,6.06873l0.82136,2.00366c0,0 0.84872,2.20411 -1.39568,3.0376c-2.24438,0.83347 -3.09312,-1.37063 -3.09312,-1.37063l-0.4013,-1.17152c-1.53273,-2.67189 -3.34954,-2.79463 -6.12732,-4.48857c-0.98128,-0.5984 -1.75053,-1.74063 -2.89867,-1.86471c-1.0018,-0.10825 -1.81176,0.86984 -2.73997,1.25539c-3.95774,1.64384 -11.02633,4.06977 -11.30014,9.35787c-0.04451,0.85961 0.64678,2.82876 1.26469,4.41563c0.54405,-0.18027 1.07298,-0.362 1.57722,-0.54924l1.61661,-0.60034c0,0 2.2444,-0.83347 3.09312,1.37063c0.84872,2.20411 -1.39566,3.0376 -1.39566,3.0376l-1.61661,0.60034c-1.08071,0.40134 -2.19797,0.78691 -3.31734,1.19151c-0.13527,0.07649 -0.2863,0.14675 -0.45472,0.20931c-0.17671,0.06562 -0.34477,0.11242 -0.50445,0.14294c-4.04605,1.51409 -7.99106,3.40747 -10.20243,7.3294c-0.55174,0.97853 0.5745,2.74515 0.81346,3.36036c0.79027,2.03471 2.17411,3.84929 3.70023,5.4292c0.36661,0.37954 0.52454,1.06971 1.04323,1.18885c0.94155,0.21625 1.91923,-0.28144 2.88617,-0.28639c1.28523,-0.00658 2.36444,-0.04048 3.40515,-0.16202c1.2132,-0.90274 2.5526,-1.62915 4.49703,-2.35943l2.15549,-0.80044c0,0 2.24438,-0.83348 3.09311,1.37062c0.84872,2.20411 -1.39566,3.0376 -1.39566,3.0376l-0.72098,0.26775c-0.18955,1.28014 -1.56583,1.79123 -1.56583,1.79123c-1.46923,0.54125 -2.80025,0.93182 -4.12863,1.19003c-0.60146,0.55875 -1.24026,1.23384 -2.1478,2.12006c-1.45562,1.42141 -3.36205,1.59435 -3.27237,3.99444c0.06072,1.62542 1.30078,2.99284 1.88331,4.51541c0.34882,0.91174 1.59001,4.41859 3.13154,5.94834c0.58241,-0.53651 1.17684,-1.06261 1.74024,-1.60492c0,0 1.72859,-1.63433 3.3928,0.06325c0.30448,0.3106 0.4954,0.61907 0.6041,0.91579c0.29986,0.17541 0.59176,0.4481 0.85184,0.85647c1.27241,1.99786 -0.76197,3.24741 -0.76197,3.24741c-1.14391,0.62193 -2.13042,1.74108 -3.43176,1.8658c-0.31489,0.03019 -0.62089,0.03974 -0.91834,0.03013c-0.32581,0.50008 -0.52866,0.9903 -0.51038,1.42713c0.05057,1.2086 1.01127,2.20655 1.47624,3.32666c1.20589,2.90508 1.82238,7.13904 4.47415,9.23126c1.15079,0.90797 2.67303,1.24419 3.93126,2.00237c0.47648,0.28711 5.78952,4.20242 6.87635,4.51626c0.56421,0.16291 3.98133,-1.20874 4.16854,-1.29108c3.71597,-1.63466 3.87218,-3.61503 4.25644,-7.45284l-0.46871,-0.51391c0,0 -0.84871,-2.20411 1.39568,-3.0376c2.24438,-0.83347 3.09311,1.37063 3.09311,1.37063l0.75393,2.66129c-0.22931,2.12483 -0.62659,3.99581 -1.29751,5.61134c0.38285,0.65939 0.64978,1.40445 1.17903,1.95565c2.97953,3.10309 7.6802,0.48509 11.02553,-0.09878c3.82912,-0.6683 6.10769,-1.15045 9.68063,-2.42811c0.89683,-0.32069 2.66775,-0.53608 3.14332,-1.70623c0.95437,-2.34823 -0.1582,-4.70228 -0.99783,-6.85404l-0.61132,-1.58758c0,0 -0.84872,-2.20413 1.39566,-3.0376c2.24438,-0.83348 3.09312,1.37063 3.09312,1.37063l0.61131,1.58759c1.07394,2.8209 2.11259,5.71489 1.47692,8.67513c0.33404,0.62271 0.32151,1.27057 0.32151,1.27057c-0.0668,0.73437 -0.5168,1.53448 -0.20037,2.20309c0.74468,1.57355 4.48539,5.21721 6.61999,4.72767c1.81683,-0.4167 6.00326,-1.66372 7.51524,-2.76685c1.15069,-0.83956 1.76837,-2.63441 2.31818,-3.84363c1.50176,-3.30288 3.38533,-7.03956 2.61843,-10.57272l-0.28468,-0.60996c0,0 -0.84872,-2.20411 1.39566,-3.0376c2.24438,-0.83347 3.09311,1.37062 3.09311,1.37062l0.53041,1.50683c0.16402,1.17876 0.60508,2.35176 0.49204,3.5363c-0.08571,0.8983 -0.8359,1.62233 -1.06759,2.49539c-0.09169,0.34548 -0.18383,0.69973 -0.27778,1.06066c6.15175,-0.76889 11.84045,2.89446 17.98035,2.3563c0.9597,-0.08413 1.78137,-0.72202 2.67889,-1.06617c1.3331,-0.51116 3.80571,-1.24254 4.90928,-2.22485c2.30438,-2.0512 2.7521,-6.25764 3.50304,-8.93995c0.5086,-1.81662 1.95348,-3.39313 2.07057,-5.27365c0.11933,-1.91645 -1.32685,-4.22485 -1.86326,-6.05182l-1.51914,0.64824c0,0 -2.36725,0.38503 -2.75933,-1.93973c-0.27496,-1.63039 0.80722,-2.30673 1.47822,-2.56531c-0.19314,-1.4339 1.22705,-2.24487 1.22705,-2.24487c0.69653,-0.24896 1.86469,-0.0533 2.08955,-0.74691c0.34645,-1.06868 -0.58123,-2.17149 -0.78576,-3.2749c-0.27677,-1.49317 -0.35406,-3.01888 -0.65673,-4.50719c-0.87557,-4.30531 -2.36989,-10.42092 -5.06904,-14.06102c-0.75631,-1.01998 -2.55298,-0.28765 -3.83171,-0.41005c-0.53833,-0.05152 -1.06519,-0.59894 -1.56911,-0.40595c-0.52533,0.2012 -0.55031,0.98516 -0.95365,1.37212c-1.05036,1.00767 -2.20261,1.90552 -3.33758,2.82257c-0.05537,0.11495 -0.10703,0.23053 -0.15301,0.34707c0,0 -0.5923,1.28909 -1.8761,1.41933l-0.49993,0.53982c0,0 -1.6279,1.7312 -3.39071,0.13253c-1.76283,-1.59866 -0.13495,-3.32987 -0.13495,-3.32987l1.01525,-1.06767c0.33931,-0.3053 0.68307,-0.60569 1.02975,-0.90284c0.76076,-3.83465 -6.04209,-6.49271 -8.92637,-7.77078c-0.26674,-0.11821 -3.41701,-1.59473 -3.91242,-1.5677c-2.04877,0.11177 -3.79386,1.53817 -5.71314,2.25092l-1.07774,0.40023c0,0 -2.24438,0.83348 -3.09311,-1.37062c-0.84872,-2.20411 1.39568,-3.0376 1.39568,-3.0376z"/><path d="M163.08313,203.34445l0.02728,0.82326c0,0 -0.04554,2.35603 -2.44462,2.3113c-2.39907,-0.04472 -2.35353,-2.40072 -2.35353,-2.40072l0.25075,-2.07715c-2.03659,-1.36292 -6.16478,-4.45446 -8.50193,-4.23533c-0.76878,0.07207 -5.2405,2.49711 -5.41761,2.63144c-0.86129,0.6533 -1.48564,1.56281 -2.19932,2.36971c-0.37966,0.42925 -1.08256,0.76817 -1.07888,1.33672c0.00861,1.32444 0.96734,2.5035 1.11237,3.8203c0.16928,1.53713 -0.12079,3.08992 -0.18118,4.63488c0,0 -0.10402,2.35422 -2.50127,2.25206c-2.39724,-0.10216 -2.29322,-2.45637 -2.29322,-2.45637c0.0664,-1.32486 0.3267,-2.65403 0.19919,-3.97457c-0.16518,-1.71079 -1.25931,-3.3387 -1.07026,-5.04711c0.18982,-1.71516 3.9225,-5.78071 5.05393,-6.64625c1.30935,-1.00165 6.38568,-3.52877 8.18541,-3.62995c3.83182,-0.21539 8.47376,2.93506 11.58978,5.67893l1.18484,-1.25807c4.17699,-3.76084 7.60095,-7.95169 13.63239,-8.84548c0.92603,-0.13724 1.86277,0.26258 2.79898,0.23928c1.19779,-0.02981 2.41923,-0.72002 3.57164,-0.39787c1.29557,0.36217 2.13309,1.62515 3.28308,2.31404c0.87853,0.52628 1.77507,1.02967 2.65353,1.55863c1.82422,-1.40894 3.86834,-2.44494 6.50789,-2.83796c0.9133,-0.13599 1.83854,0.29932 2.76034,0.24075c1.2909,-0.082 2.54176,-0.83857 3.82237,-0.65888c5.3539,0.75119 6.31577,7.72102 7.80064,11.8459c0.63553,1.76543 1.7899,3.44362 1.85136,5.31514c0.00684,0.20852 -0.01243,0.41256 -0.05185,0.6131c1.12707,0.72874 1.68302,2.19423 2.37994,3.35869c1.78667,2.98529 3.76177,9.05632 2.89307,12.3231c-0.34561,1.29966 -1.89431,1.93818 -2.8421,2.90669c-1.71984,1.7574 -4.05593,2.90056 -6.36496,3.79455c0,0 -2.24438,0.83347 -3.09311,-1.37063c-0.84872,-2.20411 1.39566,-3.0376 1.39566,-3.0376c1.70652,-0.59867 3.33282,-1.5292 4.67507,-2.72479c0.5249,-0.46753 1.56535,-0.53476 1.7315,-1.21125c0.32627,-1.32851 -1.31805,-4.98277 -1.7705,-6.154c-0.31265,-0.80929 -0.6384,-1.6141 -0.92431,-2.43287c-0.14585,-0.41765 0.02976,-1.10417 -0.32881,-1.31379c-0.32127,0.26174 -0.74933,0.4791 -1.29072,0.49113c-0.09628,0.05559 -0.19416,0.10091 -0.2944,0.12631c-0.94814,0.24032 -1.9321,0.31425 -2.89813,0.47139l-1.69883,0.67982c0,0 -2.24438,0.83348 -3.09311,-1.37062c-0.84872,-2.20411 1.39566,-3.0376 1.39566,-3.0376l2.61212,-0.92113c0.44496,-0.07236 1.38646,-0.23718 2.44901,-0.40261c0.20236,-0.29131 0.34758,-0.59484 0.32208,-0.93481c-0.16098,-2.14612 -1.72004,-3.95984 -2.49509,-5.97263c-0.77505,-2.01281 -1.04139,-4.24532 -2.1534,-6.09953c-0.6475,-1.07963 -2.531,0.32851 -3.80311,0.42455c-0.79175,0.05978 -1.57861,-0.3783 -2.36571,-0.27511c-1.47877,0.19392 -2.66997,0.72839 -3.72114,1.45889c0.05138,0.48477 -0.07429,1.04888 -0.5618,1.65462c-0.74023,0.91973 -1.57811,1.02024 -2.23329,0.88902c-0.30318,0.32174 -0.60668,0.64959 -0.91582,0.97836l-0.24587,0.82913c0,0 -0.98691,2.14791 -3.17405,1.17873c-2.18716,-0.96918 -1.20026,-3.11707 -1.20026,-3.11707l1.09451,-2.08811c0.07154,-0.07607 0.14296,-0.15184 0.21433,-0.22728c-0.51871,-0.29634 -1.03449,-0.59707 -1.53218,-0.92345c-0.74521,-0.48868 -1.12907,-1.52601 -1.98785,-1.77723c-0.73245,-0.21428 -1.46172,0.4999 -2.22461,0.54488c-0.77993,0.04597 -1.55268,-0.37876 -2.32706,-0.2766c-4.76869,0.62915 -7.58798,4.55942 -10.86578,7.51066l-1.67875,1.7883c0,0 -0.51095,0.54337 -1.27029,0.74016z"/></g><g data-paper-data="{&quot;index&quot;:null}" fill="#aa0000"><path d="M278.18378,191.92413c-1.96555,1.13222 -5.09826,3.26241 -7.52817,3.26513c-1.86329,0.00209 -3.74278,-0.52174 -5.43276,-1.29239c-3.4227,-1.56078 -3.40138,-2.94795 -5.45023,-5.41548c-2.87158,-3.4584 -6.58804,-6.915 -6.99437,-11.7418c-0.25274,-3.00228 0.49523,-5.62776 2.13775,-7.79778c-0.83534,-0.47006 -1.72196,-1.24877 -3.12085,-2.28059c-0.98451,-0.72616 -2.19171,-1.26614 -2.88488,-2.26548c-4.24052,-6.11367 -1.77143,-11.62279 1.15568,-17.16892c-2.39581,0.76931 -5.25185,1.15492 -7.12963,0.32283c-4.51572,-2.00102 -6.38219,-9.14877 -4.73789,-13.30388c0.09735,-0.24601 3.77166,-4.13145 4.55942,-4.96919c1.13443,-1.04566 2.71699,-2.72608 4.39323,-3.65978c-0.16665,-0.18833 -0.31812,-0.3904 -0.4512,-0.60912c-3.98289,-6.54607 3.83406,-15.37846 10.00574,-16.77306c0.99986,-0.22594 2.05375,0.14869 3.07703,0.0755c1.14369,-0.08179 2.25406,-0.63927 3.39617,-0.53842c0.94984,0.08388 1.70797,0.89573 2.6446,1.07186c1.23579,0.23241 2.63537,-0.3946 3.77224,0.13491c0.07617,0.03547 0.15005,0.07404 0.22181,0.11541c0.31331,-1.21454 1.16551,-2.04134 1.88987,-2.54751c-0.63447,-1.02041 -1.26445,-3.05534 -1.18763,-3.66719c0.37254,-2.96639 4.07296,-8.22064 6.80863,-9.77863c1.69516,-0.96541 3.52682,-2.33567 5.4727,-2.10842c0.16828,0.01965 7.05634,4.24373 8.50909,5.17019c0.89707,0.57208 1.61115,1.87375 2.67259,1.74411c0.7087,-0.08656 1.14505,-0.841 1.68048,-1.30511c1.32323,-1.14703 2.89995,-1.98565 4.24576,-3.10707c0.82232,-0.68521 1.23582,-1.79233 2.11747,-2.40222c1.31378,-0.90883 5.74182,-2.16843 7.18327,-2.62018c3.39717,0.63065 11.24894,0.70279 13.30157,4.28022c0.28861,-0.15934 0.65812,-0.22498 0.96776,-0.3458c2.17733,-0.84958 3.91025,-3.3839 6.2431,-3.17099c5.73606,0.52348 9.94783,6.40883 10.66158,11.32964c0.32228,2.22186 -0.75741,3.61776 0.45009,5.69486c0.74901,1.28844 1.56222,2.55793 2.55499,3.67623c0.98562,1.11025 2.82616,1.6938 3.18143,3.12484c1.44111,5.80487 -3.29835,9.58495 -7.13971,12.86187c0.53452,0.48198 0.96543,1.09075 1.23962,1.80282l0.45312,1.17677c0.75434,0.33756 1.47573,0.73679 2.17107,1.1813l0.08821,-0.37595l2.45727,0.55606c1.5398,0.32532 2.8852,1.38757 3.48373,2.94197c0.16325,0.42396 0.26018,0.85656 0.29583,1.28681c1.47352,-1.59776 3.21905,-3.18638 3.92653,-3.35562c4.29788,-1.02822 9.09659,0.99784 11.11706,4.92625c0.96899,1.88399 -0.53716,4.20442 -0.48102,6.31439c0.03497,1.3138 1.13949,2.38147 1.6108,3.61153c1.68564,4.39921 2.84827,8.29651 0.14244,12.52414c0.8518,2.08881 1.79036,4.04612 1.77413,6.40347c-0.00752,1.09302 -0.71879,2.09292 -0.80354,3.18281c-0.08517,1.09533 0.48853,2.19936 0.30081,3.2823c-0.11034,0.63652 -0.29719,1.27251 -0.54031,1.903c0.30677,0.97631 0.55451,1.96381 0.73203,2.96271c0.31955,1.7978 0.80232,3.72823 0.24623,5.4696c-0.91943,2.87929 -4.41101,5.04971 -7.07117,6.02372c-2.25807,0.82678 -4.73384,1.07412 -7.24345,0.90016c-4.03106,2.19869 -8.66711,2.81289 -13.70721,0.37902c-0.67421,-0.32559 -2.32154,-1.53093 -3.75914,-2.70923c-0.36419,0.55067 -0.85409,1.0619 -1.03023,1.68556c-0.38541,1.36454 0.30744,3.04608 -0.49926,4.2198c-3.91371,5.69429 -15.37079,5.66214 -20.52497,2.01139c-2.29788,-1.62761 -3.57419,-3.32531 -4.44144,-5.32827c-0.38867,-0.58044 -0.7588,-1.1761 -1.11937,-1.77183c-2.66003,5.01229 -9.93089,7.8283 -15.56323,6.99421c-3.44868,1.61 -7.33014,1.52583 -10.77154,-1.95786c-0.89686,-0.90787 -0.95405,-2.31548 -1.25446,-3.58071c-0.67926,1.17521 -1.72977,2.19394 -2.47537,3.34117zM276.68743,139.10469c0.12477,-0.14049 0.25852,-0.27419 0.40077,-0.40019c-0.20343,0.063 -0.34131,0.14361 -0.37396,0.263c-0.01062,0.03882 -0.01952,0.08474 -0.02682,0.13717z"/><path d="M323.10168,124.38212l1.07774,-0.40023c0.25552,-0.09489 6.69982,-2.53579 7.21972,-2.55184c1.79848,-0.05556 4.40997,1.24233 6.07703,1.98104c4.29115,1.9015 9.25809,4.17862 11.19653,8.50435c0.77788,-0.75047 1.3477,-1.80814 2.35953,-2.17903c1.11133,-0.40736 2.3713,0.07272 3.55694,0.10993c2.36341,0.07417 4.93953,-0.29979 6.8279,1.68006c1.27016,1.3317 1.90383,3.13926 2.71308,4.78176c2.47913,5.03171 3.95917,11.08571 4.48483,16.61111c0.18947,1.99163 1.09466,4.14309 0.31912,5.99271c-0.33312,0.79451 -1.0842,1.25935 -1.91293,1.66292c2.10873,2.84653 3.94464,5.88165 3.7358,9.66414c-0.11721,2.12254 -1.64383,3.94433 -2.21322,5.99511c-1.01216,3.64548 -1.77138,8.3328 -4.80194,11.08058c-1.7657,1.60097 -4.33206,2.43755 -6.5383,3.23608c-1.25862,0.45556 -2.4519,1.21323 -3.78754,1.33522c-6.10033,0.5572 -12.15011,-3.45532 -18.04724,-2.3486c0,0 -0.96594,0.1571 -1.76597,-0.33533c-0.97426,2.90281 -2.35532,5.72586 -4.73967,7.54777c-0.9266,0.70802 -2.17026,0.88059 -3.26265,1.30304c-0.78052,0.30182 -6.19326,2.29942 -6.4659,2.33381c-4.6,0.58009 -9.80877,-3.76915 -11.67322,-7.62861c-1.53531,0.71084 -3.25948,1.14915 -4.79672,1.71491c-2.50307,0.92122 -5.20781,1.19781 -7.83938,1.65868c-5.52938,0.96835 -10.53066,3.35869 -15.27486,-1.21948c-0.33353,-0.32186 -0.60331,-0.69486 -0.84801,-1.08801c-1.43365,1.15345 -3.29947,2.01673 -5.72417,2.58791c-1.28835,0.30349 -2.64924,0.81061 -3.93978,0.51624c-2.81937,-0.64308 -6.16401,-3.68222 -8.56643,-5.15015c-1.46325,-0.89407 -3.22837,-1.33424 -4.53539,-2.43729c-3.30168,-2.78638 -4.4427,-7.29323 -5.83223,-11.13618c-0.61684,-1.70595 -1.84317,-3.33113 -1.78411,-5.1405c0.03953,-1.21157 0.36068,-2.24374 0.85782,-3.16175c-2.24721,-2.0131 -3.67197,-5.25386 -4.64801,-7.77379c-0.27823,-0.71829 -2.21149,-5.65056 -2.19213,-6.06853c0.07816,-1.68833 0.6529,-3.39565 1.55552,-4.83463c0.20852,-0.33244 0.47964,-0.6106 0.7827,-0.86165c-0.68441,0.04879 -1.35974,0.04448 -2.00498,-0.15855c-1.13319,-0.35658 -1.88323,-1.43579 -2.74242,-2.24427c-3.34523,-3.1477 -7.60501,-9.13528 -5.53006,-14.0949c0.4228,-1.01056 1.43116,-1.67351 2.17226,-2.48835c0.94037,-1.03394 4.08458,-4.48626 5.41369,-5.25532c1.02437,-0.59271 2.21137,-1.09221 3.45308,-1.54406c-0.7998,-2.04487 -1.64381,-4.49138 -1.51591,-6.19684c0.54416,-7.25607 8.27524,-11.4055 14.39352,-13.49094c1.59204,-0.54264 3.12703,-1.70782 4.80418,-1.54625c1.83982,0.17725 3.31112,1.61741 4.93527,2.48452c3.56717,1.90443 5.53294,2.73459 7.79268,6.06873l0.82136,2.00366c0,0 0.84872,2.20411 -1.39568,3.0376c-2.2444,0.83348 -3.09311,-1.37062 -3.09311,-1.37062l-0.4013,-1.17152c-1.53273,-2.67189 -3.34954,-2.79463 -6.12732,-4.48857c-0.98128,-0.5984 -1.75053,-1.74063 -2.89869,-1.86469c-1.0018,-0.10825 -1.81176,0.86984 -2.73997,1.25539c-3.95775,1.64384 -11.02633,4.06977 -11.30014,9.35787c-0.04451,0.85961 0.64678,2.82876 1.26469,4.41563c0.54403,-0.18027 1.07298,-0.362 1.57722,-0.54924l1.6166,-0.60034c0,0 2.2444,-0.83348 3.09311,1.37062c0.84872,2.20411 -1.39568,3.0376 -1.39568,3.0376l-1.6166,0.60034c-1.08071,0.40133 -2.19797,0.78691 -3.31734,1.19151c-0.13527,0.07648 -0.2863,0.14675 -0.45475,0.20931c-0.17671,0.06563 -0.34477,0.11242 -0.50443,0.14294c-4.04605,1.51409 -7.99106,3.40747 -10.20243,7.3294c-0.55174,0.97853 0.5745,2.74515 0.81346,3.36035c0.79028,2.03471 2.17411,3.84929 3.70023,5.42921c0.36659,0.37954 0.52453,1.06971 1.04323,1.18884c0.94155,0.21624 1.91923,-0.28144 2.88618,-0.28639c1.28521,-0.00659 2.36444,-0.04048 3.40515,-0.16202c1.21321,-0.90274 2.5526,-1.62915 4.49703,-2.35943l2.15548,-0.80046c0,0 2.2444,-0.83348 3.09311,1.37062c0.84872,2.20411 -1.39568,3.0376 -1.39568,3.0376l-0.72098,0.26774c-0.18955,1.28012 -1.56583,1.79123 -1.56583,1.79123c-1.46925,0.54125 -2.80027,0.93182 -4.12863,1.19003c-0.60146,0.55875 -1.24024,1.23384 -2.1478,2.12006c-1.45562,1.42141 -3.36205,1.59435 -3.27238,3.99444c0.06072,1.62542 1.30078,2.99284 1.88331,4.51541c0.34884,0.91172 1.59001,4.41859 3.13154,5.94834c0.58241,-0.53651 1.17683,-1.06261 1.74024,-1.60492c0,0 1.72859,-1.63433 3.39279,0.06325c0.30448,0.3106 0.49538,0.61907 0.60409,0.91579c0.29987,0.17541 0.59177,0.4481 0.85185,0.85647c1.27241,1.99785 -0.76197,3.2474 -0.76197,3.2474c-1.14392,0.62194 -2.13042,1.74108 -3.43175,1.8658c-0.31489,0.03019 -0.62089,0.03974 -0.91836,0.03013c-0.32582,0.50008 -0.52866,0.9903 -0.5104,1.42713c0.05057,1.20858 1.01127,2.20655 1.47624,3.32666c1.20589,2.90508 1.82238,7.13901 4.47415,9.23125c1.15079,0.90797 2.67303,1.24419 3.93125,2.00237c0.47648,0.28711 5.78952,4.20242 6.87635,4.51626c0.5642,0.16293 3.98133,-1.20872 4.16854,-1.29107c3.71597,-1.63468 3.87218,-3.61503 4.25644,-7.45284l-0.46871,-0.5139c0,0 -0.84872,-2.20411 1.39568,-3.0376c2.2444,-0.83348 3.09311,1.37062 3.09311,1.37062l0.75393,2.66129c-0.22931,2.12483 -0.62659,3.99581 -1.29751,5.61134c0.38286,0.65939 0.64978,1.40445 1.17903,1.95565c2.97953,3.10309 7.6802,0.48509 11.02553,-0.09878c3.82912,-0.6683 6.1077,-1.15045 9.68065,-2.42811c0.89683,-0.3207 2.66775,-0.53608 3.14332,-1.70622c0.95436,-2.34823 -0.1582,-4.7023 -0.99783,-6.85404l-0.61132,-1.58758c0,0 -0.84872,-2.20411 1.39568,-3.0376c2.2444,-0.83348 3.09311,1.37062 3.09311,1.37062l0.61132,1.58758c1.07393,2.8209 2.11259,5.7149 1.47692,8.67513c0.33404,0.62271 0.3215,1.27057 0.3215,1.27057c-0.0668,0.73437 -0.5168,1.53448 -0.20037,2.20309c0.74468,1.57355 4.48539,5.21721 6.61999,4.72767c1.81683,-0.4167 6.00326,-1.66371 7.51523,-2.76685c1.15069,-0.83956 1.76837,-2.63441 2.31818,-3.84363c1.50176,-3.30288 3.38532,-7.03956 2.61842,-10.57272l-0.28468,-0.60996c0,0 -0.84872,-2.20411 1.39568,-3.0376c2.2444,-0.83348 3.09311,1.37062 3.09311,1.37062l0.53041,1.50683c0.16401,1.17877 0.60506,2.35176 0.49203,3.5363c-0.08571,0.8983 -0.8359,1.62231 -1.06759,2.49537c-0.09169,0.34548 -0.18383,0.69973 -0.2778,1.06065c6.15175,-0.76888 11.84045,2.89447 17.98037,2.35632c0.9597,-0.08413 1.78137,-0.72203 2.6789,-1.06617c1.33309,-0.51116 3.80571,-1.24254 4.90928,-2.22485c2.30438,-2.0512 2.75208,-6.25764 3.50302,-8.93995c0.5086,-1.81662 1.95348,-3.39315 2.07057,-5.27365c0.11932,-1.91645 -1.32685,-4.22485 -1.86326,-6.05182l-1.51914,0.64824c0,0 -2.36725,0.38503 -2.75932,-1.93973c-0.27496,-1.63039 0.80722,-2.30675 1.47822,-2.56531c-0.19314,-1.4339 1.22705,-2.24487 1.22705,-2.24487c0.69653,-0.24897 1.86469,-0.0533 2.08954,-0.74691c0.34645,-1.06868 -0.58123,-2.17151 -0.78576,-3.2749c-0.27678,-1.49315 -0.35408,-3.01888 -0.65675,-4.50719c-0.87557,-4.30531 -2.36989,-10.42092 -5.06904,-14.06102c-0.75631,-1.01998 -2.55298,-0.28765 -3.83171,-0.41005c-0.53832,-0.05152 -1.06519,-0.59894 -1.56911,-0.40595c-0.52533,0.2012 -0.55031,0.98516 -0.95365,1.37212c-1.05036,1.00767 -2.20261,1.90553 -3.33758,2.82257c-0.05538,0.11497 -0.10701,0.23053 -0.153,0.34706c0,0 -0.5923,1.28911 -1.8761,1.41933l-0.49993,0.53982c0,0 -1.62788,1.7312 -3.39071,0.13253c-1.76283,-1.59866 -0.13495,-3.32987 -0.13495,-3.32987l1.01525,-1.06767c0.33931,-0.30531 0.68307,-0.60569 1.02975,-0.90284c0.76076,-3.83465 -6.0421,-6.49271 -8.92637,-7.77078c-0.26674,-0.11821 -3.41703,-1.59473 -3.91242,-1.5677c-2.04877,0.11177 -3.79385,1.53817 -5.71314,2.25092l-1.07774,0.40023c0,0 -2.2444,0.83348 -3.09311,-1.37062c-0.84872,-2.20411 1.39568,-3.0376 1.39568,-3.0376z"/><path d="M294.15767,101.46011l0.02728,0.82326c0,0 -0.04554,2.35601 -2.44462,2.31128c-2.39907,-0.04472 -2.35353,-2.40072 -2.35353,-2.40072l0.25075,-2.07715c-2.03659,-1.36292 -6.1648,-4.45446 -8.50193,-4.23533c-0.76878,0.07207 -5.2405,2.49711 -5.41764,2.63144c-0.86131,0.65332 -1.48564,1.56281 -2.19932,2.36971c-0.37966,0.42925 -1.08256,0.76817 -1.07888,1.33672c0.00861,1.32444 0.96736,2.5035 1.11237,3.8203c0.16928,1.53713 -0.12079,3.08991 -0.1812,4.63488c0,0 -0.10402,2.35422 -2.50127,2.25206c-2.39724,-0.10216 -2.29322,-2.45637 -2.29322,-2.45637c0.0664,-1.32486 0.3267,-2.65403 0.19919,-3.97457c-0.16518,-1.71079 -1.25932,-3.3387 -1.07026,-5.04711c0.18981,-1.71516 3.9225,-5.78073 5.05393,-6.64625c1.30935,-1.00165 6.38568,-3.52877 8.18541,-3.62995c3.8318,-0.21538 8.47376,2.93506 11.58978,5.67893l1.18482,-1.25807c4.17699,-3.76084 7.60095,-7.95168 13.63239,-8.84548c0.92603,-0.13724 1.86277,0.26258 2.79898,0.23928c1.19779,-0.02981 2.41923,-0.72002 3.57162,-0.39787c1.29559,0.36217 2.1331,1.62517 3.28308,2.31405c0.87855,0.52628 1.77505,1.02967 2.65353,1.55863c1.82422,-1.40894 3.86834,-2.44494 6.50789,-2.83798c0.9133,-0.13599 1.83852,0.29932 2.76034,0.24077c1.2909,-0.082 2.54176,-0.83857 3.82237,-0.65889c5.35388,0.75119 6.31577,7.72102 7.80064,11.8459c0.63553,1.76543 1.7899,3.44361 1.85136,5.31514c0.00686,0.20852 -0.01243,0.41256 -0.05185,0.61312c1.12707,0.72874 1.68301,2.19423 2.37994,3.35869c1.78667,2.9853 3.76176,9.05632 2.89305,12.3231c-0.34561,1.29966 -1.89431,1.93818 -2.8421,2.90669c-1.71984,1.7574 -4.05593,2.90056 -6.36496,3.79453c0,0 -2.2444,0.83348 -3.09311,-1.37062c-0.84872,-2.20411 1.39568,-3.0376 1.39568,-3.0376c1.70652,-0.59867 3.3328,-1.5292 4.67507,-2.72479c0.5249,-0.46753 1.56535,-0.53476 1.7315,-1.21125c0.32627,-1.32851 -1.31805,-4.98279 -1.7705,-6.154c-0.31265,-0.80927 -0.6384,-1.6141 -0.92431,-2.43287c-0.14585,-0.41765 0.02976,-1.10417 -0.32881,-1.31379c-0.32127,0.26174 -0.74933,0.4791 -1.29072,0.49113c-0.09626,0.05559 -0.19416,0.10091 -0.2944,0.12631c-0.94813,0.24032 -1.93209,0.31425 -2.89812,0.47139l-1.69883,0.67982c0,0 -2.2444,0.83348 -3.09311,-1.37062c-0.84872,-2.20411 1.39568,-3.0376 1.39568,-3.0376l2.61212,-0.92113c0.44496,-0.07238 1.38646,-0.23718 2.44901,-0.40261c0.20236,-0.29132 0.34758,-0.59484 0.32207,-0.93481c-0.16098,-2.1461 -1.72004,-3.95984 -2.49511,-5.97263c-0.77505,-2.01281 -1.04139,-4.24532 -2.1534,-6.09954c-0.6475,-1.07963 -2.531,0.32852 -3.80311,0.42455c-0.79175,0.05976 -1.57861,-0.37833 -2.36571,-0.27511c-1.47877,0.19392 -2.66999,0.72839 -3.72116,1.4589c0.05138,0.48477 -0.07431,1.04888 -0.56182,1.65462c-0.74022,0.91973 -1.57811,1.02024 -2.23329,0.88902c-0.30318,0.32174 -0.60668,0.64959 -0.91582,0.97836l-0.24587,0.82913c0,0 -0.98691,2.14791 -3.17405,1.17873c-2.18716,-0.96918 -1.20026,-3.11707 -1.20026,-3.11707l1.09451,-2.08811c0.07154,-0.07607 0.14297,-0.15184 0.21433,-0.22728c-0.5187,-0.29633 -1.03449,-0.59707 -1.53218,-0.92343c-0.74522,-0.48868 -1.12907,-1.52601 -1.98787,-1.77723c-0.73245,-0.21428 -1.46172,0.49993 -2.22461,0.54488c-0.77993,0.04598 -1.55268,-0.37876 -2.32706,-0.2766c-4.76869,0.62913 -7.58798,4.55942 -10.86578,7.51066l-1.67875,1.78829c0,0 -0.51095,0.54337 -1.27029,0.74016z"/></g><g data-paper-data="{&quot;index&quot;:null}" fill="#de0000"><path d="M189.91702,276.22203c-3.92105,2.25865 -10.17044,6.50815 -15.01783,6.51355c-3.71706,0.00416 -7.46642,-1.04083 -10.83773,-2.57817c-6.82789,-3.11359 -6.78535,-5.8808 -10.87258,-10.80326c-5.72846,-6.89912 -13.14237,-13.79462 -13.95297,-23.42354c-0.5042,-5.98922 0.98792,-11.22673 4.26458,-15.55568c-1.66641,-0.93773 -3.43512,-2.49117 -6.22574,-4.54952c-1.96399,-1.44861 -4.37222,-2.52578 -5.755,-4.51937c-8.45934,-12.19604 -3.5338,-23.18612 2.30543,-34.25001c-4.77937,1.53469 -10.47684,2.30391 -14.22277,0.64401c-9.00834,-3.9918 -12.73172,-18.25074 -9.45154,-26.53972c0.19421,-0.49076 7.52404,-8.24178 9.09549,-9.91296c2.26304,-2.08598 5.42009,-5.43822 8.76398,-7.30084c-0.33243,-0.37571 -0.63462,-0.77881 -0.9001,-1.21512c-7.94539,-13.05866 7.64851,-30.67824 19.9603,-33.46033c1.99461,-0.45072 4.09698,0.29661 6.13832,0.15063c2.28151,-0.16316 4.49657,-1.27527 6.77495,-1.07409c1.8948,0.16733 3.40719,1.78687 5.27568,2.13825c2.46527,0.46361 5.25724,-0.78718 7.52517,0.2691c0.15197,0.07078 0.29933,0.14773 0.4425,0.23024c0.62502,-2.42287 2.32505,-4.07224 3.77009,-5.08198c-1.26571,-2.0356 -2.52243,-6.09505 -2.36917,-7.31561c0.74318,-5.91758 8.12508,-16.39922 13.58244,-19.50724c3.38165,-1.92589 7.0356,-4.65938 10.91739,-4.20604c0.3357,0.0392 14.07659,8.46575 16.97464,10.31392c1.78957,1.14125 3.21405,3.73792 5.33151,3.47932c1.41377,-0.17267 2.28426,-1.6777 3.35236,-2.60355c2.63969,-2.28819 5.78505,-3.96114 8.46981,-6.19823c1.64042,-1.36691 2.46532,-3.57547 4.22413,-4.79216c2.62084,-1.81302 11.45426,-4.32576 14.32979,-5.22697c6.77695,1.25808 22.44034,1.40199 26.53508,8.53853c0.57575,-0.31786 1.31287,-0.44881 1.93059,-0.68983c4.34352,-1.69481 7.80051,-6.75049 12.45427,-6.32575c11.44278,1.04427 19.84478,12.78489 21.2686,22.60133c0.6429,4.43237 -1.51092,7.21701 0.89788,11.36058c1.49421,2.57029 3.11644,5.10275 5.09692,7.33364c1.96619,2.21482 5.63785,3.37894 6.34658,6.23367c2.87484,11.58005 -6.57982,19.12084 -14.24289,25.65792c1.06631,0.96148 1.92592,2.17593 2.47288,3.5964l0.90393,2.34753c1.50482,0.67339 2.94389,1.46982 4.33104,2.35656l0.17597,-0.74998l4.90198,1.10927c3.07172,0.64898 5.75562,2.76806 6.94963,5.8689c0.32566,0.84576 0.51902,1.70874 0.59014,2.56704c2.9395,-3.18735 6.42165,-6.35644 7.83298,-6.69408c8.57378,-2.0512 18.14663,1.99059 22.17726,9.82729c1.93304,3.75834 -1.07158,8.38734 -0.95959,12.59648c0.06975,2.6209 2.27314,4.75076 3.21336,7.20458c3.36263,8.77592 5.68197,16.55057 0.28416,24.98419c1.69925,4.16695 3.57157,8.07153 3.53918,12.77418c-0.01502,2.18045 -1.4339,4.17511 -1.60297,6.34931c-0.16993,2.18506 0.97455,4.38744 0.60006,6.5478c-0.2201,1.26978 -0.59284,2.53849 -1.07785,3.79626c0.61196,1.94764 1.10619,3.91758 1.46033,5.91025c0.63745,3.58639 1.60051,7.43739 0.49121,10.91123c-1.83414,5.74384 -8.79944,10.07357 -14.10617,12.01662c-4.50458,1.64933 -9.44345,2.14274 -14.44985,1.79571c-8.04148,4.38615 -17.2899,5.61141 -27.34428,0.7561c-1.34496,-0.6495 -4.6312,-3.05405 -7.49907,-5.40458c-0.72651,1.09851 -1.70381,2.11835 -2.05519,3.36249c-0.76884,2.72209 0.61331,6.07657 -0.99596,8.418c-7.8074,11.35944 -30.66296,11.29533 -40.94494,4.01249c-4.584,-3.2469 -7.13009,-6.63358 -8.86015,-10.62928c-0.77537,-1.15791 -1.51372,-2.3462 -2.23302,-3.5346c-5.30647,9.99896 -19.81099,15.61655 -31.04683,13.95265c-6.87973,3.21177 -14.62279,3.04384 -21.48795,-3.90572c-1.78912,-1.81109 -1.90322,-4.61913 -2.50252,-7.1431c-1.35503,2.3444 -3.45071,4.37665 -4.93809,6.66527zM186.93197,170.85338c0.2489,-0.28027 0.51571,-0.547 0.7995,-0.79832c-0.40582,0.12569 -0.68087,0.28648 -0.74599,0.52465c-0.02118,0.07744 -0.03893,0.16906 -0.05351,0.27365z"/><path d="M279.52302,141.48354l2.14997,-0.79843c0.50974,-0.1893 13.36537,-5.05862 14.40249,-5.09065c3.58778,-0.11084 8.79737,2.47831 12.12297,3.95196c8.56033,3.79328 18.46881,8.33585 22.3358,16.96519c1.5518,-1.4971 2.68853,-3.60702 4.70701,-4.34692c2.21699,-0.81264 4.73047,0.14506 7.09567,0.21929c4.71475,0.14796 9.85379,-0.59805 13.62087,3.35153c2.53383,2.65658 3.79792,6.26245 5.41227,9.53904c4.94556,10.03767 7.89809,22.11471 8.94672,33.13725c0.37797,3.97307 2.18373,8.26497 0.63663,11.95477c-0.66455,1.58495 -2.16286,2.51227 -3.8161,3.31732c4.20666,5.67851 7.8691,11.73321 7.45246,19.27882c-0.2338,4.23421 -3.27924,7.86849 -4.41514,11.95955c-2.01916,7.27231 -3.53369,16.62296 -9.57928,22.10447c-3.52238,3.19374 -8.64195,4.86263 -13.04313,6.45561c-2.51081,0.90879 -4.89126,2.42024 -7.55568,2.66361c-12.16945,1.11157 -24.23805,-6.89298 -36.00214,-4.68519c0,0 -1.92695,0.31341 -3.5229,-0.66896c-1.94352,5.79076 -4.69858,11.42243 -9.4551,15.05693c-1.84847,1.41243 -4.32939,1.75669 -6.5086,2.59941c-1.55705,0.60212 -12.35483,4.58709 -12.89874,4.65567c-9.17646,1.15721 -19.56736,-7.51904 -23.28671,-15.2182c-3.06276,1.41803 -6.50229,2.29242 -9.5689,3.42106c-4.99336,1.83772 -10.38897,2.38948 -15.63867,3.30887c-11.03048,1.93174 -21.00747,6.70022 -30.47158,-2.43274c-0.66536,-0.64206 -1.20355,-1.38619 -1.6917,-2.17044c-2.85999,2.301 -6.58206,4.02314 -11.41907,5.16258c-2.57011,0.60543 -5.28492,1.61704 -7.8594,1.02983c-5.62434,-1.28288 -12.29647,-7.3456 -17.08904,-10.27395c-2.919,-1.78356 -6.44022,-2.66166 -9.04758,-4.8621c-6.58648,-5.55848 -8.86268,-14.54917 -11.63462,-22.21541c-1.23051,-3.40317 -3.6769,-6.64523 -3.55911,-10.2547c0.07886,-2.41697 0.71953,-4.476 1.71125,-6.30734c-4.48289,-4.01591 -7.32516,-10.48085 -9.27222,-15.5078c-0.55502,-1.43293 -4.41166,-11.27221 -4.37306,-12.106c0.1559,-3.36802 1.30247,-6.77395 3.10306,-9.64452c0.41598,-0.66319 0.95683,-1.21807 1.56138,-1.71891c-1.36531,0.09734 -2.71254,0.08873 -3.99969,-0.3163c-2.26057,-0.71135 -3.75684,-2.86426 -5.47083,-4.47706c-6.67335,-6.27932 -15.17112,-18.22382 -11.03181,-28.11768c0.84342,-2.01595 2.855,-3.33847 4.33339,-4.96397c1.87593,-2.06257 8.14825,-8.94956 10.7997,-10.48374c2.04347,-1.1824 4.41143,-2.17882 6.88849,-3.08019c-1.59552,-4.07928 -3.27922,-8.95979 -3.02407,-12.36197c1.08555,-14.47502 16.50814,-22.75264 28.7134,-26.91285c3.17593,-1.08252 6.23806,-3.4069 9.58378,-3.08458c3.67022,0.35358 6.6053,3.22654 9.8453,4.95632c7.11608,3.79913 11.03759,5.45518 15.54548,12.10639l1.6385,3.99709c0,0 1.69309,4.39694 -2.78422,6.05965c-4.47731,1.66271 -6.17039,-2.73424 -6.17039,-2.73424l-0.80054,-2.33705c-3.05762,-5.33011 -6.68195,-5.57497 -12.22329,-8.95418c-1.95752,-1.19375 -3.49212,-3.47235 -5.78253,-3.71986c-1.99846,-0.21595 -3.61424,1.73521 -5.46595,2.50433c-7.89524,3.27927 -21.99624,8.11872 -22.54246,18.66785c-0.08878,1.71484 1.29028,5.64304 2.52292,8.80869c1.08529,-0.35962 2.14048,-0.72214 3.14636,-1.09568l3.22493,-1.19761c0,0 4.47731,-1.66271 6.17039,2.73424c1.69309,4.39694 -2.78422,6.05965 -2.78422,6.05965l-3.22493,1.19761c-2.15588,0.80061 -4.38469,1.5698 -6.61771,2.37691c-0.26984,0.15258 -0.57114,0.29276 -0.90715,0.41754c-0.35252,0.1309 -0.68777,0.22426 -1.00629,0.28515c-8.0714,3.02043 -15.94125,6.79752 -20.35267,14.62131c-1.10065,1.95206 1.14608,5.47626 1.62275,6.70351c1.57651,4.059 4.33708,7.67889 7.38152,10.83064c0.73132,0.75711 1.04639,2.13396 2.08111,2.3716c1.87829,0.43139 3.82865,-0.56142 5.75759,-0.57131c2.56387,-0.01314 4.71678,-0.08076 6.79288,-0.32322c2.4202,-1.80087 5.09215,-3.24996 8.97106,-4.7068l4.29994,-1.59683c0,0 4.47731,-1.66271 6.17039,2.73424c1.69309,4.39694 -2.78422,6.05965 -2.78422,6.05965l-1.43827,0.53412c-0.37813,2.55371 -3.12365,3.5733 -3.12365,3.5733c-2.93096,1.07972 -5.58618,1.85887 -8.23613,2.37397c-1.19985,1.11464 -2.47414,2.46137 -4.28461,4.22927c-2.90379,2.83556 -6.7069,3.18053 -6.52801,7.96844c0.12114,3.2425 2.59489,5.97036 3.75699,9.00772c0.69589,1.81879 3.17191,8.81457 6.24706,11.86622c1.16185,-1.07026 2.34764,-2.1198 3.4716,-3.20163c0,0 3.44834,-3.2603 6.76822,0.12616c0.60741,0.61959 0.98824,1.23496 1.2051,1.8269c0.59819,0.34992 1.18052,0.89391 1.69935,1.70854c2.53829,3.98548 -1.52004,6.47819 -1.52004,6.47819c-2.28198,1.24069 -4.24992,3.47327 -6.84595,3.72206c-0.62817,0.06021 -1.23862,0.07927 -1.832,0.06013c-0.64996,0.99762 -1.05461,1.97553 -1.01817,2.84696c0.10088,2.41101 2.01738,4.40181 2.94494,6.63632c2.4056,5.79533 3.63543,14.24153 8.92542,18.41527c2.29569,1.81129 5.33239,2.48201 7.84239,3.99448c0.95051,0.57274 11.54941,8.38335 13.71751,9.00941c1.12551,0.325 7.94231,-2.41126 8.31574,-2.57553c7.41293,-3.26099 7.72455,-7.21158 8.4911,-14.86756l-0.935,-1.02516c0,0 -1.69309,-4.39694 2.78422,-6.05965c4.47731,-1.66271 6.17039,2.73424 6.17039,2.73424l1.50401,5.30897c-0.45746,4.23877 -1.24995,7.97116 -2.58837,11.19396c0.76375,1.3154 1.29623,2.80172 2.35202,3.9013c5.94382,6.19033 15.32109,0.96768 21.99466,-0.19706c7.63865,-1.33319 12.18414,-2.295 19.31176,-4.84379c1.78906,-0.63976 5.32186,-1.06941 6.27055,-3.40372c1.90385,-4.68446 -0.3156,-9.38053 -1.99055,-13.67303l-1.21951,-3.16705c0,0 -1.69309,-4.39694 2.78422,-6.05965c4.47731,-1.66271 6.17039,2.73424 6.17039,2.73424l1.21951,3.16705c2.14238,5.62737 4.21438,11.40056 2.9463,17.30588c0.66634,1.24222 0.64137,2.53463 0.64137,2.53463c-0.13324,1.46498 -1.03095,3.06111 -0.3997,4.39491c1.48556,3.13904 8.94783,10.40774 13.20613,9.43113c3.62437,-0.83126 11.97581,-3.31891 14.99201,-5.51955c2.29549,-1.67481 3.52769,-5.25534 4.62451,-7.6676c2.99584,-6.58887 6.75332,-14.04313 5.22344,-21.09135l-0.5679,-1.21679c0,0 -1.69309,-4.39694 2.78422,-6.05965c4.47731,-1.66271 6.17039,2.73424 6.17039,2.73424l1.0581,3.00598c0.32717,2.3515 1.20704,4.6915 0.98154,7.0545c-0.17099,1.79199 -1.6675,3.23634 -2.12971,4.97799c-0.18291,0.6892 -0.36673,1.39587 -0.55417,2.11587c12.27203,-1.53384 23.62032,5.77412 35.86874,4.70057c1.9145,-0.16781 3.55364,-1.44035 5.34408,-2.1269c2.65937,-1.01973 7.59196,-2.47873 9.79346,-4.43833c4.59696,-4.09191 5.49008,-12.48328 6.98813,-17.83416c1.01459,-3.62396 3.89695,-6.76893 4.13056,-10.52034c0.23805,-3.82309 -2.64691,-8.42808 -3.71698,-12.07266l-3.03051,1.29318c0,0 -4.7224,0.7681 -5.50453,-3.86952c-0.54851,-3.25244 1.6103,-4.60168 2.94887,-5.1175c-0.38528,-2.86048 2.44782,-4.47824 2.44782,-4.47824c1.38949,-0.49667 3.71985,-0.10633 4.16841,-1.49002c0.69112,-2.13189 -1.15949,-4.3319 -1.56749,-6.53305c-0.55213,-2.97868 -0.70633,-6.02233 -1.31013,-8.99134c-1.74665,-8.58859 -4.72767,-20.78853 -10.11215,-28.0501c-1.50875,-2.03472 -5.0929,-0.57383 -7.64385,-0.81801c-1.07389,-0.10278 -2.12494,-1.1948 -3.13019,-0.80981c-1.04798,0.40137 -1.09778,1.96527 -1.90242,2.73722c-2.09535,2.0102 -4.39394,3.80133 -6.65809,5.63071c-0.11049,0.22932 -0.21348,0.45989 -0.30521,0.69236c0,0 -1.18157,2.57161 -3.74261,2.83141l-0.99727,1.07686c0,0 -3.24745,3.45354 -6.76408,0.26438c-3.51664,-3.18916 -0.2692,-6.6427 -0.2692,-6.6427l2.0253,-2.12988c0.6769,-0.60905 1.36264,-1.20829 2.05421,-1.80105c1.51764,-7.64968 -12.05328,-12.95218 -17.80708,-15.50181c-0.53213,-0.2358 -6.81657,-3.18129 -7.80481,-3.12738c-4.08705,0.22295 -7.56829,3.06847 -11.39705,4.49031l-2.14997,0.79843c0,0 -4.47731,1.66271 -6.17039,-2.73424c-1.69309,-4.39694 2.78422,-6.05965 2.78422,-6.05965z"/><path d="M221.7831,95.75681l0.05441,1.64231c0,0 -0.09085,4.69997 -4.87671,4.61076c-4.78585,-0.08922 -4.69501,-4.78916 -4.69501,-4.78916l0.50025,-4.14365c-4.06276,-2.71885 -12.29803,-8.88614 -16.96035,-8.44901c-1.53362,0.14379 -10.45418,4.98144 -10.80754,5.24944c-1.71819,1.30329 -2.96369,3.11762 -4.38736,4.72727c-0.75737,0.8563 -2.15961,1.53241 -2.15224,2.66661c0.01716,2.64211 1.92975,4.99419 2.21905,7.62104c0.33771,3.06641 -0.24096,6.16402 -0.36147,9.24604c0,0 -0.2075,4.69638 -4.98973,4.49259c-4.78222,-0.20378 -4.57472,-4.90016 -4.57472,-4.90016c0.13247,-2.64296 0.65173,-5.29448 0.39738,-7.92882c-0.32951,-3.41283 -2.51219,-6.66032 -2.13504,-10.0684c0.37866,-3.42154 7.82493,-11.53186 10.08199,-13.25849c2.612,-1.99817 12.73867,-7.03948 16.32895,-7.24131c7.64402,-0.42967 16.90416,5.85512 23.12027,11.32881l2.36359,-2.50968c8.33259,-7.50243 15.16304,-15.86267 27.19504,-17.6457c1.84734,-0.27376 3.716,0.52383 5.58365,0.47733c2.38946,-0.05949 4.82609,-1.43635 7.12498,-0.79371c2.58453,0.72248 4.25527,3.24203 6.54936,4.61626c1.75259,1.04986 3.54103,2.05408 5.29349,3.10926c3.63909,-2.81068 7.71691,-4.87736 12.98247,-5.66141c1.82192,-0.2713 3.66765,0.5971 5.50655,0.48028c2.5752,-0.16358 5.07053,-1.67284 7.62519,-1.3144c10.68039,1.49853 12.59923,15.40256 15.56138,23.63119c1.26779,3.52183 3.57066,6.86959 3.69325,10.60308c0.01367,0.41598 -0.02479,0.823 -0.10345,1.22309c2.24837,1.45376 3.35741,4.37724 4.74771,6.70022c3.5642,5.95532 7.50427,18.06633 5.77131,24.58317c-0.68945,2.5927 -3.77891,3.86646 -5.66965,5.79852c-3.43089,3.50582 -8.09112,5.78628 -12.69734,7.56967c0,0 -4.47731,1.66271 -6.17039,-2.73424c-1.69309,-4.39694 2.78422,-6.05965 2.78422,-6.05965c3.40431,-1.19426 6.64857,-3.05057 9.32621,-5.43565c1.04709,-0.93267 3.12268,-1.06677 3.45414,-2.41631c0.65088,-2.65023 -2.62936,-9.94007 -3.53195,-12.27652c-0.6237,-1.61442 -1.27353,-3.21994 -1.84389,-4.85328c-0.29095,-0.83316 0.05937,-2.2027 -0.65594,-2.62085c-0.64091,0.52214 -1.49485,0.95575 -2.57485,0.97974c-0.19204,0.11091 -0.38731,0.2013 -0.58729,0.25199c-1.89142,0.47942 -3.8543,0.62691 -5.78141,0.94036l-3.38898,1.35613c0,0 -4.47731,1.66271 -6.17039,-2.73424c-1.69309,-4.39694 2.78422,-6.05965 2.78422,-6.05965l5.21087,-1.83755c0.88763,-0.14439 2.76582,-0.47313 4.88551,-0.80316c0.40368,-0.58115 0.69339,-1.18663 0.64251,-1.86483c-0.32114,-4.28122 -3.43129,-7.89941 -4.97745,-11.91473c-1.54614,-4.01533 -2.07744,-8.46893 -4.29579,-12.16787c-1.29168,-2.15374 -5.04904,0.65535 -7.58677,0.84694c-1.57946,0.11924 -3.14914,-0.7547 -4.71933,-0.54883c-2.94998,0.38684 -5.3263,1.45305 -7.42327,2.91034c0.10249,0.96705 -0.14823,2.0924 -1.12074,3.30077c-1.47666,1.83476 -3.14816,2.03527 -4.45513,1.77349c-0.6048,0.64184 -1.21025,1.29586 -1.82696,1.95171l-0.49049,1.65401c0,0 -1.96874,4.28481 -6.33185,2.35141c-4.36314,-1.9334 -2.39438,-6.21819 -2.39438,-6.21819l2.18342,-4.16555c0.14269,-0.15176 0.28519,-0.30291 0.42757,-0.4534c-1.03475,-0.59115 -2.06368,-1.19109 -3.05652,-1.84215c-1.48662,-0.97485 -2.25237,-3.04419 -3.96555,-3.54537c-1.46114,-0.42745 -2.91597,0.99727 -4.43783,1.08697c-1.55589,0.09171 -3.09739,-0.75557 -4.64221,-0.55178c-9.51298,1.25506 -15.13713,9.09551 -21.67597,14.9829l-3.34892,3.56742c0,0 -1.01927,1.08395 -2.53408,1.47654z"/></g><g data-paper-data="{&quot;index&quot;:null}" fill="#ffa100"><path d="M255.69842,199.92185l0.97161,5.11679c-0.34096,1.85415 -2.41934,13.43281 -2.82948,14.28653c-5.12975,10.67755 -21.40437,13.20773 -30.81668,7.29889c-5.33414,-3.34864 -8.57908,-7.94621 -10.61344,-13.35376c-5.33051,1.27801 -11.43949,-0.16792 -15.45655,-3.94361c-6.58797,-6.19218 -10.34677,-20.12251 -8.86435,-28.83579c1.04323,-6.13176 3.75358,-10.62651 11.16781,-10.51226c2.50904,0.03867 4.37433,2.46018 6.56149,3.69027c0,0 3.86147,2.56734 1.29414,6.42883c-2.56736,3.86147 -6.42884,1.29413 -6.42884,1.29413c-4.92137,-4.7338 -3.87901,2.88656 -3.44276,6.98292c0.47491,4.45957 7.12432,21.73328 14.7633,15.13663c2.35496,-2.03361 3.1533,-4.44348 4.47413,-7.15893l0.22327,-2.20068c0,0 0.83865,-4.5606 5.39926,-3.72193c4.5606,0.83865 3.72193,5.39926 3.72193,5.39926l-1.03502,4.64191c-1.41541,2.81331 -2.49265,5.45678 -4.35959,7.75552c1.17281,4.21465 3.32654,7.88481 7.30044,10.40561c4.80746,3.04956 15.35884,2.5442 17.86768,-3.55556c1.5059,-3.66134 1.23606,-7.82168 1.95207,-11.71533l-0.7588,-0.8606c0,0 -1.28944,-4.45419 3.16474,-5.7436c4.45419,-1.28944 5.74361,3.16474 5.74361,3.16474z"/><path d="M244.3532,168.26193l4.88608,-1.69144c1.0453,-0.20614 2.69666,0.35223 3.13583,-0.61847c0.39298,-0.86855 -1.45701,-1.30029 -1.88146,-2.15388c-1.42129,-2.85829 -0.06875,-4.30674 -3.07254,-5.38952c-4.81691,-1.73637 -10.763,-0.29586 -14.21836,2.88898c0,0 -2.28524,1.90225 -4.71909,0.83037l-0.04185,0.22757c0,0 -0.83865,4.5606 -5.39926,3.72193c-4.5606,-0.83865 -3.72193,-5.39926 -3.72193,-5.39926l1.00664,-5.47408c0.4674,-1.53049 1.37471,-2.99139 1.4022,-4.59139c0.03643,-2.11849 -4.09787,-1.09758 -6.18253,-1.47642c-1.40738,-0.25576 -2.7677,-1.15063 -4.18429,-0.95217c-1.94907,0.27305 -3.52051,1.85599 -5.43783,2.30023c-2.00281,0.46405 -4.18421,-0.19762 -6.15551,0.38593c-4.0384,1.19546 -0.27529,13.15052 0.43647,15.17927c0.88526,2.52322 2.89307,4.74003 5.18049,6.12497c0,0 3.86147,2.56736 1.29413,6.42884c-2.56736,3.86147 -6.42883,1.29411 -6.42883,1.29411c-3.73912,-2.62972 -7.06105,-6.32252 -8.72512,-10.58012c-1.8874,-4.82901 -4.27626,-14.82716 -1.87849,-19.93159c1.25209,-2.66551 3.19272,-5.25545 5.75922,-6.69967c2.43191,-1.36846 5.57614,-0.53151 8.28463,-1.20301c2.33777,-0.5796 4.37411,-2.26932 6.76861,-2.52909c2.2689,-0.24613 4.51986,0.64537 6.76385,1.06112c5.3056,0.98296 11.23975,1.05698 13.33859,7.77256c0.42453,1.35835 0.29208,2.76725 -0.00807,4.19135c10.45574,-5.89824 24.78341,-4.75187 28.69044,8.75001c0.79953,2.76293 2.96554,5.78932 1.83099,8.43238c-1.29674,3.02085 -5.30249,3.88735 -7.95374,5.83102l-5.7002,2.02101c0,0 -4.37579,1.53452 -5.91031,-2.84127c-1.53452,-4.37579 2.84127,-5.91031 2.84127,-5.91031z"/><path d="M266.70399,197.92461l5.41426,1.04122c2.211,1.22523 5.04761,1.70684 6.63295,3.6757c5.53046,6.86844 0.79205,18.51223 -6.91198,21.40465c-6.03218,2.26475 -17.73288,-4.43909 -22.43859,-7.52192c0,0 -3.86147,-2.56734 -1.29414,-6.42883c2.56736,-3.86147 6.42884,-1.29413 6.42884,-1.29413c4.10689,2.78136 7.70816,3.76116 12.33278,5.43555c0.77453,0.28041 1.5017,1.17436 2.28884,0.93157c4.05027,-1.24926 3.12938,-6.36 0.03508,-7.40221l-4.16537,-0.72041c0,0 -4.5606,-0.83865 -3.72193,-5.39926c0.83865,-4.5606 5.39926,-3.72193 5.39926,-3.72193z"/><path d="M257.01345,168.54571c3.92606,0.67822 7.31374,1.20263 10.84616,3.92862c7.53375,5.81381 9.8399,18.69104 8.16886,27.78536l0.84643,6.01116c0.1693,1.02766 0.16704,2.10154 -0.03216,3.18481c-0.92635,5.03749 -5.761,8.37022 -10.79849,7.44387c-1.53197,-0.28173 -2.90627,-0.92489 -4.05108,-1.82531l-3.06307,-2.30692c-0.67018,-0.32108 -1.74534,-0.74655 -2.34813,-1.17938c-1.20829,1.98311 -2.27372,4.25708 -4.22496,5.49318c-2.32481,1.47278 -5.02447,2.53302 -7.76998,2.92574c-0.9493,0.77982 -1.86782,1.57226 -2.60569,2.43898l-7.5415,1.8009c0,0 -5.84469,0.36939 -8.53861,-4.1234c-0.1649,-0.04426 -0.31929,-0.09358 -0.46227,-0.14813c-3.70683,-1.41374 -6.65919,-4.46501 -9.30436,-7.42175c-0.98292,-1.09868 -0.56498,-2.91807 -1.15469,-4.26916c-0.47166,-1.08069 -1.98517,-1.03362 -3.25357,-1.28712l-4.87078,-0.34739c-0.38166,-0.02212 -0.76621,-0.06809 -1.15193,-0.13902c-4.05875,-0.74637 -7.01082,-4.0299 -7.52022,-7.91245c-1.04919,-1.85574 -1.35068,-4.23144 -2.20321,-6.22275c-3.57368,-8.34711 -4.15232,-15.56028 -0.17714,-24.12976c0.5416,-1.16755 1.19343,-2.27766 1.92676,-3.33889c-1.75889,-0.44649 -3.5801,-1.57558 -5.1817,-3.89893c-5.2636,-7.63569 2.37209,-12.89931 2.37209,-12.89931c6.69882,-4.47783 19.64324,-12.63709 27.22283,-2.75566c1.49679,1.95132 2.19709,4.37295 2.45114,6.92015c5.2943,-2.94414 13.72882,-4.52114 18.70661,-3.59394c3.86499,0.71993 8.71736,0.2616 11.35966,3.17272c2.69396,2.96804 1.92629,7.81818 2.24308,11.81397c0.12713,1.6036 0.15454,3.23334 0.10993,4.87983z"/></g><path d="M230.23052,174.10959c0.91016,0.79029 1.65716,1.75035 2.19994,2.82064c8.94294,-3.35145 23.72156,5.81838 21.98182,15.94196c-0.7279,4.2356 -2.28606,15.907 -9.111,16.33833c-7.09568,0.44847 -22.56386,-2.03161 -29.59926,-5.23131c-7.66731,-3.48711 -7.05053,-21.04623 -2.69282,-26.52615c2.5388,-3.19261 14.55319,-10.95183 17.22133,-3.34348z" data-paper-data="{&quot;index&quot;:null}" fill="#ffac1d"/><path d="M266.00747,187.82928l-0.0333,-0.29504c-0.71058,-1.55663 -1.42115,-3.11328 -2.13173,-4.66994c-3.08721,-6.55903 -7.15153,-3.64483 -11.58771,-10.24714c-2.19349,-3.2645 -0.48932,-10.40901 -4.3802,-12.87138c-6.0083,-3.80241 -14.22911,1.12959 -20.40513,-2.94531c-1.59436,-1.05194 -1.38978,-3.69914 -2.7764,-5.01288c-3.01009,-2.85188 -10.37173,2.24241 -12.54686,2.16919c-2.08132,-0.07007 -3.60912,-2.16999 -5.60851,-2.75238c-3.29431,-0.95959 -7.58026,3.41577 -9.65117,5.04415c0,0 -3.65672,2.85145 -6.50817,-0.80524c-2.85145,-3.65672 0.80527,-6.50818 0.80527,-6.50818c5.1056,-3.95319 10.22038,-8.09663 17.28384,-6.80186c1.56333,0.28657 2.4394,2.45068 4.0253,2.55587c1.34375,0.08912 2.17343,-1.71811 3.47643,-2.05836c4.36052,-1.1387 10.68604,-0.7415 14.47044,1.87764c1.48194,1.02562 1.1799,3.56314 2.49282,4.79771c1.95414,1.83758 5.36547,-0.44726 8.04249,-0.27731c2.04183,0.12964 10.44838,1.85632 12.06337,3.01336c6.59092,4.72193 3.92329,10.21217 7.15126,15.77411c1.01818,1.75434 7.28578,3.50247 7.84895,4.04792c1.90589,1.84594 2.72512,4.55335 4.08769,6.83003c0.76076,1.66114 1.5215,3.32229 2.28222,4.98343l0.50741,1.57271c0,0 1.28944,4.45419 -3.16474,5.7436c-4.45419,1.28944 -5.74361,-3.16473 -5.74361,-3.16473z" data-paper-data="{&quot;index&quot;:null}" fill="#ef9700"/><path d="M363.72873,213.55258l5.89204,2.73762c5.39851,6.31521 8.68438,14.92451 5.83973,23.34215c-1.22715,3.63124 -3.43947,5.75246 -5.98738,7.89208c-0.25913,3.75756 -1.64917,7.49544 -3.61081,10.72863c-1.50038,2.47294 -3.9422,8.22614 -6.0576,10.02713c-11.78482,10.0331 -28.32816,6.15345 -41.99099,5.63314c-5.62132,-0.21407 -8.78861,0.2598 -12.5464,-0.89051c-0.34064,2.40646 -0.92487,4.79255 -2.24422,6.76602c-4.99755,7.47529 -18.98275,12.01676 -27.47741,13.45223c-2.36527,0.3997 -4.79208,0.99927 -7.16806,0.66652c-9.95556,-1.39426 -16.60213,-9.47243 -19.96559,-17.69309c0,0 -1.69309,-4.39694 2.78422,-6.05965c4.47731,-1.66271 6.17039,2.73424 6.17039,2.73424c0.64187,1.82769 0.87293,3.84937 1.92562,5.4831c0.6486,1.00658 1.93252,1.4442 2.95292,2.08815c2.43888,1.53908 4.72735,3.75722 7.59771,4.15638c3.95865,0.55053 9.85948,-2.43373 13.32251,-3.71488c3.34441,-1.23728 9.60369,-2.96817 11.84991,-6.2654c0.86862,-1.27505 1.16717,-6.63402 1.26356,-7.60711l0.98563,-1.93124c0.14682,-0.48428 0.39208,-0.99566 0.76347,-1.53044c0.95347,-1.37297 2.06413,-1.92952 3.10164,-2.07531c1.02531,-0.21341 2.2631,-0.0658 3.63913,0.90149c0.05815,0.04087 0.1148,0.082 0.17,0.12335c5.32926,3.75086 6.38529,1.74098 13.27361,2.00265c10.70237,0.4066 25.75542,4.62294 35.20495,-3.24278c2.33087,-1.9402 2.66678,-5.41337 4.2931,-7.95369c0.90573,-1.41477 1.76377,-3.00947 2.08281,-4.65769c-1.60055,-2.22446 -0.68439,-4.2021 0.11374,-5.28144c0.00797,-0.37446 0.19016,-4.40181 4.34556,-4.67172c3.49575,-5.03832 3.06916,-10.81368 -1.89004,-16.29191l-1.89036,-0.02709c0,0 -4.50126,-1.59908 -2.87295,-6.01955c1.62831,-4.42048 6.12956,-2.8214 6.12956,-2.8214z" data-paper-data="{&quot;index&quot;:null}" fill="#bf0000"/><path d="M131.45414,198.22262l-3.35406,3.84759c-5.67536,5.0664 -8.29085,14.97451 -2.69845,21.63396c2.50542,2.98346 8.11637,5.35882 11.79327,7.3414c0.66353,0.23445 1.34875,0.66775 2.02128,1.38811c0.11964,0.12815 0.23003,0.25589 0.33169,0.38312c0.47753,0.58026 0.91452,1.3524 1.0111,2.29551c0.10333,0.94244 -0.1623,1.78642 -0.50785,2.45086c-0.07279,0.14506 -0.154,0.29241 -0.24419,0.44203c-0.5955,0.98788 -1.29126,1.59165 -2.00276,1.94005c-6.91061,10.87239 9.90153,22.01537 17.21223,27.99699c2.16161,1.76862 4.57765,3.50521 7.3183,4.12989c0,0 4.61678,1.24148 3.3526,5.77539c-1.26418,4.53392 -5.88093,3.29242 -5.88093,3.29242c-12.36329,-3.65598 -24.46856,-14.76301 -30.02464,-26.43656c-2.14208,-4.5006 -4.63868,-8.32628 -3.47524,-13.6558c0.32368,-1.48274 1.18439,-2.76902 2.06626,-4.04756c-3.86925,-2.07829 -7.98589,-4.43133 -10.39542,-7.36027c-8.78363,-10.67715 -5.53973,-25.75327 3.55297,-34.40799l2.61505,-3.08144c0,0 3.09163,-3.58881 6.746,-0.55267c3.6544,3.03615 0.56276,6.62492 0.56276,6.62492z" data-paper-data="{&quot;index&quot;:null}" fill="#bf0000"/><path d="M124.32045,210.39936l-0.35996,-0.28885c-0.2034,6.94678 5.0882,14.31906 9.23723,19.91878c0,0 2.81149,3.80453 -1.06258,6.56555c-3.87407,2.76103 -6.68553,-1.0435 -6.68553,-1.0435c-5.59454,-7.58877 -10.69592,-15.94668 -11.06178,-25.32089l1.20639,-3.69791c0,0 1.96874,-4.28481 6.33185,-2.35141c4.36314,1.9334 2.39439,6.21821 2.39439,6.21821z" data-paper-data="{&quot;index&quot;:null}" fill="#bf0000"/><path d="M314.28114,137.40177l1.90335,-0.55677c6.73345,-4.44356 12.24977,-11.53517 6.96825,-19.41374c-1.10661,-1.65072 -2.89849,-2.77702 -4.04615,-4.40046c-3.35765,-4.74956 -2.81969,-6.67087 -8.92204,-7.3183c-1.04893,0.01072 -2.34789,-0.26336 -3.35283,-1.40093c-0.66513,-0.61717 -1.20458,-1.50505 -1.28214,-2.77515c-0.21127,-1.25536 0.11413,-2.23863 0.62327,-2.98534c0.2535,-0.46578 0.56627,-0.83585 0.90975,-1.12952c2.24077,-5.50677 -0.25826,-7.44558 -3.63843,-12.56651c-2.67651,-4.05489 -6.29411,-11.00417 -12.14124,-11.95316c-4.69715,-0.76237 -11.20359,4.49195 -15.60686,7.08691l0.30494,0.78619c0,0 1.69309,4.39694 -2.78422,6.05965c-4.47731,1.66271 -6.17039,-2.73424 -6.17039,-2.73424l-1.76288,-4.6169c-2.33331,-4.51567 -8.2175,-7.63181 -13.70553,-7.46464c-3.11031,0.09473 -5.73591,2.37624 -8.6511,3.4452c-7.20345,2.64136 -13.87095,7.66665 -20.1401,12.16742l-0.00286,2.97084c0,0 -1.07482,4.58078 -5.73932,3.52523c-4.20455,-0.95145 -3.74581,-4.76723 -3.61449,-5.51047c-6.41919,-11.15249 -21.45855,-10.64237 -30.76199,-2.41522c-1.17699,1.04083 -5.64531,4.84369 -6.27707,6.32165c-0.7077,1.65563 -0.04723,3.66987 -0.71747,5.34044c-0.55933,1.39413 -1.57593,2.55064 -2.5267,3.74135c1.30827,1.6196 2.48183,3.31375 3.58562,4.75772c0,0 2.85794,3.77096 -0.98195,6.57764c-3.83992,2.80665 -6.69786,-0.96433 -6.69786,-0.96433c-0.19217,-0.25617 -4.49817,-6.50127 -6.03316,-7.1625c-2.39827,-1.03312 -5.20716,0.65636 -7.74733,1.282c-10.30074,2.53715 -16.78302,6.29112 -23.00855,14.8038c-1.26028,1.72327 -4.24465,5.33021 -4.59835,7.54188c-0.53299,3.33258 0.78529,6.70886 0.92395,10.07954l0.68734,3.85342c0,0 0.78213,4.63765 -3.94024,5.40575c-4.7224,0.7681 -5.50453,-3.86954 -5.50453,-3.86954l-0.80845,-5.01574c-0.15828,-3.97015 -1.55134,-7.9849 -0.81874,-11.89239c0.88236,-4.70606 3.61175,-7.91188 6.27443,-11.57526c7.45164,-10.25211 16.09872,-15.49071 28.48372,-18.45542c3.29352,-0.7884 8.71377,-2.15738 12.46767,-1.25522c0.97405,-2.16934 1.13117,-4.76949 2.17867,-6.93644c1.12564,-2.32861 3.08689,-4.1804 4.83129,-6.10644c12.38762,-13.6774 33.67053,-16.28384 45.72589,-3.36951c11.36385,-8.1614 25.38998,-18.39784 39.58005,-15.22034c4.47007,1.00095 8.67886,1.61558 12.28915,4.97262c0.73182,0.68047 1.29353,1.49483 1.78609,2.36362c6.26301,-3.38889 13.42491,-8.96027 20.81751,-7.82779c8.92128,1.36666 14.52967,9.63397 18.82598,16.13022c2.14452,3.24263 5.12748,6.27536 5.85196,10.07584c0.75175,3.94353 0.77533,5.69654 0.1994,7.51612c0.12761,0.05299 0.25378,0.11028 0.37835,0.17226c4.14369,2.06178 6.51776,6.56091 9.16432,10.3099c5.04668,7.14891 10.47687,13.79571 6.7575,23.26299c-2.24287,5.70895 -7.32715,10.12885 -12.17531,13.51019l-3.97405,1.62586c0,0 -4.47731,1.66271 -6.17039,-2.73424c-1.69309,-4.39694 2.78422,-6.05965 2.78422,-6.05965z" data-paper-data="{&quot;index&quot;:null}" fill="#bf0000"/><path d="M290.28683,223.26747l-0.24298,5.71366c-2.66685,7.49038 -6.11848,16.71135 -14.15833,20.22761c-1.27271,0.55665 -2.65015,0.77202 -4.04405,0.93369l-0.64724,1.85673c-1.26438,1.96186 -2.06675,4.31483 -3.79311,5.88554c-3.56086,3.23978 -11.38387,4.91526 -15.9471,6.29005c-2.2817,0.68741 -4.55757,2.2789 -6.9032,1.85851c-2.72097,-0.48766 -4.70288,-2.90668 -7.05432,-4.36001c0,0 -3.78578,-2.67768 -1.10811,-6.46348c2.67768,-3.7858 6.46349,-1.10811 6.46349,-1.10811c0.99873,0.91623 1.67727,2.43653 2.99614,2.74865c0.95115,0.22511 1.65722,-1.05374 2.55747,-1.43432c6.03443,-2.55089 11.6612,-2.21506 14.83958,-8.19389l0.07022,-0.26521c-0.01524,-0.0768 -0.02935,-0.15521 -0.04229,-0.23522c-0.73998,-4.57764 3.83764,-5.31762 3.83764,-5.31762c8.46259,-1.07202 10.94999,-6.62414 13.82864,-14.18821l0.07823,-4.24728c0,0 0.14945,-4.63465 4.7841,-4.4852c4.63465,0.14945 4.4852,4.78408 4.4852,4.78408z" data-paper-data="{&quot;index&quot;:null}" fill="#bf0000"/><path d="M274.95298,114.41033l5.09898,-4.09798c2.27901,-0.52429 4.50641,-1.76548 6.83699,-1.57294c2.22476,0.18381 4.12832,1.70397 6.15212,2.64614c7.12554,3.31734 15.5568,7.55744 17.6296,16.17052c0.29386,1.22109 0.10357,2.47792 -0.13723,3.73844c0.10952,0.02614 0.21924,0.05454 0.32917,0.08525c10.67447,2.98117 10.47095,15.81277 10.21881,24.72637c0,0 -0.0251,0.77813 -0.37355,1.6864c4.96083,8.3213 0.90185,17.8523 -2.91687,25.79094c0,0 -2.01888,4.1745 -6.19339,2.15563c-4.1745,-2.01888 -2.15563,-6.19339 -2.15563,-6.19339c2.18757,-4.49617 7.04374,-12.60859 2.92142,-17.5847c-0.50947,-0.61498 -3.11523,-2.24454 -4.93958,-3.34945c-1.33377,0.20977 -3.99271,0.17736 -5.11202,-3.03859c-1.52426,-4.37938 2.85511,-5.90362 2.85511,-5.90362l5.30002,-0.04392c0.34895,0.21474 0.747,0.45399 1.17842,0.71317c-0.13678,-1.53133 -0.33802,-3.05804 -0.57517,-4.5731c-0.27904,-1.7826 0.50029,-5.09411 -2.24043,-5.33718c-1.88921,-0.16755 -4.74379,1.47132 -6.14804,2.10715l0.34988,0.13196c0,0 -3.23537,3.32186 -6.55722,0.08649c-3.32186,-3.23537 -0.08647,-6.55721 -0.08647,-6.55721l2.58251,-2.16037c0.62958,-0.2675 1.26876,-0.5574 1.91744,-0.84782c-0.00167,-0.33132 0.02509,-0.53795 0.02509,-0.53795c1.72759,-8.31997 -11.46893,-15.90546 -18.40184,-13.39613l-1.15842,1.86805c0,0 -3.35611,3.19984 -6.55592,-0.15628c-3.19984,-3.35611 0.15628,-6.55592 0.15628,-6.55592z" data-paper-data="{&quot;index&quot;:null}" fill="#bf0000"/><path d="M240.04294,110.68697l-4.34253,-0.43231c-3.16582,-1.76402 -6.80568,-3.84719 -9.75719,0.31972c-1.52848,2.1579 -1.25054,5.51296 -3.2594,7.23264c-1.98008,1.69503 -4.96372,1.72555 -7.55313,2.02333c-1.01437,0.11665 -2.12839,-1.41761 -2.95273,-0.81513c-0.9022,0.65939 -1.41768,7.03232 -1.50148,7.76457c0,0 -0.59518,4.5987 -5.19386,4.00352c-4.59872,-0.59518 -4.00352,-5.19386 -4.00352,-5.19386c0.75518,-5.37793 0.78721,-10.50222 5.89854,-14.50932c1.84302,-1.44486 4.66859,-0.39127 7.00818,-0.49392c0.79237,-0.03476 1.90445,0.71831 2.37796,0.08205c1.25119,-1.68126 0.66586,-4.34316 1.9975,-5.96145c6.30617,-7.66357 13.37976,-6.15096 20.97689,-2.80114l0.18246,-0.492c0,0 4.63666,-0.06115 4.6978,4.57549c0.06115,4.63666 -4.57548,4.6978 -4.57548,4.6978z" data-paper-data="{&quot;index&quot;:null}" fill="#bf0000"/><path d="M199.38889,228.82764l-0.5582,1.78235c2.12006,5.86859 5.96308,4.94291 9.64499,2.32332l2.42502,-4.16524c1.19678,-2.10283 3.83655,-2.94566 6.04681,-1.87672c1.27775,0.61794 2.14381,1.74514 2.47221,3.01976l0.96953,3.67164c1.69797,2.06721 2.34849,0.0095 4.06503,-2.20026c0,0 3.13326,-3.41832 6.55159,-0.28504c3.41832,3.13326 0.28504,6.55159 0.28504,6.55159c-4.11173,4.11547 -5.93482,8.03103 -13.24437,5.65967c-1.46221,-0.47437 -2.55056,-1.59289 -3.58761,-2.79978c-3.22804,3.36256 -10.83835,4.49077 -14.9066,3.3609c-6.75135,-1.87508 -6.70772,-4.30484 -9.22079,-9.54846l-0.20714,-5.91609c0,0 0.21121,-4.63224 4.84347,-4.42101c4.63225,0.21121 4.42101,4.84347 4.42101,4.84347z" data-paper-data="{&quot;index&quot;:null}" fill="#bf0000"/><path d="M171.09063,247.80619l-3.699,-0.36655c-2.43366,-0.80396 -5.23456,-0.89558 -7.30094,-2.41187c-7.6736,-5.63078 -6.35224,-16.9078 -4.32027,-24.87927c-0.17872,-0.24228 -0.34514,-0.49733 -0.498,-0.76607c-1.8628,-3.27501 -1.12082,-16.24726 1.44661,-20.99933c0.03868,-0.25545 0.07738,-0.5109 0.11607,-0.76636l0.50379,-0.17066c0.11489,-0.13712 0.23262,-0.25856 0.35323,-0.36317c0.27944,-0.24237 0.58002,-0.28354 0.89416,-0.19556l-0.53038,-0.68806l4.40065,-3.3921c1.35224,-1.0883 3.26289,-1.36913 4.92935,-0.5632c2.30551,1.11499 3.27063,3.88786 2.15563,6.19339c-0.30759,0.63602 -0.74135,1.17 -1.25665,1.58648l-2.55349,2.16001c-0.30721,0.99949 -0.58065,1.99885 -0.82275,3.03144c-0.00328,0.33959 -0.00658,0.67917 -0.00986,1.01877c0,0 -0.08738,0.8564 -0.55585,1.79358c-0.18751,1.1072 -0.3463,2.27585 -0.47871,3.53846c-0.11388,1.08605 -0.93955,2.2209 -0.52941,3.23294c0.83797,2.06772 4.29347,1.21857 6.45974,1.75248l0.01022,-0.35402c0,0 4.59326,-0.63578 5.22905,3.95747c0.63578,4.59326 -3.95747,5.22905 -3.95747,5.22905l-3.60378,0.14622c-1.01946,-0.27315 -2.14694,-0.53094 -3.3017,-0.83117c-0.99746,4.33277 -1.93692,10.99729 1.31923,12.78843c1.35313,0.74434 3.00785,0.70195 4.51178,1.05296l1.73698,0.01431c0,0 4.62573,0.32411 4.30162,4.94982c-0.3241,4.62572 -4.94982,4.30162 -4.94982,4.30162z" data-paper-data="{&quot;index&quot;:null}" fill="#bf0000"/><path d="M184.1967,134.24171l-0.03009,-0.04013c-0.48036,-0.60134 -0.67257,-1.76266 -1.44112,-1.80397c-0.60132,-0.03233 0.50381,1.15104 0.44656,1.75052c-0.18513,1.93877 -0.58939,3.86438 -1.1605,5.72637c-0.8258,2.69235 -0.93817,5.99115 -3.01639,7.89159c-1.85426,1.69562 -4.86169,1.39411 -7.36568,1.60236c-0.90198,0.075 -1.83763,-1.25674 -2.60283,-0.77332c-0.61554,0.38885 0.54323,1.4186 0.44042,2.13942c-0.27047,1.8964 -1.02358,3.69188 -1.53534,5.53782c0,0 -1.23954,4.4683 -5.70788,3.22875c-4.4683,-1.23954 -3.22875,-5.70788 -3.22875,-5.70788c0.51443,-1.85328 3.01635,-11.45967 4.07245,-12.30433c2.06091,-1.64828 5.16804,-1.15338 7.79868,-1.36311c0.73117,-0.0583 1.64193,1.1241 2.12487,0.57201c0.66063,-0.75523 -0.13799,-2.01743 0.00786,-3.01016c0.55846,-3.80112 2.0816,-12.06501 6.2455,-13.88607c2.52981,-1.10638 5.40607,1.1271 8.10911,1.6907l0.88088,0.40045c0,0 4.1745,2.01888 2.15563,6.19339c-2.01888,4.1745 -6.19339,2.15563 -6.19339,2.15563z" data-paper-data="{&quot;index&quot;:null}" fill="#bf0000"/><g><path d="M100.71757,208.09966c0.43028,0.53238 0.73235,1.27987 0.73235,2.32946c0,3.64682 -3.64682,3.64682 -3.64682,3.64682c-7.09012,-0.16646 -11.62009,3.59313 -16.46469,7.9143c-5.53802,4.93967 -13.77059,9.34666 -21.16704,9.82474c-3.2362,0.20919 -9.37618,0.30149 -11.84809,-2.42589c-3.94242,-4.34986 -1.75337,-14.03004 2.43718,-17.2191c3.34518,-2.54572 10.57138,-2.69229 14.50188,-3.56376c4.62423,-0.50025 8.7329,-2.05195 13.35308,-2.40631c5.98822,-0.45927 11.98356,-0.60071 18.00462,-0.60071h0.59153c0,0 2.83563,0 3.50601,2.50043z" fill="#bf0000"/><path d="M100.96829,207.19136c0,3.64682 -3.64682,3.64682 -3.64682,3.64682h-4.01976c-5.44466,0 -11.86414,-0.92816 -17.21495,-0.05853c-3.81002,0.61923 -7.73152,2.03702 -11.63802,2.68435c-2.39699,0.39721 -7.11889,0.15916 -8.89849,2.64748c-1.27412,1.78151 -1.38903,4.15544 -2.15809,6.20622c0,0 -1.28047,3.41463 -4.69511,2.13415c-3.41462,-1.28049 -2.13415,-4.69512 -2.13415,-4.69512c0.39221,-1.04585 2.79832,-7.57977 3.20161,-8.08628c3.46597,-4.35297 8.53594,-4.57135 13.43356,-5.39208c3.87723,-0.64971 7.7938,-2.0908 11.58732,-2.67534c5.83967,-0.89984 12.59076,-0.05853 18.51632,-0.05853h4.01976c0,0 3.64682,0 3.64682,3.64682z" fill="#d80000"/></g><g data-paper-data="{&quot;index&quot;:null}"><path d="M380.6951,214.11871l0.75923,0.12601c7.72779,1.28257 15.43769,2.68262 23.17237,4.35746c5.96766,1.2922 11.40672,3.51632 17.39517,4.93622c5.13773,1.59483 14.42794,3.26154 18.99327,6.18714c5.71903,3.66492 9.56261,12.54626 4.96732,15.48785c-2.88125,1.84438 -10.77152,0.45624 -14.9474,-0.41497c-9.5441,-1.99115 -20.58101,-7.57587 -28.2165,-13.04963c-6.67944,-4.78841 -12.89505,-9.02159 -21.97716,-10.38719c0,0 -4.68055,-0.77683 -5.07009,-3.94704c-0.11212,-0.91241 0.19573,-1.49788 0.69112,-1.86902c0.59333,-2.03084 4.23274,-1.42682 4.23274,-1.42682z" fill="#bf0000"/><path d="M380.33456,212.30914l5.1592,0.85627c7.60522,1.26224 16.18011,1.96895 23.77122,3.99513c4.93127,1.31622 10.11195,3.40324 15.15763,4.79397c6.37357,1.75672 12.90397,3.02653 17.8174,7.54891c0.57172,0.52622 4.35781,6.71875 4.9729,7.71146c0,0 2.00819,3.24114 -2.23757,3.62691c-4.24576,0.38577 -6.25393,-2.85536 -6.25393,-2.85536c-1.20611,-1.94658 -1.60719,-4.03474 -3.43275,-5.85483c-2.54981,-2.54219 -8.58476,-3.34107 -11.70365,-4.19697c-5.08299,-1.39488 -10.26751,-3.4627 -15.22366,-4.81259c-6.96047,-1.89578 -15.10045,-2.45637 -22.08846,-3.61616l-5.1592,-0.85627c0,0 -4.68055,-0.77683 -5.07009,-3.94704c-0.38954,-3.17021 4.291,-2.39338 4.291,-2.39338z" fill="#d80000"/></g><g data-paper-data="{&quot;index&quot;:null}"><path d="M311.20481,65.24696l0.30257,-0.50509c3.0798,-5.14111 6.24338,-10.21251 9.62108,-15.17052c2.60607,-3.82533 5.77098,-6.8096 8.47908,-10.58913c2.60764,-3.06183 6.40431,-9.18248 9.85983,-11.17925c4.32876,-2.50135 12.08178,-1.10211 13.04593,3.73282c0.60452,3.03151 -2.59935,8.24299 -4.39804,10.93561c-4.11091,6.15406 -11.3418,11.69552 -17.55939,14.75637c-5.43911,2.6776 -10.33244,5.27617 -13.845,11.38632c0,0 -1.86538,3.11385 -4.36433,1.88255c-0.71921,-0.35438 -1.07693,-0.86469 -1.22164,-1.41185c-1.37051,-1.41665 0.07994,-3.83786 0.07994,-3.83786z" fill="#bf0000"/><path d="M309.74064,64.64707l2.05614,-3.4323c3.03096,-5.05957 5.90765,-11.10808 9.51128,-15.79049c2.34097,-3.04176 5.33179,-5.89936 7.76023,-8.99058c3.06755,-3.90476 5.8105,-8.16003 10.56622,-9.64974c0.55337,-0.17334 6.26144,-0.02172 7.17871,-0.00349c0,0 2.99483,0.05956 2.12569,3.40749c-0.86915,3.34794 -3.86399,3.28839 -3.86399,3.28839c-1.79866,-0.03576 -3.48417,-0.73915 -5.35665,-0.25277c-2.61537,0.67936 -4.86751,4.79156 -6.36578,6.70413c-2.44178,3.11701 -5.41917,5.98672 -7.79234,9.03085c-3.33289,4.27521 -5.98047,10.06989 -8.76544,14.71884l-2.05614,3.43229c0,0 -1.86536,3.11386 -4.36433,1.88256c-2.49896,-1.2313 -0.6336,-4.34517 -0.6336,-4.34517z" fill="#d80000"/></g><g data-paper-data="{&quot;index&quot;:null}"><path d="M335.16314,76.03503l0.26862,-0.28554c2.73414,-2.90644 5.53703,-5.67946 8.51736,-8.17701c2.29946,-1.92696 5.04735,-2.58233 7.4316,-4.3864c2.28026,-1.15149 5.645,-4.51427 8.61129,-3.95039c3.71591,0.70638 10.21316,7.93398 10.89583,13.55968c0.42804,3.52731 -2.41259,6.41217 -4.00108,7.79532c-3.6305,3.16123 -9.87429,3.36368 -15.1973,1.8096c-4.65652,-1.35951 -8.85089,-2.39028 -11.97588,1.17468c0,0 -1.65602,1.76036 -3.72925,-1.36058c-0.59669,-0.89822 -0.88447,-1.68376 -0.99175,-2.34706c-1.11708,-2.46349 0.17057,-3.83227 0.17057,-3.83227z" fill="#bf0000"/><path d="M333.94514,74.32967l1.82537,-1.9404c2.69079,-2.86036 5.27813,-6.83919 8.44147,-8.88802c2.05494,-1.33095 4.65271,-1.98825 6.78271,-3.30382c2.69058,-1.66179 5.11697,-3.92225 9.16555,-1.87003c0.47109,0.23879 5.27825,4.66905 6.05091,5.37477c0,0 2.52269,2.30413 1.70007,5.04827c-0.82262,2.74413 -3.3453,0.44 -3.3453,0.44c-1.51511,-1.38384 -2.91687,-3.35996 -4.50825,-4.26956c-2.22271,-1.27046 -4.23158,1.21259 -5.54587,2.02972c-2.14196,1.33171 -4.7287,2.01135 -6.81087,3.32058c-2.92419,1.83869 -5.3116,5.73177 -7.784,8.35999l-1.82537,1.9404c0,0 -1.65601,1.76038 -3.72925,-1.36057c-2.07323,-3.12096 -0.41721,-4.88133 -0.41721,-4.88133z" fill="#d80000"/></g><g data-paper-data="{&quot;index&quot;:null}"><path d="M99.07618,251.58129c0.56883,0.35765 1.17972,0.92923 1.77381,1.82918c2.0642,3.12694 -0.20289,3.96451 -0.20289,3.96451c-4.50191,1.48567 -5.19003,5.74968 -5.75584,10.5675c-0.64682,5.50738 -3.27024,11.17691 -7.59774,13.28558c-1.89345,0.92261 -5.65822,2.41195 -8.73868,0.64112c-4.91303,-2.82429 -9.0314,-11.62722 -8.23139,-15.3241c0.63863,-2.95109 5.04796,-4.73642 6.99814,-6.38637c2.59158,-1.49097 4.26748,-3.76512 6.93913,-5.13007c3.4627,-1.76912 7.10976,-3.26735 10.85284,-4.65021l0.36775,-0.13585c0,0 1.76281,-0.65127 3.59488,1.33873z" fill="#bf0000"/><path d="M98.71793,250.74491c2.0642,3.12694 -0.2029,3.96451 -0.2029,3.96451l-2.49895,0.92321c-3.38476,1.25048 -7.90088,1.92901 -10.73509,3.9036c-2.01807,1.40599 -3.65344,3.5223 -5.71557,4.97457c-1.2653,0.89111 -4.33549,1.77148 -4.03334,4.31377c0.21633,1.82017 1.48858,3.88208 2.17129,5.81712c0,0 1.13675,3.22192 -1.71081,2.90822c-2.84756,-0.3137 -3.9843,-3.53564 -3.9843,-3.53564c-0.34817,-0.98683 -2.55075,-7.14189 -2.58672,-7.6688c-0.30923,-4.52847 2.71899,-5.88012 5.29913,-7.70867c2.04258,-1.44758 3.66168,-3.58274 5.68913,-4.9552c3.12101,-2.11275 7.79413,-2.94189 11.47786,-4.30283l2.49895,-0.92323c0,0 2.26712,-0.83756 4.33132,2.28937z" fill="#d80000"/></g><g data-paper-data="{&quot;index&quot;:null}"><path d="M109.56573,125.59816c0.15336,0.42067 0.15435,0.94012 -0.14517,1.56953c-1.0407,2.18696 -3.628,1.32749 -3.628,1.32749c-4.98273,-1.77079 -9.26947,-0.58383 -13.93972,0.86577c-5.3387,1.65708 -12.4371,2.35968 -17.82107,0.90322c-2.35568,-0.63726 -6.73816,-2.02894 -7.7136,-4.24707c-1.55571,-3.53769 2.75979,-8.82685 6.64292,-9.75167c3.09977,-0.73826 8.26838,0.87688 11.30564,1.28059c3.4235,0.78983 6.78129,0.8276 10.1603,1.70397c4.37953,1.13586 8.67339,2.464 12.94517,3.88301l0.41968,0.13941c0,0 2.01179,0.66829 1.77385,2.32576z" fill="#bf0000"/><path d="M110.00281,125.11255c-1.0407,2.18696 -3.628,1.32749 -3.628,1.32749l-2.85191,-0.94735c-3.86283,-1.28317 -8.15238,-3.35268 -12.1968,-4.09224c-2.8798,-0.52658 -6.06657,-0.60057 -9.02287,-1.13302c-1.81394,-0.32671 -5.09607,-1.5823 -7.06872,-0.50951c-1.41235,0.76807 -2.17131,2.16461 -3.30217,3.21319c0,0 -1.8829,1.74593 -3.94006,0.1733c-2.05717,-1.57264 -0.17426,-3.31856 -0.17426,-3.31856c0.57671,-0.53476 4.14836,-3.886 4.57903,-4.0947c3.70122,-1.79358 7.36052,-0.72967 11.06944,-0.06758c2.93619,0.52414 6.12613,0.58298 8.98432,1.12647c4.39986,0.83665 8.94948,2.93225 13.15347,4.32876l2.85191,0.94735c0,0 2.58732,0.85947 1.54662,3.04641z" fill="#d80000"/></g></g><g data-paper-data="{&quot;index&quot;:null}" stroke="none" stroke-width="0.5"><path d="M339.31488,273.41911c0.05815,0.15951 0.05853,0.35647 -0.05505,0.59513c-0.39461,0.82925 -1.37566,0.50336 -1.37566,0.50336c-1.88935,-0.67145 -3.51479,-0.22138 -5.28565,0.32828c-2.02432,0.62833 -4.71589,0.89474 -6.75738,0.34248c-0.89322,-0.24164 -2.55497,-0.76933 -2.92484,-1.6104c-0.58989,-1.34142 1.04645,-3.34696 2.51886,-3.69763c1.17537,-0.27993 3.1352,0.33249 4.28686,0.48557c1.29812,0.29949 2.57132,0.31381 3.85257,0.64611c1.66063,0.43069 3.28877,0.9343 4.90854,1.47236l0.15913,0.05286c0,0 0.76283,0.2534 0.67261,0.88188z" fill="#bf0000"/><path d="M339.48061,273.23498c-0.39461,0.82925 -1.37566,0.50336 -1.37566,0.50336l-1.08138,-0.35922c-1.4647,-0.48655 -3.09121,-1.27127 -4.62477,-1.55169c-1.09196,-0.19967 -2.30032,-0.22772 -3.42128,-0.42962c-0.68781,-0.12388 -1.93232,-0.59998 -2.68031,-0.1932c-0.53553,0.29124 -0.82332,0.82077 -1.25211,1.21837c0,0 -0.71396,0.66202 -1.49399,0.06571c-0.78004,-0.59631 -0.06608,-1.25833 -0.06608,-1.25833c0.21868,-0.20277 1.57297,-1.47349 1.73627,-1.55262c1.40343,-0.68009 2.79096,-0.27668 4.1973,-0.02562c1.11334,0.19874 2.3229,0.22105 3.40667,0.42713c1.66834,0.31724 3.39346,1.11185 4.98752,1.64138l1.08138,0.35922c0,0 0.98106,0.32589 0.58645,1.15514z" fill="#d80000"/></g><g><path d="M142.10542,124.66464c1.14558,-0.06818 2.24661,-0.03884 3.264,0.0735c-2.05395,1.26802 -3.99931,3.12218 -6.14192,3.57626c-1.79009,0.37939 -3.81285,0.57166 -5.85469,0.63471c0.10511,-2.10255 3.9281,-3.99854 8.73261,-4.28448z" fill="#f5bc38" stroke="none" stroke-width="NaN"/><path d="M141.18361,124.71949l4.69133,-0.27919c-1.54154,0.86159 -3.00928,2.13672 -4.52884,3.00947z" fill="#f5bc38" stroke="none" stroke-width="0"/><path d="M140.15741,113.17048c0.43307,-0.81184 1.55533,-4.87785 2.64578,-5.79224c2.34429,-1.96585 6.202,-1.81383 9.05988,-2.46711c-0.52986,2.40246 -0.78476,4.82641 -0.64403,7.40158c0.02712,0.49631 0.20514,3.96115 0.3709,4.31033c0.17239,0.36313 2.16465,2.06601 2.66507,2.50333c0.33309,0.44817 1.20992,1.03381 0.83814,1.45044c-0.53587,0.60052 -2.15432,0.71001 -2.76602,0.90562c-1.87,0.598 -3.26624,1.69219 -5.11377,2.34103c-2.77316,0.97393 -5.21455,3.90361 -7.98588,4.49094c-1.81022,0.38364 -3.85838,0.57595 -5.92359,0.63678c1.39167,-5.49599 4.1341,-10.68284 6.85351,-15.78073z" fill="#db4747" stroke="#000000" stroke-width="0"/><path d="M136.3058,120.9188c0.99138,-0.85796 1.38813,-4.85749 2.05973,-6.36319c3.00924,-6.74662 6.70896,-10.20265 13.858,-11.12401c-0.51372,1.93241 -0.86511,3.86147 -0.99116,5.85497c-2.06169,0.56628 -3.86981,1.54669 -5.45217,3.39559c-2.04115,2.38497 -4.90715,10.26072 -6.77425,15.67803c-2.04836,0.41234 -4.38383,0.58778 -6.6963,0.61039c1.63429,-3.44131 3.72924,-7.82082 3.99614,-8.05179z" fill="#bd2222" stroke="none" stroke-width="0.5"/><path d="M145.92965,111.67487c0,0 -0.6302,0.17234 -0.80256,-0.45787c-0.17234,-0.6302 0.45787,-0.80256 0.45787,-0.80256c0.49776,-0.13488 0.99227,-0.26967 1.4843,-0.40354c-0.1878,-0.43644 0.22547,-0.74894 0.22547,-0.74894c1.21914,-0.91647 2.62241,-1.45537 4.11417,-1.78425c-0.05844,0.44455 -0.10628,0.89137 -0.14279,1.34122c-0.41303,0.10894 -0.81604,0.23779 -1.20613,0.39075c0.40023,-0.1043 0.7999,-0.20677 1.19946,-0.30691c-0.03488,0.44746 -0.05851,0.89798 -0.0702,1.35232c-1.73645,0.44196 -3.47698,0.92823 -5.25961,1.41979z" fill="#bd2222" stroke="none" stroke-width="0.5"/><path d="M137.72323,108.1876c1.71375,-2.2537 2.98287,-3.2723 5.18473,-3.36881c0.50712,-0.02221 1.12561,-0.24926 1.55244,-0.03916c0.19768,0.09734 0.32896,0.23393 0.40378,0.40285c0.18226,-0.33163 0.38759,-0.60641 0.63002,-0.71306c1.85289,-0.81506 0.50928,1.89784 -0.13831,2.87527c-3.62797,5.47584 -4.55542,6.55535 -7.01168,10.16793c-0.4534,0.66686 -1.02904,1.22106 -1.28624,1.94579c-0.11033,0.31093 -0.6642,1.70651 -1.06646,1.93204c-0.2577,0.33721 -0.5779,0.50553 -0.88727,0.20742c-0.02368,-0.0086 -0.04645,-0.01926 -0.06816,-0.03208c-0.08918,-0.0526 -0.15166,-0.13576 -0.1879,-0.23995c-0.87315,-1.18327 -1.32832,-2.79568 -1.76944,-4.3864c-0.06549,-0.23618 -0.6108,-1.11766 -0.55946,-1.55721c0.11043,-0.94565 0.94141,-2.03644 1.40943,-2.94945c0.41644,-0.81244 1.44718,-2.953 2.31705,-3.39983c0.3672,-0.18861 0.69455,-0.20427 0.88805,-0.06962c0.20693,-0.27433 0.40586,-0.53438 0.5894,-0.77574z" fill="#ff6e3b" stroke="#000000" stroke-width="0"/></g><g><path d="M316.59301,108.75165c0.03869,0.62065 0.14601,1.25737 0.25202,1.89984c-3.24359,-1.8572 -7.73878,-2.3765 -9.81123,-5.47963c-2.63953,-3.95226 1.50273,-6.99102 0.71758,-10.58673c5.69759,3.19646 8.37999,6.76069 8.84163,14.16653z" fill="#db4747" stroke="#000000" stroke-width="0"/><path d="M311.15798,98.47983c-0.26397,-0.59749 -2.78147,-1.452 -3.45593,-1.68719c0.21297,-0.94885 0.23685,-1.91672 -0.17699,-2.93481c-0.31009,-0.76286 -1.01536,-1.30338 -1.60597,-1.87722c-0.26192,-0.25448 -0.91031,-0.21907 -0.92703,-0.58387c-0.01984,-0.43281 0.64766,-0.5984 0.85542,-0.97859c0.19138,-0.35018 0.35651,-0.7138 0.51382,-1.08138c1.21616,0.6572 2.28266,1.30446 2.99692,1.71875c2.53672,1.47134 6.27081,2.46712 7.92965,5.04042c0.77106,1.19613 0.64,5.41211 0.81346,6.31574c0.62415,3.2514 1.24689,6.53294 1.60906,9.80772c-0.48405,-0.23395 -0.99501,-0.47443 -1.5706,-0.6852c-1.42954,-1.17635 -3.31653,-1.86391 -5.17944,-2.57666c-0.05273,-3.62377 -0.36192,-7.21744 -1.80238,-10.4777z" data-paper-data="{&quot;index&quot;:null}" fill="#bd2222" stroke="#000000" stroke-width="0"/><path d="M313.22854,100.14844c-1.18318,-2.74105 -3.07769,-4.33403 -5.48432,-5.59554c-0.0519,-0.22928 -0.12393,-0.46085 -0.21914,-0.69507c-0.31009,-0.76286 -1.01536,-1.30338 -1.60597,-1.87722c-0.26192,-0.25448 -0.91031,-0.21907 -0.92703,-0.58387c-0.01984,-0.43281 0.64766,-0.5984 0.85542,-0.97859c0.31551,-0.57733 0.5597,-1.19119 0.81511,-1.79906c1.8205,0.6793 3.64293,1.35341 5.46733,2.02208c0.06216,0.03331 0.12413,0.06606 0.18591,0.09821c4.71766,2.93989 6.68479,7.07667 7.44106,13.39249c0.19601,1.637 -0.60838,5.57484 0.08474,6.68772c0.06294,0.10104 0.18487,0.71435 0.33967,1.62753c-0.62539,-0.30005 -1.27631,-0.63276 -2.04149,-0.91294c-0.98131,-0.8075 -2.17817,-1.38469 -3.43484,-1.8978c-0.27505,-3.97216 -0.72182,-7.73978 -1.47642,-9.48795z" data-paper-data="{&quot;index&quot;:null}" fill="#bd2222" stroke="none" stroke-width="0.5"/><path d="M315.71273,101.09718c-0.47922,0.44406 -0.92332,-0.03516 -0.92332,-0.03516l-0.17891,-0.1964c-2.18871,-2.01002 -4.45991,-3.4874 -6.76396,-5.09803c0.02973,-0.62136 -0.05539,-1.25517 -0.32148,-1.90974c-0.14139,-0.34783 -0.36492,-0.64943 -0.62229,-0.92905c3.10001,1.40428 6.17324,2.91687 9.14413,4.38292l0.07421,0.02444c0,0 0.61151,0.23004 0.38146,0.84155c-0.23005,0.61151 -0.84156,0.38146 -0.84156,0.38146l-0.1936,-0.0763c-0.28868,-0.14326 -0.57842,-0.28692 -0.86912,-0.43082c0.05057,0.16257 0.04325,0.37089 -0.1498,0.59162c-0.07007,0.08013 -0.1418,0.13577 -0.21276,0.17281c0.42154,0.34663 0.84042,0.70675 1.25621,1.08445l0.25598,0.27292c0,0 0.44406,0.47924 -0.03517,0.92331z" fill="#bd2222" stroke="none" stroke-width="0.5"/><path d="M321.77182,97.76628c0.10389,0.28485 0.217,0.59214 0.33349,0.91542c0.22468,-0.07135 0.53273,0.04045 0.82769,0.32926c0.69872,0.68419 1.04995,3.03388 1.20735,3.93316c0.17692,1.01061 0.64795,2.29844 0.47362,3.23442c-0.081,0.43507 -0.86273,1.11573 -0.99517,1.32195c-0.89203,1.38897 -1.80389,2.79451 -2.98807,3.66645c-0.06543,0.0888 -0.14972,0.14975 -0.25048,0.17362c-0.02452,0.00582 -0.04945,0.00927 -0.0746,0.01048c-0.38373,0.19323 -0.63978,-0.06229 -0.78617,-0.46066c-0.31753,-0.33444 -0.43365,-1.83143 -0.44704,-2.16107c-0.03125,-0.76839 -0.41714,-1.46809 -0.65293,-2.23926c-1.27737,-4.17757 -1.84388,-5.48317 -3.68921,-11.78728c-0.32939,-1.12528 -0.81013,-4.11426 0.71863,-2.78745c0.20003,0.1736 0.31486,0.49684 0.39083,0.86754c0.12146,-0.13918 0.28726,-0.23084 0.5049,-0.26533c0.46988,-0.07441 0.99353,0.32549 1.47137,0.49675c2.07472,0.74368 2.98561,2.09219 3.95579,4.75205z" fill="#ff3b3b" stroke="#000000" stroke-width="0"/></g><g><path d="M291.63057,170.83043c0.72293,-0.21933 1.23286,-0.87351 1.84929,-1.31027c0.61489,-0.73519 0.89524,-1.84836 1.75044,-2.28108c1.66509,-0.84252 4.70344,-0.01819 6.4335,0.06146c0.01964,0.0009 0.0392,0.00179 0.05869,0.00269c1.35157,1.97906 2.19705,4.31835 2.43289,6.5524c-0.20747,1.13679 -0.72272,2.03271 -1.15752,3.01946c-1.3123,1.17813 -0.26351,2.14703 -1.15966,3.46322c-0.49031,0.72013 -4.92936,0.6228 -5.28306,0.7126c-2.08693,0.52987 -4.37715,2.50305 -5.45383,4.30667c-0.10315,0.17279 -0.19832,0.34697 -0.28607,0.52247c-0.08794,0.05022 -0.17397,0.10411 -0.25799,0.16186c-1.00665,0.69196 -1.0086,2.23828 -1.6929,3.25015c-1.10842,1.63903 -5.55258,0.11966 -6.84491,-0.46999c-6.04648,-3.71622 0.2625,-9.77185 1.34245,-14.15384c0.26116,-1.05969 -0.27443,-5.21703 1.01819,-5.8306c0.7704,-0.36568 1.70046,-0.2731 2.5824,-0.29579c0.73933,1.81639 1.75914,3.17112 4.66811,2.28854z" fill="#db4747" stroke="#000000" stroke-width="0"/><path d="M300.83783,173.40488c-0.13148,-2.18091 0.97981,-3.2601 2.35601,-3.34442c0.50188,1.24291 0.82858,2.53577 0.96153,3.79519c-0.20747,1.13679 -0.72272,2.03271 -1.15752,3.01946c-1.3123,1.17813 -0.26351,2.14703 -1.15966,3.46322c-0.07994,0.11741 -0.26483,0.21308 -0.51986,0.29139c-0.13616,-2.08381 -0.29012,-4.06676 -0.48052,-7.22483z" data-paper-data="{&quot;index&quot;:null}" fill="#db4747" stroke="#000000" stroke-width="0"/><path d="M284.52096,187.90054c1.02683,-0.09791 2.04701,0.70701 2.88722,2.10451c-1.42546,0.15107 -3.4151,-0.42063 -4.63911,-0.87712c0.488,-0.72322 1.08229,-1.16355 1.75189,-1.2274z" fill="#f5bc38" stroke="none" stroke-width="NaN"/><path d="M282.01943,188.82211c-0.58918,-0.36211 -1.06106,-0.74645 -1.43188,-1.14927l-0.54697,-5.73656c0.96257,-2.50791 2.7855,-5.09393 3.3213,-7.26799c0.26116,-1.05969 -0.27443,-5.21703 1.01819,-5.8306c0.69543,-0.3301 1.52094,-0.28678 2.32374,-0.29191l1.99692,20.94319c-1.32665,1.31134 -5.44537,-0.10292 -6.6813,-0.66684z" fill="#c74040" stroke="none" stroke-width="0"/><path d="M302.96075,174.23796c-1.22984,-1.01573 -0.63247,-3.13084 -0.8119,-4.71575c-0.07558,-0.66752 -0.15349,-1.31504 -0.24256,-1.94278c1.24447,1.91852 2.0241,4.14524 2.24907,6.27624c-0.06777,0.37129 -0.16836,0.71688 -0.28825,1.04834c-0.28439,-0.17827 -0.58479,-0.40045 -0.90635,-0.66604z" fill="#e0a00b" stroke="none" stroke-width="0.5"/><path d="M303.28516,173.89468c0.26516,-0.32105 0.51777,-0.59564 0.76299,-0.82424c0.04393,0.26266 0.07972,0.52466 0.10723,0.78521c-0.20239,1.10893 -0.69765,1.98865 -1.12542,2.94707c-0.23128,-1.07593 -0.38203,-2.13649 0.25519,-2.90805z" data-paper-data="{&quot;index&quot;:null}" fill="#e0a00b" stroke="none" stroke-width="0.5"/><path d="M302.35448,174.50047c-0.24048,-2.52201 -0.69904,-4.90542 -1.28267,-7.24756c0.20991,0.02235 0.40832,0.03919 0.59196,0.04765c0.01964,0.0009 0.0392,0.00181 0.05869,0.00269c1.19107,1.74401 1.98908,3.76778 2.32325,5.75274c0.02531,0.18763 0.05246,0.37359 0.08178,0.5577c0.01008,0.08077 0.01937,0.16144 0.02787,0.24196c-0.20747,1.13679 -0.72272,2.03271 -1.15751,3.01946c-0.14695,0.13192 -0.2643,0.26124 -0.35807,0.38869c-0.09689,-0.91443 -0.19675,-1.8347 -0.28528,-2.76334z" fill="#bd2222" stroke="none" stroke-width="0.5"/><g fill="#cfcfcf" stroke="none" stroke-width="0.5"><path d="M294.36325,180.75947c0.12531,0.08543 0.24647,0.15666 0.36368,0.21474c-1.2691,0.65617 -2.44957,1.56545 -3.47323,2.58595l-0.86848,1.15263c0,0 -0.02235,0.03032 -0.05517,0.08488c-0.06733,0.02813 -0.1323,0.04857 -0.19455,0.06026c-1.539,0.28869 -2.63511,-0.55326 -2.88372,-2.0023c-0.07954,0.0598 -0.15823,0.08592 -0.23917,0.03325c-0.52258,-0.34007 -0.79278,-0.98989 -1.01012,-1.57427c-0.16904,-0.45445 0.65065,-1.57829 0.18509,-1.44283c-1.98106,0.57644 -3.46144,-2.06787 -2.03495,-3.84807c0.45251,-0.5647 1.83992,-1.07205 2.68386,-1.44863c-0.14125,-1.28398 -0.20261,-2.48817 0.64766,-3.65694l-0.00003,-0.00002c0.05325,-0.07321 0.11091,-0.14516 0.17263,-0.2158c0.65128,0.50158 1.36877,0.77299 2.10404,0.8517c-0.31213,0.19206 -0.56565,0.40035 -0.7257,0.61144c-0.56758,0.74858 -0.25209,1.92165 -0.15729,2.74643c0,0 0.07602,0.66925 -0.44761,0.96912c-0.16316,0.21072 -0.37167,0.31713 -0.37167,0.31713c-0.23077,0.11777 -2.64588,1.14448 -2.57594,1.38714c0.08067,0.27989 0.11911,0.7491 0.4095,0.77191c0.39056,0.03071 0.81636,-0.5096 1.13946,-0.28802c0.52781,0.36198 0.7092,1.0835 0.90768,1.69197c0.13711,0.4203 -0.52211,1.25096 -0.08601,1.32354c0.42987,0.07154 1.01407,-0.3625 1.30674,-0.03964c0.43645,0.48151 -0.11149,2.31898 0.39321,1.90957c1.06743,-0.86583 1.74765,-1.90032 3.06826,-2.58516l0.11361,-0.05798c0,0 0.74779,-0.38161 1.2202,0.243zM287.56229,182.55993c0.15928,-0.07773 0.29901,-0.12409 0.19311,-0.10464c-0.06751,0.0124 -0.13152,0.05269 -0.19311,0.10464z"/><path d="M298.01217,178.30955c0.05257,-2.55352 -1.59109,-6.13095 -4.00924,-7.47685c-0.21564,-0.12003 -0.4916,-0.18628 -0.80345,-0.20816c0.63345,-0.41426 1.2141,-0.94764 1.701,-1.56846c0.0081,0.00418 0.01616,0.00838 0.02419,0.01263c3.28463,1.73498 5.1846,6.28246 5.02997,9.67463c-0.16576,0.40344 -0.34723,0.80481 -0.54554,1.19188c-0.78043,-0.07044 -1.55787,-0.00774 -2.32007,0.1626c0.35742,-0.53378 0.65242,-1.19005 0.92314,-1.7883z"/><path d="M291.75959,175.98522c-0.15333,0.17437 -0.39566,0.31057 -0.77835,0.29246c-0.99405,-0.04702 -0.94703,-1.04108 -0.94703,-1.04108c0.00759,-0.1566 0.01466,-0.39087 0.02757,-0.65754c-0.00137,-0.04589 0.00117,-0.09048 0.00686,-0.13357c0.03865,-0.71047 0.12312,-1.58626 0.36258,-1.85523c0.9813,-1.10227 2.71818,-1.43483 3.56397,0.14594c0.92041,1.72027 -0.792,3.45044 -2.23561,3.249z"/><path d="M296.87195,177.02961c0.7838,1.61243 -0.50463,2.82374 -1.97301,2.97161c-0.3583,0.03607 -1.11704,-0.4094 -1.71504,-0.79497c-0.03824,-0.02067 -0.07583,-0.04478 -0.11218,-0.07281c-0.22353,-0.146 -0.41736,-0.27776 -0.54863,-0.36349c0,0 -0.83254,-0.54518 -0.28735,-1.37772c0.20989,-0.32051 0.46234,-0.43683 0.69353,-0.45868c0.68393,-1.28721 3.08974,-1.65863 3.94267,0.09605z" data-paper-data="{&quot;index&quot;:null}"/></g></g><g stroke="none"><path d="M123.58082,230.77619c-2.95764,-7.14161 -1.33775,-14.88945 3.50588,-19.23815c1.27229,0.86092 2.75823,0.85531 4.22834,1.02392c1.94359,1.35968 3.41828,2.68093 3.60839,5.04703c0.04809,0.59862 -1.79334,1.43845 -1.80864,1.45024c-1.42128,1.09499 -3.16396,2.89187 -3.85474,4.53777c-0.82389,1.96308 0.08985,4.83175 -0.73589,6.64115c-0.2868,0.62847 -2.69149,0.69931 -2.96538,0.71582c-0.61791,0.03726 -1.23815,0.07193 -1.85936,0.10253c-0.04015,-0.09295 -0.07969,-0.1864 -0.11858,-0.28032z" fill="#bd2222" stroke-width="NaN"/><path d="M131.31504,212.56196c1.94359,1.35968 3.41828,2.68093 3.60839,5.04703c0.039,0.48551 -1.16495,1.12971 -1.62946,1.36209l-2.68401,-6.48087c0.23481,0.02229 0.47014,0.0448 0.70508,0.07174z" fill="#bd2222" stroke-width="0"/><path d="M127.56647,229.10342c-2.42473,-5.85484 -0.43671,-12.43626 4.4325,-16.04733c1.59795,1.20082 2.75737,2.47329 2.92446,4.55291c0.04809,0.59862 -1.79334,1.43845 -1.80864,1.45024c-1.42128,1.09499 -3.16396,2.89187 -3.85474,4.53777c-0.82389,1.96308 0.08985,4.83175 -0.73589,6.64115c-0.04608,0.10096 -0.14682,0.18753 -0.28458,0.26179c-0.24778,-0.44715 -0.47283,-0.91296 -0.67311,-1.39653z" fill="#db4747" stroke-width="NaN"/><path d="M134.92343,217.60899c0.04809,0.59862 -1.79334,1.43845 -1.80864,1.45024c-0.31075,0.23941 -0.63686,0.51237 -0.96397,0.80997c0.36453,-1.63221 1.06918,-3.17647 2.06868,-4.52357c0.38454,0.64697 0.6332,1.38282 0.70394,2.26337z" fill="#bd2222" stroke-width="0"/><path d="M126.71054,217.95249c1.77686,3.71745 1.43506,3.91245 1.43506,3.91245l-0.43753,0.24966c-2.03597,1.12146 -4.30386,1.78285 -6.32937,2.93863c0,0 -0.34178,0.19503 -2.11862,-3.52243c-1.77686,-3.71745 -1.43505,-3.91246 -1.43505,-3.91246c2.02502,-1.1555 4.32586,-1.75101 6.32937,-2.93865l0.43752,-0.24965c0,0 0.34178,-0.19502 2.11863,3.52244z" fill="#fc9b2d" stroke-width="0.5"/></g><g stroke="none"><path d="M151.15425,283.5907c1.35576,-0.85099 2.72504,-1.81338 4.18977,-2.44339c-2.169,2.81187 -5.15649,4.79645 -8.58289,5.46202c1.46677,-0.8912 3.09337,-2.20281 4.39312,-3.01863z" fill="#e0a00b" stroke-width="NaN"/><path d="M151.15425,283.5907c2.76206,-1.7337 5.58025,-3.92978 9.14728,-2.83567c1.07023,0.32827 1.63412,1.57337 2.62425,2.09566c1.24628,0.65741 2.60127,1.09631 3.83803,1.77144c0.15892,0.08259 0.81424,0.42652 1.507,0.78317l-21.7218,1.33058c1.52042,-0.88941 3.24249,-2.2898 4.60525,-3.14518z" fill="#db4747" stroke-width="0"/><path d="M160.30152,280.75504c0.69437,0.21298 1.17558,0.81188 1.69835,1.34892l-9.42288,0.57721c2.32323,-1.47801 4.76637,-2.83348 7.72453,-1.92613z" fill="#ffb80e" stroke-width="0"/><path d="M160.30152,280.75504c0.10704,0.03283 0.20902,0.07485 0.30687,0.12438c-1.96162,0.94616 -4.93022,1.68613 -8.3321,1.99398c2.41363,-1.54879 4.93918,-3.06494 8.02523,-2.11835z" fill="#f3ae0c" stroke-width="NaN"/><path d="M160.30152,280.75504c0.77271,0.23701 1.28146,0.95195 1.87727,1.52771l-9.92996,0.60827c2.42193,-1.55487 4.95493,-3.08616 8.05269,-2.13598z" fill="#db4747" stroke-width="0"/><path d="M143.93012,287.31359c0.51234,-0.19849 1.14299,0.14518 1.64665,-0.07438c1.57673,-0.6874 3.56417,-2.3136 5.16761,-3.38271l12.64144,-0.77436c1.11471,0.53645 2.29193,0.94715 3.37797,1.54c0.35379,0.18386 3.16771,1.6629 3.37807,1.69413c1.84494,0.27392 5.41858,-1.24406 6.4705,0.8547l-34.41357,2.10802c0.55772,-0.70208 0.91656,-1.64977 1.73132,-1.96541z" fill="#7e1717" stroke-width="0"/></g><g stroke="none"><path d="M276.87976,269.87513c0.35287,0.00552 0.54986,0.46364 0.87976,0.58897c0.47497,0.18044 1.04309,0.07399 1.49196,0.312c2.55002,1.35215 1.12574,4.95713 2.4526,6.99492c0.3921,0.6022 1.21087,0.77417 1.8163,1.16125c0.36609,0.62542 0.55875,1.34202 0.63268,2.09286c-4.31952,-1.5741 -7.7089,-5.32455 -9.27435,-10.0732c0.70598,-0.60246 1.41758,-1.08593 2.00106,-1.07679z" fill="#e0a00b" stroke-width="NaN"/><path d="M269.71246,279.5918c0.26672,-0.77321 1.2649,-1.22823 1.36321,-2.04022c0.12923,-1.06737 -1.68405,-1.96476 -1.27945,-2.9609c0.40207,-0.9899 1.9037,-0.98356 2.78224,-1.59162c1.09765,-0.75972 3.01217,-3.14413 4.30131,-3.12393c0.35287,0.00552 0.54986,0.46364 0.87976,0.58897c0.47497,0.18044 1.04309,0.07399 1.49196,0.312c2.55002,1.35215 1.12574,4.95713 2.4526,6.99492c0.3921,0.6022 1.21087,0.77417 1.8163,1.16125c0.43551,0.74401 0.62556,1.61702 0.66229,2.52324l-14.68175,-1.02363c0.05432,-0.30252 0.12353,-0.58498 0.21154,-0.84011z" fill="#db4747" stroke-width="0"/><path d="M276.87976,269.87513c0.35287,0.00552 0.54986,0.46364 0.87976,0.58897c0.47497,0.18044 1.04309,0.07399 1.49196,0.312c2.46939,1.30937 1.21185,4.73137 2.33476,6.79701c-3.28557,-0.82808 -6.06351,-2.84545 -7.8887,-5.54026c1.03098,-0.96896 2.26491,-2.17209 3.18221,-2.15772z" fill="#ffb80e" stroke-width="NaN"/><path d="M269.79622,274.59068c0.40207,-0.9899 1.9037,-0.98356 2.78224,-1.59162c1.09765,-0.75972 3.01217,-3.14413 4.30131,-3.12393c0.35287,0.00552 0.54986,0.46364 0.87976,0.58897c0.47497,0.18044 1.04309,0.07399 1.49196,0.312c2.47515,1.31243 1.20597,4.74735 2.34267,6.81145l-10.68493,-0.74496c-0.41783,-0.77408 -1.42505,-1.48363 -1.11301,-2.25191z" fill="#ffb80e" stroke-width="0"/><path d="M281.2574,277.81209c-5.34333,-0.37253 -9.80238,-1.80957 -11.31703,-3.4797c0.53965,-0.73605 1.84363,-0.78348 2.63808,-1.33334c0.97093,-0.67199 2.58097,-2.61519 3.83199,-3.04096c0.2059,-0.01845 0.41491,-0.03488 0.62682,-0.04922c0.26129,0.10892 0.44475,0.44981 0.72225,0.55521c0.47497,0.18044 1.04309,0.07399 1.49196,0.312c2.55002,1.35215 1.12574,4.95713 2.4526,6.99492c0.01621,0.02489 0.03314,0.04904 0.05076,0.07251c-0.16507,-0.00934 -0.33089,-0.01981 -0.49744,-0.03142z" fill="#f3ae0c" stroke-width="NaN"/><path d="M281.44363,277.76689l-10.44281,-0.72808c-0.33114,-0.8517 -1.54281,-1.61541 -1.20459,-2.44815c0.40207,-0.9899 1.9037,-0.98356 2.78224,-1.59162c1.09765,-0.75972 3.01217,-3.14413 4.30131,-3.12393c0.35287,0.00552 0.54986,0.46364 0.87976,0.58897c0.47497,0.18044 1.04309,0.07399 1.49196,0.312c2.37983,1.26189 1.29817,4.48592 2.22168,6.56705z" fill="#db4747" stroke-width="0"/><path d="M278.14586,275.64099c-2.34805,-0.1637 -4.48966,-0.99703 -6.25125,-2.3004c0.24692,-0.09442 0.48185,-0.20174 0.68384,-0.34155c1.09765,-0.75972 3.01217,-3.14413 4.30131,-3.12393c0.35287,0.00552 0.54986,0.46364 0.87976,0.58897c0.47497,0.18044 1.04309,0.07399 1.49196,0.312c1.74389,0.92469 1.62909,2.90299 1.80657,4.71312c-0.94052,0.16621 -1.91633,0.22121 -2.9122,0.15178z" fill="#bd2222" stroke-width="0"/><path d="M278.92416,271.22974c-1.13896,-0.0794 -2.19491,-0.42803 -3.11001,-0.97936c0.37938,-0.23402 0.74218,-0.38032 1.06561,-0.37525c0.35287,0.00552 0.54986,0.46364 0.87976,0.58897c0.47497,0.18044 1.04309,0.07399 1.49196,0.312c0.24799,0.13149 0.45838,0.2843 0.63739,0.45488c-0.31686,0.02143 -0.63895,0.02148 -0.96471,-0.00124z" fill="#bd2222" stroke-width="0"/><path d="M269.71246,279.5918c0.22484,-0.65174 0.96935,-1.07743 1.25659,-1.68138l12.25587,0.85449c0.10205,0.05222 0.20132,0.10719 0.29545,0.16737c0.79626,1.36029 0.772,3.15189 0.49029,4.78916l-14.6941,-1.02448c0.02219,-1.15689 0.10972,-2.27561 0.39589,-3.10515z" fill="#7e1717" stroke-width="0"/></g><g stroke="none"><path d="M350.51076,248.63869c-0.27317,-0.745 -0.80995,-1.6642 -0.60884,-2.52606c0.61416,-2.6318 2.56779,-2.7282 3.89856,-4.80195c0.98224,-1.53064 0.2598,-7.12084 2.58601,-7.59142c0.0479,-0.00969 0.73249,0.15331 1.39068,0.3149c2.89985,5.81072 1.46687,13.49844 -3.84653,18.91918l-0.89425,-0.23489c0,0 -0.16308,-0.00684 -0.3839,0.03778c-0.89156,-1.21242 -1.58721,-2.60521 -2.14174,-4.11756z" fill="#bd2222" stroke-width="NaN"/><path d="M349.90192,246.11263c0.58072,-2.48848 2.35899,-2.71018 3.67593,-4.48003c-0.36194,2.47389 -1.40792,4.86128 -3.12505,6.85458c-0.28362,-0.716 -0.73858,-1.57024 -0.55089,-2.37455z" fill="#db4747" stroke-width="NaN"/><path d="M360.06623,247.27044c-2.99088,2.8461 -3.26687,2.56957 -3.26687,2.56957l-0.35329,-0.354c-1.60639,-1.65931 -2.84591,-3.68256 -4.48152,-5.32142c0,0 -0.27601,-0.27653 2.71487,-3.12265c2.99088,-2.8461 3.26687,-2.56957 3.26687,-2.56957c1.63522,1.63844 2.82213,3.71357 4.48152,5.32142l0.35331,0.35399c0,0 0.276,0.27652 -2.71489,3.12262z" fill="#fcbb71" stroke-width="0.5"/></g></g></g></svg>