<svg version="1.1" xmlns="http://www.w3.org/2000/svg" xmlns:xlink="http://www.w3.org/1999/xlink" width="82.51918" height="85.09926" viewBox="0,0,82.51918,85.09926"><g transform="translate(-197.68023,-158.2953)"><g data-paper-data="{&quot;isPaintingLayer&quot;:true}" fill-rule="nonzero" stroke="none" stroke-linecap="butt" stroke-linejoin="miter" stroke-miterlimit="10" stroke-dasharray="" stroke-dashoffset="0" style="mix-blend-mode: normal"><path d="M269.43453,231.62513c-1.53753,1.01775 -2.83175,0.96176 -3.83451,0.52233c-1.41805,0.30651 -3.05418,0.03205 -4.50495,0.1902c-1.14798,0.12515 -2.32442,0.17247 -3.51198,0.17827c-6.21996,2.57396 -11.37807,5.88479 -17.94875,1.99261l-1.99634,-0.55061c-1.51453,-0.37918 -2.74097,-1.59516 -3.25882,-3.18405c-0.42204,0.25061 -0.7324,0.41417 -0.86532,0.44285c-6.7145,1.44875 -11.24812,2.01589 -8.30942,-8.7627c0.57229,-2.09904 2.90566,-2.99484 4.44178,-4.38501c1.62996,-1.47509 3.44107,-2.52329 5.30154,-3.43786c-4.63079,1.03647 -9.85947,1.64861 -11.72685,-4.88811c-1.41031,1.1918 -3.5113,2.66446 -5.5811,3.24451c0.06444,1.21576 -0.30478,2.62527 -1.73647,3.91757c-3.50767,3.16619 -6.37759,-0.7036 -6.37759,-0.7036c-1.15078,-1.63546 -2.64565,-3.037 -3.45234,-4.90636c-0.58591,-1.35775 -0.85696,-2.93627 -0.97796,-4.55575c-1.34887,-1.67711 -1.26328,-4.16944 -0.07654,-7.95468c-0.00884,-4.90084 -0.00784,-9.8022 0.00425,-14.70289c0.01245,-5.04724 0.02627,-10.16108 3.57006,-14.03264c6.92167,-7.56185 19.03704,-4.92085 27.83864,-4.92085c4.97343,0 10.21989,-0.08032 15.01836,1.39535h2.37237c2.50303,0 4.53213,2.23857 4.53213,5c0,1.51057 -0.60719,2.86469 -1.56699,3.7815l-2.88849,2.78835c-0.16659,1.88834 -2.35997,3.16868 -3.25006,4.90475c-0.97494,1.90157 -1.40692,4.13054 -2.52956,5.93023c-2.76331,4.42986 -6.35618,8.15539 -9.46376,12.29829c-0.77031,1.02695 -1.5615,2.03461 -2.3452,3.04919c2.10883,-0.41556 4.23288,-0.74276 6.36172,-0.99307c2.51475,-0.08029 6.03397,-2.46061 7.54425,-0.24086c0.08006,0.11766 0.15458,0.23774 0.22385,0.3601c0.35738,-0.30192 0.71701,-0.60206 1.07806,-0.90106c1.92941,-2.4864 3.8181,-4.82463 5.36655,-7.72207c0.89606,-1.6767 3.24801,-8.00367 4.68508,-8.86063c2.48798,-1.48364 5.82405,-3.31351 8.31841,-1.843c3.85438,2.2723 2.04574,8.24336 1.08394,11.69105c0.22304,0.59117 0.34619,1.23973 0.34619,1.92001v2.7907c-0.03433,6.72761 -0.74234,13.59776 -1.28022,20.29613c-0.00804,0.10019 -0.01505,0.20026 -0.02114,0.30022c0.24981,1.38687 0.43865,2.68278 0.59587,3.62551l0.37583,0.06613c0,0 2.33176,4.28746 -1.55451,6.85995z" fill="#8f3e15" stroke-width="0.5"/><path d="M270.87294,184.68918c0,10.78294 -0.16096,21.60003 0.36927,32.36562c0.41659,3.53949 1.21542,8.24477 -0.84067,11.43693c-2.50971,3.89643 -8.45986,3.83723 -12.15542,3.8421c-10.88625,0.01437 -21.77258,0 -32.65883,0c0,0 -0.36354,0 -0.80608,-0.15973c-0.53501,0.47104 -1.75749,1.2317 -3.06901,-0.1069c-1.75621,-1.79246 -0.15965,-3.76417 -0.15965,-3.76417c3.54399,-4.37417 6.92095,-9.78805 11.54917,-12.85748c1.55294,-1.0299 3.34482,-1.58097 4.84454,-2.70592c4.13542,-3.10202 7.30732,-7.59745 11.26883,-10.98638c3.72204,-3.18406 7.07154,-5.83828 10.02582,-9.98851c2.59969,-3.64836 5.00401,-7.4423 7.59507,-11.08511l1.19055,-1.56176c0,0 1.54463,-2.02319 3.34669,-0.28903c1.80206,1.73416 0.25744,3.75734 0.25744,3.75734l-0.59193,0.77403zM255.77773,227.00444c2.5431,0 5.13087,0.27337 7.63385,-0.35883c0.07087,-0.0179 2.86998,-0.82806 3.18584,-1.34162c1.101,-1.79018 0.14151,-5.89127 -0.08116,-7.74883c-0.44752,-9.0052 -0.42257,-18.04347 -0.39986,-27.07027c-1.04082,1.54776 -2.08763,3.09185 -3.16875,4.60909c-3.2052,4.49376 -6.82831,7.45372 -10.86064,10.90264c-3.25591,2.78484 -5.90047,6.19159 -9.03805,9.09887c-2.40372,2.22728 -4.88217,3.22906 -7.50741,4.92162c-2.58123,1.66419 -4.75361,4.29497 -6.78392,6.98734c9.00671,0 18.0134,0 27.0201,0z" fill="#763312" stroke-width="0.5"/><path d="M208.67416,219.14701c-2.40751,-0.22487 -2.20687,-2.92321 -2.20687,-2.92321c0.20373,-2.71658 0.61901,-5.93446 0.26298,-8.66089c-0.27723,-2.12301 -1.08456,-4.14323 -1.26141,-6.27967c-0.51456,-6.21625 -0.00977,-12.76625 -0.00977,-19.01363c0,-4.64872 -1.38324,-10.5557 3.24106,-13.14753c2.00181,-1.12197 6.9062,-0.20611 9.17313,-0.20611c9.65042,0 19.68869,-0.19311 29.17533,1.96108h2.56939v0c1.33424,0 2.41584,1.21228 2.41584,2.70771c0,0.63532 -0.19522,1.21954 -0.52211,1.68142l-1.73649,2.50235l-0.05953,-0.0519c-0.08722,0.15166 -0.17886,0.30036 -0.27557,0.44572c-0.70469,1.05911 -2.18958,1.95084 -3.73061,2.74428c0.56796,1.74243 -0.89097,2.96881 -0.89097,2.96881l-2.07491,1.74169c-5.10165,3.64164 -8.30092,7.91765 -12.35078,12.78161c-3.16669,3.80324 -7.14877,7.06031 -10.91401,10.15193c-0.20367,0.34748 -0.40964,0.69222 -0.61853,1.03359c-1.53244,2.50425 -3.35636,4.65216 -4.86782,7.18026l-0.23327,0.11587l0.07326,0.0821l-1.74972,1.9611c-0.43718,0.49 -1.04114,0.79307 -1.70826,0.79307c-0.55202,0 -1.06079,-0.20751 -1.4676,-0.55673c-0.07521,-0.00123 -0.15277,-0.00547 -0.23277,-0.01294zM211.65075,208.38714c1.32631,-1.66202 3.0254,-3.14891 4.77712,-4.52561c2.75553,-4.88728 5.2837,-10.04258 9.03367,-14.03365c3.03492,-3.23004 7.33052,-6.58521 10.79564,-9.2337c1.36345,-1.04212 4.20009,-3.53713 6.81002,-4.99678c-8.29243,-1.35913 -16.85377,-1.26601 -25.1939,-1.26601c-2.29815,0 -5.08374,-0.52771 -7.32413,-0.20611c-0.75449,0.10831 -0.29068,1.68943 -0.25837,2.5412c0.10925,2.87967 0,5.80268 0,8.68484c0,5.07686 -0.40932,10.39337 -0.00976,15.44558c0.16292,2.06006 0.98234,3.99904 1.23818,6.0472c0.06296,0.50404 0.10548,1.01965 0.13153,1.54304z" fill="#763312" stroke-width="0.5"/><path d="M261.02662,163.97499l12.54366,14.59898l-57.49639,60.88439l-12.54366,-14.59898z" fill="#af4c00" stroke-width="0"/><path d="M197.79179,173.54667v-11.96997h82.40762v11.96997z" fill="#af4c00" stroke-width="0"/><path d="M197.76102,243.39456v-12.38867h82.40763v12.38867z" fill="#af4c00" stroke-width="0"/><path d="M197.68023,172.49571h12.27528v59.21053h-12.27528z" fill="#af4c00" stroke-width="0"/><path d="M268.87725,172.49571h11.2294v59.21053h-11.2294z" fill="#af4c00" stroke-width="0"/><path d="M197.7881,161.83781v-3.54251h82.29768v3.54251z" fill="#a24600" stroke-width="0"/><path d="M248.10356,240.74805c0,1.25 -1.13303,1.25 -1.13303,1.25c-7.37874,0 -15.07371,0 -22.45245,0c-3.7845,0 -7.78023,0.82482 -11.52278,0.33951c-2.73849,-0.35511 -5.42154,-1.22345 -8.24267,-0.87491c-1.73865,0.21481 -3.27341,0.87062 -5.05875,0.88428c0,0 -1.13303,0 -1.13303,-1.25c0,-1.25 1.13303,-1.25 1.13303,-1.25c1.6619,0.01586 3.11639,-0.66189 4.74444,-0.86012c3.03179,-0.36915 5.88945,0.4869 8.83385,0.86949c3.64004,0.47297 7.55963,-0.35824 11.24591,-0.35824c7.37874,0 14.75748,0 22.13622,0h0.31623c0,0 1.13303,0 1.13303,1.25z" fill="#9d4400" stroke-width="0.5"/><path d="M279.72674,240.74805c0,1.25 -1.13303,1.25 -1.13303,1.25c-3.63667,0 -7.43144,0 -11.06811,0c0,0 -1.13303,0 -1.13303,-1.25c0,-1.25 1.13303,-1.25 1.13303,-1.25c3.63667,0 7.27333,0 10.90999,0h0.15812c0,0 1.13303,0 1.13303,1.25z" fill="#9d4400" stroke-width="0.5"/><path d="M208.4726,169.1266c0,1.25 -1.13303,1.25 -1.13303,1.25c-2.3959,0 -5.37458,0 -7.77047,0c0,0 -1.13303,0 -1.13303,-1.25c0,-1.25 1.13303,-1.25 1.13303,-1.25c2.3959,0 4.79179,0 7.18769,0h0.58279c0,0 1.13303,0 1.13303,1.25z" fill="#9d4400" stroke-width="0.5"/><path d="M278.98964,169.76956c0,1.25 -1.13303,1.25 -1.13303,1.25c-4.72704,0 -10.81391,0 -15.54094,0c-8.35326,0 -16.70652,0 -25.05978,0c0,0 -1.13303,0 -1.13303,-1.25c0,-1.25 1.13303,-1.25 1.13303,-1.25c8.35326,0 16.70652,0 25.05978,0c4.72704,0 9.45407,0 14.18111,0h1.35983c0,0 1.13303,0 1.13303,1.25z" fill="#9d4400" stroke-width="0.5"/><path d="M208.86112,228.99231c0,1.25 -1.13303,1.25 -1.13303,1.25c-2.46065,0 -5.11556,0 -7.57621,0c0,0 -1.13303,0 -1.13303,-1.25c0,-1.25 1.13303,-1.25 1.13303,-1.25c2.46065,0 4.9213,0 7.38195,0h0.19426c0,0 1.13303,0 1.13303,1.25z" fill="#9d4400" stroke-width="0.5"/><path d="M278.98964,228.77799c0,1.25 -1.13303,1.25 -1.13303,1.25c-1.23032,0 -2.84917,0 -4.0795,0c0,0 -1.13303,0 -1.13303,-1.25c0,-1.25 1.13303,-1.25 1.13303,-1.25c1.23032,0 2.46065,0 3.69097,0h0.38852c0,0 1.13303,0 1.13303,1.25z" fill="#9d4400" stroke-width="0.5"/><path d="M264.53508,182.55634c0.09149,-0.36939 0.35039,-0.89204 1.08303,-0.89204c1.13303,0 1.13303,1.25 1.13303,1.25l-0.33186,1.0982c-6.6766,7.3481 -13.5529,14.7653 -20.28607,22.15738c-1.62653,1.1844 -2.6116,2.95886 -4.09436,4.29954c-3.66035,3.30959 -7.38739,6.88748 -10.789,10.6286c-1.46539,1.61165 -2.47479,3.12927 -4.24413,4.43371c0,0 -0.94274,0.69338 -1.57123,-0.34669c-0.62849,-1.04006 0.31425,-1.73344 0.31425,-1.73344c1.66689,-1.22279 2.53192,-2.60904 3.91487,-4.13894c3.44539,-3.8115 7.24406,-7.44778 10.96832,-10.80303c1.46758,-1.32217 2.45406,-3.07753 4.06463,-4.27311c6.54691,-7.26845 13.31468,-14.47183 19.83852,-21.68018z" fill="#9d4400" stroke-width="0.5"/></g></g></svg>