<svg version="1.1" xmlns="http://www.w3.org/2000/svg" xmlns:xlink="http://www.w3.org/1999/xlink" width="218.49776" height="23.6505" viewBox="0,0,218.49776,23.6505"><g transform="translate(-151.06524,-167.15815)"><g data-paper-data="{&quot;isPaintingLayer&quot;:true}" fill-rule="nonzero" stroke="none" stroke-width="0" stroke-linecap="butt" stroke-linejoin="miter" stroke-miterlimit="10" stroke-dasharray="" stroke-dashoffset="0" style="mix-blend-mode: normal"><path d="M240.56815,186.13066l0.13149,-1.62608l7.25089,0.52017l-0.13149,1.62608z" fill="#9e5400"/><path d="M180.08064,179.08376l0.2785,-1.60956l7.1772,1.10175l-0.2785,1.60955z" fill="#9e5400"/><path d="M151.06524,168.5819l0.8443,-1.42375l6.3487,3.33998l-0.8443,1.42376z" fill="#9e5400"/><path d="M156.73963,174.26158l1.72662,-5.50165l22.91503,6.38001l-1.72661,5.50166z" fill="#fda824"/><path d="M210.38986,183.95616l0.13149,-1.62608l7.2509,0.52017l-0.13149,1.62607z" fill="#9e5400"/><path d="M186.8111,182.58094l0.82912,-5.68358l23.67279,3.06368l-0.82912,5.68357z" fill="#fda824"/><path d="M217.36966,186.38045l0.44776,-5.72146l23.83055,1.65452l-0.44776,5.72146z" fill="#fda824"/><path d="M271.46123,187.60791l0.0614,-1.62976l7.26732,0.24292l-0.0614,1.62976z" fill="#9e5400"/><path d="M247.69493,189.2199l0.09187,-5.73633l23.89248,0.33949l-0.09187,5.73632z" fill="#fda824"/><path d="M302.5741,188.40707l0.0614,-1.62976l7.26732,0.24292l-0.0614,1.62976z" fill="#9e5400"/><path d="M278.8078,190.01906l0.09187,-5.73633l23.89248,0.33949l-0.09187,5.73632z" fill="#fda824"/><path d="M332.45263,188.29186l-0.00869,-1.63077l7.2718,-0.03436l0.00868,1.63077z" fill="#9e5400"/><path d="M308.77509,190.80865l-0.15473,-5.73514l23.88749,-0.57171l0.15473,5.73513z" fill="#fda824"/><path d="M362.29121,187.89078l-0.00869,-1.63077l7.2718,-0.03436l0.00868,1.63077z" fill="#9e5400"/><path d="M338.61367,190.40757l-0.15473,-5.73513l23.88749,-0.57172l0.15473,5.73513z" fill="#fda824"/></g></g></svg>