<svg version="1.1" xmlns="http://www.w3.org/2000/svg" xmlns:xlink="http://www.w3.org/1999/xlink" width="557.35514" height="167.67597" viewBox="0,0,557.35514,167.67597"><g transform="translate(34.03964,-246.10567)"><g data-paper-data="{&quot;isPaintingLayer&quot;:true}" fill-rule="nonzero" stroke="none" stroke-width="0.5" stroke-linecap="butt" stroke-linejoin="miter" stroke-miterlimit="10" stroke-dasharray="" stroke-dashoffset="0" style="mix-blend-mode: normal"><path d="M511.87988,312.22461c-0.35913,0.59197 -4.08501,4.43679 -5.07658,5.36032c-1.18012,1.09914 -2.16268,2.50788 -3.60806,3.2232c-5.18748,2.56729 -11.11832,2.07524 -16.69524,1.9735c-1.47321,-0.02687 -2.98132,0.19047 -4.41831,-0.13533c-1.75063,-0.3969 -3.258,-1.56679 -5,-2c-1.06926,-0.26591 -2.24457,0.23446 -3.30484,-0.06531c-1.43448,-0.40557 -2.56701,-1.58921 -4,-2c-2.61321,-0.74912 -5.5629,0.47386 -8.14698,-0.37027c-0.8962,-0.29276 -1.10624,-1.69986 -2,-2c-0.90909,-0.30529 -1.92006,0.59214 -2.85302,0.37027c-1.45027,-0.34489 -2.66667,-1.33333 -4,-2c-1.89839,0.02177 -3.82697,0.40325 -5.69516,0.06531c-1.76639,-0.31953 -3.258,-1.56679 -5,-2c-1.06926,-0.26591 -2.24457,0.23446 -3.30484,-0.06531c-1.43448,-0.40557 -2.53926,-1.70256 -4,-2c-1.63922,-0.33379 -3.35613,0.37305 -5.01589,0.16413c-3.7425,-0.47107 -7.44975,-1.24822 -11.10158,-2.19286c-4.15182,-1.07398 -8.05923,-3.06557 -12.27461,-3.85401c-2.5836,-0.48324 -5.25641,0.06958 -7.88478,0.08338c0,0 -12.83333,0 -14,0c-2.42654,0 -4.98017,-0.98379 -7.27685,-0.20063c-1.41094,0.48112 -2.55457,1.63536 -4,2c-2.68427,0.67717 -5.5996,-0.5225 -8.30484,0.06531c-1.75412,0.38114 -3.24685,1.61439 -5,2c-1.05813,0.23274 -2.20448,-0.48863 -3.24493,-0.18648c-1.15417,0.33517 -1.82217,1.76092 -3,2c-2.4341,0.49407 -5.00805,-0.33124 -7.45023,0.12118c-1.46577,0.27154 -2.55274,1.64271 -4,2c-1.46371,0.36135 -3.01452,0.06919 -4.52178,0.10379c-6.08937,2.30832 -12.58266,3.66153 -18.77528,5.69361c-2.03383,0.66739 -3.89879,1.90182 -6.00778,2.26791c-1.50056,0.26047 -3.06687,-0.78948 -4.54818,-0.43558c-0.917,0.21908 -1.10512,1.70322 -2,2c-1.63265,0.54146 -3.46679,0.00193 -5.14698,0.37027c-2.02065,0.44297 -3.37512,2.42562 -5.23153,3.3383c-1.99517,0.9809 -4.08145,1.77621 -6.1841,2.49853c-4.76725,1.63769 -10.04551,4.01118 -14.88921,5.22847c-2.8449,0.71496 -6.03137,-0.0041 -8.72307,1.16183c-1.13436,0.49135 -1.62703,2.09799 -2.82512,2.4026c-0.2447,0.06221 -0.49223,0.12054 -0.74241,0.17518c0.2852,-0.88944 0.53488,-1.78675 0.69788,-2.71246c0.51285,-2.91262 0.33627,-5.99052 1.34909,-8.76911c0.69359,-1.90281 4.05908,-4.70194 5.24174,-6.80354c3.01992,-5.36644 6.50683,-10.48431 10.29662,-15.33778c4.42941,-5.67261 10.96992,-16.17691 12.87935,-18.7496c1.46851,-1.97862 3.79358,-3.56285 5.32299,-5.50907c3.61933,-4.60572 6.80999,-9.55742 10.67472,-13.95925c0.72832,-0.82954 2.46806,-1.19779 4.5458,-1.42563c0.92711,0.17925 1.88465,0.27313 2.86412,0.27313c2.22003,0 4.32742,-0.48228 6.22311,-1.3478c0.48656,-0.14491 0.91795,-0.3179 1.27689,-0.5272c0.32529,-0.18968 0.63217,-0.37857 0.92198,-0.56727c2.2738,-0.5092 4.52861,-1.13273 6.839,-1.41382c8.5832,-1.04425 18.09895,-0.0365 26.73903,-0.0365c10.75832,0 21.7337,-0.59217 32.46603,0.01449c12.25813,0.69291 23.25819,6.5372 35.35234,8.03029c5.88388,0.7264 11.94481,-0.08065 17.75028,1.1211c3.27399,0.67773 6.31296,2.2166 9.52825,3.13322c3.87286,1.10408 7.81474,1.94989 11.72211,2.92483c3.69912,0.94409 7.33705,2.17283 11.09736,2.83226c1.73524,0.3043 3.55556,-0.29508 5.28499,0.04065c6.76198,1.3127 7.79282,2.81122 13.66876,5.47406c1.47447,0.6682 2.96082,1.17175 4.45219,1.64811c1.63898,0.16233 2.98442,0.82899 3.55012,1.14911c1.16186,0.40373 2.32349,0.85678 3.48167,1.42367l-1.3541,-0.7918c0,0 5.07314,0 6.87464,4.17238c4.41357,5.64508 2.93062,14.90599 -0.49476,20.55223z" fill="#fffaae"/><path d="" fill="#fffaae"/><path d="M199.18967,328.6663c-6.82567,-1.14467 -13.37265,-3.60134 -20.14516,-5.02723c-5.81369,-1.22402 -11.80673,-1.59595 -17.54652,-3.12955c-1.7745,-0.47413 -3.38487,-1.53964 -5.19936,-1.82471c-3.94301,-0.61947 -8.10265,0.75438 -11.97201,-0.22497c-1.16511,-0.29489 -1.87125,-1.58725 -3,-2c-0.55196,-0.20184 -1.16438,0.36862 -1.74299,0.26562c-2.70619,-0.48174 -5.28111,-1.59606 -8,-2c-4.55753,-0.6771 -9.22816,0.36631 -13.82266,0.01969c-1.69486,-0.12786 -3.30777,-0.8411 -5,-1c-5.9409,-0.55785 -12.28805,0.0365 -18.26097,0.0365c-9,0 -18,0 -27,0c-2.52763,0 -5.1272,-0.73899 -7.58169,-0.13533c-1.74311,0.42871 -3.24937,1.6031 -5,2c-3.38653,0.7678 -7.1456,-0.56208 -10.50193,0.07913c-2.3057,0.44049 -4.55893,1.12443 -6.81947,1.75709c-5.51023,1.54218 -11.33945,3.43244 -16.33246,6.28592c-3.59702,2.05568 -6.47279,5.24302 -10.19217,7.10778c-4.31812,2.16495 -8.96307,3.70446 -13.65591,4.8492c-8.72123,0.09968 -21.13677,2.2144 -27.53896,-5.48029c-4.58714,-5.51321 -3.87741,-10.52089 -3.87741,-16.96352c0,-0.43631 -0.08488,-9.62701 0.20063,-10.72315c0.47611,-1.82785 1.64431,-3.40322 2.37027,-5.14698c1.052,-2.5269 0.99769,-4.51539 2.54922,-7.07286c0.70983,-1.17005 1.79012,-2.09702 2.8853,-2.9932c-0.00359,-0.11334 -0.00542,-0.22848 -0.00542,-0.34544c0,-4.88452 3.18114,-6.5879 5.39986,-7.18192c0.20587,-0.23749 0.44067,-0.44759 0.71481,-0.62077c2.11918,-1.33869 4.92355,-0.94379 7.38533,-1.41568c0,0 1.70281,0 3.48569,0.81137c6.30681,-1.18749 12.40994,-3.29966 18.70642,-4.87184c3.96655,-0.99041 8.01184,-1.67966 12.06886,-2.18466c0.76835,-0.09564 1.5707,0.29109 2.32073,0.09883c3.84947,-0.98677 7.30347,-3.3479 11.21694,-4.03848c1.96957,-0.34755 4.02721,0.3288 6,0c2.0795,-0.34658 3.92551,-1.62459 6,-2c1.46928,-0.26589 3.02108,0.42969 4.47822,0.10379c1.45477,-0.32537 2.53972,-1.70032 4,-2c5.7376,-1.17749 11.93875,0.66499 17.68289,-0.12814c2.4039,-0.33192 4.66667,-1.33333 7,-2c11.34676,-0.09099 22.6932,-0.07249 34.04026,-0.07249c5.48803,0 12.07713,-0.86352 17.41831,0.13533c1.76447,0.32997 3.24861,1.6065 5,2c1.17813,0.2647 2.43439,-0.28134 3.62195,-0.06283c12.78518,2.3524 25.19698,7.53267 38.08775,9.59094c1.26618,0.78214 2.65741,1.38124 4.13676,1.76038c3.97812,1.73958 8.0972,2.9978 10.71746,4.06393c0.50003,0.20345 0.91905,0.59696 1.26462,1.01169c3.6838,4.42106 8.0089,8.41915 10.87029,13.412c4.35629,7.60134 4.17128,14.34136 6.78596,22.10729c1.90961,5.67179 4.89613,11.10058 7.19678,16.62827c-6.76727,-1.27286 -13.5818,-2.33559 -20.41022,-3.48072z" fill="#fffaae"/><path d="M215.5193,332.33776c-4.47214,8.94427 -13.41641,4.47214 -13.41641,4.47214l-5.66374,-2.97624c-1.85704,-1.75636 -3.70534,-3.52273 -5.51274,-5.33013c-0.58298,-0.58298 -1.34435,-1.03819 -1.84763,-1.67825c-1.8297,0.50516 -4.07981,-1.77147 -5.17297,-2.0935c-0.80726,-0.2378 -1.69025,0.27357 -2.52088,0.13838c-1.11551,-0.18156 -2.1002,-0.89607 -3.21658,-1.07219c-2.50642,-0.39543 -5.14595,0.06416 -7.58598,-0.63208c-0.97208,-0.27737 -1.15377,-1.94302 -2.14439,-2.14439c-1.95875,-0.39817 -4.00658,0.83482 -5.97606,0.49369c-1.92923,-0.33416 -3.46708,-1.87284 -5.33704,-2.4532c-6.28961,-1.95204 -12.85006,-2.18798 -19.11599,-4.22562c-2.00436,-0.83285 -4.31725,-0.59385 -6.48747,-0.55903c-4.28558,0.06876 -8.58056,0 -12.86633,0c-5.31471,0 -11.05548,-0.65458 -16.33031,-0.03407c-2.15908,0.25398 -4.27122,0.84386 -6.43317,1.07219c-1.33973,0.14149 -2.71144,0.24881 -4.04139,0.03407c-0.29301,-0.04731 -0.19977,-0.90034 -0.46194,-0.7612c-0.89292,0.47388 -1.17176,1.86895 -2.14439,2.14439c-3.12731,0.88564 -6.52653,0.08451 -9.73037,0.63208c-2.22808,0.3808 -4.1974,1.81167 -6.43317,2.14439c-0.99166,0.14758 -2.02401,-0.55822 -2.99276,-0.29995c-0.74739,0.19925 -1.03124,1.20641 -1.72091,1.55662c-1.56384,0.79412 -4.48182,1.58561 -6.43317,2.14439c-3.93916,2.62611 -7.62011,3.38252 -12.03877,4.82056c-2.21551,0.72103 -4.27425,1.93438 -6.54659,2.44902c-1.26246,0.28592 -2.62707,-0.40312 -3.88232,-0.08707c-1.54996,0.39025 -2.73764,1.75884 -4.28878,2.14439c-1.19433,0.29686 -2.5056,-0.50124 -3.68847,-0.16157c-1.23856,0.35566 -1.97715,1.79179 -3.21658,2.14439c-1.56836,0.44618 -3.30664,-0.23169 -4.88909,0.16157c-1.28993,0.32057 -2.2149,1.55989 -3.49387,1.92173c-2.83346,0.80162 -5.77802,1.16992 -8.7008,1.52829c-3.66608,0.44951 -7.85834,0.03407 -11.54675,0.03407c-7.14796,0 -14.29593,0 -21.44389,0c0,0 -10,0 -10,-10c0,-10 10,-10 10,-10c7.14796,0 14.29593,0 21.44389,0c4.32095,0 9.86334,0.77238 14.06267,-0.58202c1.77901,-0.57378 3.27086,-1.91127 5.08369,-2.36705c1.19352,-0.30007 2.5056,0.50124 3.68847,0.16157c1.23856,-0.35566 1.97715,-1.79179 3.21658,-2.14439c1.56836,-0.44618 3.30766,0.23577 4.88909,-0.16157c1.55015,-0.38948 2.73758,-1.7591 4.28878,-2.14439c1.51919,-0.37734 3.16556,0.2452 4.69523,-0.08707c1.48624,-0.32284 2.73666,-1.3465 4.17535,-1.83976c4.7459,-1.62714 5.34408,-1.04963 9.40512,-3.757c2.13061,-0.75488 4.40562,-1.14519 6.43317,-2.14439c1.62864,-0.80262 2.97052,-2.21928 4.71226,-2.73216c1.78836,-0.52661 3.73763,-0.04789 5.5848,-0.29995c2.23963,-0.30562 4.20302,-1.77592 6.43317,-2.14439c1.58522,-0.26191 3.22308,-0.32009 4.81841,-0.12913c0.2947,0.03528 0.19977,0.90034 0.46194,0.7612c0.89292,-0.47388 1.17176,-1.86895 2.14439,-2.14439c3.37799,-0.95664 7.02059,-0.31696 10.50739,-0.72713c8.23779,-0.96905 16.08969,-1.10627 24.41308,-1.10627c8.54768,0 17.47073,-0.91666 25.67836,1.58536c6.28326,2.17675 13.06817,2.39431 19.48301,4.35193c1.18737,0.36235 2.02085,1.60414 3.24052,1.83558c2.96317,0.56228 6.09925,-0.19902 9.03467,0.49369c0.98385,0.23217 1.17259,1.86606 2.14439,2.14439c1.02513,0.2936 2.07217,-0.70578 3.13596,-0.63208c1.12749,0.07811 2.10234,0.88298 3.21658,1.07219c1.28649,0.21846 2.65517,-0.21154 3.91229,0.13838c1.53979,0.4286 2.75451,1.69639 4.28878,2.14439c1.52674,0.4458 3.30878,-0.18778 4.74589,0.49369c3.63121,1.72193 7.91598,6.49 10.59782,9.70393l2.91381,1.31254c0,0 8.94427,4.47214 4.47214,13.41641z" fill="#f5efa6"/><path d="M497.95487,320.54629c-5.547,8.3205 -13.8675,2.7735 -13.8675,2.7735l-4.00947,-2.73147c-0.78551,-0.77442 -1.57101,-1.54885 -2.35652,-2.32327c-1.52494,-1.30553 -3.61287,-1.76629 -5.495,-2.46447c-4.22927,-1.56884 -8.47109,-3.15193 -12.50979,-5.16112c-0.7275,-0.36192 -0.86267,-1.50518 -1.60566,-1.83415c-0.86542,-0.38318 -1.9032,0.02603 -2.83627,-0.13256c-4.69259,-0.79759 -9.26755,-2.17787 -13.91395,-3.21109c-8.88377,-1.97548 -11.68549,-2.77258 -21.17158,-4.08472c-4.83719,-0.66909 -10.34476,0.03407 -15.25811,0.03407c-9.64975,0 -19.2995,0 -28.94925,0c-6.79056,0 -13.58113,0 -20.37169,0c-1.78699,0 -3.57666,0.09785 -5.36097,0c-0.83216,-0.04564 -1.66531,-0.67003 -2.46313,-0.42908c-1.23359,0.37255 -1.97755,1.79038 -3.21658,2.14439c-1.37459,0.39274 -2.88281,-0.25882 -4.28878,0c-0.34712,0.0639 -0.29221,0.67299 -0.56742,0.89397c-1.00479,0.8068 -2.14414,1.42997 -3.21658,2.14439c-2.32899,1.55146 -5.08559,2.47229 -7.22371,4.27775c-0.67859,0.57302 -0.76806,1.61694 -1.31182,2.31919c-1.52519,1.96973 -2.22254,1.67563 -3.17198,3.67657c-0.96463,2.03297 -1.37762,4.35185 -2.6462,6.2104c-3.52456,5.16371 -6.67497,6.36952 -11.78101,9.50319c0,0 -8.57493,5.14496 -13.71989,-3.42997c-5.14496,-8.57493 3.42997,-13.71989 3.42997,-13.71989c1.82807,-1.06014 4.43204,-1.47152 5.3741,-3.36315c0.71345,-1.4326 0.90312,-3.0922 1.64258,-4.51155c1.36766,-2.62516 3.53097,-4.75457 5.40558,-7.04537c1.07199,-1.30999 1.69594,-3.00753 2.97696,-4.11398c2.07144,-1.78916 4.6182,-2.93952 6.91433,-4.42941c3.70044,-2.40111 7.96598,-6.17211 12.0994,-7.55398c1.35583,-0.45327 2.91419,0.39274 4.28878,0c1.23904,-0.35401 1.9592,-1.86241 3.21658,-2.14439c2.32675,-0.5218 10.50446,-0.42908 13.61979,-0.42908c6.79056,0 13.58113,0 20.37169,0c9.64975,0 19.2995,0 28.94925,0c5.50316,0 11.46606,-0.67009 16.90772,0.03407c10.70043,1.38465 14.08004,2.32076 23.86058,4.49283c6.2057,1.37817 15.83731,2.69341 21.84877,5.2339c1.11656,0.47187 1.60026,1.90984 2.68312,2.45463c4.24197,2.13413 9.85658,2.63901 14.05113,4.8381c2.37687,1.24613 4.36205,3.12761 6.54308,4.69142c0.64409,0.65517 1.28817,1.31034 1.93226,1.96551l2.4237,1.55731c0,0 8.3205,5.547 2.7735,13.8675z" fill="#f5efa6"/><path d="M509.87626,358.80569c0.31795,1.18781 0.31795,2.09967 0.31795,2.09967v3.21658c-0.10727,1.79665 0.17398,3.65974 -0.32181,5.38996c-0.35497,1.23876 -1.8935,1.95262 -2.14439,3.21658c-0.40588,2.04477 0.45159,4.172 0.26562,6.24835c-0.31238,3.4878 -2.35837,10.71916 -4.28051,13.74855c-3.35694,5.29073 -9.60693,7.74754 -14.87888,10.29974c-1.51519,0.73351 -2.74561,2.04019 -4.33834,2.58521c-1.01444,0.34713 -2.18963,-0.30817 -3.21658,0c-0.69609,0.20888 -0.98988,1.10068 -1.62551,1.45302c-2.03688,1.12908 -4.08113,2.35199 -6.33008,2.95693c-1.69812,0.45677 -3.52617,-0.03895 -5.27289,0.16413c-1.81018,0.21045 -3.54922,0.8756 -5.36097,1.07219c-1.19659,0.12984 -2.436,-0.36643 -3.6095,-0.09883c-1.87648,0.4279 -3.47589,1.75612 -5.36097,2.14439c-4.31383,0.88853 -8.80807,0.13533 -13.21245,0.13533c-65.40386,0 -130.80772,0 -196.21158,0c-46.81916,0 -93.63831,0 -140.45747,0c-11.08292,0 -22.16583,0 -33.24875,0c-8.7985,0 -17.6357,0.79415 -26.39549,-0.03031c-4.10203,-0.38607 -8.08653,-1.60544 -12.1654,-2.18721c-6.55077,-0.93435 -13.16595,-1.344 -19.74165,-2.08274c-8.60637,-0.04806 -16.20935,-1.25387 -24.10156,-4.9355c-2.064,-0.96283 -4.28427,-1.75578 -6.02196,-3.22805c-1.68858,-1.43066 -6.84039,-8.70056 -7.73356,-11.09012c-0.29552,-0.79062 0.51619,-1.71918 0.24909,-2.51984c-0.15231,-0.45657 -1.04758,-0.21915 -1.29961,-0.62919c-1.34753,-2.19239 -2.65442,-4.47602 -3.35944,-6.95096c-0.50074,-1.75783 -0.00608,-3.66097 -0.18176,-5.48026c-0.48478,-5.02025 -2.07108,-9.08362 -0.52016,-14.12374c0.2973,-0.96617 1.60451,-1.28976 2.14439,-2.14439c0.11889,-0.1882 -0.55035,-0.12481 -0.5709,-0.34646c-0.16019,-1.72774 -0.4009,-3.53129 0.05619,-5.20515c0.88424,-3.2381 1.50508,-6.93243 3.90041,-9.28394c1.43951,-1.41318 4.19929,0.37109 6.03358,-0.46834c0.69539,-0.31823 -0.4627,-1.68767 0.00306,-2.29422c1.44543,-1.88237 3.22397,-3.65084 5.35858,-4.68816c1.28581,-0.62484 2.90663,0.36524 4.28878,0c0.46533,-0.12297 0.41946,-0.86641 0.62919,-1.29961c1.42959,-0.7148 2.94614,-1.27723 4.28878,-2.14439c1.32311,-0.85455 2.17767,-2.45552 3.65959,-2.98917c2.024,-0.72887 4.78308,0.85806 6.4325,-0.52298c1.65275,-1.38383 2.87283,-1.17317 4.69659,-2.26571c0.2129,-0.12755 6.99823,-2.64017 10.12416,-3.087c0.67004,-0.09578 4.69973,-1.2583 5.55161,-1.62968c2.57285,-1.12164 6.34954,-2.45184 8.84558,-3.38017c4.349,-1.61748 5.92896,-2.18136 10.32684,-3.37265c4.20373,-1.13869 6.22446,-2.04211 10.47627,-2.98559c1.65627,-0.36752 5.22417,-1.36765 6.91305,-1.52888c3.08629,-0.29463 6.60433,-0.83572 9.67518,-1.26218c3.75501,-0.52146 7.48909,-0.90776 11.31512,-0.90776c2.57573,0.04292 5.09966,-0.74245 7.66118,-1.016c10.74757,-1.14776 22.28476,-0.05619 33.08221,-0.05619c5.64705,0 10.50361,-1.07579 15.98859,0.32181c1.24871,0.31818 5.13577,1.73159 6.35648,2.14439c0.87436,0.29567 4.61931,1.69193 6.18293,2.02321c2.4748,0.52433 5.13098,-0.26306 7.58015,0.37027c0.97868,0.25308 9.02702,1.29117 11.0974,1.8953c1.25158,0.36521 6.76091,4.1205 8.42004,5.22659c2.06219,2.02339 6.85372,1.47056 9.59584,2.5981c1.58678,0.65247 8.99173,3.65668 10.55791,4.21854c1.31651,0.47228 7.69168,3.70986 9.65042,4.83799c2.77817,1.60008 5.16435,4.62199 8.50211,5.51368c0.93793,0.25057 6.38544,1.70163 8.27271,2.07908c1.75229,0.35046 5.87638,0.87061 7.62867,1.22107c1.88727,0.37746 8.6359,1.72265 10.0967,1.91638c3.46771,0.45988 7.36621,-0.05619 10.87776,-0.05619c8.57756,0 17.15511,0 25.73267,0c3.56329,0 7.16223,-0.12352 10.72194,0c0.50199,0.01742 1.01734,0.36068 1.49344,0.20063c1.51502,-0.50929 6.18077,-1.72753 7.05513,-2.02321c1.22071,-0.4128 9.32143,-1.54881 12.24437,-2.26557c1.55234,-0.38067 7.49818,-1.87454 8.57756,-2.14439c1.55061,-0.38765 6.98431,-2.09448 8.31214,-2.28883c3.50472,-0.51298 6.54542,-2.533 10.08735,-2.56471c2.01528,0.27074 4.29022,-0.00666 6.26098,-0.50744c1.01788,-0.25865 7.93319,-0.20063 9.22851,-0.20063c0.54926,0 9.93102,-0.01929 10.56612,0.05619c1.46329,0.17391 2.8324,0.84762 4.28878,1.07219c2.7162,0.41883 5.98158,-0.05619 8.73338,-0.05619c6.43317,0 12.86633,0 19.2995,0c5.00226,0 11.00022,-0.67367 15.9271,0.05619c2.91537,0.43188 5.66756,1.67775 8.57756,2.14439c3.58023,0.57412 7.25179,-0.05619 10.87776,-0.05619c2.0289,0.1903 4.15148,-0.0675 6.08671,0.5709c0.95999,0.31668 6.04833,0.08237 7.64551,0.48822c1.5491,0.39364 4.22917,0.7241 5.789,1.07281c1.57457,0.352 5.64841,1.47117 6.76987,1.61135c1.77319,0.22165 3.80424,0.619 5.57528,0.85726c2.48449,0.33425 4.0963,1.31681 6.57743,1.67511c1.47849,0.21351 4.11971,1.1048 5.54517,1.55152c1.22964,0.38536 5.79743,0.90625 6.84581,1.35019c1.91921,0.81271 4.60471,0.4037 6.42626,1.41652c2.36344,1.31411 6.38393,3.02617 8.48895,3.47998c2.34399,0.50533 4.4854,1.69699 6.7281,2.54549c0,0 6.56488,2.62595 4.39662,9.15268z" data-paper-data="{&quot;index&quot;:null}" fill="#d59213"/><path d="M-17.90739,345.80563c-2.16826,-6.52673 4.39662,-9.15268 4.39662,-9.15268c2.2427,-0.8485 4.38411,-2.04016 6.7281,-2.54549c2.10502,-0.45381 6.12551,-2.16587 8.48895,-3.47998c1.82155,-1.01282 4.50705,-0.60381 6.42626,-1.41652c1.04838,-0.44394 5.61617,-0.96483 6.84581,-1.35019c1.42546,-0.44672 4.06668,-1.33801 5.54517,-1.55152c2.48113,-0.3583 4.09294,-1.34086 6.57743,-1.67511c1.77104,-0.23826 3.80209,-0.63561 5.57528,-0.85726c1.12146,-0.14018 5.1953,-1.25935 6.76987,-1.61135c1.55983,-0.34871 4.2399,-0.67917 5.789,-1.07281c1.59718,-0.40585 6.68552,-0.17154 7.64551,-0.48822c1.93523,-0.6384 4.05781,-0.3806 6.08671,-0.5709c3.62597,0 7.29753,0.63031 10.87776,0.05619c2.91,-0.46664 5.66219,-1.71251 8.57756,-2.14439c4.92688,-0.72986 10.92484,-0.05619 15.9271,-0.05619c6.43317,0 12.86633,0 19.2995,0c2.7518,0 6.01718,0.47502 8.73338,0.05619c1.45638,-0.22457 2.82549,-0.89828 4.28878,-1.07219c0.6351,-0.07548 10.01686,-0.05619 10.56612,-0.05619c1.29532,0 8.21063,-0.05802 9.22851,0.20063c1.97076,0.50078 4.2457,0.77818 6.26098,0.50744c3.54193,0.03171 6.58263,2.05173 10.08735,2.56471c1.32783,0.19435 6.76153,1.90118 8.31214,2.28883c1.07938,0.26985 7.02522,1.76372 8.57756,2.14439c2.92294,0.71676 11.02366,1.85277 12.24437,2.26557c0.87436,0.29568 5.54011,1.51392 7.05513,2.02321c0.4761,0.16005 0.99145,-0.18321 1.49344,-0.20063c3.55971,-0.12352 7.15865,0 10.72194,0c8.57756,0 17.15511,0 25.73267,0c3.51155,0 7.41005,0.51607 10.87776,0.05619c1.4608,-0.19373 8.20943,-1.53892 10.0967,-1.91638c1.75229,-0.35046 5.87638,-0.87061 7.62867,-1.22107c1.88727,-0.37745 7.33478,-1.82851 8.27271,-2.07908c3.33776,-0.89169 5.72394,-3.9136 8.50211,-5.51368c1.95874,-1.12813 8.33391,-4.36571 9.65042,-4.83799c1.56618,-0.56186 8.97113,-3.56607 10.55791,-4.21854c2.74212,-1.12754 7.53365,-0.57471 9.59584,-2.5981c1.65913,-1.10609 7.16846,-4.86138 8.42004,-5.22659c2.07038,-0.60413 10.11872,-1.64222 11.0974,-1.8953c2.44917,-0.63333 5.10535,0.15406 7.58015,-0.37027c1.56362,-0.33128 5.30857,-1.72754 6.18293,-2.02321c1.22071,-0.4128 5.10777,-1.82621 6.35648,-2.14439c5.48498,-1.3976 10.34154,-0.32181 15.98859,-0.32181c10.79745,0 22.33464,-1.09157 33.08221,0.05619c2.56152,0.27355 5.08545,1.05892 7.66118,1.016c3.82603,0 7.56011,0.3863 11.31512,0.90776c3.07085,0.42646 6.58889,0.96755 9.67518,1.26218c1.68888,0.16123 5.25678,1.16136 6.91305,1.52888c4.25181,0.94348 6.27254,1.8469 10.47627,2.98559c4.39788,1.19129 5.97784,1.75517 10.32684,3.37265c2.49604,0.92833 6.27273,2.25853 8.84558,3.38017c0.85188,0.37138 4.88157,1.5339 5.55161,1.62968c3.12593,0.44683 9.91126,2.95945 10.12416,3.087c1.82376,1.09254 3.04384,0.88188 4.69659,2.26571c1.64942,1.38104 4.4085,-0.20589 6.4325,0.52298c1.48192,0.53365 2.33648,2.13462 3.65959,2.98917c1.34264,0.86716 2.85919,1.42959 4.28878,2.14439c0.20973,0.4332 0.16386,1.17664 0.62919,1.29961c1.38215,0.36524 3.00297,-0.62484 4.28878,0c2.13461,1.03732 3.91315,2.80579 5.35858,4.68816c0.46576,0.60655 -0.69233,1.97599 0.00306,2.29422c1.83429,0.83943 4.59407,-0.94484 6.03358,0.46834c2.39533,2.35151 3.01617,6.04584 3.90041,9.28394c0.45709,1.67386 0.21638,3.47741 0.05619,5.20515c-0.02055,0.22165 -0.68979,0.15826 -0.5709,0.34646c0.53988,0.85463 1.84709,1.17822 2.14439,2.14439c1.55092,5.04012 -0.03538,9.10349 -0.52016,14.12374c-0.17568,1.81929 0.31898,3.72243 -0.18176,5.48026c-0.70502,2.47494 -2.01191,4.75857 -3.35944,6.95096c-0.25203,0.41004 -1.1473,0.17262 -1.29961,0.62919c-0.2671,0.80066 0.54461,1.72922 0.24909,2.51984c-0.89317,2.38956 -6.04498,9.65946 -7.73356,11.09012c-1.73769,1.47227 -3.95796,2.26522 -6.02196,3.22805c-7.89221,3.68163 -15.49519,4.88744 -24.10156,4.9355c-6.5757,0.73874 -13.19088,1.14839 -19.74165,2.08274c-4.07887,0.58177 -8.06337,1.80114 -12.1654,2.18721c-8.75979,0.82446 -17.59699,0.03031 -26.39549,0.03031c-11.08292,0 -22.16583,0 -33.24875,0c-46.81916,0 -93.63831,0 -140.45747,0c-65.40386,0 -130.80772,0 -196.21158,0c-4.40438,0 -8.89862,0.7532 -13.21245,-0.13533c-1.88508,-0.38827 -3.48449,-1.71649 -5.36097,-2.14439c-1.1735,-0.2676 -2.41291,0.22867 -3.6095,0.09883c-1.81175,-0.19659 -3.55079,-0.86174 -5.36097,-1.07219c-1.74672,-0.20308 -3.57477,0.29264 -5.27289,-0.16413c-2.24895,-0.60494 -4.2932,-1.82785 -6.33008,-2.95693c-0.63563,-0.35234 -0.92942,-1.24414 -1.62551,-1.45302c-1.02695,-0.30817 -2.20214,0.34713 -3.21658,0c-1.59273,-0.54502 -2.82315,-1.8517 -4.33834,-2.58521c-5.27195,-2.5522 -11.52194,-5.00901 -14.87888,-10.29974c-1.92214,-3.02939 -3.96813,-10.26075 -4.28051,-13.74855c-0.18597,-2.07635 0.6715,-4.20358 0.26562,-6.24835c-0.25089,-1.26396 -1.78942,-1.97782 -2.14439,-3.21658c-0.49579,-1.73022 -0.21454,-3.59331 -0.32181,-5.38996v-3.21658c0,0 0,-0.91186 0.31795,-2.09967z" fill="#d59213"/><path d="M-0.82354,368.04597c-0.04498,-0.02342 -0.08994,-0.04739 -0.13485,-0.07192c-1.16184,0.0747 -2.34043,-0.03035 -3.50685,-0.00478c0,0 -7.5,0 -7.5,-7.5c0,-7.5 7.5,-7.5 7.5,-7.5c3.24792,0.15608 5.14357,-1.48179 8.44838,-2.04754c0.74116,-0.12688 4.22991,-1.53918 5.46115,-1.91942c1.48407,-0.45832 8.20241,-1.14112 10.0119,-1.3575c0.74089,-0.0886 4.95585,-1.65748 6.52125,-1.98026c2.80028,-0.5774 11.31724,-1.75075 12.86634,-2.14439c0.86365,-0.21946 14.51223,-1.84842 16.08292,-2.14439c1.25133,-0.23579 9.81768,-0.20063 12.44509,-0.20063c10.36455,0 20.72909,0 31.09364,0c2.50179,0 13.88287,-1.55012 15.43197,-1.94376c4.19816,-1.06678 10.2991,-0.20063 14.58948,-0.20063c11.43674,0 22.87348,0 34.31022,0c15.72552,0 31.45104,0 47.17656,0c8.98195,0 17.60749,-0.09319 26.4717,1.10869c1.53914,0.20869 3.16687,-0.17301 4.65093,0.28531c1.23124,0.38024 6.01204,0.76746 6.81027,0.96725c1.86705,0.46731 9.18265,2.68127 11.41703,3.32153c1.23876,0.35497 5.81288,1.71397 7.05512,2.02321c1.551,0.3861 6.79396,1.88323 7.9556,2.26557c1.22402,0.40287 4.01596,1.01659 4.37883,0.98918c2.85106,-0.21539 5.59931,0.8334 8.45851,0.8334c2.49443,0 4.00568,0.29025 6.40485,-0.39253c1.2394,-0.35272 3.06077,-1.03736 4.28809,-1.43005c1.33171,-0.42609 6.28438,-1.15182 7.40518,-1.29716c0.901,-0.11685 4.0855,-0.63913 4.54647,-0.98161c1.15909,-0.86114 2.3407,-1.70683 3.61238,-2.39084c2.05102,-1.10319 4.10434,-2.27152 6.33008,-2.95693c0.66978,-0.20626 3.49919,-1.05932 4.21399,-1.77412c5.95654,-0.50544 9.50537,-3.3645 15.60729,-4.76284c1.13778,-0.26074 8.23261,-1.84843 10.72195,-2.14439c0.88131,-0.10478 3.80442,-1.35365 4.76441,-1.67033c1.93523,-0.6384 4.05198,-0.45894 6.08671,-0.5709c5.31504,-0.29246 10.76366,0 16.08292,0c14.502,0 29.00451,-0.03642 43.50638,0.02555c3.73593,0.62266 7.55454,0.61329 11.30471,1.14348c1.11906,0.15821 15.47872,-0.19728 21.34371,1.29716c1.24872,0.31818 6.13593,1.73402 7.50536,2.14439c1.61255,0.48322 5.20773,1.83895 6.71668,2.58521c3.4183,1.69054 5.37027,1.71408 8.74371,3.42745c1.90854,0.96935 3.02321,3.16815 4.96087,4.07791c3.33097,1.56395 6.48719,-0.0392 9.22235,4.49643c5.33318,8.84385 -1.01051,16.40855 -6.69037,21.97953c-2.50927,1.67285 -4.36814,4.5155 -7.24576,5.41781c-7.06016,2.21378 -14.97719,-0.89124 -22.04045,0.47406c-2.2193,0.42898 -4.19408,1.83485 -6.43317,2.14439c-8.85986,1.22483 -19.06228,0.09684 -28.00623,0.09684c-40.02859,0 -80.05718,0 -120.08578,0c-71.12223,0 -142.24446,0 -213.36669,0c-5.77034,0 -11.58212,-0.74725 -17.31093,-0.05619c-2.92597,0.35296 -5.65476,1.76603 -8.57756,2.14439c-0.48935,0.06335 -9.05354,0.05619 -11.63832,0.05619c-6.79056,0 -13.58113,0 -20.37169,0c-6.68113,0 -14.62035,1.15567 -20.85035,-2.0457c-4.73374,-2.4325 -7.20164,-7.03284 -8.74598,-11.81613z" fill="#b97e11"/><g><g data-paper-data="{&quot;index&quot;:null}" fill="#d9d393"><path d="M138.94973,286.47371c-0.25353,-3.82184 1.23632,-8.07402 4.11637,-10.431l-0.28915,-0.34599l1.09539,-0.91544c0.14004,-0.12149 0.31365,-0.20796 0.50942,-0.24298c0.57857,-0.10349 1.1315,0.28164 1.23499,0.86022c0.04397,0.24581 -0.00027,0.48698 -0.11006,0.69103l-0.91064,1.73204c-1.03868,3.53969 -0.13772,7.11719 2.04091,10.03162c0,0 0.63609,0.8532 -0.21711,1.4893c-0.13884,0.10351 -0.27194,0.16759 -0.39748,0.20233c-0.25004,0.20986 -0.54939,0.26341 -0.54939,0.26341c-1.15343,0.20631 -3.01732,0.85888 -4.16207,0.38898c-0.7868,-0.32295 -1.30941,-1.13096 -2.0954,-1.45585l-0.66776,-0.66107c0,0 -0.6361,-0.8532 0.21711,-1.4893c0.06287,-0.04686 0.12455,-0.08566 0.1849,-0.11729z"/><path d="M130.65262,295.72699l-0.27847,-0.14023c0.13261,-0.34587 0.18745,-0.57838 0.22763,-0.44532c-0.00622,0.08341 0.00457,0.14376 0.00457,0.14376l0.02065,0.00106c0.00749,0.06263 0.01495,0.14278 0.02293,0.24258l0.50202,-0.21552l0.54559,0.02814c-0.01917,-0.08333 -0.03978,-0.16187 -0.06167,-0.23588l0.0181,-0.00777c0,0 -0.02116,-0.11829 -0.09958,-0.2324c-0.33379,-0.85935 -0.87519,-0.92997 -1.2982,-0.70158l-0.03926,-0.74501c-0.00093,-0.02451 -0.00358,-0.04926 -0.00802,-0.07409c-0.05174,-0.28929 -0.3282,-0.48185 -0.61749,-0.43011c-0.23062,0.04125 -0.39978,0.22532 -0.43268,0.44485l-0.14241,0.81887c-0.0481,0.12909 -0.09585,0.24255 -0.14403,0.34198c-0.27029,-1.28656 -0.72824,-2.67478 -0.22672,-3.5698c0.36647,-0.65398 1.33484,-0.68277 2.00225,-1.02415c1.68494,-1.62977 4.70769,-3.68091 7.1945,-3.42937c0.91378,0.09244 2.26204,1.36283 3.10017,1.56119c0.47217,0.11176 0.98209,0.10429 1.51506,0.02479c0.00493,0.0044 0.0099,0.00882 0.01489,0.01326l-0.40352,0.07218c-0.28929,0.05174 -0.48186,0.3282 -0.43012,0.61749c0.02032,0.11359 0.07528,0.21227 0.15207,0.2871c-0.04608,0.09681 -0.06343,0.20843 -0.04311,0.32202c0.05174,0.28929 0.32822,0.48185 0.6175,0.43011c0.06221,-0.01113 0.11995,-0.03265 0.17174,-0.06244l0.37015,-0.20161c0.42154,-0.0129 0.82095,-0.07486 1.11248,-0.34725c0.05583,-0.05216 0.09739,-0.11286 0.12871,-0.17972l0.25826,-0.08027c0.25679,-0.07575 0.42084,-0.33426 0.37261,-0.60392c-0.04022,-0.22484 -0.21617,-0.39124 -0.42839,-0.42994l-0.01603,-0.00331c0.02906,-0.08264 0.07004,-0.15845 0.12906,-0.22379c0.23562,-0.26085 1.41553,-0.38392 2.51069,-0.43091c0.78204,0.63405 1.23271,0.75325 1.79164,0.52929l0.04924,0.10969l0.92086,-0.41341c0.05122,-0.02167 0.09788,-0.05094 0.13886,-0.08618c0.30337,0.33788 0.60291,0.69569 0.99774,0.85884c0.73104,0.30209 1.54541,0.43814 2.40395,0.48118l0.0374,0.14866c0.14292,0.06993 0.29688,0.11797 0.45552,0.14826l-0.03495,0.03579l0.32741,0.31975l-0.00971,0.01042l0.44809,0.41771c0.11857,0.11295 0.2875,0.16983 0.46106,0.13879c0.28929,-0.05174 0.48185,-0.32821 0.43011,-0.61749c-0.0207,-0.11575 -0.07737,-0.21601 -0.15645,-0.29133l-0.04847,-0.04733c0.14397,-0.06432 0.27582,-0.19098 0.39216,-0.31311c0.7941,-0.05549 1.59616,-0.13392 2.37978,-0.1861l-0.06461,-0.36124l1.70842,-0.30558c0.57857,-0.10349 1.1315,0.28164 1.23499,0.86022c0.08429,0.47125 -0.15558,0.92549 -0.5601,1.13371l-0.8929,0.48634c-0.75644,0.56843 -0.04059,1.4877 0.85721,2.21694c-0.34314,1.39615 0.51978,3.24219 1.38971,4.23924c0.19962,0.22879 0.4184,0.42012 0.65269,0.57721c0.00129,0.01999 0.0037,0.04009 0.00731,0.06027c0.02143,0.11983 0.08143,0.22306 0.16492,0.29921l0.01654,0.01543c0.02117,0.22807 0.00471,0.46831 -0.00729,0.70815c-0.02363,0.02455 -0.04676,0.0527 -0.06916,0.08486c-0.30413,0.43663 0.1325,0.74076 0.1325,0.74076l0.943,-0.53118c-0.09276,-0.02839 0.35568,-0.46296 0.43336,-0.8144c1.73731,0.17761 3.7767,-0.68802 5.27853,-1.8597c0.01055,0.00204 0.02122,0.00377 0.03195,0.00518l0.15036,0.84061c0.05174,0.28929 0.3282,0.48185 0.61749,0.43011c0.11983,-0.02143 0.22307,-0.08142 0.29921,-0.16491l0.41825,-0.4487l-0.04645,-0.04331l0.14182,-0.09972c0.03882,-0.31028 0.06594,-0.6221 0.08383,-0.9346l0.02004,0.00762l0.0182,-0.04788c0.09143,-0.06816 0.23762,-0.17715 0.37463,-0.27931l0.13818,0.18536c0.11568,0.16215 0.31809,0.25239 0.52719,0.21499c0.0699,-0.0125 0.13414,-0.03811 0.19066,-0.07386c0.86922,1.31232 1.06375,3.09791 1.32237,4.5438c0,0 0.18739,1.04759 -0.86021,1.23497c-0.06916,0.01237 -0.13458,0.01936 -0.19644,0.02163c-0.48189,0.71951 -1.17604,1.32474 -1.94075,1.70396c-0.04567,0.03437 -0.09119,0.06828 -0.13654,0.10178c-0.37662,-0.31986 -0.89751,-0.48898 -1.37644,-0.61674l0.05037,0.45821l-0.0472,0.00249l-0.05718,-0.04807l-0.04494,0.05346l-0.0279,0.00146c-0.34709,-0.54338 -0.76811,-0.44744 -1.20845,-0.13997c0.25515,-0.57947 1.19508,-0.68381 0.38358,-1.79089c-0.22195,-0.3028 -0.70703,-0.45529 -1.06886,-0.35512c-0.88666,0.24548 -0.94417,1.24127 -0.59108,2.11469c-0.90326,-0.34186 -2.04317,-0.00683 -2.91991,-0.44549c-0.88569,-0.44314 -1.21074,-1.68619 -2.11777,-2.08385c-1.56977,-0.68822 -3.3845,-0.58342 -5.0334,-1.05135c-1.30898,-0.37147 -2.4699,-1.23721 -3.81238,-1.45897c-0.40598,-0.06706 -0.73339,0.92481 -1.0454,0.65653c-0.18224,-0.1567 -0.30362,-0.36657 -0.39478,-0.60167c3.23734,-1.2721 -0.05151,-3.36984 -2.72984,-3.51242c0,0 -0.5996,-0.04084 -0.86695,-0.51169l-0.00002,0.00003c-0.28305,0.04729 -0.56608,0.09456 -0.84913,0.14184c-0.42226,0.22999 -0.81625,0.52202 -1.26679,0.68999c-0.53727,0.2003 -1.63655,-0.41077 -1.71295,0.1575c-0.00153,0.0114 -0.00153,0.02183 -0.00013,0.03141c-1.08468,-0.21897 -2.16081,-0.51285 -3.26333,-0.53534c-2.00222,-0.04085 -4.15994,-0.33912 -5.98899,0.47645c-1.03501,0.4615 -1.69348,1.49438 -2.26018,2.53398c-0.50378,-0.5099 -1.07234,-0.90274 -1.68538,-1.19573z"/><path d="M129.29579,295.68983l0.02301,0.12862c-0.04153,-0.01171 -0.08319,-0.02305 -0.12498,-0.03404c0.03448,-0.02957 0.06845,-0.06108 0.10198,-0.09458z"/><path d=""/><path d="M152.54724,296.83263c0,0 0.91511,-0.54328 1.45839,0.37182c0.30805,0.51889 0.14721,0.91823 -0.04982,1.16676c-0.48217,-0.21152 -0.97245,-0.39255 -1.48967,-0.47799c-0.40598,-0.06706 -0.73339,0.92481 -1.0454,0.65653c-0.22366,-0.19231 -0.35566,-0.46471 -0.45261,-0.76555c0.51802,-0.29993 1.03763,-0.6301 1.5791,-0.95156z"/><path d=""/><path d=""/><path d=""/><path d=""/><path d="M157.24926,290.40751c0.88907,-0.5849 1.47398,0.30419 1.47398,0.30419l0.60357,0.9175c0.27823,0.41799 0.56852,0.78952 0.87294,1.11551c-0.16296,1.02954 0.26272,2.25718 0.83627,3.20547c-1.32756,-0.6324 -2.47958,-1.68276 -3.47955,-3.13936l-0.6114,-0.92932c0,0 -0.58491,-0.88907 0.30419,-1.47399z"/><path d="M125.22136,286.11598c0.02299,-0.11722 0.97406,-3.31604 1.00588,-3.35451c0.04375,-0.05293 0.08886,-0.10451 0.13515,-0.15484l-0.02244,-0.01797l1.18834,-1.48473c0.15553,-0.19643 0.38068,-0.33903 0.64671,-0.38662c0.57857,-0.10349 1.1315,0.28164 1.23498,0.86021c0.01937,0.10831 0.02161,0.21573 0.00867,0.31946l-0.12233,1.20348c0.3595,4.52522 1.17348,11.6649 7.28222,11.24728c0,0 0.04884,-0.00257 0.12613,0.00385c-0.81816,0.05574 -1.61456,0.20328 -2.35683,0.53425c-1.03501,0.4615 -1.69348,1.49438 -2.26018,2.53398c-1.78937,-1.81112 -4.39615,-2.14534 -6.90977,-1.77432c-0.96838,-3.02903 -0.43395,-7.09565 0.04346,-9.52953z"/><path d="M127.23979,284.22779l-0.20214,0.68188c-0.19371,0.77673 -0.45375,1.53982 -0.77474,2.27317c-0.57771,2.80464 -0.18464,6.17644 1.55572,8.36591c-0.81011,-0.07186 -1.64463,-0.03847 -2.4713,0.07285c-1.43411,-2.64721 -1.73224,-6.08668 -1.11319,-9.08251c0.3001,-0.69144 0.55935,-1.40531 0.73668,-2.13792l0.22736,-0.77519c0,0 0.30091,-1.0208 1.32171,-0.71989c1.02081,0.3009 0.7199,1.3217 0.7199,1.3217z"/><path d="M142.60978,279.97487l-0.4286,0.9021c-0.62589,1.15693 -1.17971,3.86998 -0.7742,5.18425c0.15595,0.50545 1.13843,-0.30341 1.58669,-0.0226c2.44607,1.53235 1.41905,1.87328 0.29498,3.30488c0,0 -0.78905,0.71413 -1.50318,-0.07492c-0.38309,-0.42329 -0.33361,-0.82502 -0.2054,-1.1065c-0.52212,0.08493 -1.33613,-0.05884 -1.97908,-0.97451c-1.11374,-1.58613 -0.05927,-5.72835 0.67918,-7.26792l0.40686,-0.85764c0,0 0.45642,-0.96137 1.41781,-0.50495c0.96138,0.45643 0.50495,1.4178 0.50495,1.4178z"/><path d="M145.99009,287.21862l0.74589,-0.00575c2.93539,0.64108 5.66635,0.36889 7.92096,2.71462c0,0 0.36851,0.38386 -0.01535,0.75237c-0.38386,0.3685 -0.75238,-0.01535 -0.75238,-0.01535c-2.05664,-2.145 -4.54982,-1.86211 -7.25508,-2.39229l-0.63144,0.01057c0,0 -0.53207,0.00631 -0.53837,-0.52577c-0.0063,-0.53208 0.52577,-0.53837 0.52577,-0.53837z"/><path d="M131.79957,289.40442l-0.08377,0.13344c1.59432,-1.81694 4.46738,-4.69163 7.20422,-2.97404c0,0 0.43663,0.30413 0.1325,0.74076c-0.30413,0.43663 -0.74076,0.1325 -0.74076,0.1325c-1.93097,-1.62926 -4.76619,1.6237 -5.79521,2.80175l-0.5296,0.21318c0,0 -0.52381,0.0937 -0.6175,-0.43011c-0.09369,-0.52381 0.43012,-0.61749 0.43012,-0.61749z"/><path d="M159.85378,295.50548l0.67644,0.26152c1.12104,0.77306 1.65884,0.95595 1.4425,2.44004c0.22952,1.2131 2.9869,-0.80683 4.15554,-1.13777c1.93818,-0.54887 2.94074,0.35968 4.63565,-0.24934c0,0 0.50128,-0.17854 0.6798,0.32274c0.17853,0.50128 -0.32274,0.67981 -0.32274,0.67981c-1.07493,0.37984 -2.61672,-0.4 -2.99541,-0.26225c-1.17934,0.42898 -5.53181,2.80538 -6.6337,2.21447c-0.43155,-0.23144 -0.512,-1.13786 -0.58322,-1.5505c0.08419,-0.57747 -0.39832,-1.1801 -0.87543,-1.51616l-0.55773,-0.20785c0,0 -0.49736,-0.18915 -0.30821,-0.68651c0.18915,-0.49736 0.68652,-0.3082 0.68652,-0.3082z"/><path d="M144.78062,293.76424l0.58708,-0.2279c3.32204,-0.60857 4.97204,-0.5521 7.56958,1.72181c0,0 0.40038,0.35049 0.04989,0.75087c-0.35049,0.40037 -0.75087,0.04989 -0.75087,0.04989c-2.33617,-2.0451 -3.56567,-2.02183 -6.57889,-1.49853l-0.48759,0.19437c0,0 -0.49524,0.1946 -0.68984,-0.30065c-0.1946,-0.49526 0.30066,-0.68986 0.30066,-0.68986z"/><path d="M132.2735,290.82559l0.3504,0.38147c1.21552,1.99738 2.44514,2.55845 4.71401,2.15262c0,0 0.5238,-0.0937 0.61749,0.43011c0.05223,0.29199 -0.08742,0.45033 -0.22126,0.53329c-0.74972,-0.00428 -1.49267,0.03518 -2.20505,0.18574c-1.5897,-0.17499 -2.74442,-1.06372 -3.80828,-2.73871l-0.21504,-0.20751c0,0 -0.3685,-0.38385 0.01535,-0.75237c0.38386,-0.3685 0.75237,0.01535 0.75237,0.01535z"/></g><g data-paper-data="{&quot;index&quot;:null}"><path d="M137.94364,285.11089c-0.25353,-3.82184 1.23632,-8.07402 4.11636,-10.431l-0.28915,-0.34599l1.09539,-0.91544c0.14003,-0.1215 0.31365,-0.20796 0.50942,-0.24298c0.57858,-0.10349 1.1315,0.28164 1.23499,0.86022c0.04397,0.24581 -0.00027,0.48698 -0.11005,0.69103l-0.91064,1.73204c-1.03869,3.53968 -0.13773,7.11718 2.0409,10.03163c0,0 0.63609,0.8532 -0.21711,1.4893c-0.13884,0.10351 -0.27194,0.16759 -0.39748,0.20232c-0.25004,0.20987 -0.5494,0.26342 -0.5494,0.26342c-1.15343,0.20631 -3.01731,0.85887 -4.16208,0.38897c-0.7868,-0.32296 -1.3094,-1.13095 -2.0954,-1.45584l-0.66776,-0.66107c0,0 -0.63609,-0.8532 0.21711,-1.4893c0.06287,-0.04687 0.12456,-0.08565 0.1849,-0.11729z" fill="#ede3bf"/><path d="M127.87327,295.30479c0.10162,-0.22875 0.14822,-0.4863 0.15701,-0.76371c0.0898,-0.05973 0.17599,-0.13069 0.25942,-0.21407l0.07945,0.44418c0.05174,0.28928 0.32821,0.48186 0.6175,0.43011c0.17355,-0.03104 0.31228,-0.14297 0.38435,-0.29l0.27553,-0.54713l-0.27847,-0.14023c0.13261,-0.34587 0.18745,-0.57838 0.22764,-0.44532c-0.00623,0.08341 0.00457,0.14376 0.00457,0.14376l0.02064,0.00106c0.0075,0.06264 0.01496,0.14278 0.02294,0.24258l0.50202,-0.21551l0.54559,0.02813c-0.01917,-0.08333 -0.03978,-0.16187 -0.06167,-0.23588l0.0181,-0.00777c0,0 -0.02116,-0.11829 -0.09958,-0.2324c-0.33379,-0.85935 -0.8752,-0.92997 -1.2982,-0.70158l-0.03925,-0.74502c-0.00093,-0.02451 -0.00358,-0.04925 -0.00802,-0.07408c-0.05174,-0.28928 -0.32821,-0.48185 -0.61749,-0.43011c-0.23063,0.04125 -0.39978,0.22532 -0.43268,0.44485l-0.14241,0.81887c-0.0481,0.12909 -0.09585,0.24255 -0.14403,0.34198c-0.27028,-1.28656 -0.72824,-2.67478 -0.22672,-3.5698c0.36647,-0.65398 1.33483,-0.68276 2.00225,-1.02415c1.68494,-1.62978 4.70769,-3.68091 7.19451,-3.42937c0.91378,0.09243 2.26203,1.36282 3.10016,1.56118c0.47217,0.11175 0.98209,0.10429 1.51506,0.02479c0.00493,0.0044 0.0099,0.00883 0.01488,0.01325l-0.40353,0.07218c-0.28928,0.05174 -0.48186,0.32821 -0.43012,0.61749c0.02032,0.11359 0.07528,0.21227 0.15207,0.2871c-0.04608,0.09681 -0.06343,0.20843 -0.04311,0.32202c0.05174,0.28928 0.32821,0.48185 0.6175,0.43011c0.0622,-0.01113 0.11995,-0.03265 0.17174,-0.06245l0.37016,-0.20162c0.42154,-0.0129 0.82095,-0.07486 1.11247,-0.34725c0.05583,-0.05215 0.09739,-0.11286 0.12871,-0.17971l0.25826,-0.08028c0.25679,-0.07575 0.42084,-0.33426 0.37261,-0.60392c-0.04022,-0.22484 -0.21617,-0.39124 -0.42839,-0.42995l-0.01603,-0.00331c0.02908,-0.08263 0.07004,-0.15845 0.12905,-0.22379c0.23562,-0.26085 1.41552,-0.38392 2.51069,-0.43091c0.78203,0.63406 1.23271,0.75325 1.79164,0.52929l0.04924,0.10969l0.92086,-0.41341c0.05122,-0.02167 0.09788,-0.05093 0.13886,-0.08618c0.30336,0.33788 0.60291,0.69569 0.99774,0.85884c0.73104,0.30209 1.54541,0.43815 2.40395,0.48119l0.0374,0.14866c0.14291,0.06992 0.29688,0.11797 0.45553,0.14825l-0.03496,0.0358l0.32742,0.31974l-0.00971,0.01042l0.4481,0.41771c0.11857,0.11295 0.2875,0.16983 0.46105,0.13879c0.28928,-0.05174 0.48185,-0.32821 0.43011,-0.61749c-0.0207,-0.11574 -0.07737,-0.21601 -0.15645,-0.29133l-0.04846,-0.04734c0.14397,-0.06432 0.27582,-0.19098 0.39216,-0.31311c0.7941,-0.05548 1.59616,-0.13391 2.37978,-0.18609l-0.06461,-0.36124l1.70842,-0.30558c0.57858,-0.10349 1.1315,0.28164 1.23499,0.86022c0.08429,0.47125 -0.15559,0.92549 -0.5601,1.13371l-0.8929,0.48634c-0.75644,0.56843 -0.04058,1.4877 0.85721,2.21694c-0.34314,1.39614 0.51978,3.24219 1.38971,4.23924c0.19961,0.22879 0.4184,0.42012 0.65269,0.5772c0.00129,0.01998 0.0037,0.04009 0.00731,0.06027c0.02143,0.11983 0.08143,0.22307 0.16491,0.29921l0.01654,0.01542c0.02117,0.22806 0.00471,0.46831 -0.00728,0.70814c-0.02362,0.02454 -0.04675,0.0527 -0.06916,0.08486c-0.30413,0.43663 0.1325,0.74076 0.1325,0.74076l0.94301,-0.53119c-0.09276,-0.02839 0.35568,-0.46296 0.43336,-0.8144c1.73731,0.1776 3.7767,-0.68803 5.27853,-1.8597c0.01055,0.00204 0.0212,0.00377 0.03195,0.00517l0.15036,0.84061c0.05174,0.28928 0.32821,0.48186 0.61749,0.43012c0.11983,-0.02143 0.22307,-0.08142 0.29921,-0.1649l0.41825,-0.4487l-0.04645,-0.04331l0.14182,-0.09973c0.03882,-0.31028 0.06594,-0.6221 0.08383,-0.9346l0.02004,0.00762l0.01822,-0.04788c0.09143,-0.06816 0.23762,-0.17716 0.37463,-0.27931l0.13819,0.18537c0.11568,0.16216 0.31808,0.25239 0.52718,0.21499c0.0699,-0.0125 0.13415,-0.03813 0.19067,-0.07388c0.86922,1.31232 1.06374,3.0979 1.32237,4.5438c0,0 0.18738,1.0476 -0.86022,1.23499c-0.06916,0.01237 -0.13458,0.01936 -0.19644,0.02163c-0.48189,0.71951 -1.17604,1.32475 -1.94075,1.70396c-0.04566,0.03437 -0.09118,0.06828 -0.13654,0.10178c-0.37662,-0.31986 -0.89751,-0.48898 -1.37644,-0.61674l0.05037,0.45821l-0.0472,0.00249l-0.05718,-0.04808l-0.04495,0.05346l-0.02789,0.00146c-0.34709,-0.54338 -0.76811,-0.44745 -1.20845,-0.13997c0.25516,-0.57947 1.19508,-0.68381 0.38357,-1.79088c-0.22195,-0.3028 -0.70703,-0.45529 -1.06886,-0.35512c-1.07096,0.29651 -0.93225,1.6877 -0.32141,2.63567c-0.07749,0.06136 -0.1631,0.14191 -0.25795,0.24465c-0.09541,0.10332 -0.16037,0.2218 -0.20476,0.35054l-0.09861,-0.03512l-0.03525,0.09897c-0.55321,-0.01427 -1.10916,-0.02355 -1.58695,-0.26261c-0.88569,-0.44314 -1.21074,-1.68619 -2.11777,-2.08385c-1.56977,-0.68822 -3.3845,-0.58342 -5.0334,-1.05135c-1.30898,-0.37147 -2.4699,-1.23721 -3.81238,-1.45897c-0.40598,-0.06706 -0.73339,0.92481 -1.0454,0.65653c-0.57899,-0.49785 -0.54375,-1.5324 -0.87625,-2.20775c2.31079,-1.2793 -0.74073,-3.13534 -3.25445,-3.26916c0,0 -0.5996,-0.04084 -0.86694,-0.51169l-0.00003,0.00003c-0.28305,0.04729 -0.56608,0.09457 -0.84913,0.14185c-0.42226,0.22999 -0.81625,0.52202 -1.26679,0.68999c-0.53727,0.2003 -1.63655,-0.41077 -1.71295,0.1575c-0.02761,0.20543 0.44405,0.0989 0.55977,0.27087c0.29369,0.43647 0.5558,0.8348 0.80342,1.19225c-1.2062,-0.22014 -2.39714,-0.57927 -3.62058,-0.60423c-2.00222,-0.04085 -4.15994,-0.33912 -5.98899,0.47645c-1.03501,0.4615 -1.69348,1.49438 -2.26018,2.53398c-1.18105,-1.19541 -2.71821,-1.74741 -4.34964,-1.87788c0.05205,-0.07367 0.09758,-0.15237 0.13525,-0.23716z" fill="#eeeeee"/><path d="" fill="#eeeeee"/><path d="M151.54114,295.46983c0,0 0.91511,-0.54329 1.45839,0.37182c0.54328,0.91511 -0.37181,1.4584 -0.37181,1.4584c-0.49668,0.29487 -0.99782,0.58889 -1.50411,0.86475c-0.32097,-0.61064 -0.32251,-1.49397 -0.69523,-2.01993c0.36484,-0.22036 0.73344,-0.44983 1.11276,-0.67504z" fill="#e2e2e2"/><path d="M142.09111,293.72158c0.74527,-0.10868 1.3473,0.72817 1.8656,1.27461c0.00653,0.00689 0.01293,0.01382 0.0192,0.0208c-1.21252,-0.21982 -2.40939,-0.58251 -3.63908,-0.6076c-0.00044,-0.00001 -0.00088,-0.00002 -0.00131,-0.00003c0.30833,-0.31416 0.86491,-0.55791 1.7556,-0.68779z" fill="#e2e2e2"/><path d="" fill="#e2e2e2"/><path d="" fill="#e2e2e2"/><path d="" fill="#e2e2e2"/><path d="" fill="#e2e2e2"/><path d="" fill="#e2e2e2"/><path d="M156.24317,289.04468c0.88907,-0.5849 1.47398,0.30419 1.47398,0.30419l0.60357,0.9175c0.27823,0.41799 0.56852,0.78952 0.87294,1.11551c-0.16295,1.02954 0.26272,2.25718 0.83628,3.20547c-1.32756,-0.6324 -2.47957,-1.68277 -3.47955,-3.13936l-0.61139,-0.92932c0,0 -0.5849,-0.88907 0.30418,-1.47399z" fill="#e2e2e2"/><path d="M124.21526,284.75315c0.02299,-0.11722 0.97407,-3.31603 1.00588,-3.35451c0.04376,-0.05293 0.08886,-0.10451 0.13515,-0.15484l-0.02244,-0.01797l1.18834,-1.48473c0.15554,-0.19644 0.38068,-0.33903 0.64671,-0.38662c0.57858,-0.10349 1.1315,0.28164 1.23499,0.86022c0.01937,0.10831 0.02161,0.21573 0.00868,0.31946l-0.12233,1.20348c0.3595,4.52522 1.17348,11.66491 7.28221,11.24729c0,0 1.01923,-0.05371 1.114,0.9422c0.18533,0.10245 0.30431,0.25492 0.38065,0.40553c-0.94508,0.03524 -1.86778,0.17352 -2.71926,0.55319c-1.03501,0.4615 -1.69348,1.49438 -2.26018,2.53398c-1.88069,-1.90356 -4.66437,-2.17561 -7.29379,-1.7121c-1.77149,-3.0428 -1.13617,-8.11212 -0.57862,-10.95457z" fill="#ede3bf"/><path d="M126.23371,282.86498l-0.20214,0.68188c-0.19371,0.77673 -0.45375,1.53982 -0.77474,2.27317c-0.72868,3.53759 0.0871,7.97753 3.20296,9.80899c-1.03699,-0.16938 -2.13013,-0.14724 -3.20782,0.00576c-2.20366,-2.73952 -2.75711,-6.91019 -2.0239,-10.45851c0.3001,-0.69144 0.55935,-1.40531 0.73668,-2.13791l0.22736,-0.7752c0,0 0.30091,-1.0208 1.32171,-0.71989c1.0208,0.30091 0.71989,1.32171 0.71989,1.32171z" fill="#e6ddba"/><path d="M130.77776,296.41126c0.61732,0.08327 1.27846,0.04338 1.9508,-0.05623c-0.23301,0.33797 -0.44257,0.70098 -0.6409,1.0648c-0.40471,-0.40964 -0.85125,-0.74372 -1.32906,-1.01118c0.00638,0.00088 0.01276,0.00175 0.01915,0.00261z" fill="#e6ddba"/><path d="M141.60369,278.61206l-0.42859,0.90209c-0.62589,1.15693 -1.17971,3.86998 -0.77421,5.18425c0.15595,0.50544 1.13843,-0.30341 1.58669,-0.0226c2.44607,1.53235 1.41905,1.87328 0.29497,3.30489c0,0 -0.78905,0.71413 -1.50318,-0.07492c-0.38309,-0.42329 -0.33361,-0.82502 -0.2054,-1.1065c-0.52212,0.08493 -1.33613,-0.05884 -1.97908,-0.9745c-1.11373,-1.58613 -0.05927,-5.72835 0.67918,-7.26792l0.40686,-0.85764c0,0 0.45642,-0.96137 1.41781,-0.50495c0.96138,0.45643 0.50496,1.41781 0.50496,1.41781z" fill="#e6ddba"/><path d="M144.984,285.8558l0.74589,-0.00575c2.93539,0.64108 5.66635,0.36889 7.92096,2.71463c0,0 0.3685,0.38385 -0.01535,0.75237c-0.38385,0.3685 -0.75237,-0.01535 -0.75237,-0.01535c-2.05663,-2.14501 -4.54982,-1.8621 -7.25507,-2.39229l-0.63144,0.01057c0,0 -0.53207,0.0063 -0.53837,-0.52577c-0.0063,-0.53208 0.52577,-0.53837 0.52577,-0.53837z" fill="#f3f3f3"/><path d="M130.79349,288.0416l-0.08377,0.13344c1.59432,-1.81694 4.46738,-4.69163 7.20422,-2.97403c0,0 0.43663,0.30413 0.1325,0.74076c-0.30413,0.43663 -0.74076,0.1325 -0.74076,0.1325c-1.93097,-1.62926 -4.76619,1.62371 -5.79521,2.80175l-0.5296,0.21318c0,0 -0.52381,0.0937 -0.6175,-0.43011c-0.09369,-0.52381 0.43011,-0.6175 0.43011,-0.6175z" fill="#f3f3f3"/><path d="M158.84769,294.14265l0.67644,0.26152c1.12104,0.77306 1.65884,0.95595 1.4425,2.44004c0.22952,1.21311 2.9869,-0.80683 4.15554,-1.13777c1.93818,-0.54887 2.94074,0.35968 4.63565,-0.24934c0,0 0.50128,-0.17853 0.6798,0.32274c0.17853,0.50128 -0.32274,0.6798 -0.32274,0.6798c-1.07493,0.37984 -2.61672,-0.4 -2.99541,-0.26225c-1.17933,0.42898 -5.53181,2.80539 -6.6337,2.21447c-0.43156,-0.23143 -0.512,-1.13786 -0.58322,-1.55051c0.08418,-0.57747 -0.39832,-1.18009 -0.87542,-1.51616l-0.55773,-0.20785c0,0 -0.49736,-0.18915 -0.3082,-0.68652c0.18915,-0.49736 0.68652,-0.3082 0.68652,-0.3082z" fill="#f3f3f3"/><path d="M143.77452,292.40142l0.58708,-0.2279c3.32204,-0.60857 4.97203,-0.55209 7.56957,1.72181c0,0 0.40038,0.35049 0.04988,0.75087c-0.35049,0.40038 -0.75087,0.04989 -0.75087,0.04989c-2.33617,-2.0451 -3.56567,-2.02183 -6.57889,-1.49853l-0.48759,0.19438c0,0 -0.49525,0.1946 -0.68984,-0.30065c-0.1946,-0.49525 0.30065,-0.68985 0.30065,-0.68985z" fill="#f3f3f3"/><path d="M131.26742,289.46277l0.3504,0.38147c1.21553,1.99738 2.44514,2.55845 4.71401,2.15262c0,0 0.52381,-0.0937 0.6175,0.43011c0.09369,0.52381 -0.43011,0.6175 -0.43011,0.6175c-2.7046,0.48376 -4.34057,-0.33233 -5.80447,-2.63718l-0.21504,-0.20751c0,0 -0.3685,-0.38385 0.01535,-0.75237c0.38385,-0.3685 0.75237,0.01535 0.75237,0.01535z" fill="#f3f3f3"/></g></g><g><g fill="#d9d393"><path d="M354.38317,266.48683c0.57945,0.49168 0.08777,1.07113 0.08777,1.07113l-0.50561,0.4411c-0.57476,0.19621 -0.98353,0.74853 -1.55877,0.94333c-0.83694,0.28342 -2.13594,-0.26542 -2.94868,-0.46431c0,0 -0.21093,-0.05162 -0.37969,-0.21242c-0.0879,-0.0304 -0.17988,-0.08205 -0.27418,-0.16205c-0.57945,-0.49168 -0.08777,-1.07114 -0.08777,-1.07114c1.68365,-1.97908 2.48655,-4.48813 1.90543,-7.05744l-0.57113,-1.2753c-0.06906,-0.15035 -0.08975,-0.32421 -0.04737,-0.49741c0.09976,-0.40767 0.51112,-0.6573 0.9188,-0.55754c0.13793,0.03375 0.25778,0.10318 0.35212,0.19607l0.73949,0.70164l-0.22162,0.23358c1.94656,1.80921 2.81716,4.90656 2.46468,7.61885c0.04159,0.02526 0.0838,0.05567 0.1265,0.0919z"/><path d="M334.18504,278.78622c0.07938,-0.05078 0.14013,-0.13098 0.1643,-0.22974c0.01688,-0.06897 0.01376,-0.13815 -0.00566,-0.20144l-0.19448,-0.67848l-0.07185,0.02059c-0.02585,-0.09373 -0.06682,-0.18109 -0.13017,-0.25902c-0.06298,-0.07748 -0.12038,-0.13873 -0.17285,-0.18594c0.47793,-0.64812 0.63934,-1.63334 -0.11057,-1.8928c-0.25336,-0.08765 -0.60591,-0.00078 -0.7777,0.20503c-0.6281,0.75249 0.03706,0.86911 0.19285,1.29354c-0.3,-0.23892 -0.59573,-0.32622 -0.86752,0.04543l-0.01981,-0.0023l-0.02963,-0.04012l-0.04291,0.03169l-0.03353,-0.00389l0.0565,-0.32428c-0.34706,0.06952 -0.72588,0.16663 -1.00866,0.37765c-0.03081,-0.02592 -0.06174,-0.05213 -0.09274,-0.07868c-0.52793,-0.30464 -0.99542,-0.76717 -1.3065,-1.3016c-0.04399,-0.00439 -0.09029,-0.01231 -0.13902,-0.02424c-0.73817,-0.18063 -0.55754,-0.9188 -0.55754,-0.9188c0.24931,-1.01882 0.46821,-2.2826 1.14666,-3.17876c0.03867,0.02802 0.08331,0.04917 0.13257,0.06122c0.14733,0.03605 0.29564,-0.01916 0.38537,-0.12952l0.10681,-0.12589c0.09305,0.07896 0.19234,0.16321 0.25444,0.2159l0.01083,0.03493l0.01463,-0.00453c-0.0013,0.22352 0.00401,0.44695 0.01774,0.66982l0.09658,0.07745l-0.03504,0.02877l0.2779,0.33858c0.05051,0.06292 0.12139,0.1103 0.20582,0.13097c0.20384,0.04988 0.40952,-0.07493 0.4594,-0.27877l0.14494,-0.59231c0.00771,-0.00052 0.01538,-0.00127 0.023,-0.00225c1.01763,0.90252 2.43212,1.6111 3.67822,1.56263c0.03956,0.25395 0.3396,0.58381 0.27222,0.59988l0.64817,0.42095c0,0 0.32484,-0.19712 0.12773,-0.52196c-0.01452,-0.02393 -0.02974,-0.04504 -0.04547,-0.06359c0.00223,-0.17146 0.00131,-0.34342 0.02664,-0.50499l0.01248,-0.01025c0.06292,-0.05051 0.11031,-0.12139 0.13098,-0.20583c0.00348,-0.01421 0.0061,-0.02843 0.00792,-0.04262c0.17402,-0.10141 0.33854,-0.22793 0.49109,-0.38201c0.66478,-0.67146 1.36274,-1.94827 1.18096,-2.95868c0.6726,-0.47934 1.2241,-1.1023 0.71056,-1.5414l-0.61448,-0.38673c-0.27893,-0.16657 -0.42946,-0.50108 -0.34821,-0.83313c0.09976,-0.40768 0.51112,-0.6573 0.9188,-0.55754l1.20379,0.29458l-0.06229,0.25454c0.55612,0.07241 1.12418,0.16437 1.68762,0.2396c0.07742,0.09227 0.16569,0.18846 0.2654,0.24076l-0.03667,0.03156c-0.05974,0.05013 -0.10463,0.11903 -0.12459,0.20058c-0.04988,0.20384 0.07493,0.40952 0.27876,0.4594c0.12229,0.02993 0.24524,-0.00303 0.33482,-0.07819l0.33812,-0.27755l-0.00645,-0.00786l0.24771,-0.21315l-0.02331,-0.02709c0.11442,-0.01445 0.22631,-0.04176 0.3313,-0.08517l0.03334,-0.10425c0.61379,0.00793 1.20027,-0.05244 1.73484,-0.23486c0.28871,-0.09853 0.51827,-0.34006 0.74966,-0.56722c0.02761,0.02696 0.05956,0.04991 0.09509,0.06765l0.63768,0.33602l0.04002,-0.07596c0.38827,0.18473 0.71481,0.12006 1.30064,-0.29666c0.77838,0.08272 1.61371,0.22346 1.76991,0.41996c0.03913,0.04922 0.06491,0.10509 0.08191,0.16529l-0.01158,0.00163c-0.15298,0.01804 -0.28586,0.12872 -0.32463,0.28715c-0.0465,0.19 0.0588,0.38162 0.2384,0.44714l0.18044,0.06882c0.01931,0.04906 0.04621,0.09418 0.08365,0.13386c0.19552,0.20723 0.47737,0.26934 0.77721,0.29748l0.25473,0.16032c0.03558,0.02356 0.07576,0.04151 0.11958,0.05223c0.20384,0.04988 0.40953,-0.07493 0.45941,-0.27876c0.01959,-0.08004 0.01224,-0.16037 -0.01626,-0.23143c0.05808,-0.04987 0.1017,-0.11773 0.12128,-0.19777c0.04988,-0.20384 -0.07493,-0.40952 -0.27877,-0.4594l-0.28433,-0.06958c0.00375,-0.00293 0.0075,-0.00586 0.01121,-0.00877c0.37626,0.08062 0.73932,0.10886 1.08085,0.05045c0.60622,-0.10369 1.62418,-0.94843 2.27955,-0.97323c1.78357,-0.06747 3.84558,1.53018 4.97311,2.76741c0.4603,0.2733 1.14912,0.33734 1.38088,0.81988c0.31719,0.6604 -0.07159,1.62914 -0.32205,2.53388c-0.02986,-0.07303 -0.05879,-0.15604 -0.08726,-0.25019l-0.06468,-0.58998c-0.01358,-0.15792 -0.12585,-0.29672 -0.28835,-0.33648c-0.20384,-0.04988 -0.40952,0.07493 -0.4594,0.27876c-0.00428,0.01749 -0.00728,0.03501 -0.00905,0.05243l-0.06146,0.52918c-0.2912,-0.18179 -0.6802,-0.15579 -0.95672,0.44163c-0.06102,0.07779 -0.08142,0.16115 -0.08142,0.16115l0.01255,0.00635c-0.01892,0.05176 -0.03715,0.10681 -0.05456,0.16533l0.39009,0.00448l0.34808,0.17616c0.01017,-0.07076 0.01909,-0.12755 0.02726,-0.17185l0.01475,0.00017c0,0 0.01041,-0.04253 0.00972,-0.10225c0.03461,-0.09303 0.06325,0.07514 0.14221,0.32759l-0.20476,0.08742l0.12189,0.28547c-1.15108,1.17936 -2.25017,2.2704 -2.78161,3.7285c-4.55031,-2.23949 -10.89396,-2.06338 -15.25414,-0.28382c-1.02839,0.41972 -1.62821,1.58962 -2.65466,2.01407c-0.95717,0.39581 -2.06368,0.1963 -3.08495,0.37308c-0.67622,-0.23055 -1.30356,-0.44182 -1.91528,-0.69343zM347.87875,271.32329c-0.21169,0.32355 -0.64084,0.32569 -0.64084,0.32569c-2.077,-0.02037 -4.76914,1.5658 -1.42934,2.63987c2.43549,0.78325 2.92346,-0.07308 4.34332,-1.92047c0.09019,-0.11736 0.42154,-0.02023 0.4111,-0.16787c-0.0289,-0.40842 -0.83979,-0.02235 -1.21367,-0.18925c-0.31354,-0.13996 -0.58119,-0.36579 -0.87179,-0.54868c-0.19959,-0.04642 -0.39918,-0.09284 -0.59877,-0.13926z"/><path d="M333.43926,278.243c0.01854,0.01752 0.03585,0.03261 0.05165,0.04476l0.1018,0.23847c-0.12142,-0.05701 -0.24265,-0.11642 -0.36396,-0.17872c0.07108,-0.03554 0.14147,-0.07156 0.21049,-0.10451z"/><path d="M343.24389,274.42159c0,0 -0.62773,-0.42831 -0.19942,-1.05606c0.42832,-0.62774 1.05606,-0.19943 1.05606,-0.19943c0.89835,0.61297 1.70328,1.25646 2.64398,1.55079l0.39587,-0.11348c0.52641,-0.14935 1.08758,-0.15425 1.61179,-0.31109c0.55492,-0.16604 0.39256,-0.76755 0.77479,-1.12281c0.39394,-0.36613 0.8606,-0.93545 1.38685,-0.82451c2.91404,0.61438 0.60651,2.64865 -0.64243,3.40437c-1.47233,-0.06723 -2.95277,0.01827 -4.36472,0.24002c-0.00321,-0.00546 -0.00639,-0.011 -0.00952,-0.01663c-0.91816,-0.38379 -1.79591,-0.9662 -2.65324,-1.55117z"/><path d=""/><path d=""/><path d=""/><path d=""/><path d="M339.18526,279.10657c-0.06003,0.02482 -0.12065,0.04731 -0.1818,0.06769c0.13903,-0.14751 0.31771,-0.19625 0.46366,-0.20764c-0.09059,0.05253 -0.1843,0.09961 -0.28186,0.13995z"/><path d="M341.0384,268.37578c0.60734,0.45681 0.15053,1.06414 0.15053,1.06414l-0.4775,0.63482c-0.77813,0.99312 -1.64634,1.68989 -2.62087,2.0809c0.45139,-0.65004 0.80993,-1.5058 0.74008,-2.24683c0.23161,-0.21863 0.45519,-0.47036 0.67226,-0.75574l0.47138,-0.62674c0,0 0.45681,-0.60734 1.06413,-0.15053z"/><path d="M354.96022,275.28068l-0.70141,-1.02451c0.02957,-0.30047 0.05914,-0.60095 0.0887,-0.90141c0,0 0.04406,-0.44767 0.4088,-0.62027c0.11231,-0.70549 0.83626,-0.62141 0.83626,-0.62141c4.3347,0.57224 5.23575,-4.47938 5.69538,-7.68818l-0.03308,-0.86318c-0.00455,-0.07451 0.00188,-0.15096 0.02055,-0.22728c0.09976,-0.40767 0.51112,-0.65729 0.9188,-0.55753c0.18746,0.04587 0.34149,0.15763 0.44351,0.30461l0.78015,1.11153l-0.0168,0.01179c0.03072,0.03795 0.06054,0.07674 0.08935,0.11642c0.02094,0.02884 0.55494,2.35128 0.56606,2.43586c0.23042,1.75296 0.4282,4.66802 -0.39312,6.78229l-2.85428,-0.87494c-1.05301,1.16246 -2.18023,2.14518 -2.97693,3.30557c-0.58522,-0.14656 -1.17809,-0.32416 -1.78387,-0.4724l-0.24885,-0.06089c0,0 -0.02141,-0.00524 -0.05604,-0.01757c-0.40471,0.18261 -0.78315,-0.1385 -0.78315,-0.1385z"/><path d="M363.27534,264.41118c0.74101,-0.16856 0.90958,0.57247 0.90958,0.57247l0.12718,0.56268c0.09344,0.53007 0.2461,1.05047 0.4289,1.55673c0.30535,2.15476 -0.05784,4.58239 -1.18884,6.40226l-1.50652,-0.4618c1.13068,-1.49029 1.48651,-3.68786 1.22059,-5.57289c-0.19579,-0.53707 -0.3468,-1.09258 -0.44994,-1.65484l-0.1134,-0.49503c0,0 -0.16856,-0.74101 0.57246,-0.90957z"/><path d="M354.60422,275.42455c0,0 -0.73817,-0.18063 -0.55754,-0.9188c0.18063,-0.73817 0.9188,-0.55754 0.9188,-0.55754c1.18045,0.28886 2.60099,0.89187 3.83236,0.82582c-0.41841,0.45987 -0.80314,0.92874 -1.12285,1.43428c-1.04079,-0.16904 -2.09656,-0.54536 -3.07077,-0.78376z"/><path d="M352.36403,260.61119c0.70567,-0.28206 0.98772,0.42359 0.98772,0.42359l0.2514,0.6295c0.45706,1.1304 1.02233,4.12981 0.15731,5.21012c-0.49937,0.62366 -1.08595,0.68952 -1.45423,0.60552c0.07871,0.20636 0.09593,0.49488 -0.19612,0.77934c-0.5444,0.53023 -1.07463,-0.01418 -1.07463,-0.01418c-0.73674,-1.07079 -1.45333,-1.35992 0.35878,-2.34201c0.33209,-0.17997 0.99591,0.44063 1.12977,0.08742c0.34807,-0.91841 0.07534,-2.87679 -0.3187,-3.72944l-0.26489,-0.66215c0,0 -0.28206,-0.70566 0.4236,-0.98772z"/><path d="M349.55626,267.01663c-0.02842,0.37891 -0.40732,0.3505 -0.40732,0.3505l-0.44953,-0.03592c-1.95177,0.25624 -3.71586,-0.05745 -5.27798,1.37877c0,0 -0.27989,0.257 -0.53688,-0.02288c-0.25699,-0.27988 0.02288,-0.53688 0.02288,-0.53688c1.71224,-1.57036 3.64626,-1.25362 5.76702,-1.57854l0.5313,0.03764c0,0 0.37892,0.02841 0.3505,0.40731z"/><path d="M359.49935,269.26437c-0.09032,0.36908 -0.45941,0.27876 -0.45941,0.27876l-0.36784,-0.17573c-0.68039,-0.8858 -2.55471,-3.33154 -4.00409,-2.25723c0,0 -0.32484,0.19712 -0.52196,-0.12773c-0.19712,-0.32484 0.12773,-0.52196 0.12773,-0.52196c2.02766,-1.10104 3.94596,1.07681 5.0005,2.44334l-0.0537,-0.09887c0,0 0.36909,0.09032 0.27877,0.45941z"/><path d="M339.42847,272.14234c0.11244,0.36296 -0.25051,0.4754 -0.25051,0.4754l-0.40682,0.12306c-0.35513,0.21805 -0.72607,0.62582 -0.69204,1.04116c-0.0693,0.29087 -0.16739,0.93324 -0.48535,1.07877c-0.81183,0.37159 -3.80686,-1.51765 -4.62805,-1.87638c-0.2637,-0.1152 -1.39753,0.37126 -2.14651,0.05224c0,0 -0.34921,-0.14976 -0.19945,-0.49898c0.14976,-0.34921 0.49898,-0.19945 0.49898,-0.19945c1.18053,0.51022 1.93585,-0.09219 3.29246,0.38608c0.81797,0.28838 2.69225,1.85187 2.91035,0.99765c-0.08747,-1.06739 0.30403,-1.17355 1.1377,-1.67408l0.49383,-0.15597c0,0 0.36296,-0.11245 0.4754,0.25051z"/><path d="M349.95672,271.83367c-0.16095,0.3442 -0.50515,0.18325 -0.50515,0.18325l-0.33875,-0.16044c-2.1239,-0.5084 -2.99906,-0.58025 -4.75591,0.7722c0,0 -0.30108,0.23178 -0.53287,-0.06931c-0.23179,-0.30109 0.0693,-0.53287 0.0693,-0.53287c1.9534,-1.50377 3.13183,-1.46983 5.47197,-0.8868l0.40815,0.18881c0,0 0.3442,0.16095 0.18325,0.50515z"/><path d="M359.35582,269.81937c0.25699,0.27988 -0.02288,0.53688 -0.02288,0.53688l-0.16258,0.13822c-1.14689,1.57677 -2.34947,2.08483 -4.2552,1.61848c0,0 -0.36909,-0.09032 -0.27877,-0.45941c0.09032,-0.36909 0.45941,-0.27876 0.45941,-0.27876c1.5987,0.39121 2.50022,0.04664 3.45628,-1.32218l0.26687,-0.25612c0,0 0.27989,-0.25699 0.53688,0.02288z"/></g><g><path d="M354.34147,265.33379c0.57946,0.49168 0.08777,1.07113 0.08777,1.07113l-0.50561,0.4411c-0.57476,0.19621 -0.98352,0.74854 -1.55876,0.94333c-0.83695,0.28341 -2.13594,-0.26542 -2.94868,-0.46431c0,0 -0.21094,-0.05162 -0.3797,-0.21242c-0.0879,-0.0304 -0.17988,-0.08204 -0.27418,-0.16205c-0.57946,-0.49168 -0.08777,-1.07113 -0.08777,-1.07113c1.68365,-1.97908 2.48655,-4.48813 1.90543,-7.05744l-0.57113,-1.2753c-0.06907,-0.15036 -0.08975,-0.32422 -0.04736,-0.49742c0.09976,-0.40768 0.51112,-0.6573 0.9188,-0.55754c0.13794,0.03375 0.25777,0.10318 0.35212,0.19607l0.7395,0.70164l-0.22162,0.23359c1.94656,1.80921 2.81717,4.90656 2.46468,7.61885c0.04158,0.02526 0.0838,0.05567 0.1265,0.0919z" fill="#ede3bf"/><path d="M337.75637,278.93356c-1.38011,-0.53086 -2.52142,-0.8514 -3.61304,-1.30039c0.07938,-0.05078 0.14013,-0.13099 0.1643,-0.22974c0.01688,-0.06897 0.01376,-0.13815 -0.00565,-0.20143l-0.19448,-0.67848l-0.07186,0.0206c-0.02584,-0.09373 -0.06682,-0.18109 -0.13016,-0.25901c-0.06298,-0.07748 -0.12037,-0.13874 -0.17285,-0.18594c0.47793,-0.64812 0.63933,-1.63335 -0.11058,-1.8928c-0.25336,-0.08765 -0.60591,-0.00078 -0.77769,0.20503c-0.62809,0.75249 0.03706,0.8691 0.19285,1.29354c-0.29999,-0.23891 -0.59573,-0.32621 -0.86751,0.04543l-0.01981,-0.0023l-0.02962,-0.04012l-0.04291,0.03169l-0.03353,-0.00389l0.05649,-0.32429c-0.34706,0.06952 -0.72588,0.16663 -1.00866,0.37765c-0.03082,-0.02591 -0.06173,-0.05214 -0.09273,-0.07868c-0.52793,-0.30464 -0.99541,-0.76716 -1.3065,-1.3016c-0.04399,-0.00439 -0.09029,-0.01231 -0.13902,-0.02424c-0.73817,-0.18063 -0.55754,-0.9188 -0.55754,-0.9188c0.24931,-1.01882 0.46821,-2.2826 1.14666,-3.17877c0.03868,0.02803 0.08331,0.04916 0.13256,0.06121c0.14734,0.03606 0.29565,-0.01916 0.38537,-0.12952l0.10681,-0.12589c0.09305,0.07896 0.19234,0.16321 0.25443,0.21589l0.01083,0.03493l0.01464,-0.00453c-0.00129,0.22351 0.00401,0.44695 0.01772,0.66983l0.09659,0.07745l-0.03505,0.02877l0.27791,0.33858c0.05051,0.06292 0.12139,0.11031 0.20582,0.13097c0.20384,0.04988 0.40952,-0.07493 0.4594,-0.27876l0.14494,-0.59231c0.00771,-0.00051 0.01538,-0.00127 0.02299,-0.00225c1.01763,0.90252 2.43212,1.6111 3.67822,1.56263c0.03956,0.25395 0.33961,0.5838 0.27223,0.59987l0.64817,0.42095c0,0 0.32484,-0.19712 0.12773,-0.52196c-0.01453,-0.02394 -0.02975,-0.04503 -0.04548,-0.06359c0.00223,-0.17146 0.0013,-0.34341 0.02665,-0.50499l0.01248,-0.01025c0.06292,-0.05051 0.11031,-0.12139 0.13097,-0.20582c0.00348,-0.01421 0.00612,-0.02844 0.00792,-0.04262c0.17403,-0.10141 0.33854,-0.22793 0.49109,-0.38201c0.66479,-0.67146 1.36275,-1.94828 1.18097,-2.95869c0.6726,-0.47934 1.2241,-1.10229 0.71056,-1.5414l-0.61448,-0.38673c-0.27893,-0.16657 -0.42946,-0.50108 -0.34821,-0.83313c0.09976,-0.40767 0.51112,-0.6573 0.9188,-0.55754l1.20379,0.29458l-0.06229,0.25453c0.55611,0.07242 1.12418,0.16436 1.68762,0.2396c0.07742,0.09227 0.16569,0.18846 0.2654,0.24077l-0.03666,0.03156c-0.05974,0.05013 -0.10464,0.11903 -0.1246,0.20058c-0.04988,0.20384 0.07493,0.40952 0.27876,0.4594c0.12229,0.02993 0.24524,-0.00302 0.33481,-0.07819l0.33812,-0.27754l-0.00646,-0.00786l0.24772,-0.21316l-0.02331,-0.02709c0.11442,-0.01445 0.22631,-0.04176 0.3313,-0.08517l0.03334,-0.10425c0.61379,0.00792 1.20027,-0.05244 1.73484,-0.23486c0.28871,-0.09852 0.51827,-0.34006 0.74966,-0.56722c0.02761,0.02696 0.05955,0.04992 0.09508,0.06766l0.63768,0.33601l0.04002,-0.07595c0.38827,0.18473 0.7148,0.12004 1.30063,-0.29667c0.77838,0.08272 1.61371,0.22346 1.7699,0.41996c0.03912,0.04922 0.06491,0.10509 0.08192,0.16529l-0.01158,0.00163c-0.15298,0.01803 -0.28586,0.12872 -0.32463,0.28715c-0.0465,0.19 0.0588,0.38162 0.2384,0.44715l0.18045,0.06881c0.01932,0.04905 0.04621,0.09417 0.08365,0.13386c0.19552,0.20723 0.47737,0.26934 0.77721,0.29748l0.25474,0.16033c0.03558,0.02357 0.07576,0.0415 0.11958,0.05222c0.20384,0.04988 0.40952,-0.07493 0.4594,-0.27876c0.01959,-0.08004 0.01224,-0.16037 -0.01625,-0.23142c0.05809,-0.04987 0.10169,-0.11773 0.12127,-0.19777c0.04988,-0.20384 -0.07493,-0.40952 -0.27876,-0.4594l-0.28433,-0.06958c0.00375,-0.00293 0.00749,-0.00586 0.0112,-0.00877c0.37626,0.08062 0.73932,0.10886 1.08085,0.05045c0.60622,-0.10369 1.62418,-0.94843 2.27955,-0.97323c1.78357,-0.06747 3.84558,1.53017 4.97311,2.76741c0.4603,0.27329 1.14912,0.33735 1.38088,0.81988c0.31719,0.6604 -0.07159,1.62915 -0.32205,2.53388c-0.02986,-0.07303 -0.05879,-0.15604 -0.08726,-0.25019l-0.06468,-0.58998c-0.01358,-0.15793 -0.12586,-0.29672 -0.28835,-0.33648c-0.20384,-0.04988 -0.40952,0.07493 -0.4594,0.27876c-0.00428,0.01749 -0.00728,0.035 -0.00904,0.05243l-0.06147,0.52919c-0.2912,-0.18179 -0.6802,-0.15579 -0.95672,0.44163c-0.06102,0.07779 -0.08142,0.16115 -0.08142,0.16115l0.01254,0.00634c-0.01893,0.05175 -0.03714,0.10681 -0.05455,0.16533l0.39009,0.00448l0.34808,0.17615c0.01017,-0.07076 0.01909,-0.12755 0.02726,-0.17185l0.01475,0.00017c0,0 0.01041,-0.04253 0.00972,-0.10225c0.03461,-0.09302 0.06324,0.07514 0.14221,0.3276l-0.20476,0.08742l0.17177,0.40231c0.04474,0.10803 0.13858,0.19403 0.26087,0.22396c0.20384,0.04988 0.40952,-0.07493 0.4594,-0.27876l0.07659,-0.31299c0.05571,0.06317 0.11395,0.11763 0.17526,0.16422c-0.00296,0.09447 0.00041,0.18611 0.01149,0.27431l-0.05836,-0.01789c-1.44973,1.60041 -3.04013,2.86015 -3.71502,4.71185c-4.55031,-2.23949 -10.89396,-2.06338 -15.25414,-0.28382c-1.02839,0.41972 -1.62821,1.58962 -2.65466,2.01407c-0.18458,0.07633 -0.37471,0.13052 -0.56871,0.16953c-0.29571,-0.11921 -0.58348,-0.23611 -0.86018,-0.34255zM347.83706,270.17024c-0.2117,0.32354 -0.64084,0.32569 -0.64084,0.32569c-2.077,-0.02037 -4.76914,1.56579 -1.42934,2.63987c2.43549,0.78325 2.92346,-0.07308 4.34332,-1.92047c0.0902,-0.11736 0.42155,-0.02023 0.4111,-0.16787c-0.0289,-0.40842 -0.83979,-0.02235 -1.21368,-0.18926c-0.31354,-0.13996 -0.58119,-0.36579 -0.87178,-0.54868c-0.19959,-0.04642 -0.39918,-0.09284 -0.59877,-0.13926z" fill="#eeeeee"/><path d="M333.39758,277.08996c0.01853,0.01753 0.03585,0.03261 0.05165,0.04477l0.10182,0.23847c-0.12142,-0.057 -0.24265,-0.11642 -0.36396,-0.17872c0.07108,-0.03555 0.14147,-0.07155 0.21049,-0.10451z" fill="#eeeeee"/><path d="M345.85545,274.81972c-0.91817,-0.38379 -1.79592,-0.9662 -2.65325,-1.55117c0,0 -0.62774,-0.42832 -0.19943,-1.05606c0.42832,-0.62774 1.05606,-0.19943 1.05606,-0.19943c0.89835,0.61296 1.70327,1.25647 2.64398,1.55079l0.39587,-0.11348c0.5264,-0.14934 1.08758,-0.15424 1.6118,-0.3111c0.55492,-0.16605 0.39255,-0.76755 0.77479,-1.12281c0.39394,-0.36613 0.86061,-0.93546 1.38685,-0.82451c3.1799,0.67043 0.142,3.03166 -0.95307,3.57724c-1.11637,0.55621 -2.15842,0.60017 -3.14904,0.35647l-0.05575,0.01598c0,0 -0.58612,0.168 -0.85884,-0.32196z" fill="#e2e2e2"/><path d="" fill="#e2e2e2"/><path d="" fill="#e2e2e2"/><path d="" fill="#e2e2e2"/><path d="" fill="#e2e2e2"/><path d="M338.77443,278.38774c0.18063,-0.73817 0.9188,-0.55754 0.9188,-0.55754c0.23098,0.05652 0.56242,0.10885 0.91796,0.17057c-0.4407,0.42893 -0.87096,0.87632 -1.42592,1.10581c-0.04947,0.02046 -0.09934,0.03932 -0.14958,0.05673c-0.18125,-0.13122 -0.36082,-0.3687 -0.26126,-0.77557z" fill="#e2e2e2"/><path d="M340.99671,267.22273c0.60733,0.45681 0.15053,1.06413 0.15053,1.06413l-0.4775,0.63482c-0.77813,0.99311 -1.64634,1.68988 -2.62088,2.08089c0.45139,-0.65004 0.80994,-1.50579 0.74009,-2.24683c0.23161,-0.21863 0.45518,-0.47037 0.67225,-0.75575l0.47138,-0.62674c0,0 0.45681,-0.60733 1.06413,-0.15053z" fill="#e2e2e2"/><path d="M354.91853,274.12764l-0.70141,-1.02451c0.02957,-0.30047 0.05914,-0.60095 0.0887,-0.90142c0,0 0.04405,-0.44767 0.40879,-0.62027c0.11231,-0.70549 0.83626,-0.62141 0.83626,-0.62141c4.3347,0.57224 5.23575,-4.47938 5.69538,-7.68818l-0.03309,-0.86317c-0.00456,-0.07451 0.00188,-0.15096 0.02055,-0.22728c0.09976,-0.40768 0.51112,-0.6573 0.9188,-0.55754c0.18745,0.04587 0.34149,0.15762 0.44351,0.3046l0.78015,1.11153l-0.0168,0.01179c0.03073,0.03795 0.06055,0.07673 0.08935,0.11642c0.02093,0.02884 0.55494,2.35129 0.56606,2.43586c0.26903,2.04665 0.49356,5.67742 -0.89638,7.76829l-2.30932,-0.70788c-0.74707,0.82472 -1.5315,1.55898 -2.20875,2.33039c-0.84792,-0.15339 -1.70701,-0.43328 -2.59377,-0.65028l-0.24885,-0.06089c0,0 -0.02141,-0.00524 -0.05604,-0.01757c-0.40472,0.18262 -0.78315,-0.1385 -0.78315,-0.1385z" fill="#ede3bf"/><path d="M363.23366,263.25813c0.74102,-0.16855 0.90957,0.57246 0.90957,0.57246l0.12718,0.56268c0.09344,0.53007 0.24611,1.05048 0.4289,1.55673c0.3609,2.54673 -0.21211,5.47466 -1.8829,7.32978l-1.67892,-0.51465c1.80912,-1.3767 2.41183,-4.14524 2.08704,-6.44757c-0.19579,-0.53706 -0.3468,-1.09258 -0.44994,-1.65484l-0.1134,-0.49503c0,0 -0.16855,-0.74102 0.57246,-0.90957z" fill="#e6ddba"/><path d="M354.56253,274.27149c0,0 -0.73817,-0.18063 -0.55754,-0.9188c0.18063,-0.73817 0.9188,-0.55754 0.9188,-0.55754c1.19893,0.29338 2.64554,0.91083 3.89006,0.82223c0.51642,-0.03677 0.98437,-0.14922 1.40586,-0.32404c-0.60679,0.63044 -1.21337,1.22411 -1.74522,1.84681c-1.30358,-0.03977 -2.67366,-0.56564 -3.91196,-0.86866z" fill="#e6ddba"/><path d="M352.32234,259.45814c0.70566,-0.28206 0.98772,0.42359 0.98772,0.42359l0.2514,0.6295c0.45705,1.13039 1.02233,4.12981 0.15731,5.21012c-0.49937,0.62366 -1.08595,0.68953 -1.45423,0.60552c0.07871,0.20636 0.09593,0.49489 -0.19612,0.77933c-0.5444,0.53023 -1.07463,-0.01418 -1.07463,-0.01418c-0.73673,-1.0708 -1.45333,-1.35992 0.35878,-2.34202c0.33208,-0.17998 0.9959,0.44063 1.12977,0.08742c0.34807,-0.91841 0.07534,-2.87679 -0.31869,-3.72943l-0.26489,-0.66215c0,0 -0.28206,-0.70566 0.42359,-0.98772z" fill="#e6ddba"/><path d="M349.51458,265.86358c-0.02841,0.37891 -0.40732,0.3505 -0.40732,0.3505l-0.44954,-0.03591c-1.95178,0.25623 -3.71587,-0.05745 -5.27798,1.37877c0,0 -0.27988,0.257 -0.53688,-0.02288c-0.257,-0.27988 0.02288,-0.53688 0.02288,-0.53688c1.71224,-1.57037 3.64626,-1.25362 5.76702,-1.57854l0.5313,0.03763c0,0 0.37891,0.02841 0.3505,0.40732z" fill="#f3f3f3"/><path d="M359.45766,268.11132c-0.09032,0.36908 -0.4594,0.27876 -0.4594,0.27876l-0.36784,-0.17573c-0.68039,-0.88581 -2.55471,-3.33154 -4.00409,-2.25723c0,0 -0.32484,0.19712 -0.52196,-0.12773c-0.19712,-0.32484 0.12773,-0.52196 0.12773,-0.52196c2.02766,-1.10103 3.94596,1.07681 5.00051,2.44335l-0.05371,-0.09886c0,0 0.36908,0.09032 0.27876,0.4594z" fill="#f3f3f3"/><path d="M339.38678,270.98929c0.11244,0.36295 -0.25051,0.4754 -0.25051,0.4754l-0.40682,0.12306c-0.35513,0.21805 -0.72607,0.62582 -0.69204,1.04116c-0.06931,0.29088 -0.16739,0.93324 -0.48535,1.07877c-0.81184,0.37159 -3.80687,-1.51765 -4.62806,-1.87638c-0.26369,-0.11519 -1.39752,0.37126 -2.14651,0.05224c0,0 -0.34921,-0.14977 -0.19945,-0.49898c0.14977,-0.34921 0.49898,-0.19945 0.49898,-0.19945c1.18053,0.51022 1.93586,-0.0922 3.29245,0.38608c0.81797,0.28838 2.69225,1.85187 2.91035,0.99765c-0.08747,-1.06738 0.30403,-1.17354 1.1377,-1.67408l0.49383,-0.15597c0,0 0.36295,-0.11244 0.4754,0.25051z" fill="#f3f3f3"/><path d="M349.91504,270.68061c-0.16095,0.3442 -0.50515,0.18326 -0.50515,0.18326l-0.33875,-0.16044c-2.1239,-0.5084 -2.99906,-0.58025 -4.75591,0.7722c0,0 -0.30109,0.23179 -0.53288,-0.06931c-0.23179,-0.30109 0.06931,-0.53288 0.06931,-0.53288c1.9534,-1.50377 3.13183,-1.46984 5.47197,-0.8868l0.40815,0.18881c0,0 0.3442,0.16095 0.18326,0.50515z" fill="#f3f3f3"/><path d="M359.31413,268.66631c0.257,0.27988 -0.02288,0.53688 -0.02288,0.53688l-0.16257,0.13822c-1.14689,1.57678 -2.34947,2.08483 -4.2552,1.61848c0,0 -0.36908,-0.09032 -0.27876,-0.4594c0.09032,-0.36908 0.4594,-0.27876 0.4594,-0.27876c1.5987,0.39121 2.50022,0.04663 3.45627,-1.32218l0.26687,-0.25612c0,0 0.27988,-0.257 0.53688,0.02288z" fill="#f3f3f3"/></g></g><g><g><path d="M404.34467,266.42209c0.15707,-0.57143 0.84304,-1.13112 0.60239,-1.67268c-0.39258,-0.8835 -1.53524,-1.45253 -1.60333,-2.41691c-0.05201,-0.73673 0.02122,-1.56105 0.43553,-2.17245c0.44246,-0.65293 1.68053,-0.38613 2.12727,-1.03614c0.18337,-0.2668 0.83811,-2.72255 0.56289,-2.84501c-0.83154,-0.36999 -2.05759,-0.47895 -2.95023,-0.72431c-2.59228,-0.71253 -5.18455,-1.42503 -7.77683,-2.13756c-0.8496,-0.23352 -2.28736,-0.9281 -3.17261,-0.92085c-1.48953,0.01221 -2.48667,2.17057 -4.22945,1.44334c-0.94795,-0.39556 -1.06117,-1.77067 -1.73114,-2.54926c-0.41283,-0.47976 -1.79604,-0.76847 -2.65643,-1.02289c-1.69616,-0.45807 -3.38675,-0.94328 -5.07733,-1.41572c-0.5923,-0.16552 -1.28317,-0.85965 -1.77762,-0.49396c-0.43909,0.32476 -0.6385,2.3638 -0.80079,2.82496c-0.65477,1.8606 -1.01253,3.68834 -1.53736,5.58345c-0.50347,1.00197 -0.90426,2.06113 -1.19973,3.14286c-0.10063,0.36841 -1.23407,2.98578 -0.69956,3.40497c0.47381,0.37159 1.18952,0.20084 1.77012,0.36043c0.6063,0.16664 1.16874,0.6363 1.795,0.57999c1.66702,-0.14991 1.1872,-2.59556 3.75057,-1.78306c2.38017,0.75443 0.64764,1.7742 1.30457,2.96865c0.2917,0.53037 1.18011,0.27138 1.76387,0.4314c0.05289,0.0145 0.10577,0.029 0.15866,0.0435c-0.67175,0.14019 -1.44567,0.40881 -2.0053,0.41026c-0.61994,0.00161 -1.23968,0.02231 -1.85885,0.05859c-0.15778,-0.46504 -0.1291,-1.01866 -0.20117,-1.51125c-0.01693,-0.11572 0.19884,-0.36356 0.08416,-0.34062c-0.96994,0.19406 -1.44928,1.71883 -2.72413,1.89974c-0.9068,0.12868 -2.85581,-0.65571 -3.75988,-0.94684c-0.52627,-0.16948 -1.19101,-0.14646 -1.56281,-0.55566c-0.50521,-0.55603 -0.77329,-1.34258 -0.84172,-2.09072c-0.06017,-0.65775 0.30867,-1.28448 0.4745,-1.92381c0.45117,-1.7393 0.89582,-3.32815 1.70354,-4.93561c0.596,-2.19123 1.19134,-4.37425 1.7984,-6.56304c0.26489,-0.95505 0.54071,-2.37252 1.4714,-2.94711c0.96099,-0.59329 2.55386,0.01757 3.47561,0.26715c1.77239,0.47992 3.54148,0.97239 5.31182,1.45992c0.00153,0.02127 0.00323,0.04263 0.00511,0.06406c1.18949,0.43839 2.62168,0.70198 3.51092,1.61377c0.48031,0.49249 0.21279,1.54499 0.80077,1.90211c0.11104,0.06745 0.21583,-0.14494 0.32786,-0.21071c0.51587,-0.30285 1.00789,-0.65424 1.55552,-0.89493c0.49238,-0.21639 1.00694,-0.44515 1.54432,-0.46741c1.07682,-0.04459 2.76629,0.71153 3.81067,0.99859c2.59228,0.71253 5.18455,1.42503 7.77683,2.13756c0.89932,0.24719 3.0464,0.50482 3.71562,1.1079c1.37357,1.2378 0.95182,4.43649 -0.11843,5.84419c-0.51005,0.67088 -1.56688,0.66711 -2.23684,1.17836c-0.32973,0.25162 0.17553,0.83448 0.41515,1.17304c0.36882,0.52109 1.02977,0.87568 1.20325,1.49007c0.15305,0.54202 -0.19091,1.11058 -0.31371,1.66024c-0.33594,1.50378 -0.75478,3.07937 -1.24517,4.54332c-0.41002,-0.68975 -0.95724,-1.30254 -1.58227,-1.85593c0.14232,-0.79038 0.25541,-1.60877 0.40636,-2.15794z" fill="#ad7943"/><path d="M386.29814,266.4251c0.12712,-0.0275 0.27292,-0.03124 0.43962,0c-0.13734,0 -0.28573,0 -0.43962,0z" fill="#ad7943"/><path d="M384.80846,266.4251c-0.00201,-0.00881 -0.00413,-0.01748 -0.00635,-0.02601c0.03153,0.00867 0.06305,0.01734 0.09458,0.02601c-0.02999,0 -0.05941,0 -0.08822,0z" fill="#ad7943"/><path d="" fill="#ad7943"/><path d="M405.01965,268.89084c1.0835,0.17216 0.91132,1.25567 0.91132,1.25567c-0.06075,0.2814 -0.07456,0.58361 -0.1032,0.87925c-0.34574,-0.7694 -0.86044,-1.44882 -1.4756,-2.0585c0.17064,-0.08196 0.38895,-0.12068 0.66748,-0.07642z" fill="#ad7943"/><path d="" fill="#ad7943"/><path d="M380.90589,265.67079c-0.83124,-0.46818 -1.32025,-1.33082 -1.86351,-2.03097c-0.15853,-0.00555 -0.2683,-0.03571 -0.2683,-0.03571l0.0965,-0.00496c-0.0465,-0.00151 -0.09296,-0.00338 -0.1394,-0.00558c-0.1292,0.77335 -0.98348,0.8509 -0.98348,0.8509c-1.08092,0.09775 -2.16467,0.54332 -3.23539,0.36581c-5.59143,-0.92701 -1.1251,-6.97389 -0.0503,-9.49083c0.64826,-1.51805 0.85059,-3.32519 1.03423,-4.95377c0.06599,-0.58533 -0.20629,-1.31357 0.18042,-1.75789c1.9395,-2.22837 4.40238,-0.05093 6.40314,0.48538c0.27185,0.07472 2.31611,0.62829 2.45722,0.70583c0.21268,0.11687 0.39755,0.26047 0.56343,0.42125c0.23513,-0.11976 0.51393,-0.15557 0.78841,-0.08012c0.13936,0.0383 0.26502,0.10183 0.37341,0.18429l1.11833,0.81029c1.09956,0.48195 1.78349,1.27606 3.14797,1.20293c1.17702,-0.06307 2.19962,-1.00652 3.46546,-0.96347c0.17081,0.00581 2.67145,0.70386 2.7902,0.73649c2.22145,0.61059 4.45158,1.19615 6.66585,1.83219c1.93778,0.55663 4.49501,2.26614 3.21107,4.72072c-0.26788,0.5121 -0.91142,0.71087 -1.36712,1.06631c-0.3387,0.20123 -1.0737,0.40271 -0.90587,0.75914c0.17243,0.36622 0.61802,0.58695 0.71828,0.97911c0.06664,0.26072 -0.28311,1.54672 -0.01223,2.01718c0.98264,1.70669 2.0372,3.42895 0.79121,5.49941c-0.24101,0.40049 -0.48585,0.6872 -0.7396,0.89046c-1.24243,-1.67025 -3.28586,-2.86195 -5.11365,-3.87562c-1.25851,-0.69796 -2.8731,-0.17106 -4.30965,-0.25658h-3.41064c0,0 -1.67883,0 -3.09089,0.9728c-0.52619,-0.18818 -1.09313,-0.29068 -1.68401,-0.29068c0,0 -1.73318,0 -2.72851,0c-0.19383,-0.85078 -1.42958,-0.39731 -2.5077,-0.13916c-0.46261,-0.12155 -0.90514,-0.33941 -1.36291,-0.4842z" fill="#ad7943"/><path d="M378.81397,265.54916c-0.24356,0.07689 -0.50601,0.1081 -0.7763,0.08438c-0.17479,-0.01534 -0.34235,-0.05272 -0.50018,-0.10918c-0.93975,0.89216 -6.84056,0.44741 -6.77988,-1.44568c-0.17507,-0.32962 -0.26001,-0.71197 -0.22495,-1.11147c0.08587,-0.97844 0.8626,-1.73025 1.80731,-1.81691c0.07941,-0.01818 0.1624,-0.02632 0.2496,-0.02277c0.96776,0.03946 1.79499,0.75615 2.79416,0.81962c0.67746,0.04303 1.21927,-0.21042 1.7479,-0.51282c0.56547,-0.6093 1.45587,-1.07151 2.5938,-1.25217c5.15979,-0.81914 9.27738,1.42072 13.63304,3.6429c0.45393,0.23159 1.81628,1.01262 2.90215,1.92507c-0.1814,0.00462 -0.3611,0.00338 -0.5381,-0.00716h-3.41064c0,0 -1.67883,0 -3.09089,0.9728c-0.52619,-0.18818 -1.09313,-0.29068 -1.68401,-0.29068c0,0 -1.73318,0 -2.72851,0c-0.25254,-1.10848 -2.27376,-0.00296 -3.41064,0c-0.6099,0.00159 -1.2196,0.02164 -1.82875,0.05684c-0.26245,-0.32283 -0.51263,-0.6562 -0.75511,-0.93279z" fill="#95693a"/><path d="M407.22488,254.92996c-0.08742,0.99617 -1.0836,0.90875 -1.0836,0.90875l-1.02557,-0.09c-1.86133,-0.16335 -3.73738,-0.1674 -5.50335,-0.81242c-1.93349,-0.7062 -4.0712,-2.44555 -6.36964,-1.89665c-0.71631,0.17106 -1.37182,0.57037 -2.09811,0.69224c-1.2011,0.37612 -3.1109,0.74431 -4.10156,-0.46573c-0.50866,-0.6213 -0.15177,-1.62597 -0.47251,-2.36209c-0.18871,-0.4331 -1.08502,-0.24693 -1.27127,-0.30824c-1.15108,-0.37893 -2.33542,-0.93636 -3.49413,-1.35616c-0.63692,-0.23076 -3.71947,-1.83883 -4.35042,-1.13088c-0.4563,0.51199 -0.78763,2.31356 -1.10901,2.98732c0,0 -0.43163,0.90205 -1.33368,0.47041c-0.90205,-0.43163 -0.47041,-1.33368 -0.47041,-1.33368c0.41083,-0.85561 0.84867,-2.96904 1.53358,-3.57212c1.9967,-1.7581 8.85986,1.13344 10.89622,2.13537c2.55199,1.25564 0.45857,4.11986 3.70285,2.99192c2.03495,-0.30175 3.43943,-0.79723 5.598,-0.44455c1.92871,0.31512 3.17303,1.65362 5.03708,2.07107c1.25456,0.28096 2.69847,0.2293 3.98123,0.34188l1.02557,0.09c0,0 0.99617,0.08742 0.90875,1.0836z" fill="#c48a4c"/><path d="M383.69864,260.60348c0.02208,-0.08552 0.05314,-0.1558 0.0902,-0.21345c0.06726,-0.73183 0.30615,-3.30721 0.70282,-3.67348c1.2792,-1.18119 4.25749,0.96376 5.43575,1.23438c0.09061,0.02081 -0.04532,-0.19641 -0.00243,-0.2789c0.1512,-0.29072 1.25351,-2.28556 1.42184,-2.30307c1.29412,-0.13461 1.89177,1.97057 2.39571,2.78458c0.46268,1.16364 0.76897,2.36775 1.20625,3.53565c0.13034,0.34811 0.48983,0.69235 0.38136,1.04787c-0.10701,0.35076 -0.58501,0.44402 -0.89588,0.63855c-1.50183,0.9398 -3.20514,1.37067 -4.73237,2.21209l-0.02217,0.00318l0.00282,0.00613l-0.57085,0.26292c-0.09786,0.04729 -0.20935,0.0696 -0.32548,0.05941c-0.34324,-0.03012 -0.59707,-0.33279 -0.56695,-0.67603c0.00405,-0.04617 0.01303,-0.09073 0.02638,-0.13318l0.33741,-1.15198l0.00712,0.00209c0.00557,-0.02374 0.01141,-0.04743 0.01757,-0.07107c0.12927,-0.49675 0.80251,-0.78556 0.82819,-1.29821c0.02446,-0.48843 -0.97064,-0.1221 -1.45771,-0.1661c-1.24311,-0.11231 -2.22681,-0.58167 -3.39646,-0.94993l-0.43504,-0.11141c0,0 -0.60407,-0.15597 -0.44809,-0.76003z" fill="#b10000"/><path d="M394.89774,262.31386c0.59647,0.80263 -0.20616,1.3991 -0.20616,1.3991l-0.97614,0.67187c-1.41387,0.50508 -3.97853,2.51109 -5.28553,0.5493c-0.54189,-0.81337 1.40017,-2.12555 0.7323,-2.83911c-0.31466,-0.33619 -3.84717,-0.1621 -4.46774,-0.13286c0,0 -0.99899,0.045 -1.04399,-0.95398c-0.045,-0.99899 0.95398,-1.04399 0.95398,-1.04399c1.35194,-0.0584 5.23381,-0.26587 6.17193,0.94997c0.05006,0.06488 0.35104,1.91719 0.03353,2.76107c0.76598,-0.44307 2.03641,-1.10299 2.22935,-1.17265l0.45932,-0.3949c0,0 0.80263,-0.59647 1.3991,0.20616z" fill="#950000"/></g><path d="" fill="#d9d393"/></g></g></g></svg>