<svg version="1.1" xmlns="http://www.w3.org/2000/svg" xmlns:xlink="http://www.w3.org/1999/xlink" width="58.64142" height="81.09003" viewBox="0,0,58.64142,81.09003"><g transform="translate(-209.67182,-139.42471)"><g data-paper-data="{&quot;isPaintingLayer&quot;:true}" fill-rule="nonzero" stroke="none" stroke-width="0.5" stroke-linecap="butt" stroke-linejoin="miter" stroke-miterlimit="10" stroke-dasharray="" stroke-dashoffset="0" style="mix-blend-mode: normal"><path d="M257.42843,216.01933l-1.89075,0.48183l-0.04614,-0.29398l-0.33676,0.36675c-4.97828,0.05158 -10.22859,0.57878 -15.24106,0.16832c-1.1598,1.35601 -2.80391,1.35601 -2.80391,1.35601l-1.16198,-0.09709c-2.95562,-0.79965 -6.03792,-0.37358 -8.99785,-0.99312c-0.6658,-0.13936 -1.49071,-0.25021 -1.90924,-0.90978h-1.27276c-1.78777,0 -3.2963,-1.52333 -3.76973,-3.60686c-0.82501,-0.36211 -1.63878,-0.78372 -2.49354,-0.99023c0,0 -0.10016,-0.02553 -0.26492,-0.08893c-0.41369,-0.13883 -0.80492,-0.33253 -1.14581,-0.64919c-0.45037,-0.34805 -0.92017,-0.84478 -1.2624,-1.54128c-1.68924,-2.60956 -1.61385,-5.54364 -2.31194,-8.84017c-1.16947,-5.52247 -0.87144,-10.3818 -0.51628,-16.09403c0.63951,-10.28546 -1.08768,-21.37382 3.66646,-30.52398c-0.04746,-0.38844 -0.09492,-0.77689 -0.14238,-1.16533l1.54174,-4.03553c0,0 2.17195,-2.76747 4.59424,-0.95696c0.09109,-0.00751 0.14253,-0.0075 0.14253,-0.0075c5.69351,0.08794 11.2609,-2.33253 16.94223,-2.98296c7.07696,-0.81021 14.5731,-0.1825 21.49838,1.58006l1.77014,0.93077c0,0 2.80714,1.78841 2.14524,5.36523c0.44642,2.82817 1.89611,4.69908 2.3277,7.80599c0.17365,1.25005 -0.03994,2.54201 0.03157,3.80822c0.09411,1.66638 0.93959,3.7378 1.14565,5.19178c0.7244,5.11144 0.44308,10.6026 0.44308,15.80091c0,1.39747 0.02257,6.88791 -0.10497,7.64876c-0.18329,1.09337 -0.95625,1.918 -1.17722,3c-0.15458,0.75695 0.13806,1.5646 0.08587,2.34392c-0.20995,3.13539 -0.9102,6.32321 -1.68198,9.29065c-0.19948,1.21759 -0.27278,2.47292 -0.26095,3.71666v0.5c0,0 0,5 -3.92407,5c-1.15212,0 -1.96597,-0.43102 -2.54088,-1.03995c-0.33433,0.21653 -0.69627,0.37382 -1.07731,0.46102z" fill="#810000"/><path d="M266.11963,149.66314c-2.73424,1.13619 -4.40345,-0.38301 -5.00763,-1.10987c-0.93031,-0.25885 -1.83875,-0.57075 -2.69406,-0.96252c-0.9343,0 -1.89085,0.16844 -2.80291,0c-0.81577,-0.15066 -1.43836,-0.74228 -2.24232,-0.93177c-1.59701,-0.37642 -4.7618,0.08724 -6.38599,0.08724c-4.45061,0 -9.21315,-0.42359 -13.62786,-0.01587c-2.85584,0.26375 -6.65907,0.87595 -9.21086,1.97035c-2.42987,1.04211 -4.32936,2.02301 -7.04151,2.60704c0,0 -3.80691,0.79097 -4.75863,-2.37289c-0.95173,-3.16386 2.85518,-3.95481 2.85518,-3.95481c2.19469,-0.43195 3.31424,-1.24826 5.29127,-2.05185c3.5148,-1.42863 8.182,-2.32759 12.09122,-2.68854c4.67976,-0.4321 9.68798,-0.01587 14.40119,-0.01587c2.45008,0 5.80437,-0.36393 8.18912,0.08724c0.81482,0.15416 1.42656,0.78112 2.24232,0.93178c0.91205,0.16844 1.86861,0 2.80291,0c1.46246,0.56671 2.96462,1.09876 4.53481,1.4078l3.11864,2.63717c0,0 1.7549,2.91693 -1.75489,4.37539z" fill="#685b4f"/><path d="M266.80034,215.23868l-2.89262,2.17848c-1.48322,0.27393 -2.89597,0.72695 -4.27008,1.20735c-0.8874,0.01446 -1.80037,-0.1068 -2.6622,0.04337c-0.77085,0.13432 -1.33535,0.65023 -2.10521,0.78736c-2.25315,0.40134 -5.44865,0.15928 -7.77574,0.19719c-4.47661,0.07294 -9.22247,0.48665 -13.67869,0.21003c-3.72249,-0.23108 -8.17908,-0.88501 -11.55507,-1.98462c-1.89896,-0.61853 -2.98381,-1.26059 -5.07971,-1.57555c0,0 -3.63664,-0.58001 -2.81604,-3.1504c0.8206,-2.57039 4.45725,-1.99038 4.45725,-1.99038c2.59138,0.42979 4.42136,1.19273 6.75671,1.99693c2.45253,0.84454 6.08097,1.2802 8.8004,1.44906c4.20383,0.26102 8.71614,-0.15483 12.94334,-0.2237c1.54265,-0.02514 4.5608,0.30042 6.06772,-0.02835c0.75861,-0.16551 1.33436,-0.65304 2.10521,-0.78736c0.86183,-0.15017 1.7748,-0.02891 2.6622,-0.04337c0.80205,-0.32969 1.65667,-0.59569 2.53346,-0.81918c0.5547,-0.59649 2.1001,-1.84948 4.72702,-0.97401c3.37202,1.12379 1.78206,3.50715 1.78206,3.50715z" data-paper-data="{&quot;index&quot;:null}" fill="#413932"/><path d="M243.74862,150.34825c1.99379,0 3.98758,0 5.98137,0c0.79491,0.89821 1.57597,1.41949 2.51291,2.20347c0.46193,0.38652 -1.41683,0.78431 -1.20367,1.34764c0.21655,0.57228 1.06461,0.60351 1.59691,0.90526l0.72093,0.36257c0,0 0.67082,0.33541 1.00623,-0.33541c0.33541,-0.67082 -0.33541,-1.00623 -0.33541,-1.00623l-0.71946,-0.35788c0.30192,-0.17927 0.55822,-0.50637 0.4282,-1.05291c-0.06954,-0.29232 -0.98913,-1.21328 -1.84976,-2.06652c0.79826,0 1.59651,0 2.39477,0c2.40898,0 4.95146,-0.37185 7.275,0.62717c2.31647,0.99597 4.93174,3.94748 5.03421,7.2248c0.03469,1.10946 0.26035,2.55717 -0.39198,3.29336c-0.73901,0.83401 -1.95471,0.56314 -2.93895,0.46575c-1.02473,-0.10139 -1.83302,-1.20846 -2.8078,-1.62371c-2.05903,-0.87712 -4.16552,-0.77982 -6.20902,-1.77861c-4.14912,0.09704 -8.51263,-0.37559 -12.79522,-0.42708c-0.02125,-0.02555 -0.04293,-0.05029 -0.06508,-0.0742c-0.60802,-0.6565 -2.47798,0.12688 -2.57377,-0.76279c-0.14551,-1.35148 0.8766,-1.62792 1.31772,-2.64572c0.72915,-1.68232 0.49543,-3.24313 -0.36061,-4.48849c1.3314,0.09633 2.66054,0.19282 3.98247,0.18952z" fill="#f3eae0"/><path d="M212.84911,163.00652c-1.33242,-0.42443 -0.99931,-2.12218 -0.99931,-2.12218c0.26481,-1.32471 0.5544,-3.58339 1.44614,-4.56037c1.29345,-1.41708 3.97145,-1.88426 5.5704,-2.6918c3.4303,-1.73243 6.82464,-1.2917 10.36485,-2.19793c1.4347,-0.36726 2.80458,-1.17478 4.26214,-1.34063c1.35095,-0.15372 2.70754,-0.14436 4.06458,-0.07753c3.56674,2.47591 -1.23846,4.65884 -0.13982,7.83835c0.0498,0.14411 0.1043,0.26739 0.1628,0.37258c-1.00123,0.07027 -1.9928,0.18143 -2.97072,0.34685c-2.15848,0.3651 -4.23025,1.19259 -6.3584,1.57164c-2.45593,0.43744 -4.81873,-0.14267 -7.26369,0.74303c-1.35723,0.49166 -2.51279,1.78458 -3.89958,2.10215c-0.07338,-0.20479 -0.05686,-0.41897 0.12183,-0.59904c1.09315,-1.1016 1.27219,-1.63241 -0.30258,-2.60378l0.14308,-0.04925c0,0 -0.33542,-0.67082 -1.00624,-0.33541c-0.67082,0.33541 -0.33541,1.00623 -0.33541,1.00623l0.52775,0.72008c0.47072,0.10906 -0.15333,0.96885 -0.41059,1.90883c-0.58476,-0.05959 -1.1728,-0.19152 -1.75655,-0.22895c-0.00002,-0.04358 -0.00046,-0.08725 -0.00128,-0.13105c-0.25634,0.29976 -0.64502,0.51116 -1.2194,0.32819z" fill="#f3eae0"/><path d="M214.72649,202.42346c0.98847,-0.11702 1.98044,-0.4472 2.96543,-0.35104c1.41368,0.138 2.6203,1.08133 4.00574,1.37441c2.4704,0.52259 4.81087,-0.0896 7.27759,0.08352c2.13749,0.15 4.23334,0.65272 6.40066,0.78981c0.52982,0.03351 1.0631,0.05446 1.59927,0.06454c0.02944,0.03746 0.0555,0.07818 0.07775,0.12242c0.25916,0.51552 -0.31495,1.24753 0,1.73099c0.41015,0.62959 1.3406,0.68154 1.9865,1.06549c0.49643,0.2951 -0.1883,1.28132 0.18409,1.72275c0.36313,0.43046 1.02128,0.47498 1.53193,0.71247l1.00202,-0.21301c0,0 0.72761,-0.1819 0.5457,-0.9095c-0.1819,-0.72761 -0.90951,-0.5457 -0.90951,-0.5457l-0.53664,0.17166c-0.65517,-0.09518 -0.21978,-1.47674 -0.97664,-2.18076c-0.37819,-0.35178 -1.22537,-0.02128 -1.47549,-0.47317c-0.19093,-0.34495 0.01399,-0.79353 0.07074,-1.20239c3.64671,-0.05861 7.40145,-0.54092 11.09392,-0.93392c-0.41175,2.12492 -1.0027,4.24801 -1.231,6.40209c-1.18949,0.0811 -2.379,0.16221 -3.56849,0.24331c-3.39414,0.2248 -6.81421,0.96605 -10.23233,0.89634c-1.4609,-0.0298 -2.85521,-0.56476 -4.29986,-0.75281c-1.95611,-0.25462 -3.8551,-0.19668 -5.74599,-0.27666c-0.03627,-0.05124 -0.07162,-0.10309 -0.106,-0.15554c0.62721,-0.2947 1.06653,-1.88227 1.2003,-2.26288l-0.72052,-1.12099c0,0 -0.45,-0.6 -1.05,-0.15c-0.6,0.45 -0.15,1.05 -0.15,1.05l0.43347,0.41767c-0.20324,0.34996 -0.39692,0.54999 -0.62735,0.69032h-0.55245c-0.41422,0 -0.75,0.33578 -0.75,0.75c0,0.20711 0.08394,0.39461 0.21967,0.53033l0.09414,0.09414c-0.88534,-0.10964 -1.7727,-0.28447 -2.66712,-0.57068c-1.62306,-0.51939 -4.31249,-0.70052 -5.65039,-1.71494c-0.92239,-0.69937 -1.28537,-2.43688 -1.59308,-3.44946c0,0 -0.3881,-1.29816 0.92854,-1.71908c0.5676,-0.18146 0.96264,-0.04344 1.22841,0.17234c-0.00061,-0.03413 -0.0016,-0.06815 -0.003,-0.10206z" data-paper-data="{&quot;index&quot;:null}" fill="#e3dad1"/><path d="M254.98135,202.99655c2.00794,-0.91618 4.1146,-0.98391 6.14203,-1.80649c0.95982,-0.38942 1.73078,-1.30575 2.75074,-1.4544c0.97965,-0.14278 2.18476,-0.43628 2.94996,0.16225c0.67545,0.52833 0.49741,1.67001 0.49902,2.53552c0.00476,2.5567 -2.51035,5.03101 -4.79097,5.96358c-2.28758,0.93543 -4.83857,0.81924 -7.24412,0.98326c-1.29534,0.08832 -2.59068,0.17664 -3.88602,0.26496c0.03461,-0.54939 0.0668,-1.11282 0.14826,-1.70466c0.24144,-1.7543 0.83213,-3.26009 0.95964,-4.77442c0.83007,-0.07027 1.65456,-0.12882 2.47146,-0.1696z" data-paper-data="{&quot;index&quot;:null}" fill="#e3dad1"/><path d="M238.03613,175.98151c0.12383,0.26083 0.20936,0.62112 0.20936,1.11883c0,1.80275 -1.12214,1.80275 -1.12214,1.80275c-0.9967,-0.11681 -3.47413,0.2995 -2.90627,-3.49991c0.21084,-1.41065 1.44484,-1.7409 2.16725,-2.61134l1.41229,2.14519c0,0 0.21216,0.45445 0.2395,1.04448z" fill="#810000"/><path d="M240.49224,174.93704l1.41229,-2.14519c0.72242,0.87044 1.95642,1.20069 2.16725,2.61134c0.56787,3.79941 -1.90956,3.3831 -2.90626,3.49991c0,0 -1.12214,0 -1.12214,-1.80275c0,-0.4977 0.08553,-0.858 0.20936,-1.11883c0.02733,-0.59002 0.2395,-1.04448 0.2395,-1.04448z" data-paper-data="{&quot;index&quot;:null}" fill="#810000"/><path d="M238.1577,182.41249c-0.13358,0.03102 -0.29483,0.01956 -0.48373,-0.0749c-0.64497,-0.32249 -0.32248,-0.96746 -0.32248,-0.96746c0.48637,-0.87727 0.67486,-1.72257 2.1183,-1.52247c0.83571,0.11585 1.69344,1.74015 1.18245,2.4785c-0.41543,0.60027 -1.89656,0.17595 -2.41767,0.07356l-0.04834,0.014c0,0 -0.01033,0 -0.02852,-0.00124z" fill="#810000"/><path d="M231.38781,171.72428c-0.25026,0.62566 -0.70098,0.78358 -1.06671,0.7949c-0.00126,0.0019 -0.00252,0.00381 -0.00379,0.00571c-0.69999,1.04999 -1.74998,0.34999 -1.74998,0.34999c-0.96105,-0.64244 -1.96768,-1.7873 -3.09202,-2.12262c-0.82276,-0.24538 -1.78704,0.1854 -2.57035,-0.16612c-0.80064,-0.3593 -2.02559,-0.72045 -2.09429,-1.59533c-0.07689,-0.97921 0.9662,-1.80191 1.78491,-2.34458c0.32696,-0.21672 0.77299,0.66491 1.0925,0.43735c0.29121,-0.20741 -0.50332,-0.80576 -0.23831,-1.04574c0.70034,-0.63422 1.7004,-1.35472 2.6111,-1.10303c3.09672,0.85585 1.0243,2.19843 1.02538,3.40323c0.00013,0.14212 2.76218,1.41043 2.88107,1.48804l0.71749,0.25784c0,0 1.17167,0.46867 0.70301,1.64034z" fill="#e4c8ad"/><path d="M246.66913,169.51465l0.7175,-0.25784c0.11889,-0.07761 2.88094,-1.34592 2.88107,-1.48804c0.00108,-1.2048 -2.07134,-2.54739 1.02538,-3.40324c0.9107,-0.25169 1.91075,0.46881 2.6111,1.10303c0.265,0.23998 -0.52952,0.83833 -0.23831,1.04574c0.31951,0.22757 0.76555,-0.65407 1.09251,-0.43735c0.81871,0.54267 1.8618,1.36537 1.78491,2.34458c-0.0687,0.87487 -1.29364,1.23602 -2.09429,1.59532c-0.78332,0.35152 -1.7476,-0.07926 -2.57036,0.16612c-1.12434,0.33532 -2.13097,1.48018 -3.09202,2.12262c0,0 -1.04998,0.7 -1.74998,-0.34999c-0.00127,-0.0019 -0.00254,-0.00381 -0.0038,-0.00571c-0.36573,-0.01132 -0.81645,-0.16925 -1.06671,-0.7949c-0.46867,-1.17167 0.703,-1.64034 0.703,-1.64034z" data-paper-data="{&quot;index&quot;:null}" fill="#e4c8ad"/><path d="M249.14115,187.56173l0.40721,0.64456c0.10153,0.09925 1.93829,2.52078 2.07706,2.49011c1.1764,-0.26005 2.03795,-2.57419 3.54458,0.26346c0.44307,0.83451 -0.04357,1.96695 -0.51094,2.7881c-0.17685,0.31071 -0.93316,-0.33525 -1.07253,-0.00602c-0.15291,0.36123 0.80443,0.6056 0.66372,0.97176c-0.35234,0.91686 -0.92943,2.11346 -1.90203,2.25061c-0.86897,0.12254 -1.48701,-0.99503 -2.01128,-1.69877c-0.51292,-0.68852 -0.30136,-1.72324 -0.71922,-2.47327c-0.57102,-1.02495 -1.90684,-1.75954 -2.74229,-2.55853c0,0 -0.91091,-0.87333 -0.03758,-1.78424c0.00158,-0.00165 0.00316,-0.0033 0.00475,-0.00494c-0.06821,-0.3595 -0.01171,-0.83372 0.54484,-1.21363c1.04225,-0.71145 1.75371,0.3308 1.75371,0.3308z" data-paper-data="{&quot;index&quot;:null}" fill="#e4c8ad"/><path d="M231.64447,186.8514c0.55655,0.3799 0.61304,0.85413 0.54483,1.21363c0.00159,0.00164 0.00317,0.00329 0.00475,0.00494c0.87333,0.91091 -0.03758,1.78424 -0.03758,1.78424c-0.83545,0.79898 -2.17125,1.53357 -2.74228,2.55853c-0.41786,0.75003 -0.2063,1.78475 -0.71922,2.47327c-0.52427,0.70374 -1.14231,1.82131 -2.01128,1.69877c-0.97261,-0.13715 -1.54969,-1.33375 -1.90203,-2.25061c-0.14071,-0.36616 0.81663,-0.61053 0.66372,-0.97176c-0.13937,-0.32923 -0.89569,0.31673 -1.07254,0.00602c-0.46737,-0.82115 -0.954,-1.95358 -0.51093,-2.78809c1.50662,-2.83765 2.36817,-0.52351 3.54457,-0.26346c0.13877,0.03068 1.97553,-2.39086 2.07706,-2.49011l0.40721,-0.64456c0,0 0.71146,-1.04225 1.75371,-0.3308z" data-paper-data="{&quot;index&quot;:null}" fill="#e4c8ad"/><g fill="#e4c8ad"><path d="M243.78546,179.49065c2.3142,-0.91117 1.03126,-2.9829 0.02818,-4.62453c-2.19044,-1.55703 -6.27559,-2.24434 -8.8777,-0.93712c-1.27442,0.64024 -2.21432,3.82258 -1.78068,5.11079c0.31534,0.93683 1.52263,1.35665 2.2963,1.76232c0,0 0.62723,0.32996 0.57821,0.96299c0.08676,0.26667 0.05593,0.51104 0.05593,0.51104c-0.03412,0.27047 -0.57026,2.97926 -0.31775,3.06203c0.29124,0.09547 0.72221,0.33972 0.91393,0.1006c0.25786,-0.32161 0.0398,-1.01184 0.4238,-1.16179c0.62731,-0.24496 1.36238,0.02427 2.00922,0.21171c0.44681,0.12947 0.77933,1.19462 1.10058,0.85816c0.31665,-0.33164 0.28479,-1.09679 0.73891,-1.16032c0.67722,-0.09473 1.95152,1.46948 1.89405,0.78808c-0.12151,-1.44109 -0.61893,-2.64514 -0.43315,-4.1994l0.0168,-0.13314c0,0 0.11057,-0.87642 0.93358,-0.91775zM231.15213,179.65087c-0.80954,-2.25632 0.71443,-6.46503 2.79468,-7.56782c3.45343,-1.83078 8.53422,-0.79234 11.39389,1.34984c1.86377,2.82271 3.12587,6.32133 -0.75194,7.99185l-0.1104,0.06513c0.05267,1.26011 0.71577,3.31448 0.37057,4.10452c-0.6597,1.50978 -2.04091,1.96509 -3.44872,1.32378c0.00495,0.10459 -0.01891,0.18852 -0.11262,0.22776c-0.60515,0.25338 -1.3304,0.10385 -1.96745,-0.05292c-0.49542,-0.12191 -0.98802,-1.50018 -1.14571,-1.01496c-0.67098,2.06468 -3.84769,1.78758 -4.5522,-0.50708c-0.22348,-0.72791 0.15627,-2.23521 0.32814,-3.19231c-1.20066,-0.63704 -2.28461,-1.29635 -2.79821,-2.72781zM241.32674,186.47305c0.02665,-0.18459 0.06902,-0.33357 0.02325,-0.22994c-0.02917,0.06608 -0.032,0.14561 -0.02325,0.22994z"/><path d="M238.09091,178.93018c0.06096,0.23659 0.03602,0.52803 -0.20623,0.85025c-0.62923,0.83698 -1.46622,0.20775 -1.46622,0.20775c-0.13174,-0.09928 -0.33138,-0.24408 -0.55574,-0.41315c-0.04074,-0.02597 -0.07802,-0.05458 -0.11215,-0.08503c-0.59523,-0.45412 -1.30718,-1.04594 -1.39944,-1.41345c-0.37818,-1.50611 0.36045,-3.21402 2.2363,-3.01428c2.04137,0.21738 2.53313,2.73117 1.50349,3.86789z"/><path d="M242.02526,175.10057c1.86669,0.27242 2.15798,2.11025 1.41758,3.47526c-0.18068,0.33306 -1.01729,0.72952 -1.70666,1.02158c-0.04061,0.02103 -0.08384,0.03947 -0.12974,0.0545c-0.25932,0.10806 -0.48867,0.19872 -0.64094,0.26218c0,0 -0.96705,0.40164 -1.36868,-0.5654c-0.15463,-0.37229 -0.1064,-0.66077 0.01141,-0.87483c-0.71508,-1.35684 0.38565,-3.66972 2.41703,-3.37327z" data-paper-data="{&quot;index&quot;:null}"/></g><path d="M221.60926,142.06486c0.29012,-0.37447 0.80965,-0.37447 0.80965,-0.37447l0.23567,0.01005c1.92755,-0.27536 3.81474,-0.39866 5.75251,-0.57466c1.78545,0.00827 3.96634,-0.36387 5.68919,-0.73479c1.22208,-0.26311 3.17077,-1.57662 4.49773,-0.62526c2.1265,1.5246 0.37965,3.85352 -0.68589,5.24413c-1.54731,2.01936 -3.70866,3.73497 -5.75512,5.2238c-0.94175,0.68513 -2.18916,1.10654 -2.78836,2.10517c-0.47788,0.79644 0.22908,1.87013 0.07171,2.78551c-0.16982,0.98788 -0.56148,1.95366 -0.55211,2.95598c0.31921,4.488 -3.43338,3.18279 -6.28427,2.49149c-1.55644,-0.37741 -3.59968,-0.1843 -4.36693,-2.22449c-0.24091,-0.64061 0.57459,-1.24271 0.88412,-1.85313c0.84293,-1.66236 2.06677,-3.2747 2.30391,-5.19633c0.31535,-2.55532 -3.76166,-3.44232 -3.39021,-6.0753c0.2476,-1.75509 1.90545,-2.32028 3.14822,-3.02925c0,0 0.18406,-0.10225 0.43018,-0.12846z" fill="#e4df9b"/><path d="M253.95765,220.10203c-0.05903,0.06975 -0.1329,0.13805 -0.2244,0.2034c-0.81373,0.58124 -1.39497,-0.2325 -1.39497,-0.2325c-3.34693,-4.93975 0.94557,-8.61576 3.55111,-12.61733c1.35801,-2.08563 1.58862,-3.88836 3.84269,-5.5558c1.12083,-0.82913 2.74632,-1.25051 4.04071,-1.74968c0.9941,-0.71417 1.91352,-1.83054 3.34051,-0.34801c0.4578,0.47562 0.19497,1.3074 0.23698,1.9662c0.15103,2.36837 -1.34363,4.29704 -1.51089,6.67002c-0.04778,0.67781 -0.46763,1.37845 -0.25207,2.02284c0.23399,0.6995 1.6174,0.52224 1.84314,1.22444c0.37592,1.1694 -0.11118,3.3909 -0.84495,4.44544c-1.70477,2.45 -7.45762,3.38757 -10.11908,3.97758c-0.47631,0.00199 -0.95263,0.00398 -1.42894,0.00597h-0.94273c0,0 -0.05408,0 -0.1371,-0.01258z" fill="#e4df9b"/><path d="M213.38867,178.00563c0.12683,0.11016 0.1964,0.21452 0.1964,0.21452c1.12688,1.69055 2.1403,4.3235 4.21339,5.03734c0.91435,0.31485 2.00417,-0.13092 2.88965,0.25778c1.42267,0.62451 1.58635,1.96205 2.30198,3.12389c0.88086,1.4301 2.41099,2.91094 3.13348,4.37324c1.82724,3.6983 -2.24004,5.08738 -2.24004,8.48465c-0.48406,1.24699 -1.3803,4.00197 -2.61337,4.69331c-1.26699,0.71036 -3.57725,-0.0997 -4.9832,0.10305c-0.92022,0.1327 -1.32841,1.79807 -2.18496,1.67658c-0.80673,-0.11442 -1.24654,-1.11837 -1.58841,-1.85799c-0.75277,-1.62857 -0.41468,-4.15467 -0.94755,-5.91089c-0.99119,-3.26673 -1.23362,-7.34864 -1.22311,-10.82069c-0.67474,-3.02396 -1.50081,-7.82107 1.18757,-9.69908l0.98652,-0.14251c0,0 0.60175,0 0.87166,0.46679z" fill="#e4df9b"/><path d="M214.24744,206.01576c0,0 -2.5,0 -2.5,-2.5c0,-0.19602 0.01537,-0.37667 0.0437,-0.54316c-0.51682,-1.72498 1.17006,-2.73711 1.17006,-2.73711l2.02078,-1.19062c1.12518,-1.13533 3.45685,-5.4961 4.99883,-5.70724l0.21095,-0.21095l-0.1041,-0.11711l2.03777,-1.81135c0.44257,-0.39706 1.02753,-0.63859 1.66891,-0.63859c1.38071,0 2.5,1.11929 2.5,2.5c0,0.69036 -0.27982,1.31536 -0.73223,1.76777l-1.588,1.58799c-0.17857,5.65756 -4.12555,9.36317 -9.72667,9.60037z" fill="#d0cc8e"/><path d="M259.67705,218.62187c-1.60414,0.71606 -3.11215,1.19787 -5.42355,1.25963c0,0 -2.5,0 -2.5,-2.5c0,-2.5 2.5,-2.5 2.5,-2.5c0.40518,0.01784 0.77726,0.0048 1.12551,-0.03406c0.15242,-0.10441 0.25684,-0.15663 0.25684,-0.15663l2.25554,-0.93558c0.26108,-0.02346 0.50317,-0.05149 0.72888,-0.08082c0.5908,-0.31624 1.21848,-0.66314 1.95657,-1.0005l2.60888,-1.52185c0.37805,-0.22977 0.82187,-0.36209 1.2966,-0.36209c1.38071,0 2.5,1.11929 2.5,2.5c0,0.48518 -0.13821,0.93808 -0.37741,1.32147l-1.3427,2.23783l-0.1932,-0.11592c-0.14391,0.31135 -0.31685,0.60821 -0.52839,0.88577c-0.4163,0.54622 -3.09896,0.84563 -4.86357,1.00273z" fill="#d0cc8e"/><path d="M237.01252,144.08991c1.38675,2.08013 -0.69338,3.46688 -0.69338,3.46688l-1.55347,1.02384c-1.63548,0.89168 -4.52013,1.79273 -5.25452,3.76871c-1.10735,2.97949 -0.77133,8.37928 -6.0269,8.10992c-1.47158,-0.07542 -2.16963,-1.99441 -3.25445,-2.99161c0,0 -1.53485,-1.97338 0.43853,-3.50823c1.97338,-1.53485 3.50823,0.43852 3.50823,0.43852c-0.20567,3.13559 0.521,-3.54381 0.72016,-3.97398c1.58847,-3.43089 4.38597,-4.54732 7.47469,-6.2328l1.17422,-0.79462c0,0 2.08013,-1.38675 3.46688,0.69338z" fill="#d0cc8e"/></g></g></svg>