<svg version="1.1" xmlns="http://www.w3.org/2000/svg" xmlns:xlink="http://www.w3.org/1999/xlink" width="262.49051" height="241.33163" viewBox="0,0,262.49051,241.33163"><g transform="translate(-108.75474,-59.33419)"><g data-paper-data="{&quot;isPaintingLayer&quot;:true}" fill-rule="nonzero" stroke="none" stroke-width="0.5" stroke-linecap="butt" stroke-linejoin="miter" stroke-miterlimit="10" stroke-dasharray="" stroke-dashoffset="0" style="mix-blend-mode: normal"><g data-paper-data="{&quot;index&quot;:null}" fill="#aa0000"><path d="M357.88384,160.34798c2.40476,0.9712 6.53062,2.28955 8.24595,4.47498c1.31534,1.67581 2.1687,3.73693 2.66629,5.80146c1.00776,4.18124 -0.25596,5.13987 -1.03288,8.72362c-1.08892,5.02282 -1.58063,10.8049 -5.63915,14.57318c-2.52441,2.3439 -5.41504,3.52135 -8.52628,3.57249c0.1657,1.08332 0.08975,2.43035 0.14703,4.41694c0.04033,1.39812 0.40525,2.86543 -0.0057,4.19388c-2.51412,8.12684 -9.21379,9.78775 -16.26962,11.06245c2.38136,1.61433 4.74176,3.91342 5.31643,6.19028c1.38197,5.47549 -3.7365,12.19421 -8.63592,13.6431c-0.29007,0.08578 -6.37774,-0.4828 -7.68715,-0.60137c-1.74097,-0.28405 -4.3692,-0.52408 -6.3913,-1.37478c-0.05207,0.28276 -0.12719,0.56155 -0.23024,0.83553c-3.08497,8.19975 -16.54594,7.38931 -22.15188,2.81681c-0.90821,-0.74076 -1.31388,-1.95353 -2.10109,-2.82307c-0.87983,-0.97186 -2.16438,-1.57839 -2.87869,-2.67758c-0.59406,-0.91413 -0.39767,-2.16888 -0.89937,-3.13617c-0.66192,-1.27625 -2.21291,-2.09411 -2.53769,-3.49075c-0.02178,-0.0936 -0.03913,-0.18728 -0.05247,-0.28104c-1.31418,0.57411 -2.65914,0.38984 -3.62539,0.09458c-0.47128,1.29046 -1.859,3.29198 -2.46394,3.65413c-2.93288,1.75571 -10.27112,2.12856 -13.60199,0.76423c-2.06399,-0.8454 -4.58862,-1.52826 -5.75575,-3.44008c-0.10094,-0.16533 -1.15408,-9.34341 -1.3442,-11.30422c-0.1174,-1.2108 0.55096,-2.77115 -0.31395,-3.63525c-0.5775,-0.57693 -1.56421,-0.4379 -2.35945,-0.59271c-1.96529,-0.38256 -3.83167,-1.21072 -5.78982,-1.63168c-1.19648,-0.25719 -2.48455,0.15099 -3.65506,-0.21271c-1.74424,-0.54196 -5.99948,-3.64003 -7.42227,-4.61913c-1.82703,-3.50259 -7.297,-10.62138 -5.52364,-14.99088c-0.34689,-0.14749 -0.66644,-0.43382 -0.99347,-0.6274c-2.29961,-1.36107 -5.80251,-1.1345 -7.25532,-3.38456c-3.57225,-5.53244 -1.24343,-13.47248 2.68304,-17.58374c1.77288,-1.85633 3.7905,-1.86844 4.80908,-4.41959c0.6318,-1.58251 1.20131,-3.2094 1.50816,-4.89138c0.30463,-1.66985 -0.46751,-3.73802 0.57023,-5.06659c4.20951,-5.38921 10.95316,-3.78757 16.6108,-2.63966c0.05706,-0.82092 0.30131,-1.63795 0.749,-2.3867l0.73988,-1.23742c-0.22789,-0.91698 -0.37703,-1.84778 -0.46707,-2.78706l-0.40059,0.18561l-1.23163,-2.60393c-0.79258,-1.6154 -0.78478,-3.57531 0.19252,-5.20982c0.26657,-0.44581 0.58766,-0.83801 0.94982,-1.17341c-2.47696,-0.20012 -5.13745,-0.65155 -5.78854,-1.16909c-3.95525,-3.14401 -5.51415,-8.89186 -3.4022,-13.47985c1.01285,-2.20032 4.1634,-2.48025 6.02313,-4.01814c1.15802,-0.9576 1.34046,-2.70449 2.11548,-3.99583c2.7718,-4.61844 5.46048,-8.41232 11.17346,-8.95676c1.27985,-2.23923 2.38013,-4.46384 4.51359,-6.11096c0.9892,-0.76371 2.39067,-0.82831 3.43151,-1.5203c1.04604,-0.69543 1.6354,-1.99013 2.74256,-2.58452c0.65075,-0.34937 1.35497,-0.6295 2.0939,-0.85509c0.66261,-0.96437 1.37689,-1.8835 2.15092,-2.74745c1.39306,-1.55496 2.79048,-3.35033 4.75,-4.0773c3.23996,-1.20203 7.65501,0.411 10.407,2.119c2.336,1.44984 4.30386,3.50409 5.91634,5.8858c4.82078,2.07872 8.64173,5.81901 10.00368,12.07163c0.18219,0.83639 0.2584,3.16899 0.21116,5.29366c0.7524,-0.06034 1.55793,0.02028 2.24352,-0.2608c1.49999,-0.61496 2.52526,-2.42399 4.15047,-2.5252c7.88469,-0.49102 15.9321,9.84496 16.27911,17.05809c0.15471,3.21581 -0.47381,5.56146 -1.66548,7.75406c-0.24851,0.75904 -0.5238,1.51211 -0.80589,2.25663c6.38705,-1.13879 14.04731,3.42118 17.26682,9.07919c3.88032,1.96948 6.54069,5.52279 5.83068,11.07634c-0.18503,1.4473 -1.41181,2.49104 -2.33897,3.65336c1.5367,-0.217 3.19429,0.01056 4.75259,-0.12702zM311.39216,198.92851c-0.21441,-0.01328 -0.42906,-0.03941 -0.64276,-0.07865c0.20011,0.13871 0.36989,0.20601 0.50035,0.15124c0.04243,-0.0178 0.09005,-0.04218 0.14238,-0.07255z"/><path d="M265.42091,167.52603l-1.12001,-0.68801c-0.26553,-0.16313 -7.00549,-4.24345 -7.38642,-4.70013c-1.31779,-1.57979 -1.99038,-4.84547 -2.50055,-6.86685c-1.31324,-5.20318 -2.76478,-11.27945 -0.23733,-16.0737c-1.2239,-0.1712 -2.57765,0.06143 -3.62479,-0.58794c-1.1501,-0.71323 -1.60611,-2.18584 -2.4084,-3.27935c-1.59926,-2.17976 -3.75183,-4.23508 -3.30078,-7.33057c0.30339,-2.08211 1.48383,-3.92672 2.39187,-5.81299c2.78181,-5.7786 7.18814,-11.37848 11.79139,-15.74664c1.65925,-1.57451 2.95781,-3.90593 5.16949,-4.51167c0.95002,-0.2602 1.8979,0.08823 2.84537,0.54975c1.07586,-3.90482 2.51382,-7.69694 6.06594,-10.17529c1.99324,-1.39071 4.70932,-1.30073 6.95678,-2.23379c3.99506,-1.65866 8.74963,-4.27944 13.3594,-3.4884c2.68584,0.46089 5.24796,2.18131 7.522,3.60441c1.29731,0.81184 2.82048,1.35192 3.87183,2.46819c4.80184,5.09856 5.4545,13.3729 10.60775,17.90116c0,0 0.82235,0.75877 0.94302,1.82608c3.2998,-1.16926 6.81458,-1.91611 10.13537,-1.05408c1.29054,0.335 2.32252,1.33285 3.47287,2.0184c0.8219,0.48984 6.43563,3.95407 6.65877,4.17525c3.7648,3.73186 3.52152,11.48654 1.36164,15.88547c1.72214,0.88096 3.3321,2.12404 4.92502,3.10898c2.59373,1.60383 4.74932,3.84356 7.01924,5.88754c4.76946,4.29479 10.44671,7.11177 9.66984,14.60962c-0.0546,0.5271 -0.20022,1.03291 -0.3816,1.53031c2.04892,0.47745 4.14128,1.54845 6.36465,3.32845c1.18137,0.94579 2.59718,1.81335 3.24194,3.18257c1.40856,2.99127 1.0305,8.14433 1.40265,11.34169c0.22666,1.94741 1.07469,3.84663 1.00311,5.80073c-0.18077,4.93626 -3.43341,9.14037 -5.91321,13.10014c-1.10084,1.75782 -1.69931,4.00734 -3.36966,5.22965c-1.11851,0.8185 -2.27401,1.25699 -3.45082,1.45662c-0.22806,3.44193 -2.14093,7.00896 -3.72127,9.6639c-0.45046,0.75679 -3.52754,5.97391 -3.91741,6.25114c-1.57486,1.11979 -3.51693,1.80595 -5.4485,2.0078c-0.44624,0.04663 -0.88776,-0.00133 -1.32737,-0.09713c0.52638,0.58169 0.99854,1.19264 1.27061,1.91658c0.47781,1.27143 0.03507,2.70737 -0.08703,4.0507c-0.47536,5.23017 -2.86236,13.28545 -8.78956,14.91378c-1.20772,0.33178 -2.51531,-0.10859 -3.77121,-0.20129c-1.5936,-0.11765 -6.9177,-0.51436 -8.54691,-1.16866c-1.25565,-0.50427 -2.54202,-1.22069 -3.82404,-2.01991c-1.27692,2.16143 -2.88424,4.64578 -4.50962,5.73286c-6.9153,4.62511 -16.1003,0.59088 -22.29045,-3.44657c-1.61075,-1.05059 -3.74165,-1.61098 -4.77844,-3.2346c-1.13737,-1.78108 -0.87814,-4.1207 -1.24251,-6.19397c-0.80027,-4.55353 -1.43869,-6.90828 -0.03034,-11.29272l1.22465,-2.15177c0,0 1.38581,-2.31772 3.7182,-0.88493c2.33238,1.43279 0.9466,3.75053 0.9466,3.75053l-0.77168,1.18707c-1.3247,3.26321 -0.15449,4.98516 0.27879,8.67972c0.15306,1.30514 -0.33288,2.80279 0.36479,3.92378c0.60874,0.97809 2.06014,1.01772 3.06152,1.58149c4.26962,2.40386 11.43619,7.05671 16.38938,3.57549c0.80517,-0.56589 2.09043,-2.57626 3.08332,-4.25111c-0.54579,-0.36265 -1.08223,-0.71069 -1.60623,-1.0326l-1.67999,-1.03203c0,0 -2.3324,-1.43281 -0.9466,-3.75053c1.38579,-2.31772 3.7182,-0.88493 3.7182,-0.88493l1.67998,1.03203c1.12309,0.68991 2.25774,1.42383 3.41103,2.14625c0.16421,0.06783 0.33391,0.15429 0.50897,0.2618c0.18363,0.11281 0.34424,0.23109 0.48427,0.35331c4.21508,2.57481 8.70037,4.79133 13.78962,4.01729c1.26978,-0.19313 2.06613,-2.45228 2.45148,-3.10104c1.2745,-2.14568 1.93245,-4.67051 2.27884,-7.158c0.08321,-0.59755 0.59316,-1.22625 0.33476,-1.77713c-0.46906,-0.99999 -1.60624,-1.52924 -2.29232,-2.39616c-0.9119,-1.1523 -1.70318,-2.09985 -2.54621,-2.95101c-1.66784,-0.45572 -3.26589,-1.14934 -5.29394,-2.38488l-2.24,-1.37605c0,0 -2.3324,-1.43279 -0.9466,-3.75051c1.38579,-2.31772 3.71819,-0.88493 3.71819,-0.88493l0.74925,0.46025c1.28596,-0.73177 2.71619,0.14683 2.71619,0.14683c1.5229,0.94102 2.81274,1.86384 3.98159,2.87759c0.92696,0.14755 1.98494,0.24669 3.42245,0.43892c2.30561,0.30833 3.80516,1.90253 5.90245,0.12992c1.42035,-1.20045 1.77711,-3.28063 2.73704,-4.87831c0.57481,-0.95669 2.85666,-4.54604 3.14701,-7.01203c-0.8935,-0.14607 -1.7861,-0.31031 -2.67145,-0.43518c0,0 -2.68969,-0.40395 -2.33471,-3.09868c0.06496,-0.49302 0.20806,-0.88233 0.39853,-1.18936c-0.05347,-0.39357 -0.01379,-0.84857 0.17048,-1.37053c0.90146,-2.55372 3.46034,-1.60328 3.46034,-1.60328c1.36621,0.59129 3.06904,0.69041 4.09865,1.77393c0.24916,0.26218 0.47346,0.53088 0.6745,0.80541c0.67982,-0.05924 1.26409,-0.2222 1.64444,-0.54658c1.05229,-0.8975 1.2734,-2.46575 1.95393,-3.67391c1.76502,-3.13337 5.14172,-6.67291 5.15578,-10.53482c0.00612,-1.67596 -0.7643,-3.28325 -0.96875,-4.95032c-0.07744,-0.6313 -0.29826,-8.17394 -0.78189,-9.37348c-0.25107,-0.62273 -3.89461,-2.73184 -4.10069,-2.84228c-4.09095,-2.1927 -5.98374,-0.9373 -9.70928,1.42215l-0.13221,0.78418c0,0 -1.38581,2.3177 -3.7182,0.88493c-2.33238,-1.43279 -0.94659,-3.75051 -0.94659,-3.75051l1.86414,-2.55467c2.07435,-1.29143 4.03861,-2.25271 5.96581,-2.78758c0.32369,-0.80944 0.80619,-1.57492 0.92929,-2.4399c0.69298,-4.86952 -4.97727,-7.25543 -7.86105,-9.85521c-3.30082,-2.97576 -5.34103,-4.68699 -9.0098,-7.00259c-0.92087,-0.58124 -2.36312,-2.02353 -3.75169,-1.62676c-2.78656,0.79622 -4.12135,3.45716 -5.46641,5.72978l-0.99814,1.66942c0,0 -1.38581,2.31772 -3.7182,0.88493c-2.3324,-1.43277 -0.9466,-3.75053 -0.9466,-3.75053l0.99817,-1.6694c1.78225,-2.95526 3.65518,-5.93023 6.768,-7.44476c0.32506,-0.73964 0.91708,-1.18507 0.91708,-1.18507c0.70814,-0.45755 1.74559,-0.61649 2.1244,-1.37263c0.89152,-1.77956 1.53454,-7.71533 -0.41087,-9.29174c-1.65583,-1.34171 -5.72948,-4.23118 -7.7883,-4.81458c-1.56688,-0.44401 -3.61797,0.26522 -5.09406,0.6227c-4.03177,0.97643 -8.7232,1.91496 -11.36304,5.09591l-0.34839,0.68621c0,0 -1.38579,2.31772 -3.71819,0.88493c-2.33238,-1.43279 -0.9466,-3.75049 -0.9466,-3.75049l0.98251,-1.53966c0.94547,-0.97858 1.69047,-2.20249 2.83641,-2.93573c0.86903,-0.55608 2.0496,-0.39117 2.99884,-0.79805c0.37563,-0.16099 0.75946,-0.32778 1.1506,-0.49761c-5.02864,-4.9956 -5.74109,-12.69878 -10.55366,-17.84639c-0.75224,-0.80459 -1.90567,-1.09457 -2.84814,-1.65988c-1.39987,-0.8397 -3.80123,-2.5499 -5.46339,-2.85085c-3.47083,-0.6284 -7.57295,1.93379 -10.51685,3.14864c-1.9938,0.82275 -4.43145,0.63344 -6.20679,1.85363c-1.80925,1.24351 -2.86777,4.17257 -4.13421,5.94331l1.65441,0.91053c0,0 2.01531,1.85952 0.19902,3.85121c-1.27381,1.3968 -2.64548,0.89944 -3.35123,0.4777c-1.1546,1.18464 -2.88575,0.4779 -2.88575,0.4779c-0.71509,-0.4515 -1.36244,-1.64097 -2.14532,-1.35445c-1.20622,0.44147 -1.545,2.05394 -2.39407,3.01587c-1.14901,1.3017 -2.46792,2.44681 -3.5943,3.76841c-3.2583,3.82308 -7.71001,9.47925 -9.08403,14.47491c-0.385,1.3998 1.54073,2.50088 2.33195,3.73825c0.3331,0.52091 0.21173,1.38105 0.74068,1.69862c0.55143,0.33106 1.27473,-0.19909 1.90739,-0.10881c1.64751,0.23518 3.26796,0.63948 4.89353,1.01472c0.1425,-0.03117 0.28296,-0.06616 0.42027,-0.10692c0,0 1.57792,-0.37554 2.60015,0.68829l0.83833,0.06948c0,0 2.70592,0.24502 2.50949,2.95881c-0.1964,2.71378 -2.90232,2.46877 -2.90232,2.46877l-1.67676,-0.16126c-0.51402,-0.09023 -1.02674,-0.18791 -1.5386,-0.29052c-3.98811,2.01831 -1.58535,10.01576 -0.70264,13.51304c0.08164,0.32344 0.97321,4.20005 1.34675,4.62695c1.54483,1.76545 4.05901,2.33083 6.05354,3.55608l1.11999,0.68803c0,0 2.3324,1.43277 0.9466,3.75049c-1.38579,2.31772 -3.7182,0.88493 -3.7182,0.88493z"/><path d="M265.19046,209.73877l0.72185,-0.60488c0,0 2.15292,-1.61982 3.80381,0.57128c1.65091,2.1911 -0.50201,3.81088 -0.50201,3.81088l-2.04653,1.23849c0.20878,2.79403 0.3359,8.68941 2.18066,10.63877c0.6068,0.64123 5.94196,2.95706 6.18775,3.02181c1.19523,0.31478 2.45406,0.23568 3.68348,0.3093c0.65402,0.03918 1.45461,0.433 1.96379,0.02889c1.18615,-0.94138 1.57167,-2.63556 2.65479,-3.69434c1.26434,-1.23594 2.86662,-2.06941 4.29991,-3.10413c0,0 2.19253,-1.5659 3.79044,0.66404c1.59792,2.22994 -0.59461,3.79584 -0.59461,3.79584c-1.23941,0.87415 -2.61936,1.57681 -3.7182,2.62245c-1.42357,1.35465 -2.11766,3.48711 -3.78882,4.52123c-1.67774,1.03818 -7.96868,0.54404 -9.54537,0.13569c-1.82464,-0.47256 -7.67789,-3.26069 -9.03765,-4.80944c-2.89504,-3.29745 -3.33129,-9.6968 -3.05788,-14.43598l-1.96768,-0.17972c-6.32984,-1.1089 -12.51597,-1.23682 -17.57222,-6.03609c-0.7763,-0.73684 -1.07673,-1.86192 -1.75767,-2.68824c-0.87119,-1.0572 -2.35351,-1.67015 -2.87587,-2.93461c-0.58726,-1.42155 -0.04074,-3.06575 -0.23128,-4.58655c-0.14557,-1.16182 -0.32441,-2.32371 -0.46751,-3.48733c-2.55422,-0.6489 -4.92774,-1.75868 -7.14219,-3.85767c-0.76623,-0.72625 -1.02659,-1.86599 -1.72911,-2.65449c-0.9838,-1.10423 -2.54659,-1.69691 -3.28757,-2.97632c-3.09789,-5.34895 2.49813,-11.12798 5.16449,-15.37233c1.14119,-1.81656 1.83809,-4.03871 3.47946,-5.41329c0.18289,-0.15316 0.38013,-0.27963 0.58846,-0.3855c-0.13851,-1.52826 0.78878,-3.06178 1.34571,-4.50998c1.42782,-3.7127 5.50049,-9.77024 9.05351,-11.29107c1.41354,-0.60505 3.08003,0.33893 4.61998,0.50939c2.79432,0.30931 5.47013,1.60636 7.90255,3.05468c0,0 2.33238,1.43279 0.94659,3.75051c-1.38579,2.31772 -3.71819,0.88493 -3.71819,0.88493c-1.74187,-1.11415 -3.72591,-1.92213 -5.74832,-2.2876c-0.79086,-0.14292 -1.58481,-1.03211 -2.3109,-0.7048c-1.42589,0.64279 -3.55623,4.69893 -4.29158,5.93185c-0.5081,0.85192 -1.00294,1.71247 -1.53843,2.54701c-0.27314,0.42569 -1.01492,0.75157 -0.95086,1.22211c0.46207,0.10469 0.9595,0.33678 1.35197,0.81566c0.11791,0.04748 0.22771,0.10364 0.32122,0.17597c0.8847,0.68409 1.64485,1.5177 2.46727,2.27652l1.8095,1.05003c0,0 2.3324,1.43277 0.9466,3.75049c-1.38579,2.31772 -3.7182,0.88493 -3.7182,0.88493l-2.67051,-1.70203c-0.37881,-0.34953 -1.19084,-1.08086 -2.08878,-1.92073c-0.40486,0.0232 -0.78047,0.10644 -1.06854,0.36904c-1.81837,1.65776 -2.35203,4.3397 -3.61753,6.45625c-1.26553,2.11656 -3.08743,3.93005 -3.97263,6.23813c-0.51541,1.34391 2.07985,2.04675 3.06305,3.12418c0.61194,0.67056 0.77225,1.6877 1.41998,2.32347c1.21697,1.19444 2.53779,1.88997 3.93637,2.32125c0.40014,-0.38797 0.99654,-0.6725 1.88545,-0.66066c1.34972,0.018 2.03084,0.70138 2.37458,1.38364c0.50333,0.04612 1.0124,0.08821 1.52627,0.13474l0.91967,-0.36315c0,0 2.62917,-0.62573 3.2985,2.02627c0.66935,2.652 -1.95981,3.27773 -1.95981,3.27773l-2.6512,0.4867c-0.1189,-0.01076 -0.23746,-0.02165 -0.3557,-0.03271c0.09889,0.67582 0.19177,1.3521 0.24881,2.03017c0.08543,1.0153 -0.57777,2.09206 -0.19852,3.0422c0.32344,0.81036 1.48041,0.9634 2.05866,1.61844c0.59118,0.66968 0.75357,1.66467 1.39141,2.28973c3.9279,3.84913 9.45317,3.61643 14.42039,4.48662l2.79315,0.25056c0,0 0.8493,0.0769 1.56173,0.62171z"/></g><g data-paper-data="{&quot;index&quot;:null}" fill="#aa0000"><path d="M244.97083,163.6282c2.40476,0.9712 6.53062,2.28955 8.24595,4.47498c1.31534,1.67581 2.1687,3.73693 2.66629,5.80146c1.00776,4.18124 -0.25596,5.13987 -1.03288,8.72362c-1.08892,5.02282 -1.58063,10.8049 -5.63915,14.57318c-2.52441,2.3439 -5.41504,3.52135 -8.52628,3.57249c0.1657,1.08332 0.08975,2.43035 0.14703,4.41694c0.04033,1.39812 0.40525,2.86543 -0.0057,4.19388c-2.51412,8.12684 -9.21379,9.78775 -16.26962,11.06245c2.38136,1.61433 4.74176,3.91342 5.31643,6.19028c1.38197,5.47549 -3.7365,12.19421 -8.63592,13.6431c-0.29007,0.08578 -6.37774,-0.4828 -7.68715,-0.60137c-1.74097,-0.28405 -4.3692,-0.52408 -6.3913,-1.37478c-0.05207,0.28276 -0.12719,0.56155 -0.23024,0.83553c-3.08497,8.19975 -16.54594,7.38931 -22.15188,2.81681c-0.90821,-0.74076 -1.31388,-1.95353 -2.10109,-2.82307c-0.87983,-0.97186 -2.16438,-1.57839 -2.87869,-2.67758c-0.59406,-0.91413 -0.39767,-2.16888 -0.89937,-3.13617c-0.66192,-1.27625 -2.21291,-2.09411 -2.53769,-3.49075c-0.02178,-0.0936 -0.03913,-0.18728 -0.05247,-0.28104c-1.31418,0.57411 -2.65914,0.38984 -3.62539,0.09458c-0.47128,1.29046 -1.859,3.29198 -2.46394,3.65413c-2.93288,1.75571 -10.27112,2.12856 -13.60199,0.76423c-2.06399,-0.8454 -4.58862,-1.52826 -5.75575,-3.44008c-0.10094,-0.16533 -1.15408,-9.34341 -1.3442,-11.30422c-0.1174,-1.2108 0.55096,-2.77115 -0.31395,-3.63525c-0.5775,-0.57693 -1.56421,-0.4379 -2.35945,-0.59271c-1.96529,-0.38256 -3.83167,-1.21072 -5.78982,-1.63168c-1.19648,-0.25719 -2.48455,0.15099 -3.65506,-0.21271c-1.74424,-0.54196 -5.99948,-3.64003 -7.42227,-4.61913c-1.82703,-3.50259 -7.297,-10.62138 -5.52364,-14.99088c-0.34689,-0.14749 -0.66644,-0.43382 -0.99347,-0.6274c-2.29961,-1.36107 -5.80251,-1.1345 -7.25532,-3.38456c-3.57225,-5.53244 -1.24343,-13.47248 2.68304,-17.58374c1.77288,-1.85633 3.7905,-1.86844 4.80908,-4.41959c0.6318,-1.58251 1.20131,-3.2094 1.50816,-4.89138c0.30463,-1.66985 -0.46751,-3.73802 0.57023,-5.06659c4.20951,-5.38921 10.95316,-3.78757 16.6108,-2.63966c0.05706,-0.82092 0.30131,-1.63795 0.749,-2.3867l0.73988,-1.23742c-0.22789,-0.91698 -0.37703,-1.84778 -0.46707,-2.78706l-0.40059,0.18561l-1.23163,-2.60393c-0.79258,-1.6154 -0.78478,-3.57531 0.19252,-5.20982c0.26657,-0.44581 0.58766,-0.83801 0.94982,-1.17341c-2.47696,-0.20012 -5.13745,-0.65155 -5.78854,-1.16909c-3.95525,-3.14401 -5.51415,-8.89186 -3.4022,-13.47985c1.01285,-2.20032 4.1634,-2.48025 6.02313,-4.01814c1.15802,-0.9576 1.34046,-2.70449 2.11548,-3.99583c2.7718,-4.61844 5.46048,-8.41232 11.17346,-8.95676c1.27985,-2.23923 2.38013,-4.46384 4.51359,-6.11096c0.9892,-0.76371 2.39067,-0.82831 3.43151,-1.5203c1.04604,-0.69543 1.6354,-1.99013 2.74256,-2.58452c0.65075,-0.34937 1.35497,-0.6295 2.0939,-0.85509c0.66261,-0.96437 1.37689,-1.8835 2.15092,-2.74745c1.39306,-1.55496 2.79048,-3.35033 4.75,-4.0773c3.23996,-1.20203 7.65501,0.411 10.407,2.119c2.336,1.44984 4.30386,3.50409 5.91634,5.8858c4.82078,2.07872 8.64173,5.81901 10.00368,12.07163c0.18219,0.83639 0.2584,3.16899 0.21116,5.29366c0.7524,-0.06034 1.55793,0.02028 2.24352,-0.2608c1.49999,-0.61496 2.52526,-2.42399 4.15047,-2.5252c7.88469,-0.49102 15.9321,9.84496 16.27911,17.05809c0.15471,3.21581 -0.47381,5.56146 -1.66548,7.75406c-0.24851,0.75904 -0.5238,1.51211 -0.80589,2.25663c6.38705,-1.13879 14.04731,3.42118 17.26682,9.07919c3.88032,1.96948 6.54069,5.52279 5.83068,11.07634c-0.18503,1.4473 -1.41181,2.49104 -2.33897,3.65336c1.5367,-0.217 3.19429,0.01056 4.75259,-0.12702zM198.47915,202.20873c-0.21441,-0.01328 -0.42906,-0.03941 -0.64276,-0.07865c0.20011,0.13871 0.36989,0.20601 0.50035,0.15124c0.04243,-0.0178 0.09005,-0.04218 0.14238,-0.07255z"/><path d="M152.50792,170.80625l-1.12001,-0.68801c-0.26553,-0.16313 -7.00549,-4.24345 -7.38642,-4.70013c-1.31779,-1.57979 -1.99038,-4.84547 -2.50055,-6.86685c-1.31324,-5.20318 -2.76478,-11.27945 -0.23733,-16.0737c-1.2239,-0.1712 -2.57765,0.06143 -3.62479,-0.58794c-1.1501,-0.71323 -1.60611,-2.18584 -2.4084,-3.27935c-1.59926,-2.17976 -3.75183,-4.23508 -3.30078,-7.33057c0.30339,-2.08211 1.48383,-3.92672 2.39187,-5.81299c2.78181,-5.7786 7.18814,-11.37848 11.79139,-15.74664c1.65925,-1.57451 2.95781,-3.90593 5.16949,-4.51167c0.95002,-0.2602 1.8979,0.08823 2.84537,0.54975c1.07586,-3.90482 2.51382,-7.69694 6.06594,-10.17529c1.99324,-1.39071 4.70932,-1.30073 6.95678,-2.23379c3.99506,-1.65866 8.74963,-4.27944 13.3594,-3.4884c2.68584,0.46089 5.24796,2.18131 7.522,3.60441c1.29731,0.81184 2.82048,1.35192 3.87183,2.46819c4.80184,5.09856 5.4545,13.3729 10.60775,17.90116c0,0 0.82235,0.75877 0.94302,1.82608c3.2998,-1.16926 6.81458,-1.91611 10.13537,-1.05408c1.29054,0.335 2.32252,1.33285 3.47287,2.0184c0.8219,0.48984 6.43563,3.95407 6.65877,4.17525c3.7648,3.73186 3.52152,11.48654 1.36164,15.88547c1.72214,0.88096 3.3321,2.12404 4.92502,3.10898c2.59373,1.60383 4.74932,3.84356 7.01924,5.88754c4.76946,4.29479 10.44671,7.11177 9.66984,14.60962c-0.0546,0.5271 -0.20022,1.03291 -0.3816,1.53031c2.04892,0.47745 4.14128,1.54845 6.36465,3.32845c1.18137,0.94579 2.59718,1.81335 3.24194,3.18257c1.40856,2.99127 1.0305,8.14433 1.40265,11.34169c0.22666,1.94741 1.07469,3.84663 1.00311,5.80073c-0.18077,4.93626 -3.43341,9.14037 -5.91321,13.10014c-1.10084,1.75782 -1.69931,4.00734 -3.36966,5.22965c-1.11851,0.8185 -2.27401,1.25699 -3.45082,1.45662c-0.22806,3.44193 -2.14093,7.00896 -3.72127,9.6639c-0.45046,0.75679 -3.52754,5.97391 -3.91741,6.25114c-1.57486,1.11979 -3.51693,1.80595 -5.4485,2.0078c-0.44624,0.04663 -0.88776,-0.00133 -1.32737,-0.09713c0.52638,0.58169 0.99854,1.19264 1.27061,1.91658c0.47781,1.27143 0.03507,2.70737 -0.08703,4.0507c-0.47536,5.23017 -2.86236,13.28545 -8.78956,14.91378c-1.20772,0.33178 -2.51531,-0.10859 -3.77121,-0.20129c-1.5936,-0.11765 -6.9177,-0.51436 -8.54691,-1.16866c-1.25565,-0.50427 -2.54202,-1.22069 -3.82404,-2.01991c-1.27692,2.16143 -2.88424,4.64578 -4.50962,5.73286c-6.9153,4.62511 -16.1003,0.59088 -22.29045,-3.44657c-1.61075,-1.05059 -3.74165,-1.61098 -4.77844,-3.2346c-1.13737,-1.78108 -0.87814,-4.1207 -1.24251,-6.19397c-0.80027,-4.55353 -1.43869,-6.90828 -0.03034,-11.29272l1.22465,-2.15177c0,0 1.38581,-2.31772 3.7182,-0.88493c2.33238,1.43279 0.9466,3.75053 0.9466,3.75053l-0.77168,1.18707c-1.3247,3.26321 -0.15449,4.98516 0.27879,8.67972c0.15306,1.30514 -0.33288,2.80279 0.36479,3.92378c0.60874,0.97809 2.06014,1.01772 3.06152,1.58149c4.26962,2.40386 11.43619,7.05671 16.38938,3.57549c0.80517,-0.56589 2.09043,-2.57626 3.08332,-4.25111c-0.54579,-0.36265 -1.08223,-0.71069 -1.60623,-1.0326l-1.67999,-1.03203c0,0 -2.3324,-1.43281 -0.9466,-3.75053c1.38579,-2.31772 3.7182,-0.88493 3.7182,-0.88493l1.67998,1.03203c1.12309,0.68991 2.25774,1.42383 3.41103,2.14625c0.16421,0.06783 0.33391,0.15429 0.50897,0.2618c0.18363,0.11281 0.34424,0.23109 0.48427,0.35331c4.21508,2.57481 8.70037,4.79133 13.78962,4.01729c1.26978,-0.19313 2.06613,-2.45228 2.45148,-3.10104c1.2745,-2.14568 1.93245,-4.67051 2.27884,-7.158c0.08321,-0.59755 0.59316,-1.22625 0.33476,-1.77713c-0.46906,-0.99999 -1.60624,-1.52924 -2.29232,-2.39616c-0.9119,-1.1523 -1.70318,-2.09985 -2.54621,-2.95101c-1.66784,-0.45572 -3.26589,-1.14934 -5.29394,-2.38488l-2.24,-1.37605c0,0 -2.3324,-1.43279 -0.9466,-3.75051c1.38579,-2.31772 3.71819,-0.88493 3.71819,-0.88493l0.74925,0.46025c1.28596,-0.73177 2.71619,0.14683 2.71619,0.14683c1.5229,0.94102 2.81274,1.86384 3.98159,2.87759c0.92696,0.14755 1.98494,0.24669 3.42245,0.43892c2.30561,0.30833 3.80516,1.90253 5.90245,0.12992c1.42035,-1.20045 1.77711,-3.28063 2.73704,-4.87831c0.57481,-0.95669 2.85666,-4.54604 3.14701,-7.01203c-0.8935,-0.14607 -1.7861,-0.31031 -2.67145,-0.43518c0,0 -2.68969,-0.40395 -2.33471,-3.09868c0.06496,-0.49302 0.20806,-0.88233 0.39853,-1.18936c-0.05347,-0.39357 -0.01379,-0.84857 0.17048,-1.37053c0.90146,-2.55372 3.46034,-1.60328 3.46034,-1.60328c1.36621,0.59129 3.06904,0.69041 4.09865,1.77393c0.24916,0.26218 0.47346,0.53088 0.6745,0.80541c0.67982,-0.05924 1.26409,-0.2222 1.64444,-0.54658c1.05229,-0.8975 1.2734,-2.46575 1.95393,-3.67391c1.76502,-3.13337 5.14172,-6.67291 5.15578,-10.53482c0.00612,-1.67596 -0.7643,-3.28325 -0.96875,-4.95032c-0.07744,-0.6313 -0.29826,-8.17394 -0.78189,-9.37348c-0.25107,-0.62273 -3.89461,-2.73184 -4.10069,-2.84228c-4.09095,-2.1927 -5.98374,-0.9373 -9.70928,1.42215l-0.13221,0.78418c0,0 -1.38581,2.3177 -3.7182,0.88493c-2.33238,-1.43279 -0.94659,-3.75051 -0.94659,-3.75051l1.86414,-2.55467c2.07435,-1.29143 4.03861,-2.25271 5.96581,-2.78758c0.32369,-0.80944 0.80619,-1.57492 0.92929,-2.4399c0.69298,-4.86952 -4.97727,-7.25543 -7.86105,-9.85521c-3.30082,-2.97576 -5.34103,-4.68699 -9.0098,-7.00259c-0.92087,-0.58124 -2.36312,-2.02353 -3.75169,-1.62676c-2.78656,0.79622 -4.12135,3.45716 -5.46641,5.72978l-0.99814,1.66942c0,0 -1.38581,2.31772 -3.7182,0.88493c-2.3324,-1.43277 -0.9466,-3.75053 -0.9466,-3.75053l0.99817,-1.6694c1.78225,-2.95526 3.65518,-5.93023 6.768,-7.44476c0.32506,-0.73964 0.91708,-1.18507 0.91708,-1.18507c0.70814,-0.45755 1.74559,-0.61649 2.1244,-1.37263c0.89152,-1.77956 1.53454,-7.71533 -0.41087,-9.29174c-1.65583,-1.34171 -5.72948,-4.23118 -7.7883,-4.81458c-1.56688,-0.44401 -3.61797,0.26522 -5.09406,0.6227c-4.03177,0.97643 -8.7232,1.91496 -11.36304,5.09591l-0.34839,0.68621c0,0 -1.38579,2.31772 -3.71819,0.88493c-2.33238,-1.43279 -0.9466,-3.75049 -0.9466,-3.75049l0.98251,-1.53966c0.94547,-0.97858 1.69047,-2.20249 2.83641,-2.93573c0.86903,-0.55608 2.0496,-0.39117 2.99884,-0.79805c0.37563,-0.16099 0.75946,-0.32778 1.1506,-0.49761c-5.02864,-4.9956 -5.74109,-12.69878 -10.55366,-17.84639c-0.75224,-0.80459 -1.90567,-1.09457 -2.84814,-1.65988c-1.39987,-0.8397 -3.80123,-2.5499 -5.46339,-2.85085c-3.47083,-0.6284 -7.57295,1.93379 -10.51685,3.14864c-1.9938,0.82275 -4.43145,0.63344 -6.20679,1.85363c-1.80925,1.24351 -2.86777,4.17257 -4.13421,5.94331l1.65441,0.91053c0,0 2.01531,1.85952 0.19902,3.85121c-1.27381,1.3968 -2.64548,0.89944 -3.35123,0.4777c-1.1546,1.18464 -2.88575,0.4779 -2.88575,0.4779c-0.71509,-0.4515 -1.36244,-1.64097 -2.14532,-1.35445c-1.20622,0.44147 -1.545,2.05394 -2.39407,3.01587c-1.14901,1.3017 -2.46792,2.44681 -3.5943,3.76841c-3.2583,3.82308 -7.71001,9.47925 -9.08403,14.47491c-0.385,1.3998 1.54073,2.50088 2.33195,3.73825c0.3331,0.52091 0.21173,1.38105 0.74068,1.69862c0.55143,0.33106 1.27473,-0.19909 1.90739,-0.10881c1.64751,0.23518 3.26796,0.63948 4.89353,1.01472c0.1425,-0.03117 0.28296,-0.06616 0.42027,-0.10692c0,0 1.57792,-0.37554 2.60015,0.68829l0.83833,0.06948c0,0 2.70592,0.24502 2.50949,2.95881c-0.1964,2.71378 -2.90232,2.46877 -2.90232,2.46877l-1.67676,-0.16126c-0.51402,-0.09023 -1.02674,-0.18791 -1.5386,-0.29052c-3.98811,2.01831 -1.58535,10.01576 -0.70264,13.51304c0.08164,0.32344 0.97321,4.20005 1.34675,4.62695c1.54483,1.76545 4.05901,2.33083 6.05354,3.55608l1.11999,0.68803c0,0 2.3324,1.43277 0.9466,3.75049c-1.38579,2.31772 -3.7182,0.88493 -3.7182,0.88493z"/><path d="M152.27746,213.01898l0.72185,-0.60488c0,0 2.15292,-1.61982 3.80381,0.57128c1.65091,2.1911 -0.50201,3.81088 -0.50201,3.81088l-2.04653,1.23849c0.20878,2.79403 0.3359,8.68941 2.18066,10.63877c0.6068,0.64123 5.94196,2.95706 6.18775,3.02181c1.19523,0.31478 2.45406,0.23568 3.68348,0.3093c0.65402,0.03918 1.45461,0.433 1.96379,0.02889c1.18615,-0.94138 1.57167,-2.63556 2.65479,-3.69434c1.26434,-1.23594 2.86662,-2.06941 4.29991,-3.10413c0,0 2.19253,-1.5659 3.79044,0.66404c1.59792,2.22994 -0.59461,3.79584 -0.59461,3.79584c-1.23941,0.87415 -2.61936,1.57681 -3.7182,2.62245c-1.42357,1.35465 -2.11766,3.48711 -3.78882,4.52123c-1.67774,1.03818 -7.96868,0.54404 -9.54537,0.13569c-1.82464,-0.47256 -7.67789,-3.26069 -9.03765,-4.80944c-2.89504,-3.29745 -3.33129,-9.6968 -3.05788,-14.43598l-1.96768,-0.17972c-6.32984,-1.1089 -12.51597,-1.23682 -17.57222,-6.03609c-0.7763,-0.73684 -1.07673,-1.86192 -1.75767,-2.68824c-0.87119,-1.0572 -2.35351,-1.67015 -2.87587,-2.93461c-0.58726,-1.42155 -0.04074,-3.06575 -0.23128,-4.58655c-0.14557,-1.16182 -0.32441,-2.32371 -0.46751,-3.48733c-2.55422,-0.6489 -4.92774,-1.75868 -7.14219,-3.85767c-0.76623,-0.72625 -1.02659,-1.86599 -1.72911,-2.65449c-0.9838,-1.10423 -2.54659,-1.69691 -3.28757,-2.97632c-3.09789,-5.34895 2.49813,-11.12798 5.16449,-15.37233c1.14119,-1.81656 1.83809,-4.03871 3.47946,-5.41329c0.18289,-0.15316 0.38013,-0.27963 0.58846,-0.3855c-0.13851,-1.52826 0.78878,-3.06178 1.34571,-4.50998c1.42782,-3.7127 5.50049,-9.77024 9.05351,-11.29107c1.41354,-0.60505 3.08003,0.33893 4.61998,0.50939c2.79432,0.30931 5.47013,1.60636 7.90255,3.05468c0,0 2.33238,1.43279 0.94659,3.75051c-1.38579,2.31772 -3.71819,0.88493 -3.71819,0.88493c-1.74187,-1.11415 -3.72591,-1.92213 -5.74832,-2.2876c-0.79086,-0.14292 -1.58481,-1.03211 -2.3109,-0.7048c-1.42589,0.64279 -3.55623,4.69893 -4.29158,5.93185c-0.5081,0.85192 -1.00294,1.71247 -1.53843,2.54701c-0.27314,0.42569 -1.01492,0.75157 -0.95086,1.22211c0.46207,0.10469 0.9595,0.33678 1.35197,0.81566c0.11791,0.04748 0.22771,0.10364 0.32122,0.17597c0.8847,0.68409 1.64485,1.5177 2.46727,2.27652l1.8095,1.05003c0,0 2.3324,1.43277 0.9466,3.75049c-1.38579,2.31772 -3.7182,0.88493 -3.7182,0.88493l-2.67051,-1.70203c-0.37881,-0.34953 -1.19084,-1.08086 -2.08878,-1.92073c-0.40486,0.0232 -0.78047,0.10644 -1.06854,0.36904c-1.81837,1.65776 -2.35203,4.3397 -3.61753,6.45625c-1.26553,2.11656 -3.08743,3.93005 -3.97263,6.23813c-0.51541,1.34391 2.07985,2.04675 3.06305,3.12418c0.61194,0.67056 0.77225,1.6877 1.41998,2.32347c1.21697,1.19444 2.53779,1.88997 3.93637,2.32125c0.40014,-0.38797 0.99654,-0.6725 1.88545,-0.66066c1.34972,0.018 2.03084,0.70138 2.37458,1.38364c0.50333,0.04612 1.0124,0.08821 1.52627,0.13474l0.91967,-0.36315c0,0 2.62917,-0.62573 3.2985,2.02627c0.66935,2.652 -1.95981,3.27773 -1.95981,3.27773l-2.6512,0.4867c-0.1189,-0.01076 -0.23746,-0.02165 -0.3557,-0.03271c0.09889,0.67582 0.19177,1.3521 0.24881,2.03017c0.08543,1.0153 -0.57777,2.09206 -0.19852,3.0422c0.32344,0.81036 1.48041,0.9634 2.05866,1.61844c0.59118,0.66968 0.75357,1.66467 1.39141,2.28973c3.9279,3.84913 9.45317,3.61643 14.42039,4.48662l2.79315,0.25056c0,0 0.8493,0.0769 1.56173,0.62171z"/></g><g><g data-paper-data="{&quot;index&quot;:null}" fill="#de0000"><path d="M304.2263,111.8283c4.34632,-0.74138 11.50045,-2.52313 15.90003,-0.86515c3.37367,1.27136 6.41015,3.523 8.93164,6.09982c5.10676,5.21878 4.10149,7.76058 6.08993,13.71016c2.78691,8.33872 7.10416,17.25231 4.47581,26.42567c-1.63485,5.70586 -4.81818,10.03242 -9.30313,12.90742c1.18422,1.43798 2.24617,3.47986 4.05884,6.33873c1.27573,2.01202 3.08425,3.8333 3.64232,6.1494c3.41403,14.16893 -4.89382,22.63186 -14.05635,30.84953c4.8721,0.22189 10.30973,1.46588 13.12828,4.28443c6.77812,6.77812 5.17491,21.22801 -0.6966,27.76013c-0.34764,0.38675 -9.70518,5.03256 -11.71467,6.03731c-2.78181,1.15068 -6.81701,3.16442 -10.50139,3.73793c0.17033,0.46114 0.30369,0.93718 0.3921,1.43132c2.64641,14.78951 -17.65599,25.71686 -29.79749,24.0632c-1.96703,-0.2679 -3.61328,-1.67954 -5.51623,-2.245c-2.12685,-0.63199 -4.52493,-0.36452 -6.52164,-1.33202c-1.66056,-0.80462 -2.46689,-2.81962 -4.03928,-3.78525c-2.0746,-1.27405 -5.0445,-1.07639 -6.73304,-2.83026c-0.11314,-0.11753 -0.21995,-0.23917 -0.32102,-0.36452c-1.41344,2.02385 -3.53194,2.96433 -5.19564,3.40137c0.43719,2.31473 0.15919,6.49602 -0.40625,7.571c-2.74146,5.21175 -13.10016,12.36228 -19.13698,13.36124c-3.74072,0.61901 -8.01059,1.89069 -11.3739,0.14018c-0.29087,-0.15139 -9.81327,-12.64995 -11.79684,-15.35155c-1.22486,-1.66824 -1.61008,-4.55577 -3.62145,-5.04329c-1.34293,-0.32551 -2.65844,0.76621 -3.95088,1.2551c-3.19416,1.20827 -6.63215,1.67467 -9.84933,2.82027c-1.96574,0.69998 -3.48566,2.45728 -5.50632,2.97788c-3.01105,0.77575 -11.90278,0.06658 -14.82637,-0.08736c-5.70875,-3.48718 -19.86875,-8.99372 -21.09055,-16.99128c-0.63337,0.09612 -1.34787,-0.03579 -1.99246,-0.02505c-4.53262,0.07557 -9.43504,3.56004 -13.50869,1.57114c-10.01641,-4.89035 -13.53751,-18.61887 -11.4,-28.17586c0.96513,-4.31522 3.89192,-6.14877 3.1541,-10.80304c-0.45768,-2.88706 -1.04474,-5.78312 -2.06214,-8.52348c-1.01007,-2.72061 -3.93444,-5.05566 -3.58014,-7.93604c1.43721,-11.68401 12.64901,-15.40669 21.88482,-18.81673c-0.6315,-1.25403 -0.98712,-2.67086 -0.98712,-4.17073v-2.47878c-1.12996,-1.13834 -2.15731,-2.36777 -3.106,-3.66285l-0.42164,0.63247l-4.05971,-2.70647c-2.56004,-1.65333 -4.25468,-4.53172 -4.25468,-7.80593c0,-0.89303 0.12605,-1.7566 0.36137,-2.57391c-3.78026,1.93606 -8.04643,3.66907 -9.4448,3.4968c-8.49494,-1.04647 -15.76775,-8.06446 -16.6868,-16.68682c-0.44077,-4.13514 3.90218,-7.38067 5.27098,-11.30752c0.85231,-2.44514 -0.40265,-5.16862 -0.39843,-7.75805c0.01508,-9.26087 0.62688,-17.23884 8.47011,-23.17809c-0.08594,-4.43241 -0.42054,-8.68184 1.25165,-13.01507c0.77534,-2.00917 2.75941,-3.36508 3.67231,-5.31561c0.91748,-1.96027 0.64857,-4.3875 1.74299,-6.25477c0.64328,-1.09753 1.42464,-2.1417 2.30404,-3.13724c0.12519,-2.00919 0.365,-3.99858 0.73981,-5.96094c0.67455,-3.53183 1.14613,-7.41981 3.36604,-10.2484c3.67052,-4.67697 11.50219,-6.28725 16.99537,-6.26168c4.66286,0.02172 9.31589,1.26025 13.73661,3.29838c8.8277,-1.29319 17.64615,0.74773 25.07164,8.68244c0.99329,1.06142 3.13467,4.41018 4.91535,7.56548c1.04285,-0.76558 2.28576,-1.37243 3.03917,-2.40123c1.64844,-2.25094 1.56635,-5.82399 3.84427,-7.43494c11.05136,-7.81549 31.76418,0.08474 38.54812,10.34008c3.02447,4.57213 4.15127,8.57426 4.32497,12.85904c0.29894,1.33569 0.55368,2.68674 0.7911,4.03137c8.30718,-7.41666 23.42855,-7.63019 33.04075,-2.23841c7.36347,-0.60685 14.32952,2.20467 18.13007,10.97994c0.99045,2.28688 0.11301,4.92012 -0.22499,7.45739c2.0483,-1.70091 4.65951,-2.85936 6.80841,-4.46332zM270.12523,210.19281c-0.32372,0.17352 -0.65894,0.32839 -1.00421,0.4632c0.41207,0.02312 0.7178,-0.03107 0.86006,-0.22874c0.04627,-0.06428 0.09438,-0.14282 0.14413,-0.23446z"/><path d="M175.86405,205.55994h-2.22942c-0.52858,0 -13.89261,0.08796 -14.8447,-0.23825c-3.29364,-1.12846 -7.11547,-5.30757 -9.61773,-7.80985c-6.44104,-6.44104 -13.84341,-14.03677 -14.3371,-23.33527c-1.93082,0.85065 -3.69917,2.40985 -5.78889,2.40089c-2.2952,-0.00984 -4.24095,-1.75688 -6.36078,-2.63687c-4.22567,-1.75416 -9.14856,-2.82804 -11.18642,-7.76906c-1.37071,-3.32345 -1.25787,-7.08825 -1.57784,-10.66901c-0.98021,-10.96955 0.56012,-23.13933 3.45936,-33.68179c1.04504,-3.80003 0.90611,-8.38441 3.59867,-11.26232c1.15658,-1.2362 2.83983,-1.57884 4.62093,-1.7554c-1.8327,-6.68904 -3.04022,-13.53888 -0.02627,-20.36665c1.69127,-3.83138 5.72377,-6.14396 8.18344,-9.53364c4.37232,-6.0255 9.01288,-14.14413 16.41251,-17.13396c4.3113,-1.74199 9.53891,-1.52736 14.08827,-1.48906c2.59536,0.02183 5.28297,-0.5578 7.78522,0.13144c11.42879,3.14806 19.58147,14.68309 31.02547,16.67938c0,0 1.85767,0.37154 2.96238,1.82658c3.78615,-4.6828 8.25297,-8.9402 13.83787,-10.66597c2.1704,-0.67066 4.54142,-0.13756 6.81286,-0.16847c1.62294,-0.02207 12.81109,0.00095 13.3285,0.12419c8.72939,2.0791 15.12539,13.65908 15.81008,22.04763c3.274,-0.25926 6.69988,0.11296 9.87628,0.12238c5.17211,0.01536 10.25991,1.35669 15.34374,2.30836c10.68199,1.99963 21.39921,1.01725 26.79484,12.70118c0.37933,0.8214 0.60765,1.69347 0.77655,2.58544c3.39848,-1.14451 7.37687,-1.45853 12.16318,-0.85172c2.54318,0.32241 5.35952,0.31924 7.49003,1.74494c4.6544,3.11465 8.58962,11.00446 11.91459,15.35385c2.02513,2.64908 4.91293,4.66829 6.50972,7.59559c4.03366,7.39458 2.95791,16.48115 2.79458,24.51423c-0.0725,3.56602 1.01437,7.40033 -0.35341,10.69439c-0.91588,2.20576 -2.21642,3.88812 -3.75588,5.23969c2.66411,5.24786 2.98423,12.19532 2.99457,17.50724c0.00295,1.51416 0.06458,11.92686 -0.26171,12.68389c-1.31803,3.05791 -3.54802,5.811 -6.18438,7.84512c-0.60907,0.46994 -1.29359,0.797 -2.01699,1.05228c1.27266,0.37846 2.49189,0.8486 3.51815,1.66435c1.80235,1.43267 2.40771,3.93487 3.39928,6.01281c3.86065,8.09029 7.39741,22.04002 0.18583,29.76001c-1.46942,1.573 -3.75638,2.10466 -5.66547,3.09911c-2.42242,1.26186 -10.51874,5.47228 -13.46016,5.97993c-2.26695,0.39125 -4.76331,0.4994 -7.32547,0.4823c0.02245,4.31583 -0.15497,9.40212 -1.57497,12.45755c-6.04151,12.99972 -22.925,15.35568 -35.45126,15.01168c-3.25945,-0.08951 -6.8495,1.00725 -9.77224,-0.43832c-3.2062,-1.58576 -4.86536,-5.24676 -7.20051,-7.95628c-5.12875,-5.95096 -8.10792,-8.82619 -9.87409,-16.51714l-0.09016,-4.25466c0,0 0,-4.64278 4.64278,-4.64278c4.64278,0 4.64278,4.64278 4.64278,4.64278l-0.09015,2.43362c0.91196,5.97296 4.11453,7.44256 7.96129,12.46535c1.35891,1.77436 1.95514,4.40583 3.9466,5.42023c1.73762,0.88511 3.88512,-0.36308 5.83372,-0.43834c8.30834,-0.32082 22.79178,0.04605 26.97253,-9.51194c0.6796,-1.55372 0.80075,-5.65573 0.78833,-9.00306c-1.11023,-0.04011 -2.19418,-0.06721 -3.23722,-0.06721h-3.34413c0,0 -4.64278,0 -4.64278,-4.64278c0,-4.64278 4.64278,-4.64278 4.64278,-4.64278h3.34413c2.23556,0 4.5263,0.05405 6.83413,0.07452c0.29811,-0.04838 0.62041,-0.07452 0.96885,-0.07452c0.36554,0 0.7023,0.02877 1.01255,0.08181c8.37776,-0.02126 16.83697,-0.81068 23.57228,-6.52494c1.68046,-1.42572 0.8733,-5.45219 0.86958,-6.74945c-0.01229,-4.29058 -1.2522,-8.58175 -2.91318,-12.5378c-0.39899,-0.95032 -0.20384,-2.33036 -1.05955,-2.90488c-1.55332,-1.0429 -3.66959,-0.79485 -5.42303,-1.44745c-2.33061,-0.86743 -4.30741,-1.54357 -6.27561,-2.0318c-2.82479,0.83338 -5.75508,1.2554 -9.78305,1.2705h-4.45885c0,0 -4.64278,0 -4.64278,-4.64278c0,-4.64278 4.64278,-4.64278 4.64278,-4.64278h1.49141c1.23515,-2.22942 4.08214,-2.22942 4.08214,-2.22942c3.03625,0.00806 5.71732,0.1992 8.30137,0.63247c1.47792,-0.61809 3.10445,-1.42504 5.36456,-2.43714c3.62497,-1.62331 7.19576,-0.63727 8.70607,-5.12176c1.02282,-3.03702 -0.26849,-6.4057 -0.26171,-9.61031c0.00405,-1.91894 0.20161,-9.23115 -1.5222,-13.10528c-1.42794,0.59011 -2.87037,1.15288 -4.26798,1.7667c0,0 -4.26737,1.82888 -6.09625,-2.4385c-0.33461,-0.78077 -0.46515,-1.47991 -0.4551,-2.10114c-0.42046,-0.52848 -0.75872,-1.2308 -0.94484,-2.16134c-0.91053,-4.55261 3.6421,-5.46313 3.6421,-5.46313c2.5037,-0.36328 5.06899,-1.75061 7.51109,-1.08985c0.59093,0.15989 1.15141,0.35171 1.68305,0.57295c0.93817,-0.69862 1.64691,-1.4632 1.91826,-2.28074c0.75072,-2.26191 -0.29252,-4.75852 -0.35341,-7.14099c-0.15791,-6.17906 1.67693,-14.40364 -1.66425,-20.0742c-1.44997,-2.46085 -3.97063,-4.12228 -5.71942,-6.3806c-0.66224,-0.85519 -7.54934,-11.70683 -9.2976,-13.02899c-0.90756,-0.68637 -8.04783,-0.49721 -8.44402,-0.47356c-7.8644,0.46939 -9.5272,4.01207 -12.89717,10.82175l0.49014,1.26783c0,0 0,4.64278 -4.64278,4.64278c-4.64278,0 -4.64278,-4.64278 -4.64278,-4.64278l0.49014,-5.42045c1.89578,-3.75888 3.91863,-6.93501 6.25871,-9.45309c-0.23338,-1.4772 -0.19724,-3.03295 -0.77095,-4.41095c-3.2299,-7.7578 -13.56169,-6.15012 -20.02301,-7.36361c-7.39573,-1.38896 -11.85553,-2.05984 -19.2123,-2.15049c-1.84658,-0.02275 -5.20173,-0.83783 -6.87787,0.99315c-3.36368,3.67439 -2.99065,8.77408 -2.9706,13.31416v3.34413c0,0 0,4.64278 -4.64278,4.64278c-4.64278,0 -4.64278,-4.64278 -4.64278,-4.64278v-3.34413c0.02223,-5.93359 0.15923,-11.97777 3.37262,-16.9981c-0.17057,-1.37618 0.30358,-2.56154 0.30358,-2.56154c0.63264,-1.30764 2.00465,-2.47421 1.89793,-3.92293c-0.25116,-3.40951 -4.48192,-12.68447 -8.68632,-13.24314c-3.57852,-0.4755 -12.02421,-1.04247 -15.52937,-0.04426c-2.66761,0.75969 -5.0363,3.64469 -6.87407,5.49688c-5.01965,5.05908 -11.03258,10.65632 -12.10685,17.69238l0.09015,1.3189c0,0 0,4.64278 -4.64278,4.64278c-4.64278,0 -4.64278,-4.64278 -4.64278,-4.64278l0.09016,-3.13994c0.52463,-2.28458 0.54386,-4.74815 1.5739,-6.85376c0.78114,-1.59679 2.64338,-2.41769 3.67114,-3.86807c0.40671,-0.57395 0.82033,-1.1637 1.24191,-1.76454c-11.66935,-2.79315 -19.41191,-13.43754 -30.89905,-16.64781c-1.79549,-0.50178 -3.72713,0.11146 -5.5913,0.13146c-2.76888,0.02969 -7.75356,-0.31468 -10.43537,0.74036c-5.59996,2.20307 -9.34164,9.64869 -12.56996,14.07793c-2.18645,2.99977 -5.90006,4.91628 -7.42252,8.30172c-1.55152,3.45014 -0.54289,8.69399 -0.84527,12.42799l3.20113,-0.15497c0,0 4.55261,0.91053 3.6421,5.46313c-0.63857,3.19281 -3.06845,3.69862 -4.46304,3.71594c-0.64973,2.7747 -3.78515,3.29726 -3.78515,3.29726c-1.43407,-0.01786 -3.41189,-1.17793 -4.30221,-0.05355c-1.37175,1.73236 -0.46139,4.39963 -0.86016,6.57304c-0.53966,2.94115 -1.46303,5.8058 -1.95242,8.75574c-1.4157,8.53343 -2.97314,20.82653 -0.62492,29.38207c0.65799,2.39729 4.41996,2.27732 6.64895,3.37804c0.93837,0.46337 1.51041,1.83277 2.5569,1.82198c1.09097,-0.01126 1.68248,-1.43893 2.68214,-1.876c2.6032,-1.13819 5.31426,-2.00429 8.00742,-2.91752c0.18034,-0.17395 0.35435,-0.35161 0.51876,-0.5349c0,0 1.97031,-1.97033 4.38453,-1.3317l1.28094,-0.65268c0,0 4.15262,-2.07632 6.22892,2.0763c2.07632,4.15262 -2.07632,6.22894 -2.07632,6.22894l-2.58145,1.2728c-0.82686,0.33043 -1.65833,0.64875 -2.49281,0.95908c-4.04915,6.54618 6.4104,16.10042 10.73973,20.42974c0.40039,0.40039 5.07282,5.27745 5.98822,5.56668c3.78577,1.19618 7.93811,-0.23825 11.90835,-0.23825h2.22942c0,0 4.64278,0 4.64278,4.64278c0,4.64278 -4.64278,4.64278 -4.64278,4.64278z"/><path d="M212.27329,267.61136l0.52436,-1.53585c0,0 1.72429,-4.3107 6.03499,-2.58642c4.3107,1.72428 2.58642,6.03497 2.58642,6.03497l-1.90136,3.65633c2.73606,3.9055 8.05287,12.42814 12.43536,13.6238c1.44156,0.39331 11.22454,-1.0154 11.63873,-1.14177c2.01408,-0.61452 3.77785,-1.86334 5.63174,-2.86193c0.98625,-0.53123 2.49457,-0.67477 2.88411,-1.72509c0.90743,-2.44669 -0.00607,-5.27571 0.64913,-7.80166c0.76483,-2.94862 2.37194,-5.61171 3.55791,-8.41755c0,0 1.82886,-4.26737 6.09625,-2.43849c4.26738,1.82888 2.4385,6.09625 2.4385,6.09625c-1.04345,2.39614 -2.44084,4.66751 -3.13035,7.18839c-0.89328,3.26584 -0.04757,7.01472 -1.58029,10.03372c-1.5388,3.03095 -11.12749,7.96876 -13.77836,8.78951c-3.06772,0.94982 -14.01604,2.13291 -17.34374,1.08764c-7.08497,-2.22547 -13.29052,-11.20828 -17.01778,-18.39745l-3.02104,1.50759c-10.18044,4.07217 -19.29776,9.45214 -30.8364,6.97152c-1.77159,-0.38086 -3.18827,-1.75875 -4.8989,-2.35653c-2.18856,-0.7648 -4.88012,-0.32876 -6.74126,-1.71112c-2.09238,-1.55411 -2.72794,-4.45485 -4.32913,-6.51142c-1.22325,-1.57114 -2.49496,-3.1124 -3.71622,-4.68839c-4.28336,1.34808 -8.70484,1.85833 -13.75581,0.7762c-1.74766,-0.37443 -3.11881,-1.80985 -4.8279,-2.33281c-2.39344,-0.73236 -5.18452,-0.19415 -7.37695,-1.4017c-9.16605,-5.04846 -6.04968,-18.55139 -5.86247,-27.16929c0.08012,-3.68843 -0.8396,-7.57117 0.35341,-11.06225c0.13293,-0.38899 0.31,-0.75179 0.52111,-1.09441c-1.53193,-2.11433 -1.51682,-5.19554 -1.96663,-7.81851c-1.15313,-6.72433 -0.49684,-19.2643 3.3519,-24.69009c1.53121,-2.15863 4.77904,-2.27546 7.16931,-3.41164c4.33732,-2.06168 9.36186,-2.56963 14.16376,-2.63687c0,0 4.64278,0 4.64278,4.64278c0,4.64278 -4.64278,4.64278 -4.64278,4.64278c-3.50569,-0.06464 -7.09744,0.53724 -10.35988,1.82198c-1.27577,0.50238 -3.20565,-0.08581 -3.9778,1.04721c-1.51633,2.22501 -1.08702,10.08477 -1.08435,12.55285c0.00185,1.70538 0.03054,3.41151 -0.0226,5.11607c-0.0271,0.8695 -0.82334,2.01451 -0.32047,2.6462c0.76386,-0.26248 1.69005,-0.37009 2.67824,-0.02175c0.21298,-0.03658 0.42169,-0.05309 0.62085,-0.0313c1.88342,0.20599 3.71572,0.74315 5.57355,1.1147l3.54832,-0.09016c0,0 4.64278,0 4.64278,4.64278c0,4.64278 -4.64278,4.64278 -4.64278,4.64278l-5.36938,-0.09015c-0.85573,-0.17113 -2.67452,-0.51177 -4.71284,-0.9341c-0.56924,0.39838 -1.0436,0.85834 -1.23437,1.50232c-1.20425,4.06519 0.35341,8.47471 0.35341,12.71452c0,4.23981 -1.07381,8.53637 -0.35341,12.71452c0.41946,2.43277 4.80958,1.12675 7.1788,1.82036c1.47457,0.4317 2.59336,1.77758 4.08978,2.12605c2.81146,0.65469 5.33978,0.48494 7.75129,-0.14191c0.24484,-0.92853 0.86542,-1.88213 2.16985,-2.66479c1.98062,-1.18837 3.56708,-0.80017 4.66137,-0.10996c0.77292,-0.38545 1.55067,-0.78194 2.33927,-1.17623l1.02279,-1.35972c0,0 3.28294,-3.28294 6.56587,0c3.28294,3.28294 0,6.56586 0,6.56586l-3.43604,3.09911c-0.18248,0.09125 -0.36455,0.18198 -0.54629,0.27217c0.73226,0.90111 1.45612,1.80832 2.12944,2.75039c1.00816,1.41059 0.97996,3.58496 2.35913,4.63569c1.17626,0.89615 2.99384,0.07909 4.40585,0.51833c1.44358,0.44906 2.54609,1.76062 4.0188,2.10232c9.06889,2.10417 16.91024,-3.20945 24.89913,-6.40501l4.28446,-2.14672c0,0 1.30337,-0.65168 2.8148,-0.49468z"/></g><g data-paper-data="{&quot;index&quot;:null}" fill="#ffa100"><path d="M207.25832,176.91262l-1.88334,-4.86266c0,-1.88756 -0.05008,-13.66567 0.1992,-14.58061c3.11786,-11.44331 18.68564,-16.88189 29.0241,-12.76774c5.85902,2.33156 9.88692,6.27127 12.8694,11.22781c5.01765,-2.22374 11.29511,-1.90615 15.9345,1.08443c7.60861,4.90459 13.83251,17.94142 13.95056,26.79002c0.08307,6.22697 -1.77196,11.14384 -9.09359,12.37392c-2.47771,0.41627 -4.75299,-1.63048 -7.12948,-2.44572c0,0 -4.26738,-1.82886 -2.4385,-6.09625c1.82888,-4.26738 6.09627,-2.4385 6.09627,-2.4385c5.70338,3.77031 3.29703,-3.54487 2.12567,-7.49965c-1.27522,-4.30543 -10.95099,-20.11112 -17.27871,-12.23197c-1.95072,2.42898 -2.30049,4.9466 -3.1094,7.85973l0.17864,2.20748c0,0 0,4.64278 -4.64278,4.64278c-4.64278,0 -4.64278,-4.64278 -4.64278,-4.64278l0.17864,-4.75841c0.88433,-3.02663 1.46643,-5.82478 2.88858,-8.42646c-1.91808,-3.93787 -4.70352,-7.16195 -9.07317,-8.92464c-5.28622,-2.13241 -15.58488,0.27589 -16.95082,6.73676c-0.8199,3.8781 0.1992,7.926 0.1992,11.8898l0.90304,0.71004c0,0 2.07632,4.15262 -2.07632,6.22892c-4.15262,2.07632 -6.22894,-2.07632 -6.22894,-2.07632z"/><path d="M224.16326,206.03437l-4.50513,2.55038c-0.99199,0.39229 -2.71923,0.14148 -2.97592,1.17686c-0.22969,0.92644 1.6702,1.01657 2.24275,1.78026c1.91716,2.55725 0.84757,4.22849 4.00153,4.75078c5.05775,0.83758 10.65212,-1.65765 13.47797,-5.41955c0,0 1.90583,-2.28701 4.49663,-1.67222v-0.23168c0,0 0,-4.64278 4.64278,-4.64278c4.64278,0 4.64278,4.64278 4.64278,4.64278v5.57272c-0.18313,1.59173 -0.81201,3.19461 -0.54936,4.77517c0.34776,2.09271 4.23403,0.33875 6.35543,0.33431c1.43219,-0.003 2.93378,0.63187 4.29278,0.17992c1.86984,-0.62183 3.13063,-2.46514 4.93821,-3.24978c1.88817,-0.81963 4.15606,-0.56309 5.99158,-1.4947c3.76023,-1.90849 -2.11024,-12.99942 -3.1785,-14.8683c-1.32864,-2.32437 -3.70721,-4.14373 -6.21046,-5.09329c0,0 -4.26738,-1.82888 -2.4385,-6.09627c1.82888,-4.26738 6.09625,-2.43849 6.09625,-2.43849c4.15818,1.91246 8.09807,4.94729 10.50768,8.83849c2.73301,4.41345 6.89587,13.82626 5.45906,19.28689c-0.75029,2.85152 -2.19227,5.75329 -4.45803,7.64018c-2.14695,1.78794 -5.39468,1.53313 -7.94021,2.68484c-2.1971,0.99407 -3.89633,3.02673 -6.20721,3.71612c-2.18965,0.65322 -4.56766,0.18296 -6.85265,0.17991c-5.40254,-0.0072 -11.2594,0.99449 -14.54225,-5.23841c-0.66403,-1.26072 -0.78871,-2.67208 -0.75104,-4.12877c-9.22793,7.70148 -23.54425,9.16711 -29.83655,-3.42098c-1.28762,-2.57595 -3.96858,-5.16385 -3.32995,-7.97198c0.7299,-3.2095 4.51754,-4.78814 6.77632,-7.18222l5.24713,-3.02234c0,0 4.03105,-2.30346 6.33451,1.72759c2.30346,4.03105 -1.72759,6.33451 -1.72759,6.33451z"/><path d="M196.78256,180.87226l-5.52008,-0.04488c-2.39908,-0.80614 -5.27957,-0.76673 -7.19721,-2.41842c-6.68973,-5.76202 -4.13219,-18.08594 2.93036,-22.32924c5.52991,-3.32246 18.26578,1.16014 23.45784,3.34376c0,0 4.26738,1.82886 2.4385,6.09625c-1.82888,4.26738 -6.09627,2.4385 -6.09627,2.4385c-4.54779,-1.99516 -8.27145,-2.30788 -13.12863,-3.11924c-0.81346,-0.13588 -1.69142,-0.88449 -2.42256,-0.50288c-3.76217,1.96361 -1.92988,6.82949 1.30587,7.29546l4.23218,-0.04488c0,0 4.64278,0 4.64278,4.64278c0,4.64278 -4.64278,4.64278 -4.64278,4.64278z"/><path d="M211.64506,208.04748c-3.98887,0.04308 -7.41976,0.14013 -11.39184,-1.90453c-8.47142,-4.36075 -13.07417,-16.62363 -13.07549,-25.88158l-1.92201,-5.76604c-0.35281,-0.9813 -0.54504,-2.03918 -0.54504,-3.14197c0,-5.12826 4.15727,-9.28554 9.28554,-9.28554c1.55958,0 3.02934,0.38448 4.3197,1.06384l3.43401,1.717c0.71808,0.19482 1.85387,0.41909 2.52581,0.73614c0.83072,-2.17162 1.4681,-4.60377 3.16569,-6.17432c2.0226,-1.87126 4.48902,-3.40417 7.12146,-4.28805c0.79358,-0.9398 1.55457,-1.88647 2.12424,-2.87355l7.10016,-3.13902c0,0 5.6885,-1.42213 9.15483,2.51421c0.17038,0.01373 0.33135,0.03434 0.48203,0.06216c3.9062,0.7209 7.36598,3.19092 10.50615,5.62349c1.16686,0.90391 1.08477,2.77117 1.91012,3.99483c0.66016,0.97876 2.14201,0.65834 3.43693,0.6783l4.85928,-0.53992c0.37985,-0.04732 0.76683,-0.0717 1.1595,-0.0717c4.13189,0 7.63346,2.69878 8.83811,6.42978c1.3692,1.6374 2.09628,3.9222 3.29638,5.72871c5.03059,7.57244 6.90656,14.57062 4.54391,23.72899c-0.32191,1.24778 -0.76274,2.45897 -1.29271,3.63676c1.81287,0.12117 3.8107,0.90321 5.80855,2.90104c6.56587,6.56587 0,13.13175 0,13.13175c-5.78562,5.62245 -17.05476,16.00106 -26.30787,7.64313c-1.82726,-1.65047 -2.95539,-3.90829 -3.6668,-6.37055c-4.68027,3.85787 -12.70035,6.93811 -17.76999,6.92647c-3.9363,-0.00904 -8.63153,1.32098 -11.76063,-1.0672c-3.19027,-2.43487 -3.31261,-7.3499 -4.34811,-11.22728c-0.41557,-1.55608 -0.73768,-3.15595 -0.9919,-4.78536z"/></g><path d="M237.01124,197.71869c-1.03935,-0.61341 -1.9488,-1.42353 -2.67708,-2.37916c-8.1994,4.91965 -24.41273,-1.43392 -24.53276,-11.71785c-0.05022,-4.30267 -0.62935,-16.07792 6.01321,-17.73855c6.90606,-1.72651 22.58698,-2.08536 30.09431,-0.20853c8.18162,2.04541 10.75392,19.44793 7.4551,25.63322c-1.9219,3.60356 -12.34765,13.41983 -16.35276,6.41088z" data-paper-data="{&quot;index&quot;:null}" fill="#ffac1d"/><path d="M199.29653,190.68723l0.08621,0.28451c0.9816,1.40417 1.96319,2.80836 2.9448,4.21255c4.22777,5.89976 7.70226,2.29412 13.26624,7.99223c2.75112,2.81743 2.36672,10.16136 6.64404,11.88153c6.60505,2.65632 13.80716,-3.68898 20.6267,-0.79472c1.76048,0.74717 2.03839,3.39096 3.64172,4.43353c3.48052,2.26323 9.80718,-4.08629 11.96235,-4.40806c2.06221,-0.3079 3.94693,1.48328 6.02123,1.69472c3.41773,0.34837 6.8459,-4.73624 8.59031,-6.71474c0,0 3.08448,-3.47005 6.55453,-0.38557c3.47005,3.08448 0.38557,6.55455 0.38557,6.55455c-4.31173,4.81731 -8.59806,9.82366 -15.78805,9.82773c-1.59135,0.0009 -2.8459,-1.97151 -4.42663,-1.7879c-1.33936,0.15557 -1.8291,2.08543 -3.05058,2.65644c-4.08769,1.9109 -10.38848,2.66523 -14.58935,0.7714c-1.64502,-0.7416 -1.80708,-3.29503 -3.32351,-4.273c-2.25704,-1.45564 -5.2025,1.41203 -7.86941,1.72943c-2.03411,0.24208 -10.6249,0.06406 -12.42471,-0.78284c-7.34528,-3.45629 -5.7126,-9.3457 -9.89841,-14.23813c-1.3203,-1.54317 -7.80868,-2.12962 -8.46203,-2.56477c-2.21103,-1.4726 -3.50803,-3.99031 -5.26204,-5.98546c-1.04994,-1.498 -2.09985,-2.996 -3.14978,-4.49401l-0.78444,-1.45681c0,0 -2.07632,-4.15262 2.07632,-6.22892c4.15262,-2.07632 6.22892,2.0763 6.22892,2.0763z" data-paper-data="{&quot;index&quot;:null}" fill="#ef9700"/><path d="M124.64664,110.09372l-4.38907,-4.5504c-2.69154,-7.6861 -2.66504,-16.76673 2.85631,-23.56709c2.38183,-2.93358 5.12993,-4.13419 8.18893,-5.2367c1.54774,-3.38236 4.11461,-6.35858 7.02372,-8.67245c2.22507,-1.76979 6.45016,-6.24694 8.99847,-7.18497c14.19647,-5.22566 27.84976,4.03386 40.06328,9.2018c5.02502,2.12625 8.06403,2.77507 11.07136,5.12691c1.14971,-2.10626 2.51327,-4.11011 4.39963,-5.48059c7.14532,-5.19124 21.41959,-4.58882 29.62765,-3.00067c2.28548,0.44221 4.6966,0.72087 6.73592,1.84339c8.54491,4.70345 11.75286,14.44636 11.9325,23.19455c0,0 0,4.64278 -4.64278,4.64278c-4.64278,0 -4.64278,-4.64278 -4.64278,-4.64278c0.05616,-1.90864 0.55278,-3.85555 0.16847,-5.72594c-0.2368,-1.1524 -1.24871,-1.99715 -1.94951,-2.9421c-1.67496,-2.25851 -2.97624,-5.09275 -5.44088,-6.44624c-3.39908,-1.86667 -9.79499,-1.13417 -13.3843,-1.13867c-3.46636,-0.00435 -9.74962,-0.5527 -12.93931,1.72271c-1.23345,0.87991 -3.3764,5.72816 -3.8038,6.59403l-1.56885,1.44595c-0.30238,0.39701 -0.70352,0.78528 -1.22728,1.15191c-1.34465,0.94125 -2.54669,1.07438 -3.53888,0.85312c-1.00474,-0.15459 -2.07614,-0.71559 -2.9866,-2.08127c-0.03848,-0.05771 -0.0755,-0.11513 -0.11114,-0.17227c-3.52454,-5.29338 -5.18473,-3.79891 -11.34259,-6.40381c-9.56745,-4.04725 -21.75109,-13.10655 -33.07177,-9.08196c-2.79241,0.99272 -4.31046,4.08604 -6.67333,5.87486c-1.31594,0.99624 -2.65145,2.17507 -3.51668,3.58828c0.67497,2.60407 -0.84705,4.11673 -1.9482,4.84003c-0.13803,0.34319 -1.71023,4.00118 -5.5744,2.82495c-4.93153,3.45517 -6.56205,8.93685 -3.97667,15.699l1.70553,0.67355c0,0 3.52505,3.02147 0.50358,6.54653c-3.02147,3.52505 -6.54653,0.50358 -6.54653,0.50358z" data-paper-data="{&quot;index&quot;:null}" fill="#bf0000"/><path d="M330.0174,203.94151l4.387,-2.40376c6.91873,-2.73334 12.75285,-10.98926 10.00567,-19.05988c-1.23075,-3.61568 -5.49138,-7.73498 -8.13456,-10.82794c-0.52008,-0.44422 -0.99035,-1.07958 -1.34883,-1.97578c-0.06378,-0.15943 -0.1193,-0.31532 -0.16708,-0.46772c-0.23053,-0.69987 -0.35723,-1.5631 -0.1154,-2.46751c0.2355,-0.90608 0.7713,-1.59464 1.31691,-2.0899c0.11671,-0.10903 0.24187,-0.2173 0.37596,-0.32457c0.88536,-0.70831 1.72749,-1.02739 2.49469,-1.10515c10.06763,-7.67319 -1.29216,-23.73488 -5.83503,-31.76882c-1.34321,-2.37544 -2.92847,-4.80857 -5.19664,-6.32591c0,0 -3.75478,-2.73075 -1.02402,-6.48552c2.73075,-3.75478 6.48552,-1.02402 6.48552,-1.02402c9.93914,7.61887 17.0413,22.03255 18.00393,34.72279c0.37114,4.89257 1.29967,9.28327 -1.61764,13.8076c-0.81163,1.25872 -2.04183,2.15172 -3.28854,3.03031c2.78426,3.24736 5.69699,6.83339 6.85979,10.3658c4.23885,12.87702 -3.97078,25.69158 -15.24334,30.56749l-3.4489,1.94951c0,0 -4.05852,2.25473 -6.31323,-1.80378c-2.25473,-4.05852 1.80378,-6.31323 1.80378,-6.31323z" data-paper-data="{&quot;index&quot;:null}" fill="#bf0000"/><path d="M340.74305,195.13987l0.22567,0.39032c2.61131,-6.34771 0.38602,-14.97367 -1.42192,-21.57013c0,0 -1.22159,-4.47918 3.25759,-5.70077c4.47918,-1.22159 5.70077,3.25759 5.70077,3.25759c2.42448,8.92987 4.13287,18.40109 1.19004,27.18658l-2.38628,3.00229c0,0 -3.28294,3.28294 -6.56587,0c-3.28294,-3.28294 0,-6.56587 0,-6.56587z" data-paper-data="{&quot;index&quot;:null}" fill="#bf0000"/><path d="M142.90459,197.40632l-1.92126,-0.13863c-7.66108,1.79497 -15.143,6.4538 -13.10374,15.544c0.42728,1.9046 1.65948,3.55979 2.13354,5.45329c1.38694,5.53958 0.22772,7.12995 5.53778,9.82157c0.95536,0.34994 2.03808,1.04878 2.55238,2.44444c0.38783,0.79834 0.56704,1.80363 0.19372,3.00358c-0.24687,1.2322 -0.88558,2.0289 -1.60835,2.54406c-0.39269,0.3433 -0.80572,0.5779 -1.21993,0.73136c-3.9566,4.31847 -2.36672,6.96688 -1.08905,12.85727c1.01168,4.66416 1.86602,12.32504 6.8392,15.2077c3.99506,2.31572 11.73341,-0.30611 16.6347,-1.19276l-0.002,-0.83091c0,0 0,-4.64278 4.64278,-4.64278c4.64278,0 4.64278,4.64278 4.64278,4.64278l-0.01353,4.86992c0.53936,4.9721 4.78908,9.86949 9.82638,11.59782c2.85484,0.97953 6.03389,-0.22739 9.05206,-0.21478c7.45791,0.03115 15.26237,-2.32386 22.52221,-4.33096l1.04042,-2.7435c0,0 2.57535,-3.86302 6.43837,-1.28767c3.48211,2.32141 1.73295,5.68907 1.35415,6.33063c1.92768,12.50498 15.75002,17.19324 27.06441,12.78462c1.43141,-0.55775 6.81368,-2.53792 7.90313,-3.68653c1.22041,-1.28669 1.32487,-3.37405 2.51652,-4.68739c0.99447,-1.09602 2.32075,-1.81566 3.59927,-2.58947c-0.62111,-1.94503 -1.09396,-3.91271 -1.59093,-5.62534c0,0 -1.27547,-4.46412 3.18867,-5.7396c4.46414,-1.27547 5.7396,3.18867 5.7396,3.18867c0.08486,0.30258 1.80972,7.5491 2.97132,8.68657c1.81487,1.77716 4.95336,1.18007 7.47645,1.47352c10.23144,1.19001 17.42375,-0.05409 26.04553,-5.7824c1.74537,-1.15962 5.7129,-3.46788 6.80642,-5.38971c1.64774,-2.89582 1.63121,-6.4671 2.68292,-9.62854l0.72257,-3.79562c0,0 0.91053,-4.55261 5.46313,-3.6421c4.55261,0.91053 3.64208,5.46314 3.64208,5.46314l-1.01874,4.91093c-1.24331,3.72196 -1.38199,7.90873 -3.41168,11.26717c-2.44449,4.0448 -6.04061,6.07 -9.73602,8.54077c-10.34178,6.91456 -20.01671,8.78751 -32.28839,7.27743c-3.26339,-0.40158 -8.65904,-0.99641 -11.74952,-3.11767c-1.64152,1.66987 -2.69239,4.01803 -4.39971,5.66051c-1.83469,1.76502 -4.26088,2.80287 -6.51631,3.98372c-16.01642,8.3855 -36.2354,3.49188 -42.66091,-12.57428c-13.16068,3.641 -29.46155,8.28561 -41.22517,0.48207c-3.70571,-2.45823 -7.30932,-4.46992 -9.41196,-8.80974c-0.42621,-0.87969 -0.65132,-1.82471 -0.79468,-2.79628c-6.86585,0.98205 -15.30962,3.67192 -21.62077,0.08958c-7.61622,-4.32312 -9.81622,-13.8846 -11.44458,-21.35982c-0.8128,-3.73128 -2.45958,-7.55629 -1.7892,-11.31576c0.69561,-3.90096 1.28661,-5.52851 2.44476,-7.01185c-0.09725,-0.09273 -0.19172,-0.18893 -0.28308,-0.28893c-3.039,-3.32625 -3.62112,-8.29705 -4.71249,-12.66836c-2.08111,-8.33558 -4.68556,-16.33886 1.99603,-23.80883c4.02914,-4.50453 10.18578,-6.8434 15.7654,-8.30387l4.17334,-0.13861c0,0 4.64278,0 4.64278,4.64278c0,4.64278 -4.64278,4.64278 -4.64278,4.64278z" data-paper-data="{&quot;index&quot;:null}" fill="#bf0000"/><path d="M249.2917,118.44454l5.25597,-2.27165c7.91402,-0.8614 17.73001,-1.76979 24.40412,3.94419c1.05653,0.90453 1.8511,2.05219 2.60445,3.23812l1.95572,-0.22599c2.31949,0.28445 4.79013,-0.01803 6.95846,0.85336c4.47243,1.79734 9.39281,8.1183 12.62116,11.63209c1.61423,1.75696 4.04081,3.11459 4.68439,5.41209c0.74655,2.66514 -0.56989,5.50604 -0.85484,8.25904c0,0 -0.76326,4.57958 -5.34286,3.81632c-4.5796,-0.76326 -3.81634,-5.34286 -3.81634,-5.34286c0.39049,-1.2996 1.46505,-2.57393 1.17146,-3.89878c-0.21171,-0.95544 -1.67221,-1.0344 -2.40768,-1.67996c-4.92976,-4.32721 -7.07986,-9.54532 -13.85441,-9.80391l-0.26965,0.05232c-0.06258,0.04722 -0.1271,0.09412 -0.19358,0.14065c-3.80351,2.66246 -6.46595,-1.14106 -6.46595,-1.14106c-4.65525,-7.1605 -10.74396,-6.98229 -18.81674,-6.27969l-3.86242,1.78093c0,0 -4.24262,1.8856 -6.12822,-2.35701c-1.8856,-4.24262 2.357,-6.12822 2.357,-6.12822z" data-paper-data="{&quot;index&quot;:null}" fill="#bf0000"/><path d="M157.85685,179.71824l-5.91646,-2.80961c-1.46603,-1.82565 -3.55574,-3.29228 -4.39811,-5.4769c-0.80412,-2.08544 -0.26372,-4.46389 -0.29667,-6.69875c-0.11603,-7.86872 0.0305,-17.31662 6.8904,-22.93953c0.97254,-0.79717 2.18833,-1.17351 3.42949,-1.50596c-0.02417,-0.11011 -0.04642,-0.2214 -0.06666,-0.33386c-1.96606,-10.92103 9.6885,-16.33108 17.83275,-19.98937c0,0 0.71231,-0.31657 1.6829,-0.39843c5.33796,-8.09885 15.69815,-8.59498 24.51835,-8.61351c0,0 4.64278,0 4.64278,4.64278c0,4.64278 -4.64278,4.64278 -4.64278,4.64278c-5.00624,-0.01182 -14.4353,-0.85264 -17.12357,5.03218c-0.33223,0.72729 -0.66516,3.78635 -0.86582,5.9124c0.77048,1.11077 1.90033,3.52153 -0.51045,5.93232c-3.28294,3.28294 -6.56586,0 -6.56586,0l-2.34994,-4.75806c0.04145,-0.40813 0.08357,-0.87122 0.12914,-1.37305c-1.32065,0.79081 -2.60904,1.63772 -3.87128,2.51192c-1.48513,1.02858 -4.80971,1.76966 -3.83407,4.34599c0.67251,1.77589 3.39408,3.63448 4.57932,4.62305l-0.03357,-0.37289c0,0 4.40453,1.46818 2.93635,5.87269c-1.46818,4.40453 -5.87269,2.93633 -5.87269,2.93633l-3.07302,-1.38604c-0.51556,-0.45086 -1.05548,-0.90064 -1.60002,-1.35872c-0.29792,0.14592 -0.49583,0.21188 -0.49583,0.21188c-8.25234,2.06963 -9.33701,17.27102 -4.05305,22.42619l2.18876,0.22984c0,0 4.34717,1.63019 2.71698,5.97735c-1.63019,4.34717 -5.97735,2.71698 -5.97735,2.71698z" data-paper-data="{&quot;index&quot;:null}" fill="#bf0000"/><path d="M169.71857,212.80771l1.50331,4.10262c-0.21,3.6225 -0.501,7.81138 4.54149,8.65533c2.61132,0.43705 5.51428,-1.276 7.94001,-0.21493c2.39097,1.04587 3.71909,3.72189 5.11627,5.92606c0.54733,0.86346 -0.34998,2.53639 0.55243,3.01679c0.98762,0.52576 6.95661,-1.78765 7.65317,-2.03132c0,0 4.40451,-1.46818 5.87269,2.93633c1.46818,4.40453 -2.93633,5.87269 -2.93633,5.87269c-5.17663,1.66363 -9.8094,3.86852 -15.64934,1.00813c-2.10572,-1.03138 -2.38778,-4.03751 -3.50019,-6.10157c-0.37674,-0.69905 -0.18273,-2.0297 -0.96263,-2.17916c-2.06082,-0.39489 -4.20499,1.29308 -6.24413,0.79822c-9.65656,-2.34344 -11.37665,-9.37863 -11.66897,-17.68661l-0.52299,0.05c0,0 -2.07632,-4.15262 2.07632,-6.22892c4.15262,-2.07632 6.22892,2.0763 6.22892,2.0763z" data-paper-data="{&quot;index&quot;:null}" fill="#bf0000"/><path d="M293.92715,197.95223l1.84986,-0.27382c4.36554,-4.46914 1.85592,-7.52954 -2.11026,-9.70634l-4.81148,-0.37011c-2.4171,-0.16208 -4.32749,-2.17405 -4.32749,-4.63224c0,-1.42108 0.63847,-2.69306 1.6442,-3.5447l2.88681,-2.47441c1.12311,-2.4316 -1.01519,-2.12098 -3.75521,-2.7049c0,0 -4.44696,-1.33409 -3.11287,-5.78106c1.33409,-4.44696 5.78106,-3.11287 5.78106,-3.11287c5.50187,1.91216 9.82591,1.84854 10.8748,9.47077c0.20983,1.52475 -0.32392,2.99332 -0.95971,4.45418c4.43802,1.44381 8.77238,7.81162 9.52737,11.97109c1.2529,6.90276 -0.95621,7.92259 -4.58709,12.47354l-5.24221,2.76563c0,0 -4.26737,1.82888 -6.09625,-2.4385c-1.82888,-4.26738 2.4385,-6.09625 2.4385,-6.09625z" data-paper-data="{&quot;index&quot;:null}" fill="#bf0000"/><path d="M323.36922,215.18603l1.28205,3.4939c0.33622,2.54404 1.47457,5.10862 1.00863,7.63213c-1.73031,9.3712 -12.47092,13.096 -20.54182,14.73936c-0.14048,0.2667 -0.29782,0.52788 -0.47341,0.78281c-2.13993,3.10666 -14.15599,8.09268 -19.55849,7.85003c-0.24712,0.07649 -0.49424,0.15296 -0.74136,0.22944l-0.37342,-0.37971c-0.17367,-0.04378 -0.33446,-0.09697 -0.48132,-0.16008c-0.34027,-0.14622 -0.5084,-0.39921 -0.56604,-0.72071l-0.389,0.778l-4.97581,-2.48789c-1.5704,-0.74445 -2.65642,-2.3442 -2.65642,-4.1976c0,-2.56412 2.07864,-4.64278 4.64278,-4.64278c0.70736,0 1.37775,0.15819 1.97778,0.44112l3.06005,1.36002c1.03482,-0.15879 2.0548,-0.34796 3.09105,-0.57985c0.30753,-0.14507 0.61504,-0.29013 0.92257,-0.4352c0,0 0.81001,-0.29455 1.85895,-0.28083c1.07973,-0.31363 2.20231,-0.67994 3.39808,-1.11098c1.02856,-0.37077 2.41138,-0.12125 3.14481,-0.93211c1.49847,-1.65666 -0.77323,-4.40114 -1.23629,-6.58645l-0.32356,0.1451c0,0 -2.57535,-3.86302 1.28767,-6.43837c3.86302,-2.57535 6.43837,1.28767 6.43837,1.28767l1.70274,3.18455c0.19819,1.03797 0.45732,2.1666 0.69008,3.33832c4.34017,-0.98963 10.7568,-3.04802 10.95186,-6.76378c0.08106,-1.54412 -0.67845,-3.01714 -1.01767,-4.52571l-0.74426,-1.57187c0,0 -1.72428,-4.31071 2.58642,-6.03499c4.3107,-1.72428 6.03499,2.58642 6.03499,2.58642z" data-paper-data="{&quot;index&quot;:null}" fill="#bf0000"/><path d="M215.29399,252.87723l-0.02305,0.04461c-0.33261,0.69511 -1.2956,1.3746 -0.99782,2.08534c0.23298,0.5561 0.81788,-0.95586 1.38317,-1.16559c1.82823,-0.67827 3.74012,-1.15328 5.66739,-1.45017c2.78674,-0.4293 5.80913,-1.766 8.42803,-0.72122c2.33667,0.93219 3.37587,3.77439 4.6551,5.94061c0.4608,0.78031 -0.33171,2.20419 0.43757,2.68317c0.61883,0.38532 1.04187,-1.10803 1.73638,-1.32957c1.82721,-0.58289 3.77389,-0.68674 5.66083,-1.03013c0,0 4.56788,-0.83052 5.39842,3.73737c0.83052,4.56788 -3.73737,5.3984 -3.73737,5.3984c-1.89471,0.34419 -11.64412,2.27664 -12.86583,1.6929c-2.38407,-1.1391 -3.29244,-4.15547 -4.6282,-6.4352c-0.37127,-0.63364 0.29747,-1.96998 -0.41067,-2.16461c-0.9687,-0.26625 -1.75827,1.00381 -2.71665,1.30509c-3.66962,1.1536 -11.78228,3.38306 -15.2388,0.42371c-2.10004,-1.79798 -1.34066,-5.36413 -2.01097,-8.0462l-0.02303,-0.96855c0,0 0,-4.64278 4.64278,-4.64278c4.64278,0 4.64278,4.64278 4.64278,4.64278z" data-paper-data="{&quot;index&quot;:null}" fill="#bf0000"/></g><g><path d="M196.90323,144.5488c0.14596,-0.58076 0.29193,-1.16153 0.43789,-1.74229l4.42186,-4.91394c0,0 4.624,-2.75655 7.08655,1.16144c0.1342,0.0394 0.20764,0.06771 0.20764,0.06771c4.68925,1.89065 9.78258,2.55196 14.88703,3.20332c-0.21912,0.21959 -0.39703,0.48741 -0.51575,0.7955c-0.29102,0.75523 -0.15598,1.56979 0.28757,2.1787l1.0309,1.45944c-1.05861,1.45714 -2.17602,2.90751 -3.15093,4.88944c-0.3383,0.68774 -0.34524,2.52064 -1.59066,2.71716c-3.79681,0.5991 -9.08404,-2.75459 -12.49333,0.49678c-2.55666,2.43823 0.07013,5.42402 -1.05858,8.01674c-1.04943,2.41061 -7.91642,1.40637 -9.36686,1.68145c-1.07215,0.20334 -6.56162,2.83355 -8.16567,2.71897c-1.51701,-0.10836 -3.67288,-1.15805 -5.50392,-2.2461c3.30851,-7.72907 7.2631,-14.98411 13.48628,-20.48433z" fill="#b30000"/><path d="M211.79475,141.9845c-4.04295,0.15103 -7.2949,0.5065 -11.48886,-0.15187c0,0 -5.87101,-0.96524 -5.48912,-6.0065c0.38188,-5.04127 6.25287,-4.076 6.25287,-4.076c3.37142,0.5908 5.41915,0.04121 8.68426,-0.01841c5.75918,-0.10515 12.85123,1.15833 18.60764,2.7755c0.10618,0.18558 0.2199,0.36885 0.3338,0.55173c-0.09581,1.13093 -0.1614,2.24415 -0.32121,3.38231c-0.80393,1.05206 -1.35873,2.18231 -1.521,3.35022l-0.95398,-0.11777c-1.0372,-0.15109 -2.07792,0.42753 -2.47069,1.44682c-0.05143,0.13348 -0.08956,0.2688 -0.11503,0.40452c-3.76922,-0.91605 -8.12889,-1.66719 -11.51868,-1.54056z" fill="#685b4f"/><path d="M187.78994,156.19453c-1.669,-1.33916 -0.25922,-3.58005 -0.25922,-3.58005c1.107,-1.74582 2.76328,-4.8116 4.57413,-5.71595c2.6266,-1.31173 6.7075,-0.50531 9.43494,-0.7786c5.85127,-0.58627 10.45547,1.91069 16.00908,2.56461c1.85687,0.21864 3.81563,-0.01491 5.66425,0.21407c-0.55881,0.8225 -1.10744,1.71337 -1.61712,2.74951c-0.3383,0.68774 -0.34524,2.52064 -1.59066,2.71716c-3.79681,0.5991 -9.08404,-2.75459 -12.49333,0.49678c-1.34618,1.28383 -1.25528,2.71946 -1.03221,4.16959c-1.86794,-0.69628 -3.75023,-1.33951 -5.90302,-1.38312c-2.23116,-0.04521 -4.61838,1.19056 -6.7911,0.84596c-1.51385,-0.24009 -2.76284,-1.27321 -4.14426,-1.90982c0.02395,-0.06224 0.04735,-0.12485 0.07028,-0.18782c-0.53096,0.28698 -1.20226,0.37497 -1.92173,-0.20232z" fill="#f3eae0"/></g><g><path d="M295.16159,140.87748l3.54569,-0.07598c0,0 5.8911,0.36416 7.93569,6.48206c3.12128,4.0046 6.97712,5.66245 10.31475,10.11226c0.81605,1.08798 1.42353,2.32277 2.04348,3.55124c-2.16374,0.96526 -4.32508,1.58722 -6.80874,2.04574c-3.63591,0.96804 -6.65405,2.68699 -10.44944,1.7081c-0.97444,-0.25132 -2.90493,-0.62364 -2.57582,-1.57463c0.2959,-0.85501 1.80466,-1.09376 1.83728,-1.99793c0.04493,-1.24526 -1.58117,-2.11279 -1.64406,-3.35727c-0.06308,-1.2482 1.83482,-2.39006 1.29663,-3.51804c-2.69238,-5.64289 -11.17276,-2.99255 -15.73475,-4.45635c-1.32928,-0.42653 -2.03855,-2.48239 -2.46813,-4.75672c4.17433,-1.65015 8.43548,-3.04301 12.70741,-4.16249z" fill="#b30000"/><path d="M307.25166,141.21437c-3.26654,4.11081 -7.16094,3.18715 -8.72251,2.57825c-1.66568,0.39728 -3.34298,0.69347 -5.00643,0.82012c-1.44958,0.80232 -2.78904,1.88508 -4.34877,2.40696c-1.39506,0.46678 -2.86906,0.08351 -4.27914,0.4799c-0.47311,0.13299 -0.99503,0.34158 -1.54791,0.60315c-1.32431,-2.84989 -1.39515,-8.27083 -1.79836,-9.68814c-0.1728,-0.60738 -0.47417,-1.19189 -0.70503,-1.7868c0.47417,-0.19819 0.94094,-0.37498 1.39767,-0.5256c1.39659,-0.46053 2.88411,-0.01312 4.27915,-0.47989c1.55971,-0.52187 2.89918,-1.60464 4.34877,-2.40696c2.75569,-0.37661 5.54321,-0.84108 8.24477,-1.70998l7.10326,1.41353c0,0 5.22763,3.01867 1.03456,8.29548z" fill="#685b4f"/><path d="M301.299,147.16879c4.44932,-0.44397 11.04153,1.88952 14.01486,6.88635c1.00656,1.69156 2.59987,3.74392 2.21996,5.44631c-0.43039,1.9286 -2.54918,2.5523 -4.15988,3.2464c-0.01426,0.00615 -0.02857,0.01217 -0.04291,0.01806c-0.37252,0.08005 -0.75163,0.15545 -1.13857,0.22689c-0.01564,0.00416 -0.03126,0.00834 -0.04688,0.01253c-1.44351,0.05923 -3.08256,-0.51407 -4.52234,-0.36554c-2.48143,0.25601 -4.66136,1.12541 -6.93877,1.78692c-0.8776,-0.25557 -1.74676,-0.63732 -1.51727,-1.30044c0.2959,-0.85501 1.80466,-1.09376 1.83728,-1.99793c0.04493,-1.24526 -1.58117,-2.11279 -1.64406,-3.35727c-0.06308,-1.2482 1.83482,-2.39006 1.29663,-3.51804c-1.42977,-2.99661 -4.49177,-3.65449 -7.73243,-3.83171c2.60025,-1.52847 5.28689,-2.94447 8.37437,-3.25254z" fill="#f3eae0"/></g><g><path d="M285.86548,241.47576l-2.54159,-0.68305l0.14004,-0.37616l-0.63835,0.20866c-2.83787,-1.55663 -5.82308,-3.02511 -8.78389,-4.55378c0.95818,-2.33335 2.13043,-4.57988 3.55103,-6.66964c0.90172,-1.32647 1.49881,-0.04102 2.76307,0.05919c2.68037,0.21246 3.79586,-0.37192 5.84768,-2.12737c1.78608,-1.52809 3.78739,-2.78508 5.69234,-4.16216c0.15645,-0.11309 1.73607,-2.87982 2.968,-2.60469c1.74279,0.38921 2.91013,2.32221 4.67001,2.62491c0.90693,0.15599 1.75865,-0.66184 2.67889,-0.66731c1.6962,-0.01008 4.17048,0.50436 5.58511,1.39205c0.58736,0.33014 1.21628,0.68364 1.86323,1.04728c-0.25009,0.57363 -0.45528,1.18219 -0.79408,1.70051c-2.31902,3.54785 -5.24919,6.83331 -8.11781,9.81238c-1.03925,1.29981 -1.95507,2.72739 -2.76314,4.1976l-0.33045,0.5879c0,0 -3.30447,5.87902 -7.91841,3.28563c-1.35467,-0.76143 -2.02674,-1.80609 -2.30028,-2.90203c-0.53621,0.03364 -1.06573,-0.02062 -1.57139,-0.16992z" fill="#b30000"/><path d="M297.40094,246.75171l-4.8409,0.64975c-1.92502,-0.65816 -3.88553,-1.05918 -5.81871,-1.40246c-1.05297,-0.56948 -2.0463,-1.31543 -3.15889,-1.70844c-0.99514,-0.35152 -1.99984,-0.11798 -2.99568,-0.46554c-2.43644,-0.85035 -5.35006,-2.66461 -7.85351,-4.10938c0.70833,-2.27673 1.59291,-4.50772 2.68288,-6.63354c1.88929,1.13095 4.61195,2.97767 6.33074,3.5042c1.00136,0.30675 2.00054,0.11402 2.99568,0.46554c1.11259,0.39301 2.10592,1.13896 3.15889,1.70844c1.16094,0.14242 2.34161,0.39447 3.52024,0.71115c1.04644,-0.33476 3.69162,-0.78668 6.20177,1.97881c3.22213,3.5499 -0.2225,5.30147 -0.2225,5.30147z" data-paper-data="{&quot;index&quot;:null}" fill="#413932"/><path d="M291.59487,224.54626c2.96644,0.24979 5.48822,1.56243 8.41572,1.93515c1.38593,0.17646 2.89802,-0.39144 4.19554,0.10786c1.24624,0.47956 2.85718,0.93091 3.36135,2.14038c0.44503,1.06761 -0.51884,2.29234 -1.08896,3.31107c-1.68411,3.00932 -6.27664,4.25641 -9.57454,3.84568c-3.30797,-0.41196 -6.23064,-2.23452 -9.1675,-3.63147c-1.94271,-0.92408 -3.88542,-1.84816 -5.82814,-2.77225c1.65734,-0.11883 2.68957,-0.77542 4.29513,-2.14906c1.39173,-1.1907 2.91413,-2.2168 4.4198,-3.26336c0.32591,0.15711 0.64985,0.31571 0.97159,0.476z" data-paper-data="{&quot;index&quot;:null}" fill="#e3dad1"/></g><g><path d="M251.79069,180.35322c-0.15414,-1.71912 -3.56837,-4.83254 -3.10425,-6.49055c1.64667,-5.8825 9.02573,-3.37649 11.59888,-0.21954c3.34482,1.76586 7.14043,1.46017 10.97851,0.66894c0.84846,-0.17491 1.5673,-0.95682 2.43258,-0.91483c0.41965,0.02037 0.36773,0.77718 0.67328,1.06555c2.30551,2.17589 6.28915,4.66071 7.73444,7.52909c0.37954,0.75325 -1.69156,0.3502 -2.39574,0.81449c-2.40844,1.58797 -4.48483,6.16108 -4.53213,9.0213c-0.06652,4.0225 2.94044,6.12643 -0.15414,9.65503c-2.95267,2.39997 -5.62388,-2.13232 -8.70145,-2.51597c-4.17007,-0.51984 -8.40977,3.85507 -12.50368,3.12329c-1.1132,-0.19898 -1.38103,-1.80834 -2.22511,-2.5609c-3.2636,-2.90973 -0.56041,-3.3308 -0.34227,-7.10717c0.18875,-3.26744 -0.49922,-3.32609 -2.47854,-5.08428c0.89538,-2.20216 3.27237,-4.16541 3.0196,-6.98445z" fill="#b30000"/><path d="M262.82765,182.63979c0.04422,0.38661 -0.00376,0.88336 -0.22071,1.51808c-0.78583,2.29901 -2.21687,1.80986 -2.21687,1.80986c-1.22015,-0.58343 -4.56104,-1.13245 -2.18068,-5.73022c0.88379,-1.70707 2.60144,-1.59032 3.90215,-2.38547l0.86596,3.35134c0,0 0.07247,0.67203 -0.14987,1.4364z" fill="#b30000"/><path d="M266.41516,182.37843l2.73616,-2.12009c0.54186,1.42496 1.97159,2.38403 1.62555,4.2749c-0.93199,5.09285 -3.90993,3.48201 -5.23192,3.19651c0,0 -1.43104,-0.48915 -0.64521,-2.78816c0.21695,-0.63471 0.48308,-1.05691 0.7547,-1.33556c0.29205,-0.74053 0.76072,-1.2276 0.76072,-1.2276z" data-paper-data="{&quot;index&quot;:null}" fill="#b30000"/><path d="M260.17938,190.89408c-0.18387,-0.01867 -0.38452,-0.10357 -0.58424,-0.30638c-0.68194,-0.69241 0.01047,-1.37435 0.01047,-1.37435c1.00266,-0.90675 1.61151,-1.90258 3.36508,-1.0182c1.01526,0.51203 1.40107,2.95736 0.42756,3.67622c-0.79145,0.58442 -2.49534,-0.60234 -3.11527,-0.96007l-0.06775,-0.00322c0,0 -0.01317,-0.0045 -0.03583,-0.01401z" fill="#b30000"/><path d="M256.20493,174.31259c-0.59188,0.6888 -1.23551,0.69372 -1.70685,0.54873c-0.00244,0.00187 -0.00487,0.00376 -0.00732,0.00563c-1.35038,1.0339 -2.38428,-0.31649 -2.38428,-0.31649c-0.68086,-0.89159 -1.27831,-2.12569 -2.0402,-3.0894c1.12371,-1.04201 2.67573,-1.30346 4.26362,-1.07249c0.4743,0.46611 0.85053,0.83233 0.89094,0.88408l0.80261,0.64158c0,0 1.28991,1.10842 0.1815,2.39834z" fill="#e4c8ad"/><path d="M276.65607,178.15591l1.02741,-0.01606c0.05342,-0.01358 0.42964,-0.05756 0.93972,-0.11763c1.24175,1.06564 2.40036,2.19387 3.15257,3.3904c-1.2333,0.2817 -2.51183,0.92664 -3.6359,1.22554c0,0 -1.64415,0.435 -2.07915,-1.20916c-0.00079,-0.00298 -0.00158,-0.00597 -0.00236,-0.00894c-0.46147,-0.17386 -0.96742,-0.57174 -1.01385,-1.4787c-0.08695,-1.6985 1.61155,-1.78545 1.61155,-1.78545z" data-paper-data="{&quot;index&quot;:null}" fill="#e4c8ad"/><path d="M270.2787,200.987c0.8103,-0.05373 1.25863,0.45713 1.48013,0.84491c-0.49283,-0.21819 -0.98501,-0.51917 -1.48013,-0.84491z" data-paper-data="{&quot;index&quot;:null}" fill="#e4c8ad"/><g fill="#e4c8ad"><path d="M252.44913,184.31847c-0.04885,-3.23032 3.72924,-7.93329 6.86285,-8.43287c5.20213,-0.82939 11.2289,2.70966 13.94199,6.68808c1.14639,4.41217 1.23085,9.42404 -4.44262,9.86406l-0.16918,0.03493c-0.48212,1.62995 -0.53199,4.53889 -1.3166,5.39594c-0.46958,0.51293 -0.98433,0.86312 -1.51645,1.05822c-0.52029,-0.01701 -1.04152,0.03564 -1.56328,0.13859c-0.66319,-0.1191 -1.31216,-0.46114 -1.89539,-1.01194c-0.03928,0.13554 -0.10629,0.23217 -0.2429,0.24137c-0.88218,0.05934 -1.7419,-0.44749 -2.48598,-0.92511c-0.57866,-0.37143 -0.60606,-2.34383 -1.01867,-1.79378c-1.75569,2.34056 -5.68609,0.60243 -5.58429,-2.631c0.0323,-1.0257 1.17363,-2.7824 1.81002,-3.92805c-1.25349,-1.33578 -2.34843,-2.64908 -2.37943,-4.69847zM268.62998,189.62109c3.34843,-0.15322 2.61541,-3.3545 2.0518,-5.88528c-2.1147,-2.94047 -7.02481,-5.59772 -10.91305,-5.06493c-1.90433,0.26096 -4.49016,3.90962 -4.49868,5.74147c-0.00622,1.33218 1.35041,2.39383 2.16022,3.24842c0,0 0.65606,0.6942 0.31761,1.48013c-0.0056,0.3779 -0.15144,0.6761 -0.15144,0.6761c-0.16141,0.33005 -2.02592,3.55081 -1.73998,3.76643c0.3298,0.2487 0.77293,0.74805 1.12166,0.52668c0.46903,-0.29774 0.49182,-1.27303 1.04689,-1.29687c0.90677,-0.03894 1.72684,0.62482 2.47003,1.14582c0.51337,0.35988 0.47312,1.86319 1.02947,1.57414c0.54838,-0.2849 0.84128,-1.27457 1.44811,-1.15764c0.90494,0.1744 1.84818,2.72468 2.07191,1.83065c0.47322,-1.89076 0.36372,-3.64309 1.27815,-5.54422l0.07946,-0.16247c0,0 0.52304,-1.06948 1.59063,-0.76343zM262.45077,197.45382c0.11445,-0.22379 0.23342,-0.39531 0.12988,-0.2831c-0.066,0.07156 -0.10428,0.17174 -0.12988,0.2831z"/><path d="M261.61215,186.42404c-0.02539,0.32829 -0.18424,0.68909 -0.63363,0.99441c-1.16729,0.7931 -1.9604,-0.37419 -1.9604,-0.37419c-0.12473,-0.18404 -0.31621,-0.45572 -0.52863,-0.76913c-0.04063,-0.05088 -0.07571,-0.10361 -0.10596,-0.15732c-0.56113,-0.83859 -1.21109,-1.90367 -1.16855,-2.41257c0.17424,-2.08556 1.86068,-3.94165 4.16585,-2.86923c2.50856,1.16706 2.03992,4.58721 0.23133,5.58802z"/><path d="M268.29891,183.25523c2.2618,1.16111 1.83216,3.63183 0.29293,5.04986c-0.3756,0.34599 -1.61533,0.4869 -2.62178,0.55886c-0.06096,0.00912 -0.12412,0.01379 -0.18921,0.01295c-0.37781,0.02477 -0.70981,0.04041 -0.93166,0.05496c0,0 -1.40834,0.09066 -1.49899,-1.31766c-0.03491,-0.54218 0.15234,-0.88905 0.39589,-1.11068c-0.32047,-2.04206 2.09146,-4.51181 4.55281,-3.24826z" data-paper-data="{&quot;index&quot;:null}"/></g></g><g><path d="M216.01543,236.87536c-1.01798,0.35591 -2.22863,0.88078 -3.33682,0.32801l-1.72789,1.04203c-2.42707,1.46367 -5.72221,0.63066 -8.07075,-1.81032c-1.41649,0.18385 -2.86644,0.27772 -4.19593,0.69717c0,0 -0.15688,0.04734 -0.43246,0.09616c-0.67529,0.15022 -1.365,0.20756 -2.08705,0.05675c-0.89637,-0.10379 -1.94085,-0.39351 -2.9757,-1.05889c-4.42979,-2.15972 -6.72961,-6.20473 -10.37625,-10.10855c-1.04004,-1.11338 -2.00659,-2.23549 -2.91524,-3.37079c4.71395,-2.81057 11.97195,-1.89651 17.10613,-1.08785c2.1287,0.33528 4.78201,-0.35819 6.29798,1.66794c2.6038,3.48005 4.0175,9.37139 8.25011,11.41313c2.85886,1.37906 5.22575,0.07422 7.27245,0.95106c-0.91474,0.44237 -1.84604,0.84763 -2.80856,1.18415z" fill="#b30000"/><path d="M209.8184,242.22283c-3.08442,0.71499 -5.08287,0.73152 -8.18611,2.01987c0,0 -5.41195,2.18995 -6.40232,-1.97143c-0.99037,-4.16138 4.42159,-6.35134 4.42159,-6.35134c3.5468,-1.40969 6.45444,-1.91586 9.8629,-2.62199c0.60312,0.58133 1.27433,1.07428 2.03708,1.44222c4.00467,1.93179 7.04399,-1.40286 9.59013,3.37c0.03139,0.05204 0.06382,0.10583 0.09724,0.16125c-3.82478,1.66896 -7.85556,3.12503 -11.42051,3.95143z" data-paper-data="{&quot;index&quot;:null}" fill="#413932"/><path d="M187.48027,227.08295c1.24614,-0.96814 2.32251,-2.22853 3.73845,-2.90441c2.03219,-0.97005 4.44261,-0.67727 6.56342,-1.41367c0.75851,-0.26338 1.47255,-0.58445 2.15761,-0.94388c1.28388,0.08429 2.50457,0.36048 3.36168,1.50603c1.27184,1.69985 2.25974,3.97501 3.4309,6.09583c-2.10914,1.14395 -4.28976,2.15563 -6.76451,2.74281c-2.62869,0.6237 -6.42814,2.57968 -9.07499,2.29786c-1.82482,-0.19429 -3.74012,-2.25594 -4.98688,-3.37869c0,0 -1.5897,-1.44463 -0.14685,-3.09402c0.62201,-0.71105 1.27131,-0.8471 1.80878,-0.77175c-0.02877,-0.04584 -0.05797,-0.09121 -0.08763,-0.1361z" data-paper-data="{&quot;index&quot;:null}" fill="#e3dad1"/></g></g></g></svg>