<svg version="1.1" xmlns="http://www.w3.org/2000/svg" xmlns:xlink="http://www.w3.org/1999/xlink" width="116.82669" height="44.02873" viewBox="0,0,116.82669,44.02873"><g transform="translate(-182.09813,-195.51155)"><g data-paper-data="{&quot;isPaintingLayer&quot;:true}" fill-rule="nonzero" stroke-linejoin="miter" stroke-miterlimit="10" stroke-dasharray="" stroke-dashoffset="0" style="mix-blend-mode: normal"><path d="M271.89646,200.54641l4.2048,-0.77579c5.03922,-0.02465 10.07825,-0.02083 15.11755,-0.02061c1.32249,-0.04881 2.66242,-0.0466 3.93228,-0.03333c-0.02463,0.44144 -0.05398,0.8815 -0.08863,1.31997c-0.23645,2.99266 -2.64163,5.95475 -3.64143,8.64026c-0.29873,0.80242 -0.13182,1.74327 -0.48806,2.52187c-2.63183,5.7521 -10.41027,9.07939 -14.41337,13.63021c-1.42478,1.61973 -2.0569,3.84216 -3.28046,5.6041c-0.18413,0.03831 -0.36897,0.07589 -0.55447,0.11299c-3.14024,1.92398 -6.19632,3.9024 -9.25794,5.94347c-0.07532,0.05021 -0.15131,0.09955 -0.22779,0.14825l-0.01142,0.00285l-2.24301,0.49845l-0.21521,0.10761l-0.60666,0.08667h-0.53932l-1.1943,0.29857h-1.23106l-0.47237,0.11809h-0.01894l-1.54553,0.38639c-0.4081,0.0143 -0.81586,0.02375 -1.22293,0.02375c-5.58354,0 -11.16707,0 -16.75061,0c-1.95424,0 -3.90847,0 -5.86271,0c-1.19173,0 -2.43005,0.63041 -3.56518,0.26751c-3.44379,-1.10098 -6.44532,-2.36214 -9.83058,-3.41371c-0.13345,-0.22186 -0.28876,-0.43123 -0.47143,-0.62511c-1.53255,-1.62664 -4.32335,-1.27377 -6.27359,-2.36522c-1.28736,-0.72047 -1.95441,-2.31832 -3.27393,-2.97803c-0.52977,-0.26486 -1.18171,-0.05522 -1.79988,0.03015c-0.50264,-0.34205 -1.00852,-0.68403 -1.52147,-1.02184c-0.08414,-0.41312 -0.15226,-0.84472 -0.4644,-1.05957c-1.12842,-0.77671 -3.15999,-1.63974 -5.26666,-2.54207c-0.29775,-0.98026 -0.19826,-2.10558 -0.7074,-2.99488c-0.65026,-1.1358 -1.94563,-1.77917 -2.70808,-2.84291c-1.18526,-1.65362 -1.37804,-3.84834 -2.37,-5.62467c-0.88168,-1.57886 -2.07194,-2.99811 -2.76043,-4.67028c-1.20342,-2.92284 -2.48657,-5.9056 -3.85837,-8.85514c0.21143,0 0.42285,0 0.63428,0c2.59768,0 5.24961,0.4511 7.79273,0.04962c3.05762,-0.4827 6.04166,-1.4434 9.16452,-1.47819h0.94207c0,0 3.59328,0 3.62673,2.71177c5.58917,-0.3115 11.59404,0.14536 17.0988,0.14536c11.30483,0 22.60967,0 33.9145,0c3.29836,0 6.67916,-0.11106 10.06217,-0.17855c0.80733,-0.89499 2.24712,-1.16791 2.24712,-1.16791z" fill="#815400" stroke="none" stroke-width="0.5" stroke-linecap="butt"/><path d="" fill="#815400" stroke="none" stroke-width="0.5" stroke-linecap="butt"/><path d="" fill="#815400" stroke="none" stroke-width="0.5" stroke-linecap="butt"/><path d="M185.84813,199.26155h109.32669" fill="none" stroke="#815400" stroke-width="7.5" stroke-linecap="round"/></g></g></svg>