<svg version="1.1" xmlns="http://www.w3.org/2000/svg" xmlns:xlink="http://www.w3.org/1999/xlink" width="560.5695" height="153.37037" viewBox="0,0,560.5695,153.37037"><g transform="translate(37.254,-260.41127)"><g data-paper-data="{&quot;isPaintingLayer&quot;:true}" fill-rule="nonzero" stroke="none" stroke-width="0.5" stroke-linecap="butt" stroke-linejoin="miter" stroke-miterlimit="10" stroke-dasharray="" stroke-dashoffset="0" style="mix-blend-mode: normal"><path d="M511.8799,312.22461c-0.35913,0.59197 -4.08501,4.43679 -5.07658,5.36032c-1.18012,1.09914 -2.16268,2.50788 -3.60806,3.2232c-5.18748,2.56729 -11.11832,2.07524 -16.69524,1.9735c-1.47321,-0.02687 -2.98132,0.19047 -4.41831,-0.13533c-1.75063,-0.3969 -3.258,-1.56679 -5,-2c-1.06926,-0.26591 -2.24457,0.23446 -3.30484,-0.06531c-1.43448,-0.40557 -2.56701,-1.58921 -4,-2c-2.61321,-0.74912 -5.5629,0.47386 -8.14698,-0.37027c-0.8962,-0.29276 -1.10624,-1.69986 -2,-2c-0.90909,-0.30529 -1.92006,0.59214 -2.85302,0.37027c-1.45027,-0.34489 -2.66667,-1.33333 -4,-2c-1.89839,0.02177 -3.82697,0.40325 -5.69516,0.06531c-1.76639,-0.31953 -3.258,-1.56679 -5,-2c-1.06926,-0.26591 -2.24457,0.23446 -3.30484,-0.06531c-1.43448,-0.40557 -2.53926,-1.70256 -4,-2c-1.63922,-0.33379 -3.35613,0.37305 -5.01589,0.16413c-3.7425,-0.47107 -7.44975,-1.24822 -11.10158,-2.19286c-4.15182,-1.07398 -8.05923,-3.06557 -12.27461,-3.85401c-2.5836,-0.48324 -5.25641,0.06958 -7.88478,0.08338c0,0 -12.83333,0 -14,0c-2.42654,0 -4.98017,-0.98379 -7.27685,-0.20063c-1.41094,0.48112 -2.55457,1.63536 -4,2c-2.68427,0.67717 -5.5996,-0.5225 -8.30484,0.06531c-1.75412,0.38114 -3.24685,1.61439 -5,2c-1.05813,0.23274 -2.20448,-0.48863 -3.24493,-0.18648c-1.15417,0.33517 -1.82217,1.76092 -3,2c-2.4341,0.49407 -5.00805,-0.33124 -7.45023,0.12118c-1.46577,0.27154 -2.55274,1.64271 -4,2c-1.46371,0.36135 -3.01452,0.06919 -4.52178,0.10379c-3.99812,1.51558 -8.17036,2.61942 -12.3173,3.77402c1.04008,-1.66999 2.08739,-3.40827 2.8231,-4.97414c2.44146,-5.19631 3.49165,-11.04115 6.40331,-15.98935c1.01173,-1.71938 3.26237,-2.46368 4.28877,-4.17434c1.31268,-2.1878 2.26245,-6.34364 3.54069,-8.14278c6.10137,-8.5878 11.47897,-14.22482 21.75087,-18.36049c3.38642,-1.36344 10.0318,-3.23363 13.55063,-3.4251c2.58237,-0.14052 5.23396,0.56102 7.75856,0c1.03727,-0.2305 2.20143,-0.61161 3.37806,-0.98135c0.69693,0.02972 1.39297,0.06398 2.08799,0.10327c12.25813,0.69291 23.25819,6.5372 35.35234,8.03029c5.88388,0.7264 11.94481,-0.08065 17.75028,1.1211c3.27399,0.67773 6.31296,2.2166 9.52825,3.13322c3.87286,1.10408 7.81474,1.94989 11.72211,2.92483c3.69912,0.94409 7.33705,2.17283 11.09736,2.83226c1.73524,0.3043 3.55556,-0.29508 5.28499,0.04065c6.76198,1.3127 7.79282,2.81122 13.66876,5.47406c1.47447,0.6682 2.96082,1.17175 4.45219,1.64811c1.63898,0.16233 2.98442,0.82899 3.55012,1.14911c1.16186,0.40373 2.32349,0.85678 3.48167,1.42367l-1.3541,-0.7918c0,0 5.07314,0 6.87464,4.17238c4.41357,5.64508 2.93062,14.90599 -0.49476,20.55223z" fill="#fffaae"/><path d="" fill="#fffaae"/><path d="M179.04453,323.63908c-5.81369,-1.22402 -11.80673,-1.59595 -17.54652,-3.12955c-1.7745,-0.47413 -3.38487,-1.53964 -5.19936,-1.82471c-3.94301,-0.61947 -8.10265,0.75438 -11.97201,-0.22497c-1.16511,-0.29489 -1.87125,-1.58725 -3,-2c-0.55196,-0.20184 -1.16438,0.36862 -1.74299,0.26562c-2.70619,-0.48174 -5.28111,-1.59606 -8,-2c-4.55753,-0.6771 -9.22816,0.36631 -13.82266,0.01969c-1.69486,-0.12786 -3.30777,-0.8411 -5,-1c-5.9409,-0.55785 -12.28805,0.0365 -18.26097,0.0365c-9,0 -18,0 -27,0c-2.52763,0 -5.1272,-0.73899 -7.58169,-0.13533c-1.74311,0.42871 -3.24937,1.6031 -5,2c-3.38653,0.7678 -7.1456,-0.56208 -10.50193,0.07913c-2.3057,0.44049 -4.55893,1.12443 -6.81947,1.75709c-5.51023,1.54218 -11.33945,3.43244 -16.33246,6.28592c-3.59702,2.05568 -6.47279,5.24302 -10.19217,7.10778c-4.31812,2.16495 -8.96307,3.70446 -13.65591,4.8492c-8.72123,0.09968 -21.13677,2.2144 -27.53896,-5.48029c-4.58714,-5.51321 -3.87741,-10.52089 -3.87741,-16.96352c0,-0.43631 -0.08488,-9.62701 0.20063,-10.72315c0.47611,-1.82785 1.64431,-3.40322 2.37027,-5.14698c1.052,-2.5269 0.99769,-4.51539 2.54922,-7.07286c0.70983,-1.17005 1.79012,-2.09702 2.8853,-2.9932c-0.00359,-0.11334 -0.00542,-0.22848 -0.00542,-0.34544c0,-4.88452 3.18114,-6.5879 5.39986,-7.18192c0.20587,-0.23749 0.44067,-0.44759 0.71481,-0.62077c2.11918,-1.33869 4.92355,-0.94379 7.38533,-1.41568c0,0 1.70281,0 3.48569,0.81137c6.30681,-1.18749 12.40994,-3.29966 18.70642,-4.87184c3.96655,-0.99041 8.01184,-1.67966 12.06886,-2.18466c0.76835,-0.09564 1.5707,0.29109 2.32073,0.09883c3.84947,-0.98677 7.30347,-3.3479 11.21694,-4.03848c1.96957,-0.34755 4.02721,0.3288 6,0c2.0795,-0.34658 3.92551,-1.62459 6,-2c1.46928,-0.26589 3.02108,0.42969 4.47822,0.10379c1.45477,-0.32537 2.53972,-1.70032 4,-2c5.7376,-1.17749 11.93875,0.66499 17.68289,-0.12814c2.4039,-0.33192 4.66667,-1.33333 7,-2c7.97566,-0.06396 15.95117,-0.07382 23.92683,-0.07403c0.3852,0.13966 0.77776,0.264 1.17692,0.37228c1.2545,0.34028 2.57429,0.52186 3.93649,0.52186c1.79416,0 3.51474,-0.315 5.10947,-0.8927c1.13308,-0.00234 2.3122,-0.04052 3.51682,-0.09075c0.76066,0.20768 2.36987,0.62911 4.37478,1.16438c3.69964,1.75033 7.33446,3.39876 11.12354,5.65189c1.81388,1.0786 3.41118,3.72016 5.15795,5.02958c9.31031,6.9792 17.23475,15.65859 25.35705,23.99042c3.74073,3.83723 5.69538,9.08115 8.40371,13.70525c2.91189,4.97167 5.34804,8.6093 7.52976,12.91296c-0.34232,-0.0773 -0.68515,-0.15225 -1.02857,-0.22455z" fill="#fffaae"/><path d="M157.2541,331.43245c-10,0 -10,-10 -10,-10l0.51317,1.01789c-0.19791,-2.41604 -2.39301,-2.86002 -3.09479,-4.96847c-0.0955,0.00125 -0.19056,0.00452 -0.28471,0.01205c0,0 -0.19715,0 -0.5361,-0.02768c-0.33894,0.02768 -0.5361,0.02768 -0.5361,0.02768h-3.21658c-4.96031,-0.13293 -10.30535,-1.09639 -15.0395,-2.68566c-1.20997,-0.40619 -2.1464,-1.4211 -3.34094,-1.87063c-0.29862,-0.11238 -0.6002,0.25591 -0.91905,0.26751c-2.14297,0.07797 -4.28878,0 -6.43317,0c-3.21658,0 -6.43317,0 -9.64975,0c-3.30157,0 -6.70244,-0.99061 -9.90306,-0.18044c-1.8658,0.47229 -3.4728,1.77145 -5.36097,2.14439c-1.97228,0.38955 -4.0328,-0.12245 -6.03021,0.10551c-1.46409,0.1671 -2.82642,0.8906 -4.28878,1.07219c-1.29312,0.16058 -2.61883,-0.2385 -3.90879,-0.0542c-1.11883,0.15985 -2.09753,0.91388 -3.21658,1.07219c-1.32014,0.18676 -2.69837,-0.34226 -3.99952,-0.05131c-1.87826,0.41999 -3.47957,1.73869 -5.36097,2.14439c-1.69313,0.3651 -3.47243,-0.05413 -5.19448,0.13177c-1.13832,0.12288 -8.85937,1.98747 -9.41329,2.11813c-1.20651,-0.03517 -2.44247,-0.37275 -3.61954,-0.10551c-1.87688,0.42612 -3.47423,1.76432 -5.36097,2.14439c-2.02025,0.40697 -4.12053,0.25923 -6.17985,0.18044c-0.17804,-0.00681 -0.16096,-0.51185 -0.31874,-0.42908c-2.28224,1.19729 -4.00915,3.4134 -6.43317,4.28878c-1.32638,0.47899 -2.84896,-0.06723 -4.22335,0.24864c-3.03375,0.69724 -5.47291,3.06453 -8.44838,3.97904c-2.07803,0.63868 -4.34177,0.47872 -6.43317,1.07219c-2.82588,0.80189 -5.14538,2.85561 -7.84316,4.01775c-5.43448,2.34104 -11.35044,6.1639 -17.23573,7.06525c-4.98596,0.76361 -6.82269,-0.13041 -11.53254,-1.24164c0,0 -9.70143,-2.42536 -7.27607,-12.12678c2.42536,-9.70143 12.12678,-7.27607 12.12678,-7.27607c1.15492,0.31764 2.32436,1.22436 3.47818,0.90274c3.19469,-0.89048 6.57669,-3.43982 9.56913,-4.72889c3.96458,-1.70784 8.48663,-4.36878 12.52853,-5.632c2.07499,-0.6485 4.34586,-0.46451 6.43317,-1.07219c3.77184,-1.0981 7.05397,-3.59142 10.85112,-4.59851c0.71648,-0.19003 1.4878,0.41641 2.20982,0.24864c0.34379,-0.07988 0.27375,-0.69819 0.56742,-0.89397c1.87968,-1.25312 3.71362,-2.70788 5.86574,-3.39481c2.70418,-0.86313 5.76033,0.44792 8.51213,-0.24864c1.8658,-0.47229 3.4805,-1.73438 5.36097,-2.14439c1.6151,-0.35215 3.30535,-0.07034 4.95802,-0.10551c3.50072,-0.95362 6.02151,-1.72976 9.88621,-2.17065c1.12128,-0.12791 2.28329,0.38491 3.38308,0.13177c1.87561,-0.43171 3.48164,-1.72921 5.36097,-2.14439c1.49018,-0.32921 3.06753,0.16641 4.57803,-0.05131c4.00989,-0.57798 8.09135,-1.75911 12.17413,-2.19859c1.55532,-0.16742 3.15864,0.41645 4.69173,0.10551c1.88624,-0.38257 3.47423,-1.76432 5.36097,-2.14439c1.25817,-0.25345 13.12961,-0.18044 13.68521,-0.18044c5.35549,0 10.7296,-0.11987 16.08292,0c1.83974,0.04119 3.72878,-0.17849 5.51411,0.26751c4.48985,1.12162 8.93791,4.4089 13.78539,4.02127h3.21658c0,0 0.19715,0 0.5361,0.02768c0.33894,-0.02768 0.5361,-0.02768 0.5361,-0.02768c4.67505,0.12528 7.19599,-0.3035 11.69048,2.56569c2.1431,1.36811 3.86682,3.36046 5.39359,5.39359c0.67866,0.90374 0.49072,2.24745 1.07219,3.21658c0.52009,0.86682 1.64854,1.26348 2.14439,2.14439c0.93107,1.65409 1.36835,3.54108 2.05252,5.31162l0.51317,5.30667c0,0 0,10 -10,10z" fill="#f5efa6"/><path d="M504.2108,330.64791c-7.07107,7.07107 -14.14214,0 -14.14214,0l0.45187,0.17724c-1.33649,-0.91049 -2.74938,-1.71788 -4.00947,-2.73147c-1.41539,-1.13852 -2.28353,-2.90379 -3.79599,-3.90978c-2.0731,-1.37888 -4.7803,-1.542 -6.91557,-2.8225c-3.56095,-2.13546 -6.60992,-6.35938 -10.58236,-7.93892c-1.17896,-0.46878 -2.53856,-0.35778 -3.7127,-0.83849c-2.31,-0.94574 -4.57569,-2.04723 -6.66642,-3.41082c-0.28633,-0.18675 0.21253,-0.95859 -0.12412,-1.01802c-0.79558,-0.14043 -1.56124,0.74126 -2.35302,0.58077c-1.88629,-0.38235 -3.49517,-1.6721 -5.36097,-2.14439c-0.77699,-0.19668 -1.5965,0.15882 -2.3977,0.18044c-4.28012,0.1155 -8.58448,0 -12.86633,0c-13.93853,0 -27.87706,0 -41.81558,0c-3.21658,0 -6.43317,0 -9.64975,0c-1.51522,0 -3.07336,-0.5529 -4.54209,-0.18044c-0.5508,0.13968 -1.03928,0.46159 -1.54173,0.74026c-0.00309,0.05661 -0.00318,0.11095 0.00091,0.16212c0,0 0,10 -10,10c-10,0 -10,-10 -10,-10c0.1308,-4.88094 -0.33133,-7.91735 3.12513,-12.5031c2.90944,-3.86001 10.27078,-6.95236 14.63355,-8.03841c5.23519,-1.30322 12.63133,-0.18044 17.97399,-0.18044c13.93853,0 27.87706,0 41.81558,0c5.97471,0 13.20616,-0.996 19.04619,0.18044c1.88675,0.38007 3.48746,1.7037 5.36097,2.14439c2.0285,0.47715 4.27063,-0.14359 6.22454,0.58077c1.65509,0.61358 2.70692,2.27538 4.16466,3.27076c1.92959,1.31757 4.84402,1.32201 6.77599,2.18386c3.72368,1.66113 8.74412,5.25604 11.9441,7.84489c0.44944,0.36361 0.56627,1.07355 1.06181,1.3713c0.51949,0.31214 1.23261,0.09303 1.78611,0.33991c2.16339,0.96493 4.33853,1.95608 6.30905,3.27076c2.74897,1.83404 4.40839,4.428 7.20526,6.22509l2.59626,2.32163c0,0 7.07107,7.07107 0,14.14214z" fill="#f5efa6"/><path d="M509.87628,358.8057c0.31795,1.18781 0.31795,2.09967 0.31795,2.09967v3.21658c-0.10727,1.79665 0.17398,3.65974 -0.32181,5.38996c-0.35497,1.23876 -1.8935,1.95262 -2.14439,3.21658c-0.40588,2.04477 0.45159,4.172 0.26562,6.24835c-0.31238,3.4878 -2.35837,10.71916 -4.28051,13.74855c-3.35694,5.29073 -9.60693,7.74754 -14.87888,10.29974c-1.51519,0.73351 -2.74561,2.04019 -4.33834,2.58521c-1.01444,0.34713 -2.18963,-0.30817 -3.21658,0c-0.69609,0.20888 -0.98988,1.10068 -1.62551,1.45302c-2.03688,1.12908 -4.08113,2.35199 -6.33008,2.95693c-1.69812,0.45677 -3.52617,-0.03895 -5.27289,0.16413c-1.81018,0.21045 -3.54922,0.8756 -5.36097,1.07219c-1.19659,0.12984 -2.436,-0.36643 -3.6095,-0.09883c-1.87648,0.4279 -3.47589,1.75612 -5.36097,2.14439c-4.31383,0.88853 -8.80807,0.13533 -13.21245,0.13533c-65.40386,0 -130.80772,0 -196.21158,0c-46.81916,0 -93.63831,0 -140.45747,0c-11.08292,0 -22.16583,0 -33.24875,0c-8.7985,0 -17.6357,0.79415 -26.39549,-0.03031c-4.10203,-0.38607 -8.08653,-1.60544 -12.1654,-2.18721c-6.55077,-0.93435 -13.16595,-1.344 -19.74165,-2.08274c-8.60637,-0.04806 -16.20935,-1.25387 -24.10156,-4.9355c-2.064,-0.96283 -4.28427,-1.75578 -6.02196,-3.22805c-1.68858,-1.43066 -6.84039,-8.70056 -7.73356,-11.09012c-0.29552,-0.79062 0.51619,-1.71918 0.24909,-2.51984c-0.15231,-0.45657 -1.04758,-0.21915 -1.29961,-0.62919c-1.34753,-2.19239 -2.65442,-4.47602 -3.35944,-6.95096c-0.50074,-1.75783 -0.00608,-3.66097 -0.18176,-5.48026c-0.48478,-5.02025 -2.07108,-9.08362 -0.52016,-14.12374c0.2973,-0.96617 1.60451,-1.28976 2.14439,-2.14439c0.11889,-0.1882 -0.55035,-0.12481 -0.5709,-0.34646c-0.16019,-1.72774 -0.4009,-3.53129 0.05619,-5.20515c0.88424,-3.2381 1.50508,-6.93243 3.90041,-9.28394c1.43951,-1.41318 4.19929,0.37109 6.03358,-0.46834c0.69539,-0.31823 -0.4627,-1.68767 0.00306,-2.29422c1.44543,-1.88237 3.22397,-3.65084 5.35858,-4.68816c1.28581,-0.62484 2.90663,0.36524 4.28878,0c0.46533,-0.12297 0.41946,-0.86641 0.62919,-1.29961c1.42959,-0.7148 2.94614,-1.27723 4.28878,-2.14439c1.32311,-0.85455 2.17767,-2.45552 3.65959,-2.98917c2.024,-0.72887 4.78308,0.85806 6.4325,-0.52298c1.65275,-1.38383 2.87283,-1.17317 4.69659,-2.26571c0.2129,-0.12755 6.99823,-2.64017 10.12416,-3.087c0.67004,-0.09578 4.69973,-1.2583 5.55161,-1.62968c2.57285,-1.12164 6.34954,-2.45184 8.84558,-3.38017c4.349,-1.61748 5.92896,-2.18136 10.32684,-3.37265c4.20373,-1.13869 6.22446,-2.04211 10.47627,-2.98559c1.65627,-0.36752 5.22417,-1.36765 6.91305,-1.52888c3.08629,-0.29463 6.60433,-0.83572 9.67518,-1.26218c3.75501,-0.52146 7.48909,-0.90776 11.31512,-0.90776c2.57573,0.04292 5.09966,-0.74245 7.66118,-1.016c10.74757,-1.14776 22.28476,-0.05619 33.08221,-0.05619c5.64705,0 10.50361,-1.07579 15.98859,0.32181c1.24871,0.31818 5.13577,1.73159 6.35648,2.14439c0.87436,0.29567 4.61931,1.69193 6.18293,2.02321c2.4748,0.52433 5.13098,-0.26306 7.58015,0.37027c0.97868,0.25308 9.02702,1.29117 11.0974,1.8953c1.25158,0.36521 6.76091,4.1205 8.42004,5.22659c2.06219,2.02339 6.85372,1.47056 9.59584,2.5981c1.58678,0.65247 8.99173,3.65668 10.55791,4.21854c1.31651,0.47228 7.69168,3.70986 9.65042,4.83799c2.77817,1.60008 5.16435,4.62199 8.50211,5.51368c0.93793,0.25057 6.38544,1.70163 8.27271,2.07908c1.75229,0.35046 5.87638,0.87061 7.62867,1.22107c1.88727,0.37746 8.6359,1.72265 10.0967,1.91638c3.46771,0.45988 7.36621,-0.05619 10.87776,-0.05619c8.57756,0 17.15511,0 25.73267,0c3.56329,0 7.16223,-0.12352 10.72194,0c0.50199,0.01742 1.01734,0.36068 1.49344,0.20063c1.51502,-0.50929 6.18077,-1.72753 7.05513,-2.02321c1.22071,-0.4128 9.32143,-1.54881 12.24437,-2.26557c1.55234,-0.38067 7.49818,-1.87454 8.57756,-2.14439c1.55061,-0.38765 6.98431,-2.09448 8.31214,-2.28883c3.50472,-0.51298 6.54542,-2.533 10.08735,-2.56471c2.01528,0.27074 4.29022,-0.00666 6.26098,-0.50744c1.01788,-0.25865 7.93319,-0.20063 9.22851,-0.20063c0.54926,0 9.93102,-0.01929 10.56612,0.05619c1.46329,0.17391 2.8324,0.84762 4.28878,1.07219c2.7162,0.41883 5.98158,-0.05619 8.73338,-0.05619c6.43317,0 12.86633,0 19.2995,0c5.00226,0 11.00022,-0.67367 15.9271,0.05619c2.91537,0.43188 5.66756,1.67775 8.57756,2.14439c3.58023,0.57412 7.25179,-0.05619 10.87776,-0.05619c2.0289,0.1903 4.15148,-0.0675 6.08671,0.5709c0.95999,0.31668 6.04833,0.08237 7.64551,0.48822c1.5491,0.39364 4.22917,0.7241 5.789,1.07281c1.57457,0.352 5.64841,1.47117 6.76987,1.61135c1.77319,0.22165 3.80424,0.619 5.57528,0.85726c2.48449,0.33425 4.0963,1.31681 6.57743,1.67511c1.47849,0.21351 4.11971,1.1048 5.54517,1.55152c1.22964,0.38536 5.79743,0.90625 6.84581,1.35019c1.91921,0.81271 4.60471,0.4037 6.42626,1.41652c2.36344,1.31411 6.38393,3.02617 8.48895,3.47998c2.34399,0.50533 4.4854,1.69699 6.7281,2.54549c0,0 6.56488,2.62595 4.39662,9.15268z" data-paper-data="{&quot;index&quot;:null}" fill="#d59213"/><path d="M-17.90739,345.80564c-2.16826,-6.52673 4.39662,-9.15268 4.39662,-9.15268c2.2427,-0.8485 4.38411,-2.04016 6.7281,-2.54549c2.10502,-0.45381 6.12551,-2.16587 8.48895,-3.47998c1.82155,-1.01282 4.50705,-0.60381 6.42626,-1.41652c1.04838,-0.44394 5.61617,-0.96483 6.84581,-1.35019c1.42546,-0.44672 4.06668,-1.33801 5.54517,-1.55152c2.48113,-0.3583 4.09294,-1.34086 6.57743,-1.67511c1.77104,-0.23826 3.80209,-0.63561 5.57528,-0.85726c1.12146,-0.14018 5.1953,-1.25935 6.76987,-1.61135c1.55983,-0.34871 4.2399,-0.67917 5.789,-1.07281c1.59718,-0.40585 6.68552,-0.17154 7.64551,-0.48822c1.93523,-0.6384 4.05781,-0.3806 6.08671,-0.5709c3.62597,0 7.29753,0.63031 10.87776,0.05619c2.91,-0.46664 5.66219,-1.71251 8.57756,-2.14439c4.92688,-0.72986 10.92484,-0.05619 15.9271,-0.05619c6.43317,0 12.86633,0 19.2995,0c2.7518,0 6.01718,0.47502 8.73338,0.05619c1.45638,-0.22457 2.82549,-0.89828 4.28878,-1.07219c0.6351,-0.07548 10.01686,-0.05619 10.56612,-0.05619c1.29532,0 8.21063,-0.05802 9.22851,0.20063c1.97076,0.50078 4.2457,0.77818 6.26098,0.50744c3.54193,0.03171 6.58263,2.05173 10.08735,2.56471c1.32783,0.19435 6.76153,1.90118 8.31214,2.28883c1.07938,0.26985 7.02522,1.76372 8.57756,2.14439c2.92294,0.71676 11.02366,1.85277 12.24437,2.26557c0.87436,0.29568 5.54011,1.51392 7.05513,2.02321c0.4761,0.16005 0.99145,-0.18321 1.49344,-0.20063c3.55971,-0.12352 7.15865,0 10.72194,0c8.57756,0 17.15511,0 25.73267,0c3.51155,0 7.41005,0.51607 10.87776,0.05619c1.4608,-0.19373 8.20943,-1.53892 10.0967,-1.91638c1.75229,-0.35046 5.87638,-0.87061 7.62867,-1.22107c1.88727,-0.37745 7.33478,-1.82851 8.27271,-2.07908c3.33776,-0.89169 5.72394,-3.9136 8.50211,-5.51368c1.95874,-1.12813 8.33391,-4.36571 9.65042,-4.83799c1.56618,-0.56186 8.97113,-3.56607 10.55791,-4.21854c2.74212,-1.12754 7.53365,-0.57471 9.59584,-2.5981c1.65913,-1.10609 7.16846,-4.86138 8.42004,-5.22659c2.07038,-0.60413 10.11872,-1.64222 11.0974,-1.8953c2.44917,-0.63333 5.10535,0.15406 7.58015,-0.37027c1.56362,-0.33128 5.30857,-1.72754 6.18293,-2.02321c1.22071,-0.4128 5.10777,-1.82621 6.35648,-2.14439c5.48498,-1.3976 10.34154,-0.32181 15.98859,-0.32181c10.79745,0 22.33464,-1.09157 33.08221,0.05619c2.56152,0.27355 5.08545,1.05892 7.66118,1.016c3.82603,0 7.56011,0.3863 11.31512,0.90776c3.07085,0.42646 6.58889,0.96755 9.67518,1.26218c1.68888,0.16123 5.25678,1.16136 6.91305,1.52888c4.25181,0.94348 6.27254,1.8469 10.47627,2.98559c4.39788,1.19129 5.97784,1.75517 10.32684,3.37265c2.49604,0.92833 6.27273,2.25853 8.84558,3.38017c0.85188,0.37138 4.88157,1.5339 5.55161,1.62968c3.12593,0.44683 9.91126,2.95945 10.12416,3.087c1.82376,1.09254 3.04384,0.88188 4.69659,2.26571c1.64942,1.38104 4.4085,-0.20589 6.4325,0.52298c1.48192,0.53365 2.33648,2.13462 3.65959,2.98917c1.34264,0.86716 2.85919,1.42959 4.28878,2.14439c0.20973,0.4332 0.16386,1.17664 0.62919,1.29961c1.38215,0.36524 3.00297,-0.62484 4.28878,0c2.13461,1.03732 3.91315,2.80579 5.35858,4.68816c0.46576,0.60655 -0.69233,1.97599 0.00306,2.29422c1.83429,0.83943 4.59407,-0.94484 6.03358,0.46834c2.39533,2.35151 3.01617,6.04584 3.90041,9.28394c0.45709,1.67386 0.21638,3.47741 0.05619,5.20515c-0.02055,0.22165 -0.68979,0.15826 -0.5709,0.34646c0.53988,0.85463 1.84709,1.17822 2.14439,2.14439c1.55092,5.04012 -0.03538,9.10349 -0.52016,14.12374c-0.17568,1.81929 0.31898,3.72243 -0.18176,5.48026c-0.70502,2.47494 -2.01191,4.75857 -3.35944,6.95096c-0.25203,0.41004 -1.1473,0.17262 -1.29961,0.62919c-0.2671,0.80066 0.54461,1.72922 0.24909,2.51984c-0.89317,2.38956 -6.04498,9.65946 -7.73356,11.09012c-1.73769,1.47227 -3.95796,2.26522 -6.02196,3.22805c-7.89221,3.68163 -15.49519,4.88744 -24.10156,4.9355c-6.5757,0.73874 -13.19088,1.14839 -19.74165,2.08274c-4.07887,0.58177 -8.06337,1.80114 -12.1654,2.18721c-8.75979,0.82446 -17.59699,0.03031 -26.39549,0.03031c-11.08292,0 -22.16583,0 -33.24875,0c-46.81916,0 -93.63831,0 -140.45747,0c-65.40386,0 -130.80772,0 -196.21158,0c-4.40438,0 -8.89862,0.7532 -13.21245,-0.13533c-1.88508,-0.38827 -3.48449,-1.71649 -5.36097,-2.14439c-1.1735,-0.2676 -2.41291,0.22867 -3.6095,0.09883c-1.81175,-0.19659 -3.55079,-0.86174 -5.36097,-1.07219c-1.74672,-0.20308 -3.57477,0.29264 -5.27289,-0.16413c-2.24895,-0.60494 -4.2932,-1.82785 -6.33008,-2.95693c-0.63563,-0.35234 -0.92942,-1.24414 -1.62551,-1.45302c-1.02695,-0.30817 -2.20214,0.34713 -3.21658,0c-1.59273,-0.54502 -2.82315,-1.8517 -4.33834,-2.58521c-5.27195,-2.5522 -11.52194,-5.00901 -14.87888,-10.29974c-1.92214,-3.02939 -3.96813,-10.26075 -4.28051,-13.74855c-0.18597,-2.07635 0.6715,-4.20358 0.26562,-6.24835c-0.25089,-1.26396 -1.78942,-1.97782 -2.14439,-3.21658c-0.49579,-1.73022 -0.21454,-3.59331 -0.32181,-5.38996v-3.21658c0,0 0,-0.91186 0.31795,-2.09967z" fill="#d59213"/><path d="M-0.82352,368.04598c-0.04498,-0.02342 -0.08994,-0.04739 -0.13485,-0.07192c-1.16184,0.0747 -2.34043,-0.03035 -3.50685,-0.00478c0,0 -7.5,0 -7.5,-7.5c0,-7.5 7.5,-7.5 7.5,-7.5c3.24792,0.15608 5.14357,-1.48179 8.44838,-2.04754c0.74116,-0.12688 4.22991,-1.53918 5.46115,-1.91942c1.48407,-0.45832 8.20241,-1.14112 10.0119,-1.3575c0.74089,-0.0886 4.95585,-1.65748 6.52125,-1.98026c2.80028,-0.5774 11.31724,-1.75075 12.86634,-2.14439c0.86365,-0.21946 14.51223,-1.84842 16.08292,-2.14439c1.25133,-0.23579 9.81768,-0.20063 12.44509,-0.20063c10.36455,0 20.72909,0 31.09364,0c2.50179,0 13.88287,-1.55012 15.43197,-1.94376c4.19816,-1.06678 10.2991,-0.20063 14.58948,-0.20063c11.43674,0 22.87348,0 34.31022,0c15.72552,0 31.45104,0 47.17656,0c8.98195,0 17.60749,-0.09319 26.4717,1.10869c1.53914,0.20869 3.16687,-0.17301 4.65093,0.28531c1.23124,0.38024 6.01204,0.76746 6.81027,0.96725c1.86705,0.46731 9.18265,2.68127 11.41703,3.32153c1.23876,0.35497 5.81288,1.71397 7.05512,2.02321c1.551,0.3861 6.79396,1.88323 7.9556,2.26557c1.22402,0.40287 4.01596,1.01659 4.37883,0.98918c2.85106,-0.21539 5.59931,0.8334 8.45851,0.8334c2.49443,0 4.00568,0.29025 6.40485,-0.39253c1.2394,-0.35272 3.06077,-1.03736 4.28809,-1.43005c1.33171,-0.42609 6.28438,-1.15182 7.40518,-1.29716c0.901,-0.11685 4.0855,-0.63913 4.54647,-0.98161c1.15909,-0.86114 2.3407,-1.70683 3.61238,-2.39084c2.05102,-1.10319 4.10434,-2.27152 6.33008,-2.95693c0.66978,-0.20626 3.49919,-1.05932 4.21399,-1.77412c5.95654,-0.50544 9.50537,-3.3645 15.60729,-4.76284c1.13778,-0.26074 8.23261,-1.84843 10.72195,-2.14439c0.88131,-0.10478 3.80442,-1.35365 4.76441,-1.67033c1.93523,-0.6384 4.05198,-0.45894 6.08671,-0.5709c5.31504,-0.29246 10.76366,0 16.08292,0c14.502,0 29.00451,-0.03642 43.50638,0.02555c3.73593,0.62266 7.55454,0.61329 11.30471,1.14348c1.11906,0.15821 15.47872,-0.19728 21.34371,1.29716c1.24872,0.31818 6.13593,1.73402 7.50536,2.14439c1.61255,0.48322 5.20773,1.83895 6.71668,2.58521c3.4183,1.69054 5.37027,1.71408 8.74371,3.42745c1.90854,0.96935 3.02321,3.16815 4.96087,4.07791c3.33097,1.56395 6.48719,-0.0392 9.22235,4.49643c5.33318,8.84385 -1.01051,16.40855 -6.69037,21.97953c-2.50927,1.67285 -4.36814,4.5155 -7.24576,5.41781c-7.06016,2.21378 -14.97719,-0.89124 -22.04045,0.47406c-2.2193,0.42898 -4.19408,1.83485 -6.43317,2.14439c-8.85986,1.22483 -19.06228,0.09684 -28.00623,0.09684c-40.02859,0 -80.05718,0 -120.08578,0c-71.12223,0 -142.24446,0 -213.36669,0c-5.77034,0 -11.58212,-0.74725 -17.31093,-0.05619c-2.92597,0.35296 -5.65476,1.76603 -8.57756,2.14439c-0.48935,0.06335 -9.05354,0.05619 -11.63832,0.05619c-6.79056,0 -13.58113,0 -20.37169,0c-6.68113,0 -14.62035,1.15567 -20.85035,-2.0457c-4.73374,-2.4325 -7.20164,-7.03284 -8.74598,-11.81613z" fill="#b97e11"/><g><g data-paper-data="{&quot;index&quot;:null}" fill="#d9d393"><path d="M143.06609,293.93421l-0.28915,-0.34599l1.09539,-0.91544c0.14004,-0.12149 0.31365,-0.20796 0.50942,-0.24298c0.57857,-0.10349 1.1315,0.28164 1.23499,0.86022c0.04397,0.24581 -0.00027,0.48698 -0.11006,0.69103l-0.91064,1.73204c-0.65786,2.24189 -0.53764,4.49895 0.19246,6.59311c-1.48203,-0.40326 -2.97445,-0.77542 -4.401,-1.33861c-0.32964,-0.04966 -0.73634,-0.13752 -1.17653,-0.23545c0.55047,-2.65814 1.87384,-5.17649 3.85512,-6.79793z"/><path d=""/><path d=""/><path d=""/><path d=""/><path d=""/><path d=""/><path d=""/><path d=""/><path d=""/><path d=""/><path d=""/><path d="M142.60978,297.86637l-0.4286,0.9021c-0.31651,0.58506 -0.6146,1.56808 -0.7795,2.56691c-0.34102,-0.11399 -0.67941,-0.23563 -1.01416,-0.36779c-0.29144,-0.0439 -0.64311,-0.11767 -1.0249,-0.20185c0.23747,-1.19001 0.6057,-2.3044 0.91756,-2.95459l0.40686,-0.85764c0,0 0.45642,-0.96137 1.41781,-0.50495c0.96138,0.45643 0.50495,1.4178 0.50495,1.4178z"/><path d=""/><path d=""/><path d=""/><path d=""/><path d=""/></g><g data-paper-data="{&quot;index&quot;:null}"><path d="M142.05999,292.57139l-0.28915,-0.34599l1.09539,-0.91544c0.14003,-0.1215 0.31365,-0.20796 0.50942,-0.24298c0.57858,-0.10349 1.1315,0.28164 1.23499,0.86022c0.04397,0.24581 -0.00027,0.48698 -0.11005,0.69103l-0.91064,1.73204c-0.78859,2.68739 -0.45915,5.39657 0.69864,7.82084c-1.31671,-0.35423 -2.63484,-0.70362 -3.90108,-1.20352c-0.61477,-0.09261 -1.49755,-0.3181 -2.36579,-0.49393c0.38157,-3.05173 1.78411,-6.0575 4.03827,-7.90227z" fill="#ede3bf"/><path d="" fill="#eeeeee"/><path d="" fill="#eeeeee"/><path d="" fill="#e2e2e2"/><path d="" fill="#e2e2e2"/><path d="" fill="#e2e2e2"/><path d="" fill="#e2e2e2"/><path d="" fill="#e2e2e2"/><path d="" fill="#e2e2e2"/><path d="" fill="#e2e2e2"/><path d="" fill="#e2e2e2"/><path d="" fill="#ede3bf"/><path d="" fill="#e6ddba"/><path d="" fill="#e6ddba"/><path d="M141.60369,296.50356l-0.42859,0.90209c-0.42071,0.77767 -0.80887,2.25845 -0.89498,3.54489c-0.56845,-0.09451 -1.33298,-0.28437 -2.09961,-0.44423c0.18266,-1.56733 0.68619,-3.20866 1.09356,-4.05796l0.40686,-0.85764c0,0 0.45642,-0.96137 1.41781,-0.50495c0.96138,0.45643 0.50496,1.41781 0.50496,1.41781z" fill="#e6ddba"/><path d="M149.98466,304.53744c-0.07169,-0.03864 -0.14326,-0.07761 -0.21475,-0.11682c0.09572,0.02055 0.19101,0.04209 0.28586,0.06478c-0.02368,0.01738 -0.04739,0.03472 -0.07112,0.05203z" fill="#f3f3f3"/><path d="" fill="#f3f3f3"/><path d="" fill="#f3f3f3"/><path d="" fill="#f3f3f3"/><path d="" fill="#f3f3f3"/></g></g><g><g fill="#d9d393"><path d="M350.62167,277.86652l-0.57113,-1.2753c-0.06906,-0.15035 -0.08975,-0.32421 -0.04737,-0.49741c0.09976,-0.40767 0.51112,-0.6573 0.9188,-0.55754c0.13793,0.03375 0.25778,0.10318 0.35212,0.19607l0.73949,0.70164l-0.22162,0.23358c1.71015,1.58947 2.58982,4.1732 2.53925,6.61657c-0.39159,0.54245 -0.48847,1.20427 -0.51743,1.89806c-1.44451,-0.45619 -2.76624,-1.08428 -4.0571,-1.74569c0.94566,-1.68222 1.30863,-3.60854 0.86499,-5.56998z"/><path d=""/><path d="M353.83497,284.83835c-0.00965,0.11345 -0.01636,0.2282 -0.02119,0.34384c-0.12749,-0.04026 -0.25401,-0.08186 -0.37965,-0.12471c0.13018,-0.06855 0.26495,-0.14393 0.40084,-0.21913z"/><path d=""/><path d=""/><path d=""/><path d=""/><path d=""/><path d=""/><path d=""/><path d=""/><path d=""/><path d=""/><path d=""/><path d=""/><path d=""/><path d="M352.36403,278.50268c0.70567,-0.28206 0.98772,0.42359 0.98772,0.42359l0.2514,0.6295c0.33179,0.82058 0.7206,2.62605 0.57791,3.96735c-0.18337,0.33758 -0.27622,0.71203 -0.32449,1.10567c-0.02986,0.04855 -0.06187,0.09433 -0.09611,0.1371c-0.09637,0.12036 -0.19599,0.21994 -0.29666,0.30168c-0.86635,-0.29376 -1.69009,-0.64687 -2.49187,-1.02822c0.12224,-0.07688 0.26244,-0.15814 0.42233,-0.24479c0.33209,-0.17997 0.99591,0.44063 1.12977,0.08742c0.34807,-0.91841 0.07534,-2.87679 -0.3187,-3.72944l-0.26489,-0.66215c0,0 -0.28206,-0.70566 0.4236,-0.98772z"/><path d=""/><path d=""/><path d=""/><path d=""/><path d=""/><path d=""/></g><g><path d="M354.34147,283.22528c0.00691,0.00586 0.01365,0.01173 0.02026,0.01761c-0.00218,0.00286 -0.00435,0.00573 -0.00651,0.00861c-0.33056,0.44037 -0.46031,0.96202 -0.5139,1.51691c-0.16543,0.06771 -0.31775,0.16355 -0.46556,0.26904c-1.4906,-0.51399 -2.85631,-1.20173 -4.20335,-1.90306c1.33832,-1.86701 1.92803,-4.11979 1.40757,-6.42092l-0.57113,-1.2753c-0.06907,-0.15036 -0.08975,-0.32422 -0.04736,-0.49742c0.09976,-0.40768 0.51112,-0.6573 0.9188,-0.55754c0.13794,0.03375 0.25777,0.10318 0.35212,0.19607l0.7395,0.70164l-0.22162,0.23359c1.94656,1.80921 2.81717,4.90656 2.46468,7.61885c0.04158,0.02526 0.0838,0.05567 0.1265,0.0919z" fill="#ede3bf"/><path d="" fill="#eeeeee"/><path d="M351.91586,284.20086l-0.28433,-0.06958c0.00375,-0.00293 0.00749,-0.00586 0.0112,-0.00877c0.37626,0.08062 0.73932,0.10886 1.08085,0.05045c0.39461,-0.0675 0.9637,-0.44899 1.49366,-0.71394c-0.29723,0.50702 -0.37755,1.10229 -0.40346,1.72317c-0.55251,-0.17449 -1.08706,-0.37413 -1.60879,-0.59116c0.01017,-0.17928 -0.10843,-0.34595 -0.28913,-0.39017z" fill="#eeeeee"/><path d="" fill="#eeeeee"/><path d="" fill="#e2e2e2"/><path d="" fill="#e2e2e2"/><path d="" fill="#e2e2e2"/><path d="" fill="#e2e2e2"/><path d="" fill="#e2e2e2"/><path d="" fill="#e2e2e2"/><path d="" fill="#e2e2e2"/><path d="" fill="#e2e2e2"/><path d="" fill="#ede3bf"/><path d="" fill="#e6ddba"/><path d="" fill="#e6ddba"/><path d="M352.32234,277.34963c0.70566,-0.28206 0.98772,0.42359 0.98772,0.42359l0.2514,0.6295c0.45705,1.13039 1.02233,4.12981 0.15731,5.21012c-0.49937,0.62366 -1.08595,0.68953 -1.45423,0.60552c0.04418,0.11584 0.06899,0.25757 0.03059,0.40994c-0.71349,-0.29319 -1.4026,-0.61956 -2.08036,-0.95944c0.02717,-0.2919 0.33325,-0.59133 1.1378,-1.02737c0.33208,-0.17998 0.9959,0.44063 1.12977,0.08742c0.34807,-0.91841 0.07534,-2.87679 -0.31869,-3.72943l-0.26489,-0.66215c0,0 -0.28206,-0.70566 0.42359,-0.98772z" fill="#e6ddba"/><path d="" fill="#f3f3f3"/><path d="M354.2321,283.19892c0.09659,-0.05245 0.19294,-0.09746 0.28895,-0.13547c-0.05915,0.0573 -0.11458,0.11978 -0.16583,0.18805c-0.10679,0.14227 -0.19263,0.29303 -0.26171,0.45066c-0.17381,-0.31368 0.1386,-0.50324 0.1386,-0.50324z" fill="#f3f3f3"/><path d="" fill="#f3f3f3"/><path d="" fill="#f3f3f3"/><path d="" fill="#f3f3f3"/></g></g><g><g><path d="M388.3403,271.83102c-0.94795,-0.39556 -1.06117,-1.77067 -1.73114,-2.54926c-0.41283,-0.47976 -1.79604,-0.76847 -2.65643,-1.02289c-1.69616,-0.45807 -3.38675,-0.94328 -5.07733,-1.41572c-0.5923,-0.16552 -1.28317,-0.85965 -1.77762,-0.49396c-0.43909,0.32476 -0.6385,2.3638 -0.80079,2.82496c-0.65477,1.8606 -1.01253,3.68834 -1.53736,5.58345c-0.06532,0.13 -0.12891,0.26096 -0.19077,0.39281c-0.08619,-0.01749 -0.17255,-0.03321 -0.2591,-0.04708c-0.1606,-0.76772 -0.5393,-1.55964 -1.29184,-2.25893c0.49397,-1.81367 0.98893,-3.62336 1.49194,-5.437c0.26489,-0.95505 0.54071,-2.37252 1.4714,-2.94711c0.96099,-0.59329 2.55386,0.01757 3.47561,0.26715c1.77239,0.47992 3.54148,0.97239 5.31182,1.45992c0.00153,0.02127 0.00323,0.04263 0.00511,0.06406c1.18949,0.43839 2.62168,0.70198 3.51092,1.61377c0.48031,0.49249 0.21279,1.54499 0.80077,1.90211c0.11104,0.06745 0.21583,-0.14494 0.32786,-0.21071c0.51587,-0.30285 1.00789,-0.65424 1.55552,-0.89493c0.49238,-0.21639 1.00694,-0.44515 1.54432,-0.46741c0.07749,-0.00321 0.15816,-0.00227 0.24153,0.00234c-0.32927,0.78652 -0.63755,1.5823 -0.94843,2.37684c-1.10906,0.50978 -2.03681,1.85398 -3.466,1.2576z" fill="#ad7943"/><path d="" fill="#ad7943"/><path d="" fill="#ad7943"/><path d="" fill="#ad7943"/><path d="" fill="#ad7943"/><path d="" fill="#ad7943"/><path d="M374.46201,273.21095c0.64826,-1.51805 0.85059,-3.32519 1.03423,-4.95377c0.06599,-0.58533 -0.20629,-1.31357 0.18042,-1.75789c1.9395,-2.22837 4.40238,-0.05093 6.40314,0.48538c0.27185,0.07472 2.31611,0.62829 2.45722,0.70583c0.21268,0.11687 0.39755,0.26047 0.56343,0.42125c0.23513,-0.11976 0.51393,-0.15557 0.78841,-0.08012c0.13936,0.0383 0.26502,0.10183 0.37341,0.18429l1.11833,0.81029c1.09956,0.48195 1.78349,1.27606 3.14797,1.20293c0.55368,-0.02967 1.0732,-0.25415 1.59993,-0.47912c-0.58057,1.47823 -1.14191,2.96473 -1.83617,4.39176c-0.35114,0.72177 -0.88647,1.37352 -1.32974,2.05575c-0.33143,0.12947 -0.65545,0.2756 -0.96899,0.44144l-4.67999,0.52c-1.23178,0.12036 -2.33252,0.68769 -3.13791,1.5377c-1.6363,-1.74345 -3.69849,-3.24591 -5.86595,-3.59335c-0.06498,-0.31064 -0.16567,-0.62524 -0.31239,-0.93606c0.18438,-0.35435 0.34538,-0.67706 0.46463,-0.95632z" fill="#ad7943"/><path d="M379.72543,278.07366c0.46963,-0.07456 0.93063,-0.12377 1.38397,-0.14997c-0.34196,0.2194 -0.65545,0.47932 -0.93369,0.77297c-0.191,-0.2035 -0.3878,-0.40373 -0.58989,-0.59921c0.04611,-0.0084 0.09265,-0.01635 0.13961,-0.0238z" fill="#95693a"/><path d="M391.14461,271.62338c-1.2011,0.37612 -3.1109,0.74431 -4.10156,-0.46573c-0.50866,-0.6213 -0.15177,-1.62597 -0.47251,-2.36209c-0.18871,-0.4331 -1.08502,-0.24693 -1.27127,-0.30824c-1.15108,-0.37893 -2.33542,-0.93636 -3.49413,-1.35616c-0.63692,-0.23076 -3.71947,-1.83883 -4.35042,-1.13088c-0.4563,0.51199 -0.78763,2.31356 -1.10901,2.98732c0,0 -0.43163,0.90205 -1.33368,0.47041c-0.90205,-0.43163 -0.47041,-1.33368 -0.47041,-1.33368c0.41083,-0.85561 0.84867,-2.96904 1.53358,-3.57212c1.9967,-1.7581 8.85986,1.13344 10.89622,2.13537c2.55199,1.25564 0.45857,4.11986 3.70285,2.99192c0.56955,-0.08446 1.08971,-0.18409 1.59085,-0.27605c-0.28506,0.72008 -0.56271,1.44338 -0.85061,2.16206c-0.08903,0.02298 -0.17891,0.04261 -0.2699,0.05787z" fill="#c48a4c"/><path d="M384.49166,274.60805c1.10252,-1.01805 3.46719,0.4347 4.85373,1.02868c-0.13074,0.18602 -0.26029,0.37224 -0.3828,0.5608c-0.33143,0.12947 -0.65545,0.2756 -0.96899,0.44144l-4.08167,0.45352c0.12003,-1.00839 0.31464,-2.23967 0.57972,-2.48443z" fill="#b10000"/><path d="" fill="#950000"/></g><path d="" fill="#d9d393"/></g></g></g></svg>