<svg version="1.1" xmlns="http://www.w3.org/2000/svg" xmlns:xlink="http://www.w3.org/1999/xlink" width="159.759" height="213.41348" viewBox="0,0,159.759,213.41348"><g transform="translate(-147.68775,-29.98108)"><g data-paper-data="{&quot;isPaintingLayer&quot;:true}" fill-rule="nonzero" stroke="none" stroke-linecap="butt" stroke-linejoin="miter" stroke-miterlimit="10" stroke-dasharray="" stroke-dashoffset="0" style="mix-blend-mode: normal"><path d="" fill="#525252" stroke-width="0.5"/><path d="M269.43453,231.62513c-1.53753,1.01775 -2.83175,0.96176 -3.83451,0.52233c-1.41805,0.30651 -3.05418,0.03205 -4.50495,0.1902c-1.14798,0.12515 -2.32442,0.17247 -3.51198,0.17827c-6.21996,2.57396 -11.37807,5.88479 -17.94875,1.99261l-1.99634,-0.55061c-1.51453,-0.37918 -2.74097,-1.59516 -3.25882,-3.18405c-0.42204,0.25061 -0.7324,0.41417 -0.86532,0.44285c-6.7145,1.44875 -11.24812,2.01589 -8.30942,-8.7627c0.57229,-2.09904 2.90566,-2.99484 4.44178,-4.38501c1.62996,-1.47509 3.44107,-2.52329 5.30154,-3.43786c-4.63079,1.03647 -9.85947,1.64861 -11.72685,-4.88811c-1.41031,1.1918 -3.5113,2.66446 -5.5811,3.24451c0.06444,1.21576 -0.30478,2.62527 -1.73647,3.91757c-3.50767,3.16619 -6.37759,-0.7036 -6.37759,-0.7036c-1.15078,-1.63546 -2.64565,-3.037 -3.45234,-4.90636c-0.58591,-1.35775 -0.85696,-2.93627 -0.97796,-4.55575c-1.34887,-1.67711 -1.26328,-4.16944 -0.07654,-7.95468c-0.00884,-4.90084 -0.00784,-9.8022 0.00425,-14.70289c0.01245,-5.04724 0.02627,-10.16108 3.57006,-14.03264c6.92167,-7.56185 19.03704,-4.92085 27.83864,-4.92085c4.97343,0 10.21989,-0.08032 15.01836,1.39535h2.37237c2.50303,0 4.53213,2.23857 4.53213,5c0,1.51057 -0.60719,2.86469 -1.56699,3.7815l-2.88849,2.78835c-0.16659,1.88834 -2.35997,3.16868 -3.25006,4.90475c-0.97494,1.90157 -1.40692,4.13054 -2.52956,5.93023c-2.76331,4.42986 -6.35618,8.15539 -9.46376,12.29829c-0.77031,1.02695 -1.5615,2.03461 -2.3452,3.04919c2.10883,-0.41556 4.23288,-0.74276 6.36172,-0.99307c2.51475,-0.08029 6.03397,-2.46061 7.54425,-0.24086c0.08006,0.11766 0.15458,0.23774 0.22385,0.3601c0.35738,-0.30192 0.71701,-0.60206 1.07806,-0.90106c1.92941,-2.4864 3.8181,-4.82463 5.36655,-7.72207c0.89606,-1.6767 3.24801,-8.00367 4.68508,-8.86063c2.48798,-1.48364 5.82405,-3.31351 8.31841,-1.843c3.85438,2.2723 2.04574,8.24336 1.08394,11.69105c0.22304,0.59117 0.34619,1.23973 0.34619,1.92001v2.7907c-0.03433,6.72761 -0.74234,13.59776 -1.28022,20.29613c-0.00804,0.10019 -0.01505,0.20026 -0.02114,0.30022c0.24981,1.38687 0.43865,2.68278 0.59587,3.62551l0.37583,0.06613c0,0 2.33176,4.28746 -1.55451,6.85995z" fill="#8f3e15" stroke-width="0.5"/><path d="M270.87294,184.68918c0,10.78294 -0.16096,21.60003 0.36927,32.36562c0.41659,3.53949 1.21542,8.24477 -0.84067,11.43693c-2.50971,3.89643 -8.45986,3.83723 -12.15542,3.8421c-10.88625,0.01437 -21.77258,0 -32.65883,0c0,0 -0.36354,0 -0.80608,-0.15973c-0.53501,0.47104 -1.75749,1.2317 -3.06901,-0.1069c-1.75621,-1.79246 -0.15965,-3.76417 -0.15965,-3.76417c3.54399,-4.37417 6.92095,-9.78805 11.54917,-12.85748c1.55294,-1.0299 3.34482,-1.58097 4.84454,-2.70592c4.13542,-3.10202 7.30732,-7.59745 11.26883,-10.98638c3.72204,-3.18406 7.07154,-5.83828 10.02582,-9.98851c2.59969,-3.64836 5.00401,-7.4423 7.59507,-11.08511l1.19055,-1.56176c0,0 1.54463,-2.02319 3.34669,-0.28903c1.80206,1.73416 0.25744,3.75734 0.25744,3.75734l-0.59193,0.77403zM255.77773,227.00444c2.5431,0 5.13087,0.27337 7.63385,-0.35883c0.07087,-0.0179 2.86998,-0.82806 3.18584,-1.34162c1.101,-1.79018 0.14151,-5.89127 -0.08116,-7.74883c-0.44752,-9.0052 -0.42257,-18.04347 -0.39986,-27.07027c-1.04082,1.54776 -2.08763,3.09185 -3.16875,4.60909c-3.2052,4.49376 -6.82831,7.45372 -10.86064,10.90264c-3.25591,2.78484 -5.90047,6.19159 -9.03805,9.09887c-2.40372,2.22728 -4.88217,3.22906 -7.50741,4.92162c-2.58123,1.66419 -4.75361,4.29497 -6.78392,6.98734c9.00671,0 18.0134,0 27.0201,0z" fill="#763312" stroke-width="0.5"/><path d="M208.67416,219.14701c-2.40751,-0.22487 -2.20687,-2.92321 -2.20687,-2.92321c0.20373,-2.71658 0.61901,-5.93446 0.26298,-8.66089c-0.27723,-2.12301 -1.08456,-4.14323 -1.26141,-6.27967c-0.51456,-6.21625 -0.00977,-12.76625 -0.00977,-19.01363c0,-4.64872 -1.38324,-10.5557 3.24106,-13.14753c2.00181,-1.12197 6.9062,-0.20611 9.17313,-0.20611c9.65042,0 19.68869,-0.19311 29.17533,1.96108h2.56939v0c1.33424,0 2.41584,1.21228 2.41584,2.70771c0,0.63532 -0.19522,1.21954 -0.52211,1.68142l-1.73649,2.50235l-0.05953,-0.0519c-0.08722,0.15166 -0.17886,0.30036 -0.27557,0.44572c-0.70469,1.05911 -2.18958,1.95084 -3.73061,2.74428c0.56796,1.74243 -0.89097,2.96881 -0.89097,2.96881l-2.07491,1.74169c-5.10165,3.64164 -8.30092,7.91765 -12.35078,12.78161c-3.16669,3.80324 -7.14877,7.06031 -10.91401,10.15193c-0.20367,0.34748 -0.40964,0.69222 -0.61853,1.03359c-1.53244,2.50425 -3.35636,4.65216 -4.86782,7.18026l-0.23327,0.11587l0.07326,0.0821l-1.74972,1.9611c-0.43718,0.49 -1.04114,0.79307 -1.70826,0.79307c-0.55202,0 -1.06079,-0.20751 -1.4676,-0.55673c-0.07521,-0.00123 -0.15277,-0.00547 -0.23277,-0.01294zM211.65075,208.38714c1.32631,-1.66202 3.0254,-3.14891 4.77712,-4.52561c2.75553,-4.88728 5.2837,-10.04258 9.03367,-14.03365c3.03492,-3.23004 7.33052,-6.58521 10.79564,-9.2337c1.36345,-1.04212 4.20009,-3.53713 6.81002,-4.99678c-8.29243,-1.35913 -16.85377,-1.26601 -25.1939,-1.26601c-2.29815,0 -5.08374,-0.52771 -7.32413,-0.20611c-0.75449,0.10831 -0.29068,1.68943 -0.25837,2.5412c0.10925,2.87967 0,5.80268 0,8.68484c0,5.07686 -0.40932,10.39337 -0.00976,15.44558c0.16292,2.06006 0.98234,3.99904 1.23818,6.0472c0.06296,0.50404 0.10548,1.01965 0.13153,1.54304z" fill="#763312" stroke-width="0.5"/><path d="M261.02662,163.97499l12.54366,14.59898l-57.49639,60.88439l-12.54366,-14.59898z" fill="#af4c00" stroke-width="0"/><path d="M197.79179,173.54667v-11.96997h82.40762v11.96997z" fill="#af4c00" stroke-width="0"/><path d="M197.76102,243.39456v-12.38867h82.40763v12.38867z" fill="#af4c00" stroke-width="0"/><path d="M197.68023,172.49571h12.27528v59.21053h-12.27528z" fill="#af4c00" stroke-width="0"/><path d="M268.87725,172.49571h11.2294v59.21053h-11.2294z" fill="#af4c00" stroke-width="0"/><path d="M197.7881,161.83781v-3.54251h82.29768v3.54251z" fill="#a24600" stroke-width="0"/><path d="M248.10356,240.74805c0,1.25 -1.13303,1.25 -1.13303,1.25c-7.37874,0 -15.07371,0 -22.45245,0c-3.7845,0 -7.78023,0.82482 -11.52278,0.33951c-2.73849,-0.35511 -5.42154,-1.22345 -8.24267,-0.87491c-1.73865,0.21481 -3.27341,0.87062 -5.05875,0.88428c0,0 -1.13303,0 -1.13303,-1.25c0,-1.25 1.13303,-1.25 1.13303,-1.25c1.6619,0.01586 3.11639,-0.66189 4.74444,-0.86012c3.03179,-0.36915 5.88945,0.4869 8.83385,0.86949c3.64004,0.47297 7.55963,-0.35824 11.24591,-0.35824c7.37874,0 14.75748,0 22.13622,0h0.31623c0,0 1.13303,0 1.13303,1.25z" fill="#9d4400" stroke-width="0.5"/><path d="M279.72674,240.74805c0,1.25 -1.13303,1.25 -1.13303,1.25c-3.63667,0 -7.43144,0 -11.06811,0c0,0 -1.13303,0 -1.13303,-1.25c0,-1.25 1.13303,-1.25 1.13303,-1.25c3.63667,0 7.27333,0 10.90999,0h0.15812c0,0 1.13303,0 1.13303,1.25z" fill="#9d4400" stroke-width="0.5"/><path d="M208.4726,169.1266c0,1.25 -1.13303,1.25 -1.13303,1.25c-2.3959,0 -5.37458,0 -7.77047,0c0,0 -1.13303,0 -1.13303,-1.25c0,-1.25 1.13303,-1.25 1.13303,-1.25c2.3959,0 4.79179,0 7.18769,0h0.58279c0,0 1.13303,0 1.13303,1.25z" fill="#9d4400" stroke-width="0.5"/><path d="M278.98964,169.76956c0,1.25 -1.13303,1.25 -1.13303,1.25c-4.72704,0 -10.81391,0 -15.54094,0c-8.35326,0 -16.70652,0 -25.05978,0c0,0 -1.13303,0 -1.13303,-1.25c0,-1.25 1.13303,-1.25 1.13303,-1.25c8.35326,0 16.70652,0 25.05978,0c4.72704,0 9.45407,0 14.18111,0h1.35983c0,0 1.13303,0 1.13303,1.25z" fill="#9d4400" stroke-width="0.5"/><path d="M208.86112,228.99231c0,1.25 -1.13303,1.25 -1.13303,1.25c-2.46065,0 -5.11556,0 -7.57621,0c0,0 -1.13303,0 -1.13303,-1.25c0,-1.25 1.13303,-1.25 1.13303,-1.25c2.46065,0 4.9213,0 7.38195,0h0.19426c0,0 1.13303,0 1.13303,1.25z" fill="#9d4400" stroke-width="0.5"/><path d="M278.98964,228.77799c0,1.25 -1.13303,1.25 -1.13303,1.25c-1.23032,0 -2.84917,0 -4.0795,0c0,0 -1.13303,0 -1.13303,-1.25c0,-1.25 1.13303,-1.25 1.13303,-1.25c1.23032,0 2.46065,0 3.69097,0h0.38852c0,0 1.13303,0 1.13303,1.25z" fill="#9d4400" stroke-width="0.5"/><path d="M264.53508,182.55634c0.09149,-0.36939 0.35039,-0.89204 1.08303,-0.89204c1.13303,0 1.13303,1.25 1.13303,1.25l-0.33186,1.0982c-6.6766,7.3481 -13.5529,14.7653 -20.28607,22.15738c-1.62653,1.1844 -2.6116,2.95886 -4.09436,4.29954c-3.66035,3.30959 -7.38739,6.88748 -10.789,10.6286c-1.46539,1.61165 -2.47479,3.12927 -4.24413,4.43371c0,0 -0.94274,0.69338 -1.57123,-0.34669c-0.62849,-1.04006 0.31425,-1.73344 0.31425,-1.73344c1.66689,-1.22279 2.53192,-2.60904 3.91487,-4.13894c3.44539,-3.8115 7.24406,-7.44778 10.96832,-10.80303c1.46758,-1.32217 2.45406,-3.07753 4.06463,-4.27311c6.54691,-7.26845 13.31468,-14.47183 19.83852,-21.68018z" fill="#9d4400" stroke-width="0.5"/><path d="M174.5827,95.43099c0.00776,0.03766 0.01405,0.07633 0.0188,0.11606c0.19293,1.6119 -2.54038,1.72568 -2.54038,1.72568c-1.59595,0.03721 -3.23587,0.33411 -4.78787,0.11163c-3.62057,-0.519 -6.35594,-3.06579 -8.37392,-4.6947c-5.16382,-4.16826 -6.00141,-10.13296 -6.53629,-15.09251c-0.12955,-1.20121 -1.50201,-2.30493 -1.45023,-3.50819c0.0296,-0.688 0.83455,-1.29924 0.98039,-1.98206c0.40395,-1.89131 0.41779,-3.67739 1.06349,-5.59745c1.88486,-5.60134 7.76038,-9.62584 14.71327,-13.44539c2.59767,-1.42703 4.32617,-3.13092 6.61366,-4.6743c6.96665,-4.70046 17.16365,-8.06267 26.75283,-10.38702c2.21883,-0.33597 4.42984,-0.44992 6.63627,-0.59821c0.27142,-0.37569 0.78299,-0.69134 1.47344,-0.85976l3.03906,-0.74135l0.065,0.09266l0.29631,-0.1639c2.47328,-0.17548 4.16358,-0.33104 5.875,-0.39655c0.12093,-0.03149 0.24086,-0.06206 0.35962,-0.09155l-0.10411,-0.2237l3.16117,-0.51165c0.41559,-0.0711 0.84149,-0.0812 1.24699,-0.03781c0.80423,-0.20239 1.60816,-0.40862 2.42189,-0.60545c5.14942,-1.2456 9.23712,-0.69539 14.60306,-0.8447c1.76329,-0.04906 3.40658,-0.5473 5.1186,-0.80104c5.80603,-0.8605 15.52623,-1.04523 21.12639,0.36126c3.01983,0.75844 4.28423,2.38281 7.47448,3.12668c2.28948,0.56472 4.97894,1.10298 6.72634,2.21031c1.33962,0.84892 1.01082,2.22115 2.71262,2.94573c1.79479,0.76417 4.22001,0.96782 5.85579,1.84742c2.42652,1.30479 4.22303,3.2689 6.20992,4.80103c3.64644,2.81183 7.95021,6.13015 9.50249,9.62931c1.77199,3.99444 -0.04388,8.1068 -1.52858,11.99792c-1.35418,0.71695 -2.29398,1.8979 -4.06256,2.15085c-2.44211,0.34928 -4.41152,-1.42187 -6.66705,-2.07517c-1.75297,-0.50773 -3.93384,-0.15314 -5.79831,-0.49597c-0.72924,-0.13409 -1.29904,-0.56185 -2.0614,-0.59039c-2.85098,-0.10669 -5.62757,2.09161 -8.53855,1.81375c-5.2218,-0.49844 -4.86813,-3.17042 -9.06514,-3.65258c-1.99815,-0.22955 -5.17831,0.75133 -6.91637,1.1768c-1.89641,0.46424 -3.85977,0.83495 -5.67024,1.32755c0.24665,0.14569 0.44988,0.32178 0.59162,0.52385c0.57846,0.82467 -0.08624,1.76973 -1.48465,2.11087l-3.41896,0.83402c-0.56313,0.09502 -1.09798,0.23084 -1.61175,0.39479l-0.67749,0.96326v0c-0.26866,0.38199 -0.78444,0.70354 -1.48365,0.8741c-1.39841,0.34113 -3.00098,-0.05086 -3.57945,-0.87553c-0.12914,-0.1841 -0.19632,-0.37419 -0.20722,-0.56224c-4.44446,1.07223 -8.84098,2.03184 -13.45446,2.74454c-2.0725,0.32016 -4.29446,0.18982 -6.37093,0.5009c-3.69626,0.55374 -9.21079,1.81545 -11.27167,3.76599c-1.22366,1.15816 -3.08338,5.18545 -4.82098,5.68608c-1.96861,0.56719 -4.36518,-0.77894 -6.51284,-0.52322c-2.31571,0.57786 -5.1895,1.03041 -7.19428,1.95541c-2.4685,1.13896 -2.83252,3.28961 -4.9255,4.53643c-3.1283,1.86357 -7.65982,1.40092 -11.14243,3.06396z" fill="#3d850c" stroke-width="0.5"/><path d="M159.21178,89.08285c0.45104,-3.68828 1.88436,-7.8675 6.05587,-10.67938c1.41931,-0.95671 4.43045,-2.1155 6.46045,-2.55549c0.27168,-0.05889 3.58573,-0.15618 4.08352,-0.70351c0.91745,-1.00877 0.08213,-2.35464 0.89965,-3.39287c3.42021,-4.34359 14.61608,-7.44972 22.31487,-7.50292c3.37377,-0.80161 3.8052,-1.8888 6.60317,-3.34082c3.77574,-1.95943 11.95204,-3.97222 16.90249,-4.34546c1.96511,-0.14815 5.03605,0.26542 6.87679,0.62783c0.56985,0.11219 1.01699,0.52436 1.61199,0.47537c1.60905,-0.13248 4.63996,-2.64815 6.13732,-3.13743c7.91266,-2.58554 18.20703,-2.92839 26.8068,-1.92166c1.92278,0.13886 3.67435,0.85397 5.61031,0.89382c2.31891,0.04774 3.84103,-1.53581 5.76564,-2.30012c2.08112,-0.82646 5.34164,-2.08962 8.07334,-2.0582c5.39357,0.06204 12.3114,3.2245 16.19421,5.18066c2.88585,1.45388 5.99506,4.56753 6.41472,6.89266c0.27421,1.51923 -1.00432,2.46633 -1.12748,3.91605c-0.17838,2.09934 -0.27238,5.91397 -5.28991,6.63963c-1.59178,0.23021 -3.08268,-0.65716 -4.62403,-0.98574c-3.67246,-1.778 -9.6063,-3.56078 -14.55549,-2.66394c-1.49181,0.27032 -4.91179,1.41941 -6.21308,1.3265c-1.49828,-0.10699 -2.55187,-0.96912 -3.94803,-1.30711c-5.18998,-1.25643 -11.11379,-0.26269 -16.01145,1.24503c-0.0448,0.33119 -0.26248,0.64752 -0.621,0.90338l-1.96073,1.45508l-0.39417,-0.18472l-0.35067,0.56832c-0.25174,-0.00905 -0.50347,-0.01809 -0.75521,-0.02713c-0.07037,0.0236 -0.14434,0.04489 -0.22124,0.0643l0.0492,0.16553l-2.53376,0.26196c-4.63238,1.10583 -9.63782,1.34322 -14.12856,2.45308c-1.91,0.47205 -3.6202,1.24579 -5.6213,1.56028c-2.11346,0.33216 -4.35881,-0.30197 -6.54544,-0.27202c-1.5602,0.02137 -5.23473,1.24996 -6.64547,1.7004c-5.68062,1.8138 -8.11302,5.29642 -12.67998,7.65219c-2.31365,0.58192 -5.64405,1.05548 -7.73861,1.88382c-2.77439,1.0972 -3.45799,2.92912 -5.71341,4.09408c-1.73689,0.89714 -4.42272,0.79637 -6.56022,1.31121c-2.07138,0.49891 -3.75962,1.43133 -5.64554,2.14137c-4.12213,1.552 -3.90711,4.38517 -10.56758,2.34323c-1.15647,-0.35455 -1.16013,-1.37817 -1.82288,-2.04005c-1.18056,-1.17899 -2.07054,-1.57014 -3.78724,-2.61798l-1.5586,-1.64054c0,0 -1.19726,-1.2836 0.76067,-2.0787z" fill="#36760b" stroke-width="0.5"/><path d="M171.4562,97.39051c5.35917,-3.60598 12.85776,-3.81659 18.76241,-6.72199c3.08448,-1.51772 3.43238,-2.70479 7.46455,-3.70526c3.59631,-0.89231 7.99328,-0.50614 11.25881,-1.71213c-0.12715,-0.10245 -0.23574,-0.21545 -0.3217,-0.33799c-0.19573,-0.27902 -0.24912,-0.57183 -0.17995,-0.85036l0.35556,-1.64322l0.08425,0.00634l-0.04338,-0.1461c0.77499,-1.44645 1.22972,-2.89606 3.34668,-3.97209c1.66357,-0.84556 3.75176,-1.14929 5.92489,-1.19787c0.90688,-0.41228 1.77989,-0.73915 2.50199,-0.93783c4.19552,-1.15439 7.93947,-0.14912 12.48217,-0.50191c4.25036,-0.33008 7.60004,-1.77804 11.65765,-2.43959c2.20647,-0.35974 4.61084,0.17611 6.86718,-0.05198c0.894,-0.09037 1.55896,-0.27701 2.11544,-0.51989c-0.3685,-0.10309 -0.73755,-0.27645 -1.08118,-0.55022c-1.63024,-1.29881 0.57217,-2.26019 0.57217,-2.26019l2.89851,-1.21145c4.30137,-0.48996 10.079,-1.2543 14.40341,-0.36203c0.14294,0.02949 0.28019,0.06603 0.41332,0.1077c1.20746,0.19801 2.36946,0.46511 3.41916,0.85412c0.01532,0.00568 0.07865,0.03838 0.1783,0.08981c1.10318,-0.13031 2.28352,-0.58525 3.02843,-0.70828c0.46799,-0.07729 6.10588,-0.64862 6.76996,-0.64864c3.02532,-0.00006 6.24408,0.07201 7.20811,1.19567c0.43718,0.09368 0.88718,0.18933 1.35461,0.28337l0.28429,0.40889l0.26055,-0.14343l2.02305,1.27807c0.23785,0.1434 0.43411,0.31548 0.57209,0.5122c0.46874,0.66825 0.12118,1.41556 -0.7716,1.85652c0.89379,-0.15098 1.80585,-0.28899 2.60913,-0.5337l1.36945,-1.46862c0,0 1.39721,-1.39005 3.75436,-0.5661c2.35715,0.82396 0.95995,2.21401 0.95995,2.21401l-2.24461,2.12697c-1.11306,0.38934 -2.14016,0.88088 -3.33921,1.168c-0.67123,0.16073 -1.67641,-0.17025 -2.15873,0.14854c-0.59384,0.3925 0.13228,1.14674 -0.42349,1.55817c-2.37646,1.75926 -7.07706,2.46038 -10.4629,3.22631c-2.62643,-0.1568 -7.81651,-0.95052 -10.20661,0.22817c-2.72544,1.34407 -4.19696,2.71056 -7.97869,3.3488c-2.20494,0.37213 -4.43918,0.81668 -6.73238,0.83703c-2.66253,0.02364 -5.46519,-1.04072 -8.30684,-0.3217c-2.60296,0.65864 -4.73642,2.34219 -7.02633,3.25864c-5.95002,2.38125 -14.5666,3.49741 -21.32293,1.77371c-2.85809,1.16609 -4.65948,3.1413 -7.3153,4.47785c-2.61253,1.31479 -7.48794,2.77334 -10.86687,3.15977c-2.45131,0.28034 -7.33173,-0.86147 -9.53428,-0.35052c-1.68145,0.39007 -1.79348,1.93564 -3.27087,2.54908c-6.09702,2.53161 -14.01094,1.35117 -20.57431,0.45466c0,0 -2.66921,-0.36528 -2.04978,-1.93935c0.16952,-0.43078 0.49256,-0.71631 0.87238,-0.90383c0.20254,-0.2554 0.43911,-0.4161 0.43911,-0.4161z" fill="#746b5d" stroke-width="0.5"/><path d="M197.73633,86.56227c-1.46283,1.08965 -3.31057,0.22699 -3.31057,0.22699l-1.80641,-0.87252c-3.25322,-2.21566 -4.54079,-4.65978 -6.27975,-7.37821c-3.13751,-4.93165 -5.56486,-11.34377 -5.1461,-16.55824c0.18632,-2.32013 -1.16865,-4.68779 -1.27604,-7.00091c-0.18383,-3.95932 1.36711,-7.92999 1.05992,-11.8275c0,0 -0.09184,-1.38873 2.26306,-1.44289c2.35491,-0.05416 2.44675,1.33457 2.44675,1.33457c0.21907,3.92764 -1.24494,7.87114 -1.05858,11.85033c0.08787,1.87606 0.82,3.75159 1.07233,5.62401c0.13609,1.00987 -0.27273,2.02415 -0.21229,3.03658c0.08892,1.48948 1.05771,2.91526 1.51211,4.38137c1.02197,3.29734 1.7185,6.46655 3.74885,9.6216c1.5162,2.3702 2.54167,4.62172 5.41481,6.52752l1.18696,0.52498c0,0 1.84775,0.86265 0.38493,1.9523z" fill="#4fae10" stroke-width="0.5"/><path d="M193.11905,84.0497c-0.25251,-0.03689 -0.4961,-0.09085 -0.72724,-0.16586c-1.19729,-0.38857 -1.32956,-1.40998 -1.90333,-2.14143c-1.71393,-2.18495 -2.49483,-4.74913 -3.07145,-7.11033c-0.38541,-2.76353 -0.77378,-5.52348 -1.06972,-8.28457c-0.08081,-0.028 -0.16233,-0.05709 -0.24458,-0.08725c-1.31165,-0.481 -1.32564,-4.3447 -1.45831,-5.29172c-0.76166,-5.43667 -1.06319,-10.32389 0.86499,-15.44264c-0.01925,-0.01134 -0.03911,-0.02233 -0.05958,-0.03296l-0.17314,0.00398l-0.00537,-0.08113c-0.04074,-0.0145 -0.08343,-0.02782 -0.12817,-0.03989c0,0 -1.3176,-0.55715 -0.98346,-1.39169c-0.40218,0.07257 -2.21959,0.32772 -2.9572,-0.82536c-0.81942,-1.28096 1.30814,-1.77607 1.37175,-1.79054c2.06314,-0.90027 3.96225,-1.68061 6.24413,-2.38726c0.38909,-0.18046 0.92767,-0.31686 1.62644,-0.24827c0.45366,0.01473 0.9543,0.10959 1.38397,0.37881c0.47611,0.24053 0.66018,0.53101 0.70631,0.79757c0.13047,0.35807 -0.0117,0.65097 -0.24248,0.87788c0.42863,1.06828 0.76365,2.15056 1.02262,3.23735c-0.36387,3.58738 2.25609,6.61078 4.36788,9.91205c3.50633,5.48129 7.79099,10.40395 13.22649,15.30248c2.57446,2.32014 4.97738,4.73371 8.58422,6.52996c0.54895,0.09096 1.10999,0.32393 1.44642,0.84985c0.83181,1.30034 -1.3732,1.79087 -1.3732,1.79087l-0.95778,0.15592c-2.87391,1.23732 -6.38261,1.41502 -9.28583,2.43952c-0.89757,0.80403 -1.81242,1.61868 -1.96127,1.69421c-0.06113,0.03102 -0.2594,0.08875 -0.5473,0.1634c-0.64264,0.79991 -1.26008,1.64887 -2.63026,2.22137c-2.52165,1.05363 -5.44722,1.20603 -8.11604,2.04948c0,0 -2.08482,0.64804 -3.18371,-0.58142c-1.09889,-1.22946 0.98592,-1.87748 0.98592,-1.87748c0.04016,-0.01231 0.08041,-0.02448 0.12075,-0.0365c-0.34549,-0.17554 -0.63225,-0.37371 -0.87247,-0.58839zM190.57181,55.90999c-0.0064,0.19126 -0.01175,0.38249 -0.0161,0.57368c0.07373,-0.08463 0.16217,-0.16489 0.26422,-0.23933c-0.08344,-0.11128 -0.16616,-0.22272 -0.24811,-0.33435z" fill="#4fae10" stroke-width="0.5"/><path d="M275.20421,64.11603c0.04153,-0.01052 0.08319,-0.02089 0.12498,-0.03115c0,0 2.18095,-0.52658 3.06238,0.7399c0.88142,1.26649 -1.29952,1.79307 -1.29952,1.79307c-2.80983,0.66535 -4.89172,1.88079 -7.87844,2.34786c-1.62288,0.25379 -3.11821,-0.00386 -4.56634,-0.21932c-0.282,0.08206 -0.48436,0.1346 -0.56385,0.14247c-0.19355,0.01917 -1.83612,-0.08356 -3.45383,-0.18735c-3.19492,0.65645 -5.6852,2.11735 -9.13636,2.62669l-0.81864,0.33117c0,0 -2.05478,0.6796 -3.19992,-0.51179c-0.46315,-0.48186 -0.40287,-0.87999 -0.16679,-1.18331c0.00164,-2.74745 -1.57044,-5.34384 -2.9112,-7.95831c-2.83076,-5.51996 -6.43419,-10.53926 -11.26124,-15.56132c-2.90723,-3.02468 -5.12783,-6.10224 -9.99995,-8.19732c-1.23813,-0.8002 -2.42144,-1.63165 -3.52632,-2.49623c-0.44202,-0.03939 -0.91229,-0.16005 -1.29113,-0.44392c-0.31487,-0.18847 -0.57181,-0.45383 -0.57603,-0.81865c-0.07124,-0.36207 0.12869,-0.64619 0.40193,-0.85881c0.36153,-0.35639 0.88485,-0.51195 1.36883,-0.57275c2.38368,-0.57802 4.61603,-0.93808 7.1091,-1.29617c0.05969,-0.0194 2.07049,-0.6614 3.19856,0.51224c1.01545,1.05648 -0.4853,1.71051 -0.83823,1.8451c1.29416,0.37555 1.16553,1.31688 1.16553,1.31688c-0.01323,0.02765 -0.02352,0.05517 -0.03101,0.08256l0.10144,0.05348l-0.1167,0.07511c0.00054,0.01587 0.00195,0.03168 0.00421,0.04745c7.85967,2.35786 13.98348,5.56943 20.52116,9.33313c1.1388,0.6556 6.12469,3.094 5.90146,3.98472c-0.014,0.05586 -0.02893,0.1107 -0.04479,0.16455c3.37881,1.87071 6.6966,3.78214 10.02091,5.69448c2.681,1.7448 5.49281,3.70894 7.21321,5.85258c0.57594,0.71762 1.81119,1.41988 1.54214,2.20115c-0.05194,0.15082 -0.13913,0.29398 -0.25412,0.43039c0.12276,0.24282 0.19423,0.4961 0.19856,0.76146zM240.5408,44.82105c0.16197,0.00112 0.32273,0.012 0.47963,0.03222c-0.24997,-0.1184 -0.50064,-0.23638 -0.75201,-0.3539c0.09151,0.10701 0.18229,0.21423 0.27239,0.32168z" data-paper-data="{&quot;index&quot;:null}" fill="#4fae10" stroke-width="0.5"/><path d="M172.28016,96.35267c-0.65756,1.33459 -2.92066,0.94682 -2.92066,0.94682l-3.07446,-0.56551c-3.82404,-2.08581 -4.84469,-4.42143 -6.64691,-7.23876c-3.1671,-4.95098 -5.63326,-9.51403 -7.09663,-14.75041c0,0 -0.38322,-1.37129 1.94211,-1.59728c2.32533,-0.22599 2.70854,1.14529 2.70854,1.14529c1.41506,5.06352 3.79184,9.43126 6.85601,14.22133c1.2285,1.92046 1.98776,4.399 4.55672,5.80024l2.06974,0.31592c0,0 2.2631,0.38777 1.60554,1.72237z" fill="#4fae10" stroke-width="0.5"/><path d="M282.58574,42.78673c1.73837,-0.93838 3.32961,0.08677 3.32961,0.08677l0.97551,0.62994c5.36792,3.21264 8.24477,6.90988 11.20554,10.98804c1.27275,1.75308 3.33077,3.71549 3.84961,5.62392c0.94575,3.47867 -0.66614,6.78 -1.71393,10.18222c0,0 -0.42119,1.36741 -2.73995,1.11902c-2.31875,-0.24839 -1.89755,-1.6158 -1.89755,-1.6158c0.96237,-3.12379 2.4848,-6.08011 1.69211,-9.26563c-0.40876,-1.64267 -2.43809,-3.45224 -3.52739,-4.95543c-2.71494,-3.74658 -5.27633,-7.17479 -10.22272,-10.1236l-1.09799,-0.70592c0,0 -1.59124,-1.02515 0.14713,-1.96353z" fill="#4fae10" stroke-width="0.5"/><path d="M303.36009,75.03119c-4.40872,3.17088 -10.88035,5.73639 -17.72596,6.73461c-1.25518,0.18303 -4.94705,0.32768 -6.15136,0.18252c-1.293,-0.15585 -1.90334,-1.10868 -3.1812,-0.29716c-1.34199,0.85225 -2.53126,1.809 -4.09182,2.52013c-3.63509,0.82527 -8.50248,2.48164 -12.52712,2.23507c-0.18693,-0.01145 -2.87686,-0.94846 -3.79703,-0.70099c-1.66377,0.44745 -2.29038,1.72133 -3.78825,2.33988c-3.57412,1.47594 -10.05364,2.38654 -14.26641,2.80044c-3.22146,0.3165 -5.98413,0.62117 -9.25081,0.37419c-1.5084,-0.11405 -4.83684,-1.10377 -6.27241,-0.94021c-1.37123,0.15623 -1.84218,1.24237 -2.64328,1.91699c-3.28185,2.33304 -8.58134,5.20378 -13.72827,5.74988c-1.11181,0.11797 -2.26576,0.28868 -3.37694,0.16861c-0.54235,-0.0586 -4.32759,-1.58743 -5.4347,-0.65485c-0.37871,0.31901 0.01847,0.81134 -0.29001,1.15564c-0.68596,0.76563 -1.4812,1.54099 -2.61747,2.08948c-1.5798,0.76257 -4.81053,0.9647 -6.71023,1.14027c-5.06706,0.46831 -9.13044,0.52393 -13.48005,-0.88369c-1.23686,0.1927 -2.36027,-0.29865 -2.36027,-0.29865c-4.23974,-1.88493 -8.90726,-2.26009 -12.14881,-5.06059c-2.46979,-2.13373 -3.78708,-5.33112 -5.45631,-7.71079c-2.10542,-3.00152 -5.50211,-6.39034 -6.11066,-9.64772c-1.03976,-5.5657 0.9651,-13.83385 6.70578,-18.33834c1.50086,-2.78867 4.02244,-4.15968 6.95329,-6.53186c3.51951,-2.84861 6.69241,-5.69464 11.00192,-8.17348c7.95864,-4.57781 18.43997,-6.87988 28.51524,-9.33765c7.08566,-1.72849 14.23598,-3.76091 21.87077,-4.30568c4.82919,-0.42239 9.64604,-1.3942 14.4553,-1.55179c3.19507,-0.1047 6.40412,0.14699 9.57691,0.39262c4.7031,0.36409 8.56203,-0.27218 13.28968,0.45866c11.93968,1.84575 21.79183,5.52965 29.60053,11.0905c2.66703,1.89928 5.20512,3.37817 6.8235,5.68535c3.42529,2.33126 3.85338,5.24995 6.55244,7.77804c0.60848,0.56993 1.70576,0.93985 2.20907,1.54441c1.61912,1.94485 2.2037,6.528 1.83544,8.65901c-0.1032,0.59711 -0.96979,1.07987 -1.13131,1.67247c-0.44264,1.62402 -0.32197,3.3106 -1.08275,4.89309l-0.29907,0.92053c0,0 -0.10177,0.30264 -0.44063,0.6172zM184.91649,90.72599c0.80906,-0.08601 1.6614,0.58984 2.38813,0.36321c0.6031,-0.18808 0.07133,-0.81269 0.28093,-1.19556c0.35805,-0.65404 0.69877,-1.34167 1.40693,-1.88752c2.44075,-1.88136 10.60609,-4.31647 14.75998,-3.88184c0.70616,0.07388 0.71573,0.74634 1.23054,1.04079c0.26589,0.15209 -0.46197,-0.37925 -0.45579,-0.59766c0.02303,-0.8172 0.04732,-1.66741 0.54116,-2.43107c1.70242,-2.63259 5.49841,-4.34782 9.08724,-6.00935c3.91911,-0.95604 7.44629,-1.44061 11.73427,-0.98703c0.86271,0.09126 1.60652,0.5204 2.48283,0.51051c1.55661,-0.01756 3.46071,-1.46261 4.40957,-1.79832c1.99443,-0.70566 7.84222,-2.33484 10.18434,-2.40838c1.86801,-0.05866 3.62874,1.16514 5.42262,0.85235c1.92948,-0.33643 4.67606,-3.99385 6.06116,-4.66369c0.33346,-0.16126 6.84885,-1.73579 7.12005,-1.77287c4.18552,-0.57242 14.90138,0.53447 15.01599,3.64196c0.71077,-1.11695 2.76272,-1.85502 4.63014,-2.31385c7.39974,-1.81812 12.61715,-0.48845 17.45788,3.15442l1.42827,0.44278c1.44531,-3.12707 1.52294,-6.12417 1.14622,-9.32787c-0.04169,-0.35452 -0.16501,-2.53966 -0.62846,-3.03683c-1.02388,-1.09839 -2.52884,-2.0434 -3.34993,-3.19951c-1.5753,-2.21809 -2.52395,-4.07579 -5.19002,-5.89032c-1.546,-2.20401 -3.83939,-3.50478 -6.37913,-5.32033c-12.02348,-8.59506 -29.53199,-11.31871 -47.90429,-10.7791c-4.62707,0.13589 -9.41319,1.12196 -14.08574,1.53064c-7.0973,0.44593 -13.9187,2.48487 -20.48957,4.08777c-9.43342,2.3012 -19.3689,4.4034 -26.82578,8.68887c-4.06725,2.33746 -7.03165,5.05157 -10.35632,7.73854c-2.90933,2.35129 -5.08794,3.38118 -6.49795,6.09378c-5.15582,4.14989 -7.03368,11.38146 -6.15075,16.48385c0.50343,2.90935 3.85646,6.12486 5.73452,8.80227c1.56567,2.23206 2.76734,5.17016 5.00129,7.19777c1.73826,1.57769 4.72756,2.28925 7.55069,3.10554c1.93636,-3.43385 6.51399,-5.51904 13.239,-6.23393zM186.78992,99.09846c0.32977,-0.02955 3.89239,-0.28387 4.55696,-0.59784c1.41172,-0.66694 0.9844,-2.15975 2.28048,-2.90385c1.01457,-0.58248 2.50831,-0.82406 3.89018,-1.00622c1.98325,-0.26143 3.97821,0.49504 5.94503,0.79654c2.37687,0.36436 4.21978,-0.98113 5.74543,-1.63716c2.65306,-1.14083 4.61427,-1.74009 6.7228,-3.24977c1.46748,-1.18385 2.60431,-2.5362 5.33158,-2.93085c2.15018,-0.31114 3.85815,0.41003 5.77265,0.69613c2.38014,0.35569 4.59001,0.35717 6.98727,0.13341c4.60064,-0.42943 11.55797,-0.99615 15.44272,-2.6593c2.10067,-0.89934 2.01123,-2.0702 4.75697,-2.63486c1.94986,-0.40098 4.08864,0.34583 6.12447,0.5498c2.60159,0.26065 7.20934,-1.40033 9.57692,-1.91384c3.068,-1.35432 3.03617,-2.96626 7.77257,-3.16866c1.61723,-0.06911 3.12922,0.69333 4.7468,0.62709c5.88169,-0.24087 12.30439,-2.62351 16.2777,-5.20604c-0.18687,-0.04248 -0.29749,-0.07845 -0.29749,-0.07845l-3.2876,-1.10494c-1.69371,-1.24528 -4.11818,-3.05269 -6.98705,-3.48314c-3.55116,-0.53283 -9.83606,2.41758 -12.15344,3.38794c-4.45849,-2.73653 -11.96596,-5.59881 -18.22007,-2.51274c-3.07303,1.51637 -3.47288,4.38032 -7.85587,5.19777c-2.15026,0.40103 -4.39743,-0.7637 -6.65187,-0.72875c-5.35164,0.08296 -9.36345,3.90362 -14.5939,4.20671c-1.28211,0.0743 -2.47871,-0.42639 -3.74808,-0.55613c-2.86808,-0.29313 -5.35755,-0.05089 -7.99253,0.59189c-2.40585,1.1408 -5.64185,2.49081 -6.70244,4.30892c-1.18374,2.02918 0.98193,3.87607 -4.08107,5.10079c-1.21161,0.29307 -2.2364,-0.86798 -3.51505,-1.03482c-1.39707,-0.1823 -6.32347,1.39467 -7.55821,1.80108c-3.27253,1.07715 -1.75715,3.47671 -4.8922,4.74999c-1.20618,0.48989 -2.95927,-0.10254 -4.3918,0.07716c-5.16558,0.64802 -8.21227,1.94521 -9.24395,4.70911c3.29188,1.04632 6.37881,0.8192 10.24211,0.47304z" fill="#4c463d" stroke-width="0.5"/><path d="M218.03147,157.37303c0,-2 2,-2 2,-2l0.25986,0.21115c1.44465,-0.40106 2.57625,-1.82776 0.12906,-2.71198c-0.56205,-0.20308 -1.19522,0.21633 -1.78758,0.13726c-3.02353,-0.40362 -4.0451,-1.18254 -6.36415,-3.45653c-3.71111,-3.63899 -4.61636,-7.01243 -4.61634,-12.05283c0.19692,-4.26787 0.99851,-8.19062 1.14483,-12.44719c0.02434,-0.70819 0.41125,-1.46079 0.15224,-2.12036c-0.24461,-0.62289 -1.11099,-0.78732 -1.50616,-1.32738c-1.88969,-2.58258 -2.31987,-3.88988 -5.22687,-5.83335c-2.98618,-1.9964 -5.79977,-2.1432 -8.47632,-4.95026c-2.52295,-2.64597 -1.73545,-6.65671 -1.68009,-10.00875c0.0295,-1.78666 0.54744,-3.63144 1.49019,-5.14942c0,0 1.1094,-1.6641 2.7735,-0.5547c1.6641,1.1094 0.5547,2.7735 0.5547,2.7735c-1.29171,1.71656 -0.81839,3.09002 -0.81839,5.2392c0,1.34617 -0.39225,2.72677 -0.08582,4.03759c0.52685,2.25368 4.13047,3.18985 5.83087,3.94939c4.23501,1.89172 6.37684,4.5776 8.8832,8.15795c0.55367,0.79092 1.62611,1.22839 1.95671,2.13549c1.73302,4.75509 -0.79819,11.45469 -0.99368,16.19169c-0.02938,4.69602 1.38947,8.52168 5.80502,11.06156c1.30748,0.75208 3.18288,-0.22254 4.49488,0.52162c2.9278,1.66061 4.98311,4.57881 3.24452,8.09353c-0.53868,1.08898 -2.07697,1.26112 -3.11545,1.89168l-2.04872,0.21115c0,0 -2,0 -2,-2z" fill="#4c463d" stroke-width="0.5"/><path d="M259.59455,158.78724c-0.68836,-0.68836 -0.70661,-1.37673 -0.54401,-1.902c-0.86152,-0.81547 -1.90948,-1.47994 -2.59367,-2.44594c-0.52188,-0.73684 -0.41582,-1.76304 -0.74001,-2.60577c-0.3635,-0.94493 -1.47074,-1.73715 -1.31553,-2.73762c0.18128,-1.16848 1.47306,-1.85078 2.17502,-2.80234c1.56007,-2.11479 3.58645,-3.02929 5.36656,-4.80209c2.92075,-2.90875 4.14872,-7.41471 5.76387,-11.06927c-0.02166,-1.62287 0.66771,-5.93435 0.1114,-7.48968c-0.59162,-1.65403 -2.83569,-2.17744 -3.81474,-3.63596c-0.70604,-1.0518 -1.46618,-2.21291 -1.53181,-3.478c-0.05215,-1.00535 0.97479,-1.78872 1.20779,-2.76809c0.42505,-1.78661 0.44434,-3.78497 1.46658,-5.31063c3.44333,-5.13906 7.1442,-10.91411 7.1371,-17.35568c-0.00147,-1.33333 -0.0996,-2.67039 0,-4c0.04253,-0.56783 0.68679,-1.14996 0.42359,-1.6549c-0.18865,-0.36192 -0.81149,0.08821 -1.21724,0.13232c0,0 -1.94029,-0.48507 -1.45521,-2.42536c0.48507,-1.94029 2.42536,-1.45521 2.42536,-1.45521c1.13331,0.42887 2.69997,0.29748 3.39992,1.28661c0.55911,0.7901 0.42451,7.23442 0.42359,8.11655c-0.00442,4.22426 -1.00227,6.36485 -2.74827,10.12793c-1.16958,2.52074 -1.80554,5.31555 -3.31296,7.65001c-1.01886,1.57785 -2.24865,1.63111 -2.64944,3.4988c-0.16146,0.7524 0.19696,1.56469 0,2.30858c-0.18359,0.69342 -1.02346,1.13594 -1.10079,1.84907c-0.18482,1.70453 4.46708,4.08663 5.04206,5.58323c0.8217,2.13876 0.1349,7.60107 0.1114,9.82467c-1.87252,4.4839 -3.39829,9.62497 -6.93332,13.17082c-1.53426,1.53895 -3.47667,2.92821 -5.02205,4.43223c-0.34574,0.33649 -1.18747,0.18864 -1.28785,0.66053c-0.08529,0.40093 0.80559,0.36073 0.99305,0.72525c0.31306,0.60876 0.01348,1.45646 0.41428,2.01139c0.95507,1.32236 2.53993,2.11336 3.4608,3.45976l-0.82703,3.10076c0,0 -1.41421,1.41421 -2.82843,0z" fill="#4c463d" stroke-width="0.5"/><path d="M237.6631,159.54665c-1.78885,0.89443 -2.68328,-0.89443 -2.68328,-0.89443l-1.24121,-2.50911c-0.48524,-3.24973 -3.17084,-2.14643 -4.63876,-5.83289c-0.12947,-0.32515 -0.10263,-4.61551 -0.10263,-5.24962c0,-5.61767 0.59461,-13.31297 -2.68236,-18.16708c-1.71409,-5.06842 -3.96085,-10.25377 -6.81378,-14.80657c-0.7342,-1.17166 -1.97754,-2.02604 -2.51117,-3.30162c-1.21693,-2.90896 0.62212,-7.06895 -0.07666,-10.09527c-0.42063,-1.82173 -1.53557,-3.47113 -1.75254,-5.32815c-0.06935,-0.59358 0.35005,-1.22913 0.13726,-1.78758c-1.18205,-3.10212 -6.46036,-3.97475 -9.118,-3.95967c0,0 -2,0 -2,-2c0,-2 2,-2 2,-2c4.46899,0.02139 10.69617,1.75912 12.81352,6.42894c0.38995,0.86003 0.01308,1.89348 0.13726,2.82958c0.23414,1.7651 1.33543,3.31982 1.71033,5.06046c0.50487,2.34405 0.10468,5.47489 0.03609,7.8811c-0.01568,0.54992 -0.3525,1.15142 -0.11274,1.64657c0.47153,0.97378 1.52161,1.55929 2.10599,2.46983c2.94727,4.59223 5.34436,10.04095 7.0377,15.20498c3.05777,4.64076 3.07782,11.60547 3.08909,16.99875c0.00346,1.65783 -0.63475,5.29158 -0.10263,6.91045c0.73313,2.23042 2.23553,1.02906 3.70273,2.84387c0.62911,0.77816 0.59522,1.91076 0.89283,2.86614l1.06737,2.10805c0,0 0.89443,1.78885 -0.89443,2.68328z" fill="#4c463d" stroke-width="0.5"/><path d="M243.63699,159.22937c-0.89443,-1.78885 0.89443,-2.68328 0.89443,-2.68328l0.38462,0.10231c0.58022,-0.82935 1.60114,-1.95166 1.43356,-3.11963c-0.18826,-1.3121 -1.8872,-1.99963 -2.26079,-3.27143c-0.54044,-1.83979 -0.17036,-3.83217 -0.3278,-5.74322c-0.55399,-6.72464 -1.44356,-13.96589 3.50522,-19.09157c1.58091,-2.72076 -0.42074,-5.98221 -0.91857,-8.84098c-0.17602,-1.01076 0.44294,-2.10318 0.11615,-3.07572c-0.25997,-0.7737 -1.46183,-0.96104 -1.73144,-1.73144c-0.40236,-1.14972 -0.12388,-2.43333 -0.15224,-3.65109c-0.09934,-4.26553 0.57733,-8.09066 1.82947,-12.16139c0.92939,-3.02148 2.95873,-4.54024 3.38312,-7.85142c0.57753,-4.50597 -0.01829,-9.48603 -0.01829,-14.03875c0,0 0,-2 2,-2c2,0 2,2 2,2c0,6.16305 1.02033,13.10903 -1.23409,18.95755c-0.69997,1.8159 -1.78828,2.32015 -2.32681,4.1696c-1.11404,3.82588 -1.51369,6.98811 -1.6334,10.92441c-0.02154,0.70828 -0.42105,1.46472 -0.15224,2.12036c0.30962,0.7552 1.47494,0.95658 1.73144,1.73144c0.40348,1.21888 -0.12181,2.58834 0.11615,3.85002c0.48014,2.54565 2.17922,5.95748 1.75558,8.67648c-0.18457,1.1846 -1.01324,2.17318 -1.51986,3.25977c-4.3781,4.19872 -3.23113,10.75033 -2.76369,16.42432c0.13452,1.63294 -0.26067,3.33154 0.16967,4.91249c0.38067,1.3985 2.18767,2.21478 2.35637,3.65431c0.35329,3.01462 -0.66441,3.9974 -2.02931,6.11469l-1.92396,1.2566c0,0 -1.78885,0.89443 -2.68328,-0.89443z" fill="#4c463d" stroke-width="0.5"/></g></g></svg>