<svg version="1.1" xmlns="http://www.w3.org/2000/svg" xmlns:xlink="http://www.w3.org/1999/xlink" width="26.54333" height="26.54333" viewBox="0,0,26.54333,26.54333"><g transform="translate(-226.72834,-166.72834)"><g data-paper-data="{&quot;isPaintingLayer&quot;:true}" fill-rule="nonzero" stroke="none" stroke-linecap="butt" stroke-linejoin="miter" stroke-miterlimit="10" stroke-dasharray="" stroke-dashoffset="0" style="mix-blend-mode: normal"><path d="M226.72834,180c0,-7.32971 5.94195,-13.27166 13.27166,-13.27166c7.32971,0 13.27166,5.94195 13.27166,13.27166c0,7.32971 -5.94195,13.27166 -13.27166,13.27166c-7.32971,0 -13.27166,-5.94195 -13.27166,-13.27166z" fill="#a4a4a4" stroke-width="0"/><path d="M228.18122,180c0,-6.52731 5.29147,-11.81878 11.81878,-11.81878c6.52731,0 11.81878,5.29147 11.81878,11.81878c0,6.52731 -5.29147,11.81878 -11.81878,11.81878c-6.52731,0 -11.81878,-5.29147 -11.81878,-11.81878z" fill="#232323" stroke-width="0"/><path d="M250.61201,178.25083c-0.62798,0.31399 -0.94197,-0.31399 -0.94197,-0.31399l-0.24884,-0.50628c-1.95034,-5.2029 -5.69328,-7.00429 -11.08093,-7.00429c0,0 -0.70211,0 -0.70211,-0.70211c0,-0.70211 0.70211,-0.70211 0.70211,-0.70211c5.96738,0 10.24125,2.17246 12.39573,7.91545l0.18999,0.37136c0,0 0.31399,0.62798 -0.31399,0.94197z" fill="#383838" stroke-width="0.5"/><path d="M229.93855,181.60449c0.63219,-0.30544 0.93763,0.32673 0.93763,0.32673l0.24195,0.50961c1.87961,5.22886 5.59779,7.08084 10.98494,7.1539c0,0 0.70204,0.00952 0.69252,0.71156c-0.00952,0.70204 -0.71156,0.69252 -0.71156,0.69252c-5.96683,-0.08091 -10.21085,-2.31112 -12.28727,-8.0828l-0.18493,-0.37389c0,0 -0.30544,-0.63219 0.32673,-0.93763z" fill="#383838" stroke-width="0.5"/></g></g></svg>