<svg version="1.1" xmlns="http://www.w3.org/2000/svg" xmlns:xlink="http://www.w3.org/1999/xlink" width="76.2618" height="50.18243" viewBox="0,0,76.2618,50.18243"><g transform="translate(-202.91532,-156.73506)"><g data-paper-data="{&quot;isPaintingLayer&quot;:true}" fill-rule="nonzero" stroke-linejoin="miter" stroke-miterlimit="10" stroke-dasharray="" stroke-dashoffset="0" style="mix-blend-mode: normal"><path d="" fill="#bd2222" stroke="#bd2222" stroke-width="5" stroke-linecap="round"/><path d="" fill="#bd2222" stroke="#8a1919" stroke-width="1.5" stroke-linecap="round"/><g fill="#ffc43a" stroke="#000000" stroke-width="0" stroke-linecap="butt"><path d="M244.97985,161.0383c6.07697,0.59671 9.3667,2.20436 11.96397,7.98807c0.59818,1.33205 1.69998,2.59841 1.77749,4.12968c0.0359,0.70922 -0.07424,1.30926 -0.30652,1.81438c0.81743,-0.10129 1.55442,-0.03833 2.01912,0.42637c3.55176,3.55176 -2.97369,4.77933 -5.50424,4.77933c-14.1769,0 -17.20479,-0.57414 -26.62655,-0.74397c-1.73923,-0.03135 -3.40294,-0.59534 -5.0345,0.00789c-0.69995,0.25879 -3.90606,1.26192 -4.76753,0.57787c-0.91066,-0.0927 -1.57554,-0.65734 -1.36031,-2.02853c-0.00997,-0.07946 -0.01508,-0.16018 -0.01508,-0.24195c0,-0.33557 0.08618,-0.65366 0.24035,-0.93846c1.244,-4.48298 3.74566,-8.60439 6.22244,-12.64882c0.36775,-0.60051 1.40994,-3.65565 2.28455,-4.30462c1.8816,-1.3962 4.82457,-1.10327 7.03805,-1.4736c1.96965,-0.32953 7.08605,-1.37776 8.87293,0.17457c0.75431,0.65529 1.14288,1.51288 1.10469,2.27767c0.73793,0.06812 1.44042,0.14022 2.09117,0.20411z"/><path d="M262.53826,176.72755c0.15418,0.28481 0.24034,0.60288 0.24034,0.93845c0,0.08177 -0.00513,0.16249 -0.01508,0.24196c0.29188,1.8595 -1.03484,2.23571 -2.3981,1.96312c-1.06728,-0.21341 -2.15695,-0.8245 -2.50986,-1.43286c-2.7218,-4.69192 -3.54942,-11.20406 -7.57263,-15.30479c-0.39214,-0.39971 -2.8965,-0.26849 -3.05712,-0.27559c-2.70349,-0.11956 -4.32414,-0.12071 -7.83481,-0.24309c-2.80897,-0.09792 -2.9912,-2.64502 -1.27071,-4.13967c1.78688,-1.55233 6.90327,-0.5041 8.87293,-0.17457c2.21347,0.37033 5.15645,0.07739 7.03805,1.47359c0.87461,0.64899 1.91679,3.70412 2.28453,4.30463c2.47677,4.04443 4.97844,8.16584 6.22245,12.64882z" data-paper-data="{&quot;index&quot;:null}"/></g><g fill="#e0a00b" stroke="none" stroke-linecap="butt"><path d="M203.31422,192.02055c0,-7.26691 5.15208,-13.1579 11.5075,-13.1579c6.35542,0 11.50751,5.89099 11.50751,13.1579c0,7.26691 -5.15209,13.15789 -11.50751,13.15789c-6.35542,0 -11.5075,-5.89099 -11.5075,-13.15789z" stroke-width="NaN"/><path d="M256.16211,192.08983c0,-7.26691 5.15209,-13.15789 11.50751,-13.15789c6.35542,0 11.5075,5.89099 11.5075,13.15789c0,7.26691 -5.15208,13.15789 -11.5075,13.15789c-6.35542,0 -11.50751,-5.89099 -11.50751,-13.15789z" stroke-width="NaN"/><path d="M213.6387,205.17845v-26.31579h54.20357v26.31579z" stroke-width="0"/></g><g fill="#ffb80e" stroke="none" stroke-linecap="butt"><path d="M206.6221,192.00489c0,-5.72079 4.63761,-10.3584 10.3584,-10.3584c5.72079,0 10.3584,4.63761 10.3584,10.3584c0,5.72079 -4.63761,10.35839 -10.3584,10.35839c-5.72079,0 -10.3584,-4.63761 -10.3584,-10.35839z" stroke-width="NaN"/><path d="M254.19273,192.15702c0,-5.72079 4.63761,-10.35839 10.3584,-10.35839c5.72078,0 10.35839,4.6376 10.35839,10.35839c0,5.72079 -4.63761,10.3584 -10.35839,10.3584c-5.72079,0 -10.3584,-4.63761 -10.3584,-10.3584z" stroke-width="NaN"/><path d="M215.91561,202.36328v-20.71679h48.79094v20.71679z" stroke-width="0"/></g><g fill="#f3ae0c" stroke="none" stroke-linecap="butt"><path d="M210.38141,199.48374c0,-1.67038 4.17036,-3.02448 9.31475,-3.02448c5.1444,0 9.31475,1.35411 9.31475,3.02448c0,1.67038 -4.17035,3.02448 -9.31475,3.02448c-5.1444,0 -9.31475,-1.3541 -9.31475,-3.02448z" stroke-width="NaN"/><path d="M253.15912,199.52816c0,-1.67038 4.17035,-3.02448 9.31475,-3.02448c5.14439,0 9.31474,1.35411 9.31474,3.02448c0,1.67038 -4.17035,3.02448 -9.31474,3.02448c-5.1444,0 -9.31475,-1.3541 -9.31475,-3.02448z" stroke-width="NaN"/><path d="M218.73856,202.50822v-6.04896h43.87507v6.04896z" stroke-width="0"/></g><path d="M210.91534,192.05463c0,-5.03704 4.08332,-9.12035 9.12035,-9.12035c5.03704,0 9.12035,4.08332 9.12035,9.12035c0,5.03704 -4.08331,9.12036 -9.12035,9.12036c-5.03704,0 -9.12035,-4.08332 -9.12035,-9.12036z" fill="#e0a00b" stroke="none" stroke-width="0" stroke-linecap="butt"/><path d="M250.86249,191.94041c0,-5.03704 4.08332,-9.12035 9.12036,-9.12035c5.03703,0 9.12035,4.08332 9.12035,9.12035c0,5.03704 -4.08332,9.12035 -9.12035,9.12035c-5.03704,0 -9.12036,-4.08332 -9.12036,-9.12035z" fill="#e0a00b" stroke="none" stroke-width="0" stroke-linecap="butt"/><path d="M230.80283,191.99666c0,-5.03704 4.08332,-9.12035 9.12035,-9.12035c5.03704,0 9.12036,4.08332 9.12036,9.12035c0,5.03704 -4.08332,9.12036 -9.12036,9.12036c-5.03704,0 -9.12035,-4.08332 -9.12035,-9.12036z" fill="#e0a00b" stroke="none" stroke-width="0" stroke-linecap="butt"/><path d="M214.74132,191.96723c0,-2.94778 2.38964,-5.33741 5.33741,-5.33741c2.94778,0 5.33741,2.38964 5.33741,5.33741c0,2.94778 -2.38964,5.33742 -5.33741,5.33742c-2.94778,0 -5.33741,-2.38965 -5.33741,-5.33742z" fill="#ffc43a" stroke="none" stroke-width="0" stroke-linecap="butt"/><path d="M234.74263,192.27117c0,-2.94778 2.38964,-5.33741 5.33741,-5.33741c2.94778,0 5.33741,2.38964 5.33741,5.33741c0,2.94778 -2.38964,5.33742 -5.33741,5.33742c-2.94778,0 -5.33741,-2.38965 -5.33741,-5.33742z" fill="#ffc43a" stroke="none" stroke-width="0" stroke-linecap="butt"/><path d="M255.00482,192.31421c0,-2.94778 2.38964,-5.33741 5.33741,-5.33741c2.94778,0 5.33741,2.38964 5.33741,5.33741c0,2.94778 -2.38964,5.33742 -5.33741,5.33742c-2.94778,0 -5.33741,-2.38964 -5.33741,-5.33742z" fill="#ffc43a" stroke="none" stroke-width="0" stroke-linecap="butt"/><path d="M224.12938,194.41649c-1.25,0 -1.25,-1.25 -1.25,-1.25v-0.25716c0.00144,-2.77198 -0.24822,-3.65148 -3.2074,-3.63599c0,0 -1.25,0 -1.25,-1.25c0,-1.25 1.25,-1.25 1.25,-1.25c4.2989,0.01856 5.70539,2.03307 5.7074,6.13599v0.25716c0,0 0,1.25 -1.25,1.25z" fill="#ffd268" stroke="none" stroke-width="0.5" stroke-linecap="butt"/><path d="M244.22233,194.44685c-1.25,0 -1.25,-1.25 -1.25,-1.25v-0.25715c0.00144,-2.77197 -0.24822,-3.65148 -3.20739,-3.636c0,0 -1.25,0 -1.25,-1.25c0,-1.25 1.25,-1.25 1.25,-1.25c4.2989,0.01856 5.70538,2.03307 5.70739,6.136v0.25715c0,0 0,1.25 -1.25,1.25z" fill="#ffd268" stroke="none" stroke-width="0.5" stroke-linecap="butt"/><path d="M264.40729,194.84535c-1.25,0 -1.25,-1.25 -1.25,-1.25v-0.25715c0.00144,-2.77197 -0.24822,-3.65148 -3.20739,-3.636c0,0 -1.25,0 -1.25,-1.25c0,-1.25 1.25,-1.25 1.25,-1.25c4.2989,0.01856 5.70538,2.03307 5.70739,6.136v0.25715c0,0 0,1.25 -1.25,1.25z" fill="#ffd268" stroke="none" stroke-width="0.5" stroke-linecap="butt"/><g fill="#f5bc38" stroke="none" stroke-linecap="butt"><path d="M217.67998,176.05403c0,-1.67038 3.07763,-3.02448 6.87409,-3.02448c3.79646,0 6.87409,1.35411 6.87409,3.02448c0,1.67038 -3.07763,3.02448 -6.87409,3.02448c-3.79646,0 -6.87409,-1.3541 -6.87409,-3.02448z" stroke-width="NaN"/><path d="M249.24901,176.09845c0,-1.67038 3.07763,-3.02448 6.87408,-3.02448c3.79645,0 6.87408,1.35411 6.87408,3.02448c0,1.67038 -3.07763,3.02448 -6.87408,3.02448c-3.79646,0 -6.87408,-1.3541 -6.87408,-3.02448z" stroke-width="NaN"/><path d="M223.84738,179.07851v-6.04896h32.37886v6.04896z" stroke-width="0"/></g><path d="M220.29383,169.90428c0.79635,-0.61035 1.28128,-3.6477 1.8628,-4.76743c2.75655,-5.30786 5.93605,-7.76706 12.07469,-7.91286c0.00828,-0.0002 0.01659,-0.00042 0.02491,-0.00068c0.07488,0.01512 0.15219,0.02355 0.23127,0.02463c0.00587,0.00003 0.01169,0.00007 0.01745,0.00012c1.92047,0.01778 3.84104,0.02926 5.76163,0.03401c1.38459,1.42115 1.35568,2.33348 -0.08671,3.77587c-0.86315,0.86315 -2.43112,0.25441 -3.6516,0.27598c-3.48147,0.06153 -6.27157,0.2717 -8.62213,2.70883c-2.24194,2.3245 -6.07371,12.16146 -7.23279,14.95973c-0.37919,0.91544 -3.31028,3.46559 -4.32233,1.69449c-0.65074,-0.38405 -1.08728,-1.09242 -1.08728,-1.90274c0,-0.78803 0.41286,-1.47962 1.03406,-1.87031c1.43024,-2.60346 3.75072,-6.83165 3.99602,-7.01965z" fill="#e0a00b" stroke="none" stroke-width="0.5" stroke-linecap="butt"/><path d="M263.82399,176.65185c0.62121,0.39068 1.03406,1.08228 1.03406,1.87031c0,0.81032 -0.43654,1.51869 -1.08728,1.90274c-1.01205,1.7711 -3.94315,-0.77906 -4.32233,-1.6945c-1.15908,-2.79827 -4.99085,-12.63522 -7.23279,-14.95972c-2.35056,-2.43713 -5.14066,-2.6473 -8.62213,-2.70883c-1.22048,-0.02157 -2.78845,0.58716 -3.6516,-0.27598c-1.34891,-1.34891 -1.46161,-2.23424 -0.3381,-3.50569c3.08771,0.01012 6.17549,0.00295 9.26305,-0.02332c0.0535,0.00711 0.10672,0.01387 0.15963,0.02025c4.17135,0.83454 6.69509,3.26756 8.93867,7.58766c0.58151,1.11973 1.06645,4.15708 1.8628,4.76744c0.24531,0.18801 2.56578,4.41619 3.99602,7.01965z" data-paper-data="{&quot;index&quot;:null}" fill="#e0a00b" stroke="none" stroke-width="0.5" stroke-linecap="butt"/><path d="M254.25068,163.78084c-0.2236,0.44721 -0.67083,0.22361 -0.67083,0.22361l-0.18107,-0.09247c-2.78709,-1.12305 -5.42675,-1.5412 -8.25089,-2.38562c-1.58196,-0.03556 -3.18258,0.01253 -4.81207,0.01253c-4.28577,0 -8.13298,0.86109 -12.26971,1.74116c0,0 -0.48927,0.103 -0.59228,-0.38627c-0.103,-0.48927 0.38627,-0.59228 0.38627,-0.59228c0.38639,-0.08041 0.77029,-0.1609 1.15226,-0.2408c-0.12362,-0.34195 0.2063,-0.56189 0.2063,-0.56189c3.08015,-2.04083 7.39774,-1.10749 10.87739,-1.39746c4.38387,-0.00304 9.00746,0.4461 13.37394,0.87799l0.05974,-0.00249c0,0 0.5,0 0.5,0.5c0,0.5 -0.5,0.5 -0.5,0.5l-0.15924,-0.00248c-0.24538,-0.02483 -0.49162,-0.04965 -0.73862,-0.07439c0.08003,0.10282 0.13092,0.25401 0.05212,0.46413c-0.0286,0.07628 -0.06498,0.13546 -0.10583,0.18111c0.39534,0.13469 0.79242,0.27977 1.19202,0.43826l0.25689,0.12651c0,0 0.44721,0.22361 0.22361,0.67082zM231.33352,161.58458c0.78583,-0.1556 1.56839,-0.3024 2.35289,-0.43408c-0.81693,0.06426 -1.61086,0.19291 -2.35289,0.43408z" fill="#e0a00b" stroke="none" stroke-width="0.5" stroke-linecap="butt"/><path d="M209.28213,183.86997c0.16778,3.14873 -0.13098,3.18653 -0.13098,3.18653l-0.38246,0.0484c-1.76793,0.19676 -3.56511,0.00031 -5.33569,0.22439c0,0 -0.29877,0.03781 -0.46654,-3.11092c-0.16778,-3.14873 0.13099,-3.18653 0.13099,-3.18653c1.77015,-0.22403 3.57134,0.02864 5.3357,-0.22441l0.38245,-0.0484c0,0 0.29876,-0.0378 0.46654,3.11093z" fill="#fc9b2d" stroke="none" stroke-width="0.5" stroke-linecap="butt"/><path d="M279.13324,184.8969c0.05412,3.15914 -0.24462,3.17138 -0.24462,3.17138l-0.38243,0.01566c-1.76685,0.04547 -3.54869,-0.30426 -5.31915,-0.23174c0,0 -0.29875,0.01225 -0.35288,-3.14689c-0.05412,-3.15914 0.24462,-3.17138 0.24462,-3.17138c1.77003,-0.07252 3.55385,0.33372 5.31916,0.23174l0.38243,-0.01567c0,0 0.29874,-0.01225 0.35286,3.14689z" fill="#fcbb71" stroke="none" stroke-width="0.5" stroke-linecap="butt"/><path d="M240.01205,166.8874c0.408,-0.25394 0.86669,0.48304 0.86669,0.48304c1.25762,2.07829 2.96375,3.80204 4.43768,5.68118c0.11533,0.1805 0.23101,0.36075 0.34624,0.54115c0.23269,0.3643 0.60889,0.78106 1.02124,1.15651c0.06016,0.18132 0.06711,0.31728 0.06711,0.31728l-0.01505,0.11573c0.17843,0.69844 0.92779,2.83088 0.71339,3.24789c-0.19837,0.38582 -3.03622,-0.48121 -3.50642,-0.8595c-1.6833,-1.35427 -3.80338,-5.2759 -5.31954,-7.17778c-0.13774,-0.08772 -0.29218,-0.24557 -0.43698,-0.52519c-0.39638,-0.76548 0.07239,-0.91264 0.07239,-0.91264c0.67962,-0.20013 0.8066,-0.81808 1.22266,-1.34542c0.00849,-0.13965 0.06145,-0.43693 0.36162,-0.37553c-0.00229,-0.13813 0.04012,-0.26651 0.16898,-0.34671z" fill="#cfcfcf" stroke="none" stroke-width="0.5" stroke-linecap="butt"/><path d="M238.8201,168.84753c-0.10545,0.09052 -0.20887,0.15445 -0.30888,0.19733c-0.76988,0.70721 -1.29573,1.74427 -1.44778,3.16016c0,0 -0.12058,1.01694 -1.13752,0.89636c-1.01694,-0.12058 -0.89636,-1.13752 -0.89636,-1.13752c0.21306,-1.67593 0.82164,-3.00449 1.70724,-3.9926c-0.94686,-1.15548 -2.51022,-3.15082 -2.36387,-3.54008c1.46784,-3.90405 4.06059,0.62939 4.98108,1.72024l0.04796,0.07443c1.50252,-0.51963 3.26126,-0.56282 5.07502,-0.14128l0.23412,0.05449c0,0 0.99741,0.23214 0.76526,1.22955c-0.23214,0.99741 -1.22955,0.76526 -1.22955,0.76526l-0.23412,-0.05449c-1.87148,-0.43625 -3.6963,-0.30062 -5.01257,0.5812c-0.0488,0.06279 -0.10825,0.12534 -0.18002,0.18695z" fill="#cfcfcf" stroke="none" stroke-width="0.5" stroke-linecap="butt"/><path d="M212.00635,206.91748v-3.74217h58.12836v3.74217z" fill="#b07b00" stroke="none" stroke-width="0" stroke-linecap="butt"/><g data-paper-data="{&quot;index&quot;:null}" fill="#ff3b3b" stroke="#000000" stroke-width="0" stroke-linecap="butt"><path d="M257.69313,159.76228c0.15118,0.17604 0.31499,0.36567 0.48554,0.56583c0.14171,-0.11165 0.39248,-0.11458 0.68158,0.01281c0.68484,0.30179 1.56958,1.89018 1.92465,2.4919c0.39905,0.67621 1.08346,1.47173 1.21081,2.18913c0.05921,0.33346 -0.3173,1.03165 -0.3566,1.21505c-0.26466,1.23526 -0.53907,2.48774 -1.15231,3.43138c-0.02294,0.08124 -0.06689,0.14761 -0.13263,0.19185c-0.016,0.01078 -0.03292,0.01996 -0.05061,0.02761c-0.22279,0.24181 -0.47505,0.12778 -0.68725,-0.11811c-0.31756,-0.15399 -0.80412,-1.19496 -0.90254,-1.42746c-0.22944,-0.54196 -0.69439,-0.93916 -1.07108,-1.42799c-2.04066,-2.6481 -2.79825,-3.43062 -5.81875,-7.44887c-0.53916,-0.71726 -1.68893,-2.72866 -0.23638,-2.19024c0.19005,0.07045 0.35941,0.27103 0.51371,0.51609c0.04949,-0.13242 0.14356,-0.24275 0.29015,-0.3261c0.31652,-0.17991 0.79934,-0.03458 1.18776,-0.04067c1.68647,-0.02638 2.7023,0.69408 4.11396,2.33785z"/><path d="M250.87848,156.85417c1.14334,-0.23844 2.48377,-0.0728 3.80381,0.09598c0.196,0.02506 1.01658,-0.08235 1.33006,0.07997c0.67442,0.34923 1.24405,1.22198 1.7882,1.80054c0.4842,0.51484 1.77966,1.82681 1.85626,2.53794c0.07374,0.68473 -0.46409,0.96887 -1.08175,0.18563c-0.77195,-0.97889 -1.11746,-1.43811 -1.71688,-2.18861c-0.0356,-0.04457 -0.54346,-0.77171 -0.70532,-0.83017c-1.66055,-0.59967 -3.11269,0.02435 -4.61178,-0.12849c-0.19436,-0.01981 -0.54626,-0.24812 -0.81545,-0.52248c-0.34385,-0.35047 -0.55281,-0.77611 -0.12633,-0.93853c0.01343,-0.0133 0.02815,-0.0254 0.04418,-0.03618c0.06574,-0.04424 0.14642,-0.06173 0.23505,-0.05559z" data-paper-data="{&quot;index&quot;:null}"/></g><g data-paper-data="{&quot;index&quot;:null}" fill="#ff6e3b" stroke="#000000" stroke-width="0" stroke-linecap="butt"><path d="M221.95548,160.2429c1.41166,-1.64377 2.4275,-2.36422 4.11397,-2.33784c0.38842,0.00609 0.87123,-0.13925 1.18775,0.04067c0.14659,0.08335 0.24067,0.19367 0.29015,0.3261c0.15431,-0.24506 0.32367,-0.44564 0.51372,-0.51609c1.45255,-0.53841 0.30277,1.47298 -0.23638,2.19024c-3.0205,4.01826 -3.77809,4.80077 -5.81875,7.44888c-0.37669,0.48883 -0.84163,0.88602 -1.07107,1.42798c-0.09842,0.23251 -0.58499,1.27347 -0.90255,1.42747c-0.2122,0.24589 -0.46447,0.35992 -0.68725,0.11811c-0.0177,-0.00764 -0.03461,-0.01683 -0.05061,-0.02761c-0.06574,-0.04424 -0.10969,-0.11061 -0.13263,-0.19185c-0.61323,-0.94364 -0.88765,-2.19611 -1.15231,-3.43138c-0.03929,-0.1834 -0.4158,-0.88159 -0.35659,-1.21505c0.12735,-0.7174 0.81176,-1.51291 1.21081,-2.18912c0.35507,-0.60172 1.23981,-2.19011 1.92465,-2.49191c0.28909,-0.12739 0.53987,-0.12447 0.68158,-0.01281c0.17055,-0.20016 0.33435,-0.38978 0.48554,-0.56582z"/><path d="M228.77013,157.33474c0.08864,-0.00614 0.16931,0.01135 0.23505,0.0556c0.01603,0.01078 0.03075,0.02288 0.04418,0.03618c0.42647,0.16243 0.21751,0.58806 -0.12634,0.93853c-0.26919,0.27436 -0.62109,0.50267 -0.81545,0.52248c-1.49909,0.15284 -2.95122,-0.47118 -4.61177,0.12849c-0.16186,0.05846 -0.66973,0.7856 -0.70532,0.83017c-0.59943,0.7505 -0.94493,1.20972 -1.71688,2.18861c-0.61766,0.78324 -1.15548,0.4991 -1.08175,-0.18563c0.0766,-0.71113 1.37206,-2.0231 1.85626,-2.53794c0.54415,-0.57855 1.11377,-1.45131 1.7882,-1.80054c0.31347,-0.16232 1.13406,-0.05491 1.33005,-0.07997c1.32004,-0.16878 2.66048,-0.33441 3.80381,-0.09598z" data-paper-data="{&quot;index&quot;:null}"/></g></g></g></svg>