<svg version="1.1" xmlns="http://www.w3.org/2000/svg" xmlns:xlink="http://www.w3.org/1999/xlink" width="71.93806" height="107.39341" viewBox="0,0,71.93806,107.39341"><g transform="translate(-202.28924,-120.0916)"><g data-paper-data="{&quot;isPaintingLayer&quot;:true}" fill-rule="nonzero" stroke-linejoin="miter" stroke-miterlimit="10" stroke-dasharray="" stroke-dashoffset="0" style="mix-blend-mode: normal"><path d="M259.26946,177.69166c0.03843,0.23342 -0.17314,0.26824 -0.17314,0.26824c-1.37783,0.22681 -2.81471,0.46334 -4.19253,0.69015c-0.70668,0.11633 -1.42744,0.39317 -2.1412,0.41759c-0.52227,0.01787 -1.04996,-0.0618 -1.56604,0.09c-0.31805,0.09355 -0.58449,0.26319 -0.91744,0.32062c0,0 -0.21157,0.03483 -0.24999,-0.19859c-0.03842,-0.23342 0.17315,-0.26824 0.17315,-0.26824c0.31081,-0.04812 0.56157,-0.21939 0.85949,-0.30645c0.55478,-0.16213 1.1147,-0.09011 1.67627,-0.10917c0.69423,-0.02357 1.40059,-0.29926 2.08893,-0.41258c1.37783,-0.22681 2.75566,-0.45363 4.13348,-0.68044l0.05905,-0.00972c0,0 0.21157,-0.03483 0.24999,0.19859z" fill="#9d4400" stroke="none" stroke-width="0.5" stroke-linecap="butt"/><path d="M265.17445,176.71961c0.03843,0.23342 -0.17314,0.26824 -0.17314,0.26824c-0.67907,0.11178 -1.38767,0.22843 -2.06674,0.34022c0,0 -0.21157,0.03483 -0.24999,-0.19859c-0.03843,-0.23342 0.17314,-0.26824 0.17314,-0.26824c0.67907,-0.11178 1.35815,-0.22358 2.03721,-0.33536l0.02953,-0.00485c0,0 0.21157,-0.03483 0.24999,0.19858z" fill="#9d4400" stroke="none" stroke-width="0.5" stroke-linecap="butt"/><g><path d="M262.97218,175.33247c-0.25582,0.2373 -0.49921,0.26663 -0.69996,0.2154c-0.25538,0.10082 -0.56932,0.09987 -0.83536,0.17399c-0.21051,0.05865 -0.42874,0.10366 -0.65031,0.14124c-1.08233,0.67183 -1.94373,1.4486 -3.2903,0.9238l-0.3897,-0.04145c-0.29447,-0.02425 -0.56085,-0.21361 -0.70639,-0.49438c-0.07111,0.05976 -0.12403,0.09985 -0.14796,0.10929c-1.20927,0.47692 -2.03838,0.72218 -1.82096,-1.38083c0.04235,-0.40955 0.45051,-0.64854 0.69462,-0.95534c0.25902,-0.32555 0.56499,-0.57694 0.88428,-0.80491c-0.83284,0.33588 -1.79037,0.61091 -2.34,-0.55229c-0.22672,0.2659 -0.57376,0.60547 -0.94242,0.77741c0.0494,0.22504 0.02378,0.49958 -0.20383,0.78489c-0.55766,0.69904 -1.21251,0.06466 -1.21251,0.06466c-0.26515,-0.27001 -0.58737,-0.48577 -0.79547,-0.81003c-0.15114,-0.23552 -0.25028,-0.52195 -0.32265,-0.82064c-0.30343,-0.2717 -0.36406,-0.73972 -0.2588,-1.48302c-0.1523,-0.91486 -0.30277,-1.83012 -0.45115,-2.74559c-0.15282,-0.94285 -0.30743,-1.89818 0.23529,-2.73005c1.06004,-1.62477 3.4035,-1.50403 5.04703,-1.77458c0.92869,-0.15287 1.90589,-0.32914 2.84726,-0.20109l0.44299,-0.07292c0.46738,-0.07694 0.9151,0.27869 0.99998,0.79434c0.04643,0.28207 -0.02533,0.55358 -0.17637,0.75428l-0.45366,0.60945c0.02694,0.35773 -0.34327,0.66423 -0.45612,1.01577c-0.1236,0.38504 -0.13575,0.81454 -0.29005,1.1851c-0.37982,0.91213 -0.9362,1.71823 -1.38913,2.58735c-0.11228,0.21544 -0.22904,0.42791 -0.3442,0.64146c0.38101,-0.14242 0.76757,-0.2688 1.15739,-0.38098c0.46711,-0.09229 1.05108,-0.64495 1.40133,-0.27687c0.01857,0.01951 0.03618,0.03964 0.05287,0.06036c0.05745,-0.06736 0.11537,-0.13446 0.17361,-0.20139c0.28384,-0.52359 0.56464,-1.01826 0.76472,-1.6069c0.11579,-0.34063 0.36048,-1.59436 0.60249,-1.79855c0.41897,-0.35351 0.98566,-0.79775 1.49663,-0.59983c0.78958,0.30582 0.63539,1.47639 0.56177,2.14973c0.05982,0.10353 0.10275,0.22086 0.12366,0.34788l0.08579,0.5211c0.20038,1.25729 0.27935,2.56192 0.38481,3.82924c0.00158,0.01896 0.00335,0.03786 0.00528,0.0567c0.08927,0.25129 0.16438,0.48748 0.22271,0.65868l0.07221,0.00079c0,0 0.56719,0.72892 -0.07941,1.32874z" fill="#8f3e15" stroke="none" stroke-width="0.5" stroke-linecap="butt"/><path d="M261.79801,166.52395c0.33145,2.01349 0.6339,4.0383 1.06382,6.03225c0.18658,0.64812 0.48039,1.50218 0.19458,2.16145c-0.34886,0.80472 -1.46175,0.97656 -2.15167,1.09107c-2.03233,0.33731 -4.06557,0.66926 -6.09836,1.00388c0,0 -0.06789,0.01117 -0.15543,-0.00505c-0.08542,0.1044 -0.29031,0.28402 -0.57636,0.07438c-0.38304,-0.28072 -0.14552,-0.69797 -0.14552,-0.69797c0.52731,-0.92572 0.99148,-2.04045 1.76135,-2.75588c0.25832,-0.24005 0.57597,-0.39803 0.82144,-0.65419c0.67685,-0.70636 1.13095,-1.64328 1.76651,-2.39787c0.59715,-0.70896 1.141,-1.30755 1.56508,-2.17333c0.37329,-0.76117 0.70562,-1.54351 1.07748,-2.30337l0.1743,-0.32823c0,0 0.22623,-0.42526 0.61604,-0.15684c0.3898,0.26843 0.16357,0.69369 0.16357,0.69369l-0.08673,0.16273zM260.28,174.88944c0.47487,-0.07817 0.96648,-0.10666 1.41443,-0.30165c0.01268,-0.00553 0.51046,-0.24284 0.55366,-0.34845c0.15056,-0.36812 -0.15466,-1.10442 -0.25335,-1.44444c-0.36037,-1.66778 -0.63353,-3.35625 -0.90676,-5.04252c-0.14677,0.32101 -0.29478,0.64151 -0.45002,0.95805c-0.46037,0.93764 -1.04593,1.60172 -1.69287,2.36968c-0.52237,0.62009 -0.91147,1.33752 -1.40798,1.97684c-0.38038,0.48979 -0.8124,0.75303 -1.25058,1.14978c-0.43084,0.3901 -0.75561,0.94812 -1.05198,1.51327c1.68182,-0.27686 3.36362,-0.55371 5.04544,-0.83056z" fill="#763312" stroke="none" stroke-width="0.5" stroke-linecap="butt"/><path d="M251.2429,174.87012c-0.45647,0.03201 -0.50194,-0.47801 -0.50194,-0.47801c-0.04546,-0.51352 -0.06682,-1.12717 -0.21712,-1.62533c-0.11702,-0.3879 -0.32987,-0.74033 -0.42857,-1.13383c-0.28716,-1.14494 -0.39424,-2.38353 -0.58628,-3.55009c-0.1429,-0.86805 -0.58275,-1.92854 0.20106,-2.55466c0.33931,-0.27104 1.28325,-0.25078 1.70656,-0.32046c1.80202,-0.29664 3.67053,-0.64126 5.50817,-0.53061l0.47978,-0.07898v0c0.24914,-0.04101 0.48836,0.15211 0.53433,0.43135c0.01953,0.11864 0.00104,0.23373 -0.0458,0.33002l-0.24734,0.52064l-0.01271,-0.00786c-0.01162,0.03099 -0.02416,0.06159 -0.03776,0.0917c-0.09903,0.21943 -0.34889,0.43158 -0.61226,0.62711c0.15961,0.30791 -0.07511,0.58175 -0.07511,0.58175l-0.33391,0.389c-0.84069,0.83682 -1.30665,1.73361 -1.91337,2.76635c-0.47441,0.80751 -1.11785,1.5381 -1.72591,2.23114c-0.02735,0.07115 -0.05522,0.14186 -0.08373,0.21202c-0.20917,0.51472 -0.48373,0.97186 -0.68825,1.49039l-0.04,0.02882l0.0162,0.01308l-0.26645,0.41998c-0.06658,0.10494 -0.17003,0.18009 -0.2946,0.20059c-0.10307,0.01697 -0.20446,-0.00614 -0.29116,-0.05885c-0.01408,0.00208 -0.0287,0.00367 -0.04386,0.00474zM251.46797,172.76945c0.19657,-0.35111 0.46814,-0.68099 0.75293,-0.99191c0.36432,-0.9973 0.67793,-2.03765 1.25548,-2.89817c0.46743,-0.69643 1.1664,-1.45498 1.73203,-2.05604c0.22256,-0.2365 0.67556,-0.78959 1.11804,-1.14238c-1.59022,0.0011 -3.18601,0.28166 -4.74335,0.53802c-0.42913,0.07064 -0.9655,0.05772 -1.37396,0.18664c-0.13756,0.04342 -0.00235,0.32441 0.02987,0.48246c0.10892,0.53437 0.17836,1.08353 0.26695,1.62171c0.15606,0.948 0.24305,1.95333 0.47295,2.88444c0.09375,0.37966 0.30635,0.71655 0.41709,1.09113c0.02725,0.09219 0.05104,0.18716 0.072,0.28408z" fill="#763312" stroke="none" stroke-width="0.5" stroke-linecap="butt"/><path d="M259.32273,162.95866l2.79102,2.34048l-8.86476,13.13624l-2.79101,-2.34048z" fill="#af4c00" stroke="none" stroke-width="0" stroke-linecap="butt"/><path d="M247.80916,166.68972l-0.36794,-2.23514l15.38791,-2.53308l0.36794,2.23514z" fill="#af4c00" stroke="none" stroke-width="0" stroke-linecap="butt"/><path d="M249.95044,179.73329l-0.38081,-2.31333l15.3879,-2.53309l0.38081,2.31333z" fill="#af4c00" stroke="none" stroke-width="0" stroke-linecap="butt"/><path d="M247.75603,166.4969l2.29216,-0.37732l1.82004,11.05633l-2.29216,0.37732z" fill="#af4c00" stroke="none" stroke-width="0" stroke-linecap="butt"/><path d="M261.05057,164.30841l2.09686,-0.34518l1.82004,11.05633l-2.09686,0.34517z" fill="#af4c00" stroke="none" stroke-width="0" stroke-linecap="butt"/><path d="M247.44856,164.50344l-0.1089,-0.66149l15.36738,-2.52971l0.10889,0.66149z" fill="#a24600" stroke="none" stroke-width="0" stroke-linecap="butt"/><path d="M249.66772,165.53604c0.03842,0.23342 -0.17315,0.26824 -0.17315,0.26824c-0.44738,0.07364 -1.00358,0.16521 -1.45097,0.23886c0,0 -0.21157,0.03483 -0.24999,-0.19859c-0.03842,-0.23342 0.17314,-0.26824 0.17314,-0.26824c0.44738,-0.07364 0.89477,-0.1473 1.34215,-0.22094l0.10882,-0.01791c0,0 0.21157,-0.03483 0.24999,0.19859z" fill="#9d4400" stroke="none" stroke-width="0.5" stroke-linecap="butt"/><path d="M262.85506,163.48852c0.03843,0.23342 -0.17315,0.26825 -0.17315,0.26825c-0.88268,0.1453 -2.01928,0.3324 -2.90195,0.4777c-1.5598,0.25677 -3.11959,0.51353 -4.67939,0.7703c0,0 -0.21157,0.03483 -0.24999,-0.19859c-0.03843,-0.23342 0.17315,-0.26824 0.17315,-0.26824c1.5598,-0.25677 3.1196,-0.51353 4.67939,-0.7703c0.88268,-0.1453 1.76535,-0.29061 2.64802,-0.43591l0.25392,-0.0418c0,0 0.21157,-0.03483 0.25,0.19859z" fill="#9d4400" stroke="none" stroke-width="0.5" stroke-linecap="butt"/><path d="M251.58044,176.70278c0.03842,0.23342 -0.17315,0.26824 -0.17315,0.26824c-0.45947,0.07564 -0.95522,0.15724 -1.41469,0.23288c0,0 -0.21157,0.03483 -0.25,-0.19859c-0.03842,-0.23342 0.17315,-0.26825 0.17315,-0.26825c0.45947,-0.07564 0.91895,-0.15127 1.37842,-0.2269l0.03627,-0.00597c0,0 0.21157,-0.03483 0.25,0.19858z" fill="#9d4400" stroke="none" stroke-width="0.5" stroke-linecap="butt"/><path d="M264.6689,174.50712c0.03843,0.23342 -0.17315,0.26824 -0.17315,0.26824c-0.22974,0.03782 -0.53202,0.08758 -0.76176,0.1254c0,0 -0.21157,0.03483 -0.24999,-0.19859c-0.03843,-0.23342 0.17315,-0.26825 0.17315,-0.26825c0.22974,-0.03782 0.45947,-0.07563 0.68921,-0.11345l0.07255,-0.01194c0,0 0.21157,-0.03483 0.24999,0.19859z" fill="#9d4400" stroke="none" stroke-width="0.5" stroke-linecap="butt"/><path d="M260.549,166.32049c0.00572,-0.07179 0.03801,-0.17734 0.17481,-0.19986c0.21157,-0.03483 0.24998,0.19859 0.24998,0.19859l-0.02821,0.21526c-1.02085,1.57734 -2.07686,3.17371 -3.10692,4.76099c-0.26731,0.27116 -0.39671,0.63279 -0.63237,0.92871c-0.58177,0.73051 -1.16773,1.51317 -1.68792,2.3163c-0.2241,0.34599 -0.36592,0.6604 -0.65622,0.95836c0,0 -0.15472,0.15845 -0.30405,-0.01644c-0.14933,-0.17488 0.0054,-0.33335 0.0054,-0.33335c0.27367,-0.27956 0.39258,-0.56501 0.60379,-0.8932c0.5262,-0.81762 1.12375,-1.61339 1.71604,-2.35439c0.2334,-0.29199 0.36365,-0.6501 0.62764,-0.92286c0.99908,-1.55847 2.0414,-3.11158 3.03802,-4.65813z" fill="#9d4400" stroke="none" stroke-width="0.5" stroke-linecap="butt"/><path d="M253.67888,162.85062l-3.50827,-12.20825" fill="none" stroke="#525252" stroke-width="2.5" stroke-linecap="round"/><path d="M257.19129,162.27426l-0.28458,-12.38918" fill="none" stroke="#525252" stroke-width="2.5" stroke-linecap="round"/><g stroke="none" stroke-width="0.5" stroke-linecap="butt"><path d="M242.95717,149.99399c-0.0008,0.0103 -0.00186,0.02082 -0.00324,0.03158c-0.05579,0.43652 -0.4923,0.38074 -0.4923,0.38074c-0.25331,-0.04038 -0.52743,-0.01279 -0.75994,-0.12113c-0.54241,-0.25273 -0.83702,-1.01905 -1.06772,-1.51764c-0.59035,-1.27586 -0.40338,-2.89505 -0.22249,-4.23628c0.04381,-0.32485 -0.11332,-0.66286 -0.04084,-0.98253c0.04144,-0.18279 0.20087,-0.32062 0.26035,-0.49837c0.16472,-0.49231 0.26237,-0.96882 0.4667,-1.46119c0.59626,-1.43633 1.73665,-2.32578 3.03574,-3.12655c0.48535,-0.29917 0.84864,-0.69968 1.29137,-1.0397c1.34835,-1.03556 3.13386,-1.61192 4.76817,-1.93031c0.36737,-0.01977 0.72164,0.0195 1.07703,0.04945c0.06283,-0.09177 0.16026,-0.15992 0.27799,-0.18313l0.51821,-0.10216l0.00528,0.02679l0.05543,-0.03442c0.39886,0.03111 0.67335,0.04286 0.94636,0.07932c0.02073,-0.00459 0.04125,-0.00898 0.06153,-0.01311l-0.00444,-0.06302l0.52516,-0.03698c0.06925,-0.00589 0.13684,0.00485 0.19838,0.02921c0.13747,-0.02869 0.2751,-0.05841 0.41376,-0.08532c0.8775,-0.17029 1.49179,0.1055 2.34478,0.2348c0.2803,0.04248 0.56571,-0.03875 0.84888,-0.05254c0.96031,-0.04675 2.50088,0.21035 3.30757,0.76248c0.435,0.29773 0.54728,0.77135 1.00989,1.07057c0.33035,0.22297 0.7251,0.45149 0.94108,0.80228c0.16557,0.26892 0.04044,0.62499 0.2697,0.87213c0.24178,0.26064 0.6128,0.39148 0.82338,0.67792c0.31236,0.42493 0.49028,1.00605 0.72126,1.47781c0.4239,0.86581 0.92426,1.88759 0.98165,2.87093c0.06551,1.12251 -0.44029,2.16341 -0.8821,3.15567c-0.25158,0.14876 -0.4627,0.43448 -0.75473,0.44627c-0.40325,0.01629 -0.61869,-0.51877 -0.93896,-0.76432c-0.2489,-0.19084 -0.61129,-0.16491 -0.88657,-0.31523c-0.10767,-0.0588 -0.17453,-0.19098 -0.29306,-0.22264c-0.44326,-0.11837 -0.99801,0.38112 -1.44157,0.21516c-0.79566,-0.29772 -0.59713,-1.00008 -1.23228,-1.26114c-0.30239,-0.12429 -0.85562,0.03739 -1.15206,0.09621c-0.32346,0.06419 -0.65246,0.10128 -0.96389,0.17575c0.03105,0.04668 0.05365,0.10011 0.06516,0.15854c0.04701,0.23845 -0.10819,0.46986 -0.34664,0.51687l-0.58298,0.11494c-0.09376,0.00762 -0.18525,0.02703 -0.27492,0.05461l-0.15819,0.23586v0c-0.06273,0.09354 -0.16114,0.16315 -0.28036,0.18665c-0.23845,0.04701 -0.46987,-0.10819 -0.51687,-0.34664c-0.01049,-0.05324 -0.01091,-0.10611 -0.00258,-0.15667c-0.75721,0.14621 -1.50085,0.26385 -2.26546,0.30873c-0.34348,0.02016 -0.68641,-0.08469 -1.03004,-0.06709c-0.61167,0.03134 -1.54753,0.19443 -1.97633,0.65032c-0.25462,0.27069 -0.76276,1.28748 -1.06315,1.36639c-0.34033,0.0894 -0.64577,-0.34562 -0.99764,-0.34503c-0.39556,0.0813 -0.8723,0.11156 -1.23745,0.29536c-0.44961,0.22632 -0.62192,0.78915 -1.01815,1.05611c-0.59225,0.39901 -1.28113,0.13261 -1.91845,0.46692z" fill="#3d850c"/><path d="M240.87599,147.81425c0.26819,-0.97068 0.71732,-2.04148 1.52454,-2.66085c0.27464,-0.21073 0.81078,-0.42524 1.15397,-0.47874c0.04593,-0.00716 0.57301,0.07134 0.68067,-0.05913c0.19841,-0.24045 0.13881,-0.62618 0.32305,-0.87765c0.7708,-1.05206 2.69991,-1.52856 3.91513,-1.30006c0.57414,-0.1077 0.70021,-0.38442 1.21843,-0.68395c0.69933,-0.40421 2.0945,-0.68394 2.89402,-0.62754c0.31737,0.02239 0.77886,0.22964 1.04936,0.38444c0.08373,0.04792 0.13212,0.17208 0.22843,0.17776c0.26047,0.01534 0.87224,-0.56087 1.1342,-0.64433c1.38427,-0.44099 3.0237,-0.208 4.32414,0.33193c0.29537,0.0977 0.53298,0.34387 0.83571,0.41555c0.36262,0.08585 0.68697,-0.28903 1.0309,-0.43245c0.37191,-0.15509 0.95288,-0.38961 1.38138,-0.2951c0.84603,0.1866 1.76637,1.24918 2.27324,1.89393c0.37673,0.47922 0.69991,1.40868 0.6417,2.0428c-0.03803,0.41433 -0.29001,0.62694 -0.3869,1.01018c-0.14031,0.55498 -0.35904,1.57065 -1.18797,1.60625c-0.26297,0.01129 -0.45032,-0.27266 -0.67547,-0.409c-0.48327,-0.59056 -1.32241,-1.25369 -2.14972,-1.17023c-0.24937,0.02516 -0.84936,0.22419 -1.04931,0.15836c-0.23023,-0.07581 -0.35005,-0.33924 -0.55185,-0.47351c-0.75013,-0.49913 -1.73611,-0.42051 -2.58797,-0.17229c-0.02476,0.08703 -0.07595,0.16464 -0.14608,0.22166l-0.38655,0.32675l-0.05219,-0.06176l-0.0856,0.1407c-0.03916,-0.01036 -0.07832,-0.0207 -0.11748,-0.03105c-0.01234,0.00409 -0.02513,0.00743 -0.03828,0.0102l-0.0011,0.04575l-0.413,-0.00993c-0.78861,0.14926 -1.58952,0.05485 -2.35603,0.20965c-0.32601,0.06583 -0.63669,0.21855 -0.96862,0.23944c-0.35057,0.02207 -0.67026,-0.21805 -1.0162,-0.27899c-0.24683,-0.04348 -0.89117,0.16875 -1.1374,0.24456c-0.99151,0.30526 -1.56073,1.15857 -2.40585,1.64367c-0.39545,0.08246 -0.94522,0.10392 -1.31934,0.25908c-0.49555,0.20553 -0.70113,0.67316 -1.11858,0.91314c-0.32147,0.18481 -0.73904,0.07323 -1.10316,0.14333c-0.35286,0.06793 -0.66857,0.26369 -1.00351,0.39384c-0.73209,0.28448 -0.84969,1.04782 -1.78939,0.29259c-0.16316,-0.13113 -0.10902,-0.40459 -0.178,-0.60223c-0.12288,-0.35205 -0.24213,-0.48456 -0.45645,-0.81849l-0.15774,-0.48722c0,0 -0.11992,-0.38051 0.23091,-0.5311z" fill="#36760b"/><path d="M242.36008,150.41868c1.03671,-0.79397 2.22881,-0.61381 3.31396,-1.20352c0.56686,-0.30804 0.68511,-0.61407 1.37356,-0.75411c0.61403,-0.12491 1.2858,0.11684 1.86451,-0.10226c-0.01454,-0.03137 -0.02561,-0.06497 -0.03259,-0.1004c-0.01591,-0.08068 -0.00866,-0.16055 0.01712,-0.23275l0.14383,-0.42758l0.01293,0.00435l0.00098,-0.04038c0.19937,-0.36182 0.34847,-0.73459 0.73936,-0.95519c0.30718,-0.17335 0.65224,-0.18862 0.99706,-0.13309c0.16485,-0.0815 0.3198,-0.14127 0.44413,-0.17156c0.7224,-0.176 1.25824,0.21046 1.99246,0.25947c0.68697,0.04585 1.29187,-0.2352 1.96621,-0.28394c0.3667,-0.0265 0.71668,0.19239 1.08419,0.20261c0.14562,0.00404 0.26031,-0.02483 0.36093,-0.07214c-0.05252,-0.03914 -0.10137,-0.09707 -0.14085,-0.18101c-0.18729,-0.39822 0.21093,-0.58551 0.21093,-0.58551l0.52121,-0.23212c0.70355,0.00476 1.65424,-0.0172 2.28753,0.35739c0.02094,0.01238 0.04059,0.02647 0.05933,0.04179c0.17955,0.09094 0.34826,0.1989 0.49277,0.33587c0.0021,0.002 0.01033,0.01273 0.02328,0.0296c0.18068,-0.00001 0.39089,-0.08429 0.51477,-0.09367c0.07783,-0.00589 0.9962,0.01929 1.10077,0.04022c0.47641,0.09536 0.97944,0.21607 1.07118,0.54651c0.06384,0.03879 0.12959,0.07852 0.19817,0.11837l0.02291,0.11815l0.0487,-0.0301l0.25025,0.40507c0.02979,0.04579 0.05149,0.09793 0.0627,0.15482c0.03809,0.19323 -0.05659,0.38182 -0.22075,0.47143c0.14882,-0.01214 0.29982,-0.02024 0.43941,-0.06026l0.29416,-0.349c0,0 0.29434,-0.32715 0.62148,-0.03281c0.32714,0.29433 0.03281,0.62148 0.03281,0.62148l-0.46717,0.49722c-0.19609,0.06887 -0.38412,0.16775 -0.58828,0.20662c-0.1143,0.02176 -0.25489,-0.09831 -0.34788,-0.02839c-0.1145,0.08608 -0.04048,0.31038 -0.14999,0.40273c-0.46828,0.39486 -1.24598,0.43391 -1.82011,0.5317c-0.40522,-0.12467 -1.1801,-0.50024 -1.61949,-0.26084c-0.50104,0.273 -0.80581,0.59151 -1.43546,0.64272c-0.36712,0.02986 -0.74272,0.07813 -1.10493,0.01128c-0.42055,-0.07763 -0.805,-0.4502 -1.29093,-0.34778c-0.44511,0.09382 -0.87108,0.47613 -1.28067,0.64866c-1.06428,0.44831 -2.48085,0.47472 -3.45266,-0.19857c-0.51241,0.22128 -0.90168,0.69195 -1.39135,0.96513c-0.4817,0.26873 -1.32742,0.50453 -1.88018,0.50119c-0.401,-0.00242 -1.10851,-0.46117 -1.48268,-0.39417c-0.28564,0.05115 -0.38591,0.46035 -0.65135,0.57758c-1.09546,0.48381 -2.27861,-0.08089 -3.26425,-0.52721c0,0 -0.4008,-0.18168 -0.21911,-0.58249c0.04972,-0.10969 0.11585,-0.17576 0.18569,-0.21385c0.04555,-0.06181 0.09139,-0.09726 0.09139,-0.09726z" fill="#797979"/><path d="M247.0774,148.35566c-0.28861,0.24486 -0.53347,-0.04375 -0.53347,-0.04375l-0.23783,-0.28994c-0.39386,-0.69422 -0.46596,-1.38747 -0.59448,-2.16821c-0.23045,-1.41583 -0.26992,-3.2046 0.07478,-4.58385c0.15337,-0.61368 0.06656,-1.28865 0.1733,-1.90972c0.18271,-1.06307 0.63921,-2.07448 0.79918,-3.12493c0,0 0.05978,-0.37373 0.43351,-0.31396c0.37373,0.05978 0.31396,0.43351 0.31396,0.43351c-0.17546,1.05572 -0.61682,2.06262 -0.80019,3.13108c-0.08646,0.50374 -0.07143,1.02765 -0.13178,1.53561c-0.03256,0.27397 -0.15116,0.53193 -0.19576,0.80419c-0.06563,0.40054 0.01072,0.81181 0.00391,1.21765c-0.01533,0.91272 -0.07506,1.78097 0.076,2.68748c0.11205,0.68072 0.15319,1.31429 0.50376,1.91378l0.15885,0.1776c0,0 0.24485,0.28861 -0.04375,0.53347z" fill="#4fae10"/><path d="M246.48461,147.53914c-0.03779,-0.01781 -0.07327,-0.03991 -0.10566,-0.06722c-0.16777,-0.1415 -0.13399,-0.41843 -0.18525,-0.63184c-0.1531,-0.63749 -0.139,-1.34682 -0.10358,-1.99552c0.08704,-0.75011 0.17342,-1.49936 0.27442,-2.24599c-0.01123,-0.01002 -0.0225,-0.02037 -0.03384,-0.03101c-0.18084,-0.16979 0.0235,-1.20197 0.05324,-1.45904c0.17069,-1.4758 0.38447,-2.79035 0.96175,-4.09645c-0.00242,-0.00364 -0.00496,-0.0072 -0.00762,-0.01068l-0.02748,-0.00439l0.00349,-0.02183c-0.00564,-0.00516 -0.01165,-0.01006 -0.01806,-0.01469c0,0 -0.17771,-0.19031 -0.08047,-0.40263c-0.06721,0.0067 -0.36705,0.01754 -0.42156,-0.31362c-0.06056,-0.36789 0.30095,-0.43303 0.31173,-0.43489c0.37302,-0.17536 0.71381,-0.32388 1.11092,-0.44064c0.07092,-0.03592 0.16303,-0.05536 0.2694,-0.01502c0.07065,0.01824 0.14442,0.05934 0.19769,0.14478c0.06212,0.07924 0.07557,0.16261 0.06859,0.23524c0.00141,0.09973 -0.03664,0.17346 -0.08511,0.22678c0.01039,0.29878 0.00529,0.59835 -0.01203,0.89673c-0.24908,0.94648 0.00188,1.83643 0.15795,2.78456c0.25914,1.57423 0.67072,3.02383 1.26481,4.50326c0.28139,0.70072 0.53075,1.42099 1.00273,2.01434c0.08158,0.0416 0.15748,0.12149 0.18234,0.27254c0.06148,0.37347 -0.31199,0.43494 -0.31199,0.43494l-0.15915,0.01144c-0.51871,0.2398 -1.08075,0.17665 -1.5927,0.3587c-0.18433,0.18641 -0.37194,0.3751 -0.39942,0.39058c-0.01128,0.00636 -0.04559,0.01552 -0.09492,0.02638c-0.14396,0.19334 -0.28657,0.40059 -0.53295,0.51027c-0.45343,0.20186 -0.92227,0.15033 -1.38763,0.29142c0,0 -0.36295,0.10732 -0.47028,-0.25563c-0.10733,-0.36295 0.25563,-0.47027 0.25563,-0.47027c0.00698,-0.00203 0.01397,-0.004 0.02096,-0.00594c-0.04503,-0.05776 -0.07958,-0.11972 -0.10593,-0.18463zM247.58777,139.94456c-0.01123,0.05087 -0.0223,0.10177 -0.03321,0.15268c0.01613,-0.02027 0.03435,-0.03892 0.05439,-0.05558c-0.00719,-0.03235 -0.01426,-0.06471 -0.0212,-0.0971z" fill="#4fae10"/><path d="M260.47659,144.8039c0.00711,-0.0015 0.01421,-0.00295 0.02134,-0.00438c0,0 0.3716,-0.07186 0.4427,0.29412c0.0711,0.36598 -0.3005,0.43784 -0.3005,0.43784c-0.47805,0.08909 -0.87087,0.34802 -1.36617,0.37859c-0.26914,0.01661 -0.49083,-0.09933 -0.70736,-0.20252c-0.04879,0.01302 -0.08347,0.02068 -0.09642,0.02027c-0.0315,-0.00098 -0.28467,-0.0802 -0.53387,-0.15891c-0.53821,0.07458 -1.00847,0.38618 -1.57917,0.41339l-0.14661,0.06262c0,0 -0.3599,0.11671 -0.47655,-0.23754c-0.04717,-0.14327 -0.01639,-0.24769 0.03699,-0.32125c0.14713,-0.73361 0.03836,-1.4765 -0.03301,-2.21692c-0.15069,-1.56326 -0.44981,-3.01719 -0.94149,-4.51043c-0.29613,-0.89935 -0.4813,-1.79117 -1.13654,-2.50422c-0.1522,-0.25271 -0.29409,-0.51204 -0.42187,-0.77775c-0.0675,-0.02445 -0.13511,-0.0715 -0.17959,-0.15924c-0.0395,-0.06025 -0.06578,-0.13921 -0.04694,-0.23677c0.00814,-0.09893 0.0548,-0.1685 0.1092,-0.21666c0.07599,-0.08377 0.16671,-0.10882 0.24617,-0.1098c0.40627,-0.07921 0.77706,-0.10498 1.1888,-0.12201c0.01043,-0.0033 0.36142,-0.11135 0.47631,0.23763c0.10343,0.31413 -0.16787,0.44146 -0.23064,0.46628c0.18372,0.14109 0.11315,0.3884 0.11315,0.3884c-0.00356,0.00697 -0.00665,0.01399 -0.0093,0.02107l0.01311,0.01748l-0.02239,0.01637c-0.00076,0.00426 -0.00138,0.00852 -0.00187,0.01281c1.11166,0.87741 1.90432,1.92806 2.73265,3.1392c0.14428,0.21097 0.79909,1.01929 0.71632,1.25011c-0.00519,0.01448 -0.01047,0.02865 -0.01585,0.04253c0.43207,0.60607 0.85237,1.22107 1.27363,1.83653c0.32892,0.55044 0.6667,1.16357 0.82303,1.79023c0.05234,0.20979 0.20932,0.43626 0.12519,0.6364c-0.01624,0.03864 -0.03762,0.07411 -0.06303,0.10691c0.00635,0.06871 0.00407,0.1386 -0.00943,0.2096zM256.0494,138.55871c0.02545,0.0054 0.05018,0.01337 0.0738,0.02372c-0.03303,-0.0395 -0.06621,-0.0789 -0.09951,-0.11821c0.00869,0.03146 0.01726,0.06295 0.0257,0.09448z" data-paper-data="{&quot;index&quot;:null}" fill="#4fae10"/><path d="M242.54531,150.16752c-0.17489,0.33566 -0.51055,0.16076 -0.51055,0.16076l-0.45392,-0.24794c-0.49069,-0.67754 -0.52656,-1.3334 -0.65975,-2.14254c-0.23407,-1.42193 -0.3785,-2.71817 -0.32902,-4.16259c0,0 0.01296,-0.37826 0.39123,-0.3653c0.37826,0.01296 0.3653,0.39122 0.3653,0.39122c-0.04785,1.39674 0.09295,2.63801 0.31941,4.01372c0.0908,0.55156 0.07786,1.23735 0.4075,1.69251l0.30904,0.14961c0,0 0.33566,0.17489 0.16076,0.51055z" fill="#4fae10"/><path d="M262.77923,139.34095c0.32391,-0.19577 0.51969,0.12813 0.51969,0.12813l0.11994,0.19897c0.67358,1.02711 0.92896,2.10509 1.1772,3.28744c0.10671,0.50826 0.3259,1.09717 0.30557,1.62314c-0.03704,0.95874 -0.46735,1.78949 -0.81423,2.66497c0,0 -0.13942,0.35187 -0.49129,0.21245c-0.35186,-0.13942 -0.21245,-0.49129 -0.21245,-0.49129c0.31853,-0.80382 0.71633,-1.54527 0.76179,-2.42091c0.02344,-0.45154 -0.19939,-0.99872 -0.29057,-1.43447c-0.22725,-1.08605 -0.44735,-2.08226 -1.06864,-3.02562l-0.13517,-0.22312c0,0 -0.19578,-0.32392 0.12813,-0.51969z" fill="#4fae10"/><path d="M264.32692,148.60625c-0.86377,0.70774 -2.02004,1.18882 -3.15141,1.23956c-0.20745,0.00931 -0.79656,-0.06846 -0.97845,-0.14519c-0.19529,-0.08238 -0.24046,-0.35606 -0.48507,-0.17964c-0.25689,0.18527 -0.49532,0.40326 -0.77907,0.54396c-0.61655,0.10578 -1.47159,0.39465 -2.0922,0.20193c-0.02882,-0.00895 -0.40233,-0.34396 -0.56047,-0.30689c-0.28593,0.06704 -0.4527,0.38746 -0.72164,0.50541c-0.64174,0.28145 -1.71078,0.32035 -2.39631,0.29806c-0.52423,-0.01704 -0.97556,-0.02278 -1.47678,-0.19171c-0.23144,-0.07801 -0.70268,-0.44723 -0.93749,-0.4488c-0.22429,-0.00151 -0.35652,0.27368 -0.51873,0.42857c-0.64153,0.51954 -1.62953,1.11907 -2.46923,1.10264c-0.18139,-0.00355 -0.37223,0.00566 -0.5408,-0.06144c-0.08227,-0.03275 -0.59664,-0.56033 -0.82083,-0.34619c-0.0767,0.07325 -0.04046,0.21724 -0.10744,0.29945c-0.14895,0.18283 -0.31563,0.3648 -0.52389,0.47545c-0.28955,0.15383 -0.8091,0.10595 -1.11765,0.09295c-0.82297,-0.03468 -1.46583,-0.14793 -2.07554,-0.66093c-0.20507,0.01246 -0.35572,-0.15416 -0.35572,-0.15416c-0.56689,-0.637 -1.28185,-0.88433 -1.64261,-1.73435c-0.27487,-0.64764 -0.31138,-1.54298 -0.44703,-2.23106c-0.1711,-0.86789 -0.52484,-1.8799 -0.44654,-2.76891c0.1338,-1.51901 0.89151,-3.66369 2.03633,-4.68557c0.38542,-0.69736 0.8558,-0.98397 1.44414,-1.52503c0.70651,-0.64972 1.35832,-1.30969 2.16947,-1.83576c1.49801,-0.97154 3.27162,-1.25584 4.98961,-1.59454c1.20821,-0.23819 2.44287,-0.5555 3.67428,-0.46029c0.78306,0.03944 1.59354,-0.06821 2.35931,0.04133c0.50874,0.07277 1.00063,0.24114 1.48714,0.40676c0.72116,0.24549 1.36286,0.19724 2.06827,0.54144c1.78153,0.86928 3.13607,2.1636 4.06848,3.89471c0.31846,0.59125 0.63909,1.06617 0.77061,1.73329c0.41478,0.73051 0.32616,1.5234 0.61605,2.28358c0.06536,0.17138 0.21837,0.30474 0.26531,0.48204c0.151,0.57038 -0.00194,1.81267 -0.17386,2.37011c-0.04817,0.1562 -0.21045,0.25779 -0.26756,0.41094c-0.15652,0.41971 -0.22768,0.87391 -0.43208,1.2725l-0.09631,0.23639c0,0 -0.0322,0.0776 -0.10238,0.15092zM244.83601,149.06337c0.132,0.00254 0.2301,0.20988 0.35666,0.17227c0.10503,-0.03121 0.05468,-0.21476 0.10815,-0.31039c0.09134,-0.16336 0.18177,-0.33624 0.32246,-0.45967c0.48493,-0.42544 1.90095,-0.8183 2.53185,-0.57128c0.10725,0.04199 0.07282,0.22186 0.13814,0.31671c0.03374,0.04899 -0.05248,-0.11584 -0.03983,-0.17397c0.04731,-0.2175 0.0966,-0.44376 0.21518,-0.63212c0.40883,-0.64933 1.09829,-0.98768 1.75225,-1.31823c0.66827,-0.13174 1.24963,-0.14995 1.90062,0.10636c0.13098,0.05157 0.22517,0.1896 0.3637,0.21459c0.24607,0.04438 0.62316,-0.28147 0.79053,-0.3412c0.3518,-0.12556 1.35978,-0.37626 1.73253,-0.32206c0.2973,0.04323 0.50915,0.42553 0.80836,0.39856c0.32183,-0.02901 0.94987,-0.91908 1.2038,-1.05429c0.06114,-0.03254 1.17131,-0.24761 1.216,-0.24896c0.68971,-0.02091 2.31803,0.61249 2.16996,1.44591c0.17164,-0.27586 0.53423,-0.40826 0.85282,-0.47191c1.26247,-0.25222 2.013,0.26733 2.58056,1.3927l0.20124,0.16327c0.39477,-0.78948 0.56721,-1.58736 0.67915,-2.45473c0.01239,-0.09599 0.10978,-0.68338 0.06338,-0.83075c-0.10251,-0.32559 -0.28899,-0.62538 -0.35649,-0.95999c-0.1295,-0.64197 -0.17958,-1.16795 -0.50242,-1.73654c-0.12563,-0.63728 -0.41726,-1.05694 -0.72015,-1.62181c-1.43392,-2.67423 -4.04548,-3.95349 -6.96751,-4.38858c-0.73591,-0.10958 -1.54232,0.00285 -2.29998,-0.03531c-1.14149,-0.10466 -2.32469,0.22475 -3.44512,0.44564c-1.60854,0.31712 -3.28551,0.56526 -4.68888,1.47454c-0.76544,0.49597 -1.37736,1.12727 -2.04456,1.73998c-0.58384,0.53616 -0.98197,0.74249 -1.34903,1.4224c-1.03376,0.94563 -1.71606,2.8175 -1.84978,4.20786c-0.07625,0.79277 0.27987,1.75712 0.4325,2.53128c0.12724,0.6454 0.1594,1.46786 0.4028,2.07972c0.18939,0.47609 0.6221,0.76034 1.02303,1.06732c0.4885,-0.85591 1.32083,-1.26842 2.41807,-1.24731zM244.68345,151.35816c0.05351,0.00251 0.62813,0.04691 0.74957,-0.01599c0.25796,-0.13359 0.27047,-0.54569 0.51435,-0.70354c0.1909,-0.12356 0.43904,-0.14097 0.6664,-0.14605c0.32629,-0.00729 0.6,0.2576 0.89361,0.40011c0.35482,0.17222 0.71696,-0.12896 0.99228,-0.25606c0.47878,-0.221 0.81966,-0.31919 1.2324,-0.65586c0.29438,-0.26987 0.54569,-0.59516 0.99627,-0.61456c0.35523,-0.0153 0.58564,0.23112 0.87183,0.36788c0.3558,0.17002 0.70372,0.24007 1.09319,0.25589c0.74744,0.03036 1.87334,0.09836 2.57401,-0.2233c0.37888,-0.17394 0.42739,-0.48941 0.88996,-0.55363c0.32849,-0.04561 0.62537,0.22125 0.93506,0.33989c0.39575,0.15161 1.21015,-0.14667 1.61043,-0.20916c0.55554,-0.26493 0.63669,-0.69637 1.39337,-0.60111c0.25837,0.03253 0.45571,0.28379 0.71398,0.31709c0.9391,0.1211 2.07789,-0.31267 2.84164,-0.87704c-0.02715,-0.01723 -0.04265,-0.03033 -0.04265,-0.03033l-0.45865,-0.3987c-0.20015,-0.38592 -0.48532,-0.945 -0.91409,-1.15038c-0.53074,-0.25423 -1.67817,0.3355 -2.09497,0.52156c-0.55581,-0.87131 -1.58505,-1.8723 -2.73489,-1.24537c-0.56498,0.30804 -0.78106,1.06022 -1.51497,1.14033c-0.36005,0.03931 -0.65165,-0.34257 -1.00855,-0.4043c-0.84719,-0.14656 -1.6832,0.74721 -2.52307,0.66326c-0.20587,-0.02058 -0.36754,-0.192 -0.5605,-0.26666c-0.43598,-0.16869 -0.84096,-0.18248 -1.29026,-0.09391c-0.43985,0.22879 -1.02161,0.48728 -1.28582,0.93933c-0.29488,0.50454 -0.05257,1.066 -0.91535,1.23343c-0.20647,0.04006 -0.30578,-0.30228 -0.49821,-0.38715c-0.21025,-0.09273 -1.07034,0.17307 -1.28651,0.24267c-0.57292,0.18447 -0.46257,0.87302 -1.02433,1.11419c-0.21613,0.09279 -0.46053,-0.12068 -0.69573,-0.11785c-0.84809,0.0102 -1.39721,0.26055 -1.70743,0.96608c0.46246,0.38318 0.96071,0.41984 1.58758,0.4492z" fill="#525252"/></g><path d="M252.01022,163.11014l-6.17116,-14.43547" fill="none" stroke="#525252" stroke-width="2.5" stroke-linecap="round"/><path d="M261.29526,146.23647l-2.8539,15.92564" fill="none" stroke="#525252" stroke-width="2.5" stroke-linecap="round"/><path d="M255.41189,162.51317l-2.30824,-16.03925" fill="none" stroke="#525252" stroke-width="2.5" stroke-linecap="round"/></g><path d="M223.41472,182.02466c0.0358,0.21747 -0.16132,0.24991 -0.16132,0.24991c-1.28372,0.21132 -2.62245,0.43169 -3.90616,0.64301c-0.6584,0.10838 -1.32994,0.36632 -1.99495,0.38906c-0.4866,0.01665 -0.97825,-0.05758 -1.45908,0.08385c-0.29633,0.08716 -0.54456,0.24521 -0.85477,0.29872c0,0 -0.19711,0.03245 -0.23291,-0.18502c-0.0358,-0.21747 0.16132,-0.24992 0.16132,-0.24992c0.28958,-0.04484 0.52321,-0.2044 0.80078,-0.28552c0.51689,-0.15105 1.03856,-0.08396 1.56177,-0.10172c0.64682,-0.02196 1.30493,-0.27883 1.94625,-0.3844c1.28372,-0.21132 2.56743,-0.42264 3.85114,-0.63396l0.05502,-0.00905c0,0 0.19712,-0.03244 0.23292,0.18502z" fill="#9d4400" stroke="none" stroke-width="0.5" stroke-linecap="butt"/><path d="M228.91636,181.119c0.0358,0.21747 -0.16132,0.24992 -0.16132,0.24992c-0.63269,0.10415 -1.29288,0.21283 -1.92557,0.31698c0,0 -0.19711,0.03245 -0.23291,-0.18502c-0.0358,-0.21747 0.16132,-0.24992 0.16132,-0.24992c0.63269,-0.10415 1.26539,-0.2083 1.89807,-0.31245l0.02751,-0.00453c0,0 0.19711,-0.03245 0.23291,0.18502z" fill="#9d4400" stroke="none" stroke-width="0.5" stroke-linecap="butt"/><g><path d="M226.8645,179.82661c-0.23835,0.22109 -0.4651,0.24842 -0.65214,0.20069c-0.23793,0.09393 -0.53043,0.09304 -0.7783,0.1621c-0.19613,0.05465 -0.39944,0.09658 -0.60589,0.13159c-1.0084,0.62593 -1.81097,1.34966 -3.06557,0.8607l-0.36308,-0.03861c-0.27435,-0.02259 -0.52254,-0.19902 -0.65814,-0.46062c-0.06625,0.05569 -0.11556,0.09303 -0.13786,0.10183c-1.12667,0.44434 -1.89915,0.67285 -1.69658,-1.28652c0.03945,-0.38157 0.41974,-0.60425 0.64718,-0.89009c0.24132,-0.30331 0.5264,-0.53753 0.82388,-0.74993c-0.77596,0.31295 -1.66809,0.56919 -2.18018,-0.51457c-0.21123,0.24774 -0.53457,0.56411 -0.87805,0.7243c0.04602,0.20967 0.02217,0.46546 -0.18991,0.73129c-0.51957,0.6513 -1.12969,0.06024 -1.12969,0.06024c-0.24704,-0.25157 -0.54725,-0.4526 -0.74113,-0.75471c-0.14082,-0.21944 -0.23318,-0.4863 -0.30061,-0.76458c-0.2827,-0.25314 -0.33919,-0.6892 -0.24113,-1.38173c-0.1419,-0.85237 -0.28208,-1.70511 -0.42033,-2.55805c-0.14238,-0.87844 -0.28643,-1.76853 0.21922,-2.54358c0.98764,-1.5138 3.17103,-1.4013 4.70229,-1.65337c0.86525,-0.14244 1.77571,-0.30667 2.65278,-0.18735l0.41273,-0.06794c0.43546,-0.07169 0.8526,0.25965 0.93168,0.74008c0.04326,0.2628 -0.0236,0.51577 -0.16432,0.70276l-0.42267,0.56782c0.0251,0.33329 -0.31983,0.61886 -0.42496,0.94638c-0.11516,0.35874 -0.12648,0.7589 -0.27025,1.10415c-0.35388,0.84983 -0.87225,1.60086 -1.29424,2.41063c-0.10461,0.20073 -0.21339,0.39869 -0.32068,0.59765c0.35498,-0.1327 0.71515,-0.25045 1.07834,-0.35496c0.4352,-0.08599 0.97929,-0.60089 1.30561,-0.25796c0.01729,0.01818 0.0337,0.03693 0.04926,0.05624c0.05353,-0.06276 0.10749,-0.12527 0.16175,-0.18764c0.26445,-0.48782 0.52608,-0.94871 0.7125,-1.49714c0.10788,-0.31737 0.33586,-1.48546 0.56133,-1.6757c0.39035,-0.32937 0.91834,-0.74326 1.39441,-0.55886c0.73564,0.28494 0.59199,1.37555 0.5234,2.0029c0.05573,0.09646 0.09573,0.20577 0.11521,0.32412l0.07993,0.48551c0.18669,1.17141 0.26028,2.38693 0.35853,3.56768c0.00146,0.01766 0.00312,0.03527 0.00492,0.05283c0.08318,0.23413 0.15315,0.45418 0.2075,0.61369l0.06728,0.00074c0,0 0.52846,0.67914 -0.07398,1.23798z" fill="#8f3e15" stroke="none" stroke-width="0.5" stroke-linecap="butt"/><path d="M225.77055,171.61974c0.30882,1.87596 0.5906,3.76248 0.99115,5.62023c0.17384,0.60386 0.44758,1.39957 0.18129,2.01381c-0.32504,0.74975 -1.36191,0.90986 -2.00471,1.01655c-1.89352,0.31427 -3.78788,0.62355 -5.68181,0.93532c0,0 -0.06324,0.01041 -0.1448,-0.00471c-0.07959,0.09727 -0.27049,0.26461 -0.53699,0.0693c-0.35688,-0.26155 -0.13559,-0.6503 -0.13559,-0.6503c0.49129,-0.86249 0.92376,-1.90109 1.64105,-2.56764c0.24068,-0.22365 0.53663,-0.37085 0.76533,-0.60951c0.63062,-0.65811 1.05371,-1.53104 1.64586,-2.23408c0.55635,-0.66054 1.06306,-1.21823 1.45818,-2.02488c0.34779,-0.70917 0.65743,-1.43808 1.00389,-2.14604l0.1624,-0.3058c0,0 0.21078,-0.39623 0.57396,-0.14614c0.36318,0.25009 0.1524,0.64632 0.1524,0.64632l-0.08081,0.15161zM224.35623,179.41384c0.44243,-0.07283 0.90047,-0.09937 1.31782,-0.28105c0.01182,-0.00514 0.47559,-0.22626 0.51584,-0.32465c0.14028,-0.34298 -0.14409,-1.02898 -0.23604,-1.34578c-0.33576,-1.55386 -0.59026,-3.12701 -0.84482,-4.69809c-0.13675,0.29907 -0.27465,0.5977 -0.41929,0.89262c-0.42893,0.87359 -0.97449,1.49231 -1.57724,2.20782c-0.48669,0.57773 -0.8492,1.24617 -1.3118,1.84182c-0.3544,0.45633 -0.7569,0.70159 -1.16515,1.07125c-0.40141,0.36345 -0.70401,0.88335 -0.98013,1.40991c1.56695,-0.25795 3.13387,-0.51588 4.70082,-0.77383z" fill="#763312" stroke="none" stroke-width="0.5" stroke-linecap="butt"/><path d="M215.93636,179.39584c-0.42529,0.02982 -0.46766,-0.44536 -0.46766,-0.44536c-0.04235,-0.47844 -0.06226,-1.05017 -0.20228,-1.51431c-0.10903,-0.36141 -0.30734,-0.68976 -0.3993,-1.05639c-0.26755,-1.06673 -0.36731,-2.22073 -0.54623,-3.30761c-0.13314,-0.80876 -0.54295,-1.79681 0.18733,-2.38016c0.31614,-0.25253 1.19561,-0.23364 1.59,-0.29857c1.67893,-0.27638 3.41981,-0.59746 5.13194,-0.49437l0.44701,-0.07359v0c0.23212,-0.03821 0.45501,0.14173 0.49784,0.40189c0.01819,0.11053 0.00097,0.21776 -0.04268,0.30747l-0.23045,0.48508l-0.01184,-0.00733c-0.01083,0.02888 -0.02251,0.05739 -0.03518,0.08544c-0.09226,0.20444 -0.32506,0.4021 -0.57044,0.58427c0.14872,0.28688 -0.06999,0.54201 -0.06999,0.54201l-0.3111,0.36243c-0.78327,0.77966 -1.21739,1.6152 -1.78267,2.57739c-0.442,0.75235 -1.0415,1.43305 -1.60802,2.07874c-0.02549,0.06628 -0.05145,0.13216 -0.07801,0.19753c-0.19488,0.47957 -0.45069,0.90547 -0.64124,1.38859l-0.03726,0.02685l0.0151,0.01219l-0.24824,0.39129c-0.06203,0.09777 -0.15842,0.16779 -0.27448,0.18689c-0.09604,0.01581 -0.19049,-0.00572 -0.27127,-0.05482c-0.01312,0.00194 -0.02674,0.00342 -0.04087,0.00441zM216.14606,177.43865c0.18314,-0.32713 0.43616,-0.63447 0.70149,-0.92415c0.33943,-0.92917 0.63162,-1.89848 1.16972,-2.70022c0.4355,-0.64887 1.08673,-1.3556 1.61372,-1.9156c0.20736,-0.22035 0.62941,-0.73566 1.04167,-1.06435c-1.4816,0.00103 -2.96839,0.26242 -4.41936,0.50127c-0.39982,0.06581 -0.89955,0.05378 -1.28012,0.17389c-0.12816,0.04046 -0.00219,0.30225 0.02782,0.44951c0.10148,0.49786 0.16619,1.00951 0.24873,1.51094c0.1454,0.88325 0.22645,1.81991 0.44065,2.68743c0.08734,0.35373 0.28543,0.66761 0.3886,1.01659c0.02539,0.08589 0.04755,0.17438 0.06707,0.26468z" fill="#763312" stroke="none" stroke-width="0.5" stroke-linecap="butt"/><path d="M223.46431,168.29798l2.60038,2.18062l-8.25926,12.23898l-2.60038,-2.18061z" fill="#af4c00" stroke="none" stroke-width="0" stroke-linecap="butt"/><path d="M212.73716,171.77419l-0.3428,-2.08248l14.33686,-2.36007l0.34281,2.08248z" fill="#af4c00" stroke="none" stroke-width="0" stroke-linecap="butt"/><path d="M214.73218,183.92684l-0.3548,-2.15532l14.33686,-2.36007l0.3548,2.15532z" fill="#af4c00" stroke="none" stroke-width="0" stroke-linecap="butt"/><path d="M212.68766,171.59454l2.13559,-0.35155l1.69572,10.30114l-2.13559,0.35155z" fill="#af4c00" stroke="none" stroke-width="0" stroke-linecap="butt"/><path d="M225.07415,169.55553l1.95363,-0.3216l1.69573,10.30114l-1.95364,0.3216z" fill="#af4c00" stroke="none" stroke-width="0" stroke-linecap="butt"/><path d="M212.40119,169.73724l-0.10146,-0.61631l14.31772,-2.35692l0.10146,0.61631z" fill="#a24600" stroke="none" stroke-width="0" stroke-linecap="butt"/><path d="M214.46877,170.69932c0.0358,0.21747 -0.16132,0.24991 -0.16132,0.24991c-0.41682,0.06861 -0.93504,0.15393 -1.35187,0.22254c0,0 -0.19711,0.03244 -0.23291,-0.18502c-0.0358,-0.21747 0.16132,-0.24992 0.16132,-0.24992c0.41682,-0.06861 0.83365,-0.13724 1.25047,-0.20585l0.10139,-0.01669c0,0 0.19711,-0.03244 0.23291,0.18503z" fill="#9d4400" stroke="none" stroke-width="0.5" stroke-linecap="butt"/><path d="M226.75538,168.79164c0.0358,0.21747 -0.16132,0.24992 -0.16132,0.24992c-0.82238,0.13538 -1.88135,0.3097 -2.70373,0.44508c-1.45326,0.23923 -2.90652,0.47845 -4.35977,0.71768c0,0 -0.19712,0.03245 -0.23292,-0.18502c-0.0358,-0.21747 0.16132,-0.24992 0.16132,-0.24992c1.45326,-0.23923 2.90652,-0.47846 4.35978,-0.71769c0.82238,-0.13538 1.64476,-0.27076 2.46715,-0.40614l0.23658,-0.03894c0,0 0.19712,-0.03245 0.23292,0.18502z" fill="#9d4400" stroke="none" stroke-width="0.5" stroke-linecap="butt"/><path d="M216.25085,181.10332c0.0358,0.21747 -0.16132,0.24992 -0.16132,0.24992c-0.42809,0.07047 -0.88997,0.1465 -1.31806,0.21697c0,0 -0.19712,0.03245 -0.23292,-0.18502c-0.0358,-0.21747 0.16132,-0.24992 0.16132,-0.24992c0.42809,-0.07047 0.85619,-0.14094 1.28428,-0.21141l0.03379,-0.00557c0,0 0.19711,-0.03245 0.23291,0.18502z" fill="#9d4400" stroke="none" stroke-width="0.5" stroke-linecap="butt"/><path d="M228.44531,179.05763c0.0358,0.21747 -0.16132,0.24992 -0.16132,0.24992c-0.21404,0.03524 -0.49568,0.0816 -0.70972,0.11683c0,0 -0.19712,0.03245 -0.23292,-0.18502c-0.0358,-0.21747 0.16132,-0.24992 0.16132,-0.24992c0.21404,-0.03524 0.42809,-0.07047 0.64213,-0.10571l0.06759,-0.01113c0,0 0.19711,-0.03244 0.23291,0.18502z" fill="#9d4400" stroke="none" stroke-width="0.5" stroke-linecap="butt"/><path d="M224.60684,171.43018c0.00534,-0.06689 0.03541,-0.16523 0.16287,-0.18621c0.19712,-0.03245 0.23291,0.18502 0.23291,0.18502l-0.02629,0.20057c-0.95112,1.4696 -1.935,2.95694 -2.8947,4.4358c-0.24905,0.25264 -0.36962,0.58955 -0.58918,0.86526c-0.54202,0.68061 -1.08797,1.40982 -1.57262,2.1581c-0.20879,0.32235 -0.34093,0.61529 -0.6114,0.8929c0,0 -0.14415,0.14763 -0.28329,-0.01532c-0.13913,-0.16294 0.00503,-0.31058 0.00503,-0.31058c0.25498,-0.26047 0.36577,-0.52642 0.56255,-0.83219c0.49025,-0.76178 1.04699,-1.50319 1.59882,-2.19357c0.21746,-0.27205 0.33881,-0.60569 0.58477,-0.85983c0.93084,-1.45202 1.90196,-2.89905 2.83051,-4.33996z" fill="#9d4400" stroke="none" stroke-width="0.5" stroke-linecap="butt"/><path d="M218.20596,168.19732l-3.26864,-11.37438" fill="none" stroke="#525252" stroke-width="2.5" stroke-linecap="round"/><path d="M221.21335,156.11736l0.26515,11.54296" fill="none" stroke="#525252" stroke-width="2.5" stroke-linecap="round"/><g stroke="none" stroke-width="0.5" stroke-linecap="butt"><path d="M208.21658,156.21884c-0.00074,0.00959 -0.00173,0.0194 -0.00302,0.02942c-0.05197,0.4067 -0.45867,0.35473 -0.45867,0.35473c-0.23601,-0.03761 -0.49141,-0.01191 -0.70804,-0.11285c-0.50536,-0.23547 -0.77984,-0.94944 -0.99479,-1.41398c-0.55003,-1.18872 -0.37583,-2.6973 -0.2073,-3.94692c0.04083,-0.30266 -0.10557,-0.61757 -0.03804,-0.91541c0.03861,-0.17031 0.18715,-0.29873 0.24256,-0.46434c0.15347,-0.45869 0.24445,-0.90264 0.43482,-1.36138c0.55552,-1.33822 1.61803,-2.16692 2.82839,-2.91299c0.4522,-0.27874 0.79067,-0.65189 1.20316,-0.96869c1.25626,-0.96483 2.9198,-1.50183 4.44249,-1.79847c0.34228,-0.01842 0.67235,0.01818 1.00347,0.04608c0.05854,-0.0855 0.14931,-0.149 0.259,-0.17063l0.48282,-0.09518l0.00493,0.02496l0.05164,-0.03207c0.37161,0.02899 0.62736,0.03993 0.88172,0.07389c0.01932,-0.00429 0.03843,-0.00836 0.05732,-0.01221l-0.00413,-0.05872l0.48929,-0.03445c0.06452,-0.00548 0.1275,0.00452 0.18483,0.02722c0.12807,-0.02673 0.2563,-0.05443 0.3855,-0.0795c0.81756,-0.15866 1.38988,0.0983 2.18461,0.21876c0.26115,0.03958 0.52707,-0.03611 0.7909,-0.04895c0.89471,-0.04355 2.33006,0.19598 3.08165,0.7104c0.40529,0.27739 0.5099,0.71867 0.94092,0.99744c0.30778,0.20774 0.67557,0.42065 0.87679,0.74748c0.15427,0.25055 0.03767,0.5823 0.25127,0.81257c0.22527,0.24284 0.57095,0.36474 0.76714,0.63162c0.29103,0.3959 0.45679,0.93733 0.672,1.37687c0.39495,0.80668 0.86112,1.75866 0.91459,2.67483c0.06104,1.04584 -0.41021,2.01564 -0.82184,2.94012c-0.2344,0.1386 -0.4311,0.40481 -0.70318,0.4158c-0.37571,0.01517 -0.57643,-0.48333 -0.87483,-0.71211c-0.23191,-0.17781 -0.56955,-0.15364 -0.82602,-0.2937c-0.10031,-0.05478 -0.16261,-0.17794 -0.27304,-0.20744c-0.41298,-0.11028 -0.92984,0.3551 -1.3431,0.20046c-0.74131,-0.27739 -0.55634,-0.93177 -1.14811,-1.175c-0.28173,-0.1158 -0.79718,0.03484 -1.07337,0.08964c-0.30136,0.0598 -0.6079,0.09436 -0.89805,0.16374c0.02893,0.04349 0.04998,0.09327 0.06071,0.14771c0.04379,0.22216 -0.1008,0.43777 -0.32297,0.48156l-0.54316,0.10709c-0.08736,0.0071 -0.1726,0.02517 -0.25614,0.05087l-0.14738,0.21975v0c-0.05845,0.08715 -0.15013,0.152 -0.26121,0.1739c-0.22216,0.04379 -0.43777,-0.1008 -0.48157,-0.32296c-0.00978,-0.0496 -0.01017,-0.09887 -0.0024,-0.14597c-0.70549,0.13622 -1.39834,0.24583 -2.11073,0.28765c-0.32002,0.01878 -0.63953,-0.0789 -0.95969,-0.0625c-0.5699,0.0292 -1.44182,0.18114 -1.84134,0.6059c-0.23722,0.25221 -0.71066,1.19955 -0.99053,1.27307c-0.31708,0.08329 -0.60166,-0.32201 -0.9295,-0.32147c-0.36854,0.07575 -0.81272,0.10394 -1.15293,0.27519c-0.4189,0.21087 -0.57943,0.73524 -0.9486,0.98397c-0.5518,0.37176 -1.19361,0.12356 -1.78741,0.43502z" fill="#3d850c"/><path d="M206.27755,154.18798c0.24988,-0.90438 0.66833,-1.90205 1.42042,-2.47911c0.25589,-0.19634 0.75539,-0.39619 1.07514,-0.44604c0.0428,-0.00668 0.53388,0.06646 0.63417,-0.05509c0.18485,-0.22403 0.12933,-0.58341 0.30098,-0.8177c0.71815,-0.98021 2.5155,-1.42416 3.64772,-1.21127c0.53492,-0.10035 0.65237,-0.35816 1.1352,-0.63723c0.65157,-0.3766 1.95144,-0.63723 2.69635,-0.58468c0.2957,0.02086 0.72567,0.21395 0.97769,0.35818c0.07802,0.04465 0.12309,0.16034 0.21283,0.16562c0.24267,0.0143 0.81266,-0.52256 1.05673,-0.60032c1.28972,-0.41087 2.81717,-0.19379 4.02878,0.30926c0.27519,0.09103 0.49656,0.32039 0.77862,0.38717c0.33785,0.07999 0.64004,-0.26929 0.96049,-0.40291c0.34651,-0.14449 0.8878,-0.36299 1.28702,-0.27494c0.78825,0.17385 1.64572,1.16384 2.11797,1.76457c0.351,0.44648 0.6521,1.31247 0.59786,1.90327c-0.03544,0.38603 -0.2702,0.58412 -0.36047,0.94119c-0.13073,0.51707 -0.33451,1.46336 -1.10682,1.49653c-0.24501,0.01053 -0.41956,-0.25404 -0.62933,-0.38107c-0.45027,-0.55023 -1.23208,-1.16806 -2.00289,-1.0903c-0.23234,0.02344 -0.79135,0.20888 -0.97764,0.14754c-0.2145,-0.07063 -0.32614,-0.31607 -0.51415,-0.44117c-0.69889,-0.46504 -1.61752,-0.39178 -2.4112,-0.16052c-0.02307,0.08108 -0.07076,0.15339 -0.1361,0.20651l-0.36015,0.30443l-0.04863,-0.05754l-0.07976,0.13109c-0.03648,-0.00965 -0.07296,-0.01929 -0.10945,-0.02893c-0.0115,0.0038 -0.02341,0.00693 -0.03566,0.00951l-0.00103,0.04262l-0.38479,-0.00925c-0.73474,0.13906 -1.48095,0.05111 -2.1951,0.19534c-0.30374,0.06134 -0.59321,0.20362 -0.90247,0.22308c-0.32663,0.02056 -0.62448,-0.20316 -0.94679,-0.25993c-0.22997,-0.0405 -0.8303,0.15722 -1.05971,0.22786c-0.9238,0.28441 -1.45413,1.07943 -2.24153,1.5314c-0.36844,0.07682 -0.88066,0.09682 -1.22922,0.24139c-0.4617,0.19149 -0.65324,0.62719 -1.04218,0.85077c-0.29952,0.17219 -0.68856,0.06823 -1.02781,0.13354c-0.32876,0.06329 -0.6229,0.24568 -0.93497,0.36694c-0.68209,0.26505 -0.79165,0.97625 -1.66717,0.2726c-0.15202,-0.12217 -0.10157,-0.37696 -0.16584,-0.5611c-0.11449,-0.328 -0.22558,-0.45146 -0.42526,-0.76258l-0.14696,-0.45394c0,0 -0.11173,-0.35452 0.21513,-0.49482z" fill="#36760b"/><path d="M207.66027,156.61452c0.9659,-0.73974 2.07657,-0.57189 3.0876,-1.12132c0.52814,-0.287 0.63832,-0.57212 1.27974,-0.7026c0.57209,-0.11638 1.19797,0.10885 1.73716,-0.09528c-0.01355,-0.02922 -0.02385,-0.06053 -0.03036,-0.09354c-0.01483,-0.07517 -0.00807,-0.14958 0.01594,-0.21685l0.13401,-0.39838l0.01205,0.00405l0.00091,-0.03762c0.18575,-0.33711 0.32467,-0.68441 0.68886,-0.88994c0.28619,-0.16151 0.6077,-0.17574 0.92896,-0.124c0.15359,-0.07594 0.29796,-0.13162 0.41379,-0.15984c0.67306,-0.16398 1.17229,0.19609 1.85637,0.24175c0.64005,0.04272 1.20363,-0.21914 1.83191,-0.26455c0.34166,-0.02469 0.66773,0.17924 1.01013,0.18877c0.13567,0.00377 0.24253,-0.02313 0.33627,-0.06721c-0.04894,-0.03647 -0.09444,-0.09044 -0.13123,-0.16865c-0.1745,-0.37102 0.19653,-0.54552 0.19653,-0.54552l0.4856,-0.21627c0.6555,0.00444 1.54125,-0.01603 2.13128,0.33298c0.01951,0.01154 0.03782,0.02466 0.05528,0.03893c0.16729,0.08473 0.32448,0.18532 0.45911,0.31293c0.00196,0.00187 0.00963,0.01185 0.02169,0.02757c0.16834,-0.00001 0.36418,-0.07853 0.4796,-0.08727c0.07251,-0.00548 0.92816,0.01797 1.02559,0.03747c0.44387,0.08884 0.91253,0.20132 0.99801,0.50919c0.05948,0.03615 0.12074,0.07316 0.18464,0.11029l0.02134,0.11008l0.04537,-0.02803l0.23316,0.3774c0.02776,0.04266 0.04798,0.09124 0.05842,0.14424c0.03549,0.18003 -0.05273,0.35575 -0.20568,0.43923c0.13865,-0.01131 0.27934,-0.01886 0.40939,-0.05615l0.27407,-0.32516c0,0 0.27423,-0.30479 0.57903,-0.03057c0.3048,0.27423 0.03057,0.57903 0.03057,0.57903l-0.43527,0.46325c-0.18269,0.06417 -0.35788,0.1563 -0.5481,0.19251c-0.10649,0.02027 -0.23748,-0.09159 -0.32412,-0.02645c-0.10668,0.08021 -0.03771,0.28919 -0.13974,0.37523c-0.4363,0.36789 -1.16088,0.40427 -1.6958,0.49538c-0.37754,-0.11615 -1.09949,-0.46607 -1.50887,-0.24302c-0.46681,0.25435 -0.75077,0.55111 -1.33742,0.59882c-0.34204,0.02782 -0.69199,0.07279 -1.02946,0.0105c-0.39183,-0.07233 -0.75001,-0.41944 -1.20275,-0.32402c-0.4147,0.08741 -0.81158,0.44361 -1.1932,0.60435c-0.99158,0.41769 -2.3114,0.44229 -3.21682,-0.185c-0.47741,0.20617 -0.84009,0.64468 -1.29632,0.8992c-0.44879,0.25038 -1.23675,0.47007 -1.75176,0.46696c-0.37362,-0.00225 -1.0328,-0.42968 -1.38141,-0.36724c-0.26612,0.04765 -0.35955,0.4289 -0.60686,0.53813c-1.02064,0.45077 -2.12296,-0.07537 -3.04128,-0.4912c0,0 -0.37344,-0.16927 -0.20415,-0.54271c0.04633,-0.10219 0.10794,-0.16375 0.17301,-0.19924c0.04244,-0.05759 0.08515,-0.09062 0.08515,-0.09062z" fill="#797979"/><path d="M212.05538,154.69241c-0.26889,0.22813 -0.49704,-0.04076 -0.49704,-0.04076l-0.22158,-0.27014c-0.36695,-0.6468 -0.43413,-1.2927 -0.55388,-2.02011c-0.21471,-1.31913 -0.25148,-2.98573 0.06967,-4.27077c0.1429,-0.57176 0.06202,-1.20062 0.16147,-1.77927c0.17023,-0.99046 0.59554,-1.93279 0.74459,-2.9115c0,0 0.0557,-0.3482 0.4039,-0.29251c0.34821,0.05569 0.29251,0.4039 0.29251,0.4039c-0.16348,0.98361 -0.57469,1.92173 -0.74554,2.91722c-0.08055,0.46934 -0.06654,0.95746 -0.12277,1.43072c-0.03034,0.25525 -0.14084,0.49559 -0.18239,0.74925c-0.06115,0.37319 0.00999,0.75636 0.00364,1.13448c-0.01429,0.85038 -0.06994,1.65932 0.07081,2.50392c0.10441,0.63422 0.14273,1.22452 0.46935,1.78306l0.148,0.16547c0,0 0.22813,0.2689 -0.04076,0.49704z" fill="#4fae10"/><path d="M211.50308,153.93167c-0.03521,-0.01659 -0.06826,-0.03717 -0.09844,-0.06262c-0.15631,-0.13184 -0.12484,-0.38985 -0.1726,-0.58868c-0.14264,-0.59394 -0.12951,-1.25483 -0.0965,-1.85923c0.0811,-0.69887 0.16159,-1.39695 0.25568,-2.09259c-0.01047,-0.00933 -0.02097,-0.01897 -0.03154,-0.02889c-0.16849,-0.1582 0.0219,-1.11988 0.04961,-1.35938c0.15903,-1.37499 0.3582,-2.59976 0.89605,-3.81665c-0.00226,-0.00339 -0.00463,-0.00671 -0.0071,-0.00995l-0.0256,-0.0041l0.00325,-0.02034c-0.00526,-0.00481 -0.01086,-0.00938 -0.01683,-0.01369c0,0 -0.16557,-0.17731 -0.07497,-0.37513c-0.06262,0.00625 -0.34198,0.01635 -0.39277,-0.2922c-0.05642,-0.34276 0.28038,-0.40346 0.29044,-0.40519c0.34753,-0.16339 0.66504,-0.30175 1.03503,-0.41053c0.06608,-0.03347 0.15189,-0.05159 0.251,-0.014c0.06582,0.01699 0.13456,0.05528 0.18419,0.1349c0.05787,0.07382 0.07041,0.15151 0.0639,0.21918c0.00131,0.09292 -0.03414,0.16162 -0.0793,0.21129c0.00968,0.27837 0.00494,0.55748 -0.0112,0.83548c-0.23207,0.88183 0.00175,1.711 0.14717,2.59437c0.24144,1.46671 0.6249,2.81729 1.17842,4.19567c0.26217,0.65285 0.4945,1.32393 0.93424,1.87676c0.07601,0.03876 0.14673,0.1132 0.16989,0.25392c0.05728,0.34796 -0.29068,0.40523 -0.29068,0.40523l-0.14828,0.01066c-0.48328,0.22342 -1.00693,0.16457 -1.48392,0.33419c-0.17174,0.17368 -0.34653,0.34949 -0.37213,0.36391c-0.01051,0.00592 -0.04248,0.01446 -0.08844,0.02458c-0.13413,0.18013 -0.267,0.37322 -0.49655,0.47541c-0.42246,0.18807 -0.85927,0.14006 -1.29285,0.27151c0,0 -0.33816,0.1 -0.43816,-0.23817c-0.1,-0.33816 0.23816,-0.43815 0.23816,-0.43815c0.00651,-0.00188 0.01302,-0.00373 0.01953,-0.00554c-0.04195,-0.05381 -0.07415,-0.11155 -0.0987,-0.17202zM212.53089,146.85582c-0.01047,0.0474 -0.02077,0.09482 -0.03093,0.14226c0.01504,-0.01889 0.032,-0.03626 0.05068,-0.05178c-0.0067,-0.03014 -0.01329,-0.06029 -0.01975,-0.09047z" fill="#4fae10"/><path d="M224.53936,151.38325c0.00662,-0.00139 0.01324,-0.00275 0.01989,-0.00408c0,0 0.34622,-0.06695 0.41247,0.27403c0.06624,0.34099 -0.27998,0.40793 -0.27998,0.40793c-0.44539,0.08301 -0.81139,0.32425 -1.27285,0.35273c-0.25075,0.01548 -0.45731,-0.09255 -0.65905,-0.18869c-0.04547,0.01213 -0.07776,0.01926 -0.08982,0.01888c-0.02935,-0.00091 -0.26523,-0.07472 -0.49741,-0.14805c-0.50145,0.06948 -0.93959,0.3598 -1.47131,0.38515l-0.1366,0.05835c0,0 -0.33532,0.10873 -0.444,-0.22132c-0.04396,-0.13349 -0.01528,-0.23077 0.03447,-0.29931c0.13708,-0.6835 0.03574,-1.37564 -0.03075,-2.06549c-0.1404,-1.45648 -0.41909,-2.8111 -0.87718,-4.20235c-0.2759,-0.83792 -0.44842,-1.66882 -1.0589,-2.33317c-0.1418,-0.23546 -0.274,-0.47707 -0.39305,-0.72463c-0.06289,-0.02278 -0.12589,-0.06662 -0.16733,-0.14837c-0.03681,-0.05614 -0.06129,-0.1297 -0.04374,-0.2206c0.00758,-0.09217 0.05106,-0.15699 0.10174,-0.20186c0.0708,-0.07805 0.15532,-0.10139 0.22936,-0.1023c0.37852,-0.07379 0.72398,-0.09781 1.1076,-0.11367c0.00973,-0.00307 0.33673,-0.10374 0.44377,0.2214c0.09637,0.29267 -0.1564,0.4113 -0.21488,0.43443c0.17118,0.13145 0.10541,0.36186 0.10541,0.36186c-0.00331,0.00649 -0.00619,0.01303 -0.00866,0.01963l0.01222,0.01629l-0.02086,0.01525c-0.00071,0.00396 -0.00129,0.00794 -0.00174,0.01193c1.03573,0.81748 1.77425,1.79637 2.546,2.92478c0.13442,0.19656 0.74452,0.94966 0.66739,1.16472c-0.00484,0.01349 -0.00976,0.02669 -0.01477,0.03963c0.40256,0.56467 0.79415,1.13767 1.18664,1.7111c0.30645,0.51284 0.62117,1.0841 0.76682,1.66796c0.04876,0.19546 0.19502,0.40646 0.11663,0.59293c-0.01513,0.036 -0.03505,0.06905 -0.05872,0.09961c0.00591,0.06402 0.00379,0.12913 -0.00879,0.19528zM220.4146,145.56463c0.02371,0.00503 0.04676,0.01246 0.06877,0.0221c-0.03078,-0.0368 -0.06169,-0.07351 -0.09271,-0.11014c0.0081,0.02931 0.01608,0.05865 0.02394,0.08803z" data-paper-data="{&quot;index&quot;:null}" fill="#4fae10"/><path d="M207.83285,156.38052c-0.16295,0.31273 -0.47568,0.14978 -0.47568,0.14978l-0.42291,-0.231c-0.45717,-0.63126 -0.4906,-1.24232 -0.6147,-1.9962c-0.21808,-1.3248 -0.35264,-2.53251 -0.30654,-3.87827c0,0 0.01207,-0.35243 0.3645,-0.34035c0.35243,0.01207 0.34035,0.3645 0.34035,0.3645c-0.04459,1.30134 0.0866,2.45782 0.2976,3.73957c0.0846,0.51388 0.07254,1.15284 0.37967,1.57691l0.28793,0.13939c0,0 0.31273,0.16295 0.14979,0.47567z" fill="#4fae10"/><path d="M226.68472,146.29343c0.30179,-0.1824 0.48419,0.11938 0.48419,0.11938l0.11175,0.18537c0.62757,0.95695 0.86551,1.96131 1.09679,3.0629c0.09942,0.47355 0.30363,1.02223 0.2847,1.51227c-0.0345,0.89326 -0.43542,1.66727 -0.75861,2.48295c0,0 -0.1299,0.32783 -0.45774,0.19794c-0.32783,-0.1299 -0.19794,-0.45774 -0.19794,-0.45774c0.29678,-0.74892 0.6674,-1.43971 0.70975,-2.25554c0.02184,-0.42069 -0.18577,-0.93052 -0.27072,-1.3365c-0.21173,-1.01187 -0.41679,-1.94003 -0.99565,-2.81896l-0.12594,-0.20788c0,0 -0.1824,-0.30179 0.11938,-0.4842z" fill="#4fae10"/><path d="M228.12673,154.92588c-0.80478,0.6594 -1.88206,1.10761 -2.93616,1.15489c-0.19328,0.00867 -0.74215,-0.06378 -0.91161,-0.13527c-0.18195,-0.07675 -0.22404,-0.33174 -0.45194,-0.16737c-0.23934,0.17262 -0.46148,0.37572 -0.72586,0.50681c-0.57444,0.09856 -1.37108,0.3677 -1.9493,0.18814c-0.02686,-0.00834 -0.37485,-0.32047 -0.52218,-0.28593c-0.26639,0.06245 -0.42177,0.36099 -0.67235,0.47089c-0.5979,0.26223 -1.59393,0.29847 -2.23264,0.2777c-0.48842,-0.01587 -0.90892,-0.02122 -1.3759,-0.17862c-0.21563,-0.07268 -0.65468,-0.41667 -0.87346,-0.41815c-0.20897,-0.00141 -0.33216,0.25498 -0.48329,0.3993c-0.59771,0.48406 -1.51823,1.04263 -2.30058,1.02732c-0.169,-0.00331 -0.3468,0.00528 -0.50386,-0.05723c-0.07665,-0.03051 -0.55588,-0.52206 -0.76476,-0.32255c-0.07145,0.06824 -0.0377,0.20241 -0.10011,0.279c-0.13878,0.17033 -0.29407,0.33989 -0.4881,0.44297c-0.26977,0.14332 -0.75384,0.09871 -1.04131,0.0866c-0.76675,-0.03232 -1.3657,-0.13782 -1.93377,-0.61579c-0.19107,0.01162 -0.33142,-0.14363 -0.33142,-0.14363c-0.52817,-0.59349 -1.1943,-0.82392 -1.53042,-1.61588c-0.25609,-0.60341 -0.29011,-1.43759 -0.41649,-2.07867c-0.15941,-0.8086 -0.48899,-1.7515 -0.41603,-2.57979c0.12466,-1.41526 0.83062,-3.41345 1.89724,-4.36553c0.3591,-0.64973 0.79735,-0.91676 1.34551,-1.42086c0.65825,-0.60534 1.26553,-1.22023 2.02129,-1.71037c1.39569,-0.90518 3.04816,-1.17006 4.64881,-1.48562c1.12569,-0.22192 2.27601,-0.51756 3.42331,-0.42885c0.72957,0.03675 1.48469,-0.06356 2.19815,0.0385c0.474,0.06779 0.93229,0.22468 1.38557,0.37898c0.6719,0.22872 1.26977,0.18377 1.927,0.50445c1.65984,0.8099 2.92186,2.01581 3.79059,3.62868c0.29671,0.55087 0.59544,0.99335 0.71797,1.6149c0.38644,0.68061 0.30388,1.41934 0.57397,2.1276c0.06089,0.15967 0.20346,0.28394 0.24719,0.44913c0.14069,0.53142 -0.00181,1.68886 -0.16198,2.20822c-0.04488,0.14553 -0.19608,0.24019 -0.24929,0.38288c-0.14583,0.39104 -0.21212,0.81421 -0.40256,1.18558l-0.08973,0.22024c0,0 -0.03001,0.07231 -0.09539,0.14062zM209.96708,155.35178c0.12299,0.00236 0.21438,0.19555 0.33229,0.16051c0.09786,-0.02908 0.05094,-0.20009 0.10076,-0.28919c0.08511,-0.15221 0.16936,-0.31327 0.30044,-0.42828c0.45181,-0.39638 1.7711,-0.7624 2.35891,-0.53226c0.09993,0.03912 0.06784,0.2067 0.1287,0.29508c0.03143,0.04565 -0.04889,-0.10792 -0.0371,-0.16208c0.04408,-0.20264 0.08999,-0.41345 0.20048,-0.58894c0.3809,-0.60497 1.02327,-0.92022 1.63257,-1.22819c0.62262,-0.12275 1.16427,-0.1397 1.7708,0.09909c0.12203,0.04805 0.20979,0.17666 0.33885,0.19994c0.22926,0.04135 0.5806,-0.26225 0.73654,-0.3179c0.32777,-0.11698 1.26689,-0.35056 1.61419,-0.30006c0.27699,0.04028 0.47438,0.39646 0.75315,0.37133c0.29985,-0.02704 0.88499,-0.85631 1.12157,-0.98228c0.05696,-0.03033 1.09131,-0.23069 1.13295,-0.23195c0.64261,-0.01948 2.15969,0.57065 2.02174,1.34715c0.15992,-0.25701 0.49774,-0.38037 0.79457,-0.43967c1.17624,-0.23499 1.87551,0.24907 2.40429,1.29757l0.1875,0.15212c0.3678,-0.73556 0.52847,-1.47894 0.63276,-2.28707c0.01154,-0.08943 0.10229,-0.63671 0.05905,-0.77401c-0.09552,-0.30336 -0.26926,-0.58266 -0.33214,-0.89442c-0.12065,-0.59812 -0.16731,-1.08817 -0.4681,-1.61792c-0.11705,-0.59375 -0.38875,-0.98475 -0.67096,-1.51104c-1.33598,-2.49157 -3.76916,-3.68345 -6.4916,-4.08882c-0.68564,-0.10209 -1.43697,0.00266 -2.14288,-0.0329c-1.06352,-0.09751 -2.1659,0.20941 -3.20981,0.41521c-1.49867,0.29546 -3.06111,0.52664 -4.36862,1.37382c-0.71316,0.46209 -1.28328,1.05028 -1.9049,1.62113c-0.54396,0.49954 -0.9149,0.69179 -1.25689,1.32525c-0.96314,0.88104 -1.59884,2.62506 -1.72343,3.92045c-0.07104,0.73862 0.26075,1.63711 0.40295,2.3584c0.11855,0.60131 0.14851,1.36759 0.37529,1.93766c0.17646,0.44358 0.5796,0.7084 0.95316,0.99442c0.45513,-0.79745 1.23061,-1.18178 2.2529,-1.16212zM209.82495,157.48984c0.04986,0.00233 0.58522,0.0437 0.69837,-0.0149c0.24034,-0.12446 0.252,-0.50841 0.47923,-0.65548c0.17786,-0.11512 0.40905,-0.13136 0.62088,-0.13609c0.304,-0.0068 0.55902,0.24001 0.83257,0.37279c0.33059,0.16046 0.66799,-0.12015 0.92451,-0.23856c0.44608,-0.20591 0.76366,-0.2974 1.14822,-0.61107c0.27427,-0.25143 0.50842,-0.5545 0.92823,-0.57258c0.33097,-0.01425 0.54564,0.21533 0.81228,0.34275c0.3315,0.1584 0.65565,0.22368 1.01852,0.23842c0.69639,0.02829 1.74538,0.09164 2.39819,-0.20805c0.353,-0.16206 0.3982,-0.45599 0.82917,-0.51582c0.30605,-0.0425 0.58266,0.20613 0.8712,0.31667c0.36872,0.14126 1.12749,-0.13665 1.50044,-0.19487c0.51759,-0.24684 0.59321,-0.64881 1.2982,-0.56005c0.24072,0.0303 0.42459,0.26441 0.66521,0.29543c0.87496,0.11283 1.93595,-0.29131 2.64754,-0.81713c-0.0253,-0.01605 -0.03974,-0.02826 -0.03974,-0.02826l-0.42732,-0.37147c-0.18648,-0.35957 -0.45217,-0.88045 -0.85165,-1.0718c-0.49448,-0.23687 -1.56355,0.31258 -1.95188,0.48593c-0.51785,-0.81179 -1.47678,-1.74441 -2.54809,-1.16031c-0.5264,0.287 -0.7277,0.9878 -1.41148,1.06243c-0.33545,0.03662 -0.60715,-0.31916 -0.93966,-0.37669c-0.78932,-0.13655 -1.56822,0.69618 -2.35072,0.61796c-0.19181,-0.01917 -0.34243,-0.17889 -0.52222,-0.24845c-0.4062,-0.15717 -0.78352,-0.17002 -1.20213,-0.0875c-0.40981,0.21316 -0.95183,0.45399 -1.19799,0.87518c-0.27474,0.47008 -0.04898,0.99319 -0.85282,1.14918c-0.19236,0.03733 -0.2849,-0.28163 -0.46419,-0.3607c-0.1959,-0.0864 -0.99723,0.16126 -1.19863,0.2261c-0.53379,0.17187 -0.43097,0.81339 -0.95436,1.03809c-0.20137,0.08646 -0.42908,-0.11243 -0.64821,-0.1098c-0.79017,0.0095 -1.30178,0.24275 -1.5908,0.90009c0.43087,0.35701 0.89509,0.39117 1.47915,0.41852z" fill="#525252"/></g><path d="M216.65127,168.43911l-5.74965,-13.44947" fill="none" stroke="#525252" stroke-width="2.5" stroke-linecap="round"/><path d="M225.30213,152.71797l-2.65897,14.83786" fill="none" stroke="#525252" stroke-width="2.5" stroke-linecap="round"/><path d="M219.8206,167.88292l-2.15058,-14.94372" fill="none" stroke="#525252" stroke-width="2.5" stroke-linecap="round"/></g><path d="M244.47937,190.13613c0.06223,0.37806 -0.28044,0.43447 -0.28044,0.43447c-2.23167,0.36737 -4.559,0.75048 -6.79066,1.11785c-1.14461,0.18842 -2.31204,0.63682 -3.46812,0.67636c-0.84592,0.02893 -1.70063,-0.1001 -2.53653,0.14578c-0.51515,0.15152 -0.9467,0.42629 -1.48597,0.51931c0,0 -0.34268,0.05641 -0.40491,-0.32165c-0.06223,-0.37806 0.28045,-0.43447 0.28045,-0.43447c0.50342,-0.07794 0.90958,-0.35535 1.39211,-0.49636c0.89858,-0.2626 1.80548,-0.14596 2.71505,-0.17683c1.12446,-0.03817 2.26854,-0.48472 3.38345,-0.66825c2.23167,-0.36737 4.46335,-0.73474 6.69501,-1.1021l0.09565,-0.01575c0,0 0.34268,-0.05641 0.40491,0.32165z" fill="#9d4400" stroke="none" stroke-width="0.5" stroke-linecap="butt"/><path d="M254.04368,188.56169c0.06224,0.37806 -0.28044,0.43447 -0.28044,0.43447c-1.0999,0.18106 -2.24761,0.36999 -3.34751,0.55105c0,0 -0.34268,0.05641 -0.40491,-0.32165c-0.06223,-0.37806 0.28044,-0.43447 0.28044,-0.43447c1.0999,-0.18106 2.19979,-0.36212 3.29968,-0.54318l0.04782,-0.00787c0,0 0.34268,-0.05641 0.40492,0.32165z" fill="#9d4400" stroke="none" stroke-width="0.5" stroke-linecap="butt"/><path d="M202.28924,206.81323v-7.7164h71.93806v7.7164z" fill="#ffffff" stroke="none" stroke-width="0" stroke-linecap="butt"/><g><path d="M250.47664,186.31493c-0.41435,0.38437 -0.80857,0.43186 -1.13372,0.34889c-0.41363,0.16331 -0.92212,0.16176 -1.35304,0.28181c-0.34097,0.095 -0.69442,0.16789 -1.05331,0.22876c-1.75305,1.08816 -3.14827,2.34631 -5.32932,1.49628l-0.6312,-0.06714c-0.47695,-0.03928 -0.90841,-0.34598 -1.14414,-0.80075c-0.11517,0.0968 -0.2009,0.16173 -0.23966,0.17702c-1.95865,0.77247 -3.30157,1.16971 -2.94942,-2.23654c0.06859,-0.66334 0.72969,-1.05044 1.12508,-1.54737c0.41953,-0.52729 0.91511,-0.93448 1.43227,-1.30372c-1.34895,0.54404 -2.89988,0.9895 -3.79011,-0.89454c-0.36721,0.43068 -0.92932,0.98067 -1.52645,1.25916c0.08002,0.3645 0.03853,0.80918 -0.33014,1.27131c-0.90324,1.13224 -1.96391,0.10473 -1.96391,0.10473c-0.42947,-0.43734 -0.95137,-0.78681 -1.28842,-1.31203c-0.24481,-0.38147 -0.40538,-0.8454 -0.5226,-1.32919c-0.49146,-0.44008 -0.58966,-1.19814 -0.41919,-2.40206c-0.24668,-1.4818 -0.4904,-2.96425 -0.73074,-4.44704c-0.24752,-1.52713 -0.49795,-3.07449 0.3811,-4.42186c1.71695,-2.63166 5.51268,-2.43609 8.1747,-2.8743c1.5042,-0.24761 3.08697,-0.53312 4.61172,-0.32571l0.71751,-0.11811c0.75703,-0.12462 1.48219,0.4514 1.61967,1.2866c0.07521,0.45687 -0.04103,0.89664 -0.28566,1.22171l-0.73479,0.98713c0.04363,0.57942 -0.556,1.07586 -0.73878,1.64524c-0.2002,0.62366 -0.21987,1.31932 -0.4698,1.91951c-0.6152,1.47737 -1.51637,2.78302 -2.24998,4.19074c-0.18186,0.34895 -0.37098,0.6931 -0.55749,1.03898c0.61712,-0.23068 1.24324,-0.43539 1.87464,-0.61708c0.75657,-0.14948 1.70244,-1.04462 2.26974,-0.44845c0.03007,0.0316 0.05859,0.0642 0.08563,0.09777c0.09305,-0.1091 0.18687,-0.21779 0.2812,-0.3262c0.45974,-0.84806 0.91456,-1.64928 1.23863,-2.6027c0.18753,-0.55173 0.58387,-2.58239 0.97585,-2.91312c0.67862,-0.57259 1.59649,-1.29212 2.42411,-0.97156c1.27887,0.49535 1.02914,2.39132 0.90991,3.48194c0.09688,0.1677 0.16642,0.35772 0.20029,0.56346l0.13895,0.84404c0.32456,2.03644 0.45247,4.14955 0.62329,6.20222c0.00255,0.03071 0.00542,0.06132 0.00855,0.09185c0.1446,0.40702 0.26625,0.78956 0.36072,1.06686l0.11696,0.00129c0,0 0.91869,1.18063 -0.12861,2.15216z" fill="#8f3e15" stroke="none" stroke-width="0.5" stroke-linecap="butt"/><path d="M248.57486,172.04772c0.53686,3.26126 1.02674,6.54086 1.72307,9.77047c0.30221,1.04977 0.77809,2.43309 0.31516,3.50091c-0.56506,1.30341 -2.36761,1.58175 -3.48507,1.76722c-3.29178,0.54635 -6.58503,1.084 -9.87754,1.62599c0,0 -0.10995,0.0181 -0.25174,-0.00818c-0.13836,0.1691 -0.47023,0.46002 -0.93353,0.12047c-0.62041,-0.45469 -0.2357,-1.13051 -0.2357,-1.13051c0.85408,-1.49939 1.6059,-3.30493 2.85287,-4.46371c0.41841,-0.3888 0.93291,-0.6447 1.33049,-1.0596c1.09629,-1.14408 1.83182,-2.66163 2.86124,-3.88384c0.9672,-1.14831 1.84808,-2.11784 2.53496,-3.52015c0.60462,-1.23286 1.14291,-2.50003 1.74521,-3.73078l0.28232,-0.53162c0,0 0.36643,-0.68881 0.99781,-0.25404c0.63136,0.43477 0.26493,1.12358 0.26493,1.12358l-0.14049,0.26357zM246.11614,185.59735c0.76915,-0.12661 1.56543,-0.17276 2.29096,-0.4886c0.02054,-0.00895 0.82679,-0.39333 0.89675,-0.56439c0.24386,-0.59625 -0.25051,-1.78884 -0.41035,-2.33957c-0.58369,-2.7013 -1.02614,-5.43614 -1.46868,-8.16739c-0.23773,0.51993 -0.47746,1.03906 -0.72891,1.55176c-0.74567,1.5187 -1.69411,2.59432 -2.74195,3.83819c-0.84608,1.00437 -1.4763,2.16639 -2.28051,3.2019c-0.61611,0.79331 -1.31584,1.21969 -2.02556,1.8623c-0.69783,0.63184 -1.22387,1.53567 -1.70389,2.45105c2.72405,-0.44842 5.44807,-0.89684 8.17212,-1.34526z" fill="#763312" stroke="none" stroke-width="0.5" stroke-linecap="butt"/><path d="M231.47864,185.56607c-0.73934,0.05185 -0.813,-0.77424 -0.813,-0.77424c-0.07363,-0.83175 -0.10824,-1.82567 -0.35166,-2.63255c-0.18954,-0.6283 -0.53429,-1.19911 -0.69416,-1.83647c-0.46511,-1.85446 -0.63855,-3.86061 -0.94959,-5.7501c-0.23145,-1.40598 -0.94389,-3.12367 0.32566,-4.13779c0.54958,-0.43901 2.0785,-0.40618 2.76412,-0.51904c2.91873,-0.48047 5.94517,-1.03866 8.92161,-0.85944l0.7771,-0.12793v0c0.40354,-0.06643 0.79101,0.24638 0.86547,0.69867c0.03163,0.19216 0.00168,0.37857 -0.07419,0.53453l-0.40062,0.84329l-0.02059,-0.01274c-0.01882,0.05021 -0.03914,0.09975 -0.06116,0.14853c-0.1604,0.35541 -0.5651,0.69903 -0.99167,1.01573c0.25853,0.49872 -0.12167,0.94226 -0.12167,0.94226l-0.54083,0.63007c-1.36166,1.35539 -2.11638,2.80794 -3.09909,4.48067c-0.7684,1.30793 -1.8106,2.49128 -2.79547,3.61379c-0.0443,0.11524 -0.08943,0.22976 -0.13562,0.3434c-0.3388,0.83371 -0.7835,1.57413 -1.11477,2.414l-0.06478,0.04667l0.02624,0.02119l-0.43156,0.68024c-0.10783,0.16996 -0.27541,0.29169 -0.47717,0.32491c-0.16696,0.02749 -0.33116,-0.00995 -0.47159,-0.09531c-0.02281,0.00337 -0.04648,0.00595 -0.07105,0.00767zM231.84319,182.16359c0.31839,-0.5687 0.75824,-1.103 1.21951,-1.60659c0.59008,-1.61533 1.09804,-3.3004 2.0335,-4.69419c0.75709,-1.12802 1.88922,-2.35664 2.80537,-3.33018c0.36049,-0.38306 1.0942,-1.27891 1.81089,-1.85032c-2.57568,0.00179 -5.16039,0.4562 -7.68283,0.87143c-0.69506,0.11442 -1.56383,0.0935 -2.22542,0.30231c-0.2228,0.07032 -0.00381,0.52544 0.04837,0.78144c0.17641,0.86551 0.2889,1.755 0.4324,2.6267c0.25277,1.53548 0.39366,3.16381 0.76604,4.67194c0.15184,0.61495 0.4962,1.1606 0.67556,1.7673c0.04414,0.14932 0.08267,0.30315 0.11661,0.46014z" fill="#763312" stroke="none" stroke-width="0.5" stroke-linecap="butt"/><path d="M244.56558,166.27301l4.52062,3.79089l-14.35829,21.27684l-4.52062,-3.79089z" fill="#af4c00" stroke="none" stroke-width="0" stroke-linecap="butt"/><path d="M225.91699,172.31623l-0.59595,-3.62028l24.92387,-4.10285l0.59596,3.62027z" fill="#af4c00" stroke="none" stroke-width="0" stroke-linecap="butt"/><path d="M229.38523,193.44297l-0.6168,-3.74691l24.92387,-4.10285l0.6168,3.74692z" fill="#af4c00" stroke="none" stroke-width="0" stroke-linecap="butt"/><path d="M225.83093,172.00391l3.71261,-0.61115l2.94793,17.908l-3.71261,0.61115z" fill="#af4c00" stroke="none" stroke-width="0" stroke-linecap="butt"/><path d="M247.3642,168.4592l3.39629,-0.55909l2.94793,17.908l-3.39629,0.55909z" fill="#af4c00" stroke="none" stroke-width="0" stroke-linecap="butt"/><path d="M225.33293,168.7751l-0.17638,-1.07142l24.89062,-4.09737l0.17637,1.07142z" fill="#a24600" stroke="none" stroke-width="0" stroke-linecap="butt"/><path d="M228.9273,170.44761c0.06223,0.37806 -0.28044,0.43447 -0.28044,0.43447c-0.72463,0.11928 -1.62552,0.26759 -2.35015,0.38688c0,0 -0.34268,0.05641 -0.40491,-0.32165c-0.06223,-0.37806 0.28044,-0.43447 0.28044,-0.43447c0.72463,-0.11928 1.44926,-0.23857 2.17389,-0.35786l0.17626,-0.02901c0,0 0.34268,-0.05641 0.40491,0.32165z" fill="#9d4400" stroke="none" stroke-width="0.5" stroke-linecap="butt"/><path d="M250.28693,167.13122c0.06223,0.37806 -0.28044,0.43447 -0.28044,0.43447c-1.42967,0.23534 -3.27063,0.5384 -4.70029,0.77374c-2.52641,0.41589 -5.05283,0.83177 -7.57924,1.24766c0,0 -0.34268,0.05641 -0.40491,-0.32165c-0.06223,-0.37806 0.28044,-0.43447 0.28044,-0.43447c2.52641,-0.41589 5.05283,-0.83177 7.57924,-1.24766c1.42967,-0.23534 2.85935,-0.4707 4.28902,-0.70604l0.41127,-0.0677c0,0 0.34268,-0.05641 0.40491,0.32165z" fill="#9d4400" stroke="none" stroke-width="0.5" stroke-linecap="butt"/><path d="M232.02536,188.53443c0.06223,0.37806 -0.28045,0.43448 -0.28045,0.43448c-0.74421,0.12251 -1.54718,0.25468 -2.29139,0.3772c0,0 -0.34268,0.05641 -0.40491,-0.32165c-0.06223,-0.37806 0.28044,-0.43447 0.28044,-0.43447c0.74421,-0.12251 1.48843,-0.24501 2.23264,-0.36753l0.05875,-0.00967c0,0 0.34268,-0.05641 0.40492,0.32165z" fill="#9d4400" stroke="none" stroke-width="0.5" stroke-linecap="butt"/><path d="M253.2248,184.97811c0.06223,0.37806 -0.28045,0.43447 -0.28045,0.43447c-0.3721,0.06125 -0.86172,0.14185 -1.23382,0.2031c0,0 -0.34268,0.05641 -0.40491,-0.32165c-0.06223,-0.37806 0.28044,-0.43447 0.28044,-0.43447c0.3721,-0.06125 0.74422,-0.12251 1.11632,-0.18376l0.11751,-0.01934c0,0 0.34268,-0.05641 0.40491,0.32165z" fill="#9d4400" stroke="none" stroke-width="0.5" stroke-linecap="butt"/><path d="M246.55181,171.71818c0.00928,-0.11628 0.06156,-0.28724 0.28314,-0.32371c0.34268,-0.05641 0.40491,0.32165 0.40491,0.32165l-0.04569,0.34867c-1.65347,2.55482 -3.3639,5.14048 -5.03229,7.7114c-0.43297,0.4392 -0.64256,1.02492 -1.02426,1.50422c-0.94228,1.18321 -1.89138,2.45089 -2.73392,3.75173c-0.36297,0.5604 -0.59269,1.06965 -1.06288,1.55226c0,0 -0.2506,0.25665 -0.49248,-0.02663c-0.24186,-0.28327 0.00875,-0.53993 0.00875,-0.53993c0.44326,-0.45281 0.63587,-0.91515 0.97797,-1.44672c0.85228,-1.32431 1.82014,-2.61322 2.77947,-3.81342c0.37804,-0.47295 0.589,-1.05297 1.01659,-1.49475c1.61821,-2.52427 3.30646,-5.03985 4.92069,-7.54479z" fill="#9d4400" stroke="none" stroke-width="0.5" stroke-linecap="butt"/><path d="M235.42422,166.09801l-5.68237,-19.77377" fill="none" stroke="#525252" stroke-width="2.5" stroke-linecap="round"/><path d="M240.65241,145.09766l0.46094,20.06682" fill="none" stroke="#525252" stroke-width="2.5" stroke-linecap="round"/><g stroke="none" stroke-width="0.5" stroke-linecap="butt"><path d="M218.0582,145.27406c-0.00129,0.01668 -0.00302,0.03373 -0.00525,0.05115c-0.09036,0.70702 -0.79738,0.61668 -0.79738,0.61668c-0.41029,-0.06539 -0.85428,-0.02072 -1.23089,-0.1962c-0.87853,-0.40935 -1.35572,-1.65055 -1.72938,-2.45812c-0.95619,-2.06652 -0.65337,-4.68912 -0.36038,-6.86152c0.07097,-0.52616 -0.18353,-1.07362 -0.06613,-1.5914c0.06712,-0.29606 0.32535,-0.51932 0.42168,-0.80722c0.26679,-0.7974 0.42497,-1.5692 0.75592,-2.36669c0.96576,-2.32643 2.81285,-3.76709 4.917,-5.06409c0.78613,-0.48458 1.37454,-1.13327 2.09163,-1.68402c2.18393,-1.67731 5.07593,-2.61084 7.72304,-3.12654c0.59503,-0.03202 1.16884,0.0316 1.74447,0.08011c0.10176,-0.14863 0.25957,-0.25903 0.45026,-0.29662l0.83935,-0.16546l0.00857,0.04339l0.08978,-0.05576c0.64604,0.05039 1.09063,0.06941 1.53283,0.12846c0.03358,-0.00745 0.06681,-0.01454 0.09966,-0.02123l-0.00718,-0.10207l0.8506,-0.05989c0.11216,-0.00953 0.22165,0.00784 0.32133,0.04731c0.22265,-0.04647 0.44557,-0.09461 0.67017,-0.13819c1.42129,-0.27581 2.41625,0.17089 3.79784,0.38031c0.45399,0.06881 0.91628,-0.06277 1.37492,-0.0851c1.55542,-0.07572 4.05068,0.34071 5.35728,1.23499c0.70458,0.48223 0.88644,1.24936 1.63574,1.734c0.53507,0.36115 1.17444,0.73128 1.52426,1.29945c0.26818,0.43558 0.0655,1.0123 0.43683,1.4126c0.39162,0.42216 0.99256,0.63408 1.33363,1.09804c0.50594,0.68825 0.7941,1.6295 1.16823,2.39362c0.6866,1.40236 1.49702,3.05734 1.58998,4.65006c0.10611,1.81814 -0.71312,3.50409 -1.42874,5.11126c-0.40749,0.24095 -0.74945,0.70374 -1.22245,0.72284c-0.65314,0.02638 -1.0021,-0.84025 -1.52084,-1.23797c-0.40315,-0.30911 -0.99012,-0.2671 -1.43599,-0.51058c-0.1744,-0.09523 -0.28269,-0.30934 -0.47467,-0.36061c-0.71794,-0.19172 -1.61648,0.61731 -2.33492,0.34848c-1.28873,-0.48221 -0.96718,-1.61983 -1.99593,-2.04268c-0.48979,-0.20132 -1.38585,0.06056 -1.86601,0.15583c-0.5239,0.10396 -1.05679,0.16405 -1.56122,0.28466c0.0503,0.0756 0.08689,0.16215 0.10555,0.25679c0.07613,0.38622 -0.17523,0.76104 -0.56145,0.83718l-0.94427,0.18616c-0.15186,0.01234 -0.30005,0.04377 -0.44529,0.08845l-0.25621,0.38203v0c-0.1016,0.1515 -0.26101,0.26425 -0.4541,0.30232c-0.38622,0.07613 -0.76104,-0.17524 -0.83718,-0.56146c-0.017,-0.08623 -0.01767,-0.17187 -0.00417,-0.25376c-1.22646,0.23682 -2.43093,0.42737 -3.66938,0.50007c-0.55634,0.03265 -1.1118,-0.13718 -1.66836,-0.10867c-0.99073,0.05077 -2.50653,0.31491 -3.20107,1.05332c-0.4124,0.43845 -1.23545,2.08535 -1.722,2.21316c-0.55123,0.1448 -1.04596,-0.5598 -1.61588,-0.55885c-0.64069,0.13169 -1.41288,0.18069 -2.0043,0.4784c-0.72824,0.36658 -1.00732,1.27819 -1.6491,1.71059c-0.95927,0.64629 -2.07504,0.2148 -3.10733,0.75627z" fill="#3d850c"/><path d="M214.6873,141.74352c0.43439,-1.57221 1.16185,-3.30661 2.46932,-4.30981c0.44484,-0.34132 1.31322,-0.68876 1.86909,-0.77541c0.0744,-0.0116 0.92811,0.11554 1.10247,-0.09578c0.32136,-0.38947 0.22482,-1.01423 0.52324,-1.42154c1.24847,-1.70404 4.37306,-2.47582 6.34136,-2.10572c0.92994,-0.17444 1.13412,-0.62265 1.97349,-1.1078c1.13272,-0.6547 3.39246,-1.10778 4.68746,-1.01643c0.51406,0.03626 1.26153,0.37195 1.69966,0.62268c0.13563,0.07762 0.214,0.27873 0.37,0.28791c0.42188,0.02486 1.41277,-0.90845 1.83706,-1.04362c2.24211,-0.71427 4.8975,-0.3369 7.00382,0.53763c0.47841,0.15824 0.86326,0.55698 1.3536,0.67306c0.58733,0.13906 1.11268,-0.46814 1.66976,-0.70044c0.60238,-0.25119 1.54339,-0.63105 2.23743,-0.47797c1.37033,0.30223 2.861,2.02329 3.68198,3.06761c0.61019,0.77618 1.13364,2.28165 1.03936,3.30874c-0.0616,0.67109 -0.46972,1.01545 -0.62665,1.63619c-0.22727,0.8989 -0.58154,2.54399 -1.92416,2.60165c-0.42594,0.01829 -0.72938,-0.44163 -1.09406,-0.66246c-0.78277,-0.95654 -2.14191,-2.03061 -3.48192,-1.89542c-0.40391,0.04074 -1.37572,0.36312 -1.69958,0.25649c-0.37289,-0.12278 -0.56698,-0.54947 -0.89382,-0.76695c-1.21498,-0.80844 -2.81197,-0.6811 -4.19174,-0.27906c-0.04011,0.14095 -0.12302,0.26666 -0.2366,0.35902l-0.6261,0.52923l-0.08454,-0.10003l-0.13865,0.2279c-0.06342,-0.01677 -0.12685,-0.03353 -0.19027,-0.05029c-0.01999,0.00662 -0.04071,0.01204 -0.062,0.01652l-0.00179,0.07411l-0.66894,-0.01608c-1.27731,0.24175 -2.57456,0.08884 -3.81608,0.33958c-0.52804,0.10664 -1.03125,0.35397 -1.56889,0.38781c-0.56782,0.03574 -1.08562,-0.35317 -1.64594,-0.45187c-0.3998,-0.07041 -1.44342,0.27333 -1.84225,0.39613c-1.60596,0.49444 -2.52793,1.87653 -3.89677,2.66225c-0.64051,0.13355 -1.53098,0.16832 -2.13694,0.41965c-0.80265,0.3329 -1.13563,1.09033 -1.81177,1.47903c-0.52069,0.29934 -1.19703,0.11862 -1.7868,0.23216c-0.57153,0.11002 -1.08288,0.4271 -1.62539,0.63791c-1.18578,0.46078 -1.37626,1.69716 -2.89829,0.4739c-0.26427,-0.21239 -0.17658,-0.65532 -0.28831,-0.97544c-0.19904,-0.57021 -0.39217,-0.78484 -0.7393,-1.32571l-0.25549,-0.78915c0,0 -0.19423,-0.61632 0.374,-0.86023z" fill="#36760b"/><path d="M217.09108,145.96193c1.67917,-1.286 3.61001,-0.9942 5.36764,-1.94935c0.91815,-0.49894 1.10968,-0.99461 2.22476,-1.22144c0.99454,-0.20231 2.08262,0.18923 3.01996,-0.16564c-0.02355,-0.05081 -0.04147,-0.10522 -0.05279,-0.16262c-0.02577,-0.13068 -0.01403,-0.26004 0.02773,-0.37699l0.23297,-0.69256l0.02094,0.00705l0.00158,-0.0654c0.32292,-0.58605 0.56442,-1.18981 1.19755,-1.54711c0.49753,-0.28078 1.05645,-0.30551 1.61494,-0.21556c0.26701,-0.13201 0.51798,-0.22882 0.71937,-0.27788c1.17007,-0.28507 2.03798,0.34089 3.2272,0.42027c1.11269,0.07426 2.09245,-0.38096 3.18468,-0.45991c0.59394,-0.04292 1.16081,0.3116 1.75607,0.32817c0.23585,0.00655 0.42162,-0.04021 0.5846,-0.11685c-0.08507,-0.0634 -0.16419,-0.15723 -0.22814,-0.29319c-0.30336,-0.645 0.34165,-0.94835 0.34165,-0.94835l0.8442,-0.37597c1.13954,0.00771 2.67938,-0.02786 3.70513,0.57887c0.03391,0.02006 0.06575,0.04287 0.0961,0.06768c0.29083,0.1473 0.56409,0.32216 0.79815,0.54401c0.00341,0.00324 0.01673,0.02062 0.0377,0.04794c0.29266,-0.00002 0.63312,-0.13653 0.83377,-0.15171c0.12606,-0.00953 1.61355,0.03124 1.78293,0.06513c0.77166,0.15445 1.5864,0.34998 1.73499,0.8852c0.1034,0.06284 0.20989,0.12718 0.32098,0.19173l0.0371,0.19136l0.07888,-0.04874l0.40534,0.65609c0.04825,0.07417 0.08342,0.15861 0.10157,0.25075c0.06169,0.31296 -0.09167,0.61844 -0.35756,0.76358c0.24105,-0.01967 0.48562,-0.03278 0.7117,-0.09761l0.47646,-0.56528c0,0 0.47674,-0.52987 1.00662,-0.05315c0.52988,0.47673 0.05315,1.00661 0.05315,1.00661l-0.75669,0.80534c-0.3176,0.11156 -0.62215,0.27172 -0.95284,0.33468c-0.18512,0.03525 -0.41285,-0.15923 -0.56347,-0.04599c-0.18545,0.13943 -0.06556,0.50274 -0.24294,0.65231c-0.75848,0.63956 -2.01813,0.7028 -2.94805,0.86119c-0.65634,-0.20192 -1.9114,-0.81023 -2.62309,-0.42247c-0.81153,0.44217 -1.30519,0.95807 -2.32504,1.04101c-0.59462,0.04836 -1.20299,0.12655 -1.78966,0.01827c-0.68117,-0.12573 -1.30385,-0.72919 -2.09092,-0.5633c-0.72094,0.15196 -1.41089,0.77119 -2.07431,1.05064c-1.72382,0.72612 -4.01824,0.7689 -5.59229,-0.32162c-0.82996,0.35842 -1.46045,1.12074 -2.25358,1.56322c-0.7802,0.43527 -2.15003,0.81718 -3.04533,0.81178c-0.64951,-0.00391 -1.79547,-0.74696 -2.40151,-0.63843c-0.46265,0.08285 -0.62505,0.74562 -1.05499,0.93551c-1.77433,0.78364 -3.69067,-0.13102 -5.28712,-0.85391c0,0 -0.64919,-0.29427 -0.3549,-0.94347c0.08054,-0.17766 0.18765,-0.28467 0.30077,-0.34637c0.07378,-0.10012 0.14802,-0.15754 0.14802,-0.15754z" fill="#797979"/><path d="M224.73176,142.62043c-0.46746,0.39659 -0.86406,-0.07086 -0.86406,-0.07086l-0.38521,-0.46962c-0.63793,-1.12443 -0.75472,-2.2473 -0.96288,-3.51186c-0.37326,-2.29324 -0.43718,-5.19053 0.12113,-7.4245c0.24841,-0.99398 0.10782,-2.08722 0.28071,-3.09317c0.29594,-1.72186 1.03533,-3.36005 1.29443,-5.06148c0,0 0.09682,-0.60533 0.70216,-0.50852c0.60533,0.09682 0.50852,0.70216 0.50852,0.70216c-0.2842,1.70996 -0.99907,3.34083 -1.29608,5.07143c-0.14003,0.81591 -0.11569,1.66451 -0.21345,2.48724c-0.05274,0.44374 -0.24483,0.86156 -0.31707,1.30254c-0.10629,0.64876 0.01736,1.3149 0.00633,1.97223c-0.02483,1.47833 -0.12158,2.88465 0.1231,4.35294c0.1815,1.10257 0.24812,2.12876 0.81593,3.09975l0.25729,0.28767c0,0 0.39659,0.46746 -0.07086,0.86407z" fill="#4fae10"/><path d="M223.77161,141.29793c-0.06121,-0.02885 -0.11867,-0.06463 -0.17113,-0.10887c-0.27174,-0.2292 -0.21703,-0.67773 -0.30005,-1.0234c-0.24798,-1.03254 -0.22514,-2.18147 -0.16776,-3.23217c0.14098,-1.21496 0.2809,-2.42852 0.44448,-3.63785c-0.01819,-0.01623 -0.03646,-0.03298 -0.05482,-0.05022c-0.2929,-0.27501 0.03807,-1.94685 0.08623,-2.36322c0.27647,-2.39035 0.62272,-4.51955 1.55774,-6.63505c-0.00393,-0.00589 -0.00804,-0.01166 -0.01235,-0.01729l-0.0445,-0.00711l0.00565,-0.03536c-0.00914,-0.00835 -0.01887,-0.0163 -0.02925,-0.0238c0,0 -0.28783,-0.30825 -0.13034,-0.65214c-0.10886,0.01086 -0.59451,0.02841 -0.68281,-0.50798c-0.09809,-0.59587 0.48744,-0.70138 0.50492,-0.7044c0.60417,-0.28404 1.15615,-0.52458 1.79935,-0.7137c0.11488,-0.05819 0.26405,-0.08968 0.43634,-0.02433c0.11443,0.02953 0.23392,0.09611 0.3202,0.23451c0.10062,0.12834 0.12241,0.26338 0.1111,0.38102c0.00228,0.16154 -0.05935,0.28096 -0.13786,0.36731c0.01683,0.48394 0.00857,0.96915 -0.01949,1.45243c-0.40343,1.53302 0.00305,2.97449 0.25584,4.51017c0.41974,2.54979 1.08636,4.89771 2.04862,7.29395c0.45576,1.13495 0.85966,2.30157 1.62412,3.26264c0.13214,0.06737 0.25507,0.19679 0.29534,0.44143c0.09957,0.6049 -0.50532,0.70448 -0.50532,0.70448l-0.25779,0.01853c-0.84017,0.38842 -1.7505,0.28611 -2.57971,0.58098c-0.29855,0.30193 -0.60243,0.60756 -0.64694,0.63263c-0.01828,0.0103 -0.07385,0.02514 -0.15374,0.04273c-0.23317,0.31315 -0.46417,0.64883 -0.86323,0.82648c-0.73442,0.32695 -1.4938,0.24349 -2.24755,0.47201c0,0 -0.58787,0.17384 -0.76171,-0.41404c-0.17383,-0.58787 0.41404,-0.7617 0.41404,-0.7617c0.0113,-0.00328 0.02263,-0.00648 0.03396,-0.00962c-0.07292,-0.09356 -0.12891,-0.19392 -0.17159,-0.29904zM225.5584,128.99695c-0.01819,0.0824 -0.03611,0.16483 -0.05379,0.2473c0.02614,-0.03284 0.05564,-0.06303 0.08811,-0.09002c-0.01164,-0.05239 -0.02309,-0.10481 -0.03433,-0.15728z" fill="#4fae10"/><path d="M246.43451,136.86765c0.01151,-0.00242 0.02302,-0.00478 0.03457,-0.00709c0,0 0.60188,-0.1164 0.71705,0.47639c0.11515,0.59279 -0.48672,0.70918 -0.48672,0.70918c-0.77429,0.14431 -1.41055,0.56369 -2.21279,0.6132c-0.43592,0.0269 -0.795,-0.16089 -1.14571,-0.32802c-0.07904,0.02109 -0.1352,0.03349 -0.15616,0.03283c-0.05103,-0.0016 -0.46108,-0.1299 -0.86472,-0.25739c-0.87175,0.12079 -1.63342,0.62549 -2.55779,0.66957l-0.23748,0.10143c0,0 -0.58294,0.18902 -0.77187,-0.38476c-0.07641,-0.23206 -0.02656,-0.40118 0.05992,-0.52032c0.23831,-1.18824 0.06214,-2.39149 -0.05346,-3.59076c-0.24408,-2.53202 -0.72857,-4.88696 -1.52493,-7.30557c-0.47964,-1.45668 -0.77955,-2.90116 -1.84085,-4.05609c-0.24651,-0.40932 -0.47634,-0.82935 -0.6833,-1.25972c-0.10933,-0.0396 -0.21884,-0.11581 -0.29088,-0.25793c-0.06399,-0.09759 -0.10655,-0.22548 -0.07604,-0.3835c0.01318,-0.16024 0.08876,-0.27292 0.17687,-0.35093c0.12308,-0.13568 0.27002,-0.17625 0.39873,-0.17784c0.65804,-0.12829 1.2586,-0.17004 1.9255,-0.19761c0.01691,-0.00535 0.58538,-0.18035 0.77148,0.38488c0.16753,0.5088 -0.27189,0.71504 -0.37356,0.75523c0.29758,0.22852 0.18327,0.62908 0.18327,0.62908c-0.00576,0.01129 -0.01077,0.02266 -0.01505,0.03413l0.02124,0.02831l-0.03627,0.02652c-0.00124,0.00689 -0.00224,0.0138 -0.00303,0.02074c1.80056,1.42114 3.08444,3.1229 4.42608,5.08458c0.2337,0.34171 1.29429,1.65094 1.16023,2.02481c-0.00841,0.02345 -0.01696,0.0464 -0.02567,0.06888c0.69983,0.98164 1.38058,1.97778 2.06291,2.97465c0.53275,0.89156 1.07987,1.88465 1.33307,2.89965c0.08477,0.3398 0.33902,0.7066 0.20276,1.03078c-0.02631,0.06259 -0.06094,0.12004 -0.10208,0.17317c0.01029,0.1113 0.00659,0.22448 -0.01528,0.33948zM239.26382,126.75227c0.04122,0.00875 0.08128,0.02166 0.11954,0.03843c-0.05351,-0.06398 -0.10723,-0.1278 -0.16117,-0.19147c0.01408,0.05096 0.02795,0.10197 0.04162,0.15305z" data-paper-data="{&quot;index&quot;:null}" fill="#4fae10"/><path d="M217.39111,145.55513c-0.28328,0.54366 -0.82694,0.26038 -0.82694,0.26038l-0.73522,-0.40158c-0.79477,-1.09741 -0.85287,-2.15972 -1.06861,-3.47029c-0.37912,-2.3031 -0.61305,-4.40263 -0.53291,-6.74217c0,0 0.02098,-0.61268 0.63367,-0.59169c0.61267,0.02098 0.59168,0.63366 0.59168,0.63366c-0.07751,2.26231 0.15054,4.2728 0.51735,6.50105c0.14706,0.89336 0.12612,2.00414 0.66004,2.74137l0.50055,0.24232c0,0 0.54367,0.28328 0.26039,0.82694z" fill="#4fae10"/><path d="M250.16409,128.01926c0.52465,-0.3171 0.84175,0.20754 0.84175,0.20754l0.19427,0.32227c1.09099,1.66361 1.50464,3.40963 1.90672,5.32469c0.17284,0.82323 0.52785,1.77709 0.49494,2.62901c-0.05999,1.55289 -0.75696,2.89846 -1.3188,4.31647c0,0 -0.22583,0.56992 -0.79576,0.34409c-0.56992,-0.22582 -0.3441,-0.79575 -0.3441,-0.79575c0.51594,-1.30195 1.16024,-2.50288 1.23387,-3.92115c0.03797,-0.73136 -0.32295,-1.61765 -0.47064,-2.32343c-0.36808,-1.75908 -0.72457,-3.37264 -1.73088,-4.90061l-0.21894,-0.36139c0,0 -0.3171,-0.52465 0.20754,-0.84175z" fill="#4fae10"/><path d="M252.67095,143.02632c-1.39906,1.14634 -3.27187,1.92553 -5.10436,2.00772c-0.33601,0.01507 -1.29018,-0.11088 -1.58479,-0.23515c-0.3163,-0.13342 -0.38948,-0.57672 -0.78567,-0.29096c-0.41608,0.30009 -0.80227,0.65317 -1.26188,0.88106c-0.99863,0.17133 -2.38355,0.63921 -3.38874,0.32706c-0.04668,-0.0145 -0.65165,-0.55712 -0.90779,-0.49707c-0.46311,0.10858 -0.73324,0.62756 -1.16885,0.81861c-1.03942,0.45586 -2.77096,0.51886 -3.88132,0.48277c-0.84909,-0.0276 -1.58011,-0.03689 -2.39194,-0.31051c-0.37486,-0.12635 -1.13814,-0.72438 -1.51846,-0.72693c-0.36328,-0.00244 -0.57745,0.44328 -0.84019,0.69416c-1.03908,0.84151 -2.63936,1.81256 -3.99943,1.78595c-0.29379,-0.00574 -0.6029,0.00917 -0.87593,-0.09951c-0.13325,-0.05304 -0.96637,-0.90757 -1.3295,-0.56074c-0.12422,0.11864 -0.06554,0.35187 -0.17403,0.48503c-0.24125,0.29612 -0.51122,0.59087 -0.84855,0.77008c-0.46898,0.24916 -1.31052,0.17162 -1.81027,0.15055c-1.33297,-0.05617 -2.37421,-0.23961 -3.36176,-1.07052c-0.33216,0.02019 -0.57615,-0.24969 -0.57615,-0.24969c-0.91819,-1.03175 -2.07623,-1.43235 -2.66055,-2.80912c-0.44521,-1.04898 -0.50435,-2.49918 -0.72406,-3.61366c-0.27713,-1.40571 -0.85008,-3.04488 -0.72325,-4.48483c0.21671,-2.46035 1.44398,-5.9341 3.29825,-7.58925c0.62428,-1.12952 1.38614,-1.59374 2.33909,-2.4701c1.14434,-1.05236 2.20006,-2.12131 3.5139,-2.9734c2.42633,-1.57361 5.29906,-2.0341 8.0817,-2.58267c1.95695,-0.3858 3.95672,-0.89975 5.95125,-0.74554c1.26832,0.06388 2.58107,-0.11048 3.82138,0.06694c0.82402,0.11786 1.62072,0.39059 2.40873,0.65883c1.16807,0.39762 2.20743,0.31947 3.34999,0.87697c2.88556,1.40798 5.07951,3.50438 6.58974,6.30827c0.51581,0.95765 1.03514,1.7269 1.24816,2.80743c0.67181,1.18321 0.52828,2.46745 0.99782,3.69871c0.10586,0.27758 0.35371,0.4936 0.42973,0.78078c0.24458,0.92385 -0.00316,2.936 -0.2816,3.83889c-0.07803,0.25299 -0.34086,0.41755 -0.43337,0.66561c-0.25352,0.67981 -0.36878,1.41546 -0.69985,2.06107l-0.15599,0.38288c0,0 -0.05217,0.1257 -0.16583,0.24445zM221.10136,143.76672c0.21381,0.00412 0.37269,0.33995 0.57767,0.27904c0.17012,-0.05056 0.08856,-0.34786 0.17517,-0.50275c0.14795,-0.2646 0.29441,-0.54461 0.52229,-0.74454c0.78544,-0.68909 3.07897,-1.32539 4.10084,-0.9253c0.17371,0.068 0.11794,0.35935 0.22375,0.51298c0.05464,0.07936 -0.08499,-0.18762 -0.0645,-0.28177c0.07664,-0.35227 0.15645,-0.71877 0.34852,-1.02385c0.66217,-1.05172 1.77891,-1.59975 2.83814,-2.13514c1.0824,-0.21339 2.02402,-0.24287 3.07844,0.17226c0.21214,0.08352 0.3647,0.30711 0.58908,0.34758c0.39856,0.07189 1.00934,-0.45589 1.28043,-0.55265c0.56982,-0.20337 2.20243,-0.60942 2.80618,-0.52164c0.48154,0.07002 0.82467,0.68923 1.30931,0.64554c0.52127,-0.047 1.5385,-1.48864 1.94979,-1.70764c0.09903,-0.05272 1.89718,-0.40105 1.96956,-0.40324c1.11713,-0.03386 3.75452,0.99205 3.51469,2.34195c0.27801,-0.44681 0.86529,-0.66126 1.38132,-0.76436c2.04483,-0.40852 3.26047,0.433 4.17974,2.25576l0.32596,0.26445c0.6394,-1.27872 0.91872,-2.57105 1.10002,-3.97594c0.02006,-0.15546 0.17782,-1.10689 0.10266,-1.34558c-0.16604,-0.52737 -0.46809,-1.01293 -0.57741,-1.5549c-0.20974,-1.0398 -0.29086,-1.89173 -0.81377,-2.81267c-0.2035,-1.03222 -0.67582,-1.71193 -1.16642,-2.62686c-2.32254,-4.33146 -6.55248,-6.40348 -11.28531,-7.1082c-1.19196,-0.17749 -2.4981,0.00462 -3.72529,-0.0572c-1.84887,-0.16952 -3.76531,0.36404 -5.58008,0.72181c-2.60537,0.51363 -5.32157,0.91555 -7.59461,2.38832c-1.23979,0.80331 -2.23092,1.82585 -3.31157,2.81825c-0.94565,0.86841 -1.59051,1.20263 -2.18503,2.30388c-1.67438,1.53164 -2.77952,4.56353 -2.9961,6.81549c-0.1235,1.28405 0.45331,2.84602 0.70051,4.09994c0.20608,1.04535 0.25818,2.3775 0.65242,3.36853c0.30676,0.77113 1.00761,1.23153 1.65702,1.72874c0.79121,-1.38632 2.13935,-2.05446 3.91656,-2.02028zM220.85427,147.48361c0.08667,0.00405 1.01738,0.07597 1.21408,-0.02589c0.41782,-0.21638 0.43808,-0.88385 0.8331,-1.13952c0.30921,-0.20013 0.71113,-0.22834 1.07937,-0.23657c0.52849,-0.01181 0.97182,0.41725 1.44738,0.64808c0.5747,0.27895 1.16127,-0.20889 1.60721,-0.41474c0.77549,-0.35796 1.3276,-0.51701 1.99612,-1.06231c0.47681,-0.4371 0.88386,-0.96398 1.61366,-0.99541c0.57538,-0.02479 0.94857,0.37435 1.41212,0.59586c0.57629,0.27538 1.13982,0.38886 1.77065,0.41448c1.21063,0.04918 3.03425,0.15931 4.16913,-0.36168c0.61367,-0.28172 0.69225,-0.79271 1.44147,-0.89673c0.53206,-0.07387 1.01292,0.35836 1.51452,0.55052c0.641,0.24558 1.96008,-0.23755 2.60843,-0.33876c0.8998,-0.42911 1.03126,-1.12793 2.25686,-0.97362c0.41848,0.05268 0.73811,0.45966 1.15643,0.5136c1.52106,0.19615 3.36557,-0.50643 4.60262,-1.42054c-0.04398,-0.02792 -0.06909,-0.04913 -0.06909,-0.04913l-0.74287,-0.64577c-0.32417,-0.62509 -0.78608,-1.53063 -1.48055,-1.86328c-0.85964,-0.41179 -2.71815,0.54341 -3.39325,0.84477c-0.90025,-1.41126 -2.56731,-3.03258 -4.42971,-2.01714c-0.91511,0.49894 -1.26508,1.71724 -2.4538,1.847c-0.58318,0.06366 -1.05549,-0.55486 -1.63355,-0.65485c-1.37219,-0.23738 -2.72627,1.21027 -4.08661,1.0743c-0.33345,-0.03333 -0.5953,-0.31099 -0.90785,-0.43192c-0.70616,-0.27323 -1.36211,-0.29557 -2.08985,-0.15211c-0.71243,0.37057 -1.6547,0.78924 -2.08264,1.52145c-0.47762,0.81721 -0.08516,1.72661 -1.48259,1.99779c-0.33441,0.06489 -0.49527,-0.4896 -0.80696,-0.62706c-0.34055,-0.15019 -1.73363,0.28033 -2.08376,0.39306c-0.92797,0.29879 -0.74922,1.41403 -1.65911,1.80466c-0.35007,0.15029 -0.74592,-0.19546 -1.12687,-0.19088c-1.37366,0.01652 -2.26308,0.42202 -2.76553,1.56477c0.74904,0.62064 1.55607,0.68002 2.57143,0.72757z" fill="#525252"/></g><path d="M232.72146,166.51836l-9.99546,-23.3812" fill="none" stroke="#525252" stroke-width="2.5" stroke-linecap="round"/><path d="M243.13806,164.98284l4.62247,-25.79485" fill="none" stroke="#525252" stroke-width="2.5" stroke-linecap="round"/><path d="M234.49251,139.57258l3.73867,25.97888" fill="none" stroke="#525252" stroke-width="2.5" stroke-linecap="round"/></g><text transform="translate(232.80969,223.7763) scale(0.35321,0.35321)" font-size="40" xml:space="preserve" fill="#ffffff" fill-rule="nonzero" stroke="none" stroke-width="1" stroke-linecap="butt" stroke-linejoin="miter" stroke-miterlimit="10" stroke-dasharray="" stroke-dashoffset="0" font-family="Pixel" font-weight="normal" text-anchor="start" style="mix-blend-mode: normal"><tspan x="0" dy="0">7</tspan></text><path d="M273.82678,219.37331c-0.45659,0.59269 -0.98109,0.66212 -1.39217,0.58276c-1.05919,1.09715 -3.25727,1.21118 -4.41165,1.70408l-1.41724,0.59125c0,0 -0.75217,0.31379 -1.37903,-0.07557c-0.6135,-0.33507 -0.7477,-1.08712 -0.7477,-1.08712c-0.30574,-1.772 -0.2317,-3.27454 -0.238,-5.05531l-0.00438,-1.52165c0,0 -0.00433,-1.50027 1.49594,-1.5046c0.49387,-0.00142 0.82561,0.16017 1.04847,0.37764c0.49678,0.0216 0.88703,0.30025 0.88703,0.30025c1.7726,1.26814 3.70846,2.08441 5.50334,3.29296l0.3825,0.29126c0,0 1.1885,0.9156 0.27289,2.1041z" fill="#ffffff" stroke="none" stroke-width="0.5" stroke-linecap="butt"/><path d="M202.74416,219.12776c-0.91561,-1.18848 0.27289,-2.1041 0.27289,-2.1041l0.3825,-0.29126c1.79488,-1.20855 3.73075,-2.02482 5.50335,-3.29297c0,0 0.39024,-0.27865 0.88701,-0.30024c0.22286,-0.21748 0.55461,-0.37906 1.04847,-0.37764c1.50027,0.00432 1.49595,1.5046 1.49595,1.5046l-0.00439,1.52165c-0.0063,1.78078 0.06774,3.28332 -0.23799,5.05532c0,0 -0.13419,0.75204 -0.7477,1.08711c-0.62686,0.38936 -1.37902,0.07558 -1.37902,0.07558l-1.41725,-0.59125c-1.15438,-0.4929 -3.35245,-0.60692 -4.41165,-1.70408c-0.41109,0.07936 -0.93557,0.00993 -1.39217,-0.58276z" data-paper-data="{&quot;index&quot;:null}" fill="#ffffff" stroke="none" stroke-width="0.5" stroke-linecap="butt"/></g></g></svg>