<svg version="1.1" xmlns="http://www.w3.org/2000/svg" xmlns:xlink="http://www.w3.org/1999/xlink" width="801.08294" height="281.29627" viewBox="0,0,801.08294,281.29627"><g transform="translate(159.39592,152.56235)"><g data-paper-data="{&quot;isPaintingLayer&quot;:true}" fill-rule="nonzero" stroke-linejoin="miter" stroke-miterlimit="10" stroke-dasharray="" stroke-dashoffset="0" style="mix-blend-mode: normal"><path d="M-5.67926,-118.23629c1.81805,-2.54796 3.34866,-5.32777 5.45414,-7.64388c3.31349,-3.64496 11.9929,-10.34858 15.91012,-13.44785c2.77703,-2.19715 5.26724,-4.82518 8.35019,-6.56722c3.1286,-1.76784 6.70649,-2.58425 10.07248,-3.84262c2.49175,-0.93153 4.87048,-2.32553 7.5002,-2.72689c1.37696,-0.21016 21.2776,-0.04123 22.34104,0.13431c1.44515,0.23854 2.43571,1.64297 3.74784,2.29388c2.64254,1.3109 5.83467,0.49453 7.85945,3.56802c1.28138,1.94505 0.85544,4.59603 0.94379,6.92355c0.10017,2.63895 0.82663,5.56465 -0.3806,7.91342c-3.80636,7.40559 -13.06984,12.50766 -19.82113,16.38919c-12.76042,7.33636 -26.04095,13.89104 -37.39202,23.26802c-5.07379,-0.01514 -10.14757,-0.03004 -15.22136,-0.04456c2.70596,-2.23851 5.27209,-4.6564 7.95946,-6.91891c2.6665,-2.23646 5.14999,-4.71132 7.99951,-6.70938c8.16291,-5.72378 17.7186,-10.2628 26.3665,-15.23389c5.00251,-2.8756 10.68203,-5.19684 14.88306,-9.12839c1.97028,-1.8439 4.61946,-3.12274 5.9872,-5.44895c0.69342,-1.17934 -0.52895,-2.72656 -0.3806,-4.08658c0.01154,-0.10583 0.04466,-0.20561 0.09366,-0.29953c-1.15015,-0.1832 -2.24926,-0.68404 -3.29041,-1.20889c-0.841,-0.42395 -1.3192,-1.5773 -2.25216,-1.70612c-2.82446,-0.38997 -5.69991,0.19285 -8.55108,0.21454c-3.03599,0.02309 -6.10359,-0.51841 -9.10788,-0.08023c-2.04384,0.2981 -3.84015,1.52303 -5.77322,2.25064c-2.87626,1.08264 -5.97814,1.66848 -8.65411,3.17985c-2.63032,1.48558 -4.69491,3.80266 -7.05265,5.69119c-3.04603,2.43986 -11.94349,9.27039 -14.68703,12.29374c-1.84879,2.03734 -3.16275,4.50245 -4.74413,6.75367c-4.81523,6.79797 -9.63047,13.59596 -14.4457,20.39393c-2.7572,-0.00734 -5.5144,-0.01451 -8.27161,-0.02148c-0.07486,-1.65807 -0.18848,-3.31991 -0.3732,-5.07457c4.97675,-7.026 9.95351,-14.05201 14.93026,-21.07801z" fill="#7da3d0" stroke="none" stroke-width="0.5" stroke-linecap="butt"/><path d="M-148.41413,96.88036c-3.13644,-0.98274 -7.74055,-0.62153 -9.19106,-3.57094c-5.37281,-10.9249 2.50599,-16.23025 8.35284,-22.55266c0.51423,-0.55605 1.0191,-1.12314 1.51884,-1.69638c0.97382,3.74433 1.95193,7.48781 2.87311,11.2407c-1.119,1.01332 -2.20797,2.05194 -3.10426,3.25874c-0.85191,1.14704 -2.11488,2.78667 -1.43021,4.04072c0.54822,1.00412 2.27493,-0.59278 3.40609,-0.42166c0.97013,0.14676 1.92459,0.3691 2.87246,0.62395c0.78528,3.61732 1.48066,7.24958 2.03206,10.90586c-2.20942,-0.38638 -4.57407,-0.96485 -7.32988,-1.82833z" fill="#7da3d0" stroke="none" stroke-width="0.5" stroke-linecap="butt"/><path d="M344.21741,82.51235c-1.38892,0.50905 -2.57426,1.35619 -4.27778,1.84527c-4.24131,1.2177 -8.09217,1.72902 -12.54017,1.72902c-0.99726,0 -5.17951,0.01423 -5.52157,-0.07582c-0.74591,-0.19638 -1.55878,-0.46442 -2.35697,-0.81741c-1.77336,0.1118 -3.551,-0.07311 -5.52148,-0.71502c-0.78596,-0.07741 -3.04836,-0.51698 -3.39837,-3.01312c-1.28963,0.78858 -2.42357,1.91487 -3.75693,2.60279c-2.74651,1.41702 -5.13209,1.23313 -8.09519,1.22272c-1.72489,-0.00606 -4.31139,0.17715 -5.97997,-0.59888c-0.43556,-0.20257 -0.89714,-0.39349 -1.3558,-0.59545c-1.51845,-0.42115 -2.88468,-1.40989 -4.58374,-2.55363c-0.42244,0.10758 -0.84404,0.21638 -1.23171,0.37405c0,0 -3.52211,1.17404 -4.69615,-2.34807c-0.95314,-2.85941 1.18894,-4.17123 2.02875,-4.56364c-0.02433,-0.66287 0.08644,-1.29926 0.40867,-1.8752c0.53149,-0.94995 1.59483,-1.40855 2.82117,-1.58367c0.40138,-0.94929 0.7939,-1.92035 1.34151,-2.64364c0.86503,-1.14254 5.34563,-5.15287 7.47077,-5.6256c2.18974,-0.48709 3.92555,-0.22464 5.40905,0.55623c1.20864,-0.85099 2.57884,-1.28232 4.14493,-0.55306c1.82982,0.85206 2.47549,3.13254 3.54669,4.89972c2.02153,-0.63971 4.04795,-1.25988 6.01996,-1.99065c1.00153,-0.37114 1.86782,-1.0937 2.9032,-1.35593c0.69225,-0.17533 4.55571,-0.07266 5.37135,-0.05997c1.85502,0.60756 3.84221,0.90506 5.56506,1.82267c0.07214,0.03843 0.15067,0.10354 0.23498,0.18939c0.19623,0.03693 0.38078,0.09605 0.55116,0.18056c0.91533,0.454 1.57336,1.25057 2.11111,2.16437c0.21729,-0.08697 0.43046,-0.18248 0.63712,-0.29128c0.679,-0.35744 1.25439,-0.97573 1.85514,-1.50523c0.17544,-0.38782 0.36895,-0.76214 0.63049,-1.07859c0.92,-1.11316 1.74432,-2.39756 2.98033,-3.14443c0.74665,-0.45117 1.76899,0.01123 2.60686,-0.23171c0.47306,-0.13716 0.72761,-0.71228 1.19409,-0.87037c3.05909,-1.03668 6.30599,-3.87768 9.30933,-2.6891c5.54359,2.1939 7.59165,3.84302 7.80764,5.00196c0.76337,0.18833 1.58374,0.35943 2.54406,0.43048c5.22626,0.38664 5.57604,-0.53988 9.60286,0.47074c1.30607,0.32779 2.92906,0.23706 3.85179,1.21779c0.37122,0.39455 0.68318,0.83065 0.95663,1.29374c1.43667,0.51252 2.46493,1.88506 2.46493,3.49776c0,2.05043 -1.6622,3.71263 -3.71263,3.71263h-1.8872c-0.82611,0.65425 -1.54728,1.52625 -2.55072,1.81251c-1.5223,0.43427 -3.17278,-0.01317 -4.74642,0.15904c-1.34465,0.14715 -2.63241,0.67017 -3.97924,0.79585c-2.61215,0.24376 -5.24263,0.29971 -7.88065,0.28428c0.05605,0.25651 0.08559,0.52292 0.08559,0.79625c0,2.05043 -1.6622,3.71263 -3.71263,3.71263h-3.18339v-0.16157c-0.17025,0.04618 -0.34184,0.08822 -0.51495,0.12569c-0.32568,0.07049 -0.64926,0.07912 -0.97159,0.04291z" fill="#7da3d0" stroke="none" stroke-width="0.5" stroke-linecap="butt"/><path d="M126.04973,87.98077c-0.43587,0.61249 -0.94297,1.17269 -1.54332,1.65693c-4.07068,3.28344 -11.42863,0.09052 -16.26592,1.28853c-1.21336,0.3005 -1.88659,1.65186 -2.92884,2.342c-1.19227,0.78947 -2.66728,1.05639 -3.91238,1.75961c-2.05794,1.16231 -3.76074,3.01765 -5.99679,3.78324c-4.05207,1.38737 -10.39258,1.01161 -14.59998,0.78571c-1.49566,-0.0803 -3.09838,0.19733 -4.47655,-0.38925c-2.14735,-0.91397 -4.8681,-1.81661 -5.76656,-3.97049c-0.2499,-0.5991 -0.42596,-1.17632 -0.53583,-1.73248c-0.54792,-0.09982 -1.0971,-0.18528 -1.64808,-0.25055c0,0 -4.96467,-0.59333 -4.37134,-5.558c0.59334,-4.96467 5.558,-4.37135 5.558,-4.37135c1.75157,0.21098 4.1298,0.43174 5.9477,0.8871c1.76765,-1.10677 3.67153,-1.98432 5.26257,-2.67919c0.77292,-0.32697 5.39716,-2.29301 5.75907,-2.39557c4.08687,-1.15822 8.4624,-0.77216 12.55534,-1.61637c5.62485,-1.16017 10.39134,-5.69937 16.27759,-6.33719c1.86754,-0.20237 3.64142,-0.12183 5.39075,0.09858c2.68925,-2.88939 5.29497,-5.27943 10.28224,-4.11697c1.16416,0.27134 2.38652,1.07301 3.45802,2.16216c1.07384,-0.59743 2.27103,-1.03999 3.65829,-1.24648c1.23143,-0.18328 2.46215,0.37899 3.70094,0.50329c4.21376,0.4228 9.98787,-0.69751 10.0762,7.08612c0.04663,4.1085 -10.07912,7.95868 -12.29212,8.49461c-2.47583,0.59959 -5.21155,1.42829 -7.63469,0.69121c-0.88534,0.75482 -1.85832,1.47297 -3.02687,2.16985l-1.24704,0.56946c0,0 -0.7052,0.29832 -1.6804,0.38551z" fill="#7da3d0" stroke="none" stroke-width="0.5" stroke-linecap="butt"/><path d="M150.43443,37.1091c0.85259,-1.93816 0.89995,-4.45931 2.23811,-6.04591c0.20408,-0.24197 0.43819,-0.4622 0.70974,-0.65531c0.41633,-0.29606 0.83205,-0.51152 1.24677,-0.67513c0.73663,-0.3511 1.54472,-0.59573 2.40433,-0.70943c0.34358,-0.04545 0.68467,-0.06856 1.02161,-0.07051c0.49678,-0.11927 0.99044,-0.28051 1.48027,-0.53634c2.80799,-1.46654 2.98301,-6.32787 5.73602,-7.53174c4.08471,-1.78623 8.25442,-1.28667 12.40791,-2.33145c3.97691,-1.00036 6.15771,-5.04611 10.52573,-5.62387c4.75426,-0.62885 6.60042,2.53646 10.12302,4.88973c1.69622,1.13316 3.67764,-2.08599 5.7274,-2.52437c6.61431,-1.4146 9.51594,2.23275 13.30281,6.34264c1.46889,1.59419 7.53076,3.40768 6.05375,7.10544c-0.73564,1.8417 -2.20042,4.70457 -3.04724,6.31115c-1.53897,2.91978 -9.91536,1.38681 -12.04207,3.37785c-1.55946,1.45998 -2.80015,3.53149 -4.88043,4.17912c-2.37102,0.73815 -5.30413,0.03181 -7.30732,-1.00185c-0.30971,-0.15982 -0.65034,-0.5795 -0.96356,-0.41634c-9.72581,5.06661 -20.40541,6.30317 -30.33296,0.48378c-2.42441,-1.42116 -6.68612,5.02658 -9.88425,1.05094z" fill="#7da3d0" stroke="none" stroke-width="0.5" stroke-linecap="butt"/><path d="M406.94695,86.46141c-0.04961,-0.02835 -0.09834,-0.05695 -0.14618,-0.08577c-0.41105,0.08073 -0.82012,0.17023 -1.22621,0.27281c0,0 -4.85071,1.21268 -6.06339,-3.63803c-1.21268,-4.85071 3.63803,-6.06339 3.63803,-6.06339c1.37643,-0.34101 2.73748,-0.69337 4.08766,-1.03135c0.66079,-1.19749 1.22965,-2.47729 2.26496,-3.33941c4.92728,-4.10302 11.97674,-2.9586 17.68708,0.03658c4.0908,-2.32425 12.28287,-2.60782 14.5904,-0.15898c0.64149,0.68077 1.06702,1.58131 1.32993,2.61956c2.13487,-0.40746 4.28136,-1.05305 6.24447,-0.31523c1.83521,0.68975 2.55075,2.97804 3.82613,4.46705l0.0788,0.33794c3.22743,-0.09436 6.99126,0.09257 9.44716,1.13116c1.197,0.5062 1.75724,1.95812 2.85203,2.65846c0.69083,0.44193 1.57653,0.4525 2.36479,0.67874c2.64192,1.55347 13.90601,7.08936 7.93993,12.54718c-3.37517,3.08763 -8.88528,2.4876 -13.45468,2.7016c-1.51212,0.07082 -2.77005,-1.22309 -4.1349,-1.87783c-2.2898,-1.09845 -4.30354,-2.78398 -6.69723,-3.63251c-0.86181,-0.3055 -3.89344,-0.19729 -4.61946,-0.19587c-3.10654,0.00608 -6.32722,-0.20076 -9.43147,-0.00621c-4.92792,0.30884 -8.42008,1.62029 -13.11948,-0.51456c-2.98846,-1.3576 -8.84258,-4.65582 -8.97361,-8.98492c-0.62381,0.35647 -1.18781,0.86761 -1.87647,1.06268c-0.06584,0.01865 -0.13178,0.03691 -0.1978,0.05478c-0.87177,1.09219 -3.10025,3.16708 -6.41049,1.27551z" fill="#7da3d0" stroke="none" stroke-width="0.5" stroke-linecap="butt"/><path d="M39.00142,82.63775c-0.75311,2.67597 -3.78584,3.34991 -3.78584,3.34991c-4.60109,1.00302 -9.34955,3.60582 -14.19674,1.40617c-1.63253,-0.74084 -2.29901,-2.75926 -3.30317,-4.24441c-2.97631,-4.40192 -3.57831,-8.93294 -4.88581,-13.8728c-0.73775,-2.78729 -1.83226,-5.62451 -1.60793,-8.49904c0.14969,-1.91806 -0.24811,-4.13435 0.85966,-5.70731c1.52358,-2.16337 6.39284,-3.77115 10.40363,-3.93907c1.4031,-3.91862 3.66861,-6.96768 5.68981,-10.91821c0.6859,-1.34063 0.51246,-3.12694 1.50461,-4.2598c1.31671,-1.50344 3.1404,-2.64687 5.05272,-3.22748c1.97038,-0.59824 4.11611,-0.14237 6.17494,-0.18143c3.11577,-0.05911 6.58306,-0.15974 9.47233,0.74555c0.03407,-0.02013 0.06794,-0.04017 0.10162,-0.06013c5.31433,-3.14987 10.7247,-3.3263 16.73686,-4.06394c3.3293,-0.01001 8.29364,-0.83683 11.44015,0.20488c1.63295,0.54062 3.00036,1.69474 4.40651,2.68548c1.71694,1.20971 3.75091,2.63161 4.47918,4.76065c1.1652,-0.78065 2.45511,-1.38457 3.73462,-1.95979c1.86481,-0.83836 3.80971,-1.49727 5.7653,-2.09396c7.53971,-2.30053 17.16103,-4.85653 25.10837,-3.58988c1.81731,0.28964 3.91227,0.21493 5.34953,1.36417c3.85304,3.08092 4.70363,8.07754 4.55723,12.58874c-0.06921,2.1325 0.61315,5.0677 -1.12815,6.30068c-3.69438,2.61592 -8.6248,2.80982 -13.05456,3.74183c-1.32178,0.2781 -2.73652,-0.4597 -4.04962,-0.14317c-1.26271,0.30438 -2.25588,1.28785 -3.38322,1.93327c0.48933,3.9611 -1.83515,9.61333 -4.2676,11.49986c-4.34403,3.36911 -6.07107,3.15923 -10.57347,3.19129c-4.27325,0.03043 -5.14564,0.26581 -9.25052,-1.38117c-2.20432,-0.88443 -4.8487,-3.87221 -7.61663,-2.72956c-0.99894,0.41238 -1.58985,1.48754 -2.51529,2.04566c-2.56838,1.54898 -5.34187,2.7703 -8.16835,3.77375c-1.03223,0.36646 -2.21949,0.08766 -3.25635,0.44083c-1.55096,0.52828 -2.77937,2.01262 -4.41021,2.17053c-2.69756,0.2612 -5.04684,-0.94806 -7.35452,-1.99012c-0.82178,-0.09679 -1.64053,-0.35651 -2.46534,-0.29038c-0.1618,0.01297 0.10059,0.3474 0.01719,0.48666c-0.26727,0.44621 -0.88186,0.68097 -1.01736,1.18314c-0.31538,1.16884 0.3804,2.60585 -0.27894,3.62119c-1.18617,1.82662 -3.00056,3.24911 -4.8881,4.33572c-1.32406,0.76223 -3.30706,1.17988 -5.39652,1.32172zM26.08969,78.65939c-0.05489,-0.0233 -0.1094,-0.04697 -0.16346,-0.07111c-0.02822,0.04039 -0.02879,0.07559 0.01961,0.10356c0.0583,0.03369 0.10391,0.01489 0.14386,-0.03244z" fill="#7da3d0" stroke="none" stroke-width="0.5" stroke-linecap="butt"/><path d="M260.43021,55.18399c-2.8951,-0.01274 -4.99716,-0.24958 -8.8127,-2.04452c-1.27221,-0.59849 -1.92921,-2.11544 -3.16197,-2.79147c-0.7414,-0.40657 -1.75295,0.04175 -2.51611,-0.32232c-1.68397,-0.80334 -3.62749,-1.54683 -4.65983,-3.10098c-3.62555,-5.45813 -1.52268,-12.00292 3.35957,-15.73464c1.28995,-0.98597 2.93507,-1.38965 4.41582,-2.05559c4.73262,-2.12842 9.53806,-3.92437 14.90018,-2.67014c1.35104,0.31602 2.47451,1.23024 3.6805,1.93893c1.58657,-0.32198 3.18736,-0.60119 4.83075,-0.81714c1.26535,-1.14014 2.60638,-2.19992 3.81176,-3.40312c1.36657,-0.9762 2.51287,-2.37867 4.09971,-2.92861c2.68556,-0.93072 8.82193,-0.76589 11.8196,-0.76589c1.04588,0 2.67219,-0.3647 3.59809,-0.03119c0.12881,-0.61402 0.37205,-1.20912 0.72229,-1.71448c1.16909,-1.68688 2.36007,-3.5552 4.16228,-4.53723c1.49103,-0.81246 3.37441,-0.40471 5.07011,-0.49348c5.81123,-0.30423 11.92832,-0.51494 16.96034,2.8799c0.97808,0.65986 1.77625,1.56441 2.54809,2.45679c0.19805,0.22898 0.0405,0.7224 0.31399,0.85224c0.89617,0.42546 1.94412,-0.47324 2.83124,-0.91726c1.48413,-0.74283 2.68737,-2.04937 4.26185,-2.5742c3.1093,-1.03644 7.94887,-0.73039 11.15549,-0.6968c4.03566,1.27068 8.06072,2.1349 11.2905,5.12216c1.18713,1.09799 2.26696,2.37091 3.00017,3.81218c2.08389,4.09633 2.05709,10.75281 1.50804,15.29056c-0.1957,1.61738 -0.17602,3.38684 -1.02115,4.77967c-1.06845,1.76086 -2.60862,3.38274 -4.46853,4.2676c-2.71361,1.29102 -10.71778,0.59516 -13.56882,-0.33086c-2.10686,-0.6843 -3.64813,-2.69915 -5.79124,-3.25969c-1.52182,-0.39804 -5.32362,2.75517 -6.47923,3.1792c-3.59488,1.31905 -7.58984,2.16334 -11.4081,2.24404c-0.46946,0 -7.02012,0.02249 -7.57729,-0.06456c-2.25692,-0.35262 -2.38722,-1.33168 -4.31391,-0.95182c-2.84196,0.56031 -4.56012,2.1631 -7.19441,3.12859c-7.8485,2.87656 -16.66485,3.69612 -24.96086,3.69612c-0.35687,0 -8.11633,0.05322 -8.8932,-0.13376c-1.2247,-0.29475 -2.38775,-0.7542 -3.51299,-1.30821z" fill="#7da3d0" stroke="none" stroke-width="0.5" stroke-linecap="butt"/><path d="M67.69224,-10.68083c1.39073,0 7.93578,-0.03073 8.65097,0.13376c1.08124,0.24867 1.89623,0.54234 2.56821,0.88154c1.13492,0.2412 2.86293,0.92088 3.58984,2.83614c0.38215,0.32713 0.80972,0.6715 1.31041,1.03325c1.11892,0.80841 2.3256,1.53174 3.56435,2.22277c2.82114,-0.81818 5.63698,-1.65331 8.43482,-2.47985c4.24678,-1.25458 8.65038,-2.35883 13.17508,-1.49013c5.16703,0.99202 8.30041,2.56217 9.15894,8.7847c0.3113,2.25628 -3.75986,8.53995 -5.45856,9.68766c-0.97898,0.66144 -3.78588,1.4497 -4.09818,0.85479c-0.50478,3.28561 -3.93057,8.1751 -6.94044,9.28814c-1.85894,0.68742 -4.0007,0.06208 -5.93414,-0.37383c-1.26483,-0.28517 -2.25052,-1.32141 -3.47507,-1.74757c-2.14257,-0.74565 -4.77193,0.07867 -6.71857,-1.08631c-0.12303,-0.07363 -5.70125,-3.36785 -5.51229,-6.17932c-1.60426,0.01458 -5.95801,-0.03069 -6.40324,-0.1429c-1.39084,-0.3505 -2.63225,-1.146 -3.90512,-1.80713c-0.08838,-0.0459 -0.17191,-0.11613 -0.25196,-0.20069c-0.95163,-0.02545 -1.89426,-0.05149 -2.81395,-0.06109c-7.19628,4.06114 -18.52302,5.92949 -26.31284,4.22778c-1.72788,-0.37746 -3.02698,-1.83016 -4.54047,-2.74525c-1.7334,-3.3659 -3.28451,-5.03366 -2.92098,-8.47591c-0.14824,-0.04417 -0.29606,-0.07742 -0.4424,-0.08842c-0.70824,-0.05324 -1.43898,0.08095 -2.15191,0.10303c-0.58767,1.39514 -1.81427,2.81055 -2.01694,3.27708c-0.77385,1.78131 -0.27564,4.35572 -1.81847,5.53536c-2.63241,2.01273 -8.92621,1.43616 -11.84202,-0.01161c-5.09523,-2.52989 -5.22022,-3.31859 -5.29311,-8.59115c-0.02837,-2.05231 -0.46908,-4.3249 0.49348,-6.1377c2.66678,-5.02235 5.10549,-4.32053 9.36089,-4.59928c0,0 2.24524,0 3.7266,1.50456c0.54886,-0.65869 1.18034,-1.21862 1.93941,-1.5965c1.68563,-0.83914 3.73989,0.45888 5.61884,0.58157c2.05624,0.13427 5.11817,0.02527 7.70344,0.61162c0.55537,-2.15607 2.51277,-3.74909 4.84224,-3.74909c7.3551,0 17.35805,0 24.71315,0z" fill="#7da3d0" stroke="none" stroke-width="0.5" stroke-linecap="butt"/><path d="M-9.54325,28.50473c-1.46463,-0.30362 -3.96326,-1.33955 -3.96326,-4.87412c0,-5 5,-5 5,-5c3.40075,0.09595 7.05051,-2.26779 10.4509,-0.43578c2.21519,1.19347 3.7942,3.37059 5.25439,5.41981c2.03211,2.85186 2.89149,7.16471 1.62054,10.52157c-0.00031,0.00083 -0.00063,0.00166 -0.00094,0.00249c1.81619,0.27826 3.85409,0.39264 4.17864,1.9324c1.63253,7.74525 -6.94504,19.709 -15.80719,16.64156c-8.1767,-2.83019 -7.16588,-10.90671 -7.16588,-17.60807c0,-2.40655 0.05027,-4.7206 0.43281,-6.59984z" fill="#7da3d0" stroke="none" stroke-width="0.5" stroke-linecap="butt"/><path d="M186.9069,-8.04125c3.24965,0.09476 6.3956,0.4394 9.56707,1.69061c1.75558,0.69261 4.30539,0.52857 5.22718,2.1754c6.73571,12.03371 -7.13932,12.96573 -14.02296,10.05012c-2.54761,-0.38469 -4.74686,0.90476 -7.23471,1.5258c-3.19822,0.79837 -6.40722,1.65145 -9.68549,1.99626c-0.79863,0.084 -1.48439,0.09771 -2.09157,0.05787c-1.02485,1.29213 -1.95188,2.75284 -3.3259,3.56812c-1.7494,1.03802 -5.39685,0.91302 -7.48738,0.90296c-7.90687,-0.03807 -13.59459,-3.54174 -20.35167,-7.43323c-0.90713,-3.68156 -2.1232,-5.83052 -1.6388,-7.77709c-1.31373,-0.73947 -2.67899,-1.40075 -3.89025,-2.29381c0,0 -4,-3 -1,-7c3,-4 7,-1 7,-1c1.72172,1.32184 3.8879,1.99455 5.58638,3.34613c0.62064,0.49388 1.1053,1.11823 1.55015,1.78223c3.34208,-0.05256 7.36904,0.24823 8.61816,0.24823c4.02028,0 9.44192,0.76969 13.45265,0.06456c2.65429,-0.46665 5.17006,-1.67327 7.85376,-1.91983c0.21145,-0.01943 4.66971,-0.02083 6.76211,-0.02046l2.31407,-0.74993c0,0 1.45643,0 2.7972,0.78605z" fill="#7da3d0" stroke="none" stroke-width="0.5" stroke-linecap="butt"/><path d="M257.99205,15.93023c-2.13232,-0.58154 -4.95668,0.30276 -7.33692,-0.2923c-1.64099,-0.41025 -3.82381,-2.49022 -5.40722,-2.63091c-6.40426,-0.56903 -14.60075,1.98126 -20.47543,-1.54355c-6.46484,-3.87891 -4.2512,-11.52756 1.78654,-14.74769c2.68429,-1.43162 8.24534,-1.28429 11.17426,0.18017c1.25953,0.62976 4.87304,3.22474 6.72995,2.74303c4.97047,-1.28942 8.09119,-6.55879 12.45866,-8.56055c4.61413,-2.11481 7.33024,0.3978 11.25579,1.56395c5.34944,1.58913 10.41717,1.68256 14.72649,5.83348c0.632,0.60877 0.11235,1.7516 0.14603,2.62846c0.1804,4.69733 -3.30888,3.93097 -5.11257,6.77088c-0.04398,0.06925 0.56006,2.11753 0.56878,2.27511c0.14087,2.54661 -0.11023,5.53673 -0.93118,8.01133c-0.7698,2.32041 -4.07317,2.7045 -6.01309,3.11237c-4.40119,0.92535 -10.19754,-2.10994 -13.48339,-5.39579z" fill="#7da3d0" stroke="none" stroke-width="0.5" stroke-linecap="butt"/><path d="M406.78438,33.68474c-3.34383,0.96379 -6.9052,1.76925 -9.92309,-0.06719c-5.81727,-3.53992 -7.51515,-6.87768 -1.7766,-12.57941c2.01394,-2.00102 10.97985,-1.20422 13.48767,-0.61705c0.19534,0.04574 0.40424,0.09201 0.61584,0.14473c0.05754,-0.5773 0.1902,-1.16076 0.31116,-1.70128c0.65403,-2.92227 3.28235,-6.71036 5.96284,-7.95067c1.55592,-0.71995 3.42264,-0.23138 5.13688,-0.25571c3.13119,-0.04445 6.24859,-0.10116 9.38482,0.02059c1.25514,0.09759 2.54507,-0.01648 3.76542,0.29277c1.13715,0.28816 2.17012,0.95508 3.32768,1.14542c0.17505,0.02879 0.29625,0.45581 0.41918,0.32791c1.61804,-1.68332 2.52899,-3.99267 4.25787,-5.56193c4.43561,-4.02608 10.21244,-6.86855 16.26415,-5.49569c12.53593,2.84382 12.54251,19.02738 17.49483,28.44643c4.73202,3.13428 7.6004,7.27553 7.60208,13.19438c0.00061,2.12336 0.76025,4.8526 -0.7714,6.32322c-2.10345,2.01964 -5.49003,2.17823 -8.39104,2.47413c-7.36075,0.7508 -12.67229,-7.36378 -19.39045,-8.37419c-4.36436,-0.6564 -8.96674,0.11893 -13.34435,-0.5446c-4.93285,-0.74769 -9.76597,-2.07928 -14.69532,-2.89512c-4.34886,-0.93184 -9.70794,-0.52043 -13.73113,-2.51426c-2.05595,-1.01889 -5.78183,-1.12634 -5.97836,-3.41249c-0.01159,-0.13477 -0.02114,-0.26808 -0.0287,-0.4z" fill="#7da3d0" stroke="none" stroke-width="0.5" stroke-linecap="butt"/><path d="M172.76118,63.25151c2.00352,-3.11329 2.71328,-4.4322 7.50909,-6.14716c3.36438,-1.20309 7.88996,-0.26823 10.87857,2.16486c3.33106,-1.76293 7.77325,-4.11392 10.51523,-5.56509c0.82913,-0.43881 1.55481,-1.21491 2.48739,-1.31642l2.48739,-1.31642c2.44068,-1.29171 5.46639,-0.36028 6.7581,2.08041c0.26784,0.50609 0.44011,1.03735 0.52314,1.57307c2.95654,-1.37605 6.15338,-2.15022 8.44534,-2.21079c1.83027,-0.04837 3.43288,1.5352 5.26345,1.57041c0.98865,0.01902 1.95167,-0.6549 2.9262,-0.48729c6.01143,1.03385 5.54016,1.80249 8.37656,6.74715c0.3949,0.68841 0.82312,1.45974 1.21357,2.28067c0.36006,0.0061 0.72,0.01359 1.07981,0.02266c1.95468,0.04928 4.02676,-0.46011 5.86198,0.21454c2.11116,0.77608 4.19219,2.10019 5.47007,3.95122c1.06025,1.53579 0.73049,3.66059 1.05374,5.4986c0.29748,1.69149 1.49983,3.51652 0.80821,5.08855c-1.45395,3.30477 -4.52252,5.5709 -7.92464,6.17611c-0.27831,0.91453 -0.65151,1.61783 -1.11075,1.97004c-2.13007,1.63363 -5.37288,0.81391 -8.03805,0.49326c-0.97619,-0.11745 -2.37579,-1.15464 -3.65208,-2.14491c-0.53916,1.01933 -0.83607,2.2566 -1.81318,2.78954c-1.88814,1.02984 -4.27117,0.59895 -6.34627,1.16431c-1.21995,0.33238 -2.21483,1.47436 -3.47868,1.51252c-1.80332,0.05445 -3.49429,-0.91037 -5.26648,-1.24846c-2.37558,-0.45321 -4.84646,0.0497 -7.25271,-0.19262c-0.87999,-0.08862 -1.65754,-0.67688 -2.53587,-0.78064c-4.33457,-0.51202 -7.21609,1.84079 -11.49922,-0.83612c-0.8066,-0.50412 -1.50911,-1.06764 -2.1142,-1.68097c-1.53512,0.44545 -3.137,0.76036 -5.11865,0.82291c-5.76463,0 -11.52926,0 -17.29388,0c-0.03235,0.01299 -0.06472,0.02593 -0.09713,0.03884c-1.29822,0.51693 -2.1465,0.65769 -2.83099,0.50996l-1.8445,0.97618c-2.30094,1.21775 -5.12184,0.45965 -6.51961,-1.67617c-2.16914,-0.54636 -3.77487,-2.51006 -3.77487,-4.84881c0,-2.76142 2.23858,-5 5,-5h2.64784c0.40843,-0.38562 1.01196,-0.28041 1.62434,-0.15293c0.11668,-0.11624 0.23354,-0.23107 0.35066,-0.34444c-0.54792,-1.26472 -0.98701,-2.5481 -0.70649,-3.83298c0.48897,-2.23966 2.58307,-3.82615 4.22301,-5.42794c1.25576,-1.22655 2.47984,-2.0028 3.71454,-2.43565z" fill="#7da3d0" stroke="none" stroke-width="0.5" stroke-linecap="butt"/><path d="M496.29157,68.12963c1.45801,-0.22375 2.89176,-0.47094 4.26601,-0.63613c1.44408,-0.17359 2.9099,-0.09437 4.36326,-0.03746c0.41952,0.01643 0.8616,0.45215 1.23312,0.25658c1.22879,-0.64682 1.94255,-2.12965 3.2442,-2.61341c6.59254,-2.45011 8.04082,-2.30795 13.34632,-2.33361c2.93592,-0.0142 10.33639,-0.92296 12.45792,1.05897c2.28551,2.13512 3.82743,9.17957 2.48042,12.42105c-0.69232,1.66602 -2.28205,2.80431 -3.56695,4.07079c-1.66023,1.63644 -2.98888,4.0536 -5.2502,4.61998c-1.56152,0.3911 -2.76637,-1.69084 -4.28228,-2.23244c-0.95935,-0.34276 -3.51756,1.11339 -4.33924,0.70141c0.04619,0.79294 0.04537,1.55695 -0.53076,1.96707c-1.7696,1.25968 -4.20744,1.10586 -6.34979,1.46447c-4.03576,0.67555 -8.53927,1.71201 -12.70596,0.72355c-1.72782,-0.40989 -3.12157,-1.72032 -4.53528,-2.79492c-0.34048,-0.25881 -0.20425,-1.02171 -0.61965,-1.12349c-1.06582,-0.26115 -2.23465,0.47418 -3.28785,0.16606c-1.33442,-0.39039 -2.31945,-1.54643 -3.5621,-2.17006c-1.97816,-0.99275 -4.35495,-0.93111 -6.39261,-1.79518c-1.09622,-0.46485 -1.9228,-1.42555 -2.98825,-1.95717c-2.73613,-1.36524 -5.72805,-2.35046 -8.44278,-3.75235c-0.77084,-0.39806 -1.24991,-1.28912 -2.06642,-1.58229c-1.91535,-0.6877 -4.02002,0.64511 -6.01328,1.05553c0,0 -4.9029,0.98058 -5.88348,-3.92232c-0.98058,-4.9029 3.92232,-5.88348 3.92232,-5.88348c3.64554,-0.71164 7.08834,-1.78553 10.87228,-0.82064c1.34724,0.34354 2.31232,1.56085 3.5621,2.17006c1.38343,0.67435 2.81056,1.2695 4.23552,1.86848c1.89703,-1.2828 4.67995,-1.79147 6.89281,-2.37322c0.41429,-0.10891 6.04074,1.7961 7.01777,2.12907c1.0182,0.34701 1.97541,0.83864 2.92279,1.3551z" fill="#7da3d0" stroke="none" stroke-width="0.5" stroke-linecap="butt"/><path d="M13.66478,125.34408c-1.19816,2.06931 -3.80538,2.39521 -3.80538,2.39521c-5.00869,0.5951 -8.70099,2.9467 -12.89855,-2.68165c-2.10543,-2.8231 -0.15366,-12.22251 2.39573,-14.45071c1.31746,-1.15147 3.32783,-1.11342 5.04469,-1.45099c0.14948,-0.02939 0.11497,0.57185 0.16255,0.42714c1.34828,-4.1008 2.75047,-8.42689 6.87359,-10.76442c3.43889,-1.94962 4.91719,-1.09779 8.51844,-0.92288c3.70626,0.18 7.96612,0.39148 11.22635,2.56418c1.2615,0.8407 2.05355,2.23059 3.08033,3.34589c0.03376,1.04549 -0.1095,-0.15387 1.34516,-0.53732c1.29507,-0.34139 2.6524,-0.60087 3.98745,-0.49409c5.00261,0.4001 9.32856,1.51051 9.17736,8.45095c-0.05184,2.37965 -1.90081,4.6016 -3.78655,6.05398c-3.82068,2.94265 -10.49861,0.05772 -14.7096,0.94401c-2.14131,0.45068 -3.25696,2.93608 -4.79033,4.02767c-1.09554,0.7799 -2.39997,1.22412 -3.65341,1.7113c-2.4566,0.95482 -5.43358,1.99677 -8.16782,1.38175z" fill="#7da3d0" stroke="none" stroke-width="0.5" stroke-linecap="butt"/><path d="M409.15847,7.56414c-0.40817,0.25691 -0.69822,0.397 -0.69822,0.397c-5.48578,2.62455 -13.69439,6.43751 -20.73248,7.42913c-1.7532,0.24701 -3.60315,-0.35497 -5.39541,-0.23731c-1.55112,0.10183 -2.87109,0.86901 -4.43183,0.88245c-9.60219,0.08274 -9.69951,-0.7614 -16.39894,-4.49303c-1.7862,-0.13826 -3.53748,-0.34723 -5.20828,-0.66217c-0.86697,0.25301 -1.72421,0.43777 -2.3323,0.46176c-3.70582,0.14618 -7.85387,0.12036 -11.00229,-1.02959c-9.46133,-3.45573 -12.70468,-15.34147 -3.86941,-19.88475c3.06782,-1.57753 7.61959,-1.73309 11.42937,-2.59965c1.71569,0.36193 3.33605,0.95725 5.14706,1.0858c1.03711,0.07361 2.05024,-0.40481 3.06712,-0.47449c5.10404,-5.32686 17.4006,-9.66449 27.9504,-7.29538c3.14132,0.70544 6.01515,1.8723 8.44122,3.23379c1.77962,0.9987 2.90865,2.35716 3.88129,3.68143c0.23296,0.31718 -0.9397,0.8175 -0.44082,1.00279c1.25014,0.46433 3.2529,-0.10573 4.37563,0.45869c3.58073,1.80009 12.70997,11.17005 12.02404,13.57834c-0.52559,1.84535 -3.18079,3.23023 -5.80618,4.46518z" fill="#7da3d0" stroke="none" stroke-width="0.5" stroke-linecap="butt"/><path d="M335.4591,61.92433l30.95685,48.78049" fill="none" stroke="#7da3d0" stroke-width="1.5" stroke-linecap="round"/><path d="M70.8995,68.24345l-16.88555,-23.45216" fill="none" stroke="#7da3d0" stroke-width="1.5" stroke-linecap="round"/><path d="M13.13087,63.99464l24.39025,39.39963" fill="none" stroke="#7da3d0" stroke-width="1.5" stroke-linecap="round"/><path d="M8.9858,104.82881l-22.51407,-34.70919" fill="none" stroke="#7da3d0" stroke-width="1.5" stroke-linecap="round"/><path d="M65.46661,15.46313l25.32833,34.7092" fill="none" stroke="#7da3d0" stroke-width="1.5" stroke-linecap="round"/><path d="M201.2846,4.80036l41.2758,52.53284" fill="none" stroke="#7da3d0" stroke-width="1.5" stroke-linecap="round"/><path d="M113.11338,54.17216l-16.88555,-21.57599" fill="none" stroke="#7da3d0" stroke-width="1.5" stroke-linecap="round"/><path d="M158.24527,63.00913l-43.15197,-52.53283" fill="none" stroke="#7da3d0" stroke-width="1.5" stroke-linecap="round"/><path d="M472.51752,102.80591l-40.33771,-47.8424" fill="none" stroke="#7da3d0" stroke-width="1.5" stroke-linecap="round"/><path d="M26.21667,17.48898l37.52345,48.78049" fill="none" stroke="#7da3d0" stroke-width="1.5" stroke-linecap="round"/><path d="M197.51579,108.89074l-30.95685,-48.78049" fill="none" stroke="#7da3d0" stroke-width="1.5" stroke-linecap="round"/><path d="M315.11151,60.11024l-16.88555,-23.45216" fill="none" stroke="#7da3d0" stroke-width="1.5" stroke-linecap="round"/><path d="M234.43608,28.21531l24.39025,39.39963" fill="none" stroke="#7da3d0" stroke-width="1.5" stroke-linecap="round"/><path d="M127.20824,81.73365l22.51407,34.70919" fill="none" stroke="#7da3d0" stroke-width="1.5" stroke-linecap="round"/><path d="M290.72127,1.0108l25.32833,34.7092" fill="none" stroke="#7da3d0" stroke-width="1.5" stroke-linecap="round"/><path d="M385.66657,44.46065l-41.2758,-52.53284" fill="none" stroke="#7da3d0" stroke-width="1.5" stroke-linecap="round"/><path d="M340.43984,24.46296l16.88555,21.57599" fill="none" stroke="#7da3d0" stroke-width="1.5" stroke-linecap="round"/><path d="M453.0102,46.97703l-43.15197,-52.53283" fill="none" stroke="#7da3d0" stroke-width="1.5" stroke-linecap="round"/><path d="M493.65748,97.94326l-30.95685,-48.78049" fill="none" stroke="#7da3d0" stroke-width="1.5" stroke-linecap="round"/><path d="M503.03834,49.16277l-16.88555,-23.45216" fill="none" stroke="#7da3d0" stroke-width="1.5" stroke-linecap="round"/><path d="M446.75317,56.66747l-24.39025,-39.39963" fill="none" stroke="#7da3d0" stroke-width="1.5" stroke-linecap="round"/><path d="M398.86334,37.61082l22.51407,34.70919" fill="none" stroke="#7da3d0" stroke-width="1.5" stroke-linecap="round"/><path d="M503.97643,24.77253l-25.32833,-34.7092" fill="none" stroke="#7da3d0" stroke-width="1.5" stroke-linecap="round"/><path d="M584.65185,50.10086l-41.2758,-52.53284" fill="none" stroke="#7da3d0" stroke-width="1.5" stroke-linecap="round"/><path d="M545.25222,35.09148l-16.88555,-21.57599" fill="none" stroke="#7da3d0" stroke-width="1.5" stroke-linecap="round"/><path d="M640.93702,36.02956l-43.15197,-52.53283" fill="none" stroke="#7da3d0" stroke-width="1.5" stroke-linecap="round"/><path d="M405.75182,106.84198l-25.40416,-33.4873" fill="none" stroke="#7da3d0" stroke-width="1.5" stroke-linecap="round"/><path d="M81.6746,116.74206l-11.54734,-17.32102" fill="none" stroke="#7da3d0" stroke-width="1.5" stroke-linecap="round"/><path d="M386.0739,91.22114l-13.85681,-20.78522" fill="none" stroke="#7da3d0" stroke-width="1.5" stroke-linecap="round"/><path d="M440.34642,72.74539l16.16628,24.24942" fill="none" stroke="#7da3d0" stroke-width="1.5" stroke-linecap="round"/><path d="M381.26712,60.65399c-1.88151,1.47565 -4.42305,0.80904 -4.42305,0.80904c-4.871,-1.30937 -9.17287,-0.49878 -10.97748,-7.28415c-0.90516,-3.40344 4.40071,-11.40382 7.59569,-12.5247c1.65108,-0.57923 3.50325,0.20338 5.22257,0.5282c0.14969,0.02828 -0.10584,0.57361 -0.00787,0.45696c2.77602,-3.30577 5.68583,-6.80065 10.38242,-7.43804c3.91719,-0.53161 4.97292,0.80869 8.2511,2.30973c3.37378,1.54479 7.24978,3.3246 9.46876,6.55351c0.8586,1.24938 1.07725,2.8341 1.61587,4.25116c-0.35729,0.98312 -0.04446,-0.18355 1.44851,0.00121c1.32917,0.16448 2.6857,0.42814 3.88539,1.02353c4.49542,2.231 8.09863,4.86989 5.37836,11.25681c-0.93269,2.18987 -3.47512,3.5653 -5.76561,4.21264c-4.64075,1.31157 -9.76778,-3.84896 -14.00649,-4.59149c-2.1554,-0.37758 -4.11498,1.51502 -5.94424,1.9584c-1.30694,0.31678 -2.68303,0.24429 -4.02775,0.23063c-2.6355,-0.02677 -5.78648,-0.16608 -8.09618,-1.75341z" fill="#7da3d0" stroke="none" stroke-width="0.5" stroke-linecap="butt"/></g></g></svg>