<svg version="1.1" xmlns="http://www.w3.org/2000/svg" xmlns:xlink="http://www.w3.org/1999/xlink" width="162.30671" height="113.70051" viewBox="0,0,162.30671,113.70051"><g transform="translate(-158.84665,-134)"><g data-paper-data="{&quot;isPaintingLayer&quot;:true}" fill-rule="nonzero" stroke="none" stroke-linecap="butt" stroke-linejoin="miter" stroke-miterlimit="10" stroke-dasharray="" stroke-dashoffset="0" style="mix-blend-mode: normal"><path d="M179.28542,226v-92h122v92z" fill="#ffffff" stroke-width="0"/><text transform="translate(228.90384,201.19309) scale(1.28947,1.28947)" font-size="40" xml:space="preserve" fill="#313131" fill-rule="nonzero" stroke="none" stroke-width="1" stroke-linecap="butt" stroke-linejoin="miter" stroke-miterlimit="10" stroke-dasharray="" stroke-dashoffset="0" font-family="Pixel" font-weight="normal" text-anchor="start" style="mix-blend-mode: normal"><tspan x="0" dy="0">?</tspan></text><path d="M320.69272,179.6611c-0.60696,0.78787 -1.30417,0.88017 -1.85062,0.77467c-1.408,1.45846 -4.32992,1.61004 -5.86446,2.26525l-1.88396,0.78596c0,0 -0.99987,0.41712 -1.83317,-0.10046c-0.81554,-0.44542 -0.99392,-1.44512 -0.99392,-1.44512c-0.40642,-2.35554 -0.308,-4.35288 -0.31637,-6.72008l-0.00583,-2.02275c0,0 -0.00575,-1.99433 1.98858,-2.00008c0.6565,-0.00188 1.0975,0.21292 1.39375,0.502c0.66037,0.02871 1.17913,0.39912 1.17913,0.39912c2.35633,1.68575 4.92971,2.77083 7.31567,4.37738l0.50846,0.38717c0,0 1.57988,1.21712 0.36275,2.797z" fill="#ffffff" stroke-width="0.5"/><path d="M159.30728,180.62113c-1.21713,-1.57987 0.36275,-2.797 0.36275,-2.797l0.50846,-0.38717c2.38596,-1.60654 4.95934,-2.69162 7.31567,-4.37738c0,0 0.51875,-0.37042 1.17912,-0.39912c0.29625,-0.28909 0.73725,-0.50388 1.39375,-0.502c1.99433,0.00575 1.98858,2.00008 1.98858,2.00008l-0.00583,2.02275c-0.00838,2.36721 0.09004,4.36455 -0.31637,6.72009c0,0 -0.17838,0.99971 -0.99392,1.44512c-0.83329,0.51758 -1.83316,0.10046 -1.83316,0.10046l-1.88396,-0.78596c-1.53454,-0.65521 -4.45646,-0.80679 -5.86446,-2.26525c-0.54646,0.1055 -1.24366,0.01321 -1.85062,-0.77467z" data-paper-data="{&quot;index&quot;:null}" fill="#ffffff" stroke-width="0.5"/><text transform="translate(210.0275,244.64291) scale(0.30996,0.2912)" font-size="40" xml:space="preserve" fill="#ffffff" fill-rule="nonzero" stroke="none" stroke-width="1" stroke-linecap="butt" stroke-linejoin="miter" stroke-miterlimit="10" stroke-dasharray="" stroke-dashoffset="0" font-family="Pixel" font-weight="normal" text-anchor="start" style="mix-blend-mode: normal"><tspan x="0" dy="0">Aleatório</tspan></text></g></g></svg>