<svg version="1.1" xmlns="http://www.w3.org/2000/svg" xmlns:xlink="http://www.w3.org/1999/xlink" width="95.35236" height="95.55116" viewBox="0,0,95.35236,95.55116"><g transform="translate(-194.17007,-111.36632)"><g data-paper-data="{&quot;isPaintingLayer&quot;:true}" fill-rule="nonzero" stroke-linecap="butt" stroke-linejoin="miter" stroke-miterlimit="10" stroke-dasharray="" stroke-dashoffset="0" style="mix-blend-mode: normal"><path d="M224.64834,176.725c-0.03695,0.48149 -0.5558,0.55925 -0.5558,0.55925l-0.43374,0.05992c-1.31821,0.02953 -2.3319,0.63886 -3.60777,0.87893c-2.1495,0.31947 -4.62964,0.81723 -6.43801,2.07947c-0.38142,0.26623 -0.36771,0.6225 -0.60891,0.99669c-1.03583,1.60695 -1.98826,3.07906 -2.80969,4.82735c0,0 -0.09712,0.20671 -0.29875,0.31792c-0.21372,0.5419 -0.79076,0.36508 -0.79076,0.36508c-2.07688,-0.67724 -3.21509,-2.19445 -4.39217,-3.94752l-0.62634,-0.79399c-0.1551,-0.18836 -0.1976,-0.45647 -0.08694,-0.69198c0.12469,-0.26538 0.40537,-0.40751 0.68127,-0.36838l0.71834,0.08478l-0.02797,0.237c0.41638,0.01391 0.82871,0.01167 1.15538,-0.08174c-0.44362,-0.51179 -0.87505,-0.96868 -1.53834,-1.26671l-0.95096,-0.4468v0c-0.32582,-0.15308 -0.46585,-0.54131 -0.31276,-0.86713c0.07654,-0.16291 0.21186,-0.27937 0.36879,-0.33598l0.77654,-0.28009l0.05227,0.14493c0.74563,-0.31778 1.45243,-0.43839 2.29476,-0.60487c-0.85887,-1.13508 -1.58396,-2.55193 -1.78725,-3.86437c-0.15824,-1.02155 -0.47465,-1.71632 1.11095,-1.75416c0.15887,-0.00379 1.5119,0.65888 1.85295,0.82275l0.4395,0.06761c0.62551,-0.598 0.75675,-1.06912 0.74069,-2.07625c-0.00954,-0.59868 -0.26234,-1.558 -0.81029,-0.8438l-0.07078,0.01167l0.01075,0.02188l-0.66546,0.32707c-0.17257,0.08666 -0.38177,0.09611 -0.57011,0.00762c-0.32582,-0.15308 -0.46585,-0.54131 -0.31276,-0.86713l0.34751,-0.73963l0.0336,0.01579c0.03182,-0.07659 0.07032,-0.15035 0.11739,-0.22045c0.24616,-0.3666 1.56462,-0.51775 1.9668,-0.56975c1.43613,-0.18569 2.79678,-0.04512 4.10017,0.43303c0.15019,-1.16338 0.32682,-2.05796 0.90065,-3.27928l0.39716,-0.8453c0.15308,-0.32582 0.54131,-0.46585 0.86713,-0.31276c0.22336,0.10495 0.35941,0.32041 0.37356,0.55052l0.07412,0.9256l-0.07162,0.00574c0.11837,0.32654 0.25227,0.64551 0.42754,0.94471c0.67293,1.14882 1.61178,2.00903 2.1909,3.22856c0.29668,-0.44799 0.45961,-0.84283 0.59675,-1.50751l-0.11084,-0.73958c-0.0207,-0.12565 -0.0049,-0.25864 0.05335,-0.38261c0.15308,-0.32582 0.54131,-0.46585 0.86713,-0.31276c0.0318,0.01494 0.06185,0.03213 0.09001,0.05129l0.68062,0.44702l-0.02793,0.04252c1.46911,0.63411 2.53971,1.53975 2.56159,3.2937c0.13247,-0.17806 0.27609,-0.35718 0.4464,-0.53538l0.11727,-0.02086l-0.01903,-0.03871l0.66546,-0.32707c0.17257,-0.08666 0.38176,-0.09611 0.5701,-0.00762c0.32582,0.15308 0.46585,0.54131 0.31276,0.86713l-0.29787,0.63397l-0.18265,-0.08582c-0.17804,0.45888 -0.3713,0.88879 -0.46446,1.42213c-0.17367,0.99422 -0.11414,2.52944 0.04634,3.52838l-0.04056,0.53965c0,0 -0.01608,0.13621 -0.09596,0.2763z" data-paper-data="{&quot;index&quot;:null}" fill="#e23f3f" stroke="none" stroke-width="0.5"/><path d="M218.14956,178.63328c-0.52546,0.93483 -2.63216,1.54124 -3.4747,2.10871c0,0 -0.07118,0.04753 -0.1824,0.08525c-0.00407,0.00944 -0.00836,0.01897 -0.01287,0.02857c-0.30042,0.6394 -0.97556,0.32219 -0.97556,0.32219c-0.99962,-0.46967 -3.7538,-1.32215 -3.34079,-2.90139c0.10229,-0.39114 0.77879,-0.29848 1.12157,-0.52245c0.04749,-0.03103 0.69467,-0.51041 0.44065,-0.4848l-0.00358,0.0575l-0.94033,-0.09244c-0.09167,-0.00694 -0.18425,-0.03055 -0.27319,-0.07234c-0.37286,-0.17519 -0.54064,-0.60349 -0.37472,-0.95661c0.05046,-0.1074 0.12596,-0.19547 0.21711,-0.26111l0.56998,-0.42954l0.02159,0.0262c0.06077,-0.05197 0.12653,-0.09846 0.19869,-0.13795c1.17344,-0.64212 3.22188,1.12532 2.66936,-0.5191l0.04179,-0.07023l-0.0322,-0.00676l0.1571,-0.85772c0.00975,-0.06114 0.02808,-0.12169 0.05557,-0.18018c0.16592,-0.35313 0.60269,-0.49738 0.97556,-0.32219c0.23806,0.11185 0.39253,0.32688 0.42991,0.55964l0.0469,0.26662c0.21029,-0.18504 0.52879,-0.23522 0.81075,-0.10274l0.87647,0.4118c0.89245,0.20153 1.69148,0.59971 1.97734,1.62663c0.16048,0.57652 -0.24251,1.14892 -0.32678,1.73058l-0.10219,0.28499c0,0 -0.17895,0.38087 -0.57101,0.40887z" data-paper-data="{&quot;index&quot;:null}" fill="#ffde00" stroke="none" stroke-width="0.5"/><g fill="#ffc43a" stroke="#000000" stroke-width="0"><path d="M244.97985,161.0383c6.07697,0.59671 9.3667,2.20436 11.96397,7.98807c0.59818,1.33205 1.69998,2.59841 1.77749,4.12968c0.0359,0.70922 -0.07424,1.30926 -0.30652,1.81438c0.81743,-0.10129 1.55442,-0.03833 2.01912,0.42637c3.55176,3.55176 -2.97369,4.77933 -5.50424,4.77933c-14.1769,0 -17.20479,-0.57414 -26.62655,-0.74397c-1.73923,-0.03135 -3.40294,-0.59534 -5.0345,0.00789c-0.69995,0.25879 -3.90606,1.26192 -4.76753,0.57787c-0.91066,-0.0927 -1.57554,-0.65734 -1.36031,-2.02853c-0.00997,-0.07946 -0.01508,-0.16018 -0.01508,-0.24195c0,-0.33557 0.08618,-0.65366 0.24035,-0.93846c1.244,-4.48298 3.74566,-8.60439 6.22244,-12.64882c0.36775,-0.60051 1.40994,-3.65565 2.28455,-4.30462c1.8816,-1.3962 4.82457,-1.10327 7.03805,-1.4736c1.96965,-0.32953 7.08605,-1.37776 8.87293,0.17457c0.75431,0.65529 1.14288,1.51288 1.10469,2.27767c0.73793,0.06812 1.44042,0.14022 2.09117,0.20411z"/><path d="M262.53826,176.72755c0.15418,0.28481 0.24034,0.60288 0.24034,0.93845c0,0.08177 -0.00513,0.16249 -0.01508,0.24196c0.29188,1.8595 -1.03484,2.23571 -2.3981,1.96312c-1.06728,-0.21341 -2.15695,-0.8245 -2.50986,-1.43286c-2.7218,-4.69192 -3.54942,-11.20406 -7.57263,-15.30479c-0.39214,-0.39971 -2.8965,-0.26849 -3.05712,-0.27559c-2.70349,-0.11956 -4.32414,-0.12071 -7.83481,-0.24309c-2.80897,-0.09792 -2.9912,-2.64502 -1.27071,-4.13967c1.78688,-1.55233 6.90327,-0.5041 8.87293,-0.17457c2.21347,0.37033 5.15645,0.07739 7.03805,1.47359c0.87461,0.64899 1.91679,3.70412 2.28453,4.30463c2.47677,4.04443 4.97844,8.16584 6.22245,12.64882z" data-paper-data="{&quot;index&quot;:null}"/></g><g fill="#e0a00b" stroke="none"><path d="M203.31422,192.02055c0,-7.26691 5.15208,-13.1579 11.5075,-13.1579c6.35542,0 11.50751,5.89099 11.50751,13.1579c0,7.26691 -5.15209,13.15789 -11.50751,13.15789c-6.35542,0 -11.5075,-5.89099 -11.5075,-13.15789z" stroke-width="NaN"/><path d="M256.16211,192.08983c0,-7.26691 5.15209,-13.15789 11.50751,-13.15789c6.35542,0 11.5075,5.89099 11.5075,13.15789c0,7.26691 -5.15208,13.15789 -11.5075,13.15789c-6.35542,0 -11.50751,-5.89099 -11.50751,-13.15789z" stroke-width="NaN"/><path d="M213.6387,205.17845v-26.31579h54.20357v26.31579z" stroke-width="0"/></g><g fill="#ffb80e" stroke="none"><path d="M206.62209,192.00489c0,-5.72079 4.63761,-10.3584 10.3584,-10.3584c5.72079,0 10.3584,4.63761 10.3584,10.3584c0,5.72079 -4.63761,10.35839 -10.3584,10.35839c-5.72079,0 -10.3584,-4.63761 -10.3584,-10.35839z" stroke-width="NaN"/><path d="M254.19273,192.15702c0,-5.72079 4.63761,-10.35839 10.3584,-10.35839c5.72078,0 10.35839,4.6376 10.35839,10.35839c0,5.72079 -4.63761,10.3584 -10.35839,10.3584c-5.72079,0 -10.3584,-4.63761 -10.3584,-10.3584z" stroke-width="NaN"/><path d="M215.91561,202.36328v-20.71679h48.79094v20.71679z" stroke-width="0"/></g><g fill="#f3ae0c" stroke="none"><path d="M210.38141,199.48374c0,-1.67038 4.17036,-3.02448 9.31475,-3.02448c5.1444,0 9.31475,1.35411 9.31475,3.02448c0,1.67038 -4.17035,3.02448 -9.31475,3.02448c-5.1444,0 -9.31475,-1.3541 -9.31475,-3.02448z" stroke-width="NaN"/><path d="M253.15912,199.52816c0,-1.67038 4.17035,-3.02448 9.31475,-3.02448c5.14439,0 9.31474,1.35411 9.31474,3.02448c0,1.67038 -4.17035,3.02448 -9.31474,3.02448c-5.1444,0 -9.31475,-1.3541 -9.31475,-3.02448z" stroke-width="NaN"/><path d="M218.73856,202.50822v-6.04896h43.87507v6.04896z" stroke-width="0"/></g><path d="M210.91534,192.05463c0,-5.03704 4.08332,-9.12035 9.12035,-9.12035c5.03704,0 9.12035,4.08332 9.12035,9.12035c0,5.03704 -4.08331,9.12036 -9.12035,9.12036c-5.03704,0 -9.12035,-4.08332 -9.12035,-9.12036z" fill="#e0a00b" stroke="none" stroke-width="0"/><path d="M250.86249,191.94041c0,-5.03704 4.08332,-9.12035 9.12036,-9.12035c5.03703,0 9.12035,4.08332 9.12035,9.12035c0,5.03704 -4.08332,9.12035 -9.12035,9.12035c-5.03704,0 -9.12036,-4.08332 -9.12036,-9.12035z" fill="#e0a00b" stroke="none" stroke-width="0"/><path d="M230.80283,191.99666c0,-5.03704 4.08332,-9.12035 9.12035,-9.12035c5.03704,0 9.12036,4.08332 9.12036,9.12035c0,5.03704 -4.08332,9.12036 -9.12036,9.12036c-5.03704,0 -9.12035,-4.08332 -9.12035,-9.12036z" fill="#e0a00b" stroke="none" stroke-width="0"/><path d="M214.74132,191.96723c0,-2.94778 2.38964,-5.33741 5.33741,-5.33741c2.94778,0 5.33741,2.38964 5.33741,5.33741c0,2.94778 -2.38964,5.33742 -5.33741,5.33742c-2.94778,0 -5.33741,-2.38965 -5.33741,-5.33742z" fill="#ffc43a" stroke="none" stroke-width="0"/><path d="M234.74262,192.27117c0,-2.94778 2.38964,-5.33741 5.33741,-5.33741c2.94778,0 5.33741,2.38964 5.33741,5.33741c0,2.94778 -2.38964,5.33742 -5.33741,5.33742c-2.94778,0 -5.33741,-2.38965 -5.33741,-5.33742z" fill="#ffc43a" stroke="none" stroke-width="0"/><path d="M255.00481,192.31421c0,-2.94778 2.38964,-5.33741 5.33741,-5.33741c2.94778,0 5.33741,2.38964 5.33741,5.33741c0,2.94778 -2.38964,5.33742 -5.33741,5.33742c-2.94778,0 -5.33741,-2.38964 -5.33741,-5.33742z" fill="#ffc43a" stroke="none" stroke-width="0"/><path d="M224.12938,194.41649c-1.25,0 -1.25,-1.25 -1.25,-1.25v-0.25716c0.00144,-2.77198 -0.24822,-3.65148 -3.2074,-3.63599c0,0 -1.25,0 -1.25,-1.25c0,-1.25 1.25,-1.25 1.25,-1.25c4.2989,0.01856 5.70539,2.03307 5.7074,6.13599v0.25716c0,0 0,1.25 -1.25,1.25z" fill="#ffd268" stroke="none" stroke-width="0.5"/><path d="M244.22233,194.44685c-1.25,0 -1.25,-1.25 -1.25,-1.25v-0.25715c0.00144,-2.77197 -0.24822,-3.65148 -3.20739,-3.636c0,0 -1.25,0 -1.25,-1.25c0,-1.25 1.25,-1.25 1.25,-1.25c4.2989,0.01856 5.70538,2.03307 5.70739,6.136v0.25715c0,0 0,1.25 -1.25,1.25z" fill="#ffd268" stroke="none" stroke-width="0.5"/><path d="M264.40729,194.84535c-1.25,0 -1.25,-1.25 -1.25,-1.25v-0.25715c0.00144,-2.77197 -0.24822,-3.65148 -3.20739,-3.636c0,0 -1.25,0 -1.25,-1.25c0,-1.25 1.25,-1.25 1.25,-1.25c4.2989,0.01856 5.70538,2.03307 5.70739,6.136v0.25715c0,0 0,1.25 -1.25,1.25z" fill="#ffd268" stroke="none" stroke-width="0.5"/><g fill="#f5bc38" stroke="none"><path d="M217.67998,176.05403c0,-1.67038 3.07763,-3.02448 6.87409,-3.02448c3.79646,0 6.87409,1.35411 6.87409,3.02448c0,1.67038 -3.07763,3.02448 -6.87409,3.02448c-3.79646,0 -6.87409,-1.3541 -6.87409,-3.02448z" stroke-width="NaN"/><path d="M249.24901,176.09845c0,-1.67038 3.07763,-3.02448 6.87408,-3.02448c3.79645,0 6.87408,1.35411 6.87408,3.02448c0,1.67038 -3.07763,3.02448 -6.87408,3.02448c-3.79646,0 -6.87408,-1.3541 -6.87408,-3.02448z" stroke-width="NaN"/><path d="M223.84738,179.07851v-6.04896h32.37886v6.04896z" stroke-width="0"/></g><path d="M220.29383,169.90428c0.79635,-0.61035 1.28128,-3.6477 1.8628,-4.76743c2.75655,-5.30786 5.93605,-7.76706 12.07469,-7.91286c0.00828,-0.0002 0.01659,-0.00042 0.02491,-0.00068c0.07488,0.01512 0.15219,0.02355 0.23127,0.02463c0.00587,0.00003 0.01169,0.00007 0.01745,0.00012c1.92047,0.01778 3.84104,0.02926 5.76163,0.03401c1.38459,1.42115 1.35568,2.33348 -0.08671,3.77587c-0.86315,0.86315 -2.43112,0.25441 -3.6516,0.27598c-3.48147,0.06153 -6.27157,0.2717 -8.62213,2.70883c-2.24194,2.3245 -6.07371,12.16146 -7.23279,14.95973c-0.37919,0.91544 -3.31028,3.46559 -4.32233,1.69449c-0.65074,-0.38405 -1.08728,-1.09242 -1.08728,-1.90274c0,-0.78803 0.41286,-1.47962 1.03406,-1.87031c1.43024,-2.60346 3.75072,-6.83165 3.99602,-7.01965z" fill="#e0a00b" stroke="none" stroke-width="0.5"/><path d="M263.82399,176.65185c0.62121,0.39068 1.03406,1.08228 1.03406,1.87031c0,0.81032 -0.43654,1.51869 -1.08728,1.90274c-1.01205,1.7711 -3.94315,-0.77906 -4.32233,-1.6945c-1.15908,-2.79827 -4.99085,-12.63522 -7.23279,-14.95972c-2.35056,-2.43713 -5.14066,-2.6473 -8.62213,-2.70883c-1.22048,-0.02157 -2.78845,0.58716 -3.6516,-0.27598c-1.34891,-1.34891 -1.46161,-2.23424 -0.3381,-3.50569c3.08771,0.01012 6.17549,0.00295 9.26305,-0.02332c0.0535,0.00711 0.10672,0.01387 0.15963,0.02025c4.17135,0.83454 6.69509,3.26756 8.93867,7.58766c0.58151,1.11973 1.06645,4.15708 1.8628,4.76744c0.24531,0.18801 2.56578,4.41619 3.99602,7.01965z" data-paper-data="{&quot;index&quot;:null}" fill="#e0a00b" stroke="none" stroke-width="0.5"/><path d="M254.25068,163.78084c-0.2236,0.44721 -0.67083,0.22361 -0.67083,0.22361l-0.18107,-0.09247c-2.78709,-1.12305 -5.42675,-1.5412 -8.25089,-2.38562c-1.58196,-0.03556 -3.18258,0.01253 -4.81207,0.01253c-4.28577,0 -8.13298,0.86109 -12.26971,1.74116c0,0 -0.48927,0.103 -0.59228,-0.38627c-0.103,-0.48927 0.38627,-0.59228 0.38627,-0.59228c0.38639,-0.08041 0.77029,-0.1609 1.15226,-0.2408c-0.12362,-0.34195 0.2063,-0.56189 0.2063,-0.56189c3.08015,-2.04083 7.39774,-1.10749 10.87739,-1.39746c4.38387,-0.00304 9.00746,0.4461 13.37394,0.87799l0.05974,-0.00249c0,0 0.5,0 0.5,0.5c0,0.5 -0.5,0.5 -0.5,0.5l-0.15924,-0.00248c-0.24538,-0.02483 -0.49162,-0.04965 -0.73862,-0.07439c0.08003,0.10282 0.13092,0.25401 0.05212,0.46413c-0.0286,0.07628 -0.06498,0.13546 -0.10583,0.18111c0.39534,0.13469 0.79242,0.27977 1.19202,0.43826l0.25689,0.12651c0,0 0.44721,0.22361 0.22361,0.67082zM231.33351,161.58458c0.78583,-0.1556 1.56839,-0.3024 2.35289,-0.43408c-0.81693,0.06426 -1.61086,0.19291 -2.35289,0.43408z" fill="#e0a00b" stroke="none" stroke-width="0.5"/><path d="M209.28212,183.86997c0.16778,3.14873 -0.13098,3.18653 -0.13098,3.18653l-0.38246,0.0484c-1.76793,0.19676 -3.56511,0.00031 -5.33569,0.22439c0,0 -0.29877,0.03781 -0.46654,-3.11092c-0.16778,-3.14873 0.13099,-3.18653 0.13099,-3.18653c1.77015,-0.22403 3.57134,0.02864 5.3357,-0.22441l0.38245,-0.0484c0,0 0.29876,-0.0378 0.46654,3.11093z" fill="#fc9b2d" stroke="none" stroke-width="0.5"/><path d="M279.13324,184.8969c0.05412,3.15914 -0.24462,3.17138 -0.24462,3.17138l-0.38243,0.01566c-1.76685,0.04547 -3.54869,-0.30426 -5.31915,-0.23174c0,0 -0.29875,0.01225 -0.35288,-3.14689c-0.05412,-3.15914 0.24462,-3.17138 0.24462,-3.17138c1.77003,-0.07252 3.55385,0.33372 5.31916,0.23174l0.38243,-0.01567c0,0 0.29874,-0.01225 0.35286,3.14689z" fill="#fcbb71" stroke="none" stroke-width="0.5"/><g data-paper-data="{&quot;index&quot;:null}" fill="#ff6e3b" stroke="#000000" stroke-width="0"><path d="M225.79068,155.73721c1.30172,-0.70085 2.17989,-0.8221 3.48295,-0.01071c0.30011,0.18689 0.69254,0.29254 0.91493,0.58977c0.10301,0.13767 0.1619,0.27312 0.18346,0.40599c0.15057,-0.13076 0.30717,-0.21764 0.46331,-0.18703c1.19339,0.234 0.04796,1.36201 -0.46053,1.70378c-2.84876,1.91473 -3.53473,2.20831 -5.45092,3.4467c-0.35372,0.22861 -0.7642,0.33998 -1.01057,0.68154c-0.10569,0.14654 -0.61446,0.78111 -0.87996,0.76001c-0.19551,0.10436 -0.40538,0.08071 -0.54733,-0.2239c-0.01274,-0.01462 -0.02467,-0.03014 -0.03571,-0.04657c-0.04532,-0.06743 -0.07096,-0.14299 -0.07844,-0.22103c-0.35551,-1.06883 -0.40944,-2.23488 -0.45799,-3.38212c-0.00721,-0.17033 -0.21042,-0.925 -0.12233,-1.17353c0.18952,-0.53469 0.82045,-0.8733 1.21522,-1.24667c0.35127,-0.33225 1.23782,-1.2339 1.80654,-1.1633c0.24007,0.02981 0.43397,0.14964 0.5296,0.30848c0.15746,-0.08598 0.30837,-0.16637 0.44778,-0.24143z"/><path d="M231.43791,156.51843c0.06943,0.03642 0.12972,0.08868 0.17504,0.15611c0.01104,0.01643 0.02091,0.03334 0.02963,0.05065c0.30979,0.33422 0.09401,0.58901 -0.21674,0.71836c-0.24328,0.10126 -0.54478,0.12564 -0.69785,0.05106c-1.18061,-0.57521 -2.22645,-1.772 -3.58874,-2.05263c-0.13279,-0.02736 -0.6183,0.33726 -0.65152,0.35752c-0.5594,0.3411 -0.88522,0.55977 -1.60718,1.00931c-0.57767,0.35969 -0.95829,-0.12749 -0.81445,-0.66022c0.14941,-0.55326 1.31909,-1.03365 1.75938,-1.23347c0.4948,-0.22454 1.04661,-0.68087 1.61328,-0.65444c0.26339,0.01228 0.88544,0.48544 1.04044,0.55644c1.04392,0.47818 2.10326,0.96851 2.95872,1.7013z" data-paper-data="{&quot;index&quot;:null}"/></g><path d="M240.01205,166.8874c0.408,-0.25394 0.86669,0.48304 0.86669,0.48304c1.25762,2.07829 2.96375,3.80204 4.43768,5.68118c0.11533,0.1805 0.23101,0.36075 0.34624,0.54115c0.23269,0.3643 0.60889,0.78106 1.02124,1.15651c0.06016,0.18132 0.06711,0.31728 0.06711,0.31728l-0.01505,0.11573c0.17843,0.69844 0.92779,2.83088 0.71339,3.24789c-0.19837,0.38582 -3.03622,-0.48121 -3.50642,-0.8595c-1.6833,-1.35427 -3.80338,-5.2759 -5.31954,-7.17778c-0.13774,-0.08772 -0.29218,-0.24557 -0.43698,-0.52519c-0.39638,-0.76548 0.07239,-0.91264 0.07239,-0.91264c0.67962,-0.20013 0.8066,-0.81808 1.22266,-1.34542c0.00849,-0.13965 0.06145,-0.43693 0.36162,-0.37553c-0.00229,-0.13813 0.04012,-0.26651 0.16898,-0.34671z" fill="#cfcfcf" stroke="none" stroke-width="0.5"/><path d="M238.82009,168.84753c-0.10545,0.09052 -0.20887,0.15445 -0.30888,0.19733c-0.76988,0.70721 -1.29573,1.74427 -1.44778,3.16016c0,0 -0.12058,1.01694 -1.13752,0.89636c-1.01694,-0.12058 -0.89636,-1.13752 -0.89636,-1.13752c0.21306,-1.67593 0.82164,-3.00449 1.70724,-3.9926c-0.94686,-1.15548 -2.51022,-3.15082 -2.36387,-3.54008c1.46784,-3.90405 4.06059,0.62939 4.98108,1.72024l0.04796,0.07443c1.50252,-0.51963 3.26126,-0.56282 5.07502,-0.14128l0.23412,0.05449c0,0 0.99741,0.23214 0.76526,1.22955c-0.23214,0.99741 -1.22955,0.76526 -1.22955,0.76526l-0.23412,-0.05449c-1.87148,-0.43625 -3.6963,-0.30062 -5.01257,0.5812c-0.0488,0.06279 -0.10825,0.12534 -0.18002,0.18695z" fill="#cfcfcf" stroke="none" stroke-width="0.5"/><path d="M212.00635,206.91748v-3.74217h58.12836v3.74217z" fill="#b07b00" stroke="none" stroke-width="0"/><g data-paper-data="{&quot;index&quot;:null}" fill="#ff3b3b" stroke="#000000" stroke-width="0"><path d="M254.06896,155.66123c0.13941,0.07506 0.29032,0.15546 0.44779,0.24143c0.09563,-0.15884 0.28952,-0.27867 0.5296,-0.30848c0.56873,-0.07061 1.45527,0.83105 1.80654,1.1633c0.39477,0.37337 1.0257,0.71198 1.21522,1.24667c0.0881,0.24853 -0.11512,1.0032 -0.12233,1.17353c-0.04855,1.14723 -0.10248,2.31329 -0.45799,3.38212c-0.00748,0.07804 -0.03312,0.1536 -0.07844,0.22103c-0.01103,0.01642 -0.02297,0.03195 -0.03571,0.04657c-0.14195,0.30462 -0.35181,0.32826 -0.54733,0.2239c-0.2655,0.0211 -0.77426,-0.61347 -0.87995,-0.76001c-0.24638,-0.34156 -0.65686,-0.45293 -1.01057,-0.68154c-1.91619,-1.23839 -2.60216,-1.53197 -5.45092,-3.4467c-0.5085,-0.34178 -1.65393,-1.46979 -0.46053,-1.70379c0.15614,-0.03061 0.31274,0.05627 0.46331,0.18704c0.02156,-0.13287 0.08046,-0.26831 0.18346,-0.40599c0.2224,-0.29723 0.61482,-0.40287 0.91493,-0.58976c1.30306,-0.8114 2.18122,-0.69014 3.48295,0.01071z"/><path d="M248.42171,156.44248c0.85547,-0.7328 1.9148,-1.22313 2.95873,-1.70131c0.155,-0.071 0.77705,-0.54415 1.04044,-0.55644c0.56667,-0.02643 1.11847,0.4299 1.61327,0.65444c0.44029,0.19982 1.60998,0.6802 1.75939,1.23346c0.14385,0.53273 -0.23678,1.01991 -0.81445,0.66022c-0.72197,-0.44954 -1.04778,-0.66821 -1.60718,-1.00931c-0.03322,-0.02026 -0.51873,-0.38488 -0.65152,-0.35753c-1.36228,0.28063 -2.40812,1.47743 -3.58873,2.05264c-0.15307,0.07458 -0.45458,0.05019 -0.69786,-0.05107c-0.31075,-0.12936 -0.52653,-0.38414 -0.21674,-0.71836c0.00872,-0.01731 0.01859,-0.03422 0.02964,-0.05066c0.04532,-0.06743 0.1056,-0.11969 0.17504,-0.1561z" data-paper-data="{&quot;index&quot;:null}"/></g><path d="M236.92757,159.5298c0,0 -0.99316,-0.16095 -1.05304,-1.08508c-0.15,-0.27044 -0.17772,-0.53201 -0.17772,-0.53201l-0.06549,-1.03573c0.3305,-1.91187 0.47966,-4.85443 0.16928,-6.76489c-0.16649,-1.02484 -0.52729,-1.85364 -0.85824,-2.73764l-0.35221,0.1604l-0.55673,-1.22248c-0.28613,-0.62827 -0.00876,-1.36953 0.61951,-1.65566c0.36317,-0.16539 0.7641,-0.1425 1.09304,0.02761l1.26863,0.64236l-0.03736,0.07379l0.2244,0.04267c0.32253,0.34559 0.59383,0.69234 0.84381,1.03679c0.08193,-3.36286 2.15553,-5.07507 4.98712,-6.25755l-0.05258,-0.08217l1.31533,-0.84168c0.05445,-0.03608 0.11244,-0.06835 0.17378,-0.09628c0.62827,-0.28613 1.36953,-0.00876 1.65566,0.61951c0.10887,0.23905 0.13615,0.49445 0.09358,0.7349l-0.22942,1.41567c0.24783,1.2777 0.55125,2.03855 1.10995,2.90437c1.13831,-2.32536 2.95823,-3.95347 4.27483,-6.14108c0.34289,-0.56974 0.60695,-1.17836 0.84136,-1.80182l-0.1372,-0.01263l0.16323,-1.77322c0.03236,-0.44093 0.29816,-0.851 0.72889,-1.04716c0.62827,-0.28613 1.36953,-0.00876 1.65566,0.61951l0.74231,1.62997c1.07253,2.35506 1.39086,4.0745 1.65234,6.30881c2.51028,-0.8872 5.12263,-1.12571 7.87229,-0.73691c0.77001,0.10887 3.29482,0.42876 3.7585,1.13737c0.08866,0.1355 0.16081,0.2778 0.22007,0.4254l0.06478,-0.0295l0.64952,1.42622c0.28613,0.62827 0.00876,1.36953 -0.61951,1.65566c-0.36317,0.16539 -0.7641,0.1425 -1.09304,-0.02761l-1.26863,-0.64236l0.02112,-0.0417l-0.13546,-0.024c-1.03446,-1.38203 -1.54108,0.45181 -1.57303,1.59958c-0.05376,1.93089 0.18715,2.8373 1.373,3.99826l0.84432,-0.11963c0.65773,-0.30645 3.26736,-1.54632 3.57193,-1.53543c3.03964,0.1087 2.41706,1.43377 2.09035,3.38906c-0.41974,2.51209 -1.84246,5.21247 -3.51528,7.36949c1.61144,0.33843 2.96405,0.58582 4.38659,1.21218l0.10354,-0.27671l1.48268,0.55478c0.29962,0.1121 0.55646,0.33851 0.69953,0.65265c0.28613,0.62827 0.00876,1.36953 -0.61951,1.65566v0l-1.83372,0.83511c-1.27869,0.55637 -2.11641,1.42267 -2.97876,2.39396c0.62429,0.18657 1.41493,0.20027 2.21367,0.18308l-0.04824,-0.45512l1.3794,-0.1462c0.52995,-0.06873 1.06495,0.21019 1.298,0.72193c0.20682,0.45412 0.11923,0.96728 -0.18248,1.32493l-1.21917,1.50826c-2.29711,3.33482 -4.51428,6.21824 -8.51231,7.46958c0,0 -1.11055,0.32591 -1.50802,-0.7181c-0.3841,-0.21785 -0.56563,-0.61646 -0.56563,-0.61646c-1.53531,-3.37122 -3.3281,-6.2158 -5.27777,-9.32089c-0.45399,-0.72304 -0.41957,-1.4059 -1.14492,-1.92513c-3.43892,-2.46167 -8.18345,-3.47268 -12.29798,-4.13428c-2.44111,-0.48943 -4.37107,-1.68099 -6.89815,-1.76765l-0.83038,-0.12479z" data-paper-data="{&quot;index&quot;:null}" fill="#e23f3f" stroke="none" stroke-width="0.5"/><path d="M254.9079,166.37496c-1.60269,-1.10738 -5.62864,-2.31823 -6.61495,-4.12283c-0.75117,-0.06262 -1.08564,-0.79705 -1.08564,-0.79705l-0.18946,-0.54881c-0.14834,-1.1173 -0.90805,-2.22411 -0.58717,-3.32597c0.57155,-1.96267 2.11284,-2.70799 3.82877,-3.07412l1.69008,-0.76969c0.5437,-0.24761 1.15331,-0.14412 1.55234,0.2155l0.09602,-0.5102c0.07699,-0.4455 0.37809,-0.8543 0.83715,-1.06336c0.71901,-0.32745 1.55327,-0.04089 1.86338,0.64005c0.05137,0.1128 0.08514,0.22934 0.10245,0.34678l0.28169,1.64833l-0.06191,0.01222l0.07855,0.13563c-1.09698,3.14073 2.87135,-0.20182 5.10687,1.05625c0.13748,0.07737 0.26252,0.16801 0.37786,0.26906l0.042,-0.04974l1.08319,0.83667c0.17327,0.12795 0.31605,0.29856 0.41036,0.50564c0.31011,0.68093 -0.02137,1.49839 -0.74038,1.82584c-0.1715,0.0781 -0.34956,0.12128 -0.52551,0.1325l-1.80526,0.15581l-0.00556,-0.11036c-0.48653,-0.0549 0.74356,0.8791 0.83393,0.9397c0.6522,0.43729 1.95155,0.27502 2.13879,1.0274c0.75598,3.03774 -4.54479,4.60965 -6.47236,5.48749c0,0 -1.30188,0.5929 -1.86338,-0.64005c-0.00843,-0.01851 -0.01643,-0.03687 -0.02403,-0.05508c-0.2124,-0.07486 -0.34782,-0.16762 -0.34782,-0.16762z" data-paper-data="{&quot;index&quot;:null}" fill="#ffde00" stroke="none" stroke-width="0.5"/><path d="M237.26668,112.90418c0.43745,-0.72608 1.23348,-1.21171 2.14294,-1.21171c1.21151,0 2.22174,0.86176 2.45115,2.00574l0.29306,1.31877c0.23827,-0.07037 0.48504,-0.09413 0.74371,-0.05267c2.82463,0.45271 3.37301,2.61484 3.97606,4.67175l0.7382,-0.86123c0.45858,-0.54156 1.1435,-0.88536 1.90872,-0.88536c1.38071,0 2.5,1.11929 2.5,2.5c0,0.38089 -0.08518,0.74189 -0.23753,1.06498l-1.28257,2.88578l-0.24562,-0.10916c-0.17777,0.47312 -0.4351,0.9034 -0.80952,1.27065c-0.33925,0.33275 -0.66629,0.59591 -0.98124,0.79744c-0.06645,0.12957 -0.13454,0.26092 -0.20419,0.39319c0.98502,1.75535 1.3313,3.94723 -0.25533,5.53343c-6.0788,6.07714 -8.20944,1.77595 -7.03467,-3.8728c0.01779,-0.08556 0.03741,-0.17037 0.05877,-0.25447c-0.02777,0.06089 -0.05824,0.1175 -0.093,0.16711c-0.56117,0.80071 -0.89642,1.86226 -1.70428,2.39739l-0.03547,0.35469l0.35601,0.089l-0.63963,2.55853c-0.25265,1.1133 -1.24829,1.9444 -2.43804,1.9444c-1.38071,0 -2.5,-1.11929 -2.5,-2.5c0,-0.09542 0.00535,-0.18959 0.01575,-0.28222l0.09176,-0.91761l-1.05056,1.57585c-0.44514,0.68925 -1.2201,1.14551 -2.10163,1.14551c-0.50714,0 -0.979,-0.151 -1.37309,-0.4105c-0.17115,1.56377 -0.31098,3.02373 1.51007,4.62284c0,0 1.76777,1.76777 0,3.53553c-1.76777,1.76777 -3.53553,0 -3.53553,0c-2.88642,-3.10235 -5.50933,-9.33628 -1.93091,-13.2836c0.84462,-0.9317 2.01723,-1.43642 3.22265,-1.89844c0.41897,-0.65423 1.13433,-1.10041 1.95664,-1.14913c0.10311,-1.30427 1.06682,-2.20656 4.28213,-1.29954c0.57181,0.1613 1.04843,0.47128 1.4664,0.87287c0.23846,-0.24255 0.47705,-0.47973 0.70344,-0.71386c2.30813,-2.38699 3.58096,-3.22985 5.473,-2.60701c-0.22221,-0.57145 -0.38808,-1.07604 -0.49893,-1.42175c-0.03126,0.09086 -0.06094,0.18195 -0.08564,0.27378l-0.23859,0.07183l0.03022,0.05541l-3.54705,1.93475c-0.36495,0.20838 -0.78748,0.32746 -1.23782,0.32746c-1.38071,0 -2.5,-1.11929 -2.5,-2.5c0,-0.13023 0.00996,-0.25814 0.02915,-0.383c-0.24483,-0.06293 -0.47408,-0.11985 -0.68328,-0.16572c-0.61195,2.12749 -1.99579,3.98263 -5.90851,-0.09469c-2.51972,-2.62572 1.6116,-6.59259 2.92444,-8.15905l2.2243,-0.87302c0,0 2.12773,0 2.45733,1.96292c0.40488,0.02787 0.78324,0.15214 1.11231,0.35003z" fill="#cfcfcf" stroke="none" stroke-width="0.5"/><path d="M236.32639,173.50098c-0.1819,0.72761 -0.90951,0.5457 -0.90951,0.5457l-0.50775,-0.15002c-2.16262,-0.143 -2.24893,-1.08422 -1.47051,-2.91267c0.40097,-0.40344 0.67054,-0.66249 0.83195,-0.81286c-0.75944,0.63374 -3.56624,2.70065 -4.6239,0.37814c-0.46455,-1.02009 2.49873,-4.99323 3.08244,-5.89078c0.31119,-0.47851 1.0599,-0.85418 0.96216,-1.41656c-0.13715,-0.78921 -1.60181,-0.03492 -2.40284,-0.03492c-0.91954,0 -1.83908,0 -2.75862,0c0,0 -0.75,0 -0.75,-0.75c0,-0.75 0.75,-0.75 0.75,-0.75c0.91954,0 1.83908,0 2.75862,0c0.06428,0 2.52385,-0.0139 2.65096,0.03849c3.80212,1.56737 -2.67246,6.35565 -2.92325,8.19179c-0.07494,0.54863 1.07517,-0.26876 1.60235,-0.43815c0.60861,-0.19556 2.99571,-1.52137 3.45655,-0.3496c0.42186,1.07267 -0.78955,2.08553 -1.41956,2.71153c-0.11505,0.16058 0.0583,0.56498 0.25364,0.53561l0.87156,0.19481c0,0 0.72761,0.1819 0.5457,0.9095z" fill="#b07b00" stroke="none" stroke-width="0.5"/><path d="M243.59544,180.97649c-0.41603,-0.62404 0.20801,-1.04006 0.20801,-1.04006l0.65472,-0.41715c1.87832,-0.74196 3.04112,-0.89338 3.4858,1.13795c0.10514,0.4803 1.88064,-0.56418 1.42606,-0.37684c-0.43767,0.18037 -0.75718,-0.12902 -0.99549,-0.53868l-0.37505,-0.37505v0c-0.13572,-0.13572 -0.21967,-0.32322 -0.21967,-0.53033c0,-0.41421 0.33579,-0.75 0.75,-0.75h1.2069v0.04476l0.14183,-0.03122c1.54962,0.59892 2.76269,1.34313 4.43395,1.54398c0,0 0.27077,0.03385 0.46525,0.22404l1.00638,0.11182c0.08837,0.00863 0.17224,0.03261 0.24892,0.06922c1.29864,0.20518 3.24624,0.79005 4.20782,0.49846c0.33502,-0.10159 -0.24657,-0.66197 -0.44063,-0.95335c-0.07291,-0.10947 -0.23957,-0.27076 -0.44087,-0.44569l-0.74705,-0.29882c-0.28484,-0.10636 -0.48768,-0.38091 -0.48768,-0.70285c0,-0.2992 0.1752,-0.55748 0.42861,-0.67784l0.68494,-0.3431c1.2365,-0.66455 2.25038,-1.4881 3.62729,-1.78346c0,0 0.73544,-0.14709 0.88252,0.58835c0.14709,0.73544 -0.58835,0.88252 -0.58835,0.88252c-0.98091,0.17643 -1.82225,0.79404 -2.68557,1.32648c0.99301,0.53702 1.56968,2.73268 0.82743,3.46841c-0.90401,0.89608 -4.04414,0.12274 -5.54085,-0.08499l-0.55015,0.24143l-0.11038,-0.25153c-0.77747,0.37919 -1.53301,0.60133 -2.34795,1.26858c-0.28915,0.23675 -0.39413,0.51064 -0.58505,0.7202c0.55375,0.217 1.77303,1.06516 1.75817,1.24894c-0.13456,1.6634 -3.59619,3.20102 -4.7002,4.27851l-1.03063,0.36234c0,0 -0.72761,0.1819 -0.90951,-0.54571c-0.1819,-0.72761 0.54571,-0.90951 0.54571,-0.90951l0.34868,0.01751c1.14805,-1.11278 2.65771,-2.55262 4.26532,-2.96287c0.7083,-0.18075 -1.96503,0.27393 -2.14975,-0.43335c-0.17984,-0.68863 0.40011,-1.37452 0.72128,-2.00965c0.25357,-0.50144 0.99764,-1.22575 1.79112,-1.68879c-0.73529,-0.21007 -1.40441,-0.49586 -2.10766,-0.80552c-0.04079,0.94174 -1.30325,2.23934 -2.51468,2.1189c-0.76077,-0.07564 -1.37176,-0.98133 -1.50006,-1.73501c-0.0971,-0.57039 -1.13357,0.25684 -1.66968,0.47447l-0.37976,0.27251c0,0 -0.62404,0.41603 -1.04006,-0.20801z" fill="#b07b00" stroke="none" stroke-width="0.5"/><path d="M227.38327,184.35356c0,0.50888 -0.34528,0.67248 -0.56729,0.72508c-0.34139,0.95881 -0.60989,1.75717 -2.27466,1.13543c-0.29433,-0.10992 -1.70092,-3.25656 -1.74143,-3.41233c-0.06145,-0.23628 -0.01756,-0.69007 0.05526,-1.07319c-0.36475,0.2492 -1.04606,0.29679 -1.64094,0.29519c-0.13555,0.19418 -0.36065,0.32121 -0.61542,0.32121h-1.2069v-0.03843c-0.30953,-0.11931 0.00184,1.10759 -0.20325,1.5434c-0.43078,0.91535 -1.12851,2.0879 -1.94372,2.90595c0.28248,0.10756 0.48318,0.38092 0.48318,0.70115c0,0.27798 -0.15124,0.52064 -0.37592,0.65019l-0.83971,0.50383c-0.11502,0.07176 -0.25089,0.11322 -0.39644,0.11322c-0.2,0 -0.38172,-0.07829 -0.51618,-0.20589c-0.75374,-0.08223 -1.56175,-0.29402 -1.97883,0.23925c-0.35669,0.45605 0.04346,1.16334 -0.03838,1.7365c-0.14001,0.98048 -0.25442,1.72551 -0.61937,2.43466c0.34455,0.02791 0.6282,0.08949 0.75206,0.20481c0.73084,0.68039 -0.05713,2.84135 -0.34333,3.54692c-0.10182,0.25102 -0.47191,0.97179 -0.32213,0.74608c1.49222,-2.24887 2.63112,-2.59731 4.84654,-1.12056c0.10302,0.21335 1.2698,-2.09445 2.17206,-3.00002l0.68966,-0.68966c0,0 0.53033,-0.53033 1.06066,0c0.53033,0.53033 0,1.06066 0,1.06066l-0.68966,0.68966c-1.60982,1.60324 -1.55788,4.17713 -4.03484,3.20688c-0.4646,-0.30977 -0.73039,-1.23652 -1.26991,-1.09254c-0.8003,0.21357 -1.79793,3.00748 -3.19389,2.38577c-1.6572,-0.73805 -1.00254,-1.68992 -0.66696,-2.7022c0.21901,-0.66065 1.37947,-1.86718 0.69115,-1.97032c-0.20947,-0.03139 -0.42925,-0.047 -0.65759,-0.049c-0.15961,0.09334 -0.41642,0.18201 -0.69214,0.03113c-2.37445,0.22004 -5.4011,1.53572 -7.4556,1.94711c0,0 -0.73544,0.14709 -0.88252,-0.58835c-0.14709,-0.73544 0.58835,-0.88252 0.58835,-0.88252c2.45888,-0.49117 4.87685,-1.27526 7.36076,-1.64218c0.04467,-0.0066 0.09909,-0.01374 0.1615,-0.02106c0.01567,-0.01836 0.02553,-0.02821 0.02553,-0.02821c1.44009,-1.35495 0.22498,-3.85447 1.30121,-5.08062c0.64932,-0.73977 2.05697,-0.69536 3.07641,-0.76131l0.06542,-0.45794l0.02484,0.00355c0.00605,-0.06163 0.01418,-0.12313 0.02471,-0.1845c0.19991,-1.16467 2.69647,-2.66715 2.5388,-3.9032c-0.05007,-0.39252 -0.69814,-0.76324 -0.47313,-1.08873c0.21047,-0.30446 0.5887,-0.39554 0.97839,-0.47206c-1.16444,-0.57009 -2.06364,-1.82225 -3.20381,-2.37129l-0.59786,-0.39161c0,0 -0.62404,-0.41603 -0.20801,-1.04006c0.41603,-0.62404 1.04006,-0.20801 1.04006,-0.20801l0.43663,0.29804c1.37647,0.70704 2.85713,1.82659 4.00033,3.05922l0.16011,-0.16011l0.27238,0.27238c0.94533,-0.13704 3.01975,-0.77784 3.40568,-0.53899c0.19998,0.12376 1.19793,6.70543 1.63181,4.18046l1.05634,-0.51283c0,0 0.75,0 0.75,0.75z" fill="#b07b00" stroke="none" stroke-width="0.5"/><path d="M281.79669,139.8441c0.70973,0.19204 1.53633,0.71233 1.70682,2.07621c0.31009,2.48069 -2.17061,2.79078 -2.17061,2.79078c-1.24356,0.07005 -2.59022,0.71083 -3.73069,0.21015c-2.32768,-1.02189 -3.18412,-2.13103 -3.48825,-3.50395c-0.41515,0.8054 -1.25504,1.35616 -2.22357,1.35616c-1.28062,0 -2.33634,-0.96288 -2.48268,-2.20416l-0.64771,-4.8578l0.31195,-0.04159c-0.17097,-0.71767 -0.29313,-1.43247 -0.35366,-2.15842c-1.85551,0.38206 -3.93742,0.87696 -4.95527,-0.45568c-1.28122,-1.67747 -0.07758,-4.65656 1.38426,-6.17921c1.21006,-1.2604 3.43288,-1.06564 5.18379,-0.80831c1.72966,-3.06371 5.46174,-5.59989 8.13617,-3.60619c1.0753,-0.48701 2.07981,-0.73214 2.76027,-0.61337c1.87444,0.32718 2.53186,2.84112 3.79779,4.26168l-0.37471,0.79057h0.503v0.30845c1.74409,0.7096 3.50171,1.92414 4.16128,3.63514c1.35964,3.52705 -4.33054,7.75678 -6.31692,8.55115c-0.36405,0.14559 -0.7733,0.30483 -1.20127,0.4484z" fill="#cfcfcf" stroke="none" stroke-width="0.5"/><path d="M206.86592,138.15203c0.20999,0.05944 0.41226,0.14108 0.60838,0.24044c1.39448,-2.43535 5.22893,-5.5771 7.03586,-5.17956c2.74344,0.60358 4.13916,6.42059 3.03995,8.60836c-0.28827,0.57374 -0.67532,1.078 -1.11371,1.54614c0.88079,3.47867 0.4843,6.92777 -4.92633,6.51624c-1.11701,-0.08496 -2.00264,-0.76798 -2.79291,-1.64779c-0.10672,0.0139 -0.21555,0.02107 -0.32606,0.02107c-1.38071,0 -2.5,-1.11929 -2.5,-2.5c0,-0.04029 0.00095,-0.08036 0.00284,-0.12018c-0.16502,0.24951 -0.33325,0.49746 -0.49647,0.74801c0.00363,1.4615 -0.16828,2.8963 -0.2617,3.89653l1.25339,1.0445c0.55817,0.4585 0.91421,1.15406 0.91421,1.93278c0,1.28702 -0.97254,2.3469 -2.22282,2.48481l-0.06172,0.00772c0.51225,0.28461 1.03089,0.55676 1.55489,0.81609c0,0 2.23607,1.11803 1.11803,3.3541c-1.11803,2.23607 -3.3541,1.11803 -3.3541,1.11803c-3.89348,-1.96416 -10.31618,-4.62031 -10.16496,-10.07802c0.02687,-0.96972 1.48351,-1.40806 1.71736,-2.34954c0.86037,-3.46378 -3.75999,-6.40622 4.0709,-7.88934c-2.23164,-2.36013 -0.47974,-3.15394 1.77002,-6.19183l4.51401,0.97847c0,0 1.21799,1.21799 0.62095,2.64297zM204.34488,138.41878l0.92161,-0.35266c-0.76192,0.17711 -1.00438,0.28155 -0.92161,0.35266z" fill="#cfcfcf" stroke="none" stroke-width="0.5"/></g></g></svg>