<svg version="1.1" xmlns="http://www.w3.org/2000/svg" xmlns:xlink="http://www.w3.org/1999/xlink" width="205" height="60.11314" viewBox="0,0,205,60.11314"><g transform="translate(-137.5,-159)"><g data-paper-data="{&quot;isPaintingLayer&quot;:true}" fill-rule="nonzero" stroke-linecap="butt" stroke-linejoin="miter" stroke-miterlimit="10" stroke-dasharray="" stroke-dashoffset="0" style="mix-blend-mode: normal"><path d="M139,199.5v-39h202v39z" fill="#f5f5f5" stroke="#373737" stroke-width="3"/><path d="M139.99038,198.42307v-18.13518h200.11359v18.13518z" fill="#e3e3e3" stroke="none" stroke-width="0"/><path d="M287.16202,197.12625c4.7467,-0.01104 10.38001,-0.82123 15.07302,0.43958l0.08378,-0.41892l1.74333,0.34867c0.57123,0.1026 1.00469,0.60212 1.00469,1.20289c0,0.37712 -0.1708,0.71434 -0.43926,0.93853c0.11765,0.18782 0.18566,0.40991 0.18566,0.64788c0,0.2447 -0.07191,0.47261 -0.19576,0.66373l-0.32323,0.51717c0.06322,0.03209 0.12637,0.06489 0.18944,0.09842c-0.55164,1.22256 -1.13594,2.5234 -1.80268,3.77344c-0.28432,1.84974 -2.57188,4.17087 -3.53038,4.94115c-2.38997,1.92065 -5.13156,3.69606 -7.88896,5.07102c-0.69253,0.34533 -2.35438,1.28197 -3.42402,1.54768c-1.35293,0.74481 -2.78008,1.29239 -4.51938,1.32091c0,0 -1.22218,0 -1.22218,-1.22218c0,-1.22218 1.22218,-1.22218 1.22218,-1.22218c0.3336,0.00796 0.65658,-0.01468 0.97057,-0.06299c0.02433,-0.57724 0.44904,-1.05092 1.00359,-1.15052l0.94021,-0.18804c2.09823,-4.37054 2.29121,-7.81677 0.84859,-12.06582l-0.57713,-0.67332c-0.13808,-0.15915 -0.2357,-0.35434 -0.27687,-0.56958c-0.3198,-0.11858 -0.65565,-0.38868 -0.72296,-0.99446c-0.01799,-0.16187 -0.012,-0.30457 0.01188,-0.43032c-0.42751,-0.19034 -0.72557,-0.6189 -0.72557,-1.11707c0,-0.62247 0.46534,-1.13625 1.06713,-1.21244l1.21809,-0.17401l0.0051,0.03573z" fill="#e3e3e3" stroke="none" stroke-width="0.5"/><path d="M304.54902,199.00987c0.81294,0 0.81294,0.81294 0.81294,0.81294l-0.00129,0.54521c-0.11483,1.87137 -0.81435,3.48907 -1.60095,5.16722c-1.62459,5.66983 -6.02676,8.2751 -11.07974,10.51825c-3.99805,1.77485 -7.86054,3.27201 -12.10123,2.64617v0.16348h-1.24845c-0.44897,0 -0.81294,-0.36397 -0.81294,-0.81294c0,-0.32453 0.19016,-0.60464 0.46513,-0.73499l0.94895,-0.47448c1.41984,-0.94711 3.46781,-1.6411 4.48625,-3.01674c2.64528,-3.57307 4.40015,-10.40058 -0.89489,-12.49733c0,0 -0.75479,-0.30192 -0.45288,-1.05671c0.30192,-0.75479 1.05671,-0.45287 1.05671,-0.45287c6.2313,2.51466 5.03101,10.56032 1.60201,14.96862c-0.74861,0.96241 -1.79718,1.62008 -2.87696,2.23228c1.30559,-0.02949 2.7497,0.08398 3.70549,-0.23609c6.29086,-2.10667 13.67942,-4.79502 15.67943,-11.81549c0.70604,-1.51975 1.41502,-2.99322 1.50077,-4.69005l-0.00129,-0.45355c0,0 0,-0.81294 0.81294,-0.81294z" fill="#373737" stroke="#373737" stroke-width="0.5"/><text transform="translate(156.33573,184.36509) scale(0.36376,0.36376)" font-size="40" xml:space="preserve" fill="#373737" fill-rule="nonzero" stroke="none" stroke-width="1" stroke-linecap="butt" stroke-linejoin="miter" stroke-miterlimit="10" stroke-dasharray="" stroke-dashoffset="0" font-family="Pixel" font-weight="normal" text-anchor="start" style="mix-blend-mode: normal"><tspan x="0" dy="0"> </tspan></text><text transform="translate(174.43299,185.82818) scale(0.48568,0.48568)" font-size="40" xml:space="preserve" fill="#373737" fill-rule="nonzero" stroke="none" stroke-width="1" stroke-linecap="butt" stroke-linejoin="miter" stroke-miterlimit="10" stroke-dasharray="" stroke-dashoffset="0" font-family="Pixel" font-weight="normal" text-anchor="start" style="mix-blend-mode: normal"><tspan x="0" dy="0">Faz cócegas.</tspan></text></g></g></svg>