<svg version="1.1" xmlns="http://www.w3.org/2000/svg" xmlns:xlink="http://www.w3.org/1999/xlink" width="148.20084" height="118.26938" viewBox="0,0,148.20084,118.26938"><g transform="translate(-167.90454,-126.54066)"><g data-paper-data="{&quot;isPaintingLayer&quot;:true}" fill-rule="nonzero" stroke="none" stroke-linecap="butt" stroke-linejoin="miter" stroke-miterlimit="10" stroke-dasharray="" stroke-dashoffset="0" style="mix-blend-mode: normal"><path d="M223.13994,241.41639l-3.13247,-11.98611l79.72984,-20.83676l3.13247,11.98611z" fill="#af4c00" stroke-width="0"/><path d="M274.01851,154.83963l10.86451,-2.83935l14.97138,57.28651l-10.86451,2.83935z" fill="#af4c00" stroke-width="0"/><path d="M271.17745,226.12677c0.31606,1.20938 -0.78015,1.49587 -0.78015,1.49587c-7.13897,1.86571 -14.5839,3.81139 -21.72287,5.6771c-3.66152,0.95691 -7.31886,2.76525 -11.06251,3.24201c-2.73929,0.34886 -5.55472,0.18714 -8.19605,1.23768c-1.62784,0.64745 -2.9469,1.67002 -4.67078,2.13465c0,0 -1.09621,0.28649 -1.41228,-0.9229c-0.31606,-1.20938 0.78015,-1.49587 0.78015,-1.49587c1.61191,-0.40487 2.84777,-1.42836 4.37279,-2.0318c2.83993,-1.12374 5.82119,-1.01808 8.76665,-1.39241c3.64135,-0.46278 7.2234,-2.25805 10.7899,-3.19013c7.13897,-1.86571 14.27794,-3.73143 21.41692,-5.59714l0.30595,-0.07996c0,0 1.09621,-0.28649 1.41228,0.9229z" fill="#9d4400" stroke-width="0"/><path d="M301.77305,218.13085c0.31606,1.20938 -0.78015,1.49587 -0.78015,1.49587c-3.5185,0.91953 -7.18996,1.87904 -10.70846,2.79857c0,0 -1.09621,0.28649 -1.41228,-0.9229c-0.31606,-1.20938 0.78015,-1.49587 0.78015,-1.49587c3.5185,-0.91953 7.03699,-1.83906 10.55548,-2.75859l0.15298,-0.03998c0,0 1.09621,-0.28649 1.41228,0.9229z" fill="#9d4400" stroke-width="0"/><path d="M173.0376,173.32606l-3.20862,-5.5964l53.26762,-26.40198l3.20862,5.5964z" fill="#af4c00" stroke-width="0"/><path d="M173.19219,173.75721l7.93464,-3.93279l20.40262,35.58583l-7.93464,3.93279z" fill="#af4c00" stroke-width="0"/><path d="M169.14113,167.5394l-1.22067,-2.12907l54.25853,-26.89312l1.22067,2.12907z" fill="#af4c00" stroke-width="0"/><path d="M179.00737,168.27467c0.43072,0.75126 -0.30166,1.11426 -0.30166,1.11426c-1.54869,0.76761 -3.47409,1.72192 -5.02277,2.48952c0,0 -0.73238,0.363 -1.1631,-0.38825c-0.43072,-0.75126 0.30166,-1.11426 0.30166,-1.11426c1.54869,-0.76761 3.09737,-1.53521 4.64606,-2.30281l0.37671,-0.18672c0,0 0.73238,-0.363 1.1631,0.38825z" fill="#9d4400" stroke-width="0"/><path d="M224.81056,146.06864c0.43072,0.75126 -0.30166,1.11426 -0.30166,1.11426c-3.05552,1.51446 -6.99002,3.46459 -10.04554,4.97905c-5.39948,2.67624 -10.79896,5.35248 -16.19844,8.02872c0,0 -0.73238,0.363 -1.1631,-0.38825c-0.43072,-0.75126 0.30166,-1.11426 0.30166,-1.11426c5.39948,-2.67624 10.79896,-5.35248 16.19844,-8.02872c3.05552,-1.51446 6.11103,-3.02892 9.16656,-4.54338l0.87898,-0.43567c0,0 0.73238,-0.363 1.1631,0.38825z" fill="#9d4400" stroke-width="0"/><path d="M199.88688,204.12979c0.43072,0.75126 -0.30166,1.11426 -0.30166,1.11426c-1.59054,0.78835 -3.30666,1.63894 -4.8972,2.42729c0,0 -0.73238,0.363 -1.1631,-0.38825c-0.43072,-0.75126 0.30166,-1.11426 0.30166,-1.11426c1.59054,-0.78835 3.18109,-1.5767 4.77163,-2.36505l0.12557,-0.06224c0,0 0.73238,-0.363 1.1631,0.38825z" fill="#9d4400" stroke-width="0"/><path d="M298.03328,206.73613c0.31606,1.20938 -0.78015,1.49587 -0.78015,1.49587c-1.19034,0.31109 -2.75659,0.72041 -3.94694,1.0315c0,0 -1.09621,0.28649 -1.41228,-0.9229c-0.31606,-1.20938 0.78015,-1.49587 0.78015,-1.49587c1.19034,-0.31109 2.38069,-0.62218 3.57103,-0.93326l0.3759,-0.09824c0,0 1.09621,-0.28649 1.41228,0.9229z" fill="#9d4400" stroke-width="0"/><path d="M264.92145,188.89982l-3.99738,13.55085l-60.44557,-11.16575l3.99738,-13.55085z" fill="#af4c00" stroke-width="0"/><path d="M254.39268,198.52756c0.27248,-0.09373 0.71123,-0.14406 1.01251,0.32174c0.46593,0.72036 -0.3288,1.23439 -0.3288,1.23439l-0.83469,0.24062c-7.41739,-1.22316 -14.96083,-2.54487 -22.42944,-3.7859c-1.42189,-0.54707 -2.95515,-0.44366 -4.41728,-0.83505c-3.60941,-0.96621 -7.41683,-1.86449 -11.1942,-2.48873c-1.62727,-0.26892 -3.00723,-0.2866 -4.56417,-0.8751c0,0 -0.82852,-0.31424 -0.42571,-1.14153c0.4028,-0.82728 1.23132,-0.51304 1.23132,-0.51304c1.4629,0.55694 2.69997,0.53685 4.24136,0.78698c3.84012,0.62314 7.71412,1.54295 11.37884,2.53101c1.44412,0.38936 2.96581,0.2947 4.38825,0.82702c7.31342,1.17346 14.67628,2.51409 21.942,3.6976z" fill="#9d4400" stroke-width="0"/><path d="M216.55522,219.81745c-0.7001,1.33275 -1.33124,2.99485 -2.21041,4.43392c0.15252,0.47896 0.23482,0.98923 0.23482,1.51873c0,0.6154 -0.11118,1.20483 -0.31454,1.7493c3.93327,3.0906 6.71776,6.76966 0.85353,12.77811c-1.86932,1.91529 -5.31114,0.99329 -7.98371,0.85143c-0.4583,-0.02433 -0.0149,-1.17049 -0.45538,-1.29936c-0.38019,-0.11123 0.35737,0.91456 0.06921,1.18638c-0.93025,0.87752 -2.16937,1.37073 -3.33579,1.89502c-5.74496,2.58227 -20.15506,3.99051 -20.92199,-6.02719c-0.02497,-0.3262 -0.02958,-0.64685 -0.01509,-0.96141c-1.96121,-1.17943 -3.37495,-2.93779 -3.55825,-5.66625c-0.19266,-2.86794 3.04633,-4.99076 5.23918,-6.84915c1.40292,-1.18894 3.43326,-1.31921 5.15658,-1.96101c0.00795,-0.00296 0.0159,-0.00592 0.02384,-0.00889c-0.81246,-2.93325 1.51444,-5.72573 6.05069,-8.58203c2.2752,-1.4326 7.14874,-1.12253 10.89227,-0.90855l2.66846,-2.04163c0,0 1.95401,-1.46551 4.15488,-0.98224c0.13993,-0.01176 0.28151,-0.01776 0.42448,-0.01776c2.76142,0 5,2.23858 5,5c0,0.69652 -0.14242,1.35977 -0.39973,1.96223l-1.53725,3.84313l-0.04292,-0.01717z" fill="#6f6f6f" stroke-width="0.5"/><path d="M243.1411,178.65111c-5,0 -5,-5 -5,-5l0.19238,0.97876c-0.2033,-1.99787 -1.4088,-4.15254 -0.6246,-5.99591c-1.70756,-4.46364 -3.19551,-9.78868 -1.89936,-14.15129c0.34156,-1.14964 0.6963,-2.19823 1.07702,-3.12598c-1.77222,-0.60149 -3.35717,-1.81345 -4.44273,-3.72228c-0.90842,-1.59734 -1.22291,-3.52434 -1.07182,-5.55608c-1.25897,-3.70704 -0.33613,-8.00585 2.9775,-11.69909c0.72374,-0.80665 2.61567,-1.39387 4.64193,-1.82099c2.88681,-2.07025 6.22818,-2.79334 9.35248,-0.99215c4.78597,-0.07686 9.56842,-0.1692 14.27769,0.89717c1.82081,0.41231 3.53423,0.77588 4.99611,1.40338c3.87525,-1.27572 8.26649,-1.03389 10.73953,1.65039c1.95379,2.12067 2.00615,5.49773 2.15683,8.37728c0.27162,5.19062 -3.51732,8.56804 -7.63191,10.69358c0.00029,0.00983 0.00059,0.01965 0.0009,0.02947c-1.73678,1.50268 -3.25171,3.30878 -5.21035,4.50803c-0.95995,0.58776 -2.47887,1.19279 -4.17778,1.76635c0.0074,0.02955 0.01462,0.05909 0.02166,0.08861c1.38784,5.81816 -5.93677,11.96481 -10.38,14.10185c-0.95621,0.4599 -2.06324,0.5211 -3.04994,0.91132c-0.70783,0.27993 -1.31009,0.8571 -2.00021,1.15503l0.05467,0.50255c0,0 0,5 -5,5z" fill="#6f6f6f" stroke-width="0.5"/><path d="M228.51567,169.05206c0.26876,-0.00393 0.53744,-0.0061 0.806,-0.0061c0,0 5,0 5,5c0,5 -5,5 -5,5c-1.14508,0 -12.87427,0.0101 -13.24582,-0.03746c-2.53544,-0.32455 -5.00579,-1.07643 -7.44127,-1.85248c-0.18466,-0.05884 -0.33273,-0.20799 -0.47339,-0.36887c-1.11653,0.22339 -2.31503,0.29007 -3.62725,0.1632c-1.69761,0.64601 -3.36704,1.47313 -5.12232,1.2816c-1.67079,-0.18231 -3.72342,-0.10998 -5.38561,-0.57568c-0.04905,0.03227 -0.09777,0.06482 -0.14611,0.09768c-6.41913,4.36252 -16.05645,2.97365 -19.9586,-4.21001c-0.91073,0.00851 -1.7569,-0.18445 -2.4606,-0.74476c-2.59805,-2.06866 -3.44834,-5.98816 -3.55435,-9.3075c-0.0707,-2.21384 1.9484,-3.98314 3.06888,-5.89379c1.05347,-1.79637 1.96785,-3.74359 3.4442,-5.21232c0.2481,-0.24682 0.50596,-0.49292 0.77268,-0.73715c1.61646,-2.55207 3.7457,-4.81716 6.31456,-6.61775c1.8049,-1.2651 3.74585,-2.02419 5.62981,-2.26233c2.30399,-2.79585 7.07027,-7.45233 11.14861,-6.40393c2.54254,0.6536 3.96764,3.4387 5.95145,5.15805c0.17094,1.28834 0.30065,2.56166 0.38224,3.81755c1.73465,2.23596 2.48329,5.36448 2.80382,7.86368c0.11156,0.01334 0.2216,0.03027 0.32968,0.05081c1.12468,0.21376 2.07003,0.44886 2.86353,0.71053c2.13653,-1.21468 4.52656,-1.55485 7.59683,-0.47416c5.05044,1.77769 6.5493,4.40854 6.27904,8.94354c1.06943,0.38063 1.96907,1.1847 2.96743,1.74258z" fill="#6f6f6f" stroke-width="0.5"/><path d="M296.6921,230.65307c-1.426,0.69708 -2.93914,1.25254 -4.23651,0.825c-1.30326,0.38142 -2.99136,0.30534 -4.67946,-1.38276c-1.94628,-1.94628 -1.74974,-3.89256 -1.17979,-5.24904c-0.28034,-0.45383 -0.53416,-0.92909 -0.74774,-1.41518l-1.68708,0.84354c-0.69482,0.36581 -1.48625,0.57285 -2.32604,0.57285c-2.38741,0 -4.384,-1.67324 -4.88106,-3.91098c-2.41111,-0.08439 -4.60635,-1.19176 -5.61481,-4.15502c-0.41176,0.40761 -0.82101,0.81646 -1.16617,1.25733c-1.42068,0.88191 -2.67975,2.10491 -4.26203,2.64573c-1.26188,0.4313 -2.66339,0.15352 -3.99673,0.17708c-2.17005,0.03833 -5.01749,1.58319 -6.51116,0.00854c-1.79263,-1.88981 -2.73066,-4.62371 -2.94979,-7.33026c-0.09169,0.11559 -0.1834,0.23222 -0.27536,0.34972c0,0 -3.12348,3.90434 -7.02782,0.78087c-3.90434,-3.12348 -0.78087,-7.02782 -0.78087,-7.02782c4.99447,-6.15021 12.45781,-9.38127 20.44623,-9.37647c3.83663,-1.73165 7.9997,-2.4004 12.55799,-1.96858c1.90149,0.18013 3.9634,0.07771 5.64499,0.98345c0.83337,0.44887 1.58587,1.01131 2.25463,1.66265c3.17876,-1.62727 4.7227,-3.07647 9.35653,-0.1306c0.1728,0.10986 0.33166,0.23349 0.4788,0.36869c2.75672,-1.77933 6.26019,-3.65547 9.17539,-3.27527c7.61815,0.99357 11.00899,7.52685 10.89009,14.34116c0.28133,0.65704 0.54034,1.40698 0.77345,2.2586c0.81481,2.97667 -1.72227,5.97977 -3.20691,8.68538c-1.18272,2.15538 -5.44773,5.04057 -7.35017,6.46263c-1.35088,0.67184 -2.56553,1.76113 -4.05265,2.01553c-1.40984,0.24118 -3.10752,0.81663 -4.64596,0.98323z" fill="#6f6f6f" stroke-width="0.5"/><path d="M214.09813,218.2065l-5.15362,-9.33224l9.33224,-5.15362l5.15362,9.33224z" fill="#af4c00" stroke-width="0"/><path d="M256.91742,162.34527l-10.23832,2.97109l-2.97109,-10.23832l10.23832,-2.97109z" fill="#af4c00" stroke-width="NaN"/><path d="M191.126,182.18233l-8.77198,-6.05829l6.05829,-8.77198l8.77198,6.05829z" fill="#af4c00" stroke-width="NaN"/><path d="M273.03157,201.72943l6.87013,-8.1518l8.1518,6.87014l-6.87013,8.1518z" fill="#af4c00" stroke-width="0"/></g></g></svg>