<svg version="1.1" xmlns="http://www.w3.org/2000/svg" xmlns:xlink="http://www.w3.org/1999/xlink" width="88.93238" height="110.71152" viewBox="0,0,88.93238,110.71152"><g transform="translate(-195.17671,-127.77971)"><g data-paper-data="{&quot;isPaintingLayer&quot;:true}" fill-rule="nonzero" stroke="none" stroke-linecap="butt" stroke-linejoin="miter" stroke-miterlimit="10" stroke-dasharray="" stroke-dashoffset="0" style="mix-blend-mode: normal"><path d="M200.97791,196.18399c0.05061,0.01265 0.09859,0.02689 0.14405,0.04256c0.57078,-2.94198 1.43344,-5.8346 2.3636,-8.71408c0.70485,-2.18196 3.00194,-4.61833 2.46094,-7.09668c-0.28157,-1.2899 -1.77043,-2.03272 -2.23968,-3.26678c-0.19083,-0.50184 0.1712,-1.14275 -0.09718,-1.60775c-0.48589,-0.84186 -1.63316,-1.07937 -2.31829,-1.76888c-1.04063,-1.04729 -1.72749,-2.41412 -2.35932,-3.74849c0.8852,-3.72073 3.45611,-5.82144 5.12131,-9.18842c0.86079,-1.74048 1.06782,-3.88714 2.93561,-4.99586c2.19534,-1.30316 2.82801,-1.15466 5.16902,-1.20661c2.1903,-0.0486 4.19398,-0.53821 5.5854,1.593c1.44507,2.21338 -0.02938,4.58524 0.63322,6.7971c0.5137,1.7148 2.90089,1.62831 3.45965,3.38504c0.31147,0.97925 0.0606,2.05428 0.09089,3.08143c-0.49599,2.98678 -2.01952,5.72186 -2.51625,8.62151c-0.40904,2.3877 -0.31716,4.84553 -1.03429,7.14365c-0.358,1.14726 -1.51741,1.8688 -2.18298,2.86949c-1.62046,2.43638 -2.98883,5.00977 -4.8854,7.26501c-0.29135,0.34644 -1.74484,1.09678 -2.06767,1.66427c-1.75237,3.08038 -2.23517,5.77328 -5.86475,7.07886c-0.4169,-0.01968 -0.7951,-0.04936 -1.13815,-0.09157c-0.15162,0.06689 -0.33669,0.10771 -0.56258,0.10771c-0.53666,0 -0.84292,-0.2304 -1.01769,-0.49337c-1.3843,-0.60667 -1.67884,-1.8756 -1.72345,-4.41052l0.52812,-2.15111c0,0 0.30317,-1.21268 1.51585,-0.90951z" fill="#ffe373" stroke-width="0.5"/><path d="M237.13477,230.59292c-0.12787,0.04078 -0.27613,0.06441 -0.44802,0.06441c-1.25,0 -1.25,-1.25 -1.25,-1.25c0,-3.40533 -0.48441,-7.53047 0.53361,-10.79069c0.8076,-2.58636 2.14887,-2.90545 3.83384,-4.59803c1.84589,-1.8542 4.49133,-5.71617 6.9077,-6.77313c0.45824,-0.20045 1.053,0.22341 1.5005,0c0.57614,-0.28764 0.77789,-1.06407 1.32169,-1.40896c1.32989,-0.84344 2.22443,-0.67325 3.65816,-0.68685c3.26617,0 9.20747,-1.14174 12.11971,0.66242c0.90742,0.56216 1.63891,1.40143 2.25714,2.27162c0.08614,0.12125 0.04087,1.50628 0.60634,1.66261c2.28108,0.63061 4.19181,-3.50633 6.40753,-1.22953c0.96772,0.9944 0.20372,4.21739 -0.21169,5.3189c-0.55163,1.4627 -2.77054,4.8941 -4.11382,5.68526c-0.59803,0.35223 -1.41462,-0.15367 -2.08182,0.0375c-0.6396,0.18325 -1.71677,1.82882 -2.3247,2.32458c0.22782,2.36993 2.635,3.05957 2.59598,5.52365c-0.07545,4.76548 -7.74902,4.33241 -10.9534,3.73469c-3.31451,-0.61826 -2.38673,-4.23401 -4.77963,-5.08068c-2.39395,-0.84703 -5.59128,0.35354 -7.66225,1.04185c-0.66279,0.22028 -1.53777,0.14658 -1.97918,0.68785c-0.60481,0.49322 -0.30861,1.58641 -0.78212,2.20677c-1.2611,1.65218 -3.43219,2.51292 -5.11715,0.64123c-0.0134,-0.01489 -0.0262,-0.03005 -0.03842,-0.04547z" fill="#ffe373" stroke-width="0.5"/><path d="M259.11582,180.25625c0.32383,-1.93449 0.82892,-4.51402 2.19074,-5.74598c0.52325,-0.47336 1.45192,-0.37047 1.9143,-0.90344c0.92001,-1.06046 0.64058,-2.81117 1.4615,-3.95006c0.46979,-0.65176 1.28404,-1.01479 1.71699,-1.69158c0.75488,-1.18004 1.33398,-3.87172 1.56437,-5.28026c0.20605,-1.25972 -0.51938,-2.71904 0.90677,-3.73787c0.93341,-0.66682 2.20038,-0.76077 3.34679,-0.80134c5.14148,-0.18193 3.16245,4.44521 4.8907,6.88142c0.49581,0.39108 0.90684,0.92484 1.48742,1.17323c1.60944,0.68858 3.68132,-1.15235 5.12074,0.95557c0.65701,0.96215 0.23595,4.98313 0.23595,6.23272c0,1.05878 0.43739,4.68542 -0.14791,5.59149c-1.79837,2.784 -7.64786,2.30046 -10.45253,2.65148c-3.23044,0.40431 -5.61989,1.76869 -8.29333,3.4569c-3.15349,0.07158 -3.868,0.39879 -6.24778,-1.81298l-0.36612,-1.88422c0,0 0,-0.82597 0.67141,-1.13508z" fill="#ffe373" stroke-width="0.5"/><path d="M228.67121,159.66428c-0.20351,0.2887 -0.56496,0.55721 -1.19297,0.45254c-1.23299,-0.2055 -1.02749,-1.43849 -1.02749,-1.43849c0.32076,-1.91481 2.02768,-6.34449 1.13123,-8.20768c-0.65079,-1.35262 -3.71363,-1.20532 -4.10388,-3.25716c-0.46258,-2.43213 1.88725,-4.75575 3.03067,-6.5755c0.72029,-1.14634 0.79794,-2.72551 1.79159,-3.64505c1.81964,-1.68394 2.49143,-0.31285 4.52231,-0.81269c0.53586,-0.13189 0.84838,-0.73508 1.35787,-0.94713c1.83471,-0.76364 3.59535,-0.60696 5.50721,-0.60696c0.65962,0.03172 1.3846,-0.19289 1.97885,0.09515c3.43846,1.66669 0.71482,4.75908 1.70783,7.26173c0.90558,2.28229 3.07136,3.28886 2.00067,6.2924c-1.14196,3.20349 -6.24517,7.82519 -9.32646,8.80375c-2.04113,0.64822 -4.75371,-1.21987 -4.61873,1.91258l-1.7455,1.14206c0,0 -0.65076,0 -1.0132,-0.46955z" fill="#ffe373" stroke-width="0.5"/><path d="M218.20458,204.88717c0.14738,0.09895 0.2924,0.2053 0.43653,0.31501c0.06741,-0.45776 0.13912,-0.91622 0.21368,-1.37487c-0.20379,0.34343 -0.42351,0.70488 -0.6502,1.05987zM267.33497,134.48548c2.66454,0.84993 4.97693,2.33416 6.23391,4.50491c0.61447,1.06116 0.62635,2.53825 0.96595,3.79286c2.06521,7.62972 0.64164,17.1633 -4.08352,25.07891c-3.39948,10.0028 -8.59508,18.69275 -14.9852,27.09776c-1.75549,2.30902 -2.80435,5.33614 -4.52755,7.69797c-1.01859,1.39608 -2.46677,2.35687 -3.48851,3.7503c-2.85161,3.88899 -5.12371,8.78536 -7.58466,12.9696c-2.07373,3.45187 -5.62945,8.57027 -8.8745,10.67751c-4.85347,3.1517 -7.93131,1.92479 -11.8472,0.30729c-4.35814,-1.80016 -8.3434,-4.01054 -12.41648,-6.43924c-2.27684,-1.35764 -4.86267,-1.73209 -7.03378,-3.30804c-1.05726,-0.76744 -2.53468,-1.19402 -2.99938,-2.5477c-1.71688,-5.00142 2.23178,-10.86733 4.89696,-15.3988c9.84664,-16.74176 20.7809,-32.69218 30.71796,-49.48271c1.63254,-2.20025 3.42689,-5.14856 5.33302,-7.03782c0.58758,-0.58238 1.40901,-0.73855 1.97997,-1.34284c0.43113,-0.45628 0.50571,-1.18727 0.88921,-1.69376c0.97277,-1.28476 4.12591,-4.41989 5.25047,-5.24006c2.5672,-1.87232 5.23156,-2.72256 7.9262,-3.53888c2.97954,-0.90264 5.85614,-2.20016 8.81054,-1.74061c1.45222,0.22588 3.2818,1.07123 4.83658,1.8933z" fill="#ff992f" stroke-width="0.5"/><path d="M230.26698,235.6975c-2.53482,4.30983 -5.86981,2.34837 -5.86981,2.34837l-0.47654,-0.28028c-3.4877,-2.05129 -7.22978,-3.89258 -10.60622,-6.19473c-0.34287,-0.06878 -0.67878,-0.15484 -1.00132,-0.27387c-3.62993,-1.3396 -6.94046,-4.02595 -10.25614,-5.97607c-2.90635,-1.70936 -6.0576,-2.79725 -5.92351,-7.75782c0.0552,-2.04224 2.9281,-6.95087 4.19203,-8.91399c1.11535,-1.73235 3.85047,-5.39886 5.1814,-6.64682c2.77399,-2.60103 6.64978,-4.86795 9.74968,-6.74241l2.5962,-1.9054c1.36194,-1.03407 3.018,-1.30988 4.29572,-0.55838c1.58712,0.93346 2.07263,3.14737 1.28085,5.26486l-0.4395,1.24022c7.45943,1.90285 4.69525,6.21264 1.00137,11.47403c-1.13401,1.61524 -2.2943,3.51701 -3.8989,4.37368c-4.68052,2.49883 -10.58995,0.0235 -10.87403,-5.46205c-0.3277,0.36172 -0.63828,0.73707 -0.92827,1.12742c-1.12141,1.50947 -1.97051,3.22677 -3.06409,4.75897c0.07804,0.05378 0.15514,0.10728 0.23281,0.14707c1.87692,0.9617 3.6644,2.15521 5.48021,3.22318c0.96377,0.56684 1.94089,1.08274 2.92639,1.5669c1.41636,-0.06002 2.40912,0.8006 2.40912,0.8006c0.26582,0.2339 0.5372,0.46178 0.81354,0.68421c3.22036,1.41367 6.47169,2.71342 9.58638,4.54532c0.02664,0.01693 0.05274,0.03365 0.0783,0.05018c0.45854,-0.52131 1.03834,-0.95123 1.45875,-1.51403c1.80714,-2.4193 3.00687,-5.2839 4.89174,-7.72587c6.43847,-8.34148 11.53142,-18.07374 16.91558,-27.22816c0,0 2.53482,-4.30983 5.86981,-2.34837c3.33498,1.96147 0.80016,6.2713 0.80016,6.2713c-5.03588,8.56225 -9.78112,17.84039 -15.56624,25.87567c-1.21377,1.68587 -2.69706,3.1477 -3.82342,4.89889c-1.71488,2.66616 -2.99888,4.95155 -5.01241,7.38633c-0.48903,0.59133 -0.90285,1.31734 -1.33401,2.00795c-0.1513,0.45939 -0.37414,0.95351 -0.68561,1.48309z" fill="#ff992f" stroke-width="0.5"/><path d="M224.06148,166.17853c0.03887,-0.0846 0.07984,-0.17029 0.123,-0.25708c2.22248,-4.46972 5.77326,-2.90649 5.77326,-2.90649c3.10871,1.41605 5.3096,3.52961 8.23243,5.2325c5.36863,3.12785 11.00714,6.00227 16.14465,9.50433c1.71001,1.16566 6.79315,3.92871 7.16031,6.03543c0.64145,3.68048 -3.65616,9.39307 -5.59763,12.69405c-1.38003,2.3464 -4.73583,9.09497 -6.62055,9.89145c-1.97701,0.83548 -3.7369,-0.67522 -5.50187,-1.27414c-2.91694,-0.98982 -5.71288,-3.36003 -8.33945,-4.90484c-5.40079,-3.17647 -10.80158,-6.35294 -16.20237,-9.52941c-3.10912,-1.82863 -6.22324,-2.79877 -5.8809,-8.18016c0.14609,-2.29649 3.6683,-7.14005 4.96682,-9.34785c1.3952,-2.35782 3.28727,-5.96248 5.74231,-6.95778z" fill="#e87e0c" stroke-width="0.5"/><path d="M232.4699,216.85305c0.67336,-0.68027 1.34818,-1.36324 2.04855,-1.98845c0.87168,-0.77814 1.57574,-2.06392 2.58277,-2.3859c0.20385,-0.06518 0.40758,-0.12458 0.61121,-0.17886l-0.05118,-0.1854l2.83155,-1.59609c1.23594,-0.71267 2.62385,-0.83108 3.72881,-0.1812c1.84187,1.08329 2.20011,3.89104 0.80016,6.2713c-0.13668,0.23239 -0.28506,0.45211 -0.44328,0.65842l-1.2938,1.73134c-2.09967,3.60634 -4.1925,7.12897 -6.53384,10.56314c-0.64365,0.94409 -1.05781,2.09138 -1.84196,2.89533c-1.10295,1.13079 -2.45449,1.84518 -3.68174,2.76776c-2.52516,1.02229 -4.8326,2.28262 -7.37897,2.11651c-2.43864,-0.15909 -4.56652,-1.88933 -6.54198,-3.0512c-4.20944,-2.47578 -8.41888,-4.95156 -12.62832,-7.42733c-2.15102,-1.26512 -6.22126,-2.60141 -7.6809,-4.71184c-2.76593,-3.99911 -1.81443,-4.54071 -0.81753,-9.73493c0,0 1.11494,-4.73005 5.15281,-4.50951c4.03787,0.22055 2.92293,4.9506 2.92293,4.9506c-0.1339,0.38706 -0.27143,0.77343 -0.40647,1.16027c1.43789,-1.37341 3.35528,-1.82899 4.79342,-0.98316l1.705,1.0028c0.65111,-0.27689 1.13429,0.48063 1.72147,0.67296c2.20271,0.72148 4.51263,1.02523 6.77627,1.57913c4.23275,1.03574 8.91366,1.57119 13.62497,0.5643z" fill="#ef902b" stroke-width="0.5"/><path d="M278.21544,141.08786c-1.26741,2.15492 -2.9349,1.17418 -2.9349,1.17418c-5.0831,-2.98962 -11.83409,-6.96021 -16.91718,-9.94982c0,0 -1.66749,-0.98073 -0.40008,-3.13565c1.26741,-2.15492 2.9349,-1.17418 2.9349,-1.17418c5.0831,2.98962 10.16619,5.97923 15.24929,8.96885l1.66789,0.98097c0,0 1.66749,0.98073 0.40008,3.13565z" fill="#797979" stroke-width="0.5"/><path d="M263.27198,131.05559c1.26741,-2.15492 2.9349,-1.17418 2.9349,-1.17418l0.23827,0.14014c2.17166,1.27726 3.89211,2.23572 6.33048,2.51356c0.46689,-0.70601 0.94936,-1.40017 1.45289,-2.07654l0.52841,-0.93678c0,0 1.26741,-2.15492 2.9349,-1.17418c1.66749,0.98073 0.40008,3.13565 0.40008,3.13565l-0.92041,1.52657c-0.7007,0.9336 -1.35157,1.90939 -1.97423,2.9045c-0.07912,0.15581 -0.16653,0.29469 -0.25958,0.4185c-0.3634,0.59077 -0.71802,1.18718 -1.06829,1.78451c0,0 -1.26741,2.15492 -2.9349,1.17418c-0.97819,-0.57532 -0.9464,-1.55469 -0.75297,-2.2661c-2.25956,-0.47664 -4.13647,-1.43849 -6.2712,-2.69404l-0.23827,-0.14014c0,0 -1.66749,-0.98073 -0.40008,-3.13565z" fill="#797979" stroke-width="0.5"/><path d="M224.37816,176.07825c4.65093,-7.90773 14.60852,-10.67918 22.24091,-6.19019c7.6324,4.48899 10.04935,14.53851 5.39843,22.44624c-4.65093,7.90773 -14.60852,10.67918 -22.24091,6.19019c-7.6324,-4.48899 -10.04935,-14.53851 -5.39843,-22.44624z" fill="#ffe373" stroke-width="0"/><path d="M230.25554,190.5357c-0.00748,-0.02351 -0.01363,-0.0467 -0.01841,-0.06955c-0.02883,-0.02815 -0.05731,-0.05644 -0.0854,-0.08487c-0.01093,0.04247 -0.00916,0.07781 0.01583,0.09522c0.02902,0.02022 0.05836,0.03993 0.08798,0.0592zM234.78254,199.35778c-3.41386,-1.16704 -7.81071,-3.71727 -10.43236,-6.14033c0,0 -0.25286,-0.23572 -0.31708,-0.57701c-1.40422,-2.67522 -0.53698,-5.14914 -0.49116,-8.01328l0.08602,-0.12554l-0.05154,-0.01667l0.38623,-1.19343l0.40469,0.13097l0.55177,-0.8053c0.1515,0.277 0.26003,0.58479 0.41478,0.85947l0.31958,-0.08288c0.15834,-0.35378 0.38185,-0.67513 0.55952,-1.01971c0.55654,-1.07936 0.48747,-2.01368 0.85531,-3.16139l-0.04682,-0.83016c-0.01349,-0.18999 0.02841,-0.38589 0.13227,-0.56248c0.27298,-0.46413 0.87052,-0.61909 1.33465,-0.34611c0.03984,0.02343 0.07739,0.04925 0.1126,0.07718l0.85704,0.6597l-0.12669,0.1646c0.482,0.3551 0.70932,0.74602 0.92802,1.4283c1.13621,-1.74916 2.57355,-2.63263 4.37973,-3.69453l0.04058,-0.00667l-0.00544,-0.01124l0.86934,-0.42116c0.2859,-0.14369 0.63662,-0.14384 0.93294,0.03044c0.39053,0.22969 0.56217,0.68917 0.44416,1.10562l-0.24287,0.93801l-0.35197,-0.09113c-0.04011,0.24902 -0.06555,0.49871 -0.05699,0.75c0.03458,1.01592 2.1587,0.46984 2.31321,0.43214c1.81879,-0.44366 2.55929,-0.93217 2.7901,-2.66595l-0.0507,-0.89879c-0.01349,-0.18999 0.02842,-0.38589 0.13228,-0.56247c0.27298,-0.46413 0.87052,-0.61909 1.33465,-0.34611c0.12804,0.0753 0.23254,0.17531 0.31103,0.2904l0.76725,1.07265l-0.28977,0.20728c0.3659,0.52517 0.61434,1.09999 0.6236,1.71276c0.00691,0.45704 -0.06633,0.91244 -0.14332,1.36388c0.0009,-0.00023 0.0018,-0.00047 0.00271,-0.00071l0.0824,0.01882l-0.0026,-0.02924l0.26837,-0.02384c0.53373,-0.18319 1.0488,-0.25191 1.50779,-0.11055c0.02895,0.00892 0.05771,0.01829 0.08628,0.02811l0.00266,-0.0209l1.00648,0.12827c0.1345,0.01405 0.26821,0.05645 0.39238,0.12948c0.09059,0.05328 0.1694,0.11892 0.23555,0.19353c1.85321,-0.03216 3.77493,0.34283 3.68738,2.0542c-0.05991,1.17103 -2.50464,2.08324 -3.21551,2.48327c-0.0054,0.02343 -0.01077,0.04687 -0.0161,0.07031l0.37655,-0.18243c0.2859,-0.14369 0.63661,-0.14384 0.93294,0.03045c0.43621,0.25656 0.59933,0.79981 0.39075,1.24955l-0.49869,1.11372l-0.19645,-0.08797c-0.21069,0.63732 -0.48067,1.2531 -0.81865,1.82566c-0.35142,0.59533 -0.65382,1.22297 -1.05824,1.78365c-0.07257,0.10061 -0.20359,0.21878 -0.35763,0.33369l0.89379,0.15608c0.11967,0.01803 0.23797,0.05879 0.34868,0.12391c0.46413,0.27298 0.61908,0.87052 0.34611,1.33464c-0.11307,0.19225 -0.28183,0.33145 -0.47372,0.40917l-1.24637,0.52056l-0.00415,-0.00993c-0.02007,0.01162 -0.04025,0.02305 -0.06057,0.0343c-0.92351,0.51093 -2.40426,0.33109 -3.25408,1.1079c-0.97259,0.88903 -0.05952,1.01076 0.66099,0.92541l0.75369,-0.36513c0.2859,-0.14369 0.63661,-0.14384 0.93294,0.03045c0.46413,0.27298 0.61908,0.87051 0.34611,1.33464c-0.10386,0.17659 -0.2547,0.30842 -0.42731,0.38896l-0.78395,0.37979c-0.0978,0.39685 -0.6877,0.46176 -0.98064,0.75008c-1.0296,1.01337 -1.92225,2.16447 -3.54533,2.33814c-0.71286,0.07628 -1.55274,-0.31313 -2.23434,-0.23419c-0.58491,1.24724 -2.62929,0.3851 -3.35484,0.13707zM234.47141,178.64317c0.00238,-0.00123 0.00476,-0.00246 0.00713,-0.00368c-0.0096,-0.02719 -0.01885,-0.05431 -0.02771,-0.08131c-0.01933,0.01425 -0.03857,0.02852 -0.05771,0.04281c0.02669,0.01385 0.05278,0.02792 0.07829,0.04219zM236.99981,189.17755c-0.00525,0.00037 -0.01049,0.00074 -0.01574,0.00111c0.00081,0.00452 0.0016,0.00904 0.00235,0.01357c0.00445,-0.0049 0.00892,-0.0098 0.01339,-0.01468zM241.60507,184.95374c-0.02524,-0.00071 -0.05049,-0.00155 -0.07573,-0.00251c-0.0063,0.01711 -0.01358,0.03464 -0.02165,0.05251c0.03245,-0.0167 0.06491,-0.03337 0.09738,-0.05zM235.98418,180.83503c-0.04038,-0.03011 -0.08118,-0.05925 -0.12249,-0.08723c-0.00602,0.02226 -0.01287,0.0444 -0.02054,0.06639c0.04824,0.00631 0.09591,0.01322 0.14303,0.02084z" fill="#e00000" stroke-width="0.5"/><path d="M233.76952,198.75058c-0.93516,-0.27569 -0.65948,-1.21084 -0.65948,-1.21084l0.39838,-0.94572c0.08796,-0.0895 0.68936,-0.70088 1.35588,-1.26969l-0.10638,-0.06257v0c-0.46413,-0.27298 -0.61909,-0.87052 -0.34611,-1.33464c0.13649,-0.23206 0.35412,-0.38684 0.59564,-0.44947l1.11751,-0.2898l0.08623,0.33251c0.43935,-0.124 0.88362,-0.21522 1.27032,-0.23916c1.07858,-0.99351 1.91911,-2.60628 2.91012,-3.34477c-0.92595,-0.35576 -1.68473,-0.76249 -1.87582,-2.09718c-0.0804,-0.56155 0.18708,-1.35552 0.62749,-2.03395c-0.51277,0.11132 -1.00386,0.26291 -1.43347,0.49534c-0.30793,0.16659 -0.75311,0.62946 -1.19528,1.12888l0.26048,0.1532l-0.5518,0.9382c-0.27298,0.46413 -0.87052,0.61909 -1.33465,0.34611c-0.30571,-0.17981 -0.47729,-0.50044 -0.48079,-0.83099l-0.03412,-1.26621c-0.00359,-0.53688 -0.1849,-1.03238 -0.37335,-1.51465c-0.19796,1.44759 -0.52004,3.01468 -1.65169,3.85757c-0.55767,0.41538 -1.27893,0.78327 -1.9682,0.69138c-0.50392,-0.06718 -0.76872,-0.67955 -1.06132,-1.09528c-0.01047,-0.01486 -0.01761,-0.03566 -0.02216,-0.06013c-0.22332,1.57464 -1.21185,3.18995 -1.5486,4.78985c0,0 -0.20315,0.95356 -1.1567,0.7504c-0.95355,-0.20315 -0.7504,-1.15671 -0.7504,-1.15671c0.34763,-1.61438 0.78572,-3.63277 1.77536,-4.99586c0.41464,-0.57112 0.6557,-1.48182 1.34451,-1.63561c0.79593,-0.1777 1.3212,0.96301 1.9184,1.51838c0.32363,0.30096 0.44737,-0.76306 0.64546,-1.15812c0.54423,-1.08534 0.52997,-1.98632 0.73944,-3.15917l-0.094,-1.05825c-0.02018,-0.19908 0.02053,-0.40612 0.12975,-0.59182c0.27298,-0.46413 0.87051,-0.61908 1.33464,-0.34611c0.03207,0.01886 0.06267,0.03927 0.09176,0.06109l1.0932,0.79929l-0.18181,0.24866c0.76949,0.60473 1.23031,1.31863 1.47388,2.32424c0.18843,-0.15245 0.39044,-0.28953 0.58601,-0.40508c1.36397,-0.80585 3.26459,-0.8898 4.78863,-1.1763l0.06493,0.01955l-0.00142,-0.02522l0.96625,-0.0545c0.18999,-0.01349 0.38589,0.02842 0.56247,0.13228c0.46413,0.27298 0.61909,0.87052 0.34611,1.33465c-0.08302,0.14115 -0.19605,0.25369 -0.32622,0.33431l-1.00445,0.65163l-0.15986,-0.24642c-0.97725,0.95415 -1.77898,2.00003 -0.64841,2.71462l0.54976,-0.26634c0.2859,-0.14369 0.63661,-0.14384 0.93294,0.03044c0.46413,0.27298 0.61909,0.87052 0.34611,1.33465c-0.01886,0.03207 -0.03928,0.06267 -0.06109,0.09175l-0.79929,1.0932l-0.11197,-0.08187c-0.90408,1.89287 -2.16114,3.54838 -3.92468,4.56898c-0.11866,0.19599 -0.26403,0.41103 -0.43873,0.64656c-0.36859,0.49693 -2.28042,1.61481 -2.87968,2.22481l0.08113,0.13043c0,0 -0.27568,0.93516 -1.21085,0.65947z" fill="#ffc000" stroke-width="0.5"/><path d="M237.046,194.46209c-0.26,0.05972 -0.49382,0.09784 -0.7035,0.11648c-0.19823,0.85438 -0.72066,1.57043 -1.64259,1.88596c0.04146,0.10181 0.06916,0.22225 0.0772,0.36472c0.01549,0.2746 -0.05086,0.47611 -0.1541,0.62391c0.15042,0.21045 0.24042,0.51617 0.05679,0.92627c-0.39844,0.88982 -1.28826,0.49138 -1.28826,0.49138c-1.0509,-0.47433 -2.05543,-0.92305 -3.05245,-1.41753c-1.80856,-0.65651 -3.31275,-1.96242 -4.51589,-3.59185c0,0 -0.57772,-0.78534 0.20762,-1.36307c0.62227,-0.45776 1.11419,-0.05976 1.29165,0.12527c0.07274,-0.44353 0.24508,-0.89664 0.47495,-1.3015c-0.05576,-0.28798 -0.03839,-0.60739 0.039,-0.91724l-0.24726,-0.95347c-0.06263,-0.24152 -0.03313,-0.50694 0.10336,-0.739c0.27298,-0.46413 0.87052,-0.61909 1.33464,-0.34611c0.1536,0.09034 0.27334,0.21622 0.35491,0.36106l0.10862,0.18452c0.55214,0.03761 1.14507,0.3505 1.53912,0.7337c0.02017,-0.00256 0.04036,-0.00476 0.06054,-0.00659l0.46516,-1.03882c0.01594,-0.0369 0.03433,-0.07322 0.05523,-0.10876c0.26183,-0.44518 0.82227,-0.60592 1.27717,-0.37741c-0.11526,-0.80296 -0.09419,-1.64791 -0.1078,-2.1236c0,0 -0.02626,-0.9746 0.94834,-1.00086c0.9746,-0.02626 1.00086,0.94833 1.00086,0.94833c0.01018,0.40562 -0.00119,0.81235 0.03053,1.21685c0.27347,3.48625 2.73704,-3.69196 4.70342,-2.43433c1.23864,0.7922 0.93455,2.30115 0.47719,3.60349c0.33563,0.26473 0.45867,0.71996 0.30456,1.11674l-0.11665,0.31778c0.24817,0.30684 0.29409,0.74743 0.08222,1.10765c-0.03356,0.05705 -0.07202,0.10944 -0.11454,0.15693l-0.98072,1.13751l-0.003,-0.00259c-0.42952,1.12133 -1.08074,2.07779 -2.06634,2.30417zM232.53535,194.29761c0.07672,0.03221 0.15375,0.06332 0.23109,0.09285c0.00902,-0.03693 0.02029,-0.07359 0.03384,-0.10978c-0.05717,0.00447 -0.11698,0.00844 -0.17965,0.01192c-0.02835,0.00158 -0.05678,0.00325 -0.08528,0.00501zM235.47459,190.89549c0.01269,-0.02635 0.0254,-0.05256 0.03815,-0.07863c-0.02417,0.01181 -0.04837,0.02338 -0.07259,0.0347c0.01157,0.01455 0.02305,0.02919 0.03444,0.04393z" fill="#ffc000" stroke-width="0.5"/></g></g></svg>