<svg version="1.1" xmlns="http://www.w3.org/2000/svg" xmlns:xlink="http://www.w3.org/1999/xlink" width="62.27975" height="53.34459" viewBox="0,0,62.27975,53.34459"><g transform="translate(-208.76274,-126.57642)"><g data-paper-data="{&quot;isPaintingLayer&quot;:true}" fill-rule="nonzero" stroke-linejoin="miter" stroke-miterlimit="10" stroke-dasharray="" stroke-dashoffset="0" style="mix-blend-mode: normal"><path d="M237.75866,179.75001v-32.125h4.43035v32.125z" fill="#7e7e7e" stroke="none" stroke-width="0" stroke-linecap="butt"/><path d="M240.64133,144.02673l-0.14495,-15.56564" fill="none" stroke="#eeeeee" stroke-width="2.5" stroke-linecap="round"/><path d="M270.4427,131.24764c-1.34963,0.79649 -2.69926,0 -2.69926,0l0.04001,-0.27311c-2.80567,-0.28056 -5.06762,-1.1473 -7.78096,-1.38915c-4.51883,-0.89158 -9.10532,-0.75036 -13.81338,-0.75036c-7.46677,0 -14.8838,0.00525 -22.23963,0.76636c-4.91899,0.50896 -8.2651,1.93022 -13.27808,1.97614c0,0 -1.90865,0 -1.90865,-1.12639c0,-1.12639 1.90865,-1.12639 1.90865,-1.12639c4.49673,0.05366 8.05262,-1.46922 12.61335,-1.94174c7.56973,-0.78426 15.22021,-0.80079 22.90436,-0.80079c5.01116,0 9.918,-0.12773 14.73355,0.81681c2.68477,0.28434 4.75562,1.08977 7.48834,1.35337l2.03166,0.90227c0,0 1.34963,0.79648 0,1.59295z" fill="#dcdcdc" stroke="none" stroke-width="0.5" stroke-linecap="butt"/><path d="M254.86734,140.25944c-1.61856,0.77393 -3.23711,0 -3.23711,0l-0.20129,-0.17567c-9.02173,-2.16022 -14.24171,-2.19677 -23.4301,0c0,0 -2.04734,0.48948 -3.071,-0.48948c-1.02365,-0.97895 1.02367,-1.46843 1.02367,-1.46843c10.45918,-2.50059 17.21707,-2.46035 27.52477,0l1.39106,0.58572c0,0 1.61856,0.77393 0,1.54787z" fill="#eeeeee" stroke="none" stroke-width="0.5" stroke-linecap="butt"/><path d="M210.3395,131.75569l25.55947,12.06394" fill="none" stroke="#dcdcdc" stroke-width="2" stroke-linecap="round"/><path d="M243.86554,144.05388l25.55947,-12.18107" fill="none" stroke="#dcdcdc" stroke-width="2" stroke-linecap="round"/><path d="M240.92489,179.83545v-32.125h1.27623v32.125z" fill="#747474" stroke="none" stroke-width="0" stroke-linecap="butt"/><path d="M237.21642,179.91542v-17.82777h5.38952v17.82777z" fill="#646464" stroke="none" stroke-width="0" stroke-linecap="butt"/><path d="M240.09146,179.921v-17.82776h2.44137v17.82777z" fill="#515151" stroke="none" stroke-width="0" stroke-linecap="butt"/></g></g></svg>