<svg version="1.1" xmlns="http://www.w3.org/2000/svg" xmlns:xlink="http://www.w3.org/1999/xlink" width="101.77378" height="378.69529" viewBox="0,0,101.77378,378.69529"><g transform="translate(-162.8758,36.21623)"><g data-paper-data="{&quot;isPaintingLayer&quot;:true}" fill-rule="nonzero" stroke="none" stroke-linecap="butt" stroke-linejoin="miter" stroke-miterlimit="10" stroke-dasharray="" stroke-dashoffset="0" style="mix-blend-mode: normal"><path d="M233.60881,326.46801c0.08697,-0.08145 0.18153,-0.16503 0.27228,-0.16258c1.13152,0.03071 2.51855,-0.30458 3.37049,0.38404c0.09463,0.07648 0.16945,0.16289 0.22833,0.2573c2.93391,-2.51493 5.72677,-5.03983 8.94463,-7.31706l2.24283,-1.58722c0.24089,-0.17406 0.54419,-0.27782 0.87374,-0.27782c0.78388,0 1.41933,0.58704 1.41933,1.31119c0,0.28933 -0.10144,0.55678 -0.27327,0.77364l-1.13493,1.47061c0.19801,-0.04929 0.3943,-0.10181 0.58576,-0.16332c1.79001,-0.57517 3.58002,-1.15033 5.37004,-1.72548l0.0087,-0.00005l-0.00088,-0.0024l1.55187,-0.48001c0.1505,-0.05019 0.31282,-0.07756 0.48205,-0.07756c0.78388,0 1.41933,0.58704 1.41933,1.31119c0,0.29995 -0.10903,0.57637 -0.29247,0.7973l-1.6946,2.0873l-0.15499,-0.10739c-0.24411,0.39826 -0.49967,0.78992 -0.76897,1.17288l0.00299,0.05251c1.71182,-0.49618 3.46137,-0.37131 5.41019,-0.45304l1.26195,-0.40506c0.1547,-0.05343 0.32218,-0.08265 0.49705,-0.08265c0.78388,0 1.41933,0.58703 1.41933,1.31118c0,0.40458 -0.19836,0.76636 -0.51014,1.00688l-2.15938,1.68795l-0.12406,-0.13545c-1.82192,1.99295 -3.97186,3.77191 -6.60269,4.7216c-0.58288,0.21041 -1.2692,0.03988 -1.8612,0.22731c-0.22101,0.06997 0.45478,0.09909 0.68287,0.14575c0.57218,0.11705 1.1939,0.103 1.71791,0.34542c1.59825,0.73939 2.92673,1.89927 4.44294,2.7738l1.35896,0.78463c0.41222,0.22943 0.68792,0.64693 0.68792,1.12391c0,0.72415 -0.63545,1.31118 -1.41933,1.31118h-2.83867v-0.16053c-2.54588,0.38993 -5.16157,0.64523 -7.77554,0.80293c0.12652,0.19613 0.19918,0.42535 0.19918,0.67024c0,0.72415 -0.63545,1.31118 -1.41933,1.31118h-2.83867c-3.28618,0.53222 -6.70414,-0.77631 -10.02238,-0.86945c0.05129,0.13552 0.07916,0.28119 0.07916,0.43288c0,0.72415 -0.63546,1.31118 -1.41933,1.31118h-2.83867v-0.02438c-0.10845,-0.00013 -0.2171,-0.00356 -0.32598,-0.01067c-1.02952,-0.06729 -1.83967,-0.86744 -2.78566,-1.24868c-0.84633,-0.34108 -1.80394,-0.4634 -2.5864,-0.91631c-0.00457,-0.00265 -0.00901,-0.00562 -0.01331,-0.0089c0.20931,0.72823 0.58442,1.51658 0.01257,1.88676c-1.07592,0.69648 -2.63012,0.02124 -3.94074,-0.06288c-1.88789,-0.12119 -3.74727,-0.49174 -5.6204,-0.74091c-0.54543,-0.07256 -1.10742,-0.0763 -1.63574,-0.22099c-0.28833,-0.07896 -0.49163,-0.54682 -0.76803,-0.43733c-0.62608,0.248 -0.78092,1.28152 -1.46084,1.32021c-1.20691,0.06867 -2.31111,-0.66083 -3.44814,-1.04093c-0.7978,-0.26669 -1.65187,-0.45579 -2.35231,-0.89807c-0.66632,-0.42073 -0.9897,-1.21077 -1.65532,-1.63247c-0.24218,-0.15344 -0.62715,-0.11124 -0.88053,0.02589c-1.51234,0.81853 -2.59289,2.19993 -4.05619,3.09129c-0.85343,0.51987 -1.67398,1.36727 -2.69607,1.35027c-0.81201,-0.01351 -1.12715,-1.15585 -1.88461,-1.42647c-0.72995,-0.26079 -1.56406,-0.05669 -2.34608,-0.08504c-0.79326,-0.07861 -1.59269,-0.35624 -2.37978,-0.23582c-0.51092,0.07817 -0.78474,0.69981 -1.29172,0.79752c-1.33314,0.25694 -2.79126,0.65079 -4.07745,0.2373c-0.61981,-0.19927 -0.02791,-1.41703 -0.58571,-1.73644c-0.5667,-0.3245 -1.31354,0.23083 -1.97906,0.26782c-2.01272,0.11188 -6.1882,0.63413 -7.78023,-0.98183c-0.38463,-0.39041 0.12366,-1.11847 -0.15988,-1.5768c-0.38008,-0.6144 -1.14589,-0.93989 -1.69956,-1.42892c-0.25787,-0.22776 -3.88217,-3.59421 -3.91376,-3.63264c-1.41369,-1.7199 -2.01174,-4.38383 -3.60956,-5.94513c-0.56302,-0.55015 -1.30223,-0.91953 -1.95334,-1.3793l-0.0756,-0.35336l-0.11567,0.04274l-0.9348,-2.1589c-0.07304,-0.15798 -0.11347,-0.33192 -0.11347,-0.51457c0,-0.72415 0.63546,-1.31118 1.41933,-1.31118c0.18698,0 0.36551,0.03341 0.52899,0.0941l2.62729,0.91016l-0.07603,0.18732c1.11454,0.27618 2.19775,0.59457 3.33014,0.96286c-0.90947,-1.13196 -1.54087,-2.43608 -2.34647,-3.75037l-1.0262,-1.67418c-0.12497,-0.19527 -0.19668,-0.42307 -0.19668,-0.66634c0,-0.72415 0.63545,-1.31118 1.41933,-1.31118c0.28418,0 0.54885,0.07715 0.7708,0.21001l2.38863,1.37914l-0.0615,0.09091c1.23898,0.47548 2.4267,1.04448 3.60461,1.82753l-0.38527,-0.71183c-0.10384,-0.18221 -0.16262,-0.38975 -0.16262,-0.60997c0,-0.72415 0.63546,-1.31119 1.41933,-1.31119c0.25567,0 0.49556,0.06246 0.70275,0.17175l2.46895,1.24408c1.50952,0.52236 2.7138,1.69002 4.25765,2.11826c0.55026,0.15263 1.25026,-0.2053 1.72019,0.10005c1.13798,0.73942 2.22384,2.03055 3.23105,3.36611c0.27559,0.02025 1.24347,0.16147 1.33889,1.14643c0.3549,0.29651 0.6836,0.60805 0.85573,1.00943c0.02414,0.05628 0.04723,0.11282 0.06938,0.16963l0.03002,-0.01386l0.16714,0.3088h0.77961c7.65309,0 15.46803,0.42068 23.10437,0.0027c2.82481,-0.15462 5.23392,-1.37408 7.98843,-1.74458c2.20318,-0.29633 4.87808,0.21645 7.3139,0.86579c0.27438,-0.87311 1.35671,-0.87312 1.35671,-0.87312l1.85033,0.99317c-0.00738,0.25352 -0.128,0.53578 -0.11192,0.78334c0.04376,0.0134 0.08729,0.02673 0.13055,0.03999c0,0 0.09477,0.02918 0.22564,0.09528z" data-paper-data="{&quot;index&quot;:null}" fill="#fcfcfc" stroke-width="0.5"/><path d="M225.54403,327.45545c0.05785,-0.05417 0.12072,-0.10976 0.18108,-0.10812c0.75258,0.02043 1.67512,-0.20258 2.24175,0.25543c0.06294,0.05087 0.11272,0.10834 0.15187,0.17113c1.95138,-1.67271 3.80893,-3.35204 5.94916,-4.86665l1.49174,-1.05568c0.16022,-0.11577 0.36195,-0.18478 0.58113,-0.18478c0.52136,0 0.94401,0.39044 0.94401,0.87208c0,0.19244 -0.06747,0.37032 -0.18175,0.51456l-0.75486,0.97812c0.13171,-0.03278 0.26225,-0.06772 0.38959,-0.10863c1.19055,-0.38255 2.38111,-0.7651 3.57167,-1.14764l0.00578,-0.00002l-0.00058,-0.0016l1.03216,-0.31926c0.1001,-0.03339 0.20806,-0.05159 0.32062,-0.05159c0.52136,0 0.94401,0.39045 0.94401,0.87208c0,0.1995 -0.07252,0.38336 -0.19452,0.5303l-1.12709,1.38828l-0.10308,-0.07142c-0.16236,0.26488 -0.33234,0.52538 -0.51146,0.7801l0.002,0.03492c1.13855,-0.33002 2.30219,-0.24696 3.59838,-0.30132l0.83934,-0.26941c0.10289,-0.03555 0.21428,-0.05497 0.3306,-0.05497c0.52136,0 0.94401,0.39044 0.94401,0.87208c0,0.26909 -0.13194,0.50972 -0.3393,0.66969l-1.43623,1.12267l-0.08252,-0.09009c-1.21178,1.32554 -2.64173,2.50874 -4.39152,3.14039c-0.38769,0.13995 -0.84416,0.02653 -1.23791,0.15119c-0.14699,0.04654 0.30248,0.06589 0.45419,0.09693c0.38056,0.07786 0.79408,0.0685 1.1426,0.22974c1.06302,0.49178 1.9466,1.26322 2.95504,1.84488l0.90387,0.52188c0.27417,0.1526 0.45754,0.43027 0.45754,0.74752c0,0.48163 -0.42265,0.87208 -0.94401,0.87208h-1.88804v-0.10677c-1.69329,0.25934 -3.433,0.42915 -5.17159,0.53404c0.08415,0.13045 0.13248,0.2829 0.13248,0.44578c0,0.48163 -0.42265,0.87208 -0.94401,0.87208h-1.88803c-2.18568,0.35399 -4.459,-0.51632 -6.666,-0.57828c0.03411,0.09013 0.05265,0.18702 0.05265,0.28791c0,0.48163 -0.42265,0.87208 -0.94401,0.87208h-1.88804v-0.01621c-0.07213,-0.00009 -0.14439,-0.00236 -0.21682,-0.0071c-0.68475,-0.04476 -1.22358,-0.57694 -1.85277,-0.83051c-0.5629,-0.22686 -1.19983,-0.30822 -1.72024,-0.60945c-0.00304,-0.00176 -0.00599,-0.00374 -0.00885,-0.00591c0.13922,0.48436 0.38871,1.0087 0.00836,1.25491c-0.7156,0.46324 -1.74933,0.01412 -2.62103,-0.04183c-1.25565,-0.0806 -2.49235,-0.32705 -3.73818,-0.49278c-0.36277,-0.04826 -0.73656,-0.05075 -1.08795,-0.14699c-0.19177,-0.05252 -0.32699,-0.36369 -0.51083,-0.29087c-0.41641,0.16494 -0.5194,0.85235 -0.97162,0.87808c-0.80273,0.04567 -1.53714,-0.43953 -2.2934,-0.69233c-0.53062,-0.17737 -1.09868,-0.30315 -1.56454,-0.59731c-0.44319,-0.27984 -0.65826,-0.80529 -1.10097,-1.08577c-0.16108,-0.10204 -0.41713,-0.07399 -0.58566,0.01722c-1.00587,0.54441 -1.72456,1.46319 -2.69781,2.05605c-0.56762,0.34577 -1.11338,0.90938 -1.79319,0.89808c-0.54007,-0.00898 -0.74968,-0.76877 -1.25348,-0.94876c-0.4855,-0.17345 -1.04027,-0.03771 -1.5604,-0.05656c-0.52761,-0.05228 -1.05932,-0.23694 -1.58282,-0.15685c-0.33982,0.05199 -0.52195,0.46545 -0.85914,0.53044c-0.88669,0.17089 -1.8565,0.43284 -2.71195,0.15783c-0.41224,-0.13253 -0.01856,-0.94248 -0.38956,-1.15492c-0.37692,-0.21582 -0.87365,0.15353 -1.3163,0.17813c-1.33868,0.07441 -4.11584,0.42176 -5.17472,-0.65303c-0.25583,-0.25967 0.08225,-0.7439 -0.10634,-1.04874c-0.2528,-0.40864 -0.76214,-0.62513 -1.1304,-0.95038c-0.17152,-0.15149 -2.58207,-2.39055 -2.60309,-2.41611c-0.94026,-1.14393 -1.33803,-2.91574 -2.40075,-3.95418c-0.37447,-0.36591 -0.86612,-0.61159 -1.29919,-0.91739l-0.05029,-0.23503l-0.07693,0.02844l-0.62175,-1.43591c-0.04858,-0.10508 -0.07546,-0.22077 -0.07546,-0.34225c0,-0.48163 0.42266,-0.87208 0.94401,-0.87208c0.12437,0 0.2431,0.02221 0.35184,0.06259l1.74744,0.60535l-0.05056,0.12459c0.74129,0.18369 1.46175,0.39545 2.21492,0.6404c-0.60489,-0.75288 -1.02485,-1.62027 -1.56067,-2.49442l-0.68254,-1.11352c-0.08311,-0.12988 -0.13081,-0.28138 -0.13081,-0.44318c0,-0.48163 0.42265,-0.87208 0.94401,-0.87208c0.18901,0 0.36504,0.05131 0.51268,0.13968l1.5887,0.91728l-0.04091,0.06046c0.82406,0.31624 1.61403,0.6947 2.39747,1.21551l-0.25625,-0.47344c-0.06906,-0.12119 -0.10816,-0.25923 -0.10816,-0.4057c0,-0.48163 0.42266,-0.87208 0.94401,-0.87208c0.17005,0 0.3296,0.04154 0.4674,0.11423l1.64212,0.82745c1.00399,0.34742 1.80498,1.12405 2.83181,1.40888c0.36598,0.10152 0.83155,-0.13655 1.14412,0.06654c0.75688,0.4918 1.4791,1.35054 2.14901,2.23884c0.1833,0.01347 0.82704,0.10739 0.89051,0.7625c0.23605,0.1972 0.45467,0.40442 0.56915,0.67138c0.01605,0.03743 0.03142,0.07504 0.04615,0.11283l0.01996,-0.00922l0.11116,0.20539h0.51854c5.09016,0 10.28796,0.2798 15.36697,0.0018c1.87882,-0.10284 3.48113,-0.91392 5.31319,-1.16034c1.46536,-0.19709 3.24447,0.14397 4.86456,0.57585c0.18249,-0.58071 0.90236,-0.58072 0.90236,-0.58072l1.23067,0.66057c-0.00491,0.16862 -0.08514,0.35634 -0.07444,0.52101c0.02911,0.00892 0.05806,0.01779 0.08683,0.0266c0,0 0.06303,0.0194 0.15008,0.06337z" data-paper-data="{&quot;index&quot;:null}" fill="#e6e6e6" stroke-width="0.5"/><path d="M203.70591,333.23254v-369.44876h22.36137v369.44876z" fill="#625eff" stroke-width="0"/><path d="M211.80461,333.37836v-369.44876h6.80563v369.44876z" fill="#9492ff" stroke-width="0"/><path d="M233.19376,333.04548v-345.64922h18.47243v345.64922z" fill="#5e9aff" stroke-width="0"/><path d="M239.88399,333.18192v-345.64922h5.62204v345.64922z" fill="#615eff" stroke-width="0"/><path d="M179.06951,332.43604v-345.64922h18.47244v345.64922z" fill="#5e9aff" stroke-width="0"/><path d="M185.75975,332.57248v-345.64922h5.62204v345.64922z" fill="#615eff" stroke-width="0"/></g></g></svg>