<svg version="1.1" xmlns="http://www.w3.org/2000/svg" xmlns:xlink="http://www.w3.org/1999/xlink" width="32.44172" height="76.4215" viewBox="0,0,32.44172,76.4215"><g transform="translate(-223.38279,-103.4995)"><g data-paper-data="{&quot;isPaintingLayer&quot;:true}" fill-rule="nonzero" stroke-linejoin="miter" stroke-miterlimit="10" stroke-dasharray="" stroke-dashoffset="0" style="mix-blend-mode: normal"><path d="M239.99474,144.18289l-0.07468,-36.28951" fill="none" stroke="#eeeeee" stroke-width="2.5" stroke-linecap="round"/><path d="M255.34884,114.38989c-0.69534,1.85691 -1.3907,0 -1.3907,0l0.02062,-0.63673c-1.44553,-0.65408 -2.61092,-2.67478 -4.00887,-3.23865c-2.32816,-2.07862 -4.6912,-1.74937 -7.11686,-1.74937c-3.84699,0 -7.66835,0.01225 -11.45818,1.78669c-2.53433,1.18659 -4.2583,4.50008 -6.84106,4.60714c0,0 -0.98337,0 -0.98337,-2.62604c0,-2.62604 0.98337,-2.62604 0.98337,-2.62604c2.31678,0.1251 4.14883,-3.42533 6.49858,-4.52694c3.90004,-1.82841 7.84168,-1.86695 11.80066,-1.86695c2.58182,0 5.1099,-0.29778 7.59095,1.9043c1.38324,0.6629 2.45016,2.54068 3.8581,3.15524l1.04674,2.10354c0,0 0.69534,1.8569 0,3.71378z" fill="#dcdcdc" stroke="none" stroke-width="0.5" stroke-linecap="butt"/><path d="M247.32419,133.70981c-0.83391,0.91787 -1.66781,0 -1.66781,0l-0.10371,-0.20834c-4.64813,-2.562 -7.33754,-2.60534 -12.07153,0c0,0 -1.05482,0.58052 -1.58222,-0.58052c-0.5274,-1.16102 0.5274,-1.74155 0.5274,-1.74155c5.38872,-2.96567 8.87048,-2.91794 14.18117,0l0.71669,0.69466c0,0 0.83391,0.91787 0,1.83576z" fill="#eeeeee" stroke="none" stroke-width="0.5" stroke-linecap="butt"/><path d="M224.38279,115.57435l13.16861,28.1257" fill="none" stroke="#dcdcdc" stroke-width="2" stroke-linecap="round"/><path d="M242.04052,143.47694l12.78399,-27.62955" fill="none" stroke="#dcdcdc" stroke-width="2" stroke-linecap="round"/><path d="M237.75867,179.75001v-32.125h4.43035v32.125z" fill="#7e7e7e" stroke="none" stroke-width="0" stroke-linecap="butt"/><path d="M240.9249,179.83545v-32.125h1.27623v32.125z" fill="#747474" stroke="none" stroke-width="0" stroke-linecap="butt"/><path d="M237.21643,179.91542v-17.82777h5.38952v17.82777z" fill="#646464" stroke="none" stroke-width="0" stroke-linecap="butt"/><path d="M240.09147,179.921v-17.82776h2.44137v17.82777z" fill="#515151" stroke="none" stroke-width="0" stroke-linecap="butt"/></g></g></svg>