<svg version="1.1" xmlns="http://www.w3.org/2000/svg" xmlns:xlink="http://www.w3.org/1999/xlink" width="138.40744" height="384.53186" viewBox="0,0,138.40744,384.53186"><g transform="translate(-147.86745,36.21622)"><g data-paper-data="{&quot;isPaintingLayer&quot;:true}" fill-rule="nonzero" stroke="none" stroke-linecap="butt" stroke-linejoin="miter" stroke-miterlimit="10" stroke-dasharray="" stroke-dashoffset="0" style="mix-blend-mode: normal"><path d="M244.06095,317.78774c0.11828,-0.1553 0.24686,-0.31467 0.37028,-0.30998c1.53881,0.05856 3.42511,-0.58074 4.5837,0.73224c0.12869,0.14583 0.23046,0.31059 0.31053,0.4906c3.98998,-4.79517 7.78812,-9.60933 12.16425,-13.95127l3.05015,-3.02632c0.3276,-0.33189 0.74008,-0.52971 1.18824,-0.52971c1.06603,0 1.93022,1.11929 1.93022,2.5c0,0.55167 -0.13796,1.0616 -0.37164,1.47508l-1.54345,2.80397c0.26929,-0.09398 0.53623,-0.19411 0.7966,-0.3114c2.43432,-1.09666 4.86865,-2.19332 7.30299,-3.28995l0.01183,-0.00009l-0.00119,-0.00457l2.11046,-0.91523c0.20467,-0.09571 0.42542,-0.14788 0.65557,-0.14788c1.06603,0 1.93022,1.11929 1.93022,2.5c0,0.57191 -0.14827,1.09896 -0.39774,1.5202l-2.30457,3.9798l-0.21078,-0.20475c-0.33197,0.75934 -0.67953,1.50612 -1.04576,2.2363l0.00407,0.10012c2.32799,-0.94606 4.70729,-0.70797 7.35759,-0.8638l1.71619,-0.77231c0.21038,-0.10188 0.43815,-0.15759 0.67597,-0.15759c1.06603,0 1.93022,1.11929 1.93022,2.5c0,0.77141 -0.26976,1.46121 -0.69376,1.9198l-2.93666,3.21837l-0.16872,-0.25826c-2.47772,3.79992 -5.40153,7.19182 -8.97934,9.00257c-0.79269,0.40118 -1.72606,0.07604 -2.53115,0.4334c-0.30056,0.13341 0.61848,0.18892 0.92868,0.27789c0.77814,0.22319 1.62365,0.19639 2.33628,0.65861c2.17355,1.40978 3.98021,3.6213 6.04218,5.28873l1.84813,1.49605c0.5606,0.43745 0.93554,1.23348 0.93554,2.14293c0,1.38071 -0.86419,2.5 -1.93022,2.5h-3.86045v-0.30607c-3.46227,0.74347 -7.01948,1.23024 -10.57436,1.53092c0.17206,0.37396 0.27089,0.811 0.27089,1.27793c0,1.38071 -0.86419,2.5 -1.93022,2.5h-3.86045c-4.46905,1.01478 -9.11731,-1.48016 -13.62996,-1.65776c0.06975,0.25839 0.10766,0.53614 0.10766,0.82535c0,1.38071 -0.86419,2.5 -1.93022,2.5h-3.86045v-0.04649c-0.14748,-0.00025 -0.29525,-0.00678 -0.44332,-0.02035c-1.4001,-0.12829 -2.50185,-1.65393 -3.78835,-2.38084c-1.15097,-0.65033 -2.45328,-0.88356 -3.51739,-1.7471c-0.00622,-0.00505 -0.01225,-0.01072 -0.01809,-0.01697c0.28466,1.38851 0.79479,2.89164 0.01709,3.59746c-1.46319,1.32797 -3.57684,0.04049 -5.35921,-0.11991c-2.56744,-0.23106 -5.09611,-0.93757 -7.64347,-1.41267c-0.74175,-0.13835 -1.50604,-0.14549 -2.22453,-0.42136c-0.39212,-0.15056 -0.6686,-1.0426 -1.04449,-0.83384c-0.85144,0.47285 -1.06201,2.44345 -1.98667,2.51721c-1.64133,0.13092 -3.14299,-1.25999 -4.6893,-1.98471c-1.08497,-0.50849 -2.24646,-0.86904 -3.19902,-1.71232c-0.90617,-0.80221 -1.34595,-2.30855 -2.25116,-3.11259c-0.32935,-0.29255 -0.8529,-0.21209 -1.19748,0.04937c-2.05671,1.56066 -3.5262,4.19455 -5.51622,5.89409c-1.16062,0.99122 -2.27653,2.60694 -3.66653,2.57452c-1.10429,-0.02576 -1.53286,-2.20384 -2.56298,-2.71983c-0.99269,-0.49724 -2.12704,-0.10809 -3.19056,-0.16213c-1.0788,-0.14988 -2.16599,-0.67923 -3.23639,-0.44963c-0.69483,0.14904 -1.06722,1.33431 -1.75668,1.52061c-1.81301,0.4899 -3.79598,1.24084 -5.54513,0.45245c-0.84291,-0.37993 -0.03795,-2.70183 -0.79653,-3.31083c-0.77068,-0.61871 -1.78635,0.44011 -2.69143,0.51065c-2.7372,0.21333 -8.41566,1.20909 -10.58074,-1.87202c-0.52308,-0.74439 0.16818,-2.13256 -0.21742,-3.00645c-0.51689,-1.17145 -1.55836,-1.79207 -2.31133,-2.72448c-0.35069,-0.43427 -5.27956,-6.85301 -5.32252,-6.92628c-1.92255,-3.2793 -2.73587,-8.35856 -4.90883,-11.33546c-0.76568,-1.04896 -1.77097,-1.75324 -2.65645,-2.62987l-0.10282,-0.67373l-0.1573,0.08149l-1.27128,-4.11634c-0.09933,-0.30123 -0.15431,-0.63286 -0.15431,-0.98112c0,-1.38071 0.86419,-2.5 1.93022,-2.5c0.25428,0 0.49708,0.06369 0.7194,0.17941l3.57299,1.73539l-0.1034,0.35714c1.51572,0.52659 2.98884,1.13367 4.52883,1.83587c-1.23683,-2.15827 -2.0955,-4.64483 -3.19109,-7.15076l-1.39559,-3.19212c-0.16995,-0.37231 -0.26748,-0.80665 -0.26748,-1.27049c0,-1.38071 0.86419,-2.5 1.93022,-2.5c0.38647,0 0.7464,0.1471 1.04825,0.40043l3.24842,2.62957l-0.08364,0.17334c1.68495,0.90659 3.3002,1.99149 4.9021,3.4845l-0.52395,-1.35722c-0.14122,-0.34741 -0.22115,-0.74313 -0.22115,-1.16302c0,-1.38071 0.86419,-2.5 1.93022,-2.5c0.3477,0 0.67394,0.11908 0.95571,0.32746l3.35765,2.37206c2.05287,0.99597 3.69063,3.22232 5.79019,4.03884c0.74833,0.29102 1.70029,-0.39144 2.33938,0.19075c1.54759,1.40983 3.02431,3.87162 4.39407,6.4181c0.37479,0.03861 1.69106,0.30787 1.82082,2.18588c0.48265,0.56534 0.92967,1.15936 1.16375,1.92466c0.03282,0.1073 0.06424,0.21512 0.09436,0.32343l0.04082,-0.02643l0.2273,0.58878h1.06024c10.40784,0 21.03578,0.80211 31.42082,0.00514c3.8416,-0.29481 7.11789,-2.61993 10.86389,-3.32635c2.99622,-0.56502 6.63396,0.4127 9.94655,1.65077c0.37314,-1.66475 1.84505,-1.66475 1.84505,-1.66475l2.51636,1.89366c-0.01004,0.48338 -0.17408,1.02154 -0.15221,1.49357c0.05952,0.02556 0.11871,0.05098 0.17754,0.07624c0,0 0.12888,0.05564 0.30686,0.18168z" data-paper-data="{&quot;index&quot;:null}" fill="#fcfcfc" stroke-width="0.5"/><path d="M233.09323,319.67046c0.07867,-0.10329 0.16418,-0.20929 0.24627,-0.20616c1.02348,0.03895 2.27808,-0.38627 3.04867,0.48701c0.08559,0.09699 0.15329,0.20657 0.20654,0.3263c2.65378,-3.18932 5.17996,-6.39127 8.09058,-9.27914l2.02869,-2.01284c0.21789,-0.22075 0.49223,-0.35232 0.79031,-0.35232c0.70903,0 1.28381,0.74445 1.28381,1.66278c0,0.36692 -0.09176,0.70609 -0.24718,0.9811l-1.02657,1.86495c0.17911,-0.06251 0.35666,-0.12911 0.52983,-0.20712c1.61909,-0.7294 3.2382,-1.4588 4.8573,-2.18818l0.00786,-0.00005l-0.00079,-0.00304l1.40369,-0.60873c0.13613,-0.06366 0.28295,-0.09835 0.43603,-0.09835c0.70903,0 1.28381,0.74445 1.28381,1.66277c0,0.38038 -0.09862,0.73094 -0.26454,1.01111l-1.53279,2.64701l-0.14019,-0.13619c-0.2208,0.50504 -0.45196,1.00173 -0.69555,1.48739l0.00271,0.06659c1.54837,-0.62923 3.13087,-0.47087 4.89362,-0.57452l1.14146,-0.51367c0.13992,-0.06777 0.29142,-0.10482 0.4496,-0.10482c0.70903,0 1.28381,0.74446 1.28381,1.66278c0,0.51308 -0.17942,0.97187 -0.46143,1.27688l-1.95321,2.14057l-0.11222,-0.17178c-1.64796,2.52737 -3.59262,4.78337 -5.97226,5.98771c-0.52723,0.26683 -1.14802,0.05058 -1.68349,0.28827c-0.1999,0.08873 0.41136,0.12564 0.61768,0.18482c0.51755,0.14845 1.0799,0.13062 1.55388,0.43805c1.44565,0.93766 2.64729,2.40857 4.01872,3.51759l1.22921,0.99504c0.37286,0.29095 0.62224,0.8204 0.62224,1.42529c0,0.91832 -0.57479,1.66278 -1.28381,1.66278h-2.56763v-0.20358c-2.30279,0.49448 -4.66873,0.81824 -7.03312,1.01824c0.11444,0.24872 0.18017,0.5394 0.18017,0.84996c0,0.91832 -0.57479,1.66278 -1.28381,1.66278h-2.56763c-2.97242,0.67494 -6.06402,-0.98447 -9.06544,-1.1026c0.04639,0.17186 0.07161,0.35659 0.07161,0.54895c0,0.91832 -0.57478,1.66277 -1.28381,1.66277h-2.56763v-0.03091c-0.09809,-0.00016 -0.19637,-0.0045 -0.29486,-0.01353c-0.93122,-0.08533 -1.66401,-1.10005 -2.51968,-1.58353c-0.76552,-0.43254 -1.63171,-0.58767 -2.33945,-1.16201c-0.00413,-0.00336 -0.00815,-0.00713 -0.01203,-0.01128c0.18933,0.92352 0.52862,1.92327 0.01137,2.39272c-0.97318,0.88325 -2.37899,0.02693 -3.56447,-0.07976c-1.70763,-0.15368 -3.38948,-0.62358 -5.08375,-0.93958c-0.49334,-0.09202 -1.00168,-0.09676 -1.47956,-0.28025c-0.2608,-0.10014 -0.4447,-0.69344 -0.69471,-0.5546c-0.5663,0.3145 -0.70636,1.62517 -1.32136,1.67423c-1.09167,0.08708 -2.09043,-0.83804 -3.11891,-1.32005c-0.72162,-0.3382 -1.49415,-0.57801 -2.1277,-1.13888c-0.60271,-0.53356 -0.89521,-1.53544 -1.49727,-2.07022c-0.21906,-0.19457 -0.56727,-0.14107 -0.79646,0.03284c-1.36794,1.03801 -2.34532,2.78984 -3.6689,3.92023c-0.77194,0.65927 -1.51414,1.7339 -2.43865,1.71234c-0.73447,-0.01713 -1.01952,-1.4658 -1.70467,-1.80898c-0.66025,-0.33072 -1.41472,-0.07189 -2.12208,-0.10784c-0.71752,-0.09969 -1.44062,-0.45176 -2.15256,-0.29906c-0.46214,0.09913 -0.70982,0.88746 -1.16838,1.01137c-1.20585,0.32584 -2.52475,0.8253 -3.68813,0.30094c-0.56063,-0.25269 -0.02524,-1.79701 -0.52978,-2.20207c-0.51259,-0.41151 -1.18812,0.29272 -1.7901,0.33963c-1.82054,0.14189 -5.59734,0.80418 -7.03737,-1.24511c-0.34791,-0.49511 0.11186,-1.41839 -0.14461,-1.99962c-0.34379,-0.77915 -1.03648,-1.19192 -1.53729,-1.81208c-0.23325,-0.28884 -3.51149,-4.55801 -3.54007,-4.60675c-1.27871,-2.1811 -1.81966,-5.55937 -3.26491,-7.53934c-0.50926,-0.69768 -1.17789,-1.1661 -1.76684,-1.74916l-0.06839,-0.44811l-0.10462,0.05421l-0.84554,-2.73782c-0.06607,-0.20035 -0.10263,-0.42093 -0.10263,-0.65256c0,-0.91832 0.57479,-1.66278 1.28381,-1.66278c0.16913,0 0.33061,0.04235 0.47848,0.11933l2.37644,1.15422l-0.06877,0.23754c1.00812,0.35024 1.98791,0.75401 3.01218,1.22105c-0.82263,-1.43549 -1.39375,-3.08933 -2.12243,-4.75605l-0.92822,-2.12311c-0.11303,-0.24763 -0.1779,-0.53651 -0.1779,-0.84501c0,-0.91832 0.57478,-1.66278 1.28381,-1.66278c0.25704,0 0.49644,0.09784 0.69721,0.26633l2.16056,1.74895l-0.05563,0.11529c1.12068,0.60298 2.195,1.32457 3.26044,2.31758l-0.34849,-0.9027c-0.09392,-0.23107 -0.14709,-0.49426 -0.14709,-0.77354c0,-0.91832 0.57479,-1.66278 1.28381,-1.66278c0.23126,0 0.44824,0.0792 0.63565,0.2178l2.23321,1.57768c1.36538,0.66243 2.45468,2.1432 3.85112,2.68628c0.49772,0.19356 1.13088,-0.26036 1.55595,0.12687c1.02932,0.93769 2.0115,2.57506 2.92254,4.26875c0.24928,0.02568 1.12474,0.20477 1.21105,1.45385c0.32102,0.37601 0.61834,0.7711 0.77402,1.28011c0.02183,0.07137 0.04272,0.14308 0.06276,0.21512l0.02715,-0.01758l0.15118,0.39161h0.70518c6.92237,0 13.99113,0.53349 20.89834,0.00342c2.5551,-0.19608 4.73418,-1.74255 7.22569,-2.21239c1.99282,-0.3758 4.41232,0.2745 6.61556,1.09795c0.24818,-1.10724 1.22716,-1.10725 1.22716,-1.10725l1.67366,1.2595c-0.00668,0.3215 -0.11579,0.67944 -0.10124,0.99339c0.03959,0.017 0.07896,0.03391 0.11809,0.05071c0,0 0.08572,0.037 0.2041,0.12084z" data-paper-data="{&quot;index&quot;:null}" fill="#e6e6e6" stroke-width="0.5"/><path d="M203.7059,333.23254v-369.44876h22.36137v369.44876z" fill="#625eff" stroke-width="0"/><path d="M211.8046,333.37837v-369.44876h6.80563v369.44876z" fill="#9492ff" stroke-width="0"/><path d="M233.19375,333.04548v-345.64922h18.47243v345.64922z" fill="#5e9aff" stroke-width="0"/><path d="M239.88398,333.18192v-345.64922h5.62204v345.64922z" fill="#615eff" stroke-width="0"/><path d="M179.0695,332.43605v-345.64922h18.47244v345.64922z" fill="#5e9aff" stroke-width="0"/><path d="M185.75974,332.57248v-345.64922h5.62204v345.64922z" fill="#615eff" stroke-width="0"/></g></g></svg>