<svg version="1.1" xmlns="http://www.w3.org/2000/svg" xmlns:xlink="http://www.w3.org/1999/xlink" width="88.51838" height="90.57086" viewBox="0,0,88.51838,90.57086"><g transform="translate(-201.29972,-141.7178)"><g data-paper-data="{&quot;isPaintingLayer&quot;:true}" fill-rule="nonzero" stroke="none" stroke-linecap="butt" stroke-linejoin="miter" stroke-miterlimit="10" stroke-dasharray="" stroke-dashoffset="0" style="mix-blend-mode: normal"><path d="M224.24421,149.59401c0.3138,-0.89207 1.12239,-0.60764 1.12239,-0.60764c2.59534,0.91295 5.3035,1.86559 7.89883,2.77855c0,0 0.8086,0.28443 0.4948,1.17651c-0.3138,0.89207 -1.12239,0.60764 -1.12239,0.60764c-2.59534,-0.91295 -5.19066,-1.8259 -7.78599,-2.73885l-0.11284,-0.03969c0,0 -0.8086,-0.28443 -0.4948,-1.17651z" fill="#9d4400" stroke-width="0.5"/><path d="M278.53483,219.14483c0.04798,-0.65337 0.66084,-0.57093 0.66084,-0.57093c1.29597,0.17433 2.90717,0.39107 4.20312,0.56539c0,0 0.61286,0.08244 0.56489,0.7358c-0.04798,0.65337 -0.66084,0.57093 -0.66084,0.57093c-1.29597,-0.17433 -2.59192,-0.34865 -3.88789,-0.52298l-0.31524,-0.0424c0,0 -0.61286,-0.08244 -0.56489,-0.7358z" fill="#9d4400" stroke-width="0.5"/><path d="M221.76526,158.32156c0.3138,-0.89207 1.12239,-0.60764 1.12239,-0.60764c0.87803,0.30886 2.03333,0.71526 2.91136,1.02412c0,0 0.8086,0.28443 0.4948,1.17651c-0.3138,0.89207 -1.12239,0.60764 -1.12239,0.60764c-0.87803,-0.30886 -1.75606,-0.61772 -2.63408,-0.92659l-0.27728,-0.09754c0,0 -0.8086,-0.28443 -0.4948,-1.17651z" fill="#9d4400" stroke-width="0.5"/><path d="M260.37531,180.73902c1.00315,-0.53925 2.10248,-1.31419 3.26293,-1.84429c0.10713,-0.36486 0.27154,-0.71965 0.49569,-1.05163c0.26052,-0.38585 0.57975,-0.70835 0.93775,-0.96364c-1.15778,-3.60286 -1.34617,-7.08835 4.87422,-8.37308c1.98285,-0.40953 3.75053,1.62559 5.36615,2.84591c0.27704,0.20927 -0.48616,0.74019 -0.26454,1.00747c0.19129,0.23069 0.1631,-0.72471 0.45883,-0.77315c0.95474,-0.15639 1.94045,0.05893 2.89373,0.22398c4.69519,0.81296 14.32634,6.03025 10.56639,12.63593c-0.12244,0.2151 -0.25529,0.41809 -0.39753,0.60919c0.73037,1.56974 0.8724,3.27069 -0.16771,5.05901c-1.09329,1.87973 -4.02276,1.83955 -6.18438,2.07645c-1.38293,0.15155 -2.71108,-0.62628 -4.06329,-0.95341c-0.00623,-0.00151 -0.01248,-0.00302 -0.01872,-0.00452c-0.73234,2.18306 -3.37342,2.94887 -7.42677,2.8194c-2.03299,-0.06494 -4.9574,-2.32247 -7.21397,-4.04138l-2.53739,0.15044c0,0 -1.84554,0.09167 -3.02088,-1.14303c-0.09271,-0.05186 -0.18403,-0.10803 -0.27367,-0.16856c-1.73139,-1.169 -2.18729,-3.52023 -1.0183,-5.2516c0.29486,-0.43671 0.66493,-0.79228 1.0813,-1.06108l2.59076,-1.75885l0.01964,0.02894z" fill="#6f6f6f" stroke-width="0.5"/><path d="M243.3817,189.18213c3.13495,2.11665 1.0183,5.2516 1.0183,5.2516l0.29372,-0.69511c-0.71829,1.33871 -0.87459,3.19999 -2.14664,4.02379c-0.81898,3.52153 -2.1403,7.49017 -4.79981,9.67679c-0.70084,0.57622 -1.36716,1.0835 -1.99861,1.50403c0.85654,1.12737 1.33723,2.55822 1.2098,4.21458c-0.10663,1.38608 -0.72521,2.72742 -1.68004,3.93735c-0.77994,2.85724 -3.17838,5.16189 -6.81946,6.07475c-0.79526,0.19938 -2.23006,-0.23335 -3.68133,-0.82333c-2.68641,0.07595 -5.08752,-0.88518 -6.28393,-3.33713c-3.0333,-1.97786 -6.07094,-3.94453 -8.57218,-6.60671c-0.96708,-1.02932 -1.88748,-1.98262 -2.53842,-2.99492c-2.9698,-0.84065 -5.62069,-2.85123 -6.03492,-5.58116c-0.32726,-2.15675 1.06952,-4.29629 2.19405,-6.16553c2.02704,-3.36946 5.83245,-3.88309 9.31206,-3.47395c0.00398,-0.00629 0.00795,-0.01258 0.01191,-0.01885c1.72507,-0.20693 3.4395,-0.69803 5.17523,-0.62079c0.85069,0.03786 2.05917,0.30152 3.36718,0.66111c0.00787,-0.02167 0.01585,-0.04324 0.02393,-0.06473c1.59285,-4.23545 8.78738,-4.9886 12.47792,-4.44755c0.79422,0.11644 1.51423,0.54671 2.29807,0.71975c0.5623,0.12414 1.18425,0.0172 1.74307,0.12255l0.17847,-0.33824c0,0 2.11665,-3.13495 5.2516,-1.0183z" fill="#6f6f6f" stroke-width="0.5"/><path d="M247.26928,197.32536c-0.17017,-0.11131 -0.33955,-0.2237 -0.50794,-0.33739c0,0 -3.13495,-2.11665 -1.0183,-5.2516c2.11665,-3.13495 5.2516,-1.0183 5.2516,-1.0183c0.71796,0.48475 8.07632,5.44375 8.28915,5.63086c1.45231,1.27682 2.6829,2.79401 3.8814,4.31161c0.09087,0.11506 0.12057,0.27126 0.14066,0.43168c0.79462,0.3326 1.57429,0.79816 2.34334,1.43321c1.33786,0.31361 2.73472,0.50173 3.75419,1.36489c0.97039,0.8216 2.28799,1.64519 3.13302,2.64085c0.04442,0.00054 0.08875,0.00075 0.13297,0.00061c5.87153,-0.01784 11.32608,4.93275 10.73163,11.08874c0.57462,0.3802 1.02348,0.8594 1.22749,1.50861c0.75322,2.39687 -0.3729,5.21431 -1.71161,7.34039c-0.89286,1.41799 -2.90782,1.67258 -4.41919,2.3962c-1.42098,0.68035 -2.8186,1.51414 -4.36602,1.81004c-0.26004,0.04972 -0.5259,0.09487 -0.79652,0.13509c-2.09388,0.91583 -4.38778,1.43464 -6.76067,1.47612c-1.66722,0.02914 -3.20552,-0.31658 -4.48755,-0.96482c-2.62815,0.77762 -7.5878,1.67948 -9.70106,-0.70435c-1.31746,-1.48614 -1.03196,-3.83566 -1.54794,-5.75348c0.43822,-0.88014 0.89592,-1.73341 1.37643,-2.55538c-0.14106,-2.13625 0.71395,-4.41473 1.57097,-6.11739c-0.0643,-0.05559 -0.12613,-0.11279 -0.1852,-0.17142c-0.61468,-0.61014 -1.10788,-1.15774 -1.49462,-1.65772c-1.85379,-0.14287 -3.49633,-0.94136 -4.96387,-2.91869c-2.41403,-3.2526 -2.24008,-5.53664 -0.15082,-8.26563c-0.50939,-0.69138 -0.73307,-1.57636 -1.12286,-2.34879z" fill="#6f6f6f" stroke-width="0.5"/><path d="M232.17757,143.51998c1.18919,0.1666 2.37306,0.4589 3.0055,1.27618c0.9786,0.31257 2.00482,1.07489 2.34861,2.84794c0.39638,2.04423 -0.55077,3.18132 -1.48236,3.79054c-0.01635,0.40322 -0.0584,0.80866 -0.13027,1.20385l1.41488,0.1853c0.5905,0.06478 1.17437,0.27001 1.70091,0.62552c1.49688,1.01067 2.0404,2.90499 1.40473,4.51846c1.47602,1.07361 2.38363,2.69723 1.76148,4.98208c0.43073,-0.08126 0.8604,-0.16435 1.26344,-0.29466c1.2641,0.04847 2.57125,-0.18534 3.79227,0.1454c0.97377,0.26377 1.73491,1.03124 2.58088,1.58091c1.37683,0.89461 3.81614,1.13142 4.08605,2.75102c0.32395,1.94377 -0.24526,4.055 -1.25364,5.84474c0.10643,-0.03366 0.2133,-0.06796 0.3207,-0.1027c0,0 3.61122,-1.12572 4.73695,2.4855c1.12572,3.61122 -2.4855,4.73695 -2.4855,4.73695c-5.73506,1.74181 -11.78232,0.60819 -16.78895,-2.77657c-3.13859,-0.53844 -6.03191,-1.88149 -8.70711,-4.08191c-1.11596,-0.9179 -2.45212,-1.72655 -3.12303,-3.00631c-0.33249,-0.63423 -0.56621,-1.30543 -0.70978,-1.99692c-2.68193,-0.32538 -4.26346,-0.07035 -5.92175,-3.87903c-0.06184,-0.14203 -0.10911,-0.2868 -0.14412,-0.43385c-2.48168,-0.05138 -5.47256,-0.35819 -7.13941,-1.83066c-4.3559,-3.84796 -3.71618,-9.37971 -0.75692,-13.60189c0.10176,-0.53106 0.25683,-1.1109 0.47119,-1.74354c0.74924,-2.21128 3.61127,-3.02017 5.6875,-4.08807c1.65399,-0.85072 5.54951,-0.8542 7.34432,-0.94046c1.1314,0.15063 2.35411,-0.01815 3.39421,0.4519c0.98606,0.44561 2.29409,0.80349 3.32921,1.3503z" fill="#6f6f6f" stroke-width="0.5"/><path d="M261.7873,183.16287l-0.71936,8.03291l-8.03291,-0.71936l0.71936,-8.03291z" fill="#af4c00" stroke-width="NaN"/><path d="M227.84129,193.57379l7.67709,2.47135l-2.47135,7.67709l-7.67709,-2.47135z" fill="#af4c00" stroke-width="NaN"/><path d="M276.27072,204.92102l2.93528,7.51195l-7.51195,2.93528l-2.93528,-7.51195z" fill="#af4c00" stroke-width="NaN"/><path d="M235.32162,172.04472l-7.75842,2.20276l-2.20275,-7.75843l7.75842,-2.20276z" fill="#af4c00" stroke-width="NaN"/></g></g></svg>