<svg version="1.1" xmlns="http://www.w3.org/2000/svg" xmlns:xlink="http://www.w3.org/1999/xlink" width="279.70272" height="61.55809" viewBox="0,0,279.70272,61.55809"><g transform="translate(95.11291,-98.6032)"><g data-paper-data="{&quot;isPaintingLayer&quot;:true}" fill-rule="nonzero" stroke="none" stroke-linecap="butt" stroke-linejoin="miter" stroke-miterlimit="10" stroke-dasharray="" stroke-dashoffset="0" style="mix-blend-mode: normal"><g><g data-paper-data="{&quot;index&quot;:null}" fill="#fbfbfb"><path d="M-95.11291,153.62948v-54.97136h268.54299v54.97136z" stroke-width="NaN"/><path d="M164.85202,126.06142c0,-15.16476 4.41845,-27.45822 9.86889,-27.45822c5.45045,0 9.8689,12.29347 9.8689,27.45822c0,15.16476 -4.41847,27.45822 -9.8689,27.45822c-5.45045,0 -9.86889,-12.29347 -9.86889,-27.45822z" stroke-width="0"/></g><g data-paper-data="{&quot;index&quot;:null}" fill="#f6f6f6"><path d="M-87.84385,152.91295v-29.55227h258.76908v29.55227z" stroke-width="NaN"/><path d="M162.65938,138.09253c0,-8.15248 4.25764,-14.76137 9.50972,-14.76137c5.25208,0 9.5097,6.60888 9.5097,14.76138c0,8.15248 -4.25762,14.76137 -9.5097,14.76137c-5.25208,0 -9.50972,-6.60888 -9.50972,-14.76137z" stroke-width="0"/></g></g><path d="M-4.98248,153.4992v-29.789h173.62503v29.789z" fill="#f6f6f6" stroke-width="NaN"/><text transform="translate(5.55765,112.32437) scale(0.24518,0.24518)" font-size="40" xml:space="preserve" fill="#2f2c33" fill-rule="nonzero" stroke="none" stroke-width="1" stroke-linecap="butt" stroke-linejoin="miter" stroke-miterlimit="10" stroke-dasharray="" stroke-dashoffset="0" font-family="Pixel" font-weight="normal" text-anchor="start" style="mix-blend-mode: normal"><tspan x="0" dy="0">Dica: Você pode se movimentar</tspan><tspan x="0" dy="46.150000000000006px">enquanto o chefe ataca. Use</tspan><tspan x="0" dy="46.150000000000006px">a seu favor para desviar dos</tspan><tspan x="0" dy="46.150000000000006px">mísseis letais.</tspan><tspan x="0" dy="46.150000000000006px"> </tspan></text></g></g></svg>