<svg version="1.1" xmlns="http://www.w3.org/2000/svg" xmlns:xlink="http://www.w3.org/1999/xlink" width="42.47206" height="68.34457" viewBox="0,0,42.47206,68.34457"><g transform="translate(-218.76274,-111.57644)"><g data-paper-data="{&quot;isPaintingLayer&quot;:true}" fill-rule="nonzero" stroke-linejoin="miter" stroke-miterlimit="10" stroke-dasharray="" stroke-dashoffset="0" style="mix-blend-mode: normal"><path d="M240.50255,144.38744l-0.09885,-29.26737" fill="none" stroke="#eeeeee" stroke-width="2.5" stroke-linecap="round"/><path d="M260.82577,120.35949c-0.92038,1.49759 -1.84078,0 -1.84078,0l0.02729,-0.51352c-1.91335,-0.52751 -3.4559,-2.1572 -5.30628,-2.61196c-3.08164,-1.6764 -6.20943,-1.41086 -9.42012,-1.41086c-5.09201,0 -10.1501,0.00988 -15.16645,1.44096c-3.35453,0.95698 -5.63644,3.6293 -9.05507,3.71564c0,0 -1.30162,0 -1.30162,-2.11789c0,-2.11789 1.30162,-2.11789 1.30162,-2.11789c3.06657,0.10089 5.49153,-2.76252 8.60175,-3.65096c5.16223,-1.47461 10.37952,-1.50569 15.61977,-1.50569c3.41739,0 6.76364,-0.24016 10.04764,1.53581c1.8309,0.53463 3.24312,2.04905 5.10672,2.54469l1.3855,1.6965c0,0 0.92038,1.49758 0,2.99515z" fill="#dcdcdc" stroke="none" stroke-width="0.5" stroke-linecap="butt"/><path d="M250.20407,136.04206c-1.10379,1.21066 -2.20757,0 -2.20757,0l-0.13727,-0.2748c-6.15243,-3.37924 -9.71222,-3.4364 -15.9783,0c0,0 -1.3962,0.7657 -2.09428,-0.7657c-0.69809,-1.53137 0.69809,-2.29708 0.69809,-2.29708c7.1327,-3.91167 11.74128,-3.84872 18.77069,0l0.94864,0.91624c0,0 1.10379,1.21066 0,2.42134z" fill="#eeeeee" stroke="none" stroke-width="0.5" stroke-linecap="butt"/><path d="M219.83803,121.31475l17.43043,22.68328" fill="none" stroke="#dcdcdc" stroke-width="2" stroke-linecap="round"/><path d="M242.70133,144.43848l17.43043,-22.90352" fill="none" stroke="#dcdcdc" stroke-width="2" stroke-linecap="round"/><path d="M237.75867,179.75001v-32.125h4.43035v32.125z" fill="#7e7e7e" stroke="none" stroke-width="0" stroke-linecap="butt"/><path d="M240.9249,179.83545v-32.125h1.27623v32.125z" fill="#747474" stroke="none" stroke-width="0" stroke-linecap="butt"/><path d="M237.21643,179.91542v-17.82777h5.38952v17.82777z" fill="#646464" stroke="none" stroke-width="0" stroke-linecap="butt"/><path d="M240.09147,179.921v-17.82776h2.44137v17.82777z" fill="#515151" stroke="none" stroke-width="0" stroke-linecap="butt"/></g></g></svg>