<svg version="1.1" xmlns="http://www.w3.org/2000/svg" xmlns:xlink="http://www.w3.org/1999/xlink" width="159.62777" height="157.83544" viewBox="0,0,159.62777,157.83544"><g transform="translate(-160.18611,-101.08228)"><g data-paper-data="{&quot;isPaintingLayer&quot;:true}" fill-rule="nonzero" stroke-linejoin="miter" stroke-miterlimit="10" stroke-dasharray="" stroke-dashoffset="0" style="mix-blend-mode: normal"><path d="M294.56906,147.35034c-0.48614,-0.85166 -0.9948,-1.69144 -1.53813,-2.5078c-1.86002,-2.22693 -3.48505,-4.46621 -5.40353,-6.60431c-0.34659,-0.38627 -0.844,-1.29646 -1.45812,-1.46186c-0.91352,-0.24603 -1.93695,0.28769 -2.83822,0c-1.06973,-0.34147 -1.64518,-1.56533 -2.62955,-2.10563c-2.23322,-1.22577 -5.25601,-1.46341 -7.77887,-1.09698c0,0 -1.23744,0.17678 -1.41421,-1.06066c-0.02539,-0.17771 -0.02161,-0.33354 0.00348,-0.47011c-2.30065,-3.78273 -1.50812,-10.07385 -0.81773,-14.2552l0.19832,-1.98323c0.05599,-0.63854 0.5921,-1.13937 1.24517,-1.13937c0.39906,0 0.75444,0.187 0.9833,0.47815l0.80371,1.00463l-0.03368,0.02695c0.05329,0.05057 0.10522,0.10269 0.15562,0.15657c0.50725,0.54223 0.24111,2.20152 1.3827,2.1865c1.57573,-0.02073 2.0328,-2.50118 1.99119,-4.63253c-0.03888,-0.08941 -0.08012,-0.17786 -0.12399,-0.26523c-0.37372,-0.74422 -1.12106,-1.33271 -1.26856,-2.15233c-0.0147,-0.08167 -0.02522,-0.16346 -0.03209,-0.24536l-0.02739,0.00391l-0.19969,-1.39782c-0.01027,-0.06451 -0.0156,-0.13066 -0.0156,-0.19806c0,-0.69036 0.55964,-1.25 1.25,-1.25c0.29902,0 0.57352,0.105 0.78864,0.28013l1.00588,0.8047l-0.07509,0.09387l0.28897,0.12527c0.34815,0.79972 0.62238,1.89251 0.7594,3.08558c0.43455,1.1428 0.67727,2.4809 0.87435,3.2345c0.0238,0.091 0.05332,0.19722 0.0859,0.31365c0.13549,-0.75397 0.30483,-1.43406 0.33481,-1.53481c1.43762,-4.83058 4.016,-9.35953 7.57279,-12.85702l0.20328,-0.04117l-0.03141,-0.06281l1.19389,-0.59694c0.1737,-0.09145 0.37156,-0.14321 0.58151,-0.14321c0.69036,0 1.25,0.55964 1.25,1.25c0,0.12924 -0.01961,0.2539 -0.05603,0.37116l-0.39753,1.39135l-0.19283,-0.05509c-0.2167,1.58473 -0.56521,3.09803 -0.78481,4.75059c-0.0648,0.48768 -0.24403,0.95438 -0.40546,1.41911c-0.09243,0.26609 -0.61678,0.66578 -0.35403,0.76731c0.19624,0.07583 3.09151,-0.8765 3.09239,-0.87689c3.15665,-1.39646 6.83541,-2.47345 7.74845,-6.05845v-1.50636c0,-0.69036 0.55964,-1.25 1.25,-1.25c0.69036,0 1.25,0.55964 1.25,1.25v1.62184h-0.08748c0.01496,0.04614 0.02976,0.0923 0.04441,0.13848l0.03371,0.01425c-0.00431,0.01715 -0.00865,0.03425 -0.01303,0.05131c0.88266,2.81385 1.17239,5.68695 1.22811,8.71846c0.23817,-0.35114 0.51291,-0.6773 0.8064,-0.96906l0.11667,-0.04705l-0.01756,-0.02634l1.81035,-1.2069c0.20119,-0.1384 0.44493,-0.21942 0.7076,-0.21942c0.69036,0 1.25,0.55964 1.25,1.25c0,0.05286 -0.00328,0.10495 -0.00965,0.15609l-0.20072,1.80652l-0.04191,-0.00466c-0.01095,0.12191 -0.02847,0.24343 -0.05387,0.36447c-0.30346,1.44648 -1.87317,2.31145 -2.56047,3.6199c-0.82706,1.57452 -1.4906,3.74003 -1.62666,5.4906c-0.0396,0.50951 0.91499,-0.45879 1.39112,-0.64443c0.41295,-0.16101 4.65571,-1.71539 4.87695,-1.63708c3.18421,1.12708 1.13497,7.12996 -0.01224,8.7305c-0.13799,0.19251 0.3495,-0.32463 0.55212,-0.4473c0.45394,-0.2748 0.92347,-0.52692 1.40938,-0.74016c1.17434,-0.51534 2.46706,-0.75004 3.74083,-0.89898c0.84671,0.392 3.27768,1.3187 3.45826,2.40782c0.26243,1.5828 -1.57967,2.73886 -2.62562,3.35358c-2.48927,1.463 -5.07734,2.53884 -7.34755,4.35501c-0.34689,0.27751 -2.71535,1.59535 -2.79711,1.89579c-0.30933,1.13677 3.17456,2.13784 3.99869,2.17767l1.04099,-0.347c0.1321,-0.04749 0.27451,-0.07337 0.42297,-0.07337c0.69036,0 1.25,0.55964 1.25,1.25c0,0.20995 -0.05176,0.4078 -0.14321,0.58151l-0.59694,1.19389l-0.36184,-0.18092c-2.75338,5.51526 -10.76062,6.50563 -16.50708,4.87841l-0.97736,-1.04835c0,0 -0.08461,-0.16923 -0.12216,-0.40893z" fill="#e00000" stroke="none" stroke-width="0.5" stroke-linecap="butt"/><path d="M290.79091,142.40535l-0.51871,-0.52653c-2.41667,-2.90001 -4.06378,-6.14106 -7.84721,-7.20592c0,0 -0.36477,-0.10422 -0.65161,-0.39567c-0.45657,-0.34462 -0.53218,-0.94951 -0.53218,-0.94951c-0.23592,-2.1729 0.20952,-3.3683 0.67637,-5.47828l0.43073,-1.93827c0.12348,-0.61574 0.66723,-1.07959 1.31932,-1.07959c0.41914,0 0.79352,0.19164 1.04031,0.49207l0.86364,1.03637c0.04474,-0.02136 0.08877,-0.04986 0.132,-0.0862c0.61149,-0.51412 0.70057,-1.43318 1.01637,-2.17041l0.19578,-1.37049c0.08389,-0.66256 0.64956,-1.1749 1.33489,-1.1749c0.66144,0 1.21142,0.47724 1.32438,1.10616l0.42575,2.12874c0.10614,0.28136 -0.40135,0.67559 -0.18486,0.88514c0.18347,0.17758 0.33921,-0.38992 0.55189,-0.53121c0.98887,-0.65695 3.76418,-2.32609 4.85581,-0.64453c0.65076,1.00245 -0.33223,2.39926 -0.81955,3.49055c-0.18872,0.4226 -0.86569,1.10386 -1.37262,1.52649c0.81807,-0.037 2.28634,0.41047 2.9719,-0.08881c0.57965,-0.42214 0.82085,-1.44988 1.53568,-1.50646c3.78104,-0.29926 3.78421,3.29052 3.16775,5.96657c1.66278,0.47228 3.55697,2.15967 3.26268,3.26507c-0.28218,1.05989 -1.79752,1.29939 -2.82093,1.69387c-2.79406,1.077 -5.13348,0.74525 -7.26414,3.44486l-0.3676,0.56053c0,0 -0.74641,1.11962 -1.86604,0.37321c-0.26682,-0.17788 -0.42766,-0.37695 -0.51788,-0.57702c-0.21193,-0.11584 -0.34191,-0.24582 -0.34191,-0.24582z" fill="#fd9f00" stroke="none" stroke-width="0.5" stroke-linecap="butt"/><path d="M263.13596,179.85125c-1.26661,1.67132 -2.30173,3.47034 -3.80035,4.98348c-2.40027,2.42352 -4.7593,4.04527 -7.04294,6.67688c-1.47013,1.69413 -3.16678,3.17759 -4.75378,4.76277c-0.69333,0.69254 -1.0082,1.83084 -1.89519,2.24747c-0.11021,0.05177 -0.2215,0.10042 -0.33375,0.14625l0.04955,0.07433l-2.11493,1.40995c-0.40239,0.27681 -0.88987,0.43883 -1.41519,0.43883c-0.19136,0 -0.37769,-0.0215 -0.55673,-0.06221c-1.8636,2.68222 -3.12637,5.35399 -5.49598,7.86406c-2.64508,2.80187 -5.50565,3.82968 -8.51706,5.98315c-1.38395,0.98967 -2.06724,2.70881 -3.21822,3.96182c-2.41161,2.62538 -5.74575,4.32286 -8.28005,6.85572c-0.50265,0.50236 -0.98691,1.03275 -1.4577,1.58207c-1.11386,2.27057 -2.25533,4.53109 -3.4852,6.77563c-0.73646,1.34405 -1.05536,3.14733 -2.36547,3.9426c-6.90891,4.19386 -6.09089,1.2461 -6.47517,-2.69113c-4.01708,-1.72983 -7.25297,-8.23768 -6.07493,-11.85864c0.39784,-1.22285 1.70207,-1.93953 2.40537,-3.0161c0.39443,-0.60377 0.80508,-1.19648 1.22397,-1.78356c-0.82643,0.66829 -1.64018,1.3506 -2.39535,2.09681c-2.79872,2.76549 -2.00681,4.72886 -7.08992,4.26063c-2.04418,-0.1883 -4.83569,-2.91508 -6.28653,-4.15068c0,0 -1.89814,-1.62698 -0.27116,-3.52512c1.00534,-1.17289 2.11421,-0.99982 2.81481,-0.69634c0.33808,-1.48714 1.32366,-2.89558 2.22498,-3.9916c0.59071,-0.71832 1.51621,-1.09941 2.14337,-1.78614c4.01197,-4.39303 7.3324,-9.74536 12.09169,-13.50293c1.58855,-1.2542 3.3918,-2.22608 4.94381,-3.52523c1.95322,-1.66207 3.43441,-3.81336 5.25322,-5.62152c5.43299,-5.40119 12.82284,-9.21699 18.21954,-14.64721c4.21391,-4.24009 8.18249,-8.90086 12.45325,-13.16907c1.23418,-1.23344 4.09814,-4.25731 5.54436,-4.86368c1.9958,-0.83679 4.15083,-0.53684 6.18207,0.15013l0.04004,-0.28029l2.46421,0.35203c1.19722,0.15158 2.13043,1.14985 2.1807,2.37587c0.90386,0.17041 1.71522,0.35858 2.33734,0.52293c1.35985,0.35926 2.98539,0.35355 4.00798,1.31924c1.0556,0.99687 1.03736,2.7151 1.65532,4.02893c0.74253,1.57867 3.51663,5.40338 3.41673,6.66173c-0.14472,1.82301 -2.17729,3.20582 -3.92144,4.20524c-0.04521,0.5671 -0.27966,1.08088 -0.64019,1.47815l-3.20864,3.56515l-0.07407,-0.06666c-0.08692,0.12949 -0.17669,0.25728 -0.26958,0.38323c-0.01276,0.0173 -0.08807,0.06372 -0.21277,0.13306zM204.66317,228.36172c-0.00762,0.03252 -0.0123,0.06431 -0.01426,0.09541l0.39277,-0.58916c-0.21626,0.22229 -0.35561,0.396 -0.37851,0.49374zM200.60028,225.84554c0.05383,-0.07631 0.10929,-0.15184 0.16623,-0.22663l-0.2609,-0.03261c0.02455,0.08666 0.05658,0.17322 0.09467,0.25925zM200.53657,224.78995c-0.08317,0.19243 -0.10189,0.39201 -0.07413,0.59303z" fill="#aaaaaa" stroke="none" stroke-width="0.5" stroke-linecap="butt"/><path d="M266.94992,157.35048c-0.01875,-0.02358 -0.03751,-0.04717 -0.05626,-0.07075l-0.01616,0.02425l-2.1111,-1.4074c-0.51793,-0.33449 -0.9043,-0.85523 -1.06438,-1.46748c-0.03029,-0.00866 -0.06087,-0.01784 -0.09174,-0.02757c-1.82869,-0.57616 -3.35535,-1.88995 -5.15454,-2.5525c0,0 -2.34082,-0.87781 -1.46301,-3.21863c0.07509,-0.20025 0.16089,-0.37694 0.25502,-0.53265c-0.08068,-3.21038 5.80921,-5.09984 7.81982,-7.14464c0.54508,-0.55435 0.76645,-1.36262 1.26332,-1.96057c1.47167,-1.77107 2.70708,-4.01086 4.80247,-4.96574c4.93252,-2.24776 10.83982,1.67248 14.81818,4.03121c1.11895,0.66341 2.52236,0.93647 3.42194,1.87611c0.86246,0.90088 1.0722,2.25213 1.60831,3.3782c0.65453,2.34552 1.36123,3.81309 0.80785,6.34133c-0.90542,4.13655 -4.75061,6.64074 -7.32872,9.68674c-2.00216,2.36553 -4.24795,5.84787 -7.02159,5.09436l0.09295,0.83654c0.01274,0.10227 0.0193,0.20646 0.0193,0.31218c0,1.38071 -1.11929,2.5 -2.5,2.5c-1.05134,0 -1.9511,-0.64897 -2.32056,-1.56816l-1.04899,-2.44764c-0.68981,-1.61731 -1.2323,-3.42658 -1.94387,-5.13477c-0.08667,-0.03909 -0.17071,-0.08297 -0.25179,-0.13131l-2.46248,-1.40713l0.01595,-0.02791zM276.68762,153.67826c0.04525,0.03796 0.09044,0.07594 0.13543,0.11402l0.09495,-0.28484z" fill="#828282" stroke="none" stroke-width="0.5" stroke-linecap="butt"/><path d="M179.77206,224.28851h2.57886v0.1737c0.24628,-0.03754 0.49514,-0.06077 0.74713,-0.06644c2.09477,-0.04712 3.6139,2.05785 5.39762,3.12393c1.75459,1.04867 4.09123,1.40633 5.36859,2.97481c0.67084,0.82373 1.07152,1.81358 1.24698,2.87272c1.13248,0.6394 2.1394,1.43197 2.86461,2.55313c0.88167,1.36305 2.40537,2.89319 1.95112,4.44071c-0.44506,1.51619 -2.63067,1.86227 -4.03459,2.65718c-1.51034,0.85516 -3.261,1.29625 -4.7028,2.25622c-2.65616,1.76851 -3.34002,3.67526 -7.46496,2.45456c-3.35125,-0.99174 -4.00143,-5.0049 -6.29201,-6.83645c-1.01305,-0.81004 -2.8059,-0.55118 -3.92348,-0.53002c0,0 -2.57824,0 -2.57824,-2.5c0,-1.70292 1.19628,-2.24587 1.9591,-2.41897c-1.10667,-2.35542 -0.92061,-5.08915 1.52905,-6.91141l0.27946,-0.94843c0.28931,-1.07387 1.29655,-1.86634 2.49469,-1.86634c0.08202,0 0.16315,0.00371 0.24322,0.01098c0.41138,-0.85072 1.30256,-1.43989 2.33564,-1.43989z" fill="#828282" stroke="none" stroke-width="0.5" stroke-linecap="butt"/><path d="M167.97398,255.99942c0,0 -1.16972,2.20947 -3.37919,1.03975c-2.20947,-1.16972 -1.03975,-3.37919 -1.03975,-3.37919c1.71112,-3.21704 3.08448,-10.09067 6.45418,-12.10057c3.69695,-2.20509 7.75082,-0.16961 10.07052,2.70232c0.93877,1.16226 2.74018,2.15568 2.6097,3.64401c-0.15431,1.76011 -1.86028,3.11977 -3.29328,4.15335c-0.84103,0.60661 -4.14727,0.68321 -5.49771,0.74197l-2.099,1.13023c-0.36238,0.20444 -0.78088,0.3211 -1.22662,0.3211c-0.56494,0 -1.08611,-0.18739 -1.50475,-0.50339c-0.34382,0.76038 -0.70501,1.51237 -1.09409,2.25043z" fill="#565656" stroke="none" stroke-width="0.5" stroke-linecap="butt"/><path d="M207.66531,214.92722c1.89814,1.62698 0.27116,3.52512 0.27116,3.52512l-1.78835,2.07656c-0.06053,0.02144 -0.12105,0.04289 -0.18158,0.06433l0.05109,0.05838l-2.21352,1.93683c-0.44092,0.38989 -1.02051,0.62653 -1.65537,0.62653c-0.21977,0 -0.43291,-0.02836 -0.63598,-0.08161c-1.41807,1.91387 -2.81803,3.673 -5.09565,5.04576c0,0 -2.18539,1.21411 -3.3995,-0.97128c-1.2141,-2.18539 0.97128,-3.3995 0.97128,-3.3995c2.66188,-1.26864 4.16387,-4.76623 6.19644,-7.14262l1.61292,-2.15057c0.45492,-0.62044 1.18914,-1.02328 2.01746,-1.02328c0.73188,0 1.3903,0.3145 1.8475,0.81572c0.57453,-0.11155 1.26805,-0.00957 2.00211,0.61963z" fill="#565656" stroke="none" stroke-width="0.5" stroke-linecap="butt"/><path d="M264.11136,159.30128c2.23607,1.11803 1.11803,3.3541 1.11803,3.3541l-0.89359,1.62026l-1.6564,1.93247c-0.45858,0.54156 -1.1435,0.88536 -1.90872,0.88536c-0.56302,0 -1.08256,-0.18611 -1.50047,-0.50017c-3.83132,3.9758 -7.3642,8.26806 -11.68963,11.64238c0,0 -1.97338,1.53485 -3.50823,-0.43853c-1.53485,-1.97338 0.43852,-3.50823 0.43852,-3.50823c4.51888,-3.50307 8.10965,-8.13712 12.18599,-12.2107l1.60943,-1.87768c0.45858,-0.54156 1.1435,-0.88536 1.90872,-0.88536c0.42582,0 0.82677,0.10646 1.17769,0.29421c0.54964,-0.50118 1.45586,-0.93949 2.71864,-0.3081z" fill="#565656" stroke="none" stroke-width="0.5" stroke-linecap="butt"/><path d="M250.7693,152.64681c0,-2.5 2.5,-2.5 2.5,-2.5l1.91573,0.01241c9.43182,1.15161 17.96337,9.86467 18.91236,19.22756c0,0 0.20761,2.49136 -2.28375,2.69898c-2.49136,0.20761 -2.69898,-2.28375 -2.69898,-2.28375c-0.38378,-6.65062 -7.63269,-14.21997 -14.42715,-14.6676l-1.41822,0.01241c0,0 -2.5,0 -2.5,-2.5z" fill="#565656" stroke="none" stroke-width="0.5" stroke-linecap="butt"/><path d="M252.88818,149.76079c-0.43172,1.94864 -1.27916,4.38493 -1.36707,4.5962c0,0 -2.03069,4.56905 -6.59975,2.53836c-4.56906,-2.03069 -2.53836,-6.59975 -2.53836,-6.59975c1.8673,-3.74899 0.24974,-7.96637 4.44099,-11.15326c1.55123,-1.17951 3.89091,-0.22617 5.83636,-0.33926l4.29289,6.02143c0,0 0,4.35546 -4.06506,4.93627z" fill="#565656" stroke="none" stroke-width="0.5" stroke-linecap="butt"/><path d="M280.85196,183.36839c-1.94509,1.9451 -3.89019,1.74998 -5.24656,1.18082c-2.79582,1.45333 -5.68381,2.35211 -9.36304,2.42701c0,0 -5,0 -5,-5c0,-5 5,-5 5,-5c1.70841,0.0651 3.03407,-0.31352 4.28792,-0.92794v-0.14493c0,-2.76143 2.23858,-5 5,-5c0.39409,0 0.77754,0.0456 1.14535,0.1318c0.79576,-0.53444 1.75354,-0.84625 2.78416,-0.84625c2.76142,0 5,2.23857 5,5c0,0.76179 -0.17036,1.48378 -0.47506,2.12997l-1.38479,3.11578l-0.19446,-0.08643c-0.08833,0.94735 -0.51711,1.98377 -1.55352,3.02018z" fill="#565656" stroke="none" stroke-width="0.5" stroke-linecap="butt"/><path d="M192.65221,206.98217c0,3.59706 -2.58777,4.60635 -4.03996,4.88955c-0.2832,1.45219 -1.29248,4.03996 -4.88954,4.03996c-5,0 -5,-5 -5,-5c0,-1.54799 0,-3.09598 0,-4.64397v-2.5006c0,-2.76143 2.23857,-5 5,-5c2.16135,0 4.00241,1.37138 4.70049,3.29147c1.40277,0.23152 4.22902,1.16443 4.22902,4.92358z" fill="#565656" stroke="none" stroke-width="0.5" stroke-linecap="butt"/><path d="M223.07226,232.72248c2.48069,4.34122 -1.86052,6.82191 -1.86052,6.82191l-1.94632,1.06123c-0.87479,0.76806 -1.56024,1.83215 -2.62435,2.30418c-1.37446,0.6097 -2.95628,0.55136 -4.43441,0.82704c0,0 -4.96139,0.62018 -5.58156,-4.34122c-0.62017,-4.96139 4.34122,-5.58156 4.34122,-5.58156c0.83374,0.07326 1.72806,-0.48515 2.22916,-1.15551l3.05487,-1.79659c0,0 4.34121,-2.48069 6.82191,1.86052z" fill="#565656" stroke="none" stroke-width="0.5" stroke-linecap="butt"/><path d="M179.7256,220.02152l91.71428,-87" fill="none" stroke="#393939" stroke-width="5" stroke-linecap="round"/><path d="M258.92337,142.6469c0.73469,0.21461 1.7308,0.79655 1.7308,2.37462c0,2.5 -2.5,2.5 -2.5,2.5l-2.19634,-0.73224c-1.85288,-1.85736 -4.05684,-5.49231 -7.05501,-5.70262c-1.8707,-0.13122 -1.80273,4.15247 -2.04823,5.01086c-0.33098,1.15727 -0.97897,2.21198 -1.27301,3.37919c-0.73676,2.9247 -0.34245,6.34869 -1.34844,9.21329c-0.93914,2.67424 -2.70084,5.86642 -3.98576,8.44955c0,0 -1.11803,2.23607 -3.35411,1.11803c-2.23607,-1.11803 -1.11803,-3.35411 -1.11803,-3.35411c1.22495,-2.43569 2.81094,-5.31893 3.72853,-7.83616c0.95646,-2.62387 0.55385,-6.09122 1.22298,-8.78671c0.29815,-1.20102 0.95876,-2.28801 1.29842,-3.47796c0.7346,-2.5736 -0.00439,-4.32559 2.31006,-6.63907c3.2951,-3.2937 7.91284,-1.87488 11.10491,0.62806c1.36307,1.06879 2.3308,2.55622 3.48323,3.85526z" fill="#393939" stroke="none" stroke-width="0.5" stroke-linecap="butt"/><path d="M275.84416,170.20915c-0.66937,-0.09445 -2.18999,-0.52358 -2.18999,-2.47334c0,-2.5 2.5,-2.5 2.5,-2.5l1.75356,0.38c2.35001,1.48092 4.6972,3.08666 6.53782,5.16698c0.78228,0.88416 1.73711,1.70999 2.14594,2.81749c2.30553,6.24555 -3.50469,10.82227 -8.93852,12.40892c-1.0677,0.31176 -2.23386,-0.0833 -3.33621,0.06502c-2.29237,0.30844 -4.57477,0.8157 -6.75473,1.58893c-2.4265,0.86069 -4.83182,1.92466 -7.3835,2.26763c0,0 -2.4807,0.31009 -2.79078,-2.1706c-0.31008,-2.48069 2.17061,-2.79078 2.17061,-2.79078c2.20088,-0.2487 4.24106,-1.28407 6.33078,-2.01808c4.3519,-1.5286 9.00477,-1.01254 12.88182,-3.24326c0.88679,-0.51023 3.15399,-1.23722 3.51656,-2.66813c0.6563,-2.59012 -4.28478,-5.54287 -6.44337,-6.83078z" fill="#393939" stroke="none" stroke-width="0.5" stroke-linecap="butt"/><path d="M196.29381,206.91358c-0.60634,2.42535 -3.0317,1.81902 -3.0317,1.81902l-2.87571,-1.08616c-0.84325,-0.88093 -1.90438,-1.5959 -2.52977,-2.6428c-0.48138,-0.80585 -0.78489,-4.00697 -1.97074,-4.88091c-0.6573,-0.48441 -1.55658,-0.49621 -2.32064,-0.78417c-0.261,-0.09837 -0.57305,-0.58909 -0.74913,-0.37278c-0.82409,1.01231 -0.42486,2.57595 -0.61992,3.86663c-0.58265,3.85522 0.1369,7.77347 -0.43145,11.58958c-0.29876,2.00597 -0.8438,4.00011 -0.82486,6.02812c0,0 0,2.5 -2.5,2.5c-2.5,0 -2.5,-2.5 -2.5,-2.5c0.0174,-2.2955 0.52782,-4.56213 0.88943,-6.82903c0.7518,-4.713 -0.8709,-9.79094 0.92572,-14.44535c0.59476,-1.54082 0.96176,-3.42823 2.30863,-4.38416c2.13057,-1.51216 7.31945,0.1964 8.93022,1.41448c2.95203,2.23236 2.3755,5.51661 4.92806,7.90485l0.55285,-0.22902c0,0 2.42536,0.60634 1.81902,3.03169z" fill="#393939" stroke="none" stroke-width="0.5" stroke-linecap="butt"/><path d="M212.06818,228.23095c0.79057,-2.37171 3.16227,-1.58113 3.16227,-1.58113l1.61318,0.56421c2.67864,1.35859 8.67813,1.85207 9.79989,5.23069c1.18195,3.55988 -1.56008,6.14008 -3.99911,7.68264c-2.15858,1.36518 -4.84919,1.70078 -7.3755,2.07617c-1.78739,0.26558 -3.35458,1.45478 -5.14286,1.71429c-0.27224,0.0395 -5.51674,0.03229 -6.40045,0.03229c0,0 -2.5,0 -2.5,-2.5c0,-2.5 2.5,-2.5 2.5,-2.5c1.86655,0 3.751,0.29091 5.59955,0.03228c1.78958,-0.25038 3.35817,-1.43103 5.14285,-1.71428c0.93045,-0.14767 1.91141,0.26026 2.82608,0.03459c0.96958,-0.23921 1.79383,-0.88231 2.65557,-1.387c0.76381,-0.44735 2.46615,-0.9929 2.00089,-1.74593c-0.22251,-0.36014 -0.82476,-0.19136 -1.23631,-0.29052c-2.10267,-0.50661 -4.16759,-1.23501 -6.10665,-2.19307l-0.95825,-0.29293c0,0 -2.3717,-0.79057 -1.58113,-3.16228z" fill="#393939" stroke="none" stroke-width="0.5" stroke-linecap="butt"/><path d="M195.3387,230.3038c-1,-0.75 -0.25,-1.75 -0.25,-1.75l0.74992,-0.97895c2.62149,-2.61445 6.60062,-4.93866 8.57917,-7.93677c0.28151,-0.28303 2.36291,-2.05682 2.25713,-2.68478c-0.07794,-0.46271 -1.30298,-2.72014 -2.22783,-2.15667c-0.98407,0.59955 -1.93402,2.41263 -2.91801,3.22033c-2.94254,2.41533 -6.6842,5.57475 -8.58042,8.94927c0,0 -0.62017,1.0853 -1.70548,0.46513c-1.08531,-0.62017 -0.46513,-1.70547 -0.46513,-1.70547c2.09871,-3.62281 5.96011,-7.02809 9.16606,-9.64228c1.0307,-0.84045 2.25155,-3.06552 3.42002,-3.54024c2.56184,-1.04081 5.69615,1.62703 5.80033,4.18136c0.07389,1.81157 -1.67217,3.36379 -2.8133,4.49832c-2.07401,3.08194 -6.04907,5.41726 -8.74477,8.11957l-0.51769,0.71119c0,0 -0.75,1 -1.75,0.25z" fill="#393939" stroke="none" stroke-width="0.5" stroke-linecap="butt"/><path d="M272.63033,172.18211c-0.30317,1.21268 -1.51585,0.90951 -1.51585,0.90951l-1.80815,-0.74051c-1.00806,-1.40491 -0.79302,-2.91369 -1.71052,-4.22932c-1.10676,-1.587 -2.24477,-3.09191 -3.32771,-4.71373c-0.56296,-0.8431 -1.29789,-3.02147 -2.19404,-3.57304c-2.96499,-1.82492 -7.4398,-3.41738 -11.21577,-3.37583c0,0 -1.25,0 -1.25,-1.25c0,-1.25 1.25,-1.25 1.25,-1.25c4.14149,0.0358 9.47757,1.5864 12.67755,3.84773c1.90001,1.34268 3.17773,4.81704 4.24842,6.79172c0.45537,0.83983 1.38032,1.34441 1.89865,2.14693c0.92899,1.43834 0.57754,2.80167 1.62342,4.10555l0.41449,-0.18484c0,0 1.21268,0.30316 0.90951,1.51584z" fill="#393939" stroke="none" stroke-width="0.5" stroke-linecap="butt"/><path d="M266.70127,161.02542c0.55901,1.11803 -0.55902,1.67705 -0.55902,1.67705l0.04592,-0.37596c-2.73928,6.72116 -11.12869,9.04931 -15.44782,14.4638c-1.29516,1.62362 -0.777,3.34126 -3.43801,4.05768c-2.35136,0.63305 -3.68282,-1.16755 -5.28078,-2.48298c-0.98283,-4.09115 0.67841,-4.79776 3.18222,-7.61236c2.41707,-2.71709 5.59376,-4.46385 8.11849,-7.00966c1.12877,-1.1382 2.13526,-2.51022 3.47304,-3.45042c1.52567,-1.07226 2.21375,-1.27923 3.34267,-2.79207c0,0 0.75,-1 1.75,-0.25c1,0.75 0.25,1.75 0.25,1.75c-1.22539,1.62663 -2.26668,2.19506 -3.88089,3.32018c-1.23612,0.86158 -2.14722,2.17768 -3.19487,3.21748c-2.51233,2.4935 -5.61937,4.20642 -7.99561,6.8818c-1.5622,1.75886 -3.18773,2.22777 -2.93002,4.61213c0.71886,0.44903 1.58733,1.75391 2.49844,1.40662c1.71855,-0.65508 1.10331,-1.89955 2.11857,-3.16588c0.47681,-0.59472 1.27642,-0.8384 1.86787,-1.31925c2.34469,-1.90623 4.27853,-4.50426 6.7629,-6.18287c2.61171,-1.76465 5.28163,-3.29821 6.48262,-6.37266l1.15724,-0.93162c0,0 1.11804,-0.55902 1.67705,0.55902z" fill="#393939" stroke="none" stroke-width="0.5" stroke-linecap="butt"/><path d="M216.42601,224.24526c-3.67629,4.2767 -7.32276,8.44869 -11.89486,11.89405c0,0 -2,1.5 -3.5,-0.5c-1.5,-2 0.5,-3.5 0.5,-3.5c3.6893,-2.75196 6.68707,-6.05332 9.63795,-9.46202c0.2454,-0.82595 0.90559,-1.3541 0.90559,-1.3541l0.83987,-0.67189c0.38524,-0.44729 0.77185,-0.89493 1.16123,-1.34193c3.04372,-3.49408 7.04323,-6.0573 10.08794,-9.57062c3.56145,-4.10959 6.52953,-8.35145 10.40963,-12.22722c4.53347,-5.13779 11.04699,-7.80388 16.25961,-12.10887c1.0667,-0.88097 2.10758,-1.80857 3.13013,-2.76672c1.15354,-1.54979 2.30511,-3.09455 3.47801,-4.60252c1.44156,-1.85337 2.25987,-4.13993 4.53275,-5.32049c0.07345,-0.03815 0.14724,-0.07549 0.22136,-0.11206l-0.02314,-0.03471l3.85154,-2.56769c0.40239,-0.27681 0.88986,-0.43884 1.41519,-0.43884c1.38071,0 2.5,1.11929 2.5,2.5c0,0.57191 -0.19204,1.09897 -0.51515,1.52021l-1.53684,2.04912l-0.06121,-0.04591l-0.05015,0.18392c-3.59573,3.60904 -7.1197,7.51693 -10.89729,10.99462c-3.23338,4.54621 -6.632,9.02439 -10.79326,12.76874c-1.60325,1.44262 -3.53937,2.50277 -5.06078,4.03145c-4.9712,4.99491 -9.34838,10.20885 -15.50943,13.84661c-3.29534,1.9721 -6.0312,4.39002 -9.02319,6.7845z" fill="#959595" stroke="none" stroke-width="0.5" stroke-linecap="butt"/><path d="M236.28208,195.73765c3.00416,0.82067 3.27018,-2.21895 3.49455,-4.61739c-1.03001,-3.20358 -4.61234,-6.95496 -8.20214,-7.59417c-1.75816,-0.31306 -5.0862,2.17442 -5.61682,3.79155c-0.3859,1.17602 0.51038,2.50203 0.98231,3.48882c0,0 0.38181,0.80109 -0.14184,1.39929c-0.11285,0.3325 -0.32694,0.55451 -0.32694,0.55451c-0.23695,0.24571 -2.80506,2.56084 -2.61383,2.83312c0.22056,0.31405 0.46976,0.88207 0.84129,0.78593c0.49971,-0.1293 0.79834,-0.98506 1.2959,-0.84764c0.81282,0.2245 1.34831,1.0455 1.85662,1.71834c0.35111,0.46477 -0.11373,1.78237 0.46069,1.68569c0.56619,-0.0953 1.10774,-0.88664 1.61085,-0.60998c0.75027,0.4126 0.85599,2.93667 1.30908,2.21013c0.95828,-1.53653 1.36185,-3.11705 2.71317,-4.53677l0.11664,-0.12096c0,0 0.76782,-0.7962 1.6243,-0.22077zM223.49044,186.42913c0.87921,-2.86993 5.56241,-5.94908 8.47553,-5.49597c4.83613,0.75217 9.15392,5.60202 10.41658,9.89413c-0.24633,4.22822 -1.60279,8.68342 -6.74445,7.45241l-0.15955,-0.01742c-0.89168,1.3034 -1.76641,3.86099 -2.70481,4.39469c-1.79334,1.01988 -3.52001,0.44129 -4.45138,-1.25718c-0.07343,0.10861 -0.16026,0.17491 -0.28368,0.14403c-0.7969,-0.19944 -1.41227,-0.89302 -1.93374,-1.52776c-0.40554,-0.49361 0.13344,-2.24528 -0.38841,-1.87679c-2.22058,1.568 -5.1992,-1.09102 -4.1859,-3.92068c0.32145,-0.89761 1.83213,-2.12484 2.72191,-2.95601c-0.7268,-1.5389 -1.31985,-3.01269 -0.76206,-4.83344zM228.58232,200.89824c0.16509,-0.16517 0.31925,-0.28285 0.19567,-0.2132c-0.07879,0.04441 -0.14123,0.12206 -0.19567,0.2132z" fill="#cfcfcf" stroke="none" stroke-width="0.5" stroke-linecap="butt"/><path d="M230.9904,190.90717c-0.1162,0.28299 -0.35966,0.55663 -0.84416,0.69825c-1.25849,0.36787 -1.62637,-0.89062 -1.62637,-0.89062c-0.05773,-0.19833 -0.14943,-0.49319 -0.24775,-0.83095c-0.0214,-0.05659 -0.03735,-0.11322 -0.04875,-0.16934c-0.25665,-0.90164 -0.52716,-2.02889 -0.34423,-2.46668c0.74956,-1.79414 2.77059,-2.95356 4.5024,-1.34719c1.8846,1.74812 0.49366,4.63812 -1.39111,5.00652z" fill="#cfcfcf" stroke="none" stroke-width="0.5" stroke-linecap="butt"/><path d="M237.80711,190.01494c1.66815,1.6724 0.58278,3.73413 -1.18299,4.54831c-0.43087,0.19864 -1.56717,-0.03077 -2.47754,-0.25454c-0.0565,-0.00934 -0.11368,-0.02326 -0.17099,-0.04259c-0.34109,-0.08598 -0.63909,-0.16696 -0.83939,-0.21744c0,0 -1.27102,-0.32198 -0.94903,-1.593c0.12395,-0.48932 0.38856,-0.74253 0.66717,-0.86893c0.29977,-1.89692 3.13743,-3.39175 4.95275,-1.5718z" data-paper-data="{&quot;index&quot;:null}" fill="#cfcfcf" stroke="none" stroke-width="0.5" stroke-linecap="butt"/><path d="M292.46302,144.92631c1.64626,1.88144 -0.23518,3.52771 -0.23518,3.52771l-1.04177,0.83963c-4.53114,6.01327 -10.58076,10.64794 -15.45248,16.34979c0,0 -1.62698,1.89814 -3.52512,0.27116c-1.89814,-1.62698 -0.27116,-3.52512 -0.27116,-3.52512c4.81238,-5.59819 10.82164,-10.16118 15.24876,-16.09583l1.74925,-1.60252c0,0 1.88145,-1.64626 3.52771,0.23518z" fill="#717171" stroke="none" stroke-width="0.5" stroke-linecap="butt"/><path d="M294.56517,151.34465c-2.46598,0.411 -2.87698,-2.05499 -2.87698,-2.05499l-0.34005,-2.20932c-1.11489,-2.22977 -1.18865,-4.99613 -2.91066,-6.81645c-4.42021,-4.67256 -10.14084,-5.59952 -16.14046,-5.59952c0,0 -2.5,0 -2.5,-2.5c0,-2.5 2.5,-2.5 2.5,-2.5c7.25273,0 14.71992,1.45996 19.85955,7.25762c2.40249,2.71008 2.40703,5.53322 3.94648,8.61213l0.5171,2.93354c0,0 0.411,2.46599 -2.05499,2.87699z" fill="#393939" stroke="none" stroke-width="0.5" stroke-linecap="butt"/><path d="M205.01131,239.30724l89.14286,-89.14286" fill="none" stroke="#393939" stroke-width="5" stroke-linecap="round"/><path d="M274.61772,167.64687c0.36284,0.11591 0.82822,0.41324 0.82822,1.17595c0,1.25 -1.25,1.25 -1.25,1.25l-1.27783,-0.5c-1.46564,-2.00745 -1.45934,-4.40057 -2.8156,-6.44259c-1.60307,-2.41361 -4.02844,-3.99813 -6.17177,-5.86541c-1.73087,-1.50795 -3.41624,-3.69159 -5.80746,-4.16214c-1.27947,-0.25178 -2.89825,0.02256 -4.20889,0.02256c0,0 -1.25,0 -1.25,-1.25c0,-1.25 1.25,-1.25 1.25,-1.25c1.46386,0 3.25069,-0.26681 4.68166,0.02256c2.91658,0.58978 4.86317,2.87383 6.97269,4.72839c2.29559,2.01815 4.87673,3.7687 6.60838,6.35908c1.24496,1.86235 1.28755,4.10622 2.44058,5.91161z" fill="#393939" stroke="none" stroke-width="0.5" stroke-linecap="butt"/><path d="M200.93382,237.03477c1.38675,2.08013 -0.69338,3.46687 -0.69338,3.46687l-2.36125,1.56508c-1.91137,0.88842 -3.63568,2.42224 -5.72775,2.6789c-0.03104,0.00381 -0.06209,0.00742 -0.09314,0.01083l0.00897,0.02331l-2.32486,0.89418c-0.29314,0.12066 -0.61426,0.18721 -0.95093,0.18721c-0.12804,0 -0.25383,-0.00962 -0.37669,-0.02819c-0.58345,0.3557 -1.16521,0.72019 -1.74746,1.09473c0,0 -2.10294,1.35189 -3.45484,-0.75106c-1.3519,-2.10294 0.75105,-3.45484 0.75105,-3.45484c2.77616,-1.7836 5.53848,-3.33237 8.49535,-4.80071l0.24592,0.01859l-0.02642,-0.09247l2.50577,-0.71594c0.23452,-0.07282 0.48385,-0.11205 0.74233,-0.11205c0.15922,0 0.31497,0.01488 0.46591,0.04334l1.07452,-0.72116c0,0 2.08012,-1.38675 3.46687,0.69338z" fill="#727272" stroke="none" stroke-width="0.5" stroke-linecap="butt"/><path d="M202.80188,243.8218c-2.37171,0.79057 -3.16228,-1.58114 -3.16228,-1.58114l-0.85714,-2.57143c-1.3783,-4.30474 -4.08434,-5.94616 -7.35612,-8.71436c-2.40041,-2.03094 -4.85069,-5.37255 -8.05669,-6.37425c-1.43237,-0.44753 -3.00054,0.08375 -4.50119,0.08375c0,0 -2.5,0 -2.5,-2.5c0,-2.5 2.5,-2.5 2.5,-2.5c0.66522,0 5.43648,-0.02233 5.78453,0.08375c4.10061,1.24983 6.8471,4.71995 9.9433,7.34004c4.02665,3.40745 7.13834,5.78343 8.92959,10.99993l0.85714,2.57143c0,0 0.79057,2.3717 -1.58114,3.16227z" fill="#393939" stroke="none" stroke-width="0.5" stroke-linecap="butt"/><path d="M164.58391,252.49222c0.4436,-0.99216 1.36037,-1.80667 2.55265,-2.49946c3.60736,-2.0961 9.73677,-3.0779 12.91345,-4.49425c1.3774,-0.61413 3.03187,-1.15252 4.02527,0.83428c0.92958,1.85915 -0.06116,2.52404 -1.11803,3.3541c-2.35443,1.84917 -9.19637,4.66421 -12.33285,4.42021c-0.95953,-0.07465 -3.39579,1.85618 -4.36177,0.74709z" fill="#484848" stroke="none" stroke-width="0.5" stroke-linecap="butt"/><path d="M161.76223,258.3902c-2.32119,-0.92847 -1.39272,-3.24967 -1.39272,-3.24967l0.55495,-1.16775c0.74714,-5.72544 3.84403,-10.58656 6.29269,-15.76045c1.47808,-3.12311 2.01209,-6.35594 3.64294,-9.42635c1.91591,-3.60709 4.88595,-7.0301 7.33478,-10.297c0,0 1.5,-2 3.5,-0.5c2,1.5 0.5,3.5 0.5,3.5c-2.31195,3.08084 -5.13485,6.3138 -6.95435,9.70777c-1.56747,2.92386 -2.0893,6.13228 -3.50161,9.1495c-2.16818,4.63204 -5.2485,9.13522 -5.85306,14.24669l-0.87396,2.40453c0,0 -0.92847,2.32119 -3.24966,1.39271z" fill="#393939" stroke="none" stroke-width="0.5" stroke-linecap="butt"/><path d="M202.68186,239.6549c1.76776,1.76776 0,3.53554 0,3.53554l-1.4527,1.38404c-4.74239,3.15778 -9.85052,5.1022 -15.1732,7.05467c-3.39803,1.24647 -6.3202,3.30146 -9.79323,4.3358c-4.1207,1.22722 -8.51105,2.06923 -12.7245,2.91275c0,0 -2.45146,0.49029 -2.94174,-1.96116c-0.49029,-2.45145 1.96116,-2.94174 1.96116,-2.94174c4.07577,-0.81432 8.28789,-1.6456 12.28145,-2.80289c3.34056,-0.96806 6.2217,-3.02598 9.49707,-4.23768c4.94292,-1.8286 9.71363,-3.57896 14.11949,-6.51999l0.69066,-0.75933c0,0 1.76777,-1.76776 3.53553,0z" fill="#393939" stroke="none" stroke-width="0.5" stroke-linecap="butt"/><path d="M183.35586,251.56604c-1.21268,0.30317 -1.51585,-0.90951 -1.51585,-0.90951l-0.38519,-1.57935c-0.00484,-0.81819 0.54799,-1.75261 0.1226,-2.45154c-0.41711,-0.68533 -2.49844,-1.55517 -3.17621,-2.03919c-1.26993,-0.90689 -2.75495,-2.51879 -4.25566,-3.03083c-1.24495,-0.42478 -3.31413,0.04536 -4.66753,0.04536c0,0 -1.25,0 -1.25,-1.25c0,-1.25 1.25,-1.25 1.25,-1.25c1.57446,0 3.84552,-0.44355 5.33486,0.04536c2.40075,0.78809 5.15433,3.2616 7.17562,4.82818c0.62796,0.4867 1.43902,0.83865 1.82498,1.53309c0.17553,0.31582 0.12699,2.66685 0.1226,3.26411l0.32927,1.27847c0,0 0.30317,1.21268 -0.90951,1.51585z" fill="#393939" stroke="none" stroke-width="0.5" stroke-linecap="butt"/></g></g></svg>