<svg version="1.1" xmlns="http://www.w3.org/2000/svg" xmlns:xlink="http://www.w3.org/1999/xlink" width="133.57963" height="169.86239" viewBox="0,0,133.57963,169.86239"><g transform="translate(-173.2102,-95.06882)"><g data-paper-data="{&quot;isPaintingLayer&quot;:true}" fill-rule="nonzero" stroke="none" stroke-width="0.5" stroke-linecap="butt" stroke-linejoin="miter" stroke-miterlimit="10" stroke-dasharray="" stroke-dashoffset="0" style="mix-blend-mode: normal"><path d="M174.9178,140.48998c-0.11264,-0.03754 -0.21814,-0.07866 -0.31695,-0.12292c0.02101,-0.54072 0.03609,-1.05579 0.03609,-1.5345c0,-4.96323 0,-9.92646 0,-14.88969c-0.04617,-1.6526 -0.4113,-3.39842 0.29581,-4.86139c2.23933,-4.63309 6.77963,-1.77558 10.20123,-2.68205c1.02928,-0.27268 1.82305,-1.17472 2.85714,-1.42857c3.12174,-0.76633 6.84724,-0.20251 10,-0.71428c2.19303,-0.35598 1.69078,-1.22792 2.92674,-2.72328c1.64503,-1.99027 3.37474,-3.95109 5.39639,-5.5574c3.50165,-2.78225 4.99913,-3.0645 8.92135,-4.59823c0.79021,-0.01071 6.238,-0.13277 6.91152,0.06216c2.77114,0.80202 4.64535,4.15508 7.20897,5.02102c0.87914,0.29695 1.85311,-0.10955 2.78086,-0.12829c3.70007,-0.07473 7.53916,0.28629 11.22237,0.00851c1.34248,-0.10125 2.65375,-0.45593 3.98284,-0.67042c0.62458,-0.1008 1.42187,0.16315 1.87789,-0.27537c0.88698,-0.85295 0.93304,-2.33937 1.77469,-3.23708c1.1042,-1.17776 2.40325,-2.29567 3.92306,-2.84022c4.16504,-1.49232 9.82155,0.57623 14.18956,-0.1565c3.11633,-0.52276 5.94736,-2.23934 9.0577,-2.79666c0.22335,-0.04002 6.02931,-0.03228 6.82903,-0.03228c5.67856,0 10.5168,0.10318 15.86736,2.29814c2.85951,1.17306 6.1781,2.74957 5.91352,6.78577c-0.32548,4.96525 -4.20113,4.61432 -7.49517,4.48751c-0.4733,-0.01822 -0.89724,-0.7458 -1.31861,-0.52948c-0.32905,0.16893 0.18985,0.71697 0.23942,1.08352c0.11996,0.88714 0.18781,1.78061 0.26842,2.67219c0.15749,1.74161 0.2859,6.79742 1.43221,8.55717c0.65979,1.01287 2.22859,1.17896 2.88984,2.19088c0.74557,1.14097 0.89824,2.58858 1.11284,3.93455c0.92321,5.79027 -2.17122,10.08557 -2.85714,15.61091c-0.22529,1.81481 -0.07304,3.65674 -0.10956,5.48511c-1.0439,1.38309 -1.75842,3.0925 -3.1317,4.14929c-0.71643,0.55132 -5.94362,0.66865 -6.133,2.21318c-0.6458,5.26709 4.05136,8.91667 5.07499,13.87508c0.61999,3.00321 0.12751,8.5258 -0.83087,11.25027c-0.49757,1.41448 -1.66999,2.51252 -2.24964,3.8954c-1.80949,4.31696 -3.4832,10.95119 -4.0488,15.56025c-0.21393,1.7433 0.3453,3.55718 -0.04814,5.26892c-0.55093,2.39689 -2.15342,4.83419 -4.54397,5.76914l0.32417,0.15442c-1.76504,1.9011 -3.94219,3.45496 -5.41194,5.59258c-2.89676,4.2131 0.54507,6.65863 -4.04038,11.24374c-1.03562,1.03555 -2.7584,0.98525 -4.1376,1.47787c-4.22878,2.40697 -10.68536,3.86094 -14.12506,7.49495c-1.08622,1.14758 -1.58309,7.37302 -1.68349,7.72406c-0.93237,3.25982 -3.99161,5.08129 -5.07658,8.06843c-0.44176,1.21623 -0.22804,2.64363 -0.8198,3.79436c-0.55156,1.07254 -1.68655,1.72593 -2.48422,2.63052c-2.73278,3.09909 -3.17484,5.54248 -8.00379,5.08173c-1.1923,-0.11377 -2.09969,-1.15752 -3.10293,-1.81176c-4.25855,-2.77713 -4.25615,-6.23998 -4.82799,-11.09029c-0.14135,-1.19893 -0.12476,-6.51602 -2.59911,-7.25156c-1.01972,-0.30313 -2.12606,0.08228 -3.1891,0.12342c-2.04486,-0.98472 -4.43157,-1.22268 -6.37165,-2.40048c-4.20233,-2.55116 -7.173,-9.94205 -8.32736,-14.39097c-0.23833,-0.91853 -0.05486,-1.92878 -0.37525,-2.822c-0.38434,-1.07152 -2.29335,-0.08013 -3.39555,-0.36478c-3.04219,-0.78568 -6.03238,-1.87575 -6.91996,-5.30186c-0.47862,-1.8475 -0.08818,-3.81606 -0.10727,-5.72446c-0.04997,-4.99562 -0.04855,-10.00437 0,-15c0.01404,-1.44447 0.38397,-2.91822 0.09071,-4.33267c-0.54937,-2.64972 -2.62542,-3.04621 -4.62528,-4.25868c-3.74997,-2.2735 -7.11888,-4.19129 -10.16961,-7.37186c-1.78642,-8.06402 0.11468,-16.09754 -0.94322,-24.17669c-0.06853,-0.52341 -0.11619,-1.19524 -0.55976,-1.48142c-0.67279,-0.43408 -1.65234,-0.04654 -2.36725,-0.40704c-1.34917,-0.68033 -5.28565,-3.86066 -6.10107,-5.31132c-1.55915,-2.77378 -1.20435,-7.07962 -1.07487,-10.41153c-1.98145,-0.88759 -1.26419,-3.03936 -1.26419,-3.03936l0.62001,-1.76328c0.64585,-3.82652 0.5543,-7.16915 0.68027,-11.01758c0.00653,-0.19946 0.00567,-0.40101 0,-0.60397c0,-0.03677 0,-0.07354 0,-0.11031c0,0 0,-2.5 2.5,-2.5c1.157,0 1.77855,0.53546 2.11244,1.11076c-0.33921,4.62104 0.41957,9.20655 -0.36074,13.94309l-0.80856,2.52242c0,0 -0.79057,2.37171 -3.16228,1.58114z" fill="#b97e11"/><path d="M243.20057,262.5956c-0.03009,0.7593 -0.35569,1.798 -1.8054,2.2122c-2.40381,0.6868 -3.09062,-1.71701 -3.09062,-1.71701c-1.92737,-6.8531 -2.99317,-14.91728 1.98056,-20.93774c0.82993,-1.00458 2.0231,-1.76411 3.27022,-2.14179c0.97296,-0.29466 2.18957,0.78582 3.04107,0.23046c0.96512,-0.62947 1.04459,-2.06118 1.4305,-3.14689c1.65415,-4.65367 0.25909,-11.559 4.0956,-15.30376c0.14848,-0.14493 5.0717,-0.33369 6.04773,-0.91307c1.26325,-0.74987 2.16323,-2.01996 3.42228,-2.77687c2.75243,-1.6547 8.57494,-3.35523 9.60128,-7.20199c0.32672,-1.22456 -0.07304,-2.53373 -0.10956,-3.8006c0.30309,-1.18769 0.40398,-2.44631 0.90927,-3.56307c0.22812,-0.50418 1.23793,-0.57857 1.21486,-1.13147c-0.02695,-0.64559 -1.16458,-0.79153 -1.3213,-1.4184c-0.02866,-0.11465 -0.22077,-7.11676 -0.04039,-7.72741c0.45015,-1.52391 2.68156,-5.77441 4.07119,-7.43916c0.07684,-0.09205 2.64839,-1.93877 2.32718,-2.98835c-0.22348,-0.73022 -1.19836,-1.0983 -1.35798,-1.84508c-1.19819,-5.60579 -0.10727,-12.83852 -0.10727,-18.5816c0,-1.66366 0.45765,-3.36348 0.10727,-4.98982c-0.27935,-1.29668 -2.87711,-2.16557 -3.22224,-2.85576c-0.7805,-1.56086 -1.58139,-3.4791 -1.02667,-5.13371c0.55042,-1.64178 2.59915,-2.2887 3.89873,-3.43304c1.37942,-0.68144 2.8779,-1.16192 4.13827,-2.04433c1.0774,-0.75431 1.73242,-2.00485 2.78039,-2.79955c0.93436,-0.70855 2.27109,-0.83249 3.10126,-1.66067c1.23922,-1.23624 0.04841,-3.50599 0.24171,-5.24571c0.24187,-2.1769 0.94443,-4.35377 0.71429,-6.53194c-0.18066,-1.70983 -0.64369,-3.39337 -1.23359,-5.00836c-0.44466,-1.21734 -2.02967,-2.31069 -1.61269,-3.53778c0.90534,-2.66425 4.85559,-3.47531 5.81298,-6.12131c0.23483,-0.64901 -0.12484,-1.3764 -0.12829,-2.06658c-0.00356,-0.71179 0.28146,-1.44253 0.10727,-2.13268c-0.7835,-3.10431 -9.02876,-6.71149 -5.43408,-11.34705c3.59279,-4.63313 9.58281,-0.22241 13.13667,1.19913c0.90013,0.45482 1.7989,0.91232 2.70037,1.36446c1.43919,0.72185 3.8929,0.60555 4.32158,2.15751c1.61588,5.84995 -2.79945,4.70487 -5.1774,5.80217c-1.11659,0.51525 -0.38313,2.44109 -0.36869,3.67074c0.02513,2.14059 -1.01309,4.69438 0.25782,6.41703c1.20636,1.63515 3.73189,2.19563 4.55187,4.05484c1.45903,3.30815 -0.19612,7.02474 -1.45198,9.82524c-0.74489,1.66105 -0.09479,3.68072 -0.60784,5.42736c-0.77934,2.65316 -2.1955,2.31021 -2.81675,4.84992c-0.4063,1.66099 -0.3604,3.44997 -0.04039,5.12973c0.25011,1.31282 1.99827,2.59053 1.36765,3.76881c-0.80218,1.49882 -3.05507,1.4921 -4.58261,2.23815c-0.49302,0.12034 -0.97796,0.31883 -1.46863,0.46189c0.27338,0.47409 0.50125,0.99471 0.79956,1.44028c2.34132,3.49715 4.75931,8.54326 3.88403,12.8255c-0.43836,2.14464 -3.38907,4.92165 -2.22589,7.60455c0.37119,0.85614 1.67658,1.05933 2.03735,1.91992c0.6861,1.63666 1.10404,3.46722 0.96257,5.23623c-0.13986,1.74892 -1.87246,3.08251 -2.11406,4.8203c-0.17423,1.25321 0.41145,2.74109 -0.30577,3.78343c-0.99723,1.44929 -2.83544,2.09407 -4.35195,2.98574c-0.55433,0.32593 -1.71365,0.00825 -1.819,0.64262c-0.12161,0.73229 1.2212,0.99562 1.42858,1.70838c0.26563,0.913 -0.10868,7.60863 -0.12342,7.95966c-0.95586,1.03984 -1.81845,2.17386 -2.86759,3.11951c-1.11378,1.00391 -3.05234,1.08015 -3.82714,2.36391c-0.50727,0.84047 -0.16984,2.04027 -0.71429,2.85715c-0.45909,0.68881 -1.7158,0.606 -2.08702,1.34588c-0.67058,1.33652 -0.01022,3.14548 -0.80269,4.41354c-0.53283,0.8526 -2.0923,0.48994 -2.74149,1.25764c-0.34166,0.40403 0.38579,1.01385 0.37338,1.54282c-0.04017,1.71197 0.45993,3.71229 -0.52949,5.10996c-1.12538,1.58974 -4.92123,1.42986 -6.67342,2.17632c-1.57957,0.67292 -2.70602,2.18452 -4.28571,2.85715c-0.75867,0.32305 -1.74103,0.01606 -2.42841,0.47154c-0.60228,0.39909 -0.58886,1.35739 -1.10093,1.86709c-1.08217,1.07716 -3.25117,2.01754 -4.46851,3.02273c-0.88736,0.73272 -1.49147,1.82369 -2.49608,2.385c-0.6813,0.38066 -1.65371,-0.09795 -2.32112,0.30656c-1.05767,0.64104 0.38824,2.44783 0.7135,3.64106c-0.05719,1.37311 0.32834,2.83916 -0.17157,4.11931c-0.73441,1.88065 -2.59573,3.09602 -3.801,4.71576c-0.31412,0.42213 -1.00239,0.65837 -1.04537,1.18279c-0.08019,0.97841 0.93998,1.90174 0.71429,2.85714c-1.06572,4.51135 -5.47032,5.42377 -9.25683,6.1935z" fill="#a8720f"/><path d="M223.98077,190.64055c-0.86013,-0.1459 -1.46874,-0.75451 -1.46874,-0.75451c-3.51546,-3.51546 -6.3961,-6.84093 -9.50362,-10.68403c-1.151,-1.42346 -2.76352,-2.49193 -3.67946,-4.07688c-0.66498,-1.15068 -0.43719,-2.64101 -0.91867,-3.87973c-0.34354,-0.88385 -1.34327,-1.47162 -1.52321,-2.40266c-0.45831,-2.37139 -0.2547,-7.80194 0.82475,-10.31632c0.51288,-1.19466 1.57817,-2.06874 2.2985,-3.15104c0.79406,-1.1931 1.02852,-2.90509 2.24087,-3.66945c1.18094,-0.74454 2.77739,-0.29932 4.17147,-0.37337c5.11912,-0.27194 9.23613,0.94541 13.90178,3.08586c1.14256,0.52417 1.97584,1.69503 3.19413,2.00485c2.32286,0.59072 4.79301,-0.09071 7.18981,-0.09071c4.94425,0 10.34012,-0.58877 15.24635,0.01217c2.4648,0.3019 6.22857,0.86817 7.67213,3.45104c0.65823,1.17774 0.26111,2.68803 0.29581,4.03679c0.12919,5.02045 -1.8721,7.96961 -2.91805,12.69133c-0.14217,0.64179 -1.22499,4.05032 -0.84369,4.92339c0.35367,0.80981 1.57804,0.98828 1.95979,1.78524c0.90088,1.88071 1.9655,3.92438 1.76966,6.0005c-0.15392,1.63171 -1.71152,2.80426 -2.72194,4.09469c-1.57183,2.00743 -3.34269,3.92153 -5.42686,5.3901c-2.92117,2.05835 -5.175,1.86746 -7.03263,4.69756c-0.74806,3.09883 0.34738,7.13987 -3.2495,9.04995c-3.60476,1.91426 -4.82706,-0.31322 -7.70527,-1.26807c-1.1523,-0.38227 -2.44159,-0.27001 -3.57143,-0.71429c-1.43641,-0.56483 -3.11666,-1.03342 -4.03257,-2.27577c-2.13955,-2.90211 -1.3307,-9.59192 -1.22752,-12.94606c0.01958,-0.63635 0.40054,-1.2995 0.1903,-1.90043c-0.63435,-1.8132 -3.66721,-1.40595 -5.09736,-2.68843c-0.0117,-0.01049 -0.02331,-0.02106 -0.03483,-0.03171z" fill="#a8720f"/><path d="M229.56993,118.79852c-1.74568,0.25203 -3.17656,1.58566 -4.87817,2.04979c-4.43691,1.2102 -8.62902,-0.70202 -13.07206,1.15473c-2.64018,1.10333 -3.00293,2.15917 -5.59302,3.63125c-0.82851,0.47088 -1.88088,0.51148 -2.64878,1.07582c-2.88552,2.12059 -3.09496,4.66317 -6.83763,6.15874c-2.70435,1.08066 -5.81548,0.65224 -8.41507,1.69683c-3.37467,1.35604 -6.10776,4.24496 -8.747,6.59175c0,0 -0.99421,0.88374 -2.17683,0.63674c-0.22027,0.01592 -0.46238,0.00507 -0.72841,-0.03928c-2.46598,-0.411 -2.05499,-2.87698 -2.05499,-2.87698c0.93835,-5.5058 -0.35264,-11.06777 1.30107,-16.48567c0.41368,-1.35532 0.41235,-3.02589 1.4425,-3.99895c4.14256,-3.91296 9.88174,1.53081 14.79233,0.91978c3.28581,-0.40886 3.92796,-2.91276 6.53242,-4.65079c0.798,-0.53253 1.85368,-0.53192 2.71595,-0.95249c1.80002,-0.87795 2.61098,-1.95533 4.01441,-3.36703c2.57724,-2.06674 5.13491,-5.29709 8.14802,-6.66996c3.38992,-1.54454 9.54457,-1.76189 12.75027,0.15615c4.3228,2.58643 7.27577,7.32324 12.87636,6.84763c0.96281,-0.27854 1.93035,-0.55635 2.90526,-0.83635c0.05583,-0.02321 0.11197,-0.04667 0.16835,-0.07036l0.51562,-0.47774c0,0 0.72089,-0.48059 1.59682,-0.45155c0.73795,-0.33528 1.29239,-0.5952 1.38592,-0.63249c2.56268,-1.02165 5.02441,-1.1729 7.2357,-2.93586c1.2582,-1.00311 1.39645,-2.95541 2.49066,-4.13523c1.19851,-1.29229 2.89025,-2.01794 4.33538,-3.02691c3.10228,0.2989 7.85101,1.87894 10.97953,1.21895c1.01795,-0.21474 5.13831,-2.17547 5.99312,-2.43925c1.43169,-0.44179 2.93313,-0.63826 4.37117,-1.05382c0.19629,-0.18394 1.85625,-1.64144 3.51621,0.01852c1.76776,1.76776 0,3.53553 0,3.53553l-1.39386,1.02061c-1.66028,0.54844 -3.41596,0.76475 -5.08763,1.27743c-2.22843,0.68343 -4.21799,2.12032 -6.50688,2.56074c-3.36476,0.64744 -7.41188,-0.50794 -10.68714,-1.28105c-2.41969,1.84109 -2.2186,3.99192 -4.84062,6.17119c-2.71145,2.2536 -5.47775,2.47846 -8.59763,3.73081c-1.60969,0.64614 -4.83406,2.35981 -6.75355,2.63689c-0.16943,0.02446 -0.35122,0.0437 -0.5436,0.05797c-3.51892,1.02043 -6.96733,2.06232 -10.50422,3.23392zM281.45554,95.68541c0.01819,-0.00602 0.03636,-0.0121 0.05452,-0.01821z" fill="#cd8c12"/><path d="M216.5684,232.30667c-1.76776,1.76776 -3.53554,0 -3.53554,0l-1.30164,-1.48307c-0.94559,-1.94512 -1.41779,-4.10248 -1.82332,-6.22691c-0.12617,-0.66099 -0.03487,-1.5483 -0.58827,-1.93116c-0.48973,-0.33882 -1.18679,0.46778 -1.76005,0.3065c-3.77688,-1.0626 -3.66473,-1.92997 -5.71891,-4.8688c-0.6521,-1.19644 -1.60603,-2.2725 -1.95629,-3.58933c-0.55747,-2.09578 0.40978,-4.3223 0.78187,-6.45879c0.27486,-1.57818 -0.15416,-3.20912 -0.02376,-4.80575c0.34813,-4.26268 1.02175,-8.47537 -0.65155,-12.58709c-1.56563,-3.84713 -3.89876,-3.63027 -7.15808,-5.39559c-4.7782,-2.58799 -6.8844,-5.63179 -8.3527,-10.70765c0,0 -0.6868,-2.40381 1.71701,-3.09061c2.40381,-0.6868 3.09061,1.71701 3.09061,1.71701c0.27006,0.9591 0.84824,3.58106 1.62369,4.53178c2.48937,3.05201 6.55361,3.18526 9.51761,5.37692c2.31737,1.71353 3.09714,3.095 4.18126,5.65473c2.053,4.84739 1.4457,9.85564 1.01512,14.91291c-0.11608,1.36339 0.17912,3.92844 -0.02376,5.19425c-0.2245,1.40063 -1.38314,2.82622 -0.8848,4.37454c0.26888,0.83541 0.91803,1.496 1.37704,2.24401c0.88393,1.43564 0.91824,2.26808 2.61443,2.6312c1.06077,0.22709 2.4103,-0.39242 3.23995,0.3065c3.35971,2.83035 2.48152,6.75832 4.25508,10.17526l0.36503,0.1836c0,0 1.76776,1.76777 0,3.53554z" fill="#cd8c12"/></g></g></svg>