<svg version="1.1" xmlns="http://www.w3.org/2000/svg" xmlns:xlink="http://www.w3.org/1999/xlink" width="111.9073" height="104.9887" viewBox="0,0,111.9073,104.9887"><g transform="translate(-186.35608,-127.22392)"><g data-paper-data="{&quot;isPaintingLayer&quot;:true}" fill-rule="nonzero" stroke="none" stroke-width="0.5" stroke-linecap="butt" stroke-linejoin="miter" stroke-miterlimit="10" stroke-dasharray="" stroke-dashoffset="0" style="mix-blend-mode: normal"><path d="M227.27002,131.44227c2.08283,-1.09732 4.90538,-1.74001 6.41022,-2.15841c4.57208,-1.27122 8.92396,-1.5572 13.58763,-1.48651c3.29001,0.04987 5.97308,-0.27765 8.81149,3.0655c3.88623,4.57729 2.56187,11.76935 2.24881,17.44367c-0.54201,9.82409 -0.34465,20.03959 -0.34465,29.88275c0,10.86381 0.35463,21.58595 -0.00765,32.45425c-0.10874,3.26222 0.34428,11.67902 -0.73018,14.53037c-0.98465,2.61301 -2.69273,4.91248 -4.67348,6.40391c-1.3166,0.99135 -3.05553,0.44748 -4.58988,0.57106c-3.48538,0.28071 -6.89247,-0.45684 -10.35961,-0.44596c-0.49782,0.00156 -5.45012,0.01058 -5.61211,-0.04677c-2.15242,-0.76207 -4.70407,-1.15538 -6.18794,-3.24572c-2.04512,-2.88098 -1.05897,-13.10879 -1.05897,-16.77419c0,-12.88024 0.38269,-25.66245 0.00317,-38.57595c-0.11237,-3.82367 0.50856,-8.45905 0.04515,-12.28956c-0.92931,-7.68168 -3.02784,-14.77546 -3.60007,-22.59861c0,0 -0.45268,-6.2163 4.52679,-6.78142c0.56715,-0.06437 1.07556,-0.04076 1.53128,0.05161z" fill="#98ff66"/><path d="M290.26117,167.27002c1.11586,2.08283 1.76943,4.90538 2.1949,6.41022c1.29271,4.57208 1.58353,8.92396 1.51164,13.58763c-0.05072,3.29001 0.28235,5.97307 -3.11732,8.81149c-4.65467,3.88623 -11.9683,2.56187 -17.73854,2.24881c-9.99016,-0.542 -20.37835,-0.34464 -30.38789,-0.34464c-11.04745,0 -21.95084,0.35464 -33.00286,-0.00765c-3.31736,-0.10874 -11.87644,0.34428 -14.77599,-0.73018c-2.65718,-0.98465 -4.99553,-2.69273 -6.51217,-4.67348c-1.00811,-1.3166 -0.45505,-3.05553 -0.58071,-4.58988c-0.28545,-3.48538 0.46457,-6.89247 0.4535,-10.35961c-0.00159,-0.49782 -0.01077,-5.45012 0.04755,-5.61211c0.77495,-2.15242 1.17492,-4.70407 3.30059,-6.18794c2.92968,-2.04512 13.33038,-1.05897 17.05774,-1.05897c13.09797,0 26.09626,0.38269 39.22805,0.00317c3.8883,-0.11237 8.60205,0.50856 12.49731,0.04515c7.81154,-0.92931 15.02522,-3.02784 22.98062,-3.60007c0,0 6.32139,-0.45268 6.89606,4.52679c0.06545,0.56715 0.04144,1.07556 -0.05249,1.53128z" data-paper-data="{&quot;index&quot;:null}" fill="#98ff66"/><path d="M228.34741,191.35092c0,5 -5,5 -5,5h-2.14337c-9.01836,0 -18.35498,-0.69199 -27.31162,0.32665c0,0 -4.96942,0.55216 -5.52158,-4.41726c-0.55216,-4.96942 4.41726,-5.52158 4.41726,-5.52158c9.34806,-1.01806 19.01019,-0.38781 28.41594,-0.38781h2.14337c0,0 5,0 5,5z" fill="#8be85d"/><path d="M257.6401,225.6448c0,5 -5,5 -5,5h-1.78614c-6.91557,0 -13.81781,-0.74913 -20.71922,-0.71446c0,0 -5,0 -5,-5c0,-5 5,-5 5,-5c6.90845,0.02705 13.80108,0.71446 20.71922,0.71446h1.78614c0,0 5,0 5,5z" fill="#8be85d"/><path d="M293.00567,192.77983c0,5 -5,5 -5,5h-1.07168c-6.02114,0 -12.21067,0.41609 -18.21584,-0.01258c-2.4529,-0.1751 -4.67956,-0.71634 -7.14734,-0.70188c0,0 -5,0 -5,-5c0,-5 5,-5 5,-5c2.70008,0.0119 5.18911,0.53637 7.85623,0.72703c5.76545,0.41216 11.72463,-0.01258 17.50695,-0.01258h1.07168c0,0 5,0 5,5z" fill="#8be85d"/><path d="M279.8031,128.23535c0.57639,-0.30366 1.35748,-0.48152 1.77392,-0.5973c1.26525,-0.35179 2.46956,-0.43093 3.76015,-0.41137c0.91045,0.0138 1.65295,-0.07684 2.43843,0.84833c1.07545,1.26669 0.70895,3.25697 0.62232,4.82725c-0.14999,2.71866 -0.09537,5.54563 -0.09537,8.26956c0,3.00638 0.09814,5.97355 -0.00212,8.98118c-0.03009,0.90277 0.09527,3.23197 -0.20207,4.02104c-0.27248,0.72311 -0.74517,1.35945 -1.29331,1.77218c-0.36435,0.27434 -0.84557,0.12383 -1.27017,0.15803c-0.96452,0.07768 -1.90738,-0.12642 -2.86685,-0.12341c-0.13776,0.00043 -1.50823,0.00293 -1.55306,-0.01294c-0.59565,-0.21089 -1.30177,-0.31973 -1.71241,-0.8982c-0.56595,-0.79726 -0.29305,-3.62764 -0.29305,-4.64198c0,-3.56439 0.1059,-7.10166 0.00088,-10.67526c-0.0311,-1.05814 0.14073,-2.3409 0.01249,-3.40093c-0.25717,-2.12578 -0.8379,-4.08886 -0.99626,-6.25379c0,0 -0.12527,-1.72026 1.25271,-1.87665c0.15695,-0.01781 0.29764,-0.01128 0.42376,0.01428z" fill="#98ff66"/><path d="M297.23486,138.15009c0.3088,0.57639 0.48966,1.35748 0.6074,1.77392c0.35773,1.26525 0.43821,2.46956 0.41832,3.76015c-0.01403,0.91045 0.07813,1.65295 -0.86267,2.43843c-1.2881,1.07545 -3.31203,0.70895 -4.90885,0.62232c-2.76461,-0.14999 -5.63937,-0.09537 -8.40935,-0.09537c-3.0572,0 -6.07453,0.09814 -9.133,-0.00212c-0.91803,-0.03009 -3.28661,0.09527 -4.08901,-0.20207c-0.73533,-0.27248 -1.38243,-0.74517 -1.80214,-1.29331c-0.27898,-0.36435 -0.12593,-0.84557 -0.1607,-1.27017c-0.07899,-0.96452 0.12856,-1.90738 0.1255,-2.86685c-0.00044,-0.13776 -0.00298,-1.50823 0.01316,-1.55306c0.21445,-0.59565 0.32514,-1.30177 0.91339,-1.71241c0.81074,-0.56595 3.68896,-0.29305 4.72045,-0.29305c3.62465,0 7.22171,0.1059 10.85572,0.00088c1.07602,-0.0311 2.38047,0.14073 3.45842,0.01249c2.16172,-0.25717 4.15798,-0.8379 6.35951,-0.99626c0,0 1.74934,-0.12527 1.90837,1.25271c0.01811,0.15695 0.01147,0.29764 -0.01453,0.42376z" data-paper-data="{&quot;index&quot;:null}" fill="#98ff66"/><path d="M280.10125,144.81408c0,1.38367 -1.38367,1.38367 -1.38367,1.38367h-0.59314c-2.49568,0 -5.07944,-0.1915 -7.55804,0.0904c0,0 -1.3752,0.1528 -1.528,-1.22241c-0.1528,-1.37521 1.2224,-1.528 1.2224,-1.528c2.58692,-0.28173 5.26076,-0.10732 7.86364,-0.10732h0.59314c0,0 1.38367,0 1.38367,1.38367z" fill="#8be85d"/><path d="M288.20752,154.30434c0,1.38367 -1.38367,1.38367 -1.38367,1.38367h-0.49428c-1.91377,0 -3.82385,-0.20731 -5.7337,-0.19771c0,0 -1.38367,0 -1.38367,-1.38367c0,-1.38367 1.38367,-1.38367 1.38367,-1.38367c1.9118,0.00749 3.81922,0.19771 5.7337,0.19771h0.49428c0,0 1.38367,0 1.38367,1.38367z" fill="#8be85d"/><path d="M297.99435,145.20951c0,1.38367 -1.38367,1.38367 -1.38367,1.38367h-0.29657c-1.66625,0 -3.3791,0.11515 -5.04093,-0.00348c-0.6788,-0.04846 -1.29499,-0.19824 -1.97791,-0.19423c0,0 -1.38367,0 -1.38367,-1.38367c0,-1.38367 1.38367,-1.38367 1.38367,-1.38367c0.7472,0.00329 1.436,0.14843 2.17408,0.20119c1.59549,0.11406 3.2446,-0.00348 4.84476,-0.00348h0.29657c0,0 1.38367,0 1.38367,1.38367z" fill="#8be85d"/><path d="M197.28226,203.60924c0.57639,-0.30366 1.35748,-0.48152 1.77392,-0.5973c1.26525,-0.35179 2.46956,-0.43093 3.76015,-0.41137c0.91046,0.0138 1.65295,-0.07684 2.43843,0.84832c1.07545,1.26669 0.70896,3.25698 0.62232,4.82725c-0.14999,2.71866 -0.09537,5.54563 -0.09537,8.26955c0,3.00638 0.09814,5.97356 -0.00212,8.98118c-0.0301,0.90276 0.09528,3.23198 -0.20207,4.02104c-0.27249,0.72311 -0.74517,1.35945 -1.29331,1.77218c-0.36435,0.27434 -0.84557,0.12383 -1.27017,0.15803c-0.96452,0.07768 -1.90738,-0.12642 -2.86685,-0.12341c-0.13777,0.00043 -1.50823,0.00293 -1.55305,-0.01294c-0.59565,-0.21089 -1.30178,-0.31974 -1.71241,-0.8982c-0.56595,-0.79726 -0.29305,-3.62765 -0.29305,-4.64199c0,-3.56439 0.1059,-7.10166 0.00088,-10.67526c-0.0311,-1.05813 0.14074,-2.3409 0.0125,-3.40093c-0.25717,-2.12578 -0.83791,-4.08886 -0.99626,-6.25379c0,0 -0.12527,-1.72026 1.25272,-1.87664c0.15695,-0.01781 0.29764,-0.01129 0.42375,0.01428z" fill="#98ff66"/><path d="M214.71402,213.52398c0.3088,0.57639 0.48965,1.35749 0.6074,1.77393c0.35774,1.26525 0.43822,2.46955 0.41832,3.76015c-0.01403,0.91046 0.07813,1.65295 -0.86267,2.43843c-1.2881,1.07545 -3.31203,0.70896 -4.90884,0.62232c-2.76461,-0.14999 -5.63938,-0.09537 -8.40935,-0.09537c-3.0572,0 -6.07453,0.09814 -9.133,-0.00212c-0.91803,-0.03009 -3.28661,0.09527 -4.08901,-0.20207c-0.73533,-0.27248 -1.38243,-0.74517 -1.80214,-1.29331c-0.27898,-0.36434 -0.12593,-0.84557 -0.1607,-1.27017c-0.079,-0.96452 0.12856,-1.90738 0.1255,-2.86685c-0.00044,-0.13777 -0.00298,-1.50824 0.01316,-1.55306c0.21445,-0.59565 0.32514,-1.30177 0.91339,-1.71241c0.81074,-0.56595 3.68897,-0.29305 4.72045,-0.29305c3.62464,0 7.22171,0.1059 10.85572,0.00088c1.07603,-0.0311 2.38047,0.14074 3.45842,0.0125c2.16172,-0.25717 4.15798,-0.83791 6.35951,-0.99626c0,0 1.74934,-0.12527 1.90837,1.25271c0.01811,0.15695 0.01147,0.29764 -0.01453,0.42375z" data-paper-data="{&quot;index&quot;:null}" fill="#98ff66"/><path d="M197.58041,220.18798c0,1.38367 -1.38367,1.38367 -1.38367,1.38367h-0.59314c-2.49568,0 -5.07943,-0.1915 -7.55804,0.0904c0,0 -1.3752,0.1528 -1.52801,-1.22241c-0.1528,-1.3752 1.2224,-1.528 1.2224,-1.528c2.58693,-0.28173 5.26076,-0.10732 7.86364,-0.10732h0.59314c0,0 1.38367,0 1.38367,1.38367z" fill="#8be85d"/><path d="M205.68668,229.67824c0,1.38367 -1.38367,1.38366 -1.38367,1.38366h-0.49428c-1.91377,0 -3.82385,-0.2073 -5.7337,-0.19771c0,0 -1.38367,0 -1.38367,-1.38367c0,-1.38367 1.38367,-1.38367 1.38367,-1.38367c1.9118,0.00749 3.81922,0.19771 5.7337,0.19771h0.49428c0,0 1.38367,0 1.38367,1.38367z" fill="#8be85d"/><path d="M215.47352,220.5834c0,1.38367 -1.38367,1.38367 -1.38367,1.38367h-0.29657c-1.66625,0 -3.3791,0.11515 -5.04093,-0.00348c-0.6788,-0.04845 -1.295,-0.19824 -1.97791,-0.19423c0,0 -1.38367,0 -1.38367,-1.38367c0,-1.38367 1.38367,-1.38366 1.38367,-1.38366c0.74721,0.00329 1.436,0.14843 2.17408,0.20119c1.5955,0.11406 3.2446,-0.00348 4.84476,-0.00348h0.29657c0,0 1.38367,0 1.38367,1.38367z" fill="#8be85d"/></g></g></svg>