<svg version="1.1" xmlns="http://www.w3.org/2000/svg" xmlns:xlink="http://www.w3.org/1999/xlink" width="316.16667" height="150.9722" viewBox="0,0,316.16667,150.9722"><g transform="translate(-50.05484,-92.13573)"><g data-paper-data="{&quot;isPaintingLayer&quot;:true}" fill-rule="nonzero" stroke-linejoin="miter" stroke-miterlimit="10" stroke-dasharray="" stroke-dashoffset="0" style="mix-blend-mode: normal"><g data-paper-data="{&quot;index&quot;:null}" stroke="none" stroke-width="0.5" stroke-linecap="butt"><path d="M322.13883,126.32344c7.47382,-3.12082 13.95416,-1.08844 19.82486,-7.2332c0.03499,-0.65354 0.33139,-1.37679 1.18884,-2.01987c2.29321,-1.7199 4.0131,0.5733 4.0131,0.5733c1.80054,2.40071 5.57139,6.1235 6.79689,8.74982c-1.49123,-0.18443 -2.99042,-0.26189 -4.36686,0.04833c-0.03566,-0.03545 -0.0643,-0.0579 -0.08494,-0.06375c-0.5461,-0.15476 -1.09823,0.25891 -1.64777,0.42752h-1.24942c-0.69036,0 -1.25,0.55964 -1.25,1.25c0,0.69036 0.55964,1.25 1.25,1.25h1.40647v-0.06735c0.05589,0.02237 0.11358,0.04099 0.17338,0.05527c0.3118,0.07446 0.6143,-0.05944 0.91982,-0.20428c0.1146,0.28754 0.14326,0.67371 0.41355,0.76456c1.03564,0.34811 2.20046,0.49471 3.26744,0.25959c0.37171,-0.08191 0.02307,-1.04537 0.40299,-1.06839c0.40869,-0.02476 0.39535,0.74141 0.71212,1.00083c0.23496,0.19242 0.49661,0.34609 0.76627,0.48814c-0.11443,4.2001 -1.96173,8.94446 -1.12789,12.319c0.42711,1.72848 3.1788,1.67736 4.51486,2.85422c7.78541,6.8576 13.2189,21.06045 0.84566,25.58128c-2.65552,1.05984 -5.39241,1.68402 -8.14776,2.13836c-0.09981,-0.46218 -0.15195,-0.92434 -0.18891,-1.39596v-1.53578h-0.00761c0.65316,-3.08046 1.99525,-5.9007 2.65009,-8.91374c0.20401,-0.93867 0.91723,-2.12752 0.3027,-2.86581c-2.66025,-3.196 -2.95149,0.48522 -4.13832,1.05654c-0.57499,0.27679 -1.53255,-0.47964 -1.91418,0.03182c-0.33926,0.45469 -0.23054,1.04788 -0.07255,1.6602c-0.10497,0.74092 -0.19266,1.53891 -0.2392,2.35906c-0.39384,0.21018 -0.93189,0.30241 -0.99862,0.70637c-0.17059,1.03264 0.57121,2.28495 1.2337,3.4895c0.15284,0.75075 0.37851,1.4684 0.69714,2.12352c-0.08632,0.54688 -0.17264,1.09376 -0.25897,1.64063l0.01557,0.02362c-0.0059,0.03585 -0.01,0.07198 -0.012,0.10841c-0.03903,0.71157 0.009,1.34429 0.131,1.92469c-1.98535,0.26597 -3.96925,0.4906 -5.92831,0.77277l-0.10001,-0.72812c-2.16622,-0.55757 -3.51712,0.26485 -3.7589,-1.4952c0,0 -0.11524,-0.30731 -0.38509,-0.54794c0.05057,-0.97359 0.31901,-2.04027 -0.24009,-2.79139c-1.80682,-2.42739 -3.83928,-0.63637 -4.38281,1.13849c-0.3288,1.07368 -0.44149,2.28921 -0.12436,3.36639c0.09457,0.32122 0.32525,0.56566 0.60224,0.77715v0.60591c0,0.0884 0.00918,0.17465 0.02663,0.25786c-0.49265,0.32492 -0.68384,0.91307 -0.73102,1.61634c-2.59688,1.09104 -8.49882,4.25021 -10.54948,3.31705c-4.76342,-2.16758 -3.30554,-12.71355 -4.55609,-16.55757c-0.71793,-2.20684 -1.8606,-3.75356 -3.24677,-5.00541c0.5509,-0.01845 0.97793,-0.09148 1.19798,-0.24542c4.13854,-2.89514 -0.79268,-5.26286 -3.04658,-5.65298c-0.82188,-0.14225 -1.75425,-0.24682 -2.49898,0.12881c-0.59517,0.3002 -0.5775,1.2481 -1.08584,1.67931c-0.0943,0.07999 -0.19305,0.15504 -0.29483,0.2267c-1.0003,-0.62613 -2.00952,-1.30134 -2.99137,-2.09881c-2.63168,-5.15569 -3.01001,-8.60742 -3.01001,-14.25872l-0.70491,-0.18946c0,0 -1.59004,-2.38507 0.79503,-3.97513c0.7917,-0.5278 1.49581,-0.6176 2.08324,-0.50203c0.69426,-1.57949 2.62088,-1.57949 2.62088,-1.57949l0.10483,0.08558c5.25361,-1.31272 9.4269,-3.79149 14.38323,-5.86108zM320.09085,135.61857c1.29086,-0.42288 2.38304,-1.51385 3.7368,-1.62566c0.36688,-0.0303 0.51975,0.69211 0.88636,0.6588c0.11216,-0.01019 0.22333,-0.02524 0.33367,-0.04441v0.08976h1.64088c0.69036,0 1.25,-0.55964 1.25,-1.25c0,-0.58089 -0.39623,-1.06923 -0.93317,-1.2095l-1.56903,-0.4483c-2.44169,-0.9594 -6.58801,-1.33525 -7.81262,1.50219c-0.31216,0.15642 -0.624,0.46892 -0.624,1.09325c0,0.49011 0.19217,0.78805 0.42581,0.96918c0.02458,0.30386 0.04893,0.60768 0.04302,0.90612c0,0 0,1.25 1.25,1.25c1.25,0 1.25,-1.25 1.25,-1.25c-0.0051,-0.18863 -0.03919,-0.40868 -0.08079,-0.63965z" fill="#d10000"/><path d="" fill="#d10000"/><path d="M320.41981,176.66499c-0.26026,-0.20792 -0.52719,-0.44376 -0.80138,-0.70965c-1.73866,-1.68596 -0.63185,-9.5888 -2.05902,-12.40587c-0.94309,-1.86154 -2.25808,-3.47729 -3.7338,-4.98724c0.91251,0.03286 1.64532,-0.02231 1.9586,-0.24147c4.13854,-2.89514 -0.79268,-5.26286 -3.04658,-5.65298c-0.82188,-0.14225 -1.75425,-0.24682 -2.49898,0.12881c-0.54127,0.27301 -0.57567,1.08171 -0.95981,1.5503c-3.97685,-3.59465 -7.67971,-7.37545 -7.79793,-13.53674c-0.09975,-5.19892 10.47364,-13.52181 15.83746,-12.00518c1.19223,0.33711 1.92583,1.46475 2.71335,2.49948c-1.05533,0.29452 -1.94262,0.90875 -2.40798,1.98701c-0.31216,0.15642 -0.624,0.46892 -0.624,1.09325c0,0.49011 0.19217,0.78805 0.42581,0.96918c0.02458,0.30386 0.04893,0.60768 0.04302,0.90612c0,0 0,1.25 1.25,1.25c1.25,0 1.25,-1.25 1.25,-1.25c-0.0051,-0.18863 -0.03919,-0.40868 -0.08079,-0.63965l0.20307,-0.00178c0.59949,-0.19639 1.15613,-0.53688 1.71602,-0.85646c1.4676,4.22395 2.53364,8.6974 4.74739,12.54c2.84126,4.93176 6.92896,8.95032 10.06228,13.67357c1.86265,2.8078 5.05441,8.08544 3.24516,11.66339c-0.151,0.29861 -0.41115,0.60262 -0.75914,0.90919c-0.50569,-0.11325 -0.82371,-0.38899 -0.92949,-1.15895c0,0 -0.11524,-0.30731 -0.38509,-0.54794c0.05057,-0.97359 0.31901,-2.04027 -0.24009,-2.79139c-1.80682,-2.42739 -3.83928,-0.63637 -4.38281,1.13849c-0.3288,1.07368 -0.44149,2.28921 -0.12436,3.36639c0.09457,0.32122 0.32525,0.56566 0.60224,0.77715v0.60591c0,0.0884 0.00918,0.17465 0.02663,0.25786c-0.49453,0.32616 -0.6853,0.91757 -0.73156,1.62441c-3.35427,1.37342 -6.96374,2.5731 -8.52278,3.29167c0,0 -2.60958,1.18618 -3.79573,-1.42339c-0.36767,-0.80893 -0.37066,-1.48106 -0.19966,-2.0235z" fill="#c00000"/><path d="" fill="#c00000"/><path d="M346.49871,115.36658c1.43392,2.62854 -1.26832,4.02335 -1.26832,4.02335l-3.34244,1.72483c-7.00826,3.86058 -13.76777,4.15192 -21.11548,6.86998c-7.49261,2.77166 -15.34112,8.67172 -22.31665,12.61028c-6.97386,3.93759 -13.77175,9.23998 -20.956,12.67719c-2.72556,1.30401 -5.83144,1.90212 -8.3438,3.56256c0,0 -2.54534,1.65063 -4.24224,-0.8253c-1.6969,-2.47593 0.84844,-4.12653 0.84844,-4.12653c2.7645,-1.76581 6.07534,-2.54997 9.04953,-3.95692c8.56487,-4.05163 16.59954,-10.34611 24.95696,-14.95338c5.94343,-3.27648 12.41955,-8.15007 18.73694,-10.51572c7.09125,-2.65544 13.73308,-2.79487 20.43024,-6.55494l3.42662,-1.76912c0,0 2.70225,-1.39482 4.13616,1.23372z" fill="#515151"/><path d="M331.71407,142.41196c0.46563,1.26298 -0.7802,1.99107 -0.7802,1.99107l-0.18929,0.1106c-2.216,1.27571 -4.34388,1.30046 -6.5869,2.04193c-1.06058,0.35058 2.10656,1.26209 2.39848,2.34028c0.19575,0.72301 -0.97422,1.16577 -1.26945,1.85415c-0.29952,0.69837 1.51397,0.51496 1.99499,1.10323c0.69637,0.85165 1.57215,1.78335 1.60639,2.8829c0.02093,0.67307 -1.15586,0.78803 -1.4737,1.38168c-0.23633,0.44137 0.40697,0.9322 0.73715,1.30857c0.28626,0.32628 4.01214,-2.2161 4.39663,-2.44079c0,0 0.34738,-0.20302 0.80363,-0.24365c0.91962,-0.47955 1.81752,0.25122 1.81752,0.25122c1.10558,0.90224 2.51044,2.44684 4.1201,2.31992c2.21344,-0.17451 6.3919,-3.62713 6.53662,-5.95236c0.29547,-4.74759 -3.35659,-10.44437 -7.10037,-12.73688c-3.10956,-0.4544 -7.04474,-1.05347 -6.92979,3.00763zM339.65585,160.71432c-2.47994,0.14626 -4.16553,-1.0595 -5.89248,-2.4549c-1.32775,0.87194 -3.34879,2.40894 -4.5857,2.53996c-3.8992,0.41291 -6.35245,-4.18207 -3.68073,-6.51406c0.62788,-0.54803 -1.7587,-0.40436 -2.25952,-1.07049c-0.644,-0.85655 -1.33368,-1.85029 -1.34104,-2.92195c-0.00113,-0.16596 0.10964,-0.25563 0.26996,-0.31525c-1.8662,-1.70385 -2.06778,-4.07094 -0.22251,-6.03014c0.9656,-1.0252 4.47727,-1.34625 6.40421,-2.07512l0.02705,-0.20763c0.0233,-6.89713 6.08887,-7.24432 11.52474,-6.25416c5.05204,2.92278 9.87004,9.89024 9.33387,16.25257c-0.32295,3.83245 -5.66889,8.82071 -9.57786,9.05126zM323.21272,149.62023c0.12636,-0.13521 -0.07033,0.02398 -0.33054,0.18238c0.13227,-0.04094 0.24996,-0.09617 0.33054,-0.18238z" fill="#cfcfcf"/><path d="M336.28941,149.82751c1.04759,-2.27579 5.13961,-3.14885 6.77516,-0.22129c1.5029,2.69018 -0.58945,4.89505 -3.0947,5.29259c-0.61129,0.09705 -1.95695,-0.59314 -3.02088,-1.1962c-0.06763,-0.03176 -0.1345,-0.06941 -0.19964,-0.11397c-0.39787,-0.22868 -0.74343,-0.43575 -0.97706,-0.57003c0,0 -1.48205,-0.85401 -0.62804,-2.33606c0.32878,-0.57055 0.75064,-0.79489 1.14518,-0.85502z" fill="#cfcfcf"/><path d="M339.52023,141.46101c1.74792,2.86185 -1.02114,5.99861 -3.51814,5.79431c-0.24606,0.31424 -0.64854,0.57169 -1.30701,0.5781c-1.71041,0.01668 -1.72709,-1.69376 -1.72709,-1.69376c-0.0023,-0.26945 -0.01316,-0.67216 -0.01709,-1.13106c-0.00686,-0.07861 -0.00691,-0.15536 -0.00133,-0.22987c-0.00326,-1.22296 0.05593,-2.73412 0.44048,-3.21913c1.57603,-1.98764 4.52397,-2.72843 6.13017,-0.09861z" data-paper-data="{&quot;index&quot;:null}" fill="#cfcfcf"/></g><path d="M147.15488,199.50296h53.81605" fill="none" stroke="#8f1a1a" stroke-width="5" stroke-linecap="round"/><path d="M148.0257,169.71496h53.81605" fill="none" stroke="#8f1a1a" stroke-width="5" stroke-linecap="round"/><path d="M147.26576,155.25638h53.81605" fill="none" stroke="#8f1a1a" stroke-width="5" stroke-linecap="round"/><path d="M199.55863,217.00785h-53.81605" fill="none" stroke="#8f1a1a" stroke-width="5" stroke-linecap="round"/><path d="M290.95268,164.77347c1.79092,-0.97975 0.53333,-2.53501 -0.45215,-3.7688c-1.94371,-1.0429 -5.341,-1.1829 -7.32566,0.14894c-0.97204,0.65228 -1.41048,3.34034 -0.925,4.34482c0.35304,0.73049 1.3793,0.94833 2.05101,1.19919c0,0 0.54466,0.20426 0.56978,0.7248c0.09805,0.20825 0.09805,0.41042 0.09805,0.41042c0,0.22375 -0.1583,2.48469 0.05584,2.52615c0.24696,0.04783 0.62302,0.20244 0.75457,-0.01199c0.17694,-0.28841 -0.07155,-0.82803 0.22575,-0.98961c0.48568,-0.26393 1.11191,-0.1202 1.65792,-0.03403c0.37714,0.05953 0.75736,0.89274 0.9844,0.58575c0.22377,-0.3026 0.11922,-0.92239 0.48251,-1.02078c0.54174,-0.14672 1.74016,0.99614 1.62336,0.44717c-0.24701,-1.16104 -0.77576,-2.09044 -0.78418,-3.37521v-0.11015c0,0 0,-0.72505 0.66595,-0.84325zM280.68147,166.20186c-0.89107,-1.75422 -0.08242,-5.33808 1.4983,-6.44984c2.62415,-1.84564 6.86827,-1.52201 9.41707,-0.07136c1.80772,2.10715 3.19494,4.82651 0.20875,6.58526l-0.08319,0.06439c0.17233,1.02074 0.92339,2.62554 0.72344,3.30436c-0.3821,1.29724 -1.46008,1.80992 -2.67239,1.43231c0.01476,0.08465 0.00396,0.15544 -0.06833,0.19704c-0.46675,0.2685 -1.07272,0.22126 -1.60759,0.15903c-0.41597,-0.04838 -0.95871,-1.12014 -1.03726,-0.70879c-0.33429,1.75027 -2.94965,1.85099 -3.7591,0.05474c-0.25678,-0.56978 -0.10237,-1.83623 -0.06075,-2.63331c-1.04318,-0.39541 -1.99362,-0.82095 -2.55891,-1.93388zM289.66785,170.71206c0.00275,-0.15304 0.02194,-0.27873 -0.00467,-0.18963c-0.01698,0.05681 -0.01111,0.12185 0.00467,0.18963z" fill="#cfcfcf" stroke="none" stroke-width="0.5" stroke-linecap="butt"/><path d="M286.25786,164.9021c0.07395,0.18639 0.08358,0.42629 -0.08059,0.71356c-0.42642,0.74623 -1.17264,0.31983 -1.17264,0.31983c-0.11748,-0.06733 -0.29492,-0.16472 -0.495,-0.27934c-0.03584,-0.01698 -0.06914,-0.03643 -0.10006,-0.05772c-0.53138,-0.30865 -1.17195,-0.71744 -1.28484,-1.00725c-0.46269,-1.18763 -0.03665,-2.6543 1.51143,-2.68436c1.68467,-0.03271 2.34339,1.96384 1.62171,2.99528z" fill="#cfcfcf" stroke="none" stroke-width="0.5" stroke-linecap="butt"/><path d="M289.06829,161.37934c1.54808,0.03006 1.97412,1.49674 1.51143,2.68437c-0.11292,0.28979 -0.75346,0.69857 -1.28484,1.00724c-0.03092,0.02131 -0.06422,0.04076 -0.10006,0.05769c-0.20006,0.11464 -0.37752,0.21203 -0.495,0.27936c0,0 -0.74624,0.42643 -1.17264,-0.31982c-0.16418,-0.28727 -0.15455,-0.52716 -0.0806,-0.71358c-0.7217,-1.03143 -0.06295,-3.028 1.62171,-2.99528z" data-paper-data="{&quot;index&quot;:null}" fill="#cfcfcf" stroke="none" stroke-width="0.5" stroke-linecap="butt"/><g fill="#db4747" stroke="#000000" stroke-width="0" stroke-linecap="butt"><path d="M290.68451,156.97135c4.1531,0.48979 6.40132,1.80931 8.17633,6.55652c0.4088,1.09332 1.16179,2.13276 1.21476,3.38958c0.02453,0.58212 -0.05074,1.07463 -0.20947,1.48921c0.55865,-0.08316 1.06231,-0.03146 1.3799,0.34995c2.42734,2.91523 -2.03226,3.9228 -3.76168,3.9228c-9.68868,0 -11.75797,-0.47124 -18.19695,-0.61064c-1.18863,-0.02573 -2.32561,-0.48865 -3.44065,0.00648c-0.47836,0.21241 -2.66947,1.03576 -3.2582,0.47432c-0.62236,-0.07611 -1.07673,-0.53955 -0.92965,-1.66499c-0.0068,-0.06522 -0.01031,-0.13148 -0.01031,-0.19859c0,-0.27544 0.0589,-0.53651 0.16427,-0.77027c0.85017,-3.67957 2.55983,-7.06237 4.25248,-10.38197c0.25132,-0.49289 0.96357,-3.00052 1.5613,-3.53319c1.28591,-1.14598 3.29717,-0.90555 4.80989,-1.20951c1.34607,-0.27048 4.8427,-1.13084 6.06388,0.14327c0.51551,0.53787 0.78107,1.24175 0.75495,1.8695c0.50432,0.0559 0.98442,0.11509 1.42914,0.16753z"/><path d="M302.68422,169.8489c0.10537,0.23377 0.16424,0.49484 0.16424,0.77028c0,0.06713 -0.00351,0.13337 -0.01031,0.19859c0.19947,1.52625 -0.70721,1.83504 -1.63889,1.61131c-0.72938,-0.17517 -1.47409,-0.67672 -1.71528,-1.17607c-1.86011,-3.85107 -2.42572,-9.19613 -5.17524,-12.56198c-0.26798,-0.32808 -1.97951,-0.22038 -2.08928,-0.2262c-1.8476,-0.09814 -2.95518,-0.09906 -5.35442,-0.19951c-1.91969,-0.08039 -2.04424,-2.17098 -0.86842,-3.39779c1.22118,-1.27414 4.71779,-0.41377 6.06388,-0.1433c1.51272,0.30396 3.52399,0.06352 4.80989,1.20951c0.59771,0.53268 1.30995,3.04031 1.56127,3.5332c1.69265,3.31962 3.40232,6.7024 4.25251,10.38197z" data-paper-data="{&quot;index&quot;:null}"/></g><g fill="#c74040" stroke="none" stroke-linecap="butt"><path d="M272.02745,169.29607c0,-1.37103 2.10332,-2.48244 4.69786,-2.48244c2.59454,0 4.69786,1.11144 4.69786,2.48244c0,1.37103 -2.10332,2.48245 -4.69786,2.48245c-2.59454,0 -4.69786,-1.11142 -4.69786,-2.48245z" stroke-width="NaN"/><path d="M293.60213,169.33255c0,-1.37103 2.1033,-2.48245 4.69784,-2.48245c2.59454,0 4.69784,1.11144 4.69784,2.48245c0,1.37103 -2.10329,2.48244 -4.69784,2.48244c-2.59454,0 -4.69784,-1.11141 -4.69784,-2.48244z" stroke-width="NaN"/><path d="M276.24233,171.77854v-4.96491h22.12815v4.96491z" stroke-width="0"/></g><path d="M273.81379,164.24846c0.54424,-0.50098 0.87565,-2.99399 1.27308,-3.91305c1.88387,-4.35661 4.05678,-6.37511 8.252,-6.49479c0.00567,-0.00016 0.01133,-0.00034 0.01702,-0.00054c0.05117,0.0124 0.10401,0.01931 0.15803,0.0202c0.00401,0.00002 0.00801,0.00005 0.01193,0.00011c1.31248,0.0146 2.62504,0.02401 3.93758,0.02793c0.94624,1.16646 0.92647,1.91529 -0.05926,3.09918c-0.5899,0.70845 -1.66145,0.20881 -2.49554,0.22652c-2.37928,0.05051 -4.28609,0.223 -5.89247,2.22337c-1.53217,1.90792 -4.15086,9.98198 -4.94299,12.27876c-0.25914,0.7514 -2.26229,2.8445 -2.95393,1.39082c-0.44471,-0.31522 -0.74305,-0.89664 -0.74305,-1.56175c0,-0.64679 0.28215,-1.21445 0.70668,-1.53514c0.97744,-2.13689 2.56331,-5.60735 2.73095,-5.76164z" fill="#bd2222" stroke="none" stroke-width="0.5" stroke-linecap="butt"/><path d="M303.56289,169.78676c0.42454,0.32066 0.70669,0.88833 0.70669,1.53514c0,0.66511 -0.29834,1.24652 -0.74305,1.56175c-0.69166,1.45369 -2.69479,-0.63945 -2.95394,-1.39084c-0.79213,-2.29678 -3.41082,-10.37082 -4.94299,-12.27874c-1.60641,-2.00037 -3.51319,-2.17286 -5.89247,-2.22337c-0.83409,-0.01771 -1.90567,0.48193 -2.49554,-0.22652c-0.92185,-1.10715 -0.99889,-1.83383 -0.23106,-2.87742c2.11018,0.00832 4.22041,0.00241 6.3305,-0.01915c0.03656,0.00585 0.07293,0.0114 0.10909,0.01663c2.85076,0.68497 4.57551,2.68196 6.10881,6.22786c0.3974,0.91906 0.72884,3.41207 1.27305,3.91305c0.16766,0.15431 1.75349,3.62476 2.73095,5.76165z" data-paper-data="{&quot;index&quot;:null}" fill="#bd2222" stroke="none" stroke-width="0.5" stroke-linecap="butt"/><path d="M297.02036,159.22241c-0.15282,0.36705 -0.45846,0.18354 -0.45846,0.18354l-0.12373,-0.0759c-1.90474,-0.92178 -3.70873,-1.26501 -5.63878,-1.95809c-1.08112,-0.0292 -2.17501,0.01029 -3.28863,0.01029c-2.92895,0 -5.55818,0.70678 -8.38528,1.42911c0,0 -0.33436,0.08453 -0.40477,-0.31704c-0.07039,-0.40158 0.26397,-0.48613 0.26397,-0.48613c0.26406,-0.06599 0.52642,-0.13207 0.78749,-0.19766c-0.08447,-0.28068 0.14099,-0.4612 0.14099,-0.4612c2.10501,-1.67508 5.0557,-0.90902 7.43375,-1.14703c2.99599,-0.0025 6.15583,0.36616 9.13993,0.72065l0.04083,-0.00204c0,0 0.34172,0 0.34172,0.41039c0,0.41039 -0.34172,0.41039 -0.34172,0.41039l-0.10881,-0.00204c-0.16771,-0.02038 -0.33599,-0.04076 -0.50479,-0.06105c0.0547,0.0844 0.08947,0.20849 0.03563,0.38094c-0.01954,0.06261 -0.04441,0.1112 -0.07232,0.14865c0.27018,0.11056 0.54156,0.22962 0.81464,0.35973l0.17556,0.10385c0,0 0.30564,0.18353 0.15282,0.55058zM281.35848,157.41975c0.53705,-0.1277 1.07185,-0.24821 1.608,-0.35628c-0.55831,0.05275 -1.10089,0.15832 -1.608,0.35628z" fill="#bd2222" stroke="none" stroke-width="0.5" stroke-linecap="butt"/><path d="M188.73522,165.8498c1.79092,-0.97975 0.53333,-2.53502 -0.45217,-3.7688c-1.94371,-1.0429 -5.34099,-1.1829 -7.32567,0.14894c-0.97201,0.65231 -1.41047,3.34035 -0.925,4.34483c0.35304,0.73049 1.3793,0.94832 2.05101,1.19919c0,0 0.54467,0.20426 0.56979,0.72478c0.09805,0.20825 0.09804,0.41042 0.09804,0.41042c0,0.22375 -0.1583,2.48469 0.05584,2.52615c0.24696,0.04781 0.62302,0.20244 0.75457,-0.01197c0.17694,-0.28839 -0.07155,-0.82806 0.22574,-0.98963c0.48568,-0.26393 1.11192,-0.1202 1.65792,-0.03403c0.37716,0.05953 0.75736,0.89276 0.9844,0.58575c0.22379,-0.3026 0.11924,-0.92242 0.4825,-1.0208c0.54174,-0.14672 1.74016,0.99614 1.62335,0.44716c-0.24701,-1.16104 -0.77576,-2.09044 -0.78417,-3.37521v-0.11015c0,0 0,-0.72505 0.66595,-0.84328zM178.46397,167.27818c-0.89104,-1.75422 -0.08241,-5.33808 1.4983,-6.44983c2.62416,-1.84567 6.86827,-1.52201 9.41707,-0.07137c1.80772,2.10715 3.19494,4.82651 0.20875,6.58526l-0.08322,0.06438c0.17236,1.02074 0.92339,2.62556 0.72347,3.30437c-0.3821,1.29724 -1.4601,1.80991 -2.67239,1.4323c0.01478,0.08467 0.00396,0.15545 -0.06831,0.19705c-0.46678,0.2685 -1.07271,0.22125 -1.60759,0.15902c-0.41594,-0.04838 -0.95871,-1.12014 -1.03726,-0.7088c-0.33429,1.75027 -2.94965,1.851 -3.7591,0.05475c-0.25676,-0.56981 -0.10237,-1.83626 -0.06076,-2.63332c-1.04318,-0.39541 -1.99362,-0.82094 -2.55891,-1.93385zM187.45037,171.78838c0.00275,-0.15304 0.02192,-0.27873 -0.00469,-0.18964c-0.01695,0.05681 -0.01111,0.12188 0.00469,0.18964z" fill="#cfcfcf" stroke="none" stroke-width="0.5" stroke-linecap="butt"/><path d="M184.04042,165.97842c0.07395,0.18639 0.08358,0.42629 -0.08059,0.71358c-0.42642,0.74623 -1.17265,0.31981 -1.17265,0.31981c-0.11748,-0.06731 -0.29494,-0.16472 -0.495,-0.27934c-0.03584,-0.01695 -0.06914,-0.03644 -0.10006,-0.05772c-0.53136,-0.30865 -1.17194,-0.71743 -1.28482,-1.00724c-0.46269,-1.18763 -0.03668,-2.65431 1.51143,-2.68437c1.68469,-0.03271 2.34341,1.96382 1.62171,2.99528z" fill="#cfcfcf" stroke="none" stroke-width="0.5" stroke-linecap="butt"/><path d="M186.8508,162.45566c1.5481,0.03006 1.97412,1.49673 1.51143,2.68436c-0.11292,0.28979 -0.75346,0.6986 -1.28484,1.00725c-0.03092,0.02131 -0.06422,0.04076 -0.10007,0.05772c-0.20006,0.11464 -0.37752,0.21204 -0.49499,0.27934c0,0 -0.74623,0.42642 -1.17265,-0.31981c-0.16418,-0.28727 -0.15454,-0.52716 -0.08059,-0.71358c-0.72172,-1.03146 -0.06297,-3.028 1.62171,-2.99528z" data-paper-data="{&quot;index&quot;:null}" fill="#cfcfcf" stroke="none" stroke-width="0.5" stroke-linecap="butt"/><g fill="#db4747" stroke="#000000" stroke-width="0" stroke-linecap="butt"><path d="M188.46708,158.0477c4.15308,0.48976 6.40134,1.80931 8.17635,6.5565c0.40881,1.09332 1.16179,2.13274 1.21476,3.38958c0.02453,0.58212 -0.05073,1.07463 -0.20949,1.48921c0.55865,-0.08313 1.06231,-0.03146 1.3799,0.34995c2.42731,2.91523 -2.03226,3.92282 -3.76168,3.92282c-9.68868,0 -11.75799,-0.47124 -18.19694,-0.61064c-1.1886,-0.02573 -2.32562,-0.48865 -3.44066,0.00648c-0.47835,0.21241 -2.66944,1.03576 -3.2582,0.47429c-0.62235,-0.07608 -1.07676,-0.53954 -0.92965,-1.66499c-0.00682,-0.06522 -0.01031,-0.13146 -0.01031,-0.19859c0,-0.27544 0.0589,-0.53651 0.16427,-0.77028c0.85017,-3.67957 2.55984,-7.06238 4.25251,-10.382c0.25132,-0.49289 0.96356,-3.00052 1.5613,-3.53317c1.28591,-1.14598 3.29718,-0.90555 4.8099,-1.20951c1.34609,-0.27048 4.8427,-1.13084 6.06388,0.14327c0.51551,0.53785 0.78107,1.24174 0.75495,1.86947c0.50431,0.0559 0.98442,0.11509 1.42914,0.16753z"/><path d="M200.46673,170.92522c0.10537,0.23377 0.16424,0.49484 0.16424,0.77028c0,0.06713 -0.00351,0.13336 -0.01031,0.19858c0.19947,1.52625 -0.70723,1.83504 -1.6389,1.61131c-0.72938,-0.17517 -1.47409,-0.67674 -1.71527,-1.17607c-1.86011,-3.85107 -2.42572,-9.19616 -5.17524,-12.56198c-0.268,-0.32808 -1.97951,-0.22038 -2.08928,-0.2262c-1.8476,-0.09814 -2.95518,-0.09906 -5.35442,-0.19951c-1.91968,-0.08037 -2.04424,-2.17101 -0.86842,-3.39778c1.22118,-1.27414 4.71779,-0.41375 6.06388,-0.14328c1.51271,0.30396 3.52399,0.06352 4.8099,1.20951c0.59771,0.53268 1.30996,3.04029 1.56127,3.5332c1.69267,3.31962 3.40234,6.70242 4.25251,10.38199z" data-paper-data="{&quot;index&quot;:null}"/></g><g fill="#c74040" stroke="none" stroke-linecap="butt"><path d="M169.80996,170.37242c0,-1.37103 2.10329,-2.48244 4.69783,-2.48244c2.59455,0 4.69783,1.11144 4.69783,2.48244c0,1.37103 -2.10329,2.48245 -4.69783,2.48245c-2.59455,0 -4.69783,-1.11144 -4.69783,-2.48245z" stroke-width="NaN"/><path d="M191.38467,170.40887c0,-1.37103 2.10329,-2.48245 4.69783,-2.48245c2.59455,0 4.69784,1.11144 4.69784,2.48245c0,1.37103 -2.1033,2.48244 -4.69784,2.48244c-2.59455,0 -4.69783,-1.11144 -4.69783,-2.48244z" stroke-width="NaN"/><path d="M174.02485,172.85486v-4.96491h22.12816v4.96491z" stroke-width="0"/></g><path d="M171.59631,165.32478c0.54423,-0.50096 0.87565,-2.99399 1.27308,-3.91305c1.88387,-4.35663 4.05677,-6.37509 8.252,-6.49477c0.00566,-0.00016 0.01134,-0.00034 0.01703,-0.00056c0.05116,0.0124 0.10401,0.01933 0.15805,0.02022c0.00402,0.00002 0.00798,0.00007 0.01192,0.00009c1.31248,0.0146 2.62501,0.02401 3.93758,0.02791c0.94624,1.16646 0.9265,1.91529 -0.05926,3.09918c-0.5899,0.70845 -1.66145,0.20881 -2.49555,0.22652c-2.37928,0.05051 -4.28609,0.223 -5.8925,2.22337c-1.53217,1.90792 -4.15086,9.98196 -4.94299,12.27874c-0.25914,0.75137 -2.2623,2.8445 -2.95393,1.39082c-0.44472,-0.31522 -0.74305,-0.89664 -0.74305,-1.56175c0,-0.64679 0.28214,-1.21445 0.70668,-1.53512c0.97744,-2.13689 2.56329,-5.60733 2.73093,-5.76164z" fill="#bd2222" stroke="none" stroke-width="0.5" stroke-linecap="butt"/><path d="M201.34542,170.86311c0.42454,0.32066 0.70669,0.88832 0.70669,1.53512c0,0.66509 -0.29834,1.24652 -0.74305,1.56175c-0.69166,1.45369 -2.69479,-0.63945 -2.95393,-1.39082c-0.79213,-2.29678 -3.41082,-10.37082 -4.94299,-12.27874c-1.60641,-2.00037 -3.5132,-2.17287 -5.89248,-2.22338c-0.83409,-0.01771 -1.90568,0.48194 -2.49554,-0.22652c-0.92187,-1.10718 -0.99888,-1.83383 -0.23108,-2.87742c2.11018,0.0083 4.22041,0.00242 6.3305,-0.01914c0.03656,0.00582 0.07293,0.01138 0.10909,0.01662c2.85076,0.68497 4.57551,2.68196 6.10881,6.22785c0.3974,0.91906 0.72883,3.41207 1.27305,3.91305c0.16764,0.15431 1.75349,3.62475 2.73093,5.76164z" data-paper-data="{&quot;index&quot;:null}" fill="#bd2222" stroke="none" stroke-width="0.5" stroke-linecap="butt"/><path d="M194.80289,160.29873c-0.15282,0.36707 -0.45845,0.18354 -0.45845,0.18354l-0.12374,-0.0759c-1.90473,-0.92178 -3.70872,-1.26501 -5.63877,-1.95809c-1.08112,-0.02918 -2.17502,0.0103 -3.28863,0.0103c-2.92895,0 -5.55818,0.70678 -8.3853,1.42911c0,0 -0.33438,0.08454 -0.40478,-0.31704c-0.07039,-0.40159 0.264,-0.48613 0.264,-0.48613c0.26406,-0.06599 0.52641,-0.13208 0.78746,-0.19764c-0.08449,-0.28068 0.14099,-0.46119 0.14099,-0.46119c2.10502,-1.67508 5.0557,-0.90902 7.43375,-1.14701c2.99601,-0.0025 6.15583,0.36616 9.13994,0.72065l0.04083,-0.00204c0,0 0.3417,0 0.3417,0.4104c0,0.41039 -0.3417,0.41039 -0.3417,0.41039l-0.10884,-0.00204c-0.16769,-0.02038 -0.33596,-0.04077 -0.50479,-0.06106c0.0547,0.0844 0.08948,0.20849 0.03562,0.38094c-0.01954,0.06261 -0.04441,0.11118 -0.07232,0.14865c0.27018,0.11056 0.54154,0.22962 0.81464,0.35972l0.17556,0.10383c0,0 0.30564,0.18354 0.15282,0.55061zM179.14099,158.49606c0.53705,-0.12772 1.07185,-0.24821 1.608,-0.35628c-0.55829,0.05275 -1.1009,0.15835 -1.608,0.35628z" fill="#bd2222" stroke="none" stroke-width="0.5" stroke-linecap="butt"/><path d="M246.08503,152.96024c4.94646,-2.70603 1.47304,-7.00165 -1.24886,-10.40932c-5.36848,-2.88046 -14.75167,-3.26713 -20.23329,0.41139c-2.68471,1.80162 -3.89566,9.22592 -2.5548,12.00026c0.97508,2.0176 3.80961,2.61926 5.66482,3.31214c0,0 1.50438,0.56414 1.57375,2.00185c0.27081,0.57516 0.27081,1.13354 0.27081,1.13354c0,0.61801 -0.43721,6.86265 0.1542,6.97716c0.68213,0.13207 1.72075,0.55916 2.08411,-0.03307c0.48872,-0.79653 -0.19759,-2.28707 0.62353,-2.73331c1.34142,-0.72895 3.0711,-0.33201 4.57914,-0.09397c1.04168,0.16442 2.09182,2.46576 2.71889,1.61784c0.6181,-0.83577 0.32933,-2.54766 1.33267,-2.81941c1.49631,-0.40523 4.80627,2.75133 4.48365,1.23506c-0.68223,-3.20677 -2.14265,-5.77373 -2.16584,-9.32223v-0.30423c0,0 0,-2.00259 1.83935,-2.32908zM217.71612,156.90543c-2.46105,-4.8451 -0.22762,-14.74361 4.13826,-17.81425c7.24782,-5.09767 18.96999,-4.20375 26.00972,-0.1971c4.99289,5.81986 8.8243,13.3307 0.57652,18.18833l-0.22983,0.17783c0.47602,2.81925 2.55038,7.25169 1.99817,9.12656c-1.05535,3.58293 -4.03272,4.99893 -7.38109,3.95598c0.04081,0.23384 0.01097,0.42937 -0.18868,0.54424c-1.28919,0.7416 -2.96282,0.6111 -4.44012,0.43926c-1.14887,-0.13361 -2.64791,-3.09378 -2.86489,-1.95771c-0.92327,4.83419 -8.14683,5.11238 -10.38251,0.15123c-0.70918,-1.57377 -0.28279,-5.07169 -0.16781,-7.27313c-2.88123,-1.0921 -5.50631,-2.26743 -7.06766,-5.34128zM242.53631,169.36247c0.00757,-0.42273 0.06058,-0.76985 -0.01294,-0.52376c-0.04686,0.1569 -0.03065,0.33658 0.01294,0.52376z" fill="#cfcfcf" stroke="none" stroke-width="0.5" stroke-linecap="butt"/><path d="M233.11806,153.31554c0.20424,0.51484 0.23085,1.1774 -0.22257,1.97088c-1.17774,2.06106 -3.23883,0.88331 -3.23883,0.88331c-0.32448,-0.18591 -0.81457,-0.45494 -1.36717,-0.77155c-0.099,-0.04686 -0.19098,-0.10061 -0.27637,-0.15941c-1.46762,-0.85248 -3.23685,-1.98155 -3.54865,-2.78198c-1.27797,-3.28018 -0.10129,-7.33112 4.17448,-7.41416c4.65304,-0.09034 6.47242,5.42404 4.47914,8.27288z" fill="#cfcfcf" stroke="none" stroke-width="0.5" stroke-linecap="butt"/><path d="M240.88034,143.58574c4.27579,0.08301 5.45245,4.13394 4.1745,7.41416c-0.31187,0.80039 -2.08105,1.92948 -3.54868,2.78198c-0.08537,0.05883 -0.17737,0.11256 -0.27634,0.15939c-0.55258,0.31663 -1.0427,0.58561 -1.36718,0.77155c0,0 -2.06108,1.17777 -3.23883,-0.88331c-0.45342,-0.79347 -0.42681,-1.456 -0.22257,-1.97088c-1.99334,-2.84884 -0.17392,-8.36322 4.4791,-8.27288z" data-paper-data="{&quot;index&quot;:null}" fill="#cfcfcf" stroke="none" stroke-width="0.5" stroke-linecap="butt"/><g fill="#db4747" stroke="#000000" stroke-width="0" stroke-linecap="butt"><path d="M245.34437,131.41107c11.47069,1.35273 17.6803,4.99726 22.58282,18.10887c1.1291,3.01975 3.20883,5.89057 3.35514,9.36195c0.06776,1.6078 -0.14012,2.96808 -0.57858,4.11318c1.54296,-0.22962 2.93407,-0.0869 3.81122,0.96657c6.70419,8.05181 -5.61304,10.83469 -10.38963,10.83469c-26.75988,0 -32.47524,-1.30157 -50.25945,-1.68657c-3.28292,-0.07107 -6.42328,-1.34963 -9.50297,0.01789c-1.3212,0.58668 -7.37295,2.86076 -8.99904,1.31002c-1.71894,-0.21015 -2.97395,-1.49018 -2.56768,-4.59866c-0.01881,-0.18014 -0.02847,-0.36313 -0.02847,-0.5485c0,-0.76074 0.16268,-1.48184 0.45367,-2.12748c2.34813,-10.16287 7.0702,-19.50606 11.74529,-28.67474c0.69415,-1.36135 2.66136,-8.28732 4.31225,-9.75853c3.55165,-3.16517 9.10671,-2.5011 13.28481,-3.34063c3.71784,-0.74704 13.37542,-3.12336 16.74827,0.39575c1.4238,1.48553 2.15727,3.42968 2.08518,5.16345c1.39289,0.15443 2.71889,0.31788 3.94723,0.46272z"/><path d="M278.48706,166.97846c0.29104,0.64566 0.45365,1.36672 0.45365,2.12745c0,0.18537 -0.00968,0.36836 -0.02848,0.54852c0.55095,4.21546 -1.95333,5.06833 -4.52659,4.45037c-2.01456,-0.4838 -4.0714,-1.86913 -4.73753,-3.24828c-5.13759,-10.63654 -6.69977,-25.39949 -14.29387,-34.6958c-0.74019,-0.90614 -5.46734,-0.60867 -5.77053,-0.62476c-5.10301,-0.27104 -8.16211,-0.27364 -14.78875,-0.55108c-5.30212,-0.22198 -5.6461,-5.99624 -2.39855,-9.38459c3.37285,-3.51911 13.03041,-1.14279 16.74827,-0.39575c4.17809,0.83953 9.73316,0.17544 13.28481,3.34061c1.65089,1.47126 3.61807,8.3972 4.3122,9.75855c4.67507,9.16868 9.39715,18.51188 11.74529,28.67475z" data-paper-data="{&quot;index&quot;:null}"/></g><g fill="#c74040" stroke="none" stroke-linecap="butt"><path d="M193.81399,165.45158c0,-3.78673 5.80923,-6.85646 12.97532,-6.85646c7.16609,0 12.97532,3.06975 12.97532,6.85646c0,3.78673 -5.80923,6.85647 -12.97532,6.85647c-7.16609,0 -12.97532,-3.06973 -12.97532,-6.85647z" stroke-width="NaN"/><path d="M253.40272,165.55228c0,-3.78673 5.80923,-6.85647 12.9753,-6.85647c7.16607,0 12.9753,3.06976 12.9753,6.85647c0,3.78673 -5.80924,6.85646 -12.9753,6.85646c-7.16609,0 -12.9753,-3.06973 -12.9753,-6.85646z" stroke-width="NaN"/><path d="M205.45538,172.30806v-13.71293h61.11734v13.71293z" stroke-width="0"/></g><path d="M198.74782,151.51018c1.50317,-1.38366 2.41852,-8.2693 3.51617,-10.80772c5.20317,-12.03286 11.20471,-17.60784 22.79181,-17.93837c0.01562,-0.00046 0.03131,-0.00095 0.04702,-0.00154c0.14135,0.03427 0.28727,0.05339 0.43653,0.05584c0.01109,0.00007 0.02206,0.00016 0.03294,0.00027c3.62503,0.04031 7.25022,0.06633 10.87547,0.0771c2.6135,3.22173 2.55893,5.28998 -0.16368,8.55986c-1.62927,1.95675 -4.58891,0.57674 -6.89264,0.62564c-6.57153,0.13949 -11.83802,0.61594 -16.27488,6.14089c-4.23181,5.26961 -11.46455,27.5699 -13.6524,33.91355c-0.71576,2.0753 -6.24839,7.85646 -8.15869,3.84139c-1.22833,-0.87063 -2.0523,-2.47651 -2.0523,-4.31349c0,-1.78645 0.7793,-3.35428 1.95185,-4.23997c2.69967,-5.90202 7.07974,-15.48728 7.54278,-15.91348z" fill="#bd2222" stroke="none" stroke-width="0.5" stroke-linecap="butt"/><path d="M280.91398,166.80685c1.17258,0.88566 1.95186,2.45352 1.95186,4.23997c0,1.83698 -0.82401,3.44286 -2.05231,4.3135c-1.91033,4.01506 -7.44295,-1.76612 -8.15869,-3.84142c-2.18785,-6.34365 -9.42057,-28.64392 -13.6524,-33.91353c-4.43684,-5.52495 -9.70335,-6.0014 -16.27488,-6.14089c-2.30373,-0.0489 -5.26338,1.33109 -6.89264,-0.62564c-2.54617,-3.05796 -2.75888,-5.065 -0.63818,-7.94737c5.82827,0.02294 11.65666,0.00669 17.48466,-0.05286c0.101,0.01612 0.20144,0.03144 0.3013,0.0459c7.87371,1.8919 12.63745,7.40752 16.87237,17.20114c1.09763,2.53841 2.01299,9.42406 3.51617,10.80774c0.46303,0.42622 4.84308,10.01145 7.54277,15.91347z" data-paper-data="{&quot;index&quot;:null}" fill="#bd2222" stroke="none" stroke-width="0.5" stroke-linecap="butt"/><path d="M262.84371,137.62838c-0.42207,1.01382 -1.26623,0.50692 -1.26623,0.50692l-0.34177,-0.20963c-5.26082,-2.54594 -10.24336,-3.49389 -15.57412,-5.40817c-2.98605,-0.08061 -6.00734,0.0284 -9.08312,0.0284c-8.08969,0 -15.35155,1.95208 -23.15993,3.94719c0,0 -0.92353,0.2335 -1.11796,-0.87567c-0.19441,-1.10917 0.72911,-1.34269 0.72911,-1.34269c0.72933,-0.18229 1.45398,-0.36477 2.17497,-0.5459c-0.23334,-0.77519 0.3894,-1.27379 0.3894,-1.27379c5.81399,-4.62654 13.96375,-2.51067 20.53183,-3.16803c8.27485,-0.00689 17.00219,1.0113 25.24424,1.9904l0.11276,-0.00565c0,0 0.9438,0 0.9438,1.1335c0,1.1335 -0.9438,1.1335 -0.9438,1.1335l-0.30058,-0.00562c-0.46317,-0.05629 -0.92797,-0.11256 -1.3942,-0.16864c0.15107,0.23309 0.24712,0.57584 0.09839,1.05218c-0.05397,0.17292 -0.12264,0.30709 -0.19977,0.41057c0.74622,0.30534 1.49574,0.63423 2.25001,0.99353l0.48489,0.2868c0,0 0.84414,0.50692 0.42207,1.52074zM219.58601,132.64949c1.48332,-0.35274 2.96044,-0.68554 4.44124,-0.98406c-1.542,0.14568 -3.04061,0.43733 -4.44124,0.98406z" fill="#bd2222" stroke="none" stroke-width="0.5" stroke-linecap="butt"/><g data-paper-data="{&quot;index&quot;:null}" fill="#ff3b3b" stroke="#000000" stroke-width="0" stroke-linecap="butt"><path d="M269.73346,128.88002c0.28537,0.39908 0.59456,0.82897 0.9165,1.28273c0.26748,-0.25313 0.74085,-0.25975 1.28654,0.02904c1.29269,0.68416 2.96266,4.28501 3.63292,5.64911c0.75323,1.53296 2.0451,3.3364 2.28549,4.96274c0.11176,0.75595 -0.59891,2.33874 -0.67311,2.7545c-0.49955,2.80032 -1.01756,5.63969 -2.17507,7.77891c-0.0433,0.18417 -0.12625,0.33463 -0.25034,0.43492c-0.03019,0.02444 -0.06214,0.04527 -0.09553,0.06259c-0.4205,0.54816 -0.89668,0.28966 -1.29724,-0.26778c-0.59942,-0.34912 -1.51784,-2.70894 -1.7036,-3.23604c-0.43309,-1.22864 -1.3107,-2.12904 -2.02175,-3.23724c-3.85188,-6.00322 -5.28188,-7.77718 -10.98327,-16.88654c-1.01767,-1.626 -3.188,-6.18582 -0.44619,-4.96525c0.3587,0.15971 0.67841,0.61442 0.96968,1.16997c0.09343,-0.30021 0.27098,-0.55028 0.54769,-0.73924c0.59744,-0.40785 1.50882,-0.0784 2.24196,-0.0922c3.18331,-0.0598 5.10077,1.57345 7.76539,5.29986z"/><path d="M256.87032,122.28744c2.15813,-0.54054 4.6883,-0.16504 7.17997,0.21758c0.36998,0.05681 1.91887,-0.18669 2.51055,0.18129c1.27301,0.7917 2.34824,2.77022 3.37535,4.08181c0.91396,1.16714 3.3592,4.14136 3.50379,5.75348c0.13917,1.55228 -0.87601,2.19642 -2.04188,0.42082c-1.45711,-2.21913 -2.10927,-3.26018 -3.24072,-4.96153c-0.0672,-0.10104 -1.02579,-1.74945 -1.33134,-1.88199c-3.13441,-1.35944 -5.87543,0.0552 -8.70506,-0.29129c-0.36687,-0.04491 -1.03109,-0.56251 -1.53922,-1.18448c-0.64904,-0.79451 -1.04347,-1.75942 -0.23846,-2.12764c0.02535,-0.03017 0.05314,-0.05758 0.0834,-0.08204c0.1241,-0.10029 0.27636,-0.13994 0.44367,-0.12602z" data-paper-data="{&quot;index&quot;:null}"/></g><g data-paper-data="{&quot;index&quot;:null}" fill="#ff6e3b" stroke="#000000" stroke-width="0" stroke-linecap="butt"><path d="M202.27621,129.96961c2.66459,-3.72641 4.58209,-5.35966 7.76542,-5.29986c0.73317,0.01381 1.64452,-0.31566 2.24198,0.0922c0.27671,0.18896 0.45428,0.43905 0.54768,0.73924c0.29127,-0.55555 0.61096,-1.01026 0.96966,-1.16997c2.74179,-1.22057 0.57151,3.33923 -0.44619,4.96525c-5.70141,9.10935 -7.13141,10.88329 -10.98329,16.88653c-0.71102,1.10817 -1.58864,2.0086 -2.02175,3.23724c-0.18578,0.5271 -1.10421,2.88694 -1.70362,3.23603c-0.40053,0.55743 -0.87669,0.81594 -1.29724,0.26778c-0.03341,-0.01732 -0.06534,-0.03816 -0.09553,-0.0626c-0.1241,-0.10029 -0.20704,-0.25075 -0.25034,-0.43492c-1.15752,-2.13922 -1.67551,-4.97855 -2.17507,-7.7789c-0.07417,-0.41576 -0.78485,-1.99856 -0.67309,-2.75451c0.24039,-1.62634 1.53226,-3.42975 2.28549,-4.96271c0.67022,-1.36409 2.34023,-4.96496 3.63292,-5.64914c0.54568,-0.28879 1.01904,-0.28217 1.28654,-0.02904c0.32193,-0.45376 0.63113,-0.88362 0.9165,-1.2827z"/><path d="M215.1393,123.37686c0.1673,-0.01392 0.3196,0.02574 0.4437,0.12603c0.03027,0.02444 0.05803,0.05186 0.0834,0.08204c0.80501,0.36822 0.41057,1.33313 -0.23847,2.12764c-0.50813,0.62197 -1.17238,1.13955 -1.53924,1.18448c-2.82963,0.34649 -5.57062,-1.06816 -8.70503,0.29129c-0.30554,0.13253 -1.26414,1.78094 -1.33133,1.88199c-1.13145,1.70138 -1.78363,2.74242 -3.24073,4.96156c-1.16586,1.7756 -2.18105,1.13146 -2.04188,-0.42082c0.14459,-1.61212 2.58986,-4.58635 3.50382,-5.75349c1.02713,-1.31157 2.10231,-3.2901 3.37534,-4.0818c0.5917,-0.36798 2.14063,-0.12448 2.51058,-0.18129c2.49167,-0.38262 5.02181,-0.75811 7.17996,-0.21758z" data-paper-data="{&quot;index&quot;:null}"/></g><path d="M252.24565,124.74667v-28.43253" fill="#bd2222" stroke="#bd2222" stroke-width="1.5" stroke-linecap="round"/><path d="M241.95528,125.31174v-12.49308" fill="#bd2222" stroke="#bd2222" stroke-width="1.5" stroke-linecap="round"/><path d="M239.72872,110.8291c0,-1.56504 1.05635,-2.83373 2.35946,-2.83373c1.30311,0 2.35946,1.26869 2.35946,2.83373c0,1.56504 -1.05635,2.83374 -2.35946,2.83374c-1.30311,0 -2.35946,-1.2687 -2.35946,-2.83374z" fill="#fa6a6a" stroke="none" stroke-width="0.5" stroke-linecap="butt"/><path d="M249.52612,94.96947c0,-1.56504 1.05635,-2.83374 2.35946,-2.83374c1.30311,0 2.35946,1.2687 2.35946,2.83374c0,1.56504 -1.05635,2.83374 -2.35946,2.83374c-1.30311,0 -2.35946,-1.2687 -2.35946,-2.83374z" fill="#fa6a6a" stroke="none" stroke-width="0.5" stroke-linecap="butt"/><g fill="#bd2222" stroke="none" stroke-linecap="butt"><path d="M152.95538,201.24716c0,-16.47401 11.67972,-29.82882 26.08739,-29.82882c14.40767,0 26.0874,13.35481 26.0874,29.82882c0,16.47401 -11.67973,29.8288 -26.0874,29.8288c-14.40767,0 -26.08739,-13.35482 -26.08739,-29.8288z" stroke-width="NaN"/><path d="M272.76097,201.40424c0,-16.47401 11.67973,-29.8288 26.0874,-29.8288c14.40767,0 26.08739,13.35481 26.08739,29.8288c0,16.47401 -11.67972,29.8288 -26.08739,29.8288c-14.40767,0 -26.0874,-13.35482 -26.0874,-29.8288z" stroke-width="NaN"/><path d="M176.36088,231.076v-59.65762h122.87893v59.65762z" stroke-width="0"/></g><g fill="#db4747" stroke="none" stroke-linecap="butt"><path d="M160.4543,201.21166c0,-12.96897 10.51341,-23.48238 23.48238,-23.48238c12.96897,0 23.48239,10.51341 23.48239,23.48238c0,12.96897 -10.51342,23.48236 -23.48239,23.48236c-12.96897,0 -23.48238,-10.51341 -23.48238,-23.48236z" stroke-width="NaN"/><path d="M268.29643,201.55653c0,-12.96897 10.51342,-23.48236 23.48239,-23.48236c12.96895,0 23.48236,10.51339 23.48236,23.48236c0,12.96897 -10.51341,23.48238 -23.48236,23.48238c-12.96897,0 -23.48239,-10.51341 -23.48239,-23.48238z" stroke-width="NaN"/><path d="M181.52261,224.69404v-46.96474h110.60855v46.96474z" stroke-width="0"/></g><g fill="#c74040" stroke="none" stroke-linecap="butt"><path d="M168.97661,218.16613c0,-3.78673 9.45416,-6.85647 21.11644,-6.85647c11.6623,0 21.11644,3.06976 21.11644,6.85647c0,3.78673 -9.45414,6.85646 -21.11644,6.85646c-11.6623,0 -21.11644,-3.06973 -21.11644,-6.85646z" stroke-width="NaN"/><path d="M265.95322,218.26683c0,-3.78673 9.45414,-6.85646 21.11644,-6.85646c11.66228,0 21.11642,3.06975 21.11642,6.85646c0,3.78673 -9.45414,6.85647 -21.11642,6.85647c-11.6623,0 -21.11644,-3.06973 -21.11644,-6.85647z" stroke-width="NaN"/><path d="M187.92221,225.02262v-13.71293h99.46432v13.71293z" stroke-width="0"/></g><path d="M170.18702,201.32444c0,-11.41891 9.25684,-20.67574 20.67574,-20.67574c11.41891,0 20.67574,9.25685 20.67574,20.67574c0,11.41891 -9.25682,20.67576 -20.67574,20.67576c-11.41891,0 -20.67574,-9.25684 -20.67574,-20.67576z" fill="#bd2222" stroke="none" stroke-width="0" stroke-linecap="butt"/><path d="M260.74681,201.06548c0,-11.41891 9.25684,-20.67574 20.67576,-20.67574c11.4189,0 20.67574,9.25685 20.67574,20.67574c0,11.41891 -9.25684,20.67574 -20.67574,20.67574c-11.41892,0 -20.67576,-9.25684 -20.67576,-20.67574z" fill="#bd2222" stroke="none" stroke-width="0" stroke-linecap="butt"/><path d="M215.27178,201.19302c0,-11.41891 9.25684,-20.67574 20.67574,-20.67574c11.41891,0 20.67576,9.25684 20.67576,20.67574c0,11.41891 -9.25684,20.67576 -20.67576,20.67576c-11.41891,0 -20.67574,-9.25684 -20.67574,-20.67576z" fill="#bd2222" stroke="none" stroke-width="0" stroke-linecap="butt"/><path d="M178.86049,201.12631c0,-6.68258 5.41728,-12.09985 12.09985,-12.09985c6.68258,0 12.09985,5.41729 12.09985,12.09985c0,6.68258 -5.41729,12.09987 -12.09985,12.09987c-6.68258,0 -12.09985,-5.41731 -12.09985,-12.09987z" fill="#fa5050" stroke="none" stroke-width="0" stroke-linecap="butt"/><path d="M224.20323,201.81531c0,-6.68258 5.41729,-12.09986 12.09985,-12.09986c6.68258,0 12.09985,5.41729 12.09985,12.09986c0,6.68258 -5.41728,12.09987 -12.09985,12.09987c-6.68258,0 -12.09985,-5.41731 -12.09985,-12.09987z" fill="#fa5050" stroke="none" stroke-width="0" stroke-linecap="butt"/><path d="M270.13741,201.91291c0,-6.68258 5.41728,-12.09985 12.09985,-12.09985c6.68259,0 12.09985,5.41729 12.09985,12.09985c0,6.68258 -5.41729,12.09987 -12.09985,12.09987c-6.68259,0 -12.09985,-5.41729 -12.09985,-12.09987z" fill="#fa5050" stroke="none" stroke-width="0" stroke-linecap="butt"/><path d="M200.14314,206.67873c-2.83373,0 -2.83374,-2.83373 -2.83374,-2.83373v-0.58298c0.00326,-6.28405 -0.56271,-8.27786 -7.27114,-8.24275c0,0 -2.83374,0 -2.83374,-2.83373c0,-2.83373 2.83374,-2.83374 2.83374,-2.83374c9.74556,0.04208 12.93406,4.60895 12.93862,13.91022v0.58298c0,0 0,2.83373 -2.83374,2.83373z" fill="#fa6a6a" stroke="none" stroke-width="0.5" stroke-linecap="butt"/><path d="M245.69364,206.74756c-2.83373,0 -2.83374,-2.83374 -2.83374,-2.83374v-0.58295c0.00326,-6.28403 -0.56271,-8.27787 -7.27112,-8.24277c0,0 -2.83374,0 -2.83374,-2.83374c0,-2.83373 2.83374,-2.83374 2.83374,-2.83374c9.74556,0.04208 12.93404,4.60895 12.93859,13.91025v0.58295c0,0 0,2.83374 -2.83374,2.83374z" fill="#fa6a6a" stroke="none" stroke-width="0.5" stroke-linecap="butt"/><path d="M291.45277,207.65097c-2.83373,0 -2.83373,-2.83373 -2.83373,-2.83373v-0.58295c0.00326,-6.28402 -0.56271,-8.27787 -7.27112,-8.24278c0,0 -2.83374,0 -2.83374,-2.83374c0,-2.83373 2.83374,-2.83374 2.83374,-2.83374c9.74556,0.04208 12.93404,4.60895 12.93859,13.91025v0.58295c0,0 0,2.83373 -2.83374,2.83373z" fill="#fa6a6a" stroke="none" stroke-width="0.5" stroke-linecap="butt"/><path d="M166.48457,183.1316c0.38036,7.13814 -0.29693,7.22383 -0.29693,7.22383l-0.86704,0.10972c-4.00788,0.44606 -8.08206,0.00071 -12.09595,0.50869c0,0 -0.67731,0.08571 -1.05765,-7.05242c-0.38036,-7.13814 0.29693,-7.22383 0.29693,-7.22383c4.01291,-0.50788 8.09619,0.06492 12.09598,-0.50874l0.86701,-0.10972c0,0 0.67729,-0.08569 1.05764,7.05245z" fill="#fc9b2d" stroke="none" stroke-width="0.5" stroke-linecap="butt"/><path d="M324.83628,185.45964c0.12269,7.16173 -0.55455,7.18948 -0.55455,7.18948l-0.86696,0.0355c-4.00541,0.10308 -8.04482,-0.68976 -12.05846,-0.52536c0,0 -0.67727,0.02777 -0.79998,-7.13396c-0.12269,-7.16173 0.55455,-7.18948 0.55455,-7.18948c4.01261,-0.1644 8.05655,0.75654 12.05846,0.52535l0.86696,-0.03552c0,0 0.67724,-0.02777 0.79995,7.13397z" fill="#fcbb71" stroke="none" stroke-width="0.5" stroke-linecap="butt"/><path d="M172.79438,235.44012v-8.48346h131.77639v8.48346z" fill="#7e1717" stroke="none" stroke-width="0" stroke-linecap="butt"/><path d="M246.88579,151.35877c4.94646,-2.70603 1.47304,-7.00164 -1.24887,-10.40931c-5.36848,-2.88046 -14.75166,-3.26714 -20.23328,0.41139c-2.68471,1.80162 -3.89567,9.22592 -2.55481,12.00026c0.97508,2.0176 3.80961,2.61926 5.66483,3.31214c0,0 1.50437,0.56414 1.57374,2.00185c0.27081,0.57516 0.27081,1.13354 0.27081,1.13354c0,0.61801 -0.43721,6.86265 0.1542,6.97716c0.68213,0.13207 1.72076,0.55915 2.08411,-0.03308c0.48872,-0.79653 -0.19759,-2.28707 0.62353,-2.73331c1.34142,-0.72895 3.07109,-0.33201 4.57914,-0.09397c1.04168,0.16442 2.09183,2.46576 2.7189,1.61784c0.6181,-0.83577 0.32933,-2.54766 1.33267,-2.81941c1.49631,-0.40523 4.80626,2.75133 4.48365,1.23506c-0.68223,-3.20677 -2.14264,-5.77373 -2.16583,-9.32223v-0.30423c0,0 0,-2.00259 1.83935,-2.32908zM218.51686,155.30399c-2.46105,-4.8451 -0.22762,-14.74362 4.13826,-17.81426c7.24782,-5.09767 18.96998,-4.20374 26.00971,-0.19709c4.99289,5.81986 8.82431,13.3307 0.57652,18.18833l-0.22983,0.17782c0.47602,2.81925 2.55038,7.25169 1.99817,9.12656c-1.05535,3.58293 -4.03273,4.99894 -7.38109,3.95599c0.04081,0.23384 0.01098,0.42936 -0.18868,0.54423c-1.28919,0.7416 -2.96282,0.61109 -4.44012,0.43925c-1.14887,-0.13361 -2.64791,-3.09378 -2.86489,-1.95771c-0.92327,4.83419 -8.14684,5.11238 -10.38252,0.15123c-0.70918,-1.57377 -0.28278,-5.07169 -0.1678,-7.27314c-2.88123,-1.0921 -5.50632,-2.26742 -7.06766,-5.34127zM243.33701,167.76102c0.00757,-0.42273 0.06058,-0.76985 -0.01294,-0.52376c-0.04686,0.1569 -0.03065,0.33658 0.01294,0.52376z" fill="#cfcfcf" stroke="none" stroke-width="0.5" stroke-linecap="butt"/><path d="M233.91876,151.71409c0.20424,0.51484 0.23085,1.1774 -0.22257,1.97088c-1.17774,2.06106 -3.23883,0.88331 -3.23883,0.88331c-0.32448,-0.18591 -0.81458,-0.45494 -1.36718,-0.77155c-0.099,-0.04686 -0.19097,-0.10061 -0.27636,-0.15941c-1.46762,-0.85248 -3.23685,-1.98155 -3.54865,-2.78198c-1.27797,-3.28018 -0.10129,-7.33112 4.17448,-7.41416c4.65304,-0.09034 6.47242,5.42404 4.47914,8.27288z" fill="#cfcfcf" stroke="none" stroke-width="0.5" stroke-linecap="butt"/><path d="M241.6811,141.98427c4.27579,0.08301 5.45244,4.13394 4.1745,7.41416c-0.31187,0.80039 -2.08105,1.92949 -3.54868,2.78199c-0.08537,0.05883 -0.17737,0.11256 -0.27634,0.15939c-0.55258,0.31663 -1.04271,0.5856 -1.36718,0.77154c0,0 -2.06108,1.17778 -3.23882,-0.8833c-0.45342,-0.79347 -0.42681,-1.456 -0.22257,-1.97088c-1.99334,-2.84884 -0.17392,-8.36321 4.4791,-8.27287z" data-paper-data="{&quot;index&quot;:null}" fill="#cfcfcf" stroke="none" stroke-width="0.5" stroke-linecap="butt"/><path d="M52.11316,185.75843l93.90126,-45.01613l-0.80832,91.07075l-93.90126,-45.01613" data-paper-data="{&quot;index&quot;:null}" fill="#989898" stroke="#989898" stroke-width="2.5" stroke-linecap="round"/><path d="M51.44444,185.14211l1.38719,-0.51203c3.86358,-1.18875 7.67288,-2.79015 11.31968,-4.48021c4.06331,-1.86195 7.97327,-4.23636 11.86359,-6.47581c0.78059,-0.44934 1.27237,-1.323 2.13734,-1.6119c3.90988,-1.30589 8.53097,-3.26254 11.99748,-5.66771c2.61985,-1.45176 5.71865,-2.34248 8.22411,-3.80485c1.19886,-0.69974 2.24123,-1.66654 3.56409,-2.27496c2.58355,-1.18826 5.66256,-1.48492 8.15758,-2.76228c2.93621,-1.50324 5.58208,-3.52449 8.39471,-5.25625c4.7171,-2.18384 10.18102,-3.39403 14.6442,-6.00448c3.66029,-2.14085 7.74061,-5.17782 12.09542,-5.90981l-0.05388,-0.24884l1.33965,-0.24745c0.06946,-0.01415 0.14165,-0.02161 0.21572,-0.02161c0.55065,0 0.99703,0.41227 0.99703,0.92083c0,0.15466 -0.04128,0.30041 -0.11423,0.42838l-0.72705,1.34296c0.10729,4.56215 -0.9714,9.38927 -0.25623,13.92527c0.49921,3.16628 0.55357,6.17911 0.55357,9.42137c0,2.09489 0.76988,4.20924 -2.26571,4.68467c-1.44417,0.22618 -1.72871,-0.44686 -2.86243,-0.79952c-1.52457,-0.47425 -3.28989,-0.62551 -4.80091,-0.97951c-1.40032,-0.32806 -3.4952,0.02463 -4.9394,0.02463c-5.18155,0 -10.08596,0.10097 -15.20404,0.74747c-1.90844,0.23834 -3.93981,0.03254 -5.8134,0.40835c-3.45782,0.69359 -6.64503,2.11776 -9.97502,3.07644c-3.33015,0.95873 -6.97814,1.31707 -10.39598,2.02423c-3.20151,0.6624 -6.35773,1.96144 -9.47318,2.921c-5.6968,1.75379 -11.24688,3.75687 -16.70217,6.05577c-2.26573,0.95479 -4.23546,2.76226 -6.7251,3.3294c-1.94209,0.44241 -4.19932,-0.0481 -6.09946,-0.48613c-0.30204,0.03722 -0.79276,-0.00277 -1.03861,-0.57043c-0.37029,-0.85496 0.55543,-1.19695 0.55543,-1.19695z" data-paper-data="{&quot;index&quot;:null}" fill="#a0a0a0" stroke="none" stroke-width="0.5" stroke-linecap="butt"/><path d="M50.74366,186.87953c0.24659,-0.56766 0.73877,-0.60766 1.0417,-0.57044c1.9058,-0.43803 4.16974,-0.92854 6.11762,-0.48613c2.49705,0.56714 4.47264,2.37461 6.74511,3.3294c5.47153,2.2989 11.03813,4.30199 16.75189,6.05577c3.12473,0.95955 6.29034,2.25861 9.50138,2.921c3.42801,0.70715 7.08687,1.0655 10.42693,2.02422c3.3399,0.95868 6.5366,2.38285 10.00471,3.07645c1.87917,0.37582 3.91658,0.17002 5.8307,0.40835c5.13332,0.6465 10.05233,0.74747 15.2493,0.74747c1.4485,0 3.54961,0.3527 4.9541,0.02463c1.51551,-0.354 3.28609,-0.50526 4.8152,-0.97951c1.1371,-0.35267 1.42248,-1.0257 2.87096,-0.79952c3.04463,0.47542 2.27246,2.58978 2.27246,4.68467c0,3.24226 -0.05452,6.25509 -0.55522,9.42137c-0.7173,4.53601 0.36459,9.36312 0.25699,13.92527l0.72922,1.34296c0.07316,0.12796 0.11457,0.27372 0.11457,0.42837c0,0.50856 -0.44772,0.92083 -1,0.92083c-0.07429,0 -0.14669,-0.00746 -0.21636,-0.02161l-1.34364,-0.24745l0.05405,-0.24884c-4.36777,-0.732 -8.46023,-3.76896 -12.13142,-5.90982c-4.47647,-2.61046 -9.95665,-3.82064 -14.68779,-6.00448c-2.821,-1.73176 -5.47475,-3.75302 -8.4197,-5.25626c-2.50245,-1.27736 -5.59062,-1.57402 -8.18186,-2.76228c-1.32679,-0.60842 -2.37227,-1.57522 -3.57469,-2.27496c-2.51292,-1.46238 -5.62095,-2.35309 -8.2486,-3.80485c-3.47683,-2.40517 -8.11168,-4.36182 -12.0332,-5.66771c-0.86755,-0.2889 -1.36079,-1.16256 -2.1437,-1.61191c-3.9019,-2.23945 -7.8235,-4.61386 -11.8989,-6.47581c-3.65766,-1.69006 -7.47829,-3.29146 -11.35337,-4.48021l-1.39132,-0.51204c0,0 -0.92848,-0.34199 -0.55709,-1.19695z" fill="#878787" stroke="none" stroke-width="0.5" stroke-linecap="butt"/><path d="M62.44864,193.50804c-0.7071,-0.7509 0,-1.5018 0,-1.5018l0.67869,-0.69843c1.29579,-3.01153 1.52201,-4.99432 1.01589,-8.22873c-0.16787,-1.07284 0.27387,-2.30693 -0.7888,-2.27706c0,0 -0.98058,-0.20826 -0.78446,-1.24957c0.19612,-1.04131 1.17669,-0.83305 1.17669,-0.83305c2.25606,0.68536 2.01014,1.72803 2.36952,4.01153c0.59714,3.7943 0.23299,6.30668 -1.35285,9.79857l-0.90047,0.97853c0,0 -0.7071,0.7509 -1.41421,0z" fill="#888888" stroke="none" stroke-width="0.5" stroke-linecap="butt"/><path d="M70.52138,197.69434c-0.7071,-1.1431 0,-2.28621 0,-2.28621l0.67868,-1.06322c1.29579,-4.58447 1.52201,-7.60289 1.01589,-12.52665c-0.16787,-1.63319 0.27387,-3.51186 -0.7888,-3.46638c0,0 -0.98058,-0.31704 -0.78446,-1.90223c0.19612,-1.58519 1.17669,-1.26816 1.17669,-1.26816c2.25606,1.04333 2.01014,2.63059 2.36952,6.10679c0.59714,5.77608 0.23299,9.6007 -1.35285,14.91644l-0.90047,1.48963c0,0 -0.7071,1.1431 -1.41421,0z" fill="#888888" stroke="none" stroke-width="0.5" stroke-linecap="butt"/><path d="M79.13635,201.4431c-0.7071,-1.55141 0,-3.10282 0,-3.10282l0.67868,-1.443c1.29579,-6.22202 1.52201,-10.31859 1.01589,-17.0011c-0.16787,-2.21655 0.27387,-4.76627 -0.7888,-4.70455c0,0 -0.98058,-0.43029 -0.78446,-2.5817c0.19612,-2.15141 1.17669,-1.72114 1.17669,-1.72114c2.25606,1.416 2.01014,3.57023 2.36952,8.2881c0.59714,7.83926 0.23299,13.03001 -1.35285,20.2445l-0.90047,2.02171c0,0 -0.7071,1.55141 -1.41421,0z" fill="#888888" stroke="none" stroke-width="0.5" stroke-linecap="butt"/><path d="M87.92027,205.39146c-0.7071,-1.96986 0,-3.93973 0,-3.93973l0.67869,-1.83222c1.29579,-7.90025 1.522,-13.10177 1.01589,-21.58673c-0.16787,-2.81442 0.27388,-6.05186 -0.78879,-5.97348c0,0 -0.98058,-0.54634 -0.78446,-3.27805c0.19612,-2.73171 1.17669,-2.18537 1.17669,-2.18537c2.25606,1.79794 2.01014,4.53321 2.36952,10.5236c0.59714,9.95371 0.23299,16.54454 -1.35285,25.70496l-0.90047,2.56702c0,0 -0.70711,1.96986 -1.41421,0z" fill="#888888" stroke="none" stroke-width="0.5" stroke-linecap="butt"/><path d="M96.30935,208.97892c-0.7071,-2.35086 0,-4.70174 0,-4.70174l0.67869,-2.1866c1.29579,-9.42829 1.522,-15.63586 1.01589,-25.76195c-0.16787,-3.35877 0.27388,-7.22239 -0.78879,-7.12885c0,0 -0.98058,-0.65201 -0.78446,-3.91207c0.19612,-3.26006 1.17669,-2.60805 1.17669,-2.60805c2.25606,2.14568 2.01014,5.41 2.36952,12.55903c0.59714,11.87892 0.23299,19.74451 -1.35285,30.67671l-0.90047,3.06352c0,0 -0.70711,2.35086 -1.41421,0z" fill="#888888" stroke="none" stroke-width="0.5" stroke-linecap="butt"/><path d="M104.13643,212.7687c-0.7071,-2.714 0,-5.42803 0,-5.42803l0.67869,-2.52437c1.29579,-10.88471 1.522,-18.05118 1.01589,-29.74147c-0.16787,-3.87761 0.27388,-8.33805 -0.78879,-8.23006c0,0 -0.98058,-0.75272 -0.78446,-4.51638c0.19612,-3.76366 1.17669,-3.01093 1.17669,-3.01093c2.25606,2.47713 2.01014,6.24569 2.36952,14.49906c0.59714,13.71389 0.23299,22.79451 -1.35285,35.41543l-0.90047,3.53676c0,0 -0.70711,2.714 -1.41421,0z" fill="#888888" stroke="none" stroke-width="0.5" stroke-linecap="butt"/><path d="M112.68953,216.5329c-0.7071,-3.13527 0,-6.27056 0,-6.27056l0.67869,-2.9162c1.29579,-12.57422 1.522,-20.85307 1.01589,-34.35791c-0.16787,-4.47949 0.27388,-9.63227 -0.78879,-9.50752c0,0 -0.98058,-0.86956 -0.78446,-5.21741c0.19612,-4.34785 1.17669,-3.47828 1.17669,-3.47828c2.25606,2.86163 2.01014,7.21514 2.36952,16.74959c0.59714,15.84255 0.23299,26.33265 -1.35285,40.91257l-0.90047,4.08573c0,0 -0.70711,3.13527 -1.41421,0z" fill="#888888" stroke="none" stroke-width="0.5" stroke-linecap="butt"/><path d="M121.41311,220.71791c-0.7071,-3.55776 0,-7.11556 0,-7.11556l0.67869,-3.30917c1.29579,-14.26866 1.52201,-23.66313 1.01589,-38.98782c-0.16787,-5.08312 0.27388,-10.93027 -0.78879,-10.78871c0,0 -0.98058,-0.98674 -0.78446,-5.92049c0.19612,-4.93374 1.17669,-3.947 1.17669,-3.947c2.25606,3.24725 2.01014,8.18742 2.36952,19.00669c0.59715,17.97742 0.23299,29.88112 -1.35285,46.42576l-0.90047,4.6363c0,0 -0.70711,3.55776 -1.41421,0z" fill="#888888" stroke="none" stroke-width="0.5" stroke-linecap="butt"/><path d="M130.16358,224.42777c-0.70711,-3.93395 0,-7.86793 0,-7.86793l0.67869,-3.65908c1.29579,-15.77739 1.52201,-26.16521 1.01589,-43.11028c-0.16788,-5.6206 0.27387,-12.08601 -0.7888,-11.92948c0,0 -0.98058,-1.09108 -0.78446,-6.5465c0.19611,-5.45542 1.17669,-4.36434 1.17669,-4.36434c2.25606,3.59061 2.01014,9.05313 2.36952,21.01639c0.59715,19.8783 0.23299,33.04066 -1.35285,51.33469l-0.90047,5.12653c0,0 -0.7071,3.93395 -1.41421,0z" fill="#888888" stroke="none" stroke-width="0.5" stroke-linecap="butt"/><path d="M139.30883,228.41845c-0.70711,-4.38472 0,-8.76948 0,-8.76948l0.67869,-4.07835c1.29579,-17.58524 1.522,-29.16333 1.01589,-48.05005c-0.16788,-6.26464 0.27388,-13.47088 -0.78879,-13.29642c0,0 -0.98058,-1.2161 -0.78447,-7.29663c0.19611,-6.08053 1.1767,-4.86443 1.1767,-4.86443c2.25606,4.00203 2.01013,10.09048 2.36951,23.42455c0.59715,22.15604 0.23299,36.82661 -1.35285,57.21685l-0.90047,5.71395c0,0 -0.7071,4.38472 -1.41421,0z" fill="#888888" stroke="none" stroke-width="0.5" stroke-linecap="butt"/><path d="M60.5072,192.70344c-0.7071,-0.65112 0,-1.30224 0,-1.30224l0.67868,-0.60562c1.29579,-2.61136 1.52201,-4.33068 1.01589,-7.1353c-0.16787,-0.93028 0.27387,-2.00039 -0.7888,-1.97448c0,0 -0.98058,-0.18059 -0.78446,-1.08353c0.19612,-0.90294 1.17669,-0.72236 1.17669,-0.72236c2.25606,0.59429 2.01014,1.49841 2.36952,3.47849c0.59714,3.29011 0.23299,5.46865 -1.35285,8.49654l-0.90047,0.84851c0,0 -0.7071,0.65112 -1.41421,0z" fill="#b6b6b6" stroke="none" stroke-width="0.5" stroke-linecap="butt"/><path d="M68.46811,196.59799c-0.7071,-1.02075 0,-2.04151 0,-2.04151l0.67868,-0.94943c1.29579,-4.09379 1.52201,-6.78914 1.01589,-11.18592c-0.16787,-1.45839 0.27387,-3.13598 -0.7888,-3.09537c0,0 -0.98058,-0.28311 -0.78446,-1.69864c0.19612,-1.41553 1.17669,-1.13243 1.17669,-1.13243c2.25606,0.93166 2.01014,2.34904 2.36952,5.45317c0.59714,5.15786 0.23299,8.57313 -1.35285,13.31992l-0.90047,1.33019c0,0 -0.7071,1.02075 -1.41421,0z" fill="#b6b6b6" stroke="none" stroke-width="0.5" stroke-linecap="butt"/><path d="M77.0212,200.29074c-0.7071,-1.43546 0,-2.87093 0,-2.87093l0.67868,-1.33516c1.29579,-5.75701 1.52201,-9.54742 1.01589,-15.73051c-0.16787,-2.0509 0.27387,-4.41006 -0.7888,-4.35295c0,0 -0.98058,-0.39813 -0.78446,-2.38875c0.19612,-1.99063 1.17669,-1.59251 1.17669,-1.59251c2.25606,1.31018 2.01014,3.3034 2.36952,7.66868c0.59714,7.25339 0.23299,12.0562 -1.35285,18.73151l-0.90047,1.87062c0,0 -0.7071,1.43546 -1.41421,0z" fill="#b6b6b6" stroke="none" stroke-width="0.5" stroke-linecap="butt"/><path d="M85.5743,204.34301c-0.7071,-1.85918 0,-3.71838 0,-3.71838l0.67869,-1.72928c1.29579,-7.45638 1.522,-12.36566 1.01589,-20.37389c-0.16787,-2.65629 0.27388,-5.71184 -0.78879,-5.63787c0,0 -0.98058,-0.51564 -0.78446,-3.09387c0.19612,-2.57823 1.17669,-2.06259 1.17669,-2.06259c2.25606,1.69692 2.01014,4.27851 2.36952,9.93234c0.59714,9.39447 0.23299,15.61499 -1.35285,24.26074l-0.90047,2.42279c0,0 -0.70711,1.85918 -1.41421,0z" fill="#b6b6b6" stroke="none" stroke-width="0.5" stroke-linecap="butt"/><path d="M93.73261,207.52652c-0.7071,-2.19275 0,-4.38552 0,-4.38552l0.67869,-2.03954c1.29579,-8.79419 1.522,-14.58427 1.01589,-24.02932c-0.16787,-3.13288 0.27388,-6.73665 -0.78879,-6.6494c0,0 -0.98058,-0.60816 -0.78446,-3.64897c0.19612,-3.04081 1.17669,-2.43265 1.17669,-2.43265c2.25606,2.00138 2.01014,5.04615 2.36952,11.71437c0.59714,11.08 0.23299,18.41659 -1.35285,28.61354l-0.90047,2.85749c0,0 -0.70711,2.19275 -1.41421,0z" fill="#b6b6b6" stroke="none" stroke-width="0.5" stroke-linecap="butt"/><path d="M101.69355,211.04552c-0.7071,-2.58943 0,-5.17888 0,-5.17888l0.67869,-2.4085c1.29579,-10.38509 1.522,-17.22262 1.01589,-28.37632c-0.16787,-3.69963 0.27388,-7.95533 -0.78879,-7.8523c0,0 -0.98058,-0.71817 -0.78446,-4.30908c0.19612,-3.5909 1.17669,-2.87273 1.17669,-2.87273c2.25606,2.36343 2.01014,5.95901 2.36952,13.83355c0.59714,13.08442 0.23299,21.74823 -1.35285,33.78984l-0.90047,3.37442c0,0 -0.70711,2.58943 -1.41421,0z" fill="#b6b6b6" stroke="none" stroke-width="0.5" stroke-linecap="butt"/><path d="M110.24665,215.28757c-0.7071,-2.99512 0,-5.99027 0,-5.99027l0.67869,-2.78585c1.29579,-12.01215 1.522,-19.92094 1.01589,-32.82211c-0.16787,-4.27926 0.27388,-9.20171 -0.78879,-9.08254c0,0 -0.98058,-0.83069 -0.78446,-4.9842c0.19612,-4.1535 1.17669,-3.3228 1.17669,-3.3228c2.25606,2.73372 2.01014,6.89262 2.36952,16.00088c0.59714,15.13439 0.23299,25.15559 -1.35285,39.08379l-0.90047,3.9031c0,0 -0.70711,2.99512 -1.41421,0z" fill="#b6b6b6" stroke="none" stroke-width="0.5" stroke-linecap="butt"/><path d="M118.79972,219.16208c-0.7071,-3.40983 0,-6.81969 0,-6.81969l0.67869,-3.17158c1.29579,-13.67537 1.522,-22.67922 1.01589,-37.3667c-0.16787,-4.87177 0.27388,-10.47579 -0.78879,-10.34012c0,0 -0.98058,-0.94571 -0.78446,-5.67431c0.19612,-4.7286 1.17669,-3.78288 1.17669,-3.78288c2.25606,3.11223 2.01014,7.84699 2.36952,18.21638c0.59714,17.22992 0.23299,28.63866 -1.35285,44.49538l-0.90047,4.44352c0,0 -0.70711,3.40983 -1.41421,0z" fill="#b6b6b6" stroke="none" stroke-width="0.5" stroke-linecap="butt"/><path d="M127.55023,222.87887c-0.70711,-3.77045 0,-7.54093 0,-7.54093l0.67869,-3.507c1.29579,-15.12165 1.522,-25.07772 1.01589,-41.31852c-0.16788,-5.387 0.27387,-11.58369 -0.78879,-11.43367c0,0 -0.98058,-1.04573 -0.78447,-6.27442c0.19612,-5.22869 1.1767,-4.18295 1.1767,-4.18295c2.25605,3.44137 2.01014,8.67686 2.36952,20.14291c0.59714,19.05211 0.23299,31.66742 -1.35285,49.20111l-0.90047,4.91346c0,0 -0.70711,3.77045 -1.41421,0z" fill="#b6b6b6" stroke="none" stroke-width="0.5" stroke-linecap="butt"/><path d="M136.69547,226.55559c-0.7071,-4.22122 0,-8.44247 0,-8.44247l0.67869,-3.92627c1.29579,-16.92949 1.522,-28.07585 1.01589,-46.25829c-0.16788,-6.03103 0.27387,-12.96856 -0.78879,-12.8006c0,0 -0.98058,-1.17075 -0.78447,-7.02454c0.19612,-5.85379 1.17669,-4.68304 1.17669,-4.68304c2.25606,3.8528 2.01013,9.71421 2.36952,22.55106c0.59714,21.32986 0.23299,35.45337 -1.35285,55.08327l-0.90047,5.50088c0,0 -0.70711,4.22122 -1.41421,0z" fill="#b6b6b6" stroke="none" stroke-width="0.5" stroke-linecap="butt"/><path d="M181.96755,190.0966c0.91653,-0.75151 2.08235,-1.21668 3.56197,-1.24601c0,0 1,0 1,1c0,1 -1,1 -1,1c-0.39943,-0.01201 -0.76586,0.02887 -1.10203,0.11556c-0.16557,0.30041 -0.46598,0.45061 -0.46598,0.45061l-1.0447,0.50791c-0.04164,0.00262 -0.0824,0.00588 -0.12231,0.00977c-1.1131,1.15458 -1.63535,3.0664 -1.87861,4.92118c-0.06037,2.50561 -0.23894,5.16996 0.47107,7.57904c1.285,1.53261 2.9124,2.91671 4.00399,4.49827c0.30364,0.04135 0.60729,0.0827 0.91093,0.12404l0.10117,0.09446l0.02151,-0.04301l0.87628,0.43814c0.33825,0.16035 0.57216,0.50491 0.57216,0.90412c0,0.44984 -0.29702,0.83031 -0.70565,0.95598l-1.32161,0.44053l-0.01775,-0.05327c-0.13154,0.04586 -0.26701,0.0799 -0.40759,0.09861c-1.22183,0.16268 -3.23649,-2.33048 -3.81005,-3.0607c-0.75945,-0.96689 -1.30463,-1.95115 -1.69573,-2.95763c-0.30985,-0.38619 -0.59798,-0.78502 -0.8539,-1.20175c-0.62341,-1.01515 -0.35296,-2.92121 -0.35296,-4.07399c0,-1.10834 0.05377,-2.37738 0.22387,-3.66218c0.00002,-0.03793 0.00004,-0.0759 0.00004,-0.1139c0,-2.98305 -0.08939,-5.90467 3.03588,-6.72577z" fill="#f5f0a7" stroke="none" stroke-width="0.5" stroke-linecap="butt"/><path d="M228.96763,177.0881c0.44721,0.89443 -0.44721,1.34164 -0.44721,1.34164l-0.86812,0.32912c-1.78115,0.04739 -3.3112,0.40429 -5.03824,0.66244c-8.24175,1.23192 -17.42626,-0.2141 -25.73591,-0.21433c-4.09666,-0.00011 -8.49908,-0.71425 -12.56991,-0.23133c-2.52522,0.29957 -5.07561,1.22893 -7.5055,1.77205c-2.9725,0.6644 -6.12038,1.0973 -8.54613,3.15368c0,0 -0.76822,0.64018 -1.40841,-0.12804c-0.64019,-0.76822 0.12804,-1.40841 0.12804,-1.40841c2.73413,-2.24621 6.04218,-2.82989 9.367,-3.56373c2.49023,-0.54964 5.1292,-1.50565 7.72064,-1.81057c4.1596,-0.48943 8.62999,0.21623 12.81433,0.21634c5.99271,0.00017 11.97096,0.22399 17.96884,0.22399c2.40049,0 5.13038,0.38028 7.48961,0.00966c1.78811,-0.2809 3.41664,-0.63077 5.2618,-0.68104l0.02754,-0.11871c0,0 0.89443,-0.44721 1.34164,0.44721z" fill="#f5f0a7" stroke="none" stroke-width="0.5" stroke-linecap="butt"/><path d="M284.82777,224.10943c0,1 -1,1 -1,1h-0.22391c-5.30713,0 -10.61091,-0.22465 -15.91312,-0.22392c-7.32267,0 -14.77705,-0.42292 -22.08604,-0.0022c-3.38255,0.19471 -6.50099,1.12177 -9.91844,1.12177c0,0 -1,0 -1,-1c0,-1 1,-1 1,-1c3.36722,0 6.44479,-0.92269 9.78599,-1.11738c7.35256,-0.42843 14.85214,-0.0022 22.21849,-0.0022c5.30243,0.00072 10.60584,0.22392 15.91312,0.22392h0.22391c0,0 1,0 1,1z" fill="#f5f0a7" stroke="none" stroke-width="0.5" stroke-linecap="butt"/><path d="M278.0646,159.12311c0,-1 1,-1 1,-1h0.22392c1.50572,0 2.82052,0.1616 4.22004,-0.4139c2.75855,-0.40571 5.933,-1.14552 8.73217,-0.68762c3.90273,0.63843 6.9298,6.19 7.92482,9.39838c0.43539,1.40389 0.05131,3.537 0.05131,5.01842c0,0 0,1 -1,1c-1,0 -1,-1 -1,-1c0,-2.25518 0.13643,-4.40581 -0.61537,-6.38641c-0.28056,-0.73913 -1.10895,-1.15274 -1.4895,-1.84572c-0.93061,-1.69464 -1.99616,-3.90374 -4.24949,-4.22075c-2.52738,-0.35557 -5.34565,0.31223 -7.83747,0.65587c-1.57915,0.61602 -3.05969,0.48174 -4.73652,0.48174h-0.22392c0,0 -1,0 -1,-1z" fill="#f5f0a7" stroke="none" stroke-width="0.5" stroke-linecap="butt"/><path d="M310.00012,189.16296c-0.70711,0.70711 -1.41421,0 -1.41421,0l-0.22392,-0.22392c-2.71564,-2.72587 -3.61553,-8.36862 -8.69728,-8.21584c0,0 -1,0 -1,-1c0,-1 1,-1 1,-1c2.63475,0.05223 6.58666,2.43885 7.98946,4.70564c1.04417,1.68727 0.66415,2.64423 2.12203,4.09598l0.22391,0.22392c0,0 0.70711,0.70711 0,1.41422z" fill="#f5f0a7" stroke="none" stroke-width="0.5" stroke-linecap="butt"/><path d="M193.81012,163.05495c0.70711,0.70711 0,1.41421 0,1.41421l-0.21601,0.18854c-0.2273,0.34095 -0.45459,0.68189 -0.68189,1.02284c-0.94091,1.40798 -2.23323,4.73167 -3.56957,5.33267c-1.89864,0.85389 -5.3026,-0.16063 -7.3818,0.0504c-3.26233,0.33112 -6.51511,2.10726 -9.79708,1.70066c0,0 -0.98995,-0.14142 -0.84853,-1.13137c0.14142,-0.98995 1.13137,-0.84853 1.13137,-0.84853c2.92148,0.49941 6.33121,-1.41651 9.296,-1.70882c2.00394,-0.19758 4.23132,-0.05699 6.24618,-0.00597c0.32679,0.00827 0.91436,0.20634 0.97391,-0.11508c0.34274,-1.84995 1.21547,-2.77422 2.28542,-4.38336c0.2273,-0.34095 0.45459,-0.68189 0.68189,-1.02284l0.46589,-0.49336c0,0 0.70711,-0.70711 1.41422,0z" fill="#f5f0a7" stroke="none" stroke-width="0.5" stroke-linecap="butt"/><path d="M230.42297,131.88487c0,1 -1,1 -1,1l-0.64924,-0.00772c-3.49741,0.43606 -6.58297,1.54785 -9.80938,2.87629c-0.92373,0.38034 -2.16219,0.56973 -2.92198,1.33734c-1.7321,1.74994 -3.26869,4.85354 -4.26421,7.10867c0,0 -0.40614,0.91381 -1.31995,0.50767c-0.91381,-0.40614 -0.50767,-1.31995 -0.50767,-1.31995c1.10334,-2.46762 2.78606,-5.83286 4.70579,-7.73822c0.97775,-0.97044 2.38265,-1.26537 3.57354,-1.75576c3.37647,-1.39039 6.63343,-2.54167 10.29578,-3.0006l0.89731,-0.00772c0,0 1,0 1,1z" fill="#f5f0a7" stroke="none" stroke-width="0.5" stroke-linecap="butt"/><path d="M260.6633,141.08159c-1,0 -1,-1 -1,-1l0.0602,-0.12222c-1.01368,-2.84521 -2.71046,-3.75229 -5.64626,-3.98551c0,0 -0.99589,-0.09053 -0.90536,-1.08643c0.09053,-0.99589 1.08643,-0.90536 1.08643,-0.90536c3.70148,0.3707 6.00732,1.67827 7.34477,5.2938l0.06021,0.80571c0,0 0,1 -1,1z" fill="#f5f0a7" stroke="none" stroke-width="0.5" stroke-linecap="butt"/><path d="M201.79832,226.74654c-0.01448,0.0059 -0.02893,0.01172 -0.04339,0.01746c-2.15845,0.85686 -4.8257,-0.3978 -6.91072,-0.5717c-2.70586,-0.22568 -5.54232,0.00486 -8.25979,0.00486c-5.8754,-0.07542 -12.51167,-3.51331 -17.24985,-6.58348c-1.1211,-0.72644 -1.70729,-2.47173 -2.81624,-3.2345c-1.06097,-0.72976 -2.2669,-1.35576 -3.03654,-2.38818c0,0 -0.58124,-0.81373 0.2325,-1.39497c0.81374,-0.58124 1.39497,0.2325 1.39497,0.2325c0.58939,0.87599 1.67344,1.28883 2.53568,1.89815c0.90381,0.63869 1.80525,2.63422 2.75598,3.19499c4.52532,2.66917 10.62189,6.37542 16.1835,6.2755c2.77298,0 5.69907,-0.26207 8.45687,0.00487c1.64792,0.15951 4.29292,1.45468 5.94827,0.7142c1.71868,-0.76881 3.23004,-2.70089 4.68929,-3.7163c1.74053,-1.21115 2.40213,-0.07999 4.07694,-0.41378c1.40529,-0.28008 2.44487,-0.6576 3.94826,-0.65613c2.17237,-0.40693 3.29976,0.8287 5.36431,1.07421c3.05037,0.36274 6.66391,0.03044 9.04226,2.32456l0.97857,0.58714c0.29958,0.17273 0.50122,0.49627 0.50122,0.86692c0,0.50931 -0.38075,0.92969 -0.87313,0.99203l-1.48566,0.21223l-0.03798,-0.26589c-3.52858,0.76849 -7.30221,0.34347 -10.91138,0.9114c-4.16396,0.65523 -10.07124,1.27877 -14.15465,-0.04382l0.10191,0.05132c0,0 -0.20612,0 -0.4312,-0.09358z" fill="#f5f0a7" stroke="none" stroke-width="0.5" stroke-linecap="butt"/><path d="M293.28389,225.672c-0.00135,0.00068 -0.0027,0.00135 -0.00405,0.00203c0,0 -0.89443,0.44721 -1.34164,-0.44721c-0.44722,-0.89443 0.44721,-1.34164 0.44721,-1.34164c2.24388,-1.1202 5.40395,-2.86177 6.48817,-5.18915c0.60808,-1.30531 0.67631,-3.47443 1.58126,-4.58726c0.60523,-0.74426 1.93977,-0.2501 2.79544,-0.68375c1.58089,-0.80119 1.78308,-3.32503 4.23507,-3.34237c3.45042,-0.02441 2.2674,5.10311 2.25094,7.17327c-2.15949,6.29034 -9.98675,7.54837 -15.64157,8.51008l-0.34735,0.0136c0,0 -0.22623,0 -0.46348,-0.1076z" fill="#f5f0a7" stroke="none" stroke-width="0.5" stroke-linecap="butt"/><path d="M172.80351,229.32972c0,1 -1,1 -1,1l-1.22377,-0.01805c-1.49463,-0.57827 -3.24842,-0.93338 -4.67231,-1.64817c-4.30861,-2.16292 -7.13769,-6.41831 -9.45742,-10.47759c0,0 -0.49614,-0.86824 0.3721,-1.36438c0.86825,-0.49614 1.36438,0.3721 1.36438,0.3721c2.12437,3.71787 4.68966,7.7284 8.64915,9.69831c1.27159,0.63264 2.79868,0.90431 4.12231,1.45582l0.84556,-0.01805c0,0 1,0 1,1z" fill="#f5f0a7" stroke="none" stroke-width="0.5" stroke-linecap="butt"/><path d="M321.05065,215.1482c0.83205,0.5547 0.27735,1.38675 0.27735,1.38675l-0.27815,0.35371c-2.48372,7.43455 -7.55616,13.57622 -15.39147,14.88256c0,0 -0.98639,0.1644 -1.15079,-0.82199c-0.1644,-0.98639 0.822,-1.1508 0.822,-1.1508c7.09498,-1.18209 11.57786,-6.791 13.8229,-13.54223l0.51142,-0.83066c0,0 0.5547,-0.83205 1.38675,-0.27735z" fill="#f5f0a7" stroke="none" stroke-width="0.5" stroke-linecap="butt"/><path d="M282.89806,213.90428c0,-1 1,-1 1,-1l0.0383,0.01942c4.8231,-0.96462 8.57258,-5.49674 8.57258,-10.50559c0,0 0,-1 1,-1c1,0 1,1 1,1c0,5.89435 -4.47108,11.32489 -10.18034,12.46675l-0.43053,0.01942c0,0 -1,0 -1,-1z" fill="#f5f0a7" stroke="none" stroke-width="0.5" stroke-linecap="butt"/><path d="M278.27171,181.64296c0.19612,0.98058 -0.78446,1.1767 -0.78446,1.1767l-0.86306,0.15765c-1.34071,0.77429 -2.44899,0.4326 -3.78894,1.1796c-4.6415,2.58758 -7.51817,5.76445 -9.85726,10.45984c0,0 -0.44721,0.89443 -1.34164,0.44721c-0.89443,-0.44721 -0.44721,-1.34164 -0.44721,-1.34164c2.49212,-4.96758 5.67008,-8.69297 10.6935,-11.32397c1.51562,-0.7938 2.66036,-0.43378 4.02035,-1.28649l1.19202,-0.25337c0,0 0.98058,-0.19612 1.1767,0.78446z" fill="#f5f0a7" stroke="none" stroke-width="0.5" stroke-linecap="butt"/><path d="M58.72212,178.59315c-0.0047,0.13737 -0.00698,0.27005 -0.00698,0.39732c0,0 0,1 -1,1c-1,0 -1,-1 -1,-1c0,-0.32339 0.0124,-0.66237 0.03786,-1.01238c-0.02417,-0.09122 -0.03786,-0.19453 -0.03786,-0.31153c0,-0.21712 0.04714,-0.3871 0.12095,-0.52017c0.40321,-3.18516 1.84462,-6.9436 4.77156,-8.23417c1.75914,-0.77565 2.5295,0.72562 3.67548,-1.08998c1.3576,-2.15087 2.23969,-4.78513 3.35343,-7.07593c0.59565,-1.22515 0.899,-2.63934 2.46404,-3.01141c2.8417,-0.67557 3.83068,0.72179 5.19067,2.77934c0.90047,4.98121 -3.75296,8.37934 -6.88924,11.82925c-0.98228,1.08051 -2.34972,3.30462 -3.67142,3.97478c-1.19029,0.60352 -2.69869,0.12123 -3.96792,0.53363c-1.02511,0.33308 -1.76507,1.25678 -2.73867,1.71927z" fill="#f5f0a7" stroke="none" stroke-width="0.5" stroke-linecap="butt"/><path d="M113.34006,148.52894c-0.00278,0.00575 -0.00562,0.01152 -0.00851,0.0173c-0.44721,0.89443 -1.34164,0.44721 -1.34164,0.44721l-0.4245,-1.29019c-0.17037,-0.07795 -0.33562,-0.22415 -0.46402,-0.48094c-0.44721,-0.89443 0.44721,-1.34164 0.44721,-1.34164c2.6285,-1.2378 1.85351,-3.69405 3.73952,-5.13497c2.02062,-1.54376 5.39138,0.78504 7.11463,-0.92894c1.53192,-1.52367 2.08901,-5.58558 4.09517,-6.70424c0.68443,-0.38165 1.57518,0.00828 2.3477,-0.12328c2.89648,-0.4933 5.53588,-1.0333 5.59074,-4.18262c0.53051,-0.70473 0.82531,-1.67716 1.59153,-2.11418c4.54711,-2.59352 4.88825,4.49253 3.8399,7.14865c-1.29706,3.28627 -4.94466,6.24836 -8.02951,7.66092c-1.79503,0.82195 -4.88045,1.14344 -6.38279,2.49232c-1.01323,0.90974 -1.18207,2.58996 -2.2882,3.38416c-1.45526,1.04488 -3.72982,0.89311 -5.39574,0.71515c-0.33403,0.4598 -0.45361,1.23052 -1.00209,1.37941c-1.65311,0.44875 -2.41207,-0.59598 -3.42941,-0.94412z" fill="#f5f0a7" stroke="none" stroke-width="0.5" stroke-linecap="butt"/><path d="M89.64423,161.43035c-0.23928,-0.05742 -0.48847,-0.21902 -0.6422,-0.60336c-0.37139,-0.92848 0.55709,-1.29987 0.55709,-1.29987c3.27051,-1.27877 2.38938,-2.40566 4.3971,-4.74255c0.7791,-0.90683 3.35343,-1.32379 4.54576,-1.7074l0.73792,-1.10688c0.17805,-0.2757 0.48804,-0.4582 0.84065,-0.4582c0.55228,0 1,0.44772 1,1c0,0.09149 -0.01229,0.1801 -0.0353,0.26429l-0.43587,1.74347l-0.39763,-0.09941c-0.47285,2.04064 -1.58849,3.8848 -3.62322,5.11821c-0.92494,0.56068 -1.75286,-0.64059 -2.2037,0.85832c-0.43565,1.44843 1.24596,5.04246 -2.47755,4.12102c-1.36015,-0.33659 -2.20834,-1.73228 -2.26305,-3.08765zM92.47197,160.8774c-0.17724,-0.1073 -0.28503,-0.26303 -0.35058,-0.41276c-0.17083,0.14329 -0.31195,0.28938 -0.41385,0.43818c-0.54581,0.79701 0.9122,1.79326 0.94217,1.61591c0.08951,-0.52966 -0.07965,-1.09378 -0.17774,-1.64133zM97.84818,155.22613c-0.17873,0.05448 -0.35941,0.11039 -0.53765,0.16697c0.08827,0.10325 0.15587,0.2247 0.19641,0.35794c0.11302,-0.17525 0.2258,-0.35138 0.34124,-0.5249z" fill="#f5f0a7" stroke="none" stroke-width="0.5" stroke-linecap="butt"/><path d="M81.27989,206.96827c0.15707,-0.15707 0.31414,-0.24436 0.46346,-0.28512c0.30224,0.07791 0.50945,0.28512 0.50945,0.28512c0.26481,0.08846 0.44131,0 0.44131,0l0.44131,0.44131c0.07221,0.07417 0.14523,0.14668 0.21902,0.2176c0.92732,0.35414 2.01681,0.5368 2.47139,1.15162c0.18087,0.24463 0.29946,0.51512 0.3755,0.80212c1.17086,0.59136 2.41812,1.05903 3.67181,1.58415c3.72073,1.55849 8.10496,3.67051 11.36773,6.00805c1.81212,1.29826 6.97025,2.13509 4.59473,5.39561c-0.48191,0.66145 -1.45733,0.74574 -2.19735,1.0952c-1.83463,0.86634 -3.09824,1.88024 -4.77757,3.05555c-1.00589,-0.08115 -2.14657,0.26605 -3.01767,-0.24345c-0.47836,-0.27979 -0.01096,-1.1338 -0.21677,-1.64834c-0.28772,-0.71929 -1.27156,-0.94721 -1.68104,-1.60484c-1.03694,-1.66539 -2.40851,-5.17105 -4.12652,-6.32957c-1.13785,-0.7673 -3.62463,-0.27892 -4.59364,-1.47755c-1.10614,-1.36825 -0.33308,-3.05586 -0.56799,-4.44708c-0.97321,-0.54089 -1.90361,-1.17096 -2.76587,-1.98179c-0.44578,-0.19397 -0.83727,-0.39672 -1.05258,-0.60438c0,0 -0.70711,-0.70711 0,-1.41421c0.32433,-0.32433 0.64867,-0.35114 0.90476,-0.28512c0.18706,-0.05106 0.36195,-0.0291 0.50945,0.02017c0.28052,0.29565 0.67382,0.76048 1.10163,0.92386c0.85954,0.82615 1.82406,1.43714 2.84689,1.95374c0.18149,0.68496 0.12065,1.46395 0.0858,2.20971c-0.55339,-0.25732 -1.09813,-0.52633 -1.63009,-0.82198c-0.05153,-0.30518 -0.15156,-0.59609 -0.33058,-0.86624c-0.19944,-0.30098 -1.44998,-0.68681 -2.4353,-1.11554c-0.05696,-0.05356 -0.11362,-0.10791 -0.16997,-0.16307l-0.44131,-0.44131c0,0 -0.70711,-0.70711 0,-1.41421z" fill="#f5f0a7" stroke="none" stroke-width="0.5" stroke-linecap="butt"/><path d="M127.40487,230.29786c-0.18022,-0.01172 -0.96333,-0.11354 -0.96333,-0.99848c0,-1 1,-1 1,-1c0.01305,0.00011 0.02609,0.00027 0.03912,0.00046c0.13391,-0.22915 0.3824,-0.44177 0.8435,-0.44177c0.65367,0 0.88006,0.42729 0.95846,0.72325c3.10309,0.91932 5.55969,3.84057 8.69166,5.08985c1.05535,0.42096 2.91762,0.74801 3.55711,1.72207c0.76681,1.16799 0.38338,1.94925 -0.24436,2.61578l0.12937,0.04312c0.40862,0.12567 0.70565,0.50614 0.70565,0.95598c0,0.55228 -0.44772,1 -1,1h-2c-0.60009,0.12363 -1.45373,-0.67357 -1.82835,-0.18876c-0.8587,1.11126 -1.27078,3.04928 -2.65787,3.26897c-0.85831,0.13594 -1.68537,-0.46616 -2.46357,-0.85292c-2.2984,-1.14229 -4.00378,-3.60581 -3.00674,-6.25781c0.12605,-0.33527 0.80623,-0.33133 0.82454,-0.68904c0.09389,-1.83454 -2.12336,-3.10649 -2.58517,-4.9907z" fill="#f5f0a7" stroke="none" stroke-width="0.5" stroke-linecap="butt"/><path d="M74.13353,200.77505c1,0 1,1 1,1v1.06185c0,0.88716 -0.36227,3.58679 0.40972,4.42351c0.22334,0.24206 2.97898,1.66485 3.30691,0.9499c0.35813,-0.7808 0.13877,-1.74441 0.48319,-2.53135c0.67234,-1.53617 1.47013,-2.72297 1.92449,-4.37353c1.42325,-5.17026 -0.15744,-10.76245 -0.16378,-16.00566c-0.00238,-4.59077 0.18954,-9.20108 -0.88315,-13.69458c-0.20157,-0.84439 -0.39486,-3.90629 -1.29518,-4.44144c-0.50644,-0.30103 -2.32057,0.23026 -2.85851,0.71932c-1.72319,1.56662 -4.70271,4.15738 -4.5979,6.64152c0,0 0,1 -1,1c-1,0 -1,-1 -1,-1c0.07527,-2.83915 3.52537,-8.0211 6.47826,-8.9015c2.16397,-0.64519 4.09595,-0.81277 5.225,1.43456c2.62151,5.21803 1.92857,12.60643 1.93148,18.24144c-0.00455,4.73712 1.33097,9.70401 0.60516,14.45485c-0.38512,2.52086 -1.50069,4.44158 -2.51811,6.69038c-0.33875,0.74873 -0.29089,2.43945 -0.74154,2.97997c-1.50173,1.80121 -5.11251,0.63522 -6.3945,-0.83895c-1.28817,-1.48127 -0.91153,-3.99044 -0.91153,-5.74844v-1.06185c0,0 0,-1 1,-1z" fill="#dcdcdc" stroke="none" stroke-width="0.5" stroke-linecap="butt"/><path d="M90.00551,207.20617c0.99877,-0.04965 1.04841,0.94912 1.04841,0.94912l0.01452,0.37781c0.04645,0.41516 0.4575,2.91928 1.22135,3.04084c1.18806,0.18908 2.70884,-0.23481 2.91581,-1.45546c0.72075,-4.2507 0.27943,-8.90446 0.27943,-13.24238c0,-7.51787 -0.09759,-15.05867 -1.01077,-22.52482c-0.39122,-3.19864 -0.30849,-7.15981 -3.97114,-7.71965c0,0 -0.98639,-0.1644 -0.82199,-1.15079c0.1644,-0.98639 1.15079,-0.82199 1.15079,-0.82199c4.20318,0.74703 4.65234,3.57952 5.29411,7.44073c1.35525,8.15386 1.35901,16.52622 1.35901,24.77653c0,4.14363 0.97267,9.78917 -0.33294,13.70189c-0.78187,2.34315 -3.12832,3.5726 -5.65737,2.83113c-1.59321,-0.46709 -2.21412,-3.43288 -2.40619,-4.59318l-0.03216,-0.56135c0,0 -0.04965,-0.99877 0.94912,-1.04841z" fill="#dcdcdc" stroke="none" stroke-width="0.5" stroke-linecap="butt"/><path d="M107.83324,183.44338c-0.95798,-0.28682 -0.67116,-1.24481 -0.67116,-1.24481l0.27473,-0.88078c-0.00352,-0.61835 -0.00704,-1.23671 -0.01056,-1.85506c0,-5.36803 -0.00043,-10.73607 0,-16.1041c0.00004,-0.5355 0.36846,-4.51021 0.02689,-4.92909c-0.21418,-0.26266 -0.64747,0.25881 -0.98619,0.24738c-1.14262,-0.03855 -2.73661,-1.11016 -3.88891,-0.79146c-0.82168,0.22726 -0.53156,1.62652 -0.91199,2.38946c0,0 -0.44721,0.89443 -1.34164,0.44721c-0.89443,-0.44721 -0.44721,-1.34164 -0.44721,-1.34164c0.51997,-1.03691 0.48698,-2.62995 1.53749,-3.12187c1.77987,-0.83346 3.58706,0.14722 5.29663,0.43328c0.68723,0.11499 1.60791,-0.26907 2.07566,0.24738c0.99753,1.10137 0.63915,5.00293 0.63926,6.41935c0.00043,5.36803 0,10.73607 0,16.1041c-0.00352,0.71498 -0.00704,1.42996 -0.01056,2.14494l-0.33764,1.16454c0,0 -0.28682,0.95798 -1.24481,0.67116z" fill="#dcdcdc" stroke="none" stroke-width="0.5" stroke-linecap="butt"/><path d="M104.04492,214.2339c0.70711,-0.70711 1.41421,0 1.41421,0l0.59413,0.70178c3.20499,-0.124 1.20929,-4.97878 0.78622,-6.81207c0,0 -0.22486,-0.97439 0.74953,-1.19925c0.97439,-0.22486 1.19925,0.74953 1.19925,0.74953c0.5582,2.41887 2.56507,8.17881 -1.29698,9.14276c-0.71268,0.17788 -1.46893,-0.02214 -2.20339,-0.03321l-1.24298,-1.13533c0,0 -0.70711,-0.70711 0,-1.41421z" fill="#dcdcdc" stroke="none" stroke-width="0.5" stroke-linecap="butt"/><path d="M113.00898,217.97272c0.94868,-0.31623 1.26491,0.63246 1.26491,0.63246l0.6342,1.91229c0.14706,1.28697 2.11582,3.97104 3.98438,2.7782c1.72057,-1.09837 1.67566,-5.55322 1.99693,-7.33923c2.0994,-11.65681 3.0862,-23.15104 3.40947,-34.97434c0.17929,-6.53846 0.27373,-13.06301 0.27373,-19.60386c0,-2.00105 0.42708,-4.55389 -0.07629,-6.51484c-0.06472,-0.25213 -1.56067,-5.23579 -2.07206,-3.05415c0,0 -0.5547,0.83205 -1.38675,0.27735c-0.83205,-0.5547 -0.27735,-1.38675 -0.27735,-1.38675c3.3857,-4.01098 5.68822,2.12179 5.8116,5.10622c0.34644,8.37983 -0.04388,16.8521 -0.27363,25.23086c-0.32776,11.91751 -1.32588,23.52228 -3.44036,35.27385c-0.42453,2.35657 -0.39758,7.30725 -2.85241,8.64667c-3.18555,1.73813 -6.47666,-1.20851 -7.03828,-3.95787l-0.59054,-1.76193c0,0 -0.31623,-0.94868 0.63246,-1.26491z" fill="#dcdcdc" stroke="none" stroke-width="0.5" stroke-linecap="butt"/><path d="M133.48376,144.90486c-0.99877,-0.04965 -0.94912,-1.04841 -0.94912,-1.04841l0.03216,-0.56135c0.17857,-0.83809 -0.04232,-1.88168 0.5357,-2.51427c2.28875,-2.50482 4.42131,1.88404 5.03302,3.36481c1.97003,4.76884 2.2154,10.39409 2.2154,15.4996c0,4.65412 -0.7725,8.83905 -1.22815,13.43092c-0.84665,8.53231 -0.57064,17.22587 -0.62188,25.79724c-1.08898,3.26695 -1.53936,7.47367 -1.82734,10.94172c-0.31227,3.76053 0.62566,7.84762 -0.42848,11.52427c-0.35662,1.24383 -1.86052,5.4609 -2.90061,6.14259c-1.38205,0.90581 -4.73349,-1.55501 -5.6409,-2.26836c0,0 -0.78087,-0.6247 -0.15617,-1.40556c0.6247,-0.78087 1.40556,-0.15617 1.40556,-0.15617c0.29471,0.24081 3.35894,2.25576 3.54465,2.01823c2.07753,-2.65715 2.11383,-7.40534 2.15413,-10.59603c0.06764,-5.35465 0.17873,-11.4323 1.87498,-16.52105c-0.05973,-8.5098 -0.22449,-17.17209 0.60286,-25.64183c0.44381,-4.54328 1.22133,-8.66397 1.22133,-13.26596c0,-3.0388 0.19986,-7.06423 -0.58358,-9.98957c-0.10842,-0.40483 -0.4417,-0.72007 -0.57905,-1.11602c-0.26361,-0.75994 -2.55289,-9.23846 -2.6416,-4.96169l-0.01452,0.37781c0,0 -0.04965,0.99877 -1.04841,0.94912z" fill="#dcdcdc" stroke="none" stroke-width="0.5" stroke-linecap="butt"/></g></g></svg>