<svg version="1.1" xmlns="http://www.w3.org/2000/svg" xmlns:xlink="http://www.w3.org/1999/xlink" width="339.52572" height="770.60772" viewBox="0,0,339.52572,770.60772"><defs><linearGradient x1="423.93395" y1="-13.15106" x2="423.93395" y2="373.15106" gradientUnits="userSpaceOnUse" id="color-1"><stop offset="0" stop-color="#3c3c3c"/><stop offset="1" stop-color="#1b1b1b"/></linearGradient></defs><g transform="translate(-237.08951,397.45666)"><g data-paper-data="{&quot;isPaintingLayer&quot;:true}" fill-rule="nonzero" stroke-linejoin="miter" stroke-miterlimit="10" stroke-dasharray="" stroke-dashoffset="0" style="mix-blend-mode: normal"><path d="M271.25266,373.15106v-386.30212h305.36258v386.30212z" fill="url(#color-1)" stroke="none" stroke-width="0" stroke-linecap="butt"/><g data-paper-data="{&quot;index&quot;:null}" stroke="none" stroke-width="0.5" stroke-linecap="butt"><path d="M293.05494,254.14739c4.33539,1.81031 7.98583,3.97853 12.58125,5.12679l0.09169,-0.07486c0,0 1.68525,0 2.29253,1.38161c0.51383,-0.10109 1.12972,-0.02254 1.82224,0.43914c2.08627,1.39086 0.69543,3.47711 0.69543,3.47711l-0.6166,0.16573c0,4.94329 -0.33093,7.96257 -2.63291,12.47234c-4.08791,3.32025 -8.7183,4.21777 -10.46721,9.59371c-1.09387,3.36243 0.18136,12.58717 -3.98529,14.48318c-1.91054,0.8694 -7.64282,-2.32216 -9.63301,-3.0634c-7.00058,-2.60733 -15.0075,-1.75488 -22.31088,-4.66972c-10.82308,-3.95444 -6.07031,-16.37792 0.73971,-22.37637c1.16867,-1.02941 3.57562,-0.9847 3.94922,-2.49663c0.9654,-3.907 -2.17795,-9.91323 -0.47668,-14.13612c0.92894,-2.30578 4.42348,-5.73398 6.05915,-7.91485c0,0 1.50442,-2.0059 3.51033,-0.50147c0.75002,0.56252 1.00929,1.19516 1.0399,1.76682c5.1352,5.37492 10.80366,3.59717 17.34114,6.327z" fill="#d10000"/><path d="M294.5586,298.18197c0.14957,0.47448 0.14695,1.0624 -0.17465,1.76999c-1.03755,2.28263 -3.32019,1.24506 -3.32019,1.24506c-2.6784,-1.23448 -12.27531,-4.09233 -13.51127,-6.53656c-1.58258,-3.12969 1.2093,-7.74613 2.8386,-10.20216c2.74077,-4.1315 6.31635,-7.6466 8.80164,-11.9605c2.31832,-4.0241 3.19765,-8.83913 4.96357,-13.12366c1.03842,-1.01869 1.71545,-2.6603 3.11523,-3.05609c4.69183,-1.32662 13.94054,5.95355 13.85329,10.50113c-0.18472,9.62769 -10.37586,12.61028 -14.06413,19.89046c-1.24837,2.46413 -0.28022,9.37688 -1.80106,10.85162c-0.23984,0.23258 -0.47333,0.43887 -0.70098,0.62074z" fill="#c00000"/><path d="M271.74704,244.56327c1.25426,-2.29923 3.61796,-1.07915 3.61796,-1.07915l2.99733,1.54747c5.85812,3.289 11.66784,3.41095 17.87068,5.73371c5.52593,2.06927 11.1907,6.33228 16.38952,9.19827c7.31037,4.03006 14.33844,9.53595 21.83027,13.07998c2.60158,1.23068 5.49762,1.9166 7.91578,3.46118c0,0 2.22645,1.44381 0.74214,3.60954c-1.48431,2.16573 -3.71076,0.7219 -3.71076,0.7219c-2.19761,-1.45242 -4.91437,-1.9756 -7.29846,-3.11623c-6.28419,-3.00659 -12.23041,-7.64467 -18.33056,-11.08895c-6.10162,-3.44512 -12.96684,-8.60601 -19.52075,-11.03042c-6.42716,-2.37754 -12.33982,-2.63237 -18.47006,-6.00929l-2.92368,-1.50874c0,0 -2.3637,-1.22007 -1.10942,-3.51929z" fill="#515151"/><path d="M284.60777,267.53758c0.10055,-3.55231 -3.34162,-3.02829 -6.0616,-2.63082c-3.27475,2.0053 -6.46927,6.98837 -6.21081,11.14116c0.12659,2.03391 3.78156,5.05398 5.71769,5.20662c1.408,0.11102 2.63686,-1.24007 3.60392,-2.02927c0,0 0.78541,-0.63922 1.58982,-0.21974c0.39909,0.03554 0.70295,0.21313 0.70295,0.21313c0.33631,0.19654 3.59541,2.42041 3.8458,2.135c0.28881,-0.32921 0.85152,-0.75856 0.6448,-1.14463c-0.27802,-0.51927 -1.30738,-0.61983 -1.28907,-1.20858c0.02995,-0.96179 0.79601,-1.77677 1.40514,-2.52172c0.42076,-0.51457 2.00705,-0.35414 1.74505,-0.96501c-0.25824,-0.60213 -1.28163,-0.98943 -1.11041,-1.62185c0.25535,-0.94311 3.0257,-1.74042 2.09799,-2.04708c-1.96201,-0.64858 -3.82331,-0.67023 -5.76168,-1.78611l-0.16557,-0.09674c0,0 -1.08975,-0.63688 -0.68245,-1.74162zM277.73257,284.22975c-3.41924,-0.20166 -8.09542,-4.56498 -8.37791,-7.91728c-0.469,-5.56524 3.74539,-11.65979 8.16449,-14.2164c4.75485,-0.86611 10.0605,-0.56242 10.08089,5.47062l0.02366,0.18161c1.68552,0.63755 4.75724,0.91838 5.60187,1.81514c1.61409,1.71374 1.43777,3.78427 -0.19463,5.27466c0.14023,0.05215 0.23712,0.13058 0.23614,0.27575c-0.00644,0.9374 -0.60971,1.80664 -1.17303,2.55588c-0.43807,0.58268 -2.52565,0.45701 -1.97644,0.93638c2.337,2.03983 0.1911,6.05913 -3.21959,5.69795c-1.08194,-0.1146 -2.84979,-1.45904 -4.01119,-2.22174c-1.51059,1.22058 -2.98501,2.27528 -5.15425,2.14734zM292.40474,274.68501c-0.22761,-0.13855 -0.39966,-0.2778 -0.28913,-0.15953c0.07048,0.07541 0.17343,0.12372 0.28913,0.15953z" fill="#cfcfcf"/><path d="M280.67724,274.70682c0.34511,0.05259 0.71412,0.24882 1.00171,0.7479c0.74702,1.29637 -0.54936,2.04339 -0.54936,2.04339c-0.20436,0.11745 -0.50662,0.29858 -0.85465,0.49861c-0.05698,0.03898 -0.11547,0.07192 -0.17463,0.0997c-0.93064,0.52751 -2.10771,1.13123 -2.64242,1.04634c-2.19139,-0.34774 -4.0216,-2.27637 -2.70699,-4.62952c1.43064,-2.56078 5.01,-1.79711 5.92634,0.19357z" fill="#cfcfcf"/><path d="M277.8512,267.38846c1.40497,-2.30035 3.98358,-1.65236 5.36216,0.08626c0.33637,0.42424 0.38815,1.74608 0.38529,2.81582c0.00488,0.06518 0.00484,0.13232 -0.00116,0.20107c-0.00344,0.40141 -0.01294,0.75366 -0.01495,0.98936c0,0 -0.01459,1.49614 -1.51071,1.48156c-0.57598,-0.0056 -0.92804,-0.2308 -1.14327,-0.50567c-2.18417,0.1787 -4.60632,-2.56507 -3.07738,-5.06838z" data-paper-data="{&quot;index&quot;:null}" fill="#cfcfcf"/></g><g data-paper-data="{&quot;index&quot;:null}" stroke="none" stroke-width="0.5" stroke-linecap="butt"><path d="M467.75611,252.51705c6.53747,-2.72983 12.20594,-0.95208 17.34114,-6.327c0.03061,-0.57166 0.28988,-1.2043 1.0399,-1.76682c2.00591,-1.50442 3.51033,0.50147 3.51033,0.50147c1.63567,2.18087 5.13021,5.60907 6.05915,7.91485c1.70127,4.22289 -1.44209,10.22912 -0.47668,14.13612c0.3736,1.51193 2.78055,1.46722 3.94922,2.49663c6.81002,5.99846 11.56279,18.42193 0.73971,22.37637c-7.30337,2.91484 -15.31029,2.06239 -22.31088,4.66972c-1.99019,0.74124 -7.72247,3.9328 -9.63301,3.0634c-4.16665,-1.89601 -2.89141,-11.12075 -3.98529,-14.48318c-1.74891,-5.37594 -6.3793,-6.27346 -10.46721,-9.59371c-2.30198,-4.50977 -2.63291,-7.52906 -2.63291,-12.47234l-0.6166,-0.16573c0,0 -1.39084,-2.08626 0.69543,-3.47711c0.69252,-0.46167 1.30841,-0.54023 1.82224,-0.43914c0.60728,-1.38161 2.29253,-1.38161 2.29253,-1.38161l0.09169,0.07486c4.59542,-1.14826 8.24586,-3.31648 12.58125,-5.12679z" fill="#d10000"/><path d="M466.25244,296.55165c-0.22765,-0.18187 -0.46114,-0.38817 -0.70098,-0.62074c-1.52084,-1.47474 -0.55269,-8.38748 -1.80106,-10.85162c-3.68827,-7.28018 -13.87941,-10.26277 -14.06413,-19.89046c-0.08725,-4.54758 9.16147,-11.82775 13.85329,-10.50113c1.39978,0.39579 2.07681,2.0374 3.11523,3.05609c1.76591,4.28453 2.64525,9.09956 4.96357,13.12366c2.4853,4.3139 6.06088,7.829 8.80164,11.9605c1.62929,2.45603 4.42117,7.07247 2.8386,10.20216c-1.23595,2.44423 -10.83287,5.30208 -13.51127,6.53656c0,0 -2.28264,1.03757 -3.32019,-1.24506c-0.3216,-0.70758 -0.32422,-1.29551 -0.17465,-1.76999z" fill="#c00000"/><path d="M489.06408,242.93291c1.25428,2.29923 -1.10942,3.51929 -1.10942,3.51929l-2.92368,1.50874c-6.13024,3.37692 -12.0429,3.63175 -18.47006,6.00929c-6.55391,2.42442 -13.41913,7.5853 -19.52075,11.03042c-6.10015,3.44428 -12.04638,8.08236 -18.33056,11.08895c-2.38409,1.14064 -5.10086,1.66382 -7.29846,3.11623c0,0 -2.22645,1.44383 -3.71076,-0.7219c-1.48431,-2.16573 0.74214,-3.60954 0.74214,-3.60954c2.41816,-1.54458 5.3142,-2.2305 7.91578,-3.46118c7.49183,-3.54403 14.5199,-9.04991 21.83027,-13.07998c5.19882,-2.86599 10.86359,-7.129 16.38952,-9.19827c6.20283,-2.32276 12.01256,-2.44472 17.87068,-5.73371l2.99733,-1.54747c0,0 2.3637,-1.22008 3.61796,1.07915z" fill="#515151"/><path d="M476.13176,266.58996c0.4073,1.10475 -0.68245,1.74162 -0.68245,1.74162l-0.16557,0.09674c-1.93837,1.11589 -3.79966,1.13753 -5.76168,1.78611c-0.92771,0.30666 1.84264,1.10397 2.09799,2.04708c0.17122,0.63243 -0.85217,1.01972 -1.11041,1.62185c-0.262,0.61087 1.3243,0.45044 1.74505,0.96501c0.60913,0.74495 1.37518,1.55993 1.40514,2.52172c0.01831,0.58875 -1.01105,0.68931 -1.28907,1.20858c-0.20673,0.38607 0.35599,0.81541 0.6448,1.14463c0.25039,0.2854 3.50949,-1.93846 3.8458,-2.135c0,0 0.30386,-0.17758 0.70295,-0.21313c0.80441,-0.41947 1.58982,0.21974 1.58982,0.21974c0.96707,0.78921 2.19592,2.14029 3.60392,2.02927c1.93613,-0.15265 5.5911,-3.17271 5.71769,-5.20662c0.25846,-4.1528 -2.93607,-9.13586 -6.21081,-11.14116c-2.71998,-0.39747 -6.16215,-0.92149 -6.0616,2.63082zM483.07852,282.59933c-2.16924,0.12794 -3.64366,-0.92676 -5.15425,-2.14734c-1.1614,0.7627 -2.92924,2.10714 -4.01119,2.22174c-3.4107,0.36118 -5.55659,-3.65812 -3.21959,-5.69795c0.54921,-0.47937 -1.53837,-0.3537 -1.97644,-0.93638c-0.56332,-0.74924 -1.16659,-1.61848 -1.17303,-2.55588c-0.00098,-0.14517 0.0959,-0.2236 0.23614,-0.27575c-1.6324,-1.49039 -1.80872,-3.56092 -0.19463,-5.27466c0.84463,-0.89676 3.91634,-1.17759 5.60187,-1.81514l0.02366,-0.18161c0.02038,-6.03304 5.32604,-6.33673 10.08089,-5.47062c4.4191,2.55661 8.63349,8.65116 8.16449,14.2164c-0.28249,3.35231 -4.95867,7.71563 -8.37791,7.91728zM468.69547,272.89515c0.11053,-0.11827 -0.06152,0.02098 -0.28913,0.15953c0.1157,-0.03581 0.21865,-0.08412 0.28913,-0.15953z" fill="#cfcfcf"/><path d="M480.13384,273.07646c0.91634,-1.99067 4.49571,-2.75435 5.92634,-0.19357c1.31461,2.35314 -0.5156,4.28178 -2.70699,4.62952c-0.53471,0.08489 -1.71177,-0.51883 -2.64242,-1.04634c-0.05916,-0.02778 -0.11765,-0.06072 -0.17463,-0.0997c-0.34803,-0.20003 -0.65029,-0.38116 -0.85465,-0.49861c0,0 -1.29637,-0.74702 -0.54936,-2.04339c0.28759,-0.49907 0.65659,-0.69531 1.00171,-0.7479z" fill="#cfcfcf"/><path d="M482.95989,265.75814c1.52894,2.50331 -0.89321,5.24708 -3.07738,5.06838c-0.21523,0.27487 -0.56729,0.50007 -1.14327,0.50567c-1.49612,0.01459 -1.51071,-1.48156 -1.51071,-1.48156c-0.00201,-0.23569 -0.01151,-0.58795 -0.01495,-0.98936c-0.006,-0.06876 -0.00604,-0.1359 -0.00116,-0.20107c-0.00285,-1.06975 0.04892,-2.39158 0.38529,-2.81582c1.37858,-1.73862 3.95719,-2.38661 5.36216,-0.08626z" data-paper-data="{&quot;index&quot;:null}" fill="#cfcfcf"/></g><path d="M372.02255,236.39315v-37.57278h17.65468v37.57278z" fill="#9c1c1c" stroke="none" stroke-width="0" stroke-linecap="butt"/><path d="M352.9066,249.95656c0,-15.76579 12.7807,-28.54649 28.54649,-28.54649c15.76579,0 28.54649,12.7807 28.54649,28.54649c0,15.76579 -12.7807,28.54649 -28.54649,28.54649c-15.76579,0 -28.54649,-12.7807 -28.54649,-28.54649z" fill="#c53f3f" stroke="#c53f3f" stroke-width="5" stroke-linecap="butt"/><path d="M352.65979,249.62556c-0.06682,-0.07031 -0.13314,-0.14631 -0.19878,-0.22836c-1.60201,-2.0025 0.4005,-3.60451 0.4005,-3.60451c2.87393,-2.25493 5.09243,-2.76835 8.35123,-4.10453c1.9266,-0.78995 3.69591,-1.9867 5.69692,-2.56274c5.22512,-1.50421 10.73538,-1.09285 16.09836,-1.09285c3.86122,0 8.28458,-0.61317 12.0768,0.03311c4.18163,0.71265 8.39202,2.54457 12.08537,4.55627c0.8444,0.56693 1.6888,1.13385 2.5332,1.70078l0.11457,0.24279l0.07293,-0.07293l1.98571,1.98571c0.46407,0.46407 0.75111,1.10519 0.75111,1.81335c0,1.41631 -1.14815,2.56446 -2.56446,2.56446c-0.32888,0 -0.64329,-0.06191 -0.93222,-0.1747l-2.04516,-0.74369c-2.16063,0.10806 -4.35284,0.15245 -6.29867,-0.09714c-3.92327,-0.50325 -7.82505,-1.87442 -11.80415,-2.22159c-5.82307,-0.50806 -12.9742,-0.68876 -18.78994,-0.01233c-4.93265,0.57372 -8.83013,2.42007 -13.36394,4.08792l-1.62102,0.1544c0,0 -2.33171,0 -2.54836,-2.22337z" fill="#b23939" stroke="none" stroke-width="0.5" stroke-linecap="butt"/><path d="M350.24006,249.1368c0,-17.12572 13.88314,-31.00886 31.00886,-31.00886c17.12572,0 31.00886,13.88314 31.00886,31.00886c0,17.12572 -13.88314,31.00886 -31.00886,31.00886c-17.12572,0 -31.00886,-13.88314 -31.00886,-31.00886z" fill="none" stroke="#bd2222" stroke-width="5" stroke-linecap="butt"/><path d="M323.04787,263.12899c-0.14244,-0.17075 -0.27614,-0.37439 -0.3971,-0.61631c-1.14686,-2.29372 1.14686,-3.44058 1.14686,-3.44058l1.16054,-0.49466c0.09758,-0.02169 0.64735,-0.14432 1.36177,-0.30309c0.29575,-0.97921 0.5984,-1.95473 1.17876,-2.78145c2.882,-4.10539 10.54011,-5.53963 15.11532,-5.5263c2.30349,0.00671 6.13938,-0.37636 7.64645,2.15593c1.02979,1.73032 -0.80578,6.11207 -1.73003,7.69169c-0.85776,1.46597 -3.5327,4.65601 -4.88639,5.46317c-4.57559,2.72831 -12.96685,1.21781 -18.12956,1.21781c0,0 -2.56446,0 -2.56446,-2.56446c0,-0.30126 0.03539,-0.56712 0.09785,-0.80176z" fill="#c53f3f" stroke="none" stroke-width="0.5" stroke-linecap="butt"/><path d="M346.29456,263.31988c0,2.56446 -2.56446,2.56446 -2.56446,2.56446c-5.48358,0 -13.35515,0 -18.83873,0c0,0 -2.56446,0 -2.56446,-2.56446c0,-2.56446 2.56446,-2.56446 2.56446,-2.56446c5.48358,0 10.96714,0 16.45072,0h2.38801c0,0 2.56446,0 2.56446,2.56446z" fill="#b23939" stroke="none" stroke-width="0.5" stroke-linecap="butt"/><path d="M425.76797,335.84173c0.5192,0.00147 3.9368,0.17358 4.7028,-0.30368c2.99774,-1.86774 5.05402,-7.83763 6.78787,-10.78317c1.26761,-2.15346 2.64669,-5.35288 5.9384,-5.28897c9.20946,0.1788 5.02622,5.74745 2.67554,9.79074c-2.09748,2.08175 -3.56883,4.54074 -5.29483,6.94655c-1.85752,2.58915 -2.51085,5.91603 -5.65347,7.51777c-2.38327,1.21472 -6.54674,0.60203 -9.15631,0.59533c-3.0825,-0.00791 -7.36367,-0.15686 -10.18016,-1.609c-2.82109,-1.45451 -4.65719,-4.64538 -6.55226,-7.05977c-3.80181,-4.84367 -7.94088,-9.41687 -11.23027,-14.66111c-2.48895,-4.40041 -5.7738,-8.26606 -7.83511,-12.98281c-0.82739,-1.89326 -1.29519,-6.11328 -2.99747,-8.18463c-0.00491,0 -0.00985,0 -0.01481,0c-1.70666,0.46561 -3.64721,0.31393 -5.54455,0.4143c-0.0695,0.27195 -0.18246,0.52649 -0.33105,0.75581l-1.6396,2.62335c0.06924,0.57563 -4.15586,6.39394 -4.37031,6.72475c-3.07746,4.74753 -5.34877,10.08372 -8.83463,14.58035c-2.22309,2.86768 -5.2051,5.38128 -7.31018,8.29675c-1.85188,2.56477 -2.03163,5.69107 -4.53611,7.92489c-1.20073,1.07097 -2.30273,3.02706 -3.90106,2.84255c-1.31012,-0.15124 -2.28316,-0.52532 -2.98765,-1.06014c-0.39459,0.24774 -0.86143,0.391 -1.36172,0.391c-1.2094,0 -2.22327,-0.83718 -2.49369,-1.96363c-0.11121,-0.00753 -0.22238,-0.01515 -0.3333,-0.02196c-1.49625,1.29361 -3.71002,1.997 -5.44948,2.54051c-2.63629,0.82372 -7.99757,1.6333 -10.66315,0.63019c-3.30476,-1.24365 -4.8501,-4.78034 -6.13545,-8.28428c-1.61287,-1.74105 -2.56021,-4.16092 -3.18997,-6.95337c-0.03176,-0.14081 -0.06877,-0.28131 -0.10895,-0.42166c-1.07734,-1.78235 -2.20265,-3.53938 -3.06793,-5.43024c0,0 -1.06117,-2.33459 1.27342,-3.39577c0.77821,-0.35373 1.41492,-0.33015 1.918,-0.14149c0.46458,-0.46783 1.10832,-0.75751 1.81972,-0.75751c0.70816,0 1.34927,0.28703 1.81334,0.75111l2.0074,2.0074l-0.08373,0.08373l0.30838,0.17301c2.41327,4.16346 5.56384,7.3025 8.61747,10.93972c0.76206,0.90769 1.26724,2.60163 2.71629,2.85929c2.37249,0.42186 4.7374,-0.35471 7.12944,-0.58233c-0.35949,-3.39173 1.17415,-7.30228 3.18006,-10.14843c1.00204,-1.42176 2.35109,-2.60377 3.1995,-4.12223l1.31357,-2.29875c0.43535,-0.79572 1.2803,-1.33535 2.25127,-1.33535c0.33826,0 0.66122,0.06549 0.9569,0.18449c4.25726,-6.10332 8.97708,-11.53893 13.82129,-17.35198l0.02727,-0.01719l-0.00707,-0.00618l2.33242,-2.66562c0.4037,-0.46626 0.97271,-0.78546 1.61589,-0.86644c0.65348,-0.88782 1.88618,-1.50946 2.84276,-2.08429c2.74574,-1.64999 7.63623,-1.20872 10.68831,-0.94208c1.2258,0.10709 2.54759,0.03161 3.64388,0.59038c0.24902,0.12692 0.48523,0.2633 0.70957,0.40836h1.84397c1.41631,0 2.56446,1.14815 2.56446,2.56446c0,0.05763 -0.00191,0.11483 -0.00564,0.17151c0.64115,0.14049 1.19251,0.52086 1.55524,1.04229l1.65297,2.31415l-0.09318,0.06656l0.25646,0.19369c2.35866,5.89667 7.241,10.42546 10.81401,15.59002c2.18764,-0.96587 3.28147,1.22178 3.28147,1.22178l0.26741,0.54366c1.7848,3.12341 3.62145,6.25683 5.59748,9.22168c0.43708,0.6558 0.86137,1.14944 1.22341,1.56395c0.4392,0.34095 0.87021,0.66961 1.28817,0.98425l2.47139,1.23569c0.86742,0.4112 1.46729,1.29482 1.46729,2.31857c0,1.27536 -0.93099,2.33328 -2.15043,2.53121c1.70237,-0.06383 3.80283,-0.41494 4.93905,-0.41173z" fill="#621212" stroke="none" stroke-width="0.5" stroke-linecap="butt"/><path d="M311.56954,323.59599l9.31548,-8.10042" fill="none" stroke="#621212" stroke-width="5" stroke-linecap="round"/><path d="M450.89664,323.59599l-9.31548,-8.50543" fill="none" stroke="#621212" stroke-width="5" stroke-linecap="round"/><path d="M351.66658,342.22695l-23.49119,4.45523" fill="none" stroke="#621212" stroke-width="5" stroke-linecap="round"/><path d="M412.41968,341.82193l22.68116,4.45523" fill="none" stroke="#621212" stroke-width="5" stroke-linecap="round"/><g stroke-linecap="butt"><g fill="#db4747" stroke="#000000" stroke-width="0"><path d="M342.84458,268.62733c7.37069,0.71511 11.36068,2.64168 14.51087,9.57285c0.72553,1.5963 2.06187,3.11394 2.1559,4.94896c0.04353,0.84992 -0.09004,1.569 -0.37175,2.17432c0.99146,-0.12141 1.88533,-0.04593 2.44896,0.51095c4.30789,4.25639 -3.60675,5.72749 -6.67603,5.72749c-17.19491,0 -20.86735,-0.68803 -32.29488,-0.89156c-2.10951,-0.03756 -4.12737,-0.71345 -6.10628,0.00947c-0.84897,0.31015 -4.73762,1.51226 -5.78248,0.69253c-1.10452,-0.11111 -1.91092,-0.78775 -1.64989,-2.43096c-0.01206,-0.09523 -0.0183,-0.19199 -0.0183,-0.28996c0,-0.40215 0.10452,-0.78332 0.29153,-1.12464c1.50882,-5.37236 4.54306,-10.31142 7.54707,-15.1582c0.44602,-0.71965 1.71007,-4.38091 2.7709,-5.15865c2.28215,-1.67319 5.85164,-1.32215 8.53632,-1.76594c2.38893,-0.39491 8.59454,-1.65109 10.76182,0.20919c0.91491,0.78532 1.3862,1.81301 1.33985,2.72957c0.89503,0.08162 1.74708,0.16804 2.53634,0.24461z"/><path d="M364.14082,287.42915c0.18701,0.34132 0.29149,0.72249 0.29149,1.12464c0,0.098 -0.00624,0.19471 -0.01831,0.28995c0.35401,2.2284 -1.25512,2.67925 -2.90862,2.35259c-1.29447,-0.25576 -2.61611,-0.98804 -3.04416,-1.71712c-3.30121,-5.62276 -4.30503,-13.42681 -9.18472,-18.34112c-0.4756,-0.47901 -3.51312,-0.32176 -3.70794,-0.33026c-3.27901,-0.14328 -5.24468,-0.14465 -9.50272,-0.29131c-3.40695,-0.11737 -3.62799,-3.16975 -1.54122,-4.96094c2.16728,-1.86031 8.37286,-0.60412 10.76182,-0.20922c2.68469,0.44379 6.25416,0.09275 8.53631,1.76594c1.06078,0.77773 2.32484,4.43899 2.77086,5.15864c3.00401,4.84681 6.03824,9.78584 7.54711,15.15821z" data-paper-data="{&quot;index&quot;:null}"/></g><g fill="#c74040" stroke="none"><path d="M309.73303,286.622c0,-2.00177 3.73284,-3.6245 8.33749,-3.6245c4.60464,0 8.33749,1.62276 8.33749,3.6245c0,2.00177 -3.73284,3.62449 -8.33749,3.62449c-4.60464,0 -8.33749,-1.62272 -8.33749,-3.62449z" stroke-width="NaN"/><path d="M348.02258,286.67524c0,-2.00177 3.7328,-3.62449 8.33745,-3.62449c4.60464,0 8.33745,1.62275 8.33745,3.62449c0,2.00177 -3.7328,3.6245 -8.33745,3.6245c-4.60464,0 -8.33745,-1.62273 -8.33745,-3.6245z" stroke-width="NaN"/><path d="M317.21336,290.24652v-7.24902h39.27177v7.24902z" stroke-width="0"/></g><path d="M312.90334,279.25224c0.96588,-0.73146 1.55405,-4.37138 2.25938,-5.71325c3.34337,-6.36088 7.19973,-9.30798 14.64516,-9.48271c0.01006,-0.00024 0.02012,-0.00049 0.03021,-0.0008c0.09081,0.01811 0.1846,0.0282 0.28047,0.02949c0.00712,0.00003 0.0142,0.00007 0.02116,0.00016c2.32931,0.02132 4.65876,0.03505 6.98819,0.04077c1.67933,1.70309 1.64426,2.79642 -0.10516,4.52496c-1.0469,1.03439 -2.94865,0.30487 -4.42895,0.33073c-4.2226,0.07374 -7.6067,0.3256 -10.45762,3.24624c-2.71921,2.78566 -7.3667,14.5742 -8.77253,17.92761c-0.4599,1.09707 -4.01499,4.15312 -5.24248,2.03067c-0.78926,-0.46025 -1.31873,-1.30914 -1.31873,-2.28024c0,-0.94435 0.50075,-1.77315 1.25419,-2.24138c1.73469,-3.11997 4.54921,-8.18702 4.84674,-8.4123z" fill="#bd2222" stroke="none" stroke-width="0.5"/><path d="M365.7003,287.33846c0.75345,0.46819 1.25419,1.297 1.25419,2.24139c0,0.9711 -0.52947,1.81998 -1.31873,2.28023c-1.22751,2.12246 -4.78257,-0.93363 -5.24247,-2.0307c-1.40583,-3.35342 -6.05333,-15.14192 -8.77253,-17.92758c-2.85097,-2.92064 -6.23502,-3.1725 -10.45761,-3.24624c-1.4803,-0.02585 -3.38209,0.70366 -4.42895,-0.33073c-1.63604,-1.6165 -1.77277,-2.6775 -0.41006,-4.20117c3.74503,0.01215 7.49014,0.00351 11.23501,-0.02796c0.0649,0.00854 0.12943,0.01665 0.19361,0.0243c5.05937,1.00009 8.12035,3.9158 10.84156,9.09297c0.70529,1.34187 1.2935,4.98179 2.25934,5.71325c0.29757,0.22531 3.112,5.29233 4.84674,8.41229z" data-paper-data="{&quot;index&quot;:null}" fill="#bd2222" stroke="none" stroke-width="0.5"/><path d="M354.08899,271.91394c-0.27122,0.53591 -0.81363,0.26797 -0.81363,0.26797l-0.2196,-0.11082c-3.38043,-1.34585 -6.58203,-1.84697 -10.00737,-2.85892c-1.91873,-0.04263 -3.86009,0.01503 -5.83647,0.01503c-5.19813,0 -9.86434,1.03194 -14.88171,2.08657c0,0 -0.59339,0.12342 -0.71836,-0.46289c-0.12492,-0.58632 0.46847,-0.70978 0.46847,-0.70978c0.46864,-0.09635 0.93426,-0.19283 1.39759,-0.28858c-0.14991,-0.4098 0.25021,-0.67336 0.25021,-0.67336c3.73585,-2.4457 8.97258,-1.32722 13.193,-1.67472c5.3171,-0.00364 10.92501,0.53462 16.22102,1.0522l0.07246,-0.00297c0,0 0.60647,0 0.60647,0.5992c0,0.5992 -0.60647,0.59919 -0.60647,0.59919l-0.19312,-0.00297c-0.29765,-0.02976 -0.5963,-0.05952 -0.89588,-0.08913c0.09709,0.12323 0.1588,0.30442 0.06325,0.5562c-0.03468,0.09142 -0.07881,0.16235 -0.12834,0.21702c0.4795,0.16142 0.96113,0.33527 1.44578,0.52522l0.31156,0.15163c0,0 0.54242,0.26797 0.27122,0.80387zM326.29319,269.28196c0.95313,-0.18645 1.90226,-0.36241 2.85378,-0.52018c-0.99086,0.07703 -1.95381,0.23117 -2.85378,0.52018z" fill="#bd2222" stroke="none" stroke-width="0.5"/></g><g stroke-linecap="butt"><g fill="#db4747" stroke="#000000" stroke-width="0"><path d="M431.60262,267.59949c7.37069,0.71511 11.36069,2.64168 14.51087,9.57285c0.72553,1.5963 2.06187,3.11394 2.1559,4.94896c0.04353,0.84992 -0.09004,1.56901 -0.37175,2.17432c0.99146,-0.12141 1.88533,-0.04593 2.44896,0.51095c4.30789,4.25639 -3.60675,5.72748 -6.67602,5.72748c-17.19491,0 -20.86735,-0.68803 -32.29488,-0.89156c-2.10951,-0.03756 -4.12736,-0.71345 -6.10628,0.00947c-0.84897,0.31015 -4.73762,1.51226 -5.78248,0.69254c-1.10452,-0.11111 -1.91092,-0.78776 -1.64989,-2.43097c-0.01207,-0.09523 -0.0183,-0.19198 -0.0183,-0.28995c0,-0.40215 0.10453,-0.78332 0.29153,-1.12464c1.50883,-5.37236 4.54306,-10.31142 7.54707,-15.1582c0.44603,-0.71965 1.71007,-4.38091 2.7709,-5.15865c2.28215,-1.67319 5.85165,-1.32215 8.53632,-1.76594c2.38893,-0.39491 8.59454,-1.65109 10.76182,0.20919c0.91491,0.78532 1.3862,1.81301 1.33985,2.72956c0.89503,0.08162 1.74708,0.16804 2.53634,0.2446z"/><path d="M452.89887,286.40132c0.187,0.34132 0.29149,0.72249 0.29149,1.12464c0,0.098 -0.00624,0.19472 -0.01831,0.28995c0.35402,2.2284 -1.25512,2.67924 -2.90862,2.35259c-1.29447,-0.25576 -2.61611,-0.98804 -3.04416,-1.71712c-3.30121,-5.62276 -4.30503,-13.42682 -9.18472,-18.34112c-0.47559,-0.47901 -3.51312,-0.32175 -3.70794,-0.33026c-3.27901,-0.14328 -5.24468,-0.14465 -9.50272,-0.29131c-3.40695,-0.11737 -3.62799,-3.16975 -1.54122,-4.96094c2.16728,-1.86031 8.37286,-0.60412 10.76182,-0.20922c2.68469,0.44379 6.25417,0.09275 8.53632,1.76594c1.06079,0.77773 2.32483,4.439 2.77086,5.15864c3.00401,4.84681 6.03825,9.78584 7.54711,15.1582z" data-paper-data="{&quot;index&quot;:null}"/></g><g fill="#c74040" stroke="none"><path d="M398.49108,285.59417c0,-2.00177 3.73284,-3.6245 8.33749,-3.6245c4.60465,0 8.33749,1.62276 8.33749,3.6245c0,2.00177 -3.73283,3.6245 -8.33749,3.6245c-4.60465,0 -8.33749,-1.62273 -8.33749,-3.6245z" stroke-width="NaN"/><path d="M436.78063,285.64741c0,-2.00177 3.7328,-3.62449 8.33746,-3.62449c4.60465,0 8.33745,1.62275 8.33745,3.62449c0,2.00177 -3.7328,3.62449 -8.33745,3.62449c-4.60465,0 -8.33746,-1.62272 -8.33746,-3.62449z" stroke-width="NaN"/><path d="M405.9714,289.21869v-7.24902h39.27177v7.24902z" stroke-width="0"/></g><path d="M401.66138,278.22438c0.96588,-0.73146 1.55405,-4.37137 2.25938,-5.71325c3.34337,-6.36088 7.19973,-9.30798 14.64516,-9.48271c0.01005,-0.00024 0.02012,-0.00049 0.03021,-0.0008c0.09081,0.01811 0.1846,0.0282 0.28047,0.02949c0.00712,0.00003 0.01421,0.00007 0.02116,0.00016c2.32931,0.02132 4.65876,0.03506 6.98819,0.04079c1.67934,1.70309 1.64425,2.79642 -0.10517,4.52496c-1.04691,1.03439 -2.94865,0.30487 -4.42895,0.33072c-4.2226,0.07374 -7.60669,0.32559 -10.45761,3.24623c-2.71919,2.78566 -7.3667,14.5742 -8.77253,17.92761c-0.45991,1.09707 -4.01499,4.15312 -5.24248,2.03067c-0.78926,-0.46025 -1.31873,-1.30913 -1.31873,-2.28023c0,-0.94435 0.50075,-1.77316 1.25419,-2.24138c1.7347,-3.11997 4.54921,-8.18702 4.84674,-8.41229z" fill="#bd2222" stroke="none" stroke-width="0.5"/><path d="M454.45834,286.31062c0.75345,0.46819 1.25419,1.297 1.25419,2.24139c0,0.9711 -0.52947,1.81998 -1.31873,2.28023c-1.22751,2.12246 -4.78257,-0.93363 -5.24247,-2.0307c-1.40583,-3.35342 -6.05333,-15.14192 -8.77253,-17.92758c-2.85097,-2.92064 -6.23502,-3.1725 -10.45761,-3.24624c-1.48031,-0.02585 -3.38209,0.70366 -4.42895,-0.33072c-1.63604,-1.6165 -1.77277,-2.6775 -0.41007,-4.20117c3.74503,0.01215 7.49014,0.00351 11.23501,-0.02796c0.0649,0.00854 0.12942,0.01665 0.19361,0.0243c5.05937,1.00009 8.12035,3.9158 10.84156,9.09297c0.70529,1.34187 1.29349,4.98178 2.25934,5.71325c0.29756,0.22531 3.112,5.29233 4.84674,8.41229z" data-paper-data="{&quot;index&quot;:null}" fill="#bd2222" stroke="none" stroke-width="0.5"/><path d="M442.84703,270.8861c-0.27121,0.53591 -0.81363,0.26798 -0.81363,0.26798l-0.21959,-0.11082c-3.38043,-1.34585 -6.58203,-1.84697 -10.00737,-2.85891c-1.91873,-0.04263 -3.8601,0.01503 -5.83647,0.01503c-5.19813,0 -9.86434,1.03193 -14.8817,2.08656c0,0 -0.59339,0.12343 -0.71837,-0.46289c-0.12492,-0.58632 0.46847,-0.70978 0.46847,-0.70978c0.46864,-0.09635 0.93426,-0.19284 1.39759,-0.28859c-0.14991,-0.4098 0.25021,-0.67337 0.25021,-0.67337c3.73585,-2.4457 8.97257,-1.32721 13.193,-1.67471c5.3171,-0.00364 10.925,0.53462 16.22102,1.0522l0.07246,-0.00297c0,0 0.60647,0 0.60647,0.5992c0,0.5992 -0.60647,0.5992 -0.60647,0.5992l-0.19312,-0.00297c-0.29765,-0.02976 -0.5963,-0.05952 -0.89588,-0.08913c0.09709,0.12323 0.15879,0.30441 0.06324,0.5562c-0.03468,0.09142 -0.07882,0.16235 -0.12834,0.21704c0.4795,0.16142 0.96113,0.33526 1.44578,0.52521l0.31156,0.15163c0,0 0.54242,0.26798 0.27122,0.80389zM415.05124,268.25413c0.95313,-0.18645 1.90227,-0.36241 2.85379,-0.52018c-0.99086,0.07703 -1.95381,0.23117 -2.85379,0.52018z" fill="#bd2222" stroke="none" stroke-width="0.5"/></g><g stroke-linecap="butt"><g fill="#db4747" stroke="#000000" stroke-width="0"><path d="M391.19565,254.22241c12.61145,1.22357 19.43846,4.51998 24.82851,16.3794c1.24139,2.73133 3.52792,5.32804 3.68879,8.4678c0.07448,1.45424 -0.15406,2.68461 -0.63608,3.72032c1.69643,-0.20773 3.22586,-0.07861 4.19024,0.87425c7.37092,7.2828 -6.17125,9.79987 -11.42286,9.79987c-29.42097,0 -35.70463,-1.17724 -55.25743,-1.52548c-3.60943,-0.06429 -7.06203,-1.22073 -10.44801,0.0162c-1.4526,0.53066 -8.1062,2.58753 -9.89399,1.18494c-1.88987,-0.19012 -3.26963,-1.34787 -2.82299,-4.15945c-0.02065,-0.16295 -0.03133,-0.32848 -0.03133,-0.49611c0,-0.68809 0.17885,-1.34029 0.49882,-1.9243c2.58165,-9.19226 7.7733,-17.64313 12.91324,-25.9361c0.76316,-1.23133 2.92598,-7.49586 4.74109,-8.82659c3.90482,-2.86288 10.01232,-2.26223 14.60589,-3.02157c4.08752,-0.67569 14.7055,-2.82505 18.41378,0.35793c1.56543,1.34369 2.37182,3.10211 2.29251,4.67036c1.53142,0.13965 2.98931,0.28753 4.33976,0.41853z"/><path d="M427.63413,286.39286c0.31997,0.584 0.49874,1.2362 0.49874,1.9243c0,0.16769 -0.01067,0.33316 -0.03132,0.49611c0.60572,3.81286 -2.14754,4.58426 -4.97674,4.02534c-2.21487,-0.43761 -4.47625,-1.69057 -5.20865,-2.93804c-5.64847,-9.6207 -7.36604,-22.97365 -15.71532,-31.38217c-0.81376,-0.8196 -6.01105,-0.55053 -6.34438,-0.56509c-5.61047,-0.24516 -8.9738,-0.24749 -16.25943,-0.49844c-5.82939,-0.20082 -6.20758,-5.42352 -2.63705,-8.48831c3.70827,-3.18304 14.32619,-1.03367 18.41378,-0.35798c4.59357,0.75935 10.70106,0.15869 14.60589,3.02157c1.81503,1.33073 3.97786,7.59525 4.74102,8.82658c5.13995,8.29303 10.3316,16.74384 12.91331,25.9361z" data-paper-data="{&quot;index&quot;:null}"/></g><g fill="#c74040" stroke="none"><path d="M334.54089,285.01179c0,-3.42509 6.38699,-6.20161 14.26568,-6.20161c7.87868,0 14.26568,2.77658 14.26568,6.20161c0,3.42509 -6.38699,6.20161 -14.26568,6.20161c-7.87868,0 -14.26568,-2.77653 -14.26568,-6.20161z" stroke-width="NaN"/><path d="M400.05538,285.10291c0,-3.42509 6.38693,-6.2016 14.26562,-6.2016c7.87868,0 14.26562,2.77657 14.26562,6.2016c0,3.42509 -6.38693,6.20161 -14.26562,6.20161c-7.87868,0 -14.26562,-2.77652 -14.26562,-6.20161z" stroke-width="NaN"/><path d="M347.33992,291.21345v-12.40328h67.19509v12.40328z" stroke-width="0"/></g><path d="M339.96536,272.40191c1.65265,-1.25155 2.65902,-7.47955 3.86586,-9.77554c5.72061,-10.88362 12.31894,-15.92621 25.05829,-16.22519c0.0172,-0.00039 0.03443,-0.00085 0.0517,-0.00136c0.15538,0.03098 0.31585,0.04825 0.47989,0.05046c0.01219,0.00005 0.0243,0.00011 0.03621,0.00029c3.98549,0.03647 7.97128,0.05998 11.95699,0.06977c2.87338,2.91403 2.81336,4.78475 -0.17995,7.74233c-1.79128,1.76986 -5.04523,0.52165 -7.57807,0.56588c-7.22498,0.12618 -13.01526,0.5571 -17.89327,5.5544c-4.65263,4.76635 -12.60463,24.93686 -15.01005,30.67463c-0.78691,1.87713 -6.86977,7.1061 -8.97001,3.47453c-1.35044,-0.78749 -2.25637,-2.23997 -2.25637,-3.90154c0,-1.61581 0.85679,-3.03392 2.14596,-3.83505c2.96811,-5.33835 7.78382,-14.00822 8.2929,-14.39366z" fill="#bd2222" stroke="none" stroke-width="0.5"/><path d="M430.30243,286.23768c1.28916,0.80108 2.14596,2.21919 2.14596,3.83507c0,1.66157 -0.90593,3.11406 -2.25637,3.90154c-2.10032,3.63157 -8.18311,-1.59746 -8.97001,-3.47459c-2.40542,-5.73778 -10.35742,-25.90824 -15.01005,-30.67458c-4.87808,-4.99729 -10.6683,-5.42822 -17.89327,-5.5544c-2.53284,-0.04423 -5.78684,1.20398 -7.57806,-0.56588c-2.79932,-2.76588 -3.03325,-4.58127 -0.70164,-7.18833c6.40785,0.02078 12.81585,0.006 19.22342,-0.04785c0.11104,0.01461 0.22146,0.02849 0.33126,0.04157c8.65672,1.71118 13.89415,6.70004 18.55023,15.55833c1.20677,2.29598 2.21321,8.52398 3.86578,9.77553c0.50915,0.38551 5.32471,9.05532 8.2929,14.39366z" data-paper-data="{&quot;index&quot;:null}" fill="#bd2222" stroke="none" stroke-width="0.5"/><path d="M410.43516,259.8459c-0.46404,0.91696 -1.39216,0.4585 -1.39216,0.4585l-0.37573,-0.18962c-5.78402,-2.30278 -11.26204,-3.16021 -17.12288,-4.89167c-3.28299,-0.07294 -6.60473,0.02572 -9.98637,0.02572c-8.89415,0 -16.87817,1.76567 -25.46301,3.57018c0,0 -1.01531,0.21118 -1.22913,-0.79203c-0.21375,-1.0032 0.80158,-1.21445 0.80158,-1.21445c0.80185,-0.16486 1.59855,-0.32993 2.3913,-0.49378c-0.2565,-0.70118 0.42811,-1.15216 0.42811,-1.15216c6.39214,-4.18467 15.35233,-2.27091 22.57359,-2.8655c9.09771,-0.00624 18.69299,0.91475 27.75462,1.80033l0.12398,-0.0051c0,0 1.0377,0 1.0377,1.02524c0,1.02524 -1.0377,1.02525 -1.0377,1.02525l-0.33042,-0.00511c-0.50928,-0.05091 -1.02028,-0.10183 -1.53287,-0.15251c0.16612,0.21085 0.27171,0.52086 0.10822,0.95167c-0.05934,0.15642 -0.13486,0.27778 -0.2196,0.37134c0.82044,0.27619 1.64451,0.57365 2.47377,0.89867l0.5331,0.25945c0,0 0.9281,0.4585 0.46404,1.37546zM362.87578,255.34249c1.63082,-0.31901 3.25483,-0.62008 4.8829,-0.89005c-1.69539,0.13179 -3.34301,0.39552 -4.8829,0.89005z" fill="#bd2222" stroke="none" stroke-width="0.5"/></g><path d="M296.14479,343.33192c-0.02906,-0.05774 -0.05616,-0.11713 -0.08121,-0.17825c-0.65527,-1.59888 0.92655,-3.36686 1.78331,-4.86744c0.54772,-0.95929 1.62447,-1.50543 2.33719,-2.34938c2.06508,-2.44531 3.73387,-5.34519 5.46068,-8.03196c1.21216,-0.90083 2.20597,-2.21826 3.63648,-2.70247c5.11937,-1.73285 6.3506,2.09657 8.81819,5.09676c1.36369,1.65802 3.16614,2.94886 4.38881,4.71344c2.2837,3.29585 5.88466,7.55628 2.09308,11.68386c-0.65386,0.71181 -5.44731,0.59775 -6.77302,0.59559c-6.44796,-0.01056 -12.94455,-0.80801 -19.34965,-1.4377c0,0 -2.35916,-0.23591 -2.31386,-2.52245z" fill="#e74a4a" stroke="none" stroke-width="0.5" stroke-linecap="butt"/><path d="M327.62367,339.84807c0,2.56446 -2.56446,2.56446 -2.56446,2.56446h-2.23392c-2.52634,0 -5.17422,-0.14125 -7.84308,-0.22842c-0.0881,1.1871 -0.1821,2.37653 -0.27319,3.56956l0.00755,0.54796c0,0 0,2.56446 -2.56446,2.56446c-2.56446,0 -2.56446,-2.56446 -2.56446,-2.56446l0.00755,-0.94132c0.08351,-1.07718 0.17084,-2.15217 0.25419,-3.22571c-2.98933,0.07033 -5.92348,0.36804 -8.6588,1.17212c0,0 -2.46579,0.70451 -3.17029,-1.76128c-0.70451,-2.46579 1.76128,-3.17029 1.76128,-3.17029c3.33233,-0.92963 6.84642,-1.23815 10.40125,-1.29882c0.17278,-3.59112 0.16274,-7.17847 -0.32447,-10.78925c0,0 -0.33893,-2.54196 2.20303,-2.88089c2.54196,-0.33893 2.88089,2.20303 2.88089,2.20303c0.50905,3.8602 0.52847,7.68219 0.35539,11.50934c2.53984,0.06492 5.06608,0.16507 7.5276,0.16507h2.23392c0,0 2.56446,0 2.56446,2.56446z" fill="#fa6a6a" stroke="none" stroke-width="0.5" stroke-linecap="butt"/><path d="M435.7209,343.93399c-0.02907,-0.05774 -0.05616,-0.11714 -0.0812,-0.17825c-0.65527,-1.59888 0.92655,-3.36685 1.78331,-4.86744c0.54772,-0.95929 1.62447,-1.50543 2.33719,-2.34938c2.06509,-2.44531 3.73387,-5.34519 5.46068,-8.03196c1.21216,-0.90083 2.20597,-2.21826 3.63648,-2.70247c5.11937,-1.73285 6.35059,2.09657 8.81818,5.09675c1.36369,1.65802 3.16613,2.94886 4.38881,4.71344c2.28371,3.29585 5.88467,7.55628 2.09309,11.68386c-0.65386,0.71181 -5.44732,0.59776 -6.77303,0.59559c-6.44797,-0.01056 -12.94455,-0.80801 -19.34965,-1.4377c0,0 -2.35916,-0.23591 -2.31386,-2.52245z" fill="#e74a4a" stroke="none" stroke-width="0.5" stroke-linecap="butt"/><g><g><path d="M369.96494,317.97326c1.11426,-0.85485 2.59106,-0.36257 2.59106,-0.36257c5.68896,1.89754 9.11024,2.91462 15.22667,1.17198c2.14402,-0.61089 7.05603,-3.36859 9.05614,-2.60846c0.84414,0.3208 3.90457,8.02513 4.43743,9.16404c1.99433,4.26265 6.19999,6.97329 7.79734,11.64726c3.3371,9.76472 -8.03109,9.00033 -14.11709,7.9979c-9.69548,-0.56321 -19.67236,-0.92087 -29.35551,-0.91695c-2.01411,0.0008 -9.7487,0.69796 -10.83479,-0.83144c-1.56843,-2.20871 1.03748,-6.57658 2.03439,-8.5754c2.72205,-5.45781 5.42639,-11.04682 10.0958,-14.94593l0.05184,-0.42545c0,0 1.11474,-1.85792 3.01665,-1.31494z" fill="#e74a4a" stroke="none" stroke-width="0.5" stroke-linecap="butt"/><path d="M405.87864,337.18614c0.1926,2.64649 -2.11849,2.86706 -2.11849,2.86706l-2.53034,0.23916c-13.39844,0.01218 -26.66239,1.16372 -40.05653,1.16372c0,0 -2.31907,0.00002 -2.31907,-2.6557c0,-2.65567 2.31907,-2.65569 2.31907,-2.65569c2.95776,0 5.90903,-0.05769 8.85676,-0.14736c0.20371,-0.12538 0.34925,-0.18093 0.34925,-0.18093l0.6205,-0.12077c2.8995,-2.32421 5.60063,-4.52854 8.13855,-7.3031c-0.00456,-4.65237 -0.07863,-9.29591 0.20894,-13.93893c0,0 0.16523,-2.64893 2.47841,-2.45969c2.31318,0.18923 2.14798,2.83811 2.14798,2.83811c-0.29253,4.65506 -0.19697,9.31467 -0.19697,13.98014l0.13579,0.48992c2.34246,1.668 4.69401,3.20929 7.22704,4.52548l1.73518,0.57082c0,0 0.54155,0.18604 1.00962,0.68061c2.38085,-0.06016 4.76457,-0.09579 7.15269,-0.09347l2.33791,-0.22544c0,0 2.31106,-0.22054 2.50367,2.42596zM381.08782,333.54366c-0.72477,0.73278 -1.46113,1.4335 -2.21016,2.11397c1.64936,-0.07164 3.2985,-0.14519 4.94797,-0.21618c-0.91881,-0.61196 -1.8287,-1.24601 -2.73783,-1.89779z" fill="#fa6a6a" stroke="none" stroke-width="0.5" stroke-linecap="butt"/><path d="M371.19934,314.98966c0,-5.89255 4.77685,-10.66937 10.66937,-10.66937c5.89255,0 10.66937,4.7768 10.66937,10.66937c0,5.89255 -4.7768,10.66941 -10.66937,10.66941c-5.89255,0 -10.66937,-4.77687 -10.66937,-10.66941z" fill="#bd2222" stroke="none" stroke-width="0" stroke-linecap="butt"/><path d="M375.67516,314.8874c0,-3.44845 2.7955,-6.24393 6.24393,-6.24393c3.44845,0 6.24393,2.79547 6.24393,6.24393c0,3.44845 -2.79547,6.24394 -6.24393,6.24394c-3.44845,0 -6.24393,-2.79547 -6.24393,-6.24394z" fill="#fa5050" stroke="none" stroke-width="0" stroke-linecap="butt"/><path d="M386.65771,317.75267c-1.46228,0 -1.46231,-1.46231 -1.46231,-1.46231v-0.30084c0.00169,-3.24281 -0.29036,-4.27165 -3.75216,-4.25351c0,0 -1.46229,-0.00002 -1.46229,-1.46231c0,-1.46228 1.46229,-1.46231 1.46229,-1.46231c5.02906,0.02174 6.67439,2.37835 6.67679,7.17814v0.30084c0,0 -0.00002,1.46231 -1.4623,1.46231z" fill="#fa6a6a" stroke="none" stroke-width="0.5" stroke-linecap="butt"/><path d="M355.35992,340.49453c0,0 -0.26487,0.3705 -0.73363,0.70855c0.66122,0.20485 1.35914,0.33909 1.84313,0.37245c4.4826,0.3091 9.11033,-0.01664 13.60513,-0.01664c9.83021,0 19.64873,0.09462 29.46175,-0.33856c2.73431,-0.12069 8.18136,0.72677 10.51219,-0.98648c0.84162,-0.61862 -1.31121,-1.61275 -1.93477,-2.44284c-0.16621,-0.22122 -0.32576,-0.44439 -0.47984,-0.66915c0.65481,0.19312 1.30496,0.33922 1.94562,0.43306c0.95588,0.76969 2.17106,1.23035 3.49381,1.23035c0.76241,0 1.48906,-0.15305 2.15095,-0.43009c0.59405,1.3828 0.73233,2.90244 -0.23757,4.65337c-1.82923,3.30219 -8.99529,3.77121 -12.21017,3.78465c-10.88888,0.04562 -21.79536,0.34068 -32.70203,0.34068c-5.6032,0 -17.7335,2.2261 -21.31343,-3.58941c-0.09931,-0.65523 -0.23869,-1.31268 -0.41694,-1.96358c1.43302,-0.91961 2.85997,-1.98277 4.20659,-3.09895c1.28957,0.21945 2.7793,0.13096 4.26107,-0.15084c-0.47203,0.73508 -0.95519,1.45707 -1.4519,2.16343z" fill="#7e1717" stroke="none" stroke-width="0.5" stroke-linecap="butt"/><path d="M385.54349,300.46779c0.02278,0.12787 0.04736,0.25777 0.07376,0.38972c0.33709,1.68536 3.78405,2.94933 4.57033,4.8204c0.49344,1.1742 1.17419,2.78584 2.01249,4.58315c-3.73888,-3.74626 -10.59825,-7.09311 -15.11293,-3.52888c-0.2169,-1.06214 -0.73584,-2.01434 -1.46321,-2.76299c0.21796,-0.57783 0.34266,-1.20142 0.35581,-1.85243c0.11321,-0.10899 0.22174,-0.22274 0.32542,-0.34094c2.78974,-1.37022 5.84829,-1.91982 9.23829,-1.30806z" fill="#b22020" stroke="none" stroke-width="0.5" stroke-linecap="butt"/><path d="M354.61129,336.28888c0,-4.8643 3.9433,-8.80752 8.80758,-8.80752c4.8643,0 8.80753,3.94327 8.80753,8.80752c0,4.8643 -3.94322,8.80758 -8.80753,8.80758c-4.8643,0 -8.80758,-3.9433 -8.80758,-8.80758z" fill="#bd2222" stroke="none" stroke-width="0" stroke-linecap="butt"/><path d="M358.30605,336.20454c0,-2.84668 2.30766,-5.15436 5.15434,-5.15436c2.84668,0 5.15439,2.30771 5.15439,5.15436c0,2.84668 -2.30772,5.15435 -5.15439,5.15435c-2.84668,0 -5.15434,-2.3077 -5.15434,-5.15435z" fill="#fa5050" stroke="none" stroke-width="0" stroke-linecap="butt"/><path d="M367.37213,338.56983c-1.20713,0 -1.20713,-1.20711 -1.20713,-1.20711v-0.24836c0.0014,-2.67688 -0.2397,-3.52625 -3.09741,-3.51131c0,0 -1.20711,0 -1.20711,-1.20713c0,-1.20713 1.20711,-1.20713 1.20711,-1.20713c4.15144,0.01791 5.50973,1.96335 5.51167,5.92552v0.24829c0,0 0,1.20715 -1.20713,1.20715z" fill="#fa6a6a" stroke="none" stroke-width="0.5" stroke-linecap="butt"/><path d="M372.57193,335.8512c0,-4.8643 3.9433,-8.80752 8.80758,-8.80752c4.8643,0 8.80758,3.94329 8.80758,8.80752c0,4.8643 -3.94327,8.80758 -8.80758,8.80758c-4.8643,0 -8.80758,-3.9433 -8.80758,-8.80758z" fill="#bd2222" stroke="none" stroke-width="0" stroke-linecap="butt"/><path d="M376.26669,335.76666c0,-2.84668 2.30766,-5.15436 5.15434,-5.15436c2.84668,0 5.15439,2.30769 5.15439,5.15436c0,2.84668 -2.30769,5.15437 -5.15439,5.15437c-2.84668,0 -5.15434,-2.3077 -5.15434,-5.15437z" fill="#fa5050" stroke="none" stroke-width="0" stroke-linecap="butt"/><path d="M385.33275,338.13192c-1.20713,0 -1.20711,-1.2071 -1.20711,-1.2071v-0.24837c0.0014,-2.67688 -0.23972,-3.52625 -3.09741,-3.51131c0,0 -1.20713,0 -1.20713,-1.20713c0,-1.20713 1.20713,-1.20713 1.20713,-1.20713c4.15144,0.01791 5.50971,1.96335 5.51168,5.92552v0.24836c0,0 -0.00001,1.20711 -1.20711,1.20711z" fill="#fa6a6a" stroke="none" stroke-width="0.5" stroke-linecap="butt"/><path d="M390.86601,335.95785c0,-4.8643 3.94329,-8.8075 8.80752,-8.8075c4.86431,0 8.80758,3.94327 8.80758,8.8075c0,4.8643 -3.94327,8.8076 -8.80758,8.8076c-4.8643,0 -8.80752,-3.94332 -8.80752,-8.8076z" fill="#bd2222" stroke="none" stroke-width="0" stroke-linecap="butt"/><path d="M394.56076,335.87351c0,-2.84668 2.30769,-5.15434 5.15436,-5.15434c2.84668,0 5.15435,2.30767 5.15435,5.15434c0,2.84668 -2.30767,5.15439 -5.15435,5.15439c-2.84668,0 -5.15436,-2.30772 -5.15436,-5.15439z" fill="#fa5050" stroke="none" stroke-width="0" stroke-linecap="butt"/><path d="M403.62686,338.23881c-1.20713,0 -1.20716,-1.20713 -1.20716,-1.20713v-0.24834c0.0014,-2.67688 -0.23968,-3.52623 -3.09738,-3.51128c0,0 -1.20716,-0.00002 -1.20716,-1.20713c0,-1.20713 1.20716,-1.20716 1.20716,-1.20716c4.15144,0.01791 5.5097,1.96335 5.51167,5.92552v0.24834c0,0 0,1.20713 -1.20713,1.20713z" fill="#fa6a6a" stroke="none" stroke-width="0.5" stroke-linecap="butt"/><path d="M386.25385,303.46496l27.30713,37.79118" fill="#b22020" stroke="#bd2222" stroke-width="2.5" stroke-linecap="round"/><path d="M378.87397,303.39951l-27.30713,37.79115" data-paper-data="{&quot;index&quot;:null}" fill="#b22020" stroke="#bd2222" stroke-width="2.5" stroke-linecap="round"/></g><path d="M350.5779,342.62764l27.07427,-39.32893" fill="none" stroke="#7e1717" stroke-width="5" stroke-linecap="round"/><path d="M386.20194,303.0137l27.07427,37.049" fill="none" stroke="#7e1717" stroke-width="5" stroke-linecap="round"/><path d="M388.52378,302.17094c0,2.56446 -2.56446,2.56446 -2.56446,2.56446c-1.84901,0 -6.56101,0 -8.41001,0c0,0 -2.56446,0 -2.56446,-2.56446c0,-2.56446 2.56446,-2.56446 2.56446,-2.56446c1.84901,0 3.69802,0 5.54703,0h2.86298c0,0 2.56446,0 2.56446,2.56446z" fill="#7e1717" stroke="none" stroke-width="0.5" stroke-linecap="butt"/></g><g data-paper-data="{&quot;index&quot;:null}"><g><path d="M413.85501,318.78156c-1.87428,0.63178 -3.07513,-1.17167 -3.07513,-1.17167l-0.07179,-0.42254c-4.84755,-3.67529 -7.81166,-9.13099 -10.78727,-14.45479c-1.08978,-1.94974 -3.89816,-6.19027 -2.43529,-8.47027c1.01299,-1.57877 8.7718,-1.246 10.78372,-1.33989c9.67262,-0.4513 19.62167,-1.27758 29.27995,-2.29597c6.03215,-1.28744 17.35183,-2.58541 14.47747,7.32539c-1.37585,4.7439 -5.44944,7.64926 -7.24116,12.00094c-0.47873,1.16271 -3.17359,9.00239 -4.00171,9.36252c-1.96217,0.85331 -6.9984,-1.67042 -9.16876,-2.17984c-6.19158,-1.45316 -9.56126,-0.27638 -15.15473,1.88652c0,0 -1.45204,0.56114 -2.60525,-0.24036z" fill="#e74a4a" stroke="none" stroke-width="0.5" stroke-linecap="butt"/><path d="M448.82578,297.9017c-0.06797,2.65264 -2.38685,2.54099 -2.38685,2.54099l-2.34592,-0.11528c-2.38536,0.11459 -4.76813,0.19105 -7.14918,0.24289c-0.4443,0.51602 -0.9765,0.72731 -0.9765,0.72731l-1.70643,0.65176c-2.46836,1.43382 -4.74486,3.08395 -7.0063,4.86024l-0.11261,0.49577c0.21933,4.6603 0.34293,9.31926 0.85397,13.95542c0,0 0.28955,2.63819 -2.01218,2.93595c-2.30173,0.29777 -2.59131,-2.34047 -2.59131,-2.34047c-0.50553,-4.62438 -0.64985,-9.26626 -0.86401,-13.9137c-2.66555,-2.65218 -5.46732,-4.72709 -8.47287,-6.91242l-0.62548,-0.09147c0,0 -0.14799,-0.04863 -0.35737,-0.1643c-2.94868,0.049 -5.89942,0.13012 -8.8539,0.26918c0,0 -2.3165,0.109 -2.44135,-2.54373c-0.12485,-2.65279 2.19166,-2.76178 2.19166,-2.76178c13.37934,-0.62968 26.68276,-0.10297 40.06695,-0.72068l2.53878,0.11994c0,0 2.3189,0.11168 2.25093,2.7643zM424.23364,302.70549c0.8775,-0.69381 1.75656,-1.36992 2.64558,-2.02439c-1.65099,0.00663 -3.30177,0.01068 -4.95266,0.01666c0.78019,0.64451 1.54868,1.30984 2.3071,2.00773z" fill="#fa6a6a" stroke="none" stroke-width="0.5" stroke-linecap="butt"/><path d="M425.38435,310.54467c5.88605,-0.27702 10.88212,4.26998 11.15915,10.15603c0.27702,5.88604 -4.26993,10.88212 -10.15598,11.15915c-5.88599,0.27702 -10.88212,-4.26994 -11.15915,-10.15598c-0.27702,-5.88602 4.26993,-10.88218 10.15598,-11.15919z" fill="#bd2222" stroke="none" stroke-width="0" stroke-linecap="butt"/><path d="M425.64753,315.06501c3.44465,-0.16211 6.36844,2.49885 6.53055,5.9435c0.16211,3.44465 -2.49884,6.36845 -5.94348,6.53056c-3.44462,0.16211 -6.36845,-2.49885 -6.53056,-5.94348c-0.16211,-3.44465 2.49885,-6.36845 5.9435,-6.53056z" fill="#fa5050" stroke="none" stroke-width="0" stroke-linecap="butt"/><path d="M432.06918,319.60914l0.01415,0.30051c0.22325,4.79459 -1.30947,7.22595 -6.33195,7.48409c0,0 -1.46067,0.06873 -1.52942,-1.39195c-0.06875,-1.46067 1.39192,-1.52945 1.39192,-1.52945c3.45882,-0.14463 3.70219,-1.18607 3.54805,-4.4252l-0.01414,-0.30051c0,0 -0.06873,-1.46069 1.39196,-1.52943c1.46067,-0.06874 1.52943,1.39195 1.52943,1.39195z" fill="#fa6a6a" stroke="none" stroke-width="0.5" stroke-linecap="butt"/><path d="M398.20741,296.97181c0.52937,0.68223 1.04593,1.3807 1.552,2.09278c-1.49339,-0.21182 -2.98562,-0.23018 -4.26345,0.04966c-1.3976,-1.05164 -2.87296,-2.04654 -4.34762,-2.89777c0.14746,-0.65857 0.25577,-1.32184 0.32417,-1.98102c3.30257,-5.97738 15.52412,-4.32399 21.12111,-4.58741c10.89462,-0.51274 21.80291,-0.73073 32.6819,-1.19707c3.21196,-0.1377 10.39214,-0.00608 12.37459,3.20646c1.05114,1.70339 0.98444,3.22786 0.45606,4.63705c-0.67419,-0.24561 -1.40722,-0.36434 -2.16879,-0.3285c-1.3213,0.06218 -2.51348,0.57948 -3.43211,1.39325c-0.63554,0.12385 -1.27811,0.30035 -1.92311,0.52404c0.14334,-0.23175 0.29224,-0.46218 0.44786,-0.69097c0.58384,-0.85849 2.68756,-1.95271 1.81779,-2.53109c-2.40879,-1.60178 -7.80998,-0.4992 -10.54695,-0.49121c-9.82253,0.02862 -19.62575,0.58472 -29.44509,1.04685c-4.48983,0.21131 -9.12777,0.10348 -13.59088,0.62297c-0.48188,0.05607 -1.17273,0.22297 -1.82357,0.45869c0.48414,0.31562 0.76613,0.67327 0.76613,0.67327z" fill="#7e1717" stroke="none" stroke-width="0.5" stroke-linecap="butt"/><path d="M430.23931,335.53535c-3.35749,0.77045 -6.43851,0.36525 -9.28957,-0.8723c-0.10912,-0.11318 -0.22288,-0.22171 -0.34109,-0.32527c-0.04374,-0.64967 -0.19763,-1.26671 -0.4425,-1.83366c0.69137,-0.78202 1.16497,-1.75757 1.3317,-2.82872c4.67725,3.34804 11.37169,-0.31757 14.93033,-4.23545c-0.75287,1.83472 -1.35711,3.4766 -1.79481,4.67269c-0.69744,1.90596 -4.08117,3.33058 -4.33866,5.02992c-0.02017,0.13304 -0.03861,0.26395 -0.05536,0.39276z" fill="#b22020" stroke="none" stroke-width="0.5" stroke-linecap="butt"/><path d="M406.04113,291.99611c4.85893,-0.22868 8.98316,3.52486 9.21185,8.38379c0.22868,4.85887 -3.52481,8.98315 -8.38374,9.21183c-4.8589,0.22868 -8.98322,-3.5248 -9.21189,-8.38373c-0.22868,-4.85889 3.52485,-8.98322 8.38378,-9.21189z" fill="#bd2222" stroke="none" stroke-width="0" stroke-linecap="butt"/><path d="M406.25831,295.7276c2.84353,-0.13382 5.25719,2.06281 5.39101,4.90634c0.13382,2.8435 -2.06286,5.25715 -4.90639,5.39098c-2.84353,0.13382 -5.25712,-2.06283 -5.39096,-4.90635c-0.13382,-2.8435 2.06281,-5.25713 4.90633,-5.39097z" fill="#fa5050" stroke="none" stroke-width="0" stroke-linecap="butt"/><path d="M410.29685,298.32975c1.2058,-0.05676 1.26254,1.14907 1.26254,1.14907l0.01167,0.24801c0.18432,3.9579 -1.081,5.96503 -5.22702,6.17808c0,0 -1.20578,0.05675 -1.26252,-1.14905c-0.05675,-1.2058 1.14903,-1.26254 1.14903,-1.26254c2.85524,-0.11941 3.05615,-0.97919 2.92892,-3.65305l-0.01167,-0.24809c0,0 -0.05675,-1.20578 1.14905,-1.26253z" fill="#fa6a6a" stroke="none" stroke-width="0.5" stroke-linecap="butt"/><path d="M424.00248,291.58895c4.85893,-0.22868 8.98322,3.52485 9.2119,8.38378c0.22867,4.85885 -3.52485,8.98316 -8.38379,9.21184c-4.8589,0.22868 -8.98322,-3.5248 -9.21189,-8.38373c-0.22868,-4.85889 3.52485,-8.98322 8.38378,-9.21189z" fill="#bd2222" stroke="none" stroke-width="0" stroke-linecap="butt"/><path d="M424.21967,295.32061c2.84355,-0.13382 5.25719,2.06283 5.39101,4.90635c0.13383,2.84352 -2.06286,5.25715 -4.90638,5.39098c-2.84353,0.13382 -5.25712,-2.06283 -5.39096,-4.90635c-0.13383,-2.84352 2.0628,-5.25715 4.90633,-5.39098z" fill="#fa5050" stroke="none" stroke-width="0" stroke-linecap="butt"/><path d="M428.25824,297.9228c1.20577,-0.05675 1.26252,1.14902 1.26252,1.14902l0.01167,0.2481c0.1843,3.9579 -1.08101,5.96502 -5.22702,6.17808c0,0 -1.20579,0.05675 -1.26254,-1.14905c-0.05675,-1.2058 1.14904,-1.26254 1.14904,-1.26254c2.85524,-0.11941 3.05615,-0.97919 2.92892,-3.65305l-0.01168,-0.24809c0,0 -0.05677,-1.20578 1.14903,-1.26252z" fill="#fa6a6a" stroke="none" stroke-width="0.5" stroke-linecap="butt"/><path d="M442.27127,290.62238c4.85893,-0.22868 8.98322,3.52489 9.21189,8.38381c0.22867,4.85885 -3.52485,8.98314 -8.38379,9.21182c-4.85885,0.22868 -8.98315,-3.52478 -9.21183,-8.38371c-0.22868,-4.85889 3.5248,-8.98325 8.38373,-9.21192z" fill="#bd2222" stroke="none" stroke-width="0" stroke-linecap="butt"/><path d="M442.48853,294.35382c2.84353,-0.13382 5.25713,2.06286 5.39097,4.90638c0.13383,2.84352 -2.06281,5.25713 -4.90634,5.39096c-2.84353,0.13382 -5.25715,-2.06281 -5.39098,-4.90634c-0.13383,-2.84352 2.06283,-5.25718 4.90635,-5.39101z" fill="#fa5050" stroke="none" stroke-width="0" stroke-linecap="butt"/><path d="M446.52706,296.95599c1.2058,-0.05676 1.26255,1.14905 1.26255,1.14905l0.01167,0.24806c0.1843,3.9579 -1.08101,5.96503 -5.22702,6.17809c0,0 -1.20583,0.05672 -1.26257,-1.14908c-0.05675,-1.20578 1.14908,-1.26254 1.14908,-1.26254c2.85524,-0.11941 3.05612,-0.97917 2.9289,-3.65302l-0.01168,-0.24806c0,0 -0.05673,-1.2058 1.14908,-1.26255z" fill="#fa6a6a" stroke="none" stroke-width="0.5" stroke-linecap="butt"/><path d="M456.30833,293.47494l-25.50032,39.03315" fill="#b22020" stroke="#bd2222" stroke-width="2.5" stroke-linecap="round"/><path d="M423.43937,332.92039l-29.05355,-36.46563" data-paper-data="{&quot;index&quot;:null}" fill="#b22020" stroke="#bd2222" stroke-width="2.5" stroke-linecap="round"/></g><path d="M422.22367,333.07853l-28.89324,-38.01265" fill="none" stroke="#7e1717" stroke-width="5" stroke-linecap="round"/><path d="M456.07998,294.68043l-25.30261,38.28083" fill="none" stroke="#7e1717" stroke-width="5" stroke-linecap="round"/><path d="M430.6952,336.37613l-2.85982,0.13459c-1.84696,0.08692 -3.69393,0.17385 -5.5409,0.26077c0,0 -2.56162,0.12056 -2.68218,-2.44106c-0.12056,-2.56161 2.44106,-2.68217 2.44106,-2.68217c1.84696,-0.08692 6.55375,-0.30844 8.40072,-0.39537c0,0 2.56161,-0.12055 2.68217,2.44106c0.12056,2.56161 -2.44105,2.68217 -2.44105,2.68217z" fill="#7e1717" stroke="none" stroke-width="0.5" stroke-linecap="butt"/></g><g data-paper-data="{&quot;index&quot;:null}"><g><path d="M325.64341,319.1908c-1.90187,0.54309 -3.01673,-1.31477 -3.01673,-1.31477l-0.05187,-0.42545c-4.66964,-3.89883 -7.37432,-9.4877 -10.09668,-14.94534c-0.99703,-1.99876 -3.6032,-6.36647 -2.03491,-8.57527c1.08601,-1.52947 8.82063,-0.83275 10.83474,-0.83207c9.68315,0.00335 19.66001,-0.35489 29.35546,-0.91867c6.08596,-1.00279 17.4541,-1.76784 14.11756,7.99707c-1.59707,4.67407 -5.80258,7.38496 -7.79666,11.64772c-0.5328,1.13895 -3.59277,8.84344 -4.4369,9.16429c-2.00007,0.76025 -6.91224,-1.99718 -9.05629,-2.60793c-6.11652,-1.74228 -9.53775,-0.725 -15.2266,1.17287c0,0 -1.47678,0.49235 -2.59108,-0.36242z" fill="#e74a4a" stroke="none" stroke-width="0.5" stroke-linecap="butt"/><path d="M361.55598,299.97595c-0.19245,2.64653 -2.50352,2.42612 -2.50352,2.42612l-2.33792,-0.2253c-2.38811,0.00246 -4.77184,-0.03303 -7.15269,-0.09305c-0.46803,0.4946 -1.00957,0.68066 -1.00957,0.68066l-1.73515,0.57092c-2.53295,1.31635 -4.88442,2.85777 -7.22677,4.52592l-0.13576,0.48992c0.00028,4.66546 -0.09502,9.32509 0.19778,13.98013c0,0 0.16536,2.64887 -2.14781,2.83824c-2.31317,0.18937 -2.47856,-2.45955 -2.47856,-2.45955c-0.28784,-4.64302 -0.21405,-9.28656 -0.20976,-13.93892c-2.53808,-2.77441 -5.23935,-4.97858 -8.13898,-7.30263l-0.62051,-0.12073c0,0 -0.14555,-0.05554 -0.34926,-0.18091c-2.94774,-0.0895 -5.89901,-0.14702 -8.85677,-0.14684c0,0 -2.31907,0.0001 -2.31922,-2.65557c-0.00015,-2.65572 2.31891,-2.65583 2.31891,-2.65583c13.39414,-0.00079 26.65817,1.14997 40.0566,1.16137l2.53036,0.23901c0,0 2.3111,0.22043 2.11865,2.86693zM336.7654,303.61979c0.9091,-0.65184 1.81895,-1.28594 2.73772,-1.89795c-1.64948,-0.07089 -3.29863,-0.14436 -4.94798,-0.2159c0.74906,0.68043 1.48547,1.38111 2.21027,2.11384z" fill="#fa6a6a" stroke="none" stroke-width="0.5" stroke-linecap="butt"/><path d="M337.54677,311.50433c5.89255,-0.00035 10.66964,4.77623 10.66998,10.66878c0.00035,5.89255 -4.77618,10.66964 -10.66874,10.66998c-5.8925,0.00035 -10.66964,-4.77618 -10.66998,-10.66874c-0.00035,-5.89253 4.77619,-10.66968 10.66874,-10.67003z" fill="#bd2222" stroke="none" stroke-width="0" stroke-linecap="butt"/><path d="M337.59741,316.03206c3.44845,-0.00019 6.24409,2.79511 6.24429,6.24357c0.00019,3.44845 -2.7951,6.24409 -6.24357,6.24429c-3.44842,0.00019 -6.24409,-2.7951 -6.24429,-6.24357c-0.00019,-3.44845 2.7951,-6.2441 6.24357,-6.2443z" fill="#fa5050" stroke="none" stroke-width="0" stroke-linecap="butt"/><path d="M343.79864,320.87267l0.00001,0.30084c-0.00211,4.79979 -1.6473,7.15649 -6.67637,7.17853c0,0 -1.46229,0.00007 -1.46238,-1.46222c-0.00008,-1.46228 1.4622,-1.4624 1.4622,-1.4624c3.46181,0.01793 3.7538,-1.01093 3.75191,-4.25373l-0.00002,-0.30084c0,0 -0.00006,-1.46231 1.46223,-1.46239c1.46228,-0.00008 1.4624,1.46222 1.4624,1.46222z" fill="#fa6a6a" stroke="none" stroke-width="0.5" stroke-linecap="butt"/><path d="M311.03709,296.67041c0.49675,0.70632 0.97995,1.4283 1.45204,2.16334c-1.48179,-0.28171 -2.97153,-0.37011 -4.26109,-0.15058c-1.34668,-1.1161 -2.77369,-2.17918 -4.20676,-3.09871c0.17821,-0.65092 0.31755,-1.30837 0.41683,-1.9636c3.57958,-5.81571 15.71002,-3.59033 21.31321,-3.59066c10.90667,-0.00064 21.81317,0.29379 32.70205,0.33876c3.21488,0.01326 10.38098,0.48185 12.21039,3.78394c0.97,1.75087 0.83181,3.27052 0.23784,4.65335c-0.66191,-0.277 -1.38856,-0.43001 -2.15097,-0.42997c-1.32276,0.00008 -2.53792,0.46082 -3.49374,1.23057c-0.64065,0.09388 -1.2908,0.24001 -1.94559,0.43317c0.15406,-0.22477 0.31361,-0.44795 0.4798,-0.66917c0.62351,-0.83013 2.77628,-1.82437 1.93463,-2.44294c-2.33092,-1.71311 -7.77792,-0.86535 -10.51225,-0.98587c-9.81305,-0.43261 -19.63155,-0.33741 -29.46177,-0.33684c-4.49479,0.00027 -9.12256,-0.32521 -13.60513,-0.01585c-0.48398,0.03339 -1.1819,0.16766 -1.84309,0.37256c0.46878,0.33801 0.73367,0.70851 0.73367,0.70851z" fill="#7e1717" stroke="none" stroke-width="0.5" stroke-linecap="butt"/><path d="M341.22299,336.6954c-3.38995,0.61196 -6.44855,0.06253 -9.23837,-1.30751c-0.10369,-0.11819 -0.21222,-0.23193 -0.32544,-0.34092c-0.01319,-0.65101 -0.13794,-1.27459 -0.35592,-1.85241c0.72732,-0.74869 1.24621,-1.70092 1.46305,-2.76307c4.51489,3.56397 11.37406,0.21672 15.11273,-3.52976c-0.8382,1.79736 -1.51884,3.40904 -2.01223,4.58327c-0.78616,1.87111 -4.23304,3.13529 -4.57004,4.82066c-0.02639,0.13196 -0.05095,0.26185 -0.07373,0.38973z" fill="#b22020" stroke="none" stroke-width="0.5" stroke-linecap="butt"/><path d="M319.0958,292.06802c4.8643,-0.00029 8.80776,3.94276 8.80804,8.80706c0.00029,4.86426 -3.9427,8.80775 -8.80701,8.80803c-4.86428,0.00029 -8.80781,-3.9427 -8.80809,-8.80701c-0.00029,-4.86428 3.94276,-8.8078 8.80706,-8.80808z" fill="#bd2222" stroke="none" stroke-width="0" stroke-linecap="butt"/><path d="M319.13754,295.80558c2.84668,-0.00017 5.15454,2.30737 5.15471,5.15405c0.00016,2.84665 -2.30743,5.1545 -5.15409,5.15467c-2.84668,0.00017 -5.15447,-2.30739 -5.15464,-5.15406c-0.00016,-2.84665 2.30736,-5.15448 5.15403,-5.15465z" fill="#fa5050" stroke="none" stroke-width="0" stroke-linecap="butt"/><path d="M323.04943,298.59449c1.20713,-0.00007 1.2072,1.20709 1.2072,1.20709l0.00001,0.24828c-0.00171,3.96218 -1.35988,5.9077 -5.51131,5.92585c0,0 -1.20712,0.00007 -1.20719,-1.20707c-0.00007,-1.20713 1.20704,-1.2072 1.20704,-1.2072c2.85771,0.01478 3.09875,-0.83461 3.0972,-3.51149l-0.00001,-0.24837c0,0 -0.00007,-1.20711 1.20706,-1.20718z" fill="#fa6a6a" stroke="none" stroke-width="0.5" stroke-linecap="butt"/><path d="M337.05646,292.50465c4.8643,-0.00029 8.8078,3.94275 8.80808,8.80706c0.00028,4.86423 -3.94275,8.80776 -8.80706,8.80804c-4.86428,0.00029 -8.80781,-3.94271 -8.80809,-8.80702c-0.00029,-4.86428 3.94276,-8.8078 8.80706,-8.80808z" fill="#bd2222" stroke="none" stroke-width="0" stroke-linecap="butt"/><path d="M337.0982,296.24238c2.8467,-0.00017 5.15451,2.30738 5.15469,5.15406c0.00017,2.84668 -2.30742,5.1545 -5.15408,5.15467c-2.84668,0.00017 -5.15446,-2.30738 -5.15464,-5.15406c-0.00017,-2.84668 2.30736,-5.1545 5.15404,-5.15467z" fill="#fa5050" stroke="none" stroke-width="0" stroke-linecap="butt"/><path d="M341.01014,299.03132c1.2071,-0.00007 1.20718,1.20703 1.20718,1.20703l0.00001,0.24836c-0.00173,3.96218 -1.35988,5.9077 -5.51132,5.92584c0,0 -1.20713,0.00007 -1.2072,-1.20707c-0.00007,-1.20713 1.20707,-1.2072 1.20707,-1.2072c2.85771,0.01478 3.09877,-0.83462 3.09721,-3.5115l-0.00002,-0.24836c0,0 -0.00009,-1.20711 1.20704,-1.20718z" fill="#fa6a6a" stroke="none" stroke-width="0.5" stroke-linecap="butt"/><path d="M355.35048,292.3969c4.8643,-0.00029 8.80781,3.94278 8.80809,8.80709c0.00028,4.86423 -3.94276,8.80773 -8.80706,8.80802c-4.86423,0.00028 -8.80776,-3.94269 -8.80804,-8.80699c-0.00029,-4.86428 3.9427,-8.80783 8.80701,-8.80812z" fill="#bd2222" stroke="none" stroke-width="0" stroke-linecap="butt"/><path d="M355.39229,296.13444c2.84668,-0.00017 5.15447,2.30743 5.15465,5.15409c0.00017,2.84668 -2.30736,5.15447 -5.15404,5.15464c-2.84668,0.00017 -5.1545,-2.30736 -5.15467,-5.15404c-0.00017,-2.84668 2.30738,-5.15452 5.15406,-5.1547z" fill="#fa5050" stroke="none" stroke-width="0" stroke-linecap="butt"/><path d="M359.30419,298.92335c1.20713,-0.00007 1.2072,1.20706 1.2072,1.20706l0.00001,0.24834c-0.00173,3.96218 -1.35989,5.9077 -5.51133,5.92584c0,0 -1.20715,0.00004 -1.20722,-1.20709c-0.00007,-1.2071 1.20709,-1.2072 1.20709,-1.2072c2.85771,0.01478 3.09873,-0.83459 3.09718,-3.51147l-0.00001,-0.24834c0,0 -0.00005,-1.20713 1.20709,-1.2072z" fill="#fa6a6a" stroke="none" stroke-width="0.5" stroke-linecap="butt"/><path d="M341.93321,333.69818l27.30493,-37.79279" fill="#b22020" stroke="#bd2222" stroke-width="2.5" stroke-linecap="round"/><path d="M334.55334,333.76406l-27.30935,-37.78954" data-paper-data="{&quot;index&quot;:null}" fill="#b22020" stroke="#bd2222" stroke-width="2.5" stroke-linecap="round"/></g><path d="M306.25497,294.53758l27.07658,39.32735" fill="none" stroke="#7e1717" stroke-width="5" stroke-linecap="round"/><path d="M368.95343,297.09884l-27.07211,37.05059" fill="none" stroke="#7e1717" stroke-width="5" stroke-linecap="round"/><path d="M341.63891,337.55666l-2.86298,0.00017c-1.84901,0.0001 -3.69802,0.00022 -5.54702,0.00033c0,0 -2.56446,0.00015 -2.56461,-2.5643c-0.00015,-2.56446 2.5643,-2.56461 2.5643,-2.56461c1.84901,-0.0001 6.561,-0.00038 8.41001,-0.00049c0,0 2.56446,-0.00015 2.56461,2.5643c0.00015,2.56446 -2.56431,2.5646 -2.56431,2.5646z" fill="#7e1717" stroke="none" stroke-width="0.5" stroke-linecap="butt"/></g><path d="M466.62414,340.23283c0,2.56446 -2.56446,2.56446 -2.56446,2.56446h-2.23392c-2.52633,0 -5.17422,-0.14125 -7.84308,-0.22842c-0.0881,1.1871 -0.1821,2.37652 -0.27319,3.56955l0.00755,0.54796c0,0 0,2.56446 -2.56446,2.56446c-2.56446,0 -2.56446,-2.56446 -2.56446,-2.56446l0.00755,-0.94132c0.08351,-1.07718 0.17084,-2.15217 0.2542,-3.22571c-2.98933,0.07033 -5.92347,0.36805 -8.6588,1.17213c0,0 -2.46579,0.70451 -3.17029,-1.76128c-0.70451,-2.46579 1.76128,-3.17029 1.76128,-3.17029c3.33233,-0.92963 6.84641,-1.23815 10.40125,-1.29882c0.17279,-3.59112 0.16274,-7.17847 -0.32447,-10.78925c0,0 -0.33893,-2.54196 2.20303,-2.88089c2.54196,-0.33893 2.88089,2.20303 2.88089,2.20303c0.50905,3.8602 0.52846,7.68219 0.35538,11.50934c2.53984,0.06492 5.06608,0.16507 7.5276,0.16507h2.23392c0,0 2.56446,0 2.56446,2.56446z" fill="#fa6a6a" stroke="none" stroke-width="0.5" stroke-linecap="butt"/><g><g><path d="M435.78559,345.75148c0,0 -0.14985,0.20962 -0.41506,0.40088c0.37409,0.1159 0.76896,0.19184 1.04279,0.21072c2.53612,0.17489 5.15438,-0.00942 7.69741,-0.00942c5.56167,0 11.11671,0.05354 16.66864,-0.19154c1.54699,-0.06828 4.62879,0.41117 5.94751,-0.55813c0.47617,-0.35001 -0.74185,-0.91244 -1.09463,-1.38209c-0.09403,-0.12517 -0.18431,-0.25142 -0.27148,-0.37859c0.37047,0.10927 0.73831,0.19191 1.10078,0.24502c0.5408,0.43547 1.22832,0.69611 1.97671,0.69611c0.43136,0 0.84247,-0.0866 1.21695,-0.24334c0.3361,0.78234 0.41432,1.64212 -0.13441,2.63275c-1.03493,1.86829 -5.08929,2.13365 -6.90818,2.14125c-6.16063,0.0258 -12.33122,0.19275 -18.50191,0.19275c-3.17014,0 -10.03311,1.25947 -12.05854,-2.03078c-0.05618,-0.37071 -0.13504,-0.74268 -0.2359,-1.11094c0.81077,-0.5203 1.6181,-1.1218 2.37997,-1.7533c0.72961,0.12416 1.57245,0.07409 2.4108,-0.08535c-0.26706,0.41588 -0.54042,0.82438 -0.82145,1.22401z" fill="#7e1717" stroke="none" stroke-width="0.5" stroke-linecap="butt"/><path d="M448.39792,324.7071l-15.31787,22.25123" fill="none" stroke="#7e1717" stroke-width="5" stroke-linecap="round"/><path d="M468.55302,345.50716l-15.31787,-20.96131" fill="none" stroke="#7e1717" stroke-width="5" stroke-linecap="round"/><path d="M454.54878,324.06905c0,1.4509 -1.4509,1.4509 -1.4509,1.4509c-1.04612,0 -3.71203,0 -4.75814,0c0,0 -1.4509,0 -1.4509,-1.4509c0,-1.4509 1.4509,-1.4509 1.4509,-1.4509c1.04612,0 2.09224,0 3.13836,0h1.61979c0,0 1.4509,0 1.4509,1.4509z" fill="#7e1717" stroke="none" stroke-width="0.5" stroke-linecap="butt"/></g><path d="M435.13442,349.53039c-0.51368,0 -0.99209,-0.15104 -1.39324,-0.41111c-1.27511,-0.08751 -2.29399,-1.10712 -2.38035,-2.38253c-0.09725,-0.44065 -0.0652,-0.96892 0.20141,-1.59103c1.01019,-2.35711 3.36729,-1.34691 3.36729,-1.34691c3.43479,1.55567 6.98324,1.00771 10.73541,1.00771c6.61534,0 13.23067,0 19.84601,0h3.24017c0,0 2.56446,0 2.56446,2.56446c0,2.56446 -2.56446,2.56446 -2.56446,2.56446c-6.61534,0 -16.47083,0 -23.08617,0c-3.52618,0 -6.62872,0.20306 -9.82389,-0.50362c-0.22448,0.0642 -0.46155,0.0986 -0.70665,0.0986z" fill="#7e1717" stroke="none" stroke-width="0.5" stroke-linecap="butt"/></g><g><g><path d="M296.74404,345.74977c0,0 -0.14985,0.20963 -0.41506,0.40088c0.3741,0.1159 0.76897,0.19184 1.04279,0.21072c2.53613,0.17489 5.15437,-0.00942 7.69741,-0.00942c5.56167,0 11.1167,0.05354 16.66864,-0.19154c1.547,-0.06828 4.62879,0.41118 5.94751,-0.55812c0.47616,-0.35001 -0.74185,-0.91245 -1.09464,-1.38209c-0.09403,-0.12517 -0.18431,-0.25142 -0.27148,-0.37859c0.37047,0.10927 0.73832,0.19191 1.10078,0.24501c0.5408,0.43547 1.22832,0.69611 1.9767,0.69611c0.43135,0 0.84247,-0.08659 1.21695,-0.24333c0.33609,0.78234 0.41432,1.64212 -0.13441,2.63274c-1.03493,1.86829 -5.08929,2.13365 -6.90817,2.14125c-6.16063,0.0258 -12.33122,0.19275 -18.50191,0.19275c-3.17013,0 -10.03312,1.25947 -12.05854,-2.03078c-0.05618,-0.37071 -0.13504,-0.74268 -0.23589,-1.11094c0.81076,-0.5203 1.61809,-1.1218 2.37997,-1.75331c0.7296,0.12416 1.57245,0.0741 2.4108,-0.08533c-0.26706,0.41588 -0.54042,0.82437 -0.82145,1.224z" fill="#7e1717" stroke="none" stroke-width="0.5" stroke-linecap="butt"/><path d="M294.03849,346.95662l15.31787,-22.25123" fill="none" stroke="#7e1717" stroke-width="5" stroke-linecap="round"/><path d="M329.51147,345.50545l-15.31787,-20.9613" fill="none" stroke="#7e1717" stroke-width="5" stroke-linecap="round"/><path d="M315.50722,324.06733c0,1.4509 -1.4509,1.4509 -1.4509,1.4509c-1.04611,0 -3.71204,0 -4.75815,0c0,0 -1.4509,0 -1.4509,-1.4509c0,-1.4509 1.4509,-1.4509 1.4509,-1.4509c1.04611,0 2.09224,0 3.13835,0h1.6198c0,0 1.4509,0 1.4509,1.4509z" fill="#7e1717" stroke="none" stroke-width="0.5" stroke-linecap="butt"/></g><path d="M296.09286,349.52868c-0.51368,0 -0.99209,-0.15104 -1.39324,-0.41111c-1.2751,-0.08751 -2.29398,-1.10713 -2.38035,-2.38254c-0.09726,-0.44065 -0.06521,-0.96892 0.20141,-1.59103c1.01019,-2.35711 3.36729,-1.34692 3.36729,-1.34692c3.43479,1.55567 6.98324,1.00772 10.73542,1.00772c6.61533,0 13.23068,0 19.84601,0h3.24016c0,0 2.56446,0 2.56446,2.56446c0,2.56446 -2.56446,2.56446 -2.56446,2.56446c-6.61533,0 -16.47084,0 -23.08617,0c-3.52619,0 -6.62871,0.20306 -9.82389,-0.50362c-0.22448,0.0642 -0.46155,0.0986 -0.70666,0.0986z" fill="#7e1717" stroke="none" stroke-width="0.5" stroke-linecap="butt"/></g><g stroke="none" stroke-linecap="butt"><path d="M306.16268,337.79195c0,-3.18745 2.58394,-5.77136 5.77137,-5.77136c3.18745,0 5.77137,2.5839 5.77137,5.77136c0,3.18745 -2.58391,5.7714 -5.77137,5.7714c-3.18745,0 -5.77137,-2.58396 -5.77137,-5.7714z" fill="#bd2222" stroke-width="0"/><path d="M308.58377,337.73664c0,-1.86537 1.51216,-3.37752 3.37751,-3.37752c1.86537,0 3.37752,1.51215 3.37752,3.37752c0,1.86537 -1.51215,3.37752 -3.37752,3.37752c-1.86537,0 -3.37751,-1.51215 -3.37751,-3.37752z" fill="#fa5050" stroke-width="0"/><path d="M314.52455,339.28653c-0.791,0 -0.79101,-0.79101 -0.79101,-0.79101v-0.16273c0.00092,-1.75413 -0.15706,-2.31067 -2.02965,-2.30085c0,0 -0.791,-0.00001 -0.791,-0.791c0,-0.791 0.791,-0.79101 0.791,-0.79101c2.72036,0.01176 3.61037,1.28653 3.61167,3.88286v0.16273c0,0 -0.00001,0.79101 -0.79101,0.79101z" fill="#fa6a6a" stroke-width="0.5"/></g><g stroke="none" stroke-linecap="butt"><path d="M445.2861,338.39402c0,-3.18745 2.58394,-5.77137 5.77137,-5.77137c3.18745,0 5.77137,2.58391 5.77137,5.77137c0,3.18745 -2.58391,5.7714 -5.77137,5.7714c-3.18745,0 -5.77137,-2.58396 -5.77137,-5.7714z" fill="#bd2222" stroke-width="0"/><path d="M447.70719,338.33871c0,-1.86537 1.51216,-3.37752 3.37751,-3.37752c1.86537,0 3.37752,1.51215 3.37752,3.37752c0,1.86537 -1.51216,3.37752 -3.37752,3.37752c-1.86537,0 -3.37751,-1.51215 -3.37751,-3.37752z" fill="#fa5050" stroke-width="0"/><path d="M453.64796,339.88861c-0.791,0 -0.79101,-0.79101 -0.79101,-0.79101v-0.16273c0.00092,-1.75413 -0.15706,-2.31067 -2.02965,-2.30085c0,0 -0.791,-0.00001 -0.791,-0.79101c0,-0.791 0.791,-0.791 0.791,-0.791c2.72036,0.01176 3.61037,1.28653 3.61167,3.88286v0.16273c0,0 -0.00001,0.79101 -0.791,0.79101z" fill="#fa6a6a" stroke-width="0.5"/></g><path d="M367.46239,294.02948h27.94642" fill="none" stroke="#621212" stroke-width="5" stroke-linecap="round"/><path d="M334.01283,249.69911v-16.45072h11.40937v16.45072z" fill="#bd2222" stroke="none" stroke-width="0" stroke-linecap="butt"/><path d="M339.37106,249.16981v-15.55208h5.72972v15.55208z" fill="#9e1c1c" stroke="none" stroke-width="0" stroke-linecap="butt"/><path d="M334.17501,235.57353v-2.41384h11.16402v2.41384z" fill="#8c1919" stroke="none" stroke-width="0" stroke-linecap="butt"/><path d="M356.08571,257.58854c-2.29372,1.14686 -3.44058,-1.14687 -3.44058,-1.14687l0.47348,-0.40983c-1.76173,-0.76924 -3.24873,-2.0759 -4.98821,-2.8942c-8.66683,-4.07717 -19.9237,-0.1522 -22.71752,9.32472c-0.4387,1.48812 -0.31357,4.33406 -0.31122,5.79312c0,0 0,2.56446 -2.56446,2.56446c-2.56446,0 -2.56446,-2.56446 -2.56446,-2.56446c0.00325,-2.23167 -0.13834,-4.99753 0.49882,-7.16753c2.82795,-9.63138 12.37504,-15.63762 22.19148,-14.41757c0.73949,0.09191 7.00188,1.5338 7.74369,1.87118c1.66472,0.75713 3.04527,2.07001 4.73228,2.77608l2.09357,2.83034c0,0 1.14687,2.29372 -1.14686,3.44058z" fill="#bd2222" stroke="none" stroke-width="0.5" stroke-linecap="butt"/><g fill="#cfcfcf" stroke="none" stroke-width="0.5" stroke-linecap="butt"><path d="M390.09786,271.92008c4.24506,-2.32233 1.26416,-6.00883 -1.07178,-8.93329c-4.60724,-2.47202 -12.65992,-2.80387 -17.36427,0.35305c-2.30402,1.54615 -3.34326,7.91772 -2.19254,10.29866c0.83681,1.73151 3.26941,2.24786 4.86156,2.84249c0,0 1.29106,0.48414 1.35059,1.71798c0.23241,0.49361 0.23241,0.9728 0.23241,0.9728c0,0.53037 -0.37522,5.88955 0.13234,5.98782c0.58541,0.11335 1.47676,0.47986 1.78859,-0.02838c0.41941,-0.68358 -0.16957,-1.96277 0.53512,-2.34574c1.15121,-0.62559 2.63561,-0.28492 3.92982,-0.08064c0.89398,0.14111 1.7952,2.11612 2.33336,1.38843c0.53045,-0.71726 0.28262,-2.18641 1.14371,-2.41963c1.28414,-0.34776 4.12475,2.3612 3.84788,1.05993c-0.58549,-2.75206 -1.83883,-4.95503 -1.85873,-8.00035v-0.26109c0,0 0,-1.71863 1.57854,-1.99883zM365.75158,275.30584c-2.11208,-4.15808 -0.19535,-12.653 3.55146,-15.28824c6.22009,-4.37483 16.28009,-3.60767 22.32161,-0.16914c4.28491,4.99463 7.57304,11.44044 0.49478,15.60928l-0.19724,0.15261c0.40853,2.41949 2.18874,6.22342 1.71483,7.83244c-0.9057,3.07487 -3.4609,4.29011 -6.33447,3.39504c0.03502,0.20068 0.00942,0.36848 -0.16193,0.46706c-1.10639,0.63644 -2.5427,0.52444 -3.81052,0.37696c-0.98596,-0.11467 -2.27245,-2.65509 -2.45865,-1.68011c-0.79237,4.14871 -6.99164,4.38746 -8.9103,0.12979c-0.60862,-1.35062 -0.24268,-4.35254 -0.14401,-6.24182c-2.47268,-0.93724 -4.72553,-1.94591 -6.06548,-4.58389zM387.05231,285.99652c0.0065,-0.36279 0.05199,-0.66069 -0.01111,-0.4495c-0.04022,0.13465 -0.0263,0.28885 0.01111,0.4495z"/><path d="M378.96955,272.22502c0.17528,0.44182 0.19812,1.01046 -0.19101,1.69141c-1.01074,1.7688 -2.77957,0.75805 -2.77957,0.75805c-0.27847,-0.15955 -0.69907,-0.39043 -1.17331,-0.66214c-0.08497,-0.04022 -0.16389,-0.08634 -0.23718,-0.13682c-1.25953,-0.7316 -2.77788,-1.70057 -3.04547,-2.3875c-1.09676,-2.81505 -0.08692,-6.29158 3.58255,-6.36286c3.99326,-0.07753 5.55464,4.65493 3.84401,7.09981z"/><path d="M385.63119,263.87483c3.6695,0.07125 4.6793,3.54776 3.58256,6.36286c-0.26765,0.68688 -1.78596,1.65588 -3.04549,2.3875c-0.07327,0.05049 -0.15222,0.0966 -0.23716,0.13679c-0.47422,0.27173 -0.89485,0.50257 -1.17331,0.66214c0,0 -1.76883,1.01076 -2.77957,-0.75805c-0.38913,-0.68096 -0.36629,-1.24954 -0.19101,-1.69141c-1.7107,-2.44488 -0.14926,-7.17734 3.84398,-7.09981z" data-paper-data="{&quot;index&quot;:null}"/></g><path d="M439.3321,262.26939c0,2.56446 -2.56446,2.56446 -2.56446,2.56446c-5.16271,0 -13.55398,1.51052 -18.12956,-1.21781c-1.35368,-0.80717 -4.02864,-3.99721 -4.88639,-5.46317c-0.92426,-1.57962 -2.75982,-5.96137 -1.73003,-7.69169c1.50707,-2.53229 5.34296,-2.14922 7.64644,-2.15593c4.57521,-0.01334 12.23333,1.42091 15.11532,5.5263c0.58036,0.82673 0.88299,1.80224 1.17876,2.78145c0.71442,0.15877 1.26417,0.2814 1.36177,0.30309l1.16054,0.49466c0,0 2.29372,1.14686 1.14686,3.44058c-0.12095,0.24192 -0.25467,0.44556 -0.3971,0.61631c0.06247,0.23464 0.09785,0.5005 0.09785,0.80176z" data-paper-data="{&quot;index&quot;:null}" fill="#c53f3f" stroke="none" stroke-width="0.5" stroke-linecap="butt"/><path d="M418.11232,259.75359c5.48358,0 13.35515,0 18.83873,0c0,0 2.56446,0 2.56446,2.56446c0,2.56446 -2.56446,2.56446 -2.56446,2.56446c-5.48358,0 -13.35515,0 -18.83873,0c0,0 -0.05423,0 -0.14693,-0.00789c-0.54056,-1.48839 -1.25767,-2.74743 -2.12655,-3.85514c0.67173,-1.26589 2.27348,-1.26589 2.27348,-1.26589z" data-paper-data="{&quot;index&quot;:null}" fill="#b23939" stroke="none" stroke-width="0.5" stroke-linecap="butt"/><path d="M416.85992,248.03775v-16.45072h11.40938v16.45072z" data-paper-data="{&quot;index&quot;:null}" fill="#bd2222" stroke="none" stroke-width="0" stroke-linecap="butt"/><path d="M417.18133,247.50845v-15.55207h5.72971v15.55207z" data-paper-data="{&quot;index&quot;:null}" fill="#9e1c1c" stroke="none" stroke-width="0" stroke-linecap="butt"/><path d="M416.94308,233.91217v-2.41384h11.16402v2.41384z" data-paper-data="{&quot;index&quot;:null}" fill="#8c1919" stroke="none" stroke-width="0" stroke-linecap="butt"/><path d="M405.04954,252.4866l2.09357,-2.83033c1.68701,-0.70608 3.06755,-2.01895 4.73228,-2.77608c0.74181,-0.33738 7.0042,-1.77927 7.74369,-1.87118c9.81645,-1.22004 19.36354,4.7862 22.19148,14.41757c0.63714,2.17 0.49556,4.93587 0.49881,7.16753c0,0 0,2.56446 -2.56446,2.56446c-2.56446,0 -2.56446,-2.56446 -2.56446,-2.56446c0.00235,-1.45905 0.12747,-4.305 -0.31122,-5.79312c-2.79382,-9.47691 -14.05068,-13.40189 -22.71752,-9.32472c-1.73948,0.81831 -3.2265,2.12496 -4.98821,2.8942l0.47349,0.40984c0,0 -1.14686,2.29372 -3.44058,1.14686c-2.29372,-1.14686 -1.14687,-3.44058 -1.14687,-3.44058z" data-paper-data="{&quot;index&quot;:null}" fill="#bd2222" stroke="none" stroke-width="0.5" stroke-linecap="butt"/><path d="M372.00164,208.04187v-7.44173h17.53223v7.44173z" fill="#a91e1e" stroke="none" stroke-width="0" stroke-linecap="butt"/><path d="M371.9346,201.05343v-2.86298h17.7147v2.86298z" fill="#831818" stroke="none" stroke-width="0" stroke-linecap="butt"/><g data-paper-data="{&quot;index&quot;:null}" fill="#ff3b3b" stroke="#000000" stroke-width="0" stroke-linecap="butt"><path d="M439.48158,250.35911c0.12913,0.18058 0.26903,0.3751 0.4147,0.58042c0.12103,-0.11454 0.33523,-0.11753 0.58214,0.01314c0.58492,0.30957 1.34056,1.93891 1.64385,2.55615c0.34083,0.69364 0.92538,1.50967 1.03415,2.24557c0.05057,0.34206 -0.271,1.05825 -0.30458,1.24638c-0.22604,1.26711 -0.46043,2.55188 -0.98419,3.51985c-0.01959,0.08333 -0.05713,0.15142 -0.11328,0.1968c-0.01366,0.01106 -0.02812,0.02048 -0.04323,0.02832c-0.19027,0.24803 -0.40574,0.13106 -0.58698,-0.12117c-0.27123,-0.15797 -0.6868,-1.22576 -0.77085,-1.46426c-0.19597,-0.55594 -0.59308,-0.96336 -0.91481,-1.46481c-1.74293,-2.71637 -2.38998,-3.51907 -4.96978,-7.64093c-0.46048,-0.73574 -1.44253,-2.799 -0.20189,-2.24671c0.16231,0.07227 0.30698,0.27802 0.43877,0.5294c0.04227,-0.13584 0.12261,-0.249 0.24782,-0.3345c0.27033,-0.18455 0.68272,-0.03547 1.01446,-0.04172c1.4404,-0.02706 2.30803,0.71196 3.51374,2.39811z"/><path d="M433.6612,247.37605c0.97652,-0.24459 2.12139,-0.07468 3.24884,0.09845c0.16741,0.02571 0.86826,-0.08447 1.13599,0.08203c0.57602,0.35823 1.06255,1.25349 1.5273,1.84696c0.41355,0.52811 1.51999,1.87391 1.58542,2.60337c0.06297,0.70238 -0.39638,0.99385 -0.92392,0.19042c-0.65932,-1.00413 -0.95442,-1.47519 -1.46639,-2.24503c-0.0304,-0.04572 -0.46416,-0.79161 -0.60241,-0.85157c-1.41828,-0.61513 -2.65855,0.02498 -3.93892,-0.1318c-0.166,-0.02032 -0.46656,-0.25453 -0.69648,-0.53596c-0.29368,-0.35951 -0.47216,-0.79611 -0.1079,-0.96273c0.01147,-0.01365 0.02404,-0.02605 0.03774,-0.03712c0.05615,-0.04538 0.12505,-0.06332 0.20076,-0.05702z" data-paper-data="{&quot;index&quot;:null}"/></g><g data-paper-data="{&quot;index&quot;:null}" fill="#ff6e3b" stroke="#000000" stroke-width="0" stroke-linecap="butt"><path d="M322.32377,252.1715c1.20569,-1.68615 2.07333,-2.42517 3.51375,-2.39811c0.33175,0.00625 0.74412,-0.14283 1.01447,0.04172c0.12521,0.0855 0.20556,0.19866 0.24782,0.3345c0.13179,-0.25138 0.27645,-0.45713 0.43876,-0.5294c1.24062,-0.55229 0.2586,1.51096 -0.20189,2.24671c-2.57981,4.12186 -3.22686,4.92454 -4.96979,7.64093c-0.32173,0.50143 -0.71884,0.90886 -0.91481,1.46481c-0.08406,0.2385 -0.49964,1.3063 -0.77087,1.46426c-0.18124,0.25223 -0.39669,0.3692 -0.58698,0.12117c-0.01512,-0.00784 -0.02956,-0.01726 -0.04323,-0.02832c-0.05615,-0.04538 -0.09368,-0.11346 -0.11328,-0.1968c-0.52376,-0.96797 -0.75815,-2.25273 -0.98419,-3.51985c-0.03356,-0.18813 -0.35514,-0.90432 -0.30457,-1.24638c0.10877,-0.7359 0.69333,-1.55192 1.03415,-2.24556c0.30326,-0.61723 1.05893,-2.24658 1.64385,-2.55616c0.24692,-0.13067 0.4611,-0.12768 0.58214,-0.01314c0.14567,-0.20532 0.28558,-0.39983 0.4147,-0.58041z"/><path d="M328.14415,249.18839c0.0757,-0.0063 0.14461,0.01164 0.20077,0.05702c0.01369,0.01106 0.02626,0.02347 0.03774,0.03712c0.36426,0.16662 0.18578,0.60322 -0.1079,0.96273c-0.22992,0.28143 -0.53048,0.51563 -0.69649,0.53596c-1.28037,0.15678 -2.52063,-0.48333 -3.93891,0.1318c-0.13825,0.05997 -0.57201,0.80585 -0.60241,0.85157c-0.51197,0.76985 -0.80706,1.24091 -1.46639,2.24504c-0.52754,0.80343 -0.98689,0.51197 -0.92392,-0.19042c0.06542,-0.72946 1.17187,-2.07526 1.58543,-2.60337c0.46476,-0.59347 0.95127,-1.48873 1.5273,-1.84696c0.26774,-0.1665 0.96861,-0.05633 1.136,-0.08203c1.12745,-0.17313 2.2723,-0.34303 3.24884,-0.09845z" data-paper-data="{&quot;index&quot;:null}"/></g><path d="M310.9936,286.59978c0.1825,4.91681 -0.14246,4.97586 -0.14246,4.97586l-0.41602,0.07556c-1.92301,0.30723 -3.87784,0.00048 -5.80371,0.35041c0,0 -0.32498,0.05903 -0.50746,-4.85778c-0.1825,-4.91681 0.14248,-4.97586 0.14248,-4.97586c1.92541,-0.34981 3.8846,0.0447 5.80371,-0.35043l0.416,-0.07556c0,0 0.32496,-0.05901 0.50745,4.8578z" fill="#fc9b2d" stroke="none" stroke-width="0.5" stroke-linecap="butt"/><path d="M458.16736,285.77321c0.05436,4.93309 -0.24573,4.9522 -0.24573,4.9522l-0.38416,0.02444c-1.77483,0.071 -3.56472,-0.47509 -5.34316,-0.36188c0,0 -0.3001,0.01914 -0.35448,-4.91395c-0.05436,-4.93309 0.24573,-4.95222 0.24573,-4.95222c1.77803,-0.11322 3.56991,0.52112 5.34318,0.36188l0.38416,-0.02446c0,0 0.30009,-0.01914 0.35445,4.91397z" fill="#fcbb71" stroke="none" stroke-width="0.5" stroke-linecap="butt"/><path d="M362.69308,187.8245v-585.28116h35.42491v585.28116z" fill="#625eff" stroke="none" stroke-width="0" stroke-linecap="butt"/><path d="M375.52307,188.05553v-585.28116h10.78149v585.28116z" fill="#9492ff" stroke="none" stroke-width="0" stroke-linecap="butt"/><path d="M409.40777,225.2979v-585.28116h29.26405v585.28116z" fill="#5e9aff" stroke="none" stroke-width="0" stroke-linecap="butt"/><path d="M420.00645,225.52892v-585.28116h8.90645v585.28116z" fill="#615eff" stroke="none" stroke-width="0" stroke-linecap="butt"/><path d="M323.66408,224.26595v-585.28116h29.26406v585.28116z" fill="#5e9aff" stroke="none" stroke-width="0" stroke-linecap="butt"/><path d="M334.26276,224.49698v-585.28116h8.90645v585.28116z" fill="#615eff" stroke="none" stroke-width="0" stroke-linecap="butt"/><path d="M433.35991,-110.37329c1.89919,-1.72322 3.62242,0.17598 3.62242,0.17598l2.97681,3.28081c1.26279,1.42505 2.8629,2.61114 3.78838,4.27513c1.50796,2.71128 0.74857,6.28005 2.1212,9.06229c0.1697,0.34396 0.64463,-0.53258 1.02785,-0.51713c2.35773,0.09504 5.23364,-0.68969 7.02869,0.84188c1.37702,1.1749 0.41839,3.61442 0.31204,5.42142c-0.20294,3.44838 -1.05574,6.83488 -1.85167,10.19629c-0.28327,1.1963 -1.50441,2.35263 -1.11017,3.51708c0.30253,0.89359 1.8028,0.58303 2.64334,1.01144c1.43664,0.73223 2.7772,1.63938 4.1658,2.45907c4.75293,1.46277 9.7929,2.64917 14.41704,4.47387c2.21392,0.87361 5.56102,0.77938 6.4935,2.96915c0.93248,2.18977 -1.44488,4.54171 -2.35944,6.73902c-0.70675,1.69802 -1.44313,3.41243 -2.49405,4.92185c-1.94928,2.79972 -4.50826,3.69987 -5.79982,6.96294c-0.28894,0.72999 0.09849,1.56769 0.11004,2.35269c0.05028,3.4189 0.06404,6.83915 0,10.25782c-0.03841,2.05024 0.52094,4.23275 -0.21126,6.14817c-0.59633,1.55999 -2.31273,2.41077 -3.50686,3.57835c-0.34388,0.33623 -7.63947,7.16503 -7.82507,7.28739c-4.13554,2.72642 -9.93198,4.3858 -14.4803,6.3757c-1.5663,0.68525 -3.09383,1.46701 -4.69889,2.05576c-1.12882,0.41407 -2.70701,0.02481 -3.48119,0.94478c-0.50075,0.59505 0.57431,1.44551 0.86146,2.16827c0.57035,2.27583 2.81311,10.28292 1.9947,12.0334c-0.98601,2.10898 -7.23518,0.36688 -8.6028,0.72896c-0.57921,0.15334 -0.54573,1.07255 -0.89871,1.5567c-1.0072,1.38145 -2.11584,2.68601 -3.17376,4.02902c-2.11584,2.68601 -4.15293,5.43598 -6.34753,8.05802c-1.37317,1.64064 -2.24888,4.0276 -4.23505,4.82285c-1.98617,0.79525 -4.26799,-0.32126 -6.39325,-0.56737c-2.34028,-0.27101 -4.76997,-0.54243 -7.06773,-0.0222c-1.33218,0.30162 -2.94501,-0.04949 -4.02028,0.79283c-1.07526,0.84232 -1.11832,2.4934 -1.73229,3.71354c-0.76849,1.52718 -1.60907,3.01701 -2.4136,4.52551c-2.4136,4.52551 -4.82721,9.05102 -7.24081,13.57653c0,0 -1.2068,2.26275 -3.46955,1.05595c-2.26275,-1.2068 -1.05595,-3.46955 -1.05595,-3.46955c3.2159,-6.0298 6.3223,-12.13588 9.65442,-18.10204c1.00283,-1.79556 1.47592,-4.06922 3.09492,-5.33748c3.62226,-2.83756 10.90026,-2.52228 14.97623,-1.81043c1.26873,0.22158 2.56582,1.36203 3.76148,0.8833c1.19565,-0.47873 1.35465,-2.1938 2.11248,-3.23518c2.98989,-4.10861 6.26585,-8.18524 9.52129,-12.08704c0.85982,-1.03054 1.42745,-2.53799 2.68855,-2.99724c1.94767,-0.70928 4.15069,-0.48213 6.2133,-0.26107c-1.15035,-2.12746 -1.80911,-4.53046 -2.39505,-6.87967c-0.10787,-1.88416 -1.33435,-4.05871 -0.32361,-5.65248c1.19801,-1.88907 3.90942,-2.17928 5.91659,-3.16675c5.80395,-2.85538 13.02638,-4.46415 18.41193,-8.01465c2.73369,-1.80222 4.69365,-4.56974 7.13963,-6.74648c0.74075,-0.65921 1.98097,-0.9399 2.30893,-1.87569c0.45368,-1.2945 -0.1799,-2.73832 -0.21126,-4.10965c-0.07816,-3.41838 -0.04195,-6.83881 0,-10.25782c0.0157,-1.28008 -0.34504,-2.6424 0.11004,-3.83897c1.26379,-3.32299 4.47754,-5.53057 6.52188,-8.43919c0.90861,-1.29273 1.23593,-2.92582 2.09339,-4.25303c0.59713,-0.92426 2.65911,-1.42345 2.228,-2.43585c-0.43112,-1.01241 -2.2203,0.12993 -3.3001,-0.08181c-4.98843,-0.97816 -10.11534,-3.15227 -14.96375,-4.679c-0.86939,-0.50561 -9.01196,-5.06633 -9.39775,-6.02148c-0.40817,-1.01055 1.35401,-10.03788 1.64229,-11.62146c0.29991,-1.64749 0.41816,-3.33876 0.90079,-4.94226c0.15315,-0.50883 1.49023,-1.16852 0.96797,-1.26662c-2.43355,-0.45712 -4.77829,3.02927 -7.34559,0.32475c-3.22866,-3.40122 -1.49765,-7.03708 -3.51487,-10.66399c-0.73663,-1.32445 -2.06966,-2.21444 -3.10449,-3.32167l-2.97681,-3.28081c0,0 -1.72322,-1.89919 0.17598,-3.62242z" fill="#ffffff" stroke="none" stroke-width="0.5" stroke-linecap="butt"/><path d="M416.08459,2.99887c0,2.56446 -2.56446,2.56446 -2.56446,2.56446h-3.08042c0,0 -2.56446,0 -2.56446,-2.56446c0,-2.56446 2.56446,-2.56446 2.56446,-2.56446h3.08042c0,0 2.56446,0 2.56446,2.56446z" fill="#ffffff" stroke="none" stroke-width="0.5" stroke-linecap="butt"/><path d="M309.90485,78.86268c1.14686,-2.29371 3.44058,-1.14686 3.44058,-1.14686l3.86485,2.14675c1.12219,2.90831 2.52566,5.71758 4.1281,8.39149c2.62392,4.40689 5.24785,8.8138 7.87177,13.22069c1.6264,2.73155 2.44061,6.10538 4.78999,8.2471c1.18712,1.08218 3.05077,1.13548 4.34131,2.09197c1.48642,1.10167 2.98351,2.35864 3.8612,3.98737c0.33068,0.61365 1.83048,10.47096 1.81095,10.67746c-0.17147,1.81324 -1.03416,3.5194 -1.89248,5.12581c-0.50467,0.94454 -2.73578,1.52059 -2.13093,2.40433c0.60485,0.88375 1.95666,-0.93792 3.01265,-1.11604c2.87046,-0.48416 5.82205,-0.0174 8.73301,0c1.90056,0.01136 3.84624,-0.34832 5.70141,0.06472c1.75912,0.39166 3.26816,1.52025 4.89551,2.29462c4.54322,2.16188 9.53453,4.11921 13.85306,6.6966c2.09142,1.2482 5.63548,1.72059 6.03186,4.12369c0.39637,2.4031 -2.92534,3.89493 -4.38801,5.84238c-0.30874,0.30372 -7.39243,7.28275 -7.57409,7.41873c-4.03412,3.01981 -9.32488,5.21729 -13.73365,7.67145c-1.4938,0.83153 -2.91986,1.79851 -4.48139,2.49458c-1.0352,0.46145 -2.95169,-0.13254 -3.26259,0.95736c-0.3109,1.0899 1.63053,1.59642 2.26648,2.53458c2.28015,3.36372 7.19395,9.87222 5.10288,14.28917c-0.85896,1.81437 -2.68392,2.99564 -4.17145,4.3436c-7.35285,6.66297 -20.84675,9.50919 -30.53602,9.54619c0,0 -2.56446,0 -2.56446,-2.56446c0,-2.56446 2.56446,-2.56446 2.56446,-2.56446c6.72872,0.02918 12.76354,-2.01071 19.15442,-4.03321c3.9352,-1.24536 8.32943,-3.10621 10.82708,-6.72041c1.10403,-1.59757 -1.41205,-3.63267 -2.36958,-5.32212c-0.87769,-1.54859 -5.56049,-9.6731 -5.20598,-10.91584c0.36253,-1.27085 8.61305,-5.65325 10.18157,-6.52637c4.20614,-2.34136 9.30436,-4.41381 13.15466,-7.29601c2.64545,-1.98028 4.69505,-4.65149 7.05072,-6.96898c0.9748,-0.45049 3.09917,-0.29194 2.9244,-1.35148c-0.17476,-1.05955 -2.18344,-0.00514 -3.20352,-0.34071c-1.62402,-0.53425 -3.07845,-1.48813 -4.61768,-2.2322c-3.07846,-1.48813 -6.16725,-2.95508 -9.23537,-4.4644c-1.27468,-0.62706 -2.42119,-1.60636 -3.80831,-1.91284c-3.15249,-0.69652 -6.45681,0.06472 -9.68532,0.06472c-2.33888,0 -9.96024,0.18291 -10.84927,-1.11604c-1.38012,-2.01647 0.90618,-4.80968 1.58237,-7.1578c0.37886,-1.31561 1.44649,-2.43129 1.57162,-3.79462c0.13562,-1.47757 -0.58358,-2.91028 -0.82178,-4.37481c-0.18512,-1.13817 0.05993,-2.3949 -0.44769,-3.4303c-1.31374,-2.67965 -5.32283,-2.96061 -7.13323,-4.66894c-0.35519,-0.33516 -5.26345,-8.63772 -5.7057,-9.38048c-2.62392,-4.40689 -5.24785,-8.8138 -7.87177,-13.22069c-1.43303,-2.42091 -2.82859,-4.93106 -3.58377,-7.64105l-2.29601,-0.93368c0,0 -2.29371,-1.14686 -1.14686,-3.44058z" data-paper-data="{&quot;index&quot;:null}" fill="#ffffff" stroke="none" stroke-width="0.5" stroke-linecap="butt"/><path d="M251.55401,166.46407l-12.71905,-69.52562l249.88427,-45.71394l12.71905,69.52562z" fill="#f5f5f5" stroke="#373737" stroke-width="3" stroke-linecap="butt"/><text transform="translate(295.59877,140.67492) rotate(-10.36705) scale(0.95591,0.95591)" font-size="40" xml:space="preserve" fill="#373737" fill-rule="nonzero" stroke="none" stroke-width="1" stroke-linecap="butt" stroke-linejoin="miter" stroke-miterlimit="10" stroke-dasharray="" stroke-dashoffset="0" font-family="Pixel" font-weight="normal" text-anchor="start" style="mix-blend-mode: normal"><tspan x="0" dy="0">Borealis</tspan></text><path d="M315.47939,82.92805l-1.34887,-28.89183l103.84104,-4.84802l1.34887,28.89183z" fill="#f5f5f5" stroke="#373737" stroke-width="3" stroke-linecap="butt"/><text transform="translate(334.27103,73.84281) rotate(-2.67306) scale(0.40325,0.40325)" font-size="40" xml:space="preserve" fill="#373737" fill-rule="nonzero" stroke="none" stroke-width="1" stroke-linecap="butt" stroke-linejoin="miter" stroke-miterlimit="10" stroke-dasharray="" stroke-dashoffset="0" font-family="Pixel" font-weight="normal" text-anchor="start" style="mix-blend-mode: normal"><tspan x="0" dy="0">Coronel</tspan></text></g></g></svg>