<svg version="1.1" xmlns="http://www.w3.org/2000/svg" xmlns:xlink="http://www.w3.org/1999/xlink" width="39.25361" height="34.00155" viewBox="0,0,39.25361,34.00155"><g transform="translate(-105.29731,-51.00144)"><g data-paper-data="{&quot;isPaintingLayer&quot;:true}" fill-rule="nonzero" stroke-linejoin="miter" stroke-miterlimit="10" stroke-dasharray="" stroke-dashoffset="0" style="mix-blend-mode: normal"><path d="M133.82695,67.97122c0,-9.3689 2.40064,-16.96391 5.36198,-16.96391c2.96135,0 5.36199,7.595 5.36199,16.96391c0,9.3689 -2.40064,16.96391 -5.36199,16.96391c-2.96135,0 -5.36198,-7.595 -5.36198,-16.96391z" fill="#fbfbfb" stroke="none" stroke-width="0" stroke-linecap="butt"/><path d="M110.76489,85.00299v-33.96174h27.72271v33.96174z" fill="#fbfbfb" stroke="none" stroke-width="NaN" stroke-linecap="butt"/><path d="M132.63565,75.40413c0,-5.03666 2.31327,-9.11969 5.16683,-9.11969c2.85356,0 5.16683,4.08303 5.16683,9.11969c0,5.03666 -2.31327,9.11969 -5.16683,9.11969c-2.85356,0 -5.16683,-4.08303 -5.16683,-9.11969z" fill="#f6f6f6" stroke="none" stroke-width="0" stroke-linecap="butt"/><path d="M110.6593,84.92926c-2.96135,0 -5.36199,-7.595 -5.36199,-16.96391c0,-9.3689 2.40064,-16.96391 5.36199,-16.96391c2.96134,0 5.36198,7.595 5.36198,16.96391c0,9.3689 -2.40063,16.96391 -5.36198,16.96391z" data-paper-data="{&quot;index&quot;:null}" fill="#fbfbfb" stroke="none" stroke-width="0" stroke-linecap="butt"/><path d="M112.16287,84.51795c-2.85356,0 -5.16683,-4.08303 -5.16683,-9.11969c0,-5.03666 2.31327,-9.11969 5.16683,-9.11969c2.85356,0 5.16683,4.08303 5.16683,9.11969c0,5.03666 -2.31327,9.11969 -5.16683,9.11969z" data-paper-data="{&quot;index&quot;:null}" fill="#f6f6f6" stroke="none" stroke-width="0" stroke-linecap="butt"/><path d="M111.24114,84.5603v-18.25762h26.96574v18.25762z" fill="#f6f6f6" stroke="none" stroke-width="NaN" stroke-linecap="butt"/><g fill="#dcdcdc" stroke="none" stroke-linecap="butt"><path d="M131.99812,67.89084c0,-7.48361 1.91757,-13.55029 4.283,-13.55029c2.36544,0 4.28301,6.06668 4.28301,13.55029c0,7.48361 -1.91756,13.55029 -4.28301,13.55029c-2.36544,0 -4.283,-6.06668 -4.283,-13.55029z" stroke-width="0"/><path d="M113.57679,81.49534v-27.12768h22.14412v27.12768z" stroke-width="NaN"/><path d="M113.49245,81.43645c-2.36544,0 -4.28301,-6.06668 -4.28301,-13.55029c0,-7.48361 1.91756,-13.55029 4.28301,-13.55029c2.36543,0 4.283,6.06668 4.283,13.55029c0,7.48361 -1.91756,13.55029 -4.283,13.55029z" data-paper-data="{&quot;index&quot;:null}" stroke-width="0"/></g><g><path d="M116.44577,81.36011v-3.38793h17.46678v3.38793z" fill="#5f5f5f" stroke="none" stroke-width="0" stroke-linecap="butt"/><path d="M116.13866,81.29036h18.04458" fill="none" stroke="#404040" stroke-width="2" stroke-linecap="round"/></g><path d="M127.53982,80.74988c-0.14567,0.18909 -0.313,0.21124 -0.44415,0.18592c-0.33792,0.35003 -1.03918,0.38641 -1.40747,0.54366l-0.45215,0.18863c0,0 -0.23997,0.10011 -0.43996,-0.02411c-0.19573,-0.1069 -0.23854,-0.34683 -0.23854,-0.34683c-0.09754,-0.56533 -0.07392,-1.04469 -0.07593,-1.61282l-0.0014,-0.48546c0,0 -0.00138,-0.47864 0.47726,-0.48002c0.15756,-0.00045 0.2634,0.0511 0.3345,0.12048c0.15849,0.00689 0.28299,0.09579 0.28299,0.09579c0.56552,0.40458 1.18313,0.665 1.75576,1.05057l0.12203,0.09292c0,0 0.37917,0.29211 0.08706,0.67128z" fill="#ffffff" stroke="none" stroke-width="0.5" stroke-linecap="butt"/><path d="M122.63305,80.81572l0.05561,-0.04235c0.26097,-0.17572 0.54244,-0.2944 0.80017,-0.47878c0,0 0.05674,-0.04052 0.12897,-0.04366c0.0324,-0.03162 0.08064,-0.05511 0.15245,-0.05491c0.21813,0.00063 0.2175,0.21876 0.2175,0.21876l-0.00064,0.22124c-0.00092,0.25892 0.00985,0.47738 -0.0346,0.73502c0,0 -0.01951,0.10935 -0.10871,0.15806c-0.09114,0.05661 -0.20051,0.01099 -0.20051,0.01099l-0.20606,-0.08596c-0.16784,-0.07166 -0.48744,-0.08824 -0.64144,-0.24776c-0.05977,0.01154 -0.13603,0.00144 -0.20241,-0.08473c-0.13313,-0.1728 0.03968,-0.30593 0.03968,-0.30593z" data-paper-data="{&quot;index&quot;:null}" fill="#ffffff" stroke="none" stroke-width="0.5" stroke-linecap="butt"/></g></g></svg>