<svg version="1.1" xmlns="http://www.w3.org/2000/svg" xmlns:xlink="http://www.w3.org/1999/xlink" width="316.4181" height="152.35854" viewBox="0,0,316.4181,152.35854"><g transform="translate(-298.7107,-209.5291)"><g data-paper-data="{&quot;isPaintingLayer&quot;:true}" fill-rule="nonzero" stroke="none" stroke-linecap="butt" stroke-linejoin="miter" stroke-miterlimit="10" stroke-dasharray="" stroke-dashoffset="0" style="mix-blend-mode: normal"><path d="M430.26092,314.58323l-100.91195,-43.35395c0.00665,-0.04393 0.0132,-0.08792 0.01966,-0.13197c0.75467,-1.08026 1.21533,-2.7338 1.02344,-4.2017c0.52047,-0.55427 0.71811,-1.3919 0.76171,-2.28767c0.56517,-0.97482 1.06428,-1.92257 0.9425,-3.37343c-0.11633,-0.44159 0.53692,-0.75361 0.6886,-1.18433c0.14125,-0.40112 0.25587,-2.19324 0.23892,-3.57951l103.16235,44.32077zM398.75649,285.39718l-0.45697,0.3504c-1.07718,-0.30907 -3.74483,-2.39448 -4.9863,-1.82451c-1.81431,0.83295 -1.44578,5.00256 -0.2024,6.08594c0.29678,0.25858 -0.81476,-0.34721 -1.16804,-0.17362c-0.47999,0.23585 -0.84554,0.65508 -1.2683,0.98261c0,0 -0.58355,0.47114 -0.11241,1.05468c0.47114,0.58355 1.05468,0.11241 1.05468,0.11241c0.77028,-0.6577 2.48224,-0.2472 2.78576,-1.21352c0.25794,-0.8212 -0.88941,-2.79897 -0.65576,-3.95026c0.10167,-0.501 -0.34097,-1.48165 0.16846,-1.52436c0.94418,-0.07916 3.51628,1.6961 4.62648,1.93093l1.00503,-0.55576c0,0 0.63748,-0.39512 0.24237,-1.0326c-0.39512,-0.63748 -1.0326,-0.24237 -1.0326,-0.24237z" fill="#53322a" stroke-width="0"/><path d="M313.24874,269.77241l1.63371,-14.92155l7.14876,0.7827l-0.02033,0.11459c0.02501,0.06252 0.05358,0.13709 0.08545,0.22182c-0.16453,0.155 -0.26905,0.30562 -0.28728,0.44501c-0.20162,1.54171 0.43005,1.88597 1.23486,1.92855c0.45148,0.9759 0.98578,1.85272 1.5087,1.94709c0.0683,0.01232 0.13383,0.02159 0.1967,0.02793c0.3409,0.89114 1.23591,1.43569 2.02419,1.97345c0.24909,0.42095 0.49052,0.72049 0.69887,0.8234c0.02638,0.01303 0.05304,0.02293 0.07995,0.03009c-0.35234,1.74702 0.66968,4.86398 1.48942,5.36541c0.132,0.08074 0.60374,-0.0388 1.10781,-0.22257c0.00757,0.24293 0.01181,0.43165 0.02231,0.45877c0.01183,0.03057 0.03828,0.07797 0.07519,0.13849c-0.01589,0.52755 -0.00014,1.04125 0.07008,1.52862c0.02897,0.20104 0.04344,0.46888 0.0562,0.7591c-0.18915,0.05008 -0.35966,0.11817 -0.44747,0.27869c-0.02537,0.04638 -0.0362,0.09391 -0.03637,0.14238z" fill="#53322a" stroke-width="0"/><path d="M345.89857,273.99602c-0.29604,0.68911 -0.98515,0.39304 -0.98515,0.39304l-0.36277,-0.15585c-1.52763,-0.65631 -2.38493,-1.24682 -4.08988,-0.93265c-1.32849,-0.54806 -2.95772,-0.32523 -4.17449,-1.3603c-1.70542,-1.45077 -3.12203,-2.16915 -5.31426,-3.11098c-0.2043,-0.08778 -0.41034,-0.17443 -0.61779,-0.26028c0.08734,-0.53876 0.10778,-1.08992 0.04473,-1.61838c0.02563,0.01095 0.05125,0.02191 0.07683,0.0329c2.57398,1.10583 4.75191,1.98796 6.75953,3.79513c0.93265,0.83952 2.35738,0.56635 3.39279,1.03128c1.79784,-0.33128 2.90365,0.35296 4.51466,1.04509l0.36277,0.15586c0,0 0.6891,0.29605 0.39305,0.98515z" fill="#724539" stroke-width="0.5"/><path d="M322.08708,267.45759c0,0 -0.70349,-0.26002 -0.44347,-0.9635c0.26001,-0.70348 0.9635,-0.44347 0.9635,-0.44347c1.73481,0.647 3.63392,0.89556 5.53494,1.0648c0.27599,0.68363 0.60126,1.21291 0.89972,1.39547c0.132,0.08074 0.60374,-0.0388 1.10781,-0.22257c0.00757,0.24293 0.01181,0.43165 0.02231,0.45877c0.00706,0.01825 0.01934,0.04251 0.03596,0.07198c-2.75824,-0.21808 -5.59063,-0.43392 -8.12076,-1.36147z" fill="#724539" stroke-width="0.5"/><path d="M385.6138,280.37979c0.04338,0.74875 -0.70537,0.79212 -0.70537,0.79212l-1.05459,0.041c-0.90474,-0.37846 -2.06907,-1.57507 -3.02475,-1.39958c-0.64725,0.11886 -1.09877,0.74418 -1.71176,0.98354c-5.12573,-0.39698 -9.4274,-2.70876 -14.28866,-4.72765c-3.01376,-1.25161 -6.18328,-2.22668 -9.23349,-3.53712c-2.8056,-1.20534 -5.61121,-2.4107 -8.4168,-3.61605c-0.7745,-0.33274 -2.7267,-0.92208 -3.37907,-1.48675c-1.72351,-1.49179 -4.20569,-3.51481 -6.44514,-4.45289c0,0 -0.68909,-0.29606 -0.39304,-0.98516c0.29604,-0.68911 0.98515,-0.39304 0.98515,-0.39304c2.29525,1.00635 5.07987,3.08183 6.81911,4.68362c0.48898,0.45033 2.47892,1.02997 3.0051,1.25603c2.8056,1.20534 5.6112,2.41071 8.4168,3.61605c3.05114,1.31083 6.19358,2.29232 9.21711,3.53019c4.57353,1.87245 8.71515,4.17451 13.49205,4.62912c2.56506,-1.06101 2.73841,-0.70439 5.21701,0.42232l0.70824,-0.06112c0,0 0.74873,-0.04338 0.79212,0.70536z" fill="#724539" stroke-width="0.5"/><path d="M315.84514,260.83868c0,0 -0.74553,-0.08161 -0.66391,-0.82717c0.08162,-0.74555 0.82717,-0.66391 0.82717,-0.66391c2.3741,0.30766 4.92421,-0.12644 7.44768,-0.19535c0.34882,0.61062 0.72554,1.07142 1.09654,1.13838c0.0683,0.01232 0.13383,0.02159 0.1967,0.02793c0.04735,0.12377 0.10539,0.24086 0.17234,0.35218c-3.05371,-0.15279 -6.12181,0.44733 -9.07653,0.16797z" fill="#724539" stroke-width="0.5"/><path d="M315.81141,256.18133l-0.02623,0.00186c0.1197,0.28865 0.33146,0.54566 0.56641,0.74948c0.76017,0.71488 1.60591,1.40943 1.51035,2.59306c-0.04156,0.51492 -0.75468,0.85025 -0.73141,1.36632c0.03395,0.75285 0.76918,1.57481 0.39117,2.22677c-0.35199,0.60711 -2.19941,0.49037 -2.47741,1.60754c-0.26604,1.06909 0.70456,2.13145 0.28875,3.32054c-0.32142,0.91918 -0.95848,0.78322 -1.12122,1.33829c0.08421,0.17127 0.11155,0.40171 -0.05452,0.6815c-0.28054,0.47262 -0.70183,0.39334 -0.90694,0.31721c-0.18229,-0.03763 -0.30683,-0.11937 -0.39171,-0.2171c-4.66575,-2.8119 -8.79801,-6.38688 -13.35372,-9.37404c-0.14705,0.01298 -0.31469,-0.01894 -0.47683,-0.15266c-0.12079,-0.07939 -0.23579,-0.2031 -0.28132,-0.39465c-0.06452,-0.18603 -0.03403,-0.35213 0.02519,-0.48401c0.07033,-0.21668 0.21041,-0.33596 0.35319,-0.40111c4.06847,-2.98735 10.6165,-2.69216 15.08074,-5.03462l0.82213,-0.15654c0,0 0.74308,-0.10163 0.84473,0.64145c0.03371,0.24647 -0.02551,0.42239 -0.11973,0.54741zM315.60546,261.90057c-0.01906,0.07334 -0.0389,0.14669 -0.05947,0.22008c0.04375,-0.01713 0.08693,-0.03544 0.12936,-0.0553c0.00609,-0.00286 -0.02456,-0.06436 -0.0699,-0.16478z" fill="#875243" stroke-width="0.5"/><path d="M305.86719,264.87029c-0.02239,0.02815 -0.04755,0.0564 -0.07571,0.08463c-0.52947,0.53117 -1.06065,0.00169 -1.06065,0.00169c-1.25107,-1.24712 -2.66566,-2.37714 -4.0054,-3.52438c-0.39961,-0.34219 -1.71098,-0.97333 -1.72957,-1.56899c-0.0158,-0.50662 0.48161,-0.92467 0.87629,-1.24271c0.98664,-0.79507 1.23575,-0.42908 2.21194,-0.59801c1.63664,-0.28324 5.57952,-3.12787 4.82457,0.88592c2.89783,0.72902 -0.03142,3.81201 -0.46662,5.29682l0.01165,0.00476c0,0 -0.06322,0.5774 -0.58653,0.6603z" fill="#a06c5d" stroke-width="0.5"/><path d="M435.2215,320.20975l-84.29537,-97.20362l11.34041,-9.83447l4.65206,5.36444c-1.41352,-0.54371 -2.82063,-1.09251 -4.1796,-1.76355c-0.0483,-0.21182 -0.1479,-0.39218 -0.33487,-0.51893c-0.16892,-0.11451 -0.35205,-0.14618 -0.54407,-0.126l-0.00407,-0.04445l-1.14905,0.1051c-0.41249,0.03773 -0.7163,0.40271 -0.67857,0.81519c0.03026,0.33086 0.27107,0.5918 0.57806,0.66265l0.80841,0.20664c-0.00187,0.02647 -0.00365,0.05294 -0.00535,0.07942l-0.78033,0.22036c0,0 -0.67772,0.32125 -0.35646,0.99897c0.32125,0.67772 0.99897,0.35646 0.99897,0.35646l1.4407,-0.83246c-0.0113,-0.08956 -0.01563,-0.18341 -0.01529,-0.28012c1.63112,0.77018 3.33135,1.37726 5.01484,2.03496c0,0 0.44862,0.17526 0.76729,-0.11461l78.0827,90.03959z" fill="#53322a" stroke-width="0"/><path d="M376.95715,246.93225c-0.56662,0.49138 -1.05799,-0.07524 -1.05799,-0.07524l-0.25868,-0.2983c-1.08931,-1.25611 -1.60383,-2.16105 -3.27542,-2.6208c-0.95719,-1.07193 -2.52082,-1.58092 -3.16533,-3.0426c-0.90334,-2.0487 -1.86567,-3.31234 -3.42888,-5.11492c-2.32465,-2.68063 -5.17106,-5.29694 -6.78845,-8.46483c0,0 -0.33927,-0.66888 0.3296,-1.00815c0.66888,-0.33927 1.00815,0.32961 1.00815,0.32961c1.37381,2.72826 3.81273,4.96505 5.80788,7.26573c1.83542,2.11647 3.41175,3.85909 4.43189,6.36022c0.47391,1.1619 1.8754,1.53651 2.60497,2.40598c1.76264,0.48479 2.46007,1.58234 3.60883,2.907l0.25867,0.2983c0,0 0.49138,0.56661 -0.07524,1.05799z" fill="#724539" stroke-width="0.5"/><path d="M369.14744,227.14116c0.08304,0.10968 0.40696,0.60192 -0.09309,1.03555c-0.56662,0.49138 -1.05799,-0.07524 -1.05799,-0.07524l-0.38496,-1.07671c0.57292,-1.17914 -0.49657,-1.16063 -1.34661,-2.12534c-2.21805,-2.51727 -5.19786,-4.25914 -7.36201,-6.68138c0,0 -0.49137,-0.5666 0.07525,-1.05798c0.56662,-0.49138 1.05798,0.07525 1.05798,0.07525c0.25242,0.303 0.52203,0.59448 0.80479,0.87746l-0.21163,0.05976c0,0 -0.67772,0.32125 -0.35646,0.99897c0.32125,0.67772 0.99897,0.35646 0.99897,0.35646l0.67855,-0.39208c1.80556,1.55568 3.88865,2.94938 5.4478,4.78081c1.10093,1.29319 2.22904,1.4851 1.7494,3.22447z" fill="#724539" stroke-width="0.5"/><path d="M362.04362,214.77896l-0.02049,-0.01646c-0.1084,0.29308 -0.12777,0.62553 -0.09395,0.93471c0.00971,0.14106 0.02083,0.28291 0.03062,0.42475c-0.03295,0.0002 -0.06619,0.00214 -0.09971,0.00567l-0.00407,-0.04445l-1.14905,0.1051c-0.41249,0.03773 -0.7163,0.40271 -0.67857,0.81519c0.03026,0.33086 0.27107,0.5918 0.57806,0.66265l0.80841,0.20664c-0.00187,0.02647 -0.00365,0.05294 -0.00535,0.07942l-0.78033,0.22036c0,0 -0.50671,0.24019 -0.43615,0.74335c-0.1507,0.0375 -0.28532,0.09874 -0.38368,0.21498c-0.48681,0.57529 -0.50621,1.67791 -1.2266,1.8992c-0.67084,0.20607 -1.94654,-1.13524 -2.9098,-0.50476c-0.92179,0.60335 -0.93195,2.04228 -2.04517,2.63186c-0.86051,0.45574 -1.23539,-0.07699 -1.73202,0.21954c-0.05465,0.18286 -0.19123,0.37049 -0.50321,0.46282c-0.527,0.15599 -0.78213,-0.18852 -0.88083,-0.38376c-0.10813,-0.15151 -0.14392,-0.29609 -0.13975,-0.42549c-0.69708,-2.41442 -1.2005,-4.87079 -1.66933,-7.3357c0.15621,-1.15422 0.16319,-4.00335 0.80988,-4.4712c0.67292,-0.48681 2.76414,-0.70623 3.56317,-0.57531c0.57366,0.09399 2.37444,1.2588 2.95862,0.79562c0.47714,-0.37832 0.18101,-1.20794 0.19102,-1.81678c0.00053,-0.03189 0.00038,-0.0645 -0.00042,-0.09779c1.95411,1.15383 3.90598,2.25761 5.90235,2.7975l0.70943,0.44398c0,0 0.61413,0.43052 0.1836,1.04465c-0.1428,0.20369 -0.3058,0.29247 -0.45988,0.32014zM357.81201,218.95503c0.04374,0.01717 0.08785,0.03309 0.13247,0.04735c0.0064,0.00204 0.02572,-0.0639 0.06072,-0.16836c-0.06383,0.04083 -0.12823,0.08116 -0.19319,0.12101z" fill="#875243" stroke-width="0.5"/><path d="M348.84374,214.39325c-0.00862,0.00132 -0.01736,0.00252 -0.02623,0.00362c0.09673,-1.28079 0.23168,-2.83833 0.69501,-3.17352c0.67292,-0.48681 2.76414,-0.70623 3.56317,-0.57531c0.15657,0.02566 0.40455,0.13108 0.69426,0.2614c1.31238,2.33673 -2.75685,2.613 -4.05252,3.38674l0.00532,0.0114c0,0 -0.43882,0.38055 -0.87901,0.08567z" fill="#a06c5d" stroke-width="0.5"/><path d="M401.62678,312.47607c-1.73306,-1.80181 0.06875,-3.53487 0.06875,-3.53487l1.34444,-1.29313c0.09917,-0.09087 0.19682,-0.18398 0.29327,-0.27885c-0.52675,-0.52989 -1.00556,-1.07277 -1.42094,-1.62773c-0.67724,-0.90482 -0.69347,-2.19335 -1.36072,-3.10555c-0.61511,-0.84093 -1.85254,-1.12357 -2.38698,-2.01795c-0.9223,-1.54344 -1.53347,-3.29745 -1.84723,-5.06789c-1.05329,-5.9432 -0.11721,-5.92839 5.79327,-7.6349c1.39051,-0.40148 4.52038,0.70401 4.28125,-0.7234c-0.42006,-2.50735 -2.95483,-4.15619 -4.3305,-5.91241c-0.73016,-0.93214 -1.49893,-1.89116 -1.88594,-3.0102c-0.31215,-0.90258 0.29293,-2.0126 -0.14471,-2.86146c-0.46322,-0.89849 -1.87391,-1.03843 -2.33079,-1.94016c-0.58551,-1.15559 -0.04817,-2.88222 -1.00663,-3.75377c-0.41633,0.69623 -0.51007,1.75388 -1.24897,2.08869c-3.99159,1.8087 -5.68045,-0.13403 -9.52985,-0.8741c-0.89618,-0.1723 -1.86233,0.09172 -2.75862,-0.01093c-0.30917,0.16765 -0.6445,0.26155 -0.99482,0.31289c-0.34312,-0.44079 -0.87156,-0.34319 -0.93022,-0.95585l1.02192,-0.09347c0.41249,-0.03773 0.7163,-0.40271 0.67857,-0.81519c-0.02302,-0.2517 -0.16789,-0.46293 -0.37105,-0.5808c0.18019,-0.09624 0.36387,-0.18537 0.55107,-0.26607c0,0 0.68695,-0.30099 0.38596,-0.98794c-0.30099,-0.68695 -0.98794,-0.38596 -0.98794,-0.38596c-0.79761,0.35428 -1.55216,0.82188 -2.23134,1.37029l-1.30932,0.45755c-0.3257,0.1059 -0.54679,0.42606 -0.51428,0.7815c0.03734,0.40825 0.39522,0.71003 0.80248,0.67962l0.75197,-0.05407c0.08604,0.31071 0.22593,0.61217 0.36929,0.89724c-0.34342,-0.00425 -0.68405,-0.00137 -1.01287,0.03367c-3.58151,0.38178 -9.35266,1.62574 -12.52723,-0.59937c-2.55476,-1.79068 -2.47631,-6.61777 -2.71646,-9.13019c-0.13335,-1.39522 -0.78169,-7.26137 -0.16603,-8.03642c1.15685,-1.45632 3.75869,-0.7945 5.2385,-1.92114c0.88633,-0.67479 0.87893,-2.04724 1.3184,-3.07087c-0.00526,-0.56148 0.29007,-1.21355 -0.01579,-1.68444c-0.47872,-0.73702 -1.61971,-0.85325 -2.1074,-1.58437c-0.98203,-1.47221 -1.33577,-3.2854 -2.17883,-4.84137c-1.47274,-2.71812 -5.53291,-5.68783 -2.02197,-9.71275c3.66872,-4.20581 9.83133,0.60172 14.03833,-0.87544c1.20153,-0.42188 2.213,-1.27398 3.22883,-2.04195c1.18465,-0.8956 1.87313,-3.05961 3.35288,-2.93387c2.22131,0.18875 3.72412,2.45166 5.57612,3.6926c2.26254,1.51603 4.76973,2.73919 6.73738,4.62224c1.01895,0.97514 1.98914,2.04489 2.67873,3.2752c0.34364,0.61311 -0.17492,2.57769 0.32473,2.08338c0.73034,-0.72251 0.2252,-2.07073 0.62083,-3.01882c0.61612,-1.47644 1.23745,-3.04734 2.37852,-4.16868c2.78175,-2.73361 10.08776,-5.24184 14.10643,-3.87693c1.88105,0.63889 3.13328,2.44308 4.69991,3.66461c2.39673,1.99504 4.33606,4.6765 7.13572,6.04997c1.63206,0.80068 4.07265,-0.0011 5.28243,1.35578c1.89828,2.12908 0.55523,5.98907 1.26674,8.54538c1.08277,3.89018 1.67559,4.04079 4.88202,6.41194c1.10818,0.81949 2.12048,1.91264 3.44855,2.28125c1.44299,0.4005 3.004,-0.24668 4.49193,-0.07734c1.65089,0.18788 3.20128,0.95433 4.85232,1.14078c3.17205,0.35822 6.57194,-0.46761 9.7219,-0.41709c1.94929,0.03127 3.96058,-0.04694 5.8253,0.52186c2.02496,0.61767 3.58327,2.69709 5.69751,2.80642c3.51677,0.18188 7.15469,-1.27004 10.67738,-0.97658c3.68824,0.30726 5.60027,2.84491 9.10503,2.39724c3.09161,-1.07765 4.08096,-5.76435 4.93308,-8.82088c0.57793,-2.07301 -0.49163,-5.07598 1.25516,-6.33299c2.02356,-1.45617 5.07755,-0.62185 7.47895,0.04782c1.82508,0.50895 3.11117,2.16608 4.61114,3.32369c4.88632,3.77109 9.40852,9.23003 14.71777,12.33698c1.50496,0.8807 4.63419,0.44248 5.98474,0.16658c4.83872,-0.98849 7.95172,-4.53675 13.03174,-4.41973c5.28857,0.12181 10.55657,2.43342 14.58826,5.77302c2.68144,2.22114 4.40227,5.31981 6.98675,7.63849c5.00837,0.66954 9.83828,-0.22718 14.85754,-0.6081c1.6888,-0.12816 3.4356,-0.77925 5.06991,-0.33488c4.72117,1.28369 5.27358,3.45857 8.17684,6.47461c0.87448,0.90846 2.20501,1.43869 2.78803,2.55678c0.42015,0.80574 -0.4937,1.94237 -0.03346,2.7259c0.26849,0.45709 1.06021,-0.03336 1.58837,-0.07875c1.52758,-0.13126 3.0509,-0.30864 4.57748,-0.45108c2.73224,-0.25494 6.71148,-0.81197 8.91345,1.2269c1.26683,1.173 0.92564,3.3628 0.96471,5.08885c0.02558,1.12991 -0.68501,2.17424 -0.77476,3.30087c-0.31365,3.93736 3.09501,11.4647 -0.74935,14.62302c-0.8458,0.69487 -6.57925,1.06528 -8.49103,1.21807c-5.65703,2.5251 -11.48937,4.49746 -17.20949,6.83385c-1.99548,0.81505 -3.76575,2.99084 -5.89531,2.65738c-3.76378,-0.58937 -1.11624,-4.35626 -3.92312,-5.13049c-3.33758,-0.92061 -5.60856,0.12039 -9.0267,0.05639c-3.33895,-0.06252 -6.6164,-1.04081 -9.95478,-1.12928c-1.76218,-0.04669 -3.53749,0.54485 -5.2808,0.28347c-1.56932,-0.23529 -2.85905,-1.52506 -4.43133,-1.73965c-1.63867,-0.22365 -3.29916,0.66653 -4.94015,0.46062c-1.65833,-0.20807 -3.07253,-1.43301 -4.72647,-1.67353c-1.43001,-0.20795 -2.88515,0.52627 -4.32037,0.35795c-1.68039,-0.19708 -3.19813,-1.16635 -4.86847,-1.43561c-4.445,-0.71654 -10.35197,0.72242 -14.76522,1.12607c-7.23807,0.66201 -14.47616,1.32402 -21.71423,1.98604c-2.73211,0.24989 -5.5437,1.30778 -8.20538,0.64277c-1.25019,-0.31235 -2.13577,-1.5857 -3.39854,-1.8425c-1.1648,-0.23688 -2.35747,0.3084 -3.53972,0.43147c-5.68597,0.59195 -11.39071,1.04182 -17.0838,1.56253c-0.78244,0.07156 -6.70437,0.64249 -7.13765,0.54511c-2.76244,-0.62088 -4.90948,-3.15541 -7.71166,-3.56079c-1.32624,-0.19187 -2.65937,0.45618 -3.99877,0.41408c-3.88464,-0.12211 -8.08652,-0.46391 -11.94043,-1.06124c-4.52275,0.44302 -9.04921,0.84647 -13.5747,1.26038c-1.7697,0.16186 -3.66776,-0.17586 -5.4331,-0.02804c1.8205,1.17386 3.66762,2.22037 5.06512,3.0796c0,0 2.12831,1.3116 0.81671,3.43991c-1.3116,2.12831 -3.43991,0.81671 -3.43991,0.81671c-2.05526,-1.26934 -4.63747,-2.77619 -7.01838,-4.47737c-0.20239,0.25362 -0.40932,0.50104 -0.63061,0.72877l-1.34444,1.29313c0,0 -1.80181,1.73306 -3.53487,-0.06875z" fill="#aef0ff" stroke-width="0.5"/><path d="M465.06122,335.07601c-0.67996,2.40575 -3.0857,1.72582 -3.0857,1.72582l-2.45652,-0.6943c-1.58577,-0.44841 -3.16644,-0.91531 -4.75733,-1.34523c-1.85248,-0.50061 -4.10345,-0.21125 -5.57217,-1.44622c-1.78147,-1.49795 -3.93835,-3.83399 -3.4007,-6.0986c0.03785,-0.15941 0.09592,-0.30152 0.1716,-0.42844c-0.12865,-0.18698 -0.2459,-0.38109 -0.34677,-0.58537c-0.56194,-1.13805 -0.17304,-2.75853 -1.07322,-3.65327c-0.98241,-0.97649 -2.70914,-0.68773 -3.93773,-1.32746c-0.84525,-0.44013 -1.31656,-1.44165 -2.17498,-1.85547c-1.06951,-0.51559 -2.49527,-0.16276 -3.45668,-0.85945c-1.74431,-1.26402 -3.24975,-2.93082 -4.33868,-4.78947c-0.62859,-1.07291 -0.15598,-2.52542 -0.62224,-3.67816c-0.55913,-1.38234 -1.75184,-2.43312 -2.39398,-3.7789c-0.30962,-0.64888 0.25508,-1.86508 -0.41873,-2.11585c-1.0701,-0.39825 -2.21837,0.86254 -3.35036,0.71313c-1.5846,-0.20914 -2.89734,-1.43967 -4.46627,-1.74483c-2.77138,-0.53906 -5.73234,0.41487 -8.4648,-0.29563c-0.22962,-0.05971 -7.76603,-3.35955 -8.64441,-3.74321c-1.83637,-0.85087 -4.06915,-1.13036 -5.50911,-2.5526c-0.6608,-0.65268 0.93161,-2.3595 0.1057,-2.78434c-1.08594,-0.55859 -2.29551,0.98124 -3.5157,1.03028c-1.24392,0.05 -2.41887,-0.64916 -3.66034,-0.74189c-1.26784,-0.09471 -2.58826,0.53681 -3.80968,0.18391c-1.04587,-0.30218 -1.53275,-1.67145 -2.56241,-2.02493c-1.3914,-0.47767 -2.94271,-0.15117 -4.39825,-0.36467c-1.19037,-0.1746 -2.31901,-0.73005 -3.52027,-0.79683c-4.85645,-0.26993 -10.52785,2.35504 -15.29656,1.32081c-1.25934,-0.27312 -2.1544,-1.50684 -3.39854,-1.8425c-1.38561,-0.37385 -3.18173,0.66628 -4.29911,-0.23436c-1.05468,-0.85012 -0.25503,-2.77385 -0.90652,-3.96154c-0.48617,-0.88629 -1.87995,-1.03539 -2.33079,-1.94016c-1.3971,-2.80373 0.49256,-3.69423 -1.4388,-5.96931c-1.06411,-1.2535 -2.99374,-1.77015 -3.71107,-3.2497c-0.71265,-1.46991 -0.90469,-10.17385 -0.96843,-11.74672c0.96053,-0.68235 2.54489,-0.91797 2.88161,-2.04705c0.35424,-1.18782 -1.95768,-2.51235 -1.22393,-3.51138c2.26683,-3.08641 7.96391,-3.17153 11.21679,-3.40498c1.15281,-0.08272 2.38506,-0.53751 3.46501,-0.12582c0.679,0.25883 0.43018,2.11103 1.11651,1.87234c0.74253,-0.25825 -0.14116,-1.66083 0.24474,-2.34576c0.69364,-1.23119 1.59878,-2.47846 2.84674,-3.14146c0.54602,-0.29008 6.33583,-0.77058 7.34183,-0.8626c4.08888,-0.37398 7.96413,-0.94569 12.08633,-0.18319c1.61638,0.29899 3.08675,1.1939 4.70718,1.47017c3.21562,0.54823 5.92623,-0.83309 8.91445,1.40367c0.81496,0.61001 0.19103,2.30096 1.03229,2.87416c0.65123,0.44374 1.50598,-0.74907 2.28262,-0.61548c1.72989,0.29755 3.26526,1.29348 4.92805,1.85577c3.28659,1.11139 6.63,2.04952 9.91817,3.15624c0.48513,2.94972 1.00547,5.89964 1.27775,8.87657c0.09766,1.06774 0.43119,2.13996 0.29297,3.20322c-0.06766,0.52047 -1.35749,1.52231 -0.87919,1.30622c0.96127,-0.43428 1.53774,-1.46956 2.44219,-2.01234c2.28073,-1.36872 4.81916,-2.29841 7.36236,-3.07768c1.47762,-0.45276 3.14979,-0.17428 4.56934,-0.78525c1.38024,-0.59404 2.08951,-2.64593 3.59,-2.72646c2.2401,-0.12023 4.48359,0.96726 6.36292,2.19225c1.46103,0.95234 2.56978,2.48761 3.26832,4.08562c0.5417,1.23924 -0.19721,2.78435 0.28679,4.04723c0.24867,0.64886 1.17128,0.75197 1.71724,1.18183c0.64405,0.50709 1.10393,1.27706 1.84655,1.62409c0.95076,0.44429 2.09897,0.29004 3.07496,0.67576c1.07703,0.42566 1.8905,1.44449 3.01278,1.73023c2.1907,0.55775 4.49176,-0.51855 6.74294,-0.72444c3.80271,-0.3478 7.59752,-0.69151 11.40859,-0.93574c1.13285,0.61416 2.15047,1.52176 3.39853,1.84249c0.80531,0.20696 1.64555,-0.24254 2.47199,-0.33381c3.55037,-0.39212 7.12016,-0.65123 10.67738,-0.97658c0.48461,-0.04432 7.88188,-0.78629 8.44422,-0.58123c2.55008,0.92985 3.98032,4.23404 6.65587,4.69121c4.01117,0.68537 4.99852,-2.79774 9.6378,-0.25393c1.03238,0.56608 -0.13055,2.54547 0.58009,3.48423c0.41381,0.54665 1.38567,-0.14077 2.05684,-0.00084c1.5306,0.31914 2.94358,1.11818 4.48743,1.36534c4.35295,0.69686 9.70901,-0.66362 14.05695,-1.06129c1.42365,-0.13021 2.84313,-0.31931 4.27094,-0.39063c0.70415,-0.03517 1.54707,0.49099 2.11387,0.0717c0.84452,-0.62474 1.01371,-1.84021 1.52058,-2.76031c-0.05382,-1.01462 -0.10761,-2.02923 -0.16143,-3.04386l-2.24469,-3.6216c-0.21379,-0.32931 -0.35292,-0.71394 -0.39117,-1.1321c-0.12576,-1.37497 0.88693,-2.59156 2.2619,-2.71731c0.41814,-0.03824 0.82165,0.0288 1.18427,0.1793l4.41942,1.72655l-0.14234,0.36434c1.52325,0.38489 3.02995,0.83048 4.51105,1.34471c1.43174,0.49709 2.93595,0.77671 4.35137,1.31853c0.32563,0.12465 0.7379,0.99885 0.81286,0.65834c0.47723,-2.1682 -1.64581,-4.82865 -2.50385,-6.29976c-1.62952,-2.7938 -5.21569,-7.69873 -4.04734,-11.30124c0.57035,-1.75865 2.83332,-2.51595 4.57537,-3.13515c4.49094,-1.59626 10.00666,0.76598 13.41309,3.75915c1.27228,1.11792 2.42312,2.45823 3.14584,3.98994c0.83902,1.77821 0.21264,4.13115 1.33496,5.74559c1.15912,1.66737 4.33575,0.92755 5.52012,2.57707c1.65381,2.30331 1.29254,8.80806 1.07424,11.74512c6.86988,-0.3406 14.27658,-2.28042 18.10002,5.54494c0.47069,0.96335 -0.10963,2.20948 0.29297,3.20322c0.59436,1.46705 2.87591,2.40535 2.61158,3.96601c-0.39524,2.33363 -2.40605,4.20291 -4.24707,5.69043c-0.79238,0.64023 -2.2264,-0.39562 -3.04926,0.20496c-0.99502,0.72622 -1.18507,2.16143 -1.71599,3.27301c-1.43973,3.01434 -2.61485,7.27093 -5.64396,9.1827c-4.91671,3.10308 -10.48007,1.4826 -15.74526,2.82381c-2.49068,0.63445 -4.68057,2.22125 -7.18548,2.79693c-4.33781,0.99692 -5.87119,0.33241 -10.21843,-0.32568c-4.58757,-0.73594 -8.76079,0.79262 -13.27015,0.30778c-3.35566,-0.3608 -6.26613,-2.7035 -9.6031,-3.20877c-1.55759,-0.23584 -3.1422,0.36965 -4.71621,0.30461c-3.21823,-0.13295 -6.34903,-1.27217 -9.56924,-1.34225c-1.79303,-0.03902 -3.59133,0.68706 -5.36421,0.41626c-1.37439,-0.20993 -2.40499,-1.48966 -3.758,-1.80961c-1.87076,-0.4424 -3.81977,0.4403 -5.73414,0.6154c-3.01264,0.27554 -6.17901,-0.21222 -9.04374,0.76c-4.37549,1.48494 -7.88433,5.87986 -12.2269,7.57832c-0.88068,0.34446 -1.99354,-0.29877 -2.83371,0.13524c-0.89812,0.46394 -1.02782,1.89547 -1.94016,2.33079c-0.62265,0.29709 -6.27682,0.76519 -7.34183,0.8626c-1.53076,0.14001 -3.0615,0.28001 -4.59226,0.42002c0.41744,0.33353 0.76043,0.86734 0.83838,1.71956c0.02176,0.23796 0.0187,0.45525 -0.00463,0.65365l0.62342,0.1762c0,0 2.40576,0.67995 1.72582,3.0857zM398.75649,285.39718l-0.45697,0.3504c-1.07718,-0.30907 -3.74483,-2.39448 -4.9863,-1.82451c-1.81431,0.83295 -1.44578,5.00256 -0.2024,6.08594c0.29678,0.25858 -0.81476,-0.34721 -1.16804,-0.17362c-0.47999,0.23585 -0.84554,0.65508 -1.2683,0.98261c0,0 -0.58355,0.47114 -0.11241,1.05468c0.47114,0.58355 1.05468,0.11241 1.05468,0.11241c0.77028,-0.6577 2.48224,-0.2472 2.78576,-1.21352c0.25794,-0.8212 -0.88941,-2.79897 -0.65576,-3.95026c0.10167,-0.501 -0.34097,-1.48165 0.16846,-1.52436c0.94418,-0.07916 3.51628,1.6961 4.62648,1.93093l1.00503,-0.55576c0,0 0.63748,-0.39512 0.24237,-1.0326c-0.39512,-0.63748 -1.0326,-0.24237 -1.0326,-0.24237zM377.69393,275.23264l0.42132,-0.03854c1.75347,-0.18161 5.00157,-1.06624 4.24189,-3.56999c-0.27747,-0.91448 -1.05444,-0.59905 -1.12629,-1.34962l1.02192,-0.09347c0.41249,-0.03773 0.7163,-0.40271 0.67857,-0.81519c-0.02302,-0.2517 -0.16789,-0.46293 -0.37105,-0.5808c0.18019,-0.09624 0.36387,-0.18537 0.55107,-0.26607c0,0 0.68695,-0.30099 0.38596,-0.98794c-0.30099,-0.68695 -0.98794,-0.38596 -0.98794,-0.38596c-0.79761,0.35428 -1.55216,0.82188 -2.23134,1.37029l-1.30932,0.45755c-0.3257,0.1059 -0.54679,0.42606 -0.51428,0.7815c0.03734,0.40825 0.39522,0.71003 0.80248,0.67962l0.75197,-0.05407c0.29955,1.08177 1.25177,2.05125 0.73098,2.60815c-0.44836,0.47944 -2.24347,0.67275 -2.76126,0.71222l-0.42132,0.03854c0,0 -0.74688,0.06831 -0.67857,0.81519c0.06831,0.74688 0.81519,0.67857 0.81519,0.67857z" fill="#a4e2f1" stroke-width="0.5"/><path d="M443.90777,324.69231l-85.03689,-5.55735c-1.08143,-0.5578 -1.49566,-1.88407 -2.68937,-2.19576c0.27548,-0.01568 0.55058,-0.03988 0.82502,-0.06751c0.74633,-0.07512 2.76162,-0.02279 2.4397,-1.67985c-0.18291,-0.94152 -2.98749,-2.2687 -3.79202,-2.68294l-1.21521,0.07883c0,0 -0.74688,0.06831 -0.67857,0.81519c0.06831,0.74688 0.81519,0.67857 0.81519,0.67857l0.77648,-0.10333c0.89295,0.52286 1.6541,1.02127 2.60809,1.41784c0.33563,0.13952 -0.72801,-0.04772 -1.09028,-0.01809c-0.72952,0.05967 -3.36668,0.01173 -3.10177,1.75307c0.1058,0.69546 1.1979,0.73793 1.8001,1.10155c0.33861,0.20447 0.64537,0.46778 0.94267,0.74817l-24.05234,-1.57187c-0.56144,-0.97854 -2.51,-2.22625 -3.68915,-2.34111c-0.38399,-0.0374 0.68378,-0.37468 0.96562,-0.63815c0.25216,-0.23573 0.42301,-0.5456 0.63452,-0.8184c0.6728,-0.87696 2.74747,-2.88696 2.84553,-3.98325c0.25119,-2.80832 -2.75316,-1.53328 -3.57069,-3.21147c-0.16504,-0.33879 1.58369,-1.21709 1.60507,-1.24186c0.73075,-0.84589 1.20713,-1.84582 1.30306,-2.78414l112.10245,7.32614z" fill="#53322a" stroke-width="0"/><path d="M355.44761,314.91697c-0.03732,0.74825 -0.74826,0.70179 -0.74826,0.70179l-0.37426,-0.02446c-1.576,-0.10299 -2.53343,-0.3699 -3.94861,0.50015c-1.3631,-0.0682 -2.74085,0.69037 -4.16442,0.12618c-1.99526,-0.79076 -3.49279,-0.98959 -5.75445,-1.13739c-3.3633,-0.2198 -7.02628,-0.02246 -10.25681,-1.08792c0,0 -0.03244,-0.0108 -0.08099,-0.03512c0.08204,-0.11743 0.16243,-0.23637 0.24974,-0.34899c0.1765,-0.23006 0.44948,-0.53809 0.75794,-0.88714c2.64077,0.75355 5.57102,0.61212 8.28201,0.7893c2.65547,0.17354 4.88478,0.26998 7.26622,1.29435c1.1063,0.47587 2.2854,-0.2612 3.3602,-0.17247c1.49228,-0.91745 2.70182,-0.64605 4.36384,-0.53743l0.37425,0.02446c0,0 0.71092,0.04646 0.67359,0.7947z" fill="#724539" stroke-width="0.5"/><path d="M392.91321,307.54484c0.28454,0.69003 -0.36802,0.98311 -0.36802,0.98311l-0.92572,0.39387c-0.93003,-0.05136 -2.35995,-0.78523 -3.1534,-0.29811c-0.53738,0.32991 -0.7341,1.07052 -1.2014,1.50229c-4.69518,1.35325 -9.28534,0.62684 -14.27767,0.3646c-3.09501,-0.16258 -6.23793,-0.01241 -9.38472,-0.21805c-2.89444,-0.18915 -5.78889,-0.37832 -8.68333,-0.56747c-0.79903,-0.05221 -2.73113,0.05084 -3.49757,-0.26079c-2.02484,-0.82327 -4.89981,-1.89091 -7.20228,-2.01928c0,0 -0.71091,-0.04646 -0.67357,-0.79471c0.03732,-0.74825 0.74825,-0.7018 0.74825,-0.7018c2.37459,0.1738 5.53612,1.18894 7.6111,2.11043c0.58337,0.25907 2.5459,0.13417 3.08875,0.16964c2.89444,0.18915 5.78888,0.37832 8.68332,0.56748c3.14775,0.20571 6.26866,0.07073 9.36786,0.21706c4.68799,0.22136 9.13243,0.99254 13.53588,-0.18895c1.93588,-1.86268 2.2074,-1.58545 4.78479,-1.36014l0.61065,-0.29613c0,0 0.65256,-0.29307 0.9371,0.39696z" fill="#724539" stroke-width="0.5"/><path d="M413.93332,320.06037c-0.52909,0.49624 -1.00539,-0.06571 -1.00539,-0.06571l0.13715,-0.16637c-2.44823,-0.16282 -4.6712,0.48514 -7.22557,0.3182c-0.9493,-0.0772 -1.85216,0.45401 -2.79386,0.58774c-3.61322,0.5131 -8.12396,-0.11564 -11.78622,-0.35497c-2.17218,-0.14195 -4.15003,0.07729 -5.96273,-1.30616c0,0 -0.57082,-0.45371 -0.14541,-1.05053c0.42541,-0.59682 0.99622,-0.14308 0.99622,-0.14308c1.40955,1.18322 3.41415,0.88744 5.1866,1.00327c3.59497,0.23494 7.90995,0.82347 11.45755,0.37365c1.30079,-0.16493 1.56999,-0.68823 3.12253,-0.60643c2.57084,0.16801 4.73934,-0.47802 7.22557,-0.31819l0.84637,0.67039c0,0 0.4763,0.56194 -0.0528,1.05819z" fill="#724539" stroke-width="0.5"/><path d="M336.77658,306.62406c0.12966,0.01762 0.67945,0.1314 0.6465,0.79173c-0.03732,0.74825 -0.74825,0.70179 -0.74825,0.70179l-0.98949,-0.47964c-0.42861,-1.23448 -1.12034,-0.45881 -2.33959,-0.52834c-0.96093,-0.05479 -1.91928,-0.01047 -2.87384,0.07385c-0.34574,-0.15884 -0.64258,-0.38734 -0.82752,-0.76697c-0.07978,-0.16375 0.28755,-0.45356 0.69083,-0.71209c1.03053,-0.10769 2.06249,-0.16801 3.0852,-0.09131c1.60901,0.12068 2.48318,-0.54941 3.35616,1.01095z" fill="#724539" stroke-width="0.5"/><path d="M336.3145,318.07616c-0.71058,-0.05133 -0.64508,-0.79765 -0.64508,-0.79765c0.27936,-3.08016 1.28827,-2.5912 3.56275,-2.97735c1.2231,-0.20766 2.42208,-1.26025 3.679,-0.89636c2.63348,0.76243 3.67113,3.11188 6.73127,2.82076c1.12721,-0.50324 3.51611,-1.04951 5.02094,-0.50311c-0.58176,0.23723 -1.00977,0.65565 -0.89523,1.40856c0.1058,0.69546 1.1979,0.73793 1.8001,1.10155c0.2115,0.12772 0.41058,0.27839 0.60269,0.44184c-0.00409,0.01104 -0.00884,0.02072 -0.01428,0.02896c-0.56098,0.84886 -2.4465,0.43692 -3.24297,0.37938c-2.96412,-0.21414 -5.92823,-0.42828 -8.89235,-0.64243c-2.38112,-0.17203 -4.81088,-0.34756 -7.19199,-0.51958c-0.11487,0.10192 -0.27947,0.1724 -0.51483,0.15541z" data-paper-data="{&quot;index&quot;:null}" fill="#9c5f4e" stroke-width="0.5"/><path d="M440.98285,317.50135l-77.57709,-14.82767c-0.00058,-0.02226 -0.00192,-0.04517 -0.00408,-0.06876c-0.06831,-0.74688 -0.81519,-0.67857 -0.81519,-0.67857c-1.07709,0.43955 -1.13171,-4.06926 -0.48845,-4.39931l0.78961,0.18533c0.08153,0.02116 0.16803,0.02883 0.25673,0.02072c0.41249,-0.03773 0.7163,-0.40271 0.67857,-0.81519c-0.01563,-0.17086 -0.0874,-0.32307 -0.19545,-0.44009l-0.68254,-0.75549c-0.14369,-0.39635 -0.24801,-0.80269 -0.28439,-1.2194l-0.08433,-0.92285c0,0 -0.06831,-0.74688 -0.81519,-0.67857c-0.74688,0.06831 -0.67857,0.81519 -0.67857,0.81519l0.08645,0.94436c0.07166,0.49827 0.28145,1.04989 0.61713,1.45373c-0.54599,0.16793 -1.16156,0.24156 -1.51916,0.66486c-0.53317,0.63112 0.15601,4.30234 0.3108,5.14213c0.01271,0.06895 0.02075,0.14163 0.02634,0.21639l-34.79524,-6.65058c-0.00833,-0.50645 -0.28395,-1.11321 -0.493,-2.03024c-0.11274,-0.49455 0.01268,-1.03208 -0.14243,-1.51501c-0.05395,-0.16797 -0.58975,-0.20373 -0.43908,-0.29551c0.72276,-0.44025 2.34293,0.29866 2.93558,0.33022c0.65091,0.03467 1.4002,0.12004 1.94005,-0.24526c0.28229,-0.19101 -0.26923,-0.74359 -0.06998,-1.02013c0.29954,-0.41571 2.58033,1.06523 3.34984,0.02834c0.36246,-0.48839 -0.00241,-1.2164 -0.00362,-1.82459l-0.90869,-0.83067c0,0 -0.57643,-0.47982 -1.05625,0.09661c-0.47982,0.57643 0.09661,1.05625 0.09661,1.05625l0.54055,0.37568c0.41711,0.39036 -1.02901,-0.26034 -1.21487,-0.25105c-0.66413,0.03316 -1.42143,-0.00511 -1.95643,0.38981c-0.26229,0.19361 0.29594,0.70227 0.11219,0.97156c-0.41451,0.60748 -1.37338,-0.57874 -2.10377,-0.66472c-0.77238,-0.09092 -2.75401,0.6076 -3.03974,0.99661c-0.59881,0.81522 1.19795,3.14137 1.01566,4.15738l-9.76423,-1.86628l2.81805,-14.74382l10.65619,2.03677c0.22647,0.36367 0.70347,0.32005 0.70347,0.32005l0.54927,-0.08061l0.7239,0.13836c0.77204,0.66244 2.4474,1.92901 3.91651,2.6915c0.00051,0.01309 0.00137,0.02622 0.00258,0.03941c0.02575,0.28152 0.20393,0.51243 0.44562,0.61867l0.94133,0.43453l0.01248,-0.02704l0.05775,0.05525c1.77141,0.41495 3.24029,1.20661 4.88036,1.99727c0,0 0.67559,0.32569 1.00128,-0.3499c0.32569,-0.67559 -0.3499,-1.00128 -0.3499,-1.00128c-1.06326,-0.51258 -2.06369,-1.02807 -3.11469,-1.44674c-0.04377,-0.31969 -0.28534,-0.5681 -0.58846,-0.63181l-0.97561,-0.22899c-0.84554,-0.47812 -1.68135,-0.94921 -2.50338,-1.43874l110.01694,21.02804z" fill="#653d33" stroke-width="0"/><path d="M349.86222,296.02217c-0.1408,0.73667 -0.87747,0.59586 -0.87747,0.59586l-0.38782,-0.07412c-1.63309,-0.31214 -2.59738,-0.7043 -4.19476,-0.03056c-1.41532,-0.24929 -2.95841,0.31896 -4.36942,-0.42997c-1.97769,-1.04971 -3.51572,-1.44637 -5.85928,-1.89432c-2.90892,-0.55599 -6.07558,-0.85177 -8.92213,-1.79884c-0.01001,-0.15246 -0.03129,-0.30264 -0.07794,-0.44787c-0.05395,-0.16797 -0.58975,-0.20373 -0.43908,-0.29551c0.72276,-0.44025 2.34293,0.29866 2.93558,0.33022c0.57506,0.03063 1.2269,0.10082 1.74328,-0.13512c1.30573,0.2277 2.61944,0.41077 3.87843,0.65141c2.75166,0.52594 5.06839,0.91865 7.4179,2.25137c1.09148,0.61912 2.42403,0.04571 3.53524,0.2769c1.6844,-0.71045 2.91158,-0.28025 4.63379,0.04893l0.38781,0.07414c0,0 0.73667,0.1408 0.59586,0.87747z" fill="#724539" stroke-width="0.5"/><path d="M323.23671,290.7479c0.31527,-0.68052 0.99578,-0.36525 0.99578,-0.36525c0.06482,0.03026 0.12992,0.05995 0.1953,0.08907c-0.51624,0.19381 -0.94963,0.41717 -1.072,0.58376c-0.07121,0.09696 -0.10855,0.21529 -0.11935,0.35025c-0.09061,-0.1598 -0.12941,-0.37791 0.00026,-0.65783z" fill="#724539" stroke-width="0.5"/><path d="M390.02064,293.70864c0.2035,0.72185 -0.51835,0.92537 -0.51835,0.92537l-1.02105,0.26702c-0.965,-0.17487 -2.35957,-1.09285 -3.25508,-0.71577c-0.6065,0.25537 -0.91284,0.96323 -1.45996,1.3289c-5.09105,0.71551 -9.78946,-0.61628 -14.9713,-1.54158c-2.14047,-0.38222 -4.32206,-0.62965 -6.50425,-0.93659c-0.12008,-0.09436 -0.28989,-0.1564 -0.52959,-0.13447c-0.06542,0.00598 -0.12457,0.01717 -0.17807,0.0326c-0.85689,-0.12649 -1.7132,-0.2654 -2.56648,-0.42849c-2.99927,-0.57326 -5.99854,-1.14653 -8.99781,-1.7198c-0.82796,-0.15824 -2.86125,-0.31362 -3.61987,-0.72465c-2.00419,-1.08589 -4.86361,-2.52728 -7.25248,-2.96139c0,0 -0.73667,-0.1408 -0.59586,-0.87747c0.01589,-0.08316 0.03938,-0.15515 0.06855,-0.21742c0.55778,0.26301 1.11605,0.54257 1.69569,0.82201c0,0 0.67559,0.32569 1.00128,-0.3499c0.05591,-0.11597 0.08231,-0.22164 0.08769,-0.31712c2.01515,0.66372 4.16626,1.68446 5.69159,2.57277c0.57445,0.33454 2.64249,0.47231 3.205,0.57982c2.99927,0.57326 5.99854,1.14653 8.99781,1.7198c3.26176,0.62343 6.5418,0.90559 9.76089,1.46371c4.86933,0.84423 9.40937,2.20096 14.17217,1.61681c2.2766,-1.58821 2.52264,-1.27724 5.18564,-0.7104l0.67848,-0.21213c0,0 0.72185,-0.2035 0.92536,0.51835z" fill="#724539" stroke-width="0.5"/><path d="M331.47707,285.31398c0.13311,0.03474 0.69222,0.22079 0.56796,0.87089c-0.1408,0.73667 -0.87747,0.59586 -0.87747,0.59586l-0.96889,-0.60728c-0.28001,-1.28071 -1.10846,-0.60409 -2.37325,-0.83549c-3.30028,-0.60383 -6.71877,-0.12712 -9.91788,-0.68968c0,0 -0.73667,-0.1408 -0.59586,-0.87747c0.1408,-0.73667 0.87747,-0.59586 0.87747,-0.59586c3.11846,0.66036 6.65284,0.03466 9.91788,0.68969c1.66517,0.33407 2.66993,-0.21359 3.37003,1.44934z" fill="#724539" stroke-width="0.5"/><path d="M318.24521,280.00306l-0.0263,-0.00024c0.09631,0.29728 0.28691,0.57035 0.50487,0.79224c0.70076,0.77321 1.48843,1.53297 1.29883,2.70521c-0.08249,0.50995 -0.82006,0.78739 -0.838,1.30367c-0.02618,0.75316 0.64118,1.63111 0.21241,2.25086c-0.39927,0.57712 -2.23149,0.31347 -2.59766,1.40493c-0.35041,1.04448 0.5324,2.18082 0.02312,3.33299c-0.39367,0.89063 -1.01787,0.70432 -1.22433,1.24464c0.07028,0.17745 0.07917,0.40934 -0.10868,0.67498c-0.31732,0.44875 -0.73094,0.33612 -0.92933,0.2439c-0.1787,-0.05205 -0.29633,-0.14345 -0.37316,-0.24765c-4.42673,-3.17489 -8.26086,-7.06792 -12.56394,-10.40874c-0.14761,0.00121 -0.31219,-0.04397 -0.46314,-0.19019c-0.11409,-0.08877 -0.21885,-0.22125 -0.24897,-0.41582c-0.04949,-0.19057 -0.00585,-0.35372 0.06369,-0.48045c0.08738,-0.21037 0.23653,-0.31812 0.38404,-0.37167c4.29367,-2.65351 10.79734,-1.83725 15.4341,-3.81639l0.832,-0.0905c0,0 0.74882,-0.04207 0.79089,0.70675c0.01395,0.24837 -0.0591,0.41899 -0.16299,0.53611zM317.58398,285.68769c-0.02485,0.07158 -0.05046,0.14312 -0.07682,0.21464c0.04498,-0.01358 0.08948,-0.0284 0.13335,-0.04482c0.00629,-0.00236 -0.01936,-0.06611 -0.05653,-0.16982z" fill="#9c5f4e" stroke-width="0.5"/><path d="M307.63995,287.87163c-0.02456,0.02628 -0.05189,0.05242 -0.0822,0.07833c-0.57013,0.48728 -1.05742,-0.08286 -1.05742,-0.08286c-1.14767,-1.34289 -2.46766,-2.58207 -3.71168,-3.83247c-0.37105,-0.37295 -1.62796,-1.10662 -1.59899,-1.70187c0.02464,-0.50627 0.55381,-0.88333 0.97258,-1.1689c1.0469,-0.71389 1.26602,-0.32919 2.25258,-0.41977c1.654,-0.15186 5.81111,-2.67313 4.73859,1.2677c2.83049,0.95771 -0.33521,3.79738 -0.8874,5.24276l0.01124,0.00567c0,0 -0.10905,0.57052 -0.6373,0.61144z" fill="#bc7f6d" stroke-width="0.5"/><path d="M427.51201,319.61954l-36.6088,-27.49059c0.37166,0.13218 0.71354,-0.14384 0.71354,-0.14384c0.77028,-0.6577 2.48224,-0.2472 2.78576,-1.21352c0.25794,-0.8212 -0.88941,-2.79897 -0.65576,-3.95026c0.10167,-0.501 -0.34097,-1.48165 0.16846,-1.52436c0.94418,-0.07916 3.51628,1.6961 4.62648,1.93093l1.00503,-0.55576c0,0 0.63748,-0.39512 0.24237,-1.0326c-0.39512,-0.63748 -1.0326,-0.24237 -1.0326,-0.24237l-0.45697,0.3504c-1.07718,-0.30907 -3.74483,-2.39448 -4.9863,-1.82451c-1.81431,0.83295 -1.44578,5.00256 -0.2024,6.08594c0.29678,0.25858 -0.81476,-0.34721 -1.16804,-0.17362c-0.47999,0.23585 -0.84554,0.65508 -1.2683,0.98261c0,0 -0.58355,0.47114 -0.11241,1.05468c0.00006,0.00008 0.00011,0.00015 0.00018,0.00021l-65.93503,-49.51248l9.01355,-12.00323l10.15773,7.62773c0.54991,1.61261 2.89819,2.85411 3.8201,3.63261c0.21046,0.17772 -2.80089,1.76622 -2.83061,2.74301c-0.01808,0.59443 0.27472,1.21729 0.68581,1.64702c0.24687,0.25808 0.64333,0.2975 1.01464,0.33818c-0.29185,0.0823 -0.53861,0.22564 -0.9856,0.42048l-0.41553,1.08722c0,0 0.06831,0.74688 0.81519,0.67857c0.47693,-0.04362 0.62146,-0.36394 0.66363,-0.58979c0.87053,-0.37504 2.18557,-0.99006 2.21994,-1.71918c0.02076,-0.44061 -2.53834,-1.59398 -2.51289,-1.65228c0.51062,-1.16948 2.88,-1.14323 3.00012,-2.47464l33.31929,25.02039c-0.05203,0.01487 -0.08325,0.02854 -0.08325,0.02854c-0.79761,0.35428 -1.55216,0.82188 -2.23134,1.37029l-1.30932,0.45755c-0.3257,0.1059 -0.54679,0.42606 -0.51428,0.7815c0.03734,0.40825 0.39522,0.71003 0.80248,0.67962l0.75197,-0.05407c0.29955,1.08177 1.25177,2.05125 0.73098,2.60815c-0.44836,0.47944 -2.24347,0.67275 -2.76126,0.71222l-0.42132,0.03854c0,0 -0.74688,0.06831 -0.67857,0.81519c0.06831,0.74688 0.81519,0.67857 0.81519,0.67857l0.42132,-0.03854c1.75347,-0.18161 5.00157,-1.06624 4.24189,-3.56999c-0.27747,-0.91448 -1.05444,-0.59905 -1.12629,-1.34962l1.02192,-0.09347c0.41249,-0.03773 0.7163,-0.40271 0.67857,-0.81519c-0.02302,-0.2517 -0.16789,-0.46293 -0.37105,-0.5808c0.18019,-0.09624 0.36387,-0.18537 0.55107,-0.26607c0,0 0.47,-0.20593 0.46214,-0.66588l52.9521,39.76322z" fill="#653d33" stroke-width="0"/><path d="M355.1153,260.2643c-0.45036,0.59974 -1.05009,0.14938 -1.05009,0.14938l-0.31573,-0.23709c-1.32953,-0.99838 -2.02318,-1.77458 -3.75411,-1.87178c-1.16157,-0.84617 -2.79735,-1.01426 -3.73538,-2.30731c-1.31474,-1.81235 -2.52173,-2.84485 -4.42967,-4.27758c-2.83729,-2.13061 -6.1711,-4.0884 -8.41969,-6.84436c0,0 -0.47259,-0.58238 0.10978,-1.05496c0.58237,-0.4726 1.05496,0.10977 1.05496,0.10977c1.91784,2.37753 4.77332,4.05018 7.20847,5.87881c2.24018,1.68221 4.14831,3.05355 5.67257,5.28356c0.70811,1.03596 2.15706,1.10684 3.05345,1.80306c1.82522,0.10249 2.73827,1.02845 4.14035,2.08132l0.31573,0.23709c0,0 0.59974,0.45036 0.14938,1.0501z" fill="#724539" stroke-width="0.5"/><path d="M373.02096,266.7477c-2.63311,-1.92768 -5.48288,-3.62341 -8.13752,-5.61686c-2.44177,-1.83359 -4.88353,-3.66718 -7.3253,-5.50077c-0.67406,-0.50617 -2.43196,-1.5397 -2.93259,-2.24241c-1.32264,-1.8565 -3.2571,-4.40829 -5.2118,-5.84852c0,0 -0.59973,-0.45036 -0.14938,-1.05009c0.45036,-0.59974 1.05009,-0.14938 1.05009,-0.14938c1.99282,1.51974 4.20879,4.19393 5.52075,6.16101c0.36886,0.55304 2.1657,1.58605 2.62366,1.92993c2.44177,1.83359 4.88352,3.66718 7.32529,5.50077c2.65545,1.99405 5.47739,3.68963 8.12325,5.60627c1.64568,1.19212 3.20327,2.43759 4.7822,3.60008c-0.16344,0.15273 -0.25712,0.37665 -0.23517,0.61667c0.03734,0.40825 0.39522,0.71003 0.80248,0.67962l0.75197,-0.05407c0.21241,0.76711 0.75304,1.47776 0.86386,2.02485c-2.69,-1.6343 -5.14657,-3.67665 -7.85179,-5.65713z" fill="#724539" stroke-width="0.5"/><path d="M392.20106,275.8431c-0.1346,0.73782 -0.87242,0.60322 -0.87242,0.60322l-1.03447,-0.20912c-0.78983,-0.58135 -1.63877,-2.01899 -2.60886,-2.07405c-0.65702,-0.0373 -1.24339,0.46377 -1.89556,0.55166c-1.24513,-0.40656 -2.40892,-0.92127 -3.52226,-1.51406c0.22008,-0.43546 0.27785,-0.95636 0.08965,-1.57664c-0.00635,-0.02094 -0.01297,-0.04124 -0.01983,-0.06092c1.1367,0.65249 2.32127,1.21933 3.58806,1.65777c2.74303,-0.42549 2.8273,-0.03802 4.96987,1.64195l0.70264,0.10778c0,0 0.73782,0.13461 0.60322,0.87242z" fill="#724539" stroke-width="0.5"/><path d="M383.5844,285.54309c-1.83246,-1.37605 -3.69544,-2.33959 -4.51882,-4.53837c0,0 -0.2492,-0.7074 0.4582,-0.9566c0.70739,-0.24919 0.95659,0.45821 0.95659,0.45821c0.58029,1.799 2.50952,2.71448 4.00476,3.8373c2.2956,1.72383 4.84121,3.85484 7.40596,5.51809c-0.45483,0.23976 -0.80914,0.64061 -1.21661,0.95629c0,0 -0.01243,0.01003 -0.0322,0.02899c-2.45623,-1.64252 -4.88768,-3.67424 -7.05789,-5.30391z" fill="#724539" stroke-width="0.5"/><path d="M403.71692,298.41138c-0.74253,0.10562 -0.84815,-0.6369 -0.84815,-0.6369l0.21353,-0.05872c-2.06376,-1.55326 -4.38167,-2.30277 -6.53655,-3.92093c-0.79237,-0.61396 -1.88335,-0.69579 -2.78673,-1.13019c-0.56606,-0.27219 -1.13619,-0.58355 -1.70744,-0.9241c0.67012,-0.24981 1.58728,-0.20384 2.06984,-0.57124c0.07959,0.04105 0.15914,0.08139 0.23862,0.12102c1.23682,0.61648 1.76571,0.33785 3.08642,1.30505c2.16877,1.62859 4.43766,2.34815 6.53655,3.92093l0.37081,1.04693c0,0 0.10562,0.74253 -0.6369,0.84815z" fill="#724539" stroke-width="0.5"/><path d="M412.03155,293.62268c-0.45036,0.59973 -1.05009,0.14938 -1.05009,0.14938l-0.41871,-0.36255c-1.71977,-0.58794 -2.71307,-1.77119 -4.27216,-2.63582c-1.9961,-1.10699 -3.98051,-1.25594 -5.16021,-3.51056c0,0 -0.33502,-0.67102 0.336,-1.00604c0.67102,-0.33501 1.00604,0.336 1.00604,0.336c0.88293,1.9009 2.91703,1.98179 4.55012,2.87128c1.46434,0.79759 2.41147,2.00194 4.01541,2.52238l0.84422,0.58582c0,0 0.59974,0.45036 0.14939,1.0501z" fill="#724539" stroke-width="0.5"/><path d="M333.76151,231.97539l-0.02351,-0.01177c-0.04421,0.30934 0.00692,0.6384 0.10511,0.93353c0.28943,1.00257 0.66284,2.03128 -0.02288,3.00078c-0.2983,0.42175 -1.08274,0.34663 -1.32584,0.80244c-0.35466,0.66495 -0.14128,1.7469 -0.79888,2.11502c-0.61235,0.34279 -2.14205,-0.69959 -2.95082,0.11972c-0.77396,0.78403 -0.48068,2.19281 -1.44468,3.00372c-0.74515,0.62683 -1.22387,0.18506 -1.64688,0.57957c-0.01489,0.19028 -0.10888,0.40245 -0.39439,0.55845c-0.4823,0.26352 -0.80429,-0.01948 -0.94192,-0.18954c-0.13762,-0.12533 -0.20309,-0.25912 -0.22627,-0.3865c-2.57998,-4.79788 -4.31194,-9.9802 -6.7079,-14.87274c-0.13311,-0.06381 -0.26106,-0.17675 -0.33235,-0.37446c-0.06344,-0.12988 -0.09929,-0.29492 -0.0408,-0.48294c0.03934,-0.19293 0.15027,-0.32027 0.26845,-0.40352c0.17097,-0.15053 0.3523,-0.18172 0.50835,-0.16496c5.02307,-0.49544 10.5055,3.09718 15.54021,3.35829l0.78705,0.28453c0,0 0.69106,0.29145 0.39961,0.9825c-0.09667,0.22922 -0.23731,0.35034 -0.3821,0.40986zM330.66823,236.79036c-0.05378,0.05337 -0.10825,0.10635 -0.16337,0.159c0.04637,0.00757 0.09286,0.01383 0.13948,0.01837c0.00669,0.00064 0.01168,-0.06789 0.02388,-0.17738z" fill="#9c5f4e" stroke-width="0.5"/><path d="M320.77672,234.37973c-0.03361,0.0128 -0.06965,0.02427 -0.10826,0.0342c-0.72631,0.18698 -0.91329,-0.53935 -0.91329,-0.53935c-0.44036,-1.71072 -1.08107,-3.40407 -1.64862,-5.07409c-0.16928,-0.49811 -0.9756,-1.7097 -0.68786,-2.23158c0.24472,-0.44387 0.88579,-0.54989 1.38747,-0.62224c1.25416,-0.18089 1.28182,0.26096 2.20772,0.61338c1.55232,0.59083 6.3946,0.15413 3.69861,3.22204c2.12112,2.10467 -1.97069,3.26325 -3.10214,4.31865l0.00761,0.01003c0,0 -0.34878,0.46448 -0.84123,0.26897z" fill="#bc7f6d" stroke-width="0.5"/><path d="M364.81408,253.53419c2.00967,1.50912 4.06039,3.04906 6.07006,4.55818c2.50173,1.87861 5.00343,3.75723 7.50516,5.63584c0.67222,0.50479 2.44924,1.49487 2.32392,2.51147c-0.04148,0.3365 -1.85416,1.36701 -2.25175,1.37697c-1.84995,0.0463 -3.92737,-2.63301 -4.59757,-4.01368c-2.23793,-2.32017 -4.64498,-1.28727 -7.25286,-2.53105c-1.24469,-0.59364 -1.48968,-2.20027 -2.32269,-3.19548c-1.54906,-1.85066 -2.68069,-2.18085 -0.82921,-4.6623c0,0 0.45035,-0.59974 1.05009,-0.14938c0.19864,0.14917 0.28209,0.31472 0.30486,0.46944z" fill="#9c5f4e" stroke-width="0.5"/><path d="M445.97966,341.0827c-6.00545,-3.33073 -11.26671,-7.58671 -17.97354,-9.8221c-0.88008,-0.29333 -3.66096,-1.11079 -4.79649,-0.54405c-1.15299,0.57546 -1.78575,2.01993 -3.0079,2.42845c-1.95077,0.65209 -4.08725,0.78096 -6.1385,0.62892c-3.53266,-0.26185 -7.44433,-2.19678 -10.32714,-4.11797c-1.56494,-1.04291 -3.51579,-1.85898 -4.41757,-3.50927c-1.30375,-2.38592 -1.03269,-9.97087 -1.10262,-12.88147c2.40527,-2.18916 4.90347,-4.27917 7.23036,-6.55145c0.99568,-0.9723 1.56279,-2.52455 2.85173,-3.04932c6.10834,-2.4869 11.29308,1.70528 17.31864,1.46375c1.13557,-0.04552 2.36563,0.27666 3.40445,-0.18422c2.81597,-1.24934 2.81271,-5.68011 5.17541,-7.65702c2.00859,-1.68061 7.76508,-0.59285 9.78847,-0.37551c1.39053,0.14936 3.35195,-0.67372 4.17024,0.46042c1.36537,1.89238 1.40564,4.5874 1.1449,6.90631c-0.45387,4.03657 -5.53535,3.37883 -2.95691,8.25315c0.55366,1.04667 2.37418,0.18936 3.55167,0.06468c3.07904,-0.32603 6.16678,-0.56403 9.25016,-0.84604c1.25038,-0.11436 6.04836,-0.59141 6.66822,-0.4188c1.12053,0.31201 1.71606,1.62909 2.76884,2.12361c1.42209,0.66801 3.07278,0.71565 4.52937,1.30465c1.19736,0.48418 2.09606,1.7567 3.38031,1.89379c1.05446,0.11255 2.00298,-0.71979 2.93842,-1.21931c3.55394,-1.89776 9.27216,-6.38201 13.80044,-4.1743c0.92749,0.45219 0.20508,2.27122 0.99945,2.92977c0.41512,0.34413 0.59811,-0.92592 1.03273,-1.24507c2.04325,-1.50041 6.90825,-4.45883 9.55323,-4.26753c2.03707,0.14734 3.78275,1.55514 5.59698,2.4932c0.61952,0.32032 0.98426,1.12549 1.66798,1.26316c1.09347,0.22016 2.26729,-0.57336 3.33646,-0.25555c0.96897,0.28803 1.37328,1.61607 2.33079,1.94016c0.71605,0.24237 1.48192,-0.31096 2.23315,-0.39535c4.48678,-0.50401 6.05821,-1.28447 9.01188,-4.75599c1.48455,-0.61928 2.84535,-1.82932 4.45363,-1.85786c6.54155,-0.11607 9.61031,5.93319 15.31985,7.31879c2.19682,0.53312 4.49175,-0.51854 6.74294,-0.72444c4.27095,-0.39063 8.5419,-0.78126 12.81285,-1.17189c0.61214,-0.05599 7.75764,-0.77493 8.44423,-0.58124c1.15247,0.32512 1.80469,1.60763 2.85941,2.17459c1.26067,0.67766 2.67034,1.02967 4.01065,1.53329c0.35405,-0.80591 1.12386,-1.4001 2.06249,-1.48595c0.56953,-0.05209 1.11188,0.09115 1.5608,0.37455l4.23512,2.60995l-0.07507,0.12179c0.2894,0.17979 0.56735,0.37886 0.83129,0.60148c0.85775,0.72349 1.32708,7.90774 1.4127,8.84087c0.3013,3.28387 1.76581,8.48694 0.87421,11.64744c-0.32512,1.15247 -1.5989,1.80941 -2.17458,2.8594c-0.85792,1.56477 -0.89022,3.60992 -2.09444,4.92689c-3.66378,4.00681 -4.60051,0.70332 -8.81146,2.34087c-1.02452,0.39841 -1.27056,1.97719 -2.29963,2.36367c-6.65258,2.49838 -13.86337,0.15365 -20.54638,-0.13459c-6.1446,-0.26502 -13.17412,0.97149 -19.04111,2.61532c-4.60885,1.28054 -9.42079,2.14308 -13.9753,3.58111c-2.2409,0.70754 -3.81214,2.82433 -5.97702,3.73842c-1.21067,0.5112 -2.60772,0.33039 -3.9149,0.46578c-2.62128,0.27149 -5.25873,0.9965 -7.87589,0.68793c-4.89409,-0.57702 -9.72611,-2.53234 -14.68972,-2.79874c-1.65376,-0.08875 -3.31056,0.42698 -4.9604,0.2825c-1.67984,-0.1471 -3.25063,-0.96368 -4.92676,-1.14831c-1.69368,-0.18656 -3.42797,0.30472 -5.11162,0.04258c-1.63939,-0.25524 -3.08057,-1.33263 -4.72212,-1.57367c-2.99857,-0.4403 -6.29973,0.40887 -9.05123,-0.86179c-1.01715,-0.46973 -1.68139,-1.49304 -2.61791,-2.10798c-0.90332,-0.59314 -1.77112,-1.15999 -2.61889,-1.72637c-0.01209,0.00908 -0.02432,0.01814 -0.03667,0.02717c-2.01767,1.47615 -3.49382,-0.54153 -3.49382,-0.54153c-1.06695,-1.48528 -2.41442,-2.80479 -3.20082,-4.45584c-0.08402,-0.17639 -0.13667,-0.36553 -0.16918,-0.56253c-0.06661,-0.03539 -0.13689,-0.06458 -0.21158,-0.08633c-0.72584,-0.21128 -1.48877,0.26356 -2.23315,0.39534l-3.6157,-3.21038c0,0 -0.76482,-1.23397 -0.18848,-2.40406z" fill="#9edbe8" stroke-width="0.5"/><path d="M426.27743,234.73577c0.56764,-0.54744 1.11037,-1.13205 1.82424,-1.43098c1.14592,-0.47987 2.46473,-0.31583 3.7002,-0.44615c3.46635,-0.36563 7.147,-0.93322 10.6369,-0.96656c2.16088,-0.02064 4.2563,0.80243 6.41158,0.95933c3.48569,0.25374 4.81732,-1.45474 7.8873,-2.22815c3.79811,-0.95686 5.83959,0.29338 9.29943,0.62143c1.98139,0.18787 3.12262,-2.47064 4.73575,-3.63641c2.51512,-1.81762 2.91481,-1.54931 5.58576,-1.78716c0.79062,-0.44364 5.11793,-2.96067 6.01853,-3.1025c3.68177,-0.57981 4.02767,0.69768 6.89735,2.31919c3.49144,1.97284 6.9364,4.34155 10.04383,6.92913c0.59152,0.49256 0.8808,1.31222 1.52418,1.73479c2.08279,1.36797 4.28692,2.55012 6.51497,3.66598c1.25726,0.62966 2.83527,0.57821 3.98216,1.39172c3.54923,2.51753 3.94397,7.39753 4.87076,11.15489c0.36305,1.47187 1.29392,2.80975 1.4204,4.32045c0.10313,1.23175 -0.53176,2.41477 -0.7547,3.63056c-0.19787,1.07906 0.02413,2.29209 -0.50733,3.25181c-1.83514,3.31396 -6.4209,4.12244 -9.58262,5.49702c-2.22168,0.52748 -4.28582,1.61368 -6.50852,2.13679c-5.1533,1.21283 -11.71532,1.53539 -17.03887,1.58228c-3.37752,0.02975 -6.30901,-1.19224 -9.60652,-1.70119c-4.56795,-0.70504 -8.88272,-1.48172 -13.44995,-1.73052c-9.91488,-0.54013 -19.76452,3.74578 -29.57772,1.28808c-1.27059,-1.29459 -3.03251,-2.24576 -3.81176,-3.88378c-0.78071,-1.64112 -0.21179,-3.64499 -0.61306,-5.41749c-0.23294,-1.02893 -1.00757,-1.87718 -1.26966,-2.89908c-1.02814,-4.00853 -0.83779,-8.7093 -1.20748,-12.84784c-0.04311,-0.4826 -0.11619,-1.0866 -0.179,-1.74636c-0.30824,0.08789 -0.61495,0.17942 -0.9182,0.27932c0,0 -2.38093,0.76236 -3.14328,-1.61857c-0.76236,-2.38093 1.61857,-3.14328 1.61857,-3.14328c0.97477,-0.30115 1.99917,-0.48058 2.96346,-0.80743c0.0678,-0.1121 0.14216,-0.21749 0.22359,-0.31532c0.49342,-0.59277 1.23032,-0.85241 2.00967,-1.05401z" fill="#aef0ff" stroke-width="0.5"/><path d="M321.9206,257.865c-0.02788,-0.30485 -0.13941,-1.52425 -0.16729,-1.8291c0,0 -0.06831,-0.74688 0.67857,-0.81519c0.28478,-0.02605 0.47091,0.06642 0.59221,0.19082c0.04244,-0.01464 0.08648,-0.02938 0.13216,-0.04424c0.53923,-0.17545 1.79233,0.5141 2.45431,0.48635c3.18189,-0.13338 9.50035,-0.47369 7.34825,4.24452l-0.16729,0.25998l0.06944,0.10799c0,0 0.06831,0.74688 -0.67857,0.81519c-0.36444,0.03333 -0.56732,-0.12743 -0.67953,-0.30081c-2.38393,-0.93068 -6.34939,-2.40259 -8.70356,-2.10456c0,0 -0.74688,0.06831 -0.81519,-0.67857c-0.00321,-0.03514 -0.00463,-0.06879 -0.00439,-0.101c-0.03119,-0.07161 -0.05164,-0.14934 -0.05914,-0.23138z" fill="#d3816a" stroke-width="0.5"/><path d="M332.06807,265.01767c-0.27292,0.69858 -0.9715,0.42567 -0.9715,0.42567l-0.15881,-0.07014c-0.98822,-0.24706 -1.99066,-0.02014 -3.01279,-0.06993c0,0 -0.74903,-0.038 -0.71104,-0.78704c0.038,-0.74903 0.78704,-0.71104 0.78704,-0.71104c1.13548,0.06019 2.16042,-0.14246 3.27954,0.10769l0.36188,0.13328c0,0 0.69858,0.27292 0.42567,0.9715z" fill="#d3816a" stroke-width="0.5"/><path d="M448.63673,308.87249c0.47982,-0.57643 1.05625,-0.09661 1.05625,-0.09661l0.88157,0.73465c0.92665,0.67242 2.02898,0.72949 2.94296,1.20626l0.83349,-0.0771l0.00566,0.06125c0.05605,-0.01902 0.1121,-0.03806 0.16815,-0.05708l0.14176,0.11173l0.02644,-0.06766l0.85269,0.33312c0.26358,0.09665 0.46183,0.33802 0.4891,0.63619c0.03591,0.39263 -0.23761,0.74222 -0.61978,0.8075c1.028,2.50743 0.4466,6.04527 0.20762,8.59299c-0.10395,1.1082 -0.07559,2.64233 -1.05698,3.1675c-0.53104,0.28418 -2.20666,-1.27173 -2.72705,-1.44197c-0.76014,-0.24868 -1.59968,-0.00502 -2.39923,-0.02406c-2.14775,0.42902 -0.55431,2.63728 -1.95044,4.09802c-1.0566,1.1055 -3.0216,-0.56304 -3.95029,-0.86285c-0.49511,-0.15983 -1.57555,-0.90596 -1.51135,-0.38967c0.35441,2.85082 -1.78715,8.39925 -0.12113,10.85709c0,0 0.39512,0.63748 -0.24237,1.0326c-0.63748,0.39512 -1.0326,-0.24237 -1.0326,-0.24237c-1.75815,-3.00799 0.21946,-6.49388 0.29773,-9.66091c0.01093,-0.44202 -0.37067,-2.55014 -0.0545,-2.94605c0.96366,-1.20667 3.62923,0.1829 4.54298,0.60674c0.3586,0.16634 0.95884,0.84736 1.08729,0.4735c0.82931,-2.41384 -0.19138,-3.43446 2.73198,-4.45235c0.02991,0.00036 2.87107,0.02152 3.02353,0.07076c0.54719,0.17675 1.04792,0.50575 1.48219,0.88267c0.1666,0.14461 0.22196,0.83487 0.24371,0.61533c0.23788,-2.40196 1.34337,-7.77054 0.02033,-10.03763l-1.17632,-0.63774c-0.02425,-0.01269 -0.04774,-0.02668 -0.07039,-0.04188c-1.03283,-0.20316 -2.03111,-0.69428 -3.09638,-1.42244l-0.92998,-0.77328c0,0 -0.57643,-0.47982 -0.09661,-1.05625z" fill="#70a9cc" stroke-width="0.5"/><path d="M393.52116,251.18516c-0.27292,0.69858 -0.9715,0.42567 -0.9715,0.42567l-0.92833,-0.36581c-0.4182,-0.26261 -0.95913,-0.39215 -1.25459,-0.78782c-2.78972,-3.73596 4.55973,-2.81597 6.88403,-3.25955c2.41883,-0.46163 2.04491,-2.40894 0.08611,-3.68218c-0.10791,-0.07014 -0.2223,-0.12704 -0.34103,-0.17508c-0.09376,0.00446 -0.18136,0.01016 -0.26172,0.01751l-0.78824,-0.30794c-0.27254,-0.07048 -0.53761,-0.15661 -0.77383,-0.30231c0.11925,-0.09177 0.24518,-0.16929 0.37651,-0.23336l1.04894,-0.65014c1.35111,-0.12358 2.87592,-0.02984 4.18182,-0.27c0.3671,-0.06751 -0.75739,-0.06332 -1.0993,-0.21301c-0.73958,-0.32379 -1.27772,-0.98727 -1.91658,-1.4809l1.65796,-1.18552c1.78933,-0.76695 3.57001,-1.35042 5.40692,-1.88698c-0.26244,-0.26033 -0.50027,-0.56757 -0.7051,-0.93672c-1.30816,-2.35758 1.55323,-3.90197 0.69243,-5.97651c0,0 -0.24742,-0.70802 0.4606,-0.95543c0.70802,-0.24742 0.95543,0.4606 0.95543,0.4606c0.17786,0.57764 0.58957,1.13111 0.5336,1.73291c-0.13169,1.41578 -2.18325,2.50133 -1.26815,4.13645c0.25529,0.45616 0.61462,0.79714 1.03387,1.06688c0.18997,-0.02136 0.57671,-0.00887 0.76162,0.39755c1.27188,0.54631 2.7965,0.75723 3.71596,1.48733c0.59099,0.46929 0.4403,1.55031 1.03676,2.01261c2.2225,1.72262 4.42833,3.31025 6.45099,5.3917c0.50748,0.814 1.41135,2.85758 2.243,3.38389c0.50975,0.3226 1.05398,0.66383 1.48873,1.08965l0.20393,-0.07126c0.72751,-1.20152 2.07468,-2.78527 3.23724,-1.89621c1.69333,1.29498 0.92094,4.3469 0.38445,5.66616c-0.17916,0.44059 0.79466,0.52474 1.21135,0.75407l0.61312,-0.08727c0,0 0.74699,-0.06717 0.81415,0.67982c0.06717,0.74699 -0.67982,0.81415 -0.67982,0.81415l-1.05069,0.06233c-3.50478,-1.88377 -1.14021,-3.42211 -2.10417,-6.62778c-0.08861,-0.29466 -0.35263,0.50615 -0.55748,0.73576c-0.37539,0.42077 -0.6443,1.01894 -1.17068,1.22112c-0.05611,0.02155 -0.11278,0.04066 -0.16992,0.05759l0.00774,0.02215l-1.40015,0.48928c-0.06131,0.02294 -0.12665,0.03816 -0.19499,0.04441c-0.41249,0.03773 -0.77747,-0.26608 -0.81519,-0.67857c-0.02727,-0.29816 0.1239,-0.57149 0.36557,-0.71436l0.09182,-0.05691c-1.89413,-0.33377 -2.7402,-2.40656 -3.69884,-3.96304c-1.93818,-1.96856 -4.22505,-3.41974 -6.22981,-5.16385c-0.55923,-0.48652 -0.40788,-1.54233 -1.00249,-1.98492c-1.02204,-0.76076 -2.35001,-1.01206 -3.5573,-1.51809c-2.17186,0.60729 -4.24138,1.2318 -6.32229,2.10882c1.5549,0.22161 3.58423,1.10748 1.47725,2.7809c-0.45423,0.36076 -1.40116,0.47326 -2.38321,0.51029c1.03921,0.84557 1.72076,2.10241 1.38549,3.34893c-0.6977,2.59398 -5.55432,2.2918 -7.60501,2.47936c-0.76556,0.07002 -1.69607,-0.6203 -2.30161,-0.14667c-0.46415,0.36304 1.00371,0.61783 1.51167,0.91651l0.80731,0.31226c0,0 0.69858,0.27292 0.42567,0.9715z" fill="#70a9cc" stroke-width="0.5"/><path d="M483.83198,270.31723c-0.47982,0.57643 -1.05625,0.09661 -1.05625,0.09661l-0.37891,-0.3227c-1.77687,-1.15419 -3.1367,-0.56891 -4.94789,-1.11887c-0.6339,-0.19247 -1.06033,-0.82268 -1.6751,-1.06953c-2.26104,0.11853 -3.23855,-1.18575 -5.19581,-1.62428c-1.06243,-0.23803 -2.71665,0.3117 -3.47549,-1.05931c-0.69728,-1.25981 -0.27853,-4.84563 0.67593,-5.87604c0.69319,-0.74834 1.88041,-0.79138 2.82434,-1.17803c0.22898,-0.0938 0.67052,-0.46425 0.45529,-0.58633c-0.19639,-0.11138 -0.39951,-0.18267 -0.6056,-0.22134c-0.41704,0.38988 -1.25193,0.33446 -1.83955,0.5083c-0.19966,0.05906 -0.39835,0.11035 -0.59618,0.15437c-0.04815,0.02998 -0.09525,0.06013 -0.1412,0.09024c0,0 -0.36876,0.22856 -0.71918,0.05754c-2.12628,0.25982 -4.16764,-0.25267 -6.25185,-0.88557c-1.94486,-0.59057 -4.21269,-2.18002 -6.06105,-2.54669c-0.45585,-0.09043 -0.95977,0.22692 -1.39296,0.05864c-0.26026,-0.10111 -0.12972,-0.62121 -0.37899,-0.747c-0.52801,-0.26645 -0.61379,1.01402 -0.86202,1.55085c-0.49526,1.07108 -1.59858,2.85298 -0.77083,3.64635l0.0001,-0.00012l0.90577,0.75396c0.14752,0.12279 0.2482,0.30187 0.26706,0.50812c0.03773,0.41249 -0.26608,0.77747 -0.67857,0.81519c-0.12545,0.01147 -0.24649,-0.00864 -0.35529,-0.05379l-0.85377,-0.33354l0.05027,-0.12867c-0.65159,-0.11338 -1.25262,-0.28247 -2.0993,-0.47987l-1.28276,-0.30109c0,0 -0.73015,-0.17138 -0.55878,-0.90153c0.17138,-0.73015 0.90153,-0.55878 0.90153,-0.55878l1.28276,0.30109c0.12346,0.02916 0.25121,0.05293 0.38015,0.07444c-0.04138,-0.58177 0.52424,-1.06755 0.68908,-1.63355c0.5188,-1.78145 0.7818,-4.806 3.43,-4.6914c0.34343,0.01486 0.28274,0.71111 0.60268,0.83684c0.34424,0.13528 0.73458,-0.24463 1.09665,-0.16907c1.93079,0.40292 4.12555,1.95747 6.1241,2.56435c1.91496,0.5815 3.54341,1.04605 5.5765,0.83856c0.15039,-0.01535 0.28649,-0.03763 0.41231,-0.06326c-1.31388,-0.37124 -3.17761,-1.22098 -2.9438,-2.44317c0.17743,-0.92748 4.06422,-1.7026 4.82663,-1.84793c0.01045,-0.00199 0.02136,-0.00423 0.03271,-0.00672c-0.62615,-0.08963 -1.15979,-0.58221 -1.60662,-1.17087l-0.01475,0.01333l-1.00047,-1.10742c-0.10804,-0.11702 -0.17982,-0.26923 -0.19545,-0.44009c-0.03773,-0.41249 0.26608,-0.77747 0.67857,-0.81519l1.16182,-0.10626c1.09884,-0.1005 2.90775,0.9457 3.30928,-0.08209c0.06517,-0.16681 -0.49213,-2.96157 -0.52719,-3.35226c-0.24028,-2.67772 -1.32938,-5.67982 -2.38072,-8.16118c-0.68884,-1.62578 -1.9429,-2.84309 -2.13801,-4.64715c0,0 -0.06831,-0.74688 0.67857,-0.81519c0.74688,-0.06831 0.81519,0.67857 0.81519,0.67857c0.10429,1.5519 1.41708,2.76941 2.0164,4.17781c1.11974,2.63143 2.23806,5.7918 2.50234,8.63053c0.07938,0.85261 0.7661,3.71448 0.18629,4.44852c-0.45281,0.57325 -2.55402,0.57133 -3.72473,0.59298c1.64888,0.4818 3.90751,1.25829 2.3128,2.93833c-0.51482,0.54237 -3.69077,1.33852 -4.47862,1.52698c-0.32341,0.07737 -0.76182,-0.37915 -0.98834,-0.13568c-0.34694,0.3729 0.89325,0.49963 1.37317,0.67021c0.55093,0.19582 3.00967,-0.13502 3.50642,0.83637c1.30388,0.09926 2.27145,0.78738 1.68423,2.66796c-0.41557,1.33086 -2.84703,0.94461 -3.53565,1.68939c-0.50684,0.54816 -0.83865,3.291 -0.51487,4.04606c0.29757,0.69394 2.22353,0.33005 2.51576,0.40107c2.04383,0.49671 2.87457,1.6795 5.14213,1.61425c0.67811,0.26092 1.17424,0.91418 1.87208,1.11647c1.90512,0.55227 3.36416,0.04511 5.31416,1.28979l0.52687,0.43126c0,0 0.57643,0.47982 0.09661,1.05625z" fill="#70a9cc" stroke-width="0.5"/><path d="M456.14513,279.01148c-0.06831,-0.74688 0.67857,-0.81519 0.67857,-0.81519l0.82987,-0.0759c0.59764,0.01886 1.29226,-0.27031 1.79294,0.0566c0.60748,0.39665 -0.22974,1.63869 0.27589,2.15898c1.12569,1.1583 2.13034,-0.31303 3.22337,2.01933c1.04009,2.21939 0.97305,4.26096 2.27642,6.239l0.42109,0.16451c0.26358,0.09665 0.46183,0.33802 0.4891,0.63619c0.03773,0.41249 -0.26608,0.77747 -0.67857,0.81519c-0.0887,0.00811 -0.17521,0.00043 -0.25673,-0.02072l-1.03805,-0.24365c-0.22369,0.24059 -0.02933,1.24784 0.07374,1.80728c0.22146,-0.05999 0.56375,-0.06554 0.81108,0.33349c0.09061,0.14619 0.12692,0.27964 0.12906,0.3985c1.43251,0.58326 2.68245,1.34493 3.12996,2.44843c0.48378,1.19297 -1.48747,3.05923 -2.18376,3.50735c-0.48684,0.31332 -2.10936,0.32442 -1.61819,0.63092c0.62014,0.38699 1.42945,0.34989 2.09096,0.66092c1.34747,0.52656 3.91868,1.17253 5.0101,1.98205c1.46853,1.08921 0.51453,2.48754 0.12806,3.77765c-0.70801,2.36345 -2.33429,5.5374 -2.4924,7.98219c-0.08112,1.25431 0.56215,3.57596 1.9317,4.05231c0.79987,0.27821 1.5399,-0.55111 2.0007,-0.24032l1.02776,-0.094v0c0.41249,-0.03773 0.77747,0.26608 0.81519,0.67857c0.01451,0.15865 -0.0215,0.31028 -0.09479,0.43896c1.02328,0.55309 2.17907,1.27042 3.19883,1.49829c1.83611,0.41029 3.63871,-0.32269 5.47718,0.36993c0,0 0.69858,0.27292 0.42567,0.9715c-0.27292,0.69858 -0.9715,0.42567 -0.9715,0.42567c-1.6917,-0.6931 -3.51295,0.08684 -5.25846,-0.3032c-1.38286,-0.30901 -2.99023,-1.38873 -4.27494,-1.99588l-0.03669,-0.04225l-0.00935,0.01414l-0.79883,-0.52809c-2.8296,0.38943 -5.16904,-1.6362 -4.92935,-5.34244c0.22209,-3.43424 2.92903,-6.70476 3.17415,-10.14103c0.03273,-0.45882 -0.84946,-0.35454 -1.28346,-0.50699c-1.21662,-0.42736 -2.42177,-1.14631 -3.63175,-1.6189c-0.46015,-0.21605 -0.94041,-0.39363 -1.38046,-0.64813c-0.55052,-0.31838 -1.45774,-0.44194 -1.58259,-1.06552c-0.31443,-1.57052 4.52954,-2.81857 3.81364,-4.08956c-0.41582,-0.73823 -1.53617,-1.28268 -2.79347,-1.71943c-0.82461,0.53821 -1.50348,1.02987 -2.46917,1.52072c-0.51503,0.26178 -1.77692,0.22004 -1.5599,0.75548c0.42625,1.05168 4.31665,4.17352 0.71457,5.22147c-1.69867,0.49419 -2.67072,-1.36738 -3.99369,-1.78823c-1.77725,-0.56537 -4.02216,-1.25715 -5.87418,-1.0595c-2.46945,0.20435 -4.8604,-0.91553 -7.23437,-1.469l-0.02806,-1.66287c0,0 0.47982,-0.57643 1.05625,-0.09661c0.22284,0.18549 0.28782,0.38543 0.2837,0.56091c1.8852,0.55966 3.87626,1.36966 5.78587,1.1738c2.09312,-0.16615 4.54616,0.47337 6.54553,1.15181c0.99059,0.33614 1.91448,1.77132 3.02478,1.7539c0.39523,-0.0062 0.32238,-0.82073 0.14975,-1.17632c-0.23908,-0.4925 -1.91853,-2.285 -1.92984,-2.57897c-0.07715,-2.00476 2.9762,-2.04678 3.98352,-2.68038c0.03764,-0.02368 0.07433,-0.04859 0.11021,-0.07458c-1.05841,-0.3045 -2.0657,-0.55738 -2.7013,-0.80727l-1.23143,-0.28709c0,0 -0.73015,-0.17138 -0.55878,-0.90153c0.17138,-0.73015 0.90153,-0.55878 0.90153,-0.55878l1.33408,0.31507c0.62588,0.24313 1.46473,0.48081 2.36606,0.75272c-0.15999,-1.33368 -0.32305,-1.93953 0.60887,-2.75079c-0.99081,-1.38577 -1.43524,-5.09125 -1.78511,-5.98323c-0.64815,-1.65242 -1.95295,-0.4424 -2.96522,-1.59871c-1.18484,-1.35344 0.71874,-2.32597 -0.80029,-1.70607l-0.82987,0.0759c0,0 -0.74688,0.06831 -0.81519,-0.67857z" fill="#70a9cc" stroke-width="0.5"/><path d="M423.4574,271.12264c0.06831,0.74688 -0.67857,0.81519 -0.67857,0.81519l-0.75617,-0.01035c-2.33747,-0.91318 -4.05008,-1.43241 -6.51996,-1.52867c-0.26174,1.84952 -0.69238,3.54225 -0.83124,5.41687c-0.04932,0.66582 -0.1671,2.67217 -0.40029,2.99789c-0.52289,0.73038 -4.54595,0.61118 -5.44579,0.67657c-0.47523,0.03453 -1.33393,-0.16434 -1.39584,0.30811c-0.23179,1.76896 0.43242,3.64434 0.14834,5.51161c0,0 -0.11487,0.74115 -0.85603,0.62628c-0.74115,-0.11487 -0.62628,-0.85603 -0.62628,-0.85603c0.31321,-1.98014 -1.01513,-5.91688 1.127,-6.91479c1.06872,-0.49786 3.19084,-0.32669 4.37073,-0.4346c0.5339,-0.04883 1.45568,0.54541 1.60809,0.0314c0.82446,-2.78036 0.02881,-5.71421 1.39978,-8.56214c3.12586,-0.50197 5.07318,0.19968 7.96733,1.33035l0.07371,-0.08625c0,0 0.74688,-0.06831 0.81519,0.67857z" fill="#70a9cc" stroke-width="0.5"/></g></g></svg>