<svg version="1.1" xmlns="http://www.w3.org/2000/svg" xmlns:xlink="http://www.w3.org/1999/xlink" width="574.09955" height="456.73779" viewBox="0,0,574.09955,456.73779"><g transform="translate(59.79108,49.7669)"><g data-paper-data="{&quot;isPaintingLayer&quot;:true}" fill-rule="nonzero" stroke-linejoin="miter" stroke-miterlimit="10" stroke-dasharray="" stroke-dashoffset="0" style="mix-blend-mode: normal"><path d="M470.26729,44.8984c-0.18862,-0.18298 -0.31125,-0.3659 -0.38519,-0.54318c-1.25012,-0.59137 -2.44472,-1.22205 -3.39262,-1.98289c-0.24668,-0.19799 -3.53614,-4.46003 -3.88003,-4.8747c-0.82034,-0.98915 -2.40028,-1.65587 -2.52221,-2.91893c-0.12503,-1.29529 1.20432,-2.3297 1.90863,-3.43759c0.64601,-1.01619 1.09988,-2.27478 2.13478,-2.92277c0.96975,-0.6072 2.31117,-0.23155 3.41714,-0.55351c0.98847,-0.28776 1.80405,-1.03599 2.81013,-1.25935c0.78692,-0.1747 1.77731,0.57142 2.4199,0.09822c0.53358,-0.39293 0.07451,-1.29635 0.08833,-1.94527c0.01996,-0.9379 0.01074,-1.87618 0.01297,-2.81428c0.01007,-4.24446 -0.03039,-8.44373 0.27848,-12.67993c1.78876,-0.75544 3.65985,-1.38799 5.575,-1.76897c-2.45733,-0.8765 -5.0062,-2.43971 -6.77255,-3.72238c-1.28516,-0.93324 -2.34875,-2.47076 -3.93951,-2.68783c-5.18028,-0.70686 -9.65585,0.93807 -14.63058,1.44384c-1.26135,0.12824 -2.61114,0.3731 -3.80462,-0.04239c-1.04507,-0.36383 -1.68366,-1.40414 -2.48601,-2.14758c-0.32236,-0.2987 -0.76166,-1.38985 -0.88299,-0.9741c-0.17365,0.59506 0.61037,1.12535 0.65893,1.74191c0.09794,1.24369 0.49966,2.70582 -0.22756,3.73541c-2.97493,4.21189 -10.11916,1.08273 -13.03139,-1.15404c-1.38265,-1.33698 -2.48507,-3.00243 -4.12169,-4.03622c-0.16189,-0.10226 -4.08193,-1.48132 -4.54638,-1.30767c-0.72818,0.27225 -0.92456,1.21927 -1.42679,1.79781c-2.25349,2.59589 -6.14278,8.22873 -10.09387,8.28756c-4.5514,0.06776 -6.92407,-5.51573 -10.20581,-7.55797c-2.46214,-1.53221 -5.6712,-2.18264 -8.25488,-3.66111c-1.54398,-0.88352 -3.27778,-1.51558 -5.04535,-1.80974c-0.69586,-0.11581 -1.49521,-0.73942 -2.08472,-0.36319c-0.6481,0.41363 -0.36161,1.47574 -0.71041,2.14713c-0.47586,0.91599 -1.16105,1.71511 -1.74157,2.57267c-1.58958,2.28135 -2.07224,4.588 -2.42983,7.33946c-0.13633,1.04891 -0.14098,6.04207 -0.65029,6.65326c-0.8292,0.99506 -2.47008,0.91214 -3.73598,1.2762c-1.16442,0.33488 -2.34008,0.96764 -3.54488,0.81777c-2.04705,-0.25466 -6.9272,-3.4227 -8.61022,-4.67491c-1.52916,-1.13774 -2.35191,-3.10168 -4.03355,-4.01575c-2.35551,-1.28037 -2.18057,0.88365 -3.95328,1.7197c-1.1651,0.54949 -2.49281,0.90484 -3.78755,0.84988c-0.57504,-0.02441 -5.24327,-1.95012 -6.02761,-2.1665c-4.06054,-1.12017 -7.4899,-2.67569 -11.29122,-4.53312c-2.42301,-0.51009 -5.09179,-0.10254 -7.4167,0.87779c-0.98771,0.41648 -3.96775,2.80566 -4.95285,3.0693c-2.5752,0.68919 -6.6304,-1.00752 -9.0182,-0.05128c-0.76225,0.30526 -1.0962,1.1942 -1.6677,1.77009c-2.23384,2.25097 -4.40726,5.08963 -7.79234,5.71553c-4.42737,0.81862 -5.79621,-1.71435 -9.08093,-3.75227c-2.60683,-1.61734 -5.6211,-2.23124 -8.22012,-3.63844c-0.88263,-0.47789 -1.38185,-1.47653 -2.26403,-1.95519c-1.24241,-0.67411 -4.06646,-0.75641 -5.35341,-0.86442c-1.12981,-0.0404 -3.80032,-0.41322 -4.90572,0.50496c-1.40224,1.16473 -3.40812,5.43673 -4.11602,7.1099c-1.14379,2.70345 -0.59794,6.90733 -3.96017,8.41021c-1.1216,0.50134 -2.46795,0.13479 -3.70331,0.13933c-1.21393,0.00447 -2.51822,0.33694 -3.63997,-0.11232c-1.75878,-0.7044 -6.08918,-5.23637 -7.16505,-6.80875c-0.44132,-0.64498 -0.08406,-1.76934 -0.74327,-2.20662c-0.61358,-0.40701 -1.47429,0.20858 -2.21724,0.24278c-2.35763,0.10854 -7.61741,0.74136 -9.75116,-0.11204c-2.17872,-0.8714 -4.80725,-4.48263 -6.51558,-6.14648c-0.49823,-0.43597 -0.82538,-1.36136 -1.49468,-1.30792c-0.75491,0.06026 -0.87263,1.3759 -1.60703,1.55552c-1.39875,0.3421 -3.03974,0.52692 -4.32672,-0.10425c-2.41253,-1.18318 -3.03053,-5.86113 -4.91922,-7.64531c-1.36986,-1.29406 -3.30579,-1.86847 -4.94676,-2.82213c-0.78535,-0.45641 -1.62877,-0.83023 -2.35575,-1.36973c-0.49271,-0.36564 -0.68193,-1.51616 -1.26874,-1.32c-0.53728,0.1796 0.41257,1.03938 0.47059,1.58682c0.10107,0.95362 0.002,1.91726 0.00239,2.87589c0.00121,2.95214 0.98404,7.66467 -2.02149,9.78146c-0.97763,0.68854 -5.67947,0.58038 -6.96076,0.58466c-3.92848,0.01311 -7.63142,-0.75813 -10.9751,1.33186c-4.87296,2.90179 -10.27556,5.7412 -14.06888,10.00959c-1.7479,1.96681 -2.04659,4.56273 -5.82988,4.19597c-1.29014,-0.12507 -2.09122,-1.48585 -3.10367,-2.27005c-2.3467,-1.81766 -4.95287,-3.9749 -6.89283,-6.20129c-1.92382,-2.20787 -3.07183,-5.17261 -5.1035,-7.27917c-1.90909,-1.97945 -6.57326,-4.93852 -9.32563,-5.59542c-2.10813,-0.50313 -4.34089,-0.1482 -6.5061,-0.30481c-2.01857,-3.4781 -2.33706,-2.45511 -5.20495,-0.1537c-1.48324,1.19025 -3.30818,2.04612 -4.49933,3.51205c-1.66471,2.04873 -2.54877,5.40349 -3.78789,7.7282c-0.58364,1.09496 -0.78096,2.54633 -1.82971,3.24437c-2.67513,1.78054 -7.89178,0.43206 -10.40677,-0.73942c-0.7603,-0.35414 -1.38809,-1.05143 -2.22244,-1.17282c-2.62407,-0.38175 -1.99582,1.99482 -3.81975,2.99583c-6.49775,3.5661 -13.07522,-2.45071 -17.20484,-6.35139c-4.17593,-0.45742 -0.88234,3.48826 -4.61583,5.11409c-1.32556,0.57725 -2.97348,0.02263 -4.33261,-0.4761c-4.65153,-1.70692 -7.00183,-7.11943 -12.03899,-8.47293c-1.35567,-0.36427 -3.29369,-0.98225 -4.64317,0.02876c-4.68411,3.50926 -3.36189,11.03133 -5.92546,15.70622c-0.6178,1.12661 -0.79669,2.74086 -1.97266,3.31597c-1.27848,0.62525 -2.91373,0.13385 -4.28899,-0.25369c-0.18255,-0.05144 -4.91364,-3.05204 -5.30422,-3.29859c-0.29908,-0.14448 -5.4387,-2.62172 -5.5718,-2.71028c-2.48255,-1.65186 -4.12389,-4.52129 -6.61336,-6.09985c-2.76366,-1.75242 -5.48063,-2.09638 -8.13795,-4.26504c-1.47648,-1.20497 -2.69555,-2.76732 -4.39651,-3.6524c-1.70096,-0.88509 -3.73992,-0.94411 -5.57209,-1.53472c-0.72727,-0.23445 -1.38421,-0.92278 -2.14188,-0.8103c-2.2665,0.3365 -1.50942,5.70755 -1.83745,6.83411c-0.35524,1.22005 -0.67269,2.60487 -1.64584,3.45286c-3.96356,3.4538 -8.96376,0.1202 -11.52573,-2.92059c-0.69425,1.84873 -1.13022,3.91206 -3.63093,4.60168c-1.23603,0.34086 -2.51502,-0.51671 -3.76089,-0.82213c-3.98034,-0.97573 -7.80153,-2.56665 -11.63617,-3.96938c-0.88619,-0.32417 -1.78091,-0.62785 -2.65582,-0.97959c-0.52946,-0.21286 -1.09428,-1.04426 -1.55427,-0.71298c-0.40621,0.29255 0.54243,0.83371 0.88277,1.1966c0.61921,0.66022 1.38621,1.18357 1.98504,1.86116c0.23676,0.26791 3.78549,5.08683 3.84939,5.26067c0.89017,2.42164 0.54699,6.78181 0.4772,9.35373c-0.02064,0.7605 -0.53064,1.59921 -0.17216,2.2762c0.34418,0.64997 1.29784,0.74557 1.95879,1.09773c1.50812,0.80356 4.92017,2.22134 5.64392,3.88568c0.57193,1.3152 0.03415,2.85383 0.05122,4.28074c-1.29897,0.94955 -2.59053,1.90881 -3.87223,2.88018c2.24838,0.8895 5.02261,2.70629 6.60327,3.49779c1.06718,0.53439 2.43509,0.7303 3.17989,1.64305c0.92297,1.13111 1.80813,2.6697 1.48798,4.07748c-0.31693,1.39362 -1.81692,2.35653 -3.10781,3.04527c-0.90157,0.48102 -2.06433,0.07556 -3.077,0.25456c-0.38252,0.06762 -1.11803,0.10436 -1.05772,0.47627c0.09824,0.60586 0.8868,0.8763 1.34561,1.29914c2.1694,1.99928 4.39712,3.94445 6.59069,5.91905c5.42957,4.88763 10.41982,10.521 14.70895,16.3696c-4.912,2.39084 -8.03279,2.86023 -13.43714,2.86134c-2.03741,0.00042 -4.09726,0.29199 -6.11222,0.00001c-0.62655,-0.09079 -1.24769,-1.06026 -1.75869,-0.69769c-0.45061,0.31972 0.89437,0.65187 1.30204,1.0217c0.68572,0.62207 1.32754,1.28834 1.97312,1.94944c0.81909,0.83879 1.93237,1.4965 2.42034,2.54972c0.83945,1.81185 -0.21438,4.06875 0.4729,5.93974c0.44408,1.20891 2.56175,2.14567 2.0188,3.31614c-0.60911,1.31309 -2.77721,1.04484 -4.21378,1.41572c-2.95298,0.76237 -6.28602,0.65951 -9.31708,0.715c-0.86737,0.01588 -1.73878,-0.09184 -2.60255,-0.01373c-0.3665,0.03314 -1.13684,-0.00167 -1.04571,0.34362c0.18093,0.68551 1.15367,0.91158 1.53613,1.51449c0.55881,0.8809 0.82592,1.90665 1.23888,2.85996c1.92951,4.48218 3.42905,8.83891 6.51025,12.58488c0.92114,1.11988 2.91886,2.14837 2.52811,3.52909c-0.36839,1.30174 -2.39035,1.30093 -3.78313,1.7162c3.8106,4.02288 9.14206,8.33127 11.29253,13.24648c0.56322,1.28732 2.06668,2.70349 1.4309,3.95874c-0.4183,0.82586 -5.59778,1.58474 -6.82893,1.79655c-2.08258,0.00383 -4.18833,0.30577 -6.24774,0.00586c-0.62628,-0.09121 -1.42338,-1.22224 -1.75666,-0.70085c-0.33328,0.5214 1.06598,0.70874 1.43157,1.20943c0.54742,0.7497 0.7189,1.71476 1.25612,2.47136c2.21187,3.11518 5.15839,6.02346 7.57991,9.02718l2.09115,2.07022c0.26998,0.2668 0.43643,0.63218 0.43643,1.03519c0,0.76832 -0.60498,1.39983 -1.37888,1.47238l-3.01938,0.32198l-0.01608,-0.14139c-1.98173,0.44019 -3.97684,0.73273 -6.11009,0.79384c-0.74828,0.02144 -1.64089,-0.61247 -2.23847,-0.17591c-0.58408,0.42669 -0.19934,1.40705 -0.38483,2.09233c-0.53828,1.98868 -1.24603,5.36333 0.18739,7.32036c1.1644,1.58975 3.61603,1.99157 4.76491,3.59187c2.72831,3.80035 0.41831,5.24477 0.31017,9.22482c-0.10496,3.86303 0.74025,7.22474 2.45503,10.714c0.66938,1.36208 2.77799,4.95522 1.87909,6.58999c-0.67562,1.22872 -2.48139,1.40672 -3.72209,2.11009c-0.91507,0.00967 -1.92113,-0.35625 -2.74522,0.029c-0.73003,0.34128 -0.92112,1.29261 -1.41428,1.91553c-2.07823,2.62506 -2.28186,4.35009 -3.44731,7.37887c-0.22857,0.59403 -1.34096,1.11207 -0.98604,1.64477c0.33697,0.50577 1.20087,-0.342 1.82031,-0.39262c1.00409,-0.08203 6.6943,0.00675 7.13342,0.43118c0.98154,0.94872 0.37374,2.66377 0.45473,4.00428c0.20327,3.36465 -0.91838,5.91539 -2.00963,9.04198c-0.35664,1.02183 -0.48592,2.15033 -1.08213,3.06145c-0.32187,0.49187 -1.8145,0.41584 -1.52855,0.9281c0.4064,0.72802 1.93437,0.06779 2.45206,0.72628c0.75333,0.95822 0.6089,2.3355 0.87917,3.51094c1.05382,4.58315 0.9363,7.49539 -0.13798,12.04451c-0.03903,1.91532 0.13897,3.84302 -0.08424,5.74649c-0.07416,0.63235 -1.02773,1.41801 -0.53381,1.83796c0.49462,0.42055 1.17871,-0.59546 1.81843,-0.74572c0.87406,-0.20529 1.78443,-0.21749 2.67805,-0.31879l2.45133,-1.32554c0.22591,-0.12767 0.48871,-0.20082 0.76915,-0.20082c0.84388,0 1.52797,0.66232 1.52797,1.47934c0,0.39701 -0.16154,0.7575 -0.42445,1.02322l-2.10814,2.13846c-0.44203,0.63614 -1.4304,0.87444 -1.71782,1.58885c-0.67083,1.66739 0.1096,3.57778 0.1096,5.36719c0,4.6246 1.05033,10.64398 -0.04063,15.13225c-0.87451,3.5978 -3.86689,7.59619 -5.57888,10.91192c-0.45549,0.88217 -0.85939,1.79114 -1.36659,2.64646c-0.35978,0.60672 -1.32774,1.03646 -1.22827,1.7294c0.09148,0.63735 1.13663,0.6791 1.6351,1.10473c1.23027,1.05048 2.66694,2.0864 4.28608,2.34107c1.27292,0.20021 2.87194,-0.32793 3.83366,0.5039c1.01907,0.88144 0.76842,2.53929 1.15263,3.80895c0.43384,5.85133 -1.19811,12.83678 -4.13055,18.05162c-0.48303,0.85899 -1.18806,1.58599 -1.85799,2.31803c-0.39176,0.42808 -1.55846,0.6284 -1.3155,1.14974c0.23376,0.50161 1.07078,-0.44078 1.63899,-0.45561c1.30741,-0.03412 2.88561,-0.47586 3.91049,0.31078c1.96614,1.5091 2.07531,7.68435 2.09599,9.8537c0.07597,7.96759 0.05166,15.93969 0.00639,23.90746c-0.30296,0.89099 -0.60591,1.78196 -0.90888,2.67295c1.08753,-0.42072 2.2689,-0.4551 3.53162,0.70584c0.94634,0.87007 0.16878,2.52987 0.43241,3.76734c0.60597,2.84443 1.21227,5.19157 2.80502,7.59119c0.36451,0.54917 0.38199,1.42678 0.99079,1.70735c0.70708,0.32587 1.55995,-0.1463 2.34263,-0.1711c1.0181,-0.03227 2.04128,-0.08715 3.05595,0c0.67282,0.05779 1.54287,0.93357 1.97659,0.43224c0.50547,-0.58426 -0.54968,-1.50472 -0.40121,-2.25318c0.17967,-0.90569 1.23267,-1.52993 1.3336,-2.44698c0.09298,-0.84489 -0.66033,-1.59012 -0.79692,-2.42943c-0.59084,-3.63051 -0.96383,-4.73708 3.16063,-6.31356c4.25888,-1.62786 6.4132,1.20517 9.44802,3.12564c0.98427,0.62286 4.4174,1.6587 5.42141,1.98561c0.81154,0.36678 1.55092,0.95931 2.4346,1.10034c4.03453,0.64389 5.44726,-5.30586 9.00374,-6.40108c1.89925,-0.58488 4.10451,0.63642 5.979,-0.01907c1.77998,-0.62245 1.43009,-4.12447 3.28612,-4.48257c1.80321,-0.34791 8.16844,4.68775 8.96166,6.22126c0.35817,0.69244 -0.66751,1.65645 -0.24087,2.31152c0.28024,0.43029 0.65505,-0.79636 0.9562,-1.2132c1.10129,-1.52441 2.14,-3.09039 3.22656,-4.62466c3.03068,-4.27944 4.81038,-9.18937 8.40713,-12.97102c0.76984,-0.16644 6.56653,-1.51185 7.26567,-1.27029c1.20806,0.41742 1.76186,1.80612 2.60693,2.74035c2.59116,2.86454 5.84771,6.16597 7.71546,9.52696c0.41688,0.75017 0.25523,1.7698 0.80729,2.43312c1.08901,1.30846 2.72748,0.29664 3.60082,-0.42343c1.88999,-1.55827 2.43415,-3.90376 5.58035,-4.00184c1.26924,-0.03957 2.30132,1.04125 3.43391,1.59731c3.51881,1.72762 7.35761,2.95033 10.81894,4.75989c0.96284,0.50336 1.8958,1.07517 2.74409,1.74439c0.58396,0.46069 0.76897,1.55903 1.51967,1.61932c0.72065,0.05787 1.06169,-0.95627 1.6489,-1.36486c0.73824,-0.51369 1.54415,-0.92944 2.31624,-1.39415c2.83824,-4.43674 5.36543,-11.93283 9.83699,-14.9368c1.17083,-0.78655 2.42192,-2.05586 3.82948,-1.84021c1.3254,0.20307 1.83305,1.89787 2.74822,2.84802c0.17527,0.18197 4.08229,4.24155 4.16993,4.36463c1.88593,2.64847 0.9781,5.00803 4.63478,5.223c2.96805,0.17448 8.48491,1.02528 11.13872,-0.58976c3.25813,-1.98281 3.3577,-5.27653 8.13925,-5.07318c1.2531,0.0533 2.38444,0.75466 3.57667,1.13199c3.3556,2.78789 6.11386,5.5108 8.8587,8.86757c0.85234,1.04236 1.79151,2.76393 3.42805,2.97473c2.80824,0.36173 1.00201,-2.30774 2.09405,-3.48172c1.50159,-1.61428 8.49903,-2.85254 10.59235,-2.17823c2.63413,0.84853 4.82946,4.72442 7.02573,6.30643c1.21129,0.87251 3.05338,0.66252 4.51808,0.30807c4.35521,-1.05395 7.69251,-4.99779 10.16319,-8.6002c0.64914,-0.72679 4.3131,-4.98424 5.04991,-5.04621c1.43667,-0.12082 2.59785,1.27165 3.69688,2.1756c2.99812,2.46597 5.28645,6.99102 6.85162,10.4084c0.42565,0.92937 0.78375,1.88852 1.09963,2.85807c0.22106,0.67849 -0.09376,1.66876 0.50817,2.07685c0.60193,0.40808 1.455,-0.22919 2.18958,-0.24789c0.82365,-0.02096 1.70532,0.43075 2.46818,0.12936c2.39202,-0.94506 3.60829,-4.94643 6.13279,-5.9205c0.9462,-0.36509 2.11392,0.37566 3.05573,0.00009c0.89244,-0.35588 1.14821,-1.59542 2.00828,-2.01949c4.97845,-2.45475 11.51191,1.81936 15.44451,4.55667c1.61018,0.84682 3.03766,2.15464 4.82312,2.55363c0.63417,0.14171 1.41762,0.1218 1.93365,-0.2622c1.39577,-1.03865 1.6067,-3.06165 2.71547,-4.3855c0.70525,-0.84205 3.00223,-2.87167 4.02616,-3.78933l0.20919,-2.52511c0.05552,-0.76812 0.71671,-1.37455 1.5242,-1.37455c0.84028,0 1.52215,0.6567 1.52793,1.46891l0.01478,1.77328c0.46505,-0.06151 1.03619,-0.52664 1.53565,-0.55124c0.75391,-0.03712 1.61086,0.60461 2.25316,0.22063c0.6423,-0.38399 0.49583,-1.38267 0.80552,-2.04919c0.43,-0.92545 0.88779,-1.84131 1.41078,-2.72075c1.8923,-3.18209 4.13598,-6.90753 6.58428,-9.71303c1.35314,-1.55057 3.40236,-3.68001 5.85732,-3.50527c2.44471,0.17401 4.34266,2.3058 5.9246,3.77591c0.44243,0.41115 4.44912,4.18739 4.63733,4.53192c0.97045,1.77646 0.35469,4.07537 1.17862,5.91989c0.98717,2.20997 3.19772,4.07806 5.18468,5.34566c2.83692,1.05679 6.54348,4.97113 9.82653,4.10075c3.43327,-0.9102 6.89851,-4.04948 9.5201,-6.17006c2.33868,-1.89174 5.12728,-3.46643 7.63043,-5.15199c2.44595,-1.64703 6.55289,-4.95818 9.90691,-3.26128c0.47486,0.24024 3.1103,5.06351 3.51526,5.78549c2.41645,4.30822 5.18115,8.42488 7.84363,12.59428c2.13565,3.35667 3.5601,6.922 5.67301,10.26055c0.35243,0.55687 0.18738,1.55893 0.81738,1.79236c0.47085,0.17446 0.7637,-0.68403 0.95465,-1.13577c1.13711,-2.69022 2.11707,-5.19557 3.46346,-7.8089c2.24863,-4.36455 6.80912,-7.86474 10.30584,-11.25014c0.46124,-0.44656 4.48346,-4.38756 4.83289,-4.51096c1.28196,-0.45276 2.78525,-0.34576 4.09367,0.02941c3.75593,1.07697 6.04637,5.98444 7.80212,9.01716c1.67112,-0.1232 3.26802,-0.72164 4.90426,-1.07286c1.94087,-0.41662 4.05163,0.0999 5.94199,-0.49589c1.67629,-0.52833 2.94841,-1.8718 4.42394,-2.80571c4.25861,-2.69542 7.59535,-6.44272 11.7148,-9.33483c3.05267,-2.14317 6.82352,-7.68655 11.28433,-5.52283c1.13658,0.5513 1.44484,2.02606 2.1304,3.06253c2.03043,3.06974 3.58436,6.21483 4.93085,9.51773c0.64063,-1.81094 2.4312,-3.13189 3.40954,-4.82589c1.1748,-2.03416 1.75612,-4.31286 2.88517,-6.4322c-0.00844,-0.06298 -0.0128,-0.1272 -0.0128,-0.19241c0,-0.32739 0.10985,-0.62994 0.29581,-0.87499l1.76847,-2.39191l0.24533,0.17003c0.5589,-1.01433 1.14441,-1.99638 1.75322,-3.02515c0.21297,-0.70126 0.42955,-1.28101 0.62152,-1.53006c0.0299,-0.03879 0.06093,-0.07639 0.093,-0.1129c-0.71228,-0.48613 -1.32874,-1.01846 -1.72852,-1.56302c-3.37267,-4.59412 -1.84497,-13.1229 -1.845,-18.40015c0.15054,-3.48206 -1.4409,-3.70251 -3.77278,-6.21289c-0.80819,-0.87005 -2.22713,-1.52614 -2.32675,-2.6923c-0.31935,-3.73838 2.43775,-4.03138 4.63257,-5.55332c1.61852,-1.12232 5.02919,-3.7025 5.92955,-5.40392c1.98271,-3.74678 -3.87537,-4.58563 0.38289,-8.92292c0.66747,-0.67986 2.21186,0.18436 2.85737,-0.5151c0.70375,-0.76258 -0.35007,-2.34433 0.4238,-3.04033c0.73248,-0.65878 2.21371,0.5609 2.99903,-0.03812c0.53329,-0.40678 -0.37166,-1.27402 -0.41916,-1.92972c-0.07936,-1.09553 -0.21253,-2.22393 0.04074,-3.29443c0.23013,-0.97275 0.97955,-1.76014 1.37328,-2.6824c0.22127,-0.51831 0.90883,-1.26211 0.46406,-1.62142c-0.5914,-0.47777 -1.57115,0.35441 -2.30663,0.1329c-1.29339,-0.38954 -2.37241,-1.26626 -3.55862,-1.8994c-0.03727,-0.90551 0.56011,-2.0856 -0.11181,-2.71653c-0.80243,-0.75348 -3.00945,0.54161 -3.31354,-0.49984c-0.46381,-1.58837 0.56643,-3.5062 1.81582,-4.62929c1.05709,-0.95023 5.18683,-0.14806 6.59457,-0.47683c3.84048,-0.89691 5.62675,-2.94255 5.07871,-6.84592c-0.90237,-6.42701 -8.64871,-10.62749 -13.17719,-14.31471c-0.73062,-0.59489 -1.21867,-1.45545 -2.00419,-1.98067c-0.8623,-0.57656 -2.3197,-0.39882 -2.8572,-1.26978c-1.77069,-2.86918 0.16427,-7.87094 1.45678,-10.37105c2.64064,-1.87464 5.03598,-3.5465 7.96517,-4.96712c0.91076,-0.44171 1.7958,-0.93749 2.73332,-1.32316c0.65764,-0.27054 1.72994,-0.01644 2.03913,-0.64012c0.30919,-0.62369 -0.56633,-1.27472 -0.75969,-1.94071c-0.27565,-0.94943 -0.43835,-1.92632 -0.64349,-2.89234c-1.19341,-5.61959 -8.25913,-10.43816 -12.38798,-14.48911l-2.53636,-1.22781c-0.51683,-0.23721 -0.87426,-0.74694 -0.87426,-1.33749c0,-0.80483 0.66384,-1.45954 1.49031,-1.47889l3.04946,-0.083c0.7134,-0.1278 1.52383,0.35331 2.17602,0.0456c0.87359,-0.41216 1.17588,-1.57471 2.02709,-2.02864c1.75066,-0.93357 3.85634,-1.14896 5.57511,-2.13654c1.58421,-0.91026 3.82361,-1.01514 4.91039,-2.45529c0.50649,-0.67118 0.08129,-1.67782 0.33167,-2.47292c0.2878,-0.91389 1.01675,-1.66707 1.26339,-2.59216c0.10069,-0.37768 0.20488,-5.3472 0.20957,-5.57814c0.07084,-3.49347 0.42572,-7.23693 -2.5233,-9.91623c-2.24581,-2.04041 -5.3667,-1.69856 -7.92813,-2.49636c-1.08617,-0.3383 -1.96455,-1.12406 -2.94681,-1.6861l-2.58688,-1.52459c-0.45282,-0.25674 -0.75695,-0.73272 -0.75695,-1.27746c0,-0.8154 0.68139,-1.47671 1.52296,-1.47933l2.14287,-0.00779c3.1004,-1.04776 6.24823,-2.28097 9.33281,-2.79695c1.20535,-0.20162 3.38479,0.90952 3.47683,-1.34351c0.08995,-2.20145 -3.44509,-4.53566 -4.69123,-5.97153c-0.88157,-1.01581 -2.60936,-1.79991 -2.54596,-3.12528c0.20242,-4.23104 3.67064,-3.10152 5.92205,-4.16988c0.84307,-0.40006 1.39282,-1.22576 2.15779,-1.7528c1.28109,-0.88262 3.88863,-1.19623 3.79246,-2.71568c-0.04423,-0.69875 -1.04833,-0.96943 -1.5071,-1.51055c-2.64663,-3.12174 -4.32094,-5.92745 -7.86658,-8.20751c-4.0261,-2.60684 -12.4801,-5.66166 -10.11312,-11.87725c0.12407,-0.3258 4.71692,-4.83145 5.06418,-4.98934c0.79007,-0.35922 1.89053,0.50325 2.61831,0.0367c0.46878,-0.30052 0.02545,-1.10642 -0.13659,-1.62767c-1.24911,-4.01825 -12.61803,-7.1606 -5.69823,-12.95808c0.87259,-0.73106 2.32951,-0.1764 3.41305,-0.56066c1.93188,-0.68512 2.84324,-2.48849 4.89138,-3.01572c0.83859,-0.21587 1.84591,0.64584 2.59334,0.21906c0.57564,-0.32868 0.28152,-1.26664 0.3655,-1.90852c0.22796,-1.74248 0.33841,-3.49795 0.55823,-5.24142c-0.60416,-0.85762 -3.25894,-4.41694 -3.06034,-5.24229c0.31118,-1.29316 1.98284,-1.83739 3.03118,-2.69344c1.51483,-1.23699 3.06852,-2.42868 4.60514,-3.64021c0.48657,-0.38363 1.41382,-0.45627 1.53733,-1.05191c0.29477,-1.42166 -4.62555,-3.8849 -5.47859,-4.45854c-1.58089,-1.06311 -3.52925,-1.48985 -5.27185,-2.28134c-0.48994,-0.22253 -4.54451,-3.10407 -5.1534,-3.45645c-0.67626,-0.39136 -5.60324,-2.6194 -5.86477,-3.0211c-4.24003,-6.51288 5.22034,-6.78872 9.29722,-7.04308c0.88933,-0.05549 1.82513,0.13767 2.66976,-0.13756c0.84462,-0.27523 1.4749,-0.96888 2.21235,-1.45332c3.67706,-1.22583 -2.89988,-3.76005 -4.37567,-4.65965c-0.85571,-0.52161 -1.84016,-0.99045 -2.8531,-1.45415c-0.41357,0.16122 -0.99783,0.2067 -1.58144,-0.35947zM511.35051,34.9007c-0.54967,1.91007 -1.07606,3.82308 -1.32045,5.7607c-1.0815,8.57419 -0.23767,17.82081 -0.35729,26.46617c-0.28641,20.69889 -0.08757,41.41106 -0.0878,62.11183c-0.00013,12.90742 -2.20297,25.54276 -2.85287,38.40599c-0.39561,7.83031 -0.0689,15.76253 -0.10392,23.6033c-0.09263,20.73442 -0.77601,41.42828 -1.46027,62.15169c-0.68334,20.65996 -0.17002,41.41295 -0.1711,62.08337c-0.00042,7.88978 -0.00037,15.77955 -0.00041,23.66933c-0.00002,3.74051 -0.54523,7.93198 -0.01456,11.63118c0.59605,4.15491 2.25248,10.00937 4.04302,13.82757c0.44093,0.94027 1.37499,1.63779 1.71089,2.61789c0.9226,2.69198 0.36348,6.53393 0.37647,9.3391c0.0031,4.93238 0.00215,9.86475 0.00216,14.79713c0,0.73886 0.04887,6.23217 -0.18147,6.61661c-1.9576,3.2672 -6.79444,2.63746 -9.95517,2.71971c-11.20239,0.29152 -22.44993,0.02674 -33.65645,0.02676c-7.13054,0 -14.26109,0 -21.39163,0c-2.87363,0 -6.12033,-0.37934 -8.96643,-0.01291c-2.98866,0.38479 -5.83358,1.87086 -8.81831,2.31541c-7.95039,1.18415 -16.63374,0.62486 -24.66262,0.6477c-12.11989,0.0249 -24.32672,2.42653 -36.47634,2.8913c-9.03468,0.34561 -18.14095,0.08177 -27.18218,0.08177c-9.10457,0 -18.55967,0.72016 -27.62929,-0.00502c-12.11351,-0.96856 -24.41994,-3.91692 -36.41159,-5.86814c-4.69009,-1.47643 -9.49671,-3.50225 -14.30955,-4.52824c-15.77755,-3.36344 -32.33838,-2.92514 -48.37288,-2.92595c-21.39162,-0.00002 -42.78324,-0.00001 -64.17486,-0.00001c-21.39163,0 -42.78327,0 -64.1749,0c-11.20514,0 -22.41028,0 -33.61543,0c-5.04828,0 -10.4254,0.50953 -15.44175,-0.00834c-5.02554,-0.51882 -10.09239,-2.15734 -15.07057,-3.05252c-10.01481,-1.80141 -20.16845,-3.32875 -30.08189,-5.60598c-3.84901,-0.88416 -7.73605,-2.58225 -11.64669,-3.12456c-1.10128,-0.15272 -5.63147,0.14432 -6.45589,-0.15633c-0.97312,-0.35487 -1.36811,-1.60458 -2.31132,-2.02843c-0.77742,-0.34935 -1.71154,-0.09491 -2.56573,-0.16318c-3.14237,-0.25111 -6.23112,-0.57319 -9.3848,-0.69008c-0.57305,-0.29071 -5.85757,-2.91136 -6.19647,-3.33821c-0.46527,-0.586 -1.31764,-5.23614 -1.65354,-6.17007c-0.6532,-1.81613 -1.68235,-3.48426 -2.52005,-5.22796c-1.26972,-2.64296 -3.0374,-5.45112 -3.93868,-8.22855c-1.9138,-5.89761 -1.20072,-11.92459 -1.7172,-17.93943c-0.25241,-2.9396 -1.19207,-5.82444 -1.44485,-8.76496c-0.25352,-2.94925 -0.05296,-6.03102 -0.07683,-8.99143c-0.0359,-20.713 -0.01633,-41.42614 -0.01633,-62.13916c0,-12.75012 -0.91093,-25.85041 0.00369,-38.56554c0.56378,-7.83775 2.27458,-15.75982 3.39978,-23.54319c1.41361,-9.77842 3.17193,-19.50784 4.83171,-29.24975c0.81242,-4.76848 2.06366,-9.66209 2.47156,-14.47631c0.49025,-5.78616 -0.00248,-11.82274 -0.00119,-17.63142c0.00196,-8.86322 -0.45202,-17.8505 0.00288,-26.70128c0.60666,-11.80363 3.02549,-23.44634 3.03744,-35.2859c0.00697,-6.90314 0.01749,-13.80628 0.01822,-20.70942c0.00042,-3.91599 -0.42225,-8.10196 0.01002,-11.99276c1.05238,-9.47204 6.14719,-18.74182 6.10944,-28.26185c0,-7.8898 0,-15.7796 0,-23.6694c0,-1.97245 -0.12539,-3.94864 0,-5.91735c0.08525,-1.33861 -0.53292,-3.04892 0.44322,-4.00053c0.58295,-0.5683 6.1043,-0.46368 7.19451,-0.4651c8.14987,-0.01055 16.29974,-0.00791 24.44962,-0.00791c21.39163,0 42.78327,-0.00001 64.1749,-0.00001c21.39163,0 42.78327,-0.00001 64.1749,-0.00001c21.39163,0 42.78327,0 64.1749,0c21.39163,0 42.78327,0 64.1749,0c21.39163,0 42.78327,0 64.1749,0c21.39163,0 42.78327,0 64.1749,0c21.39163,0 42.78327,0 64.1749,0c9.16784,0 18.33569,0 27.50353,0c4.98523,0 11.0914,-0.96994 15.76222,0.97196c6.77249,2.81569 12.86714,7.87966 17.93063,12.91759c0.16982,2.05008 -0.12199,4.16406 0.39917,6.15787c0.60058,2.29766 2.50879,5.55706 3.80068,7.57178c0.58706,0.91552 1.60328,1.5829 1.99729,2.59072c0.7479,1.9131 -0.11147,4.13034 0.34517,6.12754c0.392,1.71447 1.18343,3.36716 1.43862,5.09534c0.08776,-1.485 0.13343,-2.96197 0.13225,-4.41384c0,0 0,-1.47934 1.52797,-1.47934c1.52797,0 1.52797,1.47934 1.52797,1.47934c-0.00275,3.57799 -0.27063,7.29747 -0.74801,10.9289c1.28023,2.90512 1.34958,6.50387 -1.00952,8.97204c-0.30909,0.32338 -0.66974,0.56907 -1.06532,0.76273zM-9.14491,116.65085c-0.17595,-0.15227 -0.35379,-0.29864 -0.53364,-0.43829c-0.14287,-0.11093 -0.0488,0.52798 0.1339,0.51586c0.13725,-0.00909 0.26991,-0.0373 0.39974,-0.07758z" data-paper-data="{&quot;index&quot;:null}" fill="#faeda4" stroke="none" stroke-width="0.5" stroke-linecap="butt"/><path d="M19.47951,34.31568l-53.48205,-81.08108" fill="none" stroke="#faeda4" stroke-width="3" stroke-linecap="round"/><path d="M50.93954,23.80518l-28.31403,-45.04505" fill="none" stroke="#faeda4" stroke-width="3" stroke-linecap="round"/><path d="M91.83758,25.30667l-23.59502,-73.57357" fill="none" stroke="#faeda4" stroke-width="3" stroke-linecap="round"/><path d="M128.01661,28.30968l-14.15701,-69.06907" fill="none" stroke="#faeda4" stroke-width="3" stroke-linecap="round"/><path d="M178.35267,-31.75038l1.573,72.07207" fill="none" stroke="#faeda4" stroke-width="3" stroke-linecap="round"/><path d="M209.8127,19.30067l9.43801,-60.06006" fill="none" stroke="#faeda4" stroke-width="3" stroke-linecap="round"/><path d="M250.71074,23.80517v-49.54955" fill="none" stroke="#faeda4" stroke-width="3" stroke-linecap="round"/><path d="M296.32779,-25.74438l3.146,40.54054" fill="none" stroke="#faeda4" stroke-width="3" stroke-linecap="round"/><path d="M354.52884,22.30367l7.86501,-46.54655" fill="none" stroke="#faeda4" stroke-width="3" stroke-linecap="round"/><path d="M316.7768,22.30367l-1.573,-31.53153" fill="none" stroke="#faeda4" stroke-width="3" stroke-linecap="round"/><path d="M403.2919,-18.23687v43.54354" fill="none" stroke="#faeda4" stroke-width="3" stroke-linecap="round"/><path d="M444.18994,-0.21885l-11.01101,30.03003" fill="none" stroke="#faeda4" stroke-width="3" stroke-linecap="round"/><path d="M480.36897,-16.73537l-28.31403,37.53754" fill="none" stroke="#faeda4" stroke-width="3" stroke-linecap="round"/><path d="M486.66098,35.81718l-40.89804,18.01802" fill="none" stroke="#faeda4" stroke-width="3" stroke-linecap="round"/><path d="M491.37998,67.34871l-42.47104,18.01802" fill="none" stroke="#faeda4" stroke-width="3" stroke-linecap="round"/><path d="M481.94197,113.89526l-26.74103,3.003" fill="none" stroke="#faeda4" stroke-width="3" stroke-linecap="round"/><path d="M486.66098,151.4328l-17.30302,10.51051" fill="none" stroke="#faeda4" stroke-width="3" stroke-linecap="round"/><path d="M489.80698,191.97334l-39.32504,-10.51051" fill="none" stroke="#faeda4" stroke-width="3" stroke-linecap="round"/><path d="M488.23398,241.52289l-40.89804,-12.01201" fill="none" stroke="#faeda4" stroke-width="3" stroke-linecap="round"/><path d="M483.51497,262.54391l-22.02202,-9.00901" fill="none" stroke="#faeda4" stroke-width="3" stroke-linecap="round"/><path d="M489.80698,283.56493l-44.04404,-12.01201" fill="none" stroke="#faeda4" stroke-width="3" stroke-linecap="round"/><path d="M494.52599,327.10847l-50.33605,-15.01502" fill="none" stroke="#faeda4" stroke-width="3" stroke-linecap="round"/><path d="M488.23398,364.64601l-31.46003,-27.02703" fill="none" stroke="#faeda4" stroke-width="3" stroke-linecap="round"/><path d="M442.61694,361.64301l-17.30302,-27.02703" fill="none" stroke="#faeda4" stroke-width="3" stroke-linecap="round"/><path d="M382.84288,331.61298l3.146,37.53754" fill="none" stroke="#faeda4" stroke-width="3" stroke-linecap="round"/><path d="M359.24786,366.14751l-9.43801,-30.03003" fill="none" stroke="#faeda4" stroke-width="3" stroke-linecap="round"/><path d="M332.50682,355.637l-4.719,-33.03303" fill="none" stroke="#faeda4" stroke-width="3" stroke-linecap="round"/><path d="M296.32779,364.64601l1.573,-18.01802" fill="none" stroke="#faeda4" stroke-width="3" stroke-linecap="round"/><path d="M238.12673,366.14751l1.573,-27.02703" fill="none" stroke="#faeda4" stroke-width="3" stroke-linecap="round"/><path d="M203.5207,363.14451l-9.43801,-30.03003" fill="none" stroke="#faeda4" stroke-width="3" stroke-linecap="round"/><path d="M167.34166,367.64901v-25.52553" fill="none" stroke="#faeda4" stroke-width="3" stroke-linecap="round"/><path d="M121.72461,360.14151l-7.86501,-21.02102" fill="none" stroke="#faeda4" stroke-width="3" stroke-linecap="round"/><path d="M90.26458,372.15352l-12.58401,-30.03003" fill="none" stroke="#faeda4" stroke-width="3" stroke-linecap="round"/><path d="M60.37755,349.63099l9.43801,15.01502" fill="none" stroke="#faeda4" stroke-width="3" stroke-linecap="round"/><path d="M39.92853,340.62198l-22.02202,25.52553" fill="none" stroke="#faeda4" stroke-width="3" stroke-linecap="round"/><path d="M-10.40752,360.14151l34.60603,-19.51952" fill="none" stroke="#faeda4" stroke-width="3" stroke-linecap="round"/><path d="M-15.12652,327.10847l33.03303,-12.01201" fill="none" stroke="#faeda4" stroke-width="3" stroke-linecap="round"/><path d="M-21.41853,298.57995l18.87602,-3.003" fill="none" stroke="#faeda4" stroke-width="3" stroke-linecap="round"/><path d="M-19.84553,277.55892l18.87602,-6.00601" fill="none" stroke="#faeda4" stroke-width="3" stroke-linecap="round"/><path d="M0.60349,238.51989h-31.46003" fill="none" stroke="#faeda4" stroke-width="3" stroke-linecap="round"/><path d="M-32.42954,219.00037l33.03303,-1.5015" fill="none" stroke="#faeda4" stroke-width="3" stroke-linecap="round"/><path d="M-26.13753,179.96133l37.75204,10.51051" fill="none" stroke="#faeda4" stroke-width="3" stroke-linecap="round"/><path d="M3.7495,154.4358l-26.74103,6.00601" fill="none" stroke="#faeda4" stroke-width="3" stroke-linecap="round"/><path d="M-24.56453,131.91328h23.59502" fill="none" stroke="#faeda4" stroke-width="3" stroke-linecap="round"/><path d="M-24.56453,101.88325l33.03303,7.50751" fill="none" stroke="#faeda4" stroke-width="3" stroke-linecap="round"/><path d="M-29.28353,68.85022l37.75204,10.51051" fill="none" stroke="#faeda4" stroke-width="3" stroke-linecap="round"/><path d="M8.4685,49.33069l-17.30302,-13.51351" fill="none" stroke="#faeda4" stroke-width="3" stroke-linecap="round"/></g></g></svg>