<svg version="1.1" xmlns="http://www.w3.org/2000/svg" xmlns:xlink="http://www.w3.org/1999/xlink" width="632.52935" height="482.37503" viewBox="0,0,632.52935,482.37503"><g transform="translate(71.86813,68.78255)"><g data-paper-data="{&quot;isPaintingLayer&quot;:true}" fill-rule="nonzero" stroke="none" stroke-linecap="butt" stroke-linejoin="miter" stroke-miterlimit="10" stroke-dasharray="" stroke-dashoffset="0" style="mix-blend-mode: normal"><path d="M-21.95988,11.18003c0,-8.75886 4.50434,-16.46568 11.32297,-20.93041l1.27384,-1.43027l2.69535,-0.68453c2.25476,-0.95098 4.67818,-1.58071 7.21292,-1.83185l1.09738,-0.2787l1.01161,0.15868c0.12841,-0.00194 0.25706,-0.00292 0.38594,-0.00292c4.19893,0 8.15609,1.03517 11.63018,2.86424l0.47662,0.23831l7.11738,1.18623h0.7756l1.12392,-0.08224l0.68517,-0.27407l3.77194,-1.08806l0.8216,-0.05963l0.78498,-0.24977l3.20521,-0.32052l1.06603,-0.42641l3.77194,-1.08806l0.8216,-0.05963l0.78498,-0.24977l3.90625,-0.39062h108.29164l1.93443,0.19344l0.2446,-0.01545l0.86118,0.12603l0.86604,0.0866l0.23355,0.07431l1.92359,0.2815l3.03762,0.75941l4.46982,0.63855h340.25333l3.1873,0.31873l1.75376,-0.02402l4.54332,1.87078l3.01563,0.95952l0.62454,0.53937l2.31627,0.95376l1.62568,2.45066l4.02726,3.47809l1.18258,4.37555l1.44075,2.17188l0.23252,4.01921l1.0504,3.88648l-0.68001,2.51603l0.14224,2.45867l2.29153,7.20197l0.39063,3.90625v11.79414l-0.20521,2.05208l-0.13494,2.05789l-0.73204,4.39226v33.31335l-0.19344,1.93443l0.01545,0.2446l-0.12603,0.86118l-0.0866,0.86604l-0.07431,0.23355l-0.2815,1.92359l-1.39795,5.59181v165.25689l-0.15468,1.54681l-0.03837,1.55405l-0.87914,7.03313v57.41425l-0.24512,2.45122l-0.24036,2.45169l-1.65891,8.29453v7.17426l-0.27265,2.72649l0.00828,0.27827l-0.08093,0.44825l-0.04532,0.45324l-0.08441,0.26529l-0.48687,2.69649l-1.18249,4.13871v10.43715l-0.12456,1.24556l0.45501,2.2483l-2.49559,5.98941l-0.95987,3.01673l-0.57406,0.6647l-0.3378,0.81072l-2.26898,2.20766l-4.24103,4.91067l-0.69993,0.18917l-1.4365,1.75572l-0.28605,0.28605l-0.59201,0.8123l-0.54383,0.32354l-6.08346,6.08346l-3.03835,2.48592l-0.07738,0.04002l-0.06244,0.06075l-1.49406,0.94362l-2.6549,2.17219l-0.39315,0.20336l-1.74617,1.50805l-3.0386,0.96683l-2.83227,1.46497l-0.51086,0.03738l-0.60903,0.19378l-0.46958,0.24947l-3.26101,0.93754l-3.23337,1.0288l-0.5291,0.05291l-1.64371,0.47257l-1.36976,-0.17122l-0.36368,0.03637h-33.37697l-1.30303,0.32576l-1.92359,0.2815l-0.23355,0.07431l-0.86604,0.0866l-0.86118,0.12603l-0.2446,-0.01545l-1.93443,0.19344h-324.87491l-3.90625,-0.39062l-0.78498,-0.24977l-0.8216,-0.05963l-3.77194,-1.08806l-0.89077,-0.35631h-70.23905l-3.90625,-0.39062l-0.08302,-0.02641l-0.08711,-0.00119l-3.82932,-0.86469l-0.1875,-0.0625l-1.17403,-0.1174l-1.77027,-0.56327l-1.83527,-0.28789l-3.66855,-1.39754l-0.32571,-0.16285l-0.48405,-0.03542l-0.89279,-0.46179l-0.38378,-0.12793l-3.58227,-1.60584l-1.08755,-0.79262l-2.89361,-1.10233l-0.36183,-0.18092l-0.95783,-0.30476l-0.47891,-0.41361l-0.90108,-0.45054l-1.53106,-0.51035l-0.12562,-0.05631l-1.23591,-0.12359l-0.4218,-0.13421l-2.30108,-0.16837l-2.83227,-1.46497l-3.0386,-0.96683l-1.74617,-1.50805l-0.39315,-0.20336l-1.25018,-1.02288l-0.70801,-0.19135l-1.21306,-1.4046l-1.87858,-1.87858l-1.4046,-1.21306l-0.19135,-0.70801l-1.02288,-1.25018l-0.20336,-0.39315l-1.50805,-1.74617l-0.96683,-3.0386l-1.46497,-2.83227l-0.16837,-2.30108l-0.13421,-0.4218l-0.39063,-3.90625v-2.84467l-0.13544,-1.85096l0.13544,-0.23576v-20.47018l-1.65891,-8.29453l-0.24036,-2.45169l-0.24512,-2.45122v-41.27626l-0.65396,-2.89612l-0.00119,-0.08711l-0.02641,-0.08302l-0.39063,-3.90625v-12.53523l-0.58671,-2.93356l-0.24036,-2.45169l-0.24512,-2.45122v-64.46519l-0.15576,-0.61332l0.15576,-0.993v-0.40454l0.39063,-3.90625l0.56327,-1.77027l0.28789,-1.83527l0.90261,-2.36935v-6.63135l-0.13544,-0.23576l0.13544,-1.85096v-2.84467l0.39063,-3.90625l0.13421,-0.4218l0.16837,-2.30108l1.45118,-2.80562v-5.57597l0.39063,-3.90625l0.02641,-0.08302l0.00119,-0.08711l0.86469,-3.82932l0.86147,-2.58441v-18.45914l0.39063,-3.90625l0.02641,-0.08302l0.00119,-0.08711l0.86469,-3.82932l0.86147,-2.58441v-0.23184l0.08886,-0.88855l-0.02532,-0.89262l1.00866,-14.12127v-50.57361l0.24512,-2.45122l0.24036,-2.45169l0.58671,-2.93356v-1.81329l0.39063,-3.90625l0.02641,-0.08302l0.00119,-0.08711l0.86469,-3.82932l0.76858,-2.30573l0.83933,-3.35732l1.32637,-3.69488l0.18621,-0.30166l0.09795,-0.3407l0.21561,-0.40585c-1.59411,-1.32836 -3.02034,-2.85136 -4.24219,-4.5325l-0.72668,-0.70704l-0.43075,-1.0338c-1.2782,-2.10847 -2.25349,-4.421 -2.86551,-6.87723l-1.07106,-2.57054l0.38142,-1.88464c-0.0338,-0.53205 -0.05096,-1.06863 -0.05096,-1.60921z" fill="#fae880" stroke-width="0.5"/><path d="M-15.58571,69.22629c-0.02526,-0.18318 -0.02527,-0.30003 -0.02527,-0.30003l0.26393,-0.38347c-3.26043,-6.80792 -0.82024,-12.64674 -0.25629,-19.84191c0.25538,-3.25822 -0.06709,-6.53697 -0.00765,-9.80465c0.03313,-1.82121 -0.46343,-3.76106 0.1903,-5.46122c0.56263,-1.46323 2.31932,-2.14337 3.2256,-3.42252c1.44623,-2.04125 1.88365,-4.63636 2.74095,-6.98654c3.36932,-9.23652 4.80884,-18.81982 6.96959,-28.37539c1.1164,-4.93614 2.18722,-9.83831 3.61417,-14.69659c0.52865,-1.79986 0.71459,-3.74722 1.62274,-5.38864c0.63239,-1.143 2.26371,-1.52356 2.84798,-2.69189c0.44773,-0.89529 -0.47842,-2.12374 0,-3.00301c1.40764,-2.58702 4.48089,-3.83154 6.85393,-5.5759c1.29072,-0.94877 2.01434,-2.70589 3.50807,-3.2846c1.69849,-0.65803 3.63973,-0.18176 5.46122,-0.1903c0.71429,-0.00335 1.49945,0.47619 2.13729,0.15467c1.37577,-0.69347 2.05338,-2.51142 3.51351,-3.003c1.37233,-0.46202 8.77165,0.05147 10.57203,-0.13737c4.48564,-0.47048 9.03965,-2.34792 13.46088,-3.2461c6.49366,-1.3192 13.11729,-2.19249 19.65485,-3.2762c12.87353,-3.92344 25.5469,-8.1287 38.92506,-9.99031c20.03645,-2.78813 40.75479,-1.52271 60.92557,-1.52271c34.2632,0 68.5264,0.00005 102.7896,-0.00001c34.99997,-0.00006 69.99993,-0.00077 104.99989,-0.00236c16.51529,-0.00075 33.36462,0.83325 49.84633,-0.17966c18.13808,-1.11472 36.54858,-4.19615 54.42852,-7.31596c0.25708,-0.00047 9.88651,-0.02129 10.25386,-0.00926c1.35454,0.04438 2.85779,-0.33779 4.0549,0.29757c1.76493,0.93673 2.93408,2.71596 4.32528,4.15019c3.64099,3.7536 6.25389,8.04252 9.13804,12.36875c0.20285,0.30427 5.59125,8.37843 5.68554,8.55506c4.52912,8.48533 5.9332,18.38694 7.73658,27.67071c1.74596,8.98817 4.30027,17.90292 6.2713,26.85642c1.94172,9.73819 4.87917,19.8439 5.77769,29.73347c0.76784,8.45124 -0.31076,17.15138 -1.53142,25.48747c-0.47439,3.23969 -1.18318,6.45087 -1.46322,9.71311c-0.45218,5.26747 1.39472,7.13687 -4.53937,10.12686c-3.39447,1.71036 -5.0303,-0.451 -7.77406,-1.44652c-2.39501,-0.86898 -5.05996,-0.74867 -7.49527,-1.49734c-2.67845,-0.82342 -5.04711,-2.43626 -7.56609,-3.66381c-5.54819,-2.37682 -11.08833,-4.76849 -16.61757,-7.189c-2.97875,-1.304 -5.75048,-3.09916 -8.82613,-4.1545c-2.90144,-0.99556 -6.15771,-0.5819 -9.07374,-1.53387c-3.13641,-1.02392 -5.68939,-3.47958 -8.8452,-4.44205c-2.89306,-0.88234 -6.12761,0.04439 -9.04138,-0.76694c-1.69995,-0.47334 -3.12349,-1.65357 -4.75206,-2.33302c-2.88946,-1.20549 -5.96508,-1.90846 -8.91219,-2.96523c-2.41184,-0.86483 -4.60715,-2.39702 -7.12038,-2.89558c-1.45616,-0.28887 -2.98908,0.25223 -4.45359,0.00925c-2.96863,-0.49252 -5.54555,-2.50649 -8.51351,-3.003c-1.63679,-0.27382 -3.31906,0.00238 -4.97859,0.00357c-4.99223,-1.65613 -8.11335,-1.09646 -13.25235,-1.81381c-4.87785,-0.6809 -9.61384,-2.29559 -14.58082,-2.66531c-7.6827,-0.57186 -15.63474,0.0069 -23.34296,0.0069c-15.35035,0 -30.7007,0 -46.05105,0c-30.69069,0 -61.38138,0 -92.07207,0c-29.35936,0 -58.71872,0 -88.07808,0c-13.51351,0 -27.02703,0 -40.54054,0c-4.93636,0 -9.87183,-0.01423 -14.80785,0.04821c-1.42948,0.01808 -2.93296,-0.39404 -4.28836,0.06054c-1.5885,0.53276 -2.5896,2.27454 -4.18642,2.78178c-1.54089,0.48948 -8.03107,-0.07534 -9.7425,0.21143c-4.61734,0.77368 -9.50664,3.14353 -14.03299,4.43724c-5.24029,1.47164 -8.9358,1.10431 -14.25709,1.45763c-5.01948,0.33328 -10.01458,2.38309 -15.01501,3.00301c-0.9108,0.11292 -1.85806,-0.24074 -2.75308,-0.03758c-6.04202,1.3714 -10.56613,5.93023 -15.83285,8.7628c-5.38801,2.8978 -14.66393,3.87146 -17.203,10.47883c-0.54611,1.42114 -0.71406,2.95999 -1.07109,4.43999c0,0 -0.60634,2.42536 -3.0317,1.81902c-2.42535,-0.60634 -1.81901,-3.03169 -1.81901,-3.03169c0.45143,-1.75381 0.66428,-3.58705 1.35426,-5.26144c1.04729,-2.54147 2.66512,-4.39111 4.60236,-5.84421z" fill="#faeda4" stroke-width="0.5"/><path d="M-58.35462,236.1023c-2.09776,-0.11227 -4.16188,-0.2654 -6.01351,-0.2654c0,0 -7.5,0 -7.5,-7.5c0,-7.5 7.5,-7.5 7.5,-7.5c0.94732,0 4.28539,0 6.62038,0c0.79621,-2.08928 2.63706,-4.5045 6.89314,-4.5045c2.21505,0 3.7759,0.65419 4.87578,1.57616c1.59445,-0.24672 3.28182,0.16869 4.8957,-0.03816c2.53136,-0.32443 4.98023,-1.14671 7.50751,-1.5015c0.66863,-0.09387 1.37938,0.3807 2.01889,0.16413c5.35103,-1.81211 9.35221,-6.75869 14.56478,-8.88783c1.06627,-0.43553 9.19443,-4.72489 11.31527,-5.75692c1.24882,-0.60769 8.94032,-4.63247 11.82086,-5.9237c2.17275,-0.97395 9.84483,-5.1566 14.85164,-6.45858c1.08972,-0.28337 5.04735,-2.10399 6.36053,-2.63273c4.26897,-1.71887 12.24742,-2.9335 13.09364,-3.16666c3.0178,-0.8315 8.46317,0.08559 11.55998,-0.37074c4.47534,-0.65947 9.76796,-0.0365 14.25255,-0.0365c4.83495,0 11.9345,-1.22051 16.38364,0.5709c1.31318,0.52874 6.32772,1.37378 7.72182,1.93142c1.31438,0.52575 6.07233,3.63744 7.64771,3.70431c1.001,0.5005 1.91112,1.25594 3.003,1.5015c2.81711,0.63355 5.97599,-0.70821 8.65449,0.37027c1.31318,0.52874 1.88438,2.13543 3.003,3.003c0.15439,0.11974 -0.05935,-0.53591 0.13288,-0.5709c0.98481,-0.17929 2.00351,-0.05498 3.003,0c2.46184,0.13543 5.04343,-0.23193 7.37463,0.5709c1.33848,0.46095 1.88438,2.13543 3.003,3.003c0.15439,0.11974 -0.06251,-0.5709 0.13288,-0.5709c1.96694,0 4.04854,-0.16375 5.87313,0.5709c1.31318,0.52874 1.74933,2.34551 3.003,3.003c0.51105,0.26803 1.06163,-0.50039 1.63438,-0.5709c3.27317,-0.40296 7.24976,-0.07087 10.51051,0c1.57643,0.03426 3.19065,-0.15788 4.72615,0.20063c2.45512,0.57322 4.51386,2.40318 6.98573,2.89921c2.29504,0.46055 5.45502,-0.09684 7.80764,-0.09684c1.78128,0 3.67585,0.97225 5.33413,0.32181c1.67997,-0.65895 2.79253,-2.43234 4.5045,-3.003c1.42445,-0.47482 3.07646,0.4639 4.5045,0c1.34531,-0.43703 2.12154,-1.9217 3.38275,-2.56218c3.19311,-1.62155 7.16934,-1.42482 10.22883,-3.28626c0.55068,-0.33504 0.11238,-1.35084 0.49551,-1.86921c2.49544,-3.37633 7.03214,-7.79611 10.33841,-10.42375c2.54435,-2.0221 5.61409,-3.28331 8.31944,-5.08432c2.16911,-1.44402 3.99715,-3.39649 6.27455,-4.66286c2.41581,-1.34333 5.20991,-1.88252 7.69033,-3.10244c2.03883,-1.00273 3.70212,-2.72788 5.82274,-3.54353c1.95224,-0.75089 10.65564,-4.80135 13.31519,-5.94294c1.14649,-0.49212 8.36512,-0.38488 9.87922,-0.38488c7.00701,0 14.01401,0 21.02102,0c3.19189,0 8.26116,-0.68146 11.18239,0.32181c1.70673,0.58616 12.03075,2.41177 14.56477,2.88182c1.66643,0.30911 3.11203,1.34683 4.63396,2.09266c2.36971,1.16129 4.83653,2.17052 7.03723,3.62689c0.95921,0.63479 4.96011,2.98568 6.26909,3.27154c3.1447,0.68674 4.23448,0.90465 7.1784,2.20622c2.50141,1.10593 4.6607,2.06889 7.25327,2.93992c0.80752,0.2713 4.25302,2.64279 5.05323,2.93494c3.01844,1.10206 4.38964,2.25638 7.27904,3.66239c6.83986,6.66679 15.23963,9.85177 23.40315,14.61251c3.11773,1.81818 5.89779,4.1767 9.00901,6.00601c3.96285,2.33004 8.41377,3.70694 12.61919,5.56374c1.68519,0.74405 3.08539,2.13502 4.85903,2.63273c1.59063,0.44636 3.38601,-0.39694 4.95474,0.12118c1.71354,0.56594 2.82454,2.34406 4.5045,3.003c1.65827,0.65044 3.55285,-0.32181 5.33413,-0.32181c3.5035,0 7.00701,0 10.51051,0c1.92928,0 3.93836,0.76134 5.78436,0.20063c1.41174,-0.4288 3.47269,-2.10606 5.42112,-2.34167c0.00501,-0.05732 0.00774,-0.11301 0.00774,-0.16677c1.81206,-0.54193 3.74449,-0.77995 5.43618,-1.6258c0.44436,-0.22218 0.21853,-1.02591 0.56983,-1.37721c1.68288,-1.68288 3.34949,-3.48427 5.43618,-4.6288c0.87765,-0.48138 2.10479,0.44182 3.003,0c0.87185,-0.42885 0.88898,-1.87455 1.74445,-2.33521c3.23192,-1.74035 6.71366,-3.0134 10.21788,-4.10637c0.5127,-0.15991 1.01421,0.44506 1.55118,0.43558c0.16846,-0.00297 -0.27003,-0.30135 -0.21119,-0.45923c0.39083,-1.04869 0.75155,-2.1723 1.5015,-3.003c1.86109,-2.06148 3.75045,-4.27063 6.21719,-5.54677c1.33361,-0.68993 3.01152,0.1597 4.5045,0c0.16753,-0.01792 -0.27003,-0.30135 -0.21119,-0.45923c0.39083,-1.04869 0.75155,-2.1723 1.5015,-3.003c1.86109,-2.06148 3.68462,-4.40686 6.21719,-5.54677c1.44005,-0.64816 7.72365,-0.5709 10.37763,-0.5709c5.07453,0 11.23718,-0.8194 16.21638,0.09684c2.27681,0.41896 4.39885,1.44486 6.59827,2.16729c1.12758,0.85406 2.06802,2.04032 3.38275,2.56218c1.14885,0.45601 2.59872,-0.31262 3.69975,0.24909c1.90041,0.96954 3.20309,2.82308 4.88779,4.13203c1.73811,1.35044 3.82481,2.27418 5.37217,3.83955c0.95703,0.96816 1.15442,2.48617 1.96323,3.5812c2.01481,2.72778 5.25355,4.52971 6.85079,7.52121c0.58217,1.09036 -0.14173,2.52712 0.24909,3.69975c0.79381,2.38176 3.88478,3.34938 5.08912,5.55221c1.76089,3.22078 3.00526,6.71621 4.10637,10.21788c0.22554,0.71726 -0.47275,1.55267 -0.18648,2.24793c0.472,1.14633 1.70673,1.83133 2.31164,2.91343c1.44856,2.59128 2.92512,5.21531 3.81554,8.04731c0.7506,2.38728 -0.76034,5.12331 0,7.50751c0.68007,2.13249 2.43598,3.84071 3.003,6.00601c1.25018,4.77403 0.20063,11.76913 0.20063,16.73816c-0.04511,2.47477 0.37378,5.00205 -0.13533,7.42431c-0.55437,2.63765 -2.26738,4.91456 -3.003,7.50751c-0.30099,1.06096 0.20043,2.23751 -0.06531,3.30784c-0.26967,1.08618 -1.26492,1.90914 -1.5015,3.003c-0.39908,1.8452 0.44665,3.94952 -0.37027,5.65148c-0.91886,1.91434 -3.62374,2.57234 -4.5045,4.5045c-0.60324,1.32335 0.67974,2.8975 0.47406,4.33725c-0.56361,3.9453 -3.34801,7.25145 -4.60829,11.03229c-0.43918,1.31755 0.22212,2.89383 -0.37027,4.14998c-0.60382,1.28039 -2.13543,1.88438 -3.003,3.003c-0.11974,0.15439 0.53591,-0.05935 0.5709,0.13288c0.17929,0.98481 0.11199,2.00829 0,3.003c-0.26238,2.33052 -0.0487,4.85979 -1.12012,6.94599c-0.67982,1.32371 -2.82847,1.27883 -3.71698,2.47253c-0.85885,1.15386 -0.30412,3.02329 -1.20711,4.14294c-1.33551,1.65597 -3.6656,2.2412 -5.1615,3.75385c-1.22098,1.23465 -1.62832,3.12923 -2.8579,4.35532c-1.94555,1.94003 -4.43696,3.24868 -6.5404,5.01629c-2.69528,2.26497 -5.34359,4.61026 -8.26127,6.58048c-1.93154,1.23057 -3.65872,2.86525 -5.79463,3.69172c-5.08036,1.96581 -11.60746,2.71969 -16.96877,3.51771c-2.86381,0.42627 -5.33892,2.42896 -8.20224,2.85856c-8.08533,1.21309 -17.52437,0.20063 -25.74717,0.20063c-26.52653,0 -53.05305,0 -79.57958,0c-82.08208,0 -164.16416,0 -246.24625,0c-33.53353,0 -67.06707,0 -100.6006,0c-8.00801,0 -16.01602,0 -24.02402,0c-2.13292,0 -8.69342,0.14527 -10.37763,-0.5709c-1.82045,-0.77411 -2.90614,-2.70124 -4.5182,-3.84778c-0.91201,-0.64865 -2.12318,-0.80982 -3.003,-1.5015c-1.62145,-1.27472 -2.94516,-2.88827 -4.41774,-4.3324c-5.25446,-7.8252 -9.07507,-16.62955 -15.01502,-24.02402c-2.96187,-3.68715 -6.205,-7.49358 -7.50531,-12.04078c-0.57839,-2.02266 0.36558,-4.25172 -0.06531,-6.31085c-0.43402,-2.07412 -1.59583,-3.92768 -2.48013,-5.85339c-3.04646,-6.63414 -6.89865,-11.70863 -9.30341,-18.78292c-0.98216,-2.8893 -0.62275,-6.29135 -2.24668,-8.87505c-0.95903,-1.52583 -2.95282,-2.37627 -3.55222,-4.07586c-0.74361,-2.10851 0.37398,-4.55553 -0.24909,-6.70275c-0.5029,-1.73309 -2.41684,-2.79778 -3.003,-4.5045c-0.56154,-1.63505 -0.27208,-3.44831 -0.32181,-5.17638c-0.17254,-5.99542 0,-12.0184 0,-18.01802c0,-2.41654 0,-4.83308 0,-7.24961zM445.57487,224.01431c-0.03479,-0.3202 -0.05886,-0.66687 -0.13517,-0.88461c0,0.26992 0.06169,0.574 0.13517,0.88461z" fill="#e9d877" stroke-width="0.5"/><path d="M-24.40445,266.2495c1.5069,-4.87208 7.13243,-4.87208 7.13243,-4.87208c3.31159,0 7.59094,0.74295 10.81065,0.09684c3.40727,-0.68375 3.21016,-1.91313 6.98573,-2.89921c0.82423,-0.21527 7.36233,-3.62863 9.97071,-5.19346c4.14885,-2.489 6.16109,-4.5206 10.11625,-7.30714c1.79201,-1.26253 5.56215,-2.94177 7.28089,-4.30236c1.01558,-0.80396 2.3654,-1.08189 3.44535,-1.79707c2.23324,-1.47892 4.13537,-3.45173 6.46819,-4.76797c1.02453,-0.57807 4.84569,-3.85153 6.02479,-4.98525c2.34575,-2.25547 5.60844,-3.30928 8.31078,-5.1223c6.35404,-4.16474 11.51544,-9.84838 17.42335,-14.5747c3.92131,-3.13705 8.08784,-5.87536 12.01201,-9.00901c1.22673,-0.9796 2.06798,-2.41406 3.37259,-3.28725c4.04949,-2.71037 6.43273,-4.39991 10.25193,-7.50751c1.64708,-1.3402 5.99561,-3.33215 7.76608,-4.5045c2.6792,-1.77409 5.60953,-3.23311 8.66819,-4.21805c1.28695,-0.41442 6.85205,-2.29566 8.55877,-2.88182c1.20186,-0.41277 7.8331,-1.82374 8.09812,-1.95695c1.61235,-0.81045 6.68865,-0.53177 8.41839,-1.04605c1.32543,-0.39408 9.06608,-0.32181 11.18239,-0.32181c7.50751,0 15.01502,0 22.52252,0c6.56238,0 10.98797,-0.56782 16.86762,2.2933c1.36673,0.66507 2.83326,1.19376 4.03423,2.12539c0.69041,0.53557 2.73407,1.62612 3.34382,1.78795c0.91155,0.24192 7.71504,3.52345 8.66819,4.21805c3.13192,2.28239 5.82141,5.31211 9.00901,7.50751c2.99573,2.06326 6.94903,2.33746 10.06817,4.20894c0.89235,0.53541 3.93215,2.45379 4.93315,2.45379c1.27604,1.1352 6.95587,3.81106 8.4464,4.2974c2.27412,0.74201 4.29722,2.19591 6.61829,2.77453c1.7022,0.42434 2.75851,1.0309 4.42609,1.57562c1.71538,0.56034 3.59691,1.13939 5.33799,1.61386c1.7186,0.46835 3.5538,-0.26358 5.33413,-0.32181c3.50163,-0.11453 7.00701,0 10.51051,0c6.00601,0 12.01201,0 18.01802,0c2.94711,0 6.40643,0.4722 9.30914,0.09684c3.02079,-0.39062 5.17875,-1.91946 8.00971,-3.12672c2.13518,-0.91054 3.69683,-1.87893 5.89915,-2.61233c6.55677,-2.1835 7.95894,-3.04916 12.95091,-7.3004c1.001,0 3.54275,-1.43294 4.12121,-1.87397c2.20837,-1.68371 4.49318,-3.3867 7.08604,-4.38113c1.00103,-0.38392 6.44367,-0.32181 8.17939,-0.32181c5.50551,0 11.01101,0 16.51652,0c15.69282,0 31.55584,-0.65192 47.21843,0.32181c1.73375,1.08403 3.28599,2.536 5.20125,3.2521c2.24695,0.84012 4.79564,0.57796 7.0714,1.33655c0.67759,0.22586 6.99321,3.77528 9.27785,4.1954c1.30524,0.24002 2.74197,-0.26581 3.97502,0.22497c2.35187,0.93608 4.38519,2.5367 6.49137,3.94082c0.90314,0.60209 1.47793,1.75346 2.51763,2.06519c1.66262,0.49849 3.58766,-0.39052 5.20125,0.24909c1.31601,0.52166 4.26747,2.41352 4.85902,2.63273c2.33003,0.86344 4.64665,1.94049 6.58316,3.49757c0.87218,0.70129 3.70606,1.91062 4.6651,2.21233c2.35576,0.74111 5.34106,2.35305 7.34691,3.79368c0.39326,0.28245 6.98698,3.79804 8.07734,4.3802c2.07576,1.1083 7.6031,5.58585 9.64905,7.6318c3.27357,3.4886 8.39333,4.16656 11.16474,7.8968c1.75581,2.36327 2.52434,5.36101 3.23875,8.21715c0.23255,0.92972 -0.8417,1.9507 -0.47406,2.83575c0.39921,0.96103 1.92282,1.03514 2.45379,1.93015c0.6157,1.03783 0.06349,2.5681 0.78753,3.53347c0.89285,1.19046 3.03716,1.14882 3.71698,2.47253c1.73139,3.37126 1.12012,9.09915 1.12012,12.95199c0,10.51051 0,21.02102 0,31.53153c0,4.50007 0.09778,9.01504 0,13.51351c-0.03426,1.57643 0.28945,3.22744 -0.20063,4.72615c-0.77232,2.36179 -1.90293,4.67746 -3.49757,6.58316c-0.97051,1.15983 -2.55381,1.63601 -3.92098,2.28252c-0.15232,0.07203 -0.42811,-0.37678 -0.45923,-0.21119c-0.34503,1.83597 0.41379,3.97659 -0.54922,5.57736c-1.06267,1.76643 -3.40981,2.32808 -4.99756,3.64283c-1.68257,1.39327 -3.23024,2.96784 -4.59127,4.67661c-1.23388,1.54912 -1.93923,3.5185 -3.35467,4.9037c-4.64019,4.54107 -8.55864,5.89882 -13.69596,8.84022c-2.06186,1.18053 -3.80846,3.0509 -6.09557,3.69437c-2.6266,0.73898 -5.45139,0.26585 -8.17939,0.32181c-6.4978,0.1333 -13.01966,0 -19.51952,0c-82.58258,0 -165.16517,0 -247.74775,0c-13.01301,0 -26.02603,0 -39.03904,0h-18.01802c-2.4751,-0.02038 -5.00205,0.37378 -7.42431,-0.13533c-2.63765,-0.55437 -4.87641,-2.41832 -7.50751,-3.003c-1.95433,-0.4343 -4.05168,0.4343 -6.00601,0c-2.6311,-0.58469 -4.86471,-2.4737 -7.50751,-3.003c-2.5535,-0.51142 -5.27006,0.4992 -7.81235,-0.06531c-2.18509,-0.48519 -3.81585,-2.54124 -6.00601,-3.003c-2.37728,-0.50121 -4.8565,0.17072 -7.28586,0.20063c0,0 -13.34668,0 -15.01502,0c-14.01401,0 -28.02803,0 -42.04204,0c-3.74985,-0.01217 -7.51222,0.26995 -11.24954,-0.0365c-2.54353,-0.20856 -4.97673,-1.17261 -7.50751,-1.5015c-3.72803,-0.48448 -7.79424,0.74249 -11.49463,-0.16413c-0.77241,-0.18925 -7.83982,-3.57068 -8.66819,-4.21805c-4.92346,-3.8477 -6.70504,-7.24135 -8.92005,-13.37018c-0.34023,-0.94141 0.31567,-2.05308 0,-3.003c-1.58659,-4.77438 -4.88465,-8.9292 -6.07131,-13.81835c-1.05597,-4.35068 -0.41437,-8.96202 -0.13533,-13.43032c0.03597,-0.57595 0.83893,-1.12332 0.5709,-1.63438c-0.6575,-1.25368 -2.54205,-1.66452 -3.003,-3.003c-1.70914,-4.96288 -0.5709,-14.10412 -0.5709,-19.38664v-4.5045c0,0 0,-5.62553 4.87208,-7.13243z" fill="#e5d15c" stroke-width="0.5"/><path d="M313.40284,254.53033c-2.7229,0.00476 -6.10993,0.60206 -8.36395,-1.31653c-1.59554,-1.3581 -2.46314,-4.04933 -0.64064,-5.74356c0.61646,-0.57307 1.70805,-0.26501 2.42378,-0.70791c0.40056,-2.56925 1.98551,-4.76668 1.98551,-7.41069c0,-0.59459 0.15665,-1.36912 -0.23963,-1.91877c-0.60671,-0.84152 -2.38749,-0.50699 -3.2033,-0.50829c-2.42258,-0.00385 -5.78663,-0.30122 -7.3372,-2.59911c-0.81055,-1.20121 -0.76163,-3.82793 -0.56115,-5.21308c0.10785,-0.74514 0.01453,-1.65912 0.54691,-2.1915c1.46349,-1.46349 4.45451,-0.34044 5.86074,0.33948c1.70167,1.41032 2.03587,1.35017 4.16878,1.02723c0.21664,-0.0328 0.53514,0.17881 0.65732,-0.00308c0.12651,-0.18835 -0.16506,-0.42371 -0.22335,-0.64299c-0.12156,-0.45724 -0.21284,-0.92201 -0.31547,-1.38387c-0.36851,-1.65828 -0.58774,-3.4749 -0.3598,-5.18077c0.31099,-2.32734 0.95002,-5.53421 2.25785,-7.52916c1.46468,-2.23421 5.88916,-3.06423 8.22718,-1.94746c1.06706,0.50969 1.96882,2.12547 2.57349,3.02706c1.44761,2.54256 2.79226,5.34089 1.62404,8.27715c-0.54209,1.36251 -1.11576,1.73985 -2.04902,2.86123c-0.32091,0.38559 -0.90372,0.76223 -0.82627,1.25787c0.05173,0.33105 0.67511,0.09572 1.00461,0.03487c1.12047,-0.20692 1.19358,-0.30953 2.25517,-0.87203c2.06704,-1.09525 5.65271,-2.14997 6.76517,0.93988c0.23719,0.65878 -0.03604,1.40265 -0.12972,2.09653c-0.3509,2.59926 -1.41763,3.72979 -3.50929,5.1561c-1.88833,0.9452 -4.03505,1.90379 -6.06016,2.4982c-0.59055,0.17334 -1.50987,-0.11456 -1.93428,0.58625c-0.37333,0.61646 0.13029,1.43571 0.17333,2.15512c0.12843,2.1469 0.33669,4.22082 0.96405,6.30507c0.66468,2.20821 2.08819,5.31154 0.47149,7.58224c-0.83743,1.17619 -2.37209,1.18934 -3.58621,1.35563c0,0 -0.81307,0.10164 -1.22783,-0.50267z" data-paper-data="{&quot;index&quot;:null}" fill="#e9d877" stroke-width="0.5"/><path d="M419.98652,229.57022c-0.41476,0.60431 -1.22783,0.50267 -1.22783,0.50267c-1.21412,-0.16629 -2.74878,-0.17944 -3.58621,-1.35563c-1.6167,-2.2707 -0.19319,-5.37403 0.47149,-7.58224c0.62736,-2.08425 0.83562,-4.15817 0.96405,-6.30507c0.04304,-0.71941 0.54666,-1.53866 0.17333,-2.15512c-0.42441,-0.70081 -1.34373,-0.41291 -1.93428,-0.58625c-2.02511,-0.59441 -4.17183,-1.553 -6.06016,-2.4982c-2.09166,-1.42631 -3.15839,-2.55684 -3.50929,-5.1561c-0.09368,-0.69388 -0.36691,-1.43775 -0.12972,-2.09653c1.11246,-3.08985 4.69813,-2.03513 6.76517,-0.93988c1.06159,0.5625 1.1347,0.66511 2.25517,0.87203c0.3295,0.06085 0.95288,0.29618 1.00461,-0.03487c0.07745,-0.49564 -0.50536,-0.87228 -0.82627,-1.25787c-0.93326,-1.12138 -1.50693,-1.49872 -2.04902,-2.86123c-1.16822,-2.93626 0.17643,-5.73459 1.62404,-8.27715c0.60467,-0.90159 1.50643,-2.51737 2.57349,-3.02706c2.33802,-1.11677 6.7625,-0.28675 8.22718,1.94746c1.30783,1.99495 1.94686,5.20182 2.25785,7.52916c0.22794,1.70587 0.00871,3.52249 -0.3598,5.18077c-0.10263,0.46186 -0.19391,0.92663 -0.31547,1.38387c-0.05829,0.21928 -0.34986,0.45464 -0.22335,0.64299c0.12218,0.18189 0.44068,-0.02972 0.65732,0.00308c2.13291,0.32294 2.46711,0.38309 4.16878,-1.02723c1.40623,-0.67992 4.39725,-1.80297 5.86074,-0.33948c0.53238,0.53238 0.43906,1.44636 0.54691,2.1915c0.20048,1.38515 0.2494,4.01187 -0.56115,5.21308c-1.55057,2.29789 -4.91462,2.59526 -7.3372,2.59911c-0.81581,0.0013 -2.59659,-0.33323 -3.2033,0.50829c-0.39628,0.54965 -0.23963,1.32418 -0.23963,1.91877c0,2.64401 1.58495,4.84144 1.98551,7.41069c0.71573,0.4429 1.80732,0.13484 2.42378,0.70791c1.8225,1.69423 0.9549,4.38546 -0.64064,5.74356c-2.25402,1.91859 -5.64105,1.32129 -8.36395,1.31653z" data-paper-data="{&quot;index&quot;:null}" fill="#e9d877" stroke-width="0.5"/><path d="M90.45747,255.917c-0.56327,0.82069 -1.66746,0.68266 -1.66746,0.68266c-1.64885,-0.22583 -3.733,-0.24369 -4.87028,-1.84102c-2.19557,-3.08374 -0.26236,-7.29824 0.64031,-10.29712c0.85199,-2.83053 1.13482,-5.64704 1.30924,-8.56265c0.05845,-0.977 0.7424,-2.08959 0.23539,-2.92678c-0.57637,-0.95174 -1.82486,-0.56076 -2.62686,-0.79616c-2.75022,-0.80724 -5.66559,-2.10906 -8.23005,-3.3927c-2.8406,-1.93701 -4.28928,-3.47234 -4.76582,-7.00228c-0.12722,-0.94233 -0.49829,-1.95255 -0.17617,-2.84721c1.51079,-4.1962 6.38033,-2.76382 9.18749,-1.27641c1.4417,0.76391 1.54099,0.90326 3.06265,1.18427c0.44748,0.08264 1.29407,0.40223 1.36432,-0.04736c0.10518,-0.67311 -0.68631,-1.18461 -1.12212,-1.70826c-1.26742,-1.5229 -2.0465,-2.03535 -2.78269,-3.88572c-1.58651,-3.98761 0.2396,-7.78791 2.20554,-11.24085c0.82118,-1.22441 2.04582,-3.41873 3.49495,-4.11092c3.17517,-1.51664 9.18387,-0.38942 11.17299,2.64476c1.77611,2.70926 2.64395,7.06437 3.06629,10.22504c0.30956,2.31667 0.01183,4.78375 -0.48863,7.03579c-0.13938,0.62723 -0.26334,1.25842 -0.42843,1.87938c-0.07916,0.29779 -0.47513,0.61743 -0.30332,0.87322c0.16593,0.24702 0.59847,-0.04036 0.89268,0.00418c2.89662,0.43857 3.35048,0.52026 5.66144,-1.39504c1.90974,-0.92337 5.97172,-2.44854 7.95922,-0.46103c0.723,0.723 0.59627,1.96424 0.74274,2.97618c0.27226,1.88111 0.3387,5.44835 -0.76207,7.07966c-2.10576,3.12067 -6.67434,3.52451 -9.96434,3.52974c-1.10792,0.00177 -3.52632,-0.45255 -4.35027,0.69029c-0.53817,0.74646 -0.32543,1.79831 -0.32543,2.6058c0,3.59072 2.15245,6.57496 2.69644,10.06415c0.972,0.60148 2.45445,0.18312 3.29163,0.96138c2.47506,2.30086 1.29681,5.95571 -0.87003,7.80009c-3.06109,2.60556 -7.66087,1.79439 -11.35873,1.78792z" fill="#e9d877" stroke-width="0.5"/><path d="M127.17744,195.16477c-0.41476,0.60431 -1.22783,0.50267 -1.22783,0.50267c-1.21412,-0.16629 -2.74878,-0.17944 -3.58621,-1.35563c-1.6167,-2.2707 -0.19319,-5.37403 0.47149,-7.58224c0.62736,-2.08425 0.83562,-4.15817 0.96405,-6.30507c0.04304,-0.71941 0.54666,-1.53866 0.17333,-2.15512c-0.42441,-0.70081 -1.34373,-0.41291 -1.93428,-0.58625c-2.02511,-0.59441 -4.17183,-1.553 -6.06016,-2.4982c-2.09166,-1.42631 -3.15839,-2.55684 -3.50929,-5.1561c-0.09368,-0.69388 -0.36691,-1.43775 -0.12972,-2.09653c1.11246,-3.08985 4.69813,-2.03513 6.76517,-0.93988c1.06159,0.5625 1.1347,0.66511 2.25517,0.87203c0.3295,0.06085 0.95288,0.29618 1.00461,-0.03487c0.07745,-0.49564 -0.50536,-0.87228 -0.82627,-1.25787c-0.93326,-1.12138 -1.50693,-1.49872 -2.04902,-2.86123c-1.16822,-2.93626 0.17643,-5.73459 1.62404,-8.27715c0.60467,-0.90159 1.50643,-2.51737 2.57349,-3.02706c2.33802,-1.11677 6.7625,-0.28675 8.22718,1.94746c1.30783,1.99495 1.94686,5.20182 2.25785,7.52916c0.22794,1.70587 0.00871,3.52249 -0.3598,5.18077c-0.10263,0.46186 -0.19391,0.92663 -0.31547,1.38387c-0.05829,0.21928 -0.34986,0.45464 -0.22335,0.64299c0.12218,0.18189 0.44068,-0.02972 0.65732,0.00308c2.13291,0.32294 2.46711,0.38309 4.16878,-1.02723c1.40623,-0.67992 4.39725,-1.80297 5.86074,-0.33948c0.53238,0.53238 0.43906,1.44636 0.54691,2.1915c0.20048,1.38515 0.2494,4.01187 -0.56115,5.21308c-1.55057,2.29789 -4.91462,2.59526 -7.3372,2.59911c-0.81581,0.0013 -2.59659,-0.33323 -3.2033,0.50829c-0.39628,0.54965 -0.23963,1.32418 -0.23963,1.91877c0,2.64401 1.58495,4.84144 1.98551,7.41069c0.71573,0.4429 1.80732,0.13484 2.42378,0.70791c1.8225,1.69423 0.9549,4.38546 -0.64064,5.74356c-2.25402,1.91859 -5.64105,1.32129 -8.36395,1.31653z" fill="#e9d877" stroke-width="0.5"/><path d="M173.76169,202.04737c-2.37239,0.00415 -5.32342,0.52456 -7.28729,-1.14706c-1.39015,-1.18328 -2.14607,-3.52807 -0.55817,-5.00421c0.53711,-0.4993 1.48818,-0.2309 2.11177,-0.61678c0.349,-2.23852 1.72992,-4.15308 1.72992,-6.45674c0,-0.51805 0.13648,-1.19288 -0.20878,-1.67177c-0.52861,-0.73319 -2.08016,-0.44173 -2.79095,-0.44286c-2.11073,-0.00335 -5.04174,-0.26244 -6.39271,-2.26454c-0.70621,-1.04658 -0.66359,-3.33517 -0.48892,-4.54202c0.09397,-0.64922 0.01266,-1.44555 0.47651,-1.9094c1.2751,-1.2751 3.8811,-0.29662 5.10631,0.29578c1.48262,1.22877 1.7738,1.17637 3.63215,0.895c0.18875,-0.02858 0.46625,0.15579 0.57271,-0.00268c0.11022,-0.1641 -0.14381,-0.36917 -0.1946,-0.56022c-0.10591,-0.39838 -0.18544,-0.80332 -0.27486,-1.20573c-0.32107,-1.44482 -0.51208,-3.02759 -0.31348,-4.51387c0.27096,-2.02775 0.82773,-4.82181 1.9672,-6.55996c1.27614,-1.94661 5.13107,-2.66978 7.16812,-1.69677c0.9297,0.44408 1.71538,1.85187 2.24221,2.6374c1.26126,2.21526 2.43282,4.65338 1.41498,7.21166c-0.47231,1.18712 -0.97213,1.51588 -1.78526,2.49291c-0.2796,0.33595 -0.78739,0.66411 -0.71991,1.09595c0.04507,0.28844 0.58821,0.0834 0.87529,0.03038c0.97624,-0.18028 1.03993,-0.26969 1.96487,-0.75978c1.80096,-0.95426 4.92506,-1.87321 5.89431,0.81889c0.20666,0.57398 -0.0314,1.22209 -0.11302,1.82665c-0.30573,2.26467 -1.23514,3.24967 -3.05755,4.49237c-1.64525,0.82353 -3.51563,1.65872 -5.28006,2.17662c-0.51453,0.15103 -1.31551,-0.09981 -1.68529,0.51078c-0.32527,0.53711 0.11352,1.2509 0.15102,1.8777c0.1119,1.87054 0.29335,3.67749 0.83995,5.49344c0.57912,1.92395 1.81938,4.6278 0.4108,6.6062c-0.72963,1.02478 -2.06674,1.03624 -3.12457,1.18112c0,0 -0.70841,0.08856 -1.06978,-0.43796z" data-paper-data="{&quot;index&quot;:null}" fill="#e9d877" stroke-width="0.5"/><path d="M274.31817,241.2897c-1.89282,0.00331 -4.24732,0.41852 -5.8142,-0.91519c-1.10914,-0.94408 -1.71225,-2.81489 -0.44534,-3.99264c0.42853,-0.39837 1.18735,-0.18422 1.68489,-0.4921c0.27845,-1.78602 1.38023,-3.31356 1.38023,-5.15154c0,-0.41333 0.1089,-0.95174 -0.16658,-1.33383c-0.42175,-0.58498 -1.65966,-0.35243 -2.22678,-0.35334c-1.68406,-0.00268 -4.02258,-0.20939 -5.10046,-1.80677c-0.56345,-0.83502 -0.52945,-2.66099 -0.39008,-3.62387c0.07497,-0.51798 0.0101,-1.15334 0.38018,-1.52342c1.01735,-1.01735 3.09655,-0.23666 4.0741,0.23599c1.18292,0.98038 1.41524,0.93857 2.89793,0.71408c0.1506,-0.0228 0.372,0.1243 0.45694,-0.00214c0.08794,-0.13093 -0.11474,-0.29454 -0.15526,-0.44697c-0.0845,-0.31785 -0.14796,-0.64094 -0.2193,-0.962c-0.25617,-1.15275 -0.40857,-2.41558 -0.25012,-3.60141c0.21618,-1.61785 0.66041,-3.84711 1.56955,-5.2339c1.01817,-1.55311 4.09385,-2.1301 5.71913,-1.35378c0.74177,0.35431 1.36863,1.47752 1.78896,2.10426c1.00631,1.76746 1.94104,3.71272 1.12895,5.75386c-0.37683,0.94715 -0.77562,1.20946 -1.42438,1.98899c-0.22308,0.26804 -0.62822,0.52986 -0.57438,0.87441c0.03596,0.23013 0.4693,0.06654 0.69836,0.02424c0.7789,-0.14384 0.82972,-0.21517 1.56768,-0.60619c1.4369,-0.76136 3.92948,-1.49455 4.70281,0.65336c0.16488,0.45795 -0.02505,0.97505 -0.09017,1.4574c-0.24393,1.80688 -0.98547,2.59276 -2.43948,3.58426c-1.31267,0.65706 -2.80497,1.32342 -4.21272,1.73662c-0.41052,0.1205 -1.04959,-0.07964 -1.34462,0.40753c-0.25952,0.42853 0.09057,0.99803 0.12049,1.49813c0.08928,1.49242 0.23405,2.9341 0.67016,4.38297c0.46205,1.53504 1.45161,3.69232 0.32776,5.2708c-0.58214,0.81763 -1.64896,0.82677 -2.49296,0.94237c0,0 -0.56521,0.07066 -0.85353,-0.34943z" data-paper-data="{&quot;index&quot;:null}" fill="#e9d877" stroke-width="0.5"/><path d="M-12.41268,140.95739v-38.55661h523v38.55661z" fill="#2a2a2a" stroke-width="0"/><path d="M-18.39994,129.13754v-40.25296h528.99618v40.25296z" fill="#383838" stroke-width="0"/><text transform="translate(105.78517,121.35889) scale(0.56305,0.56305)" font-size="40" xml:space="preserve" fill="#000000" fill-rule="nonzero" stroke="none" stroke-width="1" stroke-linecap="butt" stroke-linejoin="miter" stroke-miterlimit="10" stroke-dasharray="" stroke-dashoffset="0" font-family="Pixel" font-weight="normal" text-anchor="start" style="mix-blend-mode: normal"><tspan x="0" dy="0">Viajando pelo deserto...</tspan></text><text transform="translate(106.32551,118.65718) scale(0.56305,0.56305)" font-size="40" xml:space="preserve" fill="#ffffff" fill-rule="nonzero" stroke="none" stroke-width="1" stroke-linecap="butt" stroke-linejoin="miter" stroke-miterlimit="10" stroke-dasharray="" stroke-dashoffset="0" font-family="Pixel" font-weight="normal" text-anchor="start" style="mix-blend-mode: normal"><tspan x="0" dy="0">Viajando pelo deserto...</tspan></text></g></g></svg>