<svg version="1.1" xmlns="http://www.w3.org/2000/svg" xmlns:xlink="http://www.w3.org/1999/xlink" width="105.17142" height="80.66493" viewBox="0,0,105.17142,80.66493"><g transform="translate(-187.30203,-155.16598)"><g data-paper-data="{&quot;isPaintingLayer&quot;:true}" fill-rule="nonzero" stroke="none" stroke-linecap="butt" stroke-linejoin="miter" stroke-miterlimit="10" stroke-dasharray="" stroke-dashoffset="0" style="mix-blend-mode: normal"><path d="M292.43948,203.6025c0,17.79927 -23.47795,32.22842 -52.43947,32.22842c-28.96152,0 -52.43947,-14.42916 -52.43947,-32.22842c0,-17.79927 23.47795,-32.22842 52.43947,-32.22842c28.96152,0 52.43947,14.42916 52.43947,32.22842z" fill="#7083e3" stroke-width="0"/><path d="M283.82124,185.80067c2.04808,-1.42132 3.48174,0.60914 3.48174,0.60914l1.4572,2.06601c1.24034,1.5462 2.93102,3.36129 3.42958,5.34673c0.80509,3.20612 -0.27834,7.11462 -1.07631,10.17942c-0.95115,3.6531 -2.02322,7.76039 -4.28256,10.87186c-2.73366,3.76468 -6.89583,7.7868 -10.32915,10.89492c-10.82668,7.42959 -23.02387,9.06346 -35.94079,9.06346c-4.97033,0 -10.14867,-0.00481 -15.01194,-0.88412c-4.0418,-0.73078 -8.10164,-2.62392 -12.1346,-3.55503c-2.88718,-1.69006 -6.03334,-2.35548 -8.74594,-4.37396c-2.15447,-1.60317 -3.93187,-3.56223 -6.25117,-4.97965c-4.88983,-2.98836 -9.22984,-6.21722 -10.76304,-12.1027c-0.94043,-3.61002 0.17623,-8.74127 1.31111,-12.24898c0.95504,-2.95186 2.64299,-5.69994 4.45002,-8.18416c0,0 1.47043,-2.00446 3.49227,-0.54667c2.02184,1.45779 0.55141,3.46223 0.55141,3.46223c-1.49088,2.01205 -2.93955,4.31764 -3.71522,6.72771c-0.797,2.47633 -2.01445,6.891 -1.26739,9.47974c1.35226,4.68588 4.67566,6.79703 8.5757,9.19997c2.45347,1.51165 4.38502,3.50933 6.64132,5.24564c2.29109,1.76308 5.11954,2.22832 7.58455,3.72104c3.70523,0.81208 7.38497,2.6257 11.07188,3.26183c4.62104,0.79731 9.48861,0.82011 14.21103,0.82011c11.61088,0 23.11592,-1.13448 32.81915,-7.97868c6.0904,-5.45757 10.80921,-11.20733 12.89226,-19.13435c0.58049,-2.20903 1.60609,-5.35543 1.07244,-7.71483c-0.1913,-0.84579 -2.25079,-3.18655 -2.58692,-3.60039l-1.55105,-2.19451c0,0 -1.43366,-2.03047 0.61442,-3.45179z" fill="#455fe3" stroke-width="0.5"/><path d="" fill="#d50000" stroke-width="0.5"/><path d="" fill="#4e4e4e" stroke-width="0.5"/><path d="" fill="#3a3a3a" stroke-width="0.5"/><path d="" fill="#7c7c7c" stroke-width="0.5"/><g><path d="M259.22769,178.394l-0.90891,0.78026c0,0 -0.65484,0.56215 -1.44228,0.34152c-1.85975,2.43813 -4.42165,4.50866 -6.50647,6.8601c-1.55518,1.75407 -2.92548,3.65173 -4.36151,5.47526c-0.39674,0.5038 -0.48849,1.25047 -1.09621,1.56294c-0.11026,0.05669 -0.22339,0.10765 -0.33891,0.15376l0.03172,0.04766l-1.56839,0.76937c-0.21788,0.11152 -0.47255,0.17559 -0.74464,0.17559c-0.80418,0 -1.4561,-0.55964 -1.4561,-1.25c0,-0.17413 0.04148,-0.33995 0.11641,-0.49056l0.89022,-1.91053c0.08882,-0.21275 0.74472,-2.15774 1.60824,-3.31319c-1.549,0.60924 -3.75014,1.36422 -4.03638,1.51476c-1.90778,1.00334 -4.009,1.86043 -5.67586,3.1654c-0.64521,0.50512 -0.96266,1.35145 -1.7521,1.67185c-1.09947,0.44622 -2.6705,1.17267 -3.60146,0.50091c-0.91629,-0.66117 -0.13932,-2.06462 0.02358,-3.08262c0.3072,-1.91978 1.689,-3.99204 2.90109,-5.57671c0.31307,-0.40264 0.60528,-0.81782 0.93921,-1.20791c0.34783,-0.40631 0.69383,-0.815 1.05784,-1.21087c-1.81307,0.81019 -4.15547,1.73049 -5.27394,1.94199c-1.20848,0.22852 -2.67608,0.77504 -3.70602,0.18618c-1.82321,-1.0424 0.05405,-3.60049 0.47449,-4.53974c1.20254,-2.68641 2.63607,-4.98934 4.74813,-7.08879c-0.06837,0.00845 -0.13827,0.01282 -0.20937,0.01282c-0.80418,0 -1.4561,-0.55964 -1.4561,-1.25c0,-0.26266 0.09437,-0.5064 0.25559,-0.70759l0.89787,-1.15617l0.01076,0.00616l0.0121,-0.03475c1.90649,-2.18219 3.55472,-4.87529 5.52271,-6.90471c1.54724,-1.59553 4.96291,-3.16076 6.95623,-4.17192c3.05786,-1.55116 5.0317,-3.06339 8.7058,-3.10601c0,0 1.1029,0 1.38898,0.824c6.64689,4.32036 14.7068,14.72222 7.59362,21.01153z" fill="#d50000" stroke-width="0.5"/><path d="M253.87838,176.7246l-0.60694,0.52103c0,0 -0.43727,0.37538 -0.9631,0.22805c-1.24186,1.62808 -2.95261,3.01071 -4.34477,4.58091c-1.03849,1.1713 -1.95353,2.43849 -2.91245,3.65617c-0.26493,0.33642 -0.3262,0.83501 -0.73201,1.04366c-0.07363,0.03786 -0.14917,0.07189 -0.22631,0.10268l0.02119,0.03182l-1.04731,0.51376c-0.1455,0.07447 -0.31554,0.11725 -0.49723,0.11725c-0.537,0 -0.97233,-0.37371 -0.97233,-0.8347c0,-0.11628 0.0277,-0.227 0.07773,-0.32758l0.59446,-1.27578c0.05931,-0.14207 0.4973,-1.44085 1.07393,-2.21242c-1.03436,0.40682 -2.5042,0.91097 -2.69534,1.01149c-1.27394,0.67 -2.67706,1.24232 -3.79012,2.11373c-0.43084,0.3373 -0.64283,0.90245 -1.16998,1.1164c-0.73418,0.29797 -1.78326,0.78306 -2.40491,0.33449c-0.61186,-0.44151 -0.09304,-1.37867 0.01574,-2.05845c0.20514,-1.28196 1.12785,-2.66573 1.93724,-3.72391c0.20906,-0.26887 0.40418,-0.54611 0.62717,-0.8066c0.23227,-0.27131 0.46331,-0.54423 0.70639,-0.80857c-1.2107,0.54101 -2.77486,1.15555 -3.52173,1.29678c-0.80697,0.1526 -1.78699,0.51754 -2.47475,0.12432c-1.21747,-0.69608 0.0361,-2.40427 0.31685,-3.03146c0.80301,-1.79388 1.76026,-3.33169 3.17062,-4.73363c-0.04565,0.00564 -0.09233,0.00857 -0.13981,0.00857c-0.537,0 -0.97232,-0.37371 -0.97232,-0.8347c0,-0.1754 0.06301,-0.33815 0.17067,-0.4725l0.59957,-0.77205l0.00718,0.00411l0.00808,-0.0232c1.27308,-1.45719 2.37371,-3.25554 3.68786,-4.6107c1.03319,-1.06544 3.31404,-2.11064 4.64511,-2.78584c2.04193,-1.03581 3.35998,-2.04562 5.8134,-2.07408c0,0 0.73647,0 0.9275,0.55024c4.43855,2.88497 9.82065,9.83094 5.07073,14.0307z" fill="#ffa000" stroke-width="0.5"/><path d="M235.57023,169.141c0,-7.6338 6.18841,-13.82222 13.82222,-13.82222c7.6338,0 13.82222,6.18842 13.82222,13.82222c0,7.6338 -6.18842,13.82222 -13.82222,13.82222c-7.6338,0 -13.82221,-6.18841 -13.82221,-13.82221z" fill="#4e4e4e" stroke-width="0"/><path d="M258.06057,177.61822c1.0225,0.63833 0.409,1.70221 0.409,1.70221l-0.34911,0.57676c-3.06832,3.73252 -7.59371,2.94088 -11.74624,2.37195c-10.43076,-1.39378 -13.47101,-13.62568 -7.58713,-21.59699c0,0 0.72704,-0.9834 1.67219,-0.22694c0.94515,0.75646 0.21811,1.73986 0.21811,1.73986c-4.76665,6.43636 -2.65138,16.53364 6.00234,17.62314c3.13894,0.44027 7.29747,1.49405 9.60864,-1.49956l0.13622,-0.26487c0,0 0.6135,-1.06388 1.636,-0.42556z" fill="#3a3a3a" stroke-width="0.5"/><path d="M260.95438,163.36018c-1.01716,0.72655 -1.74371,-0.29062 -1.74371,-0.29062l-0.62754,-0.94705c-1.67574,-4.80631 -9.53928,-4.81574 -13.55748,-4.18467c0,0 -1.23547,0.19007 -1.42553,-1.0454c-0.19007,-1.23547 1.04539,-1.42553 1.04539,-1.42553c5.49468,-0.83021 13.81599,-0.25413 16.27099,5.75815l0.3285,0.3914c0,0 0.72655,1.01717 -0.29062,1.74372z" fill="#7c7c7c" stroke-width="0.5"/><path d="M260.5075,165.68915c0,-0.69036 0.55964,-1.25 1.25,-1.25c0.69035,0 1.25,0.55964 1.25,1.25c0,0.69036 -0.55965,1.25 -1.25,1.25c-0.69036,0 -1.25,-0.55964 -1.25,-1.25z" fill="#7c7c7c" stroke-width="0.5"/></g><g><path d="M230.48388,203.77393l-0.90891,0.78026c0,0 -0.65483,0.56215 -1.44227,0.34152c-1.85974,2.43813 -4.42165,4.50866 -6.50646,6.8601c-1.55518,1.75407 -2.92548,3.65173 -4.36151,5.47526c-0.39674,0.5038 -0.48849,1.25047 -1.09621,1.56294c-0.11026,0.05669 -0.22339,0.10765 -0.33891,0.15376l0.03172,0.04766l-1.56839,0.76937c-0.21788,0.11152 -0.47255,0.17559 -0.74464,0.17559c-0.80418,0 -1.4561,-0.55964 -1.4561,-1.25c0,-0.17413 0.04148,-0.33995 0.11641,-0.49056l0.89022,-1.91053c0.08882,-0.21275 0.74472,-2.15774 1.60824,-3.31319c-1.549,0.60924 -3.75014,1.36422 -4.03638,1.51476c-1.90778,1.00334 -4.009,1.86043 -5.67586,3.1654c-0.64521,0.50512 -0.96266,1.35145 -1.7521,1.67185c-1.09947,0.44622 -2.6705,1.17267 -3.60146,0.50091c-0.91629,-0.66117 -0.13932,-2.06462 0.02358,-3.08262c0.3072,-1.91978 1.689,-3.99204 2.90109,-5.57671c0.31307,-0.40264 0.60528,-0.81782 0.93921,-1.20791c0.34783,-0.40631 0.69383,-0.815 1.05784,-1.21087c-1.81307,0.81019 -4.15547,1.73049 -5.27394,1.94199c-1.20848,0.22852 -2.67608,0.77504 -3.70602,0.18618c-1.82321,-1.0424 0.05405,-3.60049 0.47449,-4.53974c1.20254,-2.68641 2.63607,-4.98934 4.74813,-7.08879c-0.06837,0.00845 -0.13827,0.01282 -0.20937,0.01282c-0.80418,0 -1.4561,-0.55964 -1.4561,-1.25c0,-0.26266 0.09437,-0.5064 0.25559,-0.70759l0.89787,-1.15617l0.01076,0.00616l0.0121,-0.03475c1.90649,-2.18219 3.55472,-4.87529 5.52271,-6.90471c1.54724,-1.59553 4.96291,-3.16076 6.95623,-4.17192c3.05786,-1.55116 5.0317,-3.06339 8.7058,-3.10601c0,0 1.1029,0 1.38898,0.824c6.64689,4.32036 14.7068,14.72222 7.59361,21.01153z" fill="#d50000" stroke-width="0.5"/><path d="M225.13456,202.10453l-0.60694,0.52103c0,0 -0.43727,0.37538 -0.9631,0.22805c-1.24186,1.62808 -2.95261,3.01071 -4.34477,4.58091c-1.03849,1.1713 -1.95353,2.43849 -2.91245,3.65617c-0.26493,0.33642 -0.3262,0.83501 -0.73201,1.04366c-0.07363,0.03786 -0.14917,0.07189 -0.22631,0.10268l0.02119,0.03182l-1.04731,0.51376c-0.1455,0.07447 -0.31554,0.11725 -0.49723,0.11725c-0.537,0 -0.97233,-0.37371 -0.97233,-0.8347c0,-0.11628 0.0277,-0.227 0.07773,-0.32758l0.59446,-1.27578c0.05931,-0.14207 0.4973,-1.44085 1.07393,-2.21242c-1.03436,0.40682 -2.5042,0.91097 -2.69534,1.01149c-1.27394,0.67 -2.67706,1.24232 -3.79012,2.11373c-0.43084,0.3373 -0.64283,0.90245 -1.16998,1.1164c-0.73418,0.29797 -1.78326,0.78306 -2.40491,0.33449c-0.61186,-0.44151 -0.09304,-1.37867 0.01574,-2.05845c0.20514,-1.28196 1.12785,-2.66573 1.93724,-3.72391c0.20906,-0.26887 0.40418,-0.54611 0.62717,-0.8066c0.23227,-0.27131 0.46331,-0.54423 0.70639,-0.80857c-1.2107,0.54101 -2.77486,1.15555 -3.52173,1.29678c-0.80697,0.1526 -1.78699,0.51754 -2.47475,0.12432c-1.21747,-0.69608 0.0361,-2.40427 0.31685,-3.03146c0.80301,-1.79388 1.76026,-3.33169 3.17062,-4.73363c-0.04565,0.00564 -0.09233,0.00857 -0.13981,0.00857c-0.537,0 -0.97232,-0.37371 -0.97232,-0.8347c0,-0.1754 0.06301,-0.33815 0.17067,-0.4725l0.59957,-0.77205l0.00718,0.00411l0.00808,-0.0232c1.27308,-1.45719 2.37371,-3.25554 3.68786,-4.6107c1.03319,-1.06544 3.31404,-2.11064 4.64511,-2.78584c2.04193,-1.03581 3.35998,-2.04562 5.8134,-2.07408c0,0 0.73647,0 0.9275,0.55024c4.43855,2.88497 9.82065,9.83094 5.07073,14.0307z" fill="#ffa000" stroke-width="0.5"/><path d="M206.82642,194.52092c0,-7.6338 6.18841,-13.82222 13.82222,-13.82222c7.6338,0 13.82222,6.18842 13.82222,13.82222c0,7.6338 -6.18841,13.82222 -13.82222,13.82222c-7.6338,0 -13.82221,-6.18841 -13.82221,-13.82221z" fill="#4e4e4e" stroke-width="0"/><path d="M229.31676,202.99814c1.0225,0.63833 0.409,1.70221 0.409,1.70221l-0.34911,0.57676c-3.06832,3.73252 -7.59371,2.94088 -11.74624,2.37195c-10.43076,-1.39378 -13.47101,-13.62568 -7.58713,-21.59699c0,0 0.72704,-0.9834 1.67219,-0.22694c0.94515,0.75646 0.21811,1.73986 0.21811,1.73986c-4.76665,6.43636 -2.65138,16.53364 6.00234,17.62314c3.13894,0.44027 7.29746,1.49405 9.60863,-1.49956l0.13622,-0.26487c0,0 0.6135,-1.06388 1.636,-0.42556z" fill="#3a3a3a" stroke-width="0.5"/><path d="M232.21057,188.7401c-1.01716,0.72655 -1.74372,-0.29062 -1.74372,-0.29062l-0.62753,-0.94705c-1.67574,-4.80631 -9.53928,-4.81574 -13.55748,-4.18467c0,0 -1.23547,0.19007 -1.42553,-1.04539c-0.19007,-1.23547 1.04539,-1.42553 1.04539,-1.42553c5.49468,-0.83021 13.81599,-0.25413 16.27098,5.75815l0.32851,0.3914c0,0 0.72655,1.01717 -0.29062,1.74372z" fill="#7c7c7c" stroke-width="0.5"/><path d="M231.76368,191.06908c0,-0.69036 0.55965,-1.25 1.25,-1.25c0.69036,0 1.25,0.55964 1.25,1.25c0,0.69036 -0.55964,1.25 -1.25,1.25c-0.69035,0 -1.25,-0.55964 -1.25,-1.25z" fill="#7c7c7c" stroke-width="0.5"/></g><g><path d="M280.59845,203.77393l-0.90891,0.78026c0,0 -0.65483,0.56215 -1.44227,0.34152c-1.85974,2.43813 -4.42165,4.50866 -6.50647,6.8601c-1.55518,1.75407 -2.92548,3.65173 -4.36151,5.47526c-0.39674,0.5038 -0.48848,1.25047 -1.09621,1.56294c-0.11026,0.05669 -0.22339,0.10765 -0.33891,0.15376l0.03172,0.04766l-1.56839,0.76937c-0.21788,0.11152 -0.47254,0.17559 -0.74463,0.17559c-0.80418,0 -1.4561,-0.55964 -1.4561,-1.25c0,-0.17413 0.04148,-0.33995 0.11641,-0.49056l0.89022,-1.91053c0.08881,-0.21275 0.74473,-2.15774 1.60825,-3.31319c-1.549,0.60924 -3.75014,1.36422 -4.03638,1.51476c-1.90778,1.00334 -4.009,1.86043 -5.67586,3.1654c-0.64521,0.50512 -0.96266,1.35145 -1.7521,1.67185c-1.09947,0.44622 -2.6705,1.17267 -3.60146,0.50091c-0.91629,-0.66117 -0.13931,-2.06462 0.02358,-3.08262c0.3072,-1.91978 1.689,-3.99204 2.90108,-5.57671c0.31307,-0.40264 0.60528,-0.81782 0.93921,-1.20791c0.34783,-0.40631 0.69383,-0.815 1.05785,-1.21087c-1.81307,0.81019 -4.15547,1.73049 -5.27394,1.94199c-1.20848,0.22852 -2.67608,0.77504 -3.70602,0.18618c-1.82321,-1.0424 0.05405,-3.60049 0.47449,-4.53974c1.20254,-2.68641 2.63607,-4.98934 4.74813,-7.08879c-0.06837,0.00845 -0.13827,0.01282 -0.20936,0.01282c-0.80418,0 -1.4561,-0.55964 -1.4561,-1.25c0,-0.26266 0.09437,-0.5064 0.25559,-0.70759l0.89787,-1.15617l0.01076,0.00616l0.01211,-0.03475c1.90649,-2.18219 3.55471,-4.87529 5.52271,-6.90471c1.54724,-1.59553 4.9629,-3.16076 6.95623,-4.17191c3.05786,-1.55116 5.0317,-3.0634 8.70581,-3.10602c0,0 1.1029,0 1.38898,0.824c6.64689,4.32036 14.7068,14.72222 7.59362,21.01153z" fill="#d50000" stroke-width="0.5"/><path d="M275.24913,202.10453l-0.60693,0.52103c0,0 -0.43727,0.37538 -0.9631,0.22805c-1.24186,1.62808 -2.95261,3.01071 -4.34477,4.58091c-1.03849,1.1713 -1.95352,2.43849 -2.91244,3.65617c-0.26493,0.33642 -0.32619,0.83501 -0.73201,1.04367c-0.07363,0.03786 -0.14917,0.07188 -0.22631,0.10267l0.02119,0.03182l-1.04732,0.51376c-0.14549,0.07447 -0.31555,0.11725 -0.49723,0.11725c-0.53701,0 -0.97233,-0.37371 -0.97233,-0.8347c0,-0.11628 0.0277,-0.227 0.07773,-0.32758l0.59446,-1.27578c0.05931,-0.14207 0.4973,-1.44085 1.07393,-2.21242c-1.03436,0.40682 -2.5042,0.91097 -2.69534,1.01149c-1.27394,0.67 -2.67706,1.24232 -3.79012,2.11373c-0.43084,0.3373 -0.64283,0.90245 -1.16999,1.1164c-0.73418,0.29797 -1.78326,0.78306 -2.40491,0.33449c-0.61186,-0.44151 -0.09304,-1.37867 0.01574,-2.05845c0.20514,-1.28196 1.12785,-2.66574 1.93724,-3.72392c0.20906,-0.26887 0.40418,-0.54611 0.62717,-0.8066c0.23226,-0.27131 0.46332,-0.54423 0.70639,-0.80857c-1.21071,0.54101 -2.77486,1.15555 -3.52173,1.29678c-0.80697,0.1526 -1.78699,0.51754 -2.47474,0.12432c-1.21747,-0.69608 0.03609,-2.40427 0.31685,-3.03146c0.80301,-1.79388 1.76027,-3.33169 3.17062,-4.73363c-0.04565,0.00564 -0.09234,0.00857 -0.13981,0.00857c-0.537,0 -0.97232,-0.37371 -0.97232,-0.8347c0,-0.1754 0.06301,-0.33815 0.17067,-0.4725l0.59957,-0.77205l0.00718,0.00411l0.00808,-0.0232c1.27308,-1.45719 2.3737,-3.25554 3.68786,-4.6107c1.03319,-1.06544 3.31404,-2.11064 4.64511,-2.78584c2.04193,-1.03581 3.35998,-2.04562 5.8134,-2.07408c0,0 0.73648,0 0.92751,0.55024c4.43854,2.88497 9.82064,9.83094 5.07073,14.0307z" fill="#ffa000" stroke-width="0.5"/><path d="M256.94099,194.52092c0,-7.6338 6.18841,-13.82222 13.82222,-13.82222c7.6338,0 13.82222,6.18842 13.82222,13.82222c0,7.6338 -6.18842,13.82222 -13.82222,13.82222c-7.6338,0 -13.82222,-6.18841 -13.82222,-13.82221z" fill="#4e4e4e" stroke-width="0"/><path d="M279.43133,202.99814c1.0225,0.63833 0.409,1.70221 0.409,1.70221l-0.34912,0.57676c-3.06831,3.73252 -7.59371,2.94088 -11.74624,2.37195c-10.43076,-1.39378 -13.47102,-13.62568 -7.58713,-21.59699c0,0 0.72704,-0.9834 1.67219,-0.22694c0.94515,0.75646 0.21812,1.73986 0.21812,1.73986c-4.76665,6.43636 -2.65139,16.53364 6.00234,17.62314c3.13894,0.44027 7.29746,1.49405 9.60863,-1.49956l0.13622,-0.26488c0,0 0.6135,-1.06388 1.636,-0.42556z" fill="#3a3a3a" stroke-width="0.5"/><path d="M282.32514,188.7401c-1.01716,0.72655 -1.74371,-0.29062 -1.74371,-0.29062l-0.62753,-0.94705c-1.67574,-4.80631 -9.53928,-4.81574 -13.55748,-4.18467c0,0 -1.23546,0.19007 -1.42553,-1.0454c-0.19007,-1.23547 1.04539,-1.42553 1.04539,-1.42553c5.49468,-0.83021 13.81598,-0.25412 16.27098,5.75815l0.3285,0.3914c0,0 0.72655,1.01717 -0.29062,1.74372z" fill="#7c7c7c" stroke-width="0.5"/><path d="M281.87825,191.06908c0,-0.69036 0.55964,-1.25 1.25,-1.25c0.69035,0 1.25,0.55964 1.25,1.25c0,0.69036 -0.55965,1.25 -1.25,1.25c-0.69036,0 -1.25,-0.55964 -1.25,-1.25z" fill="#7c7c7c" stroke-width="0.5"/></g></g></g></svg>