<svg version="1.1" xmlns="http://www.w3.org/2000/svg" xmlns:xlink="http://www.w3.org/1999/xlink" width="128.28479" height="100.74411" viewBox="0,0,128.28479,100.74411"><g transform="translate(-151.91462,-158.2953)"><g data-paper-data="{&quot;isPaintingLayer&quot;:true}" fill-rule="nonzero" stroke="none" stroke-linecap="butt" stroke-linejoin="miter" stroke-miterlimit="10" stroke-dasharray="" stroke-dashoffset="0" style="mix-blend-mode: normal"><path d="M165.30808,252.21299c-0.00727,0.03481 -0.01591,0.07042 -0.02604,0.10688c-0.41042,1.47913 -2.40422,1.37178 -2.40422,1.37178c-1.15421,-0.08924 -2.42821,0.05404 -3.46263,-0.26772c-2.41313,-0.75059 -3.50317,-3.275 -4.39236,-4.9103c-2.27536,-4.18459 -0.84507,-9.66755 0.45975,-14.21408c0.31604,-1.10118 -0.29014,-2.20962 0.1563,-3.29868c0.25526,-0.6227 1.03898,-1.1159 1.37562,-1.72494c0.93242,-1.68694 1.55002,-3.30835 2.66514,-5.00278c3.25398,-4.94298 8.82588,-8.1459 15.09867,-11.07957c2.34357,-1.09605 4.15967,-2.51062 6.32097,-3.73629c6.58235,-3.73284 15.01997,-6.00095 22.66972,-7.37312c1.70138,-0.13414 3.32164,-0.0672 4.95031,-0.0318c0.32196,-0.32036 0.79527,-0.56766 1.34644,-0.66742l2.42601,-0.43915l0.01497,0.08918l0.26771,-0.12605c1.82878,0.03127 3.09074,0.02028 4.33718,0.09271c0.09722,-0.01929 0.19339,-0.03781 0.28838,-0.05544l0.00165,-0.21123l2.4352,-0.22108c0.32145,-0.03255 0.62953,-0.00888 0.90481,0.0618c0.6441,-0.12185 1.2893,-0.24721 1.93832,-0.36327c4.10706,-0.73452 6.84369,0.08044 10.73263,0.35852c1.27793,0.09137 2.62286,-0.23454 3.93376,-0.33305c4.44569,-0.33406 11.46119,0.24751 14.98831,1.95693c1.90197,0.92179 2.25369,2.49487 4.28252,3.41655c1.44547,0.6895 3.18604,1.38581 4.05917,2.52644c0.66936,0.87446 -0.03271,2.09565 0.93803,2.88506c1.02378,0.83254 2.68918,1.20452 3.55995,2.12967c1.29169,1.37236 1.90844,3.29508 2.80833,4.84006c1.65153,2.83542 3.6009,6.18161 3.52067,9.47995c-0.09158,3.76519 -2.78962,7.3609 -5.17549,10.78116c-1.21255,0.54688 -2.28657,1.54721 -3.63765,1.64064c-1.86563,0.12902 -2.67169,-1.63175 -4.06274,-2.3991c-1.08111,-0.59637 -2.76168,-0.4424 -3.97865,-0.89758c-0.47599,-0.17803 -0.73801,-0.61055 -1.2736,-0.69524c-2.00294,-0.31672 -4.73691,1.46618 -6.72453,0.98934c-3.56545,-0.85537 -2.40337,-3.25535 -5.24134,-4.01692c-1.35113,-0.36258 -3.95956,0.28329 -5.34751,0.53579c-1.51441,0.27551 -3.04489,0.46089 -4.50748,0.76881c0.12685,0.15136 0.2123,0.327 0.24494,0.52148c0.13318,0.79373 -0.66381,1.601 -1.78013,1.80307l-2.72926,0.49404c-0.43512,0.0429 -0.8639,0.12505 -1.28717,0.23437l-0.81234,0.8228v0c-0.32214,0.32629 -0.80046,0.57863 -1.35862,0.67966c-1.11632,0.20207 -2.12923,-0.27756 -2.26241,-1.0713c-0.02973,-0.17719 -0.01311,-0.35506 0.04308,-0.52672c-3.54383,0.63137 -7.01505,1.16413 -10.55746,1.45588c-1.59134,0.13106 -3.13631,-0.15865 -4.7274,-0.03615c-2.83225,0.21805 -7.20595,0.93905 -9.34369,2.55205c-1.26931,0.95774 -3.96975,4.4728 -5.38295,4.7936c-1.60107,0.36347 -2.85728,-1.04414 -4.48047,-0.97741c-1.85299,0.3464 -4.06251,0.53594 -5.8112,1.22166c-2.15317,0.84433 -3.14529,2.76994 -5.06655,3.74119c-2.87165,1.4517 -5.95553,0.68206 -9.0124,1.92429z" fill="#3d850c" stroke-width="0.5"/><path d="M156.47348,245.26125c1.5775,-3.31568 4.02465,-7.00162 7.96514,-9.23435c1.34071,-0.75966 3.88877,-1.58017 5.49048,-1.82336c0.21436,-0.03255 2.61793,0.13457 3.16021,-0.32426c0.99946,-0.84565 0.85988,-2.13265 1.79787,-3.01275c3.92424,-3.68206 12.98921,-5.64054 18.51408,-5.09533c2.68592,-0.46809 3.36441,-1.42243 5.85976,-2.52575c3.36738,-1.48888 9.90051,-2.68694 13.56845,-2.64435c1.456,0.01691 3.51187,0.62937 4.70519,1.10051c0.36943,0.14585 0.54903,0.55474 0.99129,0.5561c1.19598,0.00371 4.21985,-2.04789 5.45736,-2.37691c6.53944,-1.73869 14.01941,-1.25649 19.82811,0.32105c1.32808,0.27438 2.33762,1.05903 3.70882,1.24448c1.64242,0.22215 3.26994,-1.09901 4.90662,-1.64494c1.76977,-0.59032 4.53171,-1.48641 6.47495,-1.24726c3.83679,0.47218 7.70896,3.87832 9.8207,5.95466c1.56952,1.5432 2.73409,4.61138 2.24317,6.75589c-0.32076,1.40122 -1.5575,2.16301 -2.13885,3.47045c-0.84186,1.89331 -2.20697,5.35131 -6.04279,5.62367c-1.21689,0.08641 -1.98138,-0.83464 -2.97208,-1.25195c-2.02189,-1.89829 -5.65966,-3.97524 -9.50484,-3.54212c-1.15902,0.13054 -3.99623,0.91073 -4.89539,0.726c-1.03528,-0.21269 -1.49557,-1.0771 -2.37921,-1.49176c-3.28478,-1.54148 -7.86006,-1.09546 -11.87622,-0.10342c-0.14472,0.2974 -0.40805,0.56798 -0.75155,0.77275l-1.89753,1.17064l-0.2191,-0.19819l-0.44419,0.48922c-0.17699,-0.02764 -0.35396,-0.05525 -0.53095,-0.08287c-0.05836,0.01602 -0.11852,0.02966 -0.18013,0.04135l-0.02112,0.15416l-1.90146,0.04262c-3.68968,0.64741 -7.35072,0.47715 -10.94046,1.13914c-1.52679,0.28155 -3.01331,0.85257 -4.55165,0.98399c-1.62472,0.1388 -3.01501,-0.61036 -4.58926,-0.75173c-1.12325,-0.10087 -4.16956,0.73188 -5.33189,1.03231c-4.68034,1.20972 -7.60509,4.18583 -11.67325,5.97374c-1.85288,0.35025 -4.39617,0.52367 -6.17619,1.11465c-2.35776,0.78281 -3.47002,2.39423 -5.47962,3.27861c-1.5476,0.68106 -3.43443,0.38246 -5.13849,0.68535c-1.65136,0.29351 -3.17616,1.01038 -4.76669,1.51c-3.47651,1.09205 -4.28666,3.6823 -8.35599,1.3139c-0.70657,-0.41124 -0.36091,-1.34138 -0.60977,-1.99373c-0.44329,-1.16202 -0.94679,-1.58595 -1.81819,-2.67018l-0.55665,-1.61044c0,0 -0.41964,-1.25834 1.25134,-1.82967z" fill="#36760b" stroke-width="0.5"/><path d="M162.40506,253.75199c5.06018,-2.86253 10.4954,-2.47573 15.70739,-4.6598c2.72265,-1.14091 3.37537,-2.19244 6.59988,-2.7904c2.87596,-0.53331 5.88962,0.15648 8.63569,-0.68731c-0.05609,-0.10286 -0.09532,-0.21389 -0.1151,-0.33184c-0.04506,-0.26855 0.01637,-0.53866 0.16061,-0.78635l0.8134,-1.4653l0.05811,0.01226l0.01868,-0.13606c1.04647,-1.25421 1.86493,-2.53599 3.74524,-3.35026c1.47761,-0.63987 3.07458,-0.75478 4.6455,-0.63137c0.78895,-0.3046 1.5246,-0.53423 2.1087,-0.65905c3.39373,-0.7252 5.72965,0.47664 9.09897,0.50638c3.15249,0.02783 6.04109,-1.02925 9.16848,-1.31739c1.70063,-0.15668 3.23811,0.51546 4.92962,0.48221c0.67021,-0.01318 1.20934,-0.13144 1.69001,-0.30919c-0.2285,-0.12207 -0.4335,-0.30799 -0.58614,-0.58318c-0.72417,-1.30554 1.17826,-2.00907 1.17826,-2.00907l2.48541,-0.87703c3.24337,-0.11346 7.63603,-0.36236 10.4256,0.78157c0.09221,0.03781 0.17794,0.08159 0.25899,0.1297c0.79629,0.27296 1.53658,0.60519 2.15504,1.0395c0.00903,0.00635 0.0432,0.04092 0.09698,0.09533c0.83341,-0.03332 1.83247,-0.35559 2.40715,-0.40992c0.36105,-0.03413 4.58808,-0.11847 5.06308,-0.0673c2.16396,0.23318 4.44175,0.5468 4.74898,1.64187c0.28083,0.1188 0.57016,0.24039 0.87251,0.36186l0.06423,0.39335l0.23516,-0.11021l1.01219,1.31698c0.12134,0.1486 0.20317,0.32005 0.23493,0.50939c0.10792,0.64318 -0.39495,1.29525 -1.18357,1.62699c0.69067,-0.06824 1.39001,-0.12331 2.04783,-0.28367l1.47921,-1.22853c0,0 1.47233,-1.15501 2.87801,-0.2248c1.40568,0.93021 -0.06665,2.08523 -0.06665,2.08523l-2.32919,1.75911c-0.92861,0.26786 -1.83051,0.63519 -2.78586,0.80358c-0.5348,0.09426 -1.14118,-0.2839 -1.59464,-0.03149c-0.55831,0.31077 -0.29555,1.0519 -0.83307,1.3828c-2.29839,1.41491 -5.89916,1.68941 -8.58157,2.12416c-1.82527,-0.34493 -5.26757,-1.46608 -7.37819,-0.57961c-2.40674,1.01084 -3.92422,2.13874 -6.84635,2.42695c-1.70375,0.16805 -3.4531,0.39963 -5.10029,0.24132c-1.91249,-0.1838 -3.55503,-1.36675 -5.83224,-0.93266c-2.08593,0.39764 -4.18475,1.76251 -6.13448,2.41847c-5.0661,1.70442 -11.6091,2.05405 -15.85528,-0.03266c-2.44107,0.83894 -4.40161,2.49435 -6.75599,3.50374c-2.31602,0.99294 -6.29954,1.94204 -8.84789,2.03257c-1.84874,0.06567 -4.95111,-1.34781 -6.70039,-1.05347c-1.33541,0.22471 -1.9414,1.62008 -3.20687,2.06344c-5.2224,1.82968 -10.48141,0.14722 -14.87102,-1.17318c0,0 -1.78495,-0.53761 -0.80633,-1.91976c0.26782,-0.37825 0.59602,-0.61272 0.93151,-0.75379c0.23177,-0.21639 0.45566,-0.34413 0.45566,-0.34413z" fill="#746b5d" stroke-width="0.5"/><path d="M184.88679,245.94162c-1.41707,0.87707 -2.44521,-0.04903 -2.44521,-0.04903l-0.99522,-0.93187c-1.57311,-2.26353 -1.66249,-4.58306 -1.98142,-7.18657c-0.56626,-4.72184 -0.12085,-10.7338 1.95284,-15.43839c0.92266,-2.09326 0.75905,-4.34853 1.46924,-6.45806c1.21562,-3.61086 3.67594,-7.09827 4.78228,-10.66249c0,0 0.40681,-1.26861 2.10963,-1.13626c1.70284,0.13235 1.29603,1.40097 1.29603,1.40097c-1.17963,3.58479 -3.56853,7.05423 -4.78909,10.68333c-0.57545,1.711 -0.6899,3.4712 -1.14648,5.19157c-0.24626,0.92787 -0.88377,1.81773 -1.185,2.74209c-0.44317,1.35991 -0.23532,2.72979 -0.40913,4.09665c-0.39088,3.07412 -0.97095,6.00676 -0.59215,9.02936c0.27807,2.27 0.24552,4.39436 1.65219,6.34712l0.67039,0.5684c0,0 1.02814,0.92609 -0.38891,1.80317z" fill="#4fae10" stroke-width="0.5"/><path d="M182.43903,243.30321c-0.16806,-0.05298 -0.32394,-0.12078 -0.46374,-0.20674c-0.72419,-0.44528 -0.47128,-1.38334 -0.63281,-2.09204c-0.48253,-2.11696 -0.16867,-4.5065 0.22225,-6.69589c0.66458,-2.54012 1.32583,-5.07722 2.05356,-7.60824c-0.04828,-0.03167 -0.09669,-0.06437 -0.14526,-0.09811c-0.77454,-0.53806 0.53003,-4.04895 0.75734,-4.91947c1.30496,-4.99744 2.75209,-9.46027 5.87285,-13.96153c-0.0099,-0.01179 -0.02037,-0.0233 -0.03141,-0.03453l-0.12519,-0.00973l0.02377,-0.07412c-0.0242,-0.01631 -0.05021,-0.03171 -0.07811,-0.04611c0,0 -0.75289,-0.60769 -0.22995,-1.34004c-0.31236,0.03492 -1.69912,0.12658 -1.8344,-0.97776c-0.15028,-1.2268 1.53997,-1.51254 1.59039,-1.52079c1.78202,-0.65875 3.40591,-1.22121 5.27851,-1.68721c0.33971,-0.13394 0.77134,-0.21632 1.24782,-0.10014c0.31949,0.04836 0.6453,0.17312 0.86103,0.45081c0.25871,0.2552 0.29154,0.53327 0.23384,0.77897c-0.02851,0.33534 -0.22986,0.59045 -0.47213,0.77878c-0.05688,1.00347 -0.18548,2.01246 -0.37001,3.01968c-1.48083,3.23075 -0.63549,6.17923 -0.24819,9.34093c0.64306,5.24957 2.03292,10.05169 4.25415,14.92061c1.05205,2.30611 1.94962,4.68387 3.91837,6.59368c0.3617,0.12494 0.68374,0.37983 0.74544,0.88353c0.15256,1.24537 -1.59155,1.52098 -1.59155,1.52098l-0.73813,0.0678c-2.47663,0.90243 -5.04677,0.79335 -7.47195,1.50018c-0.91558,0.66118 -1.84711,1.33069 -1.97928,1.38783c-0.05428,0.02347 -0.21573,0.06062 -0.44706,0.10623c-0.73182,0.6771 -1.46231,1.40071 -2.63716,1.81513c-2.16216,0.76272 -4.30661,0.6756 -6.50253,1.23605c0,0 -1.7117,0.42795 -2.07941,-0.77362c-0.36771,-1.20157 1.34399,-1.62951 1.34399,-1.62951c0.03292,-0.00809 0.06584,-0.01603 0.09879,-0.02385c-0.1874,-0.1861 -0.32508,-0.38824 -0.42387,-0.60177zM190.19119,217.54448c-0.06965,0.17325 -0.13855,0.34654 -0.2067,0.51989c0.08153,-0.07119 0.1721,-0.13729 0.27042,-0.19704c-0.02182,-0.10752 -0.04307,-0.21512 -0.06371,-0.32285z" fill="#4fae10" stroke-width="0.5"/><path d="M247.9348,231.52374c0.03329,-0.00635 0.06661,-0.01256 0.09999,-0.01866c0,0 1.73914,-0.31021 1.93871,0.90824c0.19955,1.21844 -1.53959,1.52865 -1.53959,1.52865c-2.23618,0.38778 -4.13885,1.33139 -6.4341,1.52542c-1.24715,0.10543 -2.22907,-0.2439 -3.19158,-0.55128c-0.22963,0.0528 -0.39225,0.08493 -0.45178,0.08596c-0.14497,0.00248 -1.2849,-0.21747 -2.40669,-0.43647c-2.5086,0.35001 -4.78689,1.48511 -7.42872,1.68174l-0.69822,0.23772c0,0 -1.70096,0.45894 -2.1147,-0.71161c-0.16733,-0.47343 0.01124,-0.83045 0.2833,-1.08779c0.93596,-2.49567 0.69487,-4.97546 0.62539,-7.45384c-0.14669,-5.23262 -1.01639,-10.07001 -2.76038,-15.00423c-1.05037,-2.97178 -1.59162,-5.93867 -4.36371,-8.21748c-0.61334,-0.82237 -1.17685,-1.66888 -1.67299,-2.53946c-0.30276,-0.06986 -0.59808,-0.21572 -0.77247,-0.50281c-0.1611,-0.19548 -0.2546,-0.45635 -0.13348,-0.78807c0.07223,-0.3344 0.3119,-0.57708 0.57969,-0.74916c0.37985,-0.29588 0.8071,-0.39685 1.17397,-0.41476c1.90166,-0.34131 3.6209,-0.49629 5.52598,-0.62937c0.04929,-0.01302 1.70601,-0.44119 2.11358,0.71192c0.36688,1.038 -0.9291,1.51642 -1.22734,1.61147c0.7979,0.44093 0.38563,1.28612 0.38563,1.28612c-0.01887,0.0241 -0.03559,0.0483 -0.05027,0.07261l0.05436,0.0564l-0.10902,0.05923c-0.00501,0.01446 -0.00939,0.02892 -0.01313,0.04343c4.81962,2.74785 8.10714,6.13739 11.50285,10.06039c0.5915,0.68335 3.32816,3.2828 2.86543,4.07474c-0.02902,0.04967 -0.05836,0.09833 -0.08802,0.14603c1.7803,1.95987 3.5031,3.95201 5.23025,5.94549c1.32402,1.79168 2.66697,3.7927 3.16818,5.87264c0.16779,0.69629 0.81241,1.42946 0.35415,2.11844c-0.08847,0.133 -0.19953,0.25632 -0.3282,0.37137c0.0052,0.23004 -0.02987,0.46563 -0.11706,0.70702zM229.70572,211.32361c0.11547,0.0135 0.22675,0.03579 0.3321,0.06625c-0.13851,-0.12683 -0.27767,-0.25332 -0.41749,-0.37946c0.02905,0.10426 0.05751,0.20866 0.08539,0.31322z" data-paper-data="{&quot;index&quot;:null}" fill="#4fae10" stroke-width="0.5"/><path d="M163.34753,252.87273c-0.92441,1.16166 -2.41122,0.63493 -2.41122,0.63493l-2.00668,-0.75075c-2.02558,-2.18958 -1.96097,-4.38997 -2.29149,-7.0882c-0.58085,-4.74169 -0.79232,-9.07692 -0.05743,-13.94652c0,0 0.19245,-1.27524 1.9326,-1.30126c1.74014,-0.02602 1.54768,1.24921 1.54768,1.24921c-0.71064,4.70884 -0.49664,8.85977 0.06534,13.44734c0.22531,1.83927 -0.0749,4.14933 1.28586,5.62029l1.37295,0.44656c0,0 1.48681,0.52673 0.5624,1.68839z" fill="#4fae10" stroke-width="0.5"/><path d="M260.47165,212.71711c1.56269,-0.71841 2.35208,0.33553 2.35208,0.33553l0.48343,0.64745c2.74649,3.33223 3.5463,6.91263 4.27653,10.84553c0.31391,1.69063 1.11828,3.63197 0.84008,5.4056c-0.5071,3.23297 -2.78328,6.10765 -4.69029,9.11748c0,0 -0.76651,1.20969 -2.34055,0.80528c-1.57404,-0.4044 -0.80752,-1.6141 -0.80752,-1.6141c1.75119,-2.76349 3.846,-5.33165 4.36283,-8.28652c0.26652,-1.52373 -0.56934,-3.32401 -0.83704,-4.77351c-0.66721,-3.61273 -1.33291,-6.92443 -3.86766,-9.98449l-0.54519,-0.72591c0,0 -0.78938,-1.05393 0.77331,-1.77235z" fill="#4fae10" stroke-width="0.5"/><path d="M264.36032,243.60985c-4.2323,2.54056 -9.7342,4.37215 -14.97033,4.75119c-0.96007,0.0695 -3.65,-0.08374 -4.46202,-0.30844c-0.87183,-0.24126 -0.9842,-1.15387 -2.17433,-0.5152c-1.24986,0.67073 -2.42604,1.44817 -3.78422,1.97384c-2.88088,0.46943 -6.92597,1.59884 -9.72081,1.06456c-0.12981,-0.02481 -1.73505,-1.08339 -2.47743,-0.92953c-1.3423,0.2782 -2.22391,1.38709 -3.50576,1.83351c-3.05865,1.0652 -8.00312,1.39285 -11.15724,1.44405c-2.41193,0.03915 -4.49165,0.10293 -6.7442,-0.37328c-1.04011,-0.21989 -3.08414,-1.37558 -4.16662,-1.33767c-1.03397,0.03621 -1.74037,0.98655 -2.54291,1.53763c-3.14122,1.86634 -7.90856,4.06557 -11.77584,4.16485c-0.83539,0.02144 -1.71887,0.08756 -2.47281,-0.10718c-0.36799,-0.09505 -2.55533,-1.77567 -3.66451,-1.01387c-0.37942,0.26059 -0.26285,0.73846 -0.60063,1.02744c-0.75115,0.64262 -1.58376,1.28565 -2.58313,1.6963c-1.38945,0.57093 -3.76908,0.50547 -5.18763,0.5185c-3.78369,0.03477 -6.70905,-0.22798 -9.34131,-1.84201c-0.95026,0.0797 -1.58664,-0.45326 -1.58664,-0.45326c-2.39127,-2.03915 -5.60219,-2.7398 -6.96796,-5.5337c-1.04061,-2.1287 -0.89498,-5.13481 -1.27928,-7.42521c-0.48473,-2.88892 -1.76131,-6.22923 -1.0883,-9.23518c1.14994,-5.13609 5.39709,-12.49238 11.03586,-16.14171c2.02234,-2.41755 4.29244,-3.46857 7.19591,-5.39752c3.48662,-2.31636 6.72444,-4.6571 10.65034,-6.57665c7.25017,-3.54495 15.53047,-4.82809 23.5733,-6.28399c5.65631,-1.0239 11.46226,-2.3189 17.10861,-2.22517c3.59792,-0.0114 7.37394,-0.52283 10.86752,-0.29521c2.32098,0.15122 4.5307,0.62726 6.71656,1.095c3.24014,0.69333 6.21683,0.41285 9.34975,1.44123c7.91219,2.59721 13.7058,6.70324 17.39919,12.35678c1.26146,1.93094 2.57374,3.47004 2.94633,5.69068c1.65685,2.38181 0.97001,5.06619 2.04044,7.5708c0.24132,0.56464 0.90032,0.98528 1.05464,1.57326c0.49641,1.89155 -0.64481,6.09998 -1.63327,8.00741c-0.27698,0.53447 -1.06108,0.90619 -1.37823,1.43206c-0.86916,1.44115 -1.35668,2.98255 -2.43927,4.36145l-0.52711,0.81316c0,0 -0.17577,0.26707 -0.52516,0.5267zM174.3004,248.73563c0.60797,-0.01575 0.98768,0.66391 1.5846,0.51406c0.49538,-0.12436 0.32752,-0.73276 0.60771,-1.06439c0.47864,-0.56653 0.9563,-1.16491 1.64855,-1.60616c2.38592,-1.52087 9.05491,-3.10344 11.87822,-2.38836c0.47996,0.12156 0.25802,0.73316 0.52605,1.04033c0.13844,0.15866 -0.20139,-0.38013 -0.12267,-0.57806c0.29452,-0.74057 0.60115,-1.51105 1.21422,-2.16668c2.11341,-2.26021 5.41217,-3.52569 8.54449,-4.75836c3.12852,-0.56632 5.81631,-0.7346 8.72908,0.00803c0.58602,0.14942 0.97204,0.59659 1.60221,0.65517c1.11938,0.10406 2.973,-1.06184 3.76592,-1.29365c1.66666,-0.48726 6.40375,-1.51638 8.10404,-1.40262c1.3561,0.09073 2.19913,1.33818 3.58867,1.19234c1.49458,-0.15687 4.70353,-3.26755 5.92216,-3.76924c0.29338,-0.12078 5.48941,-1.04878 5.69601,-1.06156c3.18857,-0.19731 10.47677,1.63435 9.50146,4.46606c0.88843,-0.95985 2.60726,-1.47213 4.09909,-1.74495c5.91145,-1.0811 9.19094,0.52902 11.41397,4.21143l0.87096,0.51234c2.09774,-2.72922 3.17299,-5.44583 3.99354,-8.38515c0.0908,-0.32526 0.74606,-2.31977 0.58372,-2.80713c-0.35864,-1.07672 -1.11359,-2.05121 -1.30754,-3.16473c-0.3721,-2.13639 -0.41859,-3.89707 -1.7082,-5.75095c-0.35594,-2.12133 -1.55377,-3.47977 -2.75267,-5.32483c-5.67576,-8.73479 -17.27252,-12.5588 -30.59739,-13.48505c-3.35587,-0.23328 -7.11476,0.29348 -10.59599,0.30449c-5.22826,-0.14209 -10.80117,1.18419 -16.04653,2.1337c-7.53046,1.36315 -15.35233,2.50682 -22.14413,5.82489c-3.70449,1.8098 -6.7483,4.04679 -10.04057,6.23132c-2.88097,1.91164 -4.78969,2.67923 -6.72116,5.03468c-5.09978,3.3723 -8.90341,9.79674 -10.00789,14.49986c-0.62977,2.68168 0.67453,5.86119 1.10692,8.43816c0.36046,2.14833 0.22034,4.90997 1.12836,6.92409c0.70655,1.5672 2.60263,2.44405 4.34422,3.40323c2.55335,-2.97005 6.53708,-4.51134 11.59056,-4.64229zM172.79181,256.48568c0.24593,-0.00142 2.88072,0.04222 3.4629,-0.19176c1.23669,-0.49701 1.43894,-1.88605 2.61917,-2.46207c0.92388,-0.45092 2.07451,-0.55521 3.12492,-0.61415c1.50752,-0.08459 2.67709,0.75639 3.98132,1.18193c1.57616,0.51424 3.35213,-0.56593 4.6666,-1.04426c2.28582,-0.8318 3.89252,-1.22497 5.91435,-2.43382c1.45244,-0.96229 2.72571,-2.10313 4.81075,-2.25137c1.64383,-0.11687 2.62014,0.66992 3.89219,1.07742c1.58144,0.50661 3.1616,0.67832 4.95244,0.65987c3.43683,-0.03541 8.60607,-0.01383 11.95062,-1.22516c1.80854,-0.65502 2.14294,-1.72553 4.29903,-2.02678c1.53112,-0.21393 2.80684,0.62937 4.19363,0.97161c1.77217,0.43734 5.63311,-0.71626 7.50131,-1.00021c2.65526,-0.99375 3.18094,-2.4605 6.63763,-2.2792c1.18029,0.06191 2.00235,0.87108 3.18192,0.93561c4.28899,0.23464 9.69366,-1.4346 13.41435,-3.47427c-0.11921,-0.05299 -0.18609,-0.0942 -0.18609,-0.0942l-1.97561,-1.2572c-0.78778,-1.26181 -1.90701,-3.09059 -3.81259,-3.70278c-2.35878,-0.75781 -7.85806,1.43783 -9.84578,2.14066c-2.25799,-2.82962 -6.65406,-6.00854 -12.17747,-3.68729c-2.71399,1.14056 -3.97441,3.71137 -7.38759,4.11603c-1.67448,0.19853 -2.88554,-1.03277 -4.50998,-1.17483c-3.85613,-0.33723 -8.02561,2.8242 -11.86996,2.69628c-0.94235,-0.03135 -1.62789,-0.57844 -2.4917,-0.79416c-1.95174,-0.48741 -3.81482,-0.45928 -5.91826,-0.07852c-2.10899,0.85083 -4.88295,1.82771 -6.26015,3.39753c-1.53711,1.75206 -0.61643,3.59675 -4.65456,4.31896c-0.96635,0.17282 -1.30433,-0.9609 -2.16215,-1.21103c-0.93727,-0.2733 -4.99755,0.77942 -6.01901,1.05341c-2.70726,0.72619 -2.43976,3.02281 -5.11539,3.93776c-1.02943,0.35203 -2.08181,-0.3213 -3.16761,-0.2685c-3.9153,0.19042 -6.53588,1.13392 -8.21419,3.56512c1.99861,1.20428 4.2839,1.23594 7.16501,1.21934z" fill="#4c463d" stroke-width="0.5"/><path d="" fill="#525252" stroke-width="0.5"/><path d="M269.43453,231.62513c-1.53753,1.01775 -2.83175,0.96176 -3.83451,0.52233c-1.41805,0.30651 -3.05418,0.03205 -4.50495,0.1902c-1.14798,0.12515 -2.32442,0.17247 -3.51198,0.17827c-6.21996,2.57396 -11.37807,5.88479 -17.94875,1.99261l-1.99634,-0.55061c-1.51453,-0.37918 -2.74097,-1.59516 -3.25882,-3.18405c-0.42204,0.25061 -0.7324,0.41417 -0.86532,0.44285c-6.7145,1.44875 -11.24812,2.01589 -8.30942,-8.7627c0.57229,-2.09904 2.90566,-2.99484 4.44178,-4.38501c1.62996,-1.47509 3.44107,-2.52329 5.30154,-3.43786c-4.63079,1.03647 -9.85947,1.64861 -11.72685,-4.88811c-1.41031,1.1918 -3.5113,2.66446 -5.5811,3.24451c0.06444,1.21576 -0.30478,2.62527 -1.73647,3.91757c-3.50767,3.16619 -6.37759,-0.7036 -6.37759,-0.7036c-1.15078,-1.63546 -2.64565,-3.037 -3.45234,-4.90636c-0.58591,-1.35775 -0.85696,-2.93627 -0.97796,-4.55575c-1.34887,-1.67711 -1.26328,-4.16944 -0.07654,-7.95468c-0.00884,-4.90084 -0.00784,-9.8022 0.00425,-14.70289c0.01245,-5.04724 0.02627,-10.16108 3.57006,-14.03264c6.92167,-7.56185 19.03704,-4.92085 27.83864,-4.92085c4.97343,0 10.21989,-0.08032 15.01836,1.39535h2.37237c2.50303,0 4.53213,2.23857 4.53213,5c0,1.51057 -0.60719,2.86469 -1.56699,3.7815l-2.88849,2.78835c-0.16659,1.88834 -2.35997,3.16868 -3.25006,4.90475c-0.97494,1.90157 -1.40692,4.13054 -2.52956,5.93023c-2.76331,4.42986 -6.35618,8.15539 -9.46376,12.29829c-0.77031,1.02695 -1.5615,2.03461 -2.3452,3.04919c2.10883,-0.41556 4.23288,-0.74276 6.36172,-0.99307c2.51475,-0.08029 6.03397,-2.46061 7.54425,-0.24086c0.08006,0.11766 0.15458,0.23774 0.22385,0.3601c0.35738,-0.30192 0.71701,-0.60206 1.07806,-0.90106c1.92941,-2.4864 3.8181,-4.82463 5.36655,-7.72207c0.89606,-1.6767 3.24801,-8.00367 4.68508,-8.86063c2.48798,-1.48364 5.82405,-3.31351 8.31841,-1.843c3.85438,2.2723 2.04574,8.24336 1.08394,11.69105c0.22304,0.59117 0.34619,1.23973 0.34619,1.92001v2.7907c-0.03433,6.72761 -0.74234,13.59776 -1.28022,20.29613c-0.00804,0.10019 -0.01505,0.20026 -0.02114,0.30022c0.24981,1.38687 0.43865,2.68278 0.59587,3.62551l0.37583,0.06613c0,0 2.33176,4.28746 -1.55451,6.85995z" fill="#8f3e15" stroke-width="0.5"/><path d="M270.87294,184.68918c0,10.78294 -0.16096,21.60003 0.36927,32.36562c0.41659,3.53949 1.21542,8.24477 -0.84067,11.43693c-2.50971,3.89643 -8.45986,3.83723 -12.15542,3.8421c-10.88625,0.01437 -21.77258,0 -32.65883,0c0,0 -0.36354,0 -0.80608,-0.15973c-0.53501,0.47104 -1.75749,1.2317 -3.06901,-0.1069c-1.75621,-1.79246 -0.15965,-3.76417 -0.15965,-3.76417c3.54399,-4.37417 6.92095,-9.78805 11.54917,-12.85748c1.55294,-1.0299 3.34482,-1.58097 4.84454,-2.70592c4.13542,-3.10202 7.30732,-7.59745 11.26883,-10.98638c3.72204,-3.18406 7.07154,-5.83828 10.02582,-9.98851c2.59969,-3.64836 5.00401,-7.4423 7.59507,-11.08511l1.19055,-1.56176c0,0 1.54463,-2.02319 3.34669,-0.28903c1.80206,1.73416 0.25744,3.75734 0.25744,3.75734l-0.59193,0.77403zM255.77773,227.00444c2.5431,0 5.13087,0.27337 7.63385,-0.35883c0.07087,-0.0179 2.86998,-0.82806 3.18584,-1.34162c1.101,-1.79018 0.14151,-5.89127 -0.08116,-7.74883c-0.44752,-9.0052 -0.42257,-18.04347 -0.39986,-27.07027c-1.04082,1.54776 -2.08763,3.09185 -3.16875,4.60909c-3.2052,4.49376 -6.82831,7.45372 -10.86064,10.90264c-3.25591,2.78484 -5.90047,6.19159 -9.03805,9.09887c-2.40372,2.22728 -4.88217,3.22906 -7.50741,4.92162c-2.58123,1.66419 -4.75361,4.29497 -6.78392,6.98734c9.00671,0 18.0134,0 27.0201,0z" fill="#763312" stroke-width="0.5"/><path d="M208.67416,219.14701c-2.40751,-0.22487 -2.20687,-2.92321 -2.20687,-2.92321c0.20373,-2.71658 0.61901,-5.93446 0.26298,-8.66089c-0.27723,-2.12301 -1.08456,-4.14323 -1.26141,-6.27967c-0.51456,-6.21625 -0.00977,-12.76625 -0.00977,-19.01363c0,-4.64872 -1.38324,-10.5557 3.24106,-13.14753c2.00181,-1.12197 6.9062,-0.20611 9.17313,-0.20611c9.65042,0 19.68869,-0.19311 29.17533,1.96108h2.56939v0c1.33424,0 2.41584,1.21228 2.41584,2.70771c0,0.63532 -0.19522,1.21954 -0.52211,1.68142l-1.73649,2.50235l-0.05953,-0.0519c-0.08722,0.15166 -0.17886,0.30036 -0.27557,0.44572c-0.70469,1.05911 -2.18958,1.95084 -3.73061,2.74428c0.56796,1.74243 -0.89097,2.96881 -0.89097,2.96881l-2.07491,1.74169c-5.10165,3.64164 -8.30092,7.91765 -12.35078,12.78161c-3.16669,3.80324 -7.14877,7.06031 -10.91401,10.15193c-0.20367,0.34748 -0.40964,0.69222 -0.61853,1.03359c-1.53244,2.50425 -3.35636,4.65216 -4.86782,7.18026l-0.23327,0.11587l0.07326,0.0821l-1.74972,1.9611c-0.43718,0.49 -1.04114,0.79307 -1.70826,0.79307c-0.55202,0 -1.06079,-0.20751 -1.4676,-0.55673c-0.07521,-0.00123 -0.15277,-0.00547 -0.23277,-0.01294zM211.65075,208.38714c1.32631,-1.66202 3.0254,-3.14891 4.77712,-4.52561c2.75553,-4.88728 5.2837,-10.04258 9.03367,-14.03365c3.03492,-3.23004 7.33052,-6.58521 10.79564,-9.2337c1.36345,-1.04212 4.20009,-3.53713 6.81002,-4.99678c-8.29243,-1.35913 -16.85377,-1.26601 -25.1939,-1.26601c-2.29815,0 -5.08374,-0.52771 -7.32413,-0.20611c-0.75449,0.10831 -0.29068,1.68943 -0.25837,2.5412c0.10925,2.87967 0,5.80268 0,8.68484c0,5.07686 -0.40932,10.39337 -0.00976,15.44558c0.16292,2.06006 0.98234,3.99904 1.23818,6.0472c0.06296,0.50404 0.10548,1.01965 0.13153,1.54304z" fill="#763312" stroke-width="0.5"/><path d="M261.02662,163.97499l12.54366,14.59898l-57.49639,60.88439l-12.54366,-14.59898z" fill="#af4c00" stroke-width="0"/><path d="M197.79179,173.54667v-11.96997h82.40762v11.96997z" fill="#af4c00" stroke-width="0"/><path d="M197.76102,243.39456v-12.38867h82.40763v12.38867z" fill="#af4c00" stroke-width="0"/><path d="M197.68023,172.49571h12.27528v59.21053h-12.27528z" fill="#af4c00" stroke-width="0"/><path d="M268.87725,172.49571h11.2294v59.21053h-11.2294z" fill="#af4c00" stroke-width="0"/><path d="M197.7881,161.83781v-3.54251h82.29768v3.54251z" fill="#a24600" stroke-width="0"/><path d="M248.10356,240.74805c0,1.25 -1.13303,1.25 -1.13303,1.25c-7.37874,0 -15.07371,0 -22.45245,0c-3.7845,0 -7.78023,0.82482 -11.52278,0.33951c-2.73849,-0.35511 -5.42154,-1.22345 -8.24267,-0.87491c-1.73865,0.21481 -3.27341,0.87062 -5.05875,0.88428c0,0 -1.13303,0 -1.13303,-1.25c0,-1.25 1.13303,-1.25 1.13303,-1.25c1.6619,0.01586 3.11639,-0.66189 4.74444,-0.86012c3.03179,-0.36915 5.88945,0.4869 8.83385,0.86949c3.64004,0.47297 7.55963,-0.35824 11.24591,-0.35824c7.37874,0 14.75748,0 22.13622,0h0.31623c0,0 1.13303,0 1.13303,1.25z" fill="#9d4400" stroke-width="0.5"/><path d="M279.72674,240.74805c0,1.25 -1.13303,1.25 -1.13303,1.25c-3.63667,0 -7.43144,0 -11.06811,0c0,0 -1.13303,0 -1.13303,-1.25c0,-1.25 1.13303,-1.25 1.13303,-1.25c3.63667,0 7.27333,0 10.90999,0h0.15812c0,0 1.13303,0 1.13303,1.25z" fill="#9d4400" stroke-width="0.5"/><path d="M208.4726,169.1266c0,1.25 -1.13303,1.25 -1.13303,1.25c-2.3959,0 -5.37458,0 -7.77047,0c0,0 -1.13303,0 -1.13303,-1.25c0,-1.25 1.13303,-1.25 1.13303,-1.25c2.3959,0 4.79179,0 7.18769,0h0.58279c0,0 1.13303,0 1.13303,1.25z" fill="#9d4400" stroke-width="0.5"/><path d="M278.98964,169.76956c0,1.25 -1.13303,1.25 -1.13303,1.25c-4.72704,0 -10.81391,0 -15.54094,0c-8.35326,0 -16.70652,0 -25.05978,0c0,0 -1.13303,0 -1.13303,-1.25c0,-1.25 1.13303,-1.25 1.13303,-1.25c8.35326,0 16.70652,0 25.05978,0c4.72704,0 9.45407,0 14.18111,0h1.35983c0,0 1.13303,0 1.13303,1.25z" fill="#9d4400" stroke-width="0.5"/><path d="M208.86112,228.99231c0,1.25 -1.13303,1.25 -1.13303,1.25c-2.46065,0 -5.11556,0 -7.57621,0c0,0 -1.13303,0 -1.13303,-1.25c0,-1.25 1.13303,-1.25 1.13303,-1.25c2.46065,0 4.9213,0 7.38195,0h0.19426c0,0 1.13303,0 1.13303,1.25z" fill="#9d4400" stroke-width="0.5"/><path d="M278.98964,228.77799c0,1.25 -1.13303,1.25 -1.13303,1.25c-1.23032,0 -2.84917,0 -4.0795,0c0,0 -1.13303,0 -1.13303,-1.25c0,-1.25 1.13303,-1.25 1.13303,-1.25c1.23032,0 2.46065,0 3.69097,0h0.38852c0,0 1.13303,0 1.13303,1.25z" fill="#9d4400" stroke-width="0.5"/><path d="M264.53508,182.55634c0.09149,-0.36939 0.35039,-0.89204 1.08303,-0.89204c1.13303,0 1.13303,1.25 1.13303,1.25l-0.33186,1.0982c-6.6766,7.3481 -13.5529,14.7653 -20.28607,22.15738c-1.62653,1.1844 -2.6116,2.95886 -4.09436,4.29954c-3.66035,3.30959 -7.38739,6.88748 -10.789,10.6286c-1.46539,1.61165 -2.47479,3.12927 -4.24413,4.43371c0,0 -0.94274,0.69338 -1.57123,-0.34669c-0.62849,-1.04006 0.31425,-1.73344 0.31425,-1.73344c1.66689,-1.22279 2.53192,-2.60904 3.91487,-4.13894c3.44539,-3.8115 7.24406,-7.44778 10.96832,-10.80303c1.46758,-1.32217 2.45406,-3.07753 4.06463,-4.27311c6.54691,-7.26845 13.31468,-14.47183 19.83852,-21.68018z" fill="#9d4400" stroke-width="0.5"/><path d="M221.57412,243.34804c0,2 -2,2 -2,2h-1.32392c-6.79606,-0.09305 -11.00221,4.45203 -16.04152,8.0073c-2.96266,2.09018 -6.1024,2.13926 -9.55424,2.14274c-1.02799,0.00104 -5.90657,0.00576 -6.13819,-0.04066c-3.47529,-0.69644 -6.96359,-3.09965 -9.6743,-5.25198c0,0 -1.56174,-1.24939 -0.31235,-2.81113c1.24939,-1.56174 2.81113,-0.31235 2.81113,-0.31235c5.02541,4.05553 12.03355,5.96467 18.45436,4.06577c2.52665,-0.74723 3.96999,-3.11724 6.06078,-4.57802c4.10665,-2.86919 9.35277,-5.17017 14.39433,-5.22169h1.32392c0,0 2,0 2,2z" fill="#4c463d" stroke-width="0.5"/><path d="M236.64523,241.04978c1.85695,0.74278 1.11417,2.59973 1.11417,2.59973l-0.82248,2.03364c-1.11055,4.50466 -4.537,6.24781 -8.67405,7.90567c-5.99657,2.40302 -12.92587,2.03988 -19.02995,0.0414c0,0 -1.89737,-0.63246 -1.26491,-2.52982c0.63246,-1.89737 2.52982,-1.26491 2.52982,-1.26491c5.17324,1.76026 11.19935,2.06691 16.27455,0.0414c2.73538,-1.09169 5.93192,-2.18245 6.33036,-5.33352l0.94275,-2.37942c0,0 0.74278,-1.85695 2.59973,-1.11417z" fill="#4c463d" stroke-width="0.5"/><path d="M254.0863,241.49252c1.41421,1.41421 0,2.82843 0,2.82843l-0.44131,0.44131c-2.70433,2.6928 -4.96467,6.29034 -9.54888,4.89622c-0.90598,-0.27552 -1.55518,-1.08086 -2.33277,-1.62129c0,0 -1.6,-1.2 -0.4,-2.8c1.2,-1.6 2.8,-0.4 2.8,-0.4c2.97746,2.55204 4.58267,-0.8249 6.65322,-2.90336l0.44131,-0.44131c0,0 1.41421,-1.41421 2.82843,0z" fill="#4c463d" stroke-width="0.5"/></g></g></svg>