<svg version="1.1" xmlns="http://www.w3.org/2000/svg" xmlns:xlink="http://www.w3.org/1999/xlink" width="312.39236" height="170.29916" viewBox="0,0,312.39236,170.29916"><g transform="translate(-301.6226,-186.62604)"><g data-paper-data="{&quot;isPaintingLayer&quot;:true}" fill-rule="nonzero" stroke="none" stroke-linecap="butt" stroke-linejoin="miter" stroke-miterlimit="10" stroke-dasharray="" stroke-dashoffset="0" style="mix-blend-mode: normal"><g><path d="M427.53928,302.56842l-113.09802,-61.34403l7.15679,-13.19477l113.09803,61.34403z" fill="#53322a" stroke-width="0"/><path d="M347.22437,254.46601c-0.35758,0.65928 -1.01685,0.30168 -1.01685,0.30168l-0.34707,-0.18824c-1.4615,-0.79272 -2.26145,-1.45886 -3.98793,-1.30129c-1.27305,-0.66678 -2.9158,-0.59327 -4.03324,-1.73487c-1.56619,-1.60007 -2.91148,-2.4445 -5.00882,-3.58208c-3.11896,-1.69171 -6.70372,-3.1397 -9.33198,-5.53629c0,0 -0.55285,-0.50681 -0.04605,-1.05966c0.5068,-0.55285 1.05966,-0.04605 1.05966,-0.04605c2.24562,2.07074 5.31543,3.30678 7.99231,4.75871c2.46256,1.33568 4.55109,2.41251 6.38576,4.39503c0.85231,0.92098 2.296,0.77871 3.28476,1.33602c1.82054,-0.16615 2.85943,0.61596 4.40071,1.45195l0.34707,0.18825c0,0 0.65927,0.35758 0.30169,1.01686z" fill="#724539" stroke-width="0.5"/><path d="M386.19307,264.44059c-0.025,0.74959 -0.77459,0.72458 -0.77459,0.72458l-1.05394,-0.05522c-0.86651,-0.45929 -1.91701,-1.75698 -2.8847,-1.66926c-0.65539,0.05941 -1.16198,0.64101 -1.79423,0.82354c-5.06827,-0.86219 -9.14149,-3.55617 -13.79866,-6.00944c-2.88723,-1.52091 -5.95477,-2.78061 -8.87294,-4.36342c-2.68415,-1.45587 -5.36831,-2.91176 -8.05246,-4.36764c-0.74097,-0.4019 -2.63138,-1.1666 -3.22961,-1.78834c-1.58047,-1.64257 -3.86807,-3.88326 -6.01277,-5.02142c0,0 -0.65926,-0.35759 -0.30168,-1.01686c0.35758,-0.65928 1.01685,-0.30168 1.01685,-0.30168c2.19405,1.21122 4.77805,3.53171 6.36417,5.28525c0.44593,0.493 2.3748,1.25147 2.87821,1.52452c2.68415,1.45587 5.3683,2.91177 8.05246,4.36764c2.91906,1.58329 5.95905,2.84692 8.85726,4.35503c4.38397,2.28123 8.2987,4.95095 13.01434,5.83876c2.65104,-0.82297 2.79118,-0.45204 5.15686,0.89574l0.71086,0.00364c0,0 0.74957,0.025 0.72458,0.77458z" fill="#724539" stroke-width="0.5"/><path d="M332.95268,238.68635c0.11631,0.07348 0.59265,0.42033 0.27709,1.00213c-0.35758,0.65928 -1.01685,0.30169 -1.01685,0.30169l-0.73907,-0.87252c0.12158,-1.30532 -0.87306,-0.91181 -2.0081,-1.51591c-2.96171,-1.57629 -6.36377,-2.15878 -9.2416,-3.66508c0,0 -0.65926,-0.35757 -0.30168,-1.01685c0.35758,-0.65928 1.01685,-0.30168 1.01685,-0.30168c2.77132,1.57502 6.32899,2.05069 9.24161,3.66508c1.48543,0.82334 2.60896,0.6062 2.77175,2.40313z" fill="#724539" stroke-width="0.5"/><path d="M321.95469,229.61263l-0.02498,-0.0082c0.00161,0.31248 0.10042,0.63049 0.24081,0.90804c0.43326,0.94932 0.95342,1.91218 0.41722,2.97171c-0.23325,0.46093 -1.02024,0.50159 -1.19391,0.98811c-0.25336,0.70975 0.11631,1.74875 -0.48023,2.20927c-0.55549,0.42885 -2.22147,-0.37806 -2.90141,0.55094c-0.65068,0.88901 -0.15407,2.23958 -0.98879,3.18303c-0.64523,0.72929 -1.18353,0.36245 -1.54414,0.81471c0.01316,0.1904 -0.0487,0.41406 -0.30827,0.61023c-0.43847,0.33138 -0.79847,0.09862 -0.95954,-0.04943c-0.1545,-0.10379 -0.23887,-0.22656 -0.28048,-0.34915c-3.25537,-4.3679 -5.72824,-9.24037 -8.81546,-13.72888c-0.14103,-0.04361 -0.28415,-0.13657 -0.38365,-0.32169c-0.08179,-0.11918 -0.14144,-0.2772 -0.11113,-0.47174c0.01064,-0.19661 0.1017,-0.33884 0.20641,-0.43851c0.14706,-0.17397 0.32186,-0.2314 0.47868,-0.2377c4.89619,-1.22636 10.846,1.52387 15.86461,1.04418l0.82026,0.16608c0,0 0.72631,0.18701 0.53931,0.91332c-0.06203,0.24091 -0.1834,0.38135 -0.3179,0.46144zM319.60059,234.82899c-0.04539,0.06068 -0.0915,0.12108 -0.1383,0.18123c0.04698,0.0007 0.09388,0.00008 0.14067,-0.00226c0.00671,-0.00034 0.00161,-0.06887 -0.00237,-0.17897z" fill="#875243" stroke-width="0.5"/><path d="M309.46257,233.89427c-0.03137,0.01759 -0.06535,0.03422 -0.10209,0.0497c-0.69106,0.29142 -0.98248,-0.39965 -0.98248,-0.39965c-0.68635,-1.6277 -1.56836,-3.20885 -2.37457,-4.77764c-0.24047,-0.46792 -1.21566,-1.54823 -1.00753,-2.10666c0.17702,-0.47495 0.79561,-0.67378 1.28127,-0.81889c1.21409,-0.36277 1.30623,0.07026 2.27379,0.28315c1.62216,0.35691 6.34812,-0.78484 4.13094,2.64511c2.40672,1.77103 -1.47108,3.51686 -2.43561,4.72671l0.00899,0.00881c0,0 -0.27694,0.51058 -0.79272,0.38936z" fill="#a06c5d" stroke-width="0.5"/><path d="M431.96677,308.62338l-75.09146,-104.47739l12.18902,-8.76068l75.09147,104.4774z" fill="#53322a" stroke-width="0"/><path d="M380.61888,230.34362c-0.60902,0.43773 -1.04674,-0.17129 -1.04674,-0.17129l-0.23044,-0.32062c-0.97037,-1.35011 -1.40033,-2.29815 -3.0231,-2.90824c-0.85558,-1.15466 -2.36635,-1.80395 -2.87505,-3.31826c-0.71299,-2.12246 -1.55622,-3.4685 -2.94875,-5.40597c-2.07083,-2.88122 -4.66711,-5.74591 -5.98924,-9.04795c0,0 -0.27694,-0.697 0.42005,-0.97394c0.697,-0.27694 0.97394,0.42006 0.97394,0.42006c1.1196,2.84205 3.34465,5.29168 5.12196,7.76452c1.63502,2.27485 3.04607,4.1538 3.83417,6.73745c0.36611,1.20024 1.72766,1.70094 2.375,2.63325c1.71116,0.64332 2.30572,1.79983 3.32905,3.22362l0.23043,0.32062c0,0 0.43773,0.60901 -0.17129,1.04674z" fill="#724539" stroke-width="0.5"/><path d="M374.64425,209.92346c0.0727,0.11679 0.35044,0.63648 -0.18702,1.02277c-0.60902,0.43773 -1.04674,-0.17129 -1.04674,-0.17129l-0.28529,-1.1073c0.67794,-1.12206 -0.38879,-1.20103 -1.14743,-2.23916c-1.97955,-2.70883 -4.78832,-4.71487 -6.72285,-7.32416c0,0 -0.43772,-0.609 0.1713,-1.04673c0.60902,-0.43773 1.04673,0.1713 1.04673,0.1713c1.80872,2.62477 4.80409,4.60241 6.72286,7.32416c0.97857,1.38809 2.08451,1.68195 1.44844,3.37041z" fill="#724539" stroke-width="0.5"/><path d="M368.69593,196.96562l-0.01891,-0.01826c-0.13464,0.28199 -0.18421,0.61129 -0.1787,0.92227c-0.02344,1.04325 0.02544,2.13654 -0.91868,2.85678c-0.41071,0.31332 -1.13685,0.00718 -1.50508,0.3695c-0.53719,0.52856 -0.65693,1.62483 -1.39448,1.77958c-0.68682,0.14411 -1.83505,-1.30782 -2.85173,-0.76769c-0.97291,0.51688 -1.11409,1.94891 -2.27638,2.43464c-0.89844,0.37547 -1.22324,-0.18919 -1.74482,0.06087c-0.07108,0.17712 -0.22418,0.35153 -0.54327,0.41506c-0.53902,0.10734 -0.76171,-0.25897 -0.84222,-0.46239c-0.09388,-0.16073 -0.11635,-0.30797 -0.10041,-0.43645c-1.02808,-5.34967 -1.13203,-10.81276 -1.95622,-16.19777c-0.10795,-0.10068 -0.19631,-0.2467 -0.20525,-0.45667c-0.02172,-0.14291 -0.0066,-0.31112 0.10541,-0.47305c0.09521,-0.17235 0.23913,-0.26072 0.37679,-0.30484c0.20815,-0.09255 0.39051,-0.06812 0.53441,-0.00549c4.94155,1.02847 9.09964,6.09544 13.82619,7.84936l0.66604,0.50675c0,0 0.57236,0.48467 0.08769,1.05703c-0.16076,0.18984 -0.33117,0.2634 -0.48713,0.27692zM364.30497,200.636c-0.06728,0.03485 -0.13509,0.06914 -0.20342,0.10291c0.04199,0.02108 0.08447,0.04095 0.12761,0.05922c0.00619,0.00261 0.03143,-0.0613 0.07581,-0.16214z" fill="#875243" stroke-width="0.5"/><path d="M355.58605,195.37924c-0.0359,0.00217 -0.07373,0.00234 -0.11354,0.00028c-0.749,-0.03865 -0.71035,-0.78765 -0.71035,-0.78765c0.09107,-1.76415 -0.01427,-3.57159 -0.05676,-5.33491c-0.01268,-0.52594 -0.42002,-1.92314 0.01054,-2.33517c0.3662,-0.35045 1.00964,-0.26001 1.51002,-0.17912c1.2509,0.20221 1.14524,0.63215 1.9235,1.24518c1.30478,1.02777 6.05625,2.05826 2.56657,4.18019c1.39515,2.64242 -2.85591,2.5251 -4.25108,3.19411l0.00426,0.01184c0,0 -0.47166,0.339 -0.88316,0.00525z" fill="#a06c5d" stroke-width="0.5"/><path d="M399.21609,297.86196c-1.56174,-1.95217 0.39043,-3.51391 0.39043,-3.51391l1.45663,-1.1653c0.10703,-0.08146 0.21276,-0.16529 0.31745,-0.25098c-0.4763,-0.57567 -0.90367,-1.1599 -1.26678,-1.75039c-0.59201,-0.96274 -0.49081,-2.2474 -1.0722,-3.21658c-0.53596,-0.89346 -1.7425,-1.28763 -2.19326,-2.22697c-0.77789,-1.62103 -1.22676,-3.42342 -1.37796,-5.21507c-0.50759,-6.01443 0.42325,-5.91442 6.46459,-7.0755c1.4213,-0.27316 4.43747,1.11281 4.32934,-0.33045c-0.18994,-2.53519 -2.56399,-4.40805 -3.77398,-6.28227c-0.64222,-0.99477 -1.32045,-2.01983 -1.60393,-3.16946c-0.22864,-0.92726 0.47502,-1.97755 0.11652,-2.86275c-0.37946,-0.93695 -1.77154,-1.20479 -2.14439,-2.14439c-0.47782,-1.20412 0.21455,-2.87463 -0.66054,-3.82985c-0.47801,0.65542 -0.6677,1.70013 -1.43402,1.96625c-4.13974,1.43762 -5.64463,-0.65086 -9.41062,-1.73847c-0.87676,-0.25321 -1.86294,-0.07829 -2.74616,-0.26215c-1.14995,0.49391 -2.54487,0.02757 -3.81065,0.04654c-3.6014,0.05398 -9.46186,0.76712 -12.42057,-1.73789c-2.38104,-2.01593 -1.86326,-6.81581 -1.87357,-9.33966c-0.00572,-1.40157 -0.11706,-7.30239 0.56664,-8.01814c1.28469,-1.3449 3.81543,-0.44885 5.39171,-1.43602c0.94411,-0.59126 1.06174,-1.95868 1.59262,-2.93802c0.0459,-0.55963 0.3994,-1.18209 0.1377,-1.67888c-0.4096,-0.77756 -1.53526,-0.99723 -1.95433,-1.76973c-0.84386,-1.55554 -1.03098,-3.39341 -1.72881,-5.0197c-1.21905,-2.84096 -4.99185,-6.16814 -1.12891,-9.85654c4.03654,-3.85417 9.73566,1.49468 14.05972,0.40684c1.23496,-0.31069 2.31984,-1.06712 3.40139,-1.73937c1.2613,-0.78398 2.14402,-2.87628 3.60617,-2.61629c2.19488,0.39029 3.48534,2.78067 5.21661,4.18514c2.11505,1.71581 4.50041,3.16224 6.28837,5.21668c0.9259,1.0639 1.79462,2.21757 2.36928,3.50557c0.28637,0.64186 -0.40897,2.55104 0.13362,2.1043c0.79311,-0.65299 0.41287,-2.04161 0.89321,-2.94973c0.74804,-1.41419 1.50986,-2.92196 2.74833,-3.93471c3.01917,-2.46888 10.52327,-4.30124 14.40091,-2.57597c1.81504,0.80756 2.89773,2.71831 4.34659,4.07746c2.20505,2.20505 3.89209,5.052 6.55501,6.67476c1.55235,0.946 4.05582,0.36985 5.13699,1.83128c1.69647,2.29313 0.00742,6.01475 0.48314,8.62524c0.72394,3.97263 1.30058,4.17661 4.27771,6.82995c1.02893,0.91702 1.93746,2.09783 3.22643,2.58587c1.40051,0.53027 3.01398,0.02796 4.4803,0.33212c1.62691,0.33747 3.10105,1.24194 4.72825,1.578c3.12624,0.64565 6.58721,0.13292 9.71948,0.47014c1.93834,0.20869 3.94839,0.31399 5.75355,1.05027c1.96028,0.79954 3.32272,3.01225 5.41821,3.3137c3.48559,0.50144 7.24063,-0.6131 10.72195,0c3.64492,0.64192 5.31787,3.34317 8.84884,3.21658c3.17691,-0.79158 4.58903,-5.36869 5.716,-8.3349c0.76434,-2.01175 -0.02725,-5.09966 1.82677,-6.19234c2.14778,-1.26581 5.11308,-0.15679 7.44351,0.72882c1.77114,0.67307 2.90095,2.44045 4.28924,3.72987c4.52253,4.20047 8.52872,10.04861 13.53291,13.62623c1.41849,1.01411 4.57463,0.86273 5.94469,0.71099c4.90864,-0.54366 8.33188,-3.79363 13.38013,-3.2144c5.25549,0.603 10.29105,3.38482 14.0018,7.07776c2.46799,2.45614 3.89943,5.69867 6.26198,8.24311c4.92657,1.12293 9.81808,0.66986 14.85117,0.74769c1.69345,0.02619 3.4923,-0.46309 5.07934,0.12829c4.58462,1.70837 4.93665,3.92452 7.55313,7.19246c0.7881,0.98433 2.06481,1.63355 2.54356,2.80009c0.34501,0.84066 -0.66856,1.88933 -0.2816,2.71152c0.22574,0.47964 1.05884,0.06334 1.58894,0.06625c1.53319,0.00842 3.06633,-0.02947 4.59954,-0.03228c2.7441,-0.00502 6.75754,-0.1973 8.76465,2.03366c1.15472,1.28351 0.6155,3.43313 0.4972,5.15557c-0.07744,1.12754 -0.8802,2.10281 -1.07219,3.21658c-0.67097,3.89243 2.03791,11.69895 -2.07813,14.49399c-0.90557,0.61494 -6.64893,0.4616 -8.56668,0.43962c-5.86351,1.99935 -11.85125,3.43229 -17.7604,5.23797c-2.06142,0.62991 -4.02251,2.63542 -6.11285,2.10938c-3.69445,-0.92973 -0.71482,-4.43982 -3.43952,-5.46649c-3.23986,-1.22078 -5.59621,-0.39095 -8.99432,-0.76602c-3.31938,-0.36638 -6.4941,-1.63912 -9.81054,-2.03129c-1.7506,-0.207 -3.57241,0.22038 -5.28467,-0.1987c-1.54137,-0.37725 -2.70826,-1.77913 -4.25446,-2.13603c-1.61149,-0.37197 -3.34616,0.36326 -4.96157,0.00875c-1.63249,-0.35825 -2.92924,-1.70691 -4.5544,-2.09707c-1.40513,-0.33733 -2.92109,0.2613 -4.33501,-0.03705c-1.65546,-0.34931 -3.0786,-1.45279 -4.71748,-1.87307c-4.36126,-1.11842 -10.37474,-0.22346 -14.80641,-0.22346c-7.26828,0 -14.53658,0 -21.80486,0c-2.74351,0 -5.63977,0.79741 -8.22982,-0.10727c-1.21654,-0.42492 -1.98246,-1.77364 -3.21659,-2.14439c-1.13838,-0.34199 -2.37576,0.09239 -3.56431,0.10727c-5.71625,0.0716 -11.43825,0 -17.15511,0c-0.78571,0 -6.73502,0.02917 -7.15763,-0.10727c-2.69441,-0.86991 -4.60167,-3.58946 -7.35528,-4.24838c-1.30325,-0.31187 -2.68987,0.21206 -4.01986,0.04814c-3.85737,-0.47542 -8.01065,-1.19852 -11.79414,-2.14439c-4.5443,0.02924 -9.08869,0.01873 -13.63307,0.01873c-1.77709,0 -3.6365,-0.5092 -5.40796,-0.52278c1.70601,1.3348 3.45014,2.5452 4.76357,3.52814c0,0 2,1.5 0.5,3.5c-1.5,2 -3.5,0.5 -3.5,0.5c-1.9311,-1.45126 -4.36533,-3.18704 -6.5814,-5.09801c-0.22465,0.23413 -0.45325,0.46168 -0.69437,0.6683l-1.45663,1.1653c0,0 -1.95217,1.56174 -3.51391,-0.39043z" fill="#aef0ff" stroke-width="0.5"/><path d="M460.3284,326.14571c-0.89625,2.33382 -3.23007,1.43759 -3.23007,1.43759l-2.38307,-0.91516c-1.53834,-0.59098 -3.06991,-1.19991 -4.61503,-1.77295c-1.79918,-0.66726 -4.06715,-0.58412 -5.41728,-1.94773c-1.63763,-1.65398 -3.57277,-4.17677 -2.83109,-6.38299c0.05221,-0.1553 0.12298,-0.29153 0.20991,-0.41103c-0.11108,-0.19792 -0.21017,-0.4019 -0.29201,-0.61452c-0.45595,-1.1845 0.07893,-2.76282 -0.73601,-3.73584c-0.88939,-1.06191 -2.63524,-0.93163 -3.80045,-1.6806c-0.80165,-0.51529 -1.17978,-1.55557 -1.99694,-2.04586c-1.0181,-0.61086 -2.47007,-0.38936 -3.36403,-1.17072c-1.62193,-1.41764 -2.9693,-3.21463 -3.88441,-5.16474c-0.52825,-1.1257 0.07469,-2.52913 -0.28464,-3.71955c-0.4309,-1.42752 -1.52294,-2.58257 -2.03984,-3.98124c-0.24923,-0.67438 0.4239,-1.83409 -0.22427,-2.14519c-1.02938,-0.49406 -2.28771,0.6569 -3.40139,0.40501c-1.55896,-0.3526 -2.75417,-1.69758 -4.28878,-2.14438c-2.71076,-0.78924 -5.7463,-0.10897 -8.40269,-1.06539c-0.22323,-0.08038 -7.42775,-4.05293 -8.26754,-4.515c-1.75124,-1.01459 -3.94928,-1.49629 -5.25371,-3.04377c-0.59861,-0.71015 1.14265,-2.26484 0.35886,-2.76314c-1.03055,-0.65518 -2.37534,0.76808 -3.59493,0.70578c-1.2433,-0.06351 -2.34969,-0.86678 -3.57755,-1.0722c-1.25394,-0.20979 -2.6264,0.29883 -3.8106,-0.16385c-1.014,-0.39618 -1.37414,-1.80411 -2.36732,-2.2499c-1.34211,-0.60242 -2.91671,-0.41857 -4.34675,-0.76376c-1.16952,-0.2823 -2.24288,-0.93824 -3.43306,-1.11415c-4.81168,-0.71114 -10.69859,1.38635 -15.35328,-0.07793c-1.22923,-0.38669 -2.0082,-1.6968 -3.21659,-2.14439c-1.3458,-0.4985 -3.22919,0.37371 -4.25989,-0.62496c-0.97287,-0.94265 -0.00132,-2.78555 -0.54193,-4.02764c-0.40342,-0.92689 -1.77783,-1.20232 -2.14439,-2.14439c-1.13592,-2.91933 0.82699,-3.63401 -0.88912,-6.07555c-0.94552,-1.34521 -2.82007,-2.03547 -3.39965,-3.5742c-0.57581,-1.52871 0.02573,-10.21396 0.10551,-11.7861c1.01869,-0.59203 2.61792,-0.68236 3.05608,-1.77608c0.46096,-1.15062 -1.72071,-2.68022 -0.89902,-3.60826c2.53852,-2.86711 8.21968,-2.43298 11.4803,-2.36918c1.15555,0.02262 2.4241,-0.31804 3.46207,0.1903c0.6526,0.3196 0.23611,2.14144 0.94133,1.96625c0.76297,-0.18954 0.0107,-1.66678 0.45738,-2.31372c0.8029,-1.16289 1.81788,-2.32254 3.12104,-2.86911c0.57017,-0.23914 6.37968,-0.1903 7.38988,-0.1903c4.10595,0 8.01716,-0.21637 12.05278,0.91842c1.58243,0.44497 2.96518,1.47009 4.55371,1.8928c3.15232,0.83884 5.97748,-0.28985 8.74955,2.20978c0.75601,0.6817 -0.01934,2.3088 0.76621,2.95624c0.60811,0.50121 1.56795,-0.60879 2.32919,-0.40502c1.6956,0.45388 3.13387,1.58551 4.73854,2.29691c3.1717,1.40612 6.41577,2.64488 9.58947,4.04649c0.21445,2.98165 0.46394,5.9667 0.46394,8.95605c0,1.0722 0.23449,2.17034 0,3.21659c-0.11478,0.51214 -1.4905,1.39234 -0.99451,1.22071c0.99683,-0.34492 1.6652,-1.32339 2.61533,-1.78154c2.39592,-1.1553 5.00847,-1.84992 7.61208,-2.39431c1.51272,-0.31629 3.15257,0.11333 4.62187,-0.3658c1.42861,-0.46586 2.32182,-2.44461 3.82341,-2.38814c2.24174,0.0843 4.37685,1.37161 6.1368,2.76269c1.36822,1.08146 2.33252,2.71133 2.88261,4.36632c0.42658,1.28343 -0.44999,2.75481 -0.08303,4.05653c0.18854,0.66881 1.09792,0.85553 1.60246,1.33333c0.59519,0.56364 0.98302,1.3723 1.69095,1.78553c0.90634,0.52904 2.06383,0.48001 3.00063,0.95303c1.03378,0.52199 1.75107,1.61068 2.84266,1.99745c2.13079,0.75497 4.52032,-0.10727 6.7809,-0.10727c3.81858,0 7.62892,0.00336 11.4464,0.10727c1.0722,0.71479 2.00293,1.7113 3.21659,2.14438c0.78311,0.27945 1.6608,-0.09165 2.49212,-0.10727c3.57133,-0.06711 7.14988,0 10.72195,0c0.48663,0 7.92073,-0.06512 8.46206,0.1903c2.45479,1.15825 3.57813,4.57898 6.20092,5.27794c3.93207,1.04787 5.23257,-2.33083 9.62087,0.62496c0.97653,0.65776 -0.36185,2.523 0.26033,3.52258c0.3623,0.58207 1.39273,-0.01398 2.04837,0.18651c1.49517,0.45722 2.8295,1.38164 4.34442,1.76839c4.27138,1.09044 9.7291,0.22346 14.09519,0.22346c1.42959,0 2.8604,-0.05902 4.28877,0c0.70443,0.02911 1.49592,0.62986 2.09855,0.26394c0.89791,-0.54522 1.17711,-1.74023 1.76567,-2.61034c0.03882,-1.0153 0.07766,-2.0306 0.11648,-3.04591l-1.9055,-3.811c-0.18291,-0.34741 -0.28643,-0.74312 -0.28643,-1.16302c0,-1.38071 1.11929,-2.5 2.5,-2.5c0.41989,0 0.81561,0.10352 1.16302,0.28642l4.24379,2.1219l-0.17493,0.34986c1.48186,0.52203 2.94171,1.103 4.36982,1.75c1.38051,0.62543 2.853,1.04089 4.21319,1.70938c0.31292,0.15379 0.64386,1.06191 0.74952,0.72964c0.67273,-2.11572 -1.19916,-4.95848 -1.91965,-6.50163c-1.36828,-2.93061 -4.49279,-8.14179 -3.00117,-11.62291c0.72816,-1.69939 3.0507,-2.24743 4.84191,-2.70538c4.61766,-1.18058 9.8953,1.67423 13.01494,4.96522c1.16517,1.22916 2.18915,2.66872 2.76935,4.25989c0.67357,1.84724 -0.16452,4.13335 0.80609,5.8433c1.00243,1.76601 4.23324,1.3186 5.26245,3.06914c1.43714,2.44437 0.48491,8.88918 0,11.79414c6.87235,0.28654 14.42494,-0.9706 17.51974,7.17048c0.38099,1.00222 -0.31042,2.19031 0,3.21659c0.45827,1.51509 2.64487,2.6573 2.23949,4.18739c-0.60615,2.28793 -2.77886,3.96629 -4.74771,5.27994c-0.8474,0.5654 -2.18111,-0.59676 -3.05525,-0.07363c-1.05703,0.63257 -1.37701,2.04451 -2.00697,3.10311c-1.7083,2.87068 -3.26623,7.00254 -6.45688,8.63047c-5.17891,2.64236 -10.57155,0.52189 -15.93701,1.37796c-2.53811,0.40496 -4.86343,1.7857 -7.41036,2.13083c-4.41058,0.59768 -5.87706,-0.20373 -10.14629,-1.25504c-4.50147,-1.15073 -8.79657,-0.00863 -13.24302,-0.90217c-3.30885,-0.66494 -5.99384,-3.263 -9.27092,-4.0701c-1.52963,-0.37673 -3.16281,0.08191 -4.72435,-0.12622c-3.19274,-0.42552 -6.20677,-1.84517 -9.40721,-2.20826c-1.78202,-0.20217 -3.63898,0.3571 -5.37983,-0.07405c-1.34956,-0.33424 -2.25931,-1.70252 -3.57756,-2.14438c-1.82269,-0.61095 -3.844,0.09056 -5.76636,0.09056c-3.02521,0 -6.134,-0.77414 -9.07537,-0.06688c-4.49255,1.08024 -8.38711,5.1373 -12.86633,6.43317c-0.90839,0.26281 -1.95804,-0.4791 -2.83425,-0.12342c-0.93664,0.38021 -1.19619,1.79398 -2.14439,2.14439c-0.64712,0.23914 -6.32042,0.1903 -7.38988,0.1903c-1.53715,0 -3.07428,0 -4.61143,0c0.38533,0.37017 0.67827,0.933 0.67827,1.78877c0,0.23895 -0.02284,0.45506 -0.06415,0.65051l0.60478,0.23225c0,0 2.33383,0.89625 1.43759,3.23007z" fill="#a4e2f1" stroke-width="0.5"/><path d="M440.20865,313.87847l-120.72568,-19.04539l2.10811,-14.84537l120.72569,19.04539z" fill="#53322a" stroke-width="0"/><path d="M353.00655,296.08661c-0.10532,0.74174 -0.80907,0.63072 -0.80907,0.63072l-0.37048,-0.05845c-1.56007,-0.24611 -2.48921,-0.59911 -3.97775,0.13842c-1.35122,-0.19207 -2.79234,0.43786 -4.1586,-0.25365c-1.91494,-0.96921 -3.38814,-1.30361 -5.62693,-1.65679c-3.3293,-0.52522 -6.99503,-0.66234 -10.11509,-2.01761c0,0 -0.65717,-0.28762 -0.3843,-0.98028c0.27287,-0.69266 0.93004,-0.40506 0.93004,-0.40506c2.67329,1.17964 5.81116,1.29335 8.66858,1.74413c2.62863,0.41469 4.83989,0.71377 7.11813,1.95079c1.05836,0.57466 2.29969,-0.05195 3.36194,0.1343c1.56964,-0.77772 2.74943,-0.39728 4.39465,-0.13773l0.37047,0.05845c0,0 0.70373,0.11102 0.59841,0.85275z" fill="#724539" stroke-width="0.5"/><path d="M390.98789,292.15758c0.22051,0.71308 -0.45603,0.9455 -0.45603,0.9455l-0.95775,0.30792c-0.92149,-0.13586 -2.27862,-0.99692 -3.11314,-0.58409c-0.5652,0.27959 -0.82855,0.99921 -1.33324,1.38662c-4.79892,0.91998 -9.30384,-0.2215 -14.25153,-0.93736c-3.06734,-0.4438 -6.21087,-0.58052 -9.32585,-1.07193c-2.86518,-0.452 -5.73037,-0.90401 -8.59555,-1.35601c-0.79095,-0.12477 -2.72441,-0.19813 -3.45928,-0.57827c-1.94144,-1.00428 -4.70721,-2.32934 -6.98842,-2.66689c0,0 -0.70372,-0.11102 -0.59839,-0.85276c0.10532,-0.74174 0.80906,-0.63073 0.80906,-0.63073c2.34889,0.38936 5.40482,1.68824 7.38724,2.79489c0.55735,0.31113 2.5231,0.3655 3.06046,0.45027c2.86518,0.452 5.73036,0.90401 8.59554,1.35602c3.11593,0.49156 6.23616,0.6414 9.30915,1.0694c4.64834,0.64743 9.00407,1.82022 13.49683,1.04471c2.09749,-1.67861 2.34263,-1.37781 4.88879,-0.91868l0.63508,-0.23928c0,0 0.67654,-0.23242 0.89705,0.48066z" fill="#724539" stroke-width="0.5"/><path d="M410.78068,306.53564c-0.57209,0.44599 -0.99523,-0.15701 -0.99523,-0.15701l0.15173,-0.15319c-2.42322,-0.38513 -4.69597,0.05766 -7.22452,-0.34124c-0.93832,-0.16334 -1.88581,0.28342 -2.83578,0.33083c-3.64494,0.18187 -8.07966,-0.85511 -11.7049,-1.42701c-2.15022,-0.33921 -4.13982,-0.30103 -5.81898,-1.84383c0,0 -0.52712,-0.50382 -0.04912,-1.05941c0.478,-0.55559 1.00511,-0.05175 1.00511,-0.05175c1.29592,1.30669 3.31913,1.19472 5.07366,1.47151c3.55863,0.5614 7.80207,1.5405 11.37589,1.41568c1.31041,-0.04577 1.62615,-0.54237 3.16479,-0.3195c2.54485,0.40147 4.76318,-0.04436 7.22452,0.34125l0.78179,0.74469c0,0 0.42314,0.60299 -0.14896,1.04898z" fill="#724539" stroke-width="0.5"/><path d="M335.16846,286.12757c0.12752,0.02936 0.66466,0.19274 0.5717,0.84732c-0.10532,0.74174 -0.80906,0.63072 -0.80906,0.63072l-0.94169,-0.56777c-0.31439,-1.26839 -1.07389,-0.55895 -2.28174,-0.73924c-3.1517,-0.47042 -6.37418,0.14358 -9.4284,-0.28969c0,0 -0.70372,-0.11102 -0.59839,-0.85276c0.10532,-0.74174 0.80906,-0.63072 0.80906,-0.63072c2.98151,0.53422 6.30814,-0.23331 9.4284,0.28969c1.59133,0.26673 2.5229,-0.32095 3.25013,1.31243z" fill="#724539" stroke-width="0.5"/><path d="M322.42187,281.35387l-0.02495,0.00083c0.10266,0.29316 0.29378,0.55832 0.50888,0.77126c0.69386,0.74435 1.46959,1.47179 1.33463,2.65072c-0.05871,0.51287 -0.74732,0.81977 -0.7446,1.33635c0.00396,0.7536 0.67016,1.60395 0.28737,2.24048c-0.35645,0.59272 -2.10345,0.4031 -2.40888,1.50841c-0.29228,1.05773 0.58804,2.15762 0.14928,3.32936c-0.33916,0.90575 -0.93802,0.74474 -1.11309,1.29293c0.0734,0.17446 0.09069,0.40582 -0.07724,0.67883c-0.28366,0.46116 -0.68009,0.36528 -0.87167,0.28112c-0.1714,-0.04481 -0.28639,-0.13138 -0.3632,-0.23241c-4.31781,-2.99403 -8.10127,-6.72948 -12.3082,-9.89429c-0.13988,0.00715 -0.29764,-0.03136 -0.44633,-0.17138c-0.11154,-0.08411 -0.21591,-0.21224 -0.25191,-0.40546c-0.0542,-0.18842 -0.01905,-0.3532 0.04203,-0.48263c0.07479,-0.21371 0.21205,-0.32738 0.34986,-0.38683c3.96895,-2.82428 10.16555,-2.27062 14.48552,-4.43489l0.78527,-0.12394c0,0 0.70826,-0.07219 0.77676,0.67433c0.02272,0.24761 -0.04002,0.42104 -0.13403,0.54224zM322.01223,287.06053c-0.02082,0.07252 -0.04237,0.14504 -0.06462,0.21756c0.04212,-0.01538 0.08375,-0.03197 0.12471,-0.05015c0.00588,-0.00261 -0.02089,-0.06528 -0.06009,-0.16741z" fill="#875243" stroke-width="0.5"/><path d="M312.66887,289.64318c-0.02228,0.02724 -0.04719,0.05446 -0.07493,0.08157c-0.52186,0.50984 -1.00559,-0.04021 -1.00559,-0.04021c-1.1393,-1.29557 -2.43797,-2.48059 -3.66507,-3.67988c-0.366,-0.35771 -1.58558,-1.04016 -1.58085,-1.6361c0.00401,-0.50685 0.49125,-0.90492 0.87733,-1.20713c0.96517,-0.75548 1.18759,-0.37992 2.11938,-0.51016c1.56217,-0.21835 5.40673,-2.90499 4.54057,1.07584c2.71985,0.84294 -0.17267,3.80778 -0.64091,5.27424l0.01086,0.00521c0,0 -0.08157,0.57446 -0.58078,0.63661z" fill="#a06c5d" stroke-width="0.5"/><path d="M333.66522,297.48998c-0.70295,-0.11584 -0.56975,-0.85309 -0.56975,-0.85309c0.55875,-3.04191 1.51893,-2.46309 3.81912,-2.64047c1.23693,-0.09539 2.5268,-1.0344 3.74535,-0.55754c2.55309,0.99912 3.37243,3.43332 6.44637,3.42213c1.40395,-0.47883 4.62781,-0.8536 5.78442,0.49895c0.24858,0.29069 0.68754,2.29899 0.47703,2.56189c-0.63596,0.79424 -2.47613,0.21227 -3.26405,0.08243c-2.93229,-0.48323 -5.86458,-0.96646 -8.79687,-1.44969c-2.35555,-0.38819 -4.75923,-0.7843 -7.11477,-1.17248c-0.12368,0.09103 -0.29401,0.14623 -0.52684,0.10787z" data-paper-data="{&quot;index&quot;:null}" fill="#9c5f4e" stroke-width="0.5"/><path d="M437.95086,306.45099l-123.65026,-35.56494l4.14924,-14.42586l123.65027,35.56493z" fill="#653d33" stroke-width="0"/><path d="M349.16535,276.76162c-0.20731,0.72078 -0.92809,0.51346 -0.92809,0.51346l-0.37946,-0.10914c-1.59787,-0.45959 -2.52243,-0.93795 -4.17454,-0.4125c-1.38673,-0.37716 -2.97516,0.04818 -4.3121,-0.82616c-1.87386,-1.22548 -3.36937,-1.76058 -5.66239,-2.42012c-3.40996,-0.98079 -7.22235,-1.62331 -10.30483,-3.39808c0,0 -0.64897,-0.37595 -0.27303,-1.02492c0.37594,-0.64898 1.02491,-0.27303 1.02491,-0.27303c2.63867,1.5389 5.90256,2.08527 8.82921,2.92705c2.69232,0.77438 4.96365,1.37647 7.18201,2.91765c1.03055,0.71596 2.40979,0.26631 3.49532,0.59775c1.74211,-0.55408 2.925,-0.01389 4.61007,0.47078l0.37945,0.10915c0,0 0.72078,0.20731 0.51346,0.92809z" fill="#724539" stroke-width="0.5"/><path d="M389.36757,278.11543c0.13691,0.73739 -0.60048,0.87431 -0.60048,0.87431l-1.04113,0.17291c-0.94506,-0.26204 -2.25022,-1.30322 -3.17636,-1.00928c-0.62724,0.19907 -0.99678,0.87608 -1.57493,1.1904c-5.13506,0.24883 -9.69264,-1.50536 -14.76866,-2.89879c-3.1469,-0.86386 -6.41368,-1.43383 -9.60412,-2.35149c-2.93459,-0.84406 -5.86918,-1.68813 -8.80377,-2.53219c-0.81011,-0.233 -2.82079,-0.57293 -3.53882,-1.05134c-1.89695,-1.26392 -4.6132,-2.95976 -6.9526,-3.60965c0,0 -0.72078,-0.20731 -0.51346,-0.92809c0.20731,-0.72078 0.92809,-0.51346 0.92809,-0.51346c2.40332,0.71062 5.4262,2.42059 7.35255,3.79165c0.54159,0.38547 2.58849,0.71103 3.13887,0.86933c2.93459,0.84406 5.86918,1.68813 8.80377,2.53219c3.19142,0.91793 6.43212,1.49767 9.587,2.34667c4.7722,1.28423 9.16979,3.04884 13.966,2.90092c2.41179,-1.37425 2.62849,-1.04216 5.22879,-0.23513l0.69498,-0.14945c0,0 0.73739,-0.13691 0.8743,0.60048z" fill="#724539" stroke-width="0.5"/><path d="M331.83195,264.42338c0.12939,0.04672 0.66923,0.28292 0.48628,0.919c-0.20731,0.72078 -0.92809,0.51346 -0.92809,0.51346l-0.90955,-0.693c-0.1622,-1.30089 -1.04883,-0.70254 -2.28729,-1.04818c-3.23156,-0.90192 -6.67926,-0.73855 -9.81384,-1.59016c0,0 -0.72078,-0.20731 -0.51346,-0.92809c0.20731,-0.72078 0.92809,-0.51346 0.92809,-0.51346c3.04535,0.94165 6.62203,0.64047 9.81384,1.59017c1.62782,0.48435 2.67829,0.03048 3.22401,1.75027z" fill="#724539" stroke-width="0.5"/><path d="M319.13882,257.92935l-0.02617,-0.00263c0.06883,0.30482 0.23377,0.59411 0.43061,0.83493c0.62742,0.83382 1.34262,1.66217 1.04703,2.81227c-0.12859,0.50032 -0.88837,0.70942 -0.95326,1.22192c-0.09467,0.74764 0.48995,1.68273 0.00651,2.26085c-0.45018,0.53835 -2.25077,0.10892 -2.71483,1.16249c-0.44409,1.00822 0.33155,2.22025 -0.28055,3.32124c-0.47315,0.85107 -1.07779,0.60868 -1.33261,1.12795c0.05383,0.18311 0.04156,0.41485 -0.16971,0.66228c-0.35687,0.41798 -0.75852,0.26815 -0.94768,0.15824c-0.17322,-0.06811 -0.28203,-0.16984 -0.34905,-0.28061c-4.11915,-3.56489 -7.58276,-7.79096 -11.56366,-11.50983c-0.14711,-0.01224 -0.30689,-0.07222 -0.44389,-0.23158c-0.10553,-0.09879 -0.19779,-0.24026 -0.21006,-0.43677c-0.03193,-0.19429 0.02639,-0.35278 0.10719,-0.47265c0.10618,-0.20154 0.26452,-0.29525 0.4163,-0.33515c4.51751,-2.2514 10.9198,-0.84617 15.71755,-2.39475l0.83678,-0.01434c0,0 0.74954,0.02631 0.72323,0.77585c-0.00873,0.24861 -0.09702,0.41187 -0.21114,0.51904zM317.96257,263.53012c-0.03127,0.06902 -0.06329,0.13793 -0.09605,0.20675c0.04603,-0.00943 0.09169,-0.02013 0.13688,-0.03249c0.00648,-0.00178 -0.01326,-0.0676 -0.04083,-0.17426z" fill="#9c5f4e" stroke-width="0.5"/><path d="M307.86096,264.79926c-0.02685,0.02393 -0.05645,0.04748 -0.08899,0.07052c-0.61214,0.43333 -1.04548,-0.17883 -1.04548,-0.17883c-1.02059,-1.44184 -2.22222,-2.7961 -3.34718,-4.15461c-0.33554,-0.4052 -1.5204,-1.2503 -1.43733,-1.84044c0.07065,-0.50192 0.63196,-0.82922 1.075,-1.07546c1.10757,-0.61557 1.29074,-0.21251 2.28145,-0.21286c1.66096,-0.00058 6.03043,-2.13273 4.60343,1.69403c2.73149,1.21154 -0.67969,3.75106 -1.36123,5.14014l0.01068,0.00667c0,0 -0.16056,0.55822 -0.69034,0.55085z" fill="#bc7f6d" stroke-width="0.5"/><path d="M424.34308,307.33342l-95.42021,-86.30895l10.06937,-11.13236l95.42023,86.30895z" fill="#653d33" stroke-width="0"/><path d="M357.65351,241.63085c-0.50311,0.55623 -1.05933,0.05311 -1.05933,0.05311l-0.29282,-0.26486c-1.23307,-1.11533 -1.85314,-1.95148 -3.56802,-2.20593c-1.07967,-0.94845 -2.69334,-1.26483 -3.5097,-2.63795c-1.1442,-1.92457 -2.25213,-3.06271 -4.02165,-4.66326c-2.63144,-2.38018 -5.77307,-4.63348 -7.76129,-7.58279c0,0 -0.41758,-0.623 0.20541,-1.04058c0.62299,-0.41759 1.04058,0.2054 1.04058,0.2054c1.69332,2.54233 4.38458,4.46811 6.64305,6.51094c2.07765,1.87926 3.85294,3.41869 5.16775,5.77827c0.61081,1.09615 2.04728,1.29871 2.87653,2.07368c1.8083,0.26831 2.63321,1.27358 3.93357,2.44978l0.29282,0.26486c0,0 0.55623,0.50311 0.05311,1.05934z" fill="#724539" stroke-width="0.5"/><path d="M393.16616,260.52274c-0.20124,0.72249 -0.92374,0.52125 -0.92374,0.52125l-1.01112,-0.30247c-0.7336,-0.65087 -1.44806,-2.15986 -2.40911,-2.30305c-0.65089,-0.09699 -1.28046,0.34859 -1.93793,0.37671c-4.72149,-2.03427 -8.04363,-5.61367 -11.99004,-9.097c-2.44659,-2.1595 -5.13006,-4.10774 -7.5921,-6.3347c-2.26461,-2.04837 -4.52922,-4.09674 -6.79383,-6.14511c-0.62516,-0.56546 -2.28161,-1.75481 -2.71616,-2.5002c-1.14805,-1.96925 -2.84204,-4.68663 -4.65744,-6.29891c0,0 -0.55622,-0.50311 -0.05311,-1.05933c0.50311,-0.55623 1.05933,-0.05311 1.05933,-0.05311c1.84612,1.69493 3.8093,4.55984 4.93664,6.63824c0.31695,0.58434 2.01224,1.77671 2.43697,2.16088c2.26461,2.04837 4.52921,4.09674 6.79382,6.14511c2.46279,2.22763 5.11856,4.17319 7.57885,6.32285c3.72154,3.25167 6.8954,6.77008 11.26818,8.746c2.77038,-0.17388 2.81901,0.21965 4.79966,2.08779l0.6899,0.17133c0,0 0.72249,0.20125 0.52125,0.92374z" fill="#724539" stroke-width="0.5"/><path d="M402.57858,284.04611c-0.74906,0.03755 -0.78661,-0.7115 -0.78661,-0.7115l0.21799,-0.03903c-1.91371,-1.73478 -4.15372,-2.69229 -6.15225,-4.5c-0.73316,-0.68358 -1.81215,-0.86444 -2.67221,-1.37931c-3.29996,-1.97553 -6.61834,-5.42694 -9.48368,-8.01868c-1.69951,-1.53723 -3.46698,-2.66645 -4.08667,-4.93109c0,0 -0.18373,-0.72716 0.54342,-0.91089c0.72715,-0.18372 0.91088,0.54343 0.91088,0.54343c0.41402,1.84438 2.25185,2.93177 3.6386,4.18611c2.8127,2.54413 5.99521,5.83571 9.20117,7.81725c1.17553,0.72657 1.7276,0.49727 2.95472,1.58074c2.01142,1.81936 4.20534,2.74258 6.15225,4.5l0.27391,1.07635c0,0 0.03755,0.74906 -0.7115,0.78661z" fill="#724539" stroke-width="0.5"/><path d="M411.29482,280.03463c-0.50311,0.55622 -1.05933,0.05311 -1.05933,0.05311l-0.38395,-0.39918c-1.65907,-0.74214 -2.54047,-2.01094 -4.01433,-3.01398c-1.88698,-1.2842 -3.84957,-1.61327 -4.81901,-3.96597c0,0 -0.27251,-0.69875 0.42624,-0.97125c0.69874,-0.2725 0.97125,0.42624 0.97125,0.42624c0.70612,1.97342 2.7244,2.23924 4.26968,3.27378c1.38561,0.92765 2.21911,2.21326 3.76898,2.87763l0.78735,0.66028c0,0 0.55623,0.50311 0.05312,1.05934z" fill="#724539" stroke-width="0.5"/><path d="M338.96509,211.51457l-0.02234,-0.01386c-0.0722,0.30403 -0.05126,0.63638 0.01965,0.93922c0.19691,1.02476 0.47507,2.08321 -0.2961,2.98622c-0.33547,0.39283 -1.10981,0.24657 -1.39342,0.67834c-0.41375,0.62988 -0.2998,1.72677 -0.9882,2.03346c-0.64103,0.28559 -2.06943,-0.89179 -2.94946,-0.14955c-0.84215,0.71028 -0.67841,2.13991 -1.71226,2.85965c-0.79915,0.55635 -1.23564,0.07282 -1.69282,0.42716c-0.03216,0.18813 -0.14508,0.39086 -0.44362,0.52021c-0.5043,0.2185 -0.79917,-0.09266 -0.92074,-0.27454c-0.12563,-0.13734 -0.17864,-0.27654 -0.19013,-0.4055c-2.13225,-5.01293 -3.385,-10.33146 -5.32538,-15.42189c-0.12674,-0.07567 -0.24388,-0.19979 -0.29686,-0.40317c-0.05135,-0.13512 -0.07202,-0.30274 0.00336,-0.48465c0.05675,-0.18854 0.17882,-0.30525 0.30409,-0.37739c0.18397,-0.13433 0.36739,-0.14888 0.52126,-0.11797c5.04732,-0.03587 10.17973,4.04117 15.16973,4.75977l0.75786,0.35503c0,0 0.66164,0.35318 0.30846,1.01481c-0.11715,0.21946 -0.26823,0.32727 -0.41784,0.37335zM335.44611,216.02778c-0.05842,0.04825 -0.11749,0.09605 -0.17717,0.14346c0.04549,0.01176 0.09121,0.02223 0.13723,0.031c0.0066,0.00125 0.01781,-0.06654 0.03994,-0.17447z" fill="#9c5f4e" stroke-width="0.5"/><path d="M325.81528,212.72623c-0.03464,0.00969 -0.07157,0.01783 -0.11093,0.0242c-0.74032,0.12005 -0.86037,-0.62029 -0.86037,-0.62029c-0.28271,-1.74372 -0.76653,-3.48839 -1.17961,-5.20316c-0.12321,-0.51146 -0.81582,-1.79145 -0.48174,-2.28496c0.28413,-0.41974 0.93219,-0.46692 1.43838,-0.49328c1.26542,-0.06591 1.25272,0.37663 2.14268,0.81191c1.49205,0.72976 6.35398,0.73592 3.38977,3.54553c1.92061,2.28912 -2.25972,3.07019 -3.4826,4.01815l0.00666,0.01068c0,0 -0.38964,0.43078 -0.86223,0.19123z" fill="#bc7f6d" stroke-width="0.5"/><path d="M367.92496,235.8121c1.86386,1.68589 3.7658,3.40622 5.62966,5.09211c2.32022,2.09866 4.64042,4.19734 6.96064,6.296c0.62345,0.56392 2.3029,1.71174 2.08551,2.7127c-0.07196,0.33132 -1.97096,1.19245 -2.36781,1.16615c-1.84648,-0.12239 -3.67122,-2.97978 -4.21288,-4.41575c-2.0173,-2.51436 -4.50843,-1.70499 -6.99218,-3.18114c-1.18545,-0.70454 -1.28308,-2.32681 -2.02198,-3.39375c-1.37406,-1.98406 -2.47091,-2.41595 -0.40111,-4.71845c0,0 0.5031,-0.55623 1.05933,-0.05311c0.18423,0.16664 0.25225,0.33911 0.26083,0.49526z" fill="#9c5f4e" stroke-width="0.5"/><path d="M440.77905,330.38944c-5.67712,-3.86388 -10.52886,-8.58137 -17.00421,-11.41834c-0.8497,-0.37227 -3.54457,-1.43962 -4.727,-0.97866c-1.20061,0.46805 -1.96231,1.84888 -3.21659,2.14439c-2.00206,0.4717 -4.14139,0.40544 -6.17027,0.0672c-3.49413,-0.58252 -7.2133,-2.8657 -9.90914,-5.04147c-1.46344,-1.18111 -3.33186,-2.17148 -4.07958,-3.89705c-1.08102,-2.49475 -0.12023,-10.02348 0.07524,-12.92836c2.59467,-1.96098 5.27284,-3.81476 7.79703,-5.86566c1.0801,-0.87757 1.78624,-2.37171 3.11762,-2.7769c6.30946,-1.9202 11.09082,2.72679 17.11333,3.03509c1.135,0.0581 2.3306,0.49098 3.40708,0.12663c2.91806,-0.98766 3.31838,-5.40031 5.85132,-7.1538c2.15332,-1.49068 7.7868,0.11688 9.78198,0.51761c1.37115,0.27539 3.39938,-0.36562 4.11097,0.83834c1.18733,2.00887 0.98197,4.69636 0.5111,6.98188c-0.81964,3.97845 -5.82009,2.86061 -3.69633,7.94952c0.45603,1.09275 2.34706,0.40482 3.53102,0.38791c3.09594,-0.04423 6.19252,0 9.28877,0c1.2556,0 6.07709,-0.03805 6.67865,0.1903c1.08745,0.41277 1.56055,1.77862 2.56391,2.36698c1.35534,0.79476 2.99482,0.99255 4.39171,1.71177c1.14828,0.59123 1.92734,1.94031 3.19377,2.1938c1.03983,0.20813 2.06021,-0.53436 3.03726,-0.9466c3.71202,-1.56617 9.81491,-5.51095 14.12328,-2.89997c0.88245,0.53479 -0.00264,2.28046 0.72845,3.00862c0.38205,0.38051 0.67996,-0.86759 1.14184,-1.14583c2.17142,-1.30807 7.28566,-3.81108 9.90222,-3.37966c2.01518,0.33227 3.62538,1.89322 5.34663,2.99262c0.58777,0.37542 0.87766,1.21046 1.546,1.40983c1.06887,0.31884 2.31009,-0.36447 3.34587,0.0494c0.93871,0.37509 1.22038,1.73443 2.14439,2.14439c0.691,0.30658 1.50408,-0.17469 2.25988,-0.19031c4.51404,-0.09325 6.15002,-0.72734 9.40761,-3.9154c1.53478,-0.48149 3.00014,-1.56256 4.60434,-1.44449c6.52493,0.48023 9.02995,6.78386 14.58956,8.68374c2.13913,0.731 4.52031,-0.10727 6.7809,-0.10727c4.28878,0 8.57755,0 12.86633,0c0.6147,0 7.79598,-0.06513 8.46207,0.1903c1.11807,0.42874 1.65076,1.76532 2.64946,2.42599c1.19371,0.78967 2.56546,1.26861 3.85432,1.89222c0.42598,-0.77031 1.24671,-1.29192 2.18926,-1.29192c0.57191,0 1.09896,0.19204 1.5202,0.51515l3.9798,2.98485l-0.08585,0.11445c0.27182,0.2054 0.53048,0.42896 0.77305,0.6747c0.78829,0.79861 0.60131,7.99574 0.60158,8.93279c0.00095,3.29766 0.98546,8.6125 -0.1903,11.67865c-0.42874,1.11807 -1.75706,1.65626 -2.42598,2.64945c-0.99688,1.48012 -1.21532,3.51383 -2.53449,4.71564c-4.0135,3.65645 -4.64545,0.28137 -8.98805,1.52857c-1.05655,0.30344 -1.44537,1.85325 -2.50536,2.14439c-6.85249,1.88206 -13.81974,-1.1097 -20.44872,-2.00544c-6.09492,-0.82358 -13.20785,-0.23248 -19.20017,0.87014c-4.70633,0.85543 -9.57683,1.27611 -14.24339,2.29332c-2.29603,0.50049 -4.05354,2.46537 -6.29268,3.17848c-1.2522,0.3988 -2.62697,0.0915 -3.94105,0.10727c-2.63511,0.03161 -5.32763,0.51338 -7.90581,-0.03228c-4.82119,-1.02039 -9.45503,-3.40769 -14.37374,-4.12508c-1.6388,-0.23901 -3.33569,0.12367 -4.96551,-0.17048c-1.65946,-0.29949 -3.14934,-1.25575 -4.80169,-1.59228c-1.66965,-0.34005 -3.44148,-0.00877 -5.09425,-0.42317c-1.60933,-0.4035 -2.94639,-1.60768 -4.55916,-1.99723c-2.946,-0.71159 -6.31079,-0.16662 -8.93511,-1.68261c-0.97014,-0.56042 -1.53841,-1.63998 -2.41503,-2.33766c-0.84554,-0.67295 -1.6581,-1.31649 -2.45076,-1.95773c-0.01287,0.00794 -0.02587,0.01585 -0.03899,0.02372c-2.14373,1.28624 -3.42997,-0.8575 -3.42997,-0.8575c-0.92723,-1.57629 -2.14892,-3.01304 -2.78167,-4.72886c-0.0676,-0.18331 -0.10281,-0.37646 -0.11724,-0.5756c-0.06311,-0.04131 -0.13044,-0.07678 -0.20284,-0.10524c-0.70358,-0.27651 -1.50659,0.12686 -2.25988,0.1903l-3.30826,-3.52636c0,0 -0.64925,-1.2985 0.03127,-2.41123z" fill="#9edbe8" stroke-width="0.5"/><path d="M430.84504,222.69004c0.61514,-0.49346 1.20886,-1.02621 1.94699,-1.25888c1.18486,-0.3735 2.48325,-0.09002 3.72546,-0.10727c3.48524,-0.04839 7.20229,-0.27838 10.68072,0.00629c2.15378,0.17626 4.16552,1.18677 6.29755,1.53932c3.44809,0.57017 4.9298,-1.00992 8.05746,-1.5005c3.86948,-0.60694 5.7886,0.82404 9.20417,1.46586c1.95604,0.36756 3.33467,-2.17596 5.04728,-3.18995c2.67022,-1.58098 3.04381,-1.27738 5.72532,-1.27097c0.82774,-0.36978 5.36632,-2.48221 6.2761,-2.54142c3.71928,-0.24206 3.94738,1.06163 6.65744,2.93778c3.29724,2.28265 6.51213,4.95529 9.37096,7.81514c0.5442,0.54439 0.75762,1.38699 1.35984,1.86641c1.94953,1.55199 4.03683,2.92998 6.15398,4.24414c1.19468,0.74156 2.77082,0.83405 3.83885,1.74864c3.30517,2.83034 3.25379,7.72601 3.8345,11.55216c0.22748,1.49882 1.03262,2.91592 1.02098,4.43186c-0.00949,1.23602 -0.74949,2.3563 -1.08224,3.54673c-0.29533,1.05655 -0.18474,2.28476 -0.8014,3.19209c-2.12936,3.13304 -6.76969,3.52047 -10.04347,4.60136c-2.26049,0.32293 -4.41498,1.21661 -6.67609,1.5351c-5.24235,0.73841 -11.80647,0.46195 -17.11216,0.02376c-3.36619,-0.27801 -6.17419,-1.76192 -9.41164,-2.5691c-4.48475,-1.11817 -8.71084,-2.28462 -13.23642,-2.94838c-9.82447,-1.44095 -20.02354,1.93001 -29.5721,-1.41128c-1.14739,-1.40494 -2.81536,-2.51263 -3.44217,-4.21482c-0.62799,-1.70541 0.12108,-3.64913 -0.11707,-5.45081c-0.13825,-1.04587 -0.8324,-1.96115 -1.00033,-3.00267c-0.65876,-4.08551 -0.04104,-8.74941 -0.03225,-12.90442c0.00103,-0.48452 -0.01674,-1.09267 -0.01919,-1.7554c-0.31496,0.05945 -0.62874,0.12266 -0.93982,0.19453c0,0 -2.44047,0.54233 -2.98279,-1.89814c-0.54233,-2.44047 1.89814,-2.98279 1.89814,-2.98279c0.99815,-0.21111 2.03463,-0.29649 3.02468,-0.53416c0.07773,-0.10546 0.16138,-0.20364 0.25138,-0.29364c0.54536,-0.54536 1.30285,-0.73681 2.09732,-0.86658z" fill="#aef0ff" stroke-width="0.5"/></g></g></g></svg>