<svg version="1.1" xmlns="http://www.w3.org/2000/svg" xmlns:xlink="http://www.w3.org/1999/xlink" width="25.70118" height="22.26242" viewBox="0,0,25.70118,22.26242"><g transform="translate(-456.14946,-9.87179)"><g data-paper-data="{&quot;isPaintingLayer&quot;:true}" fill-rule="nonzero" stroke="none" stroke-linecap="butt" stroke-linejoin="miter" stroke-miterlimit="10" stroke-dasharray="" stroke-dashoffset="0" style="mix-blend-mode: normal"><path d="M474.82916,20.98271c0,-6.13426 1.57181,-11.10707 3.51074,-11.10707c1.93893,0 3.51075,4.9728 3.51075,11.10707c0,6.13426 -1.57182,11.10708 -3.51075,11.10708c-1.93893,0 -3.51074,-4.97281 -3.51074,-11.10708z" fill="#fbfbfb" stroke-width="0"/><path d="M459.72933,32.13421v-22.23636h18.15136v22.23636z" fill="#fbfbfb" stroke-width="NaN"/><path d="M474.04916,25.84939c0,-3.29774 1.5146,-5.97109 3.38296,-5.97109c1.86836,0 3.38297,2.67335 3.38297,5.97109c0,3.29774 -1.51461,5.97109 -3.38297,5.97109c-1.86836,0 -3.38296,-2.67335 -3.38296,-5.97109z" fill="#f6f6f6" stroke-width="0"/><path d="M459.66021,32.08594c-0.61802,0 -1.19874,-0.50522 -1.70315,-1.39224c-0.19285,-0.60989 -0.44258,-1.1945 -0.74297,-1.7476c-0.65664,-2.01828 -1.06462,-4.84202 -1.06462,-7.96723c0,-6.13426 1.57181,-11.10708 3.51074,-11.10708c1.93893,0 3.51074,4.97281 3.51074,11.10708c0,6.13426 -1.57181,11.10707 -3.51074,11.10707z" data-paper-data="{&quot;index&quot;:null}" fill="#fbfbfb" stroke-width="0"/><path d="M460.64467,31.81663c-1.86836,0 -3.38297,-2.67335 -3.38297,-5.97109c0,-3.29774 1.51461,-5.97109 3.38297,-5.97109c1.86836,0 3.38296,2.67335 3.38296,5.97109c0,3.29774 -1.5146,5.97109 -3.38296,5.97109z" data-paper-data="{&quot;index&quot;:null}" fill="#f6f6f6" stroke-width="0"/><path d="M460.04117,31.84436v-11.95413h17.65574v11.95413z" fill="#f6f6f6" stroke-width="NaN"/><g fill="#34403a" stroke-width="0.5"><path d="M473.34909,17.43951c1.50646,2.08611 1.90179,3.7667 1.89516,6.15898l-0.03902,0.05435l0.03133,0.00361l-0.15157,0.85525c-0.05192,0.33053 -0.34739,0.59984 -0.73689,0.6874c-0.21872,0.3777 -0.4977,0.75338 -0.84213,1.12612c0,0 -0.61171,0.65743 -1.42731,0.16436c-0.8156,-0.49307 -0.2039,-1.1505 -0.2039,-1.1505c0.42445,-0.45251 0.70512,-0.92512 0.8662,-1.40794c-0.09223,-0.09239 -0.16017,-0.2012 -0.19601,-0.32014l-0.28167,-0.85141c-0.22563,-0.36437 -0.41943,-0.73493 -0.62529,-1.09713c-0.76725,-0.52016 -1.57191,-1.1106 -2.17006,-1.3516l-0.63383,-0.04831c0,0 -0.06026,-0.00809 -0.14882,-0.03221c-0.03443,0.04032 -0.07004,0.07989 -0.10693,0.11839c-0.01528,-0.00066 -0.03065,-0.00099 -0.04609,-0.00099c-0.10501,0 -0.20645,0.0153 -0.3022,0.0438c-0.09575,-0.0285 -0.19719,-0.0438 -0.3022,-0.0438c-0.26754,0 -0.51188,0.09933 -0.69815,0.26313c-0.19487,0.01711 -0.37457,0.08707 -0.5247,0.19545c-0.03298,-0.00913 -0.06533,-0.01863 -0.09706,-0.02851c0.00085,0.03503 0.00181,0.07005 0.00288,0.10506c-0.21203,0.19343 -0.34506,0.47198 -0.34506,0.7816c0,0.37254 0.19261,0.7001 0.48367,0.88853c0.0114,0.08185 0.0235,0.1636 0.03633,0.24522c0,0 0.12645,0.81544 -0.88518,0.91737c-1.01163,0.10193 -1.13809,-0.71351 -1.13809,-0.71351c-0.03296,-0.21517 -0.06136,-0.43075 -0.08542,-0.64666c-0.3648,-0.02806 -0.67352,-0.21107 -0.82371,-0.46645l-0.4512,-0.7274l0.00746,-0.00301c-0.69587,-0.62226 -1.40421,-1.27687 -1.44222,-1.39643c-0.40332,-1.26867 1.9664,-4.04968 2.56023,-5.29648l0.0265,-0.01966l-0.01306,-0.00486l0.45146,-0.78846c0.15699,-0.29085 0.51668,-0.49423 0.93529,-0.49423c0.56306,0 1.0195,0.36793 1.0195,0.82179c0,0.05744 -0.00731,0.11351 -0.02123,0.16763l-0.11598,0.49862c0.02544,-0.00138 0.03987,-0.00138 0.03987,-0.00138l0.59652,0.05477c0.10016,0.05457 0.21248,0.10197 0.3302,0.14616c1.64544,-1.36967 4.94145,1.67994 5.57237,2.59347z"/><path d="M465.86854,23.24201c0.03576,-0.71715 0.14983,-1.41272 0.14983,-2.14557c0,0 0,-0.04815 0.02084,-0.1117c-0.11991,-0.23488 0.13415,-0.4346 0.13415,-0.4346l0.16037,-0.12607c4.27582,-3.27018 9.62163,4.52077 4.81153,6.83019c-0.72064,0.34599 -2.18557,0.18327 -2.99403,0.18327c0,0 -0.52921,0 -0.52921,-0.41602c0,-0.41601 0.52921,-0.41601 0.52921,-0.41601c0.55274,0 1.93989,0.1682 2.45842,-0.06887c3.65196,-1.66965 -0.57729,-7.93243 -3.52751,-5.52422l-0.01519,0.01194c0.00983,0.0429 0.00984,0.07208 0.00984,0.07208c0,0.85753 -0.16407,1.67354 -0.16037,2.52131v0.41894c0.02261,0.07445 0.01686,0.16257 -0.04778,0.26136c-0.03779,0.07304 -0.10549,0.15146 -0.22673,0.19809c-0.1166,0.05344 -0.23716,0.05422 -0.33543,0.03842c-0.14683,-0.01309 -0.24559,-0.06183 -0.31201,-0.12147c-1.97884,-1.13204 -2.46653,-3.43548 -4.55142,-4.48329l-0.16532,-0.12212c-0.13335,-0.06243 -0.19195,-0.15392 -0.21535,-0.2382c-0.03198,-0.07446 -0.04281,-0.16585 0.01106,-0.26277c0.27177,0.01644 0.54641,0.02481 0.82353,0.02481c0.09823,0 0.19616,-0.00105 0.29375,-0.00314c1.66278,0.98562 2.29743,2.7766 3.67783,3.91363z"/><path d="M468.55361,27.0138c0,-0.42308 0.51434,-0.42308 0.51434,-0.42308h0.62345c3.83024,0 5.25253,-1.01309 5.25253,-4.19234c0,-3.72469 -2.75618,-7.47873 -7.85362,-7.52579c-0.00114,0.03268 -0.00179,0.06273 -0.00179,0.08984l0.12946,0.25083c0,0 0.16264,0.40137 -0.3253,0.53516c-0.48795,0.13379 -0.6506,-0.26758 -0.6506,-0.26758l-0.18225,-0.51841c0,-0.53378 0.0401,-1.0825 0.00385,-1.61499c-0.0019,-0.02788 -0.0043,-0.06685 -0.00652,-0.11015c-0.15832,0.50128 -0.74221,1.32429 -0.90894,1.55353c-1.13381,1.55892 -2.26011,3.07907 -3.25745,4.71982c0,0 -0.23002,0.37841 -0.69006,0.18921c-0.46004,-0.18921 -0.23002,-0.56762 -0.23002,-0.56762c0.91315,-1.50225 1.92842,-2.90738 2.96733,-4.32817c0.19126,-0.12315 0.30321,-0.26869 0.30321,-0.26869c0.60046,-0.7839 1.17391,-1.59947 1.72285,-2.43678c1.04929,-0.08816 1.18085,1.02963 1.16513,1.93221c5.63111,0.15426 8.84339,4.12974 8.84339,8.36759c0,3.62591 -1.9438,5.0385 -6.28122,5.0385h-0.62345c0,0 -0.51434,0 -0.51434,-0.42308z"/></g></g></g></svg>