<svg version="1.1" xmlns="http://www.w3.org/2000/svg" xmlns:xlink="http://www.w3.org/1999/xlink" width="50.16437" height="58.5369" viewBox="0,0,50.16437,58.5369"><g transform="translate(-214.91657,-121.38411)"><g data-paper-data="{&quot;isPaintingLayer&quot;:true}" fill-rule="nonzero" stroke-linejoin="miter" stroke-miterlimit="10" stroke-dasharray="" stroke-dashoffset="0" style="mix-blend-mode: normal"><path d="M240.59376,144.40267l-0.11675,-20.53252" fill="none" stroke="#eeeeee" stroke-width="2.5" stroke-linecap="round"/><path d="M264.59782,127.54587c-1.08708,1.05064 -2.17417,0 -2.17417,0l0.03223,-0.36026c-2.25988,-0.37008 -4.08181,-1.51339 -6.26732,-1.83242c-3.63977,-1.17608 -7.33405,-0.98979 -11.12624,-0.98979c-6.01425,0 -11.98843,0.00693 -17.91332,1.0109c-3.96209,0.67137 -6.65728,2.54614 -10.69507,2.60671c0,0 -1.53736,0 -1.53736,-1.48581c0,-1.48581 1.53736,-1.48581 1.53736,-1.48581c3.62197,0.07078 6.48613,-1.93804 10.15965,-2.56133c6.09718,-1.03451 12.2594,-1.05632 18.44874,-1.05632c4.03633,0 7.98863,-0.16849 11.86741,1.07745c2.1625,0.37507 3.8305,1.43751 6.03162,1.78522l1.63644,1.19018c0,0 1.08708,1.05063 0,2.10125z" fill="#dcdcdc" stroke="none" stroke-width="0.5" stroke-linecap="butt"/><path d="M252.05236,138.54797c-1.3037,0.84934 -2.60739,0 -2.60739,0l-0.16213,-0.19279c-7.26672,-2.3707 -11.47125,-2.41081 -18.8722,0c0,0 -1.64907,0.53717 -2.47359,-0.53717c-0.82452,-1.07433 0.82453,-1.61151 0.82453,-1.61151c8.42454,-2.74423 13.8678,-2.70007 22.17033,0l1.12045,0.64279c0,0 1.3037,0.84934 0,1.69869z" fill="#eeeeee" stroke="none" stroke-width="0.5" stroke-linecap="butt"/><path d="M216.1866,128.21603l20.58734,15.91345" fill="none" stroke="#dcdcdc" stroke-width="2" stroke-linecap="round"/><path d="M243.19077,144.43848l20.58734,-16.06796" fill="none" stroke="#dcdcdc" stroke-width="2" stroke-linecap="round"/><path d="M237.75867,179.75001v-32.125h4.43035v32.125z" fill="#7e7e7e" stroke="none" stroke-width="0" stroke-linecap="butt"/><path d="M240.9249,179.83545v-32.125h1.27623v32.125z" fill="#747474" stroke="none" stroke-width="0" stroke-linecap="butt"/><path d="M237.21643,179.91542v-17.82777h5.38952v17.82777z" fill="#646464" stroke="none" stroke-width="0" stroke-linecap="butt"/><path d="M240.09147,179.921v-17.82776h2.44137v17.82777z" fill="#515151" stroke="none" stroke-width="0" stroke-linecap="butt"/></g></g></svg>