<svg version="1.1" xmlns="http://www.w3.org/2000/svg" xmlns:xlink="http://www.w3.org/1999/xlink" width="122.09824" height="72.41189" viewBox="0,0,122.09824,72.41189"><g transform="translate(-179.17181,-151.8207)"><g data-paper-data="{&quot;isPaintingLayer&quot;:true}" fill-rule="nonzero" stroke-linejoin="miter" stroke-miterlimit="10" stroke-dasharray="" stroke-dashoffset="0" style="mix-blend-mode: normal"><path d="M194.54726,224.2326v-7.71641h91.77677v7.71641z" fill="#ffffff" stroke="none" stroke-width="0" stroke-linecap="butt"/><path d="M300.92353,189.3733c-0.45659,0.59269 -0.98109,0.66212 -1.39217,0.58276c-1.05919,1.09715 -3.25727,1.21118 -4.41165,1.70408l-1.41724,0.59125c0,0 -0.75217,0.31379 -1.37903,-0.07557c-0.6135,-0.33507 -0.7477,-1.08712 -0.7477,-1.08712c-0.30574,-1.772 -0.2317,-3.27454 -0.238,-5.05531l-0.00438,-1.52165c0,0 -0.00433,-1.50027 1.49594,-1.5046c0.49387,-0.00142 0.82561,0.16017 1.04847,0.37764c0.49678,0.0216 0.88703,0.30025 0.88703,0.30025c1.7726,1.26814 3.70846,2.08441 5.50334,3.29296l0.3825,0.29126c0,0 1.1885,0.9156 0.27289,2.1041z" fill="#ffffff" stroke="none" stroke-width="0.5" stroke-linecap="butt"/><path d="M179.51833,190.0955c-0.91561,-1.18848 0.27289,-2.1041 0.27289,-2.1041l0.3825,-0.29126c1.79488,-1.20855 3.73075,-2.02482 5.50335,-3.29297c0,0 0.39024,-0.27865 0.88701,-0.30024c0.22286,-0.21748 0.55461,-0.37906 1.04847,-0.37764c1.50027,0.00432 1.49595,1.5046 1.49595,1.5046l-0.00439,1.52165c-0.0063,1.78078 0.06774,3.28332 -0.23799,5.05532c0,0 -0.13419,0.75204 -0.7477,1.08711c-0.62686,0.38936 -1.37902,0.07558 -1.37902,0.07558l-1.41725,-0.59125c-1.15438,-0.4929 -3.35245,-0.60692 -4.41165,-1.70408c-0.41109,0.07936 -0.93557,0.00993 -1.39217,-0.58276z" data-paper-data="{&quot;index&quot;:null}" fill="#ffffff" stroke="none" stroke-width="0.5" stroke-linecap="butt"/><g fill="#db4747" stroke="#000000" stroke-width="0" stroke-linecap="butt"><path d="M264.06035,176.53352c1.83199,0.21605 2.82371,0.79811 3.60669,2.89217c0.18033,0.48228 0.51248,0.94079 0.53585,1.49519c0.01082,0.25678 -0.02238,0.47403 -0.0924,0.65691c0.24643,-0.03668 0.4686,-0.01388 0.60869,0.15437c1.07073,1.28595 -0.89646,1.7304 -1.65933,1.7304c-4.27381,0 -5.1866,-0.20787 -8.02692,-0.26936c-0.52432,-0.01135 -1.02586,-0.21555 -1.51772,0.00286c-0.21101,0.0937 -1.17754,0.45689 -1.43724,0.20923c-0.27453,-0.03357 -0.47496,-0.238 -0.41008,-0.73445c-0.003,-0.02877 -0.00455,-0.058 -0.00455,-0.0876c0,-0.1215 0.02598,-0.23666 0.07246,-0.33978c0.37502,-1.62311 1.12918,-3.11531 1.87583,-4.57963c0.11086,-0.21742 0.42504,-1.32357 0.68871,-1.55854c0.56723,-0.50551 1.45443,-0.39945 2.12171,-0.53353c0.59377,-0.11931 2.13618,-0.49883 2.67486,0.0632c0.2274,0.23726 0.34454,0.54775 0.33302,0.82466c0.22246,0.02466 0.43424,0.05077 0.63041,0.0739z"/><path d="M269.35355,182.21397c0.04648,0.10312 0.07245,0.21828 0.07245,0.33978c0,0.02961 -0.00155,0.05883 -0.00455,0.0876c0.08799,0.67325 -0.31196,0.80946 -0.72294,0.71077c-0.32174,-0.07727 -0.65024,-0.29851 -0.75663,-0.51878c-0.82052,-1.69876 -1.07002,-4.05654 -2.28287,-5.54126c-0.11821,-0.14472 -0.87319,-0.09721 -0.92161,-0.09978c-0.815,-0.04329 -1.30357,-0.0437 -2.36191,-0.08801c-0.8468,-0.03546 -0.90174,-0.95765 -0.38307,-1.49881c0.53868,-0.56204 2.08108,-0.18252 2.67486,-0.06321c0.66728,0.13408 1.55448,0.02802 2.12171,0.53353c0.26366,0.23497 0.57784,1.34112 0.6887,1.55854c0.74665,1.46433 1.50081,2.95652 1.87584,4.57963z" data-paper-data="{&quot;index&quot;:null}"/></g><g fill="#c74040" stroke="none" stroke-linecap="butt"><path d="M255.83045,181.97011c0,-0.60478 0.9278,-1.09504 2.07229,-1.09504c1.14449,0 2.07229,0.49027 2.07229,1.09504c0,0.60478 -0.9278,1.09504 -2.07229,1.09504c-1.14449,0 -2.07229,-0.49026 -2.07229,-1.09504z" stroke-width="NaN"/><path d="M265.34735,181.9862c0,-0.60478 0.92779,-1.09504 2.07228,-1.09504c1.14449,0 2.07228,0.49027 2.07228,1.09504c0,0.60478 -0.92779,1.09504 -2.07228,1.09504c-1.14449,0 -2.07228,-0.49026 -2.07228,-1.09504z" stroke-width="NaN"/><path d="M257.68969,183.06516v-2.19009h9.76103v2.19009z" stroke-width="0"/></g><g fill="#db4747" stroke="#000000" stroke-width="0" stroke-linecap="butt"><path d="M218.97082,177.0083c1.83198,0.21604 2.82372,0.79811 3.6067,2.89216c0.18033,0.48228 0.51248,0.94078 0.53585,1.49519c0.01082,0.25678 -0.02238,0.47403 -0.09241,0.65691c0.24643,-0.03667 0.4686,-0.01388 0.60869,0.15437c1.07072,1.28595 -0.89646,1.73041 -1.65933,1.73041c-4.27381,0 -5.18661,-0.20787 -8.02692,-0.26936c-0.52431,-0.01135 -1.02586,-0.21555 -1.51772,0.00286c-0.21101,0.0937 -1.17753,0.45689 -1.43724,0.20922c-0.27453,-0.03356 -0.47497,-0.238 -0.41008,-0.73445c-0.00301,-0.02877 -0.00455,-0.05799 -0.00455,-0.0876c0,-0.1215 0.02598,-0.23666 0.07246,-0.33978c0.37502,-1.62311 1.12918,-3.11531 1.87584,-4.57964c0.11086,-0.21742 0.42504,-1.32357 0.68871,-1.55853c0.56723,-0.50551 1.45443,-0.39945 2.12171,-0.53353c0.59378,-0.11931 2.13618,-0.49883 2.67486,0.0632c0.2274,0.23725 0.34454,0.54775 0.33302,0.82465c0.22246,0.02466 0.43424,0.05077 0.63041,0.0739z"/><path d="M224.26403,182.68876c0.04648,0.10312 0.07245,0.21828 0.07245,0.33978c0,0.02961 -0.00155,0.05883 -0.00455,0.0876c0.08799,0.67325 -0.31197,0.80946 -0.72294,0.71077c-0.32174,-0.07727 -0.65024,-0.29852 -0.75663,-0.51878c-0.82052,-1.69876 -1.07002,-4.05655 -2.28287,-5.54126c-0.11822,-0.14472 -0.87319,-0.09721 -0.92161,-0.09978c-0.815,-0.04329 -1.30357,-0.0437 -2.36191,-0.08801c-0.8468,-0.03545 -0.90174,-0.95766 -0.38307,-1.49881c0.53868,-0.56204 2.08108,-0.18251 2.67486,-0.0632c0.66728,0.13408 1.55448,0.02802 2.12171,0.53353c0.26366,0.23497 0.57784,1.34111 0.6887,1.55854c0.74666,1.46433 1.50082,2.95653 1.87584,4.57964z" data-paper-data="{&quot;index&quot;:null}"/></g><g fill="#c74040" stroke="none" stroke-linecap="butt"><path d="M210.74092,182.44489c0,-0.60478 0.92779,-1.09504 2.07228,-1.09504c1.14449,0 2.07228,0.49027 2.07228,1.09504c0,0.60478 -0.92779,1.09504 -2.07228,1.09504c-1.14449,0 -2.07228,-0.49027 -2.07228,-1.09504z" stroke-width="NaN"/><path d="M220.25782,182.46098c0,-0.60478 0.92779,-1.09504 2.07228,-1.09504c1.14449,0 2.07228,0.49027 2.07228,1.09504c0,0.60478 -0.92779,1.09504 -2.07228,1.09504c-1.14449,0 -2.07228,-0.49027 -2.07228,-1.09504z" stroke-width="NaN"/><path d="M212.60016,183.53994v-2.19009h9.76103v2.19009z" stroke-width="0"/></g><g fill="#db4747" stroke="#000000" stroke-width="0" stroke-linecap="butt"><path d="M244.06018,165.25851c5.05988,0.59671 7.79902,2.20436 9.96159,7.98807c0.49806,1.33205 1.41546,2.59841 1.48,4.12968c0.02989,0.70922 -0.06181,1.30926 -0.25522,1.81438c0.68062,-0.10129 1.29426,-0.03833 1.68118,0.42637c2.95731,3.55176 -2.47599,4.77933 -4.58301,4.77933c-11.80415,0 -14.32527,-0.57414 -22.17013,-0.74397c-1.44814,-0.03135 -2.8334,-0.59534 -4.19189,0.00789c-0.5828,0.25879 -3.25231,1.26192 -3.9696,0.57787c-0.75825,-0.0927 -1.31185,-0.65734 -1.13264,-2.02853c-0.0083,-0.07946 -0.01256,-0.16018 -0.01256,-0.24195c0,-0.33557 0.07176,-0.65366 0.20012,-0.93846c1.03579,-4.48298 3.11876,-8.60439 5.18101,-12.64882c0.3062,-0.60051 1.17396,-3.65565 1.90219,-4.30462c1.56668,-1.3962 4.01709,-1.10327 5.86011,-1.4736c1.63999,-0.32953 5.90008,-1.37776 7.38789,0.17457c0.62806,0.65529 0.9516,1.51288 0.9198,2.27767c0.61442,0.06812 1.19934,0.14022 1.74118,0.20411z"/><path d="M258.67987,180.94778c0.12838,0.28481 0.20011,0.60288 0.20011,0.93845c0,0.08177 -0.00427,0.16249 -0.01256,0.24196c0.24303,1.8595 -0.86164,2.23571 -1.99674,1.96312c-0.88865,-0.21341 -1.79595,-0.8245 -2.08979,-1.43286c-2.26626,-4.69192 -2.95536,-11.20406 -6.30522,-15.30479c-0.32651,-0.39971 -2.41172,-0.26849 -2.54546,-0.27559c-2.25101,-0.11956 -3.60042,-0.12071 -6.52352,-0.24309c-2.33884,-0.09792 -2.49057,-2.64502 -1.05803,-4.13967c1.48781,-1.55233 5.74789,-0.5041 7.38789,-0.17457c1.84301,0.37033 4.29343,0.07739 5.86011,1.47359c0.72823,0.64899 1.59598,3.70412 1.90217,4.30463c2.06224,4.04443 4.14521,8.16584 5.18101,12.64882z" data-paper-data="{&quot;index&quot;:null}"/></g><g fill="#c74040" stroke="none" stroke-linecap="butt"><path d="M221.32942,180.27425c0,-1.67038 2.56253,-3.02448 5.72359,-3.02448c3.16106,0 5.72359,1.35411 5.72359,3.02448c0,1.67038 -2.56253,3.02448 -5.72359,3.02448c-3.16106,0 -5.72359,-1.3541 -5.72359,-3.02448z" stroke-width="NaN"/><path d="M247.61482,180.31868c0,-1.67038 2.56253,-3.02448 5.72358,-3.02448c3.16105,0 5.72358,1.35411 5.72358,3.02448c0,1.67038 -2.56253,3.02448 -5.72358,3.02448c-3.16106,0 -5.72358,-1.3541 -5.72358,-3.02448z" stroke-width="NaN"/><path d="M226.4646,183.29875v-6.04896h26.95969v6.04896z" stroke-width="0"/></g><path d="M203.53759,191.91643c0,-4.95735 5.00492,-8.97605 11.17883,-8.97605c6.1739,0 11.17883,4.01871 11.17883,8.97605c0,4.95735 -5.00494,8.97605 -11.17883,8.97605c-6.1739,0 -11.17883,-4.01872 -11.17883,-8.97605z" fill="#bd2222" stroke="#bd2222" stroke-width="NaN" stroke-linecap="butt"/><path d="M254.87603,191.9637c0,-4.95735 5.00494,-8.97605 11.17884,-8.97605c6.1739,0 11.17882,4.01871 11.17882,8.97605c0,4.95735 -5.00491,8.97605 -11.17882,8.97605c-6.1739,0 -11.17884,-4.01871 -11.17884,-8.97605z" fill="#bd2222" stroke="#bd2222" stroke-width="NaN" stroke-linecap="butt"/><path d="M213.56719,200.89247v-17.9521h52.6554v17.9521z" fill="#bd2222" stroke="#bd2222" stroke-width="0" stroke-linecap="butt"/><path d="M206.751,191.90577c0,-3.90261 4.50514,-7.06629 10.06254,-7.06629c5.55739,0 10.06255,3.16368 10.06255,7.06629c0,3.90261 -4.50515,7.06628 -10.06255,7.06628c-5.55739,0 -10.06254,-3.16368 -10.06254,-7.06628z" fill="#db4747" stroke="none" stroke-width="NaN" stroke-linecap="butt"/><path d="M252.9629,192.0095c0,-3.90261 4.50515,-7.06629 10.06254,-7.06629c5.55739,0 10.06254,3.16368 10.06254,7.06629c0,3.90261 -4.50515,7.06629 -10.06254,7.06629c-5.55739,0 -10.06254,-3.16368 -10.06254,-7.06629z" fill="#db4747" stroke="none" stroke-width="NaN" stroke-linecap="butt"/><path d="M215.77906,198.97203v-14.13258h47.39737v14.13258z" fill="#db4747" stroke="none" stroke-width="0" stroke-linecap="butt"/><path d="M210.40293,197.00766c0,-1.13949 4.05123,-2.06324 9.04869,-2.06324c4.99746,0 9.04869,0.92375 9.04869,2.06324c0,1.13949 -4.05123,2.06324 -9.04869,2.06324c-4.99746,0 -9.04869,-0.92374 -9.04869,-2.06324z" fill="#f3ae0c" stroke="none" stroke-width="NaN" stroke-linecap="butt"/><path d="M251.95882,197.03797c0,-1.13949 4.05123,-2.06324 9.04869,-2.06324c4.99746,0 9.0487,0.92375 9.0487,2.06324c0,1.13949 -4.05124,2.06324 -9.0487,2.06324c-4.99747,0 -9.04869,-0.92374 -9.04869,-2.06324z" fill="#f3ae0c" stroke="none" stroke-width="NaN" stroke-linecap="butt"/><path d="M218.52137,199.07093v-4.12648h42.62191v4.12648z" fill="#c74040" stroke="none" stroke-width="0" stroke-linecap="butt"/><path d="M265.97947,190.73098h-51.50152" fill="none" stroke="#bd2222" stroke-width="2.5" stroke-linecap="round"/><path d="M215.66312,197.98026h51.50152" fill="none" stroke="#bd2222" stroke-width="2.5" stroke-linecap="round"/><path d="M209.33505,186.35629c0.16299,2.14799 -0.12723,2.17379 -0.12723,2.17379l-0.37154,0.03301c-1.71744,0.13422 -3.46329,0.00021 -5.18329,0.15308c0,0 -0.29024,0.02579 -0.45322,-2.1222c-0.16299,-2.14799 0.12725,-2.17379 0.12725,-2.17379c1.71959,-0.15282 3.46933,0.01953 5.18329,-0.15309l0.37153,-0.03301c0,0 0.29022,-0.02578 0.45321,2.12221z" fill="#fc9b2d" stroke="none" stroke-width="0.5" stroke-linecap="butt"/><path d="M277.19104,187.05683c0.05257,2.1551 -0.23763,2.16345 -0.23763,2.16345l-0.37151,0.01068c-1.71639,0.03102 -3.44733,-0.20755 -5.16721,-0.15809c0,0 -0.29022,0.00836 -0.34281,-2.14674c-0.05257,-2.1551 0.23763,-2.16346 0.23763,-2.16346c1.71948,-0.04946 3.45235,0.22766 5.16723,0.15809l0.37151,-0.01069c0,0 0.29021,-0.00836 0.34278,2.14675z" fill="#fcbb71" stroke="none" stroke-width="0.5" stroke-linecap="butt"/><path d="M209.46345,195.82446c0.44657,-0.3426 1.03844,-0.1453 1.03844,-0.1453c2.28,0.76049 3.65117,1.16811 6.10249,0.46969c0.85927,-0.24483 2.82789,-1.35005 3.62949,-1.0454c0.33831,0.12857 1.56486,3.21628 1.77842,3.67273c0.79928,1.70837 2.48481,2.79473 3.12499,4.66795c1.33743,3.91347 -3.21867,3.60712 -5.6578,3.20537c-3.88572,-0.22572 -7.88422,-0.36906 -11.76501,-0.36749c-0.80721,0.00032 -3.90705,0.27973 -4.34232,-0.33322c-0.62859,-0.8852 0.4158,-2.63574 0.81534,-3.43682c1.09093,-2.18736 2.17477,-4.42731 4.04616,-5.98998l0.02078,-0.17052c0,0 0.44677,-0.7446 1.209,-0.52698z" fill="#e74a4a" stroke="none" stroke-width="0.5" stroke-linecap="butt"/><path d="M223.85682,203.52454c0.07718,1.06065 -0.84904,1.14905 -0.84904,1.14905l-1.01409,0.09585c-5.36978,0.00488 -10.68566,0.46639 -16.05372,0.46639c0,0 -0.92943,0.00001 -0.92943,-1.06434c0,-1.06433 0.92943,-1.06434 0.92943,-1.06434c1.1854,0 2.3682,-0.02312 3.5496,-0.05906c0.08164,-0.05025 0.13995,-0.07251 0.13995,-0.07251l0.24868,-0.0484c1.16205,-0.93149 2.2446,-1.81493 3.26174,-2.92691c-0.00183,-1.86456 -0.03151,-3.72558 0.08374,-5.5864c0,0 0.06622,-1.06163 0.99329,-0.98579c0.92707,0.07584 0.86086,1.13745 0.86086,1.13745c-0.11724,1.86564 -0.07894,3.73309 -0.07894,5.6029l0.05441,0.19636c0.9388,0.6685 1.88125,1.28621 2.89643,1.81371l0.69542,0.22877c0,0 0.21704,0.07456 0.40464,0.27277c0.95419,-0.02411 1.90953,-0.0384 2.86663,-0.03746l0.93698,-0.09035c0,0 0.92622,-0.08839 1.00341,0.97227zM213.92125,202.06471c-0.29047,0.29368 -0.58559,0.57451 -0.88578,0.84723c0.66102,-0.02871 1.32196,-0.05819 1.98303,-0.08664c-0.36824,-0.24526 -0.7329,-0.49937 -1.09726,-0.76059z" fill="#fa6a6a" stroke="none" stroke-width="0.5" stroke-linecap="butt"/><path d="M209.95817,194.62872c0,-2.3616 1.91445,-4.27604 4.27603,-4.27604c2.3616,0 4.27603,1.91445 4.27603,4.27604c0,2.3616 -1.91443,4.27605 -4.27603,4.27605c-2.3616,0 -4.27603,-1.91446 -4.27603,-4.27605z" fill="#bd2222" stroke="none" stroke-width="0" stroke-linecap="butt"/><path d="M211.75197,194.58771c0,-1.38206 1.12036,-2.50242 2.50242,-2.50242c1.38206,0 2.50242,1.12037 2.50242,2.50242c0,1.38206 -1.12037,2.50242 -2.50242,2.50242c-1.38206,0 -2.50242,-1.12036 -2.50242,-2.50242z" fill="#fa5050" stroke="none" stroke-width="0" stroke-linecap="butt"/><path d="M216.15353,195.73604c-0.58605,0 -0.58606,-0.58606 -0.58606,-0.58606v-0.12057c0.00068,-1.29964 -0.11637,-1.71198 -1.50378,-1.70471c0,0 -0.58605,-0.00001 -0.58605,-0.58606c0,-0.58605 0.58605,-0.58605 0.58605,-0.58605c2.01553,0.00871 2.67494,0.95319 2.6759,2.87683v0.12057c0,0 -0.00001,0.58606 -0.58606,0.58606z" fill="#fa6a6a" stroke="none" stroke-width="0.5" stroke-linecap="butt"/><path d="M203.6101,205.24594c0,0 -0.10616,0.14849 -0.29403,0.28397c0.265,0.0821 0.54471,0.1359 0.73868,0.14927c1.79652,0.12388 3.65121,-0.00669 5.45262,-0.00669c3.93972,0 7.87475,0.03794 11.80758,-0.13569c1.09585,-0.04837 3.2789,0.29127 4.21304,-0.39536c0.3373,-0.24793 -0.5255,-0.64636 -0.7754,-0.97903c-0.0666,-0.08866 -0.13056,-0.1781 -0.19231,-0.26818c0.26243,0.0774 0.523,0.13595 0.77977,0.17357c0.38309,0.30847 0.87011,0.4931 1.40024,0.4931c0.30556,0 0.59679,-0.06134 0.86205,-0.17237c0.23808,0.55419 0.2935,1.16323 -0.09521,1.86496c-0.73311,1.32344 -3.6051,1.51141 -4.89356,1.5168c-4.36401,0.01828 -8.73507,0.13653 -13.10621,0.13653c-2.24563,0 -7.10717,0.89217 -8.54192,-1.43854c-0.0398,-0.2626 -0.09566,-0.52609 -0.1671,-0.78695c0.57432,-0.36856 1.14621,-0.79465 1.6859,-1.24199c0.51683,0.08795 1.11388,0.05249 1.70774,-0.06045c-0.18918,0.2946 -0.38281,0.58396 -0.58188,0.86705z" fill="#7e1717" stroke="none" stroke-width="0.5" stroke-linecap="butt"/><path d="M215.70698,188.80869c0.00913,0.05125 0.01898,0.10331 0.02956,0.15619c0.1351,0.67545 1.51656,1.18202 1.83168,1.9319c0.19776,0.47059 0.47059,1.1165 0.80657,1.83682c-1.49846,-1.50141 -4.24753,-2.84275 -6.05691,-1.41429c-0.08693,-0.42568 -0.29491,-0.8073 -0.58642,-1.10735c0.08735,-0.23158 0.13733,-0.4815 0.1426,-0.7424c0.04537,-0.04368 0.08887,-0.08927 0.13042,-0.13664c1.11806,-0.54915 2.34386,-0.76942 3.70249,-0.52424z" fill="#9d7008" stroke="none" stroke-width="0.5" stroke-linecap="butt"/><path d="M234.52468,195.86152c0.44657,-0.3426 1.03844,-0.14531 1.03844,-0.14531c2.28,0.76049 3.65117,1.16811 6.10249,0.4697c0.85927,-0.24483 2.82789,-1.35005 3.62949,-1.04541c0.33831,0.12857 1.56486,3.21628 1.77842,3.67273c0.79928,1.70837 2.48481,2.79473 3.12499,4.66795c1.33743,3.91347 -3.21867,3.60712 -5.6578,3.20537c-3.88572,-0.22572 -7.88422,-0.36906 -11.765,-0.36749c-0.80721,0.00032 -3.90705,0.27973 -4.34233,-0.33322c-0.62859,-0.8852 0.4158,-2.63574 0.81534,-3.43682c1.09093,-2.18736 2.17477,-4.42731 4.04616,-5.98998l0.02078,-0.17051c0,0 0.44676,-0.74461 1.209,-0.527z" fill="#e74a4a" stroke="none" stroke-width="0.5" stroke-linecap="butt"/><path d="M248.91805,203.56159c0.07719,1.06065 -0.84904,1.14905 -0.84904,1.14905l-1.0141,0.09585c-5.36978,0.00488 -10.68566,0.46639 -16.05372,0.46639c0,0 -0.92943,0.00001 -0.92943,-1.06434c0,-1.06433 0.92943,-1.06434 0.92943,-1.06434c1.1854,0 2.3682,-0.02312 3.54958,-0.05906c0.08164,-0.05025 0.13997,-0.07251 0.13997,-0.07251l0.24868,-0.0484c1.16205,-0.93149 2.2446,-1.81493 3.26174,-2.92691c-0.00183,-1.86456 -0.03151,-3.72558 0.08374,-5.5864c0,0 0.06622,-1.06163 0.99329,-0.98579c0.92707,0.07584 0.86086,1.13745 0.86086,1.13745c-0.11724,1.86564 -0.07894,3.7331 -0.07894,5.60291l0.05442,0.19635c0.9388,0.6685 1.88125,1.28621 2.89643,1.81371l0.69542,0.22877c0,0 0.21704,0.07456 0.40463,0.27277c0.95419,-0.02411 1.90953,-0.03839 2.86663,-0.03746l0.93698,-0.09035c0,0 0.92622,-0.08839 1.00341,0.97227zM238.98247,202.10177c-0.29047,0.29368 -0.58559,0.57451 -0.88578,0.84723c0.66102,-0.02871 1.32196,-0.05819 1.98303,-0.08664c-0.36824,-0.24526 -0.7329,-0.49937 -1.09726,-0.76059z" fill="#fa6a6a" stroke="none" stroke-width="0.5" stroke-linecap="butt"/><path d="M235.0194,194.66576c0,-2.3616 1.91445,-4.27603 4.27603,-4.27603c2.3616,0 4.27603,1.91443 4.27603,4.27603c0,2.3616 -1.91443,4.27605 -4.27603,4.27605c-2.3616,0 -4.27603,-1.91446 -4.27603,-4.27605z" fill="#bd2222" stroke="none" stroke-width="0" stroke-linecap="butt"/><path d="M236.8132,194.62478c0,-1.38206 1.12037,-2.50242 2.50242,-2.50242c1.38206,0 2.50242,1.12036 2.50242,2.50242c0,1.38206 -1.12036,2.50242 -2.50242,2.50242c-1.38206,0 -2.50242,-1.12036 -2.50242,-2.50242z" fill="#fa5050" stroke="none" stroke-width="0" stroke-linecap="butt"/><path d="M241.21475,195.77311c-0.58605,0 -0.58606,-0.58606 -0.58606,-0.58606v-0.12057c0.00068,-1.29964 -0.11637,-1.71198 -1.50378,-1.70471c0,0 -0.58605,-0.00001 -0.58605,-0.58606c0,-0.58605 0.58605,-0.58606 0.58605,-0.58606c2.01553,0.00871 2.67494,0.95319 2.6759,2.87683v0.12057c0,0 -0.00001,0.58606 -0.58606,0.58606z" fill="#fa6a6a" stroke="none" stroke-width="0.5" stroke-linecap="butt"/><path d="M228.67133,204.88752c0,0 -0.10615,0.14849 -0.29402,0.28397c0.265,0.0821 0.54471,0.1359 0.73868,0.14927c1.79652,0.12388 3.65121,-0.00667 5.45262,-0.00667c3.93972,0 7.87475,0.03792 11.80758,-0.13569c1.09585,-0.04837 3.2789,0.29127 4.21304,-0.39536c0.3373,-0.24793 -0.5255,-0.64635 -0.77541,-0.97903c-0.06661,-0.08866 -0.13056,-0.1781 -0.19231,-0.26818c0.26243,0.0774 0.523,0.13595 0.77976,0.17356c0.38309,0.30847 0.87011,0.4931 1.40024,0.4931c0.30556,0 0.59678,-0.06134 0.86205,-0.17237c0.23808,0.55419 0.2935,1.16323 -0.09521,1.86496c-0.73311,1.32344 -3.6051,1.51141 -4.89355,1.5168c-4.36401,0.01828 -8.73507,0.13654 -13.10621,0.13654c-2.24563,0 -7.10717,0.89217 -8.54192,-1.43855c-0.0398,-0.2626 -0.09566,-0.52609 -0.1671,-0.78696c0.57432,-0.36856 1.14621,-0.79465 1.6859,-1.24199c0.51683,0.08795 1.11388,0.05249 1.70774,-0.06045c-0.18918,0.2946 -0.38282,0.58396 -0.58189,0.86705z" fill="#7e1717" stroke="none" stroke-width="0.5" stroke-linecap="butt"/><path d="M240.7682,188.84574c0.00913,0.05125 0.01898,0.10331 0.02956,0.15619c0.1351,0.67545 1.51656,1.18202 1.83168,1.9319c0.19776,0.47059 0.47059,1.1165 0.80656,1.83682c-1.49846,-1.50141 -4.24753,-2.84275 -6.05691,-1.41429c-0.08693,-0.42568 -0.29491,-0.8073 -0.58642,-1.10734c0.08735,-0.23158 0.13733,-0.4815 0.1426,-0.74241c0.04537,-0.04368 0.08887,-0.08927 0.13042,-0.13664c1.11806,-0.54915 2.34386,-0.76942 3.70249,-0.52424z" fill="#b22020" stroke="none" stroke-width="0.5" stroke-linecap="butt"/><path d="M260.46557,195.73014c0.44657,-0.3426 1.03844,-0.1453 1.03844,-0.1453c2.28,0.76049 3.65117,1.16811 6.10249,0.46969c0.85928,-0.24483 2.82789,-1.35005 3.62951,-1.0454c0.33831,0.12857 1.56485,3.21628 1.77841,3.67273c0.79928,1.70837 2.48481,2.79473 3.12499,4.66795c1.33743,3.91347 -3.21867,3.60711 -5.6578,3.20536c-3.88572,-0.22572 -7.88423,-0.36906 -11.76501,-0.36749c-0.80721,0.00032 -3.90704,0.27973 -4.34232,-0.33322c-0.62859,-0.8852 0.41581,-2.63574 0.81534,-3.43682c1.09093,-2.18736 2.17477,-4.42731 4.04614,-5.98998l0.02079,-0.17052c0,0 0.44676,-0.7446 1.209,-0.52698z" fill="#e74a4a" stroke="none" stroke-width="0.5" stroke-linecap="butt"/><path d="M274.85893,203.4302c0.07719,1.06065 -0.84904,1.14905 -0.84904,1.14905l-1.0141,0.09585c-5.36978,0.00488 -10.68566,0.46639 -16.05372,0.46639c0,0 -0.92943,0 -0.92943,-1.06434c0,-1.06433 0.92943,-1.06433 0.92943,-1.06433c1.1854,0 2.3682,-0.02312 3.54958,-0.05906c0.08164,-0.05025 0.13995,-0.07251 0.13995,-0.07251l0.24868,-0.0484c1.16205,-0.93149 2.2446,-1.81493 3.26175,-2.92691c-0.00183,-1.86456 -0.03151,-3.72558 0.08374,-5.5864c0,0 0.06622,-1.06163 0.99329,-0.98579c0.92707,0.07584 0.86087,1.13745 0.86087,1.13745c-0.11724,1.86564 -0.07894,3.7331 -0.07894,5.60291l0.05442,0.19635c0.93881,0.6685 1.88125,1.28621 2.89643,1.81371l0.69542,0.22877c0,0 0.21704,0.07456 0.40464,0.27277c0.95419,-0.02411 1.90955,-0.0384 2.86663,-0.03746l0.93698,-0.09033c0,0 0.92622,-0.08839 1.00341,0.97227zM264.92335,201.97041c-0.29046,0.29368 -0.58558,0.57451 -0.88577,0.84723c0.66101,-0.02871 1.32196,-0.05819 1.98304,-0.08664c-0.36824,-0.24526 -0.7329,-0.49937 -1.09727,-0.76059z" fill="#fa6a6a" stroke="none" stroke-width="0.5" stroke-linecap="butt"/><path d="M260.96028,194.53439c0,-2.3616 1.91445,-4.27603 4.27603,-4.27603c2.3616,0 4.27603,1.91443 4.27603,4.27603c0,2.3616 -1.91445,4.27605 -4.27603,4.27605c-2.3616,0 -4.27603,-1.91446 -4.27603,-4.27605z" fill="#bd2222" stroke="none" stroke-width="0" stroke-linecap="butt"/><path d="M262.75408,194.49343c0,-1.38206 1.12037,-2.50242 2.50242,-2.50242c1.38206,0 2.50242,1.12037 2.50242,2.50242c0,1.38206 -1.12037,2.50243 -2.50242,2.50243c-1.38206,0 -2.50242,-1.12037 -2.50242,-2.50243z" fill="#fa5050" stroke="none" stroke-width="0" stroke-linecap="butt"/><path d="M267.15563,195.64171c-0.58605,0 -0.58606,-0.58606 -0.58606,-0.58606v-0.12056c0.00068,-1.29964 -0.11637,-1.71198 -1.50378,-1.70471c0,0 -0.58605,-0.00001 -0.58605,-0.58606c0,-0.58605 0.58605,-0.58606 0.58605,-0.58606c2.01553,0.00871 2.67496,0.9532 2.6759,2.87684v0.12056c0,0 -0.00001,0.58606 -0.58607,0.58606z" fill="#fa6a6a" stroke="none" stroke-width="0.5" stroke-linecap="butt"/><path d="M254.61221,204.75611c0,0 -0.10616,0.14849 -0.29402,0.28397c0.265,0.0821 0.54471,0.13589 0.73868,0.14926c1.79652,0.12388 3.6512,-0.00667 5.45261,-0.00667c3.93971,0 7.87476,0.03792 11.80759,-0.13569c1.09584,-0.04837 3.2789,0.29127 4.21304,-0.39536c0.3373,-0.24793 -0.5255,-0.64635 -0.77541,-0.97903c-0.06661,-0.08866 -0.13056,-0.17811 -0.19231,-0.26818c0.26243,0.0774 0.523,0.13596 0.77976,0.17357c0.38309,0.30847 0.87011,0.49309 1.40024,0.49309c0.30556,0 0.59678,-0.06134 0.86205,-0.17237c0.23808,0.55419 0.2935,1.16323 -0.09521,1.86496c-0.73311,1.32344 -3.6051,1.51141 -4.89355,1.5168c-4.36401,0.01828 -8.73508,0.13654 -13.10622,0.13654c-2.24563,0 -7.10717,0.89217 -8.54192,-1.43855c-0.0398,-0.2626 -0.09566,-0.52609 -0.1671,-0.78696c0.57432,-0.36856 1.1462,-0.79465 1.6859,-1.24199c0.51683,0.08795 1.11388,0.05249 1.70774,-0.06045c-0.18918,0.2946 -0.38282,0.58396 -0.58188,0.86705z" fill="#7e1717" stroke="none" stroke-width="0.5" stroke-linecap="butt"/><path d="M266.70908,188.71435c0.00914,0.05125 0.01898,0.10331 0.02956,0.15619c0.13509,0.67545 1.51656,1.18202 1.83168,1.9319c0.19776,0.47059 0.47059,1.11649 0.80657,1.83681c-1.49846,-1.50141 -4.24753,-2.84273 -6.05691,-1.41428c-0.08693,-0.42568 -0.29491,-0.8073 -0.58642,-1.10734c0.08735,-0.23158 0.13733,-0.4815 0.1426,-0.74241c0.04536,-0.04368 0.08887,-0.08927 0.13042,-0.13664c1.11805,-0.54915 2.34386,-0.76942 3.7025,-0.52424z" fill="#b22020" stroke="none" stroke-width="0.5" stroke-linecap="butt"/><path d="M196.82453,194.66184l17.6739,-4.82244" fill="none" stroke="#bd2222" stroke-width="2.5" stroke-linecap="round"/><path d="M282.82806,195.03909l-16.59944,-4.80901" data-paper-data="{&quot;index&quot;:null}" fill="none" stroke="#bd2222" stroke-width="2.5" stroke-linecap="round"/><path d="M202.24619,191.50883c0.33492,0.16301 0.39322,0.57178 0.39322,0.57178c0.22428,1.57475 0.3886,2.50707 1.52724,3.75165c0.39914,0.43627 1.63581,1.27475 1.69259,1.83942c0.02397,0.23832 -1.44113,1.87787 -1.64817,2.13933c-0.77492,0.97857 -0.91942,2.29779 -1.83899,3.23094c-1.92114,1.94949 -3.08761,-0.83838 -3.57134,-2.40121c-1.01589,-2.36714 -2.11391,-4.77668 -3.26289,-7.07365c-0.23898,-0.47778 -1.32143,-2.23024 -1.08732,-2.66925c0.33808,-0.63399 1.68339,-0.53357 2.27582,-0.53403c1.61765,-0.00125 3.26435,-0.02227 4.74307,0.62332l0.10711,-0.03814c0,0 0.57298,0.04421 0.66964,0.55983z" fill="#e74a4a" stroke="none" stroke-width="0.5" stroke-linecap="butt"/><path d="M201.94571,202.30771c-0.60509,0.35946 -0.93141,-0.16271 -0.93141,-0.16271l-0.35674,-0.572c-1.59143,-3.1775 -3.43725,-6.18799 -5.02528,-9.36591c0,0 -0.27495,-0.55023 0.35514,-0.8651c0.63009,-0.31486 0.90504,0.23537 0.90504,0.23537c0.35067,0.70176 0.71428,1.39515 1.08505,2.0839c0.05389,0.03347 0.08433,0.06141 0.08433,0.06141l0.10222,0.1329c0.89522,0.41238 1.73846,0.79191 2.69767,1.06511c1.10328,-0.55268 2.19624,-1.12079 3.33194,-1.60305c0,0 0.64808,-0.27485 0.87744,0.29641c0.22936,0.57126 -0.41871,0.84614 -0.41871,0.84614c-1.13915,0.4825 -2.23336,1.05763 -3.3403,1.61077l-0.10014,0.09031c-0.11802,0.75355 -0.20491,1.4942 -0.21687,2.25124l0.07029,0.47937c0,0 0.02008,0.15055 -0.04177,0.32023c0.29655,0.55775 0.58763,1.1191 0.87021,1.68599l0.33067,0.52797c0,0 0.32633,0.52217 -0.27875,0.88165zM199.87068,195.99395c-0.25979,-0.08508 -0.51335,-0.17672 -0.7636,-0.27375c0.21254,0.38283 0.42552,0.76539 0.63793,1.14833c0.03626,-0.29055 0.07882,-0.5816 0.12567,-0.87458z" fill="#fa6a6a" stroke="none" stroke-width="0.5" stroke-linecap="butt"/><path d="M203.10043,191.44798c1.39809,-0.69864 3.09779,-0.13162 3.79642,1.26646c0.69864,1.39809 0.13162,3.09779 -1.26647,3.79641c-1.39809,0.69864 -3.09779,0.13163 -3.79642,-1.26646c-0.69864,-1.39809 -0.13162,-3.09779 1.26647,-3.79641z" fill="#bd2222" stroke="none" stroke-width="0" stroke-linecap="butt"/><path d="M203.65535,192.49777c0.81819,-0.40885 1.81288,-0.07702 2.22173,0.74116c0.40885,0.81819 0.07703,1.81288 -0.74116,2.22174c-0.81819,0.40885 -1.81288,0.07702 -2.22174,-0.74116c-0.40885,-0.81819 -0.07702,-1.81288 0.74116,-2.22174z" fill="#fa5050" stroke="none" stroke-width="0" stroke-linecap="butt"/><path d="M204.27765,195.44324c-0.17337,-0.34695 0.17357,-0.52033 0.17357,-0.52033l0.07138,-0.03566c0.7696,-0.38407 0.97907,-0.57535 0.56434,-1.39456c0,0 -0.17337,-0.34695 0.17358,-0.52032c0.34695,-0.17337 0.52032,0.17357 0.52032,0.17357c0.5911,1.19579 0.22704,1.86557 -0.91149,2.4352l-0.07137,0.03567c0,0 -0.34696,0.17337 -0.52033,-0.17358z" fill="#fa6a6a" stroke="none" stroke-width="0.5" stroke-linecap="butt"/><path d="M195.17117,190.71381c0,0 -0.11932,-0.01892 -0.2551,-0.09006c0.02979,0.18117 0.08069,0.36267 0.13016,0.48146c0.45812,1.1002 1.0841,2.15956 1.61701,3.226c1.16549,2.33233 2.30712,4.67311 3.57336,6.95001c0.35282,0.63444 0.79756,2.02729 1.48041,2.37719c0.24655,0.12634 0.22719,-0.50231 0.3502,-0.74867c0.03279,-0.06566 0.06682,-0.12998 0.10187,-0.19318c0.03181,0.17826 0.07424,0.34983 0.12792,0.51297c-0.06929,0.31806 -0.03452,0.66098 0.12231,0.97483c0.09039,0.18089 0.21286,0.33515 0.35706,0.45934c-0.25764,0.30489 -0.60182,0.51788 -1.13224,0.49536c-1.00036,-0.04249 -1.96125,-1.68712 -2.34562,-2.4483c-1.30183,-2.5781 -2.66492,-5.13082 -3.95803,-7.71855c-0.66433,-1.32943 -2.63068,-3.94354 -1.67533,-5.48242c0.14368,-0.10125 0.28315,-0.21226 0.41644,-0.33173c0.38809,0.23096 0.80952,0.44348 1.23401,0.63064c0.10084,0.33199 0.29845,0.67495 0.54098,0.99311c-0.23037,-0.02485 -0.45896,-0.05387 -0.68544,-0.08798z" fill="#b22020" stroke="none" stroke-width="0.5" stroke-linecap="butt"/><path d="M208.2466,193.12953c-0.02763,0.02057 -0.05555,0.0418 -0.08373,0.06372c-0.35991,0.2798 -0.25112,1.24748 -0.60183,1.65588c-0.22009,0.25629 -0.52176,0.60889 -0.8488,1.02088c0.44556,-1.33126 0.42637,-3.35552 -0.95455,-4.0041c0.22628,-0.17739 0.39068,-0.41341 0.48207,-0.67475c0.16295,-0.0168 0.32568,-0.06115 0.48168,-0.13521c0.03929,0.01393 0.07915,0.02621 0.11949,0.03679c0.65586,0.49944 1.14888,1.15996 1.40566,2.03681z" fill="#b22020" stroke="none" stroke-width="0.5" stroke-linecap="butt"/><path d="M199.9604,196.17994c1.54331,-0.7712 3.41957,-0.14528 4.19078,1.39802c0.7712,1.54331 0.14529,3.41957 -1.39801,4.19078c-1.54331,0.7712 -3.41957,0.1453 -4.19079,-1.39801c-0.7712,-1.54331 -0.14529,-3.41957 1.39802,-4.19079z" fill="#bd2222" stroke="none" stroke-width="0" stroke-linecap="butt"/><path d="M200.57295,197.33886c0.90318,-0.45132 2.00121,-0.08503 2.45253,0.81814c0.45132,0.90318 0.08502,2.00122 -0.81814,2.45253c-0.90318,0.45132 -2.00121,0.08502 -2.45253,-0.81816c-0.45132,-0.90318 -0.08502,-2.00121 0.81814,-2.45252z" fill="#fa5050" stroke="none" stroke-width="0" stroke-linecap="butt"/><path d="M201.25989,200.59026c-0.19138,-0.38299 0.19161,-0.57438 0.19161,-0.57438l0.07878,-0.03937c0.84953,-0.42396 1.08078,-0.63512 0.62297,-1.53941c0,0 -0.19138,-0.38299 0.19161,-0.57437c0.38299,-0.19138 0.57437,0.19161 0.57437,0.19161c0.6525,1.31999 0.25061,2.05936 -1.00617,2.68816l-0.07878,0.03936c0,0 -0.38299,0.19138 -0.57438,-0.19161z" fill="#fa6a6a" stroke="none" stroke-width="0.5" stroke-linecap="butt"/><path d="M197.06573,190.43484c1.54331,-0.7712 3.41957,-0.14528 4.19078,1.39802c0.7712,1.54331 0.14529,3.41957 -1.39801,4.19078c-1.54331,0.7712 -3.41957,0.1453 -4.19079,-1.39801c-0.7712,-1.54331 -0.14529,-3.41957 1.39802,-4.19079z" fill="#bd2222" stroke="none" stroke-width="0" stroke-linecap="butt"/><path d="M197.67829,191.59367c0.90318,-0.45132 2.00121,-0.08503 2.45253,0.81814c0.45132,0.90318 0.08502,2.00122 -0.81814,2.45253c-0.90318,0.45132 -2.00121,0.08502 -2.45253,-0.81816c-0.45132,-0.90318 -0.08502,-2.00121 0.81814,-2.45252z" fill="#fa5050" stroke="none" stroke-width="0" stroke-linecap="butt"/><path d="M198.36524,194.84511c-0.19138,-0.38299 0.19161,-0.57438 0.19161,-0.57438l0.07878,-0.03937c0.84953,-0.42396 1.08078,-0.63512 0.62297,-1.53941c0,0 -0.19138,-0.38299 0.19161,-0.57437c0.38299,-0.19138 0.57437,0.19161 0.57437,0.19161c0.6525,1.31999 0.25061,2.05936 -1.00617,2.68816l-0.07878,0.03936c0,0 -0.38299,0.19138 -0.57438,-0.19161z" fill="#fa6a6a" stroke="none" stroke-width="0.5" stroke-linecap="butt"/><path d="M201.89088,204.61295l5.72882,-10.95953" fill="#b22020" stroke="#bd2222" stroke-width="1.5" stroke-linecap="round"/><path d="M206.76026,191.89474l-12.20398,-1.99836" data-paper-data="{&quot;index&quot;:null}" fill="#b22020" stroke="#bd2222" stroke-width="1.5" stroke-linecap="round"/><path d="M277.75386,190.75328c0.09666,-0.51562 0.66964,-0.55983 0.66964,-0.55983l0.10711,0.03814c1.47871,-0.64559 3.12541,-0.62457 4.74307,-0.62332c0.59243,0.00046 1.93774,-0.09997 2.27582,0.53403c0.23412,0.43902 -0.84833,2.19149 -1.08732,2.66926c-1.14898,2.29698 -2.247,4.70651 -3.26289,7.07365c-0.48373,1.56283 -1.65018,4.35069 -3.57134,2.40121c-0.91957,-0.93314 -1.06407,-2.25236 -1.83899,-3.23094c-0.20704,-0.26146 -1.67214,-1.90102 -1.64817,-2.13933c0.05679,-0.56469 1.29347,-1.40315 1.69259,-1.83942c1.13863,-1.24458 1.30295,-2.1769 1.52724,-3.75165c0,0 0.05829,-0.40876 0.39322,-0.57178z" fill="#e74a4a" stroke="none" stroke-width="0.5" stroke-linecap="butt"/><path d="M278.05431,201.55212c-0.60508,-0.35947 -0.27875,-0.88165 -0.27875,-0.88165l0.33067,-0.52797c0.28258,-0.56688 0.57366,-1.12822 0.87022,-1.68599c-0.06184,-0.16969 -0.04177,-0.32023 -0.04177,-0.32023l0.07029,-0.47937c-0.01196,-0.75704 -0.09885,-1.49771 -0.21687,-2.25125l-0.10014,-0.0903c-1.10694,-0.55315 -2.20115,-1.12828 -3.3403,-1.61077c0,0 -0.64807,-0.27486 -0.4187,-0.84612c0.22936,-0.57126 0.87744,-0.29641 0.87744,-0.29641c1.13571,0.48226 2.22866,1.05036 3.33194,1.60304c0.9592,-0.2732 1.80245,-0.65272 2.69767,-1.0651l0.10222,-0.1329c0,0 0.03042,-0.02794 0.08433,-0.06141c0.37076,-0.68875 0.73437,-1.38214 1.08505,-2.0839c0,0 0.27494,-0.55023 0.90504,-0.23538c0.6301,0.31486 0.35514,0.8651 0.35514,0.8651c-1.58804,3.17792 -3.43385,6.18841 -5.02528,9.36591l-0.35674,0.572c0,0 -0.32633,0.52217 -0.93141,0.16271zM280.25504,196.11297c0.21241,-0.38294 0.42538,-0.7655 0.63792,-1.14833c-0.25026,0.09703 -0.5038,0.18867 -0.7636,0.27375c0.04684,0.29298 0.08941,0.58403 0.12567,0.87458z" fill="#fa6a6a" stroke="none" stroke-width="0.5" stroke-linecap="butt"/><path d="M278.16607,194.48885c-0.69862,1.39809 -2.39835,1.96508 -3.79642,1.26645c-1.39807,-0.69864 -1.96509,-2.39834 -1.26647,-3.79641c0.69862,-1.39807 2.39835,-1.96509 3.79642,-1.26646c1.39807,0.69864 1.96509,2.39834 1.26647,3.79642z" fill="#bd2222" stroke="none" stroke-width="0" stroke-linecap="butt"/><path d="M277.08585,193.96397c-0.40885,0.81818 -1.40355,1.15002 -2.22174,0.74116c-0.81818,-0.40885 -1.15001,-1.40355 -0.74116,-2.22174c0.40885,-0.81818 1.40355,-1.15001 2.22173,-0.74115c0.81818,0.40885 1.15002,1.40354 0.74116,2.22173z" fill="#fa5050" stroke="none" stroke-width="0" stroke-linecap="butt"/><path d="M275.20205,194.86123l-0.07137,-0.03567c-1.13853,-0.56963 -1.50259,-1.23941 -0.91149,-2.4352c0,0 0.17338,-0.34694 0.52032,-0.17357c0.34694,0.17337 0.17358,0.52032 0.17358,0.52032c-0.41473,0.81919 -0.20524,1.01048 0.56434,1.39455l0.07138,0.03567c0,0 0.34695,0.17338 0.17358,0.52033c-0.17337,0.34695 -0.52033,0.17358 -0.52033,0.17358z" fill="#fa6a6a" stroke="none" stroke-width="0.5" stroke-linecap="butt"/><path d="M284.8289,189.95823c-0.22648,0.03411 -0.45507,0.06314 -0.68543,0.08798c0.24253,-0.31816 0.44015,-0.66112 0.54098,-0.99311c0.42448,-0.18716 0.84592,-0.39967 1.23401,-0.63064c0.1333,0.11946 0.27276,0.23047 0.41644,0.33172c0.95535,1.53888 -1.01101,4.15301 -1.67533,5.48243c-1.29312,2.58774 -2.65621,5.14045 -3.95803,7.71856c-0.38435,0.76118 -1.34525,2.40581 -2.34562,2.44829c-0.53042,0.02252 -0.87459,-0.19046 -1.13224,-0.49534c0.14421,-0.1242 0.26667,-0.27845 0.35706,-0.45934c0.15683,-0.31384 0.1916,-0.65677 0.12232,-0.97483c0.05369,-0.16314 0.09612,-0.33472 0.12792,-0.51298c0.03506,0.0632 0.06907,0.12752 0.10186,0.19318c0.12301,0.24636 0.10365,0.87501 0.3502,0.74867c0.68284,-0.3499 1.12757,-1.74275 1.4804,-2.37719c1.26623,-2.2769 2.40788,-4.61768 3.57337,-6.95002c0.53291,-1.06645 1.15888,-2.12581 1.61701,-3.226c0.04948,-0.11879 0.10037,-0.30029 0.13016,-0.48146c-0.13578,0.07114 -0.2551,0.09006 -0.2551,0.09006z" fill="#b22020" stroke="none" stroke-width="0.5" stroke-linecap="butt"/><path d="M281.85355,200.20116c-0.77121,1.54331 -2.64748,2.16921 -4.19079,1.39801c-1.5433,-0.7712 -2.16921,-2.64747 -1.39801,-4.19078c0.7712,-1.5433 2.64747,-2.16923 4.19078,-1.39802c1.54331,0.7712 2.16922,2.64748 1.39802,4.19079z" fill="#bd2222" stroke="none" stroke-width="0" stroke-linecap="butt"/><path d="M280.66114,199.62178c-0.45132,0.90318 -1.54936,1.26947 -2.45252,0.81814c-0.90318,-0.45132 -1.26947,-1.54936 -0.81816,-2.45253c0.45133,-0.90318 1.54937,-1.26946 2.45253,-0.81814c0.90317,0.45132 1.26946,1.54936 0.81814,2.45252z" fill="#fa5050" stroke="none" stroke-width="0" stroke-linecap="butt"/><path d="M279.15603,200.42067c-0.19138,0.38299 -0.57438,0.19161 -0.57438,0.19161l-0.07878,-0.03936c-1.25678,-0.6288 -1.65868,-1.36818 -1.00618,-2.68816c0,0 0.19138,-0.38299 0.57437,-0.19161c0.38299,0.19138 0.19161,0.57437 0.19161,0.57437c-0.45781,0.90429 -0.22656,1.11545 0.62297,1.53941l0.07879,0.03937c0,0 0.38299,0.19138 0.19161,0.57438z" fill="#fa6a6a" stroke="none" stroke-width="0.5" stroke-linecap="butt"/><path d="M284.74822,194.45599c-0.7712,1.54331 -2.64748,2.16921 -4.19079,1.39801c-1.5433,-0.7712 -2.16921,-2.64747 -1.39801,-4.19078c0.7712,-1.5433 2.64747,-2.16923 4.19078,-1.39802c1.54331,0.7712 2.16922,2.64748 1.39802,4.19079z" fill="#bd2222" stroke="none" stroke-width="0" stroke-linecap="butt"/><path d="M283.55579,193.87663c-0.45132,0.90318 -1.54936,1.26947 -2.45252,0.81816c-0.90318,-0.45132 -1.26947,-1.54937 -0.81816,-2.45253c0.45133,-0.90318 1.54937,-1.26946 2.45253,-0.81814c0.90318,0.45132 1.26947,1.54936 0.81814,2.45252z" fill="#fa5050" stroke="none" stroke-width="0" stroke-linecap="butt"/><path d="M282.05069,194.67553c-0.19138,0.38299 -0.57438,0.19161 -0.57438,0.19161l-0.07878,-0.03937c-1.25678,-0.6288 -1.65868,-1.36818 -1.00618,-2.68816c0,0 0.19138,-0.38299 0.57437,-0.19161c0.38299,0.19138 0.19161,0.57437 0.19161,0.57437c-0.45781,0.90429 -0.22656,1.11545 0.62297,1.53941l0.07879,0.03936c0,0 0.38299,0.19138 0.19161,0.57438z" fill="#fa6a6a" stroke="none" stroke-width="0.5" stroke-linecap="butt"/><path d="M273.15909,190.33718c0.04033,-0.01058 0.0802,-0.02286 0.11949,-0.03679c0.15602,0.07406 0.31874,0.11841 0.48168,0.13521c0.09139,0.26133 0.25578,0.49735 0.48207,0.67475c-1.38092,0.64858 -1.40011,2.67285 -0.95455,4.0041c-0.32704,-0.412 -0.6287,-0.7646 -0.8488,-1.02088c-0.35071,-0.40839 -0.24192,-1.37608 -0.60183,-1.65588c-0.02818,-0.02191 -0.05608,-0.04315 -0.08373,-0.06372c0.25677,-0.87685 0.74981,-1.53737 1.40566,-2.03681z" fill="#b22020" stroke="none" stroke-width="0.5" stroke-linecap="butt"/><path d="M272.38034,192.89789l5.72882,10.95953" fill="#b22020" stroke="#bd2222" stroke-width="1.5" stroke-linecap="round"/><path d="M273.23979,191.13914l12.20398,-1.99836" data-paper-data="{&quot;index&quot;:null}" fill="#b22020" stroke="#bd2222" stroke-width="1.5" stroke-linecap="round"/><path d="M256.61843,179.74354c0.24007,-0.22099 0.38626,-1.32069 0.56157,-1.7261c0.831,-1.92176 1.7895,-2.81215 3.64007,-2.86494c0.0025,-0.00007 0.005,-0.00015 0.00751,-0.00024c0.02257,0.00547 0.04588,0.00852 0.06971,0.00891c0.00177,0.00001 0.00353,0.00002 0.00526,0.00005c0.57895,0.00644 1.15794,0.01059 1.73692,0.01232c0.4174,0.51454 0.40868,0.84486 -0.02614,1.36709c-0.26021,0.31251 -0.73289,0.09211 -1.10082,0.09992c-1.04953,0.02228 -1.89065,0.09837 -2.59925,0.98076c-0.67586,0.84161 -1.831,4.40319 -2.18042,5.41633c-0.11431,0.33145 -0.99793,1.25475 -1.30302,0.61351c-0.19617,-0.13905 -0.32777,-0.39552 -0.32777,-0.68891c0,-0.28531 0.12446,-0.53571 0.31173,-0.67717c0.43116,-0.94261 1.13071,-2.47348 1.20466,-2.54154z" fill="#bd2222" stroke="none" stroke-width="0.5" stroke-linecap="butt"/><path d="M269.74116,182.18657c0.18727,0.14145 0.31173,0.39185 0.31173,0.67717c0,0.29339 -0.1316,0.54986 -0.32777,0.68891c-0.3051,0.64124 -1.18871,-0.28207 -1.30302,-0.61352c-0.34942,-1.01314 -1.50456,-4.57471 -2.18042,-5.41632c-0.70861,-0.88239 -1.54972,-0.95848 -2.59925,-0.98076c-0.36793,-0.00781 -0.84062,0.21259 -1.10082,-0.09992c-0.40664,-0.48838 -0.44062,-0.80893 -0.10192,-1.26927c0.93083,0.00367 1.86168,0.00106 2.79247,-0.00845c0.01613,0.00258 0.03217,0.00503 0.04812,0.00734c1.25751,0.30215 2.01832,1.18305 2.69468,2.74719c0.1753,0.40541 0.3215,1.50511 0.56156,1.7261c0.07396,0.06807 0.77349,1.59893 1.20466,2.54154z" data-paper-data="{&quot;index&quot;:null}" fill="#bd2222" stroke="none" stroke-width="0.5" stroke-linecap="butt"/><path d="M266.85516,177.52648c-0.06741,0.16191 -0.20223,0.08096 -0.20223,0.08096l-0.05458,-0.03348c-0.84021,-0.40661 -1.63597,-0.55801 -2.48734,-0.86374c-0.4769,-0.01288 -0.95943,0.00454 -1.45066,0.00454c-1.292,0 -2.45179,0.31177 -3.69886,0.6304c0,0 -0.14749,0.03729 -0.17855,-0.13985c-0.03105,-0.17714 0.11644,-0.21444 0.11644,-0.21444c0.11648,-0.02911 0.23221,-0.05826 0.34737,-0.08719c-0.03726,-0.12381 0.06219,-0.20344 0.06219,-0.20344c0.92855,-0.7389 2.23014,-0.40098 3.27913,-0.50597c1.32157,-0.0011 2.71542,0.16152 4.03175,0.31789l0.01801,-0.0009c0,0 0.15074,0 0.15074,0.18103c0,0.18103 -0.15074,0.18103 -0.15074,0.18103l-0.048,-0.0009c-0.07398,-0.00899 -0.14821,-0.01798 -0.22267,-0.02693c0.02413,0.03723 0.03947,0.09197 0.01572,0.16804c-0.00862,0.02762 -0.01959,0.04905 -0.0319,0.06557c0.11918,0.04877 0.23889,0.10129 0.35935,0.15868l0.07744,0.04581c0,0 0.13482,0.08096 0.06741,0.24287zM259.94649,176.7313c0.2369,-0.05633 0.47281,-0.10949 0.70931,-0.15716c-0.24628,0.02327 -0.48562,0.06984 -0.70931,0.15716z" fill="#bd2222" stroke="none" stroke-width="0.5" stroke-linecap="butt"/><path d="M211.5289,180.21832c0.24007,-0.22098 0.38626,-1.32069 0.56157,-1.7261c0.831,-1.92177 1.7895,-2.81214 3.64007,-2.86493c0.0025,-0.00007 0.005,-0.00015 0.00751,-0.00025c0.02257,0.00547 0.04588,0.00853 0.06972,0.00892c0.00177,0.00001 0.00352,0.00003 0.00526,0.00004c0.57895,0.00644 1.15793,0.01059 1.73692,0.01231c0.4174,0.51454 0.40869,0.84486 -0.02614,1.36709c-0.26021,0.31251 -0.73289,0.09211 -1.10082,0.09992c-1.04953,0.02228 -1.89065,0.09837 -2.59926,0.98076c-0.67586,0.84161 -1.831,4.40318 -2.18042,5.41632c-0.11431,0.33144 -0.99793,1.25475 -1.30302,0.61351c-0.19617,-0.13905 -0.32777,-0.39552 -0.32777,-0.68891c0,-0.28531 0.12446,-0.53571 0.31173,-0.67716c0.43116,-0.94261 1.1307,-2.47347 1.20465,-2.54154z" fill="#bd2222" stroke="none" stroke-width="0.5" stroke-linecap="butt"/><path d="M224.65164,182.66136c0.18727,0.14145 0.31173,0.39185 0.31173,0.67716c0,0.29338 -0.1316,0.54986 -0.32777,0.68891c-0.3051,0.64124 -1.18871,-0.28207 -1.30302,-0.61351c-0.34942,-1.01314 -1.50456,-4.57471 -2.18042,-5.41632c-0.70861,-0.88239 -1.54972,-0.95848 -2.59925,-0.98076c-0.36793,-0.00781 -0.84062,0.21259 -1.10082,-0.09992c-0.40665,-0.48839 -0.44062,-0.80893 -0.10193,-1.26927c0.93083,0.00366 1.86168,0.00107 2.79247,-0.00844c0.01613,0.00257 0.03217,0.00502 0.04812,0.00733c1.25751,0.30215 2.01832,1.18305 2.69468,2.74719c0.1753,0.40541 0.3215,1.50511 0.56156,1.7261c0.07395,0.06807 0.77349,1.59893 1.20465,2.54154z" data-paper-data="{&quot;index&quot;:null}" fill="#bd2222" stroke="none" stroke-width="0.5" stroke-linecap="butt"/><path d="M221.76564,178.00127c-0.06741,0.16192 -0.20223,0.08096 -0.20223,0.08096l-0.05458,-0.03348c-0.8402,-0.40661 -1.63597,-0.55801 -2.48734,-0.86374c-0.4769,-0.01287 -0.95943,0.00454 -1.45066,0.00454c-1.292,0 -2.45179,0.31177 -3.69887,0.6304c0,0 -0.1475,0.03729 -0.17855,-0.13985c-0.03105,-0.17715 0.11645,-0.21444 0.11645,-0.21444c0.11648,-0.02911 0.23221,-0.05826 0.34736,-0.08718c-0.03727,-0.12381 0.06219,-0.20344 0.06219,-0.20344c0.92855,-0.7389 2.23014,-0.40098 3.27913,-0.50596c1.32158,-0.0011 2.71542,0.16152 4.03175,0.31789l0.01801,-0.0009c0,0 0.15073,0 0.15073,0.18103c0,0.18103 -0.15073,0.18103 -0.15073,0.18103l-0.04801,-0.0009c-0.07397,-0.00899 -0.1482,-0.01798 -0.22267,-0.02693c0.02413,0.03723 0.03947,0.09197 0.01571,0.16804c-0.00862,0.02762 -0.01959,0.04904 -0.0319,0.06557c0.11918,0.04877 0.23888,0.10129 0.35935,0.15868l0.07744,0.0458c0,0 0.13482,0.08096 0.06741,0.24288zM214.85696,177.20609c0.2369,-0.05634 0.47281,-0.10949 0.70931,-0.15716c-0.24627,0.02327 -0.48562,0.06985 -0.70931,0.15716z" fill="#bd2222" stroke="none" stroke-width="0.5" stroke-linecap="butt"/><path d="M244.3869,174.76415c2.18195,-1.19367 0.64978,-3.08852 -0.55089,-4.59169c-2.36811,-1.27061 -6.50716,-1.44118 -8.92518,0.18147c-1.18426,0.79472 -1.71843,4.06968 -1.12696,5.29348c0.43012,0.88999 1.68047,1.15539 2.49883,1.46103c0,0 0.6636,0.24885 0.6942,0.88304c0.11946,0.25371 0.11946,0.50002 0.11946,0.50002c0,0.27261 -0.19286,3.02721 0.06802,3.07772c0.3009,0.05826 0.75905,0.24665 0.91933,-0.01459c0.21558,-0.35136 -0.08716,-1.00886 0.27505,-1.2057c0.59172,-0.32155 1.3547,-0.14645 2.01992,-0.04145c0.4595,0.07253 0.92273,1.08768 1.19934,0.71365c0.27265,-0.36867 0.14527,-1.12381 0.58786,-1.24368c0.66004,-0.17875 2.12011,1.21365 1.9778,0.5448c-0.30094,-1.41455 -0.94515,-2.54687 -0.95538,-4.11216v-0.1342c0,0 0,-0.88337 0.81136,-1.02739zM231.87298,176.50442c-1.0856,-2.13724 -0.10041,-6.50361 1.82544,-7.85811c3.19711,-2.24865 8.36792,-1.85433 11.47324,-0.08694c2.20243,2.56722 3.89252,5.88035 0.25431,8.02312l-0.10138,0.07844c0.20998,1.24361 1.12501,3.19882 0.88142,4.02585c-0.46553,1.58048 -1.77889,2.2051 -3.2559,1.74504c0.018,0.10315 0.00484,0.1894 -0.08323,0.24007c-0.56868,0.32713 -1.30694,0.26956 -1.9586,0.19376c-0.50678,-0.05894 -1.16803,-1.36471 -1.26374,-0.86357c-0.40727,2.13243 -3.59368,2.25514 -4.57987,0.06671c-0.31283,-0.69421 -0.12474,-2.23719 -0.07402,-3.20828c-1.27095,-0.48174 -2.42891,-1.00019 -3.11764,-2.35611zM242.8215,181.9994c0.00334,-0.18647 0.02672,-0.33959 -0.00571,-0.23104c-0.02067,0.06921 -0.01352,0.14847 0.00571,0.23104z" fill="#cfcfcf" stroke="none" stroke-width="0.5" stroke-linecap="butt"/><path d="M238.66698,174.92089c0.09009,0.2271 0.10183,0.51937 -0.09818,0.86938c-0.51952,0.90916 -1.42869,0.38964 -1.42869,0.38964c-0.14313,-0.08201 -0.35932,-0.20068 -0.60308,-0.34034c-0.04367,-0.02067 -0.08424,-0.04438 -0.12191,-0.07032c-0.64739,-0.37604 -1.42782,-0.87409 -1.56536,-1.22717c-0.56373,-1.44693 -0.04468,-3.23386 1.84142,-3.27049c2.05252,-0.03985 2.85507,2.39262 1.97581,3.64928z" fill="#cfcfcf" stroke="none" stroke-width="0.5" stroke-linecap="butt"/><path d="M242.09104,170.62892c1.88611,0.03662 2.40515,1.82354 1.84143,3.27049c-0.13757,0.35306 -0.91798,0.85112 -1.56537,1.22717c-0.03766,0.02595 -0.07824,0.04965 -0.1219,0.07031c-0.24375,0.13967 -0.45995,0.25832 -0.60308,0.34034c0,0 -0.90917,0.51953 -1.42869,-0.38964c-0.20001,-0.35001 -0.18827,-0.64226 -0.09818,-0.86938c-0.87929,-1.25666 -0.07672,-3.68913 1.97579,-3.64928z" data-paper-data="{&quot;index&quot;:null}" fill="#cfcfcf" stroke="none" stroke-width="0.5" stroke-linecap="butt"/><path d="M223.5058,174.12452c0.66307,-0.61035 1.06684,-3.6477 1.55103,-4.76743c2.29519,-5.30786 4.94255,-7.76706 10.05378,-7.91286c0.00689,-0.0002 0.01381,-0.00042 0.02074,-0.00068c0.06235,0.01512 0.12672,0.02355 0.19256,0.02463c0.00489,0.00003 0.00973,0.00007 0.01453,0.00012c1.59905,0.01778 3.19817,0.02926 4.79732,0.03401c1.15285,1.42115 1.12878,2.33348 -0.0722,3.77587c-0.71869,0.86315 -2.02423,0.25441 -3.04044,0.27598c-2.89879,0.06153 -5.22191,0.2717 -7.17907,2.70883c-1.86671,2.3245 -5.05717,12.16146 -6.02226,14.95973c-0.31573,0.91544 -2.75625,3.46559 -3.59891,1.69449c-0.54183,-0.38405 -0.9053,-1.09242 -0.9053,-1.90274c0,-0.78803 0.34376,-1.47962 0.86099,-1.87031c1.19086,-2.60346 3.12297,-6.83165 3.32722,-7.01965z" fill="#bd2222" stroke="none" stroke-width="0.5" stroke-linecap="butt"/><path d="M259.75041,180.87209c0.51724,0.39068 0.86099,1.08228 0.86099,1.87031c0,0.81032 -0.36348,1.51869 -0.9053,1.90274c-0.84267,1.7711 -3.28319,-0.77906 -3.59891,-1.6945c-0.96509,-2.79827 -4.15554,-12.63522 -6.02226,-14.95972c-1.95715,-2.43713 -4.28028,-2.6473 -7.17907,-2.70883c-1.01621,-0.02157 -2.32175,0.58716 -3.04044,-0.27598c-1.12315,-1.34891 -1.21698,-2.23424 -0.28151,-3.50569c2.57093,0.01012 5.14191,0.00295 7.71272,-0.02332c0.04455,0.00711 0.08886,0.01387 0.13291,0.02025c3.4732,0.83454 5.57455,3.26756 7.44263,7.58766c0.48418,1.11973 0.88796,4.15708 1.55103,4.76744c0.20425,0.18801 2.13635,4.41619 3.32722,7.01965z" data-paper-data="{&quot;index&quot;:null}" fill="#bd2222" stroke="none" stroke-width="0.5" stroke-linecap="butt"/><path d="M251.77938,168.00106c-0.18618,0.44721 -0.55855,0.22361 -0.55855,0.22361l-0.15076,-0.09247c-2.32062,-1.12305 -4.51849,-1.5412 -6.86996,-2.38562c-1.31719,-0.03556 -2.64992,0.01253 -4.00669,0.01253c-3.56847,0 -6.77178,0.86109 -10.21616,1.74116c0,0 -0.40738,0.103 -0.49315,-0.38627c-0.08576,-0.48927 0.32162,-0.59228 0.32162,-0.59228c0.32172,-0.08041 0.64137,-0.1609 0.95941,-0.2408c-0.10293,-0.34195 0.17177,-0.56189 0.17177,-0.56189c2.56463,-2.04083 6.1596,-1.10749 9.05687,-1.39746c3.65015,-0.00304 7.4999,0.4461 11.13558,0.87799l0.04974,-0.00249c0,0 0.41632,0 0.41632,0.5c0,0.5 -0.41632,0.5 -0.41632,0.5l-0.13259,-0.00248c-0.20431,-0.02483 -0.40934,-0.04965 -0.615,-0.07439c0.06664,0.10282 0.10901,0.25401 0.0434,0.46413c-0.02381,0.07628 -0.0541,0.13546 -0.08812,0.18111c0.32917,0.13469 0.65979,0.27977 0.99251,0.43826l0.21389,0.12651c0,0 0.37236,0.22361 0.18618,0.67082zM232.69781,165.80478c0.65431,-0.1556 1.30589,-0.3024 1.95909,-0.43408c-0.6802,0.06426 -1.34125,0.19291 -1.95909,0.43408z" fill="#bd2222" stroke="none" stroke-width="0.5" stroke-linecap="butt"/><g data-paper-data="{&quot;index&quot;:null}" fill="#ff3b3b" stroke="#000000" stroke-width="0" stroke-linecap="butt"><path d="M254.81854,164.14201c0.12588,0.17604 0.26227,0.36567 0.40428,0.56583c0.11799,-0.11166 0.3268,-0.11458 0.56751,0.01281c0.57022,0.30179 1.30687,1.89018 1.60253,2.4919c0.33226,0.67621 0.90212,1.47173 1.00816,2.18913c0.0493,0.33346 -0.26419,1.03165 -0.29692,1.21505c-0.22036,1.23526 -0.44886,2.48774 -0.95945,3.43138c-0.0191,0.08124 -0.05569,0.14761 -0.11043,0.19185c-0.01332,0.01078 -0.02741,0.01997 -0.04214,0.02761c-0.18549,0.2418 -0.39554,0.12777 -0.57223,-0.11812c-0.26441,-0.154 -0.66954,-1.19495 -0.75148,-1.42746c-0.19104,-0.54197 -0.57817,-0.93915 -0.89182,-1.42799c-1.69912,-2.6481 -2.32991,-3.43062 -4.84487,-7.44888c-0.44891,-0.71725 -1.40627,-2.72865 -0.19682,-2.19024c0.15823,0.07045 0.29926,0.27103 0.42774,0.51609c0.04121,-0.13243 0.11953,-0.24274 0.24159,-0.32609c0.26354,-0.17991 0.66556,-0.03458 0.98896,-0.04067c1.4042,-0.02638 2.25002,0.69407 3.42542,2.33784z"/><path d="M249.14445,161.23394c0.95198,-0.23844 2.06807,-0.0728 3.16718,0.09598c0.1632,0.02506 0.84644,-0.08235 1.10744,0.07997c0.56154,0.34923 1.03584,1.22198 1.48891,1.80054c0.40316,0.51484 1.48179,1.82681 1.54557,2.53794c0.06139,0.68473 -0.38642,0.96887 -0.9007,0.18563c-0.64275,-0.97889 -0.93043,-1.43811 -1.42953,-2.1886c-0.02964,-0.04457 -0.45249,-0.77171 -0.58727,-0.83017c-1.38263,-0.59967 -2.59173,0.02435 -3.83992,-0.12849c-0.16183,-0.01981 -0.45483,-0.24813 -0.67897,-0.52249c-0.2863,-0.35047 -0.46029,-0.7761 -0.10519,-0.93853c0.01118,-0.01331 0.02344,-0.0254 0.03679,-0.03619c0.05474,-0.04424 0.12191,-0.06173 0.19571,-0.05559z" data-paper-data="{&quot;index&quot;:null}"/></g><g data-paper-data="{&quot;index&quot;:null}" fill="#ff6e3b" stroke="#000000" stroke-width="0" stroke-linecap="butt"><path d="M225.06222,164.62265c1.17539,-1.64377 2.02122,-2.36422 3.42543,-2.33784c0.32341,0.00609 0.72542,-0.13924 0.98897,0.04067c0.12206,0.08335 0.20039,0.19367 0.24159,0.32609c0.12848,-0.24506 0.2695,-0.44564 0.42773,-0.51609c1.20944,-0.53841 0.2521,1.47298 -0.19682,2.19024c-2.51497,4.01826 -3.14576,4.80077 -4.84488,7.44888c-0.31364,0.48883 -0.70077,0.88602 -0.89182,1.42799c-0.08195,0.23251 -0.48708,1.27347 -0.75149,1.42746c-0.17668,0.24589 -0.38672,0.35992 -0.57223,0.11812c-0.01474,-0.00764 -0.02882,-0.01683 -0.04214,-0.02761c-0.05474,-0.04424 -0.09133,-0.11061 -0.11043,-0.19185c-0.5106,-0.94364 -0.73909,-2.19611 -0.95945,-3.43138c-0.03272,-0.1834 -0.34621,-0.88159 -0.29691,-1.21505c0.10604,-0.7174 0.6759,-1.51291 1.00816,-2.18912c0.29564,-0.60172 1.03231,-2.19011 1.60253,-2.49191c0.24071,-0.12739 0.44951,-0.12447 0.56751,-0.01281c0.14201,-0.20016 0.2784,-0.38978 0.40428,-0.56582z"/><path d="M230.73631,161.71451c0.0738,-0.00614 0.14098,0.01135 0.19572,0.05559c0.01335,0.01078 0.0256,0.02288 0.03679,0.03619c0.3551,0.16243 0.18111,0.58806 -0.10519,0.93853c-0.22414,0.27436 -0.51715,0.50267 -0.67898,0.52249c-1.24819,0.15284 -2.45728,-0.47118 -3.83991,0.12849c-0.13478,0.05846 -0.55763,0.7856 -0.58727,0.83017c-0.4991,0.7505 -0.78678,1.20972 -1.42953,2.18861c-0.51428,0.78324 -0.96209,0.4991 -0.9007,-0.18563c0.06378,-0.71113 1.14242,-2.0231 1.54558,-2.53794c0.45308,-0.57855 0.92736,-1.45131 1.48891,-1.80054c0.26101,-0.16232 0.94426,-0.05491 1.10745,-0.07997c1.09911,-0.16878 2.21519,-0.33441 3.16718,-0.09598z" data-paper-data="{&quot;index&quot;:null}"/></g><path d="M247.10442,153.66386v12.54198" fill="#bd2222" stroke="#bd2222" stroke-width="1.5" stroke-linecap="round"/><path d="M242.5652,157.05715v5.51087" fill="#bd2222" stroke="#bd2222" stroke-width="1.5" stroke-linecap="round"/><path d="M241.58303,156.1795c0,-0.69036 0.46597,-1.25 1.04079,-1.25c0.57482,0 1.04079,0.55964 1.04079,1.25c0,0.69036 -0.46597,1.25 -1.04079,1.25c-0.57482,0 -1.04079,-0.55964 -1.04079,-1.25z" fill="#fa6a6a" stroke="none" stroke-width="0.5" stroke-linecap="butt"/><path d="M245.90481,153.07071c0,-0.69036 0.46597,-1.25 1.04079,-1.25c0.57482,0 1.04079,0.55964 1.04079,1.25c0,0.69036 -0.46597,1.25 -1.04079,1.25c-0.57482,0 -1.04079,-0.55964 -1.04079,-1.25z" fill="#fa6a6a" stroke="none" stroke-width="0.5" stroke-linecap="butt"/><g stroke="none" stroke-linecap="butt"><path d="M203.38105,203.17414c0,-1.9495 1.58038,-3.52984 3.52987,-3.52984c1.9495,0 3.52985,1.58037 3.52985,3.52984c0,1.9495 -1.58035,3.52988 -3.52985,3.52988c-1.9495,0 -3.52987,-1.58039 -3.52987,-3.52988z" fill="#bd2222" stroke-width="0"/><path d="M204.86182,203.14035c0,-1.14088 0.92486,-2.06574 2.06574,-2.06574c1.14088,0 2.06576,0.92487 2.06576,2.06574c0,1.14088 -0.92488,2.06574 -2.06576,2.06574c-1.14088,0 -2.06574,-0.92487 -2.06574,-2.06574z" fill="#fa5050" stroke-width="0"/><path d="M208.49529,204.08829c-0.48379,0 -0.48379,-0.48379 -0.48379,-0.48379v-0.09954c0.00056,-1.07283 -0.09607,-1.41324 -1.24137,-1.40725c0,0 -0.48378,0 -0.48378,-0.48379c0,-0.48379 0.48378,-0.48379 0.48378,-0.48379c1.6638,0.00718 2.20817,0.78686 2.20895,2.37481v0.09951c0,0 0,0.4838 -0.48379,0.4838z" fill="#fa6a6a" stroke-width="0.5"/><path d="M210.57925,202.99873c0,-1.9495 1.58038,-3.52985 3.52987,-3.52985c1.9495,0 3.52988,1.58038 3.52988,3.52985c0,1.9495 -1.58038,3.52987 -3.52988,3.52987c-1.9495,0 -3.52987,-1.58038 -3.52987,-3.52987z" fill="#bd2222" stroke-width="0"/><path d="M212.06002,202.96486c0,-1.14088 0.92486,-2.06575 2.06574,-2.06575c1.14088,0 2.06576,0.92487 2.06576,2.06575c0,1.14088 -0.92488,2.06575 -2.06576,2.06575c-1.14088,0 -2.06574,-0.92487 -2.06574,-2.06575z" fill="#fa5050" stroke-width="0"/><path d="M215.69349,203.91279c-0.48379,0 -0.48379,-0.48379 -0.48379,-0.48379v-0.09954c0.00056,-1.07283 -0.09607,-1.41324 -1.24137,-1.40725c0,0 -0.48379,0 -0.48379,-0.48379c0,-0.48379 0.48379,-0.48379 0.48379,-0.48379c1.6638,0.00718 2.20816,0.78686 2.20895,2.37481v0.09954c0,0 0,0.48379 -0.48378,0.48379z" fill="#fa6a6a" stroke-width="0.5"/><path d="M217.91109,203.04147c0,-1.9495 1.58039,-3.52984 3.52985,-3.52984c1.9495,0 3.52987,1.58037 3.52987,3.52984c0,1.9495 -1.58037,3.52988 -3.52987,3.52988c-1.9495,0 -3.52985,-1.58039 -3.52985,-3.52988z" fill="#bd2222" stroke-width="0"/><path d="M219.39186,203.00768c0,-1.14088 0.92487,-2.06575 2.06575,-2.06575c1.14088,0 2.06574,0.92486 2.06574,2.06575c0,1.14088 -0.92486,2.06576 -2.06574,2.06576c-1.14088,0 -2.06575,-0.92487 -2.06575,-2.06576z" fill="#fa5050" stroke-width="0"/><path d="M223.02534,203.95564c-0.48379,0 -0.4838,-0.48379 -0.4838,-0.48379v-0.09953c0.00056,-1.07283 -0.09606,-1.41323 -1.24136,-1.40724c0,0 -0.4838,0 -0.4838,-0.48379c0,-0.48379 0.4838,-0.4838 0.4838,-0.4838c1.6638,0.00718 2.20816,0.78686 2.20895,2.37481v0.09953c0,0 0,0.48379 -0.48379,0.48379z" fill="#fa6a6a" stroke-width="0.5"/><path d="M228.3713,203.20199c0,-1.9495 1.58038,-3.52985 3.52987,-3.52985c1.9495,0 3.52985,1.58037 3.52985,3.52985c0,1.9495 -1.58035,3.52987 -3.52985,3.52987c-1.9495,0 -3.52987,-1.58038 -3.52987,-3.52987z" fill="#bd2222" stroke-width="0"/><path d="M229.85207,203.16819c0,-1.14088 0.92486,-2.06575 2.06574,-2.06575c1.14088,0 2.06576,0.92488 2.06576,2.06575c0,1.14088 -0.92488,2.06574 -2.06576,2.06574c-1.14088,0 -2.06574,-0.92487 -2.06574,-2.06574z" fill="#fa5050" stroke-width="0"/><path d="M233.48554,204.11614c-0.48379,0 -0.48379,-0.48378 -0.48379,-0.48378v-0.09954c0.00056,-1.07283 -0.09607,-1.41324 -1.24137,-1.40725c0,0 -0.48378,0 -0.48378,-0.48379c0,-0.48379 0.48378,-0.48379 0.48378,-0.48379c1.6638,0.00718 2.20817,0.78686 2.20895,2.37481v0.09951c0,0 0,0.4838 -0.48379,0.4838z" fill="#fa6a6a" stroke-width="0.5"/><path d="M235.5695,203.02658c0,-1.9495 1.58038,-3.52985 3.52987,-3.52985c1.9495,0 3.52987,1.58038 3.52987,3.52985c0,1.9495 -1.58037,3.52987 -3.52987,3.52987c-1.9495,0 -3.52987,-1.58038 -3.52987,-3.52987z" fill="#bd2222" stroke-width="0"/><path d="M237.05027,202.9927c0,-1.14088 0.92486,-2.06575 2.06574,-2.06575c1.14088,0 2.06576,0.92487 2.06576,2.06575c0,1.14088 -0.92487,2.06575 -2.06576,2.06575c-1.14088,0 -2.06574,-0.92487 -2.06574,-2.06575z" fill="#fa5050" stroke-width="0"/><path d="M240.68374,203.94064c-0.48379,0 -0.48378,-0.48378 -0.48378,-0.48378v-0.09954c0.00056,-1.07283 -0.09607,-1.41324 -1.24137,-1.40725c0,0 -0.48379,0 -0.48379,-0.48379c0,-0.48379 0.48379,-0.48379 0.48379,-0.48379c1.6638,0.00718 2.20816,0.78686 2.20895,2.37481v0.09954c0,0 0,0.48378 -0.48378,0.48378z" fill="#fa6a6a" stroke-width="0.5"/><path d="M242.90134,203.06932c0,-1.9495 1.58038,-3.52984 3.52985,-3.52984c1.9495,0 3.52987,1.58037 3.52987,3.52984c0,1.9495 -1.58037,3.52988 -3.52987,3.52988c-1.9495,0 -3.52985,-1.58039 -3.52985,-3.52988z" fill="#bd2222" stroke-width="0"/><path d="M244.38211,203.03552c0,-1.14088 0.92487,-2.06574 2.06575,-2.06574c1.14088,0 2.06574,0.92486 2.06574,2.06574c0,1.14088 -0.92486,2.06576 -2.06574,2.06576c-1.14088,0 -2.06575,-0.92488 -2.06575,-2.06576z" fill="#fa5050" stroke-width="0"/><path d="M248.01559,203.98348c-0.48379,0 -0.4838,-0.48379 -0.4838,-0.48379v-0.09953c0.00056,-1.07283 -0.09606,-1.41323 -1.24136,-1.40724c0,0 -0.4838,-0.00001 -0.4838,-0.48379c0,-0.48379 0.4838,-0.4838 0.4838,-0.4838c1.6638,0.00718 2.20816,0.78686 2.20895,2.37481v0.09953c0,0 0,0.48379 -0.48379,0.48379z" fill="#fa6a6a" stroke-width="0.5"/><path d="M254.37364,203.03475c0,-1.9495 1.58038,-3.52984 3.52987,-3.52984c1.9495,0 3.52985,1.58037 3.52985,3.52984c0,1.9495 -1.58035,3.52988 -3.52985,3.52988c-1.9495,0 -3.52987,-1.58039 -3.52987,-3.52988z" fill="#bd2222" stroke-width="0"/><path d="M255.8544,203.00095c0,-1.14088 0.92486,-2.06574 2.06574,-2.06574c1.14089,0 2.06576,0.92487 2.06576,2.06574c0,1.14088 -0.92487,2.06575 -2.06576,2.06575c-1.14089,0 -2.06574,-0.92488 -2.06574,-2.06575z" fill="#fa5050" stroke-width="0"/><path d="M259.48788,203.9489c-0.48379,0 -0.48379,-0.48378 -0.48379,-0.48378v-0.09954c0.00056,-1.07283 -0.09607,-1.41325 -1.24137,-1.40726c0,0 -0.48378,0 -0.48378,-0.48379c0,-0.48379 0.48378,-0.48378 0.48378,-0.48378c1.66381,0.00718 2.20817,0.78685 2.20895,2.3748v0.09951c0,0 0,0.4838 -0.48379,0.4838z" fill="#fa6a6a" stroke-width="0.5"/><path d="M261.57184,202.85934c0,-1.9495 1.58038,-3.52985 3.52987,-3.52985c1.9495,0 3.52987,1.58037 3.52987,3.52985c0,1.9495 -1.58037,3.52987 -3.52987,3.52987c-1.9495,0 -3.52987,-1.58038 -3.52987,-3.52987z" fill="#bd2222" stroke-width="0"/><path d="M263.0526,202.82546c0,-1.14088 0.92486,-2.06575 2.06575,-2.06575c1.14089,0 2.06576,0.92487 2.06576,2.06575c0,1.14088 -0.92487,2.06575 -2.06576,2.06575c-1.14089,0 -2.06575,-0.92487 -2.06575,-2.06575z" fill="#fa5050" stroke-width="0"/><path d="M266.68608,203.7734c-0.48379,0 -0.48379,-0.48378 -0.48379,-0.48378v-0.09954c0.00056,-1.07283 -0.09606,-1.41325 -1.24136,-1.40726c0,0 -0.48379,0 -0.48379,-0.48379c0,-0.48379 0.48379,-0.48378 0.48379,-0.48378c1.66381,0.00718 2.20816,0.78685 2.20895,2.3748v0.09954c0,0 0,0.48379 -0.48378,0.48379z" fill="#fa6a6a" stroke-width="0.5"/><path d="M268.90367,202.90208c0,-1.9495 1.58038,-3.52984 3.52985,-3.52984c1.9495,0 3.52987,1.58037 3.52987,3.52984c0,1.9495 -1.58037,3.52988 -3.52987,3.52988c-1.9495,0 -3.52985,-1.58039 -3.52985,-3.52988z" fill="#bd2222" stroke-width="0"/><path d="M270.38444,202.86828c0,-1.14088 0.92487,-2.06574 2.06576,-2.06574c1.14089,0 2.06574,0.92486 2.06574,2.06574c0,1.14088 -0.92486,2.06576 -2.06574,2.06576c-1.14089,0 -2.06576,-0.92488 -2.06576,-2.06576z" fill="#fa5050" stroke-width="0"/><path d="M274.01792,203.81624c-0.48379,0 -0.4838,-0.48379 -0.4838,-0.48379v-0.09953c0.00056,-1.07283 -0.09606,-1.41324 -1.24136,-1.40725c0,0 -0.4838,0 -0.4838,-0.48379c0,-0.48379 0.4838,-0.4838 0.4838,-0.4838c1.66381,0.00718 2.20816,0.78686 2.20894,2.37481v0.09953c0,0 0,0.48379 -0.48379,0.48379z" fill="#fa6a6a" stroke-width="0.5"/></g><path d="M226.93572,205.15569l-10.94406,-15.14581" fill="#b22020" stroke="#bd2222" stroke-width="2.5" stroke-linecap="round"/><path d="M202.08992,205.12947l10.94406,-15.14581" data-paper-data="{&quot;index&quot;:null}" fill="#b22020" stroke="#bd2222" stroke-width="2.5" stroke-linecap="round"/><path d="M241.05289,190.04693l10.94406,15.14582" fill="#b22020" stroke="#bd2222" stroke-width="2.5" stroke-linecap="round"/><path d="M238.09521,190.0207l-10.94406,15.14581" data-paper-data="{&quot;index&quot;:null}" fill="#b22020" stroke="#bd2222" stroke-width="2.5" stroke-linecap="round"/><path d="M266.99375,189.91558l10.94407,15.14581" fill="#b22020" stroke="#bd2222" stroke-width="2.5" stroke-linecap="round"/><path d="M253.09203,205.03514l10.94406,-15.14581" data-paper-data="{&quot;index&quot;:null}" fill="#b22020" stroke="#bd2222" stroke-width="2.5" stroke-linecap="round"/><path d="M201.46348,208.17936v-3.74217h77.15507v3.74217z" fill="#7e1717" stroke="none" stroke-width="0" stroke-linecap="butt"/></g></g></svg>