<svg version="1.1" xmlns="http://www.w3.org/2000/svg" xmlns:xlink="http://www.w3.org/1999/xlink" width="160.84602" height="384.53186" viewBox="0,0,160.84602,384.53186"><g transform="translate(-135.51068,36.2162)"><g data-paper-data="{&quot;isPaintingLayer&quot;:true}" fill-rule="nonzero" stroke="none" stroke-linecap="butt" stroke-linejoin="miter" stroke-miterlimit="10" stroke-dasharray="" stroke-dashoffset="0" style="mix-blend-mode: normal"><path d="M184.92498,317.60608c0.06837,-0.02526 0.13716,-0.05068 0.20633,-0.07624c0.02541,-0.47203 -0.16522,-1.0102 -0.17689,-1.49358l2.92431,-1.89366c0,0 1.71054,0 2.14417,1.66475c3.84963,-1.23807 8.07712,-2.2158 11.55908,-1.65077c4.35329,0.70641 8.16074,3.03154 12.62514,3.32635c12.06865,0.79697 24.4196,-0.00514 36.51475,-0.00514h1.23212l0.26414,-0.58878l0.04744,0.02643c0.035,-0.10831 0.07151,-0.21613 0.10965,-0.32343c0.27202,-0.7653 0.79151,-1.35931 1.35241,-1.92466c0.15079,-1.87801 1.68046,-2.14728 2.11601,-2.18588c1.59182,-2.54648 3.30795,-5.00828 5.10643,-6.4181c0.74269,-0.58219 1.84898,0.10027 2.71864,-0.19075c2.43994,-0.81652 4.34322,-3.04286 6.72889,-4.03883l3.902,-2.37207c0.32746,-0.20838 0.70657,-0.32746 1.11065,-0.32746c1.23886,0 2.24315,1.11929 2.24315,2.5c0,0.41989 -0.09288,0.81561 -0.25699,1.16302l-0.60889,1.35722c1.8616,-1.493 3.7387,-2.57791 5.69682,-3.4845l-0.09721,-0.17334l3.77505,-2.62957c0.35079,-0.25333 0.76908,-0.40043 1.21819,-0.40043c1.23886,0 2.24315,1.11929 2.24315,2.5c0,0.46384 -0.11334,0.89818 -0.31085,1.27049l-1.62184,3.19211c-1.2732,2.50593 -2.27109,4.99249 -3.70843,7.15075c1.78967,-0.7022 3.5016,-1.30928 5.26305,-1.83586l-0.12017,-0.35714l4.15225,-1.73539c0.25837,-0.11572 0.54053,-0.17941 0.83603,-0.17941c1.23886,0 2.24315,1.11929 2.24315,2.5c0,0.34826 -0.06389,0.67989 -0.17933,0.98112l-1.47738,4.11634l-0.1828,-0.08149l-0.11949,0.67373c-1.02904,0.87662 -2.19732,1.58091 -3.08712,2.62987c-2.52523,2.97691 -3.47041,8.05616 -5.70464,11.33546c-0.04992,0.07327 -5.77785,6.49202 -6.18541,6.92628c-0.87504,0.93241 -2.08535,1.55303 -2.68604,2.72448c-0.44812,0.8739 0.35523,2.26206 -0.25266,3.00646c-2.51609,3.08111 -9.11513,2.08535 -12.29609,1.87202c-1.05181,-0.07054 -2.23215,-1.12935 -3.12777,-0.51064c-0.88157,0.609 0.0539,2.9309 -0.92567,3.31082c-2.03273,0.78839 -4.33718,0.03745 -6.44411,-0.45246c-0.80123,-0.1863 -1.23399,-1.37157 -2.04147,-1.52061c-1.24394,-0.22959 -2.50739,0.29975 -3.76107,0.44963c-1.23594,0.05404 -2.5542,-0.33511 -3.70781,0.16213c-1.19712,0.51599 -1.69517,2.69407 -2.97848,2.71983c-1.61535,0.03242 -2.91217,-1.58331 -4.26095,-2.57452c-2.31263,-1.69954 -4.02035,-4.33344 -6.4105,-5.8941c-0.40044,-0.26147 -1.00887,-0.34192 -1.39161,-0.04937c-1.05196,0.80404 -1.56303,2.31038 -2.61612,3.11259c-1.10699,0.84328 -2.45679,1.20383 -3.71765,1.71232c-1.79701,0.72471 -3.54211,2.11563 -5.44953,1.98471c-1.07456,-0.07375 -1.31928,-2.04436 -2.30875,-2.51721c-0.43683,-0.20875 -0.75814,0.68328 -1.21382,0.83384c-0.83497,0.27588 -1.72317,0.28302 -2.58517,0.42136c-2.96033,0.47511 -5.89895,1.18161 -8.88262,1.41267c-2.07133,0.16041 -4.52764,1.44789 -6.22805,0.11992c-0.90377,-0.70583 -0.31095,-2.20895 0.01986,-3.59747c-0.00678,0.00625 -0.01379,0.01192 -0.02102,0.01696c-1.23662,0.86354 -2.75007,1.09677 -4.08763,1.7471c-1.49507,0.72691 -2.77544,2.25255 -4.40252,2.38084c-0.17208,0.01357 -0.34379,0.0201 -0.51519,0.02034v0.04649h-4.4863c-1.23886,0 -2.24315,-1.11929 -2.24315,-2.5c0,-0.28922 0.04406,-0.56696 0.12512,-0.82535c-5.24424,0.1776 -10.64608,2.67253 -15.83965,1.65776h-4.4863c-1.23886,0 -2.24315,-1.11929 -2.24315,-2.5c0,-0.46694 0.11486,-0.90397 0.3148,-1.27793c-4.13119,-0.30068 -8.2651,-0.78746 -12.28867,-1.53093v0.30608h-4.4863c-1.23886,0 -2.24315,-1.11929 -2.24315,-2.5c0,-0.90946 0.43573,-1.70549 1.08722,-2.14294l2.14775,-1.49605c2.39624,-1.66743 4.49581,-3.87895 7.02174,-5.28873c0.82816,-0.46222 1.81074,-0.43541 2.71503,-0.65861c0.36048,-0.08898 1.42852,-0.14448 1.07923,-0.27789c-0.93561,-0.35736 -2.0203,-0.03222 -2.9415,-0.4334c-4.15784,-1.81074 -7.55567,-5.20265 -10.43507,-9.00257l-0.19608,0.25826l-3.41276,-3.21837c-0.49274,-0.45859 -0.80623,-1.1484 -0.80623,-1.91981c0,-1.38071 1.00429,-2.5 2.24315,-2.5c0.27637,0 0.54108,0.05571 0.78556,0.15759l1.99441,0.77231c3.07996,0.15583 5.84501,-0.08226 8.55041,0.8638l0.00473,-0.10012c-0.42561,-0.73018 -0.82951,-1.47696 -1.2153,-2.2363l-0.24495,0.20475l-2.67819,-3.9798c-0.28991,-0.42124 -0.46222,-0.94829 -0.46222,-1.5202c0,-1.38071 1.00429,-2.5 2.24315,-2.5c0.26746,0 0.524,0.05217 0.76185,0.14788l2.45262,0.91523l-0.00137,0.00458l0.01375,0.00008c2.82898,1.09664 5.65796,2.19328 8.48694,3.28995c0.30257,0.1173 0.61279,0.21742 0.92575,0.3114l-1.79368,-2.80396c-0.27156,-0.41348 -0.43189,-0.92342 -0.43189,-1.47509c0,-1.38071 1.00429,-2.5 2.24315,-2.5c0.52081,0 1.00017,0.19782 1.38088,0.52971l3.54465,3.02632c5.08558,4.34194 9.49948,9.15609 14.13631,13.95126c0.09305,-0.18001 0.21133,-0.34477 0.36088,-0.4906c1.34642,-1.31298 3.53853,-0.67367 5.32681,-0.73223c0.14343,-0.0047 0.29286,0.15468 0.43031,0.30998c0.20684,-0.12604 0.35661,-0.18169 0.35661,-0.18169z" fill="#fcfcfc" stroke-width="0.5"/><path d="M197.55135,319.54963c0.04547,-0.0168 0.09122,-0.03371 0.13723,-0.05071c0.0169,-0.31395 -0.10989,-0.67189 -0.11765,-0.99339l1.94499,-1.25949c0,0 1.1377,0 1.42611,1.10724c2.56043,-0.82345 5.37218,-1.47375 7.68808,-1.09795c2.89542,0.46984 5.4278,2.01631 8.39712,2.21239c8.027,0.53007 16.24174,-0.00342 24.28636,-0.00342h0.81949l0.17568,-0.3916l0.03155,0.01758c0.02327,-0.07204 0.04756,-0.14375 0.07293,-0.21512c0.18092,-0.50901 0.52644,-0.90409 0.8995,-1.28011c0.1003,-1.24909 1.11769,-1.42818 1.40738,-1.45386c1.05874,-1.69369 2.20015,-3.33106 3.39635,-4.26875c0.49398,-0.38722 1.22979,0.06669 1.8082,-0.12687c1.62283,-0.54307 2.88872,-2.02384 4.47546,-2.68627l2.59526,-1.57769c0.21779,-0.1386 0.46996,-0.21779 0.73871,-0.21779c0.82398,0 1.49195,0.74445 1.49195,1.66278c0,0.27928 -0.06178,0.54247 -0.17093,0.77354l-0.40498,0.9027c1.23817,-0.99301 2.48666,-1.7146 3.78902,-2.31758l-0.06465,-0.11529l2.51083,-1.74895c0.23331,-0.16849 0.51152,-0.26633 0.81024,-0.26633c0.82398,0 1.49195,0.74445 1.49195,1.66278c0,0.30851 -0.07539,0.59739 -0.20675,0.84502l-1.0787,2.12311c-0.84683,1.66672 -1.51053,3.32056 -2.46651,4.75605c1.19032,-0.46704 2.32896,-0.87082 3.50051,-1.22105l-0.07993,-0.23754l2.7617,-1.15422c0.17184,-0.07697 0.35951,-0.11933 0.55605,-0.11933c0.82398,0 1.49195,0.74445 1.49195,1.66278c0,0.23163 -0.04249,0.4522 -0.11927,0.65255l-0.98262,2.73782l-0.12158,-0.0542l-0.07947,0.44811c-0.68443,0.58305 -1.46146,1.05148 -2.05327,1.74916c-1.67956,1.97997 -2.30821,5.35824 -3.79422,7.53934c-0.0332,0.04873 -3.84291,4.31791 -4.11398,4.60675c-0.582,0.62016 -1.38699,1.03294 -1.78652,1.81208c-0.29804,0.58124 0.23626,1.50452 -0.16805,1.99963c-1.67348,2.04928 -6.06257,1.38699 -8.17827,1.2451c-0.69958,-0.04692 -1.48462,-0.75115 -2.08032,-0.33964c-0.58634,0.40505 0.03585,1.94937 -0.61567,2.20207c-1.35198,0.52437 -2.8847,0.02491 -4.28604,-0.30093c-0.5329,-0.12391 -0.82074,-0.91225 -1.35781,-1.01137c-0.82736,-0.15271 -1.66769,0.19937 -2.50154,0.29905c-0.82203,0.03595 -1.69882,-0.22289 -2.46611,0.10783c-0.79621,0.34319 -1.12748,1.79185 -1.98103,1.80899c-1.07439,0.02157 -1.93691,-1.05307 -2.83401,-1.71234c-1.53816,-1.13038 -2.67399,-2.88222 -4.2637,-3.92023c-0.26634,-0.17391 -0.67101,-0.22741 -0.92558,-0.03284c-0.69967,0.53478 -1.03959,1.53666 -1.74,2.07022c-0.73627,0.56087 -1.63404,0.80068 -2.47264,1.13889c-1.1952,0.48202 -2.35589,1.40713 -3.62455,1.32005c-0.7147,-0.04906 -0.87747,-1.35973 -1.53557,-1.67422c-0.29054,-0.13885 -0.50424,0.45446 -0.80733,0.5546c-0.55535,0.18349 -1.1461,0.18824 -1.71942,0.28025c-1.96895,0.316 -3.92346,0.78591 -5.90793,0.93959c-1.37766,0.10669 -3.01139,0.963 -4.14234,0.07976c-0.60111,-0.46945 -0.20682,-1.4692 0.01321,-2.39271c-0.00451,0.00416 -0.00918,0.00792 -0.01398,0.01128c-0.82249,0.57435 -1.8291,0.72947 -2.71873,1.16202c-0.99439,0.48348 -1.84598,1.4982 -2.92816,1.58352c-0.11445,0.00903 -0.22866,0.01337 -0.34265,0.01353v0.03092h-2.98389c-0.82398,0 -1.49195,-0.74445 -1.49195,-1.66278c0,-0.19236 0.0293,-0.37709 0.08322,-0.54895c-3.488,0.11812 -7.08082,1.77754 -10.53513,1.10259h-2.98389c-0.82398,0 -1.49195,-0.74445 -1.49195,-1.66278c0,-0.31056 0.07639,-0.60124 0.20938,-0.84997c-2.7477,-0.19999 -5.49721,-0.52375 -8.17333,-1.01824v0.20357h-2.98389c-0.82398,0 -1.49195,-0.74445 -1.49195,-1.66278c0,-0.60489 0.28981,-1.13434 0.72312,-1.42529l1.42849,-0.99504c1.59377,-1.10903 2.99021,-2.57993 4.67023,-3.51759c0.55082,-0.30743 1.20435,-0.2896 1.8058,-0.43805c0.23977,-0.05918 0.95013,-0.0961 0.71782,-0.18483c-0.62229,-0.23768 -1.34372,-0.02143 -1.95642,-0.28826c-2.76543,-1.20435 -5.02536,-3.46034 -6.94048,-5.98771l-0.13042,0.17177l-2.26986,-2.14057c-0.32772,-0.30501 -0.53624,-0.76381 -0.53624,-1.27688c0,-0.91833 0.66797,-1.66278 1.49195,-1.66278c0.18382,0 0.35988,0.03705 0.52248,0.10481l1.32651,0.51367c2.04852,0.10365 3.88758,-0.05471 5.68697,0.57453l0.00315,-0.06659c-0.28308,-0.48565 -0.55172,-0.98235 -0.80831,-1.48739l-0.16292,0.13618l-1.7813,-2.64701c-0.19282,-0.28017 -0.30743,-0.63072 -0.30743,-1.0111c0,-0.91833 0.66797,-1.66278 1.49195,-1.66278c0.17789,0 0.34851,0.0347 0.50672,0.09836l1.63126,0.60873l-0.00092,0.00304l0.00914,0.00006c1.88159,0.72938 3.76317,1.45878 5.64476,2.18818c0.20125,0.07801 0.40757,0.14461 0.61573,0.20712l-1.193,-1.86495c-0.18062,-0.27501 -0.28725,-0.61417 -0.28725,-0.9811c0,-0.91833 0.66797,-1.66278 1.49195,-1.66278c0.3464,0 0.66522,0.13157 0.91844,0.35232l2.35758,2.01284c3.38247,2.88787 6.3182,6.08982 9.40222,9.27914c0.06189,-0.11973 0.14056,-0.22931 0.24003,-0.3263c0.89552,-0.87328 2.35351,-0.44807 3.54292,-0.48702c0.0954,-0.00312 0.19479,0.10288 0.2862,0.20617c0.13757,-0.08383 0.23719,-0.12084 0.23719,-0.12084z" fill="#e6e6e6" stroke-width="0.5"/><path d="M203.70592,333.23256v-369.44876h22.36137v369.44876z" fill="#625eff" stroke-width="0"/><path d="M211.80462,333.37838v-369.44876h6.80563v369.44876z" fill="#9492ff" stroke-width="0"/><path d="M233.19377,333.04549v-345.64922h18.47243v345.64922z" fill="#5e9aff" stroke-width="0"/><path d="M239.884,333.18192v-345.64922h5.62204v345.64922z" fill="#615eff" stroke-width="0"/><path d="M179.06952,332.43607v-345.64922h18.47244v345.64922z" fill="#5e9aff" stroke-width="0"/><path d="M185.75976,332.57249v-345.64922h5.62204v345.64922z" fill="#615eff" stroke-width="0"/><path d="M157.3644,37.84855c0,-1.61877 1.61877,-1.61877 1.61877,-1.61877l3.23085,0.03078c7.69095,3.02938 15.3365,5.91659 22.3147,10.35726c1.12672,0.717 5.73778,3.51755 6.16916,4.47009c0.31932,0.7051 -2.55998,5.15909 -2.68938,5.37477c-1.04477,1.74129 -2.5152,3.27911 -3.17369,5.20006c-0.24355,0.71048 -0.05403,1.50124 -0.09459,2.25121c-0.11658,2.15521 -0.26927,4.30831 -0.4039,6.46247c-0.06731,1.07708 -0.0316,2.16558 -0.20195,3.23123c-0.0812,0.50799 -0.58731,1.03454 -0.70732,1.51149h0.83422c0.89402,0 1.61877,0.72475 1.61877,1.61877c0,0.36497 -0.12079,0.70173 -0.32456,0.97249l-1.55656,2.11857c-1.23147,1.67611 -2.73375,3.18067 -3.70827,5.01809c-1.40941,2.65741 -2.1501,6.09795 -3.15898,8.93514c-0.36157,1.01681 -0.62723,2.073 -1.0847,3.05042c-0.29957,0.64004 -1.49361,1.13925 -1.17039,1.76768c0.32322,0.62843 1.42382,-0.05276 2.11866,0.076c1.06627,0.19759 2.08789,0.58735 3.12741,0.89617c3.04156,0.90358 6.36343,1.65829 9.29818,2.8609c1.42825,0.58528 3.662,0.56367 4.16536,2.02281c0.34978,1.01393 -3.61603,5.64315 -4.29134,6.4823c-5.59969,4.52186 -11.23468,9.00042 -16.85496,13.49665c-1.6854,1.34832 -3.36253,2.70702 -5.05619,4.04495c-0.75606,0.59726 -1.50457,1.20486 -2.28047,1.77611c-0.21736,0.16003 -0.88768,0.22546 -0.6954,0.41488c0.27926,0.27511 0.80695,-0.07873 1.17462,0.05722c1.0122,0.37428 1.93058,0.96508 2.89574,1.44787c3.37563,1.68852 6.84441,3.06912 10.33508,4.50646c1.99579,0.8218 4.33837,1.07278 5.98736,2.46539l0.34246,0.14101c0.02993,-0.00164 0.06007,-0.00248 0.09041,-0.00248c0.27188,0 0.52811,0.06703 0.75306,0.18546l1.88398,0.94199c0.54754,0.25956 0.9262,0.81734 0.9262,1.46355c0,0.62962 -0.35946,1.17528 -0.88435,1.44297c2.40712,4.17519 4.78979,8.36447 7.18087,12.54886c0.53542,0.93699 1.09616,1.85997 1.60627,2.81097c0.40191,0.74928 0.448,1.77784 1.12854,2.28757c0.61344,0.45946 1.5772,-0.0292 2.28359,0.26815c0.2254,0.09488 5.32813,3.50954 5.68736,3.74903c3.17436,2.11837 6.58007,3.71581 9.82469,5.71008c0.48445,0.29776 0.86416,0.91367 1.33376,1.20663c0.48044,-0.14535 0.96134,-0.28986 1.44261,-0.43347c0.26661,-0.35811 0.49796,-0.79673 0.81466,-1.07331c0.81283,-0.70989 1.69242,-1.33949 2.53864,-2.00922c4.23106,-3.34871 8.46211,-6.69742 12.69317,-10.04613c0.88882,-0.70347 5.44,-4.45359 6.26912,-4.35704c1.4594,0.16995 2.10963,2.04889 3.09117,3.14221c2.90572,3.23662 5.5059,6.78795 8.2063,10.2307l2.09486,1.63874c0.38563,0.29589 0.63424,0.76144 0.63424,1.28506c0,0.80488 -0.58744,1.47257 -1.35696,1.59771l-3.15754,0.5741c-4.45637,0.81025 -8.31353,1.13364 -12.83718,0.99256c-0.36578,-0.01141 -6.57545,-0.19671 -6.76704,-0.23836c-0.97413,-0.21175 -1.73459,-1.15315 -2.72899,-1.2233c-0.89625,-0.06323 -1.69994,0.58318 -2.55778,0.85033c-2.06074,0.64177 -4.14131,1.21803 -6.21197,1.82705c-0.11959,0.03517 -0.24003,0.06827 -0.36117,0.09964c-0.46108,0.3131 -0.80807,0.51592 -0.94805,0.52762c-0.33243,0.02778 -0.65125,-0.02407 -0.96102,-0.12746c-1.21195,0.23055 -2.41434,0.48078 -3.46362,1.09578c-0.47168,0.27646 -0.57618,0.92994 -0.88831,1.37882c-1.23223,1.77204 -2.5274,3.49947 -3.7911,5.24921c-1.77384,2.45609 -3.51538,5.76886 -5.68664,7.87381l-1.88327,2.6076c-0.29295,0.41612 -0.77702,0.688 -1.32458,0.688c-0.51544,0 -0.9746,-0.2409 -1.27106,-0.61625c-3.66695,3.91288 -7.3339,7.82576 -11.00086,11.73865c-0.55327,0.59038 -4.59418,4.97228 -5.05874,5.14014c-1.2465,0.45041 -2.64467,-0.18541 -3.96343,-0.31773c-1.54282,-0.15479 -3.10241,-0.15621 -4.63538,-0.38907c-0.69194,-0.1051 -1.35162,-0.72121 -2.02832,-0.54257c-0.35973,0.09496 0.56206,0.54488 0.65207,0.90588c0.52218,2.09424 0.50081,4.28757 0.75121,6.43135c0.49499,4.23772 0.83456,8.44162 1.87463,12.58309c0,0 0.39261,1.57044 -1.17783,1.96305c-1.57044,0.39261 -1.96305,-1.17783 -1.96305,-1.17783c-1.31989,-5.30215 -1.69157,-10.78503 -2.32504,-16.20838c-0.07417,-0.63501 -0.88229,-6.08508 -0.23044,-6.64957c1.47505,-1.27735 7.6323,-0.41589 9.48371,-0.1285c0.82645,0.12829 1.67507,0.76962 2.46164,0.4854c0.78657,-0.28422 1.0299,-1.31928 1.58279,-1.94681c0.71342,-0.80973 1.4759,-1.57488 2.21384,-2.36231c3.68974,-3.9372 7.37948,-7.87439 11.06922,-11.81159c0.73794,-0.78744 1.4759,-1.57488 2.21384,-2.36231l2.21077,-2.35904c0.2955,-0.31694 0.71672,-0.51512 1.18423,-0.51512c0.2078,0 0.40647,0.03915 0.589,0.11049c1.21235,-1.67864 2.4247,-3.35728 3.63706,-5.03593c1.2637,-1.74973 2.50179,-3.51825 3.7911,-5.24921c0.53508,-0.71838 0.88387,-1.65114 1.64319,-2.12633c0.45899,-0.28725 0.96628,-0.47113 1.49105,-0.61705c-3.09532,-1.60569 -6.11237,-3.38674 -9.00909,-5.31602c-1.70251,-1.13501 -3.20389,-2.63591 -5.08782,-3.43443c-0.9232,-0.3913 -2.15496,-0.00319 -2.94278,-0.62348c-0.41389,-0.32588 -3.27977,-5.42697 -3.69027,-6.14534c-2.71408,-4.74964 -5.43598,-9.49483 -8.12876,-14.25658l0.00445,-0.2313l-0.07309,0.01805l-0.17906,-0.72499l-0.33788,-0.13912c-2.11524,-0.42926 -3.99157,-1.64359 -5.98736,-2.46539c-3.56409,-1.46756 -7.10279,-2.88138 -10.55026,-4.6044c-0.61986,-0.3098 -5.4602,-2.56192 -5.69389,-3.37704c-0.94122,-3.28301 4.66381,-6.2541 6.55288,-7.76536c6.36982,-5.09586 12.71865,-10.21939 19.11625,-15.28032c0.63436,-0.79823 1.15619,-1.70061 1.90307,-2.39468c0.43829,-0.4073 1.89329,-0.33349 1.58345,-0.84535c-0.34985,-0.57798 -1.35655,0.22719 -2.02338,0.11858c-1.06514,-0.17348 -2.06291,-0.63475 -3.09437,-0.95211c-3.05897,-0.94122 -6.26342,-1.70362 -9.27086,-2.78702c-1.39455,-0.50238 -3.42798,-0.38937 -4.10594,-1.70752c-0.39809,-0.77399 1.69607,-6.29345 2.08372,-7.38359c1.06216,-2.98702 1.86616,-6.57109 3.34924,-9.36739c0.06816,-0.12852 3.33521,-4.56946 3.887,-5.31963c-0.076,-0.02235 -0.13784,-0.07367 -0.18049,-0.16421c-0.6316,-1.34094 -0.2277,-2.95835 -0.23386,-4.44057c-0.01331,-3.19853 0.38281,-6.50213 0.60585,-9.6937c0.07017,-1.00405 -0.08562,-2.05608 0.23426,-3.01041c0.08816,-0.26302 3.23974,-5.489 3.48911,-5.90461c0.55523,-0.92539 1.00166,-1.92547 1.6657,-2.77616c0.13863,-0.1776 0.83537,-0.06259 0.64892,-0.18907c-0.59515,-0.40371 -1.38745,-0.41162 -2.025,-0.74438c-2.73573,-1.42788 -5.09576,-3.58665 -7.8397,-4.99634c-5.11869,-2.6297 -10.8211,-4.34261 -16.09651,-6.65447l-2.60255,0.03078c0,0 -1.61877,0 -1.61877,-1.61877zM225.95682,169.18776c0.69499,-0.25463 1.39463,-0.47137 2.12054,-0.43808c1.16072,0.05323 2.10237,1.04346 3.23725,1.29276c2.01171,0.44191 4.11814,0.1011 6.17682,0.1653c4.19306,0.13076 7.70968,-0.15303 11.80712,-0.87908c-0.83691,-0.68405 -1.32779,-1.72747 -2.00352,-2.57841c-1.34223,-1.69024 -2.67868,-3.38507 -4.01802,-5.07761c-0.66967,-0.84627 -1.41696,-1.63653 -2.00901,-2.53881c-0.39242,-0.59804 -0.21635,-1.85267 -0.92685,-1.93541c-0.7105,-0.08274 -0.82744,1.17877 -1.34678,1.67064c-0.78354,0.74209 -1.69242,1.33949 -2.53864,2.00922c-3.49964,2.76982 -6.99928,5.53964 -10.49891,8.30946z" fill="#ffffff" stroke-width="0.5"/><path d="M237.61857,221.19909c1.19883,-1.08775 2.28659,0.11109 2.28659,0.11109l1.87906,2.07096c0.79711,0.89954 1.80715,1.64824 2.39135,2.6986c0.95187,1.71145 0.47253,3.96418 1.33897,5.72042c0.10712,0.21712 0.40691,-0.33618 0.64882,-0.32643c1.48828,0.05999 3.30365,-0.43536 4.43674,0.53142c0.86922,0.74164 0.2641,2.28154 0.19697,3.42218c-0.1281,2.17673 -0.66641,4.3144 -1.16884,6.43623c-0.17881,0.75514 -0.94963,1.48506 -0.70078,2.2201c0.19097,0.56406 1.13799,0.36803 1.66856,0.63846c0.90685,0.46221 1.75306,1.03483 2.62959,1.55224c3.00021,0.92335 6.1816,1.67225 9.10051,2.82405c1.3975,0.55145 3.5103,0.49197 4.09891,1.87422c0.58861,1.38225 -0.91205,2.86688 -1.48936,4.25389c-0.44613,1.07185 -0.91095,2.15404 -1.57432,3.10683c-1.23045,1.76727 -2.84576,2.33548 -3.66104,4.39524c-0.18239,0.46079 0.06217,0.98958 0.06946,1.4851c0.03174,2.15812 0.04042,4.31709 0,6.47508c-0.02424,1.29418 0.32884,2.67185 -0.13335,3.88093c-0.37642,0.98472 -1.45987,1.52176 -2.21365,2.25877c-0.21707,0.21224 -4.82229,4.5228 -4.93944,4.60004c-2.61049,1.721 -6.26939,2.76846 -9.14044,4.02455c-0.9887,0.43255 -1.95293,0.92603 -2.9661,1.29766c-0.71255,0.26137 -1.70875,0.01566 -2.19744,0.59637c-0.31609,0.37561 0.36253,0.91245 0.54378,1.36868c0.36002,1.43658 1.77572,6.49092 1.25912,7.59588c-0.6224,1.33126 -4.56708,0.23159 -5.43037,0.46014c-0.36562,0.0968 -0.34448,0.67703 -0.56729,0.98264c-0.63577,0.87202 -1.33559,1.6955 -2.00338,2.54325c-1.33559,1.6955 -2.62147,3.43137 -4.00677,5.08649c-0.86679,1.03562 -1.41957,2.54235 -2.67331,3.04434c-1.25374,0.50199 -2.6941,-0.20279 -4.03563,-0.35814c-1.47726,-0.17107 -3.01096,-0.3424 -4.46139,-0.01401c-0.84092,0.19039 -1.85899,-0.03124 -2.53773,0.50046c-0.67874,0.5317 -0.70592,1.57392 -1.09348,2.34411c-0.48509,0.96401 -1.0157,1.90444 -1.52355,2.85665c-1.52355,2.85665 -3.04709,5.7133 -4.57064,8.56995c0,0 -0.76177,1.42832 -2.1901,0.66655c-1.42832,-0.76177 -0.66655,-2.1901 -0.66655,-2.1901c2.02998,-3.80621 3.99084,-7.66056 6.09419,-11.4266c0.63302,-1.13342 0.93165,-2.56862 1.95361,-3.3692c2.28649,-1.79116 6.8806,-1.59214 9.45349,-1.14281c0.80086,0.13987 1.61963,0.85976 2.37437,0.55757c0.75473,-0.30219 0.8551,-1.3848 1.33346,-2.04215c1.88732,-2.59349 3.95521,-5.16679 6.01015,-7.62974c0.54275,-0.65051 0.90105,-1.60206 1.6971,-1.89196c1.22944,-0.44772 2.62006,-0.30434 3.92204,-0.1648c-0.72614,-1.34292 -1.14197,-2.85978 -1.51183,-4.34267c-0.06809,-1.18934 -0.84228,-2.56199 -0.20428,-3.56803c0.75622,-1.19244 2.46775,-1.37564 3.73475,-1.99896c3.66364,-1.80241 8.22268,-2.81792 11.62222,-5.05911c1.72559,-1.13762 2.96279,-2.88457 4.50677,-4.2586c0.46758,-0.41611 1.25045,-0.5933 1.45747,-1.184c0.28638,-0.81713 -0.11356,-1.72851 -0.13335,-2.59415c-0.04934,-2.15779 -0.02648,-4.31688 0,-6.47508c0.00991,-0.80803 -0.2178,-1.66797 0.06946,-2.42328c0.79775,-2.09758 2.82637,-3.49108 4.11683,-5.3271c0.57354,-0.81601 0.78016,-1.84687 1.32141,-2.68465c0.37693,-0.58342 1.67852,-0.89853 1.40639,-1.53759c-0.27213,-0.63906 -1.40152,0.08201 -2.08313,-0.05164c-3.14886,-0.61744 -6.38514,-1.98982 -9.44561,-2.95354c-0.54879,-0.31916 -5.68865,-3.19803 -5.93217,-3.80095c-0.25765,-0.63789 0.8547,-6.33624 1.03667,-7.33585c0.18931,-1.03995 0.26396,-2.10753 0.56861,-3.11972c0.09667,-0.32119 0.94068,-0.73761 0.61101,-0.79953c-1.53613,-0.28855 -3.01621,1.91217 -4.63678,0.20499c-2.03804,-2.14696 -0.94537,-4.44204 -2.2187,-6.73146c-0.46499,-0.83604 -1.30644,-1.39783 -1.95966,-2.09675l-1.87906,-2.07096c0,0 -1.08775,-1.19883 0.11109,-2.28659z" fill="#ffffff" stroke-width="0.5"/><path d="M237.40839,216.56452c0,1.61877 -1.61877,1.61877 -1.61877,1.61877h-1.94447c0,0 -1.61877,0 -1.61877,-1.61877c0,-1.61877 1.61877,-1.61877 1.61877,-1.61877h1.94447c0,0 1.61877,0 1.61877,1.61877z" fill="#ffffff" stroke-width="0.5"/><path d="M189.59805,231.39633c0.72393,1.44787 -0.72393,2.17181 -0.72393,2.17181l-1.44932,0.58937c-0.47669,1.71064 -1.35762,3.29513 -2.26219,4.82328c-1.6563,2.78178 -3.31262,5.56356 -4.96892,8.34534c-0.27916,0.46885 -3.37742,5.7097 -3.60162,5.92127c-1.14279,1.07835 -3.67345,1.2557 -4.50273,2.94719c-0.32043,0.65357 -0.16574,1.44687 -0.2826,2.16532c-0.15036,0.92446 -0.60434,1.82883 -0.51874,2.76152c0.07899,0.86058 0.75291,1.56484 0.99206,2.39529c0.42684,1.48221 1.87002,3.24537 0.99885,4.51824c-0.56118,0.81994 -5.37204,0.70448 -6.84842,0.70448c-2.03795,0 -4.12374,-0.48052 -6.1137,-0.04085c-0.87559,0.19346 -1.59931,0.81162 -2.40393,1.20745c-1.9367,0.95273 -3.88644,1.87872 -5.82967,2.81808c-0.97161,0.46968 -1.8897,1.07181 -2.91483,1.40904c-0.64391,0.21183 -1.91185,-0.45375 -2.02217,0.21507c-0.11032,0.66882 1.23065,0.56873 1.84598,0.8531c1.48698,1.46287 2.78075,3.14903 4.45065,4.39905c2.43044,1.81934 5.6486,3.12754 8.30366,4.60548c0.9901,0.55114 6.1981,3.31745 6.42694,4.11966c0.22378,0.78446 -2.73216,5.91292 -3.28619,6.89044c-0.60442,1.06643 -2.19265,2.35105 -1.49576,3.3595c1.5766,2.2814 4.35038,3.45603 6.83441,4.24215c4.03413,1.27667 7.84351,2.56432 12.0909,2.5459c0,0 1.61877,0 1.61877,1.61877c0,1.61877 -1.61877,1.61877 -1.61877,1.61877c-6.11619,-0.02336 -14.63398,-1.81998 -19.27534,-6.02587c-0.93898,-0.85088 -2.09095,-1.59653 -2.63315,-2.74183c-1.31996,-2.78812 1.7818,-6.8965 3.2211,-9.01979c0.40143,-0.5922 1.62693,-0.91193 1.43067,-1.59991c-0.19625,-0.68798 -1.406,-0.31304 -2.05946,-0.60432c-0.98569,-0.43938 -1.88587,-1.04977 -2.8288,-1.57466c-2.78296,-1.54914 -6.12266,-2.93627 -8.66914,-4.84247c-0.11467,-0.08584 -4.58613,-4.49123 -4.78101,-4.68295c-0.92329,-1.2293 -3.02006,-2.17099 -2.76986,-3.68791c0.2502,-1.51692 2.48734,-1.8151 3.80751,-2.60301c2.72599,-1.62693 5.87668,-2.86247 8.74451,-4.22712c1.02724,-0.48881 1.97979,-1.20121 3.09021,-1.44844c1.17104,-0.26073 2.39922,-0.03368 3.59892,-0.04085c1.83749,-0.01098 3.70064,-0.30562 5.51256,0c0.66658,0.11243 1.51988,1.26234 1.90168,0.70448c0.3818,-0.55785 -1.02655,-0.92147 -1.34511,-1.51769c-0.5418,-1.01402 -1.08636,-2.091 -1.19459,-3.23558c-0.01233,-0.13035 0.93439,-6.35261 1.14313,-6.73996c0.55403,-1.02811 1.49904,-1.82155 2.43732,-2.51696c0.81463,-0.60377 1.99103,-0.63741 2.74038,-1.32052c1.48301,-1.35192 1.99697,-3.4816 3.0236,-5.20584c1.6563,-2.78178 3.31262,-5.56356 4.96892,-8.34534c1.01151,-1.68786 1.89743,-3.46117 2.60579,-5.29699l2.43962,-1.3551c0,0 1.44787,-0.72393 2.17181,0.72393z" fill="#ffffff" stroke-width="0.5"/></g></g></svg>